<?xml version="1.0" encoding="utf-8"?>
<!-- Generator: Adobe Illustrator 16.0.0, SVG Export Plug-In . SVG Version: 6.00 Build 0)  -->
<!DOCTYPE svg PUBLIC "-//W3C//DTD SVG 1.1//EN" "http://www.w3.org/Graphics/SVG/1.1/DTD/svg11.dtd">
<svg version="1.1" id="Layer_1" xmlns="http://www.w3.org/2000/svg" xmlns:xlink="http://www.w3.org/1999/xlink" x="0px" y="0px"
	 width="123.851px" height="120.076px" viewBox="0 0 123.851 120.076" style="enable-background:new 0 0 123.851 120.076;"
	 xml:space="preserve">
<style type="text/css">
<![CDATA[
	.st0{fill-rule:evenodd;clip-rule:evenodd;}
]]>
</style>
<path class="st0" d="M91.218,99.512c3.91-1.075,7.178-2.865,9.329-6.055c3.809-5.648,7.388-11.453,11.044-17.204
	c0.266-0.417,0.65-1.03,0.521-1.386c-1.245-3.429,0.029-7.497-2.744-10.563c-0.48-0.531-0.392-1.575-0.575-2.379
	c-0.341-1.496-0.522-3.055-1.071-4.47c-0.907-2.34-1.626-4.618-1.347-7.215c0.16-1.479-0.416-3.022-0.512-4.546
	c-0.179-2.839-0.502-5.704-0.281-8.52c0.159-2.014,0.71-4.229,1.801-5.882c1.532-2.322,2.289-5.193,5.245-6.674
	c2.41-1.208,4.323-3.407,6.464-5.173c1.725,0.609,3.363,0.842,4.202,2.59c1.155,2.407,0.506,5.23-1.88,7.146
	c-2.685,2.156-4.439,5.025-5.616,8.113c-0.61,1.6-0.323,3.656-0.051,5.446c0.257,1.682,0.179,3.431,1.141,5.063
	c0.537,0.913,0.223,2.336,0.268,3.531c0.061,1.628,0.289,3.104,0.92,4.734c1.558,4.017,2.681,8.251,3.476,12.492
	c0.361,1.924-0.517,4.065-0.749,6.118c-0.303,2.692-0.432,5.407-0.806,8.087c-0.371,2.65-1.777,4.926-3.112,7.175
	c-0.939,1.581-2.271,2.932-3.176,4.528c-1.147,2.026-2.808,3.484-4.468,5.045c-2.65,2.493-5.73,4.359-8.676,6.409
	c-1.854,1.29-4.003,2.153-5.982,3.271c-2.528,1.427-5.017,2.924-7.528,4.379c-5.019,2.906-10.714,3.718-16.186,5.224
	c-4.028,1.108-8.197,1.563-12.274,1.102c-2.833-0.319-6.054-0.29-8.337-2.687c-0.138-0.146-0.325-0.317-0.505-0.339
	c-4.915-0.571-5.395-5.146-7.29-8.329c-0.562-0.942,0.122-2.603,0.172-3.937c0.187-4.935,0.354-9.869,0.515-14.805
	c0.054-1.646,0.133-3.297,0.08-4.94c-0.043-1.334-0.223-2.668-0.419-3.99c-0.454-3.063-0.767-6.163-1.498-9.16
	c-0.525-2.154-1.301-4.399-2.558-6.188c-2.01-2.864-4.517-5.377-6.801-8.05c-1.009-1.181-2.146-1.274-3.636-0.903
	c-2.853,0.711-5.751,1.379-8.669,1.645c-2.645,0.241-5.431,0.314-7.981-0.284c-1.741-0.408-3.348-1.924-4.728-3.244
	c-5.395-5.159-7.862-11.508-6.626-18.929C0.709,33.38,1,30.952,1.888,28.564c1.001-2.691,1.987-5.339,4.17-7.059
	c1.416-1.115,1.585-2.516,1.914-3.814c0.874-3.448,1.416-6.982,2.043-10.49c0.182-1.016,0.162-2.066,0.318-3.088
	c0.4-2.619,2.974-4.5,5.55-4.045c1.274,0.225,2.35,0.789,2.911,2.078c1.348,3.1,2.989,6.094,3.221,9.575
	c0.033,0.495,0.174,1.076,0.478,1.44c0.617,0.741,0.9,1.966,2.308,1.737c1.27-0.207,1.693-1.092,1.878-2.17
	c0.409-2.379,0.9-4.754,1.132-7.152c0.23-2.386,0.987-3.618,3.008-4.122c2.556-0.638,5.011,0.175,5.919,2.139
	c0.466,1.009,0.769,2.162,0.844,3.27c0.286,4.226,0.448,8.459,0.661,12.689c0.026,0.519-0.12,1.253,0.161,1.518
	c2.48,2.329,2.205,5.65,3.024,8.523c0.815,2.858,0.996,5.903,1.372,8.876c0.422,3.351,1.87,4.843,5.139,5.149
	c0.511,0.048,1.111,0.026,1.507,0.285c2.684,1.753,5.521,3.343,7.931,5.424c3.49,3.012,6.385,6.764,10.056,9.497
	c2.813,2.094,4.596,5.358,8.001,6.711c0.479,0.19,0.757,0.925,1.094,1.431c0.395,0.593,0.619,1.385,1.147,1.79
	c2.457,1.877,3.921,4.519,5.529,7.031c1.146,1.792,2.702,3.679,2.901,5.643c0.358,3.529,3.115,6.083,3.118,9.771
	C89.228,93.867,90.456,96.533,91.218,99.512z"/>
</svg>
