<?xml version="1.0" encoding="utf-8"?>
<!DOCTYPE svg PUBLIC "-//W3C//DTD SVG 1.1//EN" "http://www.w3.org/Graphics/SVG/1.1/DTD/svg11.dtd">
<svg version="1.1" id="Gazania-MiniMap" xmlns="http://www.w3.org/2000/svg" xmlns:xlink="http://www.w3.org/1999/xlink" x="0px" y="0px"
	 width="1000px" height="650px" viewBox="0 0 1000 650" enable-background="new 0 0 1000 650" xml:space="preserve">
<path fill-rule="evenodd" clip-rule="evenodd" d="M35.6,103.2c-2.2-3.2-5.1-5.4-8.8-5.9c-7.2-1.1-14.5-1.8-21.8-2.9
	c-1.5-0.2-3.5-1-4.1-2.1c-1-1.8,0.4-3.3,2-4.5c7.2-5.6,11.3-13.3,14.8-21.4c0.7-1.5-0.1-3.7-0.3-5.5c-0.4-3.6-1.3-7.2-1.1-10.7
	c0.2-4.6,3-8,6.9-10.3c4.3-2.5,8.7-4.8,13.2-6.7c2.5-1,3.1-2.5,2.9-4.7c-0.2-2.4-0.7-4.7-0.9-7.1c-0.3-4.7,1.9-8.2,6.3-9.9
	C51,9.2,57.5,8.4,64.3,9.4c1.6,0.2,3.4-0.3,5-0.9c2.2-0.9,4.2-2.2,6.4-3.1c6.4-2.7,17.7,1.3,20.1,10c3.7,0,7.2-0.2,10.6,0.1
	c4,0.4,7.1,2.6,9.6,5.7c3.5,4.3,3.2,9-1,12.6c-2.5,2.2-5.3,4.1-8,5.9c-1.6,1.1-2.4,2.3-2.3,4.2c0.2,4,0.1,8,0.7,11.9
	c0.5,3.9,2.6,5,6.3,4.1c3.8-0.9,7.6-1.7,11.4-2.7c4.1-1.2,7-3.7,8.2-8c1.2-4.3,3-8.4,4.2-12.8c2.1-7.7,6.8-12.2,14.9-13.3
	c13.2-1.8,26-1.1,37.4,6.5c8.5,5.6,15.8,12.7,18,23c1.3,5.9,1.4,12.1,1.4,18.2c0,3.8,0.6,7.3,2.2,10.7c3.2,6.5,4.6,13.5,4.4,20.8
	c-0.1,5.9-2.6,10.6-8,12.8c-6.9,2.7-12.5,7-17.7,12.2c-2.9,2.9-6.3,5.2-9.5,7.8c-0.5,0.4-1.1,1.1-1.7,1c-3.9-0.2-5.5,2.6-7.6,5.2
	c-4.4,5.6-10.5,8.4-17.6,8.9c-5.5,0.4-9.9-2.1-13.5-6.2c-2.9-3.4-3.9-3.5-8.2-2.2c-6.3,1.9-11.5,5.1-15.3,10.7
	c-2.1,3-5.4,5.4-8.4,7.6c-7.1,5.3-14.5,10.2-21.6,15.4c-1.1,0.8-2.2,2.6-2.2,3.9c0.1,6.5,0.2,13,0.8,19.4
	c1.1,11.3,2.4,22.5,3.9,33.7c0.4,3.2,1.7,6.2,2.9,9.2c0.8,2.1,0.2,3.5-1,5.2c-1.3,1.7-2.8,4-2.7,6c0.2,8,0.8,16,1.5,23.9
	c0.1,1.6,1.4,3.2,2.1,4.8c0.2,0.5,0.7,1.1,0.6,1.5c-0.9,3.5,1.7,5.8,2.7,8.6c2.3,6.4,4.5,13,5.8,19.6c1.4,7,1.5,14.2,2.5,21.2
	c0.7,4.7,2,9.3,3.3,13.9c0.9,3.1,1.1,5.7-1.8,8c-1.8,1.5-2,3.5-0.5,5.3c3.5,4.1,4.4,8.9,4.6,14.1c0.1,4.3,2.2,6.4,6.6,6.6
	c1.4,0.1,2.8-0.3,4.2-0.4c13.2-1.5,26.5-3,39.7-4.3c4.9-0.5,8,3,8.4,7.9c0.2,3,0.7,6.2,2,8.8c4.7,9.8,9.7,19.4,14.7,29
	c0.2,0.5,0.8,0.7,1.5,1.4c0.5-11.4,1-22.4,1.3-33.5c0.3-13.7,0.3-27.4,0.5-41.1c0.1-6.8,1.4-13.4,4.2-19.7c0.7-1.5,1.3-3.1,2.4-4.2
	c5.7-5.8,7.1-13.1,7.6-20.7c0.2-2.4,0.1-4.8,0-7.1c-0.1-2.1-0.4-4.2-2.4-5.5c-0.6-0.4-0.9-1.2-1.2-1.9c-3.4-8.9,0-18.8,8-24.2
	c1.6-1.1,3-3,3.7-4.8c0.5-1.6,0.4-4.3-0.6-5.2c-1.8-1.7-3.9-3.5-7.3-2.4c-3.1,1-6.6,1.2-9.8,1.2c-8.3-0.2-16.2,5.4-18.9,13.3
	c-1.7,4.8-3.7,9.6-6.3,14c-3.6,6.3-9.4,9.7-16.7,9.7c-6.4,0-11.8-4.2-13.4-10.4c-0.6-2.3-1-4.7-1.1-7c-0.2-5.1-4.2-8.2-6-12.5
	c-0.1-0.3-1.2-0.3-1.8-0.4c-1.9-0.2-3.8-0.2-5.7-0.6c-3.6-0.8-6.2-3-7.2-6.6c-1.4-5.1-1.6-10.2,0.5-15.1c1.7-4,1.7-8-0.1-11.9
	c-2.5-5.6-2.2-11.1,0.1-16.6c5.1-12.5,13.9-22.4,24.9-29.5c9.5-6.1,20.7-9.5,32.2-9.6c8.7-0.1,16.8,3.4,23.6,9
	c2.6,2.2,5.2,3.6,8.8,2.7c1.7-0.4,3.6,0,5.4-0.1c5.1-0.4,9.7-4.2,10.9-9.1c0.2-0.8-0.2-1.8-0.7-2.6c-1.9-3.1-4-6-6-9.1
	c-1.6-2.6-2.2-5.4-0.5-8.1c3.7-5.9,7.6-11.7,13.1-16.1c4.9-3.9,8.3-4,13.4-0.2c2.1,1.6,3.8,2.1,6.4,0.7c5.3-2.9,13,1,15,7.4
	c0.8,2.6,1.3,5.4,1.5,8.1c0.2,1.9,1,3,2.6,3.7c5.3,2.2,9,5.9,10.2,11.8c0.1,0.6,0.5,1.3,0.9,1.8c5.4,5.1,10.3,10.8,17.6,13.3
	c1.9,0.6,3.9,1,5.6,2c1.1,0.7,2.3,2.1,2.4,3.3c0.1,1-1.2,2.3-2.2,3.2c-0.5,0.5-1.6,0.7-2.4,0.8c-14,2.2-26.6,7.7-38.3,15.6
	c-1.6,1.1-2.2,3.5-3.2,5.4c-0.2,0.4-0.1,1.2,0.1,1.7c3,10.1-3.1,17.1-8.5,24.2c-1.3,1.7-3.5,2.9-5.5,3.9c-5,2.6-10.1,4.9-15.2,7.3
	c-4.2,2-6.9,5.3-8.4,9.6c-1.1,3-0.2,5.7,1.2,8.5c3.1,6.1,6,12.3,8.9,18.5c1,2,0.4,3.8-0.5,5.9c-4,8.6-5.6,17.5-2.2,26.8
	c0.5,1.2,1.7,2.3,2.8,3.2c8.8,7,12.5,16.4,12.5,27.3c-0.1,23.2,3.5,45.9,7.1,68.7c0.1,0.8,0.3,1.7,0.4,2.5c0.5,4.8,1.5,8.8,6.4,11.8
	c7.2,4.5,9.4,12.6,10.6,20.7c2.1,13.9,4.2,27.9,6,41.8c1.9,14.6,3.3,29.3,5,44c0.3,2.8,1.1,5.6,1.6,8.4c0.8,3.8-0.1,5.6-3.8,6.2
	c-6.3,1-12.6,2-19,2.1c-8.6,0.2-15.5,4.1-22,9.1c-0.6,0.4-0.9,1.7-0.8,2.5c0.5,2.4-0.5,3.4-2.5,4.3c-7.6,3.5-15.2,7-22.7,10.7
	c-13,6.5-25.9,13.2-38.8,20c-1.6,0.9-2.5,0.2-3.8-0.6c-1.4-0.9-3.1-1.9-4.7-1.9c-28.2-0.9-56.1,2.3-83.8,7.3c-5.4,1-9.5-2.9-8.5-8.3
	c0.6-3.5,1.5-6.9,2.3-10.7c-1.4-0.1-2.7-0.4-4-0.2c-7.4,1.3-13.6-1.8-19.7-5.4c-0.5-0.3-0.9-0.8-1.4-1c-7-3.3-8.2-9.3-7.3-16.1
	c1.8-14.5,2.5-29,2.3-43.6c-0.1-11.3-0.5-22.7,0.4-34c1.1-14.4,0.4-29,4.4-43.1c3.2-11.1,6.7-22,10.1-33c0.2-0.8,0.6-1.8,1.2-2.2
	c2.9-1.7,2.5-4,2-6.7c-2.2-11.6-4.2-23.2-6.4-34.8c-0.7-3.4-1.9-6.8-2.9-10.1c-0.4-1.4-1.2-1.8-2.7-1.8c-1,0-2.7-1-2.9-1.8
	c-5-18.8-7.4-37.6,0-56.4c1.3-3.2,3-6.4,5-9.2c3.4-4.6,4.9-9.6,5.1-15.1c0.3-7.3,1.1-14.6,1.3-22c0.1-2.4-0.8-4.8-0.9-7.3
	c-0.2-3.1-0.6-6.2-0.1-9.2c2.8-17.5,5.8-34.9,8.8-52.4c0.4-2.5-0.1-3.7-2.7-4.5c-5.2-1.6-9-5.2-12.3-9.4
	c-7.9-10.2-14.6-20.9-16.6-34c-0.8-5.5-0.5-10.8,0.7-16.1C32.3,114.3,32.1,108.3,35.6,103.2z"/>
<path fill-rule="evenodd" clip-rule="evenodd" d="M676.8,442.2c-1-0.3-2.1-0.5-3-1c-7.8-4.6-15.9-8.8-23.2-14.1
	c-12.4-9-25.8-16.2-39.5-22.9c-15.8-7.8-31.8-15.2-47.9-22.2c-16.1-6.9-32.8-11.7-50.6-11.3c-15.5,0.3-30,3.2-42.3,13.5
	c-3.6,3-7.4,5.8-11.3,8.3c-15.1,9.9-24.9,24.5-35,38.8c-4.2,6-8.2,12.2-11.7,18.6c-9.1,16.4-20.4,31.3-30.8,46.8
	c-5.4,8-11.4,15.2-19.7,20.4c-3.7,2.3-5.7,2.3-9-0.4c0.7-0.9,1.3-2.2,2.3-2.7c9.4-5.7,15.9-14.4,23-22.4
	c13.9-15.7,23-34.2,31.6-53.1c4-8.8,7.3-18,11.4-26.8c4.9-10.5,12.2-19.3,20.7-27.1c3.5-3.2,6.4-6.5,5.5-11.8
	c-0.2-1.1,0.4-2.2,0.5-3.4c1.4-12,2.8-23.9,4.2-35.9c-0.3-0.2-0.6-0.4-1-0.6c-3.1,1-6.2,1.9-9.2,3.2c-3.4,1.4-6.7,3.2-10.1,4.8
	c-1,0.5-2,1.3-3.1,1.5c-10.7,2-16.4,10.5-22.7,17.9c-4.8,5.7-8.3,12.5-12.8,18.6c-3.8,5.1-7.6,10.4-12.3,14.5
	c-8.7,7.7-18,14.7-27.1,21.8c-11.7,9.1-24.5,9.1-37.5,3.7c-5-2.1-9.6-5.4-14.2-8.4c-2.5-1.6-4.7-3.6-6.9-5.6
	c-5.1-4.6-10.6-8.2-17.6-9.6c-3.4-0.7-6.7-1.9-10.1-2.9c-0.5-0.1-1.2-0.6-1.2-0.9c0.1-0.7,0.4-1.7,0.9-1.8c1.6-0.4,3.4-0.8,5-0.5
	c17.8,3,34,9.6,48.1,21.1c1.8,1.4,4.9,2.2,7.1,1.9c7.8-1.1,15.6-2.7,23.3-4.4c5.7-1.2,10.4-4.3,15-7.9
	c13.6-10.8,23.3-24.8,32.7-39.1c0.5-0.7,1-1.6,0.8-2.3c-0.5-3,1-5.1,2.9-6.8c3.3-2.9,6.6-6.1,10.5-8.2c12.6-7,25.1-14,36.7-22.7
	c2.7-2,3.5-4.5,3.6-7.6c0.3-7.7,0.2-15.4,1-23.1c1.5-15.3,1.4-30.4-2.7-45.4c-0.6-2.1-1.6-4.3-3.1-5.9c-2.9-3.2-3.4-5.3-1-8.9
	c6.2-9.2,12.1-18.5,18.8-27.3c14.5-19.3,26.3-40.1,36.1-62.1c0.5-1.1,1.8-2.9,2.2-2.8c1.8,0.6,4.2,1.5,4.8,2.9
	c6.1,14,16.1,25.1,25.7,36.6c5,6,11.8,9.6,18.5,13.3c2,1.1,3.1,2.5,3.6,4.7c1,4.3,0.9,8.4-0.5,12.6c-2.8,8.4-4.3,17-3.6,25.8
	c0.1,0.8,0.3,1.7,0,2.3c-2.2,4.1,0.7,6.2,3.2,8.5c0.6,0.5,1.1,1,1.2,1.1c3-1.6,5.6-3.3,8.3-4.6c5.5-2.6,8.8-7.1,11.4-12.3
	c5.4-10.9,12.7-20.5,23.3-26.4c13.8-7.7,27.8-15.1,44.2-15.9c3.2-0.2,6.2-2.1,9.4-3c2.8-0.8,5.7-1.7,8.6-1.9
	c15.3-0.6,30.1-4.6,45.2-6.6c15.4-2,28.4-9.4,41.8-16.2c12-6.1,23.9-12.2,36.3-17.4c5.8-2.5,12.5-3.2,18.8-4.5
	c4.7-1,9.4-2.3,14.1-2.2c10.8,0.1,21.6,0.7,32.1,3.9c5.5,1.7,9.4,5.7,13.7,9.2c5.6,4.6,11.9,7.1,19.1,6.9c3.7-0.1,7.4-0.1,11.2-0.1
	c4.6,0,8.5,1.8,11.6,5.2c7.6,8.3,10.6,17.8,7.9,29c-1,4-1.6,8.2-2,12.4c-0.6,6.8,2.2,11.2,8.3,14.2c5.5,2.6,11,5.2,16.5,7.8
	c7.3,3.4,9,6.3,8.4,14.4c-0.1,1.3-0.2,2.7-0.4,4c-0.6,5,1.1,8.9,5.2,11.9c1,0.7,2.2,1.7,2.6,2.9c0.7,2.4,2.2,3.5,4.4,4.2
	c3.6,1.2,7.1,2.7,10.7,3.9c9.4,3.2,13.8,10.5,10.7,19.9c-4,12-2.4,23.2,2.5,34.4c3.7,8.4,7.1,16.8,10.8,25.2
	c4.3,9.6,6.9,19.5,7.6,30c0.7,11-3.9,18.6-13.6,24c-6,3.3-12.3,3.4-18.6,4.6c-9.6,1.7-19.2,3.8-28.8,5.8c-1.2,0.2-2.3,0.8-3.3,1.8
	c2.6,0,5.3,0,7.9,0c0.1,0.2,0.2,0.4,0.3,0.6c-1.1,0.7-2.2,1.6-3.4,2.1c-2,0.9-4.1,1.5-6.2,2.2c-13.8,5.1-22.1,15.7-28.4,28.3
	c-1.4,2.9-1.5,6.5-2.5,9.6c-0.8,2.4-1.8,4.9-3.5,6.7c-3.8,4.2-5.6,8.9-5.6,14.5c0,1.3-1.1,3-2.1,3.9c-1.9,1.7-4.2,3-6.3,4.5
	c-5.3,3.9-11.3,5.9-17.8,6.2c-1.9,0.1-3.8,0.4-5.7,0.5c-3.5,0.2-6.6-0.2-10.1-1.5c-6.2-2.3-12.8-3.5-19.4-4.4
	c-21.8-2.9-43.4-1.9-64.6,3.8c-7,1.9-13.9,4.7-20.6,7.7c-4.9,2.2-9.1,5.5-10.4,11.4c-0.3,1.5-1.2,3-2,4.4c-3.1,6.1-2.6,12,0.3,18.1
	c4.5,9.3,8.8,18.6,13,28c3.6,8,1.1,11.1-7.5,10.1c-7.6-0.9-14.7-3.2-21.2-7.2c-4.7-2.9-9.4-5.8-14.1-8.7c-3.2-2-6.4-5-5.7-8.5
	c0.7-3.4,5-4.2,8.5-4.8c0.8-0.2,1.7-0.4,2.5-0.5c2.7-0.4,4.3-1.5,5.5-4.3c1.2-3,3.7-5.4,6-7.9c1.7-1.9,2.8-3.9,3-6.5
	c0.4-4.6,2.2-8.7,5-12.3c6.4-8.3,14.4-14.5,24.4-18.2c23-8.6,46.8-9.9,71-8.3c7.8,0.5,15.4,2.2,23.1,3.4c10,1.7,19-1.3,27.8-5.4
	c2.4-1.1,4.7-2.6,7.2-3.5c3.7-1.3,5.8-4,7.3-7.5c3-6.9,4.1-14.2,5.1-21.6c0.7-4.6,2.1-9.1,3.6-13.5c2.7-7.7,7.9-13.3,15-17.3
	c10.9-6.1,22.5-10,34.9-11.9c7.8-1.2,15.5-3,23.2-4.5c5.2-1,9.1-4.1,11.6-8.5c3.6-6.3,7.1-12.6,9.9-19.2c1.1-2.5,0.8-5.9,0.1-8.6
	c-3.2-12.7-9.3-24.3-15.3-35.9c-1.3-2.5-2.7-5.1-4.2-7.5c-1.7-2.7-2.7-5.4-2.3-8.6c0.1-0.6,0.2-1.6-0.2-1.9c-3.7-3-1.7-6.8-1.5-10.3
	c0-0.6,0.1-1.2,0.4-1.7c3.4-7.9,1.6-15-3-21.8c-1-1.4-1-3.6-1.5-6c-4.8-1.8-10.1-3.8-15.5-5.7c-11.6-3.9-13.7-7.3-10.6-19.1
	c1-3.6,0.9-6.6-1.6-9.5c-1.1-1.3-1.8-2.9-2.6-4.4c-1.5-2.8-3.7-4.7-6.7-5.9c-4.3-1.7-8.6-3.6-12.8-5.5c-7.3-3.3-10.3-7.8-9.5-15.8
	c0.6-6,2-12,3-18c0.2-1.2,0.4-2.6-0.1-3.5c-3.4-5.9-7-11.8-10.7-17.6c-2.2-3.5-5.5-5-9.7-4.8c-4.8,0.2-9.6,0.4-14.3-0.1
	c-2.7-0.2-5.5-1.3-7.9-2.7c-3.4-2-6.7-4.4-9.6-7.1c-5.4-5.1-11.9-6.8-18.9-7.9c-22.7-3.9-44.2,0-64.6,10.1
	c-11.3,5.6-22.2,11.9-33.6,17.1c-11.3,5.2-23.1,9.4-34.6,14c-1.1,0.4-2.2,0.8-3.1,1.3c-2.3,1.4-2.7,3.8-1.4,6.1
	c1.3,2.4,2.3,5,3.5,7.4c0.5,0.9,1.2,1.9,2,2.5c6,4.2,11.3,9.2,14.9,15.6c1.7,3,2.7,6.7,3.1,10.2c0.8,8.4,1,16.9,1.7,25.4
	c1,12.6,9.1,19.1,20.1,22.9c3.7,1.3,7.4,2.6,11.1,3.6c2.6,0.7,5.3,0.9,8,1.4c1.4,0.3,2.9,0.5,4,1.3c3.4,2.5,6.7,5,9.8,7.9
	c4.8,4.4,5.7,9.8,2.5,15.5c-1.8,3.3-4.5,6.1-6.5,9.4c-3.9,6.2-7.7,12.5-11.2,18.8c-0.7,1.2-0.8,3.2-0.3,4.6c1.4,3.9,2.9,7.8,5,11.4
	c0.9,1.6,3.1,3,4.9,3.3c6.6,1.4,13.3,2.1,20,3.4c7.7,1.5,8.8,4.6,4.4,11.1c-2.8,4.1-5.7,8.1-8.5,12.2c-1.6,2.3-2.2,4.8-1.4,7.6
	c0.4,1.4,0.8,2.8,0.7,4.2c-0.2,4,2.1,6.1,5.5,7.3c2.1,0.7,4.2,1.2,6.3,1.9c2.3,0.8,4.6,1.7,6.8,3.3c-1.1,0-2.3,0.1-3.4,0
	c-5.3-0.3-10.3-1.7-14.8-4.6c-6.6-4.2-8.7-12.3-4.9-19.2c1.3-2.4,2.8-4.8,4.4-7c2.3-3.1,2.4-6.3,0.6-9.6c-3.2-5.9-3.1-5.9-9.8-6.5
	c-5-0.4-9.8-1.1-14.2-3.7c-6.2-3.7-8.4-8.1-6.4-15.1c2.4-8.9,6.8-16.8,12.9-23.7c4.9-5.6,6.2-11.1,2.6-17.7c-0.8-1.4-1.2-3-1.9-4.4
	c-1.8-3.7-4.6-6.1-8.6-7.3c-7.3-2.3-14.7-4.7-21.8-7.5c-3.3-1.3-6.4-3.4-9.3-5.5c-6.4-4.6-9.7-11-10-19c-0.3-8.2-0.8-16.4-1.3-24.5
	c-0.3-4.4-1.6-8.4-4.3-11.9c-1.5-2-3.1-3.4-5.9-3.3c-1,0-2.2-0.9-3.1-1.7c-1.2-1.1-2.2-2.4-3.2-3.6c-8-9.5-18.8-12-30.5-11.6
	c-5.9,0.2-11.9-0.3-17.7,0.7c-14.5,2.4-29.5,1.2-43.4,7.2c-9.6,4.1-17.7,9.7-23.2,18.9c-3.6,6-8.6,11.1-13,16.6
	c-1.1,1.3-2,2.8-3.1,4.1c-2.2,2.4-4.6,4.7-7,7c-0.9,0.9-2,1.8-3.4,3c2.5,1.9,4.6,3.8,7,5.2c7.7,4.6,15.5,8.9,23.2,13.4
	c7.1,4.1,15,5.4,22.9,6.7c5.6,0.9,8.6,4,10.2,9.3c2,6.7,4,13.5,6.9,19.9c2.3,5.2,5.8,9.8,8.9,14.6c1.6,2.6,1.7,5.1,0.9,7.9
	c-3.3,11.4-6.6,22.8-9.8,34.3c-2.5,9.2-5.2,18.4-4.5,28.1c0.4,6.4,1.7,12.8,2.7,19.2c0.1,0.7,1.2,1.4,1.9,1.9
	c13.6,9.1,27.3,18.2,40.8,27.3c0.9,0.6,1.6,1.7,2.3,2.6C677.2,441.6,677,441.9,676.8,442.2z"/>
<path fill-rule="evenodd" clip-rule="evenodd" d="M518.2,457.5c0.1,1.7,0.9,2.9-1.4,4.4c-3.2,2.1-5.5,5.4-8.6,7.8
	c-2.9,2.2-6.1,4.1-9.4,5.6c-1.8,0.8-2.7,1.6-2.6,3.4c0.1,3.7,0.2,7.4,0.5,11.1c0.1,2,1.6,2.6,3.3,2.1c8.3-2.6,15.6-6.9,21.6-13.4
	c1-1,1.6-2.3,3.5-0.2c-2.6,2.7-5.1,5.7-8,8.3c-5.6,5-12.3,7.9-19.4,9.8c-1,0.3-2.3,1.3-2.6,2.3c-1.2,3.3-2.2,6.7-3,10.1
	c-0.8,3.4,0.6,6,4.2,6.4c3.7,0.4,7.5,0,11.3-0.1c1.1,0,2.3-0.4,3.4-0.5c0.1,0.3,0.2,0.5,0.3,0.8c-0.8,0.7-1.5,1.7-2.4,2.1
	c-4.8,2.2-9.8,3.2-15,1.3c-2.4-0.9-3.7-0.4-4.5,2.1c-3.1,9.4-3.6,18.8-1,28.4c1,3.9,1.9,7.8,3.3,11.5c4.1,11,12.6,16.4,23.9,18.2
	c8.1,1.2,15.9-1,23.8-2c0.4-0.1,0.7-0.1,1.1-0.2c9.3-1.2,10.4-0.4,13,8.6c0.6,2.1,1.7,4,2.9,5.8c2,3.2,2.2,6.4,0.7,9.8
	c-0.9,2.1-1.9,4.2-2.7,6.3c-0.8,2-1.4,4.1-2.1,6.2c-3-1.9-3.5-4.3-1.9-7.7c1.2-2.6,2.6-5.2,3.1-7.9c0.3-1.5-0.4-3.9-1.6-4.9
	c-1.7-1.5-3.1,0.5-4.2,1.7c-3.6,4-7.6,7.8-10.4,12.3c-3.5,5.6-6,11.9-5.3,18.9c0.2,1.9,0,3.9,0,5.8c-0.3,0-0.6,0.1-0.9,0.1
	c-0.4-1.2-0.9-2.4-1-3.6c-0.6-5-1.1-10-1.7-15c-0.1-1-0.2-2.3-0.8-3c-2.9-3.4-5.7-7-9-10c-3.5-3.2-6.9-3.2-11-0.6
	c-5.5,3.5-8.9,8.5-11,14.5c-1.8,5.3-3.5,10.7-5.4,16.5c-0.7-1.1-1.5-1.8-1.6-2.6c-2.8-11.9-5.4-23.9-8.4-35.8
	c-1.3-4.9-3.3-9.6-5.5-14.2c-3.4-7.1-7.3-13.9-11.1-20.8c-2-3.7-4.9-6.2-8.7-7.9c-6.6-2.9-13.1-6.2-19.7-9
	c-5.1-2.2-9.3-5.4-13.1-9.2c-0.7-0.7-1.3-1.5-2.1-1.9c-2.9-1.6-3.2-4.1-2.6-6.9c0.7-3,2.5-5.4,5.6-5.8c3.1-0.4,6.5-0.4,9.6,0.4
	c14.2,3.5,28.4,4.1,42.8,1.3c6.3-1.2,10.8-4.2,12.3-10.7c1.7-7.6,5-14.8,4.7-22.8c-0.2-6.6-2.2-12.7-4.8-18.7
	c-0.4-0.9-1.1-1.9-1.9-2.5c-4.3-3.3-8.7-6.4-13.1-9.6c-0.7-0.5-1.7-0.6-2.2-1.2c-0.6-0.7-0.8-1.7-1.2-2.5c0.9,0,2-0.4,2.7-0.1
	c3,1.3,5.9,2.8,8.7,4.4c2.5,1.5,4.3,0.7,5.8-1.3c1.7-2.2,3.2-4.5,4.7-6.8c0.3-0.4,0.5-0.8,0.7-1.3c0.4,0.1,0.7,0.2,1.1,0.3
	c0,1.1,0.4,2.4-0.1,3.3c-1.4,2.8-3.2,5.4-4.5,8.2c-0.5,1-0.5,2.5-0.1,3.5c0.8,2,2,3.9,3.1,5.8c3,5.3,7.6,6.3,12.5,2.5
	C509.2,465.4,513.5,461.5,518.2,457.5z M531.3,608.8c0.8-0.8,1.5-1.3,2-1.9c4.4-5.3,8.9-10.5,13.2-15.9c0.9-1.1,1.5-3.7,0.9-4.5
	c-1-1.3-3.2-2.2-5-2.5c-2.5-0.3-5.1,0.4-7.7,0.1c-7.7-0.7-15.3-1.9-22.9-2.6c-8.5-0.8-14.4-5.4-19.2-12c-3.4-4.5-5.7-9.5-6.6-15
	c-1.7-9.8-3-19.7-4.5-29.6c-0.6-3.8-1.6-4.3-5.4-3.5c-4.6,0.9-9.2,1.7-13.8,2.1c-9.4,0.7-18.6-0.5-27.8-2.4
	c-1.6-0.3-3.6,0.1-5.2,0.7c-1.6,0.6-3.2,1.6-4.6,2.8c-0.7,0.6-1.6,2.5-1.3,2.8c3,2.9,5.8,6.2,9.4,8.1c6.9,3.6,14.2,6.5,21.4,9.4
	c8.6,3.5,14.1,9.8,17.9,17.9c3.2,6.8,6.5,13.5,9.5,20.4c1.7,3.8,3.8,7.2,4.2,11.8c0.8,9.5,3.1,19,4.8,29.1c0.8-2,1.6-3.7,2.1-5.4
	c2-6.8,3.7-13.8,5.8-20.5c1.6-5,5.5-7.2,10.7-7.6c10.1-0.6,18.5,3.5,21,14.6C530.4,606.3,530.8,607.3,531.3,608.8z"/>
<path fill-rule="evenodd" clip-rule="evenodd" d="M713.9,76.9c3.9,3.7,6.3,9.1,8,15c2.1,7.5-1.1,15.2-8.5,17.6
	c-5.4,1.8-9.9,3.8-11.4,10c-0.4,1.4-2.1,2.7-3.4,3.7c-5.1,3.9-6.5,8-5.4,14.2c0.5,2.8,0.5,5.9-0.4,8.5c-0.5,1.3-3.6,1.9-5.7,2.2
	c-0.8,0.1-2.6-1.1-2.8-1.9c-0.9-5.1-1.7-10.3-2.1-15.5c-0.2-2.3-0.8-3.5-2.8-4.7c-4.9-3-9.6-6.3-14.4-9.5c-0.3-0.2-0.6-0.4-1-0.6
	c-0.1,1.2-0.1,2.3-0.3,3.3c-1.6,10.3-8.7,15.7-19.2,14.7c-8-0.7-12.7,5.6-10,13.4c0.6,1.8,1.3,3.6,1.9,5.4c1.2,3.5,0.7,5-1.5,5.8
	c-2.8,0.9-6.7-0.6-7.4-3.2c-0.8-2.4-1.4-5-1.9-7.5c-0.6-3.4-2.5-5.3-6-5.8c-5.6-0.9-10-3.5-12.6-8.7c-1.1-2.3-3-3.3-5.5-3.5
	c-2.4-0.2-4.8-0.3-7.1-0.9c-4.7-1.1-7.7-4-8.6-8.9c-1.2-6.3-1-12.3,3-17.8c1.9-2.6,2.2-5.4,1.9-8.4c-0.8-8.9,2.8-16.1,8.7-22.4
	c4.4-4.7,10.1-4.4,15.7-4c2,0.1,3.9,0.8,5.8,1.4c2.7,0.9,4.9,0.4,7.1-1.4c2-1.7,4.2-3.3,6.5-4.6c3.7-2.1,7.7-2.7,11.9-1.7
	c2.4,0.6,4.1-0.2,5.3-2.2c1.6-2.5,3.3-4.9,4.6-7.6c4.4-8.8,22.6-14.6,32.6-7c1.7,1.3,4.2,2,6.3,2.1c10.2,0.7,20.2,10,20.7,20.2
	C716,69.8,714.7,73.1,713.9,76.9z M668.4,92.5c-0.1-6.4-2.2-11.5-6.3-15.9c-2.3-2.5-5.1-3.6-8.5-2.3c-4.1,1.5-4.3,1.2-4.2-3.1
	c0.1-4.2-1.3-5.9-5.5-6.4c-5.1-0.6-9.6,0.8-13.5,4.2c-1.9,1.6-3.1,3.5-3,6.2c0,0.9-0.9,2.4-1.6,2.5c-0.9,0.2-2.3-0.4-3.1-1.1
	c-1.4-1.1-2.3-2.8-3.7-3.9c-6-4.2-15.7-2.1-20,4.8c-2.1,3.4-3.5,7.4-4.7,11.2c-1.6,5,0.6,6.8,5,5.2c1.1-0.4,2.4-0.6,3.6-0.7
	c1-0.1,2.2,0,3,0.4c0.7,0.4,1.1,1.3,1.6,2.1c-0.7,0.4-1.3,1-2,1.2c-1.5,0.3-3.1,0.3-4.5,0.7c-12.1,3.4-14,15.2-9.2,24.9
	c0.5,1.1,1.9,2.1,3,2.4c3.2,0.7,6.5,1.4,9.8,1.4c4.8-0.1,4.8-0.3,6.2,4.5c1.2,4.3,4.4,7,8.8,6.5c3.3-0.4,6.7-1.3,9.8-2.7
	c3.9-1.8,7.4-4.3,11.1-6.5c1.7-1.1,3-1.3,4.2,0.8c0.5,0.9,2,1.5,3,1.6c4.7,0.2,9.4-3.4,10.6-7.9c1.3-4.5,1.1-8.8-1.7-12.8
	c-0.5-0.8-1.1-1.6-1.3-2.5c-0.2-0.9-0.5-2.3,0-2.9c0.5-0.5,2-0.4,2.8-0.1c2.4,1.1,4.2,0.3,5.8-1.5C666.9,99.7,668.6,96.3,668.4,92.5
	z M703.7,74.4c2.6,0,4.2-0.1,5.8,0c1.8,0.2,2.5-0.5,2.8-2.2c1.4-8.1-5.2-18.4-13.2-20.3c-5.4-1.2-10.6-0.4-15.6,1.9
	c-0.8,0.3-1.8,0-2.7,0c0.1-1,0.1-2,0.4-2.8c0.5-1.1,1.4-2,2.1-3.1c1-1.5,0.6-2.8-1.1-3.3c-1.2-0.4-2.4-0.6-3.6-0.6
	c-6.8-0.1-12.2,3-17.4,7c-3.1,2.4-4.9,5.5-5.7,9.3c-0.6,2.9,1.4,7.7,4,9c8.8,4.4,12.3,12.1,13.5,21.2c0.6,5-1,9.2-4.6,12.7
	c-1.4,1.4-2.8,2.8-4.2,4.3c-1.5,1.7-1.3,4.1,0.5,5.2c7.3,4.4,14.5,8.9,23.4,9.2c5.5,0.2,9-1.7,10.7-6.9c0.8-2.4,1.3-4.8,2-7.1
	c0.9-3.3,2.1-3.6,4.8-1.6c0.8,0.6,1.8,1.2,2.7,1.3c5.6,0.5,11.9-7.9,10-13.2c-2.5-6.7-5.3-13.1-12.3-16.4
	C705.1,77.4,704.7,76,703.7,74.4z"/>
<path fill-rule="evenodd" clip-rule="evenodd" d="M945.2,297.3c0,1.2,0.1,2.3,0,3.3c-0.2,2.2,0.6,3.7,2.5,5c4,2.9,3.8,5.6-0.1,8.8
	c-4,3.2-8,6.5-11.4,10.3c-9.8,10.9-19.3,22.1-28.8,33.3c-1.5,1.8-2.9,3.8-4.2,5.8c-3.4,4.9-7.2,6.5-13,5c-2.1-0.5-4.1-1.6-6.2-2.2
	c-4.9-1.4-9.9-2.6-14.8-3.8c-0.8-0.2-1.7-0.2-2.5-0.5c-12.1-4.7-24.3-9.5-36.4-14.2c-2.7-1.1-5.5-2.2-8.2-3.3c-2.7-1.1-3.9-3-3.9-6
	c0.1-13.9,0.1-27.8,0-41.7c0-2.5,1-3.9,3.4-4.9c9.3-3.8,18.1-8.4,25.8-15.1c1.8-1.5,3.9-2.8,6-3.7c6.2-2.8,11.6-6.5,16.5-11.2
	c3.1-3,4.6-3.2,8.4-1.1c8.8,4.9,18.6,6,28.3,7.2c8.1,1,16.3,1.6,24.5,2.3c2.3,0.2,3.9,1.3,4.6,3.6c1.3,4.5,3.6,8.4,6.9,11.7
	C945.6,289.2,945.5,293.3,945.2,297.3z"/>
<path fill-rule="evenodd" clip-rule="evenodd" d="M681.9,560c-0.3,3.2-0.6,6.8-1,10.4c-0.4,3.2-2.2,5.6-4.9,7.3
	c-4.5,2.9-9.4,4.1-14.6,4.1c-2.2,0-3.3,0.9-3.4,3.2c0,1.3-0.4,2.6-0.5,4c-0.4,7.3-4.4,10.9-11.7,10.4c-5.4-0.4-5.6-0.4-5.5,5.2
	c0.1,2.6,1,5.2,1.4,7.8c0.2,1.3,0.5,3.1-0.2,3.9c-0.7,0.8-2.6,1-3.8,0.8c-5.7-1.1-8.7-4.7-8.8-10.6c0-1.6,0.1-3.2-0.1-4.9
	c-0.3-3.7-1.7-4.6-5.3-3.4c-2.2,0.7-4.3,1.6-6.5,2.1c-5.6,1.2-9.7-1.2-11.5-6.7c-0.6-1.7-1.2-3.5-1.1-5.3c0-2.7-1.4-3.7-3.6-4.2
	c-2.7-0.6-5.3-1.2-8-1.8c-11-2.3-15.3-9.6-12.3-21.1c2-7.7,7.1-13.1,13.3-17.7c0.7-0.5,1.4-1,2.1-1.4c3.6-1.8,5.6-4.5,6.8-8.7
	c2.4-8.4,8-14.6,16.1-18.3c4.6-2.1,9.3-2.3,13.6,0.6c5.4,3.6,10.3,4.6,16.8,2c9.2-3.7,17.9,2.9,18.5,12.9c0.1,0.9,0.1,1.7,0,2.6
	c-0.2,4.2,1.3,6.9,5.6,8.3c5,1.7,7.5,5.7,8,10.9C681.6,554.8,681.7,557.1,681.9,560z"/>
<path fill-rule="evenodd" clip-rule="evenodd" d="M770.3,248.1c0.9-4,1.5-8,2.7-11.9c0.8-2.5,0.6-4.4-1.2-6.3c-1-1-1.9-2.2-2.9-3.1
	c-5.1-4.5-5.1-10-3-15.7c2.6-7,7.7-11.7,14.2-15.1c3.9-2,7.6-4.4,12.6-2.9c3,0.9,4.8-1.8,5.8-4.4c1.5-3.8,4.2-6.3,7.7-8.1
	c4.2-2.1,8.4-2.2,12.6-0.1c5.4,2.6,9.7,6.2,12.1,12c1,2.4,2,4.8,5.3,5.2c9.3,1.2,11,5.7,10.5,16.6c-0.1,2.5-0.2,5.2,0.4,7.5
	c2,7.3,2.4,14.4-0.1,21.6c-1.4,4.1-3.9,6.9-8.1,8.2c-0.4,0.1-0.7,0.3-1.1,0.3c-5.6,0.9-8.7,4-10.1,9.7c-1.2,5-4.9,7.7-10.3,7.9
	c-3.9,0.1-5.1,1.6-5.2,5.6c-0.1,3.9-0.1,7.8-0.2,11.7c-0.1,3.2-1.4,5-4.5,5.7c-1.7,0.4-3.6,0.6-5.4,0.7c-2.2,0.1-3.5-1.6-3.2-4.1
	c0.4-3.8,1.2-7.5,1.3-11.3c0.1-3.6,0-7.4-0.7-11c-0.5-2.9-2.8-3.4-5.3-1.8c-3.9,2.5-11.3,2.1-15.4-0.9
	C773.5,260.2,770.7,254.9,770.3,248.1z"/>
<path fill-rule="evenodd" clip-rule="evenodd" d="M963.4,340.8c-0.2-1.1-0.4-2.1-0.7-3.4c-2-0.5-4.3-0.9-6.4-1.7
	c-1-0.4-1.7-1.7-2.5-2.5c1-0.5,2.1-1.5,3.1-1.4c2.1,0.1,3.7,0.2,3.2-2.7c-0.3-1.8,0.9-2.1,2.3-1.9c2.3,0.4,4.1,3,3.5,5.4
	C965.4,335.3,964.4,337.8,963.4,340.8z"/>
<path fill-rule="evenodd" clip-rule="evenodd" d="M486.9,400.3c-3.4,0.9-6.2,1.8-9.1,2.3c-1.1,0.2-2.3-0.7-3.4-1
	c0.6-0.9,1-2.3,1.8-2.6c2.4-1,5-1.9,7.5-2.1C486.1,396.6,487.6,398,486.9,400.3z"/>
<path fill-rule="evenodd" clip-rule="evenodd" d="M464.7,432.8c-1.2-3.2-2.1-5.5-2.8-7.9c-0.2-0.9,0.1-1.9,0.3-2.8
	c1,0.3,2.7,0.3,2.9,0.8c1.1,2.5,1.9,5.1,2.3,7.8C467.5,431.3,465.5,432.3,464.7,432.8z"/>
<path fill-rule="evenodd" clip-rule="evenodd" d="M241.5,607.2c-2.2-1.5-4.6-3-6.8-4.7c-0.3-0.2-0.1-1.5,0.3-2
	c0.2-0.4,1.2-0.6,1.7-0.4c2.2,0.9,4.3,1.9,6.4,3.2c0.7,0.4,0.9,1.7,1.4,2.5C243.6,606.1,242.8,606.5,241.5,607.2z"/>
<path fill-rule="evenodd" clip-rule="evenodd" d="M215,606c2.1,1,4.1,1.9,5.9,3c0.7,0.5,0.9,1.8,1.4,2.7c-1,0.3-2.1,1-3,0.8
	c-1.4-0.3-2.6-1.1-3.9-1.7C212.9,609.4,212.8,608.6,215,606z"/>
<path fill-rule="evenodd" clip-rule="evenodd" d="M277.7,611c3.3-2.8,6-2.7,7.9,0.2c0.5,0.8,0.8,2.6,0.3,3c-0.7,0.6-2.4,1-3.2,0.5
	C280.9,613.8,279.4,612.3,277.7,611z"/>
<path fill-rule="evenodd" clip-rule="evenodd" d="M267.9,624.9c-1.2,2.3-7.8,3.9-9.3,2.3c-0.5-0.5-0.5-2-0.1-2.6
	C259.3,623.6,266.4,623.9,267.9,624.9z"/>
<path fill-rule="evenodd" clip-rule="evenodd" d="M937.9,364.1c-1.6-1.7-3.3-2.6-3.7-3.9c-0.4-1.6,1.3-2.4,2.8-2.2
	c1.9,0.2,4.4,0.1,4.6,2.6C941.7,361.5,939.6,362.5,937.9,364.1z"/>
<path fill-rule="evenodd" clip-rule="evenodd" d="M295.3,573.7c5.7-1.2,6.5-0.8,7.8,4.8C299.5,579.9,298.2,579.1,295.3,573.7z"/>
<path fill-rule="evenodd" clip-rule="evenodd" d="M602.8,421.3c-1-0.8-1.9-1.4-2.9-2.2c1.3-1.7,2.4-3.5,3.9-4.9c0.6-0.6,2-0.3,3-0.4
	c0,1,0.4,2.2-0.1,2.9C605.7,418.3,604.3,419.6,602.8,421.3z"/>
<path fill-rule="evenodd" clip-rule="evenodd" d="M556,399c3.5-1.3,4.6-0.7,4.7,2.9c0,1.4,0,2.8,0,4.2
	C556.7,405.4,556.4,405,556,399z"/>
<path fill-rule="evenodd" clip-rule="evenodd" d="M943.7,327.5c1.5-0.1,3.8-0.8,4.2-0.2c0.9,1.5,1,3.5,1.2,5.3c0,0.1-2,0.8-2.3,0.5
	c-1.4-1.3-2.5-2.9-3.6-4.4C943.4,328.3,943.6,327.9,943.7,327.5z"/>
<path fill-rule="evenodd" clip-rule="evenodd" d="M289.3,589.2c1.8,1.9,3.1,3.3,4.4,4.7c-0.9,0.7-2.4,2.3-2.8,2.1
	c-1.6-1.1-2.9-2.5-4.1-4C286.7,591.8,288,590.5,289.3,589.2z"/>
<path fill-rule="evenodd" clip-rule="evenodd" d="M809.1,320.2c-3.5-0.9-3.9-1.5-2.3-4.2c0.9-1.5,1.2-4.5,3.6-3.5
	c2.6,1.1-0.1,3.2-0.3,4.9C810.1,318.3,809.5,319.2,809.1,320.2z"/>
<path fill-rule="evenodd" clip-rule="evenodd" d="M245.4,571c-1.8,1.2-2.9,2.4-3.8,2.3c-1-0.1-2-1.3-3-2c0.8-1,1.6-2.9,2.4-2.9
	C242.2,568.4,243.4,569.7,245.4,571z"/>
<path fill-rule="evenodd" clip-rule="evenodd" d="M816.3,300.6c-2.1,1.1-3.3,2.1-4.7,2.4c-0.5,0.1-2-1.6-1.9-1.7
	c0.9-1.2,1.8-2.5,3.1-3.2C813.2,297.8,814.6,299.2,816.3,300.6z"/>
<path fill-rule="evenodd" clip-rule="evenodd" d="M943.9,355.7c-2.5-1.6-2.4-4.1-2.5-6.4c0-0.4,0.6-1.1,1-1.2c0.5,0,1.5,0.3,1.6,0.7
	C944.7,351.1,946.2,353.3,943.9,355.7z"/>
<path fill-rule="evenodd" clip-rule="evenodd" d="M519.5,427.4c-1.8-1.6-4.1-2.8-2.5-5.5c0.3-0.5,2.4-0.5,3.1,0.1
	C522.2,423.7,521,425.5,519.5,427.4z"/>
<path fill-rule="evenodd" clip-rule="evenodd" d="M267.1,568.5c-1.6,1.5-2.6,3.9-4.9,2.5c-0.7-0.4-1-2.9-0.4-3.6
	C263.7,565.3,265.1,567.8,267.1,568.5z"/>
<path fill-rule="evenodd" clip-rule="evenodd" d="M579.1,404.4c-0.8,0.4-1.9,1.4-2.3,1.1c-1.3-0.7-2.3-1.8-3.4-2.8
	c0.9-0.6,1.9-1.9,2.6-1.8c1.2,0.3,2.2,1.5,3.3,2.3C579.2,403.7,579.1,404,579.1,404.4z"/>
<path fill-rule="evenodd" clip-rule="evenodd" d="M558.2,464c-1.5,1.6-2.3,3.9-4.9,2.4c-1.5-0.9-1.5-2.2-0.4-3.4
	C554.9,460.7,556.3,462.7,558.2,464z"/>
<path fill-rule="evenodd" clip-rule="evenodd" d="M958.2,320.6c-1.2,0.7-2.4,1.8-3.7,1.8c-0.9,0-1.8-1.4-2.7-2.3
	c1-0.6,2-1.5,3.1-1.7c1-0.2,2,0.5,3.1,0.8C958.1,319.8,958.1,320.2,958.2,320.6z"/>
<path fill-rule="evenodd" clip-rule="evenodd" d="M285,583.4c-1.2-1.5-2.5-2.3-2.6-3.3c-0.1-0.7,1.5-2.3,2.1-2.1
	c1,0.2,2.3,1.3,2.7,2.3C287.5,580.8,286.1,581.9,285,583.4z"/>
<path fill-rule="evenodd" clip-rule="evenodd" d="M270,579.6c1.2,1.4,2.6,2.4,2.5,2.9c-0.4,1-1.6,2.4-2.5,2.4
	c-0.8,0.1-2.3-1.3-2.5-2.3C267.3,582,268.8,580.9,270,579.6z"/>
<path fill-rule="evenodd" clip-rule="evenodd" d="M184.1,621.1c-1.5,1.1-2.7,2.4-3,2.2c-1-0.7-2-1.8-2.5-2.9
	c-0.2-0.4,1.5-2.2,1.9-2.1C181.7,618.8,182.5,619.8,184.1,621.1z"/>
<path fill-rule="evenodd" clip-rule="evenodd" d="M281.3,574.5c-0.9,0.4-2,1.4-2.7,1.2c-1-0.3-2-1.4-2.6-2.4
	c-0.2-0.3,1.4-2.2,1.7-2.1c1.3,0.5,2.4,1.4,3.6,2.2C281.4,573.8,281.3,574.2,281.3,574.5z"/>
<path fill-rule="evenodd" clip-rule="evenodd" d="M483.7,389.5c-0.8,0.5-1.9,1.5-2.3,1.3c-1.1-0.7-2-1.8-2.9-2.8
	c0.7-0.6,1.5-1.8,1.9-1.7c1.2,0.4,2.3,1.4,3.4,2.1C483.8,388.8,483.7,389.1,483.7,389.5z"/>
<path fill-rule="evenodd" clip-rule="evenodd" d="M402.1,499.3c-1.1,1.4-1.6,2.5-2.5,3.1c-0.7,0.5-1.8,0.6-2.7,0.6
	c-0.3,0-0.9-1.1-0.8-1.5c0.4-0.9,1-2.2,1.8-2.5C399,498.8,400.3,499.2,402.1,499.3z"/>
<path fill-rule="evenodd" clip-rule="evenodd" d="M202.6,602c-1.5-1.7-2.5-2.7-3.3-4c-0.1-0.2,1.7-1.9,1.8-1.8c1.1,0.8,2.2,1.8,3,3
	C204.3,599.5,203.4,600.5,202.6,602z"/>
<path fill-rule="evenodd" clip-rule="evenodd" d="M213.1,623.4c1.2,1.7,3.9,2.5,2.1,5c-0.3,0.4-2.5,0.2-3.2-0.4
	C209.9,626.2,211.4,624.8,213.1,623.4z"/>
<path fill-rule="evenodd" clip-rule="evenodd" d="M667.2,462.9c0.6,1,1.7,2.1,1.5,3c-0.1,1-1.5,1.8-2.3,2.6c-0.6-1-1.5-2-1.6-3.1
	c-0.1-0.8,0.9-1.7,1.3-2.5C666.5,462.9,666.8,462.9,667.2,462.9z"/>
<path fill-rule="evenodd" clip-rule="evenodd" d="M516.1,395.5c-1.4,0.9-2.5,2.1-3,1.8c-1-0.4-1.7-1.7-2.5-2.6c0.9-0.7,1.8-2,2.6-2
	C514,392.9,514.8,394.3,516.1,395.5z"/>
<path fill-rule="evenodd" clip-rule="evenodd" d="M316.1,608.9c-1.2-1.8-2.2-2.7-2.4-3.9c-0.1-0.5,1.3-1.4,2-2.1
	c0.8,1,1.9,1.8,2.3,2.9C318.2,606.3,317.1,607.3,316.1,608.9z"/>
<path fill-rule="evenodd" clip-rule="evenodd" d="M264.3,596.6c-1.4,1.1-2.3,2.4-3,2.2c-0.9-0.2-2.4-1.6-2.3-2.3
	c0.2-1,1.4-2.1,2.4-2.5C261.9,593.9,262.9,595.4,264.3,596.6z"/>
<path fill-rule="evenodd" clip-rule="evenodd" d="M228.6,582.7c1.8-0.3,3.7-2,5.1,0.5c0.3,0.6-0.5,1.8-0.7,2.7
	c-1.6-0.7-3.2-1.4-4.9-2.1C228.3,583.5,228.4,583.1,228.6,582.7z"/>
<path fill-rule="evenodd" clip-rule="evenodd" d="M305.6,599.4c-1,0.6-2.1,1.5-3.2,1.6c-0.6,0-2-1.6-1.8-2.1c0.2-0.9,1.4-2,2.3-2.1
	c0.9-0.1,1.8,1,2.8,1.6C305.6,598.7,305.6,599.1,305.6,599.4z"/>
<path fill-rule="evenodd" clip-rule="evenodd" d="M560.6,385.9c1,1.6,2.1,2.6,2.2,3.6c0.1,0.7-1.6,2.2-2,2.1
	c-1.1-0.4-2.3-1.4-2.6-2.4C558,388.6,559.4,387.5,560.6,385.9z"/>
<path fill-rule="evenodd" clip-rule="evenodd" d="M537.1,388c1.2,1.7,3.7,2.6,2,4.9c-0.3,0.5-2.4,0.4-3.1-0.2
	C534.1,390.9,535.7,389.5,537.1,388z"/>
<path fill-rule="evenodd" clip-rule="evenodd" d="M290.4,562.7c1.2,1.6,2,2.5,2.7,3.5c-0.9,0.7-1.8,1.9-2.6,1.8
	c-0.8-0.1-1.9-1.4-2.1-2.3C288.3,565,289.4,564.1,290.4,562.7z"/>
<path fill-rule="evenodd" clip-rule="evenodd" d="M930.4,346.2c2.3-3.6,3.9-4.1,6.1-2.1C934.1,347.2,932.6,347.8,930.4,346.2z"/>
<path fill-rule="evenodd" clip-rule="evenodd" d="M308.6,619.8c2.2-0.4,4.3-1.4,5.3,1.2c0.2,0.5-0.6,2-1.2,2.2
	C310,624,309.6,621.7,308.6,619.8z"/>
<path fill-rule="evenodd" clip-rule="evenodd" d="M317.6,636.4c-1.6,1-2.7,2.2-3.2,2c-1-0.5-1.8-1.6-2.4-2.7
	c-0.1-0.2,1.4-1.9,1.8-1.7C314.9,634.3,315.8,635.2,317.6,636.4z"/>
<path fill-rule="evenodd" clip-rule="evenodd" d="M267.6,610.8c-1.7,0.6-3.2,2.9-5.2,0.8c-0.5-0.5,0.1-2,0.2-3.1
	c1.8,0.4,3.5,0.7,5.3,1.1C267.8,610,267.7,610.4,267.6,610.8z"/>
<path fill-rule="evenodd" clip-rule="evenodd" d="M616.3,431.1c2.2,1.1,4.1,1.9,3.6,4.4c-0.1,0.5-1.8,1.3-2.4,1.1
	C614.8,435.4,616.6,433.2,616.3,431.1z"/>
<path fill-rule="evenodd" clip-rule="evenodd" d="M229.9,643.9c-1.3-1.1-2.3-1.9-3.3-2.8c0.8-0.6,1.8-1.7,2.5-1.6
	c1.1,0.2,2.1,1.3,3.2,2C231.6,642.2,230.9,642.9,229.9,643.9z"/>
<path fill-rule="evenodd" clip-rule="evenodd" d="M649.3,460.9c-1-1.5-3.4-2.4-1.5-4.4c0.6-0.6,2.9-0.5,3.4,0.1
	C652.8,458.7,650.6,459.6,649.3,460.9z"/>
<path fill-rule="evenodd" clip-rule="evenodd" d="M496.5,407.2c-1.6,0.7-2.8,3.2-4.8,1c-0.5-0.5,0.1-2,0.2-3.1
	c1.5,0.3,3.1,0.6,4.6,0.9C496.5,406.4,496.5,406.8,496.5,407.2z"/>
<path fill-rule="evenodd" clip-rule="evenodd" d="M164.7,614.4c1.2,1.4,2.5,2.5,2.3,3c-0.4,1.1-1.5,1.8-2.4,2.7
	c-0.6-0.8-1.7-1.6-1.8-2.5C162.8,616.8,163.7,615.9,164.7,614.4z"/>
<path fill-rule="evenodd" clip-rule="evenodd" d="M249.2,631.1c-0.5-1.4-1-2.8-1.5-4.2c1.1-0.2,2.6-1.1,3.2-0.6
	c2,1.6,0.2,3.1-0.5,4.6C250,630.9,249.6,631,249.2,631.1z"/>
<path fill-rule="evenodd" clip-rule="evenodd" d="M234.9,626.8c1.1,1.7,2.1,2.6,2.1,3.4c0,0.7-1.3,1.9-2,1.9c-0.8,0-2.1-1.1-2.2-1.8
	C232.8,629.5,233.9,628.5,234.9,626.8z"/>
<path fill-rule="evenodd" clip-rule="evenodd" d="M591.6,432.1c-1.6-0.1-3.3-0.2-4.9-0.3c0.2-1,0.2-2.5,0.8-2.9
	c2.3-1.2,3.1,0.9,4.3,2.2C591.6,431.5,591.6,431.8,591.6,432.1z"/>
<path fill-rule="evenodd" clip-rule="evenodd" d="M146.3,616.7c-1.3,0.9-2.1,1.9-2.6,1.8c-1.1-0.4-2-1.3-3-2c0.7-0.8,1.5-2.2,2-2.1
	C143.9,614.5,144.8,615.5,146.3,616.7z"/>
<path fill-rule="evenodd" clip-rule="evenodd" d="M925.8,366.8c-1.1-1.1-1.8-1.9-2.5-2.6c1-0.6,2-1.5,3.1-1.8
	c0.5-0.1,1.2,0.9,1.9,1.4C927.5,364.6,926.8,365.5,925.8,366.8z"/>
<path fill-rule="evenodd" clip-rule="evenodd" d="M411.6,474c1.7-1,3.4-2.5,5.3-0.6c0.2,0.2-0.8,2-1.5,2.5
	C413.5,476.9,412.1,476.2,411.6,474z"/>
<path fill-rule="evenodd" clip-rule="evenodd" d="M300,602.9c-1.3,1.8-2.4,3.4-4.2,1.5c-0.5-0.5-0.6-2.4-0.1-2.8
	C297.6,599.8,298.5,602,300,602.9z"/>
<path fill-rule="evenodd" clip-rule="evenodd" d="M252.8,593.2c-2.1,0-3.4,0-5.3,0c0.5-1.2,0.6-2.5,1.3-3.2c0.5-0.5,2.1-0.5,2.6,0
	C252.1,590.6,252.3,591.8,252.8,593.2z"/>
<path fill-rule="evenodd" clip-rule="evenodd" d="M293.2,632.6c-0.1-1.5-0.2-3-0.4-4.6c1,0.1,2.1,0.2,3.1,0.3
	c-0.3,1.4-0.5,2.9-0.8,4.3C294.5,632.6,293.8,632.6,293.2,632.6z"/>
<path fill-rule="evenodd" clip-rule="evenodd" d="M623.7,425.2c-1.3,0.4-2.7,0.8-4,1.2c0-1.3,0.1-2.6,0.1-3.9
	c1.3,0.4,2.6,0.8,3.9,1.2C623.7,424.2,623.7,424.7,623.7,425.2z"/>
<path fill-rule="evenodd" clip-rule="evenodd" d="M318.5,592.7c-1.2,1.1-2.4,2.3-2.6,2.1c-1-0.6-1.7-1.7-2.5-2.6
	c0.7-0.6,1.5-1.7,2.2-1.6C316.4,590.8,317.2,591.8,318.5,592.7z"/>
<path fill-rule="evenodd" clip-rule="evenodd" d="M254.7,615.6c-1.3,0.8-2.3,1.8-3,1.6c-0.8-0.2-1.9-1.2-2.1-2.1
	c-0.1-0.5,1.4-2.1,1.8-1.9C252.5,613.6,253.3,614.5,254.7,615.6z"/>
<path fill-rule="evenodd" clip-rule="evenodd" d="M527.8,444.2c1-1,1.9-2,3-2.8c0.2-0.2,1.7,0.6,1.7,1c0.1,0.8-0.2,2.1-0.7,2.4
	c-0.9,0.5-2.2,0.4-3.4,0.5C528.2,445,528,444.6,527.8,444.2z"/>
<path fill-rule="evenodd" clip-rule="evenodd" d="M509.4,378.3c1.3,0.9,2.6,1.8,3.9,2.7c-0.7,0.6-1.5,1.7-2.2,1.7
	c-2.5,0.1-2.2-1.9-2.4-3.5C508.9,378.9,509.1,378.6,509.4,378.3z"/>
<path fill-rule="evenodd" clip-rule="evenodd" d="M181.8,601.5c1.1,1.4,2.3,2.2,2.2,2.9c-0.1,0.8-1.4,1.7-2.3,1.9
	c-0.5,0.1-1.6-1.2-1.8-2C179.9,603.6,180.9,602.8,181.8,601.5z"/>
<path fill-rule="evenodd" clip-rule="evenodd" d="M231.8,617.9c-1.5,0.9-2.4,1.9-3,1.7c-0.9-0.3-1.8-1.2-2-2.1
	c-0.1-0.5,1.2-2,1.7-1.9C229.5,615.7,230.3,616.7,231.8,617.9z"/>
<path fill-rule="evenodd" clip-rule="evenodd" d="M202.5,635.4c1.7,1.4,2.8,2.7,1.3,4.4c-0.4,0.5-2.2,0.5-2.7,0
	C199.3,637.9,201.5,636.9,202.5,635.4z"/>
<path fill-rule="evenodd" clip-rule="evenodd" d="M301.5,624.3c-1.6,1-2.5,2.1-3.2,1.9c-0.8-0.1-1.7-1.4-1.8-2.2
	c0-0.6,1.2-1.9,1.9-1.9C299.2,622.2,300,623.2,301.5,624.3z"/>
<path fill-rule="evenodd" clip-rule="evenodd" d="M226.8,596.9c-1.1,1-2.1,2.1-2.3,1.9c-1-0.5-1.9-1.4-2.4-2.3
	c-0.2-0.3,1.3-2,1.7-1.9C224.8,594.9,225.6,595.9,226.8,596.9z"/>
<path fill-rule="evenodd" clip-rule="evenodd" d="M493.8,381.2c0.1,1.4,0.3,2.7,0.4,4.1c-1.1-0.1-2.2-0.2-3.3-0.2
	c0.4-1.3,0.8-2.7,1.2-4C492.7,381.1,493.2,381.1,493.8,381.2z"/>
<path fill-rule="evenodd" clip-rule="evenodd" d="M259.5,636.9c0.6,1.8,1.1,3.1,1.6,4.5c-1,0.2-2.4,0.8-2.9,0.4
	C256.5,640.3,257.6,638.8,259.5,636.9z"/>
<path fill-rule="evenodd" clip-rule="evenodd" d="M558,409.9c-1,2-2.3,2.9-3.9,1.4c-0.5-0.5-0.8-2.1-0.5-2.5
	C555.5,407,556.5,409.1,558,409.9z"/>
<path fill-rule="evenodd" clip-rule="evenodd" d="M595.5,447.8c-1.3,1.2-2.2,3.1-4.2,1.5c-0.3-0.3-0.2-1.8,0.2-2.3
	C593,445.4,594.3,446,595.5,447.8z"/>
<path fill-rule="evenodd" clip-rule="evenodd" d="M271.1,645.1c-1.4,0.1-2.7,0.2-4.1,0.3c0-1,0-2-0.1-3c1.4,0.3,2.9,0.6,4.3,0.9
	C271.2,644,271.1,644.6,271.1,645.1z"/>
<path fill-rule="evenodd" clip-rule="evenodd" d="M592.9,490.8c-1.3,0.9-2.3,3-4.3,1.3c-0.4-0.4,0-1.8,0.1-2.7
	c1.5,0.2,2.9,0.3,4.4,0.5C593,490.2,592.9,490.5,592.9,490.8z"/>
<path fill-rule="evenodd" clip-rule="evenodd" d="M562.7,426c-0.9,0.4-2,1.3-2.8,1.2c-0.6-0.1-1.2-1.5-1.4-2.5
	c-0.1-0.5,0.6-1.2,1-1.8c1.1,0.7,2.2,1.4,3.4,2C562.9,425.3,562.8,425.7,562.7,426z"/>
<path fill-rule="evenodd" clip-rule="evenodd" d="M183.1,643.3c-1-1.6-2-2.4-2-3.3c0-0.7,1.1-1.9,1.7-1.9c0.7,0,2,1.1,2,1.7
	C184.9,640.7,184,641.6,183.1,643.3z"/>
<path fill-rule="evenodd" clip-rule="evenodd" d="M600.2,407.5c0.8,1.7,1.6,2.7,1.6,3.5c0,0.6-1.3,1.6-2,1.5
	c-0.7-0.1-1.8-1.3-1.8-1.9C598.1,409.8,599.1,409.1,600.2,407.5z"/>
<path fill-rule="evenodd" clip-rule="evenodd" d="M579.3,441.6c-1.4,1.1-2.1,2.1-3.1,2.3c-0.4,0.1-1.7-1.2-1.7-1.9
	c0-0.6,1-1.8,1.7-1.9C577,440,577.9,440.8,579.3,441.6z"/>
<path fill-rule="evenodd" clip-rule="evenodd" d="M194.4,617.3c-0.8,0.4-1.7,1.3-2.3,1.1c-0.8-0.3-1.5-1.3-2.1-2.1
	c-0.1-0.1,1-1.5,1.4-1.4c1,0.1,2,0.8,2.9,1.2C194.4,616.5,194.4,616.9,194.4,617.3z"/>
<path fill-rule="evenodd" clip-rule="evenodd" d="M480,416.5c-1.4,0-2.8,0-4.3,0c0.2-1,0.5-2,0.7-3c1.3,0.4,2.6,0.9,3.9,1.3
	C480.2,415.3,480.1,415.9,480,416.5z"/>
<path fill-rule="evenodd" clip-rule="evenodd" d="M576.8,419.3c1.4,1.2,2.8,2.3,1.1,3.9c-0.4,0.4-2,0.4-2.3,0
	C574,421.6,575.3,420.5,576.8,419.3z"/>
<path fill-rule="evenodd" clip-rule="evenodd" d="M437.9,436.7c0.1,1.4,0.2,2.7,0.3,4.1c-0.9,0-1.8,0-2.7-0.1
	c0.3-1.4,0.6-2.7,0.8-4.1C436.8,436.6,437.4,436.6,437.9,436.7z"/>
<path fill-rule="evenodd" clip-rule="evenodd" d="M554.5,421.8c-1.3-0.1-2.5-0.2-3.8-0.3c0.1-0.9,0.2-1.9,0.4-2.8
	c1.3,0.4,2.6,0.9,3.9,1.3C554.7,420.6,554.6,421.2,554.5,421.8z"/>
<path fill-rule="evenodd" clip-rule="evenodd" d="M549.9,396c-1.3,1.1-2,2.1-2.9,2.2c-0.5,0.1-1.7-1.3-1.7-1.9c0-0.7,1-1.8,1.7-2
	C547.8,394.2,548.6,395.1,549.9,396z"/>
<path fill-rule="evenodd" clip-rule="evenodd" d="M464.2,408.8c-1.3,0-2.6,0.1-3.9,0.1c0-0.9,0-1.7,0-2.6c1.3,0.2,2.7,0.4,4,0.6
	C464.3,407.6,464.3,408.2,464.2,408.8z"/>
<path fill-rule="evenodd" clip-rule="evenodd" d="M592.6,403.2c-1.2,1-2.1,2.1-2.4,2c-0.9-0.4-1.7-1.2-2.2-2.1
	c-0.1-0.3,1.1-1.8,1.6-1.7C590.5,401.5,591.3,402.3,592.6,403.2z"/>
<path fill-rule="evenodd" clip-rule="evenodd" d="M567,436.2c0-1.3,0-2.6,0-3.9c1,0.2,2,0.3,2.9,0.5c-0.4,1.2-0.8,2.5-1.2,3.7
	C568.2,436.4,567.6,436.3,567,436.2z"/>
<path fill-rule="evenodd" clip-rule="evenodd" d="M519.3,387.9c-1.5,0.9-2.4,1.8-3.1,1.6c-0.7-0.1-1.3-1.3-1.5-2.1
	c-0.1-0.4,1.1-1.6,1.4-1.5C517,386.1,517.8,386.9,519.3,387.9z"/>
<path fill-rule="evenodd" clip-rule="evenodd" d="M609.7,450.1c1.1,1.2,1.9,1.9,2.3,2.8c0.1,0.3-1.3,1.8-1.6,1.6
	c-0.9-0.4-1.8-1.1-2.3-2C608,452.2,609,451.2,609.7,450.1z"/>
<path fill-rule="evenodd" clip-rule="evenodd" d="M533,415.1c0.9,1.4,1.9,2.3,1.8,3c-0.1,0.8-1.3,1.3-2,2c-0.5-0.7-1.3-1.4-1.3-2.2
	C531.4,417.1,532.2,416.4,533,415.1z"/>
<path fill-rule="evenodd" clip-rule="evenodd" d="M624.9,485.1c-0.8-1.3-1.7-2.1-1.5-2.6c0.2-0.8,1.1-1.7,1.9-1.9
	c0.4-0.1,1.9,1.2,1.8,1.6C626.8,483,625.9,483.7,624.9,485.1z"/>
<path fill-rule="evenodd" clip-rule="evenodd" d="M286.4,645.2c-0.2-1.2-0.5-2.4-0.7-3.6c0.9-0.1,1.9-0.2,2.8-0.3
	c-0.2,1.3-0.3,2.5-0.5,3.8C287.4,645.2,286.9,645.2,286.4,645.2z"/>
<path fill-rule="evenodd" clip-rule="evenodd" d="M525.1,386.2c-1.5-1.1-3-2.1-1.9-4.1c0.2-0.3,1.6-0.4,2.1-0.1
	C527.4,383.3,526,384.7,525.1,386.2z"/>
<path fill-rule="evenodd" clip-rule="evenodd" d="M583.9,414.1c0.9,1.1,1.8,2.1,3.3,3.8c-1.6,0.2-2.8,0.8-3.4,0.4
	C581.6,417.1,582.7,415.7,583.9,414.1z"/>
<path fill-rule="evenodd" clip-rule="evenodd" d="M605.9,428.6c0.2,1.2,0.5,2.4,0.7,3.6c-0.8,0.1-1.7,0.2-2.5,0.3c0-1.3,0-2.5,0-3.8
	C604.7,428.7,605.3,428.6,605.9,428.6z"/>
<path fill-rule="evenodd" clip-rule="evenodd" d="M251.6,619c0.1,1.2,0.2,2.4,0.4,3.6c-0.9-0.1-1.8-0.2-2.7-0.2
	c0.2-1.1,0.3-2.3,0.5-3.4C250.3,618.9,250.9,619,251.6,619z"/>
<path fill-rule="evenodd" clip-rule="evenodd" d="M485.6,425.1c-2.1-1.8-2.8-3.1-1.3-4.5c0.4-0.4,1.4-0.1,2.2,0
	C486.2,421.9,485.9,423.2,485.6,425.1z"/>
<path fill-rule="evenodd" clip-rule="evenodd" d="M426.3,451.2c0.8,1.3,1.5,2.1,1.6,2.9c0.1,0.5-0.9,1.1-1.3,1.7
	c-0.7-0.7-1.7-1.2-2-2C424.4,453.3,425.4,452.4,426.3,451.2z"/>
<path fill-rule="evenodd" clip-rule="evenodd" d="M243,612.6c1.1,1.2,1.8,2,2.9,3.1c-1.1,0.5-2,1.1-3,1.3c-0.3,0.1-1.2-0.9-1.2-1.3
	C241.9,614.7,242.4,613.8,243,612.6z"/>
<path fill-rule="evenodd" clip-rule="evenodd" d="M571.3,394.3c-1.2,2.3-2.4,2.9-3.7,1.4c-0.4-0.4-0.1-1.3-0.2-2
	C568.7,393.8,570,394.1,571.3,394.3z"/>
<path fill-rule="evenodd" clip-rule="evenodd" d="M272.8,634.8c1.5-1.3,2.9-1.7,3.8-0.1c0.3,0.6-0.7,1.9-1.3,3.4
	C274.2,636.7,273.6,635.9,272.8,634.8z"/>
<path fill-rule="evenodd" clip-rule="evenodd" d="M596.2,431.2c1.4,0.6,2.8,1,4.5,1.7c-1.3,1-1.9,1.6-2.6,2c-0.4,0.2-1,0.1-1.5,0.1
	c0-0.5,0.1-1,0.1-1.5C596.6,433,596.4,432.5,596.2,431.2z"/>
<path fill-rule="evenodd" clip-rule="evenodd" d="M621.7,452.8c0-1.2,0-2.5,0-3.7c0.6,0,1.8,0,1.8,0.1c0.1,1.2,0.1,2.4,0.1,3.6
	C623,452.8,622.4,452.8,621.7,452.8z"/>
<path fill-rule="evenodd" clip-rule="evenodd" d="M610.7,423.3c0.5,1,1,2,1.5,3c-0.7,0.3-1.5,0.5-2.2,0.8c-0.3-1-0.6-2.1-0.9-3.1
	C609.6,423.7,610.1,423.5,610.7,423.3z"/>
<path fill-rule="evenodd" clip-rule="evenodd" d="M453,419.8c-1.3-0.1-2.5-0.1-3.8-0.2c0.1-0.6,0.1-1.6,0.2-1.6
	c1.2-0.1,2.4-0.1,3.6-0.1C453,418.5,453,419.1,453,419.8z"/>
<path fill-rule="evenodd" clip-rule="evenodd" d="M512.4,404.4c1.1-0.6,2.2-1.2,3.3-1.8c0.3,0.6,0.6,1.2,0.8,1.9
	c-1.1,0.5-2.3,1-3.4,1.5C512.9,405.4,512.7,404.9,512.4,404.4z"/>
<path fill-rule="evenodd" clip-rule="evenodd" d="M567.5,410c0.9,0.8,1.8,1.6,2.7,2.5c-0.1,0.3-0.2,0.6-0.3,1
	c-1-0.1-2.2,0.1-2.9-0.4c-0.6-0.4-0.4-1.7-0.6-2.6C566.7,410.3,567.1,410.1,567.5,410z"/>
<path fill-rule="evenodd" clip-rule="evenodd" d="M584.1,427.3c-1.1,0.3-2.3,0.5-3.4,0.8c0-0.9,0-1.7,0-2.6c1.1,0.1,2.2,0.2,3.3,0.3
	C584,426.4,584.1,426.8,584.1,427.3z"/>
<path fill-rule="evenodd" clip-rule="evenodd" d="M448.2,426.1c-1.6,1.3-3.1,1.9-4.3-0.5C445.8,423.6,445.8,423.6,448.2,426.1z"/>
<path fill-rule="evenodd" clip-rule="evenodd" d="M645,630c0.8,1,1.2,1.5,1.6,2c-0.8,0.6-1.5,1.3-2.4,1.8c-0.1,0.1-1.2-0.9-1.1-1.1
	C643.4,631.9,644.1,631.2,645,630z"/>
<path fill-rule="evenodd" clip-rule="evenodd" d="M804.4,304.6c-0.7-1.2-1.4-1.9-1.4-2.5c0.1-0.6,1-1.1,1.5-1.7
	c0.5,0.6,1.3,1.2,1.4,1.8C805.9,302.8,805.1,303.4,804.4,304.6z"/>
<path fill-rule="evenodd" clip-rule="evenodd" d="M543.7,417.3c0.8,0.5,1.5,1,2.3,1.4c0,0.3,0.1,0.6,0.1,0.9c-1,0.2-2,0.4-3,0.6
	c-0.1-0.9-0.3-1.8-0.4-2.7C543,417.4,543.4,417.3,543.7,417.3z"/>
<path fill-rule="evenodd" clip-rule="evenodd" d="M526.9,400.8c-1.1,0.3-2.1,0.5-3.2,0.8c-0.1-0.7-0.2-1.4-0.3-2.1
	c1.1,0,2.2,0,3.3,0C526.8,399.9,526.9,400.3,526.9,400.8z"/>
<path fill-rule="evenodd" clip-rule="evenodd" d="M550.7,637.2c0.8,1.1,1.6,1.8,1.5,2.3c0,0.6-0.8,1.2-1.3,1.8
	c-0.5-0.5-1.4-1-1.5-1.6C549.3,639.1,550,638.4,550.7,637.2z"/>
<path fill-rule="evenodd" clip-rule="evenodd" d="M552.8,632.5c-0.8-1-1.6-1.7-1.6-2.2c0-0.5,1-1.2,1.6-1.4c0.3-0.1,1.3,0.9,1.3,1.3
	C554.2,630.8,553.5,631.5,552.8,632.5z"/>
<path fill-rule="evenodd" clip-rule="evenodd" d="M958.2,341.3c-1.1,0.6-1.8,1.3-2.2,1.2c-0.7-0.3-1.3-1-1.6-1.7
	c-0.1-0.2,1-1.4,1.2-1.3C956.4,339.8,957,340.5,958.2,341.3z"/>
<path fill-rule="evenodd" clip-rule="evenodd" fill="#F7D00F" d="M65.7,27.5c0.3-1.3,0.7-2.5,0.8-3.8c0.1-4.5,1.6-8.3,4.5-11.7
	c3.1-3.6,7.2-4.7,11.6-4.3c1.8,0.2,3.6,1.6,5,2.9c3.2,3.1,4.6,7.1,5.2,11.5c0.2,1.3,0.4,2.6,0.8,4.7c1.1-1.4,1.7-2.1,2.2-2.9
	c1.8-3.3,4.4-5.4,8.2-5.2c4.2,0.2,7.4,2.5,9.3,6.2c1.3,2.5-0.2,6-3.2,8.4c-4.6,3.8-9.1,7.6-13.5,11.4c-0.7,0.6-1.2,1.5-1.8,2.3
	c0.2,0.2,0.4,0.5,0.5,0.7c0.8-0.4,1.6-0.9,2.5-1.2c0.9-0.3,2-0.7,2.9-0.5c0.4,0.1,0.6,1.4,0.7,2.2c0.1,1.9,0.2,3.8,0,5.7
	c-0.7,5.6,2,10.4,3.3,15.5c0.2,0.7,1,1.3,1.7,1.7c5.2,3,10.5,3.2,15.8,0.4c7.6-4,13.3-9.4,15-18.3c0.8-4.3,2.2-8.4,2-13.1
	c-0.3-7.8,6.2-14,15.1-15c15.3-1.7,37.7,5.5,46.6,24.6c2.2,4.7,2,8.7-0.8,12c-1,1.1-1.8,1.4-3.1,0.5c-2.5-1.7-5.1-3.4-7.8-4.8
	c-1.2-0.7-2.8-0.7-4.2-1c-0.2,0.4-0.4,0.8-0.6,1.2c0.7,0.7,1.3,1.7,2.1,2.2c1.8,1.1,3.7,2,5.5,3.1c0.9,0.5,2.2,1.1,2.4,1.9
	c1,3.6,4.6,5,6.2,7.8c2.9,5.1,5.2,10.5,7.4,16c1.9,4.6,2.8,9.5,1.8,14.5c-0.7,3.9-2.7,6.8-6,9c-6.6,4.4-14.2,5.3-21.7,6.1
	c-2.6,0.3-3.1-2-3.3-4.1c-0.6-5.2-1-10.4-1.7-15.6c-0.3-1.8-1.3-3.5-2.1-5.3c-0.4,0.1-0.8,0.2-1.2,0.3c0,2.6-0.2,5.2,0,7.7
	c0.4,4,1.2,7.9,1.6,11.9c0.1,0.8-0.6,2.2-1.2,2.4c-0.7,0.3-2-0.2-2.7-0.7c-1.4-1.1-2.5-2.6-3.9-4.2c-0.8,3.1,0.6,4.4,2.3,5.7
	c4.8,3.7,5.6,6.5,3.4,12.1c-2,5-5,9.4-8.9,13.2c-3.9,3.8-8.7,5.3-14,5.3c-5.1,0-11.6-5.1-13.3-10.3c-0.2-0.6-0.3-1.3-0.6-1.9
	c-1.1-2.3-2.7-4.4-3.4-6.8c-0.6-2.2-0.4-4.7-0.6-7.1c-0.3-0.1-0.5-0.2-0.8-0.3c-0.6,1.1-1,2.2-1.7,3.2c-0.7,1-1.6,2.4-2.6,2.5
	c-3.6,0.4-5.4,2.7-7.3,5.3c-5.5,7.4-10.8,15-16.7,22.1c-6.1,7.2-13.9,12.1-23.8,11.6c-8.2-0.4-16.5-0.3-24.4-3.6
	c-15-6.4-24.1-22.8-21-38.8c0.7-3.5,1.4-6.9,2.1-10.3c1.6-7.5,5.4-13.8,11.1-18.9c5.5-4.7,7.4-10.3,4.8-17.1c-1.4-3.7-1.4-6.3,2-9.2
	c3.6-3,4.1-7.8,4.1-12.4c0.1-5.1-1.6-9.3-5.4-13c-3-2.9-5.6-6.4-8-9.9C42.4,28.9,41.6,25,42,21c0.5-4.8,5.8-8.3,10.7-7.4
	c1.9,0.3,4,0.2,5.8-0.3c3.4-0.9,4.9,0,5.1,3.7c0.2,2.9,0.3,5.9,0.5,8.8c0,0.5,0.4,1,0.6,1.5C65,27.4,65.3,27.5,65.7,27.5z
	 M59.1,146.2c0.2-0.2,0.4-0.5,0.5-0.7c-5.6-7.9-10-16.2-7.3-26.3c-2.9-0.4-4,0.8-4.4,3c-1.7,8.8,1.3,16.1,7.6,22.2
	C56.5,145.2,57.9,145.6,59.1,146.2z M66.3,140.3c-0.9-3.9-1.7-7.7-2.6-11.4c-0.1-0.4-0.7-1.1-1-1.1c-0.6,0.1-1.2,0.5-1.5,1
	C58.8,132.7,61.5,138.9,66.3,140.3z"/>
<path fill-rule="evenodd" clip-rule="evenodd" fill="#F7D00F" d="M225.7,166.5c-6.4,0.4-7.6-4.4-9.3-8.6c-0.9-2.2-0.3-4.2,1.4-5.7
	c1.4-1.2,2.8-2.4,4.4-3.1c1-0.5,2.4-0.4,3.6-0.1c1.3,0.3,2.8,1.7,3.6-0.1c0.3-0.7-1-2.3-1.8-3.2c-0.9-1-2.1-1.6-3.2-2.4
	c1.4-3.5,4.3-5.6,7.5-5.6c3.9,0.1,6.3,3.2,7.7,6.8c0.9,2.3,1.4,4.8,4.1,5.8c0.2-0.2,0.5-0.3,0.5-0.4c-0.2-4.4,2.9-6.3,6.3-7.6
	c1-0.4,2.6-0.2,3.5,0.4c5.6,4.2,4.8,11.1-1.5,14.1c-9.9,4.8-13.4,13.4-9.8,23.7c0.9,2.6,2.7,4,5.3,4.5c1.9,0.3,3.8,0.9,6.1,1.4
	c-3.1,5.1-3.6,11.2-8.7,14.8c-1.2,0.9-1.6,3.9-1.3,5.6c0.8,3.4,2.1,6.7,3.7,9.8c2.1,4.1,2.1,8-0.3,11.7
	c-5.1,7.8-12.2,13.4-20.9,16.6c-1.8,0.7-4.4,0.4-6.3-0.3c-1.7-0.6-2.8-0.7-3.8,0.8c-1.7,2.4-3.5,2.6-6.5,2c-4-0.7-8.3-0.2-12.4,0.1
	c-4.8,0.4-9.6,1.2-14.4,1.8c-0.7,0.1-1.6,0.1-2.2-0.3c-2.6-1.7-4.4-0.4-5.7,1.6c-1.5,2.2-2.8,4.5-3.9,6.9c-2.7,6.3-5.1,12.7-8,18.9
	c-1.2,2.5-3.1,4.8-5,6.9c-3.4,3.7-7.8,4.7-12.6,3.3c-4.5-1.3-6.3-4.7-7.3-9c-1.9-8.3-0.5-16.3,1.4-24.5c2.3-9.9,7.8-17.2,15-23.7
	c2-1.8,4.8-2.8,7.5-4.4c-0.2-1.6-1.3-2.4-3.1-1.7c-2,0.8-4.1,1.7-5.7,3.1c-7.6,6.8-13.9,14.6-16.6,24.8c-1,3.8-2.9,5-6.9,5.2
	c-1.4,0.1-2.8,0.3-4.3,0.4c-4.8,0.4-8-1.8-8.6-6.4c-0.4-3.2-0.2-6.4-0.2-9.7c0-0.4,0.1-1.1,0.5-1.3c2.9-2.5,2.4-6,3.4-9.1
	c1-3.3,3.2-6.6,5.8-8.9c5.3-4.5,11.3-8.3,17-12.5c2.9-2.1,5.7-4.4,8.4-6.8c0.5-0.5,0.4-1.8,0.5-2.7c-0.9,0.1-1.9,0-2.6,0.4
	c-6.8,4.9-13.5,9.8-20.2,14.8c-2.6,1.9-4.7,4.5-7.4,6.3c-1.4,1-3.6,1.7-5.1,1.2c-1-0.3-2-2.8-1.8-4.2c0.4-3.5,0.8-7.3,2.3-10.4
	c5-10.4,13-18.4,22.2-24.9c6.6-4.7,14.8-6.3,22.7-8c12.3-2.6,22.7,1.7,32,9.2c4.8,3.8,9.9,6.6,15.8,8.2c5.9,1.5,14.2-2.6,14-10.3
	C224.4,176.8,225.2,171.9,225.7,166.5z M229.7,219.9c-0.2-0.2-0.5-0.5-0.7-0.7c-1,0.8-2.1,1.5-2.9,2.4c-2.5,2.6-4.8,5.4-7.3,8
	c-2.1,2.2-4.6,3.7-7.8,3.8c-0.6,0-1.2,0.9-1.7,1.4c0.6,0.5,1.3,1.5,1.8,1.4c2.5-0.5,5.7-0.5,7.4-2c3.9-3.7,7.1-8.1,10.5-12.3
	C229.4,221.4,229.5,220.6,229.7,219.9z M209.4,221.7c5.2-0.5,7.9-3.4,10.5-6.3c0.3-0.3,0.1-1.5-0.3-1.9c-0.3-0.3-1.4-0.2-1.9,0.2
	c-1.9,1.3-3.9,2.8-5.6,4.3C211.2,218.9,210.6,220.1,209.4,221.7z"/>
<path fill-rule="evenodd" clip-rule="evenodd" fill="#FFFFFF" d="M132.5,436.4c1.1,2.9,2,5.7,3.2,8.3c4.2,9.1,5.7,18.8,7.8,28.5
	c2,9.4,5.6,18.5,8.6,27.8c0.3,1,0.9,1.9,1.6,2.7c4.3,5.2,5.1,11.2,4.8,17.7c-0.9,18.6-1.5,37.3,0.6,55.9c0.7,6.2,1.6,12.4,2.4,18.7
	c-0.3,0-1.2,0.3-1.6,0c-2.8-2.7-6-1.3-9.2-1.1c-9.3,0.8-18.6,1.2-27.9,2.3c-14.4,1.8-28.8,4-43.2,6c-2.6,0.4-5.3,0.7-8.2,1
	c0-1.7-0.2-3.2,0-4.5c1.3-6.6,3.1-13.1,4.1-19.8c1.1-7.7,1.4-15.5,2.2-23.3c1.4-13.3,1.7-26.6,1.1-39.9c-0.5-10.9-1-21.9-1.4-32.8
	c-0.1-2.7,0.8-5,2.9-6.9c10.6-9.7,21.2-19.4,31.8-29.1c0.9-0.8,1.9-1.6,3-2.2c4.9-2.8,9.8-5.6,14.8-8.4
	C130.6,437,131.5,436.8,132.5,436.4z M106.4,518.3c0.1,1.9,0.1,5.1,0.5,8.3c0.4,3.5,2.6,4.5,6,3.4c2.6-0.9,5.2-1.7,7.9-2.3
	c3.3-0.7,6.8-1,10.1-1.7c2.8-0.6,3.9-2.2,3.2-5c-0.8-3.3-1.8-6.6-2.9-9.8c-1.1-3.3-3.6-5.4-7.1-5.9c-4.1-0.6-8.3-1-12.5-1.3
	c-3.2-0.3-4.4,0.8-4.6,3.9C106.8,510.8,106.7,513.9,106.4,518.3z M120.5,549.2c-2.7,0.2-4.7,0.3-6.7,0.4c-4,0.2-5.6,1.7-6.2,5.6
	c-0.4,2.7-0.7,5.5-1,8.2c-0.4,4.1,2.6,7.8,6,6.9c5.7-1.5,11.2-1.5,16.9-0.1c2.7,0.7,5.8-1.3,5.5-3.5c-0.5-4.3-1.1-8.7-2.2-12.9
	c-0.9-3.2-3.5-4.9-7-4.7C123.8,549.2,121.8,549.2,120.5,549.2z"/>
<path fill-rule="evenodd" clip-rule="evenodd" fill="#FFFFFF" d="M68.7,484.1c1.9,0,3.4,0,5.8,0c0,7-0.1,13.9,0,20.7
	c0.2,12.8,1,25.7,0.4,38.5c-0.5,12.4-2.4,24.8-3.7,37.2c-0.1,0.7-0.3,1.3-0.4,1.9c-0.5,2.5-1.8,3.4-4.6,3.3
	c-6.7-0.3-12.6-2.6-18.3-5.9c-0.6-0.4-1.2-1.2-1.3-1.9c-2.1-16.4-2.9-33-2.7-49.5c0.1-14.7-0.2-29.4,0.5-44
	c0.5-9.8,2.6-19.4,3.5-29.2c1.2-12.1,5.7-22.8,12.5-32.7c1.3-1.9,2.8-2.8,5.2-3.5c3.6-1,7.1-2.7,10.3-4.6c3-1.7,6-2.8,9.4-2.7
	c5.4,0.1,10.8,0,16.5,0c-0.1,3.5,1.3,4.9,4.1,5.8c1.5,0.5,2.8,1.9,3.8,3.3c3.5,4.7,6.9,9.6,10.4,14.7c-6.9,6.7-13.9,13.7-21.1,20.3
	c-6.7,6.2-13.7,12.1-20.7,18c-1.2,1.1-3,1.6-4.7,2.4C72.2,478.6,70.6,481.2,68.7,484.1z M64.6,433.4c-2.8,0.9-3.6,1.5-4,4.1
	c-2,11.1-3.9,22.3-5.7,33.4c-0.3,1.6,0.2,3.3,0.4,5c0.4,0,0.8,0.1,1.1,0.1c0.3-1.1,0.7-2.2,1-3.3c2.4-11.9,4.9-23.8,7.3-35.7
	C64.8,435.9,64.6,434.7,64.6,433.4z M69.9,446.6c-1,0.1-1.4,0.1-1.6,0.2c-2.4,1.9-4.4,11.5-2.8,14.2c0.3,0.5,1.1,1.1,1.5,1
	c0.6-0.2,1.3-0.8,1.5-1.4c0.4-1.5,0.7-3.2,0.8-4.8C69.5,452.8,69.7,449.8,69.9,446.6z"/>
<path fill-rule="evenodd" clip-rule="evenodd" fill="#FFFFFF" d="M254.3,552.6c-6.7,0.8-13.4,1.5-20.1,2.4c-3.6,0.5-5-0.3-5.7-4
	c-1.1-5.8-2.1-11.6-2.9-17.4c-0.8-5.7-1.5-11.5-1.7-17.3c-0.1-3.4,0.8-6.9,1.1-10.4c0.1-1.2,0.2-2.9-0.5-3.6
	c-7.8-7.7-9-17.5-9.1-27.7c0-4.9,0.2-9.9,0.3-14.8c0.1-4.9-1-5.7-5.8-6.6c-3.6-0.7-7.2-2.3-10.6-3.8c-2.4-1.1-1.3-3.7-0.4-4.9
	c2.3-3.2,5.1-6.1,7.8-9.1c0.6-0.6,1.7-0.8,2.6-0.9c11-1.8,22.2-2.8,32.9,0.3c7.6,2.2,14.6,7,16.3,15.7c1.9,9.6,3,19.3,4.1,29.1
	c2.4,21.1,4.6,42.1,7,63.2c0.2,2,1.2,4,1.8,6c0.5,1.9,0,3.3-2.1,3.5c-5,0.6-9.9,1.1-14.9,1.7C254.4,553.4,254.4,553,254.3,552.6z
	 M252.1,490.4c0.3-0.2,0.7-0.4,1-0.6c-0.3-1.3-0.6-2.5-1-3.8c-2.2-8.4-4.4-16.9-6.8-25.3c-0.7-2.5-1.7-4.8-2.7-7.2
	c-0.2-0.5-1.1-0.8-1.6-1.2c-0.4,0.6-0.9,1.2-1,1.8c-0.1,0.7,0.2,1.5,0.5,2.2c0.7,2.3,1.4,4.5,2.1,6.7c2.5,8.2,5,16.5,7.6,24.7
	C250.5,488.7,251.5,489.5,252.1,490.4z M241.2,489.4c0.9-3.4-2.9-15.8-5.2-16.8C234.9,476.8,238.1,487,241.2,489.4z"/>
<path fill-rule="evenodd" clip-rule="evenodd" fill="#FFFFFF" d="M181.6,507.3c10.8,0.2,21.2,2.3,31.6,4.6c1,0.2,2.3,1.3,2.6,2.2
	c1.2,4.1,2.3,8.2,3.1,12.4c1.9,10.2,3.5,20.4,5.2,30.6c0.4,2.5,0.7,5.1,0.6,7.7c0,0.8-1.1,2.1-2,2.3c-19.1,5.7-35,16.9-50.9,28.2
	c-1,0.7-2,1.5-3.1,2c-0.6,0.2-1.5-0.1-2.2-0.2c0.1-0.7,0-1.7,0.4-1.9c3.9-2.5,2.7-5.6,1.2-8.8c-4-8.5-4.2-17.8-5.5-27
	c-1.7-13.1-1-26,2.4-38.7c1-3.7,2.5-7.2,3.9-10.7c0.3-0.8,1.6-1.6,2.5-1.7C174.8,507.7,178.2,507.6,181.6,507.3z"/>
<path fill-rule="evenodd" clip-rule="evenodd" fill="#FFFFFF" d="M139.4,429.2c9.1,3.6,17.5,6.8,25.8,10.3
	c13.9,5.8,27.7,11.8,41.5,17.6c1.6,0.7,2.2,1.5,2.3,3.4c0.2,10.7,0.5,21.3,1.1,32c0.2,3.6,1.6,7.2,2.3,10.8c0.6,3.2-0.2,4-3.5,3.6
	c-2.7-0.4-5.4-0.9-8.2-1.1c-7.3-0.6-14.6-1.3-21.9-1.6c-4.5-0.2-9.1,0.4-13.7,0.4c-4.6,0-8.3-2-9.8-6.5c-3.7-11.3-7.6-22.5-10.5-34
	c-1.9-7.8-2.2-16-3.3-24C140.9,436.8,140.2,433.4,139.4,429.2z M170.4,493.2c-1.1-2.4-2.2-4.9-3.3-7.3c-6-13.5-9.8-27.8-12.9-42.2
	c-0.2-1-1.3-1.8-2-2.6c-0.4,1-1.2,2.1-1,3c1.3,6.2,2.6,12.5,4.4,18.6c2.9,9.7,6.1,19.4,9.2,29.1C165.8,494.3,167.5,495,170.4,493.2z
	 M163.7,446.9c0.1,1.7-0.1,3.2,0.2,4.5c2.3,8.6,4.6,17.3,7.3,25.8c1.8,5.8,4.4,11.3,6.7,17c0.6,1.6,1.9,2.6,3.6,1.9
	c0.5-0.2,0.7-2.4,0.2-3.1c-4.6-7.2-7-15.2-9.3-23.2c-1.8-6.1-2.9-12.4-4.5-18.6C167.4,449.2,166.8,447.2,163.7,446.9z M178.4,452
	c-0.5,0.1-1,0.2-1.5,0.3c0,1.3-0.3,2.8,0,4c1.9,6.6,3.8,13.1,5.9,19.7c1.9,5.9,3.8,11.7,5.8,17.5c0.5,1.3,1.1,2.8,3,1.8
	c1.8-0.9,1.2-2.3,0.7-3.7c-2.2-6.1-4.5-12.1-6.5-18.2c-2-6.1-3.8-12.4-5.7-18.5C179.7,453.9,178.9,453,178.4,452z M191.4,459.6
	c-0.3,0.3-0.6,0.5-0.9,0.8c1.9,7.7,3.8,15.5,5.9,23.2c0.6,2.1,1.8,4,2.8,6c0.3-0.1,0.7-0.2,1-0.3c0-1.1,0.2-2.1,0-3.2
	c-0.5-3-1.1-6-1.9-8.9c-1.3-5-2.6-10.1-4.2-15C193.7,461.2,192.3,460.5,191.4,459.6z"/>
<path fill-rule="evenodd" clip-rule="evenodd" fill="#FFFFFF" d="M99.8,347.5c-5.3,0.5-10.5,2.4-15.3-1.3c-0.6-0.4-1.8-0.2-2.6,0
	c-6.2,1.6-12.4,3.1-18.4,5.1c-6,2-11.8,1.4-17.6-0.5c-0.5-0.2-1-0.6-1.1-1c-2.6-7.5-3.9-15.2-3.6-23.6c1,0.7,1.7,1.2,3,2.1
	c0.4-1.7,0.9-3.1,0.9-4.5c0.2-8,2.3-15.6,6-22.7c0.7-1.3,1.7-2.6,2-4.1c0.9-3.9,3.5-5.9,7.2-6.2c6.9-0.6,13.8-1.2,20.7-1.1
	c3.8,0.1,6.2,3.2,7.6,6.6c1.4,3.5,2.5,7,4.7,10.2c1.5,2.3,1.7,5.6,2.1,8.5c1.4,8.9,2.6,17.9,3.8,26.8
	C99.6,343.6,99.6,345.4,99.8,347.5z M53.6,339c0.2-0.6,0.4-1,0.5-1.4c0.1-0.5,0.3-1.1,0.3-1.7c-0.1-8.5,2.3-16.5,4.5-24.6
	c0.3-1.1,0-2.3,0-4.2C53.4,315.6,51,330.2,53.6,339z M62.4,323c-3.5,3.8-3.5,6.5,0,10.2C62.4,329.8,62.4,326.7,62.4,323z"/>
<path fill-rule="evenodd" clip-rule="evenodd" fill="#FFFFFF" d="M220.2,427.7c-2.8,0.4-6.1,1-9.4,1.3c-0.7,0.1-2-0.9-2.2-1.6
	c-0.8-3.6-1.9-7.2-1.9-10.9c0-9.5,0.6-19,0.9-28.6c0.1-2,0-4-0.4-5.9c-0.5-2.3-2.4-2.8-4.3-1.4c-1,0.8-1.8,1.8-2.9,2.2
	c-4,1.4-4.4,4.3-4.3,8.1c0.2,13.3,0.1,26.7,0.1,40c0,1.7-0.4,2.7-2,3.6c-2.1,1.1-3.9,2.7-6,4.2c-0.8-25.3,2.1-50.3,2.6-74.8
	c1.1,1.4,2.3,2.9,3.5,4.4c0.4-0.3,0.9-0.6,1.3-0.9c1-1.2,2.2-2.4,3.1-3.7c5.8-8.9,15-11.2,24.6-12.5c5.1-0.7,9.6,1.1,13.2,4.9
	c0.8,0.9,1.5,2.3,1.5,3.5c-0.3,17.9,2.5,35.5,5,53.1c0.8,5.4,1.4,10.7,2.2,16.7c-3.7-1.1-7.1-1.6-10.1-3c-1.3-0.6-2.5-2.7-2.6-4.3
	c-0.8-11.2-1.2-22.4-1.8-33.7c-0.1-2.2-0.1-4.4-0.6-6.5c-0.3-1.4-1.1-2.9-2.2-3.8c-1.5-1.4-3-1.6-4.4,0.6c-2.4,3.6-4.1,7.2-3.8,11.7
	c0.5,8.1,0.8,16.2,1.1,24.3C220.3,418.9,220.2,423.2,220.2,427.7z"/>
<path fill-rule="evenodd" clip-rule="evenodd" fill="#FFFFFF" d="M105.1,407.8c-2.7,0.4-5.2,0.3-7.4-1.9c-0.8-0.8-2.6-0.8-4.4-1.3
	c-0.3-4.3-0.5-9.1-1-13.8c-0.5-4.5-1-9.1-1.8-13.6c-0.2-1.1-1.2-2.7-2.1-2.9c-0.8-0.2-2.2,1-3.1,1.7c-5.9,4.7-4,11.2-3.8,17.2
	c0.1,3.7,0.4,7.4,0.7,11.1c0.1,1.8-0.6,3-2.3,3.4c-4.9,1.4-9.9,2.8-14.8,4c-0.6,0.1-2-1-2.2-1.8c-1.7-6.5-3.6-13-4.8-19.6
	c-1.4-7.4-2.2-14.8-3.3-22.3c-0.1-0.5-0.1-1.2,0.2-1.6c2.2-3.1,4.4-6.3,6.9-9.1c2.5-2.8,6-3.5,9.7-3.5c6.5,0,13,0.1,19.4,0
	c1.8,0,2.7,0.7,3,2.3c0.6,3.2,1,6.4,1.8,9.5c0.3,1.4,1.3,2.7,2,4c0.8,1.5,2.2,2.9,2.5,4.5c1.1,7.8,2,15.7,3,23.5
	c0.2,1.2,0.4,2.6,1.1,3.5C105.8,403.2,106.2,405.2,105.1,407.8z M61.3,378.2c0,0.4-0.2,1.7-0.1,2.8c0.3,5.1,0.6,10.3,1.2,15.4
	c0.3,2.5,1.1,4.9,1.8,7.4c0.1,0.5,0.8,1.3,1.2,1.3c2.4-0.1,4.9-0.1,7.3-0.6c0.7-0.1,1.6-1.6,1.6-2.5c-0.2-6.5-0.5-13-0.9-19.5
	c-0.1-1.5-0.3-3-0.5-4.5c-0.3-2.2-1.7-2.4-3.6-1.8C66.8,376.8,64.3,377.4,61.3,378.2z"/>
<path fill-rule="evenodd" clip-rule="evenodd" fill="#FFFFFF" d="M143.3,385.5c-0.4,3.4-0.5,6.4-1.2,9.3c-0.9,3.7-2.2,7.3-3.2,10.9
	c-0.4,1.5-0.3,3.2-0.4,4.8c0.3,0.2,0.5,0.3,0.8,0.5c0.9-1.2,2.1-2.2,2.6-3.6c1.6-4.1,3.1-8.2,4.1-12.4c0.8-3.3,0.7-6.7,1.1-10.8
	c3-0.9,6.5-2,10-3.1c0.2,0.3,0.4,0.6,0.6,0.9c-0.9,3.3-1.5,6.6-2.6,9.8c-2.1,6.3-4.6,12.5-6.8,18.8c-0.7,1.9-1.4,3.8-1.5,5.8
	c-0.2,3.2-0.9,5.9-4,8.6c-1.8-2.2-3.6-4.5-5.6-6.7c-0.8-0.9-1.8-1.5-2.7-2.2c-0.9,1.4-2.9,3.4-2.6,4.1c1.7,3.4-0.1,5-2.4,6.8
	c-2.4,1.9-4.6,4.2-7.2,6.6c-4.1-6.1-6-13-8.4-19.5c-0.9-2.5-2.2-4.8-3.3-7.1c-0.3-0.6-0.7-1.2-0.7-1.8c-0.2-4.8-0.4-9.5-0.6-14.3
	c-0.1-2,0.8-2.3,2.6-2.3c3.5,0,6.9-0.4,10.4-0.7c2.6-0.2,5.2-0.4,7.9-0.7c-0.9,8.5-5.5,15.7-4.1,23.8c0.3,0.1,0.6,0.2,0.9,0.3
	c0.8-1.9,1.7-3.8,2.3-5.8c1.6-5.3,3.3-10.5,4.7-15.9c0.6-2.2,1.8-3.1,3.9-3.3C139.4,386.2,140.8,385.9,143.3,385.5z M114.9,402.7
	c4.2-2.6,5.1-5.8,5.2-9.3c0-0.8-0.8-1.7-1.2-2.6c-0.9,0.6-2.3,1.1-2.5,1.8C115.8,395.7,115.5,398.8,114.9,402.7z"/>
<path fill-rule="evenodd" clip-rule="evenodd" fill="#FFFFFF" d="M190.4,356.9c-2.6-13.8,1.2-30.4,13.7-37.6
	c2.8-1.6,5.4-1.9,8.4-0.8c8.6,3.1,15.1,9,20.2,16.2c1.9,2.7,1.9,6.8,2.7,10.3c0.1,0.4-0.7,1.4-1.2,1.5c-1.4,0.4-3,0.8-4.4,0.7
	c-11-0.6-21.3,1.9-31.1,6.7C196,355.1,193.2,355.8,190.4,356.9z"/>
<path fill-rule="evenodd" clip-rule="evenodd" fill="#FFFFFF" d="M72.6,170.8c0.4,1,1.2,2,1.3,3.1c1.1,9.1,2,18.2,3.3,27.2
	c1.6,10.5,3.6,21,5.5,31.4c0.2,1.3,0.6,2.6,0.8,3.9c0.8,4.1-0.1,5.5-4.2,6c-4.4,0.6-8.7,0-12.5-2.1c-1.7-1-3.2-3.1-3.8-5
	c-2.2-7.7-2.6-15.4-0.8-23.4c2.3-10.4,3.9-20.9,6-31.4c0.7-3.3,2-6.5,3.1-9.7C71.8,170.9,72.2,170.8,72.6,170.8z"/>
<path fill-rule="evenodd" clip-rule="evenodd" fill="#FFFFFF" d="M146.2,426c6.5-7.6,8.2-17.5,12.8-26c1.2-2.3,2.5-4.6,4.1-7.6
	c1.2,2.2,2,3.7,2.8,5.1c5.7,10.2,11.5,20.4,17.2,30.7c0.2,0.4,0.6,0.8,0.6,1.2c0.4,4.1,0.8,8.2,1.1,12.4c0,0.4-0.1,0.9-0.2,1.4
	C177.1,441.8,157.2,432.9,146.2,426z"/>
<path fill-rule="evenodd" clip-rule="evenodd" fill="#FFFFFF" d="M55,55.6c0.6,6.5-3.4,10.1-8.9,12.7c-8,3.8-19.3,1-24-6.1
	c-4.2-6.3-3.5-13.6,1.8-19c4.3-4.4,9.3-7.2,15.7-7c1,0,2.2,0.1,3,0.6C48.9,40.8,55.9,46.9,55,55.6z M35.8,57.3
	c3-2.5,4.4-5.5,3.2-7.2c-0.8-1.1-2.7-2.4-3.8-2.2c-1.5,0.4-3.7,1.9-4,3.2C30.5,54.5,33.3,55.9,35.8,57.3z"/>
<path fill-rule="evenodd" clip-rule="evenodd" fill="#FFFFFF" d="M68.7,277.4c4-1.8,4.7-14.4,1.2-19.3c-2.4,1.3-5,2.6-7.3,4.2
	c-0.7,0.5-1.2,1.9-1.2,2.9c0,5.1,0.3,10.3,0.4,15.4c0,1.3,0.6,2.8-1.4,3.2c-2,0.3-2-1.3-2.4-2.5c-0.1-0.2-0.1-0.4-0.1-0.6
	c-4.9-9.9-1.1-19.9,0-29.8c0.3-3,2.7-4.5,6-4.6c4.5-0.1,9-0.1,13.4,0c0.9,0,2.3,0.7,2.7,1.5c1.2,2.6,2.5,5.2,2.7,8
	c0.7,8.4,0.9,16.9,1.5,25.4c0.1,1.9-0.7,2.7-2.4,3.1c-5.1,1.3-10.2,1.7-15.1-0.2c-0.8-0.3-1.8-1.6-1.9-2.5c-0.2-4.7-0.2-9.3,0-14
	c0.1-1.1,1.4-2.1,2.1-3.2c0.6,1,1.6,2,1.7,3.1C68.9,270.7,68.7,273.9,68.7,277.4z"/>
<path fill-rule="evenodd" clip-rule="evenodd" fill="#E2B700" d="M7.1,88.4c2.7-2.3,5-4.1,7.1-6.2c3.1-3,6-6.1,9.1-9.1
	c0.8-0.8,2.2-1.4,3.3-1.4c5.8,0.4,11.6,0.9,17.3,1.5c1.1,0.1,2.5,0.9,3.1,1.9C51,81,50.4,85.7,45.3,90c-0.8,0.7-2.2,1-3.2,0.9
	c-7.3-1-14.6-2.3-22-3.3c-1.6-0.2-3.5,0.1-4.9,1C12.9,90,10.7,90.2,7.1,88.4z"/>
<path fill-rule="evenodd" clip-rule="evenodd" fill="#FFFFFF" d="M256.5,159.6c5.1,0.9,10.5,0.7,13.4,6.4c2.3,4.4,1.6,8.8-2.9,10.9
	c-4.8,2.3-10,4-15.2,5.3c-1.6,0.4-4.4-0.8-5.4-2.1c-3.3-4.4-2.2-9.2,0-13.7C248.5,162.2,251.7,159.7,256.5,159.6z M254.7,173
	c2.4,0.3,5,1,6.1-1.6c0.5-1.1-0.1-3.3-1-4.2c-0.8-0.8-3.1-1.2-4-0.7C253.5,168.1,254.3,170.7,254.7,173z"/>
<path fill-rule="evenodd" clip-rule="evenodd" fill="#E2B700" d="M253.6,199.7c0.1-0.6,0-1.8,0.4-2.7c2.2-4.5,4.5-9,7-13.4
	c1.3-2.3,9.4-4.6,11.8-3.8c6.7,2.5,13.3,5,20.2,7.5c-2.7,2.9-6,4.2-9.6,4.8c-4.9,0.8-9.8,1.4-14.6,2.6
	C263.7,196,258.7,198,253.6,199.7z"/>
<path fill-rule="evenodd" clip-rule="evenodd" fill="#FFFFFF" d="M221.1,287.3c-6-0.8-11.8-1.6-17.5-2.6c-0.7-0.1-1.7-1.3-1.8-2.2
	c-0.9-4.8,0.3-9.2,3.9-12.5c1.2-1.1,3.6-1.7,5.1-1.3C215.8,269.9,222.2,281,221.1,287.3z"/>
<path fill-rule="evenodd" clip-rule="evenodd" fill="#FFFFFF" d="M218.1,310.9c-3.5-1.1-6.3-1.9-9.1-2.9c-0.7-0.2-1.5-1.1-1.6-1.7
	c-0.3-4.3-0.5-8.5-0.3-12.8c0-1,1.6-2.7,2.5-2.7c3-0.2,6.1,0,9.1,0.4c1.8,0.3,2.8,1.2,1.9,3.7c-1,2.8-1,5.9-1.4,8.9
	C218.8,306.2,218.5,308.4,218.1,310.9z"/>
<path fill-rule="evenodd" clip-rule="evenodd" fill="#FFFFFF" d="M202.8,387.3c2.3,3.8,1,7.8,1,11.6c0,8.7-1.5,17.5,0.4,26.2
	c0.3,1.2,0.4,2.6-0.1,3.7c-0.4,1-1.5,2.2-2.6,2.4c-0.7,0.2-2-1-2.5-1.8c-0.5-0.8-0.5-2-0.5-3c0-10.7,0-21.3,0.1-32
	C198.8,391.4,199.3,388.6,202.8,387.3z"/>
<path fill-rule="evenodd" clip-rule="evenodd" fill="#FFFFFF" d="M223.9,427c-0.2-1.2-0.6-2.4-0.6-3.5c-0.4-11.7-0.8-23.4-1.1-35.1
	c0-1.3,0.9-2.7,1.4-4c0.4,0.1,0.8,0.1,1.2,0.2c0.4,1.3,1.2,2.5,1.3,3.9c0.9,11.5,1.7,23,2.4,34.5C228.7,426.6,228.5,426.7,223.9,427
	z"/>
<path fill-rule="evenodd" clip-rule="evenodd" fill="#FFFFFF" d="M90.8,405.3c-5,0.8-5.3,0.8-5.6-3.5c-0.4-5.4-0.5-10.8-0.5-16.1
	c0-1.2,1-2.4,2.1-3.6C89.9,389.6,88.4,397.7,90.8,405.3z"/>
<path fill-rule="evenodd" clip-rule="evenodd" fill="#E8563A" d="M576.5,382.4c-8.5-3.9-16.8-7.4-24.8-11.3
	c-10.9-5.3-22.7-7.1-34.5-8.2c-6.4-0.6-12.9,0.2-19.4,0.3c-5.8,0.1-11.7-0.7-17.3,0.2c-7.9,1.3-15.7,3.8-22.8,8
	c-1.3,0.8-2.8,1.2-4.7,2c0.9-6.2,1.9-11.8,2.6-17.4c0.7-6,1.3-12.1,1.6-18.2c0.5-11.2,0.8-22.5,1.2-33.7c0.4-10.2,0.8-20.4,1.7-30.5
	c1-10.7,0.8-21.5,4.4-31.8c1.6-4.4,3.9-7.3,8.5-8.7c16-4.9,32-9.8,47.8-15.3c6.3-2.2,12.4-3.2,19-2.7c1.9,0.1,2.6,0.9,3.2,2.8
	c2.4,8.1,1.2,16.3,1.3,24.4c0.2,20.3,1.8,40.5,4.8,60.6c3.5,22.6,11.3,43.7,19.9,64.6C571.2,372.5,573.9,377.2,576.5,382.4z
	 M488.2,272.3c-0.3,5.1,2.6,7.3,6.6,5.3c3.9-2,8-2.2,12.2-2.4c2.4-0.1,4.9-0.6,7.1-1.5c2.3-0.9,3.6-3.2,2.7-5.6
	c-2.5-6.3-5-12.5-8-18.6c-1.5-3-5.2-4.4-7.5-3.2c-5.8,3-10.9,7-11.9,14C488.7,264.5,488.5,268.8,488.2,272.3z M466.8,308.6
	c0.9,14.9,1.7,29.5,2.6,44.2c0.5,0.1,1,0.1,1.5,0.2c0.4-1.4,1.2-2.8,1.2-4.2c0-2.3-0.5-4.5-0.6-6.8c-0.3-9.7-0.6-19.4-0.8-29.1
	C470.6,309.6,469.8,308.6,466.8,308.6z M480.5,343.5c0.3-0.2,0.5-0.3,0.8-0.5c0-7.5,0-15,0-22.5c0-0.6-0.6-1.2-0.9-1.8
	c-0.5,0.6-1.4,1.1-1.4,1.7c0,7.1,0,14.2,0.2,21.3C479.2,342.3,480,342.9,480.5,343.5z"/>
<path fill-rule="evenodd" clip-rule="evenodd" fill="#C43723" d="M628.4,408.1c-7.8-4-15.1-7.7-22.4-11.4c-6.1-3.1-12.3-6-18.5-9
	c-1-0.5-2.1-1.3-2.8-2.3c-13.2-20-20.9-42.4-27.6-65.2c-1.4-4.6-1.9-9.4-2.8-14.2c0.3-0.3,0.5-0.5,0.8-0.8c1.3,0.4,2.7,0.8,4,1.1
	c1.7,0.4,3.5,1,5.2,0.8c14.3-1.4,28.1,0.5,41.8,4.5c9,2.7,16.7,7.8,24.3,13c2.5,1.7,4.6,3.9,6.8,6c0.4,0.4,0.5,1.4,0.3,2.1
	c-1.4,6.8-2.9,13.6-4.4,20.4c-2.1,9.9-4.3,19.7-6.4,29.6c-1.5,7.3-0.7,14.6,1.1,21.8C628,405.5,628.1,406.6,628.4,408.1z
	 M597.7,352.7c5,0.1,10-0.2,14-3.6c0.8-0.6,1.6-1.9,1.4-2.7c-1.2-6.7-4.2-12.6-9-17.5c-2.5-2.6-6.3-3-9.5-1.5
	c-3.1,1.5-5.7,5.2-5.4,8.1c0.5,4,1,8.1,1.9,12.1C592.4,352.8,592.5,352.7,597.7,352.7z"/>
<path fill-rule="evenodd" clip-rule="evenodd" fill="#A35240" d="M455,230.4c18-26.6,35.8-52.9,53.5-79c13,15.8,26.1,31.7,39.5,47.9
	c-1.8,1.3-3.4,2.7-5.1,3.7c-16.9,9.5-35.1,15.8-53.7,21.2c-6.8,2-13.7,4-20.5,6C464.2,231.6,459.8,231.4,455,230.4z M505.6,174.3
	c-0.6-0.7-1.2-2-1.7-1.9c-0.9,0.2-2.1,0.8-2.5,1.6c-7.6,14.2-16.3,27.7-26.2,40.4c-0.8,1-0.6,2.6-0.8,4c1.2-0.7,2.7-1.1,3.5-2
	c10.3-12.3,18.5-26.1,26.7-39.8C505,176,505.2,175.3,505.6,174.3z M494.1,211.8c0.3,0.2,0.6,0.3,0.9,0.5c0.9-1.4,2.1-2.6,2.8-4.1
	c2.2-5.1,4.3-10.4,6.3-15.6c0.5-1.2,0.3-2.6,0.5-3.9c-1.2,0.9-2.9,1.5-3.4,2.7c-2.1,4.9-3.9,9.9-5.7,14.9
	C494.8,208.1,494.5,210,494.1,211.8z M510.2,204.5c2.5-3.8,5.7-6.8,4.9-11.7C511.4,194.2,508.7,200.6,510.2,204.5z"/>
<path fill-rule="evenodd" clip-rule="evenodd" fill="#8C382A" d="M640.6,323.7c-1.8-0.4-3.1-0.4-4.2-0.9c-1.5-0.7-3-1.7-4.4-2.7
	c-13-9.8-28-14.1-43.9-16.3c-12.1-1.6-23.6-5.6-35.1-9.5c-0.6-0.2-1.4-1.1-1.4-1.7c-1.4-10.4-2.6-20.7-4-32.1
	c2.6,0.5,4.6,0.6,6.3,1.2c13.4,4.7,26.6,9.9,40,14.2c8.6,2.8,17.7,4.4,26.5,6.5c1.8,0.4,2.6,1.4,3.2,3.1c3.4,9.2,6.7,18.4,10.4,27.4
	C635.7,316.5,638.2,319.6,640.6,323.7z M565.8,294.1c0.4,0,0.8-0.1,1.1-0.1c0.3-0.8,0.9-1.7,0.7-2.4c-1.4-5.7-3-11.4-4.7-17
	c-0.3-0.9-1.7-1.4-2.6-2c-0.2,1-0.8,2.1-0.6,2.9c1.1,4.9,2.4,9.8,3.8,14.6C564,291.6,565.1,292.8,565.8,294.1z M575.2,280.9
	c-0.2,0.1-0.5,0.2-0.7,0.2c1.2,4,2.3,8.1,3.8,12c0.3,0.9,1.9,1.3,3,1.9c0.1-1.1,0.4-2.2,0.2-3.3c-0.7-3.8-1.6-7.6-2.3-11.3
	c-0.2-0.8,0.1-1.8-0.2-2.5c-0.4-1-1.2-1.8-1.8-2.7c-0.6,0.8-1.3,1.6-1.6,2.6C575.1,278.8,575.3,279.9,575.2,280.9z M587.5,284.9
	c1.3,3.4,2.4,6.7,3.9,9.8c0.4,0.8,2,0.9,3,1.3c0.2-1,0.7-2.2,0.5-3.1c-0.9-3-2.1-5.9-3.4-8.8c-0.4-0.8-1.5-1.3-2.3-1.9
	C588.8,283,588.3,283.8,587.5,284.9z M619.2,306.9c0.5-0.4,1.1-0.7,1.6-1.1c-0.1-0.9-0.1-1.9-0.4-2.8c-1.2-3.2-2.3-6.4-3.7-9.6
	c-0.4-0.9-1.6-1.5-2.4-2.3c-0.3,1.1-1.1,2.4-0.8,3.3c1,3.1,2.3,6,3.6,9C617.7,304.7,618.5,305.8,619.2,306.9z M602.1,283.8
	c-3.6,4-1.3,13.7,3.6,15.1C606.3,293.5,603.2,289.2,602.1,283.8z"/>
<path fill-rule="evenodd" clip-rule="evenodd" fill="#FFFFFF" d="M725.4,535.9c2.7,1.3,5.9,2.9,9,4.3c2.9,1.3,4.6,3.3,5.5,6.4
	c1.3,4.1,3,8,4.5,12c1.5,4.1,0.1,5.6-4.1,4.9c-13.2-2.1-24.5-8.2-34.6-16.6c-3-2.5-2.8-4.3,0.7-6c2-1,4.4-1.2,6.6-1.8
	c3.2-0.9,6.3-1.8,9.5-2.7C723.3,536.2,724,536.1,725.4,535.9z"/>
<path fill-rule="evenodd" clip-rule="evenodd" fill="#C6AC7D" d="M531.3,608.8c-0.5-1.5-0.9-2.5-1.1-3.6
	c-2.5-11.1-10.9-15.3-21-14.6c-5.2,0.3-9.1,2.6-10.7,7.6c-2.2,6.8-3.9,13.7-5.8,20.5c-0.5,1.7-1.3,3.3-2.1,5.4
	c-1.8-10.1-4-19.6-4.8-29.1c-0.4-4.6-2.5-8-4.2-11.8c-3-6.9-6.3-13.6-9.5-20.4c-3.8-8.1-9.4-14.4-17.9-17.9
	c-7.2-2.9-14.5-5.8-21.4-9.4c-3.6-1.9-6.4-5.2-9.4-8.1c-0.3-0.2,0.6-2.1,1.3-2.8c1.3-1.2,2.9-2.2,4.6-2.8c1.6-0.6,3.5-1,5.2-0.7
	c9.2,1.8,18.4,3.1,27.8,2.4c4.6-0.4,9.2-1.2,13.8-2.1c3.8-0.7,4.9-0.2,5.4,3.5c1.5,9.9,2.9,19.7,4.5,29.6c0.9,5.5,3.3,10.5,6.6,15
	c4.8,6.5,10.8,11.2,19.2,12c7.7,0.7,15.3,1.8,22.9,2.6c2.5,0.2,5.2-0.5,7.7-0.1c1.8,0.2,3.9,1.1,5,2.5c0.6,0.8,0,3.4-0.9,4.5
	c-4.2,5.4-8.7,10.7-13.2,15.9C532.7,607.5,532.1,608,531.3,608.8z M474.3,532.5c0.8-0.9,2.3-2,2.2-2.7c-0.2-1.2-1.6-2.1-2.4-3.2
	c-1,0.9-2.7,1.6-3,2.7C470.5,531,471.9,532,474.3,532.5z"/>
<path fill-rule="evenodd" clip-rule="evenodd" fill="#FFFFFF" d="M668.4,92.5c0.1,3.8-1.5,7.2-4.3,10.2c-1.6,1.8-3.4,2.6-5.8,1.5
	c-0.8-0.4-2.3-0.4-2.8,0.1c-0.5,0.5-0.2,1.9,0,2.9c0.2,0.9,0.7,1.8,1.3,2.5c2.9,4,3,8.3,1.7,12.8c-1.3,4.5-6,8.1-10.6,7.9
	c-1.1-0.1-2.6-0.7-3-1.6c-1.2-2.2-2.4-1.9-4.2-0.8c-3.6,2.3-7.2,4.7-11.1,6.5c-3,1.4-6.4,2.3-9.8,2.7c-4.4,0.5-7.6-2.2-8.8-6.5
	c-1.4-4.8-1.4-4.5-6.2-4.5c-3.3,0-6.6-0.7-9.8-1.4c-1.2-0.3-2.5-1.3-3-2.4c-4.8-9.6-2.9-21.5,9.2-24.9c1.5-0.4,3-0.3,4.5-0.7
	c0.7-0.2,1.3-0.8,2-1.2c-0.5-0.7-0.9-1.7-1.6-2.1c-0.9-0.4-2-0.5-3-0.4c-1.2,0.1-2.5,0.3-3.6,0.7c-4.4,1.6-6.6-0.2-5-5.2
	c1.2-3.9,2.6-7.8,4.7-11.2c4.3-6.9,14-9,20-4.8c1.4,1,2.3,2.7,3.7,3.9c0.8,0.7,2.2,1.3,3.1,1.1c0.7-0.2,1.7-1.7,1.6-2.5
	c-0.1-2.7,1.1-4.5,3-6.2c3.9-3.4,8.4-4.8,13.5-4.2c4.2,0.5,5.6,2.1,5.5,6.4c-0.1,4.4,0.1,4.6,4.2,3.1c3.4-1.3,6.2-0.2,8.5,2.3
	C666.2,81,668.3,86.1,668.4,92.5z"/>
<path fill-rule="evenodd" clip-rule="evenodd" fill="#FFFFFF" d="M703.7,74.4c1,1.6,1.4,3,2.3,3.4c7,3.3,9.9,9.7,12.3,16.4
	c2,5.3-4.3,13.7-10,13.2c-0.9-0.1-1.9-0.7-2.7-1.3c-2.7-2-3.9-1.7-4.8,1.6c-0.7,2.4-1.2,4.8-2,7.1c-1.7,5.2-5.2,7.1-10.7,6.9
	c-9-0.3-16.2-4.8-23.4-9.2c-1.8-1.1-2-3.5-0.5-5.2c1.3-1.5,2.7-2.9,4.2-4.3c3.6-3.5,5.3-7.7,4.6-12.7c-1.2-9.1-4.7-16.8-13.5-21.2
	c-2.6-1.3-4.6-6.1-4-9c0.8-3.8,2.6-6.9,5.7-9.3c5.1-4,10.6-7.1,17.4-7c1.2,0,2.5,0.3,3.6,0.6c1.8,0.6,2.1,1.8,1.1,3.3
	c-0.7,1-1.6,2-2.1,3.1c-0.4,0.8-0.3,1.9-0.4,2.8c0.9,0,2,0.3,2.7,0c5-2.3,10.2-3.2,15.6-1.9c8,1.8,14.7,12.2,13.2,20.3
	c-0.3,1.7-1,2.4-2.8,2.2C707.9,74.3,706.3,74.4,703.7,74.4z"/>
<path fill-rule="evenodd" clip-rule="evenodd" fill="#FFFFFF" d="M893,338.5c0,6.5,0,13,0,19.4c0,1.3,0.1,2.8-0.5,3.9
	c-0.5,0.9-2.1,2-2.9,1.8c-17.6-5.2-35.6-9-52.2-17.2c-3.4-1.7-6.7-3.6-10.1-5.3c-4.4-2.2-6.4-5.9-6.3-10.7
	c0.2-8.4,0.4-16.7,0.6-25.1c0-0.7,0-1.3,0.1-2c0.4-4.3,1.7-7.6,6.1-10c8.4-4.7,16.3-10.4,24.7-15.2c5.2-3.1,10.9-5.5,16.4-8.1
	c1.9-0.9,2.8,0.6,3.5,2c2.1,4.6,4,9.3,6.2,13.8c4,8,8,16,12.2,23.9c1.8,3.4,3.1,6.7,3,10.5c-0.1,6.1,0,12.2,0,18.3
	C893.5,338.5,893.3,338.5,893,338.5z M845,318.8c0.2,1.9,0.3,4,0.6,6c0.1,0.8,0.7,1.8,1.4,2.2c4.8,2.8,9.6,5.5,14.5,8.1
	c2.6,1.4,4,0.5,4.2-2.4c0.4-6.1,0.8-12.2,1.1-18.2c0.2-3.4-1-5.1-4.4-5.3c-4.4-0.3-8.8-0.3-13.1-0.3c-2.1,0-3.3,1.4-3.6,3.4
	C845.3,314.4,845.2,316.5,845,318.8z"/>
<path fill-rule="evenodd" clip-rule="evenodd" fill="#FFFFFF" d="M875.8,269.7c4.2-2.6,7.8-1.5,11.2-1.1c13,1.5,26,3.4,39.1,4.9
	c2.9,0.3,4.9,1.3,6.3,4c2.3,4.6,4.9,9,7.4,13.5c0.9,1.7,0.7,3.1-0.9,3.9c-3.2,1.8-6.4,3.6-9.7,5c-8.7,3.6-17.6,7-26.3,10.6
	c-3.9,1.6-5.6,1.7-7.8-1.9c-4.2-6.8-8.1-13.8-11.6-20.9C880.4,281.8,878.3,275.7,875.8,269.7z M885.4,274.3
	c-0.2,0.1-0.4,0.3-0.6,0.4c0,0.5-0.3,1.2-0.1,1.6c3.1,7.1,6.2,14.2,9.3,21.3c0.1,0.3,0.5,0.7,0.8,0.8c0.9,0.2,1.9,0.3,2.8,0.5
	c-0.1-0.9,0.2-2-0.2-2.7c-1.2-2.2-2.9-4.2-4-6.5c-2.1-4.2-3.8-8.7-5.8-12.9C887,275.8,886.1,275.1,885.4,274.3z M922.1,294.1
	c-2.5-4.1-5-8.3-7.6-12.4c-0.2-0.3-1.1-0.4-1.5-0.2c-0.4,0.2-0.8,1-0.7,1.4c1.6,4.6,3.9,8.9,7.6,12.2c0.3,0.3,0.9,0.4,1.3,0.3
	C921.6,295.3,921.7,294.7,922.1,294.1z M901.8,295.6c0.3-4.8-3.1-8.2-4.6-12.3c-0.1-0.3-1-0.7-1-0.6c-0.4,0.4-1,1.1-0.9,1.5
	c0.9,5.2,3.6,9.5,7.3,13.1c0.9,0.9,1.8,1.7,2.8,2.5C906.6,298.5,905.6,297.2,901.8,295.6z M905.4,280.8c-1.7,3.2,3.4,12.2,8,14.4
	C911.9,289.7,908.9,285.3,905.4,280.8z M930.5,292.3c0.7-3.3-3.3-10.3-7.3-12c0.1,1.5-0.1,3,0.4,3.8c2,2.8,4.2,5.5,6.4,8.2
	C930,292.4,930.2,292.3,930.5,292.3z"/>
<path fill-rule="evenodd" clip-rule="evenodd" fill="#FFFFFF" d="M898.3,361.7c-0.4-1-1.1-1.9-1.1-2.9c0-11.2,0.1-22.4,0.2-33.6
	c0-0.8,0.6-1.8,1.3-2.4c3.9-3.8,7.5-7.9,11.9-11c4-2.8,8.8-4.4,13.3-6.4c4.9-2.2,9.9-4.3,14.9-6.5c0.2,0.2,0.6,0.4,0.6,0.6
	c0.6,5.4,1.7,10.9-2.6,15.4c-13.4,14.1-25.4,29.4-36.4,45.4c-0.4,0.6-0.8,1.2-1.3,1.8C898.9,361.8,898.6,361.8,898.3,361.7z"/>
<path fill-rule="evenodd" clip-rule="evenodd" fill="#FFFFFF" d="M608.7,572.6c-5,0.9-3.5,5.8-5.2,9.4c-4.7-1.4-9.8-2.5-14.4-4.5
	c-1.9-0.8-3.9-3.3-4.2-5.3c-1.5-10,1.3-18.5,9.8-24.5c3.2-2.3,6.8-3.2,10.8-2.9c2.1,0.2,4.3,0,6.4,0c0.1-0.3,0.3-0.5,0.4-0.8
	c-1.2-0.9-2.2-2-3.5-2.8c-3.5-2-4-3.2-2.7-7c2.4-6.9,7-11.9,13.7-14.9c4.5-2,8.9-1.7,13.1,1c2.4,1.6,2.7,3.1,1,5.4
	c-0.9,1.2-2,2.4-2.7,3.7c-0.4,0.7,0,1.8,0,2.7c0.9-0.1,1.9,0.1,2.6-0.3c2.2-1.5,4.1-3.4,6.3-4.9c3.3-2.2,6.6-4.4,10.2-5.9
	c4-1.7,8.4,0.1,10.7,3.8c2.7,4.3,5,8.7,1.7,13.8c-0.4,0.6-0.3,1.5-0.4,2.2c-0.3,2.1-0.5,4.3-0.7,6.4c-0.1,1-0.2,2-0.3,3
	c0.3,0.1,0.7,0.2,1,0.4c1.2-1.7,2.4-3.3,3.5-5c1.1-1.6,2.4-1.9,4.2-1.3c3,1.1,5.3,3,6.4,6.1c2.2,6.3,2.5,12.7,0.4,19.1
	c-1.2,3.8-3.7,6.5-7.6,7.4c-3.1,0.7-6.2,1.2-9.3,1.6c-2.6,0.3-4.8-0.5-6.8-2.3c-1-0.9-2.4-1.3-3.6-1.9c-0.3,0.2-0.5,0.4-0.8,0.7
	c0.6,1.3,0.9,2.7,1.8,3.8c2.6,3.4,3.3,7.2,2.6,11.3c-0.6,3.8-4,6.2-7.7,5.2c-3.7-1-7.5-2.2-11-3.8c-2.3-1-4-0.7-6.1,0.4
	c-3.6,1.8-7.4,3.6-11.2,4.7c-4.8,1.4-6.9-0.1-8.7-4.8c-1.9-5.2-2.2-10.4,0-15.6c0.4-0.9,0.6-1.9,0.9-2.9
	C609.4,573,609,572.8,608.7,572.6z"/>
<path fill-rule="evenodd" clip-rule="evenodd" fill="#0B8236" d="M820.9,253.4c0.6,0.7,0.8,1.1,1.1,1.3c1.7,1.2,3.9,2,3.3,4.7
	c-0.7,2.9-2,5.7-5.2,6.3c-5.4,0.9-11.1,2.6-16.1-0.6c-4.7-2.9-10.4-5.2-10.5-12.2c0-0.3-0.4-0.6-0.6-0.9c-1.9,2.3-1.6,3.9,1.3,5.8
	c-0.5,1.6-0.5,3.8-1.5,4.8c-3.1,3.1-10.3,1.5-13.8-2.6c-4.3-5-5.2-10.9-3.9-17.2c1-5.3,3.3-10.1,6.9-14.2c0.8-0.9,1.5-1.9,2.9-3.6
	c-1.7,0-2.6-0.2-3.4,0.1c-1,0.4-2,1.2-2.9,1.8c-2.3,1.5-4.3,1.1-6.1-0.8c-4.7-5.2-5.2-10.4-1.5-16.5c3.4-5.5,8.1-9.6,14-12.2
	c4.6-2.1,6.2-1.3,7,3.6c0.1,0.4,0.1,0.7,0.4,1.9c1.1-1.2,2.1-1.9,2.7-2.8c2.5-3.6,4.8-7.4,7.3-10.9c2.9-4,6.8-7.2,12-6.2
	c5.7,1.1,10.2,4.7,12.6,10.2c1.1,2.6,0.8,5-1.6,6.9c-0.7,0.6-0.9,1.8-1.4,2.8c1-0.1,2.2,0.2,3-0.2c4.1-2.2,8.4-1.5,12.5-0.4
	c2.9,0.8,4.9,6.7,3.6,10.6c-1.5,4.4-3.7,8.6-5.4,12.9c-0.5,1.3-2.5,2.8-0.6,4.1c0.6,0.4,2.4-1.3,3.7-2.1c1-0.6,2.1-1.2,3.1-1.8
	c0.6,1.2,1.6,2.4,1.8,3.6c0.7,4.8-0.3,9.3-2.5,13.6c-2.9,5.7-8.1,7.4-13.9,8.3c-1.7,0.3-3.4,0.2-5.1,0.6
	C823.1,252.1,822.1,252.8,820.9,253.4z"/>
<path fill-rule="evenodd" clip-rule="evenodd" d="M59.1,146.2c-1.2-0.6-2.7-1-3.6-1.8c-6.3-6.1-9.3-13.3-7.6-22.2
	c0.4-2.2,1.5-3.4,4.4-3c-2.7,10.1,1.7,18.4,7.3,26.3C59.5,145.7,59.3,145.9,59.1,146.2z"/>
<path fill-rule="evenodd" clip-rule="evenodd" d="M66.3,140.3c-4.8-1.4-7.5-7.6-5.2-11.5c0.3-0.5,1-0.9,1.5-1c0.3,0,0.9,0.6,1,1.1
	C64.5,132.7,65.4,136.4,66.3,140.3z"/>
<path fill-rule="evenodd" clip-rule="evenodd" d="M229.7,219.9c-0.2,0.7-0.3,1.5-0.8,2c-3.4,4.2-6.6,8.6-10.5,12.3
	c-1.7,1.6-4.9,1.6-7.4,2c-0.5,0.1-1.2-0.9-1.8-1.4c0.6-0.5,1.1-1.4,1.7-1.4c3.2-0.1,5.7-1.6,7.8-3.8c2.5-2.6,4.8-5.4,7.3-8
	c0.9-0.9,1.9-1.6,2.9-2.4C229.2,219.4,229.5,219.7,229.7,219.9z"/>
<path fill-rule="evenodd" clip-rule="evenodd" d="M209.4,221.7c1.2-1.6,1.8-2.9,2.8-3.7c1.8-1.6,3.7-3,5.6-4.3
	c0.5-0.3,1.6-0.5,1.9-0.2c0.4,0.3,0.6,1.6,0.3,1.9C217.3,218.4,214.6,221.3,209.4,221.7z"/>
<path fill-rule="evenodd" clip-rule="evenodd" d="M106.4,518.3c0.3-4.4,0.5-7.4,0.7-10.5c0.3-3.1,1.5-4.2,4.6-3.9
	c4.2,0.4,8.3,0.7,12.5,1.3c3.4,0.5,5.9,2.6,7.1,5.9c1.1,3.2,2.1,6.5,2.9,9.8c0.7,2.8-0.4,4.4-3.2,5c-3.4,0.7-6.8,1-10.1,1.7
	c-2.7,0.6-5.3,1.4-7.9,2.3c-3.3,1.1-5.5,0.1-6-3.4C106.5,523.4,106.5,520.1,106.4,518.3z M113.7,516.6c0.2,1,0,2.9,0.8,4.3
	c0.7,1.3,2.4,2.9,3.7,2.9c3.2,0,6.4-0.8,9.5-1.5c0.7-0.1,1.5-1,1.7-1.6c1.4-5.8-4.6-12.9-10.6-12.5c-2.5,0.2-4.4,1.1-4.5,4
	C114.1,513.4,113.9,514.6,113.7,516.6z"/>
<path fill-rule="evenodd" clip-rule="evenodd" d="M120.5,549.2c1.3,0,3.3,0.1,5.3,0c3.5-0.1,6.1,1.5,7,4.7c1.1,4.2,1.8,8.5,2.2,12.9
	c0.2,2.3-2.9,4.2-5.5,3.5c-5.7-1.5-11.3-1.4-16.9,0.1c-3.4,0.9-6.4-2.8-6-6.9c0.3-2.7,0.6-5.5,1-8.2c0.6-4,2.2-5.4,6.2-5.6
	C115.8,549.5,117.8,549.4,120.5,549.2z M113.3,564.9c5.4,0.3,10.4,0.7,15.3,0.7c0.7,0,2.1-1.7,2-2.4c-0.4-2.9-1.1-5.8-2.1-8.5
	c-0.4-0.9-2.1-1.9-3.2-1.9c-3.1-0.1-6.3,0.3-9.4,0.6c-0.5,0.1-1.2,0.7-1.3,1.2C114.1,558,113.7,561.4,113.3,564.9z"/>
<path fill-rule="evenodd" clip-rule="evenodd" d="M64.6,433.4c0,1.3,0.2,2.5,0,3.6c-2.4,11.9-4.8,23.8-7.3,35.7
	c-0.2,1.1-0.6,2.2-1,3.3c-0.4,0-0.8-0.1-1.1-0.1c-0.1-1.7-0.6-3.4-0.4-5c1.8-11.2,3.7-22.3,5.7-33.4
	C61.1,434.9,61.8,434.3,64.6,433.4z"/>
<path fill-rule="evenodd" clip-rule="evenodd" d="M69.9,446.6c-0.2,3.2-0.3,6.2-0.6,9.3c-0.1,1.6-0.4,3.2-0.8,4.8
	c-0.2,0.6-0.9,1.3-1.5,1.4c-0.4,0.1-1.2-0.5-1.5-1c-1.5-2.7,0.4-12.3,2.8-14.2C68.5,446.6,68.8,446.7,69.9,446.6z"/>
<path fill-rule="evenodd" clip-rule="evenodd" d="M252.1,490.4c-0.6-0.9-1.6-1.7-1.9-2.7c-2.6-8.2-5.1-16.5-7.6-24.7
	c-0.7-2.3-1.4-4.5-2.1-6.7c-0.2-0.7-0.5-1.5-0.5-2.2c0.1-0.6,0.7-1.2,1-1.8c0.6,0.4,1.4,0.7,1.6,1.2c1,2.4,2,4.7,2.7,7.2
	c2.3,8.4,4.5,16.9,6.8,25.3c0.3,1.3,0.6,2.5,1,3.8C252.8,489.9,252.4,490.1,252.1,490.4z"/>
<path fill-rule="evenodd" clip-rule="evenodd" d="M241.2,489.4c-3.2-2.4-6.3-12.5-5.2-16.8C238.3,473.6,242.1,485.9,241.2,489.4z"/>
<path fill-rule="evenodd" clip-rule="evenodd" d="M170.4,493.2c-3,1.8-4.6,1.1-5.5-1.5c-3.1-9.7-6.3-19.3-9.2-29.1
	c-1.8-6.1-3.1-12.3-4.4-18.6c-0.2-0.9,0.7-2,1-3c0.7,0.9,1.8,1.7,2,2.6c3,14.5,6.8,28.7,12.9,42.2
	C168.2,488.3,169.4,490.8,170.4,493.2z"/>
<path fill-rule="evenodd" clip-rule="evenodd" d="M163.7,446.9c3.1,0.3,3.7,2.3,4.2,4.2c1.5,6.2,2.7,12.5,4.5,18.6
	c2.3,8,4.7,16.1,9.3,23.2c0.5,0.8,0.3,2.9-0.2,3.1c-1.6,0.8-2.9-0.3-3.6-1.9c-2.3-5.6-4.9-11.2-6.7-17c-2.7-8.5-5-17.2-7.3-25.8
	C163.6,450,163.8,448.6,163.7,446.9z"/>
<path fill-rule="evenodd" clip-rule="evenodd" d="M178.4,452c0.6,1,1.4,1.9,1.7,3c2,6.2,3.7,12.4,5.7,18.5c2,6.1,4.3,12.1,6.5,18.2
	c0.5,1.4,1.1,2.8-0.7,3.7c-2,1-2.6-0.5-3-1.8c-2-5.8-4-11.7-5.8-17.5c-2.1-6.5-4-13.1-5.9-19.7c-0.4-1.2,0-2.7,0-4
	C177.3,452.2,177.8,452.1,178.4,452z"/>
<path fill-rule="evenodd" clip-rule="evenodd" d="M191.4,459.6c0.9,0.8,2.3,1.5,2.7,2.6c1.6,5,2.9,10,4.2,15
	c0.8,2.9,1.3,5.9,1.9,8.9c0.2,1,0,2.1,0,3.2c-0.3,0.1-0.7,0.2-1,0.3c-1-2-2.2-3.9-2.8-6c-2.1-7.7-3.9-15.4-5.9-23.2
	C190.8,460.2,191.1,459.9,191.4,459.6z"/>
<path fill-rule="evenodd" clip-rule="evenodd" d="M53.6,339c-2.6-8.7-0.2-23.4,5.4-31.9c0,1.9,0.3,3.1,0,4.2
	c-2.2,8.1-4.7,16.1-4.5,24.6c0,0.6-0.2,1.1-0.3,1.7C54.1,338,53.9,338.4,53.6,339z"/>
<path fill-rule="evenodd" clip-rule="evenodd" d="M62.4,323c0,3.7,0,6.8,0,10.2C58.9,329.5,58.9,326.9,62.4,323z"/>
<path fill-rule="evenodd" clip-rule="evenodd" d="M61.3,378.2c3-0.8,5.5-1.4,7.9-2.1c1.9-0.6,3.2-0.4,3.6,1.8c0.2,1.5,0.5,3,0.5,4.5
	c0.4,6.5,0.7,13,0.9,19.5c0,0.9-0.9,2.4-1.6,2.5c-2.4,0.5-4.8,0.6-7.3,0.6c-0.4,0-1.1-0.7-1.2-1.3c-0.7-2.4-1.5-4.9-1.8-7.4
	c-0.6-5.1-0.9-10.2-1.2-15.4C61.1,379.8,61.3,378.6,61.3,378.2z M69.5,382.9c-3.3,0.2-4.4,1.4-4.1,4.1c0.5,5,0.8,10,1.2,15
	c1.2,0,2.2,0,2.9,0C69.5,395.6,69.5,389.3,69.5,382.9z"/>
<path fill-rule="evenodd" clip-rule="evenodd" d="M114.9,402.7c0.6-3.9,0.9-7,1.6-10.1c0.2-0.8,1.6-1.2,2.5-1.8
	c0.4,0.9,1.2,1.8,1.2,2.6C120,396.9,119.1,400.1,114.9,402.7z"/>
<path fill-rule="evenodd" clip-rule="evenodd" d="M35.8,57.3c-2.5-1.4-5.4-2.8-4.6-6.1c0.3-1.4,2.4-2.9,4-3.2c1.1-0.3,3,1,3.8,2.2
	C40.2,51.8,38.8,54.8,35.8,57.3z"/>
<path fill-rule="evenodd" clip-rule="evenodd" d="M254.7,173c-0.4-2.4-1.3-4.9,1.1-6.5c0.9-0.6,3.2-0.1,4,0.7c0.9,0.9,1.5,3.1,1,4.2
	C259.7,174,257.1,173.3,254.7,173z"/>
<path fill-rule="evenodd" clip-rule="evenodd" d="M488.2,272.3c0.3-3.5,0.5-7.8,1.2-12c1.1-7.1,6.1-11,11.9-14
	c2.3-1.2,6.1,0.3,7.5,3.2c3,6,5.5,12.3,8,18.6c1,2.5-0.4,4.7-2.7,5.6c-2.2,0.9-4.7,1.4-7.1,1.5c-4.2,0.1-8.3,0.4-12.2,2.4
	C490.8,279.6,487.9,277.4,488.2,272.3z M494.8,266.2c0,3.8,1.3,6.1,3.1,6c3.8-0.3,7.6-0.6,11.3-1.1c3-0.4,4.2-2.1,3.1-5
	c-1.5-3.9-3.1-7.7-4.9-11.5c-0.5-1.1-1.5-2-2.4-2.7c-0.4-0.3-1.6-0.4-2-0.1C498.9,256,495.8,260.9,494.8,266.2z"/>
<path fill-rule="evenodd" clip-rule="evenodd" d="M466.8,308.6c2.9,0,3.7,1,3.8,4.1c0.3,9.7,0.5,19.4,0.8,29.1
	c0.1,2.3,0.6,4.6,0.6,6.8c0,1.4-0.8,2.8-1.2,4.2c-0.5-0.1-1-0.1-1.5-0.2C468.5,338.1,467.7,323.5,466.8,308.6z"/>
<path fill-rule="evenodd" clip-rule="evenodd" d="M480.5,343.5c-0.5-0.6-1.4-1.2-1.4-1.8c-0.2-7.1-0.2-14.2-0.2-21.3
	c0-0.6,0.9-1.1,1.4-1.7c0.3,0.6,0.9,1.2,0.9,1.8c0.1,7.5,0,15,0,22.5C481.1,343.1,480.8,343.3,480.5,343.5z"/>
<path fill-rule="evenodd" clip-rule="evenodd" d="M597.7,352.7c-5.2,0-5.3,0-6.5-5.1c-0.9-4-1.4-8-1.9-12.1
	c-0.3-2.9,2.3-6.6,5.4-8.1c3.2-1.5,7-1.1,9.5,1.5c4.8,4.9,7.8,10.8,9,17.5c0.1,0.8-0.7,2.1-1.4,2.7
	C607.7,352.5,602.7,352.8,597.7,352.7z M600.1,348.9c0.1,0,0.8,0,1.4-0.1c1.5-0.3,3-0.5,4.5-0.9c2.6-0.7,3.7-2.5,2.6-5
	c-1.3-3-2.8-5.9-4.5-8.6c-1.6-2.5-5.1-3.8-7.2-2.8c-2.9,1.3-2.9,4-2.9,6.6c0,2,0.3,4,0.4,6C594.7,348.7,594.9,348.9,600.1,348.9z"/>
<path fill-rule="evenodd" clip-rule="evenodd" d="M505.6,174.3c-0.4,1-0.6,1.7-1,2.4c-8.3,13.7-16.4,27.5-26.7,39.8
	c-0.8,1-2.3,1.4-3.5,2c0.3-1.3,0.1-3,0.8-4c9.9-12.7,18.6-26.2,26.2-40.4c0.4-0.8,1.6-1.5,2.5-1.6
	C504.4,172.3,505,173.6,505.6,174.3z"/>
<path fill-rule="evenodd" clip-rule="evenodd" d="M494.1,211.8c0.4-1.8,0.7-3.7,1.3-5.5c1.8-5,3.6-10,5.7-14.9
	c0.5-1.2,2.3-1.8,3.4-2.7c-0.1,1.3,0,2.7-0.5,3.9c-2,5.2-4.1,10.4-6.3,15.6c-0.6,1.5-1.8,2.7-2.8,4.1
	C494.7,212.1,494.4,212,494.1,211.8z"/>
<path fill-rule="evenodd" clip-rule="evenodd" d="M510.2,204.5c-1.5-4,1.2-10.4,4.9-11.7C515.9,197.7,512.7,200.7,510.2,204.5z"/>
<path fill-rule="evenodd" clip-rule="evenodd" d="M565.8,294.1c-0.8-1.3-1.8-2.6-2.3-4c-1.4-4.8-2.6-9.7-3.8-14.6
	c-0.2-0.9,0.4-2,0.6-2.9c0.9,0.7,2.3,1.2,2.6,2c1.7,5.6,3.2,11.3,4.7,17c0.2,0.7-0.5,1.6-0.7,2.4
	C566.6,294.1,566.2,294.1,565.8,294.1z"/>
<path fill-rule="evenodd" clip-rule="evenodd" d="M575.2,280.9c0.1-1,0-2.1,0.3-3.1c0.3-0.9,1.1-1.7,1.6-2.6
	c0.6,0.9,1.4,1.7,1.8,2.7c0.3,0.7,0,1.7,0.2,2.5c0.8,3.8,1.6,7.5,2.3,11.3c0.2,1.1-0.1,2.2-0.2,3.3c-1-0.6-2.6-1-3-1.9
	c-1.5-3.9-2.6-8-3.8-12C574.7,281.1,574.9,281,575.2,280.9z"/>
<path fill-rule="evenodd" clip-rule="evenodd" d="M587.5,284.9c0.8-1.2,1.3-1.9,1.8-2.7c0.8,0.6,1.9,1.1,2.3,1.9
	c1.3,2.9,2.4,5.8,3.4,8.8c0.3,0.9-0.3,2-0.5,3.1c-1-0.4-2.7-0.6-3-1.3C590,291.6,588.8,288.3,587.5,284.9z"/>
<path fill-rule="evenodd" clip-rule="evenodd" d="M619.2,306.9c-0.7-1.1-1.5-2.2-2.1-3.4c-1.3-2.9-2.6-5.9-3.6-9
	c-0.3-0.9,0.5-2.2,0.8-3.3c0.8,0.8,2,1.4,2.4,2.3c1.4,3.1,2.5,6.3,3.7,9.6c0.3,0.9,0.3,1.8,0.4,2.8
	C620.3,306.2,619.8,306.5,619.2,306.9z"/>
<path fill-rule="evenodd" clip-rule="evenodd" d="M602.1,283.8c1,5.3,4.1,9.6,3.6,15.1C600.9,297.6,598.6,287.9,602.1,283.8z"/>
<path fill-rule="evenodd" clip-rule="evenodd" d="M474.3,532.5c-2.4-0.5-3.8-1.5-3.3-3.2c0.3-1.1,2-1.8,3-2.7c0.9,1.1,2.2,2,2.4,3.2
	C476.6,530.5,475.1,531.6,474.3,532.5z"/>
<path fill-rule="evenodd" clip-rule="evenodd" d="M845,318.8c0.2-2.3,0.3-4.4,0.6-6.5c0.3-2,1.5-3.4,3.6-3.4c4.4,0,8.8,0,13.1,0.3
	c3.4,0.2,4.6,1.9,4.4,5.3c-0.3,6.1-0.7,12.2-1.1,18.2c-0.2,2.9-1.6,3.8-4.2,2.4c-4.9-2.6-9.7-5.3-14.5-8.1c-0.7-0.4-1.2-1.4-1.4-2.2
	C845.3,322.8,845.2,320.7,845,318.8z M852.6,321.2c-0.2,4.3,2.6,5.4,5.1,6.8c2,1.2,3.1,0.5,3.5-1.8c0.5-3.1,0.8-6.2,1.3-9.3
	c0.5-3.5-0.2-4.6-3.1-5.3c-2.6-0.6-4.9,0.8-5.6,3.6C853.2,317.3,852.9,319.6,852.6,321.2z"/>
<path fill-rule="evenodd" clip-rule="evenodd" d="M885.4,274.3c0.7,0.8,1.6,1.5,2.1,2.4c2,4.3,3.8,8.7,5.8,12.9
	c1.1,2.3,2.8,4.3,4,6.5c0.4,0.7,0.2,1.8,0.2,2.7c-0.9-0.1-1.9-0.2-2.8-0.5c-0.3-0.1-0.6-0.5-0.8-0.8c-3.1-7.1-6.3-14.2-9.3-21.3
	c-0.2-0.4,0.1-1.1,0.1-1.6C885,274.6,885.2,274.4,885.4,274.3z"/>
<path fill-rule="evenodd" clip-rule="evenodd" d="M922.1,294.1c-0.4,0.6-0.6,1.2-0.9,1.3c-0.4,0.1-1,0-1.3-0.3
	c-3.7-3.3-6-7.6-7.6-12.2c-0.1-0.4,0.3-1.2,0.7-1.4c0.4-0.2,1.3-0.1,1.5,0.2C917.1,285.8,919.6,290,922.1,294.1z"/>
<path fill-rule="evenodd" clip-rule="evenodd" d="M901.8,295.6c3.8,1.6,4.8,2.9,3.5,4.2c-0.9-0.8-1.9-1.6-2.8-2.5
	c-3.7-3.6-6.5-7.9-7.3-13.1c-0.1-0.5,0.5-1.1,0.9-1.5c0.1-0.1,0.9,0.3,1,0.6C898.8,287.4,902.1,290.8,901.8,295.6z"/>
<path fill-rule="evenodd" clip-rule="evenodd" d="M905.4,280.8c3.6,4.4,6.5,8.9,8,14.4C908.8,293.1,903.6,284,905.4,280.8z"/>
<path fill-rule="evenodd" clip-rule="evenodd" d="M930.5,292.3c-0.4,0-0.5,0.1-0.5,0c-2.2-2.7-4.4-5.3-6.4-8.2
	c-0.6-0.9-0.3-2.3-0.4-3.8C927.2,282,931.2,289,930.5,292.3z"/>
<path fill-rule="evenodd" clip-rule="evenodd" fill="#FFFFFF" d="M113.7,516.6c0.2-2,0.4-3.2,0.5-4.4c0.1-2.9,2.1-3.9,4.5-4
	c6-0.4,12,6.6,10.6,12.5c-0.2,0.7-1,1.5-1.7,1.6c-3.1,0.7-6.3,1.5-9.5,1.5c-1.2,0-2.9-1.6-3.7-2.9
	C113.7,519.5,113.9,517.6,113.7,516.6z"/>
<path fill-rule="evenodd" clip-rule="evenodd" fill="#FFFFFF" d="M113.3,564.9c0.4-3.5,0.8-6.9,1.3-10.3c0.1-0.5,0.8-1.1,1.3-1.2
	c3.1-0.3,6.2-0.7,9.4-0.6c1.1,0,2.8,1,3.2,1.9c1,2.7,1.7,5.6,2.1,8.5c0.1,0.7-1.3,2.4-2,2.4C123.6,565.5,118.7,565.2,113.3,564.9z"
	/>
<path fill-rule="evenodd" clip-rule="evenodd" fill="#FFFFFF" d="M69.5,382.9c0,6.4,0,12.7,0,19.1c-0.7,0-1.7,0-2.9,0
	c-0.4-5-0.8-10-1.2-15C65.1,384.3,66.2,383.1,69.5,382.9z"/>
<path fill-rule="evenodd" clip-rule="evenodd" fill="#FFFFFF" d="M494.8,266.2c1-5.3,4.1-10.2,8.3-14.4c0.3-0.3,1.5-0.3,2,0.1
	c0.9,0.7,1.9,1.7,2.4,2.7c1.8,3.8,3.4,7.6,4.9,11.5c1.1,2.9-0.1,4.6-3.1,5c-3.8,0.5-7.5,0.8-11.3,1.1
	C496.2,272.3,494.8,270,494.8,266.2z"/>
<path fill-rule="evenodd" clip-rule="evenodd" fill="#FFFFFF" d="M600.1,348.9c-5.2,0-5.4-0.2-5.6-4.9c-0.1-2-0.4-4-0.4-6
	c0-2.6,0-5.3,2.9-6.6c2.1-0.9,5.6,0.3,7.2,2.8c1.7,2.7,3.2,5.6,4.5,8.6c1,2.4-0.1,4.3-2.6,5c-1.5,0.4-3,0.6-4.5,0.9
	C600.9,348.9,600.2,348.9,600.1,348.9z"/>
<path fill-rule="evenodd" clip-rule="evenodd" fill="#FFFFFF" d="M852.6,321.2c0.3-1.6,0.6-3.9,1.2-6.1c0.7-2.8,3.1-4.1,5.6-3.6
	c2.9,0.7,3.5,1.8,3.1,5.3c-0.4,3.1-0.8,6.2-1.3,9.3c-0.4,2.4-1.5,3-3.5,1.8C855.2,326.6,852.3,325.5,852.6,321.2z"/>
</svg>
