<?xml version="1.0" encoding="utf-8"?>
<!DOCTYPE svg PUBLIC "-//W3C//DTD SVG 1.1//EN" "http://www.w3.org/Graphics/SVG/1.1/DTD/svg11.dtd">
<svg artist="zl2017" version="1.1" id="zlIcon-anchor" xmlns="http://www.w3.org/2000/svg" xmlns:xlink="http://www.w3.org/1999/xlink" x="0px" y="0px"
	 width="1000px" height="890.4px" viewBox="0 0 1000 890.4" enable-background="new 0 0 1000 890.4" xml:space="preserve">
<path fill-rule="evenodd" clip-rule="evenodd" d="M999.5,489.2c-1.6,22.7-13.8,31-31.3,35.1c-34,7.9-67.9,16.6-101.9,24.8
	c-9,2.1-18.5,6.5-27,5c-51.8-9-100.3,8.2-142.2,31.1c-81.4,44.6-164.3,91.2-193.9,191.2c-11.8,39.8-34.4,75.2-61.4,113.9
	c-38-59.2-77.2-110.2-105.9-168.7c-13-26.5-34.5-50.4-56.6-70.6c-44.7-41-93-78.1-138.9-117.9c-21.7-18.8-43.9-33.1-73.4-38.3
	c-20-3.5-39.7-14.5-56.8-26c-13.3-9-12.5-24-0.8-35.2c54.2-3.6,107.3-7.5,160.4-10.5c38.8-2.2,38.8-1.6,66.6,40.1
	c-16.3,9.1-32.3,18-51.8,28.9c7.6,8.6,13.2,19.4,22.1,24.2c56.4,30.5,103.9,70.6,140.3,123.6c2.4,3.6,7.6,5.2,15.7,10.6
	c12.9-15.8,18-34.2,19.7-54.6c4-48.9,7.8-97.8,13.1-146.4c3.7-34.4,9.7-68.4,15-105c-37.6-6.2-74.1-12.2-106.8-17.6
	c-17.3-23.8-16-43.3-2.7-66.8c14.9,3.4,30.3,7.6,45.8,10.1c23,3.8,46.1,8.3,69.3,9c19.3,0.6,32-27.8,18.8-42
	c-20.7-22.3-43.6-42.5-66.5-64.5c-9.1-62.3-4.8-121,41.4-169.2C504.2-5.9,593-1.8,659.7,82.4c-3.7,52-31.5,90.3-72.1,120.9
	c-13,9.8-27.2,18.4-41.6,26.2c-19.5,10.5-31.2,26.7-41.7,50.2c9.1,4.3,17.4,12,24.1,10.8c38.6-7,71.1,10.7,107.2,19.9
	c-12.9,19.9-58.1,64.5-67.6,65c-29.9,1.6-59.9,1.8-92.7,2.6c-14.2,87.3-28.1,171.8,13.9,258.5c31.7-10,54.7-28.4,74.7-50.3
	c24.7-27.2,55.2-41.8,90.6-49.2c41-8.6,78.6-26.7,122-42.2c-7.9-9.7-10.9-16.1-15.9-19.2c-15-9.1-16.3-20.9-10.5-35.8
	c5.7-14.8,17-24.6,31.6-23.6c18.1,1.2,36.8,5.5,53.4,12.5c17.5,7.3,33.2,17,53.4,12.2c6.5-1.5,14.7-0.8,20.6,2.1
	C939.9,458,970.2,474,999.5,489.2z M421.5,119.9c5.5,59.5,55.6,57.2,93,77.3c28.1-19.1,55.8-36.1,81.3-55.9
	c18.7-14.5,17.3-38.5-0.2-54.6c-10.8-9.9-23.1-14.6-38.5-12.5C510.9,80.6,464.6,86.5,421.5,119.9z"/>
</svg>
