<?xml version="1.0" encoding="utf-8"?>
<!DOCTYPE svg PUBLIC "-//W3C//DTD SVG 1.1//EN" "http://www.w3.org/Graphics/SVG/1.1/DTD/svg11.dtd">
<svg artist="zl2017" version="1.1" id="zlIcon-arrow-left" xmlns="http://www.w3.org/2000/svg" xmlns:xlink="http://www.w3.org/1999/xlink" x="0px" y="0px"
	 width="1000px" height="666px" viewBox="-457.5 -304.6 1000 666" enable-background="new -457.5 -304.6 1000 666"
	 xml:space="preserve">
<path d="M140.7-161.6c89.7-28.6,172.1-55.2,254.7-81c42.6-13.3,85.6-19.1,116.3,19.9c11.2,14.2,19.5,33.3,20.4,50.5
	c4.7,96.4,7,192.9,9.4,289.4c0.8,32.2,0.8,64.5-0.9,96.7c-2.4,44.9-22,60.3-69.9,59.2c-75-1.8-148.7-8.2-217.4-39.3
	c-8.1-3.7-18-4.2-27.1-6.3c-50.8-11.4-55.9-10.1-78.7,31.8c-21.8,40-45.5,78.1-95,101.9C-115,276.6-284.4,190.8-457,103.5
	c8.5-10.1,12.4-18.9,19.5-22.8C-308.3,10.4-202.1-85-95.4-179.6c25.1-22.2,42.8-51.1,64.7-76.4c11.4-13.2,22.5-27.6,37.1-37.1
	c27.5-17.8,47.1-15.4,67.6,9.3c16.6,20.1,29.2,43.2,41.7,65.7C124.9-201.7,131-184,140.7-161.6z"/>
<path fill="#FFFFFF" d="M28.6-260.9c45.5,32.8,61.1,76.4,77.3,119.2c14.3,37.8,20.5,41.4,57.5,20.3c79.2-45,169.1-60.8,258.1-77.2
	c47.7-8.8,63.6,2.2,66,46c6.3,116.3,9.1,232.8,11.6,349.2c0.6,27.7-8.1,32.3-37.3,28.7c-86.5-11-173.2-19.7-256.8-45.6
	c-56.5-17.5-70-10-97.6,37.9c-4.3,7.5-7.2,15.7-10.9,23.4c-21.1,44.4-37.8,51.7-86.1,31.1c-60.7-25.8-119.8-54.8-179.8-81.8
	c-39.9-17.9-81.3-33.3-120.4-52.6c-69.7-34.4-77.1-56.4-18.3-101.3C-189.4-54.1-81.4-153.9,28.6-260.9z"/>
<path d="M-155.6,126c73.2,20.8,129.4,48.4,179.3,98C-26.8,227.4-119.3,177.1-155.6,126z"/>
<path d="M12.3,164.1c-42.3,3.1-59.5-30.4-98.3-50.3C-34.2,112.7-12.6,140.9,12.3,164.1z"/>
</svg>
