<?xml version="1.0" encoding="utf-8"?>
<!DOCTYPE svg PUBLIC "-//W3C//DTD SVG 1.1//EN" "http://www.w3.org/Graphics/SVG/1.1/DTD/svg11.dtd">
<svg artist="zl2017" version="1.1" id="zlIcon-arrow-grow-ne" xmlns="http://www.w3.org/2000/svg" xmlns:xlink="http://www.w3.org/1999/xlink" x="0px" y="0px"
	 width="1000px" height="726.9px" viewBox="0 0 1000 726.9" enable-background="new 0 0 1000 726.9" xml:space="preserve">
<path fill-rule="evenodd" clip-rule="evenodd" d="M745.2,204c-23.2-3-18.6-14-71.2-18.4c9.6-6.9,19.7-16,31.2-22.3
	c84.7-46.4,160.5-81.7,242.5-142.7c6.8-5,22.3-12.2,29.7-14.9c11-3.9,20.4-9.9,21.6-1.4c1,6.3,0.7,19-3.6,26.5
	c-11,18.9-23.8,36.9-37.2,54.2c-49.3,63.4-79.3,135.9-102,212.2c-3.7,12.6-12.2,23.9-19.1,37c-11-47.9-29.7-53.4-40.1-83.7
	c-8.9,4.9-17.6,8.5-24.9,13.9c-62,46.5-121.4,96.8-186,139.4c-122,80.5-246.5,157.2-375.9,225.6C162.5,654.6,116,682.2,69,708.8
	c-8.9,5-17.3,11.4-26.7,15.1C22.8,731.6,12,724.6,9,703.3c-3-21.5-5.6-43.1-8.2-64.7c-2.9-23.9,12.5-45.4,37.5-51.3
	c133.2-31.5,256-88.4,376.7-151c41.1-21.3,86.2-36.9,123.6-63.3c70.2-49.7,136.2-105.3,203.8-158.7
	C744.2,212.9,743.9,209.1,745.2,204z"/>
</svg>
