<?xml version="1.0" encoding="utf-8"?>
<!DOCTYPE svg PUBLIC "-//W3C//DTD SVG 1.1//EN" "http://www.w3.org/Graphics/SVG/1.1/DTD/svg11.dtd">
<svg artist="zl2017" version="1.1" id="zlIcon-arrow-right" xmlns="http://www.w3.org/2000/svg" xmlns:xlink="http://www.w3.org/1999/xlink" x="0px" y="0px"
	 width="1000px" height="999px" viewBox="-457.5 -457 1000 999" enable-background="new -457.5 -457 1000 999" xml:space="preserve"
	>
<path d="M-2.2,296.4c6.7,57,14,109,18.5,161.3c3,34.5,9.1,65.5,43.7,84.4c27.7-3.9,48-19.1,63.2-47.3
	c51.6-95.9,111.7-185.3,185.6-264.6C378.4,155.4,445.1,77.6,513.9,1.9c38.1-42,37.5-56.3-1.9-93.4c-87.3-82.3-172.6-167-260.6-248.4
	c-40.6-37.5-85.4-70-129-103.9c-7.8-6.1-18.8-7.8-32.7-13.2c-7,17-13.6,31.4-18.9,46.2c-20.3,56.4-39.8,113.2-60.4,169.5
	c-12.8,34.9-23.4,40.7-61,33.2c-73.8-14.7-147.4-30.7-221.3-45.2c-59-11.6-94.3,10.8-108.2,71.6c-15.5,67.6-32,135.5-40.5,204.2
	c-14.9,119.6-24.3,240-35.4,360.1c-1.3,14.4-1.6,29.8,2,43.4c8.7,33.3,37,44.4,70.5,29.9c111.6-48.4,223.1-96.8,334.8-144.8
	C-36.2,305.8-22.7,302.8-2.2,296.4z"/>
<path fill="#FFFFFF" d="M-413,415.4c42.4-12.9,78.5-20.2,111.9-34.6c85.7-37.1,176.1-63.5,253.6-120.2c19-13.9,44.3-18.3,70.2-28.5
	c28.1,71.4,8.9,147.5,42.5,212c88.7-70,146.2-165.3,218.3-246.3c71.2-80.1,142.6-160,214.2-240.5c-5.7-9.3-8.4-16.5-13.3-21.1
	c-49.2-46.7-99.2-92.4-148.2-139.4C295-243,255.8-285,214.1-324c-29.8-27.9-62.4-52.6-93.8-78.7c-29.4,40.5-55.5,135.3-64.7,231.8
	c-57.3,31.2-119.4,23.5-182,14.8c-52-7.3-104.3-12-156.4-19c-29.9-4-46.9,10.6-55.3,38.3c-16,52.3-37.8,103.9-45.3,157.5
	c-15.2,108.5-22.9,218.2-32.7,327.4C-417.8,366-414.7,384.3-413,415.4z"/>
<path d="M-125.9,203.9c-75.8,40.5-158.6,64.5-231.6,112.7c46,22.7,76-20.2,114.7-27.2c38.8-7,75.8-25.2,119.1-40.5
	c1.4-7.3,3.9-20.7,6.5-34.2C-120.1,211.2-123,207.5-125.9,203.9z"/>
<path d="M-341.4,214.3c9.9,24.4,25.5,18.4,41,14.9c39-8.9,78.1-17.1,117.1-25.6c24.8-5.4,26.6-22,5.3-50.8
	C-231.3,172.7-284.7,192.8-341.4,214.3z"/>
</svg>
