<?xml version="1.0" encoding="utf-8"?>
<!DOCTYPE svg PUBLIC "-//W3C//DTD SVG 1.1//EN" "http://www.w3.org/Graphics/SVG/1.1/DTD/svg11.dtd">
<svg artist="zl2017" version="1.1" id="zlIcon-arrow-right-bold" xmlns="http://www.w3.org/2000/svg" xmlns:xlink="http://www.w3.org/1999/xlink" x="0px" y="0px"
	 width="1000px" height="780px" viewBox="0 0 1000 780" enable-background="new 0 0 1000 780" xml:space="preserve">
<path fill-rule="evenodd" clip-rule="evenodd" d="M621,161.9c106.6,0,200-0.7,293.4,0.8c14.4,0.2,28.5,10.7,47.8,18.4
	c33.3,76.5,22.4,161,37.4,234.7c-29.4,52.4-67.2,70.3-119.6,72.6c-66.6,2.9-132.8,15-208.1,24.3c8.2,85.3,15.4,160.3,22.3,233
	c-28.5,14.7-46.9,24.2-65.7,33.9C515,715.7,403.3,651.3,290,589.8c-64-34.7-130.7-64.1-195.9-96.4c-23.1-11.5-47.2-22.2-67.7-37.6
	c-36.5-27.4-33.3-79,2.9-106c129.2-96.2,257.3-193.9,387.6-288.6c32.8-23.9,70.6-42.8,108.7-57c32.8-12.2,64.3,6.9,73.2,40
	C608,78.6,612.3,114.4,621,161.9z M601.8,449.5c115.7-5.6,212.3-17.3,302.2-51.2c13.8-145.6-3.5-169.9-127.2-176
	c-35.9-1.8-72.3,5.1-108.3,9.5c-30.4,3.7-60.6,9.4-95.7,15c-24.9-47.4-48-91.2-75.5-143.6c-49.8,32.7-94.4,58.4-134.8,89.5
	c-44.7,34.5-84.9,74.6-128.1,111.1c-38.1,32.2-85.5,56-107.3,117c153.5,82.9,302.8,159.8,463.6,232.5c0-43-1.3-73.7,0.4-104.3
	C592.7,518.9,597.4,488.9,601.8,449.5z"/>
<path fill-rule="evenodd" clip-rule="evenodd" fill="#FFFFFF" d="M601.8,449.5c-4.4,39.4-9,69.4-10.7,99.6
	c-1.7,30.5-0.4,61.2-0.4,104.3c-160.8-72.7-310-149.6-463.6-232.5c21.8-61,69.1-84.8,107.3-117c43.2-36.5,83.4-76.6,128.1-111.1
	c40.4-31.1,85-56.8,134.8-89.5c27.6,52.4,50.6,96.2,75.5,143.6c35.1-5.6,65.3-11.3,95.7-15c36-4.3,72.4-11.3,108.3-9.5
	c123.6,6.1,140.9,30.4,127.2,176C814,432.2,717.4,443.9,601.8,449.5z"/>
</svg>
