<?xml version="1.0" encoding="utf-8"?>
<!-- Generator: Adobe Illustrator 16.0.0, SVG Export Plug-In . SVG Version: 6.00 Build 0)  -->
<!DOCTYPE svg PUBLIC "-//W3C//DTD SVG 1.1//EN" "http://www.w3.org/Graphics/SVG/1.1/DTD/svg11.dtd">
<svg artist="zl2017" version="1.1" id="zlIcon-bird-warrior-right" xmlns="http://www.w3.org/2000/svg" xmlns:xlink="http://www.w3.org/1999/xlink" x="0px" y="0px"
	 width="1000px" height="1441.6px" viewBox="0 0 1000 1441.6" enable-background="new 0 0 1000 1441.6" xml:space="preserve">
<path fill-rule="evenodd" clip-rule="evenodd" d="M593.5,1228.1c4,22.3,7.1,39.9,11.6,65c42,11.7,86.6,24.1,139.4,38.8
	c-33.6,7.5-61.3,13.7-89.3,20c-5.7,29.4,39,43,22.3,77.1c-46.6-7.4-44.2-68.3-92.7-79.7c-7.1,19.1-14.1,37.7-22.2,59.4
	c-7.8,0.6-18.5,1.3-28.2,2c-2.5-5.6-5.5-9.1-4.7-11.1c4.7-12,8.1-25.3,15.8-35.2c30.4-39.1,32.8-80.4,16.4-119.9
	c-54.7,6.9-107.6,14.2-160.6,19.8c-15.3,1.6-29.4,1.6-36.6,18.4c-7.6,17.7-2.2,31.1,10.6,44.2c23.8,24.4,46.6,49.8,71.7,76.8
	c-13.4,7.6-21.7,12.2-30,16.9c-19.8-18.8-38.9-36.9-59-55.9c-23.8,25.5,9.1,77.6-53.9,76.8c3.2-15.4,6.5-28.3,8.4-41.5
	c2.1-14.3,2.9-28.8,5.2-52.2c-35.2,13.4-64.7,24-93.7,35.8c-12.2,5-23.5,14.9-37.2-8.7c10.9-7.6,21.8-17.8,34.7-23.5
	c25.3-11.1,52.5-18.1,77.3-30.1c12.3-6,23.8-17.8,30.5-29.8c11.6-20.9,3.1-32.5-23.2-41.2c-37.1-12.4-73.2-28.5-110.8-38.7
	c-40.6-11-70.1-35.3-91.8-68.8C70.2,1092.1,39.4,1040,9,987.7c-6-10.3-6-24-8.5-35c79.6-21.1,154.4-42.7,230.1-60.1
	c31.7-7.3,49.6-23.6,56.4-53.4c16-69.8,31.1-139.8,46.4-209.7c1.4-6.3,0-13.3,1.2-19.7c11-56.4,9.7-57.8-55.1-55.8
	c-1.6,8.9-4.8,18.2-4.7,27.6c0.7,70.5-26.6,133.9-50.7,197.8c-3,7.8-16.2,11.8-24.8,17.5c-4.5-9.8-13.5-19.9-12.8-29.4
	c2.7-40.7,9.1-81,12.4-121.7c4.1-50.4,9.5-101,9-151.5c-0.5-55.8,9.3-109.9,14.8-164.7c7.3-72,46.8-119.4,91.9-167.5
	c27-28.7,62.3-43,97.1-53.7c95-29.2,191.7-53,287.4-80.1c16.9-4.8,33-13.8,48.1-23.1c18-11.1,32.7-2.1,45.2,7.1
	c14,10.3,11.4,25.6,2.5,39.7c-4.4,6.9-7.3,14.7-11.1,22c-33.8,63.3-67.6,126.6-101.6,189.8c-3,5.5-7.3,10.3-11.5,16.2
	c-24.5-6.7-47.7-13.1-70.7-19.4c-27.5,46.2-21.3,60.5,22.1,83.5c71,37.6,124.8,93.8,161.1,166c0.7,1.5,2.7,3.2,2.3,4.2
	c-18.7,46.7,30,83.8,14.2,134c67.6,27.3,133.3,53.9,199.8,80.8c-6.9,41-37.2,47.3-63.9,57.7c-51.4,19.9-102.7,39.9-154.2,59.9
	c24.3,83.6,4,156.2-27.7,224.3C721.2,1140.8,664.7,1191,593.5,1228.1z"/>
<path fill-rule="evenodd" clip-rule="evenodd" fill="#FFFFFF" d="M755.8,517.6c-35.4-48.7-72.9-94.2-122.1-126.3
	c-69.6-45.5-116.4-52.7-185.8,3.3c-48.4,39.1-64.6,96.5-70.8,155.8c-5.7,54.2-3,109-16.8,162.7c-12.4,48.1-20.6,97.3-29.9,142.1
	c113.9-3.6,225.4-7,341-10.6c-5.1-33-9.8-63-14.2-91.8c-23.4-7.6-45.7-13.2-66.5-22c-37.7-16.1-48.4-44.9-41.3-86.4
	c10.7-62.9,55.4-88.6,109-104.6C689,530.5,720.9,525.3,755.8,517.6z"/>
<path fill-rule="evenodd" clip-rule="evenodd" fill="#FFFFFF" d="M553.8,329.5c-1.2-19.5-0.6-32.7-3-45.3
	c-5.2-28.1-16.8-35.2-45.5-28.1c-39.6,9.8-79,20.3-109.8,49.7c-36.5,34.7-75.2,68-91.3,118.1c-7.9,24.5-12,50.2-19.4,81.9
	c18.7,5.6,37.1,11.2,55.8,16.8C378.6,417.2,429.5,334.9,553.8,329.5z"/>
<path fill-rule="evenodd" clip-rule="evenodd" fill="#FFFFFF" d="M580.9,653c-4.6,22.5,9,37.6,30,52c26.7,18.2,53.1,10.3,80.1,6
	c43-6.9,77-44.9,78.1-86.8c0.6-23.1-23.7-44.2-65-56.5c-3.1-0.9-5.9-2.8-9.1-3.7C640.1,548.9,582.3,592,580.9,653z"/>
<path fill-rule="evenodd" clip-rule="evenodd" fill="#FFFFFF" d="M765.3,830.5c58.6-28.4,115.5-55.9,180.1-87.1
	c-58.6-25.9-108-47.8-145.4-64.4c-24.7,25.2-46.8,47.6-72.8,74C735.7,770.2,749.9,799.2,765.3,830.5z"/>
<path fill-rule="evenodd" clip-rule="evenodd" d="M406.3,763.9c6.1-68.1,11.9-136.2,18.8-204.1c0.7-7,8-13.2,16.7-26.8
	c5,46.8,5.7,83.9-3.9,122.6c-8.9,36,4.4,76.9-17.6,110.5C415.7,765.3,411,764.6,406.3,763.9z"/>
<path fill-rule="evenodd" clip-rule="evenodd" d="M470.5,621c38.4,40.7,16.3,71.8,0,103.1C460.6,691.5,459,659.4,470.5,621z"/>
<path fill-rule="evenodd" clip-rule="evenodd" d="M631.6,464.3c-15.3-17.8-30.5-35.5-46.4-54c29.9-6.2,35.5-1.5,54.8,44.4
	C637.3,457.9,634.5,461.1,631.6,464.3z"/>
<path fill-rule="evenodd" clip-rule="evenodd" d="M679.1,641.6c6.9-22.5,10.1-32.7,15.5-50.4c14.8,13,25.9,22.9,37.1,32.7
	c-1.3,3.8-2.5,7.7-3.8,11.5C714.2,637.2,700.6,638.9,679.1,641.6z"/>
</svg>
