<?xml version="1.0" encoding="utf-8"?>
<!DOCTYPE svg PUBLIC "-//W3C//DTD SVG 1.1//EN" "http://www.w3.org/Graphics/SVG/1.1/DTD/svg11.dtd">
<svg artist="zl2017" version="1.1" id="zlIcon-bird-warrior-left" xmlns="http://www.w3.org/2000/svg" xmlns:xlink="http://www.w3.org/1999/xlink" x="0px" y="0px"
	 width="1000px" height="883.8px" viewBox="0 0 1000 883.8" enable-background="new 0 0 1000 883.8" xml:space="preserve">
<path fill-rule="evenodd" clip-rule="evenodd" d="M538.2,418.5c-3.6-38.8-7.2-78.1-11.3-123.2c-15,14.7-25.9,25.3-37.1,36.3
	c18.5,38,26.1,75.8,21.9,115.9c-1.6,15.8,2.5,30.7,14,46.6c49-40.4,75.3-95.4,108.3-148.3c10.2,13.2,13.9,21.9,12.1,36.7
	c-4,33.6-16.2,66.9-9.1,101.5c2.1,10.3,5.1,20.4,7.9,31.2c42.3-3.3,69.4-40.3,111.3-42c1,12.5,1.8,23.1,2.9,38.3
	c80.3-36.8,155-80.7,234.8-110.4c11.8,15.2,2.5,19.5-5.3,23.4c-51.6,25.8-103.5,51.1-155.1,77.1c-27.1,13.7-53.7,28.3-80.4,42.8
	c-11.5,6.2-11.4,6.5-20,43.4c27.4-5,53.5-9.7,80.5-14.6c0.7,16.5-6.4,24.7-14.9,33.7c-30,31.7-65.8,55.6-101.4,80.1
	c-3.9,2.7-7.1,6.4-11.7,10.6c3.4,6.4,6,12.6,9.6,18.1c13.5,20.2,17.1,21.3,41.6,15c12.9-3.3,25.8-6.5,41.4-10.4
	c-3.9,24-27.5,18.4-36.6,35.2c7.8,6.7,16.5,13.6,24.6,21.1c8.1,7.6,13.3,15.7-1.3,23.5c-14.6-8.4-29.7-17-47.5-27.2
	c-1.9,13.6-10.8,21.2-5.7,35c4.5,12.2-7.4,17.5-20.5,22.8c2.5-19.8,3.5-37.1,7-53.8c5.1-24.6-11-40.8-22.1-58.7
	c-2.2-3.5-13.1-4.9-18-2.7c-20.4,9.1-40.1,20-63.8,32.2c7.5,16.4,12.6,33.5,22.4,47.2c9.5,13.3,23.7,23.2,35.9,34.5
	c-1.2,2.3-2.4,4.6-3.6,6.9c-12.6-2-25.2-4.1-41-6.6c2.1,17,4.1,33.1,6.3,51.2c-6.2,0.9-12.4,1.7-20.1,2.8
	c-2.5-12.5-4.7-23.7-7.2-36.2c-20.8,2.5-22.1,25.3-37.4,32.2c-7.6-1.8-13-5.1-6.6-13.8c12.7-17.4,24.7-35.5,39-51.6
	c8.7-9.7,10.2-17.7,5.5-29.1c-4.8-11.5-8-23.6-12.3-36.9c-50.7,10.8-93.7-10.7-137.5-26.5c-11.1-4-19.4-5.2-30.4-0.7
	c-27.1,11.3-54.8,21-82.2,31.4c-53,20.1-106,40.3-160.2,60.8c-0.8,8.9-1.7,18.6-2.6,28.6c-24.9,15.6-53,7.1-78.9,10.8
	c-26.1,3.7-51.8,19-82.9,9c3.6-6.9,4.8-13.2,8.5-15.6c15.6-10.2,32.3-18.7,47.8-28.9c19.6-13,38.3-27.1,57.2-40.6
	c2.3,0.4,5.1,0,6.1,1.2c16.1,18,32.3,18.3,54.6,7.9c56.8-26.5,115.3-49.7,173.1-74.2c8-3.4,16.2-6.6,26.2-10.7
	c-2.7-3.2-4.4-6.8-7.3-8.4c-35.8-19.6-62.6-48.4-78.6-85.2c-12.3-28.3-31.8-43.2-61-48.9c-26.8-5.3-53.5-11.7-81.8-17.9
	c-3.3-24.7,20.5-33,31.4-48.9c11.1-16.2,24.1-31,37.8-48.2c-8.9-19.5-11.7-40.8-0.2-62.9c3.8-7.3,3.7-17.5,2.9-26.2
	c-4.9-57.7,25.2-92.2,76.9-115.5c0-17.2,0.9-35.5-0.6-53.5c-0.4-4.7-7.9-10.8-13.5-12.8c-26.5-9.3-26.9-8.8-26.9-35.8
	c-0.1-35.5-3.1-70.4-15.8-104.2c-6.6-17.6,0.9-29.5,19.5-31.8c11.4-1.4,23.9-0.7,35,2.4c45.2,12.9,89.5,28.6,135,40.2
	c28.2,7.2,49.2,25.2,70.1,41.9c23.3,18.6,47.3,37.6,61.1,66.6c25.2,52.9,34.5,107.1,20.5,164.4c-7.4,30.3-15.7,60.4-23.1,90.8
	C553.3,416.1,549.6,421.4,538.2,418.5z"/>
<path fill-rule="evenodd" clip-rule="evenodd" fill="#FFFFFF" d="M238.7,343.9c19.3-5.9,38.4-13.4,58.3-17.2
	c10.6-2,24.1-0.5,33.2,4.8c15,8.7,29,20.3,40.7,33.2c20.3,22.5,22.7,52.6,7,79.1c-6.8,11.5-17.4,20.7-26.5,30.7
	c-7.8,8.6-19.1,15.5-16.7,29.4c2.3,13.3,5.7,26.5,9.3,43.1c9.5-3.2,18.6-5.5,27.1-9.2c17.1-7.5,33.9-15.8,50.8-23.7
	c18.9-8.9,38.1-14.7,59.6-10.2c6.3,1.3,13.5-2.2,21.5-3.7c-3.1-28.4-6.5-53.4-8.4-78.5c-3-40.4-17-76.1-41.5-108.2
	c-18.5-24.4-42.8-40.2-71.1-50c-6.9-2.4-18.2-4.2-22.2-0.6c-20.8,19.3-50,21.2-72.1,37.3c-3.3,2.4-8.7,1.9-16.3,3.3
	c6.2-17.7,17.2-23.4,30.8-27.8c13.2-4.2,25.5-11.1,38.2-16.8C271.6,258.5,232.2,293.5,238.7,343.9z"/>
<path fill-rule="evenodd" clip-rule="evenodd" fill="#FFFFFF" d="M273,144.4c9.8,2.7,19,7,28.4,7.4c57,2.4,109.4,19.8,159.2,46.8
	c41.1,22.2,74.2,51.1,86.1,98.8c0.6,2.6,3.2,4.6,5.1,7.1c10.6-18.7,14.4-53.1,2.7-76.2c-3.5,8.1-7.1,16.3-12.3,28.4
	c-14.1-31.6,12-49.5,9.5-72.4c-20.6,2.9-8.5,33.5-29.8,33.6c-9.6-28,9.7-55.4-5.5-82.7c-7.9,20.7-15.8,41.3-23.7,62
	c-2.2-0.4-4.4-0.9-6.6-1.3c-1.1-7.2-3.7-14.6-3-21.7c1.5-15.5,4.7-30.8,6.9-46.2c1.5-10.3,5.9-22.2-9.9-24c-4.4,13.5-8,26.5-12.8,39
	c-4.6,11.9,4.4,29.5-16.7,38.7c-0.6-11.5-2-20.2-1.2-28.6c1.9-18.4,4.6-36.8,7.9-55c2.3-12.2-2-18.5-14.9-20.9
	c-9.7,24.3-5.8,52.6-22.2,80.2c-9.7-19.1-6.9-33.4-5-47.6c1.7-12.6,4.4-25.1,4.4-37.7c0-4.8-6.2-9.5-12.9-19
	c-5.4,33.2-9.8,60.1-14.1,87c-2.4,0.2-4.8,0.4-7.1,0.7c-2.5-5.4-7.3-10.8-7.2-16.2c0.4-18.5,2.1-37.1,3.9-55.5
	c1-9.7,4.2-19.6-10.8-22.9c-23.8,22.2-1.3,55.3-18.1,80.2c-14.2-20.1-11.9-41.3-13-61.5c-0.8-15.1-5.8-26.3-22.1-33.7
	c-2.3,35.5,0.3,69.6-6.8,103.3c-12.4-20.1-15.8-41.6-17.1-63.9c-0.7-11.6-3.4-23.1-6.3-34.4c-2.8-11.4-10.6-15.6-23.4-12.3
	C267.4,62.8,270.1,101.6,273,144.4z"/>
<path fill-rule="evenodd" clip-rule="evenodd" fill="#FFFFFF" d="M284.6,456.5c31.9,3.6,55.6-9,69.7-37.4
	c10.4-21.2,3.5-41.5-14.8-56.3c-34.5-27.9-81.8-8.4-101.9,16.9c-14.9,18.8-12.7,39,0.7,59.6C250,457.3,266.5,458.2,284.6,456.5z"/>
<path fill-rule="evenodd" clip-rule="evenodd" fill="#FFFFFF" d="M509,260.6c-48.5-50.7-108-70.8-173.9-83.2
	c-4.1,19-7.4,34.8-12.3,57.3c67-5.3,115.7,24.5,155.6,73.9C489.6,291.1,498.5,277.1,509,260.6z"/>
<path fill-rule="evenodd" clip-rule="evenodd" fill="#FFFFFF" d="M219,464.4c-13.3,20.5-37.1,33.5-44.7,61.2
	c31.5,8.9,62,17.5,94.7,26.8c0-26,0-48.1,0-67.2C251.9,478.1,237.7,472.2,219,464.4z"/>
<path fill-rule="evenodd" clip-rule="evenodd" d="M448.6,354.2c18.5,13.2,18.5,13.2,12,108.8C456.6,426.8,452.6,390.5,448.6,354.2z"
	/>
<path fill-rule="evenodd" clip-rule="evenodd" d="M433.2,406.3c-2,14.2-4.1,28.4-6.4,44.9C416.3,427.8,417,423.6,433.2,406.3z"/>
<path fill-rule="evenodd" clip-rule="evenodd" d="M270.3,432.3c-14.1,3.7-24.8,5.9-26.8-8c-0.7-5.3,5.2-11.5,11.2-23.3
	C261.7,415,265.2,422.1,270.3,432.3z"/>
</svg>
