<?xml version="1.0" encoding="utf-8"?>
<!DOCTYPE svg PUBLIC "-//W3C//DTD SVG 1.1//EN" "http://www.w3.org/Graphics/SVG/1.1/DTD/svg11.dtd">
<svg artist="zl2017" version="1.1" id="zlIcon-boat-sheep" xmlns="http://www.w3.org/2000/svg" xmlns:xlink="http://www.w3.org/1999/xlink" x="0px" y="0px"
	 width="1000px" height="1038.4px" viewBox="0 0 1000 1038.4" enable-background="new 0 0 1000 1038.4" xml:space="preserve">
<path fill-rule="evenodd" clip-rule="evenodd" fill="#FFFFFF" d="M422.7,354.4c2.1,11.5,6.8,24.1,16.8,34.7c5.4,5.7,11.8,8.3,18.9,8
	c16-0.7,31.4-4.5,44.2-14.6c16.8-13.1,25.4-32.4,34.2-50.9c4.1-8.6,8-20.3,1.3-29.8c-8.3-11.8-18.1-23.4-32.8-26.7
	c-19.9-4.4-40.8-5.7-59.4,3.1c-11.9,5.6-24.7,13.7-23.3,31.5C423.5,323.6,422.7,337.6,422.7,354.4z"/>
<path fill-rule="evenodd" clip-rule="evenodd" fill="#FFFFFF" d="M414.6,283.8c-26.6-12.7-49.6-0.1-67.2,16.8
	c-23.6,22.7-19.7,51.9-7.3,80c18.5,7.1,36.2,3.3,64.1-13.4c0.7-14,0.6-27.4,2.3-40.6C408.1,312.8,411.6,299.2,414.6,283.8z"/>
<path fill-rule="evenodd" clip-rule="evenodd" fill="#FFFFFF" d="M423.5,71c-31.4-0.6-46.6,5.3-63.2,23.7
	c-4.6,5.1-7.1,12.3-11.6,17.5c-9.8,11.3-11.6,22.7-2.9,35.2c0.9,1.3,1.7,2.8,2.3,4.3c8.7,21.4,27.6,31.7,47.6,31.3
	c48-1,75.2-29.9,80.4-79.1c0.7-6.5-2.4-10.7-7-15.4C454.9,74.1,437,71.8,423.5,71z"/>
<path fill-rule="evenodd" clip-rule="evenodd" fill="#FFFFFF" d="M477.2,81.8c16,28.7-2.7,52.4-12.1,76.9
	c19.9,19.7,45.3,17,72.1-6.9c0.3-32.9-1.2-40-10.9-52.7C513.7,82.5,492.7,75,477.2,81.8z"/>
<path fill-rule="evenodd" clip-rule="evenodd" d="M533.8,691.4c5.8-4.4,12.1-9,19.7-14.8c-0.5,4-0.4,6.9-1.2,9.5
	c-10,32.7-20.1,65.4-30.3,98.1c-1.5,4.7-2.8,9.4-4.7,13.8c-10.3,24.6-20.3,49.3-31.1,73.6c-9.2,20.6-15.1,42.8-27.4,61.9
	c-5.3,8.1-12,15.3-18.3,22.7c-6.8,7.8-12.8,16.9-21,22.6c-24.6,16.9-49.5,33.7-75.6,48c-12.4,6.8-27.9,8.6-42.2,11.4
	c-6.5,1.3-8.9-4.5-10.2-10.4c-3.7-17-8.4-33.8-11.4-51c-8.4-47.7-11.4-96-11.2-144.3c0.1-46.3,1.7-92.7,4.5-138.9
	c1.7-28.7,6.5-57.2,10.5-85.7c0.8-6,1.8-11.2-1-17.2c-3.2-6.8-6.2-14.6-6.2-21.9c0.1-13.8-7.9-20.4-17.6-28.2
	c-34.7-27.7-41.9-65-19.3-101c6.3-10,6.1-10.1,2.2-37.5c-9.9-0.6-17.2,5.3-24.3,10.6c-10.8,8.2-20.8,17.6-31.1,26.4
	c-7.2,6.2-13,12.7-12.3,23.5c0.3,4.8-2.5,10.2-5.2,14.7c-4.1,7-9,13.6-14.1,20c-12.4,15.7-21,32.8-23.1,53.1
	c-0.7,6.3-2.7,12.8-5.7,18.5c-7.1,13.8-19.6,18.6-35.3,15.9c-13.6-2.4-26.1-6.7-37.6-14.7c-6.1-4.2-14.3-5.3-21.2-8.6
	c-11.2-5.3-23-9.2-29.1-22.1c-3.9-8.3-3.5-14.2,3.4-20.1c16.5-14.2,32.4-29.2,49.4-42.8c13.1-10.6,27.3-19.7,41.1-29.3
	c10.1-7,21.3-10.4,33.8-10.6c23.5-0.3,44.9-7.3,63.8-21.6c17.8-13.5,35.8-26.7,53.6-40.3c3.4-2.6,6.8-5.7,8.8-9.4
	c11.5-20.3,30.5-26.7,51.9-28.8c1.6-0.2,3.2-0.4,4.2-0.6c6.5-14.6,12.8-28.8,20.2-45.2c-11.3,2.2-21.5,3.6-31.3,6.2
	c-9.5,2.4-18.6,6.3-28.1,8.9c-15.7,4.1-26.6-0.6-36.1-17.6c-1.2-2.1-1.7-5.5-0.9-7.7c5.8-14.8,12.7-29.1,25.8-38.9
	c12.2-9.2,18.1-8.2,27.6,3.8c1.7,2.1,3.4,4.3,4.7,6.7c15.4,28.1,45.8,31.2,69.2,21.5c15.9-6.6,31.6-11.1,49.1-7.7
	c5.1,1,10.9-0.5,16.1-1.9c25.1-6.6,50.7-4.6,76.1-3.9c2.6,0.1,5.6,0.9,7.7,2.4c14.5,10.7,27.5,3.7,39.1-4.6
	c13.7-9.8,25.8-21.7,38.9-32.4c5-4.1,10.4-8.1,16.3-10.7c9-4,17.7-4.2,25.1,4.5c7.8,9.1,16.1,17.7,24.5,26.2
	c16.4,16.8,23.2,35.3,10.4,58.1c-19.9,8-29.1,6.3-43.9-9.3c-3.7-3.9-6.9-8.5-10.9-12.2c-4.1-3.7-9-6.6-15.5-9
	c18.9,38,13.4,72.1-13.6,104.1c16.7,26.8,18,55.2,6.8,84.5c27.2,21.6,35.1,50.4,25.3,80.8c-8.6,26.8-29.3,44.1-59.9,43.5
	c-1.8,7.9,4,9.2,7.9,11.4c17.6,9.8,35.7,18.5,52.8,29c20.4,12.5,40.1,26.2,59.9,39.7c19.9,13.6,42.6,21.3,64.8,30.1
	c1.9,0.8,4.4,1,6.4,0.6c17.6-3.1,33.1,1.1,48.3,10.4c12.5,7.7,25.7,15.1,39.7,19.1c30.8,8.9,57.4,28.1,89.1,34.3
	c4,0.8,7.5,4,10.6,5.7c0.2,2.3,0.8,3.6,0.3,4.3c-8.6,14.8-8.2,12.8-25.2,9.1c-32.9-7.1-59.6-25.6-87.4-42.7
	c-14.3-8.8-29.6-16-44.8-23.3c-9.5-4.5-19.7-6.1-30.1-2.4c-11.9,18.4-6,35,6.4,49.3c9.5,11,21.7,19.5,34.7,30.9
	c13.4-4.5,20.6-17,19-34.6c12.3-2.4,19.6,4.1,26.9,9.2c22.1,15.5,47.5,20.9,73.4,24.5c11.7,1.6,23.9,0.9,35.8,0.3
	c21.3-1.1,36.7-12.5,48.1-29.9c0.9-1.3,1.7-2.7,2.7-4c0.3-0.3,0.9-0.4,2.9-1.1c0.7,3.6,2.4,7.1,1.8,10.3
	c-4.3,23.5-26.4,40.8-51.1,42.5c-44.7,3.1-84.7-10.7-124.2-32.1c-14.6,28.7-44.1,36.3-71.4,45.1c-12.1,3.9-27.2-1.8-41-3.1
	c0.9-7.4,17.1-1.4,4.2-16.6c23.2,8,41.2,9.9,58.5-4.7c-2.9-2.9-5.6-5.8-8.5-8.6c-9.1-8.6-18.8-16.6-27.4-25.7
	c-7.8-8.4-15.4-18-13.9-30.3c1.7-14-5.5-23.1-15.1-30.6c-9.8-7.7-20.6-14.3-31.1-21.1c-27.8-18-55.2-36.6-83.6-53.6
	c-22.9-13.7-47-25.3-70.4-38.2c-29.6-16.3-58.9-33-88.3-49.4c-10-5.6-20.2-10.9-30-16.7c-6.9-4.1-13-3-17.3,2.9
	c-6.7,9.1-13.4,18.5-18.4,28.6c-3.7,7.3-8,11.3-15.4,10.8c-7.7-18.2-26.1-27.3-35.9-45.1c4.7-0.5,9.3-0.6,13.8-1.5
	c11.1-2.2,22.2-4.6,33.2-7.3c2.5-0.6,5.2-2.1,6.9-3.9c2.7-2.9,4.5-9.2,6.9-9.3c5.7-0.2,12.2,1.2,17,4.1
	c13.8,8.4,26.7,18.4,40.6,26.7c15.9,9.5,32.5,17.9,48.9,26.5c2.1,1.1,4.9,1.1,9,2c-5.1-24.3-4.7-47.1-1.9-69.7
	c15.6,2.2,29.3,4.2,45.2,6.4c-1.1,4.5-2.1,8.9-3.4,13.2c-5.4,17.6-11.6,34.9-16,52.7c-2.8,11.4,5.1,18.6,17.9,19.6
	c20.3,1.6,35.6-6.3,46-23.6c6.2-10.3,12.8-20.4,17.8-31.2c9.1-19.7-5.1-46.8-26.2-51.5c-4.2-0.9-8.5-1.7-12.8-2.7
	c-1-0.2-1.8-1.1-2.7-1.8c1.9-12.8,11.9-7.8,20.1-8.6c7.2-14.9,7-30.3,1.9-45.7c-5.8-17.5-17.7-31.2-31.1-43.3
	c-10.7-9.7-13.1-9-22.5,1.8c-20.7,24-44.7,43.4-75.3,52.9c-29.8,9.2-59.1,7.6-86.6-8.5c-8-4.7-16.2-9.1-23.7-14.5
	c-14.2-10.2-23.6-23.9-26.6-41.4c-1.6-9.2-5.4-11.8-14.8-9.3c-15.4,4.2-25.8,14.7-34.7,27.7c-8.4,12.3-8.9,25.8-9,40.5
	c9.6,1.9,18.1-9.3,28.5-2.1c-1,6.3-5.8,8.3-10.5,11c-12,6.8-22.1,15.2-28,28.5c-9.5,21.3-0.1,57.5,19.5,70.2
	c3.9,2.6,9.1,4.7,13.7,4.6c9.4-0.2,12.4,5.5,14.3,12.6c1.7,6.3,3,12.7,3.7,19.2c2,19.2,11,35.3,23.2,49.5
	c12.1,14.2,28.3,19.8,46.9,17.6c8.4-1,10.4-3.8,8.5-11.9c-1-4.5-2.3-8.9-4.3-16.3c5.8,2.3,9.8,2.6,10.8,4.5
	c13,26.5,39.2,34.9,63.5,44.7c7.2,2.9,18.6-0.3,26.4-4.2c13.5-6.8,25.7-16.3,38.5-24.6c5.6-3.6,11.3-7,18.4-11.3
	c2,8.8-2.4,11.7-5.7,14.8c-25.4,23.3-47.1,49.8-66.8,77.8c-6.2,8.8-9.7,19.4-14.5,29.1c-3.7,7.6-7.5,15.3-12.4,25.2
	c-3.2-4.2-5.9-6.1-5.9-8c-0.6-24.4-1.3-48.7-0.9-73.1c0.1-8.7-2.4-14.4-9.4-19.2c-9-6.1-17.5-12.8-25.9-18.9
	c-7.8,15.6-17.4,30.9-23.1,47.5c-5.6,16.5-7.3,34.4-11.4,55c-4-5.7-6.7-8.3-7.8-11.5c-9.5-27.2-19.2-54.3-27.6-81.9
	c-4.1-13.6-10.9-24-23.1-31.5c-18.1,43.4-8.7,335.6,13.1,398.5c3.6-4.5,6.9-7.7,9.2-11.5c29.9-50,59.9-99.9,89.3-150.2
	c9.3-15.9,16.2-33.2,25.8-49c13.5-22.3,28.6-43.7,42.7-65.7c13.5-21.1,26.8-42.3,39.9-63.6c11.1-18,21.9-36.2,32.5-54.5
	c3.8-6.5,7.7-8.7,15.1-2.7c-26.7,50.8-53.4,101.4-80.2,152.2c1.8,2.1,3.8,4.3,6.9,7.8c-13.6,4-23.8,10.4-27.5,25.2
	c8.7,0,17.2,0,25.6,0c0.2,1.1,0.5,2.2,0.7,3.2c-4.7,1.8-9.2,4.1-14,5.4c-30.9,8.7-33.3,10.5-50.5,42.2c7.1-2.3,12.5-4.4,18-5.8
	c5.5-1.3,11.2-2,17.8,0c-1.8,1.6-3.4,3.8-5.6,4.7c-5,2-10.4,3.3-15.5,5c-26.9,9.3-29,11.4-41.6,42.2c9-2.2,16.5-4.3,24.1-5.9
	c7-1.5,13.1-8.4,22.7-3.1c-2.6,2.1-4.2,4.1-6.3,4.9c-12.7,4.9-25.1,11-38.3,14c-14.3,3.3-17.3,14-24,25.8
	c21.5-1.7,37.3-15.3,56.3-14.6c0.4,1.1,0.7,2.2,1.1,3.3c-16.4,6.5-32.8,13.4-49.4,19.5c-18.1,6.7-18.2,6.4-25.7,22.1
	c14.4,3.3,23.9-14.1,41.9-9.1c-14.3,7.7-25.7,14.7-37.8,20c-10,4.3-17.7,9.7-21.7,20.1c-1.7,4.4-5.2,8.1-8.8,13.4
	c10.8,2.3,18.7-2.7,25.6-7.7c17.7-12.6,35.1-25.6,51.9-39.4c19.1-15.6,33.7-35,45.6-56.8c16.5-30.3,29.3-61.9,38.9-95
	c6.8-23.4,16-46,23.8-69.1C522.9,726.7,528,709.6,533.8,691.4z M422.7,354.4c2.1,11.5,6.8,24.1,16.8,34.7c5.4,5.7,11.8,8.3,18.9,8
	c16-0.7,31.4-4.5,44.2-14.6c16.8-13.1,25.4-32.4,34.2-50.9c4.1-8.6,8-20.3,1.3-29.8c-8.3-11.8-18.1-23.4-32.8-26.7
	c-19.9-4.4-40.8-5.7-59.4,3.1c-11.9,5.6-24.7,13.7-23.3,31.5C423.5,323.6,422.7,337.6,422.7,354.4z M15.6,528.1
	c1.6,3.4,1.8,4,2.1,4.4c23.7,25.7,55.2,32.2,87.9,35.4c6,0.6,10.1-3.7,11.4-9.7c1.6-7.5,2.7-15,4.1-22.5c4.5-25.3,9.3-50.5,29-69.5
	c0.8-0.8,0.4-2.9,0.5-4.4c-18.1-6.3-49.8-3.4-67.4,9.7C59.8,489.1,38.2,509,15.6,528.1z M414.6,283.8c-26.6-12.7-49.6-0.1-67.2,16.8
	c-23.6,22.7-19.7,51.9-7.3,80c18.5,7.1,36.2,3.3,64.1-13.4c0.7-14,0.6-27.4,2.3-40.6C408.1,312.8,411.6,299.2,414.6,283.8z
	 M574.2,367.4c18.2-15,26.2-45.5,19.1-67.7c-2.5-7.9-3.8-16.2-5.8-25.1c-13.4-2.7-21.2-0.6-41.6,11.7c8.8,9.1,10.2,20.4,7.8,32
	c-2.3,11-5.9,21.7-9,32.9C554.5,356.7,564,361.8,574.2,367.4z M593,553.3c1.2,0.8,2.3,1.5,3.5,2.3c3.1-5.2,6.1-10.4,9.2-15.6
	c-0.9-0.5-1.7-1-2.6-1.5C599.7,543.4,596.4,548.3,593,553.3z"/>
<path fill-rule="evenodd" clip-rule="evenodd" d="M323.3,135.7c3.6-25.7,19.8-44.3,39.4-61.6c-5.6-5.3-11.3-5.5-18-3.5
	c-9.4,2.9-18.9,5.7-28.5,7.3c-6.2,1-13.2,0.8-19.1-1.1c-11.8-3.8-17.2-14.4-13.1-26c4.4-12.3,9.2-24.7,16.2-35.6
	C308.6,1.9,323.7-0.3,338,0c12.5,0.2,21.8,6.5,27.3,19.5c5,11.8,13.8,22,20.8,33.1c4.1,6.6,9.8,7.8,16.9,6.5
	c17.5-3,34.7-1.2,51.7,3.8c3.6,1.1,7.8,2.6,11.1,1.7c15.8-4.2,31.1-2.6,46.1,3.1c9.6,3.6,19,0.9,26.4-4.6
	c12.2-9,23.2-19.6,34.4-29.8c10-9.2,19.4-19.1,29.3-28.5c5.1-4.8,10.8-4.1,16.5-0.5c19.7,12.5,33.7,28.8,37.1,53
	c2,14.4-6,24.8-12.5,35.9c-1,1.6-3.9,3.4-5.4,3.1c-12.5-2.7-27.1-0.3-36.1-12c-7.3-9.4-16.6-11.6-27.3-11.5
	c-7.9,0.1-15.2,3.9-23.9-0.1c-3.1-1.5-10.2,5.7-15.5,8.9c21.9,32,22.9,35.9,17.2,68.3c19,13.2,42.4,24.1,33.6,58.2
	c-12.8-15.4-14.9-36.7-35.1-42.9c-10.6,10.9-21.5,22.1-32.2,33.3c-14.9,15.5-33.6,20.6-54.5,21.2c-22.1,0.6-43.4-3.2-63.4-11.9
	c-18.4-7.9-36.6-17.1-53.4-27.9c-8.1-5.2-13.2-15.2-19.2-23.5c-4.1-5.6-7.9-7.2-15.1-5c-18.4,5.6-32.6,14.8-36.6,35.8
	c5.4,1.6,10.7,3.1,16.6,4.8c-3.2,8.3-10.1,7.2-15.2,9.3c-12.5,5.2-26.4,8.6-37.1,16.4c-40.9,29.7-48.3,68.9-30.5,113.9
	c3.6,9.1,6.7,19.3,17.3,24.3c1.7,0.8,2,8.1,0.5,11.2c-0.9,1.9-7.1,3.4-9.7,2.3c-11.6-5.2-18.3-15.7-22.9-26.7
	c-11.7-27.9-13.2-57-5.3-86.1c5.9-21.9,19.5-38.7,39.9-49.2c7.7-4,16-6.8,23.7-10.8c3-1.6,5.7-4.6,7.6-7.5c2.3-3.6,4-7.7,5.5-11.8
	c9.1-25.1,29.3-34.9,53.5-39.6C320.7,137.4,321.5,136.6,323.3,135.7z M423.5,71c-31.4-0.6-46.6,5.3-63.2,23.7
	c-4.6,5.1-7.1,12.3-11.6,17.5c-9.8,11.3-11.6,22.7-2.9,35.2c0.9,1.3,1.7,2.8,2.3,4.3c8.7,21.4,27.6,31.7,47.6,31.3
	c48-1,75.2-29.9,80.4-79.1c0.7-6.5-2.4-10.7-7-15.4C454.9,74.1,437,71.8,423.5,71z M477.2,81.8c16,28.7-2.7,52.4-12.1,76.9
	c19.9,19.7,45.3,17,72.1-6.9c0.3-32.9-1.2-40-10.9-52.7C513.7,82.5,492.7,75,477.2,81.8z"/>
<path fill-rule="evenodd" clip-rule="evenodd" d="M155.2,832.2c28.6-15.5,57.2-31,85.7-46.6c0.7,1.2,1.3,2.4,2,3.7
	c-26.5,19.1-56.8,31-85.5,46.1C156.7,834.4,155.9,833.3,155.2,832.2z"/>
<path fill-rule="evenodd" clip-rule="evenodd" d="M160,915.2c-4.5-6.8,1.8-8.7,5.6-10.8c11.2-6.5,22.9-12.4,34.2-18.9
	c7.5-4.3,14.5-9.6,21.9-14c3.8-2.3,8.2-3.7,12.3-5.4c0.7,1.3,1.4,2.5,2,3.8c-9,5.6-17.7,11.5-26.9,16.7
	c-12.8,7.3-25.9,13.9-38.8,21.1C166.6,909.7,163.4,912.6,160,915.2L160,915.2z"/>
<path fill-rule="evenodd" clip-rule="evenodd" d="M240.2,720.3c-18.3,17.2-40,23.7-58.2,36c1-9,9.3-10.1,15-13.8
	c6.8-4.4,13.9-8.3,20.9-12.4C224.1,726.5,228.9,719.9,240.2,720.3z"/>
<path fill-rule="evenodd" clip-rule="evenodd" d="M228.4,952.6c-18.5,9.7-37,19.4-55.6,29.1c-0.9-2-1.9-3.5-1.6-3.8
	C178.3,970.3,215.3,952.3,228.4,952.6z"/>
<path fill-rule="evenodd" clip-rule="evenodd" d="M160,915.2c-10,5.3-20,10.5-29.9,15.9c-5.7,3.1-11.2,6.7-17.4,10.4
	c4.9-9.6,4.6-10.4,20.6-18C141.5,919.6,148.8,910.3,160,915.2C160,915.2,160,915.2,160,915.2z"/>
<path fill-rule="evenodd" clip-rule="evenodd" d="M261,1000.1c-5.3,12.7-16.6,16.2-32.1,20.4C238.5,1007.5,250.7,1005.4,261,1000.1z
	"/>
<path fill-rule="evenodd" clip-rule="evenodd" d="M221.7,672.4c-6.8,4.7-13.5,9.3-22.3,15.3c9.3-14.3,11.4-15.6,22.5-15.3
	L221.7,672.4z"/>
<path fill-rule="evenodd" clip-rule="evenodd" d="M221.9,672.4c-0.3-10.9,1.1-12.4,18.3-16.8c-7.4,6.7-13,11.7-18.5,16.7
	C221.7,672.4,221.9,672.4,221.9,672.4z"/>
<path fill-rule="evenodd" clip-rule="evenodd" d="M461.4,369.6c-8.6-0.4-13.9-5.3-13.7-12.5c0.2-8.8,9.6-16.1,19.6-15.3
	c7,0.6,11.8,5.9,11.7,13C478.8,363.7,471.3,370.1,461.4,369.6z"/>
<path fill-rule="evenodd" clip-rule="evenodd" d="M55.3,531.7c11.1-13.6,21.7-27,32.9-39.9c4.9-5.7,6.9-5.6,19.2-2.6
	c-13,17.8-25.5,34.9-38.8,53.1c-1.5-1.1-3.5-2.5-5.4-3.9C61.1,536.7,59.2,535,55.3,531.7z"/>
<path fill-rule="evenodd" clip-rule="evenodd" d="M389.5,350c0.6,6.1-5.1,11.9-12.2,12.6c-7.6,0.8-13.4-3.1-14.5-9.8
	c-0.9-5.7,4.7-11.7,11.9-12.6C381,339.5,389,344.8,389.5,350z"/>
<path fill-rule="evenodd" clip-rule="evenodd" d="M416.8,154.1c-8.1,0.3-13.2-4.3-13.7-12.7c-0.7-10,7.5-19.8,17.1-20.7
	c9-0.9,16.6,5.5,16.6,13.8C436.8,144.6,427.6,153.7,416.8,154.1z"/>
<path fill-rule="evenodd" clip-rule="evenodd" d="M522,142.8c0.4,7.8-7.9,15.6-17.1,16.2c-6.2,0.4-11.7-5.2-12.2-12.5
	c-0.5-7.8,6.6-16.3,14.3-17.1C515,128.5,521.5,134.3,522,142.8z"/>
</svg>
