<?xml version="1.0" encoding="utf-8"?>
<!DOCTYPE svg PUBLIC "-//W3C//DTD SVG 1.1//EN" "http://www.w3.org/Graphics/SVG/1.1/DTD/svg11.dtd">
<svg artist="zl2017" version="1.1" id="zlIcon-book-open" xmlns="http://www.w3.org/2000/svg" xmlns:xlink="http://www.w3.org/1999/xlink" x="0px" y="0px"
	 width="1000px" height="587.1px" viewBox="0 0 1000 587.1" enable-background="new 0 0 1000 587.1" xml:space="preserve">
<g>
	<path fill-rule="evenodd" clip-rule="evenodd" d="M661.5,432.5c17-16.2,33.6-32.9,51-48.6c10.4-9.3,21.6-18.1,33.4-25.3
		c12.8-7.9,26.7-14.1,40.5-20.3c6.5-2.9,13.8-4.6,20.9-5.8c30.9-5,61.7-10,92.7-14.1c14.3-1.9,28.9-1.9,43.4-2.6c6-0.3,12,0,20.2,0
		c-3.8,2.5-6.1,4.6-8.8,5.5c-3.2,1-6.8,1.5-10,1.1c-25.9-3.1-49.4,7.7-73.9,12.7c-14.2,2.9-28.7,6.6-43,6.2
		c-21.9-0.5-40,8.6-58.9,17.4c-27.2,12.7-49.3,32.2-71.8,51.4c-9.7,8.3-20.1,15.9-30.2,23.8c0.7,1.2,1.3,2.4,2,3.6
		c3.4-1.6,7-2.9,10.1-5c21.5-15.1,43.7-29.5,64.2-45.9c22.9-18.2,49.9-24,77.1-30.1c9.8-2.2,19.4-5.3,29.1-7.7
		c22.2-5.3,44.4-10.4,66.6-15.6c1.1-0.3,2.2-0.7,3.3-0.7c22.3,1.3,43-4.9,63.5-12.7c-4.3-7.4-8.9-15.1-13.1-23.2
		c-0.4-0.7,2.5-3.1,4-4.7c13.5,6.5,21.5,16.5,25.6,31.5c-4,2.9-7.5,6.9-11.9,8.5c-30.5,11-60.6,23.7-91.9,31.7
		c-43.1,11.1-83,29.6-123.4,47.3c-21.5,9.4-43.3,18.4-64.1,29.2c-15.2,7.9-29.4,18.1-43.4,28.3c-9.6,6.9-19.2,9.7-30.9,8.2
		c-5.8-0.8-12,1-18,2c-24.2,4.3-48.4,8.7-72.6,13.1c-3.8,0.7-7.5,1.8-11.3,2.5c-10.3,2.1-20.7,4-31,6.3c-21.3,4.7-42.4,10-63.8,14.2
		c-35.2,6.9-69.7,15.9-103.3,28.6c-25,9.4-49.8,19.4-74.6,29.7c-5.6,2.3-10.3,6.6-15.5,9.9c-11,6.9-18.7,5.2-25.5-5.3
		c-26.4-40.9-51.7-82.6-79.7-122.3c-16-22.6-25.3-48.5-41.4-70.7c-8.5-11.7-16.6-23.7-24.5-35.8c-9.8-15-21.3-29.4-28.4-45.7
		c-6.5-15-17.2-25.7-26.4-38.2C10.1,254.3,5.4,241,1.2,228.3c-2.4-7.1,1.6-14.2,8.9-17.8c4.5-2.2,9.2-3.8,14.7-6.1
		c0-5.1,0-10.5,0-17.7c9.7,5.5,15.3,13.2,20.8,20.8c4.1,5.8,6.8,12.7,11.1,18.3c10.9,14.2,22.9,27.6,33.4,42.1
		c7.8,10.9,13.9,23,20.8,34.5c26.1,43.7,52.3,87.4,78.2,131.2c11.4,19.3,22,39.1,33.1,58.7c2.7,4.8,5.9,9.3,9.9,15.6
		c9.6-4.8,19.4-8,27.2-13.9c16.9-12.7,37.1-18.2,55.8-27c24.8-11.7,50.2-22.1,74.8-34.2c31.3-15.4,64.1-25.6,98-33.9
		c24.6-6,48.6-9.9,74.4-8.7c15.1,0.7,29,5.4,45,7c-6.6-8.4-14.7-14.8-17.6-23.1c-11.1-31.5-36.3-51.8-56.7-75.9
		c-18.5-21.8-37.2-43.3-56.2-64.7c-8.6-9.7-17.7-18.9-26.8-28.1c-18.1-18.3-36.3-36.6-54.7-54.7c-15.3-15-31-29.4-46.3-44.3
		c-4.9-4.8-8.9-10.5-13.3-15.7c0.9-0.9,1.8-1.8,2.6-2.8c7.3,5.5,14.5,10.9,22.1,16.6c39.3-42.6,83.8-76.6,140.7-90.5
		C556,0.5,585.6-3.7,613.1,3.5c-1.6,1.2-2.8,2.7-3.9,2.7c-43.6-0.3-85.7,9.9-126.7,22.6c-25.8,8-50.9,19.9-71.2,39.6
		c-14.4,14-30.3,26.5-46.7,40.6c4.3,4.6,7.4,8.2,10.9,11.5c29.3,27.7,59.8,54.2,87.7,83.2c26.4,27.4,50.3,57.3,75.2,86
		c3,3.4,5.6,7.1,9,10c25.8,22,41.1,51.9,60,79c7.6,10.9,15.1,22,22.5,32.9c18-16.4,34-32.8,51.8-47c36-28.5,72.3-57,115.2-74.7
		c21-8.7,42.1-16.7,65.3-20.3c21.4-3.3,42.4-3.6,63.6-4.7c10-0.5,19.9-2.7,31.7-4.4c-3.2-2.5-5.2-4.6-7.6-6
		c-41.1-23-80.1-49.1-117.4-77.8c-31-23.8-63.3-45.9-94.2-69.8C718.9,91.9,701.7,73.9,682,59c-17.5-13.3-35-26.4-50-42.4
		c-3.7-4-8.9-7.5-4.9-15.1c3,1.7,6.4,2.8,8.4,5.1c19.8,23.5,46.3,38.9,69.5,58.2c30.1,25.1,60.1,50.4,91,74.6
		c23.8,18.6,49.2,35,73.1,53.5c32.1,24.8,67.4,44.2,102.6,63.8c2.9,1.6,5.4,3.9,8.7,6.4c-7.5,7.4-16.1,7.2-24.9,7.7
		c-27.4,1.9-55,3.2-82.2,6.8c-29.6,3.9-57.9,12.8-83.8,28.2c-14.9,8.9-30.2,17-45.2,25.7c-2.7,1.6-4.7,4.2-7.1,6.3
		c0.6,0.9,1.2,1.8,1.8,2.8c11.3-6.4,22.6-12.8,34-19.1c21.4-11.7,45.6-14,68.9-19.1c32.6-7.2,66.7-7.2,98.4-19.5
		c2-0.8,4.4-0.9,6.6-0.8c4.9,0.1,9.8,0.4,17.9,0.8c-4.3,4-6.1,7-8.5,7.7c-31.2,9.2-63.2,13.6-95.4,17.9
		c-23.7,3.2-47.4,8.7-69.9,16.6c-30,10.5-58.3,25-80.6,49c-14.1,15.2-29.2,29.3-43.8,44c-3.9,3.9-8.6,7.9-5.1,14.5
		c-5.6,0.2-11.1,0.5-18.4,0.9c23.1-30.1,49.5-54.9,76.9-80.7c-12.4,0.2-18.8,8.9-25.8,15.1c-18.3,16.3-35.9,33.4-53.3,50.6
		c-5.8,5.8-9.9,6.6-17.3,1.6c-10.1-6.8-21.1-14.3-32.7-16.3c-20.3-3.5-41.2-3.6-61.9-4.1c-6.7-0.2-13.4,2.7-20.2,4.2
		c13.3,3.4,26.2,4.3,38.9,5.6c12.2,1.2,25,1,36.4,4.6c11.3,3.6,24.7,3,34,13.4c-6.7,1.6-13.6,3.1-19.5,1.3
		c-18.9-5.8-38.1-7.7-57.6-9.8c-22.5-2.4-43.5-0.7-64.3,7.4c-15.1,5.9-29.8,13.6-45.4,16.9c-21.9,4.7-40.2,16.5-59.8,25.8
		c-21.2,10.1-42.1,20.8-62.9,31.7c-12.8,6.7-25.4,14.1-37.8,21.5c-4.8,2.9-8.7,7.2-13.5,10c-3.1,1.8-7.2,2-10.9,3
		c0.9-4.9,2.4-7.3,4.4-9.1c17.7-16,38.7-26.4,59.9-36.7c8.4-4.1,16.2-9.3,24.3-14.1c6.8-3.4,13.6-6.8,20.3-10.2
		c5-2.8,10-5.6,14.9-8.5c-0.6-1-1.3-2.1-1.9-3.1c-5.5,2.2-11.9,3-14.5,10.1c-8.9-0.9-15.2,3.4-20.3,10.1
		c-22.9,4.1-43.2,14.5-63.1,25.8c-6.3,3.6-12.4,7.6-18.9,10.8C230.4,521,230.2,521,218,501c-18.9-31.1-37.7-62.2-56.4-93.5
		c-8.9-14.9-16.9-30.3-25.8-45.2c-13.6-22.6-27.1-45.3-41.5-67.3C83.6,278.7,72,262.9,60,247.5c-8.2-10.5-17.8-19.9-26.9-29.8
		c-6.6,2.2-12.1,4.1-19.1,6.5c7.8,11.8,14.9,21.7,21.2,32.2C51.9,284,68,312,84.8,339.6c11.4,18.6,23.7,36.7,35.3,55.2
		c7.1,11.4,13.3,23.3,20.7,34.5c13.2,20.1,27.5,39.5,40.5,59.8c14.8,23.1,28.7,46.8,43.2,70c2.6,4.1,6.3,7.5,9.7,11.5
		c7.9-4.4,14.6-8.2,22.8-12.7c-5.5-1.5-9.2-2.5-12.9-3.5c-0.9-1.4-1.9-2.9-2.8-4.3c3-1.5,6.2-2.9,9.1-4.5
		c17.5-10,34.7-20.7,52.7-29.8c21.9-11.1,44.5-20.9,66.8-31.3c20.3-9.4,40.6-19,61-28.2c24.4-11,51.1-12.6,76.9-15.4
		c28.6-3,57.8-1,86.7-0.3c5.1,0.1,12.2,1,15.2,9.7c-6.2,0-11.2,0.2-16.2,0c-15.1-0.7-30.2-1.3-45.3-2.3c-26.6-1.7-52.2,5.6-78.2,9.1
		c-16.1,2.1-31.8,5.9-44.7,16.7c-7.3,2.6-14.5,5.2-21.8,7.8c0.5,1.2,1,2.3,1.6,3.5c7.2-3.3,14.4-6.5,21.6-9.8
		c7.6-1.6,15.2-3.4,22.9-4.8c10.9-2,21.9-4.6,32.9-5.5c25.1-2,50.2-3.3,75.4-4.3c11.5-0.5,23.6-1.8,34.5,1
		c10.2,2.6,18.4,1.6,27.3-2.7c4.4-2.1,9.9-2.2,14.3-4.4c9.7-4.9,24.7-3.9,24.7-20.6C658.6,433.5,660.5,433,661.5,432.5z
		 M263.6,554.5c15.3-6.6,30.3-14.1,46.1-19.5c18.9-6.5,38.8-10.3,57.7-16.8c31.8-10.8,64.7-16.4,97.3-23.2
		c22.9-4.8,45.6-9.9,68.4-15c0.7-0.2,1-1.7,2.6-4.4c-5.3-0.5-10-1.7-14.5-1.3c-15.6,1.1-31.1,3.5-46.7,4.1c-25,0.9-48,9.1-71.3,17.1
		c-6.8,2.3-13.8,4.2-20.9,5.7c-16.3,3.5-33.3,5-49,10.2C306.9,520.2,284.8,537.5,263.6,554.5z M866.7,356.5
		c-0.2-1.6-0.3-3.2-0.5-4.8c-6.4,1-13,1.2-19,3.2c-20.6,6.8-41.1,14.3-61.6,21.5c-6.3,2.2-13,3.9-18.9,7
		c-9.6,5.1-18.6,11.2-27.9,16.9c0.7,1.3,1.3,2.6,2,3.9C782.8,388.3,824.7,372.4,866.7,356.5z M445,427.7c-0.8-1.8-1.6-3.5-2.4-5.3
		c-7,2.9-14,5.8-21,8.7c0.5,1.4,1,2.7,1.6,4.1C430.5,432.7,437.7,430.2,445,427.7z"/>
	<path fill-rule="evenodd" clip-rule="evenodd" d="M322.1,87.3c-26.6,2.4-53.2,4.4-79.7,7.4c-33.7,3.9-66.6,10.9-98.7,23.1
		c-37.1,14.1-67,37.6-96.2,63c-1.7,1.5-3.3,3-5.2,4.2c-0.8,0.5-2.1,0.3-4.2,0.6c-1.8-7.1,2.7-11.4,7.2-14.9
		c16.7-13,33.3-26.1,50.7-38.1c24.6-16.8,51.6-29.1,80.7-35.5c25.5-5.6,51.5-9.2,77.5-12.5c15.5-2,31.3-2.1,47-2.3
		c7-0.1,14,1.7,21,2.7C322.2,85.8,322.1,86.6,322.1,87.3z"/>
</g>
</svg>
