<?xml version="1.0" encoding="utf-8"?>
<!DOCTYPE svg PUBLIC "-//W3C//DTD SVG 1.1//EN" "http://www.w3.org/Graphics/SVG/1.1/DTD/svg11.dtd">
<svg artist="zl2017" version="1.1" id="zlIcon-book-open-worms" xmlns="http://www.w3.org/2000/svg" xmlns:xlink="http://www.w3.org/1999/xlink"
	 x="0px" y="0px" width="1000px" height="815.7px" viewBox="-130.3 -88.9 1000 815.7"
	 enable-background="new -130.3 -88.9 1000 815.7" xml:space="preserve">
<g>
	<g>
		<path fill="#FFFFFF" d="M91.8,590.1c-31,3.5-83.3,29.6-87.3-10.4c-1.2-12.1,16.9-8.5,39.2-5.6c13.7,1.7,22.9-0.6,35.4-3.5
			c25.4-5.8,53.3-11.9,61.5-12.3c11.5-0.4,52.1-21.5,72.7-42.3C236.4,540.7,102,584.3,91.8,590.1C88.9,589.1,93.3,589.1,91.8,590.1z
			"/>
		<path fill="#FFFFFF" d="M319.3,488.6c2.1-4,33.6,7.7,36.1,10.6c-11.7,4.6-41.9-3.1-55.2-4.8c-21.7-2.9-45.6,5.8-64,16
			c-6.7,3.7,2.3-7.3,4.2-8.5c9.2-5.2,16.3-10.4,26.5-13.8C280.8,483.4,306.2,479.9,319.3,488.6C320.2,486.9,317.3,487.4,319.3,488.6
			z"/>
		<path fill="#FFFFFF" d="M605,518c7.3-0.4,30.2,6.7,37.7,9.6c13.5,5,26,8.1,40.8,6.9c9-0.6,19.6,3.5,28.3,1.7
			c15-2.9,29-8.8,43.8-12.1c6.5,20.6-75.6,17.5-86.7,15C656.9,536.3,606.7,530.3,605,518C605.7,518,605.9,524.6,605,518z"/>
		<path fill="#FFFFFF" d="M523.1,499.2c3.3-6.9,47.7,4,48.6,16c-20-4.2-39.8-7.5-60-11c-5.8-1-41.3-2.1-42.1-1
			C472.7,498.2,516.9,497.6,523.1,499.2C523.8,497.6,520.4,498.6,523.1,499.2z"/>
	</g>
	<g>
		<path fill="#FFFFFF" d="M10.9,562c-0.2,1.5-0.2,3.3-0.4,4.8c-2.1-3.1-4.8-3.7-8.1-1.9c-13.6-21.7-2.3-24.4,24.4-20.8
			c21.5,2.9,40.8,2.9,62.3-1c29.6-5.4,71.5-17.1,92.7-40.4c15.4-16.9,40.4-28.1,62.7-35.6c28.3-9.4,73.4-6.9,96.7,15.2
			c-27.5-6.9-53.6-10.6-81.9-2.7c-28.5,7.9-49.6,37.7-79,52.9c-26.7,13.8-48.3,21-77.1,28.1C77.2,567,35.9,574.3,10.9,562
			C10.9,563.4,12.4,562.8,10.9,562z"/>
		<path fill="#FFFFFF" d="M593.4,485.1c11.9,1.7,19.2,3.3,30.2,7.5c20,7.5,38.1,10.4,59.2,12.3c17.3,1.7,40.6-4.4,57.1-9.6
			c16.9-5.4,30.2-7.7,31.3,9c1.3,21.1-88.4,22.9-96.3,22.9C652.1,526.9,593.4,515.5,593.4,485.1
			C598.4,485.9,593.4,485.7,593.4,485.1z"/>
		<path fill="#FFFFFF" d="M476,491.5c10.2-18.1,64.2-23.1,82.5-13.5c-7.5,6.3,1.7,8.1-0.8,14.2C559.2,488.6,480.8,494.9,476,491.5
			C478.1,487.8,476.3,491.7,476,491.5z"/>
		<path fill="#FFFFFF" d="M444.2,498.2c-2.3,3.8-6.5,3.7-10.6,2.5c2.5-6,14.6-11.1,21.3-11.7C455.6,495.9,450,500.9,444.2,498.2
			C443.5,499.4,445.2,498.6,444.2,498.2z"/>
	</g>
	<g>
		<path fill="#FFFFFF" d="M787.4,473.8c-49.8,19.6-110.9,31-161.9,11.2c-40.2-15.6-94.8-22.9-137.7-14.6c2.1-0.4,0.6-31.1,10.8-32.9
			c9.2-1.5,21.1,0.2,30.6-1.5c31.9-5.8,65.9,4.4,97.1,11.3c30.4,6.7,60.4,20,92.9,16.3c14.8-1.7,26.7,1.3,41.5-2.7
			C777,456.5,782.2,457.6,787.4,473.8C784.9,474.8,786.1,469.8,787.4,473.8z"/>
		<path fill="#FFFFFF" d="M335,464.6c-30-11.9-62.1-20.6-94.8-12.7c-29.8,7.1-44.6,27.1-68.8,42.7c-70.9,46.1-111.1,46.1-180.2,41
			c-20.6-1.5-2.5-30.8,4-28.1c14.8,6,37.9,7.5,53.5,3.7c31.5-8.1,62.9-13.7,92.5-27.9c38.1-18.3,65.4-48.1,111.3-49.4
			C260.6,433.8,343.3,450.3,335,464.6C331.9,463.4,335.4,464.2,335,464.6z"/>
		<path fill="#FFFFFF" d="M456.2,455.9c8.3,24.2-0.2,19.2-17.5,33.1c-5.8,4.6-30.8,16.3-35.6,15.2
			C407.9,505.3,444.2,460.5,456.2,455.9C456.5,457.1,454,456.7,456.2,455.9z"/>
	</g>
	<g>
		<path fill="#FFFFFF" d="M118.5,486.9c-22.7,5.2-48.8,23.5-72.1,21.7c-10.6-0.8-24.2-2.9-35.6-3.7c-13.7-1.2-21.5-14-34.8-9.2
			c-3.8-11.9,9.8-36.1,13.7-48.6c6.2-20.2,12.1-40.2,17.7-60.6c4.8-17.3,6.9-37.9,15-54c3.8-7.7,13.5-24.2,10-33.3
			c-4.4-11.7,5.2-28.5,7.9-39.4c3.7-17.1,3.3-40.4,10-56.3c6-13.8-1.2-32.7,0.8-47.3c1.5-10.8,5.4-52.9,14.2-57.1
			c21.3-10.2,62.7,49,61.7,61.9c-1,16.7-4,28.3-8.1,45c-4.6,18.1-11.9,33.3-0.6,50.6c15.6,23.8,45,19,65.8,16
			c25.4-3.8,38.6-9.8,38.8-38.5c0.4-37.3-7.9-63.3-37.3-86.5c-21.9-17.5-46.7-33.3-68.3-49.4c-7.3-5.4-29.6-16.7-38.5-18.3
			c-21.3-3.7-16.9-15.6-13.5-35c-1,5.4,76.7,11.3,84.4,15.4c19.4-1,50.6-11.5,74.8-25c9.8-5.4,33.8-24,44.6-27.5
			c19.4-6.2,35.4-10.4,56-11.2c9-0.4,21.7-0.6,30.2,3.5C359-3,373.8,8.2,379.1,7c32.9-6.3,22.3,49.2,22.5,64.2
			c0.6,46,0,107.1-1,164.8c-0.6,28.3-5,59.4-4.4,88.1c0,3.7-0.6,29.6-1.9,30.2c0,0,1.2,43.1,1.5,44c5,11.3-5.8,36.3-6.2,48.4
			c-0.2,7.5,2.7,15.4,0.4,22.5c-3.5,10.6-1.9,28.8-15.8,17.5c10.4-2.3-29.6-27.5-35.8-32.9C319,437.7,294,430.3,270,427.7
			c-29-3.5-50.2,4.6-77.1,15.6C167.2,453.8,144.3,475.1,118.5,486.9C116.4,487.2,121.2,485.5,118.5,486.9z"/>
		<path fill="#FFFFFF" d="M406,486.7c-3.7-28.6-2.9-63.1-1.3-92.1c1.9-37.1,4.6-71.5,6.2-108.6c2.3-60-0.8-127.5,0.4-190.5
			c0.2-17.5-1.5-35.8,0.4-52.9c1-8.8-1.9-19.6,0.2-27.9c1-3.5,7.5-2.9,9.2-5.4c15.8-24.6,60-11.3,82.3-10.2
			c36.7,9.4,60.2,24,94.8,26c5,0.4,21.9-2.1,25,1c13.3,13.5-13.7,40.4-23.6,45c-28.5,13.3-87.1-30.2-94.2,22.7
			c-5.4,40.2,44.6,53.5,70.4,28.1c22.1-21.7,52.7-28.3,71.3-62.7c9-16.5-5.4-38.1-1.2-39.4c13.1-4.2,35.6-17.5,49-15
			c13.1,2.5,12.3,90.6,13.8,106.5c3.7,36,13.1,73.1,20.6,108.1c5.6,26,10.8,52.1,17.5,77.7c6.5,25.2,20,55,34,76.9
			c7.3,11.3,13.3,30.8,23.1,40.6c19,18.8,6.7,21.9-16.1,34.8c-26.7,14.4-93.6,11.1-121.3,3.5c-45-12.5-80.2-27.1-127.7-25.4
			c-28.5,1-50.4,6-76.7,14.8C436.2,450.9,427.1,473.4,406,486.7C405.2,481.3,406.7,486.3,406,486.7z"/>
	</g>
</g>
<g>
	<path d="M47.2,438.8c-0.8-1.2-1-2.5-0.4-3.8c15.6-4.8,44.4,5.6,63.8-2.9C106.6,443.2,57.2,440,47.2,438.8
		C47,438.4,65.1,440.7,47.2,438.8z"/>
	<path d="M200.8,326.9c-2.7,2.7-32.7,21.1-32.9,15.6C167.8,334.8,195.8,322.3,200.8,326.9z"/>
	<path d="M329.1,63.5c11.5-1.9,22.5-2.9,36.3-0.8C366.9,74.8,335.8,66.6,329.1,63.5C331.6,63.1,330.8,64.3,329.1,63.5z"/>
	<path d="M281.4,216.5c2.1-0.8-16.7,7.3-18.3,10c-1-3.5-11.5,1.5-10.2-1.9C256,217.1,276.2,207.9,281.4,216.5
		C281.8,216.3,281,215.6,281.4,216.5z"/>
	<path d="M360.4,147.7c-9-6-19.2-7.7-29.8-5.6c-6.2-14.2,52.5,3.5,36.9,9.8C364.6,151.6,362.1,150,360.4,147.7
		C350.8,141.2,360.6,148.7,360.4,147.7z"/>
	<path d="M116,391.1c-12.3,8.1-44.2-4.8-59-6.2C66.4,369,101.2,396.7,116,391.1C111.6,394,113.3,392.1,116,391.1z"/>
	<path d="M338.1,406.3c-9.4-1.7-27.3-18.6-34-16.9c-0.6-1.3,0.2-2.5,2.1-3.3c-3.7,1.9-6.2,1.2-7.1-2.7
		C301.6,380.2,334.1,398.2,338.1,406.3C332.1,405.2,335.8,401.5,338.1,406.3z"/>
	<path d="M298.5,145.8c-1.5,0.4-19.2,7.1-21.1,1.2c-1.7-5.2,28.3-10.8,31.7-0.4C305.4,147.3,302,146.9,298.5,145.8
		C295,146.6,299.5,146.2,298.5,145.8z"/>
	<path d="M361.7,104.3c-3.5,4-18.6-2.3-26-3.8C339.8,89.8,359.2,94.1,361.7,104.3C360.6,105.4,361.7,103.9,361.7,104.3z"/>
	<path d="M245.6,198.1c6.7-11,13.5-14.4,24.6-11.2C264.8,191.5,253.1,201.7,245.6,198.1C246.4,197.1,249.5,199.8,245.6,198.1z"/>
	<path d="M219.3,321.1c-1.2,1.3-2.3,2.9-3.7,4.2c-3.8-11.7,26.5-16.5,31.7-8.7C242.2,318.1,228.5,322.5,219.3,321.1
		C218.3,322.3,220.8,321.3,219.3,321.1z"/>
	<path d="M247.5,296.7c4.4-4,22.9-13.3,27.5-1.5c1-3.7,1.3-3.3,4.6-1C276,298.3,253.9,298.8,247.5,296.7
		C250.4,294.2,248.9,297.3,247.5,296.7z"/>
	<path d="M241.4,86c-4,12.3-19.4,4-21.5,19.2c0.4,0.4-16.5-4.2-3.8-8.8C225.2,93.3,232.4,90.8,241.4,86
		C240.8,87.5,237.2,88.3,241.4,86z"/>
	<path d="M189.3,367.1c1.7-6.7,21.9-16,30.6-16.3C217,356.7,196.4,366.7,189.3,367.1C189.5,366.3,192.4,366.9,189.3,367.1z"/>
	<path d="M311.2,351.5c4.8,1.5,35.4,13.6,33.8,19.6C331.9,369.2,320.6,361.1,311.2,351.5C315,352.9,312.7,353.2,311.2,351.5z"/>
	<path d="M98,346.1c2.5-1,7.7,0.6,7.7,2.9c-4.2-0.4-35-3.1-33.3-8.7C74.1,334.4,97,345.2,98,346.1C102,344.6,97.2,345.4,98,346.1z"
		/>
	<path d="M79.5,301.3c9.6,3.5,19.4,9.6,27.1,16.5c1.3-5.4,1.5-4,4.2,0.8C105.1,319.2,75.5,307.7,79.5,301.3
		C83.2,302.7,77.8,304,79.5,301.3z"/>
	<path d="M344.3,213.5c6.3-6.5,21.1,5.6,24.4,10.4C357.9,223.3,353.3,218.7,344.3,213.5C347.3,210.4,345.2,214,344.3,213.5z"/>
	<path d="M296.4,65c-0.6,6.2-18.8,16-25.8,14.2C275.6,70.4,287.1,68.9,296.4,65C296.2,67.3,289.1,68.1,296.4,65z"/>
	<path d="M354.6,309c-3.8,1.9-5.6,0.8-4.8-3.5c-3.8,6.2-15.8-4.4-15.2-9.8C335.2,291.1,353.9,308.3,354.6,309
		C352.7,309.4,349.4,302.7,354.6,309z"/>
	<path d="M284.1,181.7c8.1-5.4,9-4,17.1-1c-1.7,5-18.1,3.3-22.7,6C276.6,182.9,283.7,179.4,284.1,181.7
		C285.8,180.6,284.1,181.4,284.1,181.7z"/>
	<path d="M162.9,374.8c-1.2,1-2.5,2.1-3.7,3.1c-1.5-11.7,15-7.3,22.7-11.2C181.2,372.5,164.1,376.7,162.9,374.8
		C161.8,375.7,163.5,375.7,162.9,374.8z"/>
	<path d="M237.7,160.4c-6,2.7-9.8,3.5-15.8,5C219.3,155.2,235.4,152.5,237.7,160.4C235,161.6,237,157.7,237.7,160.4z"/>
	<path d="M197.7,306.9c-2.9-9.6,26.5-12.1,28.3-7.5C218.1,303.8,206,302.3,197.7,306.9C197.4,305.8,199.1,306.1,197.7,306.9z"/>
	<path d="M255.8,153.7c9-4.6,9.2-5.6,18.5-1.5C272.3,155.2,256,161.7,255.8,153.7C258.5,152.1,255.8,155,255.8,153.7z"/>
	<path d="M300.2,107.3c1-6.2,6.7-0.4,7.1,2.7c-7.1-1.3-23.1,3.1-27.3-0.8c4.6,1.5,7.1,0,7.5-4.6
		C286.8,103.3,303.3,106.4,300.2,107.3C300.4,106.6,300,107.5,300.2,107.3z"/>
	<path d="M311,246c10.4-5.4,9.6-2.5,18.8,0.8C327.5,253.5,314.1,247.7,311,246C313.7,244.4,313.5,247.5,311,246z"/>
	<path d="M255,248.1c-1.3,6.3-18.1,9.6-24.2,11.3C229.1,249.6,249.9,250.8,255,248.1C254.7,249.8,253.5,248.8,255,248.1z"/>
	<path d="M262.3,338.1c-2.3-0.2,20.2,3.3,12.9,6.7c-3.3,1.2-21.7-0.6-22.5-3.3C255.4,340.9,261.4,341.7,262.3,338.1
		C265,338.2,261.8,340,262.3,338.1z"/>
	<path d="M178.7,402.5c-1.2,0.4-21.5,8.7-21.1,9.6C154.9,401.5,172.2,400,178.7,402.5C174.1,404,177.4,401.9,178.7,402.5z"/>
	<path d="M269.3,380.5c0.8-3.8,2.3-3.8,4.4-0.2C234.3,385.9,263.3,372.5,269.3,380.5C269.8,379.6,269.1,380.2,269.3,380.5z"/>
	<path d="M328.7,174.8c6.9-10.2,18.5,2.7,21.9,2.7C343.1,176.7,336.4,175.4,328.7,174.8C329.3,173.9,333.1,175.2,328.7,174.8z"/>
	<path d="M162.9,311.7c-2.1,1.3-16,8.8-20.2,6.3C148.1,311.1,155.4,308.4,162.9,311.7C161.8,312.5,161.6,311.1,162.9,311.7z"/>
	<path d="M136.2,422.3c7.1,5.8-10.4,10.6-15,8.3C124.9,425.7,131.2,425.5,136.2,422.3C136.2,422.3,135.1,423,136.2,422.3z"/>
	<path d="M221.8,392.3c-6.3-1-12.9,2.5-19,4.4C201,388.4,218.1,386.5,221.8,392.3C219.5,391.9,221,390.9,221.8,392.3z"/>
	<path d="M339.1,337.1c-4-0.8-22.5-10.4-23.6-14.4C321.6,321.5,336.6,331.3,339.1,337.1C333.1,335.9,338.3,335.4,339.1,337.1z"/>
	<path d="M342.5,249.8c6.7-1,14,9.2,18.1,13.8C356.9,268.3,341.4,254,342.5,249.8C343.5,249.6,342.5,250.2,342.5,249.8z"/>
	<path d="M202.7,133.5c10.2-2.7,12.9-1,20.4-1.5C223.3,134.1,204.7,140.2,202.7,133.5C207.7,132.1,202.9,134.3,202.7,133.5z"/>
	<path d="M278.5,246.3c0,6.9-7.5,3.5-8.8-1c-2.9,3.5-6.5,5.6-11.2,6.2C258.5,241,272,247.1,278.5,246.3
		C278.5,249.4,276.4,246.7,278.5,246.3z"/>
	<path d="M127.2,390.2c-0.6-3.1-2.3-6.3,2.5-7.5C132.6,386.3,132,388.8,127.2,390.2z"/>
	<path d="M201,327.1c2.1-4.2,7.5-3.3,11.5-3.1C206.8,327.9,207,326.9,201,327.1z"/>
	<path d="M141.4,346.7c0.2,4.6-0.6,1.7-7.3,1.3C133.7,343.8,139.5,346.3,141.4,346.7C141.4,346.9,139.5,346.3,141.4,346.7z"/>
	<path d="M145.1,380.4c3.5-1.7,5.6-1.5,6.7,0.6C155.4,379.4,139.7,385.2,145.1,380.4C147.2,380.4,144.9,380.5,145.1,380.4z"/>
	<path d="M300.8,70.8c-0.6-3.3,0.2-5,2.5-5.2C305.2,67.7,303.9,72,300.8,70.8C301.4,69.1,301.4,71,300.8,70.8z"/>
	<path d="M112,316.5c2.5-1,4.4-0.4,6.5,1.7C112.6,318.6,112.6,318.6,112,316.5z"/>
	<path d="M315.4,214c-3.5,0.8-4.8-0.8-4-4.2C311.8,212.9,317,209.4,315.4,214C314.3,214,316.8,209.8,315.4,214z"/>
	<path d="M610,350.6c4-3.3,23.8-8.5,24.2-5c4.2-2.1,39.2-20.6,38.6-25.8c10.8,5.8-16.5,19.4-23.6,23.8
		C643.2,347.1,614.2,355.5,610,350.6C610.3,350.2,611.7,352.7,610,350.6z"/>
	<path d="M443.7,195.6c4-3.7,36.5-9.8,40.2-2.9C486.9,198.9,448.5,196.7,443.7,195.6C445,194.4,447.1,196.4,443.7,195.6z"/>
	<path d="M530,205.6c11.2,13.5-25.8,7.7-25-0.2C506.1,194.8,529.6,212.1,530,205.6C530.7,206.3,530,205.8,530,205.6z"/>
	<path d="M444.8,47.9c3.5-7.7,18.1-5.8,24.4-4.2c9.8,2.1,4.6,10.2,2.9,6.5C462.5,53.7,451.3,47.5,444.8,47.9
		C446.5,44.1,446.7,47.9,444.8,47.9z"/>
	<path d="M441.9,385.2c5.4-8.7,30-7.3,30-7.3C469.2,382.7,445,388.6,441.9,385.2C443.3,383,445.2,388.8,441.9,385.2z"/>
	<path d="M477.5,276.1c-7.1,3.1-30.6-4.4-37.3-8.3C447.5,265.4,474.8,265.6,477.5,276.1C472.5,278.3,477.1,274.8,477.5,276.1z"/>
	<path d="M739.5,391.1c10.8,7.7-6,10.8-12.1,14.6C722.8,408.4,726.7,393.2,739.5,391.1C740.9,392.1,737.8,391.5,739.5,391.1z"/>
	<path d="M595.9,293.4c1.3-1.2,2.9-1.3,4.4-0.6c2.9,2.9-27.1,8.8-33.8,3.5C575.5,291.3,585.9,291.9,595.9,293.4
		C596.1,293.3,593.6,293.1,595.9,293.4z"/>
	<path d="M540.9,324c8.7-8.7,16.3,13.1,22.9,8.3C571.7,340.7,544.8,334.8,540.9,324C544,320.9,541.1,324.4,540.9,324z"/>
	<path d="M522.1,320c2.3,6-22.5,12.1-25.8,8.1C488.6,318.4,519.2,320.2,522.1,320C523.3,323.3,517.3,320.4,522.1,320z"/>
	<path d="M677.6,161.2c-12.5-1-0.2-14.6,6.5-14.4C695.5,147.1,683.6,160.2,677.6,161.2C675.9,161,681.9,160.6,677.6,161.2z"/>
	<path d="M449.8,148.1c-3.1,2.7-3.3,1.9-6.3-1.5c8.3-6.9,16.5-2.5,26.3-1.5C469.2,153.7,455.4,149.2,449.8,148.1
		C449.2,148.7,453.5,148.9,449.8,148.1z"/>
	<path d="M645.7,126.2c-5.2,1.3-27.1,7.7-29.6,0.4C614.6,121.6,642.6,123.1,645.7,126.2C643.4,126.8,642.3,122.5,645.7,126.2z"/>
	<path d="M499.2,97.3c5.8-7.1-1.9,7.3-2.7,8.3c-3.1-7.7-21.3-7.9-20.4-16.7C484.2,90.4,491.3,93.9,499.2,97.3
		C499.8,96.6,494,95,499.2,97.3z"/>
	<path d="M664.2,402.1C707.8,411.1,650.1,414.6,664.2,402.1C669,403,662.3,403.8,664.2,402.1z"/>
	<path d="M515.4,45.4c-6.9,1.2-13.8-0.4-19-5c4-4.2,11.9-5.4,16.7-1.5C516.9,42,517.5,47.9,515.4,45.4
		C513.8,45.6,515.8,45.8,515.4,45.4z"/>
	<path d="M506.5,400.7c-7.9,0.6-15.6,1.7-23.5-1.2C487.3,393.4,523.4,392.5,506.5,400.7C504.4,400.7,507.3,400.3,506.5,400.7z"/>
	<path d="M611.7,209c-0.8,2.3-1.7,4.8-2.5,7.1c-2.7-4.8-15.4,4-19.4-0.2C581.5,207.1,610.9,209,611.7,209
		C610.7,211.7,610.2,209,611.7,209z"/>
	<path d="M536.9,367.1c5.2-1.9,8.7-1.2,10.4,2.3c-3.3,7.1-14,3.3-20.4,2.7C519.8,371.3,529,358.6,536.9,367.1
		C540.7,367.5,534.6,364.6,536.9,367.1z"/>
	<path d="M672.3,267.3c-2.5-12.1,25-11.2,17.3,1.5C687.6,264.8,676.3,266.3,672.3,267.3C671.1,262.3,677.4,266,672.3,267.3z"/>
	<path d="M515.2,161C477.9,142.5,521.9,154.4,515.2,161C512.3,159.4,516.5,159.6,515.2,161z"/>
	<path d="M679.9,109.6c-1.7,2.7-9.4,14.6-14,11.7C657.5,116.2,674,102,679.9,109.6C679.4,110.6,679.8,109.3,679.9,109.6z"/>
	<path d="M514.6,290.2c3.8-1.2,14.8,0.2,17.7,3.3c-5.2,3.5-16.7,0-17.5,1C502.1,307.9,513.8,274,514.6,290.2
		C517.7,289.2,514.4,287.7,514.6,290.2z"/>
	<path d="M698.4,354.4C700.7,371.7,654.6,360.9,698.4,354.4C699,358.4,695.5,355,698.4,354.4z"/>
	<path d="M539.2,250.2c4.8-1,27.3-4.6,29-2.3C570.9,251.7,541.3,257.9,539.2,250.2C542.5,249.4,540.4,254.4,539.2,250.2z"/>
	<path d="M495.6,245c2.9-8.5,17.9,2.3,23.5,3.8C511.1,255.4,502.3,250.6,495.6,245C496.7,242.1,497.5,246.5,495.6,245z"/>
	<path d="M645.9,198.7c23.5-10.6-1.2,15.8-8.7,7.5C634,202.9,643.8,193.3,645.9,198.7C646.3,198.5,645.7,198.5,645.9,198.7z"/>
	<path d="M452.9,94.8c-1.3,0.4-11.3,4.6-9.2-2.3c1.5-4.6,21.7-5.2,25.6-5.4C470.6,97.5,454.6,89.6,452.9,94.8
		C450.8,95.6,453.8,91.4,452.9,94.8z"/>
	<path d="M578,396.1c-3.5,3.7-26.7,6.2-26.3-1.5C552.1,389,575.9,395.2,578,396.1C577.5,396.7,577.3,395.7,578,396.1z"/>
	<path d="M573.8,215.6c-8.8,3.3-16.5,5.8-24.8-0.2C550.6,216.5,568,208.3,573.8,215.6C570.4,216.9,572.7,214.2,573.8,215.6z"/>
	<path d="M561.3,52.3c-3.8,5-30.2-2.5-25.4-9C542.5,46.6,556.5,47.2,561.3,52.3C560.6,53.1,560.4,51.2,561.3,52.3z"/>
	<path d="M617.3,171.5c-2.9-8.7,20.4-6.3,23.6-7.3C638.2,174,625.3,172.1,617.3,171.5C616.3,168.9,618.2,171.5,617.3,171.5z"/>
	<path d="M648.2,231.2c-1.5,13.7-20.6,4.6-22.9,11C628,236.2,647.1,230.6,648.2,231.2C648,232.7,647.8,231,648.2,231.2z"/>
	<path d="M592.5,178.3c-5.4,0.4-11.9-1-16.2-4.6C582.5,167.1,593.2,168.5,592.5,178.3C589.8,178.5,592.5,176.5,592.5,178.3z"/>
	<path d="M595.9,376.7c-6.2,0.6-16.9,3.8-21.5-1.9c7.3-1.7,20-5,26.7-1C600.3,374.4,596.7,378.8,595.9,376.7
		C591.9,377.1,595.9,376.7,595.9,376.7z"/>
	<path d="M445.4,336.9c1-8.5,23.8-10.6,31.1-10.4C471.3,333.1,454,334.6,445.4,336.9C445.8,333.8,449.8,335.7,445.4,336.9z"/>
	<path d="M672.4,224c0.2-6.3,15.2-6,11,0.4C680.7,228.7,672.3,233.8,672.4,224C672.4,222.3,672.4,226.5,672.4,224z"/>
	<path d="M624.6,399.8c2.9-1.7,16.7-4.4,19-0.2C648,407.8,624.6,399.6,624.6,399.8C628,397.7,627.8,401.1,624.6,399.8z"/>
	<path d="M532.1,166.6c6.7-7.3,15.4,5.8,15.4,8.3C539.2,170.6,541.3,174.6,532.1,166.6C536.3,161.9,534.6,168.7,532.1,166.6z"/>
	<path d="M465,228.5c-3.7,3.7-18.5,5-18.3-1.5C449.6,226.9,462.1,224.8,465,228.5C461.7,231.5,462.3,225.2,465,228.5z"/>
	<path d="M688,316.7c-1.3-4.6,8.5-13.1,10.4-6.9C699.9,314.6,691.3,317.3,688,316.7C686.9,311.9,692.1,317.3,688,316.7z"/>
	<path d="M624.4,283.3c2.9,2.1,5.6-4.6,8.1-0.4c2.9,4.6-9.4,6.7-12.3,6.9C620,286.3,621.3,284.2,624.4,283.3
		C624.8,283.4,623.4,283.8,624.4,283.3z"/>
	<path d="M630.5,376.5c3.3-3.5,12.3-4.6,16.5-4.2C642.5,378.2,637.1,379,630.5,376.5C633.6,373.2,632.3,377.1,630.5,376.5z"/>
	<path d="M600.5,246.5c3.1,7.1-13.6,5.8-11.5,1.7C592.1,245,595.9,244.4,600.5,246.5C602.1,250.2,597.7,246.3,600.5,246.5z"/>
	<path d="M456,405.3c-3.1,4.6-8.8,7.3-14,4.8C440.6,409.4,452.7,404.2,456,405.3C455.4,406.3,454.8,405,456,405.3z"/>
	<path d="M583,350.7c3.8,0.2,12.5-5.6,11.9,2.1C595,354.4,583,355.7,583,350.7C585.4,350.9,583,351.1,583,350.7z"/>
	<path d="M466,227.1c4.8-1.2,7.7,0.2,8.7,4C470.4,232.1,465.4,232.7,466,227.1C468.5,227.5,465.6,229.6,466,227.1z"/>
	<path d="M679.6,193.5c-2.1,2.1-3.7,1.7-5.2-1.3C676.1,189.6,677.8,190,679.6,193.5C678.4,194.2,678.2,192.3,679.6,193.5z"/>
</g>
<path d="M197.6,712.4c-30-2.7-62.1-2.9-85.6-23.1c-38.1-32.5,39.2-70.6,63.6-71.3c34.4-1.2,59.8,23.7,89.6,39
	c30.4,15.8,78.3-22.9,60-56.9c-13.8-25.6-59.6-60.4-86.1-48.6c-42.3,18.8-89.8,30.6-129.8,54.2C93.5,614.9-1.2,653.9-6.4,632.4
	c-5-20-22.3-66.5-8.5-85.6c-24-10.2-10.4-8.7-7.9-30.2c2.3-19.4-3.3-3.5-14.2-17.5c-5.2-6.5,6-21.9,8.7-27.5
	c-7.3-7.7-58.3,37.3-63.8,43.1c-17.9,18.8-21,81.3,6.3,94.2c11.5,5.6,20.4,16.9,30.4,24.6c7.5,5.8,28.6,35.6,4.4,22.1
	c-32.3-17.9-48.1-40.4-66.1-70.2c-37.9-62.3,12.7-100.9,60.6-126.3c14.4-7.7,48.8-21.5,44.2-43.6c-1-5.6,10.6-46,14.2-47.7
	c5.8-2.5,8.1-36.1,9.8-43.5c12.7-53.8-6.7-92.1-26-139.6c-10.6-26.5-22.7-57.5-3.3-83.4C-5.1,84.6,6.3,78.1,25.7,70.2
	c8.8-3.7,20.4,0.6,28.1-3.5c1.5-8.7,0-16-0.2-24.8c-1.2-32.7,24-0.2,36.1,1.3c20.4,2.5,46.5,10.6,70,7.5c27.1-3.7,50-7.7,47.9-38.6
	c-1-13.7-7.7-26.9-13.8-38.8c-1.3-2.7-13.5-32.5,1.5-17.5c11,10.8,22.1,25,25.8,40.4c1,4.2,2.1,21,7.3,23.5
	c9.4,4.4,23.5-20.2,32.7-19.4c5.2,0.4,7.9-5,11.5-6.2c9.8-3.3,21.7-4.8,31.9-6.2c17.7-2.3,36-1.5,53.1,3.7
	c11.9,3.7,23.8,8.1,35.2,12.9c21,9.2,10.8-5,14.6-17.7c5.8-19.6-9.8-78.6-41.7-62.3c-5.6,2.9-23.1-1.7-15.2-9.8
	c5.6-5.8,25.2-3.1,31.9-1.9c25.8,5,44,26.5,46.1,53.3c1.7,19.4,1.5,24,23.7,18.8c9.6-2.1,25.6-1.2,36,0.8
	c20,3.5,57.1,30.2,74.4,20.6c20-11.3,44.6-36.5,68.1-8.3c17.3,21.1,43.3,2.8,66-5.6c0.2,0,20.2-13.5,17.5,0.4
	c-3.5,16.9-3.5,38.1-0.4,55c2.5,15.2-7.5,36.3,13.7,29.4c8.7-2.9,16.5-14,21.9-20.8c9.4-11.9,6.3-29.6,18.1-39.8
	c12.5-11.2,28.3-23.3,46-22.5c12.7,0.4,24.8,0.6,34,10.8c7.3,7.9-22.1,4.4-24,4.2c-30-0.6-49,25.2-60,50.8
	c-5.2,11.7-29.2,54.2-44,47.7c-0.2,15,3.5,47.7,10.4,61.1c8.1,15.8,3.8,50.6,16.2,62.3c12.7,11.9,50.4-24,43.6-35.8
	c-10.8-19.6-2.9-55,21.9-58.4c44.2-6.2,71.3,45.6,51.5,83.1c-10,18.8-30.2,34.4-48.8,44.6c-9,5-53.4,19.6-61.1,12.7
	c5.8,29.8,16.7,56.7,27.7,84.8c7.5,19.4,25.8,57.3,44.8,65.9c-7.1,10.6-12.3,15.6-24.6,23.1c-17.9,11,3.7,24.2-11,32.3
	c-14.4,7.7-13.6,3.7-12.3,19.2c0,0.2-1.5,15.8-1.5,15.8c8.3,5.4,11,22.5,11.5,31.7c1.7,30.4-156.1-2.1-169.8-3.7
	c3.5,25,40,46.9,54.4,65c22.9,28.5,29,71.3,2.7,99.6c-17.1,18.6-74.4,19.6-97.3,10c-47.9-20.2-30.4-62.7-16.2-97.7
	c7.1-17.1,16-39.6,16.2-58.1c0.4-25-0.8-26.1-25-30.6c-8.1-1.5-99.6-14.6-102.1-5.8c-4.8,17.5-12.3,37.5-2.1,55.2
	c2.7,4.6,21.9,31.3,18.3,33.6c-12.7,8.1-24.4-19.2-27.1-25.8c-9.4-23.7-14.4-42.5-4.2-66.7c-14.6-2.7-74.4-7.7-83.8,5.2
	c0.2-9-64.2,6.2-69.2,7.7c0,0.8,24.4,13.1,26.3,13.3c14,0.8,26,22.3,31.9,32.3c17.5,28.3,23.3,49.2,1,76.5
	c-20.2,24.6-44,31.5-74,34.8C249.1,696.6,213.9,701.2,197.6,712.4C195.6,712.2,197.9,712,197.6,712.4z M118.5,486.9
	c20.4-9.2,47.7-28.5,65-42.9c21.1-17.9,61.3-19.6,87.3-16.5c24.8,2.9,42.9,9.8,65,19.8c7.9,3.5,48.5,37.1,39.2,39.2
	c13.3,10.8,13.1-18.8,14.8-31.1c1.9-13.8,3.8-33.3,1.7-46.7c-1.9-13.3,3.8-26.9,3.3-40.4c-0.4-11-0.8-23.1,0.8-33.8
	c2.1-13.1,1.7-28.1-0.6-41.3c-1.9-10.2,7.5-24.6,4-34.6c-5.4-16.2,1.5-36.7,0.8-53.3c-0.8-16.7-0.4-32.7-0.6-49.6
	c0-25.8,2.5-51.5,1.2-76.9c-0.6-13.5,6-60.2-5.2-64.8C341-10.1,290.4-9,239.1,25.4c-24.8,16.5-47.1,31.1-77.7,34
	C136,62,98.9,60.8,75.3,50.2C61.8,44.1,62,69.5,70.7,72.3C83.9,77,98.3,82,109.9,90.2c21,14.8,43.3,30,63.6,47.1
	c23.1,19.4,53.6,40.8,50.2,75.8c-1.5,16,3.8,34-6.2,48.3c-5.2,7.5-23.3,7.5-25.8,12.1c-4.4,8.1-30.8,1.3-38.3,4.4
	c-10.6,4.4-23.5-7.1-30.6-13.3c-27.3-23.7,0.8-61,1.9-89.4c0.8-18.6-5.8-42.7-23.1-53.5c-5.8-3.5-29.4-27.9-36.5-23.3
	C54.9,105,53.6,180,52,195.2c-3.7,34.2-18.1,67.5-19,101.1c-0.8,26.5-16.5,54.4-23.1,80.8c-5,19.8-10.2,39.4-16.5,58.8
	c-4.4,13.1-21.1,46.5-17.1,59.4c13.1-4.6,59.4,18.5,68.8,8.3c3.5-3.8,25.4-4.4,31.1-5.2C90.5,496.5,104.1,490.1,118.5,486.9
	C121.2,485.5,116.4,487.2,118.5,486.9z M406,486.7c12.1-7.7,20.8-22.9,32.1-32.1c12.7-10.4,30.2-16.1,45.4-21.1
	c27.7-9.2,69.4-9.6,98.2-4.8c32.7,5.4,64.4,21.9,96.5,25.2c15,1.5,31.9,3.3,46.9,3.1c11.2,0,36.3-8.1,45.6-4.6
	c11.5,4.4,49.6-18.7,37.5-29.6c-18.3-16.3-31.5-37.3-41.1-58.4c-2.7-6-8.1-33.3-11.2-35.8c-12.1-10.4-4-35.2-14-46.7
	c-3.7-4.2-10.8-32.3-11.5-37.5c-1.9-17.3-8.5-34-10.4-51.3c-3.8-34.6-10.6-69-14-103.8c-1.9-19-1.7-38.3-3.8-57.3
	c-2.1-18.1-0.2-35-22.5-24.6c-7.7,3.5-36.5,8.5-32.5,19.8c4.6,12.9,1.5,35-5.2,46.7c-8.1,14.4-20.6,18.6-34.6,25.4
	c-20,9.6-30.4,28.6-52.1,35c-33.1,9.6-64.2-24.4-46-56.3c9.2-16,41-12.7,55.6-9.2c25,5.8,40.2,5,55.6-18.3
	c20-29.8-18.5-24.8-35.8-25.6c-36-1.7-64.6-25.4-100.4-29c-17.9-1.9-43.5-3.5-59,8.3c-18.5,14-13.3,28.6-13.5,51.3
	c-0.6,59.6,0,119.6,1.9,179.4c0.8,14,0.6,34.2-3.7,47.3c0.6,0.2-0.8,65.6-1,72.3C408.7,397.1,400.6,444.4,406,486.7
	C406.7,486.3,405.2,481.3,406,486.7z M787.4,473.8c-8.1-25-37.3-3.8-59-6.7c-33.1-4.2-62.1-2.9-93.8-15.6
	c-29.4-11.7-61.3-12.7-92.1-13.7c-5.4-0.2-27.9-3.1-31.1,0.4c-2.9,2.9-10.6,2.7-14.2,3.7c-1.3,9-3.5,16.7-6,25.6
	c0.4-1.5,55.4-0.2,61.5-0.2c18.6-0.2,48.5,6.5,65,14C670.5,505.5,734.5,494.6,787.4,473.8C786.1,469.8,784.9,474.8,787.4,473.8z
	 M335,464.6c6.7-11.7-67.7-27.7-75.9-27.7c-42.1-0.6-78.8,20.2-110.9,46.1c-21.9,17.5-60.9,27.9-88.4,29.6
	c-17.5,1.2-42.9,4.4-59.4-2.7c-15.6-6.7-27.7,24.8-8.8,25.8c31,1.5,66.5,4,96.5-3.7c27.7-7.1,52.5-19,77.5-32.7
	c4.4-2.5,28.5-19,28.5-24.2c0-7.3,33.3-19.8,40-22.3C266,440.5,304.6,452.5,335,464.6C335.4,464.2,331.9,463.4,335,464.6z M10.9,562
	c21.7,10.8,62.9,6.7,85.9,0.2c30.6-8.7,56.1-13.3,82.9-31.7c24-16.5,47.7-36.9,73.6-49c28.3-13.1,60.2-6.3,88.1,0.6
	c-23.3-22.1-68.4-24.6-96.7-15.2c-22.3,7.5-47.5,18.7-62.7,35.6c-21.1,23.3-63.3,35-92.7,40.4c-16.9,3.1-40.2,7.1-57.3,4
	c-4.6-1-24.2-1.9-28.5,0.8c-3.7,2.3-1,13.5-1,17.1c3.3-1.7,6-1.2,8.1,1.9C10.7,565.3,10.7,563.6,10.9,562
	C12.4,562.8,10.9,563.4,10.9,562z M27,239.4c3.8,0.4,13.8-82.3,15.2-94.6c2.1-15,22.7-52.7-0.8-52.3C-38.2,92.9,21.4,202.9,27,239.4
	C27.4,239.6,26.2,234.4,27,239.4z M91.8,590.1c10-5.8,144.6-49.2,121.3-74.2c-8.8,9-56.7,50-69,41.7c-8.3,15.6-46.5,6-57.5,14.2
	c-7.7,5.8-74-0.4-74.2,1.7C10.5,592,13.2,605,37.6,597C48.9,593.2,80.7,586.3,91.8,590.1C93.3,589.1,88.9,589.1,91.8,590.1z
	 M593.4,485.1c0,24.8,58.3,43.8,78.6,39.2c6.5-1.3,105.4,0,97.1-20.8c-6.7-16.7-7.1-9.4-23.5-6.5c-17.9,3.3-35.8,6.9-53.8,8.1
	C654.8,507.8,627.3,490.1,593.4,485.1C593.4,485.7,598.4,485.9,593.4,485.1z M476,491.5c4.8,3.5,83.1-2.9,81.7,0.8
	c2.5-6.3-6.7-7.9,0.8-14.2C540.4,468.4,486.3,473.2,476,491.5C476.3,491.7,478.1,487.8,476,491.5z M319.3,488.6
	c-13.1-8.7-38.3-5.2-52.3-0.4c-8.1,2.9-13.3,6.7-20,10.4c-3.3,1.7-17.7,15.8-10.8,11.9c18.5-10.2,42.3-18.8,64-16
	c13.3,1.7,43.3,9.4,55.2,4.8C352.7,496.3,321.4,484.8,319.3,488.6C317.3,487.4,320.2,486.9,319.3,488.6z M605,518
	c1.7,12.3,51.9,18.3,63.8,21c11.2,2.5,93.2,5.6,86.7-15c-14.8,3.5-28.8,9.2-43.8,12.1c-8.7,1.5-19.2-2.3-28.3-1.7
	c-14.8,1.2-27.3-1.9-40.8-6.9C635.1,524.7,612.3,517.6,605,518C605.9,524.6,605.7,518,605,518z M456.2,455.9
	c-12.1,4.8-48.3,49.4-53.1,48.4c8.7,2.1,21.3-9.6,28.6-14.4C446.2,480.5,463.6,477.8,456.2,455.9C454,456.7,456.5,457.1,456.2,455.9
	z M523.1,499.2c-6.2-1.7-50.4-1-53.4,4c0.6-1,36.3,0,42.1,1c20,3.5,40,6.7,60,11C570.7,503.4,526.3,492.2,523.1,499.2
	C520.4,498.6,523.8,497.6,523.1,499.2z M616.9,15.6c0.6-16.5-35-14.2-35.6-2.3C581.1,17,613.4,15.6,616.9,15.6
	C616.9,14.9,615.9,15.6,616.9,15.6z M444.2,498.2c5.8,2.7,11.3-2.3,11-9.2c-6.7,0.6-19,5.8-21.3,11.7
	C437.7,501.9,441.9,502.1,444.2,498.2C445.2,498.6,443.5,499.4,444.2,498.2z"/>
<g>
	<g>
		<g>
			<path fill="#FFFFFF" d="M110.7,664.1c3.5-8.1,18.5-35,32.3-27.9c20,10.2,6.9,15,4.6,29.6c-1,4.6,14.4,26.9,2.7,26.5
				c-8.8-0.2-17.5,0.4-26.1-3.1c-6.3-2.5-12.7-19-13.5-20.2C110.8,669.5,110.1,665.3,110.7,664.1z"/>
			<path fill="#FFFFFF" d="M201.8,660.5c1.7,24-20.4,50.6-40.8,26.5C128,648,197,628.2,201.8,660.5
				C201.4,661.4,201.2,656.6,201.8,660.5z"/>
		</g>
		<g>
			<path d="M139.3,642c11.9,0.8,5.8,21.7-4.8,23.1C116.8,667.4,127,644.9,139.3,642C144.7,642.2,137,642.4,139.3,642z"/>
			<path d="M159.9,663.8c7.9-16.5,26.3-11.7,23.3,6.5C179.7,689.9,162.8,666.1,159.9,663.8C161.2,661.1,160.1,663.9,159.9,663.8z"/>
		</g>
	</g>
	<g>
		<g>
			<path fill="#FFFFFF" d="M600.9,700.5c-49.4-1.2-41.3-80.9-0.6-75.9C651.9,630.9,648.8,688.9,600.9,700.5
				C593.4,700.3,603.6,699.9,600.9,700.5z"/>
			<path fill="#FFFFFF" d="M685.9,663.2c0.4,21-12.5,42.5-35.8,39.8c-18.3-2.1-16.5-7.1-8.3-21.1c8.7-14.6-4.4-40.4,7.3-48.3
				C664.8,622.8,689.4,648,685.9,663.2C686.1,674.1,687.1,658.2,685.9,663.2z"/>
		</g>
		<g>
			<path d="M631.7,666.2c0.8,16.7-26.3,16-21.1,0.2C614,655.3,631.7,650.7,631.7,666.2C632.1,675.9,631.7,665.7,631.7,666.2z"/>
			<path d="M665.7,685.7c-14.2,2.3-10.8-25.8,2.1-22.9C683.2,666.2,680.9,687.4,665.7,685.7C662.5,686.1,669.4,686.1,665.7,685.7z"
				/>
		</g>
	</g>
	<g>
		<g>
			<path fill="#FFFFFF" d="M541.5,99.1c0.8-28.8,44.2-26.5,38.1-1.5C572.5,126,550.7,128.1,541.5,99.1
				C541.7,92.3,542.3,101.2,541.5,99.1z"/>
			<path fill="#FFFFFF" d="M530,120.2c-31.7-0.6-24-47.9,6.9-47.3c13.7,0.4,0.4,20.6-0.2,24.2C535.6,106.8,548.6,120.2,530,120.2
				C522.9,120,530.9,120.2,530,120.2z"/>
		</g>
		<g>
			<path d="M546.1,99.8c0-12.3,19-14.2,19.2-1.2C565.4,113.3,544.2,112.7,546.1,99.8C546.1,93.5,545.2,106.4,546.1,99.8z"/>
			<path d="M521.9,91c7.9-0.6,10.6,9.2,5.2,14.8C516.5,116.6,505.6,91,521.9,91C527.1,90.6,516.1,91,521.9,91z"/>
		</g>
	</g>
	<g>
		<g>
			<path fill="#FFFFFF" d="M123.1,213.7c-4-38.1,75.9-42.3,62.9,4.6c-4.8,17.1-14,39-34.2,41.1C129.3,261.5,125.8,230.8,123.1,213.7
				C122.4,206,124.1,218.8,123.1,213.7z"/>
			<path fill="#FFFFFF" d="M187,265.8c-4.4-0.4-14.8,0.8-18.1-3.7c-2.3-3.3,0-6.5,4-9c14.4-8.8,16.5-36,22.5-42.7
				c18.3-20.8,25.6,26.7,24.8,33.1C217.9,262.5,206,264.6,187,265.8C181.6,265.4,187.6,265.8,187,265.8z"/>
		</g>
		<g>
			<path d="M178.1,221.3c0.8,15.4-25.6,23.6-29.4,6.9C143.9,207.5,174.3,194.4,178.1,221.3C178.5,227.9,177.9,219.2,178.1,221.3z"/>
			<path d="M213.7,237.9c1.5,12.5-18.5,17.5-20,4.4C192.2,230,213.7,223.7,213.7,237.9C214.3,243.1,213.7,233.1,213.7,237.9z"/>
		</g>
	</g>
	<g>
		<g>
			<path fill="#FFFFFF" d="M844.7,166.2c35.4,1.2,18.3,67.7-12.3,66.7C791.5,231.7,817.6,161.9,844.7,166.2
				C851.3,166.4,841.4,165.6,844.7,166.2z"/>
			<path fill="#FFFFFF" d="M791.1,173.9c-1.5-21.1,10.2-31.5,23.5-33.8c9.4-1.7,32.5,17.5,16.9,24.2c-11.5,4.8-16.9,29.8-27.1,34.6
				C793.8,203.5,791.3,180,791.1,173.9C791.1,167.5,791.5,184.2,791.1,173.9z"/>
		</g>
		<g>
			<path d="M841.8,200c-2.7,18.1-28.5,26.1-25.2,5.4C819.1,189.6,838.9,178.5,841.8,200C841.1,205.8,842,199.4,841.8,200z"/>
			<path d="M816.6,167.9c-0.2,15.4-20.8,25.2-20.6,7.5C796.3,161.9,811.6,150.2,816.6,167.9C816.5,172.9,816.6,167.5,816.6,167.9z"
				/>
		</g>
	</g>
</g>
</svg>
