<?xml version="1.0" encoding="utf-8"?>
<!DOCTYPE svg PUBLIC "-//W3C//DTD SVG 1.1//EN" "http://www.w3.org/Graphics/SVG/1.1/DTD/svg11.dtd">
<svg artist="zl2017" version="1.1" id="zlIcon-boom-nw" xmlns="http://www.w3.org/2000/svg" xmlns:xlink="http://www.w3.org/1999/xlink" x="0px" y="0px"
	 width="1000px" height="951.6px" viewBox="0 0 1000 951.6" enable-background="new 0 0 1000 951.6" xml:space="preserve">
<path fill-rule="evenodd" clip-rule="evenodd" d="M171.1,951.6c-5.5-2.2-5-6.7-5.2-10.2c-0.8-9.8-0.6-19.6-1.3-29.4
	c-1.4-19.2-0.9-38.4-1.2-57.7c-0.1-6-1.4-12.1-1-18c1.5-19.5-1.4-38.8-1.6-58.1c-0.1-10.1-2.7-20.1-4.1-30.2c-0.4-3.2-0.7-6.4-1-9.6
	c-0.7-9.6-1.2-19.2-1.9-28.9c-1.2-18.4-2.2-36.8-3.6-55.2c-0.7-8.7-2.1-17.4-3.2-26.1c-0.7-6.1-1.2-12.2-2.1-18.2
	c-0.7-5.1-1.8-10.2-2.8-15.9c-10.1,4.8-12.2,14.5-18,21.2c-5.9,6.8-10.9,14.4-16.5,21.9c-4-1.7-4-4-2.7-7.5
	c5.4-13.9,10.5-27.8,15.6-41.8c0.2-0.5-0.1-1.1-0.4-3c-2.5,0-5.4-0.7-7.8,0.1c-14.3,5-28.5,10.2-42.5,15.8
	c-6.7,2.7-13.1,6.3-19.4,9.8c-4.4,2.5-7.6,1.6-11.1-2.3c3.8-6.8,7.8-13.6,11.4-20.5c5-9.6,10.1-19.1,14.4-29
	c6.4-14.7,12.2-29.6,18.1-44.5c6.6-16.5,13.1-33.1,19.6-49.6c1.9-4.8,3.6-9.7,5.5-14.8c-7.2-3.3-13.6-0.7-19.6,0.2
	c-13.8,2-27.4,5.5-41.1,8c-2.8,0.5-5.9-0.9-9.1-1.5c0.3-5.8,4.3-7.8,7.4-10c9.3-6.6,18.9-12.8,28.3-19.3c4-2.8,7.9-5.8,12.5-9.1
	c-11.7-14.1-26.6-24-39.7-35.8c-13.2-12-27.8-21.5-46.7-26.4c7.4-8.8,16.7-11.4,23.4-17.6c6.8-6.3,14.8-11.3,22.1-17.2
	c7.3-5.9,14.3-12,21.3-18.2c6.9-6,13.7-12.3,21.4-19.2c-18.8-12.6-40-18.6-58-31.8c4.1-4,8.7-5.1,13.7-5c11.3,0.3,22.6,0.7,33.9,0.9
	c1.8,0,3.7-1,6.7-1.9c-3.8-5.3-6.6-10.1-10.3-14c-6.2-6.6-13-12.7-19.5-19c-2.3-2.2-4-5-6.4-7.1c-8.3-7.4-16.9-14.5-25.3-21.8
	c-3.6-3.2-8.4-5.6-8.3-12.5c4.5-1,8.9-2.4,13.4-2.9c22-2.5,43.9-5.8,65.6-10.6c2.2-0.5,4.4-1.3,7.1-2c-1.6-8.6-6.4-15.3-10.1-22.5
	c-4.4-8.5-9.8-16.5-14.8-24.7c-0.9-1.5-1.9-3-3.1-4.3c-2.6-2.7-2.8-5.6-1-10.1c18.7,8.7,33.9,23,52.7,32.4
	c-0.4-14.7-0.7-28.6-1.1-42.5c-0.1-2-1.5-4-1.3-5.9c0.2-2.7,0.6-6.2,2.3-7.9c2.3-2.3,5.2-0.6,7.8,1.5c7.7,6.3,15.8,12.2,23.5,18.5
	c10.2,8.3,20,17.1,30.3,25.2c12.6,9.9,25.5,19.3,38.3,28.9c1.3,1,3,1.4,5.8,2.7c1-11,2.1-21.1,2.9-31.1c0.8-9.6,1.2-19.2,2.1-28.8
	c0.2-2.3,1.7-4.5,2.6-6.7c0.8,0,1.5,0.1,2.3,0.1c5.5,20.3,11,40.7,17,62.8c3.8-3,6.7-4.7,8.9-7.1c10.6-11.6,21.3-23.2,31.5-35.2
	c21.7-25.7,45.9-49.3,64.8-77.3c3.9-5.8,7.6-11.7,11.8-17.3c1.8-2.3,4.5-4,8-7c0.6,3.8,1.7,5.9,1.1,7.5c-3.4,9.4-2.5,19.1-2.8,28.7
	c-0.2,5.2-2.3,10.6-1.3,15.5c1.2,6.2-0.3,12-0.4,18c-0.1,11.5-0.2,22.9-0.6,34.4c-0.2,4.9-1.4,9.7-1.4,14.6c0,4.9,1,9.8,1.2,14.7
	c0.1,4.3-0.4,8.7-0.6,13.1c0,1.5,0.3,3.1,0.6,5.4c11.1-4.6,19.1-14,33-15.8c-6,11.9-11.1,21.9-16.5,32.4c2.8,1.1,4.6,2.2,6.5,2.4
	c8.4,0.8,16.9,1.3,25.3,2.1c6.7,0.6,13.3,1.6,19.9,2.4c2.6,0.3,5.3,0.4,7.9,0.7c18,1.8,35.9,4.1,53.9,5.3
	c12.9,0.9,25.4,3.2,38.1,4.9c13.6,1.8,27.4,2.4,41,3.8c11.6,1.1,23.1,2.8,34.7,3.9c7.9,0.7,15.8,0.9,23.7,1.4
	c8.5,0.5,17,1.3,25.5,1.5c3.7,0.1,7.4-1.1,11.1-1.2c8.7-0.3,17.3-0.5,26-0.3c22.6,0.6,45.1,1,67.6,2.6c8.4,0.6,16.6,1.2,25.1,0.1
	c8.2-1,16.8,0.8,25.3,1.4c28.6,2,57.3,3.7,86,3.6c6.7,0,13.5,2.1,20.1,1.5c14.5-1.5,28.9,0.4,43.3,1.3c5.8,0.4,11.6,0,17.4,0.2
	c1.5,0.1,2.9,1.3,6.4,3c-4.2,1.8-6.8,3.8-9.2,3.6c-11.2-0.8-21.8,2.9-32.7,4.1c-4.9,0.5-9.8,1.6-14.7,2.2c-12.7,1.5-25.4,3-38.2,4.4
	c-7.5,0.8-15,1.4-22.5,2.3c-4.3,0.5-8.6,1.2-12.9,1.9c-3.7,0.6-7.4,1.5-11.2,1.9c-13,1.5-26.1,2.9-39.1,4.4
	c-0.9,0.1-1.8,0.2-2.6,0.3c-14.6,1.2-29.1,2.2-43.7,3.8c-8.9,1-17.8,2.8-26.7,4.2c-17.6,2.7-35.1,5.3-52.7,8.2
	c-14.4,2.4-28.6,5.4-43,7.7c-14.7,2.4-29.5,3.9-44.1,6.5c-20.6,3.6-41,8.1-61.5,11.8c-16.6,3-33.4,5.2-50,8.2
	c-7.9,1.4-15.6,3.8-25.6,6.3c9.7,5.8,17.5,10.7,25.5,15.2c13.7,7.8,27.4,15.7,41.4,22.9c13.2,6.8,26.9,12.6,40.3,19.1
	c12,5.9,23.8,12.2,34.6,20.4c0.3,0.3,0.3,1.1,0.5,2.1c-2.4,2.3-5,2-7.7,0.2c-1.4-1-2.8-2.7-4.3-2.8c-9.5-0.5-18.2-3.7-27.2-6.3
	c-10.8-3.1-21.8-5.6-32.7-8.4c-3.4-0.9-6.8-1.7-10.2-2.4c-15.2-2.7-29.7-8.3-45.5-8.6c-6.3-0.1-12.5-2.6-18.8-4
	c-1.3-0.3-2.7-0.5-4.9-0.8c1.6,7.1,7,10.1,10.9,13.9c18.1,18,36.8,35.5,54.8,53.6c11,11,21.1,22.8,31.7,34.2
	c6.3,6.8,12.7,13.6,18.9,20.5c0.7,0.8,1,2,1.9,3.8c-2.3,0.6-4.1,1.3-5.9,1.4c-1.1,0.1-2.3-0.6-3.3-1.2c-17.7-10-37.2-15.5-56.4-21.4
	c-10-3.1-20.2-5.4-30.5-7.6c-14.5-3.2-29-6-43.5-9.1c-12.2-2.5-24.5-5-36.7-7.7c-2.3-0.5-4.5-1.4-7.8-2.6c0.5,2.5,0.5,4.8,1.5,6.6
	c10.1,19.1,20.4,38.2,30.6,57.3c2,3.7,3.6,7.5,6,12.7c-8.9-1.4-13.6-6.3-19-10c-10.8-7.4-21.2-15.5-33.7-20c-2.6-1-4.9-2.7-8.9-5
	c0.2,3.5,0,5.7,0.5,7.8c3.9,17.3,7.6,34.7,11.8,52c3.3,13.5,7.4,26.8,10.7,40.4c2.4,10.2,4,20.6,6.1,30.8
	c3.1,14.8,6.5,29.6,9.5,44.4c1.4,6.7,2.4,13.5,3.7,20.3c-0.6,0.5-1.2,0.9-1.8,1.4c-2.3-1.2-5-2-6.9-3.6
	c-14.9-12.8-29.3-26.1-44.5-38.5c-20.1-16.4-40.9-32.1-61.3-48.1c-3.8-3-7.6-5.9-12.2-8.4c11.5,40.4,20.5,81.4,37.4,120.5
	c-6.5,1.2-7.5-1.8-8.7-4.9c-7.1-17.6-14.1-35.2-21.4-52.7c-6.8-16.1-14-32.1-21.1-48.1c-0.9-2-2.4-3.8-4.7-7.4
	c-5.8,21-11.2,40.3-16.5,59.5c-4.8,17.1-9.5,34.3-14.2,51.4c-2.2,8.1-4.4,16.3-6.6,24.4c-4.6,17.1-9.5,34.2-13.7,51.4
	c-5.3,21.7-9.9,43.7-15,65.5c-4.8,20.7-9.9,41.4-14.7,62.1c-1.8,7.9-2.8,16.1-4.3,24c-2.9,14.6-5.8,29.1-8.9,43.7
	C173.4,947.1,172.2,949.1,171.1,951.6z"/>
<path fill-rule="evenodd" clip-rule="evenodd" fill="#FFFFFF" d="M131.7,421.1c-5.2,13.1-9.8,25-14.6,36.8
	c-4.8,11.6-9.5,23.3-14.7,34.7c-5.3,11.6-11.6,22.8-16.6,34.5c-4.9,11.5-8.5,23.6-13.1,35.3c-4.5,11.6-9.5,23-14.7,35.5
	c2.2-0.6,3.1-0.7,3.9-1c17.8-8.8,35.5-17.8,53.4-26.4c7.6-3.6,15.5-6.4,23.4-9.4c4.1-1.5,6.3,1.2,6.9,4.6c1.9,11.5,3.6,23,4.9,34.5
	c1.4,11.9,2.2,23.9,3.4,35.8c1.4,13.7,3.1,27.3,4.2,41c1.4,17.5,2.4,35,3.5,52.5c0.2,3.8-0.4,7.8,0.4,11.4
	c4.9,21.2,4.4,42.9,6.5,64.3c2.1,20.9,2.4,42.1,3.4,63.1c0.2,4.4,0.3,8.8,0.3,13.2c0,3.8,1,7.1,4.1,10.7c0.6-4.6,0.3-8.3,1.6-11.4
	c6.7-15.2,6.4-31.8,9.9-47.7c2.4-11.1,3-22.7,6.4-33.4c5.6-17.7,5.5-36.3,9.6-54.2c2.8-12.5,4-25.3,6.2-37.9c3-17.5,6.2-35,9.5-52.4
	c2.3-12,5-23.9,7.4-35.8c3-14.8,6-29.7,9-44.6c1.8-9.1,3.4-18.3,5.2-27.4c2.8-14.3,5.6-28.6,8.4-42.8c0.4-2.2,1.4-4.2,2.6-7.7
	c25.6,23.8,50.6,46.6,75,70.1c24.6,23.7,48.4,48.1,76.6,71.4c-1.2-7-1.9-12-3-16.9c-3.1-13.7-6.1-27.3-9.5-40.9
	c-4.2-16.6-6.4-33.8-12.4-50c-1.8-4.9-4.1-9.7-5.8-14.7c-7.2-21.2-13.5-42.7-17.8-64.8c-3.1-16.3-7.3-32.3-10.9-48.5
	c-0.6-2.7-0.4-5.6-0.6-8.7c2.8,0,4.6-0.4,6.2,0.1c20.2,5.6,40.3,11.5,60.5,17c12.1,3.3,24.2,6.7,36.5,8.9
	c27,4.8,53.5,11.7,79.7,19.8c8,2.5,16.2,4.3,24.3,6.4c0.3,0.1,0.8-0.6,1.9-1.6c-23.4-27.4-51.3-50.4-76-76.4
	c-24.7-26-49.9-51.5-75.9-78.2c3.6-1.7,6.3-3.6,9.1-4.1c8.3-1.4,16.8-2.9,25.2-3c22.3-0.3,43.9-5.1,65.7-8.6
	c21.6-3.5,43.2-6.5,64.8-9.9c10.7-1.6,21.3-3.4,31.9-5.1c6.9-1.1,13.8-2.5,20.7-3.4c13.9-2,27.8-3.4,41.6-5.7
	c23-3.8,45.8-8.4,68.8-12.2c12.4-2.1,24.9-3.3,37.3-5c11.5-1.7,23-4,34.6-5.3c13.9-1.6,27.9-2.4,41.8-3.6c1.8-0.1,3.5-0.2,5.3-0.4
	c11.5-1.7,23-3.5,34.5-5c9.2-1.2,18.5-1.9,27.8-2.9c2.2-0.2,4.9,0.1,5-4.3c-13.4,1.3-26.2-2.8-39.7-1.5c-10.3,0.9-20.8-0.9-31.3-1.4
	c-4.4-0.2-8.8-0.2-13.2-0.4c-18.1-0.6-36.2-1.5-54.3-1.8c-27.3-0.6-54.7-0.9-82-1.2c-5.7-0.1-11.1-1.4-17.1-0.7
	c-9.2,1.1-18.8-0.8-28.2-1.1c-12.9-0.4-25.8-0.3-38.8-0.7c-9.3-0.3-18.6-1.4-28-1.6c-12.2-0.3-24.5-0.1-36.7-0.1
	c-2.1,0-4.1,0.1-6.2-0.1c-18.9-2.1-37.9-4.1-57-3.5c-3.2,0.1-6.5-0.1-9.7-0.5c-13.3-1.4-26.7-3.1-40-4.1
	c-15.2-1.2-30.4-1.9-45.6-2.4c-11.1-0.4-22.2-0.4-33.3-0.2c-6,0.1-8.1-1.5-7.2-7.8c1-7.8,2.2-15.6,3.9-23.3
	c5.7-25,10.3-50.2,11.8-75.9c0.3-4.4,0.5-8.8,1.5-13c3-12.7,3.9-25.7,5.5-38.7c0-0.3-0.8-0.6-1.9-1.4c-2.6,3.2-5.3,6.6-8,9.8
	c-9.4,11.2-18.8,22.4-28.3,33.5c-6.1,7.1-12.2,14.3-18.5,21.2c-7.5,8.2-15.5,16-23,24.3c-14.8,16.4-29.4,33-44.1,49.4
	c-3.9,4.3-9.7,4.7-14.1,1c-5.4-4.5-10.6-9.1-15.8-13.8c-10.9-10.1-21.7-20.4-32.7-30.4c-13.8-12.6-27-25.9-42.2-36.9
	c-2.6-1.9-4.8-5.3-9.8-4c0.6,11.2,1,22.3,1.7,33.4c0.2,3.8,1.2,7.4,1.6,11.2c1.4,12.2,2.4,24.4,4,36.6c0.9,6.9-1.1,10.5-8.1,10.8
	c-9.7,0.5-19.4,0.3-29,0.7c-4.6,0.2-9.2,1.6-13.8,1.5c-11.4-0.4-22.7-1.7-34.1-2c-7.8-0.2-15.5,0.5-23.4,0.8
	c0.2,1.4,0.1,2.2,0.4,2.5c15.4,14.3,30.7,28.7,46.3,42.8c11.7,10.6,23.6,20.9,35.4,31.4c4.8,4.3,9.7,8.5,14.2,13.1
	c4.5,4.6,3.8,8.8-1.6,12.3c-6.9,4.4-13.8,8.7-20.6,13.2c-16.2,10.9-32.7,21.4-47.7,34.1c-5.1,4.3-11.2,7.4-16.7,11.1
	c-6.9,4.6-14.5,8.6-19.9,16.3c12.9,7.6,25.5,14.8,37.8,22.3c12.5,7.5,25.3,14.7,37.1,23.2C106.8,407.6,120.7,412.5,131.7,421.1z"/>
<path fill-rule="evenodd" clip-rule="evenodd" d="M151,195.7c5.5-0.2,8.8,1.5,11.1,4.7c17.2,23.4,38.7,43,58.2,64.3
	c4.4,4.8,10,8.6,15.6,13.3c2.7-4.2,5.3-7.7,7.2-11.5c5.9-12,11.8-24.1,17.1-36.3c5.9-13.6,11.5-27.4,16.9-41.3
	c2.3-6,3.8-12.2,6-18.3c0.4-1.2,2.1-2,3.9-3.6c3.3,7.8,1.5,14.8,1.1,21.6c-0.8,11.9-2.9,23.7-3.6,35.6c-0.9,15.2-1,30.4-1.7,45.6
	c-0.4,9.5-1.2,19-1.9,29.5c12.1,7,22.5,17.2,36.1,23.1c12.5,5.5,24,13.2,36,19.8c2.3,1.3,5,2,7.1,3.4c1.7,1.2,2.8,3.2,4.1,4.8
	c-2,0.9-3.9,1.9-5.9,2.7c-0.5,0.2-1.2,0.1-1.8,0c-17.3-0.5-33.6,3.4-49.2,10.8c-5.5,2.6-11.5,4.1-17.2,6.3c-1.6,0.6-3,1.7-5.3,3
	c0.6,4.4,0.8,9.1,1.9,13.6c4,16.1,8,32.2,12.6,48.1c5.1,17.9,10.7,35.7,16.3,53.4c1.3,4.1,3.3,8,1.8,13c-6.2-1.9-9.4-6.6-13-10.7
	c-6.8-7.6-13.3-15.6-20-23.3c-11.9-13.7-23.9-27.3-35.7-41.1c-4.6-5.3-8.9-10.8-13.4-16.1c-3.4-3.9-7-7-12.8-4.1
	c-4.4,2.2-9.2,3.3-13.7,5.4c-13,5.9-25.8,12.1-39.1,18.3c-3.3-1.9-3.9-4.7-1.6-7.9c8.4-11.5,13.3-24.7,17.8-38
	c1.9-5.7,3.2-11.6,4.9-18c-14.9-8.9-28.8-17.5-42.9-25.5c-14.1-7.9-29.3-13.9-43.4-22.2c2.2-5,5.1-6.3,8.9-6.2
	c10.8,0.5,21.6,1.4,32.4,1.5c8.2,0.1,16.3-0.5,24.5-1c4.5-0.3,9.1-0.9,14.1-1.5C177.2,271.2,168.1,232.8,151,195.7z"/>
<path fill-rule="evenodd" clip-rule="evenodd" fill="#FFFFFF" d="M344.9,345.6c-2-1.5-2.6-2.2-3.3-2.5
	c-20.2-9.8-40.4-19.6-60.6-29.3c-4.2-2-6.4-4.8-6.2-9.5c0.4-13.1,0.7-26.2,1.2-39.3c0.3-7.7,1.3-15.4,1.6-23.1
	c0.3-9.8,0.1-19.6,0.1-29.4c-3.8,3.6-6.9,7.5-8.8,11.9c-5.8,12.7-11.8,25.4-16.4,38.6c-2.8,7.9-7.7,14.7-9.7,23.2
	c-2,8.8-8.9,8.9-14.7,1.8c-9-11.1-18-22.2-27.2-33.1c-8.5-10-17.3-19.9-26-29.7c-1-1.1-2.6-1.8-5.4-3.7c1.7,5.5,2.7,9.4,4.1,13.1
	c9.1,23,18.4,46,27.4,69c3.2,8.4,0.6,11.9-8.6,12.5c-7.9,0.5-15.9,0.1-23.6,1.5c-10.8,2-21.4,1.8-32.2,0.4c-2.7-0.4-5.6,0.4-8.4,0.7
	c1.5,2.7,3.1,3.8,4.9,4.7c11.8,5.7,23.7,11.4,35.5,17c3.7,1.8,7.4,3.5,11.2,4.9c11.5,4.2,23,8.2,34.4,12.5c3.9,1.5,4.6,4.3,2.4,7.6
	c-3.1,4.6-6.3,9.1-9.5,13.5c-6.5,9-13,18-19.4,27c-0.9,1.2-1.1,3-2,5.6c2.5-1.2,3.9-1.6,5-2.3c7.3-4.8,14.8-9.3,21.8-14.4
	c9.1-6.7,12.1-6.6,19.7,2.3c8.2,9.6,16.3,19.2,24.5,28.7c5.5,6.4,11.2,12.7,16.7,19.1c9,10.4,18,20.8,27,31.1c1.7,2,3.5,4.2,6.9,4.9
	c-5-13.8-9.8-26.9-14.5-40c-6.2-17.3-12.2-34.6-18.5-51.9c-2.4-6.5-5.7-12.7-8-19.2c-1.8-4.8,0.7-8.8,5.5-10.1
	c4.2-1.1,8.4-2.3,12.7-3.1C304,353.1,323.8,349.5,344.9,345.6z"/>
</svg>
