<?xml version="1.0" encoding="utf-8"?>
<!DOCTYPE svg PUBLIC "-//W3C//DTD SVG 1.1//EN" "http://www.w3.org/Graphics/SVG/1.1/DTD/svg11.dtd">
<svg artist="zl2017" version="1.1" id="zlIcon-bottle-baby" xmlns="http://www.w3.org/2000/svg" xmlns:xlink="http://www.w3.org/1999/xlink" x="0px" y="0px"
	 width="1000px" height="2535.2px" viewBox="0 0 1000 2535.2" enable-background="new 0 0 1000 2535.2" xml:space="preserve">
<path fill-rule="evenodd" clip-rule="evenodd" d="M295,696.1c-23.4-1.7-49.9-0.7-74.6-7.2c-9.4-2.5-21-22.5-20.2-33.7
	c3.7-52.5,17.2-104.9,16.1-157c-1.4-66.4,47.5-111.7,112.3-121.6c9.5-69.1,16.1-139.5,29.7-208.5c9.5-48.5,24-97.2,45.4-141.4
	c7.8-16.1,41.4-23.6,64.4-26.7c10.2-1.3,30.3,15.8,33.8,28c17.4,61.1,30.3,123.5,45.8,185c11.7,46.1,25.6,91.6,37.3,137.8
	c2,7.9-2.4,17.5-3.9,26.3c91.5,19.1,91.3,20.2,100.9,114c4,38.5,15.1,76.2,19.7,114.7c2,17.2,2.2,42.4-8,51.6
	c-32,28.9-25.8,64.7-27.3,99.8c-2.1,50.1-6.8,100.4-4.2,150.4c1.8,35,20.3,62.2,51.3,86.3c159.9,124.3,265.7,276.7,248.9,492.9
	c-3.7,48.6,17.2,98.5,18.8,148.1c7.7,228.8,12.9,457.7,17.9,686.6c0.7,33.1,0.5,67.4-7.1,99.2c-12.1,50.4-61.7,64.4-101.1,71.8
	c-86,16.1-174.2,20.6-261.6,28.9c-59.4,5.6-119.2,15.3-178.4,13.2c-102.4-3.5-204-17.5-291.4-78.8c-62.2-43.6-61.9-115.8-71.4-178.8
	c-29.4-195.4-55-391.7-75.9-588.2C1.2,1585.9-1.4,1481.3,1.7,1377.6c1.1-37.6,26.3-76.5,46.9-111c34.9-58.3,73.2-114.7,113.4-169.5
	c18.2-24.7,46.3-41.8,66.5-65.2c52.3-60.5,52.5-135.6,55.8-209.8C286.3,781,291.2,740.1,295,696.1z M931.9,2429.7
	c-2.8-17-11.5-38.6-6.1-43.3c20.1-16.8,17.1-36,17.1-57.8c0.1-140.1,8.9-280.5,0.7-420.2c-10.4-178.9-13.5-358.9-52.5-535.7
	c-18.5-83.8-39.8-165.8-96.2-230.9c-40.6-46.9-89.9-87.4-139.9-124.7c-46-34.4-44.4-79.7-45.8-127.6c-1.9-60.7-6.7-121.4-9.5-182.1
	c-0.3-6.8,3.9-13.8,5.5-19.1c-81.2,0-162.1,0-252,0c-3.1,70.2-2.3,139.6-10.5,207.9c-5.5,46.6-12.9,99.2-38.5,135.9
	c-39,56.2-99.2,97.3-141.3,151.8c-34.5,44.5-69.2,96.6-79.5,150.1c-16.8,87-20.8,178.2-17.3,267.1c3.9,100.3,22.7,199.9,34,300
	c17.2,152.2,33.9,304.8,93,447.7c23.8,57.5,50.9,112.3,126.5,127.2c145.6,28.5,290.3,5.4,435.4,5.2
	C819.3,2481.4,878.7,2466.4,931.9,2429.7z M561.6,647.3c81.6-13.9,86.6-19.1,79.7-98.9c-2.6-30.1-7.3-60.2-13.8-89.7
	c-1.9-8.5-13.3-20.9-20.8-21.1c-93.6-3.8-187.2-6.3-280.8-7.2c-9.8-0.1-20.4,10.9-29.4,18.4c-52.8,44.1-37.5,105.7-41.4,162.5
	c-2,29.1,15.5,36,39.7,36C383.8,647.3,472.7,647.3,561.6,647.3z M528,372.9c-10.1-40.5-36.1-87.6-28.3-128.2
	c10.6-56.1-13.6-103-16.4-154.4c-0.6-11.9-18.1-22.9-34.1-41.6c-44.2,109.9-56.6,212.2-43.3,324.2
	C448.4,372.9,488.8,372.9,528,372.9z"/>
<path fill-rule="evenodd" clip-rule="evenodd" fill="#FFFFFF" d="M931.9,2429.7c-53.1,36.7-112.5,51.6-176.9,51.8
	c-145.1,0.1-289.8,23.2-435.4-5.2c-75.6-14.9-102.7-69.7-126.5-127.2c-59.1-142.9-75.8-295.5-93-447.7c-11.2-100.1-30-199.7-34-300
	c-3.5-88.9,0.5-180.1,17.3-267.1c10.3-53.5,45.1-105.6,79.5-150.1c42.1-54.5,102.3-95.6,141.3-151.8c25.6-36.8,33-89.3,38.5-135.9
	c8.1-68.3,7.4-137.7,10.5-207.9c89.9,0,170.8,0,252,0c-1.6,5.3-5.8,12.3-5.5,19.1c2.8,60.7,7.6,121.4,9.5,182.1
	c1.4,47.9-0.2,93.2,45.8,127.6c50,37.3,99.3,77.8,139.9,124.7c56.3,65.1,77.7,147.2,96.2,230.9c39,176.8,42.1,356.8,52.5,535.7
	c8.1,139.6-0.6,280.1-0.7,420.2c0,21.7,3,41-17.1,57.8C920.3,2391.1,929.1,2412.7,931.9,2429.7z M214.1,1744.2
	c-4,6.3-8.7,10.2-8.4,13.7c10.2,117.3,21,234.5,31.3,351.8c3.6,41.9,3,84.4,10.7,125.6c2.6,14.3,22.4,29.1,37.8,36.3
	c21.3,9.9,45.7,14.4,69.2,18.5c12.8,2.2,35.7,2.3,37.9-3.1c5.3-13.2,4.1-31-0.1-45.3c-4.5-15.2-19.3-27.5-23.2-42.7
	c-30.1-116.4-57.7-233.5-88.1-349.8C270.5,1808.8,274.5,1757.2,214.1,1744.2z"/>
<path fill-rule="evenodd" clip-rule="evenodd" fill="#FFFFFF" d="M561.6,647.3c-88.9,0-177.8-0.1-266.7,0c-24.3,0-41.7-6.9-39.7-36
	c3.8-56.8-11.4-118.5,41.4-162.5c9-7.5,19.6-18.5,29.4-18.4c93.6,0.9,187.2,3.4,280.8,7.2c7.5,0.3,18.9,12.6,20.8,21.1
	c6.5,29.4,11.2,59.6,13.8,89.7C648.2,628.2,643.1,633.4,561.6,647.3z"/>
<path fill-rule="evenodd" clip-rule="evenodd" fill="#FFFFFF" d="M528,372.9c-39.2,0-79.6,0-122.1,0c-13.4-112-0.9-214.3,43.3-324.2
	c16,18.7,33.5,29.7,34.1,41.6c2.8,51.4,27,98.3,16.4,154.4C492,285.3,517.9,332.4,528,372.9z"/>
<path fill-rule="evenodd" clip-rule="evenodd" d="M214.1,1744.2c60.3,13,56.3,64.6,66.9,104.9c30.5,116.4,58,233.4,88.1,349.8
	c3.9,15.2,18.7,27.5,23.2,42.7c4.3,14.3,5.4,32.1,0.1,45.3c-2.2,5.5-25.1,5.4-37.9,3.1c-23.5-4-47.9-8.5-69.2-18.5
	c-15.4-7.2-35.2-22-37.8-36.3c-7.6-41.1-7-83.7-10.7-125.6c-10.3-117.3-21.1-234.6-31.3-351.8
	C205.4,1754.4,210.1,1750.5,214.1,1744.2z M260,1890.7c-2.6,0.2-5.2,0.5-7.8,0.7c-1.3,15.6-5.3,31.5-3.7,46.9
	c8.7,82.1,15.9,164.6,30,245.8c4.4,25.3,14.2,61.7,58.1,59C310.9,2125,285.5,2007.9,260,1890.7z"/>
<path fill-rule="evenodd" clip-rule="evenodd" fill="#FFFFFF" d="M260,1890.7c25.4,117.2,50.9,234.4,76.5,352.4
	c-43.9,2.8-53.7-33.6-58.1-59c-14.1-81.2-21.3-163.7-30-245.8c-1.6-15.3,2.4-31.2,3.7-46.9C254.8,1891.2,257.4,1890.9,260,1890.7z"
	/>
</svg>
