<?xml version="1.0" encoding="utf-8"?>
<!DOCTYPE svg PUBLIC "-//W3C//DTD SVG 1.1//EN" "http://www.w3.org/Graphics/SVG/1.1/DTD/svg11.dtd">
<svg artist="zl2017" version="1.1" id="zlIcon-boy" xmlns="http://www.w3.org/2000/svg" xmlns:xlink="http://www.w3.org/1999/xlink" x="0px" y="0px"
	 width="1000px" height="1548.6px" viewBox="0 0 1000 1548.6" enable-background="new 0 0 1000 1548.6" xml:space="preserve">
<path fill-rule="evenodd" clip-rule="evenodd" d="M424.5,283.9c-22.5-51.7-8.9-101.4-9.7-150.2c-0.1-7.5,5.4-15.3,8.8-22.7
	c15.7-33.9,32.5-41.1,68.9-29.1c7.3,2.4,13.9,6.8,20.7,10.2c29.1-19.9,32.7-54.4,55.8-80c38.8-1.7,60.6,34.1,93.8,49.3
	c20.4-2.3,36.6-12,51.6-28.1c12.2-13.1,29.1-22.2,45.1-31.1C771.1-4.4,784.6,5,785,18.9c0.6,20.3,0.1,40.6,0.1,62.9
	c28.1,7.9,50.6,1.6,71.9-11.9c6.9-4.4,12.4-11.4,19.7-14.7c6.8-3,16.5-5.7,22.5-3c11.2,5.1,9.1,16,5.9,26.6
	c-8,27.2-15.2,54.7-22.2,80.2c16.4,19,33,21.9,52.8,17.9c15.8-3.2,32.2-5.4,48.3-5.3c12.1,0,19.9,18.3,12.9,28.4
	c-5.7,8.2-12.1,17.3-20.5,21.9c-33.4,18.5-52.5,50.8-77.5,77.3c-14.3,15.1-13.2,34.3-14.1,52.2c-3.9,76.7-35.9,137.1-101,178.8
	c-19,12.1-38.8,23-58.1,34.6c-33.9,20.4-69.5,35-109.9,36.4c-11.8,0.4-24.3,4-34.9,9.2c-34.1,16.8-47.2,44-35.5,82.8
	c26.1,21.1,52.5,43.9,80.4,64.7c30.2,22.6,66.5,31.9,102.1,41.8c23.9,6.6,47.2,13.6,63.5,33.6c-6.7,44-34,70.4-73.8,82.4
	c-34.2,10.3-63.5,27.8-91.9,48.2c-6,4.2-13.9,5.9-20.5,8.6c-10-15.6-4.8-26.3,5.9-34.1c24.8-18.3,50.4-35.5,75.4-53.5
	c9.4-6.7,18.1-14.4,30.4-24.2c-15.6-16-33.8-12.9-47.8-19.1c-14.9-6.7-30.2-12.5-45.6-17.8c-15.5-5.3-32.4-7.4-46.7-14.8
	c-26.9-14-46.4-4.3-66.5,13.6c-21.4,18.9-29.5,40.4-31.6,69.5c-4.5,62.5,22.2,111,59.2,155.9c27.5,33.3,50.9,68,66.3,109
	c8,21.4,5.2,38.6-10.5,49.5c-56.9,39.5-58.3,99.7-62.6,158.9c-2.1,28.5-1.1,57.2-1.7,85.8c-0.4,17.6-6.7,32-26.3,41.8
	c-4.3-5.3-12.3-10.5-13.3-16.9c-5.7-36.4-9.3-73.1-14.5-109.5c-3.7-26.1-8.7-51.9-12.8-76.3c-15.9-8-31-11.9-40.4-21.4
	c-9.4-9.5-13-24.8-19.5-37.3c-12.3-23.6-25-47.1-36.7-68.9c-34.5-11.4-54.5-2.5-72.8,28.5c-22,37.4-47.7,71.6-40.8,114.7
	c-22.6,26.1-46.9,17.2-72.3,10.3c-5.4,7-12.6,12.5-14.6,19.5c-15.4,55-43.3,106.6-47.9,164.5c-1.8,22.5-8.7,39.9-30.9,48.7
	c-19-9.3-16.2-26.3-14.6-42.6c6.8-67.2,13.9-134.2,20.6-201.4c0.6-5.9-0.8-12-1.5-21.1c-14.1-6.3-28.8-13-43.5-19.6
	c-44.7-20-60.6-65-34-106.6c18.6-29.2,39.9-57.8,64.9-81.5c38.6-36.6,81.4-68.9,122.7-102.6c2.1-1.8,7.3,0.2,11.2,0.4
	c7,8.9,0.8,16-5.1,20.5c-33.3,24.8-59.7,54.7-81.4,90.7c-16.6,27.5-42.3,49.4-63.3,74.4c-12.2,14.6-20.4,30.9-13.8,50.9
	c65.6,36.3,110.9,52.7,163.2,58.3c9.6-23.1,22.8-46.6,29.2-71.8c12.3-47.9,42.3-73.5,89.4-81.8c12.1-2.2,24.2-4.4,40.4-7.3
	c26.2,39,53.4,79.5,79.8,118.7c54.6-11.5,54.6-11.5,106.3-51.4c-21.9-50.9-52.6-96.8-85.8-141.2c-7.3-9.7-17.8-19-20.3-30
	c-15-65.6-33.5-130.2-16.2-199.6c14.4-57.9,39-110.4,67.2-161.9c5.6-10.2,10.3-21,18.2-37.4c-25.4,2.7-40.6,11.3-51.5,26
	c-9.7,13.2-17.5,27.9-25.3,42.3c-16.5,30.5-34.9,59.2-59.4,84.4c-24.3,24.8-48.9,49.7-64.9,81.6c-4.1,8.1-14,13.3-26.4,24.5
	c-3-12.9-7.1-20.3-5.7-26.4c3.3-13.8,7.9-27.8,14.6-40.4c14.4-26.8,30.4-52.8,46.6-80.8c-23.4-13.2-40.8,5.3-59.8,6.1
	c-40.5,1.7-64.1,23.3-75.3,65.2c12.5,26.9,25.5,57,40.7,86c6.5,12.4,16.4,23.7,26.9,33.3c31.4,28.7,63.9,56.2,95.2,83.5
	c-7.3,20.4-19.2,29-38.1,29.7c-16.5,0.6-25.5-7.9-35.1-20.2c-12.4-15.8-27.4-29.8-42.6-43.1c-31.1-27.2-58.3-58-79.6-93
	c-35.6-58.7-36.2-129.5,29.2-180.9c36.6-28.7,75.1-47.7,124.2-45.2c58.5,2.9,69.7-5.9,105-60.6c-10.4-10.9-21.2-22.2-32-33.5
	c-11.2-11.7-25.3-21.8-32.8-35.5c-11.8-21.2-18.4-45.6-14-70.1C369.7,382.7,386.8,330.3,424.5,283.9z M643.6,242.3
	c-32.8-0.3-58.6,4.4-82.9,17.1c-28.9,15.1-57.4,32.2-88.1,42.3c-19.8,6.5-31.8,18.3-41.7,33.4c-8.8,13.5-14.7,29.2-20.3,44.4
	c-20.1,54.7-11.1,98.8,35.4,130.8c47.8,32.9,107.5,36.2,162.2,51.7c27.4-8.3,55.9-13.9,81.7-25.6c29.6-13.5,55.8-34.6,85.4-48.4
	c30.6-14.3,46.1-38.6,58.5-67.6C853,375.4,848,352.1,815,315C767.4,261.5,703.8,249.7,643.6,242.3z M887.1,236.4
	c-13.9-14.8-29.1-18.4-46.3-16.9c-26.9,2.4-41.5-14.3-50.9-36.1c-3.5-8.1-2.4-18.1-3.4-26.3c-53.8-9-53.8-9-60.7-59.9
	c-5.8,1.2-11.8,1.6-17,3.9c-62.8,27.9-62.8,27.9-113.1-9.3c-3.8,1.4-8.4,1.8-11.3,4.3c-7.7,6.6-15,13.7-21.8,21.3
	c-36.1,40.9-36,41-87.6,32.7c-8.7,36.1-8.7,36.1-1.5,75.8c3.9,0.8,8.2,3.1,11.5,2.1c17.5-5.4,35.3-10.5,52-17.9
	c95.1-41.7,183.3-25.2,267.5,30.1c16.6,10.9,30.6,27.7,55.3,26.9C868.7,257.2,877.9,246.8,887.1,236.4z"/>
<path fill-rule="evenodd" clip-rule="evenodd" d="M543.6,441.3c-7.1-6.4-14.8-13.1-22.2-20c-10.5-9.9-22.4-20.1-16.5-36.4
	c6.2-17.2,39.1-31.7,57.2-27c18.2,4.7,29.5,27.7,19.9,44.1C572.9,417.4,564.8,434.8,543.6,441.3z"/>
<path fill-rule="evenodd" clip-rule="evenodd" d="M685.9,443c-32.8-24.7-35.2-29.2-27.1-48.6c5.2-12.7,14.1-20.3,28.1-18.6
	c14,1.7,29.7,2.2,34.8,19.6c3.8,13,0.3,24.2-11.4,32C702,432.9,693.5,438.1,685.9,443z"/>
</svg>
