<?xml version="1.0" encoding="utf-8"?>
<!DOCTYPE svg PUBLIC "-//W3C//DTD SVG 1.1//EN" "http://www.w3.org/Graphics/SVG/1.1/DTD/svg11.dtd">
<svg artist="zl2017" version="1.1" id="zlIcon-bubble-dialog-rainbow" xmlns="http://www.w3.org/2000/svg" xmlns:xlink="http://www.w3.org/1999/xlink" x="0px" y="0px"
	 width="1000px" height="441.7px" viewBox="0 0 1000 441.7" enable-background="new 0 0 1000 441.7" xml:space="preserve">
<path fill-rule="evenodd" clip-rule="evenodd" d="M453.5,406.6c-8.8-7.5-10.5-16.2-12.5-23.8c-4.3-16.2-15.2-26.3-28.2-34.6
	c-3.8-2.4-9-3.6-13.6-3.6c-23.8,0-44.7,8.5-63.4,22.7c-13.3,10-26.5,20.2-40,30c-10.2,7.5-21.7,12.2-34.2,14.8
	c-14.3,2.9-28.4,6.8-42.7,9.9c-30,6.5-60.4,9.7-91.1,6.5c-3.5-0.4-7.1-0.3-10.3-1.4c-41.4-13.5-76.7-34.2-98-75.2
	c-15.7-30.3-21.4-61.5-18-94.7c1.2-11.6,3.5-23.6,7.9-34.3c7.5-17.9,16.2-35.5,26-52.2c8.8-15.1,21.1-27.5,36.6-36.5
	c40.3-23.3,79.8-48,122.1-67.5c26.4-12.2,53.4-23.2,82.2-29.5c20.3-4.5,39.9-12.1,59.8-18.1c6-1.8,12.1-4.1,18.2-4.3
	c23.2-0.7,45.2-7.6,67.8-11.3c10.2-1.7,20.8-1.9,31.2-2.2c20.2-0.7,40.3-1.4,60.5-1.2c11.6,0.1,23.3,2,34.8,3.4
	c15.2,1.9,30.2,4.8,45.4,6.4c18,1.9,35.8,4.3,53.3,9.6C662.5,24,678.4,26.4,694,30c20.3,4.7,40.7,8.8,60.6,14.8
	c21.9,6.5,43.9,13.5,64.9,22.6c25.4,11,51.6,20.4,74.6,36.4c24.1,16.8,46,35.7,60.6,61.9c4,7.2,9.6,13.6,14.9,20
	c9.5,11.4,17.3,23.6,20.7,38.1c3,12.9,5.8,25.8,8.4,38.8c0.8,4,1.2,8.5,0.3,12.5c-6.9,30.4-12.3,61.5-34.3,86
	c-6.5,7.2-12.4,15-18.4,22.7c-17.5,21.9-40.3,35.5-66.6,44.4c-15.8,5.4-31.2,12.1-48.1,13.1c-32.1,2-63.5-0.5-93.8-13.1
	c-38.5-16.1-77.4-31-116.1-46.4c-12.3-4.9-24.9-8.9-37-14.3c-16.1-7.1-33.2-10.1-50.2-13.7c-3.4-0.7-6.9-1-10.4-1.2
	c-31.2-1.7-51.7,10.6-64.9,38.9C457.1,395.6,455.8,400.2,453.5,406.6z M451,377.1c3.4-3.4,6.4-6.1,9-9.1
	c10.9-12.6,24.8-19.6,40.8-23.6c27.4-6.9,53.9-3.4,79.8,6.1c26.7,9.9,52.8,21,79.5,31c24,9,47,20.6,72,27.3
	c14.8,3.9,29.5,8.4,43.7,13.7c12.8,4.8,25.7,5.6,39,4c9-1.1,18-2.2,26.9-3.8c28.3-4.9,55.6-11.9,79.5-29.2c8.6-6.2,16-13.3,22-21.8
	c18.8-26.6,29.8-56.7,35.6-88.3c3.3-18.2,5.3-37.5-0.9-55.7c-5.1-15.1-10.9-30-21.1-42.8c-6.5-8.1-12.3-16.9-18.4-25.3
	c-15.3-21-33.1-39.5-56.6-51.4c-13.6-6.9-27.7-12.8-41.6-19.1c-36.7-16.8-75.6-27.4-113.1-42.1c-2.5-1-5.4-1-8.1-1.5
	c-10.9-2.2-21.8-4.2-32.6-6.6c-34.7-7.9-69.6-13.6-105.2-14.3c-7.6-0.2-15.2-0.2-22.8-0.6c-31.9-1.7-63.8-4.1-95.9-2.7
	c-23.6,1-47.3,0.2-70.8,2.4C341,28.3,291.8,40,244,58.1c-36.5,13.8-71.4,30.9-105,50.4c-25.2,14.6-49.2,31.2-69.5,52.8
	C52.8,179.1,39.1,199,26.7,220c-18.4,31.1-22.3,63.9-12,98.3c5.4,18.2,16.3,33.7,26.5,49.3c7.6,11.7,16.9,22,31.2,26.5
	c3.8,1.2,7,4.4,10.3,6.8c17.2,13,36.5,19.7,58.2,19.3c28.5-0.5,56.8-2.2,84.7-9.2c23.9-6,46.4-14,65.3-30.5
	c12-10.5,25.4-19.5,37.5-29.9c9.3-8,20-13.2,31.2-16.3c19.1-5.2,38.4-5.5,56.9,3.9C432.7,346.5,443,359.9,451,377.1z"/>
<path fill-rule="evenodd" clip-rule="evenodd" fill="#FFFFFF" d="M451,377.1c-8-17.2-18.3-30.6-34.5-38.8
	c-18.5-9.4-37.8-9.2-56.9-3.9c-11.2,3.1-22,8.3-31.2,16.3C316.3,361,303,370,290.9,380.5C272,397.1,249.5,405,225.6,411
	c-27.9,7.1-56.2,8.7-84.7,9.2c-21.6,0.4-40.9-6.3-58.2-19.3c-3.3-2.5-6.5-5.7-10.3-6.8c-14.2-4.5-23.6-14.7-31.2-26.5
	c-10.2-15.7-21-31.2-26.5-49.3c-10.3-34.4-6.4-67.2,12-98.3c12.4-21,26.1-40.9,42.9-58.7c20.3-21.5,44.3-38.2,69.5-52.8
	C172.7,89,207.5,72,244,58.1c47.8-18.1,97-29.8,147.7-34.5c23.5-2.2,47.2-1.3,70.8-2.4c32-1.4,63.9,1,95.9,2.7
	c7.6,0.4,15.2,0.5,22.8,0.6c35.6,0.8,70.6,6.5,105.2,14.3c10.8,2.5,21.8,4.4,32.6,6.6c2.7,0.5,5.6,0.5,8.1,1.5
	c37.4,14.7,76.4,25.3,113.1,42.1c13.9,6.3,28,12.3,41.6,19.1c23.5,11.8,41.3,30.3,56.6,51.4c6.1,8.4,11.9,17.2,18.4,25.3
	c10.2,12.8,16,27.7,21.1,42.8c6.2,18.2,4.2,37.5,0.9,55.7c-5.7,31.6-16.8,61.6-35.6,88.3c-6,8.6-13.4,15.6-22,21.8
	c-23.8,17.3-51.2,24.4-79.5,29.2c-8.9,1.5-17.9,2.7-26.9,3.8c-13.3,1.6-26.1,0.8-39-4c-14.3-5.4-29-9.8-43.7-13.7
	c-25-6.6-48-18.3-72-27.3c-26.6-10-52.8-21.1-79.5-31c-25.9-9.6-52.4-13-79.8-6.1c-16,4-29.9,11.1-40.8,23.6
	C457.4,371,454.4,373.7,451,377.1z"/>
</svg>
