<?xml version="1.0" encoding="utf-8"?>
<!DOCTYPE svg PUBLIC "-//W3C//DTD SVG 1.1//EN" "http://www.w3.org/Graphics/SVG/1.1/DTD/svg11.dtd">
<svg artist="zl2017" version="1.1" id="zlIcon-bugfix-crab-buben" xmlns="http://www.w3.org/2000/svg" xmlns:xlink="http://www.w3.org/1999/xlink"
	 x="0px" y="0px" width="1000px" height="869.5px" viewBox="-214.9 -136.7 1000 869.5"
	 enable-background="new -214.9 -136.7 1000 869.5" xml:space="preserve">
<g>
	<g>
		<path fill="#FFFFFF" d="M487.1,116.1c-5.3-3.5-14.9,1.8-12.5-9.3C459.5,64.7,452.7,36.3,470-5.4c12.5-30,33.8-56.8,66.1-62.6
			c60.5-10.9,148-5.1,185.5,55.9c48.6,79.1-22.4,147.5-94.7,154c-18.2,1.6-93.7,10-114-7c-8.9-7.5,0.7-3.7-15.4-9.5
			C501,126.6,488.3,121.2,487.1,116.1z"/>
		<path d="M456.1,156.4c-23.9,26.5-59.3,0-56.5-31c1.2-13.3,25.3-24.6,23.3-35.4c-2.5-13.3-29.5-18.4-25.1-38.2
			c3.5-15.8,11.4-23.3,27.2-26c17.7-2.8,19.6-3,27.9-19.5c-6.3-9.6-20.5-27.9-7-38.6c5.3-4.2,16.1-5.6,21.7-1.2
			c6.5,5.1,19.3-13.2,22.1-16.3c23.2-28.4,68.7-30.9,101.9-31.2c39.5-0.5,70.7,16.7,104.2,33.1c15.4,7.7,33.3,23,43.1,37.4
			c13.9,20.2,3.9,11.9,20.9,7.7c14.6-3.5,23.3,10.5,25.1,21.6c2.5,14.4-17.2,19.6-21.7,32.4c-8.2,23.5,44.2,41.9,7.7,64.9
			c-11.8,7.4-23.2-5.1-27.9,13.2c-3.7,14.2,3.3,26.3-2.8,41.6c-5.1,12.5-16.8,24.9-32.1,22.1c-7.9-1.4-17.5-18.8-26.3-13.7
			c-29.3,17-18.6,50.3-56.5,61.2c-17.2,4.9-23.7-8.9-30.7-21.9c-7-13.2-22.3-13.3-37.2-11.6c-52.3,5.8-35.4,53.8-54.4,86.6
			c-14.9,26-55.1,30.5-78.7,44.7c-14,8.4-23.7,19.1-36.5,28.8c-16.1,12.3-10.3,31.4-6.3,50.5c5.6,26.7,11,33.5-9.8,53.8
			c-16.7,16.3-30.2,65.2-54.9,65.4c0.9-21.2,23-45.2,33.1-63.7c5.6-10.2,16.5-18.8,20-30c3.2-9.6-11.2-26.3-15.4-34
			c0.5,1.1-7-13-7.5-13c-20.2-0.7-13.9,22.6-13.5,36.1c0.4,14.7,4.7,22.5-7.2,34.4c-8.2,8.1-18.9,22.4-23.7,32.8
			c-2.8,6-17.9,11.9-14.9-0.2c3.2-12.5,14-24.9,21.6-34.9c9.1-12.1,10.9-14.9,4.9-29.1c-2.5-6-7-25.1-16.1-23.5
			c-11.6,1.9-6.3,23.3-6.3,33.1c0,17.7,2.1,20.7-10.5,34.7c-14.2,15.6-25.4,38.1-44.4,46.5c-3.7-16.7,21-44.4,28.8-58.2
			c10.9-19.6,1.8-28.4,3.7-49.6c-16,4.2-28.6,6.5-45.2,6.5c-7,0-14,0-21.2,0c-3.5,8.4-7,17-13,24.2c-19.5,23.2-4.9,44.2,4.2,67
			c2.3,5.8,4.6,11.6,6.8,17.4c-3,1.8-11.8,8.6-14.9,1.9c-6.1-13-10.9-29.8-19.5-41c-9.6-12.5,13.7-60,19.1-74.2
			c-17.9-5.4-22.1,3.5-32.1,18.4c-10.3,15.4-26.1,32.1-17.4,51.4c5.3,11.6,13.9,26,16,38.6c0.7,4.2-2.5,7.5-5.3,10
			c-7.9,7.4-11-10.3-13.2-13.9c-16-26-21.2-50-5.1-76.6c4-6.7,26.3-53,1.6-41.7c-15.4,7-31.4,33.5-41.6,46.8
			c-7,9.1-24.4,26.5-16,37.2c-4.4,4.7,3.2,32.3,4.6,37.7c1.6,5.8,20.2,51.6-1.4,43.8c-11.4-4-15.4-48.9-18.8-58.9
			c-10.2-29.3,12.6-64.9,23.7-92.1c7-16.8,17.9-26.5-1.6-35.3c-14.4-6.5-29.5-13.2-44.4-18.8c-31-11.4-64.7-14.7-96.6-23
			c-43-11-49.1-50.7-55.8-90c-2.8-16.3-7.7-32.4-11.8-48.6c-4.4-17.7-24.2-10.9-39.8-11.2c-29.6-0.5-49.1-10-45.2-43.8
			c1.1-10.3,9.3-95.6,19.3-88.9c10.3,7,5.1,31,6.7,41.6c2.3,16.7,4.6,40.9,12.5,55.9c6.3,12.1,23.3,19.6,36.5,19.5
			c15.1,0,11.2-17.4,11-28.1c-0.4-41.4-2.6-83.5-10-124.2c-3.2-17,11.4-6.3,18.2,1.1c10,11,17.4,26.7,25.8,39.1
			c9.5,14.2,20.9,19.6,13.7,36.8c-6.5,15.6-13.3,33.7-18.1,49.8c-5.4,18.8-6.8,29.3-6.5,47.9c0,1.8-4,10.9-4,13.9
			c0,7.9,0.9,15.8,5.4,22.6c18.9,27.7,13.5,81.9,52.3,94.5c20.9,6.7,43,7.9,64.7,7.5c18.6-0.4,22.8-9.1,37.2-19.6
			c31.6-23.3,74-43,112.6-49.8c10.3-1.9,20.5-4.7,30.9-7c10.3-2.1,16.5,4.6,15.4-8.9c-1.4-15.6-4.4-31.2-8.2-46.5
			c-4.4-17.4-9.5-34.4-14.6-51.7c-4.7-16.5-14.9-32.3-17.7-49.1c-4.9-28.8-22.6-61.2-37.2-86.3c-31,4-57.7,8.6-79.8-16.3
			c-59.5-67,23.7-149.6,96.3-105.1c27.9,17,33.5,60.5,17,87.2C151,8.3,142.6,10.1,153.1,36.2c7,17.4,16.7,32.8,23.3,50.5
			c13.2,34.4,22.1,70,34.9,104.2c5.4,14.9,10,31.4,12.6,47c1.1,6.3-0.2,14.4,4.2,19.6c2.3,2.6,14.6,3,16.5,0
			c12.5-18.9,6.3-68,7.4-90.3c1.6-31,1.6-61,1.1-91.9c-0.2-14-0.3-28.2-2.3-42.1c-3-22.1,1.9-27.2-21.7-31
			c-27.4-4.4-36-44.7-33.3-66.5c6.7-53.7,57.5-89.4,107.5-64.2c23.5,11.9,27.7,52.4,21,74C318.1-34.1,298.8-10,278.8,1
			c-15.3,8.4-16,4.4-15.8,23.5c0,9.3-1.9,26.8,1.1,35.4c8.6,24.7,1.2,64.2,1.1,90c-0.2,31.4,0.3,63,4.6,94
			c3.5,27,31.7,18.4,53.3,23.9c24.7,6.1,47.9,16.7,68.7,30.7c24.9,16.8,48.1,6.5,73.7-8.8c25.8-15.4,36.1-42.8,41.4-71.2
			C511,193.9,470.5,170.3,456.1,156.4C452.2,160.6,461.2,161.5,456.1,156.4z M562.4,44c7.2,27.2-35.8,48.9-41.6,76.1
			c-6.5,30.3,67.2,24.4,84.4,22.4c38.4-4.6,72.8-14.6,101.7-41.4c28.4-26.3,39.6-63.5,19.8-98.9c-30-53.7-120.8-83.7-178.2-64.5
			c-17.9,6-28.8,5.3-43.8,17.5c-11.2,9.1-23.2,23.7-28.6,37c-6.7,16.7-14,29.1-15.4,47.4c-1.9,23.7,8.8,46.8,16.8,68.7
			C506.2,88.5,529.4,56.6,562.4,44C563.6,48.7,559,45.2,562.4,44z M618,184.8c-8.4-22.3,16.5-24,32.3-14.2
			c11.2,6.8,8.1,9.8,20.7,2.1c12.6-7.7,25.4-14.4,36.5-24.2c-3.7-2.5-16.7-4-12.8-12.3c3.9-8.2,23.7-10.3,30.9-8.6
			c12.5,3,18.8-35.3,15.6-41.7c-50,61.6-130.3,82.3-206.4,69.4c6.1,20-2.6,33.1,23.3,37.2c11,1.8,67,14,72.1-2.5
			C627.2,185.2,623.2,183.4,618,184.8C617.1,182.5,623.2,182.5,618,184.8z M466.4,145.2c-1.2-8.1-5.8-13.5,0-21.4
			c5.4-7.5,1.6-6.1-1.6-13.3c-8.4-19.6-13.7-40.2-21.4-59.8c-3,0.5-7.4,23.7-7.7,27.7c-1.4,15.8,0.3,9.3,9.3,15.1
			c4.4,3,15.3,12.8,15.3,18.2c0.3,13.2-18.2,2.1-21.6,3.5C447.8,125.7,453.4,139.2,466.4,145.2C466.4,144.7,453.1,139,466.4,145.2z
			 M425.9,119.9c-8.1-3.3-3.2,23.3,1.4,27.2c4.9,4.2,12.3,4,16.3-1.2C437.8,137.1,431.9,128.5,425.9,119.9
			C423.3,118.9,432.4,129.4,425.9,119.9z M431.2,43.8c-9.6,1.1-21.2,4.7-14.2,17.7C426.1,78.2,430.1,48.7,431.2,43.8
			C427.1,44.2,429.9,49.1,431.2,43.8z M634.1,202.4c-6.7,1.4-13.3,2.8-20,4.2C613.4,225.7,634.6,219,634.1,202.4
			C627.2,203.8,634.4,210.9,634.1,202.4z M721.1,153.1c-6.5,4.7-13.2,9.6-19.6,14.4C711.6,173.2,731.8,167.1,721.1,153.1
			C714.4,158,725.1,158,721.1,153.1z M756.2,103.6c10.7,2.6,11.2-8.2,7.5-14.2C758.9,92.6,756.4,97.3,756.2,103.6
			C760.8,104.7,757.3,100.3,756.2,103.6z M758.3,19.1c3.5,13.9,6,8.9,11.7,0C766.2,19.1,762.2,19.1,758.3,19.1
			C759.2,22.2,762.5,19.1,758.3,19.1z M457.1-20.6c-1.8,4.2-1.2,7.7,1.6,10.3c4-1.4,5.8-4.7,5.3-10.3
			C461.5-20.6,459.2-20.6,457.1-20.6C457.1-17.4,459.6-20.6,457.1-20.6z M748.7,55.7c7.5,1.2,3.7-13,3-17.7
			C750.8,43.8,749.7,49.8,748.7,55.7C749.9,55.9,749.7,49.8,748.7,55.7z"/>
		<path fill="#FFFFFF" d="M159-40c4.2,74.5-125.9,61.6-117.2-9.3C51-123,159-110,159-40C159.7-28.6,159-42.8,159-40z"/>
		<path fill="#FFFFFF" d="M208.3-55.1c-2.6-66.3,67.7-89.8,98.6-29.6C319-61,300.2-17.4,274.1-8.4C240.9,2.8,210.2-22.5,208.3-55.1
			C207.9-64.7,208.6-49.7,208.3-55.1z"/>
		<path fill="#FFFFFF" d="M618,184.8c5.3-1.4,9.3,0.4,12.1,5.1c-4.4,14.7-51.9,5.6-61.9,4c-34.2-5.3-25.1-11.6-33.3-38.8
			c76.1,12.8,156.4-7.7,206.4-69.4c3.5,7.2-1.4,37.9-11.7,41.4c-16.7,5.6-50.3,2.6-21.9,21.2c-8.2,7.4-44.2,37.4-52.4,26.5
			C643.4,159.4,608.7,160.1,618,184.8C623.2,182.5,617.1,182.5,618,184.8z"/>
		<path fill="#FFFFFF" d="M466.4,145.2c-13-6-18.6-19.5-27.5-29.8c9.3-3.5,9.5,6.7,21-1.2c4.7-3.2-9.1-14.9-10.5-16.5
			c-3.2-3.5-13.3-4.4-13.7-9.5c-0.4-5.6,2.5-36.8,7.7-37.7c7.2,18.2,12.8,37.5,20,56.1c1.8,4.2,8.4,9.6,5.4,13.9
			C461.9,130.6,464.7,134.3,466.4,145.2C453.1,139,466.4,144.7,466.4,145.2z"/>
		<path fill="#FFFFFF" d="M425.9,119.9c6,8.6,11.8,17.2,17.7,26c-4.2,5.4-11.4,5.4-16.3,1.2C422.8,143.2,418,116.6,425.9,119.9
			C432.4,129.4,423.3,118.9,425.9,119.9z"/>
		<path fill="#FFFFFF" d="M431.2,43.8c-0.9,3.5-3.2,26.3-10.2,22.1C405.2,56.3,420.6,44.9,431.2,43.8
			C429.9,49.1,427.1,44.2,431.2,43.8z"/>
		<path fill="#FFFFFF" d="M634.1,202.4c0.7,16.7-20.7,23.3-20,4.2C620.8,205.2,627.4,203.8,634.1,202.4
			C634.4,210.9,627.2,203.8,634.1,202.4z"/>
		<path fill="#FFFFFF" d="M721.1,153.1c10.7,14-9.6,20.2-19.6,14.4C708.1,162.7,714.8,157.8,721.1,153.1
			C725.1,158,714.4,158,721.1,153.1z"/>
		<path fill="#FFFFFF" d="M756.2,103.6c0-6.3,2.5-11,7.5-14.2C767.4,95.2,767.1,106.1,756.2,103.6
			C757.3,100.3,760.8,104.7,756.2,103.6z"/>
		<path fill="#FFFFFF" d="M758.3,19.1c3.9,0,7.9,0,11.7,0C764.3,27.9,761.8,32.8,758.3,19.1C762.5,19.1,759.2,22.2,758.3,19.1z"/>
		<path fill="#FFFFFF" d="M457.1-20.6c2.3,0,4.6,0,6.8,0c0.7,5.4-1.1,8.9-5.3,10.3C455.9-13,455.4-16.3,457.1-20.6
			C459.6-20.6,457.1-17.4,457.1-20.6z"/>
		<path fill="#FFFFFF" d="M748.7,55.7c1.1-6,1.9-11.7,3-17.7C752.5,42.6,756.4,57,748.7,55.7C749.7,49.8,749.9,55.9,748.7,55.7z"/>
		<path d="M472,64.9c7.9-47,30.3-139.8,100.1-115c-7.5,8.4-25.3,5.3-36,10.7c-14.4,7.4-24.2,16-30.5,31.2c-6.7,16-13.5,27.9-17,45.4
			c-2.8,14.2-1.2,29.5-4.2,42.6C476.1,76.8,475.7,73.4,472,64.9C473.8,54.7,473.6,68.5,472,64.9z"/>
		<path d="M681.4-0.9c-2.1-6.3,8.2-6.3,11-5.6c11,2.8,14.9,18.2,15.6,27.7c1.1,16.7-0.9,27.4-9.6,42.4
			c-8.9,15.3-62.1,76.3-83.8,61.4c-4-2.8-13.2-3-17.9-5.3c-10.9-5.1,12.5-4,13.7-3.7c19.5,6.1,43.7-15.4,55.6-27.9
			c13.2-13.9,30-25.6,34-45.4C701.1,37,698.6-11.6,681.4-0.9C680-5.1,681.8-1.3,681.4-0.9z"/>
		<path d="M673,12.9c6.5,22.6-19.1,93.8-52.1,79.8c5.8-11.6,23.7-20.2,32.8-31.4C658.8,55.2,670.6,12.8,673,12.9
			C673.7,14.9,672.5,12.8,673,12.9z"/>
		<path d="M554.3-19C543.8-8.6,531-1.6,520.3,9.1c-8.8,8.8-1.8,24.9-13.9,32.1C498.9,11.2,525.4-17,554.3-19
			C551.8-16.7,537.8-17.7,554.3-19z"/>
		<path d="M98.8-25.5C106.9-6,68.7,5.4,71.3-20.7c0.9-7.7,6.5-18.9,15.4-19.3C94.4-40.2,102.9-25.6,98.8-25.5
			C102.2-17.2,99.4-25.6,98.8-25.5z"/>
		<path d="M245.4-55.6c19.1,1.9,8.4,27-4,31.6c-9.1,3.5-15.6-4.4-16.8-12.6C222.8-49.3,236.2-52.3,245.4-55.6
			C253-54.8,242.8-54.8,245.4-55.6z"/>
	</g>
	<g>
		<path d="M6.1,724.3c-0.7-5.8,2.5-61.7-17-44.5c-3,2.6-8.1,40.2-16.7,36.1c-10.5-4.9,5.1-45.1-8.1-42.6c-15.4,3-3.7,41.4-23.9,39.6
			c0-10.9,0-21.7,0-32.6c-29.8,1.9-58,13.2-87,20.5c-9.8,2.5-34.2,12.3-40.2-2.5c-2.8-6.8-10-9.6-12.3-17
			c-2.3-7.5-3.7-15.1-6.3-22.4c-13.5-36.1,6.3-57.5,34.2-75.9c6.5-4.4,7,3,8.9-7.4c1.1-6.1,1.1-13.7-1.4-19.5
			c-5.1-12.3-11-26.7-19.1-37.2c-2.6-3.5-25.8-25.1-11-24.6c11.6,0.4,21.9,21.9,26.7,30.5c7.7,13.7,11.8,27.7,17.5,42.3
			c4.7,11.8,14.6-15.8,14.7-16.8c3-14.7,16.7-76.6,33.3-78c4.7,11.7-1.4,19.1-7.2,30c-8.1,15.3-16.5,37.9-13.2,55.1
			c25.8-9.1,37-31.7,55.1-51.4c18.9-20.5,35.1-36.1,61.2-46.7c48.1-19.3,106.5-8.8,147.3,21.2c21.4,15.6,34.5,44.4,42.4,68.6
			c7.2,22.1,21,64.5,10.9,87.3c-8.9,20.5-0.5,53.7-31.2,58.6c-10.5,1.6-35.8-6.5-40.3,6.1c-1.8,5.1-3,14.7-3.7,20.3
			c-0.7,5.1-5.8,6.8-7.5,11.4c-7.9-6-4.9-23.2-4.6-31.9c0.4-5.6-4.7-9.1-10.2-6.3c-6.8,3.5-6.3,15.3-7.2,21.2
			c-0.7,4.9-8.8,17.5-14.2,11.8c-10.5-11.4,14.2-33.3-8.1-35.8c-14.6-1.6-12.6,7.2-16.5,18.9c-7.7,23.3-15.1,3.7-14.9-9.8
			c0.2-5.8-11-25.3-14.4-11C20.3,697.4,17.1,726.6,6.1,724.3C5.2,717.8,6.8,724.3,6.1,724.3z M-67.2,646.1
			c59.6,26.8,125.4,31.7,190.1,36.5c15.1,1.1,37.9,4.6,49.6-7.4c10.5-10.7,12.3-40.5,10.3-54.2c-5.1-35.1-4-77.3-28.4-106.6
			c-22.3-26.7-44.5-42.6-79.4-49.1c-14.7-2.8-35.1-6-49.8-2.6C5.9,466.9-9.2,477.4-26.2,486c-12.6,6.3-32.1,21.9-37,35.8
			c-1.8,5.3-28.9,42.8-18.9,46.8C-41.6,584.9-51.1,613.3-67.2,646.1C-63.9,647.6-66.5,644.7-67.2,646.1z"/>
		<path fill="#FFFFFF" d="M-67.2,646.1C-54,619.4-39,585.6-75.8,571c-26.5-10.5,28.9-70.9,42.4-80.7c30.9-22.4,62.6-31.2,100.1-26.3
			c38.1,4.9,63.8,21.7,87.7,50.5c20.9,25.1,26.7,67.2,27.4,98.2c0.5,18.4,0.9,33.7-4.6,51.7c-6.8,22.1-27.7,18.6-47,18.6
			C64.8,682.7-7.4,673.1-67.2,646.1C-66.5,644.7-63.9,647.6-67.2,646.1z"/>
		<path fill="#FFFFFF" d="M-59.2,604.5C-66,625.4-72.3,648-99,648.2c-21.2,0.2-32.1-16-37.5-33.3c-0.4-1.1,9.6-14.2,9.3-13.7
			c6.7-11.4,16.3-18.1,29.1-19.6C-76,579.1-66.2,581.9-59.2,604.5C-60.9,610.1-60.8,599.4-59.2,604.5z"/>
		<path fill="#FFFFFF" d="M-125.7,651c-16.7,11.4-40.3,26.7-60.2,11.8c-17.2-13-13.2-31.4-8.8-48.4c5.4-21,31.4-25.6,47.7-16.5
			c4.6,2.6,1.6,21.4,3.2,26.8C-140.4,636.9-136.5,643.6-125.7,651C-130.9,654.5-127.9,649.4-125.7,651z"/>
		<path fill="#FFFFFF" d="M-161.9,695c2.5-8.1,12.5-10.7,18.1-16c10.9-10.3,13.2-1.8,21.9-1.2C-127.8,688.5-150.6,693.2-161.9,695
			C-160.6,690.8-158.6,694.5-161.9,695z"/>
		<path d="M167.8,594.5c1.2,26.7-56.5,49.3-57.9,11.9C108.3,565.6,158.1,553.5,167.8,594.5C168.1,604.1,166.7,589.6,167.8,594.5z"/>
		<path d="M85.9,514.2c-2.3-29.8,43-29.6,43-1.6C128.8,541,85.9,547.5,85.9,514.2C85.2,504.5,85.9,516.1,85.9,514.2z"/>
		<path d="M34.6,494.2c25.4,0.7,25.8,40.5,2.1,45.6C4.7,546.8,8.3,502.6,34.6,494.2C43.6,494.5,32,495.1,34.6,494.2z"/>
		<path d="M-18.3,584.3c1.4-29.3,48.4-22.1,35.8,6C7.8,611.3-18.3,609.1-18.3,584.3C-18,577.8-18.3,593.3-18.3,584.3z"/>
		<path d="M88.8,592.2c-4.2,12.3-5.3,19.8-17.5,25.1c-10.5,4.6-18.1-8.2-18.8-17c-0.9-11.9,7-17.9,16.1-23.2
			C83,568.7,83.8,590.5,88.8,592.2C86.7,598.2,88.5,592,88.8,592.2z"/>
		<path d="M38.9,640.4c-1.9,7.9-4.6,15.6-12.6,19.1c-9.5,4.2-21.9,1.6-20.5-11.4C7.8,628.7,30.8,622.6,38.9,640.4
			C36.9,649,37.8,638,38.9,640.4z"/>
		<path d="M-26.2,508c17,2.6,4.9,33.3-9.1,29.8C-56,532.9-34.3,512.1-26.2,508C-21.8,508.6-28.3,508.9-26.2,508z"/>
		<path d="M96.6,670.3c-1.6-7-4.4-37,13.7-27.2C130.1,654,108.1,668,96.6,670.3C95.3,664.8,101.1,669.4,96.6,670.3z"/>
		<path d="M-96.7,613.4c-20.7-2.8-7.7-21.4,2.6-26.3c6.5-3.2,13.7,1.6,14.4,8.2C-78.3,607.3-87.4,610.5-96.7,613.4
			C-101.8,612.7-93.6,612.4-96.7,613.4z"/>
		<path d="M-150,619.2c-1.6,16-26.5,24-26.3,3.3C-176.1,602.4-155.9,603.4-150,619.2C-150.7,625.2-150.9,616.9-150,619.2z"/>
	</g>
</g>
</svg>
