<?xml version="1.0" encoding="utf-8"?>
<!DOCTYPE svg PUBLIC "-//W3C//DTD SVG 1.1//EN" "http://www.w3.org/Graphics/SVG/1.1/DTD/svg11.dtd">
<svg artist="zl2017" version="1.1" id="zlIcon-car-sheep-red" xmlns="http://www.w3.org/2000/svg" xmlns:xlink="http://www.w3.org/1999/xlink" x="0px" y="0px"
	 width="1000px" height="616.6px" viewBox="0 0 1000 616.6" enable-background="new 0 0 1000 616.6" xml:space="preserve">
<path fill-rule="evenodd" clip-rule="evenodd" fill="#EF4136" d="M984.3,410.8c-44.5,85.7-152.4,95.1-297.3,164
	c-7.8,3.7-17.2-0.3-25.7-0.9c-151.4-11.3-298.8-91.1-384.4-132.4c-43.8-21.1-83.1-50.2-83.1-88.8c0-44.5-20.4-99,23.5-132.2
	c30.2-22.8,237.8-48.8,373.8-48.8c80.7,0,170.5,2.9,239.8,26c78.6,26.3,42.8,95,140,115.8C1002.2,320.2,1001,378.6,984.3,410.8z"/>
<path fill-rule="evenodd" clip-rule="evenodd" fill="#FFFFFF" d="M802,329c9.6-4.6,17.6-8.5,25.7-12.4c12.2-6,22.4-14.7,32.1-24
	c4.4-4.2,6.9-9.9,6.1-15.7c-1.9-14.4-6.2-28.2-16.1-39.3c-2.6-2.9-6.6-5.3-10.4-6c-16.5-3-33.1-3.2-49.6-0.2
	c-7.5,1.3-15.1,2.6-22.6,4c-8.8,1.7-17.7,3.2-26.4,5.3c-13.6,3.3-27.1,7.2-40.7,10.7c-11.8,3-23.7,5.4-35.3,9
	c-15.8,4.9-31.4,10.4-47,16c-13.2,4.7-26.5,9.2-39.4,14.7c-12.8,5.4-24.5,12.6-28.3,27.5c-1,4-2.6,8-2.8,12.1
	c-0.4,10.4-2.6,21,3.8,30.7c2.9,4.4,4.8,9.7,6.5,14.7c7.2,20.7,22.4,29.4,43.6,25.1c19.2-3.9,37-11.9,54.5-19.5
	c1.1-8.2,2.1-16.1,3.1-23.9c1.5-0.8,2.6-1.4,3.7-2c9.8-4.8,10.5-4.4,13.9,6c1.5,4.4,1.8,9.7,7,11.6c31.9-9.7,62.8-21.5,92.2-33.3
	c0-7.8,0.7-13.9-0.2-19.8c-1-7,2.5-10.8,7.7-13.9c2.4-1.4,5.1-2.5,7.9-3.9c2.5,1.8,5.4,3.1,7,5.2c1.7,2.4,2.7,5.5,3.2,8.4
	C802.1,319.9,801.8,323.8,802,329z"/>
<path fill-rule="evenodd" clip-rule="evenodd" fill="#FFFFFF" d="M698.3,534.8c2.7-0.3,5.6-0.5,8.4-1c23.3-4,36.9-19.1,44.8-40.1
	c2.3-6.1,2.2-13.2-1.6-19.5c-6-9.8-13.8-17.7-24.9-21.3c-12.7-4-25.6-7.8-38.7-10.6c-21.6-4.7-37.9,9.3-37.7,31.1
	c0.2,17.3,5.3,32.4,16.8,45.6C674.3,529.2,685.1,534.1,698.3,534.8z"/>
<path fill-rule="evenodd" clip-rule="evenodd" fill="#FFFFFF" d="M756.3,129.9c0.2-4.1,0.8-8,0.6-11.7c-0.4-9.2-3.2-14.5-12.5-18.3
	c-14-5.8-27.5-0.8-41.8-1c1,12.9,0,24.5-4.4,35.7c-4.6,11.5-7.5,24-17.6,32.5c-4.9,4.1-10.3,7.6-15,11.8
	c-21.8,19.5-47.5,30.6-76.2,32.9c-19.5,1.6-39.5,6-58.9-1.4c-10.6,1.4-20.1-3.1-29.9-6c-26.1-7.8-46.2-22.8-57.1-48.6
	c-1.6-3.8-3.5-7.4-5.4-11.5c-18.1,3-32,11.3-41.1,27.1c-6.9,12-6.6,18,2.6,30c3.7-0.7,7.7-1.6,11.7-2.1c3.9-0.5,8.4-2,10,4.8
	c-2.5,1-4.7,1.9-7,2.7c-8.3,3.2-16.6,6.4-25,9.6c-7.2,2.8-12.1,8.3-16.2,14.5c-8.6,13-14.4,27-15.2,42.9c1.7,1.6,3.5,3.2,5,4.6
	c-2.1,2.8-5.3,5.2-5.2,7.5c0.2,14.5,5.7,28,23.7,34.3c4.9-3.6,8.5-10.2,17.3-9.9c-1.5,9.2-10.9,12.3-12.9,20.1
	c-2.1,8-4.6,15.8-6.9,23.8c3.4,2.4,5.8,4.7,8.6,6c13.4,6.1,27,12.1,41.8,13.1c8.4,0.6,17.6,0,25.3-2.9c11-4,18.8-13,24.1-23.7
	c4.8-9.7,9-19.8,14.2-29.3c3.1-5.8,7.3-11.2,11.5-16.3c13.3-15.9,31.7-25,49.5-34c25.9-13.1,52.8-24.2,79.5-35.6
	c10.8-4.7,22.3-7.8,33.4-12c21-7.9,42.5-13.9,64.3-18.8c5.9-1.3,11.8-3.3,17.8-4c20.3-2.5,40.4-6.7,61-5.6c2.4,0.1,4.9-0.5,7.4-0.9
	c0-4.5,0.5-8.4-0.1-12.2c-0.8-5.3-1.2-11.2-4-15.5c-5.2-8.1-12.4-14.4-21.9-17.9c-11.7-4.3-23.8-5-36-4.3c-4.6,0.3-7.1-1-8.4-6.2
	C750.1,132.7,752.9,131.5,756.3,129.9z"/>
<path fill-rule="evenodd" clip-rule="evenodd" fill="#FFFFFF" d="M449.9,134.3c2.6,15.8,10.9,33.5,27.9,45.6
	c9.5,6.8,20.1,12,30.6,17.1c10.9,5.3,22.3,7.9,34.4,3.2c13.4-5.1,27.1-9.8,39.2-17.6c14.9-9.6,26.5-21.1,28.5-40.5
	c1-9.3-0.1-17.8-2.5-26.4c-2.5-9-7.2-15.8-15.2-21.9c-7.7-5.9-15.8-10.7-24.3-14.4c-11.3-5-23.5-8.5-35.6-10.9
	c-16.2-3.3-31.8-2.2-46.8,7c-11.4,6.9-19.4,16.2-27.1,26.5C452.9,110.5,449.8,119.4,449.9,134.3z"/>
<path fill-rule="evenodd" clip-rule="evenodd" fill="#FFFFFF" d="M515.4,548.3c-10.5-4.3-16.5-11.6-21.5-19.8c-2-3.2-3.1-7-5.2-10.1
	c-8.7-13-17.3-26.1-26.7-38.6c-10.5-13.9-24.2-23.7-41.7-27.2c-9.5-1.9-15,0.3-20,8.6c-3,4.9-6.1,9.8-8.8,14.9
	c-2.2,4.3-5.7,6.6-10,8.4c-8,3.4-15.9,3.8-24.1,0.6c-6.3-2.5-12.9-4.2-20.4-6.7c0.5,5.3,0.7,9.1,1.2,12.8c1.9,15.3,4.6,30.3,14,43.1
	c1.3,1.8,2.9,3.4,4,5.4c11,19.8,26.6,35.1,46.2,46.2c15.4,8.7,31.4,14.5,49.5,9.2C478.2,587.4,498.3,571.6,515.4,548.3z"/>
<path fill-rule="evenodd" clip-rule="evenodd" fill="#FFFFFF" d="M261.9,439.9c-3.6-2.9-7-5.3-10-8.2c-1.5-1.4-3.3-3.6-3.3-5.4
	c-0.2-14.6-2.2-29.4,5.8-43c3.7-6.3,6.9-13,9.4-19.9c3.6-9.7,4.5-20.3-3.5-27.9c-14.2-13.5-31.5-20.2-51.4-19.2
	c-3.5,0.2-7,0.2-10.4,0.4c-10.8,0.7-22.7,0.1-29.7,10.1c-7,9.8-14.3,20.2-17.9,31.4c-5.9,18.5-7.2,38.3-5.9,57.8
	c0.4,6.4,2.9,13.2,6.1,18.9c4.2,7.4,9.1,15,15.5,20.4c12.8,10.8,27,19.1,45,13.9c3.4-1,6.8-2,10.3-2.5
	C238.9,463.7,252.2,455.2,261.9,439.9z"/>
<path fill-rule="evenodd" clip-rule="evenodd" fill="#FFFFFF" d="M605.7,172.4c32.2,16.1,67.3,2.5,79.6-29.3c1.1-3,2.7-5.8,3.9-8.7
	c5.7-14,7.9-28.1,1.9-42.7C686.6,81,678.9,73.5,669.5,67c-11.9-8.2-24.8-10.7-38.9-10.4c-15.1,0.3-26.5,8.3-37.6,17
	c-1.9,1.5-3.2,3.6-4.1,4.5c6.7,8.9,13.7,16.5,18.7,25.2c10.5,18.3,10.8,37.6,3.1,57.1C609.1,164.4,607.4,168.3,605.7,172.4z"/>
<path fill-rule="evenodd" clip-rule="evenodd" fill="#FFFFFF" d="M977.2,403.4c-0.9-16.7-2.8-20.6-16.8-30.4
	c-12.5-8.7-27-12.1-41.6-12c-22.8,0.2-46.4,20.2-50.8,42.4c-4.2,20.9,4.7,41.4,29.1,47.3c7.4,1.8,14.9,3.3,22.5,4.5
	c8.1,1.4,15.9-0.1,23-4.5c4.9-3,10.1-5.7,14.4-9.4c5.2-4.5,11.1-9.2,14.1-15.1C974.6,419.4,975.3,411.1,977.2,403.4z"/>
<path fill-rule="evenodd" clip-rule="evenodd" fill="#FFFFFF" d="M905.3,479.2c-23.2,7.2-42.8,20.4-64.2,32.6
	c4.5,2.3,7.7,4.3,11.2,5.7c18.4,7.5,30.9,5.2,41.2-7.9c3.9-4.9,6.3-11,9.6-16.4C905.4,489.3,908,485.6,905.3,479.2z"/>
<path fill-rule="evenodd" clip-rule="evenodd" fill="#FFFFFF" d="M916.4,472c0,4.3,0,8,0,12.4c16-3.5,31.5-6.8,47.2-10.3
	c0-6.4,0-11.9,0-19.3C948.9,466.5,931.8,466.8,916.4,472z"/>
<path fill-rule="evenodd" clip-rule="evenodd" fill="#FFFFFF" d="M894,520.4c12-4,21.7-1.7,31.3-0.5c11.8,1.5,26.5-7.6,30.6-19.1
	c0.1-0.3-0.5-0.9-1.1-2c-6,1.2-12.2,2.5-18.4,3.8c-9.3,2-18.6,3.9-27.9,6c-1.7,0.4-3.5,1.4-4.9,2.6
	C900.9,513.7,898.2,516.4,894,520.4z"/>
<path fill-rule="evenodd" clip-rule="evenodd" fill="#FFFFFF" d="M962.2,480.6c-4.9,0.6-8.6,0.8-12.2,1.6c-9.5,2.2-18.9,4.8-28.3,7
	c-5.5,1.3-7.9,4.1-8.9,11.8c15.5-2.3,30.8-4.6,46.1-6.9C960,490,960.9,486.3,962.2,480.6z"/>
<path fill-rule="evenodd" clip-rule="evenodd" fill="#FFFFFF" d="M542.1,592.2c-1.2-1.8-1.6-2.9-2.3-3.2
	c-10.2-4.2-20.5-8.1-30.7-12.4c-5.6-2.4-7.9,0.4-10.1,4.6c9,4.9,17.3,9.5,25.8,13.8c1.7,0.9,4.3,0.6,6.4,0.2
	C534.5,594.6,537.7,593.5,542.1,592.2z"/>
<path fill-rule="evenodd" clip-rule="evenodd" fill="#FFFFFF" d="M509.7,569.1c12.7,5.7,24.5,11.1,36.2,16.4
	c5.9-8.2,5.7-9.5-2.4-12.8c-8.8-3.6-17.8-6.8-26.8-10.3C514.4,564.6,512.3,566.5,509.7,569.1z"/>
<path fill-rule="evenodd" clip-rule="evenodd" fill="#FFFFFF" d="M562.5,578c3.5-3.4,6.2-6.1,9.8-9.6c-16.7-5.4-31.8-10.4-46.9-15
	c-1.1-0.3-2.9,1.7-4.4,2.7c0.1,0.7,0.3,1.4,0.4,2.1c12.7,2.2,22.3,13.2,35.7,11.6C558.8,572.4,560.3,574.7,562.5,578z"/>
<path fill-rule="evenodd" clip-rule="evenodd" fill="#FFFFFF" d="M352.5,312.2c0.4-5.2-1.4-8-7-7.8c-2.8,0.1-5.7-1.2-8.5-1.2
	c-8.3-0.2-16.7-2-26.1,0.4c4.2,4.1,6.3,8.7,12.1,8.6C332.8,312.1,342.6,312.2,352.5,312.2z"/>
<path fill-rule="evenodd" clip-rule="evenodd" fill="#FFFFFF" d="M303.8,288.6c3.4,7.1,3.4,7.1,8.5,7.4c7.9,0.5,15.9,1.2,23.8,1.8
	c4,0.3,7.9,0.4,11.8,0.5c1-5.3-1.8-6.6-5.2-7.3C330.1,288.4,317.5,288.2,303.8,288.6z"/>
<path fill-rule="evenodd" clip-rule="evenodd" fill="#FFFFFF" d="M345.9,285c1.4-5-0.9-6.5-4-7.1c-3.8-0.8-7.5-1.4-11.4-1.7
	c-10.1-1-20.2-1.7-30.3-2.6c-0.5,5.3,1.1,7.8,5.7,7.9c4.1,0.1,8.3,0.5,12.4,0.9C327.4,283.2,336.5,284.1,345.9,285z"/>
<path fill-rule="evenodd" clip-rule="evenodd" fill="#FFFFFF" d="M517.1,599.7c0.1-0.7,0.2-1.3,0.3-2c-8.2-4-16.4-8-25.1-12.3
	c-2.2,2.4-6.8,2.4-7.7,6.7c5.2,3.2,10.3,5.9,14.8,9.3c3,2.2,5.6,2.5,8.8,1.3C511.2,601.7,514.2,600.7,517.1,599.7z"/>
<path fill-rule="evenodd" clip-rule="evenodd" fill="#FFFFFF" d="M285.2,478.2c-6.5-3-12.3-5.4-17.9-8.3
	c-12.2-6.3-12.2-6.3-18.7-3.9c6.2,4.6,12,8.9,17.7,13.3C272.4,484.1,278.3,484.2,285.2,478.2z"/>
<path fill-rule="evenodd" clip-rule="evenodd" fill="#FFFFFF" d="M328.8,317.8c8.7,12.2,19.9,12.6,33.9,9.2c-3.7-3.2-6-6.9-8.7-7.3
	C345.6,318.3,337.2,318.3,328.8,317.8z"/>
<path fill-rule="evenodd" clip-rule="evenodd" fill="#FFFFFF" d="M234,471.3c-0.4,0.9-0.8,1.7-1.1,2.6c3.8,3.2,7.6,6.4,11.4,9.6
	c7.3,6.4,11.1,6.7,20.5,1.4C254.6,479.4,245.7,471.9,234,471.3z"/>
<path fill-rule="evenodd" clip-rule="evenodd" fill="#FFFFFF" d="M351.1,254.7c-13-0.5-25.9-6.4-41,0.6c12.7,2.3,23.3,4.1,33.8,6.2
	C349.2,262.6,350.9,260.2,351.1,254.7z"/>
<path fill-rule="evenodd" clip-rule="evenodd" fill="#FFFFFF" d="M348.1,269.6c-14-5.7-29.1-4.7-43.5-7.2c-1.1-0.2-2.4,1.5-3.9,2.5
	C309.4,268.5,342.8,272.5,348.1,269.6z"/>
<path fill-rule="evenodd" clip-rule="evenodd" fill="#FFFFFF" d="M294.3,468.1c-11.4-4.2-20.7-12.7-34.8-13.5
	c1.6,2.2,1.9,3.2,2.6,3.6c7.5,4.7,15.1,9.2,22.6,13.9C289.3,475,291.7,472.8,294.3,468.1z"/>
<path fill-rule="evenodd" clip-rule="evenodd" fill="#FFFFFF" d="M495.8,606.1c-15.5-11.5-19.6-11.7-31.8-2.5
	C473.9,607.2,483.8,607.1,495.8,606.1z"/>
<path fill-rule="evenodd" clip-rule="evenodd" fill="#FFFFFF" d="M351.6,336.4c8.3,4.1,12.6,10.9,20.2,12.3
	c3.3-5.2,1.2-8.9-2.6-11.9C364.3,332.8,359,334.1,351.6,336.4z"/>
<path fill-rule="evenodd" clip-rule="evenodd" fill="#FFFFFF" d="M920.7,525.6c-0.2-0.8-0.3-1.5-0.5-2.2c-6.4,0.8-12.9,1.2-19.3,2.4
	c-4.3,0.9-7.2,0-9-4.4c-3.2,1.9-5.5,3.4-9.6,5.8C897.1,531.4,908.9,528.8,920.7,525.6z"/>
<path fill-rule="evenodd" clip-rule="evenodd" fill="#FFFFFF" d="M352.9,249c1.2-3.2,2.2-5.8,3.7-9.9c-8.9,1.6-16,2.9-23.2,4.2
	c0,0.8,0,1.5,0,2.3C339.7,246.7,346,247.8,352.9,249z"/>
<path fill-rule="evenodd" clip-rule="evenodd" fill="#FFFFFF" d="M301.6,462.9c0.2-0.8,0.4-1.6,0.6-2.4
	c-10.5-4.6-21.1-9.2-31.6-13.8c-0.3,0.7-0.7,1.3-1,2c9.6,5.2,19.1,10.4,28.8,15.5C299,464.4,300.5,463.3,301.6,462.9z"/>
<path fill-rule="evenodd" clip-rule="evenodd" fill="#FFFFFF" d="M238,487.8c0.1-0.6,0.3-1.3,0.4-1.9c-3.6-1.9-7.2-3.8-10.7-5.8
	c-6.3-3.5-6.3-3.5-14.1,2.3C222.2,484.4,230.1,486.1,238,487.8z"/>
<path fill-rule="evenodd" clip-rule="evenodd" fill="#FFFFFF" d="M551.6,585.6c6.3-0.8,7.4-2.6,5.6-7.5
	C555.2,580.7,553.9,582.4,551.6,585.6z"/>
<path fill-rule="evenodd" clip-rule="evenodd" d="M679.2,60.8c7.6,10.1,14.6,19.4,22,29.1c4.7,0,10.4,0.1,16.1,0
	c7-0.2,14-1.1,21-0.8c7.2,0.3,13.1,3.5,18.8,8.4c8.9,7.7,11.1,18.3,15,28.2c0.3,0.9,0.8,1.7,1.5,3.1c19.6-0.3,34.5,10.9,49.5,21.8
	c6.5,4.7,9.9,11.6,12.1,19.1c2.1,7.4,4,14.8,6,22.1c17,8.1,30.1,20.2,39.6,36.4c4.8,8.3,10.6,16,15.7,24.1c4,6.4,8.6,12.8,11.3,19.8
	c3.1,8.2,9.5,11.8,16.6,14.8c15.9,6.7,32,13,47.9,19.7c8.6,3.7,17.1,8.1,20.9,17.2c2.7,6.4,5.1,13.3,5.6,20.2
	c1.8,22.1,1.4,44-9.6,64.3c-1.2,2.1-1.6,4.9-1.6,7.3c0,11.1-3.4,21.3-8,31.2c-4,8.7-4.4,17.8-3.7,27.1c0.1,1.2,0.7,2.7,0.2,3.6
	c-5.7,9.6-7.5,20.8-12.6,30.6c-1.4,2.7-3.5,5.4-5.9,7.3c-16.4,13-34.2,21.5-55.9,22.4c-15.2,0.6-28.9-3-42.7-8.1
	c-3.6-1.3-7.2-2.5-10.8-4c-5.2-2.1-9.9-4.7-10.3-12.4c-6.9,3.8-13.3,6.6-19,10.5c-10.1,7.1-21.2,11.7-32.5,16.3
	c-16.5,6.8-32.9,13.8-49.5,20.2c-12.2,4.7-24.5,8.9-37,12.7c-10.4,3.1-21,5.3-31.6,7.7c-3.1,0.7-6.4,1.1-9.5,0.7
	c-19.6-2.2-39.4-3.2-58.5-8.2c-5.8-1.5-11-0.5-15.6,2.2c-7.9,4.6-15.8,9.5-22.8,15.4c-5.5,4.7-11.4,8-18,10
	c-16.5,5.1-33,10.1-49.7,14.4c-5.4,1.4-11.6,1.6-17.1,0.5c-21.9-4.3-44.2-7.2-65.3-15.2c-18.2-6.9-32.9-18.6-45.6-32.6
	c-9.6-10.5-17.5-22.7-25.6-34.6c-4.7-6.9-7.6-14.6-8.3-23.2c-0.9-9.5-2.6-18.9-3.9-28.4c-0.3-2.4,0-4.9,0-8.2c-3-1.7-6.5-3.8-10.4-6
	c-8.2,11.1-19.5,15.9-31.5,21c-18.3,7.9-36.4,7.6-55.3,6.6c-10.6-0.6-20.6-2.7-30.7-5.9c-11.6-3.7-21.2-10.4-30.6-17.2
	c-9.2-6.7-17-15.3-24.8-23.7c-2.9-3.1-4.4-7.7-6-11.8c-6.1-15.4-9.3-31.4-8.5-48c0.7-14.6,4.6-28.3,12.5-40.8
	c3.3-5.1,6.5-10.3,8.9-15.8c4-9.1,10.6-15.2,19.5-18.7c5.1-2,6.8-5.2,7.8-10.6c3-15.9,6.5-31.8,10.9-47.4
	c2.5-8.8,6.4-17.5,10.8-25.6c7.6-13.9,20.4-22,35.2-26.3c12.3-3.5,24.9-5.7,37.4-8.4c24.4-5.1,49-9.1,74.1-8.9
	c8.7,0.1,17.3,0.6,25.2,5.7c0.2,1.9,0.5,4,0.7,5.9c-1.2,0.6-2,1.2-2.3,1c-12.6-6.3-26.2-4.2-39.3-3.6c-15.9,0.8-31.9,2.4-47.5,5.3
	c-21.1,3.9-41.9,9.9-59.9,21.8c-20.1,13.3-30.9,32.5-30.1,57.3c0.3,8.6,0,17.2,0,26.3c7.9,0.5,15.2,0.7,22.5,1.5
	c17.9,1.9,34.8,7.5,47.8,20.1c12.1,11.8,13.6,25.2,4.2,43.1c-3,5.7-6,11.3-8.6,17.2c-2.9,6.5-3.1,13.6-2.9,20.6
	c0.2,9.3,5.9,16.3,11.8,22.3c6.1,6.2,14.1,10.4,22.4,14.1c12.5,5.6,24.1,13.2,36.6,18.9c11.6,5.2,23.7,9.4,35.7,13.4
	c6,2,10.1-0.6,12.9-6.6c4.3-8.8,10.8-15.8,18.1-22.1c7.1-6.2,15.3-7.8,24.2-5.6c14.2,3.5,26.6,10,37.7,19.9
	c14.1,12.6,24.6,27.4,33.5,43.8c11.2,20.5,27,35.4,50.2,43.1c25,8.3,50.5,13.5,76.2,18.9c21.7,4.6,42.9,2.9,63.9-0.1
	c19.1-2.7,38-8.2,55.9-16.4c22.9-10.5,46.8-19,69.4-30.2c24.6-12.2,48.1-26.6,72.1-40c6.6-3.7,13.3-7.5,21-11.9
	c-5.7-1.4-10.1-2.3-14.3-3.6c-4.2-1.3-8.6-2.5-12.3-4.8c-9.4-5.8-19.8-10.6-26-20.5c-5.8-9.2-7.5-19.4-4.5-29.5
	c2.8-9.8,7.6-19.1,15.2-26.3c5.9-5.7,10.6-12.4,17.5-17.5c11-8,22.7-13,35.7-15.2c17.6-3,34,0.2,50,8.7c13.3,7,22.7,16.2,25.2,33.6
	c1.7-3.9,2.7-5.6,3.1-7.3c4.1-18.8,4.3-37.5-2.3-55.8c-1.2-3.3-4-6.9-7-8.6c-9.2-5.2-18.6-10-28.3-14c-12.7-5.3-26-9-38.5-14.7
	c-6.5-3-12.6-8-17.1-13.6c-5.3-6.6-9.1-14.5-13-22.2c-4.4-8.8-7.1-18.7-12.5-26.9c-9.1-14-19.7-27.1-37.7-30.2
	c-4.6-0.8-9.6,0.3-14.3-0.2c-15.1-1.6-30-0.1-44.8,2.3c-13.9,2.3-27.6,5.2-41.3,8.1c-27,5.6-53.2,13.9-79,23.3
	c-14.3,5.2-28.3,11.6-41.8,18.9c-15.4,8.3-31.6,14.5-47.3,22c-20.9,10-38.6,23.5-51.9,42.6c-8.4,12-16.2,24.6-25.3,36.1
	c-7.1,8.9-15.7,16.7-23.8,24.8c-1.5,1.5-3.7,3-5.8,3.2c-13.9,1.5-27.7,3.2-41.8-0.5c-27.6-7.3-50.3-22.9-73.1-39.1
	c-15.2-10.8-30-21.7-41.9-36.2c-10.2-12.4-12.2-26.7-9.5-41.6c1.9-10.3,9.8-17,19.1-21.4c14.8-7,29.9-13,46.8-12.7
	c2.4,0,5.2-2,7-3.9c4.4-4.6,8.4-9.6,12.6-14.4c2.3-2.6,4-4.8,3.3-9.2c-3.7-24.1,6.4-42.5,25.8-55.7c7.5-5.1,16.8-7.4,25.3-10.9
	c2-0.8,4.2-1.4,6.8-2.3c-0.7-17,5.9-32.1,13.6-47.6c-6-0.3-10.8-1.3-15.4-0.7c-9.8,1.2-14.3,8.8-18.1,16.8c-1,2-1.4,4.3-1.7,6.5
	c-3,18-24.4,26.4-39.9,18.2c-8.2-4.3-15.8-9.5-21.2-17.6c-4-5.9-5-12-1.8-17.9c2.8-5.2,6.4-10.4,10.7-14.5
	c9.6-8.9,19.9-17,29.8-25.5c7.3-6.2,16.7-5.4,25.9,2.5c4.6,4,9.8,7.4,13.6,12.1c5.7,6.9,13.8,8.7,21.2,12.2c1.7,0.8,4.6,0.9,6.2,0
	c7.3-3.8,14.4-8.1,22.8-12.8c-1.5-6.3-2.9-13.1-4.6-19.8c-0.7-2.7-1.2-5.7,2.3-5.8c1.7-0.1,4.6,2.5,5.1,4.3
	c1.4,5.5,1.8,11.2,2.6,16.7c13.2,0.8,17.1-2.4,17.6-14.1c0.5-10.1-2.5-19.5-6.1-28.8c-1-2.4-1.6-5-2.5-8.1c7-1.1,8.7,3.5,9.8,7
	c2.9,9.1,4,18.5,3.3,28.1c-0.3,4.1-0.6,8.1-1,13.2c4.7-0.2,8.6-0.4,13.1-0.6c-0.6-13.5-5.7-25.8-4.2-38.5c0.8-0.2,1.6-0.4,2.4-0.6
	c0.8,1.7,1.9,3.3,2.2,5.1c1.9,10.6,3.7,21.2,5.7,33.1c14.3-3.1,27.5-6.8,41-8.6c13.5-1.8,27.2-1.7,41.2-2.4
	c-0.9-12-0.6-24.2-7.5-34.5c4.3-3.9,6.9-2.2,8.2,1.2c1.6,4.4,2.7,9.2,3.4,13.8c1,6.9,1.5,13.9,2.2,21.1c3.1,0,5.4,0,8.5,0
	c-0.4-5.2-1.2-9.9-1-14.6c0.2-4.1-1.9-9.6,6.1-12.4c-2.1,10,0,18.1,3.4,27c2.6,0.1,5.6,0.3,8.5,0.5c0-6-0.3-11.3,0.2-16.6
	c0.1-1.7,2.2-3.2,3.4-4.8c0.9,1.7,2.5,3.4,2.6,5.2c0.4,4.7,0.1,9.4,0.1,14.7c3.9,4.3,8.8,5.8,15.1,4.6c14.7-2.6,24.5-10.2,28.2-25
	c1.9-7.6,4.9-14.6,10.8-19.9C715-3.3,727.9-0.4,740.6,4c11.5,3.9,16.1,12.6,16,24.5c-0.1,5.4,0.8,10.9,0.3,16.2
	c-0.7,8.6-6.8,15-10.7,22.1c-2,3.7-12.2,1.7-17.4-2.3c-5.3-4-10.8-7.8-16.6-11.2c-7.7-4.5-15.4-3-22.8,1.1
	C685.8,56.4,682.4,58.8,679.2,60.8z M756.3,129.9c0.2-4.1,0.8-8,0.6-11.7c-0.4-9.2-3.2-14.5-12.5-18.3c-14-5.8-27.5-0.8-41.8-1
	c1,12.9,0,24.5-4.4,35.7c-4.6,11.5-7.5,24-17.6,32.5c-4.9,4.1-10.3,7.6-15,11.8c-21.8,19.5-47.5,30.6-76.2,32.9
	c-19.5,1.6-39.5,6-58.9-1.4c-10.6,1.4-20.1-3.1-29.9-6c-26.1-7.8-46.2-22.8-57.1-48.6c-1.6-3.8-3.5-7.4-5.4-11.5
	c-18.1,3-32,11.3-41.1,27.1c-6.9,12-6.6,18,2.6,30c3.7-0.7,7.7-1.6,11.7-2.1c3.9-0.5,8.4-2,10,4.8c-2.5,1-4.7,1.9-7,2.7
	c-8.3,3.2-16.6,6.4-25,9.6c-7.2,2.8-12.1,8.3-16.2,14.5c-8.6,13-14.4,27-15.2,42.9c1.7,1.6,3.5,3.2,5,4.6c-2.1,2.8-5.3,5.2-5.2,7.5
	c0.2,14.5,5.7,28,23.7,34.3c4.9-3.6,8.5-10.2,17.3-9.9c-1.5,9.2-10.9,12.3-12.9,20.1c-2.1,8-4.6,15.8-6.9,23.8
	c3.4,2.4,5.8,4.7,8.6,6c13.4,6.1,27,12.1,41.8,13.1c8.4,0.6,17.6,0,25.3-2.9c11-4,18.8-13,24.1-23.7c4.8-9.7,9-19.8,14.2-29.3
	c3.1-5.8,7.3-11.2,11.5-16.3c13.3-15.9,31.7-25,49.5-34c25.9-13.1,52.8-24.2,79.5-35.6c10.8-4.7,22.3-7.8,33.4-12
	c21-7.9,42.5-13.9,64.3-18.8c5.9-1.3,11.8-3.3,17.8-4c20.3-2.5,40.4-6.7,61-5.6c2.4,0.1,4.9-0.5,7.4-0.9c0-4.5,0.5-8.4-0.1-12.2
	c-0.8-5.3-1.2-11.2-4-15.5c-5.2-8.1-12.4-14.4-21.9-17.9c-11.7-4.3-23.8-5-36-4.3c-4.6,0.3-7.1-1-8.4-6.2
	C750.1,132.7,752.9,131.5,756.3,129.9z M449.9,134.3c2.6,15.8,10.9,33.5,27.9,45.6c9.5,6.8,20.1,12,30.6,17.1
	c10.9,5.3,22.3,7.9,34.4,3.2c13.4-5.1,27.1-9.8,39.2-17.6c14.9-9.6,26.5-21.1,28.5-40.5c1-9.3-0.1-17.8-2.5-26.4
	c-2.5-9-7.2-15.8-15.2-21.9c-7.7-5.9-15.8-10.7-24.3-14.4c-11.3-5-23.5-8.5-35.6-10.9c-16.2-3.3-31.8-2.2-46.8,7
	c-11.4,6.9-19.4,16.2-27.1,26.5C452.9,110.5,449.8,119.4,449.9,134.3z M515.4,548.3c-10.5-4.3-16.5-11.6-21.5-19.8
	c-2-3.2-3.1-7-5.2-10.1c-8.7-13-17.3-26.1-26.7-38.6c-10.5-13.9-24.2-23.7-41.7-27.2c-9.5-1.9-15,0.3-20,8.6
	c-3,4.9-6.1,9.8-8.8,14.9c-2.2,4.3-5.7,6.6-10,8.4c-8,3.4-15.9,3.8-24.1,0.6c-6.3-2.5-12.9-4.2-20.4-6.7c0.5,5.3,0.7,9.1,1.2,12.8
	c1.9,15.3,4.6,30.3,14,43.1c1.3,1.8,2.9,3.4,4,5.4c11,19.8,26.6,35.1,46.2,46.2c15.4,8.7,31.4,14.5,49.5,9.2
	C478.2,587.4,498.3,571.6,515.4,548.3z M261.9,439.9c-3.6-2.9-7-5.3-10-8.2c-1.5-1.4-3.3-3.6-3.3-5.4c-0.2-14.6-2.2-29.4,5.8-43
	c3.7-6.3,6.9-13,9.4-19.9c3.6-9.7,4.5-20.3-3.5-27.9c-14.2-13.5-31.5-20.2-51.4-19.2c-3.5,0.2-7,0.2-10.4,0.4
	c-10.8,0.7-22.7,0.1-29.7,10.1c-7,9.8-14.3,20.2-17.9,31.4c-5.9,18.5-7.2,38.3-5.9,57.8c0.4,6.4,2.9,13.2,6.1,18.9
	c4.2,7.4,9.1,15,15.5,20.4c12.8,10.8,27,19.1,45,13.9c3.4-1,6.8-2,10.3-2.5C238.9,463.7,252.2,455.2,261.9,439.9z M605.7,172.4
	c32.2,16.1,67.3,2.5,79.6-29.3c1.1-3,2.7-5.8,3.9-8.7c5.7-14,7.9-28.1,1.9-42.7C686.6,81,678.9,73.5,669.5,67
	c-11.9-8.2-24.8-10.7-38.9-10.4c-15.1,0.3-26.5,8.3-37.6,17c-1.9,1.5-3.2,3.6-4.1,4.5c6.7,8.9,13.7,16.5,18.7,25.2
	c10.5,18.3,10.8,37.6,3.1,57.1C609.1,164.4,607.4,168.3,605.7,172.4z M977.2,403.4c-0.9-16.7-2.8-20.6-16.8-30.4
	c-12.5-8.7-27-12.1-41.6-12c-22.8,0.2-46.4,20.2-50.8,42.4c-4.2,20.9,4.7,41.4,29.1,47.3c7.4,1.8,14.9,3.3,22.5,4.5
	c8.1,1.4,15.9-0.1,23-4.5c4.9-3,10.1-5.7,14.4-9.4c5.2-4.5,11.1-9.2,14.1-15.1C974.6,419.4,975.3,411.1,977.2,403.4z M905.3,479.2
	c-23.2,7.2-42.8,20.4-64.2,32.6c4.5,2.3,7.7,4.3,11.2,5.7c18.4,7.5,30.9,5.2,41.2-7.9c3.9-4.9,6.3-11,9.6-16.4
	C905.4,489.3,908,485.6,905.3,479.2z M916.4,472c0,4.3,0,8,0,12.4c16-3.5,31.5-6.8,47.2-10.3c0-6.4,0-11.9,0-19.3
	C948.9,466.5,931.8,466.8,916.4,472z M894,520.4c12-4,21.7-1.7,31.3-0.5c11.8,1.5,26.5-7.6,30.6-19.1c0.1-0.3-0.5-0.9-1.1-2
	c-6,1.2-12.2,2.5-18.4,3.8c-9.3,2-18.6,3.9-27.9,6c-1.7,0.4-3.5,1.4-4.9,2.6C900.9,513.7,898.2,516.4,894,520.4z M962.2,480.6
	c-4.9,0.6-8.6,0.8-12.2,1.6c-9.5,2.2-18.9,4.8-28.3,7c-5.5,1.3-7.9,4.1-8.9,11.8c15.5-2.3,30.8-4.6,46.1-6.9
	C960,490,960.9,486.3,962.2,480.6z M542.1,592.2c-1.2-1.8-1.6-2.9-2.3-3.2c-10.2-4.2-20.5-8.1-30.7-12.4c-5.6-2.4-7.9,0.4-10.1,4.6
	c9,4.9,17.3,9.5,25.8,13.8c1.7,0.9,4.3,0.6,6.4,0.2C534.5,594.6,537.7,593.5,542.1,592.2z M509.7,569.1
	c12.7,5.7,24.5,11.1,36.2,16.4c5.9-8.2,5.7-9.5-2.4-12.8c-8.8-3.6-17.8-6.8-26.8-10.3C514.4,564.6,512.3,566.5,509.7,569.1z
	 M562.5,578c3.5-3.4,6.2-6.1,9.8-9.6c-16.7-5.4-31.8-10.4-46.9-15c-1.1-0.3-2.9,1.7-4.4,2.7c0.1,0.7,0.3,1.4,0.4,2.1
	c12.7,2.2,22.3,13.2,35.7,11.6C558.8,572.4,560.3,574.7,562.5,578z M352.5,312.2c0.4-5.2-1.4-8-7-7.8c-2.8,0.1-5.7-1.2-8.5-1.2
	c-8.3-0.2-16.7-2-26.1,0.4c4.2,4.1,6.3,8.7,12.1,8.6C332.8,312.1,342.6,312.2,352.5,312.2z M303.8,288.6c3.4,7.1,3.4,7.1,8.5,7.4
	c7.9,0.5,15.9,1.2,23.8,1.8c4,0.3,7.9,0.4,11.8,0.5c1-5.3-1.8-6.6-5.2-7.3C330.1,288.4,317.5,288.2,303.8,288.6z M345.9,285
	c1.4-5-0.9-6.5-4-7.1c-3.8-0.8-7.5-1.4-11.4-1.7c-10.1-1-20.2-1.7-30.3-2.6c-0.5,5.3,1.1,7.8,5.7,7.9c4.1,0.1,8.3,0.5,12.4,0.9
	C327.4,283.2,336.5,284.1,345.9,285z M517.1,599.7c0.1-0.7,0.2-1.3,0.3-2c-8.2-4-16.4-8-25.1-12.3c-2.2,2.4-6.8,2.4-7.7,6.7
	c5.2,3.2,10.3,5.9,14.8,9.3c3,2.2,5.6,2.5,8.8,1.3C511.2,601.7,514.2,600.7,517.1,599.7z M285.2,478.2c-6.5-3-12.3-5.4-17.9-8.3
	c-12.2-6.3-12.2-6.3-18.7-3.9c6.2,4.6,12,8.9,17.7,13.3C272.4,484.1,278.3,484.2,285.2,478.2z M328.8,317.8
	c8.7,12.2,19.9,12.6,33.9,9.2c-3.7-3.2-6-6.9-8.7-7.3C345.6,318.3,337.2,318.3,328.8,317.8z M234,471.3c-0.4,0.9-0.8,1.7-1.1,2.6
	c3.8,3.2,7.6,6.4,11.4,9.6c7.3,6.4,11.1,6.7,20.5,1.4C254.6,479.4,245.7,471.9,234,471.3z M351.1,254.7c-13-0.5-25.9-6.4-41,0.6
	c12.7,2.3,23.3,4.1,33.8,6.2C349.2,262.6,350.9,260.2,351.1,254.7z M348.1,269.6c-14-5.7-29.1-4.7-43.5-7.2
	c-1.1-0.2-2.4,1.5-3.9,2.5C309.4,268.5,342.8,272.5,348.1,269.6z M294.3,468.1c-11.4-4.2-20.7-12.7-34.8-13.5
	c1.6,2.2,1.9,3.2,2.6,3.6c7.5,4.7,15.1,9.2,22.6,13.9C289.3,475,291.7,472.8,294.3,468.1z M495.8,606.1
	c-15.5-11.5-19.6-11.7-31.8-2.5C473.9,607.2,483.8,607.1,495.8,606.1z M351.6,336.4c8.3,4.1,12.6,10.9,20.2,12.3
	c3.3-5.2,1.2-8.9-2.6-11.9C364.3,332.8,359,334.1,351.6,336.4z M920.7,525.6c-0.2-0.8-0.3-1.5-0.5-2.2c-6.4,0.8-12.9,1.2-19.3,2.4
	c-4.3,0.9-7.2,0-9-4.4c-3.2,1.9-5.5,3.4-9.6,5.8C897.1,531.4,908.9,528.8,920.7,525.6z M352.9,249c1.2-3.2,2.2-5.8,3.7-9.9
	c-8.9,1.6-16,2.9-23.2,4.2c0,0.8,0,1.5,0,2.3C339.7,246.7,346,247.8,352.9,249z M301.6,462.9c0.2-0.8,0.4-1.6,0.6-2.4
	c-10.5-4.6-21.1-9.2-31.6-13.8c-0.3,0.7-0.7,1.3-1,2c9.6,5.2,19.1,10.4,28.8,15.5C299,464.4,300.5,463.3,301.6,462.9z M238,487.8
	c0.1-0.6,0.3-1.3,0.4-1.9c-3.6-1.9-7.2-3.8-10.7-5.8c-6.3-3.5-6.3-3.5-14.1,2.3C222.2,484.4,230.1,486.1,238,487.8z M551.6,585.6
	c6.3-0.8,7.4-2.6,5.6-7.5C555.2,580.7,553.9,582.4,551.6,585.6z"/>
<path fill-rule="evenodd" clip-rule="evenodd" d="M588.5,410.8c-17.3,0.7-33.1-11.2-39.4-29.8c-2.3-6.9-5.2-13.7-8.5-20.3
	c-8.5-17.2-7-34.6-1.6-52.1c0.7-2.2,3.2-3.8,5.1-5.5c16.8-15.2,37.4-22.8,58.4-29.7c6.1-2,12.1-4.2,18.1-6.4
	c12.9-4.7,25.5-10.2,38.7-14c23.3-6.8,46.8-13,70.4-18.6c14.3-3.4,28.9-5.2,43.4-7.7c3.2-0.5,6.5-0.5,9.4-1.7
	c10.1-4.1,20.7-4.9,31.1-4.2c12.8,0.9,25.9,0,38,6.6c11.4,6.2,16.2,16.5,20.9,27.5c3.5,8.3,2,17,2.1,25.3c0,5.1-4.3,10.5-7.4,15.2
	c-7.5,11.3-19.1,17.9-30.7,24c-16.4,8.6-32.8,17.5-49.9,24.4c-23.9,9.7-48.5,17.7-72.7,26.6c-18.3,6.7-36.8,12.9-54.7,20.6
	c-13.6,5.9-27.9,8.9-42,13C607.8,406.9,598.1,408.6,588.5,410.8z M802,329c9.6-4.6,17.6-8.5,25.7-12.4c12.2-6,22.4-14.7,32.1-24
	c4.4-4.2,6.9-9.9,6.1-15.7c-1.9-14.4-6.2-28.2-16.1-39.3c-2.6-2.9-6.6-5.3-10.4-6c-16.5-3-33.1-3.2-49.6-0.2
	c-7.5,1.3-15.1,2.6-22.6,4c-8.8,1.7-17.7,3.2-26.4,5.3c-13.6,3.3-27.1,7.2-40.7,10.7c-11.8,3-23.7,5.4-35.3,9
	c-15.8,4.9-31.4,10.4-47,16c-13.2,4.7-26.5,9.2-39.4,14.7c-12.8,5.4-24.5,12.6-28.3,27.5c-1,4-2.6,8-2.8,12.1
	c-0.4,10.4-2.6,21,3.8,30.7c2.9,4.4,4.8,9.7,6.5,14.7c7.2,20.7,22.4,29.4,43.6,25.1c19.2-3.9,37-11.9,54.5-19.5
	c1.1-8.2,2.1-16.1,3.1-23.9c1.5-0.8,2.6-1.4,3.7-2c9.8-4.8,10.5-4.4,13.9,6c1.5,4.4,1.8,9.7,7,11.6c31.9-9.7,62.8-21.5,92.2-33.3
	c0-7.8,0.7-13.9-0.2-19.8c-1-7,2.5-10.8,7.7-13.9c2.4-1.4,5.1-2.5,7.9-3.9c2.5,1.8,5.4,3.1,7,5.2c1.7,2.4,2.7,5.5,3.2,8.4
	C802.1,319.9,801.8,323.8,802,329z M669.1,359.2c-4.8,7.2-4.9,12.5-0.1,18.4c2.4-0.7,4.9-1.4,7-2
	C673.8,370.3,671.9,365.7,669.1,359.2z M789.1,334.4c2.5-1.5,4.4-2.2,4.4-2.8c-0.4-6.2-1.7-12.1-6-18.1
	C782.8,321.3,788,326.8,789.1,334.4z"/>
<path fill-rule="evenodd" clip-rule="evenodd" d="M625.1,488.1c-0.7-11,2.9-20.6,6.2-30.3c2.3-6.7,7.2-11.4,13.3-14.5
	c16.2-8.2,33.3-11.1,51.1-6.9c8.7,2,17.3,4.7,25.9,7.3c11.3,3.3,20.7,9.5,29.1,17.8c7.6,7.5,10.5,16.9,8.7,26.3
	c-3.5,18-12.3,33.5-27.6,44.5c-12.3,8.9-26.4,12.6-41.3,12.3c-5.5-0.1-10.8-3.9-16.4-5.1c-14.8-3.2-27.1-10.8-38.6-20.1
	c-2.1-1.7-3.8-4.2-4.9-6.7C627.1,504.7,624.2,496.6,625.1,488.1z M698.3,534.8c2.7-0.3,5.6-0.5,8.4-1c23.3-4,36.9-19.1,44.8-40.1
	c2.3-6.1,2.2-13.2-1.6-19.5c-6-9.8-13.8-17.7-24.9-21.3c-12.7-4-25.6-7.8-38.7-10.6c-21.6-4.7-37.9,9.3-37.7,31.1
	c0.2,17.3,5.3,32.4,16.8,45.6C674.3,529.2,685.1,534.1,698.3,534.8z"/>
<path fill-rule="evenodd" clip-rule="evenodd" d="M0.5,439c12.1-3.1,24.3-6.4,36.4-9.3c12.1-2.9,24.3-4.9,36.3-8.2
	c12-3.3,23.7-7.6,35.8-10.5c-6.3,6.6-14.8,8.6-22.9,10.6c-26.8,6.6-53.9,12.6-80.8,18.8c-1.4,0.3-3,0.4-4.4,0.5
	C0.8,440.2,0.6,439.6,0.5,439z"/>
<path fill-rule="evenodd" clip-rule="evenodd" d="M159.4,476.6c-31.1,10.7-64,12.8-96.3,17.3c32-6.5,64.1-13,96.1-19.6
	C159.3,475.2,159.4,475.9,159.4,476.6z"/>
<path fill-rule="evenodd" clip-rule="evenodd" d="M230.3,532.2c5.1-1.5,10.1-3.3,15.2-4.5c15.1-3.7,30.2-7.3,45.3-10.9
	c3.1-0.7,6.3-1.7,9,3c-23.3,4.9-46.1,9.7-68.9,14.5C230.8,533.6,230.6,532.9,230.3,532.2z"/>
<path fill-rule="evenodd" clip-rule="evenodd" d="M117.4,373.4c-13.8,4.5-27.6,9-41.7,13.6c-2.1-3.8,0.4-5.1,3.3-6
	c8.8-2.6,17.6-5.1,26.5-7.3c3.6-0.9,7.5-1.1,11.2-1.6C117,372.5,117.2,372.9,117.4,373.4z"/>
<path fill-rule="evenodd" clip-rule="evenodd" d="M193.8,520.6c5.2-6.3,29.4-11.4,40.4-8.7C221.3,517.3,207,516.2,193.8,520.6z"/>
<path fill-rule="evenodd" clip-rule="evenodd" d="M70.9,456.7c4.7-5.5,33.6-16.5,45.5-17.1c-7.6,6.3-15.5,7.1-22.5,9.7
	C86.5,451.9,79.1,454,70.9,456.7z"/>
<path fill-rule="evenodd" clip-rule="evenodd" d="M324.7,538c-12.5,6.8-26.4,8.5-40.5,9.5c13.2-4,26.3-7.9,39.5-11.9
	C324,536.4,324.4,537.2,324.7,538z"/>
<path fill-rule="evenodd" clip-rule="evenodd" d="M156,506.9c9.6-3,19.3-6.1,28.9-9.1c0.3,0.8,0.5,1.7,0.8,2.5
	c-9.1,4.8-19.1,6.8-29,8.7C156.4,508.3,156.2,507.6,156,506.9z"/>
<path fill-rule="evenodd" clip-rule="evenodd" d="M123.1,345.1c-6.1,1.9-12.1,3.9-18.2,5.8C109.7,344.9,115.6,341.9,123.1,345.1z"/>
<path fill-rule="evenodd" clip-rule="evenodd" d="M132.9,460.2c-5.7,1.6-11.3,3.1-17,4.7c4.6-5.2,9.8-8.3,16.5-6.9
	C132.6,458.8,132.7,459.5,132.9,460.2z"/>
<path fill-rule="evenodd" clip-rule="evenodd" d="M567,169.8c-7.3,0-10.5-2.3-11.2-8.4c-0.9-8.3,3.9-15.7,11.4-17.1
	c6.3-1.2,12,0.6,17,4.4c3.5,2.7,3.9,6.6,1.2,11C581.3,166.4,575.4,170.2,567,169.8z"/>
<path fill-rule="evenodd" clip-rule="evenodd" d="M400,521.7c-0.7-6.2,3-11.6,7.6-15.2c8.9-6.7,19.1-10.6,30.6-7.1
	c12.9,3.9,15.4,15.4,9,27.2c-7.9,14.4-20.7,13.4-33.1,13C404.8,539.4,399.9,532,400,521.7z M426.3,503.3c-3.5,1.6-6.7,3-9.8,4.5
	c-6.1,2.9-9.8,10.1-8.9,16.6c1.2,7.9,10.7,12.2,16.9,7.7c8.3-6,9.7-13.1,4.7-22.1C428.1,507.9,427.3,505.5,426.3,503.3z"/>
<path fill-rule="evenodd" clip-rule="evenodd" d="M203.3,406.4c-13.8,0.4-21-4.8-23.3-16c-1.7-8.3,2.1-15.6,10-19.1
	c2-0.9,4.1-1.8,6.2-2.5c13.1-4,26.5,4.3,28.3,17.8c0.3,2.6-0.8,5.7-2.1,8.1C218.1,402.5,210.1,404.3,203.3,406.4z M205.2,374.1
	c-1.6,0.2-3.2,0.7-4.6,0.4c-4.9-0.9-9.2,0-11.6,4.5c-2.7,5.2-3.7,11.2,0.3,16.2c1.8,2.2,5.1,4.4,7.7,4.4c9.6,0,15.4-9.3,12-18.4
	C208,378.8,206.6,376.7,205.2,374.1z"/>
<path fill-rule="evenodd" clip-rule="evenodd" d="M636.6,148.6c0.2-8.1,5.1-14.4,11.2-14.2c6.7,0.3,13.3,6.6,13.5,12.9
	c0.2,5.4-8.4,12.2-15.2,12C640.3,159.1,636.5,154.8,636.6,148.6z"/>
<path fill-rule="evenodd" clip-rule="evenodd" d="M895.9,409.3c4.2-1.8,8.4-3.7,12.8-5.7c-1.5-7.1-8.2-9.8-13.1-14.4
	c8.4-2.8,8.4-2.8,20.7,13.5c2.5-1.2,5.1-2.4,8.9-4.2c-3.1-5.7-5.7-10.6-8.4-15.5c6.2-2.5,6.3-2.4,13.5,12.7c2.3-1.1,4.7-2.3,7.4-3.6
	c-2.2-6.1-4.1-11.6-6.5-18.3c8.8,1.3,8.3,8,11.8,13.2c4.5-1.1,9.4-2.4,15.4-3.9c-2.1,6.3-9,7.6-11.4,13.3c3.5,8.3,8,16.7,6.6,27.2
	c-5.8-3.1-3.7-9.6-6.9-13.2c-9,2.2-10.4,4-9,12c0.4,2.2,3,4.5-1.1,7.1c-0.7-1.8-1.3-3.3-2-4.9c-0.8-1.7-1.6-3.4-2.3-5
	c-8.2,1.7-8.2,1.7-9.4,16.6c-2.7-3.8-4.5-6.4-6.4-8.9c-8.2,0.4-13.8,8.7-24.3,7.8c7.4-8.3,16.5-10.5,24.3-14.4
	c-1.5-9.6-1.5-9.6-9.7-9c-2.5,0.2-5.1,0.3-7.7,0.3c-0.9,0-1.7-0.5-2.6-0.8C896.3,410.7,896.1,410,895.9,409.3z M944.1,404.2
	c-1.2-4.7-3-7.1-6.9-4.4c-3.6,2.6-4.8,5.7-0.1,9.3C939.3,407.6,941.6,406,944.1,404.2z M922.7,416c7.7-3.2,7.7-3.2,4.3-10.2
	c-2.4,0.9-4.9,1.9-8.1,3.1C920.4,411.8,921.6,413.9,922.7,416z"/>
<path fill-rule="evenodd" clip-rule="evenodd" d="M617.4,373.2c4-12.4,70.7-96.1,83.8-105.4c4.3,3.1,2.8,6-0.1,9.2
	c-5.8,6.3-11.8,12.5-17,19.3c-13.3,17.1-26.2,34.6-39.3,51.9c-3.7,4.8-7.8,9.3-11.6,14c-1.6,2-3.3,4-4.3,6.3
	C625.9,375.4,626,375.4,617.4,373.2z"/>
<path fill-rule="evenodd" clip-rule="evenodd" d="M741.5,323.5c1.6-2.9,2.5-5.4,4-7.3c14.5-18.6,28-37.9,45.8-53.7
	c4.2-3.7,7.6-8.5,11.3-12.8c2.8-3.2,5.8-5.9,12-3.8c-1.4,2.5-2,4.8-3.6,6.3c-22.2,21.5-40.7,46.3-60.1,70.3
	C748,326.6,748.1,326.7,741.5,323.5z"/>
<path fill-rule="evenodd" clip-rule="evenodd" d="M688,484.7c-5-4.7-9.4-8.8-14-13.2c2.4-4.5,5.3-3.7,8.3-1.1
	c3.9,3.3,7.6,6.7,11.8,10.4c1.8-1.6,3.3-3,4.4-3.9c-0.1-4.9-10.3-6.5-2.7-12.9c2.8,2.5,5.4,4.8,8.3,7.5c4.1-2.3,8.2-4.6,12.9-7.3
	c0.1,8.2-10.4,10.5-6.9,19.1c2.5-0.7,4.8-1.3,7-1.9c-3.8,5-3.6,10-3.4,15.5c0.2,4.3,2.1,10.1-4,14.1c-0.4-6.3-0.7-11.7-1-18
	c-4.5,2.1-7.2,3.5-7.1,8.1c0.1,3.8-0.7,7.6-1.6,11.3c-0.4,1.8-2.1,3.2-3.1,4.9c-0.6-0.2-1.2-0.4-1.8-0.6c0.4-4.6,0.7-9.2,1.2-15.2
	c-7.5,2.8-13.5,5-21,7.9c3.7-9.9,15.9-8,18.1-17.3c-6.1-1.6-11.5,5.3-17.8-1.6C679.8,488.5,683.4,486.8,688,484.7z M704.9,487
	c-1.2-0.9-2.2-1.9-2.5-1.7c-1.2,0.7-2.2,1.7-3.3,2.7c0.8,0.8,1.9,2.3,2.2,2.2C702.6,489.4,703.6,488.3,704.9,487z"/>
<path fill-rule="evenodd" clip-rule="evenodd" fill="#FFFFFF" d="M426.3,503.3c-3.5,1.6-6.7,3-9.8,4.5c-6.1,2.9-9.8,10.1-8.9,16.6
	c1.2,7.9,10.7,12.2,16.9,7.7c8.3-6,9.7-13.1,4.7-22.1C428.1,507.9,427.3,505.5,426.3,503.3z"/>
<path fill-rule="evenodd" clip-rule="evenodd" fill="#FFFFFF" d="M205.2,374.1c-1.6,0.2-3.2,0.7-4.6,0.4c-4.9-0.9-9.2,0-11.6,4.5
	c-2.7,5.2-3.7,11.2,0.3,16.2c1.8,2.2,5.1,4.4,7.7,4.4c9.6,0,15.4-9.3,12-18.4C208,378.8,206.6,376.7,205.2,374.1z"/>
<path fill-rule="evenodd" clip-rule="evenodd" fill="#FFFFFF" d="M669.1,359.2c-4.8,7.2-4.9,12.5-0.1,18.4c2.4-0.7,4.9-1.4,7-2
	C673.8,370.3,671.9,365.7,669.1,359.2z"/>
<path fill-rule="evenodd" clip-rule="evenodd" fill="#FFFFFF" d="M789.1,334.4c2.5-1.5,4.4-2.2,4.4-2.8c-0.4-6.2-1.7-12.1-6-18.1
	C782.8,321.3,788,326.8,789.1,334.4z"/>
</svg>
