<?xml version="1.0" encoding="utf-8"?>
<!DOCTYPE svg PUBLIC "-//W3C//DTD SVG 1.1//EN" "http://www.w3.org/Graphics/SVG/1.1/DTD/svg11.dtd">
<svg artist="zl2017" version="1.1" id="zlIcon-car-sheep-left-boy" xmlns="http://www.w3.org/2000/svg" xmlns:xlink="http://www.w3.org/1999/xlink" x="0px" y="0px"
	 width="1000px" height="779px" viewBox="0 0 1000 779" enable-background="new 0 0 1000 779" xml:space="preserve">
<path fill-rule="evenodd" clip-rule="evenodd" d="M900.9,663c-7,21.4-18.2,41.7-32.1,60.5c-5.5,7.4-12.1,15.5-20.1,19.5
	c-39.8,19.8-81.6,27.9-125.6,16c-32-8.7-67.5-37.3-82.6-66.6c-1.9-3.8-3.5-7.7-5.6-12.2c-41.4,8.9-82.8,4.9-124,5.9
	c-6.9,0.2-13.8,0.3-20.8,0.4c-15.4,0.3-25.6,6.8-31.3,22.1c-21.3,57.6-98.8,85.2-152,62.1c-5.5-2.4-11.3-4.4-17.2-5.5
	c-38.5-7.2-64.9-30.8-84.6-63c-3.5-5.7-5-12.8-6.8-19.4c-2.9-10.7-5.4-21.5-8-32.2c-3.7-0.6-6.4-1.8-8.6-1.2c-28,7-56.5,7.3-85,6.1
	c-8.5-0.4-17.2-1.9-25.4-4.2c-6.1-1.8-11.9-3.3-17.5-0.3c-9.3,5-18.5,4.8-27.3,0c-10-5.5-17.9-13.3-21.9-24.5
	C-1.1,610-0.8,593.8,5,578c1.9-5.3,6.1-10.7,10.6-14.1c7.5-5.6,16.1-9.7,26.2-15.6c-0.6-4.6-2-11.2-2.2-17.9
	c-1.4-39.9-0.7-79.6,16.4-117c3.9-8.6,5.9-18.1,9.4-26.9c3.4-8.8,7.3-17.4,11.4-26c6.5-13.6,17.3-20.2,32.5-22.4
	c31.8-4.5,63.5-7.3,95.7-4.4c9.3,0.8,18.9,1.6,29.4-1.8c-0.5-4.6-0.6-8.7-1.5-12.6c-6.1-25.6-3.4-50.4,10.3-72.5
	c6.3-10.1,8.2-19,3.5-28.9c-9.3-19.5-11.1-39.7-7.2-60.7c1-5.1,1.9-10.3,1.6-15.4c-1.9-36.4,21.7-57,48.1-74.3
	c21.1-13.9,45.2-21.9,71.3-19.2c8.5,0.9,15-2.3,21.5-7.1c26.8-19.6,57.8-22.6,89-18.7C484,24.3,496.3,33,508.7,39
	c8.5,4.1,16.4,9.3,25.7,14.7c28.3-16.9,56.5-33.6,84.6-50.5c4.7-2.9,9-5.6,14.4,1.7c-7.6,14.4-15.7,29.4-23.7,44.5
	c-8,15.2-16,30.5-23.7,45.2c7.1,13.5,21.1,13.2,30.8,19.8c10,6.7,19.6,14.1,29.1,20.9c13.8-1.3,21.5-11.1,30.4-19.1
	c6.4-5.7,12.6-12.1,20-16.1c10.8-5.9,20.1-4,27.7,5.7c9,11.5,17.5,23.6,24.6,36.4c7.2,12.9,4.6,22.4-7.3,31.5
	c-11.9,9-25.2,14.9-40.1,14c-6.8-5.1-7.8-11.8-8.6-18.8c-0.7-5.9-1.5-12.1-4-17.5c-6.2-13.5-15.4-16.1-29.4-9.3
	c-2.3,1.1-4.3,2.8-5.6,3.7c-0.8,14.3-1,27.8-2.3,41.2c-3,30-18.4,53.6-40.6,72.9c-9.1,7.9-19.1,14.9-28.7,22.1
	c-6,4.5-9.9,9.9-8,17.7c3.1,12.5,4.9,25-3.7,38.6c14.4-0.5,22.3-5.4,28.7-12.3c16.3-17.7,32.8-35.1,39.5-59.8
	c3.8-13.9,11.5-27.1,19-39.6c11.8-19.6,37.9-23.8,56.2-9.6c15,11.6,29.6,23.7,43.9,36.1c21.2,18.3,37.7,40.3,49,66.1
	c4.8,11,10.8,21.5,17.1,33.9c13.6,2.9,27.7,6.6,42.1,8.7c31.4,4.4,60.4,14,85.4,34.3c8.7,7,18.9,12.2,27.6,19.2
	c15.1,12,22.1,26.5,20,47.3c-2.7,26.5-0.7,53.5-0.7,80.3c0,22.5-1.4,44.7-9.4,66.2c-8.8,23.9-25,38.5-49.9,44.1
	C926.6,656.1,912.9,654,900.9,663z M937,428.4c8.1,2.1,16.1,5.3,27-2.5C953,427,945,427.7,937,428.4c-18.7,11.8-31.7,27.8-38.8,49.1
	c-6.5,19.6-2.2,37.1,8,53.9c2.1,3.5,5.4,7.4,9.1,8.7c16,5.8,32.1,11.9,49.6,10.5c6.2-0.5,11.6-3,12-10.6c1.6,0.1,3.1,0.1,4.7,0.2
	c-0.4-1-0.8-2-1.2-3c-1,1.1-2.1,2.2-3.1,3.3c-6.8,0.7-13.7,2.1-20.5,2c-5.9,0-12.5-0.3-17.4-2.9c-7.5-4-14.5-9.5-20.5-15.5
	c-9.7-9.6-13.8-21.4-11.8-35.3c2.5-17.6,7.7-33.6,22.3-45.1C934.4,439.8,938.2,435.4,937,428.4z M458,124.6
	c3.4-9.5,12.5-11.7,20.4-14.1c13.1-4.1,26.7-6.7,40.3-9.5c10.7-2.2,21.5-3.9,30.8-8.3c0-2.5,0.3-3.5-0.1-4.2
	c-0.7-1.6-1.6-3.1-2.7-4.4c-21.7-28.4-52.1-42.4-85.6-49.7c-20.4-4.4-39.6,0.5-53.3,18.4c-5.1,6.7-10.2,13.3-16.2,21.1
	c-3-1.5-6.6-3.6-10.5-4.9c-18.1-6.5-36.9-11.7-55.7-4.7c-23.8,8.9-43.6,24.2-59.6,44c-2.6,3.3-4.3,7.6-5.4,11.7
	c-8.4,30.6-0.2,57.4,18,82.5c6.8-2.5,12.3-4.7,18.1-6.4c6.2-1.8,7.6-0.2,9.7,10.3c-47.8,12.4-81.2,80-35.3,132.2
	c37.5,2.6,76.1,5.3,116.9,8.2c-1.9-5.5-3.1-8.5-4-11.6c-4.1-13.7,1.3-22.4,15.2-22.8c16.5-0.4,32.4,2.8,47.9,11.6
	c0,7.8,0,15.3,0,24.1c34,3.3,66.7,1.9,99.4-0.4c3.2-0.2,7.7-1.6,9.1-4c4-6.5,7.7-13.5,9.7-20.7c2-7.4,2.1-15.4-5.2-21.4
	c-7,1.2-13.7,2.3-20.4,3.4c-23,4.1-41.5-3.6-59-19c-22.5-19.8-37.7-44.8-54.7-68.6c-9-12.7-11.1-27.1-5.8-42
	c3.2-8.9,7.5-17.4,10.9-26.3c1.4-3.6,5.4-7,2.2-11.5c-17.4,4.1-21.5,6.7-30.2,20.8c-4.1,6.6-6.9,14.1-11.4,20.3
	c-9.7,13.1-25.3,14.5-35.5,2.2c-11.6-14-20.7-29.7-18.8-48.6c28.8-21.6,56.8-32.1,84.4-31.6c10,11,19,24.9,37.4,23.2
	c0.2,9.6-9,11.8-13.9,17.3c-23.1,26.4-23.3,60.8,0,83.6c22.2,21.7,48.3,26.3,76,12.5c28.5-14.2,40.4-38.8,41.3-69.5
	c0.8-24.6-9.4-37-33.3-41.5C505.2,121.7,481,121.2,458,124.6z M400.8,361.5c-25.9-2.2-50-4-74.1-6.3c-44.7-4.3-89.2-11.2-134.3-11.3
	c-22.5-0.1-45-0.5-67.2,4c-11.1,2.3-22.1,5.1-29.7,14.4c-11.4,14-17.7,30.1-15.3,48.1c3.9,29.9,9.7,59.4,20.7,87.9
	c15.1,39,24.4,79.3,14.9,121.6c-0.5,2.2,0.9,4.9,1.4,7.3c15.2,12.2,33.7,5.9,50.2,9.8c7.3,1.7,15.4,0.4,22.5-4.7
	c0.8-3.2,1.8-6.4,2.4-9.8c5.8-33.3,20.2-62.3,42.8-87.3c10.5-11.7,22.6-20.6,37.5-26.8c17.3-7.2,35.4-7,53.1-10.5
	c21.3-4.3,41.2-1,61.3,4.5c6.7,1.8,13.2,4.3,19.8,6.2c43.6,12.3,69.8,45.3,71.7,90.3c0.8,19.1,0.9,38-3.9,56.7
	c-0.8,3.2-0.1,6.7-0.1,10.3c10.6,8.2,21.8,9.4,34.5,7.7c16.2-2.2,32.7-2.5,49.1-3.3c16.4-0.7,32.9-0.6,49.3-1.6
	c6.6-0.4,13.2-2.8,18.9-4c1.2-3.1,2.4-4.7,2.3-6.2c-0.3-5.1-0.6-10.3-1.7-15.4c-8.5-41.8,2.2-79.2,28-111.9
	c14.5-18.3,32.6-32.8,56.7-38.4c42.1-9.7,82.4-3.2,122,11.7c2.4,0.9,4.7,2.4,6.5,4.2c12.7,12.9,25.6,25.6,37.7,39.1
	c4.5,5,7.5,11.5,10.4,17.7c2.9,6.2,4.9,12.9,7.1,19.4c2.2,6.5,4.2,13.2,6.3,19.7c2.1,6.6,5.1,13,6.4,19.7c1.2,6.4,0.8,13.1,1.1,21.5
	c10.3-1.9,18.6-3.7,27-5c25.5-4,39-20.3,45.4-43.9c4.2-15.3-1.4-24.8-17.3-29c-9.2-2.4-18.7-3.6-27.9-5.8
	c-32.4-7.6-53.8-35.2-51.6-68.2c2-30.2,15.1-54.6,42.1-70.2c6.4-3.7,14.3-5.8,17.8-15.3c-17-10.3-32.6-23.5-52.4-27.1
	c-23.7-4.4-47.5-8.4-72-8.1c-30.2,0.4-60.5-0.3-90.6-2.8c-17.8-1.5-36-3.7-52.5-12.7c-18.7-10.2-26.6-26.3-21.4-47.3
	c5.9-23.5,14.5-46.1,25.3-67.8c2.6-5.1,7.3-10,3.3-17.9c-7.6,1.3-14.2,4.7-17.7,12c-4.5,9.3-8.3,18.9-11.8,28.6
	c-8.5,23.7-17.9,46.7-33.9,66.7c-9.2,11.5-20.7,18.6-34.8,20.6c-22.2,3.2-44.5,6-66.9,7.3c-19,1.1-38-0.3-57.1-0.1
	c-5.8,0-11.6,1.6-17.9,2.5c-2.8,14.6-5.4,28-4.6,42c0.1,2.3-3.6,5.5-6.2,6.9c-1.3,0.7-5.2-1.4-6.3-3.2
	C418.5,392.8,410.1,377.8,400.8,361.5z M344,512.8c-18.5-3.5-36.3-0.5-53.3,6.8c-12.7,5.4-25.3,11.2-37.2,18.1
	c-16.7,9.7-29.5,22.8-36.3,42c-4.4,12.2-8.1,24.5-11.1,37c-6.7,27.4-1.3,53.4,10.1,78.1c6.8,14.9,17.1,28.1,31.2,37.4
	c33.1,21.9,69.1,29.9,108.5,23.3c16.4-2.7,31.4-8.4,46.7-14.7c26.1-10.7,41.2-29.7,48.9-56.1c4.1-14,9.7-27.5,14-41.4
	c1.5-4.8,1.7-10.3,1.4-15.3c-0.9-13.8-2.4-27.5-3.6-41.2c-2.2-26.2-18.7-43-40.1-53.3c-12.8-6.2-26.6-12-40.6-15.6
	C370,514.7,356.9,514.4,344,512.8z M884.1,628.3c0-7.8,0.7-15.6-0.1-23.3c-4.1-37.7-21.1-66.4-56.4-83.7
	c-31.2-15.3-63.2-22.1-97.6-16.7c-7.6,1.2-16,0.4-22.7,3.3c-29.9,13.1-51.8,34-59.6,66.9c-2.8,11.7-5,23.7-6.7,35.6
	c-5.9,41.5,3.8,77.1,40,102.3c4.2,2.9,7.9,6.8,12.1,9.7c27.7,19.2,57.2,32.9,92,26.5c14.3-2.7,28.3-7.3,42.2-11.8
	c25.1-8.2,37.9-29.5,48.5-50.9C884.4,668.5,886.9,648.3,884.1,628.3z M810.9,358.3c-11.5-24.9-19.3-47.5-33.5-67.3
	c-13.3-18.6-30.9-32.6-48.2-46.9c-16.5-13.7-29.9-11-39.9,7.9c-7.7,14.4-13.1,30.1-20.2,44.8c-6.3,13.1-2.8,25.2,1.7,37.6
	c3.9,10.7,13.9,12,22.7,15.2c3.2,1.2,6.5,2.5,9.9,3.1C737.6,359.2,772,360.5,810.9,358.3z M550.2,237c8,7.8,16.7,14.1,28.9,13.6
	c15-0.6,29.2-3.6,40-15.2c19.6-21,25.5-46.5,21.9-74.2c-2.5-19.1-15.8-30.1-33-36.2c-14.7-5.2-28.5-4.1-41.2,9.1
	c8.1,16.7,12.2,34.6,5.9,52.3C566.6,203.3,558.2,219.2,550.2,237z M976.6,449.4c-3.7-1.7-7.6-3.4-11.4-5.4
	c-10.7-5.7-20-2.6-28.5,4.7c-15.1,12.9-19.3,30.3-18.2,49c0.3,5.4,4.3,11.1,8,15.6c3.7,4.6,9,8,13.7,11.8c9,7.2,19.3,7.4,29.3,3.4
	c6.1-2.4,11.2-7.3,16.9-11.2c-2-20-3.8-38.8-5.9-57.6C980,456.4,978.1,453.3,976.6,449.4z M46,638.4c13.7-6.1,24.3-11.8,35.5-15.5
	c13.7-4.5,18.3-14.3,19.3-27.2c1.1-13.6-9.4-28.7-22.8-29.8c-13.2-1-26.9-1.2-41.1,3.4c4,11.7,9.1,21.9,10.5,32.5
	C48.9,612.5,46.7,623.8,46,638.4z M25.9,573.7c-3.8,1.7-6.9,2-7.8,3.6c-9.5,17-9.6,34.3-0.6,51.5c1.4,2.7,4.9,4.6,7.7,6.4
	c1.1,0.6,3.5,0.2,4.6-0.7c1.2-0.9,2.3-2.9,2.2-4.3c-0.1-2.4-0.6-5.3-2-7c-10-12-10.5-24.7-4.3-38.5C26.9,582,25.9,578.4,25.9,573.7z
	"/>
<path fill-rule="evenodd" clip-rule="evenodd" fill="#FFFFFF" d="M400.8,361.5c9.2,16.3,17.6,31.3,26.4,46.1
	c1.1,1.8,5.1,3.9,6.3,3.2c2.7-1.4,6.4-4.6,6.2-6.9c-0.8-14,1.7-27.4,4.6-42c6.3-0.9,12.1-2.4,17.9-2.5c19-0.2,38.1,1.3,57.1,0.1
	c22.4-1.3,44.7-4.1,66.9-7.3c14.1-2,25.5-9.1,34.8-20.6c16-19.9,25.4-43,33.9-66.7c3.5-9.7,7.3-19.3,11.8-28.6
	c3.5-7.3,10.1-10.6,17.7-12c4,8-0.7,12.8-3.3,17.9c-10.8,21.7-19.4,44.3-25.3,67.8c-5.3,21.1,2.7,37.2,21.4,47.3
	c16.5,9,34.7,11.3,52.5,12.7c30.1,2.5,60.4,3.2,90.6,2.8c24.5-0.3,48.3,3.7,72,8.1c19.8,3.7,35.5,16.8,52.4,27.1
	c-3.5,9.5-11.4,11.6-17.8,15.3c-27,15.7-40.1,40-42.1,70.2c-2.2,33,19.2,60.6,51.6,68.2c9.2,2.2,18.7,3.4,27.9,5.8
	c15.9,4.2,21.4,13.7,17.3,29c-6.4,23.6-19.9,39.9-45.4,43.9c-8.4,1.3-16.7,3.1-27,5c-0.4-8.4,0.1-15.1-1.1-21.5
	c-1.3-6.7-4.3-13.1-6.4-19.7c-2.1-6.6-4.1-13.2-6.3-19.7c-2.2-6.5-4.2-13.2-7.1-19.4c-2.9-6.2-5.9-12.7-10.4-17.7
	c-12.1-13.4-25-26.2-37.7-39.1c-1.8-1.8-4.1-3.3-6.5-4.2c-39.6-14.9-79.9-21.4-122-11.7c-24,5.6-42.2,20.1-56.7,38.4
	c-25.9,32.7-36.5,70.2-28,111.9c1,5,1.4,10.2,1.7,15.4c0.1,1.5-1.1,3.1-2.3,6.2c-5.7,1.3-12.2,3.6-18.9,4c-16.4,1-32.8,0.9-49.3,1.6
	c-16.4,0.7-32.9,1.1-49.1,3.3c-12.7,1.7-23.8,0.5-34.5-7.7c0-3.6-0.7-7.1,0.1-10.3c4.7-18.7,4.7-37.7,3.9-56.7
	c-2-45-28.1-78-71.7-90.3c-6.7-1.9-13.2-4.3-19.8-6.2c-20.1-5.5-40-8.8-61.3-4.5c-17.7,3.6-35.8,3.3-53.1,10.5
	c-14.9,6.2-26.9,15.1-37.5,26.8c-22.6,25-37,54-42.8,87.3c-0.6,3.4-1.6,6.7-2.4,9.8c-7.1,5.1-15.2,6.4-22.5,4.7
	c-16.5-3.8-35,2.5-50.2-9.8c-0.5-2.4-1.9-5.1-1.4-7.3c9.5-42.3,0.2-82.6-14.9-121.6c-11.1-28.5-16.8-58-20.7-87.9
	c-2.4-18,3.9-34.2,15.3-48.1c7.6-9.3,18.5-12.1,29.7-14.4c22.2-4.5,44.7-4.1,67.2-4c45.1,0.2,89.6,7,134.3,11.3
	C350.8,357.5,374.9,359.3,400.8,361.5z"/>
<path fill-rule="evenodd" clip-rule="evenodd" fill="#FFFFFF" d="M458.8,123.7c-18.4,1.7-27.4-12.1-37.4-23.2
	c-27.6-0.5-55.6,10-84.4,31.6c-1.9,18.9,7.2,34.6,18.8,48.6c10.2,12.2,25.8,10.9,35.5-2.2c4.6-6.2,7.4-13.7,11.4-20.3
	c8.7-14,12.8-16.7,30.2-20.8c3.2,4.6-0.9,7.9-2.2,11.5c-3.4,8.9-7.6,17.4-10.9,26.3c-5.4,14.9-3.3,29.4,5.8,42
	c17,23.8,32.1,48.9,54.7,68.6c17.5,15.4,36,23,59,19c6.7-1.2,13.4-2.3,20.4-3.4c7.4,6,7.2,14.1,5.2,21.4c-2,7.3-5.7,14.3-9.7,20.7
	c-1.5,2.4-5.9,3.8-9.1,4c-32.7,2.3-65.4,3.7-99.4,0.4c0-8.8,0-16.3,0-24.1c-15.5-8.8-31.4-12-47.9-11.6c-13.8,0.4-19.3,9-15.2,22.8
	c0.9,3.1,2.1,6.1,4,11.6c-40.8-2.9-79.4-5.6-116.9-8.2c-46-52.2-12.5-119.7,35.3-132.2c-2.2-10.5-3.6-12.1-9.7-10.3
	c-5.7,1.7-11.3,4-18.1,6.4c-18.2-25.1-26.4-51.9-18-82.5c1.1-4.1,2.8-8.4,5.4-11.7c16-19.8,35.8-35.1,59.6-44
	c18.8-7,37.6-1.9,55.7,4.7c3.8,1.4,7.4,3.5,10.5,4.9c6-7.8,11.1-14.4,16.2-21.1c13.7-17.9,32.9-22.8,53.3-18.4
	c33.5,7.3,64,21.3,85.6,49.7c1,1.4,2,2.9,2.7,4.4c0.3,0.7,0.1,1.7,0.1,4.2c-9.3,4.5-20.1,6.2-30.8,8.3c-13.5,2.7-27.1,5.4-40.3,9.5
	c-7.9,2.4-16.9,4.6-20.4,14.1L458.8,123.7z"/>
<path fill-rule="evenodd" clip-rule="evenodd" fill="#FFFFFF" d="M344,512.8c12.8,1.6,26,1.8,38.3,5.1c14,3.6,27.8,9.5,40.6,15.6
	c21.4,10.3,38,27.1,40.1,53.3c1.1,13.8,2.7,27.5,3.6,41.2c0.3,5.1,0.1,10.5-1.4,15.3c-4.3,13.9-9.9,27.5-14,41.4
	c-7.7,26.4-22.8,45.4-48.9,56.1c-15.2,6.3-30.3,11.9-46.7,14.7c-39.4,6.6-75.4-1.4-108.5-23.3c-14.1-9.3-24.3-22.6-31.2-37.4
	c-11.3-24.7-16.8-50.7-10.1-78.1c3.1-12.6,6.8-24.8,11.1-37c6.9-19.2,19.6-32.3,36.3-42c11.9-6.9,24.5-12.7,37.2-18.1
	C307.7,512.4,325.5,509.3,344,512.8z M262.3,629.8c0.7,33.4,13.7,57.3,41,69.9c20.5,9.5,43.6,10.8,65.9,4.3
	c7.2-2.1,14.7-6.1,19.8-11.4c17.6-18.3,22.1-42.3,24.9-66.3c0.7-5.6-1.5-12.1-3.9-17.5c-11-25.5-49.7-46.1-77.5-40.5
	c-20.6,4.1-39,13.1-54.6,27.8C267.1,606.2,263.1,618.9,262.3,629.8z"/>
<path fill-rule="evenodd" clip-rule="evenodd" fill="#FFFFFF" d="M884.1,628.3c2.8,20.1,0.3,40.2-8.5,57.8
	c-10.6,21.4-23.4,42.7-48.5,50.9c-13.9,4.5-27.9,9.2-42.2,11.8c-34.8,6.5-64.3-7.3-92-26.5c-4.2-2.9-7.9-6.8-12.1-9.7
	c-36.2-25.2-45.9-60.7-40-102.3c1.7-11.9,3.9-23.9,6.7-35.6c7.8-32.9,29.7-53.9,59.6-66.9c6.8-3,15.1-2.1,22.7-3.3
	c34.4-5.4,66.5,1.4,97.6,16.7c35.3,17.4,52.3,46,56.4,83.7C884.9,612.6,884.1,620.5,884.1,628.3z M839,619.6
	c0.3-26.7-15.8-51.4-47.4-67.5c-13.1-6.7-26.5-6.6-40.1-8.1c-20.4-2.2-34.6,7.1-45.9,23c-19.2,27-24.7,56.8-17.6,88.6
	c5.2,23.4,20.7,40.7,42.4,48.8c20,7.4,41.7,9.7,63.5,3.1c10.6-3.2,18.8-8.1,25.4-16.4C834,672.7,839.3,651.4,839,619.6z"/>
<path fill-rule="evenodd" clip-rule="evenodd" fill="#FFFFFF" d="M458,124.6c23.1-3.4,47.2-2.9,71.1,1.5c23.8,4.5,34,16.9,33.3,41.5
	c-1,30.7-12.8,55.3-41.3,69.5c-27.8,13.8-53.8,9.2-76-12.5c-23.3-22.8-23.1-57.2,0-83.6c4.8-5.5,14.1-7.7,13.9-17.3
	C458.8,123.7,458,124.6,458,124.6z"/>
<path fill-rule="evenodd" clip-rule="evenodd" fill="#FFFFFF" d="M810.9,358.3c-39,2.2-73.4,0.9-107.5-5.6c-3.4-0.6-6.6-1.9-9.9-3.1
	c-8.8-3.2-18.8-4.6-22.7-15.2c-4.5-12.4-8-24.5-1.7-37.6c7.1-14.8,12.5-30.4,20.2-44.8c10.1-18.9,23.4-21.6,39.9-7.9
	c17.3,14.3,34.9,28.3,48.2,46.9C791.6,310.8,799.5,333.4,810.9,358.3z"/>
<path fill-rule="evenodd" clip-rule="evenodd" fill="#FFFFFF" d="M550.2,237c8-17.8,16.4-33.7,22.4-50.5c6.3-17.7,2.2-35.6-5.9-52.3
	c12.7-13.3,26.5-14.4,41.2-9.1c17.3,6.1,30.6,17.1,33,36.2c3.6,27.6-2.3,53.2-21.9,74.2c-10.8,11.5-25,14.5-40,15.2
	C566.9,251.1,558.2,244.8,550.2,237z"/>
<path fill-rule="evenodd" clip-rule="evenodd" fill="#FFFFFF" d="M976.6,449.4c1.5,3.9,3.4,7,3.8,10.3c2.1,18.8,3.9,37.6,5.9,57.6
	c-5.7,3.9-10.8,8.7-16.9,11.2c-10,4-20.3,3.8-29.3-3.4c-4.7-3.8-10-7.2-13.7-11.8c-3.6-4.5-7.6-10.2-8-15.6
	c-1.1-18.7,3.1-36,18.2-49c8.5-7.3,17.8-10.4,28.5-4.7C969,446.1,972.9,447.7,976.6,449.4z"/>
<path fill-rule="evenodd" clip-rule="evenodd" fill="#FFFFFF" d="M46,638.4c0.8-14.6,2.9-25.9,1.5-36.6C46,591.1,40.9,581,37,569.3
	c14.2-4.6,27.9-4.4,41.1-3.4c13.4,1,23.9,16.2,22.8,29.8c-1,13-5.7,22.7-19.3,27.2C70.2,626.6,59.6,632.3,46,638.4z M82.5,592.3
	c-0.4-6.4-9.5-6.8-6.5-13.6c-5.9-3.3-11.1-1.5-16.8,3.2c3,4.6,6.1,9.1,9.6,14.4C73.7,594.8,78.2,593.5,82.5,592.3z"/>
<path fill-rule="evenodd" clip-rule="evenodd" fill="#FFFFFF" d="M937,428.4c1.2,6.9-2.6,11.3-7.6,15.2
	c-14.6,11.5-19.8,27.5-22.3,45.1c-2,13.9,2.1,25.8,11.8,35.3c6.1,6,13,11.5,20.5,15.5c4.9,2.6,11.5,2.8,17.4,2.9
	c6.8,0,13.7-1.3,20.5-2l-0.5-0.6c-0.3,7.6-5.8,10.2-12,10.7c-17.5,1.4-33.6-4.7-49.6-10.5c-3.6-1.3-6.9-5.2-9.1-8.7
	c-10.2-16.7-14.6-34.3-8-53.9C905.3,456.3,918.3,440.2,937,428.4L937,428.4z"/>
<path fill-rule="evenodd" clip-rule="evenodd" fill="#FFFFFF" d="M937.1,428.5c8-0.7,15.9-1.5,27-2.5
	C953.2,433.7,945.1,430.5,937.1,428.5C937,428.4,937.1,428.5,937.1,428.5z"/>
<path fill-rule="evenodd" clip-rule="evenodd" fill="#FFFFFF" d="M977.4,540.4c1-1.1,2.1-2.2,3.1-3.3c0.4,1,0.8,2,1.2,3
	c-1.6-0.1-3.1-0.1-4.7-0.2C976.9,539.9,977.4,540.4,977.4,540.4z"/>
<path fill-rule="evenodd" clip-rule="evenodd" d="M116.8,376.7c30.8-7.5,60.9-7.3,90.8-5.2c19.1,1.4,37.7-0.4,56.5-1.5
	c16.4-0.9,25.9,2.5,23.6,8.1c-4.5,10.6-14.8,6.7-22.7,6.8c-24.9,0.5-49.9-1.2-74.6,0.4c-18.7,1.3-37.2,6-55.6,10.1
	C118.7,399,117.1,398,116.8,376.7z"/>
<path fill-rule="evenodd" clip-rule="evenodd" d="M138.5,406.8c34.2-2,68.7-11.3,103.8-5.2c0.6,6.9-3.1,9.3-7.5,9.9
	c-9.4,1.3-18.9,2.4-28.4,3c-19.2,1.2-37.6,6-55.2,13.4c-5.6,2.4-10.9,6.4-16.2,0.3c-5.6-6.5-3.3-12.8,1.3-18.8
	C136.8,408.7,137.4,408.1,138.5,406.8z"/>
<path fill-rule="evenodd" clip-rule="evenodd" d="M262.3,629.8c0.9-11,4.8-23.6,15.6-33.8c15.6-14.7,34-23.7,54.6-27.8
	c27.8-5.6,66.4,15,77.5,40.5c2.4,5.4,4.5,11.9,3.9,17.5c-2.8,24.1-7.3,48-24.9,66.3c-5.1,5.3-12.6,9.3-19.8,11.4
	c-22.3,6.6-45.4,5.3-65.9-4.3C276,687.1,262.9,663.3,262.3,629.8z M341.2,577.8c-28.4,4-49.9,13.3-61.8,47.2
	c-4.8,13.7-2.2,25.3,6,36.3c2.5,3.4,6,6.2,8.7,9.6c14.7,18.9,36.5,18.2,56.7,18.6c15.6,0.3,26.3-12.1,35-24
	c6-8.2,10.2-17.9,13.9-27.5c4-10.1,2-19.9-2.9-29.8C385.2,584.7,363.7,580.2,341.2,577.8z"/>
<path fill-rule="evenodd" clip-rule="evenodd" d="M290.1,549.9c-0.3-2.5-0.6-5.1-1.1-9.2c7.9-3.6,16.2-7.6,24.7-11.3
	c0.7-0.3,3.1,1.4,3.5,2.6c0.4,1.3-0.1,4.1-1,4.5c-3.7,1.8-7.7,3.1-11.7,4.2C298.8,542.5,292.6,543.2,290.1,549.9L290.1,549.9z"/>
<path fill-rule="evenodd" clip-rule="evenodd" d="M412,706.2c2.6-10.7,4.7-19.3,7-29.2C426,688.3,425.3,691,412,706.2z"/>
<path fill-rule="evenodd" clip-rule="evenodd" d="M271.2,555.4c-3.5,10.2-5.9,16.6-11.8,26.8C256.8,568.2,260.4,562.3,271.2,555.4z"
	/>
<path fill-rule="evenodd" clip-rule="evenodd" d="M315.1,555.2c-6.8,3.4-13.5,6.7-20.7,10.3C297,554.3,299.2,552.9,315.1,555.2z"/>
<path fill-rule="evenodd" clip-rule="evenodd" d="M290.1,549.8c-2.3-0.1-4.6,0-6.8-0.4c-0.7-0.1-1.1-1.7-1.7-2.6
	c0.8-0.1,1.7-0.6,2.3-0.3C286.1,547.5,288.1,548.8,290.1,549.8C290.1,549.9,290.1,549.8,290.1,549.8z"/>
<path fill-rule="evenodd" clip-rule="evenodd" d="M394.6,718.4c1.3,0.6,2.5,1.1,3.8,1.7c-0.6,0.5-1.3,1.4-1.8,1.3
	c-1.3-0.3-2.6-1-3.8-1.6C393.4,719.4,394,718.9,394.6,718.4z"/>
<path fill-rule="evenodd" clip-rule="evenodd" d="M839,619.6c0.4,31.8-5,53.1-19.7,71.5c-6.7,8.3-14.9,13.2-25.4,16.4
	c-21.8,6.5-43.5,4.3-63.5-3.1c-21.8-8.1-37.2-25.4-42.4-48.8c-7.1-31.8-1.6-61.6,17.6-88.6c11.3-15.9,25.5-25.2,45.9-23
	c13.6,1.5,27,1.4,40.1,8.1C823.1,568.2,839.3,592.9,839,619.6z M766.9,698.3c33.7-1.7,52.9-17.7,59.2-50.6c0.6-3.4,0.6-6.9,1.3-10.3
	c8-42.3-21.8-80.9-73.5-82.2c-5-0.1-11.3,0-15,2.7c-12.3,9.2-25.3,17.7-33,32.2c-8.9,16.8-10.7,34.4-8.8,52.7
	c2.6,24.3,18.2,42.8,42.2,49.6C748.4,695,757.7,696.4,766.9,698.3z"/>
<path fill-rule="evenodd" clip-rule="evenodd" d="M838.1,710.3c5.1-9.8,9.8-17.5,13.2-25.8c3-7.4,0.9-16.6,9.5-26.3
	C862.4,681.7,859,698.7,838.1,710.3z"/>
<path fill-rule="evenodd" clip-rule="evenodd" d="M696.5,531.2c-9.4,10.5-17.9,20.1-28,31.5C672.7,544.8,676.1,541.1,696.5,531.2z"
	/>
<path fill-rule="evenodd" clip-rule="evenodd" d="M697.8,552.8c-6.2,8.1-7.7,20.1-21.4,27.3C680.4,565.2,684.9,555.8,697.8,552.8z"
	/>
<path fill-rule="evenodd" clip-rule="evenodd" d="M498,179.2c8.4,0,14.6,11.1,10.1,18.7c-1.1,1.8-3.8,3.3-6,3.8
	c-2.3,0.6-5,0.2-7.5-0.3c-8-1.6-11.9-5.6-11.4-11.1C483.8,184.6,490.9,179.2,498,179.2z"/>
<path fill-rule="evenodd" clip-rule="evenodd" d="M709.8,278.5c11.4,6,18.1,14.2,21.9,25.2c-5.4,4.2-7-1.1-9.5-3.6
	c-3-3-5.8-6.2-8.7-9.2C710.7,288,706.3,286,709.8,278.5z"/>
<path fill-rule="evenodd" clip-rule="evenodd" d="M723,265.4c10.3,4.1,10.3,4.1,21.4,17c-11-5.8-18.7-8-21.1-17.3L723,265.4z"/>
<path fill-rule="evenodd" clip-rule="evenodd" d="M723.2,265.1c-6.5,1.9-10.3-0.7-13.7-7.8c7.2,0.4,12.2,1,13.5,8.1
	C723,265.4,723.2,265.1,723.2,265.1z"/>
<path fill-rule="evenodd" clip-rule="evenodd" d="M753.3,291.9c-0.5,0.5-0.9,1.1-1.4,1.6c-0.7-1.5-1.3-3.1-1.9-4.6
	c0-0.1,1-0.6,1.6-0.9C752.2,289.3,752.8,290.6,753.3,291.9z"/>
<path fill-rule="evenodd" clip-rule="evenodd" d="M597.5,183.2c5.6-0.3,10.6,4.8,11.2,11.5c0.6,6.8-3.4,12.4-9.2,13
	c-6.8,0.8-13.5-4.4-14.6-11.4C583.9,190.3,590.4,183.6,597.5,183.2z"/>
<path fill-rule="evenodd" clip-rule="evenodd" d="M944.4,504.9c2.9,2.1,5.9,4.1,9.2,6.4C947.5,515.4,945.9,509.6,944.4,504.9z"/>
<path fill-rule="evenodd" clip-rule="evenodd" d="M932.2,496.7c-0.5-2.3-1.3-4.7-1.2-7c0-1,1.8-2,2.8-3c0.5,0.7,1.5,1.3,1.5,2
	c-0.1,2.7-0.5,5.4-0.8,8.1C933.8,496.7,933,496.7,932.2,496.7z"/>
<path fill-rule="evenodd" clip-rule="evenodd" fill="#FFFFFF" d="M341.2,577.8c22.5,2.4,43.9,6.8,55.5,30.5
	c4.8,9.9,6.9,19.7,2.9,29.8c-3.8,9.5-7.9,19.3-13.9,27.5c-8.7,11.8-19.4,24.3-35,24c-20.2-0.4-42,0.3-56.7-18.6
	c-2.6-3.4-6.1-6.1-8.7-9.6c-8.2-11-10.8-22.6-6-36.3C291.3,591.2,312.9,581.9,341.2,577.8z M322.5,630.9
	c-0.8,12.3,7.2,20.9,20.3,21.8c10.6,0.8,21-8.1,20.5-18.7c-0.6-15-5.5-23.3-17.4-25C333.3,607.4,323.5,616.8,322.5,630.9z"/>
<path fill-rule="evenodd" clip-rule="evenodd" fill="#FFFFFF" d="M766.9,698.3c-9.2-1.9-18.5-3.3-27.5-5.9
	c-24-6.8-39.6-25.3-42.2-49.6c-2-18.3-0.1-35.9,8.8-52.7c7.7-14.5,20.7-22.9,33-32.2c3.6-2.7,9.9-2.8,15-2.7
	c51.7,1.4,81.5,39.9,73.5,82.2c-0.6,3.4-0.6,6.9-1.3,10.3C819.8,680.6,800.6,696.6,766.9,698.3z M743,625.5
	c-0.5,11.2,7.4,20.4,18.5,21c4.3,0.2,8.6-0.5,12.8-1.2c14.5-2.6,21.8-12.6,18.8-25.5c-3.4-14.2-15.5-20.3-30.2-15.1
	c-3.2,1.1-6.3,2.8-9.5,4.2C746.2,612,743.7,618.2,743,625.5z"/>
<path fill-rule="evenodd" clip-rule="evenodd" d="M322.5,630.9c0.9-14.1,10.8-23.6,23.4-21.8c11.9,1.7,16.8,9.9,17.4,25
	c0.4,10.6-9.9,19.4-20.5,18.7C329.7,651.8,321.7,643.2,322.5,630.9z"/>
<path fill-rule="evenodd" clip-rule="evenodd" d="M743,625.5c0.7-7.3,3.2-13.4,10.4-16.6c3.2-1.4,6.2-3.1,9.5-4.2
	c14.8-5.2,26.8,0.9,30.2,15.1c3,12.8-4.3,22.9-18.8,25.5c-4.2,0.8-8.6,1.5-12.8,1.2C750.4,645.8,742.5,636.6,743,625.5z"/>
</svg>
