<?xml version="1.0" encoding="utf-8"?>
<!DOCTYPE svg PUBLIC "-//W3C//DTD SVG 1.1//EN" "http://www.w3.org/Graphics/SVG/1.1/DTD/svg11.dtd">
<svg artist="zl2017" version="1.1" id="zlIcon-car-sheep-left" xmlns="http://www.w3.org/2000/svg" xmlns:xlink="http://www.w3.org/1999/xlink" x="0px" y="0px"
	 width="1000px" height="832px" viewBox="0 0 1000 832" enable-background="new 0 0 1000 832" xml:space="preserve">
<path fill-rule="evenodd" clip-rule="evenodd" d="M129.9,685.1c-14.5-4.1-29.5-8.5-44.6-12.7c-2.5-0.7-5.2-1-7.8-1.5
	C21.7,660.7,3.8,625.1,0.7,570.8c-0.7-12.2,0.7-24.6,0.2-36.9c-1.7-37.5,13.5-68.3,38-94.9c17-18.4,39.3-29.1,62.6-37.1
	c23.2-7.9,45.7-17.3,68.2-26.9c16.6-7.1,30.1-18,42.6-30.3c12.8-12.6,21.5-27.7,21.6-46.5c0.1-14,0-28,0.5-42
	c0.4-10.9,6-16.1,16.8-15.6c7.8,0.4,15.5,1.7,24.3,2.8c10.3,36.2,22.3,70.9,56.3,93c8.6-6.2,7-17.1,11.6-25.4
	c-19.3-26.5-37.9-52.9-57.4-78.6c-11.3-14.8-16.7-31.7-15.1-49.3c3-32,12.6-61.9,38.6-83.7c5.3-4.4,10.6-8.7,17.6-14.4
	c-5.4-4.9-9.3-9.4-14-12.7c-15.2-10.7-23.7-9.7-36.5,4.3c-4.7,5.1-8.1,11.4-12.4,16.9c-10.2,13.1-23.1,14.3-36.5,3.7
	c-17.8-14.1-27.2-46.2-18.6-66.9c1.7-4.2,6.9-8.9,11.2-9.7c27.6-5.1,55.4-9.2,83.1-13.5c3.4-0.5,7.1-0.3,10.4,0.6
	c6.3,1.5,11.2,5.1,11.9,12.3c0.8,8.7,1.6,17.5,2.3,26.2c1.1,14.7,1.1,14.7,10,32c1.6,0.6,3.3,1.9,4.8,1.7c5.1-0.6,10.2-1.6,14.6-2.4
	c11.2-16.5,14.3-37.1,31.1-48.4c6.4,2.1,5.9,6.7,4.6,10.9c-1.8,5.8-5.2,11.2-6.3,17.1c-1,4.9-1.6,11.7,1,15c3.1,4,9.8,5.3,16.1,8.3
	c10.6-20,20-39.1,44.3-45.5c0,4.8,1.1,9.2-0.3,12.5c-2,4.7-6.9,8.3-8.7,13c-2,5.5-2.8,11.7-2.6,17.6c0.1,2.5,3.7,6.4,6.3,7
	c2.7,0.6,6.2-1.8,9.3-3.1c0.6-0.3,1-1.4,1.4-2.2c24.7-51.5,70.9-70,122.8-78.9c18.6-3.2,36.7,1.3,53.9,8.8
	c12.1,5.3,24.2,10.5,35.7,16.8c11.5,6.3,22.2,13.9,35.1,22.1c3.4-1,8.3-2.3,13.2-3.7c37.3-10.8,70.9-0.4,103.3,17.8
	c26.6,14.9,47.1,36.4,65.1,60.3c15.3,20.3,18.5,45,21.3,69.4c0.8,6.9,0.1,14,0.1,21.2c3.7,6.6,9.9,9.6,16.9,10.9
	c9.2,1.8,15.3,7.5,21.4,14.2c19.4,21.5,29.8,47.7,37,74.8c5.1,19.3,9.8,39.1,7.9,59.7c-0.4,5,0,10.9,2.3,15.1
	c10.5,18.6,10,38.9,9.6,58.9c-0.4,17.4-3.8,34.8-5.8,52.2c-1.8,15.6-4,31.3-5,47c-1.3,19.5-10.9,34.9-22.5,49.4
	c-2.7,3.4-5.6,6.9-9,9.6c-17.9,13.7-28.4,30.6-24.7,54c-7.7,41.9-29,75.2-65.6,97c-33.3,19.8-70.3,26.6-108.8,23.1
	c-14.9-1.4-29-6.8-41.8-14.8c-14.8-9.3-29.3-19-44.8-29.1c-29.4,2.4-59.9,5-90.5,7.5c-4.4,0.4-8.7,0.8-13.1,1.2
	c-22.7,1.7-45.5,1.4-68.2,4.2c-16.2,2-33.2-0.9-49.6-2.8c-12.7-1.5-21.4,1.6-28.7,12.9c-11.1,17.2-26.4,30.3-45.2,39.2
	c-7.1,3.3-13.9,7.5-20.5,11.8c-29.2,19.1-60.6,26-95.2,20.3c-12.9-2.2-25.8-2.8-38.6-7.1c-34.2-11.6-56.5-37.7-79.4-63
	c-5.4-6-8-15.7-9.1-24C130.9,719.4,130.9,702.7,129.9,685.1z M921.9,602.4c14.1-6.8,24.8-15.8,35-25.3c8.5-7.9,12.6-18.2,15.5-29.7
	c8.4-32.5,10.2-65.9,14.3-98.9c1.1-8.7,1.2-17.6-4.9-25.4c-2.3-0.7-4.8-1.9-7.3-2c-27.1-0.6-54.2-1.2-81.3-1.5
	c-15.8-0.1-31.8-1.1-47.3,1.1c-15,2.2-29.7,1.9-44.5,0.7c-36.7-2.7-73.5-4.7-110-8.6c-23.4-2.5-43.2,3.4-60.9,18.1
	c-2,1.7-4.1,3.3-6.2,4.9c-18.5,13.3-37,26.6-55.7,39.6c-4.1,2.8-9.1,6.5-14.1,1.3c-3.7-3.8-1.9-8.2-0.1-12.2c1.8-4,3.6-8,5.6-11.9
	c6.4-12.4,12.8-24.7,19.6-37.9c-12.1-5.5-24.1-5.3-36.2-5.4c-33.3-0.4-66.7,0-98.9-11.4c-14-5-28.9-7.2-43.3-11.2
	c-62-17-108.3-52.2-131.3-114c-0.9-2.5-1.5-5.2-2.8-7.4c-1.6-2.5-3.8-4.6-6.6-8c-8.5,11.9-6.1,23.7-5.8,34.7
	c0.5,16.5-3.3,31.8-13.2,44.5c-8.5,10.9-18.4,21.4-29.6,29.4c-31.5,22.7-67.4,37.3-103.7,50.5c-18.3,6.6-35.9,14-51.5,25.9
	c-7.5,5.7-14.6,11.9-15.9,22.4c3.5,1.4,5.8,2.8,8.3,3.3c9.5,1.6,19,3.2,28.6,4.4c29.8,3.7,57.5,34.1,39.1,72.6
	c-15.2,31.5-51.7,45.7-84.5,32.3c-4.5-1.8-9-3.8-14.2-6.1c-1,4.1-2.5,6.8-2,9.1c5.9,29.7,17.9,54.4,50,64.5
	c22.9,7.2,46.1,8.4,69.4,9.8c6.9-9.2,13.3-17.5,19.4-26.1c18.2-25.8,36.3-51.5,59.4-73.5c11.3-10.7,23-19.2,37.8-22.2
	c24.7-5,49.8-11.4,74.6,0.2c1.5,0.7,3.5,0.4,5.2,0.9c33.6,10,61.9,28.4,85.8,53.8c14.4,15.4,21.5,34.6,24.2,54.4
	c2.9,20.7,1.3,41.9,1.8,62.9c0.1,3.3,0.8,6.5,1.2,9.1c47.5,16.5,171.9,3.4,212.9-14.4c-3.8-41.1-4-41.2,5.1-69.6
	c17.3-54.2,52.5-90.2,108-105c20.5-5.5,41.7-7.9,62.2-0.6c32.3,11.5,59.3,30.1,76.3,61C912.7,591.3,917.4,596.4,921.9,602.4z
	 M606.2,165.9c7.5-2,14.7-2.8,20.7-5.9c12.4-6.4,24.1-14.1,36.1-21.3c15.7-9.4,29.9-8.1,39,6.9c11.3,18.7,19.9,39,29.5,58.6
	c2.6,5.3,1,10.4-2.3,14.8c-5.3,7.2-11.9,12.8-20.7,15.5c-17.4,5.3-34,1.8-51-2.8c0-13.6,0.4-25.8-0.3-38c-0.2-3.9-2.6-8.7-5.6-11.1
	c-11.1-8.6-27.9-2.9-31.9,10.5c-1.5,5-1.8,10.4-2.8,15.5c-4.2,21.6-10.5,42.5-20.2,62.4c-5.9,12.1-14.1,22.3-25.2,29.8
	c-36.1,24.6-75.7,40.2-119,46.1c-15.8,2.1-31.4,2.7-46.7-3c-13.8-5.2-27.5-10.3-41-15.4c-8.4,10.8-8.4,10.8-10.4,24.5
	c17,9.8,35.4,17.8,55,21.7c29.2,5.9,58.5,11.5,88,15.1c30.4,3.6,60.8,8.7,93.1,6c12-13,20.8-29,29.3-45.4c3.6-7,7.3-14.1,12.1-20.1
	c3.9-4.9,9.9-7.4,16.6-5.1c24.9,8.6,44.1,23.9,57.1,48c-3.8,4.8-6.9,8.9-10.3,12.7c-3.7,4.2-10.9,6-9.8,15.1
	c18.7,0.8,37,0.9,55.1,2.6c41,4,81.9,7.3,123.2,4c28.1-2.2,55.8-5.4,83.3-11.4c9.2-2,14.1-7.3,16.5-14.9c5.3-16.8,8.3-33.8,5.4-51.8
	c-4.4-27.6-17.2-51.3-32.1-74.3c-5-7.7-11.2-13.1-21.4-12.9c-10.6,0.2-21.2-0.9-28.1,9.9c-2,3.1-4.2,7.7-11.4,4.4
	c2.4-9,4.9-18.1,7.2-27.2c1.7-6.8,4.4-13.6,4.6-20.4c1.4-57.7-23.4-101.3-72.7-130.7c-12-7.2-25.1-12.6-37.6-18.9
	c-9.7-4.9-20.1-6.6-30.7-5.6c-14,1.2-23.1,13.9-20.7,27.9c0.9,5.4,5.5,10.7,0.9,16.8c-13.6-13.4-26.4-26.5-39.7-38.9
	c-16.9-15.8-37.4-26.3-57.9-35.9c-21.6-10.1-45.5-13.8-69.3-8.2c-34.4,8.1-63.1,25.8-83.5,55.5c-3.3,4.8-5.4,10.6-8.5,16.9
	c18.6,6.6,35.6,13,53,18.6c3.6,1.2,8.9,0,12.4-1.9c6.2-3.2,11.4-8.3,17.4-11.8c7.3-4.3,13.6-11.2,25.2-11
	c-0.3,4.5,0.8,10.2-1.2,11.7c-10.3,7.7-14.7,18.7-22,31.3c23.2,2.4,38.3-15.6,57.1-15.1c4.7,5.9,2,9.5-1.9,11.8
	c-9.8,5.9-20,11.2-20.6,24.9C593.3,152.3,598.7,158,606.2,165.9z M150.7,701.7c0.6,7.9,0.6,15.9,2,23.6
	c5.6,30.1,19.8,53.8,49.4,66.7c18.7,8.1,37.9,13.9,57.7,17.6c23.8,4.4,47.6,0.6,70-6.4c27.1-8.4,50.1-25.4,69.9-45.8
	c12.5-12.9,20-29,23.2-46.5c5.3-29.7,4.2-59-5.8-88.1c-7.3-21.3-20.8-37.9-39.1-47.7c-26.9-14.4-55.4-26.5-86.7-29.3
	c-13.7-1.2-25.8,0.9-38,7.2c-34.3,17.9-60.8,43.5-81.7,76.2C157.1,651.9,153.5,676.4,150.7,701.7z M914.5,655.1
	c0.4-24.3-8-45.6-18-66.1c-8.6-17.7-21.6-33-42.3-36.6c-26.7-4.6-53.6-8-80.6-10.6c-7.3-0.7-15.9,2-22.6,5.7
	c-44.3,24.3-73.5,59.3-76,111.9c-1.1,22.2,1.1,44.7,16.8,61.8c19.9,21.7,43.7,36.9,74.3,41.2c18.1,2.5,35,0.1,52.1-3.2
	c27.2-5.2,52.6-14.3,68.1-40c3.6-5.9,8.7-11,13.3-16.3C911.6,688.9,917.6,673,914.5,655.1z M500.5,127.5c0,0,0,0.1,0,0.1
	c-7,0-14.1-0.7-21,0.1c-25.9,3.1-50,10.4-66.3,32.8c-17.4,23.9-24.8,50.8-17.9,79.5c7.1,29.9,25.8,51.6,55.5,61.7
	c25.3,8.5,51.7,9.2,78.1,5.8c4.2-0.5,8.8-1.7,12.4-3.9c30.8-19,52.2-43.9,50.7-82.8c-0.2-5.3,0.7-10.6-0.2-15.7
	c-1.5-8.5-2.5-17.6-6.2-25.2c-16.7-33.8-40.6-57.4-82.3-52.3C502.2,127.6,501.3,127.5,500.5,127.5z M459.9,116.4
	c0.4-10.1-4.8-15.1-11.6-17.4c-30.6-10.7-61.3-19.2-94.4-9.6c-20.3,5.9-36.2,16.4-48.7,33.2c-10.3,13.8-14.2,29.9-17.9,46
	c-7.4,32.6,8.5,66.2,38.4,81.5c14.2,7.3,29.4,11.3,45.1,13.2c4.4,0.5,9.2-1.9,13.8-3C374.1,205.7,378.9,146.8,459.9,116.4z
	 M63,484.9c-4.4,0.4-8.7,0.7-13.1,1.2c-17.5,1.9-26.4,10.1-31.2,26.6c-3.9,13.4,2.1,23.3,8.4,34.1c8.5,14.6,20.9,20.5,36.9,20.1
	c27.4-0.7,49.3-29.5,43.2-56.9c-1.1-4.7-4.3-9.7-7.9-12.9C89,488.1,76.9,483.4,63,484.9z"/>
<path fill-rule="evenodd" clip-rule="evenodd" fill="#FFFFFF" d="M921.9,602.4c-4.4-6-9.2-11.1-12.4-17c-17-31-44.1-49.5-76.3-61
	c-20.5-7.3-41.7-4.9-62.2,0.6c-55.5,14.8-90.7,50.8-108,105c-9.1,28.4-8.9,28.5-5.1,69.6c-41,17.9-165.4,30.9-212.9,14.4
	c-0.4-2.6-1.1-5.8-1.2-9.1c-0.5-21,1-42.3-1.8-62.9c-2.7-19.8-9.8-39-24.2-54.4c-23.9-25.5-52.2-43.8-85.8-53.8
	c-1.7-0.5-3.6-0.2-5.2-0.9c-24.8-11.6-49.8-5.2-74.6-0.2c-14.8,3-26.6,11.5-37.8,22.2c-23.1,22-41.2,47.7-59.4,73.5
	c-6,8.6-12.5,16.9-19.4,26.1c-23.3-1.4-46.6-2.5-69.4-9.8c-32.1-10.2-44.1-34.8-50-64.5c-0.5-2.3,1-4.9,2-9.1
	c5.2,2.2,9.7,4.2,14.2,6.1c32.8,13.4,69.3-0.8,84.5-32.3c18.5-38.4-9.3-68.8-39.1-72.6c-9.6-1.2-19.1-2.7-28.6-4.4
	c-2.5-0.4-4.8-1.9-8.3-3.3c1.3-10.5,8.3-16.7,15.9-22.4c15.5-11.8,33.2-19.2,51.5-25.9c36.3-13.1,72.2-27.7,103.7-50.5
	c11.2-8,21.1-18.5,29.6-29.4c9.9-12.7,13.7-28,13.2-44.5c-0.4-11-2.8-22.8,5.8-34.7c2.8,3.3,5.1,5.4,6.6,8c1.3,2.2,1.9,4.9,2.8,7.4
	c23,61.9,69.4,97,131.3,114c14.4,3.9,29.3,6.2,43.3,11.2c32.2,11.4,65.6,11,98.9,11.4c12.1,0.2,24.1-0.1,36.2,5.4
	c-6.8,13.1-13.3,25.5-19.6,37.9c-2,3.9-3.9,7.9-5.6,11.9c-1.8,4.1-3.6,8.4,0.1,12.2c5,5.2,10,1.6,14.1-1.3
	c18.7-13,37.2-26.4,55.7-39.6c2.1-1.5,4.2-3.2,6.2-4.9c17.7-14.7,37.5-20.6,60.9-18.1c36.6,3.9,73.3,5.8,110,8.6
	c14.9,1.1,29.5,1.4,44.5-0.7c15.5-2.3,31.5-1.3,47.3-1.1c27.1,0.2,54.2,0.9,81.3,1.5c2.5,0.1,5,1.3,7.3,2c6,7.9,5.9,16.8,4.9,25.4
	c-4.1,33-5.9,66.4-14.3,98.9c-3,11.5-7,21.8-15.5,29.7C946.7,586.5,935.9,595.6,921.9,602.4z M833.1,458.8
	c-3.4-1.2-6.8-2.4-10.2-3.7c-0.2,0.8-0.4,1.6-0.7,2.4C825.8,457.9,829.5,458.4,833.1,458.8c2.2-1.2,4.4-3.4,6.6-3.4
	c34,0.4,68.5-3.9,101.3,9.5c1.5,0.6,4,0.9,5.1,0.1c2.5-1.9,6.1-4.5,6.1-6.8c0.1-2.5-3.2-5.4-5.5-7.6c-1-0.9-3.4-0.2-5.1-0.2
	c-24.5-0.5-49-1-73.5-1.4c-7.9-0.1-15.7,0.5-23.6,0.4C837.8,449.3,836.8,455.6,833.1,458.8z M947.2,492.4c1.1-1.5,2.2-3,3.3-4.6
	c-3.1-3.5-5.6-8.8-9.5-10.2c-7.2-2.6-15.3-3.6-23-4.3c-22.5-2.1-45.1-4-67.6-5.5c-1.9-0.1-4,2.4-6,3.7c1.5,1.8,3.1,5.2,4.4,5
	c29.3-3.5,57.1,1.1,83.7,14.1C936.7,492.8,942.2,491.9,947.2,492.4z"/>
<path fill-rule="evenodd" clip-rule="evenodd" fill="#FFFFFF" d="M606.2,165.9c-7.5-8-12.9-13.7-18.6-19.6
	c0.6-13.7,10.8-19,20.6-24.9c3.9-2.3,6.5-5.9,1.9-11.8c-18.8-0.5-33.9,17.5-57.1,15.1c7.4-12.7,11.7-23.7,22-31.3
	c2-1.5,0.8-7.2,1.2-11.7c-11.6-0.3-17.9,6.7-25.2,11c-6,3.6-11.2,8.6-17.4,11.8c-3.6,1.9-8.8,3-12.4,1.9
	c-17.3-5.5-34.4-11.9-53-18.6c3.1-6.3,5.2-12,8.5-16.9c20.4-29.6,49.1-47.4,83.5-55.5c23.8-5.6,47.7-1.9,69.3,8.2
	c20.5,9.6,41.1,20.1,57.9,35.9c13.3,12.5,26.1,25.5,39.7,38.9c4.6-6.1,0-11.4-0.9-16.8c-2.3-14,6.7-26.6,20.7-27.9
	c10.6-0.9,21,0.8,30.7,5.6c12.5,6.3,25.6,11.7,37.6,18.9c49.3,29.5,74.1,73,72.7,130.7c-0.2,6.8-2.9,13.6-4.6,20.4
	c-2.3,9.2-4.8,18.3-7.2,27.2c7.2,3.3,9.4-1.2,11.4-4.4c6.9-10.9,17.5-9.7,28.1-9.9c10.1-0.2,16.4,5.2,21.4,12.9
	c14.8,22.9,27.6,46.7,32.1,74.3c2.9,17.9-0.1,35-5.4,51.8c-2.4,7.6-7.3,12.9-16.5,14.9c-27.5,6-55.2,9.2-83.3,11.4
	c-41.3,3.3-82.2,0.1-123.2-4c-18.1-1.8-36.4-1.8-55.1-2.6c-1-9.1,6.2-10.9,9.8-15.1c3.4-3.9,6.4-8,10.3-12.7
	c-12.9-24.1-32.1-39.4-57.1-48c-6.7-2.3-12.7,0.3-16.6,5.1c-4.8,6.1-8.5,13.2-12.1,20.1c-8.4,16.4-17.3,32.4-29.3,45.4
	c-32.3,2.7-62.7-2.4-93.1-6c-29.5-3.5-58.9-9.2-88-15.1c-19.6-4-38-11.9-55-21.7c2-13.7,2-13.7,10.4-24.5
	c13.5,5.1,27.3,10.2,41,15.4c15.3,5.7,30.9,5.1,46.7,3c43.3-5.9,82.9-21.5,119-46.1c11-7.5,19.3-17.7,25.2-29.8
	c9.7-19.9,15.9-40.8,20.2-62.4c1-5.2,1.3-10.5,2.8-15.5c4-13.4,20.8-19.1,31.9-10.5c3,2.3,5.4,7.2,5.6,11.1
	c0.7,12.2,0.3,24.4,0.3,38c17,4.6,33.6,8,51,2.8c8.8-2.7,15.4-8.3,20.7-15.5c3.3-4.4,4.9-9.6,2.3-14.8c-9.6-19.7-18.2-40-29.5-58.6
	c-9.1-15-23.3-16.3-39-6.9c-12,7.2-23.7,14.9-36.1,21.3C621,163.2,613.7,163.9,606.2,165.9z"/>
<path fill-rule="evenodd" clip-rule="evenodd" fill="#FFFFFF" d="M150.7,701.7c2.8-25.3,6.4-49.8,20.9-72.5
	c20.9-32.7,47.3-58.3,81.7-76.2c12.2-6.4,24.3-8.5,38-7.2c31.4,2.8,59.8,14.9,86.7,29.3c18.3,9.8,31.8,26.4,39.1,47.7
	c10,29.1,11.1,58.4,5.8,88.1c-3.1,17.5-10.6,33.6-23.2,46.5c-19.8,20.4-42.7,37.4-69.9,45.8c-22.4,7-46.1,10.8-70,6.4
	c-19.9-3.7-39.1-9.4-57.7-17.6c-29.6-12.9-43.8-36.5-49.4-66.7C151.3,717.6,151.3,709.6,150.7,701.7z M355.1,585.5
	c7.5,12.7,20.5,21.7,34.4,23.3c-10.9-9.8-19.6-21-34.8-22.6c-1.2-1.1-2.4-2.3-3.7-3.1c-0.5-0.3-1.6,0.3-2.4,0.5
	c0.6,1.2,1.2,3.3,1.9,3.4C352,587,353.6,586,355.1,585.5z M211.4,684.3c-2.7,26.4,16.8,53.9,43.7,61.1c18.5,4.9,35.9,4.7,54.3,0.9
	c28.1-5.9,54.9-44.3,51.4-74.2c-1.5-12.5-4.7-24.2-14.5-32.9c-10.5-9.3-20.8-18.8-32.2-27c-12.6-9.1-28.3-13.5-42.5-7.9
	C239.3,617,211.5,637.1,211.4,684.3z M172.6,714.8c-4.4,17.5,3,25.6,9,33.8c6.1,8.3,14.1,14.3,27.9,14.4c-8-7.5-15.1-12.6-20.3-19.3
	C183.6,736.3,179.9,727.7,172.6,714.8z M350.2,609c12.7,11.3,22.9,20.4,33,29.5C378.7,620.1,375.8,617.3,350.2,609z"/>
<path fill-rule="evenodd" clip-rule="evenodd" fill="#FFFFFF" d="M914.5,655.1c3.1,18-2.9,33.8-15,47.8c-4.6,5.3-9.7,10.4-13.3,16.3
	c-15.5,25.8-40.9,34.8-68.1,40c-17.1,3.3-34,5.7-52.1,3.2c-30.7-4.2-54.4-19.5-74.3-41.2c-15.7-17.1-17.8-39.6-16.8-61.8
	c2.5-52.6,31.8-87.6,76-111.9c6.7-3.6,15.3-6.4,22.6-5.7c27,2.6,53.9,6,80.6,10.6c20.8,3.6,33.7,18.9,42.3,36.6
	C906.5,609.4,915,630.8,914.5,655.1z M865.6,608c-11.6-17.7-15.6-19.7-29.4-14c5.2,2.5,9.6,4.7,14.1,6.8c5.3,2.4,8.6,9.4,15.9,6.7
	c0.5,1.9,1,3.8,1.5,5.7c0.7-0.4,1.4-0.9,2-1.3C868.4,610.6,867,609.3,865.6,608z M797.9,608.3c-38.6-3.6-74.7,33.3-54.3,80.3
	c3.8,8.6,9.7,14.3,17.9,18.2c30,14.5,67.3,3.9,85.6-24.3c10.8-16.7,9.9-43.6-4.4-55.9C830.3,616,816.1,606.4,797.9,608.3z
	 M886.4,598.6c-14.6-19.2-30-26.7-47-31.7c-2.3-0.7-5.2,0.7-11.3,1.7C848.4,579,865,587.6,886.4,598.6z M726.7,722.3
	c1.2-1,1.9-1.6,2.5-2.1c-9.9-11.4-19.8-22.8-31.8-36.8C698.9,705.8,713.8,713.2,726.7,722.3z"/>
<path fill-rule="evenodd" clip-rule="evenodd" fill="#FFFFFF" d="M500.5,127.5c0.9,0,1.8,0.1,2.6,0c41.7-5.1,65.6,18.5,82.3,52.3
	c3.8,7.6,4.8,16.7,6.2,25.2c0.9,5.1,0,10.5,0.2,15.7c1.5,38.9-20,63.8-50.7,82.8c-3.6,2.2-8.1,3.4-12.4,3.9
	c-26.4,3.4-52.7,2.8-78.1-5.8c-29.7-10-48.4-31.7-55.5-61.7c-6.8-28.8,0.5-55.7,17.9-79.5c16.3-22.4,40.4-29.6,66.3-32.8
	c6.9-0.8,14-0.1,21-0.1C500.5,127.6,500.5,127.6,500.5,127.5z"/>
<path fill-rule="evenodd" clip-rule="evenodd" fill="#FFFFFF" d="M459.9,116.4c-81,30.3-85.8,89.3-75.3,144c-4.5,1.1-9.3,3.5-13.8,3
	c-15.7-1.9-30.9-5.9-45.1-13.2c-29.9-15.4-45.9-49-38.4-81.5c3.7-16.2,7.6-32.2,17.9-46c12.5-16.8,28.5-27.3,48.7-33.2
	c33.1-9.6,63.8-1.1,94.4,9.6C455.1,101.4,460.3,106.3,459.9,116.4z"/>
<path fill-rule="evenodd" clip-rule="evenodd" fill="#FFFFFF" d="M63,484.9c13.9-1.4,26,3.2,36.2,12.2c3.7,3.2,6.9,8.2,7.9,12.9
	c6.2,27.4-15.8,56.2-43.2,56.9c-16,0.4-28.3-5.5-36.9-20.1c-6.3-10.9-12.4-20.7-8.4-34.1c4.8-16.4,13.8-24.6,31.2-26.6
	C54.3,485.6,58.6,485.3,63,484.9z M38.6,505.5c27.9,0,27.9,0,36.5-5.8C56.8,495.9,56.8,495.9,38.6,505.5z M70.6,552.9
	c0.2-0.9,0.4-1.8,0.6-2.7c-3-1.4-5.9-3.4-9-4c-3.8-0.8-7.8-0.5-15.2-0.8c5.1,3.7,6.9,6,9.2,6.4C60.9,552.7,65.8,552.6,70.6,552.9z"
	/>
<path fill-rule="evenodd" clip-rule="evenodd" d="M947.2,492.4c-4.9-0.5-10.5,0.3-14.7-1.7c-26.6-13.1-54.4-17.7-83.7-14.1
	c-1.2,0.1-2.9-3.3-4.4-5c2-1.3,4.1-3.9,6-3.7c22.6,1.6,45.1,3.4,67.6,5.5c7.8,0.7,15.8,1.6,23,4.3c3.9,1.4,6.4,6.7,9.5,10.2
	C949.4,489.4,948.3,490.9,947.2,492.4z"/>
<path fill-rule="evenodd" clip-rule="evenodd" d="M833.1,458.8c3.6-3.3,4.6-9.5,11.3-9.4c7.9,0.1,15.7-0.5,23.6-0.4
	c24.5,0.4,49,0.9,73.5,1.4c1.7,0,4.1-0.7,5.1,0.2c2.3,2.1,5.6,5,5.5,7.6c-0.1,2.4-3.6,5-6.1,6.8c-1.1,0.8-3.6,0.5-5.1-0.1
	c-32.8-13.4-67.3-9.1-101.3-9.5C837.5,455.3,835.3,457.6,833.1,458.8L833.1,458.8z"/>
<path fill-rule="evenodd" clip-rule="evenodd" d="M833.1,458.8c-3.6-0.4-7.2-0.8-10.9-1.3c0.2-0.8,0.4-1.6,0.7-2.4
	C826.3,456.3,829.7,457.5,833.1,458.8C833.1,458.8,833.1,458.8,833.1,458.8z"/>
<path fill-rule="evenodd" clip-rule="evenodd" d="M211.4,684.3c0.1-47.3,27.9-67.3,60.3-80c14.2-5.6,29.9-1.2,42.5,7.9
	c11.3,8.2,21.7,17.7,32.2,27c9.8,8.7,13,20.4,14.5,32.9c3.5,30-23.3,68.4-51.4,74.2c-18.4,3.9-35.8,4.1-54.3-0.9
	C228.2,738.2,208.7,710.7,211.4,684.3z M281.3,736.4c24.5-0.3,52.3-18.8,61.7-41.8c1.9-4.5,2.2-10.3,1.4-15.2
	c-4.5-27.5-20-45.4-47.1-53.2c-24.9-7.1-48.7-1.1-63,23.5c-3.1,5.3-6.2,10.6-8.3,16.3c-4.7,12.7-4.5,25.3,0.3,38.2
	C234.1,724.9,253.4,735.9,281.3,736.4z"/>
<path fill-rule="evenodd" clip-rule="evenodd" d="M172.6,714.8c7.2,12.8,11,21.5,16.6,28.8c5.1,6.7,12.2,11.8,20.3,19.3
	c-13.7-0.1-21.7-6.1-27.9-14.4C175.6,740.4,168.2,732.3,172.6,714.8z"/>
<path fill-rule="evenodd" clip-rule="evenodd" d="M350.2,609c25.6,8.3,28.6,11.1,33,29.5C373,629.4,362.9,620.3,350.2,609z"/>
<path fill-rule="evenodd" clip-rule="evenodd" d="M354.7,586.1c15.2,1.6,23.9,12.9,34.8,22.6c-13.9-1.6-26.9-10.6-34.4-23.3
	L354.7,586.1z"/>
<path fill-rule="evenodd" clip-rule="evenodd" d="M355.1,585.5c-1.6,0.5-3.2,1.5-4.7,1.4c-0.7-0.1-1.3-2.2-1.9-3.4
	c0.8-0.2,1.9-0.8,2.4-0.5c1.4,0.8,2.5,2.1,3.8,3.1C354.7,586.1,355.1,585.5,355.1,585.5z"/>
<path fill-rule="evenodd" clip-rule="evenodd" d="M797.9,608.3c18.2-1.9,32.4,7.8,44.8,18.4c14.3,12.3,15.2,39.2,4.4,55.9
	c-18.3,28.2-55.6,38.7-85.6,24.3c-8.2-4-14.1-9.6-17.9-18.2C723.2,641.6,759.3,604.7,797.9,608.3z M808.8,625.3
	c-20.6-0.4-33.6,5.3-44,17.3c-12.1,14.1-12.7,25.5-1.7,40c2.1,2.7,4.7,5.3,7.6,7.1c27.1,16.9,58.2,6.6,70.3-24.9
	c6.3-16.6-1.7-31.9-18.9-37.1C816.5,626,810.3,625.5,808.8,625.3z"/>
<path fill-rule="evenodd" clip-rule="evenodd" d="M886.4,598.6c-21.4-11-38-19.6-58.2-30c6.1-1,9-2.4,11.3-1.7
	C856.3,571.8,871.7,579.4,886.4,598.6z"/>
<path fill-rule="evenodd" clip-rule="evenodd" d="M726.7,722.3c-12.9-9.1-27.8-16.5-29.3-38.9c12.1,13.9,22,25.4,31.8,36.8
	C728.6,720.7,727.9,721.3,726.7,722.3z"/>
<path fill-rule="evenodd" clip-rule="evenodd" d="M866.2,607.5c-7.4,2.7-10.7-4.4-15.9-6.7c-4.5-2-9-4.3-14.1-6.8
	c13.9-5.7,17.8-3.7,29.4,14L866.2,607.5z"/>
<path fill-rule="evenodd" clip-rule="evenodd" d="M865.6,608c1.4,1.3,2.8,2.6,4.2,3.9c-0.7,0.4-1.4,0.9-2,1.3
	c-0.5-1.9-1-3.8-1.5-5.7C866.2,607.5,865.6,608,865.6,608z"/>
<path fill-rule="evenodd" clip-rule="evenodd" d="M484.5,202.2c1.4,13.9-3.3,20.9-11.2,25.8c-12.1,7.5-24.5,13.5-39.2,6.2
	c-16.6-8.2-22.6-28.4-12.9-44.2c8.6-14.1,22.5-18.7,37.6-19.4c11.4-0.5,23,10.4,25.5,22.6C485.2,197.5,484.5,201.9,484.5,202.2z"/>
<path fill-rule="evenodd" clip-rule="evenodd" d="M323.7,191.7c-6.3-0.1-12.1-3.7-15.5-10.4c-8.5-16.7,2-44,19.4-50.9
	c18.5-7.4,37.8,6.8,36.4,26.7C362.7,176.4,345,192.2,323.7,191.7z"/>
<path fill-rule="evenodd" clip-rule="evenodd" d="M38.6,505.5c18.2-9.7,18.2-9.7,36.5-5.8C66.5,505.6,66.5,505.6,38.6,505.5z"/>
<path fill-rule="evenodd" clip-rule="evenodd" d="M70.6,552.9c-4.8-0.3-9.7-0.2-14.4-1.1c-2.2-0.4-4.1-2.8-9.2-6.4
	c7.4,0.3,11.4,0,15.2,0.8c3.1,0.7,6,2.6,9,4C71,551.2,70.8,552,70.6,552.9z"/>
<path fill-rule="evenodd" clip-rule="evenodd" fill="#FFFFFF" d="M281.3,736.4c-27.9-0.6-47.2-11.5-54.9-32.2
	c-4.8-12.9-5.1-25.6-0.3-38.2c2.1-5.7,5.3-11,8.3-16.3c14.3-24.7,38.1-30.6,63-23.5c27.2,7.8,42.6,25.7,47.1,53.2
	c0.8,4.9,0.4,10.7-1.4,15.2C333.7,717.6,305.8,736.2,281.3,736.4z M288.6,698.6c7.5,0.1,13.2-1.7,16.3-7.9
	c2.9-5.9,1.7-11.9-1.6-17.4c-3.8-6.4-9.9-9.6-16.9-11.2c-11.2-2.5-20.8,4.2-22.7,15.7c-1.7,10.8,3.6,17.5,15.5,19.5
	C282.6,697.9,286.1,698.3,288.6,698.6z"/>
<path fill-rule="evenodd" clip-rule="evenodd" fill="#FFFFFF" d="M808.8,625.3c1.4,0.2,7.6,0.7,13.4,2.4
	c17.2,5.2,25.2,20.6,18.9,37.1c-12.1,31.5-43.2,41.8-70.3,24.9c-2.9-1.8-5.5-4.4-7.6-7.1c-11.1-14.5-10.5-26,1.7-40
	C775.2,630.6,788.2,624.9,808.8,625.3z M797.1,650.4c-2.6,1.2-8.1,3.4-13.1,6.5c-1.5,1-2.2,4.8-1.8,6.9c1.6,7.1,8,8.7,13.9,9.7
	c5.7,1,11.9-4.2,13.4-10.1C811.1,657.4,806.2,650.5,797.1,650.4z"/>
<path fill-rule="evenodd" clip-rule="evenodd" fill="#FFFFFF" d="M432.1,215.4c-5.7-7.8-5.4-14.4-1.4-20.9c4-6.4,12.5-7.4,18.3-2.5
	c6,5.1,6,14-0.7,17.7C443.2,212.5,437.3,213.6,432.1,215.4z"/>
<path fill-rule="evenodd" clip-rule="evenodd" fill="#FFFFFF" d="M316.4,165.7c-0.4-9.9,3.6-14.8,9.8-14.2c6,0.5,9.6,4.1,9.9,9.7
	c0.4,6.3-4.8,11.4-11.8,10.1C321.1,170.7,318.3,167.1,316.4,165.7z"/>
<path fill-rule="evenodd" clip-rule="evenodd" d="M288.6,698.6c-2.5-0.3-6-0.7-9.4-1.3c-12-2-17.2-8.7-15.5-19.5
	c1.8-11.5,11.5-18.2,22.7-15.7c7.1,1.6,13.1,4.8,16.9,11.2c3.2,5.4,4.5,11.5,1.6,17.4C301.8,696.9,296.1,698.7,288.6,698.6z"/>
<path fill-rule="evenodd" clip-rule="evenodd" d="M797.1,650.4c9.1,0.1,14,7,12.5,13.1c-1.5,5.9-7.7,11.1-13.4,10.1
	c-5.9-1-12.3-2.6-13.9-9.7c-0.5-2.1,0.2-6,1.8-6.9C789,653.8,794.5,651.7,797.1,650.4z"/>
</svg>
