<?xml version="1.0" encoding="utf-8"?>
<!DOCTYPE svg PUBLIC "-//W3C//DTD SVG 1.1//EN" "http://www.w3.org/Graphics/SVG/1.1/DTD/svg11.dtd">
<svg artist="zl2017" version="1.1" id="zlIcon-car-construction" xmlns="http://www.w3.org/2000/svg" xmlns:xlink="http://www.w3.org/1999/xlink" x="0px" y="0px"
	 width="1000px" height="990.9px" viewBox="0 0 1000 990.9" enable-background="new 0 0 1000 990.9" xml:space="preserve">
<path fill-rule="evenodd" clip-rule="evenodd" d="M841.4,516.1c20.2,7.4,39.9,15.6,60.2,21.7c52.8,16.1,73,52.1,64.3,116.2
	c-3.7,27.5-10.5,54.5-15.7,81.3c3.2,5.2,4.8,10.2,8.3,13.3c53.4,47.7,23.4,153.5-34.7,188.4c-29.4,17.7-63.2,27.3-98.2,8.4
	c-30.3-16.4-63.8-27.7-80.8-58.9c-23.9-1.7-44.9-4.8-65.8-4.2c-21,0.7-42,5.1-60.3,7.6c-54.5,80.6-88,100.1-156.3,94.1
	c-29.3-2.6-51.4-20.2-75.2-34.6c-25-15.1-27.1-43.4-37.6-67.8c-34.5-7.9-68.9-6.8-102.9-3.7c-21.2,1.9-39.5,14.8-56.7,28
	c-54.2,41.5-119.4,59.8-181.4,84.9c-1.3,0.5-3.2-0.5-8.1-1.5c0.3-5.2,0.5-10.8,1.2-16.4c0.2-1.2,2.2-2.7,3.7-3.1
	c59.6-17,94.6-64.9,128.3-110.2c31.3-42,47.9-93.2,53.9-146.4c5.1-45.2-2.5-88.2-25.7-127.9c-8.9-15.3-17-31-27-49.3
	c37.3-6.8,70.1,14.8,108.7,3.8c17.1-27.1,36.3-57.3,55.3-87.8c24.3-39,48.1-78.3,72.5-117.3c15.3-24.4,36.1-42.2,63.7-51.8
	c13.9-4.8,27.9-9.9,41.4-15.8c63.3-27.7,128.3-21.1,193.4-9.2c8.6,1.6,17.8,8.8,23.5,16c8,10.1,13.2,22.5,19.4,34.1
	c6,11.3,11.7,22.7,16.9,32.8c12.8,1.3,11.8-7.2,13.1-12.6c2.2-9.6,3.2-19.4,4.9-29.1c8.7-49.2,18.7-53.6,70.4-30.4
	c10.7,26.1-14.3,50.3-4.9,77.7c3.2,2,7.3,4.6,11.3,7.1c24.2,15.2,28.8,24,18.8,47.3C826.8,439,826.9,476.7,841.4,516.1z
	 M353.5,855.7c6.4-36.7,22.6-67.1,44-94.5c35.2-45,83-68.2,138.3-57.2c67.3,13.4,99,32.2,92.1,112.8c-1.4,16.3-2.5,31.9,2.8,46.6
	c19.1,0,35.2-0.2,51.4,0c17.9,0.2,35.8,0.9,53.7-8.7c1.5-16.5,2.1-32.9,4.7-48.9c8.3-50.9,38.1-89.2,97.5-93.6
	c19.1-1.4,38.7,3.6,58.1,5.5c11,1.1,22,1.7,35.8,2.8c5.4-27.8,12.5-53.1,14.9-78.7c3.5-39.3-13.3-65-51.1-79.5
	c-30.5-11.7-62-21.3-93.4-30.4c-50.4-14.5-75.9-48.7-81.9-99.3c-0.8-6.5,0-13.2-1-19.7c-5.8-35.6-12.2-70.9-30.9-102.9
	c-9.9-17-22.8-27.8-42-30.3c-67.7-8.7-134.3-5.1-198.6,19.6c-27.1,10.4-46.5,29.9-61.2,54.7c-33.5,56.3-67.5,112.3-100.9,168.7
	c-2.9,4.9-3.3,11.4-4.9,17.4c15.8,0,29-1.3,41.8,0.2c44.7,5.2,87.6-10.3,131.9-10.6c7.5,0,16-3.9,22.2-8.5
	c16.8-12.4,36.3-14.1,55.7-17.4c16.2-2.8,29.3,3,39.7,14.6c16.5,18.4,21.1,42.2,15.6,64.1c-6.3,25-26.8,42.9-52.7,46.1
	c-23.9,3-44.7-7.8-56.8-30.9c-5.9-11.4-12.5-22.4-18.7-33.6c-41.5-3-80.4,3.6-118.6,12.5c-16.9,3.9-35.3,12.2-47.4,24.1
	c-26.2,25.9-43.6,59.1-44.1,96.3c-0.5,37.4,0.9,75.5,12.1,111.9c4.8,15.4,10.5,30.5,16.1,46.6C303.3,855.7,326,855.7,353.5,855.7z
	 M489.3,917c0,0.2,0,0.3,0,0.5c4.9,0,9.9-0.5,14.8,0.1c22.3,2.9,37-7.8,49.9-24.8c25.5-33.6,31.2-71.8,26.6-111.9
	c-1-8.6-8.1-17.7-14.7-24.3c-22.1-22.3-51.3-19.5-78.9-18.1c-38.4,2-63.7,23.7-77.2,59.1c-13.3,34.8-8.9,67.7,12.8,97.8
	c8.9,12.4,21.5,20.4,37.2,21.5C469.6,917.5,479.4,917,489.3,917z M792.1,836.3c9.2,15.8,16.7,30.3,25.7,43.8
	c4.3,6.5,10.5,12.8,17.3,16.3c38.4,19.9,105.5,2,105.7-55.2c0-8.1,2.1-16.3,1.7-24.4c-1.3-28.6-13.3-49.3-42.4-58.7
	c-14.9-4.8-27.8-3.1-42.7,0.9c-26,7-43.8,20.4-52.2,46.2C802.1,814.5,797.6,823.3,792.1,836.3z M515,569.6
	c0.5,12.6,12.3,22.3,26.7,21.9c15-0.5,23.9-11.7,23.7-29.9c-0.2-12.4-8.2-18.9-22.5-18.1C526.3,544.3,514.4,555.4,515,569.6z
	 M801.1,288.3c-26.2,10.8-27.1,29.3-29.4,46.2c-0.6,4.5,4.8,9.9,7.4,14.9c5.2-2.9,14.1-5,15-9C797.6,325.2,798.5,309.5,801.1,288.3z
	"/>
<path fill-rule="evenodd" clip-rule="evenodd" d="M999.4,39.9C1001,63,986,80.8,968.7,95.4c-7.3,6.2-21.3,7.2-31.9,6.2
	c-19.9-1.7-28.6-16.1-21.4-34.5c6.4-16.5,14.9-32.3,23.8-47.6c9-15.5,27.5-22.8,41.2-18.2C992.5,5.4,999.7,19.2,999.4,39.9z"/>
<path fill-rule="evenodd" clip-rule="evenodd" d="M824.7,207c-6-7-13.7-13-17.2-20.9c-7.4-16.6-10.6-34.3-7.1-52.7
	c3.8-20,12.3-27.5,47.4-38.8c9.1,11.8,19.4,24.1,28.3,37.3c6.7,9.9,5.5,25-2.1,32C858.8,177.9,842.9,191.1,824.7,207z"/>
<path fill-rule="evenodd" clip-rule="evenodd" fill="#FFFFFF" d="M353.5,855.7c-27.6,0-50.2,0-75.9,0c-5.6-16.1-11.4-31.2-16.1-46.6
	c-11.2-36.5-12.6-74.5-12.1-111.9c0.5-37.2,17.9-70.4,44.1-96.3c12.1-12,30.5-20.2,47.4-24.1c38.2-8.9,77.1-15.5,118.6-12.5
	c6.3,11.2,12.8,22.2,18.7,33.6c12.1,23.1,33,33.9,56.8,30.9c25.9-3.2,46.4-21.1,52.7-46.1c5.5-21.9,0.9-45.7-15.6-64.1
	c-10.4-11.6-23.5-17.4-39.7-14.6c-19.4,3.3-38.9,5-55.7,17.4c-6.2,4.6-14.7,8.5-22.2,8.5c-44.2,0.2-87.2,15.8-131.9,10.6
	c-12.9-1.5-26.1-0.2-41.8-0.2c1.6-6.1,2-12.5,4.9-17.4c33.4-56.3,67.4-112.4,100.9-168.7c14.7-24.8,34.1-44.3,61.2-54.7
	c64.3-24.7,130.9-28.3,198.6-19.6c19.2,2.5,32.1,13.2,42,30.3c18.7,32,25.2,67.3,30.9,102.9c1,6.4,0.2,13.2,1,19.7
	c6,50.6,31.5,84.8,81.9,99.3c31.5,9.1,62.9,18.7,93.4,30.4c37.8,14.5,54.6,40.1,51.1,79.5c-2.3,25.7-9.4,50.9-14.9,78.7
	c-13.8-1.1-24.8-1.7-35.8-2.8c-19.4-1.9-39-6.9-58.1-5.5c-59.4,4.4-89.3,42.7-97.5,93.6c-2.6,16-3.2,32.4-4.7,48.9
	c-17.9,9.7-35.8,8.9-53.7,8.7c-16.2-0.2-32.3,0-51.4,0c-5.3-14.7-4.2-30.3-2.8-46.6c6.9-80.6-24.8-99.4-92.1-112.8
	c-55.3-11-103.2,12.2-138.3,57.2C376.1,788.6,360,819,353.5,855.7z M581.2,339c-36.8-12.7-69.4-11.6-101.8-6.5
	c-19.2,3-40.2,7.1-50.6,25.9c-15.7,28.5-31,57.6-42.7,87.9c-9.2,23.7,2.5,39,27.6,39c45.8,0.1,91.6-1.1,137.4-3.1
	c22.1-1,30.9-10.9,35-33.7C592.4,412.5,581.8,377.5,581.2,339z M839.4,636.4c-28.2-23.1-28.2-23.1-47.1-20.3
	C803,634.5,820.6,634.9,839.4,636.4z M791.2,562.3c4.6,20.9,20,22.2,34.1,25.2C814,580.8,812.1,561.6,791.2,562.3z"/>
<path fill-rule="evenodd" clip-rule="evenodd" fill="#FFFFFF" d="M489.3,917c-9.8,0-19.7,0.6-29.5-0.1c-15.7-1.1-28.2-9.1-37.2-21.5
	c-21.7-30.1-26.1-63-12.8-97.8c13.5-35.4,38.8-57.2,77.2-59.1c27.6-1.4,56.7-4.2,78.9,18.1c6.6,6.6,13.7,15.7,14.7,24.3
	c4.5,40.2-1.2,78.3-26.6,111.9c-12.9,17-27.6,27.7-49.9,24.8c-4.8-0.6-9.8-0.1-14.8-0.1C489.3,917.3,489.3,917.1,489.3,917z
	 M498.1,800.8c-20.9,2.1-33.5,15.3-31.1,28.4c2,11.3,13.7,20.3,24.2,18.6c15.7-2.6,28.1-17.3,23-30.5
	C511.4,809.9,502.3,804.9,498.1,800.8z"/>
<path fill-rule="evenodd" clip-rule="evenodd" fill="#FFFFFF" d="M792.1,836.3c5.5-13,10-21.8,13-31.1c8.4-25.8,26.3-39.2,52.2-46.2
	c14.9-4,27.8-5.7,42.7-0.9c29.2,9.3,41.1,30,42.4,58.7c0.4,8.1-1.7,16.3-1.7,24.4c-0.2,57.2-67.3,75-105.7,55.2
	c-6.8-3.5-13-9.8-17.3-16.3C808.8,866.6,801.2,852.1,792.1,836.3z M887.6,822.3c-2.9-2.5-6.9-7.9-12.3-10
	c-9.9-3.8-19.1-0.2-25.7,7.9c-7,8.6-5.3,18-0.3,26.9c1.5,2.6,4.2,5.3,6.9,6.1C870.4,857.5,889.5,840.4,887.6,822.3z"/>
<path fill-rule="evenodd" clip-rule="evenodd" fill="#FFFFFF" d="M515,569.6c-0.5-14.1,11.4-25.3,27.8-26.1
	c14.3-0.7,22.4,5.8,22.5,18.1c0.3,18.2-8.6,29.4-23.7,29.9C527.2,591.9,515.4,582.2,515,569.6z"/>
<path fill-rule="evenodd" clip-rule="evenodd" fill="#FFFFFF" d="M801.1,288.3c-2.6,21.2-3.5,37-7.1,52.1c-0.9,3.9-9.8,6-15,9
	c-2.6-5-8-10.4-7.4-14.9C774,317.6,774.9,299.1,801.1,288.3z"/>
<path fill-rule="evenodd" clip-rule="evenodd" d="M581.2,339c0.5,38.4,11.2,73.5,4.7,109.6c-4.1,22.8-12.9,32.7-35,33.7
	c-45.8,2-91.6,3.1-137.4,3.1c-25.1,0-36.8-15.3-27.6-39c11.8-30.3,27-59.4,42.7-87.9c10.4-18.9,31.4-22.9,50.6-25.9
	C511.8,327.4,544.5,326.3,581.2,339z M555.9,452.4c16.6-17,11.8-32.6,9-49.1c-9.2-54.4-16.7-59.7-69.5-57.2
	c-30.5,1.4-48.9,16.4-60.9,41.6c-7,14.7-12.2,30.4-16.7,46.1c-2.4,8.4-1.8,17.7-2.6,27.3C466.5,470,512.3,453.7,555.9,452.4z"/>
<path fill-rule="evenodd" clip-rule="evenodd" d="M839.4,636.4c-18.7-1.5-36.4-1.9-47.1-20.3C811.2,613.3,811.2,613.3,839.4,636.4z"
	/>
<path fill-rule="evenodd" clip-rule="evenodd" d="M791.2,562.3c21-0.8,22.8,18.4,34.1,25.2C811.2,584.5,795.7,583.3,791.2,562.3z"/>
<path fill-rule="evenodd" clip-rule="evenodd" d="M498.1,800.8c4.2,4.1,13.2,9.1,16.1,16.5c5.1,13.2-7.4,27.9-23,30.5
	c-10.4,1.7-22.2-7.3-24.2-18.6C464.7,816.1,477.3,802.9,498.1,800.8z"/>
<path fill-rule="evenodd" clip-rule="evenodd" d="M887.6,822.3c1.9,18.1-17.2,35.2-31.3,30.9c-2.7-0.8-5.4-3.5-6.9-6.1
	c-5.1-8.9-6.7-18.3,0.3-26.9c6.6-8.1,15.8-11.7,25.7-7.9C880.7,814.4,884.7,819.9,887.6,822.3z"/>
<path fill-rule="evenodd" clip-rule="evenodd" fill="#FFFFFF" d="M555.9,452.4c-43.6,1.3-89.5,17.5-140.7,8.6
	c0.8-9.6,0.2-18.9,2.6-27.3c4.5-15.7,9.7-31.4,16.7-46.1c12-25.2,30.4-40.2,60.9-41.6c52.9-2.4,60.4,2.8,69.5,57.2
	C567.8,419.8,572.5,435.5,555.9,452.4z"/>
</svg>
