<?xml version="1.0" encoding="utf-8"?>
<!DOCTYPE svg PUBLIC "-//W3C//DTD SVG 1.1//EN" "http://www.w3.org/Graphics/SVG/1.1/DTD/svg11.dtd">
<svg artist="zl2017" version="1.1" id="zlIcon-castle" xmlns="http://www.w3.org/2000/svg" xmlns:xlink="http://www.w3.org/1999/xlink" x="0px" y="0px"
	 width="1000px" height="893.4px" viewBox="0 0 1000 893.4" enable-background="new 0 0 1000 893.4" xml:space="preserve">
<path fill-rule="evenodd" clip-rule="evenodd" d="M353.5,830.1c-0.3-17.1-0.4-34.2-1-51.3c-1.3-36.6-2.1-73.3-5-109.7
	c-0.7-8.8-8.5-17-13.2-25.4c-9.6-16.9-19.2-33.5-37.8-43.1c-3.6-1.8-6.3-10.1-5.7-14.8c1.7-13.4,4.6-26.7,8.5-39.5
	c1.4-4.7,6.7-11.3,10.7-11.7c14.9-1.4,30.1-0.6,45.5-0.6c1.9,13.2,3.6,24.6,5.2,35.7c16,6.7,16.1,6.7,20.5-7.8
	c1.3-4.3,1.3-9.2,3.3-13.1c1.9-3.7,5.1-8.1,8.6-9.1c15.6-4.2,31.4-3.9,47.2,1c0.5,12.4-6.7,24.9,4.4,32.3c4.9,3.3,13.1,1.7,21.6,2.5
	c1.3-9,2.4-15.8,3.3-22.7c1.7-13.2,4.1-14.8,17-12.6c6.9,1.2,13.9,1.5,20.9,2.1c11.2,0.8,16,6.1,14.9,17.3
	c-0.6,5.6-1.8,11.1-3.4,20.5c12.9-3.4,23-6.2,32-8.6c1.3-2.7,2.2-3.8,2.3-5.1c2.2-24.3,13.9-32.1,37.3-24.7
	c10.3,3.3,18,17.2,14.4,30.6c-4.5,16.9-11.1,32.9-28.8,41.5c-7.2,3.6-13.2,9.8-21.6,16.3c7.7,3.5,13.1,5.9,19,8.6
	c-2,13-3.9,25.6-5.7,37.6c21.5,10.1,27,7,30.1-14.8c0.8-5,2.3-9.9,3.8-16c15.4,0,30.3,0,47.7,0c1.1,12.9,2.1,24,3.1,35.4
	c8,2.2,12.9,0.2,14.4-8c0.6-3.2,1-6.4,1.7-9.6c4-17.9,4.3-18.1,21.7-16.6c-4.3-7.7-17.5-12.9-26.2-10.3c-1.8,0.6-3.5,1.6-5.3,2.3
	c-14.2,5.5-17.5,3.9-18.8-10.6c-1.9-21-4.1-42.2-4.1-63.3c0-13.4-4.5-23.6-13-33.1c-5.9-6.6-11.1-14-16.8-21.2
	c7.9-20,15.4-39,23.4-59.2c4.7,2.5,7.7,4.9,11.2,5.9c8.3,2.5,19.6,0,22.9,11c2.3,7.7,1.7,16.1,2.5,25.1c1.8,0.6,4.2,1.3,6.7,2.1
	c7.3,2.1,16,7.4,21.6,5.2c5.1-2,7.3-12.2,9.9-19.1c2.9-8,7.6-11.1,16.2-9.5c24.3,4.8,27.7,9.6,24.8,38.2c8.8,2.4,17.9,4.9,28,7.7
	c1.4-4.4,2-8.2,3.8-11.4c9.2-16.7,32.3-21,46.4-8.4c3.1,2.8,5.8,7.5,6.1,11.6c0.8,12,0.3,24.2,0.3,36.2c-10.3,2.8-18.8,3.9-26,7.5
	c-5.1,2.6-11.1,8.2-12,13.3c-5.7,30.5-5.6,61.4-3.7,93.9c20.8-5.2,40.2-3.4,58.8,5.1c10.8,4.9,18.7-1.9,27-6.1
	c20.1-10.1,40.9-9.6,55.4,6.5c12,13.5,26.4,20.9,40.8,29.9c20.1,12.7,33.6,49.9,28.3,73.6c-1.4,6.3-3.1,12.5-4.7,18.7
	c-8.5,33.1-29,48.9-62.5,48.3c-4.4-0.1-8.8,0-14.9,0c0.3,6.8,0.1,12.3,0.9,17.8c3.1,21,2.9,21.5-18.6,33c-7.5-23.1-3.3-47.1-9.1-73
	c5.7,0.6,10.3,0.6,14.6,1.7c9.9,2.6,19.5,7.3,29.5,8.4c25.5,2.9,47-16,52.2-41.3c4.6-22.1,3.2-42.3-10.4-60.7
	c-3.8-5.1-7.9-10.2-12.7-14.3c-11.3-9.8-19-10.2-31.3-2.2c-4.2,2.8-8,6.2-12.5,9.7c-1.5-11.6-1.5-11.6,15.9-26.9
	c-8.8-21.5-30-29.5-49.4-17.7c-10.3,6.3-20.3,13.6-29.2,21.7c-7.5,6.8-8.5,15.7-0.8,25.1c7.6,0,16,0,24.5,0c0.3,1,0.5,2,0.8,3.1
	c-2.9,1.8-5.6,4.8-8.7,5.2c-15.6,2.3-24.8,13.6-34,24.2c-12.5,14.7-11.4,35.3,2,49.3c5.7,6,11.5,12.8,18.7,16.3
	c6.2,3,14.3,1.7,25.9,2.6c-13.6,8-23.3,6.5-32.8,2.2c-9.7-4.4-18.6-3.6-29.7,4c0,16.2,0,33.9,0,51.1c-17.3,4.4-20.5,2.9-21.7-11.4
	c-1.2-14.1-1.4-28.3-2.1-41.9c-17.2-7.8-33.9-15.4-52.2-23.7c-2.7,8.8-6,19.5-9.5,30.9c-33.3-21.6-55.6-25.4-88.1-9
	c-8.4-10.4-5.7-22.9-4.8-34.3c0.8-11.1,4.5-22.1,5.2-33.8c-3.5,8.1-8.5,15.8-10.3,24.3c-6.3,29.6-13.2,59.3-7.6,89.7
	c1.5,8-0.8,12.6-7.8,15.2c-10.1,3.8-20.4,7.2-33.2,11.7c-1.6-11.5-3.5-22-4.5-32.6c-2.4-28.3-3.8-56.6-6.9-84.8
	c-1.4-12.9-2.8-13-18.7-22.3c-3.5,12.2-6.9,23.8-10.8,37.3c8.6,0,13.9,0,23.8,0c-7.1,4-10.1,6.5-13.5,7.3
	c-12,3.1-15.9,11.7-16.9,22.9c-0.7,7.8-2.1,15.6-6.6,23.1c0-11.9,0-23.7,0-35.8c-23.5,5.5-26.3,10.1-24.4,31.6
	c0.5,5.4-3.9,11.1-6,16.7c-2.4-3-5-6.3-8.1-10.2c0-0.3-0.5-1.8,0-2.4c5.8-6.3,9.4-13.3,1.4-19.9c-5.4-4.6-23.6,3.8-25.4,12
	c-2.8,12.4-4.2,25.2-6.3,38.2c-21.8,10.5-37.8,0-36.6-24.5c1.1-21.9,3.1-43.7,2.9-65.6c-0.1-14.4-6.3-29.3-4.3-43.1
	c3.2-23.1-2.5-40.9-18.1-57.6c-7.5-8.2-8.5-19.1-4-31c3.7-9.8,3.8-21.1,5.6-32.8c13.2-1.4,25.9-3.7,37.8,3.3
	c6.4,3.7,17.2-3.9,19.8,6.8c1.8,7.1,0.5,14.9,0.2,22.4c-0.3,7-1.1,13.9-1.7,20.8c13.3,7.5,25.4,8,38.5,4.6c2-16.3,3.8-31.5,5.8-47.8
	c-8.8,2.6-11.3,8.8-13.6,15.5c-2.6,7.3-8,9.6-16.5,6.8c-1.9-5.3-5.2-11.1-6-17.2c-0.7-5.9,1.2-12.1,2-19.1
	c-20.5-3.3-39.3-6.9-58.3-9.2c-12.4-1.6-23.4,8.3-25.1,20.9c-1.1,7.7-2.1,15.4-3.3,23c-3.1,21.1,0.7,39.8,12,58.9
	c8.7,14.7,15.7,31.9,14,50.8c-1.7,18.6-1.5,37.3-2.9,55.9c-1.7,22-16.5,30.8-36.7,22.5c-6.9-2.8-13.9-5.7-20.8-8.5
	C356.4,830.1,354.9,830.1,353.5,830.1z M843.2,679.8c-22.3-10.8-42.4-7.1-59.4,8.3c-8.3,7.6-13.8,18.3-20.2,27.9
	c-20.5,30.6-17.5,61.8,9.3,85.6c7.2,6.4,16.4,12.2,27.7,6.2c2.8-1.5,7.1-0.6,10.6-0.1c6.6,0.8,13.2,2,23.9,3.8
	c-26.1-33.5-17.4-60.5,8-84.5C833.5,710.4,838.7,694.9,843.2,679.8z M550.3,758c-27.2,6.8-28.1,8-33,44.2c8.1-2.2,15.8-4.3,23.2-6.4
	C543.7,783.5,546.7,771.9,550.3,758z M605.4,711.2c-10.8,8.8-19.2,16.8-18.4,31.1c7.9,1,15.1,2,24.9,3.3
	C611.1,733.2,616.8,722.1,605.4,711.2z M490.9,749.7c1.4-11.3-1.3-18.9-11.4-23.3c-8.8,6.3-20.8,8.8-21.2,23.3
	C469.6,749.7,480.2,749.7,490.9,749.7z M712.9,551.9c-11.9,5.1-15,13.1-13.2,19.8c1.4,5,9.1,8.3,14,12.4c1.5-0.9,2.9-1.8,4.3-2.7
	C716.4,572,714.8,562.8,712.9,551.9z M484,813c23.6-3.6,25.3-6.1,19.3-26.1C496.1,796.6,490,804.8,484,813z M686.6,689.7
	c1.1,0.3,2.3,0.5,3.4,0.8c0-5.7,0-11.4,0-17.1c-0.8,0-1.6,0-2.5-0.1C687.2,678.8,686.9,684.3,686.6,689.7z M546.6,632.8
	c-0.2-1.2-0.4-2.4-0.6-3.6c-4.4,0.8-8.7,1.5-13.1,2.2c0.1,0.9,0.3,1.9,0.4,2.9C537.7,633.7,542.2,633.3,546.6,632.8z"/>
<path fill-rule="evenodd" clip-rule="evenodd" d="M562.8,32.8c-9.8,0-17.9,0-27.5,0c3.4,15.2-5.5,20.2-16.8,20.6
	c-27.1,1.1-54.3,1.7-81.4,1.1c-5.8-0.1-11.5-5.8-20.7-10.9c18.4-8.4,32.6-0.4,46.5-2c13.7-1.5,27.6-1.7,43.6-2.5
	c-4.8-8-17.7-8.8-13.1-18.6c3.7-8.1,11.4-11.4,20.5-12c10.9-0.7,21.7-2.2,32.5-3.6c8.9-1.2,17.7-2.6,26.5-4.3
	c15.7-2.9,23.8,3.2,23.7,19.2c0,6.9-2.3,13.8-2.8,20.8c-1.7,20.6-1.3,41.1,3.4,61.5c2.1,9.2,1.8,18.9,2.6,28.4
	c0.3,3.2-0.3,6.7,0.8,9.5c13.2,31-1.1,61.6-0.9,92.4c0.1,12.7-2.1,25.5-1.3,38.1c0.9,14.3-1.8,27.7-4.2,41.6
	c-1.6,9.3,2,19.4,0.6,28.7c-7.3,49.1-8.5,98.7-13.5,147.9c-1.1,10.6-5.4,20.9-8.1,31.1c-8.8,3.7-19.2-1-24.7,10.1
	c-1.5,3-13.2,2.6-19.4,1c-6.6-1.8-12.1-7.1-18.2-10.7c-9.5-5.7-13.2-12.3-12.1-25c2.3-27,0.9-54.2,0.8-81.4
	c-0.1-37.9,1.7-75.6,6.7-113.3c3.1-23.3,1.2-47.3,1.1-71c-0.1-14.2-1.1-28.3-1.3-42.6c0-3.6,1.2-7.4,2.5-10.8
	c17.5-44.3,35.2-88.6,52.7-132.9C562.4,41,562.2,38.3,562.8,32.8z M581.9,36.1c-1.4-0.2-2.8-0.3-4.1-0.5
	c-14.3,23.6-45.3,105.7-44.8,121.3c18.9-3.5,37.4-6.8,55.6-10.2c0.4-4.2,0.9-6.1,0.7-8c-2.4-21.6-5.4-43.1-7.2-64.7
	C581,61.6,581.9,48.8,581.9,36.1z M566,187.2c-13.9,10-24.8,40.4-23,61.3c8.6-0.9,17.1-1.9,27-3C568.2,225.3,573.1,206.4,566,187.2z
	"/>
<path fill-rule="evenodd" clip-rule="evenodd" d="M421.7,506.5c-4.6,4.7-8.3,8.7-12.2,12.5c-1.8,1.7-4.3,4.1-6.3,4
	c-12-1.1-24-2.2-35.8-4.5c-12.1-2.3-24-6.1-37.7-9.7c0-12.9,0.4-26.3-0.1-39.7c-0.9-25.2-4-50.4-3-75.4
	c2.2-53.4,6.2-106.8,9.8-160.2c2.7-39.6,16.3-76.5,28-114c2.4-7.7,3.1-16,4.7-24.5c-22.1-7.2-41.9-3.4-62.8-2.5
	c6.1,9.2,12.2,15.7,15.1,23.4c4.9,12.7-1.2,21.6-14.7,22.3c-17.9,0.9-35.8,0.7-53.7,1.1c-5.1,0.1-10.1,0.7-15.2,1.2
	c-10.3,1-19.1,3.2-30.8-2.2c-13.5-6.2-31.3-3.3-47.2-4.2c-4.6-0.3-9.2,0-14.6,0c1.7-9.3,7.2-8.6,12.2-8.8c43.2-1.3,86.4-2.6,129.7-4
	c3-0.1,6-0.6,14.1-1.3c-10.6-7.6-17.4-13-24.6-17.5c-7.4-4.6-11.3-10.3-9.6-19.3c1.7-8.9,9.6-11.1,16.1-11.7
	c16.5-1.3,32.5-7,49.8-2.9c9.4,2.2,20.3-1.4,30.5-2.3c4.9-0.5,11.5-3.3,14.3-1.2c5.4,4,10.5,10.4,12.2,16.7
	c3.1,12.4,4.7,25.3,5.3,38.1c1.5,34,6.3,67.4,14.6,100.4c3.8,15,6.8,29.5,2,45.5c-3.2,10.8-1.2,23.1-1.5,34.7
	c-0.9,30.2-1.7,60.4-2.8,90.6C406.3,430.7,406.7,469.9,421.7,506.5z M381.4,115.3c-1.5,0-2.9-0.1-4.4-0.2
	c-8.5,33.6-21.6,65.9-27,100.8c16.6-0.8,30.9-1.5,45.5-2.2C390.6,179.9,386,147.6,381.4,115.3z M386.7,321c2-6.5,5.2-11.9,4.7-16.9
	c-1.4-13.4-4.2-26.6-7.1-39.8c-1.1-4.9-3.4-9.9-6.4-13.9c-5.8-7.8-12.5-7.1-15.6,2c-5.9,17.6-11,35.6-16.6,54.2
	C359.4,311.4,372,315.8,386.7,321z"/>
<path fill-rule="evenodd" clip-rule="evenodd" d="M731.5,69.7c-15.5-1.4-15.5-1.4-18.4,24.4c-6,1.2-12.7,2.8-19.4,3.6
	c-14,1.6-28.1,2.6-42.1,4c-8.5,1-17,2.6-22.5-10.4c20.6-7.5,42.9-6.6,65.2-14c-4.6-4.3-8.9-7.7-12.5-11.7
	c-6.3-7.1-3.5-16.6,5.7-17.1c18.9-1,36.8-4.6,54.2-12.2c6.9-3.1,19.1,5.1,21.5,15.3c3.2,13.5,9.9,26.2,8,41.4
	c-1.2,9.5,2.8,19.8,4.8,29.7c5.7,27.6,9,55.7,21.3,81.8c4.7,10,5.1,22.6,5.2,34c0.2,17.3-2,34.6-2.2,51.9
	c-0.5,42.6-0.7,85.3-0.2,127.9c0.2,15.3,2.7,30.5,4.3,47.4c-11.2,7.7-24.5,16.8-40.4,27.7c-12.3-3.1-12.7-19.1-20.5-30.1
	c-2-0.2-4.5-0.6-7-0.9c-18.6-1.7-19.5-2.5-19.1-21c0.9-39.2,5.2-78.7,2-117.5c-2.8-35.1,0.9-70.6-8.3-105.6
	c-3.8-14.5,3.4-31.6,3.4-47.6C714.8,136.4,731.2,105.1,731.5,69.7z M753.6,67.3c-1.7,0.4-3.5,0.8-5.3,1.2
	c-16.8,45.3-26.1,92-26.2,140.9c9.5-2.2,18-4.5,26.7-6.2c9.1-1.8,18.4-3.1,28.9-4.8C769.4,152.9,761.5,110.1,753.6,67.3z
	 M767.5,248.4c-2.2-0.5-4.5-1-6.7-1.4c-6.6,16.4-13.8,32.7-19.5,49.4c-1.1,3.3,3.8,12.3,5.2,12.1c10.3-1.1,21.9,3.1,31.5-6.1
	C774.6,284.4,771,266.4,767.5,248.4z"/>
<path fill-rule="evenodd" clip-rule="evenodd" d="M198.8,767.2c-1.7,18.8-3.4,36.3-5.2,55.5c-4.7,0.3-10.7,0.6-17.1,1
	c-7.6-18.4-10.9-36.1-0.9-57.2c-7.8,0-14.3-0.1-20.8,0c-19.4,0.3-38.7,2.2-55.1-12.5c-13.2-11.9-17.9-25.6-13.4-43.2
	c4.3-17.3,10.6-33,26-43.8c3.4-2.4,6.7-6.7,7.5-10.7c3.2-14.4,12.6-23.7,23.9-31.7c-13.7-21.6-41.9-32.9-62.5-22.2
	c-24.3,12.6-38.4,26.5-29.6,54.8c4.4-0.7,9.1-2.1,13.8-2.1c4.8,0,9.6,1.5,18.9,3.1c-11.4,3.6-18.4,5.8-25.8,8.1
	c1.7,4.3,2.9,7.4,4.2,10.5c-2,0.9-3.7,2.1-4.2,1.7c-12.1-8.4-22.2-4.2-30.5,5.5c-6.6,7.7-13.2,15.9-17.6,24.9
	c-5.5,11.2-1.9,20,9.1,25.6c8.4,4.3,17.5,7.1,25.7,13.1c-9.9-1.9-20.2-2.7-29.6-6.1C2.9,737-2.1,723.1,1.8,709.6
	C5.9,695,15.5,684.8,27,676.1c9.8-7.4,15-14.6,12.6-29.2c-3.1-18.7,10.1-32.6,24.2-43.4c24.1-18.5,67.1-20,90.5,15.7
	c5.4-3.1,11.1-6,16.5-9.3c17.7-11,35.7-8.4,51,2.7c14.1,10.3,25.4,24.6,19.8,44.7c-2.8,10,3.9,16,9,22.3
	c11.4,14,14.2,30.2,13.3,47.3c-0.8,15.7-15.9,32.5-31.4,35.3C221.8,764.3,211,765.5,198.8,767.2z M155.6,659.5c-0.7,1.5-1.3,3-2,4.5
	c-21.1-4.6-35.1,6.5-45.2,21.8c-11.2,16.8-14.9,35.5-2.6,54c9.5,14.2,24.5,17.8,40.2,19.1c15.4,1.2,30.8,2.8,46.2,2.5
	c19.3-0.5,39-2.4,54.5-15.8c4.6-4,10-10.5,9.8-15.6c-0.4-13.2-0.5-26.7-9.9-38.3c-10.1-12.7-22.1-22.2-38-28.3
	c4-2.7,7.8-4.3,11.6-4.3c4.2,0,8.5,1.3,12.7,2.1c3.7-20.8-9.3-42.7-26-45.8c-26.3-4.7-54.2,8.9-67.2,32.2
	C145.1,651.5,150.3,655.5,155.6,659.5z"/>
<path fill-rule="evenodd" clip-rule="evenodd" d="M66.3,744c4.6-1.2,10.7-3,18.6-5.2c2.8,21.2,5.5,41.9,8.3,63.4c-7.4,0-13.2,0-19,0
	C71.6,782.9,69,763.6,66.3,744z"/>
<path fill-rule="evenodd" clip-rule="evenodd" d="M934.2,781.9c3.2-9.7-3-21.7,7.7-31.9C944,763.6,946.2,774.4,934.2,781.9z"/>
<path fill-rule="evenodd" clip-rule="evenodd" d="M44.9,700.3c-2.1,8.8-3.8,15.7-5.4,22.5c-10.2,0.5-10-5.6-9.7-11.4
	C30.1,703.8,34.4,700.1,44.9,700.3z"/>
<path fill-rule="evenodd" clip-rule="evenodd" d="M75.7,619.3c10.8-8.2,20.5-13.5,34-10C100.1,618.2,88.3,621.8,75.7,619.3z"/>
<path fill-rule="evenodd" clip-rule="evenodd" d="M115.4,624.8c-3.4,11.5-10.2,10.6-19.9,7.2C100.8,623.8,106.5,621.4,115.4,624.8z"
	/>
<path fill-rule="evenodd" clip-rule="evenodd" d="M777.2,743.9c-3.4-23.7,7.6-38.1,27-39C794.6,718.7,785.9,731.2,777.2,743.9z"/>
<path fill-rule="evenodd" clip-rule="evenodd" d="M113.3,734.5c-6.7-13.5-7.5-26.8,3.9-38.6c5.1-5.3,8.7-15.6,20.2-7.9
	c-6.2,7.4-13.9,13.9-17.5,22.1c-3.2,7.1-1.7,16.3-2.3,24.5C116.1,734.6,114.7,734.6,113.3,734.5z"/>
<path fill-rule="evenodd" clip-rule="evenodd" d="M229.7,729.4c-1.2-14-2.2-26.2-3.3-39.5c6-0.5,10.9,2.9,12.2,8.6
	C241.2,709.4,238.2,719.5,229.7,729.4z"/>
</svg>
