<?xml version="1.0" encoding="utf-8"?>
<!DOCTYPE svg PUBLIC "-//W3C//DTD SVG 1.1//EN" "http://www.w3.org/Graphics/SVG/1.1/DTD/svg11.dtd">
<svg artist="zl2017" version="1.1" id="zlIcon-cat-joga-up" xmlns="http://www.w3.org/2000/svg" xmlns:xlink="http://www.w3.org/1999/xlink" x="0px" y="0px"
	 width="1000px" height="714px" viewBox="0 0 1000 714" enable-background="new 0 0 1000 714" xml:space="preserve">
<path fill-rule="evenodd" clip-rule="evenodd" d="M639.3,17.8c1.6,3.1,3.7,5.5,4.2,8.1c1.7,10.5,8.4,18,14.8,25.7
	c16.1,19.5,39.3,21.6,61.5,15.6c2.1-0.6,4.2-2.7,5.6-4.6c11.5-15.2,20.5-31.5,20.5-51.3c0-5.7,0.2-11.2,9.8-11.2
	c1.1,4.6,2.7,9.5,3.4,14.6c2,14.1,6,27.3,11.2,40.7c8.9,23.1,18.7,46.5,18.5,72c-0.1,13.8-2.6,26.8-10.8,39
	c-6.8,10.2-14.1,19.3-24.1,26.5c-2.3,1.7-4.3,5.3-4.5,8.1c-0.6,8.7-0.2,17.4-0.2,26.9c4-0.4,6.9-0.2,9.6-1
	c16.9-4.6,34-8.7,50.5-14.4c10.9-3.8,21.4-9.4,26.6-22.7c-5.4-4.4-10.8-8.7-16.3-13.1c-5.4,4.2-9.3,10.8-16.5,7.3
	c-6.8-3.2-7.3-9.3-6-16.1c0.4-2-1.2-4.4-2.1-6.6c-4.3-11.3-0.9-19.2,9.7-20.8c3.1-0.5,6.3-3.2,8.7-5.7c6-6.2,11.7-7.3,17.3-2.7
	c5.6,4.6,6.7,13.3,2,19.1c-2,2.5-5.1,4.2-8.3,6.6c2.8,3.9,4.5,6.5,6.5,9c4.1,5.3,8.9,10.1,12.4,15.7c8.6,13.7,5.2,24.1-9,31.9
	c-24.1,13.2-47.9,27-71.9,40.3c-7,3.9-11.2,9.1-12.1,17.5c-3.7,34.3-14.2,67.2-27.3,98.5c-15,35.8-36,68.8-72.9,87.4
	c-18.8,17.1-42.3,20.2-66.3,22.1c-26.5,2.1-53,6.4-79.8,4.2c-5.8-0.5-11.6-1.2-17.4-2c-18.9-2.6-35.2,2.6-49.9,14.9
	c-6.6,5.5-14.3,9.9-22,14c-3.1,1.7-7.3,1.9-10.9,1.8c-22.1-0.7-44.1-1.6-67.2-2.5c-1.4,2-3.1,4.8-5.1,7.3c-7.7,9.8-18,8.5-23.5-2.8
	c-1.4-2.8-2.6-5.9-4.8-8.1c-5.8-5.9-6-9.4,1-13.4c5.5-3.1,10.6-6.1,14-11.8c1.4-2.3,6-5.1,7.9-4.4c3.4,1.4,6.8,4.7,8.5,8
	c1.6,3.1,1,7.3,1.4,11.8c15,3.7,29.6,3.1,44.2-1.4c11.1-3.5,20.3-9.2,25-21.5c-13.9-1.7-27.7-3.6-41.5-5.1c-9.5-1-19.1-2.3-28.6-1.9
	c-19.9,0.9-39.3,4.4-57.8,13c-20.8,9.6-38,23.6-55.1,38.3c-8.5,7.4-13.4,17-17.6,26.9c-4.3,9.9,1.9,25,11.5,30.3
	c14.5,8,29.3,10.6,45.6,4.4c9.4-3.5,14.8-9.8,20.1-18.6c-3.3-1.2-5.9-2.2-8.4-3.1c-4.4-1.7-7-4.6-5.8-9.6c1.2-5,6.6-8.7,11.4-7.3
	c10.3,3.1,17.7,11,21,20c3.2,8.7-3.2,16.1-10.6,22.1c-15,12.2-31.7,19.4-50.9,15.1c-14.1-3.1-28-7.9-41.2-13.8
	c-14.7-6.5-21.1-23.1-17.8-38.7c4.8-22.4,17.3-39.2,36.8-51c15.7-9.5,30.8-20.1,47-28.6c14.6-7.6,30.2-13.5,47.3-13.7
	c17.1-0.2,34.2-1.1,51.3-1.6c13.3-0.4,26.6-2.7,39.7,1.5c1.8,0.6,4,0.1,7.3,0.1c-3.7-8.8-10.7-12.6-17.4-16.3
	c-17.8-9.7-37.5-13.9-57.2-17.4c-15.5-2.8-31.3-3.5-47.5-5.2c-2.7,3.4-5.1,6.7-7.9,9.7c-6.6,7.2-12.2,7.2-19.2,0.4
	c-4.6-4.4-7.1-10.5-13.8-13.4c-4.9-2.1-5.2-8.8-1.5-13.1c2.3-2.7,5.9-4.3,9.9-7c-0.7-4.9-1.3-11.2,5.1-15.2
	c5.9-3.7,11.7-3.6,18.1-0.2c0.7,7,1.3,14,2,20.9c10.6,6.2,22.1,5.3,33.1,6.5c18.2,2,36.5,3,54.8,4.1c6.2,0.4,12.4,0.1,18.6-0.4
	c17.2-1.4,31,3.9,40.6,19c15.6,24.6,35.2,33,65.3,26.1c8.9-2,18.2-2,27.3-2.8c30.5-2.8,60-9.7,87.4-23.8
	c15.2-7.8,29.1-17.6,41.9-29.1c16.6-14.9,31.1-31.4,42-50.6c11.3-19.9,21.1-40.6,30.9-61.3c5.5-11.4,3.7-12.6-3.8-22
	c-15.9-19.7-38-30.9-58-45.1c-5.7-4.1-11.9-7.5-17.8-11.4c-6.5-4.3-8.4-10.7-8.5-18.3c-0.3-21.3-8.7-40.4-16.4-60.5
	c-3.9,1.7-6.8,3.9-9.7,4c-3.4,0.1-8.3-0.8-9.9-3c-2-2.8-3.1-8.7-1.5-11.3c4.6-7.6,10.5-14.6,16.6-21.1c4.7-4.9,12.5-2.9,13.7,3.7
	c1.1,6.2,3.6,11.4,6,16.9c1,2.2,0.5,6.2-1,8.2c-3.3,4.5-2.3,8.4-0.7,12.9c5.4,15.8,11,31.5,15.5,47.5c2.2,7.9,6.6,11.7,13.7,14.5
	c6.5,2.5,12.4,6.4,18.4,10c14.3,8.6,28.7,16.9,45.4,20c12.1,2.2,14.3-0.4,10.1-12.5c-1.1-3.1-1.9-6.3-3.3-10.8c-5.7,0-11.8-0.1-18,0
	c-27.6,0.7-54.6-16.9-64.6-42.7c-3.6-9.3-6.2-19-8.9-28.6c-0.9-3.1-1-6.8-0.4-10c6.5-31.8,1.8-63.1-3.6-94.5
	C634.1,26.1,631.8,21.2,639.3,17.8z"/>
<path fill-rule="evenodd" clip-rule="evenodd" d="M34.4,437.8c-0.2,0.6-0.8,1.4-0.7,2.1c2,15.2,3.5,30.5,6.4,45.6
	c3.4,17.5,8,34.8,12.2,52.2c3.6,15,7.6,29.9,11,44.9c9.4,41,6.6,81-9.3,120.1c-0.2,0.6,0.4,1.4,0.3,1.1c21.4,1.8,39-12.8,60-12.6
	c3.2,0,6.4-1.8,9.5-3c26.3-9.4,52.7-18.6,78.9-28.2c19.6-7.1,38.9-14.8,58.4-22c8.6-3.2,17.4-5.7,26.1-8.6
	c42.2-14.2,84.4-28.4,126.6-42.7c15.8-5.4,31.1-12.7,47.2-16.3c40.2-9.1,80.4-18.9,121.7-22c19.9-1.5,39.9-3.5,59.8-3
	c14.9,0.4,29.6,5,44.5,6.8c46.2,5.6,89.4,22.8,134.1,34.5c19.7,5.1,40,7.9,60.2,10.7c13.6,1.9,27.4,2.6,41.2,2.9
	c14.5,0.3,28.9-0.5,43.8-0.8c2.5-10.4,1.2-19.4-0.8-28.3c-5.2-24-11.1-47.9-16-72c-6.4-31.7-12.1-63.6-18.3-96.8
	c-4.3-0.2-8.5-1.4-12.2-0.5c-27.3,6.5-55.4,5.8-83.1,7.3c-19.4,1-39.1-1.4-58-7.7c-7.1-2.3-14.6-3.6-21.8-5.7
	c-3.7-1.1-7.3-2.9-11.7-4.8c4.6-7.9,10.3-10.6,17.4-9.7c16.5,2.1,33,4.3,49.4,6.8c7,1.1,13.8,3.4,20.8,4.3c9.4,1.3,19,2.5,28.5,2.6
	c12,0.2,24.2,0.1,36.1-1.4c8.5-1.1,16.6-4.7,24.9-7.2c2.4-0.7,4.6-2,7-2.6c9.6-2.7,13.3-1,15.3,8.8c5.5,27.8,10.2,55.7,15.7,83.5
	c3.3,16.7,7.5,33.3,11.4,49.9c2.6,10.9,5.8,21.7,8.3,32.7c3.3,14.2,5.7,28.6,9.7,42.6c2.1,7.4,6.7,14,10.6,22
	c-4.2,6-11.9,5.1-18.2,4.9c-14.9-0.7-29.8-2.6-44.7-4.2c-13.6-1.5-27.3-3.1-40.9-4.9c-2.8-0.4-5.4-1.9-8.1-3
	c-3.5-1.4-6.8-3.4-10.4-4.3c-22.1-5.8-44.2-11.5-66.3-17.1c-4.8-1.2-9.9-1.7-14.8-2.8c-31.2-7.2-62.3-15-93.6-21.6
	c-15-3.2-30.4-5-45.7-6.2c-24.9-1.9-50-3.3-75-4c-21.4-0.6-42.2,3.9-62.9,9c-15.8,3.9-31.9,6.4-47.6,10.4
	c-16.5,4.2-32.9,8.7-49,14.4c-24.8,8.7-49,19-73.8,27.7c-17.7,6.2-36,10.6-53.8,16.4c-18.2,6-36.1,12.7-54.1,19.1
	c-22.8,8.1-45.4,16.4-68.3,24.4c-25.5,8.9-51.1,17.9-76.8,26c-10.2,3.2-21.1,4.8-31.8,6c-15.6,1.8-22.7-7.8-18.6-23.5
	c3.4-12.8,6-25.9,9.1-38.8c4.9-20.4,2.2-40.8-1.4-60.8c-3.3-18.4-9.5-36.3-12.8-54.7c-5.8-32.1-19.1-61-34-89.6
	c-3.5-6.7-4-14.9-5.8-22.3c11.3-6.5,22.5-3.8,32.9-5.7c12.3-2.2,25.1-2,37.2-4.8c17.7-4.1,35-9.8,52.4-15.3
	c17.8-5.6,35.4-12,53.2-17.7c34.5-11.1,68.9-22.4,103.7-32.6c12.6-3.7,26.1-4.6,39.3-6.6c26-4,52.2-4.8,78.4-6.5
	c26.4-1.7,52.5,1.1,78.7,0.5c4.5-0.1,9.1,1.1,13.6,1.5c4.5,0.4,9.8,2.1,13.6,0.6c16.7-6.9,32.8,0.2,49,1.6
	c11.5,1.1,22.9,4.2,34.4,6.2c16.8,2.9,33.7,4.4,49.9,10.7c8.4,3.3,17.7,4.1,27.2,6.1c1.6,4.1-0.2,7.4-4.4,8.1
	c-6.9,1-14.1,2.1-20.9,1c-34.1-5.3-68.1-11.8-102.3-16.9c-20.1-3-40.6-3.3-60.7-6.4c-29.5-4.6-59.1-2.7-88.6-3
	c-10-0.1-20,0.6-30,1.7c-39.4,4.5-78.5,10-114.9,27.8c-11.5,5.7-24.3,8.7-36.4,13.3c-23.3,9-46.3,18.7-69.7,27.3
	c-17.6,6.4-35.6,11.5-54.4,13.6c-6.1,0.7-11.9,3.6-18,4.7C54,435.2,44.2,436.4,34.4,437.8z"/>
<path fill-rule="evenodd" clip-rule="evenodd" fill="#FFFFFF" d="M648.2,140.5c5.9,1.6,8.9,2.5,11.8,3.3
	c2.3,12.3,2.5,24.9,14.6,32.5c7.4-3.7,12.1-9,12.4-17.4c0.5-14.5,6.8-26,18.5-35.9c1.1,2.3,2.7,4.3,2.8,6.3c0.7,12,2,24.1-2.6,35.8
	c-3.8,9.4-16.2,18.6-26.1,17.8c-8-0.6-14.1-6-17.8-12.2C656.5,162.2,653.3,152.3,648.2,140.5z"/>
<path fill-rule="evenodd" clip-rule="evenodd" fill="#FFFFFF" d="M719.5,138.5c2.2,4.9,3.7,9.7,6.4,13.6c1.9,2.7,5.8,6.4,8.1,6
	c3.9-0.8,8.1-3.9,10.5-7.1c2-2.7,2.2-7.1,2.5-10.8c1.1-13.2,5.7-25.1,12.3-39.2c4.3,15.2,5.9,28.2,3.1,41.1
	c-2,9.3-8.6,16.2-16.8,20.8c-12.1,6.8-26-1.8-26.2-15.8C719.5,144.5,719.5,141.7,719.5,138.5z"/>
<path fill-rule="evenodd" clip-rule="evenodd" fill="#FFFFFF" d="M673.7,146.3c5.4,3.9,5.4,3.9,2.8,14.5
	C671.2,155.1,671.2,155.1,673.7,146.3z"/>
<path fill-rule="evenodd" clip-rule="evenodd" fill="#FFFFFF" d="M737.8,134.9c-0.2,2.2-0.5,4.3-1,9.1c-2.2-3.4-3.7-4.7-3.9-6.1
	c-0.1-1.1,1.4-2.4,2.3-3.7C736,134.4,736.9,134.7,737.8,134.9z"/>
</svg>
