<?xml version="1.0" encoding="utf-8"?>
<!-- Generator: Adobe Illustrator 16.0.0, SVG Export Plug-In . SVG Version: 6.00 Build 0)  -->
<!DOCTYPE svg PUBLIC "-//W3C//DTD SVG 1.1//EN" "http://www.w3.org/Graphics/SVG/1.1/DTD/svg11.dtd">
<svg version="1.1" id="Layer_1" xmlns="http://www.w3.org/2000/svg" xmlns:xlink="http://www.w3.org/1999/xlink" x="0px" y="0px"
	 width="1000px" height="356.8px" viewBox="0 0 1000 356.8" enable-background="new 0 0 1000 356.8" xml:space="preserve">
<path fill-rule="evenodd" clip-rule="evenodd" d="M959.1,66.3c9.1,2.3,15.4,6.2,15.9,16c-4.5,1.3-8.8,2.6-13.1,3.9
	c-0.6,2.6-1.2,5-1.8,7.4c-1.2,0.4-2.2,1.2-3,1c-3.4-0.9-6.9-1.6-10-3.1c-5.7-2.9-10.8-7.5-16.7-9.2c-4-1.2-9.6,0.5-13.6,2.5
	c-15.5,8.1-30.6,16.8-43.6,28.8c-1.7,1.6-4.1,4.1-3.9,6c0.8,9.6,2.3,19.1,3.7,29.1c14.8,0,28.4,0.9,41.9-0.3
	c8.5-0.8,16.7,0.1,25,0.9c7.2,0.7,13.5,0.8,18.8-6.1c3.6-4.6,9.4-8.1,15-10.2c3.1-1.2,8,1,11.6,2.6c3.4,1.5,3.5,5.2,2.6,8.5
	c-0.4,1.5-1,3-1.7,5.1c2.8,2.2,5.4,4.6,8.3,6.4c3,1.8,6.2,3.8,4.8,7.3c-1,2.5-4.2,4.4-6.7,6.1c-1.5,1-3.7,0.9-5.6,1.3
	c-0.5,1.8-0.7,3.4-1.4,4.8c-4.3,9.4-14.6,10.5-20.9,2.2c-1.6-2-2.5-4.5-3.8-6.8c-2.7-4.7-6.8-6.5-12.1-8.3c-9.6-3.2-18.1-0.3-27,1
	c-25.3,3.9-50.6,7.3-75.8,11.6c-19.4,3.3-38.8,6.7-57.4,13.8c-16.8,6.5-34.2,11.6-51.3,17.5c-33.6,11.6-67,23.6-100.7,34.7
	c-13.5,4.4-27.6,6.8-41.4,10.3c-6.9,1.7-13.6,4.3-20.5,5.8c-10.4,2.3-20.8,4.4-31.3,6.1c-24.5,3.9-48.3-0.9-71.9-6.6
	c-9.4-2.3-18.5-5.7-27.7-8.6c-1.8-0.6-3.8-0.9-5.5-1.9c-17.9-10.4-35.9-20.7-53.5-31.4c-8.8-5.4-11-5.9-18.6,1.1
	c-11.4,10.4-18.7,23.9-26.4,37c-8,13.7-16.5,27-24.5,40.8c-4.2,7.2-7.6,14.9-11.9,23.7c3.1,0,4.8-0.3,6.3,0.1
	c5.4,1.4,8.1,7.3,4.4,12.3c-4.2,5.6-6.8,11-6.9,18.1c-0.1,3.2-2.7,6.3-4,9.2c-10-1.5-10.1-1.5-19.6-11.3c-1.8,1.7-3.6,3.6-5.5,5.2
	c-3.2,2.7-6.6,4-10.7,1.6c-4.1-2.4-5.7-6.1-5.3-10.7c0.5-6.2,5.8-13.1,12.2-13.3c13.1-0.6,19.3-8.2,24-19.1
	c6.9-16.1,13.7-32.1,16.9-49.5c3.1-16.9,7-33.6,6.4-51c0-1.2-0.1-2.3-0.3-5.4c-6.8,9.2-12.4,17-18.2,24.6
	c-6.7,8.8-13.6,17.3-20.3,26.1c-3.6,4.6-7.7,9-10.2,14.2c-4.5,9.4-11.6,16.8-17.3,25.3c-5,7.6-4.4,8.9,2,15.6
	c2.4,2.5,4.7,5.4,6.3,8.5c3.1,6,1.4,10.4-5.4,11.4c-7.5,1.1-14.2,3.5-20.5,7.5c-3.6,2.2-7.4,0.5-9.1-2.9c-3.3-6.6-9.2-9.3-15.2-11.9
	c-8.1-3.5-9.7-13.9-5.2-18.7c2-2.1,5.1-3.9,8-4.5c7.2-1.4,14.5-1.8,21.7-3.3c2.2-0.4,4.8-2.3,6-4.3c9.8-15.2,19.4-30.6,28.9-46.1
	c4.2-6.9,8-14.1,12-21.1c16.8-29.2,23.8-60.6,20.8-94.1c0-0.5-0.7-1-1.4-2c-1,0.3-2.4,0.4-3.2,1.1c-8.7,8.2-17.2,16.6-26,24.7
	c-13.7,12.8-27.9,25.2-43.9,35c-9.6,5.9-19.4,12.4-30,15.6c-18.4,5.7-36.3,14.2-56.2,13.7c-9,4.3-17.3,1-25.9-2.1
	c-5.7-2.1-12.2-1.9-17.9-3.9c-29-10-50.1-29.1-63.8-56.4c-10.4-20.8-20.5-41.8-30.2-63c-2.6-5.7-3.4-12.3-4.8-18.6
	c-0.5-2.2,0.6-4.9-0.3-6.7C-1.8,59.3,2.8,52.9,5,46.1c1.9-5.7,4.5-6.9,10.5-5.7c8.1,1.5,15.3,3.7,19.9,11.8
	c3.3,5.8,8.9,10.2,12.8,15.7c5.4,7.7,9.6,15.9,12.3,25.2c4.6,16.5,11.2,32.4,20.6,46.9c9.5,14.7,22.2,26.8,37.6,34.5
	c23,11.5,47.5,12.7,71.6,2.6c20.1-8.4,37.6-20.8,53.9-35.4c21.8-19.4,38.1-43,55.1-66.3c5.5-7.5,12.3-14.2,19-20.8
	c3.1-3,7.4-5,11.5-7c6.9-3.5,13.9-6.9,21.1-9.8c18.2-7.4,35.8-2.9,52.7,4.4c14.9,6.4,28.9,14.4,41,25.7
	c12.8,11.9,26.5,22.9,38.9,35.2c9.2,9.2,20.8,14.1,31.5,20.8c1.1,0.7,2.6,0.7,3.5,1.6c18,16.9,41.9,21.1,63.7,29.8
	c14.7,5.8,30.1,4.5,45.2,4c19.7-0.6,39.4-2.5,59-4.5c15.3-1.6,28.2-8.1,35-22.7c2.8-6,4.9-12.8,5.6-19.4c2.7-24.9,1.8-49.8-1.7-74.6
	c-1.1-7.7-1.8-15.4-2.6-23.1c-0.5-4.7,3.3-7.9,6.2-5c9.1,8.7,21.1,8.1,31.8,10.3c13.2,2.7,26.6,7,40.3,4c9.8-2.1,19.8-4.2,28.8-8.1
	c6.2-2.7,10.9-8.7,16.4-13.1c1.4-1.1,3.1-2.3,4.9-2.6c5.2-0.9,7.6,1.4,6.3,6.4c-3.7,14.6-4.6,29.4-3.4,44.3
	c0.8,9.3,2.6,18.6,4.6,27.7c1.5,6.9,4.4,8.5,11.3,6.6c14.3-3.8,28.5-7.9,42.7-11.9c0.9-0.3,1.9-0.7,2.8-0.6
	c11.3,1.8,16.6-5.6,20.8-13.9c2.9-5.7,6.9-9.3,13.1-10.5c1.9-0.4,3.9-0.4,5.8-0.1c7.1,1.3,9.3,4.9,7,11.8
	C961.2,61.8,960.3,63.5,959.1,66.3z"/>
<path fill-rule="evenodd" clip-rule="evenodd" fill="#FFFFFF" d="M748.3,150c1.9-14.7-1.1-27.7,2.5-40.9c3.3-12.2,15.4-19,25.5-19.7
	c15.6-1.1,23.7,8.7,32,19.8c-4.5,2.1-8.6,3.8-12.5,5.8c-4.9,2.5-6.6,6.7-5.8,12.1c1.2,7.7,2.7,15.3,11,21.9
	C782.4,151.1,765.9,151.8,748.3,150z"/>
<path fill-rule="evenodd" clip-rule="evenodd" fill="#FFFFFF" d="M856.6,107.2c-17.1,1-23.1,6.5-22.3,20.1
	c0.8,12.5,7.1,16.1,26.9,15.2c1.5,3.9,0.4,6.3-4,6.3c-10,0.1-19.9,0-29.8,0c-0.4-0.9-1-1.5-0.8-1.9c5.1-15-2.9-27.1-9-39.4
	c-2.6-5.2-5.1-9.6-0.8-15.1c4.3-5.5,10-8,17.1-6.3c9.2,2.2,16.6,7.2,21.3,15.6C856.2,103.3,856.2,105.3,856.6,107.2z"/>
<path fill-rule="evenodd" clip-rule="evenodd" fill="#FFFFFF" d="M816.8,125.3c1.4,6,2.5,10.4,3.5,14.7c-5.4,2.1-9,0.4-10.3-3.4
	C808.5,132.2,811.7,129,816.8,125.3z"/>
<path fill-rule="evenodd" clip-rule="evenodd" fill="#FFFFFF" d="M851.3,119.9c4.5,2,7,3.1,10,4.4c-1.4,4.7-5.2,6-9.2,6.6
	c-1.1,0.2-3.8-1.7-3.7-2.2C849,125.8,850.2,123.1,851.3,119.9z"/>
</svg>
