<?xml version="1.0" encoding="utf-8"?>
<!DOCTYPE svg PUBLIC "-//W3C//DTD SVG 1.1//EN" "http://www.w3.org/Graphics/SVG/1.1/DTD/svg11.dtd">
<svg artist="zl2017" version="1.1" id="zlIcon-cat-sleep" xmlns="http://www.w3.org/2000/svg" xmlns:xlink="http://www.w3.org/1999/xlink" x="0px" y="0px"
	 width="1000px" height="706.4px" viewBox="0 0 1000 706.4" enable-background="new 0 0 1000 706.4" xml:space="preserve">
<path fill-rule="evenodd" clip-rule="evenodd" fill="#FFFFFF" d="M275.5,469.9c-18.6,1.1-37.2,3-55.7,2.8c-7.7,0-15.7-3.5-23-6.7
	c-16.6-7.4-33.3-14.5-49-23.6c-32.4-18.8-53.3-45.7-55.2-84.8c-0.6-12.8-2.4-25.5-3.9-41.6c-13.9,3.1-25.6,4.9-36.8,8.4
	c-29.8,9.4-33.8,20.3-19.3,50.4c7.6-8.2,15.3-16.3,25.5-27.3c2.4,22,2.8,22.4-8.3,33.6c-8.2,8.2-15.6,16.4-13,28.8
	c3.5,16.1,7.9,32.1,11.9,48c21-6.7,15.1-38.3,42.7-36.8c-3.9,7.2-6.1,13.1-9.7,17.7c-28.8,36.6-41.1,75-15.8,118.9
	c2.8,4.9,2.7,11.7,3.1,17.7c2.2,29.7,15.6,52.9,37,73.5c10.6,10.2,20.5,15.3,34.4,14.1c30-2.6,60.1-7.4,90.1-6.7
	c23.1,0.5,38.4-6.7,48.9-26.4c0.7-1.2,3.6-1.3,5.7-2c0.4,19.3,14.6,16.4,25.9,14.7c29.6-4.5,58.9-10.4,87.1-15.5
	c8.7-32.1,17.6-40.9,39.6-41.1c-2,17.6-30.6,17.1-26.7,40.3c13.5-3,26-7.7,38.8-8.4c31.9-1.9,57.6-14.7,78.2-38.7
	c0.8-1,3.8-0.1,5.8-0.1c1.1,6.5,2.3,13.1,3.7,21.3c22.4-2.3,43.6-2.8,63.9-7.2c8.4-1.8,17.5-10.3,22.3-18.3
	c35.8-59.4,70.4-119.7,105.7-179.4c12.1-20.5,25-40.5,37.5-60.7l-0.6-0.5c-5.2,16-8,33.3-15.9,47.8
	c-31.7,58.5-65.1,116.1-97.7,174.1c-3.7,6.5-6.1,13.7-9.4,21c38.9,8.8,64.5-4.9,80-38.4c16.1-34.8,33.1-69,50.2-103.3
	c27.5-54.9,55.6-109.4,82.7-164.4c4.5-9.1,8.1-16,23.8-11.8c-2.6,10.3-3.5,21.3-8.1,30.4c-13.4,27-26,54.9-43.1,79.5
	c-39.4,56.6-61.8,121.7-94.6,181.4c-2.6,4.7-2.9,10.7-4.3,16.2c36.9,6.2,57.3-9.5,72.5-40.6c22.9-47.1,49-92.8,74.8-138.4
	c8-14.1,19.5-26.1,29.3-39.1c1.9,1.1,3.8,2.2,5.7,3.4c-1.8,5.2-2.8,10.8-5.5,15.5c-6,10.2-13.3,19.5-19.3,29.7
	c-12.3,20.5-24.2,41.3-36,62c-15,26.2-30.1,52.3-44.3,78.9c-2.8,5.2-1.4,12.6-2,20.1c7.6,0.8,12.7,2.2,17.4,1.5
	c35.7-5.2,71.5-10.1,107-16.7c19.2-3.5,33.5-14.2,33.6-36.6c0-24.9,3.3-50.4-0.7-74.7c-5.4-32.6-17.4-64.1-24.9-96.4
	c-9.6-41.2-13.4-84.2-27.1-123.8c-22.1-63.4-24.5-80.5-98.8-76.2c-2,0.1-3.9,0.9-7.5,1.9c-18.5,30.6-37.5,62.3-56.6,93.9
	c-2.3-1.3-4.5-2.5-6.8-3.8c13.6-28.2,27.2-56.3,42.5-88.1c-22.8,2.1-42.4,3.8-62,5.8c-19.1,1.9-40-3-57.7,12.5
	c7.7,13.2,14.7,24.2,20.5,35.7c5.4,10.7,13,21.9,13.5,33.1c1.4,32.1,5.9,66-2.1,96.2c-21.9,83.6-72.9,149.1-141.4,201.2
	c-2.4,1.8-5.1,3.3-7.8,4.7c-56.7,29-115.3,53.7-179.3,58.7c-45.7,3.5-90.7-5.7-130.6-30.2c-30.5-18.7-28.5-49.9,3.4-66
	c8.9-4.5,19.1-6.5,28.1-10.9C271.3,478.7,273,473.4,275.5,469.9c40.2,15.1,80,32,125.7,23.2c-7-9.5-15.6-15.3-24-21.3
	c-15.8-11.2-30.4-19.9-51.9-9.9C310.6,468.7,292.2,467.5,275.5,469.9z"/>
<path fill-rule="evenodd" clip-rule="evenodd" fill="#FFFFFF" d="M276.5,538.2c4.5,3,7.4,6.1,10.9,7c83.1,22,161.2-0.2,233.9-35.9
	c66.1-32.4,112.3-88.4,138.4-158.4c7.6-20.4,13.4-42,16-63.5c5.1-42.1-11.5-78.3-41.2-106.3c-41-38.7-83.4-76.3-128.1-110.6
	c-51-39.3-105.9-51.3-168.3-19.7C279.9,80.3,255.8,137.6,253,199c-0.1,1.2,2.9,2.5,6.7,5.6c31.8-12.2,64.1-24.3,78.3-61.9
	c6.4-17,15.1-33.1,23.5-49.2c3-5.7,8-10.3,12.9-16.5c14.6,19.5,26.6,37.7,40.8,54.1c19.8,23,32.5,49.7,35.5,78.7
	c3.9,39,4.4,78.5,3,117.6c-0.8,22.3-12.5,42-29.7,57.7c-15.5,14.1-30.3,29.1-46.6,44.8c19.2,19.1,41.4,33.9,66.1,46.4
	c-0.7-10.3-4.4-18.3-7.2-26.5c-3.9-11.4-7.9-22.9-10.2-34.6c-0.7-3.5,3.2-10.1,6.6-11.5c2.8-1.1,9.6,2.3,11.6,5.6
	c6.8,11,11.4,23.4,18.5,34.2c2.6,3.9,10.6,7.1,14.8,6c4.2-1.1,9.2-8.1,9.4-12.7c0.4-7.8-4.3-15.8-4-23.6c0.5-14.8-8.7-30.8,5.8-50.4
	c5.6,17.5,9.6,30,13.8,43c29.1-22.9,36.2-44,26-73.5c-2.3-6.7-4.4-13.4-6.4-20.2c-3.2-11.1-12-23.7,5.6-30.4
	c11.5-4.4,20.6,3,27.6,21.3c2.1,5.6,4.4,11.7,4.4,17.5c-0.2,25.2-0.3,50.4-13.2,73.4c-7.4,13.2-15.1,26.4-20.8,40.3
	c-19.9,48.6-63.1,69-106.8,87.8c-27,11.7-54.5,6.2-82.5-2.3C315.3,513.3,292.9,516.4,276.5,538.2z"/>
<path fill-rule="evenodd" clip-rule="evenodd" fill="#FFFFFF" d="M371.4,135.5c-20,48.9-52.5,84-97.1,98.8
	c-45,14.9-91.4,5.4-132.4-33c-1.6,12.5-2.1,18.9-3.2,25.1c-1.3,7.6-1.1,16.5-5.1,22.5c-33.3,50.6-15.2,98.5,7.3,145.9
	c3.6,7.6,11.7,14,19.2,18.7c46.5,29,96.9,32.2,147.9,16.8c20.6-6.3,38.7-20.5,58.4-30.2c61.2-30.3,87.3-87.4,64.7-153.6
	c-4.5-13.3-11.4-27-11.2-40.4C420.6,172.5,400,155.5,371.4,135.5z"/>
<path fill-rule="evenodd" clip-rule="evenodd" d="M193.3,209.9c5.7-13.3,12-21.2,12-29.1c0.1-43.1,24.8-73.5,51.4-102.8
	c28.1-31,62.2-54.3,99.8-72.2c8.7-4.1,19.5-5.9,29.2-5.8c48.3,0.4,94.1,12,133.8,39.6c27.2,18.8,54.3,39.4,76.1,63.9
	c19,21.3,39.2,21.4,62.6,17.9c46.7-7,93.3-12.6,140.8-7.8c16.5,1.7,34.1-1.9,50.5-6.1c14.8-3.8,27-0.2,36.1,9.2
	c14.7,15.1,30.7,30.8,39.5,49.4c11.5,24.1,17.3,51.1,24.2,77.2c14.6,55.5,27.9,111.3,42.7,166.8c11,41.2,9.7,83.1-4.3,121.9
	c-9.7,26.9-35.6,41.4-66.6,44.8c-45.8,5.2-91.3,12.5-136.8,19.9c-54.5,8.9-108.8,19.6-163.4,28c-51.6,7.9-103.8,12.2-155.3,20.7
	c-39.7,6.6-78.4,18.9-118,26.2c-44.5,8.2-89.4,13.5-134.1,20.3c-19.9,3.1-40,5.6-59.4,10.5c-42.4,10.6-76.8,2.5-94.9-49.2
	C42.1,603.7,26.8,554,19.9,501.8c-3.3-24.9-11.4-49.2-14.2-74.1c-3.5-31-4.5-62.3-5.1-93.5c-0.3-18.9,9.1-31.1,27-35.2
	c13.4-3.1,28-5.1,41.4-3.2c15.1,2.1,24-3,28.4-15.9c8.8-25.6,16.4-51.6,24.4-77.5c0.3-0.9-0.2-2.3,0.3-3c7.7-11.1,13.3-27.6,23.9-32
	c14.6-6.1,24.5,9.5,32.7,21.3C182,193.5,185.3,198.3,193.3,209.9z M275.5,469.9c-18.6,1.1-37.2,3-55.7,2.8c-7.7,0-15.7-3.5-23-6.7
	c-16.6-7.4-33.3-14.5-49-23.6c-32.4-18.8-53.3-45.7-55.2-84.8c-0.6-12.8-2.4-25.5-3.9-41.6c-13.9,3.1-25.6,4.9-36.8,8.4
	c-29.8,9.4-33.8,20.3-19.3,50.4c7.6-8.2,15.3-16.3,25.5-27.3c2.4,22,2.8,22.4-8.3,33.6c-8.2,8.2-15.6,16.4-13,28.8
	c3.5,16.1,7.9,32.1,11.9,48c21-6.7,15.1-38.3,42.7-36.8c-3.9,7.2-6.1,13.1-9.7,17.7c-28.8,36.6-41.1,75-15.8,118.9
	c2.8,4.9,2.7,11.7,3.1,17.7c2.2,29.7,15.6,52.9,37,73.5c10.6,10.2,20.5,15.3,34.4,14.1c30-2.6,60.1-7.4,90.1-6.7
	c23.1,0.5,38.4-6.7,48.9-26.4c0.7-1.2,3.6-1.3,5.7-2c0.4,19.3,14.6,16.4,25.9,14.7c29.6-4.5,58.9-10.4,87.1-15.5
	c8.7-32.1,17.6-40.9,39.6-41.1c-2,17.6-30.6,17.1-26.7,40.3c13.5-3,26-7.7,38.8-8.4c31.9-1.9,57.6-14.7,78.2-38.7
	c0.8-1,3.8-0.1,5.8-0.1c1.1,6.5,2.3,13.1,3.7,21.3c22.4-2.3,43.6-2.8,63.9-7.2c8.4-1.8,17.5-10.3,22.3-18.3
	c35.8-59.4,70.4-119.7,105.7-179.4c12.1-20.5,25-40.5,37.5-60.7l-0.6-0.5c-5.2,16-8,33.3-15.9,47.8
	c-31.7,58.5-65.1,116.1-97.7,174.1c-3.7,6.5-6.1,13.7-9.4,21c38.9,8.8,64.5-4.9,80-38.4c16.1-34.8,33.1-69,50.2-103.3
	c27.5-54.9,55.6-109.4,82.7-164.4c4.5-9.1,8.1-16,23.8-11.8c-2.6,10.3-3.5,21.3-8.1,30.4c-13.4,27-26,54.9-43.1,79.5
	c-39.4,56.6-61.8,121.7-94.6,181.4c-2.6,4.7-2.9,10.7-4.3,16.2c36.9,6.2,57.3-9.5,72.5-40.6c22.9-47.1,49-92.8,74.8-138.4
	c8-14.1,19.5-26.1,29.3-39.1c1.9,1.1,3.8,2.2,5.7,3.4c-1.8,5.2-2.8,10.8-5.5,15.5c-6,10.2-13.3,19.5-19.3,29.7
	c-12.3,20.5-24.2,41.3-36,62c-15,26.2-30.1,52.3-44.3,78.9c-2.8,5.2-1.4,12.6-2,20.1c7.6,0.8,12.7,2.2,17.4,1.5
	c35.7-5.2,71.5-10.1,107-16.7c19.2-3.5,33.5-14.2,33.6-36.6c0-24.9,3.3-50.4-0.7-74.7c-5.4-32.6-17.4-64.1-24.9-96.4
	c-9.6-41.2-13.4-84.2-27.1-123.8c-22.1-63.4-24.5-80.5-98.8-76.2c-2,0.1-3.9,0.9-7.5,1.9c-18.5,30.6-37.5,62.3-56.6,93.9
	c-2.3-1.3-4.5-2.5-6.8-3.8c13.6-28.2,27.2-56.3,42.5-88.1c-22.8,2.1-42.4,3.8-62,5.8c-19.1,1.9-40-3-57.7,12.5
	c7.7,13.2,14.7,24.2,20.5,35.7c5.4,10.7,13,21.9,13.5,33.1c1.4,32.1,5.9,66-2.1,96.2c-21.9,83.6-72.9,149.1-141.4,201.2
	c-2.4,1.8-5.1,3.3-7.8,4.7c-56.7,29-115.3,53.7-179.3,58.7c-45.7,3.5-90.7-5.7-130.6-30.2c-30.5-18.7-28.5-49.9,3.4-66
	c8.9-4.5,19.1-6.5,28.1-10.9C271.3,478.7,273,473.4,275.5,469.9c40.2,15.1,80,32,125.7,23.2c-7-9.5-15.6-15.3-24-21.3
	c-15.8-11.2-30.4-19.9-51.9-9.9C310.6,468.7,292.2,467.5,275.5,469.9z M276.5,538.2c4.5,3,7.4,6.1,10.9,7
	c83.1,22,161.2-0.2,233.9-35.9c66.1-32.4,112.3-88.4,138.4-158.4c7.6-20.4,13.4-42,16-63.5c5.1-42.1-11.5-78.3-41.2-106.3
	c-41-38.7-83.4-76.3-128.1-110.6c-51-39.3-105.9-51.3-168.3-19.7C279.9,80.3,255.8,137.6,253,199c-0.1,1.2,2.9,2.5,6.7,5.6
	c31.8-12.2,64.1-24.3,78.3-61.9c6.4-17,15.1-33.1,23.5-49.2c3-5.7,8-10.3,12.9-16.5c14.6,19.5,26.6,37.7,40.8,54.1
	c19.8,23,32.5,49.7,35.5,78.7c3.9,39,4.4,78.5,3,117.6c-0.8,22.3-12.5,42-29.7,57.7c-15.5,14.1-30.3,29.1-46.6,44.8
	c19.2,19.1,41.4,33.9,66.1,46.4c-0.7-10.3-4.4-18.3-7.2-26.5c-3.9-11.4-7.9-22.9-10.2-34.6c-0.7-3.5,3.2-10.1,6.6-11.5
	c2.8-1.1,9.6,2.3,11.6,5.6c6.8,11,11.4,23.4,18.5,34.2c2.6,3.9,10.6,7.1,14.8,6c4.2-1.1,9.2-8.1,9.4-12.7c0.4-7.8-4.3-15.8-4-23.6
	c0.5-14.8-8.7-30.8,5.8-50.4c5.6,17.5,9.6,30,13.8,43c29.1-22.9,36.2-44,26-73.5c-2.3-6.7-4.4-13.4-6.4-20.2
	c-3.2-11.1-12-23.7,5.6-30.4c11.5-4.4,20.6,3,27.6,21.3c2.1,5.6,4.4,11.7,4.4,17.5c-0.2,25.2-0.3,50.4-13.2,73.4
	c-7.4,13.2-15.1,26.4-20.8,40.3c-19.9,48.6-63.1,69-106.8,87.8c-27,11.7-54.5,6.2-82.5-2.3C315.3,513.3,292.9,516.4,276.5,538.2z
	 M371.4,135.5c-20,48.9-52.5,84-97.1,98.8c-45,14.9-91.4,5.4-132.4-33c-1.6,12.5-2.1,18.9-3.2,25.1c-1.3,7.6-1.1,16.5-5.1,22.5
	c-33.3,50.6-15.2,98.5,7.3,145.9c3.6,7.6,11.7,14,19.2,18.7c46.5,29,96.9,32.2,147.9,16.8c20.6-6.3,38.7-20.5,58.4-30.2
	c61.2-30.3,87.3-87.4,64.7-153.6c-4.5-13.3-11.4-27-11.2-40.4C420.6,172.5,400,155.5,371.4,135.5z"/>
<path fill-rule="evenodd" clip-rule="evenodd" d="M929.9,443.6c-20.4,32.2-40.7,64.4-64.4,101.8c-3.7-27.5,7.9-43.3,17.9-58.4
	c11.6-17.4,21.7-37.2,40.3-48.3C925.8,440.4,927.8,442,929.9,443.6z"/>
<path fill-rule="evenodd" clip-rule="evenodd" d="M109.9,625.2c10.7-43,37.9-71,62.2-100.8C172.9,540,132.7,603.6,109.9,625.2z"/>
<path fill-rule="evenodd" clip-rule="evenodd" d="M81.1,544.2c5.5-36.5,33.6-53.7,47.3-84.4c4.2,7.1,8.9,12.7,8,13.8
	C119,495.9,108.1,523.5,81.1,544.2z"/>
<path fill-rule="evenodd" clip-rule="evenodd" d="M235.6,577.7c-15.5,26.4-28.7,46.1-49.1,64.8C188.1,608.8,201.8,589.9,235.6,577.7
	z"/>
<path fill-rule="evenodd" clip-rule="evenodd" d="M784.6,304.3c9.6-29.9,14.9-62.1,43.7-82.1c-12.5,28.4-19.1,59.9-44.3,81.6
	L784.6,304.3z"/>
<path fill-rule="evenodd" clip-rule="evenodd" d="M784,303.8c0.4,14-5.5,24.2-17.9,30.7l0.6,0.5c-0.4-13.9,5.6-24.2,17.9-30.7
	L784,303.8z"/>
<path fill-rule="evenodd" clip-rule="evenodd" d="M255.8,267.4c3.5,4.1,12.3,10.1,11.7,14.8c-1,7.6-7,19-13.1,20.7
	c-24.1,6.5-49.1,10.1-73.9,13.8c-3.4,0.5-9.7-4-11-7.5c-1.3-3.5,0.5-10.6,3.4-12.8c8.8-6.6,18.2-13.6,28.4-16.9
	C217.5,274.3,234.6,271.9,255.8,267.4z"/>
<path fill-rule="evenodd" clip-rule="evenodd" d="M413.3,203.8c-3.5,13.5-3,23-7.1,25.9c-22.7,15.8-46.5,29.9-69.4,44.4
	c-11.3-9.8-10.2-18.9-3.6-25.6C353.6,227.5,378.2,213.5,413.3,203.8z"/>
<path fill-rule="evenodd" clip-rule="evenodd" d="M310.7,377.9c-13.2-0.1-24.9-11.9-24.9-25c0-12.8,16.6-28.7,30.1-28.9
	c9.9-0.1,23.5,13.9,23.2,23.9C338.7,362.9,324.3,378,310.7,377.9z"/>
</svg>
