<?xml version="1.0" encoding="utf-8"?>
<!DOCTYPE svg PUBLIC "-//W3C//DTD SVG 1.1//EN" "http://www.w3.org/Graphics/SVG/1.1/DTD/svg11.dtd">
<svg artist="zl2017" version="1.1" id="zlIcon-cat-fitness" xmlns="http://www.w3.org/2000/svg" xmlns:xlink="http://www.w3.org/1999/xlink" x="0px" y="0px"
	 width="1000px" height="1156.5px" viewBox="0 0 1000 1156.5" enable-background="new 0 0 1000 1156.5" xml:space="preserve">
<path fill-rule="evenodd" clip-rule="evenodd" d="M892.4,554c11.9,8.2,24.5,8.1,36.8,7.2c14.5-1,27.9,1.8,42,5
	c19.8,4.5,30.9,32.1,27.7,48.6c-4.5,22.9-16.7,40.3-37.6,51.2c-6.8,3.5-13.3,7.8-20.5,10.4c-25.5,9.1-48.5,3.9-69.1-13.2
	c-7.9-6.6-16-13-26.4-21.5c0,17,0.1,31,0,44.9c-0.1,6.5-0.9,13-0.8,19.5c0.2,13,0.7,26,1.4,39c0.5,8.7,2.2,17.3,2,25.9
	c-0.3,11.5-1.6,23-3,34.4c-0.6,4.8-1.2,10.7-4.1,13.9c-16.2,17.9-19.6,41.3-26.9,62.7c-15.4,44.9-36.6,87-58.5,128.6
	c-12.9,24.4-30.2,46.9-48,68.2c-17,20.3-38.9,35.8-63.5,46c-16,6.6-33.3,10.8-50.5,13.9c-32.3,5.8-64.8,10.1-97.3,15
	c-25.2-6.7-49.9,2.2-74.9,2.8c-38.5,0.9-74.4-9.3-110.9-18.3c-15.1-12.3-32.8-22.5-36.5-44.1c-0.4-2.1-0.4-4.4,0-6.5
	c5.5-30.1,9.4-60.8,17.2-90.3c10.6-40,16.6-80.7,20.7-121.5c5.7-56.2,10.9-112.7,6.3-169.2c-2.4-29.3-6.9-58.6-14.6-87.2
	c-5.7-21.1-17-37.7-34-51c-12.6-9.8-25.4-18.9-41.2-23.2c-10.5,9.9-17.8,21.4-22.5,34.4c-4.2,11.8-7.1,24.2-12,36
	c-6.8-13.7-1.5-26.2,3.3-38.5c4.9-12.6,11.1-24.8,16.9-37.6c-6-6.1-10.5-3.9-15.5,0.9c-16.2,15.6-26.8,34.5-33,56
	c-1.4,4.9-2.7,9.9-4.7,17.1c-8.3-17.5-7.4-19.8,28.5-83.7c-6.1-3.1-12-6.5-18.2-9.4c-22.1-10.3-36-26.4-37.4-51.7
	c-0.6-12-2.1-24.1-1.6-36.1c1.2-30.6-2.5-59.6-16.4-87.7c-8.6-17.4-13.5-37.2-11.1-57.5c0.7-5.8,1.7-12,4.2-17.2
	c3.3-7.1,1.4-11.6-2.8-17.8c-12.1-17.6-23-36-34.2-54.1c-1.4-2.3-3-5.2-2.7-7.7c3.6-30-18.2-46.4-34.9-65.3
	c-6.4-7.3-15.6-12.1-22.7-18.8c-4-3.8-6.5-9.2-11-16c9.1-3.3,15.4-7.1,22.1-7.7c14.7-1.4,29.5-1.6,44.2-1.4
	c18,0.3,36.1-1.6,53.8,4.5c18,6.2,35.9,12,52.5,21.7c10.1,6,21.7,9.4,31,13.3c23.1-16.9,43.2-32.8,64.6-46.9
	c29.7-19.5,60.3-37.7,93.6-50.7c17.4-6.7,34.4-14.3,51.8-21C426-2.2,433.8,0,441.6,9.1c-1.4,1.5-2.5,3.6-4.3,4.5
	c-24.4,12-38.2,34.5-52.6,55.5c-7.5,10.9-10.1,25.2-14.2,38.2c-2.6,8.2-1.2,16.1,3.5,23.6c12.9,21,15.3,42.1,4.1,65.5
	c-7.5,15.8-6.5,34.2-6.3,51.7c0.1,12.6,0.9,25.2,1,37.8c0.1,32.3,0,64.6,0,99.3c8.7-2.4,14.9-3.9,21-5.8
	c38.8-12.1,78.1-21.9,118.3-28.1c8.9-1.4,18-3.3,27.4,0.8c-1.2,6.6-5.5,7.4-9.8,7.8c-40.1,3.5-78.9,13.4-117.5,24.3
	c-12.6,3.6-24.8,8.4-38.4,13.1c0.8,6.4,1.4,12.1,2.3,19c39-10.3,75.3-25.5,114.3-28.2c0.4,1.4,0.8,2.9,1.2,4.3
	c-8.5,2.6-17.1,5.2-25.6,7.8c-27.2,8.4-54.4,17.1-81.7,25.2c-8.5,2.5-10.4,6.2-9.4,15.4c4.6,39.3,20.5,74.9,35.4,110.8
	c1.2,2.9,4.2,5,6.1,7.7c16.5,23.2,34.4,45.7,48.9,70.1c9.6,16.2,13.7,35.6,21.3,53.2c8.7,20,18.8,39.4,27.7,59.4
	c4.2,9.5,7.4,19.5,10,29.5c4.1,15.9,7.5,32,10.7,48.1c2.4,11.8,4.1,23.7,5.9,35.6c2.6,17.3,4.9,34.7,7.5,52
	c3.3,22.1,6.7,44.2,10.4,68.5c28.2,2.2,55.3,4.1,82.2-10.8c43.7-24.2,69-62.9,90.3-105.6c2.4-4.9,4.7-9.9,7.1-14.8
	c5.2-10.2,9.3-19.9,8.7-32.5c-0.5-11.5,5.8-23.2,7.9-35c5.1-28.3,13.4-56.5,6.4-85.7c-0.7-3.1-0.5-6.6-0.2-9.8
	c2.9-37-9.5-70.1-25.8-102.2c-1.9-3.8-5.2-7-8-10.3c-9.2-10.6-15.3-22.2-16.8-36.7c-3.1-29.8-13.5-57.5-29.7-82.6
	c-14.2-22-24.1-45.4-28.1-72.4c-4.8,1-8.8,2.1-13,2.8c-14.7,2.5-28.4,1.1-40.2-9.3c-10.7-9.4-22.1-18-32.4-27.9
	c-23.1-22.3-31.2-66.5-17.3-97.9c18.5-41.5,50.1-67.8,88.8-88.8c24.9-13.6,47.7-12.7,71.7,0.2c4.7,2.6,10,4.4,15.3,5.6
	c35.1,7.4,60,31.9,57.5,76.1c-0.3,6-0.6,12-1,19.1c17.5,5.3,34.9,9.4,51.3,16c10.2,4.2,21.2,10.4,27.7,19
	c10.5,13.8,18.6,29.6,25.7,45.6c5.8,13.1,6.5,27.6,3.8,42.1c-1.7,8.7-1.6,16.7,4.5,24.8c5.5,7.3,8.3,16.6,12.2,25
	c1.2,2.5,3,5.2,2.9,7.7c-1,20.7,6.1,40.4,7.6,60.7c1.1,15.4-6.3,28.6-15,41C899.6,543.6,896.3,548.5,892.4,554z M713.8,270.5
	c-6.3-9.5-12.3-19.1-18.8-28.4c-4-5.7-10.3-6.5-16.2-4.1c-17.9,7.3-25.9,30-12.8,43.6c5.2,5.4,10.4,10.7,14.2,14.5
	c12.6-6.3,23.3-11.4,33.7-16.9c5.2-2.8,6-6.2-0.1-9.2L713.8,270.5z M329.2,1122.4c1.5,0.1,3.1,0.2,4.6,0.3c3-8.1,6.3-16.1,9.1-24.2
	c1.4-4.1,2.2-8.5,3-12.8c2.5-13.1,6.6-25.5,16.6-35.1c10.2-9.8,18-11.4,29.1-2.7c10.7,8.4,20.8,18.5,24.5,32.2
	c4.6,17.3,7.8,35.1,12,54.6c4.6,0.9,10.4,3.1,16.1,3c60.3-1.6,120.3-3.5,178.7-22.2c23.1-7.4,42-19.4,56.8-36.9
	c21.3-25.1,41.3-51.4,60.2-78.3c14.1-20.1,26.9-41.3,37.9-63.2c9.5-19,15.8-39.7,23.1-59.8c5-13.7,9.2-27.7,14.3-43.5
	c-20.3,0-38.1,0-55.3,0c-12.7,23-26.8,44.8-37,68.3c-8.6,20-22.1,35.1-37.3,49.3c-27.2,25.5-59.6,40.3-96.4,46
	c-10.7,1.7-21.5,3.8-31.8,7.1c-14.3,4.6-20.5,0.6-20.4-14.9c0-4.4,0.5-8.8,0.7-13.2c0.6-12,2.7-24.2,1.5-36
	c-1.9-18.5-5.3-36.9-9.2-55.1c-6.4-29.9-7.4-60.9-19.9-89.6C494.5,760,480.4,723.7,465,688c-6-14.1-13.7-27.4-21-41
	c-11.7-21.7-22.8-43.8-35.5-64.9c-18-29.7-33.9-60.1-39.8-94.8c-2.9-16.6-5.7-33.2-8.8-51.4c-5.4,1.8-10.1,2.9-14.4,4.8
	c-21.4,9.7-43.1,19-62.1,33.4c-4.6,3.5-9.5,5.6-14.4-2.7c26.1-25,60.8-33.7,92.7-49.6c-0.7-6.3-1.4-12.3-2.5-21.6
	c-24.7,12.8-46.7,23.7-68.2,35.7c-11.9,6.7-22.6,15.5-34.2,22.8c-2.6,1.6-6.8,0.4-10.3,0.6c0.5-3.4-0.2-8.2,1.8-9.9
	c6.5-5.7,13.6-11.3,21.3-15.2c26.8-13.7,53.9-27,81.1-39.9c7.5-3.5,11.2-7.6,10-16.3c-1.9-14.5-3-29.1-4.2-43.7
	c-3-35-6.3-69.9,1.2-104.8c1-4.9,0.1-10.1,0.1-18c-18.1,10.2-37.3,10.2-49.7,22.5c4.5,11.5,9.1,21.3,12.3,31.6
	c6.8,22.3,8.6,45.4,5.6,68.4c-2.1,15.7-7.5,30.4-20.4,41.8c-10.2,9.1-21.7,13.5-34.4,17.8c-16.4,5.5-30.1,1.9-43.8-6.1
	c-3.7-2.2-7.4-4.6-11.5-7.1c-4.7,3.4-9.1,6.5-13.4,9.9c-13.3,10.7-27.1,13.5-42.4,4c-4.2-2.6-9.5-3.5-13.6-4.9
	c0,18-0.5,34.4,0.2,50.8c0.5,12.6,2.1,24.5,17.9,29.3c7.1,2.2,13.6,9.5,18,16.1c5.1,7.6,11,9.2,19.2,9.4c12.6,0.4,25.3,0.9,37.6,3.2
	c13.3,2.5,26.2,7.1,39.3,10.8c23.2-13.9,43.7-19.1,56-12.4c-8.4,4-15.5,7.3-22.6,10.6c-4.2,19.8-4.2,19.8-31.1,23.2
	c-2.3,3.7-4.8,7.7-7.7,12.3c-13.2-6.2,0.8-16.7-5.6-23.5c-25.3-13.7-65.2-18.1-80.9-7.7c3,1.3,5.2,2.5,7.6,3.3
	c28.9,10.4,58.7,19.3,81.9,40.7c12.4,11.4,25.5,23.5,33.5,37.9c7.8,13.9,10.4,31,13.7,47.1c10.5,50.3,12.2,101.5,9.1,152.5
	c-3.9,65.1-10.8,129.9-22.2,194.2c-1.2,6.5-3,12.9-3.6,19.4c-0.3,3.5,0.1,8.3,2.3,10.6c15.2,16.1,17.5,35.9,17.7,56.6
	C327.1,1089.9,328.4,1106.1,329.2,1122.4z M719.1,468.7c7.4-12.4,14.4-23.3,20.4-34.7c1.4-2.7,0.3-7.2-0.6-10.6
	c-2.3-8.4-6.1-16.5-7.8-25c-4.7-24.3-0.8-46.5,18.5-64.1c10.1-9.2,21.3-12.8,34.7-7.4c16.8,6.8,34.9,12,37.7,34.2
	c0.5,3.6,1,7.2,1.2,8.7c18,2.2,34.5,4.2,51.5,6.3c6.9-10.3,4.6-21.6,0.3-33.3c-4.9-13.4-12.6-24-24.9-31.5
	c-12.6-7.7-24.7-16.2-37.3-23.8c-3.6-2.2-8.2-3-12.5-3.5c-9.7-1.2-19.5-2.4-29.3-2.4c-7.5,0.1-15,2-22.5,3.3
	c-3.7,0.7-7.3,2.7-11,2.7c-12.2,0-21.9,6.1-31.9,11.8c-27,15.4-41.7,67.7-31.7,97.1C683.2,423.6,697.6,446.9,719.1,468.7z
	 M768.4,231.4c-0.9-20.5-8.4-37.1-24.8-45.3c-11.4-5.6-24.9-8.6-37.6-9.4c-37.5-2.5-91.1,31.9-106.2,66.6c-0.4,1-0.9,2-1.1,3.1
	c-4.5,22-10.4,43.8-13.2,66.1c-4.3,34.9,32.6,63.1,64.1,50.6c5.9-2.3,8.5-5.6,9.8-11.6c2.4-10.6,6.3-20.9,8.8-31.5
	c0.9-3.8,0.8-8.8-1-12c-6.3-10.8-13.8-21-20.5-31.7c-1.9-3-3.6-6.7-3.7-10.2c-0.9-19.9,19.6-43.4,39.3-43.7
	c9.2-0.2,18.9,0.6,24.8,12.1c4.8,9.4,13.8,17,21.9,24.2c3.5,3.1,9.8,4.8,14.7,4.5C761.7,261.9,769.2,251.6,768.4,231.4z
	 M180.7,215.9c4.9-8.4,8.7-15,12.7-21.4c4.3-7,9.1-13.7,13.2-20.8c2.4-4.1,4.9-7.9,10.2-5.7c5.7,2.3,6,7.6,4.3,12.6
	c-1.2,3.5-4,6.5-5.6,10c-3.2,6.9-7.3,13.7-8.9,21c-4.8,21.6,1.3,26.9,23,21c1-0.3,1.7-1.3,3.8-2.9c-0.4-4-0.9-8.7-1.3-13.5
	c-0.7-7.6-1.5-15.2-1.9-22.8c-0.3-5.6,1.6-10.2,8.1-9.8c6.1,0.3,7.9,4.5,7.6,10.4c-0.2,4.3,0.6,8.7,1.6,12.9
	c0.6,2.5,2.3,4.8,4.2,8.3c3.3-13.6,5.5-25.5,9.4-36.7c1.9-5.4,5-14.8,13.5-10.3c7.4,3.9,3.5,11,0,17.1c-5.9,10.4-5.9,14.7-1.2,24.4
	c11.3-10.9,16.4-28,32.1-34.8c6.8,5.1,6.2,9.9,2.1,14.8c-4.2,5.1-8.8,9.8-12.5,15.3c-2.1,3.1-2.6,7.3-3.8,11
	c20-5.6,38.4-10.7,56.7-15.8c8.3-2.3,13.5-7.1,13.6-16.2c0.1-8.2,0-16.5,0.3-24.7c0.9-24.8,0.7-21.2-23.3-25.3
	c-6.4-1.1-13.1-0.5-19.7-0.1c-10.9,0.6-21.9,1.3-32.7,2.5c-16.9,1.8-34.1,2.4-50.5,6.3c-38.8,9.2-77.5,19.5-115.8,30.7
	c-11.7,3.4-22.1,11-34.6,17.5c12.4,18.5,23.6,35,34.9,51.8c10.4-6.1,12-13,8.2-22.9c-3.3-8.6-5.1-17.9-6.3-27.1
	c-0.4-2.7,3-7.7,5.6-8.4c2.3-0.7,6.5,2.6,8.7,5.1c2.4,2.8,3.4,6.8,5.4,10.1c2.3,3.9,4.9,7.6,8.7,13.3c8.1-16.1,14.9-29.5,21.7-43
	c9.7,1.3,12.9,5.2,9.3,13.5c-1.3,3-2.7,6-3.6,9.1C175.4,199.9,172.8,207.7,180.7,215.9z M825.2,582.7c14.4,38,39.7,62.7,78.2,74
	c21.1,6.2,40.2,6,58.8-7.8c11.8-8.7,19.5-18.9,22.1-33.1c3.4-18.8-4.8-31.7-23.1-37.8c-11.7-3.9-22.8-1.9-33.7,1.9
	c-13.7,4.7-25.7,3-36.8-6.2c-4.1-3.4-8.7-6-12.8-8.8c-13.3,11.6-26.7,18.8-44.1,13.9C831.5,578.2,828.3,581.2,825.2,582.7z
	 M895.2,456.5c1-0.6,2-1.3,3-1.9c-1.4-6.3-2.2-12.8-4.4-18.8c-9.9-25.9-34.2-34.3-52.6-27c-40.1,16.1-66.5,45.2-72.5,89.9
	c-0.6,4.3-2.3,8.4-3.6,12.6c-6.5,22.5-3.8,43.3,11.2,61.8c2.3,2.8,6,6.8,8.7,6.5c10.3-0.9,20.5-3.3,33.4-5.7
	c-4.8-6-7.1-9.6-10.1-12.5c-15.9-15.8-17.5-33.9-10.3-54.4c8.5-24.1,24.3-42.5,43.5-58.4c10-8.2,27.5-8.5,38.6-1.5
	C885.2,450.2,890.2,453.4,895.2,456.5z M306.1,309.8c3.5-19.5-8.2-36.9-18.3-54.2c-5.4-9.1-14.9-18.4-27-14.3
	c-8.8,3-18.6,9.2-23.2,16.9c-9.8,16.2-17,34.1-24,51.8c-2.4,6.2-3,14.4-1,20.7c3.9,12.8,9.5,24.3,21.7,33.1
	c8.7,6.3,18.1,6.8,27.1,10.3c10.2,3.9,19.4,1.2,26.4-7.5C300.5,350.8,308.3,333.2,306.1,309.8z M813.6,593.1
	c-12.7,5.8-28.6-2.8-40.7,7c6.3,45.2,12.5,89,18.7,133.7c11,0,22.7,0,34.7,0c5.1-30.9,6.3-61,4.1-91
	C829.2,625.7,828.5,607.3,813.6,593.1z M216.2,262c-4.2-5.5-8.2-10.6-12.1-15.9c-7.5-10.1-16.8-13.2-28.8-8.2
	c-5.5,2.3-11.4,4.2-17.3,5.1c-11.4,1.7-18,8.7-24,17.8c-15,22.5-12.5,46.7-3.7,69.1c6.4,16.2,19.4,30.1,30.6,44
	c3.1,3.8,10.6,6,16,5.7c11.1-0.6,20.9-5.2,26.6-14.4c-3.6-11-6.9-20.8-10.1-30.5c-23.4,5.2-35.3,3.7-42.5-9.8
	c-9.8-18.5-3.2-35.8,9.9-53.5c7.6,0,17.2-2.4,24.5,0.7c7.6,3.2,13.1,11.6,20.3,18.4C209.2,280.7,212.7,271.6,216.2,262z M384.6,31.2
	c-7.7,2.9-15.2,4.5-21.5,8.3c-28.6,17.3-57.2,34.6-85,53c-9.6,6.4-17.3,15.9-22.9,28.8c6.3,0,10.6,0.2,14.9,0
	c20.2-1,40.4-2.6,60.7-3.2c15.5-0.5,20-2.9,25.9-17.5C365.9,78,374.9,55.4,384.6,31.2z M96.7,163.3c26.9-8.1,54.4-16.4,82.7-25
	c-5.6-11.6-15.2-17.3-25.2-20.7c-18.6-6.4-37.6-11.8-56.8-16.6c-20.3-5.1-41-4.7-62.4-1.3C55.6,120.9,75.3,141.2,96.7,163.3z
	 M762.6,815.7c20.1,7.3,39.8,2.1,59.2,3.2c2.4,0.1,6.9-4.5,7.3-7.3c2.3-17.3,4.1-34.6,5.1-52c0.4-6-3.2-9.9-10.8-8.4
	c-5.2,1-10.7-0.2-16.1-0.1c-13.4,0.2-28.7,1.3-34.2,14.2C766.4,780.8,762.3,798.2,762.6,815.7z M821.3,530.3c0,1.1-0.1,2.2,0,3.3
	c1.3,12.8,2.8,26.6,16.9,31.2c13,4.3,21.9-5.3,31.6-12.9c16.4-12.9,23.8-30.9,31.6-49c4-9.4,2-22.2-3.9-27.8
	c-8.8-8.4-28.7-14.1-36.2-9.4C837.5,480.7,825.3,503,821.3,530.3z M773.7,435.7c-0.5,1.3-1,2.7-1.5,4c-4.9-0.8-9.9-1.7-15.9-2.7
	c-3.6,4.6-7.6,9.6-11.5,14.6c4.1,6.2,7.4,11.3,12.7,19.4c-9.4-2-14.8-3.2-19.9-4.3c-10.6,14.7,10,15.7,10.6,26.6
	c-3.6,0.2-6.6,0.7-9.5,0.4c-3-0.3-5.9-1.4-8.7-2.1c-5.9,18.5-2.8,22.7,17,25.4c5.1-16.2,8.7-33,15.8-48.1
	c7.4-15.6,18.2-29.6,27.9-44.9c-3.8-3.3-7.8-6.8-12.5-10.9c-4.3,4.8-7.7,8.8-11,12.4C769.8,429.5,771.8,432.6,773.7,435.7z
	 M799.1,380.9c-6.6-16.8-18.8-27.9-31.7-38.3c-31.3,18.9-32.1,44.1-2.2,63C776.3,397.5,787.6,389.3,799.1,380.9z M744.1,545.6
	c0-6.2,0-12.4,0-18.5c-5.9-1.3-10.6-2.4-15.4-3.3c-0.4-0.1-0.9,0.5-1.3,0.8C727.9,542.4,728.3,543,744.1,545.6z M790.3,406.1
	c3.9,4.5,6.5,7.7,9.8,11.5c5.1-4.1,9.6-7.6,15.1-12c-4.3-4.1-7.6-7.2-11.3-10.7C799.2,398.7,795.5,401.7,790.3,406.1z M176.3,294.4
	c-10.9,3.3-11.5,10.4-10.5,17.4c0.8,5.7,4.1,9.8,13,8C178,311.4,177.2,303.4,176.3,294.4z M584,216.7c6.3,9.7,11.2,8.2,16.2,1.5
	c5.1-6.8,4.6-7.9-7.1-15.1C590.1,207.5,587.2,211.9,584,216.7z M627.1,179.4c-21.3,10-23,13.2-12.2,22.9
	C618.5,194.7,630.9,192.9,627.1,179.4z M568.6,276.7c1.7-6,3.6-10.5,4.1-15.1c0.2-1.8-2.3-5.1-4.2-5.7c-1.9-0.6-5.4,0.5-6.8,2.2
	C556.1,264.2,557.8,269.7,568.6,276.7z M816.9,387.3c9.1,12.7,9.1,12.7,23.8,4.5C835.4,378.5,826.5,388,816.9,387.3z M734.9,556.5
	c6.6,6.9,11.4,11.9,16.2,16.9c1-0.7,1.9-1.5,2.9-2.2c-2.5-6.3-5-12.5-7.8-19.6C742.8,553.1,740.4,554.1,734.9,556.5z M579.1,246.5
	c2.1-3.1,4.3-6.4,7.1-10.6c-4.7-2.2-8.2-3.9-11.6-5.5C567.9,238.5,570.9,242.9,579.1,246.5z M677.9,163.4c0.2-0.8,0.5-1.6,0.7-2.3
	c-1.6-0.7-3.1-2-4.7-2c-2.1,0-4.2,1.1-6.3,1.7c0.2,0.9,0.3,1.7,0.5,2.6C671.3,163.4,674.6,163.4,677.9,163.4z M652.4,169.3
	c-0.8-1.1-1.6-2.3-2.5-3.4c-3,2.1-6,4.3-9,6.4c0.8,1.1,1.7,2.3,2.5,3.4C646.4,173.6,649.4,171.4,652.4,169.3z M561,298.8
	c0.8-0.1,1.6-0.2,2.5-0.3c-0.2-3.2-0.5-6.3-0.7-9.5c-1.1,0.1-2.2,0.2-3.2,0.4C560,292.5,560.5,295.6,561,298.8z"/>
<path fill-rule="evenodd" clip-rule="evenodd" fill="#FFFFFF" d="M329.2,1122.4c-0.8-16.3-2.1-32.6-2.2-48.8
	c-0.2-20.8-2.5-40.5-17.7-56.6c-2.1-2.3-2.6-7.1-2.3-10.6c0.6-6.5,2.5-12.9,3.6-19.4c11.4-64.3,18.3-129.2,22.2-194.2
	c3.1-51,1.3-102.1-9.1-152.5c-3.3-16-5.9-33.2-13.7-47.1c-8-14.4-21.1-26.4-33.5-37.9c-23.2-21.3-53-30.3-81.9-40.7
	c-2.4-0.8-4.6-2-7.6-3.3c15.7-10.4,55.6-6.1,80.9,7.7c6.5,6.8-7.6,17.3,5.6,23.5c2.9-4.6,5.4-8.6,7.7-12.3c27-3.4,27-3.4,31.1-23.2
	c7.1-3.3,14.2-6.7,22.6-10.6c-12.3-6.7-32.8-1.5-56,12.4c-13-3.7-25.9-8.3-39.3-10.8c-12.3-2.3-25.1-2.8-37.6-3.2
	c-8.2-0.2-14.2-1.8-19.2-9.4c-4.4-6.6-10.9-13.9-18-16.1c-15.8-4.8-17.4-16.7-17.9-29.3c-0.7-16.4-0.2-32.8-0.2-50.8
	c4.1,1.4,9.4,2.3,13.6,4.9c15.3,9.5,29.1,6.7,42.4-4c4.2-3.4,8.7-6.4,13.4-9.9c4.1,2.5,7.8,4.9,11.5,7.1
	c13.7,8.1,27.3,11.7,43.8,6.1c12.7-4.3,24.2-8.7,34.4-17.8c12.8-11.4,18.3-26.2,20.4-41.8c3-23,1.2-46.1-5.6-68.4
	c-3.1-10.3-7.8-20.1-12.3-31.6c12.4-12.2,31.6-12.3,49.7-22.5c0,7.9,0.9,13.1-0.1,18c-7.5,34.9-4.2,69.9-1.2,104.8
	c1.3,14.6,2.3,29.2,4.2,43.7c1.1,8.7-2.5,12.8-10,16.3c-27.2,12.9-54.3,26.2-81.1,39.9c-7.7,3.9-14.7,9.5-21.3,15.2
	c-2,1.7-1.3,6.5-1.8,9.9c3.5-0.1,7.8,1,10.3-0.6c11.6-7.2,22.3-16.1,34.2-22.8c21.4-12,43.5-22.9,68.2-35.7
	c1.1,9.3,1.7,15.4,2.5,21.6c-31.9,16-66.7,24.6-92.7,49.6c4.8,8.4,9.7,6.3,14.4,2.7c18.9-14.4,40.6-23.7,62.1-33.4
	c4.3-1.9,8.9-3,14.4-4.8c3.1,18.2,6,34.8,8.8,51.4c6,34.7,21.9,65.1,39.8,94.8c12.7,21.1,23.9,43.1,35.5,64.9
	c7.2,13.5,14.9,26.9,21,41c15.3,35.7,29.4,72,44.9,107.6c12.5,28.7,13.5,59.7,19.9,89.6c3.9,18.2,7.4,36.6,9.2,55.1
	c1.2,11.8-0.9,24-1.5,36c-0.2,4.4-0.7,8.8-0.7,13.2c-0.1,15.5,6.1,19.5,20.4,14.9c10.3-3.3,21.1-5.4,31.8-7.1
	c36.8-5.7,69.2-20.5,96.4-46c15.2-14.2,28.7-29.3,37.3-49.3c10.1-23.5,24.3-45.3,37-68.3c17.2,0,35,0,55.3,0
	c-5.1,15.7-9.4,29.7-14.3,43.5c-7.3,20.1-13.6,40.8-23.1,59.8c-10.9,21.9-23.8,43.2-37.9,63.2c-18.9,26.9-38.9,53.2-60.2,78.3
	c-14.9,17.6-33.8,29.5-56.8,36.9c-58.4,18.7-118.5,20.6-178.7,22.2c-5.7,0.2-11.4-2.1-16.1-3c-4.2-19.5-7.3-37.2-12-54.6
	c-3.7-13.7-13.8-23.7-24.5-32.2c-11.1-8.7-18.9-7.1-29.1,2.7c-10,9.6-14.1,21.9-16.6,35.1c-0.8,4.3-1.6,8.7-3,12.8
	c-2.8,8.1-6,16.2-9.1,24.2C332.2,1122.6,330.7,1122.5,329.2,1122.4z"/>
<path fill-rule="evenodd" clip-rule="evenodd" fill="#FFFFFF" d="M719.1,468.7c-21.5-21.7-36-45.1-45.2-72.1
	c-10.1-29.5,4.7-81.8,31.7-97.1c10-5.7,19.7-11.7,31.9-11.8c3.7,0,7.3-2,11-2.7c7.5-1.3,15-3.3,22.5-3.3c9.8-0.1,19.6,1.2,29.3,2.4
	c4.3,0.5,8.9,1.4,12.5,3.5c12.6,7.6,24.7,16.1,37.3,23.8c12.3,7.5,20,18.1,24.9,31.5c4.3,11.8,6.6,23.1-0.3,33.3
	c-17-2.1-33.5-4.1-51.5-6.3c-0.2-1.5-0.7-5.1-1.2-8.7c-2.8-22.2-20.8-27.4-37.7-34.2c-13.4-5.4-24.6-1.9-34.7,7.4
	c-19.3,17.6-23.2,39.8-18.5,64.1c1.7,8.5,5.5,16.6,7.8,25c0.9,3.4,2,7.9,0.6,10.6C733.5,445.4,726.5,456.3,719.1,468.7z"/>
<path fill-rule="evenodd" clip-rule="evenodd" fill="#FFFFFF" d="M768.4,231.4c0.9,20.2-6.7,30.5-24.8,31.8
	c-4.8,0.3-11.1-1.3-14.7-4.5c-8.2-7.2-17.1-14.8-21.9-24.2c-5.9-11.5-15.6-12.3-24.8-12.1c-19.8,0.4-40.2,23.9-39.3,43.7
	c0.2,3.5,1.8,7.2,3.7,10.2c6.7,10.6,14.2,20.8,20.5,31.7c1.8,3.2,1.9,8.2,1,12c-2.5,10.6-6.4,20.9-8.8,31.5c-1.4,6-4,9.3-9.8,11.6
	c-31.5,12.5-68.4-15.7-64.1-50.6c2.7-22.2,8.7-44.1,13.2-66.1c0.2-1.1,0.6-2.1,1.1-3.1c15.2-34.7,68.8-69.1,106.2-66.6
	c12.8,0.8,26.3,3.8,37.6,9.4C760,194.3,767.5,210.9,768.4,231.4z M614.6,329c-10.4-26.4-10.1-50.1,1.9-73.4c1.2-2.4-0.7-6.4-1.1-9.6
	c-1.3,0-2.5-0.1-3.8-0.1c-11.9,20.3-17.2,42.1-12.4,66C600.6,318.8,600.9,327.4,614.6,329z M623.5,317.2
	c-1.1-15.8-2.1-29.9-3.3-47.2C609.2,286.7,610.9,306.3,623.5,317.2z"/>
<path fill-rule="evenodd" clip-rule="evenodd" fill="#FFFFFF" d="M180.7,215.9c-7.9-8.2-5.3-16-3-23.7c0.9-3.1,2.3-6.1,3.6-9.1
	c3.6-8.3,0.4-12.2-9.3-13.5c-6.8,13.4-13.6,26.9-21.7,43c-3.8-5.7-6.4-9.4-8.7-13.3c-1.9-3.3-2.9-7.3-5.4-10.1
	c-2.2-2.5-6.4-5.8-8.7-5.1c-2.6,0.8-5.9,5.7-5.6,8.4c1.2,9.2,3,18.5,6.3,27.1c3.8,9.9,2.3,16.8-8.2,22.9
	c-11.3-16.8-22.4-33.3-34.9-51.8c12.5-6.5,22.9-14.1,34.6-17.5c38.3-11.2,77-21.4,115.8-30.7c16.4-3.9,33.6-4.5,50.5-6.3
	c10.9-1.2,21.8-1.9,32.7-2.5c6.6-0.4,13.3-1,19.7,0.1c24,4.1,24.2,0.5,23.3,25.3c-0.3,8.2-0.2,16.5-0.3,24.7
	c-0.1,9.1-5.4,13.9-13.6,16.2c-18.3,5.1-36.7,10.2-56.7,15.8c1.2-3.7,1.7-7.9,3.8-11c3.6-5.4,8.3-10.2,12.5-15.3
	c4.1-5,4.7-9.7-2.1-14.8c-15.7,6.8-20.8,23.9-32.1,34.8c-4.6-9.7-4.7-14,1.2-24.4c3.5-6,7.3-13.1,0-17.1
	c-8.5-4.5-11.6,4.8-13.5,10.3c-3.9,11.3-6,23.2-9.4,36.7c-1.8-3.5-3.6-5.8-4.2-8.3c-1-4.2-1.8-8.6-1.6-12.9
	c0.3-5.9-1.5-10.1-7.6-10.4c-6.5-0.4-8.4,4.3-8.1,9.8c0.4,7.6,1.2,15.2,1.9,22.8c0.4,4.8,0.9,9.6,1.3,13.5c-2.1,1.6-2.8,2.6-3.8,2.9
	c-21.7,6-27.8,0.6-23-21c1.6-7.3,5.7-14.1,8.9-21c1.6-3.4,4.4-6.4,5.6-10c1.7-5,1.4-10.2-4.3-12.6c-5.2-2.1-7.8,1.7-10.2,5.7
	c-4.2,7.1-8.9,13.8-13.2,20.8C189.4,201,185.7,207.6,180.7,215.9z"/>
<path fill-rule="evenodd" clip-rule="evenodd" fill="#FFFFFF" d="M825.2,582.7c3.1-1.5,6.3-4.5,8.5-3.8c17.4,4.9,30.7-2.4,44.1-13.9
	c4.1,2.8,8.8,5.4,12.8,8.8c11.2,9.3,23.2,11,36.8,6.2c10.9-3.8,22-5.7,33.7-1.9c18.3,6,26.5,19,23.1,37.8
	c-2.6,14.2-10.3,24.4-22.1,33.1c-18.6,13.7-37.7,14-58.8,7.8C864.9,645.4,839.6,620.7,825.2,582.7z"/>
<path fill-rule="evenodd" clip-rule="evenodd" fill="#FFFFFF" d="M895.2,456.5c-5-3.1-10-6.2-15-9.4c-11.1-6.9-28.6-6.7-38.6,1.5
	c-19.2,15.8-35,34.3-43.5,58.4c-7.2,20.5-5.6,38.6,10.3,54.4c3,3,5.3,6.5,10.1,12.5c-12.9,2.4-23.1,4.8-33.4,5.7
	c-2.7,0.2-6.5-3.7-8.7-6.5c-15-18.5-17.7-39.3-11.2-61.8c1.2-4.2,3-8.3,3.6-12.6c6-44.6,32.4-73.8,72.5-89.9
	c18.4-7.4,42.7,1.1,52.6,27c2.3,6,3,12.5,4.4,18.8C897.1,455.2,896.2,455.9,895.2,456.5z M798.5,456.6c9.7-6.7,19.7-13.1,29.1-20.2
	c2-1.5,2-5.5,3-8.3c-2.9-0.5-6.9-2.6-8.5-1.4C812,434.7,801.6,442.6,798.5,456.6z M827.2,442.8c-8.6,3.4-17.2,7-16.8,21.3
	C818.8,457.5,828,455,827.2,442.8z"/>
<path fill-rule="evenodd" clip-rule="evenodd" fill="#FFFFFF" d="M306.1,309.8c2.2,23.4-5.6,41-18.4,56.9c-7,8.7-16.2,11.4-26.4,7.5
	c-8.9-3.4-18.4-3.9-27.1-10.3c-12.1-8.8-17.8-20.3-21.7-33.1c-1.9-6.3-1.4-14.6,1-20.7c7-17.7,14.2-35.6,24-51.8
	c4.6-7.6,14.4-13.9,23.2-16.9c12.1-4.2,21.6,5.1,27,14.3C298,272.9,309.6,290.3,306.1,309.8z M237.6,304.1
	c-1.4,15.9,6.2,25.5,18.3,33.3c6.1,4,12.2,3.5,16.6-0.7c12.5-11.9,22.5-25.4,19.1-44.5c-1.8-10.3-10.7-19.6-21.6-21.9
	c-11.6-2.4-18.4,0-24.5,11.2C241.6,288.4,240.1,296.5,237.6,304.1z"/>
<path fill-rule="evenodd" clip-rule="evenodd" fill="#FFFFFF" d="M813.6,593.1c14.9,14.3,15.6,32.6,16.9,49.6c2.2,30,1,60.2-4.1,91
	c-12,0-23.8,0-34.7,0c-6.2-44.7-12.4-88.5-18.7-133.7C785,590.3,800.9,598.8,813.6,593.1z"/>
<path fill-rule="evenodd" clip-rule="evenodd" fill="#FFFFFF" d="M216.2,262c-3.6,9.5-7,18.6-10.7,28.4
	c-7.2-6.8-12.6-15.2-20.3-18.4c-7.3-3-16.9-0.7-24.5-0.7c-13.1,17.7-19.7,35-9.9,53.5c7.2,13.5,19.1,15.1,42.5,9.8
	c3.2,9.7,6.4,19.5,10.1,30.5c-5.7,9.2-15.5,13.8-26.6,14.4c-5.3,0.3-12.9-1.9-16-5.7c-11.3-13.9-24.2-27.8-30.6-44
	c-8.9-22.4-11.4-46.6,3.7-69.1c6.1-9.1,12.6-16.1,24-17.8c5.9-0.9,11.8-2.8,17.3-5.1c12-5,21.3-1.9,28.8,8.2
	C208.1,251.4,212.1,256.6,216.2,262z"/>
<path fill-rule="evenodd" clip-rule="evenodd" fill="#FFFFFF" d="M384.6,31.2c-9.7,24.2-18.7,46.8-27.9,69.4
	c-5.9,14.5-10.5,17-25.9,17.5c-20.2,0.7-40.4,2.2-60.7,3.2c-4.3,0.2-8.6,0-14.9,0c5.6-13,13.3-22.5,22.9-28.8
	c27.8-18.4,56.4-35.8,85-53C369.4,35.7,377,34.1,384.6,31.2z"/>
<path fill-rule="evenodd" clip-rule="evenodd" fill="#FFFFFF" d="M96.7,163.3C75.3,141.2,55.6,120.9,35,99.6
	c21.5-3.4,42.1-3.8,62.4,1.3c19.1,4.8,38.1,10.2,56.8,16.6c10,3.5,19.6,9.2,25.2,20.7C151.1,146.9,123.6,155.2,96.7,163.3z"/>
<path fill-rule="evenodd" clip-rule="evenodd" fill="#FFFFFF" d="M762.6,815.7c-0.2-17.5,3.8-34.9,10.5-50.5
	c5.5-12.9,20.9-14,34.2-14.2c5.4-0.1,10.9,1.1,16.1,0.1c7.6-1.5,11.1,2.3,10.8,8.4c-1,17.4-2.8,34.8-5.1,52
	c-0.4,2.8-4.9,7.5-7.3,7.3C802.4,817.8,782.7,823,762.6,815.7z"/>
<path fill-rule="evenodd" clip-rule="evenodd" fill="#FFFFFF" d="M821.3,530.3c4.1-27.3,16.2-49.6,40.1-64.5
	c7.5-4.7,27.3,1,36.2,9.4c5.9,5.6,7.9,18.5,3.9,27.8c-7.8,18.1-15.2,36.1-31.6,49c-9.7,7.6-18.6,17.2-31.6,12.9
	c-14.1-4.7-15.6-18.5-16.9-31.2C821.2,532.5,821.3,531.4,821.3,530.3z M888.4,499.2c-0.1-14.8-12.1-22.7-24.2-14.3
	c-14.5,10-26,23.4-29.6,41.5c-2.2,11,5.2,18.1,16.1,16.4C870.9,539.8,888.6,519.3,888.4,499.2z"/>
<path fill-rule="evenodd" clip-rule="evenodd" fill="#FFFFFF" d="M773.7,435.7c-2-3.1-3.9-6.2-6.6-10.3c3.2-3.7,6.7-7.6,11-12.4
	c4.8,4.2,8.8,7.6,12.5,10.9c-9.7,15.3-20.5,29.3-27.9,44.9c-7.1,15.1-10.7,32-15.8,48.1c-19.8-2.6-22.9-6.8-17-25.4
	c2.8,0.7,5.7,1.8,8.7,2.1c2.9,0.3,5.9-0.2,9.5-0.4c-0.6-10.9-21.1-11.9-10.6-26.6c5.2,1.1,10.6,2.3,19.9,4.3
	c-5.3-8.1-8.6-13.2-12.7-19.4c4-5,7.9-10,11.5-14.6c6,1,10.9,1.9,15.9,2.7C772.7,438.3,773.2,437,773.7,435.7z"/>
<path fill-rule="evenodd" clip-rule="evenodd" fill="#FFFFFF" d="M713.8,270.1c6.1,3,5.3,6.5,0.1,9.2c-10.4,5.5-21,10.6-33.7,16.9
	c-3.8-3.9-9-9.2-14.2-14.5c-13.1-13.6-5.1-36.3,12.8-43.6c5.9-2.4,12.1-1.7,16.2,4.1c6.5,9.3,12.6,18.9,18.8,28.3
	c-8.5-8.8-16.9-17.7-25.7-26.1c-1.3-1.2-4.7-0.2-8.8-0.2c2.3,10,8.3,16.2,14.1,22.3C699.1,272.5,706.1,274.1,713.8,270.1z"/>
<path fill-rule="evenodd" clip-rule="evenodd" fill="#FFFFFF" d="M799.1,380.9c-11.4,8.4-22.8,16.6-33.9,24.7
	c-29.9-18.9-29.1-44.1,2.2-63C780.2,353,792.5,364.1,799.1,380.9z M786.5,384.3c-1.8-14.9-7.9-22.7-16.2-28.8
	c-1.8-1.3-5.6,0.1-8.4,0.2c0.6,2.8,0.5,6,1.9,8.2c2.6,4.1,5.7,7.9,9.3,11.2C776.2,378,780.2,380,786.5,384.3z"/>
<path fill-rule="evenodd" clip-rule="evenodd" fill="#FFFFFF" d="M744.1,545.6c-15.7-2.6-16.2-3.2-16.7-21c0.4-0.3,0.9-0.8,1.3-0.8
	c4.7,1,9.5,2,15.4,3.3C744.1,533.2,744.1,539.3,744.1,545.6z"/>
<path fill-rule="evenodd" clip-rule="evenodd" fill="#FFFFFF" d="M790.3,406.1c5.3-4.3,8.9-7.4,13.6-11.2c3.7,3.5,7,6.6,11.3,10.7
	c-5.5,4.4-10,7.9-15.1,12C796.8,413.8,794.1,410.6,790.3,406.1z"/>
<path fill-rule="evenodd" clip-rule="evenodd" fill="#FFFFFF" d="M176.3,294.4c0.9,9,1.7,17,2.5,25.4c-8.8,1.7-12.2-2.3-13-8
	C164.8,304.7,165.4,297.7,176.3,294.4z"/>
<path fill-rule="evenodd" clip-rule="evenodd" fill="#FFFFFF" d="M584,216.7c3.2-4.8,6.1-9.2,9.1-13.6c11.8,7.2,12.2,8.2,7.1,15.1
	C595.2,224.8,590.2,226.3,584,216.7z"/>
<path fill-rule="evenodd" clip-rule="evenodd" fill="#FFFFFF" d="M627.1,179.4c3.8,13.5-8.7,15.4-12.2,22.9
	C604.2,192.6,605.8,189.4,627.1,179.4z"/>
<path fill-rule="evenodd" clip-rule="evenodd" fill="#FFFFFF" d="M568.6,276.7c-10.7-7-12.5-12.5-7-18.6c1.4-1.6,4.9-2.8,6.8-2.2
	c1.9,0.6,4.4,3.8,4.2,5.7C572.2,266.2,570.3,270.7,568.6,276.7z"/>
<path fill-rule="evenodd" clip-rule="evenodd" fill="#FFFFFF" d="M816.9,387.3c9.6,0.7,18.5-8.8,23.8,4.5
	C826,400.1,826,400.1,816.9,387.3z"/>
<path fill-rule="evenodd" clip-rule="evenodd" fill="#FFFFFF" d="M734.9,556.5c5.5-2.4,7.8-3.4,11.3-5c2.8,7.1,5.3,13.4,7.8,19.6
	c-1,0.7-1.9,1.5-2.9,2.2C746.3,568.4,741.6,563.4,734.9,556.5z"/>
<path fill-rule="evenodd" clip-rule="evenodd" fill="#FFFFFF" d="M579.1,246.5c-8.2-3.7-11.2-8-4.5-16.1c3.4,1.6,6.9,3.3,11.6,5.5
	C583.4,240.2,581.2,243.4,579.1,246.5z"/>
<path fill-rule="evenodd" clip-rule="evenodd" fill="#FFFFFF" d="M677.9,163.4c-3.3,0-6.6,0-9.8,0c-0.2-0.9-0.3-1.7-0.5-2.6
	c2.1-0.6,4.2-1.7,6.3-1.7c1.5,0,3.1,1.3,4.7,2C678.3,161.8,678.1,162.6,677.9,163.4z"/>
<path fill-rule="evenodd" clip-rule="evenodd" fill="#FFFFFF" d="M652.4,169.3c-3,2.1-6,4.3-9,6.4c-0.8-1.1-1.7-2.3-2.5-3.4
	c3-2.1,6-4.3,9-6.4C650.8,167,651.6,168.1,652.4,169.3z"/>
<path fill-rule="evenodd" clip-rule="evenodd" fill="#FFFFFF" d="M561,298.8c-0.5-3.1-1-6.3-1.5-9.4c1.1-0.1,2.2-0.3,3.2-0.4
	c0.2,3.2,0.5,6.3,0.7,9.5C562.7,298.6,561.8,298.7,561,298.8z"/>
<path fill-rule="evenodd" clip-rule="evenodd" d="M614.6,329c-13.7-1.6-14-10.2-15.4-17.1c-4.7-23.8,0.6-45.7,12.4-66
	c1.3,0,2.5,0.1,3.8,0.1c0.4,3.2,2.3,7.2,1.1,9.6C604.5,278.8,604.2,302.6,614.6,329z"/>
<path fill-rule="evenodd" clip-rule="evenodd" d="M623.5,317.2c-12.6-11-14.4-30.6-3.3-47.2C621.4,287.3,622.4,301.5,623.5,317.2z"
	/>
<path fill-rule="evenodd" clip-rule="evenodd" d="M798.5,456.6c3.1-14,13.5-21.9,23.6-29.9c1.5-1.2,5.6,0.8,8.5,1.4
	c-0.9,2.8-1,6.8-3,8.3C818.1,443.5,808.2,449.9,798.5,456.6z"/>
<path fill-rule="evenodd" clip-rule="evenodd" d="M827.2,442.8c0.8,12.1-8.4,14.7-16.8,21.3C810,449.8,818.6,446.3,827.2,442.8z"/>
<path fill-rule="evenodd" clip-rule="evenodd" d="M237.6,304.1c2.5-7.6,4-15.7,7.8-22.6c6.1-11.2,12.9-13.6,24.5-11.2
	c10.9,2.3,19.8,11.6,21.6,21.9c3.4,19.1-6.5,32.6-19.1,44.5c-4.4,4.2-10.4,4.7-16.6,0.7C243.8,329.6,236.2,320,237.6,304.1z
	 M263.8,292.9c-8.2,5.4-10.3,10.5-6.9,16.6c1.2,2.1,5.2,3.3,7.9,3.3c1.3,0,3.8-4.1,3.6-6.1C267.9,302.7,265.9,298.9,263.8,292.9z"/>
<path fill-rule="evenodd" clip-rule="evenodd" d="M888.4,499.2c0.2,20.1-17.5,40.6-37.7,43.6c-10.9,1.7-18.3-5.4-16.1-16.4
	c3.6-18.1,15.1-31.5,29.6-41.5C876.4,476.5,888.3,484.4,888.4,499.2z M876.2,502.1c-15.5,3.6-22.3,12.7-19.8,26.2
	C866.2,522.2,874.2,515.5,876.2,502.1z"/>
<path fill-rule="evenodd" clip-rule="evenodd" d="M713.8,270.1c-7.7,4-14.7,2.4-20.4-3.6c-5.8-6.1-11.8-12.3-14.1-22.3
	c4.1,0,7.5-1,8.8,0.2c8.8,8.4,17.2,17.3,25.7,26.1C713.8,270.5,713.8,270.1,713.8,270.1z"/>
<path fill-rule="evenodd" clip-rule="evenodd" d="M786.5,384.3c-6.4-4.3-10.3-6.3-13.5-9.2c-3.5-3.3-6.7-7.1-9.3-11.2
	c-1.4-2.2-1.3-5.4-1.9-8.2c2.9-0.1,6.6-1.5,8.4-0.2C778.7,361.6,784.8,369.4,786.5,384.3z"/>
<path fill-rule="evenodd" clip-rule="evenodd" fill="#FFFFFF" d="M263.8,292.9c2.1,5.9,4.1,9.8,4.6,13.8c0.2,2-2.2,6-3.6,6.1
	c-2.7,0.1-6.8-1.2-7.9-3.3C253.5,303.4,255.6,298.3,263.8,292.9z"/>
<path fill-rule="evenodd" clip-rule="evenodd" fill="#FFFFFF" d="M876.2,502.1c-2,13.5-10,20.1-19.8,26.2
	C853.9,514.8,860.7,505.6,876.2,502.1z"/>
</svg>
