<?xml version="1.0" encoding="utf-8"?>
<!DOCTYPE svg PUBLIC "-//W3C//DTD SVG 1.1//EN" "http://www.w3.org/Graphics/SVG/1.1/DTD/svg11.dtd">
<svg artist="zl2017" version="1.1" id="zlIcon-cat-chaoss" xmlns="http://www.w3.org/2000/svg" xmlns:xlink="http://www.w3.org/1999/xlink" x="0px" y="0px"
	 width="1000px" height="1127.5px" viewBox="0 0 1000 1127.5" enable-background="new 0 0 1000 1127.5" xml:space="preserve">
<path fill-rule="evenodd" clip-rule="evenodd" fill="#FFFFFF" d="M577.7,697.1c-0.6-2.9-1.1-7.1-2.3-11
	c-3.7-11.9-11.1-19.7-23.8-22.6c-7.9-1.9-15.4-1.3-23,0.3c-5,1-10,2.8-14.7,4.8c-7.9,3.3-12.3,9.3-14.6,17.9
	c-3.1,11.6-2.3,22.8,0.7,34c1.7,6.2,5.3,11.9,8.1,17.8c2.5,5.2,6.4,9.6,11.8,11.3c5.1,1.7,10.8,2,16.2,2.5c1,0.1,2.8-1.3,3.1-2.3
	c1-2.8,3.1-3,5.5-3.8c3-0.9,6.3-2,8.4-4.1c2.5-2.5,4-5.8,8.1-6.4c0.7-0.1,1.5-1.2,2-2.1c2.5-4,3.9-8.8,8.9-10.7
	c0.5-0.2,0.8-0.9,1-1.4C576.6,714,577.3,706.2,577.7,697.1z"/>
<path fill-rule="evenodd" clip-rule="evenodd" fill="#FFFFFF" d="M269.4,563.5c-0.8-3.9-1.2-7.8-2.3-11.5
	c-2.7-9.2-9.9-14.4-19.4-14.3c-3.9,0-8.1,0.4-11.8-0.6c-8.1-2.3-14.5,3.6-22,3.7c-0.3,0-0.7,0.3-1,0.6c-7.6,7.2-16.7,13.2-20.3,23.8
	c-1.5,4.5-3.1,9-4.3,13.6c-3.5,14,1,25.5,11.8,34.5c5.7,4.8,12.4,6.7,20.3,6.5c8.6-0.2,16.2-2.3,22.8-7.2c3.9-2.9,6.9-7,10.1-10.8
	C262.4,590.7,269.8,578.9,269.4,563.5z"/>
<path fill-rule="evenodd" clip-rule="evenodd" fill="#FFFFFF" d="M396.1,397.8c-1.3,0.8-2.5,1.2-3.3,2c-8.3,8.3-16.2,16.7-21.6,27.5
	c-7.4,15-7.6,29.8-1.3,45c2.5,5.9,6.3,11,12.9,12c11.6,1.8,22.7-0.4,32.2-7.7c4.8-3.7,9.4-8,13.6-12.4c7.6-8,12.2-17.4,13.3-28.6
	c0.7-7.3-1-14.2-2.2-21.2c-0.4-2.4-1.9-4-3.8-5.8c-6.3-6-14.6-7-22.3-9.1c-3.1-0.8-6.7-0.6-9.9-0.1
	C400.8,399.7,398.2,400.1,396.1,397.8z"/>
<path fill-rule="evenodd" clip-rule="evenodd" fill="#FFFFFF" d="M217.2,442.1c1-13.2-2.3-22.9-8.3-29.4c-2.3-2.5-4.5-5.1-6.9-7.4
	c-1.1-1.1-2.6-1.8-4.1-2.3c-7.3-2.5-14.8-3.5-22.4-2.5c-8.9,1.1-16.9,3.8-20,13.8c-2.2,7-5,13.8-4.4,21.4c0.3,3.7,0.5,7.5,0.4,11.2
	c-0.1,9.2,1.8,18.1,5.7,26.4c3.2,6.8,8,12.6,15.5,14.8c2.9,0.8,6.2,0.3,9.3,0.6c8,0.9,13.6-3.2,18.3-8.9c1-1.2,1.7-2.6,2.6-3.8
	C211.2,465.6,218.2,454.9,217.2,442.1z"/>
<path fill-rule="evenodd" clip-rule="evenodd" fill="#FFFFFF" d="M275.5,735.9c-0.8-2.9-0.9-7.3-3-10.4c-3.1-4.8-7.4-8.8-11.4-13
	c-1-1-2.8-1.8-4.2-1.7c-5.1,0.1-10.2,0.7-15.3,0.8c-3.2,0.1-6.4,0.1-9.5-0.5c-6.2-1.2-11.8,1.2-16.3,4.1c-5.9,3.7-10,9.6-13.4,16.2
	c-5.2,10-7.3,19.6-3.3,30.7c2.3,6.3,4.9,11.5,11.2,14.4c6,2.8,12.3,5.1,18.9,4.2c8.7-1.1,16.8-4.4,24.5-8.8
	C267.2,764.1,273.6,752,275.5,735.9z"/>
<path fill-rule="evenodd" clip-rule="evenodd" fill="#FFFFFF" d="M587.5,357.5c-0.3-2.3-0.6-4.7-1-7c-1.1-7-5.4-12.2-10-17.2
	c-6-6.5-13.3-9-22.1-6.6c-1.3,0.4-2.7,0.5-4.1,0.8c-18.4,3.7-31.4,13.9-37.7,31.7c-3.3,9.4-2.7,18.8,3.5,27.2
	c1.3,1.7,3.6,2.7,4.6,4.6c4.1,7.7,11.5,6.9,18.1,6.8c7.5-0.1,15-1.4,21.7-5.4c5.4-3.2,11.3-5.8,16-9.9
	C583.8,376.1,587.2,367.4,587.5,357.5z"/>
<path fill-rule="evenodd" clip-rule="evenodd" fill="#FFFFFF" d="M282.2,648.2c7.4-0.5,16.3-4.7,23.8-11.5c2.8-2.6,5.2-6.2,6.4-9.9
	c4.2-12.5,6.3-25.3,2.6-38.4c-2.9-10.2-6.5-19.7-18.1-23.4c-5.8-1.8-11.3-1.9-16.8,0.2c-1.4,0.5-3,1.6-3.6,2.9
	c-1.6,3.8-3.6,7.3-3.8,11.8c-0.3,9-1.8,17.9-8.4,24.9c-4.3,4.7-8.4,9.6-12.9,14.1c-2.8,2.8-3.3,5.4-1.9,9.1
	C254.2,639.9,265.9,648.1,282.2,648.2z"/>
<path fill-rule="evenodd" clip-rule="evenodd" fill="#FFFFFF" d="M648.2,626.6c-4.9,1.3-10.1,2.1-14.8,4c-9.3,3.8-15,10.9-15.7,21
	c-0.3,4.9,0,10.1,1.3,14.7c2.6,9.2,7.6,16.9,17,20.8c6.9,2.8,13.6,5.9,21.4,6.1c6.6,0.2,12.9,1.2,19.4-1.9c3-1.4,5-2.8,6.3-5.6
	c1.8-3.8,3.3-7.7,5.2-11.4c2.2-4.2,2.6-8.7,3.2-13.2c1.2-8.4-2.1-15.4-8.3-20.4C673.2,632.8,661.6,627.9,648.2,626.6z"/>
<path fill-rule="evenodd" clip-rule="evenodd" fill="#FFFFFF" d="M522.4,472.4c-4.8,0.9-9.5,2.2-14.4,2.6
	c-11.1,0.9-23.6,13.6-20.1,27.9c1.6,6.5,2.8,13,6.2,19.1c2.9,5.4,6.6,9.3,12,11.8c1.6,0.7,3.2,1.6,4.8,2.3c6,2.5,11.8,4.9,18.7,3.8
	c5-0.8,8.6-3.8,12.9-5.7c9.9-4.4,13.1-12.8,14.4-22.4c0.4-2.7-0.1-5.5-0.4-8.3c-0.1-1.5-0.3-3-0.8-4.4c-1-2.5-2.9-4.8-3.4-7.4
	c-0.7-3.6-2.4-7-4.7-9.1C540.6,476.4,532.8,471.3,522.4,472.4z"/>
<path fill-rule="evenodd" clip-rule="evenodd" fill="#FFFFFF" d="M488.6,718.8c-1.9,0.5-4.4,2-6.3-1c-0.3-0.4-1.5-0.3-2.3-0.4
	c-3.7-0.2-7.5-0.7-11.1-0.3c-3.7,0.4-7.1,1.7-9.5,5.3c-2.3,3.4-5.4,6.3-7.9,9.6c-1,1.3-1.9,3-2.2,4.7c-0.9,6,0.3,11.8,1.9,17.6
	c1.2,4.2,1.6,9,4,12.4c6.8,9.5,15.8,16.8,27.4,20.1c3.1,0.9,6,0.7,9.1-1.1c3.7-2.1,8.1-3.1,12.2-4.5c1.8-0.7,3.6-1.4,5.5-2
	c5.8-2.2,7.7-7.8,10.2-12.6c1.4-2.7,0.6-4-2.1-5.8c-3-1.9-6-3.9-8.6-6.4c-3.4-3.3-7.1-6.7-9.3-10.8
	C495.5,735.7,492.3,727.3,488.6,718.8z"/>
<path fill-rule="evenodd" clip-rule="evenodd" fill="#FFFFFF" d="M364.7,687.7c5.6,0.7,11.2-1.5,15.5-5.2
	c5.3-4.6,10.3-10.1,13.8-16.1c3-5.3,3.8-11.8,2.8-18.5c-1.4-9.7-4.7-17.9-12.6-24.1c-3.2-2.5-6.4-3.9-10.3-3.6
	c-6.5,0.4-13.1,1.7-17.8,5.9c-5.2,4.6-11.7,8-14.4,15.3c-4.1,11-6.8,21.4,0.5,32.4C347.5,681.9,353.7,687.9,364.7,687.7z"/>
<path fill-rule="evenodd" clip-rule="evenodd" fill="#FFFFFF" d="M523.6,326.3c-2.8-3.6-5.3-7.1-8-10.5c-7.4-9.2-17-11.9-28.2-8.7
	c-5,1.4-9,4.2-12,9c-3.9,6.3-6.9,13-9.5,19.8c-1.3,3.5-2.3,7.2-2.8,10.8c-0.3,2.2,0.7,4.5,0.9,6.8c0.2,2.7-0.5,5.9,0.5,8.2
	c2.8,6,5.5,12.6,9.9,17.4c8.7,9.4,15.1,9.1,23.6,3c1.3-0.9,2.5-1.8,3.9-2.8C497.1,357,509.1,341.6,523.6,326.3z"/>
<path fill-rule="evenodd" clip-rule="evenodd" fill="#FFFFFF" d="M689.8,636.5c3.1-2.9,6.9-4.8,8.1-7.7c2.9-7.1,4.7-14.5,2.6-22.6
	c-1.1-4.4-3.8-7.7-5.5-11.6c-1.1-2.5-2.8-4.8-4.7-6.8c-5.2-5.3-11.4-9.2-17.9-12.8c-4.6-2.5-9.8-3.1-14.7-3.6
	c-3.5-0.4-7.6,0.7-10.9,2.3c-3.8,1.8-7,4.8-10.4,7.3c-7.7,5.9-9.4,14.7-4.8,23.3c2.3,4.3,4.2,8.7,6,12.8c6,0.3,12.3,0.5,18.5,1.1
	c6.5,0.6,12,4,18,6.2C680.5,626.5,684.7,631.3,689.8,636.5z"/>
<path fill-rule="evenodd" clip-rule="evenodd" fill="#FFFFFF" d="M496.4,540c-3.3,5.3-3.5,10.6-4.4,16.1c-1.6,9.7,1.9,17.8,5.5,26.1
	c0.6,1.4,1.8,2.5,2.9,3.6c6,5.9,13.5,7.1,21.5,6.8c11.6-0.5,21.8-5.7,32.1-10.4c1.2-0.5,2.1-1.8,2.9-2.9c4.1-5.6,7.2-11.7,9-18.5
	c2.2-8.6-2.7-16.5-7-19.6c-3.5-2.5-5.4-2.4-9.1,0.1c-2.1,1.4-4.4,2.8-6.7,4c-7.7,4-15.7,6.1-24.5,4.3
	C510.7,548,503.6,544.8,496.4,540z"/>
<path fill-rule="evenodd" clip-rule="evenodd" fill="#FFFFFF" d="M269,415.2c0.3-14.2-5.5-24.9-17.3-32.2c-1.3-0.8-2.9-1.8-4.3-1.7
	c-11.2,1-21.5,3.7-28.2,14.1c-3.3,5.1-4.2,10.4-1.8,15.9c2.5,5.6,5.2,11.1,8.2,16.5c6.2,11.2,16.5,15.5,28.5,14.7
	c5-0.3,10.3-2.5,12-8.9C267.8,427.4,269.4,421.3,269,415.2z"/>
<path fill-rule="evenodd" clip-rule="evenodd" fill="#FFFFFF" d="M263.2,778c5.8,5.2,10.3,9.9,15.5,13.8c9.2,6.7,19.5,6,29.5,2.4
	c2.7-1,4.5-4.3,7-6.3c4.4-3.7,7.4-8.1,8.3-13.9c0.5-3.1,1.4-6.2,2.2-9.2c1.3-5.1,0.1-9.7-2.5-14.2c-2.8-4.9-7.4-8.3-12.3-9.6
	c-8.3-2.3-17.1-2.7-26.2-1.1C284.7,756,274.7,767.1,263.2,778z"/>
<path fill-rule="evenodd" clip-rule="evenodd" fill="#FFFFFF" d="M371.9,375c-2.8,0.3-6-0.3-8.2,0.9c-6.4,3.5-13.2,7-18.5,11.9
	c-10.3,9.4-13.3,22.4-13.8,35.8c-0.2,5.9,3.2,10.3,8.3,12.8c3.9,1.9,8.2,3.1,12.3,4.4c3.9,1.3,4.7,0.7,5.9-3.2
	c1.6-4.8,3.1-9.7,5.3-14.3c1.6-3.4,3.5-6.8,6.1-9.4c5.8-6,12-11.5,18.2-17.1c1.8-1.7,4.8-2.7,3.9-6c-0.7-2.7-1-6.3-2.8-7.6
	C383.6,379.5,379.4,373.7,371.9,375z"/>
<path fill-rule="evenodd" clip-rule="evenodd" fill="#FFFFFF" d="M385.4,611.8c2.6,2,5.3,3.6,7.2,5.7c8.6,9.4,13.1,20.7,14.4,33.3
	c0.6,5.9,0.4,5.9,5.9,6.7c1.8,0.2,3.6-0.1,5.4,0.4c4.3,1,7.4-0.9,10.1-3.7c6.2-6.3,11.1-13.4,12.6-22.3c0.4-2,0.3-4.5-0.5-6.3
	c-2-4.3-5-8.1-6.7-12.5c-3.4-8.4-10.6-12.9-18.2-15.2C401.8,593.8,392.6,597.8,385.4,611.8z"/>
<g>
	<path fill-rule="evenodd" clip-rule="evenodd" d="M568,789c2.8,4,5.2,7.6,7.8,11.1c4,5.4,8.2,10.7,12,16.2c2.3,3.4,5.2,6.2,8.7,8
		c5.8,2.9,8.7,8.5,12.5,13.2c4,4.9,7.6,10,11.3,15.2c1.5,2.1,2.8,4.3,4.1,6.6c5.1,9,9.9,18.2,15.1,27.1c3.5,6,4.1,12.8,5.4,19.4
		c2.7,12.7,2.8,25.6,2.2,38.4c-0.5,11.3-2.3,22.5-5.5,33.4c-1.1,3.5-3,7-5.2,10c-7.6,9.7-15.6,19.1-23.2,28.8
		c-4.1,5.3-9.1,9.6-14.4,13.3c-4.8,3.3-10.7,5.3-16.3,7.2c-7.5,2.6-15.5,3.6-23.3,3.5c-6,0-12-0.2-17.8-3.3
		c-5.2-2.8-9.5-6.3-13.7-10.3c-6.1-5.9-7-12.7-1.9-19.6c0.5-0.6,1.4-1.1,1.5-1.7c1-5.3,5.6-5.6,9.4-6.7c3.4-1,6.9-1.6,10.3-2.3
		c1.4-0.3,2.8-0.5,4.1-0.2c11.3,2.4,21.2-1.1,30.9-6.7c8.9-5.2,15.1-12.7,20.6-20.9c5.3-7.9,7.3-17,7.3-26.6c0-1.4,0.2-2.8,0.4-4.2
		c0.8-5.5,1.6-10.9-0.2-16.5c-1.1-3.7-0.8-7.8-1.2-11.8c-0.2-1.8-0.4-3.6-1.1-5.2c-3.6-9-7.3-18-11-27c-0.6-1.5-1-3-1.7-4.5
		c-0.5-1.1-0.9-2.7-1.7-3c-5.2-1.9-6.8-7.1-9.9-10.8c-3.6-4.3-6.9-8.7-11.9-11.5c-2.3-1.3-4-3.7-6-5.6c-1.6-1.5-3-3.3-4.7-4.6
		c-5.4-4.2-10.8-8.6-16.5-12.4c-3.6-2.4-7.7-4.1-11.6-6.1c-0.9-2-2-4.2-3.4-7.1c-1.5,1.8-2.6,2.6-3.2,3.7c-2.2,4.7-3.8,9.5-5.1,14.5
		c-2.6,10.2-2.1,20.5-2.6,30.8c-0.1,2.6-0.6,5.1-1.1,8.4c-2.8-0.2-5.5,0.3-7.7-0.6c-7-2.7-13.9-5.9-20.8-8.9
		c-2.6-1.2-5.1-2.8-7.8-3.8c-8.8-3.4-15.2-9.7-21.4-16.5c-1.5-1.6-3.4-2.7-5.1-4.1c-7.6-6.3-14.1-13.8-20.6-21.2
		c-1.2-1.4-2.7-2.7-4.6-4.6c-0.1,2.9-0.6,4.9-0.2,6.7c1.5,8.1-1.4,15.4-3.8,22.7c-2.9,8.8-6.6,17.3-10.2,25.8
		c-2.1,4.9-5,9.5-7.5,14.2c-2.6,4.9-5.1,9.9-7.8,14.7c-1.8,3.2-4.3,5.8-5.9,9.3c-2.5,5.6-6.2,10.6-9.3,15.9
		c-1.8,3.1-3.3,6.3-5.3,9.3c-4.9,7.3-8,15.4-11,23.6c-0.6,1.7-1.5,3.2-2.4,4.8c-3.9,6.7-4,14.4-5.1,21.8c-1.4,9.6-2.6,19.4-2.8,29.1
		c-0.1,8.3,1.7,16.6,4.8,24.5c1.3,3.3,2.3,6.8,3.7,10.1c7.3,17.5,14.6,35,22,52.4c2.2,5.2,3.6,10.6,3.5,16.2
		c-0.1,5.2-1.1,10.2-6.9,12.6c-2.1,0.9-3.8,2.8-6,4.6c-4.6-1.9-10-3.4-14.5-6.3c-6.8-4.3-13.2-9.3-15.4-18
		c-1.1-4.3-4.3-8.1-5.9-12.4c-3.1-8.4-5.8-16.9-8.7-25.3c-0.5-1.5-0.7-3.2-1.5-4.5c-3.3-5.8-4.5-12.2-5.7-18.7
		c-1.7-9.6-3.9-19.2-4.2-28.8c-0.4-11.2-1.8-22.6,3.1-33.5c2.2-5,3-10.7,5-15.8c2.5-6.2,5.4-12.4,8.9-18.1
		c3.6-5.8,5.7-12.2,8.4-18.3c1.9-4.3,4.3-8.4,6.6-12.6c4-7.1,8.9-13.8,12.1-21.3c2.1-4.9,3.9-9.9,6.3-14.7
		c2.9-5.9,6.3-11.5,9.4-17.3c3.2-5.9,5.1-12.3,7.2-18.7c4.4-13.4,5.1-27.1,6-41c0.4-6.1-1.8-11.6-3.2-17.3c-0.6-2.7-1.5-5.3-2.4-8.2
		c-1.6,0.1-3-0.6-3.7,2.7c-2.2,11.7-7.7,22.1-14.2,32.1c-3.6,5.5-7.4,10.7-11.9,15.6c-6.4,7-11.6,15.1-18.4,21.6
		c-5.3,5.1-9.8,11.3-16.9,14.5c-2.6,1.2-4.9,3.3-6.8,5.5c-5,5.8-12.5,7.5-18.3,12.1c-3.1,2.5-5.8,1.5-7.9-2.1
		c-1.2-2-2.1-4.3-3.1-6.5c-3.2-6.8-6.6-13.3-12.4-18.6c-4-3.7-7.2-8.4-12-11.5c-1.3-0.9-2.5-2.1-3.9-2.7c-7.4-3.4-15-6.5-22.4-9.9
		c-10.7-4.8-21.9-5.5-33.3-5.1c-3.3,0.1-6.6,1.5-9.9,2.4c-10.1,2.7-19.3,7.1-27.6,13.3c-5.1,3.8-13.5,0.7-14.6-5.6
		c-1.1-6-2-12.1-2.8-18.2c-0.4-3.3-0.8-6.7-0.6-10.1c0.5-10.1,0.1-20.2,2-30.2c0.4-2.2,0.9-4.3,1.5-6.4c4.1-16,8.1-31.9,12.2-47.8
		c0.3-1.3,1.2-2.5,1.9-3.7c2.5-4.5,4.8-9.1,7.4-13.6c1.4-2.3,3.1-4.5,4.7-6.6c1.7-2.2,3.6-4.3,5-6.6c2.8-4.5,5.4-8.8,9.7-12.5
		c3.9-3.3,6.1-8.6,9-13c1.4-2.1,2.9-4.3,4.5-6.6c-8.5-6.4-18.2-10.1-28.9-10c-6.7,0.1-13.5,0.6-20,2.1c-5.7,1.3-11.1,4.3-16.6,6.6
		c-4.7,2-9.3,4-13.8,5.9c-1-0.9-1.5-1.4-1.9-1.7c-8.5-7-5.7-15.8-3.9-24.4c1.1-5.2,1.7-10.5,2.7-15.7c1.7-9.1,3.3-18.3,5.3-27.3
		c0.7-3.3,2.2-6.4,3.7-9.4c5.7-11.9,11.4-23.7,17.2-35.5c0.7-1.4,1.5-2.8,2.2-4.1c-1-3.1-2.3-5.3-5.6-6.6c-2-0.8-3-3.6-4.7-5.2
		c-1.8-1.7-3.7-3.5-5.9-4.4c-4-1.7-8.1-2.6-12.6-2.7c-3.7-0.1-7.4-1.5-10.9-2.9c-5.5-2.2-11-4.5-16.2-7.3c-4-2.1-7.9-4.8-11.3-7.8
		c-9.9-8.9-19.7-17.9-29.4-27.1c-5.3-5.1-10.6-10.3-15.5-15.7c-5.6-6.2-11.3-12.4-15.8-19.3c-4.9-7.4-9.6-15.4-12.3-23.7
		c-2.5-7.7-5.1-15.4-6.9-23.3c-2.2-9.9-3.9-19.8-5-29.9c-1.2-11.6-1.8-23.3-1.9-34.9c-0.1-7.4,1-14.9,1.9-22.3
		c1-7.9,2.2-15.8,4-23.6c2-8.5,4.7-16.8,7.2-25.1c0.4-1.5,1.3-2.9,2.1-4.3c3.9-6.7,7.7-13.4,11.9-19.9c4-6.2,7.9-12.5,14.2-17.1
		c5.5-3.9,9.9-9.3,15.5-13.1c14.7-10.1,30.2-17.6,49-15.1c5.7,0.8,11.4,0.4,16.8,2.7c7.2,3.1,11,8.5,14.1,15.6
		c2.4,5.4,0.2,8.7-1.7,13c-2,4.6-5,7.1-9.4,9.2c-5.8,2.8-11.9,2.8-18,3.4c-7.1,0.8-13.8,1.8-20.2,6.1c-6.8,4.6-12.5,10.3-18.9,15.1
		c-6.7,5-11.7,11.3-15.9,18.1c-3.9,6.1-7.8,12.3-9,19.9c-0.7,4.7-2.5,9.2-3.7,13.8c-1,3.8-0.6,7.3,0.6,11.1c1.3,4,1.8,8.5,1.7,12.8
		c-0.2,5.3-1.3,10.7-2.1,16c-0.5,3,0.2,6,0.1,8.7c-0.3,6.3,1.2,12,2.4,18c0.7,3.5,1.2,6.9,2.8,10.1c0.3,0.7,1.1,1.5,0.9,2.1
		c-1.5,6,2.3,11,2.8,16.7c0.3,3,3.3,5.7,4.9,8.5c5.8,9.9,12.5,19.1,22,25.8c1.8,1.3,3.5,2.7,4.7,5.1c1.8,3.7,5,6.5,9.9,5.6
		c0.9-0.2,1.9,0.4,2.9,0.7c5.2,1.9,10.3,4,15.5,5.6c1.7,0.5,4.1,0.3,5.6-0.6c2.1-1.2,1-3.3,0.4-5.3c-5.2-17.3-8.7-35-10-53
		c-0.9-12.1-2.1-24.2-3.1-36.2c-0.4-4.3,1.5-8.5,0-13c-1-2.8,2.8-5.4,6-4.6c1.9,0.5,3.8,1.3,5.5,2.3c6.4,3.8,13.7,5.7,20.8,7
		c5.6,1,11.6,0.5,17.3,0.3c9.6-0.4,19.2-1.4,28.3-5.1c0.4-0.1,0.8-0.3,1.1-0.3c10.3-1.2,19.3-5.5,27.7-11.2c1.7-1.2,2.6-2.7,3.8-4.1
		c7.4-8.3,10.2-18.8,14.8-28.5c2.8-5.9,4.3-7.4,10.8-7.3c1.3,0,2.7,0.5,3.8,1.2c5.3,3.5,10.3,7.4,15.7,10.7c3,1.8,5.7,3.6,7.4,6.7
		c0.4,0.7,1.1,1.3,1.7,1.6c11.9,6.3,19.8,16.8,28.2,26.8c0.8,0.9,1.2,2.2,2.2,2.8c4,2.5,7,5.7,8.1,11.4c1.5-1.6,2.4-2.4,3-3.2
		c1.7-2.2,3.2-4.6,5.1-6.6c5.3-5.6,10.8-11,16.1-16.6c3.7-3.9,7.3-7.8,10.6-11.9c6.3-7.7,14.5-12.9,22.6-18.3
		c4.5-3,8.6-6.5,13.1-9.4c2.8-1.8,5.8-3.3,8.9-4.4c4.5-1.6,6.2-0.1,6.5,4.6c0.2,4.3,0.3,8.7,1.1,13c2.3,12.1,7.4,22.7,16.1,31.6
		c2.9,3,5.7,6.2,8.8,9c1.5,1.4,3.7,2.1,5.5,3.1c1-5.9,1.6-11.6,2.9-17.1c0.8-3.4,2.2-6.8,3.7-9.9c4.2-8.5,5.8-18.1,11.7-25.9
		c2.2-2.9,3.5-6.8,4.5-10.4c1.7-6,6-10.3,9.1-15.3c1.1-1.8,2.5-3.5,3.5-5.3c5.5-9.7,12-18.4,21.3-24.9c2.6-1.8,4.5-4.4,6.6-6.8
		c2.2-2.5,4.7-2.6,7.1-1.6c2.1,6.4,3.7,12.5,6.1,18.4c1.1,2.8,3.6,5,5.5,7.5c0.7,0.9,1.7,1.7,2.2,2.7c3.3,6.3,9,10,15,12.9
		c9,4.3,17.8,9.1,27.9,10.4c5.5,0.7,11.1,1.4,16.6,2c1.8,0.2,3.7-0.3,5.4,0.2c7.1,1.9,13.4-1,19.7-3.2c7.4-2.5,12.9-8.3,19.1-12.9
		c2.2-1.7,4.4-3.2,7-5c6,5.3,7,12.7,9.9,19.1c2.8,6.3,5.1,12.9,7.8,19.8c1.4-1,2.6-1.6,3.5-2.5c4.2-4.5,7.9-9.5,12.5-13.5
		c6.5-5.5,11.1-12.3,15.8-19.1c3.3-4.7,5.6-10.1,9.1-14.6c6.1-7.8,11.4-16.3,19.3-22.5c2-1.6,3.6-3.6,5.2-5.6
		c3.5-4.6,7.1-9.1,10.1-13.9c3.4-5.4,5.8-11.3,9.3-16.6c6.3-9.5,8.6-20.5,12.2-30.9c2.2-6.4,1.8-13.7,2.3-20.7
		c0.5-8.1,1.2-16.3,0.8-24.3c-0.3-6.3-1.6-12.6-4.7-18.3c-1.8-3.3-3.4-6.8-4.2-10.5c-2-9.8-5.7-19-9.3-28.2c-1.4-3.5-2-7.3-2.4-11
		c-0.7-6.3-1.4-12.5-4.1-18.5c-3-6.5-3.2-13.7-2.1-20.4c0.6-3.7,4.6-7.3,7.7-10c2.1-1.8,5.4-2.5,8.3-3c2.6-0.4,5.7-0.6,8,0.4
		c4.8,2.1,10,3.8,12.8,8.9c0.6,1,1.3,2.1,2.2,2.8c4.4,3.3,5.9,8.3,7.9,13c2.4,5.6,5.3,11,7.4,16.8c1.7,4.6,2.2,9.7,3.7,14.4
		c3.1,9.8,6.5,19.5,9.9,29.2c1.9,5.5,1.4,11.3,1.9,16.9c0.5,6.1,0.6,12.3,0.7,18.4c0.1,5.4,0.2,10.7-0.1,16.1
		c-0.3,5.5-1.1,11.1-1.6,16.6c0,0.4,0,0.8-0.1,1.2c-2,7.6-3.9,15.3-6.2,22.8c-1.2,4-2.8,7.8-4.6,11.6c-2.4,5.1-5.2,10-7.8,15.1
		c-1,2-1.8,4-2.7,6c-1.5,3.5-3,6.9-6.4,9.2c-0.7,0.5-1.7,1.5-1.6,2.2c0.4,4-2.5,6.7-4.3,9.5c-4.3,6.8-9.1,13.4-14.7,19.3
		c-8,8.3-13.8,18.3-19.3,28.4c-2.7,5-5.6,9.5-10,13.2c-3.1,2.6-4.9,6.6-7.2,10c-2,2.9-4,5.9-6.1,8.9c-0.8,1.1-1.5,2.5-2.6,3.2
		c-6.1,3.9-8.1,10.4-10.9,16.5c-1,2.3-2.4,4.5-3.6,6.7c-1.1,1.9-2.2,3.8-3.2,5.7c-2.3,4.1-4.6,8.3-6.9,12.4
		c-1.8,3.2-3.7,6.4-5.4,9.7c-3.5,6.8-6.9,13.7-10.3,20.6c-0.9,1.8-1.5,3.7-2,5.6c-0.7,2.6-1.4,4.7-4.5,5.7c-1.5,0.5-2.9,2.6-3.6,4.3
		c-3.3,8.5-6.5,17-11.2,24.9c-0.5,0.9-0.3,2.3-0.4,3c6.2,4.2,12.1,8.1,18,12c4.2,2.8,4.3,7.2,0.9,11.1c-6.5,7.7-13,15.5-19.2,23.5
		c-6.2,8.1-5.9,17.8-6.3,27.3c1.9,0.4,3.4,0.4,4.6,1c9.7,5.7,18.9,2.2,28-1.7c3.3-1.4,6.6-2.9,9.7-4.7c10.5-6.2,19.2-14.7,27.8-23.2
		c9.2-9.1,18.2-18.3,27.3-27.5c0.4-0.4,1-0.8,1.2-1.3c3.7-7.1,10.3-11.3,16.3-15.9c6-4.6,11.9-9.3,18.3-13.4
		c9-5.7,18.3-10.8,27.5-16.2c1.9-1.1,3.9-2.1,5.6-3.4c10.9-8.3,23.8-12.8,36-18.6c13-6.2,26.8-9.9,40.7-13.6
		c6.7-1.8,13.3-3,20.3-1.8c2.6,0.4,5.4-0.2,8.1-0.5c6.9-0.7,13.8-0.7,20.6,0c8.8,1,17.6,2.2,26.1,4.5c12.8,3.3,25.3,7.5,37.2,13.6
		c7.9,4.1,15.4,8.5,20.7,15.6c5.6,7.6,8.7,16.1,7.3,25.7c-0.3,2.3-1.3,4.6-2.2,6.8c-1.1,2.5-2.5,4.9-3.7,7.4
		c-3.4,7.2-10.4,9.9-17.3,6.3c-4.7-2.4-9.3-5.2-13.8-8.1c-6.7-4.3-13.1-9-19.9-13c-3.3-2-7.4-2.7-11-4.3c-2.1-0.9-4-2.4-6-3.6
		c-3.2-1.9-6.3-4.8-9.8-5.3c-15.5-2.4-31.1-4.2-46.7-6.1c-1.5-0.2-3.1,0.4-4.7,0.7c-8.7,1.7-17.6,2.9-26.1,5.2
		c-6.3,1.7-12.6,4-18.2,7.3c-9.1,5.3-17.5,11.6-26.2,17.5c-5.8,3.9-11.6,7.7-17.3,11.7c-9.1,6.4-17.7,13.1-24.9,21.7
		c-2.8,3.3-6.6,5.7-10,8.5c-2.6,2.1-5.4,4.1-8,6.3c-4.2,3.4-7.2,7.7-10.3,12.2c-6.5,9.7-13.8,18.8-20.8,28.2
		c-0.7,0.9-1.2,1.9-2.1,3.3c2.4,0.5,4.3,1.1,6.1,1.3c8.3,0.6,14.7,4.6,21.1,9.9c5.3,4.4,10.6,8.9,15.3,13.9
		c8.5,9.1,17.9,17.5,24.7,28.1c3.3,5.2,6.9,10.2,10.5,15.1c3.6,4.9,4.7,10.5,5.3,16.2c0.5,5.3-1.7,6.6-6.9,6.8
		c-9.9,0.5-19.8,1.6-27.8,8.5c-6.3,5.5-12.5,11.1-18.6,16.7c-1,0.9-1.4,2.3-2,3.5c-6,11.8-9.2,24.6-11.4,37.5
		c-1.3,8-0.5,16.3,2.4,24.1c1.4,3.6,3,7.1,4.5,10.6c0.3,0.7,0.8,1.5,1.4,1.8c6.6,3,10.2,9.3,14.8,14.3c1.7,1.8,1.6,6.1,0.9,8.9
		c-0.6,2.4-3.8,3-6.5,2.3c-0.7-0.2-1.7-0.2-2.3,0.1c-9,3.9-18.7,3.7-28.1,5c-2.3,0.3-4.7,0.3-7,0.4c-1.7,0.1-3.5,0-5.2,0
		c-7.5,0.4-15,1.3-22.4,1.1c-7.7-0.2-15.5-0.8-22.8-3.8c-0.7-0.3-1.8,0.4-2.9,0.6c1,4.1-1.1,8.4,1.7,12c-1.4,10.3,1.1,21.3-6,30.6
		c-4.1,5.4-7.5,6.5-13,2.6c-9.6-6.9-20.6-10-32-12c-4.4-0.7-8.4-0.1-12.5,2.3C577.4,785.6,572.8,787,568,789z M577.7,697.1
		c-0.6-2.9-1.1-7.1-2.3-11c-3.7-11.9-11.1-19.7-23.8-22.6c-7.9-1.9-15.4-1.3-23,0.3c-5,1-10,2.8-14.7,4.8
		c-7.9,3.3-12.3,9.3-14.6,17.9c-3.1,11.6-2.3,22.8,0.7,34c1.7,6.2,5.3,11.9,8.1,17.8c2.5,5.2,6.4,9.6,11.8,11.3
		c5.1,1.7,10.8,2,16.2,2.5c1,0.1,2.8-1.3,3.1-2.3c1-2.8,3.1-3,5.5-3.8c3-0.9,6.3-2,8.4-4.1c2.5-2.5,4-5.8,8.1-6.4
		c0.7-0.1,1.5-1.2,2-2.1c2.5-4,3.9-8.8,8.9-10.7c0.5-0.2,0.8-0.9,1-1.4C576.6,714,577.3,706.2,577.7,697.1z M269.4,563.5
		c-0.8-3.9-1.2-7.8-2.3-11.5c-2.7-9.2-9.9-14.4-19.4-14.3c-3.9,0-8.1,0.4-11.8-0.6c-8.1-2.3-14.5,3.6-22,3.7c-0.3,0-0.7,0.3-1,0.6
		c-7.6,7.2-16.7,13.2-20.3,23.8c-1.5,4.5-3.1,9-4.3,13.6c-3.5,14,1,25.5,11.8,34.5c5.7,4.8,12.4,6.7,20.3,6.5
		c8.6-0.2,16.2-2.3,22.8-7.2c3.9-2.9,6.9-7,10.1-10.8C262.4,590.7,269.8,578.9,269.4,563.5z M396.1,397.8c-1.3,0.8-2.5,1.2-3.3,2
		c-8.3,8.3-16.2,16.7-21.6,27.5c-7.4,15-7.6,29.8-1.3,45c2.5,5.9,6.3,11,12.9,12c11.6,1.8,22.7-0.4,32.2-7.7
		c4.8-3.7,9.4-8,13.6-12.4c7.6-8,12.2-17.4,13.3-28.6c0.7-7.3-1-14.2-2.2-21.2c-0.4-2.4-1.9-4-3.8-5.8c-6.3-6-14.6-7-22.3-9.1
		c-3.1-0.8-6.7-0.6-9.9-0.1C400.8,399.7,398.2,400.1,396.1,397.8z M217.2,442.1c1-13.2-2.3-22.9-8.3-29.4c-2.3-2.5-4.5-5.1-6.9-7.4
		c-1.1-1.1-2.6-1.8-4.1-2.3c-7.3-2.5-14.8-3.5-22.4-2.5c-8.9,1.1-16.9,3.8-20,13.8c-2.2,7-5,13.8-4.4,21.4c0.3,3.7,0.5,7.5,0.4,11.2
		c-0.1,9.2,1.8,18.1,5.7,26.4c3.2,6.8,8,12.6,15.5,14.8c2.9,0.8,6.2,0.3,9.3,0.6c8,0.9,13.6-3.2,18.3-8.9c1-1.2,1.7-2.6,2.6-3.8
		C211.2,465.6,218.2,454.9,217.2,442.1z M275.5,735.9c-0.8-2.9-0.9-7.3-3-10.4c-3.1-4.8-7.4-8.8-11.4-13c-1-1-2.8-1.8-4.2-1.7
		c-5.1,0.1-10.2,0.7-15.3,0.8c-3.2,0.1-6.4,0.1-9.5-0.5c-6.2-1.2-11.8,1.2-16.3,4.1c-5.9,3.7-10,9.6-13.4,16.2
		c-5.2,10-7.3,19.6-3.3,30.7c2.3,6.3,4.9,11.5,11.2,14.4c6,2.8,12.3,5.1,18.9,4.2c8.7-1.1,16.8-4.4,24.5-8.8
		C267.2,764.1,273.6,752,275.5,735.9z M587.5,357.5c-0.3-2.3-0.6-4.7-1-7c-1.1-7-5.4-12.2-10-17.2c-6-6.5-13.3-9-22.1-6.6
		c-1.3,0.4-2.7,0.5-4.1,0.8c-18.4,3.7-31.4,13.9-37.7,31.7c-3.3,9.4-2.7,18.8,3.5,27.2c1.3,1.7,3.6,2.7,4.6,4.6
		c4.1,7.7,11.5,6.9,18.1,6.8c7.5-0.1,15-1.4,21.7-5.4c5.4-3.2,11.3-5.8,16-9.9C583.8,376.1,587.2,367.4,587.5,357.5z M282.2,648.2
		c7.4-0.5,16.3-4.7,23.8-11.5c2.8-2.6,5.2-6.2,6.4-9.9c4.2-12.5,6.3-25.3,2.6-38.4c-2.9-10.2-6.5-19.7-18.1-23.4
		c-5.8-1.8-11.3-1.9-16.8,0.2c-1.4,0.5-3,1.6-3.6,2.9c-1.6,3.8-3.6,7.3-3.8,11.8c-0.3,9-1.8,17.9-8.4,24.9
		c-4.3,4.7-8.4,9.6-12.9,14.1c-2.8,2.8-3.3,5.4-1.9,9.1C254.2,639.9,265.9,648.1,282.2,648.2z M648.2,626.6
		c-4.9,1.3-10.1,2.1-14.8,4c-9.3,3.8-15,10.9-15.7,21c-0.3,4.9,0,10.1,1.3,14.7c2.6,9.2,7.6,16.9,17,20.8c6.9,2.8,13.6,5.9,21.4,6.1
		c6.6,0.2,12.9,1.2,19.4-1.9c3-1.4,5-2.8,6.3-5.6c1.8-3.8,3.3-7.7,5.2-11.4c2.2-4.2,2.6-8.7,3.2-13.2c1.2-8.4-2.1-15.4-8.3-20.4
		C673.2,632.8,661.6,627.9,648.2,626.6z M522.4,472.4c-4.8,0.9-9.5,2.2-14.4,2.6c-11.1,0.9-23.6,13.6-20.1,27.9
		c1.6,6.5,2.8,13,6.2,19.1c2.9,5.4,6.6,9.3,12,11.8c1.6,0.7,3.2,1.6,4.8,2.3c6,2.5,11.8,4.9,18.7,3.8c5-0.8,8.6-3.8,12.9-5.7
		c9.9-4.4,13.1-12.8,14.4-22.4c0.4-2.7-0.1-5.5-0.4-8.3c-0.1-1.5-0.3-3-0.8-4.4c-1-2.5-2.9-4.8-3.4-7.4c-0.7-3.6-2.4-7-4.7-9.1
		C540.6,476.4,532.8,471.3,522.4,472.4z M488.6,718.8c-1.9,0.5-4.4,2-6.3-1c-0.3-0.4-1.5-0.3-2.3-0.4c-3.7-0.2-7.5-0.7-11.1-0.3
		c-3.7,0.4-7.1,1.7-9.5,5.3c-2.3,3.4-5.4,6.3-7.9,9.6c-1,1.3-1.9,3-2.2,4.7c-0.9,6,0.3,11.8,1.9,17.6c1.2,4.2,1.6,9,4,12.4
		c6.8,9.5,15.8,16.8,27.4,20.1c3.1,0.9,6,0.7,9.1-1.1c3.7-2.1,8.1-3.1,12.2-4.5c1.8-0.7,3.6-1.4,5.5-2c5.8-2.2,7.7-7.8,10.2-12.6
		c1.4-2.7,0.6-4-2.1-5.8c-3-1.9-6-3.9-8.6-6.4c-3.4-3.3-7.1-6.7-9.3-10.8C495.5,735.7,492.3,727.3,488.6,718.8z M364.7,687.7
		c5.6,0.7,11.2-1.5,15.5-5.2c5.3-4.6,10.3-10.1,13.8-16.1c3-5.3,3.8-11.8,2.8-18.5c-1.4-9.7-4.7-17.9-12.6-24.1
		c-3.2-2.5-6.4-3.9-10.3-3.6c-6.5,0.4-13.1,1.7-17.8,5.9c-5.2,4.6-11.7,8-14.4,15.3c-4.1,11-6.8,21.4,0.5,32.4
		C347.5,681.9,353.7,687.9,364.7,687.7z M523.6,326.3c-2.8-3.6-5.3-7.1-8-10.5c-7.4-9.2-17-11.9-28.2-8.7c-5,1.4-9,4.2-12,9
		c-3.9,6.3-6.9,13-9.5,19.8c-1.3,3.5-2.3,7.2-2.8,10.8c-0.3,2.2,0.7,4.5,0.9,6.8c0.2,2.7-0.5,5.9,0.5,8.2c2.8,6,5.5,12.6,9.9,17.4
		c8.7,9.4,15.1,9.1,23.6,3c1.3-0.9,2.5-1.8,3.9-2.8C497.1,357,509.1,341.6,523.6,326.3z M689.8,636.5c3.1-2.9,6.9-4.8,8.1-7.7
		c2.9-7.1,4.7-14.5,2.6-22.6c-1.1-4.4-3.8-7.7-5.5-11.6c-1.1-2.5-2.8-4.8-4.7-6.8c-5.2-5.3-11.4-9.2-17.9-12.8
		c-4.6-2.5-9.8-3.1-14.7-3.6c-3.5-0.4-7.6,0.7-10.9,2.3c-3.8,1.8-7,4.8-10.4,7.3c-7.7,5.9-9.4,14.7-4.8,23.3c2.3,4.3,4.2,8.7,6,12.8
		c6,0.3,12.3,0.5,18.5,1.1c6.5,0.6,12,4,18,6.2C680.5,626.5,684.7,631.3,689.8,636.5z M496.4,540c-3.3,5.3-3.5,10.6-4.4,16.1
		c-1.6,9.7,1.9,17.8,5.5,26.1c0.6,1.4,1.8,2.5,2.9,3.6c6,5.9,13.5,7.1,21.5,6.8c11.6-0.5,21.8-5.7,32.1-10.4
		c1.2-0.5,2.1-1.8,2.9-2.9c4.1-5.6,7.2-11.7,9-18.5c2.2-8.6-2.7-16.5-7-19.6c-3.5-2.5-5.4-2.4-9.1,0.1c-2.1,1.4-4.4,2.8-6.7,4
		c-7.7,4-15.7,6.1-24.5,4.3C510.7,548,503.6,544.8,496.4,540z M269,415.2c0.3-14.2-5.5-24.9-17.3-32.2c-1.3-0.8-2.9-1.8-4.3-1.7
		c-11.2,1-21.5,3.7-28.2,14.1c-3.3,5.1-4.2,10.4-1.8,15.9c2.5,5.6,5.2,11.1,8.2,16.5c6.2,11.2,16.5,15.5,28.5,14.7
		c5-0.3,10.3-2.5,12-8.9C267.8,427.4,269.4,421.3,269,415.2z M263.2,778c5.8,5.2,10.3,9.9,15.5,13.8c9.2,6.7,19.5,6,29.5,2.4
		c2.7-1,4.5-4.3,7-6.3c4.4-3.7,7.4-8.1,8.3-13.9c0.5-3.1,1.4-6.2,2.2-9.2c1.3-5.1,0.1-9.7-2.5-14.2c-2.8-4.9-7.4-8.3-12.3-9.6
		c-8.3-2.3-17.1-2.7-26.2-1.1C284.7,756,274.7,767.1,263.2,778z M371.9,375c-2.8,0.3-6-0.3-8.2,0.9c-6.4,3.5-13.2,7-18.5,11.9
		c-10.3,9.4-13.3,22.4-13.8,35.8c-0.2,5.9,3.2,10.3,8.3,12.8c3.9,1.9,8.2,3.1,12.3,4.4c3.9,1.3,4.7,0.7,5.9-3.2
		c1.6-4.8,3.1-9.7,5.3-14.3c1.6-3.4,3.5-6.8,6.1-9.4c5.8-6,12-11.5,18.2-17.1c1.8-1.7,4.8-2.7,3.9-6c-0.7-2.7-1-6.3-2.8-7.6
		C383.6,379.5,379.4,373.7,371.9,375z M385.4,611.8c2.6,2,5.3,3.6,7.2,5.7c8.6,9.4,13.1,20.7,14.4,33.3c0.6,5.9,0.4,5.9,5.9,6.7
		c1.8,0.2,3.6-0.1,5.4,0.4c4.3,1,7.4-0.9,10.1-3.7c6.2-6.3,11.1-13.4,12.6-22.3c0.4-2,0.3-4.5-0.5-6.3c-2-4.3-5-8.1-6.7-12.5
		c-3.4-8.4-10.6-12.9-18.2-15.2C401.8,593.8,392.6,597.8,385.4,611.8z"/>
	<path fill-rule="evenodd" clip-rule="evenodd" d="M530.9,716.2c-4.3,0-10.3-4.5-11.4-8.1c-0.8-2.6,2.4-7.5,5.3-7.3
		c3.6,0.3,7.3,1.3,10.7,2.7c2.6,1.1,4.1,6.6,3.1,8.9C537,716,533.4,715.5,530.9,716.2z"/>
	<path fill-rule="evenodd" clip-rule="evenodd" d="M223.9,596.8c-1.9-0.5-4-0.5-5.5-1.5c-3.2-2.1-3.5-5.5-1.4-8.2
		c2.5-3,7.2-3.4,9.9-0.6c0.8,0.8,1.7,1.9,1.9,3c0.4,1.8,0.8,3.9,0.2,5.6C228.2,597.2,226.1,597.2,223.9,596.8z"/>
	<path fill-rule="evenodd" clip-rule="evenodd" d="M395.9,432.9c-4.8-2.3-7.1-5.4-6.6-9.1c0.4-3.1,3.1-5.9,6.1-6.4
		c2.1-0.3,6.1,2.5,6.8,4.9c0.7,2.4,0.6,4.7-1.7,6.4C399,430.1,397.5,431.5,395.9,432.9z"/>
	<path fill-rule="evenodd" clip-rule="evenodd" d="M188.7,421c0.7,0.7,0.9,1,1.2,1.3c2,2.6,3.4,5.5,1.8,8.8c-1,2.1-7.5,3.9-10.4,3.2
		c-2-0.5-3-1.7-3.2-3.8c-0.4-4,2.3-7.7,6.4-8.5C185.8,421.7,187.1,421.4,188.7,421z"/>
	<path fill-rule="evenodd" clip-rule="evenodd" d="M215.1,760.7c-5.6,0.2-6.7-1.1-4.5-5.8c3-6.4,6.7-7.5,11-5.3
		c3.3,1.7,4.1,5.2,1.3,7.7C220.7,759.3,218.3,761.8,215.1,760.7z"/>
	<path fill-rule="evenodd" clip-rule="evenodd" d="M535.6,363.4c1.6,1.2,4.4,2.3,5.6,4.5c1.4,2.3-0.1,5.1-2.2,6.9
		c-0.9,0.8-1.9,1.4-3,1.9c-2.9,1.4-5.8,1.8-8.4-0.4c-2.6-2.2-1.5-5.2-1.1-7.8c0.4-3.2,3-3.9,5.8-4.1
		C533,364.2,533.8,363.9,535.6,363.4z"/>
	<path fill-rule="evenodd" clip-rule="evenodd" d="M278.7,627.7c-3.4,0-8.8-4.1-8.7-6.6c0.1-2.9,5.5-6.8,9.3-6.8
		c3.6,0,7.7,3.6,7.8,6.7C287.1,624.4,282.9,627.7,278.7,627.7z"/>
	<path fill-rule="evenodd" clip-rule="evenodd" d="M637.7,643.5c0.1-0.7,0.1-2,0.5-3.1c1.6-5.1,4.6-6,8.7-2.6c1.1,0.9,2,2,3.1,2.7
		c2.9,1.8,3.3,4.3,2.3,7.2c-0.9,2.7-4.8,4.9-7.6,4.6C639.4,651.7,637.4,649.3,637.7,643.5z"/>
	<path fill-rule="evenodd" clip-rule="evenodd" d="M538.1,520.7c-0.7,0.8-1.1,1.5-1.6,2.1c-4.4,5.4-10.1,5.5-14.5,0
		c-2.4-3.1-3-7-1.9-10.6c1.2-4,4.5-5.8,8.8-5.9c3.8-0.1,6.1,1.4,7.2,5.4C536.8,514.5,537.4,517.4,538.1,520.7z"/>
	<path fill-rule="evenodd" clip-rule="evenodd" d="M489.2,749.6c0,4.9-3.2,8.6-7.3,8.5c-4.8-0.2-11.1-5.1-10.5-8.7
		c0.4-2.9,1.2-6,2.8-8.2c1-1.3,3.9-1.6,6-1.8C483.9,739.1,489.2,745.3,489.2,749.6z"/>
	<path fill-rule="evenodd" clip-rule="evenodd" d="M372.7,654.3c5.8-2.7,10.2-1.4,12.7,3.6c1.8,3.5-0.5,7.5-4.5,7.8
		c-4.9,0.3-7.9-2.4-8.3-7.5C372.6,657,372.7,655.8,372.7,654.3z"/>
	<path fill-rule="evenodd" clip-rule="evenodd" d="M484,350.3c3.2-0.1,5.8,2.6,5.9,6c0.1,3.1-2.9,7.9-4.9,7.9
		c-4.2,0-8.8-3.4-9.1-6.9C475.5,354,479.6,350.5,484,350.3z"/>
	<path fill-rule="evenodd" clip-rule="evenodd" d="M642.7,603.6c0.7-1.2,1.2-2.3,1.8-3.3c3.5-6.1,5.9-6.8,11.9-3
		c1.8,1.1,3.7,6,3.3,8.4c-0.4,3-2.6,3.7-5.1,4.1C648.4,610.9,647.9,610.6,642.7,603.6z"/>
	<path fill-rule="evenodd" clip-rule="evenodd" d="M533.2,578c-2.2-2.5-4.3-4.7-6.2-7c-2.7-3.2-3.1-6.7-1.2-9.2
		c3-4,6.5-4.9,10.8-2.4c2.7,1.6,5,3.8,7.4,5.7c2.7,2.2,2.8,5,1.6,8.1c-1.4,3.4-4.3,4.6-7.5,5.1C536.6,578.6,535,578.2,533.2,578z"/>
	<path fill-rule="evenodd" clip-rule="evenodd" d="M240.1,408.9c-1.5-1.7-2.8-3.4-4.2-5c0.2-1.8,0.3-3.6,0.8-5.3
		c0.7-2.7,3-4,5.5-2.5c3.2,1.9,7.7,2.9,7.4,8.6C247.8,407.9,243.7,407.8,240.1,408.9z"/>
	<path fill-rule="evenodd" clip-rule="evenodd" d="M283.3,769.1c5.7,0.2,9.5,3.5,9.7,8.2c0.1,3.3-2.6,5.8-5.7,4.8
		c-3.6-1.2-6.8-3.1-8.3-7C277.5,771.2,279.2,768.9,283.3,769.1z"/>
	<path fill-rule="evenodd" clip-rule="evenodd" d="M357.3,399.3c-4.9-6-4.3-10.9,1.9-14.7c1-0.6,2.7-0.9,3.8-0.5
		c2.7,0.9,5.1,9.2,3.7,11.8c-1,1.9-2.1,3.1-4.6,2.8C360.8,398.4,359.2,399,357.3,399.3z"/>
	<path fill-rule="evenodd" clip-rule="evenodd" d="M426.7,639.4c-0.2,3.6-3.2,5.7-7.7,5.4c-4.4-0.3-6.1-1.9-5.8-5.1
		c0.4-4.2,3.6-6.7,7.9-6.4C425.2,633.7,426.9,635.5,426.7,639.4z"/>
</g>
</svg>
