<?xml version="1.0" encoding="utf-8"?>
<!DOCTYPE svg PUBLIC "-//W3C//DTD SVG 1.1//EN" "http://www.w3.org/Graphics/SVG/1.1/DTD/svg11.dtd">
<svg artist="zl2017" version="1.1" id="zlIcon-cat-look-ne" xmlns="http://www.w3.org/2000/svg" xmlns:xlink="http://www.w3.org/1999/xlink" x="0px" y="0px"
	 width="1000px" height="618.9px" viewBox="0 0 1000 618.9" enable-background="new 0 0 1000 618.9" xml:space="preserve">
<path fill-rule="evenodd" clip-rule="evenodd" d="M760.4,233c0-14.2,0-27.2,0-40.9c-9.2,0.3-17.7,9.8-29,2.8
	c1.2-2.9,1.8-6.1,3.6-8.4c10.4-13,21.2-25.6,31.7-38.5c11.4-13.8,14.2-30.8,17-47.6c1.5-8.6,3.6-16.6,8.7-23.8
	c8.3-11.6,19-18.3,33.5-18.7c8-0.2,15.9-0.7,25.2-1.2c-11.4-18.5-29.4-28.5-43.8-42.4c12.9,1.9,21.4,11.1,30.7,18.6
	c7,5.6,13,12.5,19.2,19c4.4,4.6,8.7,5.1,13.9,1c-8-21.4-26.2-35.2-38.9-53.1c12,4.6,19,14.8,27.2,23.6c3.6,3.8,6.7,8.1,9.5,12.5
	c7.1,11.2,13.6,22.6,28.7,25.1c3.2,0.5,6.6,5,8.2,8.5c3.3,7.3,6.1,14.9,8,22.7c1.6,6.5,6.6,7.4,11.3,9.5
	c27.4,13,51.3,30.7,70.7,54.1c1.7,2,2.9,4.4,3.5,7.4c-22.2-19.5-43.8-39.3-71-51.5c-2.1-0.9-4.2-1.7-6.4-2.6
	c-2.5,9.7,1.4,14.5,8.9,20.1c13.9,10.5,26.2,23.2,39,35.2c1.9,1.8,2.7,4.7,3.2,7.8c-16-12.5-28.3-29.8-49.2-37.5
	c-1.9,11-2.4,20.9,4.2,29.9c11.3,15.1,14.8,33,16.1,50.9c1,14-2.2,28.2-3.6,42.3c-0.2,2.4-0.4,4.7-0.8,7.1
	c-2.3,15.9-4.7,31.9-6.8,47.8c-1,7.5-2.9,15.2-2,22.6c2.1,17-1.1,33.1-6,49.1c-2.2,7.2-4,14.8-4.7,22.3c-2.7,28.8-5.3,57.7-7.1,86.6
	c-1,16.6,4.5,24.1,20.3,29c9.3,2.9,11.9,10.5,14.3,18.1c1.6,5.2-3.3,8-7.4,8.6c-6.8,1-12.1,6.2-17.7,7.4c-14,2.8-28.7,3.2-43,2.8
	c-3.3-0.1-7.5-6.6-9.3-11c-2.1-5.3,0.8-10.2,6-13.1c3.3-1.9,6.6-3.7,7.5-4.2c17.4-43.1,17.3-84.8,4.6-128
	c-11.2,6.1-19.8,13.9-24.7,24.7c-12.4,27.8-15.7,57.3-17,88c10.9,1.9,19.1,5.4,18.6,18c-0.3,9.5-8.3,7.3-13.8,10.1
	c-1.5,8.1-3,17.2-14.2,17.7c-9.2,0.4-13.5-5.4-14.5-13.3c-6.9-3.1-15.8-1.5-17.9-11.7c6.3-7.1,10.1-17.3,22.3-18.8
	c5.7-0.7,6.6-6.1,6.9-11.1c1.2-23-2.1-45.3-11.1-68.1c-12.1,6.6-23.8,12.7-35.2,19.1c-8.1,4.6-15.6,10.6-24.1,14.1
	c-39,16-77,34.8-118.1,45.1c-7.3,1.8-14.7,3.9-22.2,4.5c-17.5,1.4-35.1,1.8-52.6,2.9c-33.2,1.9-66.5,3-99.5,6.4
	c-22.5,2.4-44.8,7.8-67,12.7c-12,2.6-23.6,6.9-35.5,10.3c-12.7,3.7-25.6,6.8-38,11.2c-19.1,6.8-37.8,14.7-56.8,21.9
	c-3,1.1-6.3,1.5-9.3,2.2c1.6,19.3-4.6,29.4-18,30c-11.2,0.5-16.3-6.4-15.9-20c-3.4-3.9-6.7-6.7-9-10.3c-6.7-10.3-1.6-22.5,10.4-25.5
	c6.8-1.7,6.8-1.7,13.4-9.5c-5.1-0.3-9-0.7-12.9-0.8c-6.8-0.1-12.5-2.5-14.4-9.2c-2-7-0.2-14,6.5-17.3c7.1-3.5,10.2-9,12.1-17.4
	c-11.7,4.2-22.5,8.3-33.5,12.1c-31,10.6-62.9,14-95.5,12.7c-20.9-0.8-41.8-2.1-61.9-8.2c-8.6-2.6-17-5.9-25-9.9
	c-3.5-1.8-6.7-5.6-8.4-9.2C8.4,497.8,5,488.9,1.8,480c-3.2-9.1-0.1-18.2,6.3-23.5c6.9-5.7,16.2-9.8,26.4-4.5
	c13.9,7.2,28.3,13.4,42.1,20.8c16.3,8.6,34,8.9,51.4,9.3c28.7,0.6,56.3-6.1,83.7-14.5c21.3-6.5,39-19.5,58.5-29
	c10.2-5,20.9-9,31.5-12.8c11.2-4,22.4-7.9,33.9-10.8c38.8-9.6,77.9-11.6,117.2-3.7c25.7,5.2,51.5,6.5,77.6,8.2
	c25.4,1.6,50.4-0.4,75.4-2c46-2.9,89.5-14.5,129.6-38.9c22-13.4,41.9-29.4,62.5-44.6c21.8-16.2,34-39.1,45.1-63
	c8.5-18.3,12.5-37.6,14.1-57.6c1.1-13.8-10.6-24.7-23.9-21.7c-22.7,5.1-41.1,17.2-56,34.6C772.5,231.9,768,235.7,760.4,233z
	 M354.6,467.9c-27.2,0.6-90.3,23.8-106.6,36.6c3.6,1.5,7.4,2.3,10.1,4.6c2.8,2.3,4.3,6.1,6.1,8.8C296,500.3,325.3,484.1,354.6,467.9
	z M276.5,555c16.5-8.4,32.3-15.7,47.4-24.3c15-8.6,34-10,47-24.3c-2.3-0.7-3.2-1.3-4-1.2c-29.9,4.1-57.4,15.2-83.9,29.1
	C275.7,538.2,271.9,544.4,276.5,555z"/>
<path fill-rule="evenodd" clip-rule="evenodd" fill="#FFFFFF" d="M832.6,94c-1.8,9.3,1.7,13.8,8.6,15c8.5,1.4,6.3-7.3,9.1-11.7
	c8.5,14.4,7.7,22.9-2.2,29.4c-9.7,6.3-22.8,3.6-29.4-6.1C814.1,113.9,817.9,106.1,832.6,94z"/>
<path fill-rule="evenodd" clip-rule="evenodd" fill="#FFFFFF" d="M810.7,73.8c13.5,10.1,13.5,10.1,23-4c2.6,1.4,5.3,2.8,10.4,5.5
	c-16.3,7.2-30.5,13.5-46.2,20.4C798.1,84.2,804.1,78.8,810.7,73.8z"/>
</svg>
