<?xml version="1.0" encoding="utf-8"?>
<!DOCTYPE svg PUBLIC "-//W3C//DTD SVG 1.1//EN" "http://www.w3.org/Graphics/SVG/1.1/DTD/svg11.dtd">
<svg artist="zl2017" version="1.1" id="zlIcon-cat-jump-balkony" xmlns="http://www.w3.org/2000/svg" xmlns:xlink="http://www.w3.org/1999/xlink" x="0px" y="0px"
	 width="1000px" height="1421.3px" viewBox="0 0 1000 1421.3" enable-background="new 0 0 1000 1421.3" xml:space="preserve">
<path fill-rule="evenodd" clip-rule="evenodd" d="M767.6,1421.1c-11.2-0.3-23.2-2.1-34.7-0.6c-31.4,4.2-57.3-9.1-79.6-27.5
	c-24-19.8-46.2-42.3-66.4-66c-36.5-43-60.6-91.8-62-150.1c-0.7-30-3.6-60.1-7.8-89.8c-2.4-17.1-9-33.6-14.7-50.1
	c-1.6-4.6-6.6-8.3-10.4-11.9c-7.8-7.5-16.5-14.1-23.6-22.1c-32.6-36.7-75.2-56.6-120.3-72.3c-2.2-0.8-4.7-0.7-7.1-0.6
	c-1.7,0-3.4,0.7-5.3,1.2c-6.1,10.8-2,28.5-20.2,30.7c-9.9,1.2-15.5-5-19.3-14.5c-4.5,2.9-8.5,6.1-13,8.4c-5.8,3-12.7,3.1-16.4-2.4
	c-3-4.4-5-11-4.2-16.1c1.2-6.8,5.5-13.1,9-20.9c-1.3-3.8-3-8.8-4.7-13.8c-2.9-8.5,0-15.9,6.6-20.9c7.6-5.6,14.9-1.2,21.3,3.7
	c1.9,1.4,4.2,3.3,4.7,5.3c4.4,18.4,17.4,15.4,31.3,14.2c21.5-1.8,43.2-1.5,64.8-2.1c2.2-0.1,4.3,0,7.8,0
	C395,884.5,382.6,872,368,861c-7.4,3.2-15.3,9.8-22.2,8.8c-6.4-0.9-11.6-9.9-15.7-17.2c-4.6-1.2-9.4-2.1-13.8-3.8
	c-10.9-4.3-14.3-12.5-8.7-22.9c2.3-4.4,5.5-7.3,2.2-12.7c-3.8-6.2-3.8-12.9,2.8-17.6c6.4-4.5,13.9-5.8,20.4-1.4
	c6.8,4.6,15.4,10,18,17c7.9,20.5,26.6,27.6,42.5,38.6c24.1,16.6,47.4,34.5,72.3,49.8c13.4,8.2,25.8,18.9,43.1,21
	c19.4,2.4,38.4,8.8,57.7,12.5c6.1,1.2,12.8-0.8,19.2-1.8c2.9-0.4,5.6-2.4,8.5-2.8c22.7-3.4,39.5-16.3,53.8-33.3
	c17-20.2,35.7-39.2,46.2-64c3.7-8.8,7.7-17.9,9-27.2c3.5-24.8,9.6-49.4,7.2-75c-1.4-15.3,1.9-31.1,2.2-46.6
	c0.4-21.6-3.8-42.2-9.8-63.4c-8.3-29-17.8-57.4-28.5-85.4c-5.1-13.4-11-26.6-17.3-41.8c-29.6-1-59.5-2.3-89.5-2.9
	c-59.6-1.2-119.1,2.3-178.4,8.4c-29.2,3-58.2,9-86.8,15.7c-39.7,9.4-79.1,20.3-118.3,31.4c-24.2,6.9-48,15.6-72,23.3
	c-9.1,2.9-13.2,8.3-13.7,18.4c-1,21-4.2,41.9-5.2,62.8c-0.6,11.9,0.9,24,2.1,36c8.6,86.1,17.2,172.2,26.2,258.3
	c1.1,10.7,4.8,21.1,7,31.7c7.2,35.9,14.5,71.9,21.2,107.9c1.8,9.3,2.1,19.1-4.8,28.1c-2.9-0.8-5.8-1.3-8.4-2.3
	c-2-0.8-3.7-2.2-5.3-3.2c-42.9,39.5-42.9,39.5-53.8,38.3c-2.5-8.2,4.5-11.7,8.7-16c11.2-11.7,22.4-23.6,34.8-34
	c10-8.4,10.6-18,7.9-29.1c-2-8.1-4.3-16.1-6.8-25.1c-11.8,5.1-17.3,16.2-25.1,24.8c-4.4,4.9-7.8,10.7-11.6,16.1
	c-4.6,6.5-9.8,4.9-17.1,1.5c2.4-4.3,3.8-8.1,6.2-11c10.6-12.3,20.8-25.1,32.3-36.4c15.3-14.9,12.4-30.6,5-48.7
	c-17.2,11.5-32.7,23.5-43.2,40.7c-4.3,7-8.9,8.9-18.4,4.2c3.1-5.5,5.2-10.9,8.7-15.2c10.3-12.5,20.2-25.6,31.9-36.7
	c18.1-17,18.3-35.7,8.7-59.9c-14,16.5-26.6,31.3-40.8,48c-1.7-0.3-6-1-10.7-1.7c0.3-3.1-0.2-5.4,0.7-6.5
	c11.5-13.9,22.2-28.6,35.2-41c12.2-11.7,16.7-24.3,13.2-40.4c-1.4-6.4-2.4-12.8-4-21.4c-18.3,12.8-27.4,31.1-39.8,48.2
	c-3.3-1.3-6.9-2.6-10.7-4.1c0.6-2.7,0.5-4.8,1.4-6.1c9.8-12.9,18.8-26.6,30.1-38.2c13.5-13.9,18.4-29,13.6-47.6
	c-1-4-1.4-8.2-2.3-14.1c-13.5,6-19.4,18.4-29,26.6c-8.7,7.3-10,23.7-30.1,23c3.5-7.3,5.2-12.8,8.4-17c13.3-17.1,26.7-34.1,40.8-50.5
	c6-7,8.6-14,7.7-23c-1.2-11.9-2-23.8-3.2-38.5c-16.8,10.7-28.1,23.2-37.5,37.5c-5.1,7.8-10.8,10.2-20.3,5.7
	c5.8-14.1,16.6-23.8,25.3-34.8c2.2-2.8,5.3-4.9,7.8-7.4c17.4-18,26.5-38,15.1-65.2c-5.5,4.9-11.2,9-15.5,14.2
	c-8.4,10.2-15.9,21.1-23.9,31.6c-2.2,2.9-4.2,6.7-7.1,7.9c-3.8,1.6-8.5,1-12.9,1.4c0.6-3.8,0-8.3,1.9-11.2
	c5.4-7.9,11.6-15.3,17.9-22.6c10.5-12.3,21.6-24.1,31.9-36.6c3.2-3.9,6.7-9.3,6.7-13.9c0-12.9-1.8-25.9-3.1-41
	c-16.3,10.5-21.8,25.8-31,38.1c-6.2,8.3-5.8,8.6-19,5c4.5-6.8,8.3-13.3,12.8-19.3c9.4-12.5,18.8-25,28.8-37c6.4-7.6,8-16.1,6.7-25.3
	c-1.8-12.4-4.3-24.7-6.5-37.1c-9.7,4.7-24.4,18.8-32.5,31c-3.8,5.7-7,16.2-15.4,10.6c-8.9-5.9,0.2-12.6,4.2-17.8
	c8.4-11,17-21.8,26.2-32.1c10.4-11.6,18.2-23.7,13.9-40.3c-1.1-4.4-0.8-9.2-1.2-15.3c-10.2,5.1-16.2,12-21.6,19.9
	c-4.8,6.9-10.7,13-15.8,19.7c-4.2,5.5-9.5,6-13.7,1.9c-1.5-1.5-0.3-8.2,1.8-10.8c12.4-15.4,24.9-31,38.7-45.2
	c6.5-6.7,9.6-13.1,9.1-22.1c-0.5-8.7-0.1-17.5-0.1-29.9c-14.8,12.8-27.8,21.4-35.1,35.6c-2.9,5.8-6.6,9.6-12.4,5.6
	c-5.8-4.1-3.2-9.5,0.7-14c6.8-7.7,12.6-16.6,20.6-22.6c21.4-16.2,29-37.1,24.8-64.3c-16.9,8.7-27,23.3-37.6,38.5
	c-3.7-0.4-7.6-0.8-11.7-1.2c-0.5-2.5-1.6-4.7-1-5.9c3.1-5.7,6.1-11.6,10.3-16.4c10.9-12.7,21.6-26,34-37.1
	c11.4-10.2,11.1-21.3,8.2-36.8c-4.8,3.9-8.5,6.3-11.4,9.6c-6.3,7.2-12,15-18.3,22.3c-5.8,6.7-11.2,4.2-17.5-1.8
	c13.1-14.7,24.5-30.3,38.8-42.6c11.9-10.2,11.5-20.7,9-35.2C41,216,31.1,224.9,23.1,236.3c-5.3,7.6-5.9,7.2-19.4,0
	c4-5.3,7.3-10.7,11.7-15.2c8.4-8.6,16.8-17.4,26.2-24.8c14.1-10.9,15-24.4,11.1-43.8c-8.4,8.6-15,15.1-21.2,21.9
	c-4.8,5.4-9,11.3-13.5,16.9c-4.9,6-10.1,5.1-16.5-0.2c2-3.3,3.6-7.1,6.2-10c13.9-15.8,27.7-31.8,42.3-46.9c6.9-7.2,6.6-14.5,5-24.5
	c-12.5,7.3-21.6,16.4-30.7,25.8c-6.9,7.1-6.9,7.1-19.3,2.1c2.3-3.5,4-7,6.7-9.8C25.8,113.1,40.1,98.6,54.4,84c5.8-5.9,7.9-13,7-22.1
	C51.3,62.6,46,69.3,39.9,74.7c-4.5,4-8.7,8.3-13.1,12.4c-6,5.7-11.7,4.9-18.3-2.5c2.6-3.2,5-7.2,8.3-10.1c9.1-7.8,18-16.3,28.1-22.4
	c12.5-7.6,20.2-16.4,18.3-31.9c-0.5-4,0.6-8.5,2-12.3c2.4-6.6,8.2-8.9,14.6-7.7c6.8,1.3,13.4,4.5,12.4,12.8
	c-1.2,9.5-3.7,18.8-6,28.1c-7,28.6-8.8,57.7-11.4,85.6c43.3-1.4,85-2.9,126.7-4.1c42.6-1.2,85.3-1.6,128-3.1
	c81.1-2.7,162.1-6.2,243.2-8.9c36.6-1.2,73.3-1,110-1.5c3,0,6-0.1,9,0c17.5,0.3,30.3-4.6,37.9-23c8.1-19.8,24.4-34,42.4-45.2
	c7.4-4.6,16.2-8.3,24.7-9.3c47.1-5.2,76.8,17,82.9,63.9c1.6,12.1,0.5,25.6-3.3,37.1c-5.2,15.9-32.4,29.1-49.1,26.7
	c-14.9-2.2-33.9-23.4-35.8-41.3c-0.8-7.1-0.3-14.5,1.1-21.5c1.6-7.7,7.5-12.1,15.3-13.4c8.6-1.3,19.4,4.7,23.6,13.5
	c3.4,7,6.6,14.4-3.6,21.2c-1.8-2.8-3.3-5-4.6-7.4c-1.4-2.6-2.4-5.3-3.6-8c-13.5,6.1-16.5,15.8-8,26.3c7.1,8.8,16.4,15.1,28.3,12
	c12.1-3.1,22.8-9.9,25.3-23.2c4.2-22.2-2.2-42.4-18.2-57.8c-14.5-14-33.8-16.6-52.3-10.1c-23.2,8.2-42.1,23-53.6,45.7
	c-10.7,21-20,42.4-23.3,66c-0.7,5.3-1.9,10.7-3.6,15.8c-13.5,39.6-17.5,80.8-22.6,122c-4.5,37.2-4.4,74.5-3.5,111.8
	c0.3,11.9,2.1,23.7,3.4,36.4c20,0.5,24,12.6,26.6,28.6c4.9,30.8,12.4,61.2,18.3,91.8c5.1,25.9,9.4,52,14.3,77.9
	c0.8,4.1,2.5,7.9,4.1,13c7-5.8,5.4-12.6,4.5-18.8c-2.4-16.9-2.2-33.3,5-49.3c8-18,19.8-32.2,36.9-42.2c29.5-17.1,58.7-34.8,88.3-52
	c3.7-2.1,8.4-2.3,12.7-3.4c0.5,4.4,2.2,9.2,1.1,13.2c-2.8,10.8-6.7,21.4-10.8,33.6c6.7,0,10.7,0.5,14.5-0.1
	c22.1-3.6,44.2-4.7,66.5-1.1c5.8,1,12-0.7,17.7,0.6c3.2,0.7,6.9,4.5,8,7.7c0.7,2.1-2.2,7-4.7,8.2c-37.5,18.2-67.3,45.7-94.1,76.9
	c-12.5,14.6-24.8,29.3-37.6,43.5c-5.5,6.1-12.7,10.8-18.2,16.9c-24,27-37.7,59.7-48.6,93.6c-6.4,20-9.7,40.9-15.7,61
	c-6.6,22.3-15.6,44-22,66.3c-7.5,26-22.6,47.6-37.2,69.6c-23.4,35.3-56.9,56-96.7,67.9c-5.2,1.5-10.3,3.8-15.6,4.5
	c-17.2,2.1-25.1,12-29.3,28.5c-10.3,40.3-9.4,79.5,7.1,118c1.4,3.3,3.5,6.5,3.9,10c5,40.2,30.4,69.7,52.9,100.7
	c19,26.1,44.7,43.7,74.9,53c31.1,9.6,61.5,5.1,89.1-13.8c12.3-8.5,24.8-16.9,38.1-23.6c5.8-2.9,14.2-2.8,20.8-1.2
	c12.4,2.9,17.2,11,17.1,24c-0.1,11.2-3.6,20.9-11.1,29.7c-12.3,14.5-26.2,26.5-44.6,33.6 M392.9,187.5c1.4,0.9,2.8,1.9,4.2,2.8
	c4.9-4.1,9.6-8.3,14.6-12.1c31.9-24.4,79.4-27.6,107,10.6c14.2,19.7,22.6,40.4,10.4,63.5c-13.8,26.1-35.3,43.3-66,41.9
	c-13.9-0.6-27.4-7.6-41.2-11.6c-11.9-3.4-17.3-12-19.4-23.5c-3.8-20.4,2.1-38.5,14.7-54c8.5-10.5,20.7-16.9,34.5-17.3
	c22.3-0.8,45.6,28.1,40.7,49.8c-1.1,5-3,9.9-5.3,17.2c15.8-11.4,19.5-26,20.2-41.1c0.9-20.6-14.4-36.7-35-39
	c-38.4-4.3-74.4,24.1-80,64.7c-3.6,25.9-5.5,52.1-7.1,78.2c-2.3,38.1,3.4,75.5,11.5,112.6c3.1,14.4,7.4,28.6,11.3,43.1
	c45.6-2.1,89.1-4.1,132.7-6.1c0.7-5.2,1.5-8.1,1.4-11.1c-1.3-23.4-1.2-46.7,1.7-70.1c2.5-19.8-7.2-36.2-21.2-49.6
	c-12.7-12.1-27.6-13.1-43.4-6.3c-35.3,15.2-41.5,47.1-35.1,78c1.3,6.4,8.5,14.2,14.8,16.6c17.9,6.9,34.2,1,47.9-12
	c13.4-12.7,16-27.5,8.6-44.4c-6.7-15.5-18.6-20.3-33.6-13.6c-12.7,5.6-18.5,22.2-12.3,35.3c4.3,9.1,11.8,10.4,19.9,3.5
	c3-2.5,6.1-4.8,9.9-7.8c1.5,15.2-4.4,23.4-17.9,26.7c-10.5,2.6-19.2-1.4-23.1-12c-4.8-13.2-6.5-26.9-1.5-40.6
	c3.4-9.1,9.6-15.1,18.6-18.3c28.2-9.9,55.9,8.7,58.3,38.4c2.5,31.6-23.8,59.1-55.4,61.9c-29.3,2.6-49-16.6-50.7-45.6
	c-2.1-36.8,14-62.1,46-78.5c20.1-10.4,39.4-8.4,56.7,6.4c5.7,4.9,11,10.2,18.5,17.1c2.2-37.9,3-73.2,6.5-108.3
	c3.5-34.8,9.8-69.4,15.1-105.7c-56.8,1.7-112.9,3.4-169.7,5.1C397.8,152.2,395.3,169.9,392.9,187.5z M138.9,386.7
	c1.7-2.2,3.9-4.2,5.2-6.7c1.4-2.6,1.3-6.2,3.1-8.3c1.7-2,5.2-3.9,7.5-3.5c2.2,0.4,4.9,3.5,5.6,5.9c2.3,7.7-6.4,22.5-15.1,26.6
	c-9.9,4.7-20.8,1.7-26.7-7.9c-7.9-12.9-7.7-26.4-0.2-39.4c8-13.9,19.3-23.9,35-29.4c9.7-3.4,16.4-1.5,22,6.2
	c12.8,17.8,22.2,36.2,9.4,58.3c-1.5,2.5-2.1,5.6-2.7,8.6c-3.5,18.3-16.7,29.2-31.1,37.9c-23.3,14.1-53.3,1.5-60.2-24.4
	c-11.5-43,0.1-80,32.5-109.5c13.3-12.1,30.4-19.5,49.7-11.9c7,2.7,14,5.5,23.4,9.2c-8.1-47.4,1.3-92.5,4.2-139.1
	c-5.1,0.6-8.6,0.6-11.8,1.5c-27,8-53.9,16.6-81,24c-14.5,3.9-22.1,13.3-26.3,26.6c-1.1,3.4-2.1,6.9-2.8,10.4
	C67.6,275.4,66,330,68,384.7c1.2,33.5,4.2,67,6,100.5c1,19.5,4.5,22.7,24.4,20.3c3-0.4,5.9-1,8.9-1.5c26-4.7,52-8.3,78.7-6
	c9.1,0.8,18.5-2,28.3-3.3c-1.7-10.7-3.4-18.8-4.2-27.1c-3.3-34.7-6.1-69.4-9.7-104c-1.2-11.2-4.5-22.2-6.4-33.4
	c-3.2-19.1-19.2-24.1-33.8-27.7c-13.7-3.4-23,7.5-30.9,17.9c-13.5,17.8-19.2,38.8-23.1,60c-2.6,14.1,3.8,25.7,15.4,34.2
	c7.1,5.2,14.4,6.5,21.4,0.4c9-7.8,18.6-15.4,25.9-24.6c9.1-11.5,7.8-35.3-0.5-46c-5.1-6.6-10.6-8.7-18.7-4.3
	c-12.8,7-18.9,18.1-21.3,31.6C127.2,378.9,129.8,384.8,138.9,386.7z M598.8,297.9c3.6,0.7,7.4,1.8,11.4,2.3
	c5.7,0.6,11.4,0.2,12.7-6.8c1.4-7.2-0.5-14.3-8.4-15.4c-6.6-0.9-15.2-0.7-20.1,2.9c-4,2.9-5.8,11.8-5.1,17.6
	c1.4,11.6,8.1,21.2,17.3,28.7c12,9.8,22.6,9,33.1-2.5c13.5-14.8,16.4-38.7,6.7-55.4c-9.9-16.9-25.6-22.3-48.6-16.7
	c-18.1,4.4-23.8,11.7-25,29.9c-1.6,24.6-2,49.4-6,73.6c-4.3,25.9-2.2,51.4-0.4,77c0.8,11,4.2,21.9,6.1,31.4
	c35.5,2.5,68.9,4.8,103.9,7.2c-0.9-13.2-1.6-24.5-2.5-35.8c-1.1-15-3.1-29.9-3.3-44.9c-0.8-74.9,8-148.7,28.6-220.9
	c3.4-11.8,4.7-24.2,7.2-37.6c-42-6.3-81.9-5.3-121.4-4.9c-10.7,39.1-15.3,92.6-10.1,117.4c8.1-2.1,16.1-4.3,24.2-6.1
	c18.6-4.3,35.5-1.5,50.7,11.1c19.7,16.4,23.8,47.2,12.4,70c-7.2,14.4-19.1,20.7-31.2,28c-13.8,8.3-28.8,5-36.9-9.3
	c-6.2-10.9-10.7-22.7-15.7-34.3c-8.7-20.4,1.3-33.9,19.5-41.4c12-4.9,24-1.5,32.7,8.4c8.6,9.8,9.7,24,3.6,35.3
	c-4.2,7.9-10.8,9.4-18.2,7.7c-7.7-1.8-17.6-1.1-19.3-12.4C596.4,301.1,597.6,299.9,598.8,297.9z M278.4,306
	c-5.6-2.4-14.3-3.6-19.1-8.6c-15.6-16.4-27.2-34.7-24.2-59.5c2.6-21.9,16.3-36.9,38.2-38.1c17-1,28.5,8,36.7,21.8
	c7.1,12,6.3,24.2-1.5,35.6c-5.7,8.4-14.8,11.7-23.5,8c-3.3-1.4-5.6-5.4-8.3-8.2c2.8-2.6,5.3-7,8.4-7.4c6.5-0.9,12-1.5,12.8-9.5
	c0.7-7.4-2.4-12.9-8.3-16.9c-7.5-5-15.7-7.7-23.4-1.5c-8.9,7.1-17.5,15.4-16.7,28.2c0.9,15.7,12.6,30.3,27.8,34.1
	c15.3,3.8,28.6,0,38.5-13c2.2-2.9,4.8-5.5,6.5-8.7c15.4-28.4,14.6-48.9-2.7-72.2c-11.7-15.7-34.9-20.6-51.9-10.5
	c-19.4,11.5-35.6,25.7-44.9,47.6c-7.8,18.3-12.1,36.3-9,56c0.6,4.1,0.6,8.4,1.1,12.6c4.3,39.2,7.4,78.6,13.7,117.5
	c3.4,21,12.1,41.2,19.1,61.5c4.8,13.8,6.7,14.4,21.3,12.8c25.7-2.8,51.4-5.5,77.1-8.4c8.8-1,17.6-2.4,25.6-3.4
	c-0.5-29.6-2.1-57.7-1.3-85.8c1-34-14.4-57.2-42.9-73.3c-11.9-6.7-23.7-6.9-35.7,0.7c-35.2,22.1-38,61.3-20.4,93.3
	c5.9,10.6,17.2,16.8,30.7,14c16.4-3.4,31.6-8.8,37.5-26.8c0.4-1.1,0.6-2.4,0.5-3.6c-1.4-14.6-4.4-28.2-17.8-37.6
	c-7.2-5.1-13.8-7.1-21.5-2.4c-8.1,4.9-14.1,11.5-13.7,21.7c0.4,10.4,8.3,16.6,18.6,14.2c4.9-1.1,9.4-4,14.3-6.2
	c3,13.2-0.2,19.4-11.4,21.6c-11.6,2.3-21.6-1.8-28.8-10.9c-7.1-8.9-10.3-19.2-5.6-30.4c5.9-14.1,28.9-29.1,41.6-27.6
	c13.8,1.6,34.5,19,37,33.4c3.2,18.7,2.2,36.6-11.2,52.6c-22.5,27.1-67.8,25.7-84.2-5.5c-12.5-23.8-17.4-50.6-3.6-76.2
	C260.1,328.3,270.2,317.2,278.4,306z M385.2,132.1c-17.3,0.9-30.4,1.7-43.5,2.1c-37.3,1.3-73.9,7.9-110.5,14.7
	c-4.3,0.8-10.7,3.4-11.7,6.6c-4.1,12.7-6.5,26-10.1,41.8c4.9-2.4,6.9-2.8,7.9-4c16.5-20.8,40.2-27.5,64.4-33.2
	c14.7-3.4,27.8,1.3,38.4,10.8c43.5,39.2,28.4,86.5,1,114.3c-3.1,3.2-7.8,4.8-12.7,7.7c23,9.4,41.4,16.8,59.6,24.2
	C373.9,256.3,368.5,194.2,385.2,132.1z M470.3,265.8c-5.7-2.1-9.6-3.2-13.1-5c-6.4-3.3-12.8-6.5-18.5-10.8c-2.1-1.6-1.9-6.1-2.8-9.2
	c3.6-0.5,7.7-2.3,10.8-1.2c5.9,2.1,11.2,5.9,16.8,9.1c9.6-9.1,10.7-19,4.8-27.3c-5.2-7.4-13.3-16.1-21.2-17.5
	c-9.9-1.7-18.7,6.5-23.2,16.8c-1,2.2-1.8,4.5-2.7,6.7c-4.5,12.1,0.3,34.7,10,41.1C443.6,276.7,456.1,274,470.3,265.8z"/>
<path fill-rule="evenodd" clip-rule="evenodd" fill="#FFFFFF" d="M808.8,641c-0.4-25.6,27.4-55,51.1-55.5
	c18.3-0.4,31,19.8,21.8,37.8c-9.3,18.3-22.1,34.2-43.5,40.6c-18.7,5.6-25.7,1.8-28.4-17.2C809.3,644.4,809,642,808.8,641z"/>
<path fill-rule="evenodd" clip-rule="evenodd" fill="#FFFFFF" d="M850.5,575.7c-23.8,15.5-47.7,26.9-50.1,55.4
	c-20.3-1-27.7-9.4-25-26.8c4.1-26.3,30-44.8,56.5-39.5C837.4,566.1,842.3,570.9,850.5,575.7z"/>
<path fill-rule="evenodd" clip-rule="evenodd" d="M840.1,631.3c-4.3-7.4-8.2-11.4-8.7-15.8c-0.7-5.8,3-10.6,9.9-9.5
	c5.5,0.9,11.2,3.8,9.4,10.5C849.4,620.9,845.1,624.4,840.1,631.3z"/>
<path fill-rule="evenodd" clip-rule="evenodd" d="M800.1,598.8c-3.9-7.4-7-10.9-7.3-14.6c-0.6-6.2,4.8-8.3,9.6-7.3
	c3.2,0.7,8.4,5.4,7.9,7C809.2,588.1,805.4,591.5,800.1,598.8z"/>
</svg>
