<?xml version="1.0" encoding="utf-8"?>
<!DOCTYPE svg PUBLIC "-//W3C//DTD SVG 1.1//EN" "http://www.w3.org/Graphics/SVG/1.1/DTD/svg11.dtd">
<svg artist="zl2017" version="1.1" id="zlIcon-chair" xmlns="http://www.w3.org/2000/svg" xmlns:xlink="http://www.w3.org/1999/xlink" x="0px" y="0px"
	 width="1000px" height="1299.4px" viewBox="0 0 1000 1299.4" enable-background="new 0 0 1000 1299.4" xml:space="preserve">
<path fill-rule="evenodd" clip-rule="evenodd" fill="#FFFFFF" d="M306.8,746c-6.3-3.1-12.7-6.1-20.4-9.8c-6.3,7.7-11.3,15-17.4,21.1
	c-9,9.1-2.6,15.7,2.5,22.9c-24.7-6-35.4,0.2-46,28.6c7.6,4.4,15.5,9.1,23.5,13.8c6.6-6,10.9-11.3,16.3-14.6
	c13.1-7.9,12.1-17.6,5.2-28.7c6.2,1.7,12.3,3.4,16.2,4.4c9.3-5.1,16.8-9.3,24.4-13.4c-3.5,9.5-6.9,19-10.8,29.9
	c-16.9-5.4-24.3,8-31.2,20c-6.3,10.9,3.7,18.2,9.3,26.1c-22.8-8.7-22.2-8.1-39.8,11.9c-6.1,7-9.8,19-26.7,19.4
	c11.3-16.7,20.5-30.3,30.5-45c-10.4-7.4-18.2-13.1-25.2-18.1c-19.8,8.1-25,33.2-51.5,34.3c11.1-15.2,20.4-27.9,29.7-40.5
	c-17.9-13.9-27.4-17.3-35.1-11.6c-11.1,8.3-21.6,17.5-35,28.5c10.7,9.8,17.2,15.5,23.4,21.4c4.4,4.2,8.4,8.7,12.6,13.1
	c-16.6-10.3-33.3-20.5-49.7-31.1c-21-13.7-41.9-27.3-68-32.5c7.7,61.8,76.4,105.1,143.3,90.9c-9.3-9.8-17.9-19-26.5-28.3
	c11.9,8.4,23.8,16.8,35.9,25c3.8,2.6,7.9,6.5,11.9,6.5c42-0.1,84-0.7,122.7-1.2c7.8-13.9,13.2-24.8,19.8-34.9
	c4.3-6.6,8.3-12.5,3.2-20.3c22.7,3.1,26.1-18,41.5-31c-10.2-6.5-18-11.4-26.9-17c-7.4,7-13.5,13.6-20.5,19.1
	c-8,6.3-4.7,12.9-1.9,19.8c-15.4-2.2-22.6,9-32.1,18c-9.1,8.7-2.9,17.2-0.7,26.5c-17.2-3.4-30.2-8.5-35.9-24.1
	c7.1,1.4,14.2,2.7,22.4,4.3c7.2-12.6,13.7-24.7,20.9-36.4c1.9-3.1,5.3-6.1,8.6-7.2c14.4-4.9,18.3-17,22.6-28.8
	c-23.1-19.3-23.1-19.3-41.5-6.1c-1.4-8.6-2.8-17.2-4.2-25.9c30.7,2.3,22.3,3,37.9-22.6c-4.8-3.2-9.2-7.1-14.4-9.3
	c-14.6-6.4-28.3,4.6-26.3,20.8C303.8,738.2,305.6,742.1,306.8,746z"/>
<path fill-rule="evenodd" clip-rule="evenodd" fill="#FFFFFF" d="M214.8,736.4c5.3-6.2,10.7-12.4,16.7-19.5
	c-1.7-6.1-3.6-12.9-5.3-19.4c-25.3-6.3-30.2,14.3-41.1,26.6c8.2,12.8,18.3,15.3,30.5,11.5c1.1,14.9,16.1,17.3,23.6,26.4
	c-6.9-2.4-13.7-5.4-20.7-7c-10.8-2.5-32.1,10.5-35,21.7c-3.7,14.5,10.6,13.8,17.6,19.2c1.8,1.4,4.4,1.6,8.7,3
	c9.5-12.2,19.2-24.7,28.8-37.3c15.8-4.7,25.4-16,34.2-30.8c-9.8-5.2-18.2-9.8-25.1-13.6C235.6,724.2,225.2,730.3,214.8,736.4z"/>
<path fill-rule="evenodd" clip-rule="evenodd" fill="#FFFFFF" d="M161.5,734.3c-2.4,4.6-4,9.9-7.2,13.8c-4.3,5.2-9.7,9.5-17.1,16.3
	c10.7,6.5,17.9,10.8,26.5,16c8.9-13.9,24-19.6,28.8-37.5c-11.9-3-21.9-5.4-32-7.9c5.6-9.1,11.1-18.2,16.7-27.4
	c-55.8-5.9-114.7,20-135.6,65.4c14.4,9.3,29.1,18.9,47.5,30.9c4.6-19.5,30.5-22.7,22.8-47.5c9.5,4.1,16.8,5.2,24.4-4
	C142.7,744.8,152.9,740.3,161.5,734.3z"/>
<path fill-rule="evenodd" clip-rule="evenodd" fill="#FFFFFF" d="M715.5,421l-0.5-0.5c-6.5,8.9-13,17.7-21.4,29.1
	c14.9,14.5,29,31.6,50.1,39.9c9.4,3.7,18.8,2.3,28.2-4c37.1-24.8,74.5-49.4,112.5-72.9c25.4-15.7,44.4-37.1,60.9-61.3
	c8.8-12.9,14.1-28,9.3-42.5c-10.3-30.7-24.9-59.5-52.4-81.5c-19.7,10.8-39.3,21.6-58.9,32.3c-0.7-1.1-1.5-2.2-2.2-3.2
	c17.5-13.2,35.1-26.4,54.4-40.9c-8-7.1-14.5-12.9-20.7-18.4c-28.7,13.6-54.7,28.9-86.1,31.6c25.3-13.9,50.6-27.9,76.7-42.2
	c-25.1-40.5-49.2-78-91.5-98.6c-37.3,17.6-74.6,35.2-111.9,52.8c-0.9-1.7-1.7-3.4-2.6-5.1c34.8-17.6,69.7-35.3,105.2-53.2
	c-7.6-18.4-23.7-26-37.8-36c-22.7-16.1-45.6-29.3-74.4-15c-2.5,1.2-6.9,1-9.3-0.5c-8.6-5.4-15-0.2-19.6,5
	c-9.3,10.4-19,21.2-25.7,33.3c-30.5,55.3-50.5,115-71.3,174.4c-2.3,6.5-2,14-2.9,21.1c8.7-2.9,15.8-5.3,22.9-7.7l-0.6-0.6
	c-2.7,5.1-4.1,12.4-8.3,14.8c-15.8,9.2-12.6,21.2-7.1,34.1c2.6,6.1,5.3,12.2,8.9,17.7c21.9,33.7,50.4,60.6,85.5,83.1
	c13.7-10.3,27.7-20.8,41.7-31.3c-3.1,18.8-27.3,21.6-26.3,43.3c14.4,7.7,28.8,15.4,40.3,21.6C694.4,432.6,705,426.8,715.5,421z"/>
<path fill-rule="evenodd" clip-rule="evenodd" fill="#FFFFFF" d="M427.2,713.8c3.2,15.5-13.6,18.7-14.2,29.8c20,20,20,19.9,38.3,2.2
	c1.8-1.8,4.7-2.4,11.6-5.9c-3.5,7.5-4.5,10.4-6,12.9c-3.8,6.2-11.3,13-3.6,19.5c6.4,5.4,15.4,8.2,23.8,10.3
	c3.2,0.8,7.6-3.8,11.5-5.9c-6.7,19,11.2,27.2,16.6,43.2c-16.4-0.1-20.9-15.9-34.8-18.6c-11.8,11.2-24.7,23.4-38.7,36.7
	c-2.6-4.5-4-7.3-5.7-9.8c-11.3-17.2-21.5-18.4-35.4-3.6c-11.8,12.6-23.2,25.6-34.2,38.8c-4.4,5.3-7.4,11.9-11.7,18.9
	c43.2,5.4,181.6-24.9,210.1-46.2c-5.2-8.7-9.1-19.1-16.2-26.4c-27.5-28.5-49.9-61.4-81.9-86.1c-21.8-16.8-42.9-33-69.4-41.9
	c-28.3-9.5-35.4-7.3-56.2,22.2c7.6,3.4,14.9,6.4,22,9.7c8.6,4.1,17.6,7.6,25.6,12.8c18.4,12.1,18.1,12.4,35.5-3
	C417.7,720.3,421.8,717.8,427.2,713.8z"/>
<path fill-rule="evenodd" clip-rule="evenodd" fill="#FFFFFF" d="M235.9,696.9c2.7,2.2,5.1,5.7,7.6,5.8c10.5,0.6,17.9,4.8,25.7,12.3
	c12.2,11.7,23,6.5,31.7-13C278.6,681.4,263.8,680.1,235.9,696.9z"/>
<path fill-rule="evenodd" clip-rule="evenodd" fill="#FFFFFF" d="M100.8,810.8c8.1,6.2,15.2,14.4,24.3,5.5
	c9.7-9.5,18.1-20.2,27.1-30.4C128.7,767.1,115,774,100.8,810.8z"/>
<path fill-rule="evenodd" clip-rule="evenodd" fill="#FFFFFF" d="M366.6,768.8c7-7.9,13.4-15.1,19.6-22.1
	c-10.6-13.6-22.3-20.1-30.8-14.7c-6.3,4-13.5,11.9-13.9,18.5C340.6,764.3,353.5,765.8,366.6,768.8z"/>
<path fill-rule="evenodd" clip-rule="evenodd" fill="#FFFFFF" d="M426.6,766.7c-9.5-4.8-16.3-10-23.8-11.7
	c-11.4-2.5-15.2,6.5-18.8,15.4c-3.7,9.6-0.4,15.8,7.7,20.6c8.7,5.1,15.5,3.2,21-5.2C416.1,780.2,420.2,775.3,426.6,766.7z"/>
<path fill-rule="evenodd" clip-rule="evenodd" fill="#FFFFFF" d="M440.7,771.6c-8.9,11-15.7,19.4-22.9,28.3
	c6.6,7.4,11.2,12.7,14.6,16.5c10.7-7.6,20.1-14.2,30.5-21.6C454.4,786,449.4,780.8,440.7,771.6z"/>
<path fill-rule="evenodd" clip-rule="evenodd" fill="#FFFFFF" d="M323.8,680.8c-6,1.1-11.9,2.1-22.1,4
	C315.4,691.4,315.4,691.4,323.8,680.8z"/>
<path fill-rule="evenodd" clip-rule="evenodd" d="M516.9,1232.8c-27.5-47.1-24.2-98.2-27.3-148.4c-3.3-54.5-9.2-108.8-13.7-163.2
	c-1-11.6-7.3-16.6-18-15.7c-9.9,0.8-19.7,2.6-29.3,5.1c-26.3,6.9-52.5,14.5-81.6,22.6c-6.6,30.1-13.8,62.2-20.8,94.4
	c-2.6,12.1-3.1,24.4-19,28.4c-18.9,4.7-27.1-1.6-23.4-20.8c5-26,10.4-51.9,15.3-77.9c2.8-14.6,0.4-16.1-15.2-15
	c-17.9,1.3-35.9,1.2-53.9,1.9c-1.5,0.1-3,1.2-7.2,2.9c-7.5,110.9-13.9,222.8,9.1,334.3c-6.7,2.6-12.3,4.1-17.2,6.9
	c-4.9,2.8-9.1,6.9-14.3,10.9c-20.5-11.6-31.7-27.5-33.6-51.5c-2.2-28-7.5-55.7-10.6-83.6c-3.5-31.2-6.2-62.5-9-93.8
	c-3.5-40.4-6.4-80.8-10.6-121.1c-0.5-5.1-6.1-11.9-11-13.9c-10.5-4.3-22.1-6-33.3-8.8c-13.4,8.2-18.6,20.9-22,34.9
	c-7.7,32.2-15.2,64.5-23.6,96.5c-4.5,17-5.9,35.7-20.2,48.8C-1,1088-3.5,1081,4.4,1048.4c10.4-42.6,20.5-85.2,30.7-127.8
	c4.2-17.7,2.9-32.6-10.8-48C5.6,851.7,7.5,823.3,6.6,796.9c-0.3-8.9,2.2-18,4.1-26.9c7-32.4,24.6-54.4,57.4-65.5
	c48.9-16.5,98.7-27.9,150-33.4c43.6-4.7,87.1-10,130.8-14.2c15.6-1.4,31.4-0.2,50.3-0.2c3.8-18.6,7.4-37.7,11.7-56.7
	c11-49.2,22.5-98.3,33.5-147.5c2.3-10.4,1.8-21.6,4.8-31.8c10.3-33.9,21.7-67.5,32.4-101.3c15-47.2,29.1-94.6,44.8-141.5
	c16.9-50.5,39.9-98.3,69.6-142.7c21.2-31.7,50.5-40.1,86.2-33c25.7,5.1,48.9,13.7,67.5,34c9.8,10.7,24.3,17.1,35.7,26.5
	c28.7,23.6,57.6,46.9,84.9,72.1c15.7,14.5,30.2,31,42,48.8c26.9,40.7,52.6,82.2,77,124.4c12.4,21.4,16.6,41.4-3.9,63.8
	c-32.8,35.8-70.5,64.8-112.7,89c-25.6,14.7-48.8,33.4-73.1,50.5c-16.1,11.4-31.4,24.1-48.3,34.1c-37.6,22.4-62,57.1-87.5,90.7
	c-40.8,53.8-68.3,115-97.2,173.9c0.7,2.5,0.8,3.4,1.2,4.1c14.4,29,11.1,47.8-15.2,68.1c-8.7,6.7-10.8,13-11.1,22.7
	c-1.3,43.7-4.9,87.5-4.4,131.1c0.5,39.7,5,79.3,8,118.9c1.7,22.2,4,44.3,5.8,66.5c0.7,9.3-5.5,14.3-13.4,14.7
	C530.2,1236.5,522.9,1233.9,516.9,1232.8z M306.8,746c-6.3-3.1-12.7-6.1-20.4-9.8c-6.3,7.7-11.3,15-17.4,21.1
	c-9,9.1-2.6,15.7,2.5,22.9c-24.7-6-35.4,0.2-46,28.6c7.6,4.4,15.5,9.1,23.5,13.8c6.6-6,10.9-11.3,16.3-14.6
	c13.1-7.9,12.1-17.6,5.2-28.7c6.2,1.7,12.3,3.4,16.2,4.4c9.3-5.1,16.8-9.3,24.4-13.4c-3.5,9.5-6.9,19-10.8,29.9
	c-16.9-5.4-24.3,8-31.2,20c-6.3,10.9,3.7,18.2,9.3,26.1c-22.8-8.7-22.2-8.1-39.8,11.9c-6.1,7-9.8,19-26.7,19.4
	c11.3-16.7,20.5-30.3,30.5-45c-10.4-7.4-18.2-13.1-25.2-18.1c-19.8,8.1-25,33.2-51.5,34.3c11.1-15.2,20.4-27.9,29.7-40.5
	c-17.9-13.9-27.4-17.3-35.1-11.6c-11.1,8.3-21.6,17.5-35,28.5c10.7,9.8,17.2,15.5,23.4,21.4c4.4,4.2,8.4,8.7,12.6,13.1
	c-16.6-10.3-33.3-20.5-49.7-31.1c-21-13.7-41.9-27.3-68-32.5c7.7,61.8,76.4,105.1,143.3,90.9c-9.3-9.8-17.9-19-26.5-28.3
	c11.9,8.4,23.8,16.8,35.9,25c3.8,2.6,7.9,6.5,11.9,6.5c42-0.1,84-0.7,122.7-1.2c7.8-13.9,13.2-24.8,19.8-34.9
	c4.3-6.6,8.3-12.5,3.2-20.3c22.7,3.1,26.1-18,41.5-31c-10.2-6.5-18-11.4-26.9-17c-7.4,7-13.5,13.6-20.5,19.1
	c-8,6.3-4.7,12.9-1.9,19.8c-15.4-2.2-22.6,9-32.1,18c-9.1,8.7-2.9,17.2-0.7,26.5c-17.2-3.4-30.2-8.5-35.9-24.1
	c7.1,1.4,14.2,2.7,22.4,4.3c7.2-12.6,13.7-24.7,20.9-36.4c1.9-3.1,5.3-6.1,8.6-7.2c14.4-4.9,18.3-17,22.6-28.8
	c-23.1-19.3-23.1-19.3-41.5-6.1c-1.4-8.6-2.8-17.2-4.2-25.9c30.7,2.3,22.3,3,37.9-22.6c-4.8-3.2-9.2-7.1-14.4-9.3
	c-14.6-6.4-28.3,4.6-26.3,20.8C303.8,738.2,305.6,742.1,306.8,746z M214.8,736.4c5.3-6.2,10.7-12.4,16.7-19.5
	c-1.7-6.1-3.6-12.9-5.3-19.4c-25.3-6.3-30.2,14.3-41.1,26.6c8.2,12.8,18.3,15.3,30.5,11.5c1.1,14.9,16.1,17.3,23.6,26.4
	c-6.9-2.4-13.7-5.4-20.7-7c-10.8-2.5-32.1,10.5-35,21.7c-3.7,14.5,10.6,13.8,17.6,19.2c1.8,1.4,4.4,1.6,8.7,3
	c9.5-12.2,19.2-24.7,28.8-37.3c15.8-4.7,25.4-16,34.2-30.8c-9.8-5.2-18.2-9.8-25.1-13.6C235.6,724.2,225.2,730.3,214.8,736.4z
	 M161.5,734.3c-2.4,4.6-4,9.9-7.2,13.8c-4.3,5.2-9.7,9.5-17.1,16.3c10.7,6.5,17.9,10.8,26.5,16c8.9-13.9,24-19.6,28.8-37.5
	c-11.9-3-21.9-5.4-32-7.9c5.6-9.1,11.1-18.2,16.7-27.4c-55.8-5.9-114.7,20-135.6,65.4c14.4,9.3,29.1,18.9,47.5,30.9
	c4.6-19.5,30.5-22.7,22.8-47.5c9.5,4.1,16.8,5.2,24.4-4C142.7,744.8,152.9,740.3,161.5,734.3z M715.5,421l-0.5-0.5
	c-6.5,8.9-13,17.7-21.4,29.1c14.9,14.5,29,31.6,50.1,39.9c9.4,3.7,18.8,2.3,28.2-4c37.1-24.8,74.5-49.4,112.5-72.9
	c25.4-15.7,44.4-37.1,60.9-61.3c8.8-12.9,14.1-28,9.3-42.5c-10.3-30.7-24.9-59.5-52.4-81.5c-19.7,10.8-39.3,21.6-58.9,32.3
	c-0.7-1.1-1.5-2.2-2.2-3.2c17.5-13.2,35.1-26.4,54.4-40.9c-8-7.1-14.5-12.9-20.7-18.4c-28.7,13.6-54.7,28.9-86.1,31.6
	c25.3-13.9,50.6-27.9,76.7-42.2c-25.1-40.5-49.2-78-91.5-98.6c-37.3,17.6-74.6,35.2-111.9,52.8c-0.9-1.7-1.7-3.4-2.6-5.1
	c34.8-17.6,69.7-35.3,105.2-53.2c-7.6-18.4-23.7-26-37.8-36c-22.7-16.1-45.6-29.3-74.4-15c-2.5,1.2-6.9,1-9.3-0.5
	c-8.6-5.4-15-0.2-19.6,5c-9.3,10.4-19,21.2-25.7,33.3c-30.5,55.3-50.5,115-71.3,174.4c-2.3,6.5-2,14-2.9,21.1
	c8.7-2.9,15.8-5.3,22.9-7.7l-0.6-0.6c-2.7,5.1-4.1,12.4-8.3,14.8c-15.8,9.2-12.6,21.2-7.1,34.1c2.6,6.1,5.3,12.2,8.9,17.7
	c21.9,33.7,50.4,60.6,85.5,83.1c13.7-10.3,27.7-20.8,41.7-31.3c-3.1,18.8-27.3,21.6-26.3,43.3c14.4,7.7,28.8,15.4,40.3,21.6
	C694.4,432.6,705,426.8,715.5,421z M525.1,346.6c-3.5,7.7-6,14.2-9.3,20.4c-26.6,50.5-54.2,100.5-66.7,157
	c-4.3,19.3-9.3,38.5-12.6,58c-3.9,22.8-7.6,45.7-9.3,68.6c-1.1,14.2,5.1,24.8,17.6,35.4c32.1,27.2,61.3,57.7,91.6,87
	c4.5,4.3,8.4,9,15.5,16.7c14.5-29.7,27.3-56.4,40.4-82.9c5.5-11,11.1-22,17.9-32.3c15-22.7,31.1-44.7,46.2-67.4
	c13.7-20.6,26.7-41.5,40-62.4c5.6-8.8,10.9-17.8,16.7-27.1C650,459.4,581.6,411.1,525.1,346.6z M427.2,713.8
	c3.2,15.5-13.6,18.7-14.2,29.8c20,20,20,19.9,38.3,2.2c1.8-1.8,4.7-2.4,11.6-5.9c-3.5,7.5-4.5,10.4-6,12.9
	c-3.8,6.2-11.3,13-3.6,19.5c6.4,5.4,15.4,8.2,23.8,10.3c3.2,0.8,7.6-3.8,11.5-5.9c-6.7,19,11.2,27.2,16.6,43.2
	c-16.4-0.1-20.9-15.9-34.8-18.6c-11.8,11.2-24.7,23.4-38.7,36.7c-2.6-4.5-4-7.3-5.7-9.8c-11.3-17.2-21.5-18.4-35.4-3.6
	c-11.8,12.6-23.2,25.6-34.2,38.8c-4.4,5.3-7.4,11.9-11.7,18.9c43.2,5.4,181.6-24.9,210.1-46.2c-5.2-8.7-9.1-19.1-16.2-26.4
	c-27.5-28.5-49.9-61.4-81.9-86.1c-21.8-16.8-42.9-33-69.4-41.9c-28.3-9.5-35.4-7.3-56.2,22.2c7.6,3.4,14.9,6.4,22,9.7
	c8.6,4.1,17.6,7.6,25.6,12.8c18.4,12.1,18.1,12.4,35.5-3C417.7,720.3,421.8,717.8,427.2,713.8z M235.9,696.9
	c2.7,2.2,5.1,5.7,7.6,5.8c10.5,0.6,17.9,4.8,25.7,12.3c12.2,11.7,23,6.5,31.7-13C278.6,681.4,263.8,680.1,235.9,696.9z M100.8,810.8
	c8.1,6.2,15.2,14.4,24.3,5.5c9.7-9.5,18.1-20.2,27.1-30.4C128.7,767.1,115,774,100.8,810.8z M366.6,768.8c7-7.9,13.4-15.1,19.6-22.1
	c-10.6-13.6-22.3-20.1-30.8-14.7c-6.3,4-13.5,11.9-13.9,18.5C340.6,764.3,353.5,765.8,366.6,768.8z M426.6,766.7
	c-9.5-4.8-16.3-10-23.8-11.7c-11.4-2.5-15.2,6.5-18.8,15.4c-3.7,9.6-0.4,15.8,7.7,20.6c8.7,5.1,15.5,3.2,21-5.2
	C416.1,780.2,420.2,775.3,426.6,766.7z M440.7,771.6c-8.9,11-15.7,19.4-22.9,28.3c6.6,7.4,11.2,12.7,14.6,16.5
	c10.7-7.6,20.1-14.2,30.5-21.6C454.4,786,449.4,780.8,440.7,771.6z M323.8,680.8c-6,1.1-11.9,2.1-22.1,4
	C315.4,691.4,315.4,691.4,323.8,680.8z"/>
<path fill-rule="evenodd" clip-rule="evenodd" d="M786.6,436.3c6.5-15.3,73.8-81.3,127.7-124.8c3.3-2.7,8.2-3.4,14-2.9
	c-18.2,27.6-47.1,44-69.5,66.9c-22,22.4-45.3,43.5-68.1,65.3C789.3,439.3,787.9,437.8,786.6,436.3z"/>
<path fill-rule="evenodd" clip-rule="evenodd" d="M731.2,67.4C671.6,91,617.2,114,577,160.9c-1.2-1.1-2.4-2.2-3.7-3.3
	c1.5-4,1.8-9.1,4.6-11.7c41.3-38,87.9-66.8,143-80.3C722.3,65.3,724.1,66.1,731.2,67.4z"/>
<path fill-rule="evenodd" clip-rule="evenodd" d="M883.2,273.9c0.4,7.7,2,12.1,0.6,13.4c-17.6,16.5-35.6,32.6-53.6,48.8
	c-1.4-1.5-2.7-3-4.1-4.5C844.2,313.4,862.2,295.2,883.2,273.9z"/>
<path fill-rule="evenodd" clip-rule="evenodd" d="M638.2,74c18.5-13.3,35.1-30.6,61.4-33.2C691.8,54.6,667.6,68,638.2,74z"/>
<path fill-rule="evenodd" clip-rule="evenodd" d="M705.4,282c17.6-19.9,42.3-28.4,67-37.1c-21.2,13.8-42.4,27.7-63.6,41.5
	C707.7,285,706.5,283.5,705.4,282z"/>
<path fill-rule="evenodd" clip-rule="evenodd" d="M729.9,335.5c-2.6,3.7-4.6,8.5-8.1,11c-13.8,10.1-28.1,19.4-42.9,29.5
	c2.9-10,2.5-10.4,22-24c9.1-6.3,19.5-10.7,29.3-16L729.9,335.5z"/>
<path fill-rule="evenodd" clip-rule="evenodd" d="M640.2,330.6c-8.4,14.1-17.4,27.6-35.8,28.6c9-13.4,18-27,36.3-28.1L640.2,330.6z"
	/>
<path fill-rule="evenodd" clip-rule="evenodd" d="M680.9,236.5c15.3-13.1,31.9-23.6,52-27.6c-18,8.1-29.6,28.4-52.5,27.1
	L680.9,236.5z"/>
<path fill-rule="evenodd" clip-rule="evenodd" d="M730.3,336c14.2-13.7,28.4-27.6,48.5-32.8c-17.9,8.3-26.3,30.9-48.9,32.3
	L730.3,336z"/>
<path fill-rule="evenodd" clip-rule="evenodd" d="M610.2,284.5c-14.2,10.7-28.3,21.3-42.5,32c-1.1-1.3-2.2-2.7-3.2-4.1
	c12.5-12.3,27.1-22.2,42.1-31.5C607.8,282.2,609,283.3,610.2,284.5z"/>
<path fill-rule="evenodd" clip-rule="evenodd" d="M569.4,243.8c5-21.1,22-26.4,40.5-29.8C596.4,223.9,582.9,233.8,569.4,243.8
	L569.4,243.8z"/>
<path fill-rule="evenodd" clip-rule="evenodd" d="M609,166c11.7-6.8,23.3-13.6,34.9-20.4c0.9,1.4,1.9,2.8,2.8,4.2
	c-11.1,7.2-22.3,14.4-33.4,21.5C611.9,169.5,610.4,167.7,609,166z"/>
<path fill-rule="evenodd" clip-rule="evenodd" d="M659.7,315.1c10-8.8,20.1-17.5,30.1-26.3c-4.8,16.2-5.5,16.8-28.8,27.7
	L659.7,315.1z"/>
<path fill-rule="evenodd" clip-rule="evenodd" d="M563.2,208.2c-0.1-13.9,11.8-15.7,19.8-21.6C583.1,199.8,571.1,202.3,563.2,208.2z
	"/>
<path fill-rule="evenodd" clip-rule="evenodd" d="M639.4,259.5c13.8-7.7,27.7-15.3,41.5-23l-0.5-0.5c-11.3,12.3-21.2,27.1-41.5,22.9
	L639.4,259.5z"/>
<path fill-rule="evenodd" clip-rule="evenodd" d="M784.9,365.5c-8.8,8.6-17.6,17.2-26.3,25.7c-1.2-1.4-2.4-2.8-3.7-4.3
	c7.3-10.4,16.8-18.1,30.4-21L784.9,365.5z"/>
<path fill-rule="evenodd" clip-rule="evenodd" d="M715.5,421c0.8-12.9,11.5-15.6,21.4-18.9c-3.8,9.9-10.5,16.7-21.8,18.4L715.5,421z
	"/>
<path fill-rule="evenodd" clip-rule="evenodd" d="M785.3,366c3.4-11.1,12.3-15.1,22.3-17.9c-5.1,9.1-11.2,16.9-22.7,17.4L785.3,366z
	"/>
<path fill-rule="evenodd" clip-rule="evenodd" d="M648.7,189.5c-3.6,13.1-16.7,10.8-25.6,15.4c5.6-10.2,16.3-11.8,26.2-14.7
	L648.7,189.5z"/>
<path fill-rule="evenodd" clip-rule="evenodd" d="M546.7,257.1c0.9-15.8,11.3-15.3,22.7-13.4c0,0,0,0,0,0
	c-7.8,4.2-15.5,8.5-23.3,12.8C546.1,256.5,546.7,257.1,546.7,257.1z"/>
<path fill-rule="evenodd" clip-rule="evenodd" d="M748.8,141.1c-6,3.2-12,6.4-18,9.6c-0.7-1.3-1.5-2.5-2.2-3.8
	c5.8-3.4,11.5-6.8,17.3-10.2C746.9,138.1,747.8,139.6,748.8,141.1z"/>
<path fill-rule="evenodd" clip-rule="evenodd" d="M649.3,190.2c6.2-7.6,11.9-16.2,28.7-10.9c-12.3,4.4-20.8,7.4-29.3,10.4
	C648.7,189.5,649.3,190.2,649.3,190.2z"/>
<path fill-rule="evenodd" clip-rule="evenodd" d="M638.9,258.9c1.2,10.6-6.1,12.8-15.6,12.3c5.4-3.8,10.8-7.7,16.1-11.6
	C639.4,259.5,638.9,258.9,638.9,258.9z"/>
<path fill-rule="evenodd" clip-rule="evenodd" d="M660.9,316.5c-4.4,8.3-9.8,15.3-20.7,14.1c0,0,0.5,0.5,0.5,0.5
	c2.4-10.1,9.6-14.4,19-16.1L660.9,316.5z"/>
<path fill-rule="evenodd" clip-rule="evenodd" d="M755.7,132.2c4.6-2.2,9.1-4.4,13.7-6.6c0.6,1,1.1,2,1.7,3
	c-4.1,2.6-8.3,5.1-12.4,7.7C757.6,134.9,756.7,133.6,755.7,132.2z"/>
</svg>
