<?xml version="1.0" encoding="utf-8"?>
<!DOCTYPE svg PUBLIC "-//W3C//DTD SVG 1.1//EN" "http://www.w3.org/Graphics/SVG/1.1/DTD/svg11.dtd">
<svg artist="zl2017" version="1.1" id="zlIcon-cloud-a" xmlns="http://www.w3.org/2000/svg" xmlns:xlink="http://www.w3.org/1999/xlink" x="0px" y="0px"
	 width="1000px" height="472.5px" viewBox="0 0 1000 472.5" enable-background="new 0 0 1000 472.5" xml:space="preserve">
<g>
	<path fill-rule="evenodd" clip-rule="evenodd" d="M996.3,351.1c-30.6,39.9-48.8,61.8-103.9,67.8c-27.2,3-51.2,0.3-77.3-8.4
		c-34.1-11.4-51.3,4.7-82.7,18.8c-54.1,24.2-121.8,16.8-176.7-0.8c-50.3-16.2-70.9-36.9-115-5.3c-156,111.7-507.4,31.2-429-214.6
		C50.4,87.6,118.5,35,241.6,8c47.2-10.3,96.5-14.3,140.2,10.4c58.8,33.2,56.5,42.7,120.1,30.6c63.7-12.1,126.3-3.9,179.5,33.9
		c13.5,9.6,89.2,101.6,96.7,99.5C887.8,151.2,1022.1,222.3,996.3,351.1C995.6,352,998.2,341.3,996.3,351.1z"/>
	<path fill-rule="evenodd" clip-rule="evenodd" fill="#FFFFFF" d="M457.6,87.1C485.8,25.5,618,57.3,657.2,79
		c23.9,13.2,50,40.9,64.6,64.7c14.2,23.2,32.7,50.1,16.4,72.8c52.8-28.6,101.2-45.8,160.6-22.8c42.3,16.4,92.1,67.3,84.8,116.9
		c-7.1,48.8-12.4,80.7-67,94c-22.8,5.6-48.2,8-71.4,3.1c-18.7-4-53.5-37.4-66.6-36.6c6.5-0.4-30.6,39.6-35.8,42.2
		c-34.5,17.8-75.3,22.5-113.6,20c-71.4-4.5-116.6-29.6-163.9-77.3c-33.4,33.8-46.1,67.8-99.3,83.7c-57.2,17.2-113.2,19.9-171.3,3.5
		c-88.2-24.9-181.9-81.6-174-183C30.3,136.9,93.5,57.7,213.5,25.8c81.3-21.6,187.8-5.8,243.6,61"/>
</g>
</svg>
