<?xml version="1.0" encoding="utf-8"?>
<!DOCTYPE svg PUBLIC "-//W3C//DTD SVG 1.1//EN" "http://www.w3.org/Graphics/SVG/1.1/DTD/svg11.dtd">
<svg artist="zl2017" version="1.1" id="zlIcon-cloud-lighting" xmlns="http://www.w3.org/2000/svg" xmlns:xlink="http://www.w3.org/1999/xlink" x="0px" y="0px"
	 width="1000px" height="1123.7px" viewBox="0 0 1000 1123.7" enable-background="new 0 0 1000 1123.7" xml:space="preserve">
<path fill-rule="evenodd" clip-rule="evenodd" d="M791.3,529.4c-19.7,21.7-34.8,40.9-52.7,57.1c-17.8,16.2-37.2,31.7-58.2,43.3
	c-20.7,11.5-44.4,17.8-67.8,26.7c-0.9,10.1-2.8,19.3-2.4,28.5c1.8,44.2,4.2,88.5,6.3,130.6c11.9,10.7,23.9,10.9,36.1,11.6
	c17.5,1.1,35,2.4,52.3,5.1c21.2,3.4,25.3,9.4,22.7,29.7c-4.2,33.2-8.8,66.4-13.4,101.1c13.7,4.4,26.2,8.4,41.6,13.4
	c-12.8,25.3-25.5,48.3-36.1,72.2c-10.3,23.3-18.5,47.5-29,74.9c-5.2-5.3-10.1-7.9-11.1-11.7c-5.8-22.1-9.7-44.8-16.2-66.6
	c-6.1-20.6-14.6-40.4-22.1-60.6c-2.2-6.1-4.4-12.1-6.1-16.7c9.6-15.3,21.5-0.2,32.7-7.2c2.1-21.7-3.7-43.1-9.9-65.5
	c-31.7-5.5-56.5,20.6-89.4,15.6c-15-20.1-23.5-45.6-34.1-70c-26.4-60.5-52.9-121-80-181.3c-7.7-17.1-17.3-31.6-37.5-39.4
	c-16.9-6.5-30.8-21-47.2-32.7c-20.2,8.7-41,17.8-61.9,26.7c-20.1,8.6-41.3,12.8-63,12.5c-57.8-0.8-112-14.2-159.9-48
	c-31.8-22.4-54.6-52.3-67.9-88.5C6,460-1,428.5,0.8,395.5c1.6-29.6,0.1-59.4,1.8-89c4.6-77.9,22.6-151.9,69.5-216.3
	c7.1-9.8,14.9-19.2,22.9-28.3c35.9-40.6,80.2-61.7,135.2-61.8c22.9,0,45.5-1.1,68,4.6c30.5,7.8,58.4,20.1,81.1,43
	c15.1,15.3,33.1,27.8,47.9,43.4c14.6,15.4,26.7,33.2,41.2,51.5c14.3-9.1,28.2-17.2,41.2-26.4c37.8-26.8,80.7-38.7,125.9-36.8
	c51.2,2.1,97.6,19.1,132.3,59.9c22.1,25.9,39.5,54.4,49.9,87c2.8,8.9,5.7,17.8,9.2,28.6c11.2-0.8,21.8-1.2,32.2-2.5
	c23.9-3,46,1.8,65,16.3c18.2,13.9,36.5,27.9,52.6,44c20.4,20.5,22.4,47.2,22.7,75.2c0.6,62.1-29.9,104.5-80.1,135.8
	c-31.8,19.9-66.3,20.4-101.6,13.1C808.7,534.9,799.9,531.8,791.3,529.4z M491.7,176.6c-1.2,17.4-0.1,26.8-3,34.8
	c-2,5.4-11.7-2.7-19.3-19.7c-2.2-4.9-4.2-9.9-6.4-14.8C423.6,88.8,351.5,43.3,260,28.8c-48.5-7.7-96.7,1.6-136.6,35.8
	c-48.1,41.2-76.6,93.7-89.1,154.6c-5.6,27.5-6.4,56.1-8.3,84.2c-0.9,13.4-1.5,27.4,1.5,40.2C36,380.3,43,417.9,56.9,452.6
	c26.5,65.8,67.3,120.3,141,139c29.8,7.6,59.8,16.8,91.4,11.1c35.1-6.3,67.9-17.2,92.6-45c1.7-1.9,6.6-1,10.6-1.4
	c-1,3.9-1.7,6.4-2.4,9c-1,3.8-2.1,7.5-3,10.9c21.2,21.5,27.4,25.6,49.5,34c18.9,7.1,37.7,14.5,56.6,21.8c15.2,5.9,30.8,8.5,47.3,9.2
	c38.7,1.4,74.4-6.5,108.9-24.7c53.2-28,92.7-66,103.5-130.9c11.1,5.8,20.7,10,29.5,15.5c27.4,17.3,58.4,19.3,89.2,20
	c15,0.3,28.8-6.5,39.7-17.7c5.7-5.8,11.1-11.9,17.3-17c38.4-32.4,44-76,39.1-121.5c-3.8-35.4-23.8-60.2-55.1-79.7
	c-36.5-22.8-68.1-18.3-100.8,4.3c-3.3,2.3-6,5.6-9.5,7.4c-2.9,1.4-6.6,1.1-11.7,1.8c1.3-5.8,0.9-10.6,3.1-12.9
	c14.4-15,11.7-32.1,6.5-49.3c-28-92.3-113.8-148.4-209.1-129.9c-21.7,4.2-41.7,10.7-57.5,27C518.7,148.7,503.9,164.1,491.7,176.6z
	 M706.3,849.7c-33.4-4.2-66.4-8.4-98.7-12.5c-13.9-30.6-6.9-60.8-9.4-90c-2.5-29-4.7-58-9.8-88.5c-15.9,1.2-29.1,3-42.3,2.9
	c-12-0.1-24.2-1.6-36-4c-12.6-2.5-24.8-6.7-42-11.6c33.1,87.2,75,165.1,106.3,248.6c37.3-0.3,66.5-24.7,102.9-27.7
	c8.4,35.1,2.9,70.1,8.8,103.7c-9,5.9-16.5,10.9-23.8,15.7c6.6,23.3,12.6,45.3,19.2,67.1c1.7,5.7,5.6,10.7,10.6,19.9
	c14.5-29.4,27-54.6,39.1-79.9c0.8-1.7-1-4.6-1.6-7c-9.4-4.3-21.9,2.4-30.7-9.9C700.2,935.8,712.6,893.7,706.3,849.7z"/>
<path fill-rule="evenodd" clip-rule="evenodd" fill="#FFFFFF" d="M491.7,176.6c-1.2,17.4-0.1,26.8-3,34.8c-2,5.4-11.7-2.7-19.3-19.7
	c-2.2-4.9-4.2-9.9-6.4-14.8C423.6,88.8,351.5,43.3,260,28.8c-48.5-7.7-96.7,1.6-136.6,35.8c-48.1,41.2-76.6,93.7-89.1,154.6
	c-5.6,27.5-6.4,56.1-8.3,84.2c-0.9,13.4-1.5,27.4,1.5,40.2C36,380.3,43,417.9,56.9,452.6c26.5,65.8,67.3,120.3,141,139
	c29.8,7.6,59.8,16.8,91.4,11.1c35.1-6.3,67.9-17.2,92.6-45c1.7-1.9,6.6-1,10.6-1.4c-1,3.9-1.7,6.4-2.4,9c-1,3.8-2.1,7.5-3,10.9
	c21.2,21.5,27.4,25.6,49.5,34c18.9,7.1,37.7,14.5,56.6,21.8c15.2,5.9,30.8,8.5,47.3,9.2c38.7,1.4,74.4-6.5,108.9-24.7
	c53.2-28,92.7-66,103.5-130.9c11.1,5.8,20.7,10,29.5,15.5c27.4,17.3,58.4,19.3,89.2,20c15,0.3,28.8-6.5,39.7-17.7
	c5.7-5.8,11.1-11.9,17.3-17c38.4-32.4,44-76,39.1-121.5c-3.8-35.4-23.8-60.2-55.1-79.7c-36.5-22.8-68.1-18.3-100.8,4.3
	c-3.3,2.3-6,5.6-9.5,7.4c-2.9,1.4-6.6,1.1-11.7,1.8c1.3-5.8,0.9-10.6,3.1-12.9c14.4-15,11.7-32.1,6.5-49.3
	c-28-92.3-113.8-148.4-209.1-129.9c-21.7,4.2-41.7,10.7-57.5,27C518.7,148.7,503.9,164.1,491.7,176.6z"/>
<path fill-rule="evenodd" clip-rule="evenodd" fill="#FFFFFF" d="M706.3,849.7c-33.4-4.2-66.4-8.4-98.7-12.5
	c-13.9-30.6-6.9-60.8-9.4-90c-2.5-29-4.7-58-9.8-88.5c-15.9,1.2-29.1,3-42.3,2.9c-12-0.1-24.2-1.6-36-4c-12.6-2.5-24.8-6.7-42-11.6
	c33.1,87.2,75,165.1,106.3,248.6c37.3-0.3,66.5-24.7,102.9-27.7c8.4,35.1,2.9,70.1,8.8,103.7c-9,5.9-16.5,10.9-23.8,15.7
	c6.6,23.3,12.6,45.3,19.2,67.1c1.7,5.7,5.6,10.7,10.6,19.9c14.5-29.4,27-54.6,39.1-79.9c0.8-1.7-1-4.6-1.6-7
	c-9.4-4.3-21.9,2.4-30.7-9.9C700.2,935.8,712.6,893.7,706.3,849.7z"/>
</svg>
