<?xml version="1.0" encoding="utf-8"?>
<!DOCTYPE svg PUBLIC "-//W3C//DTD SVG 1.1//EN" "http://www.w3.org/Graphics/SVG/1.1/DTD/svg11.dtd">
<svg artist="zl2017" version="1.1" id="zlIcon-cloud" xmlns="http://www.w3.org/2000/svg" xmlns:xlink="http://www.w3.org/1999/xlink" x="0px" y="0px"
	 width="1000px" height="543.4px" viewBox="0 0 1000 543.4" enable-background="new 0 0 1000 543.4" xml:space="preserve">
<g>
	<path fill-rule="evenodd" clip-rule="evenodd" d="M731.3,0.2c95.7,36,193.5,69.6,239.5,180.4c42.7,102.9,43.6,212.7-37.3,298.7
		c-50,53.2-202.7,92.4-265.4,38c-22.2-19.2-106.9,13.1-138.3,13.2c-62.5,0.3-108.8-35.5-165.7-52.3c-60.4-17.9-79.3,13.6-139.1,19.4
		c-56.3,5.4-93.4-1.9-144.9-16.8C35.6,467.8-9.5,390.3,2.5,347c9.4-34.2,23-42.8,43.2-69c14.8-19.2,88.2-8,90.9-21.2
		C161.9,129.3,354.3,73.3,459.1,91c47.1,7.9,36.4,22.5,66.2-19.8c11.4-16.2,28.6-29.4,43.9-41.6C611.5-4.1,681.4,0.2,731.3,0.2"/>
	<path fill-rule="evenodd" clip-rule="evenodd" fill="#FFFFFF" d="M194.6,298.1c-19.3-41.5-53.4-14.3-21.9-67.6
		c22.8-38.5,62.6-77.4,102.2-98.7c97.9-52.5,173.3-25.9,269.6,5.8C461.9,47.4,682.6,5.7,742.8,19c123,27.1,227.2,124.4,243.6,252.4
		c11.7,91-33.7,221.8-135.1,241.6c-55.8,10.9-113.5,15.1-168.1-5.1c-44.8-16.6,7.8-43.4-2.4-52.8c-83.8,54.4-299.2,102.5-324.1-39.6
		c-43.2,8-76.3,59.8-124.9,70c-47.8,10-111.1-1.7-155-23.5c-53.4-26.5-59.2-76.4-54.8-129.2c6.7-80.5,130.5-47.2,171.3-32.8"/>
</g>
</svg>
