<?xml version="1.0" encoding="utf-8"?>
<!DOCTYPE svg PUBLIC "-//W3C//DTD SVG 1.1//EN" "http://www.w3.org/Graphics/SVG/1.1/DTD/svg11.dtd">
<svg artist="zl2017" version="1.1" id="zlIcon-coffee-machine-beans" xmlns="http://www.w3.org/2000/svg" xmlns:xlink="http://www.w3.org/1999/xlink" x="0px" y="0px"
	 width="1000px" height="1361.3px" viewBox="0 0 1000 1361.3" enable-background="new 0 0 1000 1361.3" xml:space="preserve">
<path fill-rule="evenodd" clip-rule="evenodd" d="M687.5,1165.1c-0.5-7.3-2-14.7-1.2-21.8c3.9-37.3,7.8-74.5,13.1-111.6
	c1.9-13.4,1.6-24.9-7.7-35.2c-117-20.3-338.9-22.4-410.2-3.8c-8.2,24.1-5.4,51.8-20.8,77.1c-26.1-17.8-22.5-49.7-39.6-73.2
	c-26.1,3.4-53.7,7-81.3,10.7c-7.6,1-15.1,3.1-22.7,3.1c-9.1,0-16.6-3.4-18.6-13.9c-0.8-4.2-2.3-8.2-3.5-12.3
	c-16.5-55.3-33.6-110.4-49.2-165.9c-6.2-22.1-9.4-45.1-13.9-67.6c-4.2-21-2.3-40.9,12.5-57.8c6.2-7.1,7.4-14.8,4.8-23.7
	c-6.3-21.2-11.4-42.7-18.7-63.6c-7-20-15.7-39.4-24.4-58.8c-10.2-22.9-7.4-31.4,17.6-42c4.1,14.9,7.5,29.7,12.3,44.1
	c2.5,7.6,6.2,15.4,11.2,21.6c23.3,29.2,28.1,20.3,50.5,6.5c9.6-5.9,16.7-16,26.8-26c11.1,8.6,24.9,22.5,42.5,12.9
	c13.9-7.5,25.5-19.3,39.8-30.4c8.1,7.9,8.4,27.1,25.7,28.3c17.6,1.2,33-5.6,49.1-14c-1.3-7-2.3-12.7-3.5-18.4
	c-3.1-15.3,2.3-28,15.5-34.8c16.7-8.6,21.4-22.1,24.3-39c3.6-20.5,5.5-39.2-5.9-58.7c-7.6-12.9-9.7-29-14.7-43.4
	c-6.3-18.4,2.4-29.9,17.6-41.9c0.2,5,1.3,8,0.2,9.4c-15.9,21.1-8.9,43.6,0.2,63.1c11.8,25.1,21.7,49,12.5,76.9c-1,3,0.3,6.7,0.7,12
	c5.1,1.3,10.3,2.6,18.5,4.6c-1.4,6.9-1.5,14.5-4.3,20.9c-18.2,41.3-18.4,41.2-19,75.7c-15.6-1.4-24.1-14.7-37.3-21.9
	c-8.2,4-17,8.8-26.1,12.7c-29,12.5-36.9,10.2-56.9-17.2c-23.3,16.8-44.9,47.8-76.7,17.1c-13.1,10-25.1,20.5-38.5,29
	c-14.8,9.5-29.1,4-41.7-8.8c-1,1.3-2.1,2.7-3.1,4c6.3,25.8,12.6,51.7,18.6,76.5c28.2-9.1,53.2-16.7,77.9-25.1
	c68.2-23,138.5-24.8,209.6-22.8c46.7,1.3,93.5,0.3,140.2-8c34.1-6.1,69.5-5.1,104.3-7.2c7.5-0.5,15-0.5,23-0.8
	c3.8-24.7,7.4-47.9,11.4-74c-14.3,6.1-26.1,14.4-38.5,15.6c-12.4,1.2-25.5-4.7-41.4-8.2c-22.7,13.9-47.1,43.2-78.5,8.5
	c-32.8,11.4-62.3,42.2-98.4,8.9c-9.8,6.2-19.4,12.3-31.2,19.8c-1.9-6.8-5-11.7-4-15.5c5.8-22.2,12.5-44.2,19-66.2
	c0.7-2.3,2.2-4.6,3.9-6.4c25.9-26.5,29.8-47.8,14.8-81c-2.8-6.2-6-12.2-8.6-18.5c-4.6-11.4-5.9-22.6-0.6-34.6
	c6.8-15.5,12.3-31.6,22.1-48.2c0.9,4.7,3.4,9.8,2.3,14c-3,12.4-7.3,24.5-11.4,36.6c-4.3,12.6-5.7,24.4,2.3,36.6
	c4.6,7,6.8,15.6,9.8,23.5c4.5,12.1,6.3,23.8,2.9,37.2c-4.4,17.2-5.2,35.3-7.5,53c-1.8,13.9-3.3,27.9-5.4,45.7
	c33.9,23.6,61.8-8,93.3-17c31.3,23.8,38.7,22.4,79.2-19.2c3.8,4.2,8.1,9.5,13,14.1c9.1,8.4,19.4,8.6,30.9,4.3
	c41.4-15.6,32.8-9.6,38.5-47c8-52.4,3.2-105.1,5.8-157.5c1.1-22.1,1.1-44.2,2.7-66.2c1.4-18.7,7.2-23.5,25.9-23.9
	c41.7-0.8,83.5-1.4,125.2-2.2c5.9-0.1,12.1,0.5,17.8-1c9.6-2.5,12.7-11.1,7.6-19.9c-2.1-3.6-4.9-7-8-10
	c-19.8-19.1-26.1-39.2-11.7-65.8c8.3-15.4,9.1-33.5-5.5-49.5c-11.3-12.4-9.5-27.8-2-43c11.3-22.9,29.5-37.4,53.5-43.7
	c8.9-2.3,19.2,0.7,33,1.5c-29.5,37.4-36.9,76.1-33.9,119.1c-23.5,2.8-30.3,23.1-39.1,40.7c-2.4,4.8-0.1,13.2,2.5,18.9
	c2.7,6,8,10.9,12.8,15.8c9.1,9.4,17.1,18.9,10.1,35.5c23.1,1.4,43.4,4,63.5,3.4c19.8-0.6,33.4,11.8,47.9,20.7
	c5.2,3.2,6.4,19.2,4,27.8c-11.4,40.1-23.7,80-37.6,119.4c-16.4,46.5-35.6,92.1-52,138.7c-9,25.6-15.2,52.2-21.7,78.6
	c-1.2,5,1,11.4,2.9,16.7c7.6,20.5,9.9,40.8,4.6,62.6c-17.8,73.6-34.7,147.5-51.4,221.3c-3.9,17.3-6.5,35.1-8.1,52.7
	c-2,22-8.9,30.4-31.9,29.4c-14.2-0.6-19.7,6-23.9,17.7c-14.7,40.2-26.6,80.9-28.2,124.1c-0.3,6.8-2.4,13.6-3.7,20.4
	C693.3,1165.5,690.4,1165.3,687.5,1165.1z M765.9,974.5c4.6-20.5,8.1-37.9,12.3-55.2c18.2-75.3,35.6-150.7,55.1-225.6
	c9.4-36-19-83-64.9-80.4c-7.6,0.4-15.3-0.1-23,0.1c-47.6,1.2-95.2,1.8-142.8,4c-45.9,2.1-91.7,5.9-137.5,9.2
	c-17,1.2-33.9,3.9-50.8,4.3c-62,1.3-124-2.2-186.1,3.3c-44.1,3.9-86.3,14.3-125.7,31c-39.3,16.7-49.2,32-42.1,75.5
	c12.2,74.3,40.6,144,57,217.1c2.8,12.6,12,20.5,24.5,22.3c12.5,1.8,25.5,2.6,38.1,1.9c50.1-3.1,100.1-6.5,150.2-10.6
	c81.5-6.6,163-12.5,244.7-10.8c27.9,0.6,55.9,3.6,83.6,7.2C694.1,972.5,729.4,976,765.9,974.5z M824,608.8
	c11.7-40.8,23.9-83.3,36.1-125.8c16.5-57.2,33.2-114.4,49.3-171.7c3.2-11.4,5-23.3,6.5-35.1c2-16.5,0.1-18.7-16.6-22
	c-33.9-6.7-67.4-3-100.1,1.9c-17,114.3-33.8,227.3-50.2,337.9C775.4,599.2,798.5,603.8,824,608.8z M662.3,251.9
	c-1.8,3.9-4.3,6.9-4.4,9.9c-2,50.1-3.7,100.2-5.2,150.2c-0.1,4.1,0.5,8.9,2.5,12.4c8.1,13.8,4.7,27.8,1.7,41.9
	c-2.3,10.8-4.3,21.7-5.9,32.6c-4.9,33.4-9.7,66.8-14.8,102.7c18.3-1.3,35.6-2.5,52.3-3.7c6.3-39.8,11.7-75.9,17.8-111.9
	c11.8-69.5,24.1-139,26.8-209.7c0.3-8.2-0.6-16.5-1.1-27.1C707.5,250.2,685,251.1,662.3,251.9z M705.2,597.7
	c27.1,1.1,34-7.3,32.5-34.9c-9.7,1.8-19.3,3.6-29.6,5.5C707.2,578.1,706.3,587,705.2,597.7z M254.7,1049.1
	c10.5-21.6,12-39.4,9.8-59.1c-9.2,1.7-17,3.2-26.9,5C243.2,1012.8,248.3,1028.8,254.7,1049.1z M771,388.7c0.5-7.2,0.9-13.3,1.4-21.8
	c-13.2,1.7-23.8,3-35.9,4.5c-0.3,8.9-0.5,15.9-0.8,23.9C747.8,393.1,757.8,391.2,771,388.7z M739.7,356.5
	c34.5,3.6,38.1,1.6,36.3-18.7C748.1,333,742.6,335.6,739.7,356.5z M751.5,495.1c-30,0.4-31.2,1.2-34.4,24.6
	c10.2-0.5,19.9-1,31.1-1.6C749.5,509.7,750.5,502.6,751.5,495.1z M709.5,549.5c32.6,6.4,35.5,4.6,33.5-21
	C731.4,534.6,710.7,522.9,709.5,549.5z M727.3,457.6c32-2,32-2,31.7-22.2C727.4,437,727.4,437,727.3,457.6z M778.4,307.6
	c-34.5-2.3-35.2-1.9-33.7,18c11.4-1,22.8-1.9,35.4-3C779.4,316.7,778.9,312,778.4,307.6z M764.8,403.6c-32,1-32.6,1.4-32.3,22.1
	c9.7-1.8,19.2-3.6,29.8-5.6C763.1,415,763.9,409.4,764.8,403.6z M746.3,268.4c14,2.9,27.1,3.9,39.9-6.2
	C764.4,246.7,751,248.8,746.3,268.4z M785.8,278.9c-18,1.5-33-4.1-43.1,12.8c13.2,7.1,25.4,5.6,37.3,1.1
	C782.4,292,783,286.2,785.8,278.9z M721.3,484.5c29.2-1,29.2-1,31.6-15.9C728,468.8,728,468.8,721.3,484.5z"/>
<path fill-rule="evenodd" clip-rule="evenodd" d="M338.8,1273.2c21.7,0,45.4,1.7,68.8-0.4c93.2-8.1,186.3-17.1,279.4-26.2
	c27.5-2.7,33,1.5,34.3,29.2c0.3,5.9,1.6,11.9,1.2,17.8c-2,33.9-8.7,41.1-42.6,44.2c-85.5,7.9-170.9,18.6-256.6,22
	c-94.3,3.7-188.8,0.4-282.7-11.2c-11.3-1.4-22.2-6.4-35.1-10.3c5.4-21.3,10.1-39.9,14.8-58.8c-6.3-2.7-11.9-4.7-17.2-7.4
	c-36.7-18.4-48.8-47.1-36.7-86.5c5.9-19.2,16.6-26.4,36.2-23.5c5.8,0.9,11.4,3.4,17,5.3c10.6,3.7,19.2,1.8,21.5-10.3
	c3.4-18.5,16.4-27.1,32.1-33c42.5-15.9,85.8-27.8,131.7-27.7c27.3,0,48.1,16.6,56.7,42.5c5.8,17.6,6.9,34.4,1.4,52.1
	C354.8,1217.7,347.2,1244.5,338.8,1273.2z M353.5,1175.6c-1.8-0.9-3.7-1.8-5.5-2.7c-29,16-59.9,25-92.9,21c-32.4-4-64.6-10-98-15.3
	c5.3,17.8,7.3,38,21.8,52.2c32.1,31.5,67.7,52.5,116.4,43.3c20.5-3.9,33.3-12.6,39.4-30.6C342.2,1221.3,347.3,1198.3,353.5,1175.6z
	 M158.4,1148.6c19,23.2,38.3,27.6,60.7,15.4c19.2-10.5,39.9-16.4,61.3-11.6c12.9,2.9,24.5,11.5,41,19.8c8.5-5,21.4-12.5,33.7-19.7
	c-12.1-39.1-23.6-46.6-61.8-43.8c-37.7,2.7-73.7,12.7-108.9,25.4C175.2,1137.3,167.3,1143.5,158.4,1148.6z M171.7,1249.9
	c-0.7-2-1.4-4-2-6c-5.2,2.1-10.3,5-15.8,6c-15.7,2.8-31.5,8.2-47.2-0.7c-11-6.2-18.3-14-18.2-28c0.1-13.7,9.2-19.8,19.1-24.3
	c9.6-4.3,20.4-6.2,36.8-10.9c-21.2-4-36.3-7.5-51.7-9.3c-3.6-0.4-9.4,4.1-11.6,7.9c-16.3,28,3.1,73.3,34.4,79.1
	C136.2,1267.5,154.7,1260.1,171.7,1249.9z M101.9,1218.8c16.8,23.2,34.3,26.3,58.6,9.6c-6.3-8.7-3.1-23.8-19.2-25.9
	C125,1200.3,112.2,1206.8,101.9,1218.8z"/>
<path fill-rule="evenodd" clip-rule="evenodd" d="M698.6,65.4c7.5,11.3,12.9,19.5,18.3,27.7c-0.9,1.3-1.8,2.6-2.7,3.8
	C707.9,93,701.7,89,693.7,84c-14.2,6.8-30.3,12.6-44.3,21.7c-17.2,11.3-33.7,14.6-54.5,11c-43.9-7.7-88.2-14.6-133-14.9
	c-3.1,0-6.2-1.7-9-2.5c0.9-34.4,33.4-53.7,61.5-47.6c31.9,6.9,62.7,13.9,88.3,36.1c15,13,31.2,14.4,48.8,2.6
	C665.6,81.1,681.3,74.4,698.6,65.4z"/>
<path fill-rule="evenodd" clip-rule="evenodd" d="M694,143.7c10.3,12.2,19.5,23.1,30.3,36c-19.5,3.6-21.6-15.2-35.9-21.6
	c-12.9,6-28.7,12-43.2,20.4c-13.5,7.8-26.2,10.5-40.9,4.2c-14.7-6.3-29.9-11.5-46.4-17.8c-19,17.7-44.3,22.4-66.8,9.3
	C471.5,162.6,452.5,145,458,113c11.5,0.7,22.9,0.7,34.1,2.1c21,2.7,41.9,6.6,63,9.1c9.8,1.2,16.9,3.2,22,13.6
	c4.2,8.7,13,15.5,20.8,22c14.2,11.7,28.9,15.3,46.7,4.7C659,155.9,675.7,151.2,694,143.7z"/>
<path fill-rule="evenodd" clip-rule="evenodd" d="M999.5,189c-5-7.3-10-14.7-16.2-23.8c-10.5,1-22.3,1.3-33.8,3.3
	c-17.2,3.1-29.8-2.4-39-17.1c-4.5-7.2-10.7-13.6-14.1-21.2c-6.2-14.1-15.8-21.2-31.3-18.3c-1.9-32.3,16.2-87.5,32.6-100.8
	c20.3,10.5,29.2,27.2,25.7,49.4c-1.2,7.5-1.9,16.4-6.4,21.8c-18.4,22.3-2.6,41.8,3.7,61.8c3.4,10.9,12.8,15.3,24.3,14.1
	c5.1-0.5,10.1-1.2,15.2-2.1C994,150.5,994,150.5,999.5,189z"/>
<path fill-rule="evenodd" clip-rule="evenodd" d="M543,1184.6c-43.6,4.8-87.3,9.7-130.9,14.5c-0.3-1.4-0.6-2.8-0.8-4.2
	c13.6-2.7,27.2-6.3,41-8c27-3.3,54.1-5.6,81.3-7.7c2.8-0.2,6,3.9,9.1,5.9C542.6,1185,543,1184.6,543,1184.6z"/>
<path fill-rule="evenodd" clip-rule="evenodd" d="M512.8,484.4c7.3,12.5-0.8,19.1-6.7,25.4c-2.9,3.1-8.7,4.8-13,4.5
	c-2.4-0.2-6.4-6-6.1-9c0.5-5.2,2.4-11.9,6.2-14.6C498.1,487,505.4,486.5,512.8,484.4z"/>
<path fill-rule="evenodd" clip-rule="evenodd" d="M474.8,498.6c-23.8,12.8-44.3,23.9-64.8,35C425.8,513.7,445.2,500.5,474.8,498.6z"
	/>
<path fill-rule="evenodd" clip-rule="evenodd" d="M270.4,451.8c-7.4-22-14.3-42.2-22.3-65.8C263.8,406.8,276.3,425,270.4,451.8z"/>
<path fill-rule="evenodd" clip-rule="evenodd" d="M533,1239.5c-25.8,2.5-51.6,5-77.4,7.5c-0.1-1-0.3-2.1-0.4-3.1
	c25.9-3.2,51.9-6.4,77.8-9.6C533,1236,533,1237.8,533,1239.5z"/>
<path fill-rule="evenodd" clip-rule="evenodd" d="M251.9,491.8c-10-17.4-20-34.8-30.7-53.3C240.2,453.7,249.2,467.7,251.9,491.8z"/>
<path fill-rule="evenodd" clip-rule="evenodd" d="M165,422.7c4.9-6.2,10-6.1,13.9,0.5c4.2,7.1,4.7,14.9-2.6,20.3
	c-3.4,2.6-10.4,5.1-12.6,3.5c-3.9-2.9-7.4-9.1-7.3-13.8c0.1-3.8,5.7-7.5,8.8-11.2c0.3,5.4,0.5,10.7,0.8,16
	C170.1,434.3,167.7,425,165,422.7z"/>
<path fill-rule="evenodd" clip-rule="evenodd" d="M527.7,1218.9c-25.4,2.6-50.8,5.2-76.2,7.8c-0.1-0.4-0.2-0.8-0.3-1.2
	c21.4-4,42.7-8.3,64.2-11.7C519.1,1213.2,523.5,1217.1,527.7,1218.9C527.6,1218.9,527.7,1218.9,527.7,1218.9z"/>
<path fill-rule="evenodd" clip-rule="evenodd" d="M500.4,426.8c2.3,25.9-2.2,30-22.6,22.7C485.2,442.1,491.8,435.5,500.4,426.8z"/>
<path fill-rule="evenodd" clip-rule="evenodd" d="M471,435.7c-0.1,0.8,0.2,2-0.2,2.2c-11.8,7.8-23.8,15.5-36.5,23.8
	C444.1,443.5,449.5,439.8,471,435.7z"/>
<path fill-rule="evenodd" clip-rule="evenodd" d="M579.6,1177.6c16,0.1,32,0.1,50.8,0.2c-21.4,6.6-36.6,6.1-50.5-0.6L579.6,1177.6z"
	/>
<path fill-rule="evenodd" clip-rule="evenodd" d="M568.7,1216.7c-13.7,0.7-27.4,1.5-41.1,2.2c0,0-0.1,0-0.1,0
	c9.6-2.6,19-6.1,28.8-7.5C560.2,1210.8,564.6,1214.8,568.7,1216.7L568.7,1216.7z"/>
<path fill-rule="evenodd" clip-rule="evenodd" d="M212.5,388.3c2.8-4.6,5.6-9.3,8.7-13.6c0.1-0.2,5.7,3.1,5.6,3.3
	c-2.2,4.8-4.8,9.3-7.3,13.9C217.2,390.7,214.9,389.5,212.5,388.3z"/>
<path fill-rule="evenodd" clip-rule="evenodd" d="M615.3,1210.2c4.6-0.5,9.2-1,13.8-1.5c0.1,1.1,0.3,2.2,0.4,3.4
	c-4.6,0.6-9.2,1.1-13.8,1.7C615.6,1212.6,615.4,1211.4,615.3,1210.2z"/>
<path fill-rule="evenodd" clip-rule="evenodd" d="M579.9,1177.2c-12.2,2.4-24.4,4.8-36.8,7.3c-0.1,0.1-0.5,0.5-0.6,0.6
	c12.2-2.4,24.5-4.8,37-7.4C579.6,1177.6,579.9,1177.2,579.9,1177.2z"/>
<path fill-rule="evenodd" clip-rule="evenodd" d="M568.7,1216.7c7.7-2.5,15.4-5.1,23.1-7.6c0.3,1,0.6,2.1,0.9,3.1
	C584.7,1213.7,576.7,1215.2,568.7,1216.7C568.7,1216.7,568.7,1216.7,568.7,1216.7z"/>
<path fill-rule="evenodd" clip-rule="evenodd" fill="#FFFFFF" d="M765.9,974.5c-36.5,1.5-71.9-2-107.3-6.6
	c-27.7-3.6-55.7-6.7-83.6-7.2c-81.8-1.7-163.3,4.2-244.7,10.8c-50,4-100.1,7.5-150.2,10.6c-12.6,0.8-25.5-0.1-38.1-1.9
	c-12.5-1.8-21.7-9.7-24.5-22.3c-16.4-73-44.9-142.7-57-217.1c-7.1-43.5,2.8-58.8,42.1-75.5c39.3-16.7,81.6-27.1,125.7-31
	c62.2-5.5,124.1-2,186.1-3.3c17-0.4,33.9-3.1,50.8-4.3c45.8-3.2,91.6-7,137.5-9.2c47.5-2.2,95.2-2.8,142.8-4
	c7.7-0.2,15.4,0.3,23-0.1c45.8-2.6,74.3,44.4,64.9,80.4c-19.6,74.9-37,150.3-55.1,225.6C774.1,936.6,770.5,954,765.9,974.5z
	 M510.4,762.7c20.5,16.1,43.1,15.8,65.9,9.2c15.3-4.4,27.4-22.2,27-36.7c-0.4-12.9-12.2-30.6-24.5-32.8c-18.7-3.3-38.2-3-53.7-16.6
	c-1.7-1.5-4.9-1.4-7.4-1.6c-24.6-1.4-49.1-3.1-73.7-3.9c-9.3-0.3-16.1,4-17,14.9c-1.9,21.2-3.7,42.2,2.2,63.2
	c6.1,21.6,18.6,30,39.7,23.2C482.5,777.3,495.1,769.9,510.4,762.7z M732,857.8c30.5-5.7,33.7-10.3,35.1-33.6
	c0.8-12.7,3.8-25.2,5.1-37.9c1.1-10.9,2.4-22.1,1.3-32.9c-1.6-15.4-15.5-29.3-29.8-30.1c-22.9-1.3-45.8-2.1-68.7-1.3
	c-18.5,0.7-28.9,10.1-30.6,27.9c-2.3,24.4-3,49.1-3.5,73.6c-0.2,12,10,26.3,21.3,27.7C688.1,854.7,714.3,856.2,732,857.8z
	 M320.2,761.2c11.6,2.2,20.7,5.2,29.7,5.2c14.3,0,27.1-11.9,28.5-24.3c1.3-12.6-6.6-28-19-29.7c-25.7-3.6-51.9-11.2-77.8-1.3
	c-6.3,2.4-13.6,7.8-15.9,13.7c-5.7,14.4,3.1,38.7,14.5,46C292.1,778.3,303.5,775.6,320.2,761.2z M226.3,766.4
	c1.1-24.5,1.3-25-20.2-31.7c-9.2-2.9-19.4-4.2-29.1-3.9c-17.2,0.5-22.2,7-19.6,22c2.8,15.9,17.4,29.7,29.1,26.5
	C199.8,775.7,212.9,770.8,226.3,766.4z M494.2,863.5c20.4-3.8,34.6-19.1,31.3-33.5c-2.9-12.7-19-21.3-34.5-18.3
	c-17.3,3.3-29.7,17.1-27.8,30.9C465.6,859.4,476.5,866.8,494.2,863.5z M222.6,873.1c5.2-5.1,14.7-10.8,18.1-19
	c2.5-6-0.8-17.2-5.4-23c-13.1-16.3-46.5-8.3-52.7,11.7c-5,16.2,2.9,27.4,20.5,29C208.2,872.3,213.3,872.5,222.6,873.1z M363.5,821.6
	c-2.5-13.7-11.5-17.5-32.5-13.8c-16.6,2.9-25.7,14.7-23,29.8c2.5,14.2,15.7,23.1,30.2,20.5C352.1,855.7,366,835.6,363.5,821.6z"/>
<path fill-rule="evenodd" clip-rule="evenodd" fill="#FFFFFF" d="M824,608.8c-25.5-5-48.6-9.6-75-14.8
	c16.4-110.6,33.2-223.6,50.2-337.9c32.7-4.9,66.2-8.6,100.1-1.9c16.7,3.3,18.6,5.5,16.6,22c-1.5,11.8-3.2,23.7-6.5,35.1
	c-16.1,57.3-32.8,114.4-49.3,171.7C847.9,525.5,835.7,568,824,608.8z M877.7,270.5c-25.7-8.2-40-6.6-55.7,5.4
	C840.6,274.1,859.2,272.3,877.7,270.5z M843.9,287.3c-0.2-1.2-0.4-2.3-0.6-3.5c-7.6,1.4-15.1,2.8-22.7,4.2c0.2,1.2,0.4,2.3,0.6,3.5
	C828.8,290.1,836.4,288.7,843.9,287.3z"/>
<path fill-rule="evenodd" clip-rule="evenodd" fill="#FFFFFF" d="M662.3,251.9c22.7-0.8,45.2-1.7,69.7-2.6
	c0.5,10.6,1.4,18.9,1.1,27.1c-2.6,70.7-15,140.2-26.8,209.7c-6.1,36-11.5,72.1-17.8,111.9c-16.7,1.2-34,2.4-52.3,3.7
	c5.2-35.9,9.9-69.3,14.8-102.7c1.6-10.9,3.6-21.8,5.9-32.6c3-14.2,6.4-28.1-1.7-41.9c-2-3.5-2.7-8.2-2.5-12.4
	c1.5-50.1,3.3-100.2,5.2-150.2C658,258.8,660.5,255.8,662.3,251.9z M701.7,284.7c-0.2-1.7-0.3-3.5-0.5-5.2c-9,0.9-17.9,1.7-26.9,2.6
	C683.8,290.9,692.7,287,701.7,284.7z M677.5,264.3c0.6,2.1,1.3,4.1,1.9,6.2c9.1-0.9,18.1-1.8,27.2-2.7c-0.3-2.3-0.5-4.5-0.8-6.8
	C696.4,262.1,687,263.2,677.5,264.3z"/>
<path fill-rule="evenodd" clip-rule="evenodd" fill="#FFFFFF" d="M705.2,597.7c1.1-10.7,2-19.6,3-29.4c10.3-1.9,19.9-3.7,29.6-5.5
	C739.2,590.4,732.3,598.8,705.2,597.7z"/>
<path fill-rule="evenodd" clip-rule="evenodd" fill="#FFFFFF" d="M254.7,1049.1c-6.4-20.3-11.5-36.3-17.1-54
	c9.9-1.9,17.8-3.3,26.9-5C266.7,1009.7,265.2,1027.5,254.7,1049.1z"/>
<path fill-rule="evenodd" clip-rule="evenodd" fill="#FFFFFF" d="M771,388.7c-13.2,2.5-23.1,4.3-35.2,6.6c0.3-8,0.5-15,0.8-23.9
	c12-1.5,22.7-2.8,35.9-4.5C771.9,375.4,771.5,381.5,771,388.7z"/>
<path fill-rule="evenodd" clip-rule="evenodd" fill="#FFFFFF" d="M739.7,356.5c2.9-20.9,8.4-23.6,36.3-18.7
	C777.8,358.2,774.2,360.2,739.7,356.5z"/>
<path fill-rule="evenodd" clip-rule="evenodd" fill="#FFFFFF" d="M751.5,495.1c-1.1,7.5-2.1,14.6-3.3,23c-11.2,0.6-21,1.1-31.1,1.6
	C720.3,496.3,721.5,495.5,751.5,495.1z"/>
<path fill-rule="evenodd" clip-rule="evenodd" fill="#FFFFFF" d="M709.5,549.5c1.2-26.6,21.9-14.9,33.5-21
	C744.9,554.1,742.1,555.9,709.5,549.5z"/>
<path fill-rule="evenodd" clip-rule="evenodd" fill="#FFFFFF" d="M727.3,457.6c0-20.6,0-20.6,31.7-22.2
	C759.4,455.7,759.4,455.7,727.3,457.6z"/>
<path fill-rule="evenodd" clip-rule="evenodd" fill="#FFFFFF" d="M778.4,307.6c0.5,4.5,1,9.2,1.7,15.1c-12.6,1-24,2-35.4,3
	C743.2,305.6,743.9,305.3,778.4,307.6z"/>
<path fill-rule="evenodd" clip-rule="evenodd" fill="#FFFFFF" d="M764.8,403.6c-0.9,5.8-1.7,11.4-2.5,16.5
	c-10.6,2-20.1,3.8-29.8,5.6C732.2,405,732.8,404.6,764.8,403.6z"/>
<path fill-rule="evenodd" clip-rule="evenodd" fill="#FFFFFF" d="M746.3,268.4c4.8-19.6,18.1-21.7,39.9-6.2
	C773.4,272.3,760.3,271.2,746.3,268.4z"/>
<path fill-rule="evenodd" clip-rule="evenodd" fill="#FFFFFF" d="M785.8,278.9c-2.8,7.3-3.4,13.1-5.7,14c-11.9,4.4-24.2,6-37.3-1.1
	C752.7,274.8,767.8,280.4,785.8,278.9z"/>
<path fill-rule="evenodd" clip-rule="evenodd" fill="#FFFFFF" d="M721.3,484.5c6.7-15.7,6.7-15.7,31.6-15.9
	C750.4,483.5,750.4,483.5,721.3,484.5z"/>
<path fill-rule="evenodd" clip-rule="evenodd" fill="#FFFFFF" d="M353.5,1175.6c-6.2,22.7-11.3,45.7-18.9,67.9
	c-6.1,18-18.9,26.7-39.4,30.6c-48.7,9.2-84.3-11.8-116.4-43.3c-14.4-14.2-16.5-34.4-21.8-52.2c33.4,5.3,65.6,11.3,98,15.3
	c33,4,63.9-4.9,92.9-21C349.9,1173.8,351.7,1174.7,353.5,1175.6z M307.3,1244.4c-5.2,4.7-10.3,9.4-15.5,14.1
	c7.2-2.6,25.5,5.5,15.3-14.1c2.7-4.2,5.4-8.3,10.2-15.8c-17,8.2-29.8,14.3-47.4,22.8C286.2,1248.3,296.8,1246.3,307.3,1244.4z"/>
<path fill-rule="evenodd" clip-rule="evenodd" fill="#FFFFFF" d="M158.4,1148.6c8.9-5.1,16.8-11.3,25.8-14.6
	c35.3-12.7,71.3-22.6,108.9-25.4c38.3-2.8,49.7,4.7,61.8,43.8c-12.3,7.2-25.2,14.7-33.7,19.7c-16.5-8.2-28.1-16.8-41-19.8
	c-21.3-4.8-42,1-61.3,11.6C196.8,1176.2,177.4,1171.8,158.4,1148.6z"/>
<path fill-rule="evenodd" clip-rule="evenodd" fill="#FFFFFF" d="M171.7,1249.9c-17.1,10.2-35.6,17.6-56.1,13.8
	c-31.3-5.8-50.7-51-34.4-79.1c2.2-3.8,8-8.3,11.6-7.9c15.3,1.8,30.5,5.3,51.7,9.3c-16.4,4.7-27.2,6.6-36.8,10.9
	c-10,4.5-19,10.5-19.1,24.3c-0.1,14,7.2,21.7,18.2,28c15.7,8.9,31.5,3.5,47.2,0.7c5.4-1,10.5-4,15.8-6
	C170.4,1245.9,171.1,1247.9,171.7,1249.9z"/>
<path fill-rule="evenodd" clip-rule="evenodd" d="M510.4,762.7c-15.3,7.1-27.9,14.5-41.5,18.9c-21.1,6.8-33.7-1.6-39.7-23.2
	c-5.9-21-4.1-42-2.2-63.2c1-10.9,7.7-15.2,17-14.9c24.6,0.8,49.1,2.5,73.7,3.9c2.5,0.1,5.7,0.1,7.4,1.6c15.5,13.6,35,13.3,53.7,16.6
	c12.3,2.2,24.1,19.9,24.5,32.8c0.5,14.6-11.6,32.3-27,36.7C553.5,778.5,530.9,778.8,510.4,762.7z M519.5,752.1
	c19.4,13.1,44,13.9,58.3,0.3c5.2-4.9,8.8-14.7,7.9-21.6c-0.7-5.5-8.5-12.3-14.6-14.5c-18.8-6.9-33-0.1-42.9,18.4
	C525.2,740.5,522.3,746.4,519.5,752.1z"/>
<path fill-rule="evenodd" clip-rule="evenodd" d="M732,857.8c-17.6-1.5-43.8-3-69.8-6.4c-11.2-1.5-21.5-15.8-21.3-27.7
	c0.5-24.6,1.2-49.2,3.5-73.6c1.7-17.8,12.1-27.2,30.6-27.9c22.9-0.8,45.8,0,68.7,1.3c14.3,0.8,28.2,14.7,29.8,30.1
	c1.1,10.8-0.2,22-1.3,32.9c-1.3,12.7-4.3,25.2-5.1,37.9C765.7,847.5,762.5,852.1,732,857.8z M765.8,759.5
	c-32.2-15.4-62.5-9.7-93.9-2.5c-2.5,27.9-6.8,54.5-3.7,82.9c30.3,5.7,58.8,13.1,86.7-0.1C758.8,811.6,762.3,785.6,765.8,759.5z"/>
<path fill-rule="evenodd" clip-rule="evenodd" d="M320.2,761.2c-16.7,14.4-28.1,17.1-40.1,9.5c-11.4-7.3-20.2-31.6-14.5-46
	c2.3-5.8,9.7-11.3,15.9-13.7c25.8-9.8,52-2.3,77.8,1.3c12.5,1.7,20.4,17.2,19,29.7c-1.3,12.5-14.1,24.4-28.5,24.3
	C340.9,766.4,331.9,763.4,320.2,761.2z M368.8,736.4c-1.2-9.6-10.4-15.4-22.8-14.2c-12.3,1.2-21.2,11.2-18.2,22
	c3.1,10.9,13.4,12.2,22.5,12.2C361,756.3,369.9,745.8,368.8,736.4z"/>
<path fill-rule="evenodd" clip-rule="evenodd" d="M226.3,766.4c-13.3,4.4-26.4,9.2-39.8,12.9c-11.7,3.2-26.3-10.6-29.1-26.5
	c-2.6-15,2.4-21.5,19.6-22c9.7-0.3,19.8,1,29.1,3.9C227.6,741.4,227.4,742,226.3,766.4z M204.8,752.8c0.5,2.3,1,4.5,1.5,6.8
	c4.1-1.2,8.3-2.4,12.4-3.6c-0.8-2-1.8-5.9-2.3-5.8C212.4,750.5,208.6,751.8,204.8,752.8z"/>
<path fill-rule="evenodd" clip-rule="evenodd" d="M494.2,863.5c-17.7,3.3-28.6-4-30.9-20.9c-1.9-13.8,10.4-27.6,27.8-30.9
	c15.5-3,31.6,5.6,34.5,18.3C528.8,844.3,514.5,859.6,494.2,863.5z M485.8,858.2c9.7-3.9,18.5-5.5,24.2-10.5c3.8-3.3,5.1-12,3.8-17.5
	c-0.7-2.9-9.3-6.1-14-5.6C482.6,826.3,481,830.1,485.8,858.2z"/>
<path fill-rule="evenodd" clip-rule="evenodd" d="M222.6,873.1c-9.4-0.6-14.4-0.8-19.5-1.3c-17.6-1.6-25.5-12.8-20.5-29
	c6.2-20,39.7-28,52.7-11.7c4.6,5.8,7.9,16.9,5.4,23C237.4,862.3,227.8,868,222.6,873.1z M233.6,846.3c-3-12.3-11.2-12.7-20-10.3
	c-7.3,2-15.2,4.8-14.3,14.7c0.8,9.4,9.9,14.2,21,12C230,860.8,235.6,856.1,233.6,846.3z"/>
<path fill-rule="evenodd" clip-rule="evenodd" d="M363.5,821.6c2.6,14-11.3,34.1-25.3,36.6c-14.5,2.6-27.7-6.4-30.2-20.5
	c-2.7-15.1,6.4-26.9,23-29.8C351.9,804.2,360.9,808,363.5,821.6z M322.7,825.2c6.2,20.8,8.7,25,14.4,22.7
	c6.3-2.6,12.3-7.9,16.2-13.5c2.1-3-0.7-9.2-1.3-14C343,821.8,334.1,823.3,322.7,825.2z"/>
<path fill-rule="evenodd" clip-rule="evenodd" d="M877.7,270.5c-18.6,1.8-37.1,3.6-55.7,5.4C837.8,263.9,852,262.3,877.7,270.5z"/>
<path fill-rule="evenodd" clip-rule="evenodd" d="M843.9,287.3c-7.6,1.4-15.1,2.8-22.7,4.2c-0.2-1.2-0.4-2.3-0.6-3.5
	c7.6-1.4,15.1-2.8,22.7-4.2C843.5,285,843.7,286.1,843.9,287.3z"/>
<path fill-rule="evenodd" clip-rule="evenodd" d="M701.7,284.7c-9,2.2-18,6.2-27.4-2.6c9-0.9,17.9-1.7,26.9-2.6
	C701.4,281.3,701.6,283,701.7,284.7z"/>
<path fill-rule="evenodd" clip-rule="evenodd" d="M677.5,264.3c9.4-1.1,18.9-2.2,28.3-3.3c0.3,2.3,0.5,4.5,0.8,6.8
	c-9.1,0.9-18.1,1.8-27.2,2.7C678.8,268.4,678.2,266.4,677.5,264.3z"/>
<path fill-rule="evenodd" clip-rule="evenodd" d="M307.4,1244.3c-10.6,2-21.2,4-37.5,7c17.5-8.4,30.3-14.6,47.4-22.8
	c-4.8,7.5-7.5,11.6-10.2,15.8L307.4,1244.3z"/>
<path fill-rule="evenodd" clip-rule="evenodd" d="M307,1244.4c10.2,19.6-8.1,11.5-15.3,14.1c5.2-4.7,10.3-9.4,15.5-14.1
	C307.4,1244.3,307,1244.4,307,1244.4z"/>
<path fill-rule="evenodd" clip-rule="evenodd" fill="#FFFFFF" d="M519.5,752.1c2.9-5.7,5.7-11.6,8.8-17.4
	c9.9-18.5,24-25.3,42.9-18.4c6.1,2.2,13.9,9,14.6,14.5c0.9,6.9-2.8,16.7-7.9,21.6C563.4,766,538.9,765.2,519.5,752.1z"/>
<path fill-rule="evenodd" clip-rule="evenodd" fill="#FFFFFF" d="M765.8,759.5c-3.5,26.1-7,52.1-10.8,80.3
	c-28,13.1-56.5,5.7-86.7,0.1c-3.1-28.4,1.2-55,3.7-82.9C703.3,749.7,733.6,744.1,765.8,759.5z M731.3,781.5c-15.8,0-24.4,0-37.3,0
	c5.4,16.1,9.5,28.2,13.6,40.4c2.1,0.2,4.2,0.3,6.3,0.5C718.9,810.7,723.8,799,731.3,781.5z"/>
<path fill-rule="evenodd" clip-rule="evenodd" fill="#FFFFFF" d="M368.8,736.4c1.1,9.4-7.8,19.9-18.5,19.9
	c-9.2,0-19.4-1.2-22.5-12.2c-3.1-10.8,5.8-20.8,18.2-22C358.4,720.9,367.7,726.7,368.8,736.4z"/>
<path fill-rule="evenodd" clip-rule="evenodd" fill="#FFFFFF" d="M204.8,752.8c3.8-1,7.7-2.3,11.6-2.7c0.5-0.1,1.5,3.8,2.3,5.8
	c-4.1,1.2-8.3,2.4-12.4,3.6C205.8,757.3,205.3,755,204.8,752.8z"/>
<path fill-rule="evenodd" clip-rule="evenodd" fill="#FFFFFF" d="M485.8,858.2c-4.8-28.1-3.2-31.9,14-33.7c4.7-0.5,13.3,2.7,14,5.6
	c1.3,5.5,0,14.2-3.8,17.5C504.3,852.7,495.5,854.3,485.8,858.2z"/>
<path fill-rule="evenodd" clip-rule="evenodd" fill="#FFFFFF" d="M233.6,846.3c2,9.7-3.6,14.5-13.3,16.5c-11.1,2.2-20.2-2.6-21-12
	c-0.9-9.9,7-12.7,14.3-14.7C222.4,833.6,230.6,834,233.6,846.3z"/>
<path fill-rule="evenodd" clip-rule="evenodd" fill="#FFFFFF" d="M322.7,825.2c11.4-1.9,20.3-3.4,29.3-4.9c0.6,4.8,3.3,11.1,1.3,14
	c-3.9,5.7-9.9,10.9-16.2,13.5C331.4,850.2,328.9,846,322.7,825.2z"/>
<path fill-rule="evenodd" clip-rule="evenodd" d="M731.3,781.5c-7.5,17.5-12.4,29.2-17.4,40.8c-2.1-0.2-4.2-0.3-6.3-0.5
	c-4.1-12.1-8.2-24.3-13.6-40.4C706.9,781.5,715.5,781.5,731.3,781.5z"/>
</svg>
