<?xml version="1.0" encoding="utf-8"?>
<!DOCTYPE svg PUBLIC "-//W3C//DTD SVG 1.1//EN" "http://www.w3.org/Graphics/SVG/1.1/DTD/svg11.dtd">
<svg artist="zl2017" version="1.1" id="zlIcon-coffee" xmlns="http://www.w3.org/2000/svg" xmlns:xlink="http://www.w3.org/1999/xlink" x="0px"
	 y="0px" width="1000px" height="1055.3px" viewBox="0.1 -27.6 1000 1055.3" enable-background="new 0.1 -27.6 1000 1055.3"
	 xml:space="preserve">
<path fill="#010101" d="M754.7,763.3c22.3,6,105.7,36.2,125.5,12.9c32.6-37.8,71.3-108.3,7.7-136.6c-169.4-74-128.1,153-222.7,198.6
	C458.9,937.8,134.7,882,123.6,605.2c-5.2-117.8,213.2-107.5,276-110c143.6-5.2,259.6-15.5,355.9,90.2
	c35.3,38.7,118.6-41.2,171.9-5.2c58.5,39.6,46.4,103.2,26.6,158.2C927.5,815.7,746.1,780.5,754.7,763.3
	C773.6,767.5,753.8,765,754.7,763.3z"/>
<path fill="#010101" d="M940.4,795.1c259.6,244.1-411.8,240.7-541.6,227.9c-146.2-14.6-265.7-30.1-382.5-107.5
	c-66.2-43,94.5-135,138.4-128.1C134,856.1-21.6,901.7,132.3,930.9c143.6,26.7,285.5,45.6,431.5,48.1
	c108.3,2.5,293.2,20.7,380.9-51.6C1020.3,865.6,882.8,835.5,940.4,795.1C951.5,806.2,939.6,795.9,940.4,795.1z"/>
<g>
	<path fill="#010101" d="M338.6,407.4c-9.5-8.6-49.9-211.5-45.6-229.5c4.3-20.7,81.7-205.4,83.4-205.4
		c101.5-5.2-24.1,178-34.4,201.1C293,280.3,467.6,314.7,338.6,407.4C325.7,395.5,351.5,398,338.6,407.4z"/>
	<path fill="#010101" d="M482.2,100.6c6,69.7-34.4,84.2,22.3,152.1c48.1,57.6,18,89.4-30.1,127.3C525.2,339.6,339.5,98,482.2,100.6
		C483.9,118.7,465,100.6,482.2,100.6z"/>
</g>
<path fill="#FFFFFF" d="M187.3,657.5c179.7,75.6,334.4,43,517.5-0.9C643.8,936,282.7,900.9,187.3,657.5
	C214.9,669.6,192.4,672.1,187.3,657.5z"/>
<path fill="#FFFFFF" d="M611.1,643.8c-22.3-116.1-342.2-24.1-342.2-21.5c20.7,67-155.6-67.9-49-70.5c136.7-3.4,273.4-53.3,411.8-9.5
	C718.6,570.7,673.9,625.7,611.1,643.8C605.1,617.2,615.4,642,611.1,643.8z"/>
</svg>
