<?xml version="1.0" encoding="utf-8"?>
<!DOCTYPE svg PUBLIC "-//W3C//DTD SVG 1.1//EN" "http://www.w3.org/Graphics/SVG/1.1/DTD/svg11.dtd">
<svg artist="zl2017" version="1.1" id="zlIcon-coffee-and-milk" xmlns="http://www.w3.org/2000/svg" xmlns:xlink="http://www.w3.org/1999/xlink" x="0px" y="0px"
	 width="1000px" height="1226.4px" viewBox="0 0 1000 1226.4" enable-background="new 0 0 1000 1226.4" xml:space="preserve">
<path fill-rule="evenodd" clip-rule="evenodd" d="M0.5,432.4c4.1-10.1,5.7-21.6,15.9-28.3c6.6-4.3,12.9-8.5,21.7-5.3
	c14.2,5.1,28.7,9.6,43.2,14c31.2,9.5,61.3,6.7,87.8-12.6c15.2-11,19.6-32.5,7.9-50c-13.7-20.5-34.6-32.7-53.2-47.7
	c-14.9-12-26.9-27-30.1-46.9c-3.3-20.2,4.2-31.5,21.6-43.3c9.3-6.3,17.8-8.5,28.1-7.7c13.2,1.1,26.4,9.8,32.5,22
	c9,18,8.1,37,10.8,55.7c2.6,18.5,8.5,35.2,26.8,43.4c9.7,4.3,19.9,4.5,29.4-3.2c11.3-9.3,23.4-17.7,35.2-26.5
	c2.2-1.6,4.2-3.4,5.9-4.7c-3.2-4.6-6.5-8.4-8.7-12.8c-9.2-17.7-14.3-33.1-0.9-48.5c9.6-11,22.6-18.8,37.8-20.5
	c17.4-1.9,30.5-13.6,32.6-31c1.3-10.2,1.5-20.5,1.7-30.8c0.3-18.3,9.2-31.8,23.4-42.2c9.6-7,18.7-15.2,31.6-15
	c5.4,0.1,10.8,0.2,16.1,0.9c27,3.5,51.2,13.8,66.9,36.5c10.1,14.6,14.5,32.2,5.7,50.2c-5.5,11.4-11.3,22.4-21,31
	c-5.5,4.9-10,10.9-14.9,16.4c-11,12.4-10.2,27-7.2,41.7c1.3,6.4,0,13.6,7.7,18.5c11.3,7.3,24.3,6.9,32.6-3.7
	c10.7-13.7,15.1-30.3,20.6-46.5c6.7-19.5,9.8-40.5,25.6-56.3c13.1-13.1,28.3-11.5,40.1-4.5c24.1,14.4,29.5,36.3,19.8,63.6
	c-8.2,23.1-25,38.9-40.8,55.8c-13.3,14.1-27,27.9-39.6,42.6c-6.4,7.5-11.5,16.9-9.1,27.4c3,13,13.6,20.8,27.3,21.4
	c17.3,0.8,34.7,1,52.1,1.8c25.9,1.1,51.8,2.3,75.5,14.8c0.6,0.3,1.6,0,0.6,0c10.6-12.1,20.2-23.4,30.2-34.4
	c11.1-12.1,22.1-24.3,33.9-35.8c11.7-11.4,23.6-22.7,36.5-32.7c16-12.5,32.7-24,51.7-31.6c11.5-4.6,24-1.2,30.7,9.2
	c3.4,5.4,6.9,7.2,11.8,2.2c6.2-6.4,12.8-12.6,18.3-19.6c16.5-21.1,38.9-27.6,64.2-26.6c3.3,0.1,7.1,2.8,9.7,5.3
	c9.1,9,18.3,18.1,26.3,28c13.5,16.7,22.9,35.9,25.4,57.3c1.8,15.6,2.3,32-0.2,47.4c-2.9,17.8-11.5,34.1-25.8,46.2
	c-7.4,6.3-15.1,12.4-23.1,18c-4.9,3.4-10.6,6-16.2,8.3c-8.4,3.4-8.5,10.3-7.4,17.2c2.7,17.9-1.3,34.7-5.8,52
	c-4.1,15.6-16.3,23.6-25.4,34.5c-8.9,10.6-17.8,21.5-28.7,29.7c-8.5,6.5-19.7,10.3-30.3,13.2c-14.6,4-29.7,5.9-44.6,8.7
	c-15.3,2.9-30.7,2.5-45.3-3c-21-7.9-42.2-15.7-61.9-26.1c-14.8-7.9-27.8-19.5-41-30.3c-8.5-7-15.6-15.7-23.6-23.2
	c-5.7-5.4-5.7-12.2-4.3-18.4c3-13,1.1-27.4,10.3-38.9c0.8-1-0.3-5.3-1.6-6c-27.9-15-53.1-35.6-85.8-40.2c-1.1-0.2-2.2-0.3-3.3-0.1
	c-11.5,1.8-23.5,2.2-34.4,5.9c-26.1,8.8-37.4,41-23.7,64.8c3.4,6,6.5,12.3,11,17.4c4.3,4.8,10.3,8.3,15.5,12.3
	c1.9,1.5,4.2,2.6,5.9,4.3c16.9,15.9,17.7,31.7,2.3,49.4c-10.9,12.6-24.6,19.7-41.3,22.6c-7.8,1.4-14.7,4.7-20.3-3.3
	c-4.2-6.1-9.8-11.2-9.9-19.9c-0.2-12.2-1.7-24.5-3.1-36.7c-2-18,0.8-36.8-9-53.5c-5.7-9.8-20.4-22.2-34.3-19.3
	c3.2,5.4,6.6,10.5,9.3,16c5,10,2.4,18.9-3.9,26.1c-15.6,17.6-33.9,17.4-53.8,11.1c-15.9-5.1-31.4-11.5-47.5-15.7
	c-6.5-1.7-14.5-0.3-21.2,1.8c-8.1,2.5-10.2,12.7-6.1,22.4c9.2,21.9,25.4,38.3,43.8,52.2c16,12.1,33.2,22.5,50,33.5
	c13.3,8.6,22.4,42.8,10.6,55.1c-12.6,13.2-24.1,18.1-43.5,11.7c-18.8-6.2-29.4-20.9-38.6-36.4c-7.4-12.4-12.8-26.1-18.7-39.4
	c-7.1-16.2-14.9-31.7-32.6-39.1c-6.9-2.9-14.8-1.8-17.8,4.9c-6,13.3-11.8,26.8-15.9,40.7c-5.3,18-11.7,34.8-31.7,40.5
	c-7.2,2.1-15.4,2.6-22.9,1.7c-25-2.8-39.7-15.8-45.6-43.6c-3.7-17.2-4.5-34.3,6.9-48.8c9-11.5,19.6-21.7,29.9-32
	c13.8-13.8,24.4-29.4,26.2-49.1c1.2-12.3-6.9-16.2-15-15.9c-9.2,0.3-16.5,4.7-23.3,9.8c-12.5,9.2-23.8,20.2-37,28.1
	C63.4,510.3,21.9,503.2,5,464.1c-2.3-5.3-3-11.2-4.5-16.8C0.5,442.3,0.5,437.3,0.5,432.4z M914.4,374.4c12.1-0.2,21.1-3.2,27.8-11.2
	c18.7-22.3,15.4-45.5-0.9-66.8c-6.1-7.9-14.6-14.1-24.2-13.1c-11.2,1.2-21.9,6.2-27,18.3c-2.6,6.2-6.5,11.9-9.1,18.1
	c-0.9,2.3-0.6,5.9,0.5,8.1c6.4,11.9,14.1,23.2,19.6,35.5C904.4,370.8,907.2,376,914.4,374.4z"/>
<path fill-rule="evenodd" clip-rule="evenodd" fill="#FFFFFF" d="M133.4,216.2c-25.5-3-36.3,20.5-30.6,41.7
	c5.4,20,19.2,34,35.5,44.2c16.6,10.4,30.1,23.6,42.7,37.8c10,11.2,13.8,25.7,10,40.7c-4.8,19.3-18.9,30.6-36.8,36.7
	c-11.2,3.8-23.3,4.7-34.8,7.4c-13.7,3.2-26.6-0.2-39.3-4.1c-11.4-3.5-22.1-9.2-33.5-12.3c-17.1-4.6-25.1-4.6-34,12.7
	c-3.5,6.8-3.1,15.8-3.6,23.9c-1.4,19.7,20.7,46.7,46.8,47.8c21.4,0.9,36.6-9.2,52-21.6c14.1-11.4,26-26.4,46.7-27.8
	c12.1-0.8,24.5,6.8,23.8,19c-0.5,7.9-2.9,15.8-4.9,23.5c-1.2,4.7-2.2,10-5.2,13.5c-9.1,10.8-18.4,21.7-28.9,31.1
	c-10,9-19.1,18.6-23.7,31.1c-7.7,21.1-3.7,40.9,9.3,59.3c9.3,13.2,35.6,17.9,46.6,14.3c14.7-4.9,23.4-15.9,27.1-30.9
	c3.2-13.1,6.5-26.1,10.2-39c4.2-14.5,17.6-20.8,32.4-16.6c20.8,5.9,31,22.4,38.5,40.3c7.6,18.3,14.1,37,26.2,52.9
	c9.1,11.9,20.9,20.7,36.2,23.4c3.8,0.7,8.5,0.2,12-1.3C377,653.3,376,629,362,614.2c-10.9-11.4-25-20.1-38.5-28.6
	c-26.9-16.8-49-37.2-61-67.6c-3.2-8.2-1.7-14.3,1.5-20.4c5-9.5,19.2-14.6,30.4-11.3c14.2,4.2,28.2,9.1,42.1,14.3
	c16.8,6.3,33.3,9.3,49.8-0.9c6.8-4.2,10.7-11.9,8.7-19.7c-3.6-14.6-10.6-20.1-27.1-21.1c-18.3-1.1-34-8.2-47.7-20.2
	c-9.9-8.7-13-32.7-1.6-41.2c12.6-9.4,19.5-22.6,25.4-36.8c7.9-18.7,2.8-36-5.5-52.4c-2.7-5.3-10.9-9.3-17.3-11
	c-9.7-2.5-20.4-6.4-30.1-0.1c-16,10.3-31.6,21.1-47.1,32c-6.9,4.9-13.6,10.1-22.6,9.9c-18.3-0.4-29.7-13-36.6-31
	c-7.1-18.4-8.6-37.9-12.1-57.1C169.5,232.7,158.9,213.6,133.4,216.2z"/>
<path fill-rule="evenodd" clip-rule="evenodd" fill="#FFFFFF" d="M635.4,522.5c-0.5,0.8-1,1.6-1.5,2.5
	c15.6,11.5,30.6,23.9,46.9,34.2c12.2,7.8,26,13.2,39.2,19.3c17.1,7.8,34.6,14.6,53.8,13.3c7.4-0.5,14.8-2.5,21.9-4.9
	c16.2-5.5,33.6-9.5,48.1-18.1c34.1-19.9,54.2-52.1,67.8-88.1c8.2-21.8,2.6-44.3-3.1-65.8c-7-26.6-20.9-50.4-34.5-74.1
	c-7.1-12.4-16.6-23.6-26-36.7c-1.2,5.8-2.8,9.5-2.5,13.1c1.7,19.8-8.3,35.6-17.5,51.5c-6.2,10.8-13.2,21.2-21.2,30.7
	c-12.6,15-25.5,30.1-39.9,43.4c-18.5,17.1-38.5,32.7-58.1,48.6C687.3,508.8,663.1,519.8,635.4,522.5z"/>
<path fill-rule="evenodd" clip-rule="evenodd" fill="#FFFFFF" d="M840.6,309.4c-0.4-1.9-0.1-6.3-2.1-9.1
	c-9.7-13.6-40.9-20.1-55-10.6c-13.8,9.2-27.2,19.3-39.3,30.5c-15.4,14.2-29.7,29.6-43.8,45.1c-10.7,11.8-20.5,24.4-30.1,37.1
	c-1.6,2.2-1.8,7.8-0.2,9.7c4.6,5.4,6.9,11.1,8.1,18.1c1.9,11.4-1,19.4-10.2,26c-8.8,6.4-18.8,6-27.9,3.6c-7.3-1.9-9.5,1.8-10.6,6.2
	c-2,7.9-3.5,16.1-3.3,24.1c0.1,6,2.4,12.3,5.3,17.6c1.6,2.9,6.7,5.9,9.9,5.6c17.8-1.8,34.4-8.1,48.9-18.4
	c31.8-22.5,62.2-47,88.2-76.3c13.2-15,27.2-29.5,38.6-45.8C829.8,354.6,839.8,334.5,840.6,309.4z"/>
<path fill-rule="evenodd" clip-rule="evenodd" fill="#FFFFFF" d="M922.7,425.5c14,0.8,26.2-1.8,37.6-10.4
	c13.2-10,22.4-22.4,26.1-38.2c2.6-11,3.1-22.7,3.5-34.1c1-35.4-15.3-63.2-40.1-86.7c-4.2-4-9.3-7.6-14.6-10
	c-18-7.8-34.5-4.1-48.3,9.3c-8.1,7.9-15.8,16.5-22.2,25.7c-9.1,12.9-4.5,27.3,9.9,34.4c5.8-16.3,14.8-30.5,30-39.1
	c5.9-3.4,13.9-4.9,20.7-4.2c15.5,1.5,25.1,11.9,30.9,25.8c11.7,28.2,12.5,62-23.5,83.2c-5.1,3-9.9,6.8-14.2,10.9
	c-1.8,1.7-3.1,5.5-2.6,8C917.6,408.5,920.2,416.7,922.7,425.5z"/>
<path fill-rule="evenodd" clip-rule="evenodd" fill="#FFFFFF" d="M408.2,403.5c11.1-0.4,19-5.6,25.9-14.3c8-10.2,4.7-25.1-7.7-28.2
	c-3.1-0.8-6.3-1.3-9.5-1.8c-13.6-2-20.5,1.9-25.7,14.2C384,390,392.3,404.5,408.2,403.5z"/>
<path fill-rule="evenodd" clip-rule="evenodd" d="M447.8,1226.4c-25-4.4-50.6-6.7-74.7-13.8c-33.1-9.7-65.1-23.1-97.6-35.1
	c-11.6-4.3-23.3-8.6-34.4-13.9c-5-2.4-8.9-6.7-6.2-13.9c9.8-26,19.5-52.1,28.7-78.3c11.9-33.6,24.2-67.1,29.8-102.7
	c2.8-17.9,7.7-35.4,10.9-53.3c3-16.9,4.9-33.9,7.2-50.9c2.8-21,5.8-41.9,8-62.9c1-9.4-0.2-18.9,0.5-28.3c0.8-10.7,2.5-21.3,4.1-31.8
	c2.2-14.4,13.8-22.9,22-33.3c14.6-18.4,29.4-36.8,45.8-53.5c8.4-8.6,18.6-16.8,31.4-19.1c4-0.7,8.6,1,12.7,2.1
	c9.1,2.4,18.2,4.9,27.1,7.8c8.5,2.7,15.5,2.3,22.1-5c11.6-13.1,27.3-20.5,42.5-28.5c2.4-1.3,5-2.3,7.3-3.6c7.6-4.4,14.2-1.2,14,7.6
	c-0.2,5.8-2.1,11.7-3.8,17.4c-3.4,10.8-7,21.6-11.1,32.2c-2.9,7.4-1.4,11.9,5.7,16.1c31.9,19,63.9,37.8,91.7,63
	c12.2,11.1,27.1,19.3,39.4,30.2c14.2,12.5,26.5,27.1,40.5,39.9c11.9,10.9,7.1,22,1.8,32.9c-13.1,27-26.6,53.9-40.4,80.6
	c-19.3,37.4-38.9,74.6-58.5,111.9c-7.4,14.1-15.7,27.8-22.3,42.2c-9.7,21.1-20.8,42-26.6,64.2c-6,22.5-23.3,32.7-38.5,45.9
	c-2.2,2-5,3.4-7.2,5.3c-12.8,11.2-27.4,19.5-43.8,23.5c-8.9,2.2-18.4,2-27.7,2.9C448.1,1225,448,1225.7,447.8,1226.4z"/>
<path fill-rule="evenodd" clip-rule="evenodd" fill="#FFFFFF" d="M328.9,763.4c-0.8,15.8-1.1,30.9-2.6,45.9c-2.2,21-5.3,42-8.1,62.9
	c-2.8,21.3-4,43-8.8,63.8c-8.7,38.1-18.7,76-29.9,113.5c-9.3,31.3-18.1,62.8-33.8,91.9c-5.2,9.6-4.1,11.1,6.5,16.1
	c19,9,37.8,18.7,57.4,26.1c21.9,8.3,44.5,14.9,67.1,21.2c27.1,7.6,54.8,12.1,83.2,9c11.5-1.3,21.1-6.2,27.3-16.8
	c12.7-21.9,25.8-43.6,38.5-65.5c9.8-16.9,19.7-33.7,28.6-51.1c13.3-26,26-52.4,38.7-78.8c16-33.3,25.7-68.8,35.5-104.3
	c0.5-1.6-1.5-5.1-3.2-6c-16.4-9.1-32.6-18.7-49.6-26.5c-22.8-10.5-46.3-19.4-69.4-29.2c-21.1-9-41.9-18.5-63-27.4
	c-21.7-9.1-43.5-18-65.4-26.6C361.8,775.3,345.5,769.6,328.9,763.4z"/>
<path fill-rule="evenodd" clip-rule="evenodd" fill="#FFFFFF" d="M469.8,662.8c-10.4-2.5-21.4-6.2-32.8-7.6
	c-6.8-0.9-14.7,0.2-20.8,3.1c-9,4.3-16.9,11.1-25.1,16.9c-25.3,18-42.6,42.9-59.1,68.4c-3.3,5.1-1.4,8.9,2.6,11.9
	c3.4,2.5,7.4,4.6,11.4,6.1c28,10.7,56.3,20.8,84.2,31.7c20.1,7.9,39.9,16.7,59.8,25c20,8.4,40.3,16.1,59.9,25.2
	c26.2,12.1,52.2,24.7,77.6,38.2c9.5,5,16.1,2.7,23.4-2.9c11.4-8.8,22.9-17.5,34.4-26.2c7.1-5.3,14.2-10.6,21.3-15.8
	c3.8-2.8,5.6-5.6,1.9-10c-7.3-8.7-13.3-18.7-21.7-26.1c-17.1-15.2-35.1-29.5-53.3-43.4c-14.4-11-29.7-20.9-44.5-31.5
	c-17.8-12.7-37.2-22-57.8-29.1c-3.8-1.3-6.1-1.8-7,3.1c-0.4,2.3-2.6,4.4-2.9,6.7c-1.3,9.3-5.5,16.1-14.9,19.3
	c-8.1,2.8-15.8,8.2-23.9,8.9c-14.2,1.1-28.6-1.3-42.9-1c-17.1,0.4-34.1,2.3-51.2,3c-9.5,0.4-15.6-7.6-12.5-16.9
	c4.5-13.8,9.6-27.4,15.2-43c26,6.2,51.6,12.2,78.7,18.7C469.8,684.8,469.8,674.8,469.8,662.8z"/>
<path fill-rule="evenodd" clip-rule="evenodd" fill="#FFFFFF" d="M491.7,1203.2c0.6,0.6,1.1,1.3,1.7,2c11.7-8.6,22.9-18,35.2-25.6
	c16.8-10.5,25.8-25.7,32.7-43.6c9.9-25.5,20.9-50.6,32.7-75.3c9.5-19.9,20.9-39,31.4-58.5c15.7-29.2,31.9-58.3,46.9-87.9
	c9.6-19,17.7-38.7,26.4-58.1c-0.7-0.5-1.5-0.9-2.2-1.4c-0.9,0.3-1.9,0.5-2.7,1.1c-16,11.2-32,22.5-47.8,33.8c-1.4,1-2.6,2.8-3.2,4.4
	c-2.9,7.8-5.6,15.7-8.5,23.5c-6.7,17.9-12.5,36.2-20.3,53.6c-18.6,41.4-37.5,82.6-57.7,123.2c-11.5,23.2-25.8,45.1-39.1,67.4
	C508.9,1175.8,500.2,1189.5,491.7,1203.2z"/>
<path fill-rule="evenodd" clip-rule="evenodd" fill="#FFFFFF" d="M481,723.2c22.8-0.7,28-2.5,33.4-22.1c1-3.6,2-7.3,3.3-10.9
	c7.3-21.5,14.8-42.9,22.1-64.4c0.9-2.7,0.9-5.6,1.4-8.5c-0.7-0.7-1.3-1.4-2-2c-14.7,8.4-30.1,15.9-44,25.6
	c-10.1,7-17.6,17.3-17.9,30.8c-0.1,6.2,0.1,12.5,0.6,18.7C478.7,701.2,479.9,712,481,723.2z"/>
<path fill-rule="evenodd" clip-rule="evenodd" fill="#FFFFFF" d="M471.1,724.5c0-6.9,0.5-11.7-0.2-16.2c-0.4-2.3-2.6-5.7-4.6-6.2
	c-19.4-4.9-38.8-9.3-58.3-13.7c-11.3-2.5-16.8,2.9-15,14.3c2.2,14.2,4,16.1,18.7,19.1c5.6,1.1,11.2,2.4,16.8,2.6
	C442.6,724.8,456.7,724.5,471.1,724.5z"/>
<path fill-rule="evenodd" clip-rule="evenodd" d="M551.1,974.5c-5.7-1.9-10.2-3.5-14.7-4.8c-12.7-3.6-25.1-6.1-38.6-2.2
	c-17.7,5.1-37.2-13.7-41.7-29.2c-4.2-14.4,1.4-25.9,11.1-35.1c10.5-10,21.6-20,36.9-22.4c5.9-1,11.8-1.8,17.7-2.7
	c8.4-1.3,13.8,3.2,19,9.1c2.5,2.8,6.8,5,10.6,5.7c6.6,1.3,13.5,1.7,20.3,1.8c15.7,0.1,25.5,17.6,24.3,32
	c-1.6,18.4-10.8,31.5-25.8,40.8C564.6,970.9,557.4,972.2,551.1,974.5z"/>
<path fill-rule="evenodd" clip-rule="evenodd" fill="#FFFFFF" d="M462.8,920.2c0,27.1,19.4,42.9,38.6,37.7
	c22.9-6.2,35.8-22.2,41.1-44.8c1.8-7.7-7.8-24.7-15.2-25.7c-14.5-1.9-29-2.1-41.9,7.2C473.8,902.8,463.1,911.3,462.8,920.2z"/>
<path fill-rule="evenodd" clip-rule="evenodd" fill="#FFFFFF" d="M550,966.2c17.9,0,30-11.8,37.1-30.3c5.6-14.5-0.9-31.8-19.6-34.8
	c-10.3-1.6-20,2.9-19.9,10.6c0.4,14.8-5.7,27-15.6,37.3c-4.8,5-2.6,9.3,1.5,11.5C539.7,963.7,546.7,965.1,550,966.2z"/>
<path fill-rule="evenodd" clip-rule="evenodd" d="M732.2,531.8c0-16.7,8.8-30.9,24.3-35.7c9.7-3,15.2-8.4,19.2-17.5
	c6.1-13.9,20.1-20.2,33.3-17c20.9,5.1,35.1,27.7,27.5,50.3c-3.7,11.1-10.9,17.8-21.2,21.6c-4.3,1.6-7.5,2.2-9.3,7.9
	c-1.9,6.3-7.2,11.7-11.5,17.1c-9.9,12.4-28.1,13.6-41,5.6C737.4,554,731.8,544.6,732.2,531.8z"/>
<path fill-rule="evenodd" clip-rule="evenodd" fill="#FFFFFF" d="M830.4,497.4c0-13.8-15.3-30.2-28.2-30.1
	c-10,0-25.9,18.7-26.8,29.8c-1,11.9,18.1,31.9,32.1,30.1C822.4,525.2,829.6,517.6,830.4,497.4z"/>
<path fill-rule="evenodd" clip-rule="evenodd" fill="#FFFFFF" d="M770.6,560.4c0.4,0.7,0.8,1.4,1.2,2.1c5.7-3.2,11.9-5.7,16.9-9.8
	c3.9-3.1,6-8.3,9.4-12.2c3.9-4.6,3-6.3-2.6-8.6c-12.2-5.2-21-14-25.3-27.1c-0.6-1.9-4.9-3.7-7.3-3.5c-3.3,0.3-6.5,2.4-9.6,4
	c-8.7,4.2-17.7,18.6-15.9,26.7C740.1,543.9,753.4,562.4,770.6,560.4z"/>
<path fill-rule="evenodd" clip-rule="evenodd" d="M602.6,61.3c0.2,16.9-10.7,27.7-22,37.6c-13.3,11.6-28,21.3-45.5,26.1
	c-9.7,2.7-17.9-1-18.9-10.5c-2.9-26.9,0.4-52.3,22.4-71.6c10.1-8.8,21.3-12.7,34.7-8.5c4.6,1.5,9.6,2,14,3.8
	C599.4,43.1,602.5,48.1,602.6,61.3z"/>
<path fill-rule="evenodd" clip-rule="evenodd" d="M103.1,0c27.4-0.8,41.5,21.4,41.6,44.6c0.1,17.8-2.8,35.9-6.7,53.3
	c-2.2,9.9-8.8,20.3-19.7,23.1c-12.8,3.3-24.9-1.1-32.8-12.1c-10.4-14.5-21-29.4-24.2-47.4C56.9,36.7,59.8,21,81.1,7.1
	C87.4,3.1,95.7,2.3,103.1,0z"/>
<path fill-rule="evenodd" clip-rule="evenodd" d="M216.8,124.9c-2.8,9.5-5.7,18.9-8.5,28.4c-3.1,10.5-22.6,17.3-32.5,13.1
	c-6.3-2.7-10.4-7.3-10.4-13.1c0.1-12.8-0.1-26.3,3.6-38.3c4.7-15.8,17-24.8,32.2-18.7c7.3,2.9,11.5,8.9,12.9,16.7
	c0.7,3.7,0.8,7.5,1.1,11.3C215.8,124.5,216.3,124.7,216.8,124.9z"/>
<path fill-rule="evenodd" clip-rule="evenodd" d="M309.9,368c-2.8,18.7-21.4,34.3-40.7,26.2c-8.5-3.6-11.7-8.4-9.3-18.1
	c1.5-6.2,2.4-13.4,6.2-18c9.8-11.7,35.9-5.2,42.7,6.1C309.6,365.5,309.7,367.2,309.9,368z"/>
<path fill-rule="evenodd" clip-rule="evenodd" d="M774,448.6c19.1-15.4,42.7-21.2,66.5-30.9c0,6.5,0,11.3,0,15.2
	c-21.2,5-42.2,5.8-59.7,18.1c-1.5,1-4.1,0.5-6.1,0.7C774.4,450.6,774.2,449.6,774,448.6z"/>
<path fill-rule="evenodd" clip-rule="evenodd" d="M738.4,486.9c-2,3.7-3.4,7.9-6.2,10.9c-9.5,10.6-17,21.6-13.9,37.1
	c0.4,2-2.7,6.7-4.3,6.8c-3.7,0.1-7.7-1.4-11-3.3c-1.2-0.7-1.8-5.1-0.8-6.7c8.6-14.1,17.5-28.1,26.5-41.9c1.5-2.3,4-3.9,6.1-5.8
	C736.1,484.9,737.2,485.9,738.4,486.9z"/>
<path fill-rule="evenodd" clip-rule="evenodd" d="M430.5,1016.6c0.9-3.9,1.2-7.5,2.6-10.6c0.7-1.5,3.4-3.1,5-3
	c10.6,0.8,21.3,1.5,31.7,3.4c13.8,2.4,27.3,5.8,41,8.7c4.2,0.9,8.5,2.6,12.7,2.4c8.6-0.4,7.7,5.1,7.4,10.4c-0.4,6.7-5.8,5.1-9.4,4.6
	c-27.6-4.2-55.3-8.7-82.9-13.2C436.3,1018.9,434.1,1017.8,430.5,1016.6z"/>
<path fill-rule="evenodd" clip-rule="evenodd" d="M310.5,1013.1c-0.2,3.7,0.6,7.8-0.7,11c-10.8,27.7-22.1,55.2-33,82.8
	c-2.6,6.5-4.4,13.3-7,19.8c-0.7,1.8-2.8,3.1-4.2,4.7c-1.1-0.5-2.1-1-3.2-1.5c1.9-6.1,3.3-12.4,5.8-18.2
	c8.5-20.5,17.8-40.7,26.1-61.3c4.2-10.5,7-21.5,10.5-32.3c0.6-1.9,1.5-3.7,2.2-5.6C308.1,1012.8,309.3,1013,310.5,1013.1z"/>
<path fill-rule="evenodd" clip-rule="evenodd" d="M314.7,1048.6c-9.8,25.8-19.5,51.7-29.5,77.5c-0.4,0.9-2.7,1.1-6.4,0.3
	c10.9-26.4,21.7-52.9,32.6-79.3C312.5,1047.6,313.6,1048.1,314.7,1048.6z"/>
<path fill-rule="evenodd" clip-rule="evenodd" d="M420,1105.2c24.7-4.7,87.9,3.2,91,12.3c-8.7-2.1-16.9-4.6-25.2-5.8
	c-19.3-2.8-38.7-6.4-58.3-1.6c-2.4,0.6-5.6-1.7-8.4-2.6C419.4,1106.7,419.7,1106,420,1105.2z"/>
<path fill-rule="evenodd" clip-rule="evenodd" d="M441.6,1088.5c15.1-5,58.3,3,61.2,12.3c-7.4-1.9-14.1-4.4-21.1-5.1
	c-10.1-1.2-20.3-0.9-30.4-1.6c-3.6-0.3-7-1.8-10.5-2.7C441.1,1090.4,441.4,1089.4,441.6,1088.5z"/>
<path fill-rule="evenodd" clip-rule="evenodd" d="M427.4,1128.4c19.2-3.6,53.9,2.4,58,9.5c-8.3-1.6-15.1-3.5-22-4.2
	c-9.9-1-19.8-0.8-29.7-1.7C431.5,1131.9,429.5,1129.7,427.4,1128.4z"/>
<path fill-rule="evenodd" clip-rule="evenodd" d="M455.4,1074.7c15.7,1.7,31.3,3.4,47,5.1c-0.1,1.5-0.3,2.9-0.4,4.4
	c-6.8-0.7-13.6-1.7-20.4-2.1c-6.3-0.4-12.7,0.4-19-0.3c-3.1-0.3-6-2.8-8.9-4.3C454.2,1076.5,454.8,1075.6,455.4,1074.7z"/>
<path fill-rule="evenodd" clip-rule="evenodd" d="M601.2,751c2.4,0.2,5.4-0.4,7,0.8c7.8,6.1,15.4,12.6,22.8,19.3
	c10,9.1,19.3,18.9,29.6,27.6c7.9,6.6,16.7,12.2,25.3,17.9c8.1,5.3,8.3,5.9-0.3,13.8c-28.1-25.5-56.2-51.1-84.4-76.7
	C601.2,752.7,601.2,751.8,601.2,751z"/>
<path fill-rule="evenodd" clip-rule="evenodd" d="M666.8,832.5c-18.7-17.6-37.4-35.3-56.2-52.9c0.7-0.9,1.3-1.8,2-2.7
	c5.9,4,12.2,7.5,17.5,12.1c11.8,10.1,23.3,20.5,34.5,31.2c2.6,2.5,3.6,6.7,5.4,10.1C669,831,667.9,831.8,666.8,832.5z"/>
<path fill-rule="evenodd" clip-rule="evenodd" d="M499.9,654.2c0,14.1,0,28.1,0,42.2c-0.8,0.1-1.5,0.2-2.3,0.3
	c-1-13.4-2.1-26.7-3-40.1c-0.1-1.1,1.7-2.4,2.6-3.6C498.1,653.5,499,653.8,499.9,654.2z"/>
<path fill-rule="evenodd" clip-rule="evenodd" d="M486.7,693.3c-1.3-8.8-2.7-17.5-3.7-26.3c-0.1-1,2-2.2,3.1-3.3
	c1.1,1.1,3.3,2.6,3.1,3.2c-3.1,7.7-0.4,14.8,1.8,22.1c0.3,1.1-1.1,2.8-1.8,4.2C488.3,693.2,487.5,693.3,486.7,693.3z"/>
<path fill-rule="evenodd" clip-rule="evenodd" d="M802.7,495.1c-3,4-5.5,7.2-8,10.4c-2.9-2.4-6.9-4.2-8.5-7.2
	c-2.3-4.5-5.1-10.4,1.3-14.2c2.2-1.3,6.6-1.8,8.1-0.5C798.4,486.1,799.8,490.2,802.7,495.1z"/>
<path fill-rule="evenodd" clip-rule="evenodd" d="M754.2,512.2c4.2,4.8,8.8,7.6,9.1,10.8c0.3,3.9,0.1,10.3-6.9,10.7
	c-3.8,0.2-11-7.7-10-12C747.1,518.9,750.3,516.7,754.2,512.2z"/>
<path fill-rule="evenodd" clip-rule="evenodd" d="M515.8,901.7c-1,8.2-4,12.7-9.9,12.5c-2.8-0.1-5.4-4.6-8.1-7.1
	c3.5-3.6,6.8-7.6,10.8-10.4C509.4,896.1,513.3,899.9,515.8,901.7z"/>
<path fill-rule="evenodd" clip-rule="evenodd" d="M577.3,921.3c-5.1,3.7-8.3,7.7-11.6,7.8c-2.6,0.1-5.3-4.8-8-7.4
	c3.3-2.9,6.3-6.6,10.1-8.2C569.3,912.9,572.8,917.4,577.3,921.3z"/>
<path fill-rule="evenodd" clip-rule="evenodd" fill="#FFFFFF" d="M111.9,113.2c6.5,1,11.3-3.4,14.6-9.3c11-19.5,14-40.9,11.7-62.5
	C135.1,13.1,106.5-2.1,83,17.3c-7.3,6-13.3,14.9-17,23.7c-2.2,5.2,0.5,13,2.3,19.3c4.3,15.4,13.2,28.3,22.4,41.1
	C96,108.6,101.8,113.1,111.9,113.2z"/>
<path fill-rule="evenodd" clip-rule="evenodd" fill="#FFFFFF" d="M208.4,128.1c1.3-7.8-1.5-16.2-8.7-22.5c-2.4-2.1-8-3.6-10.4-2.3
	c-4.9,2.8-9.4,7.2-12.5,11.9c-8.4,12.8-5.9,26.7-1.4,40c0.8,2.5,6.8,5.3,9.7,4.7C201.5,156.8,208.4,147.3,208.4,128.1z"/>
</svg>
