<?xml version="1.0" encoding="utf-8"?>
<!DOCTYPE svg PUBLIC "-//W3C//DTD SVG 1.1//EN" "http://www.w3.org/Graphics/SVG/1.1/DTD/svg11.dtd">
<svg artist="zl2017" version="1.1" id="zlIcon-computer-signal" xmlns="http://www.w3.org/2000/svg" xmlns:xlink="http://www.w3.org/1999/xlink" x="0px" y="0px"
	 width="1000px" height="1118.3px" viewBox="0 0 1000 1118.3" enable-background="new 0 0 1000 1118.3" xml:space="preserve">
<path fill-rule="evenodd" clip-rule="evenodd" d="M692.6,452.6c2-37.4,4-71.7,5.7-106c1-21.9,0.8-43.9,2.6-65.7
	c1.2-14.9,0.1-27.7-12.7-37.9c-14.5-11.6-11.2-28.3-9.8-43.7c1.3-14.1,10.9-21.8,25.4-22.6c12.4-0.7,22.1,4.5,25.4,16.3
	c2.8,10.3,6.9,23.1,3.4,31.9c-14.1,35-8.6,71.4-10.7,107c-2.8,46.3-4.6,92.8,4.3,140.7c13.7,8,27.4,17.3,45,21
	c15,3.1,29.8,9.5,43.4,16.8c29.2,15.7,37.4,33.3,28.9,66c-5.1,19.5-12.1,39.3-22.5,56.4c-35.8,58.7-72.8,116.8-121.7,166
	c-13.2,13.3-27,26.1-41.8,37.6c-25.5,19.8-48,41.6-68,67.6c-19.7,25.7-46.4,46.5-71.5,67.6c-43.1,36.3-87.1,71.6-131.4,106.4
	c-15.9,12.5-33.4,23.3-51,33.3c-17.8,10.2-36.1,9.7-52.7-3.8c-14.5-11.9-29.1-23.7-43.1-36.2c-23.3-20.9-48.9-38.2-75.2-55.3
	c-42-27.3-84.6-53.4-127.5-79.2c-26.8-16.1-38.2-44.9-36.5-77c1.6-30.7,3.5-61.4,6-92.1c2.3-28,9.6-35.2,35.6-40.4
	c58.3-11.8,116.5-24.3,176.7-22.1c10.7,0.4,21.4-4.9,32.2-5.7c31.7-2.2,47.5-23.4,55.9-49.7c6-18.8,11-38.5,6.3-59.8
	c-4-18.1-3.4-37.4-3.2-56.2c0.4-37.5,2.8-74.9,0.5-112.4c-0.9-15.3,3-31,6.2-46.3c6.6-31.7,33.5-51.4,64.8-45.6
	c19.7,3.7,39.4,10.3,57.7,18.8c23.7,11.1,45.5,26.2,69,37.9c20.7,10.4,41.8,22,64.1,26.8c25,5.3,48.3,14.2,69.8,26.1
	C658.5,448.3,674.5,447.6,692.6,452.6z"/>
<path fill-rule="evenodd" clip-rule="evenodd" fill="#FFFFFF" d="M340.4,672c29.6,24.7,56.3,49,93.5,56.2c5.8,1.1,10.9,5.9,16.5,8.7
	c37,18.1,66.5,46.2,96.9,73c10.5,9.3,20.3,19.6,31.6,27.9c18.4,13.5,30.4,12.2,43.7-6.6c19.8-28,37.9-57.2,56.6-86
	c8.5-13.1,13.8-29.6,25.1-39.1c24.6-20.7,38.3-49.2,57.6-73.5c13.2-16.7,20.7-37.8,29.4-54.4c-15.8-47.5-52.2-69.4-90.2-81
	c-43.7-13.3-85.5-28.7-125.1-51.1c-6.8-3.8-14.3-6.3-21.7-8.9c-50.1-17.6-100.3-34.9-150.4-52.5c-13.1-4.6-25.4-8.1-31.8-24.2
	c-4.7-11.7-25.5-7-29,6c-2,7.4-3,15.4-2.8,23.1c1.4,46.5,3.6,92.4-2.2,139.4C332.4,574.7,339.1,622.2,340.4,672z"/>
<path fill-rule="evenodd" clip-rule="evenodd" fill="#FFFFFF" d="M45,762.3c0,3.9-0.6,5.9,0.1,6.9c31.2,42.8,61.6,86.1,103.6,119.9
	c16.7,13.5,31.7,29.9,44.8,47c32.2,42.2,70,80.1,96.3,126.8c1.5,2.7,3.8,4.9,5.9,7.3c22.1,24.8,33.2,26.9,59.8,7.5
	c24-17.5,46.5-37,69.9-55.3c55.5-43.2,106.7-91.1,157.3-140.4c-25.7-26.3-50-52.5-75.9-77c-23.9-22.7-50.4-43.2-81.2-54.9
	c-39.6-15-75.3-35.2-105.4-68.4c-28.9,36-66.3,43.9-106.6,44.4c-32.7,0.4-65.6,1.9-97.4,9.4C91.2,741.4,62.8,741,45,762.3z"/>
<path fill-rule="evenodd" clip-rule="evenodd" d="M973,296.2c13.2-17.6,10.7-38.9,11.7-58.5c2.2-43.6-3.8-86.7-14.2-129.3
	c-7.5-30.8-18.6-59.2-37.9-84.4c-4.5-5.9-7.6-12.7-11.4-19.1c13.7-9.2,22.3-4.4,29,6c19.7,30.4,34.5,62.8,38.2,99.4
	c0.9,9.3-0.7,19.6,2.8,27.8c14,33.4,6.1,67.5,4.5,101.2c-0.8,16.5-7.1,33-12.2,49c-1,3.3-7.6,4.9-11.6,7.3
	C972,295.6,973,296.2,973,296.2z"/>
<path fill-rule="evenodd" clip-rule="evenodd" d="M844.8,284c8.2-25.4,13.4-44.3,20.5-62.5c14.8-37.9,9.7-73.1-11.9-106.7
	c-4.2-6.5-8-13.3-12-20c-8.8-14.7-10.2-26.2-3.3-27.4c13.2-2.3,20.4,6.6,26,15.8c28.2,46.1,39.9,94.1,15.1,145.8
	C871,246.3,868.3,266.9,844.8,284z"/>
<path fill-rule="evenodd" clip-rule="evenodd" d="M801.5,216c-1.9-20.6-9.2-38.2-19.6-54.7c-1.8-2.8,2.7-11,6.3-14.9
	c1.5-1.7,10.3-0.3,11.8,2.1c6.3,10.4,13.7,21.2,15.8,32.7C818,192.9,816,206.1,801.5,216z"/>
<path fill-rule="evenodd" clip-rule="evenodd" d="M972,295.6c9.2,8.8,8.7,19.7,4.7,30c-5,12.8-11.7,24.8-22.7,36
	c0.6-5.8,0.3-11.9,2.1-17.3c5.3-16,11.5-31.8,17.2-47.9C973,296.2,972,295.6,972,295.6z"/>
<path fill-rule="evenodd" clip-rule="evenodd" d="M438.1,534.7c1.7,33.3,5,63.2-2,92.6c-2.2,0.7-3.5,1.2-4.9,1.6
	c-5.5-27.8-7.7-55.9-5.4-84.2C426.1,541.9,431.9,539.6,438.1,534.7z"/>
<path fill-rule="evenodd" clip-rule="evenodd" d="M402.6,541.4c-12-51.1-12-51.1-4.2-67.6C410.5,498,413.5,519.3,402.6,541.4z"/>
<path fill-rule="evenodd" clip-rule="evenodd" d="M179.8,864.3c8.2-3.7,12.9-7.9,16.1-7c32.7,9.4,57.5,29.4,75.2,58.4
	c8,13.2,7.5,27,1.4,40.3c-2.3,5.1-7.7,11.1-12.6,12.2c-4.6,1-12.5-2.8-15.4-6.9C223.4,930.8,203.1,899.6,179.8,864.3z"/>
<path fill-rule="evenodd" clip-rule="evenodd" d="M154.5,795.1c1.3,9.9-10.3,23.6-19.2,20.5c-7.9-2.7-14.9-9.3-20.9-15.5
	c-1.7-1.7-0.1-9.5,2.5-12.1c8.4-8.3,25-8.3,33.2-0.7C152.2,789.3,153.1,792.5,154.5,795.1z"/>
<path fill-rule="evenodd" clip-rule="evenodd" d="M331.6,754.8c3.9,4.6,12,9.9,12.3,15.6c0.6,8.6-3.1,18.2-7.6,25.8
	c-1.7,2.8-12.3,3.8-16.2,1.3c-14.1-8.8-13.6-29.2,0-39C322.5,756.9,325.8,756.7,331.6,754.8z"/>
<path fill-rule="evenodd" clip-rule="evenodd" d="M453,861.9c14.7,6.7,16.9,16.5,12.7,28.2c-3.7,10.4-15.8,16.5-21.9,11.1
	c-7.4-6.5-12.2-15.2-6.3-24.6C441.4,870.5,448.2,866.3,453,861.9z"/>
<path fill-rule="evenodd" clip-rule="evenodd" d="M389.4,849.3c-7.8-8.5-14.9-13.9-18.5-21.1c-1.9-3.8,0.8-13.7,4.2-15.4
	c5.8-2.9,14.4-3.5,20.5-1.3c3.3,1.2,6.1,10.4,5.2,15.3C399.5,833.6,394.5,839.7,389.4,849.3z"/>
<path fill-rule="evenodd" clip-rule="evenodd" d="M226,807.5c-2.1-10.8-4-20.7-5.7-29.6c12.1-9.8,22.6-10.2,30,0.7
	C256.2,787.3,248.6,796.1,226,807.5z"/>
<path fill-rule="evenodd" clip-rule="evenodd" d="M290.8,1015.5c12.6-12,23.4-12.9,33.1-2.2c3.2,3.5,4.7,11.5,3,15.9
	c-3.1,8.1-12,10.8-18.8,6.1C301.2,1030.6,296.6,1022.5,290.8,1015.5z"/>
<path fill-rule="evenodd" clip-rule="evenodd" d="M302,858.6c-3.4,2.8-8.2,9.3-14.3,11c-8.3,2.2-16.1-7.3-17-17.8
	c-0.7-8.1,5.6-14.7,14-14.7C295.3,837.2,302,843.9,302,858.6z"/>
<path fill-rule="evenodd" clip-rule="evenodd" d="M337.7,899.4c4.2,3.4,7.2,5.9,10.3,8.4c-3.3,3.9-6.5,7.8-9.8,11.8
	c-2.9-3-7.7-5.8-8.1-9.1C329.9,907.5,334.4,904,337.7,899.4z"/>
<path fill-rule="evenodd" clip-rule="evenodd" d="M384,980.2c-3.7-4-8.1-6.8-7.9-9.1c0.3-3.1,3.8-7.7,6.6-8.3
	c2.5-0.5,8.3,3.5,8.4,5.7C391.2,971.6,387.5,974.9,384,980.2z"/>
</svg>
