<?xml version="1.0" encoding="utf-8"?>
<!DOCTYPE svg PUBLIC "-//W3C//DTD SVG 1.1//EN" "http://www.w3.org/Graphics/SVG/1.1/DTD/svg11.dtd">
<svg artist="zl2017" version="1.1" id="zlIcon-computer-connection" xmlns="http://www.w3.org/2000/svg" xmlns:xlink="http://www.w3.org/1999/xlink" x="0px" y="0px"
	 width="1000px" height="520.3px" viewBox="0 0 1000 520.3" enable-background="new 0 0 1000 520.3" xml:space="preserve">
<path fill-rule="evenodd" clip-rule="evenodd" d="M788.8,412.4c14-25.8,27.6-52,42.3-77.4c11.9-20.5,23.5-41.2,38.9-59.3
	c3.4-4,7-6.6,11.7-8.9c14.4-6.8,28.7-12.8,45.3-10.1c4.8,0.8,10.2,0.2,15-1.2c12.2-3.6,24.3-0.9,36.5-0.4c8.2,0.4,13.8,5,16.5,11.9
	c2.6,6.5,4.7,13.9,4.5,20.8c-0.6,19.3-1.9,38.8-8,57.3c-2.7,8.1-6.1,16.2-10.5,23.5c-8.2,13.7-14.5,28.1-18.2,43.6
	c-3.7,15.3-12.9,27.4-23.5,38.1c-8.9,9-20.9,12.3-33.8,10c-4.2-0.8-8.2-2.7-12.4-3.5c-9.8-1.9-19.4-3.7-29.8-2.5
	c-14.2,1.6-28.7,1.4-43.1,0.8c-20.4-0.8-26.2-7-28-27.5C791.7,423,790.2,418.5,788.8,412.4z"/>
<path fill-rule="evenodd" clip-rule="evenodd" fill="#FFFFFF" d="M808.9,413.7c3.5,1.7,6.1,2.8,8.5,4.3c9.8,6,20.1,9.7,31.8,11.1
	c14.1,1.6,28.5,5.3,40.6,12.9c8.1,5.1,15.3,6.9,24.3,4.9c9.8-2.1,17.5-7,22-15.9c6.2-12.2,12.1-24.5,17.7-36.9
	c5.6-12.4,11.1-24.9,15.8-37.6c6.1-16.1,12.3-32.2,16.7-48.8c3.4-12.6,2-25.5-5.7-37.3c-4.3-0.3-7.8-0.8-11.3-0.6
	c-18.6,1.2-37.2,3.4-55.9,3.8c-24.4,0.5-40.5,12.2-51.2,33.2c-7.8,15.2-15.7,30.4-23.1,45.9c-2.5,5.2-5.5,10.1-8.4,15.1
	c-6.2,10.5-12.8,20.8-18.4,31.7C810,403.4,809.9,408.6,808.9,413.7z"/>
<path fill-rule="evenodd" clip-rule="evenodd" d="M235,431.8c1.5,10.7-3.9,18.4-10.9,24.8c-11.1,10.1-22.3,20.2-34.4,29
	c-9.8,7.1-20.8,12.4-26.1,24.4c-1,2.3-3.9,4.6-6.4,5.5c-13.5,4.9-31.9,9.8-46-5.6c-5.3-5.8-11.8-10.6-17.8-15.7
	c-8.4-7.1-15.5-15.5-19.6-25.5c-8.9-21.5-23.8-39.2-37.1-57.7c-14.4-20-25.9-41.3-33.3-64.8c-0.4-1.4-0.9-2.7-1.2-4.1
	C-3.2,317.9,4,303.3,27.4,295c27.1-9.5,54.9-16.6,83.5-20.1c12.3,4.7,26.6,4,35.7,16.4c21.6,29.6,44,58.6,65.6,88.2
	c8.9,12.1,18.5,24.1,20.7,39.7C233.4,423.5,234.3,427.6,235,431.8z"/>
<path fill-rule="evenodd" clip-rule="evenodd" fill="#FFFFFF" d="M65.9,416.6c0.5,1.9,0.8,4,1.7,5.7c0.4,0.7,2.3,0.6,3.5,0.8
	c0.1,0,0.7-1.3,0.5-1.6c-1.5-2-3.1-3.9-4.7-5.9c-1.5-10.2-5.6-19.1-11.8-27.4c-1.9-2.6-3.2-7.2-2.2-9.9c2.4-6.6,9.1-8.9,15.3-10.1
	c5-1,8.5,3.4,9.7,7.2c4.4,13.9,12.2,25.8,20.3,37.6c4,5.8,2.8,10.7-2.7,15.1c-3.8,3-7.8,5.7-12.7,9.2c6.3,10.7,11.7,20.7,17.9,30.2
	c6.6,10.2,13.5,20.2,21,29.7c5.4,6.8,12.1,8.5,19.1,4.3c14.8-8.8,29.9-17.3,39.5-32.6c6.5-10.3,12.8-20.9,20.8-30
	c7.5-8.6,13.9-17.4,18.1-29.5c-13.2-18.1-26.4-36.9-40.2-55.2c-12-16.1-25.8-31-36.6-47.9c-8.4-13-18.7-16.5-32.7-14.5
	c-5.7,0.8-11.4,1.5-17.1,2.1c-23.7,2.4-46.3,9.3-68.1,18.5c-3.7,1.6-6.8,4.7-9.8,6.8c3.2,20.3,6.7,39.2,17.1,56.2
	C41.3,391.1,50.5,406.4,65.9,416.6z"/>
<path fill-rule="evenodd" clip-rule="evenodd" d="M380.4,293.5c6.7,3.8,11,6.4,15.4,8.7c8.8,4.7,14.4,11.9,16.7,21.5
	c3.1,13.3,6.8,26.5,8.7,39.9c2.4,17.4,11.7,29.9,26.8,36.6c17.9,7.9,37.4,11.3,56.8,5.7c10.3-3,19.5-9.5,23.9-20.3
	c3-7.3,6.9-14.7,7.7-22.4c2.3-22.2,16.5-34.2,34.7-43.1c6.4-3.1,13.2-5.5,19.7-8.5c11.5-5.3,13.8-9.8,10.9-22.1
	c-7.3-30.8-15.2-61.4-21.9-92.3c-5.1-23.2-7.4-46.8-8.5-69c13.4-18.5,30.9-28.3,49.5-36.3c21.1-9.1,41.1-20.3,61.1-31.6
	c18.1-10.2,36.6-19.7,53.5-28.8c7.6,1.4,13.3,2,18.8,3.5c15.5,4.4,26,13.3,30.9,29.8c7.3,24.5,8.9,49.5,9.5,74.7
	c0.7,31.6-0.5,63.3,3.7,94.9c1.5,11.3-1.7,21.1-10.4,29.2c-10.4,9.9-20.6,20.1-30.1,30.9c-9.8,11.1-18.8,23-29.2,36
	c11.3,2.7,20-1.9,28.9-2.5c6.7-0.4,11,4.5,8.8,10.6c-0.5,1.3-1,2.7-1.8,3.9c-6.9,10.1-13.4,20.5-20.9,30.1
	c-7.9,10.2-17.3,19.2-24.7,29.8c-7.8,11.2-18,18.1-30.1,22.4c-14.9-7.2-14.9-7.2-21.8-21.1c3.6-6.1,7.4-12.9,11.6-19.6
	c4-6.4,12-10.7,10.6-21.4c-8.4-3.5-16.9-5.8-25.6,0.4c-9.8,7.2-20.8,4.5-31.1,2.9c-4.1-0.6-8.2-5.6-11-9.5c-2.8-4-3.9-9.2-5.9-13.8
	c-3.2-7.1-6.6-14.2-9.9-21.3c-14.8,2.9-26.8,9.6-38.6,16.3c-9.8,5.6-15.2,15.2-18,26c-1.6,6.2-1.9,12.8-3.2,19.1
	c-3,14.9-9.7,27-25.7,31.6c-9.7,2.8-19,7-28.8,9c-19.5,4-37-2.2-53.3-12.7c-4.8-3.1-9.3-6.8-13.8-10.3c-9-7-14-16-15.4-27.4
	c-1.2-10-3.1-19.9-5.3-29.7c-2.2-9.9-8.2-16.4-18.5-18.8c-6.1-1.4-12-4-18.7-6.4c-4.3,6.2-9.2,13.3-13.8,19.9
	c-15.8,2-30.8,4.2-45.8,5.5c-3.8,0.3-8.3-1.7-11.7-3.9c-5.9-3.8-11.3-8.5-17.9-13.7c-5.3,9.8-5.3,17.8,1.8,25.6
	c5.4,5.8,10.7,11.7,15.6,17.9c4.7,5.8,4.4,12.1-0.5,17.6c-1.9,2.1-4.2,4-6.5,5.6c-2.9,2-6,3.6-8.7,5.1c-9.2-2.9-13.3-10-17.6-16.4
	c-9.8-14.5-20.8-27.5-35.9-36.8c-9.3-5.7-12.9-15.3-15.1-25.2c-1.3-5.9,1.9-13.3,5.9-15.2c5.1-2.4,9.8-0.9,14.4,1.6
	c4.3,2.3,8.5,4.7,13.4,7.3c6.2-7.3,2.9-14.6,3.6-20.5c-11.6-16.2-25.8-28.2-41.3-38.9c-14.8-10.2-29.3-20.8-44.3-31.5
	c-4-15,0.9-29.9,2.6-44.7c3.9-33.5,9.2-66.9,13.8-100.3c1.4-9.9,2-20,3-30c1.6-15.8,13.9-26.3,18.9-39.3
	c22.6-11.6,46.1-6.9,68.8-8.2c5.4-0.3,11,2.8,16.5,4.6c22.5,7.3,45.2,14,66.1,25.7c11.2,6.3,23.5,11.1,35.7,15.3
	c13.1,4.5,24.6,11.8,36.2,18.9c11.6,7,17.1,17.1,15.5,30.8c-0.3,2.9-0.2,5.8-0.8,8.6c-3.9,16.8-8.1,33.5-12.1,50.2
	c-3.4,13.9-6.8,27.9-10,41.9c-6,26.1-16,50.6-27.8,74.5C384.7,277.3,383.1,285.2,380.4,293.5z"/>
<path fill-rule="evenodd" clip-rule="evenodd" fill="#FFFFFF" d="M759.9,55.7c-11.9-9-25-2.2-37.5-2.7c-9.1-0.3-16.6,3.9-24,8.5
	c-28.6,17.9-57.2,35.7-85.9,53.6c0,7.4-0.7,15.3,0.1,23.1c3.6,33.5,7.1,67.1,11.9,100.5c2.9,20.6,7.6,40.9,12.4,61.2
	c4.3,18.3,15.8,32.2,30.3,43.5c10.7,8.4,23.1,7.5,33-1.3c15-13.4,29.9-26.7,41.9-43.2c8.8-12.1,19.3-23.6,31-32.8
	c9.1-7.2,12.9-15.1,12.3-25.7c-1.8-33.6,1.6-67.6-7-100.8c-1.4-5.5-1.8-11.3-2.8-17C771.6,100.1,769.1,77.2,759.9,55.7z"/>
<path fill-rule="evenodd" clip-rule="evenodd" fill="#FFFFFF" d="M304.9,329.8c8.6-6.6,10.8-15,14-23c6-14.6,11.6-29.5,18.9-43.5
	c10.9-21.1,23.7-41.2,34.4-62.3c9.8-19.2,18.6-38.9,26.6-58.9c7.8-19.6,1.7-36.3-15.3-49.1c-13.2-9.9-26.4-19.9-39-30.6
	c-24-20.4-51.3-34.4-81.4-42.6c-8.8-2.4-18.6-3.1-27.8-2.3c-17.5,1.7-38,12-40.1,35.6c-0.4,5-2.1,9.8-2.9,14.8
	c-6.7,38.9-8,78.6-16.6,117.3c-6.1,27.3-4.2,28.8,20.2,45.5c3,2,6,4,8.8,6.2c24.9,19.5,49.6,39.2,68.7,65
	C281.5,312.9,291.2,322.6,304.9,329.8z"/>
<path fill-rule="evenodd" clip-rule="evenodd" d="M193,170.5c5.9-6.5,3.2-15.1,5.1-22.6c6-22.9,10.5-46.1,15.8-69.1
	c1.2-5.2-1.2-11.9,7.1-16.1c0,4.2,0.6,7.5-0.1,10.6c-6.8,29.4-13.8,58.6-20.5,88c-1.1,4.8-3.4,7.5-7.7,9.2L193,170.5z"/>
<path fill-rule="evenodd" clip-rule="evenodd" d="M192.8,170.4c1.2,4.3,2.3,8.5,3.5,12.8c-1,0.2-2,0.3-3,0.5c0-4.3,0-8.7-0.1-13.1
	C193,170.5,192.8,170.4,192.8,170.4z"/>
<path fill-rule="evenodd" clip-rule="evenodd" d="M222.9,138.5c0.5-2.1,0.9-4.2,1.4-6.3c0.5,0.4,1.4,0.8,1.4,1.2
	c-0.2,1.8-0.6,3.6-0.9,5.4C224.1,138.8,223.5,138.7,222.9,138.5z"/>
<path fill-rule="evenodd" clip-rule="evenodd" d="M644.6,201.6c6.2,1.5,6.8,6.4,6.9,10.3c0.3,28.9,8.5,56.2,15.3,83.9
	c0.1,0.5-0.7,1.2-1.3,2.3c-1.6-1.1-4.1-1.9-4.6-3.4c-8.6-25.1-13-51.2-17.5-77.2C642.5,212.3,640.9,206.6,644.6,201.6z"/>
<path fill-rule="evenodd" clip-rule="evenodd" d="M684,274.7c-2.3-1.2-5.8-1.8-6.9-3.8c-5.3-9.7-5.1-9.8-2.8-28.4
	c2.2,3.5,4.3,5.4,4.8,7.7c1.8,8.2,3.1,16.4,4.6,24.7L684,274.7z"/>
<path fill-rule="evenodd" clip-rule="evenodd" d="M683.7,274.9c0.8,4.9,1.6,9.7,2.5,14.6c-5.1-3.6-5.1-3.6-2.3-14.7
	C684,274.7,683.7,274.9,683.7,274.9z"/>
<path fill-rule="evenodd" clip-rule="evenodd" d="M58.1,336.7c-0.3,10.2-4.2,16.3-9.5,17.1c-6.4,1-12-4-14.4-12.7
	c-1.6-5.9-0.5-11.8,3.1-13.5c5.3-2.5,11.4-4.1,16.2-0.2C56.4,329.7,57.2,334.7,58.1,336.7z"/>
<path fill-rule="evenodd" clip-rule="evenodd" d="M138.2,409.5c-2.4,2.6-5,6-8.2,8.4c-3.7,2.8-7.9,2.5-11.5-1c-4-4-5.1-9.5-1.6-13.1
	c2.7-2.8,6.7-5.8,10.2-6C133.6,397.4,136.9,402.3,138.2,409.5z"/>
<path fill-rule="evenodd" clip-rule="evenodd" d="M102,354.2c8.3,5.4,12.9,10.3,10.5,18.7c-1.9,6.6-7.8,10.9-12.1,9.3
	c-5.7-2.2-8.9-10-6-15.8C96,362.6,98.7,359.3,102,354.2z"/>
<path fill-rule="evenodd" clip-rule="evenodd" d="M125.9,452.9c0.2,5.1-6.2,11.9-10.8,11.3c-4.7-0.6-10.1-6.8-10.5-12.2
	c-0.4-5,5.3-10.8,11.1-11.2C120.2,440.5,125.6,446.9,125.9,452.9z"/>
<path fill-rule="evenodd" clip-rule="evenodd" d="M95,331.8c-1,4.6-8.6,8.6-14.1,7.4c-5.8-1.3-10.2-8.1-7.5-13
	c1.5-2.7,5.8-6.1,8-5.6c4.6,1.1,8.6,4.4,12.7,7.2C94.9,328.4,94.7,330.4,95,331.8z"/>
<path fill-rule="evenodd" clip-rule="evenodd" d="M131.6,374.3c2.1-3.8,3.3-8.3,6.2-10.3c4.6-3.2,10.5-5.4,16-1.9
	c1.5,0.9,2.3,5.6,1.3,7.2C150,377.3,146.6,377.9,131.6,374.3z"/>
<path fill-rule="evenodd" clip-rule="evenodd" d="M120.5,317.3c14.3,12.3,14.3,12.7-0.7,22.8C113.4,332.8,111.7,325.7,120.5,317.3z"
	/>
<path fill-rule="evenodd" clip-rule="evenodd" d="M158.4,432.3c-0.6,6.8-0.4,11.8-1.8,16.2c-0.5,1.6-5,3.1-7.3,2.6
	c-2-0.4-4.6-3.5-4.8-5.6C143.4,437.7,147.4,433.4,158.4,432.3z"/>
<path fill-rule="evenodd" clip-rule="evenodd" d="M172.5,391c-0.9,6.5-4.8,10.7-11.1,11.5c-1.3,0.2-4-2-4.2-3.3
	c-0.9-6.5,4.8-12.2,11.5-11.7C170.2,387.7,171.5,390,172.5,391z"/>
<path fill-rule="evenodd" clip-rule="evenodd" d="M126,478.7c3.8-3.1,5.9-5.8,8.7-6.7c2.5-0.8,6.4,0.5,5.3,4.3
	c-0.9,3-3.5,5.8-6.1,7.7C133.2,484.4,129.9,481.3,126,478.7z"/>
<path fill-rule="evenodd" clip-rule="evenodd" d="M189.4,420.9c-3,2-5,4.4-7.1,4.4c-2.1,0-5.2-2.1-5.9-3.9c-1-2.9,3.5-6,7.4-5.2
	C185.5,416.5,186.7,418.5,189.4,420.9z"/>
<path fill-rule="evenodd" clip-rule="evenodd" d="M927.7,388.6c0-5-0.7-7.9,0.1-10.3c3.8-11.6,7.7-23.1,12.1-34.4
	c1.2-3.1,3.8-6.2,6.6-8.1c1.9-1.3,5.9-1.7,7.7-0.6c1.8,1.1,3.6,5.3,2.8,7.1c-5.6,13.1-11.4,26.2-18,38.8
	C937.5,384.2,932.7,385.5,927.7,388.6z"/>
<path fill-rule="evenodd" clip-rule="evenodd" d="M890.4,315.8c-1.8-13.4,1.2-20.7,8.2-24.4c3.4-1.8,9.8-0.2,11.4,3.1
	c2,4.1,2.6,9.4-0.9,12C904.1,310.2,897.9,312.2,890.4,315.8z"/>
<path fill-rule="evenodd" clip-rule="evenodd" d="M911.5,365.8c1.2,1.4,3.8,3.2,4.3,5.5c1.4,5.7-3.3,12.5-9.4,14.3
	c-1,0.3-3.1-0.4-3.6-1.3c-3.1-5.3,0-15.9,5.2-18.2C908.8,365.7,909.6,365.9,911.5,365.8z"/>
<path fill-rule="evenodd" clip-rule="evenodd" d="M928.3,311.6c-3.6-7.5-1.4-13.4,4.8-18.1c1.4-1,4.1-1.4,5.7-0.7
	c1.7,0.6,3.8,2.8,3.9,4.4C943.1,303.7,938,308.5,928.3,311.6z"/>
<path fill-rule="evenodd" clip-rule="evenodd" d="M894.1,339.7c-3.5,5-5.8,9.3-9.1,12.5c-1.4,1.4-6,1.6-7.4,0.4
	c-1.5-1.2-2.1-5.5-1.1-7.4C879.2,339.8,883.6,336.3,894.1,339.7z"/>
<path fill-rule="evenodd" clip-rule="evenodd" d="M960.4,314.5c-3.3-6.7-1-11.5,3.5-15.3c1.2-1.1,4.2-1.3,5.7-0.5
	c1.4,0.7,3,3.3,2.8,4.8C971.5,310.3,967.8,314.4,960.4,314.5z"/>
<path fill-rule="evenodd" clip-rule="evenodd" d="M917,350.4c-0.7-1.5-2.8-3.7-2.8-5.9c0.1-4.7,5.3-9.8,9.6-9.4
	c2.1,0.2,5.3,3.2,5.5,5.2C930,345.7,924,350.9,917,350.4z"/>
<path fill-rule="evenodd" clip-rule="evenodd" d="M870.5,380.8c-1.7,5.4-4.9,6.2-8.5,5.6c-3.3-0.6-4.4-3-3.5-6.1
	c1.1-3.7,3.5-6.3,7.5-4.5C868.1,376.7,869.3,379.3,870.5,380.8z"/>
<path fill-rule="evenodd" clip-rule="evenodd" d="M927.4,415.8c-0.1,5.7-3.3,8.9-6.5,7.5c-2-0.9-4.8-4.1-4.4-5.5
	c0.6-2,3.5-4.3,5.7-4.8C923.9,412.7,926.2,415.1,927.4,415.8z"/>
<path fill-rule="evenodd" clip-rule="evenodd" d="M897.1,407.6c1.2,2.4,2.9,4.4,2.5,5.6c-0.4,1.3-2.9,2.6-4.5,2.6
	c-0.9,0-2.7-2.8-2.5-3.9C893.1,410.5,895.1,409.5,897.1,407.6z"/>
<polygon fill-rule="evenodd" clip-rule="evenodd" points="852.6,406.6 851.9,408 851.4,406.5 "/>
</svg>
