<?xml version="1.0" encoding="utf-8"?>
<!DOCTYPE svg PUBLIC "-//W3C//DTD SVG 1.1//EN" "http://www.w3.org/Graphics/SVG/1.1/DTD/svg11.dtd">
<svg artist="zl2017" version="1.1" id="zlIcon-compass" xmlns="http://www.w3.org/2000/svg" xmlns:xlink="http://www.w3.org/1999/xlink" x="0px"
	 y="0px" width="1000px" height="968.7px" viewBox="0 15.6 1000 968.7" enable-background="new 0 15.6 1000 968.7"
	 xml:space="preserve">
<g>
	<path fill="#FFFFFF" d="M287.4,154.1c-179.4,101.1-334,269.1-183,469.9C256,826.3,464,779.3,656.2,656.1
		c134.6-86.9,253.4-316.1,139.6-463.5c-109-141-355.3-125.3-492-48.4c12.1,18.5,2.8-2.1,0,0"/>
	<path fill="#FFFFFF" d="M120.8,706.7c7.1,59.1,55.5,150.3,101.1,188.7C269.6,859,149.9,728.8,120.8,706.7
		C122.3,716,142.2,723.1,120.8,706.7z"/>
	<path fill="#FFFFFF" d="M960.2,558.6c-2.9-71.9-48.5-151-76.9-216.5C876.9,377,904,567.1,960.2,558.6
		C960.2,550.8,958.1,559.3,960.2,558.6z"/>
	<path fill="#FFFFFF" d="M550.8,903.9c-27.1-49.8-39.2-99.7-89-111.8C463.2,822.1,508.9,937.4,550.8,903.9
		C532.4,869,531.7,919.6,550.8,903.9z"/>
	<path fill="#FFFFFF" d="M841.4,510.9c-47.8,20,20,134.6,47,143.2C917.5,629.8,852.8,535.8,841.4,510.9
		C821.4,519.5,857.7,546.5,841.4,510.9z"/>
	<path fill="#FFFFFF" d="M308.8,904.6c-34.2-37.8-37.1-97.5-87.6-121.8C206.3,819.2,263.9,921.7,308.8,904.6
		C273.9,866.9,287.4,912.5,308.8,904.6z"/>
	<path fill="#FFFFFF" d="M464.7,921c6.4-0.7,13.5-2.1,20-2.9c-11.4-46.3-32.1-106.1-81.1-111.8C408.5,853.4,444.8,881.1,464.7,921
		C471.8,920.3,459.7,912.5,464.7,921z"/>
	<path fill="#FFFFFF" d="M859.8,448.3c-29.9,24.2,43.5,155.2,73.3,161.6C938.9,565.7,882.6,483.8,859.8,448.3
		C842.8,461.7,866.9,458.9,859.8,448.3z"/>
	<path fill="#FFFFFF" d="M577.9,896.1c23.5-27.8-33.5-138.9-55.5-124.6C501,786.4,565.8,879.7,577.9,896.1
		C597.1,873.3,572.9,889,577.9,896.1z"/>
	<path fill="#FFFFFF" d="M847.8,696.7c31.4-37.1-17.8-116.1-56.2-131.8C790.8,617,827.1,653.2,847.8,696.7
		C870.5,669.6,827.1,653.2,847.8,696.7z"/>
	<path fill="#FFFFFF" d="M711.1,647.6c17.8,40.6,36.3,85.4,69.7,115.4C787.2,736.6,734.6,609.9,711.1,647.6
		C715.3,657.5,712.5,645.5,711.1,647.6z"/>
	<path fill="#FFFFFF" d="M278.8,817.1c37.8,22.1,30.6,78.3,78.3,95.4C384.2,875.4,321.6,800,278.8,817.1
		C282.4,819.2,282.4,815.6,278.8,817.1z"/>
	<path fill="#FFFFFF" d="M735.3,795.7c31.4-20-27.1-126.8-67.6-113.2C690.4,720.2,713.2,757.9,735.3,795.7
		C746.7,788.6,711.8,756.5,735.3,795.7z"/>
	<path fill="#FFFFFF" d="M763,597c-12.8,22.1,34.9,138.9,56.2,133.2C824.3,693.2,782.2,630.5,763,597
		C754.4,612.7,767.3,604.2,763,597z"/>
	<path fill="#FFFFFF" d="M659,854.1c27.8-22.8-29.2-97.5-45.6-128.2C583.6,739.5,647.7,833.5,659,854.1
		C665.4,848.4,635.6,812.8,659,854.1z"/>
	<path fill="#FFFFFF" d="M644.2,703.1c-13.5,30.7,39.2,97.5,54.1,124.6C734.6,801.4,661.2,718.1,644.2,703.1
		C642,707.4,649.9,708.1,644.2,703.1z"/>
	<path fill="#FFFFFF" d="M567.9,748.7c-7.1,37.1,32.8,86.9,49.9,119.6C643.5,846.3,581.5,745.2,567.9,748.7
		C567.2,754.3,570,748,567.9,748.7z"/>
	<path fill="#FFFFFF" d="M425.6,914.6c-17.1-31.4-31.4-76.2-59.1-99.7C377.1,824.2,372.8,911.8,425.6,914.6
		C421.3,906.1,406.3,913.9,425.6,914.6z"/>
	<path fill="#010101" d="M696.8,45.9C445.5-44.5,216.9,78,52.4,270.9c-85.4,100.4-47,230.7-15,345.4c20,71.9,61.2,143.9,96.1,209.3
		c42.1,79,51.9,107.5,137.5,136c247.1,83.3,439.3-76.9,606.6-235.7c33.5-32.1,114.6-94.7,121.1-144.6c7.1-53.4-34.9-131-52.6-180.8
		C894.7,260.9,832.8,118.6,696.8,45.9C668.3,36,714.6,55.2,696.8,45.9z M303.8,144.3c136.7-76.2,383-92.6,492,48.4
		c113.9,147.4-5,376.6-139.6,463.5c-191.5,123.2-399.4,170.1-551.9-32.1c-151-200.8,3.6-368.8,183-469.9
		c5,51.9-27.1,279.1,45.6,258.4c16.4-5,100.4-49.9,105.4-17.1c11.4,69.7,15.7,141,21.4,211.5c-54.1-61.9-95.4-135.3-162.3-185.1
		c-0.7,37.8,62.6,94.7,83.3,128.9c30.6,50.5,69,93.3,113.2,131c30.7-70.5-24.2-206.5-29.2-285.5
		C459.7,311.5,351.4,214.7,303.8,144.3C306.6,142.1,315.9,162.7,303.8,144.3z M120.8,706.7c29.2,22.1,148.9,151.6,101.1,188.7
		C177,856.9,128,765.8,120.8,706.7C142.2,723.1,122.3,716,120.8,706.7z M960.2,558.6c-56.2,8.6-83.3-181.5-76.9-216.5
		C912.6,407.7,957.4,487.4,960.2,558.6C958.1,559.3,960.2,550.8,960.2,558.6z M550.8,903.9c-42.1,33.5-74-67.6-88.3-94
		c-10-19.2,7.8-23.5,21.4-20C506,794.3,540.2,884.7,550.8,903.9C531.7,919.6,532.4,869,550.8,903.9z M841.4,510.9
		c11.4,24.9,76.2,118.9,47,143.2C861.2,646.2,793.6,530.9,841.4,510.9C857.7,546.5,821.4,519.5,841.4,510.9z M308.8,904.6
		c-44.9,17.1-101.8-85.4-87.6-121.8C271,807.1,273.9,866.9,308.8,904.6C287.4,912.5,273.9,866.9,308.8,904.6z M464.7,921
		c-20-39.9-55.5-67.6-60.5-114.7c48.5,5.7,69.7,65.5,81.2,111.8C477.5,919.6,471.1,920.3,464.7,921
		C459.7,912.5,471.8,920.3,464.7,921z M859.8,448.3c23.5,35.6,79,117.5,73.3,161.6C903.3,603.5,829.3,472.4,859.8,448.3
		C866.9,458.9,842.8,461.7,859.8,448.3z M577.9,896.1c-12.1-16.4-76.9-110.4-55.5-124.6C544.5,757.2,601.4,868.3,577.9,896.1
		C572.9,889,597.1,873.3,577.9,896.1z M847.8,696.7c-20-44.2-56.9-79.7-56.2-131.8C829.3,580.7,879.1,659.7,847.8,696.7
		C827.1,653.2,870.5,669.6,847.8,696.7z M711.1,647.6c24.2-37.8,76.2,89,69.7,115.4C747.4,733.1,728.9,688.2,711.1,647.6
		C712.5,645.5,715.3,657.5,711.1,647.6z M278.8,817.1c42.8-17.1,105.4,57.6,78.3,95.4C309.5,895.4,316.6,839.2,278.8,817.1
		C282.4,815.6,282.4,819.2,278.8,817.1z M735.3,795.7c-22.8-37.8-44.9-75.4-67.6-113.2C708.2,668.9,766.6,775.7,735.3,795.7
		C711.8,756.5,746.7,788.6,735.3,795.7z M763,597c19.2,33.5,60.5,96.1,56.2,133.2C797.9,736.6,750.3,619.1,763,597
		C767.3,604.2,754.4,612.7,763,597z M659,854.1c-11.4-20-75.4-113.9-45.6-128.2C629.9,755.8,686.8,830.6,659,854.1
		C635.6,812.8,665.4,848.4,659,854.1z M644.2,703.1c17.1,15.7,91.1,99,54.1,124.6C682.6,800,630.6,733.8,644.2,703.1
		C649.9,708.1,642,707.4,644.2,703.1z M567.9,748.7c13.5-3.6,75.5,97.5,49.9,119.6C600.7,835.6,560.8,785.7,567.9,748.7
		C570,748,567.2,754.3,567.9,748.7z M425.6,914.6c-52.6-2.8-48.5-90.4-59.1-99.7C394.2,838.4,409.2,883.3,425.6,914.6
		C406.3,913.9,421.3,906.1,425.6,914.6z"/>
</g>
</svg>
