<?xml version="1.0" encoding="utf-8"?>
<!DOCTYPE svg PUBLIC "-//W3C//DTD SVG 1.1//EN" "http://www.w3.org/Graphics/SVG/1.1/DTD/svg11.dtd">
<svg artist="zl2017" version="1.1" id="zlIcon-cooperation-water-worms" xmlns="http://www.w3.org/2000/svg" xmlns:xlink="http://www.w3.org/1999/xlink" x="0px" y="0px"
	 width="1000px" height="1442.8px" viewBox="0 0 1000 1442.8" enable-background="new 0 0 1000 1442.8" xml:space="preserve">
<path fill-rule="evenodd" clip-rule="evenodd" d="M681.5,1151.9c2.4-0.6,3.8-0.6,4.7-1.3c5.9-4.6,13.5-4.7,19.8-8.3
	c3.2-1.8,7.2-1.9,10.8-2.9c4-1.1,7.9-2.3,11.8-3.7c10.5-3.7,21.4-6.7,31.4-11.5c7.3-3.5,15.3-3.5,22.4-7.1c4.5-2.3,9.6-3,13.9-6.1
	c1.9-1.4,4.5-2,6.9-2.7c4-1.2,8-2.5,12.1-3.3c7.7-1.5,14.6-5.1,21.8-8.2c2.7-1.2,3.7-2.8,2.9-5.4c-2.5-7.7,0.7-14.8,2.2-22
	c1.3-6.4,4.9-11.8,8.5-17.1c1.5-2.2,3.8-3.7,5.6-5.5c4.3-4.2,9.8-6.7,13.9-10.7c1.5-1.5,2.6-0.6,3.7-1.1c4-1.8,8.1-3.5,12.2-5.1
	c8.1-3.2,16.3-6.2,24.4-9.4c1.6-0.6,3-1.5,3.9-1.9c-1.1-2.6-3-5-2.8-7.2c0.2-2.3,2.9-3.9,5-5.5c4-3,7.7-2.9,12.3-1.9
	c4.4,1,9.1,0.5,13.7,0.9c2.1,0.2,4.2,0.7,7.2,1.2c-1.2,2-1.9,3-2.7,4.4c0.5,1,1.2,2.3,1.9,3.9c-1,1.2-1.8,2.5-3,3.4
	c-5.4,4-10.9,7.8-16.2,11.8c-3.2,2.4-6.2,5.1-9,7.9c-2,2-5.7,4.2-7,3.3c-2.3-1.6-3.8-3.7-3.5-6.7c0-0.5,0-1,0-1.8
	c-6.8,2.4-13.4,4.4-19.8,7.1c-4.8,2.1-9.3,5.1-13.9,7.7c-1,0.6-2.1,1-3.2,1.4c-5.5,2-9.1,6-13.2,10.1c-5.8,5.9-6.4,13.4-9.2,20.2
	c-1.4,3.4-0.8,7.1,1.1,10.2c5-0.9,9.7-1.6,14.3-2.5c1.1-0.2,2-1.1,3-1.7c4-2.3,7.8-4.9,12.1-6.6c1.7-0.7,4.2,0.5,6.4,0.8
	c10.2-4.1,20.7-8.2,30.7-12.2c-1.7-3-3.4-5.6-4.6-8.5c-0.8-2.1,0.4-4,2.5-4.5c2.9-0.6,6-0.8,9-1c3.8-0.2,7.6-0.1,11.3-0.3
	c3.6-0.1,7.3-0.8,10.9-0.5c2.6,0.2,4.9,1.3,5.5,4.8c1.1,6.2,0.6,8.2-4.5,11.6c-1.1,0.8-2.2,1.5-3.3,2.4
	c-7.4,6.2-14.9,12.1-23.2,17.1c-0.9,0.6-1.5,1.7-2.4,2.4c-0.9,0.7-2.4,1.8-2.9,1.5c-2.6-1.6-4.8-0.3-7.7,1.2c0-3.5,0-6.3,0-9.9
	c-2.9,0.7-6,1.2-8.8,2.3c-3.2,1.2-6.2,3-9.4,4.3c-1.7,0.8-3.7,0.9-5.3,1.9c-1.5,0.9-2.3,2.7-3.8,3.7c-1,0.7-2.5,0.7-3.8,1.1
	c-6.8,2.4-13.8,4.6-20.4,7.5c-5.3,2.3-5.8,6.2-2.1,11c2.9,3.7,5.9,7.5,9.1,10.9c2.2,2.4,5.1,4,8.5,4.3c8.1,0.6,16,1.1,23.8-2.6
	c4.4-2.1,9.5-2.8,14.2-4.2c8.3-2.5,16.4-5.6,24.8-10.1c-2-1.2-3.5-2.1-5.3-3.2c0-2.4,0-5.1,0-8c7.6-3,15.5-2.5,23.3-2.7
	c5.3-0.2,10.6-0.3,15.8-0.7c3.4-0.3,5.2,0.6,6.7,4c1.5,3.3,1.4,5-1.5,7c-4.3,2.9-9,5.5-13.5,8.1c-1,0.6-2.3,0.9-3.2,1.7
	c-4.7,3.5-9.4,6.9-13.8,10.7c-1.9,1.6-3.2,3.9-5.1,6.2c-2-0.3-4.9-0.8-8.4-1.4c-2.4-2.2-0.7-5.5-0.3-9.5c-5.1,2.1-9.3,4.4-13.8,5.7
	c-11.6,3.5-22.5,9.4-34.8,9.8c-6.4,0.2-13-1.3-19.4-2.2c-1.2-0.2-2.6-1-3.4-2c-3.7-4.1-8-7.7-9.9-13.1c-0.1-0.4-0.2-1-0.4-1
	c-5.9-2.1-4.3-8-6-12.2c-6.5-0.3-11.9,3.3-17.7,5.3c-8.3,2.9-16.6,6-24.8,9.2c-2.4,0.9-4.8,2.2-7,3.5c-3.4,2-6.4,4.3-10.6,4.6
	c-2,0.1-3.9,1.6-5.8,2.3c-7.9,3-15.8,5.9-23.6,9c-8.3,3.3-16.5,7-24.9,10.1c-9.5,3.5-19.2,6.6-28.7,10c-6.3,2.2-12.4,4.8-18.7,7.1
	c-5.4,1.9-10.9,3.6-16.3,5.4c-8.9,3.1-17.9,5.7-26.5,9.4c-12.7,5.4-25.1,11.4-37.4,17.6c-5.7,2.9-11.6,5.9-16.4,10.3
	c-0.7,0.6-1.7,0.9-2.5,1.3c-7,3.3-14.1,6.6-21.1,9.9c-8.4,3.9-14.4,10.8-20.7,17.2c-3.6,3.7-7.5,7.2-10.9,11.1
	c-2.8,3.2-5,6.8-7.5,10.2c-4.3,5.7-9.1,11-12.9,17c-6.6,10.6-12.1,21.7-14.2,34.3c-0.3,1.5-1,2.9-1.5,4.3
	c-2.6,6.4-5.9,12.6-7.7,19.3c-1.4,5.5-2.2,11.7-1,17.1c1.3,5.7-1,10.5-0.5,14.6c-2.9,1.3-4.9,2.2-6.9,3.2c-1,0.5-1.9,1.7-2.8,1.6
	c-2.1-0.1-4.3-0.5-6-1.4c-2.3-1.3-2.8-5.6-1-8.3c2-3.1,3.1-6.4,3.7-10.1c1.5-10,3-20,3.1-30.3c0.1-10.7,2.5-21.3,3.8-32
	c4.4-6,3.6-13.6,6-20.2c5.5-15.1,10.7-30.4,18.5-44.5c4.8-8.7,9.9-17.2,15.4-25.5c3.9-5.9,8.1-11.8,13.2-16.7
	c4.6-4.5,9.9-8.3,16.4-10.2c4.6-1.4,8.9-3.9,13.3-6.2c4.5-2.3,8.8-5.2,13.4-7.4c3.5-1.6,7.4-2.7,11.2-3.6c8.2-1.9,16-4.6,23.2-9.3
	c2.3-1.5,5.6-1.3,8.2-3.1c3.9-2.8,8.8-4.4,12.1-7.7c2.9-3,6.9-3.9,9.7-7c2.7-2.9,5.9-5.3,9.1-7.7c5-3.7,9.6-7.7,13.8-12.3
	c2.2-2.3,5.6-3.7,7.4-6.8c3.6-6.3,7.3-12.5,10.8-18.8c3-5.3,5.7-10.8,8.7-16.1c1.3-2.3,3.2-4.2,4.5-6.5c4.4-7.9,5.5-17,8.8-25.3
	c2.1-5.2,3.2-10.9,6.8-15.6c3.1-4,4.2-9,4.3-14.1c0-2.9,0.1-5.8,0.2-8.6c0.1-2.6,0.4-5.3,0.2-7.9c-0.9-15.6-1.3-31.3-0.7-46.9
	c0.3-6.7,0-13.4,3.6-19.4c0-9.2,4.9-16.9,7.9-25.1c1.6-4.5,5.4-8.3,8.1-12.5c0.8-1.2,1.2-2.6,1.7-3.9c0.7-2.1,1.1-4.5,2.1-6.5
	c1.4-2.7,3.2-5.2,4.9-7.7c2.1-2.9,5.1-4.2,8.5-3.9c4.7,0.4,7.1-2.8,9.9-5.6c1.2-1.2,2.4-2.5,3.5-3.8c1.6-2,3.6-2.9,6.1-3.6
	c8.8-2.6,17.3-6.3,26.2-8.5c9-2.2,18.2-4.1,27.6-1c1.7,0.6,3.8,0.3,5.7,0.5c2.7,0.2,4.3-0.8,6-3.2c5.2-7.4,9.8-15,13.5-23.3
	c1.4-3.3,3.9-6.1,5.7-9.2c2.4-4.1,4.6-8.3,6.7-12.6c2.5-5.3,5-6.4,10.9-4.8c2.1,0.6,4.4,0.4,6.6,0.1c6.4-0.7,8.9,0.5,11.9,6.4
	c1.1,2.2,1.6,4.9,3.1,6.7c3.7,4.3,1.5,8.3,0.1,12.5c-0.2,0.5-0.4,1.3-0.8,1.5c-6,3-6.3,9.8-9.9,14.4c-2.9,3.8-5.5,7.8-8,11.9
	c-2.3,3.9-4.3,8-6.4,12c-0.3,0.6-0.5,1.5-0.9,1.6c-3.9,0.6-2.7,3.6-1.9,5.3c1.9,4,4.4,7.6,6.7,11.4c1.3,2.1,3,4.2,3.6,6.5
	c2,7.6,4.2,15.2,5.1,23c0.7,6.2,3,11.2,6.5,15.9c0.5,0.7,1,1.8,0.9,2.7c-0.6,9.9-1.3,19.8-2,29.7c-0.1,1.1-0.2,2.3-0.6,3.4
	c-3.6,10.8-8.4,21-15.8,29.7c-4.2,5-10.5,7-16.7,8.4c-2.4,0.5-3.5,1.7-5,3.3c-5.2,5.5-8.7,12.6-15.6,16.5c-0.9,0.5-1.7,1.5-2.4,2.3
	c-6.7,7.8-13.5,15.7-20.2,23.5c-5.4,6.3-12,11.3-18.4,16.5c-7.4,6.1-15.4,11.3-23,17.1c-3.9,3-8.3,5.9-11.1,9.9
	c-3.8,5.3-8.7,9.2-13.1,13.8c-5,5.1-10,10.3-15.3,15.2c-7.9,7.1-16.8,12.9-25.4,19.2C695.2,1136.9,688.8,1144,681.5,1151.9z
	 M860.3,906.3c-1.1,0.4-2.7,1-4.4,1.5c-1.2,0.3-2.6,0.6-3.9,0.5c-3.6-0.3-6.5-3.5-10.4-2.1c-2.6-2.5-5.8-1.5-8.8-1.4
	c-3.2,0.1-6.4,0.7-9.5,1.3c-2.2,0.4-4.5,1.1-6.6,2c-2.8,1.1-5.4,2.6-8.3,3.5c-8,2.5-15.4,6.1-21.3,12.2c-4.2,4.4-8.4,9-9.7,15.4
	c-0.6,3-1.1,6-1.8,9.6c2.5,5.7,8.2,9.9,12.7,14.9c4.3,4.9,9.9,9.4,17.1,10.6c2.8,0.5,5.7,1.4,8.1,2.8c7.7,4.1,16.1,5.7,24.5,6.5
	c7.7,0.7,15.7,2.5,22.7-3.7c4.6-4.1,8.9-8.1,11.1-14.1c2.2-5.9,4.1-11.8,5.1-18.1c0.9-6.1,2-12.2,1.3-18.3c-0.8-6.6-2.8-12.6-9.6-16
	C865.8,911.7,863.5,908.9,860.3,906.3z M871.8,799.4c-2.7,4.7-5.1,8.8-7.5,12.9c-1.9,3.3-3.9,6.5-5.9,9.7c-2.2,3.6-4.9,6.9-6.6,10.7
	c-2.1,4.7-3.7,9.6-7,13.8c-2.5,3.1-1.3,5.5,2.6,6.6c1.3,0.3,2.5,0.9,3.7,1.4c4,1.5,6.5,0.3,7.9-3.8c0.5-1.6,0.8-3.6,1.9-4.7
	c5.3-4.9,7.3-11.9,11.4-17.6c3.9-5.4,6-12,11.7-16.1c0.7-0.5,0.9-1.7,1.3-2.7c-0.7-0.8-1.4-1.4-1.9-2.2c-0.5-0.8-0.9-1.7-1.2-2.6
	c-1.4-5.8-1.4-5.8-7.1-5.5C874.1,799.5,873,799.4,871.8,799.4z M769.5,890.6c-6.9-4.9-13.1-9.4-19.2-13.8c-3,1.6-5.7,2.8-6.2,6
	c4.5,6.9,12.9,8.2,18.2,14C764.6,894.8,766.7,893,769.5,890.6z M816.4,896.6c-1.5-4.5-2.7-8-4-11.6c-6.1,1.8-11.5,3.4-16.9,5
	c0.1,6.1,5.8,7.2,7.9,11.2C807.9,899.7,811.9,898.3,816.4,896.6z M785.6,892.9c-3.2,2.1-6.7,4.6-10.8,7.3c3.1,4.4,6,8.6,8.9,12.8
	c3.3-2.8,6.2-5.4,8.8-7.7C790.4,901.2,788.2,897.3,785.6,892.9z M761.1,919.9c3.7,1.8,7.2,3.5,10.9,5.3c2-3.4,3.6-6.3,5.4-9.4
	c-5.4-1-6.6-5.8-8.9-9.6C764.3,910,761.4,913.9,761.1,919.9z M759.6,929c-0.5,1.6-1.2,3.1-1.2,4.5c0,3.7-1.2,7.7,1.9,10.9
	c2.7,2.7,5.2,5.5,8.2,8.6c-0.9-3.2-1.5-6.2-2.6-8.9c-1.6-4.2-1.7-8.1,2.4-11.6C765.1,931.2,762.4,930.1,759.6,929z M843.7,893.2
	c0.5-7.7-1.9-9.5-8.3-6.8c-0.1,2-0.2,4-0.3,6.3C838,892.6,840.3,895.8,843.7,893.2z M826.3,891.3c-2.1-1.8,0.1-4.7-3.1-6.9
	c0.5,3.9,0.9,6.9,1.4,10.3c1.7-0.4,3.1-0.7,4.5-1c0.1-0.3,0.1-0.7,0.2-1C828.1,892.2,827.1,891.7,826.3,891.3z M854.9,892.9
	c-0.2,0.5-0.4,1-0.6,1.5c1,0.3,2,0.6,3,0.9c0.1-0.4,0.2-0.8,0.4-1.2C856.8,893.7,855.9,893.3,854.9,892.9z"/>
<path fill-rule="evenodd" clip-rule="evenodd" d="M9.5,1142.7c-2.4-1.9-4.3-3.8-6.5-5.2c-2.4-1.6-3.3-3.2-1.5-5.7
	c0.6-0.9,1-2.1,1.6-3.1c4.8-6.7,9.5-13.4,14.5-19.9c3.7-4.8,5.9-10.4,8.9-15.6c4.6-8.2,5.7-17.3,7.9-26c1.4-5.6,2.1-11.8,0.3-18
	c-1.4-4.9-0.9-10,1.1-15.2c2-5.1,2-10.7,0.4-16.2c-0.7-2.5-0.6-5.2-0.7-7.8c-0.2-9.8-1.1-19.6,0.8-29.3c0.6-3,1.8-5.9,2.7-8.8
	c3.8-11.6,7.6-23.3,14.4-33.5c5-7.4,11.3-13.9,17.1-20.6c3.1-3.6,6.3-7.3,10-10.2c5.4-4.2,11.2-8,17-11.7c3.5-2.3,7.2-4.4,11.1-6.1
	c7.5-3.2,15.2-6,22.8-8.9c8.1-3,15.7-6.7,22.7-11.9c3.3-2.5,7.2-4.3,11.1-5.9c4.6-1.9,7.4-5.8,11.2-8.6c6.1-4.5,12.1-9.2,17.6-14.3
	c7.9-7.2,13-16.5,16.5-26.5c1.1-3.1,2.4-6.1,3.2-9.3c2.9-11.6,2.5-23.3-1.7-34.4c-2.1-5.6-5.6-10.7-8.3-16.1
	c-2.4-4.7-7.8-7.5-8.6-13.3c0-0.2-0.1-0.4-0.2-0.5c-6.4-3.5-7.7-11.3-12.9-15.9c-1.9-1.7-3.4-4.1-4.6-6.4
	c-3.7-6.7-7.1-13.4-11.8-19.5c-1.7-2.2-4.9-4.6-4.1-8.4c0.2-0.8-0.5-1.8-1-2.7c-4-6.7-4.9-14.5-6.3-21.9c-1.7-8.5-1.5-17.3-0.7-26.2
	c0.5-6,3.6-11.5,2.7-17.7c-0.3-1.8,1.3-3.8,2.1-5.8c1.5-3.9,2.9-7.9,4.7-11.7c1.4-2.8,3.3-5.4,5.1-8.2c-1.8-1.8-4-4-6.6-6.5
	c1.9-3.3,3.2-6.5,5.3-9.2c1.3-1.7,3.7-3.6,5.6-3.6c3.6,0,6-1.8,8.6-3.7c4.2-3,7.9-6.3,11.1-10.6c2.3-3.1,5.8-5.6,9.1-7.8
	c5.8-3.8,11.8-7.2,17.9-10.5c6.6-3.6,14-4,21.2-4.5c7.7-0.5,15.5-1.1,23.3,0.1c4.8,0.7,9.2,1.7,13.5,3.8c3.4,1.6,6.8,2.7,11,0.2
	c-0.1-1.6-0.4-3.4-0.5-5.3c-0.2-3.8-1.2-7.6,0.5-11.4c0.6-1.3,0.4-3,0.3-4.6c-0.7-9.7-1.5-19.3-2.4-29c-0.1-1.4-1.1-2.8-1.6-4.2
	c-2-5-0.4-8.3,4.9-9.3c3.4-0.6,6.9-0.6,10.4-0.9c2.2-0.2,4.6-1,6.7-0.6c2.9,0.5,5.8,1.7,8.3,3.2c2.3,1.3,4.1,3.4,6.1,5.3
	c0.6,0.6,1.3,1.5,1.4,2.4c0.3,4.2,0.3,8.4,0.4,12.6c0.1,2.5,0.4,5,0.4,7.4c0,2.9-0.5,5.8-0.5,8.6c0,2.5,0.2,5,0.4,7.4
	c0.3,4.7,0.6,9.4,1.2,14.1c0.9,7,1.3,14.2,3.6,20.8c1.3,3.7,1.6,6.8,1.2,10.3c-0.6,5.4,3.2,9,5.8,12.8c3.1,4.6,7.2,8.4,10.7,12.7
	c5.4,6.7,11.2,13.1,15.7,20.3c4.4,7,6.9,15,5.5,23.6c-0.1,0.4-0.1,0.8-0.1,1.2c0.6,12.7-4.6,23.4-12,32.9
	c-5.4,6.9-11.1,13.8-19.1,18.1c-5.7,3.1-11.4,6.2-17.2,9.2c-1,0.5-2.3,0.8-3.3,0.5c-5.9-1.3-12.2-0.6-17.9-3.4
	c-0.5-0.2-1.1-0.3-2.1-0.5c-0.1,1.2-0.1,2.3-0.1,2.8c-5.6,4.2-11,8.2-16.3,12.3c-1.4,1.1-2.5,2.5-4,3.3c-6.6,3.4-9.8,9.3-12.7,15.6
	c-0.4,0.9-0.8,1.8-0.9,2.7c-0.3,11.1-0.3,22.1,2.8,33c2.3,8,2.3,16.4,1.6,24.7c-0.5,5.7-1.5,11.4-2.3,17.1c-0.3,2.3-1,4.1-2.4,6.2
	c-1.6,2.3-1.7,5.7-2.4,8.7c-1,3.9-1.9,7.8-5.5,10.5c-0.9,0.6-1.2,2-1.8,2.9c-4.6,6.9-8.7,14.2-15.8,19.1c-0.4,0.3-1,0.8-1,1.3
	c-0.8,4.8-5.1,7.3-7.6,10.9c-1.8,2.6-3.7,5.9-7.6,6.4c-0.3,0-0.6,0.5-0.7,0.8c-0.8,4.3-4.4,5.2-7.7,7c-4.3,2.3-8,6.1-12.4,8
	c-7.4,3.2-13.1,9.1-20.8,11.7c-4.1,1.4-7.6,4.7-11.4,7.2c-1.3,0.8-2.4,2.1-3.8,2.5c-6.6,1.8-12.3,5.3-18.4,8.2
	c-3.2,1.6-7.1,2-10.3,4c-4.5,2.8-9.1,5.4-13.6,8.1c-3,1.9-6.2,3.6-8.9,5.9c-3.3,2.8-6,6.2-9,9.4c-1.8,1.9-3.3,4.2-5.3,5.8
	c-3,2.4-4.8,5.5-7,8.6c-2.9,4-4.6,8.6-7.5,12.6c-2.2,2.9-3.7,6.7-4.6,10.3c-1.8,7-3.1,14.2-4.6,21.3c-1.2,5.6-2.6,11.2-3.8,16.8
	c-0.8,3.7-1.2,7.5-2.4,11c-2.7,8.4-5.7,16.7-8.7,25c-1.6,4.3-3.4,8.4-5.2,12.7c-1,2.5-2,5-3.1,7.5c-2.2,5.2-5.5,9.9-6.3,15.9
	c-1,8-6.6,14.2-10,21.3c-4.1,8.6-10.9,15.2-16.6,22.6C14.4,1141.5,12.1,1142.6,9.5,1142.7z M268.2,670.1c1.2,0.4,3.3,0.9,5,2
	c3.2,2,6.4,3.7,10.3,4.3c2.5,0.4,4.8,2.1,7.2,3.1c3,1.2,5.9,2.9,8.9,3.5c5.5,1.1,11.2,1.7,16.8,2.1c2.8,0.2,5.9,0.2,8.4-0.9
	c2.7-1.1,5.2-3.3,7.1-5.6c4.1-4.9,8.3-10,11.6-15.4c5.1-8.6,9.3-17.6,6.3-28.1c-0.7-2.4-1.3-4.8-2.4-7c-1.2-2.3-2.4-5.1-4.4-6.4
	c-5.1-3.4-9.2-7.8-13.8-11.7c-1.6-1.3-3.3-2.5-5.1-3.6c-4.5-2.8-9.8-4.6-12.7-9.8c-0.9,0-1.9-0.2-2.7,0c-8.2,2.2-16.5,4.2-24.7,6.8
	c-11.9,3.7-22.8,8.9-30,19.9c-2.7,4.1-4.4,8.3-4.6,13.2c-0.2,4.9-0.8,9.8,2.7,13.9c0.6,0.7,0.9,1.7,1.2,2.6c1.3,4.3,4.1,7.3,7.5,10
	C263.1,665,265.2,667.2,268.2,670.1z M315.1,559.8c0.4-0.2,0.8-0.4,1.1-0.6c-0.1-1.1-0.1-2.2-0.2-3.3c-1.2-9.7-2.9-19.3-3.6-29
	c-0.6-9.2-0.2-18.5-0.1-27.7c0.1-7.7-2.6-10.6-10.4-10.9c-1.3-0.1-2.7,0.1-4.4,0.2c-0.2,1.5-1.2,3.4-0.6,4.3
	c2.6,4.4,1.9,9.2,2.3,13.9c0.2,3,0.1,6,0.2,9.1c0.4,8.4,1.2,16.8,1.1,25.1c0,5.3,2.2,8.6,6.3,11.4
	C309.8,554.4,314.4,554.8,315.1,559.8z M175.3,586.6c5.3,3.1,11.2,5.3,16.5,8.3c6.6,3.8,14.2,5.6,20.2,10.7c0.4,0.3,1,0.3,1.9,0.5
	c0.5-1.5,0.9-3,1.6-4.3c3.8-7.7,3.9-8-4.1-9.9c-8.5-2-16.3-6.4-25-7.3c-0.7-0.1-1.5-0.4-2.1-0.7C179.5,581.6,179,581.7,175.3,586.6z
	 M240.9,618.6c1.3-3.2,2.8-6.2,3.6-9.3c0.3-1.3-0.5-3.9-1.4-4.3c-5.4-2.2-9.9-5.6-14-10.3c-2.8,8-7.6,14.6-8,22.9
	C228.1,618,234.4,618.3,240.9,618.6z M249.1,601.4c5-1.9,9.1-4,11.3-8.8c-3.9-4.4-9.4-7.2-10.1-13.6c-5.7,2.5-12.3,3.6-15.1,10.5
	c1.3,1.5,2.4,3.2,4,4.3c1.5,1.1,3.5,1.5,5.3,2.1c1.6,0.5,3.2,0.9,5,1.5C249.4,598.4,249.3,599.5,249.1,601.4z M237.7,650
	c0.9-4.1,0.5-8-3-8.9c-4.3-1-9-0.2-13.6-0.2c0.4,3.1,0.7,5.8,1.2,8.4c0.8,4.1,3.1,5.5,7.1,4.1C232.3,652.3,235.1,651,237.7,650z
	 M219.7,633.6c5.8,0,11.1,0,16.7,0c0.6-2.7,1.2-5.5,2-9.1c-2.3-0.2-4.3-0.9-6.2-0.4c-2.9,0.7-5.5,1.2-8.4-0.1
	c-1.1-0.5-2.5-0.3-4.1-0.4C219.7,627.1,219.7,630.3,219.7,633.6z M270.8,576.5c-3,0.9-5.2,1.9-7.6,2.2c-2.4,0.3-5,0.1-8.6,0.1
	c2.3,2,3.6,3.4,5.1,4.5c2.2,1.5,5,1.9,6.4,4.9c0.9,1.9,3.3,1.2,4.6,0c0-2.1,0-3.8,0-5.5C270.8,580.7,270.8,578.8,270.8,576.5z
	 M295.3,582.8c-6.7-5.1-16.4-7.6-20.3-5.7c2.1,2.4,4.2,4.9,6.4,7.4C285.7,584,289.9,583.5,295.3,582.8z M242.9,666.9
	c0.3-0.3,0.6-0.6,0.9-0.9c-1.4-2.7-2.7-5.3-4.4-8.5c-2.8,0.7-5.8,1.5-8.8,2.2c0,0.5-0.1,1-0.1,1.5
	C234.4,663.7,238.8,664.9,242.9,666.9z"/>
<path fill-rule="evenodd" clip-rule="evenodd" d="M129.1,1442.7c-2,0-3.6-0.1-5.3,0c-4.1,0.3-6.8-2.2-5.9-6.1c0.9-3.7,2-7.2,5.4-9.9
	c2.4-1.8,3.7-5,5.7-7.3c2.3-2.6,5-4.7,7.2-7.3c3.1-3.7,8.4-5.3,10-10.5c0.1-0.4,0.3-0.8,0.6-1c3.6-2.5,6.1-6.3,9.3-8.9
	c5.2-4.3,9.7-9.2,14.5-13.8c2.6-2.5,5.8-4.5,9-6.3c3.6-2.1,7.6-3.6,11.3-5.5c1.5-0.7,2.8-1.8,4.2-2.7c1.1-0.7,2.2-1.5,3.4-2
	c9.3-3.5,19.1-5.3,28.8-7.1c11.1-2,22.4-2.8,33.1-6.7c5.7-2.1,11.9-4.4,17.8-4.1c5.7,0.2,10.5-2.9,16.2-2.2
	c3.2,0.4,6.9-1.9,10.2-3.5c4.2-2.1,7.5-5.9,12.8-5.4c0.3,0,0.9-0.3,1-0.5c1.7-4.3,7-4.6,9.3-8.4c1.2-2,3.7-3.2,5.6-4.7
	c0.4-0.4,1.1-0.5,1.4-0.9c5-7.6,11.8-13.7,16.8-21.4c2.3-3.5,4-7.1,5.8-10.7c1.3-2.6,2.1-5.6,2.6-8.5c1.2-7.5,2.6-15.1,2.9-22.7
	c0.2-3.6-1.7-7.3-3.1-10.9c-1.8-4.6-4-9-6-13.5c-0.1-0.2-0.1-0.4-0.2-0.5c-3.7-3.8-6.4-8.4-9.1-12.9c-2.4-3.9-6.1-6.8-8.8-10.7
	c-2.5-3.8-6.8-6.7-10.7-9.2c-6.6-4.2-11.2-10.2-16.2-15.9c-1.3-1.5-2.4-3-3.8-4.3c-2.9-2.6-8.1-11.7-7.9-15.2
	c0.3-4.8-1.3-7.9-6.2-8.6c-3.2-8-0.1-15.3,1.4-22.7c0.6-2.8,1.1-5.7,1.1-8.5c0.4-14.7,3.9-28.5,12.5-40.7c0.6-0.8,1.1-1.6,1.5-2.5
	c2.7-7.5,8.8-12,14.4-17.1c1.5-1.4,2.8-3.1,4.3-4.5c2-1.8,3.2-5,6.8-4c0.3,0.1,0.8-0.2,1-0.5c3.2-3.7,7.6-4.4,12.1-5.2
	c4.4-0.8,8.8-2,13.2-3.1c1.2-2,1.2-3.6,0.2-5.9c-2-4.7-3-9.6-2.8-14.9c0.3-7.1-1.1-14.1-3.1-21c-0.5-1.7-1-3.1,0.8-4.6
	c0.7-0.5,0.6-2.6,0.2-3.7c-1.8-5.7,0.4-10.2,4.5-13.7c1.9-1.6,4.8-2.4,7.3-3c3.1-0.8,6.3-1,9.4-1.4c2.6-0.3,6.5,3.7,6.9,7.2
	c0.2,1.9,0,3.9,0.2,5.8c0.3,3.6,0.9,7.2,1.1,10.9c0.2,3.4,0.2,6.9,0.1,10.3c0,3.2-0.1,6.3,0.9,9.6c1.4,4.7,1.6,9.7,2.4,14.6
	c0.1,0.6,0.1,1.2,0.2,1.7c2,7.4-0.6,9.3,10.5,8.9c3.9-0.1,8.1,0.9,11.8,2.2c3.8,1.4,7.5,1.6,11.3,1.2c3.3-0.4,6.3,0.4,8.4,2.5
	c2.2,2.1,4.7,2.5,7.3,3c12.5,2.7,23.9,7,31.2,18.6c1.4,2.3,3.5,4.1,5.2,6.2c7.4,9.3,10.2,20.6,13.4,31.7c1.2,4.2,0.3,9.2-0.7,13.6
	c-1.3,5.9-1.9,12.1-6,17.1c-0.7,0.9-1.8,2-1.8,2.9c0.5,7.6-5.6,10.8-10,14.9c-2.4,2.3-4,4.3-4.4,7.6c-0.2,2.2-1.4,4.4-2.5,6.4
	c-2.7,4.8-5.9,9.3-6.4,15c-0.1,0.5-1,0.9-1.4,1.4c-1.3,1.4-3.1,2.6-3.8,4.2c-2.8,6.4-7.5,11.5-10.7,17.6c-0.9,1.6-2.7,2.7-3.7,4.2
	c-4.8,7.3-10.7,13.8-14.6,21.9c-2.9,6-5,12-6.8,18.2c-0.7,2.6-1.9,5-2.9,7.5c-1.9,4.6-4.4,9-5.5,13.7c-1.8,7.4-4,14.7-6.7,21.8
	c-1.6,4.3-4.7,7.6-5.7,12.5c-0.8,4-4,7.7-6.7,11c-5.6,6.9-11.5,13.6-17.5,20.2c-4.8,5.3-9.7,10.4-14.8,15.3c-2.2,2.1-5.2,3.6-8,4.9
	c-2.9,1.4-6,2-8.9,3.9c-4.4,2.9-10.1,3.8-15.3,5.5c-4.7,1.5-9.4,2.9-14.1,4.2c-6.2,1.8-12.4,3.7-18.6,5.4
	c-5.9,1.6-11.7,3.8-17.7,4.5c-7.5,0.9-14.9,2.8-22.6,2.4c-8.6-0.5-17.2,0.1-25.7,1.4c-7.7,1.2-15.4,1.5-23.2,2.3
	c-2.3,0.2-4.6,0.7-6.7,1.5c-4.8,1.9-9.4,4.4-14.2,6c-7.1,2.3-12.8,6.7-18.4,11.3c-4.3,3.5-8.8,6.8-13.1,10.4
	c-4.9,4.1-9.9,8.2-14.2,12.9C131.3,1436.6,130.4,1440,129.1,1442.7z M366.8,1108.7c-0.2,0-0.3,0.1-0.5,0.1
	c1.4,5.5,1.9,11.6,4.5,16.5c3.6,6.6,9.5,11.7,15.9,15.5c6.9,4.1,14.2,7.5,21.6,10.7c2.5,1.1,5.6,0.9,8.4,1.2c1.5,0.1,3,0.2,4.4,0
	c3.8-0.7,7.6,0.6,11.2,0.3c7.2-0.8,14-3.4,21.4-3.7c1.8-0.1,3.6-1.3,5.2-2.2c4.7-2.7,7.6-7.3,11.4-11.1c6.8-6.8,8-15.4,7.2-23.9
	c-0.6-6.7-3.1-13.8-6.7-19.5c-5.3-8.6-10.3-17.8-20.6-22.3c-5.4-2.4-10.2-5.8-16.5-4.2c-1.5,0.4-3.1,0.4-4.6,0.1
	c-4.2-0.9-8,0.4-11.9,1.4c-2.4,0.6-4.9,1.6-7.3,1.5c-10.7-0.2-19.3,5.3-27.6,10.9c-9.4,6.4-12.5,17.1-15.5,27.5
	C366.9,1107.9,366.9,1108.3,366.8,1108.7z M378.7,1044c0.4-0.8,0.9-1.4,0.9-1.9c-0.5-4.9-1.3-9.7-1.7-14.6c-0.4-6-2.8-11.6-2.3-17.9
	c0.6-7.4-1-14.9-1.7-22.6c-2,0.4-3.9,0.7-5.7,1.1c-2.6,0.5-4.3,2.4-4.4,4.7c-0.1,5.5,0.3,11,0.8,16.5c0.4,4.1,3.5,7.7,1.5,12.2
	c-1.9,4.5,3.7,7.9,2.3,12.5c-0.1,0.4-0.1,0.8,0,1.2c0.5,3,1,6,1.5,8.9C373.2,1044,376,1044,378.7,1044z M332.7,1127
	c-5.6,2.2-10.8,4.7-16.2,6.1c-5.4,1.4-11.2,0.3-16.3,2.7c0.4,2.4,0.7,4.4,1.1,6.7c11.2,0.2,22.1-2.8,33.3-3.9
	C334,1134.8,333.4,1131.3,332.7,1127z M363.5,1163.8c3.6-6,6.9-11.8,12.8-16.1c-1.9-1.7-3.6-3.5-5.5-5c-3.2-2.6-5.7-2.2-7.9,1.2
	c-0.6,0.9-1.2,2.8-1.6,2.7c-4.5-0.8-4.9,3.5-7,5.6c-1.6,1.6-1,3.5,0.3,4.7C357.5,1159.4,360.7,1161.7,363.5,1163.8z M343.9,1125.9
	c1.4,6.6,0.9,13.1,4.6,19.4c4.8-3.6,9.3-6.9,13.2-9.9c-2.4-4.2-4.7-8.2-7.2-12.6C350.7,1121.3,348.2,1125.8,343.9,1125.9z
	 M383.7,1152.3c-6.2,3.5-8.3,9.4-11.5,16.2c6.6-1.1,11.8-0.1,17.3,1.5c2-4,3.7-7.5,5.7-11.4C391.1,1156.3,387.6,1154.4,383.7,1152.3
	z M358.6,1094.7c1-5,7-9,1.3-14.1c-7,2.5-9.4,7.8-10.1,14.6C352.8,1095,355.5,1094.9,358.6,1094.7z M401.8,1172.1c4.1,0,8,0,12.1,0
	c1.1-2.5,2-4.7,3.1-7.3c-4.2-0.5-8.2-1.1-12.2-1.6c-1.1,2.3-2.1,4.4-3.1,6.4C401.5,1170,401.7,1170.4,401.8,1172.1z M354.3,1104.8
	c-8.7-0.7-9.7,0.3-8.7,8.8c2.8-0.1,5.5-0.3,8.7-0.4C354.3,1110.1,354.3,1107.4,354.3,1104.8z M446.3,1163.9
	c-0.1-0.4-0.2-0.7-0.2-1.1c-1.1,0-2.2-0.1-3.2,0c-3.2,0.5-6.3,1.2-9.5,1.5c-6.1,0.6-6.1,0.5-7.9,7.1c7-0.1,11.7-6.4,18.5-6.2
	C444.7,1165.3,445.5,1164.4,446.3,1163.9z"/>
<path fill-rule="evenodd" clip-rule="evenodd" d="M166,234.7c-4.5,5.6-9.1,12-14.6,17.6c-4.1,4.2-9.2,7.6-14.2,10.8
	c-5.8,3.7-12.1,6.6-18,10.1c-3,1.8-5.8,3.9-8.7,5.9c-0.5,0.3-0.9,0.9-1.4,1c-7.6,1.9-15.2,4-22.9,5.5c-5,1-10.1,1.6-15.2,1.6
	c-4.3,0-8.8,0.1-12.6-2.9c-1.3-1-3.1-1.6-4.8-1.8c-7.7-0.8-14-4.8-20.8-7.9c-0.2-0.1-0.4,0-0.6-0.1c-2.3-1.2-7.4-13.5-6.2-15.7
	c0.5-1,2-2.3,2.9-2.2c4,0.4,7.8,1.1,11.4,3.8c6.4,4.8,13.6,8.1,21.7,9.4c5.1,0.9,10.1,2.2,15.2,3.2c3.1,0.6,6.4,0.6,8.7-1.7
	c3.9-3.7,8.9-3.7,13.6-4.9c1.1-0.3,2.7,0.2,3.4-0.4c4.2-4.1,10-5.3,14.9-8.2c1.6-1,3.2-2.2,4.9-3c3.1-1.4,5.1-3.6,6.9-6.5
	c2.1-3.3,5.3-5.9,8.1-8.8c3.5-3.4,6.9-6.9,10.6-10.1c4.5-3.9,5.8-9.3,6.8-14.9c4.3-0.4,7.3-2.5,9.2-6.1c0.3-0.5,0.8-0.9,1.1-1.3
	c3.6-4.9,6.4-4.5,9.4,0.9c2.5,4.5,5.2,8.9,7.4,13.6c3.1,6.3,8.7,10,13.6,14.6c7.1,6.6,15.8,9.8,24.7,13c7.6,2.7,15.3,3,23.2,3.9
	c7.7,0.8,14.7-1.2,22-2c9.8-1.1,18.6-4.2,27.1-8.7c8-4.3,16.8-7.1,23.6-13.7c3.9-3.8,6.4-8,7.6-13.2c0.4-1.8,1-3.7,2-5.3
	c2.2-3.6,5.3-4,8.7-1.6c1.1,0.8,2,1.8,3.2,2.3c2.7,1.1,4.7,2.3,5.7,5.5c3.5,10.8,12.6,17.1,20.5,24.3c1.3,1.2,2.8,2.1,3.9,3.4
	c4.5,5.4,10.3,8.7,16.9,10.7c5.9,1.7,11.7,3.6,17.5,5.3c0.8,0.3,1.8,0.3,2.7,0.3c2.5,0,4.9-0.1,7.4-0.1c0.8,0,1.5,0.2,2.3,0.4
	c3.9,1,7.7-1.2,11.9-0.2c4,0.9,8.7-0.5,13-1.4c4.1-0.9,8-2.5,12.1-3.7c2.1-0.6,4-1.4,4.6-3.9c0.2-0.7,0.9-1.8,1.3-1.8
	c5.8,0.2,6.2-5.2,8.9-8.3c3.9-4.4,7.5-9.1,11.1-13.7c1.1-1.4,2.3-3,3.1-4.6c1.9-3.7,3.6-4.7,7.9-4.1c4.4,0.6,7.1,2.1,8.9,7.2
	c2.4,6.8,5.2,13.6,12.2,18.3c5.6,3.7,11.3,6.7,17.2,9.8c3.7,2,7.5,4,10.9,6.5c3.4,2.5,7.2,3.4,11.2,4.2c7.1,1.4,14.3,1.8,21.4,0.7
	c5-0.8,9.7-3.6,14.7-4.9c7.7-1.9,14-6.6,19.5-11.5c7.2-6.5,13.5-14.2,17.4-23.4c0.6-1.4,1.3-2.8,2.1-4.1c3-4.9,7.8-5.3,11.3-0.7
	c3.7,4.9,7.7,9.7,10.3,15.2c1.5,3.1,3.8,4.9,5.9,6.8c6.3,5.6,13,10.7,19.7,15.8c5.4,4.1,12,4.8,18.3,6.1c3.5,0.7,7.2,0.6,10.7,0.4
	c6.9-0.4,13.8-0.9,20.6-1.8c2.3-0.3,4.5-2.1,6.7-3.2c4.7-2.4,9.6-4.8,14.2-7.4c5.6-3.2,9.3-8.4,12.6-13.8c2.5-3.9,5.8-5.5,10.3-4.6
	c3.3-6,3.3-6,7.8-8.6c1,1.1,2.8,2.2,3.1,3.6c2.1,8.2,8.8,12.4,14.9,16.7c6,4.3,12.9,7.4,19.5,10.8c2.8,1.5,5.9,2.8,9,3.4
	c6.9,1.2,13.8,2.4,20.8,2.7c7,0.3,13.4-2.5,19.8-5.1c4.7-1.9,8.7-5,12.7-8c3-2.2,5.3-5.5,7.6-8.5c3.1-3.9,5.9-8.1,8.7-12
	c3.4,0.5,5,2.6,6.1,5.2c2.2,5.4,5.5,9.8,9.9,13.8c6.9,6.4,6.9,6.2,17.1,10.8c2.2,1,4,1.1,6.1,1.4c3,0.4,5.9,0.8,8.9,1
	c2.4,0.2,5,0.9,7.3,0.3c6.9-1.7,13.9-1.8,20.8-2.8c7.3-1.1,13.7-5.1,19.5-9.6c2.2-1.6,3.5-4.3,5.3-6.5c0.7-0.9,1.6-2,2.6-2.2
	c2.1-0.3,4.1-2.9,6.4-0.4c1.3,1.5,0.9,6.4-0.7,8.1c-3.7,4-7.9,7.6-11.3,12c-2.1,2.8-6.2,4.5-9.8,5.7c-7.5,2.4-15.1,4.3-22.8,6
	c-10.4,2.3-20.9,2.5-31.3,0.6c-5.2-0.9-10.2-2.8-14.2-6.8c-2.6-2.6-5.6-4.7-9-7.6c-2.4,0.6-5.5,1.8-8.7,2c-5.6,0.3-9.9,3.5-14.8,5.3
	c-7.7,2.7-15.9,4.3-23.8,6.5c-1.3,0.3-2.5,0.9-3.7,1.2c-1.1,0.3-2.3,1-3.3,0.7c-5.9-1.6-12.1,0.5-18.2-1.9
	c-3.3-1.3-7.7-0.4-11.6-1.4c-4.7-1.2-9.1-2.7-13.3-5.2c-6.1-3.8-12.4-7.2-18.5-11c-2.9-1.8-5.3-4.3-8.3-6.7
	c-1.2,3.3-4.1,4.6-7.2,5.7c-5.2,1.9-9.8,4.4-14.3,7.9c-4.7,3.6-11,5-16.6,7.4c-3.8,1.6-7.6,3.4-11.4,5c-6.4,2.7-13.1,4.1-20.1,3.6
	c-5.5-0.4-11.1-0.5-16.7-0.8c-1.5-0.1-2.9-0.6-4.4-0.9c-2.8-0.6-5.5-1.5-8.4-1.8c-4.6-0.4-8.7-2-12.2-4.8
	c-7.1-5.9-14.1-11.8-21-17.9c-3.1-2.8-5.7-6.1-8.8-9.4c-3.3,2.8-7,6-10.9,9.1c-1.5,1.2-3.2,2-4.8,3c-6.6,4.4-12.9,9.2-19.8,13
	c-6.5,3.5-12.9,7.3-20.9,7.5c-4.6,0.1-9.3,1.9-13.8,3.2c-7.5,2.2-14.9,1.5-22-0.7c-5.4-1.6-10.6-4.2-15.8-6.6
	c-1.8-0.8-3.2,0.6-5.3-0.7c-7.5-5-14.7-10.3-21-16.8c-2.9-3-6.3-5.6-9.3-8.3c-4,3.7-7.6,7.3-11.6,10.4c-2.2,1.7-5,2.6-7.7,3.7
	c-6.7,2.7-12.3,7.3-18.2,11.2c-0.8,0.6-2.2,0.4-3.3,0.5c-8.4,0.5-16.9,0.7-25.2,1.7c-4.8,0.6-9.4,0.9-14.3-0.2
	c-4.8-1-9.9-1.2-14.9-1.2c-8.3,0-14.9-4.6-22-7.8c-7.6-3.5-14.8-8-20.8-14c-2.5-2.6-5-5.2-7.5-7.8c-2.2-2.4-4.2-4.9-6.6-7.6
	c-1.1,0.7-2.2,1-2.6,1.7c-4.5,6.9-12.3,8-19,11.1c-7.5,3.3-14.6,7.3-22.1,10.7c-4,1.8-8.2,3-12.4,4.3c-5.6,1.7-11.3,4.6-16.9,4.6
	c-6.8,0-13.7,1.8-20.6-0.5c-2-0.7-4.5-0.4-6.7-0.3c-7.3,0.4-14.4-1.1-21.6-2.4c-4.7-0.8-9.4-1.8-14.1-2.7
	c-5.6-1.1-10.3-4.1-14.6-7.7c-3.3-2.8-7.5-4.3-10.3-7.9C175.1,240.8,171.9,236.5,166,234.7z"/>
<path fill-rule="evenodd" clip-rule="evenodd" d="M577.9,582.8c-2.4,3.1-4.9,2.7-7.6,1c-3.8-2.4-6.9-5.8-11.4-7.4
	c-1.5-0.5-2.3-3.7-2.8-5.9c-0.5-1.8,0.1-4-0.5-5.7c-1.8-5,0.1-9.1,2.7-13.1c4.4-6.7,10.3-11.8,17-15.9c4-2.5,8.6-4,12.9-6.1
	c1.1-0.5,2.1-1.3,4.1-2.7c-4.6-0.3-6.2-2.2-6.4-5.5c-0.2-3.3,1.7-4.8,4.5-5.7c1.1-0.3,2-1.1,2.9-1.7c-0.3-0.4-0.6-0.9-0.9-1.3
	c-1.3,0.4-2.6,0.7-4.2,1.1c-2.4-2.8-6.1-5.8-4.1-9.8c1.6-3,5.4-4.9,8-7.2c-2.8-1.2-6-2.2-8.8-3.8c-4.7-2.6-5-6.1-1.1-9.9
	c0.5-0.5,1.1-1,1.6-1.5c-4.7-5.2-4.7-5.2-0.4-11.3c0.5-0.7,1.1-1.7,1-2.4c-0.6-3.6,1.6-5.3,3.8-6.7c-0.2-3.1-1.4-6.6-0.3-8.9
	c1.1-2.4,4.5-3.7,7-5.5c0.6-8.2,0.7-16.6,2-25c0.8-5.6,0.6-11.6,3.9-16.8c0.3-0.4,0-1.1,0-1.7c-0.7-11.8-0.7-23.5,1.3-35.2
	c0.6-3.5,0.3-7.2,0.3-10.7c0.1-14.4,0.1-28.8,0.2-43.2c0.1-9.2-0.7-18.5,1.3-27.6c0.9-4.4,1-9.1,1.3-13.6c0.2-3,2.2-4.9,4.5-5.2
	c1.7-0.3,3.8,1.3,5.5,2.3c0.6,0.4,1,1.7,0.9,2.5c-0.6,7.6-1.5,15.1-2,22.7c-0.3,4.6,0,9.2-0.1,13.8c-0.2,9.9-0.6,19.9-0.8,29.8
	c0,2.3,0.5,4.6,0.5,6.9c0,3.2-0.3,6.4-0.5,9.6c-0.5,6.5-1.1,12.9-1.5,19.4c-0.4,7.9-0.6,15.8-0.9,23.6c0,1.1-0.4,2.3-0.5,3.4
	c-1.4,12.3-3,24.6-4.1,37c-0.3,3.7-0.9,7.8,2.2,11.2c1.8-0.3,3.6-0.7,5.4-0.7c3.3,0,4.5,1.5,4,5c-0.9,6.3-1.5,12.7-2.9,18.9
	c-0.6,2.7-3.2,4.9-5.1,7.7c1.6,0.4,2.9,1.3,4.1,1c2.3-0.4,3.8,0,4.3,2.4c0.7,3.9-0.1,5.9-2.7,7.1c-2.6,1.2-5.3,2.3-7.9,3.6
	c-0.7,0.4-1.1,1.2-2.2,2.4c5.2,1.8,10.8,0,15.3,3.7c-1.1,0.9-1.8,1.7-2.7,2.3c-0.6,0.4-2,0.7-2,1c0.1,6.1-5.5,5.3-8.7,7.4
	c-0.4,0.3-0.8,0.6-1.4,1.1c3.1,0.3,6,0.5,9.2,0.7c1.2,3.4,6,6,2,10.4c-4.3,0.6-8.6,1.3-12.9,2c-0.1,0-0.1,1-0.2,2
	c1.8,0.4,3.6,1,5.5,1c6,0.3,8.9,3.2,7.6,8.2c3.7,4.8,7.4,9.2,10.7,13.9c4,5.8,4.6,12.3,1.1,18.5c-2.6,4.6-2.9,10.6-8.2,13.6
	c-0.5,0.3-0.4,1.4-0.6,2.1c-0.5,1.8-0.8,3.8-1.7,5.3c-1.7,2.9-2.2,5.4-0.7,8.6c1.7,3.3,1.4,6.8,0.5,10.6c-1.7,6.8-2.7,13.8-3.8,20.8
	c-1,6.6-1.8,13.3-2.8,19.9c-0.2,1.3-0.9,2.5-1.4,3.7c-1.2,3.2-2.7,6.3-3.5,9.6c-2.7,10.9-5.2,21.9-9.6,32.3
	c-1.4,3.3-1.6,7.1-2.8,10.6c-3.1,8.9-6.6,17.6-9.5,26.5c-3.1,9.5-6.1,19-8.5,28.7c-1.3,5-1.2,10.3-1.8,15.5
	c-0.7,6.3-1.7,12.5-2,18.8c-0.2,3.2,0.3,6.6,1,9.8c2,9.5,6.2,17.6,15.3,22.5c3.8,2,7.1,4.7,10.8,6.9c5.6,3.3,11.5,5.9,17.9,7.2
	c7.6,1.6,15.1,0.2,22.6-0.7c4.3-0.5,8.7-0.4,13-1.1c2.9-0.5,6-1.3,8.6-2.7c6-3.4,12.1-6.7,14.9-13.6c0.5-1.2,1.3-2.4,2.1-3.4
	c5.7-6.9,6.6-15.3,7.2-23.7c0.2-3.2,0-6.4,0-10.5c-1,1.6-1.6,2.5-2.2,3.3c-2.7,3.4-5.4,6.9-8.4,10c-0.6,0.7-3,0.2-4.2-0.4
	c-2.3-1-3.5-3.2-3-5.7c0.9-3.7,1.9-7.5,3.5-10.9c3.4-7.5,4.7-15.4,5.8-23.4c0.4-2.8-0.6-5.7-0.7-8.6c-0.2-3.8,0.4-4.6,4.1-5.8
	c0.5-0.2,1.1-0.1,1.6-0.3c5.8-2.9,7.3-2.4,9.8,3.1c0.5,1,1.3,1.9,1.9,2.8c2.4,3.2,4.2,6.7,5.9,10.4c3.7,7.9,3.6,16.5,5.3,24.8
	c0.6,3,0.2,6.9-2.4,9.7c-1,1.1-1.3,2.7-1.8,4.1c-1.7,4.6-1.9,9.7-4.4,14.2c-4.3,7.4-8,15.2-12.1,22.8c-0.5,0.9-1.6,1.7-2.5,2.3
	c-5.2,3.7-10.1,7.8-15.6,10.8c-7.3,4-15,7.1-23.6,7.6c-3.3,0.2-6.8,1.1-9.9,2.2c-10.3,3.8-20.7,3.4-31.3,2.1
	c-4.5-0.5-9-0.6-13.2-2.6c-0.9-0.4-2.2,0-3.3,0c-1.9-0.1-4,0.4-5.5-0.4c-6.8-3.5-14.5-5.3-20.6-10.3c-7.1-5.8-13.4-12.2-13.9-22.1
	c-0.1-1.1,0.1-2.2,0.2-3.3c0.5-3.6,0.8-7.3,1.7-10.8c1.3-5.1,3.1-10,4.8-15c0.8-2.3,2.2-4.4,2.8-6.8c1.8-7.5,3.1-15,5.1-22.4
	c1.1-4.2,3.1-8.1,4.5-12.2c1.5-4.4,1.9-9.1,5.4-13c1.9-2.1,2.4-5.9,2.5-9c0.2-6,3.8-10.7,5.7-16c1.4-4,2.6-8,3.5-12.1
	c0.8-4.2,2.3-8,3.7-12c1.9-5.3,2.2-11.2,3.4-16.8c1.2-5.8,3.2-11.5,3.9-17.4c0.7-5.5,4.6-10,4.2-15.7c4-5.8,3-12.8,4.4-19.3
	c1.1-5.5-0.7-10.7-2.3-15.9c-0.2-0.6-1.1-1.1-1.7-1.5c-1.8-1.4-2.6-3-2.5-5.4c0.1-7.3-2.4-13-9.9-15.7
	C582.3,586.4,580.4,584.5,577.9,582.8z M588.6,553.7c-0.2-0.5-0.5-1-0.7-1.5c-2,0.8-4.7,1-6,2.4c-1.9,2.1-4.1,5.1-4,7.7
	c0.1,3.4,1.7,6.9,6.3,7.8c4,0.8,8.4,1.8,9.7,6.8c0.1,0.3,0.6,0.5,1,0.6c4.5,1.5,6,5.3,6.6,9.3c0.5,3.5,2.3,3.9,5.1,3.7
	c2.6-3.6,2.5-3.6,2.9-8.3c0.1-1.1,0.5-2.2,0.9-3.2c1.2-2.9,2.5-5.9,3.8-8.8c1-2.2,1.4-4.3,0.1-6.6c-0.8-1.3-1.2-2.8-1.8-4.4
	c-1.3-0.4-2.7-0.7-4-1.1c-1.2,1.6-2,3.3-3.3,4.2c-3.4,2.2-5.8,6.3-10.7,5.5c-1.6-0.3-3.3-0.2-5-0.2c-2.2-0.1-6.2-3.4-6.6-5.6
	c-0.6-2.6,0.9-5.1,3.8-6.7C587.3,555,587.9,554.3,588.6,553.7z"/>
<path fill-rule="evenodd" clip-rule="evenodd" d="M608.5,232.8c-3.1-3.9-4.8-7.7-1.3-12.6c2.6-3.6,1.5-8.1,1.7-12.2
	c0.2-3.6-0.4-7.2-0.6-10.8c0-0.8-0.4-1.7-0.1-2.3c2.3-3.8,0.9-8.1,1.5-12.1c1-6.3,0.6-12.6,0.7-18.8c0.1-5.9,0.3-11.7,0.2-17.6
	c-0.1-4.3-0.6-8.7-0.9-13c-0.2-3.8-0.3-7.6-0.3-11.4c0-3.2,0.1-6.4,0.3-9.6c0.3-3.8,0.9-7.6,1.2-11.3c0.3-4.5,0.4-9.1,0.7-13.6
	c0.6-11,1.3-22.1,1.8-33.1c0.1-2.3-0.6-4.6-0.6-6.9c0-2.6,0.2-5.2,0.4-7.9c0-0.6,0.7-1.3,0.5-1.6c-3.3-5.5,1.1-10.5,0.8-15.8
	c-0.3-5.2,0.4-10.4,0.9-15.5c0.2-1.8,0.7-3.8,1.7-5.3c0.7-0.9,2.6-1.5,3.9-1.3c1.7,0.2,2.4,1.8,1.9,3.6c-0.2,0.7-0.3,1.5-0.6,2.5
	c2.3,0.4,3.7,1.3,3.6,4c-0.4,6.9-0.1,13.9-0.5,20.8c-0.7,13.8-2,27.6-2.6,41.5c-0.4,8.4,0.5,16.8,0.1,25.2
	c-0.6,12.2,0.5,24.4-1.7,36.5c-0.4,2.2-0.3,4.7,0,6.9c1.6,11.1-0.3,22.2-0.5,33.2c-0.1,5.9,0,11.8-0.1,17.7
	c-0.1,4.9-0.5,9.9-0.8,14.8c-0.3,5-0.7,10-1,14.9C618.5,229.9,617.2,231.3,608.5,232.8z"/>
<path fill-rule="evenodd" clip-rule="evenodd" d="M289.9,347c-5.6-0.3-10.5-2.4-15.1-5.3c-0.3-0.2-0.7-0.3-1-0.6
	c-6.8-8.6-11.3-17.9-8.8-29.2c0.5-2.1,2-4,3.2-6c1.1-1.8,2.8-3.4,3.3-5.3c1.5-5.3,6.5-6.1,10.3-8.4c0.8-0.4,2.5,0.6,3.7,1.1
	c2.4,1,4.6,1.1,6.8-0.6c5.3-4.1,15-3.9,20.2,0.5c2.9,2.5,5.7,5.2,8.1,8.2c2.5,3,3.6,6.4,2.6,10.7c-0.9,3.8-1.2,7.8-2.2,11.7
	c-3.1,12.5-12,18.3-23.4,21.6C295.2,346.1,292.5,346.5,289.9,347z M281.9,302.5c-0.7,0.8-1.3,1.9-2.2,2.5c-5.9,4.3-5.9,10-4.8,16.4
	c0.8,4.9,2.1,9.1,6.7,11.7c0.5,0.3,0.6,1.1,1.1,1.3c1.6,0.7,3.3,1.6,5.1,1.9c1.5,0.3,3.1,0.1,4.6-0.1c7.4-1,14.5-2.6,18-10.3
	c0.9-2.1,1.7-4.2,2.3-6.4c2.4-8.2-1.1-15.6-9-18.6c-2.2-0.8-4.9-1.4-7.1-0.8c-1.5,0.4-2.6,2.8-3.3,3.6
	C289.2,303.4,285.7,303,281.9,302.5z"/>
<path fill-rule="evenodd" clip-rule="evenodd" d="M404.7,802.6c5.3-0.2,10.3,0.8,14.8,3.7c4.5,2.8,6.7,7.4,8.7,11.8
	c1.8,4,2.7,8.4,3.3,12.8c0.8,5.9-0.7,11.6-4.6,16.2c-3.6,4.2-7.4,8.4-11.7,11.8c-5.8,4.7-12.7,6.8-20.2,5.7
	c-8.4-1.2-15.1-5.3-18.5-13.5c-0.7-1.7-1.9-3.2-2.7-4.9c-3.5-6.6-0.9-12.7,1.7-18.8c0.4-1,1.4-2.2,2.3-2.3c3.2-0.5,4-2.5,4.1-5.3
	c0.1-4.7,2.7-7.7,6.1-10.9C392.9,804.2,398.4,802.7,404.7,802.6z M382.1,829.6c-1.1,1.6-2.2,2.4-2.2,3.3c0,6.6,0.6,12.8,7.1,17
	c10.8,6.8,14.7,6.7,24.1,0.2c4.6-3.2,7.8-8.5,10.3-13.7c0.9-1.8,0.7-4.4,0.3-6.6c-0.5-2.8-2-5.4-2.5-8.1c-0.8-4.5-3.6-6.9-7.6-8.5
	c-12.6-5.2-26.4,5.8-26.9,18.2c0,0.5-0.1,0.9-0.3,2.9C383.5,832.1,383,831.1,382.1,829.6z"/>
<path fill-rule="evenodd" clip-rule="evenodd" d="M907.7,607c1.8,5.3-1.9,9.1-4.5,13.3c-3.6,5.9-6.9,11.9-13,15.8
	c-5.9,3.7-11.9,4.6-18.4,2.4c-5.4-1.9-11.2-3.1-13.6-9.4c-4.3-0.6-4.5-4.4-5.4-7.3c-1.1-3.8-1.7-7.9-0.5-11.9
	c0.3-0.9,0.8-1.7,1.2-2.6c0.8-1.9,1.6-3.7,2.4-5.6c0.8-1.7,1.1-4,2.4-5.1c5.9-5.1,12-10.1,18.4-14.7c1.4-1,3.9-0.3,5.9-0.6
	c8.5-1,16.1,0.6,21,8.3C906.8,594.7,908.7,600.4,907.7,607z M862.6,603c-0.3,0.4-0.6,0.6-0.7,1c-0.4,1.9-0.7,3.8-1.1,5.6
	c-1.8,10.4,6.6,21,16.9,20.9c2.7,0,5.4-1.7,8.1-2.7c8.3-2.8,11.3-10.2,13.2-17.5c1.4-5.3,0.4-10.6-5.1-15.1
	c-4.5-3.8-7.8-4.3-12.7-2.3c-6,2.4-11.6,5-12.8,12.3c-0.1,0.4-0.9,0.6-1.6,1.2C865.4,605.2,864,604.1,862.6,603z"/>
<path fill-rule="evenodd" clip-rule="evenodd" d="M291.2,394.7c-0.6-8.1,4-12.9,9.9-17c1.4-1,2.7-2.1,3.8-3.3
	c2.5-2.8,13.5-8,17.2-8.1c5-0.1,7.7,1.9,9.2,6.8c0.5,1.6,1.2,3.3,1.9,4.8c4.6,9.1,0.6,18.4-6.2,24c-0.8,0.7-1.6,1.5-2.2,2.4
	c-2,2.8-4.2,5.3-8,5.9c-1.3,0.2-2.5,0.9-3.7,1.5c-8,3.9-15.9,1.1-19.2-7C292.7,401.5,292.1,398,291.2,394.7z M322.7,376.6
	c-4.7,2.1-8.8,3.8-12.8,5.6c0,3,0,5.2,0,8.2c-1.7-1.8-2.9-3.1-4.2-4.6c-5.1,4.6-4.1,9.5-2.3,14.4c7.4,4.2,11.1,2.7,19.9-6.8
	C328.3,388,324.8,382.8,322.7,376.6z"/>
<path fill-rule="evenodd" clip-rule="evenodd" d="M369.5,877.4c4.6,1.6,10.2,2.6,14.8,5.3c3,1.8,5.2,5.7,6.7,9.1
	c1.2,2.7,1.3,6,1.1,9c-0.1,2.3-0.9,4.8-4,5.7c-1.3,0.3-2.5,1.7-3.2,2.9c-3.7,6.3-8.6,11.7-15.5,13.9c-7.6,2.4-15.5,2.2-22.9-1.7
	c-0.5-0.3-0.9-0.7-1.1-1.2c-5.1-11.1-6-22.5,5.3-32.8c3.9-3.5,7.7-6.6,12.6-8.3C365,878.6,366.8,878.2,369.5,877.4z M373,912.4
	c1.4-2.3,2.3-5,4.1-6.2c3.9-2.7,3.2-7,4.7-10.5c0.3-0.7-0.5-2.4-1.3-3c-2.6-1.9-5.2-4.3-8.2-5.1c-3.1-0.9-7.3-1.5-9.9,0
	c-4.1,2.3-6.6,7-10.8,9.7c-0.6,0.4-1.2,1.2-1.3,1.9c-0.1,4.5-1,9.1,1.6,13.3c1.4,2.3,3.1,3.2,6,3.3
	C363.4,915.7,368.4,914.2,373,912.4z"/>
<path fill-rule="evenodd" clip-rule="evenodd" d="M930.6,684.2c-0.4,5.2-2.6,9.3-4.6,13.7c-3.4,7.7-9.6,11-16.8,13.5
	c-4.9,1.7-9.4,1.3-12.9-3c-1.7-2-4.8-3.8-5-5.9c-0.5-4.7-3.1-8.3-4.6-12.5c-0.5-1.4,0.7-3.3,1-5c0.4-2,0.8-4,1.2-6
	c0.1-0.7,0.1-1.8,0.6-2.2c3.8-3,4.9-8.3,9.8-10.6c6.5-3,12.9-6.1,20.3-3.2c2,0.8,7.1,5.9,7.6,7.9
	C928.4,675.4,929.5,679.8,930.6,684.2z M892.1,689c0.4,2.2,0.6,4.1,1.1,6c1.3,5.3,4.9,8.7,10.2,9c4,0.3,7.7-0.3,10.6-4.1
	c4.4-5.8,8.7-11.4,7.7-19.4c-0.7-5.3-5.9-10.5-13-7.6c-3.1,1.3-6,3.3-8.9,5.1c-0.7,0.4-1.3,1.6-1.3,2.4
	C898.2,684.6,895.3,686.7,892.1,689z"/>
<path fill-rule="evenodd" clip-rule="evenodd" d="M268.5,442.6c0.7-3.2,0-6.6,4.1-8.8c2.9-1.5,4.6-5.1,6.9-7.6c2.8-3,6.3-3.8,10-2.6
	c4.5,1.5,8.9,3.4,12.7,6.5c5.9,4.7,8.7,15.4,4.2,23c-3.1,5.2-7.7,8.6-13.4,8.6c-4.2,0-9.1-0.4-12.3-4.4c-0.7-0.9-1.9-2.2-2.5-2.1
	c-2.4,0.6-3.9-0.4-4.7-2.3C272.1,449.4,267.3,447.5,268.5,442.6z M299.7,443.3c-1.6-1.8-2.9-3.4-4.3-5c-4.8-5.4-8.2-5.5-13.3-0.4
	c-3.3,3.3-2.9,6.3,1,8.8c0.8,0.5,1.8,0.9,2.4,1.6c2.4,2.9,5.2,3.1,8.2,1.3C296.1,448.1,299.8,447.7,299.7,443.3z"/>
<path fill-rule="evenodd" clip-rule="evenodd" d="M880,761.9c-9.4,0-16.3-9.3-13.6-17.5c0.1-0.2,0.1-0.4,0.2-0.5
	c2.2-2.1,4.4-4.1,6.6-6.2c2-1.8,2.3-5,6.1-5.3c3.6-0.3,6.7-3.3,10.7-2.5c0.9,0.2,2,0.2,2.8,0.6c4.7,2.4,7.9,12,5.6,17
	c-3.2,6.9-8.1,11.9-15.6,14C881.6,761.7,880.4,761.8,880,761.9z M879.6,747.8c-0.9-0.7-1.4-1.1-2-1.5c-0.7-0.5-1.5-0.9-2.3-1.4
	c-1.7,2-1.1,3.5,0.2,4.8c0.9,0.9,1.9,2.1,3,2.2c6,0.9,9-1.1,11.6-6.9c0.5-1.2,1.2-2.4,1.8-3.5c-2.6-2.7-2.6-2.7-7.3-3.4
	C881.2,740.3,879.8,743.5,879.6,747.8z"/>
<path fill-rule="evenodd" clip-rule="evenodd" d="M385.9,959.3c-4.9-1.6-11-1.1-13.6-7.6c-0.9-2.3-2.2-4.4-0.7-7.1
	c0.6-1,0.7-2.8,0.1-3.9c-0.9-1.8,0.2-2.5,1.1-3.4c3.1-3.1,6.2-6.3,9.6-9.2c1.2-1,3.2-1.3,4.8-1.3c6.6-0.2,11.1,3.5,13.8,9.1
	c0.9,1.9,0.1,4.6,0.1,7c-0.1,6.7-6.2,14.6-12.6,16.2C387.8,959.3,387,959.2,385.9,959.3z M380.4,936.9c-0.7,2.2-1.4,4-1.8,5.8
	c-0.6,3,0.9,5.2,3.3,6.8c2.2,1.4,3.9,0.2,5.8-0.9c4-2.5,5.2-6,4.3-10.9C388.4,937.4,384.6,937.1,380.4,936.9z"/>
<path fill-rule="evenodd" clip-rule="evenodd" d="M795.3,952.4c-3.7-5.3-3.1-8.6-2-13.9c0.8-4,2.5-7.1,5.1-9.9
	c2.6-2.8,5.5-5.4,8.6-7.5c3.4-2.2,3.8-1.9,6.8,2.3c-2.7,2.2-5.1,5.1-8.2,6.5c-5.2,2.5-5.6,7.3-6.9,11.8
	C797.8,945,796.7,948.1,795.3,952.4z"/>
<path fill-rule="evenodd" clip-rule="evenodd" d="M870.4,926.3c-2.7,1.8-2.3,4.2-2.1,6.8c0.2,3.6,0.4,7.2,0,10.8
	c-0.7,6.2-4.1,11-9.1,14.6c-0.2,0.2-0.7,0.1-1.4,0.1c0.8-2.5,1.7-4.7,2.4-7.1c0.5-1.6,1.2-3.5,0.8-5c-0.8-3.3,0-6.4,0.5-9.6
	c0.4-2.8,0.8-5.7,1.3-8.5c0.7-3.8,2-4.3,5.9-2.5C869.2,926.2,869.8,926.2,870.4,926.3z"/>
<path fill-rule="evenodd" clip-rule="evenodd" d="M802.7,953.4c0.6-4.4,1.3-8.3,1.7-12.3c0.3-2.7,1.6-4.6,4-4.9
	c2.6-0.3,4.1-1.4,5.4-3.5c0.1-0.2,1,0,2.2,0.1c-0.5,1.2-0.6,2.7-1.2,3c-3.1,1.3-3.7,4.4-5.5,6.6c-1.9,2.2-2.6,4-1.9,6.9
	C807.9,951.5,806.5,953.7,802.7,953.4z"/>
<path fill-rule="evenodd" clip-rule="evenodd" d="M267.7,660.9c-3.8-2.3-6.3-4.4-6.6-9c-0.2-3.9-1-7.3,1.5-10.9
	c1.9-2.7,2.4-6.3,3.8-9.4c0.7-1.6,1.9-2.9,2.8-4.4c1.4-2.2,2.9-4.4,4.1-6.8c0.9-1.8,1.9-3,4-2c2.1,0.9,2.1,2.8,1.2,4.4
	c-1.2,2.1-2.5,4.4-4.3,5.9c-5.3,4.5-5.6,10.9-6.6,16.9c-0.4,2.6,0.7,5.7,1.6,8.3C270,656.7,270.2,658.8,267.7,660.9z"/>
<path fill-rule="evenodd" clip-rule="evenodd" d="M335.5,633c4.6-0.2,6.2,0.8,7,4.2c1.6,7.7-0.6,14.8-3.8,21.7c-0.4,0.9-2,1.3-4,2.5
	c0.2-2.7,0-4.4,0.5-5.9c0.9-3,2.4-5.9,3.3-8.9c0.4-1.4,0.1-3-0.2-4.4C337.5,639.1,336.5,636.1,335.5,633z"/>
<path fill-rule="evenodd" clip-rule="evenodd" d="M283.7,657.3c-5.7-3.9-5.1-8.9-4.9-13.8c0.1-1.7,0.8-3.3,1.2-5
	c0.5-2.1,1.9-2.1,4-1.3C282.5,643.6,285.1,650.2,283.7,657.3z"/>
<path fill-rule="evenodd" clip-rule="evenodd" d="M386.1,1094.9c2.8,0.7,4.7,1.1,7,1.7c0.1,3-0.4,5.7-2.4,8c-3.4,3.9-3.6,8.5-2.4,13
	c0.8,3-1.1,7.7,4.3,8.1c-0.2,1.3-0.1,1.9-0.3,2.4c-0.8,2-1.4,4.2-4.1,4.1c-2.8-0.1-6.3-2.7-7-5.1c-0.8-2.7-1.5-5.5-2.2-8.3
	c-0.1-0.4-0.2-0.9,0-1.1c2.8-4.8,0.9-10.6,3.2-15.5C383.3,1099.6,384.8,1097.3,386.1,1094.9z"/>
<path fill-rule="evenodd" clip-rule="evenodd" d="M402.7,1107.2c0,1.9,0.4,3.7-0.1,5.2c-1.6,5.4-0.6,9.6,4.4,12.3
	c-0.1,6.4-6.2,3.1-8.6,5.6c-5.1-4.2-5.2-10.2-5.4-16.1c0-1.6,0.8-3.3,1.6-4.9C396.6,1105.7,397.5,1105.4,402.7,1107.2z"/>
<path fill-rule="evenodd" clip-rule="evenodd" d="M458.4,1108.9c-1.6-3.6-3.8-7.1-4.8-10.9c-1-3.6-3.1-6.2-5.4-8.6
	c-1.8-1.9-2.4-4-2.1-6.3c0.1-1.1,0.9-2.5,1.8-3.1c0.6-0.4,2.3,0.2,2.9,0.9c4.1,5,8.8,9.7,10.5,16.3c0.7,2.6,0.8,5.3,0.9,8
	C462.2,1107.3,461.2,1108.9,458.4,1108.9z"/>
<path fill-rule="evenodd" clip-rule="evenodd" fill="#FFFFFF" d="M268.2,670.1c1.2,0.4,3.3,0.9,5,2c3.2,2,6.4,3.7,10.3,4.3
	c2.5,0.4,4.8,2.1,7.2,3.1c3,1.2,5.9,2.9,8.9,3.5c5.5,1.1,11.2,1.7,16.8,2.1c2.8,0.2,5.9,0.2,8.4-0.9c2.7-1.1,5.2-3.3,7.1-5.6
	c4.1-4.9,8.3-10,11.6-15.4c5.1-8.6,9.3-17.6,6.3-28.1c-0.7-2.4-1.3-4.8-2.4-7c-1.2-2.3-2.4-5.1-4.4-6.4c-5.1-3.4-9.2-7.8-13.8-11.7
	c-1.6-1.3-3.3-2.5-5.1-3.6c-4.5-2.8-9.8-4.6-12.7-9.8c-0.9,0-1.9-0.2-2.7,0c-8.2,2.2-16.5,4.2-24.7,6.8c-11.9,3.7-22.8,8.9-30,19.9
	c-2.7,4.1-4.4,8.3-4.6,13.2c-0.2,4.9-0.8,9.8,2.7,13.9c0.6,0.7,0.9,1.7,1.2,2.6c1.3,4.3,4.1,7.3,7.5,10
	C263.1,665,265.2,667.2,268.2,670.1z"/>
<path fill-rule="evenodd" clip-rule="evenodd" fill="#FFFFFF" d="M315.1,559.8c0.4-0.2,0.8-0.4,1.1-0.6c-0.1-1.1-0.1-2.2-0.2-3.3
	c-1.2-9.7-2.9-19.3-3.6-29c-0.6-9.2-0.2-18.5-0.1-27.7c0.1-7.7-2.6-10.6-10.4-10.9c-1.3-0.1-2.7,0.1-4.4,0.2
	c-0.2,1.5-1.2,3.4-0.6,4.3c2.6,4.4,1.9,9.2,2.3,13.9c0.2,3,0.1,6,0.2,9.1c0.4,8.4,1.2,16.8,1.1,25.1c0,5.3,2.2,8.6,6.3,11.4
	C309.8,554.4,314.4,554.8,315.1,559.8z"/>
<path fill-rule="evenodd" clip-rule="evenodd" fill="#FFFFFF" d="M175.3,586.6c5.3,3.1,11.2,5.3,16.5,8.3
	c6.6,3.8,14.2,5.6,20.2,10.7c0.4,0.3,1,0.3,1.9,0.5c0.5-1.5,0.9-3,1.6-4.3c3.8-7.7,3.9-8-4.1-9.9c-8.5-2-16.3-6.4-25-7.3
	c-0.7-0.1-1.5-0.4-2.1-0.7C179.5,581.6,179,581.7,175.3,586.6z"/>
<path fill-rule="evenodd" clip-rule="evenodd" fill="#FFFFFF" d="M240.9,618.6c1.3-3.2,2.8-6.2,3.6-9.3c0.3-1.3-0.5-3.9-1.4-4.3
	c-5.4-2.2-9.9-5.6-14-10.3c-2.8,8-7.6,14.6-8,22.9C228.1,618,234.4,618.3,240.9,618.6z"/>
<path fill-rule="evenodd" clip-rule="evenodd" fill="#FFFFFF" d="M249.1,601.4c5-1.9,9.1-4,11.3-8.8c-3.9-4.4-9.4-7.2-10.1-13.6
	c-5.7,2.5-12.3,3.6-15.1,10.5c1.3,1.5,2.4,3.2,4,4.3c1.5,1.1,3.5,1.5,5.3,2.1c1.6,0.5,3.2,0.9,5,1.5
	C249.4,598.4,249.3,599.5,249.1,601.4z"/>
<path fill-rule="evenodd" clip-rule="evenodd" fill="#FFFFFF" d="M237.7,650c0.9-4.1,0.5-8-3-8.9c-4.3-1-9-0.2-13.6-0.2
	c0.4,3.1,0.7,5.8,1.2,8.4c0.8,4.1,3.1,5.5,7.1,4.1C232.3,652.3,235.1,651,237.7,650z"/>
<path fill-rule="evenodd" clip-rule="evenodd" fill="#FFFFFF" d="M219.7,633.6c5.8,0,11.1,0,16.7,0c0.6-2.7,1.2-5.5,2-9.1
	c-2.3-0.2-4.3-0.9-6.2-0.4c-2.9,0.7-5.5,1.2-8.4-0.1c-1.1-0.5-2.5-0.3-4.1-0.4C219.7,627.1,219.7,630.3,219.7,633.6z"/>
<path fill-rule="evenodd" clip-rule="evenodd" fill="#FFFFFF" d="M270.8,576.5c-3,0.9-5.2,1.9-7.6,2.2c-2.4,0.3-5,0.1-8.6,0.1
	c2.3,2,3.6,3.4,5.1,4.5c2.2,1.5,5,1.9,6.4,4.9c0.9,1.9,3.3,1.2,4.6,0c0-2.1,0-3.8,0-5.5C270.8,580.7,270.8,578.8,270.8,576.5z"/>
<path fill-rule="evenodd" clip-rule="evenodd" fill="#FFFFFF" d="M295.3,582.8c-6.7-5.1-16.4-7.6-20.3-5.7c2.1,2.4,4.2,4.9,6.4,7.4
	C285.7,584,289.9,583.5,295.3,582.8z"/>
<path fill-rule="evenodd" clip-rule="evenodd" fill="#FFFFFF" d="M242.9,666.9c0.3-0.3,0.6-0.6,0.9-0.9c-1.4-2.7-2.7-5.3-4.4-8.5
	c-2.8,0.7-5.8,1.5-8.8,2.2c0,0.5-0.1,1-0.1,1.5C234.4,663.7,238.8,664.9,242.9,666.9z"/>
<path fill-rule="evenodd" clip-rule="evenodd" fill="#FFFFFF" d="M366.8,1108.7c-0.2,0-0.3,0.1-0.5,0.1c1.4,5.5,1.9,11.6,4.5,16.5
	c3.6,6.6,9.5,11.7,15.9,15.5c6.9,4.1,14.2,7.5,21.6,10.7c2.5,1.1,5.6,0.9,8.4,1.2c1.5,0.1,3,0.2,4.4,0c3.8-0.7,7.6,0.6,11.2,0.3
	c7.2-0.8,14-3.4,21.4-3.7c1.8-0.1,3.6-1.3,5.2-2.2c4.7-2.7,7.6-7.3,11.4-11.1c6.8-6.8,8-15.4,7.2-23.9c-0.6-6.7-3.1-13.8-6.7-19.5
	c-5.3-8.6-10.3-17.8-20.6-22.3c-5.4-2.4-10.2-5.8-16.5-4.2c-1.5,0.4-3.1,0.4-4.6,0.1c-4.2-0.9-8,0.4-11.9,1.4
	c-2.4,0.6-4.9,1.6-7.3,1.5c-10.7-0.2-19.3,5.3-27.6,10.9c-9.4,6.4-12.5,17.1-15.5,27.5C366.9,1107.9,366.9,1108.3,366.8,1108.7z"/>
<path fill-rule="evenodd" clip-rule="evenodd" fill="#FFFFFF" d="M378.7,1044c0.4-0.8,0.9-1.4,0.9-1.9c-0.5-4.9-1.3-9.7-1.7-14.6
	c-0.4-6-2.8-11.6-2.3-17.9c0.6-7.4-1-14.9-1.7-22.6c-2,0.4-3.9,0.7-5.7,1.1c-2.6,0.5-4.3,2.4-4.4,4.7c-0.1,5.5,0.3,11,0.8,16.5
	c0.4,4.1,3.5,7.7,1.5,12.2c-1.9,4.5,3.7,7.9,2.3,12.5c-0.1,0.4-0.1,0.8,0,1.2c0.5,3,1,6,1.5,8.9C373.2,1044,376,1044,378.7,1044z"/>
<path fill-rule="evenodd" clip-rule="evenodd" fill="#FFFFFF" d="M332.7,1127c-5.6,2.2-10.8,4.7-16.2,6.1
	c-5.4,1.4-11.2,0.3-16.3,2.7c0.4,2.4,0.7,4.4,1.1,6.7c11.2,0.2,22.1-2.8,33.3-3.9C334,1134.8,333.4,1131.3,332.7,1127z"/>
<path fill-rule="evenodd" clip-rule="evenodd" fill="#FFFFFF" d="M363.5,1163.8c3.6-6,6.9-11.8,12.8-16.1c-1.9-1.7-3.6-3.5-5.5-5
	c-3.2-2.6-5.7-2.2-7.9,1.2c-0.6,0.9-1.2,2.8-1.6,2.7c-4.5-0.8-4.9,3.5-7,5.6c-1.6,1.6-1,3.5,0.3,4.7
	C357.5,1159.4,360.7,1161.7,363.5,1163.8z"/>
<path fill-rule="evenodd" clip-rule="evenodd" fill="#FFFFFF" d="M343.9,1125.9c1.4,6.6,0.9,13.1,4.6,19.4c4.8-3.6,9.3-6.9,13.2-9.9
	c-2.4-4.2-4.7-8.2-7.2-12.6C350.7,1121.3,348.2,1125.8,343.9,1125.9z"/>
<path fill-rule="evenodd" clip-rule="evenodd" fill="#FFFFFF" d="M383.7,1152.3c-6.2,3.5-8.3,9.4-11.5,16.2
	c6.6-1.1,11.8-0.1,17.3,1.5c2-4,3.7-7.5,5.7-11.4C391.1,1156.3,387.6,1154.4,383.7,1152.3z"/>
<path fill-rule="evenodd" clip-rule="evenodd" fill="#FFFFFF" d="M358.6,1094.7c1-5,7-9,1.3-14.1c-7,2.5-9.4,7.8-10.1,14.6
	C352.8,1095,355.5,1094.9,358.6,1094.7z"/>
<path fill-rule="evenodd" clip-rule="evenodd" fill="#FFFFFF" d="M401.8,1172.1c4.1,0,8,0,12.1,0c1.1-2.5,2-4.7,3.1-7.3
	c-4.2-0.5-8.2-1.1-12.2-1.6c-1.1,2.3-2.1,4.4-3.1,6.4C401.5,1170,401.7,1170.4,401.8,1172.1z"/>
<path fill-rule="evenodd" clip-rule="evenodd" fill="#FFFFFF" d="M354.3,1104.8c-8.7-0.7-9.7,0.3-8.7,8.8c2.8-0.1,5.5-0.3,8.7-0.4
	C354.3,1110.1,354.3,1107.4,354.3,1104.8z"/>
<path fill-rule="evenodd" clip-rule="evenodd" fill="#FFFFFF" d="M446.3,1163.9c-0.1-0.4-0.2-0.7-0.2-1.1c-1.1,0-2.2-0.1-3.2,0
	c-3.2,0.5-6.3,1.2-9.5,1.5c-6.1,0.6-6.1,0.5-7.9,7.1c7-0.1,11.7-6.4,18.5-6.2C444.7,1165.3,445.5,1164.4,446.3,1163.9z"/>
<path fill-rule="evenodd" clip-rule="evenodd" fill="#FFFFFF" d="M860.3,906.3c-1.1,0.4-2.7,1-4.4,1.5c-1.2,0.3-2.6,0.6-3.9,0.5
	c-3.6-0.3-6.5-3.5-10.4-2.1c-2.6-2.5-5.8-1.5-8.8-1.4c-3.2,0.1-6.4,0.7-9.5,1.3c-2.2,0.4-4.5,1.1-6.6,2c-2.8,1.1-5.4,2.6-8.3,3.5
	c-8,2.5-15.4,6.1-21.3,12.2c-4.2,4.4-8.4,9-9.7,15.4c-0.6,3-1.1,6-1.8,9.6c2.5,5.7,8.2,9.9,12.7,14.9c4.3,4.9,9.9,9.4,17.1,10.6
	c2.8,0.5,5.7,1.4,8.1,2.8c7.7,4.1,16.1,5.7,24.5,6.5c7.7,0.7,15.7,2.5,22.7-3.7c4.6-4.1,8.9-8.1,11.1-14.1
	c2.2-5.9,4.1-11.8,5.1-18.1c0.9-6.1,2-12.2,1.3-18.3c-0.8-6.6-2.8-12.6-9.6-16C865.8,911.7,863.5,908.9,860.3,906.3z"/>
<path fill-rule="evenodd" clip-rule="evenodd" fill="#FFFFFF" d="M871.8,799.4c-2.7,4.7-5.1,8.8-7.5,12.9c-1.9,3.3-3.9,6.5-5.9,9.7
	c-2.2,3.6-4.9,6.9-6.6,10.7c-2.1,4.7-3.7,9.6-7,13.8c-2.5,3.1-1.3,5.5,2.6,6.6c1.3,0.3,2.5,0.9,3.7,1.4c4,1.5,6.5,0.3,7.9-3.8
	c0.5-1.6,0.8-3.6,1.9-4.7c5.3-4.9,7.3-11.9,11.4-17.6c3.9-5.4,6-12,11.7-16.1c0.7-0.5,0.9-1.7,1.3-2.7c-0.7-0.8-1.4-1.4-1.9-2.2
	c-0.5-0.8-0.9-1.7-1.2-2.6c-1.4-5.8-1.4-5.8-7.1-5.5C874.1,799.5,873,799.4,871.8,799.4z"/>
<path fill-rule="evenodd" clip-rule="evenodd" fill="#FFFFFF" d="M769.5,890.6c-6.9-4.9-13.1-9.4-19.2-13.8c-3,1.6-5.7,2.8-6.2,6
	c4.5,6.9,12.9,8.2,18.2,14C764.6,894.8,766.7,893,769.5,890.6z"/>
<path fill-rule="evenodd" clip-rule="evenodd" fill="#FFFFFF" d="M816.4,896.6c-1.5-4.5-2.7-8-4-11.6c-6.1,1.8-11.5,3.4-16.9,5
	c0.1,6.1,5.8,7.2,7.9,11.2C807.9,899.7,811.9,898.3,816.4,896.6z"/>
<path fill-rule="evenodd" clip-rule="evenodd" fill="#FFFFFF" d="M785.6,892.9c-3.2,2.1-6.7,4.6-10.8,7.3c3.1,4.4,6,8.6,8.9,12.8
	c3.3-2.8,6.2-5.4,8.8-7.7C790.4,901.2,788.2,897.3,785.6,892.9z"/>
<path fill-rule="evenodd" clip-rule="evenodd" fill="#FFFFFF" d="M761.1,919.9c3.7,1.8,7.2,3.5,10.9,5.3c2-3.4,3.6-6.3,5.4-9.4
	c-5.4-1-6.6-5.8-8.9-9.6C764.3,910,761.4,913.9,761.1,919.9z"/>
<path fill-rule="evenodd" clip-rule="evenodd" fill="#FFFFFF" d="M759.6,929c-0.5,1.6-1.2,3.1-1.2,4.5c0,3.7-1.2,7.7,1.9,10.9
	c2.7,2.7,5.2,5.5,8.2,8.6c-0.9-3.2-1.5-6.2-2.6-8.9c-1.6-4.2-1.7-8.1,2.4-11.6C765.1,931.2,762.4,930.1,759.6,929z"/>
<path fill-rule="evenodd" clip-rule="evenodd" fill="#FFFFFF" d="M843.7,893.2c0.5-7.7-1.9-9.5-8.3-6.8c-0.1,2-0.2,4-0.3,6.3
	C838,892.6,840.3,895.8,843.7,893.2z"/>
<path fill-rule="evenodd" clip-rule="evenodd" fill="#FFFFFF" d="M826.3,891.3c-2.1-1.8,0.1-4.7-3.1-6.9c0.5,3.9,0.9,6.9,1.4,10.3
	c1.7-0.4,3.1-0.7,4.5-1c0.1-0.3,0.1-0.7,0.2-1C828.1,892.2,827.1,891.7,826.3,891.3z"/>
<path fill-rule="evenodd" clip-rule="evenodd" fill="#FFFFFF" d="M854.9,892.9c-0.2,0.5-0.4,1-0.6,1.5c1,0.3,2,0.6,3,0.9
	c0.1-0.4,0.2-0.8,0.4-1.2C856.8,893.7,855.9,893.3,854.9,892.9z"/>
</svg>
