<?xml version="1.0" encoding="utf-8"?>
<!DOCTYPE svg PUBLIC "-//W3C//DTD SVG 1.1//EN" "http://www.w3.org/Graphics/SVG/1.1/DTD/svg11.dtd">
<svg artist="zl2017" version="1.1" id="zlIcon-dialog-users" xmlns="http://www.w3.org/2000/svg" xmlns:xlink="http://www.w3.org/1999/xlink" x="0px" y="0px"
	 width="1000px" height="675.4px" viewBox="0 0 1000 675.4" enable-background="new 0 0 1000 675.4" xml:space="preserve">
<path fill-rule="evenodd" clip-rule="evenodd" d="M0.5,453c1.5-22.3,3.6-48.4,5-74.6c1.4-25.8,4.3-51.5,3-77.6
	c-0.8-16.7,1.9-33.6,2.8-50.5c0.7-11.7,1.3-23.4,1.5-35.1c0.3-18.6,3.1-36.6,9.6-54.1c3.5-9.5,6.9-19.3,8.9-29.2
	c2.9-14.5,9.1-27.4,16-40.2c5.5-10.3,11.1-20.6,16-31.2C70,46.1,81.3,38.3,96,34.4c22.8-6.1,46.2-7.8,69.6-9.2
	c9.3-0.6,18.5-2.7,27.8-3.8c5.8-0.7,11.7-0.7,17.6-1.3c23-2.5,45.9-5.6,68.9-7.7c11.7-1.1,23.6-1.7,35.2-0.4c17.7,2,34.9-0.9,52.4-2
	c0.8-0.1,1.5-0.4,2.3-0.4c18.7,0.3,37.4,0.7,56.1,1.1c4.7,0.1,9.5,0.6,14.1-0.1c24.4-3.5,48.6,0.6,72.8,1.3
	c19.1,0.5,38.2,0.6,57.2-1.9c1.2-0.2,2.4-0.8,3.5-0.5c17.4,4.7,35.1,0.5,52.6,1c13.5,0.4,27-2.1,40.5-2.7c9.7-0.4,19.4,0.3,29,0.2
	c32.4-0.5,64.8-0.7,97.2-2c19.2-0.7,38.2-3.4,57.4-4.9c19.9-1.6,39.5-1.9,59.4,2.5c15.7,3.5,31.2,7,46.5,12.2
	c23.4,7.9,36,22.3,38.1,46.6c2,23,4.7,45.9,5.3,69c0.6,21.1-1.3,42.2-2,63.4c-0.3,7.1-0.5,14.1-0.8,21.2
	c-0.9,25.9-1.8,51.7-2.5,77.6c-0.5,16.7-1.9,33.5-0.9,50.2c1,16.2-1,32-2.8,47.9c-1.4,12.8-0.7,25.9-2,38.7
	c-1.7,17.9-5.4,35.7-6.4,53.6c-0.8,15.1-4.6,29.1-8.7,43.4c-4.6,16.3-14.9,26.5-29.4,33.1c-17.9,8.3-36.6,13.2-56.5,14.5
	c-26.6,1.8-53,5.3-79.8,5.5c-36,0.3-71.9,2.4-107.8,4.6c-22.3,1.3-44.4,4.7-66.6,6.3c-17.6,1.3-35.2,1.6-52.8,2.2
	c-8.2,0.3-16.5-0.1-24.7,0.7c-11.4,1-20.5,7.2-28.6,14.9c-17.1,16.2-26.4,36.8-32.4,59c-1,3.9-2.1,7.4-6,7.2
	c-2.3-0.1-5.6-3.2-6.4-5.6c-4.7-14.4-13.4-26.6-21.1-39.3c-5.3-8.8-13-15-22.5-18c-8.5-2.6-17.6-4.4-26.5-4.6
	c-20.7-0.5-41.3-1.3-62,1.8c-15.5,2.3-31.3,1.6-46.9,2.9c-10.5,0.9-20.9,3.5-31.4,4.3c-24.2,2-48.4,4.1-72.6,4.7
	c-20.3,0.5-40.7-1.7-61.1-1.8c-29.9-0.2-58.5-7-85.9-17.7c-27.4-10.7-44.7-31-46.5-62C4.1,512.4,2.4,484.7,0.5,453z M488.9,651.1
	c2.1-4.4,4.4-8.1,5.6-12.1c5.2-16.3,16.4-28.5,27.8-40.3c14.4-15,33.7-17.7,53.1-18.4c25.1-0.8,50.3-0.4,75.4-1
	c12.9-0.3,25.8-1.6,38.7-2.5c21.9-1.4,43.7-3,65.6-4.2c15.2-0.8,30.5-0.2,45.7-1.4c25.3-2,50.6-5.2,75.9-7.5
	c16.1-1.5,31.3-5.7,46.4-11.4c27-10.3,40.3-31.1,45.1-58.1c3.3-18,5-36.3,7.7-54.5c3.1-21.4,4.4-42.8,4-64.5
	c-0.3-15.2-0.6-30.6,1.2-45.6c2.5-19.9,4.7-39.7,2.2-59.7c-0.3-2.3-0.2-4.7-0.1-7.1c0.5-19,1.5-38.1,1.4-57.1
	c-0.2-28.1-1.3-56.3-1.9-84.4c-0.1-2.7,0-5.5-0.1-8.2c-0.6-17.2-0.7-34.4-1.9-51.6c-1.2-17.8-11.5-29.3-27.7-36.1
	c-22.7-9.6-46.3-10.9-70.5-9c-17.6,1.4-35.2,2.1-52.9,2c-23.9-0.1-47.8-1.5-71.8-1.9c-9.8-0.2-19.6,1.1-29.4,1.1
	c-14.4,0-28.9-1.1-43.3-0.7c-33.7,0.9-67.4,2.9-101.2,3.5c-36.1,0.6-72.3,0.2-108.4,0c-16.4-0.1-32.9-1.4-49.3-1.4
	c-16.8,0-33.5,1-50.3,1.4c-40.8,1.1-81.6,1.5-122.3,3.5c-17.5,0.9-34.8,5-52.2,7.8c-20.9,3.4-41.7,7.2-62.6,10.7
	c-21.9,3.7-43.2,8.8-59.2,25.6c-5.4,5.6-9.8,12.2-14.6,18.4c-13.7,18-17.4,40-24,60.8c-7.6,24-10.9,48.9-13.9,73.8
	c-2.2,18.6-3.6,37.4-4.7,56.1c-0.5,8.9,1.9,18.1,0.7,26.9c-2.4,18.3-0.5,36.6-3.2,55.1c-3,20.3-1.1,41.3-1.8,62
	c-0.9,29.5,1.6,58.8,6.5,87.8c4.8,28.2,15,54.3,34.1,76.4c4.9,5.6,10.6,9.1,17.4,11.3c29.7,9.6,60.3,13,91.4,14.3
	c5.1,0.2,10.1,1.8,15.1,1.7c16.3-0.5,32.7-1,48.9-2.4c19-1.6,38-4.5,57-6.2c21-1.9,42.1-3.3,63.2-4.7c9.8-0.6,19.7,0.1,29.4-1.3
	c17.3-2.4,34.3-0.5,51.3,2.2c15.1,2.4,27.3,9.1,36.1,21.8C475,631.1,481.4,640.3,488.9,651.1z"/>
<path fill-rule="evenodd" clip-rule="evenodd" fill="#FFFFFF" d="M488.9,651.1c-7.5-10.8-13.9-20-20.3-29.2
	c-8.8-12.6-21.1-19.4-36.1-21.8c-17-2.7-34-4.6-51.3-2.2c-9.7,1.3-19.6,0.6-29.4,1.3c-21.1,1.4-42.1,2.8-63.2,4.7
	c-19,1.7-38,4.6-57,6.2c-16.3,1.4-32.6,1.9-48.9,2.4c-5,0.1-10.1-1.5-15.1-1.7c-31-1.3-61.7-4.7-91.4-14.3
	c-6.8-2.2-12.6-5.7-17.4-11.3c-19.1-22.1-29.3-48.2-34.1-76.4c-4.9-29-7.4-58.3-6.5-87.8c0.6-20.7-1.3-41.7,1.8-62
	c2.7-18.4,0.8-36.8,3.2-55.1c1.2-8.8-1.2-18-0.7-26.9c1.1-18.7,2.4-37.5,4.7-56.1c3-24.9,6.3-49.8,13.9-73.8
	c6.6-20.8,10.4-42.8,24-60.8c4.7-6.2,9.2-12.8,14.6-18.4c16.1-16.8,37.3-22,59.2-25.6c20.9-3.5,41.7-7.3,62.6-10.7
	c17.4-2.9,34.7-7,52.2-7.8c40.7-2,81.5-2.4,122.3-3.5c16.8-0.4,33.5-1.4,50.3-1.4c16.4,0,32.8,1.3,49.3,1.4
	c36.1,0.3,72.3,0.6,108.4,0c33.7-0.6,67.4-2.6,101.2-3.5c14.4-0.4,28.9,0.7,43.3,0.7c9.8,0,19.6-1.2,29.4-1.1
	c23.9,0.4,47.8,1.8,71.8,1.9c17.6,0.1,35.3-0.6,52.9-2c24.2-1.9,47.8-0.6,70.5,9c16.2,6.9,26.5,18.3,27.7,36.1
	c1.2,17.2,1.4,34.4,1.9,51.6c0.1,2.7,0,5.5,0.1,8.2c0.7,28.1,1.7,56.3,1.9,84.4c0.1,19-0.9,38.1-1.4,57.1c-0.1,2.4-0.2,4.7,0.1,7.1
	c2.6,20,0.3,39.8-2.2,59.7c-1.9,15-1.5,30.4-1.2,45.6c0.4,21.6-0.9,43.1-4,64.5c-2.6,18.2-4.4,36.5-7.7,54.5
	c-4.9,27-18.1,47.8-45.1,58.1c-15.1,5.7-30.3,10-46.4,11.4c-25.3,2.3-50.5,5.5-75.9,7.5c-15.2,1.2-30.5,0.7-45.7,1.4
	c-21.9,1.1-43.8,2.7-65.6,4.2c-12.9,0.8-25.8,2.2-38.7,2.5c-25.1,0.6-50.3,0.2-75.4,1c-19.4,0.6-38.7,3.4-53.1,18.4
	c-11.4,11.9-22.5,24.1-27.8,40.3C493.2,643,491,646.7,488.9,651.1z"/>
<g>
	<path fill-rule="evenodd" clip-rule="evenodd" d="M794.1,460.2c-0.6,9.2,5.2,15.8,7.5,23.6c0.5,1.8,2.8,3.5,2.7,5.1
		c-0.2,2.8-1.6,5.4-2.5,8.2c-2.4-0.9-4.9-1.4-7.1-2.7c-1.2-0.7-1.9-2.5-2.5-3.9c-0.7-1.4-0.9-3.1-1.6-4.4c-15.9-29.4-13.6-29-50-23
		c3.1,15.6,11,29.5,16.7,44.4c-6.8,3.2-9.7,1.6-12.8-4.2c-6.3-11.7-14.1-22.6-21.1-33.9c-4.2-6.6-9.9-7.4-17.3-6.5
		c-24.9,3.3-49.9,4.7-75.1,2c-19.5-2.1-39.1-3.2-58.6-5.2c-8.9-0.9-17.8-2.4-26.5-4.6c-9.7-2.5-12.4-8.5-9.5-18.5
		c0.5-1.9,0.8-3.8,1-5.7c1.7-15,2.8-30.2,5.3-45.1c1.7-10,5.9-19.5,8.1-29.4c7.4-32.7,23.3-61.4,41.1-89.3c0.6-1,1-2.1,0.9-1.9
		c-4-11.3-7.9-21.5-11.1-31.9c-6.4-20.9-0.4-40.6,8.1-59.3c9.3-20.5,22.8-38.1,41.8-51.2c23.6-16.3,48.2-19.2,74.9-9.3
		c12.9,4.8,25.4,9.9,36.8,18c15.8,11.2,26.1,25.9,32.1,43.8c4,12.1,1.1,24.1-1.2,36c-1.4,6.9-3.9,13.6-5.8,20.4
		c-3.1,11.2-3,11.2,7.4,15.7c10,4.4,20.2,8.1,29.3,14.6c17.1,12.2,32.3,26.3,44.9,42.9c18.4,24.5,36.3,49.4,44,79.9
		c4.5,17.8,11.3,35,12.4,53.5c0.5,7.8-1.2,10.4-8,11.2c-21.3,2.8-42.6,6-64,8.4c-11.3,1.3-22.7,1.2-34.1,1.8
		C798.2,459.8,796.3,460,794.1,460.2z M748.3,260.1c-1.3,0.9-2.1,1.3-2.6,1.9c-23.7,29.6-55.1,37.3-90.7,30.6
		c-11.4-2.1-22.4-6.7-33.3-10.9c-4.8-1.8-8.5-2.5-13.1,0.6c-20.8,13.8-34.5,32.4-42.2,56.2c-10.2,31.6-15.2,63.9-16.6,97
		c-0.4,8.5,1.1,10.1,10.6,11.9c26.9,4.9,53.9,10,81.4,10c16.9,0,33.8,0.1,50.6-0.7c22.3-0.9,44.5-3.2,66.8-3.8
		c30.5-0.8,61.1-0.9,91.4-5.3c14.2-2.1,28.3-5.2,43.6-8.1c-0.8-8.9-0.5-16.8-2.4-24.2c-8.2-32.5-20.2-63.4-39.4-91.2
		c-14.5-21.1-32.4-37.8-55.6-49.4C781.5,266.9,765.1,263.8,748.3,260.1z M759.7,196.7c-0.9-6.5-0.3-11.8-2.4-15.7
		c-9-16.9-17.7-34.3-34.3-45.4c-25.6-17.1-52.8-21.2-81.1-7.7c-11.4,5.4-20,14.9-27.7,25c-14.9,19.4-20.5,42-22.7,65.8
		c-1.6,17.3,4,31.9,18.2,42.1c8.5,6.1,17.9,11.4,27.5,15.7c23.7,10.6,47.6,10.3,71.6,0.2c26-11,39.7-31.6,46.9-57.6
		C757.9,211.3,758.6,203.1,759.7,196.7z"/>
	<path fill-rule="evenodd" clip-rule="evenodd" fill="#FFFFFF" d="M748.3,260.1c16.8,3.6,33.1,6.8,48.5,14.5
		c23.1,11.6,41.1,28.3,55.6,49.4c19.2,27.9,31.2,58.7,39.4,91.2c1.9,7.4,1.6,15.3,2.4,24.2c-15.3,2.9-29.3,6-43.6,8.1
		c-30.3,4.4-60.9,4.5-91.4,5.3c-22.3,0.6-44.5,2.9-66.8,3.8c-16.9,0.7-33.8,0.7-50.6,0.7c-27.5-0.1-54.5-5.1-81.4-10
		c-9.5-1.7-10.9-3.4-10.6-11.9c1.4-33,6.3-65.4,16.6-97c7.7-23.8,21.4-42.4,42.2-56.2c4.6-3.1,8.3-2.4,13.1-0.6
		c10.9,4.1,21.9,8.8,33.3,10.9c35.7,6.6,67-1,90.7-30.6C746.2,261.4,747,261.1,748.3,260.1z"/>
	<path fill-rule="evenodd" clip-rule="evenodd" fill="#FFFFFF" d="M759.7,196.7c-1.1,6.4-1.9,14.6-4.1,22.4
		c-7.2,26-20.9,46.7-46.9,57.6c-24.1,10.1-48,10.4-71.6-0.2c-9.6-4.3-18.9-9.6-27.5-15.7c-14.2-10.2-19.8-24.8-18.2-42.1
		c2.2-23.7,7.9-46.3,22.7-65.8c7.7-10.1,16.3-19.6,27.7-25c28.3-13.5,55.5-9.4,81.1,7.7c16.6,11.1,25.3,28.5,34.3,45.4
		C759.4,184.9,758.8,190.2,759.7,196.7z M684.9,208c0.3-4.8-4.1-9.4-9.5-9.9c-5-0.5-11.1,4.5-11.4,9.3c-0.3,4.2,4.2,8.8,8.8,9.2
		C678,217.1,684.6,212.3,684.9,208z M643.2,203.7c-1.9-1.4-4.5-4.5-7.7-5.3c-4.8-1.1-11.1,5.2-10.9,10.1c0.2,4.7,3.5,6.9,7.6,7.7
		C636.5,217,643,210.4,643.2,203.7z"/>
	<path fill-rule="evenodd" clip-rule="evenodd" d="M684.9,208c-0.3,4.4-6.9,9.2-12.1,8.7c-4.6-0.4-9-5.1-8.8-9.2
		c0.3-4.8,6.4-9.8,11.4-9.3C680.8,198.6,685.2,203.2,684.9,208z"/>
	<path fill-rule="evenodd" clip-rule="evenodd" d="M643.2,203.7c-0.2,6.7-6.8,13.3-11,12.5c-4-0.8-7.4-2.9-7.6-7.7
		c-0.2-4.9,6.1-11.2,10.9-10.1C638.7,199.2,641.3,202.3,643.2,203.7z"/>
</g>
<g>
	<path fill-rule="evenodd" clip-rule="evenodd" d="M446.8,458.5c-3.9,6.1-9.3,8.4-14.7,8.1c-15.3-0.9-29.2,4.9-43.8,7.4
		c-16,2.8-32,5.9-48.1,8.7c-11.1,1.9-22.3,3.4-34.1,5.2c-1.9,8.9-4,17.6-5.5,26.4c-0.7,4.1-2.3,7.4-6.5,6.2c-2-0.6-4-4.3-4.5-6.9
		c-1.4-7.3-2.1-14.7-3.2-23.6c-6.7-0.1-13.6-0.4-20.5-0.3c-6.6,0.1-13.3,0.6-20.1,0.9c-5.5,7.2-3.6,15.6-4.2,23.6
		c-0.3,4.6,4,11.9-3.3,13c-8.5,1.3-5.5-7.7-7.3-12.1c-1.9-4.6-2.3-9.9-3.3-14.9c-1.9-9.2-3.9-11.2-13.1-12.1
		c-18.7-1.9-37.4-3.3-56-5.7c-12-1.6-24-4-35.6-7.4c-12.5-3.7-14.7-6.4-13.2-19.8c2.5-22.1,5.5-44.2,12.1-65.7
		c10.6-34.8,26.5-67.2,46.9-97c7.4-10.7,7.4-18.7,3.8-30.6c-10.9-36.7-5.5-71,18.7-101.9c10.4-13.2,23-21.9,39.7-24.5
		c10.8-1.7,21.6-4.1,32.5-4.7c34-1.8,60.7,12.8,81.1,39c4.8,6.2,7.6,14.7,9.5,22.5c2.7,11.4,4.2,23.1,5.3,34.8
		c1.5,14.8-3.9,28.5-8.6,41.3c11.3,11.8,22.4,23.3,33.3,35c22.1,23.8,35.1,52.7,45.9,82.7c2.6,7.4,5.5,14.8,7.1,22.4
		C440.7,425.5,443.7,442.4,446.8,458.5z M196.4,296.2c-6.6,4-13.6,6.7-18.4,11.5c-15.9,16-28,34.7-37.2,55.3
		c-10.1,22.9-13.3,47.5-17.2,71.8c-1.4,8.8-1.2,17.9-1.8,26.9c-0.3,4.3,1.9,6.6,5.9,7.4c8.4,1.7,16.8,3.7,25.3,4.8
		c19.4,2.4,38.9,4.2,58.3,6.5c24.2,2.8,48.4,2.9,72.7,0.6c9.2-0.8,18.7-0.3,27.8-1.8c28.2-4.7,56.3-9.9,84.3-15.5
		c9.1-1.8,18.1-5.2,26.6-9.1c10-4.7,11.5-8.4,9.3-18.6c-2.5-11.4-6.1-22.6-8.2-34.1c-3.6-19.1-11.1-36.5-20.2-53.4
		c-10.2-19.2-22.4-36.7-40-50.1c-12.4-9.5-26.4-9.5-37.5,0.9c-17.6,16.5-39,23.4-62.4,22.6C239.1,321.1,216.9,312.4,196.4,296.2z
		 M350.2,225.8c1-10-2-22.1-5.5-34.3c-2.1-7.3-4.4-14.2-9.7-19.8c-8.9-9.4-17.9-18.9-30.3-23.8c-8-3.1-16.5-4.8-24.7-7.4
		c-22.9-7.3-44.1-1.4-64.6,8.4c-4.5,2.1-8.6,5.7-12,9.4c-24.5,27-31.9,58.2-24.1,93.8c3.2,14.5,9.1,26.8,20.9,35.6
		c8.1,6.1,16.7,12.1,26.1,15.8c32.1,12.5,63.7,16,92.3-9.6C338.2,276.3,351.2,255.9,350.2,225.8z"/>
	<path fill-rule="evenodd" clip-rule="evenodd" fill="#FFFFFF" d="M196.4,296.2c20.5,16.2,42.7,24.8,67.2,25.7
		c23.5,0.8,44.8-6.1,62.4-22.6c11.1-10.4,25.1-10.4,37.5-0.9c17.6,13.4,29.8,30.9,40,50.1c9.1,16.9,16.6,34.4,20.2,53.4
		c2.1,11.5,5.8,22.7,8.2,34.1c2.2,10.2,0.7,13.9-9.3,18.6c-8.4,3.9-17.5,7.3-26.6,9.1c-28,5.7-56.1,10.8-84.3,15.5
		c-9.1,1.5-18.5,0.9-27.8,1.8c-24.3,2.2-48.5,2.2-72.7-0.6c-19.4-2.3-38.9-4.1-58.3-6.5c-8.5-1.1-16.9-3.1-25.3-4.8
		c-4-0.8-6.2-3-5.9-7.4c0.6-9,0.4-18,1.8-26.9c3.9-24.4,7.1-49,17.2-71.8c9.1-20.6,21.3-39.3,37.2-55.3
		C182.7,302.9,189.7,300.3,196.4,296.2z"/>
	<path fill-rule="evenodd" clip-rule="evenodd" fill="#FFFFFF" d="M350.2,225.8c1,30.1-12,50.5-31.6,68.1
		c-28.5,25.7-60.1,22.1-92.3,9.6c-9.3-3.6-18-9.7-26.1-15.8c-11.7-8.8-17.7-21.1-20.9-35.6c-7.9-35.6-0.4-66.8,24.1-93.8
		c3.4-3.7,7.5-7.2,12-9.4c20.5-9.8,41.7-15.7,64.6-8.4c8.2,2.6,16.7,4.3,24.7,7.4c12.4,4.8,21.4,14.3,30.3,23.8
		c5.3,5.6,7.6,12.5,9.7,19.8C348.2,203.7,351.2,215.8,350.2,225.8z M288.5,233.2c6.4,0.1,11.3-3,11.7-7.5c0.3-4-5.2-10.5-9.2-10.9
		c-4.4-0.4-11.3,5.6-11.5,9.8C279.3,229.6,283,233.1,288.5,233.2z M255.7,226.5c0.1-4-4.8-9-9-9.3c-4.1-0.3-7.4,3.4-7.7,8.4
		c-0.3,5.3,2.5,9,6.8,8.9C250.8,234.5,255.7,230.5,255.7,226.5z"/>
	<path fill-rule="evenodd" clip-rule="evenodd" d="M288.5,233.2c-5.5-0.1-9.2-3.6-9-8.5c0.2-4.3,7.1-10.2,11.5-9.8
		c4,0.3,9.5,6.8,9.2,10.9C299.9,230.2,294.9,233.3,288.5,233.2z"/>
	<path fill-rule="evenodd" clip-rule="evenodd" d="M255.7,226.5c-0.1,4.1-4.9,8-9.9,8.1c-4.3,0-7-3.6-6.8-8.9c0.3-5,3.6-8.7,7.7-8.4
		C251,217.5,255.8,222.5,255.7,226.5z"/>
</g>
</svg>
