<?xml version="1.0" encoding="utf-8"?>
<!DOCTYPE svg PUBLIC "-//W3C//DTD SVG 1.1//EN" "http://www.w3.org/Graphics/SVG/1.1/DTD/svg11.dtd">
<svg artist="zl2017" version="1.1" id="zlIcon-doctor-ambulance-car" xmlns="http://www.w3.org/2000/svg" xmlns:xlink="http://www.w3.org/1999/xlink" x="0px" y="0px"
	 width="1000px" height="868px" viewBox="0 0 1000 868" enable-background="new 0 0 1000 868" xml:space="preserve">
<path fill-rule="evenodd" clip-rule="evenodd" d="M234.1,734.3c-15.3,1.1-27,2.4-38.8,2.7c-46,1.2-88.4-9.7-126.8-36.1
	c-15.4-10.5-33.2-17.6-48.4-28.2c-7.5-5.2-11.7-15-19.6-25.8c15.9-8.7,28.8-15.8,45.6-25.1c4-24.1,10.3-50.9,12.6-77.9
	c5.4-63.3,8.9-126.8,13.1-190.2c0.2-3.4-1.3-7.2-0.2-10.2c19.5-57.8,42.6-113.4,101.9-142.2c44.9-21.8,91.5-39.3,140.9-49.1
	c74.1-14.7,148-31.1,217.9-45.9c23.8-18.5,33.6-39,33.5-64.7c0-6.8,1.6-13.7,3.6-20.3C573.1,8.7,582,0.1,595.4,0.2
	C614,0.5,632.6,3,650.8,4.5c20.7,31.9-4.2,72.9,32.1,100.9c3.9,0.5,14.2,1.5,24.3,3.1c26.4,4.3,49.4,15.7,66.7,36.2
	c51,60.5,102,121,131.3,196.1c7.5,19.2,14.8,38.7,24.7,56.7c24.3,43.9,38.9,91.7,57.2,138c6.8,17.2,8.4,36.5,11.7,55
	c4.3,24.5-9.2,39.7-29.5,48.7c-15.6,6.9-32.6,10.8-49,16c-9.6,3.1-19.3,6.1-28,8.8c-0.6,5.4-2.4,9.4-1,11.3
	c20.6,29.3,15.8,56.8-1.5,86.5c-27.1,46.6-65.7,73.6-118.9,80.6c-56.3,7.4-95.5-18-112.8-73.8c-1.5-4.8-3.3-9.6-5.5-15.8
	c-28.7-12-57,4.4-85.6,3.1c-29.1-1.4-58.3-0.3-89.7-0.3c-5.2,12.6-9.4,23.3-13.9,33.9c-7.6,17.5-17.6,32.6-32.1,46
	c-39,36.1-80.6,41.1-128.2,19.1c-32.9-15.2-46.9-43.9-58.8-74.5C239.3,767.5,238.2,753.4,234.1,734.3z M911.3,429.1
	c-9.4-23.7-19.9-47.1-28-71.2c-24.5-73.7-72.9-131.8-121.1-190.4c-20.1-24.4-45.6-35.3-76.2-37.1c-51.5-3-102.5-3.1-153.9,6.9
	c-106.3,20.7-213,39.1-316.2,72.7c-14.4,4.7-30.3,10.2-41.1,20.1c-47.2,43.4-80.1,93.9-75,162.4c1.6,22-1.3,44.5-3.9,66.6
	c-7.2,61.3-17.3,122.3-16,184.5c0.6,30.2,14.1,48.3,41.8,57.6c37.5,12.6,75.8,19.8,115.6,21.4c4.8-6.8,9.9-11.9,12.3-18
	c13.5-33.4,41.9-48,73-60.6c55.1-22.4,110.6,0.9,139,62.3c5,10.7,9.4,21.7,13.7,31.5c54.9,5,122.7-1.6,181.8-17.5
	c3.7-10.6,8.3-21.7,11.6-33.2c19.8-69.6,112.7-92.2,161.4-66.8c9.1,4.8,18.2,9.7,27.2,14.7c14.4,7.9,29.4,9,45,4.4
	c13.2-3.9,26.3-7.9,39.4-12.2c11.5-3.8,22.9-8,27.5-21.1c4.8-13.8,4.6-26.7-8.2-39.6c-33.8,4.7-61.8-9.5-85.5-34.7
	c-18.8-19.9-21.2-38.1-4.4-59.4C882.8,457.8,896.6,444.9,911.3,429.1z M802.5,665.8c-38.1-0.3-65.7,18.2-80,53.2
	c-5.6,13.6-5.3,26.5,1.8,39.5c14,25.4,38.3,40.3,62.7,36c31.9-5.7,56.9-19.4,69.3-53.1C869.8,704.7,835.8,664.2,802.5,665.8z
	 M360.4,682.3c-32.6,0.9-66.7,22.8-74.1,47.2c-8.8,28.8-0.7,54.7,25.5,71.6c33.2,21.4,48.1,19.4,75-0.2c6.9-5,13.6-10.5,19.5-16.7
	c17.6-18.5,20.7-46,8.6-71.7C403.8,689.2,383.2,683,360.4,682.3z M888,493.2c6.1,25.1,18.6,36,34.5,43.3c11.1,5,22.6,6.6,33.2-7.4
	c-10.8-21.9-12.3-49.6-35.5-70.4C908.1,471.7,898,482.5,888,493.2z M626.4,75.5c2.3-7,5-13.2,6.1-19.6c0.8-4.8,0.3-10.2-0.9-15
	c-2.7-11-13.9-17.7-27.6-17.4c-10.1,0.2-15.7,6.3-17.2,15.2c-1.9,11.1-2,22.4-3.2,36.8C599.8,75.5,612.4,75.5,626.4,75.5z"/>
<path fill-rule="evenodd" clip-rule="evenodd" fill="#FFFFFF" d="M911.3,429.1c-14.7,15.7-28.4,28.6-40,43.3
	c-16.8,21.3-14.4,39.5,4.4,59.4c23.7,25.2,51.7,39.4,85.5,34.7c12.8,12.9,13,25.8,8.2,39.6c-4.6,13.1-16,17.3-27.5,21.1
	c-13,4.3-26.2,8.3-39.4,12.2c-15.5,4.6-30.6,3.6-45-4.4c-9-5-18.1-9.9-27.2-14.7c-48.7-25.4-141.5-2.8-161.4,66.8
	c-3.3,11.5-7.9,22.6-11.6,33.2c-59.2,15.9-127,22.5-181.8,17.5c-4.2-9.8-8.7-20.8-13.7-31.5c-28.4-61.4-83.9-84.6-139-62.3
	c-31,12.6-59.4,27.2-73,60.6c-2.5,6.1-7.6,11.2-12.3,18c-39.8-1.6-78.1-8.9-115.6-21.4c-27.7-9.3-41.2-27.4-41.8-57.6
	c-1.3-62.2,8.8-123.1,16-184.5c2.6-22.1,5.6-44.6,3.9-66.6c-5.1-68.5,27.8-119,75-162.4c10.8-9.9,26.6-15.4,41.1-20.1
	c103.2-33.7,209.9-52,316.2-72.7c51.4-10,102.4-9.9,153.9-6.9c30.6,1.7,56.1,12.7,76.2,37.1c48.1,58.6,96.5,116.7,121.1,190.4
	C891.3,382.1,901.9,405.4,911.3,429.1z M573.5,226.8c0,25.5-0.6,47.7,0.2,69.8c0.4,11.9,1.8,24.1,5.3,35.4
	c6.5,21.2,18.8,28.6,42.2,29c15.3,0.3,30.7,1.7,46,2c36,0.7,72,2.6,108,1.3c34-1.3,44-20.2,30.5-52.6c-8-18.9-15.9-37.9-24.4-56.6
	c-16.2-35.6-41.4-57.5-83.3-56.5C656.5,199.7,616.6,206.1,573.5,226.8z M255.4,509.9c21.2-2.1,43-4.4,67-6.8
	c3.6,17.7,7.2,35.4,11,54.4c31.2,1.5,59.3,6.6,89.8,1.7c0-21,0-38.9,0-59.7c20.2-1.5,38.3-2.8,58-4.3c8.8-27.7,0.5-53-0.9-80.1
	c-11.9,0-20.3-0.2-28.7,0c-22.8,0.7-34.3-11.9-39.4-32.6c-3.2-12.8-6.5-25.6-10-39c-26.9-1.1-50-1-71.5,5.8
	c-6.6,21.6,2.3,43.8-13.1,62.7c-11.2,1.2-23,2.1-34.7,3.9c-11.5,1.8-22.8,4.6-39.1,8C246.6,453,231.8,481.2,255.4,509.9z"/>
<path fill-rule="evenodd" clip-rule="evenodd" fill="#FFFFFF" d="M802.5,665.8c33.3-1.7,67.3,38.8,53.7,75.6
	c-12.4,33.7-37.4,47.4-69.3,53.1c-24.4,4.3-48.7-10.6-62.7-36c-7.1-13-7.4-25.8-1.8-39.5C736.8,684.1,764.4,665.5,802.5,665.8z
	 M765.9,728.5c10.9,7.6,16.7,14.3,23.7,15.9c11.1,2.5,21-7.7,19.2-17.7c-1.9-10.7-10.9-13.6-19.3-12
	C782.7,715.9,776.8,721.9,765.9,728.5z"/>
<path fill-rule="evenodd" clip-rule="evenodd" fill="#FFFFFF" d="M360.4,682.3c22.8,0.7,43.4,6.9,54.4,30.2
	c12.2,25.7,9,53.2-8.6,71.7c-5.9,6.2-12.6,11.6-19.5,16.7c-26.8,19.6-41.8,21.6-75,0.2c-26.1-16.9-34.2-42.8-25.5-71.6
	C293.8,705.1,327.8,683.2,360.4,682.3z M330.7,755.5c5.6,3.9,12.3,11.2,20.5,13.7c11,3.3,20.8-5.2,21.5-15.5
	c0.8-11.3-7.1-22.4-15.8-22.3C344.3,731.6,331.7,741.1,330.7,755.5z"/>
<path fill-rule="evenodd" clip-rule="evenodd" fill="#FFFFFF" d="M888,493.2c10-10.7,20.1-21.5,32.2-34.6
	c23.2,20.9,24.7,48.5,35.5,70.4c-10.6,14-22.1,12.4-33.2,7.4C906.6,529.2,894.1,518.3,888,493.2z"/>
<path fill-rule="evenodd" clip-rule="evenodd" fill="#FFFFFF" d="M626.4,75.5c-13.9,0-26.6,0-42.8,0c1.2-14.4,1.3-25.8,3.2-36.8
	c1.5-8.9,7.1-15,17.2-15.2c13.8-0.3,25,6.5,27.6,17.4c1.2,4.8,1.7,10.2,0.9,15C631.4,62.3,628.7,68.5,626.4,75.5z"/>
<path fill-rule="evenodd" clip-rule="evenodd" d="M573.5,226.8c43.1-20.8,83-27.1,124.5-28.2c41.9-1,67.1,20.8,83.3,56.5
	c8.5,18.7,16.5,37.6,24.4,56.6c13.6,32.3,3.6,51.3-30.5,52.6c-35.9,1.3-72-0.5-108-1.3c-15.3-0.3-30.7-1.7-46-2
	c-23.4-0.4-35.8-7.8-42.2-29c-3.5-11.3-4.8-23.5-5.3-35.4C572.9,274.5,573.5,252.3,573.5,226.8z M620.6,235.8
	c-14.7,50.5-14.4,54.1,6.5,97.2c42.4,11.1,86.6,13.6,131.2,9.9c7.6-0.6,14.8-5.1,23.7-8.4c-9.2-34.9-22.5-63.7-42.8-89.8
	c-11.7-15-26.4-22.3-44.6-20.3C669.2,227.2,644.2,232.1,620.6,235.8z"/>
<path fill-rule="evenodd" clip-rule="evenodd" d="M255.4,509.9c-23.7-28.7-8.8-56.9-11.5-85.8c16.3-3.4,27.6-6.2,39.1-8
	c11.7-1.8,23.5-2.7,34.7-3.9c15.5-18.9,6.5-41,13.1-62.7c21.5-6.8,44.6-6.9,71.5-5.8c3.4,13.4,6.8,26.1,10,39
	c5.1,20.7,16.6,33.3,39.4,32.6c8.4-0.3,16.8,0,28.7,0c1.4,27.1,9.7,52.4,0.9,80.1c-19.7,1.4-37.9,2.8-58,4.3c0,20.8,0,38.7,0,59.7
	c-30.6,4.9-58.7-0.2-89.8-1.7c-3.9-19-7.5-36.7-11-54.4C298.4,505.5,276.7,507.8,255.4,509.9z M347.4,427.2
	c-23.9,2.9-42.4,4.5-60.8,7.5c-15.8,2.7-22.7,11.3-22.4,28.8c0.1,7.6,4.3,15.2,6.7,23.1c11.2-0.6,19.8-0.3,28.2-1.7
	c48.6-7.7,48-6,49.1,42c0.1,2.8,3.6,5.4,6.3,9.3c15.4,3.4,31.6,9.4,49.8-1.1c0-16.8,0-33.5,0-53c19.7-1.5,37.7-2.9,58.3-4.5
	c-0.7-14.3-1.2-25.7-1.7-35.8c-5.2-2.6-8.1-5.1-11-5.3c-31.9-1.5-50.4-17-55-49.4c-1.1-7.9-6.2-15.1-9.1-22
	c-32.9,4.2-36.2,6.2-38.2,25.8C346.6,401.1,347.4,411.3,347.4,427.2z"/>
<path fill-rule="evenodd" clip-rule="evenodd" d="M765.9,728.5c10.8-6.7,16.8-12.6,23.6-13.9c8.3-1.6,17.3,1.3,19.3,12
	c1.8,10-8.1,20.3-19.2,17.7C782.7,742.8,776.9,736.2,765.9,728.5z"/>
<path fill-rule="evenodd" clip-rule="evenodd" d="M330.7,755.5c1-14.3,13.6-23.9,26.2-24.1c8.7-0.1,16.6,10.9,15.8,22.3
	c-0.7,10.3-10.5,18.8-21.5,15.5C343.1,766.7,336.3,759.3,330.7,755.5z"/>
<path fill-rule="evenodd" clip-rule="evenodd" fill="#FFFFFF" d="M620.6,235.8c23.6-3.7,48.7-8.5,73.9-11.4
	c18.1-2,32.8,5.2,44.6,20.3c20.3,26,33.6,54.9,42.8,89.8c-8.8,3.3-16.1,7.8-23.7,8.4c-44.6,3.7-88.8,1.2-131.2-9.9
	C606.2,289.9,605.9,286.3,620.6,235.8z"/>
<path fill-rule="evenodd" clip-rule="evenodd" fill="#FFFFFF" d="M347.4,427.2c0-15.9-0.9-26.1,0.2-36c2.1-19.6,5.3-21.5,38.2-25.8
	c2.9,6.8,8,14.1,9.1,22c4.5,32.3,23,47.9,55,49.4c3,0.1,5.8,2.7,11,5.3c0.5,10.1,1,21.4,1.7,35.8c-20.6,1.6-38.6,3-58.3,4.5
	c0,19.5,0,36.2,0,53c-18.2,10.5-34.4,4.5-49.8,1.1c-2.7-3.8-6.2-6.5-6.3-9.3c-1.1-48-0.5-49.7-49.1-42c-8.4,1.3-17,1-28.2,1.7
	c-2.4-7.9-6.5-15.5-6.7-23.1c-0.3-17.5,6.5-26.1,22.4-28.8C305,431.7,323.6,430.1,347.4,427.2z"/>
</svg>
