<?xml version="1.0" encoding="utf-8"?>
<!DOCTYPE svg PUBLIC "-//W3C//DTD SVG 1.1//EN" "http://www.w3.org/Graphics/SVG/1.1/DTD/svg11.dtd">
<svg artist="zl2017" version="1.1" id="zlIcon-draw-sheep-street" xmlns="http://www.w3.org/2000/svg" xmlns:xlink="http://www.w3.org/1999/xlink" x="0px" y="0px"
	 width="1000px" height="802.7px" viewBox="0 0 1000 802.7" enable-background="new 0 0 1000 802.7" xml:space="preserve">
<path fill-rule="evenodd" clip-rule="evenodd" fill="#FFFFFF" d="M282.6,321.6c-3.8-1.3-6.6-2.3-9.6-3.2c-2.7-0.8-5.5-1.8-8.2-1.9
	c-4.3-0.1-8,1.6-9.6,6.1c-1.4,4.1-3.1,8.2-4.1,12.4c-3,12.4-4.3,13.7-16.9,14.8c-3.7,0.3-7.6,0.4-11.2-0.4
	c-6.3-1.4-12.3-4.4-14.4-10.9c-3.5-10.7-1.8-20.9,5.2-30c7.8-10.1,19-14.9,30.1-20.2c7.3-3.4,12.9-2,18.2,2.3
	c7.1,5.7,14.5,10.8,21.9,16c6.1,4.2,10.5,4.1,16.3,1.8c8.8-3.5,17.6-6.7,27.3-6.1c2.2,0.1,4.5-1.7,6.7-2.6
	c10.5-4.1,20.9-8.9,32.7-5.4c3.6,1.1,7.3,2.1,11,2.6c2.2,0.3,4.5-0.4,8-0.8c-2.2-3.4-3.3-5.6-4.9-7.4c-5-5.6-10.1-11.1-15.4-16.5
	c-4.8-4.9-9.4-10.4-15.2-13.9c-11.8-7.2-23.7-14.7-36.6-19.2c-10.1-3.5-20.5-7.9-32-6.9c-3.9,0.3-8-1.5-11.9-2.5
	c-8.5-2.3-16.8-4.8-25.3-7c-2.7-0.7-5.7-1.2-8.3-0.8c-8.6,1.4-17.4,2.5-25.6,5.2c-9.2,3-17.7,8.1-26.8,11.4
	c-15.7,5.7-25.3,18.7-36.6,29.6c-5.6,5.4-10.8,11.4-16.4,16.9c-5.8,5.6-12.6,10.4-17.7,16.6c-7.1,8.7-13.3,18.2-19.5,27.6
	c-2.4,3.6-3.4,8.1-5.6,11.9c-5.4,9.2-11.4,18-16.8,27.2c-2.3,4-3.9,8.5-5.6,12.8c-1.6,4-2.9,8.2-4.5,12.1
	c-4.1,9.8-8.6,19.4-12.3,29.3c-3.8,10.2-7.3,20.6-10.3,31.1c-3.6,12.5-6.7,25.3-10,37.9c-0.1,0.3,0,0.6,0,0.9
	c-1,6.5-1.7,13.1-3.2,19.4c-2,8.3-3.3,16.4-1.2,25.1c1.1,4.7,0.9,10.2-0.2,14.9c-3.7,16.4-5.4,33-5.6,49.8
	c-0.1,5.9-1.4,11.8-1.7,17.8c-0.8,15.6,6.8,29.6,8.3,45c2.3,0.2,3.8,0.5,5.3,0.5c1.9-0.1,3.7-0.4,5.6-0.8
	c21.8-5.2,44.1-5.6,66.2-7.9c11.2-1.2,22.5-1.6,33.7-2.8c27.1-2.9,54.2-6.3,81.3-9.1c6.8-0.7,13.7,0.4,20.5-0.4
	c13.1-1.4,26-3.9,39.1-5.3c18.9-2.1,37.9-3.8,56.8-5.3c18.7-1.5,37.5-2.5,56.2-3.8c4-0.3,8.2-0.9,12-2c12.3-3.6,24.7-7.4,36.9-11.4
	c7.3-2.4,9.5-6.5,7.7-14.5c-1.6-7.3-4.3-14.3-6.1-21.6c-5.3-20.3-10.5-40.6-15.4-61.1c-3.3-13.6-5.9-27.4-8.9-41
	c-0.6-2.8-1.1-5.5-1.5-8.3c-2.3-14.8-4.4-29.7-6.8-44.5c-0.4-2.2-1.2-4.4-2.1-7.4c-4.1,3.7-7.7,6.2-10.4,9.5
	c-12.3,15-28.5,22.7-47.2,20.1c-26-3.7-44.2-19.8-56.3-42.8c-3.5-6.6-7-13.3-10.5-19.9c-2.9-5.5-7.7-10.8-8.4-16.6
	c-1.4-11.1-1.4-22.6,4.5-33.1C279.5,331.3,280.6,326.9,282.6,321.6z"/>
<path fill-rule="evenodd" clip-rule="evenodd" fill="#FFFFFF" d="M435.4,521.7c2.9,0.3,3.8,0.5,4.7,0.4c1.2-0.1,2.5-0.4,3.6-0.8
	c16.5-6.7,33-13.5,50.8-16.4c6.3-1,8.3-4.2,8-10.7c-0.2-4.4-1-8.7-1.5-13c-1.5-15.2-8.8-29.3-8.6-44.9c0-3.5-2-7-3.5-11.6
	c-10.8,2.2-21.1,4.4-31.4,6.4c-6.1,1.2-12.2,1.7-18.2,3.1c-6.5,1.5-13.7-1.4-20.7,3.3C425.4,465.3,427.5,494,435.4,521.7z"/>
<path fill-rule="evenodd" clip-rule="evenodd" fill="#FFFFFF" d="M319.6,391.4c1.7-0.3,4.9-0.3,7.7-1.4
	c18.9-7.6,30.3-21.6,33.7-41.7c0.5-3,0.2-6.4-0.8-9.2c-4.4-13-18.5-26.2-35.1-27.3c-10.3-0.7-18.7,4.5-27.7,7.7
	c-5.3,1.9-8.8,5.6-11.7,10.3c-4.8,8-6.3,16.5-6.9,25.9c-0.5,8.8,2.2,14.9,9.3,19.5c1.5,1,3.1,2.2,4.1,3.6
	C298.5,387.9,307.6,391,319.6,391.4z"/>
<path fill-rule="evenodd" clip-rule="evenodd" fill="#FFFFFF" d="M356.7,379.3c5.6,9,6.3,9.9,19.1,13.3c7.7,2.1,16.3,4.9,23.8,1.1
	c6.5-3.2,13.5-7.8,17.2-13.7c5.8-9.5,9.7-20.5,8.2-32.2c-2-15.6-11.1-26.4-25.3-32.2c-13.4-5.6-27.2-5.7-41,1.4
	c3.3,11,10.7,19.8,9.7,31.7C367.5,360.3,362.8,369.8,356.7,379.3z"/>
<path fill-rule="evenodd" clip-rule="evenodd" fill="#FFFFFF" d="M521,396.6c-2.4,5.3-12,6.2-7.5,16.6c4.6-3.9,10.4,3.9,15.5-3.4
	C525.6,406.1,528.3,399.2,521,396.6z"/>
<path fill-rule="evenodd" clip-rule="evenodd" d="M485,415.8c-0.4-11.1,5.5-17.3,13.2-22.3c5.3-3.4,10.8-6.4,16.4-9.2
	c7.3-3.7,15.2-0.4,17.7,7.4c0.9,2.7,2,5.5,1.8,8.2c-1,11.4,4.7,21.3,6.5,32.1c0.2,1.2,0.6,2.5,1.3,3.5c11.2,16,11.7,35.5,17.7,53.1
	c2.4,7-0.1,12.1-5.4,15.5c-10.3,6.6-20.9,12.8-31.8,18.2c-8.1,4-14.5,0.7-18.1-7.6c-0.6-1.4-1.2-2.8-2-4.5
	c-20.2,3.2-39.3,8.4-56.3,19.9c-5.2,3.5-6,6.7-4,12.8c4.9,14.9,10.5,29.5,14.3,44.7c2.8,11.4,4.6,23-0.7,35
	c-3.7,8.6-9.8,12.2-17.5,13.7c-14.1,2.8-28.2,6.2-42.5,6.8c-26.2,1.3-51.9,7.7-79.1,6.9c-5.5,11.9-10.9,23.6-16.5,35.3
	c-1.9,3.9-3.6,8.2-6.3,11.4c-4,4.7-8.4,3.3-10.1-2.7c-3-10.5-5.7-21.2-8.9-31.7c-2.2-7.3-5.5-9.4-12.5-9.5
	c-21.6-0.3-43.1,1.5-64.6,2.9c-4.4,0.3-6.9,2-8.8,5.7c-6.5,12.5-13.1,25-19.9,37.3c-1.9,3.5-4.8,6.4-8.2,10.8
	c-9.6-15.2-10.1-31.5-12.4-47.6c-12.6-0.5-24.3,0.1-36.1,1.9c-10.8,1.7-21.8,2.4-32.7,3.6c-14.6,1.5-29.3,3-43.9,4.4
	c-5.6,0.5-11.3,1.4-16.9,1.1c-8.9-0.4-12.5-4.8-13.4-13.6c-1-10.2-2.5-20.4-3.9-30.6c-0.2-1.9-1-3.7-1-5.5c0.3-19-1.1-38.1,4.5-56.8
	c2.3-7.7,2.1-16.1,3.3-24.2c2.2-14.9,4.2-29.8,6.8-44.5c1.4-8,4.4-15.7,6.3-23.6c5.8-24.2,14.7-47.2,24.4-70.1
	c8.8-20.7,16.3-41.9,24.7-62.8c1.5-3.7,4.2-6.9,6.6-10.1c3.3-4.6,6.7-9,10-13.5c7.5-10.1,14.4-20.5,22.5-30
	c4.5-5.3,11.3-8.5,16.5-13.4c6.8-6.3,14.9-12,14.6-23.4c9.6,2.6,15.4-2.4,21-7.3c6.6-5.9,13.8-10.7,22.1-14.1
	c11-4.4,20.8-11.7,32.9-13.6c3.1-0.5,6.1-1.2,9.2-1.6c2.8-0.4,5.9,0.3,8.4-0.7c12.3-5.1,24.8-2.2,37.2-1.1c11.3,1,21.7,4.6,32.4,8.6
	c19.6,7.4,36.8,19,54.5,29.6c4.7,2.8,8.2,7.7,12,11.8c11.1,12,21.6,24.4,29.9,38.6c6.7,11.5,25,16,35.1,3.2
	c2.9-3.7,5.9-7.4,8.1-11.5c4.5-8.2,10.6-11.9,20.1-9.5c6,1.5,12.6,1.5,18.3,3.7c11.7,4.6,18.7,13.4,19.2,26.4
	c0.2,5.2,0.6,10.6-0.2,15.7c-0.6,3.5-2.7,7-5,9.8c-2.9,3.6-7,4.2-11,1.6c-3.4-2.2-6.7-4.8-9.7-7.4c-11.5-9.9-24.5-14.9-39.8-13.2
	c-8.4,0.9-10,3.1-6,10.9c3.1,6.2,4.8,12.5,3.7,19.1c-1.8,10.5-2.6,21.5-8.7,30.5c-8.1,12-6.1,25.3-6.1,38.3c0,4.7,3.3,6.1,7.6,6.5
	c15.9,1.7,31.3-0.2,46.4-5.1C476.1,418.9,480.2,417.5,485,415.8z M282.6,321.6c-3.8-1.3-6.6-2.3-9.6-3.2c-2.7-0.8-5.5-1.8-8.2-1.9
	c-4.3-0.1-8,1.6-9.6,6.1c-1.4,4.1-3.1,8.2-4.1,12.4c-3,12.4-4.3,13.7-16.9,14.8c-3.7,0.3-7.6,0.4-11.2-0.4
	c-6.3-1.4-12.3-4.4-14.4-10.9c-3.5-10.7-1.8-20.9,5.2-30c7.8-10.1,19-14.9,30.1-20.2c7.3-3.4,12.9-2,18.2,2.3
	c7.1,5.7,14.5,10.8,21.9,16c6.1,4.2,10.5,4.1,16.3,1.8c8.8-3.5,17.6-6.7,27.3-6.1c2.2,0.1,4.5-1.7,6.7-2.6
	c10.5-4.1,20.9-8.9,32.7-5.4c3.6,1.1,7.3,2.1,11,2.6c2.2,0.3,4.5-0.4,8-0.8c-2.2-3.4-3.3-5.6-4.9-7.4c-5-5.6-10.1-11.1-15.4-16.5
	c-4.8-4.9-9.4-10.4-15.2-13.9c-11.8-7.2-23.7-14.7-36.6-19.2c-10.1-3.5-20.5-7.9-32-6.9c-3.9,0.3-8-1.5-11.9-2.5
	c-8.5-2.3-16.8-4.8-25.3-7c-2.7-0.7-5.7-1.2-8.3-0.8c-8.6,1.4-17.4,2.5-25.6,5.2c-9.2,3-17.7,8.1-26.8,11.4
	c-15.7,5.7-25.3,18.7-36.6,29.6c-5.6,5.4-10.8,11.4-16.4,16.9c-5.8,5.6-12.6,10.4-17.7,16.6c-7.1,8.7-13.3,18.2-19.5,27.6
	c-2.4,3.6-3.4,8.1-5.6,11.9c-5.4,9.2-11.4,18-16.8,27.2c-2.3,4-3.9,8.5-5.6,12.8c-1.6,4-2.9,8.2-4.5,12.1
	c-4.1,9.8-8.6,19.4-12.3,29.3c-3.8,10.2-7.3,20.6-10.3,31.1c-3.6,12.5-6.7,25.3-10,37.9c-0.1,0.3,0,0.6,0,0.9
	c-1,6.5-1.7,13.1-3.2,19.4c-2,8.3-3.3,16.4-1.2,25.1c1.1,4.7,0.9,10.2-0.2,14.9c-3.7,16.4-5.4,33-5.6,49.8
	c-0.1,5.9-1.4,11.8-1.7,17.8c-0.8,15.6,6.8,29.6,8.3,45c2.3,0.2,3.8,0.5,5.3,0.5c1.9-0.1,3.7-0.4,5.6-0.8
	c21.8-5.2,44.1-5.6,66.2-7.9c11.2-1.2,22.5-1.6,33.7-2.8c27.1-2.9,54.2-6.3,81.3-9.1c6.8-0.7,13.7,0.4,20.5-0.4
	c13.1-1.4,26-3.9,39.1-5.3c18.9-2.1,37.9-3.8,56.8-5.3c18.7-1.5,37.5-2.5,56.2-3.8c4-0.3,8.2-0.9,12-2c12.3-3.6,24.7-7.4,36.9-11.4
	c7.3-2.4,9.5-6.5,7.7-14.5c-1.6-7.3-4.3-14.3-6.1-21.6c-5.3-20.3-10.5-40.6-15.4-61.1c-3.3-13.6-5.9-27.4-8.9-41
	c-0.6-2.8-1.1-5.5-1.5-8.3c-2.3-14.8-4.4-29.7-6.8-44.5c-0.4-2.2-1.2-4.4-2.1-7.4c-4.1,3.7-7.7,6.2-10.4,9.5
	c-12.3,15-28.5,22.7-47.2,20.1c-26-3.7-44.2-19.8-56.3-42.8c-3.5-6.6-7-13.3-10.5-19.9c-2.9-5.5-7.7-10.8-8.4-16.6
	c-1.4-11.1-1.4-22.6,4.5-33.1C279.5,331.3,280.6,326.9,282.6,321.6z M435.4,521.7c2.9,0.3,3.8,0.5,4.7,0.4c1.2-0.1,2.5-0.4,3.6-0.8
	c16.5-6.7,33-13.5,50.8-16.4c6.3-1,8.3-4.2,8-10.7c-0.2-4.4-1-8.7-1.5-13c-1.5-15.2-8.8-29.3-8.6-44.9c0-3.5-2-7-3.5-11.6
	c-10.8,2.2-21.1,4.4-31.4,6.4c-6.1,1.2-12.2,1.7-18.2,3.1c-6.5,1.5-13.7-1.4-20.7,3.3C425.4,465.3,427.5,494,435.4,521.7z
	 M319.6,391.4c1.7-0.3,4.9-0.3,7.7-1.4c18.9-7.6,30.3-21.6,33.7-41.7c0.5-3,0.2-6.4-0.8-9.2c-4.4-13-18.5-26.2-35.1-27.3
	c-10.3-0.7-18.7,4.5-27.7,7.7c-5.3,1.9-8.8,5.6-11.7,10.3c-4.8,8-6.3,16.5-6.9,25.9c-0.5,8.8,2.2,14.9,9.3,19.5
	c1.5,1,3.1,2.2,4.1,3.6C298.5,387.9,307.6,391,319.6,391.4z M356.7,379.3c5.6,9,6.3,9.9,19.1,13.3c7.7,2.1,16.3,4.9,23.8,1.1
	c6.5-3.2,13.5-7.8,17.2-13.7c5.8-9.5,9.7-20.5,8.2-32.2c-2-15.6-11.1-26.4-25.3-32.2c-13.4-5.6-27.2-5.7-41,1.4
	c3.3,11,10.7,19.8,9.7,31.7C367.5,360.3,362.8,369.8,356.7,379.3z M521,396.6c-2.4,5.3-12,6.2-7.5,16.6c4.6-3.9,10.4,3.9,15.5-3.4
	C525.6,406.1,528.3,399.2,521,396.6z"/>
<path fill-rule="evenodd" clip-rule="evenodd" d="M626.8,340.6c-10.8-5-12.7-10.8-11-19.9c2.4-12.1,10.2-19.6,18.8-26.9
	c2.1-1.8,4.8-3.5,2.6-7.3c-6.1-1.4-12.4-3.5-18.8-4.3c-8.9-1.2-15.3,4.4-21.9,9.3c-3,2.2-5.8,4.8-8.7,7.2
	c-6.7,5.6-13.5,3.3-20.2-0.1c-6.7-3.4-7.7-9.7-6.8-16.2c2.7-17.8,10.6-31.8,28.5-38.7c7-2.7,13.3-7,20.3-9.7
	c21.1-8,24.9-3.2,31.1,17.2c3.1,10.2,3.7,21.4,11.3,30.8c4.2-1.4,8-2.5,11.8-3.9c8.8-3.4,17.4-7.2,26.3-10.1c3.7-1.2,8.1-1.6,12-1.1
	c11.8,1.6,23.6,3.2,35.2,5.9c7.8,1.9,15,6.6,22.8,8.3c14.7,3.2,23.9,14.6,35.4,22.3c6.3,4.2,11.1,10.8,16.1,16.7
	c2.5,3,4.8,3.9,8,1.7c2.9-1.9,5.5-4.1,8.5-6c14.6-9.2,28.9-18.8,43.9-27.4c11.4-6.5,16-4.7,20.1,7.9c3.9,12.2,6.6,24.8,9.1,37.3
	c1.4,6.7,1.5,13.7,1.9,20.5c0.1,2.1-0.3,4.5-1.1,6.4c-2.7,6.1-7.2,6.8-11.3,1.4c-7.8-10.3-17.5-17.9-29.3-23.1
	c-6.8-3-13.8-4.1-21.1-3.6c-6.3,0.4-7.8,2.5-6.4,8.5c0.5,2.1,1.1,4.4,2.2,6.2c5,8.1,3.9,17.6,6,26.4c0.2,1-0.3,2.6-1,3.4
	c-5.7,6.7-4.9,15.2-6.7,23c-4.2,18.5-7.6,37-24.1,50.2c-14.5,11.5-28.4,23.8-44.4,33.1c-16.8,9.8-34.3,17.8-54.5,19.1
	c-13.5,0.8-26.8,2.1-40.3,0.1c-11.8-1.8-22.2-7.5-29-16.1c-6-7.5-9.1-17.9-11.4-27.5c-3-13.1-4.1-26.6-5.9-39.9
	c-0.4-3.1-0.9-6.2-1.2-9.3c-0.5-5.7,2.5-8.5,7.9-7.1c3,0.8,5.8,2.3,8.5,3.9c13.2,8.3,27.8,11.1,43.1,10.1c3.3-0.2,6.9-2.6,9.6-4.9
	c4.9-4.3,10.2-8.6,13.6-14.1c9.9-15.7,13.6-32.6,8.9-51.3c-3.9-15.4-24.9-36.1-43.3-34.9c-7.5,0.5-15.1-0.5-22.6-0.4
	c-10.8,0.2-16.2,3.9-20,17.3C628.7,334.1,627.8,337,626.8,340.6z M745.7,396.5c0.4,17.8,6.6,30.6,24.5,37.2
	c24.1,8.8,49.8-2.1,56.7-27.3c3.6-13.1,2.3-25.7-7.9-35.5c-5.1-4.9-11.6-8.5-17.8-12.1c-11.8-6.8-23.9-8.7-36.3-1
	c-2.7,1.7-5.3,3.4-8.2,4.6c-3.6,1.4-5.8,3.8-6.5,7.4C748.6,378.6,747.2,387.6,745.7,396.5z"/>
<path fill-rule="evenodd" clip-rule="evenodd" d="M407.8,711.2c-0.3,7.8-0.1,15.3-2.9,23.1c-2.2,6.1-0.2,13.7-0.6,20.5
	c-0.4,6.5-0.8,13.2-2.6,19.4c-2.5,8.7-9.9,12-18.2,11.6c-8.7-0.4-17.4-1.8-26-3.1c-6.3-1-9.8-4.4-10.3-11.4
	c-0.4-5.6-1.7-11,0.5-16.6c0.8-2.2,0.5-5,0.3-7.5c-1-14.9-0.8-29.9-0.4-44.9c0.2-7.9,4.7-14.2,10.7-17.8c7.7-4.5,16.3-8,25.8-7.5
	c14.2,0.7,24.4,11.5,23.8,25.7C407.7,705.5,407.8,708.4,407.8,711.2z M357.9,700.6c4,1,8.3,1.9,12.4,3.2c8.8,2.7,16.7,0.4,24.2-4.2
	c5.1-3.1,5.1-6.9,0.1-9.8c-10.1-5.9-20.4-5.2-30.6-0.4C359.9,691.3,357,694.5,357.9,700.6z M356,712.5c-2.3,7.8,2.9,9.6,6.7,10.3
	c9.2,1.7,18.6,3,27.9,3.1c10,0.1,12.1-4,8.4-13.9c-7.1,0.7-14.3,2-21.4,2.1C370.5,714.2,363.4,713.1,356,712.5z"/>
<path fill-rule="evenodd" clip-rule="evenodd" d="M497.7,242.7c-2.2,0.2-4.5,1-6.5,0.6c-20.8-4.5-41.6-9.3-62.4-13.6
	c-8.9-1.8-18-2.6-26.9-4.1c-5.9-1-11.7-2.2-17.5-3.4c-4-0.8-7.9-1.8-11.8-2.9c-2.1-0.6-4.3-1.2-6-2.4c-1-0.7-2-2.7-1.7-3.8
	c0.3-1,2.3-2.3,3.4-2.2c4.9,0.4,9.7,1.3,14.6,2c4,0.6,8,1.1,13,1.8c1.5-6.9,2.9-13.2,4.2-19.5c1.4-7,2.9-14.1,4.1-21.2
	c2.6-15.1,5.1-30.2,7.3-45.4c1.3-9.2-0.9-11.5-10.1-13.1c-4.3-0.7-8.5-2.2-12.7-3.3c-13.3-3.5-26.6-7.3-39.9-10.5
	c-6.7-1.6-13.6-1.9-20.4-3.2c-9.8-1.8-19.6-3.9-29.4-6c-1.2-0.3-2.7-0.6-3.4-1.5c-1.5-1.9-3.7-4.2-3.4-6.1c0.2-1.7,3.1-3.3,5.1-4.6
	c0.9-0.6,2.4-0.4,4.4-0.7c4.1-12.9,8.7-25.9,12.3-39.2c2.2-8.1,2.5-16.7,3.9-25c0.6-4,1.4-8,2.8-11.8c0.6-1.6,2.9-2.5,4.4-3.7
	c0.6,0.3,1.3,0.6,1.9,0.9c-1.4,13.8-2.5,27.6-4.1,41.4c-1.6,14-3.7,27.9-5.6,42.5c11.3,2.7,22.4,5.3,33.5,8.1
	c10.6,2.7,21.5,4.7,31.7,8.5c10.3,3.9,21,2.9,31.5,4.6c11.3,1.8,22.9,2.4,33,8.6c-3.3,8.4-5.6,9.4-15.3,7.2c-3-0.7-5.9-1.4-9.9-2.3
	c-5,32.6-9.8,64.4-14.8,96.5c3.3,1.2,5.6,2.2,7.9,2.7c15,3.1,30.1,5.8,45.1,9C473.3,230.3,486.1,234,497.7,242.7z"/>
<path fill-rule="evenodd" clip-rule="evenodd" d="M609,502.5c5.4-4.6,10.1-2.5,14.4,0.1c15.8,9.6,32.2,18,49.2,25.3
	c3.4,1.5,6.6,3.6,10,5.1c12,5.3,24.1,10.5,36.2,15.6c8.1,3.4,16.3,6.4,24.4,9.7c1.4,0.6,2.7,1.6,3.7,2.8c2.3,2.7,1.2,6.1-2.3,6.1
	c-3.3,0-6.8-0.8-9.8-2c-14.8-6-29.4-12.3-45.5-19.2c-2.4,11.6-4.8,21.9-6.7,32.2c-1.7,9.2-2.8,18.6-4.2,27.9
	c-1.1,7.4-0.8,8.8,5.9,11.9c17,8,34.1,16,51.4,23.3c15.9,6.8,32,12.9,48.2,19c8.6,3.2,12.3,10,15.1,18.4c-5.7,3.3-10.7,2.9-15.4-1.2
	c-7.2-6.3-15.6-10.4-24.4-14c-1.7-0.7-3.5-1.1-6-2c-2.2,9.1-4.4,17.8-6.4,26.4c-0.3,1.2,0.1,2.6-0.3,3.7c-0.9,2.7-2.2,6-5.6,5
	c-1.8-0.5-3.8-3.5-3.9-5.4c-0.2-4.6,0.6-9.3,1.2-13.9c0.7-5.6,1.6-11.1,2.3-16.6c0.5-4.5-1.9-6.9-5.8-8.6
	c-14.2-5.9-28.4-11.7-42.4-17.9c-11.1-5-22-10.6-33-15.9c-4.5-2.2-9-4.1-13.5-6.2c-6-2.7-12-5.4-18-8.3c-2.9-1.4-5.4-3.5-3.3-8.5
	c13.5,1.2,25,9.8,38.3,13.2c7.1-6,8.3-14.8,9.9-22.7c2.8-14.1,4.4-28.4,6.6-43.4c-5.5-5.4-13.2-8.2-20.6-11.3
	c-13.3-5.6-26.6-11.2-39.9-16.9c-1.1-0.5-2.5-1-3.2-1.9C613.3,509.4,611.4,506.2,609,502.5z"/>
<path fill-rule="evenodd" clip-rule="evenodd" d="M928.6,206c13.7,2.8,25.9,5.3,38.1,7.6c8.6,1.6,17.3,3,25.9,4.4
	c3.6,0.6,7.1,1.3,6.8,6c-0.2,3-5.7,6.8-9.4,6c-13.2-2.6-26.6-4.2-39.1-9.5c-3.7-1.6-7-3.5-11.6-1.9c-2.5,0.9-6.2-0.4-9.1-1.6
	c-13.2-5.5-27.5-6.1-41.3-8.6c-0.6-0.1-1.3-0.1-1.9-0.3c-14.8-5.5-30.4-7.3-45.9-9.5c-10.6-1.5-21-3.2-31.1-7
	c-3.3-1.2-5.9-0.1-8.6,2.2c-6,4.9-10.3,10.8-12.4,18.4c-1.7,6-3.6,12-5.5,18c-1.5,4.9-3.7,9.2-10,10.2c-1.8-4.6-1.5-8.7,0-13
	c4-11.5,7.8-23.1,11.7-34.7c1.4-4.3,0.3-6.4-4.4-7.3c-23.3-4.7-46.6-9.3-69.9-13.9c-2.8-0.5-5.7-0.2-8.4-0.9
	c-3.1-0.7-6.1-2.1-9.3-3.3c1.9-6.5,6-6.5,10.1-5.7c22.1,4.5,44,9.4,66.1,13.8c18.4,3.6,37,6.5,55.5,9.8c9.9,1.8,19.7,3.9,29.5,5.8
	c18.1,3.5,36.3,6.9,54.4,10.5c4.1,0.8,5.9-1.2,7-4.4c5-14.8,9.9-29.7,15-44.5c2-5.8,3.3-12.2,10.7-14.6c3.2,4.4,3.5,8.8,1,13.3
	c-3.6,6.4-5.5,13.1-6.6,20.4c-1,6.5-3.8,12.6-5.3,19C929.7,195.3,929.4,199.9,928.6,206z"/>
<path fill-rule="evenodd" clip-rule="evenodd" d="M210.1,769c-0.8-6.2,1.1-10.1,7.4-12.4c9.3-3.5,18.3-8,27.4-12.2
	c2.2-1.1,4.1-2.9,6.2-4.2c11.2-6.9,22.3-13.9,33.8-20.4c3.4-1.9,7.8-2.2,11.8-2.7c1.6-0.2,4.1,0.5,5.1,1.7
	c4.1,5.1,8.4,10.2,11.5,15.9c3,5.4,2.2,10.5-2,16.3c-7.4,10.2-17.2,16.3-28.2,21.1c-7.2,3.1-13.9,6.4-19.6,12.4
	c-4.8,5-12,7.9-18.1,11.6c-2.1,1.3-4.4,2.5-6.5,3.8c-6.7,4-12.1,3.9-16.6-2C215.6,789.5,210.7,780,210.1,769z M243.9,786.4
	c3.2-0.3,4.9,0,6.1-0.7c11-6.4,12.9-10.5,8.1-24.2c-4.1-11.8-13.7-12.7-22-2.4C243.4,766.1,247.1,774.6,243.9,786.4z M238.7,780.9
	c-0.5-1.8-1-4.6-1.9-7.2c-2.6-8.2-9.4-10.9-16.4-6.4c-1.4,0.9-3.2,2.9-3,4.1c1.2,7.3,2,15.1,8.6,20.1c4.6,3.5,10.2,1.5,11.8-4
	C238.2,785.7,238.3,783.7,238.7,780.9z"/>
<path fill-rule="evenodd" clip-rule="evenodd" d="M558.1,407c-1.4-5.5,0.5-7.3,3.4-8.3c2.7-0.9,5.4-1.7,8.2-2.2
	c17.8-3.1,35.7-5.9,53.5-9.1c10.1-1.8,20.2-4.5,30.4-5.9c7.1-1,14.3-0.6,21.5-0.7c0.7,0,1.4,1,2.4,1.8c-13.6,2.6-26.8,5-40,7.6
	c-13.1,2.6-26.2,5.6-39.4,8C584.8,400.7,572,406.1,558.1,407z"/>
<path fill-rule="evenodd" clip-rule="evenodd" d="M648.5,344.8c1.9,7.9,2,8.2-3.4,9.7c-16.8,4.4-32.3,11.7-47.4,20.2
	c-11.4,6.5-23.7,11.4-35.6,17.1c-2.4,1.2-5.2,2.1-6.2-1.1c-0.4-1.3,1.4-4.2,2.9-5c7.5-3.9,15.3-7.3,23-10.9
	c19.3-9,38.7-18.1,58-27.1C642.6,346.5,645.6,345.8,648.5,344.8z"/>
<path fill-rule="evenodd" clip-rule="evenodd" d="M665.8,356.8c1.5,7.5,1.4,8.2-4.1,8.5c-13.5,0.6-25.6,5.9-37.8,10.9
	c-8.1,3.3-15.9,7.5-23.8,11.2c-2.8,1.3-6,3.6-7.9-0.7c-1.6-3.7,1.3-5.7,4.4-7c2.3-1,4.6-2.1,6.9-2.9c19.7-7.1,38.6-16.9,59.7-19.9
	C664,356.7,665,356.8,665.8,356.8z"/>
<path fill-rule="evenodd" clip-rule="evenodd" d="M696.6,569.2c7,5.3,0.1,11,3.2,16.1c0.7-1.6,1-3.3,1.9-4.4c0.9-1,2.5-1.3,3.8-2
	c0.7,1.5,2.3,3.2,2.1,4.5c-1,6.1-2.5,12.1-3.9,18.5c-3.7,0.4-7.6,0.7-11.8,1.1c-0.5-0.9-1.7-2-1.6-3c0.5-8.7,1.1-17.4,2.1-26.1
	C692.6,572.3,694.9,571,696.6,569.2z"/>
<path fill-rule="evenodd" clip-rule="evenodd" d="M942.1,194.5c-0.3-1.8-1.1-3.6-0.9-5.3c1.2-9.6,2.5-19.2,4.2-28.8
	c0.6-3.2,2.2-6.5,7.7-7.2c-0.6,5.4-1,10.1-1.7,14.8c-1,6.8-2.1,13.6-3.5,20.3c-0.5,2.4-2.1,4.6-3.2,6.9
	C943.8,195.1,943,194.8,942.1,194.5z"/>
<path fill-rule="evenodd" clip-rule="evenodd" d="M426.5,200.1c-3.9,0.2-5-2-4.8-5.3c0.4-6.8,0.6-13.7,1.3-20.5
	c0.3-3.1,1.1-6.2,2.4-9c0.5-1.2,2.7-1.7,5.3-3.3C429.2,175.6,427.9,187.8,426.5,200.1z"/>
<path fill-rule="evenodd" clip-rule="evenodd" d="M961.4,170.9c-2.4,7.5-2,14.9-8.3,20.7c-5-6.4-0.1-11.9,0.9-17.3
	C954.5,171.4,955.1,171.5,961.4,170.9z"/>
<path fill-rule="evenodd" clip-rule="evenodd" d="M434.8,194.8c-5.1-5.7-4.9-7.6,1.5-15.9C441.3,184.9,435.3,189.6,434.8,194.8z"/>
<path fill-rule="evenodd" clip-rule="evenodd" d="M332,48.6c0.8-5.2,1.3-8.5,2-13C337.5,41.2,337.5,41.2,332,48.6z"/>
<path fill-rule="evenodd" clip-rule="evenodd" d="M100,626.3c-12.4,0.5-16.2-2.4-18.8-14.4c-0.5-2.4-1.1-4.9-1.3-7.4
	c-1-12.1,3.3-18.8,14.5-23.5c2.9-1.2,5.5-3,8.3-4.2c8.7-3.6,9.3-10.7,8.6-18.7c-0.8-8.7-1.2-17.5-1.4-26.2
	c-0.2-6.1-2.3-10.9-10.1-10.4c-7.1,0.4-14.4-0.4-21.5-1.4c-4.8-0.7-8.3-3.9-10.5-8.5c-2.8-6.1-3.9-12.5-3.8-19.2
	c0.2-15.4-0.4-30.9,0.9-46.2c0.7-8.2,4.4-16.2,7.2-24.1c1.1-3,7.7-4.9,10.9-3.7c3.2,1.2,4.7,3.7,2.8,6.7
	c-6.7,10.8-6.4,23.4-9.5,35.1c-2.4,8.9-2.4,18.7-2,28c0.2,5.4,2.8,10.9,5.1,16c1.9,4.4,6.4,6.2,10.9,6c15.9-0.4,30.9,4.6,46.5,6.5
	c4.6,0.6,9.3,1.8,13.7,1.1c3.2-0.5,7.2-2.9,8.9-5.7c4.1-7,7-14.7,10.5-22c8.9-19,17.8-38,27-57c1.3-2.8,2.9-7.8,7.1-5.8
	c4.1,1.9,2.6,6.6,0.9,10c-3.8,7.6-7.6,15.1-11.8,22.5c-9.2,16.2-15.4,33.5-20.8,51.2c-2.9,9.4-6.4,17.9-18.2,18.6
	c-1.3,0.1-2.9,1.3-3.8,2.5c-4.9,6.4-9.7,12.9-14.4,19.5c-5.7,8-5.1,9.8-0.1,18.4c4.4,7.5,8,15.5,11,23.7c2.4,6.5,0.2,12.7-5.6,16.7
	C128.9,618.9,115.7,626,100,626.3z M116.8,578.8c-2.6,1-5.3,1.8-7.9,2.9c-3.3,1.3-3.8,4.1-3.1,7c2.1,8.4,4.4,16.8,6.7,25.6
	c8.5,0.8,15.3-3.5,21.8-8.4c2.9-2.2,4.4-5.4,3.3-9.2c-1.7-6-3.1-12.2-5.2-18.1c-2.1-5.7-5.9-6.9-11-3.9c-1.9,1.1-3.3,2.8-5,4.3
	L116.8,578.8z M96.7,593.6c-7.7,4.3-10.2,10.6-7.7,17.4c1.6,4.3,4.4,5.4,12,4.5C103.9,607.7,101.9,600.7,96.7,593.6z"/>
<path fill-rule="evenodd" clip-rule="evenodd" d="M306.9,567c-3.6,3.3-6.6,6.1-10.2,9.4c-2.1-3.1-3.4-5-4.8-7.1
	c-0.7,0.4-1.7,0.7-2.3,1.3c-1.5,1.6-2.4,4-4.2,5c-1.9,1.1-4.7,1.6-6.8,1.1c-3.1-0.9-2.8-3.7-1.5-6.2c3.1-5.6,1.7-10.6-1.2-16
	c-2-3.8-2.7-8.2-4.3-12.2c-0.9-2.2-1.9-4.7-3.6-6.3c-10.6-9.4-12.1-19.8-2.9-30.8c4.4-5.3,8.3-10.6,11.8-16.5
	c6-10.2,17-13.4,28-14.8c2.7-0.3,6.1,1.6,8.5,3.5c3.8,2.9,7.8,3.6,12.3,3.4c11.2-0.6,18,4.2,21.4,15c0.4,1.1,0.6,2.3,1.2,4.4
	c2.3-1.1,4.4-1.6,5.8-2.9c2.1-1.9,3.6-4.3,5.4-6.5c5.3-6.2,12.1-6.5,17.7-0.5c1.5,1.5,2.5,4.7,2,6.6c-0.6,1.9-3.2,4-5.3,4.4
	c-3.6,0.7-7.4,0.2-10.9,0.2c-3.2,3.9-2.1,7.1-0.1,10.7c6.9,12.5,3.7,23.2-8.7,29.9c-5.5,3-11,6-16.4,9.1c-5,2.9-7.8,7-7.7,13
	c0,5.5-0.5,11-0.9,17c-7.5,5.7-7.8,6.7-3.1,15.6c1.6,3,4,5.6,5.8,8.5c1.2,1.9,1.9,4.1,3.2,6.8c-6.2,1.6-9.9-0.8-12.5-4.4
	c-3.8-5.1-7.4-9-14.7-6.7c-3.1,1-5.2-2.3-3.7-5.4c1.1-2.2,2.9-4,4.6-5.9c2.3-2.5,4.7-4.9,7.1-7.4C309.6,577.9,309.6,577.9,306.9,567
	z M316,492.1c-1.1-1.4-2.8-4.1-5.1-5.9c-2.3-1.8-5.4-4.2-7.8-3.9c-4.8,0.6-9.6,2.5-14.2,4.5c-3.7,1.7-5.6,5.1-5.1,9.3
	c0.7,6.4-1.8,9.7-8.4,11c-5.5,1.1-8.6,9-7.2,15.6c1,4.5,5.1,7.7,10.3,7.9c7.5,0.3,8.7,2.1,5.3,8.7c-0.6,1.1-1.7,2-2.1,3.1
	c-2.4,6.7,1.4,12.2,8.8,13.1c3.4,0.4,7.5,2.4,9.9,1.2c2.6-1.4,3.6-5.8,5.4-8.8c0.1-0.2,0.6-0.2,1.9-0.7c0.6,1.7,1.6,3.5,1.9,5.3
	c0.8,5,4,6.9,8.5,7.2c4,0.3,6.5-2.1,7.8-5.6c1.2-3.1-1.3-7-5.9-9.5c-1.1-0.6-2.3-1-3.5-1.4c-5.1-1.9-7.4-5.7-6.8-11
	c0.7-6.4,1.6-12.8,2.4-19.3c-2.5-0.8-5.1-1.2-7.2-2.5c-1.9-1.2-4.7-4-4.3-4.9c1-2.2,3.8-5.5,5.4-5.2c7.4,1.1,15.6-3.6,22.4,3.1
	c3,3,6.5,0.3,9.3-1.7c3.1-2.2,2.7-5.5,1.9-8.6c-0.9-3.6-3.8-5.3-7.1-4.9C327.7,489,323,490.5,316,492.1z M334.1,519.9
	c-2.1,3.6-3.9,6.6-6,10.2c-2.4-1.9-3.7-3.5-5.3-4c-1.8-0.6-4.9-1.1-5.6-0.2c-1.1,1.4-1.4,4.5-0.5,5.9c1.1,1.9,3.6,3.5,5.8,4.2
	c3.2,0.9,15.2-6,16.8-9C341.2,523.1,340.3,521.7,334.1,519.9z M342.2,529.8c0.7,1.1,1.5,2.1,2.2,3.2c4.7,0.2,9.8,2.7,13.5-2.5
	c2.6-3.6,1.8-11.9-1.2-14.9c-2.5-2.5-5.3-4-8.8-1c8,7.1,7.8,8.6-1.1,13.6C345.3,528.9,343.7,529.2,342.2,529.8z"/>
<path fill-rule="evenodd" clip-rule="evenodd" d="M351.8,575c-0.7-3.7-3.9-7.5,1.4-10.7c1.1-0.7,0.5-3.9,1-5.8
	c0.6-2.6,0.9-6.2,2.6-7.3c1.7-1.1,5.6-0.5,7.6,0.8c3.9,2.5,7.3,5.8,10.5,9.2c2.6,2.7,1.3,5.7-0.4,8.6c-4.8,7.8-4.5,10.9,1.7,18
	c2,2.3,5.3,4.2,2.7,7.8c-2,2.9-6.5,2.9-10-0.5c-4.8-4.8-9-10.4-13.5-15.6c-1.4-1.6-2.7-3.2-4-4.8L351.8,575z"/>
<path fill-rule="evenodd" clip-rule="evenodd" d="M62.8,549.2c4.5,3.9,4.1,6.8,3.3,10.5c-4.2,19.8-8.7,39.6-7.7,60
	c0.1,3.3,1.1,6.5,1.7,10.2c-4.8,0.3-6.8-2.4-7.4-5.8c-0.9-4.9-2-10-1.5-14.8c1.5-14.9,3.8-29.7,5.8-44.6c0.4-3.1,0.6-6.3,1.6-9.2
	C59.3,553.5,61.1,551.7,62.8,549.2z"/>
<path fill-rule="evenodd" clip-rule="evenodd" d="M45.3,553.9c0,2.8,0.3,4.6,0,6.4c-2.6,14.8-5.6,29.5-8,44.3
	c-1.1,7.1-1.4,14.3-1.5,21.5c0,2.2,2,4.4,2.6,6.7c0.4,1.5-0.2,3.3-0.3,5c-1.7-0.2-3.7,0.2-5.1-0.6c-1.4-0.9-2.7-2.7-2.9-4.3
	c-0.7-4.6-1.5-9.4-0.9-13.9c2.1-17.4,4.5-34.7,7.4-52C37.4,562.3,36.9,555.9,45.3,553.9z"/>
<path fill-rule="evenodd" clip-rule="evenodd" d="M401.1,544.9c-1.5,1.4-2.4,2.8-3.6,3.3c-5.7,2.4-10.2,5.1-6.5,12.5
	c0.3,0.6-0.6,2.5-1.4,3c-0.8,0.5-2.4,0.3-3.4-0.2c-7-3.9-12.6-18.1-10.3-25.5c1-3.1,4.2-4.5,7.5-2.8
	C389.2,538,394.8,541.4,401.1,544.9z"/>
<path fill-rule="evenodd" clip-rule="evenodd" d="M351.4,574.7c0.7,3.3,1.4,6.7,2.1,10c0.4,2.1,1.3,4.3,1.2,6.4
	c-0.2,5.8-5.9,13.2-10.1,13.4c-3.1,0.1-12.3-7.4-12.9-11.3c-0.3-1.7,1.1-3.7,1.9-6c4.1,2,7.3,3.6,10.9,5.4c3.5-6.5,1.1-11.4-2-15.8
	c2.5-6.4,6.1-2.4,9.3-1.7L351.4,574.7z"/>
<path fill-rule="evenodd" clip-rule="evenodd" d="M391.9,521.6c6.6,0,10.9,0,16.1,0c-3.5,6.3-8.3,9.6-14.6,10.3
	c-6.9,0.8-13.9-9.6-10.5-16.1c2.1-4,5.6-7.4,8.9-10.7c0.9-0.9,3.9-0.8,4.9,0.1c1,0.9,1.5,3.5,1,4.9
	C396.5,513.5,394.5,516.6,391.9,521.6z"/>
<path fill-rule="evenodd" clip-rule="evenodd" d="M95.3,484.9c-3.4,2.1-6,1.5-6.5-2.2c-0.9-5.5-1.8-11.3-1.2-16.7
	c1-9.2,3.2-18.3,5-27.4c0.7-3.4,2.2-5.8,7.2-5.1c0,1.9,0.7,4.2-0.1,5.8C92.3,453.8,93.9,469,95.3,484.9z"/>
<path fill-rule="evenodd" clip-rule="evenodd" d="M110.6,474.7c-3.4,0.5-4.7-2.6-4.6-5.2c0.3-9,1.1-18.1,2.2-27
	c0.2-1.4,3-2.4,4.6-3.5c0.8,1.8,2.6,3.7,2.4,5.4C113.9,454.4,112.2,464.4,110.6,474.7z"/>
<path fill-rule="evenodd" clip-rule="evenodd" d="M480.7,454.3c-2.1,2.2-2.8,3.8-3.6,3.7c-13.6-0.1-26.2,7.5-41.6,4.9
	c1.8-2.3,2.6-4.7,4-5.1c8.1-2.1,16.3-4.3,24.6-5.3C468.9,452,473.9,453.5,480.7,454.3z"/>
<path fill-rule="evenodd" clip-rule="evenodd" d="M439,444.6c11.7-9.4,25.6-7.5,40.5-7.8c-2.6,5.2-6.2,6-9.8,5.9
	c-9.2-0.1-18.1,0.2-26.3,5.3c-0.8,0.5-2.6-0.6-4-0.9C439.2,446.3,439.1,445.5,439,444.6z"/>
<path fill-rule="evenodd" clip-rule="evenodd" d="M327.4,339.4c3.3,0.1,6,3.3,5.9,7.1c0,4.7-6,13.1-10.5,14.7
	c-5.2,1.8-11.2-2.9-10.7-8.3C312.8,346.6,321.2,339.2,327.4,339.4z"/>
<path fill-rule="evenodd" clip-rule="evenodd" d="M378.2,354c0.1-7.6,4.4-11.5,12.8-11.2c6.1,0.2,9.7,3.6,9.5,9
	c-0.2,5.8-7.2,13.2-12.5,13.3C381.7,365.1,378.2,361.1,378.2,354z"/>
<path fill-rule="evenodd" clip-rule="evenodd" d="M801.3,394c-0.3,12.2-16.4,24.6-27.1,22.1c-9.5-2.3-15.4-17-10.6-26.5
	c5.3-10.6,22.7-14.3,31.9-6.7C799.3,386,801.5,390.1,801.3,394z"/>
<path fill-rule="evenodd" clip-rule="evenodd" d="M116.5,579c9.7-0.5,14.3,4.9,11.5,14.9c-5-4.6-10.8-7.6-11.2-15.1
	C116.8,578.8,116.5,579,116.5,579z"/>
<path fill-rule="evenodd" clip-rule="evenodd" fill="#FFFFFF" d="M243.9,786.4c3.2-0.3,4.9,0,6.1-0.7c11-6.4,12.9-10.5,8.1-24.2
	c-4.1-11.8-13.7-12.7-22-2.4C243.4,766.1,247.1,774.6,243.9,786.4z"/>
<path fill-rule="evenodd" clip-rule="evenodd" fill="#FFFFFF" d="M238.7,780.9c-0.5-1.8-1-4.6-1.9-7.2c-2.6-8.2-9.4-10.9-16.4-6.4
	c-1.4,0.9-3.2,2.9-3,4.1c1.2,7.3,2,15.1,8.6,20.1c4.6,3.5,10.2,1.5,11.8-4C238.2,785.7,238.3,783.7,238.7,780.9z"/>
<path fill-rule="evenodd" clip-rule="evenodd" fill="#FFFFFF" d="M357.9,700.6c4,1,8.3,1.9,12.4,3.2c8.8,2.7,16.7,0.4,24.2-4.2
	c5.1-3.1,5.1-6.9,0.1-9.8c-10.1-5.9-20.4-5.2-30.6-0.4C359.9,691.3,357,694.5,357.9,700.6z"/>
<path fill-rule="evenodd" clip-rule="evenodd" fill="#FFFFFF" d="M356,712.5c-2.3,7.8,2.9,9.6,6.7,10.3c9.2,1.7,18.6,3,27.9,3.1
	c10,0.1,12.1-4,8.4-13.9c-7.1,0.7-14.3,2-21.4,2.1C370.5,714.2,363.4,713.1,356,712.5z"/>
</svg>
