<?xml version="1.0" encoding="utf-8"?>
<!DOCTYPE svg PUBLIC "-//W3C//DTD SVG 1.1//EN" "http://www.w3.org/Graphics/SVG/1.1/DTD/svg11.dtd">
<svg artist="zl2017" version="1.1" id="zlIcon-exit-man" xmlns="http://www.w3.org/2000/svg" xmlns:xlink="http://www.w3.org/1999/xlink" x="0px" y="0px"
	 width="1000px" height="1620.8px" viewBox="0 0 1000 1620.8" enable-background="new 0 0 1000 1620.8" xml:space="preserve">
<path fill-rule="evenodd" clip-rule="evenodd" d="M422.8,1453.4c-6.1,0.4-13,0.9-19.7,1.4c-1.7-2.9-3.9-5-4-7
	c-0.4-20.4-10.2-38.4-15.1-57.6c-1.8-7-4.8-13.4-4.4-21c0.3-5.7-4.3-9.5-9.2-7.8c-24.3,8.3-50.5,9.9-73.8,22.1
	c-11.5,6-24.2,8.8-37.3,9.1c-0.8,0-1.6,0.4-2.4,0.3c-25.8-4.3-52.4-4.9-75-21.6c-9.8-7.2-16.5-15-18.7-26.6
	c-3.7-20.3-7.1-40.7-10.9-62.2c-14.9-1.7-29.9-3.7-45-5.1c-7.6-0.7-13.4-3.1-18.9-9c-12.1-13-21.5-26.3-26.6-44.4
	c-10.1-35.4-23.8-69.7-37.3-104c-6.1-15.4-7.4-31.6-8.1-47.2c-1-22,10.5-40.6,29.5-52.1c19.9-12,41.2-21.7,64.5-25.8
	c3.8-0.7,7.4-2.9,12.2-4.9c-0.8-7.2-1-14.2-2.3-21.1c-6.5-34.7-13.6-69.3-18.6-104.3c-4.2-29.3-5.4-58.9-5.8-88.6
	c-0.2-14.3-2.5-28.6-2.8-43c-0.5-20.9-1-41.9,0.6-62.7c0.6-8.9,1.4-17.5,0.5-26.3c-0.3-3.2-0.8-6.5-0.6-9.6
	c2.4-47.4,4.6-94.8,7.6-142.2c0.8-12.7,3.8-25.2,5.6-37.2c-18-22.3-42.9-38.7-38.4-71.3c-8.9-3.7-16-7.2-23.5-9.6
	c-10.5-3.4-20-9.1-24-18.9c-5.3-13-14.1-25.9-9-41.4c2.2-6.9,3.8-14.1,6.9-20.5c11.9-24.6,23.8-49.3,41.7-70.4
	c2-2.4,3.5-5.3,5.8-8.8c-4.8-11.7-14.5-18.4-24.2-25.6c-12.9-9.5-25.3-19.8-37.5-30.2c-5.4-4.6-5-9.8-2.2-17.1
	c5.7-15,14.3-26.5,27.3-35.8c7.8-5.6,14.1-13.2,21.2-19.7c3.5-3.3,6.9-6.8,10.9-9.5c20.7-13.7,41.4-27.3,62.3-40.7
	c4.7-3,10-5.2,15.2-7.4c16.4-6.7,32.8-13.4,49.4-19.6c30-11.2,59.7-12.4,88.9,3c6.3,3.3,13,6.2,19,9c7.5,17.8,6.6,35,2.6,52.3
	c-5,21.3-7.4,42.8-7.4,64.7c0,23.2-1.5,46.4-1.3,69.6c0.1,10.4,1.8,21,4.5,31c3.4,12.6,4.1,25.3,5,38.1c0.9,13.6,1.7,27.4,6.8,40.3
	c3.2,8.1-1.2,16.6,3.8,25.4c8,14.1,17.5,26,30.5,35.5c13.7,9.9,27.1,20.1,40.4,30.4c6.3,4.9,13.1,9.8,18.1,15.9
	c15.8,19.7,36.2,33.5,56.9,47.3c16.7,11.1,32.7,23.1,40,43.8c3.2,9.2,11.8,16.6,18.1,24.7c2.9,3.8,7.1,7,9,11.3
	c11.3,25.8,27.1,49.2,39.4,74.5c8.7,18,17.4,36.1,25.6,54.4c4.5,10.2,10.2,20.6,11.2,31.4c1.6,17.4,9.7,32.2,15.1,48
	c9.6,28.1,21.4,55.4,31.4,83.3c5.1,14.3,6.8,30,12.9,43.8c4.8,10.9,10,21.5,14,32.8c3.7,10.6,7.9,21.1,11.3,31.8
	c3.1,9.6,11.6,17.7,8.9,29.1c6.3,13.7,12.8,27.4,18.8,41.2c2.2,5.1,3.2,10.8,5.2,16c3.7,9.7,6.5,19.5,12.1,28.7
	c5.7,9.3,7.8,20.9,10.4,31.8c5,21.1,9.7,42.2,11,64c0.8,13.7-2.9,25.4-11.6,35.8c-1.5,1.8-3.7,5.1-5,4.9
	c-15.4-2.7-22.8,13.5-36.5,14.9c-11.6,1.2-20.8,8-30.4,14c-17,10.5-34.3,20.5-52.7,31.4c4.1,10.2,10,20.4,4,31.6
	c3.5,14,6.2,28.3,10.8,42c5.6,16.7,13,32.9,19.4,49.3c0.8,2.1,0.6,4.7,1,8.2c-5.8,5.6-11.9,11.6-17.9,17.4
	c-7.3-2.4-10.9-7.5-13.6-13.7c-7.7-17.7-16-35.1-22.8-53.1c-5.7-15-9.2-30.8-14.3-46.1c-2-5.8-5.6-11.1-9.2-18.1
	c-25.7,14.2-53.5,19.4-77.9,33.9c-11.6,6.9-25.6,9.6-38.4,14.4c-8.2,3.1-16.1,7.5-24.5,9.8c-16,4.4-20.6,14.2-20.4,30.4
	c0.3,22.3,4.6,43.3,12.9,63.6C426.8,1439.5,428.2,1445.8,422.8,1453.4z M224,125.9c9.2,2.9,17.2-0.1,24.4-4.8
	c0.4-1.4,0.9-2.2,0.7-2.9c-4.1-18.1-6.2-36.5-6-55.1c0-2.4-0.7-5.4,0.5-6.9c1.7-2.3,4.6-4.4,7.4-5.1c3.4-0.9,8.5,4.1,7.6,7.5
	c-4.6,17.4-2.3,34.8-0.3,52.1c0.3,2.6,2.8,5,4.6,8c17-20.7,15.7-37.9,7.6-69.8c-31.4-12.8-63.3-8.7-94.3-1.7
	c-5.2,30.7,4.3,59.4,2.4,91c-3.9-3.3-7.4-4.7-8-6.9c-2.6-10.1-4.7-20.3-6.3-30.6c-2.6-16.4-2.2-33.3-6.6-49.5
	c-33.9,7.4-61.1,21.3-85.8,42.8c-6,5.2-13,9.4-19.4,14.2c-9,6.8-17.5,14.1-22.9,24.3c-2.5,4.7-2.9,9.8,0.2,13.8
	c14,17.5,26.8,36.7,51.2,42.2c19.5-6,52-25.1,65.6-38.2c-5.6-13.9-11.1-27.2-16.2-40.6c-2.8-7.4-5.5-14.9-7.2-22.6
	c-0.5-2.1,2.4-6.2,4.7-7.2c2.3-1,7.5-0.3,8.5,1.5c3.3,5.4,7,11.5,7.3,17.4c0.6,17.5,9.7,31.7,15.1,49c8.7-2.2,16.4-3.4,23.6-6.1
	c14.2-5.3,30-6.3,42.3-16.5L224,125.9z M63.6,1142.3l-0.8-0.9c0.4,4.7-0.5,10.3,1.6,14.1c7.2,12.9,10,26.9,14.1,40.8
	c6.6,22.6,16.5,43.6,35.3,59.3c30.7,6.4,61.2,0.9,90.9-5c38.6-7.6,76.5-18.8,114.4-29.3c24-6.6,47.6-14.8,71.4-22.3
	c14.5-4.6,28.8-9.7,43.4-13.8c46.6-13.2,91.8-29.7,134.3-53.4c17.4-9.8,36.6-39.4,37.1-59c0.1-3.2-0.1-6.5-1-9.5
	c-5.3-16.9-9.3-34.4-16.8-50.3c-8.4-17.7-13.9-36.1-18-54.9c-2-9.4-1.8-19.2-8.9-26.8c1.6-6.2-2.8-7.2-7-9.9
	c-13.3-8.3-26.8-3.1-40-1.5c-27.9,3.3-54.5,13.1-82.1,18.3c-33.1,6.3-66.1,13.7-98.3,24.3c-17.5,5.8-36,8.4-53.6,14.2
	c-27.5,9-54.7,18.7-83.1,24.9c-8.6,1.9-17,4.7-25.3,7.6c-26.5,9.2-52.7,19.1-79.3,27.9c-16,5.3-31.2,12.3-46.5,19.6
	C43.2,1087.4,49.5,1115.7,63.6,1142.3z M573,704.3c-5.5-14.9-5.6-15.3-14.5-14.1c-13.6,1.9-27.4,3.2-40.4,7
	c-32.3,9.5-63.7,21.7-93.5,37.9c-6.9,3.8-14.8,5.9-22.4,8.3c-1.7,0.5-4.1-1.5-6.7-2.5c1.3-2.6,1.8-5.7,3.4-6.6
	c9.1-5.1,18.2-10.4,27.8-14.4c16.3-6.9,33.4-11.8,49.2-19.6c15.4-7.6,31.6-12.3,48.2-15.3c12.9-2.3,23.5-8.7,36-14.7
	c-3.5-6.7-6.3-12.2-9.4-18.2c-9.6,1.5-18.5,2.1-27,4.3c-15.6,4-30.9,9.2-46.4,13.3c-39.7,10.5-79.7,20-115.1,42.3
	c-3.2,2-8.4,0.8-16.5,1.3c4.7-5.2,6.2-8.2,8.7-9.4c10.9-5.2,22-10.1,33.1-14.6c8.9-3.7,18.7-5.7,27-10.3
	c16.5-9.2,35.6-9.8,52.5-17.5c5.6-2.5,13.1-0.7,18.6-3.2c18.4-8.4,37.6-14,57.5-17.9c-6.9-17-8.8-18.6-21.9-17.4
	c-11.2,1.1-22.4,1.8-33.4,3.8c-44.4,8-87.9,18.9-128.8,38.7c-3,1.4-7.4,3.6-10.4-2.9c18.8-14.1,42.3-18.4,62.6-29.3
	c35.5-6.9,69.7-19.7,106.1-22.8c2.8-0.2,5.6-1.8,8.1-2.6c-0.9-8.9-5-13.8-12.4-13.2c-13.6,1-27.3,1.9-40.6,4.9
	c-36,8.3-72.5,15.7-104.5,35.7c-2,1.2-5.4,0.2-13.8,0.2c13.2-8.6,20.2-15.7,30.2-19.6c34.5-13.8,69.7-24.9,106.1-32.1
	c6.8-1.4,13.7-3.1,18.9-8.4c-7-10.6-7.5-11.6-11.6-11.4c-14.4,0.6-28.5-0.9-43.1,3c-31.1,8.3-61.4,18.8-91.8,29.4
	c-2,0.7-4.4,0.5-7.8,0.8c2.5-7.8,8.4-10.5,13.8-12.8c8.8-3.9,17.9-7.4,27.1-10.1c30.4-9,58.6-25.3,91.7-26.2
	c-8.3-11.7-8.3-11.6-14.4-11.9c-42.6-2.3-83.4,4.1-121.4,24.7c-3.1,1.7-7,1.9-16.1,4.1c14.1-12.2,23.5-22.3,35.8-25
	c26.7-5.8,51.9-17.6,79.7-18.4c3-0.1,6-1.6,9-2.4c-2.5-11-3.2-12.3-8.4-12.5c-5.6-0.2-11.3-0.2-16.9,0.2
	c-38.7,2.8-75.8,12.3-112.2,25.5c-5.3,1.9-10.4,4.4-15.8,5.7c-4.3,1-5.1-2.3-5-3.2c18.6-19.5,43.8-18,65.3-26.7
	c21.9-8.9,46.8-9.5,69-18.7c-2.2-8.8-8.3-8.5-13.8-8.2c-22.5,1-44.6,3.5-66.8,8.2c-26.2,5.6-51.6,11.8-75.6,23.8
	c-1,0.5-2.7-0.5-5.3-1c2.3-3.5,3.6-8.2,6.4-9.6c10.8-5.1,21.9-9.8,33.2-13.3c22.9-7.1,45.8-14.1,69.8-16.9c7.4-0.9,14.3-5.8,24.1-10
	c-5.8-3.7-8.8-7.4-12-7.5c-10.1-0.4-20.3,1-30.5,0.9c-18.8-0.1-36.1,6.7-54.1,10.4c-35.2,7.2-67.4,21.6-97.2,41.6
	c-3.1,2.1-5.9,5.8-11.5,1.3c1.7-2.4,2.9-5.5,5.2-6.8c11-6.5,22.9-11.6,33.5-18.8c23.3-15.7,49.2-23.5,76.7-27
	c3.9-0.5,7.6-2,11.4-3.2c7.6-2.3,15.1-5,22.8-7c8.3-2.2,16.8-3.6,25.1-5.7c0.9-0.2,1.4-2.3,2.2-3.6c-2.1-4.8-6.6-4.1-10.4-3.9
	c-11,0.8-22.2,1.2-32.9,3.4c-22.8,4.8-45.4,10.7-68.1,16c-20.7,4.8-39.3,14-56.2,26.7c-4.2,3.1-9.3,5.1-17.6,9.6
	c2.4-6.6,2.5-10.3,4.4-11.8c15.4-11.7,31.5-22.6,50.1-28.4c23-7.1,46.4-12.9,69.8-18.8c8.9-2.2,17.9-3.9,28.9-10
	c-12.4-2.6-21.3-3.6-31.2-1.8c-23.1,4.2-45.4,10.6-66.5,20.9c-5.2,2.5-10.6,5.6-17.1-0.6c9.7-4.9,18.7-10.1,28.2-14.2
	c9.6-4.1,19.9-6.6,29.6-10.5c9.3-3.8,20.5-2.7,28.5-10c-1.3-2.6-1.7-4.4-2.8-5.2c-7.7-5.9-15.4-6.7-24.6-1.8
	c-17.8,9.3-36.1,17.8-54.5,25.8c-16.2,7.1-32.9,13.2-49.4,19.5c-5.2,2-10.7,3.5-16.1,4.7c-14.1,2.9-28.2,5.5-41.5,8.1
	c-5.1,14.9-9.7,28.4-14.2,42c-0.5,1.5-0.4,3.2-0.5,4.8c-1,16-2.4,32-2.9,48.1c-1.2,38.5-1.8,76.9-2.1,115.4c-0.2,27-1.9,54,0.1,81
	c1.5,20.6,2.5,41.2,4.5,61.7c1,10.1,5.3,19.6,3.5,30.2c-1.3,7.6,1,15.3,3.1,23c4.6,17,8.6,34.3,10.6,51.7
	c3.2,27.1,16.2,48,35.8,65.8c18.4-6.8,37.1-10.8,53.3-19.4c0-3,0.3-4.7-0.1-6.2c-0.6-2.3-1.4-4.8-2.8-6.7
	c-18.2-25.1-17.1-54.4-18.2-83.2c-0.4-9.9,4.4-16.8,13.3-21.1c7.1-3.5,14.2-7,21-10.4c1.8-12.5,3.3-23.5-7.8-31.6
	c-1.7-1.2-2-4.2-2.9-6.5c-4.5-12-9.6-23.8-13.2-36c-6.1-20.9-13.8-41.7-16.3-63.1c-3.2-27.3-10.4-53.5-16.2-80.2
	c-2.7-12.4-4.9-24.9-7.3-37.3c4.8-3.7,8.4-6.9,12.4-9.4c7.7-4.9,14.9-1.3,14.7,7.5c-0.7,28.1-3.1,56.4,9.1,83.1
	c-0.9,16.5,7.9,30.8,10.3,46.6c2.5,16.6,7,33,11.7,49.3c3.3,11.4,6.6,23.3,15.2,30.3c23.5,3.3,41.9-9.8,62.7-12.3
	c11.6-1.3,16.8-12.7,13.4-24.2c-0.9-3-3-5.7-4.3-8.6c-14.7-33.3-23-68.6-30-104.1c-4.3-21.9-4.5-44.5-11.4-66
	c-0.4-1.3,0.4-3.1,0.9-5.8c3.6-2.9,7.8-6.3,13.3-10.8c3.6,5.6,8,9.8,9.1,14.6c2,8.4,2.1,17.3,2.7,26c0.9,13.6,0,27.4,2.5,40.7
	c6,32.4,13.3,64.6,29.9,93.8c5.1,9,7.2,19.6,10.5,29.6c2.8,8.2,1.6,15.8-4,22.7c-4,4.9-7.7,10.1-11.3,14.7c1.9,9.5,1,18.9,9.3,26.1
	c12.5-5.6,25.5-4.8,39.1-1.8c10.4,2.3,14,2.7,15,11.1c1.6,13.6,6.7,26.3,9.5,39.5c3.5,16.6,12.2,29.5,26.6,41
	c13.5-2.3,27.7-4.4,41.8-7.2c22-4.3,44-9,68.4-14c7.4-10,21.4-14.4,35.1-18.9c17.4-5.7,35-10.9,50.2-20.5c0.3-2.6,0.9-4.4,0.5-5.7
	c-1.6-4.4-3.5-8.7-5.5-13.4c-3.9-0.4-7.3-1.5-10.2-0.8c-15.7,3.5-31.6,6.6-46.9,11.5c-27.5,8.9-54.7,18.6-81.8,28.7
	c-15.7,5.8-32.3,9.6-45.3,21.6c-3.5,3.2-8.8,3.7-13.2-2.8c2-2.7,3.7-6.9,6.8-8.6c9.8-5.4,19.8-10.8,30.3-14.5
	c29.6-10.4,59.6-19.8,89.3-29.8c9.1-3.1,18.3-6.3,27-10.2c11-4.9,21.6-10.7,32.2-16.2c1.2-0.6,1.7-2.6,3.5-5.4
	c-2.1-3.9-4.6-8.5-7.2-13.2c-29.8,1.9-55.9,12.9-82.7,21c-30.7,9.2-59.5,22.2-85.1,41.3c-7-8.9-7.4-11.2-2.9-14.4
	c2.6-1.9,5.4-3.5,8.2-5.1c22.3-12.3,69.9-31,98.1-39c6.2-1.7,12-4.6,18.1-7c9.8-3.8,19.6-7.4,29.3-11.3c3.5-1.4,6.8-3.4,11.3-5.7
	c-2.9-6.8-5.3-12.4-7.9-18.4c-10.6,2.6-20,4.3-29.1,7.2c-15.2,5-30.1,11.1-45.4,16c-33.5,10.9-67.5,20.4-96.6,40.4
	c-7.5-4-4.7-9-1.6-12.3c3.2-3.4,8-5.3,12.2-7.6c20-10.6,41.5-17.2,63-24.1c13.8-4.4,27.6-9,41.2-14.1c17.9-6.7,35.7-13.9,52.3-23
	c-3.3-14.7-6.5-17.2-16.9-13.8c-12.2,4-24.1,9.5-36.7,11.7c-8,1.4-15.6,2.9-23,6.2c-8.1,3.6-16.3,7.1-24.8,9.3
	c-22.9,5.9-43.2,17.1-62.8,29.8c-2.4,1.6-5.1,4.5-8.9,0.4c1.5-8.2,6.5-13.9,14.5-16.9c20.9-8,39.2-22.3,62.3-24.9
	c2.3-0.2,4.5-1.8,6.5-3.1c11-7.3,23.4-10.8,36.1-13.2C546.1,717.9,558.7,711.1,573,704.3z M555.6,890.6c2,1.5,3.8,3,5.8,4
	c19.2,9.9,35.2,22.1,35.2,46.7c0,3,2.5,5.9,3.3,9.1c2.8,10.9,5.6,21.8,7.9,32.8c4.6,21.9,7.8,44.3,13.6,65.8
	c6.5,24.1,6.1,46.1-11.1,65.8c-1.1,1.2-1.9,2.6-2.7,4c-9.2,17.8-22.3,31-41.7,37.5c-4.4,1.5-8.1,5-12.3,7.5
	c-4.1,2.4-8.1,5.5-12.6,6.7c-21.1,5.7-40.1,16.4-60.2,24.5c-23.5,9.6-45.5,23.1-71.5,26.6c-8.6,1.1-16.7,5.5-25,8.4
	c-3,1-6.1,2.1-9.2,2.8c-10.1,2.4-20.4,4.3-30.4,6.9c-14.7,3.9-29.1,9.3-44,12.5c-33.1,7-66.4,12.9-99.6,19.7
	c-6.8,1.4-13.2,5-19.5,7.4c-4.8,29.2,5.9,52.1,21.4,73.4c6.6,9,15.9,13.6,27.4,11.9c5.5-0.8,11.5-1.4,16.3-4
	c11.7-6.3,24.6-8,37.2-10c30.2-4.8,60.1-10.6,89.7-18c17.9-4.5,35.2-11.3,52.6-17.5c22-7.8,44.3-14.8,65.6-24.3
	c38.2-17.1,75.8-35.7,113.5-53.8c10.2-4.9,19.8-10.9,30.2-15.2c24.7-10.2,47.4-24.1,70.1-37.8c2.5-1.5,4-4.4,6.7-7.5
	c-11.7-3.9-20.2,2.3-29.2,4.8c-9.2,2.6-18,7-26.9,10.7c-8.2,3.4-16.3,7-24.4,10.5c-8.9,3.8-17.6,7.9-26.7,11.1
	c-8.7,3-15.6,10.7-26.2,11.3c0.7-3.1,0.6-5.3,1.4-5.8c46.5-26.9,95.6-48,147-67.7c-1.8-7.4-3.5-14.1-5.7-23.2
	c-98.7,36.2-193,77.5-278.1,136.9c-5.1-3.6-6.6-6.9-3.4-10.9c1.5-1.8,3.6-3.3,5.6-4.5c31.3-18.2,62.3-36.9,94.1-54.2
	c48.1-26.2,98.6-47.5,148.9-69.2c8-3.5,15.2-8.7,22.7-13.4c1.2-0.8,1.8-2.6,3.1-4.4c-1.4-4.8-3-10-4.6-15.4
	c-18.2-1.7-32.9,12.2-50,7.9c-1.3-8,2.9-11.1,9.1-12.3c11.9-2.4,23.4-5.4,35-13.2c-3.1-6.4-6-12.6-8.5-17.8
	c-13.9-1.5-24.2,8-36.7,6.7c0.4-2.9,0.1-4.7,0.9-5.7c7-8.3,17-11.8,26.5-16.1c1.3-0.6,2-2.4,3.9-4.8c-1-3.5-2.3-7.9-3.9-13.5
	c-5.6,1.2-11.2,0.7-14.4,3.3c-8.2,6.7-16,4.8-25.9,1.2c10.4-9.2,20.3-18,30.4-26.9c-3.3-7.1-5.9-12.8-8.3-18
	c-22.4,2.5-22.4,2.5-33.7-2.8c5.8-11.4,19.9-9.5,27.9-17.7c-2.7-7-5.5-14.1-8.1-20.6c-14.4-3.4-26.2,7.5-38.9,3.1
	c-2.6-6.2,0.2-10,5-11.9c8.9-3.6,18-6.5,27-9.8c0-2.1,0.4-3.8-0.1-5.1c-1.5-3.6-3.3-7.1-5.6-11.9c-7.7,1.2-15.5,2.3-23.3,3.6
	c-3.1,0.5-6.4,2.4-9.2,1.9c-2.6-0.5-6.3-2.9-6.9-5.2c-0.6-2.2,1.7-6.8,3.7-7.6c9-3.4,18.4-5.5,27.6-8.6c2-0.7,3.5-3.1,5.9-5.3
	c-2.9-5.5-5.7-11-8.3-16C591.9,875.8,573.1,881,555.6,890.6z M88.7,368.4c14.5-5.7,28.1-12.6,42.5-16.5c24-6.5,48.6-11,72.9-16.6
	c23.4-5.4,46.6-11.1,71.3-17c0.2-10.9,1.1-22,0.5-33c-0.9-17.6-3.4-35.2-4.1-52.8c-0.9-23.2-0.7-46.4-0.9-69.6
	c-0.1-7.3,0.3-14.6-5.8-18.3c-16.7,4.4-32,9.2-47.6,12.3c-39.2,7.9-75.3,23.1-108.5,45.2c-9.3,6.2-17.2,13.9-24.3,23
	c-17.6,22.4-30,47.5-41.8,73c-3.3,7.1-4.3,15.4-5.2,23.3c-1.9,16.7,5.9,27.5,21.5,33.5C68.6,358.7,77.8,363.4,88.7,368.4z
	 M255.9,951.5c2.8-0.5,6-0.9,9.1-1.7c26.5-6.6,52.9-13.4,79.4-19.9c12.5-3,25.2-5.1,37.7-8.1c9-2.1,12.8-7.8,8.9-15.9
	c-4.6-9.7-5.3-19.9-7-30c-1-6.3-2.5-12.6-4.2-18.8c-2.5-9.5-9-15.2-18.6-16.6c-6.1-0.8-12.4-0.2-18.7-0.2c-1.5,5.3-2.3,9.1-3.7,12.8
	c-1.5,3.7-3.3,7.4-5.4,10.8c-6.7,10.4-13.7,13.2-26.7,9c-4.3-1.4-7-2.6-10.4,1c-1.5,1.6-4.3,3.5-5.9,3.1
	c-16.5-4.6-35.4-1.4-48.7-16.4c-4.1-4.7-14.3-1.6-16.2,4.2c-3.1,9.3-5.7,19.1-0.6,28.2C235.1,911.9,238.1,934.2,255.9,951.5z
	 M97.3,393.8c4.4,5.1,8.7,8.9,11.5,13.6c10.6,17.9,27.4,19.2,44.4,15.3c18.7-4.4,37.4-8.8,54.8-18c19.6-10.4,39.8-20.6,62.8-22.2
	c3.1-0.2,6.2-1.8,9.2-3c12-4.7,13.8-14.4,3.5-21.6c-5.1-3.5-11.4-6.4-17.5-7.1c-8.7-1-17.8-0.8-26.5,0.6
	c-28.6,4.6-57.3,8.8-85.4,15.6C134.3,371.6,111.9,372.2,97.3,393.8z M252.2,832.7c4.2,4.9,7.9,11.9,13.7,15.3
	c13.5,7.8,27,17.7,44.5,11.6c10.3-3.6,16.6-12.1,12.8-22c-5.2-13.3-7.2-28.1-17.7-40c-16.7-0.8-32.6,4-47.8,9.4
	C255.7,815.8,254.1,823.5,252.2,832.7z"/>
<path fill-rule="evenodd" clip-rule="evenodd" d="M967.7,1541.2c-6.5,0.5-11.8,1.6-17.1,1.3c-30.8-1.9-60.9,5.4-91.4,7.2
	c-10.4,0.6-20.8,1.6-31.2,2.8c-51.1,6-102.2,12.1-153.3,18.1c-19.7,2.3-39.5,4.2-59,6.3c-3.9-8.7,0.5-12.5,6.4-13.3
	c17.5-2.3,35.1-4.3,52.7-5.2c22.3-1.1,44.6-0.5,66.6-5.6c6.9-1.6,14.3-1.3,21.5-1.5c10.4-0.3,20.8,0.4,30.6-4.4
	c3.3-1.6,7.6-1.3,11.5-1.5c1.5-0.1,3.4,1.4,4.7,0.9c23-8.6,47.2-2.6,70.6-5.4c3.9-0.5,7.7-2.5,11.7-3.1c7.8-1.3,15.7-2.7,23.6-3
	c11.9-0.5,23.9-0.2,35.9,0C956.9,1534.7,962.5,1534.9,967.7,1541.2z"/>
<path fill-rule="evenodd" clip-rule="evenodd" d="M972.8,1466.2c-5.7,5.6-7.5,9-9.7,9.3c-9.5,1.3-19.1,1.7-28.7,2.6
	c-28.9,2.6-57.7,5.1-86.6,7.9c-12.8,1.3-25.5,3-38.2,5c-45.3,7.3-91.3,7.6-136.7,13.7c-6.3,0.8-12.8,0-19.1-0.8
	c-1.3-0.2-2.8-3.4-3.2-5.4c-0.2-1,1.4-3.3,2.5-3.6c8.6-1.9,17.2-4.5,25.9-5c20.6-1.3,41.3-4.1,62.1-1.8c3.7,0.4,7.7-1.3,11.6-1.8
	c4.8-0.7,9.6-1.8,14.3-1.7c13.6,0.3,27.4,3.1,40.4-3.5c11.7,7,20.6-8,31.2-4.4c10.8,3.7,20.7-0.6,30.8-1.7
	c22.1-2.4,44.1-6.1,66.2-8.5C945.8,1465.3,956.3,1466.2,972.8,1466.2z"/>
<path fill-rule="evenodd" clip-rule="evenodd" d="M537.2,1480c-0.9-10.4,3.2-15.3,10.7-15.2c18.3,0.1,35.9-5.5,54.2-5.3
	c3.9,0,8-0.5,11.6-1.9c19-7.2,38.7-9.9,58.8-10.5c15.2-0.5,30.4-2,45.5-3.2c2.4-0.2,4.8-1.5,7.1-1.2c8.5,1.3,16,4.5,25.3-0.9
	c5.9-3.4,15.2-0.7,23.2-3.1c8.1-2.5,17.3-1.6,25.9-2.2c1.3,6.6-2.2,8.1-6.1,8.5c-19.2,2-38.3,3.7-57.5,5.5
	c-41.5,3.9-82.9,8.9-123.9,17C587.9,1472.2,563.3,1475.7,537.2,1480z"/>
<path fill-rule="evenodd" clip-rule="evenodd" d="M999.5,1595.1c-10.3,3.8-20.9,6-31.9,5.7c-32.4-0.7-63.6,7-94.8,13.9
	c-8.6,1.9-17.1,4.2-25.8,5.8c-3.7,0.7-7.7,0.1-11.1,0.1c-3.7-8.7,1.4-12.2,6.8-13.4c17.9-4,36-7.2,54.1-10.6
	c6.3-1.2,12.7-1.5,18.9-2.8c27.6-5.7,55.2-5.6,82.9-1.5C999,1592.2,999.1,1593.6,999.5,1595.1z"/>
<path fill-rule="evenodd" clip-rule="evenodd" fill="#FFFFFF" d="M573,704.3c-14.4,6.9-26.9,13.6-41.4,16.3
	c-12.6,2.4-25.1,5.9-36.1,13.2c-2,1.3-4.2,2.9-6.5,3.1c-23.1,2.6-41.4,16.9-62.3,24.9c-8,3.1-13,8.7-14.5,16.9
	c3.8,4.1,6.5,1.2,8.9-0.4c19.6-12.7,39.9-23.9,62.8-29.8c8.5-2.2,16.8-5.7,24.8-9.3c7.4-3.3,15-4.8,23-6.2
	c12.5-2.2,24.5-7.7,36.7-11.7c10.4-3.4,13.6-0.9,16.9,13.8c-16.6,9.1-34.4,16.2-52.3,23c-13.6,5.1-27.3,9.7-41.2,14.1
	c-21.5,6.8-43,13.5-63,24.1c-4.3,2.2-9,4.2-12.2,7.6c-3.1,3.3-5.9,8.4,1.6,12.3c29.1-20,63.1-29.5,96.6-40.4
	c15.3-5,30.1-11.1,45.4-16c9-2.9,18.5-4.6,29.1-7.2c2.6,6,5,11.6,7.9,18.4c-4.5,2.3-7.8,4.3-11.3,5.7c-9.7,3.9-19.5,7.6-29.3,11.3
	c-6,2.3-11.9,5.2-18.1,7c-28.2,7.9-75.8,26.6-98.1,39c-2.8,1.6-5.6,3.2-8.2,5.1c-4.5,3.3-4.1,5.6,2.9,14.4
	c25.7-19.1,54.4-32.1,85.1-41.3c26.9-8,52.9-19.1,82.7-21c2.6,4.7,5.1,9.3,7.2,13.2c-1.7,2.8-2.2,4.7-3.5,5.4
	c-10.7,5.6-21.3,11.3-32.2,16.2c-8.8,4-17.9,7.2-27,10.2c-29.7,10-59.7,19.5-89.3,29.8c-10.5,3.7-20.5,9.1-30.3,14.5
	c-3.1,1.7-4.8,5.9-6.8,8.6c4.4,6.5,9.7,6,13.2,2.8c13-11.9,29.6-15.8,45.3-21.6c27.1-10,54.3-19.8,81.8-28.7
	c15.3-4.9,31.2-8,46.9-11.5c2.9-0.7,6.3,0.5,10.2,0.8c1.9,4.6,3.9,8.9,5.5,13.4c0.5,1.3-0.2,3.1-0.5,5.7
	c-15.2,9.6-32.8,14.8-50.2,20.5c-13.7,4.5-27.7,8.9-35.1,18.9c-24.4,5-46.3,9.7-68.4,14c-14.1,2.7-28.4,4.9-41.8,7.2
	c-14.4-11.5-23-24.4-26.6-41c-2.8-13.2-7.8-25.9-9.5-39.5c-1-8.4-4.6-8.8-15-11.1c-13.6-3-26.6-3.8-39.1,1.8
	c-8.3-7.2-7.4-16.6-9.3-26.1c3.5-4.6,7.2-9.8,11.3-14.7c5.6-6.9,6.8-14.5,4-22.7c-3.3-9.9-5.4-20.6-10.5-29.6
	c-16.6-29.3-23.9-61.4-29.9-93.8c-2.5-13.3-1.6-27.1-2.5-40.7c-0.6-8.7-0.7-17.5-2.7-26c-1.1-4.9-5.5-9-9.1-14.6
	c-5.5,4.5-9.7,7.9-13.3,10.8c-0.4,2.7-1.3,4.4-0.9,5.8c6.9,21.5,7.1,44.1,11.4,66c7,35.5,15.3,70.8,30,104.1
	c1.3,2.9,3.4,5.6,4.3,8.6c3.4,11.5-1.8,22.8-13.4,24.2c-20.8,2.4-39.2,15.6-62.7,12.3c-8.6-7-11.9-18.9-15.2-30.3
	c-4.6-16.2-9.2-32.6-11.7-49.3c-2.3-15.9-11.2-30.2-10.3-46.6c-12.2-26.7-9.8-55-9.1-83.1c0.2-8.8-6.9-12.4-14.7-7.5
	c-4,2.6-7.6,5.7-12.4,9.4c2.4,12.4,4.6,24.9,7.3,37.3c5.8,26.6,13,52.8,16.2,80.2c2.5,21.4,10.2,42.2,16.3,63.1
	c3.6,12.2,8.7,24,13.2,36c0.8,2.2,1.2,5.2,2.9,6.5c11.1,8.1,9.6,19.1,7.8,31.6c-6.8,3.4-13.9,7-21,10.4
	c-8.9,4.3-13.7,11.2-13.3,21.1c1.1,28.8,0.1,58.1,18.2,83.2c1.4,1.9,2.1,4.3,2.8,6.7c0.4,1.5,0.1,3.2,0.1,6.2
	c-16.2,8.7-34.9,12.7-53.3,19.4c-19.6-17.9-32.6-38.8-35.8-65.8c-2-17.4-6-34.7-10.6-51.7c-2.1-7.7-4.4-15.4-3.1-23
	c1.8-10.7-2.5-20.2-3.5-30.2c-2-20.5-3-41.1-4.5-61.7c-2-27-0.4-54-0.1-81c0.3-38.5,0.9-76.9,2.1-115.4c0.5-16,1.9-32,2.9-48.1
	c0.1-1.6,0-3.3,0.5-4.8c4.5-13.6,9.2-27.1,14.2-42c13.3-2.6,27.5-5.1,41.5-8.1c5.5-1.1,10.9-2.7,16.1-4.7
	c16.6-6.3,33.2-12.4,49.4-19.5c18.4-8,36.7-16.5,54.5-25.8c9.2-4.8,16.8-4.1,24.6,1.8c1.1,0.8,1.4,2.6,2.8,5.2
	c-8,7.2-19.3,6.2-28.5,10c-9.7,4-20,6.5-29.6,10.5c-9.5,4-18.5,9.2-28.2,14.2c6.5,6.2,11.9,3.1,17.1,0.6
	c21.1-10.3,43.3-16.8,66.5-20.9c9.9-1.8,18.7-0.8,31.2,1.8c-11,6.2-20,7.8-28.9,10c-23.4,5.9-46.8,11.6-69.8,18.8
	c-18.5,5.8-34.7,16.7-50.1,28.4c-1.9,1.4-2,5.2-4.4,11.8c8.3-4.5,13.4-6.5,17.6-9.6c16.9-12.8,35.5-21.9,56.2-26.7
	c22.7-5.3,45.3-11.3,68.1-16c10.7-2.2,21.9-2.6,32.9-3.4c3.8-0.3,8.3-1,10.4,3.9c-0.7,1.3-1.2,3.3-2.2,3.6
	c-8.3,2.1-16.8,3.5-25.1,5.7c-7.7,2-15.2,4.7-22.8,7c-3.8,1.2-7.6,2.7-11.4,3.2c-27.5,3.4-53.4,11.2-76.7,27
	c-10.6,7.1-22.4,12.3-33.5,18.8c-2.3,1.3-3.5,4.5-5.2,6.8c5.6,4.5,8.4,0.7,11.5-1.3c29.8-20,62-34.4,97.2-41.6
	c18-3.7,35.3-10.5,54.1-10.4c10.2,0.1,20.4-1.3,30.5-0.9c3.2,0.1,6.2,3.8,12,7.5c-9.8,4.2-16.7,9.1-24.1,10
	c-24,2.8-46.9,9.9-69.8,16.9c-11.4,3.5-22.4,8.2-33.2,13.3c-2.9,1.4-4.2,6.1-6.4,9.6c2.6,0.5,4.3,1.5,5.3,1
	c23.9-12,49.4-18.3,75.6-23.8c22.3-4.7,44.3-7.2,66.8-8.2c5.5-0.3,11.6-0.6,13.8,8.2c-22.2,9.2-47.1,9.8-69,18.7
	c-21.5,8.7-46.7,7.2-65.3,26.7c-0.1,1,0.7,4.3,5,3.2c5.4-1.3,10.6-3.8,15.8-5.7c36.3-13.2,73.5-22.8,112.2-25.5
	c5.6-0.4,11.3-0.4,16.9-0.2c5.3,0.2,5.9,1.5,8.4,12.5c-3,0.8-6,2.3-9,2.4c-27.8,0.8-53,12.6-79.7,18.4c-12.2,2.6-21.6,12.8-35.8,25
	c9.1-2.3,13-2.4,16.1-4.1c38-20.6,78.8-27,121.4-24.7c6.1,0.3,6.1,0.3,14.4,11.9c-33.1,0.9-61.3,17.2-91.7,26.2
	c-9.2,2.7-18.3,6.3-27.1,10.1c-5.4,2.4-11.3,5-13.8,12.8c3.4-0.3,5.7-0.1,7.8-0.8c30.3-10.6,60.6-21.1,91.8-29.4
	c14.6-3.9,28.7-2.3,43.1-3c4.1-0.2,4.6,0.9,11.6,11.4c-5.2,5.3-12.1,7-18.9,8.4c-36.4,7.3-71.6,18.4-106.1,32.1
	c-10,4-17,11.1-30.2,19.6c8.4,0,11.8,1.1,13.8-0.2c32.1-20,68.5-27.4,104.5-35.7c13.2-3,27-3.9,40.6-4.9c7.5-0.6,11.6,4.3,12.4,13.2
	c-2.6,0.8-5.3,2.4-8.1,2.6c-36.3,3.1-70.6,15.8-106.1,22.8c-20.3,10.9-43.8,15.2-62.6,29.3c3,6.5,7.5,4.3,10.4,2.9
	c40.9-19.8,84.4-30.7,128.8-38.7c11-2,22.3-2.7,33.4-3.8c13.1-1.2,15,0.4,21.9,17.4c-19.9,3.9-39.1,9.5-57.5,17.9
	c-5.6,2.5-13.1,0.7-18.6,3.2c-16.9,7.6-36,8.3-52.5,17.5c-8.3,4.6-18.1,6.7-27,10.3c-11.2,4.6-22.2,9.5-33.1,14.6
	c-2.4,1.2-4,4.2-8.7,9.4c8.1-0.5,13.3,0.7,16.5-1.3c35.4-22.2,75.4-31.8,115.1-42.3c15.6-4.1,30.8-9.3,46.4-13.3
	c8.5-2.2,17.4-2.8,27-4.3c3.1,5.9,5.9,11.4,9.4,18.2c-12.5,6-23.1,12.4-36,14.7c-16.6,3-32.7,7.7-48.2,15.3
	c-15.8,7.8-32.9,12.7-49.2,19.6c-9.6,4.1-18.7,9.3-27.8,14.4c-1.7,0.9-2.1,4-3.4,6.6c2.6,1.1,5,3,6.7,2.5c7.6-2.3,15.5-4.5,22.4-8.3
	c29.8-16.2,61.1-28.4,93.5-37.9c13-3.9,26.9-5.2,40.4-7C567.4,689,567.5,689.4,573,704.3z"/>
<path fill-rule="evenodd" clip-rule="evenodd" fill="#FFFFFF" d="M555.6,890.6c17.5-9.6,36.3-14.8,75.4-20.6c2.6,5,5.4,10.5,8.3,16
	c-2.4,2.2-3.9,4.6-5.9,5.3c-9.1,3-18.6,5.2-27.6,8.6c-2,0.8-4.2,5.4-3.7,7.6c0.6,2.3,4.2,4.8,6.9,5.2c2.9,0.5,6.1-1.4,9.2-1.9
	c7.8-1.3,15.6-2.4,23.3-3.6c2.3,4.8,4.2,8.3,5.6,11.9c0.5,1.3,0.1,3,0.1,5.1c-9,3.2-18.1,6.2-27,9.8c-4.9,2-7.6,5.7-5,11.9
	c12.8,4.5,24.5-6.5,38.9-3.1c2.5,6.5,5.3,13.7,8.1,20.6c-8,8.2-22.1,6.2-27.9,17.7c11.3,5.3,11.3,5.3,33.7,2.8
	c2.4,5.3,5,10.9,8.3,18c-10.1,8.9-20,17.7-30.4,26.9c9.8,3.6,17.7,5.5,25.9-1.2c3.2-2.6,8.8-2.2,14.4-3.3c1.6,5.6,2.9,9.9,3.9,13.5
	c-1.9,2.4-2.6,4.3-3.9,4.8c-9.5,4.3-19.5,7.8-26.5,16.1c-0.8,0.9-0.5,2.8-0.9,5.7c12.4,1.4,22.7-8.1,36.7-6.7
	c2.5,5.2,5.4,11.3,8.5,17.8c-11.6,7.8-23.2,10.9-35,13.2c-6.2,1.3-10.3,4.3-9.1,12.3c17.1,4.2,31.8-9.7,50-7.9
	c1.6,5.4,3.1,10.6,4.6,15.4c-1.3,1.8-1.9,3.6-3.1,4.4c-7.5,4.6-14.7,9.9-22.7,13.4c-50.3,21.6-100.7,42.9-148.9,69.2
	c-31.8,17.3-62.8,36.1-94.1,54.2c-2.1,1.2-4.2,2.6-5.6,4.5c-3.2,4-1.7,7.3,3.4,10.9c85.1-59.3,179.4-100.7,278.1-136.9
	c2.2,9.1,3.9,15.8,5.7,23.2c-51.3,19.6-100.5,40.8-147,67.7c-0.9,0.5-0.7,2.7-1.4,5.8c10.6-0.6,17.5-8.3,26.2-11.3
	c9.1-3.1,17.9-7.3,26.7-11.1c8.2-3.5,16.3-7.1,24.4-10.5c8.9-3.7,17.6-8.2,26.9-10.7c8.9-2.5,17.5-8.7,29.2-4.8
	c-2.7,3.1-4.3,6-6.7,7.5c-22.8,13.7-45.4,27.6-70.1,37.8c-10.4,4.3-20.1,10.3-30.2,15.2c-37.8,18.1-75.3,36.7-113.5,53.8
	c-21.2,9.5-43.6,16.5-65.6,24.3c-17.4,6.2-34.7,13-52.6,17.5c-29.6,7.4-59.5,13.3-89.7,18c-12.6,2-25.4,3.7-37.2,10
	c-4.8,2.6-10.7,3.2-16.3,4c-11.5,1.8-20.8-2.8-27.4-11.9c-15.5-21.3-26.2-44.2-21.4-73.4c6.3-2.5,12.7-6,19.5-7.4
	c33.1-6.8,66.5-12.6,99.6-19.7c14.9-3.1,29.3-8.5,44-12.5c10-2.7,20.3-4.6,30.4-6.9c3.1-0.7,6.1-1.8,9.2-2.8
	c8.3-2.8,16.5-7.2,25-8.4c25.9-3.5,48-17,71.5-26.6c20-8.2,39.1-18.8,60.2-24.5c4.5-1.2,8.5-4.3,12.6-6.7c4.1-2.4,7.8-6,12.3-7.5
	c19.4-6.5,32.5-19.8,41.7-37.5c0.7-1.4,1.6-2.8,2.7-4c17.3-19.7,17.7-41.6,11.1-65.8c-5.9-21.6-9-43.9-13.6-65.8
	c-2.3-11-5.1-21.9-7.9-32.8c-0.8-3.1-3.3-6-3.3-9.1c0-24.5-15.9-36.8-35.2-46.7C559.4,893.6,557.7,892,555.6,890.6z"/>
<path fill-rule="evenodd" clip-rule="evenodd" fill="#FFFFFF" d="M63.6,1142.3c-14-26.7-20.4-54.9-18.3-85.8
	c15.3-7.3,30.4-14.2,46.5-19.6c26.6-8.8,52.9-18.7,79.3-27.9c8.3-2.9,16.7-5.8,25.3-7.6c28.4-6.1,55.6-15.9,83.1-24.9
	c17.5-5.7,36.1-8.4,53.6-14.2c32.2-10.6,65.2-18,98.3-24.3c27.6-5.2,54.2-15,82.1-18.3c13.2-1.6,26.7-6.8,40,1.5
	c4.3,2.7,8.7,3.7,7,9.9c7.1,7.6,6.9,17.4,8.9,26.8c4.1,18.8,9.5,37.2,18,54.9c7.5,15.8,11.5,33.4,16.8,50.3c0.9,3,1.1,6.4,1,9.5
	c-0.5,19.6-19.6,49.2-37.1,59c-42.5,23.7-87.7,40.3-134.3,53.4c-14.6,4.1-28.9,9.3-43.4,13.8c-23.8,7.5-47.4,15.7-71.4,22.3
	c-38,10.5-75.9,21.6-114.4,29.3c-29.7,5.9-60.2,11.4-90.9,5c-18.8-15.7-28.7-36.6-35.3-59.3c-4-13.9-6.9-27.9-14.1-40.8
	c-2.1-3.8-1.1-9.3-1.6-14.1c7.7-1.3,15.4-2.5,24.1-4c6.4,10.8,11.2,22.3,12.1,35.5c-3.5,3-7.2,5.2-9.3,8.4c-2,3-4.5,8.5-3.2,10.4
	c3.9,5.5,8.1,1.1,12.1-1.7c1.7-1.2,4.1-1.4,5.3-1.7c13.3,11.2,9.5,31.8,26.3,41.3c9.1-4.5,17-12,26-15.8
	c11.3-4.7,11.5-16.7,20.6-22.6c2.6,2.1,4.9,4.2,7.5,5.9c4.8,3.3,9.3,2.1,12.6-2.2c3.6-4.7,2.6-8.2-2.6-11.7
	c-7.4-5.1-2.8-8.8,3.5-12.6c2.3,4.1,3.8,9,7.2,11.8c2.4,2,7.4,2,10.9,1.3c3.6-0.7,4-6.1,1-10.2c-2.8-3.9-6.3-7.3-8.8-11.3
	c-1.9-3,3-11.6,6.6-11.3c2.6,0.2,6.4,2.3,7.4,4.6c6.7,15.3,12.8,30.9,19.5,47.5c-8.1,7.7-15.5,14.8-23,22c1.6,4.4,4,7.3,8.9,5.6
	c2.2-0.8,4.2-2.4,6.1-3.7c8.8-6.1,14.9-14.5,20.2-23.6c5.4-9.3,18.8-9.2,23.1-20.2c1.5-3.9,6.2-6.6,9.7-10.1
	c4,4.9,6.5,9.2,10.1,12.1c2,1.6,6,1.9,8.7,1.2c3.6-0.9,4.9-6.9,2.5-10.3c-3.6-5.1-7.6-9.8-12.2-15.7c7.3-6.2,10.6-14.7,20.4-19.7
	c5.1,13.5,9.9,25.9,14.7,38.6c9.3,0.6,17.2,1.1,24.9,1.6c6.8-5.5,13.6-10.1,19.1-15.8c5.3-5.6,9.3-12.4,14.2-19.3
	c4.6,7.3,7,15.9,16,13.6c3.3-0.8,5.4-6.7,7.9-10c-5.2-4.7-9.1-8.3-14.2-12.9c6.1-5.8,11-10.5,17.6-16.7c2.4,5.5,3.8,8.9,5.4,12.4
	c2.9,6.6,5.3,13.5,8.9,19.7c1,1.8,5.6,2.6,8.2,2.1c4.2-0.8,6.6-6.6,3.9-9.5c-10.4-11.3-11.6-25.7-15.4-38.8
	c3.8-6.3,7.2-11.7,15.9-12.4c3,7.3,5.4,15,9.3,21.8c4.2,7.5,9.8,14.2,14.9,21.4c-7.9,7.9-16,15.4-21.4,28.1
	c5.9-0.8,10.6-0.1,12.8-2.1c5.9-5.4,10.6-12.1,16-18c5.8-6.5,11.8-12.7,18-19.3c4.9,2.1,8.3,4.1,12.1,5c2,0.5,5.1-0.2,6.5-1.7
	c1.3-1.3,1.8-4.6,1-6.4c-1.8-4.3-4.6-8.3-7.4-13.1c4.1-3.9,7.9-7.6,12.4-11.9c4.9,9.7,9.1,18,13.6,27c4.9-2.1,8.3-3.5,14.1-5.9
	c-8.8-11.6-18-21-19.1-35.1c4.7-4.7,9.6-9.6,15.9-15.8c4.5,9.4,8.2,17,11.7,24.3c9.3,2.1,12.2-2.8,12.8-10.3c-1-1.2-1.7-2.7-2.9-3.6
	c-12-9.7-12.8-14.6-3.6-25.1c5.3-6.1,11.4-11.5,16.2-17.9c2.1-2.7,3.2-7.6-4.1-9.9c-5.8,5.5-12.1,11.6-18.5,17.4
	c-2.7,2.4-8.9,1.1-10.6-2.1c-1.1-2.1-2.6-4.3-2.9-6.6c-3.7-27.5-20-50.6-26.5-77.1c-0.4-1.5-1.4-3-2.5-4c-1.1-1-2.8-1.3-4.9-2.3
	c-1.9,2.1-4.1,4.4-6.3,6.8c3.8,17.3,17.5,31.6,14.5,50.8c-4.7,3.2-9.1,6.2-14.4,9.7c-2.2-7.4-2.3-14.8-6-18.5
	c-6.1-6-3.2-13.8-6.9-20c-3.2-5.3-3.7-12.5-12.4-15.4c-1.5,3.2-4.7,6.8-4.1,9.6c1.6,7,4.8,13.6,7.6,20.2c4.7,11,9.5,21.9,13.9,32
	c-4.6,6.7-6.5,13.7-15.3,13.3c-15-20.2-16.7-46.4-28.5-69.4c-4,1.6-7.3,3-11.2,4.6c2,8.7,3.7,16.4,5.7,25.2c-5,2.2-9.2,3.9-12.9,5.5
	c-1.5-1.3-2.4-1.7-2.7-2.4c-1.8-5.3-3.4-10.6-5.2-15.9c-1.5-4.6-2.7-9.6-8.8-10c-4.5-0.3-7.7,6.6-5.9,13.5c1.2,4.6,3.5,9,4.9,13.6
	c1.8,6,3.1,12.2,4.6,18.2c-4.2,3.1-7.3,5.5-10.5,7.7c-0.4,0.3-1.4-0.2-2.7-0.5c-2.7-14.7-13.3-27.2-13.7-43c0-1.4-1.4-3.2-2.6-4
	c-2.5-1.6-5.6-4-8-3.6c-4.2,0.7-6.9,4.5-6,9c0.9,4.7,2.3,9.4,4.2,13.8c3.2,7.4,6.7,14.7,10.5,21.8c6.7,12.6,9.2,24.1-5.4,33.4
	c-3.1,2-4.7,6.3-6.9,9.6l0.5-0.7c-2.5-25.3-16.5-46.7-24.2-70.2c-0.4-1.3-4.2-2.6-6.1-2.2c-2,0.4-4.8,2.5-5.1,4.2
	c-0.4,2.9,1.1,6,1.4,9.1c0.6,6-2.6,10.7-8.7,12.3c-6.2,1.6-8.5-2.5-9.6-7.8c-0.5-2.3-0.7-5-2.1-6.7c-1.3-1.6-4.6-3.5-5.8-2.9
	c-2.5,1.3-5.2,3.9-5.8,6.5c-0.7,2.8,0.8,6.1,1.6,9.1c1.4,5.3,3,10.6,4.1,14.4c-4.2,7.4-7.4,12.9-15.3,12.2c-9.7-11.3-2-27.9-12.6-38
	c-11.4-1-10,11.1-16.6,15.6c-8.2,5.6-17.1,0.8-25.4,4.1c0.5,7.8,1.9,15.6-8.3,18.5c-3.7-2.9-7.8-6-13.8-10.6
	c-1.4,6.5-3,10.8-3.2,15.3c-0.2,4.5,0.8,9.1,1.3,13.7c-4.7,2.4-8.2,4.1-13,6.5c-1.8-7.5-3-13.6-4.8-19.7c-1.8-5.9-4.2-11.5-5.9-16.2
	c3.4-5.4,11.4-4.9,9.1-13.4c-15.8,5-28.2,18-44.1,18c-6.1,7-1.1,18.5-13.8,20.5c-1.6-1.6-3.5-4.1-6-5.8c-1.7-1.1-4.8-2-6.3-1.2
	c-1.7,0.8-3.6,4.5-3,5.7c5.5,10.6-0.3,16.6-8.4,21.7c-1,0.6-2.7,0.1-5,0.1c-1.5-4-2.5-8.8-4.8-12.8c-2.7-4.8-6.7-7-11.6-0.9
	c2.1,8.9,4.3,18.1,6.8,28.4c-5.7,3.5-10.8,6.7-16.9,10.5c-3.5-10.9-6.1-20-9.5-28.9c-1.4-3.7-4.7-7.3-9.2-6.2
	c-3.5,0.8-6.5,3.5-9.6,5.2c5.4,14.6,10.4,27.9,14.8,40c-2.1,9.4-8.1,13.6-13.9,17.9C63.3,1134.3,63.1,1138.2,63.6,1142.3z"/>
<path fill-rule="evenodd" clip-rule="evenodd" fill="#FFFFFF" d="M88.7,368.4c-10.8-5-20-9.7-29.7-13.5c-15.5-6-23.3-16.8-21.5-33.5
	c0.9-7.9,1.9-16.3,5.2-23.3c11.8-25.5,24.2-50.6,41.8-73c7.2-9.1,15-16.8,24.3-23c33.2-22.1,69.2-37.3,108.5-45.2
	c15.7-3.2,31-8,47.6-12.3c6.1,3.7,5.8,11,5.8,18.3c0.2,23.2,0,46.4,0.9,69.6c0.7,17.6,3.2,35.2,4.1,52.8c0.6,11-0.3,22.1-0.5,33
	c-24.6,5.9-47.9,11.6-71.3,17c-24.3,5.6-48.9,10.1-72.9,16.6C116.8,355.8,103.2,362.6,88.7,368.4z M118,229.7
	c-5.2,3.2-10.4,6.4-15.7,9.7c2.1,8,3.3,15,5.9,21.5c3.8,9.5,15.3,10.7,20.8,2.4c3.9-5.9,7-12.2,9.9-17.4
	C136.6,233,124.7,235.6,118,229.7z M171.7,205.1c-2.1,1.8-8.4,4.7-8.4,7.6c-0.1,7.5,1.8,15.4,4.6,22.5c1.9,4.7,7.8,5.2,12.6,3.7
	c7.1-2.2,12.7-11.8,11.5-18.8C190.4,210.2,183.4,204.4,171.7,205.1z"/>
<path fill-rule="evenodd" clip-rule="evenodd" fill="#FFFFFF" d="M224.7,125.3c-12.2,10.2-28.1,11.2-42.3,16.5
	c-7.2,2.7-14.9,3.9-23.6,6.1c-5.4-17.3-14.5-31.5-15.1-49c-0.2-5.9-4-12.1-7.3-17.4c-1-1.7-6.2-2.5-8.5-1.5c-2.3,1-5.2,5.1-4.7,7.2
	c1.7,7.7,4.4,15.2,7.2,22.6c5.1,13.4,10.6,26.7,16.2,40.6c-13.6,13-46.2,32.1-65.6,38.2c-24.4-5.6-37.2-24.7-51.2-42.2
	c-3.2-4-2.7-9.1-0.2-13.8c5.4-10.2,13.9-17.5,22.9-24.3c6.4-4.8,13.4-9,19.4-14.2c24.7-21.6,51.9-35.4,85.8-42.8
	c4.5,16.2,4.1,33.1,6.6,49.5c1.6,10.3,3.7,20.5,6.3,30.6c0.6,2.2,4.1,3.7,8,6.9c1.9-31.6-7.6-60.4-2.4-91c31-6.9,62.9-11.1,94.3,1.7
	c8.1,31.9,9.4,49-7.6,69.8c-1.8-2.9-4.3-5.3-4.6-8c-2.1-17.4-4.3-34.7,0.3-52.1c0.9-3.4-4.2-8.4-7.6-7.5c-2.8,0.7-5.7,2.8-7.4,5.1
	c-1.2,1.6-0.5,4.6-0.5,6.9c-0.2,18.6,1.9,36.9,6,55.1c0.1,0.6-0.4,1.4-0.7,2.9c-7.2,4.7-15.2,7.6-24.4,4.8
	c-0.8-7.9-0.7-16.1-2.6-23.8c-2.4-9.7-2.6-18.6,0.3-28.3c1.6-5.4-0.5-11.9-0.9-17.8c-3.3,0.2-5.2-0.3-6.3,0.4
	c-1.9,1.3-4.4,3.1-4.7,5c-1.2,8.6-3,17.4-2.1,26c1.3,13.2,4.5,26.3,7.1,41C219.1,127,221.9,126.2,224.7,125.3z M112.3,165.3
	c1.2-1.6,2.2-2.5,2-2.9c-4.9-15.9-9.7-31.8-15-47.5c-0.6-1.9-3.7-4.3-5.4-4.2c-2.8,0.3-6.3,1.8-7.9,4c-1.6,2.2-2.5,6.4-1.4,8.7
	c6.2,12.9,13,25.6,20.1,38C105.9,163.4,109.8,164,112.3,165.3z"/>
<path fill-rule="evenodd" clip-rule="evenodd" fill="#FFFFFF" d="M255.9,951.5c-17.8-17.4-20.8-39.7-31-58.4c-5-9.1-2.4-19,0.6-28.2
	c1.9-5.8,12.1-8.9,16.2-4.2c13.3,15,32.2,11.8,48.7,16.4c1.6,0.4,4.4-1.5,5.9-3.1c3.4-3.6,6.1-2.4,10.4-1c13,4.2,20,1.4,26.7-9
	c2.2-3.4,4-7,5.4-10.8c1.4-3.7,2.2-7.5,3.7-12.8c6.3,0,12.6-0.7,18.7,0.2c9.6,1.3,16.1,7,18.6,16.6c1.7,6.2,3.2,12.5,4.2,18.8
	c1.6,10.2,2.3,20.3,7,30c3.9,8.1,0.1,13.8-8.9,15.9c-12.5,2.9-25.2,5-37.7,8.1c-26.5,6.4-52.9,13.3-79.4,19.9
	C261.9,950.6,258.7,951,255.9,951.5z"/>
<path fill-rule="evenodd" clip-rule="evenodd" fill="#FFFFFF" d="M97.3,393.8c14.6-21.6,37-22.2,56.8-26.9
	c28.1-6.7,56.9-10.9,85.4-15.6c8.7-1.4,17.8-1.7,26.5-0.6c6.1,0.7,12.4,3.6,17.5,7.1c10.4,7.2,8.5,16.9-3.5,21.6
	c-3,1.2-6.1,2.8-9.2,3c-23,1.6-43.2,11.8-62.8,22.2c-17.5,9.2-36.2,13.6-54.8,18c-17.1,4-33.9,2.7-44.4-15.3
	C106,402.7,101.7,398.9,97.3,393.8z"/>
<path fill-rule="evenodd" clip-rule="evenodd" fill="#FFFFFF" d="M252.2,832.7c1.9-9.1,3.6-16.8,5.5-25.7
	c15.2-5.4,31.1-10.2,47.8-9.4c10.5,11.9,12.5,26.7,17.7,40c3.9,9.9-2.5,18.4-12.8,22c-17.5,6.1-31-3.8-44.5-11.6
	C260.1,844.6,256.4,837.5,252.2,832.7z"/>
<path fill-rule="evenodd" clip-rule="evenodd" d="M63.6,1142.3c-0.5-4.1-0.3-8,3.4-10.9c5.8-4.4,11.8-8.6,13.9-17.9
	c-4.5-12-9.4-25.3-14.8-40c3.1-1.7,6.1-4.4,9.6-5.2c4.5-1.1,7.8,2.5,9.2,6.2c3.3,8.9,6,18.1,9.5,28.9c6.2-3.8,11.3-7,16.9-10.5
	c-2.5-10.3-4.7-19.5-6.8-28.4c4.8-6.1,8.8-3.9,11.6,0.9c2.3,4,3.3,8.8,4.8,12.8c2.3,0,4.1,0.5,5-0.1c8.1-5.1,13.9-11.1,8.4-21.7
	c-0.6-1.2,1.4-4.8,3-5.7c1.5-0.8,4.6,0,6.3,1.2c2.5,1.6,4.4,4.2,6,5.8c12.7-2,7.7-13.5,13.8-20.5c15.9,0,28.3-13,44.1-18
	c2.3,8.5-5.7,7.9-9.1,13.4c1.7,4.7,4.1,10.4,5.9,16.2c1.8,6,3,12.2,4.8,19.7c4.9-2.4,8.3-4.1,13-6.5c-0.5-4.6-1.5-9.2-1.3-13.7
	c0.2-4.4,1.8-8.8,3.2-15.3c6,4.6,10,7.8,13.8,10.6c10.1-2.9,8.8-10.7,8.3-18.5c8.3-3.3,17.2,1.4,25.4-4.1
	c6.5-4.4,5.2-16.5,16.6-15.6c10.6,10.2,2.9,26.7,12.6,38c7.8,0.7,11.1-4.8,15.3-12.2c-1.1-3.9-2.7-9.1-4.1-14.4
	c-0.8-3-2.2-6.4-1.6-9.1c0.6-2.6,3.3-5.2,5.8-6.5c1.1-0.6,4.5,1.3,5.8,2.9c1.4,1.7,1.6,4.4,2.1,6.7c1.1,5.3,3.4,9.3,9.6,7.8
	c6.1-1.5,9.3-6.3,8.7-12.3c-0.3-3.1-1.9-6.2-1.4-9.1c0.2-1.7,3.1-3.8,5.1-4.2c1.9-0.3,5.6,0.9,6.1,2.2c7.7,23.5,21.7,44.9,24.3,70.2
	c6.6,18.2,11.5,37.1,18.8,55.8c10.6-5.3,19-11.3,16.4-22.4c-3.5-15-4.7-30.9-12.6-46c-4.3,3.2-7.1,5.9-10.5,7.7
	c-4,2.2-8.5,3.7-12.7,5.5c2.3-3.3,3.8-7.6,6.9-9.6c14.6-9.3,12.1-20.8,5.4-33.4c-3.8-7.1-7.3-14.4-10.5-21.8
	c-1.9-4.4-3.3-9.1-4.2-13.8c-0.9-4.6,1.9-8.3,6-9c2.4-0.4,5.5,2,8,3.6c1.2,0.8,2.6,2.6,2.6,4c0.4,15.8,11,28.3,13.7,43
	c1.3,0.3,2.3,0.8,2.7,0.5c3.2-2.2,6.3-4.6,10.5-7.7c-1.5-6-2.8-12.2-4.6-18.2c-1.4-4.6-3.7-8.9-4.9-13.6c-1.8-6.9,1.3-13.8,5.9-13.5
	c6.1,0.4,7.3,5.4,8.8,10c1.7,5.3,3.4,10.6,5.2,15.9c0.2,0.7,1.2,1.1,2.7,2.4c3.7-1.6,7.8-3.4,12.9-5.5c-2-8.8-3.7-16.4-5.7-25.2
	c3.9-1.6,7.3-3,11.2-4.6c11.9,23.1,13.5,49.2,28.5,69.4c8.8,0.3,10.7-6.6,15.3-13.3c-4.4-10.1-9.3-21-13.9-32
	c-2.8-6.6-6-13.2-7.6-20.2c-0.6-2.8,2.7-6.5,4.1-9.6c8.8,2.9,9.3,10.1,12.4,15.4c3.7,6.1,0.8,13.9,6.9,20c3.7,3.7,3.8,11.1,6,18.5
	c5.3-3.6,9.7-6.6,14.4-9.7c2.9-19.2-10.8-33.4-14.5-50.8c2.2-2.4,4.3-4.7,6.3-6.8c2.1,0.9,3.8,1.3,4.9,2.3c1.1,1,2.1,2.5,2.5,4
	c6.5,26.5,22.8,49.7,26.5,77.1c0.3,2.3,1.7,4.5,2.9,6.6c1.7,3.2,7.9,4.6,10.6,2.1c6.5-5.8,12.7-11.9,18.5-17.4
	c7.3,2.3,6.2,7.2,4.1,9.9c-4.8,6.4-10.9,11.8-16.2,17.9c-9.2,10.5-8.4,15.4,3.6,25.1c1.2,0.9,1.9,2.4,2.9,3.6
	c-0.6,7.5-3.5,12.4-12.8,10.3c-3.5-7.3-7.2-14.9-11.7-24.3c-6.3,6.3-11.2,11.2-15.9,15.8c1.1,14.1,10.4,23.5,19.1,35.1
	c-5.9,2.5-9.2,3.9-14.1,5.9c-4.5-9-8.7-17.3-13.6-27c-4.5,4.3-8.3,8-12.4,11.9c2.8,4.8,5.6,8.8,7.4,13.1c0.8,1.8,0.2,5.1-1,6.4
	c-1.4,1.4-4.5,2.2-6.5,1.7c-3.7-0.9-7.2-2.9-12.1-5c-6.1,6.6-12.2,12.8-18,19.3c-5.4,6-10.1,12.7-16,18c-2.2,2-6.9,1.3-12.8,2.1
	c5.4-12.8,13.5-20.2,21.4-28.1c-5.1-7.2-10.7-13.9-14.9-21.4c-3.9-6.8-6.3-14.5-9.3-21.8c-8.7,0.7-12,6.1-15.9,12.4
	c3.8,13.1,5,27.5,15.4,38.8c2.7,2.9,0.2,8.6-3.9,9.5c-2.6,0.5-7.2-0.3-8.2-2.1c-3.6-6.2-6.1-13.1-8.9-19.7c-1.5-3.5-3-6.9-5.4-12.4
	c-6.6,6.2-11.5,10.9-17.6,16.7c5.1,4.6,9,8.2,14.2,12.9c-2.5,3.3-4.6,9.1-7.9,10c-9,2.2-11.4-6.3-16-13.6c-5,6.9-8.9,13.7-14.2,19.3
	c-5.5,5.8-12.3,10.3-19.1,15.8c-7.7-0.5-15.6-1-24.9-1.6c-4.8-12.6-9.5-25-14.7-38.6c-9.8,5-13.1,13.5-20.4,19.7
	c4.6,5.9,8.6,10.6,12.2,15.7c2.4,3.3,1.1,9.3-2.5,10.3c-2.7,0.7-6.7,0.4-8.7-1.2c-3.6-3-6.2-7.2-10.1-12.1
	c-3.5,3.5-8.1,6.2-9.7,10.1c-4.4,11-17.8,10.9-23.1,20.2c-5.3,9.1-11.4,17.5-20.2,23.6c-2,1.4-3.9,2.9-6.1,3.7
	c-4.9,1.8-7.3-1.2-8.9-5.6c7.5-7.2,14.9-14.3,23-22c-6.7-16.6-12.8-32.2-19.5-47.5c-1-2.3-4.7-4.4-7.4-4.6
	c-3.6-0.3-8.5,8.3-6.6,11.3c2.5,4,6,7.4,8.8,11.3c3,4.1,2.6,9.5-1,10.2c-3.5,0.7-8.5,0.7-10.9-1.3c-3.3-2.8-4.8-7.7-7.2-11.8
	c-6.3,3.8-10.9,7.6-3.5,12.6c5.2,3.5,6.2,7,2.6,11.7c-3.4,4.3-7.8,5.5-12.6,2.2c-2.6-1.8-4.9-3.9-7.5-5.9
	c-9.1,5.8-9.3,17.8-20.6,22.6c-9,3.8-16.9,11.3-26,15.8c-16.8-9.5-13-30.1-26.3-41.3c-1.1,0.4-3.6,0.5-5.3,1.7
	c-3.9,2.8-8.1,7.1-12.1,1.7c-1.3-1.8,1.1-7.4,3.2-10.4c2.1-3.2,5.8-5.3,9.3-8.4c-0.9-13.3-5.7-24.7-12.1-35.5
	c-8.7,1.4-16.4,2.7-24.1,4C62.8,1141.5,63.6,1142.3,63.6,1142.3z M362.6,1083.7c6.3-22.1-4-40-12.7-58.6
	c-17.2,7.5-18.4,10-13.2,22.8c4.8,11.7,9.3,23.6,14.1,36c3.5-0.3,8.1-0.6,12.6-1c-0.9,2.2-1.2,5.1-2.8,6.4
	c-7.4,6.2-7.4,13.6-4.1,21.7c4.6,11.4,9.3,22.8,14.1,34.6c14.7-11.2,15.2-11.4,10.7-23.6c-2.3-6.1-4.3-11.8-3.1-18.5
	c1.2-6.8-2.3-12.6-6.9-17.1C369.5,1084.4,365.6,1084.5,362.6,1083.7z M275.7,1085.2c4.7,35.4,8.5,46.9,19.8,60.8
	c5.5-5.7,10.9-11.3,15.2-15.9c-3.8-20.9-8.9-39.7-19.8-57.9C285.6,1076.7,280.9,1080.7,275.7,1085.2z M321.4,1117.7
	c4.4-3.9,7.2-6.4,10-9c3.4-3.2,6.8-6.5,10.4-9.9c-5.6-17.9-11.1-34.9-22.3-51.8c-5.6,5-10,9-14.1,12.6
	C306.7,1080.3,315.7,1097.3,321.4,1117.7z M360.7,1160.8c-2.4-9.1-4-15.2-5.6-21.3c-2.5-9.8-5.8-19.1-12.7-26.7
	c-19,12.5-19.1,13.1-12.4,30.9c2,5.2,2.7,10.9,5.4,15.6c2.6,4.4,7,7.7,11.2,12.1C352.2,1167.2,356.5,1164,360.7,1160.8z
	 M513.5,1084.5c-6-16.1-11.3-30.2-17.2-45.9c-6,4.6-11.5,8.8-16.4,12.5c-1.2,19.3,12.2,32,16.4,49.9
	C502.3,1095.2,507.3,1090.5,513.5,1084.5z M116.5,1172.7c0.5,17.2,10.2,28.3,15.1,41.5c11.3-6,11.5-5.9,19.9-18.6
	c-6-12.3-12.2-24.9-18.7-38.3C127.4,1162.4,122.2,1167.3,116.5,1172.7z M270.5,1171.2c6.4-5.8,12.5-9.1,10.6-16.5
	c-4.8-18.5-10.4-36.7-15.7-55.2c-13.1,4.9-16.7,14.3-13.1,25.5C257.1,1139.9,263.7,1154.3,270.5,1171.2z M448.3,1009.6
	c-5.5,4.6-10.9,9-17,14.1c8.2,13.6,6.2,30.8,17.2,45.2c6.5-6.3,12.2-11.7,18.7-18C460.7,1036.7,454.5,1023.1,448.3,1009.6z
	 M473.3,1121.6c10.4-0.5,13.9-6.5,12.2-11.6c-4.7-14.9-9-30.3-17.4-44.4c-8.7,4.8-14.5,9.8-17.3,18.9
	C458.2,1096.7,465.6,1109,473.3,1121.6z M115.3,1105.7c-7.7,7.5-15.8,11.2-14.7,19.4c1.4,10.8,2.2,22.4,10.8,31.5
	c8.8-2.1,13.9-7.6,17.5-13.9C124.4,1130.3,120.3,1119.3,115.3,1105.7z M419.1,1033c-4.1,3-7.2,5.3-9.9,7.3
	c3.4,16.4,6.5,31.8,10,47.1c0.4,1.6,3.1,2.7,5.7,4.8c4.1-4.5,7.6-8.5,11.4-12.6C429.1,1064.8,435,1046.6,419.1,1033z M522,1020.2
	c-12.8,5.2-14.7,6.5-13.1,13.8c2.6,11.4,6.4,22.6,9.9,33.8c0.3,1.1,2,1.7,4.3,3.6c4.9-4.2,10-8.6,15.1-13.1
	C532.4,1044.6,527.2,1032.4,522,1020.2z M139.4,1082.8c-5.5,5.6-12.6,9.6-12.4,13.1c0.7,12.2,3,24.6,11.6,35.8
	c5.6-3.3,10.2-6,15.2-8.9C149.5,1110,148.5,1097.1,139.4,1082.8z M153.6,1135.5c-3.3,3.8-7.4,6.3-7.9,9.4
	c-0.9,6.2-1.2,13.1,0.8,18.9c2.8,8.1,8,15.4,13.1,24.8c5-5,8.6-8.5,13-12.8C161.5,1164.6,167.7,1147.9,153.6,1135.5z M239,1127.8
	c-11.4,8.6-12.9,10.5-9.1,18.6c5.7,12.4,12.1,24.6,18.8,36.5c2.1,3.7,6.2,5.1,9.6,0.5C254.1,1157.9,249.5,1144.6,239,1127.8z
	 M269.8,1073.3c20.5-14,21.8-17.5,14.4-34.8c-1.6-3.6-3.8-7-5.7-10.5c-18.5,10.1-18.9,11.1-13.2,29.5
	C266.7,1061.9,267.9,1066.4,269.8,1073.3z M201.1,1144.2c10.1-5.4,12.6-7.7,11.4-12.9c-2.8-12.3-6.4-24.4-10.2-38.9
	c-6.7,5.4-11.3,9.1-15.6,12.5C190.7,1119.4,192.7,1133,201.1,1144.2z M223.3,1072.6c-4.1,4.3-10.2,7.8-9.9,10.7
	c1.3,13.1,1.9,26.8,11.2,37.6c7.6-2.9,13.3-8.1,11.2-14.6C232.5,1095.9,234.1,1083.7,223.3,1072.6z M249.8,1049.8
	c-10.8,10-13.4,13.3-12.1,17.9c2.5,9.2,5.8,18.2,9.1,27.1c0.3,0.9,2.6,1.1,5.6,2.2c3.1-4.8,6.4-9.9,9.4-14.7
	C257.8,1071.4,254.2,1061.7,249.8,1049.8z M198.4,1078.3c-4-12.1-7.5-23-11.9-36.3c-4.6,5.5-9.1,8.6-10.1,12.5
	c-3.1,13,2.6,24.4,8.4,38.1C190.4,1086.7,194.5,1082.4,198.4,1078.3z M160.9,1064.7c-3.3,3-8.4,5.6-8.3,7.9
	c0.7,14.1,4.7,27.4,13.7,41.2c3.3-5.1,7.5-8.7,6.9-11.3C170.6,1090.2,169.1,1077.3,160.9,1064.7z M177.2,1119.5
	c-11.6,5.2-12.1,5.8-9.9,12.6c3,8.9,5.8,18,9.3,26.7c0.7,1.8,4.2,4.1,5.5,3.6c2.7-0.9,5.7-3.2,6.8-5.7c1.1-2.6,1-6.4,0-9.1
	C185.4,1138.1,181.2,1128.8,177.2,1119.5z"/>
<path fill-rule="evenodd" clip-rule="evenodd" d="M118,229.7c6.7,5.9,18.6,3.4,20.8,16.2c-2.9,5.2-6,11.6-9.9,17.4
	c-5.5,8.3-17,7.1-20.8-2.4c-2.6-6.5-3.8-13.5-5.9-21.5C107.6,236,112.8,232.8,118,229.7z"/>
<path fill-rule="evenodd" clip-rule="evenodd" d="M171.7,205.1c11.7-0.7,18.7,5.1,20.3,15c1.2,7-4.4,16.6-11.5,18.8
	c-4.8,1.5-10.8,1-12.6-3.7c-2.8-7.1-4.6-15-4.6-22.5C163.3,209.8,169.6,206.9,171.7,205.1z"/>
<path fill-rule="evenodd" clip-rule="evenodd" d="M224.7,125.3c-2.8,0.9-5.6,1.7-9.8,3.1c-2.6-14.7-5.8-27.7-7.1-41
	c-0.8-8.5,0.9-17.4,2.1-26c0.3-1.9,2.8-3.8,4.7-5c1.1-0.7,3-0.3,6.3-0.4c0.4,5.9,2.5,12.4,0.9,17.8c-2.9,9.7-2.6,18.6-0.3,28.3
	c1.9,7.7,1.7,15.9,2.6,23.8C224,125.9,224.7,125.3,224.7,125.3z"/>
<path fill-rule="evenodd" clip-rule="evenodd" d="M112.3,165.3c-2.5-1.2-6.4-1.9-7.6-4c-7.1-12.4-13.8-25.1-20.1-38
	c-1.1-2.2-0.2-6.5,1.4-8.7c1.6-2.2,5.1-3.7,7.9-4c1.7-0.2,4.7,2.3,5.4,4.2c5.3,15.8,10.1,31.7,15,47.5
	C114.4,162.8,113.5,163.6,112.3,165.3z"/>
<path fill-rule="evenodd" clip-rule="evenodd" fill="#FFFFFF" d="M275.7,1085.2c5.2-4.5,9.9-8.5,15.2-13
	c11,18.3,16.1,37.1,19.8,57.9c-4.3,4.5-9.7,10.1-15.2,15.9C284.2,1132,280.4,1120.6,275.7,1085.2z"/>
<path fill-rule="evenodd" clip-rule="evenodd" fill="#FFFFFF" d="M375.6,1066.3c4.3-1.8,8.7-3.3,12.7-5.5c3.3-1.8,6.2-4.5,10.5-7.7
	c7.9,15.1,9,31,12.6,46c2.6,11.1-5.8,17.1-16.4,22.4c-7.4-18.8-12.2-37.7-18.8-55.8C376,1065.6,375.6,1066.3,375.6,1066.3z"/>
<path fill-rule="evenodd" clip-rule="evenodd" fill="#FFFFFF" d="M321.4,1117.7c-5.7-20.4-14.8-37.4-16-58.1
	c4.1-3.7,8.5-7.7,14.1-12.6c11.1,16.9,16.7,34,22.3,51.8c-3.6,3.5-7,6.7-10.4,9.9C328.6,1111.3,325.8,1113.8,321.4,1117.7z"/>
<path fill-rule="evenodd" clip-rule="evenodd" fill="#FFFFFF" d="M360.7,1160.8c-4.2,3.2-8.5,6.4-14.1,10.7
	c-4.2-4.4-8.6-7.7-11.2-12.1c-2.7-4.7-3.4-10.5-5.4-15.6c-6.7-17.8-6.5-18.4,12.4-30.9c6.9,7.6,10.1,17,12.7,26.7
	C356.7,1145.7,358.3,1151.8,360.7,1160.8z"/>
<path fill-rule="evenodd" clip-rule="evenodd" fill="#FFFFFF" d="M513.5,1084.5c-6.3,6-11.2,10.8-17.2,16.5
	c-4.2-17.9-17.6-30.5-16.4-49.9c4.9-3.8,10.4-7.9,16.4-12.5C502.2,1054.2,507.5,1068.3,513.5,1084.5z"/>
<path fill-rule="evenodd" clip-rule="evenodd" fill="#FFFFFF" d="M116.5,1172.7c5.7-5.4,10.9-10.3,16.2-15.3
	c6.5,13.3,12.7,26,18.7,38.3c-8.4,12.7-8.5,12.6-19.9,18.6C126.7,1201,117,1189.9,116.5,1172.7z"/>
<path fill-rule="evenodd" clip-rule="evenodd" fill="#FFFFFF" d="M270.5,1171.2c-6.8-16.9-13.3-31.3-18.2-46.3
	c-3.6-11.1,0-20.6,13.1-25.5c5.3,18.5,10.9,36.8,15.7,55.2C283,1162.1,276.9,1165.5,270.5,1171.2z"/>
<path fill-rule="evenodd" clip-rule="evenodd" fill="#FFFFFF" d="M362.6,1083.7c3,0.8,6.9,0.7,8.8,2.6c4.5,4.5,8.1,10.3,6.9,17.1
	c-1.2,6.7,0.8,12.3,3.1,18.5c4.5,12.2,4.1,12.4-10.7,23.6c-4.8-11.7-9.5-23.1-14.1-34.6c-3.3-8.1-3.3-15.4,4.1-21.7
	c1.6-1.3,1.9-4.3,2.8-6.4L362.6,1083.7z"/>
<path fill-rule="evenodd" clip-rule="evenodd" fill="#FFFFFF" d="M363.5,1082.9c-4.6,0.4-9.1,0.7-12.6,1c-4.8-12.4-9.4-24.3-14.1-36
	c-5.2-12.8-4-15.3,13.2-22.8c8.7,18.6,19.1,36.6,12.7,58.7C362.6,1083.7,363.5,1082.9,363.5,1082.9z"/>
<path fill-rule="evenodd" clip-rule="evenodd" fill="#FFFFFF" d="M448.3,1009.6c6.2,13.6,12.4,27.1,18.9,41.3
	c-6.5,6.3-12.1,11.7-18.7,18c-11-14.3-9-31.5-17.2-45.2C437.4,1018.6,442.8,1014.1,448.3,1009.6z"/>
<path fill-rule="evenodd" clip-rule="evenodd" fill="#FFFFFF" d="M473.3,1121.6c-7.6-12.6-15.1-24.9-22.5-37
	c2.8-9.2,8.6-14.2,17.3-18.9c8.4,14.1,12.7,29.5,17.4,44.4C487.1,1115.1,483.6,1121.1,473.3,1121.6z"/>
<path fill-rule="evenodd" clip-rule="evenodd" fill="#FFFFFF" d="M115.3,1105.7c5,13.6,9,24.7,13.5,37c-3.6,6.4-8.7,11.8-17.5,13.9
	c-8.6-9.1-9.4-20.7-10.8-31.5C99.6,1116.9,107.7,1113.1,115.3,1105.7z"/>
<path fill-rule="evenodd" clip-rule="evenodd" fill="#FFFFFF" d="M419.1,1033c15.9,13.6,10,31.8,17.2,46.5
	c-3.7,4.2-7.3,8.2-11.4,12.6c-2.5-2-5.3-3.1-5.7-4.8c-3.5-15.3-6.6-30.7-10-47.1C411.9,1038.4,415,1036.1,419.1,1033z"/>
<path fill-rule="evenodd" clip-rule="evenodd" fill="#FFFFFF" d="M522,1020.2c5.2,12.2,10.4,24.4,16.3,38.1
	c-5.1,4.4-10.2,8.8-15.1,13.1c-2.3-1.8-4-2.5-4.3-3.6c-3.5-11.2-7.3-22.4-9.9-33.8C507.3,1026.7,509.1,1025.4,522,1020.2z"/>
<path fill-rule="evenodd" clip-rule="evenodd" fill="#FFFFFF" d="M139.4,1082.8c9.2,14.4,10.2,27.2,14.4,40c-5,3-9.6,5.7-15.2,8.9
	c-8.6-11.2-10.9-23.6-11.6-35.8C126.8,1092.4,133.9,1088.4,139.4,1082.8z"/>
<path fill-rule="evenodd" clip-rule="evenodd" fill="#FFFFFF" d="M153.6,1135.5c14.1,12.4,7.9,29.2,19,40.3c-4.3,4.3-8,7.9-13,12.8
	c-5.1-9.4-10.3-16.7-13.1-24.8c-2-5.7-1.7-12.7-0.8-18.9C146.2,1141.8,150.3,1139.2,153.6,1135.5z"/>
<path fill-rule="evenodd" clip-rule="evenodd" fill="#FFFFFF" d="M239,1127.8c10.5,16.8,15.1,30.1,19.3,55.6
	c-3.4,4.6-7.6,3.2-9.6-0.5c-6.7-11.9-13.1-24-18.8-36.5C226.1,1138.3,227.6,1136.5,239,1127.8z"/>
<path fill-rule="evenodd" clip-rule="evenodd" fill="#FFFFFF" d="M269.8,1073.3c-2-6.9-3.1-11.4-4.5-15.8
	c-5.7-18.3-5.3-19.4,13.2-29.5c1.9,3.5,4.1,6.8,5.7,10.5C291.6,1055.8,290.3,1059.3,269.8,1073.3z"/>
<path fill-rule="evenodd" clip-rule="evenodd" fill="#FFFFFF" d="M201.1,1144.2c-8.4-11.2-10.4-24.8-14.4-39.4
	c4.2-3.4,8.9-7.1,15.6-12.5c3.9,14.5,7.4,26.7,10.2,38.9C213.7,1136.5,211.2,1138.8,201.1,1144.2z"/>
<path fill-rule="evenodd" clip-rule="evenodd" fill="#FFFFFF" d="M223.3,1072.6c10.8,11.1,9.2,23.3,12.6,33.7
	c2.1,6.5-3.7,11.7-11.2,14.6c-9.3-10.8-9.9-24.5-11.2-37.6C213.1,1080.4,219.2,1076.9,223.3,1072.6z"/>
<path fill-rule="evenodd" clip-rule="evenodd" fill="#FFFFFF" d="M249.8,1049.8c4.4,11.9,8,21.6,12,32.5c-3,4.7-6.3,9.9-9.4,14.7
	c-3-1.1-5.3-1.3-5.6-2.2c-3.3-9-6.6-17.9-9.1-27.1C236.5,1063.1,239.1,1059.8,249.8,1049.8z"/>
<path fill-rule="evenodd" clip-rule="evenodd" fill="#FFFFFF" d="M198.4,1078.3c-3.9,4.1-8,8.4-13.6,14.3
	c-5.7-13.7-11.5-25.1-8.4-38.1c0.9-3.9,5.4-7,10.1-12.5C190.9,1055.4,194.4,1066.2,198.4,1078.3z"/>
<path fill-rule="evenodd" clip-rule="evenodd" fill="#FFFFFF" d="M160.9,1064.7c8.1,12.6,9.7,25.5,12.3,37.8
	c0.6,2.6-3.6,6.2-6.9,11.3c-8.9-13.9-12.9-27.1-13.7-41.2C152.5,1070.3,157.6,1067.7,160.9,1064.7z"/>
<path fill-rule="evenodd" clip-rule="evenodd" fill="#FFFFFF" d="M177.2,1119.5c4,9.3,8.2,18.6,11.8,28.1c1,2.7,1.1,6.5,0,9.1
	c-1.1,2.5-4.1,4.8-6.8,5.7c-1.3,0.5-4.9-1.8-5.5-3.6c-3.4-8.8-6.2-17.8-9.3-26.7C165.1,1125.3,165.6,1124.7,177.2,1119.5z"/>
</svg>
