<?xml version="1.0" encoding="utf-8"?>
<!-- Generator: Adobe Illustrator 16.0.0, SVG Export Plug-In . SVG Version: 6.00 Build 0)  -->
<!DOCTYPE svg PUBLIC "-//W3C//DTD SVG 1.1//EN" "http://www.w3.org/Graphics/SVG/1.1/DTD/svg11.dtd">
<svg version="1.1" id="Layer_1" xmlns="http://www.w3.org/2000/svg" xmlns:xlink="http://www.w3.org/1999/xlink" x="0px" y="0px"
	 width="1000px" height="666px" viewBox="-415 -276.3 1000 666" enable-background="new -415 -276.3 1000 666" xml:space="preserve"
	>
<g>
	<path d="M92.3-197.3c-9.1-6.5-19.5-14.2-30.1-21.6c-3.8-2.7-7.7-6.6-12-7.2C-7-234.3-59.3-266-119.2-261.3
		c-76.5,6-135.3,43.6-190.4,95.7c-47.9,45.2-68.6,103.4-93.7,159.8c-22.3,50.3-7.5,101.4,12.2,149.3c13.8,33.6,30.3,66.7,50.2,96.9
		c12.6,19.2,32.5,34,51,48.5c41.8,32.8,86.4,62,136.1,80.4c30.4,11.3,63.9,17.7,96.3,19.4c43,2.2,86.8,0.8,129.5-4.8
		c40.7-5.3,69.5-33.8,91.5-67.1c19.8-29.8,34.7-37.9,65.9-22.4c42,20.9,86.8,31.1,132.2,38.3c14.9,2.4,32.9-1.6,46.7-8.3
		c46.8-22.7,93.8-42.2,129.3-86.5c31.3-39,37.7-82.9,43.9-126.3c5.8-40.5,2.8-84.5-6.8-124.4c-11.5-47.8-44.1-86.4-78.2-121.6
		c-23.8-24.6-48.2-48.9-74.2-71.1c-13.3-11.4-30.1-19.4-46.4-26.2c-33.1-13.8-66.1-30.7-100.9-37.3c-37.1-7-77.4-16.1-112.4,12.7
		c-10.1,8.3-24,11.9-33.9,20.3C116.5-225.7,106.5-212.6,92.3-197.3z"/>
	<path fill="#FFFFFF" d="M189.4,112.2c-6.8-45-10.1-94.8-23.2-141.9c-8.1-29-34.4-52.4-46.8-80.9c-20.2-46.2-63.7-49.9-102-64
		c-35.3-13-69.8-30.6-106.2-37.4c-38.1-7.1-76.2,4.4-112.8,19.5c-47.7,19.7-76.5,61-111.2,95.1c-12.5,12.3-15.4,33.9-24.9,49.9
		C-371.1,9-378.1,66.4-350,127.1c11.2,24.3,16.6,52,31.2,73.8c16.7,24.9,37.9,48.6,62.1,65.9c36,25.9,74.6,49.9,115.3,67
		c28.9,12.2,63.3,10.5,94.8,17.2c40.7,8.7,80.2,0.4,117.5-11.7c22.1-7.2,44.9-25.4,58-44.9C164.6,241.2,183.8,180.8,189.4,112.2z"/>
	<path fill="#FFFFFF" d="M121.5-174.4C212-44.3,255,93.8,202.2,253.5c51.1,9.4,105.1,25,159.7,28c77.8,4.2,162.9-65.7,169.1-152.1
		c2.8-38.5,10.3-76.2-0.3-114.8C517-35.1,494.3-78.6,454.3-112c-31.4-26.2-59.3-58.6-94.4-77.7c-39.9-21.8-85.2-36.8-129.9-45.6
		c-36.2-7.1-65,19.8-90.9,44.2C133.4-185.8,127.7-180.4,121.5-174.4z"/>
</g>
<path d="M479.4,46.1c0-34.2-26.7-65.2-57.6-66.9c-21.1-1.2-59.4,30.2-59.6,48.8c-0.5,36.4,36.3,77.2,69.5,76.9
	C461,104.6,479.4,82,479.4,46.1z"/>
<g>
	<path d="M87.8,60.7c0-34.2-26.7-65.2-57.6-66.9C9.1-7.3-29.2,24-29.5,42.7C-30,79.1,6.8,119.9,40,119.6
		C69.4,119.3,87.8,96.6,87.8,60.7z"/>
</g>
</svg>
