<?xml version="1.0" encoding="utf-8"?>
<!DOCTYPE svg PUBLIC "-//W3C//DTD SVG 1.1//EN" "http://www.w3.org/Graphics/SVG/1.1/DTD/svg11.dtd">
<svg artist="zl2017" version="1.1" id="zlIcon-fence" xmlns="http://www.w3.org/2000/svg" xmlns:xlink="http://www.w3.org/1999/xlink" x="0px" y="0px"
	 width="1000px" height="742.6px" viewBox="0 0 1000 742.6" enable-background="new 0 0 1000 742.6" xml:space="preserve">
<path fill-rule="evenodd" clip-rule="evenodd" fill="#FFFFFF" d="M210.3,31.7c-8.9,5.8-15.8,7.3-23.4,7.8
	c-14.3,0.8-27.9,5.5-42.8,4.2c-13.6-1.2-26.7-3.3-39.7-7.2c-7.1-2.1-14.4-3.7-21.7-4.8c-5.3-0.8-10.8-0.6-17-0.9
	c-0.1,0.3-1.2,1.7-1,2.8c2.3,10.9-0.4,21.8-0.1,32.7c0,1.4,0.2,2.9,0.6,4.2c3.3,10.3,3.9,20.9,3.8,31.7c-0.1,5.6,1.1,11.3,1.8,16.9
	c0.8,6.3,2.1,12.7,2.3,19c0.5,11-1.1,22.2,4,32.7c0.7,1.5,0.3,3.5,0.4,5.3c0.6,10.2,1.2,20.4,1.8,30.5c0.8,12.1,1.9,24.1,2.4,36.2
	c0.4,9.7,0.1,19.4,0.4,29c0.2,7.4,0.9,14.9,1.5,22.3c0.8,8.6-3.8,17.3,0.3,25.9c-2.5,20.2,2.7,40.2,0.7,60.7
	c-2,20.8-2.9,42.1,1.2,63.1c1,5.2,0.9,10.9,0,16.1c-2.8,16-3,31.8,0.1,47.8c1.3,6.6,2,13.4,2.2,20.1c0.4,11.7-0.2,23.5,0.2,35.2
	c0.5,15.3,1.5,30.6,2.3,45.6c13.7,5.1,25,14.8,39.3,15.6c5-5.4,10.1-10.4,14.6-15.9c10.3-12.6,18.8-26.5,25.5-41.3
	c8.3-18.5,13.3-38,16.8-58c2.3-13.2,5.4-26.4,6.6-39.7c1.6-17.2,1.6-34.6,2.4-51.9c0.5-10.3,1.4-20.6,2-30.9
	c0.1-1.8-0.1-3.6-0.3-5.3c-0.5-4.9-1.8-9.8-1.6-14.7c0.3-8.9,1.4-17.7,2-26.6c0.8-11.4,1.2-22.8,2.3-34.1c1-10.2,2.8-20.3,4.1-30.5
	c0.9-7.1,2.1-14.1,2.2-21.2c0.9-44.7,1.5-89.5,2.2-134.2c0-1.8,0-3.6,0-5.4c0-6.7-1.2-13.8,0.4-20.2c2.2-9,2-17.5,0-26.3
	c-0.5-2.1-0.4-4.3-0.3-6.4C209.4,52.5,209.8,43.5,210.3,31.7z"/>
<path fill-rule="evenodd" clip-rule="evenodd" fill="#FFFFFF" d="M900.7,683.7c0.9-2.2,1.7-3.3,1.9-4.5c2.2-12.9,4.5-25.8,6.5-38.7
	c1.8-11.2,1.3-23.2,5.3-33.5c6.2-16.2,4.6-33,7.5-49.3c2.4-13.2,3.3-26.7,4.7-40.1c1.4-13.4,2.8-26.8,4.1-40.2
	c0.9-9.9,1.7-19.8,2.6-29.8c1.3-14.4,2.6-28.8,3.9-43.2c0.6-6.4,1.3-12.7,2-19c0.8-7.4,1.5-14.8,2.3-22.3
	c1.5-14.1,2.8-28.2,4.7-42.3c1.6-12.2,4.6-24.4,5.9-36.6c2-18.4,3-36.8,4.5-55.3c0.8-9.2,1.5-18.4,2.9-27.5
	c1.9-11.9,4.6-23.6,6.6-35.4c0.3-1.6-0.6-4-1.8-5.2c-0.7-0.7-3.3,0-4.6,0.8c-3.3,1.9-6.1,5.5-9.5,6.2c-10,2.2-19.8,6.1-30.4,4.9
	c-2.4-0.3-5,0.1-7.4,0.7c-10.6,2.5-21.2,2.2-31.7-0.9c-3-0.9-6.2-2-9.3-1.9c-11.4,0.3-21.8-2.3-31.8-7.7c-3.2-1.8-7.1-2.4-10.8-3.6
	c-0.7,2.1-1.2,3.1-1.3,4.1c-1.3,15.2,2.4,30.4-0.1,45.5c-0.1,0.7,0,1.4,0.1,2.1c0.7,7.1,1.6,14.1,2,21.2c0.9,18.1,0.2,36.4,2.7,54.3
	c2.8,19.8,4.9,39.6,5.9,59.6c0.4,7.8-0.1,15.6,0.5,23.4c0.9,11.6,3.3,23.2,3.7,34.9c0.6,20,0.4,39.9,0.1,59.9
	c-0.2,13.5-2,27.1-1.8,40.6c0.2,12.7-5.2,25.3-0.4,38.1c0.8,2.2,0.6,5.1,0,7.5c-3.1,12.4-3,24.6,0,37c0.5,2-0.2,4.2-0.4,6.4
	c-0.5,6.4-1.5,12.7-1.4,19.1c0.1,7.1,1.2,14.1,2,21.2c0.2,1.5,0.7,3,1.2,5.3c12.7-14.7,18.5-31.5,24.7-48.7c2.3,2.8,4.6,5.8,3.9,8.1
	c-3.2,11.4-1.4,22.5,0.1,33.8c0.3,2.4-0.5,4.9-0.9,7.4c-0.2,1.7-1,3.5-0.9,5.2c0.5,6.7,1.2,13.4,1.8,20.1c0.3,2.6,0.7,5.2,1.2,8.2
	c10-4.9,10.6-15,15.2-23.4C896.4,659.7,894.3,672.7,900.7,683.7z"/>
<path fill-rule="evenodd" clip-rule="evenodd" fill="#FFFFFF" d="M830,511.2c-24.8,0-46.5-7.1-68.9-9.7c-14.6-1.6-28.7-7.5-43.6-9
	c-15.2-1.4-30.3-3.6-45.4-5.5c-4.9-0.6-9.8-1.2-14.7-2.2c-17-3.6-33.5-8.6-51.3-8.9c-11.9-0.2-23.7-3.5-35.5-6
	c-8.5-1.8-16.7-4.7-25.2-6.4c-12.8-2.7-26-2.8-38.7-6.5c-7.4-2.1-15.5-1.9-23-3.9c-21.3-5.5-42.5-10.7-64.3-13.9
	c-22.7-3.3-45.3-8.2-67.7-13.4c-17.2-4-33.8-10.1-51.3-12.9c-17.8-2.9-35.1-8.4-52.7-12.2c-10.4-2.2-20.9-3.5-31.4-5
	c-3.7-0.5-7.4-0.6-11.2-0.9c-0.9,20.3-1.9,40.8-2.8,60.2c9.2,3.1,16.8,6.7,24.7,8c15.9,2.7,31.6,6.1,47.7,7.8
	c16.9,1.7,33.5,5.2,50.3,7.9c4.2,0.7,8.4,1.4,12.6,1.8c9.9,0.9,19.9,1.5,29.8,2.4c7.8,0.7,15.6,1.1,23.2,2.7
	c31.2,6.4,62,14.6,93.6,18.9c6.3,0.9,12.7,1.3,19,2.2c14,2,28,4.2,42,6.2c11.2,1.6,22.6,2.4,33.7,4.5c11.2,2.1,22.3,3.9,33.7,4.5
	c12.3,0.6,24.8,2.4,36.6,6c24,7.2,49.2,9.1,73,17.2c1,0.3,2.1,0,3.2,0.2c4.9,0.7,9.8,1.4,14.7,2.1c9.1,1.4,18.2,2.9,27.3,4.3
	c12.9,2,25.9,4,38.8,5.9c6.5,1,13.1,1.8,20.3,2.8C827.9,543.6,828.9,528.1,830,511.2z"/>
<path fill-rule="evenodd" clip-rule="evenodd" fill="#FFFFFF" d="M831.5,432.4c0-12,0-23.8,0-35.5c0-4.3-2.4-6.2-6.6-6.8
	c-11.6-1.6-23.1-3.2-34.6-5.5c-18.4-3.6-36.5-9.1-55.1-11.3c-28.9-3.5-56.2-15-85.6-16.2c-12.3-0.5-24.4-5.1-36.7-5.4
	c-22.6-0.5-44-7.4-66.3-9.6c-21.4-2.1-42.6-6.6-63.9-10.2c-11.5-1.9-23-4-34.5-6.1c-11.5-2.1-22.9-4.7-34.4-6.7
	c-18.5-3.3-37-6.2-55.5-9.4c-19.5-3.3-39.1-6.6-58.6-10.2c-11.8-2.2-23.5-4.9-35.3-7.6c-5.9-1.3-11.6-3.5-17.5-4.4
	c-9.3-1.4-18.7-2-28.1-2.9c-4.9-0.5-7.4,1.4-7.7,6.5c-0.3,6-0.1,12.1-0.1,18.6c3.3,1.1,5.9,2.2,8.6,2.7c7.3,1.4,14.7,2.4,22,3.7
	c17.4,3.1,34.8,6.4,52.3,9.3c15.7,2.6,31.7,4,47.2,7.3c20.7,4.5,41.1,10.4,61.7,15.5c23,5.6,45.9,11.3,69,16.3
	c25.6,5.6,50.8,12.6,77,15.5c17.8,2,35.2,7.8,52.8,11.6c9.3,2,18.8,3.5,28.2,5c15.4,2.4,31.1,3.4,46.2,7.1
	c20.7,5,41.4,9.2,62.3,12.9C769.1,421.9,799.3,429.7,831.5,432.4z"/>
<path fill-rule="evenodd" clip-rule="evenodd" fill="#FFFFFF" d="M887.1,161.7c2.9,0,5.8,0.3,8.6,0c15.1-2.1,30.4-3.3,45.1-6.9
	c10.8-2.6,21.7-6.6,28.4-17.3c2.4-3.9,3.4-6.9,0.6-10.6c-5.3-7-12-11.4-20.8-12.5c-3.8-0.5-7.7-1.3-11.5-1.7
	c-9.2-0.9-18.4-1.9-27.6-2.5c-4.1-0.3-8.2,0.4-12.3,0.7c-7.5,0.4-15.1,0.5-22.5,1.4c-7,0.9-13.8,3.3-20.8,4
	c-9.6,0.9-16.2,6.5-22.9,12.3c-4.1,3.5-5,6.6-1.4,11.8c4.8,7.1,10.8,11.8,18.5,15.2C860.9,160.9,874.2,159.6,887.1,161.7z"/>
<path fill-rule="evenodd" clip-rule="evenodd" fill="#FFFFFF" d="M213.5,14.4c-11.2-5.4-22.7-6.9-34.2-6.7
	c-11.3,0.2-22.6,2.4-33.9,3.1c-8.6,0.5-17.3-0.5-25.8,0.2c-13.8,1.1-27.6,3.1-44,5.1c3.9,2.7,5.3,4.3,7,4.9
	c14.9,4.7,29.8,9.2,44.7,13.6c3.4,1,6.9,1.9,10.4,2.1c18.6,1.1,37.1-0.7,55.2-4.7C201.3,30.1,211.2,27.3,213.5,14.4z"/>
<path fill-rule="evenodd" clip-rule="evenodd" fill="#FFFFFF" d="M75.4,375.8c-13.4-1.1-25.6-2.1-38.5-3.2
	c-2.7,15.4-5.1,29.6-7.6,43.8c14.9,9.5,31.7,8.8,47.2,17.2c0.4-5,1.1-8.4,0.9-11.7c-0.5-9.2-1.5-18.4-1.9-27.6
	C75.1,388.3,75.4,382.3,75.4,375.8z"/>
<path fill-rule="evenodd" clip-rule="evenodd" fill="#FFFFFF" d="M937.7,532.3c0,15.3,0,29.6,0,45.1c13.5,2.9,27.2,5.8,41.8,9
	c1.7-2.8,4.1-5.2,4.8-8c1.3-5.5,1.9-11.2,2.3-16.8c0.4-5.6,0.9-11.2-4.6-15.6C969,535.6,953.9,534,937.7,532.3z"/>
<path fill-rule="evenodd" clip-rule="evenodd" fill="#FFFFFF" d="M948.7,400.4c-5.2,16.2-2.3,31.7-2.9,46.7c9.7,1.7,18,3.1,26.3,4.7
	c8.5,1.7,13.7-2,14.6-10.7c0.6-5.3,1.4-10.5,2.1-15.7c1.3-9.7-0.1-12.7-8.9-17.1C970.2,403.6,960.1,401,948.7,400.4z"/>
<path fill-rule="evenodd" clip-rule="evenodd" fill="#FFFFFF" d="M75.3,295.7c0-7.8-0.1-14.2,0-20.6c0.1-4.7-1.9-7.3-6.7-8
	c-6.6-1-13.1-2.4-19.6-3.5c-6.5,7.2-6.9,15.5-5.3,25.4C53.5,291,63.4,293.2,75.3,295.7z"/>
<path fill-rule="evenodd" clip-rule="evenodd" d="M948.8,391.6c13.8,2.1,27.7,3,40,10.4c9.5,5.7,12.2,11.3,9.9,22.2
	c-1.5,7.3-2.5,14.7-3.4,22c-1.7,14.8-6.4,15.4-15.8,15c-11.4-0.4-22.7-0.5-34.9-0.8c-5.4,19.8-4.8,41-5.8,62.8
	c10.7,1.7,20.5,3.2,30.2,4.8c8.7,1.5,16.4,4.9,21.9,12.2c1.7,2.3,3.8,4.9,3.9,7.5c0.8,13.9,1.7,27.9-4.3,41.1c-2,4.3-5.5,6.7-10.4,6
	c-11.6-1.7-23.1-3.5-34.7-5.3c-2.3-0.4-4.7-0.7-8-1.1c-0.9,22.5-1.2,44.2,2.6,65.7c4.7-1.9,5.8-3.8,14.4-20.4
	c4-7.7,8.6-15.1,13.2-23.1c5.1,2.8,4.3,7.1,3.5,10.6c-1.1,4.8-3.4,9.3-4.6,14.1c-2,7.9-5.2,15.9-5,23.8c0.2,13.1-6.5,26-0.6,39.1
	c1.3,2.9,2.6,5.8,4.2,9.6c-2.1,1.9-4.3,3.9-7.9,7.1c-6.7-17.8-10.7-34.4-8.3-52.5c-9.2,10.1-11.2,23.3-17.6,34.1
	c-6.5,11-13.5,21.7-14,35c-6.4,3-8-1.7-9.5-5.5c-6.8-16.7-13.3-33.4-20-50.1c-0.2-0.6-0.9-1.1-1.9-2.2c-7.2,8.4-7.2,21-16.5,28.3
	c-14.2-9-9.5-25.5-15.6-39.6c-2.1,5.4-4,9.1-5,13c-1.8,7.7-3.2,15.6-4.5,23.5c-0.6,3.8-2.3,5.9-7,5.8c-4.4-10.3-9.7-20.4-20.3-30.3
	c-0.3,6.3-0.5,10.4-0.6,14.4c-0.3,9.2-4.5,12-13.2,8.3c-3.2-1.3-6-3.2-11-6c2.6,10.2,5,18.5,6.7,27c1.5,8,5.7,16,0.9,24.6
	c-10.4-20.7-13.5-43.7-21.7-65.1c-0.8-2,0.2-4.6,0.4-6.9c11.4-0.2,18.4,6.4,25.2,14c7.6-8.1,7.4-17.2,5.3-26.1
	c-1-4.5-0.8-8.1,0.9-12.3c4.3-10.9,8.1-21.9,8.9-33.8c0.5-7.3,4.7-13.9,4.5-21.7c-0.2-6.6,1.7-13.3,2.8-21.2
	c-10.2-1.7-19.9-3.3-29.5-4.9c-4.5-0.7-9.1-1.5-13.6-2.1c-6.7-0.8-13.4-1.3-20.1-2.3c-14-2.1-28-3.1-41.8-7.2
	c-15.2-4.6-31.1-7-46.7-9.9c-22.6-4.3-45.3-8.2-67.9-12.2c-14.3-2.5-28.6-5.2-43-7.1c-18.3-2.5-36.6-4.7-54.9-6.5
	c-17.6-1.8-35.4-2.4-52.9-4.6c-11.9-1.5-23.5-4.9-35.4-7c-16.4-2.9-32.9-5.1-49.3-8c-16.7-2.9-33.4-6.3-50.1-9.4
	c-13.9-2.6-27.8-5.2-41.8-7.7c-13.9-2.5-28-4.6-41.9-7.3c-11.1-2.2-22-4.9-33.7-7.6c-1.1,6.3-3,12.4-3.2,18.6
	c-1,24.6-1.5,49.3-2.3,74c-0.6,16.4-1.6,32.8-2,49.2c-0.1,5.5,1.3,11.1,2,17c14.2-2.3,26.4-9.3,41.5-7.6c-1.3,3.6-1.5,7.4-3.2,8.4
	c-12.5,6.8-17.8,19.8-26.1,30.1c-5.3,6.5-12.4,12.9-11.1,23c0.1,0.6-1.4,1.4-2.1,2.1c-3.2-1.3-6.3-2.6-9.4-3.9c-4.8-1.9-6-4.9-2.8-9
	c8.2-10.7,16.7-21.2,25-31.8c0.6-0.8,1.1-1.7,1.7-2.7c-8.4-0.7-28.3,10-36.7,19.7c-5.1-1.5-7.9-4.9-6.7-10.2
	c3.3-14.9,2.5-29.7-0.3-44.5c-0.2-1-0.3-2.1-0.6-4.8c-5.9,5-11.8,8.8-16.2,14c-6.4,7.5-11.9,15.9-17.5,24.1c-3,4.4-5.8,6.4-9.8,1.1
	c-0.8-1.1-2.3-1.7-3.6-2.2c-18.7-6.3-37.4-12.5-57.3-19.2c-0.1,13.5,11.6,19.5,13.3,30.4c-1.2,1.9-2.8,4.2-4.3,6.5
	c-16.3-3.4-32.3-6.4-48.5-8.1c-0.4,1-0.8,2.1-1.1,3.1c8.5,7.4,16.7,15.1,25.5,22c5.8,4.5,7.9,10.9,10,17.1c1.2,3.5,1.1,8.1-4.8,9.3
	c-6.2-7.6-12.2-15.5-18.7-22.9c-5.4-6.1-11.3-11.8-17.1-17.6c-5.2-5.2-11-9.9-15.8-15.4c-1.4-1.6-1-5.5-0.2-7.9
	c0.3-0.9,4.1-1.3,6.2-1c15.8,2.4,31.5,4.9,48.2,7.6c-0.2-12.6-6.8-23.5-11-34.9c0.8-0.5,1.7-1,2.5-1.5c4,0.9,8.1,1.9,12.1,2.8
	c4.4,1,7-0.8,7.4-5.3c0.8-8.1,1.4-16.3,2.3-24.4c1.3-13.1,3.1-26.1,4-39.2c1.9-25.6,4.1-51.3,1.4-77c-0.4-3.7,0.5-7.5,0.8-12.1
	c-6.6-1.8-13.1-3.3-19.4-5.5c-5-1.7-9.6-4.8-14.6-6c-7.2-1.7-14.7-2.2-23.8-3.5c-0.5-2.6-2.4-6.4-1.9-9.8
	c2.2-12.5,5.1-24.9,8.1-37.3c1.7-6.8,4.2-13.4,6.7-21.2c15.2,0.8,29.5,1.6,44.9,2.5c0-18,0.1-34.8-0.1-51.5c0-5-3.4-7.7-8.1-8.6
	c-8.4-1.5-16.7-2.9-25.1-4.4c-10.9-1.9-12.9-5-10.6-15.8c1.1-5.2,1.3-10.6,2.7-15.6c3.2-11,7.8-13.4,18.9-10.8
	c6.1,1.4,12.3,2.5,19.9,4c0-5.1,0.3-8.9-0.1-12.7c-1.2-12.7-2.6-25.4-4.1-38.1c-0.9-7-2.5-13.9-3.3-21c-0.6-5.3-0.5-10.6-0.3-16
	c0.1-3.9,1.8-7.8,1.4-11.5c-1.6-16.2-3.8-32.4-5.7-48.6c-1-8.1-2.3-16.2-2.7-24.4c-1-20.6-1.5-41.2-2.2-61.8c-0.1-3.5,0-7.1,0-11
	c10.1-3.6,19.5-7.4,29.2-10.2C104.4-1.5,124,0,143.6,0.8c12.8,0.6,25.6-0.6,38.4,0.1c9.8,0.5,19.4,2.4,29.1,5
	c5.8,1.6,8.2,4.8,11,8.8c0.7,1.1,1.4,2.7,1.2,3.9c-6,31.8-1.4,64.1-4,96c-1.9,22.9-0.4,45.8-2.1,68.6c-0.6,8.9-1.5,17.4,0.1,26.3
	c0.8,4.3-0.9,9.1-1.4,13.6c-0.1,0.7-0.5,1.5-0.4,2.1c3.5,16.3-1.4,32.3-1.9,48.4c0,0.3,0.3,0.6,0.3,0.6
	c28.5,6.2,56.7,12.8,85.1,18.4c19.4,3.8,39.2,5.8,58.8,9.2c14.6,2.5,29.1,6.2,43.7,8.9c16,3,32.1,5.4,48.1,8.2
	c8.4,1.5,16.7,3.3,25.1,4.7c8.7,1.5,17.5,2.4,26.2,3.9c12.6,2.1,25.1,4.6,37.7,6.7c12.5,2.2,25.1,4.2,37.7,6.1
	c11.9,1.8,23.9,3.2,35.8,4.8c9.5,1.3,18.9,2.5,28.4,3.9c15.1,2.2,30.2,4,45.2,6.6c13.2,2.3,26.3,5.7,39.5,7.9
	c12.2,2.1,24.6,3.1,36.9,4.9c5.6,0.8,11,2.7,16.6,3.7c13.9,2.5,27.9,4.8,41.9,6.9c3.1,0.5,6.3,0.1,11.2,0.1
	c-1-9.3-1.8-17.7-2.9-25.9c-1.4-11.1-3.5-22-2.8-33.5c0.7-11.5-1.9-23.2-2.9-34.9c-0.3-3.6-0.4-7.2-0.3-10.7
	c0.3-19.3-1.3-38.4-4.1-57.5c-1.7-12-0.6-24.4-2.7-36.2c-3.1-17.5-0.9-35-2-52.5c-0.5-7.9,2.6-13.3,9.6-16.1
	c6.2-2.5,12.6-4.7,19.1-6.1c27.5-5.9,55.4-4.2,83.3-4.5c16-0.1,31.2,3.5,45.3,10.2c13.4,6.3,15.8,13.1,10.9,24.8
	c-2.3,5.5-4.2,11.1-6.3,16.7c-0.7,2-2.1,4.1-1.9,6c1.3,12.7-3.5,24.5-4.9,36.8c-1.7,14.4-4.1,28.7-6,43.1c-1,7.8-1.8,15.5-2.4,23.3
	c-0.9,11-1.4,22-2.3,33c-0.5,6-1.4,12-2.1,18c-2.6,20.1-6.6,39.9-6.8,60.3C949.5,379.5,946.9,385.3,948.8,391.6z M210.3,31.7
	c-8.9,5.8-15.8,7.3-23.4,7.8c-14.3,0.8-27.9,5.5-42.8,4.2c-13.6-1.2-26.7-3.3-39.7-7.2c-7.1-2.1-14.4-3.7-21.7-4.8
	c-5.3-0.8-10.8-0.6-17-0.9c-0.1,0.3-1.2,1.7-1,2.8c2.3,10.9-0.4,21.8-0.1,32.7c0,1.4,0.2,2.9,0.6,4.2c3.3,10.3,3.9,20.9,3.8,31.7
	c-0.1,5.6,1.1,11.3,1.8,16.9c0.8,6.3,2.1,12.7,2.3,19c0.5,11-1.1,22.2,4,32.7c0.7,1.5,0.3,3.5,0.4,5.3c0.6,10.2,1.2,20.4,1.8,30.5
	c0.8,12.1,1.9,24.1,2.4,36.2c0.4,9.7,0.1,19.4,0.4,29c0.2,7.4,0.9,14.9,1.5,22.3c0.8,8.6-3.8,17.3,0.3,25.9
	c-2.5,20.2,2.7,40.2,0.7,60.7c-2,20.8-2.9,42.1,1.2,63.1c1,5.2,0.9,10.9,0,16.1c-2.8,16-3,31.8,0.1,47.8c1.3,6.6,2,13.4,2.2,20.1
	c0.4,11.7-0.2,23.5,0.2,35.2c0.5,15.3,1.5,30.6,2.3,45.6c13.7,5.1,25,14.8,39.3,15.6c5-5.4,10.1-10.4,14.6-15.9
	c10.3-12.6,18.8-26.5,25.5-41.3c8.3-18.5,13.3-38,16.8-58c2.3-13.2,5.4-26.4,6.6-39.7c1.6-17.2,1.6-34.6,2.4-51.9
	c0.5-10.3,1.4-20.6,2-30.9c0.1-1.8-0.1-3.6-0.3-5.3c-0.5-4.9-1.8-9.8-1.6-14.7c0.3-8.9,1.4-17.7,2-26.6c0.8-11.4,1.2-22.8,2.3-34.1
	c1-10.2,2.8-20.3,4.1-30.5c0.9-7.1,2.1-14.1,2.2-21.2c0.9-44.7,1.5-89.5,2.2-134.2c0-1.8,0-3.6,0-5.4c0-6.7-1.2-13.8,0.4-20.2
	c2.2-9,2-17.5,0-26.3c-0.5-2.1-0.4-4.3-0.3-6.4C209.4,52.5,209.8,43.5,210.3,31.7z M900.7,683.7c0.9-2.2,1.7-3.3,1.9-4.5
	c2.2-12.9,4.5-25.8,6.5-38.7c1.8-11.2,1.3-23.2,5.3-33.5c6.2-16.2,4.6-33,7.5-49.3c2.4-13.2,3.3-26.7,4.7-40.1
	c1.4-13.4,2.8-26.8,4.1-40.2c0.9-9.9,1.7-19.8,2.6-29.8c1.3-14.4,2.6-28.8,3.9-43.2c0.6-6.4,1.3-12.7,2-19
	c0.8-7.4,1.5-14.8,2.3-22.3c1.5-14.1,2.8-28.2,4.7-42.3c1.6-12.2,4.6-24.4,5.9-36.6c2-18.4,3-36.8,4.5-55.3
	c0.8-9.2,1.5-18.4,2.9-27.5c1.9-11.9,4.6-23.6,6.6-35.4c0.3-1.6-0.6-4-1.8-5.2c-0.7-0.7-3.3,0-4.6,0.8c-3.3,1.9-6.1,5.5-9.5,6.2
	c-10,2.2-19.8,6.1-30.4,4.9c-2.4-0.3-5,0.1-7.4,0.7c-10.6,2.5-21.2,2.2-31.7-0.9c-3-0.9-6.2-2-9.3-1.9c-11.4,0.3-21.8-2.3-31.8-7.7
	c-3.2-1.8-7.1-2.4-10.8-3.6c-0.7,2.1-1.2,3.1-1.3,4.1c-1.3,15.2,2.4,30.4-0.1,45.5c-0.1,0.7,0,1.4,0.1,2.1c0.7,7.1,1.6,14.1,2,21.2
	c0.9,18.1,0.2,36.4,2.7,54.3c2.8,19.8,4.9,39.6,5.9,59.6c0.4,7.8-0.1,15.6,0.5,23.4c0.9,11.6,3.3,23.2,3.7,34.9
	c0.6,20,0.4,39.9,0.1,59.9c-0.2,13.5-2,27.1-1.8,40.6c0.2,12.7-5.2,25.3-0.4,38.1c0.8,2.2,0.6,5.1,0,7.5c-3.1,12.4-3,24.6,0,37
	c0.5,2-0.2,4.2-0.4,6.4c-0.5,6.4-1.5,12.7-1.4,19.1c0.1,7.1,1.2,14.1,2,21.2c0.2,1.5,0.7,3,1.2,5.3c12.7-14.7,18.5-31.5,24.7-48.7
	c2.3,2.8,4.6,5.8,3.9,8.1c-3.2,11.4-1.4,22.5,0.1,33.8c0.3,2.4-0.5,4.9-0.9,7.4c-0.2,1.7-1,3.5-0.9,5.2c0.5,6.7,1.2,13.4,1.8,20.1
	c0.3,2.6,0.7,5.2,1.2,8.2c10-4.9,10.6-15,15.2-23.4C896.4,659.7,894.3,672.7,900.7,683.7z M831.1,499.3c-1-9.8,5-18.8,0.7-28.5
	c-0.9-1.9,0.5-4.8,0.7-7.3c0.4-3.9,1.1-7.8,0.9-11.6c-0.1-1.8-1.8-4.6-3.3-4.9c-9.5-2.4-17.3-9.4-27.5-9.9
	c-4.9-0.2-9.9-1.1-14.7-2.1c-15.5-3.3-31-7-46.6-10.3c-18.4-3.8-36.8-7.3-55.2-10.9c-6.6-1.3-13.1-3.1-19.7-4.2
	c-16.4-2.5-33-4.3-49.4-7.2c-24.7-4.5-49.3-9.6-73.9-14.6c-25.3-5.2-50.5-10.5-75.8-15.9c-14.5-3.1-28.9-6.8-43.5-9.7
	c-19.4-3.9-39-7-58.4-11.3c-30.4-6.8-60.6-14.3-90.9-21.5c-2.4-0.6-4.8-1.4-7.2-1.7c-15.4-2.2-30.9-4.3-46.3-6.3
	c-3-0.4-6.1,0-10.1,0c1.5,22.4-5.5,42.8-6.1,64c6.1,0.4,10.8,0.1,15.3,1.1c15.9,3.3,31.8,7,47.6,10.7c25.5,6.1,50.9,11.8,77.1,15
	c23.1,2.8,45.8,8.8,68.6,13.8c9.3,2,18.4,5,27.7,7.2c13.4,3.3,26.8,6.4,40.3,9.4c15.9,3.5,31.8,7,47.7,10c8.9,1.7,18.1,2.3,27.1,3.8
	c13.6,2.2,27.2,4.6,40.7,7.2c13.5,2.6,27,5.8,40.5,8.3c16.7,3.1,33.4,6.1,50.2,8.8c13.3,2.1,26.7,3.4,40,5.5
	c12.9,2.1,25.6,5.4,38.6,7.3c18.8,2.7,37.8,4.5,56.7,6.6C825.5,500.1,828,499.6,831.1,499.3z M830,511.2c-24.8,0-46.5-7.1-68.9-9.7
	c-14.6-1.6-28.7-7.5-43.6-9c-15.2-1.4-30.3-3.6-45.4-5.5c-4.9-0.6-9.8-1.2-14.7-2.2c-17-3.6-33.5-8.6-51.3-8.9
	c-11.9-0.2-23.7-3.5-35.5-6c-8.5-1.8-16.7-4.7-25.2-6.4c-12.8-2.7-26-2.8-38.7-6.5c-7.4-2.1-15.5-1.9-23-3.9
	c-21.3-5.5-42.5-10.7-64.3-13.9c-22.7-3.3-45.3-8.2-67.7-13.4c-17.2-4-33.8-10.1-51.3-12.9c-17.8-2.9-35.1-8.4-52.7-12.2
	c-10.4-2.2-20.9-3.5-31.4-5c-3.7-0.5-7.4-0.6-11.2-0.9c-0.9,20.3-1.9,40.8-2.8,60.2c9.2,3.1,16.8,6.7,24.7,8
	c15.9,2.7,31.6,6.1,47.7,7.8c16.9,1.7,33.5,5.2,50.3,7.9c4.2,0.7,8.4,1.4,12.6,1.8c9.9,0.9,19.9,1.5,29.8,2.4
	c7.8,0.7,15.6,1.1,23.2,2.7c31.2,6.4,62,14.6,93.6,18.9c6.3,0.9,12.7,1.3,19,2.2c14,2,28,4.2,42,6.2c11.2,1.6,22.6,2.4,33.7,4.5
	c11.2,2.1,22.3,3.9,33.7,4.5c12.3,0.6,24.8,2.4,36.6,6c24,7.2,49.2,9.1,73,17.2c1,0.3,2.1,0,3.2,0.2c4.9,0.7,9.8,1.4,14.7,2.1
	c9.1,1.4,18.2,2.9,27.3,4.3c12.9,2,25.9,4,38.8,5.9c6.5,1,13.1,1.8,20.3,2.8C827.9,543.6,828.9,528.1,830,511.2z M831.5,432.4
	c0-12,0-23.8,0-35.5c0-4.3-2.4-6.2-6.6-6.8c-11.6-1.6-23.1-3.2-34.6-5.5c-18.4-3.6-36.5-9.1-55.1-11.3c-28.9-3.5-56.2-15-85.6-16.2
	c-12.3-0.5-24.4-5.1-36.7-5.4c-22.6-0.5-44-7.4-66.3-9.6c-21.4-2.1-42.6-6.6-63.9-10.2c-11.5-1.9-23-4-34.5-6.1
	c-11.5-2.1-22.9-4.7-34.4-6.7c-18.5-3.3-37-6.2-55.5-9.4c-19.5-3.3-39.1-6.6-58.6-10.2c-11.8-2.2-23.5-4.9-35.3-7.6
	c-5.9-1.3-11.6-3.5-17.5-4.4c-9.3-1.4-18.7-2-28.1-2.9c-4.9-0.5-7.4,1.4-7.7,6.5c-0.3,6-0.1,12.1-0.1,18.6c3.3,1.1,5.9,2.2,8.6,2.7
	c7.3,1.4,14.7,2.4,22,3.7c17.4,3.1,34.8,6.4,52.3,9.3c15.7,2.6,31.7,4,47.2,7.3c20.7,4.5,41.1,10.4,61.7,15.5
	c23,5.6,45.9,11.3,69,16.3c25.6,5.6,50.8,12.6,77,15.5c17.8,2,35.2,7.8,52.8,11.6c9.3,2,18.8,3.5,28.2,5c15.4,2.4,31.1,3.4,46.2,7.1
	c20.7,5,41.4,9.2,62.3,12.9C769.1,421.9,799.3,429.7,831.5,432.4z M887.1,161.7c2.9,0,5.8,0.3,8.6,0c15.1-2.1,30.4-3.3,45.1-6.9
	c10.8-2.6,21.7-6.6,28.4-17.3c2.4-3.9,3.4-6.9,0.6-10.6c-5.3-7-12-11.4-20.8-12.5c-3.8-0.5-7.7-1.3-11.5-1.7
	c-9.2-0.9-18.4-1.9-27.6-2.5c-4.1-0.3-8.2,0.4-12.3,0.7c-7.5,0.4-15.1,0.5-22.5,1.4c-7,0.9-13.8,3.3-20.8,4
	c-9.6,0.9-16.2,6.5-22.9,12.3c-4.1,3.5-5,6.6-1.4,11.8c4.8,7.1,10.8,11.8,18.5,15.2C860.9,160.9,874.2,159.6,887.1,161.7z
	 M213.5,14.4c-11.2-5.4-22.7-6.9-34.2-6.7c-11.3,0.2-22.6,2.4-33.9,3.1c-8.6,0.5-17.3-0.5-25.8,0.2c-13.8,1.1-27.6,3.1-44,5.1
	c3.9,2.7,5.3,4.3,7,4.9c14.9,4.7,29.8,9.2,44.7,13.6c3.4,1,6.9,1.9,10.4,2.1c18.6,1.1,37.1-0.7,55.2-4.7
	C201.3,30.1,211.2,27.3,213.5,14.4z M75.4,375.8c-13.4-1.1-25.6-2.1-38.5-3.2c-2.7,15.4-5.1,29.6-7.6,43.8
	c14.9,9.5,31.7,8.8,47.2,17.2c0.4-5,1.1-8.4,0.9-11.7c-0.5-9.2-1.5-18.4-1.9-27.6C75.1,388.3,75.4,382.3,75.4,375.8z M937.7,532.3
	c0,15.3,0,29.6,0,45.1c13.5,2.9,27.2,5.8,41.8,9c1.7-2.8,4.1-5.2,4.8-8c1.3-5.5,1.9-11.2,2.3-16.8c0.4-5.6,0.9-11.2-4.6-15.6
	C969,535.6,953.9,534,937.7,532.3z M948.7,400.4c-5.2,16.2-2.3,31.7-2.9,46.7c9.7,1.7,18,3.1,26.3,4.7c8.5,1.7,13.7-2,14.6-10.7
	c0.6-5.3,1.4-10.5,2.1-15.7c1.3-9.7-0.1-12.7-8.9-17.1C970.2,403.6,960.1,401,948.7,400.4z M75.3,295.7c0-7.8-0.1-14.2,0-20.6
	c0.1-4.7-1.9-7.3-6.7-8c-6.6-1-13.1-2.4-19.6-3.5c-6.5,7.2-6.9,15.5-5.3,25.4C53.5,291,63.4,293.2,75.3,295.7z"/>
<path fill-rule="evenodd" clip-rule="evenodd" d="M88.3,61.6c3.6-1.1,6.3-1.9,8.9-2.7c7.5,7.3,7.4,15.5,4.6,24.7
	c-1.7,5.7-2.2,11.8-2.6,17.8c-1.2,18.8-2.8,37.7-2.9,56.6c0,7.7-3.6,10.5-10.4,14.2c0.8-19,2-36.9,2.3-54.9
	C88.6,98.9,88.3,80.6,88.3,61.6z"/>
<path fill-rule="evenodd" clip-rule="evenodd" d="M117.8,79c7.4,7,4.9,13.9,3.7,20.6c-1.1,6.2-2.8,12.5-2.9,18.7
	c0,6.8,1.5,13.7,2.4,20.5c-7.9,0.8-11-1.1-11.1-8.4c-0.3-12.1-0.8-24.3,0.3-36.3C110.6,89.2,114.8,84.6,117.8,79z"/>
<path fill-rule="evenodd" clip-rule="evenodd" d="M855.4,303.8c-1.5-3.8-3.5-6.9-4-10.2c-1.2-8.4-2.3-16.9-2.5-25.4
	c-0.4-19.7-0.2-39.4,0-59.1c0-3.8,1-7.8,2.5-11.2c0.8-1.7,4-3.6,5.6-3.3c1.8,0.3,3.3,3.1,4.4,5.1c0.6,1.1,0.3,2.8,0.1,4.2
	c-4.5,27.3-0.9,54.9-1.9,82.3c-0.1,2.7,1.6,5.4,1.9,8.2C861.9,298.4,862.3,302.7,855.4,303.8z"/>
<path fill-rule="evenodd" clip-rule="evenodd" d="M876.8,268.9c-3.4,0-5.4,0-8,0c-0.2-2.8-0.8-5.2-0.5-7.6c1.2-12.3,2.7-24.6,4-36.9
	c0.3-3.2-0.2-6.5,0.4-9.6c0.5-3.1,1.4-6.3,3-8.9c0.8-1.2,3.9-1.5,5.7-1c1.1,0.3,2.3,2.6,2.5,4.1c0.2,2.4-0.1,5-0.7,7.4
	C879.1,233.2,875.8,250.2,876.8,268.9z"/>
<path fill-rule="evenodd" clip-rule="evenodd" d="M289.8,459.3c-7.3-0.8-14.5-1.4-21.8-2.5c-12.9-2-25.8-4.1-38.6-6.5
	c-1.9-0.4-3.5-2.3-7-4.6c3.9-0.9,5.6-1.8,7-1.5c20.2,3.8,40.4,7.8,60.6,11.8C290,457,289.9,458.1,289.8,459.3z"/>
<path fill-rule="evenodd" clip-rule="evenodd" d="M233.6,434c13,0.9,26,1.8,39.6,2.8c-2.5,5-7,4.9-11.5,5c-10,0.1-19.7-0.8-28.7-4.8
	C233.2,436,233.4,435,233.6,434z"/>
<path fill-rule="evenodd" clip-rule="evenodd" d="M755.4,395.9c6.7-5,11.6-3.5,16.9-2.1c5.1,1.3,10.5,1.3,15.9,1.7
	c4.9,0.4,10,0.4,14.9,1.2c5,0.8,10.4-2.6,15.7,1.5c-3.5,4.5-7.5,5.2-12.4,4.3c-12.5-2.2-25.1-4.1-37.7-5.8c-2.3-0.3-4.8,1.2-7.2,1.3
	C760.1,398.1,758.6,397,755.4,395.9z"/>
<path fill-rule="evenodd" clip-rule="evenodd" d="M811.3,410.9c-8.7-1-17.5-1.9-26.6-2.9c0-1,0-2.3,0-4.4
	C793.8,405.8,803.3,404.5,811.3,410.9z"/>
<path fill-rule="evenodd" clip-rule="evenodd" d="M933.8,133.6c-10-1.4-20-3.8-30-3.9c-9.5-0.1-19.8-3.3-29.1,3.5
	c6.1,7.9,13.5,8,21.4,6c3.7-0.9,3.8-0.8,7.7,3c-11.4,6.5-22.4,5.9-33.1-0.9c-3.2-2-5.9-5.2-4.2-9c1.3-2.9,4.1-6.2,7-7
	c11.8-3.5,23.8-3.4,35.9-1.2c7,1.3,14,1.9,21,3.2c1.8,0.3,3.4,2,5.1,3.1C934.8,131.5,934.3,132.5,933.8,133.6z"/>
<path fill-rule="evenodd" clip-rule="evenodd" d="M184.2,17.4c0.3,7.8-3.1,12.4-9.7,12.7c-6.6,0.3-13.2-0.4-19.8-1
	c-1.3-0.1-3.2-1.8-3.5-3.1c-0.3-1.4,0.4-4,1.4-4.7c2.9-1.7,6.3-3.5,9.6-3.8C169.2,17,176.3,17.4,184.2,17.4z"/>
</svg>
