<?xml version="1.0" encoding="utf-8"?>
<!DOCTYPE svg PUBLIC "-//W3C//DTD SVG 1.1//EN" "http://www.w3.org/Graphics/SVG/1.1/DTD/svg11.dtd">
<svg artist="zl2017" version="1.1" id="zlIcon-film-movie" xmlns="http://www.w3.org/2000/svg" xmlns:xlink="http://www.w3.org/1999/xlink" x="0px" y="0px"
	 width="1000px" height="564px" viewBox="0 0 1000 564" enable-background="new 0 0 1000 564" xml:space="preserve">
<path fill-rule="evenodd" clip-rule="evenodd" d="M0.5,174.1c19.8-11.4,38.5-22.3,57.2-33c34.5-19.7,71.8-32.6,108.7-46.7
	c37.7-14.4,75.6-28.1,114.9-38.2C305.4,50,329,41.7,353,34.9c7.8-2.2,16.2-2.2,24.1-4.2c36.2-9.2,73-14.1,110-18.4
	c21.2-2.5,42.4-5.3,63.6-7c21.2-1.7,42.6-2.7,63.9-3.2c42.6-1,85.2-2.4,127.8-1.8c28.5,0.4,56.9,4.1,85.4,6.1
	c14.5,1,29,1.3,43.5,2.4c27.2,1.9,54.3,4.1,81.4,6.2c10.4,0.8,20.9,0.9,31.1,2.7c15.3,2.7,18.7,10.9,13.3,25.4
	c-8.1,21.6-18.7,42.5-19.9,66.2c-0.2,4.4,0.7,8.8,1.1,13.1c0.3,4,1,8.1,0.7,12c-2.5,33.9-3,67.8-8.1,101.6
	c-2.7,17.8-2.5,36.1-6.5,53.9c-2.4,10.6-4.4,21.3-6.6,32c-1.8,8.5-3.7,16.7,1.7,25c1.5,2.3,0.2,6.5,0.1,11.8
	c-17.1-10-33.7-4.6-49.7-5.7c-29.8-2.1-59.7-5-89.7-2c-21.7,2.2-43.3,4.5-65,6.6c-5.3,0.5-10.8,0.1-16.2,0.2
	c-6.3,0.1-12.7-0.1-18.9,0.6c-42.8,5.1-85.7,9.9-128.5,15.7c-27,3.7-53.4,10.1-79.9,17.1c-33.6,9-65.3,22.4-97.2,35.3
	c-19.3,7.8-37.7,17.6-56.8,25.9c-16.5,7.2-33.6,13.1-50.2,20.2c-15.9,6.7-31.6,13.9-47.1,21.4c-23.3,11.3-46.1,23.5-69.4,34.7
	c-14.9,7.2-28.2,16.6-40.7,27.1c-6.2,5.2-13,10.2-20.7,6.9c-8.2-3.5-7.1-12.7-8.2-20.3c-1.5-10.2-3.6-20.3-6.1-30.3
	c-2.4-9.6-5.6-19.1-8.6-28.6c-8.3-25.9-15-52.4-25.5-77.4c-15-35.8-28-71.8-31.2-110.8c-0.5-6.1-3.2-12.2-5.6-18.1
	c-10.5-26.6-21.1-53.2-32-79.6C9.3,190.1,4.9,182.8,0.5,174.1z M85.6,382.3c2.6,6.8,5,12.7,7.1,18.6c6.9,19.6,18,36.7,32.1,51.7
	c11.3,12,26.1,20.1,43.7,10.4c11.9-6.5,24.7-11.3,37.3-16.6c48.1-20.1,96.5-39.8,144.5-60.2c13.3-5.7,26.1-12.8,38.6-20.1
	c7.2-4.2,12.6-10.2,10.9-20.2c-1.7-10.2-1.9-20.7-3.5-31c-2.6-16.6-5.9-33.1-8.5-49.7c-2.8-17.5-4.4-35.2-7.7-52.5
	c-3.4-17.4-8-34.5-12.5-51.7c-2.6-10.1-5.5-20.2-9.4-29.9c-2.5-6.2-6.3-12.2-10.8-17c-7.6-8-17.6-6.3-26.9-3.9
	c-19.8,5-39.7,10-59.3,15.7c-22.2,6.4-44.5,12.6-66.1,20.5c-25.1,9.2-49.8,19.8-74.2,30.7c-19.4,8.7-38.4,18.5-57.3,28.3
	c-15,7.8-17.3,12.5-14.2,28.1c7.3,36.2,14.5,72.4,22.5,108.4c2.5,11.2,7.4,21.9,11.4,33.2c15.5-20.7,36.8-30.9,57.1-41.9
	c1.2-27.2,6-52,28.6-70.2c13-10.5,26.5-17.5,43.5-14.6c9.9,1.7,19.7,3.7,29.4,6c3.5,0.8,7.1,2.3,9.9,4.4
	c22.7,16.8,30.2,39.1,20.4,66c-5.4,14.7-13.6,28.4-21.2,44c4,5.1,9.7,11.6,14.4,18.8c4.4,6.8,10.9,13.3,7.7,23.6
	c-7.6-1.2-10.6-5.9-13.6-11.2c-3.1-5.5-6.4-11.1-10.5-15.8c-7.9-9.1-9.8-9.3-20.8-4.1c-22,10.4-42.5,7.3-61.1-7.6
	c-8.7-7-16-15.6-25.3-24.9C120.1,350.7,106.6,371.6,85.6,382.3z M437.6,76.8c0.1,0.5,0.1,1.1,0.2,1.6c-5.9,0.6-11.8,0.8-17.5,1.9
	c-17.1,3.4-29.8,14.9-25.8,33.4c3.9,18.2,8.2,36.3,13.1,54.2c6.5,24,16.9,47,20.4,71.9c0.9,6.3,3.2,12.3,4.7,18.5
	c1.6,6.5,2.9,13.1,4.2,19.7c3,15.1,5.3,30.5,9.2,45.3c3.2,12.3,8.8,15.3,21.2,13.6c12.1-1.7,24.2-4,36.2-6.4
	c42.3-8.8,84.1-19.7,127.2-24c8.9-0.9,17.8-2.3,26.5-4.3c14.7-3.4,17.9-6.9,19.4-21.7c1.1-11.7,1.1-23.5,1.7-35.2
	c0.9-17.4-2.6-34.3-4.4-51.4c-2.9-27.5-3.6-55.2-5-82.8c-1.3-26.4-13.6-42.4-40.2-46.6c-26.8-4.3-53.3-3.6-80,0.4
	c-18.4,2.8-37,4.6-55.5,6.6C474.6,73.5,456.1,75.1,437.6,76.8z M837.8,300.8c8.1,0.6,16.6,1.3,25.1,1.7c23.6,1.2,47.1,2.1,70.7,3.4
	c6.9,0.4,11.5-2.4,14.3-8.2c2-4.1,3.7-8.3,4.9-12.7c7.6-28.3,8.1-57.6,9.8-86.5c1.8-30.7-0.7-61.6-1.8-92.4
	c-0.4-12-5.3-21.6-17.5-26.7c-10.6-4.5-21.3-7.5-32.9-7.5c-26.8-0.1-53.6-0.9-80.4-0.9c-33.6,0-67.2-0.7-100.7,3.2
	c-8.8,1-12.2,4.9-13.6,12.1c-2.5,12.9-4.4,25.9-6.7,39.7c5.9,2.9,11.5,5.6,16.8,8.1c19.1-12.6,36.2-28.1,60.6-28.1
	c1.7,8-1.7,10.9-7.4,11.7c-17.9,2.3-30.8,12.5-41.7,26.1c-2.2,2.7-4.8,5.1-7.3,7.7c-8-2.5-9.9-13.8-21.1-10.9
	c-1.6,28.2-1.1,56.6,3.1,84.3c15-3.8,28.6-7.2,42.4-10.6c2.9-12.9,10.7-22.5,20.7-29.8c5.2-3.8,12.5-7.2,18.6-6.8
	c18.3,1.4,35.7,6.6,50,19.1c10.5,9.1,13.1,18.3,6.3,30.1c-5.8,10-13.7,18.8-21.1,28.8C831.3,268.8,834.4,283.8,837.8,300.8z
	 M153.1,331.7c6.4,38.2,47.4,54.9,78.9,32.9c17.5-12.2,27-29.3,32.8-48.6c3.3-10.9,4-22.2-2.9-32.9c-15.2-23.6-47-30.1-69-22.8
	C165.4,269.4,146.6,304.3,153.1,331.7z M816.1,259c-2-0.1-3.3-0.3-4.6-0.1c-25.8,4.2-40.4-2.9-52.9-25.5c-0.9-1.6-1.5-3.5-2.7-4.5
	c-9.6-8.1-40.2,2.5-42.9,14.8c-0.2,0.9-0.5,1.8-0.5,2.7c1.1,12.7,1.8,25.4,3.5,37.9c1.3,9.8,7.9,15.2,17.6,16.1
	c8.6,0.8,17.2,1.4,25.8,1.3c21.6-0.2,43.2-0.8,65.2-1.2C827.4,284.4,821.9,271.7,816.1,259z M778.6,192.8c-0.3,0.3-2.5,2-4.4,3.9
	c-10.4,10.4-12.9,22.9-7,34.9c6.4,13,19.5,20.7,33.4,19c13-1.5,24.5-7.2,34.2-15.8c10.6-9.5,10.9-22.8,0.3-32.2
	c-10.9-9.7-24.3-13.6-39.1-11.6C790.8,191.6,785.7,192,778.6,192.8z M638.4,41.6c18.8,0.5,35.4,1.2,52,1.3c8.8,0.1,11.9-4,12.4-14.1
	c0.5-10.1-2.1-12.9-11.8-14.3c-14.7-2.2-28.7,1.1-42.9,4c-4.7,1-7.2,3.5-7.9,8C639.7,30.8,639.2,35.2,638.4,41.6z M329.1,418.1
	c-6.4,2.7-16.9,6.8-27,11.7c-5.1,2.5-6.2,10.5-3,16.9c2.4,4.9,5.1,10.7,12,7.8c12.1-5,23.9-10.6,35.6-16.3c6.2-3,6.5-7.9,3.3-13.6
	C345.8,417.1,342.4,415.4,329.1,418.1z M843.4,42.1c4,0.9,7.4,2.2,10.8,2.3c9,0.3,18,0,27,0c4.5,0,9.1,0.5,13.5-0.3
	c5.8-1,9.6-6.7,9.6-13.1c0-5.6-3.5-8.7-8.4-8.8c-14.4-0.4-28.8-0.2-43.2-0.1c-5.4,0-8.3,3.4-9,8.4C843.2,33.7,843.5,36.8,843.4,42.1
	z M539.7,46.6c13.6-2.8,27.3-5.4,40.9-8.4c2.1-0.5,4.6-1.8,5.7-3.5c1.7-2.8,3.6-6.4,3.2-9.4c-0.4-2.4-4.1-5.9-6.4-6
	c-15.7-0.5-31.6-2.4-46.7,3.2C533.9,31,534.5,38.3,539.7,46.6z M436.5,395c-4.8-7.6-7.7-15.7-16.3-14.7
	c-13.8,1.6-27.7,4.4-38.6,14.5c0.8,7.8,1.3,15.1,10,20.7C405.5,409.2,420.1,402.4,436.5,395z M359.5,78.6
	c10.8-4.2,21.5-8.8,32.6-12.7c6.3-2.2,6.9-6.9,6.1-12c-0.9-5.6-5.7-7-10.4-6.5c-7.2,0.7-14.5,1.8-21.6,3.2
	c-19.2,3.7-20.8,7.4-10.5,24.1C356,75.5,356.8,76,359.5,78.6z M219.8,487.2c18.3-6.1,33.5-13.2,46.2-26c-5.4-8.5-12.2-11.7-21-8.3
	c-11.7,4.5-23.5,9-32.8,19.6C214.5,477.1,216.9,481.7,219.8,487.2z M528.6,368.7c-0.9-14.3-1.9-15.2-13-13.5
	c-6.3,0.9-12.7,1.4-18.8,2.8c-8.2,1.9-16.2,4.6-23.8,6.8c-0.7,17.9,1.3,20.1,16,16.1C502,377.4,514.8,373,528.6,368.7z M742.7,40.4
	c1.5,0.3,3.3,0.9,5,0.8c13.5-1.2,26.9-2.5,40.3-4.1c2.5-0.3,5.6-1.8,7-3.8c1.7-2.3,2.8-5.9,2.3-8.6c-0.3-1.7-3.7-3.5-6-4.2
	c-3-0.9-6.3-1-9.4-0.8c-9.4,0.8-18.9,1.9-28.3,2.9C741.6,24.2,740.2,26.4,742.7,40.4z M438.7,51.9c12.8-1.7,24.4-3.1,36-4.8
	c2.6-0.4,5.2-1.4,7.7-2.4c5.7-2.2,6.4-6.8,3.3-10.8c-2.1-2.7-6.6-5.2-9.9-5.1c-10.3,0.5-20.6,1.8-30.7,3.8
	C433.1,34.9,431.5,40.5,438.7,51.9z M566.8,343.4c2.4,18.9,3.7,20.1,19.5,16.6c7-1.6,13.9-3.9,20.7-6.4c3.9-1.4,7.4-3.8,6.4-9
	c-1-5-3.7-8.5-9.2-8.2C591.6,337.1,579.1,338.3,566.8,343.4z M730.4,323.6c-1.1,19.2,0.9,21,15.7,18.3c7.1-1.3,14.3-2.2,21.3-3.7
	c3-0.6,6.5-1.4,8.4-3.4c4.4-4.6,1.3-11.9-6.1-12.2C756.9,322.1,743.9,323.2,730.4,323.6z M316.8,84.9c-2.3-13.9-2.6-14.7-12.9-13.2
	c-8.8,1.3-17.5,4-26,6.8c-4.7,1.5-7.5,5.2-5,10.7c2.2,4.8,5,9,11.3,6.9C295.2,92.4,306.1,88.5,316.8,84.9z M190.3,502.1
	c-11.2-13.3-12.8-13.7-24.9-7.3c-2,1.1-4,2-6,3.1c-13,6.9-14,11.1-5.1,23c0.7,1,2.2,1.4,4.7,3C169.1,516.9,179.6,509.6,190.3,502.1z
	 M934.8,322.4c-11.9-6.2-24.2-5.4-36.7-1.5c-6.3,2-8.1,7.1-7.5,12.8c0.7,6.8,6.1,5.1,10.5,4.7c7.6-0.6,15.4-0.7,22.9-1.9
	C933.2,335,933.6,334,934.8,322.4z M138.2,150.3c2.2-0.8,7.4-2.4,12.3-4.7c5-2.4,7.6-6.1,4.9-12.2c-2.3-5.2-5.4-8.7-11.4-6.9
	c-6.9,2-13.8,4.4-20.4,7.2c-4.4,1.8-5.4,5.6-4.6,10.2C120.5,152.3,124.1,154,138.2,150.3z M221.7,93.7c-7.9,2.7-16.5,5.2-24.7,8.7
	c-6.1,2.6-7.7,8.6-5.1,14.8c2.5,6,5.9,7.3,13.2,4.5c4.6-1.8,9-4.1,13.4-6.2C231.4,109.1,231.9,106.5,221.7,93.7z M657.2,348.7
	c10.5-1.7,20.3-3.4,30.1-5c5.7-0.9,7.4-5.1,7.4-9.9c0-4.8-3.5-7.6-8.1-7.4c-6.7,0.2-13.5,0.7-20.1,2
	C652.5,331,652.3,331.7,657.2,348.7z M979.1,36.5c-12-4.5-24.2-2.9-37.2-1.6c-1,5.2-1.9,9.8-2.8,14.1c10.9,6.1,20.6,1.3,30.3,0.8
	C978.5,49.4,979.1,48.3,979.1,36.5z M852,322c-11.4-6.2-22.9-2.5-34.2-0.1c-9.8,2.1-9.8,2.5-6.3,14C833.5,339.1,846.3,334.8,852,322
	z M51.4,168.4c-0.1,9.3,4.5,10.6,10.7,8.7c6.4-2,12.7-4.5,18.7-7.4c2-0.9,4.4-3.9,4.2-5.7c-0.2-2-3-5-4.9-5.3
	c-3.8-0.5-8.1-0.3-11.7,1.1C62.5,162,57.2,165.4,51.4,168.4z"/>
<path fill-rule="evenodd" clip-rule="evenodd" fill="#FFFFFF" d="M85.6,382.3c21-10.6,34.4-31.6,56.2-34.9
	c9.3,9.3,16.6,18,25.3,24.9c18.5,14.9,39,18,61.1,7.6c11.1-5.2,12.9-5,20.8,4.1c4.1,4.7,7.4,10.3,10.5,15.8c2.9,5.3,6,10,13.6,11.2
	c3.1-10.2-3.4-16.8-7.7-23.6c-4.6-7.2-10.4-13.6-14.4-18.8c7.6-15.5,15.8-29.2,21.2-44c9.8-26.9,2.3-49.2-20.4-66
	c-2.8-2.1-6.4-3.6-9.9-4.4c-9.7-2.3-19.5-4.3-29.4-6c-17.1-2.9-30.5,4.2-43.5,14.6c-22.5,18.1-27.3,42.9-28.6,70.2
	c-20.3,11-41.5,21.2-57.1,41.9c-4-11.3-8.9-22-11.4-33.2c-8-36-15.2-72.2-22.5-108.4c-3.1-15.5-0.8-20.3,14.2-28.1
	c18.9-9.8,37.8-19.6,57.3-28.3c24.4-10.9,49.1-21.5,74.2-30.7c21.6-8,44-14.1,66.1-20.5c19.7-5.7,39.5-10.7,59.3-15.7
	c9.4-2.4,19.4-4.1,26.9,3.9c4.6,4.8,8.4,10.9,10.8,17c3.9,9.7,6.8,19.8,9.4,29.9c4.5,17.1,9.2,34.3,12.5,51.7
	c3.3,17.4,5,35,7.7,52.5c2.6,16.6,6,33.1,8.5,49.7c1.6,10.3,1.8,20.8,3.5,31c1.7,10-3.8,16-10.9,20.2c-12.5,7.3-25.3,14.5-38.6,20.1
	c-48,20.4-96.3,40.1-144.5,60.2c-12.6,5.2-25.4,10-37.3,16.6c-17.7,9.7-32.5,1.6-43.7-10.4c-14.1-15.1-25.2-32.1-32.1-51.7
	C90.7,394.9,88.2,389.1,85.6,382.3z M299.3,211.4c1.5-20.7,9.2-35,23-46.1c1.4-1.1,2.9-2.5,3.4-4.1c0.6-2,1.1-5.3,0.1-6.2
	c-1.7-1.5-4.8-2.4-7.1-2.1c-1.9,0.2-3.8,2.3-5.3,3.9c-10.9,11.3-21.7,22.7-33.3,34.9c-2.3-0.6-6.2-2.3-10.2-2.7
	c-9-0.8-18.1-1.1-27.1-0.9c-1.5,0-2.9,3.6-4.4,5.6c1.7,1.2,3.3,2.8,5.2,3.6c1,0.4,2.5-0.8,3.8-0.8c13.9-0.6,27.1,0.5,38.4,10.3
	C288.8,209.1,293.6,209.4,299.3,211.4z"/>
<path fill-rule="evenodd" clip-rule="evenodd" fill="#FFFFFF" d="M437.6,76.8c18.5-1.8,37.1-3.3,55.6-5.3c18.5-2,37.1-3.8,55.5-6.6
	c26.7-4,53.1-4.7,80-0.4c26.6,4.2,38.9,20.2,40.2,46.6c1.4,27.6,2.1,55.3,5,82.8c1.8,17.1,5.3,34,4.4,51.4
	c-0.6,11.7-0.6,23.5-1.7,35.2c-1.4,14.8-4.7,18.4-19.4,21.7c-8.7,2-17.6,3.4-26.5,4.3c-43.1,4.3-85,15.2-127.2,24
	c-12,2.5-24.1,4.8-36.2,6.4c-12.4,1.7-18-1.4-21.2-13.6c-3.9-14.9-6.2-30.2-9.2-45.3c-1.3-6.6-2.7-13.2-4.2-19.7
	c-1.5-6.2-3.8-12.2-4.7-18.5c-3.4-25-13.8-47.9-20.4-71.9c-4.9-17.9-9.2-36.1-13.1-54.2c-4-18.4,8.7-29.9,25.8-33.4
	c5.7-1.1,11.7-1.3,17.5-1.9C437.7,77.9,437.6,77.4,437.6,76.8z M550.5,288.3c2.3-2.3,4.1-4.3,6.1-6.1c21-18.9,18.6-54.1-4.7-70.4
	c-30.3-21.2-74.3,6.6-77.5,31.3c-1,7.7-4.6,10.8-10.9,13.5c-4.9,2.1-9.5,5.3-13.5,8.9c-3.2,2.9-2.8,6.4,2.7,8.6
	c6-4.5,11.5-11.3,19.3-9.7c5.2,6.2,9.1,11.9,14,16.3c11.5,10.4,25.3,13.3,40.6,11c13.5-2.1,14.1-1.5,17.9,11.8
	c0.7,2.6,1,5.5,2.1,7.9c1,2.1,2.9,3.7,5.2,6.4C558,307,554,298.2,550.5,288.3z M585.5,102c-4-5.1-6.6-8.6-12-5.1
	c-5.3,3.4-11.2,6.3-15.9,10.4c-11,9.8-21.4,20.3-32.2,30.5c-8.3-5.7-17.2-11.8-26.1-17.9c-4.8-3.3-8.1-2.6-10.4,2.9
	c1.1,1.4,1.7,2.9,2.8,3.4c17,7.6,29.9,20,40.8,34.8c1.3,1.7,5.7,3.5,6.5,2.8c2-1.8,3.7-4.9,3.9-7.6c1.2-18.1,10.6-31.2,24.9-41.4
	C573.1,110.9,578.6,106.9,585.5,102z"/>
<path fill-rule="evenodd" clip-rule="evenodd" fill="#FFFFFF" d="M837.8,300.8c-3.5-17-6.5-32-9.2-45.3c7.4-10,15.3-18.8,21.1-28.8
	c6.8-11.8,4.2-21-6.3-30.1c-14.3-12.4-31.7-17.7-50-19.1c-6.1-0.5-13.4,3-18.6,6.8c-10,7.3-17.8,16.9-20.7,29.8
	c-13.8,3.5-27.4,6.9-42.4,10.6c-4.1-27.7-4.7-56.1-3.1-84.3c11.2-2.8,13.1,8.5,21.1,10.9c2.5-2.6,5.2-4.9,7.3-7.7
	c10.8-13.6,23.8-23.7,41.7-26.1c5.7-0.7,9.1-3.7,7.4-11.7c-24.4,0.1-41.5,15.5-60.6,28.1c-5.2-2.5-10.8-5.3-16.8-8.1
	c2.3-13.8,4.2-26.8,6.7-39.7c1.4-7.1,4.8-11,13.6-12.1c33.5-3.9,67.1-3.2,100.7-3.2c26.8,0,53.6,0.7,80.4,0.9
	c11.6,0.1,22.3,3,32.9,7.5c12.2,5.1,17.1,14.7,17.5,26.7c1.2,30.8,3.6,61.8,1.8,92.4c-1.6,28.9-2.2,58.2-9.8,86.5
	c-1.2,4.4-2.9,8.6-4.9,12.7c-2.8,5.8-7.4,8.6-14.3,8.2c-23.6-1.3-47.1-2.3-70.7-3.4C854.4,302.1,845.9,301.4,837.8,300.8z"/>
<path fill-rule="evenodd" clip-rule="evenodd" fill="#FFFFFF" d="M153.1,331.7c-6.5-27.4,12.3-62.2,39.8-71.4
	c22-7.3,53.8-0.8,69,22.8c6.9,10.7,6.2,22,2.9,32.9c-5.8,19.4-15.3,36.4-32.8,48.6C200.5,386.6,159.5,369.9,153.1,331.7z M240,326.9
	c-5.1-3.4-8.2-5.4-11.3-7.4c-1.9,3.1-5,6.2-5.3,9.5c-0.1,1.6,4.9,5.1,7.6,5.1C233.4,334.1,235.8,330.5,240,326.9z M196.8,327.3
	c2.2-6,4.4-9.8,4.5-13.6c0-1.2-6.8-4.4-8.3-3.4c-2.7,1.8-5,6.1-5,9.4C187.9,321.6,192.4,323.7,196.8,327.3z"/>
<path fill-rule="evenodd" clip-rule="evenodd" fill="#FFFFFF" d="M816.1,259c5.8,12.7,11.3,25.4,8.5,41.4
	c-21.9,0.4-43.5,1.1-65.2,1.2c-8.6,0.1-17.2-0.5-25.8-1.3c-9.7-0.9-16.3-6.3-17.6-16.1c-1.7-12.6-2.4-25.3-3.5-37.9
	c-0.1-0.9,0.3-1.8,0.5-2.7c2.7-12.3,33.3-22.9,42.9-14.8c1.3,1.1,1.9,3,2.7,4.5c12.4,22.6,27.1,29.7,52.9,25.5
	C812.8,258.7,814.1,259,816.1,259z"/>
<path fill-rule="evenodd" clip-rule="evenodd" fill="#FFFFFF" d="M778.6,192.8c7.2-0.7,12.3-1.2,17.4-1.8c14.8-2,28.2,1.9,39.1,11.6
	c10.6,9.4,10.2,22.8-0.3,32.2c-9.7,8.7-21.1,14.3-34.2,15.8c-13.9,1.6-27-6-33.4-19c-5.9-12-3.4-24.5,7-34.9
	C776.1,194.8,778.2,193.1,778.6,192.8z M785.4,219.3c4.1-4.4,4.4-8.6-0.2-11.8c-1-0.7-5.3,1.3-6.2,3.1
	C776.4,215.7,779.8,217.9,785.4,219.3z M806.9,215.1c1.7-4.5,3.6-7.2,3.5-9.8c-0.1-1.2-4.1-3.4-6-3.1c-1.7,0.2-4.4,3.8-4,5.1
	C801.1,209.8,803.8,211.6,806.9,215.1z"/>
<path fill-rule="evenodd" clip-rule="evenodd" d="M299.3,211.4c-5.6-1.9-10.5-2.3-13.4-4.8c-11.3-9.7-24.5-10.9-38.4-10.3
	c-1.3,0.1-2.8,1.2-3.8,0.8c-1.9-0.8-3.5-2.3-5.2-3.6c1.5-1.9,2.9-5.5,4.4-5.6c9-0.2,18.1,0.2,27.1,0.9c4,0.3,7.9,2,10.2,2.7
	c11.6-12.2,22.4-23.6,33.3-34.9c1.5-1.6,3.4-3.7,5.3-3.9c2.3-0.3,5.4,0.6,7.1,2.1c1,0.9,0.5,4.2-0.1,6.2c-0.5,1.6-2,3-3.4,4.1
	C308.5,176.3,300.8,190.7,299.3,211.4z"/>
<path fill-rule="evenodd" clip-rule="evenodd" d="M550.5,288.3c3.5,10,7.4,18.7,1.3,29.4c-2.3-2.7-4.2-4.4-5.2-6.4
	c-1.1-2.4-1.3-5.3-2.1-7.9c-3.8-13.3-4.4-13.9-17.9-11.8c-15.2,2.3-29-0.6-40.6-11c-4.9-4.5-8.8-10.1-14-16.3
	c-7.8-1.6-13.3,5.3-19.3,9.7c-5.5-2.2-5.9-5.7-2.7-8.6c4-3.6,8.6-6.8,13.5-8.9c6.3-2.7,9.9-5.8,10.9-13.5
	c3.2-24.7,47.3-52.5,77.5-31.3c23.3,16.3,25.7,51.6,4.7,70.4C554.7,284,552.9,286,550.5,288.3z M560.6,244.6
	c-5.5-20.7-14.7-30.9-35.9-28.5c-1.8,0.2-3.6,0.8-5.4,0.9c-21.9,1-34.5,13-36,34.2c-1.3,17.2,10.7,31.1,28,31.9
	c5.9,0.3,11.8,0.1,17.7-0.5C550.1,280.2,563.5,264.1,560.6,244.6z"/>
<path fill-rule="evenodd" clip-rule="evenodd" d="M585.5,102c-6.9,5-12.4,8.9-17.8,12.8C553.4,125,544,138,542.8,156.2
	c-0.2,2.7-1.9,5.8-3.9,7.6c-0.8,0.7-5.2-1.1-6.5-2.8c-11-14.7-23.8-27.1-40.8-34.8c-1.1-0.5-1.7-2-2.8-3.4c2.3-5.5,5.6-6.2,10.4-2.9
	c8.9,6.2,17.8,12.3,26.1,17.9c10.8-10.3,21.2-20.7,32.2-30.5c4.7-4.2,10.5-7,15.9-10.4C578.9,93.3,581.4,96.8,585.5,102z"/>
<path fill-rule="evenodd" clip-rule="evenodd" d="M240,326.9c-4.2,3.5-6.6,7.1-9,7.1c-2.7,0-7.8-3.5-7.6-5.1
	c0.3-3.3,3.4-6.3,5.3-9.5C231.7,321.5,234.8,323.6,240,326.9z"/>
<path fill-rule="evenodd" clip-rule="evenodd" d="M196.8,327.3c-4.4-3.6-8.8-5.7-8.8-7.7c0-3.3,2.3-7.6,5-9.4c1.5-1,8.4,2.2,8.3,3.4
	C201.2,317.5,199,321.2,196.8,327.3z"/>
<path fill-rule="evenodd" clip-rule="evenodd" d="M785.4,219.3c-5.6-1.4-9-3.7-6.4-8.7c0.9-1.7,5.2-3.7,6.2-3.1
	C789.9,210.7,789.5,214.9,785.4,219.3z"/>
<path fill-rule="evenodd" clip-rule="evenodd" d="M806.9,215.1c-3.1-3.5-5.8-5.3-6.6-7.8c-0.4-1.2,2.4-4.8,4-5.1
	c1.9-0.3,6,1.8,6,3.1C810.5,207.9,808.6,210.6,806.9,215.1z"/>
<path fill-rule="evenodd" clip-rule="evenodd" fill="#FFFFFF" d="M560.6,244.6c3,19.5-10.4,35.6-31.7,37.9
	c-5.8,0.6-11.8,0.8-17.7,0.5c-17.2-0.8-29.2-14.6-28-31.9c1.5-21.2,14.2-33.1,36-34.2c1.8-0.1,3.6-0.7,5.4-0.9
	C545.9,213.6,555,223.9,560.6,244.6z M512.4,246.4c2.4-4.2,5.1-6.9,5.2-9.8c0-1.5-4.4-4.1-7.1-4.4c-4.6-0.6-6.5,3.5-5.7,7
	C505.3,241.6,508.7,243.2,512.4,246.4z M538,249c1.7-3.7,3.8-6.6,3.2-7.2c-2.1-2.3-4.9-4-7.7-5.5c-0.2-0.1-3.6,4-3.2,4.7
	C532,243.7,534.7,245.7,538,249z"/>
<path fill-rule="evenodd" clip-rule="evenodd" d="M512.4,246.4c-3.6-3.2-7-4.8-7.6-7.1c-0.8-3.6,1.1-7.6,5.7-7
	c2.6,0.3,7.1,2.9,7.1,4.4C517.5,239.5,514.8,242.3,512.4,246.4z"/>
<path fill-rule="evenodd" clip-rule="evenodd" d="M538,249c-3.4-3.3-6-5.4-7.7-8c-0.4-0.6,3-4.8,3.2-4.7c2.8,1.5,5.6,3.2,7.7,5.5
	C541.8,242.4,539.7,245.3,538,249z"/>
</svg>
