<?xml version="1.0" encoding="utf-8"?>
<!DOCTYPE svg PUBLIC "-//W3C//DTD SVG 1.1//EN" "http://www.w3.org/Graphics/SVG/1.1/DTD/svg11.dtd">
<svg artist="zl2017" version="1.1" id="zlIcon-fire-matches" xmlns="http://www.w3.org/2000/svg" xmlns:xlink="http://www.w3.org/1999/xlink" x="0px" y="0px"
	 width="1000px" height="1193.7px" viewBox="0 0 1000 1193.7" enable-background="new 0 0 1000 1193.7" xml:space="preserve">
<path fill-rule="evenodd" clip-rule="evenodd" d="M612.6,707.7c-6.4,0-13.6-1.7-19.1,0.5c-5.3,2.1-8.7,8.7-13.3,12.8
	c-20.5,18-41.2,35.8-61.8,53.7c-15.1,13.2-30.3,26.3-45.2,39.7c-23.8,21.4-47,43.3-73.5,61.7c-16.8,11.7-31.6,26.3-46.9,40
	c-21.8,19.5-43.3,39.2-64.6,59.1c-7.3,6.8-13.8,14.5-20.7,21.8c-43.3,46-86.8,91.7-129.8,138c-13,14-24.4,29.5-36.5,44.4
	c-7.6,9.3-16.2,16.4-29.5,13.7c-7-1.5-11.8-5.2-16.1-11c-12.9-17.7-26.5-35-39.4-52.7c-4.8-6.5-9.3-13.5-12.3-20.9
	c-6.5-16.5-3.9-26.9,10.4-37.8c16.3-12.5,33.8-23.4,50.3-35.7c14.2-10.5,27.9-21.8,41.6-32.9c13.7-11.2,26.3-23.9,40.9-33.6
	c19.3-12.9,35-29.7,52.5-44.5c58.1-49.3,109.6-105.6,167.2-155.3c20.7-17.8,42.3-34.4,63.3-52c19.1-16,38.2-31.9,56.4-48.8
	c9.8-9.2,16.1-20.9,16.3-35.5c0.1-10.9,1.6-22,4.4-32.5c7.3-27.3,26.7-44.6,50.7-57.4c16.4-8.8,32.9-17.5,49.6-25.9
	c22.7-11.4,47-16.5,72.3-15.1c17.5,1,34.2,4.9,46.1,19.7c12.1,15,18.1,31.4,11.5,50.6c-8.6,24.9-19.3,48.7-37.4,68.5
	c-12,13-22.6,27.4-35.5,39.5c-10,9.4-22.2,16.6-33.9,23.8c-5.1,3.1-11.6,3.9-17.4,5.8C612.8,708.7,612.7,708.2,612.6,707.7z
	 M595,679.9c-2.8-3.5-4.6-7.2-7.5-9.1c-14.5-9.3-29.3-18.3-46.7-21c-9.6-1.5-16.9,2.4-23.9,9.7c-19.3,19.9-39.5,38.9-59.5,58.1
	c-6.9,6.6-14.4,12.4-21.3,18.9c-14.3,13.4-28,27.5-42.5,40.6c-20.2,18.1-41.1,35.4-61.3,53.5c-26.7,23.9-52.7,48.5-79.6,72.3
	c-23.6,20.9-47.9,41.1-71.9,61.5c-27.2,23.2-56.7,43.5-82.2,68.8c-8.8,8.7-19,16-29.2,23.1c-16.8,11.8-33.7,23.1-45.5,40.7
	c-3.8,5.6-3.9,9.1,0,13.8c13.2,15.8,26.1,31.7,39.5,47.3c6.6,7.7,10.8,7.8,18,0.8c9.2-9,18.1-18.4,27-27.8
	c15.4-16.4,30.5-33.1,46.1-49.3c18.9-19.6,38-39.1,57.6-58.1c26.8-25.9,54-51.4,81.4-76.8c14-13,28.9-25,43.2-37.6
	c32.7-28.7,65.4-57.5,98.1-86.3c17.9-15.8,35.8-31.7,53.6-47.6c8.9-8,17.2-16.5,26.2-24.4c10.4-9.2,20.6-18.6,31.7-26.8
	c15-11.1,29.8-22.4,42.5-36.1C590.8,685.9,592.5,683.2,595,679.9z M615.3,646.9c4.2,4.3,7.2,7.8,10.7,10.8
	c10.1,8.7,20.6,7.7,27.9-3.2c4.5-6.7,8.9-13.8,11.2-21.4c3.3-11.1,3.5-22.7-1.9-35.3C655.4,622.2,630.8,629.2,615.3,646.9z"/>
<path fill-rule="evenodd" clip-rule="evenodd" d="M945,169.9c-9.1,4.9-15.6,8.2-22,11.9c-14.5,8.3-28.9,16.8-43.3,25.3
	c-7,4.1-15.9,6.9-20.5,12.9c-13,16.9-27.5,34.3-22.8,58c5.8,29.1,1,57.1-6.2,85.2c-7.4,28.5-18.9,55.4-32.7,81.1
	c-6.7,12.4-16.9,23-25.9,34.1c-2.7,3.4-6.5,5.8-13.1,1.7c1.8-4.7,2.8-10.3,5.9-14.5c16.6-23,31.3-47.5,40.7-74
	c10.9-30.5,23.1-61.8,16.7-95c-3.4-17.6-11.2-34.5-17.7-51.4c-13.8-35.8-27.3-71.6-27.3-110.8c0-3.2-1-6.4-1.7-10.1
	c-6.7,0.1-9.1,5.1-10.1,9.1c-4.4,17.6-14.2,32.3-23.5,47.4c-14.5,23.7-28.4,47.5-47.9,67.8c-17.8,18.5-37.9,33.3-59.7,46.6
	c-31.9,19.5-61.9,41.7-85.3,71.6c-15.7,20-25.2,41.9-19.9,67.9c1,5,3.3,9.8,5.5,14.5c2,4.3,5.5,8,7.1,12.5c3.5,9.4,9.1,16.2,18,21.4
	c9.1,5.2,9.1,13.7,1.6,20c-4.4,3.7-8.6,4.3-12.5-0.2c-5.6-6.5-12.1-12.6-16.3-20c-9.1-16.2-17.8-32.8-25.2-49.9
	c-9.9-22.8-1.2-63,27.1-84.8c5.2-4,9.5-9.3,14.5-13.7c10.1-8.6,20-17.7,30.9-25.3c16-11.3,32.9-21.4,49.3-32.2
	c2.8-1.8,5.3-4.2,7.5-6.7c3.5-3.9,4.1-8.1,1.4-13.1c-7.8-14.1-14.3-29.1-23-42.5c-5-7.7-12.8-14.3-20.7-19.2
	c-7.5-4.7-16.7-7.1-25.3-9.9c-16.4-5.3-32.8-10.3-49.3-15.3c-4.5-1.4-9-2.4-15.5-4.1c0.3,5.8,0.1,10,0.9,13.9
	c7.4,35,5.2,69.9-3.9,103.9c-5.9,21.9-13.7,43.5-25.5,63.6c-8.4,14.2-15.5,30.1-18.6,46.2c-5.5,28.8,7.1,53.2,25.8,74.3
	c7.6,8.5,17.2,15.2,25.3,23.3c3.1,3.1,5,7.6,6.5,11.9c1.4,4,1.5,8.4,2.2,12.7c1.1,7.9-1.4,14-8,18c-1.5-0.5-2.7-0.5-3.2-1.1
	c-12.8-14.1-25.2-28.7-38.4-42.4c-11-11.3-18.1-24.3-22.9-39.2c-9.7-30.3-11.4-59.8,1.9-89.6c8.4-18.8,14.7-38.4,22.5-57.5
	c4.3-10.5,10.1-20.4,14.8-30.8c8.4-18.7,10-38.8,10.9-58.9c0.1-3.3,0.3-6.8-0.6-10c-6.1-22.6-12.6-45.1-18.8-67.7
	c-1.4-5-3.4-10.1-3.3-15.2c0.1-6.4,5.9-8.8,11.3-5.1c3.5,2.4,6.9,5.4,9.4,8.8c15.7,21.2,38.5,30.7,62.5,38.5
	c5,1.6,10.1,3.3,15.3,4.1c24.6,3.8,44.7,16.5,63.7,31.3c5.2,4.1,9.4,9.4,14,14.4c2.3,2.5,3.9,5.4,6.2,7.9
	c16.4,18.4,17.3,18.1,37.1,3.8c10-7.2,17.3-16.2,23.6-26.6c15.6-25.9,26.9-53.7,37.5-82C762,88.7,775.3,62,787.5,35
	c1.5-3.3,4-6.5,6.8-8.9c4.8-4.3,9-8.6,9.2-15.5c0-1.4,0.5-3.2,1.4-4c3.1-2.4,6.6-4.4,9.9-6.6c1.4,3.3,4.5,6.9,3.9,9.9
	c-3,17.4-5.9,34.9-10.5,52c-11,41.1-13.8,81.9-1.1,123.1c2.7,8.7,4,17.7,6.2,26.5c1,3.9,2.4,7.7,4,12.6c7.1-4.7,13.1-7.7,17.9-12.1
	c16.7-15.2,38-21.7,57.3-32.1c22.2-11.9,46.5-20.8,62.5-41.9c16.1-7.1,22.9-21.9,30.2-36.3c0.8-1.7,2-3.5,3.5-4.5
	c1.8-1.3,4.8-3.1,6.2-2.4c2.1,1,5,4.2,4.7,6.1c-1.4,8.4-2.5,17.1-6,24.8c-9.9,22.3-20.9,44.1-31.5,66.1c-0.6,1.3-1.3,2.7-1.4,4
	c-2.8,23.7-8,47.3-6.3,71.4c1.7,23.4,5.1,46.7,5.1,70c0,18.5-3.3,37.1-6.5,55.5c-5.1,28.9-14.2,56.6-28.2,82.6
	c-13,24.1-31.6,43-53.5,59c-15.2,11.1-31.7,19.3-49.7,25.1c-10.3,3.3-19.8,9.5-29.3,14.9c-9.3,5.3-13.2,5.2-16.8-1.6
	c-4.5-8.5-1.8-16.7,7.1-19.8c9.9-3.5,20.3-5.7,30.1-9.5c25.5-10,49.9-22.1,70.4-40.8c5.9-5.4,11-11.9,15.4-18.6
	c17.6-26.6,32.4-54.3,34-87.2c0.4-7.1,2.2-14.2,3.9-21.2c4.6-18.7,2.2-37.1-2.2-55.3c-3.9-16.3-8.7-32.4-12.4-48.7
	c-2.8-12.3-2.9-24.8,1.3-36.9c6.3-17.6,13-35,19.5-52.5C943.6,179.4,943.8,176.2,945,169.9z"/>
<path fill-rule="evenodd" clip-rule="evenodd" d="M714.2,308.1c5.3,9.1,5.2,16.3,2.1,23.6c-4.9,11.9-10,23.7-15.2,35.5
	c-8.5,19.4-6.6,30.4,7.7,45.5c3,3.1,5.6,6.5,8.6,9.6c4.8,5,5.9,10.5,3.9,17.1c-2.8,9.1-4.6,18.6-7.4,27.7
	c-2.8,9.1-6.7,10.9-14.9,7.7c-11.5-4.5-23.1-8.7-34.3-13.9c-12.9-6-23-15.1-27.5-29.4c-2-6.3-1.4-11.9,1.4-17.9
	c7.4-15.8,18.1-29.1,30.1-41.5c16.7-17.1,32-35.3,40.5-58.2C709.8,312.4,711.5,311.2,714.2,308.1z"/>
<path fill-rule="evenodd" clip-rule="evenodd" fill="#FFFFFF" d="M595,679.9c-2.5,3.3-4.2,6-6.3,8.3c-12.8,13.7-27.5,25-42.5,36.1
	c-11.1,8.2-21.4,17.6-31.7,26.8c-8.9,7.9-17.3,16.4-26.2,24.4c-17.8,16-35.7,31.8-53.6,47.6c-32.7,28.8-65.4,57.5-98.1,86.3
	c-14.4,12.6-29.2,24.7-43.2,37.6c-27.4,25.3-54.6,50.8-81.4,76.8c-19.6,18.9-38.7,38.5-57.6,58.1c-15.6,16.2-30.7,32.9-46.1,49.3
	c-8.8,9.4-17.7,18.8-27,27.8c-7.2,7-11.4,6.9-18-0.8c-13.4-15.6-26.4-31.5-39.5-47.3c-3.9-4.7-3.8-8.2,0-13.8
	c11.9-17.5,28.8-28.8,45.5-40.7c10.1-7.1,20.4-14.4,29.2-23.1c25.5-25.3,55.1-45.6,82.2-68.8c24-20.5,48.3-40.6,71.9-61.5
	c26.8-23.8,52.9-48.4,79.6-72.3c20.2-18.1,41.2-35.3,61.3-53.5c14.6-13.1,28.3-27.2,42.5-40.6c6.9-6.5,14.5-12.3,21.3-18.9
	c20-19.2,40.2-38.2,59.5-58.1c7-7.3,14.4-11.2,23.9-9.7c17.4,2.6,32.2,11.7,46.7,21C590.4,672.7,592.2,676.4,595,679.9z M491,698.8
	c0.9,1,1.9,2,2.8,3c9.5-4.4,12.6-14.8,20.7-20.4c-1-1-2-2-3-3C504.6,685.2,497.8,692,491,698.8z M511.3,709.4
	c0.5,0.8,0.9,1.6,1.4,2.5c4-2.3,8.1-4.4,11.9-7.1c3.7-2.5,7-5.6,10.4-8.4c-0.5-0.6-1-1.3-1.5-1.9
	C526.2,699.5,518.7,704.5,511.3,709.4z M472.2,718.3c0.8,0.7,1.6,1.5,2.4,2.2c3.4-3.8,6.8-7.7,10.2-11.5c-4.1,0.7-6.5,2.9-8.9,5.2
	C474.5,715.5,473.4,717,472.2,718.3z"/>
<path fill-rule="evenodd" clip-rule="evenodd" fill="#FFFFFF" d="M615.3,646.9c15.6-17.7,40.1-24.7,47.9-49.1
	c5.3,12.5,5.2,24.2,1.9,35.3c-2.2,7.6-6.7,14.8-11.2,21.4c-7.3,10.9-17.7,11.9-27.9,3.2C622.5,654.7,619.5,651.2,615.3,646.9z"/>
<path fill-rule="evenodd" clip-rule="evenodd" d="M491,698.8c6.8-6.8,13.6-13.6,20.5-20.4c1,1,2,2,3,3c-8.1,5.6-11.3,16-20.7,20.4
	C492.8,700.8,491.9,699.8,491,698.8z"/>
<path fill-rule="evenodd" clip-rule="evenodd" d="M511.3,709.4c7.4-5,14.8-9.9,22.2-14.9c0.5,0.6,1,1.3,1.5,1.9
	c-3.5,2.8-6.8,5.9-10.4,8.4c-3.8,2.6-7.9,4.7-11.9,7.1C512.3,711.1,511.8,710.3,511.3,709.4z"/>
<path fill-rule="evenodd" clip-rule="evenodd" d="M472.2,718.3c1.2-1.4,2.3-2.8,3.7-4.1c2.3-2.3,4.8-4.5,8.9-5.2
	c-3.4,3.8-6.8,7.7-10.2,11.5C473.8,719.8,473,719.1,472.2,718.3z"/>
</svg>
