<?xml version="1.0" encoding="utf-8"?>
<!DOCTYPE svg PUBLIC "-//W3C//DTD SVG 1.1//EN" "http://www.w3.org/Graphics/SVG/1.1/DTD/svg11.dtd">
<svg artist="zl2017" version="1.1" id="zlIcon-fire-camp" xmlns="http://www.w3.org/2000/svg" xmlns:xlink="http://www.w3.org/1999/xlink" x="0px" y="0px"
	 width="1000px" height="1065.4px" viewBox="0 0 1000 1065.4" enable-background="new 0 0 1000 1065.4" xml:space="preserve">
<path fill-rule="evenodd" clip-rule="evenodd" d="M616,0c1.9,3.2,4.6,6.2,5.4,9.7c4.1,17.8,7.7,35.8,11.5,53.7
	c2.2,10.7,4.5,21.5,6.6,32.3c3,15.3,5.6,30.6,8.8,45.9c7.2,34.9,25.9,63.3,51,87.7c18,17.4,37,33.9,55.3,51
	c12.7,11.8,25.2,23.7,37.4,35.9c5.5,5.5,10.1,11.9,15.4,17.5c10.4,11.1,10.6,25.9,14.6,39.3c3.3,10.9,5.6,22.2,7.8,33.4
	c1,5.3,1.7,11,1,16.4c-2.4,20.4-6.6,40.6-8,61.1c-1.1,16.5-8.4,30.7-13,45.9c-11.8,38.4-30.8,73.4-51,107.7
	c-10.4,17.7-21.6,34.9-32.6,52.3c-1.4,2.3-3,4.8-5.2,6.3c-1.6,1.1-4.5,1.6-6.2,0.8c-1.7-0.8-3.2-3.3-3.5-5.3
	c-0.3-2.1,0.7-4.5,1.7-6.5c1.4-2.9,3.2-5.6,5.1-8.1c16.9-23,29.1-48.6,42.6-73.6c10-18.5,20.3-36.8,26.7-56.8
	c7.3-23,16-45.8,16.8-70.3c0.6-17.7,2-35.6,0.4-53.2c-2-23.4-11.1-44.9-20.4-66.5c-11.4-26.5-32.7-44.1-53.4-61.6
	c-23.6-20-45.6-41.7-62.3-67.2c-12.3-18.7-22.6-39.7-27.6-62.3c-4.2-19.2-8.8-38.4-13.6-57.5c-1.3-5.1-3.8-9.8-6.3-16
	c-6,4.8-6.3,9.8-6.7,14.6c-0.5,5-1,10.1-0.8,15.1c1.1,22.5-6.5,43.3-12.3,64.4c-3.7,13.2-7.3,26.7-13.6,38.7
	c-8,15.3-17.9,29.7-28.1,43.7c-23.3,32-55,54.5-87.2,76.5c-15.8,10.8-31.1,22.5-46.3,34.2c-20.7,15.8-41.2,31.9-61.8,48
	c-3.6,2.8-6.9,6-9.9,9.3c-12.3,13.5-25.9,26.1-36.2,41c-11.1,16.1-19.8,33.9-27.8,51.8c-3.5,8-3.2,18-3.4,27.1
	c-0.5,25.1-1.8,50.3,2.8,75.3c3.2,17.4,11.1,31.7,24,43.7c3.2,3,6.5,6.8,7.9,10.8c1,2.8,0,8-2,9.8c-1.9,1.6-7.1,1.3-9.7-0.2
	c-4.3-2.4-7.7-6.3-11.3-9.8c-5.9-5.7-10.9-12.5-17.4-17.2C266,657.4,255,643,247.5,626.1c-3.1-6.8-5.1-15.4-3.9-22.6
	c2.8-16.9,3.6-34,10.6-50.7c6-14.4,15.3-27.3,19.8-41.8c7.4-23.8,26-38.5,41.1-55.6c15-17,33.9-30.6,51.5-45.2
	c16.2-13.4,32.8-26.3,49.5-39.1c17.1-13.1,34.6-25.6,51.7-38.7c14.9-11.4,29.9-22.7,43.9-35.1c26-23.2,49.7-48.2,65-80.4
	c15.9-33.2,23.8-67.8,24.5-104.6c0.5-25.5,4.2-51,6.3-76.5c0.6-7.3,0.7-14.6,1.5-21.9c0.4-4.3,1.6-8.5,2.4-12.8
	C612.9,0.7,614.4,0.4,616,0z"/>
<path fill-rule="evenodd" clip-rule="evenodd" d="M174.8,817.3c5.2,2.7,9.1,5.1,13.3,6.7c24.3,9.2,44.8,24.5,64.2,41.3
	c3.1,2.7,6.1,5.7,8.3,9.1c13.1,20.3,26.2,40.6,38.9,61.2c4.5,7.3,7.8,15.3,11.7,22.9c3,6,6.7,7,15.1,2.4
	c14.4-7.9,28.3-16.6,42.6-24.7c17.1-9.6,34.6-18.7,51.7-28.3c11.9-6.7,23.5-13.9,35.4-20.7c10.3-5.9,20.5-12,31.1-17.1
	c7.2-3.4,15.2-5.2,22.8-7.8c0.8,0.9,1.6,1.8,2.4,2.6c-1.3,2.8-2,6.4-4.1,8.4c-5.4,4.9-11.4,9.2-17.3,13.5
	c-19.3,13.9-39.1,27.2-58.1,41.5c-10.9,8.2-20.4,18.4-31.1,27c-9.2,7.4-19.4,13.6-28.8,20.7c-14.3,10.6-28.7,21-42.3,32.4
	c-11.4,9.6-22.1,20.1-32.5,30.8c-5.7,5.9-10,13-15,19.6c-5.7,7.5-12.1,8.4-19.9,2.9c-8.2-5.8-16.9-10.9-24.8-17
	c-11.9-9.2-22.5-20.2-35.1-28.3c-13.7-8.8-29-15-43.7-22.4c-11.8-5.9-23.7-11.5-35.1-17.9c-2.1-1.2-3.8-6.9-2.7-9
	c1.2-2.2,6.4-4.5,8.8-3.6c7,2.4,16.5,2.9,15.6,12c8.8,3.1,16.4,4.8,23,8.4c16.1,8.7,32,17.9,47.4,27.7c13.1,8.4,25.4,17.9,38,27
	c5.5,4,11.1,9.8,18.4,5.3c6.7-4.2,8.5-11.8,8.4-19.4c-0.3-13.6-1.6-27.1-1.3-40.6c0.1-4.7,4-9.3,6.6-14.8c-8-6.2-11-15.2-9.5-25.9
	c0.2-1.7,0.1-3.8-0.7-5.3c-8.3-15.8-14.4-33.5-25.7-46.7c-16.1-18.9-35.1-35.9-58.8-45.7c-13.9-5.8-29-4.7-43.5-3.6
	c-35.6,2.7-67.5,15.8-95.5,37.9c-9.5,7.5-16.7,16.6-16.9,30c-0.2,10.6-0.4,12.1,10.1,15.9c15,5.5,30.3,10.2,45.3,15.8
	c6.7,2.5,13,6.5,19.5,9.6c5.6,2.7,7.3,7.4,4.4,12.5c-3.1,5.6-8.3,4.4-13.2,1.9c-15.8-8.2-31.5-16.8-47.6-24.2
	C40.3,935,26.1,929.8,12,924.7c-8.8-3.2-12.3-9-11.3-17.9C2,895.1,5.4,885,17.2,878.8c7.6-4,14.6-9.6,20.6-15.7
	c14.6-14.6,32.2-23.8,50.9-31.6c19.4-8.1,38.3-17.3,57.9-25c18.3-7.2,36.9-13.7,55.7-19.4c35.4-10.7,71.1-20.7,106.7-30.8
	C346,745.9,383,735.7,420,725.5c2.1-0.6,4.3-0.7,7.5-1.1c0.9,8.7-3.6,12.5-10.2,14.2c-18.4,4.7-36.9,9.1-55.4,13.6
	c-1.3,0.3-2.9,0.4-4,1.1c-15.9,10.1-34.6,11.5-52,16.7c-39,11.7-78,23.4-117,35.2C183,807,178.1,809.9,174.8,817.3z"/>
<path fill-rule="evenodd" clip-rule="evenodd" d="M229.3,135.5c-2.2,15.7-3.4,30.2-6.2,44.4c-5.5,27.7-7.2,56.2-19.5,82.5
	c-5.8,12.4-8.4,26.1-13.6,38.9c-4.9,12.3-11.2,24-16.9,35.9c-7.2,15.3-14.4,30.6-21.7,45.9c-2.3,4.9-4.5,10-7.5,14.5
	c-21.4,32.5-37.3,66.9-41.1,106.4c-2.1,21.8,0.5,43.4,11.1,61.3c12.1,20.5,24.7,42,47,54.4c5.5,3.1,10.8,7.1,15.4,11.5
	c5.7,5.5,11.5,10.2,19.6,11.7c3,0.6,5.6,2.9,8.2,4.8c7.4,5.3,14.8,10.6,22.1,16.1c2.2,1.6,5.5,3.3,5.8,5.4c0.6,3.2-0.4,7-1.9,10
	c-0.5,1-5.2,0.8-7.2-0.3c-16.3-9.1-32.1-19.1-48.6-27.8c-23.8-12.6-45-28.7-62-49.2c-17.3-20.9-30.7-45.1-33.5-72.5
	c-1.4-14,2.1-29.3,6.8-42.8c8.5-24.5,19-48.5,29.9-72c9.3-19.9,20.1-39.1,30.9-58.2c12-21.1,23.2-42.7,30.5-65.8
	c7.3-23.1,13-46.7,13.9-71.2c0.5-15.5,2.3-31,3.1-46.5c1.2-23.4-1.4-46.6-7.3-69.2c-5.5-21.3-11.6-42.4-17.1-63.7
	c-1.1-4.1-0.2-8.8-0.2-13.5c8.8-0.8,12.1,5,15.5,10.2c11.5,18.1,23.5,36,34.1,54.7c12.1,21.1,30.9,34.6,50.4,47.4
	c5.3,3.5,11.1,6.4,16.9,9c21.4,9.5,44.5,13,67.4,16.7c13.1,2.1,26.5,2,39.6,3.7c6.7,0.9,13.2,3.3,19.6,5.6
	c22.4,8.1,44.1,17.4,63.6,31.7c14.7,10.8,30.8,19.7,46.1,29.7c12.6,8.3,12.4,12.9,3.5,25.5c-11.6,16.4-26.2,29-44.2,41.2
	c-4.2-4.7-9.2-8.7-12.2-13.9c-11.4-19.8-21.9-40.1-33.3-59.9c-7.8-13.4-19.9-22.2-33.4-29.7c-26.9-14.9-56.4-20.3-86.1-26.4
	c-24-4.9-48.2-11.5-67.6-28.6C244.1,138.8,237.8,134.9,229.3,135.5z"/>
<path fill-rule="evenodd" clip-rule="evenodd" d="M595.7,399.7c8.5,12.3,12.3,24.7,12.6,37.4c0.3,13.6-1,27.4-3.6,40.8
	c-6.6,33.9-3.9,66.5,10.7,97.8c11,23.6,13,48.1,8.3,73.5c-1.9,10.3-2.6,20.9-4.8,31.1c-0.9,4-3.5,8.4-6.6,11
	c-12.2,9.8-26.8,9.3-40.7,5.8c-19.4-5-38.6-11-57.2-18.4c-10.7-4.2-20.2-11.2-21.2-25.5c-0.4-6.6-5.3-12.9-7.9-19.5
	c-5.5-13.6-1.9-26.9,5-38.1c9-14.7,20.8-27.6,30.9-41.7c7.7-10.8,14.8-22,21.9-33.2c6.3-10,12.4-20.2,18.4-30.4
	c3.5-5.9,6.3-12.2,9.8-18.1c10.5-17.4,10.6-37.6,15.3-56.6C588,409.9,589,404.2,595.7,399.7z"/>
<path fill-rule="evenodd" clip-rule="evenodd" d="M645.6,735.1c8.3-2,13.8,1.4,16.9,6c6.9,10.4,17.9,15.6,27.3,22.4
	c17.4,12.5,36.5,22.5,54.5,34.2c12.6,8.2,24.4,17.5,36.6,26.3c2.2,1.6,4.2,3.5,6.5,4.9c20.2,12.5,40.5,24.9,60.7,37.3
	c1.6,1,3.1,2.2,4.8,2.7c18.6,5.1,28.9,19.7,40.2,33.7c9.1,11.3,15.2,24,18.6,37.8c2.5,10.1,3.8,20.6,4.9,30.9
	c0.5,4.8-3.1,7.1-7.8,7.9c-22.1,3.8-44.2,7.2-66.2,11.7c-22.3,4.5-44.7,9-66.5,15.6c-24.4,7.4-48,17.4-72.2,25.8
	c-9.9,3.4-20.2,5.7-30.3,8.4c-1.7,0.4-3.8,0.5-5.4-0.2c-16.7-6.9-34.2-11.6-44.5-29.4c-10.2-17.7-23.7-33.5-34.7-50.8
	c-5.8-9.1-9.9-19.5-14-29.6c-8.1-20.5-21.2-38.1-31.4-57.4c-9.1-17.3-15.1-36.1-22.6-54.2c-1.5-3.8-4-7.2-5-11.1
	c-0.7-2.6-0.5-6.7,1.1-8.4c1.6-1.7,6-2.4,8.2-1.4c3.8,1.7,9.2,3,8.9,9.1c-0.8,15.6,8.6,27.6,14.7,40.7c7.2,15.3,15.2,30.3,24.2,44.5
	c9.9,15.8,20.1,31.6,32.4,45.5c10.8,12.2,24.6,21.7,37.2,32.3c2.1,1.8,4.5,3.1,6.9,4.4c8.1,4.4,12.2,3.7,17.6-3.5
	c2.7-3.6,4.8-7.8,7.5-11.5c9.7-13.2,18.6-26.8,32-37.2c8-6.2,12.7-16.4,19.4-24.4c3.8-4.5,8.1-8.6,12.8-12.2
	c14.1-10.9,28.6-21.3,42.7-32.3c7.8-6.1,6.9-9.3-1.9-15c-15.4-9.9-30.5-20.2-45.6-30.4c-18.1-12.2-36.5-23.9-54-36.9
	c-11-8.1-20.6-18.1-30.5-27.6C647.8,741.7,647.2,738.5,645.6,735.1z M662.1,1019.4c1,0.9,2,1.9,3,2.8c20.8-2.3,41.1-6.6,60.7-14.3
	c26.8-10.5,53.3-22.1,80.8-30.7c25.2-7.9,51.4-12.4,77.2-18.4c2.7-0.6,5.4-1.3,8-2.1c5.7-1.8,8.3-6,7.2-11.6
	c-3.8-19.1-14.6-35-28-47.7c-11.1-10.6-27.1-14.4-43-16.1c-14.3-1.6-26.8,4.5-40.1,6.8c-20.6,3.4-34.7,17.8-51.1,28.2
	c-1.5,0.9-2.5,2.7-3.6,4.1c-22.2,29.6-44.4,59.1-66.4,88.8C664.6,1012.1,663.6,1015.9,662.1,1019.4z"/>
<path fill-rule="evenodd" clip-rule="evenodd" d="M870,197.5c-4.7,5.4-9.1,9.4-12.2,14.2c-7.2,11.2-15.2,21.3-26,29.6
	c-9.3,7.2-16,17.5-24.7,25.6c-4.9,4.5-11.2,7.7-17.3,10.4c-2.2,0.9-7-0.5-8.3-2.4c-1.2-1.8-0.4-6.5,1.3-8.4
	c4.7-5.6,10.3-10.4,15.4-15.7c9.8-10.2,19.8-20.3,29.1-30.9c9-10.3,17.3-21.3,26.1-31.8c16.2-19.2,24.2-42.9,35.7-64.6
	c2.1-4,3.9-8.3,6.4-12.1c1.1-1.5,4.5-3.2,5.6-2.5c2,1.1,4.2,3.9,4.3,6c0.1,4-1.1,8.1-1.9,12.1c-5.8,27.2-6.6,54.6-0.9,81.8
	c6.5,30.7,15.4,60.9,28.7,89.3c8.1,17.3,18.7,33.6,29.2,49.6c12.3,18.7,25.8,36.5,33,58.2c9.8,29.8,6.5,58.6-4,87.3
	c-7.7,21.1-22.8,37.3-36.1,54.7c-7.5,9.7-16.3,18.6-20.4,30.7c-1.2,3.6-5.1,6.3-8,9.2c-16.9,16.1-33.8,32.1-51,48
	c-3.6,3.3-8.1,5.7-12.2,8.5c-4.4,3.1-10.6,5.4-12.8,9.7c-7.8,14.9-19,27-30.4,38.8c-13.5,13.9-20.6,31.1-27.5,48.6
	c-3.2,8.1-6,16.3-9.1,24.4c-3.6,9.6-10.1,12.3-19.5,8c-2.5-1.1-4.7-2.8-7-4.4c-13.6-9.3-13.6-10.1-3.7-22.9
	c7.5-9.8,14.1-20.4,21.7-30.1c14.4-18.3,29.9-35.9,43.9-54.5c29.4-39.2,68.5-68.4,104-101.3c19.2-17.8,37.8-36.4,50.4-59.2
	c14-25.4,19.9-53.5,9.7-82.1c-6.3-17.6-13.5-35.1-22.5-51.4c-7.4-13.4-18.1-25-27.3-37.5c-11.7-15.8-23.2-31.7-35.2-47.3
	c-13.5-17.6-16.9-38.1-18-59.4C878,215.1,878.6,206.2,870,197.5z"/>
<path fill-rule="evenodd" clip-rule="evenodd" d="M243.9,953.8c-1.6,10.4-3.2,19.3-4.4,28.4c-0.8,5.8-3.6,9.4-9.6,9.6
	c-6.4,0.2-11.9-3.2-11.3-9.3c1.3-13.1-4.8-24.9-5-37.6c-0.3-20.9-20.8-42.8-41.3-45.9c-20.1-3.1-39.9-4.4-59.3,3.7
	c-1.3,0.5-2.7,1.2-3.9,1.1c-2.5-0.4-4.8-1.3-7.2-2c0.9-2.8,0.9-6.9,2.8-8.1c5.7-3.5,12-6.7,18.4-8.5c8.6-2.4,17.8-2.7,26.4-5.2
	c18.3-5.3,34.7,0.7,49.9,8.9c18.8,10.2,33.4,25.3,40.6,46.2C242.2,941.3,242.8,948.1,243.9,953.8z"/>
<path fill-rule="evenodd" clip-rule="evenodd" d="M182.7,959.4c-5.4-4.2-8.6-5.9-10.8-8.5c-8.5-9.8-17.9-18-31-21
	c-3.8-0.9-7.6-2.8-5.7-7.3c0.9-2.1,4.6-4.1,7.2-4.4c23.3-2.5,37.5,7.6,41.4,29.2C184.3,950.2,183.3,953.3,182.7,959.4z"/>
<path fill-rule="evenodd" clip-rule="evenodd" d="M252.4,813.1c10.8-10.1,59.6-27.6,79.4-29.2C305.3,793.6,278.9,803.4,252.4,813.1z
	"/>
<path fill-rule="evenodd" clip-rule="evenodd" d="M284.7,822.7c8.8-9.5,18.7-16.7,32.7-17.9c-4.1,6.1-21.7,15.3-33,17.6L284.7,822.7
	z"/>
<path fill-rule="evenodd" clip-rule="evenodd" d="M284.3,822.3c-1.4,2.1-2.9,4.2-4.3,6.2c-0.6-0.6-1.2-1.2-1.9-1.8
	c2.2-1.4,4.3-2.7,6.5-4.1C284.7,822.7,284.3,822.3,284.3,822.3z"/>
<path fill-rule="evenodd" clip-rule="evenodd" d="M866.2,954.6c-6.3-0.6-12.7-0.4-18.7-2c-7.5-2-14.6-5.1-18.5-12.9
	c-10.2-20.4-25.4-19.9-41.6-12.9c-7.1,3.1-13.6,7.4-20.3,11.2c-2.8,1.5-5.5,3.4-8.4,4.4c-1.2,0.4-3.8-0.8-4.5-2.1
	c-0.7-1.2-0.5-4.4,0.4-4.9c6.1-3.4,6.8-11,10.7-14.8c6.6-6.3,15.8-13,24.4-13.6c17.2-1.3,34.6,1.5,52,2.5
	c7.5,0.4,12.9,3.3,16.3,10.5c1.9,4,5.8,7.1,8.3,10.9C871.7,939.3,871.5,945.8,866.2,954.6z"/>
<path fill-rule="evenodd" clip-rule="evenodd" d="M780.2,960.1c8.3-12.8,12.7-13.3,23.1-3.8C796.8,962.5,789.5,962.8,780.2,960.1z"
	/>
</svg>
