<?xml version="1.0" encoding="utf-8"?>
<!DOCTYPE svg PUBLIC "-//W3C//DTD SVG 1.1//EN" "http://www.w3.org/Graphics/SVG/1.1/DTD/svg11.dtd">
<svg artist="zl2017" version="1.1" id="zlIcon-flowers" xmlns="http://www.w3.org/2000/svg" xmlns:xlink="http://www.w3.org/1999/xlink" x="0px"
	 y="0px" width="1000px" height="704.223px" viewBox="0.25 -0.012 1000 704.223" enable-background="new 0.25 -0.012 1000 704.223"
	 xml:space="preserve">
<path fill="#FFFFFF" d="M966.3,421.901c2.7-2.9,4.3-5.801,6.2-8.602c3.199-4.699,3.5-9.6,1.899-14.799c-0.6-2-1.7-3.9-2-6
	c-0.8-5.801-5.1-8.801-9.2-11.801c-2.899-2.1-6.1-2.5-9.5-1.199c-3.6,1.399-7.6,1.899-10.3,5.199c-0.3,0.4-1.6,0.1-3.1,0.1
	c0.6-2,2.1-4.199,1.5-5c-2.601-3.6,1.3-5.399,1.899-7.899c-1.8-5.7-5.3-10.3-8.6-15c-2.5-3.7-6.3-5.9-10.1-7.5
	c-6.2-2.7-12.5-1.9-18.101,2.1c-0.899,0.6-1.3,2.6-2,2.7c-5.6,0.6-7.1,5-9,9.2c-0.5,1.2-1.2,2.101-2.6,1.3
	c-2.9-6.5,0.7-11.5,4.1-16.4c-1.5-2.1-2.7-3.8-4.1-5.4c-3.7-4.3-8.2-6.5-14.2-7c-9.8-0.8-18.8,0.8-27.1,5.8
	c-2.801,1.7-5.301,4-7.4,6.6c-1.8,2.3-1,5.201,0,7.9c0.2,0.5,0.1,1.301-0.2,1.7c-0.5,0.7-1.2,1.101-2.5,2.3
	c-3.5-6.5-9.8-8.8-15.899-11.4c-8.601-3.6-16.601-2.6-24,2.8c-3.4,2.5-6.801,5.4-9.2,8.8c-2.8,3.899-5.7,8.3-6.4,12.8
	c-2,12,0.8,22.6,10.5,31.201c5.9,5.199,10.8,11.5,15.9,17.5c1.1,1.199,1.399,3.1,2.2,5.1c-2.9,0.9-5.301,1.4-7.4,2.299
	c-4.5,2.102-7.9,5-9.2,10.4c-2.6,11,0.3,20.201,7.4,28.701c3.399,4,7.5,6.299,12.7,6c7.3-0.301,14.699-0.301,21.8-1.602
	c10.399-2,19.8-6.199,24.2-17.1c0.3-0.799,1.1-1.4,2-2.4c2.5,1.4,5.699,1.4,7.199,4.801c-3.1,4.199-6.1,8.199-8.8,12
	c3.9,13.5,11.3,19.699,23.9,20.9c3.6,0.299,7.2,1,10.899,1c3.601,0,7.301-0.301,10.9-0.9c5.5-1,9.2-4.1,11.2-9.5s2-10.6,0.1-16
	c-0.8-2.1-2.6-4.1-2-6.699c3-1.201,5,0.299,6.4,2.1c2.4,3,5.3,5.199,9,5.699c9.7,1.301,19.2,1,28.7-2.299
	c13.399-4.701,14.8-18.4,8.1-27.201c-3.2-4.1-6.7-7.799-11.5-10.1c-4-1.9-8.1-4-10.6-8.4C955.9,416.401,960.6,419.401,966.3,421.901
	z"/>
<path fill="#FFFFFF" d="M105.3,325.3c0,0.6,0,1.3,0.1,1.9c-1.3,0.5-2.6,1.2-4,1.6c-5.8,1.7-8,6-8.6,11.6
	c-0.9,8.3,3.5,14.3,9.7,18.399c14.6,9.701,31.8,6.4,42.7-4.299c5-5,9.1-10.701,7-18.601c-0.101-0.6,0.1-1.2,0.1-1.8
	c0.1-1.5,0.2-3.1,2.2-3.3c1.2,1.7,2,4.3,3.6,5c3.3,1.5,6.3,3.8,9.601,4.8c11.199,3.4,22,2.7,32.199-4.1
	c5.101-3.4,6.301-8.1,5.5-13.3c-0.8-5.4-2.3-10.7-6-15c-2.1-2.4-2.399-5.2-3.6-7.7c1-0.7,1.4-1.2,1.9-1.3
	c1.199-0.3,2.399-0.6,3.6-0.4c9.2,1.9,14.8-3.9,20.4-9.5c1-1,1.5-2.8,1.5-4.2c0-4.2,0.199-8.6-0.7-12.7c-0.7-3.4-2.5-6.9-6.2-8.5
	c-3.8-1.7-7.4-2.6-11.1,0.2c-0.301,0.3-1.4-0.4-2.4-0.7c2.6-4.9,5.4-9.2,7.5-13.9c4.3-9.6,1.3-18-7.6-23.4
	c-8.9-5.3-17.7-5.6-26.4,0.6c-4,2.8-7.9,5.7-10.8,9.7c-0.8,1.1-2,2-3.5,3.5c-1-2-2.2-3.4-2.101-4.6c0.5-4.5-2-7.7-4.5-10.6
	c-7.1-8.1-16.6-11.9-26-9.2c-6,1.8-12,4.5-16.899,8.7c-9,7.9-16.9,16.5-17,29.6c0,0.9-1.4,2.2-2.4,2.4c-0.899,0.2-2.6-0.4-3-1.2
	c-1.8-3.4-3.399-7.1-5.2-11c-1.8-0.4-3.8-1-5.899-1.3c-7.8-1.1-14.8,0-21.3,5.1c-5.601,4.4-8.801,10.1-10,16.6
	c-2.101,11,2.8,19.9,9.8,27.3c4,0.6,7.399-3.7,11.1,0.6c-2,1.7-4.3,2.8-5.399,4.7c-1.301,2.4-3.5,3-5.4,4.4
	c-6.7,4.5-9.1,11.9-11.7,19c-0.3,0.8-0.3,1.9-0.1,2.7c1.1,3.5,2,7,3.399,10.3c3.9,9.2,18,16,28.5,10.5c1.601-0.8,3.2-1.8,4.9-2.5
	c2.8-1.2,4.2-3.2,4.9-6.1c1-3.8,1.699-7.7,3.8-10.1C96.6,325.3,101,325.3,105.3,325.3z"/>
<path fill="#FFFFFF" d="M344.3,280.6c-0.8-4.7-1.601-8.6-2.101-12.5c-0.1-1.1,0.2-2.5,0.8-3.4c0.601-0.9,2-1.8,2.9-1.7
	c0.8,0.1,2.1,1.6,2.1,2.4c-0.699,10.7,5.2,17.8,12.9,23.6c3.5,2.6,8.3,3.6,12.4,5.4c3.3,1.4,6.3,0.9,9.699-0.3
	c7.4-2.5,13.301-7.4,19-12.3c5.7-4.9,7.601-11.6,5.2-19c-1-3.1-2.2-6.3-5.5-8.1c-1.2-0.7-2.1-1.9-2.899-2.7c0.399-2.9,2.2-3.9,4-3.4
	c2.3,0.7,4.5,1.9,6.3,3.5c2.5,2.1,4.6,4.7,6.899,7.2c6.4-2.5,13-3.9,17-10.1c4.301-6.5,7.5-13.3,7.5-21.1c0-3.2-1.1-6.5-2.3-9.6
	s-2.6-6.2-4.7-8.8c-2.1-2.5-5.3-4.1-7.5-6.6c-2.5-2.8-6.199-1.3-9.199-3.1c0.899-3.1,1.8-6,2.699-8.9
	c-1.8-5.4-3.699-10.8-3.199-16.7c0.3-3.7-1.7-6.4-4.801-8.2c-1.8-1.1-3.6-2.4-5.5-3.1c-9.6-3.7-19.5-6.2-30-5.6
	c-4.5,0.3-8.399,1.6-9.399,6.9c-0.101,0.6-1.3,1.1-2.3,1.8c-3.101-2.9-4.3-6.6-5.7-10.2c-6.9-17-25.4-23.9-41.3-20.8
	c-6.5,1.2-12.7,4.5-17.4,9.4c-4.6,4.8-8.1,10.6-10.5,16.9c-0.5,1.3-0.199,2.9-0.3,4c4,3.7,11.101,3,12,9.9c-1,0.4-1.7,0.8-2.1,0.7
	c-8-2.2-15.601-0.5-23,2.6c-5.5,2.4-9.7,6-12.3,11.4c-3.101,6.4-4.301,13.1-4.301,20.2c0,5.8,0.601,11.6,2.4,17.1
	c3.6,10.8,13.3,16.2,25.2,14.1c0.5-2.3,0.8-4.7,1.399-7c0.9-3.5,3-6,6.801-6.5c1.8-0.2,3.699,0.1,4,3.1
	c-5.101,1.9-6.301,6.4-6.801,11.4c-0.3,3.3-0.899,6.6-1.399,9.9c-1.8,12.4,1.5,22.8,11.899,30.3c1.7,1.2,3.301,2.7,5.2,3.7
	c9.7,5.1,19.5,6.8,29.3,0.5C340,285.4,341.9,282.9,344.3,280.6z"/>
<path fill="#FFFFFF" d="M64,474.6c-4.5-0.1-6.7-2-9-3.9c-6.601-5.6-14.2-6.4-22.3-4.9c-2.4,0.4-4.7,1.4-7.101,1.602
	C17,467.799,11.2,475.7,11,483.2c-0.2,5.6,1.2,10.9,2.3,16.201c1,4.6,3.3,8.299,7.6,10.898C23.7,512,26.2,514.401,28.7,516.6
	c0.8,0.699,1.199,1.699,2.199,3.1c-2,0.301-3.199,0.5-4.3,0.701C17,521.6,11.5,527,10.9,536.299C10,549.799,14.1,560.6,27.1,567
	c7.101,3.5,14.101,5.299,21.9,3.299c4.7-1.199,9.399-2.199,14.1-3.199c1.101-2.199,2-4.1,3-6c0.7-1.4,1.7-2.5,3.5-1.9
	c0.3,0.5,0.8,1,0.9,1.5c0.899,3,3.5,5.701,0.399,9.1c-0.8,0.9-0.3,3.701,0.5,5.201c4.4,9.199,9.9,16.9,21.101,19.6
	c12.1,2.9,26.7-4.9,31.1-13.801c5.7-11.6,5.9-15.6-3.6-25c-1.3-1.199-3-2.199-2.5-4.398c1.6-1.9,3.5-1.201,4.8,0
	c3.7,3.1,7.1,6.5,10.7,9.699c2.5,2.199,5,4.4,7.6,6.5c2.8,2.199,5.9,2.801,9.4,2.1c11.3-2.199,20-8.4,26.6-17.5
	c3.4-4.699,3.601-10.299,2.4-15.699c-1.101-5.1-2.8-10-8.2-12.4c-1.9-0.801-3.5-2.301-5.1-3.6c-4.4-3.6-9.101-5.701-14.801-4
	c-0.8-3.701-0.6-4.4,0.601-5.1c2.5-1.4,5.1-1.602,7.899-1c1.9,0.398,4,0.5,6.2,0.799c1.101-4.4,2.9-8.199,2.7-12
	c-0.7-12.4-6.2-22.699-16-30.5c-1.1-0.9-2.7-1.4-4.1-1.699c-6.801-1.6-13.601-3.1-20.4-4.301c-2.3-0.4-4.9-0.5-6.8,1.701
	c-1.101,1.398-2.601,1.6-4,0.799c-2.5-1.4-4.601-0.6-6.8,0.701c-1.2,0.799-2.601,1.199-4.2,1.898c-2.9-5.1,3.1-6.199,3.6-9.898
	c-1.3-5-5.399-7.5-10.3-8.4c-6-1.201-12.2-1-18.1,0.299c-5.4,1.201-10.301,3.5-13.7,8.301c-1.9,2.699-4.4,5-6.601,7.5
	c-0.3,0.4-0.3,1.1-0.5,1.9C61.3,469.1,62.4,471.299,64,474.6z"/>
<path fill="#FFFFFF" d="M394.199,352.799C391.8,351,390.4,349.9,389,348.9c-1.2-0.9-2.4-1.9-3.7-2.4c-5.4-2-10.8-4-16.3-5.7
	c-6.5-2.1-12.601-1.6-17.9,3.3c-1.8,1.6-3.7,3.1-5.6,4.6c-5.101,4.3-6.101,10.3-6.7,16.4c-0.101,1.3,0.899,3,1.899,4
	c1.8,2,4.101,3.6,6.101,5.3c1.399,1.2,2.7,2.399,1.399,4.7c-2.8,0.6-5.1-1.4-7.6-2.2c-5.2-1.7-10-1.601-14.5,2.3
	c-3.601,3.2-7.5,6.1-11.4,9.1c-6.1,4.701-8.3,11.102-5.7,18.4c1,2.801,2.601,5.4,3.9,8.201c1.8,3.799,4.9,6.299,8.8,7.398
	c6.101,1.701,12.3,3.5,18.601,2c6.1-8.398,9.8-9.898,13.899-5.898c-6.7,6.898-6.8,6.898-6.7,17.299c0,1.201,0.101,2.4,0.2,3.6
	c0.4,6.301,2.8,11.801,6.4,16.801c2.2,3,4.899,5.4,8.7,6.1c5.399,1,10.899,1.5,16.199,0.1c12.5-3.1,16.2-5.299,26.5-15.299
	c-0.199-2.801-0.5-5.801-0.399-8.801c0.1-3,0.3-6.1,0.899-9c0.4-1.9,1.9-3.1,4.4-1.9c0,1,0,2.201,0,3.301
	c-0.3,6.1,0.6,12.1,2.7,17.801c3.6,9.898,18.5,19.299,29.899,11.5c1-0.701,2.101-1.301,3.2-1.801c7.5-3.1,10.5-9.6,12.7-16.699
	c1.9-5.9,2.8-11.801-0.899-17.5c-0.5-0.801-1-1.701-0.9-2.5c0.1-1.102,0.5-2.5,1.2-3.102c0.8-0.6,2.6-0.799,3.399-0.299
	c2.301,1.4,4.301,3.299,6.4,4.9c4.5,3.398,9.6,3.6,14.8,2.199c3.7-1,6.601-3.1,7.3-7.301c0.7-3.898,1.5-7.799,1.7-11.699
	c0.5-8.199-5.899-17.801-14.6-19.7c-2.9-0.601-5.8-1.3-8.7-2c1.1-4.399,5.6-3.101,8.1-5.5c0.7-1.399,1.601-3.101,2.4-4.7
	c3.3-6.3,2.7-12.3-2-17.699c-1-1.201-1.8-2.5-3-3.4c-9.5-7.3-19.5-12.2-31.8-7.2c-0.7,0.3-1.7-0.1-2.2-0.1c-3.3-2.8,1.3-4.3,0.7-6.5
	c-3.4-5.1-7.8-8.4-13.9-9.2c-1.2-0.2-2.3-0.8-3.5-1.1c-6-1.4-11.899-2.1-17.1,2.5c-1.8,1.6-4.3,2.2-6.3,3.6c-4.601,3.1-7.5,7-6,13
	C394.4,349.4,394.199,350.6,394.199,352.799z"/>
<path fill="#FFFFFF" d="M115.4,109.2c-4.6-2.2-8.5-3.8-12.1-5.9c-10.7-6.1-14.7-15.8-13.4-27.7C92,56.6,104,45.3,120.6,38.2
	c5.2-2.2,11.2-2.9,16.8-3.9c8.301-1.5,16.2,1.3,24.101,3.2c5.2,1.2,9.2,4.3,12.3,8.8c2.1,3,4.8,5.4,6.9,8.4
	c1.5,2.2,2.899,4.7,3.6,7.2c1,3.7,1.8,7.7,1.7,11.5c-0.2,7.7-2.3,15.4-7.8,20.8c-7.4,7.3-16.4,12.4-26.601,15.1
	c-8.1,2.1-16.2,2.4-24.399,1.8c-5.601-0.4-9.4,2.1-11.5,7c-1.5,3.3-2.9,6.8-3.601,10.3c-1.899,8.7,0.5,16.4,6.8,22.5
	c8.601,8.3,23.4,8.7,32.7,1.1c3-2.4,5.5-5.6,7.9-8.7c1-1.3,1.3-3.2,1.899-4.8c-4.699-3.7-8.6-7.5-11.3-12.6
	c1.101-2.8,1.9-5.7,3.4-8.3c0.8-1.4,2.399-3,4.6-1.2c-0.3,3.5-0.5,7-0.8,10c3.4,5.4,8.4,7.9,12.8,11.1c4,2.9,8.4,3.4,13.101,2.5
	c9.8-1.9,17.399-7.2,22.5-15.6c3-5,4.6-10.7,3.6-16.6c-1.4-8.2-4.6-15.6-10.1-22.5c-4.101,0-8.2,0-12.601,0c0.4-1.4,0.4-2.5,0.9-3
	c2.7-2.7,6-4,9.899-3.4c4.801,0.7,8.9-1.1,12.601-3.9c4.7-3.6,8.5-8.3,10.5-13.5c2.3-5.9,3-12.5-1.3-18.3c-2.5-3.4-4.9-7-8-9.9
	C203.7,26,195,22.7,184.6,26c-1.1,0.3-2.899,0.7-3.399,0.2c-2.5-2.7-6.101-1.3-9-2c0.3-2,0.6-3.5,0.8-5.2
	c-6.9-5.1-14.5-8.5-22.601-11c-4.6-1.4-9.3-1.2-13.399,0.4c-5.4,2.2-11.5,4.6-12.3,12c-0.101,0.8-0.7,1.6-1,2.2
	c-4.301,1.7-8,0.8-11.5-1.5c-4.601-3-9.801-3.7-14.9-3.2c-6.8,0.6-13.3,2.5-17,9c-1.6,2.8-2.2,6.2-3.2,9.1
	c1.9,5.4,4.8,9.5,8.601,13.1c0.699,0.6,0.8,1.7,1.5,3.2c-4.5,0-8.101,0-11.801,0c-1.5,0-3-0.3-4.5-0.2c-10.1,0.7-16,7-16,17.2
	c0,8.3,4.7,14,10.4,19.4c6.5-2.5,12.7-3.7,19.1-2.1c1,0.2,2.5,0.6,1.9,2.7c-8,3.3-17.4,5-21.8,14.2
	c-0.4,14.7,3.399,24.3,11.899,29.6c9.9,6.2,21.7,8,29.2,4.2C105.5,127.3,108.4,117.9,115.4,109.2z"/>
<path fill="#FFFFFF" d="M305.8,67c-1.8,5.4-3,10.1-5,14.4c-4.3,9.4-9.1,18.5-13.5,27.8c-2.9,6.1-6.3,11.7-11.7,16
	c-1.6,1.3-3.1,2.9-4.399,4.5c-7.301,9.2-17,15.5-26.801,21.5c-10.1,6.2-20.199,12.3-30.1,18.7c-3.8,2.5-7.2,5.6-10.5,8.8
	c-3.3,3.1-6.5,6.3-9,10.2c-3.1,4.6-2.8,10.4-6.1,14.9c-1.9,2.5,1,5.8,4.5,6c2.399,0.2,5.199-0.3,7.1,0.8c8,4.8,16.9,8.9,19.3,19.4
	c0.101,0.5,0.8,0.8,1.3,1.4c2,0,4.101,0.2,6.2-0.1c1.8-0.2,3.5-0.8,5.3-1.4c7-2.4,14-5,19.9-8.8c0-7.1-0.3-13.5,0.1-19.8
	c0.7-13.6,7.301-23.5,19.7-29.3c3.3-1.5,6.7-2.6,10.4-4c-1-9.8,3.8-17.2,9.6-24.3c6-7.3,12.3-14.3,22-16.4
	c4.899-12,4.6-23.9,1.8-35.8c-1.2-5-2.7-10-4.3-14.8C310.199,73.4,309.8,69.5,305.8,67z"/>
<path fill="#FFFFFF" d="M186.5,404.1c-7.8-7.801-17-8.4-25.8-10.1c-1.101-0.201-2.4,0.5-3.5,0.899c-5.4,1.899-10.9,3.501-16.2,5.8
	c-8.7,3.701-17.9,5.801-27.101,7.301c-3.8,0.699-7.899,0.9-11.8,0.6c-10-0.6-19.899-1.4-29.8-3.199c-5.7-1-11.2-2-16.4-4.801
	C53,399,49.7,398.2,46.5,397.1s-6.4-2-9.5-3.1c-3-1-6-2.101-9.5-3.4c-0.2,4.6,1.899,7.9,3.8,10.5c5.8,7.9,10.1,16.5,14.6,25
	c2.301,4.301,5,8.301,7.7,12.301c2.3,3.5,5.9,5.199,9.601,6.6c3,1.199,5.1-1.1,7.6-1.9c10-3.301,20.1-4.699,30.3-1
	c7.9,2.801,14.5,7.5,19.4,14c4.399,0,8.3,0.4,12.2-0.1c7.3-0.801,14.399-2.4,19-9.201C154.2,443.1,157.1,439.6,159.9,436
	c4.4-5.801,9.301-11.201,13.101-17.4C176.5,413.299,179.7,407.799,186.5,404.1z"/>
<path fill="#FFFFFF" d="M798.6,535.299c0.4,0.801,0.6,1.602,1,1.801c18.8,10.699,35.9,23.699,51.9,38.1
	c4.699,4.201,10.3,7.9,16.199,9.9c13,4.6,26.2,4.699,38.801-2.1c4.8-2.6,9.5-5.4,14.199-8.1c5-2.9,9.9-5.801,14.9-8.701
	c3.7-2.1,7.3-4.4,11-6.299c2.7-1.4,5.6-2.301,8.3-3.701c1.101-0.6,3-1,2-3.699c-8-0.301-15.899-2-23.399-5.5
	c-0.801-0.4-1.801-0.5-2.7-0.6c-5.8-0.602-11.101-2.9-16.3-5.4c-15.9-7.6-32.4-13.1-49.9-16.201c-18.6-3.299-36.1-1-53.5,5.201
	C806.8,531.5,802.8,533.5,798.6,535.299z"/>
<path fill="#FFFFFF" d="M511.1,506.401c-0.6-1.201-0.6-1.602-0.8-1.701c-8.2-4.1-17.101-6.199-26.101-7.299
	C468.5,495.6,452.8,496.1,437,498.2c-12.801,1.801-24.801,5.1-36.4,10.6c-7.4,3.5-14.6,7.5-22.5,9.701c-1.3,0.299-2.3,1.5-4,2.6
	c2.3,2,3.8,3.9,5.9,5.1c4.1,2.301,7.199,5.4,10.3,8.801c6.899,7.4,15,12.9,24.399,17.1c10.4,4.699,21.2,5.199,32,3.801
	c12.8-1.701,22.8-9.4,31.3-18.701c3.7-4,6.9-8.5,10.301-12.699c5.399-6.701,11.6-12.4,19.5-16C508.9,508,509.9,507.2,511.1,506.401z
	"/>
<path fill="#FFFFFF" d="M273,487.799c-4.2-1.1-7.9-0.1-11.5-0.5c-6.601-0.799-12.601,1.102-18.4,3.801c-8,3.699-14.2,9-16.6,18.1
	c-2.8,10.5-6.2,20.9-9.3,31.4c-2,6.699-3.801,13.4-6.101,20c-3.2,9-9.2,16.4-15.7,23.199c-4.5,4.701-9.399,9.201-16.3,11
	c-3.6,0.9-7.2,2.701-10.399,5.801c1.199,0.699,1.899,1.4,2.699,1.4c9.4,0.1,18.801,0.9,28.2-0.5c6.3-0.9,12.7-2,19-2
	s11.7-5.1,18.3-3c0.7,0.199,1.7-0.5,2.5-1c1.9-1,3.601-2.301,5.5-3.201c9.101-4.299,12.601-12.398,12.9-21.5
	c0.2-8.699,0.6-17.6-1.1-26.299c-0.801-4.1-0.4-8.5,0-12.701c0.6-5.398,1.8-10.799,2.6-16.199c1.5-9.199,4.8-17.5,12.2-23.699
	C272.2,491.2,272.3,489.5,273,487.799z"/>
<path fill="#FFFFFF" d="M762,541.6c-0.601-1.301-1-2.801-1.801-3.9c-3.199-4.4-6.8-8.5-9.699-13.1c-4.801-7.4-10.4-14.1-16.2-20.699
	c-2.3-2.602-4.9-4.4-8.2-5.4c-11.8-4-23.7-4.6-35.8-1.4c-1.4,0.4-2.9,1.199-4.3,1.199c-3-0.1-5,1.5-7.5,2.801
	c-7.2,3.801-14.101,8.199-22.301,10.1c-2.899,0.701-5.6,2.301-8.399,3.4c-2.5,1-5.2,1.699-7.8,2.4c-1.301,0.299-2.301,0.6-2,2.199
	c0.399,0.4,0.8,0.9,1.3,1.1c7.3,3.301,13.5,7.701,19,13.602c6.2,6.6,13.3,12.398,22.399,14.799C681.9,549,683,549.5,684.1,550
	c8.3,4,16.8,4.199,25.7,2c9.1-2.301,18.3-4.1,27.5-6C745.4,544.5,753.4,543.2,762,541.6z"/>
<path fill="#FFFFFF" d="M135.1,103.9c13.9,0.5,26.101-4.1,36.9-12.6c4.6-3.5,7-8.3,7.2-14.1c0.1-2.7-0.2-5.5-0.2-8.2
	c-0.101-3.5-1.4-6.5-3.8-9c-3.5-3.8-7.101-7.4-10.601-11.3c-3.899-4.3-8.7-6.3-14.399-6.6c-10.801-0.6-21.101,1.6-30.9,5.7
	c-16,6.7-22.5,20.9-20.8,34.6c0.6,4.8,2.6,8.7,6,11.9c2.899,2.7,6.3,4.6,10.1,5.9C121.3,102.5,128,104,135.1,103.9z"/>
<path fill="#FFFFFF" d="M32.7,181.1c-2.4,4.3-3,7.5-2.2,11.3c2.3,10.4,5.2,20.6,9.6,30.3c1.7,3.8,4.101,6.9,7.9,8.4
	c4.7,1.9,9,4.5,14.7,2.5c7.899-2.8,16.1-2.7,23.899,1.4c0.4,0.2,1.2-0.1,2.101-0.2c2.699-3.3,5.3-7,8.399-10.3
	c2.9-3.1,5.7-6.6,9.4-8.5c7.8-4,15.7-8,24.6-9.1c6.2-0.8,12.2-0.1,17.4,3.7c4.899,3.6,10.2,6.5,13.3,12.2c1.5,2.7,3.8,2.7,6.1,0.5
	c1.801-1.6,3.301-3.5,5-5.3c0-7.2,2.4-14.3,0.4-21.6c-14.8-5.7-29.6-7.1-44.8-4.2c-7.4,1.5-14.9,3-22.3,4.4c-1.5,0.3-3,0.4-4.5,0.5
	c-4.5,0.5-9,1-13.601,1.4c-5.7,0.6-11.399,1-17.1,1.8c-10.8,1.5-19.5-2.7-27.2-9.8c-0.2-0.2-0.4-0.4-0.7-0.6
	C40.1,187.2,36.8,184.5,32.7,181.1z"/>
<path fill="#FFFFFF" d="M315.699,372.2c-3.199-1.8-4.6-2.9-6.3-3.4c-9.3-2.799-18.199-6.699-27-10.899c-3.5-1.7-7.399-2.8-11.1-4
	c-3.3-1.101-6.4-0.8-9.8,0.2c-15.601,4.699-23.7,15.6-22.5,31.9c0.5,6.799,2.1,13,5.399,19c4.9,9,9.301,18.4,11.801,28.5
	c0.8,3.1,2.199,5.9,4.399,9.1c1.601-2.1,2.7-3.5,3.7-4.9c2.1-3.299,4-6.799,6.3-10c6.2-8.9,14.2-14.9,25.601-15
	c1.6,0,3.199-0.9,4.699-1.299c-0.1-7.5-2.5-14.301,1-21.102C305.3,383.799,307,376.5,315.699,372.2z"/>
<path fill="#FFFFFF" d="M834.199,232.6l0.101,0.2c0-0.6,0.3-1.4,0-1.7c-6.3-7.9-14.4-12.9-24.5-14.2c-3.3-0.4-6.7-0.3-10-1
	c-5.2-1.2-9.601,0.6-13.9,2.9c-8.6,4.7-11,17.8-4.5,25.2c0.9,1,2.5,1.7,3.8,2.1c1.4,0.4,3,0.1,4.8,0.1c3.101,6.1,8.7,9,14.2,12.3
	c11.7,7.1,23.7,6.2,35.9,2c3.8-1.3,6-4.3,6-8.4C846.199,243.3,842.8,236.3,834.199,232.6z"/>
<path fill="#FFFFFF" d="M853,289.4c4.3,3,7.6,6.4,12.399,6.9c9.9,0.8,19.4-0.9,28.5-4.8c1.4-0.6,2.601-1.5,3.8-2.5
	c7.101-5.6,7.9-13.8,2.2-20.8c-2.1-2.6-3.7-5.9-6.3-7.7c-4.8-3.2-6-7.8-7.2-12.8c2.601-1.2,5.601-0.9,7-3.9c1.4-2.9,1.7-5.7,1-8.8
	c-0.6-2.9-1.2-6-1.1-9c0.1-4-1.3-7.2-3.7-10c-5.1-6-11.3-10.1-19.6-9.9c-2.7,0.1-5.5,0.2-7.9,1.1c-2.8,1-1.9,4.1-2.5,6.4
	c-0.5,1.9-1.6,2.1-5.4,1c-0.1-1.7-0.1-3.5-0.399-5.2c-0.3-1.7-1-3.3-1.601-5.3c-2.899,0.7-5.199,1.4-7.5,1.8
	c-0.6,0.1-1.899-0.6-2-1.2c-0.199-0.7,0.2-1.9,0.801-2.3c1.899-1.3,3.899-2.3,6.199-3.5c-2.6-5.2-6.199-8.9-9.6-12.7
	c-6.9-7.6-16-8.7-25.9-2.9c1.4,2.9,3,5.7,4.301,8.7c0.699,1.6,1,3.4,1.199,5.2c0.101,1-2.1,1.9-2.8,1.1c-1.1-1.3-2.2-2.8-3-4.3
	c-5.899-10.6-13.2-19.6-25.5-23.2c-8.2-5.5-15-1.8-21.2,3.7c-2.199,1.9-3.899,4.4-5.899,6.6c3.899,6.5,10.3,11,10.5,18.8
	c-2.8,1.6-4.601-0.3-5.8-1.7c-4.7-5.2-10.9-8.5-15.9-13.4c-6.9-6.8-13.9-6.6-21-0.1c-8,7.4-13.8,16.1-14.7,27.3
	c-0.2,2.1-0.8,4.7,0.2,6.3c3.1,5.5,4.3,12.1,9.3,16.4c1.3,1.1,2.9,1.9,4.4,2.9c4.8-3.5,9.8-5.6,15.3-6.3c6.4-0.8,9.3,0.6,14.3,7.4
	c-2.7,0-5,0.1-7.3,0c-4.7-0.3-9.1,0.8-13.2,2.8c-6.5,3.1-10.3,11.8-8.9,19c2,9.8,8.2,16.8,15.4,23c2,1.8,4.4,3.7,6.9,4.3
	c8.6,1.9,17.3,2,26-0.7c-0.2-3.1-0.7-5.7-0.5-8.4c0.1-2.4,0.7-4.8,1.5-7.1c0.8-2.6,1.8-5.2,3.1-7.6c1.2-2.3,2.8-4.4,4.1-6.6
	c-3.5-3.2-6.699-5.9-9.8-8.9c-4.1-3.9-7-8.7-7.2-14.3c-0.199-6.1,1.2-12.4,5.301-17c4.3-4.7,9.8-8.7,16.3-9.2
	c7.8-0.7,15.899-0.7,23.6,0.6c15.4,2.6,28,11.3,39.4,21.6c3,2.7,6.8,6.6,2.8,11.8c-0.9,1.2-0.4,3.5-0.7,5.3c-0.3,2.4-1,4.7-1.2,7.1
	c-0.5,5.3-5.1,7.9-8.399,11.9C852.3,272.5,852.699,280.7,853,289.4z"/>
<path fill="#FFFFFF" d="M512.199,272.8c-2.699,0.6-4.3,1.1-6,1.4c-5.3,1.1-10.8,1.8-16,3.2c-4.199,1.2-6.8,4.8-6.3,9
	c0.7,5.7,2.101,11.3,3.4,16.9c0.3,1.4,1.399,2.7,2.399,3.7c8.601,8.1,16.801,16.5,28,21.3c12.4,5.3,24.2,3.8,36.101-1.1
	c0.2-0.1,0.3-0.5,0.7-0.9c-0.801-4.6-1.5-9.3-2.4-14c-1.1-5.4,1.4-9.9,3.7-14.9c-2.3-1.1-4-2.4-6-2.9c-7.101-1.9-12-6.7-17-11.7
	c-7.5-7.6-7-17-6.4-26.5c0-0.6,0.2-1.3,0.6-1.7c6.301-7.8,12.2-15.8,22.301-19.2c5.199-1.7,10.199-3.9,15.399-5.7
	c2.8-1,5.8-1.6,8.8-2c4.5-0.6,9.101-0.7,13.601-1.1c5.5-0.4,11.3-0.4,16,2.3c10.5,5.9,18,14.3,19.8,26.8c0.5,3.3,0.4,6.7,2.8,10
	c5.4,0.8,11.101,1.3,16.7,2.4c5.9,1.1,11.7,2.7,17.3,4c6.601-5,7.601-11.9,7.7-19c0.1-8.9-5.6-15.7-14.4-17.4
	c-2.399-0.5-4.8-0.4-6.899-0.6c-2.601,2.2-4.9,4.2-7.3,6.1c-1,0.8-2,1.3-3.2-0.3c2-2.5,4-5.1,6-7.7c5.2-6.7,5.8-14.4,4.5-22.4
	c-0.4-2.5-1.9-4.6-4.2-5.6c-5.3-2.3-10.3-4.6-16.5-4.1c-9.8,0.8-18.3,3.9-25.5,10.5c-0.8,0.7-2,0.9-3.9,1.6c0.3-2,0.4-3.1,0.601-4.1
	c0.3-1.2,1.3-2.6,1-3.4c-2-4.4-2.7-9.5-8-12.2c-9.5-4.9-19.4-7.3-29.801-6.5c-8.6,0.6-16.3,4.3-22,11.3
	c-4.5,5.6-4.699,10.6-0.6,16.7c2.2,3.3,4.7,6.3,7.1,9.5c0.2,0.3-0.1,1-0.1,1.7c-1.6,0.4-3.3,0.8-5.1,1.3c-3.3-7-9-11.1-14.9-14.8
	c-1.7-1.1-4.8-2.2-5.8-1.4c-3.4,2.5-7.1,1.4-10.6,1.7c-13,1.4-21.601,10.3-22,23.3c0,1.5-0.101,3-0.101,4.6
	c-0.1,8.4,2.8,15.6,9.5,20.8C500,265.3,505.5,268.4,512.199,272.8z"/>
<path fill="#FFFFFF" d="M581.3,287.3c6.2-0.9,12.899-1.4,19.399-3c5.5-1.4,11.301-3.2,12.7-10c6-6.7,5.101-13.8,1.601-21.2
	c-0.4-0.8-0.801-1.6-1.101-2.5c-2.5-7.2-7.3-11.6-15.1-12.5c-1.2-0.1-2.4-0.6-3.5-0.9c-12.2-4-24.101-2.8-35.101,3.6
	c-4.899,2.9-9.399,6.7-13.6,10.6c-3.3,3.1-6.2,6.8-8.5,10.6c-4.2,7-2.3,13.7,4.5,18.1c2.6,1.7,5.4,2.6,8.5,2.9
	c5.1,0.6,10.2,1.4,15.3,2.1C571.199,285.8,576,286.5,581.3,287.3z"/>
<path fill="#FFFFFF" d="M612.6,448.799c0.2,0.201,0.5,0.5,0.7,0.5c3.2-0.799,6.399-1.699,9.6-2.5c6.8-1.6,13.5-4.1,20.3-4.6
	c10.9-0.9,21.9-0.5,32.8-0.699c1.801,0,3.7,0.1,5.4,0.5c5.3,1.199,10.6,2.799,15.9,3.9c5.6,1.199,11.399,3,17,2.898
	c15.1-0.398,26-8.5,34.5-21.398c-6.4-1.4-12.3-2.701-18.101-3.9c-3.899-0.801-8.1-0.9-11.5-2.701c-3.399-1.699-6.8-2.398-10.3-3.1
	c-3.899-0.799-7.6-1.9-11.5-2.699c-5-1-10.1-2.201-15.2-2.701c-12.6-1-24.699,2.201-36.699,5.602c-1.4,0.398-2.801,1.1-4.101,1.799
	c-12.3,6.301-20.8,16.5-28.6,27.4C612.5,447.5,612.699,448.2,612.6,448.799z"/>
<path fill="#FFFFFF" d="M602.9,297.6c-5.2,1.3-9.2,3.2-13.3,3.1c-7.2-0.2-14.4-1.5-21.6-2.5c-6.101-0.9-8.4,0.3-10.101,6.1
	c-0.5,1.7-0.6,3.6-0.7,5.4c-0.199,8.1,2.9,15.4,6.101,22.6c3.1,7,8.5,11.5,15.5,14.7c8,3.7,15.5,2.2,22.6-1.7
	c6.4-3.6,11.3-9.2,14.9-15.6c3.1-5.6,2.6-9.9-2.101-14.6c-3.5-3.5-6.3-7.4-8.399-11.8C604.9,301.3,603.9,299.5,602.9,297.6z"/>
<path fill="#FFFFFF" d="M504.3,462.2c2.5-1.4,3.2-1.799,4-2.199c5.899-3,11.6-6.9,17.899-8.701c10.801-3.1,21.9-4.898,33.301-4.199
	c6.5,0.4,12.5-1.301,18.699-3.301c8.101-2.699,11.7-8.6,14.601-15.898c-1.2-0.701-1.9-1.5-2.7-1.602c-7.4-1.199-13.5-5.199-19.4-9.5
	c-10.6-7.6-21.5-7.699-32.5-1.699c-8,4.4-15.2,10-20.7,17.5c-2.899,3.9-5.8,7.801-8.3,11.9c-1.2,2-1.899,4.4-2.5,6.699
	c-0.399,1.4,0.101,3-0.2,4.5C506.1,457.299,505.3,458.901,504.3,462.2z"/>
<path fill="#FFFFFF" d="M792.6,260.7c-8,6-8.9,14.4-8.6,22.5c0.399,8.6,4.699,15.7,12.899,19.7c15,7.4,29.8,3.6,41.101-7
	c3.1-2.9,7-6.1,5.6-11.7c-0.2-0.9,0.9-2.2,1.4-3.2c1.1-1.8,0.5-3.5-0.4-5.2c-3.1-6-7.4-8.5-14.1-7c-7.801,1.8-15,0.8-22.2-2.1
	C803.199,264.6,798.1,262.8,792.6,260.7z"/>
<path fill="#FFFFFF" d="M608,294.8c3.1,9.2,9.3,15.8,16.6,21.4c2.6,1.9,5.9,3.6,9.4,2.9c10.6-1.9,19.399-6.8,25.3-16.1
	c1.899-2.9,2.3-6,1.5-9.6c-2.5-11.9-14.4-19.5-24.3-19.5c-5.101,0-9.4,1.5-12.601,5.9c-2.5,3.4-5.6,6.4-8.6,9.3
	C613.1,291.1,610.5,292.8,608,294.8z"/>
<path d="M29.4,673.299c-7.1-5-6.899-12.398-5.3-19.5c1.7-7.398,4.4-14.5,6.601-21.799c0.899-2.9,1.5-5.9,2.399-8.801
	c1.101-3.5,1.9-7.1,3.5-10.299c2.9-6,5.8-11.9,7.601-18.5c2.199-8.201,2.5-8.201,12.5-13.9c0.5,3.5,0.699,6.699-1.301,9.4
	C49.3,598.2,46.8,607.7,44.7,617.6c-1.7,7.5-2.9,15.4-7.4,22.301c-2.4,3.6-1.9,8.699-3.9,12.799c-0.899,1.9,0.2,4.201,2,5.701
	c0.7,0.6,1.5,1.1,2.301,1.5c12.399,6.299,16.5,4.799,20.5-8.602C61.9,639.1,67,627.401,71.6,615.5c0.2-0.5,0.5-1.1,0.9-1.5
	c0.399-0.301,1.2-0.701,1.6-0.6c0.8,0.299,2,1.1,1.9,1.6c-0.5,4.5-0.9,9-2.101,13.299C72.2,634,69.8,639.6,67.4,645.2
	c-1,2.4-2,4.801-0.399,6.9c2.7,3.6,1.6,7.301,0.3,11.699c12.5-1.299,24.3-1.699,36.1-3.898c2.301-1.4,3.4-3.9,4.101-6.5
	c2.8-10.701,8.5-20.102,13.1-30c1.2-2.701,2.9-5.201,6.3-7.102c0.601,1.301,1.301,2.201,1.5,3.301c0.601,3.6-1.399,6.301-3,9.301
	c-2.699,4.799-5.199,9.6-7.199,14.699c-1.9,4.801-2.5,10-0.301,15.5c14.7,0.4,29.101,3,44-0.699c0.601-1.701,1.2-3.602,2-5.5
	c2.7-7,5.4-14.102,8.2-21.102c0.7-1.6,2.101-2.199,3.7-1.6c1.7,0.6,2,2.201,1.6,3.701C176.9,635.6,176,637.2,175.5,639
	c-1.9,6.1-2.9,12.199-0.9,18.1c1.2,0.5,1.7,1,2.3,1c15.7,0.6,31.5,1.199,47.2,1.6c2.7,0.1,5.4-0.9,8.3-1.4
	c2.7-7.6,5.101-15.299,8.2-22.799c3.101-7.5,7.3-14.701,8.601-22.6c1.899-1.602,3.399-3.102,5.1-4.301c0.6-0.4,1.9-0.4,2.4,0
	c0.5,0.5,0.899,1.801,0.6,2.4c-3.6,9.299-7.5,18.6-10.8,28c-1.601,4.5-2.4,9.299-3,14.1c-0.2,1.6,0.899,3.4,1.399,5
	c9.801,2.5,9.801,2.5,39.5,0.6c3-3.9,5-8.5,6.601-13.4c4.6-14.398,9.5-28.799,14.2-43.199c0.8-2.4,1.999-3.699,4.699-3.1
	c1.8,2.1,1.101,4.6,0.5,6.9c-1.2,5-3.1,9.799-4.199,14.799c-2,9.5-6,18.4-7.2,28.201c-0.5,3.6-0.3,6.5,2,9.699
	c1.5,0.1,3.3,0.199,5.1,0.4c6.3,0.5,12.7,0.1,19,1.299c4.3,0.801,9-0.299,13.2-0.6c5-6.5,4.899-14.1,7-21c0.399-1.1,0.2-2.5,0.7-3.5
	c5-10.799,9.3-21.799,12.699-33.1c0.9-2.9,2.801-5.4,5.801-6.699c2.3,2.199,2.199,4.6,1.199,7.5c-3.3,9.1-5.8,18.6-9.6,27.5
	c-3.6,8.6-4.1,16.898-1.3,26.199c1.6,0.199,3.3,0.699,5,0.699c5.5,0.102,11,0.102,16.399,0c2.7-0.1,5.5-0.398,8.101-1.199
	c3.399-1,5.3-3.1,6.3-6.9c2.1-8.199,4.9-16.299,7.7-24.299c1-2.701,1.899-5.701,4.899-7.201c3.101,1.6,2.7,4,1.9,6.4
	c-3.1,9.6-3.2,19.6-4.2,30c7.5,1.4,14.601,1.801,21.9,1.4c2.399-0.201,4.899-0.6,7.2-0.1c9.399,2.1,18.699,0.898,28.5,0
	c2.3-6.102,2.1-13,4.3-19.201c2.2-6.299,4.2-12.699,7-18.699c2.7-5.9,4-12.701,8.6-17.5c2.601,0.199,3.7,1.6,3.4,3.6
	c-0.5,3-1.101,6.1-2.3,8.699c-2,4.201-3,8.5-4,13c-0.5,2.4-0.801,4.9-1.801,7c-3.199,6.9-2.199,14.4-2.899,21.602
	c-0.4,3.398,1.399,5,4.7,5.398c0.6,0.102,1.199,0.201,1.8,0.102c10.5-1,20.6,1.199,30.899,3.398c3.4-2.6,6.5-5.299,6.101-10.299
	c-0.101-1.4,0.399-3,1-4.4c2.899-7,5.8-14,9-20.9c0.7-1.6,2.2-2.9,3.5-4.1c0.5-0.5,1.8-0.699,2.399-0.301
	c0.601,0.301,0.9,1.4,1,2.301c0.101,0.5-0.3,1.199-0.5,1.699c-4.899,10.4-4.399,22-7.1,32.801c-0.5,2,1.4,4.301,3.6,4.5
	c3,0.301,6.101,0.6,9.101,0.301c8.899-0.602,17.6,0.898,26.3,2.398c0.9,0.201,1.8,0.201,3.2,0.301c3.1-3.9,4.899-8.5,6.5-13.4
	c2.6-8.1,5.2-16.1,8.2-24.1c1.6-4.5,4-8.6,4.399-13.699c0.2-3.4,2.601-6.602,4.3-9.801c0.601-1.199,3.601-0.699,3.7,0.699
	c0.3,2.701,1.2,5.9,0.101,7.9c-2.5,4.4-3.4,9.1-4.7,13.701c-1.8,6.398-5,12.299-5.5,19.1c-0.5,6.6-1.4,13.1-0.8,20
	c2.399,0.799,4.3,2,6.3,2c8.6-0.1,16.899,1.9,25.3,3.199c0.6,0.1,1.2-0.1,2.1-0.199c2-2.801,3.5-6,4.2-9.701
	c0.601-3.6,1.3-7.199,2.4-10.6c3.8-12.199,7.6-24.299,10.399-36.699c0.4-1.701,1.301-3.301,2-5c3.101,0.299,4.4,2.199,5.5,5
	c-3.5,4.199-4.1,9.699-5,15c-1.8,10.1-4.1,20.199-5.699,30.4c-0.601,3.799-0.101,7.799-0.101,12c11.9,2.799,23.7,5.398,36.5,4
	c0.5-1.4,1.2-3.102,1.5-4.801c1.5-9.4,6-17.801,8.7-26.9c0.2-0.799,0.8-1.9,1.5-2.1c1-0.4,2.3-0.5,3.4-0.199
	c0.6,0.199,1.3,1.5,1.199,2.199c-0.899,4.4-2.3,8.801-3,13.301c-0.899,5.699-1.699,11.398-2,17.199c-0.199,3.5,1.5,5.6,4.7,5.4
	c10.5-0.6,20.5,2.5,30.7,3.9c1.2,0.199,2.4,0,3.5,0c0.7-1,1.5-1.801,1.6-2.6c1.2-12.701,5.101-24.801,8.601-37
	c1.6-5.5,3-11.102,4.7-16.701c0.399-1.299,1.399-2.9,2.6-3.4c1.4-0.6,3.3-0.299,5.8-0.5c-7.2,20.201-13.3,39.701-11.7,61
	c9.301,3.4,19.101,2.4,28.4,4.201c3-2.6,4.2-5.5,4.7-9c0.899-6.701,4.1-12.701,6.5-18.9c0.3-0.801,0.899-1.701,1.6-2.1
	c0.7-0.4,1.8-0.701,2.4-0.4c0.6,0.299,1.5,1.4,1.399,2c-1,4.4-1.899,8.9-3.5,13.1c-2.1,5.4-1.8,10.6-0.199,16.5
	c9.899,2.6,20.199,2.699,31,3c1-9.1-0.101-18.199,1.899-27c2-8.9,4.601-17.4,8.2-25.699c4.5,1.5,4.8,1.799,4.5,4.5
	c-0.6,6.699-1.7,13.299-1.7,19.898c0,7.5,0.8,15.102,1.5,22.602c0.2,2.299,1.601,4.5,2.5,7c6.3,0.199,12.4,0.5,18.4,0.5
	c10,0.1,20.1,0,30.1-0.102c5.7,0,5.7-0.1,10.101-4.898c-2.2-6.801-5.2-13.4-9.101-19.602c-5.3-8.5-10-17.199-13.899-26.6
	c-2.7-6.5-7.4-12.1-15.2-14.4c-13.101-4-26.601-6.199-39.9-9.199c-13.6-3.1-27.3-6-41-8.801c-8.6-1.699-17.399-2.699-26-4.5
	c-8-1.6-16-3.699-24-5.699c-1.2-0.301-2.3-0.9-3.5-1c-17.8-1.6-35.3-6-53.1-7.699c-22.7-2.102-45.3-5-67.9-7.5
	c-6.6-0.701-13.2-1.301-19.899-1.801c-12.7-1.199-25.4-2.301-38.101-3.4c-2.1-0.199-4.6-1-6.3-0.299
	c-4.6,1.898-9.1,0.799-13.4-0.102C493.4,578.1,482.4,578.6,471.5,578c-21.9-1.201-43.801-1.4-65.7-0.801
	c-17.3,0.5-34.601,1.301-51.9,2C348.4,579.401,343,579.6,337.5,580c-19,1.6-38.101,2.5-57,5.6c-5.101,0.801-10.2,1-15.4,1.5
	c-4.899,0.4-8.8,2.801-11.2,6.9c-2.199,3.699-5.399,5.5-9.1,7c-5.6,2.299-11.3,4.199-17.3,5.5c-7.4,1.5-14.601,4.1-22,5.9
	c-3.2,0.799-6.7,1.299-9.9,0.799c-9.3-1.5-18.8-1.299-28-3.5c-8.8-2.1-17.899-2.699-26.899-3.9c-2.5-0.299-4-1.299-4.101-4
	c1.4-2.199,3.9-2.5,6.2-3c7.7-1.799,15.3-3.799,23-5.5c5.8-1.299,10.7-3.898,15.5-7.299c7.3-5.201,12.7-12.201,18.4-18.9
	c1.1-1.4,1.899-3.1,2.5-4.801c3.3-10.1,6.899-20.1,8.6-30.6c0.7-4.4,2.3-8.799,3.6-13.1c0.7-2.299,1.801-4.5,2.2-6.9
	c2-9.5,8.101-16.199,14.7-22.5c6.4-6.199,14.9-7.799,23.2-9.398c1.7-0.301,3.399-0.4,4.899-0.5c1-2.4-0.199-3.602-1.6-4.102
	c-9-3.5-17.5-8.299-27.1-10.199c-4.9-1-9.7-1.4-14.5-0.9c-7.801,0.801-15.7,2-23.301,3.801c-5.5,1.299-10.8,3.898-16.1,6.199
	c-1.9,0.801-3.4,2.5-4.6,3.5c0.699,8,4.699,14.5,3.199,21.6c-1,5-2.8,9.9-4.5,15.602c0.601,0.5,1.9,1.799,3.301,2.799
	c2.199,1.6,4.5,3.1,6.699,4.701c4.2,3,5.9,7,6.7,12.299c1.601,10.9-1.6,19.701-9.3,27.201c-2.8,2.699-5.3,5.898-7.9,8.799
	c-1.899,2.1-4.399,3.1-7.199,3.6c-6.9,1.201-13.801,2.4-20.801,1.4c-2.399-0.4-4.8-0.299-7.5-0.5c-6.399,18.1-19.899,25.801-38.1,25
	c-16.8-0.699-27.4-10.299-31.6-26.199c-3.7-1.201-6.601,0-9.5,0.5c-6.9,1.199-13.801,2.199-20.9,1c-12-2-22-6.801-27.3-18.6
	C6.8,555.1,6.2,553.2,5,552c-2.9-3-3.2-6.6-2.5-10.199c0.8-4.701,1.8-9.4,3.3-14c1.4-4.102,3.9-7.602,8.3-9.201
	c1.101-0.4,2-1.199,2.8-1.799c0.4-3-1.699-4.201-3.3-5.201c-6.1-3.6-8.2-9.5-9.399-15.9c-0.601-3.299-1-6.6-1.5-9.898
	c-1.9-12.9,7.1-21.301,15.1-24.201c8.7-3.199,17.8-4,27-3.199c2.6,0.199,5.1,1.699,8.2,2.898c1.3-2,2.7-4.299,4.1-6.6
	c-0.5-0.9-0.7-1.799-1.3-2.4c-3.3-3.6-6.8-6.898-9.9-10.6C41.1,436.1,37.2,430.1,34.8,423c-1.7-5.201-4.2-10.1-6.3-15.201
	C24.2,397.401,16.9,390.1,5.8,387.2c-2.4-0.6-4.8-1.1-4.9-4.6c4.801-2.6,9.7-3.1,15.4-2.1c12,2.3,23.3,6.4,34.5,11.199
	c5.7,2.4,12.2,3,18.4,4.4c1.199,0.301,2.8-0.1,3.5,0.6c5,4.201,10.899,2.801,16.5,3.1c2.399,0.102,4.899-0.1,7.3,0.301
	c14,2.699,26.899-1.5,39.899-5.6c4.9-1.5,10-2.7,14.9-4.301c10.1-3.299,19.8-1.5,29.5,1.601c2.3,0.7,4.5,1.399,6.5,2
	c2-1.601,1.1-3.101,0.5-4.399c-5-10.4-9.2-21.101-12.6-32.201c-1-3.399-3-5.899-6.101-7.6c-2.6-1.4-5.2-2.9-8.3-4.6
	c-1,1.7-2.1,3.1-2.8,4.6c-3.101,6.2-7.7,11.1-13.4,14.5c-10,6-21.3,7.5-32.6,5.801c-7.7-1.101-13.9-6-19-11.801
	c-2.8-3.199-5.2-6.6-8.101-10.4c-3.3,1-6.8,1.9-10.199,3.1c-11,3.899-19.801,0-26.9-8.2c-4.1-4.8-7-10.4-8-17.1
	c-1.1-7.1,0.3-13.3,4.1-19.1c1.801-2.8,3.9-5.4,6-8.4c-0.899-1.1-1.699-2.4-2.699-3.5c-9.5-10.6-10.301-22.8-6.7-35.8
	c1.5-5.2,3.6-10.2,5.399-15.3c-3.899-4.7-7.699-9.5-11.8-13.9c-5.7-6-7.899-13.4-9.5-21.3c-2.1-10.1-2.5-20.5-5.7-30.4
	c-1.8-5.5-3.1-11.2-5.6-16.3c-2.8-5.6-2.3-10.4,0.8-15.5c3.8-0.1,6.5,1.5,8.4,4.5c1.8,2.8,3.5,5.7,5,8.7
	c5.3,10.4,13.399,18,23.7,23.2c9.8,4.9,20,9,31.199,9.3c4.801,0.1,9.7-0.5,14.5-1.3c6.301-1.1,12.4-2.6,18.9-2.7
	c3.9,0,7.8-1.2,11.5-2.4c6.5-2.2,12.9-2.9,19.7-1.9c6.6,0.9,13.3,1.1,19.6,3.6c1.601,0.7,3.5,0.5,5.8,0.9c2.301-5.5,1.7-11,1-16.2
	c-0.6-5.1-2.1-10.1-3.1-15.1c-0.7-3.3-2.1-6.2-4.7-9c-1.8,1.6-3.399,3-4.899,4.5c-2.4,2.3-5,4.5-7.2,6.9c-8,8.7-27.3,7.8-35.8,1.8
	c-2.2-1.5-4-3.7-5.7-5.8c-1.8-2.4-3.3-5.1-5.101-8c-4.8,0.3-9.699,0.1-14.399,0.9c-13.7,2.3-32.3-13.8-33.9-26.4
	c-1.2-8.8-3.1-17.4,0.4-26.4C53.9,92.3,50.5,88.3,47.9,83.3C40.7,69.6,45.2,59.7,53.1,51.9c3.4-3.3,7.7-4.9,12.4-5.2
	c2.399-0.2,4.8-0.2,7.6-0.3c-0.8-3-1.6-5.6-2.1-8.2C69.4,28.8,73.1,20.9,80.5,16c6.8-4.4,15-6.7,23.5-5.2
	c4.1,0.7,8.1,2.3,12.899,3.7c1.101-1.2,2.801-2.9,4.4-4.5c5.1-5.1,10.9-8.6,18.3-9c6.101-0.2,12.101-1.1,18.2-1
	c7.5,0,13.7,3.1,17.3,9.9c2.5,4.6,6.101,6.5,11.2,6c0.3,0,0.6,0.1,0.9,0C201.5,13.6,211.4,21.8,221.4,30c3.601,3,5.801,7.1,6.5,11.7
	c1.4,8.6,0.801,16.9-3.3,24.8c-3.6,7.1-8.1,13.5-13.8,19.4c5.5,8.3,5.2,17.5,4.8,26.6c-0.1,2.4-0.7,4.9-1.7,7
	c-2.5,5.5-5.3,10.9-8.1,16.3c-1.9,3.6-5,6.1-8.5,8c-3.2,1.7-6.6,3.1-10.6,4.9c-3.801,9.7-5.7,20.3-5.4,31.3
	c0.2,7.6,0.2,8.3,2.5,12.6c1.1-1.2,2.4-2,3-3.3c5.1-12,14.7-19.9,25.1-26.8c9.301-6.2,18.7-12.4,28.601-17.7
	c7.3-3.9,13.8-8.7,20.3-13.6c1-0.7,2.1-1.3,2.9-2.2c7.1-8.7,14.699-17,19.899-27.1c8.4-16.4,13.5-33.7,16.5-51.8
	c0.5-3.2,1.9-6.3,2.8-9.2c2.301-1.5,3.8-0.8,5.101,0.7c5.3,6.1,8.8,13.2,11.5,20.6c3.5,9.7,7.1,19.4,6.1,30.1
	c-0.4,4.5,0.8,9.1,0.4,13.6c-0.5,6-1.7,12-2.801,18.8c1.4,0.6,3.2,1.9,5,2c16.2,0.8,28.101,8.6,37.101,21.6c0.5,0.7,1.399,1.1,2,1.6
	c0.8,0.1,1.5,0.4,1.899,0.2c9.801-4.8,19.5-3.4,29,0.4c5.601,2.3,11.301,4.5,16.601,7.4c3.6,2,7.1,4.7,9.8,7.7
	c4.7,5.4,5.3,12.1,3.8,18.9c-0.6,2.6-1.6,5.2-2.5,8c2.601,1.9,5,3.6,7.3,5.4c8.4,6.4,13.2,15.2,14.9,25.3c1.1,6.6-0.3,13.3-3.2,19.5
	c-1.399,3-3.1,5.9-5,8.7c-2.2,3.4-5.1,6-9,7.5c-4.8,1.8-9.5,3.9-15.1,6.2c-0.5,2.5,1.5,5.8-0.5,8.9c-1.8,2.8-2.9,6-4.5,8.9
	c-1.5,2.7-3.7,4.6-6.2,6.5c-6.6,5-13.5,9.3-21.5,11.6c-4.4,1.3-8.8,2.7-13.2,0c-7.5-0.3-12.8-4.9-18.399-9.4
	c-5.101,1.1-10.101,2.3-15.2,3.2c-3.101,0.6-4.9,2.3-5.7,5.1c-1.7,5.5-3.601,11-4.9,16.6c-2.3,10.1-4.3,20.2-6.2,30.3
	c-1,5-1.5,10.2-2.3,15.7c3,1.9,5.9,3.9,9,5.6c2.101,1.2,4.5-0.1,4.9-2.3c0.5-2.101,0.7-4.2,1.1-6.3c3.3-19.6,21.3-32.7,42.8-26.7
	c3.7,1.1,7.301,2.7,11.4,4.3c1.4-2.3,2.8-4.9,4.6-7.2c1.7-2.2,3.7-4,5.601-6c2.399-2.5,5.1-4.3,8.8-4c1.1,0.1,2.6,0,3.4-0.7
	c6.199-5.1,13-2.3,19.1-0.7c8.1,2.2,14.6,7.1,17.6,15.7c1.301,3.7,2.2,3.9,6.2,3.5c9.4-1,18.101,1.2,26.2,5.8
	c5.5,3.1,9.5,7.5,10.2,14.3c0.2,1.8,0.5,3.601,1.2,5.3c2.6,5.9,1.6,11.2-2.101,16.301c-0.5,0.699-0.899,1.6-1.5,2.799
	c1,0.9,2,2,3.101,2.801c5.5,4,8.1,9.8,9.2,16.299c0.899,5.4,0.699,10.9-0.4,16.301c-0.6,3.199-2.2,5.699-4.9,7.4
	c-5.1,3.299-10.1,6.699-16.399,7.5c-4.4,0.6-5.8,3.5-3.5,7c3,4.6,5.899,9.4,9.7,13.199c10.5,10.301,19.1,22.1,27.899,33.701
	c4.8,6.299,10.4,11.898,16.8,17.799c-0.199,10.1,4.4,19.6,8.5,29.301c2.7,6.4,5.601,12.799,7.9,19.4c2.3,6.699,4.8,13.1,10.3,17.898
	c1.4,1.301,2.101,3.4,3.3,5.301c13.601,0.6,27.101,2.801,40.5,4.9c3.301,0.5,6.7,0.299,10,0.6c15.4,1.5,30.9,2.699,46.2,5.301
	c9.9,1.699,19.9,2.199,29.9,3.5c13.2,1.699,26.5,3.1,39.7,5.5c8.1,1.5,16.1,3.1,24.199,4.1c1.7,0.199,3.5,0,5.4,0
	c2.4-8.6,4.7-17.1,7.1-25.4c2.301-8.1,4.801-16.1,7.301-24.699c-6.801-1.201-13-1.4-19.301-0.102c-2.699,0.5-5.3,0.9-8,1.5
	c-1.8,0.301-3.699,0.5-5.3,1.201c-12.5,6-25.899,6.699-39.2,6.5c-11.399-0.201-21.899-4.201-31.199-11.201
	C658.199,543,652.5,537.6,646,533.1c-7.4-5-15.301-8.699-23.9-11c-2.9-0.801-5.9-1.5-8.7-2.5c-1.6-0.6-3.3-1.699-3.1-4.5
	c2.5-0.301,5.1-0.5,7.6-0.9c2.4-0.4,4.8-1,7.2-1.299c14.9-2.201,28.8-7.4,41.8-14.701c9.7-5.4,20.3-8,30.7-11.299
	c4.7-1.5,9.5-1.9,14.4-1.9c9,0,16.5,3.299,22.699,9.699c1.301,1.301,2.5,2.801,4,3.701c9.601,5.6,15.301,14.5,20.4,24
	c3.2,5.898,7.1,11.199,11.5,15.699c0.9,0,1.2,0.1,1.5,0s0.6-0.301,0.7-0.5c12.399-18.4,24.8-36.699,37.1-55.1
	c0.601-0.9,1.2-2,1.7-2.9c-0.8-0.699-1.1-1.4-1.6-1.5c-11.101-2.699-15-11.5-17.7-21.199c-0.4-1.4-0.5-3-0.9-4.5
	c-4-11.801-0.7-21.9,6.7-31.102c-3.1-4.1-6.3-8-9.2-12.1c-13.1-18.699-14.1-38.299-4.2-58.6c4.7-9.7,13.101-14.3,23.801-12.9
	c7.199,0.9,14.5,1.3,21.199,4.9c1.801,1,4,1.2,6.4,1.8c4.8-4.1,10.2-7.2,15-11.6c9.8-9,21.2-10.7,33.7-5c7.6,3.4,14.6,7.3,19.2,14.9
	c1.8-0.7,3.5-1.3,5-2.1c4.8-2.3,10-2.5,15.199-2.4c4.101,0,7.5,1.6,10.601,4.5c6.3,6,10.1,13.6,14.3,21c1.2,2.101,2.2,4.301,3.4,6.9
	c7.699,0.1,14.6,3,21,7.3c4,2.7,6.699,6.101,7.8,10.8c2.8,11,3.2,21.701-4.8,31.1c-0.801,0.9-1.301,2-1.9,3.102
	c-0.4,0.799-0.8,1.6-1.4,2.898c3.9,4,7.4,8.4,9.601,13.801c3,7.5,1.7,14.6-2.601,20.801c-9.3,13.299-24.199,19.398-40,14
	c-2.5-0.9-5.199-1.4-7.8-2c-0.2-0.102-0.5,0.199-0.8,0.398c-1.2,4.602-2.1,9.4-3.6,13.9c-3,8.5-10.301,13.4-19.4,13.5
	c-4.6,0-9.1,0.201-13.7,0.201c-1.8,0-3.6-0.201-5.399-0.701c-8.601-2.299-16.7-5.799-23.101-12.199c-3-3-5.3-6.5-8.3-10.301
	c-1.7,0.4-3.8,0.801-5.7,1.5c-6.3,2.201-12.7,3.801-19.3,4.801c-0.9,0.1-1.9,0.1-2.7,0.5c-9.1,4.699-18.5,9.4-25,17.699
	c-5.2,6.701-9.8,13.801-14.7,20.801c-0.3,0.4-0.199,1.199-0.199,1.799c1.8,2,3.199-0.299,4.8-0.398c11.899-0.9,23.2-4.4,34.899-6.4
	c8.4-1.4,16.7-3.1,25.2-3.9c5.101-0.5,10.3,0,15.4,1c10.399,2,20.399,5,30.1,10c15,7.9,30.101,16.5,47.101,19.1
	c17,2.5,34.1,6.1,51.6,3.9c-0.4,2.5-2.3,3.1-3.9,3.5c-5.6,1.4-11.1,3-16.8,3.9c-7.6,1.199-14.7,3.699-21.5,7.1
	c-1.399,0.699-2.6,1.699-4,2.1c-6.899,1.9-12.3,6.4-18.1,10.201c-10.9,7.199-22.101,14-34.101,18.898
	c-5.8,2.4-12.199,3.801-18.5,4.701c-3.1,0.4-6.5-1-9.699-2c-8.4-2.9-15.601-8.1-23.2-12.6c-2-1.201-4-2.602-6.101-3.701
	c-9.899-5-17.8-12.4-26.1-19.5c-5.8-5-11.5-9.9-18.2-13.6c-6.1-3.301-12.3-4.801-19-4c-7.5,11-17.6,44.199-18.1,59.4
	c1.8,0.5,3.7,1.299,5.6,1.699c8,1.701,16,3.301,24.101,5c0.899,0.201,1.8,0.5,2.699,0.5c10.9-0.6,20.9,3.5,31.101,6.201
	c2.899,0.799,5.899,1.398,8.899,1.699c2.7,0.301,5.4,0.1,8,0.1c5.4-7.199,5.301-16.6,11.5-23.1c3.2,2.301,4.101,5,2.301,8
	c-4.601,8-3.801,16.4-1.9,24.801c1,4.398,0.4,9.199,3.9,12.799c7.3,7.6,10.8,17.4,15.199,26.701c1,2.199,2.601,4.1,3.9,6.1
	c3.8,5.699,5.9,12,6.4,18.799c0.399,6.201-0.601,7.9-7,9.701c-4,1.1-8.4,1.4-12.601,1.5c-7.899,0.1-15.8-0.301-23.7-0.301
	c-4.8,0-9.699,0.6-14.5,0.6c-3.899,0-7.5-0.398-11.5,0.701c-5.199,1.4-10.8,0.799-15.8-2.301c-2-1.199-4.6-1.6-6.899-1.699
	c-8.2-0.201-16.301-1-24.4-2.4c-8.1-1.301-16.2-2.1-24.4-3c-4.8-0.5-9.699-0.9-14.5-1.4c-0.6-0.1-1.199-0.4-1.8-0.299
	c-7.8,1.5-15-1.4-22.5-2.4c-9.899-1.301-19.899-2.4-29.8-3.6c-12-1.5-24.1-3-36.1-4.5c-1.5-0.201-3-0.5-4.5-0.5
	c-15.5-0.4-30.801-3.102-46.2-4.102c-15.2-0.898-30.3-2.898-45.4-3.898c-16.3-1-32.6-3.602-49.1-2.801
	c-3.601,0.199-7.4-0.1-10.9-0.9c-12.399-2.5-24.899-1.699-37.3-2c-4.3-0.1-8.5,0.4-12.7-1c-0.8-0.299-1.8-0.4-2.7-0.4
	c-17,0.301-33.899-1.898-51-0.699c-7.3,0.5-14.6,0.301-21.899,0.6c-11.5,0.5-23.101,1.6-34.601,1.801
	c-13.699,0.299-27.399-0.1-41.1-0.301c-6.7-0.1-13.5,0.5-20-0.5c-11-1.6-21.8,1.201-32.7-0.1c-5.699-0.699-11.5-0.801-17.3-1.4
	s-11.399-1-17.2,0.201c-2.3,0.5-4.8-0.301-7.199-0.4c-7-0.1-13.9-0.6-20.9-0.201c-8.1,0.5-16.2,1.9-24.3,2.602
	c-5.101,0.398-10.3,1-15.3,1c-5.2,0-10.301,1-15.4,0.6c-11.3-0.9-22.3,0.6-33.5,1.6c-9.9,0.9-19.9,1.5-29.8,2.199
	c-3.3,0.201-6.5,0.201-9.9-0.799C35,672,32.1,673.1,29.4,673.299z M267.9,569.5c8.5,1.4,16.801,2.199,25.4,1.5
	c9.3-0.801,18.7-1.4,28.1-1.701c13-0.398,25.9-1.799,39-0.199c10.5,1.301,21.2,0.4,31.8-1c3.9-0.5,7.9-0.199,11.8-0.199
	c3.9,0,7.9,0.1,11.801,0.199c16.699,0.199,33.3-0.301,50,1.199c18.699,1.701,37.5,2.602,56.3,3.9c6.6,0.5,13.2,1.1,19.9,1.6
	c0.699,0,1.399-0.5,2.1-0.898c-1.6-2.9-3.5-5.4-4.3-8.201c-3.9-12.5-9.9-24.199-14.8-36.299c-1.801-4.5-4-8.701-6.5-12.9
	c-1.301,0.199-2.4,0-3,0.5c-6.301,4.799-13.601,8.1-18.9,14.1c-1.8,2-4,3.9-6.4,5.1c-6.8,3.701-12.199,8.9-17.3,14.6
	c-4.1,4.6-9,7.701-15,9.9c-12.2,4.5-24.6,3.1-37,2.4c-1.5-0.1-3-0.699-4.3-1.4c-7.4-4.1-15.1-7.799-21.8-13
	c-6.7-5.199-13.5-10.299-20.4-15.199c-1.7-1.201-3.8-1.701-5.8-2.4c-2-0.701-4-1.301-6-2c-4.3-1.5-8.3-3.5-13.1-3.801
	c-2.9-0.1-5.7-1.4-8.301-3.799c1.2-1.201,1.9-2.5,2.9-2.701c4.1-0.9,8.3-1.699,12.5-2c2.2-0.1,4.1-0.1,6-1.5
	c1.4-1.1,3.2-2,4.9-2.199c10.399-1.701,19.3-6.9,28.399-11.801c5.601-3.1,11.4-5.699,17.3-8.1c5.601-2.301,11.4-4,17.2-6
	c5.2-1.801,10.2-3.801,15.4-5.4c9.5-2.799,19.3-1.799,29-0.799c4.899,0.5,9.5,1.699,13.899,3.898c3.2,1.602,6.5,2.9,10.601,3.801
	c-0.601-1.6-0.7-2.6-1.2-3.1c-8.1-8.6-16.2-17.301-24.4-25.801c-2.3-2.299-4.8-4.699-8.199-5.1c-2.4,1.801-4.801,3.301-6.801,5.199
	c-5.6,5.102-12.3,7.4-19.5,9.4c-6.1,1.701-11.3,0.5-16.6-2.199c-3.8-1.9-7.6-3.701-11.3-5.801c-2.9-1.6-5.601-1.699-8.7-0.299
	c-3.9,1.699-8,2.898-11.8,4.699c-7.8,3.701-15.9,3.6-24.101,3c-3-0.199-6-1.199-9-1.6c-3.199-0.4-5.899-1.6-8-3.9
	c-5.6-6.199-12.399-11.799-11.5-21.6c0.301-3.5-2-5.5-5.399-6.301c-6.601-1.6-12.4-4.799-17.7-9c-3.5-2.799-6.9-5.699-10.8-9
	c-1.6,0.5-3.6,1.102-5.5,1.801c-2.5,1-5,2.1-7.5,3.1c-10.1,4-17.4,10.6-20.3,21.4c-1.8,6.699-3.101,13.6-4.8,20.4
	c-1.301,4.799-0.5,8.299,4.3,10.5c1.6,0.799,3,2,4.5,3.1c7.7,5,14.3,11.1,20.399,18c4.5,5,9,9.9,12.4,15.6
	c4.3,7.301,8.6,14.6,12.3,22.201c2.3,4.6,3.5,9.699,5.1,14.6c0.5,1.699-1,3.799-2.699,4.199c-1.7,0.4-3.101-0.5-3.7-1.9
	c-1.3-3.1-2.601-6.199-3.3-9.4c-1.301-6.398-4.5-11.898-8.2-17.1c-0.7-1-1.9-1.699-2.3-2.799c-5.101-11.701-14.7-19.9-22.8-29.201
	c-0.5-0.6-1.5-0.799-2.7-1.299c-1.601,2.199-2.8,4.699-4.601,6.6c-8.399,8.6-10.6,19.5-11.8,30.801c-0.3,2.898,0,6.1,0.7,9
	c1.9,6.799,2.7,13.699,2.6,20.699C266.4,561.6,266.8,565.401,267.9,569.5z M222.9,453.799c-3.399-1.5-5.399-3.5-6.6-5.898
	c-5.2-10.602-12.7-20.102-15.7-31.701c-0.3-1.199-1.1-2.199-1.7-3.299c-2.1-3.5-6.199-4.801-9.3-2.5c-2.899,2.199-5.8,4.6-7.899,7.5
	c-4.5,6.1-8.4,12.699-12.7,18.898c-2.8,3.9-5.9,7.602-8.9,11.4c-2.8,3.5-5.6,6.9-8.399,10.301c3.199,3.9,6.5,6.5,11.199,6
	c7.601-0.801,15.301-1.1,22.601-3.1c7.1-2,14.2-3.201,21.5-3.701c10.6-0.9,21.3-1.1,31.6,2c4.3,1.301,8.601,2.5,13.101,3.801
	c1.699-4.4,1.199-8.6-0.2-12.6c-1.9-5.4-4.2-10.701-6.4-16c-1.8-4.5-3.8-8.9-5.399-13.5C237.6,415.1,236.1,408.5,234,402.2
	c-2.9-8.5-3.5-16.9-2.3-25.9C233.4,363.5,240.6,355.2,250.4,348.6c6.301-4.2,13.7-5,21-2.6c4.9,1.6,9.7,3.6,14.4,5.6
	c7,2.9,13.9,6,20.899,8.9c1.2,0.5,2.7,0.5,4.7,0.799c-1.5-8.199-1-15.799,0.4-23.199c1.3-7.1,3.3-14.2,5.1-21.2
	c1.5-5.8,3.2-11.5,4.7-16.8c-2.1-3-4.8-2.2-7.1-2.8c-6.101-1.6-12.601-2.5-17.3-7.3c-6-6.2-10.601-13.3-12.801-21.7
	c-1.3-5-2.3-10-3.199-15.1c-0.4-2.4-1.7-3.8-3.801-4.6c-0.8-0.3-1.8-0.4-2.699-0.5c-10.101-1.2-16.601-6.8-20.2-16.2
	c-0.5-1.3-1.601-2.4-2.601-3.8c-2.6,1.2-5,1.9-6.899,3.2c-5.5,3.8-11.3,7.1-17.5,9.6c-2.5,1-4.7,2.8-7,4.2c-3.5,2.1-5,5-3.8,9.6
	c2.1,0.9,4.399,1.6,6.399,2.8c1.8,1,3.8,2.2,4.8,3.9c1.9,3.1,3.7,6.4,4.7,9.8c1.9,7,1.9,14.4-2.6,20.1
	c-4.7,5.8-10.601,10.9-18.101,13.3c-1.3,0.4-2.6,1.2-4.1,1.9c2.2,4.9,4.3,9.3,6.1,13.7c0.9,2.2,2.2,4.9,1.5,6.9
	c-2,6.3-3.8,12.6-10.8,16.1c-5.6,2.8-11.399,3.9-17.3,5.3c-2.9,0.7-5.9,1-8.2,3.4c2.4,7.7,4.5,15.3,7,22.7c1.4,4.3,3.4,8.4,5.3,12.6
	c3.4,7.4,7.4,14.6,10.4,22.199c2.1,5.4,4.4,10.602,7.2,15.602c4.5,8,8.7,16,13,24.1C222.9,450.299,222.7,451.799,222.9,453.799z
	 M966.3,421.901c2.7-2.9,4.3-5.801,6.2-8.602c3.199-4.699,3.5-9.6,1.899-14.799c-0.6-2-1.7-3.9-2-6c-0.8-5.801-5.1-8.801-9.2-11.801
	c-2.899-2.1-6.1-2.5-9.5-1.199c-3.6,1.399-7.6,1.899-10.3,5.199c-0.3,0.4-1.6,0.1-3.1,0.1c0.6-2,2.1-4.199,1.5-5
	c-2.601-3.6,1.3-5.399,1.899-7.899c-1.8-5.7-5.3-10.3-8.6-15c-2.5-3.7-6.3-5.9-10.1-7.5c-6.2-2.7-12.5-1.9-18.101,2.1
	c-0.899,0.6-1.3,2.6-2,2.7c-5.6,0.6-7.1,5-9,9.2c-0.5,1.2-1.2,2.101-2.6,1.3c-2.9-6.5,0.7-11.5,4.1-16.4c-1.5-2.1-2.7-3.8-4.1-5.4
	c-3.7-4.3-8.2-6.5-14.2-7c-9.8-0.8-18.8,0.8-27.1,5.8c-2.801,1.7-5.301,4-7.4,6.6c-1.8,2.3-1,5.201,0,7.9c0.2,0.5,0.1,1.301-0.2,1.7
	c-0.5,0.7-1.2,1.101-2.5,2.3c-3.5-6.5-9.8-8.8-15.899-11.4c-8.601-3.6-16.601-2.6-24,2.8c-3.4,2.5-6.801,5.4-9.2,8.8
	c-2.8,3.899-5.7,8.3-6.4,12.8c-2,12,0.8,22.6,10.5,31.201c5.9,5.199,10.8,11.5,15.9,17.5c1.1,1.199,1.399,3.1,2.2,5.1
	c-2.9,0.9-5.301,1.4-7.4,2.299c-4.5,2.102-7.9,5-9.2,10.4c-2.6,11,0.3,20.201,7.4,28.701c3.399,4,7.5,6.299,12.7,6
	c7.3-0.301,14.699-0.301,21.8-1.602c10.399-2,19.8-6.199,24.2-17.1c0.3-0.799,1.1-1.4,2-2.4c2.5,1.4,5.699,1.4,7.199,4.801
	c-3.1,4.199-6.1,8.199-8.8,12c3.9,13.5,11.3,19.699,23.9,20.9c3.6,0.299,7.2,1,10.899,1c3.601,0,7.301-0.301,10.9-0.9
	c5.5-1,9.2-4.1,11.2-9.5s2-10.6,0.1-16c-0.8-2.1-2.6-4.1-2-6.699c3-1.201,5,0.299,6.4,2.1c2.4,3,5.3,5.199,9,5.699
	c9.7,1.301,19.2,1,28.7-2.299c13.399-4.701,14.8-18.4,8.1-27.201c-3.2-4.1-6.7-7.799-11.5-10.1c-4-1.9-8.1-4-10.6-8.4
	C955.9,416.401,960.6,419.401,966.3,421.901z M105.3,325.3c0,0.6,0,1.3,0.1,1.9c-1.3,0.5-2.6,1.2-4,1.6c-5.8,1.7-8,6-8.6,11.6
	c-0.9,8.3,3.5,14.3,9.7,18.399c14.6,9.701,31.8,6.4,42.7-4.299c5-5,9.1-10.701,7-18.601c-0.101-0.6,0.1-1.2,0.1-1.8
	c0.1-1.5,0.2-3.1,2.2-3.3c1.2,1.7,2,4.3,3.6,5c3.3,1.5,6.3,3.8,9.601,4.8c11.199,3.4,22,2.7,32.199-4.1
	c5.101-3.4,6.301-8.1,5.5-13.3c-0.8-5.4-2.3-10.7-6-15c-2.1-2.4-2.399-5.2-3.6-7.7c1-0.7,1.4-1.2,1.9-1.3
	c1.199-0.3,2.399-0.6,3.6-0.4c9.2,1.9,14.8-3.9,20.4-9.5c1-1,1.5-2.8,1.5-4.2c0-4.2,0.199-8.6-0.7-12.7c-0.7-3.4-2.5-6.9-6.2-8.5
	c-3.8-1.7-7.4-2.6-11.1,0.2c-0.301,0.3-1.4-0.4-2.4-0.7c2.6-4.9,5.4-9.2,7.5-13.9c4.3-9.6,1.3-18-7.6-23.4
	c-8.9-5.3-17.7-5.6-26.4,0.6c-4,2.8-7.9,5.7-10.8,9.7c-0.8,1.1-2,2-3.5,3.5c-1-2-2.2-3.4-2.101-4.6c0.5-4.5-2-7.7-4.5-10.6
	c-7.1-8.1-16.6-11.9-26-9.2c-6,1.8-12,4.5-16.899,8.7c-9,7.9-16.9,16.5-17,29.6c0,0.9-1.4,2.2-2.4,2.4c-0.899,0.2-2.6-0.4-3-1.2
	c-1.8-3.4-3.399-7.1-5.2-11c-1.8-0.4-3.8-1-5.899-1.3c-7.8-1.1-14.8,0-21.3,5.1c-5.601,4.4-8.801,10.1-10,16.6
	c-2.101,11,2.8,19.9,9.8,27.3c4,0.6,7.399-3.7,11.1,0.6c-2,1.7-4.3,2.8-5.399,4.7c-1.301,2.4-3.5,3-5.4,4.4
	c-6.7,4.5-9.1,11.9-11.7,19c-0.3,0.8-0.3,1.9-0.1,2.7c1.1,3.5,2,7,3.399,10.3c3.9,9.2,18,16,28.5,10.5c1.601-0.8,3.2-1.8,4.9-2.5
	c2.8-1.2,4.2-3.2,4.9-6.1c1-3.8,1.699-7.7,3.8-10.1C96.6,325.3,101,325.3,105.3,325.3z M344.3,280.6c-0.8-4.7-1.601-8.6-2.101-12.5
	c-0.1-1.1,0.2-2.5,0.8-3.4c0.601-0.9,2-1.8,2.9-1.7c0.8,0.1,2.1,1.6,2.1,2.4c-0.699,10.7,5.2,17.8,12.9,23.6
	c3.5,2.6,8.3,3.6,12.4,5.4c3.3,1.4,6.3,0.9,9.699-0.3c7.4-2.5,13.301-7.4,19-12.3c5.7-4.9,7.601-11.6,5.2-19c-1-3.1-2.2-6.3-5.5-8.1
	c-1.2-0.7-2.1-1.9-2.899-2.7c0.399-2.9,2.2-3.9,4-3.4c2.3,0.7,4.5,1.9,6.3,3.5c2.5,2.1,4.6,4.7,6.899,7.2c6.4-2.5,13-3.9,17-10.1
	c4.301-6.5,7.5-13.3,7.5-21.1c0-3.2-1.1-6.5-2.3-9.6s-2.6-6.2-4.7-8.8c-2.1-2.5-5.3-4.1-7.5-6.6c-2.5-2.8-6.199-1.3-9.199-3.1
	c0.899-3.1,1.8-6,2.699-8.9c-1.8-5.4-3.699-10.8-3.199-16.7c0.3-3.7-1.7-6.4-4.801-8.2c-1.8-1.1-3.6-2.4-5.5-3.1
	c-9.6-3.7-19.5-6.2-30-5.6c-4.5,0.3-8.399,1.6-9.399,6.9c-0.101,0.6-1.3,1.1-2.3,1.8c-3.101-2.9-4.3-6.6-5.7-10.2
	c-6.9-17-25.4-23.9-41.3-20.8c-6.5,1.2-12.7,4.5-17.4,9.4c-4.6,4.8-8.1,10.6-10.5,16.9c-0.5,1.3-0.199,2.9-0.3,4
	c4,3.7,11.101,3,12,9.9c-1,0.4-1.7,0.8-2.1,0.7c-8-2.2-15.601-0.5-23,2.6c-5.5,2.4-9.7,6-12.3,11.4
	c-3.101,6.4-4.301,13.1-4.301,20.2c0,5.8,0.601,11.6,2.4,17.1c3.6,10.8,13.3,16.2,25.2,14.1c0.5-2.3,0.8-4.7,1.399-7
	c0.9-3.5,3-6,6.801-6.5c1.8-0.2,3.699,0.1,4,3.1c-5.101,1.9-6.301,6.4-6.801,11.4c-0.3,3.3-0.899,6.6-1.399,9.9
	c-1.8,12.4,1.5,22.8,11.899,30.3c1.7,1.2,3.301,2.7,5.2,3.7c9.7,5.1,19.5,6.8,29.3,0.5C340,285.4,341.9,282.9,344.3,280.6z
	 M64,474.6c-4.5-0.1-6.7-2-9-3.9c-6.601-5.6-14.2-6.4-22.3-4.9c-2.4,0.4-4.7,1.4-7.101,1.602C17,467.799,11.2,475.7,11,483.2
	c-0.2,5.6,1.2,10.9,2.3,16.201c1,4.6,3.3,8.299,7.6,10.898C23.7,512,26.2,514.401,28.7,516.6c0.8,0.699,1.199,1.699,2.199,3.1
	c-2,0.301-3.199,0.5-4.3,0.701C17,521.6,11.5,527,10.9,536.299C10,549.799,14.1,560.6,27.1,567c7.101,3.5,14.101,5.299,21.9,3.299
	c4.7-1.199,9.399-2.199,14.1-3.199c1.101-2.199,2-4.1,3-6c0.7-1.4,1.7-2.5,3.5-1.9c0.3,0.5,0.8,1,0.9,1.5
	c0.899,3,3.5,5.701,0.399,9.1c-0.8,0.9-0.3,3.701,0.5,5.201c4.4,9.199,9.9,16.9,21.101,19.6c12.1,2.9,26.7-4.9,31.1-13.801
	c5.7-11.6,5.9-15.6-3.6-25c-1.3-1.199-3-2.199-2.5-4.398c1.6-1.9,3.5-1.201,4.8,0c3.7,3.1,7.1,6.5,10.7,9.699
	c2.5,2.199,5,4.4,7.6,6.5c2.8,2.199,5.9,2.801,9.4,2.1c11.3-2.199,20-8.4,26.6-17.5c3.4-4.699,3.601-10.299,2.4-15.699
	c-1.101-5.1-2.8-10-8.2-12.4c-1.9-0.801-3.5-2.301-5.1-3.6c-4.4-3.6-9.101-5.701-14.801-4c-0.8-3.701-0.6-4.4,0.601-5.1
	c2.5-1.4,5.1-1.602,7.899-1c1.9,0.398,4,0.5,6.2,0.799c1.101-4.4,2.9-8.199,2.7-12c-0.7-12.4-6.2-22.699-16-30.5
	c-1.1-0.9-2.7-1.4-4.1-1.699c-6.801-1.6-13.601-3.1-20.4-4.301c-2.3-0.4-4.9-0.5-6.8,1.701c-1.101,1.398-2.601,1.6-4,0.799
	c-2.5-1.4-4.601-0.6-6.8,0.701c-1.2,0.799-2.601,1.199-4.2,1.898c-2.9-5.1,3.1-6.199,3.6-9.898c-1.3-5-5.399-7.5-10.3-8.4
	c-6-1.201-12.2-1-18.1,0.299c-5.4,1.201-10.301,3.5-13.7,8.301c-1.9,2.699-4.4,5-6.601,7.5c-0.3,0.4-0.3,1.1-0.5,1.9
	C61.3,469.1,62.4,471.299,64,474.6z M394.199,352.799C391.8,351,390.4,349.9,389,348.9c-1.2-0.9-2.4-1.9-3.7-2.4
	c-5.4-2-10.8-4-16.3-5.7c-6.5-2.1-12.601-1.6-17.9,3.3c-1.8,1.6-3.7,3.1-5.6,4.6c-5.101,4.3-6.101,10.3-6.7,16.4
	c-0.101,1.3,0.899,3,1.899,4c1.8,2,4.101,3.6,6.101,5.3c1.399,1.2,2.7,2.399,1.399,4.7c-2.8,0.6-5.1-1.4-7.6-2.2
	c-5.2-1.7-10-1.601-14.5,2.3c-3.601,3.2-7.5,6.1-11.4,9.1c-6.1,4.701-8.3,11.102-5.7,18.4c1,2.801,2.601,5.4,3.9,8.201
	c1.8,3.799,4.9,6.299,8.8,7.398c6.101,1.701,12.3,3.5,18.601,2c6.1-8.398,9.8-9.898,13.899-5.898c-6.7,6.898-6.8,6.898-6.7,17.299
	c0,1.201,0.101,2.4,0.2,3.6c0.4,6.301,2.8,11.801,6.4,16.801c2.2,3,4.899,5.4,8.7,6.1c5.399,1,10.899,1.5,16.199,0.1
	c12.5-3.1,16.2-5.299,26.5-15.299c-0.199-2.801-0.5-5.801-0.399-8.801c0.1-3,0.3-6.1,0.899-9c0.4-1.9,1.9-3.1,4.4-1.9
	c0,1,0,2.201,0,3.301c-0.3,6.1,0.6,12.1,2.7,17.801c3.6,9.898,18.5,19.299,29.899,11.5c1-0.701,2.101-1.301,3.2-1.801
	c7.5-3.1,10.5-9.6,12.7-16.699c1.9-5.9,2.8-11.801-0.899-17.5c-0.5-0.801-1-1.701-0.9-2.5c0.1-1.102,0.5-2.5,1.2-3.102
	c0.8-0.6,2.6-0.799,3.399-0.299c2.301,1.4,4.301,3.299,6.4,4.9c4.5,3.398,9.6,3.6,14.8,2.199c3.7-1,6.601-3.1,7.3-7.301
	c0.7-3.898,1.5-7.799,1.7-11.699c0.5-8.199-5.899-17.801-14.6-19.7c-2.9-0.601-5.8-1.3-8.7-2c1.1-4.399,5.6-3.101,8.1-5.5
	c0.7-1.399,1.601-3.101,2.4-4.7c3.3-6.3,2.7-12.3-2-17.699c-1-1.201-1.8-2.5-3-3.4c-9.5-7.3-19.5-12.2-31.8-7.2
	c-0.7,0.3-1.7-0.1-2.2-0.1c-3.3-2.8,1.3-4.3,0.7-6.5c-3.4-5.1-7.8-8.4-13.9-9.2c-1.2-0.2-2.3-0.8-3.5-1.1
	c-6-1.4-11.899-2.1-17.1,2.5c-1.8,1.6-4.3,2.2-6.3,3.6c-4.601,3.1-7.5,7-6,13C394.4,349.4,394.199,350.6,394.199,352.799z
	 M115.4,109.2c-4.6-2.2-8.5-3.8-12.1-5.9c-10.7-6.1-14.7-15.8-13.4-27.7C92,56.6,104,45.3,120.6,38.2c5.2-2.2,11.2-2.9,16.8-3.9
	c8.301-1.5,16.2,1.3,24.101,3.2c5.2,1.2,9.2,4.3,12.3,8.8c2.1,3,4.8,5.4,6.9,8.4c1.5,2.2,2.899,4.7,3.6,7.2c1,3.7,1.8,7.7,1.7,11.5
	c-0.2,7.7-2.3,15.4-7.8,20.8c-7.4,7.3-16.4,12.4-26.601,15.1c-8.1,2.1-16.2,2.4-24.399,1.8c-5.601-0.4-9.4,2.1-11.5,7
	c-1.5,3.3-2.9,6.8-3.601,10.3c-1.899,8.7,0.5,16.4,6.8,22.5c8.601,8.3,23.4,8.7,32.7,1.1c3-2.4,5.5-5.6,7.9-8.7
	c1-1.3,1.3-3.2,1.899-4.8c-4.699-3.7-8.6-7.5-11.3-12.6c1.101-2.8,1.9-5.7,3.4-8.3c0.8-1.4,2.399-3,4.6-1.2c-0.3,3.5-0.5,7-0.8,10
	c3.4,5.4,8.4,7.9,12.8,11.1c4,2.9,8.4,3.4,13.101,2.5c9.8-1.9,17.399-7.2,22.5-15.6c3-5,4.6-10.7,3.6-16.6
	c-1.4-8.2-4.6-15.6-10.1-22.5c-4.101,0-8.2,0-12.601,0c0.4-1.4,0.4-2.5,0.9-3c2.7-2.7,6-4,9.899-3.4c4.801,0.7,8.9-1.1,12.601-3.9
	c4.7-3.6,8.5-8.3,10.5-13.5c2.3-5.9,3-12.5-1.3-18.3c-2.5-3.4-4.9-7-8-9.9C203.7,26,195,22.7,184.6,26c-1.1,0.3-2.899,0.7-3.399,0.2
	c-2.5-2.7-6.101-1.3-9-2c0.3-2,0.6-3.5,0.8-5.2c-6.9-5.1-14.5-8.5-22.601-11c-4.6-1.4-9.3-1.2-13.399,0.4c-5.4,2.2-11.5,4.6-12.3,12
	c-0.101,0.8-0.7,1.6-1,2.2c-4.301,1.7-8,0.8-11.5-1.5c-4.601-3-9.801-3.7-14.9-3.2c-6.8,0.6-13.3,2.5-17,9c-1.6,2.8-2.2,6.2-3.2,9.1
	c1.9,5.4,4.8,9.5,8.601,13.1c0.699,0.6,0.8,1.7,1.5,3.2c-4.5,0-8.101,0-11.801,0c-1.5,0-3-0.3-4.5-0.2c-10.1,0.7-16,7-16,17.2
	c0,8.3,4.7,14,10.4,19.4c6.5-2.5,12.7-3.7,19.1-2.1c1,0.2,2.5,0.6,1.9,2.7c-8,3.3-17.4,5-21.8,14.2
	c-0.4,14.7,3.399,24.3,11.899,29.6c9.9,6.2,21.7,8,29.2,4.2C105.5,127.3,108.4,117.9,115.4,109.2z M305.8,67c-1.8,5.4-3,10.1-5,14.4
	c-4.3,9.4-9.1,18.5-13.5,27.8c-2.9,6.1-6.3,11.7-11.7,16c-1.6,1.3-3.1,2.9-4.399,4.5c-7.301,9.2-17,15.5-26.801,21.5
	c-10.1,6.2-20.199,12.3-30.1,18.7c-3.8,2.5-7.2,5.6-10.5,8.8c-3.3,3.1-6.5,6.3-9,10.2c-3.1,4.6-2.8,10.4-6.1,14.9
	c-1.9,2.5,1,5.8,4.5,6c2.399,0.2,5.199-0.3,7.1,0.8c8,4.8,16.9,8.9,19.3,19.4c0.101,0.5,0.8,0.8,1.3,1.4c2,0,4.101,0.2,6.2-0.1
	c1.8-0.2,3.5-0.8,5.3-1.4c7-2.4,14-5,19.9-8.8c0-7.1-0.3-13.5,0.1-19.8c0.7-13.6,7.301-23.5,19.7-29.3c3.3-1.5,6.7-2.6,10.4-4
	c-1-9.8,3.8-17.2,9.6-24.3c6-7.3,12.3-14.3,22-16.4c4.899-12,4.6-23.9,1.8-35.8c-1.2-5-2.7-10-4.3-14.8
	C310.199,73.4,309.8,69.5,305.8,67z M186.5,404.1c-7.8-7.801-17-8.4-25.8-10.1c-1.101-0.201-2.4,0.5-3.5,0.899
	c-5.4,1.899-10.9,3.501-16.2,5.8c-8.7,3.701-17.9,5.801-27.101,7.301c-3.8,0.699-7.899,0.9-11.8,0.6c-10-0.6-19.899-1.4-29.8-3.199
	c-5.7-1-11.2-2-16.4-4.801C53,399,49.7,398.2,46.5,397.1s-6.4-2-9.5-3.1c-3-1-6-2.101-9.5-3.4c-0.2,4.6,1.899,7.9,3.8,10.5
	c5.8,7.9,10.1,16.5,14.6,25c2.301,4.301,5,8.301,7.7,12.301c2.3,3.5,5.9,5.199,9.601,6.6c3,1.199,5.1-1.1,7.6-1.9
	c10-3.301,20.1-4.699,30.3-1c7.9,2.801,14.5,7.5,19.4,14c4.399,0,8.3,0.4,12.2-0.1c7.3-0.801,14.399-2.4,19-9.201
	C154.2,443.1,157.1,439.6,159.9,436c4.4-5.801,9.301-11.201,13.101-17.4C176.5,413.299,179.7,407.799,186.5,404.1z M798.6,535.299
	c0.4,0.801,0.6,1.602,1,1.801c18.8,10.699,35.9,23.699,51.9,38.1c4.699,4.201,10.3,7.9,16.199,9.9c13,4.6,26.2,4.699,38.801-2.1
	c4.8-2.6,9.5-5.4,14.199-8.1c5-2.9,9.9-5.801,14.9-8.701c3.7-2.1,7.3-4.4,11-6.299c2.7-1.4,5.6-2.301,8.3-3.701
	c1.101-0.6,3-1,2-3.699c-8-0.301-15.899-2-23.399-5.5c-0.801-0.4-1.801-0.5-2.7-0.6c-5.8-0.602-11.101-2.9-16.3-5.4
	c-15.9-7.6-32.4-13.1-49.9-16.201c-18.6-3.299-36.1-1-53.5,5.201C806.8,531.5,802.8,533.5,798.6,535.299z M511.1,506.401
	c-0.6-1.201-0.6-1.602-0.8-1.701c-8.2-4.1-17.101-6.199-26.101-7.299C468.5,495.6,452.8,496.1,437,498.2
	c-12.801,1.801-24.801,5.1-36.4,10.6c-7.4,3.5-14.6,7.5-22.5,9.701c-1.3,0.299-2.3,1.5-4,2.6c2.3,2,3.8,3.9,5.9,5.1
	c4.1,2.301,7.199,5.4,10.3,8.801c6.899,7.4,15,12.9,24.399,17.1c10.4,4.699,21.2,5.199,32,3.801c12.8-1.701,22.8-9.4,31.3-18.701
	c3.7-4,6.9-8.5,10.301-12.699c5.399-6.701,11.6-12.4,19.5-16C508.9,508,509.9,507.2,511.1,506.401z M273,487.799
	c-4.2-1.1-7.9-0.1-11.5-0.5c-6.601-0.799-12.601,1.102-18.4,3.801c-8,3.699-14.2,9-16.6,18.1c-2.8,10.5-6.2,20.9-9.3,31.4
	c-2,6.699-3.801,13.4-6.101,20c-3.2,9-9.2,16.4-15.7,23.199c-4.5,4.701-9.399,9.201-16.3,11c-3.6,0.9-7.2,2.701-10.399,5.801
	c1.199,0.699,1.899,1.4,2.699,1.4c9.4,0.1,18.801,0.9,28.2-0.5c6.3-0.9,12.7-2,19-2s11.7-5.1,18.3-3c0.7,0.199,1.7-0.5,2.5-1
	c1.9-1,3.601-2.301,5.5-3.201c9.101-4.299,12.601-12.398,12.9-21.5c0.2-8.699,0.6-17.6-1.1-26.299c-0.801-4.1-0.4-8.5,0-12.701
	c0.6-5.398,1.8-10.799,2.6-16.199c1.5-9.199,4.8-17.5,12.2-23.699C272.2,491.2,272.3,489.5,273,487.799z M762,541.6
	c-0.601-1.301-1-2.801-1.801-3.9c-3.199-4.4-6.8-8.5-9.699-13.1c-4.801-7.4-10.4-14.1-16.2-20.699c-2.3-2.602-4.9-4.4-8.2-5.4
	c-11.8-4-23.7-4.6-35.8-1.4c-1.4,0.4-2.9,1.199-4.3,1.199c-3-0.1-5,1.5-7.5,2.801c-7.2,3.801-14.101,8.199-22.301,10.1
	c-2.899,0.701-5.6,2.301-8.399,3.4c-2.5,1-5.2,1.699-7.8,2.4c-1.301,0.299-2.301,0.6-2,2.199c0.399,0.4,0.8,0.9,1.3,1.1
	c7.3,3.301,13.5,7.701,19,13.602c6.2,6.6,13.3,12.398,22.399,14.799C681.9,549,683,549.5,684.1,550c8.3,4,16.8,4.199,25.7,2
	c9.1-2.301,18.3-4.1,27.5-6C745.4,544.5,753.4,543.2,762,541.6z M135.1,103.9c13.9,0.5,26.101-4.1,36.9-12.6c4.6-3.5,7-8.3,7.2-14.1
	c0.1-2.7-0.2-5.5-0.2-8.2c-0.101-3.5-1.4-6.5-3.8-9c-3.5-3.8-7.101-7.4-10.601-11.3c-3.899-4.3-8.7-6.3-14.399-6.6
	c-10.801-0.6-21.101,1.6-30.9,5.7c-16,6.7-22.5,20.9-20.8,34.6c0.6,4.8,2.6,8.7,6,11.9c2.899,2.7,6.3,4.6,10.1,5.9
	C121.3,102.5,128,104,135.1,103.9z M32.7,181.1c-2.4,4.3-3,7.5-2.2,11.3c2.3,10.4,5.2,20.6,9.6,30.3c1.7,3.8,4.101,6.9,7.9,8.4
	c4.7,1.9,9,4.5,14.7,2.5c7.899-2.8,16.1-2.7,23.899,1.4c0.4,0.2,1.2-0.1,2.101-0.2c2.699-3.3,5.3-7,8.399-10.3
	c2.9-3.1,5.7-6.6,9.4-8.5c7.8-4,15.7-8,24.6-9.1c6.2-0.8,12.2-0.1,17.4,3.7c4.899,3.6,10.2,6.5,13.3,12.2c1.5,2.7,3.8,2.7,6.1,0.5
	c1.801-1.6,3.301-3.5,5-5.3c0-7.2,2.4-14.3,0.4-21.6c-14.8-5.7-29.6-7.1-44.8-4.2c-7.4,1.5-14.9,3-22.3,4.4c-1.5,0.3-3,0.4-4.5,0.5
	c-4.5,0.5-9,1-13.601,1.4c-5.7,0.6-11.399,1-17.1,1.8c-10.8,1.5-19.5-2.7-27.2-9.8c-0.2-0.2-0.4-0.4-0.7-0.6
	C40.1,187.2,36.8,184.5,32.7,181.1z M315.699,372.2c-3.199-1.8-4.6-2.9-6.3-3.4c-9.3-2.799-18.199-6.699-27-10.899
	c-3.5-1.7-7.399-2.8-11.1-4c-3.3-1.101-6.4-0.8-9.8,0.2c-15.601,4.699-23.7,15.6-22.5,31.9c0.5,6.799,2.1,13,5.399,19
	c4.9,9,9.301,18.4,11.801,28.5c0.8,3.1,2.199,5.9,4.399,9.1c1.601-2.1,2.7-3.5,3.7-4.9c2.1-3.299,4-6.799,6.3-10
	c6.2-8.9,14.2-14.9,25.601-15c1.6,0,3.199-0.9,4.699-1.299c-0.1-7.5-2.5-14.301,1-21.102C305.3,383.799,307,376.5,315.699,372.2z"/>
<path d="M671.6,277.2c3.1-2.8,5.8-3.8,8.5-3.7c13.1,0.4,24.3,4.6,31.5,16.4c1.7,2.9,3.5,5.7,5.3,8.5c2.5,4.2,4.4,8.6,4.8,13.6
	c0.3,3.9,1.3,7.8,2,11.7c1.3,6.7,5.601,11.4,10.601,15.4c1.5,1.2,3.8,1.4,5.899,2.1c2.9-4.8,5.9-9,8.3-13.5
	c4-7.6,9.801-13.8,15.801-19.7c3.3-3.3,5.699-6.9,7.199-12c-2.3,0-4-0.2-5.699,0c-5,0.9-9.7-0.1-14.301-1.7
	c-10.199-3.6-18.899-9.2-25.699-17.9c-5.7-7.3-6.7-15.4-4.9-24.1c0.5-2.6,1.7-5.1,2.8-8.3c-2.399-2.3-5-4.7-7.6-7.2
	c-11-11-14.7-28.6-5.601-42.5c4.7-7.1,9.801-13.8,17-18.8c5.7-3.9,11.4-5.5,18.101-3.2c3.399,1.2,6.8,2.4,10.5,3.7
	c1.5-1.8,3.1-3.6,4.6-5.5c4-4.8,9.4-7.7,14.9-10.2c4.399-2,9-0.8,13.3,0.9c4.8,1.9,9.3,4.5,13.1,8c1.4,1.2,2.801,2.4,4,3.7
	c2.101,2.3,4.4,3.1,7.301,1.4c5.8-3.5,12.199-3.1,18.6-2.4c4.7,0.5,8.9,2.4,11.8,6.2c5,6.4,11.6,11.6,14.8,19.4
	c5.4,0.3,10.5,0.5,15.601,1c12,1.1,19.899,7.2,25,18.3c3.899,8.5,5.3,16.5,2.1,25.5c-1.3,3.6-1.7,7.7-2.5,11.6
	c2.2,2.5,4.3,4.7,6.3,6.9c7.601,8.8,8.8,18.3,2.5,27.6c-2.6,3.9-6.3,7.5-10.899,9.3c-7.4,2.9-14.9,5.3-23,4.7
	c-1.2-0.1-2.5-0.5-3.601-0.2c-7.7,2-15.1,0.6-22.399-1.4c-0.9-0.2-1.7-0.4-2.5-0.5c-24.5,21.3-44.801,14.6-60.301,4.1
	c-5.899,1.7-11.1,5.1-15.899,9.3c-2.3,2-4.4,4.3-6.2,6.7c-6.6,9-13,18.3-16.1,29.3c-0.601,2-1.9,3.8-2.601,5.8
	c-3,8.199-6.399,16.399-8.8,24.799c-1.8,6.4-2.5,13.101-3.8,20.4c-1.8,1.1-4.4,2.5-7.3,4.201c-1.7-4.4-1.5-8.4-0.5-12.501
	c3.399-12.899,6.6-25.899,12.199-38.101c0.4-0.799,0.301-1.799,0.5-3c-2.399-2.6-5.8-2.9-9.1-3.1c-7.6-0.4-15.1,0.3-22.5,2.5
	c-11.9,3.4-24,6.5-36.1,4.8c-7.4-4.201-10.5-10.3-11.601-18c-0.699-4.8-2.199-9.5-3.5-14.1c-0.399-1.4-1.3-2.6-1.8-3.8
	c-8,2.9-15.7,5.6-24,8.6c-5.3,6.8-10.6,14.6-18.399,20.2c-3.5,2.5-3.801,6.899-4.5,10.399c-0.801,4.301-0.7,9,1.199,13.4
	c4.801,11.2,5.5,22.9,3.4,34.801c-0.6,3.6-1.2,7.199-1,10.799c0.3,6.301-1.4,12-3.9,17.5c-1.5,3.4-2.3,6.701-0.899,11.301
	c1.8-1.4,3.5-2.199,4.399-3.6c5.4-8.1,11.9-15.4,18.7-22.201c7.4-7.299,16-12.898,27-14c6-0.6,11.9-2.1,17.9-2.898
	c2.399-0.301,4.899-0.301,7.3,0c11.1,1.699,22.3,3.199,33.3,5.5c6.8,1.398,13.2,4.5,19.9,6.6c9.6,3,19.399,5,29.5,4
	c4.3-0.4,8.399-0.201,12.399,2.5c-1.5,3.299-3.899,5.5-6.399,7.699c-6,5.201-11.8,10.4-17.8,15.5
	c-2.101,1.801-4.101,3.801-6.601,4.801c-7,2.9-14.1,5.5-21.2,8c-5.699,2-11.5,0.5-17.199,0.199c-5.2-0.199-10.301-1-15.4-1.5
	c-1.2-0.1-2.6,0-3.6-0.5c-6.101-3.1-12.9-3.6-19.4-4.6c-17.5-2.801-35.1-3.699-51.4,5.6c-1.3,0.701-3.1,1.201-3.8,2.301
	c-1.7,2.799-4.8,2.199-7.6,3.4c-0.101,1.6-0.5,3.299-0.3,5c1.1,7.5,2.699,14.799,6.699,21.5c1.5,2.5,1.2,6.199,1.601,9.1
	c-2.9,1.799-3.8-0.301-4.7-1.701c-8-13.699-11.8-28.5-11.1-44.398c0.1-3.301,1-6.602-0.5-9.602c-2.5-1.1-3.601,0.801-4.9,1.801
	c-4.1,3.299-8.3,6.1-13.9,5.9c-8.6,4-17.8,3.5-26.8,3c-14.5-0.801-27.6,3.6-39.7,11c-2.1,1.299-4.1,2.699-6.699,2.398
	c-2.601-3.199-4-6.699-1.9-10.699c0.3-0.5,0.4-1.301,0.3-1.801c-2.5-7.299,0.9-12.799,5.3-18.199c2.101-2.6,3.301-5.801,4.801-8.801
	c3.699-6.799,7.899-13,15.8-15.6c1.399-0.5,2.399-1.799,3.6-2.6c9.7-6.6,20.2-10.199,31.8-6.4c5.4,1.801,10.4,4.801,15.101,8.1
	c4.899,3.4,10.3,5.102,15.899,6.301c3.4,0.699,5.5-0.699,6.101-3.9c1.3-7.199,2.6-14.4,3.399-21.6c0.3-2.6-0.3-5.4-0.899-8
	c-1.9-9.3-4.801-18.199-11-26.1c-1-0.1-2.101-0.4-3.301-0.301c-10.1,1.301-17.5-3.799-24.399-10.1c-3.3-3.1-6.2-6.6-9.4-10.2
	c-2.6,0-5.399-0.4-8,0.1c-17.6,2.7-33.6-2.2-48.7-10.7c-2.8-1.6-5.399-4-7.399-6.5c-7.2-9.1-13.601-18.6-16.7-30
	c3.6-11.4,4.8-13.4,14.7-23c-1.5-2.7-2.7-5.9-4.8-8.2c-4.801-5.1-5.5-11.4-6-17.7c-0.5-6.7-0.5-13.3,1-19.9
	c1.5-6.3,4.8-11.1,10.1-14.6c10.5-6.9,21.3-8.3,32.7-2.3c1.3,0.7,2.7,1,4.6,1.7c0.8-1.7,1.7-2.9,1.9-4.3
	c0.899-7,5.399-11.5,10.899-14.9c4.601-2.9,9.601-5.2,14.601-7.3c2.2-0.9,4.7-1.1,7.1-1.2c13.2-0.4,25.2,3.3,35.8,11.2
	c2.2,1.6,4.5,3.1,6.7,4.7c9.601-1.2,19.2-2.7,28.9-0.9c7.5,1.4,14.5,3.7,20.1,9.6c3.8,3.9,4.4,7.7,3.101,12.4
	c-0.9,3.2-1.9,6.3-3,9.6c3.5,1.7,6.399,3.2,9.399,4.7c8,4,11.601,11.3,14.5,19.1c0.2,0.5,0.2,1.2,0.2,1.8
	c-0.3,6.8-1.8,13.3-5.2,19.2c-1.3,2.2-3.6,3.9-5.7,6c5.5,13.8,5.7,27-6.899,37.5c0.3,3.2,3.1,1.4,4.399,2.9
	c1.101,6.3,2.101,12.9,3.5,19.3c2.5,11.5,8.101,13.4,18.7,9.6c9.601-3.4,19.4-4.7,29.4-5.2c2.7-0.1,5.3-0.2,9-0.3
	c-1.2-2.4-1.8-4.1-2.8-5.4c-3.7-4.6-6.101-9.7-7.7-15.4c-1.9-7-4-14-5.9-21c-0.8-3.1-2.399-5.5-4.8-7.6c-5.6-4.9-11.9-8.3-19.3-9.7
	c-2.7-0.5-5.4-0.8-8.101-1.5C674.1,279.1,673.3,278.3,671.6,277.2z M834.199,232.6l0.101,0.2c0-0.6,0.3-1.4,0-1.7
	c-6.3-7.9-14.4-12.9-24.5-14.2c-3.3-0.4-6.7-0.3-10-1c-5.2-1.2-9.601,0.6-13.9,2.9c-8.6,4.7-11,17.8-4.5,25.2c0.9,1,2.5,1.7,3.8,2.1
	c1.4,0.4,3,0.1,4.8,0.1c3.101,6.1,8.7,9,14.2,12.3c11.7,7.1,23.7,6.2,35.9,2c3.8-1.3,6-4.3,6-8.4
	C846.199,243.3,842.8,236.3,834.199,232.6z M853,289.4c4.3,3,7.6,6.4,12.399,6.9c9.9,0.8,19.4-0.9,28.5-4.8
	c1.4-0.6,2.601-1.5,3.8-2.5c7.101-5.6,7.9-13.8,2.2-20.8c-2.1-2.6-3.7-5.9-6.3-7.7c-4.8-3.2-6-7.8-7.2-12.8
	c2.601-1.2,5.601-0.9,7-3.9c1.4-2.9,1.7-5.7,1-8.8c-0.6-2.9-1.2-6-1.1-9c0.1-4-1.3-7.2-3.7-10c-5.1-6-11.3-10.1-19.6-9.9
	c-2.7,0.1-5.5,0.2-7.9,1.1c-2.8,1-1.9,4.1-2.5,6.4c-0.5,1.9-1.6,2.1-5.4,1c-0.1-1.7-0.1-3.5-0.399-5.2c-0.3-1.7-1-3.3-1.601-5.3
	c-2.899,0.7-5.199,1.4-7.5,1.8c-0.6,0.1-1.899-0.6-2-1.2c-0.199-0.7,0.2-1.9,0.801-2.3c1.899-1.3,3.899-2.3,6.199-3.5
	c-2.6-5.2-6.199-8.9-9.6-12.7c-6.9-7.6-16-8.7-25.9-2.9c1.4,2.9,3,5.7,4.301,8.7c0.699,1.6,1,3.4,1.199,5.2c0.101,1-2.1,1.9-2.8,1.1
	c-1.1-1.3-2.2-2.8-3-4.3c-5.899-10.6-13.2-19.6-25.5-23.2c-8.2-5.5-15-1.8-21.2,3.7c-2.199,1.9-3.899,4.4-5.899,6.6
	c3.899,6.5,10.3,11,10.5,18.8c-2.8,1.6-4.601-0.3-5.8-1.7c-4.7-5.2-10.9-8.5-15.9-13.4c-6.9-6.8-13.9-6.6-21-0.1
	c-8,7.4-13.8,16.1-14.7,27.3c-0.2,2.1-0.8,4.7,0.2,6.3c3.1,5.5,4.3,12.1,9.3,16.4c1.3,1.1,2.9,1.9,4.4,2.9c4.8-3.5,9.8-5.6,15.3-6.3
	c6.4-0.8,9.3,0.6,14.3,7.4c-2.7,0-5,0.1-7.3,0c-4.7-0.3-9.1,0.8-13.2,2.8c-6.5,3.1-10.3,11.8-8.9,19c2,9.8,8.2,16.8,15.4,23
	c2,1.8,4.4,3.7,6.9,4.3c8.6,1.9,17.3,2,26-0.7c-0.2-3.1-0.7-5.7-0.5-8.4c0.1-2.4,0.7-4.8,1.5-7.1c0.8-2.6,1.8-5.2,3.1-7.6
	c1.2-2.3,2.8-4.4,4.1-6.6c-3.5-3.2-6.699-5.9-9.8-8.9c-4.1-3.9-7-8.7-7.2-14.3c-0.199-6.1,1.2-12.4,5.301-17
	c4.3-4.7,9.8-8.7,16.3-9.2c7.8-0.7,15.899-0.7,23.6,0.6c15.4,2.6,28,11.3,39.4,21.6c3,2.7,6.8,6.6,2.8,11.8
	c-0.9,1.2-0.4,3.5-0.7,5.3c-0.3,2.4-1,4.7-1.2,7.1c-0.5,5.3-5.1,7.9-8.399,11.9C852.3,272.5,852.699,280.7,853,289.4z
	 M512.199,272.8c-2.699,0.6-4.3,1.1-6,1.4c-5.3,1.1-10.8,1.8-16,3.2c-4.199,1.2-6.8,4.8-6.3,9c0.7,5.7,2.101,11.3,3.4,16.9
	c0.3,1.4,1.399,2.7,2.399,3.7c8.601,8.1,16.801,16.5,28,21.3c12.4,5.3,24.2,3.8,36.101-1.1c0.2-0.1,0.3-0.5,0.7-0.9
	c-0.801-4.6-1.5-9.3-2.4-14c-1.1-5.4,1.4-9.9,3.7-14.9c-2.3-1.1-4-2.4-6-2.9c-7.101-1.9-12-6.7-17-11.7c-7.5-7.6-7-17-6.4-26.5
	c0-0.6,0.2-1.3,0.6-1.7c6.301-7.8,12.2-15.8,22.301-19.2c5.199-1.7,10.199-3.9,15.399-5.7c2.8-1,5.8-1.6,8.8-2
	c4.5-0.6,9.101-0.7,13.601-1.1c5.5-0.4,11.3-0.4,16,2.3c10.5,5.9,18,14.3,19.8,26.8c0.5,3.3,0.4,6.7,2.8,10
	c5.4,0.8,11.101,1.3,16.7,2.4c5.9,1.1,11.7,2.7,17.3,4c6.601-5,7.601-11.9,7.7-19c0.1-8.9-5.6-15.7-14.4-17.4
	c-2.399-0.5-4.8-0.4-6.899-0.6c-2.601,2.2-4.9,4.2-7.3,6.1c-1,0.8-2,1.3-3.2-0.3c2-2.5,4-5.1,6-7.7c5.2-6.7,5.8-14.4,4.5-22.4
	c-0.4-2.5-1.9-4.6-4.2-5.6c-5.3-2.3-10.3-4.6-16.5-4.1c-9.8,0.8-18.3,3.9-25.5,10.5c-0.8,0.7-2,0.9-3.9,1.6c0.3-2,0.4-3.1,0.601-4.1
	c0.3-1.2,1.3-2.6,1-3.4c-2-4.4-2.7-9.5-8-12.2c-9.5-4.9-19.4-7.3-29.801-6.5c-8.6,0.6-16.3,4.3-22,11.3
	c-4.5,5.6-4.699,10.6-0.6,16.7c2.2,3.3,4.7,6.3,7.1,9.5c0.2,0.3-0.1,1-0.1,1.7c-1.6,0.4-3.3,0.8-5.1,1.3c-3.3-7-9-11.1-14.9-14.8
	c-1.7-1.1-4.8-2.2-5.8-1.4c-3.4,2.5-7.1,1.4-10.6,1.7c-13,1.4-21.601,10.3-22,23.3c0,1.5-0.101,3-0.101,4.6
	c-0.1,8.4,2.8,15.6,9.5,20.8C500,265.3,505.5,268.4,512.199,272.8z M581.3,287.3c6.2-0.9,12.899-1.4,19.399-3
	c5.5-1.4,11.301-3.2,12.7-10c6-6.7,5.101-13.8,1.601-21.2c-0.4-0.8-0.801-1.6-1.101-2.5c-2.5-7.2-7.3-11.6-15.1-12.5
	c-1.2-0.1-2.4-0.6-3.5-0.9c-12.2-4-24.101-2.8-35.101,3.6c-4.899,2.9-9.399,6.7-13.6,10.6c-3.3,3.1-6.2,6.8-8.5,10.6
	c-4.2,7-2.3,13.7,4.5,18.1c2.6,1.7,5.4,2.6,8.5,2.9c5.1,0.6,10.2,1.4,15.3,2.1C571.199,285.8,576,286.5,581.3,287.3z M612.6,448.799
	c0.2,0.201,0.5,0.5,0.7,0.5c3.2-0.799,6.399-1.699,9.6-2.5c6.8-1.6,13.5-4.1,20.3-4.6c10.9-0.9,21.9-0.5,32.8-0.699
	c1.801,0,3.7,0.1,5.4,0.5c5.3,1.199,10.6,2.799,15.9,3.9c5.6,1.199,11.399,3,17,2.898c15.1-0.398,26-8.5,34.5-21.398
	c-6.4-1.4-12.3-2.701-18.101-3.9c-3.899-0.801-8.1-0.9-11.5-2.701c-3.399-1.699-6.8-2.398-10.3-3.1c-3.899-0.799-7.6-1.9-11.5-2.699
	c-5-1-10.1-2.201-15.2-2.701c-12.6-1-24.699,2.201-36.699,5.602c-1.4,0.398-2.801,1.1-4.101,1.799c-12.3,6.301-20.8,16.5-28.6,27.4
	C612.5,447.5,612.699,448.2,612.6,448.799z M602.9,297.6c-5.2,1.3-9.2,3.2-13.3,3.1c-7.2-0.2-14.4-1.5-21.6-2.5
	c-6.101-0.9-8.4,0.3-10.101,6.1c-0.5,1.7-0.6,3.6-0.7,5.4c-0.199,8.1,2.9,15.4,6.101,22.6c3.1,7,8.5,11.5,15.5,14.7
	c8,3.7,15.5,2.2,22.6-1.7c6.4-3.6,11.3-9.2,14.9-15.6c3.1-5.6,2.6-9.9-2.101-14.6c-3.5-3.5-6.3-7.4-8.399-11.8
	C604.9,301.3,603.9,299.5,602.9,297.6z M504.3,462.2c2.5-1.4,3.2-1.799,4-2.199c5.899-3,11.6-6.9,17.899-8.701
	c10.801-3.1,21.9-4.898,33.301-4.199c6.5,0.4,12.5-1.301,18.699-3.301c8.101-2.699,11.7-8.6,14.601-15.898
	c-1.2-0.701-1.9-1.5-2.7-1.602c-7.4-1.199-13.5-5.199-19.4-9.5c-10.6-7.6-21.5-7.699-32.5-1.699c-8,4.4-15.2,10-20.7,17.5
	c-2.899,3.9-5.8,7.801-8.3,11.9c-1.2,2-1.899,4.4-2.5,6.699c-0.399,1.4,0.101,3-0.2,4.5C506.1,457.299,505.3,458.901,504.3,462.2z
	 M792.6,260.7c-8,6-8.9,14.4-8.6,22.5c0.399,8.6,4.699,15.7,12.899,19.7c15,7.4,29.8,3.6,41.101-7c3.1-2.9,7-6.1,5.6-11.7
	c-0.2-0.9,0.9-2.2,1.4-3.2c1.1-1.8,0.5-3.5-0.4-5.2c-3.1-6-7.4-8.5-14.1-7c-7.801,1.8-15,0.8-22.2-2.1
	C803.199,264.6,798.1,262.8,792.6,260.7z M608,294.8c3.1,9.2,9.3,15.8,16.6,21.4c2.6,1.9,5.9,3.6,9.4,2.9
	c10.6-1.9,19.399-6.8,25.3-16.1c1.899-2.9,2.3-6,1.5-9.6c-2.5-11.9-14.4-19.5-24.3-19.5c-5.101,0-9.4,1.5-12.601,5.9
	c-2.5,3.4-5.6,6.4-8.6,9.3C613.1,291.1,610.5,292.8,608,294.8z"/>
<path d="M681.699,302c1.801-0.4,3.101-1.2,3.801-0.8c6.3,3.7,11.199,8.7,13.899,15.7c0.2,0.4-0.3,1.1-0.5,1.7
	c-0.8-0.4-1.7-0.7-2.3-1.3C691.8,312.4,687.1,307.5,681.699,302z"/>
<path d="M680.6,318.8c2.4-2.6,4.6-1.9,6.2-0.4c2.899,2.7,5.399,5.7,8,8.7c0.399,0.4-0.101,1.6-0.3,2.4c-0.801,0-1.601,0.2-1.9,0
	C688.699,326.1,684.9,322.6,680.6,318.8z"/>
<path d="M903,441.7c-13.801,0.9-26.601-3.4-39-8.199c-7.5-2.9-14.2-8.201-20.9-12.801c-5.2-3.6-10.1-7.699-14-13
	c-4.4-6.1-7.1-12.3-3.4-19.4c3.9-7.399,8.7-13.899,18.4-14.299c10.9-0.5,21.8-2,32.7-0.5c15.8,2.199,30.8,6.5,44,16.1
	c4.6,3.4,9.8,6.1,14.7,9.1c7.899,4.801,9.3,7.801,7.199,16.4c-1.5,6.199-2.899,12.6-8.6,16.6c-7.3,5-14.5,10.201-23.9,10
	C907.9,441.6,905.5,441.7,903,441.7z M931.9,424.901c1.2-2.701,2.3-4.9,3-7.201c0.4-1.4,0.8-3.199,0.3-4.4
	c-2.3-4.699-3.8-10.299-9.399-12.6c-5-2.1-10-4.199-14.9-6.6c-4.3-2-9.5-2.1-12.7-6.4c-0.6-0.8-2.2-0.9-3.3-1.1
	c-6.8-1.301-13.7-2.4-20.5-3.9c-7.8-1.699-15.7-1.9-23.6-1.3c-2.7,0.2-5.4,1-7.9,2.101c-7.6,3.399-10.8,9.899-8.6,17.699
	c0.8,2.801,2.5,5.6,4.5,7.801c2.7,2.799,5.8,5.4,9.2,7.299c8.699,4.9,17.399,10,26.6,13.801c11.1,4.6,22.9,5.9,34.8,3.4
	C917.3,431.901,924.5,428.901,931.9,424.901z"/>
<path d="M116.3,318.2c-5.1,0.8-11.9-1.2-18.3-5.1c-10.4-6.3-14.3-19.1-9.3-29.1c3.199-6.4,7.399-11.8,12.399-16.7
	c0.601-0.6,1.4-1.3,2.2-1.6c8.4-3.4,16.5-7.6,25.7-8.8c2.7-0.4,5.5-0.4,8.1-1.1c8.7-2.3,17.4-1.9,26.101-0.9
	c3.699,0.4,6.3,2.1,8.399,4.8c2.601,3.4,5.4,6.6,5.9,11.1c0.2,1.4,1,2.9,1.8,4.1c2.7,4.6,1.6,8.8-1,12.9
	c-6.2,9.6-14.7,16.8-24.4,22.7c-2.3,1.4-4.899,2.6-7.5,3.2C137.3,315.9,128.2,318.2,116.3,318.2z M126.2,308.6
	c2.399,0,4.6,0.2,6.699,0c15.7-2.1,28.9-8.5,38.101-22c2.2-3.1,4.1-6.3,0.1-9.5c-0.399-0.3-0.6-1.2-0.399-1.6
	c1.1-3.4-0.5-5.9-2.5-8.3c-2.301-2.7-5.4-3.9-8.7-4.5c-4.5-0.8-8.9-1.7-13.5-0.7c-3.2,0.7-6.7,0.9-10,0.6
	c-3.8-0.3-7.2,0.9-10.601,2.1c-3.399,1.2-6.899,2.4-10.1,4.1c-4.5,2.4-9.1,4.6-12.8,8.4c-3.601,3.8-5.4,8.5-5.4,13.1
	c0,4.7,2.601,9.2,7,12.1C111,306.7,118.3,309.4,126.2,308.6z"/>
<path d="M413.199,212.4c-1,7.1-3.399,13.2-7.8,18.5c-0.8,0.9-1.7,1.8-2.3,2.8c-9.2,15.3-24.1,18.5-40,17.7
	c-13.9-0.7-26.5-6.4-38.2-13.8c-2.3-1.5-4.3-3.4-6.2-5.3c-2.8-2.8-5.5-5.7-7.899-8.8c-2.2-2.9-4.101-6-5.9-9.1
	c-2-3.7-1.6-7.4-0.5-11.4c5.2-18.8,22.4-27.4,38-26.1c5.7,0.5,11.5,0.9,17.2,1.5c10,0.9,18.8,4.6,26.8,10.5c2.9,2.1,6.2,3.8,9.3,5.8
	c4.4,2.8,8.2,6.2,11.301,10.5C408.6,207.4,410.699,209.6,413.199,212.4z M381.3,195.2c-6.8-3-13.101-5.7-19.5-8.5
	c-0.5-0.2-1.2-0.3-1.8-0.4c-10.301-1.2-20.601-1-30.601,2.1c-3.1,1-6.6,2.1-9,4.2c-8.5,7.8-8.6,17.6-3.3,24.5
	c3.5,4.6,7.3,8.9,11.1,13.2c1,1.1,2.4,1.8,3.7,2.6c11.3,6.5,23.9,8.2,36.601,9.5c1.199,0.1,2.5-0.1,3.6-0.5
	c8.8-3.2,17.7-6.5,25.1-12.5c1.301-1.1,2.301-2.7,3.2-4.2c3.2-5.4,1.9-10.7-1.5-15.3c-3.399-4.6-7.5-8.7-13-11.3
	c-1.899,1.2-3.6,2.5-5.399,3.4c-1.5,0.7-2.9,0.1-3.4-2.2C378.199,198.4,379.6,197,381.3,195.2z"/>
<path d="M90.4,483.901c12.5-1.102,23.2,2.799,33.9,6.1c5.7,1.799,8.3,7.1,9,12.799c0.5,4.201,0.2,8.5-0.4,12.701
	c-1.1,7.6-5.1,13.6-12,17.299c-4,2.201-8.1,4.201-12.1,6.301c-1.1,0.5-2.3,1-3.4,1.1c-18.6,2.801-36.3,0.4-52.6-9.5
	c-3.7-2.199-6.8-5-9.2-8.6c-3.3-4.9-3.6-10.199-2.5-15.699c0.601-3.4,2.5-6.201,5.601-8c1.3-0.801,3-1.201,3.899-2.201
	C55.6,490,62.9,488.6,70,487C76.8,485.401,83.8,483.2,90.4,483.901z M90.3,534c11.3-0.6,21.1-3.801,30.2-10
	c3.899-2.701,6.1-6.1,6-10.5c-0.101-4.5-1.2-8.9-1.9-13.4c-0.5-3-2.3-4.9-5.3-5.6c-4.7-1.1-9.4-2.301-14.1-3.301
	c-6.601-1.4-13.101-2-19.801-0.1c-4.399,1.301-8.8,2.5-13.3,2.9c-9.7,1-16,6.4-20.6,14.5c-3,5.199-2.4,10.699,2.5,14.5
	c5.5,4.299,11.5,8.1,18.6,9C78.6,532.901,84.6,533.401,90.3,534z"/>
<path d="M351.3,391.1c2.5-9.5,10.1-12.801,16.3-17.4c13.5-10.1,28.899-13.5,45.5-12.6c1.2,0.1,2.399,0.3,3.6,0.199
	c9.3-0.899,17.2,2.701,24.8,7.4c6.5,4,11.2,9.301,13.101,16.801c0.6,2.299,1.2,4.699,1.899,7c-3.1,5.1-5.899,10.1-9.1,14.9
	c-3.7,5.5-9.2,8.898-15.4,10.699c-13.3,4-26.8,5-40.5,2.199c-8.399-1.699-16.399-4-24-8.199c-7.1-4-11-10.1-14.6-16.7
	C352.199,393.9,351.8,392.4,351.3,391.1z M413.1,368.6c0-0.1,0-0.2-0.1-0.301c-4.5,0.5-9.2,0.301-13.4,1.801
	c-5.2,1.8-10.3,3.1-15.7,4.4c-9.2,2.1-16.7,7-19.5,17c-1.8,6.4-0.8,9.1,4.8,13.199c7.8,5.6,16.601,8.4,26,10.1
	c12.2,2.201,24.101,1.9,35.9-2c5.5-1.799,9.7-5.199,12.6-9.898c2.9-4.602,3.8-10.201,3.7-15.602c0-1.699-0.899-3.5-1.899-5
	c-3.2-4.799-20.101-13.5-26-13.5C417.4,368.6,415.199,368.6,413.1,368.6z"/>
<path d="M252.8,154.9c-6.9,4.4-12.3,7.2-17.1,10.9c-5.7,4.5-10.9,9.6-16.2,14.6c-1.7,1.6-2.601,4.1-4.101,5.9
	c-1.899,2.3-3.899,4.7-6.399,6.4c-1.8,1.2-4.2,0.8-4.9-2.3c8.4-10.7,17.601-20.7,28.9-28.6c3.899-2.8,8.3-4.9,12.7-7
	C247.2,154.1,249.2,154.8,252.8,154.9z"/>
<path d="M250.5,169.2c-3.2,3.3-6.3,5.5-9.601,7.4c-6.399,3.8-11.699,8.4-15.1,15.2c-0.7,1.4-2.4,2.3-3.9,3.7c-2.6-4.5,1-6.8,2.5-9.2
	C230.2,177.6,241.2,170.4,250.5,169.2z"/>
<path d="M147.9,409.799c-0.1,0.602-0.1,1.301-0.399,1.701c-0.601,0.6-1.4,1.1-2.2,1.6c-7,3.801-26,8.5-33.8,8.4
	c-2.2,0-4.3-0.1-4.8-2.9c0.3-0.1,0.5-0.4,0.8-0.4c12.2-0.1,23.5-4,34.7-8.6C144.1,408.799,146.1,408,147.9,409.799z"/>
<path d="M145.8,424c-0.7,1.199-1.1,2.299-1.7,2.5c-4.2,1.4-8.2,3.299-13.1,2.9c-4.4-0.301-8.8,1-13.7,0.398c1-0.699,1.8-1.699,2.9-2
	c7.3-1.699,14.699-3.199,22-4.699C143.2,423,144.4,423.6,145.8,424z"/>
<path d="M843,541.2c-2-1.6-2.301-3.1-0.5-4.6c3-2.5,6.899-2.6,10.399-2.5c14.2,0.4,28.3,2.199,41.5,8.1c3,1.4,5.9,3.1,8.7,4.801
	c0.6,0.299,0.7,1.4,1.6,3.299C884.3,541.2,864.199,536,843,541.2z"/>
<path d="M894.8,560.5c-2.3-0.201-4.5,0.1-6.2-0.6c-7.5-3.301-15.3-5.301-24.9-5.201c2-1.6,3.101-3.1,4.2-3.1
	c9.2,0.199,17.9,2.199,26,6.699C894.199,558.5,894.3,559.299,894.8,560.5z"/>
<path d="M410,517.1c0.699-1.4,1.1-3.5,2.399-4.301c3-1.898,6.3-4,9.7-4.6c13.4-2.299,27-3.6,40.5-0.799c0.6,0.1,1.3,0.1,1.7,0.5
	c0.6,0.6,1.5,1.5,1.399,2c-0.3,1-1,2.199-1.899,2.699c-1,0.5-2.4,0.5-3.5,0.199C452.199,511,444.1,511.1,436,512.5
	c-1.5,0.299-3,0.4-4.5,0.299c-5.7-0.699-10.7,0.801-15.2,4.301C414.4,518.5,412.6,518.799,410,517.1z"/>
<path d="M449.699,523.7c-2.8,0.1-4.5,0.4-6.199,0.301c-8.801-0.5-17.5-0.801-25.7,3.4c-1.3,0.6-3.2-0.201-6-0.4
	c1.6-1.9,2.399-3.6,3.5-4c4.2-1.5,8.5-3.5,12.899-3.701c6.2-0.299,12.601,0.602,18.8,1.201C447.9,520.6,448.4,522.1,449.699,523.7z"
	/>
<path d="M229.9,538.5c0.301,1.4,0.9,2.6,0.801,3.699c-0.9,9.801-4,18.9-9,27.301c-1.101,1.799-2.801,3.1-4.4,4.5
	c-0.5,0.4-1.8,0.299-2.4,0c-1.3-0.801-1.199-2.201-0.3-3.1c6.3-6.201,8.5-14.301,10.3-22.602c0.601-2.898,1.5-5.799,2.5-8.6
	C227.6,539.1,228.8,538.901,229.9,538.5z"/>
<path d="M226,578.299c0.5-8.398,5.1-14,11.1-20.699c0,2.9,0.5,4.4-0.1,5.5C232.3,572.901,229.9,576.2,226,578.299z"/>
<path d="M726.199,520.1c-0.899-0.6-2-1.1-2.6-1.9c-1.6-2.1-3.5-3-6.2-3.199c-5.7-0.301-11.399-1.1-17.1-1.9
	c-5.9-0.9-12,0.301-17.7,2.801c-1.1,0.5-2.6,0.1-5.9,0.1c2.801-2,3.801-3.201,5-3.5c12.4-3.5,25-4.301,37.601-1.201
	c2.5,0.6,4.899,2.201,7,3.801C727.699,516.1,728.199,518.1,726.199,520.1z"/>
<path d="M711.4,527.901c-10.1,0.199-19.3-1.9-27.8,2.799c-2.1-1.6-1.7-3.1-0.1-3.699c3-1.301,6.199-2.9,9.399-2.9
	c5-0.1,10.101,0.801,15.2,1.6C709.199,525.799,710.199,527.1,711.4,527.901z"/>
<path d="M167,75.9c2,1,3.6,1.5,4.8,2.6c0.6,0.5,0.4,2.2,0.1,3.2c-0.199,0.6-1.5,1.3-2,1.1c-1.1-0.3-2.399-1-2.8-1.9
	C166.7,79.7,167,78.1,167,75.9z"/>
<path d="M117.6,71.4c-2.7,1.3-3.7,2-4.8,2.2c-1.8,0.4-3-0.5-3-2.1c0-1.8,1.1-2.6,2.8-2.6c0.601,0,1.2,0.1,1.7,0.3
	C115,69.6,115.7,70.2,117.6,71.4z"/>
<path d="M129.7,95.2c-1.2-1.2-2.301-1.8-2.7-2.7c-0.5-1.2,1.2-3,2.6-2.6c0.8,0.2,1.9,1.4,2,2.2C131.7,93,130.6,93.9,129.7,95.2z"/>
<path d="M139.3,75.6c-1.7,0.8-2.7,1.8-3.5,1.6c-0.8-0.2-1.4-1.4-2-2.2c0.9-0.6,1.7-1.6,2.6-1.7C137.2,73.4,137.9,74.5,139.3,75.6z"
	/>
<path d="M151.6,68.7c-0.8,2.3-2.3,2.7-3.8,2.4c-0.6-0.1-1.4-1.2-1.4-1.8c-0.1-1.8,1.2-2.7,2.9-2.4C150.2,67.1,150.9,68.1,151.6,68.7
	z"/>
<path d="M124,57.6c1.3,1.7,2.5,2.6,2.399,3.3c-0.199,0.8-1.399,1.6-2.3,2c-0.3,0.1-1.6-1-1.6-1.6C122.5,60.4,123.2,59.5,124,57.6z"
	/>
<path d="M144.6,54c-1,0.7-1.8,1.5-2.7,1.9c-0.199,0.1-1.3-1-1.399-1.6c-0.2-1.7,1.3-3.2,2.399-2.6C143.6,52,143.9,52.9,144.6,54z"/>
<path d="M137.9,70.1c-1.1-1.5-2.199-2.4-2.199-3.2c0-1.9,1.699-2.2,3.199-2c0.7,0.1,1.801,1.3,1.7,1.5
	C140,67.5,139.2,68.5,137.9,70.1z"/>
<path d="M121.4,79.2c-1.8,1.5-2.5,2.4-3.399,2.8c-1.2,0.6-2.5,0-2.8-1.3c-0.101-0.7,0.5-2.3,0.899-2.3
	C117.4,78.4,118.7,78.8,121.4,79.2z"/>
<path d="M146.3,83.1c2.4-0.1,4.2,0,4,2.5c-0.2,1.4-1.4,1.8-2.6,1.5C144.8,86.4,146.6,84.6,146.3,83.1z"/>
<path d="M155.7,59.6c-0.5,0.3-1.2,1-1.801,0.9c-1.3-0.2-2.199-2.4-1.5-3.6c0.2-0.4,1-0.8,1.4-0.8C155.4,56.1,156.3,57.6,155.7,59.6z
	"/>
<path d="M162.1,72.7c-1.6,0.7-2.3,1.3-3.1,1.2c-0.601,0-1.5-0.8-1.601-1.3c0-0.5,0.7-1.5,1.2-1.6C159.3,70.8,160,71.5,162.1,72.7z"
	/>
<path d="M59.4,208.2c5,1.9,10.2,2.9,15.801,2c1.5-0.2,3.199,1.1,6,2.1c-8.2,3.3-15.101,3.9-22,0.4C57.5,211.8,57,209.9,59.4,208.2z"
	/>
<path d="M64.1,221.2c4.7-3.8,10.2-1.9,15.9-2.1c-3.3,3.3-4.8,3.9-12.4,4.6C66.2,223.8,64.8,223.7,64.1,221.2z"/>
<path d="M284.6,373.5c-1.8-0.9-3.6-2-5.5-2.601c-6.899-2.3-12.8,1.2-18.8,3.7c-1.4,3.1-5.4,5.3-3,9.699c0.2,0.301-0.8,1.4-1.4,1.9
	c-0.3,0.2-1.199-0.1-1.699-0.3c-2.2-1-3.2-3-2.9-5.2c0.4-3,1.2-5.8,3.9-7.9c6.399-5.199,13.5-8.1,21.699-7.899
	c2.601,0.101,5.301,1.2,7.7,2.3C286.8,368.1,286.7,369.4,284.6,373.5z"/>
<path d="M257.4,391.9c4.4-8,9.9-12.3,18.5-11.899c1.801,0.1,3.7,0.1,5.4,0.5c0.7,0.1,1.5,1,1.8,1.699c0.101,0.301-0.899,1.1-1.5,1.6
	C281.4,384,281,383.9,280.7,383.9c-7.9-0.3-14.9,1.5-20.2,7.899C260.3,392.1,259.4,391.9,257.4,391.9z"/>
<path d="M582.1,247.2c-0.3,0.5-0.6,1.1-1.1,1.5c-1.301,1.1-2.4,2.9-4.5,1.7c-1.101-0.6-0.7-2.6,0.699-3.9
	C578.9,244.9,579.699,245,582.1,247.2z"/>
<path d="M562.9,254.8c0,2.5-1.5,4-3.5,3.8c-0.899-0.1-2.1-1.1-2.399-1.9c-0.5-1.5,1.199-3,3.399-2.9
	C561.3,253.7,562.199,254.5,562.9,254.8z"/>
<path d="M574.8,255.4c-1.3,0.6-2,1.2-2.8,1.3c-1.5,0.3-3.101,0.1-3.301-1.8c-0.1-0.7,0.4-1.7,1-2.2c1.301-1.5,2.601-0.7,3.601,0.5
	C573.6,253.7,573.9,254.2,574.8,255.4z"/>
<path d="M601.8,250.3c0.2,2.6-1.101,3.9-3,4.1c-0.8,0.1-2.4-0.9-2.601-1.6c-0.199-0.7,0.7-2.4,1.4-2.7
	C598.9,249.8,600.5,250.2,601.8,250.3z"/>
<path d="M592.1,242.6c0.2,2.5-1.4,4.6-3.4,4.4c-0.6-0.1-1.6-0.9-1.7-1.6c-0.5-2,1.301-4,3.4-4
	C591.1,241.4,591.699,242.2,592.1,242.6z"/>
<path d="M591.6,273.6c0.7,0.3,1.5,0.5,1.7,0.8c0.2,0.8,0.3,1.8,0,2.4c-0.4,0.7-1.3,1.7-2,1.7c-1.101,0-2.601-0.4-3.101-1.2
	c-0.399-0.6,0.4-2.2,1-3C589.699,273.8,590.9,273.8,591.6,273.6z"/>
<path d="M570.3,273.9c-1.101,1.6-1.4,2.6-2.101,3c-0.899,0.5-2.1,0.8-3.199,0.7c-0.4,0-1.101-1.8-0.801-2.3c0.5-0.9,1.5-1.7,2.5-2.1
	C567.5,272.9,568.5,273.5,570.3,273.9z"/>
<path d="M584.4,257.8c-0.8-0.6-1.8-1-2-1.6c-0.2-0.6,0.4-1.7,1-2.1c0.7-0.5,1.7-0.7,2.601-0.6c0.699,0.1,1.899,0.6,2,1.1
	c0.1,0.7-0.5,1.7-1.101,2.2C586.3,257.3,585.3,257.4,584.4,257.8z"/>
<path d="M594.4,266c-0.399-4.4,0.2-5.6,2.9-5.3c1.3,0.2,2.3,1.2,1.7,2.3C598.199,264.8,597,266.6,594.4,266z"/>
<path d="M577.1,267.8c-2.1,0.9-3.3,1.6-4.6,1.9c-0.4,0.1-1.601-1.1-1.5-1.5c0.1-1.5,0.8-3,2.699-2.7
	C574.6,265.7,575.4,266.6,577.1,267.8z"/>
<path d="M608.5,264.5c-1.2,1.2-2,2.5-2.7,2.4c-0.8,0-2.101-1.1-2.3-1.9c-0.101-0.7,1-2.2,1.699-2.4C606,262.5,607,263.5,608.5,264.5
	z"/>
<path d="M706.8,427.799c-3.2,2.301-6.4,2.301-9.7,2c-12.4-1.299-24.7-1.699-37,0.801c-0.9,0.199-2,0.301-2.6,0
	c-1-0.6-2.101-1.6-2.2-2.5c-0.101-0.801,0.899-2.4,1.7-2.6c2.6-0.801,5.3-1.4,8-1.5c13-0.201,25.899,0.299,38.699,2.5
	C704.699,426.6,705.6,427.2,706.8,427.799z"/>
<path d="M708.3,437.7c-0.2,0.5-0.5,1.4-0.7,1.4c-5.2-0.6-10.5-1.301-15.7-2c-0.8-0.1-1.5-0.801-2.7-1.6
	C695.199,433.901,701.4,434.7,708.3,437.7z"/>
<path d="M563.1,425.901c-6,3.1-10-2.5-14.9-0.801c-4.2,1.5-8.6,2.4-13.399,3.6c0-0.5-0.4-1.6-0.101-1.799
	C543.4,420.799,551.9,420.2,563.1,425.901z"/>
<path d="M553.699,435.7c-5.899,1.301-11.8,2.5-18.6,3.9c1.6-4.1,4.7-4.4,7.2-5.199C547.6,432.799,549.9,433.2,553.699,435.7z"/>
<path d="M820.5,258.4c-1.301-1.3-2.801-2-3.2-3.2c-0.601-1.6,1.399-3.3,3.3-3.3c2,0,3.7,1.7,3.1,3.4
	C823.3,256.4,821.8,257.1,820.5,258.4z"/>
<path d="M834.199,232.6c0.5,1.6,1.5,3.3,1.301,4.9c-0.101,1.1-1.801,2-3.2,3.5c-1.101-2.1-1.9-3.6-2.8-5.4
	c1.899-1.1,3.399-1.9,4.899-2.8C834.3,232.8,834.199,232.6,834.199,232.6z"/>
<path d="M803.1,245c1.3,2.4,2.3,3.7,2.7,5.2c0.1,0.6-1.3,2.1-2.101,2.2c-1.8,0.3-3.5-1.4-3.3-3.3C800.6,248.1,801.8,247,803.1,245z"
	/>
<path d="M809.199,241.7c-2.5-0.3-4.8-2.3-4.8-3.9c0-1.1,2-2.5,3.3-2.3c2.301,0.3,4,2.3,3.4,4.1
	C810.699,240.4,809.699,241.1,809.199,241.7z"/>
<path d="M817.699,230.9c-1.399,1.1-2.199,2.1-3.1,2.2c-1.6,0.3-3-0.7-3-2.3c0-0.8,1.4-2.3,2.1-2.2
	C814.9,228.7,815.9,229.8,817.699,230.9z"/>
<path d="M825.9,242.5c-1.399,1.4-2.1,2.5-3,2.9c-1.399,0.6-3.2-0.8-3-2.3c0.101-0.7,0.9-2,1.4-2
	C822.6,241.2,823.8,241.8,825.9,242.5z"/>
<path d="M841.3,248.9c-1.3,1.1-1.9,2.1-2.9,2.5c-1.3,0.5-3-1.3-2.4-2.7c0.4-0.9,1.5-1.9,2.4-2C839.199,246.7,840,247.9,841.3,248.9z
	"/>
<path d="M796.3,230.6c-0.601,0.3-1.4,1.1-2.3,1.3c-1.5,0.3-3-1.3-2.5-2.6c0.199-0.6,1.1-1.4,1.8-1.5
	C794.8,227.5,796.199,228.6,796.3,230.6z"/>
<path d="M868,408.1c3.399-3.4,4.199-3.5,6-1.199c0.399,0.6,0.5,1.6,0.399,2.398c-0.1,0.301-1.1,0.9-1.5,0.801
	C871.3,409.5,869.8,408.799,868,408.1z"/>
<path d="M914.3,404.799c0.899,2.201,1.6,3.602,1.899,5.102c0,0.199-1.8,1.199-2.699,1.1c-1.7-0.201-2.4-1.701-1.9-3.201
	C911.9,406.799,913,406.2,914.3,404.799z"/>
<path d="M892.1,413.401c1.8-5.602,2.1-5.602,5.8-1.701C896.9,414.2,895.1,414.401,892.1,413.401z"/>
<path d="M883.3,397.901c-3.2-0.701-4.8-0.801-6.2-1.501c-0.4-0.2,0-2.101,0.3-3.2c0-0.199,1.7-0.199,2.2,0.2
	C880.6,394.299,881.4,395.5,883.3,397.901z"/>
<path d="M888,423.401c-0.301,0.398-0.601,1.398-1.2,1.6c-2,0.699-4.5-1.6-4-3.6c0.2-0.701,1.1-1.4,1.8-1.602
	C886.8,419.401,887.8,420.5,888,423.401z"/>
<path d="M853.699,395c1.101,1.899,2,3.299,2.7,4.799c0.101,0.102-0.7,1-1.2,1c-1.699,0.102-3.5-1.6-3.5-3.299
	C851.699,396.799,852.6,396.2,853.699,395z"/>
<path d="M904.1,400.299c-1.7,1-2.6,1.801-3.5,1.9c-1.5,0.1-2-1.199-1.7-2.4c0.1-0.6,1.2-1.6,1.7-1.5
	C901.5,398.5,902.4,399.299,904.1,400.299z"/>
<path d="M910.4,421.299c-1,1-1.399,1.801-2.1,2.102c-1.7,0.6-3.601-0.301-3.3-1.5c0.199-0.9,1.3-2,2.199-2.201
	C908,419.6,909,420.6,910.4,421.299z"/>
<path d="M147.9,284.4c2.601,1.9,4,2.9,5.101,3.7c-0.3,2.4-0.5,2.5-6.5,2.2C146.9,288.7,147.3,287.2,147.9,284.4z"/>
<path d="M143.2,274.1c1.399,1.4,2.8,2.2,3.1,3.3c0.4,1.5-0.6,2.9-2.4,3.2c-1.699,0.3-3.3-1.5-2.899-3.6
	C141.1,276.2,142.2,275.4,143.2,274.1z"/>
<path d="M135.8,277.5c-1.1,1.3-1.6,2.4-2.5,2.9c-1.3,0.7-3.2-0.4-3.5-1.8c-0.2-1.2,1.4-3.2,2.6-2.9
	C133.5,275.8,134.4,276.7,135.8,277.5z"/>
<path d="M130.4,293.9c-1.199-0.5-2.1-0.7-2.699-1.3c-0.5-0.5-0.9-1.6-0.801-2.2c0.2-0.7,1.101-1.4,1.801-1.5
	c0.699-0.1,1.699,0.2,2.399,0.7c0.601,0.4,1.4,1.5,1.2,1.9C132,292.5,131.1,293.1,130.4,293.9z"/>
<path d="M153.4,272.6c1.301,1.6,2.2,2.3,2.5,3.3c0.5,1.7-0.699,3.3-2.199,3c-1-0.2-2.4-1.3-2.4-2
	C151.3,275.7,152.4,274.6,153.4,272.6z"/>
<path d="M109.9,291.4c-0.899-0.2-1.699-0.2-2.1-0.5c-0.6-0.5-1.4-1.4-1.3-2c0.1-0.7,1-1.5,1.8-1.7c0.7-0.2,1.9,0,2.4,0.5
	c0.6,0.5,1,1.6,0.8,2.3C111.4,290.6,110.4,291,109.9,291.4z"/>
<path d="M121.2,280.7c-0.5,0.3-0.9,1-1.4,1c-1.6,0.1-3-0.4-3.4-2.2c-0.1-0.4,0.7-1.4,0.9-1.4c1.3,0.5,2.6,1.1,3.9,1.7
	C121.3,279.9,121.2,280.5,121.2,280.7z"/>
<path d="M144.2,298.5c-0.801,0.3-1.7,1-2.4,0.7c-0.9-0.3-1.7-1.2-2.4-2c-0.1-0.1,0.5-1.2,1-1.3c1.5-0.4,3-0.4,3.7,1.5
	C144.1,297.7,144.1,298,144.2,298.5z"/>
<path d="M336.699,209c-3.3,0.3-5.199,0.5-7.1,0.7c-1.1-3.2,0.4-4.7,2.6-5.1C334.3,204.1,335,206.1,336.699,209z"/>
<path d="M344,202.2c0.8-1.9,1-3.1,1.699-4.1c1-1.4,2.7-1.5,3.9-0.7c0.8,0.5,1.4,2.1,1.2,3c-0.2,0.8-1.4,1.8-2.3,2
	C347.4,202.7,346.199,202.3,344,202.2z"/>
<path d="M379.699,228.7c-0.399,0.4-0.699,1.1-1.1,1.3c-3,1.3-5,1.1-5.3-0.5c-0.101-0.7,0.399-1.7,0.899-2.1
	C376.5,225.6,377.1,225.7,379.699,228.7z"/>
<path d="M353.3,210.5c-0.3,2.5-1.601,3.3-3.2,2.9c-1-0.2-2.2-1-2.5-1.9c-0.601-1.5,1.6-3.9,3-3.4
	C351.8,208.5,352.6,209.8,353.3,210.5z"/>
<path d="M379.4,212.5c0.7-0.3,1.4-1,2.2-1c1.7-0.2,3,0.7,3.1,2.3c0.101,0.8-0.899,2.2-1.699,2.5c-1.601,0.7-2.801-0.4-3.301-1.9
	C379.5,213.8,379.5,213.2,379.4,212.5z"/>
<path d="M368.8,204.6c-0.5,0.6-1.101,1.8-2,2.2c-1.7,0.7-2.8-0.3-3.3-1.9c-0.4-1.3,0.199-2.4,1.6-2.7
	C366.6,201.9,368,202.3,368.8,204.6z"/>
<path d="M363.8,219.6c0.399,2.4-0.601,2.9-1.9,2.9s-2.7-0.5-2.399-2c0.199-0.9,1.399-2,2.3-2.2C362.4,218.1,363.4,219.3,363.8,219.6
	z"/>
<path d="M348.1,228.8c-1.9,0.5-3,1.2-3.8,1c-1.5-0.3-2.7-1.4-2-3.1c0.3-0.7,2-1.6,2.5-1.4C345.9,225.9,346.6,227.2,348.1,228.8z"/>
<path d="M100,515.2c-0.7,0.301-2,1.201-2.601,0.801c-1.3-0.6-2.3-1.9-3.199-3c-0.801-1-1-2.301,0.399-3.1c0.7-0.4,1.8-0.701,2.5-0.4
	C99.1,510.1,100.3,512.401,100,515.2z"/>
<path d="M69.2,512.2c-0.5,0.6-0.7,1.4-1.2,1.5c-0.8,0.201-1.9,0.4-2.601,0C64.2,513,63.2,512,62.4,510.901
	c-0.199-0.301,0.5-1.701,1.101-2.102C65.4,507.5,66.9,508.6,68.1,510C68.7,510.6,68.9,511.6,69.2,512.2z"/>
<path d="M106.4,515.901c2.4-2.4,3.2-3.5,4.4-4.201c0.5-0.299,1.9,0.1,2.3,0.6c0.7,0.801,1.2,1.9,1.2,3c0,0.4-1.2,1.301-1.9,1.301
	C111.1,516.7,109.7,516.401,106.4,515.901z"/>
<path d="M89.1,521.799c-3.8,0.801-5.7,1.201-8,1.602C82.8,518.799,82.8,518.799,89.1,521.799z"/>
<path d="M82.1,505.299c2.2-3.799,3.3-4.199,5.4-2.699c0.399,0.301,0.6,1,0.6,1.5c-0.1,0.5-0.6,1.301-0.899,1.301
	C85.7,505.5,84.1,505.299,82.1,505.299z"/>
<path d="M104.6,525.299c-2.3,0.4-4.2,0.701-6.399,1C100.5,521.5,100.7,521.401,104.6,525.299z"/>
<path d="M111.4,502.799c-3,0.9-4.199,1.5-5.399,1.602c-0.601,0-1.601-1.102-1.601-1.602c0-0.6,1-1.699,1.601-1.699
	C107.1,501.2,108.4,501.799,111.4,502.799z"/>
<path d="M393.3,409.901c0-1.801,0-3.701,0-5.5c2.5,0,4.399,0.699,4.2,2.898C397.3,409.1,395.9,410.401,393.3,409.901z"/>
<path d="M435,401.5c-0.7-1.301-1.5-2.1-1.4-2.701c0.3-1.699,2.4-2.899,4.1-2.5c0.601,0.201,1.4,1.701,1.4,1.801
	C437.9,399.299,436.6,400.299,435,401.5z"/>
<path d="M394.199,382.799c0,0.301,0,0.801-0.1,0.801c-1.3,0.5-2.6,1.199-3.9,1.1c-0.8-0.1-1.5-1.5-2-2.4
	c-0.1-0.199,0.4-1.199,0.801-1.399C390.9,380,393.6,381,394.199,382.799z"/>
<path d="M386.4,389.2c0.9,1.9,2,3.9-1,4.801c-0.7,0.199-2.5-0.801-2.6-1.4C382.699,390.299,383.6,388.7,386.4,389.2z"/>
<path d="M426.199,374.7c-2,1.1-3.199,2-4.399,2.301c-0.4,0.1-1.7-1.801-1.601-2.5c0.2-0.801,1.5-1.801,2.4-1.9
	S424.5,373.6,426.199,374.7z"/>
<path d="M406.199,385.7c-0.8-1.9-1.6-2.8-1.5-3.699c0-1.5,2.101-2.701,3.2-2c0.601,0.399,1.4,1.6,1.2,2
	C408.6,383.1,407.6,384,406.199,385.7z"/>
<path d="M422.3,387.9c0.899-0.7,1.1-1,1.3-1.101c1.5-0.699,2.8-2.5,4.6-1c0.3,0.301,0.5,1.101,0.3,1.5
	C427.5,389.4,426.1,389.6,422.3,387.9z"/>
<path d="M413.3,403.1c0.2-2.801,1.6-3.801,3.6-3.301c0.9,0.201,1.601,1.5,2.101,2.4c0.1,0.1-1.101,1.5-1.7,1.5
	C416,403.799,414.699,403.299,413.3,403.1z"/>
<path d="M408.9,397.5c-1.6,0-3.3,0-4.8,0c-0.8-2.701,0.4-4.301,2.4-4.201C408.3,393.299,409.5,394.9,408.9,397.5z"/>
</svg>
