<?xml version="1.0" encoding="utf-8"?>
<!DOCTYPE svg PUBLIC "-//W3C//DTD SVG 1.1//EN" "http://www.w3.org/Graphics/SVG/1.1/DTD/svg11.dtd">
<svg artist="zl2017" version="1.1" id="zlIcon-fly-right" xmlns="http://www.w3.org/2000/svg" xmlns:xlink="http://www.w3.org/1999/xlink" x="0px" y="0px"
	 width="1000px" height="1237.2px" viewBox="0 0 1000 1237.2" enable-background="new 0 0 1000 1237.2" xml:space="preserve">
<path fill-rule="evenodd" clip-rule="evenodd" d="M849.6,469.1c8.7,4,17.1,9.3,26.2,11.6c22.7,5.7,38.6,21.4,55,35.9
	c5.8,5.2,10.4,13.4,12.4,21c19.4,75.8-20.4,138.4-84.9,157.2c-17.1,5-27.5,17.7-40.1,27.1c-20.3,15-42.3,26.3-63.7,38.9
	c-8.5,5-17.4,9.1-27.6,6c-7.5-2.3-12.8,0.4-18.8,4.8c-3.9,2.8-10.9,4.1-15.5,2.7c-33-9.9-68.1-14-96.8-35.7
	c-4.4-3.3-10.3-5.3-13.6-9.5c-11.5-14.4-26.4-23.6-42.6-31.9c-9.6-4.9-17.3-13.5-25.4-20.1c-74.1,14-93.4,30.2-122.1,72.2
	c40.6,46.4,78.1,96.2,97.7,155.7c16.2,49.2,38.5,97.5,36.8,150.6c-9.6,6.6-14.6,0.5-17.2-5.3c-3.3-7.4-5.5-15.8-5.7-23.8
	c-0.4-17-5.7-32-12.3-47.4c-7.5-17.3-11.2-36.3-19-53.5c-8.4-18.6-18.3-36.9-29.8-53.7c-15.6-22.9-32.9-44.6-50.3-66.2
	c-4.9-6.1-12.4-10.2-19.4-15.7c-8.1,11.9-15,22-21.7,31.8c12.4,27.3,24.8,53.2,36.1,79.6c15.8,37,23.1,76.5,29.2,115.9
	c3.3,21.7,5.6,43.3,11.4,64.6c3.6,13,3.8,27.2,3.8,40.8c0,4.2-5.9,8.3-9,12.4c-12.6-6.2-10.3-17.5-11.2-25.7
	c-5.7-52.6-28.8-100.5-40.4-151.5c-5.8-25.2-16.8-50.1-39.6-65.9c-22.7,3-19.2,30.9-38.3,34.6c4.7,33.7,13.2,63.8,22.9,94
	c18.5,57.3,19.2,117.1,16.7,176.7c-0.5,10.7-4.4,21.8-9.3,31.4c-2.1,4.1-10.8,5-18.8,8.3c-1.9-11.3-4.3-19.2-4.4-27.2
	c-0.3-43.9-3.9-87.6-8.5-131.2c-1.6-15.1-3.3-30.5-8.1-44.8c-9.6-28.6-21.5-56.5-32.5-85c-15.2-0.3-26.4,6.4-38.4,7.3
	c-12.2,0.9-24.6-1.4-37-2.3c-55.4-4.2-101.1-30.3-138.2-68.9c-23.9-24.9-38.4-57.9-37.1-94.2c0.8-23.3,5.1-46.5,7.9-69.7
	c0.2-1.3,0.4-2.9,1.2-3.9c35.7-44.3,60.6-99.1,123-116.3c29.3-8.1,38.4-25.9,37.7-56.8c-0.7-30.6-7.3-60.7-18.1-88.7
	c-17.4-45.1-37-89.5-64.5-130C64.9,291.9,53.1,252.7,45,213.8c-6.1-29.4-0.3-61.2,12.9-88.8C94.7,47.5,155.2,2.8,242.9,0.1
	c27.9-0.8,55.2,2.4,80.5,16.4c21.7,11.9,44.8,21.5,66.8,32.9c9.8,5,18.5,4.5,27.5-0.7c8.3-4.9,16.4-10.2,24.9-14.6
	c43.7-22.4,84.9-21,122.2,13.7c24.5,7.6,31.7,28.2,37.6,49.8c2.9,10.7,4.9,21.9,9.5,31.9c14.3,30.8,10.6,61.9,2.9,93
	c-16.7,67.4-49.9,124.9-100.5,173.1c-18.1,17.3-36.4,33.7-55.9,49.2c-33.2,26.4-50.6,61.5-51,104.4c-0.1,6.9,1.8,14.5-0.4,20.6
	c-2.1,5.5-8,12.5-13.1,13.3c-5.4,0.9-14.2-3.1-17.4-7.7c-6-8.8-9-19.7-13.6-30.3c11.4-33.9,19.9-69.2,45.4-96.6
	c3.8-4,6.9-8.9,11.3-12.2c34.7-26,60-61.2,90.1-91.7c33.9-34.3,53.8-77.3,63-124.1c4.1-21,1.6-43.6-0.2-65.3
	c-1.6-19.2-6.4-38.2-9.8-56.8c-35.5-28.9-49.5-28.4-92.6,4.5c-4.7,27.2,0.3,55.6,2.6,84c0.4,5.4,2.2,11.7,0.2,16.1
	c-19,42.8-20,91-45.6,132.5c-22.4,36.3-42.5,73.8-72.8,104.3c-15.9,16.1-27.4,34.1-35.5,55.4c-5.8,15.2-5.1,29.4-1.6,44.2
	c2.2,9.4,5.1,18.9,9.3,27.5c2.8,5.8,7.5,12.8,13,14.8c41.4,15.4,83.1,30.1,125,44.2c7.5,2.5,16.2,1.7,26.6,2.6
	c3.5-15.4,5.5-30.3,10.4-44.2c5-14.3,13.2-27.4,19.3-41.4c5.7-13.2,13.7-25,26.2-31.4c35.5-18.1,65.5-47.6,106.6-50.9
	c26.5-60.7,17.7-183.3-16.5-242c0.4-7.3,6.9-8.9,11.6-8.8c4.9,0.1,11,2.7,14.2,6.3c14.3,16.1,20.2,36.3,23.3,57
	c2.6,17.4,4.6,35.3,3.8,52.9c-1.7,41.3-5.2,82.6-8,124.1c28.1,15.5,58.9,5.5,86.1,16.4c26.6,10.6,55.1,2.1,82.6,3.9L849.6,469.1z
	 M266.1,569.4c8.6-15.7,12.2-29.7,11.5-45.6c-0.4-10.7-0.1-24,5.6-32.1c23.9-33.8,40.3-72.2,68.3-103.8c25.3-28.5,49.1-58.5,59.6-98
	c6.4-24.1,7.8-49.6,16.5-71.9c9.9-25.5,5.2-48.1,1.3-72.3c-2.1-12.9-9.2-21.5-17.1-31.7c-22.8-29.1-55.5-41-87.4-53
	c-15.4-5.8-31.3-8.8-45.3-18.8c-6.2-4.4-15-6.3-22.8-6.9c-36.4-2.9-67.2,12.9-96.4,31.9c-56.5,36.6-79.3,95.6-63.5,162.1
	c9.4,39.7,18.9,81,46.3,114.4c7,8.5,12.5,18.2,18.1,27.7c8.4,14.3,19.5,28,23.8,43.6c13.7,49,32.3,97.5,26.6,150
	c-0.3,2.3,2,4.9,3.6,8.5c7.7-1.3,15.6-3.3,23.6-3.9C247.8,568.9,257.4,569.4,266.1,569.4z M629.9,516.3c-25-2-47.2,5.7-67.1,19.2
	c-50.2,34.4-47.5,103.4-14.4,138.1c3.7,3.9,8.4,7.7,13.3,9.7c28.2,11.9,57.4,20.8,88.5,19.4c30.3-1.4,49.2-17.5,59.4-47.8
	c4.4-13,8.6-26.4,15.5-38.1c10.9-18.4,13.4-36.5,2.9-55c-10.9-19.2-22.1-38-49.1-38.4C662.5,523.2,646.2,518.8,629.9,516.3z
	 M826.9,677.6c5.4-1.9,10.5-4.9,15.7-5.1c27.6-1.2,45.7-18.7,61.7-37.5c15.7-18.6,18.7-41.5,16.5-65.8
	c-2.7-30.1-31.5-63.3-62.7-66.8c-42.2-4.8-82,1.8-115.5,29.9c1,4,0.9,7,2.4,9.2c14.7,22.1,19.8,44.5,8.1,70.2
	c-4.2,9.2-2.1,21.2-3,33.9C776,656.3,801.3,666.9,826.9,677.6z"/>
<path fill-rule="evenodd" clip-rule="evenodd" d="M850.9,470.2c-8.3-37.4,10.8-68.3,30.4-94.9c23.5-31.9,47.7-64.4,78.5-90.5
	c9.4-7.9,19.9-14.5,30.4-20.8c1.7-1,6.3,3,9.2,4.4c-0.6,10.8-8,15.6-14.2,20.4c-32.1,24.8-57.6,56.3-82.3,87.5
	c-15.6,19.6-32.3,41.2-34.3,68.9c-0.8,11.9-5.9,21.4-19.1,23.8C849.6,469.1,850.9,470.2,850.9,470.2z"/>
<path fill-rule="evenodd" clip-rule="evenodd" fill="#FFFFFF" d="M266.1,569.4c-8.7,0-18.3-0.5-27.7,0.2c-8,0.6-15.9,2.6-23.6,3.9
	c-1.6-3.6-3.9-6.2-3.6-8.5c5.6-52.6-13-101-26.6-150c-4.3-15.5-15.4-29.2-23.8-43.6c-5.6-9.5-11.1-19.3-18.1-27.7
	c-27.4-33.3-36.9-74.7-46.3-114.4c-15.8-66.5,7.1-125.5,63.5-162.1c29.3-19,60-34.8,96.4-31.9c7.8,0.6,16.7,2.5,22.8,6.9
	c13.9,10,29.9,13,45.3,18.8c31.9,12,64.6,23.9,87.4,53c7.9,10.1,15,18.8,17.1,31.7c3.9,24.2,8.6,46.8-1.3,72.3
	c-8.7,22.4-10.1,47.9-16.5,71.9c-10.6,39.5-34.4,69.5-59.6,98c-28,31.6-44.4,70-68.3,103.8c-5.7,8.1-6,21.4-5.6,32.1
	C278.3,539.7,274.8,553.8,266.1,569.4z M232.7,298.7c-49,24.2-49,24.2-62.4,46.8c10.7,10.4,20.4,3.6,29.7-2.2
	c9.1-5.7,15.7-16.4,31.6-12.7c0.4,14,0.4,28.9,1.7,43.6c0.2,2.2,6.1,4.5,9.7,5.3c1.7,0.4,5.9-2.8,5.9-4.3c0.1-12.4-0.4-24.8-1-37.1
	c-1.4-28.3,2.9-33.3,36.9-42.1c11.9,21-12.6,48.6,12.7,70.1c11.7-30.8,8.3-61.8,13.3-90.8c18.9-10.6,40.4-12.4,56-29.1
	c-17.8-12.2-36.3,6-53.7-5.2c0-16.3,0-33.6,0-51c4.9-8.8,20.6-6.5,21.6-20.7c-8.7-1.8-16.4-3.3-21.4-4.4
	c-9-23.1-16.6-43.7-25.5-63.8c-1.3-2.9-9-4.4-13.6-4c-2.1,0.2-5.8,7.1-5,9.9c5.5,21.2,12,42.1,17.9,62.2
	c-9.5,11.3-17.8,20-34.2,14.3c-9.4-29-11.8-63.7-49-77c-3.3,3-7.2,6.4-13.3,11.9c29.9,21.2,33.9,52.9,42.2,81.9
	c-12,13.7-24,21.6-39,27c-11.2,4-21.1,12.5-30.5,20.2c-7.1,5.8-4.5,11.7,7.9,21.4c14-8.8,27.8-17.8,42.1-26.1c5.2-3,11.5-4.3,19.3-7
	C232.7,258.4,232.7,277.7,232.7,298.7z"/>
<path fill-rule="evenodd" clip-rule="evenodd" fill="#FFFFFF" d="M629.9,516.3c16.3,2.5,32.7,6.9,49,7.2c27,0.4,38.2,19.2,49.1,38.4
	c10.5,18.5,8,36.6-2.9,55c-6.9,11.7-11.2,25.1-15.5,38.1c-10.2,30.3-29,46.5-59.4,47.8c-31.1,1.4-60.2-7.5-88.5-19.4
	c-5-2.1-9.6-5.8-13.3-9.7c-33.1-34.7-35.8-103.7,14.4-138.1C582.6,522,604.8,514.3,629.9,516.3z M612,603c4,8.9,7.2,17.5,11.9,25.2
	c1.3,2.2,7.8,2.7,11.2,1.7c6.2-1.7,13.4-3.6,17.7-8c6.8-6.9,9.5-16.1,4.4-26.5C642.4,583.7,628.3,582.9,612,603z"/>
<path fill-rule="evenodd" clip-rule="evenodd" fill="#FFFFFF" d="M826.9,677.6c-25.7-10.7-50.9-21.3-76.9-32.1
	c0.9-12.7-1.2-24.7,3-33.9c11.7-25.7,6.6-48.2-8.1-70.2c-1.4-2.1-1.4-5.2-2.4-9.2c33.6-28.1,73.4-34.6,115.5-29.9
	c31.2,3.5,60,36.7,62.7,66.8c2.2,24.3-0.8,47.3-16.5,65.8c-16,18.9-34.1,36.3-61.7,37.5C837.4,672.7,832.4,675.7,826.9,677.6z
	 M802.7,609.3c13-6,24.2-10.1,34.2-16.2c7.7-4.7,5.7-19.8-2.4-24.4c-14-7.9-27.7-9.5-42.7,3C795.2,583.7,798.5,594.9,802.7,609.3z"
	/>
<path fill-rule="evenodd" clip-rule="evenodd" d="M232.7,298.7c0-21,0-40.3,0-62.8c-7.8,2.7-14.1,3.9-19.3,7
	c-14.3,8.3-28.1,17.3-42.1,26.1c-12.4-9.6-15-15.6-7.9-21.4c9.5-7.7,19.3-16.2,30.5-20.2c15-5.4,27-13.3,39-27
	c-8.3-29-12.3-60.7-42.2-81.9c6.1-5.4,9.9-8.9,13.3-11.9c37.2,13.4,39.6,48,49,77c16.5,5.7,24.8-3.1,34.2-14.3
	c-5.9-20.1-12.4-41-17.9-62.2c-0.8-2.9,2.9-9.8,5-9.9c4.6-0.4,12.3,1,13.6,4c8.9,20,16.5,40.7,25.5,63.8c5,1,12.6,2.6,21.4,4.4
	c-1,14.2-16.8,11.9-21.6,20.7c0,17.4,0,34.7,0,51c17.4,11.2,35.9-7,53.7,5.2c-15.6,16.8-37.1,18.6-56,29.1c-5,29-1.6,60-13.3,90.8
	c-25.3-21.6-0.8-49.1-12.7-70.1c-34,8.9-38.3,13.9-36.9,42.1c0.6,12.3,1.1,24.7,1,37.1c0,1.6-4.2,4.7-5.9,4.3
	c-3.6-0.8-9.6-3.2-9.7-5.3c-1.3-14.7-1.3-29.6-1.7-43.6c-15.9-3.7-22.5,6.9-31.6,12.7c-9.3,5.8-19,12.6-29.7,2.2
	C183.7,322.8,183.7,322.8,232.7,298.7z M253.2,275.7c43.7-17.7,43.8-17.7,39.2-60.1c-0.7-6,3-13.8-5.6-17.5
	c-10.8,5.8-21.3,11.5-33.6,18.1C253.2,234.3,253.2,253.4,253.2,275.7z"/>
<path fill-rule="evenodd" clip-rule="evenodd" d="M612,603c16.3-20.1,30.5-19.3,45.2-7.5c5.2,10.4,2.4,19.6-4.4,26.5
	c-4.3,4.3-11.5,6.3-17.7,8c-3.5,0.9-9.9,0.4-11.2-1.7C619.1,620.5,616,611.9,612,603z"/>
<path fill-rule="evenodd" clip-rule="evenodd" d="M802.7,609.3c-4.2-14.4-7.5-25.6-10.9-37.5c15-12.5,28.7-10.9,42.7-3
	c8.2,4.6,10.2,19.6,2.4,24.4C826.9,599.2,815.7,603.3,802.7,609.3z"/>
<path fill-rule="evenodd" clip-rule="evenodd" fill="#FFFFFF" d="M253.2,275.7c0-22.3,0-41.4,0-59.6c12.3-6.6,22.8-12.3,33.6-18.1
	c8.6,3.8,4.9,11.5,5.6,17.5C297,258,296.9,258,253.2,275.7z"/>
</svg>
