<?xml version="1.0" encoding="utf-8"?>
<!DOCTYPE svg PUBLIC "-//W3C//DTD SVG 1.1//EN" "http://www.w3.org/Graphics/SVG/1.1/DTD/svg11.dtd">
<svg artist="zl2017" version="1.1" id="zlIcon-fox-important" xmlns="http://www.w3.org/2000/svg" xmlns:xlink="http://www.w3.org/1999/xlink" x="0px" y="0px"
	 width="1000px" height="614.6px" viewBox="0 0 1000 614.6" enable-background="new 0 0 1000 614.6" xml:space="preserve">
<path fill-rule="evenodd" clip-rule="evenodd" fill="#FFFFFF" d="M767.1,179.7l-1.3-1.1c3-9.2,9-16.2,15.7-22.9
	c3.1-3.1,7.1-5.9,8.5-11c-4.9-3.5-9.4-1.6-13.9-1.2c-11.6,1.1-23.3,3.4-33.9-3.9c-8.3,3.4-16.5,6.3-23.4,12.4
	c-4.3,3.8-9.8,6.7-15.2,8.9c-19.1,8-32.7,22-44.1,38.2c1.9,7.5,8,9,13,12c20.5,12.5,42.7,22.9,56.2,44.3c1.2,1.9,3.3,3.4,4.9,5.1
	c21.3,22.8,34.6,50.1,43.5,79.7c0.7,2.4,1.6,5.7-2,7.1c-0.8-0.3-1.6-0.3-1.8-0.7c-4.6-8.2-10.2-16-13.5-24.7
	c-9.5-25.2-25.3-46.2-43-65.9c-6.6-7.4-13.3-15.3-21.5-20.6c-14.3-9.2-29.9-16.4-44.6-24.9c-24.4-14.2-40-34.2-40.2-63.8
	c0-5.2,0-10.5,0-16c-3.8-1.2-6.8-2.1-9.9-3c0.9-7.7,4.7-13.3,9.5-18.6c4.3-4.8,8-10.2,12.8-14.5c5.2-4.7,11.2-8.5,17.1-12.4
	c5.6-3.8,11.5-7.2,19.4-12.1c-15.6-4.2-27.8,0.9-40,3.1c-12.7,2.2-25.2,5.4-37.9,7.9c-12.6,2.5-23.1,11.7-36,12.4
	c-3.3-3.4-4.1-7.1-0.4-9.4c4.9-3.1,10.2-5.6,15.7-7.6c6.6-2.5,13.4-4.1,20.1-6.2c4.9-1.5,7.7-4.8,8.8-10
	c2.9-12.6,10.2-22.2,20.1-30.2c4.7-3.8,8.8-8.3,15.6-15c-6.4,1-9.3,1.2-12,2c-19.1,5.8-38.7,10.4-57.1,17.9
	c-18.1,7.4-37.8,13.2-50.5,31.1c8.2,4.6,16.6,9.4,25.6,14.4c-1.8,3.9-3.2,6.9-4.6,9.9c-7.7-0.4-12.9-4.6-18.6-7.4
	c-10.9-5.3-21.8-7.8-34-4.6c-9.1,2.4-18,4.9-26.7,8.6c-27,11.6-54.2,22.7-84,25c-9.3,0.7-18.6,2.4-27.9,3.6
	c-7.5,1-15.2,1.5-22.5,3.1c-10.3,2.2-20.4,5-30.5,7.9c-2.6,0.8-5.2,2.9-7,5c-3.4,4-6.2,8.5-9.2,12.8c-2.5,3.5-5.2,6.1-10.2,5
	c-2.6-0.5-5.8-0.3-8.2,0.8c-6.4,2.8-12.5,6.3-18.9,9.6c1.3,6.1,6.9,10.2,4,16.9c-1.4,3.4,1.8,6.6,5.5,7.7c4,1.1,8.1,1.7,12.1,2.4
	c27,4.7,50.6,17.8,74.6,30.1c2.6,1.3,6.1,2.4,7.4,4.6c6.4,10.9,16.9,15.9,27.5,21.2c6.3,3.1,6.7,4.2,9.6,15.9
	c-15.2-8.7-29.3-16.9-43.6-25.2c-1.1,1.3-2.8,2.5-3,4c-2.1,13.1-11.8,19.9-21.7,26.2c-5.4,3.4-11.5,6-17.5,8.2
	c-20.4,7.4-40.8,14.9-61.5,21.6c-24.1,7.8-47.2,17.3-69.2,30.3c-13.9,8.2-25.3,18.7-37.3,28.9c-13,11.1-15.4,27.3-20.1,42.2
	c-7.7,24.3,0.9,48.8,21.3,64c3.3,2.5,6.9,4.6,9.9,7.3c20.7,18.9,45.5,31,70.8,42.2c3.6,1.6,7.9,2.4,11.7,2.1
	c6.4-0.5,12.8-1.6,18.9-3.6c5.5-1.7,10.2-1.4,15.3,0.9c12.5,5.6,25,4.7,37.6-0.5c36-15,69.8-34,102.2-55.6
	c4.8-3.3,9.1-7.5,13.3-11.6c0.7-0.7-0.3-3.2-0.5-4.7c1,0.6,2.1,1.7,3,1.6c8-1.3,12.2-5.3,16.8-16.4c-2.9,1.7-4.9,2.5-6.5,3.8
	c-4.5,3.6-8.8,7.5-13.1,11.2c-7.8,8.4-18.9,6.2-28.3,7.5c-7.5,1-15.9-3-23.6-5.7c-5.6-1.9-10.2-5.8-12.3-12.4
	c1.5-3.4,3.1-7,4.7-10.6c-10.6-10.8-22.2-20.4-22.5-35.7c3.8-17.2,18.4-15,28.7-17.5c2.5-6.5,4-12.3,6.8-17.3
	c4.9-8.9,12.3-13.2,23-13.4c14.6-0.2,25.3,6.5,32.7,17.5c5.7,8.5,13.7,12.4,21.9,16.6c3.3,1.7,8,1.5,11.9,1.1
	c8.5-1,11.3-4.1,12.1-12.3c0.4-4.1-0.5-8.5,0.6-12.3c6.3-21,0.7-40.4-7-59.8c-4.5-11.2-12.2-20.1-19.5-29.2
	c-20-25.3-44.1-45.5-74.9-56.7c-6-2.2-12.3-3.9-18.2-6.5c-14.4-6.5-28.8-13-44.5-16.1c-5.1-1-10.1-2.9-15.1-4.7c-4.3-1.6-8-4-9-9.1
	c10.3-2.9,19.1,0.8,28.1,3.6c9,2.8,17.7,7.6,26.9,8.4c15.9,1.4,29.3,8.1,42.7,15.5c14.4,7.9,28.1,17.2,42.7,24.6
	c15.8,8,28.1,19.5,37.2,34.1c6.8,10.9,12.2,22.8,17.6,34.5c8.6,18.7,16.1,37.7,16.8,58.8c0.2,6.7,3.1,13.3,4.8,20.2
	c2.8-0.4,4.7-0.3,6.2-0.9c11.4-4.8,22.7-9.7,34-14.5c4.4-1.8,8.8-3.1,12,2.2c-20.8,18.4-77.4,36.4-108.9,34.7
	c-10.3-7.7-20.4-15.5-26.9-27.2c-3.9-7-11.1-10.3-18.4-13.1c-5.8-2.1-15.6,0.4-18.9,5.5c-2.8,4.3-4.5,9.2-6.3,13
	c3.6,7.4,12.5,6.2,16,14.3c-15.6-0.1-31.4-8.7-43.2,5.8c2.4,19.8,4.2,21.8,28.8,32.4c-1.9,6.1-10.6,7.8-9.9,16.7
	c13.4,8.3,27.4,14.2,43.1,3.4c3.4-2.3,7-4.3,10.3-6.8c11.9-8.8,24.2-16,39.6-17.3c7-0.6,13.7-2.1,20.9-0.2c4.4,1.2,9.4,1,14,0.9
	c10.7-0.4,21.1,1.5,31.4,3.8c8.6,1.9,17.3,3,25.9,4.7c6.9,1.4,13.7,3.1,20.5,5c1.1,0.3,2.5,2.7,2.3,3.9c-0.2,1.3-2.2,3.3-3.4,3.3
	c-7-0.4-14.2-0.3-20.9-2.2c-19.4-5.3-39.2-6.2-59.1-7.2c-3.2-0.1-6.7,1.5-9.9,2.7c-20,7.5-37.3,19.8-55,31.4
	c-5.9,3.9-11.8,8-18.3,10.6c-7.8,3.1-14.4,7.9-21,12.7c-3.3,2.4-6.6,4.9-9.9,7.3c-15,10.7-32.2,17.1-48.6,24.9
	c-13.3,6.2-27.3,10.9-41.1,15.8c-8,2.8-15.9,3.3-23.4-2.8c-3-2.4-7.4-3.4-11.3-4.4c-12-3-23.6,2.6-29.3,13.8
	c-3.6,7.1-2.9,13.4,2.1,18.9c1.4,0.2,2,0.4,2.5,0.3c3.3-1.2,6.7-2.2,9.7-4c10.3-6.3,21-6.2,31.9-2c1.3,0.5,1.9,3.1,3.8,6.6
	c-6.8,0-11.5-0.3-16.1,0c-14.7,1.1-25.6,13.5-25.7,28.4c-0.1,6.6,2.7,11.8,7.1,15.5c9.3,8,21.3,10.3,32.9,10.5
	c9.1,0.1,18.6-2.8,24.4-11.7c1-4.7-2.8-10.2,2-14.4c7,1.6,4.9,7.8,6.8,11.6c6.1,12.6,14.8,18,27.9,15.7c9.3-1.6,14.3-6.6,15.8-16.2
	c1.1-7.6,2.1-15.1,2.8-22.7c0.8-9,4.9-15.6,13.3-19.2c22.3-9.5,44.7-17.6,69.7-16c13.5,0.8,27.1,0.2,40.7,0.1
	c15.8-0.1,31.6-0.2,47.4-2.5c16.2-2.4,32.8-2.1,49.2-3.3c14-1,28.1-1.9,42.1-3.8c16.8-2.3,33.4-6.6,50.3-8.1
	c14.4-1.3,27.5-5.9,40.7-10.9c12.1-4.6,23.6-10.7,35.8-14.9c35-11.9,65.6-31.6,95-53.4c3.7-2.7,6.8-6.5,9.2-10.5
	c7.1-12.1,14.9-23.8,20.4-37c10.8-26,15.4-52.7,14.1-81.3c-4.3,0.7-8,1.3-12.9,2.1c-0.2-7.5-0.2-13.9-0.6-20.2
	c-0.4-7.3-0.8-7.7-7.3-14.8c-3.5,4.5-7,8.9-10.5,13.4c-4.4-3.7-3.5-6.9-1.4-9.9c5.4-7.7,10.9-15.3,16.4-22.9c1.8-2.6,3.9-4.4,8-1.7
	c0.4,12.2,0.9,24.9,1.4,37.3c5.9,1.5,7.8-1.9,8.7-5.2c1-3.9,0.6-8.2,1.3-12.2c1.1-6.3,1.1-13.5,4.2-18.7
	c9.8-16.1,21.8-30.9,36.9-42.1c17.1-12.7,37-17.4,58.4-12.5c3.2,0.7,6.6,2.4,9-1.6c-7.1-12.9-18.7-20.9-29.3-30.1
	c-11.6-10.2-24.5-17.9-38.8-23.9c-21.3-8.9-43.8-13.3-65.7-19.6c-10.7-3.1-21.7-3.3-33.2-1.6c-15.8,2.4-30.7,7.6-45.9,12
	c-0.7,0.2-1.1,1.7-2,3.1c1.6,0.5,3.2,1.8,4.4,1.4c13.9-4.4,28.1-1.8,42.1-1.9c3.7,0,8.2,1,8.8,7.7c-15.3,7.2-28,18.3-38.3,32
	C770.5,178.2,768.6,178.8,767.1,179.7z"/>
<path fill-rule="evenodd" clip-rule="evenodd" fill="#FFFFFF" d="M148.6,277.8c8.7,4,9.9,10.5,12.3,16.5c2.7,6.8,5.9,8,12.3,5.6
	c15.4-5.7,30.8-11.4,46.2-17.2c2.6-1,6-1,6.6-4.8c-12.7-9.2-25.9-17.8-38-27.7c-18-14.7-31.2-33.1-39.1-55.1
	c-3.8-10.5-7.3-21-13.6-30.4c-4.1-6.1-9.4-10.5-16-13.3c-5.3-2.2-11.1,1.3-11.8,6.9c-1,7.7-0.3,15.5,3.2,22.4
	c3.6,7.3,8.1,14.2,12.4,21.2c2.3,3.8,3.6,7.3,0.9,11.3c-14.8-3.1-18.4-2.4-26,3.2c-9.3,7-7.4,16.2-6.3,25.7
	c5.7,5.3,11.2,10.4,17.3,16.1c-2.3,5.8-4.5,11.8-6.9,17.9c1.9,4.5,1.5,10.2,7.3,13c6,2.9,11.5,0.8,17.1-1c2.2-0.7,4-2.3,6.2-3.3
	C137.8,282.5,143.2,280.2,148.6,277.8z"/>
<path fill-rule="evenodd" clip-rule="evenodd" fill="#FFFFFF" d="M14,418.5c4.8,11.3,9.3,22,14.1,32.6c2.9,6.5,7.2,11.7,13.8,15.3
	c6,3.3,11.6,4.6,18.4,2.8c3.8-1,8.2-0.3,12.2,0.2c1.3,0.1,3.1,1.9,3.4,3.3c0.3,1.4-0.4,3.5-1.5,4.6c-2.5,2.8-7.8,3.5-6.4,10.2
	c8.8,8.5,20.2,4,28.6,4.4c6.3-6,11.2-10.7,16.6-15.9c-1.6-2.3-3.3-5.4-5.6-7.9c-4.4-4.7-9.1-9.2-13.8-13.6
	c-5.7-5.4-9.2-11.6-11.3-19.4c-3.3-12.5-4.9-24.9-2.6-37.2c-4.9-5.2-8.8-10.5-13.8-14.4c-3.5-2.7-8.2-4.3-12.6-5.2
	c-4.7-1-8.9,1.1-12.7,5.7c4.1,2.7,8.1,5,11.6,7.8c2.8,2.3,4.3,5.4,2.2,8.2c-7.9,2.1-14.9,5.1-22,5.7C23.5,406.7,17.7,410.8,14,418.5
	z"/>
<path fill-rule="evenodd" clip-rule="evenodd" d="M220.4,164.6c-9-2.5-16.3-4.9-23.7-6.4c-13.6-2.8-21.3-11.7-25.7-24
	c-4.3-12-4.4-24.1-0.1-36.2c2.3-6.5,6.9-11.2,13.1-13.5c12.7-4.5,25.7-8,39.4-8.4c6.5-0.2,13,0,18.8,3.5c1.5,0.9,3.4,1,5,1.8
	c23.3,12.2,49.1,16.3,74.5,19.8c28.1,3.8,56.5,2.1,83.4-8.5c14.2-5.6,28.1-12,41.8-18.8c12.5-6.1,25.3-9.3,39.2-8.5
	c3.5,0.2,7-0.3,10.9-0.5c5.9-17.2,19.5-25.7,34.9-32.2c26-10.8,52.6-20.4,79.9-27.1c13-3.2,26.6-4.5,39.9-5.6c4.9-0.4,10,2.3,15,3.9
	c0.7,0.2,0.9,2,1.7,4.2c-4.4,2.4-8.8,5-13.4,7.3c-10,5.1-19.4,10.9-27.6,18.8c-7.8,7.6-12.5,16.7-17.1,27.9
	c13.4-1.7,25.6-2.7,37.5-5c12.3-2.4,24.6-2.7,36.9-2.3c12,0.4,24.3-2,35.5,1.6c1.7,4.3-0.5,5.7-2.5,6.7c-2,1.1-4.3,2-6.5,2.2
	C685,67.7,663.5,81.1,642.2,95c-12,7.9-19.3,18.5-17.8,33.8c0.6,5.8,0.5,11.8,0,17.7c-1.3,15.3,5.2,27.2,15.6,38.9
	c21.5-13.4,43.4-25.7,63.9-40.1c20.8-14.6,43.8-22.2,68.3-26.6c5.8-1,11.7-1.3,17.2-3c16.4-4.9,32.6-3,48.7,0.7
	c14.3,3.3,28.9,5.7,42.6,10.7c22,8.1,44,17.1,62.1,32.6c12.7,11,26.6,21,36.2,35.4c2.2,3.3,5.7,6.4,9.2,8
	c8.2,3.7,9.1,11.4,11.3,18.4c0.3,1-1.7,2.6-3.4,5c-2.6-1.7-5.2-2.8-7.1-4.8c-3.5-3.7-7.9-4.9-12.5-5.9c-5.7-1.3-11.3-3.2-17.1-4
	c-18.7-2.5-36.2,2-52.5,11c-2.5,1.4-4.7,3.7-6.2,6.2c-8.1,13-16.1,26.2-18.4,41.6c-3.2,21.4-6.4,42.9-6,64.7
	c0.5,24.3-7.4,46.6-20.1,66.6c-11.6,18.2-23.4,36.8-42.4,49c-2.9,1.9-5.2,4.7-7.6,7.3c-8.9,9.6-18.5,18-31.5,21.7
	c-2.2,0.6-4.3,2-6.3,3.3c-36.5,22.7-76.7,34.9-118.7,41.7c-24.3,3.9-48.6,7.6-72.9,11.4c-1.8,0.3-3.5,0.7-5.2,0.8
	c-21.1,1-42.4,0.5-63.3,3.4c-25.1,3.5-50.5,0.7-75.5,5.9c-13.1,2.7-27,2-40.1,4.7c-12.5,2.6-25.9,1.1-37.7,7.6
	c-3.1,1.7-6.6,2.7-9.4,4.8c-4.2,3.2-7.5,7.1-7.8,13.1c-0.4,6.4-1.6,12.8-3.3,19c-3.4,12.1-11.7,18.2-24.6,18.8
	c-15.3,0.8-17.3,0.1-34.6-11.8c-5.9,6.8-14.2,9.4-22.8,11.1c-1.1,0.2-2.3,0.7-3.5,0.5c-12.1-1.7-24.3-3.4-36.4-5.5
	c-2.8-0.5-5.6-2.1-8-3.8c-9.5-6.6-15.9-15.2-12.4-28.4c1.5-5.6,4-11,6.5-17.7c-8.7-11.5-14.6-24.5-3.2-38.8
	c-11.5-4.1-21.6-6.9-31-11.3c-9-4.2-17.2-10-25.3-14.8c-16.7,4.5-32.5,8.9-48.2,13.1c-12.8,3.5-24.5-0.6-35.8-5.6
	c-2.8-1.2-5-4.8-6.2-7.9c-1.3-3.1-1-6.9-1.4-11c-3.4-2.1-6.7-4.5-10.3-6.3c-13.1-6.6-21.7-18-30.6-28.8c-10-12.2-7.4-38.4,4.3-48.6
	c5.6-4.9,8.3-11.3,12.6-16.8c2.9-3.7,4.8-8.1,7.6-11.8c8.1-11,18.8-13.1,31.3-9.1c8.4,2.7,16.8,5.5,26,8.6c2.4-3.9,4.8-7.8,7.1-11.7
	c4.9-8,9.6-16.2,14.9-23.9c1.9-2.7,5.2-4.6,8.1-6.3c8-4.9,16.3-9.4,24.1-14.5c7.6-5,8.1-9.5,2.7-19.9c-3,1.6-5.8,3.5-8.9,4.8
	c-14.4,5.9-27.5,2.7-39.9-6c-4.9-3.4-6.7-8.2-5.8-13.8c1-5.7,2.5-11.3,4-17.4c-3.6-4-7.3-7.8-10.5-11.9c-11.9-15.3-9-31.8,7.7-42
	c4.9-3,10.4-5,16.6-7.9c-2.4-10.2-8-18.4-12.8-27c-2.2-4-4.8-8.6-4.7-13c0.1-10.1,6.8-17.2,13.7-23.6c1.5-1.4,4.5-1.8,6.6-1.6
	c10.8,1.1,20.5,4.3,27.5,13.5c8.3,10.9,13.7,23.2,18.5,35.8c7.9,20.5,19.7,38.9,34.4,54.9c13.5,14.8,30.7,25.6,49.8,32.3
	c3.7,1.3,8.5,1.5,12.1,0.3c12.2-4.1,24.4-8.5,36.2-13.8c14.3-6.5,15.5-13.9,11.9-29.1c-2-8.3-5.5-15.9-16.7-17.9
	c-13.2-2.3-25.8-7.4-38.7-11.3c-3.4-1-6.9-1.6-10.2-2.8c-7-2.6-12-6.7-12.4-15.2C223.6,175.9,221.7,170.8,220.4,164.6z M767.1,179.7
	l-1.3-1.1c3-9.2,9-16.2,15.7-22.9c3.1-3.1,7.1-5.9,8.5-11c-4.9-3.5-9.4-1.6-13.9-1.2c-11.6,1.1-23.3,3.4-33.9-3.9
	c-8.3,3.4-16.5,6.3-23.4,12.4c-4.3,3.8-9.8,6.7-15.2,8.9c-19.1,8-32.7,22-44.1,38.2c1.9,7.5,8,9,13,12
	c20.5,12.5,42.7,22.9,56.2,44.3c1.2,1.9,3.3,3.4,4.9,5.1c21.3,22.8,34.6,50.1,43.5,79.7c0.7,2.4,1.6,5.7-2,7.1
	c-0.8-0.3-1.6-0.3-1.8-0.7c-4.6-8.2-10.2-16-13.5-24.7c-9.5-25.2-25.3-46.2-43-65.9c-6.6-7.4-13.3-15.3-21.5-20.6
	c-14.3-9.2-29.9-16.4-44.6-24.9c-24.4-14.2-40-34.2-40.2-63.8c0-5.2,0-10.5,0-16c-3.8-1.2-6.8-2.1-9.9-3c0.9-7.7,4.7-13.3,9.5-18.6
	c4.3-4.8,8-10.2,12.8-14.5c5.2-4.7,11.2-8.5,17.1-12.4c5.6-3.8,11.5-7.2,19.4-12.1c-15.6-4.2-27.8,0.9-40,3.1
	c-12.7,2.2-25.2,5.4-37.9,7.9c-12.6,2.5-23.1,11.7-36,12.4c-3.3-3.4-4.1-7.1-0.4-9.4c4.9-3.1,10.2-5.6,15.7-7.6
	c6.6-2.5,13.4-4.1,20.1-6.2c4.9-1.5,7.7-4.8,8.8-10c2.9-12.6,10.2-22.2,20.1-30.2c4.7-3.8,8.8-8.3,15.6-15c-6.4,1-9.3,1.2-12,2
	c-19.1,5.8-38.7,10.4-57.1,17.9c-18.1,7.4-37.8,13.2-50.5,31.1c8.2,4.6,16.6,9.4,25.6,14.4c-1.8,3.9-3.2,6.9-4.6,9.9
	c-7.7-0.4-12.9-4.6-18.6-7.4c-10.9-5.3-21.8-7.8-34-4.6c-9.1,2.4-18,4.9-26.7,8.6c-27,11.6-54.2,22.7-84,25
	c-9.3,0.7-18.6,2.4-27.9,3.6c-7.5,1-15.2,1.5-22.5,3.1c-10.3,2.2-20.4,5-30.5,7.9c-2.6,0.8-5.2,2.9-7,5c-3.4,4-6.2,8.5-9.2,12.8
	c-2.5,3.5-5.2,6.1-10.2,5c-2.6-0.5-5.8-0.3-8.2,0.8c-6.4,2.8-12.5,6.3-18.9,9.6c1.3,6.1,6.9,10.2,4,16.9c-1.4,3.4,1.8,6.6,5.5,7.7
	c4,1.1,8.1,1.7,12.1,2.4c27,4.7,50.6,17.8,74.6,30.1c2.6,1.3,6.1,2.4,7.4,4.6c6.4,10.9,16.9,15.9,27.5,21.2
	c6.3,3.1,6.7,4.2,9.6,15.9c-15.2-8.7-29.3-16.9-43.6-25.2c-1.1,1.3-2.8,2.5-3,4c-2.1,13.1-11.8,19.9-21.7,26.2
	c-5.4,3.4-11.5,6-17.5,8.2c-20.4,7.4-40.8,14.9-61.5,21.6c-24.1,7.8-47.2,17.3-69.2,30.3c-13.9,8.2-25.3,18.7-37.3,28.9
	c-13,11.1-15.4,27.3-20.1,42.2c-7.7,24.3,0.9,48.8,21.3,64c3.3,2.5,6.9,4.6,9.9,7.3c20.7,18.9,45.5,31,70.8,42.2
	c3.6,1.6,7.9,2.4,11.7,2.1c6.4-0.5,12.8-1.6,18.9-3.6c5.5-1.7,10.2-1.4,15.3,0.9c12.5,5.6,25,4.7,37.6-0.5c36-15,69.8-34,102.2-55.6
	c4.8-3.3,9.1-7.5,13.3-11.6c0.7-0.7-0.3-3.2-0.5-4.7c1,0.6,2.1,1.7,3,1.6c8-1.3,12.2-5.3,16.8-16.4c-2.9,1.7-4.9,2.5-6.5,3.8
	c-4.5,3.6-8.8,7.5-13.1,11.2c-7.8,8.4-18.9,6.2-28.3,7.5c-7.5,1-15.9-3-23.6-5.7c-5.6-1.9-10.2-5.8-12.3-12.4
	c1.5-3.4,3.1-7,4.7-10.6c-10.6-10.8-22.2-20.4-22.5-35.7c3.8-17.2,18.4-15,28.7-17.5c2.5-6.5,4-12.3,6.8-17.3
	c4.9-8.9,12.3-13.2,23-13.4c14.6-0.2,25.3,6.5,32.7,17.5c5.7,8.5,13.7,12.4,21.9,16.6c3.3,1.7,8,1.5,11.9,1.1
	c8.5-1,11.3-4.1,12.1-12.3c0.4-4.1-0.5-8.5,0.6-12.3c6.3-21,0.7-40.4-7-59.8c-4.5-11.2-12.2-20.1-19.5-29.2
	c-20-25.3-44.1-45.5-74.9-56.7c-6-2.2-12.3-3.9-18.2-6.5c-14.4-6.5-28.8-13-44.5-16.1c-5.1-1-10.1-2.9-15.1-4.7c-4.3-1.6-8-4-9-9.1
	c10.3-2.9,19.1,0.8,28.1,3.6c9,2.8,17.7,7.6,26.9,8.4c15.9,1.4,29.3,8.1,42.7,15.5c14.4,7.9,28.1,17.2,42.7,24.6
	c15.8,8,28.1,19.5,37.2,34.1c6.8,10.9,12.2,22.8,17.6,34.5c8.6,18.7,16.1,37.7,16.8,58.8c0.2,6.7,3.1,13.3,4.8,20.2
	c2.8-0.4,4.7-0.3,6.2-0.9c11.4-4.8,22.7-9.7,34-14.5c4.4-1.8,8.8-3.1,12,2.2c-20.8,18.4-77.4,36.4-108.9,34.7
	c-10.3-7.7-20.4-15.5-26.9-27.2c-3.9-7-11.1-10.3-18.4-13.1c-5.8-2.1-15.6,0.4-18.9,5.5c-2.8,4.3-4.5,9.2-6.3,13
	c3.6,7.4,12.5,6.2,16,14.3c-15.6-0.1-31.4-8.7-43.2,5.8c2.4,19.8,4.2,21.8,28.8,32.4c-1.9,6.1-10.6,7.8-9.9,16.7
	c13.4,8.3,27.4,14.2,43.1,3.4c3.4-2.3,7-4.3,10.3-6.8c11.9-8.8,24.2-16,39.6-17.3c7-0.6,13.7-2.1,20.9-0.2c4.4,1.2,9.4,1,14,0.9
	c10.7-0.4,21.1,1.5,31.4,3.8c8.6,1.9,17.3,3,25.9,4.7c6.9,1.4,13.7,3.1,20.5,5c1.1,0.3,2.5,2.7,2.3,3.9c-0.2,1.3-2.2,3.3-3.4,3.3
	c-7-0.4-14.2-0.3-20.9-2.2c-19.4-5.3-39.2-6.2-59.1-7.2c-3.2-0.1-6.7,1.5-9.9,2.7c-20,7.5-37.3,19.8-55,31.4
	c-5.9,3.9-11.8,8-18.3,10.6c-7.8,3.1-14.4,7.9-21,12.7c-3.3,2.4-6.6,4.9-9.9,7.3c-15,10.7-32.2,17.1-48.6,24.9
	c-13.3,6.2-27.3,10.9-41.1,15.8c-8,2.8-15.9,3.3-23.4-2.8c-3-2.4-7.4-3.4-11.3-4.4c-12-3-23.6,2.6-29.3,13.8
	c-3.6,7.1-2.9,13.4,2.1,18.9c1.4,0.2,2,0.4,2.5,0.3c3.3-1.2,6.7-2.2,9.7-4c10.3-6.3,21-6.2,31.9-2c1.3,0.5,1.9,3.1,3.8,6.6
	c-6.8,0-11.5-0.3-16.1,0c-14.7,1.1-25.6,13.5-25.7,28.4c-0.1,6.6,2.7,11.8,7.1,15.5c9.3,8,21.3,10.3,32.9,10.5
	c9.1,0.1,18.6-2.8,24.4-11.7c1-4.7-2.8-10.2,2-14.4c7,1.6,4.9,7.8,6.8,11.6c6.1,12.6,14.8,18,27.9,15.7c9.3-1.6,14.3-6.6,15.8-16.2
	c1.1-7.6,2.1-15.1,2.8-22.7c0.8-9,4.9-15.6,13.3-19.2c22.3-9.5,44.7-17.6,69.7-16c13.5,0.8,27.1,0.2,40.7,0.1
	c15.8-0.1,31.6-0.2,47.4-2.5c16.2-2.4,32.8-2.1,49.2-3.3c14-1,28.1-1.9,42.1-3.8c16.8-2.3,33.4-6.6,50.3-8.1
	c14.4-1.3,27.5-5.9,40.7-10.9c12.1-4.6,23.6-10.7,35.8-14.9c35-11.9,65.6-31.6,95-53.4c3.7-2.7,6.8-6.5,9.2-10.5
	c7.1-12.1,14.9-23.8,20.4-37c10.8-26,15.4-52.7,14.1-81.3c-4.3,0.7-8,1.3-12.9,2.1c-0.2-7.5-0.2-13.9-0.6-20.2
	c-0.4-7.3-0.8-7.7-7.3-14.8c-3.5,4.5-7,8.9-10.5,13.4c-4.4-3.7-3.5-6.9-1.4-9.9c5.4-7.7,10.9-15.3,16.4-22.9c1.8-2.6,3.9-4.4,8-1.7
	c0.4,12.2,0.9,24.9,1.4,37.3c5.9,1.5,7.8-1.9,8.7-5.2c1-3.9,0.6-8.2,1.3-12.2c1.1-6.3,1.1-13.5,4.2-18.7
	c9.8-16.1,21.8-30.9,36.9-42.1c17.1-12.7,37-17.4,58.4-12.5c3.2,0.7,6.6,2.4,9-1.6c-7.1-12.9-18.7-20.9-29.3-30.1
	c-11.6-10.2-24.5-17.9-38.8-23.9c-21.3-8.9-43.8-13.3-65.7-19.6c-10.7-3.1-21.7-3.3-33.2-1.6c-15.8,2.4-30.7,7.6-45.9,12
	c-0.7,0.2-1.1,1.7-2,3.1c1.6,0.5,3.2,1.8,4.4,1.4c13.9-4.4,28.1-1.8,42.1-1.9c3.7,0,8.2,1,8.8,7.7c-15.3,7.2-28,18.3-38.3,32
	C770.5,178.2,768.6,178.8,767.1,179.7z M148.6,277.8c8.7,4,9.9,10.5,12.3,16.5c2.7,6.8,5.9,8,12.3,5.6c15.4-5.7,30.8-11.4,46.2-17.2
	c2.6-1,6-1,6.6-4.8c-12.7-9.2-25.9-17.8-38-27.7c-18-14.7-31.2-33.1-39.1-55.1c-3.8-10.5-7.3-21-13.6-30.4
	c-4.1-6.1-9.4-10.5-16-13.3c-5.3-2.2-11.1,1.3-11.8,6.9c-1,7.7-0.3,15.5,3.2,22.4c3.6,7.3,8.1,14.2,12.4,21.2
	c2.3,3.8,3.6,7.3,0.9,11.3c-14.8-3.1-18.4-2.4-26,3.2c-9.3,7-7.4,16.2-6.3,25.7c5.7,5.3,11.2,10.4,17.3,16.1
	c-2.3,5.8-4.5,11.8-6.9,17.9c1.9,4.5,1.5,10.2,7.3,13c6,2.9,11.5,0.8,17.1-1c2.2-0.7,4-2.3,6.2-3.3
	C137.8,282.5,143.2,280.2,148.6,277.8z M14,418.5c4.8,11.3,9.3,22,14.1,32.6c2.9,6.5,7.2,11.7,13.8,15.3c6,3.3,11.6,4.6,18.4,2.8
	c3.8-1,8.2-0.3,12.2,0.2c1.3,0.1,3.1,1.9,3.4,3.3c0.3,1.4-0.4,3.5-1.5,4.6c-2.5,2.8-7.8,3.5-6.4,10.2c8.8,8.5,20.2,4,28.6,4.4
	c6.3-6,11.2-10.7,16.6-15.9c-1.6-2.3-3.3-5.4-5.6-7.9c-4.4-4.7-9.1-9.2-13.8-13.6c-5.7-5.4-9.2-11.6-11.3-19.4
	c-3.3-12.5-4.9-24.9-2.6-37.2c-4.9-5.2-8.8-10.5-13.8-14.4c-3.5-2.7-8.2-4.3-12.6-5.2c-4.7-1-8.9,1.1-12.7,5.7
	c4.1,2.7,8.1,5,11.6,7.8c2.8,2.3,4.3,5.4,2.2,8.2c-7.9,2.1-14.9,5.1-22,5.7C23.5,406.7,17.7,410.8,14,418.5z"/>
<path fill-rule="evenodd" clip-rule="evenodd" d="M466.9,165.6c-12.1-4-19.3-12-26-20c-8.8-10.5-6.8-25.9,3.6-34.6
	c2.7-2.2,5.7-4.1,8.7-6c7.9-5.4,16.4-6.3,25.1-2.3c10.8,4.9,21.2,10.2,23.9,23.6c2,10.2-1.1,20.8-9.9,26.1
	C483.8,157.5,474.7,161.6,466.9,165.6z M464.6,154.1c3.1-1.5,5.1-2.6,7.2-3.5c12.8-5.5,14.9-12.6,8.3-24.4
	c-5.1-9.1-13.3-12.5-22.7-15.3c-6.9,4.7-13.7,8.9-13.4,18.9C444.5,143,454,148.5,464.6,154.1z"/>
<path fill-rule="evenodd" clip-rule="evenodd" d="M787.4,242.7c-1.5-12.5,4.1-22.6,11.1-32.2c4.4-6.1,8.6-12.4,14-20.1
	c-17.3-0.6-30.4,7.7-44.7,11.2c-0.2-2.1-0.8-3.6-0.3-4.1c9.1-9.5,21.5-11.6,33.5-13.7c8.8-1.5,17.6-5.2,28.3-2.9
	c-1.6,3.5-2.3,6.4-4,8.4c-6.5,7.5-13.6,14.5-20,22c-2.9,3.4-5.4,7.5-7.2,11.7c-2.7,6.4-4.6,13.2-6.8,19.8l0.5-0.6
	c-1.6,0.1-3.2,0.1-4.8,0.2L787.4,242.7z"/>
<path fill-rule="evenodd" clip-rule="evenodd" d="M791.3,242.8c20.5-15.6,37.7-25.5,47.9-27.6c3.6,4.8,0.1,8.9-1.8,12.9
	c-4,8.5-9.1,16.4-12.5,25.1c-3.2,8.1-7.3,15.9-7.1,25.2c0.1,4.2-2.4,8.4-4,13.4c-4-7.1-4-7.1-0.6-19.8c1.8-6.7,3.6-13.5,5-20.3
	c1.4-6.8,5.8-12.9,4.8-21.4c-8.2,3.5-14.5,8.2-20.4,13.7c-1.3,1.2-2.6,2.4-3.9,3.6c-1.8,1.6-4.3,3.1-6,0.9c-1.1-1.4-0.7-4.1-0.9-6.3
	C791.8,242.2,791.3,242.8,791.3,242.8z"/>
<path fill-rule="evenodd" clip-rule="evenodd" d="M767.1,179.7c-2.6,6.9-5.1,13.8-7.8,20.6c-0.3,0.8-1.7,1.1-2.6,1.7
	c0.2-14.6,0.2-14.6,9.1-23.4L767.1,179.7z"/>
<path fill-rule="evenodd" clip-rule="evenodd" d="M787,242.4c0.3,1,0.9,2.1,0.8,3.1c-0.1,1-1,1.8-1.6,2.7c-0.5-1.4-1.2-2.7-1.4-4.1
	c0-0.4,1.7-1,2.6-1.4L787,242.4z"/>
<path fill-rule="evenodd" clip-rule="evenodd" d="M460.5,122.3c0.5,1.6,1.4,3.1,1.4,4.7c0,4-2,6.8-6.2,6.3c-1.9-0.2-4.2-1.8-5.3-3.4
	c-1.9-2.8,0-5.6,4.7-7.4C456.6,121.8,458.5,122.3,460.5,122.3z"/>
</svg>
