<?xml version="1.0" encoding="utf-8"?>
<!DOCTYPE svg PUBLIC "-//W3C//DTD SVG 1.1//EN" "http://www.w3.org/Graphics/SVG/1.1/DTD/svg11.dtd">
<svg artist="zl2017" version="1.1" id="zlIcon-geometry" xmlns="http://www.w3.org/2000/svg" xmlns:xlink="http://www.w3.org/1999/xlink" x="0px" y="0px"
	 width="1000px" height="581.5px" viewBox="0 0 1000 581.5" enable-background="new 0 0 1000 581.5" xml:space="preserve">
<path fill-rule="evenodd" clip-rule="evenodd" d="M895.6,77.8c2,21.3,1,41.5-0.1,61.6c-1.7,30.5-4.2,60.9-5.9,91.4
	c-2.5,42.9-4.6,85.8-7,130.9c-17,17.9-38.3,33-60.1,46.7c-38.7,24.2-71.7,55.2-106.2,84.5c-4.3,3.7-8.2,7.7-12.4,11.6
	c-14.2,13.3-31.3,19.3-50,14.7c-26.9-6.7-54.1-2.9-81.1-4.4c-21.5-1.2-43.1-1.2-64.6-0.1c-44,2.3-88,5.7-132,8.6
	c-23.7,1.6-47.3,4.4-71,4.5c-57.8,0.1-115.3,3.7-172.9,8.2c-4.5,0.4-9,1-13.6,1c-14.9,0.1-20.7-4.6-20.3-20.5
	c1.7-66.7-5.3-133.6,5.5-200.2c2.1-13.3,0.7-27.1,1.4-40.7c0.3-5.6,1.7-11.1,2.8-17.9c26.4-14.9,52.7-30.3,79.6-44.8
	c55.8-30.1,112-59.5,167.7-89.6c10.2-5.5,20.3-8.9,31.9-10c51.9-4.8,103.8-6.7,155.9-7.6c37.3-0.7,74.4-4.8,111.6-7.5
	c12.4-0.9,24.7-2.5,37.1-3.5C758.3,89,824.7,83.6,895.6,77.8z M677,381.4c-20.1-0.2-36.9-0.7-53.8-0.3c-29.3,0.6-58.7,2.2-88,2.4
	c-48.7,0.4-97.3-0.5-146,0.5c-13.2,0.3-27.6,2.4-39.2,8.2c-44.7,21.9-88.8,45.1-132.4,69c-26.8,14.6-52.6,31.1-78.5,47.4
	c-5.1,3.2-12.7,6.3-10.1,16.6c3.8,0.5,8.2,1.8,12.4,1.5c46.1-3.5,92.3-7.1,138.3-11.1c39.4-3.4,79.3,2.5,118.3-6.6
	c67.8-0.7,135.4-9.7,203.3-7.1c16.9,0.7,34-0.6,50.9-1.5c5.4-0.3,10.8-1.9,17.8-3.2c2.8-32.3,5.7-63.6,8.2-94.8
	C678.6,396.7,677.6,391.1,677,381.4z M366.9,240.3c40.6,0,79.1,1.5,117.3-0.3c66.7-3.3,133.3-8.5,199.9-13.2
	c6.6-0.5,14.4-0.8,19.4-4.3c27.7-19.6,55.4-39.3,81.8-60.7c21.1-17.1,40.2-36.5,60.2-55c3.7-3.5,10.1-5.6,7.3-15
	c-16.4,1.6-33.3,2.8-50,5c-22.4,3-44.6,8.3-67.1,9.8c-48.5,3.2-97.2,4.4-145.8,6.6c-50.9,2.2-101.8,4-152.6,7.2
	c-21.2,1.3-42.2,5.9-62.1,8.9C364.3,154.1,361.2,196.9,366.9,240.3z M356.3,375.4c-4.4-40.1,1.4-78.6-7.9-116.4
	c-4-1.2-7.1-2.9-10.3-2.9c-65.7-1.6-131.4-1.8-196.8,6.8c-19.9,2.6-24.2,6.9-25.6,28.6c-1.2,18,0.3,36.3-1.8,54.1
	c-6,49.6-4.6,99.4-4.7,149.1c0,4.8,2.9,9.6,4.8,15.3c41.1-24,79.7-47.5,119.2-69.4C272.9,418.5,313.3,398.1,356.3,375.4z
	 M676.5,367.6c9.9-50.3,11.6-77.8,7.5-116.4c-34.1-7.3-69.1-1.3-103.7-2.1c-36.1-0.9-72.4,1.4-108.5,0.6c-34.9-0.8-69,5.1-102.9,6.9
	c-5.6,33.3-5.2,82.4,0.4,109.7c2.6,1.4,5.5,4.3,8.5,4.3c84.7,0.8,169.4,1.4,254.2,1.5C646.4,372.2,660.9,369.3,676.5,367.6z
	 M857.4,347.4c15.5-35.2,11-71,16.2-105.4c5.7-37.9,6.4-76.5,9-114.8c0.5-7.9-0.2-15.8-0.5-23.7c0-1-0.5-2.2-1.3-2.9
	c-0.8-0.7-2.1-0.8-5.4-2c-6.9,5-15.6,10.2-23,16.7c-37.1,33.1-74,66.6-110.8,100c-8.4,7.6-16.4,15.6-24.5,23.5
	c-10.1,9.8-16,21.2-16.7,35.8c-0.7,15.7-4.9,31.3-5.2,47.1c-0.3,14.1-6.2,29,3.6,44.5C752,360.6,806.3,362.2,857.4,347.4z
	 M349.7,220.4c3.5-27.5,7.7-52.7,1.5-78c-4.3,0-6.9-0.8-8.6,0.1c-60.1,31.6-120.2,63.3-180.1,95.3c-1.7,0.9-1.2,5.7-2,9.7
	c54.3,1.2,107.2-0.3,159-5.9C327.5,226.8,327.5,226.8,349.7,220.4z M832.3,374.3c-57.4-4.1-103.5-0.3-137.4,10.6
	c-9.9,34.7-12.6,87.1-5.8,115.7c7.4-5.7,14.8-10.6,21.4-16.6c30.2-27.1,59.5-55,93.1-78.3C814,398.6,825.9,390.9,832.3,374.3z
	 M352,238.3c-4.1-3.8-6.6-7.4-10.1-9c-2-0.9-6.6,0.4-8.1,2.3c-3.3,4.2,1.3,11.5,7.4,11.4C344.1,243.1,347,240.6,352,238.3z"/>
<path fill-rule="evenodd" clip-rule="evenodd" d="M987.9,67.3c-3.7,5.5-6.7,11.9-15,12C959.5,79.4,946,82,931,76.9
	c-2-19-1.4-37.9,2-56.5c1-5.8,7.2-11.2,12.1-15.5c5.2-4.5,11.8-7,18.7-2.6c7.4,4.7,5.5,11.4,3.8,18.1c-0.3,1,0.3,2.2,0.5,3.3
	c7.3,2.6,14.9,4.6,21.8,8c8.2,4,9.2,12,9.7,20.3c0.5,8.5-5.4,11.6-11.1,15.2c5.8-23.9,2.1-29.5-19.4-29.2c-6.7,0.1-13.4,0.9-19.9,2
	c-3.1,0.5-5.9,2.6-10.5,4.8c0.7,8.2,1.5,16.5,2.2,25.1C958.3,74.9,973.3,75.4,987.9,67.3z M948.3,10.5c-2.6,4.5-5.4,9.3-8.2,14.1
	c2.3,0.9,4.8,2.8,7,2.4c8.1-1.2,13.9-8.3,10.7-12.7C956.6,12.7,953.3,12.4,948.3,10.5z"/>
<path fill-rule="evenodd" clip-rule="evenodd" d="M358.4,58.9C336,43,337.6,43.4,316.7,72c-1.7-23.4,11.1-40.6,16.5-60.6
	C349.9,22.1,353.1,28.3,358.4,58.9z M343.7,32.9c-2.2-3.7-4.3-10.2-6.6-10.4c-2.3-0.3-4.7,5.6-7,8.8c2.1,3.7,4.2,10.3,6.3,10.4
	C338.8,41.8,341.2,36.1,343.7,32.9z"/>
<path fill-rule="evenodd" clip-rule="evenodd" d="M21.1,581.5c-0.9-3.9-2.4-7.1-2.3-10.3c0.3-11.1,1-22.3,1.6-32.2
	c9-8.8,18.9-12.9,28.6-8c8.6,4.3,16.3,11.6,22.6,19c6,7,1.7,18.5-8,21.5C49.8,575.7,35.5,578.1,21.1,581.5z M64.2,559.7
	c-1.9-11.5-8.1-17.2-17-20.4c-11-4-19.6,0.4-21.6,12.4c-0.8,4.9,0.8,10.3,1.3,14.6C41.6,571.6,52.7,568.9,64.2,559.7z"/>
<path fill-rule="evenodd" clip-rule="evenodd" d="M756.5,531.4c-6.2,3.6-9.9,5.7-13.9,8c9.4,8.7,9.4,8.7,29.3,7.4
	c2.4,5.7-0.6,8.3-5.7,8.9c-5.6,0.6-11.3,0.6-16.9,0.5c-3.3-0.1-6.6-0.8-11-1.5c-7.1-14.8-4.3-30.6-2.9-45.9
	c0.7-7,5.7-12.4,13.3-13.2c6.5-0.7,13.1-0.1,19.9-0.1c-1.2,13.1-12,8.7-18,12.2c-3.4,2-6.9,6-7.8,9.7c-1.7,7,3.8,9.5,9.7,11
	C753.6,528.6,754.4,529.7,756.5,531.4z"/>
<path fill-rule="evenodd" clip-rule="evenodd" d="M962.5,345.7c-15.9,9-15.9,9-23.5,26.3c0-17.2-0.9-31.2,0.2-45
	c1.7-21.3,7.1-24.2,37.3-19.8c-7.8,1.9-11.9,3.2-16,3.8c-8.9,1.3-14,6.2-15.5,14.9c-1.8,10.7,5.8,12.9,13.6,15.3
	C960.2,341.7,961.2,344.2,962.5,345.7z"/>
<path fill-rule="evenodd" clip-rule="evenodd" d="M17.6,221.5c-1.4,6.3-2.8,12.6-4.1,19c-2.5,11.8,2.6,19.4,14.7,21.3
	c4.4,0.7,8.9-0.1,13.4,0.2c3.2,0.2,6.2,1.2,10.5,2.1C34,270,21.3,270.9,12,267.4c-6.8-2.6-13.1-11.9-11.2-18.8
	c3-10.4,4.7-22.2,17.3-26.4L17.6,221.5z"/>
<path fill-rule="evenodd" clip-rule="evenodd" d="M18.2,222.2c7.4-14.6,20.8-19.1,35.6-20.3c3.3-0.3,6.9,3.3,14.3,7.2
	c-12.7,2.2-20.9,3.2-28.9,5.2c-7.3,1.9-14.4,4.8-21.6,7.3C17.6,221.5,18.2,222.2,18.2,222.2z"/>
<path fill-rule="evenodd" clip-rule="evenodd" d="M397.7,432.7c4.7-10,8-17,11.5-24.5c1,1.9,2.5,3.5,2.3,4.8
	c-2,15.5-4.3,30.9-7,49.7c-3.9-7.2-6.9-12.7-9.9-18.1c-16.1-4-28,3.2-39.7,15.6c-1.2-17.5-2.8-33,7.7-48.1
	c1.2,8.5,2.2,15.9,3.5,25.6C377.1,435.9,386.6,434.4,397.7,432.7z"/>
<path fill-rule="evenodd" clip-rule="evenodd" d="M641.1,439c-3.3,2.9-6.4,6.2-10.1,8.6c-2.7,1.7-6.2,2.2-9,3.1
	c-11.8-5.3-19.2-14.2-16.7-26.5c2.8-13.6,11.2-24.5,25-29.4c7.7-2.7,15.4-1.6,21.9,4.3c6.8,6.2,7.2,14.2,4,21.5
	c-2.6,5.9-8.1,10.4-12.3,15.6c0.7-3.3,1.1-6.6,2-9.7c2.1-7.4,5.5-15.2-4-20c-7-3.5-12.8,0.2-18.1,4.4c-9.7,7.8-13.4,16.2-9.9,22.1
	c4.9,8.4,13,6.7,20.7,6.3C636.7,439.1,638.9,439.1,641.1,439z"/>
<path fill-rule="evenodd" clip-rule="evenodd" d="M427.6,188.9c-0.8,8.6-5.6,14-13.8,17.9c-5.4-3.4-10.7-6.8-17.2-10.9
	c-2.5,6.5-4.7,12.1-6.9,17.8c-1.2-0.8-2.5-1.1-2.5-1.6c-1-14-3.5-28.3,5.9-44.3c7.6,9,13.5,16.1,19.6,23.3
	c5.4-0.4,10.6-0.8,15.8-1.3L427.6,188.9z"/>
<path fill-rule="evenodd" clip-rule="evenodd" d="M428.4,189.8c-2.6-11.6,4.9-18.7,11.2-26c6.4-0.1,7.5,4,7.9,8.7
	c1.2,13.2,2.4,26.4,3.7,41c-14.1-4.8-7.1-17.8-13-27.4c-3.1,0.8-6.9,1.8-10.6,2.9C427.6,188.9,428.4,189.8,428.4,189.8z"/>
<path fill-rule="evenodd" clip-rule="evenodd" d="M732,284.4c-4.6,4.1-7.6,6.6-11.2,9.8c-5-13.6-2.6-25.1,2.6-39.5
	c4.7,3.3,8.7,4.8,10.9,7.7c5.3,7,9.8,14.6,14.6,22c14.7-11.9,7.2-32.7,25-48.3c-6.8,26.5-8.1,48.5-21.2,69.7
	C745.4,298.2,739.5,292.1,732,284.4z"/>
</svg>
