<?xml version="1.0" encoding="utf-8"?>
<!DOCTYPE svg PUBLIC "-//W3C//DTD SVG 1.1//EN" "http://www.w3.org/Graphics/SVG/1.1/DTD/svg11.dtd">
<svg artist="ennoiaart.com" version="1.1" id="zlIcon-girl-luanda-by-ennoia" xmlns="http://www.w3.org/2000/svg" xmlns:xlink="http://www.w3.org/1999/xlink" x="0px" y="0px"
	 width="1000px" height="1262.5px" viewBox="0 0 1000 1262.5" enable-background="new 0 0 1000 1262.5" xml:space="preserve">
<path fill-rule="evenodd" clip-rule="evenodd" d="M258,823.4c-20.4,1.5-29.4-11.6-33.2-28.4c-4.4-19.8-8-40.2,2.9-59.5
	c0.9-1.5,1.8-3.4,1.8-5.1c-0.5-25.3,16.9-39.6,33.5-54.2c13.8-12.1,28.7-23,43.1-34.5c-15.8-10.4-30.9-20.1-45.7-30.1
	c-5-3.4-9.4-3.4-14.9-0.7c-21.5,10.1-35.5,6.6-51.2-12c-0.7-0.8-2-1.1-3-1.7c-10.5,2-1.5,10.1-5.6,15.7c-3.5,1.8-8.3,4.1-12.9,6.8
	c-11.9,6.8-20.6,14.6-19,30.9c1.5,15.3,0,15.5,14.1,21c-13.6,0.1-18-2.3-17.7-12.8c0.3-10.4-2.5-20.9,3.7-31.5
	c2.8-4.7,1.6-13,7.6-18.5c-9.2-3.1-16.8-5.7-25.6-8.6c2-6.5,3.5-11.5,5.6-18.6c-5.5-0.8-10.9-3.1-15.1-1.8c-9,2.9-16.1,1.4-23.5-4
	c-12.2-8.8-16.4-23.9-9.5-37.1c2.5-4.8,4.2-10.1,6.2-14.9c-10.2-3.9-18-6.9-28.8-11c-5.5,3.2-14.8,8.4-24.4,0
	c-15.3-13.4-14.9-29.6-6.4-48c-15.3-1.2-25.3,6.7-34.9,15.5c-5.6-18.8-2.4-23.2,24.7-35.1C16.3,439,7.7,444.3,0.5,456
	c-0.4-14.9,5.5-20.9,19.3-21c5.9,0,11.9,1.3,17.7,0.7c10.5-1.2,15-8.7,9.8-17.6c-4.1-7-10.4-13-16.6-18.6
	C12.3,382.8,10,375,21,352.8c4.7-9.6,10.6-18.8,17.5-27c10.3-12.3,11.9-12.2,25.6-9.5C77,304,89.1,292.8,100.8,281
	c2.6-2.7,4.4-6.8,5.1-10.6c0.7-3.4-0.6-7.1-1-10.7c-3.1-30.4,9.9-49.5,39.4-58.9c5.5-1.8,11-4.8,15.2-8.7
	c9.3-8.9,17.8-18.7,26.8-28.3c-8.3-10.9-18.4-21.6-32.9-25.8c0-7-0.1-12.4,0-17.7c0.5-14.4-19.2-27.6-30-24.9
	c-12.4,3.1-24.6,7.2-34.7,10.2c5.3-8.3,9.1-10.7,35.6-14.7c14.3-2.1,28.9-2,43.7-2.9c0.8-12.1-11.2-10.2-17-15.3
	c15.1-0.4,18.4,1.2,22.4,13.7c3.7,11.7,7.7,22.6,20.4,27.9c2.5,1.1,4.3,5.5,5,8.7c2.1,10,7.8,15.8,17.5,17.9
	c8.3-5.1,16.3-10.2,24.5-14.9c11.3-6.5,13.4-11.1,9.4-23.4c-8.3-25.6-8.3-25.6,12.3-42.8c27.4-22.9,32.1-22.8,59.2,0.5
	c1.3,1.1,2.8,2,4.6,3.2c10.4-2.6,15-11.3,20.4-19c3.4-4.9,5.9-10.5,9.5-15.2c22.5-29.5,52.2-34.5,86.9-25.1
	c23.4,6.3,44,18.8,63.1,33.6c18.5,14.4,20.5,22.6,13.4,45c-1.6,5.2-3.1,14.1-0.6,16c4.5,3.4,12.1,3.6,18.4,3.5c3.9,0,8.4-2,11.6-4.5
	c15.8-12.7,34.9-13.5,50.4-15.5c10.5-9.9,17.7-20.7,27.8-25.5c16.1-7.6,34-9.9,52.3-6.3c8,1.6,16.4,1.9,24.5,1.2
	c21.9-1.8,44.8,12.6,51,33.8c3.9,13.2,9.2,26.7,9.5,40.1c0.5,24.4,17,38.2,29.7,55.3c12.7-2.2,21.4-9,28.6-18.3
	c4-5.2,8.4-10.2,12.2-15.6c6.8-9.4,16.2-14.7,27.4-14.9c14.4-0.3,28.8,0.2,43.1,1.4c5.8,0.5,11.6,3.1,16.9,5.8
	c19.5,9.6,22.8,23.3,9.9,40.7c-8.6,11.6-17.9,22.5-26,34.5c-8.3,12.4-5.5,19,8.2,24.8c6.4,2.7,12.3,6.7,18.3,10.3
	c3.6,2.2,6.8,4.9,10.3,7.2c11.9,8,23.4,10.1,36.4,0.7c12.5-9,19.4-18.9,14.1-34.6c-0.1-0.1,0.9-0.6,1.4-0.9
	c7.7,17.9,6,26.9-7.6,36.9c-4.3,3.2-9.1,5.8-13.8,8.4c-4.1,2.3-8.4,4.3-15.5,7.8c6.6,4.4,11.6,7.7,17.1,11.5
	c-1.3,0.8-3.2,2.5-3.8,2.1c-12.4-7.6-27.5-4.4-40.6-11c-7.3-3.6-18.4,0.4-28.2,1.1c-0.8,3.2-2.3,5.6-1.8,7.5
	c2.2,7.7-4.7,17.7,4.8,23.2c10,5.8,20.9,3.9,31.4,1.1c2.8-0.7,5.3-2.8,8-4c10.2-4.7,18.5-3.2,25.9,4.6c6.6,6.9,8.3,18.1,2.4,26.5
	c-5.1,7.3-11.6,13.6-18,19.9c-9.6,9.6-9.2,14.1,2.4,20c15.2,7.7,24.3,22,36.1,33.4c3.6,3.5,4.6,10.1-0.3,12.7
	c-17.2,9-24.2,27.3-38.8,40.8c3.1,3.9,5.9,8.3,9.5,11.9c6.3,6.4,6.4,13.2,0.5,19c-17.7,17.3-35.9,34.3-63.5,32.1c-3-0.2-6-0.3-9,0
	c-19.4,2.4-32.5-4.6-38.1-24.1c-1-3.4-3-6.6-4.9-9.6c-8.5-13.3-20.3-14.6-30.9-2.7c-9.4,10.4-16.3,21.4-13.7,37.2
	c2.3,13.9,8.1,24,20.9,29c13.9,5.4,21.8,16.4,29.3,28c8,12.4,7.3,20.6-2.3,32.8c-8,10.2-11,10.9-26.7,6.4c-6.9-2-13.9-3.7-20.7-6.1
	c-6.5-2.3-11.7-2.2-15,4.8c-3.7,7.7-2.4,14.4,4.3,18.8c3.5,2.3,7.4,3.9,11.5,6c1.1,11.2,2.2,22.3,3.3,33.4c-0.9,0.3-1.8,0.6-2.6,0.9
	c-1.5-7.4-2.5-15-4.8-22.2c-1.5-4.7-3.8-10.1-7.5-12.9c-12.7-9.6-14.7-20.4-4.7-32.5c2.9-3.6,6.2-6.8,9.9-10.8
	c-9.9-7.3-15.9,3.2-25.4,3.9c11.7-17.3,29.3-9,43-12.6c0.2-1.3,0.3-2.6,0.5-3.9c-3.9-1.4-8.1-4.4-11.6-3.8
	c-17.7,3-30.5-1.4-35.5-20.2c-0.2-0.9-1.8-1.4-4-2.9c-4.1,1.6-8.9,3.5-12.5,4.9c-1,1.9-1.6,2.6-1.5,3c5,15.6-6.5,25.6-12.5,37.5
	c-6.6,13-15.6,18.3-30,16.9c-6.3-0.6-12.6-1.7-19.1-2.6c-0.4,17.1-3.4,32.6,13.4,42.8c12.6,7.7,15.1,28.7,35.7,28.6
	c-4,1.8-7.9,4.2-12.1,5.3c-8.3,2.1-11.6,7.6-12.5,15.4c-3.8,33.2-25.4,54.5-49.4,74.2c-5,4.1-10.5,7.8-16.5,12.2
	c5.9,12.5,11.9,23.6,25.3,28.9c4.4,1.7,8.3,4.7,12.4,7.2c17.4,10.6,33.5,11.3,51.5-1.4c14.8-10.4,32.5-16.7,50.6-25.6
	c-2.7,11.3-6.7,18.8-14.5,25.4c-8.5,7.2-15.1,16.6-23.7,26.3c5.3,3.3,8.6,5.3,13.9,8.5c-3,2-6.1,5.9-8.2,5.4
	c-15.6-3.9-31.1-8.3-46.5-13.2c-8.5-2.7-16.5-7.1-25.1-9.7c-22.7-6.9-42.4-19.5-61.7-32.4c-7.8-5.2-14.5-7.4-23.3-5.1
	c-5.2,1.4-10.7,1.4-16,2.5c-9.3,1.9-16.4,6.5-19.9,17.4c11.7,4.1,12.4,15.4,16.8,24.5c16.7,35.2,33.6,70.3,50.3,105.5
	c2,4.3,5.2,9.1,4.8,13.3c-1.1,11.7,4.7,21.1,9.5,30.4c17.2,33.4,35.4,66.3,53.3,99.3c1.7,3.1,4.3,5.6,6.5,8.3
	c-6.9-5-13.8-9.9-20.6-14.8c-0.4,0.6-0.9,1.1-1.3,1.7c11.6,16,23.3,32,34.9,48c0.8-0.5,1.7-1.1,2.5-1.6c-3-7.5-6-15.1-9-22.6
	c7.5,12,17.3,22.7,19.5,37.7c0.6,4.1,5.6,7.5,8.4,11.3c2.4,3.2,4.5,6.5,8.3,11.9c-6.4-0.7-10-1.1-14.7-1.6
	c-1.5,15.3,15.7,15,21.4,28.2c-11.7-5-21.7-7.5-29.7-13.1c-32.8-23-64.9-47-97.2-70.6c-24.2-17.7-49.2-34.4-72.1-53.6
	c-16.8-14.2-33.5-19.9-55.4-16.2c-20.6,3.5-41.8,3.1-62.7,4.5c-3.5,0.2-6.9,1.2-11.1,2c-0.4,4.6-1.5,8.8-0.9,12.7
	c4.8,30.2,9.9,60.2,14.8,90.4c2.6,16,11.7,30.7,9.9,47.7c-0.3,2.7,2.2,5.7,2.3,8.5c0.1,6.6,12.1,5.8,8.6,15.5
	c-1.4,3.9,3.1,9.8,6.1,18.1c-5.1-3.4-7.7-5-10-6.8c-4.2-3.3-7.8-8-12.6-10c-18.7-7.7-31.5-22-45-36.3c-18.1-19-39.3-35.1-57.3-54.2
	c-23.7-25.2-48.4-50.3-67.8-78.8c-27-39.6-48.1-83-54-131.8c-4.7-39.1,6.5-73.4,32.4-102.9c4.8-5.5,10.3-10.8,4.6-18.8
	c3.9-0.9,8.3-0.8,11.5-2.8c7.5-4.6,14.2-10.4,21.4-15.5c5.7-4.1,11.6-7.8,17.2-11.6c-8.6-15.2-18.6-28.3-23.6-43.2
	c-4.9-14.5-4.6-30.8-6.9-48.6c-20.1,13.5-33.3,30-42.7,49.5c-3.8,7.9-7,16.7-7.6,25.3C225.2,799.2,237.4,814.3,258,823.4z
	 M601.7,343.8c6.6,4.1,13.2,8.2,19.8,12.2c-0.9-8.2-4.1-13.8-7.6-19.2c-15.7-24.3-35.2-45.5-55.8-65.5c-27.1-26.3-58.9-45-94.8-56.3
	c-25.3-8-51.3-3.7-76.5-0.1c-18.9,2.7-33.4,15.8-48,31.7c10.5,1.6,17.4,4,24.9-2c3.6-2.9,10.1-4,14.8-3.2
	c29.9,5.5,60.2,10.2,89.5,18.2c53.4,14.5,97,45.8,135.4,84.8c-10.2-7.3-20.7-14.1-30.4-21.9c-26.1-21.3-54.2-39.4-85.7-51.4
	c-10.3-3.9-20.7-8.7-36.3-7.5c5.7,4,8.2,6.1,11.1,7.6c36.8,19.4,74.6,37.2,105.5,66.1c1.1,1,1.6,2.6,2.8,4.5
	c-4.4-0.9-7.8-1.5-9.1-1.8c21.1,22.1,42.8,44.8,64.8,67.9c5-4.6,9.7-8.8,16.1-14.6c-4.5-7.2-8-14.8-13.1-20.9
	C620.4,362.3,610.8,353.3,601.7,343.8z M609.8,464.5c-1.7-15.7,2.8-26.1,8.8-35.8c5.3-8.5,4.3-15.8-2.5-22.7c-2.9-3-5.7-6.2-8.7-9.1
	c-27.4-26-54.3-52.6-82.6-77.5c-10-8.9-22.8-15.9-35.5-20.3c-60.3-20.7-122.5-19.5-185-13.1c-8.8,0.9-15.8,5-20.9,12.6
	c-9.7,14.3-20.3,28-29.3,42.7c-8.3,13.5-14.9,28.1-16.2,45.1c3.8,0.8,7,2.4,8.2,1.5c5.8-4.5,11-9.7,17.2-15.2
	c18.5,9.2,25.5,28.5,41.5,43c-23.3,8.6-41.5-1.5-60.3-2.3c-0.5-3.8-0.4-5.7-0.9-7.3c-1.2-3.5-2-9.2-4.3-9.9c-6.2-2-7.7,4-9,8.5
	c-1.9,6.9-2.5,14.2-5.2,20.7c-9.7,23.2-19.8,46.2-30.3,69.1c-3,6.7-3.7,12.5,0.7,18.5c3.5,4.8,6.5,10.2,10.6,14.4
	c16.4,16.6,32.7,33.5,50,49.2c23.3,21.1,50.6,36.3,80.4,46c10.4,3.4,22.7,4.5,33.3,2.4c22.8-4.7,45-5.2,67.8-1.2
	c8.1,1.4,17.1,2.2,24.9,0.2c34.6-8.7,67.7-20.6,93-47.9c9-9.7,18.2-19.2,28.5-27.5c14.1-11.4,25.6-24.3,30.2-42.4
	c3.4,1.5,5.9,3.6,7.8,3.2c13.4-2.9,28.5-3.5,39.4-10.5c12-7.8,21.5-20.7,29.6-33.1c5.7-8.8,3.3-20.3-3.6-28.7
	c-6.7-8.1-16.2-6.1-25.1-3.6c-6.9,1.9-13.7,5.4-20.7,5.7c-8.4,0.3-13,4.4-17.5,10.5C620.4,454.5,615.8,458.4,609.8,464.5z
	 M317.4,852.5c-9.3-3.5-18.6-7.2-28.1-10.5c-7.5-2.6-14.9-1.7-19.2,5.4c-11.6,19.4-24.3,38.1-25.1,62.3
	c-1.5,44.5,16.1,83,36.1,120.8c5.8,11,15.7,17.8,29.7,15.8c8.3-1.2,16.7-1.8,25-2.1c52.1-2,104.3-2.9,156.3-5.9
	c37.6-2.2,75.1-6.8,112.6-10.8c6.8-0.7,13.4-3.2,19.6-4.8c0-3.2,0.4-4.5-0.1-5.5c-17.3-41.4-34.3-83-52.4-124.1
	c-5.6-12.7-11.9-25.7-23.7-34.6c-16.2,18.2-32.2,44.1-35,56.5c-4.4-7.7-7.2-16.2-12.8-21.6c-18.1-17.4-37.3-33.7-56.2-50.3
	c-7.9-6.9-16.5-8-26.8-4.7C388,847.8,362,841.8,339,821c-14.8-13.4-22.5-11.8-35.8,5.3C307.5,835,326.8,835.3,317.4,852.5z
	 M315.6,743.8c1,32.5,23.1,56,52.1,59.8c27.6,3.6,53.3-4.2,79.4-10.7c16.3-4.1,29.7-12.9,41.4-24.1c9-8.6,15.4-19.5,14.2-34.8
	C440.2,737.3,378.5,740.5,315.6,743.8z M676.3,712c-5.1,0-8-0.4-10.9,0.1c-27.8,4.1-55.6,8.4-83.4,12.4c-13.6,1.9-27.4,3-40.9,5.2
	c-8.9,1.5-13.8,14.1-8.4,20.9c5.7,7.2,17.3,9,18.6,20.3c12.2,2.4,24.6,7.1,36.6,6.5c16.4-0.9,32.5-6.3,48.9-8.9
	c6.2-1,12.8,0.5,21.3,1c20.6-14.2,33.6-40.1,25.6-55c-2.2,5.6-4.3,10.6-7.4,18.3C676.3,724.4,676.3,719.2,676.3,712z M306.6,277.6
	c26-1.4,52.1-4.4,78.1-3.7c25.7,0.8,51.4,5.4,77,8.3c-2.1-4.1-5-6.1-8-7.4c-34.2-14.4-70.2-18-107-18.7
	C329.6,255.9,316.7,261.6,306.6,277.6z M432.8,1061.2c26.7-1.8,53.5-3.5,80.2-5.6c3-0.3,5.7-3.6,8.5-5.5
	C490.4,1046.5,461.5,1052.2,432.8,1061.2z M303.9,1052.5c0.1,1.3,0.2,2.7,0.3,4.1c12.5,0.3,25.2,2.2,36.9-6.7
	C328.8,1050.7,316.3,1051.6,303.9,1052.5z M581.6,894.6c-5.4-25.9-6.8-28.4-19-32C569.4,874,575.5,884.3,581.6,894.6z M621.7,997.5
	c3.9,7.7,7.7,15.4,11.6,23.1C638.1,1008.2,631.7,1001.8,621.7,997.5z M597.7,790.1c0.2,1.2,0.5,2.3,0.7,3.5c6.8-1.3,13.7-2.7,20.5-4
	c-0.2-1.2-0.5-2.3-0.7-3.5C611.4,787.5,604.6,788.8,597.7,790.1z M552.5,1046.2c-0.5-1.3-1-2.7-1.5-4c-4.4,1.4-8.9,2.8-13.3,4.2
	c0.2,0.8,0.4,1.6,0.6,2.5C543.1,1048,547.8,1047.1,552.5,1046.2z M645.4,822.4c0.9-0.6,1.8-1.3,2.7-1.9c-2.7-3.5-5.4-7.1-8.2-10.7
	c-0.8,0.7-1.7,1.4-2.5,2.1C640,815.4,642.7,818.9,645.4,822.4z M165.7,612.1c0.9,1.3,1.8,2.6,2.8,4c2.5-1.1,5.2-2,7.4-3.5
	c1-0.7,1.1-2.8,3-8.6C172.4,608,169,610.1,165.7,612.1z M663.6,1063.5c-0.8,0.4-1.7,0.9-2.6,1.3c1.8,3.4,3.6,6.8,5.4,10.2
	c0.8-0.4,1.6-0.8,2.4-1.3C667.1,1070.3,665.4,1066.9,663.6,1063.5z M597.9,941.4c0.8-0.4,1.6-0.7,2.4-1.1c-1.4-3.1-2.9-6.3-4.3-9.4
	c-0.8,0.4-1.7,0.7-2.5,1.1C595,935.2,596.4,938.3,597.9,941.4z M487,705.5c6.7,2.9,8.5,3.9,10.4,4.4c0.3,0.1,1.8-2.2,1.5-2.4
	c-1.2-1.6-2.6-3.4-4.3-4.1C493.5,702.9,491.7,704.1,487,705.5z M289.8,705.2c-1-0.1-1.9-0.2-2.9-0.3c0,2.7,0,5.5,0,8.2
	c0.6,0,1.1,0.1,1.7,0.1C289,710.6,289.4,707.9,289.8,705.2z M33.8,345.6c-2.8,1.7-4.5,2.3-4.5,2.8c0,1.8,0.6,3.6,1,5.4
	C31.2,351.7,32.1,349.5,33.8,345.6z M265.6,385.9c-0.7,1.3-1.5,2.5-2.2,3.8c2.9,1.3,5.9,2.6,8.8,3.9c0.4-0.8,0.9-1.6,1.3-2.5
	C270.9,389.4,268.2,387.6,265.6,385.9z"/>
<path fill-rule="evenodd" clip-rule="evenodd" fill="#FFFFFF" d="M711.6,1129.2c3,7.5,6,15.1,9,22.6c-0.8,0.5-1.7,1.1-2.5,1.6
	c-11.6-16-23.3-32-34.9-48c0.4-0.6,0.9-1.2,1.3-1.7c6.9,4.9,13.7,9.8,20.6,14.8C707.3,1122.1,709.5,1125.7,711.6,1129.2z"/>
<path fill-rule="evenodd" clip-rule="evenodd" fill="#FFFFFF" d="M609.8,464.5c6-6.1,10.6-10,14.2-14.7c4.5-6,9.1-10.2,17.5-10.5
	c6.9-0.3,13.8-3.7,20.7-5.7c8.9-2.5,18.4-4.5,25.1,3.6c7,8.4,9.3,19.9,3.6,28.7c-8,12.4-17.5,25.3-29.6,33.1
	c-10.9,7-26,7.5-39.4,10.5c-1.9,0.4-4.3-1.7-7.8-3.2c-4.6,18.1-16,31-30.2,42.4c-10.2,8.3-19.5,17.8-28.5,27.5
	c-25.2,27.3-58.4,39.2-93,47.9c-7.8,2-16.8,1.2-24.9-0.2c-22.8-4-45-3.5-67.8,1.2c-10.6,2.2-23,1-33.3-2.4
	c-29.8-9.7-57.1-24.9-80.4-46c-17.3-15.7-33.6-32.6-50-49.2c-4.1-4.2-7.1-9.6-10.6-14.4c-4.4-6-3.8-11.8-0.7-18.5
	c10.4-22.9,20.6-45.9,30.3-69.1c2.7-6.5,3.3-13.9,5.2-20.7c1.3-4.5,2.8-10.5,9-8.5c2.3,0.7,3.1,6.4,4.3,9.9c0.5,1.6,0.5,3.5,0.9,7.3
	c18.8,0.7,37,10.9,60.3,2.3c-16-14.4-23-33.8-41.5-43c-6.1,5.5-11.4,10.7-17.2,15.2c-1.2,0.9-4.3-0.7-8.2-1.5
	c1.4-17,7.9-31.6,16.2-45.1c9-14.7,19.6-28.4,29.3-42.7c5.1-7.5,12.1-11.7,20.9-12.6c62.4-6.4,124.6-7.5,185,13.1
	c12.7,4.4,25.5,11.4,35.5,20.3c28.3,25,55.2,51.5,82.6,77.5c3,2.9,5.8,6.1,8.7,9.1c6.8,6.9,7.9,14.2,2.5,22.7
	C612.6,438.4,608.1,448.8,609.8,464.5z M238.8,483.9c-1.1,1.1-2.2,2.1-3.2,3.2c3.5,6.7,5.6,14.5,10.6,19.7
	c7.5,7.7,10.2,16.9,13.4,26.6c14.1,43.1,49,63.6,95.1,56.9c34.6-5,67.3-16.8,100.8-26c19-5.3,38.1-10.7,56.7-17.2
	c11.8-4.2,23.3-9.6,33.8-16.4c10.3-6.7,9.3-13.4-0.8-21.8c-1.1,0.4-2.5,0.5-3.3,1.2c-31.9,26.7-66.1,27.2-101.9,9
	c-33.2-16.9-67.9-30-103.5-40.6c-26.5-7.9-52.4-11.7-74.6,10.7c-1.5,1.6-4.3,1.9-6.2,2.7C249.6,489,244.2,486.4,238.8,483.9z
	 M506.1,393.6c-4.9-8.4-10.8-16.2-20.2-11.2c-17.4,9.2-34.7,18.9-50.5,30.5c-11.3,8.3-19.9,20.2-29.6,30.6c-0.5,0.5,0.2,2.2,0.6,4.7
	c3.9-0.9,8.1-1.1,11.5-2.8c13.7-6.8,28.1-10.3,43.4-9.4c20.9,1.1,41.7,2.5,62.6,3.7c7.4,0.4,15.1,4,23.4-3.5
	c-4.8-3.1-8.6-5.6-12.2-8c2.9-1.5,5.8-2.9,11.8-5.9c-20.6-7.1-38.4-5.6-55.9-4.9c-17.6,0.7-35,3.8-56.7,6.3
	c6.5-6.9,10.2-12.3,15.1-15.7c8.3-5.8,17.8-9.9,26.3-15.4C485.9,385.9,495.8,382.7,506.1,393.6z M434.6,345.2
	c2.5-1.5,5.2-2.8,7.5-4.6c17.5-13,35.8-14,55.1-4c1.7,0.9,4.2,0.4,9.2,0.7C480.3,320.4,452.9,321.6,434.6,345.2z M303.6,339.8
	c-11.9-13.5-21.5-13.5-30.8,2.9C284.8,332.2,294.1,333.9,303.6,339.8z"/>
<path fill-rule="evenodd" clip-rule="evenodd" fill="#FFFFFF" d="M317.4,852.5c9.4-17.2-9.9-17.5-14.2-26.3
	c13.3-17.1,21-18.7,35.8-5.3c23,20.8,49,26.9,78.3,17.5c10.2-3.3,18.9-2.2,26.8,4.7c18.9,16.6,38,32.9,56.2,50.3
	c5.7,5.4,8.4,13.9,12.8,21.6c2.7-12.5,18.8-38.3,35-56.5c11.8,8.9,18.1,21.9,23.7,34.6c18.1,41.1,35.1,82.7,52.4,124.1
	c0.4,1,0.1,2.3,0.1,5.5c-6.2,1.5-12.8,4.1-19.6,4.8c-37.5,3.9-75,8.6-112.6,10.8c-52,3-104.2,4-156.3,5.9c-8.4,0.3-16.8,0.9-25,2.1
	c-14,2-23.9-4.8-29.7-15.8c-20-37.8-37.6-76.3-36.1-120.8c0.8-24.2,13.5-42.9,25.1-62.3c4.2-7.1,11.7-8,19.2-5.4
	C298.7,845.3,308.1,849,317.4,852.5z"/>
<path fill-rule="evenodd" clip-rule="evenodd" fill="#FFFFFF" d="M315.6,743.8c62.9-3.3,124.6-6.5,187.1-9.8
	c1.2,15.3-5.3,26.2-14.2,34.8c-11.6,11.2-25.1,20.1-41.4,24.1c-26.1,6.5-51.9,14.3-79.4,10.7C338.7,799.8,316.6,776.3,315.6,743.8z"
	/>
<path fill-rule="evenodd" clip-rule="evenodd" fill="#FFFFFF" d="M603.3,344.4c-38.4-39-82-70.3-135.4-84.8
	c-29.3-7.9-59.6-12.7-89.5-18.2c-4.7-0.9-11.2,0.3-14.8,3.2c-7.4,6-14.3,3.6-24.9,2c14.6-15.9,29.1-29,48-31.7
	c25.2-3.6,51.1-7.8,76.5,0.1c35.9,11.3,67.7,30,94.8,56.3c20.7,20,40.1,41.2,55.8,65.5c3.5,5.4,6.6,11,7.6,19.2
	c-6.6-4.1-13.2-8.2-19.8-12.2C601.7,343.9,603.3,344.4,603.3,344.4z"/>
<path fill-rule="evenodd" clip-rule="evenodd" fill="#FFFFFF" d="M676.3,712c0,7.2,0,12.4,0,20.8c3.1-7.7,5.1-12.7,7.4-18.3
	c8,15-5,40.8-25.6,55c-8.5-0.5-15-2-21.3-1c-16.4,2.6-32.5,8-48.9,8.9c-12.1,0.6-24.4-4.1-36.6-6.5c-1.3-11.3-12.9-13.1-18.6-20.3
	c-5.4-6.8-0.5-19.5,8.4-20.9c13.6-2.3,27.3-3.3,40.9-5.2c27.8-4,55.6-8.3,83.4-12.4C668.3,711.6,671.2,712,676.3,712z"/>
<path fill-rule="evenodd" clip-rule="evenodd" fill="#FFFFFF" d="M258,823.4c-20.7-9-32.8-24.2-31.2-47.4c0.6-8.6,3.7-17.4,7.6-25.3
	c9.4-19.5,22.6-36,42.7-49.5c2.3,17.9,2,34.1,6.9,48.6c5,14.9,15.1,28,23.6,43.2c-5.6,3.7-11.5,7.5-17.2,11.6
	c-7.2,5.1-14,10.8-21.4,15.5c-3.2,2-7.6,1.9-11.5,2.8C257.5,823,258,823.4,258,823.4z"/>
<path fill-rule="evenodd" clip-rule="evenodd" fill="#FFFFFF" d="M603.3,344.4c0,0-1.6-0.5-1.6-0.6c9.1,9.4,18.7,18.5,27.2,28.5
	c5.2,6.1,8.7,13.6,13.1,20.9c-6.4,5.8-11.1,10.1-16.1,14.6c-22-23.1-43.6-45.7-64.8-67.9c1.3,0.3,4.7,0.9,9.1,1.8
	c-1.1-1.9-1.7-3.5-2.8-4.5c-30.9-28.9-68.7-46.7-105.5-66.1c-2.8-1.5-5.3-3.6-11.1-7.6c15.6-1.2,26,3.6,36.3,7.5
	c31.6,12,59.6,30.1,85.7,51.4C582.6,330.3,593.2,337.1,603.3,344.4z"/>
<path fill-rule="evenodd" clip-rule="evenodd" fill="#FFFFFF" d="M306.6,277.6c10.1-16,23.1-21.7,40.1-21.4
	c36.8,0.7,72.7,4.3,107,18.7c3.1,1.3,5.9,3.2,8,7.4c-25.7-2.9-51.3-7.5-77-8.3C358.7,273.2,332.6,276.3,306.6,277.6z"/>
<path fill-rule="evenodd" clip-rule="evenodd" fill="#FFFFFF" d="M432.8,1061.2c28.7-9,57.6-14.7,88.7-11.1
	c-2.8,1.9-5.6,5.3-8.5,5.5C486.3,1057.7,459.5,1059.4,432.8,1061.2z"/>
<path fill-rule="evenodd" clip-rule="evenodd" fill="#FFFFFF" d="M303.9,1052.5c12.4-0.9,24.8-1.7,37.3-2.6
	c-11.7,8.9-24.4,7-36.9,6.7C304.2,1055.2,304,1053.8,303.9,1052.5z"/>
<path fill-rule="evenodd" clip-rule="evenodd" fill="#FFFFFF" d="M581.6,894.6c-6.1-10.3-12.2-20.6-19-32
	C574.7,866.2,576.2,868.6,581.6,894.6z"/>
<path fill-rule="evenodd" clip-rule="evenodd" fill="#FFFFFF" d="M621.7,997.5c10,4.4,16.4,10.7,11.6,23.1
	C629.4,1012.9,625.6,1005.2,621.7,997.5z"/>
<path fill-rule="evenodd" clip-rule="evenodd" fill="#FFFFFF" d="M597.7,790.1c6.8-1.3,13.7-2.7,20.5-4c0.2,1.2,0.5,2.3,0.7,3.5
	c-6.8,1.3-13.7,2.7-20.5,4C598.2,792.5,598,791.3,597.7,790.1z"/>
<path fill-rule="evenodd" clip-rule="evenodd" fill="#FFFFFF" d="M552.5,1046.2c-4.7,0.9-9.4,1.8-14.1,2.7c-0.2-0.8-0.4-1.6-0.6-2.5
	c4.4-1.4,8.9-2.8,13.3-4.2C551.5,1043.5,552,1044.9,552.5,1046.2z"/>
<path fill-rule="evenodd" clip-rule="evenodd" fill="#FFFFFF" d="M645.4,822.4c-2.7-3.5-5.3-7-8-10.5c0.8-0.7,1.7-1.4,2.5-2.1
	c2.7,3.6,5.5,7.1,8.2,10.7C647.2,821.1,646.3,821.8,645.4,822.4z"/>
<path fill-rule="evenodd" clip-rule="evenodd" fill="#FFFFFF" d="M165.7,612.1c3.3-2.1,6.7-4.1,13.2-8.1c-1.9,5.8-2,7.9-3,8.6
	c-2.2,1.5-4.9,2.4-7.4,3.5C167.5,614.8,166.6,613.5,165.7,612.1z"/>
<path fill-rule="evenodd" clip-rule="evenodd" fill="#FFFFFF" d="M663.6,1063.5c1.8,3.4,3.5,6.8,5.3,10.2c-0.8,0.4-1.6,0.8-2.4,1.3
	c-1.8-3.4-3.6-6.8-5.4-10.2C661.9,1064.4,662.8,1063.9,663.6,1063.5z"/>
<path fill-rule="evenodd" clip-rule="evenodd" fill="#FFFFFF" d="M597.9,941.4c-1.5-3.1-2.9-6.3-4.4-9.4c0.8-0.4,1.7-0.7,2.5-1.1
	c1.4,3.2,2.9,6.3,4.3,9.4C599.5,940.7,598.7,941.1,597.9,941.4z"/>
<path fill-rule="evenodd" clip-rule="evenodd" fill="#FFFFFF" d="M487,705.5c4.7-1.4,6.5-2.7,7.7-2.2c1.7,0.7,3.1,2.5,4.3,4.1
	c0.2,0.3-1.3,2.5-1.5,2.4C495.5,709.4,493.7,708.5,487,705.5z"/>
<path fill-rule="evenodd" clip-rule="evenodd" fill="#FFFFFF" d="M289.8,705.2c-0.4,2.7-0.8,5.4-1.2,8c-0.6,0-1.1-0.1-1.7-0.1
	c0-2.7,0-5.5,0-8.2C287.9,705,288.8,705.1,289.8,705.2z"/>
<path fill-rule="evenodd" clip-rule="evenodd" fill="#FFFFFF" d="M33.8,345.6c-1.6,3.9-2.6,6.1-3.5,8.3c-0.4-1.8-1-3.6-1-5.4
	C29.3,347.9,30.9,347.4,33.8,345.6z"/>
<path fill-rule="evenodd" clip-rule="evenodd" fill="#FFFFFF" d="M265.6,385.9c2.6,1.8,5.3,3.5,7.9,5.3c-0.4,0.8-0.9,1.6-1.3,2.5
	c-2.9-1.3-5.9-2.6-8.8-3.9C264.1,388.4,264.8,387.1,265.6,385.9z"/>
<path fill-rule="evenodd" clip-rule="evenodd" d="M238.8,483.9c5.4,2.6,10.9,5.1,16.8,7.9c1.9-0.8,4.6-1.1,6.2-2.7
	c22.2-22.4,48.1-18.6,74.6-10.7c35.7,10.6,70.3,23.7,103.5,40.6c35.8,18.2,70,17.6,101.9-9c0.8-0.7,2.2-0.8,3.3-1.1
	c10.1,8.4,11.1,15.1,0.8,21.8c-10.4,6.8-22,12.2-33.8,16.4c-18.6,6.6-37.6,12-56.7,17.2c-33.4,9.2-66.1,21-100.8,26
	c-46.1,6.6-81-13.9-95.1-56.9c-3.2-9.7-5.9-18.8-13.4-26.6c-5-5.1-7.2-13-10.6-19.7C236.6,486,237.7,484.9,238.8,483.9z
	 M281.5,504.7c0.9,17,8.1,25.3,18.4,31.1c20.2,11.4,41.6,17.3,65.1,15c24.4-2.3,48.8-3.1,73.2-5c4-0.3,7.8-2.7,11.7-4.1
	c-0.2-0.9-0.5-1.9-0.7-2.8C394.2,527.7,339.2,516.4,281.5,504.7z"/>
<path fill-rule="evenodd" clip-rule="evenodd" d="M506.1,393.6c-10.3-10.9-20.2-7.7-30.5-0.9c-8.5,5.6-17.9,9.7-26.3,15.4
	c-4.9,3.4-8.5,8.7-15.1,15.7c21.7-2.5,39.1-5.6,56.7-6.3c17.4-0.7,35.3-2.2,55.9,4.9c-6,3-8.9,4.4-11.8,5.9c3.7,2.4,7.5,4.9,12.2,8
	c-8.2,7.5-16,3.9-23.4,3.5c-20.9-1.2-41.7-2.6-62.6-3.7c-15.3-0.8-29.6,2.7-43.4,9.4c-3.4,1.7-7.5,1.9-11.5,2.8
	c-0.4-2.5-1.1-4.2-0.6-4.7c9.7-10.4,18.3-22.3,29.6-30.6c15.7-11.7,33.1-21.4,50.5-30.5C495.3,377.4,501.2,385.2,506.1,393.6z"/>
<path fill-rule="evenodd" clip-rule="evenodd" d="M434.6,345.2c18.3-23.6,45.8-24.8,71.8-7.8c-5-0.3-7.4,0.2-9.2-0.7
	c-19.2-9.9-37.5-9-55.1,4C439.8,342.4,437.1,343.7,434.6,345.2z"/>
<path fill-rule="evenodd" clip-rule="evenodd" d="M303.6,339.8c-9.5-5.9-18.8-7.6-30.8,2.9C282.1,326.3,291.7,326.3,303.6,339.8z"/>
<path fill-rule="evenodd" clip-rule="evenodd" fill="#FFFFFF" d="M281.5,504.7c57.6,11.8,112.7,23,167.7,34.2
	c0.2,0.9,0.5,1.9,0.7,2.8c-3.9,1.4-7.7,3.8-11.7,4.1c-24.4,1.9-48.9,2.7-73.2,5c-23.6,2.2-45-3.6-65.1-15
	C289.7,530,282.5,521.7,281.5,504.7z"/>
</svg>
