<?xml version="1.0" encoding="utf-8"?>
<!DOCTYPE svg PUBLIC "-//W3C//DTD SVG 1.1//EN" "http://www.w3.org/Graphics/SVG/1.1/DTD/svg11.dtd">
<svg artist="zl2017" version="1.1" id="zlIcon-girl-dance" xmlns="http://www.w3.org/2000/svg" xmlns:xlink="http://www.w3.org/1999/xlink" x="0px" y="0px"
	 width="1000px" height="2076.9px" viewBox="0 0 1000 2076.9" enable-background="new 0 0 1000 2076.9" xml:space="preserve">
<path fill-rule="evenodd" clip-rule="evenodd" d="M75.6,237.5c-3.8,12.5-4.7,19-7.6,24.3c-18.1,33-22.9,68.9-25.5,105.7
	c-6.1,85.9,6,170.5,17.3,255c2.7,20.1,10.7,40.4,28.2,54.6c21.7,17.6,42.7,36,64.2,53.8c45.5,37.5,100.1,37,154.2,34.2
	c20.4-1.1,40-10.9,50.1-32.7c4.3-9.3,11.5-17.5,18.3-25.4c23.6-27.4,39.7-56.9,26.4-97c-44.3-35-82.7-78.9-103.2-136.8
	c-9.7-27.4-13.2-53.8-0.8-81.4c4.9-10.9,5.8-23.7,10.4-34.8c9.5-22.7,7.2-40.4-7.5-62.7c-18.8-28.5-30.6-62.3-26.6-99.1
	c3.5-31.5-13.6-60.1-15.5-91.2c-0.6-10.3-5.5-20.3-7-30.6c-6.4-42,31.2-80.5,72.7-72.2c36.9,7.3,68,27.6,93.7,54.5
	c7.6,8,8.9,22,14.3,36.5c6.3-0.7,14.6-1.7,22.9-2.4c25.8-2.1,46.3,9.4,54.3,32.6c14.2,41.8,48.9,56.4,84.3,70.7
	c30.7,12.4,62.1,22.7,93,34.7c9.6,3.7,19.3,8.6,27.2,15.2c19.3,16.2,38,14,57.8,1.7c10.2-6.3,21-11.6,29.1-16.1
	c26.2,6.1,26.9,27.8,32.8,45.2c33.6-6.2,61.4-33,98.3-17c2.6,4.9,6.8,10.7,9,17.1c4.7,13.6,17.9,33.4,27.7,41.5
	c3.9,3.2,6.2,8.1,10.3,13.7c-4.4,21.2-17,36.6-35.2,48.6c-17.3,11.4-34.1,23.5-49.3,34.1c-0.4,6.8-1.8,10.7-0.6,13.6
	c6.2,14.6,11.9,27.9,3.7,44.8c-7.6,15.7-19.9,24.4-34.1,30.7c-29.9,13-56.3,32-89.5,40.2c-27.3,6.8-51.2,28-76.1,43.7
	c-11.8,7.4-21.9,17.2-33.5,25.1c-53.7,37-60.2,41-138.4,44.6c-27.8,49.1-45.3,102.7-51.2,157.6c17.1,69.1,73.6,105.5,110.5,153.8
	c51.9,1.2,98.9,4.4,144.6-10.8c9.8-3.2,20-6.3,28.5-11.9c40.8-26.8,80.9-54.7,110.9-94.4c25.1-33.3,51.5-65.7,76-99.4
	c11.2-15.4,18.6-33.3,29.2-49.1c4.1-6.1,12.4-9.4,25.4-18.7c-2.3,16-1.5,25-5,31.7c-10.5,20-21.7,39.8-34.5,58.5
	c-34.3,50.4-66.7,102.4-115.2,141.2c-2.7,2.2-5.3,4.7-7.3,7.5c-28.3,40-64.9,67-113.4,78.7c-16.2,3.9-30.4,15.7-48.4,25.6
	c25.3,28.3,49.6,57.2,75.8,84.4c26,27,49.1,54.5,49.6,94.7c0.1,8.4,4.6,16.8,6.9,25.2c7.5,27.3,7.6,53.8-1.4,81.6
	c-10.1,31.2-18.2,63.7-21.4,96.3c-2.5,25.4,2.3,51.8,6.5,77.4c6.3,38.4-4,70.9-28.6,103c-8.5-7.1-14.7-12.3-21.9-18.3
	c-75.4,50.7-113.9,123.8-128.2,211.7c-2.5,15.5-3.2,31.4-7.3,46.5c-16.4,60.5-12.8,120.3,3.8,180.1c3.7,13.3,5.3,27.2,8.2,42.3
	c-8,8.9-16,17.6-24.9,27.5c-25.9-20.2-33.5-48.4-34.6-75c-2.7-58.9-6.8-118.2,0.3-177.2c1.5-12.1,5.3-23.9,8.9-35.6
	c15.7-51.5,35.9-101.5,44.1-155.3c1.7-10.9,15.7-19.6,5.4-34.6c-53.4-2.4-92.3,17.9-112.4,71.1c-18.5,48.9-41.9,96-57.8,145.6
	c-9.3,29.3-9,61.9-11.6,93.2c-2.2,26.1-1.9,52.3-3.7,78.5c-0.9,12.7-5.7,23.8-23.6,26.8c-11.8-14.5-15.1-31.2-13.2-51.2
	c3.5-37.3,7.5-74.6,10.8-111.9c5.1-59.4,15.2-118.4,24-183.3c-16.2,5.5-27.1,9.4-38.2,13c-11.6,3.8-23,8.3-34.9,10.6
	c-13.3,2.6-28.3-7.1-32.7-20.5c-3.2-9.6-3.7-20.1-6.5-29.9c-6.4-22.9-6.9-46.8-12.7-70c-3.4-13.7,2.8-30.8,7.3-45.5
	c12.2-40,26.1-79.5,38.6-119.3c3.7-11.5,6.5-23.7,7.3-35.7c3.5-50.4,4.8-100.9-1.8-151.2c-1.6-11.8-5.9-23.5-10.3-34.7
	c-19.1-48.7-39.2-96.9-57.9-145.8c-11.9-31.1-19-63.4-14.2-97.2c5.7-40.3-6.8-69.8-44.3-91.4c-30-17.2-55.2-42.4-83.2-63.2
	c-19.5-14.5-39.4-28.6-60.3-41c-22.2-13.2-34.5-31.3-44.1-55.5c-39-97.9-43.9-200.4-40.3-303C3.5,332.1,22.4,279.4,75.6,237.5z
	 M327.8,428.7c-0.6,23-1.2,43.6,16.8,59.6c4.8,4.2,6.5,12.2,9.3,18.6c15.3,35.6,42.8,58.7,76.9,74.6c20.3,9.5,41.6,17.1,62,26.6
	c35.3,16.3,71.5,14.5,107.3,4.2c35.8-10.3,67.6-30.1,92.6-57.1c17.2-18.5,36.6-37.5,42.2-64.4c3.5-17,7.9-34,9.1-51.2
	c1.1-15.2,1-31.6-3.5-45.9c-14.1-45.3-39.1-83-72.3-118.5c-38.3-41.1-82.5-54.4-134.3-56.1c-23.6-0.8-44.4,6.2-63.2,20.7
	c-20.7,15.9-43.2,29.6-63.2,46.2C361.8,323.5,326,367.1,327.8,428.7z M389,196.2c-7,2.2-13.4,5.7-19.8,6c-6.7,0.3-13.5-3.1-20.4-3.9
	c-10.5-1.1-21.8-1.5-26.5,10.6c-4.6,11.9,1.6,19.5,12.4,24.7c6.1,2.9,11.5,7.3,16.6,10.6c-0.8,9.6-1.4,17.4-2.4,29.3
	c27.4-16.7,52.9-28.4,73.5-45.9c22.5-19.2,51.6-25.3,77.2-42.1c-10.8-18.8-20-35.1-28.4-49.7c-28.1-2.4-20.2,27.2-39.2,36
	c-11.3-3.2-25.2-7.1-39.7-11.1C391,174.3,390,184.6,389,196.2z M787.8,319.9c4.3-14.1,7.5-24.7,12.7-41.5
	c-16.2,10.7-27,17.8-37.7,25.1c-1.3,0.9-2,2.8-6.1,8.6c1,9.4-1.3,24.9,4.7,35.8c18.6,33.9,20,69.2,15.6,106
	c-0.6,4.6,0.7,9.4,1.5,17.6c19.6-11.4,37.2-21.4,54.5-31.8c2.1-1.3,2.9-4.7,4.2-6.8c-8.3-11.1-16.4-22-24-32.1
	c7.8-21.7,14.9-41.2,21.9-60.6C819.4,333.4,804.4,327,787.8,319.9z M390.7,91.7c-22.8-26-48.2-38.5-74.5-48.7
	c-27.5,29.7-27.7,36.5-4,95.1c6.3-1.7,15.9-1.3,18.8-5.6C345.2,112.3,363.6,98.4,390.7,91.7z M855.5,372.8c12.4,8.1,22.3,4.4,31.2-5
	c7.3-7.8,6.2-15-3.3-19.7c-5.4-2.7-11.8-3.7-17.6-5.3c-3.9,6.5-7.3,10.4-8.8,15C855.6,362.3,856,367.5,855.5,372.8z"/>
<path fill-rule="evenodd" clip-rule="evenodd" fill="#FFFFFF" d="M327.8,428.7c-1.7-61.6,34-105.2,79.4-142.8
	c20.1-16.6,42.5-30.3,63.2-46.2c18.8-14.5,39.7-21.5,63.2-20.7c51.8,1.7,96,15,134.3,56.1c33.2,35.6,58.2,73.2,72.3,118.5
	c4.5,14.3,4.5,30.7,3.5,45.9c-1.2,17.2-5.6,34.2-9.1,51.2c-5.5,26.9-25,45.9-42.2,64.4c-25,27-56.8,46.7-92.6,57.1
	c-35.8,10.4-71.9,12.2-107.3-4.2c-20.4-9.4-41.7-17-62-26.6c-34.1-16-61.6-39.1-76.9-74.6c-2.7-6.4-4.4-14.3-9.3-18.6
	C326.6,472.3,327.2,451.7,327.8,428.7z M488.8,340.1c-18,5.3-32.3,14.7-42.2,29.2c-6.9,10.2-8.4,21.9-0.1,33.5
	c8.5,11.8,17.5,21.3,33.8,17.9c16-3.3,29.5-10.2,35.3-26.5c5.7-16.1,2.6-30.5-10.9-41.8C499.6,348,494.1,344.1,488.8,340.1z
	 M581.7,518.7c21.1,1.8,46.8-20.6,47.4-40.9c0.5-19-20.4-39.8-40.7-40.2c-3.3-0.1-7,0.7-10,2.1c-24,11.5-30.1,54.9-9.9,71.7
	C572.4,514.7,577.6,516.5,581.7,518.7z"/>
<path fill-rule="evenodd" clip-rule="evenodd" fill="#FFFFFF" d="M389,196.2c1-11.6,2-21.8,3.2-35.5c14.5,4.1,28.4,8,39.7,11.1
	c19-8.8,11.1-38.4,39.2-36c8.4,14.7,17.7,30.9,28.4,49.7c-25.6,16.8-54.7,22.9-77.2,42.1c-20.6,17.5-46.1,29.2-73.5,45.9
	c1-11.9,1.6-19.7,2.4-29.3c-5.1-3.3-10.5-7.7-16.6-10.6c-10.9-5.2-17-12.8-12.4-24.7c4.7-12.1,16-11.8,26.5-10.6
	c6.9,0.7,13.6,4.1,20.4,3.9C375.6,201.8,382,198.4,389,196.2z"/>
<path fill-rule="evenodd" clip-rule="evenodd" fill="#FFFFFF" d="M787.8,319.9c16.5,7.1,31.6,13.6,47.3,20.2
	c-7,19.5-14.1,38.9-21.9,60.6c7.6,10.1,15.7,20.9,24,32.1c-1.3,2.1-2.1,5.5-4.2,6.8c-17.3,10.4-34.9,20.4-54.5,31.8
	c-0.8-8.2-2-13-1.5-17.6c4.4-36.8,3-72-15.6-106c-6-10.9-3.7-26.4-4.7-35.8c4-5.8,4.7-7.6,6.1-8.6c10.7-7.3,21.5-14.4,37.7-25.1
	C795.3,295.2,792.1,305.8,787.8,319.9z"/>
<path fill-rule="evenodd" clip-rule="evenodd" fill="#FFFFFF" d="M390.7,91.7c-27.1,6.7-45.5,20.6-59.7,40.8
	c-3,4.2-12.5,3.9-18.8,5.6c-23.7-58.6-23.5-65.4,4-95.1C342.5,53.2,367.9,65.7,390.7,91.7z"/>
<path fill-rule="evenodd" clip-rule="evenodd" fill="#FFFFFF" d="M855.5,372.8c0.5-5.4,0.1-10.6,1.6-15.1c1.5-4.6,4.9-8.5,8.8-15
	c5.8,1.7,12.1,2.6,17.6,5.3c9.5,4.7,10.6,11.9,3.3,19.7C877.9,377.3,867.9,380.9,855.5,372.8z"/>
<path fill-rule="evenodd" clip-rule="evenodd" d="M488.8,340.1c5.3,4,10.8,7.9,15.9,12.2c13.5,11.3,16.5,25.7,10.9,41.8
	c-5.7,16.4-19.2,23.3-35.3,26.5c-16.3,3.3-25.3-6.1-33.8-17.9c-8.3-11.6-6.9-23.3,0.1-33.5C456.5,354.8,470.8,345.4,488.8,340.1z"/>
<path fill-rule="evenodd" clip-rule="evenodd" d="M581.7,518.7c-4.2-2.2-9.4-4-13.2-7.3c-20.2-16.8-14.1-60.1,9.9-71.7
	c3-1.4,6.7-2.2,10-2.1c20.3,0.4,41.2,21.2,40.7,40.2C628.6,498.2,602.9,520.5,581.7,518.7z"/>
</svg>
