<?xml version="1.0" encoding="utf-8"?>
<!-- Generator: Adobe Illustrator 16.0.0, SVG Export Plug-In . SVG Version: 6.00 Build 0)  -->
<!DOCTYPE svg PUBLIC "-//W3C//DTD SVG 1.1//EN" "http://www.w3.org/Graphics/SVG/1.1/DTD/svg11.dtd">
<svg version="1.1" id="Layer_1" xmlns="http://www.w3.org/2000/svg" xmlns:xlink="http://www.w3.org/1999/xlink" x="0px" y="0px"
	 width="1000px" height="1491.6px" viewBox="0 0 1000 1491.6" enable-background="new 0 0 1000 1491.6" xml:space="preserve">
<path fill-rule="evenodd" clip-rule="evenodd" d="M673.7,597.7c13.8,16,29.1,31.1,41,48.3c11.2,16.1,24.5,29.8,38.3,43.2
	c7.6,7.4,14.6,15.6,22.7,22.4c12.5,10.6,25.4,20.8,38.8,30.3c10.2,7.3,21.4,13,31.9,19.9c5.7,3.7,10.8,6.9,18.3,7.1
	c9.5,0.4,9.5,1.6,14.4,16.3c-18.9,12-37.4,24.3-56.5,35.6c-14.9,8.8-30,18.2-46.2,23.9c-27.3,9.6-54.3,20.4-83.5,24.3
	c-20.9,2.7-41.5,8.5-63.8,13.2c-1.8,31.6-14.8,60.1-15.2,91.1c-0.1,7.7-1,15.5-2.2,23.1c-2.2,13.4-2,26.7-1.9,40.3
	c0.2,46.3,8.3,91.9,11,137.9c3.7,63,16.6,123.7,36.9,183.2c4,11.8,7.4,23.8,11.7,37.8c-1.7,7.4-8.2,12.2-21.3,14
	c-0.8-2.1-2.8-5.5-3.7-9.2c-11.4-48.9-29.9-95.9-37.7-145.7c-4.4-28.5-10.2-56.8-14.4-85.3c-3.1-20.8-4.7-41.7-6.7-62.6
	c-1.6-16.4-2.8-32.8-4-49.3c-0.4-5.8-1.1-11.7-0.3-17.3c4.7-31.9,1.8-63.5-2.4-95.2c-2-15.2-0.5-30.8-0.6-46.3
	c0-7.1-4-12.5-9.7-11.9c-28.8,2.7-57.6,5.6-87.1,8.5c-7.7,15.2-9.1,31.7-9.4,48c-0.4,18.3,1.1,36.6,1.7,54.9
	c0.5,16.4,0,32.9,1.7,49.1c2.4,22.9,6.7,45.6,9.6,68.5c3.4,26.9,9.7,53.1,17.7,79c3.7,11.9,4.1,24.7,6.1,37.1
	c5.1,30.4,10.2,60.9,15.7,93.9c-3.1,5.7-10,9.9-19.2,10.4c-0.9-0.8-2-1.2-2.2-1.9c-4.7-18.4-11.6-36.8-11.5-55.7
	c0.1-27.3-4.8-53.8-9.5-80.1c-5-28.2-15.2-55.3-18.5-84.2c-3.2-28.7-9.6-57.2-14.7-85.7c-1.4-7.6-3-15.1-4.9-22.6
	c-5.9-23.4-7.7-47.4-11.5-71.1c-2.1-13.2-2.8-27.1-12-38.4c-12.7,0.1-25.2,0-37.6,0.4c-46.4,1.4-92.7,3.1-139.1,4.2
	c-10.6,0.3-21.4-0.2-31.8-2.2c-13.6-2.6-18.7-14.6-11.9-26.7c2.8-5,6.6-9.7,10.8-13.6c22.9-21.2,41-46.3,59-71.6
	c4.4-6.2,10.3-11.4,15.3-17.3c6.3-7.3,16.4-14.1,17.7-22.3c2.9-17.8,14.1-31.7,18.4-48.6c2.4-9.8,8.4-18.7,10.7-28.5
	c2.3-9.7,5.3-18.4,10.8-26.6c2.1-3.2,1.2-8.4,2-16.4c-7.3,3.9-12,5.3-15.1,8.3c-24.7,23-55.6,26.4-86.7,25.5
	c-44.4-1.3-82.5-19.8-114-50.6c-19.8-19.3-28.9-43.1-23.3-71.2c1.9-9.5,3.8-19,5.8-28.5c6.4-31.6,27.7-49.9,55.6-62.2
	c4.4-1.9,9.3-2.9,13.9-4.3c20-6,33.5-2,45.9,14c4.1,5.3,7.4,11.4,11.9,18.4c-3.2,18.3,1.3,39.5-15.2,55.3c-7.7-2.4-11-7.4-7.5-13.4
	c3.1-5.2,4.5-10.1,4.5-16c0-21-11.7-33.4-35.7-32.2c-19.9,1-34,13.2-43.2,30.2c-4.1,7.5-5.9,16.3-8.9,24.4
	c-8.8,24.4,0.9,45.3,13,65.4c2.3,3.9,7,6.7,11.2,8.9c24.9,13.1,51.1,23.6,78.4,29.9c24.1,5.5,48,2.8,68.1-14.9
	c4.9-4.3,11.7-6.6,17.6-9.9c15.4-8.7,29.5-19.1,38.8-34.4c4.4-7.3,9.9-16,9.3-23.7c-1-13.2,6.1-24.1,6.5-36.7
	c0.4-11.4,3.4-22.7,5.3-34.3c-7.6-16.2-22-26.7-33.7-39.4c-26.5-28.6-50.4-59.3-64.4-95.8c-8.2-21.6-9.8-45.2-7.3-68.5
	c3.1-29.2,13.7-56.1,26.1-82.4c2.9-6.1,5.8-12.1,8.9-18.6c-6.6-13.6-16.7-24.1-27.5-33.4c-10.4-8.9-20.8-17-25-31
	c-2.1-6.9-8.9-11.3-15.9-10.9c-26.8,1.5-53.4-4.8-80.5,3.8c-32.1,10.2-56.1,30.1-77.2,54.3c-16,18.3-28.7,38.9-33.2,63.7
	c-1.3,7.4-5.9,14.3-8.5,21.6c-8,22.9-11.7,46.2-9.9,70.7c1.1,14.1,0,29-3.5,42.7c-6.7,26.2,0,49,13.3,71c1.3,2.2,1.7,5.1,2.7,8.3
	c-13.3,3.2-18.9-7.2-23-14.4C11,397.2,4.1,375.3,2.1,352.4c-4.3-47.7,0.1-94.5,15.3-140.1c13.3-40.1,34.1-75.3,66-103.6
	c6.5-5.8,13.4-11.1,19.7-17.1c7.3-6.8,15.4-10.1,25.4-12.3c17.8-3.9,34.8-10.9,52.1-16.8c4.6-1.6,8.7-4.8,13.4-5.6
	c31.3-5.2,62.7-12.2,94.2-13.9c22.9-1.2,46.3,4,67.7,14.4c2.6,1.3,5.2,2.5,7.7,4c18.3,10.6,35.2,13.2,52.9-3.1
	c8.2-7.5,20.4-10.8,31-15.6c3.4-1.5,7.5-2.6,11.1-2.3c26,2.4,52.1,4.4,77.8,8.5c11,1.8,21.2,8.3,34.1,13.6
	c14.2-6.6,30.5-14.8,47.2-21.7c18-7.4,36.8-12.6,56.5-10.9c10.2,0.8,20.1-0.1,27.9-5.8c19.1-14,41.1-15.9,63.3-18.2
	c10.6-1.1,21.1-2.4,31.5-4.4c12.7-2.4,24.7-2.5,37,2.7c7.9,3.4,16.6,5.1,25.2,6.7c40.3,7.5,74.6,24.9,101.9,56.5
	c13.1,15.1,19.7,33.1,27.9,50.4c18.1,37.9,10.1,75.6-3.7,112.4c-9.9,26.3-22.8,51.1-41.1,73c-8.6,10.3-15.3,22.2-23.3,33.1
	c-2.3,3.2-6.2,4.7-10.9-1.2c8.3-16.1,16.9-33.1,27.8-48.7c19.9-28.6,31.1-59.7,30-94.9c-0.2-5.8-0.5-11.8,0.7-17.4
	C980.5,121,950,88.4,912.6,60c-13.8-10.5-30.6-16.4-48.2-19.3c-15.5-2.6-29.9-4.3-44.8,4.8c-10.4,6.3-23.7,7.7-35.2,12.6
	c-18.9,8.1-31.4,23.6-37.6,42.3c-12,36.2-37.1,60.2-68,79.7c-1.6,1-2.9,2.5-5.3,4.7c0,10.6-0.5,22,0.2,33.4
	c1.8,27-5.3,51.8-17.3,75.4c-8.7,17.2-22.1,33.3-25.9,51.4c-3.9,18.8-11,36.5-14.4,55.3c-1.1,5.6-4.7,10.8-5.7,16.4
	c-1.1,6.4-2.1,13.6-0.4,19.7c7.3,26.1,15.6,51.8,23.5,77.7c2.3,7.7,5.9,13.5,14.2,16.9c8.8,3.6,17.2,8.8,24.9,14.5
	c19.4,14.4,40.6,21.7,64.9,21c18.3-0.6,36.7,0.5,55.1,0.2c31.3-0.7,60.8-10.7,90.6-18.7c14.2-3.9,17.6-8.8,35.2-33.8
	c-0.6-24.8-11.2-44.1-34-56c-0.8-0.5-1.7-1-2.4-1.6c-16.6-14.5-35.1-19.7-56.6-11.3c-10.2,11.6-12.3,23.1,0.3,35.2
	c3.9,3.7,5.9,9.4,8.4,13.5c-4.7,8.5-12.5,7.3-18.4,10c-24.2-5.7-35.1-22.3-37.9-46c13.8-34.8,40.6-52.2,77.2-55.4
	c25-2.1,45.8,7.9,60.4,27.8c9.1,12.4,16.1,26.4,22.9,40.3c10.8,22.1,7,43.3-6.7,63c-16.7,24-38.7,39.4-68.1,45.6
	c-45.6,9.7-91.9,12.3-137.9,17.2c-17.2,1.8-34.7,1.2-52,1.5c-0.2-4-7.1-8.2-7.4-12.2c-0.7,0.1-1.4,0.2-2.1,0.3
	C665.1,590,672.7,594,673.7,597.7z M644.4,250.2c7.8-22.2,4.2-43.6,4.3-64.7c0.1-7.3-3-15.3-6.6-21.9
	c-13.3-24.1-30.8-44.3-55.7-57.3c-10.3-5.3-19.7-12.4-30-17.6c-18.1-9.2-36.7-17.8-57.6-18.4c-35.9-1.1-68.9,7.4-97.7,29.6
	c-17.8,13.8-32.5,30.7-44,49.8c-14.5,23.9-28.3,48.1-39.9,73.9c-9.9,22.1-14.5,44-13.5,67.3c0.5,12.3-0.8,24.8,4.1,37.2
	c14.3,36.1,36.6,63.2,75.9,73.1c3.7,0.9,7.7,1.7,11,3.5c19.5,11,41,10.5,62.2,10.7c17.3,0.2,34.7-1.1,52-2.1
	c4.6-0.3,9.6-0.9,13.6-2.9c34.9-17.6,67.6-37.7,84.8-75.3c2-4.3,5.7-7.9,7.7-12.2C626.4,298.8,644.4,277.2,644.4,250.2z
	 M662.2,145.7c5.4-1.7,8.1-2.6,10.9-3.4c32.4-9.3,39.6-21.1,31.6-52c-1.2-4.7-3-9.2-3.7-13.9c-1.3-9.3-8.5-14-15.5-14.9
	c-16.8-2.3-33.8-6.6-50.9,0.5c-11,4.5-20.9,9.3-26.2,22.1c10.6,9.2,21.7,16.9,30.4,26.9C647.5,120.8,653.8,133,662.2,145.7z
	 M530.9,759.6c-22.3-2.3-37.2,6.7-49.1,19.7c-10.7,11.8-5.7,31.1,8,39.7c17.7,11.2,36.2,9.8,55.4,5.4c13.2-3,20.1-11.2,22-23.6
	c1.9-12.3-2-23.3-13.1-30C545.8,766,536.8,762.5,530.9,759.6z M321.6,154.4c15.7-22.1,29.3-41.2,43.7-61.6
	c-17.5-9.1-35-9.9-51.5-13.4c-5.9-1.2-13.3,2.1-19.3,4.8c-13.5,6-16.4,24.7-3.9,33c9.5,6.3,15.2,14.3,20.8,23.3
	C313.8,144.6,317,148.3,321.6,154.4z M510.8,635.9c-10.8,11.3-24.7,21.9-14.4,40.9c17.5,12.6,34.9,9.4,52,0.6
	c10.2-5.3,9.9-15.5,9.8-24.8C547.5,632.8,531.3,629.3,510.8,635.9z M498,570.2c4.5,2.9,8.2,6,12.4,8c2.3,1.1,5.6,1.3,8.1,0.6
	c5.6-1.4,11.2-3.2,16.3-5.8c5.7-2.9,7.1-12.4,3.4-18c-4.4-6.6-12.9-10.1-20.3-7.9C508,550.2,500.6,555.9,498,570.2z M484.6,483.5
	c7.4,8.9,16,8.6,24.5,8.5c13.3-0.2,15.2-3.4,12.1-21.1C506.3,464.4,494.3,467.6,484.6,483.5z"/>
<path fill-rule="evenodd" clip-rule="evenodd" d="M896.5,1491.6c-26.4-4-53.1-7.5-79.6-12.2c-24.8-4.3-49.4-8.6-74.7-9.7
	c-18.2-0.8-36.2-4.1-54.4-5.5c-16.2-1.2-32.3-5.4-48.7-1.7c-1.8,0.4-5.4-2.3-6.5-4.3c-2.1-4.3,1.1-7.9,4.7-8.9
	c8.3-2.2,17.2-5.8,25.2-4.5c19.9,3.2,40.5,2.7,59.6,11.6c7.5,3.5,17.1,3.9,25.5,3.3c17.3-1.2,34.3-0.6,51.3,2.7
	c6.5,1.3,12.8,3.2,19.3,4.8c9.4,2.2,18.9,6.3,28.2,6.1c16-0.4,30.1,6.3,45.3,8.6C895.9,1482.5,898.2,1485.7,896.5,1491.6z"/>
<path fill-rule="evenodd" clip-rule="evenodd" d="M756.2,1317.8c32.1,9.1,66.4,18.8,100.7,28.7c2.5,0.7,5.6,2.7,6.6,4.9
	c0.9,2,0,6.8-1.3,7.4c-3.3,1.4-7.8,2.5-11.1,1.3c-30.4-10.6-61.9-15.2-93.6-19.7c-5.7-0.8-11.9-1.9-16.5-4.9
	c-3.3-2.1-6.7-8.1-6-11.5c0.7-3.3,6.4-6.1,10.4-7.8C747.7,1315.4,751.1,1317,756.2,1317.8z"/>
<path fill-rule="evenodd" clip-rule="evenodd" d="M858.7,1416.9c-25.6-4.2-51.8-8.4-77.9-12.7c-1.9-0.3-3.7-0.8-5.6-1.4
	c-5.2-1.5-9.2-7.1-6.8-10.4c2-2.7,5.9-5.6,8.8-5.5c8.5,0.3,17.2,1.4,25.5,3.5c17.5,4.4,34.9,9.4,52.3,14.5
	C860.4,1406.6,862.4,1410.6,858.7,1416.9z"/>
<path fill-rule="evenodd" clip-rule="evenodd" fill="#FFFFFF" d="M644.4,250.2c0,27-18,48.6-29.3,72.7c-2,4.3-5.8,7.9-7.7,12.2
	c-17.2,37.6-49.9,57.7-84.8,75.3c-4,2-9,2.6-13.6,2.9c-17.3,1-34.7,2.3-52,2.1c-21.2-0.2-42.7,0.3-62.2-10.7
	c-3.3-1.8-7.3-2.6-11-3.5c-39.3-9.8-61.6-36.9-75.9-73.1c-4.9-12.4-3.6-24.9-4.1-37.2c-1-23.3,3.6-45.3,13.5-67.3
	c11.6-25.7,25.4-50,39.9-73.9c11.5-19.1,26.1-36,44-49.8c28.8-22.3,61.8-30.8,97.7-29.6c20.9,0.6,39.5,9.2,57.6,18.4
	c10.3,5.3,19.7,12.3,30,17.6c25,13,42.4,33.2,55.7,57.3c3.6,6.6,6.7,14.6,6.6,21.9C648.5,206.6,652.1,228.1,644.4,250.2z
	 M482.4,172.3c-1.1,5.4-2.6,10.6-3.3,16c-1.3,9.7,6.2,20.5,15.1,20.8c9.8,0.3,19.2-2.1,25.7-10.8c7.9-10.5,4.6-23.5-7.2-29
	C502,164.4,492.2,167.1,482.4,172.3z M401.4,178.4c-6.4,4.2-12.6,7.1-17.3,11.6c-5.9,5.6-5.9,15.1-0.8,21.2
	c7.5,9,17.5,12.4,28.5,9.4c3.6-1,7.6-6,8.7-10C424.4,195.8,415.7,187.1,401.4,178.4z"/>
<path fill-rule="evenodd" clip-rule="evenodd" fill="#FFFFFF" d="M662.2,145.7c-8.4-12.7-14.7-24.9-23.4-34.9
	c-8.7-9.9-19.8-17.7-30.4-26.9c5.3-12.8,15.2-17.6,26.2-22.1c17.1-7,34.1-2.7,50.9-0.5c7.1,1,14.2,5.7,15.5,14.9
	c0.7,4.7,2.5,9.3,3.7,13.9c7.9,30.9,0.7,42.7-31.6,52C670.3,143.1,667.6,144,662.2,145.7z"/>
<path fill-rule="evenodd" clip-rule="evenodd" fill="#FFFFFF" d="M530.9,759.6c5.9,2.9,14.9,6.4,23.1,11.3c11.1,6.7,15,17.7,13.1,30
	c-1.9,12.4-8.8,20.7-22,23.6c-19.2,4.3-37.7,5.8-55.4-5.4c-13.7-8.7-18.7-27.9-8-39.7C493.7,766.2,508.5,757.3,530.9,759.6z"/>
<path fill-rule="evenodd" clip-rule="evenodd" fill="#FFFFFF" d="M321.6,154.4c-4.6-6.1-7.8-9.8-10.3-13.8c-5.5-9-11.3-17-20.8-23.3
	c-12.5-8.3-9.6-27,3.9-33c6.1-2.7,13.5-6.1,19.3-4.8c16.5,3.5,34,4.4,51.5,13.4C350.9,113.2,337.3,132.3,321.6,154.4z"/>
<path fill-rule="evenodd" clip-rule="evenodd" fill="#FFFFFF" d="M510.8,635.9c20.5-6.6,36.7-3.1,47.4,16.7c0,9.4,0.4,19.6-9.8,24.8
	c-17.1,8.8-34.5,12-52-0.6C486.1,657.8,500.1,647.2,510.8,635.9z"/>
<path fill-rule="evenodd" clip-rule="evenodd" fill="#FFFFFF" d="M498,570.2c2.6-14.4,10.1-20,19.9-23c7.4-2.3,15.9,1.2,20.3,7.9
	c3.8,5.6,2.3,15.1-3.4,18c-5.1,2.6-10.7,4.3-16.3,5.8c-2.5,0.7-5.8,0.5-8.1-0.6C506.2,576.2,502.4,573.2,498,570.2z"/>
<path fill-rule="evenodd" clip-rule="evenodd" fill="#FFFFFF" d="M484.6,483.5c9.7-15.9,21.7-19.1,36.6-12.6
	c3.1,17.8,1.2,21-12.1,21.1C500.6,492.1,492,492.4,484.6,483.5z"/>
<path fill-rule="evenodd" clip-rule="evenodd" fill="#FFFFFF" d="M673.7,597.7c-1-3.7-1.9-7.4-2.9-11.1c0.7-0.1,1.4-0.2,2.1-0.3
	c0.3,4,0.5,7.9,0.7,11.9C673.6,598.3,673.7,597.7,673.7,597.7z"/>
<path fill-rule="evenodd" clip-rule="evenodd" d="M482.4,172.3c9.8-5.2,19.6-7.9,30.3-2.9c11.8,5.5,15.1,18.5,7.2,29
	c-6.5,8.6-15.8,11-25.7,10.8c-8.9-0.2-16.4-11.1-15.1-20.8C479.8,182.9,481.3,177.6,482.4,172.3z"/>
<path fill-rule="evenodd" clip-rule="evenodd" d="M401.4,178.4c14.2,8.6,22.9,17.4,19,32.2c-1.1,4-5.1,9-8.7,10
	c-11,3-21-0.4-28.5-9.4c-5.1-6.1-5.1-15.6,0.8-21.2C388.9,185.5,395.1,182.6,401.4,178.4z"/>
</svg>
