<?xml version="1.0" encoding="utf-8"?>
<!DOCTYPE svg PUBLIC "-//W3C//DTD SVG 1.1//EN" "http://www.w3.org/Graphics/SVG/1.1/DTD/svg11.dtd">
<svg artist="zl2017" version="1.1" id="zlIcon-girl-dog" xmlns="http://www.w3.org/2000/svg" xmlns:xlink="http://www.w3.org/1999/xlink" x="0px" y="0px"
	 width="1000px" height="1106.7px" viewBox="0 0 1000 1106.7" enable-background="new 0 0 1000 1106.7" xml:space="preserve">
<path fill-rule="evenodd" clip-rule="evenodd" d="M334.5,730.1c0.6,2.4,0.9,5.5,2,8.2c2.3,5.4,2.8,10.9,0.2,16.2
	c-4.3,8.4-1.4,15.7,3.5,22.3c18.7,25.3,41.5,45.7,71.2,57.2c14.5,5.6,29.7,8.4,45.2,8.8c15.4,0.4,30.9,0.4,46.4,0.4
	c3.6,0,7.6,0,10.9-1.3c11.3-4.7,22.7-9.5,33.6-15.1c14.2-7.2,24.2-19,31.9-32.6c2.1-3.7,3.8-8.1,3.9-12.2c1.2-32.3,6.5-32.6-17-61.3
	c-9.5-11.6-20-18.5-35.6-20c-10.2-1-19.4-0.1-28.9,2.5c-12.8,3.6-20.2,13.8-27.1,23.8c-2.5,3.7-3,9.6-2.6,14.4
	c2.3,28.5,23.3,48.1,53.8,36.2c9.7-3.8,12-13,6.3-23.2c-3.5-6.3-7.4-12.3-11.9-19.7c13.3-1.2,20,3.4,24.8,13.9c5,11,6.6,21,0.1,31.6
	c-3.3,5.5-7.3,9.3-13.6,11.7c-20.7,8.1-38.9,6.4-57-8c-14.4-11.4-19.9-26-22.5-42.4c4.6-16.1,15.2-28.4,24.1-41.7
	c4.8-7.2,12.8-10,20.3-12.2c19.4-5.5,39.3-5.5,58.5,0.6c14.5,4.6,26.2,13.1,32.6,28c4.4,10.2,9.9,19.6,12.6,30.7
	c5.7,23.5,1.8,44.6-10.3,65.6c-12.1,21.1-29.3,34.3-51.7,41.9c-11.1,3.7-22.3,7.3-33.3,11.2c-12.4,4.4-24.1,10.1-31.7,21.3
	c-5.9,8.7-16.5,13.3-20.4,23.6c-3.4,9.2-7.2,18.3-10,27.7c-2.1,7-3.1,14.4-3.9,21.7c-0.9,7.9-0.7,16-1.5,24
	c-0.5,5.8-4.9,7.6-10.5,6.2c-6.4-1.7-9.6-6.9-10.6-11.8c-4.4-21.1-15.1-40.6-14.7-62.2c-5.1-10.9-14.7-14.2-24.6-13.6
	c-13.1,0.7-27.5-1.8-38.3,9.1c-0.4,0.4-0.9,1-1.5,1.1c-18.6,2.8-24.9,19-32.9,32.1c-7,11.4-10.7,24.8-15.7,37.4
	c-0.9,2.3-0.7,4.9-1.5,7.2c-1.4,4.2-6,7-10.1,6.4c-5.3-0.8-8.9-4.9-8.8-10.2c0-1.2-0.1-2.5,0.3-3.7c5.4-16.8,3.1-34.2,4.8-51.3
	c1.9-19.8,1-39.3-4.2-58.6c2.8-15.5-4.7-28.7-9.3-42.5c-0.8-0.9-1.5-2.2-2.5-2.6c-21.6-7.8-30.6-27.1-40.2-43.5
	c-15.5-9.2-29.3-18.4-44.1-25.8c-27.9-14.1-53.7-33.1-85.4-39c-9.1-1.7-17.9-4.4-26.9-6.3c-5.4-1.1-10.1,0.7-12.5,5.7
	c-4.5,9.6-12.9,11.1-21.7,10.4c-10.6-0.8-18.5-6.8-23.4-16.1c-1.4-2.6-1.7-5.9-1.9-8.9c-0.3-6.1-0.1-12.2-0.1-18.6
	c4.3-3.8,8.3-7.7,12.7-11c10.7-8.2,16.6-8.1,28.2-0.2c2,1.4,4,2.7,6,4.1c15.2-4.7,25.6-15.2,34.5-27.1c5.9-7.9,11.3-16,20.5-20.9
	c3.1-1.6,5.6-4.9,7.7-7.9c3.4-4.8,7.3-8,13.1-9.6c4-1.1,7.7-3.7,11.4-5.8c17.2-9.2,35.1-14.3,54.8-9.4c1.7,0.4,3.7,0.2,5.3-0.3
	c18.1-6.3,35.4-14.8,51.3-25.3c9-5.9,15.5-15.6,22.9-23.7c3-3.3,5.8-6.5,12.3-5.4c1.5,4.3,3.2,9.2,4.8,13.7
	c-10.4,13.6-17.5,27.2-15.9,44.2c0.3,3.4-2.4,6.9-2.6,10.5c-0.2,2.7,1.2,5.4,2,8.3c18.1-6.2,36.7-16.2,47.8-25.1
	c3.3-2.6,7.2-4.7,11-6.7c4.9-2.6,10-4.8,15-7.2c4.9-2.4,9.8-5,15.2-7.7c1.8,1.3,3.7,2.6,5.3,3.8c-0.3,1.9-0.1,3.2-0.6,4.2
	c-2.7,4.8-6.1,9.2-8.4,14.2c-9.8,20.6-17,42.1-21,64.7c-1.6,9-4.5,17.8-7.3,26.6c-2.4,7.4-3,14.2,2.2,21c1.4,1.8,0.2,5.6,0.2,9.2
	c10.4-1.8,20.7-3.9,30-11.1c12.7-9.8,27.3-16.7,41.6-24.1c19.6-10.1,37.8-23,56.5-34.8c3.6-2.3,6.7-5.5,10.4-7.6
	c3.8-2.2,6.2-5.1,9-8.5c5.7-7.1,13.1-13,20.3-18.8c6.5-5.1,11.3-11,13.3-19.2c2.2-9.1,8.3-15.4,16.9-18.4c7.1-2.5,11-7.4,14.3-13.5
	c5.3-9.7,10.8-19.3,16.5-28.8c3.5-5.8,7.8-11,11.2-16.8c2.8-4.7,4.8-9.8,7.5-15.4c0.3-0.2,1.2-1.4,2.3-1.6c11-2,18.6-8.9,25.4-17.1
	c6.6-8,15.4-14.4,16.8-25.9c0.3-2.9,2.7-5.5,4-8.2c6.5-13.2,12.2-26.6,14.1-41.4c0.7-5.4,3-10.5,4.9-16.6
	c-3.2-4.1-6.5-8.4-10.6-13.8c-3.5,3.5-7.8,5.8-9.1,9.3c-9.3,24.4-24.5,45.6-39,66.7c-10.5,15.2-22.8,30.4-41.2,38.2
	c-9.4-7.4-9.9-8.4-5.2-17.5c13.2-25.4,19.9-52.6,24.9-80.5c3.3-18.2,7.9-36.1,11.6-54.2c3.1-15.1,5.7-30.2,1.3-45.7
	c-2.4-8.4-4.7-16.1-10.1-23.3c-6.3-8.3-11.2-17.6-15.9-26.9c-8.3-16.6-20-30.8-29.8-46.4c-7.4-11.6-13.8-24.1-18.9-36.9
	c-3.1-7.7-3.2-16.7-3.8-25.2c-0.6-9.1-1.4-18.2-0.8-27.6c1.3-23.3,12.5-40.8,29.4-55.4c6.1-5.3,12.3-10.4,18.5-15.5
	c13.1-10.7,29-16.3,44-23.3c12.4-5.8,25.9-9.2,39.1-9.9c39-2.2,71.4,11.4,93.4,45.2c3.7,5.7,5.4,12,6.4,19
	c2.1,15.8,5.1,31.5,4.4,47.6c-0.3,5.5-0.1,11.3-1.5,16.5c-3.8,14.3-7.6,28.6-12.8,42.4c-7.1,18.9-2.6,35.1,9.8,49.5
	c6.4,7.4,14.4,13.5,21.7,20.2c11.3,10.4,22.3,20.9,35.6,29.2c21.8,13.4,26.8,31.1,18.3,55.9c-2.6,7.5-5.4,15.3-9.9,21.7
	c-6.2,8.9-5.7,17.1-1.6,26.1c4.9,10.6,9.6,21.2,14.4,31.8c0.5,1.1,1.2,2.3,2.1,3c10.3,7.8,20.4,15.9,31.1,23.2
	c5,3.4,11.1,5.1,15.6,7c7.1-2.4,12.8-4.4,18-6.1c6.2,3.1,11.4,6.4,17.2,8.4c13.3,4.8,27.1,8.4,40.2,13.5c12.8,5,22.9,14.5,31.9,24.6
	c5.7,6.4,10.1,14.1,14.9,21.2c1.3,2,3.5,4.4,3.3,6.4c-1.4,11.9,4.8,21.1,9.8,30.9c1.7,3.2,0.1,7.4-5.6,7.7c-6-8.9-12-18.1-18.2-27.3
	c-2-3-4.1-6.2-6.7-8.7c-7.5-7.3-14.8-14.6-19.6-24.2c-2.5-5.1-7.2-8.4-12.9-9.9c-22.1-6.2-44.2-11.1-67.3-4.6
	c-3.5,1-7.9-1.4-12.6-2.4c2.1-5.2,3.7-9.1,5.6-13.9c-28.3-12.7-49.6-35.2-75.6-52.8c-1.1,1.7-3.4,3.7-3.2,5.4
	c2.1,18.9,0,38.4,5.5,56.9c4.5,15.3,6.5,31.5,14.4,45.8c2,3.7,3.4,8,4.4,12.2c3.2,14.1,10.3,26.2,18.5,37.9c6.3,9,12,18.2,15.2,29.3
	c3.2,11,10.1,20.8,15.5,31.2c0.8,1.6,2.6,3.1,2.8,4.7c3.2,22.6,14.5,42.9,18.2,65.3c4.4,26.5,12.1,52.4,14,79.4
	c5,5.9,1,10.8-1.1,16.6c-8.1,23.2-17,46.1-23,69.9c-2.5,10.1-6.1,20-9.5,29.8c-7,19.8-9.2,40.5-12.4,61.1
	c-3.2,20.8,0.9,41.6-2.7,62.2c4.3,19,0.4,38,0.2,57c-0.1,9.6,2.5,19.2,4.2,31.2c-0.9,1.4-3.1,4.9-5.9,9.3c-2.4-1.5-5.6-2.3-6.1-4
	c-2.7-8.1-6.2-16.1-5.1-25c1.3-10.5,1-20.9-2.9-31c-0.4-1.1-0.8-2.4-0.8-3.6c0.4-17.3,0.3-34.6,1.4-51.8c0.8-13.9,4.5-27.5,3.1-41.7
	c-0.4-3.5,1-7.3,1.6-10.9c5.6-30.2,11.2-60.4,16.7-90.7c0.6-3.3,0.1-6.9,0.1-10.9c-9.2,1-11.7,8.4-10.5,13.2c2.1,8.3-2.1,14.3-4,21
	c-2.1,7.7-4,15.4-5.6,23.2c-2.3,10.7-5.8,21.3-10.4,31.2c-2.2,4.7-3.6,8.9-3.3,13.9c0.4,7.5-2,14.5-3.7,21.7
	c-3.9,16.3-17.3,66-16.5,86.8c0.3,7.9-1.4,15.9-3,23.8c-0.5,2.6-2.9,5.2-5.1,7.1c-2.2,2-7.9-0.5-7.1-2.9c4.3-12.6-3.1-25.1,0.5-38.1
	c3.3-11.8,6.4-24,8.2-35.9c3-19.5,12.4-37.5,12.5-57.6c0-5.4,1.3-11.2,3.3-16.2c5.5-13.2,5.6-27.5,8.8-41.1
	c2.8-11.6,0.6-24.4,0.6-36.4c-11.3-14.1-24.2-26.6-30.2-44c-1.4-4-4.2-7.5-6.6-11.1c-5-7.7-9.6-15.8-15.3-22.9
	c-6.1-7.7-13.2-14.6-20.1-21.5c-15.6-15.8-31.9-30.8-46.8-47.2c-11.7-12.8-19.9-28.7-25.3-44.9c-6.8-20.3-13-41-14.3-63
	c-1.1-17.1,2.7-33.1,5.8-49.3c3.1-16.4,6.4-32.7,6-49.5c-0.2-6.1,1.4-12.2,1.4-18.4c0.1-13.5-0.2-27-0.7-40.5
	c-0.2-4.7-1.6-9.4-2.8-16.4c-7.1,10.5-13.2,19.3-18.9,28.3c-8.5,13.5-16.7,27.3-25,40.9c-3.5,5.7-8.4,11-3.1,18.2
	c-1.7,8-4.3,16.1-11.2,20.4c-18.2,11.3-27.1,31.7-43.9,44.2c-5,3.7-7.9,8.6-9.4,15.3c-1.3,5.6-6,10.4-10,16.7
	c0.8,3.6,2.1,8.3,2.7,13c0.5,4.2-3.5,7.2-7.1,5.4c-3.1-1.7-6.2-3.8-8.6-6.4c-2.4-2.5-4-5.9-6.6-9.8c-4,3.2-7.5,5.6-10.4,8.5
	c-25.9,26-55.5,47-86.9,65.5c-12.2,7.2-25,13.3-37.3,20.4C365.7,711.2,350.6,720.5,334.5,730.1z M870.4,788.5
	c-2.7-9.6-5.7-18.4-2.3-27.7c0.8-2.1,0.2-4.9-0.2-7.3c-3.6-20.5-7.1-41.1-11.2-61.5c-4.3-21.8-14.3-41.8-21.8-62.5
	c-6.1-16.7-14.2-32.6-21.7-48.7c-2.1-4.4-4.8-8.7-8.1-12.4c-23.3-26-32.5-59.1-45.7-90.1c-0.7-1.7-1.1-3.6-1.4-5.4
	c-3-20.1-4.4-40.4-3.1-60.6c0.5-8.5,3.1-16.9,5.6-25.1c5.3-17.9,14.8-33.9,24.7-49.5c6.2-9.8,8.8-20.3,9.3-31.4
	c0.5-10.8-3.8-18.9-14.5-23.2c-4.4-1.8-8.5-4.8-12.2-7.9c-10.7-9.3-20.8-19.3-31.9-28.2c-6.8-5.4-13.7-10.1-18.4-17.9
	c-4-6.6-9.3-7.6-16-4.8c-7.2,3-14.4,6.2-22,9.6c-2,6.7-5.9,13.7-5.8,20.7c0.2,29.8-7.6,57-23.4,82c-1.6,2.5-2.8,5.2-3.9,7.3
	c7.6,11.9,13.5,23.3,17.3,35.8c3,10,5.5,20.2,9.4,29.9c4,9.9,6.7,20.3,5.7,30.4c-1.2,11,2.1,21.7-0.2,32.8c-2,9.5-3.2,19.6-2.4,29.3
	c1.3,15.9-1.8,30.7-7.3,45.2c-4.8,12.8-5.8,26.3-7.9,39.6c-1.1,7.1-0.8,15.2,1.3,22.1c5.4,18.1,9.4,36.5,19.4,53.4
	c11.5,19.3,25.6,36,42.5,50.1c13.4,11.2,25.7,23,35.9,37.1c2.5,3.5,5,7.3,8.3,9.8c9.3,6.8,13.8,17.3,20.8,25.9
	c7.5,9.2,13.5,18.7,15.8,30.5c0.7,3.9,3.8,7.5,5.6,10.8c15.9-1.2,27.5-10,39.2-17.6C857.6,803.8,863.6,795.5,870.4,788.5z
	 M570.9,426.1c8.7-9,16.7-15.9,22.9-24c12.3-16,24.7-31.6,33.8-50.1c9-18.4,15.5-37.5,22.4-56.5c1.2-3.4,2.9-7.3,2.4-10.7
	c-1.6-10.7,1.4-20.7,2.8-31c1.2-9.3,1.4-18.2-3.2-26.9c-1.6-3-1.7-7.1-1.7-10.6c0.2-14-4-26.6-10.8-38.7
	c-6.9-12.3-13.4-24.8-19.6-37.6c-10-20.7-14.4-43-17.1-65.7c-0.6-4.8-0.6-10.1,1-14.5c4.8-13.3,10.2-26.4,21.8-35.7
	c1.8-1.4,4.7-2,4.3-6.3c-2.8,0.3-5.7,0.3-8.5,1c-15.7,3.8-29.8,11.6-44.1,18.7c-9.3,4.7-18.4,10-26.7,16.3
	c-10.4,7.8-19.6,17.2-23.2,30.3c-4.4,15.8-10.6,30.9-6.6,48.5c3.5,15.7,7.2,30.9,14.7,45.3c4.3,8.2,9.9,15.2,15.1,22.7
	c11,16,22,32.2,29.8,50.2c10.2,23.5,13.5,48.2,13.7,73.6c-4.5,13-4.3,26.6-5.9,40c-0.3,2.4-0.5,5-1.1,7.3
	C581.9,389.4,576.6,406.9,570.9,426.1z M296.3,695.5c-0.1-1.1-0.2-2.2-0.3-3.3c-3-0.5-6.3-0.5-8.9-1.8c-1.8-0.9-3.5-3.3-4-5.4
	c-0.3-1.1,1.4-3.6,2.8-4.3c3.3-1.6,7.1-2.1,10.5-3.6c5.3-2.3,5.8-6.9,1.5-11.7c-6.3-6.9-5.8-8.8,3.5-11.2c2.3-0.6,4.6-1.1,7.7-1.8
	c-0.7-5.2-1.4-9.9-1.9-14.3c13.6-8,15.7-10.9,22.2-31.3c-6.7,3.9-12.4,7.1-17.9,10.5c-11,6.8-21.9,13.7-34.1,18.3
	c-7.8,3-14.5,1.4-20.8-2.7c-3.5-2.3-6.2-5.7-6.9-6.4c-3.3-14.5-1.3-26.3-0.2-41c-7.7,6.4-12.9,11.8-19,15.5
	c-6.2,3.8-13.3,6.1-19.7,8.9c3.4,7.5,6.7,14.6,9.7,21.7c1.6,3.7,3.9,6.9,7.8,7c11.8,0.1,19.2,7.7,26.5,15.1
	c14.9,15.3,16.7,40,4.2,57.5c-5.7,8-11.9,15.8-18.3,23.4c-5.3,6.4-12.5,10.7-20.7,11c-15.2,0.6-29.5-3.1-41.3-13.3
	c-6-5.3-11.6-11.1-16.9-17.1c-4.1-4.7-6.7-10.1-5.8-16.9c0.5-4-0.9-8.2-1.5-12.5c-18.3-4.2-32.7-12.4-39.2-30.6
	c-11.7,1.7-20.6,5.6-27.7,14.5c-5.3,6.7-12.5,11.8-18.7,17.9c-2.4,2.4-4,5.4-6.4,8.7c61,10.5,110,41.4,156.3,78.8
	c0.4-0.1,1.8-0.3,2.7-1c5.8-4.6,10.9-10.2,17.2-13.9c6.8-4,14.5-6.4,21.8-9.5c1.1-0.5,2.2-1.1,3.2-1.9c12.6-9.6,23.8-20.8,34.4-31.7
	c-3.5-13.3-14.1,1-18.8-6.9c-2.1-5.2,0.5-9.1,5.6-11.3C288.4,697.4,292.5,696.6,296.3,695.5z M660.6,188c4.8,0.7,8.4,1.7,12,1.8
	c15.4,0.4,20.2-3.7,25.9-18.1c6.5-16.4,11.2-33.3,14.4-50.6c2.7-14.4,6.4-28.9,1.8-43.7c-2-6.4-5.2-12.8-5.3-19.3
	c-0.1-8.9-4.6-13.3-11.3-17.3c-9.9-5.9-20.6-10.2-29.9-17.1c-1.6-1.2-5.9-1.6-6.7-0.6c-8,9.6-24.2,11.1-26.4,26.4
	c-0.1,0.9-1.6,2.1-2.6,2.3c-6.6,1.7-7.8,6.7-8.9,12.5c-4.4,22.6-0.5,43.6,10.7,63.5c1.5,2.7,3.5,5.2,4.3,8.1
	C643.7,153.7,653.2,169.6,660.6,188z M309.6,844.5c6.4-18.4,19.4-29.3,29-44.2c-3.1-0.8-5.7-2.3-7.2-1.6c-3.9,1.7-7.6,4-10.8,6.8
	c-7,6-13.5,12.6-20.4,18.8c-1.4,1.3-3.7,3.6-6.3-0.6c8.6-13.2,21.8-23.4,30.4-38.5c-5.3-1.5-8.6-0.4-11.5,2.1
	c-8.3,7.3-16.9,14.4-24.8,22.2c-3.9,3.8-6.2,9.1-9.8,13.2c-4.3,4.9-4.2,10.5-2.3,15.6c4.1,11,8.1,21.9,6.8,33.9
	c6.1,15.2,5.5,31.4,7.4,47.2c0.1,0.8,1.5,1.4,2.2,2.1c1.2-0.5,3-0.7,3.4-1.5c9.3-21.3,26.5-33,48.1-39.5c3.5-1.1,6.9-2.6,10.4-3.6
	c12.4-3.4,24.8-2.7,35.7,4c10.6,6.5,18.6,15,20.4,29c2.5,18.8,7.5,37.3,11.5,56c3-14.6,7.3-28.8,8.4-43.3
	c0.9-12.1,5.3-22.2,10.2-32.8c4.3-9.5,10.1-17.8,17.5-25.5c-12.5-5.6-10.1,8.9-18,10.8c-1.2-2.9-3-5.9-3.7-9.1
	c-0.7-3.3,1.4-7.9-4.4-8.3c-4.1-0.3-4.4,3.5-5.8,6c-1.1,2.2-2,4.5-3.5,6.4c-2.7,3.4-5.9,4.1-9.1,0.5c0.4-6.5,6.1-12.2,3.6-19.9
	c-9.8,1.7-9.1,11.4-15,17.3c-1.6-2.1-3.9-3.9-3.7-5.3c0.5-4.2,2.4-8.2,2.8-12.3c0.2-1.8-1.7-4.2-3.3-5.5c-0.7-0.6-3.4,0.7-4.7,1.7
	c-4.2,3-4.4,10.5-12.7,10.5c-0.5-2.2-1.7-4.5-1.3-6.4c0.6-2.9,2.9-5.4,3.5-8.3c0.4-1.9-0.7-4.4-1.9-6.2c-0.4-0.5-3.8,0.1-4.9,1.1
	c-5.2,5.2-10,10.9-15.2,16.1c-1.6,1.7-4.1,3.1-7.1-0.5c2.3-3.7,4.8-7.7,7.3-11.7c2.3-3.6,5.2-7,6.6-10.9c1.2-3.5-1.7-5.3-6.8-5.8
	c-3.8,4.3-8.4,9.1-12.7,14.3c-3.6,4.2-6.7,8.9-10.3,13.1c-1.8,2.2-4.2,2.2-6.2-0.5c3.6-6.2,6.9-12.7,10.9-18.8
	c4.2-6.4,9.1-12.4,13.7-18.6c-9.1-5.2-9.4-5.5-13.6-1.1c-8.6,8.8-16.9,18-25.5,26.8C315.5,841.3,313.4,842.1,309.6,844.5z
	 M245.1,682.4c-6.7-12.5-16.1-21-28.3-26.5c-9-4-17.8-4.2-26.1,2.2c-13.5,10.4-23.4,22-16.2,40.6c-0.3,13.7,8.7,19.2,20,22.4
	c5.3,1.5,11.5,1.3,15.9,4c8.7,5.3,15,2.2,21.5-3.4c7.7-6.7,13.3-14.2,12.4-25.3C243.9,691.5,244.8,686.6,245.1,682.4z M259.4,812.4
	c7.7-6.3,15-11.9,21.8-18c12.9-11.5,26.6-22.2,37.5-35.7c2.3-2.8,5.5-6.4,5.3-9.4c-0.7-8.9-1.8-18.1-9-24.6
	c-6.4,1.6-9.9,5.9-13.8,9.9c-7.7,8-15.1,16.6-24,23c-12.5,8.9-26.3,15.8-39.5,23.7c-2.4,1.5-4.5,3.6-6.8,5.5
	c3.6,5.7,6.7,10.2,9.4,15C244.7,809.6,251.1,813.2,259.4,812.4z M188.2,614.4c-20.2-5.4-28-5.2-42.4,2.4c-5.2,2.7-9.6,7.4-13.8,11.7
	c-4.2,4.4-0.3,9.1,0.4,13.8c0.6,4-2.3,8.3,1.1,12.2c5.7,6.5,11,13.1,20.7,13.8c3.1,0.2,6.1,2.5,10.1,4.3c4.1-7.7,6.6-16.8,14.5-22.1
	c8-5.5,16-11.1,24.4-17C199.8,625.3,192.5,621.1,188.2,614.4z M41.9,693c-7.6-5.5-13.1,2-19.5,1.9c-6.8-0.2-9.4,5.7-10.7,10.5
	c-1.6,5.6,4,8.3,8.1,10.9c6.3,3.9,18.1,0.4,20-6.4C41.2,704.3,41.3,698.5,41.9,693z"/>
<path fill-rule="evenodd" clip-rule="evenodd" d="M544.7,1038.1c-4,0.6-7.9,1.9-11.9,1.8c-8.7-0.2-17.1,0.8-25.6,2.7
	c-10.2,2.3-20.8,2.6-31.1,4c-16.5,2.2-33,3.6-49.5,5.3c-15.2,1.6-30.2,6-45.4,8.2c-12.2,1.7-24.6,2.1-36.9,2.8
	c-2.1,0.1-4.2-1.2-7.4-2.2c2.1-2.3,3-4.4,4.3-4.6c11.4-2.2,22.5-5.7,34.5-5.5c7.9,0.1,16.1-1.2,23.7-3.5c15-4.5,30.6-2.3,45.7-4.7
	c10.8,3.8,20.8-0.7,30.6-3.8c10.7-3.5,20.7-6.5,32.2-2.6c5.5,1.8,12.2,0.3,18.3,0c5.9-0.4,11.7-1.2,17.6-1.9
	C544,1035.3,544.3,1036.7,544.7,1038.1z"/>
<path fill-rule="evenodd" clip-rule="evenodd" d="M999.5,1054.2c-5.6,8.7-12.9,10.3-20.9,11.3c-26.2,3.3-52.3,7.1-78.4,10.7
	c-1.8,0.3-3.7,0.5-5.5,0.4c-3.3-0.2-6.5-1.9-6.4-5.3c0.1-2.7,1.9-5.5,3.6-7.8c0.9-1.2,3.3-1.5,5.1-1.6c12.8-0.8,25.7-1.3,38.5-2.2
	c9.8-0.7,19.5-2.1,29.2-2.9C976.4,1055.7,987.9,1055,999.5,1054.2z"/>
<path fill-rule="evenodd" clip-rule="evenodd" d="M357.6,1020.3c2.5-2.2,4.7-5.8,7.6-6.4c14.9-3.3,30.1-5.6,45.5-4.2
	c4.1,0.4,8.1,2,12.2,3c4,0.9,8,1.7,13.5,2.8c-2.1,2-3.1,3.9-4.2,3.9c-15.1,0.3-30.2-1.8-45.2,1.7c-5.9,1.4-11.9,2.8-18,3.5
	c-3.4,0.4-6.9-0.3-10.4-0.6C358.2,1022.8,357.9,1021.6,357.6,1020.3z"/>
<path fill-rule="evenodd" clip-rule="evenodd" d="M581.4,1029.7c1.5,0.7,3.4,2.4,4.3,2c7-3.6,14.1-2.9,21.6-2.5
	c14.5,0.7,29,0.6,43.7,0.8c-3.9,4.5-8.7,5.9-14.6,5.8c-13.5-0.2-27,0-40.5-0.1c-3,0-6.1-0.3-9-0.9c-2.9-0.5-0.9-6.2-5.3-5.5
	L581.4,1029.7z"/>
<path fill-rule="evenodd" clip-rule="evenodd" d="M501.8,1079.7c-0.9-2.4-1.8-5.1-3.1-9c16.6-2.4,32-2.4,48.9-1.1
	C538.1,1077.7,524.4,1080.5,501.8,1079.7z"/>
<path fill-rule="evenodd" clip-rule="evenodd" d="M581.5,1029.3c-6.3,9.5-15.3,7.4-25,6.4c6-6.9,13.4-7.5,20.5-8.6
	c1.3-0.2,2.8,1.8,4.3,2.7C581.4,1029.7,581.5,1029.3,581.5,1029.3z"/>
<path fill-rule="evenodd" clip-rule="evenodd" fill="#FFFFFF" d="M870.4,788.5c-6.9,6.9-12.8,15.3-20.7,20.4
	c-11.7,7.6-23.3,16.5-39.2,17.6c-1.8-3.3-4.8-6.9-5.6-10.8c-2.2-11.9-8.2-21.4-15.8-30.5c-7-8.5-11.5-19-20.8-25.9
	c-3.4-2.5-5.8-6.3-8.3-9.8c-10.2-14.1-22.5-25.9-35.9-37.1c-16.8-14.1-30.9-30.8-42.5-50.1c-10.1-16.9-14-35.3-19.4-53.4
	c-2.1-6.9-2.4-14.9-1.3-22.1c2.1-13.3,3.1-26.8,7.9-39.6c5.4-14.5,8.5-29.3,7.3-45.2c-0.8-9.7,0.4-19.8,2.4-29.3
	c2.3-11-0.9-21.7,0.2-32.8c1.1-10.1-1.7-20.5-5.7-30.4c-3.9-9.7-6.3-19.9-9.4-29.9c-3.8-12.5-9.7-23.9-17.3-35.8
	c1.1-2.1,2.4-4.8,3.9-7.3c15.8-25.1,23.6-52.3,23.4-82c0-7,3.8-14,5.8-20.7c7.6-3.3,14.8-6.5,22-9.6c6.7-2.8,12-1.8,16,4.8
	c4.7,7.8,11.6,12.4,18.4,17.9c11,8.9,21.1,18.9,31.9,28.2c3.6,3.1,7.8,6.1,12.2,7.9c10.7,4.4,15,12.4,14.5,23.2
	c-0.6,11.1-3.1,21.6-9.3,31.4c-9.9,15.6-19.4,31.6-24.7,49.5c-2.4,8.2-5,16.6-5.6,25.1c-1.3,20.3,0.1,40.5,3.1,60.6
	c0.3,1.8,0.7,3.7,1.4,5.4c13.2,31.1,22.4,64.1,45.7,90.1c3.3,3.6,6,7.9,8.1,12.4c7.5,16.1,15.6,32.1,21.7,48.7
	c7.6,20.7,17.5,40.7,21.8,62.5c4,20.4,7.5,41,11.2,61.5c0.4,2.4,1,5.2,0.2,7.3C864.7,770.1,867.8,778.9,870.4,788.5z M692.1,233.6
	c-1.4,3.7-2.9,6.3-3.5,9.1c-2.1,10.8,0.4,21.9-2.8,32.8c-0.8,2.7,1.8,7.1,4.1,9.8c6.7,7.8,17.6,9.3,27,4.7
	c9.5-4.6,15.9-11.3,17.1-23.3C724.3,251.4,707.3,244.5,692.1,233.6z M715.2,668.9c12.4,19.1,33.3,40.2,45.5,46.3
	c0.2-1.1,0.8-2.4,0.4-3.4c-0.6-1.7-1.5-3.5-2.8-4.6c-12.9-11.1-25.6-22.4-31.9-39C724.9,664,723.1,664.1,715.2,668.9z M745.5,679.1
	c9.6,12,18.6,23.3,27.6,34.6c1.9,2.4,3.8,2.4,5.2-0.8c-8.2-13.3-16.4-26.6-25.2-40.8C750.2,674.8,748.2,676.6,745.5,679.1z
	 M774.7,735.3c1-0.9,2.1-1.8,3.1-2.6c-2.6-3.1-5.1-6.3-7.8-9.2c-1.7-1.7-3.8-3.1-6.3,1.2C767.2,728,771,731.6,774.7,735.3z"/>
<path fill-rule="evenodd" clip-rule="evenodd" fill="#FFFFFF" d="M570.9,426.1c5.7-19.1,11-36.7,16.1-54.3c0.7-2.3,0.9-4.8,1.1-7.3
	c1.6-13.4,1.4-27.1,5.9-40c-0.2-25.3-3.5-50.1-13.7-73.6c-7.8-18-18.9-34.2-29.8-50.2c-5.1-7.5-10.8-14.5-15.1-22.7
	c-7.6-14.4-11.2-29.6-14.7-45.3c-4-17.6,2.3-32.7,6.6-48.5c3.6-13.2,12.8-22.5,23.2-30.3c8.3-6.2,17.4-11.6,26.7-16.3
	c14.3-7.2,28.4-15,44.1-18.7c2.7-0.7,5.6-0.7,8.5-1c0.5,4.4-2.5,4.9-4.3,6.3c-11.5,9.3-17,22.4-21.8,35.7c-1.6,4.4-1.6,9.7-1,14.5
	c2.7,22.7,7.1,45,17.1,65.7c6.1,12.7,12.7,25.2,19.6,37.6c6.7,12.1,11,24.7,10.8,38.7c-0.1,3.6,0.1,7.6,1.7,10.6
	c4.6,8.7,4.4,17.6,3.2,26.9c-1.3,10.3-4.4,20.3-2.8,31c0.5,3.4-1.1,7.3-2.4,10.7c-6.9,19.1-13.4,38.1-22.4,56.5
	c-9.1,18.5-21.6,34.2-33.8,50.1C587.6,410.2,579.6,417,570.9,426.1z M613.6,298c7.7,0.1,9.4-4.5,10.1-9.5
	c2.6-18.2,5.2-36.5,7.4-54.7c0.5-4.2,0.5-8.9-0.9-12.8c-3.1-8.5-6.9-16.8-11.2-24.8c-7.7-14.4-10.8-31-20.8-44.3
	c-1.9-14-9.5-26.2-13.3-39.6c-2.9-10.1-4.8-20.3-4.3-30.9c0.2-4.6,0.8-9.5-3.4-14.6c-2.5,2.3-5.1,3.6-5.6,5.4
	c-1.1,4-2.2,8.6-1.6,12.6c2.1,12,4.1,23.9,8.1,35.8c6.1,17.9,10.7,35.8,21.3,52.1c8.2,12.6,12.8,27.7,18,42.1
	c2.5,6.8,4,14.4,3.7,21.6c-0.7,15.9-1.6,31.9-6.1,47.5C613.9,288.2,614.1,293.1,613.6,298z M592.1,205.4c-2.1-4.2-3.3-9.3-6.4-12.5
	c-4.1-4.2-6.5-8.8-8.4-14.1c-6.5-18.2-9.4-36.7-6.1-56c0.5-3.1,0.3-6.2-4.1-7.1c-5.8,3.4-8.1,8.8-7.8,15.3c0.2,4.3,1.1,8.6,1.4,12.9
	C562.6,168.5,569.7,190.6,592.1,205.4z M552.2,100.9c-3.8-0.2-6.4-1.1-8.3-0.3c-1.9,0.9-4,3.2-4.6,5.2c-4.2,15.2-1.2,30.1,2.8,44.9
	c0.9,3.4,2.8,6.8,8,7.7c-1.4-9.8-2.9-19.2-4.2-28.6C544.5,120,548,110.9,552.2,100.9z"/>
<path fill-rule="evenodd" clip-rule="evenodd" fill="#FFFFFF" d="M296.3,695.5c-3.9,1.2-7.9,2-11.5,3.6c-5.1,2.2-7.7,6.1-5.6,11.3
	c4.7,7.9,15.3-6.4,18.8,6.9c-10.7,10.9-21.8,22-34.4,31.7c-1,0.7-2.1,1.4-3.2,1.9c-7.3,3.1-15,5.5-21.8,9.5
	c-6.3,3.7-11.5,9.3-17.2,13.9c-0.9,0.7-2.3,0.9-2.7,1c-46.3-37.4-95.3-68.2-156.3-78.8c2.4-3.3,4.1-6.4,6.4-8.7
	c6.1-6.1,13.3-11.2,18.7-17.9c7.1-8.9,16-12.8,27.7-14.5c6.5,18.2,20.9,26.4,39.2,30.6c0.6,4.3,2.1,8.6,1.5,12.5
	c-0.9,6.9,1.7,12.3,5.8,16.9c5.3,6,10.9,11.8,16.9,17.1c11.8,10.3,26.1,13.9,41.3,13.3c8.2-0.3,15.4-4.6,20.7-11
	c6.3-7.6,12.5-15.4,18.3-23.4c12.5-17.5,10.8-42.2-4.2-57.5c-7.3-7.4-14.6-15.1-26.5-15.1c-3.9,0-6.3-3.2-7.8-7
	c-3-7.2-6.3-14.2-9.7-21.7c6.4-2.8,13.5-5.1,19.7-8.9c6.1-3.8,11.2-9.1,19-15.5c-1.1,14.7-3.1,26.5,0.2,41c0.8,0.7,3.5,4.1,6.9,6.4
	c6.4,4.1,13.1,5.7,20.8,2.7c12.2-4.7,23.1-11.6,34.1-18.3c5.5-3.4,11.2-6.6,17.9-10.5c-6.5,20.4-8.6,23.3-22.2,31.3
	c0.6,4.4,1.2,9.1,1.9,14.3c-3,0.7-5.3,1.2-7.7,1.8c-9.3,2.4-9.8,4.2-3.5,11.2c4.3,4.7,3.8,9.3-1.5,11.7c-3.4,1.5-7.1,2-10.5,3.6
	c-1.4,0.7-3.1,3.1-2.8,4.3c0.6,2.1,2.2,4.5,4,5.4c2.7,1.2,5.9,1.2,8.9,1.8C296.1,693.3,296.2,694.4,296.3,695.5z"/>
<path fill-rule="evenodd" clip-rule="evenodd" fill="#FFFFFF" d="M660.6,188c-7.3-18.4-16.9-34.2-22-52c-0.8-2.9-2.8-5.4-4.3-8.1
	c-11.2-19.9-15-41-10.7-63.5c1.1-5.8,2.3-10.8,8.9-12.5c1-0.3,2.5-1.4,2.6-2.3c2.2-15.3,18.4-16.8,26.4-26.4c0.9-1,5.1-0.6,6.7,0.6
	c9.4,6.8,20.1,11.2,29.9,17.1c6.7,4,11.2,8.5,11.3,17.3c0.1,6.4,3.3,12.9,5.3,19.3c4.6,14.8,0.9,29.3-1.8,43.7
	c-3.3,17.3-8,34.1-14.4,50.6c-5.7,14.4-10.5,18.6-25.9,18.1C668.9,189.7,665.3,188.7,660.6,188z M705,80c-2.6-6.7-6.6-9.2-11.9-9.8
	c-5.4-0.5-11,3-13.2,8.3c-1.6,3.7,0.5,7,7.1,10.9c0.9,0.5,2.3,0.2,4,0.3C695.1,86.9,699.6,83.7,705,80z M653.2,85.3
	c-14.1,12-14.1,16.6-1,24.9C665.2,98.3,665.3,97.1,653.2,85.3z"/>
<path fill-rule="evenodd" clip-rule="evenodd" fill="#FFFFFF" d="M309.6,844.5c3.8-2.4,5.9-3.2,7.4-4.6c8.6-8.9,16.9-18,25.5-26.8
	c4.3-4.3,4.5-4.1,13.6,1.1c-4.6,6.2-9.5,12.2-13.7,18.6c-4,6-7.3,12.5-10.9,18.8c2.1,2.6,4.4,2.6,6.2,0.5c3.6-4.2,6.7-8.8,10.3-13.1
	c4.3-5.1,8.9-10,12.7-14.3c5.1,0.5,8,2.3,6.8,5.8c-1.4,3.9-4.4,7.3-6.6,10.9c-2.5,4-5,8-7.3,11.7c3,3.6,5.5,2.1,7.1,0.5
	c5.2-5.2,10-10.9,15.2-16.1c1.1-1.1,4.5-1.7,4.9-1.1c1.2,1.7,2.3,4.2,1.9,6.2c-0.6,2.9-2.9,5.4-3.5,8.3c-0.4,2,0.8,4.3,1.3,6.4
	c8.2,0.1,8.5-7.4,12.7-10.5c1.4-1,4-2.2,4.7-1.7c1.6,1.3,3.5,3.7,3.3,5.5c-0.4,4.2-2.4,8.2-2.8,12.3c-0.2,1.5,2.2,3.2,3.7,5.3
	c5.8-5.9,5.2-15.6,15-17.3c2.5,7.7-3.1,13.4-3.6,19.9c3.3,3.6,6.4,2.9,9.1-0.5c1.5-1.9,2.4-4.3,3.5-6.4c1.4-2.6,1.7-6.3,5.8-6
	c5.8,0.4,3.6,5,4.4,8.3c0.7,3.2,2.5,6.2,3.7,9.1c7.9-1.9,5.4-16.4,18-10.8c-7.4,7.7-13.2,16-17.5,25.5c-4.9,10.6-9.3,20.7-10.2,32.8
	c-1.1,14.4-5.4,28.7-8.4,43.3c-4-18.7-9-37.2-11.5-56c-1.9-14-9.8-22.5-20.4-29c-10.9-6.7-23.3-7.4-35.7-4c-3.5,1-6.9,2.5-10.4,3.6
	c-21.5,6.5-38.7,18.1-48.1,39.5c-0.3,0.8-2.1,1-3.4,1.5c-0.8-0.7-2.1-1.3-2.2-2.1c-1.9-15.8-1.3-32-7.4-47.2
	c1.3-12-2.7-22.9-6.8-33.9c-1.9-5.1-2.1-10.7,2.3-15.6c3.6-4.1,6-9.4,9.8-13.2c7.9-7.8,16.5-14.9,24.8-22.2
	c2.9-2.5,6.2-3.6,11.5-2.1c-8.7,15.1-21.9,25.3-30.4,38.5c2.5,4.2,4.9,1.8,6.3,0.6c6.9-6.1,13.4-12.7,20.4-18.8
	c3.2-2.8,7-5.1,10.8-6.8c1.5-0.7,4,0.8,7.2,1.6C329,815.2,316,826.1,309.6,844.5z"/>
<path fill-rule="evenodd" clip-rule="evenodd" fill="#FFFFFF" d="M245.1,682.4c-0.3,4.2-1.1,9.2-0.7,14c1,11.1-4.6,18.6-12.4,25.3
	c-6.5,5.6-12.8,8.7-21.5,3.4c-4.5-2.7-10.6-2.5-15.9-4c-11.3-3.2-20.3-8.7-20-22.4c-7.3-18.6,2.7-30.2,16.2-40.6
	c8.3-6.4,17-6.2,26.1-2.2C229,661.3,238.3,669.9,245.1,682.4z M193.3,689.6c3.2,3,5.7,6.6,9.2,8.2c2.1,1,6-0.4,8.5-1.8
	c6-3.4,5.6-7.5-1.4-20C202.2,676.5,197.2,680.3,193.3,689.6z"/>
<path fill-rule="evenodd" clip-rule="evenodd" fill="#FFFFFF" d="M259.4,812.4c-8.3,0.7-14.8-2.8-19.2-10.7c-2.7-4.8-5.8-9.3-9.4-15
	c2.3-1.9,4.4-4,6.8-5.5c13.2-7.9,27-14.9,39.5-23.7c8.9-6.3,16.3-15,24-23c3.9-4,7.4-8.3,13.8-9.9c7.1,6.5,8.3,15.7,9,24.6
	c0.2,3-3,6.6-5.3,9.4c-10.9,13.6-24.6,24.2-37.5,35.7C274.4,800.5,267.1,806.1,259.4,812.4z"/>
<path fill-rule="evenodd" clip-rule="evenodd" fill="#FFFFFF" d="M188.2,614.4c4.3,6.8,11.6,11,15,19c-8.4,5.8-16.4,11.4-24.4,17
	c-7.8,5.4-10.4,14.4-14.5,22.1c-4-1.8-7-4.1-10.1-4.3c-9.7-0.7-15.1-7.3-20.7-13.8c-3.4-3.9-0.5-8.2-1.1-12.2
	c-0.7-4.7-4.6-9.4-0.4-13.8c4.1-4.4,8.5-9,13.8-11.7C160.2,609.1,168,609,188.2,614.4z M161.9,629.4c-6,1-11.2,3.4-14.8,8
	c1.2,5.9,3.1,10.5,8.5,11.8c2.1,0.5,5-0.1,6.8-1.2c1.9-1.1,3.7-3.3,4.4-5.4C168.7,637.3,165,633.6,161.9,629.4z"/>
<path fill-rule="evenodd" clip-rule="evenodd" fill="#FFFFFF" d="M41.9,693c-0.7,5.4-0.7,11.3-2.2,16.8c-1.9,6.8-13.7,10.3-20,6.4
	c-4.1-2.5-9.7-5.3-8.1-10.9c1.4-4.7,4-10.6,10.7-10.5C28.8,695.1,34.3,687.6,41.9,693z"/>
<path fill-rule="evenodd" clip-rule="evenodd" d="M692.1,233.6c15.2,10.9,32.2,17.8,41.9,33.1c-1.2,11.9-7.6,18.6-17.1,23.3
	c-9.4,4.6-20.3,3-27-4.7c-2.3-2.6-4.8-7.1-4.1-9.8c3.1-10.9,0.7-22,2.8-32.8C689.2,239.9,690.7,237.3,692.1,233.6z M694.3,274.8
	c4.6,2.9,8.5,5.3,13.2,8.3c3.3-6.7,8.1-11.3,9.5-18.9c-5.2-3.3-10.1-6.3-15.4-9.6C699.1,261.5,697.1,267.1,694.3,274.8z"/>
<path fill-rule="evenodd" clip-rule="evenodd" d="M715.2,668.9c7.9-4.8,9.7-4.9,11.3-0.7c6.3,16.6,18.9,27.9,31.9,39
	c1.3,1.1,2.2,2.9,2.8,4.6c0.3,1-0.3,2.3-0.4,3.4C748.5,709.1,727.6,688,715.2,668.9z"/>
<path fill-rule="evenodd" clip-rule="evenodd" d="M745.5,679.1c2.7-2.4,4.7-4.3,7.7-7.1c8.8,14.2,17,27.5,25.2,40.8
	c-1.4,3.2-3.3,3.2-5.2,0.8C764.1,702.4,755.1,691.1,745.5,679.1z"/>
<path fill-rule="evenodd" clip-rule="evenodd" d="M774.7,735.3c-3.7-3.6-7.5-7.2-11-10.6c2.4-4.3,4.6-2.9,6.3-1.2
	c2.8,2.9,5.2,6.1,7.8,9.2C776.8,733.5,775.8,734.4,774.7,735.3z"/>
<path fill-rule="evenodd" clip-rule="evenodd" d="M613.6,298c0.5-4.9,0.3-9.8,1.6-14.3c4.5-15.5,5.4-31.5,6.1-47.5
	c0.3-7.1-1.2-14.8-3.7-21.6c-5.2-14.4-9.8-29.5-18-42.1c-10.6-16.3-15.3-34.2-21.3-52.1c-4-11.8-6.1-23.7-8.1-35.8
	c-0.7-4,0.4-8.5,1.6-12.6c0.5-1.8,3.1-3.1,5.6-5.4c4.2,5.1,3.6,10,3.4,14.6c-0.5,10.6,1.4,20.8,4.3,30.9
	c3.8,13.4,11.3,25.6,13.3,39.6c10,13.3,13.1,29.9,20.8,44.3c4.3,8,8,16.3,11.2,24.8c1.4,3.9,1.4,8.6,0.9,12.8
	c-2.2,18.3-4.8,36.5-7.4,54.7C622.9,293.5,621.3,298.1,613.6,298z"/>
<path fill-rule="evenodd" clip-rule="evenodd" d="M592.1,205.4c-22.4-14.8-29.5-36.9-31.4-61.4c-0.3-4.3-1.2-8.6-1.4-12.9
	c-0.3-6.6,2-12,7.8-15.3c4.4,0.8,4.6,3.9,4.1,7.1c-3.3,19.2-0.4,37.8,6.1,56c1.9,5.2,4.3,9.9,8.4,14.1
	C588.8,196.1,590.1,201.1,592.1,205.4z"/>
<path fill-rule="evenodd" clip-rule="evenodd" d="M552.2,100.9c-4.2,10-7.7,19.1-6.3,28.9c1.3,9.4,2.8,18.8,4.2,28.6
	c-5.2-0.9-7.1-4.3-8-7.7c-4-14.7-7-29.7-2.8-44.9c0.6-2.1,2.6-4.4,4.6-5.2C545.7,99.8,548.4,100.7,552.2,100.9z"/>
<path fill-rule="evenodd" clip-rule="evenodd" d="M705,80c-5.3,3.7-9.8,6.8-14.1,9.8c-1.6-0.1-3,0.2-4-0.3
	c-6.6-3.9-8.7-7.2-7.1-10.9c2.2-5.2,7.8-8.8,13.2-8.3C698.4,70.8,702.3,73.3,705,80z"/>
<path fill-rule="evenodd" clip-rule="evenodd" d="M653.2,85.3c12.1,11.8,12,13-1,24.9C639.1,101.9,639.2,97.3,653.2,85.3z"/>
<path fill-rule="evenodd" clip-rule="evenodd" d="M193.3,689.6c3.9-9.3,8.8-13.1,16.2-13.5c7,12.5,7.4,16.6,1.4,20
	c-2.5,1.4-6.4,2.8-8.5,1.8C199,696.2,196.5,692.6,193.3,689.6z"/>
<path fill-rule="evenodd" clip-rule="evenodd" d="M161.9,629.4c3,4.1,6.8,7.9,5,13.3c-0.7,2.1-2.5,4.3-4.4,5.4
	c-1.9,1.1-4.7,1.7-6.8,1.2c-5.5-1.3-7.4-5.9-8.5-11.8C150.7,632.9,155.9,630.4,161.9,629.4z"/>
<path fill-rule="evenodd" clip-rule="evenodd" fill="#FFFFFF" d="M694.3,274.8c2.8-7.7,4.8-13.3,7.4-20.2c5.3,3.3,10.1,6.4,15.4,9.6
	c-1.5,7.7-6.3,12.3-9.5,18.9C702.7,280.1,698.8,277.6,694.3,274.8z"/>
</svg>
