<?xml version="1.0" encoding="utf-8"?>
<!DOCTYPE svg PUBLIC "-//W3C//DTD SVG 1.1//EN" "http://www.w3.org/Graphics/SVG/1.1/DTD/svg11.dtd">
<svg artist="zl2017" version="1.1" id="zlIcon-hide-box" xmlns="http://www.w3.org/2000/svg" xmlns:xlink="http://www.w3.org/1999/xlink" x="0px" y="0px"
	 width="1000px" height="832.5px" viewBox="-415 -345.4 1000 832.5" enable-background="new -415 -345.4 1000 832.5"
	 xml:space="preserve">
<g>
	<path d="M335.9-345.4c6.9,4.3,13.6,8.5,18.8,11.8c13.7,41.3,20,82.1,23.7,123c1.5,17.3,4.5,33.3,10.6,49.2
		c8.8,22.7,12.2,46.8,15.3,70.8c2.7,20.4,3.3,41,5.7,61.4c1.4,12.4,4.6,24.6,6.8,36.8c1.1,6.1,2.2,12.2,2.9,18.4
		c1.4,11.5,2.5,23,3.7,34.4c50.7,25,105.2,36.4,156.8,59.1c5.7,6.2,5.8,14.2-1,20.4c-25.2,23.1-44.7,51.1-65.4,77.9
		c-18,23.4-37.6,45-59.3,64.9c-7.8,7.1-13.4,16.7-19.9,25.2c-11.9,15.5-18.3,17.2-36.5,10.7c-35.1-12.6-70.4-24.9-105.6-37.3
		c-5.9-2.1-11.7-4.6-17.8-5.9c-9.5-2-19.1-3.2-29.5-4.8c-3.4,4-7.3,7.7-10.2,12.1c-14.7,22.4-28.5,45.5-43.8,67.5
		c-25.5,36.6-51,73.3-83.1,104.7c-6.4,6.2-11.8,13.4-17.8,20c-9.9,10.8-22.2,14.3-36.4,11c-4.3-1-8.8-1.6-13.1-2.7
		c-48.3-12.5-96.5-25.3-144.9-37.5c-10.3-2.6-21.1-3.2-31.7-4.3c-13.3-1.3-26.6-1.9-39.9-3c-17-1.4-33.4,3.5-50.2,5
		c-23,2-46.1,4-69.2,4.8c-13.9,0.5-23.9-15.5-18.6-28.8c3-7.4,7.6-14.2,11.8-21c22.7-36.6,43.3-74.2,57.9-114.9
		c1.2-3.2,1.5-6.7,2.6-11.9c-4.5-0.3-7.8-0.9-10.9-0.6c-23.9,2.8-47.7,6.1-71.5,8.7c-20.3,2.2-40.7,3-60.9,5.4
		c-13,1.6-21.9-4.2-30.1-12.1c1.2-10.2,8.4-14.6,14.5-19.6c17.1-14.2,34.8-27.8,51.5-42.5c11.3-10,21.9-21,31.6-32.6
		c14.2-17.2,30.6-29.7,53.3-32c3.4-0.3,6.7-1.6,9.5-2.2c1-2.6,2.3-4.4,2-5.8c-5.1-29.1-10.7-58.1-15.7-87.2
		c-2.9-16.8-6.5-33.6-7.1-50.5c-1.6-39.7-10.8-78.1-18.1-116.8c-4.8-25.5-10.2-50.8-15.1-76.3c-1.8-9.3,2.7-18,11.1-22.3
		c1.6-0.8,3.4-1.2,5.1-1.7c36.5-9.3,68.3-30.3,103.8-42.1c11.7-3.9,22.4-10.9,33.8-16c7.2-3.2,15.1-5,22.3-8.4
		c12-5.6,23.2-14.1,35.7-17.3c12.6-3.2,26.4-1,39.6-2.1c19.5-1.6,39.2-2.6,58.5-6.2c57-10.4,115.3-8.5,172.3-20.2
		c27.7-5.7,56.6-5.4,85-8.1C283.8-339.4,308.5-342.4,335.9-345.4z M205.4-194c-5.5-0.7-9.8-1.7-14.2-1.7c-32.1,0.1-64.1,0-96.2,0.9
		c-24.9,0.7-49.9,5.5-74.5,3.8c-40.1-2.8-79.8,1.8-119.7,2.6c-20.4,0.4-40.7,2.6-61.1,2.8c-31.8,0.3-63.5-0.7-95.3-0.5
		c-9.6,0.1-19.2,2.2-28.6,3.3c-4.9,20.1,1,37.8,5.8,54.3c10.4,36.2,17.6,72.9,22.7,110.1c2,14.2,3.8,28.4,6.2,42.5
		c5.9,33.5,12.1,66.8,18.1,100.3c4.4,24.7,8.6,49.4,12.8,74c1.8,10.4,3.6,20.9,5.4,31.7c33.2,3.5,64.4,9.3,96.9,7.4
		c47.9-2.8,96.1-0.5,144.2-1.3c18.6-0.3,37.2-2.5,55.7-4.9c18.5-2.3,37-9.1,55.2-8.2c29.5,1.4,53.9-10.7,80.2-20.4
		c0-18.6,0.1-35.5,0-52.5c-0.1-16.2,1.1-32.5-0.8-48.4c-2.5-20.4-1.2-40.9-3-61.1c-1.5-16.4,3.4-32,3-48c-0.4-21.5-1.7-43-3.7-64.4
		c-2.5-27.7-5-55.3-3.4-83.2C211.7-167.3,212.2-180.1,205.4-194z M-202.1,273.6c-3.5,24.1-14.8,50.7-28.9,69.4
		c-3.7,5-8.4,9.8-10.2,15.5c-6.1,19-16,35.8-26.2,52.7c-1.5,2.4-1.4,5.8-2.4,10.4c13.7-0.7,25.2-1,36.7-1.9
		c41.7-3.2,83.1-7.5,125.1-0.6c31.6,5.2,63.5,7.9,94.9,14.8c20,4.4,39.8,9.2,60.7,9.2c13.8,0,22.9-4,32.5-14
		c43-44.8,78.2-95.5,113.6-146.1c0.7-1-0.3-3.2-0.6-6c-20.1-1.2-40.4-3.3-60.7-3.3c-24-0.1-48,1.8-72,2.6c-10.7,0.4-21.6,1.8-32,0
		c-26.3-4.5-53.5,2.5-79.2-7c-37.3-1.5-74.6-2.3-111.9-4.8C-176.5,263.5-188.9,265.1-202.1,273.6z M267.7,238.5
		c6,4.3,8.7,6.8,11.8,8.4c30.5,14.9,63.2,24,94.8,36.1c0.8,0.3,1.7,0.5,2.6,0.8c13.1,4.7,24,4,32-10c3.4-5.9,9.9-10.1,15.1-15
		c3.8-3.6,8.2-6.8,11.7-10.8c29.3-33.7,57.5-68.5,95.5-93.2c5.2-3.4,9.1-8.6,6.9-18.2c-11.7-10.1-27.5-17.2-42.9-23.1
		c-25.6-9.8-52.5-16.2-79-23.6c-3.9-1.1-8.5,0.8-13.5,1.3c-6.7,16.8-18.9,28.3-32,39.3c-10.9,9.2-19.9,20.5-29.6,31
		c-16.9,18.3-32.1,38.2-52.6,53.2C280.9,220.5,275.7,229.3,267.7,238.5z M-348.7,239.4c4.4,2.8,7.1,6,9.6,5.9
		c26.7-1.2,53.4-2.8,80-4.8c6.8-0.5,13.5-3.1,21.1-4.9c-2.1-19.2-3.7-36.8-6.2-54.4c-0.7-4.7-4.2-8.9-6.3-13
		c-20.3,1.9-35.9,9.2-48.2,23.7c-3.4,4-8,7-11.9,10.7C-322.9,214.4-335,226.1-348.7,239.4z"/>
	<path fill="#ECD078" d="M205.4-194c6.8,14,6.3,26.7,5.7,39.1c-1.5,27.9,1,55.5,3.4,83.2c1.9,21.4,3.2,42.9,3.6,64.4
		c0.3,16-4.5,31.6-3,48c1.8,20.3,0.5,40.7,3,61.1c1.9,15.9,0.7,32.3,0.8,48.4c0.1,17,0,34,0,52.5c-26.3,9.7-50.8,21.8-80.2,20.4
		c-18.2-0.8-36.7,5.9-55.2,8.2c-18.5,2.3-37.1,4.6-55.7,4.9c-48.1,0.8-96.3-1.5-144.2,1.3c-32.6,1.9-63.7-3.9-96.9-7.4
		c-1.9-10.9-3.6-21.3-5.4-31.7c-4.3-24.7-8.4-49.4-12.8-74c-6-33.4-12.2-66.8-18.1-100.3c-2.5-14.1-4.3-28.3-6.2-42.5
		c-5.1-37.2-12.2-73.9-22.7-110.1c-4.7-16.5-10.6-34.2-5.8-54.3c9.5-1.1,19-3.3,28.6-3.3c31.8-0.2,63.5,0.8,95.3,0.5
		c20.4-0.2,40.7-2.4,61.1-2.8c39.9-0.8,79.6-5.5,119.7-2.6c24.6,1.7,49.6-3,74.5-3.8c32-0.9,64.1-0.7,96.2-0.9
		C195.6-195.7,199.9-194.7,205.4-194z M27.4-83.9c-8.2,1.9-15.1,3.2-21.9,5.2c-11.4,3.3-17.9,11-19.4,22.9
		c-0.6,4.4-1.6,8.8-1.9,13.2C-17.3-20.2-4-6.1,18.9-5.7c2.7,0,5.3,0.3,7.9,0.4c13.3,0.4,21.6-6.5,26.5-18.3
		c5.9-14.3,5.4-28-5.3-39.9C41.5-70.7,34.3-77.1,27.4-83.9z M-74.1-83.1c-6.8,1-14,1.3-20.7,3.2c-17.5,5-24.9,19.7-19.5,37.4
		c5.1,16.6,25.2,31.3,42.5,30.9c21.1-0.4,30.2-9.2,33.5-30C-33.9-70.2-50.9-81.4-74.1-83.1z M-223.2-25.1c1.2-4.8,2.7-7.5,2.3-9.8
		c-6.2-36.9-12.8-73.8-12.2-111.4c0-3.2-1.8-7.1-4-9.4c-2.2-2.2-6.4-4.1-9.1-3.4c-2.5,0.6-5.9,5-5.7,7.5c0.8,13.3,1.6,26.8,4.1,39.8
		c5.2,26.2,11.3,52.2,17.5,78.1C-229.7-30.9-226.4-28.8-223.2-25.1z M-202.2-146.9c-10.3-2-11.8,5.1-12.1,10.9
		c-1.4,29,3.9,56.7,17.9,82.4c2.1,3.9,5.3,3.9,9.9-1.3c-10-15.5-11.1-33.9-11-52.9C-197.4-120.9-200.6-134-202.2-146.9z"/>
	<path fill="#ECD078" d="M-202.1,273.6c13.1-8.6,25.5-10.1,39.6-9.2c37.2,2.6,74.6,3.3,111.9,4.8c25.7,9.6,52.9,2.5,79.2,7
		c10.4,1.8,21.3,0.3,32,0c24-0.8,48-2.6,72-2.6c20.3,0,40.6,2.1,60.7,3.3c0.3,2.8,1.3,5,0.6,6c-35.4,50.6-70.7,101.3-113.6,146.1
		c-9.6,10-18.7,14-32.5,14c-20.9,0-40.7-4.8-60.7-9.2c-31.4-6.9-63.4-9.6-94.9-14.8c-42.1-6.9-83.4-2.6-125.1,0.6
		c-11.5,0.9-23,1.2-36.7,1.9c1-4.6,0.9-8,2.4-10.4c10.1-16.9,20.1-33.7,26.2-52.7c1.8-5.7,6.5-10.6,10.2-15.5
		C-216.9,324.3-205.6,297.8-202.1,273.6z M92,369.9c12.3-16,25.1-32.5,37.6-49.1c2-2.7,3.5-6.2,3.9-9.6c0.3-2.2-1.4-5.5-3.2-6.7
		c-1.6-1.1-6.1-1-7,0.3c-12.9,17.9-25.7,35.8-38,54.2C82.8,362.9,84.6,367.6,92,369.9z M61.8,339.2c4.7-0.5,7.9,0.2,9.5-1.1
		c8.9-7.3,17.1-15.5,20.5-26.9c0.7-2.5-1-6.5-2.9-8.8c-0.9-1.1-5.5-0.6-7.1,0.8C71.6,311.9,62.6,321.6,61.8,339.2z"/>
	<path fill="#ECD078" d="M267.7,238.5c7.9-9.2,13.1-18.1,20.7-23.6c20.5-15,35.6-34.9,52.6-53.2c9.7-10.5,18.8-21.9,29.6-31
		c13.1-11.1,25.3-22.5,32-39.3c5-0.6,9.6-2.4,13.5-1.3c26.5,7.3,53.4,13.8,79,23.6c15.4,5.9,31.2,12.9,42.9,23.1
		c2.2,9.5-1.7,14.8-7,18.2c-38.1,24.6-66.3,59.4-95.5,93.2c-3.5,4-7.8,7.1-11.7,10.8c-5.2,4.9-11.7,9.1-15.1,15
		c-7.9,14-18.8,14.7-32,10c-0.8-0.3-1.7-0.5-2.6-0.8c-31.6-12-64.3-21.2-94.8-36.1C276.4,245.4,273.8,242.9,267.7,238.5z
		 M381.5,163.5c14.4-13.3,25.8-23.7,37.1-34.3c2.6-2.4,5.8-4.8,6.7-7.9c1.1-3.5-0.1-7.7-0.4-12.3c-22,10.2-35.7,23.2-43.7,41.5
		C380.2,153,381.3,156.4,381.5,163.5z"/>
	<path fill="#ECD078" d="M-348.7,239.4c13.8-13.3,25.9-25.1,38.1-36.8c3.9-3.7,8.5-6.7,11.9-10.7c12.3-14.4,27.9-21.8,48.2-23.7
		c2,4,5.6,8.3,6.3,13c2.5,17.5,4.1,35.2,6.2,54.4c-7.6,1.8-14.2,4.4-21.1,4.9c-26.6,2-53.3,3.5-80,4.8
		C-341.6,245.4-344.3,242.2-348.7,239.4z M-272.9,192.8c-12.9,5.8-20.9,13.8-28.3,22.5c-1.5,1.7-2.3,5.6-1.3,7.3
		c1.4,2.5,5.7,6.2,7,5.6c10.6-4.8,19.9-11.8,25.1-22.6C-269.2,203-271.7,198.4-272.9,192.8z"/>
	<path d="M27.4-83.9c6.9,6.8,14.2,13.2,20.6,20.4c10.7,11.9,11.2,25.6,5.3,39.9C48.4-11.8,40.1-4.9,26.8-5.3
		c-2.7-0.1-5.3-0.4-7.9-0.4C-3.9-6.1-17.3-20.2-15.8-42.6c0.3-4.4,1.3-8.8,1.9-13.2c1.6-11.9,8.1-19.6,19.4-22.9
		C12.2-80.7,19.2-82,27.4-83.9z M20.4-24.5c9.3-0.1,15.5-3.4,17-9.5c1.7-6.6-0.6-12.1-5.4-16.6c-5.2-4.9-10.5-9.3-18.6-6.6
		C4.7-54.3,1-48.6,2.3-39.1C3.9-28.6,9.1-24.4,20.4-24.5z"/>
	<path d="M-74.1-83.1c23.2,1.7,40.2,12.9,35.8,41.6c-3.2,20.8-12.4,29.5-33.5,30c-17.3,0.3-37.4-14.3-42.5-30.9
		c-5.4-17.7,1.9-32.4,19.5-37.4C-88.1-81.9-80.9-82.1-74.1-83.1z M-57.9-35.7c2-15.2,1.6-21.4-3-22.8c-5.6-1.7-11.8-1.7-17.7-1.8
		c-3.4-0.1-7,0.9-10.3,1.9c-6.5,1.9-8.7,9-5.1,14.7C-85.2-30-73.1-29.6-57.9-35.7z"/>
	<path d="M-223.2-25.1c-3.2-3.7-6.5-5.8-7.1-8.6c-6.2-26-12.3-52-17.5-78.1c-2.6-13.1-3.4-26.5-4.1-39.8c-0.1-2.5,3.2-6.8,5.7-7.5
		c2.6-0.7,6.9,1.3,9.1,3.4c2.3,2.3,4.1,6.2,4,9.4c-0.6,37.7,6,74.5,12.2,111.4C-220.5-32.5-222-29.9-223.2-25.1z"/>
	<path d="M-202.2-146.9c1.7,12.9,4.8,26,4.7,39.2c-0.1,19,1,37.4,11,52.9c-4.7,5.2-7.8,5.2-9.9,1.3c-14-25.7-19.2-53.4-17.9-82.4
		C-214-141.8-212.5-148.9-202.2-146.9z"/>
	<path d="M92,369.9c-7.4-2.3-9.2-7-6.6-10.9c12.2-18.4,25-36.3,38-54.2c0.9-1.3,5.3-1.4,7-0.3c1.8,1.2,3.5,4.5,3.2,6.7
		c-0.4,3.3-1.9,6.9-3.9,9.6C117.1,337.5,104.3,353.9,92,369.9z"/>
	<path d="M61.8,339.2c0.8-17.5,9.8-27.3,19.9-36.1c1.6-1.4,6.2-1.8,7.1-0.8c1.9,2.3,3.7,6.3,2.9,8.8c-3.3,11.4-11.5,19.6-20.5,26.9
		C69.7,339.4,66.5,338.7,61.8,339.2z"/>
	<path d="M381.5,163.5c-0.2-7.2-1.3-10.5-0.2-12.9c8-18.3,21.7-31.3,43.7-41.5c0.2,4.6,1.4,8.8,0.4,12.3c-0.9,3-4.2,5.5-6.7,7.9
		C407.3,139.8,395.9,150.2,381.5,163.5z"/>
	<path d="M-272.9,192.8c1.2,5.5,3.8,10.2,2.5,12.9c-5.1,10.8-14.4,17.8-25.1,22.6c-1.3,0.6-5.6-3.1-7-5.6c-1-1.7-0.1-5.6,1.3-7.3
		C-293.8,206.7-285.8,198.6-272.9,192.8z"/>
	<path fill="#9C8851" d="M20.4-24.5C9.1-24.4,3.9-28.6,2.3-39.2C1-48.6,4.7-54.3,13.5-57.3c8.1-2.7,13.4,1.7,18.6,6.6
		c4.8,4.5,7,10.1,5.4,16.6C36-28,29.8-24.6,20.4-24.5z"/>
	<path fill="#9C8851" d="M-57.9-35.7C-73.1-29.6-85.2-30-94-43.8c-3.6-5.7-1.4-12.8,5.1-14.7c3.3-1,6.9-1.9,10.3-1.9
		c5.9,0.1,12.1,0.1,17.7,1.8C-56.3-57.2-55.8-51-57.9-35.7z"/>
</g>
</svg>
