<?xml version="1.0" encoding="utf-8"?>
<!DOCTYPE svg PUBLIC "-//W3C//DTD SVG 1.1//EN" "http://www.w3.org/Graphics/SVG/1.1/DTD/svg11.dtd">
<svg artist="zl2017" version="1.1" id="zlIcon-home-with-dog" xmlns="http://www.w3.org/2000/svg" xmlns:xlink="http://www.w3.org/1999/xlink" x="0px" y="0px"
	 width="1000px" height="1269.8px" viewBox="0 0 1000 1269.8" enable-background="new 0 0 1000 1269.8" xml:space="preserve">
<path fill-rule="evenodd" clip-rule="evenodd" fill="#FFFFFF" d="M832,596c15.9-39.3,4.5-72.4,5.4-104.9
	c0.2-6.6-10.1-15.6-17.6-20.1c-83.1-50-166.6-99.3-250-148.8c-5.1-3-10.1-6.3-15.5-8.7c-21.5-9.4-42.8-12.1-65.1-0.7
	c-33.7,17.2-68.6,32.1-102.2,49.4c-41,21.1-81.1,43.9-121.7,65.7c-46.1,24.7-89.1,53.8-130.6,85.7c-17.6,13.6-21,27.6-16.7,45.9
	c8.7,36.8,17.6,73.7,28.2,110.1c11.4,39.6,24.9,78.7,37.2,118c10.1,32.4,19.8,65,29.8,98.2c27.2-2.7,50.5-6.2,73.8-6.9
	c39.2-1.1,78.5,0.8,117.6-0.8c27.7-1.1,54.8,0.3,80.2,11.6c26.4,11.8,52.2-8.5,78.3,0c1.4,0.5,4-2.1,5.8-3.6
	c59-50.6,117.9-101.4,178.2-153.3c23.3,20.5,48.3,42.5,74.9,66c0-28.6,0-52.9,0-77.4c-37.6-15.6-38.4-16.3-48.7-39.1
	c14.9,7.7,30.9,16,49.1,25.4c5.3-36.4,9.9-67.8,14.3-97.9c-35.6-19.3-64.4-42-87.6-71.1c1.5-2,3-3.9,4.5-5.9
	C778.4,553,803.5,573.1,832,596z"/>
<path fill-rule="evenodd" clip-rule="evenodd" fill="#FFFFFF" d="M323.3,241.7c-5.3-14.4-16.9-15.4-29.1-12
	c-22.7,6.2-44.8,14.7-67.7,19.9c-19.4,4.5-28.3,15.4-29.1,34.3c-0.4,8.1-0.8,16.3-1.2,24.9C245.9,297.9,293.2,272.8,323.3,241.7z"/>
<path fill-rule="evenodd" clip-rule="evenodd" fill="#FFFFFF" d="M252.7,385.4c52.6-26.6,58.2-19.4,42.6-90.6
	c-21.6,9.7-42.4,19-62.7,28.1C231.8,347.7,234.3,367.9,252.7,385.4z"/>
<path fill-rule="evenodd" clip-rule="evenodd" fill="#FFFFFF" d="M394.3,1129.9c2.6,19.3,15.6,24.5,28.3,18.1
	c9.9-4.9,20.7-17.6,22-28c2.3-17.6-8-30.9-31.4-33.4c-13.9,1.3-15.8,4.2-23.2,15C387.1,1116.1,392.4,1121,394.3,1129.9z"/>
<path fill-rule="evenodd" clip-rule="evenodd" fill="#FFFFFF" d="M330.3,1128.7c12.2,2.9,20.2,6.6,28.8,5.3
	c16.6-14.9,19.2-32.1,27.3-47.2c-32.3-7.4-40.3,3.9-42.5,6.3C331.4,1106.1,330.1,1111.9,330.3,1128.7z"/>
<path fill-rule="evenodd" clip-rule="evenodd" d="M637.3,297.2c2.8-6.1,6.5-11.1,7.4-16.5c5-26.8,10.5-53.6,13.5-80.7
	c5-45.9,1.4-45.4-33.3-58.3c-16.6-6.2-33.3-12.3-49.1-20.2c-11.6-5.8-21.8-14.5-32.7-21.9c1.7-2.8,3.4-5.7,5.1-8.5
	c36.6,14.7,73.1,29.3,114.4,45.9c4.5-17,8.5-32.1,12.9-48.9c-29.4-13.2-56.9-25.6-84.8-38.1c0.4-11.5,5.9-15,16.1-11.3
	c22,8,44.1,16.3,69.1,25.6c4-22.4,7.7-42.3,11.7-64.1c38.7,17.2,5.7,46.7,20.5,71.7c24.4,10.4,53.3,22.7,82.1,35
	c-0.4,1.7-0.9,3.5-1.3,5.3c-29.3-4.6-58.6-9.1-90.6-14c-1.8,14.7-3.4,28.2-5.6,46c13.5,4.4,26.5,8.9,39.6,12.6
	c11.9,3.4,24.1,5.8,35.7,11.6c-25.4,11.8-50,4.6-78.5-5.3c-2.9,34.8-4,67.3-8.9,99.2c-7.1,46.4,8.7,75.3,50.7,99.9
	c76.5,44.8,148.7,96.9,222.8,145.7c7.8,5.1,17.3,7.9,25.1,13.1c7,4.6,12.9,11.1,20.3,17.6c-40.4,26.1-50.3,25.3-81.2-1.8
	c-9.6-8.4-20.3-15.8-33.5-25.9c-3.7,10.8-8.1,17.9-8.4,25.2c-2.9,55.5-6.3,111-6.6,166.5c-0.3,41.4,3.5,82.8,5.7,124.2
	c0.2,4.6,5,11,3.3,13.3c-16,21.1,1.3,28.6,14.3,38.7c4.1,3.2,6.4,8.7,10.7,14.6c-19,13.7-35.6,3-53.2-0.9
	c-12.5,51.7-24.7,101.8-37.9,156.6c-44.9,2.1-92.6,4.2-143.5,6.5c18-23.5,41.9-20.6,64.3-21.3c19.8-0.6,39.7-0.1,58.9-0.1
	c15.7-51.3,30.3-97.5,43.4-144.1c2.6-9.2,2.6-22.2-2.1-29.8c-23.3-37.5-53.9-68.6-90.1-98.3c-49.7,42.1-97.5,82.4-147,124.2
	c38.1,34.2,19.5,84.3,45.9,122.9c14.5-9.4,28.1-18.1,42.5-27.5c18.3,6,37.8,12.4,63.2,20.7c-4.7-15-7.2-23.3-11-35.5
	c10.1,3,17.9,5.3,33.9,10c-10.9-12.9-16.8-19.8-25.2-29.8c10.3-1.3,18.4-2.3,28.3-3.6c-3.2-11.4-10-20.7-9.7-34.1
	c0.4-16.8-38.2-29.5-52.9-18.4c-15.8,12.1-33,24.4-30.7,48.9c0.6,7.2-2.3,14.6-4.4,26.5c-19.5-47.4-6.1-82.7,31.9-95
	c30.4-9.7,66.1,4.7,74.9,35.2c5.6,19.4,7,43.2,0.9,62.1c-14,43.8-39.2,53.2-82.5,36.9c-6.4-2.4-12.1-6.5-17.3-9.3
	c-35.1,11.6-44.9,34.8-29.6,75.1c-17.7-15.7-28.6-25.2-40-35.3c17.6-35-2.8-66.2-17.5-101.3c-28.5,10.4-53.4,1.3-79.7-5.7
	c-45.6-12.1-92.3-20.2-138.8-28.4c-61-10.8-116.8,5.7-169.8,35.1c-3.8,2.1-8.9,2.1-17.3,3.9c-19.8-61.1-40.2-121.2-58.8-181.7
	c-18.5-60.2-35.3-121-53.2-182.4c-50.4,26.5-68.2,20.5-79.3-22.8c26.1-15.9,52.5-31.6,78.4-48c21-13.3,42.2-26.5,62.1-41.4
	c25.3-18.9,49.5-39.4,77.8-62.1c-3.2-15.4-7.3-34.8-11.1-52.6c-12.3-4.4-27.2-5.4-33.6-13.3c-5.7-7.1-3.3-21.8-2.2-33
	c2.2-23.4,5.8-46.7,8.7-68.5c41.2-10.4,79.4-18.4,116.4-30.1c19.5-6.2,31.8-2.7,42.5,13.6c6.4,9.8,13.8,18.8,23.1,31.5
	c-13.9,10.1-25.9,18.8-41.3,29.9c2.8,14.2,6,31,10.2,52.5c13.9-4.8,25.4-6.7,34.4-12.3c27.1-17.1,52.9-36.5,80.1-53.5
	c16.9-10.5,35-19.4,53.5-26.7c6.1-2.4,15.9,0.8,22.7,4.1c33.8,16.6,67,34.2,100.7,51.2C626.8,295.8,631.7,295.9,637.3,297.2z
	 M832,596c15.9-39.3,4.5-72.4,5.4-104.9c0.2-6.6-10.1-15.6-17.6-20.1c-83.1-50-166.6-99.3-250-148.8c-5.1-3-10.1-6.3-15.5-8.7
	c-21.5-9.4-42.8-12.1-65.1-0.7c-33.7,17.2-68.6,32.1-102.2,49.4c-41,21.1-81.1,43.9-121.7,65.7c-46.1,24.7-89.1,53.8-130.6,85.7
	c-17.6,13.6-21,27.6-16.7,45.9c8.7,36.8,17.6,73.7,28.2,110.1c11.4,39.6,24.9,78.7,37.2,118c10.1,32.4,19.8,65,29.8,98.2
	c27.2-2.7,50.5-6.2,73.8-6.9c39.2-1.1,78.5,0.8,117.6-0.8c27.7-1.1,54.8,0.3,80.2,11.6c26.4,11.8,52.2-8.5,78.3,0
	c1.4,0.5,4-2.1,5.8-3.6c59-50.6,117.9-101.4,178.2-153.3c23.3,20.5,48.3,42.5,74.9,66c0-28.6,0-52.9,0-77.4
	c-37.6-15.6-38.4-16.3-48.7-39.1c14.9,7.7,30.9,16,49.1,25.4c5.3-36.4,9.9-67.8,14.3-97.9c-35.6-19.3-64.4-42-87.6-71.1
	c1.5-2,3-3.9,4.5-5.9C778.4,553,803.5,573.1,832,596z M323.3,241.7c-5.3-14.4-16.9-15.4-29.1-12c-22.7,6.2-44.8,14.7-67.7,19.9
	c-19.4,4.5-28.3,15.4-29.1,34.3c-0.4,8.1-0.8,16.3-1.2,24.9C245.9,297.9,293.2,272.8,323.3,241.7z M252.7,385.4
	c52.6-26.6,58.2-19.4,42.6-90.6c-21.6,9.7-42.4,19-62.7,28.1C231.8,347.7,234.3,367.9,252.7,385.4z"/>
<path fill-rule="evenodd" clip-rule="evenodd" d="M512.8,1075.5c-16.1-8.3-32.4-16.7-49.5-25.4c-24,30.3,7.7,51.1,2.8,81.8
	c50.4-27.1,88.3-62.4,133.7-86.3c-8.8,21.1-30.7,28.4-45.5,43c-15.7,15.5-32.4,29.9-54.8,50.3c60.5-7,119.4,18.9,157.7-42
	c12.1,27.9,8,39.5-12.8,46c-54.8,17.2-61.7,34.6-34.9,86.7c3,5.9,5.1,12.3,7.4,18.5c0.2,0.7-1.1,1.9-1.8,2.9
	c-16.3-3.1-16.3-3.1-48-49.8c1.7,16.2,3.5,32.4,5.5,50.9c-27-1.5-24.9-21.9-28.9-37.5c-4.2-16.5-8.1-32.9-12.8-51.8
	c-14,5.3-23.6,8.9-34.6,13.1c5.9,27.6,11.6,53.7,17.6,81.8c-25.6,2.4-26.6-19-37.3-35.8c-1.1,10.3-2.8,17.6-2.3,24.8
	c0.4,7.4,2.8,14.8,4.6,23.1c-19.6,1.1-21.6-13.2-24.5-23.2c-4.2-14.6-4.8-30.3-7.2-45.5c-3.1-20.6-10.1-27.4-29.6-28.3
	c-56.6-2.5-113.1-5.1-167.3,17.8c-15.1,6.4-30.6,3.5-39.1-13.6c12.3-32.8,12.3-32.8,45.8-27.5c16.5,2.6,45.4-10.8,46-25.5
	c1.7-40.6,29-56.8,60.5-69.2c-3.2-14.4-26-18.8-13.5-39.9c31.8,0.1,42.7,29.9,62.4,47.2c16.5-13,33.1-26,49.3-38.7
	C517.9,1037,531,1050.6,512.8,1075.5z M394.3,1129.9c2.6,19.3,15.6,24.5,28.3,18.1c9.9-4.9,20.7-17.6,22-28
	c2.3-17.6-8-30.9-31.4-33.4c-13.9,1.3-15.8,4.2-23.2,15C387.1,1116.1,392.4,1121,394.3,1129.9z M330.3,1128.7
	c12.2,2.9,20.2,6.6,28.8,5.3c16.6-14.9,19.2-32.1,27.3-47.2c-32.3-7.4-40.3,3.9-42.5,6.3C331.4,1106.1,330.1,1111.9,330.3,1128.7z
	 M421.9,1112.5c0,4.8-4.1,8.6-9.2,8.6c-5.1,0-9.2-3.9-9.2-8.6c0-4.8,4.1-8.6,9.2-8.6C417.8,1103.9,421.9,1107.7,421.9,1112.5z
	 M362.3,1102.8c0,4.5-3.7,8.2-8.2,8.2s-8.2-3.7-8.2-8.2s3.7-8.2,8.2-8.2S362.3,1098.3,362.3,1102.8z"/>
<path fill-rule="evenodd" clip-rule="evenodd" d="M197.3,980.1c31.3-7.4,62.4-15.4,93.9-21.7c5-1,11.5,5,22.5,10.2
	c-42.8,6-79.1,11.1-115.5,16.2C197.9,983.3,197.6,981.7,197.3,980.1z"/>
<path fill-rule="evenodd" clip-rule="evenodd" d="M847.8,1168.9c24.3-19.1,51.4-9.9,78.3-5.2
	C901.4,1177.5,873.8,1155.1,847.8,1168.9z"/>
<path fill-rule="evenodd" clip-rule="evenodd" d="M818.2,1112.9c24.5-10.9,49.2-4.7,73.8-1.1c-24.9,0-49.8,0-74.7,0L818.2,1112.9z"
	/>
<path fill-rule="evenodd" clip-rule="evenodd" d="M817.3,1111.9c-8.2,6.1-16.5,12.2-24.7,18.3c1.1-20.5,16-13.6,25.6-17.3
	L817.3,1111.9z"/>
<path fill-rule="evenodd" clip-rule="evenodd" d="M472.5,789.5c-8.9-5.9-20.7-13.8-34.6-23.1c20.5-37.7-10-64.2-22.7-94.1
	c-12.4-29.2-32.2-55.3-48.1-83.1c-20.4-35.7-16.1-50.3,26.9-60.3c66-15.4,132.8-23.2,200.5-8.7c14.9,3.2,30.9,0.5,46.4,1
	c37.6,1.3,49.9,17.6,41.5,55.1C670.3,630.5,657,684.5,646,738.9c-3.5,17.1-10.7,23.3-27.7,25.8C571.5,771.4,525.1,780.4,472.5,789.5
	z M463.3,666.4c31.9,17.2,34,49.4,56.4,66.7c12.9-2.8,26.3-5.7,37.2-8.1c7.7-30.8,14.6-58.2,21.6-86.4c-3.8-4.8-8.5-10.6-18.2-22.7
	c20.3-0.9,33.7-1,47.1-2.1c19-1.6,25.2-10.6,29.3-38c2.9-19-11.1-22.1-23.4-24.9c-19.3-4.5-39.1-5.6-62.2,0.5
	c9.2,16.8,16.7,30.6,24.2,44.5c-2.5,1.5-4.8,2.9-7.2,4.4c-11.9-12.8-25.7-24.4-35.1-38.8c-13-19.8-28.5-22.6-51.2-14
	c-1,32.7-31.7,63.3-3.6,98.1c-12.3,6.6-22.4,12.1-34.3,18.5c12.1,27.1,15.2,56.6,41.9,74.1C488.4,713.7,469.2,696.3,463.3,666.4z
	 M439.1,645.2c11.6-24.4,19.9-81,14.7-104.6c-23,5.9-45.9,11.8-72.3,18.5C397.6,593.6,409.3,624.4,439.1,645.2z M576.5,725.1
	c19-0.3,33.9-2.2,37.8-19.2c4.6-20.7,7.2-41.9,8.8-63c0.4-5-7-10.5-15.2-21.9C598.1,660.8,573.4,686.6,576.5,725.1z"/>
<path fill-rule="evenodd" clip-rule="evenodd" d="M815.3,527c-26.4-1.7-90.7-43.6-110.6-70C749.8,471.9,778.5,505.8,815.3,527z"/>
<path fill-rule="evenodd" clip-rule="evenodd" d="M208.6,524.7c-16.5,15.8-33,31.5-49.5,47.3c-1.9-2-3.8-4-5.7-6
	c7.3-25,33.2-31,49.9-46.4C205.1,521.2,206.8,522.9,208.6,524.7z"/>
<path fill-rule="evenodd" clip-rule="evenodd" d="M196.1,748.2c21.6-14.2,43.1-28.3,64.7-42.4c1.4,2.1,2.8,4.3,4.2,6.4
	c-20.9,15.7-38.8,35.9-65.1,43.5C198.6,753.2,197.3,750.7,196.1,748.2z"/>
<path fill-rule="evenodd" clip-rule="evenodd" d="M176.9,708.6c17.7-11.6,35.5-23.2,53.2-34.8c-13.4,19.1-27.5,36.8-50.1,42
	C179,713.4,177.9,711,176.9,708.6z"/>
<path fill-rule="evenodd" clip-rule="evenodd" d="M767.4,715.8c13.4,12.1,26.8,24.1,44.6,40C783.5,748,776.5,742.2,767.4,715.8z"/>
<path fill-rule="evenodd" clip-rule="evenodd" d="M210.3,574.6c-14.4,13.1-28.7,26.1-43,39.2c-1.6-1.8-3.1-3.6-4.7-5.4
	C173.8,591.6,185.6,575.4,210.3,574.6z"/>
<path fill-rule="evenodd" clip-rule="evenodd" d="M221.4,640.9c-13.4,9.5-26.8,18.9-40.2,28.3C187.8,650,201.8,641.3,221.4,640.9z"
	/>
<path fill-rule="evenodd" clip-rule="evenodd" d="M786.4,650.6c-8.1-7-16.4-13.9-24.6-20.9c1.5-2,3.1-4,4.7-5.9
	c8.7,6.1,17.4,12.3,26.1,18.4C790.5,645,788.4,647.8,786.4,650.6z"/>
</svg>
