<?xml version="1.0" encoding="utf-8"?>
<!DOCTYPE svg PUBLIC "-//W3C//DTD SVG 1.1//EN" "http://www.w3.org/Graphics/SVG/1.1/DTD/svg11.dtd">
<svg artist="zl2017" version="1.1" id="zlIcon-justice" xmlns="http://www.w3.org/2000/svg" xmlns:xlink="http://www.w3.org/1999/xlink" x="0px" y="0px"
	 width="1000px" height="720.5px" viewBox="0 0 1000 720.5" enable-background="new 0 0 1000 720.5" xml:space="preserve">
<path fill-rule="evenodd" clip-rule="evenodd" d="M728.8,139.4c-4.6,3.4-8.9,6.1-12.5,9.5c-3.5,3.4-9.1,4.9-10.6,10.6
	c2.1,1.6,4.2,3.4,6.5,5c1.8,1.2,3.3,0.4,5-0.9c6.6-5.1,13.8-9.1,22.2-12.2c-0.6,3.8-4,4-5.7,5.9c-1.9,2.1-3.9,4-6.1,5.8
	c-2.1,1.7-4.5,3-7.5,4.9c3.5,2.4,6.5,4.4,8.9,6c9.9-4.1,19.1-7.9,28.3-11.6c0.4-0.2,1.1,0.2,2.5,0.6c-2.4,1.4-4.2,2.4-5.9,3.5
	c-1.8,1.1-3.4,2.5-5.2,3.5c-4.4,2.3-9,4.3-12.5,8.7c1.4,0.9,2.6,2,4,2.8c5.2,3,10.1,6.5,15,9.9c4.7,3.3,9.9,6.5,16.3,5.7
	c6.6-0.8,13,0.4,19.3,2c2.8,0.7,5.5,2.7,7.9,4.6c3.8,3,8,5.7,9.6,10.9c1.3,4.2,0.4,7.9-1.3,11.7c-0.1,0.3-0.3,0.6-0.5,0.8
	c-3.5,2.5-7.2,4.8-10.4,7.6c-4.6,4.1-10,2.4-15.1,2.6c-0.8,0-1.7-0.5-2.6-0.9c-0.7-0.3-1.4-0.8-2.1-0.8c-6.6-0.1-11.9-2.3-16.5-6.4
	c-1.5-1.4-3.6-2.4-5.6-3c-2.5-0.7-5.2-0.8-7.8-1.1c-5.1-0.6-10.2-2-15.1-1.5c-4.8,0.5-9.1-0.4-13.6-1.3c-1.6-0.3-3.2-1-4.8-1.5
	c-3.9-1.3-7.1,0.9-7.2,5.1c0,0.8,0,1.6,0,2.3c-0.5,4.9-0.5,4.9,2.2,9.1c-0.7,0.5-1.6,1.1-2.6,1.7c-2.2,1.3-4.2,0.5-5.2-1.8
	c-1.7-3.9-1-7.9-0.5-11.8c0.7-4.9,0.4-5.7-4.5-6.4c-1.6-0.2-3.2-0.3-4.8-0.3c-2,0-3.2,2.3-2.1,4.2c0.6,1.2,1.6,2.2,2.5,3.2
	c-3.4,3-6,2.6-10.1-1.5c0.1-0.4,0.4-1,0.5-1.6c0.8-4.1,0.2-4.9-3.9-5.4c-1.7-0.2-3.3-0.8-5-0.9c-3.7-0.2-4.8,1.1-4.2,5
	c0.3,1.8,0.4,3.6,0.8,5.4c1.1,4.6-0.4,6.3-6.3,6c-0.4-5.5-0.8-11.2-1.2-16.9c-3.5-0.5-7-1.2-10.5-1.4c-8.5-0.5-17.1-0.6-25.6-1
	c-2.9-0.1-5.8-0.6-8.8-0.8c-1.8-0.1-3.8-0.7-5.3,1.5c0.7,2.3,1.5,4.5,4.5,5c0.6,0.1,1.2,0.5,1.5,1c3.3,5.2,9.3,8,11.8,13.9
	c0.8,1.9,2.2,3.6,3,5.5c3.2,8,9.7,13.8,13.8,21.3c2.3,4.2,4.6,8.4,6.5,12.8c0.3,0.8,0.9,1.6,1.6,2c2.8,1.6,5.7,3,8.6,4.5
	c0.5,0.3,1.2,0.6,1.5,1c3.6,5.2,9.1,6.4,14.8,7.4c8.8,1.6,17.5,3.5,26.3,5.2c3.3,0.6,6.7,1.1,10.1,1.3c9.4,0.4,18.8,0.6,28.2,1
	c2.5,0.1,4.9,0.9,7.4,0.8c2.3,0,4.5-0.8,7-1.2c0-2,0.2-4.2,0-6.4c-0.6-4.8,2.1-8,5.4-10.3c1.8-1.3,4.7-1.7,7.1-1.6
	c5.4,0.3,10.3-1.9,15.5-2.5c3.9-0.4,7.7-1.3,11.1,1.5c0.5,0.4,1.2,0.9,1.7,0.8c3.7-0.7,4.4,2.3,6,4.5c5,6.9,4.4,13.8,0.5,20.8
	c-0.2,0.4-0.4,0.8-0.4,0.8c3.3,5.8,6.6,11.4,9.7,17c0.3,0.6,0.2,1.5,0.3,2.3c0.3,2.6,0.6,5.2,0.9,7.8c0.1,1.1,0.2,2.2,0,3.3
	c-1.3,5.5-1.2,11.1-0.1,16.6c0.2,0.8-0.4,1.8-0.4,2.7c0,1.8-0.1,3.7,0.4,5.4c1.3,4.4,0.4,6.5-4,7.9c-2.5,0.8-5,1.7-7.6,2
	c-2.4,0.3-3.1,1.5-3.2,3.7c-0.2,5.9-0.6,11.9-1,18.1c1,0.7,2.2,1.6,3.6,2.5c7.1-1.5,14.4-3,21.6-4.7c4.6-1.1,9.2-2.5,13.8-3.7
	c6.4-1.6,12.9-2.9,19.2-4.7c7.6-2.3,15.5-2.3,23-4.7c4-1.3,7.9-2.6,12-3.7c3-0.8,6-1.2,9-1.9c4.6-1.1,9.1-2.6,13.7-3.4
	c10.1-1.8,19.5-6.8,30-7.1c2.2-0.1,4.5-1.2,6.7-1.7c2.3-0.6,4.3-0.3,5.6,2.3c-2.6,3.2-4.9,6.8-8.9,9c-2.5,1.4-2.8,2.4-0.7,4.2
	c1.8,1.6,1.6,3.6,1.3,5c-0.4,2,0.2,3.6,0.6,5.3c0.9,4.2,1.6,8.5,2.6,12.7c0.5,2.4,1.4,4.7,2,7c1.4,5.7,4.7,11,4.6,17.2
	c0,1,0.4,2.1,0.6,3.2c0.2,0.9,0.8,1.8,0.8,2.7c-0.2,7.8,4.1,14.5,5.7,21.8c0.9,4.2,1.4,8.5,2.3,12.7c0.4,1.9,1.3,3.8,1.9,5.7
	c3.1,9.4,6,18.9,9.3,28.2c1.7,5,2.7,10,3.4,15.1c0.6,4.2,1.9,8.4,3.2,12.5c1.7,5.6,3.6,11.2,5.6,16.7c0.8,2.3,1.9,4.8,3.6,6.4
	c1.9,1.8-1,4.4,1.7,5.8c2.5,1.3,2.5,3.8,2.1,6.2c-0.3,2.1-0.8,4.4-1.9,6.2c-2.3,4-4.8,8-9.1,10.3c-3.8,2-7.6,4.1-11.1,6.8
	c-3.6,2.7-8.2,4.1-12.3,6.1c-1.8,0.9-3.4,2.1-5.3,2.8c-3.3,1.3-6.7,2.2-10.1,3.3c-4.3,1.3-8.5,2.8-12.8,3.9
	c-8.1,2.2-15.9,1.4-23.5-2.2c-1.5-0.7-3.2-0.9-4.7-1.6c-3.8-1.5-7.3-3.5-11.2-4.8c-3.9-1.3-7.1-4.5-10.8-6.2c-4.2-1.8-5.5-5.7-7.6-9
	c-0.7-1.1-0.3-3.1,0.1-4.4c1.8-5.2,4-10.3,5.7-15.6c1.5-4.5,2.5-9.1,4-13.6c1.4-4.2,3-8.5,4.9-12.6c0.5-1.1,0.4-2.4,0.8-3.6
	c0.6-1.7,1.3-3.3,2-5c1.1-2.5,2.5-4.9,3.4-7.5c2-5.5,3.8-11,5.5-16.6c1-3.3,1.4-6.7,2.3-10.1c0.6-2.4,1.2-4.7,2.1-6.9
	c3.3-7.4,3.8-15.5,6.1-23.1c2.2-7.2,4.1-14.5,5.9-21.8c1.1-4.7,1.8-9.5,2.7-14.3c0.1-0.6,0-1.4,0.4-1.8c3.7-4.8,3.8-11,6.4-16.1
	c3.6-7.1,4.2-14.9,6.1-22.5c0.3-1.1,0-2.4,0-4.3c-2.8,0.6-5.2,1-7.4,1.7c-5.9,2-11.6,4.3-17.5,6.2c-4.1,1.4-8.3,2.3-12.4,3.5
	c-1.2,0.3-2.3,0.8-3.5,1.3c-0.8,0.4-1.5,1.2-2.4,1.4c-6.3,1.2-11.9,5.1-18.6,4.9c-1.8-0.1-3.7,1.4-5.6,2.2
	c-4.1,1.7-8.2,3.5-12.4,5.1c-2.5,1-5.2,1.8-7.8,2.6c-5.3,1.7-10.6,3.2-15.9,5c-7.9,2.7-15.7,5.5-23.6,8.2c-1.9,0.7-3.8,1.3-5.6,2.1
	c-1,0.4-2.2,1-2.6,1.8c-1.6,3.6-5,4.4-8.2,5.6c-3.5,1.3-7.1,1.1-10.3-0.5c-2.4-1.2-4.7-1.3-7.2-1.3c-7.9-0.1-15.8,1-23.6,1.5
	c-6,0.4-11.8,2.8-17.9,1.6c-1-0.2-2.6,1.6-3.3,1.3c-5.8-2.6-10.4,2-15.7,2.2c-3.9,0.2-7.2,1.9-10.8,2.7c-1.9,0.4-2.7,0.8-2,3
	c0.7,2.2,0.5,4.6,0.8,6.9c0.4,2.8,1.2,5.7,1.3,8.5c0.1,4.1-0.5,8.2-0.4,12.3c0.1,5.6,0.6,11.2,0.9,16.7c0.2,4.7-0.7,9.3-1.5,13.9
	c-0.6,3.6-1.6,7.2-2.2,10.9c-0.2,1.5-0.2,3.3,0.4,4.6c2.4,5.2,2.6,10.8,3.2,16.3c1,9.5,2.5,18.7,6.3,27.5c2.1,4.9,3.4,10.2,5.1,15.2
	c0.4,1.3,1,2.7,2,3.6c3.8,3.4,8.1,5.2,13.4,4.6c2.4,6.7-2,11.4-7.6,16.3c-3.8,3.3-8.2,5.9-12.2,9c-4.7,3.5-9.8,5.6-15.7,6.3
	c-3.2,0.4-6.4,1.2-9.5,2.2c-4,1.2-8,2.5-11.7,4.4c-4.5,2.4-9.1,4.3-14.2,4.9c-1.2,0.2-2.9,1.8-3.3,3.1c-1.6,5-5.7,8-8.5,11.9
	c-0.4,0.5-0.8,1-1.1,1.5c-3.3,5-8.4,8.1-12.9,11.7c-1.8,1.4-3.6,2.9-5.4,4.4c-2,1.6-4,3.2-6,4.7c-2.4,1.9-5,3.7-7.2,5.8
	c-2.8,2.6-5.4,5.5-8.2,8.1c-2,1.8-1.5,3.5-0.3,5.3c0.6,0.9,1.3,1.8,2.2,2.4c3.5,2.4,4.2,6.5,5.6,10c0.7,1.6,0,3.9-0.3,5.8
	c-0.4,2.9-0.8,5.8-1.7,8.6c-1.1,3.3-4.2,5-7.1,6.3c-2.1,0.9-4.5,1.1-6.8,1.1c-4.3-0.1-8.6-0.6-13-0.8c-2.1-0.1-4.2,0.1-6.3,0.3
	c-5.1,0.6-10.1,0.4-15.3-0.2c-4-0.5-8.1-0.8-12.3-0.6c-5.1,0.2-10.4-1.2-15.6-2c-3.6-0.5-7.2-1.2-10.9-0.7c-2.6,0.4-5.3,0.1-8,0.1
	c-6.1,0-12.2,0.1-18.3,1.8c-1.7,0.5-3.7,0.1-5.6,0.1c-1.5,0-2.6,0.4-3.4,1.9c-2.5,5.4-6.7,8.4-12.7,9.4c-7.4,1.3-14.4-0.3-21.6-0.8
	c-0.3,0-0.6-0.2-0.9-0.2c-5.9,0.5-11.7,1-17.6,1.5c-0.8,0.1-1.5,0.4-2.3,0.3c-4.9-0.5-9.7-1.3-14.5-1.7c-7.1-0.7-14.2-1.3-21.3-2
	c-1.7-0.2-3.3-0.6-5-1c-0.7-0.2-1.4-0.7-2.2-0.8c-8.9-0.5-17.2-3.5-25.4-6.7c-4.7-1.8-9.5-3.7-14.5-4.1c-4.2-0.4-6.1-3.7-8.5-6.3
	c-4.6-5.1-9.5-9.5-15.5-13c-3-1.7-6.8-2-9-5.1c-0.2-0.2-0.6-0.4-0.8-0.4c-3.4,0.6-5.7-2-8.6-2.9c-2.5-0.7-5-1.2-7.6-1.6
	c-4-0.5-8-0.9-12-1.3c-4.6-0.4-9.3-0.3-13.9-1.1c-5.2-0.9-10.3,0-15.4,0.4c-5.9,0.5-11.8,2.8-17.9,0.8c-0.9-0.3-2.2,0-3.2,0.3
	c-5.7,1.8-11.5,2-17.4,0.6c-1.6-0.4-3.4,0-5.1-0.1c-5.4-0.5-10.8-1.2-16.1-1.7c-1.5-0.2-3.1-0.2-4.7-0.1c-7.3,0.4-14.5-0.1-21.8-0.2
	c-6.3,0-12.5-1.5-18.8-2.2c-7.2-0.8-14.1-3.7-21.2-4.7c-6.8-1-11.4-5.8-17.5-7.8c-1.6-0.5-3-1.8-4.6-2.1c-6.7-1-12-5.2-18.1-7.7
	c-1.7-0.7-3-2.5-4.4-3.9c-0.2-0.2-0.3-0.6-0.6-0.7c-4.5-2.2-7.1-7.3-12.5-8.3c-0.4-0.1-1.1-0.1-1.3-0.4c-2.2-2.9-4.4-5.8-6.9-9.1
	c-2.9-0.7-5.2-2.9-6.9-6c-0.7-1.3-1.5-2.8-2.7-3.7c-3.3-2.5-4.4-6.3-6.2-9.7c-3.3-6.2-6.2-12.6-9.2-18.9c-0.5-1-0.9-1.9-1.3-2.9
	c-1.2-2.9-2.1-5.8-3.5-8.6c-3.8-7.4-7.2-15-9.1-23.1c-0.7-2.8-1-5.8-1.5-8.7c-0.1-0.8-0.3-1.7,0.1-2.3c2.3-3.9,1.3-8.4,2.6-12.5
	c1.3-4.2,1.9-8.6,3-12.9c0.8-2.9,2.1-5.7,3.1-8.6c0.6-1.9,1.1-3.9,1.6-5.8c0.3-1,0.5-2.2,1.1-3.1c6.8-9.7,9.9-21.1,14.2-31.9
	c3.6-8.9,4.3-18,4.2-27.2c-0.1-7.4-0.3-14.8-1-22.2c-0.3-3-1.9-5.8-2.6-8.7c-0.7-2.6-0.8-5.4-1.5-8c-0.6-2.2-1.6-4.3-2.4-6.4
	c-0.6-1.6-1.1-3.2-1.8-4.7c-0.8-1.9-1.7-3.8-2.7-5.7c-4.1-7.8-7-16.3-13.2-22.9c-1.8-1.9-1.8-5-3.9-6.9c-1.5-1.3-2.5-3.1-3.6-4.8
	c-0.8-1.1-1.4-2.3-2.1-3.5c-0.5-0.9-0.8-2.2-1.6-2.8c-3.1-2.3-3.9-5.9-5.7-8.9C13.8,327,9.3,319.8,5,312.5c-1.1-1.8-2-3.9-2.4-6
	c-0.9-5.5-1.9-11-2.1-16.5c-0.2-4.1,0.9-8.2,1.1-12.3c0.1-3.4-0.6-6.8-0.4-10.1c0.6-7.1,1.7-14,6.4-19.9c1.1-1.4,0.9-3.9,1.5-5.8
	c0.6-2.2,1.2-4.4,2.2-6.4c0.5-0.9,1.8-1.4,3.4-2.7c0.3,2.7,0.5,4.6,0.8,6.9c1.2-0.8,2.2-1.4,3.2-2.1c0.2,0.2,0.5,0.4,0.4,0.6
	c-0.5,1.7-1.1,3.5-1.7,5.1c-2.1,5.5-4.6,10.8-6.2,16.4c-1.1,3.7-0.8,7.8-1.2,11.8c-0.2,2-0.2,3.9-0.3,5.9c0,0.8-0.2,1.5-0.2,2.3
	c0.2,6.6,0.2,13.2,0.7,19.8c0.1,2,1.4,4,2.4,5.8c1.5,2.8,3.2,5.5,4.8,8.3c0.1,0.1,0.2,0.2,0.3,0.4c1.7,6.3,6.7,10.7,9.6,16.3
	c2.4,4.7,5.1,9.1,9.8,12.1c1,0.6,1.6,1.8,2.4,2.8c2.6,3.2,5.3,6.2,7.7,9.5c4.6,6.2,9.4,12.3,13.3,18.9c2.5,4.3,3.5,9.5,5.2,14.3
	c1,2.7,2.1,5.4,3.2,8c0.7,1.7,1.9,3.3,2.2,5.1c0.5,3.7,1.4,7.2,3.1,10.6c3.2,6.2,1.7,13.1,1.8,19.7c0,2.7-0.9,5.4-1.4,8.1
	c-0.2,1.4-0.6,2.9-0.3,4.1c1.2,4.8,1,9.3-0.7,14.1c-2,5.4-2.3,11.5-4.2,17c-3.2,9.5-3.2,19.8-7.3,29.1c-0.3,0.7-0.3,1.6-0.8,2.2
	c-3.4,3.8-2.4,8.5-3,12.9c-0.2,1.3-0.4,2.6-0.6,3.9c-0.1,0.9-0.4,1.8-0.4,2.8c0.3,3.7,0.8,7.4,1,11.1c0.2,6.4,2.5,12.4,3.4,18.7
	c0.1,1,0.8,2,1.2,3c2.7,5.7,5.1,11.6,8.2,17c3.2,5.4,7,10.6,10.9,15.6c3.7,4.9,7.2,10.2,12,13.9c5,3.9,7.3,9.9,12.5,13.4
	c4,2.7,8,5.3,12.2,7.6c3.2,1.8,6.6,3.2,10.1,4.3c3.5,1.1,7.2,1.6,10.8,2.3c2,0.4,4,0.5,5.9,1c3.3,1,6.6,2.6,9.9,3.3
	c1.8,0.4,3.9-0.6,5.9-0.9c1.2-0.2,2.5-0.7,3.6-0.5c5.4,1.2,10.7,1,16.1,0.2c3.3-0.5,6.9,0.2,10.3,0c4.3-0.3,8.6,0,12.7-1.6
	c1-0.4,1.9-0.9,2.8-1.3c1-0.4,2.1-1.2,2.9-1c5.9,1.6,11.4-0.2,17.1-1.3c2.1-0.4,4.4-0.4,6.3-1.4c6.5-3.4,13.4-6,19.8-9.7
	c1.1-0.6,2.1-1.3,3-2.2c5.9-5.7,12.5-10.9,17.5-17.3c3.7-4.6,8.8-8,11.1-13.9c1.3-3.4,4.4-6.2,6.8-9.3c2.3-2.9,3.6-6,3.4-9.9
	c-0.1-2.4,0.5-4.9,1-7.3c0.9-4.3,0.6-8.4-0.5-12.9c-0.9,0.3-1.8,0.5-2.6,0.7c-5.4,1.7-12.2-1.7-13.7-7.2c-1.3-4.7-2.2-9.6-2.9-14.5
	c-0.2-1.6,0.4-3.4,1-4.9c1.2-3.1,2.8-6.1,4.1-9.3c1.1-2.6,2.9-4.3,5.3-5.5c1.8-0.9,3.4-2.1,5.6-3.5c-0.4-4.4-0.8-9-1.1-13.6
	c0-0.5,0-0.9-0.1-1.4c-0.6-5.5-1.2-10.9-1.9-16.4c-0.1-0.9-0.6-1.8-0.9-2.6c-2-4.8-4.1-9.5-6.1-14.3c-0.2-0.4-0.1-0.9-0.1-1.3
	c0.2-4.7,0.3-9.5,0.5-14.2c0-0.5,0.1-1.1-0.1-1.4c-3.2-2.8-0.8-5.8-0.4-8.7c1-5.9,2.3-11.8,3.3-17.7c0.1-0.7-0.1-1.9-0.6-2.1
	c-5-2.4-6.7-7.3-8.6-11.7c-2-4.7-5-7.2-10.3-7.6c-2.7-0.2-5.4-1.8-7.7-3.8c-4-3.6-6.9-8-9.3-12.6c-1-1.8-1.3-4.7-0.5-6.6
	c1.7-4.4,4-8.6,6.5-12.6c2.6-4.2,5.6-8.1,10.7-9.9c2.7-1,5.5-2.4,7.7-4.3c3.6-3,7.6-2.5,11.6-2.1c2,0.2,3.8,1.1,5.8,1.6
	c2.8,0.8,5.1,2.2,6.7,4.7c0.5,0.8,1.3,1.4,2.8,3c0.6-3.5,1.4-6,1.4-8.5c0.2-5.6,0.6-11.3-0.1-16.9c-1-8.3-0.3-16.9-3.4-25
	c1-4.8-3.4-8-3.6-12.6c-0.1-2.1-2.2-4.2-3.4-6.3c-2.3-3.8-1.8-8.2-2.6-12.3c-0.6-3.2-1.2-6.4-2.3-9.4c-1.6-4.7-3.1-9.4-3.4-14.4
	c0-0.8-0.1-1.6-0.3-2.3c-1.7-5.2-3.7-10.3-5-15.7c-0.9-3.7-1.6-7.5-2.2-11.2c-0.8-5-0.7-10.3-2.1-15.1c-2.3-8.3-2-16.8-2.9-25.3
	c-0.8-7.1-0.4-14.2-0.7-21.3c-0.3-7.3,0.9-14.5,2.6-21.6c0.6-2.5,0.4-5.2,0.7-7.7c0.4-2.7,0.7-5.5,1.8-8c2-4.9,3-10,4.3-15.1
	c1.8-7,4.2-13.8,6.4-20.6c3.5-3,3.5-7.9,6-11.5c1.9-2.8,2.9-6.3,4.8-9.4c2.4-3.7,3.6-8.2,6.2-11.8c4.8-6.5,8.9-13.6,15.7-18.6
	c4.1-3,7.7-6.6,12.2-9.2c4-2.3,7.6-5.2,11.6-7.5c2.5-1.4,5.3-2.3,8-3.3c7-2.8,14.4-4.4,21.8-5.3c5.9-0.7,12.1,0.2,18.1,0.3
	c1.2,0,2.6,0.5,3.7,0.2c8-2.1,15.4,0.9,22.9,2.3c2.9,0.6,5.8,1,8.7,1.5c3,0.5,6.1,0.9,8.9,1.8c5.4,1.7,10.7,3.5,15.9,5.8
	c5.8,2.5,11.8,4.8,16.8,8.4c3.2,2.3,6.6,3.6,10.1,4.9c0.8,0.3,1.7,0.9,2.3,1.6c2.4,3,6,4,9.3,5.6c3.7,1.8,7.4,3.7,11.1,5.6
	c2.9,1.6,3.8,1.5,6-0.9c0.3-0.3,0.8-0.7,0.9-1.1c0.8-4.3,4.5-6.5,6.8-9.8c2.1-3,5.3-4.1,8.3-5.7c0.6-0.3,1.5-0.2,2.3-0.1
	c3.5,0.5,7,1.3,10.5,1.6c1.6,0.1,3.3-0.5,4.9-1.1c3.3-1.1,6.1-1.1,9,1.6c1.6,1.5,4.4,1.9,6.8,2.3c1.7,0.3,3.2,0.6,4.7,1.6
	c2,1.3,4.7,1.7,6.5,3.2c5.4,4.5,8.1,10.4,8.1,17.5c0,2.8,0.6,5.4,1.4,8.2c1.4,4.7,0.8,9.8,0.1,14.7c-0.4,2.8-0.4,5.7-0.3,8.5
	c0,0.6,1.2,1.3,1.9,1.8c1.9,1.6,4.1,2.9,5.8,4.6c5.6,5.8,12.1,10.4,19.1,14.5c5.8,3.4,11.3,7.4,16.9,11.1c0.8,0.5,1.6,0.9,2.4,1.4
	c3.3,1.9,7,3,9.9,5.7c1.7,1.6,4.5,1.9,6.7,3c3.3,1.5,6.6,3.2,9.9,4.8c1.4,0.6,2.9,0.9,4.3,1.6c4.4,2.2,8.7,4.4,12.9,6.8
	c2.1,1.2,4,2.8,5.9,4.5c3.2,2.8,6.8,4.6,10.8,6c2.5,0.9,4.7,2.9,7.1,4.3c2.5,1.5,5.2,2.8,7.8,4.2c1.9,1,3.3,0.7,5.1-0.4
	c7-4.5,14.3-8.7,21.3-13.1C725,138.6,726.4,138.7,728.8,139.4z M465.8,92.9c-2.1,7.1-2.9,14.2-7.7,19.6c-1.6,1.8-3.9,2.9-5.5,4.7
	c-4,4.6-9.3,6.4-15,7.6c-6.6,1.3-13.2,1.9-19.9,2c-4.2,0-8.1,0.1-11.6-2.5c-0.4-0.3-1.2-0.4-1.8-0.4c-5.3,0.4-10-1.9-14.6-4
	c-3.6-1.6-6.2-4.9-6.7-9.2c-0.3-2.3-0.2-4.6-0.1-6.9c0.2-4.3,0-4.8-4.1-5.9c-4.9-1.3-9.7-2.9-14.3-5.2c-2.6-1.3-5.4-2.3-8.2-3.2
	c-0.8-0.3-2-0.5-2.7-0.1c-2,1.2-3.6,0.3-5.2-0.6c-3.3-1.8-6.6-1.9-9.9,0.1c-3.1,1.9-3.8,4.3-1.5,7.2c1.6,2,3.6,3.7,5.3,5.6
	c0.9,1,1.6,2.3,2.6,3.7c-3.7,0.5-6.6,1-10.2,1.5c-0.5-0.3-2-1-3-2.1c-1.8-2.1-4.1-4.1-4.9-6.6c-1.9-5.8,2.2-15.2,7.2-18.8
	c5.4-3.9,11.5-5,17.9-4.2c8.4,1,16.8,2.4,25.2,3.5c2.4,0.3,4.9,0.4,7.2,0.1c2.8-0.4,4.2-2.3,5.8-4.9c2.3-3.8,4.3-7.8,6.5-11.6
	c1.7-3,3.5-6.1,5.8-8.6c2.2-2.4,4.7-5.1,8.2-5.3c2.6-0.2,5.4,0.2,8,0.7c3.6,0.7,7.2,1.8,10.7,2.7c0.6,0.2,1.2,0.4,1.7,0.7
	c3.4,2,6.8,3.4,10.7,4.1c2.8,0.5,5.7,1.5,8.2,2.9c8.8,5,13,12.9,13.2,22.4c6.7,3,12.4-2.1,18.7-1.4c0.2,0,0.5-0.3,0.8-0.5
	c2.1-1.3,4.2-2.6,6.3-3.9c1.8-1.1,3.6-2.1,3.9-4.7c0.4-3,1.4-5.9,2.5-8.8c0.6-1.6,0.7-3.1-0.4-4.3c-2.4-2.8-4.6-5.7-7.4-8.1
	c-5.4-4.6-11.2-8.8-16.8-13.2c-1.6-1.2-3-2.7-4.7-3.7c-4.5-2.5-9.2-4.8-13.7-7.3c-5.7-3.1-11.4-6.2-17.6-7.9
	c-7.3-1.9-14.7-3.3-22-5.1c-5-1.2-9.9-2.6-15.1-1.1c-0.6,0.2-1.5-0.2-2.2-0.4c-4.4-0.7-8.8-1.4-13.3-2c-0.8-0.1-1.6,0.1-2.3,0.1
	c-1.8,0.2-3.7,0.5-5.5,0.7c-3.5,0.4-7.2,0.4-10.6,1.3c-4.7,1.3-9.4,3.1-13.9,5c-3.9,1.7-7.5,4.4-11.5,5.8
	c-6.7,2.4-11.5,7.4-16.2,12.1c-5.1,5.1-9.7,10.9-13,17.5c-1.1,2.2-3,4.5-2.9,6.7c0.1,3.1-1.4,4.3-3.3,6c-1.4,1.2-2.5,2.6-3.6,4.1
	c-5.4,7-6.6,15.9-10.1,23.8c-2.9,6.4-4.3,13.6-5.7,20.6c-1.2,5.9-1.7,11.9-2,18c-0.3,7.9-1.2,15.7-3.4,23.3c-0.8,2.5-0.7,5.3,0,8.1
	c0.9,3.5,1.3,7.3,1.6,10.8c0.3,3-0.3,6.4,0.3,9.4c1.1,5.7,1.8,11.4,1.4,17.2c-0.4,6.7,1.8,12.9,4,18.9c1.9,5.1,4.8,9.9,7.4,14.8
	c0.7,1.3,2.3,2.2,2.8,3.5c0.9,2.2,0.9,4.7,1.8,6.9c1.8,4.7,4,9.3,5.9,14c1.2,3,3.2,5.5,3.5,9c0.4,5.5,2.1,10.8,4.5,15.7
	c2.1,4.3,3.5,8.7,3.6,13.6c0.1,4.6,1.3,9.1,1.8,13.7c0.5,4.9,1,9.8,1,14.7c0.1,4.4-0.4,8.9-0.8,13.3c-0.2,2-0.5,4-1.1,5.9
	c-1.9,5.6-4,11-5.9,16.6c-1.3,4.1-2.3,8.3-3.5,12.4c-0.4,1.3-1.1,2.5-1.6,3.8c-0.8,1.8-2.3,3.6-2.3,5.3c0,2.9-1.2,5-2.4,7.3
	c-3,5.9-4.8,12.2-6.3,18.7c-1,4.3-0.6,9-2.9,13.1c-0.5,0.9-0.2,2.1-0.2,3.2c0,3.3-0.1,6.6,0,9.8c0.1,3.2,0.3,6.2,1.5,9.4
	c3,8,6.8,15.6,10.7,23.1c1.6,3.1,3.9,5.9,6.6,8.2c2.7,2.3,6.1,3.7,9.1,5.5c2,1.2,4.2,1.3,6.2,0.1c5.7-3.6,11.3-7.5,17-11.1
	c4.9-3.1,9.5-6.6,15.3-8.4c4-1.2,7.5-4.1,11.5-6.4c-1.7-2.1-3.2-4.1-4.8-5.9c-1.7-2-3.8-3.6-5.3-5.8c-4.1-5.9-7.9-12-11.8-18
	c-5.1-7.7-6.4-16.3-6-25.3c0-1,0.1-2.2-0.3-3.1c-2-5.3-1.5-10.8-0.3-15.9c1.2-4.6,0.2-8.7-0.2-13.2c2.3-2.7,4.2-5.7,3.2-9.6
	c-0.9-3.5-1-4.3,2.2-4.9c5.1-1,10.4-1.4,15.6-2c0.6-0.1,1.5,0.1,1.7,0.4c1.2,1.9,3,1.3,4.7,1.4c1.9,0.1,3.8-0.1,5.6,0
	c3.1,0.2,4.9,3.3,3.4,6.2c-0.6,1.2-1.5,2.4-2.5,3.3c-5.7,4.6-10.4,10.2-14.2,16.3c-5.7,9.2-9.3,18.8-5.3,30.1
	c3.3,9.1,7.2,17.8,12.5,25.9c3.6,5.5,9.5,8.3,13.9,12.8c0.5,0.5,1.4,0.8,2.1,1c1.9,0.3,3.5,0.7,5.6-0.7c3.5-2.2,7.6-3.5,11.7-4.7
	c3.6-1,7.3-1.7,10.8-3.5c3.1-1.6,7-1.1,10.2,1c2.3,1.5,7.1,14.2,6.5,16.9c0,0.2-0.1,0.3-0.2,0.4c-0.6,4.9-2.4,9.2-5.6,13
	c-0.6,0.7-1,1.6-1.5,2.3c-1.1,1.5-1.9,3.4-3.3,4.3c-3.6,2.3-7.4,4.3-11.9,4.8c-4.6,0.5-8.4-0.7-11.3-4.7c-2.2-3-4.8-5.6-7.4-8.3
	c-0.7-0.7-1.8-1.3-2.8-1.3c-2.7,0.1-5.4,0.6-7.5,3c0.8,1.6,1.3,3.2,2.3,4.6c4.9,7.1,10.3,14,14.8,21.4c3.2,5.2,7.8,9.7,9.5,15.8
	c0.1,0.4,0.5,0.8,0.9,1.1c3,2.5,5.5,5.3,7.3,8.8c1.1,2.1,2.7,4,4.2,5.9c1.5,1.9,3.8,3.5,4.7,5.7c3.8,9.1,11.3,15.7,15.6,24.3
	c3.7,2.7,5.3,7.2,8.3,10.3c4.2,4.3,6.6,9.7,10.4,14.1c1.2,1.4,2.4,2.8,3.6,4.3c4.4,5.8,7.8,12.4,13.7,17.1c0.7,0.5,1.2,1.5,1.4,2.3
	c1.4,5.8,4.6,11.1,5,17.3c0.2,3.4,2.4,6.7,3,10.1c1,5.7,3.4,10.9,5.7,16c2.1,4.8,2.2,9.7,2.3,15.4c-2.4-0.4-4.5-0.4-6.2-1.2
	c-2.9-1.4-5.7-3.1-8.4-4.9c-6.6-4.4-13.3-8.4-20.8-11.1c-3.5-1.2-6.7-3.1-10.1-4.8c-1.2-0.6-2.5-1.2-3.7-1.9c-2.4-1.2-6-1.2-5.6-5.4
	c0-0.4-0.8-0.9-1.2-1.4c-3.8-4.1-7.6-8.1-11.3-12.3c-2.5-2.9-5.5-5.7-7-9.1c-2.2-5.1-5.5-9.3-8.5-13.7c-2.4-3.5-4.4-7.3-6.9-10.7
	c-2.7-3.6-5.9-6.7-8.7-10.2c-4.2-5.5-7.9-11.4-12.3-16.7c-3.9-4.8-6.4-10.7-12.1-13.9c-0.4-0.2-0.6-0.7-0.9-1.1
	c-3-4.4-5.8-9.1-9.1-13.3c-4.3-5.6-9.5-10.5-13.5-16.2c-3.5-4.9-8.3-8.2-12.3-12.5c-1.8-1.9-3.5-1.9-4.9-0.5
	c-2.2,2.1-4.4,4.3-6.6,6.5c-1.7,1.7-3.3,3.1-1.8,6c0.9,1.8,0.9,4.1,0.9,6.2c0,1.5-0.2,3-0.8,4.4c-2,5.2-5.8,9.1-10.1,12.4
	c0.9,3,2.1,5.7,2.4,8.6c0.4,4.8,0.7,9.5,2.8,13.9c0.5,1.1,0.4,2.7,0.3,4c-0.2,3.6-0.2,7.1,1.7,10.4c0.8,1.4,0.9,3.2,1,4.9
	c0.3,5-0.1,10.1,2.4,14.7c0.7,1.3,0.9,2.9,1.1,4.4c0.3,2.5,0.1,5,0.7,7.4c1.2,5.1,2.9,10,4.3,15c1.9,6.8,3.8,13.5,6.5,20
	c0.7,1.7,1.1,3.5,1.9,5.1c2.4,5,5.3,9.8,7.1,15c1.8,5.4,4.6,10.1,7.5,14.8c1.6,2.5,2.8,5.1,4.1,7.5c3.6,0.5,7.3,1.3,11.1,1.4
	c3.8,0,7.5,2.2,11.4,0.3c0.5-0.2,1.3-0.2,1.9,0c5.9,1.2,11.6-0.8,17.4-1.2c2.8-0.2,5.7-1.3,8.4-2.4c2.7-1,5.2-2.8,8-3.7
	c4.2-1.4,7.3-4.8,11.7-5.7c1.1-0.2,2.2-1.3,3-2.2c3.1-3.6,7.2-4,11.5-3.6c1.1,0.1,2.1,0.3,3.2,0.6c2.7,0.7,5.3,1.7,8,2.2
	c10.3,1.8,20.1,5,29,10.4c4.7,2.8,9.6,5.8,13,10.1c2.3,3,4.8,4.1,8.2,4c7.5-0.3,14.9-0.6,22.4-0.9c0.5,0,0.9-0.1,1.4-0.2
	c7.7-2.2,15.5-3.9,23.6-4.6c3.5-0.3,6.9-1.4,10.3-2.5c4.2-1.4,8.4-3.2,12.5-4.9c5-2,10.2-3.7,14.9-6.3c6.7-3.7,13-8.2,19.5-12.3
	c1.3-0.8,3-1.3,3.9-2.5c5.2-6.3,12.4-10.2,18.4-15.5c5.1-4.5,9.5-9.5,13.1-15.3c1.8-2.9,3.7-6.1,7.5-7.2c0.4-0.1,1.2-0.4,1.2-0.5
	c-0.1-3.3,3.4-4.1,4.6-6.6c2-4.1,4.7-7.9,7.1-11.8c3.2-5.3,6.5-10.5,9.7-15.8c0.3-0.5,0.4-1.2,0.6-1.7c1.5-4,3.2-8,4.6-12.1
	c4.1-11.3,8.8-22.4,10.6-34.4c0.8-5.6,4.2-10.6,3.6-16.5c0-0.3,0.2-0.6,0.3-0.9c0.8-3.3,1.7-6.5,2.3-9.9c1.5-8.7,4.1-17.2,3.8-26.1
	c2.9-7.1,1.1-14.9,3.5-22.1c0.6-1.7,0.6-4.3-0.3-5.6c-1.8-2.8,0.1-5.8-1.3-8.4c1.7-5.5-0.8-10.8-0.7-16.2c0.1-4.5-2-8.6-1.5-13.2
	c0.3-3,0.1-6.5-1.2-9.1c-2.4-4.8-2.2-9.9-3.2-14.9c-1.4-6.8-1.9-13.7-3.6-20.4c-1.4-5.6-3.2-11.2-3.6-17c-0.2-3.2-1.5-5.9-2.5-8.7
	c-1.1-2.9-2.4-5.7-3.3-8.7c-1.6-5.4-3.5-10.8-5.5-16.1c-2.9-7.9-8.5-14.2-11-22.2c-1.4-4.5-4.5-8.4-6.8-12.6c-1.2-2.3-2-4.9-3.5-7
	c-5.3-7.6-10-15.6-14.2-23.8c-0.8-1.6-2-3.1-3.1-4.6c-0.7-1.1-1.6-2.1-2.2-3.3c-1.8-3.1-3.3-6.3-5.3-9.2c-1.8-2.7-4.4-4.8-6.3-7.4
	c-2.6-3.7-6.8-6.2-8.4-10.9c-0.5-1.4-2-2.3-3.8-2.2c-1,0.1-2.1-0.2-3-0.3c-0.1-0.6-0.2-0.9-0.3-1.2c-0.8-5.7-5.4-9.7-11.1-9.7
	c-3.1,0-6,0.1-9.1,0.7c-3.5,0.7-7.4-0.8-11.1-0.6c-7.7,0.4-15.4,1.3-23.1,2c-2.3,0.2-4.6,0.5-6.9,0.8c-4.1,0.6-8.4,0.7-12.3,1.9
	c-4.1,1.2-7.8,1.3-11.3-1.2c-2.7-1.9-5.4-4-8-6.1c-1.8-1.4-2.7-3.4-2.7-5.7c0-3.4,1.5-4.9,4.9-4.8c1.4,0,2.7,0,4.1,0
	c5.5,0.3,11-1.6,16.5-0.1c0.6,0.2,1.2,0,1.9-0.1c4.8-0.3,9.6-0.6,14.3-0.8c0.3,0,0.6,0,0.9,0c4.4,0.3,8.8,0.6,13.1,0.9
	c1.5,0.1,3.1,0.4,4.6,0.6c6.1,0.7,12.3,1.6,18.4,2.2c1.6,0.2,3.3-0.4,4.9-0.3c9,0.7,17.9,1.5,26.9,2.2c2.1,0.2,4.3,0.1,6.4,0.3
	c6.1,0.5,12.2,1.1,18.3,1.6c0.6,0.1,1.2-0.1,1.9-0.1c1.3,0,2.7-0.1,4,0c4.6,0.5,9.2,1.2,13.8,1.8c1.8,0.2,2.8-0.7,3.1-2.2
	c0.5-2.7,1.2-5.4,1.2-8.2c0.1-4.4-0.1-4.4,4.6-4.3c0.7,1.5,1.5,3.1,2.1,4.4c-6.2,1.5-3.1,6.5-4.5,10c5.1,2.2,10,1,14.9,1.2
	c0.8-5.2,1.4-9.9,2.3-14.6c0.2-1.1,1.5-2.4,2.7-2.9c0.6-0.3,1.9,0.7,2.2,0.8c-0.8,4.9-1.6,9-2.2,13c-0.3,2.1,0.7,3.9,2.7,4.4
	c2.5,0.7,5.2,0.9,7.8,1.1c2.2,0.2,3.4-0.5,3.7-3c0.3-3.2,1.1-6.4,1.9-9.5c0.7-2.8,1.9-2.9,4.5-0.7c-0.6,1.3-1.7,2.6-1.9,4
	c-0.3,2.3,0.1,4.7,0.1,7c0,2.1,0.9,3.2,3.1,3.2c2.2,0,4.4-0.3,6.6,0.1c7.4,1.4,14.7,3.5,22.3,3.8c5.1,0.2,10.2,0.7,15.4,1.1
	c0.6-2.2,1.1-3.8,1.4-5.5c0.4-2.2,0.9-4.2,3.2-5.3c1.6-0.8,2.1-2.4,2.2-3.6c-2.5-1.3-4.6-2.3-6.5-3.5c-4.6-2.9-9-6.1-13.6-8.9
	c-2.6-1.6-5.9-2.2-8.2-4.1c-6.7-5.5-14.4-9-21.9-12.9c-7.8-4.1-16-7.4-23.6-11.7c-11.8-6.5-22.8-14.3-35.6-18.9
	c-5.8-2.1-10-6.6-15.9-8.8c-6.6-2.4-12.5-6.6-18.8-10c-2.2-1.2-4.4-2-7-2c-2.8,0-5.8-0.3-8.1-2.3c-5-4.4-11.3-6.2-17.2-8.7
	c-6.7-2.7-13.8-4.5-20.7-6.4c-2.8-0.7-5.8-1-8.4,1.3c-0.7,0.7-2,1-3,1.1c-5.5,0.9-10.9,1.6-16.4,2.6c-5.9,1-11.6-1.1-17.4-1.5
	c-2.3-0.1-4.8,0.2-7-0.4c-3.4-0.9-6.6-2.3-9.9-3.6c-3-1.2-4.8-3.5-5.9-6.5c-0.7-2-1.3-4.1-1.9-6.2c-0.6-2.1-1.7-2.5-3.8-1.9
	C481.4,91.9,473.7,93,465.8,92.9z M945,383.2c-0.4-0.1-0.9-0.3-1.3-0.4c-0.8,1.2-1.8,2.3-2.4,3.6c-2,4.2-3.4,8.5-4.3,13.2
	c-1.2,5.8-3.7,11.4-5.5,17.1c-0.5,1.6-0.8,3.3-1.1,4.9c-1,4.3-2.3,8.6-3,12.9c-0.6,3.5-0.6,7.1-2.8,10.1c-0.4,0.5-0.5,1.5-0.4,2.2
	c0.6,2.6-0.2,4.9-1.5,7.1c-0.5,0.9-0.9,2-1.1,3c-0.9,4.2-1.8,8.4-2.6,12.7c-0.9,4.9-3.6,9-4.5,14c-1.7,9.9-5.5,19.4-8.4,29.1
	c-1.9,6.3-4.8,12.4-7.1,18.7c-0.9,2.5-1.7,4.9-2.5,7.4c-0.5,1.4-1.2,2.9-1.1,4.3c0.1,3.5-0.3,6.8-1.9,9.9c-0.6,1.2-0.8,2.5-1.3,4
	c6.1,0.8,11.7-0.4,17.3-1.3c3.8-0.6,7.5-2.3,11.3-0.5c0.5,0.2,1.3,0.2,1.8-0.1c5.6-2.3,11.3-2.6,17.2-1.7c3.3,0.5,6-1.5,9-1.8
	c5.6-0.6,11.2-0.7,16.7-1.1c3.9-0.3,7.7-0.6,11.5-1.1c3-0.4,5.9-1.3,8.9-1.9c-0.9-3.3-1.8-6.3-2.5-9.2c-0.6-2.2-1-4.5-1.5-6.7
	c-1.4-5.3-2.9-10.7-4.1-16c-0.8-3.6-1.2-7.3-1.9-10.9c-0.5-2.7-1-5.4-1.9-8c-1.7-4.8-3.7-9.4-5.5-14.2c-0.9-2.3-2-4.7-2.1-7
	c-0.3-4.5-3.6-8.2-3.1-12.8c0-0.3-0.5-0.7-0.9-1.1c-2.5-2.6-2.8-5.9-3.1-9.4c-0.5-5-0.2-10.2-3.7-14.5c-0.4-0.5-0.6-1.1-0.6-1.7
	c-0.9-6.2-1.2-12.6-2.7-18.6c-1-4.1-1-8.4-3.6-12.2c-1.9-2.7-2.2-6.6-2.7-10.1C945.4,391.2,945.3,387.1,945,383.2z M665,295.4
	c1.3,3,2.1,5.3,3.1,7.4c4,7.9,8.8,15.6,12,23.8c2.1,5.4,6.3,10.4,5.2,16.9c0,0.2,0.2,0.6,0.4,0.8c1.8,2,2,4.3,2.3,6.9
	c0.6,4.2,1.8,8.3,2.9,12.8c2.1,0,3.8,0,5.5,0c11,0.4,22-0.7,33,0.3c3.9,0.4,8-0.6,12-1.2c3.2-0.5,6.3-1.4,9.5-2
	c2.7-0.5,5.5-0.7,8.3-1c2-0.3,4-0.5,5.9-0.9c3.4-0.7,7.1-0.4,9.4-2.5c0.2-3.3,0.5-5.8,0.6-8.3c0.1-1.1-0.1-2.1-0.2-3.2
	c-0.2-2.3-0.4-4.6-0.5-6.9c-0.1-3.5,0.2-6.9-1.6-10.4c-1.4-2.6-2.9-5.9-1.2-9.4c-2.4-1.2-3.7-2.9-2.8-5.7c0.4-1.5-0.3-2.6-1.7-3.5
	c-3.6-2.1-6.7-5.7-11.6-2.9c-0.3,0.2-0.9-0.1-1.4-0.2c-5.2-0.5-10.4-1.2-15.7-1.6c-6.8-0.5-13.7-0.2-20.5-1.2
	c-5.4-0.8-10.7-1.8-16.1-1.9c-1.8,0-3.5-0.8-5.3-1.2c-3.3-0.8-6.6-2.3-9.9-2.1c-5.7,0.3-10.9-1.2-16.2-2.5
	C668.8,295.8,667.4,295.7,665,295.4z M338,494.1c0.3,0.6,0.5,1.1,0.7,1.4c5.2,6.4,10.3,12.9,15.5,19.3c1,1.2,2,2.4,2.8,3.7
	c2.4,3.6,4.6,7.2,7,10.8c2.2,3.3,5.2,6.2,6.8,9.7c2.2,4.6,5.8,8,8.7,12c3.1,4.3,7.7,7.5,9.3,12.9c0.1,0.3,0.4,0.6,0.6,0.6
	c2.9,0.3,3.4,3,4.7,4.7c3.6,4.9,7.2,9.9,10.6,14.9c2.9,4.2,5.6,8.5,8.4,12.8c1.6,2.4,3.3,4.8,5,7.2c3.1,4.3,6,8.6,9.2,12.8
	c2.9,3.8,5.9,7.6,9.2,11.1c2.7,2.9,6.6,3.9,10.2,5.1c7.7,2.7,15.7,4.6,22.7,9c1.1,0.7,2.8,0.4,4.8,0.6c-2-5.5-3.7-10.2-5.4-15
	c-1.9-5.4-4-10.7-4.3-16.5c0-0.6,0-1.5-0.4-1.8c-3.7-2.6-4.4-7.3-7.3-10.4c-2.9-3.1-5.6-6.4-7.2-10.4c-0.3-0.8-1.2-1.4-1.7-2.1
	c-1.4-1.8-2.7-3.6-4-5.4c-0.9-1.3-1.4-2.8-2.3-4c-4.5-5.9-9.2-11.6-13.7-17.6c-2.8-3.8-5.5-7.7-8.2-11.6
	c-7.2-10.5-15.1-20.4-22.5-30.6c-5-7-9.7-14.3-14.5-21.5c-3.8-5.6-7.4-11.3-11.2-17c-2.5-3.8-4.3-4-7.8-1.1c-1.6,1.3-3.3,2.6-5.2,4
	c3.9,5.1,5.4,11.7,10.9,15.8c0.5,0.4,0.9,0.9,1.2,1.4c2.7,5.3,7.4,9.3,9.6,15.1c1.2,3.2,4,5.8,6,8.8c4.5,6.6,8.5,13.5,13.4,19.6
	c6.3,7.8,12.4,15.7,18.1,24c1.6,2.4,3.7,4.7,4.4,7.4c0.8,2.8,2.3,4.3,4.6,5.4c4.2,2.2,7.3,5.9,9.4,9.9c2.2,4.3,4.5,8.4,7.2,12.4
	c1.3,1.9,1.9,4.2,2.4,6.5c0.4,1.5,0.3,3.2-2.4,3.9c-1.3-1.9-2.7-4-4.2-5.9c-2.1-2.7-4.4-5.2-6.6-7.8c-1.7-1.9-3.5-3.8-5.2-5.8
	c-0.4-0.4-0.3-1.6-0.6-1.7c-4.1-0.8-4.5-4.5-6.4-7.3c-1.6-2.4-3.5-4.9-5.7-7.1c-1.8-1.7-3.7-3.3-5-5.3c-2.8-4.4-5.5-8.7-9-12.5
	c-0.6-0.6-0.8-1.6-1.1-2.4c-1.6-4-3.2-7.8-6.4-11c-4-3.8-6.6-8.9-10-13.3c-6.4-8.5-11.8-17.7-18.4-26.2c-3.1-4-6.7-7.8-9-12.5
	c-1-2.2-4-3.5-6.2-5c-0.5-0.3-1.7-0.2-2.3,0.1C344.1,490,341.1,492,338,494.1z M771.1,399.5c2.4-2.7,4.5-4.9,6.3-7.3
	c1.1-1.4,2.4-3.3,2.2-4.9c-0.6-5.7-1.7-11.3-2.8-16.9c-0.6-3-1.7-3.6-5-3.6c-1.2,0-2.6-0.1-3.7,0.4c-5.1,2.4-10.7,2.9-16.1,4.1
	c-3.5,0.8-6.9,1.9-10.4,2c-10.7,0.2-21.3,1.4-31.9,3c-4.6,0.7-9.4,1.5-13.8,4.1c3.1,11.8,6.8,23.4,7.2,36.3c2.2-0.4,4.1-0.6,6-1
	c1.4-0.3,2.6-0.9,4-1.1c3.4-0.4,6.9-0.2,10.1-1.1c8.4-2.4,17.1-3.9,25-7.9C755.5,402,763.2,399.5,771.1,399.5z M989.4,555.3
	c-5.3,0.4-10.7,0-15.8,1.3c-6.7,1.6-13.4,1-20.1,1.6c-4.3,0.4-8.6,0.6-13,1c-5.7,0.5-11.4,1.6-17,1.7c-7.8,0-15.4,1.1-22.9,3.1
	c-3,0.8-6,1.6-9.8,2.6c1.4,0.9,2.1,1.5,2.9,1.8c1.3,0.5,2.7,0.7,3.9,1.3c6.7,3.4,13.7,5.6,21.3,5.3c4.2-0.2,8.4-0.2,12.5-1
	c5.3-1,10.8-0.8,15.8-3.2c1.9-0.9,4.2-0.9,6.3-1.4c5.1-1,10.3-1.8,15.4-3.1c4.3-1.1,8.5-2.9,12.7-4.5c2.2-0.8,4.3-1.8,6.4-2.7
	C989.5,558.6,990.3,557.6,989.4,555.3z M532.6,31.4c-3.2-0.5-6.3-1-9.5-1.3c-0.8-0.1-1.8,0.5-2.5,1.1c-2.9,2.4-5.4,5-6.3,8.8
	c-0.5,1.9-1.4,3.8-2.1,5.6c-2.8,7.3-5.6,14.5-8.5,22.1c7.7,2.8,4.4,8.6,4.8,12.5c-2.8,2.3-5,4.2-7.1,6c1.8,12.5,7.6,14.6,21.2,12.4
	c-6.5-11-6.7-23.3-6.2-35.4C516.9,50.6,523.1,40.3,532.6,31.4z M805.3,361c0.5-2.1,1.4-4.2,1.3-6.4c-0.1-7.9,1.4-15.8,0.5-23.7
	c1.9-3.3-0.2-6.7-0.1-10c0.1-3.1-3.5-7.8-5.6-7.9c-4.8-0.2-9.2,0.8-13.2,4.6c1.8,0.3,3.1,0.5,4.9,0.8c-0.4,1.8-0.7,3.3-1,4.8
	c3.3,2.9,9.9,1.6,10.7,8.1c-3.4,1.7-6.3,4.2-10.3,1.2c-1.4-1.1-4-1-6.3,0.8c1.8,1,3.2,2.1,4.8,2.5c3.2,0.8,6.1,2.1,8.3,4.6
	c2.2,2.6,4.8,5.1,3.8,8.9c-2.1,1.3-4,2.4-6.1,3.7c-5.9-3.5-7.1-3.3-9.7,2C792.2,359.6,797.9,361.7,805.3,361z M528.1,88.1
	c1.5,5.7,5.4,8.3,9.8,10.4c3.4,1.6,7.3,1.4,8.3-1c2-4.9,6.3-7.7,9.9-10.9c4.3-3.7,7.2-8.2,10.6-12.6c1.3-1.7,1.4-3.3,0.7-5.2
	c-2.3,0.2-4.1,1-5.3,3.1c-0.8,1.4-1.8,3.1-3.2,3.9c-3.3,1.7-5.9,4.2-8.2,7c-1.9,2.2-3.5,4.8-6.5,5.7c-0.5,0.1-0.8,0.9-1,1.5
	c-1.8,3.8-4.9,5.4-9.1,5.3c-0.2-1.9-0.4-3.8-0.5-5.6c3.4-2.5,6.8-4.8,9.8-7.4c6.1-5.4,11.9-11.1,18-16.4c2-1.7,3-4.5,6.1-5.3
	c1.8-0.4,1.5-1.9-0.9-4.2c-2.8,2.1-5.7,4.1-8.4,6.4c-2.5,2.2-5.6,3.5-8.2,5.7c-3,2.5-4.8,5.8-7.5,8.5c-3.8,3.7-6.3,9.1-12.6,9.7
	C529.3,86.6,528.7,87.7,528.1,88.1z M705.8,569.9c-0.6-6.3-1-12.2-3.7-17.7c-2.4-4.7-4.1-9.6-3.9-14.9c0-0.9-0.3-1.8-0.7-3.5
	c-4.2,11.2-11.3,28.9-11,34.4C692.8,568.5,698.8,571.5,705.8,569.9z M564,39.3c-3.7-4.1-3.7-4-7.7-2.1c-2.9,1.3-5.4,3.8-9,3.3
	c-0.5-0.1-1.4,0.7-1.7,1.4c-2.1,3.5-5.4,5.6-8.4,8.1c-2.3,1.9-5.4,3.2-6.6,6.4c-0.7,1.8-1.8,3.6-3.2,4.8c-3.6,3-3.9,3.9-1.3,8.3
	c2.6-2.3,5-4.7,7.8-6.7c3.2-2.3,5.1-6.3,9.5-7c0.5-0.1,0.8-1.3,1.3-1.8c2.5-2.6,4.8-5.5,7.6-7.6C555.8,43.8,559.8,41.8,564,39.3z
	 M557.5,50c-2.9-1.6-3.1-1.3-5.4,1.1c-2.6,2.7-3.8,6.5-7,8.8c-1.7,1.3-3.2,2.9-4.5,4.5c-3.4,4.3-7.2,7.9-12,10.6
	c-4.2,2.4-4.4,3.4-2,8.4c4.2-3.6,8.3-7,12.2-10.5c4.1-3.7,7.9-7.6,12-11.3c2.7-2.4,6.2-4.1,8.4-6.8c1.9-2.4,4.1-3.6,6.8-4.3
	c0.3-0.1,0.5-0.4,0.8-0.7c-0.1-0.8-0.2-1.7-0.2-2.5C562.8,45.5,560.8,48.5,557.5,50z M437.9,114.7c-1.9-2.5-3.4,0.8-5.7-0.3
	c-0.1-1.6-0.2-3.7-0.3-5.2c1.3-0.6,2.3-0.8,2.8-1.4c2.7-3.4,6-6.2,9.9-8.2c0.7-0.3,1.8-0.8,1.8-1.3c0.3-2.6,2.4-3.2,4.1-4.4
	c1.5-1,2.9-2.3,4.1-3.7c1.1-1.2,1-2.6-0.9-3.5c-1,0.8-2.3,1.5-3.1,2.6c-2.7,3.4-5.9,6.3-9.4,8.9c-1.5,1.1-2.6,2.5-4,3.8
	c-3.1,2.9-6.3,5.8-9.5,8.5c-1.3,1.1-2.8,3.5-4.8,0.6c-0.1-0.2-1.2,0.4-2.3,0.8c1.1,1.1,1.8,2,2.7,2.5c4.1,2.3,8.2,3.5,13.3,2.2
	c8.1-2.1,14.2-6.6,18.4-13.6c0.9-1.4,0.9-3.3,1.5-5.5C448.1,101.6,442.9,107.8,437.9,114.7z M420,58.9c-9.2-1.9-13.1-0.3-17,7
	c-3.2,6-6.2,12.2-9.2,18c1.5,3.3,5.6,4.6,5.1,8.8c1.2-2.9,2.6-5.6,2.7-8.3c0.1-3.1,1.2-5.4,2.8-7.6c2.5-3.5,5-7,7.7-10.5
	c0.8-1.1,2.2-1.7,3.2-2.6C416.8,62.2,418.3,60.7,420,58.9z M443,67.8c-1.7,1.1-2.9,2.4-4,2.3c-1.9-0.1-2.7,0.9-3.8,1.9
	c-1,0.9-2.4,1.3-3.6,2c-1.8,1.1-3.7,2.2-5.4,3.4c-1.1,0.8-1.9,2.4-3.1,2.7c-2.1,0.5-2.9,1.9-3,3.5c-0.2,3.1-2.2,5.1-4.2,7
	c-1.2,1.2-3,1.7-4.8,2.6c0.7,1.8,1.3,3.3,2.1,5.2c3.9-3.7,7.3-7,10.8-10.2c3.2-3,6.8-5.5,9.8-8.8c3.1-3.4,7.6-5.4,11.7-8.1
	C444.7,70.1,443.9,69,443,67.8z M786.3,398.5c-0.6,1.5-1,2.5-1.4,3.5c-1.8,4.2,0.2,10.6,4.2,12.8c1,0.6,2.4,0.9,3.5,0.7
	c3.6-0.5,6.5-2.7,7.6-6c0.7-2.2,0.1-4.9-0.4-7.3c-0.4-2.2-2.6-2.5-4.4-2.8C792.3,399,789.2,398.8,786.3,398.5z M674.8,595.7
	c12.8-1.1,23-7.2,33.1-14.7c-7.8-0.7-14.8-0.1-21.5,2.7C681.2,585.8,675.8,587.9,674.8,595.7z M415.1,106.2c0.9,1.3,1.8,2.5,2.5,3.5
	c11.4-10.4,22.4-20.4,33.5-30.4c-2.6-2.7-2.7-2.9-5.1-1c-6.6,5.2-13.2,10.6-19.7,16c-1.5,1.2-2.9,2.8-3.7,4.5
	C421,102.1,418.4,104.3,415.1,106.2z M399.3,100.1c-2.8,1-5.1,1.8-7.8,2.7c-0.6,1.9-0.6,4.3,1,6.5c4.1,5.2,9.9,7.1,16.2,7.9
	c0.7,0.1,1.4-0.2,3-0.4C406.9,111,400.8,107.1,399.3,100.1z M411.5,84.5c0.3,0.3,0.6,0.6,1,0.9c8.2-6.9,16.4-13.8,24.6-20.7
	c-3-0.7-6.1-0.3-9,1C419.6,69.4,415.5,76.9,411.5,84.5z M531,50.5c3.5-3.4,5.9-6.2,8.7-8.5c2.8-2.4,6-4.5,9.3-6.9
	c-0.8-0.2-1.2-0.4-1.4-0.3c-7.3,1.3-12.2,6.2-16.7,11.5C530.3,46.8,530.9,48.3,531,50.5z"/>
<path fill-rule="evenodd" clip-rule="evenodd" fill="#FFFFFF" d="M465.8,92.9c-2.1,7.1-2.9,14.2-7.7,19.6c-1.6,1.8-3.9,2.9-5.5,4.7
	c-4,4.6-9.3,6.4-15,7.6c-6.6,1.3-13.2,1.9-19.9,2c-4.2,0-8.1,0.1-11.6-2.5c-0.4-0.3-1.2-0.4-1.8-0.4c-5.3,0.4-10-1.9-14.6-4
	c-3.6-1.6-6.2-4.9-6.7-9.2c-0.3-2.3-0.2-4.6-0.1-6.9c0.2-4.3,0-4.8-4.1-5.9c-4.9-1.3-9.7-2.9-14.3-5.2c-2.6-1.3-5.4-2.3-8.2-3.2
	c-0.8-0.3-2-0.5-2.7-0.1c-2,1.2-3.6,0.3-5.2-0.6c-3.3-1.8-6.6-1.9-9.9,0.1c-3.1,1.9-3.8,4.3-1.5,7.2c1.6,2,3.6,3.7,5.3,5.6
	c0.9,1,1.6,2.3,2.6,3.7c-3.7,0.5-6.6,1-10.2,1.5c-0.5-0.3-2-1-3-2.1c-1.8-2.1-4.1-4.1-4.9-6.6c-1.9-5.8,2.2-15.2,7.2-18.8
	c5.4-3.9,11.5-5,17.9-4.2c8.4,1,16.8,2.4,25.2,3.5c2.4,0.3,4.9,0.4,7.2,0.1c2.8-0.4,4.2-2.3,5.8-4.9c2.3-3.8,4.3-7.8,6.5-11.6
	c1.7-3,3.5-6.1,5.8-8.6c2.2-2.4,4.7-5.1,8.2-5.3c2.6-0.2,5.4,0.2,8,0.7c3.6,0.7,7.2,1.8,10.7,2.7c0.6,0.2,1.2,0.4,1.7,0.7
	c3.4,2,6.8,3.4,10.7,4.1c2.8,0.5,5.7,1.5,8.2,2.9c8.8,5,13,12.9,13.2,22.4c6.7,3,12.4-2.1,18.7-1.4c0.2,0,0.5-0.3,0.8-0.5
	c2.1-1.3,4.2-2.6,6.3-3.9c1.8-1.1,3.6-2.1,3.9-4.7c0.4-3,1.4-5.9,2.5-8.8c0.6-1.6,0.7-3.1-0.4-4.3c-2.4-2.8-4.6-5.7-7.4-8.1
	c-5.4-4.6-11.2-8.8-16.8-13.2c-1.6-1.2-3-2.7-4.7-3.7c-4.5-2.5-9.2-4.8-13.7-7.3c-5.7-3.1-11.4-6.2-17.6-7.9
	c-7.3-1.9-14.7-3.3-22-5.1c-5-1.2-9.9-2.6-15.1-1.1c-0.6,0.2-1.5-0.2-2.2-0.4c-4.4-0.7-8.8-1.4-13.3-2c-0.8-0.1-1.6,0.1-2.3,0.1
	c-1.8,0.2-3.7,0.5-5.5,0.7c-3.5,0.4-7.2,0.4-10.6,1.3c-4.7,1.3-9.4,3.1-13.9,5c-3.9,1.7-7.5,4.4-11.5,5.8
	c-6.7,2.4-11.5,7.4-16.2,12.1c-5.1,5.1-9.7,10.9-13,17.5c-1.1,2.2-3,4.5-2.9,6.7c0.1,3.1-1.4,4.3-3.3,6c-1.4,1.2-2.5,2.6-3.6,4.1
	c-5.4,7-6.6,15.9-10.1,23.8c-2.9,6.4-4.3,13.6-5.7,20.6c-1.2,5.9-1.7,11.9-2,18c-0.3,7.9-1.2,15.7-3.4,23.3c-0.8,2.5-0.7,5.3,0,8.1
	c0.9,3.5,1.3,7.3,1.6,10.8c0.3,3-0.3,6.4,0.3,9.4c1.1,5.7,1.8,11.4,1.4,17.2c-0.4,6.7,1.8,12.9,4,18.9c1.9,5.1,4.8,9.9,7.4,14.8
	c0.7,1.3,2.3,2.2,2.8,3.5c0.9,2.2,0.9,4.7,1.8,6.9c1.8,4.7,4,9.3,5.9,14c1.2,3,3.2,5.5,3.5,9c0.4,5.5,2.1,10.8,4.5,15.7
	c2.1,4.3,3.5,8.7,3.6,13.6c0.1,4.6,1.3,9.1,1.8,13.7c0.5,4.9,1,9.8,1,14.7c0.1,4.4-0.4,8.9-0.8,13.3c-0.2,2-0.5,4-1.1,5.9
	c-1.9,5.6-4,11-5.9,16.6c-1.3,4.1-2.3,8.3-3.5,12.4c-0.4,1.3-1.1,2.5-1.6,3.8c-0.8,1.8-2.3,3.6-2.3,5.3c0,2.9-1.2,5-2.4,7.3
	c-3,5.9-4.8,12.2-6.3,18.7c-1,4.3-0.6,9-2.9,13.1c-0.5,0.9-0.2,2.1-0.2,3.2c0,3.3-0.1,6.6,0,9.8c0.1,3.2,0.3,6.2,1.5,9.4
	c3,8,6.8,15.6,10.7,23.1c1.6,3.1,3.9,5.9,6.6,8.2c2.7,2.3,6.1,3.7,9.1,5.5c2,1.2,4.2,1.3,6.2,0.1c5.7-3.6,11.3-7.5,17-11.1
	c4.9-3.1,9.5-6.6,15.3-8.4c4-1.2,7.5-4.1,11.5-6.4c-1.7-2.1-3.2-4.1-4.8-5.9c-1.7-2-3.8-3.6-5.3-5.8c-4.1-5.9-7.9-12-11.8-18
	c-5.1-7.7-6.4-16.3-6-25.3c0-1,0.1-2.2-0.3-3.1c-2-5.3-1.5-10.8-0.3-15.9c1.2-4.6,0.2-8.7-0.2-13.2c2.3-2.7,4.2-5.7,3.2-9.6
	c-0.9-3.5-1-4.3,2.2-4.9c5.1-1,10.4-1.4,15.6-2c0.6-0.1,1.5,0.1,1.7,0.4c1.2,1.9,3,1.3,4.7,1.4c1.9,0.1,3.8-0.1,5.6,0
	c3.1,0.2,4.9,3.3,3.4,6.2c-0.6,1.2-1.5,2.4-2.5,3.3c-5.7,4.6-10.4,10.2-14.2,16.3c-5.7,9.2-9.3,18.8-5.3,30.1
	c3.3,9.1,7.2,17.8,12.5,25.9c3.6,5.5,9.5,8.3,13.9,12.8c0.5,0.5,1.4,0.8,2.1,1c1.9,0.3,3.5,0.7,5.6-0.7c3.5-2.2,7.6-3.5,11.7-4.7
	c3.6-1,7.3-1.7,10.8-3.5c3.1-1.6,7-1.1,10.2,1c2.3,1.5,7.1,14.2,6.5,16.9c0,0.2-0.1,0.3-0.2,0.4c-0.6,4.9-2.4,9.2-5.6,13
	c-0.6,0.7-1,1.6-1.5,2.3c-1.1,1.5-1.9,3.4-3.3,4.3c-3.6,2.3-7.4,4.3-11.9,4.8c-4.6,0.5-8.4-0.7-11.3-4.7c-2.2-3-4.8-5.6-7.4-8.3
	c-0.7-0.7-1.8-1.3-2.8-1.3c-2.7,0.1-5.4,0.6-7.5,3c0.8,1.6,1.3,3.2,2.3,4.6c4.9,7.1,10.3,14,14.8,21.4c3.2,5.2,7.8,9.7,9.5,15.8
	c0.1,0.4,0.5,0.8,0.9,1.1c3,2.5,5.5,5.3,7.3,8.8c1.1,2.1,2.7,4,4.2,5.9c1.5,1.9,3.8,3.5,4.7,5.7c3.8,9.1,11.3,15.7,15.6,24.3
	c3.7,2.7,5.3,7.2,8.3,10.3c4.2,4.3,6.6,9.7,10.4,14.1c1.2,1.4,2.4,2.8,3.6,4.3c4.4,5.8,7.8,12.4,13.7,17.1c0.7,0.5,1.2,1.5,1.4,2.3
	c1.4,5.8,4.6,11.1,5,17.3c0.2,3.4,2.4,6.7,3,10.1c1,5.7,3.4,10.9,5.7,16c2.1,4.8,2.2,9.7,2.3,15.4c-2.4-0.4-4.5-0.4-6.2-1.2
	c-2.9-1.4-5.7-3.1-8.4-4.9c-6.6-4.4-13.3-8.4-20.8-11.1c-3.5-1.2-6.7-3.1-10.1-4.8c-1.2-0.6-2.5-1.2-3.7-1.9c-2.4-1.2-6-1.2-5.6-5.4
	c0-0.4-0.8-0.9-1.2-1.4c-3.8-4.1-7.6-8.1-11.3-12.3c-2.5-2.9-5.5-5.7-7-9.1c-2.2-5.1-5.5-9.3-8.5-13.7c-2.4-3.5-4.4-7.3-6.9-10.7
	c-2.7-3.6-5.9-6.7-8.7-10.2c-4.2-5.5-7.9-11.4-12.3-16.7c-3.9-4.8-6.4-10.7-12.1-13.9c-0.4-0.2-0.6-0.7-0.9-1.1
	c-3-4.4-5.8-9.1-9.1-13.3c-4.3-5.6-9.5-10.5-13.5-16.2c-3.5-4.9-8.3-8.2-12.3-12.5c-1.8-1.9-3.5-1.9-4.9-0.5
	c-2.2,2.1-4.4,4.3-6.6,6.5c-1.7,1.7-3.3,3.1-1.8,6c0.9,1.8,0.9,4.1,0.9,6.2c0,1.5-0.2,3-0.8,4.4c-2,5.2-5.8,9.1-10.1,12.4
	c0.9,3,2.1,5.7,2.4,8.6c0.4,4.8,0.7,9.5,2.8,13.9c0.5,1.1,0.4,2.7,0.3,4c-0.2,3.6-0.2,7.1,1.7,10.4c0.8,1.4,0.9,3.2,1,4.9
	c0.3,5-0.1,10.1,2.4,14.7c0.7,1.3,0.9,2.9,1.1,4.4c0.3,2.5,0.1,5,0.7,7.4c1.2,5.1,2.9,10,4.3,15c1.9,6.8,3.8,13.5,6.5,20
	c0.7,1.7,1.1,3.5,1.9,5.1c2.4,5,5.3,9.8,7.1,15c1.8,5.4,4.6,10.1,7.5,14.8c1.6,2.5,2.8,5.1,4.1,7.5c3.6,0.5,7.3,1.3,11.1,1.4
	c3.8,0,7.5,2.2,11.4,0.3c0.5-0.2,1.3-0.2,1.9,0c5.9,1.2,11.6-0.8,17.4-1.2c2.8-0.2,5.7-1.3,8.4-2.4c2.7-1,5.2-2.8,8-3.7
	c4.2-1.4,7.3-4.8,11.7-5.7c1.1-0.2,2.2-1.3,3-2.2c3.1-3.6,7.2-4,11.5-3.6c1.1,0.1,2.1,0.3,3.2,0.6c2.7,0.7,5.3,1.7,8,2.2
	c10.3,1.8,20.1,5,29,10.4c4.7,2.8,9.6,5.8,13,10.1c2.3,3,4.8,4.1,8.2,4c7.5-0.3,14.9-0.6,22.4-0.9c0.5,0,0.9-0.1,1.4-0.2
	c7.7-2.2,15.5-3.9,23.6-4.6c3.5-0.3,6.9-1.4,10.3-2.5c4.2-1.4,8.4-3.2,12.5-4.9c5-2,10.2-3.7,14.9-6.3c6.7-3.7,13-8.2,19.5-12.3
	c1.3-0.8,3-1.3,3.9-2.5c5.2-6.3,12.4-10.2,18.4-15.5c5.1-4.5,9.5-9.5,13.1-15.3c1.8-2.9,3.7-6.1,7.5-7.2c0.4-0.1,1.2-0.4,1.2-0.5
	c-0.1-3.3,3.4-4.1,4.6-6.6c2-4.1,4.7-7.9,7.1-11.8c3.2-5.3,6.5-10.5,9.7-15.8c0.3-0.5,0.4-1.2,0.6-1.7c1.5-4,3.2-8,4.6-12.1
	c4.1-11.3,8.8-22.4,10.6-34.4c0.8-5.6,4.2-10.6,3.6-16.5c0-0.3,0.2-0.6,0.3-0.9c0.8-3.3,1.7-6.5,2.3-9.9c1.5-8.7,4.1-17.2,3.8-26.1
	c2.9-7.1,1.1-14.9,3.5-22.1c0.6-1.7,0.6-4.3-0.3-5.6c-1.8-2.8,0.1-5.8-1.3-8.4c1.7-5.5-0.8-10.8-0.7-16.2c0.1-4.5-2-8.6-1.5-13.2
	c0.3-3,0.1-6.5-1.2-9.1c-2.4-4.8-2.2-9.9-3.2-14.9c-1.4-6.8-1.9-13.7-3.6-20.4c-1.4-5.6-3.2-11.2-3.6-17c-0.2-3.2-1.5-5.9-2.5-8.7
	c-1.1-2.9-2.4-5.7-3.3-8.7c-1.6-5.4-3.5-10.8-5.5-16.1c-2.9-7.9-8.5-14.2-11-22.2c-1.4-4.5-4.5-8.4-6.8-12.6c-1.2-2.3-2-4.9-3.5-7
	c-5.3-7.6-10-15.6-14.2-23.8c-0.8-1.6-2-3.1-3.1-4.6c-0.7-1.1-1.6-2.1-2.2-3.3c-1.8-3.1-3.3-6.3-5.3-9.2c-1.8-2.7-4.4-4.8-6.3-7.4
	c-2.6-3.7-6.8-6.2-8.4-10.9c-0.5-1.4-2-2.3-3.8-2.2c-1,0.1-2.1-0.2-3-0.3c-0.1-0.6-0.2-0.9-0.3-1.2c-0.8-5.7-5.4-9.7-11.1-9.7
	c-3.1,0-6,0.1-9.1,0.7c-3.5,0.7-7.4-0.8-11.1-0.6c-7.7,0.4-15.4,1.3-23.1,2c-2.3,0.2-4.6,0.5-6.9,0.8c-4.1,0.6-8.4,0.7-12.3,1.9
	c-4.1,1.2-7.8,1.3-11.3-1.2c-2.7-1.9-5.4-4-8-6.1c-1.8-1.4-2.7-3.4-2.7-5.7c0-3.4,1.5-4.9,4.9-4.8c1.4,0,2.7,0,4.1,0
	c5.5,0.3,11-1.6,16.5-0.1c0.6,0.2,1.2,0,1.9-0.1c4.8-0.3,9.6-0.6,14.3-0.8c0.3,0,0.6,0,0.9,0c4.4,0.3,8.8,0.6,13.1,0.9
	c1.5,0.1,3.1,0.4,4.6,0.6c6.1,0.7,12.3,1.6,18.4,2.2c1.6,0.2,3.3-0.4,4.9-0.3c9,0.7,17.9,1.5,26.9,2.2c2.1,0.2,4.3,0.1,6.4,0.3
	c6.1,0.5,12.2,1.1,18.3,1.6c0.6,0.1,1.2-0.1,1.9-0.1c1.3,0,2.7-0.1,4,0c4.6,0.5,9.2,1.2,13.8,1.8c1.8,0.2,2.8-0.7,3.1-2.2
	c0.5-2.7,1.2-5.4,1.2-8.2c0.1-4.4-0.1-4.4,4.6-4.3c0.7,1.5,1.5,3.1,2.1,4.4c-6.2,1.5-3.1,6.5-4.5,10c5.1,2.2,10,1,14.9,1.2
	c0.8-5.2,1.4-9.9,2.3-14.6c0.2-1.1,1.5-2.4,2.7-2.9c0.6-0.3,1.9,0.7,2.2,0.8c-0.8,4.9-1.6,9-2.2,13c-0.3,2.1,0.7,3.9,2.7,4.4
	c2.5,0.7,5.2,0.9,7.8,1.1c2.2,0.2,3.4-0.5,3.7-3c0.3-3.2,1.1-6.4,1.9-9.5c0.7-2.8,1.9-2.9,4.5-0.7c-0.6,1.3-1.7,2.6-1.9,4
	c-0.3,2.3,0.1,4.7,0.1,7c0,2.1,0.9,3.2,3.1,3.2c2.2,0,4.4-0.3,6.6,0.1c7.4,1.4,14.7,3.5,22.3,3.8c5.1,0.2,10.2,0.7,15.4,1.1
	c0.6-2.2,1.1-3.8,1.4-5.5c0.4-2.2,0.9-4.2,3.2-5.3c1.6-0.8,2.1-2.4,2.2-3.6c-2.5-1.3-4.6-2.3-6.5-3.5c-4.6-2.9-9-6.1-13.6-8.9
	c-2.6-1.6-5.9-2.2-8.2-4.1c-6.7-5.5-14.4-9-21.9-12.9c-7.8-4.1-16-7.4-23.6-11.7c-11.8-6.5-22.8-14.3-35.6-18.9
	c-5.8-2.1-10-6.6-15.9-8.8c-6.6-2.4-12.5-6.6-18.8-10c-2.2-1.2-4.4-2-7-2c-2.8,0-5.8-0.3-8.1-2.3c-5-4.4-11.3-6.2-17.2-8.7
	c-6.7-2.7-13.8-4.5-20.7-6.4c-2.8-0.7-5.8-1-8.4,1.3c-0.7,0.7-2,1-3,1.1c-5.5,0.9-10.9,1.6-16.4,2.6c-5.9,1-11.6-1.1-17.4-1.5
	c-2.3-0.1-4.8,0.2-7-0.4c-3.4-0.9-6.6-2.3-9.9-3.6c-3-1.2-4.8-3.5-5.9-6.5c-0.7-2-1.3-4.1-1.9-6.2c-0.6-2.1-1.7-2.5-3.8-1.9
	C481.4,91.9,473.7,93,465.8,92.9z"/>
<path fill-rule="evenodd" clip-rule="evenodd" fill="#FFFFFF" d="M665,295.4c1.3,3,2.1,5.3,3.1,7.4c4,7.9,8.8,15.6,12,23.8
	c2.1,5.4,6.3,10.4,5.2,16.9c0,0.2,0.2,0.6,0.4,0.8c1.8,2,2,4.3,2.3,6.9c0.6,4.2,1.8,8.3,2.9,12.8c2.1,0,3.8,0,5.5,0
	c11,0.4,22-0.7,33,0.3c3.9,0.4,8-0.6,12-1.2c3.2-0.5,6.3-1.4,9.5-2c2.7-0.5,5.5-0.7,8.3-1c2-0.3,4-0.5,5.9-0.9
	c3.4-0.7,7.1-0.4,9.4-2.5c0.2-3.3,0.5-5.8,0.6-8.3c0.1-1.1-0.1-2.1-0.2-3.2c-0.2-2.3-0.4-4.6-0.5-6.9c-0.1-3.5,0.2-6.9-1.6-10.4
	c-1.4-2.6-2.9-5.9-1.2-9.4c-2.4-1.2-3.7-2.9-2.8-5.7c0.4-1.5-0.3-2.6-1.7-3.5c-3.6-2.1-6.7-5.7-11.6-2.9c-0.3,0.2-0.9-0.1-1.4-0.2
	c-5.2-0.5-10.4-1.2-15.7-1.6c-6.8-0.5-13.7-0.2-20.5-1.2c-5.4-0.8-10.7-1.8-16.1-1.9c-1.8,0-3.5-0.8-5.3-1.2
	c-3.3-0.8-6.6-2.3-9.9-2.1c-5.7,0.3-10.9-1.2-16.2-2.5C668.8,295.8,667.4,295.7,665,295.4z"/>
<path fill-rule="evenodd" clip-rule="evenodd" fill="#FFFFFF" d="M338,494.1c0.3,0.6,0.5,1.1,0.7,1.4c5.2,6.4,10.3,12.9,15.5,19.3
	c1,1.2,2,2.4,2.8,3.7c2.4,3.6,4.6,7.2,7,10.8c2.2,3.3,5.2,6.2,6.8,9.7c2.2,4.6,5.8,8,8.7,12c3.1,4.3,7.7,7.5,9.3,12.9
	c0.1,0.3,0.4,0.6,0.6,0.6c2.9,0.3,3.4,3,4.7,4.7c3.6,4.9,7.2,9.9,10.6,14.9c2.9,4.2,5.6,8.5,8.4,12.8c1.6,2.4,3.3,4.8,5,7.2
	c3.1,4.3,6,8.6,9.2,12.8c2.9,3.8,5.9,7.6,9.2,11.1c2.7,2.9,6.6,3.9,10.2,5.1c7.7,2.7,15.7,4.6,22.7,9c1.1,0.7,2.8,0.4,4.8,0.6
	c-2-5.5-3.7-10.2-5.4-15c-1.9-5.4-4-10.7-4.3-16.5c0-0.6,0-1.5-0.4-1.8c-3.7-2.6-4.4-7.3-7.3-10.4c-2.9-3.1-5.6-6.4-7.2-10.4
	c-0.3-0.8-1.2-1.4-1.7-2.1c-1.4-1.8-2.7-3.6-4-5.4c-0.9-1.3-1.4-2.8-2.3-4c-4.5-5.9-9.2-11.6-13.7-17.6c-2.8-3.8-5.5-7.7-8.2-11.6
	c-7.2-10.5-15.1-20.4-22.5-30.6c-5-7-9.7-14.3-14.5-21.5c-3.8-5.6-7.4-11.3-11.2-17c-2.5-3.8-4.3-4-7.8-1.1c-1.6,1.3-3.3,2.6-5.2,4
	c3.9,5.1,5.4,11.7,10.9,15.8c0.5,0.4,0.9,0.9,1.2,1.4c2.7,5.3,7.4,9.3,9.6,15.1c1.2,3.2,4,5.8,6,8.8c4.5,6.6,8.5,13.5,13.4,19.6
	c6.3,7.8,12.4,15.7,18.1,24c1.6,2.4,3.7,4.7,4.4,7.4c0.8,2.8,2.3,4.3,4.6,5.4c4.2,2.2,7.3,5.9,9.4,9.9c2.2,4.3,4.5,8.4,7.2,12.4
	c1.3,1.9,1.9,4.2,2.4,6.5c0.4,1.5,0.3,3.2-2.4,3.9c-1.3-1.9-2.7-4-4.2-5.9c-2.1-2.7-4.4-5.2-6.6-7.8c-1.7-1.9-3.5-3.8-5.2-5.8
	c-0.4-0.4-0.3-1.6-0.6-1.7c-4.1-0.8-4.5-4.5-6.4-7.3c-1.6-2.4-3.5-4.9-5.7-7.1c-1.8-1.7-3.7-3.3-5-5.3c-2.8-4.4-5.5-8.7-9-12.5
	c-0.6-0.6-0.8-1.6-1.1-2.4c-1.6-4-3.2-7.8-6.4-11c-4-3.8-6.6-8.9-10-13.3c-6.4-8.5-11.8-17.7-18.4-26.2c-3.1-4-6.7-7.8-9-12.5
	c-1-2.2-4-3.5-6.2-5c-0.5-0.3-1.7-0.2-2.3,0.1C344.1,490,341.1,492,338,494.1z"/>
<path fill-rule="evenodd" clip-rule="evenodd" fill="#FFFFFF" d="M989.4,555.3c-5.3,0.4-10.7,0-15.8,1.3c-6.7,1.6-13.4,1-20.1,1.6
	c-4.3,0.4-8.6,0.6-13,1c-5.7,0.5-11.4,1.6-17,1.7c-7.8,0-15.4,1.1-22.9,3.1c-3,0.8-6,1.6-9.8,2.6c1.4,0.9,2.1,1.5,2.9,1.8
	c1.3,0.5,2.7,0.7,3.9,1.3c6.7,3.4,13.7,5.6,21.3,5.3c4.2-0.2,8.4-0.2,12.5-1c5.3-1,10.8-0.8,15.8-3.2c1.9-0.9,4.2-0.9,6.3-1.4
	c5.1-1,10.3-1.8,15.4-3.1c4.3-1.1,8.5-2.9,12.7-4.5c2.2-0.8,4.3-1.8,6.4-2.7C989.5,558.6,990.3,557.6,989.4,555.3z"/>
<path fill-rule="evenodd" clip-rule="evenodd" fill="#FFFFFF" d="M532.6,31.4c-3.2-0.5-6.3-1-9.5-1.3c-0.8-0.1-1.8,0.5-2.5,1.1
	c-2.9,2.4-5.4,5-6.3,8.8c-0.5,1.9-1.4,3.8-2.1,5.6c-2.8,7.3-5.6,14.5-8.5,22.1c7.7,2.8,4.4,8.6,4.8,12.5c-2.8,2.3-5,4.2-7.1,6
	c1.8,12.5,7.6,14.6,21.2,12.4c-6.5-11-6.7-23.3-6.2-35.4C516.9,50.6,523.1,40.3,532.6,31.4z"/>
<path fill-rule="evenodd" clip-rule="evenodd" fill="#FFFFFF" d="M805.3,361c0.5-2.1,1.4-4.2,1.3-6.4c-0.1-7.9,1.4-15.8,0.5-23.7
	c1.9-3.3-0.2-6.7-0.1-10c0.1-3.1-3.5-7.8-5.6-7.9c-4.8-0.2-9.2,0.8-13.2,4.6c1.8,0.3,3.1,0.5,4.9,0.8c-0.4,1.8-0.7,3.3-1,4.8
	c3.3,2.9,9.9,1.6,10.7,8.1c-3.4,1.7-6.3,4.2-10.3,1.2c-1.4-1.1-4-1-6.3,0.8c1.8,1,3.2,2.1,4.8,2.5c3.2,0.8,6.1,2.1,8.3,4.6
	c2.2,2.6,4.8,5.1,3.8,8.9c-2.1,1.3-4,2.4-6.1,3.7c-5.9-3.5-7.1-3.3-9.7,2C792.2,359.6,797.9,361.7,805.3,361z"/>
<path fill-rule="evenodd" clip-rule="evenodd" fill="#FFFFFF" d="M528.1,88.1c1.5,5.7,5.4,8.3,9.8,10.4c3.4,1.6,7.3,1.4,8.3-1
	c2-4.9,6.3-7.7,9.9-10.9c4.3-3.7,7.2-8.2,10.6-12.6c1.3-1.7,1.4-3.3,0.7-5.2c-2.3,0.2-4.1,1-5.3,3.1c-0.8,1.4-1.8,3.1-3.2,3.9
	c-3.3,1.7-5.9,4.2-8.2,7c-1.9,2.2-3.5,4.8-6.5,5.7c-0.5,0.1-0.8,0.9-1,1.5c-1.8,3.8-4.9,5.4-9.1,5.3c-0.2-1.9-0.4-3.8-0.5-5.6
	c3.4-2.5,6.8-4.8,9.8-7.4c6.1-5.4,11.9-11.1,18-16.4c2-1.7,3-4.5,6.1-5.3c1.8-0.4,1.5-1.9-0.9-4.2c-2.8,2.1-5.7,4.1-8.4,6.4
	c-2.5,2.2-5.6,3.5-8.2,5.7c-3,2.5-4.8,5.8-7.5,8.5c-3.8,3.7-6.3,9.1-12.6,9.7C529.3,86.6,528.7,87.7,528.1,88.1z"/>
<path fill-rule="evenodd" clip-rule="evenodd" fill="#FFFFFF" d="M564,39.3c-3.7-4.1-3.7-4-7.7-2.1c-2.9,1.3-5.4,3.8-9,3.3
	c-0.5-0.1-1.4,0.7-1.7,1.4c-2.1,3.5-5.4,5.6-8.4,8.1c-2.3,1.9-5.4,3.2-6.6,6.4c-0.7,1.8-1.8,3.6-3.2,4.8c-3.6,3-3.9,3.9-1.3,8.3
	c2.6-2.3,5-4.7,7.8-6.7c3.2-2.3,5.1-6.3,9.5-7c0.5-0.1,0.8-1.3,1.3-1.8c2.5-2.6,4.8-5.5,7.6-7.6C555.8,43.8,559.8,41.8,564,39.3z"/>
<path fill-rule="evenodd" clip-rule="evenodd" fill="#FFFFFF" d="M557.5,50c-2.9-1.6-3.1-1.3-5.4,1.1c-2.6,2.7-3.8,6.5-7,8.8
	c-1.7,1.3-3.2,2.9-4.5,4.5c-3.4,4.3-7.2,7.9-12,10.6c-4.2,2.4-4.4,3.4-2,8.4c4.2-3.6,8.3-7,12.2-10.5c4.1-3.7,7.9-7.6,12-11.3
	c2.7-2.4,6.2-4.1,8.4-6.8c1.9-2.4,4.1-3.6,6.8-4.3c0.3-0.1,0.5-0.4,0.8-0.7c-0.1-0.8-0.2-1.7-0.2-2.5
	C562.8,45.5,560.8,48.5,557.5,50z"/>
<path fill-rule="evenodd" clip-rule="evenodd" fill="#FFFFFF" d="M437.9,114.7c-1.9-2.5-3.4,0.8-5.7-0.3c-0.1-1.6-0.2-3.7-0.3-5.2
	c1.3-0.6,2.3-0.8,2.8-1.4c2.7-3.4,6-6.2,9.9-8.2c0.7-0.3,1.8-0.8,1.8-1.3c0.3-2.6,2.4-3.2,4.1-4.4c1.5-1,2.9-2.3,4.1-3.7
	c1.1-1.2,1-2.6-0.9-3.5c-1,0.8-2.3,1.5-3.1,2.6c-2.7,3.4-5.9,6.3-9.4,8.9c-1.5,1.1-2.6,2.5-4,3.8c-3.1,2.9-6.3,5.8-9.5,8.5
	c-1.3,1.1-2.8,3.5-4.8,0.6c-0.1-0.2-1.2,0.4-2.3,0.8c1.1,1.1,1.8,2,2.7,2.5c4.1,2.3,8.2,3.5,13.3,2.2c8.1-2.1,14.2-6.6,18.4-13.6
	c0.9-1.4,0.9-3.3,1.5-5.5C448.1,101.6,442.9,107.8,437.9,114.7z"/>
<path fill-rule="evenodd" clip-rule="evenodd" fill="#FFFFFF" d="M420,58.9c-9.2-1.9-13.1-0.3-17,7c-3.2,6-6.2,12.2-9.2,18
	c1.5,3.3,5.6,4.6,5.1,8.8c1.2-2.9,2.6-5.6,2.7-8.3c0.1-3.1,1.2-5.4,2.8-7.6c2.5-3.5,5-7,7.7-10.5c0.8-1.1,2.2-1.7,3.2-2.6
	C416.8,62.2,418.3,60.7,420,58.9z"/>
<path fill-rule="evenodd" clip-rule="evenodd" fill="#FFFFFF" d="M443,67.8c-1.7,1.1-2.9,2.4-4,2.3c-1.9-0.1-2.7,0.9-3.8,1.9
	c-1,0.9-2.4,1.3-3.6,2c-1.8,1.1-3.7,2.2-5.4,3.4c-1.1,0.8-1.9,2.4-3.1,2.7c-2.1,0.5-2.9,1.9-3,3.5c-0.2,3.1-2.2,5.1-4.2,7
	c-1.2,1.2-3,1.7-4.8,2.6c0.7,1.8,1.3,3.3,2.1,5.2c3.9-3.7,7.3-7,10.8-10.2c3.2-3,6.8-5.5,9.8-8.8c3.1-3.4,7.6-5.4,11.7-8.1
	C444.7,70.1,443.9,69,443,67.8z"/>
<path fill-rule="evenodd" clip-rule="evenodd" fill="#FFFFFF" d="M786.3,398.5c-0.6,1.5-1,2.5-1.4,3.5c-1.8,4.2,0.2,10.6,4.2,12.8
	c1,0.6,2.4,0.9,3.5,0.7c3.6-0.5,6.5-2.7,7.6-6c0.7-2.2,0.1-4.9-0.4-7.3c-0.4-2.2-2.6-2.5-4.4-2.8C792.3,399,789.2,398.8,786.3,398.5
	z"/>
<path fill-rule="evenodd" clip-rule="evenodd" fill="#FFFFFF" d="M674.8,595.7c12.8-1.1,23-7.2,33.1-14.7
	c-7.8-0.7-14.8-0.1-21.5,2.7C681.2,585.8,675.8,587.9,674.8,595.7z"/>
<path fill-rule="evenodd" clip-rule="evenodd" fill="#FFFFFF" d="M415.1,106.2c0.9,1.3,1.8,2.5,2.5,3.5
	c11.4-10.4,22.4-20.4,33.5-30.4c-2.6-2.7-2.7-2.9-5.1-1c-6.6,5.2-13.2,10.6-19.7,16c-1.5,1.2-2.9,2.8-3.7,4.5
	C421,102.1,418.4,104.3,415.1,106.2z"/>
<path fill-rule="evenodd" clip-rule="evenodd" fill="#FFFFFF" d="M399.3,100.1c-2.8,1-5.1,1.8-7.8,2.7c-0.6,1.9-0.6,4.3,1,6.5
	c4.1,5.2,9.9,7.1,16.2,7.9c0.7,0.1,1.4-0.2,3-0.4C406.9,111,400.8,107.1,399.3,100.1z"/>
<path fill-rule="evenodd" clip-rule="evenodd" fill="#FFFFFF" d="M411.5,84.5c0.3,0.3,0.6,0.6,1,0.9c8.2-6.9,16.4-13.8,24.6-20.7
	c-3-0.7-6.1-0.3-9,1C419.6,69.4,415.5,76.9,411.5,84.5z"/>
<path fill-rule="evenodd" clip-rule="evenodd" fill="#FFFFFF" d="M531,50.5c3.5-3.4,5.9-6.2,8.7-8.5c2.8-2.4,6-4.5,9.3-6.9
	c-0.8-0.2-1.2-0.4-1.4-0.3c-7.3,1.3-12.2,6.2-16.7,11.5C530.3,46.8,530.9,48.3,531,50.5z"/>
</svg>
