<?xml version="1.0" encoding="utf-8"?>
<!DOCTYPE svg PUBLIC "-//W3C//DTD SVG 1.1//EN" "http://www.w3.org/Graphics/SVG/1.1/DTD/svg11.dtd">
<svg artist="zl2017" version="1.1" id="zlIcon-lauki-sheep-tech" xmlns="http://www.w3.org/2000/svg" xmlns:xlink="http://www.w3.org/1999/xlink" x="0px" y="0px"
	 width="1000px" height="1256.5px" viewBox="0 0 1000 1256.5" enable-background="new 0 0 1000 1256.5" xml:space="preserve">
<path fill-rule="evenodd" clip-rule="evenodd" d="M728.4,588.7c71.5,19.3,139.8,37.4,207.9,56.4c19.9,5.6,40.3,11,52.7,30.9
	c9.3,14.9,11,34.8,0.4,47.7c-2.6,3.1-11.5,3.2-16.4,1.5c-3.2-1.1-4.3-7.9-6.7-11.9c-15.2-24.9-44.1-25-57.3,1.4
	c-21.7,43.8-9.2,74.7,40.3,87.3c6.1,1.5,12.2,2.8,20.3,4.6c-27.1,16.5-72,9.8-84.9-11.7c-12.8-21.3-12.8-44.9-10.2-68.9
	c2.9-27.2,23.7-39.2,43.4-52.5c-23.7-17.7-44.7-18.7-64.5-3.9c-42,31.6-48.6,55.1-30.2,107.3c-31.9-24.1-35.6-57.1-9.1-88.5
	c10.9-12.8,23.5-24.2,35.3-36.2c-23.1-14.5-46-14.8-61.2-0.6c-37,34.5-39,61.1-8.5,114.4c-30.9-11.5-42.2-33.1-36.1-64.4
	c4.2-21.2,11.7-39.6,29.1-53.5c4.1-3.3,6.2-9.1,9.3-13.7c-36.8-22.7-54.9-19.7-81.9,10c-29.6,32.7-36.5,66.8-5.4,107.6
	c-32.2-18.3-40.4-39.4-31.5-70.9c6-21,16.9-37.4,43.3-65.2c-32-20.5-55-20.3-81.3,4c-14.5,13.5-30.2,26-29,51.7
	c1.1,23,18.7,35.7,27.3,59.9c-12.2-9.4-20.4-14.7-27.5-21.2c-16.7-15-22.3-36.6-10.6-56.2c12.3-20.7,28.6-39,44.5-60.1
	c0.2,0.2-2.4-3.4-4.9-3.4c-27-0.1-54.3-3.9-79.5,10.6c-22.6,13-34.6,31.2-32.1,58c0.6,6.2-1.1,12.6-2,21.2
	c-22.5-38.2-11.5-63.7,41.4-102.1c-37.3-18.2-85-7.9-108.5,24.1c-14.7,20-9,40.9-0.3,61.3c1.3,3.1,3.9,5.7,7.4,10.4
	c-27.9-11.2-41.3-41.1-27.7-63.1c10.7-17.3,25.8-32,38.7-47.4c-39.3-19.3-98-3.2-118.8,34.9c-13.5,24.7-15.2,40.6,5.8,75.3
	c-45.4-28.2-43.6-73.1,19-120.8c-5.9-2.2-11.6-6.6-15.3-5.3c-22,7.6-45.1,13.8-64.8,25.6c-25.8,15.4-35.9,40.4-28.3,70.9
	c2.4,9.8,4,19.9,6.3,31.2c-26.8-18.2-25.4-44.1-20-69.3c5.6-26.2,25.5-42.7,54.7-58.9c-20.5-3.3-33.9-5.4-42.8-6.9
	c-12.2,10.4-20.4,18.8-30,25.3c-28,19-36.2,47.5-36.8,78.6c-0.2,9.9,7.3,20,13.1,34.7c-27.3-24.6-32.7-49.4-22.7-79
	c9.6-28.4,36.9-38.6,61.1-58.3c-19.1-2.8-32.9-2.4-46.5,5.6c-6.4,3.8-13.9,8.5-20.8,8.4c-27.1-0.6-31.5,20.5-37.6,38.7
	c-6.3,19.1-2.8,37.1,11.7,52.7c7.2,7.7,12.3,17.1,16.2,27.7c-19.8-9.8-38.6-20.9-46.9-41.7c-9.3-23.2-5.7-45.8,8.9-66.8
	c8.4-12.2,14.3-26.1,22.3-38.6c13.5-20.8,30.2-35.8,58.2-31.9c56,8,113.9,0.2,168.3,21.1c4.9,1.8,11,0.3,17.7,0.3
	c1.1-3.6,3.5-7.2,3-10.4c-5.4-37.1,9.2-70.6,19-104.8c6.8-23.8,18-29.5,43.1-25.7c10.1,1.5,20.2,3.6,31,5.5
	c12.7-21.6,26.5-41.1,20.1-66.7c-20.3-19.1-46.9-18.6-71.3-23.9c-33.9-7.4-54.5-31.9-52.7-66.1c2.1-42.7,32.4-92.1,95.8-85.2
	c-5.4-13-10.6-25.3-16.6-39.8c-7.1,3.3-12.9,5.4-18.2,8.5c-20.7,12.2-39.2,9.3-54.8-9c-8.5-10-10-22.7,0.9-29.8
	c17.8-11.8,37.1-23.2,57.5-28.8c21.2-5.9,41.5,15.4,41.3,38.1c0,4.7,0.3,9.3,0,14c-2.4,32.8-2.4,32.8,31.9,31
	c15.2-37.6,43.6-61.2,84.5-72.3c10-28,25.3-51.9,64.5-51.4c-16.6,11.7-33.4,19.3-44,32.1c-11,13.3-16,31.5-25.4,51.4
	c-4.9-8.7-7.3-13-10.5-18.9c-19.8,16.1-40.9,29.8-45.1,54.9c18,6.4,34.7,12.2,51.1,18.4c10.1,3.8,15.6-1.5,21.5-8.5
	c15.2-17.9,30.3-36.1,46.8-52.8c14.6-14.7,23.1-12.4,38.1,2c19.6,18.8,23,45.1,33.1,68.1c7,16-13.5,36.1-33.8,37.3
	c-14.6,0.9-24.7-11-25.8-30.6c-1.3-24.6-1.3-24.6-13.4-37c-28.7,20.2-30.7,26.5-22.7,58.1c3.7,14.6,6.3,29.8,6.7,44.9
	c0.6,25.2-4.7,48.5-25.2,66.6c-13.6,12.1-13,20.2-0.2,33.5c12.7,13.2,28.2,18.1,46.2,14c4.6-1,9.4-1.6,13.8-3.2
	c23.3-8.6,45.8-11.3,70.1-1.1c13.3,5.5,27.9,0.6,38.9-10.8c10.9-11.3,20.6-22.6,7.9-40c11.7-8.9,22.6-16.2,32.3-24.8
	c17.8-15.9,26.4-35.2,22.4-60.1c-4.4-27.7-11.9-53.4-33.5-73c-1.5-1.3-0.8-5.1-1.8-13.5c10.4,7.3,20.3,10.7,23.6,17.3
	c9.9,20.1,24.4,39.6,22.6,63.3c-2.1,27.9,8.2,53.7,10.7,80.7c1.6,16.7,5.4,33.2,8.5,52c14.2-4.8,27.1-9.6,40.2-13.4
	c22.5-6.5,30.5-3.4,42.1,15.1c43.2,68.7,39,137.6-0.2,206.1c-11.2,19.7-29.7,32.1-50.8,39.1c-35.6,11.8-71-8.4-80.9-38.4
	c-5.7-17.6-10.1-35.7-15.7-55.8c-3.1,3-7.7,6.6-7.4,7.2c4.7,8.2,0.3,11.8-4.7,18.6c-20.3,27.5-43.6,51.7-69.3,73.9
	C735.6,576.2,733.2,581.7,728.4,588.7z M418.8,522.1c50.1,10.4,97.9,20.7,145.8,30.3c48.8,9.8,97.8,19.1,142.6,27.8
	c18.9-17.7,35-32.3,50.5-47.6c9.3-9.2,21.3-18.1,25.7-29.5c5-13.2,13.2-22.1,21.9-32c10.3-11.6,18.2-23.8,22.6-40.9
	c7.8-30.5,14-63.1,37.8-87.6c4-4.2,7.3-12.1,6.5-17.6c-3.8-24.6-9.3-49-14.2-73.5c-2.3-0.5-4.6-1-6.9-1.5
	c-8.5,13.1-20.6,25-24.6,39.3c-9.2,32.5-32.2,47.2-61,57.9c-9.3,3.4-18.9,8.1-26.1,14.7c-11.2,10.1-20,22.8-30.6,33.6
	c-15.2,15.5-30.8,30.7-47,45.1c-3.3,3-10,2.1-15.1,3c34.6-29.4,62.4-63.1,88.7-99.4c-11.7-11.6-21.4-13.7-36.1-6.7
	c-16.7,7.9-35.5,11.7-53.8,15.6c-24,5.1-30.9,16.5-26.5,41.5c1.7,9.5,4.1,16.7,10.4,24.3c5.5,6.7,6.1,17.3,8.9,26.2
	c-8.9-1.7-13.7-4.8-17.4-8.9c-16.5-18.5-36.1-24.7-61.1-21.2c-14.3,2-33.5,1.2-43.7-6.9c-22.3-17.7-48.3-13.1-74.3-21.5
	C421.1,431,407.5,474.8,418.8,522.1z M563.3,286.8c10.3-0.7,20.6-1.9,30.9-1.8c16.4,0.2,26.1-9,33.3-22.1c17.8-32.8,7.9-64.4-5-95.4
	c-1.8-4.5-8.2-8.4-13.2-9.9c-18.3-5.2-38.2,1.2-56.3-7.4c-2.2-1.1-7.1,2.3-10.2,4.4c-39,26.1-56.5,62.3-25.1,108.1
	C528.7,278.5,543.4,287.6,563.3,286.8z M505.5,267.5c-16.1-24.7-19.4-37.8-15.7-63.6c0.4-2.8,1.7-5.4,2.1-8.2
	c4.2-26-13.3-41.3-38.7-37.5c-45.3,6.8-60.4,59.3-39,98.5c11.9,21.9,35.9,22.5,56.5,27.7C486.4,288.4,497.3,280.1,505.5,267.5z
	 M922.3,362.8c-32.1,35.6-35.7,72.6-36.1,112.1c-0.3,26.6,14.4,41.6,31.6,56.1c11.3,9.5,17.5,7,24.1-6.2
	c5.9-11.8,12.5-23.3,17.7-35.4c19.2-44.6,24.9-89.2-2.7-132.7c-2.6-4.1-10.2-4.8-15.5-7.1c-1.4,5.6-5.7,12.9-3.7,16.7
	c17.5,32.5,17.8,67.3,13,102.1c-2.5,17.6-11.7,33.6-34.7,43.3c5.7-15.7,9.7-27,15.2-42.3c-16.2,3.8-29.1,6.6-34-7.1
	c-4.7-13.3-1.4-27.3,10.1-35.7c9.1-6.7,20.9-9.7,34.8-15.8C936.4,396.8,930.1,381.6,922.3,362.8z M597,340.8
	c9.8-15.7,9.8-15.7,1.2-38.4c-4.8,2.8-9.3,6.7-14.5,8c-6.3,1.6-13.1,1-19.8,1.2c-9.8,0.2-17.6,3.7-16.6,14.6
	c1,10.5,9.7,12.5,18.8,12.8C575.3,339.1,584.3,340,597,340.8z M587.6,373.1c-10.7-19.7-30.9-29.2-48.4-23.9
	c-15.5,4.8-19.3,10.6-17.2,29.8C541.8,349.9,565.8,383.2,587.6,373.1z M218.5,522.2c-0.1-2.2-0.2-4.5-0.3-6.7
	c-10.3-4.4-19.4-3.2-31.5,9.3C200.6,523.7,209.5,522.9,218.5,522.2z"/>
<path fill-rule="evenodd" clip-rule="evenodd" d="M388.7,993.3c6.4-0.6,12-1.2,17.4-1.7c0.6-1.8,1.9-3.6,1.6-5
	c-0.6-2.7-2.2-5.2-3.3-7.8c-3.7-8.4-11.9-18.5-1.3-25.4c11.5-7.6,18.9,3.5,25.1,11.6c7.9,10.3,14.8,21.3,22.9,33.1
	c-3.4,9.1-7.1,19.1-11.3,30.3c30.4-3.4,29.8-3.4,28.9-28.8c-0.8-22.7-0.2-45.4-0.2-70.6c-11.2-13-40.1-23.2-15.6-49.1
	c-5.9-9.5-11.1-17.9-19.3-31.1c15.5,2.5,24.9,4,36.2,5.9c-3.3-22.5-20-30.3-34.4-40.3c-14.6-10.1-14.5-10.3-9.5-31.5
	c11.8,6.9,23.1,13.5,39.7,23.2c-7.4-32-29.4-54-21.1-84.7c31.3,8.7,24.9,39.9,35.6,61.4c8-9.8,14.8-18.1,24.7-30.2
	c12.3,33.7-13.8,51.3-22.3,78.7c11.8-6.4,19.5-10.6,28.9-15.7c2.2,4.2,6.4,8.6,5.7,11.8c-4,16.1-9.4,31.1,0.7,48
	c4,6.7-3.1,16.6-13.7,17.3c-10.8,0.7-17.6,5.2-19.8,17.4c8.4,0.4,16.1,0.8,28.5,1.5c-2.5,10-4.6,17.9-7.2,28.4
	c-8.5-4.8-13.9-7.8-20.3-11.4c-1.7,3.2-4.6,6.3-4.8,9.5c-1.1,25.6-1.6,51.1-2.5,76.7c-0.3,7.4,1.1,17-2.8,21.6
	c-11.4,13.3-7.7,23.9,5.2,36.4c-13.7,15.2-26.6,29.4-43.3,47.9c1.7,14,3.7,33.7,6.6,53.2c1.3,8.9,2.9,16.8-10.3,19.9
	c-17.7-26.5-20.8-55.7-17.5-86.3c-6.4-4.4-12.5-7.4-17-11.9c-4.5-4.5-11.5-11.7-10.4-15.8C396.1,1050.9,383.4,1022.1,388.7,993.3z"
	/>
<path fill-rule="evenodd" clip-rule="evenodd" d="M609.7,913.1c7.6-4.1,14-7.6,20.8-11.3c-1.4-2.9-2.2-7-4.6-9.5
	c-5.3-5.4-11.5-9.8-17-15c-15.7-14.5-15.4-16.2,4-31.1c-6.4-12-12.8-24.1-19.7-36.9c16.6-8.6,23.7,8.1,36.1,8.6
	c7.8-20.7-16.3-28.5-17-45c26.6-5.7,37,3.6,45.1,40.5c5.3,0.7,10.5,1.4,18.5,2.4c-2.8,11.3-5.6,21.1-7.6,30.9
	c-1.1,5.4-3.3,13.7-0.8,16.1c16.2,15.3,9.6,30.8,1.5,46.5c6.7,10.5,26.7,13.1,17.6,31.1c-8.1,16.2-20.7,14.3-40.1,2.3
	c7.8,15.2,11.9,22.9,15.8,30.6c-32.5,27.2-14.6,62-16,93.9c-8.6,4.4-12.8,0.2-13.1-7.7c-0.7-16,0.5-32.2-0.8-48.2
	c-1.5-18,7.1-38.4-10.6-53.3c-1.1-0.9-1.5-4-0.8-5.4C627.8,937.4,617.7,926.3,609.7,913.1z"/>
<path fill-rule="evenodd" clip-rule="evenodd" d="M139.7,1134c-12.7-20.8-23.1-37.7-34.7-56.8c10-5,17.7-8.9,26.4-13.3
	c-2.7-3.7-4.5-7.1-7.2-9.4c-7.4-6.2-17.4-13.6-9.4-22.9c6.5-7.6,18.6-14.6,28.1-14.3c9.9,0.3,16.5,11.1,15.6,23.5
	c-0.6,8.4-0.1,17-0.1,29.7c9.2-6,15.5-10.1,21.8-14.2c15.9,12.8,15.9,12.8-8.3,50.1c18.5,18,18.9,20.5,5,42
	c-3.6,5.6-11.2,7.8-1.4,17.5c5.5,5.5,1.4,22-13.2,25.7c-4.5,1.1-8.7,2.8-15.3,5c1.1,18.7,2.2,36.9,3.6,60c-7-5.6-12.9-7.9-13.8-11.4
	c-1.9-7.2-0.8-15-1.3-22.6c-1.5-21.5-1.5-42.7-21.8-58.3c-5.9-4.5-5-18-8-30.2C118.3,1134,126.2,1134,139.7,1134z"/>
<path fill-rule="evenodd" clip-rule="evenodd" d="M328.5,817.8c-11.9-14.4-22.6-27.3-33.5-40.6c15.1-23.6,23.8,1.8,38.7,2.4
	c1.1-14,2.2-28.2,3.3-41.6c10.8-5.3,15.6,0.3,19,7.7c6.2,13.5,13.2,26.8,17.1,41c2.6,9.4,0.5,20.1,0.5,32.6
	c20.6,19.4,23.2,52.1,4.2,86.4c-8.6,15.5-19.6,30-14.3,49.7c1.6,6.2,0.2,13.1-2.3,20.4c-1.6-4.2-3.9-8.1-4.6-12.5
	c-4.6-27.5-5.2-55.8-27.2-77.7c-4.5-4.5-2.1-15.8-3-25C299.6,839,299.6,836.6,328.5,817.8z M378.2,866.1c-1.4-2.2-2.9-4.5-4.3-6.8
	c-2.9-1.1-6.3-3.7-8.4-2.9c-2.6,0.9-5.7,4.9-5.6,7.4c0.1,2.5,3.9,6.9,6,6.8C370.1,870.4,374.1,867.7,378.2,866.1z"/>
<path fill-rule="evenodd" clip-rule="evenodd" d="M40.3,703.4c-21.3-24.1-54.5-41-32.7-83.9c7.4,7,18.5,12.7,18.6,18.5
	c0.2,20.5,8.7,35.5,22.8,48.8c2.1,2,2.7,5.7,8.1,7.6c0-8.6,0-17.2,0-26.8c18.3,11.5,26.9,35.7,17.2,52.5c-7.2,12.4-9,22.3,2.1,35.2
	c7.8-10.5,15.2-20.5,24.1-32.3c17.5,27.7-1.4,43.6-14.6,61.6c5.3,4.9,12.8,8.8,15.4,14.9c2.9,6.8,5,18.1,1.4,22.9
	c-11.9,16-12.9,30.6-8.3,50.1c4.3,18-0.8,38.1-1.4,57.3c-0.3,10.5-0.1,21-0.1,31.5c-1.9,0.1-3.8,0.2-5.7,0.2
	c-0.9-6-2.6-11.9-2.6-17.9c0.2-24.6,4-49.6,0.7-73.6c-3.6-26.7-2.7-56.3-30.6-74.8c-16.5-10.9-13.6-20.2,8.4-28.5
	c-12.3-10-24.4-18.4-34.8-28.5C9.4,719.8,11.3,713.5,40.3,703.4z"/>
<path fill-rule="evenodd" clip-rule="evenodd" d="M222.6,839.2c9.3-4.4,15.8-7.4,26.2-12.2c-6.9-9-12.2-17.3-18.8-24.3
	c-14.2-14.8-14.5-14.5,0.4-31.3c-39.9-27.4-43.1-33.9-24.9-52.5c7.1,5.2,14.4,10.5,23.9,17.5c2.2-8.6,3.2-14.8,5.4-20.6
	c1.9-5,5.1-9.5,9.4-17.1c5,7.6,9.8,12.3,11.4,18c2.5,8.9,2,18.4,12,24.1c3,1.7,4.5,8,4.8,12.3c1.1,16.5-1.5,32.7,10.3,48.2
	c7.5,9.8-3.8,28.9-19.4,39.1c5.6,3.8,13.9,6.3,15.6,11.1c2.3,6.5,2.2,16.7-1.5,22c-20.6,29.4-10.5,62.8-14.5,94.3
	c-1.2,9.5,1.6,20.8-8.3,28.9c0.5-28-0.4-54.9,1.7-81.5C258.7,884.4,232.3,867.3,222.6,839.2z"/>
<path fill-rule="evenodd" clip-rule="evenodd" d="M240.6,1075.7c8.7-4.6,16.9-8.8,28.3-14.8c-4.9-15.8-9.7-31.3-15.1-49.1
	c2.4-1.7,6.5-5.7,11.3-7.9c17.2-7.8,19.7-6.4,20.3,12.8c0.7,20.1,0.2,40.2,0.2,62.5c8.9-4.8,16.1-8.7,24.5-13.2
	c18.2,16.2-0.7,28.3-4.1,41.7c15,13.3,16.3,18.7,5.6,31.6c-7.8,9.3-16.7,17.7-28.2,29.8c13.6-1,21-22.2,33.2-5.3
	c-2.7,19.8-18.1,30.9-33.4,46.7c-11.2-14-21.7-26.7-31.6-39.8c-2.7-3.7-6.7-10.6-5.3-12.5c10.3-14.1-3-23.9-8.2-38.8
	c10.7,0.5,18.3,0.9,26.3,1.3C277.4,1095.3,244.4,1095.5,240.6,1075.7z"/>
<path fill-rule="evenodd" clip-rule="evenodd" d="M583.8,1109.7c7.4,12.2,12.6,25.2-0.3,37.1c-20.1,18.6-17,40.2-9.2,62.5
	c3.7,10.5,10.6,20.5-0.1,35.1c-4.1-5.5-9.1-9.4-10.2-14.3c-3-12.8-4.1-25.9-6.3-38.8c-0.8-4.5-0.9-11-3.8-12.9
	c-18-12.2-13.8-29-10.4-44.9c-25.2-28.1-25.2-28.9,0-46.1c-0.1-9.4-7.4-21.4,6.4-29c8-4.5,6.1-12.1,3.8-20.1
	c-1.7-5.9-2.5-15.5,0.8-18.7c5.4-5.2,14.8-9.1,22-8.3c4.2,0.4,10.3,10.9,10.4,16.9c0.3,17.6-1.9,33.5,12.2,49.5
	C610.2,1090.2,592.6,1099.9,583.8,1109.7z"/>
<path fill-rule="evenodd" clip-rule="evenodd" d="M160.4,960.4c0-26.6,0.2-53.1,0-79.6c-0.2-19.8,0.5-40.1-18.5-53.4
	c-1.5-1-3.6-3-3.5-4.3c3.2-24.3-16.1-35.9-32.6-52c7.7-6.6,13.7-11.6,20.5-17.4c1.6-16.4-16.9-36.7,6.8-53.6
	c15.9,14.5,28.4,28.4,16.1,53.4c5.7-2.5,11.4-5,20.1-8.9c2.6,9.4,6.5,18,6.8,26.7c0.4,9.5,1,16.4,8.2,24.9
	c10.2,12,4.2,29.4-5.2,38.7c-10.1,10-8.8,19.4-8.6,30.5c0.3,28.1,0.3,56.2-0.2,84.3c0,3.8-3.5,7.5-5.3,11.3
	C163.6,960.9,162,960.6,160.4,960.4z"/>
<path fill-rule="evenodd" clip-rule="evenodd" d="M723.3,36.2c11.5-24.5,33.3-36.8,53.5-29.8c38.7,13.5,71.8,34.3,81.7,78.5
	c0.3,1.1-1.9,2.8-4.2,6C828.5,33.6,790.2,3,723.3,36.2z"/>
<path fill-rule="evenodd" clip-rule="evenodd" d="M448.5,421.9c57.2,2.5,108,13.3,159.8,32.9c0.3,21.9-5,43.5-11.7,64.5
	c-1.5,4.6-9.6,8.5-15.3,9.8c-6.1,1.3-13.2-0.3-19.6-1.7c-28.1-6.2-55.2-14.6-85.3-10.6c-23.4,3-38.2-15-36.6-39.7
	C440.9,459.4,445.2,442,448.5,421.9z M588.1,466.3c-39-19.4-96.3-29.9-125.6-24c-0.5,12-1,24.2-1.6,36.4c-0.6,14,6.7,22.7,19.9,22
	c25.1-1.2,48.5,5.5,72.6,10.3c8.7,1.8,18.1,0.3,28.3,0.3C583.9,495,585.9,481.1,588.1,466.3z"/>
<path fill-rule="evenodd" clip-rule="evenodd" d="M676.1,510.1c-14.4,10.5-27.7,20.5-41.4,30c-0.8,0.6-4.2-2.6-6.4-4
	C642.5,511.9,652.4,506.4,676.1,510.1z"/>
<path fill-rule="evenodd" clip-rule="evenodd" d="M757.2,459.3c7.9-21.9,24.1-36.4,41.6-49.8c1.5,1.2,3,2.5,4.5,3.7
	c-13.9,15.8-27.8,31.6-42,47.2c-0.4,0.5-3.2-1.1-4.8-1.7L757.2,459.3z"/>
<path fill-rule="evenodd" clip-rule="evenodd" d="M756.5,458.6c0.4,18.8-13.3,28-29.1,42.8c8-20.1,17.1-32.3,29.8-42
	C757.2,459.3,756.5,458.6,756.5,458.6z"/>
<path fill-rule="evenodd" clip-rule="evenodd" d="M666,557.4c6-11,10-18.2,14.8-27.1C688.4,548,688.4,548,666,557.4z"/>
<path fill-rule="evenodd" clip-rule="evenodd" d="M705.8,476.1c-3.3,2.3-6.7,4.5-10.1,6.8c-1.2-2-3.6-5.5-3.3-5.8
	c3.1-2.5,6.6-4.6,10-6.7C703.6,472.3,704.7,474.2,705.8,476.1z"/>
<path fill-rule="evenodd" clip-rule="evenodd" d="M537,223.5c14.4-2.3,25.9-1.8,25.4,14.3c-0.1,4.2-8,11.9-12,11.6
	C535.4,248.5,533.9,237.8,537,223.5z"/>
<path fill-rule="evenodd" clip-rule="evenodd" d="M451.8,260.4c-6.2-9.3-12.2-14.7-12.4-20.2c-0.1-3.8,9.8-12.1,11.8-11.1
	c5.9,2.7,11.7,8.5,14.1,14.4C466.3,246,458.8,251.9,451.8,260.4z"/>
</svg>
