<?xml version="1.0" encoding="utf-8"?>
<!DOCTYPE svg PUBLIC "-//W3C//DTD SVG 1.1//EN" "http://www.w3.org/Graphics/SVG/1.1/DTD/svg11.dtd">
<svg artist="zl2017" version="1.1" id="zlIcon-loading-cat" xmlns="http://www.w3.org/2000/svg" xmlns:xlink="http://www.w3.org/1999/xlink" x="0px" y="0px"
	 width="1000px" height="1000px" viewBox="0 0 1000 1000" enable-background="new 0 0 1000 1000" xml:space="preserve">
<rect x="0.5" y="0.5" fill-rule="evenodd" clip-rule="evenodd" fill="#FFFFFF" width="999" height="999"/>
<path fill-rule="evenodd" clip-rule="evenodd" d="M671,575.5c-8.1,11.6-15,21.7-22.2,31.5c-6.8,9.2-13.3,18.6-21.1,26.9
	c-20.8,22.1-37,46.9-48.2,75.1c-3.5,8.7-7.6,17.1-11.8,26.6c3.8,1.4,7,2.5,10.1,3.8c5,2.2,10.4,3.8,14.8,6.9
	c7.3,5.3,8.2,14.5,1.6,20.6c-6,5.5-13.4,9.6-22.2,15.8c-1.5,4.8-3.3,14.1-13.1,14.4c-11.8,0.3-18.2-8.8-24.3-18.9
	c-2.9,1.5-5.8,2.9-8.7,4.5c-5.9,3.3-11.7,3.4-16.5-1.7c-4.8-5.1-6.5-11.6-3.3-18c1.9-3.8,5.2-8.6,8.9-9.6
	c22.4-6.5,30.5-24.8,36.2-44.2c6.1-20.9,14.2-40.5,26.8-58.2c25.4-35.7,42.8-75.4,58.7-115.9c12.8-32.5,13.8-66.3,12.1-100.5
	c-0.1-2.5-0.5-5.1-1.5-7.3c-14.3-33.3-29.1-66.2-66-81.3c-15.3-6.2-30.2-13.1-45.5-19.4c-12.9-5.3-26.5-4.6-39.8-2.4
	c-33,5.6-63.4,17-90.6,37.5c-16,12-31.5,23.5-43.8,39.9c-14.5,19.2-20.5,41.2-23.9,63.7c-3.1,20.5-3.1,42-1.2,62.7
	c3.4,37.4,12.5,73.6,28.5,107.9c7.3,15.6,11.5,32.7,18.1,48.7c6.7,16.1,13.4,32.5,22.3,47.4c5.4,9.1,14.8,15.9,22.7,23.4
	c3.2,3.1,7.6,5,10.8,8.1c8.2,7.8,7.5,15.5-1.5,22.1c-3.2,2.3-6.8,4.6-8.9,7.7c-10.6,15.1-18,16-31.9,3.2c-0.4-0.3-0.9-0.5-1.9-1.1
	c-1.3,0.9-2.8,2-4.4,3.1c-4.5,3.3-9,7.2-14.7,2.6c-5.2-4.2-7.4-10.6-4.6-16.2c3.4-6.9,9-12.9,14-18.9c1.8-2.2,4.8-3.4,7.7-5.4
	c-3.9-26.5-15.6-49.7-29.6-75.1c-4.4,9.4-8.1,16.3-11,23.5c-5.9,14.8-15.5,25.1-31.4,29.5c-7.1,1.9-13.6,5.9-20.2,9.1
	c-24.1,11.6-47.9,7.5-63-18.5c-6.6-11.5-9.3-25.1-14.7-37.4c-7.7-17.2-16-34.2-24.7-50.9c-2.6-5-4.5-8.6,0.2-13.6
	c1.8,0.3,3.7,0.5,5.5,1.1c18.4,6.2,30.7,1,35.4-17.7c3.7-14.9,5-30.5,6.5-45.8c0.9-10.3,0.2-20.8,0.2-33.1c3.5,1.1,7.7,1.1,9,3
	c4.1,6.1,7,13.1,10.8,19.5c6.1,10.2,11.6,21.1,19.2,30.1c7.8,9.1,16.5,6.8,17.9-4.7c2.4-19.8,4.2-40.1-8.7-57.8
	c-1.2-1.6-1.9-4.2-3.5-4.8c-15.4-6.2-27.7-18.2-46.5-18.3c-23.2-0.1-47.1-1-69.1-10.1c-11.5-4.7-19.4-2.1-26.2,6.9
	c-5,6.6-10.8,10.2-19.3,7.5c-7.4-2.4-10.7-7.6-8.1-15c1.4-4.1,3.6-6.9,2.3-12.3c-2.6-10.2-0.4-13.4,10.3-16
	c7.9-1.9,12.7-5.5,16.6-12.6c5-9,15.7-11,22.9-5.7c6.9,5.1,6.6,15.8-0.7,23.3c-2,2.1-3.8,4.2-7.2,8c8.4,1.7,15,3.6,21.7,4.2
	c31.5,2.9,61.9-0.1,88.8-19.2c5.2-3.7,6.4-8.4,5.5-14.3c-4.6-29.8-0.3-58.8,8.8-87.2c1.9-6.1,5-11.9,8.4-17.4
	c6.5-10.6,14-20.7,20.3-31.4c6.8-11.5,15.7-21,26.8-27.8c27.3-16.6,54.6-33.2,84.4-45.2c33.9-13.7,68.8-18.1,105.3-18.2
	c41.8-0.2,79.2,11.2,116,29.8c30,15.1,55.4,36,78.7,59c14.7,14.4,27.6,31.7,28.4,54.6c0.4,11.3,5.5,14.8,16.9,13.1
	c6.9-1,13.8-2.7,20.3-5c26.6-9.4,54-9.7,81.2-5c18.6,3.2,36.8,8.7,57.4,13.7c-0.9-6.9-1.7-12.5-2.5-18.3c5.6-7.8,13.5-6.7,19.6-2.1
	c5.1,3.8,8.1,10.5,12,15.9c18.2-2.8,27.2,0.6,30.8,11.9c3,9.4-1.5,15.8-18,25.5c1.2,5.8,2.6,11.6,3.5,17.5
	c0.8,5.3,0.1,11.1-5.5,12.6c-4.3,1.2-10,0.5-14.1-1.5c-7.8-3.9-10.7-12.1-11-20.2c-0.8-17.7-11.2-25.4-26.8-29.2
	c-36.9-8.9-70.1-1.1-100.4,21.5c-22.8,17-45.7,33.9-68.8,50.4c-5.3,3.8-8.5,7.4-8.8,14.3c-0.5,14.2-6.2,26.9-11.2,40.1
	c-7.4,19.5-12.2,40-17.6,60.2c-1.9,7.1-2.6,14.6-3.3,21.9c-2.9,29.2,5,56.4,22,79.2c13.2,17.6,30.6,33.2,56.2,31.3
	c2.5-0.2,5-0.1,7.5,0.3c24.6,4.4,42.2-7.6,57.5-24.7c13.9-15.7,13.9-33.9,6.8-52c-3.9-10.1-10.6-19.1-16.3-28.5
	c-6-9.8-12.4-19.3-18.3-29.2c-5.3-8.9-5-18.4-0.4-27.3c5.9-11.5,11.7-23.3,19.1-33.8c9.5-13.4,25.1-16.3,40-16.6
	c11.8-0.2,16.8,8,15.1,21.2c-1.5,11.8-4.9,23.5-6.1,35.3c-1.3,12.7-2.3,25.8-1.1,38.4c2.3,22.3,6.6,44.5,9.6,66.7
	c1.3,9.4-1.2,18.1-4.6,27.4c-12.8,34.6-38.5,53.6-71.9,64.6c-23.3,7.7-46.9,9.7-70.8,3.1c-13.7-3.8-25.5-10.9-35.9-20.6
	c-34.3-31.9-47.3-71.9-44.8-117.8C676.7,601.2,676.6,589,671,575.5z"/>
<path fill-rule="evenodd" clip-rule="evenodd" fill="#FFFFFF" d="M271.6,678.4c1.1-6.4,1.6-13.5,3.6-20
	c3.4-11.1,16.4-16.6,29.5-13.5c10.6,2.5,19.5,14.5,17.7,25.9c-1.7,11.2-4.5,22.2-8,33c-0.9,2.7-5.7,5.3-9.1,5.9
	C290.7,712.1,272,694.8,271.6,678.4z"/>
<path fill-rule="evenodd" clip-rule="evenodd" fill="#FFFFFF" d="M264.2,683.5c11,19.7,20,37.2,43.5,34.2c0.5,12.3-3,18.2-13,22.5
	c-9.6,4.1-23.5,1.6-30-7.1c-8.4-11.2-11-24.4-8.5-38.1C256.8,691.7,260.3,689,264.2,683.5z"/>
<path fill-rule="evenodd" clip-rule="evenodd" d="M295.3,699.7c-1.5-1.8-6-4.7-6.7-8.3c-1.1-5.9,5.2-11.2,11.2-10.8
	c5.4,0.3,9.5,2.5,9.9,8.6C310,695.1,304.9,699.8,295.3,699.7z"/>
<path fill-rule="evenodd" clip-rule="evenodd" d="M282.1,737.3c-1.2-1.8-4.1-4.4-4.7-7.5c-1.2-6,2.7-9.7,8.3-9.4
	c3,0.2,7.2,3.1,8.3,5.9C295.9,730.6,289.9,736.7,282.1,737.3z"/>
</svg>
