<?xml version="1.0" encoding="utf-8"?>
<!DOCTYPE svg PUBLIC "-//W3C//DTD SVG 1.1//EN" "http://www.w3.org/Graphics/SVG/1.1/DTD/svg11.dtd">
<svg artist="zl2017" version="1.1" id="zlIcon-log-saw" xmlns="http://www.w3.org/2000/svg" xmlns:xlink="http://www.w3.org/1999/xlink" x="0px" y="0px"
	 width="1000px" height="1013.6px" viewBox="0 0 1000 1013.6" enable-background="new 0 0 1000 1013.6" xml:space="preserve">
<path fill-rule="evenodd" clip-rule="evenodd" fill="#FFFFFF" d="M598.1,576c2,4.8,3,10.5,6.3,14.3c9.4,10.7,19.4,20.9,29.6,30.9
	c20.5,20,41.1,39.8,62,59.4c6.8,6.4,13.9,12.8,21.7,17.8c11.4,7.4,20.1,20.2,37,21c-3.5-4.2-5.6-7.1-8.1-9.7
	c-14.4-15.7-27.6-32.8-43.6-46.7c-34.3-29.8-70-57.9-105.2-86.6c-13.8-11.7-28.1-22.9-41.4-35.2c-20.6-19-42.9-28.2-71.5-19.6
	c-27.5,8.2-55.2,15.6-77.8,34.2c-16.1,13.3-27.4,28.3-27.9,52c-0.6,25.6,9.7,46.1,21.9,66.2c14.2,23.5,30,45.8,47.3,67.4
	c28.9,36.2,61.3,68.8,92.6,102.6c1.9,2,4.5,3.4,7.7,5.8c-2.7-22.1-3.2-23.3-16.2-36.7c-6.9-7.1-14.4-13.8-20.9-21.3
	c-21.3-24.6-42.2-49.6-63.3-74.3c-5.6-6.6-15.7-12.2-16.6-19.2c-1.4-10.3-7.4-17.8-9.7-27.1c-0.3-1.4,1.4-3.3,2.7-5.9
	c2.8,1.6,6,2.4,7.7,4.4c25.9,31.2,53.8,60.8,77.4,94c15.6,21.9,39.2,34,62,47.6c1.4-6.1,2.8-11.9,4.2-17.7
	c-33.9-36.9-67.7-73.6-101.4-110.5c-4.6-5.1-8.9-10.5-12.6-16.2c-4.6-7,0.3-9.7,6.4-12.6c40.3,39.5,72.9,85.4,117.1,122.9
	c5.5-5.5,10.2-10.2,15.7-15.8c-36.6-38.4-71.9-75.3-107.1-112.3c-22.1-23.2-44.2-46.5-66.1-69.9c-2.5-2.6-4.2-6.4-5.3-9.9
	c-1.9-6.2,0-10.9,5.8-12.4c14.8,15,28.7,29.6,43.1,43.5c12.2,11.7,27.2,21.1,37.2,34.4c22.7,30.3,49.9,56,76.2,82.7
	c7.4,7.5,16.1,13.7,24.1,20.5c4.3,3.6,8.5,5.4,13-0.3c-0.4-1.7-0.2-4-1.2-5.1c-28.9-32.1-58-64.1-86.9-96.2
	c-6.7-7.5-13.3-15.1-19-23.3c-5.2-7.5-1.9-12.5,5.2-14.8c11.7,12.3,22.3,23.7,33.2,34.9c13.9,14.2,28.4,28,42.1,42.4
	c12.6,13.1,24.1,27.3,36.9,40.2c12.8,12.9,17.6,12.6,34.3,0.1c-5.7-4.3-11.7-7.8-16.2-12.7c-28.3-30.2-56-61-84.5-91.2
	c-16.4-17.4-33.8-34-50.7-51c-4.4-4.4-9.9-8.8-2.2-17.8c5.6,3.8,12.3,7.1,17.4,11.9c7.3,6.9,13,15.3,20.1,22.2
	c15.6,15.2,32,29.7,47.6,44.9c29.1,28.4,57.8,57.3,87,85.6c4.9,4.7,11.3,9.7,19.9,4.6c-70.9-64.4-112.5-108.4-122.8-130.5
	C587.9,579.8,593.1,577.8,598.1,576z"/>
<path fill-rule="evenodd" clip-rule="evenodd" fill="#FFFFFF" d="M678.9,566.5c8.4-13.8,17.1-27.5,25.2-41.4
	c9.3-16,10.8-16.7,28.2-11.3c15.5,4.8,30.8,10.6,46.6,13.7c7.7,1.5,19.1,0.9,24.3-3.8c20.1-17.8,39.8-36.6,50.5-62.1
	c2.7-6.4,6.8-8.7,13.1-8.1c4.9,0.5,9.8,1.6,14.6,2.6c19.5,4.1,38.9,8.8,58.4,12.2c14.1,2.5,18.9-1.2,24-14.9c2.6-7,5.5-14,8-21
	c9.4-26.9,16.8-53.8,4.4-81.9c-5.2-11.8-9.7-23.9-14.5-35.7c-51.6,9.6-61.5,7.2-89-0.7c-10.1-2.9-16.5-7.8-20-17.5
	c-2.1-5.9-4.5-11.6-7.2-17.3c-5.5-11.6-11.3-23.1-17.4-35.3c-18.2,7.1-34,14.9-50.6,19.3c-28.8,7.7-58.3,13-87.3,19.9
	c-12.7,3-24.9,8.3-37.7,11.1c-36.4,8-73,15.3-109.6,22.9c-18.3,3.8-36.4,9.7-54.8,10.9c-39.8,2.7-79.7,3.5-119.6,4.1
	c-46.1,0.6-92.1,0.4-138.2,0c-11.8-0.1-23.8-4.4-35.3-3.1c-19,2.3-37.5,7.6-55.4,11.4c-5.5,22.7-7.8,43.3-2.4,64.8
	c3.5,14.1-2.9,23.9-15,28.8c-5.1,2.1-10.8,2.9-16.2,4.3c-6.6,1.7-13.5,2.6-19.9,5.1c-10.3,4-12,8.3-10,20.3
	c5.1,30.7,10.2,61.3,15.4,92.9c23-10,43-28.7,69.6-37.6c11.3,17.7,21.9,34.5,33.4,52.6c5.3-4.5,10.3-9,15.6-13.1
	c10.2-8.2,19.8-17.2,30.9-23.9c15.5-9.2,18.2-7.2,29.4,6.6c8.9,11,19.4,20.6,29,30.6c15.4-13,28.7-24.2,42.7-35.9
	c9.2,8.9,17.4,16.8,26.1,25.1c5.9-5.5,10.2-9.2,14.1-13.3c11.8-12.6,25.2-21.8,42.2-26.5c17.3-4.8,34.5-10.7,51.2-17.3
	c17.1-6.8,34.7-6,52.1-4.5c16.1,1.3,32,5.5,44.9,16.6c10.9,9.5,21.7,19,32.6,28.4c8.8,7.6,16.2,15.9,30.2,15.7
	C649.5,560,663.5,564.1,678.9,566.5z"/>
<path fill-rule="evenodd" clip-rule="evenodd" fill="#FFFFFF" d="M843.6,831.6c1,2.4-0.2,0.7-0.4-1.1c-2.8-22.9-12.3-41.6-28.4-59.1
	c-16.7-18.2-33.8-32.2-58.7-35.1c-8.7-1-17.4-1.7-25.8-3.7c-20.8-5.1-40.9-0.4-60.1,6c-42.8,14.1-64.7,49.3-81,87.8
	c-8.9,21.1-10.2,45.1-4,67.5c8.8,31.8,22.4,61.7,55.4,76c21.1,9.2,42.5,18.4,64.6,24.1c20.3,5.2,41.6,5.1,61.1-6.4
	c26.5-15.6,53.9-30,59.2-64.9c0.3-1.8,1.5-3.5,2.3-5.2C839.8,891.5,843.2,863.8,843.6,831.6z"/>
<path fill-rule="evenodd" clip-rule="evenodd" fill="#FFFFFF" d="M115.2,131.8C90,130.4,66.5,135,43,142.2c-19.3,5.9-20.8,5-22,23.2
	c-2.8,40.5-3.7,81.5,12.2,119.6c17.8,42.5,24.9,87.1,32.9,131.7c0.9,5,3.9,9.7,6,14.8c12.8-3.6,23.8-6,34.3-9.8
	c12.1-4.4,14.1-9.3,11.9-21.8c-1.5-8.5-2.9-17.2-3-25.8c-0.4-27.1-0.4-54.1,0-81.2c0.1-7.3,0.8-15.3,3.7-21.8
	c14-31,12.3-63.7,10.7-96C128.9,160.6,127.1,144.9,115.2,131.8z"/>
<path fill-rule="evenodd" clip-rule="evenodd" fill="#FFFFFF" d="M945.6,301.9c7-14.1,7.2-18.2,5.5-28.4
	c-3.8-22.7-8.4-45.4-9.9-68.2c-2.5-38.8-2.9-77.7-4.1-116.6c-0.2-5,0.4-10,0.7-15c0.7-10.3,1.5-20.5,2.6-34.3
	c-1.5,2.3-0.9,1.2-0.1,0.3c3.8-4.7,11.5-9.2,6.5-15.6c-3.1-3.9-10.9-6-16.4-5.7c-19.9,1-39.8,3.3-58.7,5
	c-10.6,26.1-16.3,52.8-14.3,80.8c0.2,2.9-1.5,6-2,9c-1.9,12.3-4.3,24.5-5.2,36.9c-0.9,12.5,0.6,25.3-0.3,37.8
	c-2.3,31.6,1.7,61.6,14.2,91.2c6.2,14.7,14.7,22.5,30,22.9C910.8,302.2,927.8,301.9,945.6,301.9z"/>
<g>
	<path fill-rule="evenodd" clip-rule="evenodd" d="M719.5,528.6c-7.8,14.4-15.3,27.9-22.5,41.5c-7.7,14.5-12.7,16.6-28.3,12.2
		c-7.6-2.2-15.5-3.2-23.7-4.9c0,3.2-0.5,5,0.1,5.6c34.3,31.1,68.8,62.1,103.1,93.3c19.4,17.7,41.1,33.8,57,54.3
		c15.9,20.5,35,39.5,44.4,64.6c11.9,31.7,11,64.1,2.7,96.1c-5.6,21.6-12.9,43-21.7,63.4c-4.2,9.8-12.7,18.8-21.3,25.5
		c-12.2,9.6-25.7,17.9-39.7,24.5c-15.1,7.1-31.4,11.4-48.6,6.3c-4.1-1.2-9.4-2-13-0.4c-15.6,6.8-30.9,0.5-46.1-0.6
		c-18.2-1.3-31.3-12.6-43-25.9c-4.3-4.8-10.8-7.6-15.6-12c-8.8-8-18.1-15.8-25.4-25c-25.4-31.7-50.4-63.7-74.8-96.2
		c-29.1-38.8-62.5-73.7-96.5-108.1c-25.9-26.2-50.3-54.1-74.5-82c-17.2-19.8-32.9-40.9-49.5-61.3c-3.1-3.8-6.8-7-10.1-10.6
		c-11-11.6-22-23.2-34.5-36.4c-5.8,5.8-12.6,13-19.9,19.6c-4.6,4.2-9.4,8.5-14.9,11.2c-12.3,6.1-19.1,3.3-25.8-8.9
		c-7.2-13.1-14.5-26.1-22.7-41c-16.2,10.9-31.2,20.8-46,30.9c-5.6,3.9-10.6,8.9-16.6,12.2c-9.7,5.3-17.2,0.9-18.3-10.2
		c-0.3-3.1-0.4-6.3,0-9.5c3-26.1-3.7-50.9-9.2-76c-2.1-9.7-2.6-19.8-5.4-29.3c-12.3-41.7-18.2-85-32.1-126.5
		C15.7,291.7,7.7,256.7,2.5,221.8c-3.9-25.9-0.9-52.9-0.7-79.4c0-2.8,1.5-7.1,3.5-8.1c9.9-5.2,20-12.5,30.5-13.5
		c31.2-3.2,62.6-3.7,94.2-5.3c2.8,4.6,6.1,8,7,11.9c6.4,25.9,13.1,51.8,18.1,78c2,10.2,1.5,21.3-0.3,31.6
		c-3.4,19.6-8.7,38.8-12.7,58.3c-1,4.8-0.2,10-0.2,14.7c1.4,1.2,2.4,2.6,3.4,2.6c56.6,1.5,113.3,6.1,169.7,3.5c44.5-2,89-1,133.4-3
		c25.5-1.2,51.6-1.9,76.2-8c33.3-8.3,67.6-9.9,100.7-18.6c39.1-10.3,77.3-24.5,116.9-31.9c29.2-5.4,55.9-16.1,84.9-27.6
		c1.2-19.1,2.8-39.6,3.8-60.1c1.5-28.8,0.9-57.9,4.4-86.4c2.7-21.1,2.9-43.6,17.8-62c5.5-6.9,10.1-12,19.3-12.4
		c12.5-0.6,24.9-2.1,37.2-3.4c7.4-0.8,14.8-3,22.2-2.7c11.1,0.4,23.3,0,32.8,4.5c12.4,5.9,16.7,12.8,12.6,27.6
		c-6.7,24-14.8,47.8-18.6,72.2c-3.4,21.5-2.7,43.9-1.9,65.7c0.7,18.6,3.7,37.2,6.8,55.6c5.8,33.6,4.4,68.7,20.8,100.2
		c4.3,8.2,5.7,17.8,9.2,26.4c7.4,18,7.8,35.2,1.4,54.2c-8.5,25.3-13.8,51.6-24.8,76.4c-29.5,2.9-57.4-1.4-84.5-8.3
		c-12.8-3.3-19.1-0.4-26.6,9c-14.3,18.2-30.1,35.1-44.8,53.1c-8.6,10.5-18.1,13.2-31,8.8c-15.3-5.3-31-9.5-46.7-13.8
		C731.4,530.2,725.8,529.7,719.5,528.6z M598.1,576c2,4.8,3,10.5,6.3,14.3c9.4,10.7,19.4,20.9,29.6,30.9c20.5,20,41.1,39.8,62,59.4
		c6.8,6.4,13.9,12.8,21.7,17.8c11.4,7.4,20.1,20.2,37,21c-3.5-4.2-5.6-7.1-8.1-9.7c-14.4-15.7-27.6-32.8-43.6-46.7
		c-34.3-29.8-70-57.9-105.2-86.6c-13.8-11.7-28.1-22.9-41.4-35.2c-20.6-19-42.9-28.2-71.5-19.6c-27.5,8.2-55.2,15.6-77.8,34.2
		c-16.1,13.3-27.4,28.3-27.9,52c-0.6,25.6,9.7,46.1,21.9,66.2c14.2,23.5,30,45.8,47.3,67.4c28.9,36.2,61.3,68.8,92.6,102.6
		c1.9,2,4.5,3.4,7.7,5.8c-2.7-22.1-3.2-23.3-16.2-36.7c-6.9-7.1-14.4-13.8-20.9-21.3c-21.3-24.6-42.2-49.6-63.3-74.3
		c-5.6-6.6-15.7-12.2-16.6-19.2c-1.4-10.3-7.4-17.8-9.7-27.1c-0.3-1.4,1.4-3.3,2.7-5.9c2.8,1.6,6,2.4,7.7,4.4
		c25.9,31.2,53.8,60.8,77.4,94c15.6,21.9,39.2,34,62,47.6c1.4-6.1,2.8-11.9,4.2-17.7c-33.9-36.9-67.7-73.6-101.4-110.5
		c-4.6-5.1-8.9-10.5-12.6-16.2c-4.6-7,0.3-9.7,6.4-12.6c40.3,39.5,72.9,85.4,117.1,122.9c5.5-5.5,10.2-10.2,15.7-15.8
		c-36.6-38.4-71.9-75.3-107.1-112.3c-22.1-23.2-44.2-46.5-66.1-69.9c-2.5-2.6-4.2-6.4-5.3-9.9c-1.9-6.2,0-10.9,5.8-12.4
		c14.8,15,28.7,29.6,43.1,43.5c12.2,11.7,27.2,21.1,37.2,34.4c22.7,30.3,49.9,56,76.2,82.7c7.4,7.5,16.1,13.7,24.1,20.5
		c4.3,3.6,8.5,5.4,13-0.3c-0.4-1.7-0.2-4-1.2-5.1c-28.9-32.1-58-64.1-86.9-96.2c-6.7-7.5-13.3-15.1-19-23.3
		c-5.2-7.5-1.9-12.5,5.2-14.8c11.7,12.3,22.3,23.7,33.2,34.9c13.9,14.2,28.4,28,42.1,42.4c12.6,13.1,24.1,27.3,36.9,40.2
		c12.8,12.9,17.6,12.6,34.3,0.1c-5.7-4.3-11.7-7.8-16.2-12.7c-28.3-30.2-56-61-84.5-91.2c-16.4-17.4-33.8-34-50.7-51
		c-4.4-4.4-9.9-8.8-2.2-17.8c5.6,3.8,12.3,7.1,17.4,11.9c7.3,6.9,13,15.3,20.1,22.2c15.6,15.2,32,29.7,47.6,44.9
		c29.1,28.4,57.8,57.3,87,85.6c4.9,4.7,11.3,9.7,19.9,4.6c-70.9-64.4-112.5-108.4-122.8-130.5C587.9,579.8,593.1,577.8,598.1,576z
		 M678.9,566.5c8.4-13.8,17.1-27.5,25.2-41.4c9.3-16,10.8-16.7,28.2-11.3c15.5,4.8,30.8,10.6,46.6,13.7c7.7,1.5,19.1,0.9,24.3-3.8
		c20.1-17.8,39.8-36.6,50.5-62.1c2.7-6.4,6.8-8.7,13.1-8.1c4.9,0.5,9.8,1.6,14.6,2.6c19.5,4.1,38.9,8.8,58.4,12.2
		c14.1,2.5,18.9-1.2,24-14.9c2.6-7,5.5-14,8-21c9.4-26.9,16.8-53.8,4.4-81.9c-5.2-11.8-9.7-23.9-14.5-35.7
		c-51.6,9.6-61.5,7.2-89-0.7c-10.1-2.9-16.5-7.8-20-17.5c-2.1-5.9-4.5-11.6-7.2-17.3c-5.5-11.6-11.3-23.1-17.4-35.3
		c-18.2,7.1-34,14.9-50.6,19.3c-28.8,7.7-58.3,13-87.3,19.9c-12.7,3-24.9,8.3-37.7,11.1c-36.4,8-73,15.3-109.6,22.9
		c-18.3,3.8-36.4,9.7-54.8,10.9c-39.8,2.7-79.7,3.5-119.6,4.1c-46.1,0.6-92.1,0.4-138.2,0c-11.8-0.1-23.8-4.4-35.3-3.1
		c-19,2.3-37.5,7.6-55.4,11.4c-5.5,22.7-7.8,43.3-2.4,64.8c3.5,14.1-2.9,23.9-15,28.8c-5.1,2.1-10.8,2.9-16.2,4.3
		c-6.6,1.7-13.5,2.6-19.9,5.1c-10.3,4-12,8.3-10,20.3c5.1,30.7,10.2,61.3,15.4,92.9c23-10,43-28.7,69.6-37.6
		c11.3,17.7,21.9,34.5,33.4,52.6c5.3-4.5,10.3-9,15.6-13.1c10.2-8.2,19.8-17.2,30.9-23.9c15.5-9.2,18.2-7.2,29.4,6.6
		c8.9,11,19.4,20.6,29,30.6c15.4-13,28.7-24.2,42.7-35.9c9.2,8.9,17.4,16.8,26.1,25.1c5.9-5.5,10.2-9.2,14.1-13.3
		c11.8-12.6,25.2-21.8,42.2-26.5c17.3-4.8,34.5-10.7,51.2-17.3c17.1-6.8,34.7-6,52.1-4.5c16.1,1.3,32,5.5,44.9,16.6
		c10.9,9.5,21.7,19,32.6,28.4c8.8,7.6,16.2,15.9,30.2,15.7C649.5,560,663.5,564.1,678.9,566.5z M843.6,831.6c1,2.4-0.2,0.7-0.4-1.1
		c-2.8-22.9-12.3-41.6-28.4-59.1c-16.7-18.2-33.8-32.2-58.7-35.1c-8.7-1-17.4-1.7-25.8-3.7c-20.8-5.1-40.9-0.4-60.1,6
		c-42.8,14.1-64.7,49.3-81,87.8c-8.9,21.1-10.2,45.1-4,67.5c8.8,31.8,22.4,61.7,55.4,76c21.1,9.2,42.5,18.4,64.6,24.1
		c20.3,5.2,41.6,5.1,61.1-6.4c26.5-15.6,53.9-30,59.2-64.9c0.3-1.8,1.5-3.5,2.3-5.2C839.8,891.5,843.2,863.8,843.6,831.6z
		 M115.2,131.8C90,130.4,66.5,135,43,142.2c-19.3,5.9-20.8,5-22,23.2c-2.8,40.5-3.7,81.5,12.2,119.6c17.8,42.5,24.9,87.1,32.9,131.7
		c0.9,5,3.9,9.7,6,14.8c12.8-3.6,23.8-6,34.3-9.8c12.1-4.4,14.1-9.3,11.9-21.8c-1.5-8.5-2.9-17.2-3-25.8c-0.4-27.1-0.4-54.1,0-81.2
		c0.1-7.3,0.8-15.3,3.7-21.8c14-31,12.3-63.7,10.7-96C128.9,160.6,127.1,144.9,115.2,131.8z M945.6,301.9c7-14.1,7.2-18.2,5.5-28.4
		c-3.8-22.7-8.4-45.4-9.9-68.2c-2.5-38.8-2.9-77.7-4.1-116.6c-0.2-5,0.4-10,0.7-15c0.7-10.3,1.5-20.5,2.6-34.3
		c-1.5,2.3-0.9,1.2-0.1,0.3c3.8-4.7,11.5-9.2,6.5-15.6c-3.1-3.9-10.9-6-16.4-5.7c-19.9,1-39.8,3.3-58.7,5
		c-10.6,26.1-16.3,52.8-14.3,80.8c0.2,2.9-1.5,6-2,9c-1.9,12.3-4.3,24.5-5.2,36.9c-0.9,12.5,0.6,25.3-0.3,37.8
		c-2.3,31.6,1.7,61.6,14.2,91.2c6.2,14.7,14.7,22.5,30,22.9C910.8,302.2,927.8,301.9,945.6,301.9z"/>
	<path fill-rule="evenodd" clip-rule="evenodd" d="M763.6,782.5c7.8,6.1,16.5,8.7,22.8,19.4c16.4,28,14.1,55.6,4.1,83.7
		c-4.8,13.3-10.7,27.3-19.7,37.8c-11.2,13.2-26.8,22.5-45.4,22.3c-11.8-0.1-23.7-1.1-35.2-3.4c-34.7-6.9-52.5-31.8-63.5-62.7
		c-3.8-10.4-5.7-21.6-7.5-32.6c-2.2-13.6,1.7-26.8,9.7-37.3c11.3-14.8,24.4-28.2,37.4-41.5c4.1-4.2,10.2-7.2,15.9-8.8
		c18.5-5.2,37-4.5,55.2,2.1c1.6,0.6,3,2.2,4.1,3.6c0.7,0.8,0.6,2.3,1.5,6.1c-6.3-0.3-12.2,0.2-17.8-1c-26.1-6-47.9-0.8-64.4,21.7
		c-8.7,11.9-20,21.2-24,37c-5.5,21.6,0.7,40.3,8.8,59.2c9.1,21.2,26.9,32.1,47.2,40.1c23.1,9.1,47.9,1.7,65.3-16.9
		c23.7-25.5,26.1-56.2,22.5-87.7c-1.2-10-11.3-18.8-17.1-28.3c-1.9-3-3.1-6.4-4.7-9.6C760.4,784.4,762,783.4,763.6,782.5z"/>
	<path fill-rule="evenodd" clip-rule="evenodd" d="M683.6,866.1c6,7.8,0.3,18.4,11.3,23.6c19.8,9.4,40.4,1.5,44.5-20
		c2.4-12.5,3.1-25.6,0.5-38.4c-4.4-22.4-25.5-34.3-46.7-25.6c-4.1,1.7-8.4,5.3-10.4,9.2c-4.4,8.1-7.1,17.2-11.2,25.6
		c-1.4,2.9-4.7,4.9-8,8.2c-9.8-26.8,6.7-52.4,34.5-62c8.1-2.8,20,0.2,28.3,4.3c26.3,13,36.2,47.5,26.8,79
		c-3.1,10.4-7.6,19.5-15.6,27.2c-16.4,15.6-52.7,11.1-63.8-8.5C669.2,880.8,671.9,874.2,683.6,866.1z"/>
	<path fill-rule="evenodd" clip-rule="evenodd" d="M716.6,835c-3.8,10-7.1,18.8-10.4,27.4c-12.3-2-13.1-8.9-10.6-15.6
		c2-5.2,6.3-9.9,10.4-13.9C707.2,831.8,711.4,833.9,716.6,835z"/>
	<path fill-rule="evenodd" clip-rule="evenodd" d="M43.7,162.1c2.2,3.1,6.2,6,6.5,9.3c1.9,21.1,3.1,42.2,4.1,63.3
		c0.2,3.1-1.5,6.3-4.2,9.4C43.2,217.4,37.6,190.9,43.7,162.1z"/>
	<path fill-rule="evenodd" clip-rule="evenodd" d="M99.6,389.9c-18.4,10.5-21.3,10.1-29.9-5.7c4.2-4.4,8.7-9.2,13-13.7
		C94,373.1,99.3,379.4,99.6,389.9z"/>
	<path fill-rule="evenodd" clip-rule="evenodd" d="M66.2,174.2c8.3,10.6,13.6,32.9,9.8,41c-0.9,1.9-4.9,2.2-9.6,4.1
		C69.3,203.5,56.4,189.9,66.2,174.2z"/>
	<path fill-rule="evenodd" clip-rule="evenodd" d="M898.3,275.4c-11.2-0.1-14.2-2.7-14.3-12.4c-0.2-10.6,9.8-21.8,19.1-21.5
		c7.5,0.2,14.7,9.4,14.8,18.8C917.9,269.7,910.4,275.6,898.3,275.4z"/>
	<path fill-rule="evenodd" clip-rule="evenodd" d="M876.2,40.2c4.5,2.8,9,4,10.2,6.7c1.7,3.7,1.6,8.7,1.2,12.9
		c-2.4,22.1-5.1,44.2-8.1,70.1c-4.5-4.9-8.4-7.2-8.2-9.1c1.3-17.3,3.5-34.6,4.9-51.9C876.7,60.4,876.2,51.9,876.2,40.2z"/>
	<path fill-rule="evenodd" clip-rule="evenodd" d="M904,63.5c-3.6,12.9,2,27.3-5.8,42.5C892.7,88.3,894.8,72.5,904,63.5z"/>
</g>
</svg>
