<?xml version="1.0" encoding="utf-8"?>
<!DOCTYPE svg PUBLIC "-//W3C//DTD SVG 1.1//EN" "http://www.w3.org/Graphics/SVG/1.1/DTD/svg11.dtd">
<svg artist="zl2017" version="1.1" id="zlIcon-menu-text" xmlns="http://www.w3.org/2000/svg" xmlns:xlink="http://www.w3.org/1999/xlink" x="0px" y="0px"
	 width="1000px" height="266px" viewBox="0 0 1000 266" enable-background="new 0 0 1000 266" xml:space="preserve">
<path fill-rule="evenodd" clip-rule="evenodd" d="M355.3,212.8c-8.5,8.1-14.3,14.9-21.2,20.1c-12.2,9.1-25.2,17.1-37.6,25.9
	c-6.4,4.6-13.1,9.2-21,6.1c-9.8-3.9-10.5-13.2-11.2-22.4c-1.2-15.2-2.2-30.5-5-45.5c-1.5-8.3-6.5-15.9-10.9-26
	c-7.3,3.2-13.3,4.7-18,8.1c-16.6,11.6-30.3,27.4-49.3,33.8c-14.3-2.7-19.2-13.4-24.9-23.3c-10.8-18.7-21.5-37.4-32.6-56
	c-1.8-3.1-5.1-5.4-9.7-10.2c-4,5.6-8.1,9.8-10.5,14.9C92,162.5,81.4,187,69.8,211.2c-3.1,6.5-8.6,12-14.3,19.6
	c-20.4-11.3-45.3-12.2-55-37.9C31.1,131.3,53,66.2,83.3,3.7c29.4,2.2,57,4.2,85.1,6.2c16.6,31.2,12.8,68.9,37.3,97.4
	c6.3-5.9,11.8-10.7,17-15.9c7.2-7.2,13.8-15,21.4-21.7c19.7-17.4,35.8-15.3,49.7,7.7c9.9,16.3,18.6,33.5,26.4,50.9
	C332.1,155,342.8,182.3,355.3,212.8z M277.2,83.3c-22.9,4.3-34.8,15.5-44.1,29.5c-10.8,16.3-25.8,26.3-45.7,36.1
	c-9.5-41-18.3-78.9-27.2-117.5c-19.1-8.5-37.9-10.6-56.9-9.2c-5.4,0.4-12.2,4.9-15.3,9.6c-5.6,8.3-9.4,18-13.1,27.4
	c-6.6,16.6-12.3,33.5-18.8,50.1c-10,26.1-20.5,52-30.3,78.2c-1.1,3,0.6,7.1,0.9,10.7c8.9,2.8,16.9,5.3,26.6,8.3
	c9.8-14.7,18.8-28.2,23.6-44.4c3.2-11,7.1-21.9,12.2-32.1c6.6-13.2,12.8-27.2,28-34.8c23.3,22.6,39.5,48.2,55.2,74.4
	c3.6,6,8.5,11.2,12.4,16.3c26.4-12.7,40.4-39.4,70.5-44.9c5.1,7.2,12.1,13.6,14.6,21.4c5.4,16.8,8.1,34.5,12.6,51.7
	c1.8,6.9,5.3,13.3,10.2,25c8.5-6.4,14.8-10.7,20.6-15.5c5.7-4.7,11-10,16.3-14.8C322.7,161.7,294,126.2,277.2,83.3z"/>
<path fill-rule="evenodd" clip-rule="evenodd" d="M577.6,20.1c4.6-1.5,10.5-3.6,16.5-5.2c37.5-9.9,49.9-5.4,71.2,25.8
	c5,7.4,8.9,15.5,14.3,22.5c3.6,4.7,9,8,15.5,13.5c7.7-24.3,14.5-45.8,21.2-67.2c19.6-3.4,36.9-6.7,54.4-9.2
	c9.7-1.4,17.3,5.2,17.7,15.3c0.4,8.8,1,18.2-1.4,26.5c-15.2,53.5-13.4,108.5-16.4,164.8c-5.7,11.8-16.3,20.1-30.1,23
	c-30.9-6.2-54.8-21.1-71.1-48.1c-4.2-6.9-12-11.7-20.1-19.4c-16.1,27.5-1.8,61.4-26.5,84.4c-19.5-4.9-39.1-9.8-58.4-14.6
	c-10.5-16.6-12-34.2-9.8-52.1c6.2-50.5,12.8-100.9,19.4-151.3C574.4,26.6,575.8,24.4,577.6,20.1z M618.4,219
	c9.9-32-5.5-64.4,6.2-96.2c18.6,5.8,30,17.4,41.8,28.5c20.3,19.2,40.7,38.2,61.3,57c6,5.4,16.1,2.4,18.8-5.3c1.7-4.7,3-9.7,3.6-14.6
	c3.3-27.7,5.8-55.5,9.5-83.2c3.4-25.2,8.1-50.1,11.8-75.3c0.5-3.2-2.2-6.9-3.3-10.1c-12.7-3.4-23.1-0.8-31.6,7.2
	c-1,3.2-1.7,5.6-2.4,8c-8.7,29.1-17.2,58.3-26.6,87.2c-1.2,3.8-7,8.3-10.9,8.6c-3.8,0.2-9.3-3.7-11.5-7.4
	C674.1,105,663.9,86,653.3,67.2c-5.6-10-10.8-20.3-17.3-29.6c-8.3-11.7-17-14-29.9-10.4c-12.1,3.3-14.7,12.3-15.4,23.3
	c-2.9,45.7-6.1,91.3-9,137c-0.4,6.3-0.7,13.3,1.7,18.8c2.2,5.1,7.3,10.6,12.3,12.2C602.3,220.6,610,219,618.4,219z"/>
<path fill-rule="evenodd" clip-rule="evenodd" d="M507.1,23.8c-4.2,15,10.3,30.9-2.2,47.5c-9.8,0-19.8-0.4-29.7,0.1
	c-14.3,0.7-27.5,4.9-37.6,15.9c-1.4,1.5-2.2,5.2-1.3,6.8c1.6,3,4.8,7.5,7.2,7.4c8.7-0.4,17.4-2.9,26.1-3.8
	c16.2-1.6,31.4,19.1,24.9,33.9c-1.4,3.1-4.9,6.6-8,7.3c-8.6,2-17.8,1.7-26.3,4.1c-3.9,1.1-8.7,5.9-9.4,9.7
	c-1.4,7.2,3.9,12.2,10.9,12.6c10.1,0.6,20.3-0.5,30.4-0.4c7.3,0.1,14.7,1,24.4,1.7c-2.5,23.1,5.2,44.4-4.8,66.7
	c-37,5.2-74.6,10.4-112.4,15.7c-13.8-14.7-18.2-31.9-20-49.5c-4.6-44.3-8.3-88.7-11.9-133.1c-0.6-7.5-0.9-15.6,1.3-22.7
	c1.7-5.4,6.7-12.1,11.6-13.6c26.8-8,54-14.5,81.1-21.4C477.3,4.4,491.5,7.6,507.1,23.8z M392.1,44.9c0,16.9-0.7,33.3,0.1,49.6
	c1.8,34.3,4,68.5,7,102.7c1.9,21.3,12,29.2,33.2,27.3c15.2-1.3,30.2-4,45.3-6c18.1-2.3,19.4-4.3,17.5-28.9
	c-19.9-13-46.4,4.7-65-14.1c-9-36.8-8.9-36.8,27-45.6c3.7-0.9,7.8-1.5,10.8-3.6c2.5-1.8,3.7-5.5,5.3-8.2c-2-1.6-3-3.2-3.9-3.1
	c-8.5,1.2-17,2.7-25.6,3.9c-16.3,2.3-27.3-7.5-27-23.7C417,81,423.4,70.8,437,66.3c15.5-5.2,31.4-9.1,49.4-14.1
	c-2.1-9.2-3.8-16.9-5.8-25.8C449.4,30.2,420.4,32.6,392.1,44.9z"/>
<path fill-rule="evenodd" clip-rule="evenodd" d="M884.2,157.6c8.8-6.1,15.8-8.3,17.8-12.8c4.6-10.3,7.5-21.5,9.9-32.7
	c6.1-28.4,11.5-57,17.4-86.6c17.9-4.1,33.9,1,49.7,3.1c10.7,1.4,18.4,9.4,19.1,20.9c0.9,13.9,2.3,28.1,0.3,41.7
	c-4.7,33-17.1,63.7-30,94.3c-13.2,31.3-39.6,41-69.2,46.4c-7.4,1.4-15.3,0.1-22.9,0.3c-36.4,0.7-62.4-22.6-62.9-65.6
	c-0.1-10.1,2.6-20.2,4.3-30.2c5.6-33.9,11.4-67.8,17-101.7c1.7-10.2,4-20,14.4-27.6c10.1,1.2,21.5,2,32.6,3.9
	c22.2,3.7,29.2,15.4,23.7,38.2c-6.8,28.4-13.7,56.9-20.2,85.4C884.1,140.4,884.7,146.6,884.2,157.6z M953.6,42.5
	c-10.2,9.7-8.7,23.3-11.9,35.4c-6.1,23.3-12.4,46.6-19.7,69.6c-6.3,19.7-21.8,27.1-41.5,27.1c-12,0-19.3-8-17.1-19.3
	c2.6-13.7,6.5-27.2,9.2-41c3.7-18.7,6.9-37.5,10.1-56.3c1.8-10.7-1.5-20-8.7-28.1c-5.3-5.9-15.7-4.9-19.1,2.5c-2.1,4.6-4,9.4-5,14.3
	c-8.2,37.3-14.9,74.8-15,113.2c0,11.2,1.1,22.5,1.6,31.9c23.4,19.7,47.7,23.3,73.9,17.8c14.3-3,26.1-9.2,33.3-22.9
	c4.7-9,11.2-17.1,15.9-26c15-28.4,26.2-57.9,24.4-90.9C982.9,47,980.9,44.9,953.6,42.5z"/>
<path fill-rule="evenodd" clip-rule="evenodd" fill="#FFFFFF" d="M277.2,83.3c16.8,42.8,45.5,78.4,52.2,125.6
	c-5.3,4.8-10.6,10.1-16.3,14.8c-5.9,4.8-12.1,9.2-20.6,15.5c-4.9-11.8-8.4-18.2-10.2-25c-4.5-17.2-7.2-34.8-12.6-51.7
	c-2.5-7.8-9.5-14.2-14.6-21.4c-30.1,5.5-44.1,32.2-70.5,44.9c-3.9-5.1-8.8-10.3-12.4-16.3c-15.6-26.2-31.9-51.8-55.2-74.4
	c-15.2,7.6-21.5,21.6-28,34.8c-5.1,10.2-9,21.2-12.2,32.1c-4.7,16.2-13.7,29.7-23.6,44.4c-9.7-3-17.8-5.6-26.6-8.3
	c-0.4-3.6-2.1-7.7-0.9-10.7c9.8-26.2,20.3-52.1,30.3-78.2c6.4-16.7,12.2-33.6,18.8-50.1c3.7-9.4,7.5-19.1,13.1-27.4
	c3.2-4.7,9.9-9.2,15.3-9.6c19-1.5,37.8,0.7,56.9,9.2C169.2,70.1,178,108,187.4,149c19.8-9.8,34.9-19.9,45.7-36.1
	C242.4,98.8,254.3,87.6,277.2,83.3z"/>
<path fill-rule="evenodd" clip-rule="evenodd" fill="#FFFFFF" d="M618.4,219c-8.3,0-16.1,1.6-22.7-0.5c-5-1.6-10.2-7.2-12.3-12.2
	c-2.4-5.5-2.1-12.5-1.7-18.8c2.8-45.7,6.1-91.3,9-137c0.7-10.9,3.4-19.9,15.4-23.3c12.9-3.6,21.6-1.3,29.9,10.4
	c6.6,9.3,11.7,19.6,17.3,29.6c10.6,18.8,20.8,37.8,31.8,56.3c2.2,3.7,7.8,7.6,11.5,7.4c3.9-0.3,9.6-4.7,10.9-8.6
	c9.4-28.9,17.8-58.1,26.6-87.2c0.7-2.4,1.5-4.8,2.4-8c8.5-8,18.9-10.5,31.6-7.2c1.1,3.2,3.7,6.9,3.3,10.1
	c-3.6,25.1-8.4,50.1-11.8,75.3c-3.7,27.7-6.2,55.5-9.5,83.2c-0.6,5-1.9,9.9-3.6,14.6c-2.7,7.6-12.8,10.7-18.8,5.3
	c-20.6-18.8-41-37.8-61.3-57c-11.8-11.1-23.2-22.7-41.8-28.5C612.9,154.6,628.3,187,618.4,219z"/>
<path fill-rule="evenodd" clip-rule="evenodd" fill="#FFFFFF" d="M392.1,44.9c28.4-12.3,57.3-14.7,88.6-18.6
	c2,8.9,3.7,16.6,5.8,25.8c-18,5.1-34,9-49.4,14.1c-13.6,4.5-20,14.7-20.2,29.1c-0.3,16.2,10.8,26,27,23.7c8.5-1.2,17-2.8,25.6-3.9
	c0.8-0.1,1.9,1.5,3.9,3.1c-1.7,2.7-2.8,6.4-5.3,8.2c-3,2.1-7.1,2.7-10.8,3.6c-35.9,8.8-35.9,8.8-27,45.6c18.6,18.8,45.2,1.1,65,14.1
	c1.9,24.6,0.7,26.5-17.5,28.9c-15.1,2-30.2,4.7-45.3,6c-21.2,1.9-31.3-6-33.2-27.3c-3.1-34.2-5.2-68.4-7-102.7
	C391.3,78.2,392.1,61.8,392.1,44.9z"/>
<path fill-rule="evenodd" clip-rule="evenodd" fill="#FFFFFF" d="M953.6,42.5c27.3,2.4,29.3,4.4,30.6,27.2
	c1.9,33-9.3,62.5-24.4,90.9c-4.8,9-11.2,17-15.9,26c-7.2,13.7-19.1,19.9-33.3,22.9c-26.3,5.5-50.5,1.8-73.9-17.8
	c-0.5-9.4-1.6-20.7-1.6-31.9c0.2-38.3,6.8-75.9,15-113.2c1.1-4.9,2.9-9.7,5-14.3c3.4-7.3,13.8-8.4,19.1-2.5
	c7.2,8.1,10.5,17.3,8.7,28.1c-3.2,18.8-6.4,37.6-10.1,56.3c-2.7,13.7-6.6,27.2-9.2,41c-2.2,11.4,5.1,19.4,17.1,19.3
	c19.6,0,35.2-7.4,41.5-27.1c7.3-23,13.5-46.3,19.7-69.6C944.9,65.8,943.4,52.3,953.6,42.5z"/>
</svg>
