<?xml version="1.0" encoding="utf-8"?>
<!-- Generator: Adobe Illustrator 16.0.0, SVG Export Plug-In . SVG Version: 6.00 Build 0)  -->
<!DOCTYPE svg PUBLIC "-//W3C//DTD SVG 1.1//EN" "http://www.w3.org/Graphics/SVG/1.1/DTD/svg11.dtd">
<svg artist="zl2017" version="1.1" id="zlIcon-mouse-rain" xmlns="http://www.w3.org/2000/svg" xmlns:xlink="http://www.w3.org/1999/xlink" x="0px" y="0px"
	 width="1000px" height="872.6px" viewBox="0 0 1000 872.6" enable-background="new 0 0 1000 872.6" xml:space="preserve">
<path fill-rule="evenodd" clip-rule="evenodd" d="M415.8,347.4c0.2,2.1,1.7,4.2-0.9,6.1c-1.1,0.8-1.5,2.9-1.8,4.5
	c-1.6,7.4-3.8,14.6-7.2,21.5c-2.8,5.8-5,11.9-7.4,17.9c-0.2,0.5-0.3,1.1-0.6,1.6c-6.6,9.7-8.1,21.4-13.1,31.8
	c-2,4.2-2.9,8.9-4.3,13.5c-3.3,0-4.7-0.8-4.2-3c0.5-2.5,1.3-4.9,2-7.3c0.3-1.3,0.5-2.7,0.8-4.2c-3.9-2.3-7.8-3.9-11.8-5.1
	c-7-2-14.1-3.8-21.2-5.6c-11.5-2.8-23-5.5-34.5-8.2c-7.6-1.8-15.3-3.6-22.9-5.5c-12.3-3.1-24.7-4.8-37.4-5.8
	c-12.4-0.9-24.7-0.4-37,0.6c-3.4,0.3-6.8,0.5-10.1,0.2c-14.4-1.1-27.8,3.4-41.3,7.1c-5.3,1.5-10.3,4.4-15.4,6.6
	c-6.4,2.7-12.9,5.4-19.4,8c-7.7,3-14.4,7.3-20.4,13c-2.8,2.6-6.6,4.3-10.2,5.8c-2.7,1.1-4.9,2.5-6.9,4.6
	c-9.5,9.9-19.5,19.4-28.7,29.6c-4.7,5.1-8.7,11-12.3,17c-8.4,14.3-17,28.5-23.5,43.8c-3.1,7.2-5.3,14.8-7.9,22.2
	c-0.5,1.6-0.9,3.4-0.7,5c0.9,7.8-1.6,15-3.7,22.3c-1.5,5.1-3.1,10.2-4.2,15.4C8.1,608,9,615.3,9.8,622.6c0.2,2,0.6,3.9,0.6,5.9
	c0.2,9.1,1.8,17.8,4.7,26.4c3.2,9.5,6,19.2,6.2,29.4c0.1,3.3,1.2,6.6,2.3,9.8c1.8,4.7,4,9.3,6,13.9c0.6,1.5,1.3,3.2,1.4,4.8
	c0.4,7.9,2.7,15.4,4.9,22.8c2.7,9.1,4.5,18.5,8.7,27.1c2,4.2,3.1,8.9,4.9,13.2c3.4,8,7.8,15.6,13.1,22.5c2.1,2.7,4.3,5.3,5.9,8.2
	c4,7.7,10,13.5,16.7,18.7c1.3,1,2.9,1.9,3.9,3.1c6.8,8.5,16.4,12.4,26.1,16.2c2.9,1.1,5.9,2,8.8,3c6.7,2.5,13.7,2.6,20.7,3.3
	c1.4,0.1,2.9-0.2,4.2,0.2c9.6,2.6,19.5,2.1,29.3,3.4c3.7,0.5,7.4-0.3,10.8,0.3c3.4,0.6,6.8,2.1,10.3,3c8.6,2.3,17.2,2.5,25.9,1.3
	c1.4-0.2,2.8-0.1,4.2,0c8.1,0.3,16.2,0.8,24.4,1c2.5,0.1,5-0.6,7.5-0.8c4.2-0.5,8.4-0.9,12.5-1.4c1.4-0.2,2.7-0.4,4.1-0.8
	c2.5-0.5,4.9-1.4,7.4-1.7c9.8-1.2,19.1-4.2,28.1-8.3c2.8-1.3,5.9-1.9,8.8-3c9.1-3.6,17.9-7.7,25.7-14c5.2-4.2,11.1-7.7,16.8-11.2
	c5.1-3.2,9.4-7.2,13.1-11.8c2.9-3.5,6.1-6.6,9.8-9.1c5-3.3,8.7-7.9,12.5-12.3c1.5-1.7,2.9-3.5,4.3-5.2c5.2-6.3,10.9-12.2,15.4-18.9
	c4.9-7.1,8.7-15,12.9-22.5c0.3-0.5,0.2-1.1,0.3-1.6c0.8-7,1.7-13.9,2.3-20.9c0.7-7.4-1.1-14.5-3.4-21.5c-0.5-1.5-1.7-2.9-2.8-4
	c-4.9-4.5-11.2-6.2-17.3-8.3c-7-2.4-14.4-1.8-21.7-2.1c-3.3-0.2-6.7,0.6-10,1.5c-6.5,1.7-13,3.5-19.4,5.5
	c-7.8,2.5-14.9,6.7-21.5,11.4c-7.6,5.3-14.6,11.4-21.9,17.2c-1.3,1-2.8,2-3.7,3.4c-5.6,8.5-10.9,17.1-11.9,27.6
	c-0.3,2.8-0.8,5.6-1.8,8.2c-3.9,9.6-1,18.1,4.2,26.2c3,4.7,5.7,9.6,10.3,13.1c1.3,1,2.4,2.5,3.2,3.9c1.8,3.4,4.3,5.9,7.7,7.5
	c3.7,1.7,5.8,5.2,8.6,8.5c4.2-1.6,7.6-4.6,12.1-5.4c2.4-0.4,4.4-3.3,6.8-5.2c-2.5-1.9-4.9-3.5-7-5.4c-2.5-2.2-4.9-4.6-7.4-6.9
	c-2.2-2.1-4.3-4.4-6.6-6.5c-9.7-9-12-20.6-11.9-33.1c0-1.9,0.7-3.9,1.3-5.7c0.9-2.6,2-5.2,3.1-7.8c1.8-4.1,3.6-8.2,7-11.5
	c2-1.9,3.7-4.2,5.4-6.5c3.8-5.2,8.8-8.2,14.6-10.9c8.5-3.8,17.3-4.9,26.2-4.8c11.2,0.2,22,2.9,28.9,12.8c6.2,8.9,8.6,19,5.1,29.6
	c-3.1,9.6-6.8,19-12.8,27.3c-2.7,3.7-5.7,6.9-9.3,9.7c-2.2,1.8-4.5,3.4-6.4,5.5c-10.6,11.7-23.9,19.4-37.9,26.2
	c-3.8,1.9-7.6,3.6-11.4,5.6c-8.2,4.4-17,7.2-25.9,9.9c-7.5,2.3-15,4.7-22.7,6c-10.8,1.8-21.4,4.7-32.4,4.2
	c-10.4-0.5-20.7-1-31.1-1.5c-2-0.1-4-0.3-5.9-0.1c-7.3,0.7-14.6-0.2-21.8-1.2c-1.4-0.2-2.9-0.7-4.2-0.4c-5.7,1.1-11.1-0.2-16.6-1.6
	c-4.3-1-8.9-1.1-13.3-2c-4.9-1-9.8-2.4-14.6-3.9c-5.9-1.9-11.7-4.1-17.5-6.2c-1.1-0.4-2.2-0.6-3.1-1.2c-7.3-4.7-15.5-7.8-23.3-11.6
	c-6.9-3.3-13.1-7.4-17.7-13.7c-4.1-5.7-8.5-11.2-12.5-16.9c-3.2-4.6-5.9-9.5-7.5-15c-0.5-1.6-1.2-3.1-2-4.6
	c-5.1-9.4-9.6-19.1-12.3-29.5c-0.5-2.1-1.6-4.2-2.3-6.3c-2.7-8-5.7-15.9-7.8-24c-1.5-5.9-2-12.1-2.6-18.2
	c-1.4-13.1-2.5-26.2-3.8-39.4c-0.2-1.7-0.2-3.4-0.5-5c-2.2-11.9-4.3-23.7-3.7-35.9c0.1-1.6-0.6-3.3-0.8-5
	c-0.8-5.9-1.7-11.7,1.1-17.4c0.6-1.2,0.3-2.8,0.5-4.1c1.3-6.8,0.9-14.1,4.4-20.4c1.6-9.9,5.9-18.8,10.4-27.5c3.4-6.6,7-13.4,12.2-19
	c0.9-1,1.9-2.1,2.6-3.3c3.5-6.7,8-12.9,11.9-19.3c4.4-7.4,10.2-13.4,16.6-18.9c0.9-0.7,1.8-1.4,2.5-2.3c7.3-9.5,17.4-15.8,26.9-22.8
	c6.2-4.6,29.9-17.3,37.9-20c2.7-0.9,3.6-3.2,4.9-4.4c5.2-0.6,9.9-1.2,14.6-1.6c8.1-0.6,16.2-1.2,24.3-1.5c2.7-0.1,5.5,1.1,8.2,1.4
	c9.5,1,19,2.2,28.5,2.7c10.5,0.6,20.6,2.3,30.6,5.5c9.9,3.1,19.9,6,29.8,9c9.7,2.9,19.1,6.6,28,11.6c3.6,2,7.9,2.8,11.8,4.4
	c11.1,4.7,22.2,9.5,33.1,14.5c5.8,2.7,11.7,5.7,16.9,9.4c8.6,6.2,18.4,10,28.2,12.9c25.8,7.7,51,17.5,76.6,25.8
	c8.3,2.7,16.7,5.1,25.3,6.8c7.1,1.4,14.5,1.5,21.7,2.2c3.9,0.4,7.8,0.6,11.7,1.1c3.7,0.4,7.2,1.5,9.1,5.4c2.8-1.4,5.3-2.6,8.1-4
	c0.6-10.7,4.2-20.5,12-28.3c-2.4-1.9-3.5-0.2-4.8,0.7c-4.9,3.3-6.9,0.7-8.6-2.8c-1-2-1.3-4.3-2.2-6.3c-0.5-1.1-1.6-1.9-2.7-3.3
	c-4.3,7.2,2.2,13.6-0.1,20.2c-4.2,1.7-8.7,0.4-13.1,0.5c-1.2,5.5,4.2,8.9,3.5,13.9c-4,1.7-4.3,1.8-5.3-0.5c-1.1-2.5-2.8-4-5.1-5.3
	c-6.6-3.7-13.1-7.7-19.5-11.6c-3-1.9-5.4-4.5-7.6-7.4c1-0.3,1.6-0.7,1.9-0.5c5.2,3.2,10.4,6.4,15.6,9.7c2.8,1.8,5.6,3.7,9.5,3.6
	c0.1-2.7,0.2-5.1,0.4-7.4c1.6-2.1,3.6-2,5.5-1.3c2.6,0.9,5.1,2.1,8.2,3.4c0.1-4.8-0.9-8.9-1.5-12.9c-0.5-2.9-0.3-5.6,1.1-8.2
	c1.4-2.6,4.3-3.9,7-3c4.1,1.2,6.7,3.9,7.9,8c0.5,1.8,1.1,3.6,1.8,5.8c2-1.4,3.4-2.7,5.1-3.5c2.6-1.4,5.8-0.5,7.5,1.8
	c2.1,2.8,2.3,7.3,0.4,10.3c-0.5,0.7-0.9,1.5-1.6,2c-4.6,3.6-6,8.5-6.2,14.1c-0.1,3.6-1.2,7.2-1.6,10.8c-0.3,3.2-2.2,5.2-4.8,6.4
	c-3.8,1.7-7.7,3.2-12.2,1.8c-5.6-1.7-11.4-3-17.1-4.3c-4.1-1-8.1-1.7-12.3-2c-10.8-0.7-21.7-2.2-31.7-6.6
	c-13.1-5.9-27.1-8.9-40.6-13.6c-8.2-2.8-16.7-4.9-25-7.5c-3.7-1.1-7.5-2.4-11.1-3.8c-25.8-10.4-51-22.1-75.6-35
	c-11.4-6-23.2-11.2-35-16.4c-4.8-2.1-10.1-3.2-15.2-5c-13.5-4.8-27.6-7.5-41.3-11.8c-7.2-2.2-14.5-1.2-21.8-1.7
	c-7.6-0.6-15.1-1-22.7-1.3c-3.7-0.2-7.4-0.4-11,0c-7.5,0.9-15.2,1.6-22.5,3.5c-7,1.8-13.7,4.9-20.5,7.5c-1.6,0.6-2.9,1.7-4.5,2.3
	c-15.1,5.2-27.2,15.4-39.8,24.7c-3.3,2.5-6,5.9-9,8.9c-4.7,4.8-9.5,9.5-14.1,14.4c-3.8,4.1-7.5,8.3-11.1,12.5
	c-3.7,4.2-7.2,8.6-11,12.7c-2.4,2.5-4.1,5.3-5.6,8.3c-2.6,5.3-5.2,10.5-7.1,16.1c-2.2,6.4-4.7,12.7-4.9,19.5c-0.1,3.2-2,5.5-2.4,8.6
	c-1.3,10.6-2.1,21.2-2.2,31.9c-0.1,10.9-0.6,21.9-1.1,32.8c-0.3,6.1,1,28.5,2,35c0.9,6.4,2.2,12.8,2.3,19.2
	c0.2,10.7,3.5,20.4,7.6,30c3,7,5.8,14,8.5,21.1c3.1,8.1,6,16.4,11.7,23.2c1.1,1.3,1.8,2.9,2.6,4.4c4.1,8.4,9.5,15.8,16.5,22.2
	c4.7,4.3,8.7,9.5,12.9,14.4c2.6,3,5.5,5.5,8.9,7.6c4.1,2.5,7.7,5.6,11.6,8.4c0.7,0.5,1.3,1.1,2.1,1.4c10.7,4,21.1,9.7,33,9.1
	c6.9-0.3,13.3,1.9,19.9,3.1c9.4,1.8,18.7,3.5,28.2,4.7c4.7,0.6,9.5-0.1,14.3-0.3c5.6-0.3,11.4-1.7,16.8-0.8
	c5.2,0.8,9.9-0.9,14.8-0.8c5.3,0.1,10.7-0.4,16-0.9c5-0.5,10.1-1.1,15-2.1c7.6-1.6,15.5-2.5,22.8-5.5c3.6-1.5,7.1-3.3,11.3-5.3
	c-1.5-1.7-2.4-3.1-3.6-3.9c-11.3-7.4-17.4-18.9-23.8-30.1c-2.5-4.4-2.9-9.7-2.6-14.8c0.3-4.4,1.1-8.9,2-13.3c1-5,2.7-9.8,3.3-14.8
	c0.7-5.8,3.6-10.6,6.3-15.5c6-11.1,15-19.6,24.7-27.2c5.9-4.7,13.1-7.6,19.5-11.7c8.9-5.7,19.3-7.6,28.7-11.9
	c0.5-0.2,1.1-0.4,1.6-0.5c11.7-1.2,23.5-2.6,35.2-0.2c4.1,0.8,8.1,2.2,12.1,3.5c9.7,3.4,16.6,10.3,22.2,18.5
	c5.1,7.6,5.3,16.3,3.6,25c-0.4,2.2-0.9,4.5-1.9,6.5c-5.6,11.7-8.8,24.2-12.9,36.4c-3.1,9-8,16.6-13.9,23.7
	c-8.5,10.2-18.4,18.9-28.4,27.4c-1,2.9-0.5,5.6,1.2,8.8c4.2,0.9,8.9,1.7,13.5,3c9.6,2.7,19,0.2,28.3-1.1c9.4-1.3,18.7-3.5,28-4.9
	c8.3-1.2,15.6-4.1,22.9-7.7c7.8-3.8,15.6-7.6,23.3-11.7c5-2.6,9.8-5.4,14.6-8.4c6.8-4.4,13.5-9,20.2-13.6c2.1-1.4,4-2.8,6.5-3.8
	c2.3-0.8,4.5-2.5,6-4.4c2-2.5,4.6-4.1,7.2-5.8c7.5-4.9,15.6-8.8,22.8-14.2c0.2-0.2,0.5-0.2,0.7-0.4c10.2-9.8,23.2-15.7,34.4-23.9
	c8.6-6.3,17.8-11.8,27.3-16.7c5.5-2.8,10.5-6.5,15.7-9.8c0.7-0.5,1.3-1.1,2.1-1.4c20.4-8.6,40.2-18.4,61.6-24.8
	c8.4-2.5,16.9-4,25.3-6.3c2.7-0.7,5.4-1.3,8.2-1.8c4.7-0.9,9.4-1.5,14-2.5c11-2.5,21.9-5.3,33.3-4.3c15.6-2.5,30.8,0.8,46,3.6
	c8,1.5,16,3,24,3.7c4.9,0.4,9.5,1.7,13.9,3.2c8.8,3.1,17.7,5.4,26.8,6.8c4.3,0.7,8.2,2,11.9,4.1c4.4,2.5,9.1,4.2,13.9,5.8
	c10.1,3.4,19.6,8.1,29.1,13c1,0.5,1.9,1.2,2.7,2c3.1,3,6.6,5,11,5.7c2.7,0.5,5.4,1.5,8,2.6c1.2,0.5,2.7,1.3,3.3,2.4
	c0.6,1,0.6,2.7,0.1,3.9c-0.3,0.7-2,1.4-2.8,1.1c-5.5-1.8-11.6-1.7-16.7-5.4c-4.3-3.1-9.3-5.2-14-7.7c-1.2-0.7-2.6-1.4-3.9-1.5
	c-8.2-0.8-15.6-4.5-23.5-6.5c-12.2-3.2-24.3-6.6-36.4-10.2c-3.1-0.9-6-1.3-9.1-1.1c-6.8,0.3-13.5-0.8-20.1-2c-5-1-9.9-1.9-14.9-2.8
	c-1.4-0.2-2.8-0.2-4.2-0.2c-4.7,0.2-9.4,0.6-14.2,0.8c-4.4,0.2-8.9,0-13.3,0.4c-6.4,0.5-12.8,1.4-19.3,2c-12.3,1.2-24.7,2-36.9,3.6
	c-6.6,0.9-13.2,2.8-19.7,4.6c-9.8,2.7-19.5,5.4-28.6,10.1c-7.2,3.8-14.4,7.5-21.3,11.7c-5.5,3.3-11.4,5.9-17.1,8.9
	c-3,1.6-5.9,3.1-8.7,5c-9.2,6.3-17.9,13.6-28.5,17.7c-1.3,0.5-2.3,1.6-3.4,2.5c-7,6-14.6,11.2-22.5,16
	c-12.5,7.5-24.4,15.9-35.7,25.1c-4.5,3.7-9.8,6.6-14.9,9.6c-10.7,6.2-21.4,12.3-32.2,18.3c-1.7,0.9-3.6,1.4-5.4,2.3
	c-3.5,1.8-7.2,3-10,6c-1.2,1.4-3.2,2.1-5,2.8c-6,2.3-12.1,4.6-17.4,8.3c-0.9,0.6-2,1-3.1,1.4c-12.6,4.6-24.8,10.2-37.8,13.8
	c-6.5,1.8-13.1,2.9-19.7,3.8c-5.6,0.8-11.3,1.1-16.6,2.8c-7.8,2.4-15.5,2.3-23.3,1.6c-3.6-0.3-7.1-1.2-10.7-2.1
	c-9.5-2.5-19.2-4.4-28.8-6.3c-6.9-1.3-13.8-2.1-20.8-2.2c-2.9,0-5.6,0.2-8.2,1.3c-8.8,3.6-17.7,7.2-26.5,10.9
	c-3.9,1.6-7.6,3.7-12,3.6c-1.1,0-2.2,0.4-3.2,0.9c-5.4,2.5-11.3,3-17.1,4c-9.2,1.5-18.4,2.6-27.6,3.8c-2.5,0.3-5,0.3-7.5,0.2
	c-8.1-0.3-16.3-0.6-24.4-1c-10.7-0.6-21.3-1.4-31.7-4.1c-1.6-0.4-3.3-0.8-4.8-1.7c-5.3-3.1-11.2-3.6-17.1-3.9
	c-3.6-0.2-7.3-0.7-10.9-0.7c-10.3,0-20.1-2.8-29.5-6.2c-10.8-3.8-21.8-7.6-30.9-15c-3.2-2.6-6.2-5.6-8.9-8.8
	c-2.5-3.1-5.1-5.9-8.6-7.9c-3.4-2-6-4.7-7.8-8.4c-3-6-7.1-11.5-10.3-17.4c-10.4-18.8-18.3-38.7-23.4-59.4c-2.9-11.7-6.3-23.3-9.4-35
	c-0.6-2.2-1.2-4.4-2.2-6.4c-6.5-12.5-8.8-25.9-9.8-39.8c-0.2-3-1.5-5.9-2.3-8.9c-0.7-2.7-1.7-5.4-1.8-8.1c-0.5-9.5-0.9-19-2.1-28.4
	c-0.4-3.2-0.1-6.1,0.8-9.1c0.8-2.4,1.1-4.9,1.4-7.4c0.6-3.9,1.4-7.6,2.6-11.4c1.9-6.1,3.1-12.4,3.9-18.8c1-7.7,2.6-15.6,5.4-22.9
	c2.1-5.5,3.9-11.1,6.2-16.5c1.2-2.9,2.2-5.8,3.7-8.5c2.4-4.7,5.5-9.1,7.1-14.3c0.7-2.4,2.2-4.6,3.7-6.6
	c7.9-10.5,15.6-21.3,24.1-31.3c8.4-9.8,17.6-18.9,26.6-28.1c2.1-2.2,4.8-3.9,7.3-5.7c5.4-4,10.8-8,16.3-11.8c2.3-1.6,4.9-3,7.5-3.6
	c3.4-0.7,6.6-1.7,9.2-3.9c5.4-4.6,12.1-5.7,18.5-7.7c7-2.2,14.1-3.8,21.3-5.1c8.8-1.6,17.6-3.7,26.3-5.9c9.3-2.3,18.6-3.7,28.3-3.4
	c8.4,0.3,16.9-0.9,25.3-0.6c6.7,0.2,13.3-0.4,20,1.3c9.8,2.5,19.8,3.8,29.7,5.7c4.1,0.8,8.2,2,12.3,3c7.1,1.8,14.2,3.5,21.2,5.5
	c5.1,1.4,10.2,3.1,15.2,4.9c4.5,1.7,9,2.9,13.9,3.2c7.3,0.5,14.5,1.8,21.8,1c12-13,25-43.7,25.7-60.4c-1.9-2.1-4.8-2.6-7.3-3.7
	c-12.9-5.2-22.1-14.5-26.9-27.4c-7.8-21-1.9-39.6,11.6-56.4c1.3-1.6,3.2-1.8,4.5-0.8c1.6,1.2,2,3.6,0.4,5.2
	c-6.9,6.9-9.4,16.1-11.6,24.9c-2.6,10.3-1.3,20.7,5.7,29.6c1.4,1.8,2.6,3.6,4,5.4c3.1,4.1,7,7.3,11.7,9.4c5.8,2.6,11.9,4.8,17.2,8.4
	c0.1,0.1,0.5-0.1,0.8-0.2L415.8,347.4z M893.2,676.8c-4.3-1.5-7.7-3-11.2-3.8c-3.5-0.8-7.2-1-10.8-1.5c-6.1-0.8-12.3-1.1-18.2-3.3
	c-3.1-1.2-6.5-1.9-9.8-2.1c-14.8-1.1-29.7-2.8-44.6-1.8c-3.3,0.2-6.7,0.7-9.9,1.5c-12,2.8-23.8,6.3-36,8.2
	c-4.2,0.6-8.3,1.7-12.3,2.8c-6.7,2-13.4,4.1-20.1,6.3c-4,1.3-7.9,3-11.8,4.4c-10.9,3.8-21.5,8.2-31.6,13.5c-0.5,0.3-1.1,0.2-1.6,0.5
	c-5.2,2.7-10.7,4.9-15.5,8.2c-6.7,4.7-14.1,8.1-20.6,12.8c-2.5,1.8-5.2,3.2-7.9,4.8c-2.6,1.6-5.4,3.1-7.9,4.8
	c-9.3,6.3-18.7,12.5-27.7,19.1c-5.4,4-10.8,8-16.7,11.3c-4.9,2.8-9.5,6-14,9.3c-5.4,4-10.4,8.6-16.8,11.3c-1.5,0.6-2.8,1.9-4,3.1
	c-3.4,3.4-7.4,5.9-11.8,8.1c-3.8,1.9-7.5,3.8-11.1,6c-11.5,7-23.9,12.3-35.8,18.6c-3,1.6-6,3.1-9.1,4.3c-9.5,3.6-19,6.8-28.5,10.5
	c-4,1.6-8.1,2.1-12.3,2.2c-5.6,0.1-11.2,0.6-16.8,0.7c-4.8,0.1-9.6,0.3-14.3,0c-10.2-0.7-20.1-2.2-28.2-9.4
	c-1.8-1.6-4.2-2.7-6.3-3.9c-4.9,3.4-9.8,6.8-14.6,10.2c-1.2,0.8-0.9,2.9,0.4,3.6c2.7,1.4,5.5,2.7,8.2,4.1c10,5.4,20.7,8.6,32.1,9.1
	c9.5,0.4,19-1.9,28.6-1c0.3,0,0.6,0,0.8-0.1c12.8-1.6,25.1-5.3,37.6-8.5c5.2-1.3,10.3-2.7,15.4-4.2c3.2-1,6.2-2.8,9.5-3.4
	c9.2-1.8,17.2-6.7,25.2-11c7.6-4.1,14.9-8.6,22.6-12.6c14.8-7.9,29.1-16.6,43.4-25.4c7.4-4.6,14.1-10.2,21.2-15.1
	c11.1-7.7,22.4-15,33.4-22.8c4.6-3.2,9.2-6.3,14.2-8.9c5.7-3.1,11.2-6.5,16.2-10.6c4.6-3.9,9.6-6.8,14.9-9.4
	c8.7-4.4,16.7-10.2,25.8-13.9c2.7-3.5,6.9-4.7,10.6-6.3c9.5-4.2,18.7-9,29-11.1c2.5-0.5,4.7-1.7,7.2-2.5c1.9-0.6,3.8-1,5.7-1.2
	c7.7-0.6,15.3-2.3,23.1-2.5c10.2-0.2,20.3-3,30.5-4.4c8.4-1.1,16.7-2.1,25.2-1.8c3.4,0.1,6.8,0.4,10.1-0.1
	c9.4-1.4,18.4,0.2,27.5,2.2C879.5,676.8,885.7,678.7,893.2,676.8z M358.3,789.3c2.6,0,4.6,0.2,6.5-0.1c1.3-0.2,2.7-0.6,3.8-1.4
	c10.8-7.3,19.7-16.5,26.8-27.4c2.9-4.4,5.1-9.4,6.8-14.4c2.9-8.4-1.2-21-8-25.8c-7.2-5.1-15.5-6.5-24.1-5.5
	c-10.3,1.2-19.4,5.6-27.4,12.1c-7.2,5.8-12.9,12.5-12.6,22.5c0,1.4-0.6,2.7-0.7,4.1c-1.2,12.7,2.9,23.1,13.2,30.8
	C347.5,787.8,352.4,791.1,358.3,789.3z M919.2,681.6c-1-0.1-1.7-0.3-2.4-0.3c-0.2,0-0.4,0.3-0.6,0.5c0.6,0.3,1.2,0.7,1.9,0.8
	C918.3,682.7,918.7,682.1,919.2,681.6z"/>
<path fill-rule="evenodd" clip-rule="evenodd" d="M415.9,347.6c1.3-3.8-0.9-7.1-1.9-10.5c-3-10.2-6.9-20.2-10-30.4
	c-1.8-5.6-2.9-11.4-4.2-17.2c-2.4-10.7-4.8-21.3-7.1-32.1c-0.7-3.4-1.7-6.4-3.5-9.4c-1.4-2.4-2.2-5.2-3-7.8
	c-2-6.7-3.9-13.4-5.9-20.3c-4.5,0.5-6.9,3.4-9.7,5.5c-2.4,1.9-4.4,4.4-6.3,6.8c-4,5-8.2,10-11.8,15.4c-4.6,6.9-7.1,14.4-5.9,23
	c0.3,1.9-1.3,4.1-1.9,5.9c-4.9,1.1-8.5,0.5-12.2-2.6c-2.4-2-6.1-2.5-9.3-3.6c-2.4-0.8-5.2-0.8-7.2-2.2c-5.7-4-11.8-3.4-17.9-2.3
	c-6.3,1.2-12.5,3.3-18.7,5.2c-5.4,1.8-10.2,4.6-13.8,9.2c-4.9,6.2-10.1,12.1-14.9,18.2c-1,1.2-1.3,3.1-1.9,4.6
	c-1.6,3.9-3,7.9-7,10.4c-3.5-0.2-5.4-1.9-5.8-5.6c-0.6-6.3-2.1-12.6-1-19c0.3-1.6,0.3-3.5-0.2-5c-2.5-9.1-0.2-17.9,1.4-26.6
	c1.5-8.3,3.9-16.4,5.9-24.6c0.3-1.3,0.9-2.7,1.5-3.9c4.9-10.7,9.8-21.4,15-32.6c-0.6-2.5-1.3-5.5-2.1-8.4c-0.4-1.5-0.4-3,1.4-3.2
	c0.8-0.1,1.9,0.8,2.6,1.4c0.6,0.5,1,1.5,1.1,2.3c0.3,4.1,5.2,4.9,6.2,8.6c0.1,0.5,2.2,1,3,0.7c1.7-0.7,3.7-1.7,4.7-3.1
	c2.7-3.6,4.7-7.7,4-12.7c-3.5-2.5-7.1-5.1-11.1-8c-1.9,1.8-4,3.6-5.9,5.5c-0.8,0.8-1.4,2-2.3,2.4c-0.8,0.4-2,0.1-3-0.1
	c-0.2,0-0.3-1.7,0.1-2.1c3.8-4.5,7.7-9,14.2-9.6c0.5,0,1.1-0.3,2.2-0.6c2,2.2,3.9,5,7.2,6c3.4,1.1,4.9,4.2,4.8,7.3
	c-0.2,7.3-3.4,13.6-8.8,18.4c-3,2.6-6.8,4-11,1.9c-0.7-0.3-1.6,0-2.6,0c-2.5,2.9-4.8,6.1-6,10c-0.5,1.6-1.2,3.2-2,4.6
	c-6.2,11-8.7,23-9.9,35.4c-0.6,6.4-1.3,12.9-1.6,19.3c-0.3,4.8-0.1,9.5,0,14.3c0,0.7,0.8,1.3,1.7,2.5c2.1-2.6,3.9-5,5.8-7.3
	c5-6.1,10.1-12.1,16.9-16.2c6.1-3.6,12.5-6.2,19.7-6.7c3.6-0.3,7.3-0.4,10.9-1.1c6-1.2,11.7,0.1,17.4,1.8c2.4,0.8,4.8,1.7,7.2,2.3
	c1.2,0.3,2.6,0.1,4.8,0.1c-2.6-5.8-4.9-10.9-7.2-16c-2.3-5.1-4.6-10.2-4.8-16c-0.1-1.9-0.7-3.9-1-5.8c-0.3-2.2-1-4.5-0.7-6.7
	c1.7-11.9,3.6-23.6,7.5-35.1c3.2-9.5,7.9-17.9,14-25.6c1.5-2,2.9-3.8,3.2-6.7c0.3-4,2.6-7.3,5.7-10.2c0.4-3.1,0.9-6.4,1.4-10.2
	c-2.4,0.3-4.5,0.1-6.2,0.9c-6.6,3-13.8,5-19.4,9.9c-2.1,1.9-4.4,3.5-6.7,5.1c-7.6,5.4-14.5,11.5-20.5,18.7c-1.3,1.5-2.6,2.9-4.1,4.2
	c-1.3,1.1-2.6,0.6-3.9-0.9c2.8-6.7,7.8-12,13.3-16.6c7-6,14.4-11.5,21.9-16.9c3.8-2.8,8.1-5.1,12.4-7c6-2.7,12.2-4.3,18.9-2.8
	c1.3,0.3,2.7,0,4.7,0c0.5-8,1-15.6-2.7-23.1c-2.1-4.3-3.3-8.9-4.9-13.4c-0.3-0.8-0.2-1.7,0-2.5c0.2-0.7,0.9-1.5,1.5-1.7
	c0.7-0.2,1.9-0.1,2.3,0.4c1,1.3,2,2.7,2.5,4.3c3,9.6,8.5,18.2,10.7,28.2c0.7,2.9,2.6,5.6,3.6,8.5c0.5,1.5,0.4,3.2,0.7,5.8
	c-1.6-0.7-2.9-0.8-3.2-1.4c-0.9-1.9-2.6-2.7-4.1-1.8c-2.6,1.5-4.7,0.3-7.3-1c-0.7,2.5-1.6,4.3-1.7,6.1c-0.2,6.1,5.4,10.6,11.4,9.2
	c5-1.2,9.4-3.9,13.3-7.1c2.5-2.1,3.5-5,2.5-8.4c-0.9-3.1-2.1-5.7-5.9-6.2c-1.1-0.1-2-1.5-3.4-2.6c1.2-1.1,1.8-2.2,2.8-2.5
	c9.3-3.1,18.2-7.6,28.2-7.9c2.8-0.1,5.6-0.2,8.4,0c9.8,0.7,19.6,1.5,29.4,2.3c9.5,0.8,19,1.8,28.5,2.7c1.1,0.1,2.2,0.5,3.3,0.8
	c11,3.4,22,6.8,33.1,10.1c8.9,2.7,16,8,22.5,14.4c3.6,3.5,7.1,7.1,10.8,10.4c2.1,1.8,4.4,3.5,7,4.6c4.3,1.9,7.4,5,10.6,8.2
	c5,5,9.1,10.6,13.2,16.3c1.6,2.2,2.6,4.3,2.1,6.9c-0.3,1.7-0.3,3.1,0.3,4.8c0.6,1.6-1.5,3-3.3,2.5c-3.2-0.9-6.4-1.8-9.6-2.7
	c-1.3-0.3-2.8-0.6-4.2-0.5c-2.9,0.1-5.5-0.8-8.1-1.8c-8.6-3.4-17.5-3.8-26.4-1.4c-3.4,0.9-7,2.6-9.7,4.9c-6,5-12,10.2-15.5,17.6
	c-1.1,2.3-2.9,4.2-4,6.5c-1.9,4-3.9,8.1-5.2,12.4c-0.7,2.2-1.4,4.9,0,7.4c0.4,0.7,0.3,2.4-0.3,2.9c-1.3,1.2-2.6,0.2-3.6-0.8
	c-2.2-2.2-4.4-4.4-6.6-6.5c-9.1-8.8-20-14.5-31.6-18.9c-2.6-1-5.3-1.9-8.2-1.2c-1.3,0.3-2.9,0.4-4.2,0.1
	c-11.3-2.4-22.4,0.9-33.6,1.2c-1.3,0-2.6,0.9-4.4,1.5c0.1,4.2,0.9,8.1,1.8,12.2c1.7,8.5,2.7,17.2,4,25.8c0.5,3,0.8,6.1,1.6,9.1
	c3.9,15.4,7.9,30.9,12.1,46.2c1.2,4.3,3.2,8.4,4.5,12.6c3,9.6,4.7,19.7,8.2,29.2c1.7,4.7,3.1,9.5,5.5,14c2.6,5,4.4,10.3,6.3,15.6
	c1.4,3.7,2.4,7.4,3.5,11.2c0.9,2.9,1.5,6,5.5,6c1.5,2.3,2.9,4.5,4.6,7.1c1.2,0,2.8,0,4.3,0c2.8,1.4,3.9,4.2,3.9,6.4
	c0,4.4,2.7,7.2,4.8,10.3c0.9,1.4,2.2,2.5,3.2,3.7c-0.7,3-1.4,5.6-2.1,8.5c-3.4,0.9-6.6,1.7-9.5,2.5c0.9,5.2,1.6,10.2,2.8,15.1
	c1.1,4.6,2.4,9.2,4.3,13.5c2.1,4.8,6.6,7.6,11.3,9.5c2,0.8,4.3,1,6.3,1.5c3.9-1.6,5.7-4.7,7.1-8.1c0-4.3-2.5-7.2-5.2-9.6
	c0.3-3.4,1.2-5.9,3.7-7.7c1.1-0.8,2-2,3-2.9c3.2-3.1,6.9-5.7,8.4-10.3c0.5-1.7,2.5-2.5,4.2-1.8c1.1,0.5,2.6,1.7,2.8,2.8
	c0.9,7,1.9,14.2-1.5,20.7c-3.9,7.4-8.2,14.7-14.6,20.5c-7,6.3-14.7,9.4-23.9,6.2c-6.6-2.3-11.6-6.7-14.3-13.3
	c-2.5-6.2-4.5-12.6-5.5-19.3c-0.7-4.9-3.6-8.7-5.7-13.2c-9.5,4.3-15.5,11.4-20.6,20.4c-1.3-1.9-2.3-2.7-2.4-3.6
	c-0.1-1.3-0.1-3,0.6-4c4.9-7,10.5-13.2,17.8-17.8c9.2-5.8,9.2-5.9,20.2-6.1c1.9,0,3.8-0.2,5.8-0.3c-0.2-2.9-1-4.5-3.5-3.6
	c-2.1,0.8-4,2.2-6.3,0.2c1.1-3.5,4.4-6.6,2-11.1c-1,0.8-1.8,1.6-2.7,2.2c-1.4,0.8-3.1,0.3-3.4-1.1c-0.8-3.2-1.4-6.4-2.3-10.7
	c-1.5,1.8-2.6,2.7-3,3.8c-0.6,1.8-0.3,4.1-1.3,5.6c-1.9,3-4.4,5.6-6.8,8.2c-0.7,0.8-1.9,1.2-2.9,1.5c-4.3,1.1-8.7,2.3-13.1,3.2
	c-4.1,0.8-7-1.4-9.5-4.2c-0.4-0.5-0.1-2.2,0.5-3c1.2-1.7,3.3-2,5.3-2.1c5.3-0.1,10.7-0.3,16-0.5c3.8-4.7,4.3-9.3,2.3-15
	c-2.9-8.5-4.8-17.3-7.2-25.9c-0.4-1.6-0.8-3.3-1.6-4.8c-2.8-5.6-4.7-11.4-6-17.5c-0.1-0.6-1.1-1.1-1.7-1.7
	C415.8,347.4,415.9,347.6,415.9,347.6z M470.4,214.5c-0.7-7.2-0.7-13.2-4.1-18.6c-8.7-13.9-18.6-26.6-31.1-37.4
	c-6.1-5.2-12.7-9.1-20.2-11.9c-5.3-1.9-10.4-4.2-15.8-6.4c-1.4,0.5-2.9,1.3-4.5,1.7c-3.6,0.7-7.3,0.8-10.7,2
	c-3.4,1.1-6.4,3.3-9.6,4.9c-3.4,1.6-7,1.8-10.7,1.6c-3.6-0.1-7.2-0.8-10.7,1.2c-2.6,1.5-5.6,2.3-9.1,3.8c-0.6,0.8-1.6,2.5-3,3.8
	c-8.9,8.2-11.9,19.5-15.6,30.3c-1.8,5.2-2.5,10.9-3.1,16.5c-0.6,5.3-1.1,10.7-0.4,15.9c1.1,7.7,2.2,15.6,6.4,22.5
	c1.3,2.1,2.4,4.6,2.7,7c0.6,3.8,3.6,7.1,2.3,11.3c-0.4,1.4,0,2.1,1.6,2c2.2-4.7,4.8-9.4,6.7-14.3c1.1-2.9,2.2-5.6,4.5-7.9
	c1.8-1.7,2.9-4.1,4.4-6.1c1.6-2.3,3.1-4.8,5.1-6.7c4.7-4.4,9.5-8.7,14.5-12.7c5.6-4.6,11.4-9,17.1-13.4c-2.3-5.2-7.1-9.1-6.3-15.4
	c0.1-0.5-0.5-1-0.7-1.5c-4-8.7-4.8-17.8-2.8-27.1c0.2-1,0-2.4,0.5-3.1c0.5-0.7,1.9-1.1,2.8-1.1c0.5,0,1.4,1.1,1.5,1.7
	c0.1,1.4-0.2,2.8-0.2,4.2c-0.4,5.5-1,11,0.3,16.5c0.8,3.3,1.6,6.5,2.6,9.7c1.7,5.2,2.8,10.8,7.2,15.2c4.1-1.7,8.1-3.1,12.3-1.9
	c0.8,0.2,1.7,0,2.5-0.2c10.3-2.5,20.6-1.7,31-0.1c5.1,0.8,9.7,2.4,14.2,4.8C457.5,208.6,463.4,211.2,470.4,214.5z M446.2,116.8
	c-4-0.2-7.3-0.4-10.6-0.5c-4.5-0.3-6,0.6-7.3,5c-1,3.5-1.4,7.1-2.4,10.6c-0.2,0.8-1.6,1.6-2.5,1.7c-0.9,0-2-0.8-2.7-1.5
	c-0.5-0.5-0.6-1.6-0.5-2.4c0.7-3.2,1.7-6.4,1.8-9.8c0-1.4,1.6-2.7,2.8-4.7c-5.4-0.6-10-0.7-14.8,0.1c-0.8,2.2-1.5,4.3-2.4,6.4
	c-0.8,2.1-2.2,2.9-3.8,2c-1.8-0.9-2.3-2.3-1.3-4.2c0.4-0.8,0.6-1.8,1.1-3.3c-6.5,0.7-12.5,0.4-17.3,4.5c0.8,2.7,1.6,5,2.3,7.5
	c2.9,2.2,5.9,4,9.7,4.6c1.6,0.3,3.2,0.9,4.8,1.6c7,2.9,13.9,6.1,20.9,8.8c3.8,1.4,7,3.3,10,6c4.5,4.2,9.3,8.2,13.9,12.3
	c1.5,1.3,3,2.7,4.1,4.3c6.4,9.2,14.3,17.3,19.2,27.5c2.5,5.3,6,10,6.4,16.2c0.2,2.6,1.4,5.3,4.8,6.3c1.7-3.3,3.4-6.2,4.8-9.2
	c4-8.9,10.4-16.1,17.8-22.1c5.9-4.8,12.8-7.9,20.6-8.9c9.1-1.2,17.9-0.3,26.8,1.4c1.2,0.2,2.5,1.4,3.8-0.7c-1.8-2.3-3.9-4.6-5.6-7.1
	c-4.2-6.1-9.5-11.1-15.1-15.7c-5.4-4.4-10.7-9-15.9-13.7c-2.3-2.1-5-3.5-7.6-5.1c-9.8-6.1-21.2-7-31.6-11c-1.3-0.5-2.8-0.3-4.2-0.6
	c-3.9-0.9-6.6,0.7-8.4,4c-2,3.7-4,7.4-5.5,11.3c-2.1,5.2-3.8,10.5-5.8,15.8c-0.2,0.5-1.4,1-2.1,0.9c-0.7-0.1-1.4-0.9-1.8-1.6
	c-0.3-0.7-0.3-1.6-0.2-2.4c1.2-8.1,4.2-15.6,8.5-22.6c1.4-2.3,3.6-4.2,4-7.6c-2.5-0.5-4.7-0.9-6.8-1.4c-2.4-0.6-4.7-1.9-7.7-0.5
	c-3.1,7.7-8,15-7.5,24.6c-2.2-0.3-4,0-5.2-0.8c-1.7-1.1-2.4-3.1-1.6-5.2c1.3-3.4,2.5-6.8,4.2-9.9
	C442.3,124.1,444.6,120.9,446.2,116.8z"/>
<path fill-rule="evenodd" clip-rule="evenodd" d="M586.6,482.9c1.5-2.9,3.7-3.7,6-3.7c6.4-0.1,12.9-0.5,19.3,1.3
	c4.8,1.3,10,1.4,15,2c5.8,0.6,11.7,0.4,17.5,2.2c3.5,1.1,7.3,0.7,10.1-2c-0.5-5.1-1-10.1-1.6-15c-0.4-3.5,0.7-6.8,2.5-9.6
	c2.5-4,4.9-8.2,8.5-11.4c1.1-0.9,2.2-1.8,3-3c0.5-0.8,0.8-2.3,0.4-3c-0.4-0.8-1.9-1.5-2.8-1.3c-3.5,0.6-7,1.6-10.7,2.5
	c-0.2,3.2-0.5,5.8-0.7,8.5c-2.8,0.7-3.1-1.1-3.4-2.7c-0.7-4.4-1.2-8.9-2-13.3c-0.2-1.3-0.9-2.7-1.5-3.9c-0.2-0.4-0.9-0.5-1.6-0.9
	c-2.6,1.6-3.4,4.2-3.5,7c-0.2,3.1-0.3,6.2-0.1,9.3c0.4,5.6-1.3,9.7-7.7,11.1c2.6,4.5,4.9,8.6,7.3,12.8c-0.6,2.4-2.6,2.7-4.5,3.1
	c-2.8,0.5-5.6,0.5-8.3,1.3c-4.8,1.3-8.9,0.8-12.5-3.7c-0.4-3.1-0.9-6.6-1.2-10.2c-0.5-5.7-2-11-4.5-16.1c-2.3-4.8-4.3-9.7-6.3-14.6
	c-1.3-3.1-2.4-6.9-6.3-7c-4-0.1-6.5,3.2-7.9,6.6c-2.1,5.1-4.6,10.2-3.6,16.2c0.7,4.2-0.6,8.4-4.6,11.1c-5.4,1.1-8.8-2.5-12.2-5.6
	c-5.3,1-10.7,0.9-15.9,3.9c-0.6-1.9-1.3-3.1-1.2-4.3c0.2-2.2,0.8-4.4,1.3-6.8c-0.8-0.4-1.4-0.9-2.2-1.1c-6.7-1.4-8.5-4.2-5.4-9.8
	c3.7-6.6,8.5-12.6,14.6-17.1c1.9-1.4,4.7-1.4,7.2-2c2.5-7.9,5.2-16.1,7.9-24.4c-7.2-6.5-12.3-15.3-19.9-22.4
	c-3.5,1.2-5.6,4.3-8.2,6.7c-2.5,2.2-4.9,4.6-7.7,7.2c-4.2-1.7-8.1,2.3-12.7,1.2c-0.8-0.2-1.7,0.1-2.5,0c-2-0.2-3.4-3.2-1.9-4.5
	c2.4-2.3,4.9-4.6,7.7-6.3c11.6-6.9,23.1-13.9,33.9-22c6.3-4.7,12.4-9.8,18.4-14.9c4.2-3.5,8.8-6.3,13.8-7.9
	c8.1-2.6,14.7-8.1,23.2-10.6c-0.8-4.1-1.4-7.6-2.2-11.5c-7.4-3-14.9-4.9-23.3-4.6c-11,0.3-21.7,2.1-32.7,5.4c-0.9,1-2.3,2.4-3.4,4
	c-3.5,5.2-8.6,6.8-14.5,7c-7,0.2-13.9,0.8-20.8,2c-1.8,0.3-3.1,0.9-4.1,2.4c-0.8,1.1-2,1.9-3,3c-9,9.9-20.4,13.4-33.4,12.9
	c-1.4-0.1-2.8,0-4.2,0c-14.4-0.4-22.8-6.1-27.1-19.7c-3.2-10.2-4.1-20.9-1.6-31.6c1.5-6.4,5.3-11.7,8.9-17.1c0.9-1.4,2-2.6,3.1-4
	c-1-1.7-2.5-3.3-2.8-5.1c-1.4-7.4-6.5-12.2-12.4-15.2c-8.2-4.2-17.3-7.2-26.7-2.7c-3.3,1.6-6.6,3.1-10.9,1.2c-1.4,2-2.7,3.8-4.2,5.9
	c-0.9-1.3-1.6-1.9-1.8-2.6c-0.6-2-0.5-4,1.3-5.3c5-3.7,9.9-7.4,15.9-9.4c3.1-1,6-1.3,9.1-0.6c6,1.4,12,2.7,18.1,4.1
	c5.6-3.5,9.4-9.9,17.2-10.8c0.7,1.7,1.3,3.4,1.9,4.9c-0.7,0.7-1,1.3-1.4,1.5c-2.2,1.2-4.6,2.1-6.8,3.4c-1.8,1.1-3.4,2.7-4.8,3.8
	c0,3.7,2.7,4.8,4.4,6.5c3.3,3.2,6.1,6.6,7.1,11.2c0.4,1.8,0.6,3.6,1,5.9c1.6-0.5,3.2-0.8,4.7-1.4c5.4-2.1,11-2.3,16.6-1.3
	c6.6,1.2,13.5,1.6,19.4,5.4c1.6,1.1,3.3,0.3,4.6-0.9c0.6-0.5,1-1.3,1.5-2c4.1-5.8,9-10.8,15.7-14.2c0.3-2.7,0.9-5.5,1-8.2
	c0.3-9.8-10.5-22.4-23-20.8c-3,0.4-5.6-0.1-8-1.6c-0.8-0.5-1.4-1.9-1.4-2.8c0-0.9,0.9-2.2,1.7-2.5c7.9-3.2,15.4-2.1,22.5,2.3
	c0.9,0.6,1.7,1.6,2.6,2.1c9.8,5.7,12,14.9,12,25.2c0,1.7,0,3.3,0,5.5c2.5,0.7,5.2,1.4,7.7,2.3c2.6,1,5.1,2.5,7.7,3.5
	c9.9,3.9,14.7,11.6,16.1,21.7c0.6,4.2,0.6,8.4,1,12.6c0.1,1.3,0.6,2.7,0.8,3.6c5.8,4.3,11.9,5,18.6,3.9c4.4-0.7,9-1.1,13.4-0.7
	c3.5,0.3,7,1.8,10.4,3c1.5,0.5,2.9,1.4,5,2.4c0.5-1.3,1.2-2.2,1.3-3.2c0.4-3.3,2.3-5.5,4.8-7.6c6.5-5.6,10.1-9,21.7-1.6
	c2.1,1.4,4.3,2.6,6.4,4.1c2.9,2.1,3.8,5,4,8.7c0.6,10.1-5,16.3-12.7,20.9c-3.6,2.1-7.8,3.2-11.7,4.7c-1.3,0.5-3,1.1-4.1,0.6
	c-5.2-1.9-9.4,0.7-13.6,2.8c-6.7,3.5-13.4,7.2-19.9,11c-4.8,2.8-9.7,5.6-14.2,8.9c-5.4,4-10.4,8.5-15.9,13.1
	c4.5,8.1,9.1,15.6,16.2,21.4c2.2,1.8,4.4,3.2,7.4,3.7c4.2,0.7,8.3,1.7,12.3,2.9c4.5,1.3,6.8,5.1,5.6,9.8c-1,4-2.7,7.9-4.2,12.3
	c2.3,3.2,4.6,7.1,7.4,10.5c4,4.9,6.6,10.4,8.6,16.3c1.6,4.7,4.2,9.2,4.6,14.3c0.1,1.1,0.5,2.2,0.3,3.2c-0.6,2.9,0.6,4.9,2.7,6.6
	c2.1,1.7,4.2,3.5,7.1,5.9c0-1.7,0.2-2.4,0-3c-0.5-1.3-1.4-2.5-1.7-3.8c-1.9-6.8-0.7-9.1,6.2-12.5c1.1-3.7,1.4-7.5,1.2-11.4
	c-0.2-4.5,0.9-8.9,4.6-12.2c3.2-2.8,7-2.5,9.2,1.2c0.9,1.4,1.6,3,2.2,4.5c0.6,1.6,0.9,3.2,1.3,4.8c3.7,2.2,6.5-0.5,9.5-1.5
	c4.4-1.4,7.9,0.4,9.1,4.7c1,3.8,0.5,7.3-2,10.3c-0.7,0.9-1.7,1.5-2.3,2.5c-2.2,3.2-4.4,6.5-6.4,9.8c-2.2,3.7-1.4,7.6-0.9,11.5
	c0.4,3.1,0.7,6.2,1.4,9.1c0.8,3.5-1,5.9-2.7,8.5c-2.1,3.1-4.9,4.4-8.7,3.9c-7.2-1-14.4-1.9-21.6-2.9c-9.5-1.3-18.9-3.1-28.4-3.8
	c-4-0.3-7.7-0.8-11.4-2.3C588,484.6,587.5,483.8,586.6,482.9z M453.3,295c0.5,3.8,1.7,8.3,1.6,12.7c-0.2,5.8,2.5,10.3,5.2,14.8
	c1.9,3.2,4.8,5.3,8.5,6.4c11.5,3.3,22.8,2.6,33.5-2.6c3.7-1.8,7-4.3,10-7.5c6.4-7,9.1-15.2,9.9-24.3c0.5-6.1-2.2-11.4-5.7-16.3
	c-0.6-0.9-1.6-1.7-2.6-2.1c-4.1-1.7-8.3-3.3-12.6-4.7c-3.2-1-6.6-1.3-9.7-2.4c-4.2-1.4-8.3-1.5-12.4-0.1c-5.8,2.1-11.4,4.7-16,9.1
	c-2,1.9-4.1,3.8-6.3,5.5c-1.7,1.3-2.6,2.8-2.7,4.9C453.9,290.5,453.6,292.4,453.3,295z M525.1,308.5c3.5,3.5,7.3,2.3,10.8,2.4
	c10.3,0.2,18.4-3.2,23-13.4c2.1-4.7,4-9.2,3.3-14.4c-0.2-1.9-0.2-3.9-0.5-5.9c-2-10.5-6.3-19.1-17.5-22.4c-2.9-0.9-5.7-2-8.2-2.9
	c-8.7,4.5-13,12.9-20.1,18.7C527.4,281.3,530.3,293.8,525.1,308.5z M577.9,450.6c1.8-3.4,1.7-3.4,1.5-5.2c-0.4-3.6-1.3-7.4-0.7-10.9
	c1.2-7.3,2.1-15.1,9.6-19.4c0.7-0.4,1.4-1.2,1.5-1.9c0.3-3.6,3.2-5.8,4.7-8.8c1.1-2.2,1.9-4.6,2.5-7c0.4-1.5-0.7-2.9-2.1-3.2
	c-2.4-0.4-5-0.5-7.5-0.3c-2.2,0.2-4.3,1.1-6,1.6c-8.3,5.9-7.7,16-11.5,24.1c-5-0.4-9.2,0.9-12.5,4.4c-3,3.3-6.6,6.2-7,11.1
	c2.9,1,5.5,1,7.8-1.4c1.5-1.5,3.3-1.9,5.5-0.2c-0.7,1.4-1.2,3-2,4.4c-0.7,1.2-1.7,2.2-2.4,3.5c-0.7,1.3-2.5,2.4-1.1,4.6
	c4.6-1.4,9.3-2.8,14.9-4.4C574,445,573.6,449.4,577.9,450.6z"/>
<path fill-rule="evenodd" clip-rule="evenodd" d="M240.6,494.5c1.7-4,3.1-7.6,4.9-11.1c1.7-3.4,3.7-4.1,7.7-3.5
	c15.9,2.3,31.3,6.4,46.6,11c14.5,4.4,28.7,9.5,43.2,14c10.2,3.2,20.5,5.8,30.7,8.9c9.4,2.8,18.7,5.9,28,8.9c6.4,2,12.6,4.8,19.5,4.8
	c2.4,0,5,0.9,7.3,1.9c6.2,2.6,12.8,4,19.3,5.6c13,3.3,26.2,6.4,39.4,9.1c7.2,1.5,13.2,4.4,17.5,10.5c0.3,0.4,0.4,1,0.6,1.5
	c0.1,0.3,0,0.6-0.1,1.4c-4.9-0.8-9.7-1.7-14.4-3.3c-8-2.7-15.9-5.6-24-7.8c-6.5-1.8-13.2-2.4-19.7-4.1c-11.1-2.9-22.2-6-33.1-9.4
	c-11.2-3.5-23-5.3-34.4-8.1c-7-1.7-14.1-3.7-20.9-6.2c-6.7-2.5-13.5-3.7-20.4-5c-10.2-2-20.6-3.2-30.7-5.5c-8-1.9-15.9-2.5-24.1-3
	c-9.5-0.6-19-1.4-28.6-1.5c-3,0-5.4-0.7-7.4-3.1C245.7,498.4,243.4,496.9,240.6,494.5z"/>
<path fill-rule="evenodd" clip-rule="evenodd" d="M352.7,551.3c1-0.3,2.4-0.9,3.7-0.8c3.6,0.1,7.3,0.2,10.9,0.9
	c11.3,2.1,22.6,3.8,33.9,5.7c14.4,2.5,28.2,7.5,42.5,10.5c7.6,1.6,14.9,5,22.3,7.5c9.8,3.4,19.6,6.7,29.9,8.4
	c3.6,0.6,7,1.9,10.5,3.2c1.2,0.4,2.2,1.5,3.7,2.6c-1.7,2-3.2,3.6-4.4,5c-0.9,0-1.5,0.2-2,0.1c-10-2.9-19.8-6.1-29.9-8.7
	c-16.5-4.3-33.1-8.7-49.8-12.3c-18.4-3.9-37-6.2-55.7-8.2c-3.1-0.3-6-0.8-9,0.6c-2.3,1-4.6-0.3-5.3-2.7
	C353,559.3,350.9,555.7,352.7,551.3z"/>
<path fill-rule="evenodd" clip-rule="evenodd" d="M384.7,0c0.8,4.5,1.2,7.1,1.7,9.8c1.2,6.9,2.5,13.7,5.5,20.1
	c2.4,5.1,3.5,10.4,2.9,16.1c-0.7,6.5-5.5,11.5-12.2,11.2c-5-0.2-10.1-0.7-15-1.9c-8.7-2.2-12.9-10.7-9.3-19.1
	c1.9-4.3,4.3-8.6,7.6-11.9c5.7-5.6,9.5-12.3,13.7-18.9C380.7,3.9,382.2,2.7,384.7,0z M380,21.4c-4.9,0.3-5.1,0.2-6.8,2.2
	c-2.5,2.9-4.8,6.1-7.1,9.1c-2.7,3.4-3.2,10.8-0.7,14.2c1,1.3,2.4,2.7,3.9,3c5.2,1.1,10.5,2.3,15.8,0.9c1.5-0.4,2.8-1.6,4.4-2.6
	C386,39.4,385.4,30,380,21.4z"/>
<path fill-rule="evenodd" clip-rule="evenodd" d="M633.7,234.5c-2.6,0-5.3,0-7.9,0c-4.2-4.4-5.5-9.3-5.1-14.9c0.4-5,0.1-10.1,0.9-15
	c0.7-4.6,2.4-9.2,3.8-13.7c1.5-5,3.1-9.9,4.7-15c3.5-0.2,4-0.1,3.6,2.1c-0.3,1.9,0.2,3.1,1.1,4.6c3.6,6.4,8.9,11.5,14,16.7
	c3.7,3.8,4.7,8.1,4.6,13c0,1.1,0,2.5-0.6,3.2c-2.7,3.6-5.4,7.2-8.6,10.3C641.1,229.1,637.3,231.6,633.7,234.5z M632.2,190.5
	c-1.5,3-3.5,5.4-3.8,7.9c-0.7,6.3-1.3,12.8-0.1,19.2c0.2,1.1,0.3,2.2,0.6,3.2c0.8,2.7,3,4.1,5.8,3.8c1.3-0.1,2.7-0.6,4-1.2
	c5.2-2.3,8.1-6.6,9.9-11.6C645.6,202.9,639.8,195.3,632.2,190.5z"/>
<path fill-rule="evenodd" clip-rule="evenodd" d="M420.6,599.8c2.1,0.2,4.1,0.2,6,0.6c11.8,2.4,23.5,4.9,35.2,7.5
	c5.5,1.2,11,2.2,16.4,3.7c3,0.8,4,5.8,1.7,7.7c-2.2,1.7-4.6,3.2-7.7,2.5c-1.1-0.3-2.2-0.6-3.2-0.9c-4.6-1.3-9.2-2.6-13.7-4
	c-8.3-2.7-16.7-4.8-25.4-5.1c-5.4-0.2-9.2-3.8-13.7-5.6c-0.7-0.3-1.1-2.5-0.9-3.7c0.1-0.8,1.3-1.7,2.3-2.1
	C418.4,599.7,419.6,599.8,420.6,599.8z"/>
<path fill-rule="evenodd" clip-rule="evenodd" d="M612.2,507.4c-0.8-2-1.4-3.5-2.2-5.6c1.4-0.8,2.7-2.3,4.1-2.2
	c8.7,0.2,17.3-0.4,26-0.1c5.9,0.2,11.8,0.5,17.6,0.8c5.6,0.3,11.2,0.5,16.6,2.5c1.8,0.7,3.8,1.3,3.6,4.6c-1.2,0.9-2.7,2-4.3,3.1
	c-0.8-0.2-1.6-0.3-2.4-0.6c-1-0.4-2-1.2-3.1-1.3c-11.4-0.5-22.9-1.2-34.3-1.1C626.9,507.7,619.9,508.1,612.2,507.4z"/>
<path fill-rule="evenodd" clip-rule="evenodd" d="M235.5,221.5c-1.4,4.5-4.3,5.3-6.6,6.8c-6.2,4-11.3,8.9-15.2,15.4
	c-2.2,3.7-1.4,7.7-3.6,11.4c1.9,2.6,3.6,5.2,5.7,7.4c1.2,1.3,3.1,1.3,4.6,0c2.5-2.3,4.6-4.9,4.9-8.5c0.2-2.8,0.5-5.6,0.8-8.4
	c0.5-5.2,0.7-5.9,4.7-12.4c0.4,0.9,0.9,1.6,0.9,2.2c-0.4,4.4-0.8,8.9-1.5,13.3c-0.6,3.6-1.4,7.1-2.3,10.7c-0.3,1.1-0.7,2.1-1.3,3.1
	c-5.1,8.1-12.3,7.3-17.1,1.1c-3.6-4.7-4.8-9.1-2.7-14.8c2.6-7,6.3-13,11.9-18c3.6-3.1,7-6.4,11.3-8.6
	C231.4,221.5,233.2,221.8,235.5,221.5z"/>
<path fill-rule="evenodd" clip-rule="evenodd" d="M279,141.4c0.1-2.5,0.1-5,0.4-7.5c0.5-4.2,2.6-7.3,6.4-9.1
	c6.2-2.9,12.3-3.5,18.3,0.4c1.9,1.3,2.4,3,1.9,5.1c-0.7,2.4-1.5,4.8-3.7,6.4c-2.2,1.7-4.3,3.6-6.5,5.2c-4.4,3.1-8.2,6.6-10.2,11.9
	c-0.4,1-2.1,1.9-3.2,1.9c-1.5,0.1-2.3-1.2-2.5-2.8c-0.5-3.8-1-7.6-1.5-11.4C278.6,141.5,278.8,141.4,279,141.4z M285.1,145.5
	c6.1-4.5,10.1-9.8,14.4-14.7c0.2-0.3-0.1-1-0.2-1.6C289.8,126.4,282.1,133.9,285.1,145.5z"/>
<path fill-rule="evenodd" clip-rule="evenodd" d="M232.6,189.9c1.4-0.8,2.6-0.5,3.8,1.2c-1.1,1.3-2.4,2.6-3.4,4
	c-1.1,1.6-2.1,3.3-2.8,5.1c-0.8,1.8-1.2,3.7-1.7,5.6c-1.5,6-6,10-9.7,14.5c-1.3,1.6-3.7,1.1-5.1-0.7c-2.7-3.5-3.3-7.7-3.3-11.8
	c0-5.7,2.9-10.7,5.6-15.6c0.8-1.4,2.2-2.7,3.6-3.4c4.7-2.4,9.6-4.6,14.5-6.7c0.7-0.3,1.9,0.5,2.7,1.1c0.2,0.1-0.3,1.6-0.8,2.1
	c-1,0.9-2.4,1.5-3.3,2.5c-0.4,0.4,0,1.5,0.1,2.2c-0.8-0.3-1.6-1-2.2-0.8c-1.8,0.5-3.5,1.8-5.4,2.1c-3.5,0.6-5.4,2.9-6.7,5.7
	c-2,4.3-3.6,8.8-3.4,13.7c0.1,1.3,0.1,2.9,2.3,3.2c4.2-3.6,6.5-8.8,8.6-13.8C227.7,196.2,229.9,192.9,232.6,189.9z"/>
<path fill-rule="evenodd" clip-rule="evenodd" d="M686.4,521.3c0,1.9,0,3.4,0,4.9c-0.8,0.3-1.3,0.7-1.8,0.7
	c-8.9-0.1-17.9,0.1-26.8-0.6c-3.9-0.3-7.8-0.2-11.6,0.1c-2.8,0.3-5.6,0.1-8.4-0.1c-2.4-0.2-3.5-1.6-3.4-3.9c0.1-2,1.1-3.2,3-3.4
	c5-0.3,10-0.8,15-0.7c6.4,0.1,12.8,0.5,19.1,1C676.1,519.7,680.7,520.5,686.4,521.3z"/>
<path fill-rule="evenodd" clip-rule="evenodd" d="M246.6,164.4c-5.3,1.3-8.8,2.3-12.3,2.9c-3.8,0.7-7.7,1.2-11.6,1.4
	c-1.9,0.1-3.9-0.5-5.7-1.2c-6-2.3-8.6-7.1-7-13.3c0.5-2.1,1.5-4.2,2.7-6.1c2.1-3.4,7.2-4.4,10.3-1.7c3.6,3.1,6.9,6.6,9.8,10.4
	c2.5,3.3,5.2,5.7,9.6,5.8C243.3,162.6,244.2,163.4,246.6,164.4z M230.2,163.3c-1.2-4.8-4.6-7.5-7-10.8c-1-1.3-2.4-2.4-4.3-1.9
	c-2,0.6-3.2,2.1-3.7,4.2c-0.8,3.3,0.7,6.3,3.9,7.4C222.5,163.3,225.9,164.7,230.2,163.3z"/>
<path fill-rule="evenodd" clip-rule="evenodd" d="M457.4,653.6c0.5,2.9-1,5-3.3,5.1c-3.8,0.3-7.6,1.7-11.6,0.4
	c-6.1-1.9-12.4-3.3-18.6-4.8c-0.3-3.8-0.3-3.8,3-8.6C437.5,645.8,448.1,647.2,457.4,653.6z"/>
<path fill-rule="evenodd" clip-rule="evenodd" d="M262.8,218.5c8.7,0.6,16.7,0.8,24.6,3.4c4.1,1.4,8.8,0.8,13.2,1.1
	c2.2,0.1,4.6-0.4,6.3,1.5c0.5,0.6,0.9,1.5,0.8,2.2c-0.1,0.7-0.9,1.4-1.5,1.7c-0.7,0.4-1.6,0.4-2.5,0.4c-1.7,0-3.4-0.1-5-0.4
	c-4.7-0.7-9.4-1.2-14.1-2.2c-6.1-1.4-12.2-1.5-18.4-1.6C263.3,224.5,262.9,223.9,262.8,218.5z"/>
<path fill-rule="evenodd" clip-rule="evenodd" d="M263.1,142.5c-0.4,6.2-0.7,10.9-1.1,15.6c-0.2,1.7-2.4,2.7-3.9,1.8
	c-1.4-0.8-3.4-1.7-3.9-3c-1.6-3.8-4.9-6.1-7.4-9c-1.7-2.1-1.5-4.4,0.7-5.8c2.6-1.6,5.3-3.1,8.1-4.5c3.7-1.8,6.5-0.2,7.4,3.9
	C263.1,142.4,263.2,143.2,263.1,142.5z M252.2,145.4c1.5,3.1,2.4,5.3,5.6,6.1c-0.2-3-0.3-5.4-0.5-8.4
	C255.4,144,254,144.6,252.2,145.4z"/>
<path fill-rule="evenodd" clip-rule="evenodd" d="M300.9,239.5c-1.1,0.7-2.2,1.4-3.3,2.1c-0.2,0.1-0.6,0-0.8-0.1
	c-12.6-4.4-25.8-4.9-38.9-6.7c-0.5-0.1-1.2-0.2-1.5-0.5c-0.5-0.6-1.1-1.4-1.1-2c0.1-0.7,0.8-1.4,1.5-1.9c0.4-0.3,1.1-0.3,1.6-0.2
	c11.1,1.7,22.2,3.1,33.3,5.2C294.7,235.9,298.5,235.9,300.9,239.5z"/>
<path fill-rule="evenodd" clip-rule="evenodd" d="M293,252.3c-3.5,2.7-6.6,2-9.5,1.1c-8.6-2.8-17.4-3.7-26.3-4c-1,0-2.3-0.4-3-1.1
	c-0.6-0.6-0.9-1.9-0.8-2.9c0-0.6,0.9-1.6,1.5-1.7c1.3-0.3,2.8-0.4,4.1-0.1c6.5,1.2,13.1,2.3,19.6,3.9c4,1,7.9,2.7,12.1,3
	C291.4,250.4,291.9,251.3,293,252.3z"/>
<path fill-rule="evenodd" clip-rule="evenodd" d="M303.6,212.3c-1.5,0.3-3.1,1.1-4.5,0.9c-5-0.6-9.9-1.4-14.8-2.4
	c-1-0.2-2.4-1.6-2.6-2.6c-0.3-1.7,1.5-2.1,2.8-2.4c5-1,9.8-0.5,14.3,2c1.7,0.9,3.3,1.8,5,2.7C303.8,211.2,303.7,211.8,303.6,212.3z"
	/>
<path fill-rule="evenodd" clip-rule="evenodd" d="M323.3,170.5c-5.9-1.2-11.3-2.3-16.8-3.4c-0.8-0.2-1.7-0.5-2.2-1
	c-0.5-0.5-1-1.5-0.9-2.1c0.1-0.7,0.8-1.7,1.4-1.8c1.6-0.4,3.4-0.8,4.9-0.5c3.8,0.8,7.6,1.8,11.3,3c1.1,0.4,2,1.8,2.6,3
	C323.9,168.4,323.4,169.6,323.3,170.5z"/>
<path fill-rule="evenodd" clip-rule="evenodd" d="M317.8,178.9c-2.3,1.7-3.6,3.3-4.8,3.3c-4.7,0-9.4-0.4-14.1-0.9
	c-2-0.2-3.1-1.9-2.7-3.5c0.4-1.6,1.7-2.1,3.1-2.2C305.2,175.2,310.8,176.2,317.8,178.9z"/>
<path fill-rule="evenodd" clip-rule="evenodd" d="M288.5,195.3c1.6-0.9,3.1-2.5,4.8-2.7c4.9-0.4,9.9-0.4,14.8-0.1
	c2.1,0.1,3.4,1.8,2.6,4.6c-6.9,1.1-14,0.8-21.1-0.1C289.3,197,289.1,196.2,288.5,195.3z"/>
<path fill-rule="evenodd" clip-rule="evenodd" d="M264.3,257.3c-1.1,2.7-1.6,4.1-2.2,5.5c-5.3,0.7-5.3,0.7-10.4-1.8
	C254.5,256.4,258.7,256.8,264.3,257.3z"/>
<path fill-rule="evenodd" clip-rule="evenodd" d="M552.7,333.3c3.2,0.3,5.7,4,4.6,6.2c-0.4,0.8-1.6,1.8-2.4,1.8
	c-1.5,0-3.2-0.5-4.6-1.1c-1.7-0.8-2-2.7-0.7-4.2C550.6,334.8,551.9,333.9,552.7,333.3z"/>
<path fill-rule="evenodd" clip-rule="evenodd" d="M326.3,156.7c-2.9-0.3-5.9-0.6-8.6-0.9c-1-4.4-0.1-6.1,3-6
	c1.1,0.1,2.2,0.3,3.3,0.6C327.6,151,327.8,151.7,326.3,156.7z"/>
<path fill-rule="evenodd" clip-rule="evenodd" d="M530.9,347.1c-1.5-0.2-2.5-0.2-3.5-0.4c-1.7-0.3-3.4-1.1-3.3-3
	c0.2-2,1.6-3.4,3.7-3.9c1.6-0.4,3.6,0.7,3.7,2.3C531.6,343.6,531.1,345.2,530.9,347.1z"/>
<path fill-rule="evenodd" clip-rule="evenodd" d="M533.7,328.8c0.7-0.6,1.2-1.3,2-1.7c2.4-1.2,3.8-1,5.1,0.6
	c1.1,1.3,0.5,3.4-1.4,4.9c-2,1.5-3.9,1-5.2-1.5C533.8,330.5,533.9,329.6,533.7,328.8z"/>
<path fill-rule="evenodd" clip-rule="evenodd" fill="#FFFFFF" d="M453.3,295c0.3-2.6,0.6-4.5,0.7-6.5c0.1-2.1,1-3.6,2.7-4.9
	c2.2-1.7,4.3-3.6,6.3-5.5c4.6-4.4,10.2-7,16-9.1c4.1-1.4,8.2-1.4,12.4,0.1c3.1,1.1,6.6,1.4,9.7,2.4c4.3,1.4,8.4,3,12.6,4.7
	c1,0.4,2,1.2,2.6,2.1c3.5,4.8,6.3,10.1,5.7,16.3c-0.8,9-3.5,17.3-9.9,24.3c-3,3.2-6.2,5.7-10,7.5c-10.8,5.2-22,5.9-33.5,2.6
	c-3.7-1.1-6.6-3.2-8.5-6.4c-2.8-4.5-5.4-9-5.2-14.8C455.1,303.3,453.9,298.9,453.3,295z M496.1,287.6c-0.4,2-0.7,3.3-0.9,4.7
	c-0.3,3.5,2.5,6,5.7,4.8c3-1.1,5.5-3.1,6.1-6.4c0.6-3.1-1-5.3-4-6.8C500.9,285.1,498.7,286.3,496.1,287.6z"/>
<path fill-rule="evenodd" clip-rule="evenodd" fill="#FFFFFF" d="M525.1,308.5c5.2-14.7,2.3-27.2-9.2-37.9
	c7.1-5.8,11.3-14.2,20.1-18.7c2.5,0.9,5.3,2.1,8.2,2.9c11.2,3.3,15.5,11.9,17.5,22.4c0.4,1.9,0.3,3.9,0.5,5.9
	c0.7,5.2-1.1,9.7-3.3,14.4c-4.6,10.2-12.7,13.5-23,13.4C532.4,310.8,528.6,312,525.1,308.5z M545.9,268.6c-5.8,0-8.3,2.7-7.9,8.3
	c0.1,1.9,1.2,3.1,2.9,3.7c4,1.5,7.1-0.2,9.3-4.8C552.3,271.4,550.6,268.6,545.9,268.6z"/>
<path fill-rule="evenodd" clip-rule="evenodd" d="M341.2,242.5c-4.5-2.9-6.5-7.1-7.8-12c-2.5-9.4-1.5-18.9-1.4-28.4
	c0.1-5.2,1.5-10.6,3.2-15.6c2.2-6.9,5.1-13.6,8-20.3c0.9-2,2.3-3.8,3.8-5.4c0.4-0.5,2.1-0.2,3,0.2c0.4,0.2,0.6,1.4,0.6,2.1
	c0,0.5-0.3,1.1-0.7,1.5c-7.8,8.7-10.4,19.6-12.6,30.6c-0.8,4.1-2.6,8.1-0.9,12.4c-2.1,3.6-1.4,7.4-0.8,11.2
	c0.6,3.5,0.9,7.2,1.1,10.7c0.2,3.5,1.8,6.4,4.1,8.9C341.8,239.5,342.5,240.7,341.2,242.5z"/>
<path fill-rule="evenodd" clip-rule="evenodd" d="M356.7,225.6c-3.1,1.1-4.9-0.4-6.1-2.2c-5.7-8.6-6.8-18.4-5.1-28.1
	c1.4-8.2,4.6-16.1,7.1-24.1c0.6-2,1.6-3.5,4.6-3.2c-0.1,1.3,0,2.7-0.3,3.9c-1,3.5-1.9,7.1-3.4,10.3c-2.9,6.3-3.2,13-4.1,19.7
	c-0.6,4.1,2,8.1,0.6,12.4c-0.3,0.8,0.8,2,1.4,3C353,220,354.8,222.7,356.7,225.6z"/>
<path fill-rule="evenodd" clip-rule="evenodd" d="M410.6,196.1c-2.7,2.1-4.7,1.6-6.4-0.1c-4.1-4.3-7.3-9.3-8.3-15.1
	c-1.3-7.1-1.9-14.3-2.8-21.5c-0.1-1.1-0.2-2.5,0.4-3.2c0.8-1,2.3-2,3.3-1.9c0.9,0.1,2.3,2,2.2,2.9c-0.6,6.7,0.1,13.1,1.3,19.7
	c0.6,3.4,0.2,6.6,2.5,9.9C406.3,192,405.8,192.3,410.6,196.1z"/>
<path fill-rule="evenodd" clip-rule="evenodd" d="M430.4,195.4c-2.3,1.7-4.1,1-5.7-0.4c-4.1-3.5-7.6-7.6-9.6-12.6
	c-2.7-6.7-4.6-13.6-6.7-20.5c-0.4-1.3-0.6-2.8-0.3-4.1c0.2-0.9,1.3-1.9,2.2-2.1c0.8-0.1,2.4,0.6,2.6,1.3c1.7,5.3,3.4,10.6,4.6,16.1
	c1.8,8,5.1,15.1,11.9,20.3C429.7,193.7,429.9,194.4,430.4,195.4z"/>
<path fill-rule="evenodd" clip-rule="evenodd" d="M370.4,162.6c-5.4,15.5-6.2,30.7-2.9,47c-1.6-0.6-2.9-0.7-3.2-1.3
	c-1.4-3.3-2.8-6.5-2.9-10.4c-0.1-6.4-1.6-12.8,1.6-18.9c0.5-1-0.1-2.7-0.3-4.1c-0.3-4.1,1-7.7,2.7-11.3
	C366,162.5,366.7,162.4,370.4,162.6z"/>
<path fill-rule="evenodd" clip-rule="evenodd" d="M449.4,200.9c-1.3-0.8-3-1.3-3.8-2.5c-3.1-4.3-6.3-8.6-8.9-13.2
	c-2.5-4.3-4.3-9-6.3-13.6c-0.2-0.5-0.6-1.2-0.4-1.6c0.5-0.9,1.1-1.9,1.9-2.4c0.4-0.3,1.6,0.2,2.2,0.6c0.6,0.5,1.1,1.2,1.5,2
	c1.6,3.2,3.2,6.4,4.8,9.7c1.7,3.4,3.7,6.7,4.9,10.4c1.1,3.3,3.5,6.2,5.3,9.3C450.2,200,449.8,200.5,449.4,200.9z"/>
<path fill-rule="evenodd" clip-rule="evenodd" d="M526.5,157.3c-2.3,0.5-4.1,1.6-5.1,1.1c-3.5-1.9-6.5-0.6-9.6,0.9
	c-4.1,2-7.8,4.6-10.5,8.3c-4.5,6.4-8.9,12.9-13.1,19.4c-0.7,1.1-0.7,2.7-1.1,4c-1.2,3.7-2.7,4-7.1,0.8c0.6-1.1,1-2.4,1.7-3.5
	c2.7-4.2,5.6-8.3,8.3-12.6c6-9.4,13.4-17.2,23.4-22.5c2.4-1.3,4.8-1.3,7.3-1.1C523.1,152.4,524.6,154.1,526.5,157.3z"/>
<path fill-rule="evenodd" clip-rule="evenodd" d="M509.9,133.7c-1.9,5.9-4.3,9-7.2,11.8c-10.3,10-19.3,21-24.5,34.6
	c-3.9-2.5-4.2-3.1-3-5.7c4.3-9.5,10.4-17.8,17.6-25.3c3.9-4,7.6-8.3,11.5-12.3C505.3,135.8,506.9,135.4,509.9,133.7z"/>
<path fill-rule="evenodd" clip-rule="evenodd" d="M492.1,130.1c-0.3,1.7-0.3,2.1-0.4,2.2c-10.3,7-14.9,17.6-18,29
	c-0.8,2.9-1.2,6-4.6,7.9c-1-0.7-2.1-1.5-3-2.2c-0.1-0.9-0.3-1.5-0.1-1.9c3-6.3,4.1-13.2,7.6-19.4c3.5-6.2,8.5-10.8,13.6-15.3
	C488.1,129.7,490.2,130.2,492.1,130.1z"/>
<path fill-rule="evenodd" clip-rule="evenodd" d="M496.1,287.6c2.6-1.4,4.8-2.5,6.9-3.6c3.1,1.4,4.6,3.6,4,6.8
	c-0.6,3.3-3.1,5.2-6.1,6.4c-3.2,1.2-6.1-1.3-5.7-4.8C495.4,290.9,495.7,289.6,496.1,287.6z"/>
<path fill-rule="evenodd" clip-rule="evenodd" d="M545.9,268.6c4.7,0,6.5,2.8,4.4,7.2c-2.2,4.6-5.3,6.3-9.3,4.8
	c-1.7-0.6-2.8-1.8-2.9-3.7C537.6,271.3,540.1,268.6,545.9,268.6z"/>
</svg>
