<?xml version="1.0" encoding="utf-8"?>
<!DOCTYPE svg PUBLIC "-//W3C//DTD SVG 1.1//EN" "http://www.w3.org/Graphics/SVG/1.1/DTD/svg11.dtd">
<svg artist="zl2017" version="1.1" id="zlIcon-musiciant-street" xmlns="http://www.w3.org/2000/svg" xmlns:xlink="http://www.w3.org/1999/xlink" x="0px" y="0px"
	 width="1000px" height="788.3px" viewBox="0 0 1000 788.3" enable-background="new 0 0 1000 788.3" xml:space="preserve">
<path fill-rule="evenodd" clip-rule="evenodd" d="M786.1,583.1c-3.7,7.6-2.1,15.5-11.1,18.1c-3.5,1-2.3,6.7,0.3,8.9
	c7.2,6.4,14.6,12.5,22.4,18.2c8.2,6,17,11.3,25.4,16.8c-1,7.2-4.8,10-10,7.2c-15.8-8.4-31.8-16.8-46.5-26.9
	c-5.6-3.9-7.9-12.4-11.9-19.3c-2.9-0.3-6.3-0.6-11-1.1c-9.6-12.5-17.6-27.4-22.7-42.7c-9.2-27.3-25.9-49.8-41.3-73.3
	c-1.8-2.8-4.8-5.1-7.7-6.8c-17.1-10.1-33.8-22-54.1-23.9c-34.7-3.2-67.4-14.6-101-22.3c-1.3-0.3-2.7-0.4-5.3-0.7
	c-4.2,3.2-9,7-13.9,10.7c0.8,1.5,1.2,3.1,2,3.5c13.4,5.4,26.7,11.3,41.5,12c8.6,0.4,13.8,5.4,17.7,12.5c3,5.4,6.4,10.5,9.5,15.8
	c3.9,6.5,8.3,12.8,11.5,19.6c8,17.5,15.6,35.2,23.1,52.9c3.7,8.8,8.2,17.2,12.9,25.6c9.9,17.6,23.6,30.3,41.2,39.5
	c1.2,0.6,2.3,1.5,3.3,2.4c0.5,0.4,0.6,1.2,1.6,3.2c-3.1,4.2-6.6,9-10.8,14.7c0.8,3.1,1.8,7,2.7,10.6c1.4,1,2.4,2.3,3.5,2.5
	c10.9,1.6,21.8,3.2,32.8,4.6c10.2,1.3,20.1,3.4,29.7,11.2c-3.2,1.9-5.7,4.6-7.3,4.1c-18.1-5.3-36.6-5.4-55.2-4
	c-7.1,0.5-11.9-2.8-15.2-8.6c-1.7-3-3.7-6-4.4-9.3c-1.1-4.6-3.7-6.5-7.9-8.3c-10-4.3-14.7-12.4-18.6-22.8
	c-7.2-19.3-17.6-37.5-25.5-56.6c-7.1-17.3-15-33.9-24.8-49.8c-7.9-12.9-19-21.8-32-28.6c-7.3-3.8-15.3-6.1-22.1-8.8
	c-7.5,1.4-0.8,10.3-7.3,11.2c-3.9,0.5-7.9,0.1-12.4,0.1c-0.7-6.2-1.3-11.9-1.9-17c-1.8-1.2-2.8-2.4-4.1-2.7
	c-12.1-2.8-24.2-4.9-36.8-5.1c-26.9-0.6-53.6-3.9-80.3-7.4c-17.1-2.2-34.5-2.4-51.7-1.7c-13.4,0.6-22.8-4.5-29.9-14.8
	c-12.6-18.2-23.4-37.3-28-59.4c-2.5-12-5.7-24-8.9-37.3c-2.6,0.6-5.9,0.7-8.6,2.1c-14.3,7.5-25.9,18.2-34.3,32.1
	c-13.5,22.3-28.5,43.8-39.4,67.7c-8.9,19.4-17.9,38.7-21.7,60c-2.1,12.2-4.7,24.4-7.5,36.4c-1.2,5.2-3.8,10.1-6.1,16
	c-3.5-0.9-6.1-1.3-8.5-2.2c-4.6-1.8-6.3-5.6-5.1-10c6.3-22.5,14.3-44.6,19-67.4c4.2-20.1,13.9-37.5,23.2-54.9
	c10.6-19.9,24.4-38,35.4-57.7c4.2-7.6,10.9-12.2,15.6-19c2.3-3.3,5.8-5.8,8.6-8.8c18.6-19.7,30.4-44,44.1-66.9
	c10.1-16.9,16.7-35.9,25-53.9c1.7-3.7,3.8-7.2,6-10.7c4.8-7.6,9-15.6,14.6-22.4c8.1-9.9,17.3-19.1,27.1-29.6
	c-3.2-4.7-7.1-10.1-10.5-15.8c-3.2-5.3-5.4-11.2-9.1-16.1C302.9,114.4,299.5,99,305,82c5.7-17.7,13.5-33.4,28.1-46.8
	c27.3-25.1,59.2-33.7,94.6-34.7c10.4-0.3,20.7-0.7,31.1-0.5c6.9,0.1,14,0.4,20.5,2.1c12.6,3.3,25.1,6.8,38.4,6
	c10.3-0.6,18.7,5.1,27,9.7c13.2,7.4,26.2,15.5,38.5,24.4c16.1,11.7,25,28.2,23,48.1c-1.8,18.1-9.2,34.7-23,47.4
	c-5,4.7-10.9,8.5-16.3,12.9c-9,7.4-18.9,14-26.4,22.6c-7.5,8.7-13.2,19.3-18.4,29.7c-1.8,3.7-1,9.8,0.8,13.9
	c3.1,7.5,7.8,14.4,11.9,21.5c0.3,0.6,1,1.4,1.5,1.3c12.8-0.5,15.4,12.3,24.2,19c3-2.7,5.8-5.4,8.8-7.8c22.7-18,43-38.6,64.4-58
	c14.8-13.4,30.3-26.8,47.7-36.2c14.9-8.1,30-16.2,45.5-23.3c12.5-5.7,25.4-10.9,37-18.1c12.5-7.8,26-12.7,39.3-18.2
	c19.9-8.2,35.4,0.2,40.7,21.2c1.5,5.9,2.7,11.8,4.2,18.4c-7.3,8.2-18.3,7-28.2,8.3c-8.8,1.2-17.9,0.6-26.9,0.7
	c-16.9,0.1-32.8,3.7-47.7,11.8c-3,1.6-6.1,3-9.1,4.4c-2.7-3.9-4.2-9.2-10.3-5.9c-10.9,5.9-21.9,11.7-32.7,17.8
	c-3.5,2-8.2,4.5-9.3,7.8c-4.2,12.8-14.9,19.8-24.1,27.8c-10.7,9.4-19,19.9-22.2,34c-0.7,3.3-2.5,6.3-4.1,9.4
	c-6,11.8-9.4,24.2-9.1,37.5c0.2,8.2-0.2,16.4-0.3,23.8c-7.1,3.5-12.1,2.2-17.1-1c-10.4-6.6-20.9-13.2-31.5-19.6
	c-2.9-1.7-6.2-2.6-10.1-4.2c-13.5,13.2-26.9,26.2-40,39.3c-1.9,1.9-3.6,4.3-4.7,6.8c-4.7,10.6-9.1,21.4-14.2,33.5
	c2.4,10.2,8.9,19,20.9,23.4c1.8,0.7,3.4,2.3,4.8,3.8c16.6,17.6,37.4,27,60.4,33.6c23.1,6.6,46.4,12.7,68.1,23.6
	c16.4,8.2,30.3,18.9,41.2,33.6c2.4,3.3,4.7,7.2,7.9,9.4c10.6,7.2,16.8,17.5,23,28.3c11.1,19.3,26.3,35.4,41.4,51.5
	C777.1,579,781.3,580.3,786.1,583.1z M451.8,27.4c-10.9-3.4-23.7,0.5-33.3-8.8c-1.5-1.4-5.3-1.1-8-0.6
	c-24.1,3.9-44.7,14.4-59.3,34.2c-9.6,13.1-18.4,27-22.9,43.1c-1.7,6-1.5,24.6,1.7,29.6c5.5,8.7,11,17.4,17.3,25.5
	c6,7.7,13.5,13.4,23.4,16.3c12.5,3.7,24.4,9.9,37.1,12.7c14,3.1,28.2,3,43,1.3c16.1-1.9,31.1-5.6,45.7-11.9c7-3,13.8-6.3,21-8.8
	c12.6-4.4,23.6-11.4,34.3-19.1c26.7-19.3,35.3-48,23.7-78.7c-1.2-3.1-3.1-6.6-5.8-8.2c-19.8-12.3-39-26.2-63.7-30.8
	c-2.6,9.1-10,12.2-18.5,13.9c-6.7,1.4-13.4,3.1-20,4.8c-5,1.3-10.3,1-13.3-3C452,36,452.5,31.4,451.8,27.4z M342.2,383.8
	c7,8.9,12.7,15.8,17.9,23c4.3,6,9.8,8.8,17.1,9.9c18.9,2.8,36.9-0.5,55-5.3c9.6-2.5,17.2-7.7,23.6-15.5
	c12.1-14.8,22.2-30.9,31.1-47.8c6.7-12.9,14.3-25,25.6-34.4c2.4-2,6.3-3.4,5-8.8c-15.7-3.3-31.9-5-48.2-5.5
	c-27-0.7-53.4,1.3-78.8,12.3c-13.5,5.9-25.4,13.2-34.2,25.3c-8.5,11.8-16.2,23.6-12.2,39.3C344.6,378.5,342.8,381.4,342.2,383.8z
	 M505.9,241.3c-10.3,15-4.7,30.1-5.4,44.3c25.5,11.4,35.8,7.7,46.1-16.9C533.4,259.7,520,250.7,505.9,241.3z M606.4,295.2
	c4.1-21,7.5-39.4,10.7-60.3c-5.8,2.7-10,3.6-12.7,6.1c-10.6,10-22.8,18.7-31.3,33C584.1,280.9,594.1,287.3,606.4,295.2z
	 M771.4,137.3c18.7-6.4,38.7-2,56.1-11.2c-1.1-12.4-6.2-17.2-16.4-13.1c-13.1,5.2-27.1,9.4-37.6,19.9
	C772.7,133.7,772.4,135.1,771.4,137.3z M739.7,147.1c0,0.7,0,1.3,0,2c2.6,0,5.2,0,7.7,0c0-0.7,0-1.3,0-2
	C744.9,147.1,742.3,147.1,739.7,147.1z"/>
<path fill-rule="evenodd" clip-rule="evenodd" d="M41.9,567.9c-0.8,0-3.9,0.9-6.2-0.2c-7-3.2-12.8-1.7-19.4,1.8
	c-5.7,3-12.3-0.8-15.1-6.9c-2.1-4.6,0.3-15.4,4.8-15.9c7.4-0.9,10.1-6.6,14.9-10.1c8.8-6.6,19.6-6.3,29.6-6c7.1,0.2,14.3,4.5,21,7.9
	c6.4,3.3,7,10.2,2.3,15.4C65.8,562.7,57.2,570.4,41.9,567.9z M62.7,550.3c-6.4-2.9-12.2-7.4-18.3-7.9c-6.1-0.5-13.8,0.2-17.3,7.6
	C38.4,562.1,40.9,562.2,62.7,550.3z"/>
<path fill-rule="evenodd" clip-rule="evenodd" d="M198.3,532.2c-5.6,3.7-8.7,8.9-15.5,5.4c-7.7-4-7.5-10.3-7.6-16.5
	c5.9-5.3,10.8-4,16.1-0.1c17-19.1,34.1-22.4,50.5-0.3c-0.9,12.2-8.1,16.7-17.5,18.6C215,541.1,207.2,535.9,198.3,532.2z
	 M223.7,525.9c-4.9-5.8-9.7-7.1-14.7,0.8C215.4,526.3,219.6,526.1,223.7,525.9z"/>
<path fill-rule="evenodd" clip-rule="evenodd" d="M930.2,468.5c-8,0.8-14.1,1.6-20.2,1.9c-3.7,0.2-6.3-1.9-7.7-5.6
	c-2.4-6.3,0.1-11.7,6.5-12c4.7-0.2,11.3,3.2,13.7,1.1c11.2-9.5,22.2,1.5,33.5-1c8.5-1.9,19.3,9,16.9,18.9c-0.8,3-2.5,7.1-4.9,8.2
	c-5.6,2.3-11.8,3.9-17.8,4.3C939.5,484.9,935,476.4,930.2,468.5z M952.5,464.6c-1.7,2.6-3.7,4.6-3.3,5.3c0.8,1.4,2.8,2.9,4.4,2.9
	c1.6,0,3.2-1.7,4.8-2.6C956.7,468.7,955,467,952.5,464.6z"/>
<path fill-rule="evenodd" clip-rule="evenodd" d="M792.5,451.7c-2.9,4.2-4.4,6.3-5.9,8.4c0.7,1.1,1.2,2.7,2.3,3.3
	c3.6,1.9,7.5,3.1,11,5.2c7.2,4.2,9.5,9.6,6.5,17.3c-1.1,2.8-3.9,6.3-6.6,7c-10.7,2.9-21.7,3.2-32.5,0c-2.4-0.7-4.2-3.2-6.1-4.7
	c2.2-17,2.2-17,15.6-24.6c-3.2-2.5-6.5-4.4-9-7c-3.1-3.3-3.4-8.1-0.6-11.3c1.9-2.2,5.8-2.6,8.9-3.5c1.2-0.3,2.9,0,4,0.7
	C783.9,445.1,787.6,448,792.5,451.7z M771.5,484.5c2.7,1,3.9,1.8,5.2,1.8c2.7,0,5.3-0.4,8-0.6c3.5-0.2,7.8-1.1,6.9-5
	c-0.8-3.2-4.3-6.9-7.6-8.3C778.7,470.3,773.7,475.5,771.5,484.5z"/>
<path fill-rule="evenodd" clip-rule="evenodd" d="M293,510.9c4.8-2.5,9.8-4.8,14.4-7.5c14.7-8.7,22.6-7.1,32.3,6.8
	c1.6,2.2,3.6,4.2,5,6.5c2.7,4.5,1.3,9.6-3.7,12.1c-10,5-21,6.4-31.8,6.4c-3.8,0-8.7-4.1-11.3-7.6c-3.6-4.8-6.5-10.7-4.3-17.3
	L293,510.9z M324.5,522c-2.5-2.2-4.2-4.4-6.3-5.5c-3.2-1.6-6.6-1.4-8.8,2.1c-0.3,0.5-0.3,1.4-0.1,2c1.3,4.6,5.1,3.5,8.2,3.3
	C319.4,523.9,321.3,523,324.5,522z"/>
<path fill-rule="evenodd" clip-rule="evenodd" d="M497.8,583c7.8,2.8,15.8,4.9,23.1,8.4c11.7,5.5,13.3,19.3,2.5,26.1
	c-7.3,4.6-15.8,7.8-24.2,10c-6.9,1.8-18.3-7.6-21.6-16.1c-3-7.5-0.3-15,7.9-20.8C489.3,587.9,493.5,585.6,497.8,583z M517.6,604.8
	c-4.6-5.8-10.2-6.3-15.7-6.5c-5.1-0.1-9.1,2.5-12.3,6.4c-2.2,2.7-1.6,8,1.6,8.7c4.5,1,9.3,1.6,13.9,1.1
	C510.5,614.1,516,612.4,517.6,604.8z"/>
<path fill-rule="evenodd" clip-rule="evenodd" d="M879.1,477.6c8.1-0.1,14.9,2,19.2,9.8c1.9,3.6,4.8,6.6,7.1,10.1
	c4.8,7.3,3.2,16.7-3.6,22.1c-9.7,7.7-24.5,6.3-30.7-4.4c-3.6-6.2-10.7-10.5-9.9-19.6C862.2,483.4,867.2,477.6,879.1,477.6z
	 M897.9,505.4c-2.5-3.7-5.1-7.5-7.8-11.3c-0.8-1.1-1.8-2.7-2.7-2.7c-3.2-0.2-6.8-0.7-9.5,0.5c-3.1,1.4-4.4,4.9-2.8,8.6
	C880.5,513.2,888.1,515,897.9,505.4z"/>
<path fill-rule="evenodd" clip-rule="evenodd" d="M589.8,690.1c4,9.3-3.1,15.7-5.2,23.2c-4.9,2.2-9.3,4.1-12.5,5.6
	c-12.8-1.5-27.6-15.1-27.8-26c-0.1-4.9,2.2-11.3,5.7-14.5c4.3-4,10.9-6.2,17.2-2.2C574.7,680.8,582.3,685.5,589.8,690.1z
	 M567.8,704.2c3-0.5,4.5-0.4,5.6-1c1.6-0.9,3.8-2.1,4-3.5c0.3-1.4-1.3-3.4-2.4-4.8c-0.8-0.9-2.4-1.2-3.6-1.8
	c-3.7-1.8-7.7-3.6-11,0.4c-1.1,1.3-1.8,4.7-1.1,5.3C562.2,701.2,565.7,702.9,567.8,704.2z"/>
<path fill-rule="evenodd" clip-rule="evenodd" d="M847.7,537.4c-5.6,12.6-15.2,12.1-26.1,11c-10.7-1.1-15-8.2-19.1-16.2
	c-2.3-4.6-0.2-10,4.2-12.1c11.4-5.3,24-3.2,33.9,5.8c1.5,1.4,2.8,3,3.8,4.8C845.8,533,846.8,535.5,847.7,537.4z M823.2,533.1
	c-0.6,0.5-1.4,1.1-2.2,1.7c0.4,0.5,0.9,1.4,1.2,1.4c1.1-0.2,2.2-0.7,3.3-1.1C824.6,534.4,823.9,533.7,823.2,533.1z"/>
<path fill-rule="evenodd" clip-rule="evenodd" d="M86.3,635.6c-4.3,1.2-9.4,3.3-14.6,3.9c-7.3,0.9-13.4-2.3-18-7.9
	c-4.3-5.2-4.7-12.4-0.1-16.8c5.1-4.9,10-9.1,6.4-17.1c-0.4-1,0.5-2.6,1-3.9c1-2.7,7-5,8.7-2.8c6.4,7.9,12.7,15.8,18.2,24.3
	c3.5,5.4,2.5,11.9,0.4,17.9C88,633.9,87.4,634.3,86.3,635.6z M81.8,627.3c-0.2-7.9-4.8-11-10.7-10.3c-4,0.5-7,4.2-4.8,10.3
	C71.1,627.3,76.4,627.3,81.8,627.3z"/>
<path fill-rule="evenodd" clip-rule="evenodd" d="M485.2,711.6c-6.9-0.1-18.9-8.2-21-14.7c-0.8-2.5-1.1-5.9-0.1-8
	c2.8-5.4,5.8-11,10-15.3c8.8-9.1,13-8.7,24.2,0c2.1,1.7,4.8,2.7,6.9,4.4c10.2,7.7,10.6,14.4,1.8,24
	C500.9,708.8,494.1,711.8,485.2,711.6z M504.5,693.4c-3.2-3.7-5.2-7.5-8.3-9.4c-4.6-2.8-10.3-4.2-15.3-0.9
	c-5.1,3.4-5.9,8.8-4.2,14.5c0.4,1.2,1.3,2.3,2.1,3.8C487.7,704.2,495.7,702.4,504.5,693.4z"/>
<path fill-rule="evenodd" clip-rule="evenodd" d="M862.3,587.7c1.6-0.8,3.5-1.7,5.2-2.7c5.2-2.8,9-10.7,15.9-7.2
	c8.4,4.3,17.5,8.4,22.7,17c4.5,7.5,0.1,17.9-8.3,19.8c-11.1,2.5-21.2,1.8-30.8-6.6C860,601.7,859.5,595.8,862.3,587.7z M878.7,589.9
	c-1.3,4.6-2.8,7.6-2.9,10.7c-0.1,1.6,1.9,3.8,3.5,4.8c5.5,3.3,9.6,2.5,18.5-3C893.8,596.4,888,593.3,878.7,589.9z"/>
<path fill-rule="evenodd" clip-rule="evenodd" d="M676.7,606c-3.5-5.4-7.7-10.9-10.7-16.9c-4.1-8.3-0.1-17.7,9-19.1
	c7.2-1.1,15.1-0.4,22.3,1c6.9,1.4,11.2,11.3,8.8,18.4c-1.9,5.8-3.8,11.8-9.5,15.5C690.2,609.1,683.8,609,676.7,606z M678.1,582.6
	c3.7,12.7,6.2,15.9,10.6,14.8c4.7-1.1,8.6-6.6,7-10.4c-1-2.3-3-5.4-5-5.7C687.2,580.6,683.4,581.9,678.1,582.6z"/>
<path fill-rule="evenodd" clip-rule="evenodd" d="M688.6,732c10.4,2.4,17.5,9.9,25,16.5c5.6,5,4.2,11.6-2.3,15.3
	c-10,5.8-21,7-31.9,4.4c-4.3-1-8.2-4.9-11.4-8.2c-3.1-3.2-3.1-7.7-0.4-11.4C673.1,741.4,680.1,736,688.6,732z M706.5,754
	c-4.2-2.6-7.8-6.1-12.1-7.2c-3.5-0.9-7.9,0.5-11.4,2.1c-1.5,0.7-2.3,4.5-2.1,6.9c0.1,1.5,2.3,3.9,3.8,4.1
	C692.1,760.8,699.6,761.2,706.5,754z"/>
<path fill-rule="evenodd" clip-rule="evenodd" d="M92.1,665.5c5.8,3.2,12.1,5.9,17.4,10c7,5.3,6.8,14.4-0.7,19.1
	c-5.1,3.2-11.3,5.9-17.2,6.1c-12.4,0.6-18.8-10.4-13.1-21.3c1.6-3,3.6-5.9,6-8.4C86.2,669.1,88.8,667.8,92.1,665.5z"/>
<path fill-rule="evenodd" clip-rule="evenodd" d="M409.9,557.7c3.9-0.2,8.5-1.7,11.7-0.2c4.1,1.8,8.3,5.4,10.3,9.4
	c1.5,3,0.8,8.2-0.9,11.5c-2.6,5.3-8,7.6-14,6.4c-12.8-2.5-22.5-9.3-28.3-21.8c2-3.5,3.6-7.4,6-10.6c4.4-5.7,8.4-4.5,13.2,3.7
	c-7.1,6.2-7.3,7.7-1.2,12.5c1.5,1.1,3.4,1.7,5.2,2.4c1.2,0.4,2.2,1.2,3.4,1.3c0.7,0.1,1.4-1,2.2-1.6c-0.4-0.3-0.9-1-1.2-0.9
	c-1.6,0.5-3.2,1.1-4.7,1.7C415.6,566.4,409.6,562.4,409.9,557.7z"/>
<path fill-rule="evenodd" clip-rule="evenodd" d="M559.8,772.9c2.5-4.5,4.6-9.6,8-13.8c5.7-7.1,14.8-6.9,21.1,0
	c4,4.4,7.8,9,12.6,14.6c-0.4,2-0.2,5.7-1.8,8.5c-1.5,2.6-4.7,5.8-7.3,6c-6,0.3-12.1-0.6-18-1.8C568.3,785.1,562.8,782.1,559.8,772.9
	z M589.7,776.6c-6-3.8-9-6.2-12.4-7.7c-1.1-0.4-4,1.4-4.6,2.8c-0.5,1.1,1.1,4.5,2.2,4.6C578.5,776.9,582.4,776.6,589.7,776.6z"/>
<path fill-rule="evenodd" clip-rule="evenodd" d="M948.1,526.2c13.5,24.7,13.5,25.1-0.7,37c-15.4-1-23.4-9.8-25.7-24.6
	c-1.2-7.8,5-15,12.9-15.1c2,0,4.1,0.3,6.1,0.7C943.4,524.8,946,525.6,948.1,526.2z M938.5,537c-5.6,2.5-6.5,5.3-4.5,8.9
	c1.7,2.9,3.8,6.7,7.5,5.1c4.5-2,1.8-5.2-0.3-7.9C940.1,541.5,939.6,539.4,938.5,537z"/>
<path fill-rule="evenodd" clip-rule="evenodd" d="M814.4,702.6c4.6,3.5,8.1,8.5,6.1,15.4c-2.2,7.2-7.9,10.9-15,12.4
	c-8.9,1.9-17.6,2.1-25.4-4.1c-5.2-4.1-8.1-11.2-6.1-16.2c2.8-7.2,10.4-11.6,17.7-10.5C799,700.7,806.3,701.6,814.4,702.6z
	 M785.7,712.5c0.3,7.5,4.2,10.2,9.3,9.9c4.6-0.3,9.3-2,13.5-3.9c1.6-0.7,2-3.9,3.3-6.7C802.3,709.3,794.5,709.3,785.7,712.5z"/>
<path fill-rule="evenodd" clip-rule="evenodd" d="M521.8,534.6c-4,10.6-11.8,14.4-22.3,14.9c-11.2,0.4-22.2,1.1-28-13
	c0.7-1.5,1.7-3.8,2.8-6.2c4-8.9,9-15.7,20.3-10.5c1.1,0.5,2.8,0.5,4,0.2C511.6,516.6,517.1,524.7,521.8,534.6z M509.6,538.1
	c0-1.7,0.6-3.5-0.1-4.3c-5.4-6.2-15.8-7.9-21.7-3.3c-1.3,1-2.3,3.7-2,5.3c0.3,1.6,2.2,3.8,3.8,4.2
	C496.4,541.5,503.1,540.8,509.6,538.1z"/>
<path fill-rule="evenodd" clip-rule="evenodd" d="M171.1,599.2c2,4,4.3,7.4,5.3,11.2c0.6,2.3,0,5.6-1.3,7.7
	c-8.2,12.8-29.3,13.6-39.1,1.8c-2.6-3.1-1.8-8.7,2.2-10.5c7.3-3.4,14.7-6.5,22.2-9.2C163.4,599.1,167,599.5,171.1,599.2z"/>
<path fill-rule="evenodd" clip-rule="evenodd" d="M344.1,479c5.7,1,10.3,1.4,14.6,2.8c5,1.6,9.1,6,15.3,3c1.5-0.7,4.9,1.8,7,3.4
	c3.2,2.3,3.7,5.9,2,9.1c-1.1,2.2-3.4,5.2-5.4,5.3c-10.9,0.8-21.1-3-31.4-5.7c-1.5-0.4-3.2-3-3.3-4.7
	C342.7,488.2,343.5,484.3,344.1,479z"/>
<path fill-rule="evenodd" clip-rule="evenodd" d="M293.6,510.2c-5.7,3.8-11.2,7.6-18.8,4c-4.2-2-9.2-2.4-13.2-3.4
	c-5.2-4.4-5.8-9.8-6-15.3c-0.1-4,3.9-7.4,8-7.7c9.7-0.5,14.9,8.7,23.7,10.9c5,1.2,5.3,7.4,5.8,12.2
	C293,510.9,293.6,510.2,293.6,510.2z"/>
<path fill-rule="evenodd" clip-rule="evenodd" d="M851.6,489.2c-10.2,7.3-13.2,7.3-18.1-0.5c-2.8-4.6-5.4-9.4-7.4-14.3
	c-1.2-3-2-6.6-1.6-9.8c0.2-2.2,2.2-5.3,4.2-6.1c2-0.8,5.7,0,7.2,1.5c3.2,3.4,5.8,7.5,8,11.7C846.6,476.9,848.6,482.5,851.6,489.2z"
	/>
<path fill-rule="evenodd" clip-rule="evenodd" d="M410.7,532.2c-3.8-2.4-7.8-3.5-9.1-6.1c-1.7-3.3-2.7-8.4-1.5-11.6
	c1.7-4.4,2.8-7.3-1.1-10.8c-3.2-2.9-1.7-6.1,0.2-9.2c2.7-4.4,6.9-4.2,11-3.6c4.7,0.7,7.5,4.5,7.4,8.7c-0.1,3.7-3.5,7.4-3.5,11.1
	c0,3.7,3.9,7.6,3.5,11C417.2,525.2,413.5,528.2,410.7,532.2z"/>
<path fill-rule="evenodd" clip-rule="evenodd" d="M546,609.9c-11.5-6.8-11.3-6.8-9.2-15.6c0.7-3.1,0.5-6.6,0.4-9.9
	c-0.2-8.4,3.1-11.1,11-8.4c1.9,0.6,3.5,2.1,5.2,3.1C552.1,601.7,552.1,601.7,546,609.9z"/>
<path fill-rule="evenodd" clip-rule="evenodd" d="M76.7,515.9c0-4.1-0.3-6.9,0.1-9.5c0.3-1.9,1.5-3.7,2.3-5.4c1.6-0.3,3.1-1,4.2-0.7
	c6.4,2.1,12.8,4.5,19.2,6.8c4.8,1.7,6.4,8.3,2.7,11.8c-3.1,3-6.8,4.7-11.3,3.5c-1.3-0.4-2.5-1.1-3.8-1.6
	C86.3,519.3,82.5,518,76.7,515.9z"/>
<path fill-rule="evenodd" clip-rule="evenodd" d="M338.1,554.8c3.4-7,6.7-9.7,12.5-8.8c4.7,0.7,9.4,0.7,14.1,1.4
	c3.7,0.5,6.3,2.5,6,6.8c-0.3,3.9-2.4,6.3-6.3,6.9c-6,1-12,1.8-18.9,2.8C343.3,561.2,340.8,558.1,338.1,554.8z"/>
<path fill-rule="evenodd" clip-rule="evenodd" d="M476.8,587.9c-9.4,10.4-17.6,6-25.1,3.6c-4.1-5.8-1.8-10.2,0.7-14.3
	c2.6-4.3,9.1-5.6,12.6-2.4C468.9,578.5,472.2,582.8,476.8,587.9z"/>
<path fill-rule="evenodd" clip-rule="evenodd" d="M296,471c9.7-1.1,16.8-2.4,22.4,2.8c2.2,2,3.6,5.8,3.6,8.8c0,1.6-3.5,3.6-5.7,4.8
	c-6.6,3.6-12.5,0.1-17-3.7C296.8,481.8,297.2,476.5,296,471z"/>
<path fill-rule="evenodd" clip-rule="evenodd" d="M181.1,567.9c-6.5,11.7-12.1,12.7-18.8,3.5c-1.2-1.6-2.3-3.3-3.3-5.1
	c-3.1-5.7-3.1-11.4,0.3-12.6c5.1-1.9,9.2,0,12.6,3.8C175,561,178.1,564.5,181.1,567.9z"/>
<path fill-rule="evenodd" clip-rule="evenodd" d="M369.5,521.4c-0.6,5.4-1.2,11.3-1.9,17.1c-7.2,4.6-12,0.5-15.8-4.4
	c-2.9-3.7-0.1-12.2,5.1-16.1C361.7,514.4,365.7,516.7,369.5,521.4z"/>
<path fill-rule="evenodd" clip-rule="evenodd" d="M197.6,566.4c3.5,1.2,6.1,1.8,8.5,3c5.6,2.6,8.5,7.5,6.5,10.7
	c-3.4,5.4-12.2,7.1-18,3.4c-3.9-2.4-5.4-8.4-2.5-12.5C193.4,569,195.9,567.7,197.6,566.4z"/>
<path fill-rule="evenodd" clip-rule="evenodd" d="M244.4,541.3c0.7,0.3,3.3,1,5.8,2.1c4.7,2.3,6.2,7.8,3.5,12
	c-2.7,4.2-9,6.2-12.4,3.4c-2.5-2.1-4.7-5-6-8C233.1,546,237.3,540.8,244.4,541.3z"/>
<path fill-rule="evenodd" clip-rule="evenodd" d="M205,473.7c3.7,2.4,7.7,4.7,11.2,7.7c1.1,1,1.5,4.5,0.7,5.7
	c-1.8,2.5-4.6,5.9-7.2,6c-5.4,0.3-11.2-1.6-13.2-7.3c-0.9-2.5,1-6.4,2.4-9.2C199.7,475.3,202.4,474.9,205,473.7z"/>
<path fill-rule="evenodd" clip-rule="evenodd" d="M652.1,499.7c1.8,2.4,3.9,5,5.8,7.8c2.7,4.1,1.8,8.5-1.7,10.8
	c-2.1,1.3-6.2,0.1-9.2-0.8c-1.7-0.5-3-2.6-4.4-4.1c-4.9-5.7-3.3-10,4.9-13.5C648.6,499.3,650.1,499.7,652.1,499.7z"/>
<path fill-rule="evenodd" clip-rule="evenodd" d="M624.1,493.7c0.1,4.1-4.4,9.1-8.9,9.8c-4.8,0.8-10.7-4.7-10.8-10
	c-0.1-3.9,4.9-9.5,8.9-10C617.8,482.9,623.9,488.6,624.1,493.7z"/>
<path fill-rule="evenodd" clip-rule="evenodd" d="M454.4,501.5c7.1,5.9,11.5,8.8,14.9,12.7c1.3,1.5,1.4,5.6,0.3,7.4
	c-1.1,1.8-4.4,3.1-6.8,3.1c-6.9,0-9.8-2.9-10-9.6C452.6,511.9,453.5,508.7,454.4,501.5z"/>
<path fill-rule="evenodd" clip-rule="evenodd" d="M180.1,493.6c-2.9,12.9-9.8,16.1-17.2,8.8c-1.6-1.5-2.7-5.1-2-7
	c0.6-1.9,3.8-4,5.9-4C171.2,491.5,175.7,492.8,180.1,493.6z"/>
<path fill-rule="evenodd" clip-rule="evenodd" d="M544,522.7c-9.6,0.5-9.6,0.5-16.7-6c0.2-1.3,0-2.8,0.5-4c1.6-3.8,3-8.4,8-8
	c6.5,0.5,6.5,5.7,6.4,10.7C542.1,517.4,543.1,519.3,544,522.7z"/>
<path fill-rule="evenodd" clip-rule="evenodd" d="M548.8,564.3c-6.6,2.1-10.2-0.4-12.5-5.2c-2-4.2-4.4-8.6,1.4-13.4
	c3.2,1,6.9,2.3,11.1,3.7C548.8,554.7,548.8,559.7,548.8,564.3z"/>
<path fill-rule="evenodd" clip-rule="evenodd" d="M981.3,449.7c0.6-6.9,0-13.8,6.4-14.8c6.9-1.1,10.5,4.4,11.8,11.4
	C994.7,451,989,451.1,981.3,449.7z"/>
<path fill-rule="evenodd" clip-rule="evenodd" d="M438.9,503.2c-4.9,0.5-9.6-4.5-9.8-10.5c-0.1-3.7,1.2-6.7,5-7.6
	c5.1-1.2,11.5,3.1,12.3,7.7C447.1,496.9,442.9,502.8,438.9,503.2z"/>
<path fill-rule="evenodd" clip-rule="evenodd" d="M743.8,468.3c-5.9,2.9-11.6,3.6-16.5-1.7c-1.2-1.3-2.2-4.2-1.5-5.4
	c1.2-2.1,3.8-4.9,5.7-4.9C738.6,456.3,742.8,460.4,743.8,468.3z"/>
<path fill-rule="evenodd" clip-rule="evenodd" d="M100.3,556.8c-2.5,2.9-3.7,5.7-5.7,6.4c-3.7,1.4-8.7-3.6-9.1-8.3
	c-0.2-2.9,3.9-7.1,6.4-5.8C94.9,550.8,97.1,553.8,100.3,556.8z"/>
<path fill-rule="evenodd" clip-rule="evenodd" fill="#FFFFFF" d="M451.8,27.4c0.7,4,0.3,8.6,2.3,11.4c3,4.1,8.3,4.3,13.3,3
	c6.7-1.7,13.3-3.4,20-4.8c8.4-1.8,15.9-4.8,18.5-13.9c24.8,4.6,43.9,18.5,63.7,30.8c2.6,1.6,4.6,5.2,5.8,8.2
	c11.6,30.7,3,59.4-23.7,78.7c-10.7,7.7-21.7,14.7-34.3,19.1c-7.1,2.5-14,5.8-21,8.8c-14.7,6.2-29.6,10-45.7,11.9
	c-14.7,1.7-29,1.8-43-1.3c-12.7-2.8-24.5-9-37.1-12.7c-9.9-2.9-17.4-8.6-23.4-16.3c-6.3-8.1-11.9-16.8-17.3-25.5
	c-3.2-5.1-3.4-23.6-1.7-29.6c4.4-16.1,13.2-29.9,22.9-43.1c14.6-19.9,35.2-30.3,59.3-34.2c2.6-0.4,6.5-0.8,8,0.6
	C428,27.9,440.9,24,451.8,27.4z M482.1,94c2.9,0.2,5,0.6,6.9,0.3c2.7-0.5,5.4-1.3,7.8-2.5c5.7-2.7,8.7-9.1,6.6-13.4
	c-2-4.1-9.4-8.3-13.9-6.8c-4.9,1.7-9.4,4.6-14.2,7c0.7,3.3,0.8,5.4,1.7,7.1C478.6,88.6,480.6,91.4,482.1,94z M423.3,81.7
	c-14-11.1-18-11.9-26.9-5.7c-1.9,1.3-4,4.7-3.6,6.5c0.6,2.9,2.8,6.6,5.3,7.5c4.2,1.5,9.6,2.5,13.7,1.2
	C415.8,90.1,418.8,85.7,423.3,81.7z"/>
<path fill-rule="evenodd" clip-rule="evenodd" fill="#FFFFFF" d="M342.2,383.8c0.6-2.4,2.5-5.3,1.9-7.6c-4-15.7,3.7-27.5,12.2-39.3
	c8.8-12.1,20.6-19.4,34.2-25.3c25.3-11,51.8-13,78.8-12.3c16.3,0.5,32.5,2.2,48.2,5.5c1.3,5.4-2.6,6.8-5,8.8
	c-11.3,9.4-18.9,21.6-25.6,34.4c-8.8,16.9-18.9,33-31.1,47.8c-6.3,7.8-13.9,13-23.6,15.5c-18,4.8-36.1,8.1-55,5.3
	c-7.4-1.1-12.8-3.9-17.1-9.9C354.8,399.6,349.1,392.7,342.2,383.8z M459.8,362c-1.6-5.4-2.8-11.6-5.3-17.2
	c-4.4-9.8-11.8-17.7-22.2-19.8c-7.8-1.6-16.8-0.7-24.6,1.5c-9.6,2.6-17.3,9.2-19.1,19.8c-1.7,10.5,2.8,19.3,11.3,25.1
	c5.6,3.8,12.1,6.8,18.7,8.4C440.2,385,447.3,381.7,459.8,362z"/>
<path fill-rule="evenodd" clip-rule="evenodd" fill="#FFFFFF" d="M771.4,137.3c1.1-2.2,1.3-3.6,2.1-4.4
	c10.5-10.5,24.4-14.7,37.6-19.9c10.3-4.1,15.3,0.7,16.4,13.1C810,135.3,790.1,130.9,771.4,137.3z"/>
<path fill-rule="evenodd" clip-rule="evenodd" fill="#FFFFFF" d="M739.7,147.1c2.6,0,5.2,0,7.7,0c0,0.7,0,1.3,0,2
	c-2.6,0-5.2,0-7.7,0C739.7,148.5,739.7,147.8,739.7,147.1z"/>
<path fill-rule="evenodd" clip-rule="evenodd" fill="#FFFFFF" d="M62.7,550.3c-21.7,11.9-24.2,11.8-35.6-0.3
	c3.6-7.4,11.3-8.1,17.3-7.6C50.5,542.9,56.3,547.3,62.7,550.3z"/>
<path fill-rule="evenodd" clip-rule="evenodd" fill="#FFFFFF" d="M223.7,525.9c-4.2,0.2-8.4,0.5-14.7,0.8
	C214.1,518.7,218.8,520,223.7,525.9z"/>
<path fill-rule="evenodd" clip-rule="evenodd" fill="#FFFFFF" d="M952.5,464.6c2.5,2.4,4.2,4,5.8,5.6c-1.6,0.9-3.2,2.6-4.8,2.6
	c-1.6,0-3.6-1.5-4.4-2.9C948.8,469.3,950.8,467.2,952.5,464.6z"/>
<path fill-rule="evenodd" clip-rule="evenodd" fill="#FFFFFF" d="M771.5,484.5c2.1-9.1,7.2-14.2,12.4-12c3.2,1.3,6.7,5,7.6,8.3
	c1,3.9-3.4,4.8-6.9,5c-2.7,0.2-5.3,0.6-8,0.6C775.5,486.3,774.2,485.5,771.5,484.5z"/>
<path fill-rule="evenodd" clip-rule="evenodd" fill="#FFFFFF" d="M324.5,522c-3.2,0.9-5.1,1.9-7.1,2c-3.1,0.1-6.9,1.3-8.2-3.3
	c-0.2-0.6-0.2-1.5,0.1-2c2.2-3.5,5.6-3.7,8.8-2.1C320.3,517.7,322,519.8,324.5,522z"/>
<path fill-rule="evenodd" clip-rule="evenodd" fill="#FFFFFF" d="M517.6,604.8c-1.7,7.5-7.1,9.2-12.5,9.8c-4.6,0.4-9.4-0.1-13.9-1.1
	c-3.2-0.7-3.8-6-1.6-8.7c3.2-3.9,7.2-6.5,12.3-6.4C507.4,598.6,513,599.1,517.6,604.8z"/>
<path fill-rule="evenodd" clip-rule="evenodd" fill="#FFFFFF" d="M897.9,505.4c-9.8,9.5-17.4,7.7-22.8-4.8c-1.6-3.7-0.3-7.2,2.8-8.6
	c2.7-1.2,6.3-0.8,9.5-0.5c1,0.1,2,1.7,2.7,2.7C892.8,497.9,895.4,501.8,897.9,505.4z"/>
<path fill-rule="evenodd" clip-rule="evenodd" fill="#FFFFFF" d="M567.8,704.2c-2.1-1.3-5.6-3-8.4-5.4c-0.7-0.6,0-4,1.1-5.3
	c3.3-3.9,7.2-2.1,11-0.4c1.2,0.6,2.8,0.9,3.6,1.8c1.2,1.4,2.7,3.3,2.4,4.8c-0.3,1.4-2.4,2.6-4,3.5
	C572.3,703.8,570.8,703.7,567.8,704.2z"/>
<path fill-rule="evenodd" clip-rule="evenodd" fill="#FFFFFF" d="M823.2,533.1c0.8,0.7,1.5,1.3,2.2,2c-1.1,0.4-2.1,0.9-3.3,1.1
	c-0.3,0-0.8-0.9-1.2-1.4C821.7,534.1,822.5,533.5,823.2,533.1z"/>
<path fill-rule="evenodd" clip-rule="evenodd" fill="#FFFFFF" d="M504.5,693.4c-8.7,9.1-16.7,10.8-25.7,8c-0.9-1.5-1.8-2.6-2.1-3.8
	c-1.7-5.7-0.9-11.1,4.2-14.5c5-3.3,10.7-1.9,15.3,0.9C499.3,685.9,501.3,689.6,504.5,693.4z"/>
<path fill-rule="evenodd" clip-rule="evenodd" fill="#FFFFFF" d="M878.7,589.9c9.3,3.4,15.2,6.5,19.1,12.6c-8.9,5.5-13.1,6.3-18.5,3
	c-1.6-1-3.6-3.2-3.5-4.8C875.9,597.6,877.3,594.5,878.7,589.9z"/>
<path fill-rule="evenodd" clip-rule="evenodd" fill="#FFFFFF" d="M678.1,582.6c5.3-0.7,9.1-1.9,12.6-1.3c2,0.3,4,3.4,5,5.7
	c1.7,3.8-2.3,9.3-7,10.4C684.3,598.4,681.8,595.3,678.1,582.6z"/>
<path fill-rule="evenodd" clip-rule="evenodd" fill="#FFFFFF" d="M409.9,557.7c-0.3,4.7,5.7,8.6,1.6,13.8l0.4-0.5
	c-1.7-0.8-3.6-1.4-5.1-2.5c-6.1-4.8-5.9-6.3,1.2-12.5C408.6,556.6,409.2,557.1,409.9,557.7z"/>
<path fill-rule="evenodd" clip-rule="evenodd" fill="#FFFFFF" d="M411.5,571.5c1.6-0.6,3.1-1.2,4.7-1.7c0.3-0.1,0.8,0.6,1.2,0.9
	c-0.7,0.6-1.5,1.6-2.2,1.6c-1.1-0.1-2.2-0.9-3.4-1.3C411.9,571,411.5,571.5,411.5,571.5z"/>
<path fill-rule="evenodd" clip-rule="evenodd" fill="#FFFFFF" d="M589.7,776.6c-7.3,0-11.2,0.3-14.9-0.2c-1-0.2-2.6-3.5-2.2-4.6
	c0.6-1.4,3.6-3.2,4.6-2.8C580.7,770.3,583.7,772.8,589.7,776.6z"/>
<path fill-rule="evenodd" clip-rule="evenodd" fill="#FFFFFF" d="M938.5,537c1.1,2.4,1.6,4.4,2.8,6c2.1,2.7,4.8,5.9,0.3,7.9
	c-3.7,1.7-5.9-2.1-7.5-5.1C932,542.3,933,539.6,938.5,537z"/>
<path fill-rule="evenodd" clip-rule="evenodd" fill="#FFFFFF" d="M785.7,712.5c8.8-3.3,16.6-3.3,26.1-0.7c-1.3,2.8-1.7,6-3.3,6.7
	c-4.2,1.9-8.9,3.5-13.5,3.9C789.8,722.8,786,720.1,785.7,712.5z"/>
<path fill-rule="evenodd" clip-rule="evenodd" fill="#FFFFFF" d="M509.6,538.1c-6.5,2.7-13.2,3.4-19.9,1.9c-1.6-0.3-3.5-2.5-3.8-4.2
	c-0.3-1.6,0.7-4.2,2-5.3c5.9-4.6,16.3-2.9,21.7,3.3C510.2,534.6,509.6,536.4,509.6,538.1z"/>
<path fill-rule="evenodd" clip-rule="evenodd" d="M482.1,94c-1.6-2.6-3.5-5.3-5-8.3c-0.9-1.7-0.9-3.8-1.7-7.1
	c4.7-2.4,9.2-5.3,14.2-7c4.5-1.5,11.9,2.7,13.9,6.8c2.1,4.3-0.9,10.8-6.6,13.4c-2.5,1.2-5.1,2-7.8,2.5C487.1,94.6,485,94.2,482.1,94
	z"/>
<path fill-rule="evenodd" clip-rule="evenodd" d="M423.3,81.7c-4.5,4-7.5,8.3-11.5,9.6c-4.1,1.3-9.5,0.3-13.7-1.2
	c-2.4-0.9-4.7-4.7-5.3-7.5c-0.4-1.9,1.7-5.2,3.6-6.5C405.3,69.8,409.3,70.6,423.3,81.7z"/>
<path fill-rule="evenodd" clip-rule="evenodd" d="M459.8,362c-12.5,19.7-19.6,23-41.3,17.7c-6.5-1.6-13.1-4.6-18.7-8.4
	c-8.5-5.8-13-14.6-11.3-25.1c1.7-10.6,9.5-17.2,19.1-19.8c7.8-2.1,16.8-3.1,24.6-1.5c10.4,2.1,17.9,10,22.2,19.8
	C457,350.3,458.2,356.5,459.8,362z M410.6,337.8c-1.8,2-2.9,2.9-3.6,4.1c-7.8,12-4.3,21.1,9.5,23.8c5.3,1.1,11,1,16.4,0.8
	c8.7-0.4,12.1-5.8,9.4-14c-2.9-8.8-9.3-13.4-18.1-14.6C419.5,337.3,414.7,337.8,410.6,337.8z"/>
<path fill-rule="evenodd" clip-rule="evenodd" fill="#FFFFFF" d="M410.6,337.8c4.1,0,8.9-0.5,13.6,0.1c8.8,1.2,15.2,5.8,18.1,14.6
	c2.7,8.2-0.7,13.6-9.4,14c-5.5,0.2-11.1,0.3-16.4-0.8c-13.8-2.7-17.3-11.8-9.5-23.8C407.8,340.7,408.8,339.8,410.6,337.8z"/>
</svg>
