<?xml version="1.0" encoding="utf-8"?>
<!-- Generator: Adobe Illustrator 16.0.0, SVG Export Plug-In . SVG Version: 6.00 Build 0)  -->
<!DOCTYPE svg PUBLIC "-//W3C//DTD SVG 1.1//EN" "http://www.w3.org/Graphics/SVG/1.1/DTD/svg11.dtd">
<svg artist="zl2017" version="1.1" id="zlIcon-music-guitar" xmlns="http://www.w3.org/2000/svg" xmlns:xlink="http://www.w3.org/1999/xlink" x="0px" y="0px"
	 width="1000px" height="1135px" viewBox="0 0 1000 1135" enable-background="new 0 0 1000 1135" xml:space="preserve">
<g>
	<path fill-rule="evenodd" clip-rule="evenodd" fill="#FFFFFF" d="M172.5,821.9c3.1-2.5,5.9-4.8,8.6-7.1c2.8-2.4,4.7-2.6,8.2-0.6
		c4.2,2.4,7.6,5.4,10.3,9.6c1.3,2.1,3.6,3.6,5.7,5.5c2.9-3.1,5.4-5.4,7.5-8c1.5-1.8,2.3-4.2,3.8-6c6.6-7.5,15.2-13.1,20.8-21.7
		c0.4-0.6,1.3-0.8,1.9-1.3c2.7-2.4,5.4-4.8,8-7.4c0.8-0.8,1.4-2.4,1.3-3.5c-0.9-7.8-2-15.5-3.1-23.2c-1.3-9.4,0.1-18.5,0-27.8
		c0-4.6,2.3-8.9,4.3-13.3c5.4-11.6,14.5-18.7,26.1-23.1c3.5-1.4,7.5-1.8,10.9-3.4c5.3-2.5,10.8-3.7,16.5-3.9
		c3.1-0.1,6.3,0.3,9.4,0.3c8,0.1,16,0,24.5,0c6.4-5.6,13.4-11.4,20-17.7c3.7-3.5,7.6-6.5,10.7-10.8c2.6-3.7,4.8-7.9,9.1-10.7
		c7.6-5,14.2-11.3,20.1-18.3c4.2-5.1,9.3-9.5,13.8-14.4c5.6-6,11-12.2,16.5-18.4c0.4-0.4,0.9-0.7,1.3-1.1c3.8-3,6.4-6.9,8.6-10.8
		c-1-3.7-3.3-4.8-6.6-4.6c-1.5,0.1-3.2,0.1-4.5-0.5c-4.2-1.9-8.1-4.2-12.3-6.1c-2-0.9-4.3-1.3-6.5-1.8c-1.5-0.3-3.1-0.2-4.5-0.7
		c-3.5-1.4-6.9-3.8-10.5-4.3c-5.2-0.6-8-3.8-10-6.6c-2.7,0-4.5,0.4-6-0.1c-1.9-0.6-3.8-1.8-5.4-3.1c-3.8-3.1-8.3-5-13-5.5
		c-6.6-0.6-13.3-0.6-19.9-0.8c-0.9,0-1.8-0.3-2.7-0.5c-12.9-1.9-25.2,0.5-37.2,5c-2.2,0.8-4.8,2-6.8,1.5c-1.7-0.4-2.5-0.9-3.8,0.5
		c-0.5,0.6-1.7,0.8-2.6,0.7c-6-0.9-11.6,1.3-16,4.4c-6.4,4.6-12.1,10-18.9,14.3c-8,5.1-15.1,11.5-22.3,17.7
		c-6.8,5.8-13.4,12-20,18.1c-0.7,0.6-1.1,1.5-1.5,2.3c-1.8,3.6-3.6,7.2-5.5,10.7c-2.6,4.8-4.5,9.7-4.8,15.2
		c-0.1,1.5-0.3,3.3-1.2,4.3c-4.6,5.6-4.9,12.7-6.8,19.2c-1.7,5.6-1.9,11.6-1.5,17.5c0.2,2.3-0.7,5.4-2.2,6.7c-1.4,1.2-3,4.1-6.2,2.5
		c-1-0.5-3,1.1-4.7,1.8c-3.4-1.6-6.9-3.1-11.1-3.3c-3.4-0.2-6.3,0.8-9.4,1.2c-6.9,0.8-13.9,0.8-20.8,1.3c-2.7,0.2-5.4,0.6-7.9,1.3
		c-6,1.8-12.1,3.6-17.9,5.9c-7.7,3.1-16.3,4.1-23.3,9.1c-5.1,3.7-10.2,7.4-15,11.4c-4.1,3.4-8.9,6.5-11.7,10.8
		c-5.1,8-11.1,15.6-14.5,24.7c-0.8,2.1-1.3,4.4-2.3,6.5c-4.7,9.4-9,18.9-12.4,28.9c-1.8,5.2-3.8,10.5-4.8,15.9
		c-2,10.9-3.4,21.8-2.7,33c0.4,5.9,0.2,11.8,0.9,17.6c1.5,13.2,3.4,26.4,5.2,39.6c0.1,1.1,0.6,2.2,0.8,3.3c0.5,2.6,1,5.1,1.3,7.7
		c0.3,3.8-0.7,8.1,0.9,11.2c2.8,5.7,1.8,12.2,4.9,17.9c2.5,4.8,2.8,10.7,4.8,15.8c3.7,9.3,8,18.4,12.1,27.6c0.8,1.9,1,4.2,2.1,5.8
		c3,4,5,8.2,7.1,12.8c3.3,7.5,8.4,14.3,13.1,21.1c4.4,6.2,9.4,11.9,14,18c2.6,3.5,5.4,6.7,9.7,8.2c0.9,0.3,2,0.7,2.4,1.4
		c3.2,5.6,9.2,7.5,13.9,11c3.9,3,8.5,5.1,12.6,7.9c7.7,5.3,15.7,9.9,24.8,12.5c7.5,2.2,14.8,5,22.4,6.9c14.4,3.5,29.1,3.8,43.8,3.8
		c4.2,0,8.4-0.6,12.5-0.6c4.4,0,8.7,0.8,13.1,0.5c5.5-0.3,10.8-1.6,15.9-4c7.2-3.3,14.7-6.1,22-9.3c6.7-3,13.9-4.5,20.2-8.9
		c5.6-3.9,12.2-6.3,18.1-9.9c6.3-3.9,13.1-6.8,18.8-11.9c5-4.4,8.8-9.6,13.3-14.1c4.4-4.4,7.5-9.6,10.6-14.7
		c5.7-9.3,7.9-19.8,9.2-30.4c0.9-7.4,2.1-14.8,2-22.2c-0.1-8.4-1.5-16.8-2.4-25.1c-0.2-1.5-0.1-3.1-0.5-4.5
		c-1.6-5.6-3.3-11.1-5-16.6c-0.4-1.3-0.9-2.8-0.5-3.9c1.3-3.3,0.4-6.4-0.2-9.6c-0.5-2.6-0.4-5.4-0.3-8c0.1-3.6,1.6-5.1,5.1-5.8
		c1.5-0.3,3.2-0.3,4.3-1.1c2.8-2,6-2.3,9.2-2.7c2-0.2,3.9-1.2,6.9-2.2c-0.2-0.1,0.8,0.3,1.8,0.7c1.3-1.2,2.4-2.8,3.9-3.5
		c4.8-2.3,10-4,14.7-6.6c6-3.2,12-6.7,17.5-10.6c3.9-2.7,7-6.5,10.5-9.6c2.6-2.3,4.9-5,7.7-7.2c4.1-3.3,7.8-7.3,11.3-11.2
		c2.8-3.1,5-6.6,7.6-9.8c6.9-8.4,13.5-17.1,18.7-26.7c1.3-2.5,2.1-5.3,2.8-8.1c1.6-6.5,2.9-13,4.4-19.5c0.9-3.9,1.9-7.8,2.6-11.7
		c1.6-8.8,3-17.7,4.8-26.5c1.4-7.1,3.3-14.1,2.4-21.5c-0.5-4-0.2-8,0.2-12c1.2-12.2-1.8-23.9-3.8-35.7c-0.1-0.7-1.2-1.2-1.8-1.8
		c-4.6,4.1-6.8,10.4-13.2,11.9c-0.3,0.1-0.4,0.6-0.6,0.9c-2.2,2.3-4.3,4.6-6.5,6.9c-3.2,3.2-7.4,5.2-10,9.3c-2,3.3-4.8,6.3-7.7,8.9
		c-7.4,6.6-15.1,12.9-22.6,19.3c-3.5,3-6.8,6.2-10,9.4c-3.4,3.3-6.5,6.8-9.9,10.1c-4.2,4-8.6,7.9-12.1,11.1
		c2.3,9.3,4.2,17.4,6.2,25.6c0.2,1,0.5,2.5-0.1,3.3c-1.2,1.9-0.5,3.6-0.3,5.5c0.3,3.7,2.3,7.4,0.4,11.3c-1.6,3.2-2.5,6.7-4.2,9.9
		c-4.8,8.7-11.2,15.7-20.1,20.3c-7.2,3.7-14.2,7.7-22.1,10.3c-9.4,3.1-18.3,5.8-28.3,4.6c-6.7-0.8-13.5-0.5-20.3-0.9
		c-2.2-0.1-3.8,0.6-5,2.2c-6.6,9.1-16.9,14.2-24.4,22.4c-2.6,2.8-5.8,4.9-7.7,8.3c-0.7,1.3-1.8,2.4-2.9,3.6
		c-3.1,3.4-6.3,6.8-9.4,10.1c5.5,5.5,10.9,10.9,16,16c-1.4,6.8-6.3,11.5-12.6,12.6c-2.3,0.4-4.9,0.4-6.8,1.6c-3.1,1.8-4.2,0.6-5.8-2
		c-2.5-4-5.6-7.7-8.7-11.8c-5.2,5.5-13.1,6.5-15.1,14.2c-2.7-2.7-2.9-5.3-0.8-7.9c3.4-4.3,7.1-8.4,11.1-13.1c-1.9-2.9-3.9-6-6-9.3
		c-5.4,3.9-10.7,6.6-13.1,12.5c-0.9-0.3-1.4-0.5-1.9-0.7c-0.2-0.1-0.4-0.1-0.5-0.1c-4.4-0.8-5.2-2.2-3-5.9c1.2-1.9,2.7-3.7,4.2-5.4
		c2.4-2.6,4.9-5.2,7.6-7.9c-3-3.7-6-7.3-9.6-11.7c-2.5,3.4-5.1,6-6.4,9.1c-1.6,3.8-4.3,3.5-7.4,3.9c-3.3,0.5-4.5-1.2-5.4-4.1
		c3.9-5.5,7.8-11.2,11.9-17c-3.5-3.8-6.8-7.4-10.5-11.5c-2.2,2.4-4.2,4-5.4,6.1c-1.6,2.9-4.1,1-6,1.8c-1.3,0.5-2.4,1.6-3.5,2.4
		c-2.6-4-2.7-4.8-0.2-7.8c2.4-2.9,4.9-5.8,7.5-8.8c-5.3-4.9-9.5-10.5-16.9-12.1c-1.3-0.3-2.4-2.8-2.9-4.5
		C172,824.5,172.5,822.9,172.5,821.9z"/>
	<path fill-rule="evenodd" clip-rule="evenodd" fill="#FFFFFF" d="M372.6,708.5c1-2.1,1.9-4.3,3.1-6.4c3.4-6.3,9.7-9.8,15.1-13.7
		c7.3-5.3,13.3-12,20.1-17.8c2.4-2.1,5-4.1,7.3-6.4c5.8-6,11.5-12.2,17.2-18.2c4.3-4.5,8.9-8.9,13.2-13.4c1.6-1.6,2.9-3.3,4.4-5
		c4.7-5.2,9.3-10.5,14-15.8c-3.7-4.4-7.1-8.3-10.6-12.4c-4.1,3.6-8.5,6.2-11,10.1c-3.7,5.8-8.6,10.1-13.3,14.8
		c-8.1,8.2-16.1,16.5-24.1,24.8c-1.3,1.3-3,2.7-3.3,4.2c-0.4,2.2-1.4,3.3-3.1,4.4c-1.2,0.8-2.3,1.9-3.3,3c-1.4,1.5-2.5,3.3-4.1,4.6
		c-8.7,7.2-17.4,14.3-26.1,21.4c-3.8,3.1-7.5,6.4-11.2,9.6c1.8,2.2,3.1,4.4,5,5.7C365.3,704.4,369,706.3,372.6,708.5z"/>
	<path fill-rule="evenodd" clip-rule="evenodd" fill="#FFFFFF" d="M976.9,80.5c3.1-6.5,5.1-13.1,8.9-18.3c5.4-7.4,4.9-15.7,5.7-23.8
		c0.2-2.2-0.9-5.1-2.4-6.8c-3.7-4.1-7.8-7.8-12-11.4c-1.2-1.1-3.1-1.4-4.7-1.9c-5.4-1.8-9.7-0.6-12.6,4.7c-0.9,1.6-2.7,2.6-4,4
		c-1.3,1.4-2.7,2.7-3.6,4.3c-2.4,4.5-4.9,9.1-6.8,13.9c-1.8,4.4-3.8,8.9-4.4,13.6c-0.9,7.3,2.1,12.9,8.4,17.5
		c5.9,4.3,11.7,6.3,18.3,4.1C970.8,79.4,973.4,79.2,976.9,80.5z"/>
	<path fill-rule="evenodd" clip-rule="evenodd" fill="#FFFFFF" d="M270.7,803.7c2.8-3,5.2-5.9,7.8-8.5c5.4-5.3,10.9-10.6,16.5-15.7
		c6.3-5.8,13-11.3,19.1-17.3c3.6-3.4,6.2-7.9,9.8-11.1c7.6-6.7,15.7-12.8,23.4-19.3c4-3.4,8.4-6.4,11.4-11.8
		c-4.5-3.2-9-6.4-13.5-9.6c-2.9,2.9-5.5,5.6-8.2,8.1c-5.7,5.5-11.5,11-17.3,16.5c-1.9,1.9-3.7,3.9-5.6,5.8
		c-4.8,4.6-9.7,9.1-14.6,13.7c-0.8,0.8-1.6,1.6-2.3,2.4c-4,4.8-7.3,10.3-13.2,13.1c-0.6,0.3-0.8,1.2-1.3,1.7
		c-2.9,3.3-5.8,6.7-8.9,9.8c-1.7,1.8-3.7,3.3-5.7,4.7c-2.2,1.6-2.5,3.6-1.6,6.1C267.9,795.9,269.2,799.5,270.7,803.7z"/>
	<path fill-rule="evenodd" clip-rule="evenodd" fill="#FFFFFF" d="M366.4,729.6c-1.8,1.5-3.3,2.9-5,4c-4.3,3-7,7.6-11.5,10.6
		c-5.9,3.9-11.4,8.4-16.8,12.9c-3.5,2.9-7.1,5.9-9.8,9.5c-4.8,6.3-10.7,11.2-16.6,16.3c-3.7,3.2-8,5.4-10.7,9.9
		c-2.9,4.8-5.9,9.8-11.9,11.8c-1.4,0.5-2.8,2.2-3.4,3.7c-0.5,1.2-0.3,3.2,0.4,4.2c5.5,7.4,8.5,7.5,14.7,0.6c0.4-0.4,0.6-1,1-1.4
		c3.6-4,6.6-8.6,10.8-11.6c3.9-2.8,7-5.7,9.5-9.7c2.2-3.5,5.1-6.7,9-8.5c3.7-1.7,6.8-3.9,9.3-7.3c1.6-2.2,4.5-3.3,6.7-5.1
		c3.1-2.5,6.3-4.9,9.2-7.7c5.8-5.6,11.4-11.5,17-17.3c3.5-3.6,3.4-3.7,1.1-8.3C368.4,734.1,367.5,732,366.4,729.6z"/>
	<path fill-rule="evenodd" clip-rule="evenodd" fill="#FFFFFF" d="M387.2,726.2c2.3-1.7,4.6-3.1,6.4-5c7.4-7.4,14.1-15.4,23.3-20.9
		c3.3-2,5.7-5.4,8.5-8.2c0.9-0.9,1.8-1.9,2.7-2.9c3.9-4.2,7.9-8.2,11.6-12.6c4.8-5.6,8.8-11.8,15-16.2c1.4-1,2.2-2.6,3.4-3.9
		c4.1-4.4,7.9-9.4,12.6-13c4.9-3.7,9.6-7.4,13.2-12.4c-1.7-3-2.1-6.7-5.3-8.6c-3.6,1-4.9,4.6-7.5,6.1c-5.6,3.4-8.5,9.1-13.1,13.4
		c-5.2,4.9-9.6,10.6-14.5,15.8c-1.2,1.3-3.2,2-4.3,3.5c-4.7,6.6-10.3,12.3-16.6,17.5c-4.9,4-9.3,8.4-14.2,12.4
		c-3.3,2.7-7.2,4.8-10.6,7.5c-5.4,4.2-10.6,8.7-15.9,13.1c-1.5,1.2-2.3,2.8-1.3,4.5C382.6,719.4,384.6,722.3,387.2,726.2z"/>
	<path fill-rule="evenodd" clip-rule="evenodd" fill="#FFFFFF" d="M381.3,771.9c-0.5-0.2-1.1-0.5-1.6-0.7c-5.3,4.2-11.2,7.5-15,13.6
		c-1.9,3-4.7,5.5-7.3,8c-4,3.8-8.7,6.9-12.3,11c-7.4,8.4-14.4,17.2-21.6,25.9c1.5,0.3,3,0.6,4.5,0.9c9.9,2.1,19.6,1.1,28.9-2.9
		c2.1-0.9,4.4-1.3,6.5-2.2c4-1.7,8.9-2.4,8.5-8.9c-0.2-2.6,1-5.8,2.6-7.9c1.7-2.3,1.7-4.5,1.8-7c0.2-4.9,0.3-9.7,1.8-14.5
		C379.6,782.2,380.2,777,381.3,771.9z"/>
	<path fill-rule="evenodd" clip-rule="evenodd" fill="#FFFFFF" d="M323,702.1c-9.7-0.6-18.3,0.3-25.3,6.9c-0.8,0.8-1.8,1.4-2.8,2
		c-6.9,4.5-13.7,9.1-18.5,16c-3.2,4.5-7,8.7-9.5,13.5c-3.9,7.4-10.2,13.7-9.9,23.1c0.1,3.2,0.6,5.4,3,7.5c2.7-2.2,5.5-4.2,7.9-6.5
		c2.4-2.4,4.4-5.2,6.6-7.9c1.9-2.4,3.6-4.9,5.6-7.3c8.8-10.4,19.5-19.3,26.8-31c0.7-1.1,1.8-2,2.8-2.8
		C314.6,712.1,319.2,708.2,323,702.1z"/>
	<path fill-rule="evenodd" clip-rule="evenodd" fill="#FFFFFF" d="M799,113.2c0.4,1.5,0.8,3.4,1.6,5.1c0.9,1.9,1.7,4.2,3.3,5.2
		c3,1.8,6.6,2.8,10,4.1c0.4,0.2,1.1-0.3,1.6-0.4c1.8-0.5,3.6-1,5.4-1.6c4-1.2,8.1-2.4,10.9-5.8c1.3-1.6,2.1-3.7,3.6-5
		c3.1-2.5,3.9-5.5,4-9.4c0.1-3.7-0.9-7.7,1.9-11.1c0.4-0.4,0.4-1.7,0-2.1c-3.9-5.1-7.5-10.7-14-12.9c-1.5-0.5-3.3-0.4-5-0.2
		c-2.2,0.3-4.4,1.1-6.7,1.4c-6.5,0.8-10.5,4.7-13.2,10.4C799.2,98,800.9,105.7,799,113.2z"/>
	<path fill-rule="evenodd" clip-rule="evenodd" fill="#FFFFFF" d="M937.2,21.4c-3.3-0.2-6.1,0.2-8.4-0.6c-4.5-1.5-8.5-2.6-12.4,1.3
		c-0.9,0.9-2.4,1.1-3.6,1.5c-5.1,1.6-10.6,8-10.9,13.3c-0.3,5.9-0.3,11.9,0,17.8c0.2,4.7,3.7,7.8,6.4,11.2c0.7,0.9,2.8,0.7,4.3,0.8
		c2.9,0.2,5.7,0.1,8.6,0.4c3.2,0.3,6.3,0.8,9.3,1.2c1.1-6.4,2-12,3-18.1c-1.1,0.4-1.9,0.4-2.4,0.8c-1.8,1.4-3.5,3-5.4,4.3
		c-2.8,1.9-6,1.9-8.7,0.2c-2.6-1.6-2.9-4.4-2.2-7.6c0.7-3.6,2.1-6,5-8.3c4.5-3.5,7.5-3.6,10.6,1.3c1.4,2.2,2.4,4.5,3.7,7
		c2.9-5.8,5.5-11,8.1-16.3c2-4,1.9-4-1.4-6.6C939.3,24,938.2,22.5,937.2,21.4z"/>
	<path fill-rule="evenodd" clip-rule="evenodd" fill="#FFFFFF" d="M397.5,741.9c4.8-4.5,9.8-8.4,13.9-13c6.5-7.2,12.8-14.6,21-20.2
		c1.7-1.2,3.1-2.8,4.8-4.1c3.1-2.5,6.3-4.8,9.3-7.4c3.1-2.7,6.9-5.1,8.9-8.5c2.4-4.1,5.5-7.2,8.9-10.2c2.7-2.3,5.2-4.8,7.9-7.1
		c2-1.6,4.4-2.8,6.4-4.5c4.2-3.4,7.1-7.9,10.3-12.1c1.8-2.3,2.1-4.3,1.4-6.7c-0.7-2.1-1.8-4-3.1-6.9c-4.9,4.8-9.4,8.8-13.6,13.2
		c-4,4.1-7.6,8.5-11.5,12.7c-7.6,8.2-15.7,15.9-22.9,24.5c-7.2,8.5-14.8,16.4-24.1,22.5c-4.8,3.1-8.3,7.2-11.8,11.5
		c-1.4,1.7-3,3.6-5,4.4c-2.6,1.1-4.4,2.7-5.8,5.1C394.2,737.4,395.7,739.3,397.5,741.9z"/>
	<path fill-rule="evenodd" clip-rule="evenodd" fill="#FFFFFF" d="M680.8,218.4c0.6,3.7,1.2,7.5,1.8,11.2c1.5,8.2,7.6,11.8,15.6,9.1
		c2.5-0.8,5-1.9,7.6-2.4c4.4-0.9,6.6-3.6,6.8-7.8c0.4-9.4,2.5-18.6,1.1-28.1c-1-7.2-7.2-14.9-14.2-16c-0.9-0.1-2.1,0-2.7,0.6
		c-3,2.5-6.8,4.6-8.5,7.8C684.4,200.7,680.6,209,680.8,218.4z"/>
	<path fill-rule="evenodd" clip-rule="evenodd" fill="#FFFFFF" d="M676.1,236.2c-1.2-4.1-3.6-8-3.3-11.7c0.7-9-1.1-18.3,3.6-26.8
		c1.5-2.7,0.5-4.9-2-6.3c-4.5-2.5-9.2-3.2-14.1-1.2c-2.4,1-4.5,3.1-7.2,0.7c-0.3-0.2-1.1-0.1-1.6,0.1c-4.5,1.9-8.8,4.2-9.6,9.6
		c-0.8,5.2-2,10.5-1.5,15.7c0.5,4.9,1.1,10.2,5.5,13.9c5.8,4.8,12.3,7.7,19.9,7.3C669.3,237.3,672.6,236.6,676.1,236.2z"/>
	<path fill-rule="evenodd" clip-rule="evenodd" fill="#FFFFFF" d="M300.8,823.4c7.7,3.7,11.8,4.1,15.8,0.6c3.2-2.8,6-6.2,8.7-9.5
		c6.3-7.5,12.4-15.1,18.6-22.6c0.4-0.4,0.6-1,1.1-1.3c5.8-4,12.1-7.6,15.5-14.3c0.6-1.1,1.2-2.2,2-3.1c1.5-1.7,3-3.4,4.8-4.7
		c3.5-2.5,7.1-4.6,10.6-6.9c-1-4-1.9-7.4-2.9-11.1c-1.2,0.8-1.7,1.1-2.1,1.5c-5.2,5.5-10.2,11.3-15.6,16.6c-4.2,4-8.9,7.5-13.5,11.1
		c-6.6,5-13.8,9.1-19.4,15.4c-2.9,3.2-6.5,5.8-8.2,10c-0.3,0.9-1,1.9-1.7,2.3c-5.9,3-7.3,10.3-12.9,13.5
		C301.2,821.1,301.1,822.5,300.8,823.4z"/>
	<path fill-rule="evenodd" clip-rule="evenodd" fill="#FFFFFF" d="M789.8,118c0.7-9.6,1.4-18.7,2.1-28.2c-2.5,1.4-4.2,0.8-6.2-1
		c-2.5-2.3-5.5-3.7-9.3-3.7c-12.5,0.1-22.3,8.6-25.2,21.6c-1.1,4.8,1.3,8.6,2.3,12.7c0.8,3.1,4.4,1.3,6.5,2.6
		c0.9,0.6,2.1,0.9,3.2,1.3c7,2.6,13.8,2.2,19.9-2.3C785.1,119.5,786.7,117.2,789.8,118z"/>
	<path fill-rule="evenodd" clip-rule="evenodd" fill="#FFFFFF" d="M926.8,281.5c5.2-0.5,10.6-0.6,15.8-1.6c3.5-0.7,6.7-2.4,10.1-3.8
		c7.6-3.1,10.9-13.4,6.8-20.8c-0.8-1.4-1.3-3.1-1.6-4.7c-0.6-3.9-1.4-5-5.5-4.9c-4.9,0-9.9,0.2-14.7,1.1c-4.3,0.9-9.2,1.9-12.5,4.6
		c-5.1,4.2-8.8,10-9.8,16.8c-0.6,4.1,0.8,7.9,3.4,11.3C921,282.4,924,281.1,926.8,281.5z"/>
	<path fill-rule="evenodd" clip-rule="evenodd" fill="#FFFFFF" d="M263.4,810.7c-3.1-4.8-6.1-9.4-9.4-14.4
		c-6.5,6.1-12.4,11.6-18.4,17.2c-0.8,0.8-1.4,2-2.4,2.4c-9.7,4.3-12.9,14.6-20.7,20.8c3.1,3.5,5.5,6.4,8.3,9c0.8,0.8,2.9,1.1,4,0.7
		c1.8-0.7,3.6-2,4.9-3.4c3.9-4.2,7.4-8.8,11.4-12.8c3.9-3.9,8.2-7.3,12.4-10.9C256.9,816.4,260.2,813.5,263.4,810.7z"/>
	<path fill-rule="evenodd" clip-rule="evenodd" fill="#FFFFFF" d="M951.5,286.3c-2.2,2.2-4.7,2.9-7.8,2.1c-1.3-0.4-3,0.5-4.5,0.6
		c-5.7,0.3-11.1,2.4-17,0.9c-7.3-1.9-11,1.3-11.3,9.1c0,1.3,0,2.7,0.2,4c1.1,8.3,8,14.1,16.3,14c2.3,0,4.7-0.2,6.9,0.4
		c3.3,0.9,6-0.2,8.8-1.4c6.4-2.9,9.6-8,11.8-14.5C956.9,295.5,956.1,290.8,951.5,286.3z"/>
	<path fill-rule="evenodd" clip-rule="evenodd" fill="#FFFFFF" d="M242.3,865.7c5.6-4.9,11-9.5,16.3-14.3c3.3-2.9,6.4-6,9.5-9.2
		c4.5-4.5,8.8-9.2,13.5-14.1c-3.9-3.5-7.4-6.6-11-9.8c-3.4,3.2-6.4,6.1-9.4,8.8c-0.8,0.7-1.9,1.2-2.8,1.9c-2,1.5-4.1,2.8-5.8,4.6
		c-4,4.3-7.7,8.9-11.8,13.1c-2.9,2.9-6.2,5.4-9.7,8.4C234.9,858.7,238.4,862.1,242.3,865.7z"/>
	<path fill-rule="evenodd" clip-rule="evenodd" fill="#FFFFFF" d="M514.2,855.4c1.1-2.8,1.4-5.4,2.9-6.7c4.5-4.1,4-8.5,1.9-13.4
		c-0.8-1.9-1.1-4.1-2.1-5.9c-6.5-13-11-26.8-15.6-40.6c-0.4-1.3-1.1-2.6-1.7-3.9c-0.4,0-0.8-0.1-1.2-0.1c-1.2,4.2-3.1,8.4-3.6,12.7
		c-0.8,6.5,2.3,12.1,4.9,17.9c2.1,4.6,3,9.7,4.3,14.6c0.8,3.1,1.2,6.3,2.4,9.2C508.6,844.4,511.2,849.4,514.2,855.4z"/>
	<path fill-rule="evenodd" clip-rule="evenodd" fill="#FFFFFF" d="M486.5,902.8c-8.2-20.4-11.4-41.1-18.2-61.1
		c-2.1,1.6-3.8,2.6-4.9,4c-0.9,1.2-1.7,3-1.6,4.5c0.1,2.7,0.7,5.5,1.3,8.2c1.1,5.5,2.3,11.1,3.6,16.6c1.7,7.2,3.9,14.3,5,21.6
		c0.9,5.9,3.9,9.6,9,12.6C482.8,906.9,484.8,904.7,486.5,902.8z"/>
	<path fill-rule="evenodd" clip-rule="evenodd" fill="#FFFFFF" d="M503.4,873.2c2.5-3.8,4.5-6.8,6.5-9.7c1.3-2,1.6-3.7-0.2-5.7
		c-6.7-7.1-9.8-16.2-12.1-25.3c-1.9-7.4-4.7-14.2-8.9-21.3c-1.2,3.2-3.1,5.8-3,8.3c0.1,5.5,0.6,11.1,2,16.4
		c2.2,8.2,5.1,16.3,8.2,24.3C497.5,864.8,499.3,869.4,503.4,873.2z"/>
	<path fill-rule="evenodd" clip-rule="evenodd" fill="#FFFFFF" d="M443.7,868.3c-5.4,3.2-6.7,7.9-6.4,13c0.5,9,1.4,18,2.1,27
		c0.1,0.7,0.7,1.4,0.9,2.1c0.7,2.4,1.1,4.8,1.9,7.1c1.5,4.2,3.1,8.4,4.8,12.9c1.7-0.7,2.8-1.1,3.8-1.6c5.3-2.8,5.3-3.8,3-9.5
		c-1.4-3.4-2-7.3-2.6-11c-0.6-4.1-0.4-8.4-1.1-12.5c-1.3-7.3-2.9-14.6-4.4-21.8C445.2,872.1,444.5,870.4,443.7,868.3z"/>
	<path fill-rule="evenodd" clip-rule="evenodd" fill="#FFFFFF" d="M299.6,837.5c-2.4-3.8-6.6-2.5-9.2-4.3
		c-7.1,6.9-13.9,13.4-20.7,20c-6.8,6.6-14.8,11.8-21,19.6c2.7,2.5,5,4.7,7.6,7.3c3.1-2.8,6.1-5.3,8.8-8.1c6-6.3,11.9-12.7,17.9-19
		c1.6-1.6,3.3-3.3,5.3-4.4C293.1,845.9,296.2,841.6,299.6,837.5z"/>
	<path fill-rule="evenodd" clip-rule="evenodd" fill="#FFFFFF" d="M465.3,922c2.3-2.2,4.8-4.4,6.8-6.3c-1.2-3.3-1.8-5.3-2.7-7.2
		c-2.4-5.3-3.1-10.9-4.4-16.5c-1.5-6.2-4.5-12.1-5.1-18.7c-0.3-3.8-1.1-7.6-2-11.3c-0.4-1.9-1.5-3.6-2.4-5.6
		c-5.9,4.4-6.6,6.8-4.8,12.6c1.4,4.7,2.8,9.5,3.6,14.3c1.1,6.6,1.4,13.3,2.6,19.8C458.2,909.8,457.9,917.2,465.3,922z"/>
	<path fill-rule="evenodd" clip-rule="evenodd" fill="#FFFFFF" d="M478.6,828.6c-0.6-0.1-1.1-0.2-1.7-0.3c-0.7,2.1-2,4.2-1.8,6.2
		c0.4,4.5,1.5,9,2.6,13.4c2.1,8.9,4.2,17.8,6.6,26.6c2,7.2,3.3,14.7,7.1,22.3c3.8-6.3,9.3-10.8,10.3-18.2c-2.1-0.4-3.9-0.8-5.3-1.1
		C488.5,861.6,484.6,844.7,478.6,828.6z"/>
	<path fill-rule="evenodd" clip-rule="evenodd" fill="#FFFFFF" d="M508,756.3c1.1,1.6,2.7,3,3.1,4.6c1.5,7.1,4,13.6,7.9,19.8
		c2.1,3.5,2.6,7.9,4.6,11.5c2.7,4.8,4.8,9.8,5.9,15.2c0.5,2.5,1.6,4.9,2.5,7.3c0.4,0,0.8,0,1.2,0c0.8-3.6,1-7.5,2.5-10.8
		c1.7-3.8,0.5-6.6-1.1-9.7c-0.7-1.3-1.7-2.6-2.4-3.9c-3.4-6.2-7.1-12.2-9.9-18.6c-2.4-5.5-3.8-11.4-5.6-17.1
		c-1.1-3.7-3.2-7-3.8-10.9c-0.1-0.5-1.3-0.9-2.1-1.4c-0.4,2.5-0.6,4.7-1,6.9C509.2,751.6,508.5,754,508,756.3z"/>
	<path fill-rule="evenodd" clip-rule="evenodd" fill="#FFFFFF" d="M399.7,1014c1.3-4.3,2.9-8.5,4-12.8c2.3-8.8-2-16.5-4.7-24.3
		c-1.9-5.3-4.9-10.3-7.4-15.4c-0.7-1.5-1.1-3.4-3.4-3.1c-2.1,9.3-1.4,18.1,3,26.7c1.5,3,2.2,6.5,2.6,9.8c0.6,6.6,4.1,12.3,5.5,18.7
		C399.2,1013.8,399.5,1013.9,399.7,1014z"/>
	<path fill-rule="evenodd" clip-rule="evenodd" fill="#FFFFFF" d="M524.7,833.5c0.5,0,1,0.1,1.6,0.1c1.8-4.6,3.7-9.3,5.3-13.2
		c-2-1.7-3.6-2.6-4.3-3.9c-1.9-3.7-3.3-7.6-5-11.3c-2.8-6.2-5.6-12.3-8.5-18.5c-2.7-5.9-5.5-11.8-8.5-18.3c-2.6,4.4-3,7.3-0.5,11.3
		c2.8,4.4,4.3,9.7,6,14.8c1.9,5.6,3.3,11.3,5.1,16.9c2,6,4.2,11.8,6.5,17.7C523,830.6,523.9,832,524.7,833.5z"/>
	<path fill-rule="evenodd" clip-rule="evenodd" fill="#FFFFFF" d="M419.6,939.2c2.5-0.6,5.1-1.2,7.7-1.8c2.1-0.5,2.8-1.5,2.2-3.7
		c-1.5-5.5-2.7-11.1-4.1-16.7c-0.9-3.6-0.9-7.5-3.9-10.4c-1-0.9-1.1-2.8-1.4-4.2c-0.9-3.8-1.7-7.6-2.5-11.3c-3.8,0.4-5.2,2.2-5,5.2
		c0.2,2,0.6,4.1,0.9,6.1c0.4,2.8,1.4,5.6,1,8.3c-0.5,3.9-0.8,7.5,0.9,11.1c0.6,1.3,0.8,3,0.7,4.5
		C415.8,930.9,417.1,935.1,419.6,939.2z"/>
	<path fill-rule="evenodd" clip-rule="evenodd" fill="#FFFFFF" d="M412.8,939.6c-1.4-6.6-2.6-13.2-4.3-19.7
		c-1.7-6.5-0.8-13.8-5-19.9c-7,6.6-7.2,30.7-0.5,42.4C406,941.6,409,940.7,412.8,939.6z"/>
	<path fill-rule="evenodd" clip-rule="evenodd" fill="#FFFFFF" d="M652.1,257.2c3.1,4.7,5.4,8.5,7.9,12.1c0.4,0.6,1.1,1,1.6,1.5
		c5.7,4.8,5.7,4.8,14,3.7c4.6-0.6,7.3-4.9,6.5-9.5c-1.6-9-13.7-10.7-20.5-6.3c-3.7,2.5-3.6,2.6-7.1-0.3
		C654.1,258,653.4,257.8,652.1,257.2z"/>
	<path fill-rule="evenodd" clip-rule="evenodd" fill="#FFFFFF" d="M868.6,295.3c4,0.3,6.8,1.2,9.1,0.5c4.3-1.3,8.4-3.4,12.4-5.6
		c2.1-1.1,4.5-2.9,5.3-4.9c1.9-4.9,3.3-10,0.9-15.9c-1.9,0.5-4.8,0.5-5.5,1.8c-2.5,4.4-7.1,6.5-10.2,10.1
		C876.9,285.6,873.2,289.8,868.6,295.3z"/>
	<path fill-rule="evenodd" clip-rule="evenodd" fill="#FFFFFF" d="M359.7,1082.6c-1.4-2.2-2.2-4-3.4-5.4c-3.1-3.9-4.4-8.3-4.9-13.2
		c-0.5-4.4-1.7-8.8-2.7-13.5c-3.8,2.2-5.2,4.7-5.2,8.9c0,8,0.1,16,2.1,23.8c0.6,2.4,1.3,4.9,2,7.4
		C353.5,1089.8,355.2,1084.7,359.7,1082.6z"/>
	<path fill-rule="evenodd" clip-rule="evenodd" fill="#FFFFFF" d="M297.8,1113.1c-0.6-2.6-1.3-5.2-1.8-7.7
		c-1.1-5.2-2.5-10.3-2.9-15.6c-0.6-6.5-2.8-7.8-8.9-4.5c0,0.7,0.1,1.5,0.1,2.2c0.1,4.9,1.2,10,0,14.5c-1.1,4-0.3,6.9,1,10.3
		c0.9,2.3,2.4,2.7,4.5,2.2C292,1113.9,294.4,1113.6,297.8,1113.1z"/>
	<path fill-rule="evenodd" clip-rule="evenodd" fill="#FFFFFF" d="M435.1,935.7c6.4-2.2,6.5-2.3,5.1-7.3c-2.2-7.4-4.6-14.8-6.9-22.2
		c-0.4-1.2-0.8-2.7-0.6-3.9c0.7-3.3-0.4-6.3-1.1-9.5c-0.7-2.9-0.9-6-1.4-9c-0.2-1-0.4-1.9-0.8-3.5c-1.9,1.7-3.3,2.9-4.8,4.1
		C427.2,901.8,430.4,918.7,435.1,935.7z"/>
	<path fill-rule="evenodd" clip-rule="evenodd" fill="#FFFFFF" d="M513.8,725.1c-2.4,4-1.8,6.8,0.5,9.7c1.8,2.3,3.4,5,4.5,7.8
		c2.8,7.1,5.2,14.3,8,21.4c2.1,5.3,4.8,10.4,7.2,15.6c0.4,0.9,1.1,1.8,1,2.6c-0.7,3.7,2.2,5.3,3.9,7.7c2.9-3.9,5-7.4,0.6-11.3
		c-0.5-0.4-0.5-1.4-0.8-2.1c-1.7-4.4-3.5-8.7-6.3-12.6c-2.6-3.7-4.7-7.8-6.6-12C521.8,743.2,518,734.5,513.8,725.1z"/>
	<path fill-rule="evenodd" clip-rule="evenodd" fill="#FFFFFF" d="M341.6,1094.8c-2.9-11.2-8.3-22-6.3-34.6
		c-6.3,3.2-6.8,4.2-6.3,9.6c0.4,3.8,0.9,7.6,0.7,11.4c-0.4,6.6,0.6,12.9,3.2,19.4C335.7,1098.6,338.5,1096.8,341.6,1094.8z"/>
	<path fill-rule="evenodd" clip-rule="evenodd" fill="#FFFFFF" d="M320.3,1069.8c-5.2,0.9-6.7,4.2-6.4,8.4
		c0.5,7.2,1.3,14.4,2.3,21.5c0.3,2,1.2,4,2.4,5.8c1.3,2,3.4,1.5,5.1,0.5c1.5-0.9,1.5-2.3,0.8-4c-0.7-1.9-1.3-3.9-1.3-5.9
		C323,1087.3,322.7,1078.6,320.3,1069.8z"/>
	<path fill-rule="evenodd" clip-rule="evenodd" fill="#FFFFFF" d="M931.3,130.4c1.4-1.6,2.8-2.8,3.8-4.3c2.4-3.6,4.6-7.4,6.9-11.1
		c2.7-4.2,3.1-9.1,0.3-10.9c-3.5-2.3-7.4-3.6-11.8-2.4c0,1.2-0.2,2.2,0,3.1c1.3,5.3,1,10.4-0.2,15.7
		C929.8,123.2,927.8,126.6,931.3,130.4z"/>
	<path fill-rule="evenodd" clip-rule="evenodd" fill="#FFFFFF" d="M376,1017.2c-0.4,0.2-0.9,0.3-1.3,0.5c1,13.1,0.7,26.5,10.6,38
		c1.7-1.7,3.9-2.9,4-4.2c0-2.5,2.2-4.6-0.1-7.8c-3.4-4.7-6.6-9.8-8-15.8C380.2,1024.2,377.8,1020.8,376,1017.2z"/>
	<path fill-rule="evenodd" clip-rule="evenodd" fill="#FFFFFF" d="M392.6,1038.2c0.5,0,0.9-0.1,1.4-0.1c0.5-4.6,3.3-9.2-0.5-13.7
		c-0.5-0.5-0.7-1.4-0.7-2.1c-0.1-6.4-2.2-12.3-4.2-18.2c-1.7-5.1-3.1-10.2-4.7-15.8c-2.8,5-4.4,9.4-1.4,14.3
		c0.3,0.5,0.2,1.1,0.3,1.7c1,6.5,1.8,13.1,5.5,18.9c1.4,2.2,1.7,5,2.4,7.6C391.3,1033.1,392,1035.6,392.6,1038.2z"/>
	<path fill-rule="evenodd" clip-rule="evenodd" fill="#FFFFFF" d="M312.2,1109.6c-1.1-3.8-2.4-7.4-3.2-11.1
		c-0.5-2.5-0.1-5.2-0.5-7.7c-0.7-4.5-1.8-9-2.7-13.5c-5.8,0.4-7.4,2.3-6.2,7.6c0.5,2.4,1.2,4.8,1.6,7.2c1.1,6.8,2.2,13.6,3.3,20.5
		C307.5,1111.5,309.7,1110.6,312.2,1109.6z"/>
	<path fill-rule="evenodd" clip-rule="evenodd" fill="#FFFFFF" d="M791.1,150.9c1.8,3.1,3.4,6.4,5.4,9.3c2.1,3,4.9,4.6,8.9,2.9
		c1.8-0.8,4-0.8,5.9-1.2c2.2-6.4-1.5-10.1-6.1-12.7C800.6,146.7,795.7,146.8,791.1,150.9z"/>
	<path fill-rule="evenodd" clip-rule="evenodd" fill="#FFFFFF" d="M118.5,1076.2c-0.3,3.9-0.5,6.3-0.6,8.7c-0.1,2.7-0.1,5.4,0.2,8
		c0.4,3.4,1.3,6.7,1.9,10.1c0.7,3.6,2.2,6.5,6.4,7c0.2-0.7,0.7-1.3,0.6-1.7c-1.4-7.9-1.3-15.8-0.1-23.7c0.1-1-0.3-2.4-1-3
		C123.8,1079.6,121.5,1078.2,118.5,1076.2z"/>
	<path fill-rule="evenodd" clip-rule="evenodd" fill="#FFFFFF" d="M146.4,1114.2c-1.4-8.7-2.8-17.1-4.2-25.8
		c-1.9-0.8-4.1-1.8-6.4-2.9c-2.5,9.9-1.4,17.6,2.8,25.3C140.4,1114,142.8,1114.3,146.4,1114.2z"/>
	<path fill-rule="evenodd" clip-rule="evenodd" fill="#FFFFFF" d="M252.3,1123.3c0.8-4.4-1.7-8-2.6-11.9c-0.9-4-1.1-8.1-1.7-12.6
		c-2.4,0.5-4.2,0.8-6.7,1.3c-0.1,6.5-0.3,13-0.3,19.4c0,2.2,1.2,3.5,3.6,3.5C246.9,1122.9,249.1,1123.1,252.3,1123.3z"/>
	<path fill-rule="evenodd" clip-rule="evenodd" fill="#FFFFFF" d="M64.3,1062.5c-0.6-2-1.4-3.9-1.6-5.9c-0.7-6.4-1.1-12.9-1.6-19.3
		c-0.4-5.8-1.8-7.6-8-9.8C52.7,1040.5,53.9,1052.8,64.3,1062.5z"/>
	<path fill-rule="evenodd" clip-rule="evenodd" fill="#FFFFFF" d="M278.5,1087.2c-6.7,2-6.7,2.1-7.6,7.8c-0.2,1.5-0.7,3-0.8,4.5
		c-0.4,4-1,8,2.4,11.2c0.8,0.8,1.2,2.4,1.4,3.6c0.4,3.4,2.4,2.7,4.6,2.1C278.5,1106.8,278.5,1097.3,278.5,1087.2z"/>
	<path fill-rule="evenodd" clip-rule="evenodd" fill="#FFFFFF" d="M359.6,1041.3c-0.3,0-0.6,0-1,0c-0.4,2.2-0.7,4.5-1.1,6.7
		c-1.5,8.2,2.2,15.9,2.6,24c0.1,1.9,2.1,3.7,3.5,5.9c2.1-2.5,3.6-4.4,5.1-6.1c-2.7-4.2-2.4-4.3-3.8-11
		C363.5,1054.2,361.4,1047.8,359.6,1041.3z"/>
	<path fill-rule="evenodd" clip-rule="evenodd" fill="#FFFFFF" d="M95,1063.9c-3.6-1.1-6.4-1.9-9.3-2.8c0.4,5.5,0.4,10.6,1.1,15.6
		c1,6.8,4,9.8,10.2,11C95.8,1080.1,92.8,1072.6,95,1063.9z"/>
	<path fill-rule="evenodd" clip-rule="evenodd" fill="#FFFFFF" d="M191.1,1121.8c0.1-1.5,0.5-2.6,0.2-3.4c-1.5-3.8-1.7-7.8-1.9-11.9
		c-0.2-5.3-3-7-8.8-6.3c-1.1,5.6-0.4,11,2.9,21.1C185.8,1121.4,188.3,1121.6,191.1,1121.8z"/>
	<path fill-rule="evenodd" clip-rule="evenodd" fill="#FFFFFF" d="M234,1122.2c-0.5-7.3,0.9-14.6-1.3-21.8c-2.2-0.3-4.2-0.5-6.5-0.8
		c-0.8,2.7-2.5,5.3-2.1,7.6c0.8,4.6,2.7,9.1,4.3,13.5C229.2,1122.9,231,1123.4,234,1122.2z"/>
	<path fill-rule="evenodd" clip-rule="evenodd" fill="#FFFFFF" d="M111.6,1100.8c0.3-1.4,0.5-1.8,0.5-2.1
		c-0.5-6.5-2.8-12.9-1.8-19.7c0.4-2.3-1.9-5.3-3.6-7.5c-0.9-1.2-3-1.4-4.8-2.1c-1.7,10.7,4.6,18.8,6.1,27.9
		C108.3,1098.4,110.1,1099.3,111.6,1100.8z"/>
	<path fill-rule="evenodd" clip-rule="evenodd" fill="#FFFFFF" d="M207.2,1123.7c-1.4-3.9-3.1-6.9-3.4-10.2c-0.4-3.3,0.6-6.7,0.9-10
		c-2.6-1-4.7-1.8-6.6-2.5c-3.2,7.5-1.9,14.4,1.4,21.9C201.6,1123.2,204.2,1123.4,207.2,1123.7z"/>
	<path fill-rule="evenodd" clip-rule="evenodd" fill="#FFFFFF" d="M261.5,1121.1c2-0.9,3.9-1.8,6.1-2.8c-4.6-7.5-5.4-15.3-6.1-23.1
		c-3,0.1-4.5,1-4.4,3.4C257.4,1106.2,256.8,1113.9,261.5,1121.1z"/>
	<path fill-rule="evenodd" clip-rule="evenodd" fill="#FFFFFF" d="M391.6,946.7c2.1,3.7,4,6.9,5.7,10.1c1.7,3.2,3.2,6.4,4.7,9.6
		c1.5,3.2,0.7,7.4,4.6,10.2c-0.2-2.4-0.4-4.1-0.4-5.8c0.2-5.9-1.1-11.3-5.2-15.8c-1-1.1-1.3-2.7-1.9-4c-1.3-3.2-2.6-6.5-5.5-9.4
		C392.7,943.8,392,945.6,391.6,946.7z"/>
	<path fill-rule="evenodd" clip-rule="evenodd" fill="#FFFFFF" d="M70.3,1044.3c0.4,8.7,0.7,16.5,1.3,24.3c0.3,3.6,3.6,5.9,7.7,5.4
		c-1.8-6.6-3.6-13.2-5.3-19.8c-0.3-1-0.1-2.4,0.3-3.4C75.8,1047.4,73.9,1045.9,70.3,1044.3z"/>
	<path fill-rule="evenodd" clip-rule="evenodd" fill="#FFFFFF" d="M379.5,1062c-5.7-8.6-5.8-18.8-12.8-27.2
		c2,11.3,3.3,21.6,7.3,30.4C375.9,1064.1,377.9,1062.9,379.5,1062z"/>
	<path fill-rule="evenodd" clip-rule="evenodd" fill="#FFFFFF" d="M216.9,1101c-3-0.1-4,0.8-4.4,3.5c-1,6.6,1.9,12.6,2.5,19.2
		c1.8-0.5,3.4-0.9,5.3-1.4c0-3.2,1-6.8-0.2-9.1C217.9,1109.4,217.2,1105.5,216.9,1101z"/>
	<path fill-rule="evenodd" clip-rule="evenodd" fill="#FFFFFF" d="M156.2,1115.8c2.4,0.3,4.3,0.5,5.5,0.6c-0.5-3.8-0.9-7.3-1.4-10.7
		c-1.3-8,0-8.1-7.5-9.8C151.2,1102.9,154.8,1108.9,156.2,1115.8z"/>
	<path fill-rule="evenodd" clip-rule="evenodd" fill="#FFFFFF" d="M175.2,1097.6c-2.6,0.5-4.5,0.8-5.9,1c-3.7,4.7-0.6,9.3-0.7,13.9
		c0,1.1,0.4,2.2,0.8,3.3c0.9,2.9,3.2,3.2,6.1,3.4c-0.7-3.9-1.6-7.2-1.7-10.5C173.8,1105.2,174.6,1101.7,175.2,1097.6z"/>
	<path fill-rule="evenodd" clip-rule="evenodd" fill="#FFFFFF" d="M37,994.9c-2.7,3.4-2.7,6.1-1.6,9.3c1.6,4.6,2.6,9.4,3.9,14.2
		c0.3,0.9,0.9,1.8,1.3,2.7c0.4-0.1,0.8-0.2,1.2-0.3c-1.6-4.5,0.5-9.3-2.1-13.6c-1.6-2.6-3.1-5.1-1.5-8.3
		C38.6,998.1,37.6,996.8,37,994.9z"/>
</g>
<path fill-rule="evenodd" clip-rule="evenodd" d="M475.2,604.2c5.2-5.5,10.8-9,12.9-15.7c0.4-1.4,1.5-2.6,2.6-3.6
	c6.4-6.2,12.9-12.3,19.3-18.6c5.6-5.5,10.8-11.3,15.1-18c3.3-5.2,8.6-9.1,13-13.5c2.8-2.8,5.7-5.6,8.4-8.6c4.5-5,8.9-10,13.1-15.2
	c3.5-4.4,6.3-9.6,10.2-13.6c4.3-4.5,6.7-10.3,11.8-14.5c5.2-4.2,8.2-10.9,13-15.8c8.6-8.9,15.1-19.6,24.2-28.2
	c3.6-3.5,6.4-8.3,9.1-12.9c4.7-7.8,10.5-15,15.9-22.3c0.8-1,1.9-1.9,3.1-2.6c7.8-4.1,13.2-10.8,19-17.1c6.5-7,9.9-16,16-23.3
	c4.9-6,8.9-12.7,14.6-18.1c2-1.9,2.6-5.4,4.7-7c6.8-5.3,10.3-13.1,15.8-19.4c0.6-0.7,0.7-1.8,1.2-2.6c2.3-3.5,4.3-7.2,7-10.4
	c3-3.4,6.4-6.5,9.9-9.4c5.2-4.2,8.4-9.8,11.9-15.2c1.7-2.7,4.2-5,5.8-7.8c5.4-9.4,10.4-19.1,15.9-28.5c3.3-5.7,7.3-11.1,10.7-16.8
	c1.4-2.4,2.3-5.2,3.3-7.9c1.5-4.3,2.9-8.7,4.5-12.9c0.5-1.4,1.3-2.7,2.1-4c3.3-5.2,3.3-11.2,3.9-17c0.2-2.4-0.4-4.9-0.2-7.3
	c0.6-4.8-2.6-8-4.7-11.6c-1.3-2.3-3.7-4.2-4.3-6.6c-1.1-4.1-3.9-5.4-7.3-6.5c-0.9-0.3-1.9-0.4-2.7-0.9c-9.1-5.6-18.5-10.8-27.1-17
	c-5.3-3.8-7.8-9.8-6.6-16.8c0.4-2.4,0.8-4.9,0.9-7.3c0.4-10.6,5.5-18.8,13.4-25.3c2.6-2.2,6.3-3.1,9.3-4.9c1.5-0.8,2.7-2,4-3.2
	c3.9-3.5,8.4-5.7,13.6-7.1c3.7-1,7.3-1.8,11.1-1.9c3.2-0.1,5.9,0.5,8.9,1.4c3.2,0.9,6.7,0.3,10.1,0.4c2.2,0.1,4.4,0.1,6.7,0.2
	c1.9,0.1,3.8,0.3,5.7,0.3c3.8-0.1,7.2,0.9,10.2,3.1c7.3,5.6,13,12.6,16.2,21c2.7,7.1,3.3,14.7,2.4,22.3c-0.8,6.5-2,13-2.9,19.5
	c-0.2,1.5,0.1,3.1-0.1,4.6c-0.3,2.4-0.7,4.8-1.1,7.3c-0.8,4.5-1.8,8.9-2.4,13.5c-1.1,7.6-4.1,14.6-6.9,21.7
	c-3.4,8.5-6.6,17.1-11.1,25c-3.5,6.1-6.2,12.7-9.6,18.7c-2.2,3.9-3.9,8.1-6.3,11.7c-2.5,3.8-6,6.9-8.6,10.6
	c-7.1,10.4-13.8,21-21,31.3c-3.6,5.1-7.7,10.1-12.3,14.3c-7.9,7.1-14.9,14.6-19.3,24.5c-2,4.5-4.8,8.6-9.1,11.5
	c-2.5,1.7-4.5,4-6.5,6.3c-5.3,5.9-11.8,11.3-15.5,18.1c-4.2,7.9-11.3,12.8-16.5,19.5c-3.3,4.1-6.9,7.9-9.9,12.4
	c-1.6,2.4-4.6,4-6.9,5.9c-2.2,1.8-4.8,3.3-6.7,5.3c-7.1,7.4-14.1,15-20.9,22.7c-6,6.8-11.6,13.8-17.4,20.8c-0.2,0.3-0.5,0.6-0.7,0.9
	c-3,7.6-9.8,11.7-15,17.4c-2.7,3-5,6.4-7.6,9.5c-5.5,6.6-11.1,13-16.5,19.6c-1.3,1.6-2.1,3.7-3.4,5.3c-1.1,1.5-2.4,3.4-4,4
	c-4,1.4-6.6,4.1-9.3,7.1c-0.8,0.9-1.5,1.8-2.5,2.3c-8.1,4.3-12.8,11.8-17.5,19.1c-2.4,3.8-5.2,7-8.6,9.8c-2.5,2-4.8,4.3-6.9,6.8
	c-4.7,5.5-9.2,11.2-13.7,16.7c-0.2,0.3-0.6,0.5-0.9,0.7c-4.3,3-6.8,7.4-10,11.4c-3.2,4.1-7.4,7.6-11.5,10.8
	c-8.9,7.1-17,14.7-22.7,24.8c-1.3,2.3-3.7,3.9-3.2,7c0.6,3.9,0.3,8.1,3.8,11.3c7.2-5.8,14.2-11.5,19.6-19.1
	c3.1-4.4,7.9-7.7,11.7-11.7c3.6-3.8,6.9-8,10.4-12c1.6-1.8,3.2-3.7,5.2-5.1c5.1-3.5,8.7-8.2,12.6-12.8c7.1-8.2,12.4-18,21.9-24
	c0.8-0.5,1.3-1.3,2-2c6.3-6.7,12.7-13.3,18.8-20.1c2.3-2.5,4.1-5.5,6.1-8.2c3.1-4.1,5.9-8.5,9.5-12.2c5.1-5.3,10.9-10,16-15.2
	c5.2-5.2,11.5-9.4,15.3-16.1c2.1-3.7,5.6-6.8,8.6-9.9c9.5-9.9,19.9-18.8,28.5-29.5c3.4-4.3,7.4-8.2,11-12.3c1.2-1.4,1.9-3.2,3.1-4.7
	c2.7-3.4,5.4-6.9,8.3-10.1c4.8-5.2,10-10,14.8-15.2c4.6-4.8,9.5-9.4,13.3-14.8c6.2-8.8,15.4-14.1,22.6-21.6c3.3-3.4,6.1-7.5,10-10.1
	c6.5-4.4,10.4-10.6,14.7-16.7c4.8-6.8,10.8-12.8,16.6-18.8c5.1-5.3,10.8-10.1,15.7-15.6c4.4-4.9,8.1-10.5,11.9-15.9
	c4.4-6.2,8.2-12.9,12.9-18.9c4.1-5.3,8.9-10,13.5-14.8c5.3-5.7,11.1-11,16.1-17c5.4-6.4,10.8-12.7,14.7-20.2c2.2-4.3,6-7.8,9.1-11.7
	c7.4-9.4,14.9-18.8,22.3-28.3c0.8-1,1.3-2.3,1.6-3.5c1.9-7.8,4.9-15.2,8.9-22.3c0.5-0.9,0.5-2.2,0.6-3.3c0.4-4.7-0.3-9.5,2.2-13.9
	c0.8-1.5,0.4-3.8,0.2-5.6c-0.4-3.9-0.5-8-1.6-11.7c-1-3.5-3.2-6.8-4.9-10.1c-1.6-3-3.6-5.8-4.9-8.9c-1.2-2.8-3.1-4.2-5.6-5.3
	c-0.5-0.2-1.1-0.4-1.5-0.8c-3.7-2.7-7.5-5.1-8-10.5c-0.4-4.3-2.1-8.5-2.8-12.8c-1.6-10,2.4-19.2,4.9-28.5c0.3-1,1.2-2,2-2.7
	c6.1-5.1,11.7-10.7,19.2-14.3c6.3-3,13-4.6,19.5-5.9c6.3-1.2,13-1.2,19.8-0.2c7.4,1.1,14.2,3,20.2,7.2c4.8,3.4,10,6.7,13.7,11.1
	c5.8,6.9,8.2,15.4,7.2,24.6c-0.1,0.9-0.9,1.9-0.7,2.7c2.6,8.7-2.8,15.5-5.7,22.7c-2.6,6.3-6.4,12.1-9.4,18.2c-1.4,2.9-2,6.2-3.7,9
	c-5.1,8.3-9.6,17.1-16,24.4c-4.8,5.5-7.7,12.2-13.2,17c-1.1,1-1.8,2.5-2.6,3.8c-3.7,6.5-8.3,12.1-13.9,17.2
	c-7.7,7.1-15,14.6-20.8,23.5c-4.1,6.4-9.8,11.5-15.9,16.2c-2.3,1.7-4.4,3.7-6.2,5.8c-4,4.8-7.7,9.9-11.6,14.9
	c-2.7,3.5-5.4,6.9-8.1,10.4c-1.2,1.5-2.8,2.8-3.5,4.5c-4.1,9.5-12.4,15.3-19.3,22.4c-6.3,6.6-12.2,13.6-18.3,20.4
	c-5.6,6.2-11.2,12.3-16.9,18.4c-7.6,8.2-15.1,16.7-23.1,24.5c-3.6,3.5-6.6,7.3-8.8,11.8c-0.3,0.7-0.7,1.5-1.3,1.9
	c-6.8,5.3-12.4,11.8-18.2,18c-4,4.3-8.3,8.4-12.4,12.8c-2.2,2.3-3.6,5-7.5,5.6c-1.8,0.2-3.3,3.2-4.8,5.1c-4.8,5.6-7.9,12.7-15,16.2
	c-1,0.5-1.8,1.4-2.6,2.2c-3.9,4.4-7.8,8.9-11.7,13.4c-0.3,0.3-0.5,0.7-0.8,0.8c-4.9,1.6-6,5.9-7.6,10c-0.6,1.4-1.6,2.6-2.5,3.8
	c-2.7,3.5-5.4,6.9-8.1,10.4c-0.7,0.9-1.5,1.7-2.3,2.5c-5,4.9-10.1,9.9-15.1,14.8c-1.4,1.3-2.6,2.9-4.1,4.1
	c-8.5,6.6-14.6,15.2-20.9,23.8c-2.6,3.6-6.6,6.2-9.9,9.4c-3.3,3.1-6.6,6.3-9.9,9.4c-1.8,1.6-3.7,3.1-5.6,4.6
	c-0.5,0.4-1.5,0.8-1.6,1.2c-0.8,4.5-4.9,6-7.5,8.8c-1.9,2-3.6,4.4-5,6.9c-3.4,6.3-9.2,10.6-13.7,16c-1.3,1.6-2.7,3.1-4.1,4.6
	c-1.5,1.7-2.9,3.5-4.5,5.2c-2.8,3-5.7,6-8.1,9.5c-3,4.2-7.4,7.5-11.5,10.8c-3.7,3-6.8,6.4-9.6,10.2c-4.4,5.8-9.3,11-15.4,15.3
	c-4.5,3.2-8.5,7.3-12.3,11.4c-5.3,5.6-10,12-15.7,17.2c-2,1.8-4,2.9-4.7,5.8c-0.3,1.2-1.9,2.2-3.2,3.1c-1.4,1-3.1,1.5-4.5,2.5
	c-4.2,2.8-5.2,6.2-3.2,10.8c0.9,2.1,1.9,4.1,2.9,6.3c4.1-1.9,7.6-3.6,9.6-7.8c1-2,3.3-3.6,5.3-5c1.8-1.2,4.3-1.6,4.6-4.4
	c4.7-1.2,5.1-6.2,7.9-9c2.6-2.6,6.2-4.2,9.2-6.4c2.4-1.8,4.6-3.8,6.8-5.8c2.1-1.9,4.4-3.7,6.3-5.7c2.9-3,5.3-6.5,8.5-9.2
	c3.2-2.6,5.3-5.3,4.8-9.3c1.5-1.1,2.8-2,4.1-3c4-3.2,8.2-6.3,11.9-9.8c4.5-4.3,8.4-9.3,12.9-13.7c7.2-7.2,14.8-14.2,22-21.4
	c8.8-8.7,17.4-17.6,24.7-27.8c5.2-7.4,11.9-13.9,17.8-20.8c2.7-3.1,5.3-6.4,8-9.5c1.5-1.7,3.2-3.3,4.8-4.9
	c4.4-4.4,8.9-8.7,12.8-13.6c4.9-6.1,10.7-11.4,16.2-16.9c1.5-1.5,3.5-2.3,5.1-3.7c5.7-5,11.7-9.6,16.8-15.2
	c4.7-5.2,8.2-11.4,12.2-17.3c3.1-4.6,6.8-8.5,11.1-12.1c8.1-6.9,16.7-13.4,21.5-23.5c1-2.2,2.9-4.1,4.6-5.8c3-2.9,6.2-5.5,9.3-8.2
	c0.5-0.5,1-1.2,1.2-1.9c2-5.9,6.8-9.5,11.1-13.4c4.8-4.3,10.1-8.1,12.1-14.8c0.4-1.2,1.2-2.8,2.3-3.2c4-1.5,5.6-5,7.5-8.3
	c0.6-1,1.3-2.3,2.2-2.5c4.6-1.2,6.4-5.1,8.9-8.4c1.5-2.1,3.6-3.9,5.7-5.5c5-3.9,9.9-7.8,15.1-11.2c6.3-4.1,11-10.2,18.9-12.5
	c6.3-1.9,12.2-5.9,17.8-9.8c4.1-2.9,9.1-4.5,13.7-6.7c2.5-1.2,5.2-2.3,7.6-3.7c7.3-4.2,14.3-8.9,21.7-12.7
	c8.4-4.4,17.8-5.8,27.1-6.4c5.6-0.4,11.8,4.7,13.7,10.1c1.5,4.3,3.8,8.3,5.2,12.7c1.9,6,3.1,12.1,4.6,18.2c0.1,0.5,0.1,1.1,0.1,1.7
	c-0.4,13.4-2.4,26.3-11,37.2c-0.5,0.6-1,1.5-1.6,1.5c-4.4,0.2-6.3,4.5-9.7,5.9c-8.1,3.3-16,7.7-25.6,5c-4-1.1-8.5-1.9-12.9-0.7
	c-1.7,0.4-3.7-0.4-5.5-0.8c-2-0.4-4-1.2-6.1-1.4c-5.9-0.4-10.5-2.8-13.7-7.8c-2-3.1-4.6-4.8-8.7-4.1c-2.7,0.5-5.6,0.2-8.4,0.1
	c-5.4-0.2-9.3,3.7-13.9,5.6c-8.6,3.5-16.9,8-25.1,12.4c-5.7,3-12.5,5-16,10.5c-3.3,5.1-8,8.5-11.7,13c-4.6,5.6-10,10.4-15.2,15.5
	c-7.4,7.2-15.2,13.9-21.6,22.2c-2.9,3.7-6.8,6.7-10.5,9.7c-6.1,5-12.1,9.9-17,16.2c-2.9,3.7-6.6,6.7-9.7,10.3
	c-5.2,6.2-10.5,12.4-16.9,17.4c-1.3,1-2.8,1.9-4.1,2.9c-0.6,0.4-1.5,0.9-1.6,1.5c-2,8-9,12-14,17.6c-1.4,1.6-3.2,2.9-4,4.7
	c-2.5,5.5-6.8,9.3-11.6,12.8c-1.8,1.3-2.9,3.4-4.7,4.7c-2,1.6-4.3,2.8-7.4,4.7c-0.5,0.7-1.2,3.2-2.8,3.9c-4.7,2-7.1,6.1-9.9,9.8
	c-4.1,5.5-8.4,10.6-13.6,15.2c-5.8,5.2-10.7,11.4-15.9,17.3c-6.2,6.9-11.9,14.3-18.5,20.9c-6.3,6.3-13.3,11.7-20.1,17.5
	c-8.2,7-17.1,13.2-23.7,22.2c-3.8,5.1-9.5,8.7-14.1,13.3c-6.5,6.4-14.9,10.8-20.3,18.5c-1.4,1.9-2.6,4.5-5.8,4
	c-0.4-0.1-1.2,0.4-1.3,0.8c-1.1,5.6-7,7.3-9.5,11.8c-1.5,2.8-4.6,4.8-7.7,7.9c0.5,2.3,0.6,5.9,2,8.8c5,10.3,7.4,21.4,11.7,31.9
	c3.1,7.6,6.3,15.2,9.6,22.7c3.6,8.2,7.1,16.4,10.9,24.5c1.8,4,4,7.7,6.2,11.5c2.5,4.5,5.6,8.7,5.5,14.2c0,1.2,0.6,2.9,1.5,3.6
	c2.8,2.3,2.3,5,1.5,7.8c-0.8,2.5-1.7,5.1-2.2,7.7c-0.4,2.4-0.4,4.8-0.6,7.2c-0.3,3-0.6,6.1-1.2,9c-2,10.8-6.5,20.7-10.8,30.7
	c-1.6,3.6-2.8,7.4-4.2,11.1c-0.3,0.7-0.2,1.6-0.6,2.2c-5.2,7.4-8.1,16.3-14.4,23.1c-0.6,0.6-0.7,1.6-1.1,2.4
	c-1.2,2.3-2.3,4.6-3.6,6.9c-2,3.4-4.1,6.9-6.4,10.1c-3.4,4.8-6.6,9.7-10.5,14.1c-4.1,4.6-8.6,8.9-13.4,12.7
	c-5.4,4.3-10,9.4-15.1,13.7c-8.5,7.2-18.8,11.9-29.4,15.6c-1.9,0.7-4.2,0.4-6.3,0.6c-3.6,0.4-6,1.4-7.4,5.6c-3,9-4.4,18.1-5.6,27.5
	c-1.4,11.3-2.7,22.8-5.2,33.9c-3,13.3-7,26.4-13.7,38.6c-3.5,6.5-8.7,11.4-12.4,17.6c-4.8,8.2-12.2,13.5-20,18.4
	c-5.5,3.4-10.5,7.6-16,11.2c-6.6,4.3-13.2,8.6-20.2,12.2c-6.2,3.2-12.6,6-19.3,7.9c-7.5,2.1-15.2,3.5-23,4.4
	c-4,0.4-7.3,1.6-10.8,3.3c-2.4,1.1-4.9,1.9-7.5,2.6c-13.1,3.6-26.4,3.1-39.8,1.6c-7.1-0.7-14.4,0.7-21.6,1.2c-0.8,0-1.5,0.5-2.2,0.4
	c-6.2-0.6-12.3-1.5-18.5-1.9c-5.9-0.4-11.5-1.8-17.2-2.6c-6.1-0.9-12.3-2.6-18.3-2.5c-5.1,0.1-9.6-1.4-14.4-2.3c-5-1-10-1.9-15-3.1
	c-1.6-0.4-3-1.7-4.6-2.2c-2.3-0.8-4.7-1.9-7.1-1.8c-4.7,0.2-9-1.3-13.4-2.5c-1.6-0.4-3.2-1.2-4.6-2.2c-2.4-1.8-4.4-4.3-7.6-4.7
	c-2.4-4.6-8.2-5.6-10.8-9.4c-5.4-7.7-13-13-19.3-19.7c-6.6-6.9-13.4-13.9-17.1-22.7c-3.3-8-5.3-16.7-7.8-25
	c-1.9-6.1-3.6-12.3-5.8-18.4c-1.6-4.5-3.4-8.9-3.5-13.8c-0.2-8.7-1.1-17.2-3.5-25.8c-3.5-12.6-5.2-25.6-7.7-38.5
	c-0.9-4.3-2.5-8.4-3.3-12.8C6,909.8,3,896.6,1.6,883.2c-0.9-8.5-1.9-17.3-0.2-26c0.5-2.4,0.1-5,0.1-7.5c0-2.5,0-5,0.1-7.4
	c0.3-4.6,0.5-9.2,1-13.7c0.8-6.8,1.5-13.5,2.8-20.2c1.9-10.4,4.6-20.5,9.3-30c1.9-3.9,4.2-7.7,6.2-11.6c3.2-6.3,5.8-12.9,9.4-19
	c3-5.1,5.9-10.4,10.2-14.8c5.3-5.4,8.9-12.4,14-18.1c6.8-7.6,13.9-14.9,24-18.4c1.6-0.5,3.2-1.3,4.6-2.1c7.7-4.2,15.5-8,24.6-8.8
	c5.1-0.5,10-2.5,15-3.7c7.3-1.7,14.8-2.7,22.3-2.4c2.2,0.1,4.4-0.2,6.7-0.4c1.8-0.1,3.6-0.4,5.8-0.6c-0.7-3.2,3.1-2.8,4.1-4.9
	c2.7-5.6,5.3-11.3,8-16.9c0.6-1.2,1.1-2.5,2-3.4c4.7-4.9,7.1-10.8,9.4-17.1c2.6-7,4.2-14.7,9.7-20.6c2.2-2.4,3.1-6.1,4.8-9
	c1.4-2.4,3.2-4.7,4.9-7c5.4-7.1,11-14,18-19.6c1-0.8,2.1-1.7,3.1-2.5c2.1-1.7,4.8-3,6.1-5.2c4-6.7,10.8-9.3,17.2-12.5
	c4.7-2.4,9.5-4.8,14.2-7.3c1.3-0.7,2.5-1.7,3.6-2.8c2.9-2.7,5.6-5.6,8.6-8.3c0.6-0.6,1.7-0.8,2.6-0.9c3.3-0.4,6.8-0.4,10-1.1
	c2.1-0.4,4.1-1.8,6.2-2.5c3.8-1.2,7.6-2.2,11.5-3.1c5.9-1.4,12.1-1.6,17.6-4.9c1.8-1.1,4.4-1,6.7-1c7,0,13.9,0.1,20.9-1.2
	c3-0.5,6.6-0.2,9.4,0.9c5.1,2.1,10.7,1.7,15.8,3.7c5,2,10.4,3.3,14.9,6.1c5.4,3.4,11.8,5.5,15.6,11.2c2.4,3.6,6.8,3.1,10.2,4.7
	c6,2.8,11.7,6,16.9,10.3c5.6,4.5,11.7,8.4,17.5,12.4c6-5.4,11.7-10.5,17.4-15.7c0.4-0.4,0.7-0.9,1-1.4c6.2-10.2,13.8-19.5,21.3-28.7
	c7.6-9.2,14.7-18.8,22.2-28.1c4.7-5.9,10.1-11.3,14.4-17.5c9.9-13.9,22-25.7,33.8-38c7-7.3,13.9-14.7,20.4-22.4
	c4.3-5,7.4-11.1,11.7-16c5.4-6.3,10.9-12.6,17.7-17.5c0.8-0.5,1.6-1.2,2-2.1c2.8-5.9,7.8-10,12-14.7c4.7-5.2,9.5-10.3,12.9-16.6
	c1.6-2.8,4.2-5.1,6.6-7.3c5.8-5.5,9.9-12.1,13-19.3c0.7-1.7,1.8-3.3,2.6-5.1c3.7-7.9,4.4-16.5,5.7-25c0.6-3.7,0.1-7.5,0-11.3
	c0-0.9-0.7-1.7-1.2-2.5c-2.5-4-4.9-8.1-7.7-11.9c-2.8-3.8-4.1-8.7-8.2-11.6c-2.6-9.1-10.4-15.4-13.3-24.3c-1.2-3.8-2.2-7.7-2.6-11.7
	c-0.6-6-1-12.1-0.6-18.2c0.4-5.6,1.2-11.3,5.6-15.7c2.1-2.1,3.6-5,6-6.6c3.8-2.7,8.2-4.6,12.3-6.8c3.6-1.9,7.3-3.9,11-5.7
	c1.5-0.7,3.3-1.5,4.9-1.4c6.1,0.4,12.2,1.1,18.2,1.7c2.1,0.2,4.3,1,6.1,0.4c7.6-2.3,13.3,0.9,18.5,5.9c1.1,1,2.7,1.5,3.7,2.6
	c2.5,2.4,5.3,4.4,5.3,8.9c-0.1,5.2,1.9,10.4,2,15.7c0.1,6.4-0.8,12.9-1.6,19.3c-0.8,6.7-1.7,13.5-3.2,20.1
	c-0.8,3.6-2.8,7.1-4.6,10.4c-4.2,7.9-9.1,15.4-12.9,23.5c-3.6,7.5-7,15.3-9,23.4c-3.3,13.2-10.9,24.1-17.3,35.7
	c-2.5,4.5-4.4,8.9-8.9,11.6c-0.2,0.1-0.2,0.3-0.3,0.5c-4,7.1-8,14.3-12.1,21.4c-1.1,2-2.2,4.1-3.5,5.9c-4.5,6.3-9.2,12.6-13.8,18.8
	c-0.7,0.9-1.5,1.7-2.2,2.6c-2.5,3.3-5.3,6.5-7.4,10c-3.8,6.3-8,12.1-15,15.2c-1.7,0.8-2.7,1.6-3.2,3.6c-0.5,2.2-1.4,4.4-2.7,6.2
	c-5.8,7.5-11.4,15.1-18.2,21.7c-3.7,3.6-7.8,6.6-11.7,10c-1.3,1.1-2.6,2.3-3.4,3.8c-2.9,6-7.9,10.1-12.6,14.6
	c-2.9,2.8-5.2,6.1-7.9,9.1c-1.6,1.8-3.5,3.5-5.2,5.2c-4.1,4.3-8.5,8.3-12.4,12.8c-5.4,6.4-10.4,13.2-15.7,19.8
	c-3.2,3.9-7,7.3-11.1,10.4c-0.7,0.6-1.4,1.2-2,2c-2.1,3.1-4,6.4-6.2,9.5c-5.2,7.4-11.7,13.6-18.8,19.1c-1.6,1.2-2.5,3.3-3.9,4.9
	c-2.9,3.2-5.9,6.4-9.1,9.4c-1.7,1.6-2.1,3.4-0.7,5C468.2,597,471.4,600.2,475.2,604.2z M172.5,821.9c3.1-2.5,5.9-4.8,8.6-7.1
	c2.8-2.4,4.7-2.6,8.2-0.6c4.2,2.4,7.6,5.4,10.3,9.6c1.3,2.1,3.6,3.6,5.7,5.5c2.9-3.1,5.4-5.4,7.5-8c1.5-1.8,2.3-4.2,3.8-6
	c6.6-7.5,15.2-13.1,20.8-21.7c0.4-0.6,1.3-0.8,1.9-1.3c2.7-2.4,5.4-4.8,8-7.4c0.8-0.8,1.4-2.4,1.3-3.5c-0.9-7.8-2-15.5-3.1-23.2
	c-1.3-9.4,0.1-18.5,0-27.8c0-4.6,2.3-8.9,4.3-13.3c5.4-11.6,14.5-18.7,26.1-23.1c3.5-1.4,7.5-1.8,10.9-3.4
	c5.3-2.5,10.8-3.7,16.5-3.9c3.1-0.1,6.3,0.3,9.4,0.3c8,0.1,16,0,24.5,0c6.4-5.6,13.4-11.4,20-17.7c3.7-3.5,7.6-6.5,10.7-10.8
	c2.6-3.7,4.8-7.9,9.1-10.7c7.6-5,14.2-11.3,20.1-18.3c4.2-5.1,9.3-9.5,13.8-14.4c5.6-6,11-12.2,16.5-18.4c0.4-0.4,0.9-0.7,1.3-1.1
	c3.8-3,6.4-6.9,8.6-10.8c-1-3.7-3.3-4.8-6.6-4.6c-1.5,0.1-3.2,0.1-4.5-0.5c-4.2-1.9-8.1-4.2-12.3-6.1c-2-0.9-4.3-1.3-6.5-1.8
	c-1.5-0.3-3.1-0.2-4.5-0.7c-3.5-1.4-6.9-3.8-10.5-4.3c-5.2-0.6-8-3.8-10-6.6c-2.7,0-4.5,0.4-6-0.1c-1.9-0.6-3.8-1.8-5.4-3.1
	c-3.8-3.1-8.3-5-13-5.5c-6.6-0.6-13.3-0.6-19.9-0.8c-0.9,0-1.8-0.3-2.7-0.5c-12.9-1.9-25.2,0.5-37.2,5c-2.2,0.8-4.8,2-6.8,1.5
	c-1.7-0.4-2.5-0.9-3.8,0.5c-0.5,0.6-1.7,0.8-2.6,0.7c-6-0.9-11.6,1.3-16,4.4c-6.4,4.6-12.1,10-18.9,14.3c-8,5.1-15.1,11.5-22.3,17.7
	c-6.8,5.8-13.4,12-20,18.1c-0.7,0.6-1.1,1.5-1.5,2.3c-1.8,3.6-3.6,7.2-5.5,10.7c-2.6,4.8-4.5,9.7-4.8,15.2c-0.1,1.5-0.3,3.3-1.2,4.3
	c-4.6,5.6-4.9,12.7-6.8,19.2c-1.7,5.6-1.9,11.6-1.5,17.5c0.2,2.3-0.7,5.4-2.2,6.7c-1.4,1.2-3,4.1-6.2,2.5c-1-0.5-3,1.1-4.7,1.8
	c-3.4-1.6-6.9-3.1-11.1-3.3c-3.4-0.2-6.3,0.8-9.4,1.2c-6.9,0.8-13.9,0.8-20.8,1.3c-2.7,0.2-5.4,0.6-7.9,1.3
	c-6,1.8-12.1,3.6-17.9,5.9c-7.7,3.1-16.3,4.1-23.3,9.1c-5.1,3.7-10.2,7.4-15,11.4c-4.1,3.4-8.9,6.5-11.7,10.8
	c-5.1,8-11.1,15.6-14.5,24.7c-0.8,2.1-1.3,4.4-2.3,6.5c-4.7,9.4-9,18.9-12.4,28.9c-1.8,5.2-3.8,10.5-4.8,15.9
	c-2,10.9-3.4,21.8-2.7,33c0.4,5.9,0.2,11.8,0.9,17.6c1.5,13.2,3.4,26.4,5.2,39.6c0.1,1.1,0.6,2.2,0.8,3.3c0.5,2.6,1,5.1,1.3,7.7
	c0.3,3.8-0.7,8.1,0.9,11.2c2.8,5.7,1.8,12.2,4.9,17.9c2.5,4.8,2.8,10.7,4.8,15.8c3.7,9.3,8,18.4,12.1,27.6c0.8,1.9,1,4.2,2.1,5.8
	c3,4,5,8.2,7.1,12.8c3.3,7.5,8.4,14.3,13.1,21.1c4.4,6.2,9.4,11.9,14,18c2.6,3.5,5.4,6.7,9.7,8.2c0.9,0.3,2,0.7,2.4,1.4
	c3.2,5.6,9.2,7.5,13.9,11c3.9,3,8.5,5.1,12.6,7.9c7.7,5.3,15.7,9.9,24.8,12.5c7.5,2.2,14.8,5,22.4,6.9c14.4,3.5,29.1,3.8,43.8,3.8
	c4.2,0,8.4-0.6,12.5-0.6c4.4,0,8.7,0.8,13.1,0.5c5.5-0.3,10.8-1.6,15.9-4c7.2-3.3,14.7-6.1,22-9.3c6.7-3,13.9-4.5,20.2-8.9
	c5.6-3.9,12.2-6.3,18.1-9.9c6.3-3.9,13.1-6.8,18.8-11.9c5-4.4,8.8-9.6,13.3-14.1c4.4-4.4,7.5-9.6,10.6-14.7
	c5.7-9.3,7.9-19.8,9.2-30.4c0.9-7.4,2.1-14.8,2-22.2c-0.1-8.4-1.5-16.8-2.4-25.1c-0.2-1.5-0.1-3.1-0.5-4.5c-1.6-5.6-3.3-11.1-5-16.6
	c-0.4-1.3-0.9-2.8-0.5-3.9c1.3-3.3,0.4-6.4-0.2-9.6c-0.5-2.6-0.4-5.4-0.3-8c0.1-3.6,1.6-5.1,5.1-5.8c1.5-0.3,3.2-0.3,4.3-1.1
	c2.8-2,6-2.3,9.2-2.7c2-0.2,3.9-1.2,6.9-2.2c-0.2-0.1,0.8,0.3,1.8,0.7c1.3-1.2,2.4-2.8,3.9-3.5c4.8-2.3,10-4,14.7-6.6
	c6-3.2,12-6.7,17.5-10.6c3.9-2.7,7-6.5,10.5-9.6c2.6-2.3,4.9-5,7.7-7.2c4.1-3.3,7.8-7.3,11.3-11.2c2.8-3.1,5-6.6,7.6-9.8
	c6.9-8.4,13.5-17.1,18.7-26.7c1.3-2.5,2.1-5.3,2.8-8.1c1.6-6.5,2.9-13,4.4-19.5c0.9-3.9,1.9-7.8,2.6-11.7c1.6-8.8,3-17.7,4.8-26.5
	c1.4-7.1,3.3-14.1,2.4-21.5c-0.5-4-0.2-8,0.2-12c1.2-12.2-1.8-23.9-3.8-35.7c-0.1-0.7-1.2-1.2-1.8-1.8c-4.6,4.1-6.8,10.4-13.2,11.9
	c-0.3,0.1-0.4,0.6-0.6,0.9c-2.2,2.3-4.3,4.6-6.5,6.9c-3.2,3.2-7.4,5.2-10,9.3c-2,3.3-4.8,6.3-7.7,8.9c-7.4,6.6-15.1,12.9-22.6,19.3
	c-3.5,3-6.8,6.2-10,9.4c-3.4,3.3-6.5,6.8-9.9,10.1c-4.2,4-8.6,7.9-12.1,11.1c2.3,9.3,4.2,17.4,6.2,25.6c0.2,1,0.5,2.5-0.1,3.3
	c-1.2,1.9-0.5,3.6-0.3,5.5c0.3,3.7,2.3,7.4,0.4,11.3c-1.6,3.2-2.5,6.7-4.2,9.9c-4.8,8.7-11.2,15.7-20.1,20.3
	c-7.2,3.7-14.2,7.7-22.1,10.3c-9.4,3.1-18.3,5.8-28.3,4.6c-6.7-0.8-13.5-0.5-20.3-0.9c-2.2-0.1-3.8,0.6-5,2.2
	c-6.6,9.1-16.9,14.2-24.4,22.4c-2.6,2.8-5.8,4.9-7.7,8.3c-0.7,1.3-1.8,2.4-2.9,3.6c-3.1,3.4-6.3,6.8-9.4,10.1
	c5.5,5.5,10.9,10.9,16,16c-1.4,6.8-6.3,11.5-12.6,12.6c-2.3,0.4-4.9,0.4-6.8,1.6c-3.1,1.8-4.2,0.6-5.8-2c-2.5-4-5.6-7.7-8.7-11.8
	c-5.2,5.5-13.1,6.5-15.1,14.2c-2.7-2.7-2.9-5.3-0.8-7.9c3.4-4.3,7.1-8.4,11.1-13.1c-1.9-2.9-3.9-6-6-9.3
	c-5.4,3.9-10.7,6.6-13.1,12.5c-0.9-0.3-1.4-0.5-1.9-0.7c-0.2-0.1-0.4-0.1-0.5-0.1c-4.4-0.8-5.2-2.2-3-5.9c1.2-1.9,2.7-3.7,4.2-5.4
	c2.4-2.6,4.9-5.2,7.6-7.9c-3-3.7-6-7.3-9.6-11.7c-2.5,3.4-5.1,6-6.4,9.1c-1.6,3.8-4.3,3.5-7.4,3.9c-3.3,0.5-4.5-1.2-5.4-4.1
	c3.9-5.5,7.8-11.2,11.9-17c-3.5-3.8-6.8-7.4-10.5-11.5c-2.2,2.4-4.2,4-5.4,6.1c-1.6,2.9-4.1,1-6,1.8c-1.3,0.5-2.4,1.6-3.5,2.4
	c-2.6-4-2.7-4.8-0.2-7.8c2.4-2.9,4.9-5.8,7.5-8.8c-5.3-4.9-9.5-10.5-16.9-12.1c-1.3-0.3-2.4-2.8-2.9-4.5
	C172,824.5,172.5,822.9,172.5,821.9z M372.6,708.5c1-2.1,1.9-4.3,3.1-6.4c3.4-6.3,9.7-9.8,15.1-13.7c7.3-5.3,13.3-12,20.1-17.8
	c2.4-2.1,5-4.1,7.3-6.4c5.8-6,11.5-12.2,17.2-18.2c4.3-4.5,8.9-8.9,13.2-13.4c1.6-1.6,2.9-3.3,4.4-5c4.7-5.2,9.3-10.5,14-15.8
	c-3.7-4.4-7.1-8.3-10.6-12.4c-4.1,3.6-8.5,6.2-11,10.1c-3.7,5.8-8.6,10.1-13.3,14.8c-8.1,8.2-16.1,16.5-24.1,24.8
	c-1.3,1.3-3,2.7-3.3,4.2c-0.4,2.2-1.4,3.3-3.1,4.4c-1.2,0.8-2.3,1.9-3.3,3c-1.4,1.5-2.5,3.3-4.1,4.6c-8.7,7.2-17.4,14.3-26.1,21.4
	c-3.8,3.1-7.5,6.4-11.2,9.6c1.8,2.2,3.1,4.4,5,5.7C365.3,704.4,369,706.3,372.6,708.5z M976.9,80.5c3.1-6.5,5.1-13.1,8.9-18.3
	c5.4-7.4,4.9-15.7,5.7-23.8c0.2-2.2-0.9-5.1-2.4-6.8c-3.7-4.1-7.8-7.8-12-11.4c-1.2-1.1-3.1-1.4-4.7-1.9c-5.4-1.8-9.7-0.6-12.6,4.7
	c-0.9,1.6-2.7,2.6-4,4c-1.3,1.4-2.7,2.7-3.6,4.3c-2.4,4.5-4.9,9.1-6.8,13.9c-1.8,4.4-3.8,8.9-4.4,13.6c-0.9,7.3,2.1,12.9,8.4,17.5
	c5.9,4.3,11.7,6.3,18.3,4.1C970.8,79.4,973.4,79.2,976.9,80.5z M270.7,803.7c2.8-3,5.2-5.9,7.8-8.5c5.4-5.3,10.9-10.6,16.5-15.7
	c6.3-5.8,13-11.3,19.1-17.3c3.6-3.4,6.2-7.9,9.8-11.1c7.6-6.7,15.7-12.8,23.4-19.3c4-3.4,8.4-6.4,11.4-11.8c-4.5-3.2-9-6.4-13.5-9.6
	c-2.9,2.9-5.5,5.6-8.2,8.1c-5.7,5.5-11.5,11-17.3,16.5c-1.9,1.9-3.7,3.9-5.6,5.8c-4.8,4.6-9.7,9.1-14.6,13.7
	c-0.8,0.8-1.6,1.6-2.3,2.4c-4,4.8-7.3,10.3-13.2,13.1c-0.6,0.3-0.8,1.2-1.3,1.7c-2.9,3.3-5.8,6.7-8.9,9.8c-1.7,1.8-3.7,3.3-5.7,4.7
	c-2.2,1.6-2.5,3.6-1.6,6.1C267.9,795.9,269.2,799.5,270.7,803.7z M366.4,729.6c-1.8,1.5-3.3,2.9-5,4c-4.3,3-7,7.6-11.5,10.6
	c-5.9,3.9-11.4,8.4-16.8,12.9c-3.5,2.9-7.1,5.9-9.8,9.5c-4.8,6.3-10.7,11.2-16.6,16.3c-3.7,3.2-8,5.4-10.7,9.9
	c-2.9,4.8-5.9,9.8-11.9,11.8c-1.4,0.5-2.8,2.2-3.4,3.7c-0.5,1.2-0.3,3.2,0.4,4.2c5.5,7.4,8.5,7.5,14.7,0.6c0.4-0.4,0.6-1,1-1.4
	c3.6-4,6.6-8.6,10.8-11.6c3.9-2.8,7-5.7,9.5-9.7c2.2-3.5,5.1-6.7,9-8.5c3.7-1.7,6.8-3.9,9.3-7.3c1.6-2.2,4.5-3.3,6.7-5.1
	c3.1-2.5,6.3-4.9,9.2-7.7c5.8-5.6,11.4-11.5,17-17.3c3.5-3.6,3.4-3.7,1.1-8.3C368.4,734.1,367.5,732,366.4,729.6z M387.2,726.2
	c2.3-1.7,4.6-3.1,6.4-5c7.4-7.4,14.1-15.4,23.3-20.9c3.3-2,5.7-5.4,8.5-8.2c0.9-0.9,1.8-1.9,2.7-2.9c3.9-4.2,7.9-8.2,11.6-12.6
	c4.8-5.6,8.8-11.8,15-16.2c1.4-1,2.2-2.6,3.4-3.9c4.1-4.4,7.9-9.4,12.6-13c4.9-3.7,9.6-7.4,13.2-12.4c-1.7-3-2.1-6.7-5.3-8.6
	c-3.6,1-4.9,4.6-7.5,6.1c-5.6,3.4-8.5,9.1-13.1,13.4c-5.2,4.9-9.6,10.6-14.5,15.8c-1.2,1.3-3.2,2-4.3,3.5
	c-4.7,6.6-10.3,12.3-16.6,17.5c-4.9,4-9.3,8.4-14.2,12.4c-3.3,2.7-7.2,4.8-10.6,7.5c-5.4,4.2-10.6,8.7-15.9,13.1
	c-1.5,1.2-2.3,2.8-1.3,4.5C382.6,719.4,384.6,722.3,387.2,726.2z M381.3,771.9c-0.5-0.2-1.1-0.5-1.6-0.7c-5.3,4.2-11.2,7.5-15,13.6
	c-1.9,3-4.7,5.5-7.3,8c-4,3.8-8.7,6.9-12.3,11c-7.4,8.4-14.4,17.2-21.6,25.9c1.5,0.3,3,0.6,4.5,0.9c9.9,2.1,19.6,1.1,28.9-2.9
	c2.1-0.9,4.4-1.3,6.5-2.2c4-1.7,8.9-2.4,8.5-8.9c-0.2-2.6,1-5.8,2.6-7.9c1.7-2.3,1.7-4.5,1.8-7c0.2-4.9,0.3-9.7,1.8-14.5
	C379.6,782.2,380.2,777,381.3,771.9z M323,702.1c-9.7-0.6-18.3,0.3-25.3,6.9c-0.8,0.8-1.8,1.4-2.8,2c-6.9,4.5-13.7,9.1-18.5,16
	c-3.2,4.5-7,8.7-9.5,13.5c-3.9,7.4-10.2,13.7-9.9,23.1c0.1,3.2,0.6,5.4,3,7.5c2.7-2.2,5.5-4.2,7.9-6.5c2.4-2.4,4.4-5.2,6.6-7.9
	c1.9-2.4,3.6-4.9,5.6-7.3c8.8-10.4,19.5-19.3,26.8-31c0.7-1.1,1.8-2,2.8-2.8C314.6,712.1,319.2,708.2,323,702.1z M799,113.2
	c0.4,1.5,0.8,3.4,1.6,5.1c0.9,1.9,1.7,4.2,3.3,5.2c3,1.8,6.6,2.8,10,4.1c0.4,0.2,1.1-0.3,1.6-0.4c1.8-0.5,3.6-1,5.4-1.6
	c4-1.2,8.1-2.4,10.9-5.8c1.3-1.6,2.1-3.7,3.6-5c3.1-2.5,3.9-5.5,4-9.4c0.1-3.7-0.9-7.7,1.9-11.1c0.4-0.4,0.4-1.7,0-2.1
	c-3.9-5.1-7.5-10.7-14-12.9c-1.5-0.5-3.3-0.4-5-0.2c-2.2,0.3-4.4,1.1-6.7,1.4c-6.5,0.8-10.5,4.7-13.2,10.4
	C799.2,98,800.9,105.7,799,113.2z M937.2,21.4c-3.3-0.2-6.1,0.2-8.4-0.6c-4.5-1.5-8.5-2.6-12.4,1.3c-0.9,0.9-2.4,1.1-3.6,1.5
	c-5.1,1.6-10.6,8-10.9,13.3c-0.3,5.9-0.3,11.9,0,17.8c0.2,4.7,3.7,7.8,6.4,11.2c0.7,0.9,2.8,0.7,4.3,0.8c2.9,0.2,5.7,0.1,8.6,0.4
	c3.2,0.3,6.3,0.8,9.3,1.2c1.1-6.4,2-12,3-18.1c-1.1,0.4-1.9,0.4-2.4,0.8c-1.8,1.4-3.5,3-5.4,4.3c-2.8,1.9-6,1.9-8.7,0.2
	c-2.6-1.6-2.9-4.4-2.2-7.6c0.7-3.6,2.1-6,5-8.3c4.5-3.5,7.5-3.6,10.6,1.3c1.4,2.2,2.4,4.5,3.7,7c2.9-5.8,5.5-11,8.1-16.3
	c2-4,1.9-4-1.4-6.6C939.3,24,938.2,22.5,937.2,21.4z M397.5,741.9c4.8-4.5,9.8-8.4,13.9-13c6.5-7.2,12.8-14.6,21-20.2
	c1.7-1.2,3.1-2.8,4.8-4.1c3.1-2.5,6.3-4.8,9.3-7.4c3.1-2.7,6.9-5.1,8.9-8.5c2.4-4.1,5.5-7.2,8.9-10.2c2.7-2.3,5.2-4.8,7.9-7.1
	c2-1.6,4.4-2.8,6.4-4.5c4.2-3.4,7.1-7.9,10.3-12.1c1.8-2.3,2.1-4.3,1.4-6.7c-0.7-2.1-1.8-4-3.1-6.9c-4.9,4.8-9.4,8.8-13.6,13.2
	c-4,4.1-7.6,8.5-11.5,12.7c-7.6,8.2-15.7,15.9-22.9,24.5c-7.2,8.5-14.8,16.4-24.1,22.5c-4.8,3.1-8.3,7.2-11.8,11.5
	c-1.4,1.7-3,3.6-5,4.4c-2.6,1.1-4.4,2.7-5.8,5.1C394.2,737.4,395.7,739.3,397.5,741.9z M680.8,218.4c0.6,3.7,1.2,7.5,1.8,11.2
	c1.5,8.2,7.6,11.8,15.6,9.1c2.5-0.8,5-1.9,7.6-2.4c4.4-0.9,6.6-3.6,6.8-7.8c0.4-9.4,2.5-18.6,1.1-28.1c-1-7.2-7.2-14.9-14.2-16
	c-0.9-0.1-2.1,0-2.7,0.6c-3,2.5-6.8,4.6-8.5,7.8C684.4,200.7,680.6,209,680.8,218.4z M676.1,236.2c-1.2-4.1-3.6-8-3.3-11.7
	c0.7-9-1.1-18.3,3.6-26.8c1.5-2.7,0.5-4.9-2-6.3c-4.5-2.5-9.2-3.2-14.1-1.2c-2.4,1-4.5,3.1-7.2,0.7c-0.3-0.2-1.1-0.1-1.6,0.1
	c-4.5,1.9-8.8,4.2-9.6,9.6c-0.8,5.2-2,10.5-1.5,15.7c0.5,4.9,1.1,10.2,5.5,13.9c5.8,4.8,12.3,7.7,19.9,7.3
	C669.3,237.3,672.6,236.6,676.1,236.2z M300.8,823.4c7.7,3.7,11.8,4.1,15.8,0.6c3.2-2.8,6-6.2,8.7-9.5c6.3-7.5,12.4-15.1,18.6-22.6
	c0.4-0.4,0.6-1,1.1-1.3c5.8-4,12.1-7.6,15.5-14.3c0.6-1.1,1.2-2.2,2-3.1c1.5-1.7,3-3.4,4.8-4.7c3.5-2.5,7.1-4.6,10.6-6.9
	c-1-4-1.9-7.4-2.9-11.1c-1.2,0.8-1.7,1.1-2.1,1.5c-5.2,5.5-10.2,11.3-15.6,16.6c-4.2,4-8.9,7.5-13.5,11.1c-6.6,5-13.8,9.1-19.4,15.4
	c-2.9,3.2-6.5,5.8-8.2,10c-0.3,0.9-1,1.9-1.7,2.3c-5.9,3-7.3,10.3-12.9,13.5C301.2,821.1,301.1,822.5,300.8,823.4z M789.8,118
	c0.7-9.6,1.4-18.7,2.1-28.2c-2.5,1.4-4.2,0.8-6.2-1c-2.5-2.3-5.5-3.7-9.3-3.7c-12.5,0.1-22.3,8.6-25.2,21.6
	c-1.1,4.8,1.3,8.6,2.3,12.7c0.8,3.1,4.4,1.3,6.5,2.6c0.9,0.6,2.1,0.9,3.2,1.3c7,2.6,13.8,2.2,19.9-2.3
	C785.1,119.5,786.7,117.2,789.8,118z M926.8,281.5c5.2-0.5,10.6-0.6,15.8-1.6c3.5-0.7,6.7-2.4,10.1-3.8c7.6-3.1,10.9-13.4,6.8-20.8
	c-0.8-1.4-1.3-3.1-1.6-4.7c-0.6-3.9-1.4-5-5.5-4.9c-4.9,0-9.9,0.2-14.7,1.1c-4.3,0.9-9.2,1.9-12.5,4.6c-5.1,4.2-8.8,10-9.8,16.8
	c-0.6,4.1,0.8,7.9,3.4,11.3C921,282.4,924,281.1,926.8,281.5z M263.4,810.7c-3.1-4.8-6.1-9.4-9.4-14.4c-6.5,6.1-12.4,11.6-18.4,17.2
	c-0.8,0.8-1.4,2-2.4,2.4c-9.7,4.3-12.9,14.6-20.7,20.8c3.1,3.5,5.5,6.4,8.3,9c0.8,0.8,2.9,1.1,4,0.7c1.8-0.7,3.6-2,4.9-3.4
	c3.9-4.2,7.4-8.8,11.4-12.8c3.9-3.9,8.2-7.3,12.4-10.9C256.9,816.4,260.2,813.5,263.4,810.7z M951.5,286.3c-2.2,2.2-4.7,2.9-7.8,2.1
	c-1.3-0.4-3,0.5-4.5,0.6c-5.7,0.3-11.1,2.4-17,0.9c-7.3-1.9-11,1.3-11.3,9.1c0,1.3,0,2.7,0.2,4c1.1,8.3,8,14.1,16.3,14
	c2.3,0,4.7-0.2,6.9,0.4c3.3,0.9,6-0.2,8.8-1.4c6.4-2.9,9.6-8,11.8-14.5C956.9,295.5,956.1,290.8,951.5,286.3z M242.3,865.7
	c5.6-4.9,11-9.5,16.3-14.3c3.3-2.9,6.4-6,9.5-9.2c4.5-4.5,8.8-9.2,13.5-14.1c-3.9-3.5-7.4-6.6-11-9.8c-3.4,3.2-6.4,6.1-9.4,8.8
	c-0.8,0.7-1.9,1.2-2.8,1.9c-2,1.5-4.1,2.8-5.8,4.6c-4,4.3-7.7,8.9-11.8,13.1c-2.9,2.9-6.2,5.4-9.7,8.4
	C234.9,858.7,238.4,862.1,242.3,865.7z M514.2,855.4c1.1-2.8,1.4-5.4,2.9-6.7c4.5-4.1,4-8.5,1.9-13.4c-0.8-1.9-1.1-4.1-2.1-5.9
	c-6.5-13-11-26.8-15.6-40.6c-0.4-1.3-1.1-2.6-1.7-3.9c-0.4,0-0.8-0.1-1.2-0.1c-1.2,4.2-3.1,8.4-3.6,12.7c-0.8,6.5,2.3,12.1,4.9,17.9
	c2.1,4.6,3,9.7,4.3,14.6c0.8,3.1,1.2,6.3,2.4,9.2C508.6,844.4,511.2,849.4,514.2,855.4z M486.5,902.8c-8.2-20.4-11.4-41.1-18.2-61.1
	c-2.1,1.6-3.8,2.6-4.9,4c-0.9,1.2-1.7,3-1.6,4.5c0.1,2.7,0.7,5.5,1.3,8.2c1.1,5.5,2.3,11.1,3.6,16.6c1.7,7.2,3.9,14.3,5,21.6
	c0.9,5.9,3.9,9.6,9,12.6C482.8,906.9,484.8,904.7,486.5,902.8z M503.4,873.2c2.5-3.8,4.5-6.8,6.5-9.7c1.3-2,1.6-3.7-0.2-5.7
	c-6.7-7.1-9.8-16.2-12.1-25.3c-1.9-7.4-4.7-14.2-8.9-21.3c-1.2,3.2-3.1,5.8-3,8.3c0.1,5.5,0.6,11.1,2,16.4
	c2.2,8.2,5.1,16.3,8.2,24.3C497.5,864.8,499.3,869.4,503.4,873.2z M443.7,868.3c-5.4,3.2-6.7,7.9-6.4,13c0.5,9,1.4,18,2.1,27
	c0.1,0.7,0.7,1.4,0.9,2.1c0.7,2.4,1.1,4.8,1.9,7.1c1.5,4.2,3.1,8.4,4.8,12.9c1.7-0.7,2.8-1.1,3.8-1.6c5.3-2.8,5.3-3.8,3-9.5
	c-1.4-3.4-2-7.3-2.6-11c-0.6-4.1-0.4-8.4-1.1-12.5c-1.3-7.3-2.9-14.6-4.4-21.8C445.2,872.1,444.5,870.4,443.7,868.3z M299.6,837.5
	c-2.4-3.8-6.6-2.5-9.2-4.3c-7.1,6.9-13.9,13.4-20.7,20c-6.8,6.6-14.8,11.8-21,19.6c2.7,2.5,5,4.7,7.6,7.3c3.1-2.8,6.1-5.3,8.8-8.1
	c6-6.3,11.9-12.7,17.9-19c1.6-1.6,3.3-3.3,5.3-4.4C293.1,845.9,296.2,841.6,299.6,837.5z M465.3,922c2.3-2.2,4.8-4.4,6.8-6.3
	c-1.2-3.3-1.8-5.3-2.7-7.2c-2.4-5.3-3.1-10.9-4.4-16.5c-1.5-6.2-4.5-12.1-5.1-18.7c-0.3-3.8-1.1-7.6-2-11.3
	c-0.4-1.9-1.5-3.6-2.4-5.6c-5.9,4.4-6.6,6.8-4.8,12.6c1.4,4.7,2.8,9.5,3.6,14.3c1.1,6.6,1.4,13.3,2.6,19.8
	C458.2,909.8,457.9,917.2,465.3,922z M478.6,828.6c-0.6-0.1-1.1-0.2-1.7-0.3c-0.7,2.1-2,4.2-1.8,6.2c0.4,4.5,1.5,9,2.6,13.4
	c2.1,8.9,4.2,17.8,6.6,26.6c2,7.2,3.3,14.7,7.1,22.3c3.8-6.3,9.3-10.8,10.3-18.2c-2.1-0.4-3.9-0.8-5.3-1.1
	C488.5,861.6,484.6,844.7,478.6,828.6z M508,756.3c1.1,1.6,2.7,3,3.1,4.6c1.5,7.1,4,13.6,7.9,19.8c2.1,3.5,2.6,7.9,4.6,11.5
	c2.7,4.8,4.8,9.8,5.9,15.2c0.5,2.5,1.6,4.9,2.5,7.3c0.4,0,0.8,0,1.2,0c0.8-3.6,1-7.5,2.5-10.8c1.7-3.8,0.5-6.6-1.1-9.7
	c-0.7-1.3-1.7-2.6-2.4-3.9c-3.4-6.2-7.1-12.2-9.9-18.6c-2.4-5.5-3.8-11.4-5.6-17.1c-1.1-3.7-3.2-7-3.8-10.9
	c-0.1-0.5-1.3-0.9-2.1-1.4c-0.4,2.5-0.6,4.7-1,6.9C509.2,751.6,508.5,754,508,756.3z M399.7,1014c1.3-4.3,2.9-8.5,4-12.8
	c2.3-8.8-2-16.5-4.7-24.3c-1.9-5.3-4.9-10.3-7.4-15.4c-0.7-1.5-1.1-3.4-3.4-3.1c-2.1,9.3-1.4,18.1,3,26.7c1.5,3,2.2,6.5,2.6,9.8
	c0.6,6.6,4.1,12.3,5.5,18.7C399.2,1013.8,399.5,1013.9,399.7,1014z M524.7,833.5c0.5,0,1,0.1,1.6,0.1c1.8-4.6,3.7-9.3,5.3-13.2
	c-2-1.7-3.6-2.6-4.3-3.9c-1.9-3.7-3.3-7.6-5-11.3c-2.8-6.2-5.6-12.3-8.5-18.5c-2.7-5.9-5.5-11.8-8.5-18.3c-2.6,4.4-3,7.3-0.5,11.3
	c2.8,4.4,4.3,9.7,6,14.8c1.9,5.6,3.3,11.3,5.1,16.9c2,6,4.2,11.8,6.5,17.7C523,830.6,523.9,832,524.7,833.5z M419.6,939.2
	c2.5-0.6,5.1-1.2,7.7-1.8c2.1-0.5,2.8-1.5,2.2-3.7c-1.5-5.5-2.7-11.1-4.1-16.7c-0.9-3.6-0.9-7.5-3.9-10.4c-1-0.9-1.1-2.8-1.4-4.2
	c-0.9-3.8-1.7-7.6-2.5-11.3c-3.8,0.4-5.2,2.2-5,5.2c0.2,2,0.6,4.1,0.9,6.1c0.4,2.8,1.4,5.6,1,8.3c-0.5,3.9-0.8,7.5,0.9,11.1
	c0.6,1.3,0.8,3,0.7,4.5C415.8,930.9,417.1,935.1,419.6,939.2z M412.8,939.6c-1.4-6.6-2.6-13.2-4.3-19.7c-1.7-6.5-0.8-13.8-5-19.9
	c-7,6.6-7.2,30.7-0.5,42.4C406,941.6,409,940.7,412.8,939.6z M652.1,257.2c3.1,4.7,5.4,8.5,7.9,12.1c0.4,0.6,1.1,1,1.6,1.5
	c5.7,4.8,5.7,4.8,14,3.7c4.6-0.6,7.3-4.9,6.5-9.5c-1.6-9-13.7-10.7-20.5-6.3c-3.7,2.5-3.6,2.6-7.1-0.3
	C654.1,258,653.4,257.8,652.1,257.2z M868.6,295.3c4,0.3,6.8,1.2,9.1,0.5c4.3-1.3,8.4-3.4,12.4-5.6c2.1-1.1,4.5-2.9,5.3-4.9
	c1.9-4.9,3.3-10,0.9-15.9c-1.9,0.5-4.8,0.5-5.5,1.8c-2.5,4.4-7.1,6.5-10.2,10.1C876.9,285.6,873.2,289.8,868.6,295.3z M359.7,1082.6
	c-1.4-2.2-2.2-4-3.4-5.4c-3.1-3.9-4.4-8.3-4.9-13.2c-0.5-4.4-1.7-8.8-2.7-13.5c-3.8,2.2-5.2,4.7-5.2,8.9c0,8,0.1,16,2.1,23.8
	c0.6,2.4,1.3,4.9,2,7.4C353.5,1089.8,355.2,1084.7,359.7,1082.6z M297.8,1113.1c-0.6-2.6-1.3-5.2-1.8-7.7
	c-1.1-5.2-2.5-10.3-2.9-15.6c-0.6-6.5-2.8-7.8-8.9-4.5c0,0.7,0.1,1.5,0.1,2.2c0.1,4.9,1.2,10,0,14.5c-1.1,4-0.3,6.9,1,10.3
	c0.9,2.3,2.4,2.7,4.5,2.2C292,1113.9,294.4,1113.6,297.8,1113.1z M435.1,935.7c6.4-2.2,6.5-2.3,5.1-7.3c-2.2-7.4-4.6-14.8-6.9-22.2
	c-0.4-1.2-0.8-2.7-0.6-3.9c0.7-3.3-0.4-6.3-1.1-9.5c-0.7-2.9-0.9-6-1.4-9c-0.2-1-0.4-1.9-0.8-3.5c-1.9,1.7-3.3,2.9-4.8,4.1
	C427.2,901.8,430.4,918.7,435.1,935.7z M513.8,725.1c-2.4,4-1.8,6.8,0.5,9.7c1.8,2.3,3.4,5,4.5,7.8c2.8,7.1,5.2,14.3,8,21.4
	c2.1,5.3,4.8,10.4,7.2,15.6c0.4,0.9,1.1,1.8,1,2.6c-0.7,3.7,2.2,5.3,3.9,7.7c2.9-3.9,5-7.4,0.6-11.3c-0.5-0.4-0.5-1.4-0.8-2.1
	c-1.7-4.4-3.5-8.7-6.3-12.6c-2.6-3.7-4.7-7.8-6.6-12C521.8,743.2,518,734.5,513.8,725.1z M341.6,1094.8c-2.9-11.2-8.3-22-6.3-34.6
	c-6.3,3.2-6.8,4.2-6.3,9.6c0.4,3.8,0.9,7.6,0.7,11.4c-0.4,6.6,0.6,12.9,3.2,19.4C335.7,1098.6,338.5,1096.8,341.6,1094.8z
	 M320.3,1069.8c-5.2,0.9-6.7,4.2-6.4,8.4c0.5,7.2,1.3,14.4,2.3,21.5c0.3,2,1.2,4,2.4,5.8c1.3,2,3.4,1.5,5.1,0.5
	c1.5-0.9,1.5-2.3,0.8-4c-0.7-1.9-1.3-3.9-1.3-5.9C323,1087.3,322.7,1078.6,320.3,1069.8z M931.3,130.4c1.4-1.6,2.8-2.8,3.8-4.3
	c2.4-3.6,4.6-7.4,6.9-11.1c2.7-4.2,3.1-9.1,0.3-10.9c-3.5-2.3-7.4-3.6-11.8-2.4c0,1.2-0.2,2.2,0,3.1c1.3,5.3,1,10.4-0.2,15.7
	C929.8,123.2,927.8,126.6,931.3,130.4z M376,1017.2c-0.4,0.2-0.9,0.3-1.3,0.5c1,13.1,0.7,26.5,10.6,38c1.7-1.7,3.9-2.9,4-4.2
	c0-2.5,2.2-4.6-0.1-7.8c-3.4-4.7-6.6-9.8-8-15.8C380.2,1024.2,377.8,1020.8,376,1017.2z M392.6,1038.2c0.5,0,0.9-0.1,1.4-0.1
	c0.5-4.6,3.3-9.2-0.5-13.7c-0.5-0.5-0.7-1.4-0.7-2.1c-0.1-6.4-2.2-12.3-4.2-18.2c-1.7-5.1-3.1-10.2-4.7-15.8
	c-2.8,5-4.4,9.4-1.4,14.3c0.3,0.5,0.2,1.1,0.3,1.7c1,6.5,1.8,13.1,5.5,18.9c1.4,2.2,1.7,5,2.4,7.6
	C391.3,1033.1,392,1035.6,392.6,1038.2z M312.2,1109.6c-1.1-3.8-2.4-7.4-3.2-11.1c-0.5-2.5-0.1-5.2-0.5-7.7c-0.7-4.5-1.8-9-2.7-13.5
	c-5.8,0.4-7.4,2.3-6.2,7.6c0.5,2.4,1.2,4.8,1.6,7.2c1.1,6.8,2.2,13.6,3.3,20.5C307.5,1111.5,309.7,1110.6,312.2,1109.6z
	 M791.1,150.9c1.8,3.1,3.4,6.4,5.4,9.3c2.1,3,4.9,4.6,8.9,2.9c1.8-0.8,4-0.8,5.9-1.2c2.2-6.4-1.5-10.1-6.1-12.7
	C800.6,146.7,795.7,146.8,791.1,150.9z M118.5,1076.2c-0.3,3.9-0.5,6.3-0.6,8.7c-0.1,2.7-0.1,5.4,0.2,8c0.4,3.4,1.3,6.7,1.9,10.1
	c0.7,3.6,2.2,6.5,6.4,7c0.2-0.7,0.7-1.3,0.6-1.7c-1.4-7.9-1.3-15.8-0.1-23.7c0.1-1-0.3-2.4-1-3
	C123.8,1079.6,121.5,1078.2,118.5,1076.2z M146.4,1114.2c-1.4-8.7-2.8-17.1-4.2-25.8c-1.9-0.8-4.1-1.8-6.4-2.9
	c-2.5,9.9-1.4,17.6,2.8,25.3C140.4,1114,142.8,1114.3,146.4,1114.2z M252.3,1123.3c0.8-4.4-1.7-8-2.6-11.9c-0.9-4-1.1-8.1-1.7-12.6
	c-2.4,0.5-4.2,0.8-6.7,1.3c-0.1,6.5-0.3,13-0.3,19.4c0,2.2,1.2,3.5,3.6,3.5C246.9,1122.9,249.1,1123.1,252.3,1123.3z M64.3,1062.5
	c-0.6-2-1.4-3.9-1.6-5.9c-0.7-6.4-1.1-12.9-1.6-19.3c-0.4-5.8-1.8-7.6-8-9.8C52.7,1040.5,53.9,1052.8,64.3,1062.5z M278.5,1087.2
	c-6.7,2-6.7,2.1-7.6,7.8c-0.2,1.5-0.7,3-0.8,4.5c-0.4,4-1,8,2.4,11.2c0.8,0.8,1.2,2.4,1.4,3.6c0.4,3.4,2.4,2.7,4.6,2.1
	C278.5,1106.8,278.5,1097.3,278.5,1087.2z M359.6,1041.3c-0.3,0-0.6,0-1,0c-0.4,2.2-0.7,4.5-1.1,6.7c-1.5,8.2,2.2,15.9,2.6,24
	c0.1,1.9,2.1,3.7,3.5,5.9c2.1-2.5,3.6-4.4,5.1-6.1c-2.7-4.2-2.4-4.3-3.8-11C363.5,1054.2,361.4,1047.8,359.6,1041.3z M95,1063.9
	c-3.6-1.1-6.4-1.9-9.3-2.8c0.4,5.5,0.4,10.6,1.1,15.6c1,6.8,4,9.8,10.2,11C95.8,1080.1,92.8,1072.6,95,1063.9z M191.1,1121.8
	c0.1-1.5,0.5-2.6,0.2-3.4c-1.5-3.8-1.7-7.8-1.9-11.9c-0.2-5.3-3-7-8.8-6.3c-1.1,5.6-0.4,11,2.9,21.1
	C185.8,1121.4,188.3,1121.6,191.1,1121.8z M234,1122.2c-0.5-7.3,0.9-14.6-1.3-21.8c-2.2-0.3-4.2-0.5-6.5-0.8
	c-0.8,2.7-2.5,5.3-2.1,7.6c0.8,4.6,2.7,9.1,4.3,13.5C229.2,1122.9,231,1123.4,234,1122.2z M111.6,1100.8c0.3-1.4,0.5-1.8,0.5-2.1
	c-0.5-6.5-2.8-12.9-1.8-19.7c0.4-2.3-1.9-5.3-3.6-7.5c-0.9-1.2-3-1.4-4.8-2.1c-1.7,10.7,4.6,18.8,6.1,27.9
	C108.3,1098.4,110.1,1099.3,111.6,1100.8z M207.2,1123.7c-1.4-3.9-3.1-6.9-3.4-10.2c-0.4-3.3,0.6-6.7,0.9-10c-2.6-1-4.7-1.8-6.6-2.5
	c-3.2,7.5-1.9,14.4,1.4,21.9C201.6,1123.2,204.2,1123.4,207.2,1123.7z M261.5,1121.1c2-0.9,3.9-1.8,6.1-2.8
	c-4.6-7.5-5.4-15.3-6.1-23.1c-3,0.1-4.5,1-4.4,3.4C257.4,1106.2,256.8,1113.9,261.5,1121.1z M391.6,946.7c2.1,3.7,4,6.9,5.7,10.1
	c1.7,3.2,3.2,6.4,4.7,9.6c1.5,3.2,0.7,7.4,4.6,10.2c-0.2-2.4-0.4-4.1-0.4-5.8c0.2-5.9-1.1-11.3-5.2-15.8c-1-1.1-1.3-2.7-1.9-4
	c-1.3-3.2-2.6-6.5-5.5-9.4C392.7,943.8,392,945.6,391.6,946.7z M70.3,1044.3c0.4,8.7,0.7,16.5,1.3,24.3c0.3,3.6,3.6,5.9,7.7,5.4
	c-1.8-6.6-3.6-13.2-5.3-19.8c-0.3-1-0.1-2.4,0.3-3.4C75.8,1047.4,73.9,1045.9,70.3,1044.3z M379.5,1062c-5.7-8.6-5.8-18.8-12.8-27.2
	c2,11.3,3.3,21.6,7.3,30.4C375.9,1064.1,377.9,1062.9,379.5,1062z M216.9,1101c-3-0.1-4,0.8-4.4,3.5c-1,6.6,1.9,12.6,2.5,19.2
	c1.8-0.5,3.4-0.9,5.3-1.4c0-3.2,1-6.8-0.2-9.1C217.9,1109.4,217.2,1105.5,216.9,1101z M156.2,1115.8c2.4,0.3,4.3,0.5,5.5,0.6
	c-0.5-3.8-0.9-7.3-1.4-10.7c-1.3-8,0-8.1-7.5-9.8C151.2,1102.9,154.8,1108.9,156.2,1115.8z M175.2,1097.6c-2.6,0.5-4.5,0.8-5.9,1
	c-3.7,4.7-0.6,9.3-0.7,13.9c0,1.1,0.4,2.2,0.8,3.3c0.9,2.9,3.2,3.2,6.1,3.4c-0.7-3.9-1.6-7.2-1.7-10.5
	C173.8,1105.2,174.6,1101.7,175.2,1097.6z M37,994.9c-2.7,3.4-2.7,6.1-1.6,9.3c1.6,4.6,2.6,9.4,3.9,14.2c0.3,0.9,0.9,1.8,1.3,2.7
	c0.4-0.1,0.8-0.2,1.2-0.3c-1.6-4.5,0.5-9.3-2.1-13.6c-1.6-2.6-3.1-5.1-1.5-8.3C38.6,998.1,37.6,996.8,37,994.9z"/>
<path fill-rule="evenodd" clip-rule="evenodd" d="M967,41.5c5.5,1.8,8.8,4.6,8.1,10.1c-0.3,1.9-1.2,4.1-2.5,5.4
	c-2.5,2.3-5.4,4.1-8.3,6c-4.9,3.2-10.1,0.4-10.2-5.5c0-2.2,0.4-4.5,0.9-6.7c0.3-1.2,1-2.7,2-3.3C960.2,45.4,963.7,43.5,967,41.5z"/>
<path fill-rule="evenodd" clip-rule="evenodd" d="M815.7,92c7,0.1,12.1,8.7,9.7,13.9c-1.6,3.4-3.8,6.2-7.3,7.6
	c-4,1.7-6.4,0.5-8.4-3.3c-3-5.7-0.3-10.6,1.8-15.5C812.3,93.2,814.8,92.6,815.7,92z"/>
<path fill-rule="evenodd" clip-rule="evenodd" d="M690.1,222.2c-2.1-1.9-4.1-3.7-6.1-5.5c0.8-2.4,1.4-4.4,2.1-6.4
	c1.8-4.7,8.8-9.5,13.5-9.5c3.1,0,7.4,4.4,7.3,7.5c-0.1,5.4-4.2,9.8-9.8,10.8c-2.1,0.4-4.1,1.4-6.2,2.1
	C690.6,221.6,690.3,221.9,690.1,222.2z"/>
<path fill-rule="evenodd" clip-rule="evenodd" d="M661.7,200.8c6.8,6,6.7,6.5,2.7,14.4c-1.7,3.3-4,5.6-7,7.2c-3.9,2.2-5.8,2-8.2-0.3
	c-2.9-2.8-3.8-6.4-2-9.8C650.4,206.5,655.4,202.9,661.7,200.8z"/>
<path fill-rule="evenodd" clip-rule="evenodd" d="M764.3,104.4c-0.5-4,1.6-7.3,5.5-9.3c1.3-0.7,3.3-0.8,4.8-0.4
	c3.1,0.8,7,6.5,6.7,9.1c-0.4,3.2-4.8,8.2-8,8.9C767.7,114,764.3,111.1,764.3,104.4z"/>
<path fill-rule="evenodd" clip-rule="evenodd" d="M933,275.2c-3.4,0.1-7.1-3.7-7.3-7.6c-0.3-4.2,5.9-12.1,9.7-12.4
	c4.5-0.3,10.2,4.3,10.2,8.2C945.6,269.7,939.9,275,933,275.2z"/>
<path fill-rule="evenodd" clip-rule="evenodd" d="M926.6,300.1c1.4-0.2,2.7-0.4,4-0.6c6.3-1,10.6,3.5,9.3,9.6c-1,4.9-4,7.1-8.4,6.4
	c-4-0.6-7.4-5.1-6.7-9.3C925.1,304.2,926,302.2,926.6,300.1z"/>
</svg>
