<?xml version="1.0" encoding="utf-8"?>
<!DOCTYPE svg PUBLIC "-//W3C//DTD SVG 1.1//EN" "http://www.w3.org/Graphics/SVG/1.1/DTD/svg11.dtd">
<svg artist="zl2017" version="1.1" id="zlIcon-music-speakers" xmlns="http://www.w3.org/2000/svg" xmlns:xlink="http://www.w3.org/1999/xlink" x="0px" y="0px"
	 width="1000px" height="256.1px" viewBox="0 0 1000 256.1" enable-background="new 0 0 1000 256.1" xml:space="preserve">
<path fill-rule="evenodd" clip-rule="evenodd" d="M0.5,222c0.1-0.7,0-1.6,0.4-2.1c1-1.6,2.1-3.1,3.3-4.5c1.3-1.6,2.9-2.9,4.2-4.5
	c4.6-6.1,9.9-11.6,15.2-17.1c1.7-1.7,3.9-3,6-4.1c2.5-1.3,4.3-0.5,5.4,2.1c0.8,1.8,1.5,3.6,2.1,5.5c1.4,4.2,3.7,8,5.7,11.9
	c1.6,3.1,4,5.5,5.8,8.4c1.1,1.7,1.9,1.5,3.4,0c5.7-5.8,9.3-13,13-20.1c3.1-6,6.7-11.7,9.9-17.6c1.1-2,2-4.2,3-6.3
	c0.9-1.8,1.7-3.7,2.8-5.5c3.3-5.5,6.1-11.3,8-17.5c0.4-1.2,0.9-2.6,2.5-2.3c1.5,0.2,1.7,1.7,1.7,2.8c-0.2,3.8,1.5,7.2,2.4,10.8
	c1.1,4.7,2.6,9.3,4.1,13.8c1.2,3.8,2.8,7.5,4.1,11.3c1.6,4.8,3.3,9.6,4.7,14.4c1.6,5.4,3.2,10.9,6.9,15.4c0.8,1,1.7,1.8,2.7,2.6
	c1.1,0.9,2.3,1.8,3.7,2.8c1.9,0,3.6-1,4.9-2.7c3.5-4.8,7.1-9.6,10.4-14.6c4.1-6.2,8.1-12.5,12-18.8c3.1-5,6-10.1,9.2-15.1
	c2.1-3.4,4.3-6.8,7.6-9.2c2.7-1.9,5.6-2,8.3-0.1c4.3,3,7.9,6.6,11.3,10.6c3.7,4.4,6.7,9.1,9.6,13.9c1.9,3.1,4.3,5.9,6.6,8.9
	c0.4,0.5,1,0.9,1.8,1.5c0.9-1.4,1.8-2.7,2.6-3.9c2.5-3.5,5-7,7.4-10.6c1.7-2.7,3.9-5,5.7-7.6c2.2-3.2,4.1-6.7,6.2-10
	c2.5-4.1,5.7-7.7,9.3-11c1.5-1.3,3.4-1.1,4.5,0.7c1.3,2.1,2.3,4.3,3.3,6.5c2.7,5.9,4,12.2,5.4,18.6c0.6,3.1,0.6,6.2,1.2,9.3
	c1.2,6.9,2.7,13.8,4,20.7c0.6,3.5,0.9,7,1.5,10.5c0.4,2.2,1.1,4.3,1.8,6.8c3.2-2.8,6.7-4.6,9.6-7.2c3.5-3.2,6.2-7.2,9.4-10.7
	c2.2-2.4,3.6-5.6,5.1-8.5c1.5-2.8,2.8-5.8,5.2-8.1c1.8-1.8,2.9-2.1,5.2-1.3c3,1.1,4.9,3.4,6,6.1c1,2.4,2.5,4.4,4.2,6.3
	c1.2,1.4,1.7,3.7,4.4,4.1c0.3-2.5,0.7-5,1-7.6c0.5-4.4,1-8.7,1.3-13.1c0.3-5.2,0.3-10.4,0.4-15.5c0-2.1-0.2-4.3-0.4-6.4
	c-0.5-4.5-0.9-8.9-1.5-13.4c-0.3-2.7-1-5.3-1.4-8c-0.2-1.7-0.4-3.3-1.5-4.6c-0.3-0.4-0.4-0.9-0.4-1.4c-0.1-5.8-2.1-11.1-3.8-16.4
	c-0.8-2.6-1.3-5.3-2.2-7.8c-2.3-5.9-4.7-11.8-7.1-17.7c-0.4-1.1-0.8-2.1-1.3-3.6c2.5-1.7,4.9-3.3,7.3-5c3.2-2.2,6.4-4.4,9.5-6.8
	c4-3.1,8.1-6.2,11.8-9.6c3.6-3.3,7.4-6.4,10.1-10.5c0.3-0.4,0.6-0.8,1-1.1c2.7-2,5.5-4,8.2-6.1c0.9-0.7,1.8-1.5,2.5-2.5
	c1.8-2.3,4.4-3.3,6.7-4.8c2.3-1.4,4.6-3,7-4.2c5.7-2.9,11.5-5.4,17.8-6.7c0.9-0.2,1.8-0.4,2.5-0.9c3.5-2.7,7.8-3,11.9-3.8
	c0.5-0.1,1-0.2,1.4-0.4c3.5-1.5,7.2-1.4,10.9-1.8c4-0.5,8-0.8,12-1.1c0.3,0,0.6,0,0.9,0c4.4,0.2,4.3,0.2,5.9,4.2
	c1.5,3.7,3.3,7.3,4.9,11c0.5,1.2,0.7,2.6,1.2,3.9c1.3,3.2,2.9,6.2,3.9,9.5c0.9,3,2.8,5.5,3,8.7c0,0.6,0.6,1.2,0.8,1.9
	c1.9,5.3,3.8,10.6,6.5,15.7c0.5,1,0.9,2.2,1.1,3.3c0.3,1.3,1,2,2.2,2.5c3.7,1.6,7.3,3.4,11,4.9c3.2,1.3,6.5,2.3,9.6,3.5
	c2.1,0.8,4.1,1.8,6.1,2.8c0.4,0.2,0.7,0.9,0.8,1.6c-9.4-2.3-17.9-6.5-27.4-9.9c0.4,1.5,0.6,2.6,1,3.6c1.3,3.7,2.7,7.3,4,11
	c1.8,4.9,3.5,9.9,5.4,14.8c1.6,4.4,3.3,8.8,4.9,13.2c0.3,0.9,0.5,1.9,0.8,2.9c1,0,2,0.2,2.9,0c5-1.1,9.9-2.3,14.8-3.4
	c4.3-1,8.7-2.1,13-3.2c1.2-0.3,2.5-0.2,3.7-0.5c1-0.2,1.5,0.3,1.7,1.1c0.3,1-0.2,1.6-1.3,1.9c-10.2,2.6-20.5,5.2-30.7,7.8
	c-0.9,0.2-1.8,0.7-2.9,1.1c0.4,1.5,0.7,2.8,1,4.1c1.4,4.7,2.8,9.4,4.1,14.1c0.7,2.5,1.1,5.2,1.6,7.8c0.8,4.6,1.6,9.2,2.4,13.8
	c0.2,0.9,0.5,1.4,1.5,1.4c2,0.1,4,0.3,6.1,0.4c0.6-6.9,0.4-14.1-0.5-21.2c-0.1-0.6,0.2-1.3,0.3-2c0.1-1,0.3-2,0-2.9
	c-0.3-1.3-0.5-2.4,0.8-3.3c1.3-0.9,2.3-1.9,4.2-1c1.3,0.6,3,0.5,4.6,0.7c3.1,0.3,6.2,0.5,9.3,0.6c1.3,0,2.7-0.3,4-0.5
	c1.9-0.3,2.6,0.1,2.4,1.8c-0.4,4.7-1,9.4-1.5,14.1c-0.2,2.4-0.1,4.8-0.6,7.2c-0.5,2.4-1.1,4.8-2.3,6.9c-1.1,2-3.4,3-5.6,3.5
	c-1.9,0.5-2.6,0-3.6-1.6c-3.1-5.2-0.1-11.1,5-13.3c1.1-0.5,2.4-0.2,3.8-0.3c0.3-2.5,0.5-5.1,0.8-7.8c-6-1.8-12.1-0.8-18.4-1.6
	c0,2.2-0.1,4.4-0.1,6.6c0,6,0,12,0.1,17.9c0,0.8-0.1,1.6,0,2.3c1,4.3-1.7,6.5-4.7,8.5c-0.9,0.6-1.9,1-3.1,1.6
	c0.9,6.3,1.9,12.6,2.9,19.1c5.1-2.1,10.1-4,15-6.1c4.8-2,9.5-4.3,14.6-5.5c0.5,2.1-0.5,2.9-1.7,3.1c-5.5,1.1-10.3,4.1-15.4,6.2
	c-4.1,1.7-8.2,3.2-12.6,4.8c0.3,2.7,0.7,5.4,1,8.1c0.6,4.8,1.2,9.5,1.7,14.3c0.1,1.2-0.4,2-1.4,2.7c-2.3,1.5-4.8,2.1-7.5,2.5
	c-3.4,0.6-6.8,1-9.8,2.8c-0.4,0.2-0.9,0.2-1.4,0.3c-1,0.2-2,0.2-2.9,0.5c-7.6,2.5-15.6,2.5-23.3,4.4c-1.8,0.4-3.7,0-5.6,0.2
	c-2.8,0.2-5.6,0.9-8.4,0.7c-5.8-0.3-11.5-1-17.2-1.5c-1.1-0.1-2.3,0-3.5,0c-2.2-0.1-4.5-0.1-6.7-0.4c-6.4-0.7-12.9-1.2-19.2-2.1
	c-7.6-1-15.2-2.4-22.9-3.6c-3.9-0.6-7.7-1.3-11.6-1.6c-2.7-0.2-4.9-1.5-7-2.7c-3.8-2-7.3-4.5-11-6.7c-2.3-1.4-4.7-2.7-7.1-4.1
	c-1.8-1.1-3.7-2.1-5.4-3.1c0.7-4.2,1.5-8,2-11.9c0.2-1.2-0.2-2.5-0.5-3.6c-2.3-7.1-7-12.6-11.6-18.2c-2.2-2.7-4.5-2.7-6.7,0.1
	c-0.7,0.8-1.1,1.8-1.6,2.8c-1.5,3-2.9,6-4.6,8.9c-1.4,2.3-3.2,4.4-4.9,6.6c-3.1,3.9-6.4,7.6-8.8,12c-1.4,2.7-3,5.3-4.6,7.8
	c-0.5,0.9-1.5,1.5-2.4,2.4c-0.6-0.7-1.2-1.1-1.4-1.6c-1.5-4.2-3.2-8.4-4.4-12.7c-1.1-3.7-1.6-7.7-2.6-11.4
	c-2.6-9.6-3.3-19.5-5.4-29.1c-0.4-2-0.6-4.1-1.2-6c-0.6-2-1.4-3.8-2.3-5.7c-0.7-1.5-1.5-3-2.2-4.5c-1.1-2.3-2.4-4.5-5.5-5.4
	c-1.6,1.7-3.5,3.3-4.9,5.3c-5.3,7.2-10.5,14.4-15.5,21.8c-2.4,3.4-4.2,7.2-6.3,10.9c-0.5,0.8-1.1,1.5-1.8,2.6
	c-2.3-1.5-4.3-3-5.7-5.1c-3.8-5.3-7.6-10.7-11-16.3c-2.5-4.2-6.1-7.1-10-9.7c-1.8-1.2-3.6-2.2-5.7-2.9c-4.8-1.6-8.2,0.1-10.9,3.8
	c-1,1.3-1.8,2.8-2.7,4.2c-1.4,2-2.8,4-4.1,6c-1,1.6-1.8,3.2-2.7,4.9c-1,1.8-2,3.6-3,5.4c-2.4,4.3-4.6,8.6-7.2,12.8
	c-2.4,3.9-5.1,7.6-7.7,11.4c-1.6,2.3-3.1,4.8-5,6.9c-1.5,1.8-3.4,3.3-5.2,4.7c-1.7,1.4-3.4,1.1-4.9-0.6c-3.6-4-7.1-8-9-13.1
	c-0.4-1.1-1.3-2-1.8-3c-2.8-5.9-4.8-12.2-7.3-18.2c-2.4-5.9-3.8-12-6.1-17.9c-1.5-3.6-2.7-7.3-4-11c-0.5-1.4-0.9-2.8-1.6-4.8
	c-3.7,6.7-7,12.9-10.3,19.1c-2.1,3.8-4.3,7.7-6.4,11.5c-1.1,2.1-2.1,4.2-3.2,6.2c-1.2,2.2-2.3,4.5-3.6,6.6
	c-2.1,3.7-4.2,7.5-6.6,11.1c-1.9,2.8-4.1,5.3-6.3,7.7c-1.5,1.7-4.4,1.2-6.1-1.1c-2.7-3.6-5.5-7.1-7.3-11.3
	c-1.5-3.5-3.5-6.7-5.2-10.1c-0.8-1.6-1.2-3.3-1.8-4.9c-3.6-0.6-5.7,1.7-7.8,3.6c-2.9,2.6-5.6,5.5-8.2,8.3c-1.8,2-3.5,4.2-5.3,6.2
	c-1.2,1.4-2.6,2.6-3.8,4c-1.3,1.5-2.5,3-3.8,4.5c-0.7,0.8-1.5,1.4-2.2,2.2C0.8,222.2,0.7,222.1,0.5,222z M475.2,155.6
	c0.6,1,0.8,1.8,1.2,1.9c1.4,0.5,2.8,1,4.2,1.1c2.2,0.2,4.5,0,6.7,0.1c2,0,4,0,6,0.1c1.8,0.1,2.1-0.9,1.8-2.9
	C488.9,155.8,482.5,155.5,475.2,155.6z"/>
<path fill-rule="evenodd" clip-rule="evenodd" fill="#FFFFFF" d="M328.1,235.7c0.4-1,0.9-2,1.3-2.9c-7.5-5.4-15-9.9-22.7-14.4
	c-1.9,5.1-1.2,5.4,1.6,7.3c0.2,0.1,0.3,0.2,0.5,0.3c4.9,3.4,10.4,5.4,15.8,7.5C325.9,234,327.6,234,328.1,235.7
	c-0.5,0.9-0.9,1.9-2.1,1.2c-4.9-2.5-9.7-5-14.6-7.5c-2-1-4-2.2-6.3-3.4c0,3.2,1.8,4.3,3.7,5.3c3.6,2,7.3,4,10.9,6
	c2.4,1.3,4.9,2.6,7.8,4.2C327.8,239.3,327.9,237.5,328.1,235.7z"/>
<path fill-rule="evenodd" clip-rule="evenodd" fill="#FFFFFF" d="M452.4,135.3c-2.6-7-5.1-13.9-7.6-20.8c-2.9-7.9-5.8-15.8-8.7-23.7
	c-0.8-2.3-2.2-4-4.6-4.9c-3.2-1.1-6.4-2.5-9.5-3.8c-2.7-1.1-5.3-2.3-8-3.5c-1.5,2.4-2.8,4.7-3.9,6.5c1,2.3,4.1,0,4.9,3.3
	c-2-0.5-3.7-0.8-5.5-1.2c-0.4,0.5-1,1.1-1.4,1.8c-1.3,2.3-2.4,4.7-3.7,7c-0.2,0.4-0.8,0.7-1.2,1c-0.2-0.2-0.4-0.3-0.5-0.5
	c1.6-3.1,3.3-6.1,5-9.4c-4.4-2-8.9-3.2-13.5-4.4c-1.4,3.8-4,6.7-5.1,10.2c2.2,1.7,5.1,0.3,7.4,2.3c-3.2,1.4-5.7-1.1-8.3-0.4
	c-1.1,3.5-1.1,3.5-4,3.6c0.4-0.9,0.6-1.7,1-2.4c0.4-0.7,0.8-1.4,1.4-2.5c-3.6-1.1-6.8-2.1-10-3.1c-1.1,1.4-0.9,3.8-3.8,3.3
	c0.5-1.4,0.9-2.6,1.4-3.9c-2.9-0.8-5.6-1.7-8.3-2.4c-1.1-0.3-2.4-0.2-3.3-0.3c-4-2.8-8.5-3.6-13.2-5.2c0.1,1.1,0.3,1.8,0.1,2.3
	c-0.2,0.5-0.7,1.2-1.1,1.3c-0.9,0.1-1.5-0.6-1.2-1.5c0.2-0.8,0.6-1.6,0.9-2.5c-2.2-0.7-4.2-1.4-6.6-2.2c0.7-0.5,1-0.9,1.4-1.1
	c2.4-0.8,3.8,1.7,6.2,1.8c2.2-3.6,4.6-7.1,6.5-10.9c-3.7-1.4-7.1-2.6-10.7-3.9c-0.6,1.2-1,2.3-1.6,3.3c-0.5,1-1.1,1.9-1.6,2.9
	c-0.9-2.8,1.4-4.5,1.9-6.7c-0.7-1.2-2.8-0.4-3.1-2.5c1.6,0.5,2.9,0.9,4.3,1.3c1.8-2.8,3.6-5.4,5.3-8c0.2,0.1,0.4,0.2,0.6,0.4
	c-1,3-3.2,5.3-5,8.3c3.7,1.4,7.2,2.7,10.7,4c2.9-5,5.7-9.6,8.7-14.6c-1.8-0.4-3.2-0.6-4.4-1.1c-1-0.4-2.9,0.1-3-2
	c2.2-0.5,3.7,0.9,5.4,1.5c2.2,0.8,2.2,0.9,3.5-1c0.4-0.6,0.7-1.4,1.9-0.9c-0.4,1-0.8,1.9-1.4,3.1c3.8,1.3,7.5,2.5,11.3,3.8
	c2.1-3.2,4-6.2,5.9-9.2c-1.9-1.4-1.9-1.4-2.1-2.2c1.3,0,2.7,0,4,0c0.5,0.5,1.1,1.3,1.8,1.5c3.2,1.1,6.5,2,9.8,3.1
	c1.6-2.7,3.1-5.2,4.6-7.7c0.4-0.6,0.7-1.5,1.9-0.6c-1.7,2.8-3.3,5.6-5.3,8.8c4.3,0.5,7.6,3.5,11.9,2.2c0.5,1.4,1.6,1.9,3.1,1.8
	c1-0.1,2.2-0.2,2.6,1.6c-1.8-0.3-3.3-0.6-4.8-0.7c-0.8,0-2,0.2-2.3,0.7c-2.4,3.7-4.6,7.4-7.1,11.5c4.1,2.5,7.9,4.8,11.8,7.2
	c0.6-0.9,1-1.4,1.3-2c1.4-2.8,2.7-5.6,4.2-8.4c0.2-0.4,0.9-0.5,1.3-0.7c0,0.5,0.3,1.1,0.1,1.5c-0.7,1.4-1.6,2.7-2.4,4.1
	c-1.1,2-2,3.9-3.2,6.2c6,2.8,11.7,5.3,18,8.3c-2.8-6.8-5.4-12.9-7.9-19c-0.4-1-0.8-2-1.2-3c-1.5-4-2.8-8.1-4.5-12
	c-2.1-5-4.5-9.9-6.9-14.8c-0.3-0.5-0.9-1.1-1.5-1.2c-3.3-0.4-6.6-1.2-9.8-0.8c-5.6,0.7-11.3,0.5-16.7,2.2c-3.3,1-6.7,1.5-9.9,2.6
	c-6.5,2.2-12.8,4.7-18.9,8c-3.1,1.7-6.3,3.2-9.6,4.5c-5.2,2.1-9.9,5.1-14.6,8.1c-1.4,0.9-1.9,2-1.5,3.8c0.8,3.2,1.4,6.5,2.1,9.7
	c0.6,2.8,1.3,5.5,1.8,8.3c1,5.9,2,11.8,2.8,17.7c0.8,6.2,1.6,12.4,2.1,18.6c0.6,7,0.7,14,1.1,21c0.1,2.2,0.7,4.3,0.6,6.4
	c0,4.6-0.4,9.2-0.4,13.7c0,3.2-0.1,6.4-0.7,9.6c-0.2,1.1-0.6,2.1-0.5,3.2c0.3,4.6-0.9,9.1-1.3,13.6c-0.2,2.8-0.8,5.6-1.1,8.4
	c-0.4,4.5-0.7,8.9-1.2,13.4c-0.6,5.1-1.3,10.2-2.1,15.3c-0.7,4.3-1.8,8.6-2.6,12.9c-0.5,2.8-0.9,5.5-1.3,8.2
	c3.3,1.9,6.5,2.5,9.8,2.9c3,0.4,6,0.8,9,1.3c1.8,0.3,3.6,0.8,5.4,1.1c4.9,0.7,9.9,1.3,14.8,1.9c4.3,0.5,8.6,1.1,13,1.5
	c4.9,0.4,9.7,0.5,14.6,0.7c7.7,0.3,15.4,0.6,23,0.6c2.5,0,5-0.8,7.5-1c4.7-0.4,9.3-0.5,13.9-1.8c1.6-0.5,3.3-0.8,5-1.2
	c2.8-0.7,5.7-1.5,8.5-2.3c1.6-0.5,3.2-1.4,4.8-1.9c4-1.2,7.8-2.8,11.4-5.5c-0.5-2.9-0.8-5.9-1.4-8.8c-0.6-2.9,0.2-6.1-1.5-8.8
	c-0.8,0.3-1.5,0.6-2.3,0.9c-2.1,0.8-4.4,1.4-6.2,2.6c-2.1,1.5-4.3,2.3-6.6,3.2c-3,1.3-6.1,2.6-9.1,3.8c-1.6,0.6-3.3,1.2-5,1.5
	c-1.9,0.4-2.9-0.2-3.1-1.7c-0.3-2.1,0.7-3.6,2.5-3.9c0.8-0.1,1.5-0.2,2.3-0.5c5.1-1.7,10.1-3.4,15.2-5.1c4.1-1.4,8.3-2.7,12.4-4
	c-1-6.1-1.9-11.9-2.7-17.7c-0.2-1.7-0.9-2.5-2.5-3.1c-3.8-1.4-5.5-5-3.9-8.8c0.9-2,2.4-3.8,3.8-5.8c-1.4-7.1-1.9-14.7-4.5-21.8
	c-0.1-0.4-0.1-0.8-0.1-1.2c-0.2-6.4-2.6-12.4-4.3-18.8c-4.2,1.4-8.3,2.8-12.1,4.1c-0.9-0.8-1.7-1.4-2.3-2.1
	c-0.5-0.5-1.2-1.1-1.5-1.7c-0.9-1.7-0.4-2.6,1.4-3c1.6-0.3,3.3-0.8,4.9-0.7C446.9,137.4,449.5,136.6,452.4,135.3z"/>
<path fill-rule="evenodd" clip-rule="evenodd" fill="#FFFFFF" d="M386.4,48c-2.3,3.3-4.4,6.2-6.6,9.5c2.3,0.7,4.4,1.4,6.5,2
	c-1.8,0.1-3.6-0.2-5.2-0.7c-1.3-0.4-2.1-0.5-2.8,1c-1,1.9-2.4,3.6-3.5,5.4c-1.4,2.2-2.6,4.5-3.9,6.8c4,1.6,7.6,3,11.4,4.5
	c5.7-8,10.4-16.4,15.1-25.2C393.7,50.1,390.2,49.1,386.4,48z"/>
<path fill-rule="evenodd" clip-rule="evenodd" fill="#FFFFFF" d="M383.8,77.2c2.9,1.2,5.6,2.4,8.5,3.4c0.5,0.2,1.6-0.2,1.9-0.7
	c1.5-2.5,2.9-5.1,4.4-7.8c-0.6-0.3-1.1-0.7-1.6-0.8c-2.3-0.6-2.4-0.6-1.9-2.8c0.2-1.2-0.6-3,1-3.4c1-0.2,2.4,0.6,3.5,1.1
	c1.8,0.7,2.6,0.5,3.6-1.3c0.6-1.1,1.2-2.3,1.8-3.4c1.2-2.2,2.4-4.4,3.8-6.9c-3.5-1.1-6.7-2.1-9.8-3
	C393.8,60.2,388.8,68.5,383.8,77.2z"/>
<path fill-rule="evenodd" clip-rule="evenodd" fill="#FFFFFF" d="M292.8,92c0.5,2.3,1.5,3.1,3.2,3.4c1.6,0.3,3.2,1,4.8,1.5
	c5.3,1.6,10.7,3.2,16,4.9c4,1.3,8,2.6,11.9,4c1.8,0.6,3.5,1.4,5.7,2.2c0-2.6,0-4.6,0-6.7c0-1.2-0.7-1.7-1.8-2
	c-1.3-0.4-2.6-0.8-3.9-1.3c-3.5-1.3-6.9-2.8-10.4-4c-6-1.9-12-3.7-18-5.4c-1.4-0.4-2.7-0.4-3.4,1.4c0.7,0.4,1.3,0.9,2,1.1
	c5.4,1.9,10.8,4,16.3,5.6c5.7,1.7,11.2,4.1,16.7,6.2c0.4,0.1,0.8,0.3,1,0.6c0.3,0.3,0.4,0.8,0.6,1.1c-0.5,0.2-0.9,0.5-1.4,0.5
	c-0.4,0-0.9-0.4-1.3-0.5c-3.9-1.6-7.7-3.3-11.7-4.7c-5-1.9-10.2-3.5-15.2-5.3c-2.7-0.9-5.4-1.9-8.1-2.7C294.9,91.8,294,92,292.8,92z
	"/>
<path fill-rule="evenodd" clip-rule="evenodd" fill="#FFFFFF" d="M357.6,68.4c3.3,0.9,6.1,1.6,8.9,2.5c2.6,0.8,3,0.7,4.5-1.7
	c1.4-2.3,2.8-4.5,4.2-6.7c0.9-1.5,1.7-3,2.7-4.9c-4.2-0.5-7.6-2.8-11.5-3.1C363.4,59.2,360.6,63.6,357.6,68.4z"/>
<path fill-rule="evenodd" clip-rule="evenodd" fill="#FFFFFF" d="M336.3,157.4c-9.5-6.2-19.3-11.3-29.8-15.5
	c0.4,1.7,0.7,2.8,2.2,3.5c3.4,1.6,6.8,3.4,10.2,5.1c4.8,2.3,9.7,4.6,14.6,6.8c1,0.5,1.5,1.1,1.3,2.9c-3.3-1.2-6-3.1-9-4.5
	c-3-1.4-5.9-3-8.9-4.5c-3-1.5-6-2.9-9.2-4.4c0,2.8,0,2.9,1.5,3.8c2.4,1.4,4.7,2.8,7.2,4c5.3,2.6,10.7,5.2,16.1,7.8
	c1,0.5,2.1,0.7,3.3,1c0.2-1.2,0.5-2,0.5-2.9C336.4,159.6,336.3,158.6,336.3,157.4z"/>
<path fill-rule="evenodd" clip-rule="evenodd" fill="#FFFFFF" d="M335.3,116.1c-12.9-5.8-25.9-10.3-39.4-13.7c0.5,1.2,1,2.2,1.9,2.9
	c1.4,1,3,1.8,4.6,2.5c3,1.3,6,2.5,9,3.6c5.5,2.1,11.1,4.2,16.6,6.3c1.5,0.6,2.9,1.2,4.4,1.6c0.9,0.3,1.8,0.2,2.9,0.3
	C335.3,118.2,335.3,117.1,335.3,116.1z"/>
<path fill-rule="evenodd" clip-rule="evenodd" fill="#FFFFFF" d="M381.5,77.5c-1.9-0.9-3.7-1.8-5.6-2.6c-1.9-0.7-3.8-1.3-5.6-1.8
	c-2.6,3.2-4.2,6.6-5.5,10.2c-0.7,1.8-0.5,2.5,1.1,3c3.2,0.9,6.3,1.7,9.6,2.6C377.5,85,379.5,81.3,381.5,77.5z"/>
<path fill-rule="evenodd" clip-rule="evenodd" fill="#FFFFFF" d="M361.9,84.7c2.3-4.1,4.4-8,6.6-12c-4-0.9-7.7-2.7-11.7-3
	c-2.1,3.7-4.2,7.2-6.3,10.7C354.2,82.9,358.1,83.6,361.9,84.7z"/>
<path fill-rule="evenodd" clip-rule="evenodd" fill="#FFFFFF" d="M294.6,96.5c0.2,3,1.5,4,3.9,4.7c7.3,2.1,14.5,4.6,21.7,7.1
	c3.9,1.3,7.6,2.9,11.5,4.3c1,0.4,2.2,0.5,3.4,0.8c-0.1-0.7-0.2-1-0.2-1.3c-0.3-2.6-0.4-2.4-2.8-3.2c-2.4-0.8-4.7-1.8-7.1-2.7
	c-2.5-0.9-4.9-1.9-7.4-2.7c-1.7-0.6-3.4-0.9-5.1-1.4C306.7,100.3,300.8,98.4,294.6,96.5z"/>
<path fill-rule="evenodd" clip-rule="evenodd" fill="#FFFFFF" d="M297.6,107.6c0.6,2.3,1.2,3.8,2.8,4.6c1.5,0.8,3.1,1.3,4.6,2
	c6.6,2.9,13.2,5.9,19.9,8.7c1.7,0.7,3.6,0.9,5.3,1.5c1.8,0.7,3.5,1.6,5.5,2.5c-0.1-1.5-0.2-2.6-0.2-3.7
	C323.3,117,310.5,113,297.6,107.6z"/>
<path fill-rule="evenodd" clip-rule="evenodd" fill="#FFFFFF" d="M394.9,81.6c4.2,1.3,8,2.4,11.7,3.5c0.8,0.2,1.8,0.7,2.4-0.4
	c1.2-2.3,3.1-4.2,3.6-7c-4.3-1.7-8.3-4-12.7-5.2C398.2,75.6,396.6,78.4,394.9,81.6z"/>
<path fill-rule="evenodd" clip-rule="evenodd" fill="#FFFFFF" d="M310.6,165.4c-1.1,3.2-1,4,1.4,5.5c2.4,1.5,4.9,2.8,7.4,4
	c4.7,2.3,9.5,4.4,14.3,6.6c0.6,0.3,1.2,0.4,1.9,0.6c0.1-0.9,0.2-1.6,0.3-2.3c0-0.6-0.1-1.2-0.1-1.5
	C328.3,172.4,319.2,169.6,310.6,165.4z"/>
<path fill-rule="evenodd" clip-rule="evenodd" fill="#FFFFFF" d="M382.7,78.2c-2,3.9-3.8,7.4-5.7,11.1c3.6,1.1,6.8,2.2,10.2,3.2
	c1.9-3.5,3.7-6.8,5.7-10.4C389.2,80.8,386.3,78.8,382.7,78.2z"/>
<path fill-rule="evenodd" clip-rule="evenodd" fill="#FFFFFF" d="M310.7,177.7c-0.5,3-0.5,3.1,1.8,4.5c2.7,1.7,5.4,3.4,8.2,5.1
	c4.6,2.7,8.7,6.1,13.9,7.8c0.1-0.4,0.2-0.7,0.2-1c0.6-3.9,0.2-4.5-3.3-6.1c-3.3-1.5-6.5-3.2-9.7-5
	C318.4,181.1,314.9,179,310.7,177.7z"/>
<path fill-rule="evenodd" clip-rule="evenodd" fill="#FFFFFF" d="M332.6,213.7c-8.4-3.9-15.3-10.1-24.2-12.8
	c-0.1,1.1-0.2,2.2-0.4,3.6c8.2,3.8,14.7,10.5,24.1,13C332.3,216.3,332.5,215.2,332.6,213.7z"/>
<path fill-rule="evenodd" clip-rule="evenodd" fill="#FFFFFF" d="M301.1,119c-0.2,0.2-0.3,0.3-0.5,0.5c0.7,1,1.1,2.5,2.1,3
	c3.8,2.1,7.6,4,11.5,5.8c2.8,1.3,5.8,2.3,8.6,3.5c3.8,1.7,7.4,3.5,11.2,5.2c0.8,0.4,1.6,0.8,2.2-0.7
	C325.3,128.7,313.7,122.9,301.1,119z"/>
<path fill-rule="evenodd" clip-rule="evenodd" fill="#FFFFFF" d="M309.1,152.4c-1.1,2.9-0.3,4.5,1.9,5.5c0.9,0.4,1.6,1.1,2.5,1.5
	c2.4,1.1,4.9,1.9,7.3,3.1c3.3,1.7,6.6,3.5,9.8,5.3c1.6,0.9,3.2,1.7,5.2,1.8c0-1.5,0-2.7,0-3.8c-1.1-0.4-2.2-0.6-3.2-1.1
	c-0.8-0.4-1.5-1.2-2.3-1.6c-4.6-2.3-9.2-4.4-13.7-6.7C314.1,155.2,311.7,153.8,309.1,152.4z"/>
<path fill-rule="evenodd" clip-rule="evenodd" fill="#FFFFFF" d="M304.8,133.2c10.3,5.3,20.5,10.6,30.8,15.9c1-2.3,0.4-3.8-1.3-4.8
	c-0.7-0.5-1.5-0.9-2.3-1.3c-8.1-3.9-16.2-7.7-24.3-11.6c-0.8-0.4-1.6-0.8-2.4-1.1c-0.2-0.1-0.5,0.1-0.9,0.1
	C304.5,131.2,304.6,132,304.8,133.2z"/>
<path fill-rule="evenodd" clip-rule="evenodd" fill="#FFFFFF" d="M309.1,194.8c-0.6,3.3-0.5,3.5,1.7,4.8c5.4,3.2,10.9,6.3,16.3,9.3
	c1.1,0.6,2.3,1.1,3.6,1.3c0.8,0.1,2-0.3,2.4-0.9c0.7-0.9,0.4-2.1-0.7-2.8c-0.3-0.2-0.7-0.4-1-0.6c-4.9-2.5-9.8-5-14.7-7.4
	C314.3,197.2,311.9,196.1,309.1,194.8z"/>
<path fill-rule="evenodd" clip-rule="evenodd" fill="#FFFFFF" d="M304.9,135.2c0.9,2.4,1.5,4.1,3.6,5.3c2.1,1.2,4.4,1.9,6.6,3.1
	c6.3,3.3,12.6,6.7,18.8,10c0.6,0.3,1.3,0.6,2.1,1c0.4-2.5-1.2-3.8-2.6-4.6c-4.1-2.6-8.3-5.1-12.7-7.3
	C315.7,140.1,310.5,137.8,304.9,135.2z"/>
<path fill-rule="evenodd" clip-rule="evenodd" fill="#FFFFFF" d="M308,206.5c-1.1,2.8,0,4.3,2.1,5.4c1.3,0.7,2.6,1.4,3.8,2.2
	c4.7,3,9.4,6,14.1,9c0.8,0.5,1.8,0.7,3,1.2c0.3-1.8,0.4-3.1,0.6-4.4C322.8,216.7,316.5,209.9,308,206.5z"/>
<path fill-rule="evenodd" clip-rule="evenodd" fill="#FFFFFF" d="M330.5,227.1c-7.4-5.4-14.6-10.8-23.1-14.3
	c-0.3,1.2-0.5,2.2-0.8,3.2c3.8,2.4,7.6,4.6,11.3,7.1c3.8,2.6,7.7,4.8,12,6.8C330.2,228.8,330.4,227.8,330.5,227.1z"/>
<path fill-rule="evenodd" clip-rule="evenodd" fill="#FFFFFF" d="M336.3,143.2c0.6-3.1-1.7-3.8-3.4-4.6c-4.3-2.2-8.7-4.3-13.2-6.4
	c-5.5-2.5-11-4.8-16.6-7.2c-0.5,2.3,0.7,3.1,2.3,3.8c6,2.8,11.9,5.8,17.8,8.6C327.5,139.3,331.7,141.1,336.3,143.2z"/>
<path fill-rule="evenodd" clip-rule="evenodd" fill="#FFFFFF" d="M300.2,113.8c-0.5,1.9,0.5,2.3,1.3,2.7c5.1,2.4,10.3,4.5,15.3,7.1
	c5.5,2.7,11.4,4.7,16.3,8.5c0.7,0.5,1.5,0.9,2.4,0.1c-0.1-1-0.2-1.9-0.4-3c-5.8-2.7-11.5-5.4-17.3-7.9
	C312.2,118.7,306.3,116.4,300.2,113.8z"/>
<path fill-rule="evenodd" clip-rule="evenodd" fill="#FFFFFF" d="M309.6,159.8c-0.3,1.5-0.2,2.8,1.5,3.6c3,1.4,5.9,3,8.9,4.5
	c3.8,1.9,7.6,3.9,11.4,5.8c1.3,0.7,2.8,1.2,4.4,1.9c0-1.5,0-2.6,0-3.7c-3.6-1.1-6.7-3.2-9.9-5c-5-2.8-10.4-4.9-15.7-7.2
	C310.1,159.6,309.9,159.8,309.6,159.8z"/>
<path fill-rule="evenodd" clip-rule="evenodd" fill="#FFFFFF" d="M309.9,189.7c-0.5,2.5,0.6,3.7,2.3,4.5c6.4,3.2,12.7,6.3,19.1,9.4
	c0.7,0.4,1.6,0.4,3.1,0.7c-0.5-1.4-0.7-2.4-1.2-3c-0.7-0.7-1.7-1.1-2.6-1.6c-6.2-3.1-12.3-6.3-18.5-9.4
	C311.5,190.1,310.8,190,309.9,189.7z"/>
<path fill-rule="evenodd" clip-rule="evenodd" fill="#FFFFFF" d="M300.7,86.4c1.3,0.7,2.4,1.4,3.6,1.8c3.6,1.2,7.2,2.4,10.9,3.4
	c4.9,1.5,9.8,2.7,14.4,5c1.3,0.6,2.8,0.7,4.2,1.1c0.4-2.1,0-2.8-2.2-3.5c-1.9-0.7-3.9-1.2-5.9-1.9c-7.7-2.6-15.4-5.1-23-7.6
	C301.9,85.4,301.4,85.8,300.7,86.4z"/>
<path fill-rule="evenodd" clip-rule="evenodd" fill="#FFFFFF" d="M335.3,187.3c0-0.7,0.1-1.3-0.2-1.7c-1-1.5-2.2-2.6-3.9-3.4
	c-2.8-1.4-5.6-2.9-8.4-4.2c-4-1.9-8-3.8-12-5.7c-1.4,1.5-0.6,2.5,0.5,3.3c1,0.8,2.2,1.3,3.3,1.9c3.4,1.8,6.9,3.6,10.4,5.4
	c3,1.5,5.9,2.9,8.9,4.3C334.3,187.4,334.7,187.3,335.3,187.3z"/>
<path fill-rule="evenodd" clip-rule="evenodd" fill="#FFFFFF" d="M334.7,196.8c-1.9,0.7-3.2-0.2-4.6-1.2c-5.7-4.5-12-8.2-18.2-11.7
	c-0.5-0.3-1-0.3-1.7-0.6c-0.1,1.6-0.1,2.9-0.2,4.2c0.4,0.3,0.6,0.5,0.8,0.6c6.2,3.1,12.4,6.3,18.6,9.4c1.6,0.8,3.3,1.6,5.3,1.1
	C334.7,198,334.7,197.5,334.7,196.8z"/>
<path fill-rule="evenodd" clip-rule="evenodd" fill="#FFFFFF" d="M333.5,92.8c-0.4-2.4-1.6-3.1-3.1-3.5c-7.8-2.3-15.6-4.5-23.4-6.8
	c-1-0.3-1.8-0.2-2.3,1.1c0.4,0.3,0.7,0.5,1.1,0.6c5,1.7,10,3.3,15,5c3.4,1.1,6.9,2.3,10.3,3.4C331.8,92.8,332.5,92.7,333.5,92.8z"/>
<path fill-rule="evenodd" clip-rule="evenodd" fill="#FFFFFF" d="M330.5,76.9c-4.8-0.7-9.4-1.5-14.1-2.2c-0.5-0.1-1.1,0.3-1.6,0.4
	c2.7,1.1,5.4,1.6,7.9,2.5c2.5,1,5.6,0.4,7.8,2.7c-3.2,0.6-6-1.2-9.1-1.4c-3.1-0.3-6.2-1.5-9.4-0.8c6.5,2.8,13.4,4,20.3,5.7
	C331.7,81.6,331.1,79.4,330.5,76.9z"/>
<path fill-rule="evenodd" clip-rule="evenodd" fill="#FFFFFF" d="M332.4,85.1c-1.4-0.2-2.5-0.4-3.6-0.6c-6-1.4-11.9-2.9-17.9-4.2
	c-1.1-0.3-2.3-0.5-3.4,0.8c7.9,2.3,15.6,4.5,23.4,6.7c0.4,0.1,0.9,0,1.5,0C332.4,86.7,332.4,85.9,332.4,85.1z"/>
<path fill-rule="evenodd" clip-rule="evenodd" fill="#FFFFFF" d="M329.1,67.7c-1.8,0-3.4,0-5,0c-1.2,0-2.1,0.2-1.9,1.8
	c1.8,1.1,4.4-0.2,6.2,2c-0.8,0.2-1.4,0.4-1.9,0.3c-1.7-0.2-3.3-0.4-4.9-0.7c-1.8-0.4-3.1,0.3-4.3,2c4.5,0.8,8.7,1.5,13.3,2.3
	C330,72.8,329.6,70.2,329.1,67.7z"/>
<path fill-rule="evenodd" clip-rule="evenodd" fill="#FFFFFF" d="M328.1,62.7c-1.1,1.1-1.9,1.9-3.1,3.1c1.6,0,2.6,0,3.7,0
	C328.6,64.8,328.4,64,328.1,62.7z"/>
<path fill-rule="evenodd" clip-rule="evenodd" d="M347.3,121.5c2.6,0.9,4,2.4,6.1,6.7c0.8-1.2,1.4-2.3,2.1-3.3c0.7-1,1.3-1.9,2.1-3
	c-0.7-4.6-3.1-8.4-6.3-12c0.7-0.4,1.2-0.9,1.4-0.7c0.8,0.4,1.6,0.8,2.1,1.5c1.2,1.6,2.3,3.4,3.4,5.1c0.7,1.1,1.4,2.1,2.2,3.5
	c0.9-0.7,1.6-1.3,2.3-2c1.2-1.1,1.5-2.2,1.2-3.9c-1-5.1-4-9-7.4-12.7c-0.3-0.4-0.9-0.6-1.1-1c-0.1-0.4,0-0.9,0.3-1.3
	c0.1-0.2,0.8-0.4,1-0.2c0.7,0.5,1.4,1,1.9,1.7c3.1,4.3,6.1,8.6,9,12.9c1.3,2,2.7,3,5.2,2.7c4.9-0.6,9.7,0.4,14.4,2.5
	c2.8-3.3,5.5-6.7,9.5-8.5c4.1-1.8,8.4-1.7,12.7-2c2.1-3.2,4.2-6.5,6.5-9.7c2.2-3.1,4.1-6.4,7.4-8.7c1.1,1.3,0.3,2.3-0.4,3.1
	c-1.1,1.3-2.1,2.6-3.2,3.8c-2.9,3-4.2,6.8-5.7,10.5c-0.5,1.2-0.2,2,1.1,2.5c1.2,0.4,2.3,1,3.5,1.6c3.3-3.1,5.5-7.1,9.6-9.7
	c0.1,1,0.2,1.8,0.3,2.5c-2.7,1.7-4.5,3.9-6,6.5c-0.8,1.4-0.9,2.7,0.4,4c1,1,1.8,2.3,2.9,3.7c1.6-1.4,3-2.7,4.4-4
	c1.1-1,2-2.1,3.2-3.1c0.4-0.3,1.5-0.5,1.7-0.2c0.4,0.4,0.6,1.4,0.3,1.8c-0.4,0.8-1.3,1.4-1.9,2.2c-1.4,1.6-3,3.1-4.2,4.8
	c-1.5,2.1-0.8,4.5-0.7,6.8c0.4,6.5-0.3,12.8-3.2,18.8c-1.8,3.6-4.6,6.1-7.2,8.7c-1.8,1.8-3.5,3.7-6.1,4.4c-0.5,0.1-0.9,0.4-1.4,0.4
	c-2.9,0.1-5.9,0.6-8.8,0.1c-4.9-0.7-9-3.2-12.3-6.8c-0.3-0.3-0.5-0.6-1-1c-1.4,1.3-2.7,2.6-4,3.9c-3.3,3.6-7.7,5.3-12.3,6.3
	c-4.1,0.9-8.2,0.6-12.2-0.7c-3.3-1.1-5.7-3.4-7.3-6.4c-1.7-3.1-2.6-6.5-3.1-10c-0.3-2.4,0.3-4.6,0.6-6.9c0.1-1.3,0.4-2.5,0.9-3.7
	c0.8-2.1,0.2-3.8-1-5.4c-0.9-1.2-1.8-2.3-2.8-3.4C346.8,123.4,346.3,122.7,347.3,121.5z"/>
<path fill-rule="evenodd" clip-rule="evenodd" fill="#FFFFFF" d="M390.5,147.7c1.2,5.1,11.2,9.4,16,9c4.8-0.5,9-1.9,12-5.9
	c0.7-0.9,1.6-1.7,2.5-2.5c3.2-3.1,4.5-7.1,5.5-11.2c0.4-1.9,0.5-3.9,0.6-5.8c0.4-8.3-2.9-15.3-11.6-19.2c-4.4-2-9-2.5-13.7-1
	c-1.2,0.4-2.5,0.5-3.7,0.9c-3.7,1.4-6.4,3.9-8.4,7.1C395.5,126.8,395.9,138.8,390.5,147.7z"/>
<path fill-rule="evenodd" clip-rule="evenodd" fill="#FFFFFF" d="M368.3,158.5c3.1,0.2,6.3-0.7,9.5-2.1c6-2.7,9.9-7.4,12.4-13.4
	c2.2-5.3,2-10.7,0.8-16.1c-0.9-4.1-3.9-6.6-8.1-7c-2.1-0.2-3.9-0.7-5.9-1.3c-1.6-0.5-3.2-1-4.8-1.2c-2.8-0.3-5.6-0.3-7.9,1.5
	c-2.6,2.2-5.2,4.4-7,7.5c-2,3.4-3.6,6.9-4.7,10.7c-0.9,3.3-0.6,6.6,0.3,9.8c0.5,2,1.5,4.1,2.6,5.9
	C358.3,157.3,362.7,158.7,368.3,158.5z"/>
<path fill-rule="evenodd" clip-rule="evenodd" d="M781.5,233c4.4-5.2,7.3-10.8,10.5-16.2c3.6-6.3,7.5-12.4,11.5-18.4
	c2.9-4.3,6.3-8.2,9.4-12.4c2-2.8,3.8-5.7,5.6-8.6c2.9-4.4,5.8-8.8,8.7-13.3c0.5-0.8,1.1-1.7,1.5-2.6c0.7-1.7,2-2.6,4-3
	c0.6,0.9,1.4,1.8,1.7,2.9c1.2,3.7,4.2,6.4,6.1,9.6c1.2,2,3,3.6,4,5.7c2.2,4.5,5.6,8.1,8.6,11.9c2.7,3.3,5.9,6.2,8.9,9.3
	c1.8,1.8,3.6,3.6,6.3,4.7c2-2.4,4.1-4.9,6.2-7.4c1.5-1.8,3-3.6,4.7-5.2c1.6-1.5,3.2-1.4,4.6,0.3c2.3,2.8,4.3,5.8,6.4,8.8
	c0.9,1.4,1.7,2.8,2.6,4.2c3.4,5.1,6.8,10.3,10.4,15.3c3.7,5.2,7.6,10.2,11.6,15.2c1.2,1.5,2.9,2.6,4.5,3.7c2.9,2,5.3,1.6,7.9-1
	c4.8-4.9,8.5-10.5,11.9-16.4c2.8-4.7,5.7-9.4,8.6-14c5.6-8.8,11.5-17.5,16.3-26.8c1.5-2.9,3-5.9,4.8-8.7c0.9-1.3,2.3-2.3,3.6-3.3
	c0.9-0.7,1.7-0.2,2.2,0.7c0.5,0.8,0.9,1.7,1.3,2.6c1.8,4.3,4.9,7.8,7.8,11.3c3.8,4.8,8.3,9.1,12.5,13.5c0.4,0.4,1.3,0.4,1.8,0.8
	c0.6,0.5,1.2,1.1,1.6,1.9c0.1,0.3-0.4,1.2-0.8,1.3c-0.8,0.2-2.1,0.4-2.4,0c-4-4.7-9.4-8-12.9-13.2c-2.6-3.9-5.6-7.5-8.9-10.8
	c-1-1-1.8-2.3-3-3.8c-1.8,2.9-3.5,5.5-5.1,8.2c-3.1,5.3-5.8,10.8-9.4,15.9c-2.6,3.7-4.4,8-6.6,12.1c-1.5,2.7-3,5.5-4.7,8.1
	c-2.2,3.2-4,6.7-5.7,10.2c-1.3,2.8-3.4,5.2-5.1,7.8c-0.3,0.5-0.7,0.9-1,1.5c-1.8,3.4-4.3,6-7.4,8.2c-0.9,0.7-1.7,1.6-2.5,2.4
	c-1,0.9-2.2,1.7-3.4,1.5c-4.4-5.5-8.7-10.8-12.8-16.3c-2-2.6-3.4-5.7-5.1-8.5c-3-4.7-6-9.4-9-14.1c-2.8-4.3-5.7-8.5-8.5-12.7
	c-0.6-0.9-1.3-1.7-2.1-2.7c-3,3.1-6.3,5.3-8.6,8.7c-1.6,2.3-3.8,4.1-4.9,6.9c-0.5,1.4-1.9,1.6-2.9,0.7c-5.2-5.1-10.8-9.7-15.1-15.6
	c-1.5-2.1-2.7-4.5-4.1-6.8c-2.9-5-5.7-10-8.7-15c-2.1-3.5-4.7-6.5-7.7-9.3c-0.4,0.4-0.9,0.7-1.1,1.1c-3.1,5.7-7.5,10.6-10.7,16.3
	c-2.8,5-6.6,9.2-9.7,14c-4.8,7.5-9.6,15-14.4,22.5c-2.6,4.1-5,8.4-7.9,12.4c-1.9,2.7-4.1,5.2-5.7,8.2c-0.9,1.8-2.5,2-4.3,1.1
	c-1-0.5-2-1.3-2.8-2.1c-2.4-2.5-4.8-4.9-6.5-8c-1.1-1.9-2.9-3.5-4.2-5.3c-2.5-3.4-5-7-7.5-10.5c-2.9-4.2-6.3-7.9-10.6-10.7
	c-1.1-0.8-2.2-1.7-3.3-2.5c-1.1-0.8-2.1-1.6-3.2-2.5c-5,2.8-8.8,6.6-11.9,11.3c-2.9,4.4-5.6,8.9-9.2,12.8c-2.7,2.9-4.4,6.6-6.8,9.8
	c-1.3,1.8-3,3.4-4.7,4.8c-1.8,1.5-4.1,1.3-5.4-0.7c-1.8-2.9-3.6-5.9-4.6-9.1c-1.8-5.6-3.1-11.3-4.6-17c-0.3-1.2-0.5-2.5-1-3.7
	c-0.7-1.8-1.6-2-2.9-0.6c-2.2,2.2-4.2,4.6-6.4,6.9c-3.8,3.9-7.6,7.9-11.7,11.5c-1.4,1.3-3.6,1.6-5.7,2.5c0.3,3.3,1.4,6.5,2.9,9.5
	c0.7,1.4,0.5,2.3-0.6,3.3c-4.5,4-8.4,8.5-11.4,13.7c-1.1,1.9-3,1.7-4.7,1.7c-3.3,0.1-6.6-1-10.1-0.5c-3.4,0.5-6.8,0.9-10.2,1.1
	c-4.2,0.2-8.4,0.2-12.5,0.3c-0.9,0-1.7,0.2-2.6,0.3c-2,0.3-3.9,0.6-6.1,0.4c-3.6-0.3-7.3,0.2-11,0.3c-2.4,0.1-4.9,0-7.3-0.1
	c-3.6-0.1-7.2-0.3-10.8-0.5c-5-0.3-10-0.6-15-0.9c-1.4-0.1-2.9,0.2-4.3,0.2c-8-0.4-16.1-0.5-24.1-1.3c-8.7-0.9-17.5-1.3-26.1-3.5
	c-2.1-0.5-4.1-1.7-6.1-2.6c-1.4-0.7-1.6-2-1.1-3.3c2.1-5.2,2.2-10.9,4.1-16.2c1.1-3,2-6.1,3-9.2c1.4-4.1,2.8-8.1,4.2-12.2
	c0.2-0.5,0.2-1,0.3-1.4c0.6-2.5,1.2-4.9,1.8-7.4c1.2-5.4,2.4-10.9,3.5-16.3c0.8-4.1,1.5-8.3,2.3-12.4c1.6-8.8,3.5-17.5,4-26.4
	c0.4-6.4,0.6-12.9,0.2-19.3c-0.1-1-0.5-1.9-0.8-2.8c-2.4-7.4-2.2-14.6,1.7-21.6c0.9-1.6,1.7-3.3,1.6-5.2c0-0.8,0.1-1.6,0.5-2.3
	c2.2-4.2,2-8.9,2.4-13.4c0.9-8.8,0.5-17.6-0.2-26.4c-0.6-6.2-1.4-12.4-2.1-18.7c-0.4-3.5-0.5-7,0.3-10.5c0.5-2,1.1-3.3,3.7-3.6
	c4.1-0.5,8-1.8,12-2.7c3.4-0.8,6.9-1.6,10.3-2.1c4.2-0.7,8.5-1.1,12.8-1.7c4.2-0.6,8.3-1.2,12.5-1.7c5.9-0.7,11.8-1.5,17.8-2
	c7.1-0.6,14.2-1,21.3-1.4c2-0.1,3.8,0.2,4.9,2.3c2.3,4.7,6.3,8.2,9.2,12.5c3.6,5.3,8.6,9.7,11.7,15.4c0.7,1.3,1.8,2.3,2.8,3.4
	c1.6,1.9,3.1,3.8,4.7,5.6c1.2,1.3,2.5,2.4,3.7,3.7c0.5,0.5,0.9,1,1.4,1.5c0.9,1,1.7,2.1,2.8,2.9c1.2,0.9,1.8,1.8,1.5,3.4
	c-0.9,6.6-1.7,13.2-2.4,19.8c-0.3,2.9-0.5,5.8-0.6,8.8c-0.3,4.7-0.4,9.4-0.8,14.1c-0.4,6.4-0.1,12.9-0.9,19.3c-0.5,4-0.2,8-0.3,12
	c-0.1,6.1-0.4,12.3-0.4,18.4c0,3.4,0.6,6.8,0.8,10.2c0.1,2.4,0.1,4.9,0.2,7.3c0.1,2.9,0.1,5.9,0.2,8.8c0.2,6.4,0.3,12.8,0.7,19.1
	c0.2,3.5,0.9,7,1.4,10.5c0,0.2,0.1,0.4,0.1,0.6c-0.2,4.4,1.6,8.4,1.9,12.7c0.1,1.6,1.5,1.9,2.3,2.7c3-0.6,5-2.4,7-4.5
	c3.6-3.9,7.5-7.7,11.2-11.6c2-2.1,3.8-4.5,5.6-6.7c0.7-0.9,1.5-1.8,2.2-2.7c2.3,1.8,2.3,4.3,2.8,6.5c1.2,5.7,1.9,11.4,3.3,17
	c0.9,3.4,2.7,6.5,4.1,9.7c0.6,1.3,1.3,2.5,1.9,3.7c2.5-0.1,3.8-1.2,5-3c3.2-4.6,6.8-8.9,9.9-13.5c3.5-5.2,6.7-10.5,10.1-15.8
	c2.1-3.3,4.6-6.4,8-8.9c0.8,0.4,1.7,0.7,2.4,1.3c2.8,2.2,5.7,4.5,8.4,6.9c4.7,4.1,9.4,8.3,13.8,12.7c3.7,3.6,7.1,7.5,10.7,11.2
	c2,2.1,4.1,4.2,6.2,6.1C779,231.3,780.2,232,781.5,233z"/>
<path fill-rule="evenodd" clip-rule="evenodd" fill="#FFFFFF" d="M650.3,83.2c-0.4,1.7-1.8,2.4-3.1,3.2c-5.2,3-10.6,5.8-15,10.1
	c-0.7,0.7-1.6,1.1-1.3,2.6c1.3-0.4,2.6-0.6,3.6-1.2c7.3-4.3,14.6-8.6,21.9-12.9c1.7-1,2-1.6,1.6-4.2c-1.2,0.5-2.3,0.9-3.5,1.3
	c-1.2,0.5-2.3,1.1-3.5,1.5C650.9,83.7,650.5,83.4,650.3,83.2c1.8-1.1,3.7-2.2,5.5-3.3c3.1-1.8,3.3-2.2,2.6-6.5
	c-1.9,1.2-3.7,2.4-5.4,3.5c-1,0.7-1.9,1.4-2.9,2c-3.8,2.3-7.6,4.4-11.3,6.7c-2.1,1.3-4.2,2.9-6.2,4.4c-1.3,0.9-1.9,2.2-1.7,4
	c2.9-1.7,5.6-3.2,8.3-4.8C643,87.2,646.6,85.2,650.3,83.2z"/>
<path fill-rule="evenodd" clip-rule="evenodd" fill="#FFFFFF" d="M531.5,130.6c-0.3,1.4-0.6,3-0.8,4.5c-0.7,5.2-1.3,10.5-2.1,15.7
	c-1.1,6.4-2.6,12.7-3.5,19c-0.7,5.1-2.1,10.2-1.9,15.4c0,1-0.2,1.9-0.4,2.9c-0.5,2.3-1.3,4.5-1.7,6.8c-1,5.8-2.1,11.5-3.7,17.2
	c-1.5,5.3-2.8,10.6-4,15.9c-1.3,5.6-3.8,10.9-4.1,16.8c-0.1,1.9,0.2,2.6,2,2.9c3.1,0.5,6.3,0.8,9.3,1.9c0.5,0.2,1.1,0.3,1.7,0.4
	c5.4,0.5,10.9,0.8,16.3,1.5c5.2,0.7,10.4-0.2,15.6,0.5c2.4,0.3,4.9-0.1,7.3,0c3.5,0.2,7,0.7,10.5,0.9c1.3,0.1,2.8-0.4,4.1-0.2
	c3.8,0.7,7.7,0.5,11.6,0.7c7.5,0.5,15,0.3,22.5-0.3c1.8-0.1,3.7-0.3,5.5-0.4c3.4-0.2,6.9-0.3,10.3-0.5c4-0.2,8-0.2,11.9-0.7
	c3.8-0.5,7.6-1.5,11.4-2.4c0.2-0.1,0.4-0.4,0.6-0.5c-1.3-6.5-4-12.5-5-19c-1-6.4-2.8-12.6-3.8-19c-0.4-2.9-1.6-5.7-1.2-8.9
	c0.3-2.2-0.3-4.7-0.9-6.9c-1.1-4-2-8.1-2.4-12.3c-0.1-1.2-0.4-2.3-0.6-3.5c-0.2-2-0.3-4-0.5-6c-0.4-3.4-1.1-6.9-1.4-10.3
	c-0.3-4.1-0.4-8.2-0.6-12.3c-0.2-4-1.2-8-1.2-12c0-3.2-0.6-6.4-1-9.6c-0.6-4.8-1.2-9.7-1.8-14.5c-0.6-5.9-1.6-11.9-1.6-17.8
	c0-4.9-0.8-9.7-1.3-14.5c-0.5-5.5-1.3-11.1-1.9-16.6c-0.1-0.8,0-1.6,0-2.3c0-4.3,0-8.5,0-12.8c0-0.4-0.2-0.8-0.2-1.2
	c-0.7-6.6-1.8-13.2-2.1-19.8c-0.2-6-0.5-11.9-1.6-18c-0.9-0.2-1.9-0.6-3-0.7c-1.8-0.1-3.7,0.1-5.5,0.2c-3.6,0.1-7.2,0.1-10.8,0.4
	c-6.2,0.5-12.4,1.3-18.6,2c-3.2,0.3-6.4,0.7-9.5,1.1c-5.3,0.6-10.7,1.2-15.9,2c-4.8,0.7-9.6,1.6-14.4,2.6c-3.6,0.8-7.2,1.8-10.8,2.7
	c-0.7,2.7-0.2,5.3,0.1,7.9c0.4,3.4,0.4,6.8,0.7,10.3c0.3,3.5,0.2,7,1.2,10.4c0.6,2.2,0,4.8,0.7,7c1.2,3.8,0.1,7.6,1,11.4
	c0.3,1.5,0.1,3.1,0.1,4.7c-0.1,4.8-0.3,9.5-0.5,14.8c3.7-2.7,7.4-3.8,11.2-4.3c3.3-0.4,6.6-1.1,9.8,0.5c2,1,3.9,2.1,6,3.1
	c1.5-1.7,3.3-3.3,4.6-5.2c1.5-2.1,3.4-3.6,5.7-4.5c2.9-1.1,5.7-2.7,9-1.9c11.2,2.6,16.6,10,19.2,19.3c0.8,2.9,1,6,1.2,9
	c0.2,2.7,0.6,5.5,0,8.1c-1,4.1-1.9,8.1-3.5,12.1c-1.8,4.4-4.5,8-7.7,11.3c-3.9,4-9,5.7-14.6,6.2c-3.4,0.3-6.7-0.1-9.6-1.8
	c-5.7-3.4-8.8-8.9-10.6-15c-2.6-8.7-1.5-17.5,1.4-26c1-2.8,2.4-5.6,3.5-8.3c-1.1-3.1-3.8-4.1-6.5-4.7c-3.2-0.8-6.4-0.8-9.6-0.1
	c-1.8,0.4-3.8,0.7-5.2,1.8c-3.5,2.7-6.9,5.5-9.2,9.5c-3.5,6.1-5,12.5-3.3,19.5c1.2,4.9,3.2,9.6,7.6,12.5c3.3,2.2,7,4.3,11.2,3.1
	c2.8-0.8,5.3-2.4,7.9-3.7c0.7-0.4,1.4-0.9,2-1.3c0.2,0.1,0.3,0.2,0.5,0.4c-0.2,0.6-0.3,1.3-0.6,1.7c-0.9,0.9-2,1.6-2.9,2.5
	c-3.5,3.8-7.7,4.7-12.4,2.9C537.7,133.3,534.7,131.9,531.5,130.6z"/>
<path fill-rule="evenodd" clip-rule="evenodd" fill="#FFFFFF" d="M576.1,139.2c4.7-0.3,9.4-1.9,13.4-5.6c5.5-4.9,7.7-11.5,9.6-18.1
	c1.3-4.6,1.2-9.5,0.6-14.2c-0.3-2.5-0.7-5-1.4-7.5c-1.9-6.4-5.9-11.2-11.9-14.2c-3.2-1.6-6.7-2.1-10.2-0.7c-2.7,1.1-4.9,2.6-7.2,4.4
	c-4.6,3.8-7.2,8.9-9.2,14.1c-2.4,6.5-3.6,13.3-2.7,20.4c0.6,4.8,1.8,9.5,4.4,13.5C564.9,136.2,569.4,139.2,576.1,139.2z"/>
<path fill-rule="evenodd" clip-rule="evenodd" fill="#FFFFFF" d="M630.2,89.2c3-1.8,5.6-3.4,8.1-4.9c6-3.7,12-7.4,18-11.1
	c0.8-0.5,2-1,2.3-1.7c0.6-1.7,0.7-3.6,1.1-6.1c-10.5,6.7-21,11.9-29.4,20.1C630.2,86.4,630.2,87.5,630.2,89.2z"/>
<path fill-rule="evenodd" clip-rule="evenodd" fill="#FFFFFF" d="M660,60.4c-2,0.8-3.9,1.5-5.7,2.4c-3.1,1.6-6.2,3.3-9.3,5
	c-1.5,0.8-3.1,1.7-4.6,2.6c-2.6,1.6-5.1,3.4-7.7,4.7c-3.3,1.7-4,2.9-2.8,6.7c1.2-0.7,2.5-1.2,3.6-2c5-3.2,10-6.5,15-9.7
	c3.2-2,6.5-4,9.8-5.9C659.4,63.5,660.5,62.7,660,60.4z"/>
<path fill-rule="evenodd" clip-rule="evenodd" fill="#FFFFFF" d="M658.5,54.8c-0.8-0.9-1.5-1.6-2-2.2c-1.4,0.6-2.5,1.1-3.7,1.5
	c-1.9,0.8-3.9,1.4-5.7,2.3c-5.5,2.7-11,5.5-16.5,8.2c-2.7,1.3-2.8,1.6-1.9,5.2C638.5,64.8,648.4,59.9,658.5,54.8z"/>
<path fill-rule="evenodd" clip-rule="evenodd" fill="#FFFFFF" d="M657.6,85.8c-1,0.4-2,0.6-2.8,1.1c-5.6,3.4-11.2,6.8-16.7,10.3
	c-2.3,1.5-4.4,3.3-6.4,5.2c-0.4,0.4-0.5,1.7-0.2,2.4c0.3,0.9,1.2,0.7,2,0.2c0.8-0.6,1.6-1,2.4-1.6c6.3-4,12.4-8.1,18.8-11.9
	C657.1,90.1,657.8,88.5,657.6,85.8z"/>
<path fill-rule="evenodd" clip-rule="evenodd" fill="#FFFFFF" d="M656.7,92.3c-1.4,0.7-2.7,1.1-3.8,1.9c-6.7,4.5-13.4,9.1-20.1,13.6
	c-1.4,0.9-1.3,1.9-0.8,3.2c0.3,0,0.6,0,0.7-0.1c7.2-4.4,14.4-9,21.7-13.3C656.6,96.3,657.6,95.1,656.7,92.3z"/>
<path fill-rule="evenodd" clip-rule="evenodd" fill="#FFFFFF" d="M628.7,74.8c10.8-5.6,21.3-10.9,31.8-16.4
	c-0.3-0.8-0.6-1.3-0.9-2.1c-2.1,0.9-4.2,1.6-6.1,2.6c-2.9,1.4-5.7,3-8.5,4.5c-3.7,2-7.3,4.1-11,6.1c-1,0.6-2,1.2-3,1.8
	C629.8,72,628.7,72.8,628.7,74.8z"/>
<path fill-rule="evenodd" clip-rule="evenodd" fill="#FFFFFF" d="M632.8,115.9c0.8-0.5,1.6-1,2.5-1.4c6.3-3.7,12.7-7.3,19-11
	c2.3-1.3,2.4-1.9,1.6-4.6c-3.1,0.8-5.5,2.9-8.1,4.4c-3.4,2-6.6,4.1-10,6.2C635.5,111.1,633.4,112.8,632.8,115.9z"/>
<path fill-rule="evenodd" clip-rule="evenodd" fill="#FFFFFF" d="M655.8,113.7c-4.3,2.5-8.4,4.9-12.5,7.3c-2.4,1.4-4.9,2.9-7.3,4.4
	c-1.9,1.2-2.1,2.2-1.4,4.3c1.5-0.8,3.1-1.7,4.6-2.5c5-2.9,10-5.8,15-8.6C655.9,117.5,656.8,116.3,655.8,113.7z"/>
<path fill-rule="evenodd" clip-rule="evenodd" fill="#FFFFFF" d="M654.7,51c-1.5-2-3.3-1.5-4.5-0.9c-4.4,1.9-8.6,4.1-12.9,6.3
	c-1.3,0.6-2.6,1.3-3.9,1.9c-2.2,1.2-4.4,2.4-6,5.3C637.3,60.3,645.8,55.5,654.7,51z"/>
<path fill-rule="evenodd" clip-rule="evenodd" fill="#FFFFFF" d="M627.2,55.2c7.2-3.5,14.3-6.9,21.5-10.4c-0.6-1.2-0.9-2.3-2.6-1.8
	c-6.3,1.7-12,4.4-17.4,8.1C627.2,52.1,626.7,53.1,627.2,55.2z"/>
<path fill-rule="evenodd" clip-rule="evenodd" fill="#FFFFFF" d="M651.5,48.2c-0.3-1.9-1.3-2.3-2.8-1.8c-1.7,0.7-3.5,1.3-5.2,2.1
	c-3,1.4-5.9,2.9-8.8,4.5c-2,1.1-3.9,2.3-5.7,3.5c-0.8,0.5-1.9,1.2-1.1,2.6C635.8,55.4,643.7,51.8,651.5,48.2z"/>
<path fill-rule="evenodd" clip-rule="evenodd" fill="#FFFFFF" d="M643.3,38.6c-1.6,0.6-3.1,1.1-4.5,1.8c-3.5,1.7-7,3.6-10.4,5.4
	c-1.5,0.8-1.7,2-0.9,3.7c6.1-2.8,12.2-5.6,18.6-8.5C645,40.2,644.2,39.5,643.3,38.6z"/>
<path fill-rule="evenodd" clip-rule="evenodd" fill="#FFFFFF" d="M654.6,134.7c-0.7,0.2-1.1,0.2-1.4,0.4c-2.5,1.5-5.1,2.9-7.6,4.5
	c-2.5,1.6-4.8,3.4-7.4,4.8c-1.6,0.9-2,1.9-1.6,3.9c6.8-2.4,11.8-7.4,17.9-10.5C654.6,136.7,654.6,135.8,654.6,134.7z"/>
<path fill-rule="evenodd" clip-rule="evenodd" fill="#FFFFFF" d="M656.5,104.9c-1.7,0.6-3.3,0.9-4.7,1.6c-1.5,0.7-2.8,1.7-4.2,2.6
	c-1.2,0.7-2.3,1.5-3.4,2.2c-2.7,1.7-5.5,3.3-8.2,5c-1.3,0.8-2.3,1.9-2.5,4.1c7.9-4.6,15.5-9,23-13.4
	C656.5,106.3,656.5,105.7,656.5,104.9z"/>
<path fill-rule="evenodd" clip-rule="evenodd" fill="#FFFFFF" d="M634.4,132c0.1,0.6,0.2,1.3,0.4,2.1c7.5-3.1,14-7.7,21-11.6
	c-0.1-0.6-0.2-1.4-0.3-2.5c-2.7,1.5-5,2.8-7.4,4.1c-2.3,1.2-4.6,2.7-7.1,3.5C638.5,128.5,637.4,131.6,634.4,132z"/>
<path fill-rule="evenodd" clip-rule="evenodd" fill="#FFFFFF" d="M635.5,138.6c7-3.3,13.4-7.3,19.9-11.6c0.1-0.7,0.1-1.5,0.2-2.7
	c-1.2,0.6-2.1,1.1-3,1.6c-2.6,1.5-5.2,3.1-7.8,4.6c-2.7,1.6-5.5,3-8.2,4.5C635.1,135.9,634.6,136.9,635.5,138.6z"/>
<path fill-rule="evenodd" clip-rule="evenodd" fill="#FFFFFF" d="M656.4,109.2c-3.2,1.7-6.2,3.3-9.2,5c-3.7,2.1-7.4,4.3-11,6.5
	c-1.2,0.7-2.6,1.5-2,3.7c3.7-2.1,7.4-4.2,11-6.3c3.4-2,6.7-4,10.1-6C656,111.6,656.9,111.1,656.4,109.2z"/>
<path fill-rule="evenodd" clip-rule="evenodd" fill="#FFFFFF" d="M654.6,129.4c-0.7,0.3-1.2,0.6-1.6,0.9c-3,1.7-6,3.3-8.9,5
	c-2.7,1.6-5.3,3.3-7.8,5.1c-1,0.7-1.2,1.7-0.4,3c1-0.5,1.9-1,2.8-1.6c3.1-1.9,6.1-3.8,9.2-5.7c2-1.2,4-2.4,6-3.6
	C654.9,131.8,655.4,131,654.6,129.4z"/>
<path fill-rule="evenodd" clip-rule="evenodd" fill="#FFFFFF" d="M642.6,37.5c-0.9-1.1-1.5-1.9-2.3-3c-2.8,1.5-5.5,2.8-8.2,4.2
	c-1.2,0.6-2.4,1.4-3.6,2c-2.4,1.1-2.4,1.1-1.8,4.2C631.9,42.5,637.1,40.1,642.6,37.5z"/>
<path fill-rule="evenodd" clip-rule="evenodd" fill="#FFFFFF" d="M653.8,140.1c-1,0.5-2.1,0.9-3.1,1.5c-2,1.3-4,2.8-6,4.1
	c-2.1,1.4-4.2,2.7-6.3,4.1c-1.9,1.3-2,1.6-1.3,4c5.5-3.5,11-7,16.5-10.6C654.8,142.5,654.9,141.4,653.8,140.1z"/>
<path fill-rule="evenodd" clip-rule="evenodd" fill="#FFFFFF" d="M644.1,208.7c4.4-3.1,8.4-6,12.5-8.9c-0.1-0.9-0.2-1.8-0.3-3
	c-2.5,0.9-4.6,1.8-6.3,3.5c-1.6,1.7-4,2.5-5,4.8C642.9,205.5,643.6,206.9,644.1,208.7z"/>
<path fill-rule="evenodd" clip-rule="evenodd" fill="#FFFFFF" d="M641.1,185.3c4.7-2.7,9.1-5.9,13.3-9.3c0.5-0.4,0.4-1.6,0.6-2.5
	c-0.5,0-0.6-0.1-0.7,0c-4.7,1.7-8.2,5.1-12,8.2C641.5,182.2,639.6,183.3,641.1,185.3z"/>
<path fill-rule="evenodd" clip-rule="evenodd" fill="#FFFFFF" d="M639.3,33.3c-0.7-1-1.3-1.8-2-2.8c-4.1,2.2-8,4.3-12,6.5
	c0.6,1.2,1.1,2,1.5,2.9C631.1,37.7,635.1,35.5,639.3,33.3z"/>
<path fill-rule="evenodd" clip-rule="evenodd" fill="#FFFFFF" d="M637.7,162.5c0.3,0.1,0.5,0.3,0.8,0.4c3.3-2.1,6.5-4.3,9.8-6.4
	c1.7-1.1,3.4-2.3,5.1-3.5c1-0.7,1.9-1.5,0.2-3c-5,3.3-10.1,6.7-15,10.1C638,160.4,638,161.6,637.7,162.5z"/>
<path fill-rule="evenodd" clip-rule="evenodd" fill="#FFFFFF" d="M637.4,157.6c1.6,0.2,2.7-0.6,3.7-1.3c4-2.7,8-5.6,12.1-8.2
	c1.2-0.8,1.2-1.5,0.6-2.9C647.8,148.9,641.5,151.7,637.4,157.6z"/>
<path fill-rule="evenodd" clip-rule="evenodd" fill="#FFFFFF" d="M653.9,155.3c-5.6,2.3-10.2,6-14.9,9.6c-1.1,0.8-0.9,1.7-0.6,2.6
	c3.2-1.9,6.3-3.6,9.3-5.4c2.1-1.3,4-2.8,5.9-4.3C654.4,157.1,655,156.3,653.9,155.3z"/>
<path fill-rule="evenodd" clip-rule="evenodd" fill="#FFFFFF" d="M654.3,159.2c-0.4,0.2-0.9,0.4-1.3,0.7c-3.2,2.1-6.3,4.3-9.6,6.2
	c-1.4,0.8-2.1,1.6-1.9,2.5c-0.8,1.5-3.2,0.9-2.2,3.2c0.5-0.1,0.9-0.2,1.2-0.4c4.5-3.1,9-6.3,13.4-9.4
	C655,161.3,655,160.4,654.3,159.2z"/>
<path fill-rule="evenodd" clip-rule="evenodd" fill="#FFFFFF" d="M643.1,203.6c0.6-0.1,0.9-0.1,1-0.2c3.9-2.8,7.7-5.5,11.6-8.4
	c1.3-1,0.8-2-0.4-3.1c-3.2,2.3-6.4,4.5-9.6,6.8c-0.2,0.2-0.4,0.4-0.4,0.7c-0.3,1.3-1.3,1.5-2.5,1.2
	C642.9,201.8,643,202.6,643.1,203.6z"/>
<path fill-rule="evenodd" clip-rule="evenodd" fill="#FFFFFF" d="M655.2,182.8c-0.5,0.2-0.9,0.3-1.2,0.5c-3.8,2.6-7.5,5.1-11.2,7.9
	c-0.8,0.6-1.6,1.9-0.6,3.5c4.1-3,8-5.8,12-8.6C655.4,185.3,655.6,184.4,655.2,182.8z"/>
<path fill-rule="evenodd" clip-rule="evenodd" fill="#FFFFFF" d="M654.5,163.7c-5.3,3.8-11.9,5.7-15,12c0.5,0.1,0.8,0,1.1-0.2
	c4.5-3,8.9-6,13.4-9C655.1,165.8,654.9,164.9,654.5,163.7z"/>
<path fill-rule="evenodd" clip-rule="evenodd" fill="#FFFFFF" d="M661.9,227.4c-3.9,1.7-7.2,4-9.8,7.2c-0.9,1.1-1,2.2-0.8,3.6
	c0.4,0,0.8,0.1,0.9-0.1c3.1-2.4,6.2-4.8,9.2-7.2C662.5,230,662.5,228.9,661.9,227.4z"/>
<path fill-rule="evenodd" clip-rule="evenodd" fill="#FFFFFF" d="M657.5,206.4c-3.7,2-7.3,4.2-10.3,7c-0.8,0.7-2,1.9-1.4,3.6
	c1.1-0.5,2.1-0.9,2.9-1.4c2.6-1.7,5.1-3.6,7.7-5.3C657.8,209.3,658.2,208.2,657.5,206.4z"/>
<path fill-rule="evenodd" clip-rule="evenodd" fill="#FFFFFF" d="M664,235.6c-4.4,1.5-7.3,4.9-10.8,7.5c-1.2,0.9-1.1,2.1-0.3,3.8
	c4.1-3.3,7.9-6.3,11.7-9.3C664.3,236.6,664.2,236.1,664,235.6z"/>
<path fill-rule="evenodd" clip-rule="evenodd" fill="#FFFFFF" d="M640.6,180c4.6-3,9-5.9,13.5-8.9c1.1-0.8,0.8-1.7,0.4-3.1
	c-5,3.4-9.7,6.6-14.6,9.8C640.2,178.6,640.4,179.3,640.6,180z"/>
<path fill-rule="evenodd" clip-rule="evenodd" fill="#FFFFFF" d="M658.9,214.8c-0.8,0.5-1.6,0.9-2.3,1.4c-2.6,1.8-5.2,3.6-7.6,5.5
	c-2.2,1.7-2.4,3.1-0.8,5.3C651.7,222.8,656,219.6,658.9,214.8z"/>
<path fill-rule="evenodd" clip-rule="evenodd" fill="#FFFFFF" d="M657.2,202.1c-5.4,1.9-8.7,5.5-12.3,8.5c-0.4,0.3-0.2,1.4-0.3,2.9
	c4.4-3.2,8.3-5.8,12-8.7C657.1,204.4,657,203.3,657.2,202.1z"/>
<path fill-rule="evenodd" clip-rule="evenodd" fill="#FFFFFF" d="M660.3,222.5c-0.6,0.4-1.2,0.6-1.6,1c-2.3,2-4.5,4.1-6.8,6.1
	c-1.3,1.2-1.9,2.5-1.7,4.4c3.3-2.6,6.5-5.1,9.7-7.5c0.8-0.6,1.3-1.1,0.7-2.2C660.4,223.8,660.5,223.2,660.3,222.5z"/>
<path fill-rule="evenodd" clip-rule="evenodd" fill="#FFFFFF" d="M658.7,212c-0.2-0.2-0.3-0.4-0.5-0.6c-0.3,0-0.6,0-0.8,0.1
	c-3.4,2-6.9,4-10.2,6.2c-1.2,0.8-1.5,2.2-1,4C650.6,218.4,655.3,216,658.7,212z"/>
<path fill-rule="evenodd" clip-rule="evenodd" fill="#FFFFFF" d="M654.8,178.2c-0.4,0.1-0.8,0.2-1.1,0.4c-3.7,2.6-7.4,5.2-11,7.9
	c-0.7,0.5-1,1.7-1.4,2.5c1.1,0,1.7-0.3,2.2-0.6c3.6-2.6,7.2-5.3,10.9-7.9C655.5,179.8,655.3,179.2,654.8,178.2z"/>
<path fill-rule="evenodd" clip-rule="evenodd" fill="#FFFFFF" d="M636.3,29.4c-2.5-2.2-5.7-1.2-11.5,3.4c0.2,0.7,0.4,1.5,0.6,2.4
	C629.2,33.2,632.6,31.4,636.3,29.4z"/>
<path fill-rule="evenodd" clip-rule="evenodd" fill="#FFFFFF" d="M642.6,198.1c0.8-0.2,1.2-0.2,1.5-0.4c3.8-2.8,7.7-5.6,11.5-8.5
	c0.2-0.2,0-0.9,0-1.8C650.5,190.3,645.9,193,642.6,198.1z"/>
<path fill-rule="evenodd" clip-rule="evenodd" fill="#FFFFFF" d="M633.9,26.2c-1.2-2-1.3-2-2.5-1.6c-1.8,0.7-3.6,1.5-5.4,2.3
	c-1.3,0.6-1.6,1.5-0.9,3.1c1.4-0.7,2.8-1.5,4.2-2.1C630.8,27.2,632.3,26.8,633.9,26.2z"/>
<path fill-rule="evenodd" clip-rule="evenodd" fill="#FFFFFF" d="M651.5,227.4c0.2,0,0.4,0.1,0.5,0c2.5-2.2,4.9-4.4,7.3-6.6
	c0.6-0.6,1-1.2,0.2-2C656.2,220.1,652.1,224.5,651.5,227.4z"/>
<path fill-rule="evenodd" clip-rule="evenodd" fill="#FFFFFF" d="M663.4,233c-4.2,1-10,5.8-11,8.5
	C656.1,238.6,659.7,235.8,663.4,233z"/>
<path fill-rule="evenodd" clip-rule="evenodd" fill="#FFFFFF" d="M625.3,25.6c2.2-1,4.3-1.8,6.6-2.8c-0.7-0.8-1.1-1.3-1.8-2.2
	c-1.8,1.1-3.5,2.1-5.1,3.2C624.8,24,625.1,24.9,625.3,25.6z"/>
<path fill-rule="evenodd" clip-rule="evenodd" fill="#FFFFFF" d="M627.6,16.5c-0.8-0.8-1.4-1.5-2.5-2.7c-0.2,1.8-0.3,3-0.4,4.1
	c0.5-0.1,0.7,0,0.9-0.1C626.1,17.4,626.7,17,627.6,16.5z"/>
<path fill-rule="evenodd" clip-rule="evenodd" fill="#FFFFFF" d="M625.1,19.4c1.1,1.7,1.6,1.6,3.9-0.5
	C627.5,17.2,626.4,18.7,625.1,19.4z"/>
<path fill-rule="evenodd" clip-rule="evenodd" d="M439,42.3c1.5-1.7,3.2-1.4,4.6-0.5c2.3,1.3,4.8,1.6,7.3,1.7
	c2.2,0.1,4.5,0.2,6.7,0.5c1.7,0.3,3.2,1.2,3.5,3.1c0.4,3,0.7,6,0.9,9c0.1,1.3-0.2,2.5-0.3,3.8c-0.1,1.6-0.6,2.6-2.4,2.9
	c-0.7-0.8-0.9-1.6-0.5-2.6c1.3-3.6,0.7-7.2-0.1-10.7c-0.6-2.4-2.1-3.2-4.6-2.8c-2.6,0.4-5.1,1-7.6,1.5c-0.3,2.2,1,3.6,2,5
	c1.1,1.6,2.4,3.1,3.3,4.8c2.9,5.3,5.6,10.7,8.5,16c1.1,2.1,1.1,4.3,0,6.4c-1.5,3-5.7,5.8-8.7,5.3c-1.9-0.3-3.3-1.2-4.1-2.9
	c-1.3-2.7-1-8.3,2.5-10.3c1.3-0.8,2.7-1.6,4.2-2.5C449.1,60.7,444.1,51.6,439,42.3z"/>
<path fill-rule="evenodd" clip-rule="evenodd" d="M499.6,86.5c2.6-10.8,5.7-21.2,9.9-31.5c1.8,1.3,3.2,2.5,4.2,4.3
	c1.6,2.8,3.7,5.2,5.8,7.7c2.2,2.7,2.4,5.4,0.5,8.4c-2.9,4.6-5.7,9.1-8.6,13.7c-0.4,0.7-1.1,1.2-1.8,1.8c-1.2-1.2-1.5-2-0.6-3.4
	c2.5-3.6,4.9-7.3,6.9-11.2c1.4-2.8,1.5-5.8-0.6-8.6c-1.3-1.8-2.3-3.8-3.5-5.7c-0.3-0.5-0.7-0.8-1.4-1.5c-0.5,1.2-0.9,2.2-1.2,3.1
	c-1.8,6.1-3.7,12.1-5.4,18.3c-0.8,2.7-0.9,5.5-1.7,8.2c-0.8,2.9-1.7,5.8-4.4,7.8c-3.5,2.5-7.7,1.2-9.1-2.8c-0.8-2.2,0.5-7.9,2.4-9.3
	c1.9-1.3,4-1.4,6.2-0.5C497.9,85.5,498.6,85.9,499.6,86.5z"/>
<path fill-rule="evenodd" clip-rule="evenodd" d="M488.3,44.1c-1.4-0.6-2.4-0.9-3.3-1.4c-7.5-4-15.1-7.8-22.5-12
	c-5.7-3.3-11.2-6.9-16.8-10.2c-5.5-3.3-11.2-6.3-16.7-9.5c-3-1.7-6-3.4-8.5-6c0-0.4,0-0.7,0.1-0.9c1.8-5.6,3-4.8,7.8-1.3
	c2.6,1.9,5,4,7.8,5.7c4.4,2.7,8.2,6,12.2,9.1c2.9,2.3,6.2,4.2,9,6.6c2.6,2.2,5.7,3.2,8.4,5.2c2.7,1.9,5.4,3.8,8.4,5.4
	c3.5,1.9,7.2,3.4,10.9,5.1C486.6,40.6,488.1,41.3,488.3,44.1z"/>
<path fill-rule="evenodd" clip-rule="evenodd" d="M427.5,211.7c-0.6,1.4-1.2,2.8-1.9,4.2c-0.4,0.8-0.8,1.5-1.2,2.3
	c3,1.7,4.6,2,7.5,1.3c0.4,0.6,0.8,1.2,1.4,2c-0.7,0.3-1.2,0.8-1.6,0.8c-1.7-0.3-3.5-0.7-5.1-1.2c-3.3-1-3.3-1-5.2,1.9
	c-0.5,0.8-1.2,1.6-1.6,2.5c-0.5,1.1-0.8,2.2-1.3,3.9c-0.1,0-0.9,0.3-2.3,0.8c1.2-4.4,4.3-7,6-10.5c-4.6-1.7-9.1-3.3-13.9-5.1
	c-0.9,3.4-4.7,5.5-3.5,9.9c-0.7,0.3-1.4,0.5-2.6,1c0.8-4.3,3.4-7.3,4.7-11.2c-5-1.7-9.9-3.4-15.3-5.2c-2.6,4.6-5.2,9.3-7.8,14.1
	c2.9,2.8,6.9,2.8,10.2,4.4c3.2,1.6,6.7,2.6,10.2,3.6c3.5,1,7.2,1.8,10.9,2.6c0,1.2-0.8,1.7-1.9,1.3c-4.5-1.3-9-2.6-13.5-4.1
	c-4.9-1.7-9.7-3.6-14.6-5.4c-0.7-0.2-1.5-0.1-2.2-0.2c-0.3,0-0.7,0.1-0.8-0.1c-1.6-2.4-4.3-2.4-6.6-3.2c-3.1-1.1-6.3-2.1-9.7-3.1
	c-1.6,3.5-4.5,6.1-5.3,10c-0.2,0.9-0.3,0.9-2.2,0.2c2.1-3.5,4.3-7,6.6-10.7c-4.4-1.6-8.4-3.1-12.8-4.7c-1.2,2.4-2.3,4.7-3.4,6.9
	c-1.1-0.9-1.2-1.7-0.1-3.5c0.7-1.2,1.4-2.3,2.3-3.6c-1.4-0.8-2.6-1.5-4-2.3c2-1.9,3.2,0.4,5.3,0c2.2-4.4,4.6-9.3,7.2-14.6
	c-3.4-1.2-6.5-2.3-9.8-3.4c2.1-1.6,3.6,0.1,5.1,0.4c1.7,0.4,3.2,1.3,5.1,2.2c1.6-3.1,3.2-5.9,4.7-8.9c1.5-3,2.9-6,4.5-9.1
	c-3.4-1-6.6-1.9-10.2-2.9c-1.3,2.3-2.5,4.6-3.8,6.9c-0.4,0.8-0.5,2-1.9,1.8l0.1,0.1c0.8-1.8,1.5-3.6,2.3-5.3c0.6-1.3,1.3-2.6,2-3.9
	c-2.4-1.7-5.5-1.7-7-4.4c2.4,1,4.9,2,7.3,3c0.5-1.2,0.9-2.1,1.3-3.2c2,1.1,0.3,2.7,1,4c2.8,1.6,6.1,2.3,9.7,2.9
	c1.5-2.7,3-5.4,4.4-8.2c0.4-0.8,0.9-1.2,2.2-0.7c-0.4,0.9-0.6,1.9-1.1,2.7c-1.9,3-4,5.8-5.8,8.8c-1.6,2.8-2.9,5.9-4.4,8.8
	c-0.8,1.5-1.7,2.9-2.4,4.3c-0.6,1.1-1,2.2-1.7,3.7c4.6,1.7,8.9,3.3,13.2,5c1-1.7,1.8-3.1,2.8-4.8c0.8,2.1-0.9,3.2-1.2,4.9
	c4.8,1.9,9.7,3.8,14.6,5.8c0.8-1.3,1.4-2.3,2.2-3.5c1.1,1.5-0.3,2.4-0.2,3.7c4.8,2.6,10.3,3.4,15.6,5.5c1-2,1.9-3.8,2.9-5.6
	c0.7-1.2,1.6-2.4,2.4-3.5l-0.1-0.1c-1.4,3.1-2.7,6.1-4.3,9.6c4.9,1.4,9.3,3.6,14,4.8c1.1-2,2-3.6,3-5.2
	C426.4,212.6,427,212.2,427.5,211.7L427.5,211.7z M390,208.3c-3.6-1.4-7.2-2.8-10.7-4.1c-4.2-1.6-4.2-1.6-6.5,2.4
	c-0.1,0.3-0.4,0.5-0.5,0.7c-1.9,3.5-3.8,6.9-5.9,10.9c5.6,1.7,10.8,3.3,16.2,5C385.1,218.3,388.3,213.9,390,208.3z M373.6,202.5
	c-4.7-1.8-8.8-3.4-13.3-5.1c-2.4,5-4.7,9.9-7.2,15c4,2.2,8.1,3.8,12.5,5.2C368.3,212.6,370.9,207.7,373.6,202.5z"/>
<path fill-rule="evenodd" clip-rule="evenodd" d="M381.9,182.1c1.7-2.1,3.7-1.1,5.2-0.5c3.8,1.7,7.7,2,11.7,1.6
	c2.1-0.2,4.2,0,6.3-0.8c0.6-0.2,1.5,0.2,2.2,0.3c0.2,1.4,0,2.2-0.8,3.3c-2,2.9-4.6,5.1-7.1,7.3c-4,3.5-10.4,2.1-12.9-2.7
	c-1.2-2.2-2.5-4.4-3.7-6.6C382.4,183.5,382.2,182.8,381.9,182.1z"/>
<path fill-rule="evenodd" clip-rule="evenodd" d="M413.3,204c0.3-1,0.6-2,0.9-3.2c-1.4-0.6-2.9-1.3-4.4-2c0.1-0.3,0.2-0.5,0.3-0.8
	c1.1,0.4,2.2,0.7,3.3,1.2c0.9,0.4,1.7,0.5,2.3-0.5c2.3-4.2,4.5-8.4,6.9-12.9c-2.4-0.9-4.3-1.5-6.2-2.2c0.1-0.2,0.1-0.5,0.2-0.7
	c2.4-1,4.4,1.8,7,0.9c0.5-0.8,1.2-1.7,1.8-2.7c0.1,0.1,0.3,0.1,0.4,0.2c-0.4,0.9-0.8,1.8-1.4,3c4.6,2.6,9.5,4.1,14.9,5.2
	c3.1-5.2,5.7-10.6,8.9-16.2c0.9,1.5,0.4,2.1-0.1,2.9c-2.7,4.4-5.3,8.9-8.1,13.8c1.7,0.6,3.2,1.1,4.7,1.6c-0.1,0.2-0.1,0.4-0.2,0.6
	c-1.5-0.3-3.1-0.5-4.9-0.8c-1.1,1.9-2.2,3.8-3.4,5.6c-0.4,0.6-1,1-1.5,1.6c0.6-2.8,3.3-4.7,3.4-7.6c-5-1.5-9.7-3-14.7-4.5
	c-2.4,4.5-4.8,9-7.3,13.8c5.4,1.2,9.9,3.5,14.7,4.4c1.5-2.3,2.7-4.2,4-6.2c-0.8,2-1.7,4.1-2.6,6.4c4.5,2.9,10.1,2.2,15,4
	c2.2-2.6,2.9-6,5.2-8.2c0.2,0.1,0.4,0.2,0.6,0.4c-2,4.3-4.1,8.5-6.1,12.8c-0.2,0.5-0.8,0.8-1.6,0.9c0.5-1.3,1-2.6,1.5-4.2
	c-5-2.2-10.5-2.3-15.4-4.4c-1.4,2-2.6,3.8-3.9,5.7l0.1,0c0.8-1.9,1.5-3.8,2.3-6c-4.8-1.5-9.5-3.1-14.1-4.6
	C414.8,202.3,414,203.1,413.3,204L413.3,204z"/>
<path fill-rule="evenodd" clip-rule="evenodd" d="M375,240c0.7,0.5,1.3,0.8,1.8,1.3c0.3,0.4,0.7,1.1,0.6,1.5
	c-0.4,1.3-0.9,2.6-1.6,3.8c-0.3,0.6-1.2,1.1-1.8,1.1c-1.1,0.1-2.3-0.1-3.8-0.3c0.5-2.5,0.9-4.7,1.8-6.9c0.3-0.7,0.6-1.4,0.6-2.1
	c0-2.9,1.4-5,3.4-6.9c1.9-1.8,4.2-1.9,6.4-0.4c3.4,2.4,3.8,3.4,2.9,7.7c-0.3,1.4-0.6,2.8-0.2,4.4c0.4,1.5-0.6,3.7-1.7,5
	c-1.1,1.4-3,0.6-4.6,0.5c0-1.9-0.2-3.5,0.1-5.1c0.2-1,1.1-1.9,1.9-2.8c0.6-0.7,1.5-1.3,2-2c1-1.5,0.7-3.6-0.4-4.6
	c-1.6-1.3-4-1.3-5.3,0.3C375.7,236.1,375.1,237.9,375,240z"/>
<path fill-rule="evenodd" clip-rule="evenodd" d="M396.8,249.3c-3,0.2-4.9-0.9-6.2-3.6c-1.5-3.2-0.2-5.7,1.6-8.1
	c2.7-3.6,7.3-3,10.5-1.1c1.6,0.9,1.9,2.7,2.1,4.3c0.4,3.3-2.9,7.7-6.1,8.4C398.1,249.5,397.4,249.3,396.8,249.3z M397.2,247.2
	c0.2-0.1,1-0.2,1.2-0.6c0.7-1.5,1.5-3,1.8-4.6c0.3-1.6-0.9-2.7-2.2-3.6c-1.1-0.8-2.4-1-3.6-0.4c-1.6,0.7-2.5,3.6-2,5.7
	C393,245.8,394.8,247.2,397.2,247.2z"/>
<path fill-rule="evenodd" clip-rule="evenodd" d="M432.2,169.8c-0.4-0.6-0.8-1.4-1.4-1.6c-3.1-0.9-6.2-1.7-9.4-2.6
	c-1-0.3-2-0.5-3.5-1c1.6-1.1,2.5-0.9,3.5-0.6c2.5,0.8,5.1,1.6,7.6,2.3c0.6,0.2,1.3,0.3,2,0.5c1.8,0.6,2.8-0.2,3.5-1.8
	c0.6-1.3,1.2-2.7,1.9-4c0.2-0.3,0.6-0.6,1.4-0.5c-1.1,2.3-2.3,4.6-3.6,7.3c3.7,1,7.3,2.1,11.2,3.2c-1.3,1.3-2.3,0.6-3.1,0.4
	c-2.3-0.6-4.5-1.4-6.8-1.9C434.5,169.3,433.3,169.6,432.2,169.8L432.2,169.8z"/>
<path fill-rule="evenodd" clip-rule="evenodd" d="M362.9,98.2c0.4-0.2,0.9-0.6,1.3-0.4c1.7,0.5,3.3,1.1,4.9,1.8
	c4.4,1.8,8.9,2.8,13.5,3.5c0.3,0,0.7,0.3,0.9,1c-1.7-0.3-3.4-0.6-5-0.9c-1.8-0.4-3.6-0.9-5.4-1.3c-1.7-0.5-3.4-1-5-1.5
	c-1.7-0.5-3.5-1-5.2-1.5C362.9,98.6,362.9,98.4,362.9,98.2z"/>
<path fill-rule="evenodd" clip-rule="evenodd" d="M408.7,170.1c0.2-2.4,1.2-4.6,2.5-6.7C411.3,166,410.4,168.2,408.7,170.1z"/>
<path fill-rule="evenodd" clip-rule="evenodd" d="M430.4,172.1c0,0.4,0.1,0.8,0,1.1c-1.2,2.2-2.4,4.3-3.8,6.4
	C427.5,176.9,428.4,174.2,430.4,172.1C430.4,172.1,430.4,172.1,430.4,172.1z"/>
<path fill-rule="evenodd" clip-rule="evenodd" d="M353,183.9c-0.2,0.8-0.4,1.6-0.6,2.4c-0.2-0.1-0.4-0.2-0.7-0.3
	C352.2,185.3,352.7,184.6,353,183.9L353,183.9z"/>
<path fill-rule="evenodd" clip-rule="evenodd" d="M432.1,169.7c0.1,1.3-0.6,2-1.8,2.4c0,0,0.1,0.1,0.1,0.1
	C431,171.3,431.6,170.5,432.1,169.7C432.2,169.8,432.1,169.7,432.1,169.7z"/>
<path fill-rule="evenodd" clip-rule="evenodd" d="M579.3,57.7c-1.7-0.7-3.4-1.4-5.3-2.2c-1.3,3-2.5,6.1-4,9.4
	c2.5,1.2,4.8,2.4,7.1,3.6c-0.1,0.2-0.1,0.4-0.2,0.5c-2.3-0.9-4.6-1.7-6.9-2.6c-0.5,1.4-0.5,1.4-2.1,2.3c0.1-1.1,0.2-2,0.3-3.3
	c-3.7-2.2-7.6-4.4-11.8-6.8c-2.5,3.2-3.2,7.2-5,10.9c2.5,2.3,5.8,2.9,8.8,4.1c-1.7,0.9-4,0.3-9.3-2.5c0.2,0.9,0.5,1.6,0.4,2.3
	c0,0.4-0.6,0.8-0.9,1.2c-0.5-0.4-1.3-0.7-1.3-1.1c0-1,0.3-2.1,0.5-3.5c-0.4-0.4-1.1-0.9-1.7-1.5c-2-1.5-4.1-3-6.1-4.6
	c-0.6-0.5-0.8-1.3-1.5-2.5c1.9,0.1,2.8,0.7,3.4,1.7c1.5,2.5,3.7,4,6.5,5.5c0.8-1.8,1.6-3.5,2.4-5.3c0.6-1.3,1-2.6,1.7-3.7
	c0.8-1.4,0.3-2.2-0.9-2.9c-1.5-0.8-2.9-1.6-4.3-2.5c-0.8-0.5-1.9-0.8-1.6-2.3c1.4-0.5,2.3,0.4,3.3,1.2c1.4,1.2,2.9,2.3,4.7,3.7
	c1.7-3.7,3.2-7.1,4.9-10.7c-6.6-4.8-13.6-8.8-19.9-13.7c0.1-0.2,0.2-0.5,0.2-0.7c0.5,0.1,1.2-0.1,1.6,0.2c1.2,0.8,2.2,1.9,3.4,2.7
	c1.2,0.9,2.5,1.7,4.1,2.7c1.7-3.8,3.3-7.3,4.9-11c0.8,1.7,0.7,1.7-1.5,5.9c-0.9,1.8-1.6,3.8-2.4,6c3.3,2.2,6.5,4.4,10,6.7
	c1.7-3.9,3.4-7.6,5.2-11.4c-3.4-2.4-6.6-4.6-9.9-6.8c2.4-0.5,3.5,1.3,5.1,2.2c1.6,0.9,3,2.1,4.7,3.3c2.7-2.5,3.2-6.3,5.5-9
	c0.7,1.5,0.7,1.5-1.4,4.8c-1,1.6-1.8,3.2-2.8,5.1c4.4,2.4,8.4,4.7,12.8,7.2c2.2-3.3,3.5-6.9,5.3-10.5c-3.1-3.1-7.5-4.7-10.4-8.7
	c3.1,0.1,3.8,2.6,5.5,3.7c1.7,1.1,3.3,2.3,5.1,3.6c1.3-1.4,2.1-3,2.8-4.7c0.6-1.6,1.6-3.1,3.1-4.5c0.9,1.9-0.8,2.4-1.2,3.3
	c-0.5,1.1-1,2.1-1.5,3.2c-0.5,1.1-1,2.3-1.6,3.5c4,3.5,8.4,5.6,12.8,8.4c2.3-3.2,3.5-6.6,5.1-10c-3.3-2.6-6.6-5.1-9.8-7.6
	c0.1-0.2,0.3-0.4,0.4-0.5c3.7,1.7,6.2,5.2,10.3,6.9c1.1-2.6,2.2-5.2,3.2-7.9c0.4-1,0.8-1.6,1.9-0.6c0.2,1.9-1.1,3.2-1.9,4.8
	c-0.8,1.5-1.5,3.2-2.2,4.8c2.6,1.5,5.1,2.9,7.5,4.3c0.1,0,0,0.3-0.1,1c-2.7-1.4-5.2-2.7-8.2-4.2c-1.6,3.2-3.2,6.3-4.9,9.8
	c3.8,2.1,7.4,4.1,11,6c1.9-1.4,1.1-4.2,3.6-4.9c0.6,2.3-2,3.7-1.6,5.9c1.2,1,2.5,2,3.8,3c-0.1,0.1-0.2,0.2-0.3,0.3
	c-0.8-0.4-1.7-0.8-2.5-1.3c-1.4-0.8-1.9-0.8-2.6,0.6c-1.5,2.9-2.9,5.9-4.6,9.2c2.6,1.4,5.1,2.7,7.6,4c-0.1,0.3-0.2,0.5-0.4,0.8
	c-2.8-0.4-5.1-2.2-7.9-3.3c-2.3,3.6-4.3,7.4-5.3,11.9c-1-0.4-1.3-0.8-0.9-1.7c1.1-2.3,2.1-4.6,3.1-6.9c0.6-1.3,1.3-2.6,2-4
	c-3.8-2.5-7.5-4.9-11.5-7.4c-1.9,3.3-3.6,6.6-3.9,10.3c-0.2,1.8,0.1,3.7,2,5c7.1,4.6,14,9.3,21.1,13.9c0.8,0.5,1.8,0.5,3.1,0.9
	c0.2,3.2,4,2.3,6.4,3.9c-0.9,0.6-1.5,1-1.8,1.3c-1.9-1-3.5-1.9-5.2-2.9c-0.7,1.3-1.4,2.5-2,3.7c-0.6,1.1-1.2,2.2-1.7,3.3
	c-0.2-0.1-0.5-0.2-0.7-0.3c1-2.4,2-4.8,3.1-7.4c-0.4-0.4-0.8-0.8-1.2-1.2c-6.6-4.4-13.2-8.8-19.8-13.2c-4.3-2.9-8.7-5.7-13-8.6
	c-0.6-0.4-1-1-1.5-1.6c3.1,1.7,6.1,3.3,9,4.9c1.7-4.2,3.3-8.5,5-12.8c-1.4-0.9-2.7-1.8-4.1-2.8c-1.3-0.9-2.6-1.9-4-2.8
	c1.5,0.8,3.1,1.5,4.6,2.3c1.4,0.8,2.8,1.6,4.4,2.5c1.6-3.7,4.1-6.5,5.1-10c-4.4-2.8-8.6-5.5-12.9-8.3c-1.8,3.5-3.5,6.8-5.2,10.2
	c1.5,1.2,2.8,2.3,4.2,3.4c-1.6-0.7-3.1-1.3-5-2.2c-1.9,4-3.8,7.9-5.7,11.8C576.4,55.3,577.9,56.5,579.3,57.7z M567.3,50.3
	c2.1,1,4.1,2,6.3,3.1c1.9-4.1,3.9-8.1,5.9-12.3c-4.3-2.3-8.3-4.5-12.6-6.7c-1.8,3.9-3.5,7.6-5.2,11.2c2.1,1.8,3.9,3.3,5.8,4.8
	c-2-1.1-4-2.1-6.3-3.3c-1.4,3.3-2.9,6.6-4.3,10c3.5,3.2,7.8,4.9,12.1,7.3c1.4-3.4,2.8-6.6,4.2-9.9c-1.4-0.9-2.4-1.5-3.5-2.2
	C568.8,51.7,568.1,51,567.3,50.3z M600.5,39.6c-2.2,3.3-3.8,6.6-5.6,10c4,2.5,7.7,4.8,11.7,7.3c1.9-3.8,3.6-7.2,5.3-10.8
	C608,43.8,604.4,41.7,600.5,39.6z"/>
<path fill-rule="evenodd" clip-rule="evenodd" d="M608,137.6c1.3,4.9,2.5,9.4,3.7,13.9c0.9,3.4,1,6.9,0.5,10.4c-0.4,3-2.5,5-4.8,6.7
	c-2,1.5-4.2,2.8-6.8,3.2c-5.9,1-11.6,1.1-17.3-1.3c-2.6-1.1-4.7-2.9-6.6-4.9c-0.3-0.3-0.5-1.2-0.3-1.6c0.2-0.4,0.9-0.8,1.4-0.8
	c1,0,2,0.1,2.9,0.3c2.1,0.4,4.1-0.1,5.9-1.2c6.1-3.8,11.7-8.3,15.4-14.6c1.5-2.5,2.3-5.3,3.2-8C606.1,137.6,606.3,137.3,608,137.6z"
	/>
<path fill-rule="evenodd" clip-rule="evenodd" d="M536.7,166.8c0.7-2.5,1.5-5.1,2.2-7.6c0.3-1,0.7-2,1.2-3.3c-2.8-1.9-5.5-3.8-8.7-6
	c2.8-0.7,3.5,1.3,4.9,2c1.5,0.7,2.8,1.8,4.3,2.9c1.2-2.8,2.3-5.5,3.5-8.1c0.8,1.8-0.2,2.9-0.7,4.3c-0.5,1.5-1,2.9-1.6,4.6
	c4.7,2.7,9.2,5.3,14.1,8.1c1.9-4.2,3.5-8,5.2-12c-5.3-2.5-9.9-5.4-14.4-8.8c1.3-1.5,2-0.3,2.8,0.2c2.5,1.8,4.9,3.6,7.4,5.3
	c0.9,0.6,1.9,1.1,2.9,1.5c1.5,0.6,1.5,0.6,3.1-0.3c0.3,0.7,0.7,1.4,0.9,1.9c-0.8,0.8-1.8,1.5-2.3,2.5c-1.5,3.3-2.8,6.6-4.3,10.2
	c3.6,2,7.3,3.8,11.5,4.7c-1.9,0.6-3.6,0.3-6.1-0.9c-1.9-0.9-3.9-1.8-6.2-2.8c-1.7,3.8-3.4,7.5-5,11.1c3.9,2.2,7.6,4.3,11.3,6.5
	c-1.3-0.4-2.6-0.8-3.8-1.3c-2.6-1.3-5.2-2.6-7.9-4.1c-1.9,4.5-3.7,8.8-5.6,13.2c0.9,0.5,1.5,0.8,2.1,1.1c3.3,1.8,6.5,3.5,9.8,5.3
	c-1.5-0.6-3.1-1-4.6-1.7c-2.5-1.1-4.9-2.4-7.7-3.8c-1.8,4.1-3.5,8-5.3,12c5.4,3.7,11,6.3,17,8.4c0.9,0.3,1.5,0.1,1.9-0.8
	c1.6-3.4,3.2-6.7,4.9-10.4c-0.8-0.6-1.5-1.2-2.3-1.8c0.8,0.2,1.6,0.5,2.8,0.8c1.8-4.3,3.5-8.5,5.2-12.7c-2.2-1.3-4.1-2.5-6.1-3.7
	c2.1,0.8,4.2,1.5,6.5,2.4c0.9-2.1,1.8-4.2,2.7-6.4c0.2,0.1,0.5,0.2,0.7,0.3c-0.7,2.3-1.4,4.6-2.2,7.1c6.9,3.2,13.7,6.4,20.7,9.7
	c2.1-2.7,3.1-5.7,4.2-9c-2.1-1.5-4.3-3-6.5-4.5c0.1-0.2,0.2-0.4,0.4-0.6c2.3,0.6,3.9,2.9,6.6,3.5c0.3-0.9,0.6-1.9,1.1-2.9
	c0.4-0.9,1.1-1.7,1.9-3c1.3,3.2-1.7,4.5-1.4,7.2c4.4,2.5,9.3,5.1,14.5,7.1c1.2-1.8,1.8-3.7,3.3-5c0.2,0.1,0.3,0.2,0.5,0.3
	c-0.7,1.6-1.5,3.3-2.3,5c2.4,1.7,5.1,2.2,7.6,3c2.4,0.8,5,1.1,7.4,1.9c-2.7,0.6-5.2-0.2-7.7-1c-2.6-0.9-5.2-1.7-8.1-2.6
	c-2.8,5.4-4.4,11.4-8.1,16.3c2.4-5.5,4.7-11,7.2-16.7c-5-2.5-9.9-4.8-15.1-7.4c-1.3,2.8-2.6,5.5-3.9,8.2c1.8,2.5,5,1.9,7.3,3.9
	c-3,0.3-5.1-1.6-7.9-2c-2.4,3.5-3.9,7.4-5.5,11.8c4.5,1.4,8.8,2.8,13.2,4.1c-1.9,0.7-2.8,0.5-6.5-0.9c-2.2-0.9-4.4-1.6-6.7-2.5
	c-2.3,3-2.5,6.8-4.6,9.7c0-3.5,2.1-6.4,3-9.8c-0.7-0.5-1.4-1.1-2.1-1.7l-0.1,0.1c0.9,0.1,1.9,0.2,2.8,0.2c1.8-3.9,3.5-7.7,5.2-11.6
	c-7.2-3.4-14-6.7-21-10c-1.9,4.4-3.6,8.5-5.5,12.9c1.1,0.6,2.2,1.1,3.3,1.8c0.7,0.4,1.4,0.9,2.1,1.4l0-0.1c-1.9-0.6-3.9-1.2-6.1-1.8
	c-1.6,3.4-3.3,6.7-4.9,10.1c-0.2,0.5,0.1,1.2,0.2,1.8l0.1-0.1c-0.5,0.4-1.3,0.6-1.5,1.1c-0.7,1.5-1.1,3.1-1.8,5.1
	c-0.3-0.8-0.6-1.3-0.5-1.6c0.4-1.6,1-3.1,1.5-4.6c-6-2.8-11.9-5.6-18-8.5c-1.8,2-2.6,4.7-3.4,7.2c-0.8,2.6-1,5.3-1.4,8.1
	c-0.9,0.1-1.1-0.3-1-1.2c0.1-4.3,1.8-8.2,3.5-12c0.4-1,0.7-2,1-2.9c-2.9-2-5.7-3.8-8.4-5.7c-0.1,0,0.1-0.4,0.2-0.9
	c1.5,1,2.9,2,4.3,2.9c1.4,0.9,2.8,1.7,4.5,2.8c1.8-4.1,3.5-7.9,5.3-11.9c-4.6-3.2-9.8-4.9-14.5-7.8c0.7-1.2,1.3-0.8,2-0.4
	c3.8,2.1,7.7,4.2,11.5,6.3c0.3,0.2,0.7,0.2,1.5,0.5c1.9-4.4,3.7-8.7,5.5-13c-1.4-1.2-2.6-2.2-3.9-3.2l-0.1,0.1
	c1.4,0.6,2.8,1.2,4.5,1.8c1.6-3.8,3.6-7.3,4.6-11.2c-4.8-2.7-9.2-5.1-14-7.8c-1,2.5-1.9,4.9-2.9,7.2
	C537.9,164.9,537.2,165.8,536.7,166.8L536.7,166.8z"/>
<path fill-rule="evenodd" clip-rule="evenodd" d="M547.8,236.3c0.1-4.7,3.7-8.7,8.2-9.5c4.1-0.8,8.2-1.6,12.2-2.8
	c1.8-0.5,3.2-0.1,4.1,1.2c1.8,2.5,3.7,5.2,4.8,8c1,2.4-0.1,5.1-1.4,7.3c-0.6,1-1.7,1.4-3.2,1.6c-3.8,0.4-7.7,0.8-11.2,2.2
	c-4.7,1.8-8.1,0.2-11.4-2.7C548.4,240.2,547.5,238.3,547.8,236.3z M561.9,235.7c0.1-2.3-0.9-3.9-3-4.8c-0.6-0.3-1.2-0.5-1.9-0.8
	c-2.3-1-4.8-0.1-6,1.9c-1.5,2.6-1.3,5.2,0.7,7.5c1.9,2.2,3.6,2.6,6.5,1.6C560.2,240.4,561.9,237.9,561.9,235.7z"/>
<path fill-rule="evenodd" clip-rule="evenodd" d="M531.2,111.2c0.2-0.8,0.4-2,1-3.1c1.5-3.2,2.6-3.1,5.3-1.9c2.5,1.1,4,3.3,4.2,6.2
	c0.1,2.1-2,4.8-4.3,5.8c-2.1,0.9-5.4-1.2-5.9-3.8C531.4,113.5,531.4,112.6,531.2,111.2z"/>
<path fill-rule="evenodd" clip-rule="evenodd" d="M546.2,173.8c-0.6-0.1-1.2,0-1.7-0.3c-3.6-2.3-7.2-4.6-10.7-7
	c-0.6-0.4-1-1.2-1.3-2.2c1.4,0.8,2.8,1.7,4.2,2.5l-0.1-0.1c0.9,0.8,1.7,1.7,2.7,2.4C541.5,170.8,543.8,172.4,546.2,173.8
	L546.2,173.8z"/>
<path fill-rule="evenodd" clip-rule="evenodd" d="M583.4,208.7c-3.6-0.7-7-2-10-4.1l-0.1,0.1c1.5,0.4,3,0.7,4.4,1.3
	C579.6,206.7,581.5,207.8,583.4,208.7L583.4,208.7z"/>
<path fill-rule="evenodd" clip-rule="evenodd" d="M617.7,48.6c1.6,0.8,3.1,1.6,5,2.5c-1.6,1.2-2.3,0.1-3.1-0.4
	c-0.8-0.5-1.4-1.2-2.2-1.8C617.5,48.8,617.6,48.7,617.7,48.6z"/>
<path fill-rule="evenodd" clip-rule="evenodd" d="M559.6,213.6c1.5-0.3,3-0.2,4.8,0.8C562.4,214.8,561,214.2,559.6,213.6
	C559.7,213.5,559.6,213.6,559.6,213.6z"/>
<path fill-rule="evenodd" clip-rule="evenodd" d="M573.3,204.6c-1-0.4-2-0.8-3-1.2l0,0.1C571.6,203.2,572.5,203.6,573.3,204.6
	L573.3,204.6z"/>
<path fill-rule="evenodd" clip-rule="evenodd" d="M574.2,110.9c0,2.2-2.6,5.5-4.8,6.1c-1.6,0.4-4.1-0.8-5.3-2.5
	c-1.3-2-0.9-4.1,0-5.8c0.8-1.5,2.5-2.6,4.1-3.6c1.1-0.7,2.4-0.4,3.4,0.7C573,107.3,574.1,108.8,574.2,110.9z"/>
<path fill-rule="evenodd" clip-rule="evenodd" d="M554.2,235.6c-0.8-1-1.2-1.4-1.7-1.9c0.7-1,1.3-2.1,2.7-2c0.3,0,0.9,0.8,0.8,1
	C555.6,233.7,555,234.4,554.2,235.6z"/>
<path fill-rule="evenodd" clip-rule="evenodd" d="M403.2,134.2c0.1-3.4,1.7-5.8,4.2-6.6c1.2-0.4,3.8,1,4.5,2.5
	c1.6,3.4-0.1,7.3-3.7,8.4c-2.2,0.7-3.7,0-4.6-2.3C403.3,135.4,403.3,134.5,403.2,134.2z"/>
<path fill-rule="evenodd" clip-rule="evenodd" d="M377.2,137.3c0,2.8-2.1,5.3-4.7,5.4c-2.8,0.1-4.8-1.8-4.8-4.4
	c0-2.4,2.9-5.8,4.9-5.8C375.3,132.5,377.1,134.5,377.2,137.3z"/>
</svg>
