<?xml version="1.0" encoding="utf-8"?>
<!DOCTYPE svg PUBLIC "-//W3C//DTD SVG 1.1//EN" "http://www.w3.org/Graphics/SVG/1.1/DTD/svg11.dtd">
<svg artist="zl2017" version="1.1" id="zlIcon-officeboard" xmlns="http://www.w3.org/2000/svg" xmlns:xlink="http://www.w3.org/1999/xlink" x="0px" y="0px"
	 width="1000px" height="1332.8px" viewBox="0 0 1000 1332.8" enable-background="new 0 0 1000 1332.8" xml:space="preserve">
<path fill-rule="evenodd" clip-rule="evenodd" fill="#FFFFFF" d="M508.7,190c-3.3-4.6,1.7-11.3,3.5-17.3c1.7-5.5,16.1-7.5,18.1-13.1
	c4.4-12.7,49.6,8.5,53.9-4.2c2.5-7.4-36.2-48.6-33.5-56c3.7-10-0.6-21.9,3.2-31.9c3.1-8.2,1.7-18,4.6-26.2c2.8-8.1,3.9-15.8,8-24.2
	c0.9-1.8,0.8-3.4,1.1-4.9c-11.7,0.6-18.5,2.5-51,14.2c-0.7,1.2-2,2.6-2.3,3.8c-1.2,4.2-2.3,8.5-3,12.6c-1.3,7.5-2,14.9-3.4,22.4
	c-1.2,6.6-3.1,13.3-4.6,20c-0.4,2-0.5,3.8-1,5.8c-4.1,16.6-8.2,33.3-12.2,49.9c-0.3,1.2-0.4,2.4-0.5,3.6c-1.2,16.4-4,33.1-11,51
	c-0.7,1.8-1,3.5-1.3,5.2c-0.2,1.2-0.5,2.5,2.7,2.4C489.4,199.9,498.8,195.5,508.7,190z"/>
<path fill-rule="evenodd" clip-rule="evenodd" d="M105.1,1320.2c-2-7.8-1-13.4,1.6-19.2c9.4-21.4,18.4-42.9,27.7-64.4
	c1.9-4.3,4-8.7,6.8-12.4c4.5-5.9,8.4-12,11.8-18.6c3.6-7,6.5-14.1,9.5-21.3c5.5-13.6,11.7-26.9,17.6-40.4c0.3-0.8,0.9-1.5,1.1-2.3
	c4.5-17.8,14-33.4,20.6-50.3c4.9-12.5,9.3-25.1,13.5-37.9c2.4-7.4,6.5-14.3,6.7-22.3c0-1.7,0-3.3,0-5c-3.4-3.1-6.8,0-10-0.3
	c-3-0.3-6.1-0.3-9.1,0.4c-14.8,3.2-30.2,2.1-44.8,6.8c-2.2,0.7-5-0.3-7.6-0.5c-4.3-0.2-8.7-1.1-12.9-0.5
	c-10.3,1.4-20.4,3.5-30.6,5.4c-3.8,0.7-7.6,1.8-11.4,1.9c-13.5,0.4-26.6,3.2-39.9,5c-6.8,1-13.7,1.4-20.6,2.1
	c-4.3,0.5-8.8,0.3-12.8,1.6c-6.1,2.1-11.9,1.4-17.8,0.8c-3.5-4,1.3-9.9-3.7-13.3c-0.7-0.5-0.1-3.3,0.3-4.9
	c4.2-18.5,7.4-37.2,9.3-56.1c1.5-14.1,3.4-28.3,6.5-42.3c3.8-17.2,6.3-34.9,7.5-52.5c2.2-30.1,2.7-60.4,4.3-90.6
	c1.3-23.3,3.3-46.5,4.7-69.8c0.9-16.4,1.8-32.9,1.6-49.3c-0.2-12.1-1.7-24.2-3.6-36.1c-2.2-13.4-0.6-26.6,0-39.9
	c0.3-6.5,1.3-12.9,1.9-19.3c0.3-3.5,0.6-6.9,0.7-10.4c0.3-22,0.2-44,1-66.1c0.4-11.6,2.2-23.2,3.3-34.8c0.4-3.9,0.7-7.8,0.7-11.6
	c-0.2-18.1,0.3-36.3,0.9-54.4c0.3-10.7-2.4-21.4-2.9-32.1c-0.8-14.6-2.8-29.2-5.1-43.4c-2.5-15.2-3.8-30.6-7.6-45.7
	c-1.3-5.3-2.4-10.9-1.5-16.6c0.3-2-0.3-4.3-1-6.2c-1.3-3.1-1.1-6.3,0.7-8.7c4.3-5.5,3.3-11.4,2.1-17.3c-1.3-6-1.6-11.9-0.8-18.4
	c2.1-0.7,4-1.7,6-1.9c11.2-1.1,22.4-1.9,33.6-3.1c6.4-0.7,12.9-1.6,19.1-3.2c5.5-1.4,10.8-3.2,16.5-3c0.9,0,1.8,0,2.6-0.2
	c12.7-3.5,25.7-2.7,38.6-3.3c12.5-0.6,25-2.4,37.5-3.7c2.6-0.3,5.4,0,7.7-0.9c13.8-5.6,28.7-6.3,43-9.3c4.2-0.9,8.5-1.6,12.8-2.3
	c7.7-1.2,15.3-2.2,23.2-1.5c13.8,1.4,27.5-1.4,41.2-2.5c17.6-1.4,35.1-4.8,52.7-7c17.2-2.1,34.4-3.7,51.6-5.8
	c17.2-2.1,34.3-4.8,51.4-7c6-0.8,12.1-1,18.1-1.7c3.8-0.4,6.4-2.6,7.1-6.5c2.2-13.2,5-26.3,5.9-39.7c0.8-11.2,3.3-22.2,5.4-33.2
	c3-15.7,6.2-31.4,9.5-47.7c12-8.6,24.2-17.4,35.2-25.4c4.2-0.3,3.9,2.1,4.8,3.3c1,1.4,2,2.8,3.2,4.4c9.7,1.1,19.8,1.1,28.5,5.8
	c5.5,11.2,2.5,22.3,1,33.4c-0.6,4.3-1.4,8.5-1.7,12.8c-1.5,20.7-2.6,41.5-4.3,62.2c-0.4,4.6-1,9.5-5.1,13.8c-2.1-1.6-4-3.1-6.6-5.1
	c-7.5,5.1-17,5.6-25.9,9.9c-1-2.5-2-4-2.1-5.5c-0.1-2.1,0-4.5,0.8-6.4c6-14.1,7.6-29.3,11.5-43.9c3.6-13.3,5.4-27.1,7.8-40.7
	c0.7-3.9-3.3-8.8-7.5-9.1c-5.6-0.5-11.3-0.7-16.8,0.1c-5.5,0.7-10.8,2.8-16.2,4.3c-3,12.6-5.3,25-9.1,36.9
	c-3.8,12.1-4.7,24.6-6.6,36.9c-0.6,3.7,0.5,6.8,3.7,9.3c-2.9,9.1-9,17.3-9.6,27.1c1.5,0.6,2.4,1.4,3,1.2c11.4-2.8,22.9-4.2,34.6-5
	c12.9-0.9,25.8-2.3,38.4-6.1c6.1-1.9,12.6-3,19.1-3.4c17.4-1.1,33.9-6.7,50.9-9.7c11.9-2.1,23.9-4.2,35.9-5.1
	c8.5-0.7,17.2,0.7,25.9,1.1c6.5,0.3,12.8-0.4,19.3-1.5c15.3-2.7,30.9-3.7,46.3-6.2c17.5-2.9,35.5-0.9,52.8-4.1
	c11.7-2.1,23.3-0.8,34.9-2.7c8.5-1.3,17.1-2.5,25.7-3.7c4.2-0.6,8.8-2,12.7-1.1c5.7,1.4,11.1,0.2,16.6,0.3
	c8.2,0.1,16.4,0.3,24.6-0.3c11.2-0.7,22.3-1.8,33.4-3.2c10.8-1.4,21.5-0.9,33.1-1.2c-0.4,5.9,0.3,11.1-1.2,15.8
	c-4,12.5-4.5,25.1-4.7,38.1c-0.2,10.7-2.2,21.4-2.9,32.1c-0.8,11.7-1.1,23.4-1.4,35.1c-0.5,22-2.5,43.9-5.5,65.8
	c-0.2,1.3-1.1,2.6-0.8,3.7c2.8,12.6-1.5,24.9-0.9,37.5c0.4,9.8-1.6,19.8-2.3,29.7c-0.4,6-0.6,12.1-0.6,18.1
	c-0.2,22,0.7,44.1-0.6,66.1c-1.2,19.8-1.4,39.7-2.6,59.4c-1,17.7-1.9,35.3-1.2,53c0.6,16.4-0.5,32.8-0.2,49.1
	c0.2,16.5-0.1,32.9-0.3,49.4c0,3.5-0.6,6.9-1,10.3c-2.3,18.5-1.8,37.1-2.2,55.6c-0.6,27.7-1.8,55.3-2.1,83
	c-0.2,15.6,1.1,31.1,1.7,46.7c0.5,12.9,0.9,25.9,1.4,38.8c0.3,6.5,1.4,12.9,1,19.3c-0.7,11.2-2.6,22.3-3.5,33.5
	c-0.4,5.1-0.1,10.3,0.4,15.4c0.8,8.6,2.4,17.2,2.7,25.8c0.2,7.4-2.1,14.4-7.3,20.7c-2-1.9-3.5-4.1-5.5-5.1c-1.8-0.8-4.4-0.9-6.3-0.2
	c-4.9,1.7-9.4,0-14-1.1c-5.5-1.2-10.9-2.8-16.5-3.1c-18-1.2-36.1-2.6-54.1-3.7c-3-0.2-6,0.6-9,0.6c-4.7,0.1-9.6,0.6-14.2-0.1
	c-7-1.1-13.7-0.3-20.6,0.3c-10.3,0.9-20.7,0.2-31,0.1c-1.3,0-2.6-0.6-3.8-0.5c-18.6,0.8-37.2,1.6-55.8,2.6c-2,0.1-4,1.3-6.5,2.1
	c0.8,8,0.9,15.7,2.4,23.2c4.2,20.7,8.9,41.3,16.1,61.3c3.3,9.3,4.7,19.3,6.9,29c1.3,5.9,2,11.9,3.6,17.7c2.4,8.7,5.7,17.2,8.2,25.9
	c1.9,6.6,3.3,13.4,4.6,20.2c1.4,7.4,4.5,14,7.7,20.6c2.4,5,4.7,10.1,6.7,15.3c2.3,6,4.2,12.2,6.2,18.4c0.5,1.6,1.3,3.4,1.2,5
	c-0.2,1.5-1.2,3.4-2.4,4.1c-1.1,0.7-3.4,0.5-4.6-0.2c-2.1-1.2-3.8-3.2-5.7-4.8c-9.5,4-9.9,11.5-10.6,21.3c2.6-2.3,3.9-3.1,4.7-4.2
	c0.8-1,1.1-2.3,1.8-3.4c5.1-7.4,7-7.3,13,1.1c-2.3,12-5.9,23.9-9.8,35.7c-2.9,8.6-8.7,12.8-17.4,12.7c-6.9-0.1-13.5,1.4-20.6,0.7
	c-7.1-0.7-14.4,2.1-21.7,3.3c-3.4,0.6-6.8,1.5-10.2,1.6c-4.9,0.1-7.2-1.8-8.1-6.6c-3-15.7-6-31.4-8.8-47.2c-0.8-4.2-1-8.6-1.2-12.9
	c-1.1-18.1-2.6-36.2-5.5-54.2c-1.3-8.1-1.6-16.3-2.2-24.5c-0.9-12.5-1.5-25.1-2.7-37.6c-0.9-9.5-2.1-18.9-3.5-28.3
	c-1.7-10.7-3.2-21.4-4.4-32.2c-1.2-11-2.3-22.4-6.8-32.9c-1.2-2.7-1.3-5.8-1.9-8.8c-0.8-3.8-1.5-7.5-2.4-12c-3.1,0-5.7-0.4-8.1,0.1
	c-9,1.8-17.8-4.6-26.8-0.6c-0.8,0.4-2.4-0.7-3.5-1.2c-6.8-3.4-14.1-4.1-21.5-3.8c-16.4,0.6-32.8,0.1-49.3,2.4
	c-13.2,1.9-26.8,1.1-40.2,1.1c-13.8,0.1-27.7-0.4-41.5-0.2c-10.8,0.1-21.6,0.8-32.4,1.4c-1.7,0.1-3.7,0.3-5,1.1
	c-6.6,4.2-13.9,3.3-21.2,4.2c-20.2,2.4-40.5,2.7-60.6,5.7c-13.2,2-26.6,3.2-39.7,5.6c-7.2,1.3-14.2,3.4-21.7,5.2
	c-1.7,4.9-3.5,9.7-5,14.6c-5,16-10.3,32-14.9,48.2c-4.8,16.9-8.8,34.1-13.5,51.1c-4.5,16.6-9.9,33-14,49.8
	c-4.8,19.7-10.9,39.1-12.5,59.5c-0.3,4.2-2.3,8.2-3.5,12.4c-1.3,4.6-3.8,9.1-3.7,13.7c0.1,7.2-2.5,13.6-4.1,20.3
	c-1.7,7.1-6,12.3-12,16.4c-1.8,1.2-3.4,2.8-5.4,3.6c-10.1,4.3-16.7,12-21.4,21.4c-5.8,1.5-10.8,0.9-16.5-0.8
	c-14.4-4.3-29.1-7.7-44.4-8.4C113.8,1322.6,109.7,1321.2,105.1,1320.2z"/>
<path fill-rule="evenodd" clip-rule="evenodd" fill="#FFFFFF" d="M566.1,48.6c-1.1,1.1-2.3,2.2-3.1,3.4c-0.3,0.4,0.3,1.4,0.4,2.1
	c1-0.3,2.8-0.4,2.9-0.9c0.3-1.4-0.1-3-0.3-4.5c1.2,0.2,2.3,0.3,3.5,0.4c0.4,0,0.8-0.1,1.2-0.2c-0.4-0.3-0.9-0.9-1.3-0.9
	C568.3,48.1,567.2,48.4,566.1,48.6z"/>
<path fill-rule="evenodd" clip-rule="evenodd" fill="#FFFFFF" d="M189.3,1288c1.2,0.3,2.5,1.2,3.4,0.9c4.4-1.6,8.8-3.4,13-5.5
	c6.2-3.1,8.2-8.4,6.6-16.7c-7.5,1.5-12.7,6.7-18.4,11.4c-3.4,2.9-4,6.3-4.4,10.3c-1.8,6.1-3.2,12.2-1.2,18.7
	c6.8-0.8,11.4-4.9,16.2-8.2c1-0.7,1.9-1.9,2.2-3.1c0.5-1.9,0.6-3.9,0.8-5.9c-2-0.1-4.2-0.9-5.9-0.3c-2.3,0.9-4.2,3-6.4,4.2
	c-1.3,0.7-3,0.8-4.5,1.1C190.2,1292,189.8,1290,189.3,1288z"/>
<path fill-rule="evenodd" clip-rule="evenodd" fill="#FFFFFF" d="M226.5,1162.9c5.5,0,9.6-3.1,13.8-6c6.6-4.6,8.8-11.9,6.4-21.7
	c-4,1.6-7.9,3.2-12,4.8c-1.7,5.4-3.3,10.8-5.1,16.1c-0.8,2.3-0.1,5.3-2.9,6.7c-0.8,5.8-1.7,11.6-2.6,18.3
	c8.5-2.9,15.3-5.7,15.6-15.4C232.7,1166.1,232.7,1166.1,226.5,1162.9z"/>
<path fill-rule="evenodd" clip-rule="evenodd" fill="#FFFFFF" d="M952.7,962.4c3.7-5.7,5.6-11.7,5.8-18.4c0.2-5.6,1.2-11.2,2.2-16.7
	c2.9-16.2,4.9-32.5,4.5-49.1c-0.4-22.1-0.9-44.2-0.9-66.3c0-20.3,0.7-40.6,0.8-60.9c0.1-8.2-0.9-16.4-0.7-24.7
	c0.2-10.8,1.2-21.5,1.4-32.4c0.6-33.3,0.6-66.6,0-99.9c-0.2-11.7-0.5-23.3,0-35c0.6-13.4,1.3-26.9,3.2-40.1
	c3-20.7,1.1-41.5,1.8-62.3c0.7-20.3,1.4-40.6,2-60.9c0.5-14.7,1.7-29.5,1-44.2c-0.8-16-1.5-32-2.3-47.9c-1.4-27.3,1.2-54.5,1.8-81.8
	c0.2-10.4,0.5-20.6-0.9-31c-1.4-10.7-1.4-21.6-1.8-32.4c-0.3-10.8-0.4-21.6-0.5-32.7c-5.1-1.1-9.8-1.7-14.2-3.2
	c-6.7-2.3-13.5-2.8-20.5-2.5c-3.5,0.2-6.9,0.1-10.4-0.1c-13.4-0.6-26.8-1.6-40.2-1.7c-29.4-0.3-58.8,0.9-88.1,3.5
	c-19.4,1.7-38.8,3.7-58.1,5.5c-14.7,1.4-29.3,2.6-44,4.1c-6,0.6-12,1.6-18,2.5c-3.8,0.6-7.6,1.7-11.5,2c-20.7,1.9-41.4,3.4-62.1,5.4
	c-15.1,1.5-29.8,5.1-44.5,8.8c-5.8,1.5-11.8,2.9-17.8,3.4c-8.9,0.8-18,0.1-26.8,1.1c-25.8,3.1-51.5,6.8-77.2,10.3
	c-3.8,0.5-7.7,1.4-11.5,1.7c-12.9,1-25.9,1.7-38.9,2.8c-7.3,0.6-14.6,1.5-22,2.3c-21.5,2.3-42.6,6.7-64.2,8.5c-3,0.2-5.9,1-8.9,1.5
	c-11.9,2.1-23.8,4.6-35.8,6.1c-11.1,1.4-22.4,1.3-33.6,2.7c-10.3,1.2-20.6,2.8-30.7,5.4c-11.3,2.9-22.6,5.1-34.4,5.8
	c-12,0.7-24,2.5-35.9,4.4c-8.5,1.3-16.9,3.3-25.2,5.3c-8.7,2.2-17.1,6.1-26.4,5.1c-1.2-0.1-2.5,0.5-3.7,1.1
	c-5.8,2.7-11.6,5.5-18,8.5c0,2.7-0.5,5.4,0.1,7.8c1.8,7.8,1,15.3,0.1,23.2c-1.2,10.6-3.6,21.2-1,32.1c1.4,5.9,0.1,12-1.9,17.9
	c-1.1,3.3-2.1,6.7-2.2,10.1c-0.2,11.7-0.4,23.4,0.2,35c0.9,18.1,2.4,36.1,3.6,54.2c0.7,11.2,1.8,22.4,1.9,33.6
	c0.1,17.6-1.2,35.3-0.8,52.9c0.3,13.7,1.5,27.3-0.2,41c-0.4,3.4-0.7,7.1,0,10.4c2.6,11.7-0.6,23.2-1.2,34.7
	c-0.6,10.8-1.5,21.5-1.5,32.4c-0.1,20.3-0.1,40.7-0.7,61c-0.3,11.6-2,23.2-1.2,35c0.7,11.6-0.5,23.3-0.9,35
	c-0.2,5.6-0.2,11.2-0.6,16.8c-1.3,16.4-2.9,32.7-4.3,49.1c-0.7,8.6-1.2,17.2-1.8,25.8c-1.1,15.1-2.1,30.2-3.4,45.3
	c-1.2,13.4-2.5,26.7-4.3,40c-1.5,11.1-4.1,22.1-5.6,33.3c-1.8,13.3-2.8,26.6-4.2,40c-0.3,3-2.4,6.7-1.3,8.8c3.2,6.1,2,12.5,2.5,18.5
	c9.1,2.9,9.1,3.1,18.2,1.9c15.4-2,30.8-4.2,46.2-6.4c16.2-2.4,32.4-5.4,48.7-7.3c24.9-2.9,50-4.6,74.8-7.6
	c10.6-1.3,21.9,0.1,30.8-5.1c6.1,0.9,11.1,2.2,16.2,2.4c7.3,0.2,14.7-0.8,22-0.4c17.1,0.9,34.6-4.2,51.3,3.3
	c12.4-0.5,24.8,1,37.2-1.3c14.8-2.7,29.8-4.2,45-3c4.7,0.4,9.5-0.3,14.2-0.7c10.3-1,20.6-2.4,30.9-3.1c17.6-1.2,35.3-1.9,53-3.2
	c12.9-1,25.8-4,38.6-3.5c15.7,0.6,30.7-3.4,46.1-4.3c14.9-0.8,29.7-4.3,44.6-6.3c9.9-1.4,19.7-2.6,29.6-3.4
	c21.6-1.8,43.1-3.8,64.7-5c20.6-1.1,41-6.7,61.9-3.5c1.2,0.2,2.6,0,3.9-0.3c9.9-2.5,19.7-1.5,29.6-0.3c4.2,0.5,8.6,0,12.9-0.1
	c9.4-0.2,19-1.8,28.3-0.5c12.4,1.8,24.9,2.2,37.3,3C920.8,966,936.7,964.8,952.7,962.4z"/>
<path fill-rule="evenodd" clip-rule="evenodd" fill="#FFFFFF" d="M233.1,1025.9c1.2,11-5.2,19.6-8.6,29.2c-3.2,8.9-6.5,17.9-10,26.7
	c-7.9,20.1-15.9,40.1-23.7,60.3c-4.5,11.7-8.3,23.6-13,35.2c-6.3,15.6-13.3,30.9-19.8,46.5c-5.3,12.8-10.1,25.7-15.2,38.6
	c-5,12.8-8.5,26.1-14.6,38.5c-1.3,2.6-1.8,5.6-2.6,8.1c9.8,7.6,16,9.2,46.6,12c1-1.6,2.5-3.3,3.1-5.2c2.4-6.9,4.7-13.9,6.6-20.9
	c3.5-12.9,6.6-25.9,10.3-38.8c3.2-11.2,7-22.3,10.4-33.4c1-3.3,1.7-6.7,2.7-10c8.9-27.6,17.8-55.1,26.7-82.7
	c0.7-2.1,1.1-4.2,1.6-6.3c6.4-29.2,14.3-58,26-85.6c1.2-2.8,2-5.7,2.8-8.6c0.5-2,1.3-4.2-1.4-6.5
	C252.2,1022.1,243,1023.3,233.1,1025.9z"/>
<path fill-rule="evenodd" clip-rule="evenodd" fill="#FFFFFF" d="M676,996.6c-0.3,2-1,3.6-0.9,5.3c0.5,7.3,0.8,14.7,1.8,22
	c1.5,11.5,3.3,23,5.1,34.5c1.4,9,2.5,18,4.2,26.8c2.4,12.2,6.7,24.2,4.8,37c-0.2,1.7,0.3,3.4,0.5,5.2c0.4,6,0.8,12,1.2,18.1
	c0.4,5.6,0.2,11.2,1.1,16.7c3.2,18.3,6.1,36.6,7,55.1c0.3,6.9,1.5,13.7,2.4,20.6c0.9,7.3,2.2,14.5,2.9,21.8
	c0.4,4.7-0.1,9.5,0.2,14.2c0.4,5,1.3,9.9,1.9,15.1c2.5,0,4.9,0.6,6.7-0.1c6.6-2.8,13.5-2.5,20.4-3c7.8-0.5,15.5-1.4,23.2-2.3
	c6.8-0.8,8.2-2.9,7.4-10.5c-0.4-3.4-0.3-7-1.2-10.3c-3.2-12.1-6.7-24.1-10-36.1c-3.3-12.1-6.3-24.2-9.7-36.3
	c-1.2-4.1-3-8.1-4.6-12.1c-2-4.9-6.6-9.1-4-15.4c0.6-1.4-1-4.2-2.2-5.8c-2.5-3.3-3.1-7-3.6-10.9c-0.5-3.9-1.2-7.7-2.2-11.5
	c-4-14.5-5.2-29.8-11.7-43.7c-0.5-1.2-0.8-2.5-1-3.8c-1.8-17.8-6.8-34.7-13.6-51.2c-0.8-2-0.9-4.2-1.4-6.3c-2-8.8-3.9-17.7-6.2-26.4
	c-2.1-7.9-5.3-9.5-13.3-7.9C679.6,995.7,677.9,996.1,676,996.6z"/>
<path fill-rule="evenodd" clip-rule="evenodd" fill="#FFFFFF" d="M751.5,1159.5c1,4.4,1.3,6,1.7,7.5c1.3,5.4-5.4,7.6-5.3,11.9
	c2.1,4.4,4.9,4.8,7.6,2.4c2.9-2.5,5.1-5.7,7.6-8.6c-2.8-11.6-5.3-22.8-9.7-33.4c-13.9,5.2-14.7,6.5-11.2,15.8c2.1-0.1,4.3-0.2,7-0.4
	c-2.1,3.4-3.9,5.9-5.2,8.5c-1.3,2.5-0.2,4,2.6,4.3C747.7,1165.8,748.8,1164,751.5,1159.5z"/>
<path fill-rule="evenodd" clip-rule="evenodd" fill="#FFFFFF" d="M571.7,20.1c-4.6-5.6-10-7.9-16.3-7.3c-8.5,0.9-17.4,1.4-24.2,8
	c-1.9,1.9-4.7,3-8.9,5.6c10.4,0,18.6,0,26.8,0c2.1,0,4.4-0.9,6.4-0.4c2.3,0.6,4.3,2.3,6.9,3.7C565.6,26.4,568.5,23.3,571.7,20.1z"/>
<path fill-rule="evenodd" clip-rule="evenodd" fill="#FFFFFF" d="M555.5,94.1c1.8-0.6,3.1-1.4,4.3-1.3c1.5,0.2,3.7,0.8,4.1,1.9
	c0.5,1.1-0.2,3.5-1.2,4.4c-1.9,1.6-4.6,2.3-6.6,3.9c-1.8,1.5-3.8,3.3-1.8,7c8.4-4.5,17.5-7.8,16.2-20.2c-0.3-2.5,1.1-5.1,1-7.6
	c-0.1-1.8-1.6-3.5-2.8-6.1c-4.3,2.6-8.1,4.6-11.6,7C553.4,85.6,553,89.2,555.5,94.1z"/>
<path fill-rule="evenodd" clip-rule="evenodd" fill="#FFFFFF" d="M228.8,1201.5c-6,0.9-12.3,1.2-14.3,6.3c-2,5.1-7.3,9.9-4.5,16.8
	c7.7-1.4,13.1-5.6,17.4-11.1C230,1210.4,229.6,1206.4,228.8,1201.5z"/>
<path fill-rule="evenodd" clip-rule="evenodd" fill="#FFFFFF" d="M258.5,1093.9c-4.6,1.9-10.3,1.2-13.3,6.6c-2.5,4.6-2.7,8.2-0.7,14
	C259.6,1107.3,261.1,1105.2,258.5,1093.9z"/>
<path fill-rule="evenodd" clip-rule="evenodd" fill="#FFFFFF" d="M198.4,1267.7c7.2-4,13.4-7.5,19.8-11c0-3.7,0-7.4,0-11.6
	c-8.2,1.8-13.2,6.9-17.9,12.3C197.9,1260.1,196.9,1263.3,198.4,1267.7z"/>
<path fill-rule="evenodd" clip-rule="evenodd" fill="#FFFFFF" d="M205.8,1244c4.3,0.9,8.2-1.3,11.9-2.9c5.6-2.5,6.5-7.5,2.9-15
	c-5.2,3.3-10.6,6.2-15.4,9.9C202.7,1238.1,203.1,1241.3,205.8,1244z"/>
<path fill-rule="evenodd" clip-rule="evenodd" fill="#FFFFFF" d="M253.7,1074.8c-2.1,5-4,9.3-5.8,13.7c-0.2,0.6,0.4,1.5,0.7,2.3
	c13.2-2.4,15.8-5.2,16-18.5C260.9,1073.1,257.3,1074,253.7,1074.8z"/>
<path fill-rule="evenodd" clip-rule="evenodd" fill="#FFFFFF" d="M761.1,1216.7c3.2-2.9,6.4-5.6,9.3-8.5c4.1-4.1,3.9-5.4-1.2-11.5
	C759,1201.6,756.2,1207.9,761.1,1216.7z"/>
<path fill-rule="evenodd" clip-rule="evenodd" fill="#FFFFFF" d="M233.2,1182.6c-7.4,2.6-13.3,6.3-15.7,15c5.7,1.8,9.8,0.2,13.8-1.9
	C232.8,1191.4,235.8,1187.8,233.2,1182.6z"/>
<path fill-rule="evenodd" clip-rule="evenodd" fill="#FFFFFF" d="M764.7,1180.9c-9,5.7-10.3,6.7-11.1,11.4c-0.3,1.8,0.8,3.7,1.3,5.9
	c6.6-1.6,9.6-6.1,13-10.2C766.9,1185.5,766,1183.7,764.7,1180.9z"/>
<path fill-rule="evenodd" clip-rule="evenodd" fill="#FFFFFF" d="M567,110.7c-12.8,6.1-12.8,6.1-13.1,16.6
	C560.5,123.8,569.1,122.4,567,110.7z"/>
<path fill-rule="evenodd" clip-rule="evenodd" fill="#FFFFFF" d="M735,1127.1c4-3.3,7.2-5.5,9.8-8.3c2.6-2.9,2.3-6.3-1.4-9.5
	c-2.1,1.3-5,2.2-6.2,4c-2,3-3.1,6.7-4.2,10.2C732.8,1124.3,734.2,1125.6,735,1127.1z"/>
<path fill-rule="evenodd" clip-rule="evenodd" fill="#FFFFFF" d="M739.4,1090.7c-8.9,6-9.6,6.8-8.8,12.6c0.2,1.4,1.8,2.6,3.1,4.4
	c3.5-2.7,6.5-5,9.7-7.5C742,1097,740.9,1094.3,739.4,1090.7z"/>
<path fill-rule="evenodd" clip-rule="evenodd" fill="#FFFFFF" d="M751.8,1131.1c-0.2-1.1-0.2-2-0.6-2.7c-2.5-4-5.6-4.7-7.9-1.6
	c-2.3,3.1-4.4,6.3-6.3,9.6c-0.5,0.8-0.1,2.7,0.6,3.3c0.6,0.6,2.5,0.5,3.3,0C744.7,1137,748.2,1134,751.8,1131.1z"/>
<path fill-rule="evenodd" clip-rule="evenodd" fill="#FFFFFF" d="M775.2,1211.3c-1.8,0.7-3,1-4,1.7c-4.9,3-2.7,9.7-6.7,13.2
	c-0.2,0.2,0.5,1.4,1.1,2.7c5.5-1.5,9.1-5.4,13.4-9.4C777.6,1216.7,776.4,1214.1,775.2,1211.3z"/>
<path fill-rule="evenodd" clip-rule="evenodd" fill="#FFFFFF" d="M722.5,1058.6c4,0.4,6.5-2.1,8.6-4.8c2.1-2.7,1.7-5.9,0-8.5
	c-0.7-1-3.1-1.9-4.2-1.4C720.5,1046.2,719.8,1048.9,722.5,1058.6z"/>
<path fill-rule="evenodd" clip-rule="evenodd" fill="#FFFFFF" d="M241.6,1132.1c3-2.3,5.9-4.2,8.5-6.4c1.7-1.5,3-4,1.2-5.6
	c-1.2-1.2-3.9-1.2-5.8-1.1c-3.4,0.3-5.1,2.6-6.2,5.7C238.4,1127.4,237.4,1129.7,241.6,1132.1z"/>
<path fill-rule="evenodd" clip-rule="evenodd" fill="#FFFFFF" d="M737.6,1071.8c-1.8-4.5-3-7.3-4.6-11.2c-4.9,3.8-10.8,5.3-8.4,13.5
	C728.5,1073.4,732,1072.8,737.6,1071.8z"/>
<path fill-rule="evenodd" clip-rule="evenodd" fill="#FFFFFF" d="M257.3,1059.4c-0.4,2.7-0.8,5.5-1.2,8.3c0,0.2,0.5,0.5,0.7,0.8
	c3.7-0.9,7.4-1.8,11.4-2.8c0.8-1.9,1.7-3.8,2.3-5.8c0.2-0.6-0.5-1.5-0.7-2.1C265.9,1058.3,261.8,1058.8,257.3,1059.4z"/>
<path fill-rule="evenodd" clip-rule="evenodd" fill="#FFFFFF" d="M735.3,1075.5c-2.3,2-4.7,3.7-6.6,5.8c-2.1,2.3-1.1,5.2,0.6,7.1
	c2.1,2.3,3.7-0.3,5.2-1.6C738.7,1083.1,738.7,1083.1,735.3,1075.5z"/>
<path fill-rule="evenodd" clip-rule="evenodd" fill="#FFFFFF" d="M716.6,1020.4c5.8-3.7,7-4.4,7-6.4c0-1.6-0.5-3.7-1.7-4.6
	c-1-0.8-3.3-0.8-4.6-0.2C712.6,1011.8,712.5,1013.6,716.6,1020.4z"/>
<path fill-rule="evenodd" clip-rule="evenodd" fill="#FFFFFF" d="M268.7,1033.6c5.2-0.7,9.3-0.9,11.6-5.3c1-2,1.2-4.1-0.8-5.7
	c-2-1.7-4-1-5.7,0.5C270.8,1025.6,269.8,1029,268.7,1033.6z"/>
<path fill-rule="evenodd" clip-rule="evenodd" fill="#FFFFFF" d="M724.6,1024.7c-4.2,1.9-3.7,6.5-5.5,9.7c-0.6,1,0.4,2.8,0.6,4.5
	C728.8,1034.8,728.8,1034.8,724.6,1024.7z"/>
<path fill-rule="evenodd" clip-rule="evenodd" fill="#FFFFFF" d="M720.4,998.6c0-0.4,0.1-1-0.1-1.3c-2.7-4.4-4.2-5.2-6.7-3.5
	c-2.5,1.7-3.5,5.7-1.5,7.9c2.5,2.8,4.6,0.1,6.7-1.2C719.5,1000.1,719.9,999.2,720.4,998.6z"/>
<path fill-rule="evenodd" clip-rule="evenodd" fill="#FFFFFF" d="M557.7,72c7.2-0.7,11.7-1.8,13.7-8.9c-4.7,1.2-8.2,1.9-11.5,3.2
	C558.9,66.6,558.8,69,557.7,72z"/>
<path fill-rule="evenodd" clip-rule="evenodd" fill="#FFFFFF" d="M263,1048.3c4.5,1.9,7.8,1.4,10.4-3.5
	C268.9,1044,265.4,1043.7,263,1048.3z"/>
<path fill-rule="evenodd" clip-rule="evenodd" d="M119.5,753.6c-1.3-2.3-2.8-4.8-4.5-7.8c-3.3,1.5-6.3,2.8-9.3,4.1
	c-0.8-0.6-1.9-1-2.1-1.6c-3.6-18.2-4.2-36.7-2.7-55.2c0.2-2.5,0.9-5,1.9-7.3c1.8-4.4,3.9-8.6,6.1-13.5c6.1-0.5,11.5-4,16.9-7.4
	c8.3-5.2,17.3-7.6,27.1-6.8c2,0.2,4.6,0.7,5.9,2c4.5,4.6,8.5,9.7,12.6,14.7c0.5,0.6,1,1.7,0.8,2.4c-2.1,7.3,1.9,10.2,8.1,12
	c3,0.9,5.2,3.3,5.7,6.5c2.1,12.3,4.7,24.5,5,37.1c0.1,5.6-2.4,9-7.4,10.8c-5.6,2-11.6,3-16.7,6.7c-1.5,1.1-4.2,0.8-6.3,0.9
	c-6.9,0.2-13.8,0.1-20.7,0.5C133.2,752.1,126.5,752.9,119.5,753.6z M126.9,705.6c-1.3,12.6-2.7,25,2.8,37.6c1.9-0.6,3.9-0.9,5.7-1.8
	c6.8-3.3,13.6-5.1,20.9-1.3c3.8,2,7.5,0.5,11.4-3.1c0.5-13.4,1-27.5,1.6-41.5C153.4,692.3,140.7,700.6,126.9,705.6z M129.5,698.5
	c11.3-3.6,21.5-6.7,31.6-10.1c3.5-1.2,4.8-4.4,4.6-8.3c-0.6-8.4-6.7-12.5-12.8-16.7c-0.9-0.6-2.6-0.7-3.7-0.4
	c-4.6,1-9.3,1.8-13.7,3.5c-6.8,2.6-10.2,9.7-8.8,16.7C127.6,687.8,128.4,692.4,129.5,698.5z"/>
<path fill-rule="evenodd" clip-rule="evenodd" d="M131.3,476.1c5.4,6.9,11.8,12.5,15,19.6c3.4,7.4,8.1,14.1,10.9,21.7
	c2.8,7.7,5.8,15.3,9.4,22.6c3.7,7.5,6.5,15,7,23.6c-2.8,8-9.2,11.7-16.4,13.8c-7.6-3.6-6.6-11.4-9.6-16.5
	c-12.6-3.4-12.6-3.4-31.9,3.9c-3.1,6.4-3.4,14.7-9.6,20.1c-0.6,0.5-1.6,0.3-3.3,0.6c-0.1-2.1-0.8-4.3-0.2-6
	c6.3-16.6,7.7-34.6,14.8-50.9c1.7-3.9,2-8.4,3.4-12.4c2.2-5.9,2.9-11.6-1.2-17.7C126.5,492.5,125.2,482.5,131.3,476.1z M132.1,531.5
	c-7.3,4.5-6.7,12-8.2,19c12.8,1.5,13.1,1.5,20-3.8c-0.9-2.7-1.3-6.1-3-8.2C138.6,535.6,135.1,533.8,132.1,531.5z"/>
<path fill-rule="evenodd" clip-rule="evenodd" d="M190.8,812.7c-2,2.1-3.2,3.9-4.9,5.2c-3,2.3-6.2,5.6-7.7,9
	c-6.4-1.6-13-4.4-20.7-1.8c-0.9,2.2-2.5,4.8-3.2,7.6c-2.9,11.3-5.7,22.6-8.4,33.9c-1.6,6.6-1.1,10.4,1.3,19
	c6.7,5.5,14.7,3.9,22.3,3.6c3-0.1,6-1.4,8.9-1.3c2.3,0.1,4.6,1.5,6.9,2.3c-2.1,4.1-4.8,5.8-8.6,6c-9.9,0.4-19.8,1.2-29.8,1.2
	c-5.5,0-11.1-1.1-16.5-2.4c-6.3-1.5-9.9-6.5-8.2-12.6c4.8-17.5,4.5-35.9,9.4-53.4c1.6-5.7,3.2-10.6,9.8-12.3
	c1.9-0.5,3.8-2.1,5.2-3.6c5.9-6.1,13.1-7.5,21.3-7C175.8,806.5,183.7,805.8,190.8,812.7z"/>
<path fill-rule="evenodd" clip-rule="evenodd" d="M521,359.7c6.8,2.7,11.8-1,17.3-3.3c5.2-2.1,7.4-8.8,14.5-8.7
	c2.3,7.2,1.7,14.4,0.1,21.5c-0.8,3.7-3.9,5.2-8.1,4.8c-3.4-0.3-6.9-0.8-10.3-1.1c-8.8-0.8-17.2-0.2-25,4.7
	c-2.8,1.7-6.4,2.3-10.6,3.7c-0.2-2.8-0.8-4.9-0.3-6.7c2.2-7.7,6.5-13.8,12.7-19c10.3-8.6,19.9-17.9,29.8-26.9
	c3.1-2.8,4.4-6.4,4.4-10.4c0-2.6,0.1-5.2-0.3-7.8c-0.8-5.1,0-9.5,4.7-12.7c-2.9-3.9-6.8-5.2-10.5-4.4c-7,1.5-14.9,1.6-20.1,9.1
	c2.4,1.7,4.7,3.3,7.2,5c1.5,8.2-1.8,13.2-11,15.5c-1.8-1.5-4.1-3.3-6.4-5.1c0-3.6-0.5-7.1,0.2-10.4c0.6-2.8,1.9-6.2,4.1-7.9
	c7.1-5.6,14.4-11.2,23.9-12.3c10.4-1.2,18.6,3.2,23.1,12.7c1.1,2.4,1.8,4.9,2.9,7.2c3.8,7.9,1.3,14.5-4.9,19.6
	c-8.3,6.8-16.8,13.5-25.8,19.4C527.2,349.7,522.9,353.3,521,359.7z"/>
<path fill-rule="evenodd" clip-rule="evenodd" d="M793.8,343.8c-8.7-12.1,0.3-22.5,4.1-33.3c-8.7-5.5-10-5.5-16,0.1
	c-1.6,1.5-2.7,3.7-4.5,4.6c-1.7,0.8-4.5,1-5.9,0.1c-1.4-0.9-1.9-3.5-2.3-5.5c-0.2-1.1,0.6-2.4,1.1-3.7c2-5.7,4-11.3,6.3-18
	c-4.3,0.5-8,1.1-11.7,1.2c-3.4,0.1-7-0.7-10.3-0.1c-2.3,0.4-4.2,2.6-6.5,3.8c-2,1-4.8-1-4.1-3.2c1.3-4.5,2.5-9.2,4.7-13.3
	c1-1.8,4.2-3,6.5-3.3c3.8-0.6,7.8-0.3,11.7-0.3c9.5,0,19.1,0.2,28.3-2.6c1.6-0.5,3.4-0.3,5.1-0.2c2,0.1,3.9,2.8,3.2,4.7
	c-0.8,2-1.7,4-3.1,5.5c-3.2,3.5-6.8,6.6-10,10.2c-2.2,2.5-3.8,5.5-5.6,8.1c2.8,3.8,6.1,2,8.8,2.3c13.2,1.7,22.1,14.3,19.1,27.2
	c-3.5,15.4-13.7,23.4-29.5,23.8c-11.3,0.3-21.3-3-30.6-9c-4-2.6-4.4-7-0.8-9.6c0.9-0.7,4.3,0.1,4.3,0.4c0.4,6.4,5.9,8.2,10,10.8
	c2.4,1.6,5.6,2.6,8.4,2.7C781,347.3,787.7,348.6,793.8,343.8z"/>
<path fill-rule="evenodd" clip-rule="evenodd" d="M296.5,377.9c-1.5,1.4-2.8,3.4-4.7,4.1c-13.1,4.7-27.1,4.5-40.7,6.1
	c-1.4,0.2-3-1-6-2.1c3.3-2.1,5.2-4,7.4-4.5c9.4-1.9,14.8-7.9,18.5-16.3c4.9-11,6.5-22.8,11.1-36.4c-4.9,2.7-7.3,4-11,6.1
	c2.1-10.5,9.4-16.9,11.9-25.5c2.4-8.6,5.1-17.1,8.1-27.2c1.9,2.5,3.5,3.7,3.5,4.8c-0.6,11.1,0,22.2-3,33.1c-0.4,1.6-0.7,3.4-0.8,5.1
	c-0.3,11.6-0.1,23.3-1,34.9c-0.4,5.8,1.1,10,5,14C295.7,374.8,295.9,376.3,296.5,377.9z"/>
<path fill-rule="evenodd" clip-rule="evenodd" d="M533.1,182.9c5.1,4.2,9.5,8.3,11.3,14.4c2.6,8.9-0.9,17.6-9,21.9
	c-8.5,4.5-19.1,3.1-26.6-2.7c-8.4-6.4-7.5-13-2.6-19.1C512.8,189.2,521.2,181.7,533.1,182.9z M522,213.4c5.2-0.7,9.6-2.3,12.4-6.6
	c0.9-1.4,1.6-3.2,1.5-4.7c-0.5-4.8-6-8.6-10.4-7.6c-6,1.4-11.5,8.6-9.9,13.2c0.4,1.2,1.3,2.3,2.3,3.1
	C519.2,211.8,520.7,212.6,522,213.4z"/>
<path fill-rule="evenodd" clip-rule="evenodd" d="M629.4,582.2c-0.1-3.1-2.6-4.4-4.6-6.2l-0.4,0.4c4.1,0,5.2,2.4,4.9,6.1
	C629.3,582.5,629.4,582.2,629.4,582.2z"/>
<polygon fill-rule="evenodd" clip-rule="evenodd" points="614,571.3 614.1,572 613.3,571.7 "/>
<path fill-rule="evenodd" clip-rule="evenodd" d="M624.8,576c-0.8-0.6-1.6-1.2-2.5-1.8c0.3-0.1,1-0.4,1-0.4c0.4,0.8,0.8,1.7,1.1,2.6
	C624.4,576.4,624.8,576,624.8,576z"/>
<path fill-rule="evenodd" clip-rule="evenodd" d="M840.9,653.6c-0.4,2.8,0.3,6-2.6,8l0.2,0.1c0.3-2.8-1-6.2,2.6-7.8L840.9,653.6z"/>
<path fill-rule="evenodd" clip-rule="evenodd" d="M725,589.9c0.4-0.1,0.7-0.3,1.1-0.4c0.1,0.5,0.1,1,0.2,1.5c-0.4,0-0.8,0.1-1.1-0.1
	C725,590.7,725.1,590.2,725,589.9z"/>
<path fill-rule="evenodd" clip-rule="evenodd" d="M815.2,648.4c-1,1.9-2,3.8-2.9,5.7C812.6,651.8,812.4,649.4,815.2,648.4z"/>
<g>
	<path fill-rule="evenodd" clip-rule="evenodd" d="M290.8,580.1c-16,2.4-28.6,11.2-43.1,9.1"/>
	<path fill-rule="evenodd" clip-rule="evenodd" d="M716.2,556.7c13.2-5.1,25.2-2.7,41.1-3.5c-5,4.1-6.6,6.4-8.7,7
		c-6.9,2-13.9,3.5-21,4.8C722.5,565.9,718.8,563.7,716.2,556.7z"/>
	<path fill-rule="evenodd" clip-rule="evenodd" d="M635.3,568.7c14.5-9,26.5-7.3,38.7-6.8c-0.4,2.1-0.1,3.8-0.8,4.4
		c-8.1,7.2-18.7,3.1-27.8,6C643.6,572.9,640.9,570.8,635.3,568.7z"/>
	<path fill-rule="evenodd" clip-rule="evenodd" d="M341.9,579.9c10.2-5.8,20.4-6,32.9-4.6c-2.5,2.6-3.7,5-5.5,5.5
		c-6.3,1.7-12.7,2.9-19.1,4.1C347,585.5,343.7,585.5,341.9,579.9z"/>
	<path fill-rule="evenodd" clip-rule="evenodd" d="M575.9,571.6c-13.5,3.9-24.6,8.8-37.8,3.8c1.6-2.2,2.7-5,3.7-4.9
		C552.4,570.9,563.2,564.1,575.9,571.6z"/>
	<path fill-rule="evenodd" clip-rule="evenodd" d="M421.8,574.5c8.9-7,18.9-4.4,29.3-5.9c-1.2,10.3-9,8.9-14.3,11
		C430.5,582.1,425.5,580.9,421.8,574.5z"/>
</g>
<g>
	<path fill-rule="evenodd" clip-rule="evenodd" d="M742.8,706.1c15.8-3.1,28.1-12.4,42.7-10.9"/>
	<path fill-rule="evenodd" clip-rule="evenodd" d="M318.8,746.9c-13,5.7-25.1,3.7-40.9,5.2c4.8-4.3,6.3-6.7,8.4-7.4
		c6.8-2.2,13.8-4.1,20.8-5.7C312.1,737.9,315.9,739.9,318.8,746.9z"/>
	<path fill-rule="evenodd" clip-rule="evenodd" d="M399.1,731.5c-14.1,9.6-26.2,8.4-38.4,8.4c0.3-2.2,0-3.8,0.6-4.4
		c7.8-7.5,18.5-3.9,27.5-7.1C390.7,727.7,393.4,729.7,399.1,731.5z"/>
	<path fill-rule="evenodd" clip-rule="evenodd" d="M691.8,708.4c-9.9,6.2-20.1,6.9-32.7,5.9c2.4-2.7,3.5-5.1,5.2-5.7
		c6.2-2,12.5-3.4,18.9-4.9C686.5,703,689.8,702.9,691.8,708.4z"/>
	<path fill-rule="evenodd" clip-rule="evenodd" d="M458.3,726.2c13.3-4.4,24.2-9.8,37.6-5.4c-1.5,2.3-2.5,5.1-3.5,5.1
		C481.8,726,471.3,733.2,458.3,726.2z"/>
	<path fill-rule="evenodd" clip-rule="evenodd" d="M612.2,717.1c-8.6,7.3-18.7,5.2-29.1,7.1c0.7-10.3,8.6-9.3,13.9-11.6
		C603.2,709.8,608.2,710.8,612.2,717.1z"/>
</g>
<g>
	<path fill-rule="evenodd" clip-rule="evenodd" d="M320.4,893.2c-15.9,2.9-28.2,12.2-42.8,10.5"/>
	<path fill-rule="evenodd" clip-rule="evenodd" d="M744.8,856.1c13-5.6,25.1-3.5,40.9-4.9c-4.9,4.3-6.4,6.6-8.4,7.3
		c-6.8,2.2-13.8,4-20.8,5.5C751.4,865.1,747.6,863,744.8,856.1z"/>
	<path fill-rule="evenodd" clip-rule="evenodd" d="M664.4,870.7c14.2-9.4,26.3-8.2,38.5-8.1c-0.3,2.2,0,3.8-0.7,4.4
		c-7.8,7.4-18.6,3.7-27.6,6.9C672.8,874.6,670.1,872.6,664.4,870.7z"/>
	<path fill-rule="evenodd" clip-rule="evenodd" d="M371.4,891.3c10-6.1,20.2-6.7,32.7-5.6c-2.4,2.7-3.6,5.1-5.3,5.6
		c-6.2,1.9-12.6,3.3-18.9,4.7C376.7,896.8,373.5,896.9,371.4,891.3z"/>
	<path fill-rule="evenodd" clip-rule="evenodd" d="M605.1,875.5c-13.4,4.3-24.3,9.6-37.6,5c1.5-2.3,2.5-5.1,3.5-5
		C581.6,875.5,592.2,868.4,605.1,875.5z"/>
	<path fill-rule="evenodd" clip-rule="evenodd" d="M451.1,883.4c8.7-7.3,18.7-5.1,29.1-6.8c-0.8,10.3-8.7,9.2-14,11.5
		C460.1,890.7,455.1,889.7,451.1,883.4z"/>
</g>
<g>
	<path fill-rule="evenodd" clip-rule="evenodd" d="M734.6,426.2c16-2.2,28.7-10.9,43.2-8.6"/>
	<path fill-rule="evenodd" clip-rule="evenodd" d="M309,444.7c-13.3,5-25.2,2.4-41.1,3.1c5-4.1,6.7-6.3,8.7-6.9
		c6.9-1.9,14-3.3,21-4.6C302.8,435.4,306.6,437.6,309,444.7z"/>
	<path fill-rule="evenodd" clip-rule="evenodd" d="M390.1,433.5c-14.6,8.8-26.6,7-38.8,6.4c0.4-2.1,0.2-3.8,0.9-4.4
		c8.1-7.1,18.7-2.9,27.9-5.7C381.8,429.3,384.5,431.4,390.1,433.5z"/>
	<path fill-rule="evenodd" clip-rule="evenodd" d="M683.6,425.8c-10.2,5.7-20.4,5.8-33,4.2c2.6-2.6,3.8-5,5.5-5.4
		c6.3-1.7,12.7-2.8,19.1-3.9C678.6,420.1,681.8,420.2,683.6,425.8z"/>
	<path fill-rule="evenodd" clip-rule="evenodd" d="M449.5,431.4c13.6-3.7,24.7-8.5,37.8-3.4c-1.6,2.2-2.7,4.9-3.7,4.9
		C473,432.4,462.1,439,449.5,431.4z"/>
	<path fill-rule="evenodd" clip-rule="evenodd" d="M603.6,430.3c-9,6.9-18.9,4.2-29.4,5.5c1.3-10.2,9.1-8.8,14.4-10.9
		C595,422.5,600,423.8,603.6,430.3z"/>
</g>
</svg>
