<?xml version="1.0" encoding="utf-8"?>
<!DOCTYPE svg PUBLIC "-//W3C//DTD SVG 1.1//EN" "http://www.w3.org/Graphics/SVG/1.1/DTD/svg11.dtd">
<svg artist="zl2017" version="1.1" id="zlIcon-papers" xmlns="http://www.w3.org/2000/svg" xmlns:xlink="http://www.w3.org/1999/xlink" x="0px" y="0px"
	 width="1000px" height="1017px" viewBox="0 0 1000 1017" enable-background="new 0 0 1000 1017" xml:space="preserve">
<path fill-rule="evenodd" clip-rule="evenodd" d="M0.5,546.9c4.7-9.3,11.3-13.8,20.7-13.6c18.6,0.4,36.3-4.4,53.8-7.5
	c3-4.2,1.8-7.4-1.1-9.9c-15.6-13.3-29.9-28.3-49.6-36.2c-5-2-9.3-6.5-13.2-10.5c-1.6-1.6-1.4-4.9-2.4-8.8
	c15.4-3.3,29.9-6.4,44.3-9.5c14.4-3.2,29.2-5.4,42.7-13.8c-6.3-12.9-17.9-18.6-28.1-26c-9.7-7-19.6-13.8-28.2-23.6
	c5.8-11.5,14.2-18.8,26-23.3c25.3-9.7,51.5-15.6,77.9-21c25-5.1,49.9-10.7,75.5-12.7c14.8-1.1,29.5-4.1,43.9-7.6
	c27.7-6.7,55.9-9.5,84.1-12.2c11-1,16.3-5.7,19.1-16.1c5.9-22.6,11.7-45.3,19.4-67.3c7.4-21.4,16.6-42.2,26-62.8
	c17.4-38.2,41.7-72.4,65-106.9c12.2-18.1,27.5-34.2,41.6-51.1c2.2-2.6,5.3-4.5,7.6-6.4c9.5,1.7,14.1,8.2,18.4,14.6
	c5.8,8.5,13.5,14.2,22.3,19.3c35.4,20.4,72.9,34.7,113.3,41.6c30,5.1,59.7,11.8,89.7,16.7c40,6.5,80.4,10.9,120.8,7.1
	c27.3-2.5,55.1-3.7,81.9-11.1c2-0.6,4.4-1.2,6.2-0.6c2.4,0.8,4.8,2.3,6.2,4.3c0.6,0.8-0.9,3.9-2.2,5.2c-6.7,6.4-13.4,12.7-20.4,18.7
	c-16.4,14.1-27.2,32.7-39.3,50.1c-11.8,16.9-22.8,34.3-34,51.5c-23.4,36-41.1,74.5-51.4,116.3c-8.2,33.1-3.3,65.1,11.5,95.3
	c16,32.5,35.5,62.7,61.2,88.9c23.9,24.3,50.6,45.2,76.2,67.5c4.2,3.7,8.8,7.3,11.7,11.9c4.9,7.9-0.3,18.2-9.4,19.3
	c-6.3,0.8-12.8,0.6-19.1,1c-18.4,1.2-36.8,2.4-55.1,3.8c-4,0.3-7.9,1.7-12.6,2.7c3.7,19.3,14,31.8,29.2,40.9
	c7.1,4.2,9.8,9.9,5.9,18.7c-20.4,2.3-41.4,4.1-62.6,11c4.5,12.2,13.9,19.1,20.7,27.9c2.6,3.3,6.3,5.8,9,9c5.2,6.2,3.8,14-3,17.9
	c-1.8,1.1-3.8,1.9-5.8,2.7c-53.2,21.6-105.1,46.5-159.3,65.8c-22,7.8-44.4,14.7-66.3,22.6c-29.9,10.9-61.2,17.8-90.1,31.7
	c-10.8,5.2-22.4,9-33.9,12.7c-22.9,7.5-45.5,15.8-66.9,27c-4.4,2.3-9,4.2-13.5,6.2c-7.4,3.3-13.8,2.1-19-4.5
	c-7.5-9.4-15.4-18.6-22.6-28.2c-19.5-26.1-38.5-52.7-58.3-78.6c-14.7-19.1-30.1-37.8-49.6-52.4c-11.5-8.7-18.5-21.3-28.3-31.4
	c-19.8-20.3-39.8-40.4-60-60.2c-22.8-22.3-46.1-44.1-69-66.4c-17.7-17.3-35.2-34.9-52.5-52.8c-5.4-5.6-11-8.1-18.7-7.8
	c-18.5,0.9-36.9,1.2-54,9.1c-2.3,6.4,2.1,9.9,5.5,12.8c13,10.9,26.4,21.4,39.8,31.8c23.5,18.3,47.1,36.4,70.7,54.7
	c2.8,2.2,5.4,4.7,7.7,7.3c24.3,27.7,48.6,55.5,72.9,83.3c23.3,26.7,46.4,53.6,68.9,80.9c24.3,29.5,51,57,71.8,89.5
	c20.6,32.2,44.7,62.1,67.3,93c0.8,1.1,2.3,1.6,4.8,3.2c4.8-2.3,10.6-4.6,15.9-7.8c59.4-35,121.4-64.9,183.2-95.1
	c8.2-4,17-7,25.8-9.4c18.6-5.1,35.5-14.1,52.9-21.7c31.2-13.6,62.1-27.9,93.4-41c14.3-6,29.6-9.9,44.3-14.9c4.5-1.5,8.9-3.7,15-6.3
	c-5.9-8.8-11.2-16.5-17.9-26.5c5.5,0.3,8.8-0.5,10.5,0.8c7.9,6,15.4,12.5,22.8,19.1c1.9,1.8,3,4.8,3.7,7.5c1.1,4.5,0,8.7-4.4,10.8
	c-3.8,1.9-7.9,3-12,4.2c-16.3,4.9-33,8.5-48.8,14.6c-27,10.5-53.3,22.7-80.1,33.8c-23.6,9.7-47.2,19.5-71.2,28
	c-26.8,9.5-52.4,21.6-78,33.8c-21.8,10.3-42.6,22.9-65,31.6c-16,6.3-30.2,15.3-44.9,23.5c-11.7,6.5-22.1,15.2-33.2,22.8
	c-3.5,2.4-7,4.9-10.8,6.5c-5.2,2.2-9.7,0.5-13-4.1c-17.2-24.3-34.5-48.5-51.6-72.9c-9.3-13.3-18.3-26.9-27.4-40.3
	c-2-2.9-4.1-5.8-6.5-8.4c-13.2-14.8-26.9-29.2-39.8-44.3c-22.1-25.8-43.4-52.2-65.5-78.1c-15.6-18.3-31.8-36.1-47.7-54.2
	c-14.5-16.5-28.9-33.2-43.6-49.5c-6.6-7.3-13.4-14.7-21.1-20.9c-27.2-21.7-54.7-43-82.3-64.1c-10.7-8.2-22-15.5-33-23.3
	C8.1,553,4.5,549.9,0.5,546.9z"/>
<path fill-rule="evenodd" clip-rule="evenodd" fill="#FFFFFF" d="M958.1,594.1c-3.3-8.6-9.4-12.7-14.1-17.9
	c-24-26.1-52.3-47.8-76.4-73.9c-15.3-16.5-27.3-34.3-33.3-56c-3.4-12.3-7.6-24.4-10.6-36.8c-6-24.2-9.8-48.6-3.2-73.5
	c2.7-10.3,4.6-20.9,8.1-30.9c5.6-16,10.4-32.7,18.6-47.4c27.7-49.5,56.1-98.7,93.9-141.6c2-2.3,2.7-5.8,5.2-11.2
	c-28.8,6-55.4,9.4-82.3,5.8c-0.7-0.1-1.4-0.2-2.1,0c-19.2,3.9-38.1-0.5-57-2.8c-23.9-3-47.6-7.1-71.4-11
	c-35-5.8-70.1-11.4-103.9-22.8c-34.5-11.6-67.2-26.8-94.6-51.7c-1.9-1.7-4.8-2.3-7.8-3.6c-6.2,6.8-12.2,12.8-17.7,19.3
	c-23.3,27-40.5,58.1-59.9,87.8c-5,7.7-9.2,16-12.8,24.4c-12.9,29.9-25.6,60-38,90.1c-11.9,28.9-20.9,58.8-26,89.7
	c-2.4,14.6-5.1,29.8-3.7,44.3c1.7,17.8,1.7,35.4,1.9,53.1c0.2,18.6,2.8,36.9,8.5,54.4c10.8,33.1,24.7,64.8,43.3,94.4
	c10.2,16.2,21.3,31.8,32.5,47.3c20.1,27.7,44.8,51.2,67.1,76.8c9,10.4,19.7,20,32.3,27.3c6.8-3.5,13.1-6.7,19.3-10.1
	c27.5-14.8,55.4-28.6,84.5-40.2c29.7-11.8,59.5-22.8,90.2-31.9c57.8-17.2,116.3-31.8,175.9-41.3C935.5,602.7,946.8,601,958.1,594.1z
	"/>
<path fill-rule="evenodd" clip-rule="evenodd" fill="#FFFFFF" d="M482.3,843.8c3.7-2,7.2-4.7,11.1-6c28.3-9.6,54.8-23.1,81.4-36.4
	c11.4-5.7,23.3-10.1,35-15.2c7.8-3.4,15.6-6.8,23.3-10.4c24.3-11.5,48.1-24,72.8-34.5c27.3-11.6,55.4-21.5,83.2-32.1
	c11.2-4.2,22.4-9,34-12c26.1-6.6,51.9-14.2,78.6-18.4c3.3-0.5,8.8,0,10.1-7.6c-15.4-8.6-16.7-27.4-25.6-41.4
	c-12-2.1-23.2-0.8-34.3,1.9c-7.5,1.8-15,3.8-22.5,5.9c-25.9,7.3-51.6,15.2-77.7,21.7c-26.3,6.5-50.7,18.1-76.2,26.5
	c-37.9,12.5-73.5,29.8-107.9,49.7c-6.1,3.5-12.2,7.3-18.4,10.6c-12.5,6.7-20.1,5.3-26.8-6.5c-5.4-9.5-12.3-17.3-20.2-24.5
	C478,693,457.6,667.3,439,640.6c-31.3-44.9-58.6-91.9-72.5-145.8c-9-35.1-16.9-70.1-12.2-106.7c0.7-5.6,1.6-11.4,0.9-17
	c-1.7-12.9-0.8-25.4,2.2-38c0.7-2.8-1.2-6.2-2-9.6c-24.5,2.8-48,3.8-70.8,8.4c-39,7.9-78.6,10.9-117.8,17.1
	c-29.5,4.7-58.3,12.2-86.4,22.1c-3.2,1.1-6.7,2.6-6.9,8.4c2.1,2.4,4.5,5.9,7.6,8.6c11.6,10.5,23.4,20.7,35.1,31
	c5.8,5.2,13.3,9.4,17.1,15.8c9.1,15.1,22.2,26,35.7,36.1c17.8,13.3,33.4,28.8,48.2,44.9c26,28.1,53.1,55.1,77.1,85.1
	c19.4,24.3,40.8,47.2,60.1,71.6c23.7,29.9,46,61,69.5,91c13,16.6,27.4,32.2,41.4,48c8.4,9.6,17.3,18.9,17.8,32.7
	c-5.7-1.6-9.9-4.8-13.2-10c-4.2-6.6-8.9-12.8-13.8-18.8c-16.7-20.2-33.7-40.2-50.3-60.5c-40.3-49.4-79.5-99.9-121.1-148.3
	c-29.1-33.8-61-65.2-92.2-97.2c-9.3-9.6-20.1-17.9-30.5-26.4c-14.7-12.1-29.7-23.9-43.4-34.9c-11.2,1.1-20.4,1.4-29.5,2.9
	c-9.7,1.6-19.4,3.9-28.9,6.7c-8.2,2.5-18.6-0.5-25.2,9.5c5.8,4.6,11.6,8.6,16.6,13.3C62.7,491,72.4,502.5,84,511.7
	c12.1,9.5,22.5,20.8,34.7,30.2c13.4,10.3,25.7,22.4,37.3,34.9c36.6,39.5,78.6,73.6,114.8,113.5c12.3,13.6,26.7,25.3,37.8,40.2
	c3.8,5.1,8.5,9.5,13.4,13.7c27.2,23.1,50.7,49.4,70.9,78.9c17.2,25.1,35.8,49.3,54,73.7c3.7,4.9,8.5,9.1,12.2,13
	c18.8-7.7,36.5-15,54.2-22c30.4-11.9,60.8-23.8,91.2-35.4c50.9-19.5,102.9-35.8,153.4-56.6c40-16.5,79.3-34.5,118.6-52.5
	c3-1.4,5.5-3.7,9-6.2c-7.9-15.2-20.3-24.9-29-38.6c-14.2,4.2-27.9,7.6-41.2,12.2c-20.7,7.3-41.1,15.6-61.6,23.3
	c-16.6,6.2-33.7,11.2-49.7,18.8c-37.2,17.6-74,35.7-111.8,52.1c-29.3,12.7-57.9,26.9-86.9,40.2c-5.1,2.3-10.6,4-16.1,5
	C485.4,850.8,482.8,848,482.3,843.8z"/>
<path fill-rule="evenodd" clip-rule="evenodd" d="M618.7,318.2c-15.8,6.5-31.9,6-48.1,5.5c-10.4-0.3-17.5-4.8-23.1-12.9
	c-9.1-13.1-15.4-27-14.4-43.6c0.5-7.8,0.3-15.6-0.1-23.5c-1.7-36,34.5-70.7,71.1-70.2c21.1,0.3,41.2,1.3,58.2,16.4
	c14.7-2.7,29.2-3.1,44.2-1.2c14.7,1.9,23.6,9.7,30.1,20.8c6,10.4,10.3,21.8,9.7,34.4c-0.3,6.4,0,12.8-0.1,19.2
	c-0.5,28.4-23.4,72.5-58,85.2c-16.2,5.9-31.5,6.5-47.2-1.9c-7.3-3.9-12.6-9-16.5-16C622.6,327,621,323.1,618.7,318.2z"/>
<path fill-rule="evenodd" clip-rule="evenodd" fill="#FFFFFF" d="M674,198.1c-4.9,5.5-7.5,9.9-11.3,12.5
	c-13.4,9.5-20.5,23.3-26.1,37.8c-3.8,9.8-5.7,20.4-8.2,30.7c-4,16.8-0.1,32.4,7.9,47.1c8.7,16.1,29.1,22.2,45.7,14.4
	c38.3-17.8,57.6-62.1,50.3-105c-0.7-4.2-1.6-8.4-3.2-12.3c-5.1-12.7-13.9-21.3-27.9-23.2C692.2,199,683,198.8,674,198.1z"/>
<path fill-rule="evenodd" clip-rule="evenodd" fill="#FFFFFF" d="M612.7,309.3c2.1-12.3,3-22.2,5.6-31.6
	c4.2-15.7,8.7-31.4,14.6-46.5c3-7.6,9-14.2,13.9-20.9c2.3-3.2,5.4-5.8,8.6-9.1c-19.2-17.2-40.5-17.9-62.9-13.3
	c-16.3,3.4-28.8,12.6-36.4,26.9c-15.2,28.5-13.1,57.4,2.1,85.3c2.5,4.6,7.3,9.3,12.1,11.2C584.6,317.2,599.1,316.7,612.7,309.3z"/>
<path fill-rule="evenodd" clip-rule="evenodd" d="M660.5,414.3c2.8-2,6.1-4.3,9.8-6.8c4.1,1.7,7.9,3.6,11.9,4.7
	c12.4,3.5,20.3,0.4,26.5-11.1c2.7-4.9,3.8-10.6,6.2-15.7c1.1-2.4,3.4-4.4,5.6-6.1c2.8-2.2,7.9-0.4,8.8,2.8c0.7,2.7,1.8,5.7,1.2,8.2
	c-2.9,11.8-3.9,23.6-4,35.7c-0.1,6.9-3.9,11.6-10.1,11.6c-20.7-0.1-41.2-1.8-55.4-20C660.5,417.2,660.7,416.3,660.5,414.3z"/>
<path fill-rule="evenodd" clip-rule="evenodd" d="M673.4,265.3c0.4,5.1-5,10.3-10.9,10.8c-6.4,0.5-12.1-3.9-12-9.2
	c0.2-6.1,5.8-11.9,12.1-12.7C667.1,253.7,673,259.8,673.4,265.3z"/>
<path fill-rule="evenodd" clip-rule="evenodd" d="M589.6,253c-1,2.3-2.7,7.6-5.6,12.3c-3.3,5.5-9.7,6.8-14.8,4.1
	c-6.6-3.5-8.9-9.3-6.3-15.8c3.9-9.9,9.6-13.6,19.4-12.5C586.8,241.5,589.9,245.1,589.6,253z"/>
</svg>
