<?xml version="1.0" encoding="utf-8"?>
<!DOCTYPE svg PUBLIC "-//W3C//DTD SVG 1.1//EN" "http://www.w3.org/Graphics/SVG/1.1/DTD/svg11.dtd">
<svg artist="zl2017" version="1.1" id="zlIcon-pen" xmlns="http://www.w3.org/2000/svg" xmlns:xlink="http://www.w3.org/1999/xlink" x="0px" y="0px"
	 width="1000px" height="1144.6px" viewBox="0 0 1000 1144.6" enable-background="new 0 0 1000 1144.6" xml:space="preserve">
<path fill-rule="evenodd" clip-rule="evenodd" d="M40.1,393.4c11.8-9.9,21.4-4,30.6-3.8c2.8-3.9-0.6-5.1-2.7-6.7
	c-11.5-8.8-24.7-13.9-38.5-17.8c-2.9-0.8-6.3-0.5-8.7-1.9c-2.1-1.2-3.4-4.2-4.3-6.7c-0.2-0.5,3.1-3.2,4.8-3.2
	c4.4-0.1,9,0.3,13.2,1.4c9.4,2.4,18.9,3.1,30.6,3.1c-2.1-4.8-2.9-8.4-5-11c-13.5-17.2-24-36.2-34.6-55.2
	c-11.5-20.6-17.8-43-23.1-65.5c-5.1-21.9-0.1-41.9,20.4-55.1c5-3.2,10.2-6.3,15.5-8.9c9.1-4.6,15.5-11.5,19.9-20.6
	c10.3-21.7,19-44.1,23.9-67.6c5-24.2,14.8-45.5,33.7-62c3.3-2.9,7-5.7,10.9-7.6c14.3-6.7,29.2-7.8,37.1,14.9
	c2.5,7.1,5,14.1,7.3,21.3c2.5,8,6.6,14.6,12.1,21.2c11.9,14.3,22.6,29.7,33.8,44.5c3.2,4.1,6.7,8,10.1,12
	c6.3,7.4,13.5,14.2,18.8,22.3c15,22.8,34.5,41,54.9,58.8c13.3,11.7,28.9,21.1,39,36.7c3.5,5.4,10,8.9,15.2,13.2
	c22.1,17.9,42,38.7,67.2,52.6c10.5,5.8,21.1,11.4,32.1,16.1c7.7,3.3,15.2,6.3,20.8,14.3c-5.2,14.1-1.4,28.8,0.8,43.5
	c1.7,11.1,4.5,22,6.2,33.1c0.8,4.8,0.2,9.9,0.2,15.6c-3.8-0.6-6.7-0.2-7.9-1.4c-4-4.3-8.2-8.8-11-14c-17.1-30.1-38.4-57-60.9-83.2
	c-36.3-42.2-78.5-78.3-118.2-117.1c-13.9-13.6-27-27.9-40.8-41.6c-26.1-26-54.2-49.4-88.3-64.6c-3.4-1.5-7-2.7-10.5-3.8
	c-14.8-4.8-22.3-2.5-30.4,10.6c-4.7,7.6-8.6,15.9-11.6,24.2c-4.4,12.3-1.2,19.9,10.4,25.7c31.7,15.9,59.6,37.4,88.5,57.4
	c22,15.3,41.5,34.3,58.6,55.4c5.6,7,12.3,13.1,18.9,19.1c27.7,25.2,56.1,49.6,83.3,75.5c15.1,14.4,28.4,30.8,42.2,46.7
	c2.8,3.3,5.9,7.9,5.8,11.9c-0.2,14.1,9.9,21.6,18.3,29.6c35.7,34.2,72.2,67.6,108,101.8c15.2,14.5,28.7,30.7,44,44.9
	c21.4,19.9,39,43.3,60.3,63.2c48.9,45.6,91.9,96.4,132.9,149.1c12.9,16.5,27.4,31.8,41.6,47.2c32.4,35.2,65.4,70.1,97.5,105.6
	c6.4,7.1,10.9,16.3,14.5,25.2c2.1,5.1,2.1,12.3,0.2,17.4c-3.7,9.8-1,17,4.4,25.1c10,14.9,18.8,30.7,28.3,45.9
	c6.4,10.1,13.2,19.4,25.6,23.8c10.3,3.7,15.7,17.2,13.6,28.1c-1.6,8.7-9.7,14.1-18.4,12.2c-8.4-1.8-16.4-5.1-19.1-13.8
	c-2.1-6.5-5.7-10.7-11.5-12.7c-24.2-8.5-44.6-24.5-67.8-34.9c-9.5-4.2-18.3-9.5-29.5-9.3c-10.2,0.1-18.4-6.4-25.9-12.6
	c-9.2-7.6-17.5-16.4-26.3-24.5c-24.9-22.7-49.2-46.1-70.8-72.1c-1.9-2.3-4-4.6-6.5-6.2c-32.2-21.3-56.3-51.5-85-76.7
	c-8.4-7.4-16.8-15-24.8-22.9c-13.8-13.7-28.3-26.7-39.9-42.6c-7.4-10.2-17.5-18.5-26.6-27.4C523,765,499,741.4,474.7,718
	c-30.8-29.6-61.4-59.5-92.8-88.4c-20.9-19.2-43.2-36.9-64.5-55.7c-9.9-8.8-19.9-14.9-34.2-13.1c-11.5,1.4-21.7-2.9-30.9-10.7
	c-28-23.8-56.4-46.9-81.1-74.3c-5.4-5.9-12.4-12.2-19.7-14.2c-21.7-5.9-35.6-21.5-50.3-36.4c-2.6-2.7-4.9-5.7-6.9-8.9
	c-4.8-7.5-11.6-10.6-20.1-12.6C63.6,401.1,52.6,399.5,40.1,393.4z"/>
<path fill-rule="evenodd" clip-rule="evenodd" fill="#FFFFFF" d="M320.1,539.8c12.9,19.8,26.7,38.3,43.4,54.6
	c25.8,25,51.9,49.7,77.2,75.2c21.6,21.8,44.5,42.1,65.6,64.5c22.1,23.4,47,44,70.5,66.2c10.3,9.8,19.9,20.3,30,30.4
	c16.9,17,33.8,34,51,50.7c11.3,10.9,23.1,21.3,34.7,31.8c17.8,16,37.8,29.5,53.8,47.6c29,32.6,63.7,59,96.7,87.3
	c5.5,4.8,12.1,8.3,18,12.2c3-1.9,5.2-2.7,6.6-4.3c12.4-15.1,26.2-28.8,40.8-41.7c4.4-3.9,8.8-8.4,8.1-13.3
	c-14.5-29.9-37.4-50.7-58.5-73c-18.1-19-37.6-36.5-53.7-57.4c-18.2-23.7-43.2-41.5-58.8-67.5c-24-20.6-41.7-47-63.1-69.9
	c-27.1-29-53-59.1-80.3-87.9c-28.8-30.5-58.4-60.2-87.9-89.9c-13.8-13.8-28-27-42.8-39.7c-18.2-15.6-37.2-30.2-55.7-45.3
	c-5.9-4.8-12.2-8.6-20.4-8.6C363.3,479.8,338.1,504.6,320.1,539.8z"/>
<path fill-rule="evenodd" clip-rule="evenodd" fill="#FFFFFF" d="M399.8,429.8c-3.5-5.5-6-11.1-10-15.4
	c-14.9-15.8-29.9-31.5-45.6-46.5c-19.5-18.6-40.2-36-59.6-54.6c-12.9-12.4-24-26.7-36.9-39.2c-17.2-16.6-34.2-33.7-53.3-48
	c-22.7-17-48-30.6-71.4-46.7c-17.2-11.8-35.8-14.4-55.7-12.7c-9.9,0.8-14.9,5.5-16.3,15.2c-1.5,10.4,0.2,19.5,10.8,24.6
	c12.6,6.2,21.5,16.4,28.3,28.1c6.4,11,10.2,23,7.4,36.1c-8.9-1.4-8.9-1.4-10.6-5.9c-7.2-19.8-15.7-26.1-36-26.3c-3,0-6,0.1-9,0.5
	c-11,1.9-15.8,11-11.7,21.8c8.1,21.2,20.8,39.9,33.8,58c7.5,10.5,14.5,22.7,27.6,29.1c1.7-0.6,4-1.1,5.8-2.2
	c2.5-1.4,4.8-3.4,7.4-5.3c-2.6-17.2,4.2-31,14.8-43.5c-1.2-6.3-2.7-12.1-3.3-18c-1.1-11.1-2-22.3-2.4-33.5c-0.1-2.7,1.6-5.6,2.9-8.2
	c0.5-1,2.7-2,3.7-1.6c1.8,0.6,4.8,2.2,4.8,3.4c0,5.2-1.6,10.4-1.3,15.5c0.5,9.2-0.3,19.2,9.9,26.9c2.5-14.4,3.1-27.6,8.4-39.2
	c7.3,0.4,10.3,3.6,9.1,8.8c-2.2,9.6-3.8,19.1-1.6,28.8c1.8,8.1,5,14.2,12.5,19.9c18.3,13.9,35,29.8,46.5,50.6
	c6.5,11.8,9.1,23.4,8.5,36.5c-1.1,21.7-4.3,25.6-23.2,29.7c-1.3,0.3-2.3,1.7-4.5,3.4c-0.4,5.8-0.1,12.6-1.6,19
	c-1.7,7-5.1,13.7-7.8,20.5c1.4,2.1,2.4,4.1,3.9,5.7c23.8,26.6,52.6,46.4,83.6,63.5c4.6,2.6,9.3,5.1,14.2,6.7
	c10,3.2,19.4,1.6,26.5-6.7c6.3-7.4,13-14.7,17.8-23.1c9.2-15.9,21.5-28.7,36.2-39.4c6.7-4.8,13.5-9.4,20.2-14.3
	C389.9,446.9,397,441.3,399.8,429.8z"/>
<path fill-rule="evenodd" clip-rule="evenodd" fill="#FFFFFF" d="M115.8,333.9c-1.4,7.4,5.5,15.1,8.5,24.1
	c6.8,20.4,23.5,30.7,39.5,41.3c6.9,4.6,17.1,5.4,25.9,5.6c13.4,0.3,19.4-6.9,18.1-19.9c-0.6-5.9-2-11.9-4.2-17.4
	c-8.1-19.7-20.1-36.9-36.1-50.9c-5.4-4.8-12.4-8.4-19.3-10.8C131.5,299.9,115.2,312.7,115.8,333.9z"/>
<path fill-rule="evenodd" clip-rule="evenodd" fill="#FFFFFF" d="M108.8,353c-3.4,1.6-4.9,2-6,2.9c-1.8,1.3-3.6,2.7-4.9,4.5
	c-11.1,15.2-8.7,31-0.5,46.3c9.5,17.7,25.8,28.9,42.5,38.4c9.4,5.2,21.1,9.5,31.7,1.2c9.5-7.5,8.9-18,6.9-29.6
	C147.8,404.6,125.2,383.1,108.8,353z"/>
<path fill-rule="evenodd" clip-rule="evenodd" d="M401.7,577.6c2.6,1.1,6.1,1.5,7.7,3.4c5.5,6.7,10.4,14,15.6,21.3
	c-2.4,0.8-4.2,1.9-4.7,1.5C411.2,597.1,404,589,401.7,577.6L401.7,577.6z"/>
<path fill-rule="evenodd" clip-rule="evenodd" d="M374.6,577.6c11.9,4.4,15.2,16.2,22.7,24.3C382.5,592.5,382.5,592.5,374.6,577.6
	L374.6,577.6z"/>
<path fill-rule="evenodd" clip-rule="evenodd" d="M374.6,577.5c-14.1-9.4-19.2-16.2-18.4-24.4C365.1,560.3,366.8,562.6,374.6,577.5
	L374.6,577.5z"/>
<path fill-rule="evenodd" clip-rule="evenodd" d="M401.7,577.6c-10.4-0.6-13.6-8.4-19.3-18.6C395.1,562.1,398.3,569.9,401.7,577.6
	L401.7,577.6z"/>
<path fill-rule="evenodd" clip-rule="evenodd" d="M404.9,611.9c2.9,2.7,5.7,5.4,9.1,8.6C406.9,622.3,405.9,617.1,404.9,611.9z"/>
<path fill-rule="evenodd" clip-rule="evenodd" d="M264.1,386.1c8.1,0,12.8-1.4,14.5,0.2c10,9.9,20.1,19.9,28.8,31
	c8.4,10.7,5.7,21.1-6.1,28.2c-5.1,3-10.7,5.2-16.3,7.1c-5.3,1.9-10.2,0.7-14.1-5.1C287.1,428,283.4,408.6,264.1,386.1z"/>
<path fill-rule="evenodd" clip-rule="evenodd" d="M182.2,376.9c0.9,6.3-3,10.7-7.4,10.8c-4.5,0.1-7.3-3.2-7.6-8.9
	c-0.2-4.2,1.8-7.9,6-7.2C176.8,372.2,180,375.5,182.2,376.9z"/>
<path fill-rule="evenodd" clip-rule="evenodd" d="M156.2,429.6c-4.5,2.4-7.4,5.2-10.3,5.2c-4.4,0.1-7-4.9-6.4-10.1
	c0.4-3.7,5.1-7.7,7.6-5.9C150.3,421.1,152.4,424.9,156.2,429.6z"/>
<path fill-rule="evenodd" clip-rule="evenodd" fill="#FFFFFF" d="M878.5,1068.8c23.4,17.2,63.1,33.7,84.2,35.6
	c-15.1-24.6-27.5-50.6-46.3-72.9C900.6,1041.5,889.8,1054.4,878.5,1068.8z"/>
<path fill-rule="evenodd" clip-rule="evenodd" d="M924.9,1078.1c-23.8-4.1-30.4-9.2-28.1-20.3
	C905.3,1063.9,913.4,1069.8,924.9,1078.1z"/>
</svg>
