<?xml version="1.0" encoding="utf-8"?>
<!DOCTYPE svg PUBLIC "-//W3C//DTD SVG 1.1//EN" "http://www.w3.org/Graphics/SVG/1.1/DTD/svg11.dtd">
<svg artist="zl2017" version="1.1" id="zlIcon-pencil-menium" xmlns="http://www.w3.org/2000/svg" xmlns:xlink="http://www.w3.org/1999/xlink" x="0px" y="0px"
	 width="1000px" height="845.5px" viewBox="0 0 1000 845.5" enable-background="new 0 0 1000 845.5" xml:space="preserve">
<path fill-rule="evenodd" clip-rule="evenodd" d="M130.9,368.6c-6.3,12.7-15.7,11.8-25.8,7.9c-3.7-1.4-7.3-3.3-11-4.8
	c-17-6.4-22.5-19.4-21.2-36.5c0.1-1.3,0.4-2.6,0.7-3.9c1.5-5.3-0.7-9.3-4.5-12.3c-5.2-4.1-10.6-8.2-16.2-11.7
	c-27.5-17-41.1-42.5-45.4-73.6c-1.7-12.5-2.9-25-5.2-37.4C-0.9,179,0.7,162,2.9,144.8c2.4-19.2,4.7-38.3,12.4-56.2
	C23.7,69,31.6,49.2,41,30.2C50.8,10.2,67.2-1,90.4,0.1c12.1,0.6,23.6,3.5,34.3,9.6c21.4,12.1,43.9,22.7,64.1,36.5
	c20.2,13.8,41.9,26,58.9,44.2c4.7,5,9.8,8.1,17,9.2c12.8,2,23.4,8.4,30.6,20c3.1,4.9,7.6,9.3,12.2,12.8c31.1,24.1,60,50.7,90.5,75.3
	c39.4,31.8,76,66.6,114.5,99.4c18.7,15.9,38,31.2,56.9,46.9c24.6,20.4,48.9,41.1,73.6,61.3c36.1,29.4,71,60.1,108.4,88
	c23.5,17.4,45.7,36.5,68.6,54.7c10.9,8.7,21.9,17.4,33.1,25.7c5,3.7,8.4,8.1,11.1,13.7c10.1,20.9,20.5,41.8,31.1,62.5
	c9.2,17.7,19,35,28.2,52.7c5.5,10.6,10.3,21.6,15.3,32.4c10.5,22.4,22.7,43.6,39.7,61.9c5.5,5.8,10.4,12.1,15.4,18.4
	c2,2.6,3.7,5.5,5.1,8.5c1.8,4-0.1,8.7-4.1,9.6c-5.7,1.4-11.2,3.1-17.6,1.2c-12.7-3.9-25.6-7.1-38.4-10.3c-6.5-1.6-13-2.7-19.5-4.1
	c-27.4-5.5-55-8.9-83.1-7.6c-5.3,0.2-10.6-0.6-15.9-1.1c-2.6-0.2-5.2-1.1-7.9-1c-16.6,0.7-33.1,1.8-49.7,2.5
	c-12.6,0.4-25.2,0.4-37.8,0.2c-11.7-0.2-22-4.1-31-11.9c-21.6-18.7-43.3-37.2-65.3-55.5c-9.7-8-20.3-15.1-30.2-22.8
	c-12.6-9.7-25-19.7-37.5-29.7c-26.4-21.1-51.4-44-78.8-63.8c-14.5-10.4-27.5-22.9-41.4-34.1c-6.6-5.3-11.7-13.1-21.4-13.8
	c-1.2-0.1-3.1-0.8-3.4-1.7c-5.2-14.7-20.4-18.3-30.6-27.5c-10.3-9.3-22.2-17-33.5-25.3c-35.9-26.3-71.7-52.8-108-78.6
	c-14.5-10.3-28.8-21.1-45.3-28.4c-8.5-3.7-15.3-10.8-20.3-18.8C167,393.3,150.6,381.1,130.9,368.6z"/>
<path fill-rule="evenodd" clip-rule="evenodd" fill="#FFFFFF" d="M393.7,220.8c-6.8-5.9-11.6-13.3-20.3-15.5
	c-7.6,6.7-12.4,9.9-18.6,11.5c3.4-7.2,6.3-13.5,9.6-20.6c-8.2-5.9-15.6-11.2-23.5-16.9c-5.2,6-9.3,11.1-13.8,15.9
	c-1.7,1.9-4,3.7-7.5-0.1c4.6-7.3,9.4-14.8,14.7-23.2c-7.3-6.3-13.8-11.9-20.2-17.4c-20.2,6.6-28,27.6-45.8,36.3
	c0.7-3.4,1.9-6.4,4-8.6c8.2-8.7,16.8-17.1,25-25.7c2.6-2.7,4.7-6,7.6-9.7c-5.5-4.3-10.2-7.8-14.4-11.1c-6.4,2.8-11.8,5.4-17.3,7.4
	c-40.4,14.6-69.6,42.8-94.2,76.8c-17,23.4-28.6,49.6-38.3,76.5c-7.1,19.8-11.5,40.9-6.5,62.5c8.7,5.2,15.7,12.3,26.7,16.6
	c-2.4-40.2,13.9-68.4,49-84.4c0.5-3.6,1.2-6.2,1.2-8.8c-0.2-16.8,9-30.4,16.2-44.4c2.8-5.4,9.2-9.3,14.7-12.7c5-3.1,11-4.7,16.5-7
	c7.6-3.2,15.6-3.7,23.5-2c21.1,4.3,38.8,14.3,49.9,33.3c6.7,11.4,12,23.7,18.2,35.4c8.1,15.3,7.9,30.7,1,46.1
	c-9.5,21.2-22.7,37.6-49,36.7c-4.3-0.2-8.7,1.2-12.7,1.8c-0.8,7.8-1.3,14.4-2.2,21c-2.3,17.6-10.4,31.3-27.2,39
	c-6.4,2.9-12.7,6.1-20.3,9.8c15.8,13.9,31.6,25.6,48.7,35.5c5-3.5,9.2-6.7,13.6-9.4c1-0.6,3.2,0.6,5.6,1.2c-2.9,6-5.4,11.1-8.3,17.2
	c11.3,8.4,21.8,16.2,31.6,23.5c5.5-2.4,9.3-4.1,15.3-6.7c-0.9,6.6-1.5,10.9-2.1,15.4c5.3,5.2,10.4,10.3,17.2,12.5
	c16.6-15.5,16.6-15.5,25.7-16.6c-2.2,10.1-13.6,15.1-13.8,25.6c3.8,7.4,9.2,11.7,16.8,11.9c9.5-3.8,13.5-14.7,24-16.5
	c2.5,11.7-11.5,14.8-11.3,26.2c5.9,4.1,12.3,8.5,18.6,12.9c6-2.8,11-5.2,19.5-9.3c-3.7,7.9-5.8,12.3-8.1,17
	c6.2,7.4,13.2,13.1,22.4,15.4c8.1-3.2,11.5-13.4,23.2-13.6c-5,8.5-9.2,15.5-14.6,24.8c10.1,3.9,14.4,14.9,23.9,17.6
	c7.8-1.8,9.9-10.4,19.6-10.3c-3.3,7.1-5.8,12.7-8.8,19.3c6.7,4.4,12.6,8.3,17.2,11.3c9.8-1.7,12.8-12.2,23.6-11.1
	c-4.3,7.2-7.9,13.2-11.9,20c6.3,7.9,12.7,15.2,22.1,20.3c6.1-4.4,11.9-8.7,17.8-12.8c0.6-0.4,2.2,0.6,4.5,1.4
	c-3.1,5.8-6,11.4-9.2,17.3c4.3,7.8,9.9,13.8,17.4,16.6c7.2-2.6,9.6-10.8,19-9.8c-3.7,7.2-7.2,13.8-10.8,20.9
	c7,5.4,13.1,10.1,18.9,14.6c16.5-12.7,16.5-12.7,24.9-13.8c-4.9,7.8-9.3,14.8-13.9,21.9c5.2,6.7,10.3,11.5,17.4,13.9
	c6.5-5.7,12.3-10.9,18.4-16.1c2-1.7,4.3-3.2,6.6,0.2c-3.2,9.2-14.9,13.9-13.8,26c3.7,5.2,8.2,9.6,15.8,11.2
	c5.2-5.5,10.1-10.9,15.3-16c1.7-1.6,4.2-3.4,6.2,0.2c-2.6,9-12.2,14.2-13.5,24.5c3.7,5.4,7.4,10.8,17.5,12.8
	c0.9-1.4,2.5-4.4,4.6-7.1c3.3-4.1,6.8-8.2,10.7-11.8c1.7-1.5,4.5-2.5,6.6-2.4c2.5,0.2,2,4.9-1.1,8.4c-3.1,3.4-6.7,6.5-9.6,10.1
	c-2.5,2.9-4.2,6.5-6.4,9.8c4.5,6.1,9.6,9.7,16.6,10.8c13-15.4,30.5-23.6,48.6-33.1c-3.9-2.9-6.4-5-9-6.8
	c-14.7-10.1-29.8-19.9-44.2-30.4c-44.1-32.1-88-64.3-131.8-96.8c-13.3-10-25.7-21.1-38.7-31.5c-38.9-31.2-77.8-62.4-116.7-93.6
	c-1.5-1.2-3-2.9-3.5-4.7c-0.6-1.6-0.4-4.1,0.6-5.3c1-1.3,3.7-2.5,5-2c3,1.1,6,2.9,8.4,5c6.5,5.6,12.7,11.7,19.3,17.3
	c25.6,21.3,51.2,42.5,76.9,63.6c26.2,21.6,54.7,39.9,81.5,60.9c36,28.3,74.9,52.9,112.5,79.1c15.8,11,32.7,19.8,53.4,27
	c8.8-27.2,30.7-43.7,52-61.8c-3.6-4.3-6.3-8-9.5-11.2c-34.6-35.1-71-68.3-107.9-100.9c-10-8.7-19.7-17.8-29.5-26.7
	c-12.9-11.5-25.7-23.1-38.6-34.6c-8-7.1-15.8-14.3-24-20.9c-18.1-14.7-36.7-28.7-54.4-43.7c-40.2-34-81.1-66.8-125.4-95.3
	c-9.5-6.1-18.3-13.1-27.1-20.2c-1.2-1-1.3-5.4-0.1-6.9c1.1-1.6,5.2-3,6.6-2.2c5,3,9.3,7.3,14.3,10.7C467.3,366,506.7,393,544,423
	c21.7,17.5,43.5,34.9,64.8,53c16.7,14.1,32.4,29.5,49,43.9c24.6,21.3,49.4,42.5,74.6,63.1c23.2,19,46.8,37.4,70.5,55.6
	c6.1,4.7,12.2,10.1,19.8,10.9c7.9-14.4,15.3-27.6,22.5-41c0.6-1,0.2-2.5,0.5-5c-3.7-3.2-8-6.9-13.1-11.1c-5.5,6.3-10.1,11.6-15.8,18
	c-3.6-11.5,7.8-16.2,7.9-25.5c-4.7-6.3-10.1-12.6-19.2-15.6c-3.4,4.1-6.3,7.7-9.2,11.2c-2.7,3.3-0.9,9.8-8.1,10.6
	c-5-12.2,8.2-18.6,9.4-29.4c-1.8-2-3.7-4.8-6.1-6.9c-3-2.5-6.5-4.5-8.5-5.9c-12.3,0.9-10.4,15.7-20.4,18.2
	c-6-13.9,10.5-18,10.9-28.8c-4.1-5.3-8.4-10.1-15.7-10.4c-1.9,1.5-3.6,2.6-4.9,4.1c-4.2,4.9-8.3,9.9-12.8,15.3
	c-6.6-13.9,10.8-18.9,10-30.7c-4.4-4.5-8.5-9.8-16.4-9c-7.3,2.6-8.6,12.6-19.7,16.5c5-10.5,8.6-17.9,12.6-26.2
	c-5.2-3.7-9.9-6.9-15-10.5c-3.5,4-5.8,7.4-8.8,9.8c-2.6,2.1-2,8.7-8.2,6.1c-0.6-8,5.7-13,8.2-19.6c0.4-1.1,0.1-2.5,0.1-4.4
	c-1.8-1.5-3.6-3.4-5.8-4.8c-2.1-1.4-4.5-2.2-4-2c-10.8,0.2-11.1,11.9-20.6,11.3c-1.2-9.1,7.6-12.8,9.1-21.2
	c-4.5-3.6-7.8-9.6-16.2-10.9c-5.2,4.6-10.9,9.6-17.9,15.8c-0.4-4-1.4-6.2-0.6-7.5c2.8-4.5,6.2-8.6,9.2-13c0.7-1,0.5-2.5,0.9-4.8
	c-3.4-3.1-7.3-6.5-11.8-10.4c-5.4,4.7-10.1,8.8-15.7,13.7c-3.5-9.3,6.2-13.9,5-22.6c-4.4-3.4-9.5-7.3-13.7-10.6
	c-9.3,2.6-10,14-19,14.4c-0.7-1-1.5-1.8-1.4-2.1c3.1-6.4,6.4-12.8,10-20c-6.2-6.1-11.4-13.9-22.1-15.7c-3.3,4.5-6.3,8.8-9.7,12.9
	c-2.1,2.6-4.4,1.9-6.8-1.4c3.6-6.5,7.3-13.3,11.4-21c-5.9-4.3-11.1-8.1-17.4-12.7c-5,5.9-9.2,10.9-13.5,15.8c-1.8,2-3.8,4-7.8,0.6
	c3.7-7,7.7-14.3,11.7-21.8c-3.1-6.2-7.7-10.5-15.1-12.7c-5.5,5.3-10.9,10.5-17,16.3c-5.3-12.2,7.7-17.1,7.5-26.3
	c-4.7-4.9-8.9-10.2-17.3-10.8c-2,1.9-4,4.6-6.6,6.4c-3,2-3.3,7.9-10.1,5.9c-1.7-8.4,7.8-13.1,8.4-22.5c-5.3-4.9-11.5-10.6-17.4-15.9
	c-9,2.1-10.2,13.6-21.3,13.1c3.9-7.5,7.4-14.1,10.6-20.4c-6.8-8.2-6.7-8.3-16.6-12.6c-5.7,6-11.5,12.2-17.5,18.2
	c-0.5,0.5-2.2-0.3-4.8-0.8c5.8-9,11.4-17.6,17.9-27.8c-9.3-5.2-14.9-13.6-24.5-16.6c-9.7,4.5-12.1,14.9-21.1,20.8
	c-1.7-13.3,12.1-19.3,12.4-31.2c-6.3-5.4-11.4-12.4-20.9-15.7c-6.9,5.8-13.6,11.5-20.4,17.3c-0.6-0.5-1.3-1-1.9-1.6
	C384.5,237.3,388.6,230,393.7,220.8z"/>
<path fill-rule="evenodd" clip-rule="evenodd" fill="#FFFFFF" d="M105.2,232c7.1-11.6,13.6-22.4,20.2-33.1c-1.3-2-2-4-3.4-5.3
	c-13.8-12.8-23.7-28.7-34.2-44c-10.6-15.4-18-32.5-21.9-51c-0.7-3.8-1.2-7.9-1.2-11.8c0-1.5,2-4.3,3-4.3c2.3,0,5.2,0.9,6.8,2.4
	c1.8,1.7,2.8,4.5,3.4,7.1c3.3,14.9,12.5,26.4,21.7,37.7c6.3,7.7,13.8,14.5,20.4,21.9c7.6,8.5,16.7,14.6,27.6,18.9
	c5.9-7.4,16-10.1,19.5-20c-15.6-16.3-27.5-34.6-36.1-55c-1.8-4.1-5.5-8.1-1.6-12.8c2.4-2.9,7.7-0.1,11.9,7.4
	c11.1,20,28.8,32.5,46.6,44.2c7.9-2.2,13.3-5.5,16-12.2c-1.3-7.5-7.6-10.8-12.2-15.4C173.3,88.2,154,71,131.2,58.3
	c-2.8-1.6-5.7-3.5-8.2-5.6c-3.3-2.8-2.7-5.4,2.2-10.9c12.9,4.8,26.3,8.2,37.6,17.1c20.3,16,41.5,31,62.3,46.4c1,0.8,2.2,2.1,3.3,2.1
	c3.2,0.1,7,0.6,9.3-0.9c3.6-2.4,1.5-6.2-0.9-8.4c-8-7-16.3-13.7-24.6-20.3c-4.7-3.7-9.8-6.8-14.7-10.2
	c-25.3-17.5-51.9-32.4-80.1-44.6c-7.9-3.4-16.3-5.6-24.5-8.6c-10.7-4-20-1-27.4,6.6C59,27.8,52.7,35.1,48.6,43.2
	c-14.3,27.9-26.8,56.6-29.5,88.4c-1.8,21.2-3.9,42.4-3.9,63.6c-0.1,22.2,5.5,43.6,16.3,63.1c10.5,18.8,26,31.1,49,33.1
	c3.3-8,7.4-14.9,7.2-22.7c-39.1-48.2-57.1-92.7-49.8-124c7.4,1.4,9.5,7.9,10.1,13.1c2,17.3,10.9,31.1,20.2,45
	C76.9,215.9,88,225.9,105.2,232z"/>
<path fill-rule="evenodd" clip-rule="evenodd" fill="#FFFFFF" d="M718.7,810.7c7.2,0.6,10.4,1.2,13.5,1.1
	c21.3-0.2,42.5-0.9,63.8-0.9c29.3,0.1,58.5-1.5,87.8,1.5c11.9,1.2,23.8,2.9,35.7,3.7c10.9,0.8,14.3-2,16.8-12.6
	c3.4-14.2,0.1-27.7-5.3-40.7c-4.3-10.4-9.2-20.8-14.8-30.5c-19.5-33.4-35.1-68.6-52.2-103.1c-1.4-2.9-3.6-5.3-5.8-8.4
	c-10,7.1-14.6,16.3-16.5,26.9c-2.2,11.9-3.6,23.7,1.7,35.3c1.5,3.4,2,7.2,3.1,11.1c-8.6,4.5-16.5,8-23.7,12.7
	c-22.8,14.6-39.8,33.2-40.5,62.3c-0.2,6.2-3.3,9.7-9.3,11.2c-6.4,1.6-12.8,3.6-19,5.7C741,790.3,730.2,797.5,718.7,810.7z"/>
<path fill-rule="evenodd" clip-rule="evenodd" fill="#FFFFFF" d="M294.5,355.7c28.4,0.6,50.7-24.9,47.6-48.9
	c-1.5-11.3-5.5-21.7-9.5-32.3c-6.2-16.2-17.3-28.5-31.8-37c-15.9-9.4-32.1-13.2-50.5-2.2c-12,7.2-17.8,17-22.9,28.5
	c-2.3,4.9-2.4,9.6-2,15.2c1.4,16.2,11.4,28,19,40.9c7.6,12.9,19.1,22.1,31.9,29.3C282.9,352.9,290.9,354.5,294.5,355.7z"/>
<path fill-rule="evenodd" clip-rule="evenodd" fill="#FFFFFF" d="M115.9,358.4c1.2-6.5,2.2-13.1,3.4-19.5
	c4.7-22.7,9.5-45.2,18.5-66.9c7.7-18.6,18.3-35.3,28-52.7c19.9-35.9,45-67.2,80.4-89.3c7.8-4.8,15.5-9.7,25.1-15.7
	c-4.9-2.1-8-4.9-10.6-4.3c-6.3,1.4-12.7,3.7-18.6,6.5c-13.7,6.7-26.6,14.6-39.1,23.4c-17,11.9-33.2,24.5-46.3,40.5
	c-8.7,10.8-16.4,22.5-24.3,33.9c-21.8,31.6-35.2,66.8-44.4,103.8c-1.1,4.5-1.7,9.1-2.1,13.7c-1.6,20.7,4.5,27.3,25.7,28.2
	C112.3,360,112.9,359.6,115.9,358.4z"/>
<path fill-rule="evenodd" clip-rule="evenodd" fill="#FFFFFF" d="M274.7,363.1c-5.2-3.3-9.8-5.8-14-9c-4.2-3.2-8.3-6.7-11.7-10.7
	c-6.4-7.6-12.2-15.6-18.2-23.4c-8.3-10.9-22.4-13.7-33-6c-19.7,14.3-27.3,45.4-23.4,64c3.4,16.2,13,27.6,25.2,36.9
	c9.4,7.2,20.5,13.7,33.1,11.7C260.1,422.3,288.4,398.4,274.7,363.1z"/>
<path fill-rule="evenodd" clip-rule="evenodd" d="M359.2,467.5c-1-0.4-4.3-1.2-6.9-3c-3.1-2.1-3.7-5.6-1.2-8.6
	c2.9-3.5,6.9-6.3,9.5-10c7.6-11.1,13.1-23.1,14.4-36.7c0.8-7.8,1.8-15.7,2.9-25c3.7,0.7,8,0.1,9.4,1.9c9,11.4,18.1,23,26,35.2
	c5,7.7,3.6,13.2-3.6,19.2c-4,3.3-8.8,5.8-13.5,8.2C384.4,454.8,372.6,460.7,359.2,467.5z"/>
<path fill-rule="evenodd" clip-rule="evenodd" d="M267.1,303.7c-0.2-15.8,14.1-26.7,26.6-21.1c6.8,3,10.3,8.2,10.3,15.5
	c0.1,9.5-5.2,17.9-12.8,20.8c-2.5,0.9-5.2,1.3-7.7,1.5c-8.9,0.7-13.9-3-15.7-11.6C267.3,306.9,267.2,304.9,267.1,303.7z"/>
<path fill-rule="evenodd" clip-rule="evenodd" d="M227,392.5c-10.1,0.1-17.4-7.9-18.1-19.5c-0.6-8.7,10.3-18,20.5-17.6
	c10.4,0.4,19.1,9.1,19,19C248.2,385.9,240.6,392.4,227,392.5z"/>
</svg>
