<?xml version="1.0" encoding="utf-8"?>
<!DOCTYPE svg PUBLIC "-//W3C//DTD SVG 1.1//EN" "http://www.w3.org/Graphics/SVG/1.1/DTD/svg11.dtd">
<svg artist="zl2017" version="1.1" id="zlIcon-pencil-square-mini" xmlns="http://www.w3.org/2000/svg" xmlns:xlink="http://www.w3.org/1999/xlink" x="0px" y="0px"
	 width="1000px" height="1073.2px" viewBox="0 0 1000 1073.2" enable-background="new 0 0 1000 1073.2" xml:space="preserve">
<path fill-rule="evenodd" clip-rule="evenodd" d="M990.8,0c9.9,10.1,10.8,20.5,5.6,30c-10.3,18.6-13,39.2-17.7,59.2
	c-6.3,25.7-9.9,51.4-7.3,78.5c3,32,0.3,64.4,1.1,96.7c0.3,13.6,2.9,27.2,4.5,40.8c1.9,16,4.3,31.9,5.9,47.9
	c1.7,17.1,1.6,34.6,4.7,51.5c3.1,16.5-2.3,29.2-12.6,40.9c-43.1,49.2-85.5,98.8-119.1,155.6c-14.3,24.5-29.7,49.3-52.5,68
	c-2.5,2.1-5.1,4.8-6.5,7.8c-16.3,36.4-44.9,63.6-71.8,91.3c-31.5,32.5-56.2,69.8-81.5,106.6c-38.1,55.9-74.3,113.1-102.5,174.9
	c-1.9,4.2-4.4,8.1-7.1,11.7c-7.8,9.9-16.8,14.2-30.1,10.7c-17.7-4.7-35.9-8.7-54.1-10.8c-29.6-3.4-59.5-6.6-89.2-6.8
	c-26.7-0.2-49.2-8.1-70.4-23.5c-25.1-18.2-50.3-36.1-76.7-52.5c-28.3-17.6-57.7-33.2-89.7-51.6c-5-13.6-10.8-31.1-17.7-48
	c-15.4-37.5-39.7-69.7-63.6-102c-10.9-14.8-23-28.8-33.5-44c-11.7-16.8-11.4-27.8,1.3-43.5c22.3-27.7,45.6-54.8,68.2-82.2
	c8.8-10.6,17.3-21.5,25.9-32.3c12-15.3,23.9-30.8,36-46.1c24.3-30.5,48.5-61,73.2-91.1c37.9-46.2,76.3-92,114.2-138.2
	c10.8-13.3,20.3-28,31.5-40.9c30.2-34.6,60.9-68.8,91.8-102.9c12.2-13.5,26.4-25.4,37.7-39.6c10.4-13.1,24.5-16.3,38.9-19.8
	c7.8-1.9,16-2.2,24.1-2.2c69.4,0.3,136.7-15.2,205-24.2c38.8-5.1,76.4-15.4,114.7-22.1c40.1-7.1,76.8-23.3,111-45.3
	C984.2,1.3,986.7,1.2,990.8,0z"/>
<path fill-rule="evenodd" clip-rule="evenodd" fill="#FFFFFF" d="M886.3,330.5c-12.8,1.6-22.9,2.4-33,4c-42,7-106.9-15.2-129.1-66.5
	c-4.5-10.4-9.3-20.7-13.6-30.1c-14.9-6.7-27.6-14.3-43.5-13.6c-6.6,0.3-13.5-2.8-20.1-4.7c-41.1-12.3-79.1-30.6-112.6-57.9
	c-6.9-5.6-14.6-10.3-22-15.4c-29.9,23-56.3,46.5-79.1,74.2c-6.5,8-14,15.1-21.1,22.6c-34.7,36.7-69.9,73.1-104.2,110.3
	c-10,10.8-17.8,23.5-25.5,33.7c5.4,22.6,16.7,40.5,16.9,67.4c-9.5-9.7-15.5-14.5-19.9-20.6c-5.2-7.2-6.3-17.4-18.3-21.5
	c-16.2,12.5-25.5,30.8-36.1,47.7c5.6,23.6,17.5,43.4,28.3,63.7c3.3,6,2,10.9-8.1,12.9c-4.9-8-9.9-16.7-15.4-25.2
	c-6.1-9.4-9.9-21.2-24.9-24.5c-18.8,18.3-39.2,36.2-52.4,60.5c2.3,3.9,4.1,6.8,5.6,9.9c15.8,31.9,31.6,63.7,47.2,95.7
	c0.7,1.4-1.1,4-2.3,8.5c-4.9-1.5-10.6-1.9-14.3-4.8c-3.3-2.4-4.4-7.8-6.3-11.9c-12.6-26.1-28.3-49.6-54.3-66.5
	C115,595,102,610.9,88.8,627.3c5.7,17.8,9.3,34.9,16.9,50.1c10.1,20.6,23.3,39.7,35.2,59.4c8.3,13.8,17.3,27.2,25,41.3
	c1.6,2.9,0,9.9-2.5,11.8c-2.3,1.8-9.1,0.7-11.8-1.5c-5.7-5.2-11.2-11.5-15.1-18.2c-9.8-16.9-19.5-33.9-27.6-51.7
	c-10.3-22.9-27.7-39-47.5-55.4c-15.2,16.6-33.2,29.4-38.2,54.3c14,19.7,28.9,40.2,43.2,61c19.4,28.3,43.1,53.8,56,86.5
	c1.4,3.8,5.6,6.3,9.5,10.4c4.8-3.6,9-5.6,11.8-8.9c32.7-38.6,65.7-76.9,97.5-116.2c40.5-50,79.9-101,120-151.3
	c1.8-2.3,5.6-3,10.7-5.5c0,5.9,1.6,11-0.2,14c-8,12.6-16,25.4-25.6,36.8c-22.7,27.3-45.9,54.4-67.1,83.1
	c-32.3,43.3-66.4,85.3-91.4,133.6c-9,17.3-20,33.6-23.3,55.7c35.4,22.7,70.7,45.9,106.6,68.3c14.4,9,30,16.3,45.3,24.5
	c4.5-3.5,8.5-5.8,11.5-9.1c22.3-24.7,45.5-48.9,66.5-74.8c20.2-25,38.3-51.6,57-77.8c8.6-12.1,16.1-24.9,31.4-30.9
	c4.6,11.2,5.5,20.5-3.2,29.3c-5.6,5.7-10.3,12.3-14.9,18.9c-17,24.5-32.4,50.3-51.1,73.3c-19.6,24.2-28.1,54.9-48.7,78.2
	c-1.1,1.3-0.1,4.2-0.1,8.4c8.2,2.4,16.6,5.7,25.2,7.4c28.3,5.6,56.5,10.7,84.8,16c3.4,0.6,6.8,1.3,10.2,1.6
	c18.9,1.7,21.5-0.3,30.1-23.9c-18.5-9.2-36.9-18.6-58.6-17.8c-4,0.1-8.7-2.9-12-5.7c-2.7-2.3-3.7-6.5-8.3-15.3
	c36.6,9.8,68.3,9.8,100.4,5.6c8.6-14.4,16.9-28.1,25.1-41.8c-8.8-9.3-18.9-11.3-28.8-13.9c-10-2.7-19.9-5.7-29.3-9.8
	c-2.5-1.2-3.3-6.5-6.4-13.4c25.3,3.3,46.6,6.7,68.1,8.7c6.3,0.6,15.6-0.7,18.9-4.9c9.5-12.1,18.6-25,24.2-38.1
	c-12.4-16.6-40.3-0.1-45.6-25.3c11-7.3,21.2-2.4,31.3-1.4c28.3,2.8,38.8-2.9,52.4-28.7c2-3.9,3.5-8.3,5.7-13.5
	c-6.3-3.9-12.3-7-17.4-11.3c-2.7-2.3-3.6-6.8-6.6-12.9c17.9-0.9,32.6-1.6,47-2.3c9.6-10.8,20.3-19.5,23.8-31.4
	c-2.8-11-19.9-7.5-15.7-22.4c9.9,0,19.9,0,29.8,0c32.3-38.8,65.6-75.4,95.1-114.9c34.3-46.2,72-89.6,106.6-135.4
	c0.6-0.9,1.5-1.7,2.2-2.6c7.5-8.6,15.7-16.6,22.2-25.9c6.3-9.1,10.7-19.5,16.4-30.1C924.6,397.4,899.5,371,886.3,330.5z"/>
<path fill-rule="evenodd" clip-rule="evenodd" d="M703.7,337.1c11.8,1.6,22.9,4.1,34.2,4.7c77.7,4.2,113.5,83.1,84.4,145.6
	c-10.8,23-26.1,43.6-46.5,59.1c-24.6,18.7-50.7,35.7-79.5,47.5c-14,5.7-28.1,9.5-43.3,8.7c-31.6-1.7-52.1-21.4-71.2-43.3
	c-8.9-10.3-15.9-22.2-24.5-34.3c-20.9-0.2-41.3-2.1-60.5-10.1c-14-5.9-27-13-37-24.5c-5.1-5.9-10.2-13-12.1-20.4
	c-13.3-51.4-7.2-101.1,22.9-144.6c17.4-25.2,40.5-47.2,73.2-53.8c6.8-1.4,13.3-3.5,20-5.2c58.2-14.2,100.6,3.6,131.3,54.9
	C697.4,325.4,699.4,329.5,703.7,337.1z"/>
<path fill-rule="evenodd" clip-rule="evenodd" fill="#FFFFFF" d="M465,414.2c0,8.1-0.2,12.7,0,17.3c1.7,33.6,19.2,55.2,51.6,64.9
	c20.4,6.1,40.7,6.4,61.3,1.5c30.4-7.3,54-25.8,74-48c18.6-20.6,31.8-44.2,31.9-74.2c0-13.9,1.6-26.3-5.2-39.7
	c-13.7-26.7-37.1-39.6-63.3-49c-7.2-2.6-15.9-4.8-23.2-3.3c-15.6,3.1-31.5,7-45.9,13.6C495.5,321.1,463,357.9,465,414.2z"/>
<path fill-rule="evenodd" clip-rule="evenodd" fill="#FFFFFF" d="M592.6,515.2c7.1,38,11.9,41.2,46.5,60.4
	c13.6,7.5,26.2,7.1,39.5,1.8c39.9-16.1,75.6-39.1,104-71.4c20.4-23.2,30.5-50.4,23.8-82.4c-5.3-25.5-18.9-44.7-42-55.3
	c-20.7-9.5-42.1-7-62.3,3.7c-1.8,7.7-4,14.2-5,20.9c-4.9,34.9-22.1,62-50.4,82.5C629,488.1,611.6,501.2,592.6,515.2z"/>
<path fill-rule="evenodd" clip-rule="evenodd" d="M492.9,609.7c30.1,39.5,32.6,48.8,113.6,71.8c0.8,10-7.4,14-13.8,17.3
	c-21.2,11-43.1,20.9-64.9,31c-4.1,1.9-8.7,2.7-13.2,3.9c-15.2,3.9-26-1.2-28.3-15.7c-3.3-21.3-8.8-42.6-4.8-64.7
	c1.8-10,1.3-20.4,2.9-30.5C485,619.1,488.7,615.9,492.9,609.7z"/>
<path fill-rule="evenodd" clip-rule="evenodd" d="M655.8,380.5c0.2,17.5-8.3,28.8-22,37.3c-12,7.6-25.5,10-39.5,9.5
	c-16.9-0.6-32.6-5.2-39.6-22.1c-6.7-16.4-6.9-33.4,3.6-49.2c21.7-32.8,67.5-33.9,90-1.2C653,361.7,653.3,371.9,655.8,380.5z"/>
<path fill-rule="evenodd" clip-rule="evenodd" d="M780.7,478c-10.5,10.6-22.8,18.2-37.6,22.5c-12.9,3.8-24.7,2.5-36.7-2.9
	c-14-6.4-21.2-19-17.2-33.1c4.6-15.7,12.9-29.8,26.1-39.5c5.8-4.3,14.7-6.3,22.3-6.5c38.3-1,51.9,15.2,45.7,53
	C782.9,473.6,781.6,475.7,780.7,478z"/>
<path fill-rule="evenodd" clip-rule="evenodd" fill="#FFFFFF" d="M966.8,393.3c-0.5-13.4-0.4-25.9-1.9-38.1
	c-2.2-19.3-6.3-38.4-8.2-57.7c-2.3-23.9-3.2-48-4.9-72c-1.4-20.8-4.9-40.9-18.7-57.9c-3.5-4.4-5.6-10-8.3-15.1
	c-17.8-33.5-46.9-49.6-83.6-52c-18.3-1.2-36.6,0.2-55,1.2c-24,1.3-48,4.8-72.1,4.9c-50.4,0.2-100.8,2.6-150.7,10.7
	c-5.1,0.8-9.9,3.5-16.4,5.9c15.6,29.1,34.8,50.3,64.1,62.1c27.8,11.3,56.3,19.2,86.5,21.3c12.2,0.8,24.3,4.2,35.4,6.2
	c2.1,5.7,3.6,8.8,4.4,12c10.8,45.3,40.7,70.2,85.2,78.9c14.6,2.8,29.3,4.8,44.1,6.1c13.5,1.1,27.1,0.7,39.6,0.9
	C933.9,382.6,940.7,376.9,966.8,393.3z"/>
<path fill-rule="evenodd" clip-rule="evenodd" fill="#FFFFFF" d="M612.2,352.1c-15.7,15.7-17.7,26.5-8.5,36.2
	c7.4,7.7,18.5,6.4,30.6-3.7c1.7-1.4,4-3.4,4.1-5.3c0.4-4.2,1.3-10.6-1-12.3C629.5,361.1,620.2,356.7,612.2,352.1z"/>
<path fill-rule="evenodd" clip-rule="evenodd" fill="#FFFFFF" d="M768.4,454.8c-4.1-6.1-6.6-11.4-10.5-15c-3-2.5-9.2-4.9-11.8-3.5
	c-4.3,2.5-8.7,7.7-9.6,12.5c-1.8,9.4,10.5,20.4,19.8,17.6C760.8,465.1,763.9,459.4,768.4,454.8z"/>
</svg>
