<?xml version="1.0" encoding="utf-8"?>
<!DOCTYPE svg PUBLIC "-//W3C//DTD SVG 1.1//EN" "http://www.w3.org/Graphics/SVG/1.1/DTD/svg11.dtd">
<svg artist="zl2017" version="1.1" id="zlIcon-picture-wall-horizontal" xmlns="http://www.w3.org/2000/svg" xmlns:xlink="http://www.w3.org/1999/xlink" x="0px" y="0px"
	 width="1000px" height="920.6px" viewBox="0 0 1000 920.6" enable-background="new 0 0 1000 920.6" xml:space="preserve">
<path fill-rule="evenodd" clip-rule="evenodd" d="M572.7,4.8c6.9,13.5,12,24.4,17.8,35c17.6,32.3,36.5,63.1,66.5,86.8
	c22.2,17.5,39.5,41.3,59.7,61.5c17.3,17.3,35.7,33.5,53.3,49.9c60.3,2.8,120-10.6,177.9,10.3c14.6,17,11,38,12,58.2
	c1.9,34.7,3.7,69.3,6.6,103.9c4.1,48.9,9.4,97.8,13.7,146.7c6.5,75.4,12.6,150.8,18.5,226.2c1,12.2,1.1,24.7-0.4,36.8
	c-3,24-15.3,38.1-39.1,39.4c-21,1.1-40.1,5.9-59.3,13.5c-9.3,3.7-20,4.2-30.2,4.8c-87.7,4.6-175.3,10.1-263,12.9
	c-92,2.9-184.1,3.1-276.1,4.4c-10.2,0.1-20.5,0.1-30.7-0.7c-80.4-6-159.3,4.1-237.3,23.2c-7.9,1.9-16,2.9-24.1,3.3
	c-3.8,0.2-7.8-2-14.4-3.9C5.7,888.2-3.6,855.4,2.3,819.8c9.8-59,9.1-118.2,4-177.4c-8.8-102.3,0.8-204.6-2.1-306.9
	c-0.5-17.9,3.7-36.7,9.3-53.9c10-30.5,29-40.7,60.9-38.4c38.6,2.7,77.2,5.4,115.8,5.8c13.4,0.1,29.4-3,39.9-10.6
	c51.3-37.1,101.5-75.8,151.2-114.9c23.8-18.7,44.2-37.6,50.2-72.7c5.2-30.7,32.7-51.6,68.2-50.7C524.1,0.6,548.4,3.1,572.7,4.8z
	 M41.3,295c0,50.9-0.8,102,0.2,153c1.2,65.3,4.7,130.6,5.6,196c1.1,75.4,0.4,150.9,0.6,226.4c0,1.6,2.3,3.1,6.4,8.3
	c22.7,5.9,49.3,4.1,75-0.5c68.9-12.3,138.2-12.6,207.7-11.5c20.5,0.3,40.9-0.6,61.4-1.8c157.3-8.8,314.6-18,471.9-26.8
	c35.2-2,67.5-12.4,98.7-28.8c6.6-36.2,0.3-70.6-2.9-105c-5.3-57-11.3-113.9-15.5-171c-5.8-79.7-12.9-159.2-37.3-235.9
	c-3.5-11.1-9.5-21.5-14.8-33.3c-18.6,1.1-34.8,1.8-50.9,3c-30.5,2.3-60.9,6.3-91.4,7.2c-106.2,3-212.4,4.8-318.7,9.4
	c-112.2,4.9-224.9-1-337.3-3.3C81.5,280.1,63.4,277.3,41.3,295z M584,92.1c-6.2,0-8.7-0.8-10.1,0.2c-3.3,2.3-6.1,5.4-9.1,8.2
	c-29.7,28.7-61.8,38.7-99.3,14.2c-16.5-10.8-30.2-4.3-44.1,7.4c-43.7,36.7-88.4,72.4-132.1,109.1c-4.8,4.1-6.3,12.1-11,21.5
	c54,2.8,102.7,7.4,151.4,7.1c46.9-0.3,93.7-5.3,140.5-9.1c48-3.9,97,3.3,149.9-10.2C676.6,182.4,624,141,584,92.1z M474.2,39.5
	c7.2,16.1,11.9,29.1,18.6,41.1c8,14.2,21.4,17.5,35.8,10.2c16.8-8.5,29.8-20,28.4-41C519.8,19.5,519.8,19.5,474.2,39.5z"/>
<path fill-rule="evenodd" clip-rule="evenodd" fill="#FFFFFF" d="M41.3,295c22.2-17.7,40.2-15,58.9-14.6
	c112.5,2.3,225.1,8.2,337.3,3.3c106.2-4.6,212.4-6.4,318.7-9.4c30.5-0.9,60.9-4.9,91.4-7.2c16.1-1.2,32.3-1.9,50.9-3
	c5.3,11.8,11.3,22.1,14.8,33.3c24.3,76.7,31.5,156.2,37.3,235.9c4.2,57.1,10.2,114,15.5,171c3.2,34.4,9.5,68.8,2.9,105
	c-31.2,16.4-63.5,26.9-98.7,28.8c-157.3,8.8-314.6,17.9-471.9,26.8c-20.4,1.1-40.9,2.1-61.4,1.8c-69.5-1-138.9-0.8-207.7,11.5
	c-25.7,4.6-52.2,6.4-75,0.5c-4.1-5.2-6.4-6.8-6.4-8.3c-0.3-75.5,0.4-150.9-0.6-226.4c-0.9-65.3-4.4-130.6-5.6-196
	C40.5,397,41.3,346,41.3,295z M850.7,720.1c5.5-28.5,14.5-56.4,15.8-84.6c3.5-76.3-12.1-150.9-31.6-224
	c-10.2-38.4-40.4-61.2-81.7-63.2c-106.3-5.1-212.5-11.7-318.9-13.1c-71.4-0.9-142.9,6.7-214.4,9.1c-34,1.2-37.4,2.1-45.4,34.9
	c-2.9,11.9-5.3,24-7.1,36.1c-9.8,66.7-19.9,133.4-28.7,200.2c-3.2,24.3-4.8,49-4.2,73.4c0.7,33.3,16.5,48,49,49.7
	c4.1,0.2,8.2-0.4,12.3-0.4c186.2,0.6,372.4,1.3,558.6,1.5C784.9,739.9,815.8,738.7,850.7,720.1z"/>
<path fill-rule="evenodd" clip-rule="evenodd" fill="#FFFFFF" d="M474.2,39.5c45.5-20.1,45.5-20.1,82.8,10.3
	c1.4,21-11.6,32.5-28.4,41c-14.4,7.3-27.7,3.9-35.8-10.2C486.1,68.7,481.4,55.6,474.2,39.5z"/>
<path fill-rule="evenodd" clip-rule="evenodd" d="M850.7,720.1c-34.9,18.5-65.8,19.8-96.4,19.8c-186.2-0.2-372.4-0.9-558.6-1.5
	c-4.1,0-8.2,0.6-12.3,0.4c-32.4-1.7-48.3-16.5-49-49.7c-0.5-24.5,1-49.2,4.2-73.4c8.8-66.8,18.9-133.5,28.7-200.2
	c1.8-12.1,4.2-24.2,7.1-36.1c8-32.8,11.4-33.7,45.4-34.9c71.5-2.4,143-10.1,214.4-9.1c106.3,1.4,212.6,8,318.9,13.1
	c41.3,2,71.5,24.8,81.7,63.2c19.5,73.1,35.1,147.6,31.6,224C865.2,663.8,856.3,691.6,850.7,720.1z M817.9,688
	c13-25.1,19.9-45.7,17.1-69.5c-3.1-26.3-2.7-53-5.5-79.4c-3.4-32.5-8.5-64.9-12.9-97.3c-4.5-32.6-24.1-51.5-55.5-57.3
	c-30-5.6-60.5-8.8-90.7-13.6c-142.9-22.8-285.8-11.6-428.7,0.8c-23,2-38.7,12.2-42.8,36.1c-4.2,24.2-9.6,48.2-12,72.6
	c-4.5,44.8-8,89.7-10.2,134.6c-1.4,28.3-6.3,57.1,3.2,85.8c29.6,13,59.9,10.5,90.6,8.9c65.4-3.5,130.9-9.5,196.2-7.6
	c108.7,3.2,216.7-8.5,325.2-9.2C799.7,692.8,807.5,690,817.9,688z"/>
<path fill-rule="evenodd" clip-rule="evenodd" fill="#FFFFFF" d="M817.9,688c-10.3,2-18.2,4.8-26,4.8
	c-108.4,0.7-216.5,12.4-325.2,9.2c-65.3-1.9-130.8,4-196.2,7.6c-30.7,1.7-61.1,4.1-90.6-8.9c-9.5-28.7-4.6-57.5-3.2-85.8
	c2.2-44.9,5.8-89.8,10.2-134.6c2.4-24.3,7.8-48.4,12-72.6c4.2-23.9,19.8-34.1,42.8-36.1c142.9-12.4,285.7-23.6,428.7-0.8
	c30.2,4.8,60.7,8,90.7,13.6c31.4,5.9,51,24.7,55.5,57.3c4.5,32.4,9.5,64.8,12.9,97.3c2.8,26.4,2.4,53.1,5.5,79.4
	C837.8,642.3,830.8,662.9,817.9,688z"/>
</svg>
