<?xml version="1.0" encoding="utf-8"?>
<!DOCTYPE svg PUBLIC "-//W3C//DTD SVG 1.1//EN" "http://www.w3.org/Graphics/SVG/1.1/DTD/svg11.dtd">
<svg artist="zl2017" version="1.1" id="zlIcon-picture-corners" xmlns="http://www.w3.org/2000/svg" xmlns:xlink="http://www.w3.org/1999/xlink" x="0px" y="0px"
	 width="1000px" height="1084.9px" viewBox="0 0 1000 1084.9" enable-background="new 0 0 1000 1084.9" xml:space="preserve">
<path fill-rule="evenodd" clip-rule="evenodd" d="M284.7,179.4c84.1-6.8,159.9-12.9,235.7-19.1c6.3-25.8-23.9-22.6-25.6-50.6
	c8-26.4,31.3-55.8,55.1-82.9c12.4-14.2,35.5-19.1,51-26.8c30.3,10.9,50.1,28.2,60.7,51.5c17.6,38.8,48.9,61.1,83.4,81.1
	c52.8,30.5,120.9,91.7,165.1,148.9c-1,26.6-21,45-34,66.3c-16.8,27.4-31.3,31.8-64.8,24.3c-4.2-0.9-7.5-5.7-11.8-7.1
	c-3.6-1.2-8-0.3-16.5-0.3c9.6,92,28.4,181.6,37.6,282.7c32.3-28.6,55.5-49.1,79.2-70.1c45.3,22.4,68.8,59.5,99.6,95.9
	c-43.7,38.8-84.8,75.3-128.8,114.3c2.5,31.2,4.9,62.9,7.4,94.1c-17.3,18.7-40.5,15.3-59.5,12.3c-44-6.9-70.6,15.8-94.3,46.5
	c-9.9,12.9-16.9,28-27.1,40.7c-8.4,10.5-19.5,18.9-28,26.9c-29.7-2.7-41.9-24.1-58.3-40c-14.9-14.5-30.7-28-46.6-42.5
	c-13,2.2-24.2,6-35.4,5.8c-80.3-1.4-125.7,50.6-167.9,108c-12.1,16.4-18,38.5-43.2,45.7c-42.6-17.4-41.6-70.4-78.1-96.3
	c-19.7,0-42.7,1.1-65.5-0.4c-15.2-1-26.3-11-27.8-26.6c-3-30.1-4.3-60.3-6.4-93.2c-16.8-13.7-34.2-27.8-51.6-42
	c15.1-49,43.6-84.4,78.6-109.6c0-115.9,0-227,0-335.9c-17.5-11.1-24.5-1.7-31.2,8.2c-15.5,22.8-31,45.6-44.3,65.4
	c-22,3.6-30.6-7.4-38.9-18.8c-12.2-16.6-23.5-34-36.6-49.9c-19.9-24.1-20.7-44.2-0.1-67.5c6.1-6.9,14.7-11.8,20.4-19
	c18.5-23.7,37.9-47.1,54-72.4C128.6,166,165.3,104,203.2,42.7c3.5-5.6,10.1-9.2,16.6-15c47.7,0.3,73.3,45.5,124.4,52.7
	c-15.6,23-26.1,37.3-35.2,52.4C301.2,145.7,294.9,159.6,284.7,179.4z M258.9,212.5c-11,15-21.4,30.3-33,44.6
	c-26.1,32.2-35.7,66.6-32.5,109.7c8.4,113.6,11,227.6,16,345c10.2,8.6,20.6,17.9,31.4,26.6c65,52.5,130.1,105,195.3,157.3
	c5.2,4.2,11.3,9.4,17.4,10.1c52.3,6,105.3,1.6,146-32.3c57-47.5,108-102.3,161.9-153.7c14.8-14.1,19.7-30.7,18-50.4
	c-2.5-30.1-4-60.3-6.5-90.5c-2.3-27.6-2.4-55.8-8.7-82.5c-9.7-41-19.4-81.9-16.1-124c4-50.4-20.5-83.1-59.6-109.7
	c-26.8-18.2-51.6-39.3-77.9-58.1c-9.2-6.6-20.5-14.5-30.8-14.5c-39.3-0.2-80-2.9-117.7,5.8c-44,10.2-87.6,10-131.6,12.4
	C307.3,209.6,284.1,211,258.9,212.5z M667.2,958.4c24-26.7,45.7-53.8,70.3-77.9c59.6-58.6,120.9-115.6,180.7-174
	c12.7-12.4,22.4-27.9,33.6-42.1c-16-22-28.7-40.7-51.6-48.6c-27.9,29-53,56.2-79.3,82.3c-51.2,50.7-103.2,100.7-154.8,151
	c-21.5,21-45,40.8-45.2,78.1C635.1,936.6,650.2,946.8,667.2,958.4z M838.5,326.6c5.9-4.9,13.8-9.8,19.6-16.6
	c5.7-6.7,9.3-15.3,14.3-24c-23.8-34.3-52.4-62.6-85.9-81.9C723.5,167.8,670.7,119.4,614.5,75c-10.3-8.1-22.5-13.8-33.3-20.3
	c-8.3,6.8-14.5,10.4-18.8,15.6c-21.5,25.9-22.2,38.4-2,59.9c11,11.8,23.2,22.9,36.3,32.2c75.2,53.5,150.8,106.5,226.4,159.5
	C826.6,324.3,831.7,324.6,838.5,326.6z M234.6,67.9C153.1,155.6,106,262.5,35.7,355c15.7,17.7,29.2,32.9,42.7,48.2
	c5.9-5,10-7.5,12.8-11.1c63.1-82.6,113-174.6,179.9-254.6c8.8-10.5,14.5-23.7,20.6-36.1c1.7-3.4-0.3-8.6-0.7-15
	C274.6,81.1,257.5,75.5,234.6,67.9z M322.6,1028.1c34.9-34.8,55.6-73.1,78.8-110.3c-8-6.4-13-11.2-18.8-14.8
	c-53.4-32.7-106.6-65.7-160.6-97.4c-17.9-10.5-37-20.2-56.9-25.5c-7.7-2-20.6,7.5-28.1,14.8c-9.9,9.7-6.2,22,3.6,30.2
	c10.6,8.9,22.3,16.6,34.2,23.9c34.6,21.2,61.7,48.6,77.9,86.6c6.2,14.5,16.6,27.4,26.4,40.1C291.7,992.2,305.5,1007.7,322.6,1028.1z
	 M190.5,906.1c-6.7,46.9-5.3,48.6,30.1,39.9C219.9,925.7,212.3,910.8,190.5,906.1z M826.3,831c-2.2,7.8-4.9,14.9-5.8,22.2
	c-0.1,1.2,8.1,5.4,11.4,4.6c10.7-2.8,12.4-11.4,8.5-20.5C839.4,834.8,833.9,834.2,826.3,831z"/>
<path fill-rule="evenodd" clip-rule="evenodd" fill="#FFFFFF" d="M258.9,212.5c25.2-1.5,48.4-2.9,71.5-4.2
	c44-2.4,87.6-2.2,131.6-12.4c37.7-8.7,78.3-6,117.7-5.8c10.4,0,21.6,7.9,30.8,14.5c26.4,18.8,51.2,39.9,77.9,58.1
	c39.1,26.6,63.6,59.4,59.6,109.7c-3.3,42.2,6.4,83,16.1,124c6.3,26.7,6.4,54.9,8.7,82.5c2.5,30.1,4,60.3,6.5,90.5
	c1.7,19.8-3.3,36.4-18,50.4c-53.9,51.3-104.9,106.1-161.9,153.7c-40.7,33.9-93.7,38.2-146,32.3c-6.1-0.7-12.2-5.9-17.4-10.1
	C370.9,843.4,305.8,791,240.7,738.5c-10.8-8.7-21.2-18-31.4-26.6c-5-117.4-7.6-231.4-16-345c-3.2-43.1,6.5-77.5,32.5-109.7
	C237.5,242.8,247.9,227.5,258.9,212.5z"/>
<path fill-rule="evenodd" clip-rule="evenodd" fill="#FFFFFF" d="M667.2,958.4c-17.1-11.6-32.2-21.8-46.3-31.4
	c0.2-37.2,23.6-57.1,45.2-78.1c51.6-50.3,103.6-100.3,154.8-151c26.3-26,51.4-53.2,79.3-82.3c22.9,8,35.6,26.6,51.6,48.6
	c-11.2,14.2-20.9,29.7-33.6,42.1c-59.9,58.4-121.1,115.4-180.7,174C712.9,904.7,691.2,931.7,667.2,958.4z"/>
<path fill-rule="evenodd" clip-rule="evenodd" fill="#FFFFFF" d="M838.5,326.6c-6.8-2.1-11.9-2.4-15.4-4.8
	c-75.6-52.9-151.2-105.9-226.4-159.5c-13.1-9.3-25.2-20.5-36.3-32.2c-20.2-21.5-19.5-34,2-59.9c4.3-5.2,10.5-8.8,18.8-15.6
	c10.9,6.5,23.1,12.2,33.3,20.3c56.2,44.4,109,92.9,171.9,129.1c33.5,19.3,62.1,47.6,85.9,81.9c-5.1,8.7-8.6,17.3-14.3,24
	C852.3,316.8,844.4,321.7,838.5,326.6z"/>
<path fill-rule="evenodd" clip-rule="evenodd" fill="#FFFFFF" d="M234.6,67.9c22.9,7.5,40,13.1,56.3,18.5c0.4,6.4,2.4,11.6,0.7,15
	c-6.1,12.4-11.8,25.6-20.6,36.1c-66.8,80-116.8,172-179.9,254.6c-2.7,3.6-6.9,6-12.8,11.1c-13.5-15.3-27.1-30.6-42.7-48.2
	C106,262.5,153.1,155.6,234.6,67.9z"/>
<path fill-rule="evenodd" clip-rule="evenodd" fill="#FFFFFF" d="M322.6,1028.1c-17.1-20.4-30.9-35.9-43.5-52.3
	c-9.7-12.7-20.2-25.6-26.4-40.1c-16.3-38.1-43.3-65.4-77.9-86.6c-11.8-7.3-23.6-15-34.2-23.9c-9.8-8.3-13.4-20.5-3.6-30.2
	c7.5-7.4,20.4-16.9,28.1-14.8c19.8,5.3,39,15,56.9,25.5c53.9,31.8,107.2,64.7,160.6,97.4c5.8,3.5,10.7,8.4,18.8,14.8
	C378.2,955,357.5,993.3,322.6,1028.1z"/>
<path fill-rule="evenodd" clip-rule="evenodd" fill="#FFFFFF" d="M190.5,906.1c21.8,4.6,29.3,19.6,30.1,39.9
	C185.3,954.7,183.8,953,190.5,906.1z"/>
<path fill-rule="evenodd" clip-rule="evenodd" fill="#FFFFFF" d="M826.3,831c7.6,3.2,13.1,3.8,14.2,6.3c3.9,9.1,2.2,17.7-8.5,20.5
	c-3.4,0.9-11.6-3.4-11.4-4.6C821.5,845.9,824.1,838.8,826.3,831z"/>
</svg>
