<?xml version="1.0" encoding="utf-8"?>
<!DOCTYPE svg PUBLIC "-//W3C//DTD SVG 1.1//EN" "http://www.w3.org/Graphics/SVG/1.1/DTD/svg11.dtd">
<svg artist="zl2017" version="1.1" id="zlIcon-picture-wall-vertical" xmlns="http://www.w3.org/2000/svg" xmlns:xlink="http://www.w3.org/1999/xlink" x="0px" y="0px"
	 width="1000px" height="1435.9px" viewBox="0 0 1000 1435.9" enable-background="new 0 0 1000 1435.9" xml:space="preserve">
<path fill-rule="evenodd" clip-rule="evenodd" d="M759.6,171.3c26.4,36,54.3,73.8,81.8,111.2c52.6,6.3,103.4,8.7,152.9,36.9
	c6.3,98.3,9,197-4.2,297.1c-29.9,226.7-45.2,454.8-44.2,683.7c0.1,23.7,1.3,47.7-1.6,71.1c-4.7,38.1-26.8,55.3-66.7,54.7
	c-95-1.4-190-5.7-284.8-4c-133.5,2.4-266.9,10.5-400.4,13.7c-53.1,1.3-106.3-3.1-159.4-6.9c-20-1.4-30.4-17.1-32.3-36.7
	c-0.8-8.7,1.4-17.7,1.9-26.6c8.8-171.9,17.2-343.7,26.3-515.6c3.9-74,8-148.1,14.3-222c8.3-98,7.7-195.7,0.1-293.6
	c-1.1-14,2.6-28.3,4.3-44.8c24.4,0,44.7-1.3,64.7,0.2c162.2,12.3,153.3,15,296.1-85.2c67.4-47.3,132.4-99.4,185.6-164.7
	c33.9-41.6,89-50.4,126.5-27.6c49.5,30,63.1,67.5,46.7,128.6C765,149.1,763,157.6,759.6,171.3z M892.6,1368.9
	c4.8-59.3,10.7-118,14.2-176.9c6.7-112.4,10.1-225,18.3-337.3c10.3-141.9,23.7-283.6,36.6-425.3c4.9-53.4-10-75.2-65.8-86.8
	c-43.2-9-88.3-11.5-132.7-12.2c-168.9-2.5-337.8-3.5-506.6-4.3c-41.5-0.2-83,1.5-124.5,3.4c-33.1,1.6-47.7,16.4-50.7,49.2
	c-0.8,8.8,0.1,17.8,0,26.7c-1.5,74.1-1.9,148.3-5,222.3C72.7,716.5,65,805.2,62.1,894c-4,121.3-2.7,242.6-15.2,363.7
	c-4.4,43-11.2,88.6,13.9,133.6c51.1,11.8,103.6,15,156.9,11.6c216-13.8,432-25.5,648.6-21.2C871.5,1381.6,876.8,1376.7,892.6,1368.9
	z M403.3,286.4c126.3,8.8,239.8,9.7,353.2-0.7c7.6-42.1-16.2-64.4-39.9-86.7c-85.7-0.2-85.7-0.2-165.1-52.8
	C504.4,187.2,443.5,214,403.3,286.4z M684.5,45.1c-37.3,3.2-70.2,14-81.2,54.8c-2.8,10.1-2.7,25.2,2.9,32.7
	c34,45.2,90.7,39.7,113.3-9.9c3.6-7.9,5.5-16.8,7.3-25.4C733,67.3,714,44,684.5,45.1z"/>
<path fill-rule="evenodd" clip-rule="evenodd" fill="#FFFFFF" d="M892.6,1368.9c-15.9,7.8-21.2,12.8-26.4,12.7
	c-216.6-4.3-432.6,7.4-648.6,21.2c-53.3,3.4-105.8,0.3-156.9-11.6c-25.1-44.9-18.3-90.5-13.9-133.6c12.4-121,11.2-242.4,15.2-363.7
	c2.9-88.8,10.6-177.5,14.3-266.3c3.1-74,3.5-148.2,5-222.3c0.2-8.9-0.8-17.8,0-26.7c2.9-32.8,17.6-47.7,50.7-49.2
	c41.5-2,83-3.6,124.5-3.4c168.9,0.9,337.8,1.8,506.6,4.3c44.3,0.7,89.4,3.1,132.7,12.2c55.8,11.7,70.6,33.4,65.8,86.8
	c-12.9,141.7-26.3,283.4-36.6,425.3c-8.2,112.3-11.6,224.9-18.3,337.3C903.3,1250.8,897.5,1309.5,892.6,1368.9z M190.9,473
	c-3.6,59.7-5.5,115.9-10.6,171.7c-9.2,100.5-19.4,200.9-30.8,301.1c-9.7,85.3-20.2,170.7-33,255.6c-7.7,50.7,10.5,79.4,62.2,85.1
	c17.6,1.9,35.6-0.1,53.4-0.2c86-0.6,172.1-1.4,258.1-1.8c76.5-0.3,153-0.1,232-0.1c9.5-34.5,25.1-65.5,25.1-96.6
	c0-48.1,7.8-94.2,15-141.1c11.1-73.2,23.3-146.9,26.1-220.7c3-77.8,15.7-153.4,30.9-229.1c6.4-32.1,13.9-63.9,3.1-96.1
	c-64.1-49.6-64.1-49.9-134.6-50c-101-0.1-202,1.6-303-0.2C322.1,449.5,260.4,451.8,190.9,473z"/>
<path fill-rule="evenodd" clip-rule="evenodd" fill="#FFFFFF" d="M684.4,45.1C714,44,733,67.3,726.7,97.5
	c-1.8,8.6-3.7,17.4-7.3,25.4c-22.6,49.6-79.3,55.1-113.3,9.9c-5.7-7.6-5.7-22.6-2.9-32.7C614.3,59.2,647.2,48.4,684.4,45.1z"/>
<path fill-rule="evenodd" clip-rule="evenodd" d="M190.9,473c69.4-21.2,131.1-23.5,193.8-22.4c101,1.8,202,0,303,0.2
	c70.5,0.1,70.5,0.4,134.6,50c10.8,32.1,3.4,64-3.1,96.1c-15.2,75.7-27.9,151.3-30.9,229.1c-2.8,73.8-15,147.5-26.1,220.7
	c-7.1,46.9-14.9,93-15,141.1c0,31.1-15.6,62.1-25.1,96.6c-79,0-155.5-0.2-232,0.1c-86,0.3-172.1,1.2-258.1,1.8
	c-17.8,0.1-35.8,2.1-53.4,0.2c-51.7-5.7-69.9-34.4-62.2-85.1c12.8-84.9,23.3-170.2,33-255.6c11.4-100.2,21.6-200.6,30.8-301.1
	C185.4,588.8,187.4,532.7,190.9,473z M202.5,1229.7c91.6-2.7,169.4,21.6,250.3,13.2c78-8.1,159.3,16.8,233-20.4
	c20-61.7,17-121.3,18.6-180.6c1.6-56.4,2.3-113,7.5-169.2c5.4-59.1,16.7-117.7,23.4-176.7c6.7-58.4,24.7-116.3,9.2-185.3
	c-167.9-27.6-336.5-34.7-507.8-4.2c-2.9,18.5-6.1,32.9-7.2,47.5c-6,82.9-11.2,165.9-17.4,248.8c-5.5,74.1-15.2,148-17.2,222.1
	C193.2,1089.7,199.4,1154.7,202.5,1229.7z"/>
<path fill-rule="evenodd" clip-rule="evenodd" fill="#FFFFFF" d="M202.5,1229.7c-3.1-75-9.3-140-7.5-204.8
	c2.1-74.1,11.7-148,17.2-222.1c6.2-82.9,11.3-165.9,17.4-248.8c1.1-14.6,4.3-29,7.2-47.5c171.4-30.5,340-23.4,507.8,4.2
	c15.5,69-2.5,126.9-9.2,185.3c-6.8,59-18,117.6-23.4,176.7c-5.1,56.2-5.9,112.8-7.5,169.2c-1.6,59.2,1.4,118.9-18.6,180.6
	c-73.7,37.3-155.1,12.3-233,20.4C371.9,1251.3,294.2,1227,202.5,1229.7z"/>
</svg>
