<?xml version="1.0" encoding="utf-8"?>
<!DOCTYPE svg PUBLIC "-//W3C//DTD SVG 1.1//EN" "http://www.w3.org/Graphics/SVG/1.1/DTD/svg11.dtd">
<svg artist="zl2017" version="1.1" id="zlIcon-piggy-d" xmlns="http://www.w3.org/2000/svg" xmlns:xlink="http://www.w3.org/1999/xlink" x="0px" y="0px"
	 width="1000px" height="944.7px" viewBox="0 0 1000 944.7" enable-background="new 0 0 1000 944.7" xml:space="preserve">
<path fill-rule="evenodd" clip-rule="evenodd" d="M166.3,579.3c-3.1,0.8-5.3,1-7.1,1.9c-12.5,6.3-25,12.2-36,21.2
	c-7,5.8-15.3,10-22.9,15.1c-11.5,7.7-20.7,17.8-28.9,28.8c-6.9,9.4-12.5,19.7-18.8,29.6c-1.6,2.6-3.3,5.2-5.5,7.3
	c-3.1,2.8-7.6,1.2-8.1-2.9c-0.4-3.6-0.3-7.3,0.1-10.9c1.4-12.7,3.1-25.4,4.5-38.1c0.3-3,0.2-6.2,0.1-9.2c-0.2-5.1-2-6.4-7-4.5
	c-6,2.3-11.7,5.2-17.6,7.7c-3.1,1.3-6.2,2.3-9.3,3.5c-3.3,1.3-6.3,0.6-8.2-2.1c-1.9-2.9-0.9-5.7,1.4-8.3
	c14.9-17,27.6-35.7,40.1-54.6c10.7-16.2,23-31.3,36.9-45.1c3.5-3.5,6.2-7.9,9.5-11.6c6.1-6.9,12.6-13.4,18.4-20.5
	c13.4-16.4,27.8-32.1,38.4-50.4c6.2-10.8,10.8-22.6,15.5-34.2c4.1-10.1,7.3-20.5,6.1-31.7c-1.1-10.5-2.3-21-3-31.5
	c-0.5-7.2-0.8-14.4-0.2-21.5c1.4-16.9,5.3-33.3,9.6-49.8c4.8-18,14.3-33.1,23-48.8c1.7-3.2,4.2-6.2,4.8-9.6c1.1-6.1,4.5-10.6,8-15.4
	c4.7-6.5,8.7-13.1,10.7-21.2c2.3-9.6,7-18.6,10.4-28c0.8-2.2,0.8-4.9,0.7-7.3c-0.4-13.1-1-26.1-1.5-39.2c0-0.5,0-1.2,0.3-1.6
	c6-11.7,8.9-24.8,19.5-34.2c13-11.4,25-23.9,37.2-36.1c5.6-5.5,10.4-11.7,12.5-19.5c0.5-1.8,1.6-3.6,3-5c2.1-2.1,4.5-1.8,6.8,0
	c0.4,0.3,0.8,0.8,1,1.3c7.8,19.3,25.5,28.3,41.2,38.9c12.8,8.7,24.4,18.6,35.5,29.1c3.7,3.5,7,4.7,11.7,4.8c8.4,0.2,16.9-0.2,25,1.6
	c14.9,3.3,29.5,8,44.2,12.3c20.3,5.9,40.7,11.5,60.9,18c11.1,3.6,21.8,8.5,32.5,13.3c5.3,2.3,10,2.4,15.3,0.1
	c14.9-6.3,29.8-12.5,44.9-18.3c8.5-3.3,17.1-6.7,26.7-5.3c2.4,0.3,4.9-0.8,7.4-0.9c5-0.3,10.3-1.5,15-0.3c7.1,2,13.2,0.3,19.6-1.9
	c1.6-0.5,3.1-1.3,4.7-1.6c4.7-0.9,7.9,1.1,8.2,5.8c1.5,21.9,8.1,42.6,15.5,63.1c4.5,12.4,3.1,24.7,0.8,37.1
	c-1.8,9.4-5.6,17.9-11.6,25.6c-4,5.2-8.1,11.2-9.4,17.5c-2.7,13.3-4.1,26.9-4.9,40.4c-0.3,4.7,2.1,9.7,4.1,14.3
	c4.7,11.2,7.6,22.6,7.9,34.8c0.2,8.6,2,17.1,3,25.7c1.1,10,2.4,19.9,3.2,29.9c1,13.6,1.5,27.3,2.3,40.9c0.1,1.9,0.2,4,0.9,5.7
	c1.6,3.5,2.1,6.7,1.1,10.5c-0.9,3.6,1,6,5,5.9c1.7,0,3.5,0.2,5-0.4c8.6-3.8,17.7-7,25.6-12c11.3-7.1,21.7-15.5,32.5-23.3
	c1.3-0.9,2.9-1.5,3.2-3c3.3-6.6,5.6-13.8,9.9-19.6c9.6-12.9,13.8-27.9,18.3-42.7c2.1-6.9,3.7-14,4.9-21.2c0.8-4.6,1-9.5,0.5-14.2
	c-1.8-16.7,1.2-32.7,5.7-48.6c2-7,5.4-13,12.9-16.3c24.5-10.8,48.8-13,72.8,1.1c1.7,1,3.6,2.1,4.5,3.6c8.5,15,17.8,29.8,17.1,48
	c-0.4,9.7-3.3,18.6-8.6,26.7c-2.3,3.5-4.8,6.7-3.6,11.5c1,3.7-1.6,6.1-4.5,8.2c-3.4,2.4-6.3,5.4-9.8,7.6c-6.3,4-6.8,9.9-5.7,16.2
	c1.7,10.1,3.6,20.3,5.9,30.3c1.9,8.4,3.5,9.5,12.1,9.4c10.4-0.2,19.8,3.1,28.8,7.7c5,2.6,9,6.7,10.9,12.3c2.2,6.3,0.6,9.9-5.3,13
	c-8.9,4.7-18.6,7.4-28.2,10.2c-14.4,4.3-28.5,9.5-42.8,14.2c-4.2,1.4-8.6,2.5-12.9,3.3c-7.1,1.3-10.8-0.9-14-7.5
	c-1.3-2.8-2.4-5.7-3.9-8.4c-7.2-12.9-4.4-25.6,8.2-33.7c5.5-3.6,11.6-6.5,17.6-9.2c4-1.8,6.5-3.6,5.5-8.7c-1.3-6.4,1-13.3-2.5-19.6
	c-6.5,1.2-9.1,6.7-12.3,10.9c-6.1,7.9-11.2,16.6-17,24.8c-3.2,4.5-7,8.6-10.3,13c-1.4,1.9-2.6,4.2-3.3,6.5
	c-1.9,5.8-2.4,12.3-5.5,17.3c-7,11-10.6,23.3-16.1,34.9c-1.2,2.5-2.7,4.8-3.9,7.3c-2.4,5-4.6,10-7,15c-2.2,4.5-4.2,9-6.8,13.2
	c-6,9.4-11.7,19.1-18.7,27.7c-11.1,13.6-16.6,30.2-25.1,45.1c-2.6,4.6-3,11.6-2,17c2.6,13.9,6.1,27.8,10.3,41.3
	c3.9,12.7,9.1,25.1,14.1,37.5c2.9,7.1,2.8,9.7-3,14.7c-4.7,3.9-9.7,7.4-14.7,10.9c-13.5,9.4-28.1,17-40.1,28.5
	c-11.8,11.2-25.8,19.4-39.9,27.2c-5.3,2.9-11.4,4.5-17.2,6.4c-10.1,3.2-20.2,6.5-30.4,9.2c-5.6,1.5-11.5,1.9-17.3,2.5
	c-7.4,0.8-7.3,0.7-9,8c-1.4,5.9-3.6,11.7-5.3,17.6c-5.5,18.9-7.9,38.2-8,57.8c0,3.6-0.9,7.2-1,10.8c-0.4,10.1-0.2,20,3.6,29.7
	c0.9,2.2,1,6-0.3,7.6c-2.3,2.9-6.5,2.4-9.1,0.3c-3.8-3.1-7.1-7-10.3-10.8c-2.6-3.2-4.5-7.1-7-10.4c-3.8-5.1-7.4-5.6-10.6-0.6
	c-4.1,6.5-9.5,12.5-10.3,20.7c-0.1,0.8-0.1,1.9-0.6,2.4c-1.5,1.7-3.6,4.8-4.9,4.6c-2.2-0.4-4.2-2.8-6-4.7c-0.6-0.6-0.5-2.1-0.5-3.2
	c-0.3-24.2-8-47.1-13.1-70.4c-0.6-3-2.2-5.7-3.3-8.6c-1.7-4.5-3.3-8.9,0.1-13.5c0.8-1,0.5-3.1,0.2-4.7c-1-4.9-2.4-9.8-3.2-14.7
	c-0.8-4.9-4-6.8-8.1-6.9c-9.8-0.3-19.5-0.3-29.3-0.1c-1.8,0-4.4,1.4-5.2,2.9c-2.1,4.2-3.8,8.7-5.1,13.2c-7.4,26.1-6.7,52.3-0.9,78.6
	c1.8,8.2,3.8,16.3,9.1,23.1c2.9,3.7,2.6,7.1-1.1,10.5c-3.9,0.3-6.8-1.5-8.9-4.8c-4.3-6.8-8.4-13.8-12.8-20.6
	c-2.8-4.4-5.9-8.5-9.6-13.8c-10.8,15.1-13.7,31-15.3,47.3c-7.1,3.4-11.9,2-12.1-5c-0.4-12.9-5.7-24.3-8.9-36.3
	c-2.6-9.7-3.5-19.8-6.5-29.3c-4.8-15.1-10.7-29.9-16.1-44.8c-2-5.5-4.1-11-6.1-16.5c-2.7-7.5-8.1-10.5-15.8-11.4
	c-17.7-2.1-35.3-4.9-52.9-7.4c-7.2-1-14.3-2.2-21.4-3.1c-9.8-1.3-18.8-4.3-27.5-9.2c-8.7-4.8-18.2-8.5-27.6-12.1
	c-16.2-6.4-31.5-14.4-45.2-24.9c-11.4-8.8-22.7-18-30.5-30.7c-6-9.8-7.6-19.6-4.6-30.9c4.9-18,8.1-36.4,9.6-55.1
	c1-12.5,1.9-25,2.8-37.5C166.4,586,166.3,583.2,166.3,579.3z M216.7,545c-4.3,9.4-4.4,9.3-12.2,12.8c-3.1,1.3-6.6,2.3-8.9,4.5
	c-7.7,7.1-13.6,15.5-15.4,26.2c-3,18.7-5.2,37.6-9.3,56c-4.1,18.1-3.6,36.5-5.7,54.6c-0.1,1,0.1,2.4,0.6,3.2
	c3.4,5,6.2,10.8,10.6,14.8c12.1,10.8,25.5,19.9,39.8,27.6c12.2,6.6,25.1,12.3,36.9,19.5c18.5,11.3,39.1,14.2,59.9,16.9
	c8.8,1.1,17.9,0.2,26.5,2.1c16.6,3.6,33.3,6.9,50.3,8.2c19.9,1.5,39.7,4.9,59.9,3.4c10.7-0.8,21.6-0.3,32.4-0.1
	c10.3,0.2,20.6,1,30.9,1c13.1,0,26.2,0,39.2-1.3c13.2-1.3,26.3-4.2,39.4-6.7c3.5-0.7,6.7-2.8,10.2-3.5c9.3-1.8,18.6-3.2,27.9-4.9
	c8.2-1.5,16.6-2.4,24.5-4.7c17.3-5.1,33.2-13.1,47.3-24.5c7.3-5.9,14.4-12.3,22.3-17.3c11.2-7,18.6-17.3,26.7-27.1
	c2.8-3.5,3.6-7.1,1.8-11.6c-5.6-14.6-7.6-30.1-11.4-45.2c-2.2-8.9-4.4-17.8-7.2-26.5c-2.5-7.8-5.1-8.6-12.2-5.1
	c-3,1.5-6.1,2.9-9.3,3.7c-3.1,0.8-5.5-1.1-6.7-3.8c-1.3-2.9,0.7-4.7,3-6.1c1.7-1,3.4-1.9,5.1-2.9c11.8-7,23-14.8,32-25.2
	c6.5-7.6,12.6-15.6,18.3-23.9c12.4-18.1,22.6-37.5,32.6-57.1c2.8-5.4,4.5-11.3,7.2-16.7c5.5-10.6,11.3-21.1,17.2-31.5
	c3.7-6.6,3.9-10.9-0.7-16.1c-5.1-5.8-11-10.9-17.2-17c-3.6,3.2-7.1,5.6-9.7,8.6c-6.5,7.7-12.2,16-18.9,23.4
	c-6,6.5-12.7,12.4-19.6,18c-4.5,3.7-10.3,4.9-16.1,6.2c-9.4,2.1-18.8,5.3-27.5,9.4c-10.7,5.1-21.7,9.7-33.2,10.6
	c-17.8,1.3-34.3,7.2-51.4,10.9c-15.5,3.4-30.5,8.6-45.8,12.8c-18.9,5.2-38.2,7.3-57.7,8.5c-3.8,0.2-7.7,1.2-11.2,2.6
	c-11.7,4.6-23.5,7-36,4.4c-1.6-0.3-3.4-0.2-4.9,0.3c-7.5,2.6-14.7,1.3-22.1-0.5c-11.1-2.6-22.2-5-33.5-6.7c-7.5-1.1-14.7-2.3-22-4.7
	c-8.4-2.9-17.3-4.3-26-6.4c-6.8-1.6-13.9-2.3-20.2-5c-16.6-7.2-33.1-14.7-49.1-23c-12.3-6.4-23.9-14.4-35.9-21.6
	c-11-6.6-21.6-13.8-30.5-23.3c-1.9-2-4.5-3.4-6.7-5c-10.7-8-19.9-17.5-27.7-28.3c-1.8-2.5-4.4-4.5-6.8-6.9c-2.1,3.5-3.3,6.5-5.4,8.5
	c-6.2,5.7-10.9,12.5-16.2,19c-11.3,13.7-23.6,26.6-35.4,40c-7.6,8.6-15.1,17.2-22.5,25.9c-7.8,9.1-15.4,18.3-23.2,27.4
	c-8,9.3-16.1,18.4-24.2,27.6c-2.2,2.6-3.2,5.5-0.5,8.1c9.4,9.1,18.9,18.1,28.6,26.9c3,2.7,6,2.5,9.7-0.3c8-6.1,16.1-12.2,24.9-16.9
	c17.2-9.1,34.6-17.8,53.6-22.9c10.4-2.8,20.6-4.7,31.2-4.5C213,544,214.7,544.6,216.7,545z M486,520.5c15.5-1.6,31-3.1,46.5-4.8
	c9.1-1,18.3-2.2,27.3-3.7c11.5-2,23.1-3.8,34.3-7c12.3-3.5,24.1-8.5,36.2-12.9c8-2.9,16.1-6,24.1-9c19.7-7.3,33.2-22.1,45.9-37.8
	c1.4-1.8,1.6-4.6,2.1-7c1.7-7.1-1.4-13.7-2.1-20.6c-1.4-12.7-1.5-25.7-3.8-38.2c-3.1-17.1-2.9-34.4-4.3-51.6
	c-1.3-15.8-6.4-30.4-15.3-42.7c-8.7-12-17.3-23.9-23.9-37.1c-5.8-11.7-11-23.8-17.1-35.3c-4.5-8.6-9.7-16.8-14.9-25
	c-2.6-4-5.9-7.5-9-11c-6.6-7.2-12.7-15.1-20.1-21.3c-8.9-7.5-19-13.7-28.7-20.1c-9.3-6.2-18.9-11.8-29.9-14.7
	c-7.5-2-14.9-4.5-22.4-6.8c-13.6-4.2-26.9-9.3-41.3-9.8c-2.2-0.1-4.3-1-6.5-1.5c-4.9-1.1-9.7-2.6-14.6-3.3
	c-11.3-1.5-22.5-2.4-34-2.1c-10.8,0.2-21.5-1-32.4,0.6c-18.8,2.9-36.2,9.5-52.6,18.3c-15.6,8.4-30.3,18.7-45.7,27.6
	c-15.3,8.9-29.1,19.5-40.6,33c-6.5,7.6-12.1,16-18.7,23.5c-5.9,6.7-9.3,14.4-12.7,22.4c-4.8,11.3-10.4,22.2-14.9,33.7
	c-5,13-9.1,26.2-9.9,40.4c-0.8,13.6-2.1,27.2-3.2,40.8c-0.4,5.3-0.9,11.2,2.9,15.1c3.5,3.6,3.5,7.1,3.3,11.4
	c-0.3,5.3,0,10.6,0.3,15.9c0.1,1.9,0.5,4,1.6,5.4c8.4,11.4,16.5,23.2,25.8,33.9c5,5.8,11.8,10,18.2,14.6c8.8,6.3,17.8,12.4,27,18.2
	c9.4,5.9,19.3,11.1,28.7,17c10.9,6.7,21.2,14.6,32.5,20.5c18.5,9.8,38,16.9,59.1,20.1c12.7,1.9,25.8-1,38.1,4.1
	c0.9,0.4,2.2-0.2,3.3-0.2c2.7,0,5.5-0.2,8.2,0.2C450.4,516.3,467.8,520.4,486,520.5z M691.6,106.2c-3.9,0.3-6.6,0.5-9.3,0.7
	c-13.5,0.9-26.8,4.7-40.6,2.7c-3.8-0.6-8.3,1-12,2.7c-8.6,4-16.9,8.5-25.2,13.2c-2.8,1.6-5.3,4.1-7.5,6.5c-3.6,4.1-3.4,6.2,0.9,9.7
	c2.8,2.3,6.3,3.8,8.7,6.4c8,8.9,16,17.8,23.4,27.2c5.7,7.2,7.7,8,14.5,1.8c2.3-2.1,3.8-5.4,5.3-8.3c0.9-1.7,1-3.8,1.7-5.6
	c1.3-3.2,4.1-3.7,6.9-3c2.9,0.7,3.9,3,3.1,5.9c-0.6,2.1-1.2,4.3-2.2,6.3c-4.4,9.4-6.9,19.4-8.5,29.6c-0.3,2.2-1.1,4.8-0.3,6.5
	c3.9,8.9,8.3,17.6,12.6,26.3c1.7,3.5,4.3,4.5,8.3,2.7c10.4-4.9,19-11.8,23.9-22.4c1.6-3.5,2.3-7.4,3.4-11.1
	c4.3-14.3,6.5-28.6,2.1-43.5c-2.2-7.4-2.9-15.3-4.2-23C695.1,127.5,693.5,117.3,691.6,106.2z M251.4,143.6c2.5-1.2,3.4-1.4,3.9-1.9
	c8-6.5,16-12.9,23.8-19.7c2.2-1.9,4.5-4.9,4.7-7.6c1.3-15.1,10.5-28.3,10.6-43.7c0-1.3,0.8-2.8,1.7-3.7c2.2-2.5,5.2-3.9,8.2-1.8
	c2.6,1.9,3.9,5,2.1,8.1c-5,8.7-2.5,17.3,0.9,25.5c2.7,6.6,5.8,7.5,12.6,5.4c13.1-4.1,25.3-10,37.1-17.1c8.6-5.2,8.7-14.8,4.3-21.7
	c-4.7-7.5-11.3-14.1-19.5-17.9c-11.6-5.4-21.1-13.3-30.4-21.7c-3.2-2.9-5.7-3-8.4,0.6c-5.1,7-9.6,14.4-18.1,17.9
	c-0.7,0.3-1.2,1.2-1.8,1.7c-4.8,4.2-9.4,8.8-14.6,12.5c-10.8,7.6-19,16.9-22.5,30c-1.2,4.6-2.1,8.8-1.1,13.8
	C247.7,115.6,254.2,128.2,251.4,143.6z M841.5,270.4c-0.7,1.1-1.6,1.8-1.6,2.4c0.1,9.4-0.1,18.9,0.8,28.3c0.5,6.3,3.9,12.5,3.6,18.6
	c-0.4,9.8,4.6,16.3,11.9,20.2c16.1,8.5,32.7,6.6,47.2-3.7c14.9-10.7,20.3-26.6,18.2-44.8c-0.6-4.9-2.7-9.6-4.3-14.3
	c-2.3-6.7-3.5-7-10.5-4.6c-5,1.7-10.2,4.1-15.2,3.9c-13.8-0.7-27.9,0.1-41.4-4.1C847.4,271.4,844.4,271,841.5,270.4z M582.2,873.9
	c1.2-10.2,2.6-20,3.6-29.9c1-9.7,1.5-19.4,5.4-28.5c1.9-4.4,2.7-9,0.8-13.9c-21,2-41.6,4-63.3,6.1c-2.5,3.3-2.1,8.3-1.3,12.8
	c2.8,16.5,6.1,32.9,9.2,49.3c0.8,4,3,5.8,7.4,6.4C557,878.1,569.5,875.4,582.2,873.9z M395.5,804.8c-0.2,2.6-0.5,4.6-0.3,6.5
	c1.4,15.5,4,30.8,10.1,45.3c3.9,9.5,3.9,9.6,14.5,8.4c7.7-0.9,15.5-1.8,23.1-3.3c6.3-1.3,6.6-2.2,7.1-8.3c0.4-4.4,1.3-8.8,1.4-13.3
	c0.3-8.9,0.5-17.8,0.2-26.8c-0.2-5.8-1.3-6.6-7-7.1c-5.8-0.5-11.6-1.3-17.5-1.5C416.9,804.7,406.6,804.8,395.5,804.8z M894.9,427.1
	c-2.7-0.4-4.7-0.4-6.4-1.1c-5.7-2.6-10.3-0.4-14.7,2.9c-2.4,1.9-4.6,4.1-6.7,6.3c-6.7,6.8-5.7,9.9,3.3,13.5
	c9.2,3.7,18.3,3.2,27.8,1.9c16.6-2.2,31.7-7.6,45.2-16.8c1-6.9-4.1-8.1-8.1-9.5c-8.8-3.1-18-6.5-25.4,3.4
	c-7.1-7.4-6.8-17.2-10.9-25.5C897.8,410.5,896.4,418.2,894.9,427.1z M845.9,258.7c1.5,4.9,5.2,5.6,8.7,6.5c12.3,3.1,24.9,2,37.4,1.7
	c5.5-0.1,10-2.8,12.9-7.8c-0.7-0.9-1-1.8-1.6-2.2c-9.9-6.8-20.9-8.3-32.5-6.5c-3.6,0.5-7.1,1.1-10.7,1.5
	C854.6,252.4,849.7,253.8,845.9,258.7z"/>
<path fill-rule="evenodd" clip-rule="evenodd" d="M908.3,230.5c-7.7,0.1-10-3.4-8.3-8.6c1.4-4.2,2.2-8.6,3.4-12.8
	c0.8-2.9,1.6-5.9,2.8-8.7c2.6-6.2,2.4-11.7,0-18.4c-4.7-13.2-4.5-26.8,2.5-39.6c3-5.4,9-8,14.8-7c8.2,1.4,13.8,6,15.2,12.3
	c0.8,3.8,1.5,7.6,2.3,11.4c1.8,8.1,0.2,15.4-4.9,22c-1.5,2-3.1,3.9-4.9,5.7c-4.2,4.2-6.2,9.2-5.6,15.1c0.9,9.4-3,16.9-9.4,23.2
	C913.6,227.9,910,229.4,908.3,230.5z"/>
<path fill-rule="evenodd" clip-rule="evenodd" d="M907.2,51.7c3,1.4,5.1,2.1,6.9,3.3c7.3,4.9,9.9,19.2,3.6,25
	c-7.8,7.2-7.5,14.7-4,23.3c0.2,0.5,0.3,1.1,0.5,1.6c1.2,2.9,2.8,6-1.3,7.8c-3.4,1.5-8-1-9.6-4.5c-1.6-3.4-3.3-6.9-5.5-9.9
	c-6-7.7-8.5-15.8-5-25.5c2-5.5,2.4-11.6,6.7-15.9C901.7,54.8,904.7,53.4,907.2,51.7z"/>
<path fill-rule="evenodd" clip-rule="evenodd" d="M951.8,109.8c0.4-10.9,6.3-19.5,12.9-27.3c3.9-4.6,8.8-8.7,13.9-11.8
	c9.1-5.5,20.3,0.8,20.8,11.1c0.3,5.9-1.1,8.2-7.1,9.3c-7.3,1.4-13.7,4.3-19.5,8.9c-3.3,2.5-5.7,5.2-5.9,9.6
	c-0.1,1.1-0.5,2.1-0.9,3.2c-1.8,5.9-3.6,7.6-7.7,6.8C953.7,118.7,951.6,115.5,951.8,109.8z"/>
<path fill-rule="evenodd" clip-rule="evenodd" d="M970.2,162.5c-3.5-1.6-7.6-2.9-10.9-5.1c-3.3-2.2-2.9-6.8,0.9-8
	c5.9-1.9,12.3-4.2,18.5-1.3c2.2,1,4.5,3.3,5.4,5.6c1.2,3.3-2,4.8-4.6,5.9C976.7,160.7,973.7,161.4,970.2,162.5z"/>
<path fill-rule="evenodd" clip-rule="evenodd" d="M881.6,132.6c-5-0.4-9.9-5.9-9.4-10.9c0.1-1.3,1.5-3.1,2.8-3.7
	c3.5-1.7,11.7,2.4,13.1,6.2C889.9,129.5,887.2,133,881.6,132.6z"/>
<path fill-rule="evenodd" clip-rule="evenodd" fill="#FFFFFF" d="M216.7,545c-2-0.4-3.7-0.9-5.5-1c-10.6-0.2-20.8,1.7-31.2,4.5
	c-19.1,5.1-36.5,13.8-53.6,22.9c-8.8,4.7-16.9,10.8-24.9,16.9c-3.6,2.8-6.7,3-9.7,0.3c-9.7-8.8-19.2-17.8-28.6-26.9
	c-2.7-2.6-1.8-5.6,0.5-8.1c8.1-9.2,16.2-18.4,24.2-27.6c7.8-9.1,15.4-18.3,23.2-27.4c7.4-8.7,14.9-17.3,22.5-25.9
	c11.8-13.3,24.1-26.2,35.4-40c5.3-6.4,10-13.3,16.2-19c2.1-2,3.2-5,5.4-8.5c2.4,2.4,5,4.4,6.8,6.9c7.9,10.8,17,20.3,27.7,28.3
	c2.2,1.7,4.8,3,6.7,5c8.9,9.5,19.4,16.7,30.5,23.3c12,7.2,23.5,15.1,35.9,21.6c16,8.3,32.5,15.9,49.1,23c6.3,2.7,13.5,3.4,20.2,5
	c8.7,2.1,17.6,3.5,26,6.4c7.2,2.5,14.5,3.6,22,4.7c11.2,1.7,22.4,4.1,33.5,6.7c7.4,1.7,14.6,3.1,22.1,0.5c1.5-0.5,3.3-0.6,4.9-0.3
	c12.5,2.6,24.3,0.1,36-4.4c3.5-1.4,7.4-2.4,11.2-2.6c19.5-1.3,38.8-3.3,57.7-8.5c15.3-4.2,30.4-9.4,45.8-12.8
	c17.1-3.8,33.6-9.6,51.4-10.9c11.5-0.8,22.5-5.5,33.2-10.6c8.7-4.2,18.1-7.3,27.5-9.4c5.8-1.3,11.6-2.5,16.1-6.2
	c6.9-5.6,13.6-11.5,19.6-18c6.8-7.4,12.4-15.7,18.9-23.4c2.6-3.1,6.1-5.4,9.7-8.6c6.2,6.1,12,11.2,17.2,17c4.7,5.2,4.4,9.5,0.7,16.1
	c-5.8,10.5-11.7,20.9-17.2,31.5c-2.8,5.4-4.5,11.3-7.2,16.7c-10,19.5-20.2,38.9-32.6,57.1c-5.6,8.3-11.7,16.3-18.3,23.9
	c-9,10.4-20.2,18.2-32,25.2c-1.7,1-3.4,1.9-5.1,2.9c-2.3,1.4-4.3,3.1-3,6.1c1.2,2.7,3.6,4.6,6.7,3.8c3.2-0.8,6.3-2.2,9.3-3.7
	c7.2-3.5,9.8-2.7,12.2,5.1c2.8,8.7,5,17.6,7.2,26.5c3.8,15.1,5.9,30.6,11.4,45.2c1.7,4.5,1,8.2-1.8,11.6
	c-8.1,9.9-15.5,20.1-26.7,27.1c-7.9,5-15,11.4-22.3,17.3c-14.1,11.4-30,19.4-47.3,24.5c-8,2.3-16.3,3.2-24.5,4.7
	c-9.3,1.7-18.7,3-27.9,4.9c-3.5,0.7-6.7,2.9-10.2,3.5c-13.1,2.5-26.2,5.3-39.4,6.7c-13,1.3-26.1,1.2-39.2,1.3
	c-10.3,0-20.6-0.8-30.9-1c-10.8-0.2-21.7-0.7-32.4,0.1c-20.2,1.5-39.9-2-59.9-3.4c-17-1.2-33.6-4.5-50.3-8.2
	c-8.6-1.9-17.7-0.9-26.5-2.1c-20.7-2.7-41.4-5.6-59.9-16.9c-11.9-7.2-24.7-12.9-36.9-19.5c-14.3-7.7-27.7-16.8-39.8-27.6
	c-4.4-4-7.2-9.7-10.6-14.8c-0.6-0.8-0.7-2.2-0.6-3.2c2-18.2,1.6-36.5,5.7-54.6c4.2-18.4,6.3-37.3,9.3-56
	c1.7-10.7,7.6-19.1,15.4-26.2c2.4-2.2,5.9-3.1,8.9-4.5C212.3,554.3,212.4,554.3,216.7,545z M372.7,713.9c0.3,4.1,0.3,7.2,1,10.2
	c0.7,3.2,2,6.4,3.3,9.5c6.9,15.7,24.2,25.3,39.4,21.8c13.3-3.1,22.8-11.1,28.7-23.4c5.3-10.8,4.7-21-3.1-30.4
	c-3.4-4.1-6.9-8.1-10.3-12.1c-6.9-8.1-16.8-10.3-27.1-7.9c-11.7,2.8-18.9,11.3-27,18.9C373.5,704.4,371.8,709.2,372.7,713.9z
	 M448.2,587.7c1.6-7.9-1.6-14.3-8-19.5c-3-2.4-6-5-9-7.5c-6.8-5.8-14.2-8.8-23.2-5.4c-1.7,0.7-3.9,0.2-5.8,0.3
	c-14.4,0.4-26.7,9.7-29.5,23.7c-1.5,7.5-1.7,15.6-1.2,23.3c0.8,10.7,6.6,18.2,17.2,21.4c5.3,1.6,10.7,3.6,16.2,4
	c11.6,0.9,22.9-0.6,31.5-9.7C444.6,609.9,448.9,600,448.2,587.7z"/>
<path fill-rule="evenodd" clip-rule="evenodd" fill="#FFFFFF" d="M486,520.5c-18.2-0.1-35.6-4.2-53.2-6.9c-2.7-0.4-5.4-0.2-8.2-0.2
	c-1.1,0-2.4,0.6-3.3,0.2c-12.3-5.1-25.4-2.2-38.1-4.1c-21-3.1-40.5-10.3-59.1-20.1c-11.3-6-21.6-13.8-32.5-20.5
	c-9.5-5.8-19.3-11.1-28.7-17c-9.2-5.8-18.2-11.9-27-18.2c-6.3-4.5-13.2-8.8-18.2-14.6c-9.3-10.7-17.4-22.5-25.8-33.9
	c-1.1-1.4-1.5-3.6-1.6-5.4c-0.3-5.3-0.6-10.6-0.3-15.9c0.2-4.3,0.2-7.8-3.3-11.4c-3.8-4-3.3-9.8-2.9-15.1c1-13.6,2.4-27.2,3.2-40.8
	c0.8-14.1,4.9-27.4,9.9-40.4c4.4-11.4,10.1-22.4,14.9-33.7c3.4-8,6.8-15.7,12.7-22.4c6.6-7.5,12.2-15.9,18.7-23.5
	c11.5-13.5,25.3-24.1,40.6-33c15.4-9,30-19.2,45.7-27.6c16.4-8.8,33.8-15.4,52.6-18.3c10.9-1.7,21.6-0.4,32.4-0.6
	c11.5-0.2,22.7,0.7,34,2.1c4.9,0.6,9.7,2.1,14.6,3.3c2.2,0.5,4.3,1.4,6.5,1.5c14.4,0.6,27.8,5.6,41.3,9.8c7.4,2.3,14.9,4.8,22.4,6.8
	c11,2.9,20.6,8.5,29.9,14.7c9.8,6.4,19.8,12.7,28.7,20.1c7.4,6.2,13.5,14,20.1,21.3c3.2,3.5,6.5,7,9,11c5.3,8.1,10.5,16.4,14.9,25
	c6.1,11.6,11.3,23.6,17.1,35.3c6.6,13.3,15.2,25.1,23.9,37.1c8.9,12.3,14,26.9,15.3,42.7c1.4,17.2,1.2,34.5,4.3,51.6
	c2.3,12.6,2.4,25.5,3.8,38.2c0.7,6.9,3.8,13.5,2.1,20.6c-0.6,2.4-0.7,5.3-2.1,7c-12.7,15.7-26.2,30.5-45.9,37.8c-8,3-16,6-24.1,9
	c-12,4.4-23.9,9.4-36.2,12.9c-11.2,3.2-22.8,5-34.3,7c-9,1.6-18.2,2.7-27.3,3.7C517,517.4,501.5,518.9,486,520.5z M494.1,175.3
	c1.8-9.4,4.7-17.4,11.5-23.5c2.1-1.9,3-4.6,0.6-6.5c-1.7-1.4-4.4-1.8-6.6-2c-1.1-0.1-2.5,1.2-3.4,2.2c-9.6,10.2-18.4,20.9-22.9,34.5
	c-0.7,2-2.2,3.9-3.8,5.2c-5.3,4-10.9,7.8-16.4,11.5c-9,6-14.4,14.4-17.7,24.6c-3.1,9.4-1.8,18.8-1.2,28.2c0.6,8.4,1.7,16.8,6.3,24
	c10,15.5,22.7,28.4,40,35.6c8.4,3.5,17.2,6.7,26.8,5.1c8.3-1.4,16.6-3.4,23.3-8.6c10.3-7.9,20.2-16.4,29.1-23.7
	c1.3-6.5,2.4-11.6,3.3-16.8c0.4-2.4,1-5.1,0.4-7.4c-2.8-11.3-3.6-23.2-9.2-33.7c-1.7-3.2-1-5.7,1-8.5c4.6-6.2,10-11.2,17.4-13.2
	c0-7.6-3.3-10.3-9.6-7.8c-5.2,2.1-10,4.9-14.9,7.7c-3.1,1.7-5.6,2.1-8.2-0.7c-1.3-1.4-2.9-2.6-4.5-3.8c-3.6-2.6-4.1-6.3-1.9-9.6
	c2.4-3.6,5.6-6.8,8.8-9.7c3.9-3.5,4.1-5.4,0.3-8.7c-2.8-2.4-5.8-3.2-9.1-1c-4.4,2.9-8.8,6-13.2,8.9c-1.6,1-3.3,2.4-5.1,2.5
	C508,180.7,501,179.6,494.1,175.3z M381.8,417.7c0-0.3,0.1-0.6,0.1-1c2.5,0,5.1,0.3,7.5-0.1c8-1.1,15.9-2.3,23.8-3.6
	c1-0.2,2.1-0.8,3-1.5c9.7-6.9,19.2-14.2,27.7-22.7c5.5-5.5,7.2-11.7,5.6-19.1c-1.1-5.2-2.1-10.4-3.6-15.5c-0.8-2.9-2.4-5.5-3.9-8.1
	c-1.8-3.1-3.8-6.1-5.7-9.1c-2.2-3.5-3.6-8.7-6.8-10.3c-5.6-2.8-8.2-8.2-12.6-11.8c-1.7-1.4-3.5-3.4-5.4-3.6
	c-10.6-0.8-21.1-6.1-32-1.3c-0.7,0.3-1.6,0.2-2.4,0.2c-6.9,0.3-13.9-0.1-20.7,1c-5,0.8-10,3.1-14.5,5.7c-13.2,7.7-18.6,21-23.8,34.3
	c-3.1,8-3.6,16.4-1.4,24.6c5.1,19,19.8,29.3,36.5,36.3C362.1,415.9,372.3,416,381.8,417.7z M322.3,154.5c-1.6-4.7-2.8-8.9-4.4-13
	c-1.1-3.1-3.5-4.4-6.7-3.3c-2.8,1-2.6,3.3-2.8,6c-0.8,10.9-2.6,20.8-13.1,28c-17.3,11.9-22.4,30.5-20.7,50.1
	c1.9,22,15.4,36.4,35.6,44.7c16.5,6.8,32.4,2.9,47.8-3.6c20.4-8.5,39.6-39.1,27.2-64.7c-2.3-4.7-3.9-9.8-5.5-14.8
	c-1-3.1-1.9-6.6-1.5-9.7c1.1-8.5,3-16.9,4.5-25.4c1.1-5.9-0.4-10-3.8-10.6c-3.4-0.5-5.8,2.5-7.2,8.6c-1,4.6-2.1,9.2-3.6,13.6
	c-1.3,3.9-4.5,4.8-8.2,3.2c-2.4-1-4.6-2.7-7.3-4.2c4.7-9.6-2.1-18.3-0.3-27.3c0.2-1.1-2.3-2.8-3.7-4.4
	c-10.9,5.9-13.1,15.9-14.4,26.7C330.3,154.5,326.2,154.5,322.3,154.5z M505.9,437.3c-0.2-0.9-0.4-1.9-0.6-2.8
	c-3.1-0.4-6.3-1.2-9.3-1.1c-14.9,0.6-28.6,6.3-42.6,10.8c-7.1,2.3-7.3,7.4-5,12.3c1.1,2.5,2.7,4.9,4.5,7c3.9,4.7,7.4,4.2,11.4-0.3
	c2.8-3.2,6.3-6.2,10-8.3c7.8-4.3,15.9-7.9,23.8-12C500.9,441.3,503.3,439.1,505.9,437.3z"/>
<path fill-rule="evenodd" clip-rule="evenodd" fill="#FFFFFF" d="M691.6,106.2c1.8,11.1,3.5,21.2,5.2,31.3c1.3,7.7,2,15.6,4.2,23
	c4.4,14.9,2.2,29.2-2.1,43.5c-1.1,3.7-1.8,7.6-3.4,11.1c-4.9,10.6-13.5,17.4-23.9,22.4c-4,1.9-6.5,0.8-8.3-2.7
	c-4.3-8.7-8.7-17.4-12.6-26.3c-0.8-1.8-0.1-4.4,0.3-6.5c1.6-10.2,4.1-20.2,8.5-29.6c0.9-2,1.6-4.1,2.2-6.3c0.8-2.9-0.1-5.1-3.1-5.9
	c-2.8-0.7-5.7-0.2-6.9,3c-0.7,1.8-0.8,3.9-1.7,5.6c-1.5,2.9-3,6.1-5.3,8.3c-6.8,6.2-8.8,5.4-14.5-1.8c-7.4-9.4-15.4-18.4-23.4-27.2
	c-2.4-2.6-5.9-4.1-8.7-6.4c-4.3-3.5-4.6-5.6-0.9-9.7c2.2-2.5,4.7-4.9,7.5-6.5c8.2-4.7,16.6-9.2,25.2-13.2c3.7-1.7,8.2-3.2,12-2.7
	c13.8,2,27.1-1.8,40.6-2.7C685,106.7,687.7,106.5,691.6,106.2z"/>
<path fill-rule="evenodd" clip-rule="evenodd" fill="#FFFFFF" d="M251.4,143.6c2.8-15.4-3.7-28.1-6.4-41.3c-1-5-0.2-9.2,1.1-13.8
	c3.5-13.1,11.7-22.4,22.5-30c5.2-3.7,9.8-8.3,14.6-12.5c0.6-0.5,1.1-1.4,1.8-1.7c8.5-3.5,13-11,18.1-17.9c2.7-3.6,5.2-3.5,8.4-0.6
	c9.3,8.4,18.8,16.3,30.4,21.7c8.2,3.8,14.7,10.4,19.5,17.9c4.3,6.9,4.3,16.6-4.3,21.7c-11.8,7.1-23.9,13.1-37.1,17.1
	c-6.9,2.1-9.9,1.2-12.6-5.4c-3.4-8.2-5.9-16.8-0.9-25.5c1.8-3.1,0.6-6.2-2.1-8.1c-2.9-2.1-5.9-0.7-8.2,1.8c-0.9,1-1.7,2.5-1.7,3.7
	c-0.1,15.4-9.3,28.5-10.6,43.7c-0.2,2.7-2.5,5.7-4.7,7.6c-7.7,6.8-15.8,13.2-23.8,19.7C254.8,142.3,254,142.5,251.4,143.6z"/>
<path fill-rule="evenodd" clip-rule="evenodd" fill="#FFFFFF" d="M841.5,270.4c2.9,0.6,5.8,1,8.7,1.9c13.5,4.2,27.5,3.4,41.4,4.1
	c5,0.3,10.2-2.2,15.2-3.9c7-2.4,8.2-2.1,10.5,4.6c1.6,4.7,3.8,9.4,4.3,14.3c2.1,18.1-3.3,34.1-18.2,44.8
	c-14.4,10.3-31.1,12.1-47.2,3.7c-7.3-3.8-12.3-10.4-11.9-20.2c0.2-6.1-3.1-12.3-3.6-18.6c-0.8-9.4-0.6-18.9-0.8-28.3
	C839.9,272.2,840.8,271.5,841.5,270.4z M869.3,311.3c5.9-4.1,1.7-8.2,2.5-11.8c0.4-1.7-0.1-4-1-5.5c-0.7-1.2-2.6-2.2-4-2.3
	c-2,0-4.1,0.9-6.1,1.5c-0.7-1.5-1.2-3.1-2-4.6c-0.4-0.7-0.9-1.4-1.5-2c-3-2.7-7.2-1.7-7.4,2.2c-0.6,8.3-0.6,16.7,2.6,24.6
	c1.2,2.9,2.7,6.3,7.8,4.6c-0.1-2.8-0.4-5.5-0.4-8.3c0-2.8-0.9-6.1,2.4-8C864.5,305.1,866.7,308.1,869.3,311.3z"/>
<path fill-rule="evenodd" clip-rule="evenodd" fill="#FFFFFF" d="M582.2,873.9c-12.8,1.4-25.3,4.2-38.2,2.3
	c-4.4-0.6-6.6-2.4-7.4-6.4c-3.2-16.4-6.5-32.8-9.2-49.3c-0.8-4.5-1.2-9.5,1.3-12.8c21.6-2.1,42.3-4.1,63.3-6.1
	c2,4.9,1.1,9.5-0.8,13.9c-3.9,9.1-4.5,18.8-5.4,28.5C584.8,853.9,583.5,863.7,582.2,873.9z"/>
<path fill-rule="evenodd" clip-rule="evenodd" fill="#FFFFFF" d="M395.5,804.8c11.1,0,21.4-0.2,31.6,0.1c5.8,0.1,11.6,1,17.5,1.5
	c5.7,0.5,6.9,1.2,7,7.1c0.3,8.9,0.1,17.8-0.2,26.8c-0.1,4.4-1,8.8-1.4,13.3c-0.5,6.1-0.8,7-7.1,8.3c-7.6,1.5-15.4,2.5-23.1,3.3
	c-10.6,1.2-10.6,1-14.5-8.4c-6-14.5-8.7-29.8-10.1-45.3C395,809.4,395.4,807.5,395.5,804.8z"/>
<path fill-rule="evenodd" clip-rule="evenodd" fill="#FFFFFF" d="M894.9,427.1c1.5-8.9,2.9-16.6,4.3-25c4.1,8.2,3.8,18.1,10.9,25.5
	c7.3-9.8,16.5-6.5,25.4-3.4c3.9,1.4,9,2.6,8.1,9.5c-13.5,9.2-28.7,14.6-45.2,16.8c-9.5,1.3-18.6,1.8-27.8-1.9
	c-9.1-3.6-10.1-6.8-3.3-13.5c2.2-2.2,4.3-4.4,6.7-6.3c4.4-3.3,9-5.5,14.7-2.9C890.2,426.7,892.3,426.7,894.9,427.1z"/>
<path fill-rule="evenodd" clip-rule="evenodd" fill="#FFFFFF" d="M845.9,258.7c3.8-4.8,8.7-6.3,14.1-6.9c3.6-0.4,7.1-1,10.7-1.5
	c11.6-1.7,22.6-0.3,32.5,6.5c0.6,0.4,1,1.3,1.6,2.2c-2.9,5-7.3,7.7-12.9,7.8c-12.5,0.3-25.1,1.3-37.4-1.7
	C851.1,264.3,847.4,263.5,845.9,258.7z"/>
<path fill-rule="evenodd" clip-rule="evenodd" d="M372.7,713.9c-0.9-4.7,0.8-9.5,4.9-13.4c8.1-7.6,15.2-16.1,27-18.9
	c10.3-2.4,20.2-0.2,27.1,7.9c3.4,4,6.9,8,10.3,12.1c7.8,9.4,8.4,19.6,3.1,30.4c-6,12.2-15.4,20.2-28.7,23.4
	c-15.2,3.6-32.5-6-39.4-21.8c-1.3-3.1-2.6-6.2-3.3-9.5C373,721.1,373.1,718,372.7,713.9z M429.9,718.8c-0.5-7-2.7-12.5-8-15.8
	c-5.2-3.1-11-5-16.3-7.7c-4.4-2.3-8-1.4-11.5,1.7c-1.7,1.5-3.7,2.6-5.4,4c-4.9,4.1-7.6,9.1-7.7,15.9c-0.2,14.5,7.6,26.9,24.9,31.2
	c3.6,0.9,9-1.1,12.2-3.5C426.7,738,426.8,727.3,429.9,718.8z"/>
<path fill-rule="evenodd" clip-rule="evenodd" d="M448.2,587.7c0.6,12.3-3.7,22.2-11.8,30.7c-8.7,9.1-19.9,10.6-31.5,9.7
	c-5.5-0.4-10.9-2.4-16.2-4c-10.6-3.1-16.5-10.7-17.2-21.4c-0.5-7.7-0.3-15.7,1.2-23.3c2.8-14,15.1-23.3,29.5-23.7
	c2,0,4.1,0.4,5.8-0.3c9-3.4,16.4-0.4,23.2,5.4c3,2.5,6,5,9,7.5C446.7,573.4,449.8,579.8,448.2,587.7z M405.2,619.8
	c3.3-0.3,6.3,0.2,8.1-1c5.5-3.7,10.7-7.9,15.9-12.1c1.2-1,2.3-2.7,2.5-4.2c0.7-5.8,1.6-11.6,1.4-17.4c-0.2-8.6-5.1-14-13.4-15.9
	c-4.1-1-8.4-1.1-12.2-2.7c-7.4-3.2-12.8-0.4-18.1,4.4c-8.2,7.5-9.1,17.5-9.4,27.6c-0.3,10,5.9,16.4,14.4,19.2
	C398.1,619,402.1,619.2,405.2,619.8z"/>
<path fill-rule="evenodd" clip-rule="evenodd" d="M494.1,175.3c6.9,4.3,13.9,5.4,21.3,4.8c1.7-0.1,3.5-1.5,5.1-2.5
	c4.4-2.9,8.8-5.9,13.2-8.9c3.3-2.2,6.3-1.4,9.1,1c3.8,3.2,3.5,5.2-0.3,8.7c-3.2,2.9-6.4,6.1-8.8,9.7c-2.2,3.3-1.6,6.9,1.9,9.6
	c1.6,1.2,3.2,2.3,4.5,3.8c2.6,2.8,5.2,2.4,8.2,0.7c4.9-2.7,9.7-5.6,14.9-7.7c6.3-2.5,9.5,0.2,9.6,7.8c-7.4,2.1-12.8,7.1-17.4,13.2
	c-2,2.7-2.7,5.3-1,8.5c5.6,10.5,6.4,22.4,9.2,33.7c0.6,2.3,0,4.9-0.4,7.4c-0.9,5.2-2,10.3-3.3,16.8c-8.9,7.3-18.8,15.8-29.1,23.7
	c-6.8,5.2-15,7.2-23.3,8.6c-9.6,1.6-18.4-1.6-26.8-5.1c-17.3-7.2-30-20.1-40-35.6c-4.6-7.1-5.7-15.6-6.3-24
	c-0.6-9.4-1.9-18.8,1.2-28.2c3.3-10.2,8.8-18.6,17.7-24.6c5.6-3.7,11.1-7.5,16.4-11.5c1.7-1.3,3.2-3.2,3.8-5.2
	c4.6-13.6,13.3-24.3,22.9-34.5c0.9-1,2.3-2.3,3.4-2.2c2.3,0.2,5,0.7,6.6,2c2.3,1.9,1.5,4.6-0.6,6.5
	C498.8,157.9,495.9,165.8,494.1,175.3z M442.2,241.8c-1.2,13.5,3.6,25.9,12.8,36.8c13,15.5,28.5,25.6,49.5,25.3
	c15.8-0.3,32.2-13.4,34-29.1c0.7-6.6,1.5-13.2,2.1-19.9c0.4-3.8,1.2-7.8,0.5-11.5c-3-17-8.2-32.7-22.4-44.5
	c-10.8-8.9-23.6-12-36.4-6.4c-4.8,2.1-9.5,4.8-14.4,6.6C450.2,205.9,440.1,224.5,442.2,241.8z"/>
<path fill-rule="evenodd" clip-rule="evenodd" d="M381.8,417.7c-9.5-1.7-19.8-1.7-28.5-5.4c-16.7-6.9-31.4-17.2-36.5-36.3
	c-2.2-8.3-1.7-16.6,1.4-24.6c5.2-13.3,10.6-26.7,23.8-34.3c4.5-2.6,9.5-4.9,14.5-5.7c6.8-1.1,13.8-0.7,20.7-1c0.8,0,1.7,0.1,2.4-0.2
	c10.8-4.8,21.3,0.4,32,1.3c1.9,0.1,3.7,2.2,5.4,3.6c4.4,3.7,7,9,12.6,11.8c3.2,1.6,4.6,6.8,6.8,10.3c1.9,3,4,6,5.7,9.1
	c1.5,2.6,3.1,5.3,3.9,8.1c1.5,5.1,2.4,10.3,3.6,15.5c1.6,7.4-0.1,13.6-5.6,19.1c-8.5,8.5-17.9,15.7-27.7,22.7
	c-0.9,0.6-1.9,1.3-3,1.5c-7.9,1.3-15.9,2.5-23.8,3.6c-2.5,0.3-5,0.1-7.5,0.1C381.9,417,381.9,417.4,381.8,417.7z M325.6,366.8
	c-0.2,8.3,2.3,15.5,8.2,21.3c3.3,3.3,7.6,5.7,10.8,9.1c3.9,4.2,8.7,6,13.9,7.1c5.2,1,10.5,1.5,15.7,2.6c9.1,2,18.4,2,25.8-3.3
	c7.1-5.1,14-11.6,18.3-19c7.8-13.3,5.7-28.3-4.3-40.5c-4.3-5.3-10.6-8.9-15.9-13.4c-7.5-6.3-16.5-10.1-25.7-11.6
	c-6.7-1.1-15.2-0.1-20.8,3.3C335.4,332.3,327,347.7,325.6,366.8z"/>
<path fill-rule="evenodd" clip-rule="evenodd" d="M322.3,154.5c3.9,0,7.9,0,12,0c1.3-10.8,3.5-20.8,14.4-26.7
	c1.4,1.6,3.9,3.3,3.7,4.4c-1.8,9.1,5,17.7,0.3,27.3c2.7,1.6,4.9,3.2,7.3,4.2c3.6,1.5,6.8,0.7,8.2-3.2c1.5-4.4,2.6-9,3.6-13.6
	c1.3-6.1,3.7-9.1,7.2-8.6c3.4,0.5,4.9,4.6,3.8,10.6c-1.6,8.5-3.4,16.9-4.5,25.4c-0.4,3.1,0.6,6.6,1.5,9.7c1.5,5,3.2,10.1,5.5,14.8
	c12.4,25.5-6.8,56.1-27.2,64.7c-15.4,6.4-31.3,10.4-47.8,3.6c-20.2-8.3-33.7-22.7-35.6-44.7c-1.7-19.7,3.4-38.3,20.7-50.1
	c10.5-7.2,12.3-17.2,13.1-28c0.2-2.8,0.1-5.1,2.8-6c3.1-1.1,5.5,0.2,6.7,3.3C319.5,145.6,320.8,149.8,322.3,154.5z M283.8,211.9
	c0,27.3,12.5,41.8,33.8,47.7c10.3,2.9,20.4,0.6,30.3-2.7c17.1-5.7,26-18.2,30.1-34.9c0.6-2.3,0.6-5.3-0.4-7.4
	c-3.2-7.1-6.5-14.3-10.7-20.7c-8.8-13.5-22.2-21.3-37-26.9c-2.3-0.9-5.6-0.4-7.9,0.7c-6,2.8-11.8,6.2-17.5,9.6
	C289.9,186,284.7,199.8,283.8,211.9z"/>
<path fill-rule="evenodd" clip-rule="evenodd" d="M505.9,437.3c-2.6,1.9-5,4-7.8,5.5c-7.9,4.1-16.1,7.7-23.8,12
	c-3.7,2.1-7.2,5.1-10,8.3c-4,4.6-7.5,5-11.4,0.3c-1.8-2.1-3.4-4.5-4.5-7c-2.2-4.9-2.1-10,5-12.3c14-4.5,27.7-10.2,42.6-10.8
	c3.1-0.1,6.2,0.7,9.3,1.1C505.5,435.4,505.7,436.3,505.9,437.3z"/>
<path fill-rule="evenodd" clip-rule="evenodd" d="M869.3,311.3c-2.5-3.3-4.8-6.2-7.2-9.4c-3.3,1.9-2.4,5.2-2.4,8
	c0,2.7,0.3,5.4,0.4,8.3c-5.1,1.7-6.6-1.7-7.8-4.6c-3.2-7.9-3.2-16.3-2.6-24.6c0.3-3.8,4.4-4.9,7.4-2.2c0.6,0.5,1.1,1.2,1.5,2
	c0.7,1.5,1.3,3,2,4.6c2-0.5,4-1.5,6.1-1.5c1.4,0,3.3,1.1,4,2.3c0.9,1.5,1.4,3.8,1,5.5C870.9,303.1,875.2,307.2,869.3,311.3z"/>
<path fill-rule="evenodd" clip-rule="evenodd" fill="#FFFFFF" d="M429.9,718.8c-3.1,8.4-3.3,19.2-11.8,25.7
	c-3.2,2.4-8.6,4.4-12.2,3.5c-17.3-4.3-25.1-16.6-24.9-31.2c0.1-6.8,2.8-11.7,7.7-15.9c1.7-1.4,3.7-2.5,5.4-4
	c3.5-3.1,7.1-3.9,11.5-1.7c5.4,2.7,11.2,4.7,16.3,7.7C427.3,706.3,429.4,711.8,429.9,718.8z"/>
<path fill-rule="evenodd" clip-rule="evenodd" fill="#FFFFFF" d="M405.2,619.8c-3.1-0.6-7.1-0.9-10.7-2.1
	c-8.5-2.8-14.7-9.2-14.4-19.2c0.3-10.1,1.2-20.1,9.4-27.6c5.3-4.9,10.7-7.6,18.1-4.4c3.8,1.6,8.1,1.7,12.2,2.7
	c8.3,2,13.1,7.4,13.4,15.9c0.2,5.8-0.7,11.6-1.4,17.4c-0.2,1.5-1.3,3.2-2.5,4.2c-5.1,4.2-10.3,8.5-15.9,12.1
	C411.5,620,408.5,619.5,405.2,619.8z"/>
<path fill-rule="evenodd" clip-rule="evenodd" fill="#FFFFFF" d="M442.2,241.8c-2.1-17.3,8.1-35.9,25.8-42.5
	c4.9-1.9,9.6-4.5,14.4-6.6c12.8-5.6,25.6-2.5,36.4,6.4c14.3,11.7,19.4,27.4,22.4,44.5c0.6,3.7-0.2,7.7-0.5,11.5
	c-0.6,6.6-1.4,13.3-2.1,19.9c-1.8,15.7-18.2,28.8-34,29.1c-21,0.4-36.6-9.8-49.5-25.3C445.8,267.7,441,255.3,442.2,241.8z
	 M475,245.2c-7.3,0.2-13,5.6-12.9,12.4c0.1,6.1,4.4,9.5,12,9.3c8-0.2,11.8-4,11.6-11.8C485.6,249,481.3,245,475,245.2z"/>
<path fill-rule="evenodd" clip-rule="evenodd" fill="#FFFFFF" d="M325.6,366.8c1.3-19,9.8-34.5,26-44.3c5.6-3.4,14.1-4.4,20.8-3.3
	c9.2,1.5,18.2,5.3,25.7,11.6c5.3,4.5,11.6,8.1,15.9,13.4c10.1,12.2,12.1,27.2,4.3,40.5c-4.4,7.4-11.3,13.9-18.3,19
	c-7.4,5.3-16.7,5.3-25.8,3.3c-5.2-1.1-10.5-1.6-15.7-2.6c-5.3-1-10-2.9-13.9-7.1c-3.2-3.4-7.4-5.8-10.8-9.1
	C327.9,382.3,325.4,375,325.6,366.8z M396.8,374c-0.1-7.2-6-12.2-13.4-11.3c-5.4,0.6-12.7,9.4-11.6,14.2c0.2,1,0.7,2.3,1.5,2.8
	c4.5,2.9,9.2,5.4,14.8,4.7C393.7,383.6,396.9,379.7,396.8,374z M363.4,358.2c0.1-5.5-2.5-8.1-8.2-8.3c-4.8-0.2-12.1,6.4-12.1,10.8
	c0.1,5,3.4,8.5,8.3,8.6C358.2,369.5,363.3,364.7,363.4,358.2z"/>
<path fill-rule="evenodd" clip-rule="evenodd" fill="#FFFFFF" d="M283.8,211.9c0.9-12.1,6.2-26,20.7-34.7c5.7-3.4,11.5-6.7,17.5-9.6
	c2.3-1.1,5.7-1.5,7.9-0.7c14.7,5.5,28.1,13.3,37,26.9c4.2,6.5,7.5,13.7,10.7,20.7c1,2.1,0.9,5.1,0.4,7.4
	c-4.1,16.7-13,29.3-30.1,34.9c-9.9,3.3-20,5.6-30.3,2.7C296.3,253.7,283.8,239.3,283.8,211.9z M318.7,239c6.7,0,11.6-4.6,12-11.3
	c0.2-4.4-7.6-12.3-12.1-12.2c-6.2,0.1-12.6,7.1-12.3,13.7C306.4,234.7,311.8,239,318.7,239z"/>
<path fill-rule="evenodd" clip-rule="evenodd" d="M475,245.2c6.3-0.2,10.6,3.8,10.7,9.9c0.2,7.8-3.6,11.7-11.6,11.8
	c-7.5,0.2-11.9-3.2-12-9.3C462.1,250.8,467.7,245.4,475,245.2z"/>
<path fill-rule="evenodd" clip-rule="evenodd" d="M396.8,374c0.1,5.6-3.1,9.6-8.7,10.3c-5.6,0.8-10.3-1.8-14.8-4.7
	c-0.8-0.5-1.3-1.8-1.5-2.8c-1-4.9,6.2-13.6,11.6-14.2C390.8,361.8,396.7,366.8,396.8,374z"/>
<path fill-rule="evenodd" clip-rule="evenodd" d="M363.4,358.2c-0.1,6.6-5.2,11.3-11.9,11.1c-4.9-0.1-8.2-3.6-8.3-8.6
	c-0.1-4.4,7.3-10.9,12.1-10.8C360.9,350.1,363.4,352.7,363.4,358.2z"/>
<path fill-rule="evenodd" clip-rule="evenodd" d="M318.7,239c-6.8,0-12.3-4.3-12.5-9.8c-0.3-6.6,6.1-13.6,12.3-13.7
	c4.5-0.1,12.4,7.8,12.1,12.2C330.3,234.4,325.3,239.1,318.7,239z"/>
</svg>
