<?xml version="1.0" encoding="utf-8"?>
<!DOCTYPE svg PUBLIC "-//W3C//DTD SVG 1.1//EN" "http://www.w3.org/Graphics/SVG/1.1/DTD/svg11.dtd">
<svg artist="zl2017" version="1.1" id="zlIcon-piggy-a" xmlns="http://www.w3.org/2000/svg" xmlns:xlink="http://www.w3.org/1999/xlink" x="0px" y="0px"
	 width="1000px" height="1061px" viewBox="0 0 1000 1061" enable-background="new 0 0 1000 1061" xml:space="preserve">
<path fill-rule="evenodd" clip-rule="evenodd" d="M133,909.2c-12.7-4.3-24.4-8.4-36.1-12.2c-8.2-2.7-10.2-4.6-9.8-11.3
	c0.4-6.5,2.7-9.3,10.6-10.3c7.1-0.9,14.7-2.3,21.4-0.7c16.4,4,30.3-0.4,43.1-9.8c5.7-4.2,10.6-9.3,14.7-13
	c-2.7-18.2-17.2-20.5-28.4-26.7c-8.7-4.9-17-10.5-25.4-15.9c-4.7-3.1-8.3-7.7-6.1-13.1c1.3-3.2,6.2-5,8.5-6.6
	c1.2-5.7,1.4-11.4,3.6-16.1c11.3-23.9,23.3-47.5,34.7-71.3c5.9-12.2,11.1-24.7,17.1-38.1c-12.3-2.4-23.5-2.6-34.3-0.9
	c-10.6,1.7-21,5.1-31.4,8.1c-4.5,1.3-8.6,2.1-12.5-1.2c-4.3-3.7-8.8-2.4-13.6-1c-24.8,6.8-49.6,13.4-74.4,20.1
	c-1.2,0.3-2.4,0.6-3.6,0.6c-4.8,0.2-9.4-1.3-10.6-6.2c-1-4.1,1.7-7.2,5.7-9.6c8.7-5.1,17-10.7,25.4-16.2
	c9.7-6.3,19.3-12.7,31.5-20.6c-6.7-1.3-10.8-1.8-14.7-2.9c-6.1-1.7-12.5-3.2-18.2-6.1c-6.3-3.3-6-9.3,0.1-13.2
	c2-1.3,4.3-2.2,6.6-2.9c16.1-5.1,32.1-10.4,48.3-15c4.4-1.2,9.4,0,14.1-0.1c4.7-0.1,10,0.8,14-1.1c9-4.3,17.6-9.6,25.8-15.2
	c10-6.8,19-14.9,29.2-21.3c18-11.2,29.1-28.6,42.2-44.3c1.2-1.4,1.7-3.6,1.8-5.5c1.8-28,3.9-56.1,4.9-84.1
	c0.4-12.4-0.9-24.9-2.2-37.3c-3.2-30.3-0.1-59.9,8.4-89.1c1.8-6.2,3.5-12.4,5.6-18.4c5-14.9,6.9-30.3,7.7-45.8
	c0.2-4.3-1.5-8.6-1.7-13c-0.3-5.5-1.3-11.4,0.2-16.5c1.8-6.2,1.4-11.7-0.2-17.7c-2-7.7-3.8-15.6-4.9-23.5
	c-1.9-13.4,2.1-24.8,10.5-35.8c13.3-17.6,25.2-36.2,37.3-54.7c2.1-3.2,3-7.4,3.8-11.3c2.2-10.7,6.3-14.4,17.1-13.7
	c16.5,1.1,31.2,7.5,44.7,16.5c9.7,6.5,18,15.2,28.2,20.6c12.3,6.6,25.9,10.4,39.9,3.4C434.2,77.9,458,71.1,483,68.6
	c13.5-1.3,27.2-2.1,40.8-2.6c5.9-0.2,11.9,1.3,17.9,1.8c17.2,1.5,34.5,0.1,51.5,4.8c7.6,2.1,15.8,2.5,23.8,3c2.8,0.2,6.5-1,8.5-2.9
	c19.5-19,44.6-28.3,68-40.7c7.4-3.9,14.6-8.5,21.7-13.1c8.7-5.6,17.2-11.4,25.8-17.2c5.5-3.7,13-1.9,17.4,5.6
	c8,13.4,15.3,27.2,22.5,41c4.3,8.1,7.5,16.8,11.8,24.9c9.1,17,12.3,34.7,7.7,53.5c-1.8,7.2,2.3,12.3,5.4,17.9
	c6.2,10.8,12.4,21.5,18.6,32.2c14.1,24.4,19.8,51.5,25.8,78.5c3.5,16,5.3,32.2,6.2,48.7c1.7,30.2-2.4,60-3.4,90.1
	c-0.4,11-4.2,22-7.4,32.8c-5.3,18.1-10.9,36.1-17,53.9c-3.6,10.6-8.6,20.8-12.7,31.2c-1.1,2.8-1.5,6-2.8,11.1
	c9-1.7,16.3-3.1,23.7-4.5c9.5-1.8,19.3-5.9,28.3-4.7c11.7,1.6,22.1-1.6,33.1-3.2c2.2-0.3,4.9-1.2,6.3-2.8c5.6-6.3,12.6-7.5,20.6-7.5
	c10,0,20-1.4,30-1.5c5.1,0,10.2,1.7,15.3,2.4c3.5,0.5,7,0.7,10.5,0.6c3.6,0,7.2-0.5,10.8-0.7c3.8-0.2,8.2,0.5,8.1,5
	c-0.1,2.9-2.5,6.9-5.1,8.4c-12.1,7.1-24.7,13.4-37,20.1c-2.4,1.3-4.4,3.1-6.8,4.8c5.9,5.6,11.4,10.5,16.5,15.8
	c3.1,3.2,6.1,7.2,2.9,11.8c-2.7,4-6.7,2.9-10.9,1.9c-12.5-2.9-24.8-7.2-37.9-5.9c-15.1,1.4-28.8,7.3-41.6,14.7
	c-13.2,7.6-25.2,17.1-37.9,25.6c-8,5.4-16.1,10.7-21.2,19.3c-1,1.7-2.5,3.2-4.1,4.4c-16.8,12.9-21.7,30.7-22.2,50.9
	c-0.2,8.7-2,17.5-4,26c-2.5,10.7-4.6,20.9-0.2,31.8c3,7.4,2.6,15.4-0.2,23.6c-2.6,7.4-3.9,15.6-3.9,23.5
	c0.1,30.2,4.4,59.9,11.6,89.2c1.5,6.2,4.9,11.8,7.2,17.8c2.5,6.9,1.3,10.9-5,13.6c-3.9,1.7-8.5,2.7-12.8,2.7
	c-25.1,0.2-49.4,4.5-73.6,11c-12.7,3.4-26.1,4.1-39.2,6.1c-10.7,1.7-21.4,3.2-32.1,5.4c-7.1,1.4-7.9,3.2-5.9,10.2
	c7.7,26.5,15.6,53,23.4,79.6c2.2,7.6,4.6,15.2,6.8,22.9c1.9,6.7,0.7,12.2-3.8,13.8c-4.9,1.7-9.6,0.1-12.7-4
	c-5.8-7.6-11.4-15.5-17-23.3c-3.5-4.8-6.9-9.6-12.2-16.8c-2.1,10.7-3.5,18.7-5.3,26.7c-1.3,5.9-2.4,11.9-4.6,17.4
	c-1,2.5-4.3,5.2-6.8,5.5c-3.9,0.5-4.6-3.3-5.2-6.7c-3.6-20.2-9.5-39.7-17.7-58.5c-4.9-11.4-8.9-23.2-13.9-34.6
	c-2.7-6.2-6.4-11.9-9.4-17.3c-15.5,0-30-0.8-44.4,0.2c-19,1.4-37.6-1.4-56.2-4.1c-21.4-3.1-42.7-6.9-63.9-11.2
	c-16.8-3.5-33.5-7.9-50.1-12.5c-15.9-4.4-31.6-9.2-47.2-14.4c-13.3-4.4-26.3-9.8-39.5-14.7c-1.8-0.7-3.7-1.2-5.7-1.9
	c-8.1,7.6-15.7,15.3-23.8,22.4c-14.9,13-33.6,18.7-51.7,25.2c-15.1,5.5-30.6,9.8-45.7,15.2c-8.7,3.1-17,7.2-25.5,10.8
	c-1.8,0.8-3.5,1.9-5.3,2.8c-7.8,3.9-13.1,4-15.3,0c-3.4-6.1,0.8-10,4.9-13.3c9.9-8.2,20.1-16,30.1-24
	C123.6,920.3,130.2,917.5,133,909.2z M829.7,331.3c1.1-28.4-3.8-56.2-8.7-83.8c-4-22.5-10.7-44.4-24.6-63.4
	c-16.9-22.9-37-41.1-65.8-47.5c-12.8-2.9-23.3-10.5-33.7-18.2c-11.9-8.9-25.9-12.8-40.5-12.9c-5.1,0-9.1-0.6-13.4-3.1
	c-4.8-2.8-9.8-5.8-15.1-7.1c-11.3-2.8-22.7-5.3-34.2-6.7c-19.9-2.3-39.9-4.6-59.8-5.1c-12.7-0.3-25.6,2-38.1,4.5
	c-32.1,6.3-64.5,11.7-94.8,25.5c-19.3,8.8-38.1,17.1-54.4,31.7c-11.7,10.5-22.1,21.9-33.3,32.7c-19.8,19.3-33.5,42.9-48.1,65.8
	c-13.4,21.1-21.8,44.6-28.1,68.8c-6,23.1-7.7,46.4-5.5,70.2c1.6,16.4,2.6,32.8,2.8,49.2c0.3,18.6,2.3,36.6,9.3,54.1
	c8.1,20.1,14.7,40.8,31.4,56.2c5.9,5.4,11.4,11.3,16.2,17.7c6.3,8.3,14.3,13.8,23.5,18.3c17.7,8.6,35.3,17.4,52.7,26.5
	c18.2,9.5,36,19.7,56.8,22.5c2.3,0.3,4.4,1.9,6.7,2.5c9.3,2.4,18.5,5.6,27.9,6.9c12.7,1.7,25.6,2.2,38.4,2.5
	c10.3,0.2,20.7-0.1,30.9-1.6c28.6-4.1,56.5-11.6,84.3-19.6c32.8-9.4,66-17.3,96.3-33.8c10.6-5.8,21.5-11.2,31.2-18.2
	c17.2-12.5,33.2-26.6,50.5-38.9c6.5-4.6,10.1-9.9,12-17.1c1-3.5,1.9-7,3.2-10.3c10.4-27.1,17.4-55.2,20-84.1
	C828.3,387.6,828.5,359.4,829.7,331.3z M131,794.6c1.5,7.7,9.9,11.1,16.9,15.5c20.3,12.9,43.1,21.3,61.8,37
	c12.4,10.3,27.8,15.6,42.2,22.6c35.6,17.3,73.2,28.7,111.4,38.1c26.8,6.6,54.1,11.5,81.4,16c22.1,3.7,44.1,8.7,66.9,7.2
	c16-1.1,32.1-0.8,48.2-1.8c11.2-0.7,22.3-2.1,33.4-3.9c9.1-1.5,17.9-4.4,27-6c30-5.2,60.7-5.6,90.2-14.2
	c16.5-4.8,33.4-7.9,49.4-11.6c1.4-13.8,2.8-26.9,4.1-40c0.1-1.2,0-2.4-0.1-3.6c-0.8-9.9-2.8-19.8,1.4-29.6c0.8-1.9-0.4-4.6-0.7-7
	c-2.2-16.8-1.7-33.6,0.7-50.4c2.9-20.3,7.7-40.7,4.9-61.1c-2.7-19.5,1.7-37.4,6.6-55.7c5.3-19.9,16.8-34.1,36.3-42.2
	c8.1-3.4,15.3-8.9,22.7-13.6c13.9-8.8,27.9-17.5,41.4-26.9c5.4-3.8,11-8.5,14-14.2c3.2-6,3.5-13.6,5.5-22.5
	c-6.9,1.4-12.2,2.4-17.5,3.5c-17.7,3.5-35.3,7.3-53,10.6c-20.1,3.8-35.4,16.8-51.5,27.7c-18.8,12.6-38.5,23.1-59,32.2
	c-29.3,13-58.4,26.6-89.3,36c-35.4,10.8-70.8,20.6-108,21.9c-11.1,0.4-22.3-0.3-33.5,0.1c-22.6,0.7-45.2-1.1-66.7-6.9
	c-31.7-8.6-63-19.1-93.6-30.9c-21.1-8.2-37.2-25.1-54.5-39.3c-12.9-10.6-27-18.3-42.1-24.8c-6.1-2.6-11.1-1.1-16.7,2.5
	c-11.8,7.5-24.1,14.4-36.7,20.6c-19.3,9.6-39.1,18.6-58.6,27.7c-3.9,1.8-7.2,4.3-6.6,9c1.7,12.6,3.8,25.1,5.7,37.8
	c7.2,0,58.2-10.5,64.7-13.1c2.9-1.2,6.2-2.1,9.2-1.9c11.2,0.5,22.4,1.5,33.6,2.4c1.6,0.1,3.5,0.2,4.6,1.1c2.3,1.8,4.2,4.2,6.3,6.3
	c-2.1,1.5-4,3.7-6.4,4.4c-5.7,1.8-11.5,3.6-17.4,4.3c-11,1.3-14.7,8.3-17.9,17.9c-6,17.8-13.6,35.1-21,52.5
	c-3.5,8.1-6.6,17.1-12.6,23c-6.6,6.6-10,14.2-14,22C140.7,779.9,136.3,786,131,794.6z M650.8,75.7c2.2,6.1,6.2,8.9,12.8,9.1
	c5.5,0.2,11,1.6,16.2,3.3c8.4,2.7,16.7,5.7,24.8,9.2c4.8,2.1,8.7,1.5,11.9-2.1c2.9-3.2,5.2-7,7.6-10.6c1.7-2.7,2.7-5.8,4.5-8.3
	c2.4-3.2,5.7-4.7,9.4-2.2c3.4,2.3,5,5.5,2.5,9.3c-4.9,7.4-2.9,15.6-2.6,23.5c0.1,3.2,2,7.1,4.4,9.3c9.8,8.7,21.6,13.8,34.3,16.7
	c4.7,1.1,8.3-0.4,8.8-5.4c0.9-7.9,2.5-16,1.5-23.7c-1-8.2-3.7-16.4-7.2-23.9c-8.1-17.5-16.9-34.6-25.9-51.7c-5-9.5-8.2-10.1-17-4.4
	c-3,2-5.6,4.6-8.5,6.7c-4.5,3.4-8.6,7.5-13.6,9.9c-16.2,7.9-32.6,15.5-49,22.8C659.3,65.8,653.3,68.5,650.8,75.7z M271.2,204.6
	c1.9-3.7,2.6-6.2,4.1-8c11.7-14.2,20.2-31,34.8-43c1.5-1.2,2.2-4.2,2.1-6.2c-0.7-12.3-1.7-24.6-2.6-37c-0.3-4.1-0.4-8.5,4.2-10.3
	c4.7-1.8,7.9,0.2,11,4.5c3.7,5.1,8.4,9.6,13.4,13.5c6.7,5.2,22.6,0.2,25.2-7.9c0.6-2-0.7-5.7-2.4-7.2c-10.7-9.6-21.4-19.3-32.9-28
	c-8.7-6.5-18.7-10.4-30.6-8.5c-3.6,15.9-10.8,29.4-20.1,42.4c-10.2,14.3-19.7,29.2-25.1,46.4c-2.5,7.9-4,16.1,0.1,23.3
	C257,186.8,263.4,193.9,271.2,204.6z M162.9,922.9c27.8-10.7,55.6-18.3,73.9-44.5c-11.5-6.4-22.8-12.3-33.7-18.9
	c-5.8-3.6-10-2.9-15.1,1.3c-9.2,7.7-19.2,14.4-28.4,22c-2.5,2-5.6,6-5.1,8.5C156.4,901.4,159.6,911.2,162.9,922.9z M576.1,943
	c5.5,16.9,9.7,32.2,16.5,45.9c11.8-2.6,22.4-4.8,32.9-7.2c7.4-1.7,8.8-4,6.4-10.9c-3.4-9.8-7.2-19.6-10.8-29.3c-1.5-4.2-3.9-7-9-5.9
	C600.8,937.8,589.5,940.2,576.1,943z"/>
<path fill-rule="evenodd" clip-rule="evenodd" fill="#FFFFFF" d="M829.7,331.3c-1.2,28.1-1.5,56.3-4,84.2
	c-2.6,28.8-9.6,56.9-20,84.1c-1.3,3.4-2.3,6.8-3.2,10.3c-2,7.2-5.5,12.4-12,17.1c-17.3,12.3-33.3,26.5-50.5,38.9
	c-9.7,7-20.6,12.4-31.2,18.2c-30.2,16.5-63.5,24.3-96.3,33.8c-27.8,8-55.7,15.5-84.3,19.6c-10.2,1.5-20.6,1.7-30.9,1.6
	c-12.8-0.2-25.7-0.8-38.4-2.5c-9.4-1.2-18.6-4.4-27.9-6.9c-2.3-0.6-4.4-2.2-6.7-2.5c-20.8-2.8-38.7-13-56.8-22.5
	c-17.4-9.2-35-17.9-52.7-26.5c-9.2-4.5-17.2-9.9-23.5-18.3c-4.8-6.4-10.3-12.3-16.2-17.7c-16.6-15.4-23.3-36.1-31.4-56.2
	c-7-17.4-9-35.5-9.3-54.1c-0.3-16.4-1.3-32.9-2.8-49.2c-2.3-23.8-0.6-47.1,5.5-70.2c6.3-24.2,14.7-47.7,28.1-68.8
	c14.6-22.9,28.3-46.4,48.1-65.8c11.1-10.9,21.6-22.3,33.3-32.7c16.3-14.6,35.2-22.9,54.4-31.7c30.3-13.8,62.7-19.2,94.8-25.5
	c12.5-2.5,25.4-4.8,38.1-4.5c20,0.5,40,2.8,59.8,5.1c11.5,1.3,23,3.9,34.2,6.7c5.3,1.3,10.4,4.2,15.1,7.1c4.3,2.5,8.3,3.1,13.4,3.1
	c14.6,0,28.5,4,40.5,12.9c10.4,7.7,20.9,15.3,33.7,18.2c28.8,6.5,49,24.6,65.8,47.5c13.9,18.9,20.6,40.9,24.6,63.4
	C826,275.1,830.8,302.9,829.7,331.3z M402.2,229.4c0.5,1.2,1,1.9,1,2.6c-0.1,1.6-0.2,3.2-0.7,4.7c-7,23.6-6.3,46.5,5.6,68.7
	c4.7,8.8,9.7,17,18.8,21c11.7,5.1,23.7,9.6,36,12.9c6.3,1.7,13.5,1.3,20.1,0.4c24.5-3.4,46.9-29.4,51.3-54.5
	c3.1-17.8,2.4-35.1-0.9-52.6c-3.8-20-14.9-34.3-34.7-40.8c-5.3-1.7-10.9-2.5-17.7-4.1c-3.7-8.6-7.7-18-11.9-27.3
	c-1.9-4.2-4.3-8.2-9.8-6.6c-5.5,1.6-5,6-4.4,10.8c1.2,9.4,1.6,18.9,2.3,28.4c-7,2.1-12.3,3.6-18.8,5.6c-4.9-6.2-9.6-12.7-14.8-18.7
	c-3.6-4.1-10.1-4.7-12.8-1.5c-3.3,3.9-3,8.1,0.3,12c3.5,4.2,7.1,8.3,10.4,12.2c-6,11.4-6.1,11-16.9,9.3c-7.1-1.1-14.4-1-21.5-0.7
	c-3.9,0.2-8.1,1.8-8.2,7c-0.1,5,3.1,7,7.6,7.7C389.2,227.3,395.8,228.4,402.2,229.4z M654.4,151c-7.8-2.2-11.1,2.1-13.2,7
	c-2.7,6.1-6.3,10.9-11.7,14.9c-6,4.4-9.2,10.8-10.7,18.3c-0.8,3.6-2.9,7.2-5.3,10c-5.6,6.7-12.3,12.6-17.7,19.5
	c-11,14.2-12.6,30.9-11.3,48.1c1.7,23.3,11.5,41.5,33.9,51.1c3,1.3,6,2.4,8.8,3.8c25.4,12.4,47.5,4.9,64-11.5
	c20.9-20.6,31.8-46.4,28.1-76.3c-1.5-11.6-4-23.9-15.9-30.8c-1.2-0.7-2-2.2-3.6-4.3c7-6.8,13.7-13.2,21.3-20.6
	c-17.1-9.1-23.7,6.5-35.6,11.1c-3-2.9-6.4-6.3-10.7-10.5c4-3.7,6.8-6.4,9.8-9c1.8-1.6,4.5-2.5,5.6-4.4c1.3-2.1,2.5-5.7,1.5-7.2
	c-1.1-1.7-4.7-2.6-7.1-2.5c-2.2,0.1-4.7,1.5-6.3,3.1c-5.4,5.3-10.9,10.6-15.6,16.4c-6,7.4-8.3,8.2-17.9,3.7
	C642.4,169.3,657.3,163.3,654.4,151z M658,441c-0.9-6.6-1.9-13.3-2.8-20.1c-2.6-19.5-14.6-31.9-31.8-39c-8.7-3.6-18.3-5.4-28.2-2.6
	c-6.5,1.9-13.3,3.9-20,3.9c-9.7,0-16.7,4.6-23.6,10.2c-3.7,3-7.3,6.2-10.7,9.6c-13.7,14-26.6,28.5-24.3,50
	c0.8,7.5,2.9,14.9,5.2,22.1c5.7,17.8,17.3,25.9,35.7,26.3c7.6,0.2,15.1,1.7,22.7,1.7c5.9,0,12.3-0.1,17.5-2.4
	c12.8-5.7,26-11.3,37.3-19.4C648.4,472,657.4,458.6,658,441z M540.1,518.1c-6.9,0-11.9-0.4-16.9,0.1c-16.8,1.5-31.6-2.5-43.9-14.5
	c-1.7-1.6-3.8-3.1-6-3.9c-5-1.8-10.1,1.9-9.7,7.2c0.5,7.1-0.1,15,2.9,21c6.6,13.1,13.6,26.5,26,35.5c6.3,4.6,13.9,4.3,20.1-0.9
	C525.8,551.5,535,537.8,540.1,518.1z"/>
<path fill-rule="evenodd" clip-rule="evenodd" fill="#FFFFFF" d="M131,794.6c5.3-8.6,9.7-14.6,13.1-21.2c4-7.8,7.4-15.4,14-22
	c5.9-5.9,9.1-15,12.6-23c7.4-17.3,15-34.6,21-52.5c3.3-9.6,6.9-16.6,17.9-17.9c5.9-0.7,11.7-2.5,17.4-4.3c2.4-0.8,4.3-2.9,6.4-4.4
	c-2.1-2.1-4-4.5-6.3-6.3c-1.1-0.9-3-1-4.6-1.1c-11.2-0.9-22.4-1.9-33.6-2.4c-3.1-0.1-6.4,0.8-9.2,1.9c-6.5,2.6-57.5,13.1-64.7,13.1
	c-1.9-12.7-4-25.2-5.7-37.8c-0.6-4.7,2.7-7.2,6.6-9c19.6-9.2,39.3-18.1,58.6-27.7c12.5-6.2,24.8-13.1,36.7-20.6
	c5.6-3.6,10.6-5.2,16.7-2.5c15.1,6.5,29.2,14.2,42.1,24.8c17.3,14.2,33.4,31.1,54.5,39.3c30.6,11.9,61.9,22.4,93.6,30.9
	c21.5,5.8,44.1,7.6,66.7,6.9c11.1-0.3,22.3,0.3,33.5-0.1c37.2-1.3,72.6-11.1,108-21.9c30.9-9.5,60-23,89.3-36
	c20.5-9.1,40.2-19.6,59-32.2c16.1-10.8,31.4-23.9,51.5-27.7c17.7-3.3,35.3-7.1,53-10.6c5.3-1.1,10.6-2.1,17.5-3.5
	c-2,8.8-2.3,16.4-5.5,22.5c-3,5.6-8.6,10.4-14,14.2c-13.5,9.4-27.5,18.1-41.4,26.9c-7.5,4.8-14.6,10.3-22.7,13.6
	c-19.4,8.1-31,22.4-36.3,42.2c-4.9,18.2-9.3,36.2-6.6,55.7c2.8,20.4-2,40.8-4.9,61.1c-2.4,16.8-2.9,33.6-0.7,50.4
	c0.3,2.4,1.5,5.1,0.7,7c-4.2,9.8-2.2,19.7-1.4,29.6c0.1,1.2,0.3,2.4,0.1,3.6c-1.3,13.1-2.7,26.2-4.1,40c-16,3.7-33,6.8-49.4,11.6
	c-29.5,8.6-60.2,9-90.2,14.2c-9.1,1.6-17.9,4.5-27,6c-11.1,1.8-22.2,3.2-33.4,3.9c-16,1-32.1,0.7-48.2,1.8
	c-22.8,1.6-44.8-3.5-66.9-7.2c-27.3-4.6-54.6-9.4-81.4-16c-38.2-9.5-75.8-20.9-111.4-38.1c-14.4-7-29.8-12.2-42.2-22.6
	c-18.7-15.7-41.6-24.1-61.8-37C140.9,805.7,132.4,802.3,131,794.6z M557.9,834.4c-0.7-15.9-6.3-25.4-17.7-31.2
	c-3.2-1.6-6.8-2.7-9.6-4.8c-14-10.7-36.6-6.1-45.2,9.6c-7.8,14.4-7,28.5,2.3,42c7.6,11,31.6,19.3,43.3,13.5
	c7.7-3.8,14.8-9.6,20.7-15.9C555.5,843.6,556.7,837.2,557.9,834.4z M530.5,756.6c9.2-2.5,18.9-4,27.5-7.8c15.8-7,19-29.5,6.8-41.4
	c-8.8-8.5-19-14.6-30.7-18.1c-13.8-4.1-35.2,5.2-40.6,18.3c-1.9,4.6-2.8,10.3-2,15.1C494.8,743.1,509.4,755,530.5,756.6z"/>
<path fill-rule="evenodd" clip-rule="evenodd" fill="#FFFFFF" d="M650.8,75.7c2.5-7.2,8.6-9.9,15-12.7c16.5-7.3,32.9-14.8,49-22.8
	c5-2.4,9.1-6.5,13.6-9.9c2.9-2.2,5.5-4.8,8.5-6.7c8.8-5.7,12.1-5.1,17,4.4c8.9,17.1,17.8,34.2,25.9,51.7c3.5,7.5,6.2,15.8,7.2,23.9
	c0.9,7.7-0.6,15.9-1.5,23.7c-0.6,5-4.1,6.5-8.8,5.4c-12.7-3-24.5-8-34.3-16.7c-2.4-2.1-4.3-6.1-4.4-9.3c-0.3-7.9-2.3-16.1,2.6-23.5
	c2.5-3.8,0.9-7-2.5-9.3c-3.7-2.5-7.1-1-9.4,2.2c-1.9,2.5-2.8,5.7-4.5,8.3c-2.3,3.7-4.7,7.4-7.6,10.6c-3.2,3.6-7.1,4.2-11.9,2.1
	c-8.1-3.5-16.4-6.5-24.8-9.2c-5.2-1.7-10.8-3.1-16.2-3.3C656.9,84.5,653,81.8,650.8,75.7z"/>
<path fill-rule="evenodd" clip-rule="evenodd" fill="#FFFFFF" d="M271.2,204.6c-7.8-10.7-14.2-17.8-18.8-26
	c-4.1-7.2-2.5-15.4-0.1-23.3c5.3-17.1,14.9-32.1,25.1-46.4c9.3-12.9,16.5-26.5,20.1-42.4c11.9-1.9,22,2,30.6,8.5
	c11.5,8.7,22.1,18.4,32.9,28c1.7,1.5,3.1,5.2,2.4,7.2c-2.6,8.1-18.4,13.1-25.2,7.9c-5-3.9-9.7-8.4-13.4-13.5
	c-3.1-4.3-6.3-6.4-11-4.5c-4.6,1.8-4.5,6.2-4.2,10.3c0.9,12.3,1.9,24.6,2.6,37c0.1,2.1-0.6,5-2.1,6.2c-14.5,12-23.1,28.8-34.8,43
	C273.8,198.5,273,200.9,271.2,204.6z"/>
<path fill-rule="evenodd" clip-rule="evenodd" fill="#FFFFFF" d="M162.9,922.9c-3.3-11.7-6.5-21.5-8.5-31.6
	c-0.5-2.5,2.7-6.4,5.1-8.5c9.3-7.6,19.2-14.4,28.4-22c5.1-4.3,9.2-4.9,15.1-1.3c10.9,6.6,22.2,12.5,33.7,18.9
	C218.5,904.6,190.8,912.2,162.9,922.9z"/>
<path fill-rule="evenodd" clip-rule="evenodd" fill="#FFFFFF" d="M576.1,943c13.4-2.8,24.7-5.1,36-7.5c5-1.1,7.4,1.8,9,5.9
	c3.6,9.8,7.4,19.5,10.8,29.3c2.4,7,1,9.2-6.4,10.9c-10.5,2.4-21.1,4.6-32.9,7.2C585.8,975.1,581.6,959.9,576.1,943z"/>
<path fill-rule="evenodd" clip-rule="evenodd" d="M402.2,229.4c-6.4-1-13.1-2.1-19.7-3.2c-4.5-0.7-7.7-2.7-7.6-7.7
	c0.1-5.2,4.3-6.8,8.2-7c7.2-0.3,14.5-0.4,21.5,0.7c10.8,1.7,10.9,2,16.9-9.3c-3.3-3.9-6.9-8-10.4-12.2c-3.3-3.9-3.6-8.1-0.3-12
	c2.7-3.3,9.3-2.7,12.8,1.5c5.2,6,9.9,12.4,14.8,18.7c6.5-1.9,11.8-3.5,18.8-5.6c-0.7-9.6-1.1-19-2.3-28.4c-0.6-4.8-1.1-9.2,4.4-10.8
	c5.5-1.6,8,2.5,9.8,6.6c4.2,9.3,8.2,18.7,11.9,27.3c6.8,1.5,12.4,2.3,17.7,4.1c19.8,6.5,30.9,20.8,34.7,40.8
	c3.3,17.4,4,34.8,0.9,52.6c-4.4,25.1-26.8,51.1-51.3,54.5c-6.6,0.9-13.8,1.3-20.1-0.4c-12.3-3.4-24.3-7.8-36-12.9
	c-9.1-4-14.1-12.3-18.8-21c-11.9-22.3-12.5-45.1-5.6-68.7c0.4-1.5,0.6-3.1,0.7-4.7C403.3,231.3,402.7,230.6,402.2,229.4z
	 M519.9,258.3c0-7.6-3-20.5-8.7-32.6c-6.4-13.6-17.9-21.6-32.5-21.2c-15.3,0.4-31.9,1.1-39.6,19c-1.1,2.5-3.1,4.7-4.4,7.1
	c-8.4,16-15.7,32.4-17.3,50.8c-1.1,12.7,3.5,22.5,13.3,30.6c9,7.5,20,9.8,30.8,12.9c11.9,3.5,22.1,0.5,32-5.8
	C513.7,306.3,519.5,286.6,519.9,258.3z"/>
<path fill-rule="evenodd" clip-rule="evenodd" d="M654.4,151c2.9,12.4-12,18.4-9.6,30c9.5,4.5,11.8,3.7,17.9-3.7
	c4.7-5.9,10.2-11.2,15.6-16.4c1.6-1.6,4.2-3,6.3-3.1c2.5-0.1,6.1,0.8,7.1,2.5c1,1.6-0.2,5.2-1.5,7.2c-1.2,1.9-3.8,2.9-5.6,4.4
	c-3,2.6-5.8,5.3-9.8,9c4.2,4.2,7.7,7.6,10.7,10.5c11.9-4.6,18.5-20.3,35.6-11.1c-7.7,7.4-14.3,13.8-21.3,20.6c1.7,2,2.4,3.6,3.6,4.3
	c11.9,6.9,14.5,19.1,15.9,30.8c3.7,29.9-7.2,55.6-28.1,76.3c-16.5,16.4-38.5,23.9-64,11.5c-2.9-1.4-5.9-2.5-8.8-3.8
	c-22.4-9.7-32.2-27.9-33.9-51.1c-1.3-17.1,0.4-33.9,11.3-48.1c5.3-6.9,12-12.8,17.7-19.5c2.4-2.9,4.5-6.5,5.3-10
	c1.6-7.4,4.7-13.8,10.7-18.3c5.4-4,9-8.8,11.7-14.9C643.3,153.1,646.6,148.8,654.4,151z M702.8,248.2c0.2-12.4-5.1-25.4-16.7-35.3
	c-6.1-5.2-12.9-9.5-19.7-13.8c-3.9-2.5-7.9-3.2-12.4-0.2c-5.9,4-12.2,7.3-18.3,11.1c-2.4,1.5-5.3,2.8-6.6,5
	c-8.7,14.4-17.7,28.6-25.3,43.6c-5.5,10.8-5,21.7,2,33c10.7,17,27.1,21.6,45,23.6c3.3,0.4,7.2-0.9,10.4-2.4
	C684.9,302.2,701.8,278.6,702.8,248.2z"/>
<path fill-rule="evenodd" clip-rule="evenodd" d="M658,441c-0.6,17.7-9.6,31-22.8,40.5c-11.3,8.1-24.5,13.7-37.3,19.4
	c-5.2,2.3-11.7,2.4-17.5,2.4c-7.6,0-15.1-1.6-22.7-1.7c-18.4-0.4-30-8.5-35.7-26.3c-2.3-7.2-4.4-14.6-5.2-22.1
	c-2.3-21.5,10.6-36.1,24.3-50c3.3-3.4,7-6.6,10.7-9.6c6.9-5.6,13.9-10.2,23.6-10.2c6.7,0,13.5-2,20-3.9c9.9-2.9,19.5-1,28.2,2.6
	c17.2,7.1,29.2,19.5,31.8,39C656.1,427.7,657.1,434.4,658,441z M591,481.5c0.1,0.3,0.1,0.7,0.2,1c3.8-0.8,7.9-1.1,11.4-2.6
	c6.6-2.8,13-6.2,19.4-9.5c2.5-1.3,5-2.8,6.8-4.8c12.3-12.9,13.2-44.2,1.7-58.1c-3.6-4.3-7.5-8.1-14.3-6.8c-2.9,0.6-6.2-1.5-9.3-1.8
	c-15.2-1.4-30.7-1.6-43.7,7.7c-22.4,16.1-24.1,34.8-16.4,56.1c5,13.8,20.1,21.8,34.5,19.6C584.6,481.9,587.8,481.8,591,481.5z"/>
<path fill-rule="evenodd" clip-rule="evenodd" d="M540.1,518.1c-5.1,19.7-14.4,33.4-27.5,44.5c-6.2,5.2-13.8,5.5-20.1,0.9
	c-12.4-9-19.3-22.4-26-35.5c-3-6-2.4-13.9-2.9-21c-0.4-5.3,4.7-9,9.7-7.2c2.2,0.8,4.3,2.2,6,3.9c12.3,12,27.1,16,43.9,14.5
	C528.2,517.7,533.3,518.1,540.1,518.1z"/>
<path fill-rule="evenodd" clip-rule="evenodd" d="M557.9,834.4c-1.2,2.8-2.4,9.2-6.2,13.2c-5.9,6.3-13,12.1-20.7,15.9
	c-11.7,5.7-35.8-2.5-43.3-13.5c-9.3-13.5-10.1-27.7-2.3-42c8.6-15.7,31.1-20.3,45.2-9.6c2.8,2.1,6.4,3.2,9.6,4.8
	C551.7,809,557.3,818.5,557.9,834.4z M506.2,847c14.7,8.6,28.8,1.8,34.4-9.3c3.1-6.3,2.6-12.7-1.7-17.7c-4-4.7-11.6-6.8-17.5-3.8
	c-7.9,4.1-15.1,9.2-14.6,19.9C507,839.5,506.4,843.1,506.2,847z"/>
<path fill-rule="evenodd" clip-rule="evenodd" d="M530.5,756.6c-21.1-1.6-35.7-13.5-39-33.8c-0.8-4.8,0.2-10.5,2-15.1
	c5.4-13.2,26.8-22.5,40.6-18.3c11.7,3.5,21.9,9.6,30.7,18.1c12.3,11.9,9,34.5-6.8,41.4C549.4,752.7,539.7,754.1,530.5,756.6z
	 M519.4,740.1c9.7,0.9,18.3,1.6,26.7-2c8.4-3.6,11.8-9,9.7-16.6c-1.9-7.1-13.1-16.7-18.4-14.5c-6.1,2.5-11.3,7.1-16.7,11.2
	c-4.5,3.4-1.8,8-1.4,12.2C519.6,733.1,519.4,735.9,519.4,740.1z"/>
<path fill-rule="evenodd" clip-rule="evenodd" fill="#FFFFFF" d="M519.9,258.3c-0.3,28.3-6.2,48-26.4,60.9c-9.9,6.3-20.2,9.3-32,5.8
	c-10.8-3.1-21.7-5.5-30.8-12.9c-9.8-8-14.4-17.9-13.3-30.6c1.6-18.4,8.9-34.8,17.3-50.8c1.3-2.5,3.3-4.6,4.4-7.1
	c7.6-17.9,24.3-18.6,39.6-19c14.6-0.4,26.1,7.6,32.5,21.2C516.9,237.8,519.9,250.7,519.9,258.3z M488.4,251.3
	c1-4.7-1.3-9.5-6.6-12.7c-5.2-3.2-10.5-1.3-14.5,2c-4.6,3.7-8.9,8.1-12.1,13.1c-3.9,6-1.3,13.6,4.4,16.5
	C471.7,276.1,487.9,266.4,488.4,251.3z"/>
<path fill-rule="evenodd" clip-rule="evenodd" fill="#FFFFFF" d="M702.8,248.2c-1,30.4-18,54-41.6,64.5c-3.2,1.4-7,2.8-10.4,2.4
	c-17.9-2.1-34.3-6.6-45-23.6c-7.1-11.2-7.5-22.2-2-33c7.6-15,16.6-29.2,25.3-43.6c1.3-2.2,4.3-3.5,6.6-5c6.1-3.7,12.4-7.1,18.3-11.1
	c4.4-3,8.5-2.3,12.4,0.2c6.7,4.3,13.6,8.6,19.7,13.8C697.7,222.8,703,235.8,702.8,248.2z M662.6,241.6c-0.1-8.9-6.2-15.2-14.9-15.6
	c-8.1-0.4-17.1,9.3-17.4,18.5c-0.2,8.2,3.9,12,12.9,11.9C655.4,256.3,662.6,250.7,662.6,241.6z"/>
<path fill-rule="evenodd" clip-rule="evenodd" fill="#FFFFFF" d="M591,481.5c-3.2,0.3-6.4,0.4-9.6,0.9c-14.3,2.2-29.5-5.8-34.5-19.6
	c-7.7-21.3-6-40,16.4-56.1c12.9-9.3,28.4-9.1,43.7-7.7c3.2,0.3,6.4,2.4,9.3,1.8c6.8-1.3,10.7,2.5,14.3,6.8
	c11.5,13.8,10.5,45.1-1.7,58.1c-1.9,2-4.4,3.5-6.8,4.8c-6.4,3.4-12.8,6.8-19.4,9.5c-3.5,1.5-7.6,1.7-11.4,2.6
	C591.1,482.2,591.1,481.8,591,481.5z M614,427.1c-0.2-5.5-4.1-10.1-8.4-10.1c-5.3,0-9.6,5-9.1,10.6c0.4,4.6,2.5,7.6,7.5,7.6
	C609.9,435.1,614.1,431.6,614,427.1z M575.5,431.3c-1.2,1.7-3.8,4.1-4.7,7c-1.2,4.2,2.7,8.8,7,9.5c4,0.6,7.2-2.6,7.4-7.4
	C585.5,435.7,582.1,431.8,575.5,431.3z"/>
<path fill-rule="evenodd" clip-rule="evenodd" fill="#FFFFFF" d="M506.2,847c0.3-3.9,0.8-7.5,0.6-11c-0.5-10.7,6.7-15.8,14.6-19.9
	c5.9-3,13.5-0.9,17.5,3.8c4.3,5.1,4.8,11.5,1.7,17.7C535,848.8,520.9,855.6,506.2,847z"/>
<path fill-rule="evenodd" clip-rule="evenodd" fill="#FFFFFF" d="M519.4,740.1c0-4.2,0.2-7-0.1-9.7c-0.4-4.2-3.1-8.8,1.4-12.2
	c5.3-4.1,10.6-8.6,16.7-11.2c5.3-2.2,16.5,7.4,18.4,14.5c2.1,7.6-1.3,13-9.7,16.6C537.6,741.7,529,741,519.4,740.1z"/>
<path fill-rule="evenodd" clip-rule="evenodd" d="M488.4,251.3c-0.5,15.1-16.7,24.8-28.7,18.8c-5.7-2.8-8.3-10.5-4.4-16.5
	c3.2-4.9,7.5-9.4,12.1-13.1c4-3.3,9.3-5.2,14.5-2C487.1,241.8,489.4,246.7,488.4,251.3z"/>
<path fill-rule="evenodd" clip-rule="evenodd" d="M662.6,241.6c0.1,9.2-7.2,14.7-19.4,14.9c-9,0.1-13.2-3.7-12.9-11.9
	c0.3-9.3,9.3-18.9,17.4-18.5C656.4,226.4,662.5,232.7,662.6,241.6z"/>
<path fill-rule="evenodd" clip-rule="evenodd" d="M614,427.1c0.2,4.5-4,8.1-9.9,8.1c-5,0-7.1-3-7.5-7.6c-0.5-5.7,3.8-10.6,9.1-10.6
	C609.8,416.9,613.7,421.6,614,427.1z"/>
<path fill-rule="evenodd" clip-rule="evenodd" d="M575.5,431.3c6.6,0.4,10,4.4,9.8,9.2c-0.2,4.8-3.4,8-7.4,7.4
	c-4.3-0.7-8.3-5.4-7-9.5C571.7,435.4,574.3,433.1,575.5,431.3z"/>
</svg>
