<?xml version="1.0" encoding="utf-8"?>
<!DOCTYPE svg PUBLIC "-//W3C//DTD SVG 1.1//EN" "http://www.w3.org/Graphics/SVG/1.1/DTD/svg11.dtd">
<svg artist="zl2017" version="1.1" id="zlIcon-piggy-b" xmlns="http://www.w3.org/2000/svg" xmlns:xlink="http://www.w3.org/1999/xlink" x="0px" y="0px"
	 width="1000px" height="1344.6px" viewBox="0 0 1000 1344.6" enable-background="new 0 0 1000 1344.6" xml:space="preserve">
<path fill-rule="evenodd" clip-rule="evenodd" d="M748.2,1236.4c-1.8,2.7-3.6,4.2-3.8,5.8c-1.6,12.9-3.5,25.8-4,38.7
	c-0.6,12.3,0.1,12.3-12.3,17.2c-6.5-3.2-9.7-8.1-10.7-15.7c-3.4-25.7-7-51.5-11.5-77c-2.2-12.7-6.5-25.1-10.1-37.6
	c-5.3-18.5-10.6-37-16.1-55.5c-1.9-6.5-3.9-13-6.7-19.1c-5.3-11.6-8.6-12.6-21.5-11.6c-16.7,1.3-33.4,1.7-50.1,2.5
	c-2.9,0.1-5.9-0.3-8.7,0.4c-13.9,3.6-16.1,3.1-15.1,17.8c1.9,26.9,3.3,54,7.2,80.6c2.1,14.5,9,28.4,13.7,42.5
	c1.2,3.6,2.8,7.3,2.9,11c0.1,14.9,5.3,28.2,12.3,40.9c4.4,8.1,9.5,15.7,14.5,23.5c3,4.7,3.3,9.4-0.6,13.2c-4.1,4-8.5,2.7-13.1-0.2
	c-14.1-9-29-16.6-38.5-31.7c-4.6-7.3-13.3-12.1-21.2-19c-2.6,4.4-4.8,7.4-6.1,10.7c-3.9,9.9-8.6,19.6-10.8,29.9
	c-2.9,13.2-11.1,23.3-17.3,34.7c-4.1,7.6-10.3,7.8-18.5,2.2c0-9.5,0.3-20-0.1-30.3c-0.3-6.1-2.1-12.1-2.8-18.1
	c-0.5-5.1-0.5-10.2-0.5-15.3c-0.1-15.2-1.3-30.5,7.5-44.5c2.2-3.6,1.9-9.4,1.3-14c-4.4-33.4-9.2-66.8-14-100.2
	c-0.7-5.1-2.4-10.2-3.9-16.3c-4.5-0.4-8.8-1.5-12.9-1.1c-17.9,1.9-34.1-4.6-50.2-10.3c-26.8-9.5-53.5-19.4-79.9-29.9
	c-22.8-9.1-46-17.7-67.6-29.1c-29.1-15.5-53.9-37.4-78.5-59.1c-8.3-7.3-16.8-14.3-25.2-21.4c-2.1-1.8-5.9-3.5-6.1-5.6
	c-1-10-6-18.1-10.7-26.6c-1.1-1.9-0.3-6.1,1.2-8c13.6-16.3,20.9-35.3,27.9-55.1c10.2-29.1,22.2-57.6,35-85.7
	c6.7-14.6,3.1-24.6-7.5-34.6c-7.1-6.8-14.5-12.4-24.5-14.4c-6.1-1.2-12.3-3.3-17.7-6.3c-13.9-7.7-29.3-8.3-44.3-11.8
	c-35.7-8.3-69.3,1.2-103.2,9.2c-3.7,0.9-7.5,1.7-11.3,2.2c-5.7,0.8-12-0.3-13.1-6.1c-0.8-4.3,1.6-10.7,4.9-13.8
	c6.2-5.9,13.7-10.7,21.1-15.1c7.1-4.1,14.8-7.1,22.2-10.8c3.3-1.7,6.3-4,10.9-6.9c-4.1-2.5-6.9-3.9-9.4-5.7
	c-10-7.5-20.3-14.7-29.7-22.8c-5.6-4.8-2.8-13.6,4.4-15.9c2.7-0.9,5.7-0.8,8.6-0.7c21.7,0.9,43.4,2.1,65.1,2.7
	c22.6,0.7,42.2-8.3,60.5-20.5c9.7-6.4,18.8-13.5,28.1-20.5c20.9-15.8,35.7-36.2,46-60.2c3.8-8.8,9.5-16.7,13.6-25.4
	c2.6-5.5,4.7-11.6,5.4-17.7c2.3-19.6,3.6-39.4,10.6-58.1c0.7-1.8,1.5-4,1.1-5.6c-5.2-18.4,4-33.5,11-49.1c2.3-5.3,5.3-10.4,8.6-15.1
	c20.2-28.1,34.1-59.4,47.4-91c0.2-0.4,0.2-1,0.5-1.4c13.5-14.2,11.5-29.6,5-46.5c-5.5-14.3-7.8-29.7-6.2-45.3
	c1.8-17.3,9.9-30.9,22.1-42.7c12.1-11.7,25.4-22.7,35.1-36.2c8.3-11.4,13.2-25.7,17.8-39.3c3.1-9.4,3.5-19.8,4.3-29.8
	C410.2,8.7,412.2,4,420,0c3.9,3.5,10,6.7,12.3,11.6c9.8,20.6,26.8,33.2,46.8,40.7c20.1,7.5,32.2,21.6,41.5,39.3
	c5.3,10.1,11.3,17.1,24.4,15.8c11-1.1,22.2,0.9,33.3,0.2c22.9-1.4,43.4,8.1,65.1,12.3c19.8,3.9,39.8,6.9,59.4,11.7
	c18.2,4.4,36.1,10,53.8,16.1c15.9,5.5,31.6,12,47,18.8c8.3,3.7,15.9,9.1,23.8,13.7c5.4,3.2,10.7,6.3,16.4,9.7
	c9-8.6,19.4-11.6,31-10.1c8.8,1.1,16.1-2.7,23.2-6.8c12.3-7.2,24.9-10,38.9-5.7c4,1.2,8.6,0.6,13,0.8c3.9,0.2,8.3-0.9,11.5,0.7
	c10.2,5.1,20.5,7,31.9,5.6c5.7-0.7,6.5,4.9,6.1,9.4c-0.7,7.2-2.7,14.3-2.5,21.5c0.4,25.1,1.4,50.1,2.3,75.1
	c0.9,26.4-5.3,49.8-27.9,66.1c-4.2,3.1-9.2,5.2-14,7.4c-13.8,6.5-13.7,7.7-12.9,22c1.4,26,3.8,52.1,1.7,77.9
	c-2.4,29.7-9.6,58.9-14,88.5c-4.9,32.6-15.2,63.5-27.3,93.9c-2.8,7-6.3,12.6-12.1,17.4c-16,13.4-25.9,30.3-30.2,51.1
	c-2.5,12.2-7,24-11.4,35.7c-3.3,9-7.4,17.3-7.1,27.6c0.2,7.9-3.5,15.9-5,24c-6.8,36.3-6.4,72.6-3.6,109.3
	c2.6,33.8,11.2,65.4,24.3,96.3c4.5,10.6,8,21.7,12.4,32.4c2.9,7,1.7,13.6-1.8,19.4c-2,3.2-6.6,7.3-9.7,7c-19-1.6-36,6.1-53.8,9.9
	c-9.8,2.1-20.1,2.7-30.1,3.1c-17.9,0.6-21.6,3.2-20.7,21.4c0.9,19.7,2.6,39.5,6.1,58.8c4.4,24.6,8,49.3,18,72.9
	c5.9,13.8,6.7,29.7,9.3,44.8c0.5,3-0.7,6.8-2.3,9.6c-3.4,6-8.6,5.9-12.3,0.1c-2-3.2-3.3-6.9-4.7-10.5
	C765.5,1255.2,759.4,1245.1,748.2,1236.4z M282.2,481.6c-0.6,0-1.1,0-1.7,0.1c0.8,5.6-0.1,12.5,2.8,16.6c3.9,5.4,3.6,10.3,4.2,16
	c1.9,15.7,3.6,31.7,19.5,41.2c3.8,2.3,6.7,6.9,8.9,11.1c9.9,18.5,21.9,34.9,39.3,47.3c12.4,8.8,24.2,18.5,36.1,28
	c2.2,1.7,4.6,3.9,5.5,6.4c2.5,6.9,7.2,10.9,13.8,13.7c8.8,3.8,17,9.1,25.9,12.5c13.5,5.1,27.2,9.6,41.1,13.5
	c7.8,2.2,16,2.5,24.1,3.8c5.6,0.9,11.2,1.7,16.6,3.1c10.7,2.7,21.2,8,31.9,8.2c12.4,0.2,23.8,2.3,35.4,5.9c6.4,2,13.3,3.3,19.9,3.2
	c22.5-0.5,45.2,2.5,67.5-3.3c4.1-1.1,8.9-1.2,13-0.1c11,3,21.8,1.7,32.9,0.9c32.8-2.2,61.5-16.1,89.6-30.8
	c23.8-12.5,46.6-27,69.6-40.9c3.6-2.2,8.1-5,9.4-8.6c6.8-19.5,13.6-39.2,18.8-59.2c4.5-17.2,7.2-34.9,10-52.5
	c3.8-23.3,8.2-46.6,10-70.1c1.6-21,0-42.3-0.4-63.4c-0.1-3.8-0.5-7.7-1.5-11.4c-2-7.2-6.4-14.3-6.3-21.4c0.3-27.2-9.5-51.7-19.5-76
	c-4-9.8-8.3-20.1-15.2-27.8c-11.5-12.9-24-25.7-38.2-35.4c-27-18.6-56.3-33.4-87.6-44.3c-38.8-13.5-78.5-22.8-118.5-31.7
	c-17.8-4-35.6-8.6-53.6-11.4c-11.2-1.7-22.9,0.2-34.3-0.5c-11.4-0.7-21.7,7.8-33.4,3.5c-1.4-0.5-3.5,1.4-5.3,1.9
	c-27.9,7.2-52.9,20.5-77.1,35.8c-29.8,19-53.1,44.6-72.9,73.5c-5.4,7.9-9.6,16.8-13.8,25.4c-12,24.7-24.4,49.2-35.3,74.4
	c-7.3,16.8-12.5,34.4-18.3,51.8c-2.9,8.7-6,17.5-7.1,26.4C285.6,438.6,284.1,460.2,282.2,481.6z M238.1,717.5c1.7-3.1,4-6.1,5.1-9.6
	c2.5-8.8,4.5-17.8,6.7-26.7c0.7-2.8,0.9-5.9,2.3-8.2c2.8-4.7,7.2-6.2,12.5-3.9c5,2.1,5.3,5.9,4.3,10.8c-3.3,14.9-4.4,30.3-11.3,44.2
	c-0.8,1.7-1.3,3.7-1.6,5.6c-4,31.8-15.7,61.6-25,91.9c-9,29-20.5,57.1-30.8,85.6c-1.3,3.6-2.8,7.5-2.7,11.2
	c0.2,4.6,0.9,9.7,3.3,13.5c16.9,27.4,43.6,44.7,68.4,63.4c17.2,12.9,36.8,22.8,56.2,32.5c19.7,9.9,40.3,18,60.7,26.7
	c3.1,1.3,6.6,2.8,9.7,2.3c14.6-2.1,28.2,4.6,42.5,4.8c5.7,0.1,11.7,0.7,17,2.6c20.2,7.3,40.4,8,60.9,2.1c3.2-0.9,6.6-1.9,9.9-1.9
	c19.7-0.5,39.4-0.8,59-1.2c14.4-0.4,28.9-2.4,43.1-1c13.2,1.2,25.6,1.4,37.9-3.7c4.3-1.8,9.2-2.5,13.9-3.1
	c22.4-2.9,44.9-5.6,67.4-8.4c10-1.3,20-3.1,30.1-3.8c15.4-1.2,30.8-1.5,46.1-2.7c3.5-0.3,6.9-2.8,10.7-4.4
	c-0.8-4.1-1.1-7.4-2.1-10.6c-5.1-17.4-13.6-33.7-14.8-52.5c-1.3-21.1-6.6-42-7.1-63.1c-0.6-25.4,1.3-51,3.5-76.4
	c2.6-28.3,4.5-56.9,11.1-84.4c4.2-17.6-2.3-32.5-1.2-51.1c-29.4,19.5-61.4,23.1-92.2,30.4c-20.8,4.9-42.2,4.5-63.5,4.8
	c-25.9,0.3-51.6,0.8-77.3-3.9c-27-4.9-54.5-7.1-81.2-12.9c-28.7-6.2-56.7-15.2-85.1-23c-22.2-6.1-42.4-15.6-58.1-33.2
	c-2.2-2.5-5.1-4.5-7.7-6.6c-20.4-16.1-41.2-31.8-61.2-48.5c-6-5-10.5-12.3-14.6-19.1c-9.4-15.5-18.3-31.4-26.8-46.2
	c-5,5.4-9.1,11-14.3,15.3c-28,23-56.1,45.8-84.5,68.2c-4.6,3.6-11,5.8-16.9,6.8c-6.4,1.1-9.9,3.7-10.1,10c-0.2,11.5,0,23-0.3,34.5
	c-0.2,7.9,3.6,10.7,11.1,12.1c15.1,2.9,30.3,6.1,44.9,10.9C203.2,703,220,710.4,238.1,717.5z M421.9,50.8
	c-4.9,11.1-7.2,20.9-12.9,28.3c-12.9,16.8-26.3,33.6-41.5,48.2c-22.8,22-25.2,47.6-17.8,76c1,3.7,4.3,6.8,6.6,10.3
	c19.2-20.6,37.2-39.8,55.1-59.1c1-0.8-0.8-4.9,0.3-8.1c4.6-14.4,7.4-28.9,7-44.2c-0.1-3.6,0.9-7.8,2.7-10.9
	c3.2-5.6,9.5-5.3,12.6,0.4c1.3,2.5,1.3,5.6,2,8.3c1.9,6.9,2.4,14.9,6.3,20.3c4.4,6.2,5,11.5,1.3,18.6c17.9-8,34-15.1,50.2-22.3
	c0.5-18.9-5.9-31.7-24.4-38.6c-12.9-4.8-24.7-12.7-36.8-19.4C429.1,56.7,426,53.8,421.9,50.8z M940.2,342.7c14.1-5,27.2-9.7,34-23.4
	c5.4-10.9,8.9-22.2,8.1-34.8c-0.7-12,0.1-24.1-0.2-36.1c-0.4-17.1-1.3-34.2-1.9-51.1c-1.5-0.4-2.4-1-3.2-0.9
	c-14.1,1.1-27.2,6.4-42.2,4.8c-12.3-1.3-23.9,6.2-29.6,19.3c-4.9,11.3-1,20.2,7.6,30.4c4.8-5.7,8.8-10.2,12.4-15
	c3.2-4.3,6.5-10.3,12.2-8c4.1,1.6,7.1,7,9.7,11.3c2.9,4.8,4.9,10.3,7.3,15.5c-4.9,9.2-9.7,18.2-14.3,27.1
	c-6.2,12.1-11.6,24.3-6.9,38.4C935.5,327,937.5,333.9,940.2,342.7z M573.2,1202.5c-2.2-10.8-4.9-20-5.9-29.5c-2.5-23-4.4-46-6.2-69
	c-1-13-3.3-14.6-16.3-14.5c-9.5,0-19,2.4-28.6,3.6c-4.5,0.6-7.2,2.9-7,7.5c0.4,10,0.9,20,1.8,30c2,21.1,4.3,42.1,6.7,63.2
	c0.9,7.8,2.4,15.6,3.8,24.9C539,1213.1,555,1208.1,573.2,1202.5z M721.5,1192.3c8.2-3.4,15-7.3,22.3-8.9c7.2-1.6,8.2-4.4,6.9-11
	c-5.6-28.4-10.3-56.9-10.7-85.9c-0.1-4.2-1.9-8.3-2.8-12.2c-20.6-3.5-37.8-1.1-49.4,7.3C697.5,1118.7,706,1156.5,721.5,1192.3z"/>
<path fill-rule="evenodd" clip-rule="evenodd" fill="#FFFFFF" d="M282.2,481.6c1.9-21.5,3.3-43,5.9-64.4c1.1-9,4.2-17.8,7.1-26.4
	c5.8-17.4,11-35.1,18.3-51.8c10.9-25.2,23.3-49.7,35.3-74.4c4.2-8.7,8.4-17.5,13.8-25.4c19.8-28.9,43-54.5,72.9-73.5
	c24.1-15.4,49.2-28.7,77.1-35.8c1.9-0.5,4-2.4,5.3-1.9c11.8,4.2,22-4.3,33.4-3.5c11.4,0.7,23.1-1.2,34.3,0.5
	c18,2.7,35.8,7.4,53.6,11.4c39.9,8.9,79.7,18.2,118.5,31.7c31.3,10.9,60.5,25.6,87.6,44.3c14.2,9.8,26.7,22.5,38.2,35.4
	c6.9,7.7,11.2,18,15.2,27.8c10,24.4,19.8,48.8,19.5,76c-0.1,7.1,4.4,14.2,6.3,21.4c1,3.7,1.4,7.6,1.5,11.4
	c0.3,21.1,1.9,42.4,0.4,63.4c-1.8,23.5-6.2,46.8-10,70.1c-2.9,17.6-5.5,35.3-10,52.5c-5.2,20-12,39.7-18.8,59.2
	c-1.2,3.5-5.7,6.4-9.4,8.6c-23.1,13.9-45.8,28.4-69.6,40.9c-28.2,14.7-56.9,28.6-89.6,30.8c-11.1,0.8-21.9,2.1-32.9-0.9
	c-4-1.1-8.9-0.9-13,0.1c-22.3,5.8-45,2.7-67.5,3.3c-6.6,0.2-13.5-1.2-19.9-3.2c-11.6-3.6-23-5.7-35.4-5.9
	c-10.7-0.2-21.2-5.5-31.9-8.2c-5.5-1.4-11.1-2.2-16.6-3.1c-8-1.3-16.3-1.6-24.1-3.8c-13.9-3.9-27.6-8.4-41.1-13.5
	c-8.9-3.4-17.1-8.7-25.9-12.5c-6.6-2.8-11.3-6.8-13.8-13.7c-0.9-2.5-3.3-4.6-5.5-6.4c-11.9-9.5-23.7-19.2-36.1-28
	c-17.4-12.3-29.4-28.8-39.3-47.3c-2.2-4.1-5.1-8.8-8.9-11.1c-15.9-9.5-17.6-25.5-19.5-41.2c-0.7-5.7-0.4-10.7-4.2-16
	c-2.9-4.1-2-11-2.8-16.6C281.1,481.7,281.7,481.7,282.2,481.6z M803.6,296.6c6.7-9.6,14.9-16.2,24.7-20.7c5.3-2.4,10.2-5.4,7.6-11.7
	c-2.9-7-8.9-3.4-13.8-2.2c-0.9,0.2-1.8,0.8-2.6,1.3c-9.9,6-19.6,12.3-29.7,17.8c-4,2.2-8.8,3.3-13.4,3.6c-6.7,0.4-13.5-0.3-20.3-0.5
	c-12.8-0.4-25.1,2.2-36,8.9c-24.6,15.1-43.5,34.4-50.6,64c-4.6,19.2-6.3,37.8-1.2,57c5.2,19.7,16.9,33.9,33.8,44.9
	c9.2,6,18.5,10.3,29.3,11.2c39.9,3.1,71.2-16.5,101.4-38.7c2.2-1.6,3.6-4.5,4.8-7.1c7-15.5,13.5-31.1,8.1-48.7
	c-2.5-8.1,0.5-13.8,7.5-18.3c5.4-3.5,10.1-8.1,15.1-12.2c-9.1-10.4-9.1-10.4-17.8-8c-2.3,0.6-4.6,1.5-6.9,2.2
	c-6.6,2.1-11.2-0.2-14.5-6.1c-3.2-5.8,0.7-9.5,4.4-12.2c5-3.7,10.9-6.1,16.1-9.6c2.1-1.4,4.7-4.5,4.4-6.3c-0.5-2.9-2.7-6.5-5.3-7.7
	c-2.6-1.3-6.6-0.9-9.7-0.1c-5.1,1.4-10.2,3.3-14.8,5.8C815.5,307.7,809.4,305.3,803.6,296.6z M589.5,143.2c-8.3,2.1-9,8.9-10.5,14.8
	c-4.4,17-5.6,17.4-23.4,19.1c-9.9,0.9-20.3,2.8-29.1,7c-19.7,9.4-35.3,23.7-43.5,44.5c-3.3,8.5-5.7,17.3-7.9,26.2
	c-5.9,23.1,0.1,43.2,17.2,59.4c8.4,7.9,18,14.7,27.7,20.9c15.7,10,33.3,12.7,51.2,8.3c23.1-5.6,43.9-15.7,62.4-31.2
	c17.2-14.4,23.1-33.3,19-53c-3.6-17-4.2-30.7,8.1-43.8c3.4-3.6,4-9.3-1-12.8c-5.2-3.6-9.1,0-12.5,3.6c-3.9,4.1-7.7,8.4-11.2,12.3
	c-15.1-7.2-13-13.6-9.6-23.8c3-9,5.6-18.1,8.3-26.7c-13-7.1-15.2-6.3-18.6,3.8c-2.2,6.6-5.4,12.9-8.2,19.4
	c-16.3-7.5-16.6-8.2-13.4-23.4c0.7-3.3,0.8-6.8,2-9.9C599.5,149.9,595,146.3,589.5,143.2z M514.4,572.8c11.8,0.9,23.1-1.2,33.6-6.8
	c6.4-3.4,12.4-8.5,19.2-9.9c12.5-2.6,20.1-10.7,27.3-19.9c3.9-4.9,7.9-9.7,11.9-14.5c16.6-19.3,17.7-52.3,1.3-72.4
	c-8.8-10.8-19.6-20-28.7-30.5c-24.4-28-66-23.3-88.3-7.6c-8.9,6.3-16.5,14.6-24.4,22.3c-20.2,19.7-26.3,43.6-22.8,71.2
	C447.6,537.1,470.7,573.5,514.4,572.8z M598.7,625.2c13.9,0,25.9,0.3,37.9-0.2c5.1-0.2,10.7-1.1,15-3.6
	c11.1-6.3,21.2-29.3,17.9-41.6c-2.8-10.5-4.5-20.1,1.4-30.2c1.3-2.2-0.2-8.4-2.3-9.7c-3.1-1.9-8-1.8-11.9-1
	c-2.2,0.5-4.6,3.8-5.3,6.3c-4.6,16.5-15.9,28.4-27.2,40.2c-6.8,7.1-13.5,15-24.9,15.9c-6.7,0.6-8.3,6.4-6.9,12
	C593.5,617.5,596.4,621,598.7,625.2z"/>
<path fill-rule="evenodd" clip-rule="evenodd" fill="#FFFFFF" d="M238.1,717.5c-18.1-7.1-34.9-14.5-52.2-20.2
	c-14.6-4.8-29.8-8-44.9-10.9c-7.5-1.4-11.3-4.3-11.1-12.1c0.3-11.5,0-23,0.3-34.5c0.1-6.3,3.7-8.9,10.1-10c5.9-1,12.3-3.2,16.9-6.8
	c28.4-22.4,56.5-45.2,84.5-68.2c5.2-4.3,9.3-9.9,14.3-15.3c8.6,14.8,17.4,30.7,26.8,46.2c4.2,6.8,8.6,14.1,14.6,19.1
	c20,16.7,40.7,32.4,61.2,48.5c2.7,2.1,5.5,4.1,7.7,6.6c15.7,17.6,36,27,58.1,33.2c28.3,7.8,56.4,16.8,85.1,23
	c26.7,5.8,54.2,8,81.2,12.9c25.7,4.7,51.4,4.2,77.3,3.9c21.3-0.3,42.6,0.1,63.5-4.8c30.8-7.3,62.8-10.9,92.2-30.4
	c-1.1,18.6,5.4,33.5,1.2,51.1c-6.6,27.5-8.6,56.1-11.1,84.4c-2.3,25.4-4.1,51-3.5,76.4c0.5,21.1,5.7,42,7.1,63.1
	c1.2,18.8,9.7,35,14.8,52.5c0.9,3.2,1.3,6.5,2.1,10.6c-3.8,1.7-7.2,4.2-10.7,4.4c-15.4,1.2-30.8,1.5-46.1,2.7
	c-10.1,0.8-20,2.6-30.1,3.8c-22.5,2.8-44.9,5.5-67.4,8.4c-4.7,0.6-9.6,1.3-13.9,3.1c-12.4,5-24.8,4.9-37.9,3.7
	c-14.2-1.3-28.7,0.7-43.1,1c-19.7,0.5-39.4,0.7-59,1.2c-3.3,0.1-6.7,1-9.9,1.9c-20.5,6-40.7,5.2-60.9-2.1c-5.3-1.9-11.3-2.5-17-2.6
	c-14.3-0.2-27.9-6.9-42.5-4.8c-3.1,0.4-6.7-1-9.7-2.3c-20.3-8.7-40.9-16.8-60.7-26.7c-19.3-9.7-39-19.6-56.2-32.5
	c-24.8-18.7-51.5-36-68.4-63.4c-2.3-3.8-3.1-8.9-3.3-13.5c-0.1-3.7,1.4-7.6,2.7-11.2c10.3-28.5,21.9-56.7,30.8-85.6
	c9.4-30.3,21-60.1,25-91.9c0.2-1.9,0.7-3.9,1.6-5.6c6.9-13.9,8-29.3,11.3-44.2c1.1-4.9,0.8-8.6-4.3-10.8c-5.3-2.2-9.7-0.7-12.5,3.9
	c-1.4,2.3-1.6,5.4-2.3,8.2c-2.2,8.9-4.1,17.9-6.7,26.7C242.2,711.3,239.8,714.4,238.1,717.5z M613.3,972.3
	c-3,12.2-5.5,21.4-7.7,30.8c-2.5,10.8-4.9,21.6-6.8,32.6c-0.9,5.3-0.6,11.2,6,13.1c5.8,1.6,11.6,1.3,15.9-3.9
	c1.2-1.5,2.2-3.2,3.2-4.8c6.1-11,11.8-22.2,18.1-33c16.5-28,37.1-51.7,68-64.8c5.6-2.4,10.6-6.6,15.3-10.6
	c7.3-6.3,13.4-14.2,21.2-19.7c7.3-5.1,9.5-12,10.2-19.6c0.3-3.6-1.7-8.7-4.4-10.9c-4-3.3-7.8,0-11,3.5c-5.8,6.5-11.2,13.5-18,18.9
	c-14.2,11.4-28.9,22.3-44,32.7c-8.3,5.7-16.4,3.7-23-4.3c-2.8-3.4-5.6-7-9.1-9.3c-3.1-2-7.3-2.4-12.3-3.9
	c37.9-44.1,61.5-94.3,81.2-146.6c-19-11.7-21.8-10.8-26.8,10.3c-9.1,38.2-27.9,71.8-49.6,104c-2.1,3.2-5.1,5.8-8,8.4
	c-19.6,17.1-39.2,34.2-58.9,51.2c-4,3.5-8.7,6.3-12.2,10.2c-2.6,3-5.5,7.6-5,10.9c0.8,5.4,5.6,9.1,11.6,9c8.2-0.1,16.4-0.6,24.5-1.3
	C598.2,974.6,604.3,973.6,613.3,972.3z M467,921.7c0.1-29.2-13.4-45.2-41.7-50.7c-3.3-0.6-7.2-1-9.5-3c-10.1-8.3-18-3.1-25.5,3.6
	c-4.6,4.2-8.8,9-12.6,13.9c-17.2,22-11.1,53.2,13.3,66.8c5.7,3.2,12.8,6.7,18.9,6.1c16.6-1.5,33.2-3.7,46.5-16.1
	C463,936.1,469.3,930.7,467,921.7z M451.2,821.5c7.2-2.1,15-3.2,21.5-6.7c7.1-3.9,13.3-9.6,19.2-15.2c15.6-14.8,15.3-42.3-1.6-54.8
	c-13.1-9.6-28.4-16.8-45.1-17.1c-5.4-0.1-12.7,3.4-16.2,7.6c-16.6,19.7-20.9,41.4-8.8,65.5C426.7,813.7,435.5,821.6,451.2,821.5z"/>
<path fill-rule="evenodd" clip-rule="evenodd" fill="#FFFFFF" d="M421.9,50.8c4.1,3,7.2,5.9,10.8,7.9c12.1,6.8,23.9,14.6,36.8,19.4
	c18.5,6.9,24.9,19.7,24.4,38.6c-16.2,7.2-32.3,14.4-50.2,22.3c3.7-7.2,3.1-12.4-1.3-18.6c-3.9-5.5-4.4-13.4-6.3-20.3
	c-0.8-2.8-0.8-5.9-2-8.3c-3-5.7-9.4-6.1-12.6-0.4c-1.8,3.2-2.8,7.3-2.7,10.9c0.5,15.2-2.4,29.7-7,44.2c-1,3.2,0.7,7.3-0.3,8.1
	c-18,19.2-35.9,38.5-55.1,59.1c-2.3-3.5-5.7-6.6-6.6-10.3c-7.4-28.3-5-53.9,17.8-76c15.2-14.7,28.6-31.4,41.5-48.2
	C414.7,71.7,417,61.9,421.9,50.8z"/>
<path fill-rule="evenodd" clip-rule="evenodd" fill="#FFFFFF" d="M940.2,342.7c-2.7-8.8-4.7-15.7-7-22.6
	c-4.7-14.1,0.7-26.3,6.9-38.4c4.6-9,9.4-17.9,14.3-27.1c-2.4-5.3-4.3-10.7-7.3-15.5c-2.6-4.3-5.6-9.6-9.7-11.3
	c-5.8-2.3-9,3.7-12.2,8c-3.6,4.8-7.7,9.3-12.4,15c-8.6-10.2-12.5-19.1-7.6-30.4c5.7-13.1,17.3-20.6,29.6-19.3
	c15,1.6,28.2-3.7,42.2-4.8c0.9-0.1,1.8,0.5,3.2,0.9c0.7,16.9,1.5,34,1.9,51.1c0.3,12-0.5,24.1,0.2,36.1c0.8,12.6-2.7,23.9-8.1,34.8
	C967.4,333,954.3,337.7,940.2,342.7z"/>
<path fill-rule="evenodd" clip-rule="evenodd" fill="#FFFFFF" d="M573.2,1202.5c-18.1,5.7-34.1,10.6-51.8,16.1
	c-1.5-9.3-3-17-3.8-24.9c-2.4-21-4.6-42.1-6.7-63.2c-1-10-1.4-20-1.8-30c-0.2-4.6,2.5-6.9,7-7.5c9.5-1.2,19-3.5,28.6-3.6
	c13-0.1,15.3,1.5,16.3,14.5c1.8,23,3.7,46,6.2,69C568.2,1182.4,570.9,1191.7,573.2,1202.5z"/>
<path fill-rule="evenodd" clip-rule="evenodd" fill="#FFFFFF" d="M721.5,1192.3c-15.5-35.8-23.9-73.6-33.7-110.8
	c11.6-8.3,28.8-10.8,49.4-7.3c0.9,3.9,2.7,8,2.8,12.2c0.4,29.1,5.2,57.6,10.7,85.9c1.3,6.6,0.3,9.4-6.9,11
	C736.4,1185,729.6,1188.9,721.5,1192.3z"/>
<path fill-rule="evenodd" clip-rule="evenodd" d="M803.6,296.6c5.8,8.6,11.9,11.1,20.5,6.4c4.6-2.5,9.7-4.4,14.8-5.8
	c3.1-0.8,7.1-1.3,9.7,0.1c2.5,1.3,4.8,4.9,5.3,7.7c0.3,1.9-2.3,4.9-4.4,6.3c-5.2,3.5-11.1,5.9-16.1,9.6c-3.7,2.8-7.6,6.4-4.4,12.2
	c3.3,5.9,7.9,8.2,14.5,6.1c2.3-0.7,4.6-1.5,6.9-2.2c8.7-2.4,8.7-2.4,17.8,8c-5,4.1-9.7,8.7-15.1,12.2c-7.1,4.5-10,10.3-7.5,18.3
	c5.4,17.6-1,33.2-8.1,48.7c-1.2,2.6-2.6,5.5-4.8,7.1c-30.2,22.2-61.5,41.8-101.4,38.7c-10.8-0.9-20.1-5.2-29.3-11.2
	c-16.9-11-28.6-25.2-33.8-44.9c-5-19.2-3.4-37.8,1.2-57c7.1-29.6,26-48.9,50.6-64c10.9-6.7,23.2-9.3,36-8.9c6.8,0.2,13.6,1,20.3,0.5
	c4.5-0.3,9.4-1.5,13.4-3.6c10.1-5.5,19.8-11.8,29.7-17.8c0.8-0.5,1.7-1.1,2.6-1.3c4.9-1.2,10.9-4.8,13.8,2.2
	c2.6,6.4-2.3,9.3-7.6,11.7C818.5,280.5,810.3,287.1,803.6,296.6z M738.9,453.7c9-1.5,18.2-2.1,26.9-4.7
	c31.9-9.4,48.4-33.2,57.5-63.4c0.8-2.7,1.5-6,0.7-8.5c-5.4-17.3-7.3-36.2-22.1-49.4c-3.5-3.1-6.2-7.6-7.9-12
	c-3.2-8-9.3-11.8-17-14.1c-15.6-4.7-31.3-3.5-45.1,3.9c-31.1,16.7-59.7,53.7-49.4,98.5C689.2,433,711.5,452.9,738.9,453.7z"/>
<path fill-rule="evenodd" clip-rule="evenodd" d="M589.5,143.2c5.5,3.1,10.1,6.6,6.9,14.6c-1.2,3.1-1.3,6.6-2,9.9
	c-3.2,15.2-2.9,15.8,13.4,23.4c2.8-6.4,5.9-12.7,8.2-19.4c3.4-10,5.6-10.8,18.6-3.8c-2.6,8.6-5.3,17.7-8.3,26.7
	c-3.4,10.2-5.5,16.5,9.6,23.8c3.6-3.9,7.3-8.1,11.2-12.3c3.4-3.6,7.3-7.3,12.5-3.6c5,3.5,4.4,9.2,1,12.8
	c-12.3,13.1-11.7,26.8-8.1,43.8c4.1,19.7-1.7,38.6-19,53c-18.5,15.5-39.4,25.6-62.4,31.2c-18,4.4-35.5,1.7-51.2-8.3
	c-9.7-6.2-19.3-13-27.7-20.9c-17.2-16.2-23.1-36.3-17.2-59.4c2.2-8.8,4.6-17.7,7.9-26.2c8.2-20.9,23.9-35.2,43.5-44.5
	c8.8-4.2,19.2-6.1,29.1-7c17.8-1.7,19-2.1,23.4-19.1C580.5,152.1,581.1,145.3,589.5,143.2z M622.4,254.5c1.9-14.8-4-28-16.2-38.2
	c-8.1-6.8-17.8-11.7-25.7-18.6c-5.4-4.7-10.9-5.8-17.2-5.2c-37.6,3.8-63,27.4-71.7,63.1c-3.4,13.9-2.9,28.7,6.4,40.1
	c33.4,41.1,83.4,42.5,116.6-3.6c4-5.5,5.1-13.3,6.7-20.3C622.3,266.7,622,261.2,622.4,254.5z"/>
<path fill-rule="evenodd" clip-rule="evenodd" d="M514.4,572.8c-43.7,0.7-66.9-35.7-70.9-68.1c-3.5-27.6,2.6-51.6,22.8-71.2
	c7.9-7.7,15.5-16,24.4-22.3c22.4-15.7,64-20.4,88.3,7.6c9.2,10.5,19.9,19.7,28.7,30.5c16.3,20.1,15.2,53.1-1.3,72.4
	c-4.1,4.7-8.1,9.6-11.9,14.5c-7.3,9.1-14.8,17.2-27.3,19.9c-6.8,1.4-12.8,6.5-19.2,9.9C537.5,571.5,526.3,573.7,514.4,572.8z
	 M459.3,492.5c-0.1,41.3,25.7,66.7,64.2,61.9c10.4-1.3,20.8-3.7,28.6-11.9c4.9-5.1,10-10.1,15.5-14.6c18.6-15.4,35.6-47.6,17.7-74.1
	c-6.2-9.1-15-16.3-22.1-24.8c-6.4-7.8-13.2-14.3-24.1-13.5c-9.3,0.7-18.8,0.6-27.8,2.9c-14.2,3.7-22.7,15.6-32.4,25.6
	C465.9,457.4,458.4,472.9,459.3,492.5z"/>
<path fill-rule="evenodd" clip-rule="evenodd" d="M598.7,625.2c-2.4-4.3-5.2-7.8-6.3-11.7c-1.5-5.6,0.1-11.5,6.9-12
	c11.4-1,18-8.8,24.9-15.9c11.3-11.8,22.6-23.7,27.2-40.2c0.7-2.5,3.2-5.8,5.3-6.3c3.8-0.8,8.8-0.9,11.9,1c2.1,1.3,3.6,7.5,2.3,9.7
	c-5.9,10.1-4.2,19.7-1.4,30.2c3.3,12.2-6.8,35.3-17.9,41.6c-4.3,2.4-9.9,3.3-15,3.6C624.6,625.6,612.6,625.2,598.7,625.2z"/>
<path fill-rule="evenodd" clip-rule="evenodd" d="M613.3,972.3c-9.1,1.3-15.1,2.3-21.3,2.9c-8.1,0.7-16.3,1.2-24.5,1.3
	c-6,0.1-10.7-3.7-11.6-9c-0.5-3.4,2.4-8,5-10.9c3.4-3.9,8.2-6.7,12.2-10.2c19.7-17,39.3-34.1,58.9-51.2c2.9-2.5,5.9-5.2,8-8.4
	c21.7-32.2,40.5-65.8,49.6-104c5-21.1,7.8-22.1,26.8-10.3C696.6,824.7,673,875,635.1,919c4.9,1.5,9.1,1.9,12.3,3.9
	c3.6,2.3,6.4,5.9,9.1,9.3c6.5,8,14.7,10,23,4.3c15.1-10.3,29.7-21.3,44-32.7c6.7-5.4,12.2-12.4,18-18.9c3.2-3.5,6.9-6.9,11-3.5
	c2.7,2.3,4.7,7.3,4.4,10.9c-0.7,7.6-2.9,14.4-10.2,19.6c-7.8,5.5-13.9,13.4-21.2,19.7c-4.7,4.1-9.7,8.2-15.3,10.6
	c-30.9,13.1-51.5,36.8-68,64.8c-6.4,10.8-12.1,22-18.1,33c-0.9,1.7-2,3.4-3.2,4.8c-4.3,5.3-10.1,5.5-15.9,3.9
	c-6.7-1.8-6.9-7.8-6-13.1c1.9-10.9,4.3-21.8,6.8-32.6C607.8,993.7,610.3,984.5,613.3,972.3z"/>
<path fill-rule="evenodd" clip-rule="evenodd" d="M467,921.7c2.3,9-4,14.3-10.7,20.6c-13.4,12.4-30,14.6-46.5,16.1
	c-6.1,0.6-13.1-2.9-18.9-6.1c-24.5-13.6-30.5-44.8-13.3-66.8c3.8-4.9,8-9.7,12.6-13.9c7.5-6.8,15.4-11.9,25.5-3.6
	c2.4,2,6.3,2.4,9.5,3C453.6,876.5,467.1,892.5,467,921.7z M440.7,914.5c-2.7-16.1-13.8-24.1-26.1-29.8c-4.4-2.1-12-1.4-16.3,1.1
	c-19.1,11.3-20.2,37.7-2.8,51.7c10.7,8.7,21.4,8.1,30.4-2.5C431.5,928.3,436,920.9,440.7,914.5z"/>
<path fill-rule="evenodd" clip-rule="evenodd" d="M451.2,821.5c-15.8,0.2-24.5-7.8-31-20.7c-12.1-24.1-7.8-45.8,8.8-65.5
	c3.6-4.2,10.8-7.7,16.2-7.6c16.7,0.4,32,7.5,45.1,17.1c17,12.4,17.2,40,1.6,54.8c-5.9,5.6-12.1,11.4-19.2,15.2
	C466.3,818.3,458.5,819.3,451.2,821.5z M455.5,804.4c1.6-0.9,6.3-2,8.6-5c5.2-6.8,9.5-14.4,13.7-22c3.5-6.4,1.9-12.6-3.6-16.8
	c-6.8-5.2-14.2-9.7-21.8-13.6c-7.6-3.9-11.1-2.9-14.6,5.4c-3.3,7.8-6.3,16.3-6.7,24.7C430.3,792.3,440.5,803.9,455.5,804.4z"/>
<path fill-rule="evenodd" clip-rule="evenodd" fill="#FFFFFF" d="M738.9,453.7c-27.4-0.8-49.7-20.7-56.4-49.8
	c-10.3-44.8,18.2-81.8,49.4-98.5c13.8-7.4,29.5-8.6,45.1-3.9c7.8,2.3,13.8,6.1,17,14.1c1.8,4.4,4.5,8.9,7.9,12
	c14.8,13.3,16.7,32.1,22.1,49.4c0.8,2.5,0.1,5.8-0.7,8.5c-9.1,30.2-25.6,54-57.5,63.4C757.1,451.6,747.9,452.2,738.9,453.7z
	 M734.3,349.3c-11.7,0.1-22.6,6.6-22.9,13.7c-0.5,10.3,9.9,24,18.2,24c10.4,0.1,19-11.1,19-24.7
	C748.6,354.8,742.4,349.2,734.3,349.3z"/>
<path fill-rule="evenodd" clip-rule="evenodd" fill="#FFFFFF" d="M622.4,254.5c-0.4,6.7-0.1,12.2-1.2,17.3
	c-1.5,6.9-2.7,14.7-6.7,20.3c-33.1,46.1-83.1,44.7-116.6,3.6c-9.3-11.4-9.7-26.3-6.4-40.1c8.6-35.7,34.1-59.3,71.7-63.1
	c6.4-0.7,11.9,0.5,17.2,5.2c7.9,6.9,17.6,11.9,25.7,18.6C618.4,226.5,624.4,239.7,622.4,254.5z M531.8,263.6
	c6.4-0.9,10.3-1,13.9-2.1c9-2.7,14.9-15.4,11.9-24.9c-2.2-6.7-11.9-9.9-20.7-7c-6.2,2-10.8,5.8-14,11.5c-2.8,4.9-7.7,10.2-3.2,15.5
	C523.1,260.4,529,262.1,531.8,263.6z"/>
<path fill-rule="evenodd" clip-rule="evenodd" fill="#FFFFFF" d="M459.3,492.5c-0.8-19.6,6.6-35.1,19.7-48.5
	c9.7-10,18.2-22,32.4-25.6c8.9-2.3,18.5-2.2,27.8-2.9c10.9-0.8,17.7,5.7,24.1,13.5c7.1,8.5,15.9,15.7,22.1,24.8
	c17.9,26.5,0.9,58.7-17.7,74.1c-5.5,4.5-10.6,9.5-15.5,14.6c-7.9,8.2-18.2,10.6-28.6,11.9C485,559.1,459.2,533.8,459.3,492.5z
	 M515.6,457.1c-8.9-2.4-16.2-1.6-21,6c-3,4.8-0.6,9.2,3.1,12.8c3.7,3.7,8,5.5,12.9,2.5C518.6,473.4,518.5,466.1,515.6,457.1z
	 M525.7,501.3c12.1,6.2,18.7,6.1,20.6,0.8c1.4-3.9-2.6-11.7-6.9-12.5c-2.1-0.4-5.1,0.1-6.5,1.4C530.2,493.7,528.4,497.3,525.7,501.3
	z"/>
<path fill-rule="evenodd" clip-rule="evenodd" fill="#FFFFFF" d="M440.7,914.5c-4.6,6.4-9.2,13.9-14.8,20.4
	c-9.1,10.6-19.7,11.2-30.4,2.5c-17.3-14-16.3-40.4,2.8-51.7c4.3-2.5,11.9-3.2,16.3-1.1C426.9,890.4,438,898.4,440.7,914.5z"/>
<path fill-rule="evenodd" clip-rule="evenodd" fill="#FFFFFF" d="M455.5,804.4c-15-0.4-25.2-12-24.4-27.3c0.4-8.4,3.4-16.9,6.7-24.7
	c3.5-8.3,7-9.3,14.6-5.4c7.6,3.9,15,8.5,21.8,13.6c5.4,4.1,7.1,10.4,3.6,16.8c-4.2,7.5-8.5,15.1-13.7,22
	C461.8,802.4,457.1,803.5,455.5,804.4z"/>
<path fill-rule="evenodd" clip-rule="evenodd" d="M734.3,349.3c8.1-0.1,14.3,5.5,14.3,13c0,13.5-8.6,24.7-19,24.7
	c-8.3,0-18.7-13.7-18.2-24C711.7,355.9,722.6,349.4,734.3,349.3z"/>
<path fill-rule="evenodd" clip-rule="evenodd" d="M531.8,263.6c-2.8-1.6-8.7-3.2-12-7.1c-4.5-5.3,0.3-10.6,3.2-15.5
	c3.2-5.7,7.8-9.4,14-11.5c8.8-2.9,18.5,0.3,20.7,7c3,9.5-2.8,22.2-11.9,24.9C542.1,262.6,538.2,262.7,531.8,263.6z"/>
<path fill-rule="evenodd" clip-rule="evenodd" d="M515.6,457.1c2.8,9,3,16.3-5,21.3c-4.9,3-9.2,1.3-12.9-2.5
	c-3.6-3.6-6.1-8-3.1-12.8C499.4,455.4,506.7,454.7,515.6,457.1z"/>
<path fill-rule="evenodd" clip-rule="evenodd" d="M525.7,501.3c2.7-4,4.5-7.6,7.2-10.3c1.3-1.4,4.4-1.8,6.5-1.4
	c4.4,0.8,8.4,8.6,6.9,12.5C544.3,507.4,537.7,507.6,525.7,501.3z"/>
</svg>
