<?xml version="1.0" encoding="utf-8"?>
<!DOCTYPE svg PUBLIC "-//W3C//DTD SVG 1.1//EN" "http://www.w3.org/Graphics/SVG/1.1/DTD/svg11.dtd">
<svg artist="zl2017" version="1.1" id="zlIcon-piggy-c" xmlns="http://www.w3.org/2000/svg" xmlns:xlink="http://www.w3.org/1999/xlink" x="0px" y="0px"
	 width="1000px" height="1363px" viewBox="0 0 1000 1363" enable-background="new 0 0 1000 1363" xml:space="preserve">
<path fill-rule="evenodd" clip-rule="evenodd" d="M684.2,1153.5c1.5,33.4,2.7,65.3,4.3,97.3c1.1,22.2,2.9,44.4,4.2,66.6
	c0.2,3.7,0.2,7.8-1,11.3c-3.5,9.6-12.8,11.1-18.5,2.7c-4.2-6.2-6.9-13.5-10.2-20.3c-4.4-9.2-8.7-18.5-13.8-29.4
	c-12.7,11.6-16.3,24.7-18.5,38.6c-0.8,4.8-0.8,10.1-3,14.1c-1.7,3.1-6.6,6.7-9.5,6.2c-3.9-0.7-8-4.4-10.5-7.9
	c-1.6-2.2-0.7-6.3-0.9-9.6c-0.2-2.7,0.8-6.6-0.6-8c-13.8-13.6-6.4-31-8.8-46.6c-3-19.8-3.8-39.9-6.3-59.7
	c-1.7-13.9-5.2-27.7,0.5-42.4c-18-3.3-34.7-3-51.2-1.5c-40.2,3.6-80.2,3.3-120.2-2.5c-3.2-0.5-6.4-1-9.7-1.1
	c-13.4-0.3-14,0.9-16.5,13.8c-7.8,39.7-4.6,79.9-6.1,119.8c-0.4,10.1,2.6,20.4,4.2,30.6c0.4,2.7,1.7,5.2,2,7.9
	c1.5,10.5-2.2,18.2-9.4,20.2c-6.9,1.9-12.6-1.5-17.3-11.5c-3.9-8.3-6.9-17.1-10.6-25.5c-2.3-5.2-5.3-10.1-8.9-17
	c-8.4,14.1-5.1,27.6-8.1,39.8c-0.6,2.6,0,5.4-0.1,8.2c-0.4,14.3-1.6,15.4-20,15.3c-0.9-6.4-3-13.2-2.7-19.9
	c1.9-52.4-9.9-102.4-25.2-151.9c-3-9.8-5.5-19.8-8.3-29.8c-14.7,0-28.8-0.3-42.8,0.1c-25.5,0.6-50.9,1.3-76.4,2.3
	c-5.9,0.2-11.7,2.3-17.6,2.9c-17,1.7-33.8-0.3-49.6-6.5c-28.9-11.4-55.8-26.2-80.1-46.3c-14.5-12-18.3-26.7-15.6-42.9
	c6.3-37.4,14.9-74.5,21.5-111.9c3.8-21.3,5.6-43,8.4-64.5c1.3-10.2,3.2-20.4,4.1-30.6c2.1-23.8,3.8-47.6,5.6-71.4
	c2.2-29.8,5.1-59.5,6.2-89.3c0.6-16.1-1.6-32.3-3-48.3c-2.7-29.7-4.2-59.4-2.9-89.2c1.4-32.6,2.2-65.2,4.4-97.7
	c1.2-17.8,3.4-35.7,7.6-53c7.9-32.1,17.3-63.8,26.8-95.5c3.2-10.9,8.2-21.2,12.6-31.7c3.2-7.7,1.6-12.6-5.9-17.6
	c-24.9-16.6-46.4-58.6-37.6-87.8c3.9-13,7.4-26.2,12.3-38.8C71.9,116.5,78,88.8,77.2,59.5C76.8,46.9,84.2,42.9,95.1,49
	c5.7,3.2,10.9,7.2,16.6,10.3c33.9,18.4,69.9,29.3,108.9,28.7c8.1-0.1,16.2,0.9,24.3,1.4c17,1,31.3-7.7,46.8-12.3
	c31.1-9.2,60.5-23.9,93.2-28.6c15.8-2.3,30.8-9.5,46.2-14.4c3.1-1,6.5-0.7,9.6-1.6c16-4.5,32-9.2,48.1-13.7c3.6-1,7.3-2,11-2.1
	c31-0.4,62-1.1,93-0.8c14,0.1,28.4,0.7,42,4c13.5,3.2,26.4,9.6,39.2,15.4c13.3,6,26.2,13,39.3,19.6c1.9,1,4.3,3,5.8,2.5
	c16.1-5.2,35.3-0.6,48.9-12.8C787.9,27,812.6,20.3,836.7,12c8.1-2.8,16-6.2,23.8-9.9c10.1-4.7,17.6-1.5,18.6,9.5
	c2.4,27.5,9.5,54.7,6.1,82.7c-0.4,3.1,1.1,6.4,1.2,9.6c0.3,11.3,2.2,23,0.2,33.9c-4,21.8-10.6,43.1-15.4,64.8
	c-1.2,5.5-1.6,12.2,0.3,17.4c17.9,49.3,26.9,100.5,32.9,152.4c2.4,21,4.7,42,6.4,63.1c0.5,6.9-1.9,14-1.8,21
	c0.3,16.3,1.6,32.5,1.8,48.8c0.2,14.5,2.5,28.9-2.2,43.7c-2.8,8.8-1,19.5,0.5,29.1c5.7,35.8,12.2,71.5,18.1,107.3
	c1.6,9.6,1.7,19.4,3.1,29.1c4.3,29.5,8.5,59.1,13.6,88.5c5.8,33.7,11.5,67.4,18.8,100.7c8.8,40.3,19.1,80.2,29,120.3
	c1.8,7.4,4.2,14.6,6.6,21.8c4,12-0.6,23.3-11.2,30.8c-24.1,16.9-51.7,24.3-79.6,31.3c-30.5,7.6-60.8,15.8-91.3,23.2
	c-12.1,2.9-24.5,4.4-36.7,6.8c-8.5,1.7-16.8,4.3-25.4,5.7c-18.1,3-36.3,5.5-54.5,8.1C694.7,1152.2,690.1,1152.7,684.2,1153.5z
	 M976.2,1049.6c-3.6-14.3-7.3-29.6-11.4-44.7c-6.4-23.6-13.8-47-19.6-70.7c-5.3-21.6-9.1-43.5-13.4-65.3
	c-3.8-19.7-8.2-39.3-10.9-59.2c-5-36.5-8.1-73.4-13.4-109.8c-5-34.2-13.3-68-17.6-102.3c-3.4-26.9-7.5-22.1-29.6-21
	c-1.1,0-2.1,0.8-3.1,0.8c-17.8-0.1-35.3,7-53.3,1.3c-11.4-3.6-23.1-5.9-34.6-8.9c-13.7-3.5-27.4-6.9-41-10.4
	c-8.8-2.3-14.8,0.7-18.5,8.9c-3.1,6.9-7.1,13.6-9.4,20.8c-2.4,7.5-7.7,14.8-3.9,22.7c31.8,18,64,33.9,90.3,59.1
	c6.9,6.6,15.8,11.7,24.7,15.5c12.9,5.6,23.4,13.4,32.4,24c5.2,6.1,11.1,12,17.6,16.7c17.5,12.5,17.8,14.1,1.2,27.7
	c-13.7,11.2-22.2,10.6-30-4.4c-9.9-19.2-23.5-34.9-38.5-50.1c-7.3-7.3-15.5-11.4-24.3-15.3c-6.6-2.9-11.8-1.8-17.8,3.1
	c-15.6,12.8-32.4,23.5-52.4,28.8c-9.9,2.6-19.6,6.2-29.1,10c-8.5,3.4-16.3,8.9-24.9,11.6c-24.9,7.6-50.1,14.3-75.1,21.3
	c-2.6,0.7-5.3,1.6-7.9,1.6c-28.1,0-56.3,4.6-84.4,0.2c-7-1.1-14-1.9-21-2.2c-36.9-1.6-73.7-2.9-110.1-9.9c-29.5-5.7-57-17.2-83.6-31
	c-12.9-6.7-26-13-38.9-19.4c-7.6,6.5-14.6,11.7-20.7,17.8c-16.2,16-33.2,31.2-43.6,52.1c-2.1,4.3-5.5,8.1-8.8,11.5
	c-5.1,5.3-11,6.3-17.8,1.2c0.4-3.7-0.5-8.1,1.3-11.1c12.6-21.6,23.5-44.6,39.2-63.7c23.7-28.8,47.1-58.3,77.1-81.4
	c2.7-2.1,5.3-7.8,4.3-10.8c-4-12.7-9.3-25-14.7-38.8c-6.2,2.7-11.3,4.3-15.7,7c-7.4,4.5-14,10.5-21.6,14.5
	c-9.1,4.7-15.1,11.3-20.1,20.3c-6.1,11.3-14.4,20.5-27.3,26.4c-12,5.5-25,10-34.8,20.5c-10.6,11.4-22.2,22.9-35.3,31
	c-17.2,10.5-22.4,24.4-22.4,43.4c0,29.8-0.6,59.8-3.5,89.5C56.3,868.2,51,908,44.7,947.6c-5.2,32.6-11.4,65.2-19.7,97.2
	c-9,34.9-4.9,47.1,27.3,62.9c3.4,1.7,7,3,10.5,4.5c10.5,4.4,21,8.8,31.6,13.2c26.5,10.9,54.5,15.8,82.8,14.7
	c28.6-1.1,57.2-5.6,85.7-8.7c6.5-0.7,12.9-2.3,19.3-2.7c41.5-2.7,82.7,1.8,123.3,8.7c43,7.3,85.5,4.9,128.3,2.9
	c30.4-1.5,60.7-3.8,91-6.3c25.9-2.2,52-3.8,77.6-8.2c21.7-3.7,42.8-11.2,64.3-16.7c14.1-3.6,28.2-8.4,42.6-9.6
	c37-3,73.1-10.8,108.8-20.2C938.2,1073.8,959.4,1069.3,976.2,1049.6z M612.2,496.2c9.1-13.7,12.9-14.3,25.4-5.9
	c22.4,15.2,44.2,31.5,70.3,40.1c4.6,1.5,9.1,3.5,13.7,5.3c44.4,17.1,89.5,29.7,137.9,22.9c6.5-0.9,11.2-2.6,13-9.8
	c8.4-32.5,18.3-64.4,16.1-99.1c-1.9-30.3,0.5-60.8-6.9-90.7c-3.2-13.1-3.7-27-7.2-40c-4-15.1-8.8-30.2-15.2-44.4
	c-11.2-24.6-27.5-46.7-36.5-72.6c-4.6-13.2-11.1-25.9-18.1-38c-20.9-35.9-48.5-65.4-85.9-84.7c-13.5-7-27.5-13-40.8-20.3
	c-18.3-10-37.3-16.9-58.2-19.3c-37.5-4.3-74.8-6.5-111.9,1.8c-20.6,4.6-40.6,14.4-61.3,15.3c-21.5,1-41.1,8.2-61.9,10.7
	c-26.7,3.2-50.7,15.6-75.7,24.3c-31.7,11-58.2,30.9-84.8,50.6c-6.1,4.5-10.9,10.7-17,15.2c-28.3,20.7-49.6,47-64.8,78.5
	c-10.6,22-21.3,43.9-31.8,65.8c-2.3,4.9-4.8,9.8-6.3,15C95.6,346.5,86.4,376.1,79,406c-5.4,22.1-9.1,44.6-12.2,67.2
	c-1.5,11.1,0.4,22.7,0,34c-0.5,11.9-1.8,23.7-3,35.5c-0.7,7,1.4,12.7,7,17.2c12.7,10.1,25.8,19.9,37.7,30.9
	C125.1,606.1,141,609,161,596c23.2-15.1,48.9-26.4,71.9-41.8c28.4-18.9,55.2-40.2,82.6-60.8c4.6-3.5,8.4-4.4,13.2-1
	c5.3,3.8,6.5,9.5,3.6,14.4c-3.1,5.5-7.8,10.3-12.4,14.9c-9.3,9.2-15.2,19.9-18.6,35.1c19.2-6.1,36-11.5,52.9-16.9
	c7.3-2.3,19.5,2.2,21.1,7.9c2,7-1.9,12.7-12.2,16.5c-14.3,5.3-27.1,12.3-38.3,23.3c-17,16.6-36.2,30.9-53.4,47.4
	c-13.1,12.6-27.3,24.7-34.5,43.1c6.9,5.7,12.6,11.7,19.5,15.9c32.7,20.4,68.2,33.2,106.5,37.8c17.2,2.1,34.7,2.4,51.9,4.7
	c47.7,6.3,95.3,4.8,142.5-3.9c23.3-4.3,45.8-13.2,69-18.4c36.4-8.2,66.7-27.6,98.1-50.4c-4.3-4.3-7.3-8.9-11.5-11.1
	c-11.9-6.4-24.4-11.7-36.6-17.8c-4.7-2.3-10.4-4.4-13.3-8.4c-6.3-8.5-14.9-11.5-24.2-14.8c-16.7-5.9-33.1-12.9-49.6-19.5
	c-1.5-0.6-2.8-1.7-4-2.8c-6.2-5.7-5.5-13.4,1.8-17.5c2.8-1.5,6.1-2.4,9.3-2.9c14.9-2.6,29.9-4.8,44.8-7.4c2.8-0.5,5.5-2.3,10.5-4.4
	C638.1,536.5,625.5,517,612.2,496.2z M134.3,208.6c-7.4-16.9-14.1-31.3-19.7-46.1c-1.1-2.9,1-8.8,3.6-11c4.2-3.6,9.4-1.8,12.8,2.7
	c2.3,3,3.7,6.5,5.8,9.7c3.3,5.1,6.8,10.1,10.7,16c24.6-22.7,47.4-43.7,72.4-66.8c-6.3-2.7-9.9-5.6-13.5-5.5
	c-30.8,0.7-58.5-9.5-85.3-23.1c-7.1-3.6-14.8-6-22.3-9.1c-1.7,3.1-3.2,4.9-3.6,7c-5.1,22.6-9.8,45.4-15,68
	c-3,13.2-7.1,26.1-10.3,39.3c-4.5,18.9,2.5,32.7,20.1,41.1c7.8,3.7,15.4,8.1,24.1,12.7C121.3,231,128.6,218.5,134.3,208.6z
	 M848.4,192.7c1.5,0,3-0.1,4.5-0.1c4.1-17.2,8.3-34.5,12.4-51.7c2.4-10.1,3.3-19.9,1.5-30.5c-2.9-16.5-3.2-33.4-5-50.1
	c-1.2-11-3-21.9-4.9-35.3c-11.1,7-19.5,12.9-28.5,17.7c-10,5.4-20.5,9.9-30.8,14.7c-10.8,5-21.6,19.1-18.3,26.1
	c6,13.1,13.5,25.5,21.5,40.3c3.9-6,6.2-9.5,8.4-13c3.2-5.1,7.7-8.3,13.6-5.9c6.4,2.7,8,8.2,6.2,14.9c-1.9,7.3-4.3,14.7-5,22.2
	c-0.5,5.6-0.3,12.3,2.4,16.9C832.9,170.6,840.9,181.5,848.4,192.7z M664.6,1158.6c-22.7-1.8-43.1,2.5-62.2,5.6
	c4.5,29,8.7,56.3,13.1,84.8c8.2-0.8,14.8,0.2,19.6-2.4c11.7-6.2,22.5-4.8,35.2,3.3C668.4,1218.3,666.6,1189.3,664.6,1158.6z
	 M306.5,1161c-0.8,23.5,8.2,43.4,14.1,64c0.9,3,4.9,6.5,8,7.2c8.9,2.1,18,3.4,27.1,4.2c7.8,0.7,11.9-3.1,12.4-11.4
	c0.7-14,2.3-28,3.1-42.1c0.4-6.8,0.1-13.6,0.1-21.9C349.1,1161,328.3,1161,306.5,1161z"/>
<path fill-rule="evenodd" clip-rule="evenodd" fill="#FFFFFF" d="M976.2,1049.6c-16.8,19.7-38,24.2-58.3,29.5
	c-35.7,9.5-71.7,17.2-108.8,20.2c-14.4,1.2-28.5,6-42.6,9.6c-21.5,5.5-42.5,13-64.3,16.7c-25.6,4.4-51.7,6.1-77.6,8.2
	c-30.3,2.5-60.6,4.8-91,6.3c-42.8,2-85.3,4.4-128.3-2.9c-40.5-6.9-81.8-11.4-123.3-8.7c-6.5,0.4-12.9,2-19.3,2.7
	c-28.6,3.1-57.1,7.7-85.7,8.7c-28.3,1-56.2-3.9-82.8-14.7c-10.6-4.3-21.1-8.8-31.6-13.2c-3.5-1.5-7.1-2.8-10.5-4.5
	c-32.2-15.8-36.3-28-27.3-62.9c8.3-32,14.5-64.6,19.7-97.2C51,908,56.3,868.2,60.1,828.3c2.8-29.7,3.5-59.6,3.5-89.5
	c0-19.1,5.2-32.9,22.4-43.4c13.2-8.1,24.7-19.5,35.3-31c9.8-10.5,22.8-15,34.8-20.5c12.9-5.9,21.1-15.1,27.3-26.4
	c4.9-9.1,11-15.6,20.1-20.3c7.6-4,14.2-10,21.6-14.5c4.4-2.7,9.5-4.3,15.7-7c5.4,13.8,10.7,26.1,14.7,38.8c0.9,2.9-1.6,8.7-4.3,10.8
	c-30,23-53.5,52.6-77.1,81.4c-15.7,19.1-26.6,42.2-39.2,63.7c-1.7,2.9-0.9,7.3-1.3,11.1c6.8,5.2,12.7,4.1,17.8-1.2
	c3.4-3.5,6.7-7.3,8.8-11.5c10.3-20.9,27.4-36.2,43.6-52.1c6.2-6.1,13.1-11.3,20.7-17.8c12.8,6.4,26,12.7,38.9,19.4
	c26.6,13.8,54.1,25.3,83.6,31c36.3,7.1,73.2,8.4,110.1,9.9c7,0.3,14.1,1.2,21,2.2c28.2,4.3,56.3-0.3,84.4-0.2c2.6,0,5.3-0.9,7.9-1.6
	c25.1-7,50.3-13.7,75.1-21.3c8.7-2.7,16.4-8.1,24.9-11.6c9.5-3.8,19.2-7.4,29.1-10c19.9-5.2,36.8-16,52.4-28.8
	c6-4.9,11.2-6.1,17.8-3.1c8.8,3.9,17.1,8,24.3,15.3c15,15.2,28.6,31,38.5,50.1c7.8,15,16.3,15.5,30,4.4
	c16.6-13.6,16.4-15.2-1.2-27.7c-6.5-4.7-12.4-10.5-17.6-16.7c-9-10.6-19.5-18.5-32.4-24c-8.8-3.8-17.8-8.9-24.7-15.5
	c-26.3-25.2-58.5-41.1-90.3-59.1c-3.9-7.9,1.5-15.2,3.9-22.7c2.3-7.2,6.3-13.9,9.4-20.8c3.7-8.2,9.8-11.2,18.5-8.9
	c13.7,3.6,27.3,7,41,10.4c11.6,2.9,23.3,5.3,34.6,8.9c18,5.7,35.5-1.5,53.3-1.3c1,0,2.1-0.8,3.1-0.8c22.1-1,26.2-5.8,29.6,21
	c4.4,34.3,12.6,68.1,17.6,102.3c5.4,36.5,8.5,73.3,13.4,109.8c2.7,19.9,7.1,39.5,10.9,59.2c4.3,21.8,8.1,43.7,13.4,65.3
	c5.8,23.7,13.2,47.1,19.6,70.7C968.9,1020.1,972.6,1035.3,976.2,1049.6z M510.5,990.2c-16.4-2.2-30.7,5.5-45.8,9.6
	c-11,3-18.3,10.2-23.1,19.3c-4.7,9-8,19.1-10.1,29.1c-3.3,15.5-2.9,31.1,11.4,41.5c9.2,6.6,19.3,12.4,29.9,16.4
	c46.4,17.6,92.5-17.6,88.4-67C558.6,1006.7,542.3,991,510.5,990.2z M486.9,909.1c18.9-0.1,36.8-6.7,53.5-15.7
	c18-9.7,26.6-34,21.1-55.3c-4.2-16.4-17.4-24.2-41.1-24.4c-1.6,0-3.3,0-4.9,0c-12.5-0.1-24.6-0.1-37-4.1
	c-16.3-5.3-34.8,5.6-39.6,22.6c-3.4,11.9-5.4,24.4-6.4,36.7c-0.5,6,0.8,14.7,4.8,18.1C451.2,898.9,465.9,910.8,486.9,909.1z"/>
<path fill-rule="evenodd" clip-rule="evenodd" fill="#FFFFFF" d="M612.2,496.2c13.4,20.8,25.9,40.3,39.2,61.1
	c-5,2.2-7.6,3.9-10.5,4.4c-14.9,2.6-29.9,4.9-44.8,7.4c-3.2,0.5-6.5,1.4-9.3,2.9c-7.3,4-7.9,11.8-1.8,17.5c1.2,1.1,2.6,2.2,4,2.8
	c16.5,6.6,32.8,13.6,49.6,19.5c9.3,3.3,17.9,6.3,24.2,14.8c2.9,3.9,8.6,6,13.3,8.4c12.1,6,24.6,11.3,36.6,17.8
	c4.3,2.3,7.3,6.9,11.5,11.1c-31.4,22.8-61.7,42.2-98.1,50.4c-23.2,5.2-45.7,14.2-69,18.4c-47.1,8.6-94.7,10.2-142.5,3.9
	c-17.2-2.3-34.6-2.6-51.9-4.7c-38.3-4.6-73.8-17.4-106.5-37.8c-6.8-4.2-12.6-10.2-19.5-15.9c7.2-18.4,21.4-30.5,34.5-43.1
	c17.2-16.5,36.4-30.8,53.4-47.4c11.2-11,24-17.9,38.3-23.3c10.3-3.8,14.2-9.5,12.2-16.5c-1.6-5.7-13.7-10.2-21.1-7.9
	c-16.9,5.4-33.7,10.8-52.9,16.9c3.4-15.2,9.2-26,18.6-35.1c4.6-4.5,9.3-9.3,12.4-14.9c2.8-5,1.7-10.6-3.6-14.4
	c-4.7-3.4-8.6-2.5-13.2,1c-27.3,20.5-54.2,41.8-82.6,60.8c-23,15.3-48.7,26.7-71.9,41.8c-20,13-35.9,10.1-52.4-5.3
	c-11.9-11-25-20.8-37.7-30.9c-5.7-4.5-7.7-10.2-7-17.2c1.1-11.8,2.5-23.6,3-35.5c0.4-11.3-1.5-22.9,0-34
	c3.1-22.5,6.8-45.1,12.2-67.2c7.4-30,16.6-59.5,25.2-89.1c1.5-5.2,4-10.1,6.3-15c10.5-22,21.2-43.9,31.8-65.8
	c15.2-31.5,36.4-57.8,64.8-78.5c6.1-4.5,10.9-10.7,17-15.2c26.6-19.7,53-39.6,84.8-50.6c25.1-8.7,49-21,75.7-24.3
	c20.8-2.5,40.5-9.7,61.9-10.7c20.6-1,40.7-10.7,61.3-15.3c37.1-8.4,74.5-6.2,111.9-1.8c20.9,2.4,39.9,9.3,58.2,19.3
	c13.3,7.3,27.3,13.3,40.8,20.3c37.4,19.3,64.9,48.8,85.9,84.7c7.1,12.1,13.5,24.8,18.1,38c9.1,25.9,25.3,47.9,36.5,72.6
	c6.5,14.2,11.2,29.3,15.2,44.4c3.5,13.1,4,26.9,7.2,40c7.3,30,5,60.4,6.9,90.7c2.2,34.7-7.8,66.5-16.1,99.1c-1.8,7.2-6.5,8.8-13,9.8
	c-48.4,6.8-93.5-5.8-137.9-22.9c-4.6-1.8-9-3.8-13.7-5.3c-26.2-8.6-47.9-24.9-70.3-40.1C625.1,481.8,621.3,482.5,612.2,496.2z
	 M275.3,190.3c-7.7-9.6-14.2-17.3-20.2-25.4c-4.2-5.7-9.2-5.1-14.4-2.8c-5.6,2.6-5.9,7.5-3.3,12.3c2.8,5.2,6.7,9.9,9.4,15.1
	c8,15,17.3,29.3,6.7,47.9c-9.2,16-6.8,33.4,0.1,50.3c12.8,31.5,33.3,55.9,64.7,69.8c22.2,9.8,45.5,15.7,68.8,3.9
	c20.1-10.2,36.9-25.1,49.2-44c6.1-9.4,11.7-20,13.8-30.8c4.2-21.3,5.1-43.3-0.7-64.6c-7.1-26.3-15.4-52.2-42.6-65.8
	c-3.2-1.6-5.8-6.1-7.1-9.8c-4.4-12.1-8.6-24.4-11.9-36.9c-1.7-6.7-5.3-9.1-11.5-8.7c-7.5,0.4-10.1,5.3-10.6,12
	c-0.5,7-0.2,14.2-1.6,21.1c-0.7,3.7-3.4,8-6.6,10c-5,3.1-10.9,5.1-16.6,6.4c-15.1,3.4-18.6,1.1-23.9-13.8
	c-1.6-4.6-2.4-10.2-5.5-13.4c-2.8-2.9-8.4-4.1-12.7-3.9c-1.8,0.1-3.8,5.5-5,8.7c-0.7,1.9-0.6,4.5,0.1,6.4c7.4,20,1.5,35.9-14.3,49.1
	C278.3,184.8,277.4,187,275.3,190.3z M597,144.6c0.6-6.3,0.8-11.6,1.8-16.7c1.2-6.4,3.4-12.5,4.8-18.9c1.5-6.6-0.5-12.1-7.3-14.3
	c-6.4-2.1-10.3,1.5-12.5,7.3c-1.1,3-2.1,6.2-2.8,9.3c-6.4,26.6-20.6,48-39.6,67.7c-16.6,17.2-29,38.3-32.1,62.9
	c-3.4,27.5,6.1,49.2,25.6,70.4c29.1,31.5,94.6,32.8,123.2,4.3c10.6-10.6,18.7-22.5,25.6-35.4c9.4-17.6,14.1-36.5,9-56.3
	c-4.2-16.1-3.4-30,11.4-40.5c1.7-1.2,2.7-3.3,4.2-5c3.5-4.1,5.3-8.2,0.9-12.9c-4.9-5.2-9.6-4.1-14.2,0.2c-5.9,5.4-11.6,11-17.4,16.5
	c-21-20.9-21-20.9-9.9-45.4c0.2-0.5,0.6-0.9,0.8-1.4c1.5-4.7,3.6-9.7-1.9-13c-5.1-3-10.7-3.1-14.8,1.7c-3.2,3.6-4.9,8.6-8.3,11.9
	c-4.9,4.7-10.4,11.2-16.1,11.8C617.9,149.6,608.2,146.4,597,144.6z M485,371.2c-7.2,2.5-17.9,5.8-28.3,9.9
	c-22.4,8.8-32.8,29.1-44.8,47.9c-9.1,14.2-9.2,29-1.8,43.3c5.1,10,11.2,20.1,18.9,28.2c25.7,26.8,59.7,32.8,94.4,30.9
	c28.9-1.6,49.1-20.4,60.8-46c7.8-17.1,6.8-36-1.4-53.4c-3-6.3-7.7-11.8-12.1-17.3C549.9,388.5,521.5,376.5,485,371.2z M452.9,630.4
	c12.8-1.5,22.6-2.1,32.1-4c3.9-0.8,8.4-3.5,10.8-6.7c7.7-9.8,15-20,21.3-30.7c2-3.4,2.1-10.1,0-13.1c-3.8-5.3-9.5-3.1-14.4,0.4
	c-4.4,3.1-8.7,7.6-13.6,8.6c-22.7,4.7-40.5,4.7-55.5-21.1c-0.8-1.4-1.6-2.9-2.5-4.2c-3.9-5.4-9.7-5.8-14.5-3
	c-2.8,1.7-5.1,6.9-5,10.5c0.2,9.7,1.4,19.5,3,29.1C416.9,610.7,441.5,630.6,452.9,630.4z"/>
<path fill-rule="evenodd" clip-rule="evenodd" fill="#FFFFFF" d="M134.3,208.6c-5.8,9.9-13.1,22.5-20.2,34.6
	c-8.8-4.6-16.3-9-24.1-12.7c-17.6-8.4-24.7-22.2-20.1-41.1c3.2-13.2,7.2-26.1,10.3-39.3c5.2-22.6,9.9-45.3,15-68
	c0.5-2,1.9-3.8,3.6-7c7.6,3,15.2,5.5,22.3,9.1c26.9,13.6,54.5,23.8,85.3,23.1c3.5-0.1,7.2,2.8,13.5,5.5
	c-25.1,23.1-47.8,44.1-72.4,66.8c-3.9-5.8-7.4-10.8-10.7-16c-2-3.1-3.5-6.7-5.8-9.7c-3.4-4.4-8.6-6.3-12.8-2.7
	c-2.6,2.2-4.7,8.1-3.6,11C120.2,177.3,127,191.7,134.3,208.6z"/>
<path fill-rule="evenodd" clip-rule="evenodd" fill="#FFFFFF" d="M848.4,192.7c-7.5-11.2-15.5-22.1-22.1-33.8
	c-2.6-4.7-2.9-11.4-2.4-16.9c0.7-7.5,3.1-14.8,5-22.2c1.8-6.7,0.2-12.2-6.2-14.9c-5.9-2.5-10.4,0.7-13.6,5.9
	c-2.2,3.5-4.5,6.9-8.4,13c-8-14.8-15.5-27.2-21.5-40.3c-3.2-7,7.5-21.1,18.3-26.1c10.3-4.8,20.8-9.3,30.8-14.7
	c9-4.9,17.4-10.8,28.5-17.7c1.9,13.5,3.7,24.4,4.9,35.3c1.8,16.7,2.1,33.6,5,50.1c1.9,10.6,0.9,20.4-1.5,30.5
	c-4.1,17.2-8.2,34.5-12.4,51.7C851.4,192.6,849.9,192.6,848.4,192.7z"/>
<path fill-rule="evenodd" clip-rule="evenodd" fill="#FFFFFF" d="M664.6,1158.6c1.9,30.7,3.8,59.7,5.8,91.3
	c-12.8-8.1-23.5-9.5-35.2-3.3c-4.8,2.5-11.4,1.5-19.6,2.4c-4.4-28.4-8.6-55.8-13.1-84.8C621.5,1161,641.9,1156.7,664.6,1158.6z"/>
<path fill-rule="evenodd" clip-rule="evenodd" fill="#FFFFFF" d="M306.5,1161c21.8,0,42.6,0,64.8,0c0,8.3,0.3,15.1-0.1,21.9
	c-0.9,14-2.4,28-3.1,42.1c-0.4,8.3-4.6,12.1-12.4,11.4c-9.1-0.8-18.3-2.1-27.1-4.2c-3.2-0.8-7.2-4.2-8-7.2
	C314.7,1204.4,305.7,1184.4,306.5,1161z"/>
<path fill-rule="evenodd" clip-rule="evenodd" d="M510.5,990.2c31.8,0.8,48.1,16.5,50.8,49c4.1,49.3-42.1,84.6-88.4,67
	c-10.6-4-20.7-9.8-29.9-16.4c-14.3-10.4-14.7-26-11.4-41.5c2.1-10,5.4-20,10.1-29.1c4.8-9.1,12.1-16.3,23.1-19.3
	C479.8,995.7,494.1,988,510.5,990.2z M542.4,1046c0-2.2,0.1-4.4,0-6.5c-1.2-18.8-11-29-29.9-29.3c-8.5-0.1-17,2.3-25.4,4
	c-25.8,5.3-40.6,44.2-24.8,65.2c1,1.3,2.3,2.4,3.6,3.3c15.4,10.4,32.6,14.9,49.2,6.2C531.5,1080.4,542.8,1066.3,542.4,1046z"/>
<path fill-rule="evenodd" clip-rule="evenodd" d="M486.9,909.1c-21,1.7-35.7-10.2-49.6-22.1c-4-3.4-5.3-12.1-4.8-18.1
	c1-12.4,3-24.8,6.4-36.7c4.9-17,23.3-27.9,39.6-22.6c12.3,4,24.5,4,37,4.1c1.6,0,3.3,0,4.9,0c23.8,0.2,37,8,41.1,24.4
	c5.5,21.3-3.1,45.6-21.1,55.3C523.6,902.4,505.8,909,486.9,909.1z M506.7,832.7c0,0.2,0,0.5-0.1,0.7c-7.1,0-14.2-0.6-21.2,0.2
	c-8.2,0.9-17.2,3.2-20.2,11.6c-3.1,8.9-3.9,18.8-4.7,28.4c-0.8,9.8,5.3,14.4,14.2,17c19.1,5.4,37.2,1.6,52.9-9
	c10.2-6.9,17.8-17.5,17.1-31.6c-0.4-8.3-4.1-13.7-12.1-15C524.1,833.6,515.3,833.4,506.7,832.7z"/>
<path fill-rule="evenodd" clip-rule="evenodd" d="M275.3,190.3c2.1-3.3,3-5.5,4.6-6.8c15.8-13.2,21.7-29.1,14.3-49.1
	c-0.7-1.9-0.8-4.5-0.1-6.4c1.2-3.2,3.2-8.6,5-8.7c4.3-0.2,9.9,1.1,12.7,3.9c3.1,3.2,3.9,8.8,5.5,13.4c5.2,14.9,8.8,17.2,23.9,13.8
	c5.8-1.3,11.7-3.3,16.6-6.4c3.1-1.9,5.8-6.3,6.6-10c1.4-6.9,1.1-14,1.6-21.1c0.5-6.7,3.1-11.6,10.6-12c6.2-0.4,9.7,2,11.5,8.7
	c3.3,12.5,7.5,24.7,11.9,36.9c1.3,3.7,3.9,8.2,7.1,9.8c27.2,13.7,35.5,39.5,42.6,65.8c5.7,21.3,4.9,43.3,0.7,64.6
	c-2.1,10.8-7.8,21.4-13.8,30.8c-12.3,19-29,33.8-49.2,44c-23.4,11.9-46.7,6-68.8-3.9c-31.4-13.9-51.8-38.4-64.7-69.8
	c-6.9-16.9-9.3-34.3-0.1-50.3c10.6-18.6,1.3-32.8-6.7-47.9c-2.8-5.2-6.6-9.9-9.4-15.1c-2.6-4.8-2.2-9.8,3.3-12.3
	c5.1-2.3,10.2-2.9,14.4,2.8C261.1,173,267.6,180.7,275.3,190.3z M435.3,260c-2.7-13.7-4.2-27.9-8.3-41.1
	c-6.6-21.3-22.1-34.1-43.9-38.7c-7.8-1.7-16.1-1.4-24-2.7c-10.4-1.8-20.2-2.3-29.6,4c-2.4,1.6-6.2,1.2-9.4,1.6
	c-12.4,1.4-22.7,6.2-29,17.8c-3.3,6.2-8.4,11.5-11.3,17.9c-8.7,18.7-16.2,37.2-11.2,59.2c6.5,28.2,24.2,47.4,47.4,61
	c21,12.3,44.9,17.9,67.8,3.6c10.4-6.5,19.8-15.2,28-24.4C426.5,301.9,434.9,282.8,435.3,260z"/>
<path fill-rule="evenodd" clip-rule="evenodd" d="M597,144.6c11.2,1.7,20.9,5,30.2,4.1c5.8-0.6,11.3-7.1,16.1-11.8
	c3.4-3.3,5.2-8.3,8.3-11.9c4.2-4.8,9.7-4.7,14.8-1.7c5.6,3.3,3.4,8.4,1.9,13c-0.2,0.5-0.6,0.9-0.8,1.4
	c-11.2,24.5-11.2,24.5,9.9,45.4c5.7-5.5,11.5-11.1,17.4-16.5c4.6-4.2,9.4-5.3,14.2-0.2c4.4,4.7,2.6,8.8-0.9,12.9
	c-1.4,1.6-2.5,3.8-4.2,5c-14.8,10.5-15.5,24.4-11.4,40.5c5.1,19.8,0.4,38.7-9,56.3c-6.9,12.9-14.9,24.8-25.6,35.4
	c-28.6,28.6-94.1,27.2-123.2-4.3c-19.5-21.1-29.1-42.8-25.6-70.4c3.1-24.6,15.5-45.7,32.1-62.9c19-19.7,33.2-41.1,39.6-67.7
	c0.8-3.2,1.7-6.3,2.8-9.3c2.1-5.8,6.1-9.4,12.5-7.3c6.8,2.2,8.8,7.7,7.3,14.3c-1.4,6.3-3.5,12.5-4.8,18.9
	C597.8,133,597.7,138.3,597,144.6z M599.4,320.5c11.1-1,30.4-1.1,43.9-15.7c9.1-9.7,15.9-21.7,23.1-33c6.9-10.8,6-21.1-2.7-31.1
	c-9.2-10.6-17.9-21.6-26.7-32.6c-12.4-15.4-28.2-25.1-47.4-29.6c-3.1-0.7-6.7-1.8-9.4-0.8c-13.8,4.7-28.2,8.9-35.6,23.5
	c-3.2,6.3-6.8,12.3-10.1,18.5c-15.1,28.1-12.3,51.5,8.4,75.8C556,310.9,571.8,319.8,599.4,320.5z"/>
<path fill-rule="evenodd" clip-rule="evenodd" d="M485,371.2c36.5,5.3,64.9,17.3,85.8,43.5c4.4,5.5,9.1,11,12.1,17.3
	c8.2,17.4,9.2,36.3,1.4,53.4c-11.7,25.6-31.9,44.4-60.8,46c-34.7,1.9-68.7-4.1-94.4-30.9c-7.7-8.1-13.8-18.1-18.9-28.2
	c-7.3-14.3-7.2-29.1,1.8-43.3c12-18.8,22.4-39,44.8-47.9C467.2,377.1,477.9,373.7,485,371.2z M570.1,458.1
	c-2.3-6.5-3.7-13.4-6.9-19.4c-13.5-24.9-36.8-36.4-62.8-42.1c-14.9-3.3-31.3-6.6-44.2,7.1c-4.9,5.1-10.9,9.4-14.8,15.2
	c-18.9,28.2-23.3,32.8-6.4,60.1c4.9,7.9,13.4,14.1,21.4,19.4c13.5,8.9,29.5,10.2,45.1,12.8C537,517.1,566.6,494.2,570.1,458.1z"/>
<path fill-rule="evenodd" clip-rule="evenodd" d="M452.9,630.4c-11.4,0.2-36-19.8-38.3-34.2c-1.6-9.6-2.8-19.4-3-29.1
	c-0.1-3.6,2.2-8.8,5-10.5c4.7-2.8,10.6-2.4,14.5,3c1,1.3,1.7,2.8,2.5,4.2c15,25.8,32.8,25.8,55.5,21.1c4.9-1,9.2-5.5,13.6-8.6
	c4.9-3.5,10.7-5.7,14.4-0.4c2.1,3,2,9.7,0,13.1c-6.3,10.7-13.7,20.9-21.3,30.7c-2.5,3.2-6.9,5.9-10.8,6.7
	C475.5,628.3,465.7,629,452.9,630.4z M438.1,595.7c2.3,10.5,6.2,15.3,14.8,15.9c11.1,0.7,23,2.2,32.7-8.2
	C468.4,600.6,453.4,598.1,438.1,595.7z"/>
<path fill-rule="evenodd" clip-rule="evenodd" fill="#FFFFFF" d="M542.4,1046c0.4,20.3-11,34.4-27.3,42.9
	c-16.6,8.6-33.9,4.2-49.2-6.2c-1.3-0.9-2.6-2-3.6-3.3c-15.8-20.9-1.1-59.9,24.8-65.2c8.4-1.7,17-4.1,25.4-4
	c18.9,0.3,28.7,10.5,29.9,29.3C542.5,1041.6,542.4,1043.8,542.4,1046z"/>
<path fill-rule="evenodd" clip-rule="evenodd" fill="#FFFFFF" d="M506.7,832.7c8.6,0.7,17.4,0.9,25.9,2.2c8,1.3,11.8,6.6,12.1,15
	c0.6,14.1-6.9,24.8-17.1,31.6c-15.7,10.5-33.7,14.4-52.9,9c-8.9-2.5-15-7.2-14.2-17c0.8-9.6,1.6-19.5,4.7-28.4
	c2.9-8.4,11.9-10.7,20.2-11.6c7-0.7,14.1-0.2,21.2-0.2C506.6,833.2,506.6,832.9,506.7,832.7z"/>
<path fill-rule="evenodd" clip-rule="evenodd" fill="#FFFFFF" d="M435.3,260c-0.3,22.9-8.7,42-23.4,58.1c-8.3,9.1-17.7,17.9-28,24.4
	c-22.9,14.4-46.8,8.7-67.8-3.6c-23.2-13.6-40.9-32.8-47.4-61c-5-22,2.5-40.5,11.2-59.2c2.9-6.3,8-11.7,11.3-17.9
	c6.3-11.7,16.5-16.4,29-17.8c3.2-0.4,7,0,9.4-1.6c9.4-6.3,19.2-5.8,29.6-4c7.9,1.4,16.1,1.1,24,2.7c21.8,4.6,37.3,17.4,43.9,38.7
	C431.1,232.1,432.6,246.2,435.3,260z M387.6,271.2c0.3-10.7-5.6-17.4-15.3-16.7c-9.4,0.7-16.2,6.3-20.2,14.3
	c-4.4,8.7-5,18.2,2.1,25.8c2.8,2.9,8.7,5.3,12.4,4.5C378,296.5,387.3,283.2,387.6,271.2z"/>
<path fill-rule="evenodd" clip-rule="evenodd" fill="#FFFFFF" d="M599.4,320.5c-27.5-0.7-43.4-9.7-56.4-25
	c-20.7-24.3-23.5-47.7-8.4-75.8c3.3-6.2,6.9-12.2,10.1-18.5c7.4-14.6,21.7-18.8,35.6-23.5c2.7-0.9,6.4,0.1,9.4,0.8
	c19.1,4.4,35,14.2,47.4,29.6c8.8,10.9,17.5,22,26.7,32.6c8.7,9.9,9.6,20.3,2.7,31.1c-7.2,11.3-14,23.3-23.1,33
	C629.7,319.4,610.5,319.5,599.4,320.5z M574,281.9c0.7,1.4,2,5.5,4.6,8.6c3.4,4.1,7.2,8,13.9,4.9c10.5-4.9,14.6-14.2,17.3-24.2
	c1.7-6.1-2.6-10.1-7.8-12.8C590.6,252.7,575,264.2,574,281.9z"/>
<path fill-rule="evenodd" clip-rule="evenodd" fill="#FFFFFF" d="M570.1,458.1c-3.5,36-33.1,59-68.6,53.1
	c-15.6-2.6-31.6-3.9-45.1-12.8c-8-5.3-16.5-11.5-21.4-19.4c-16.9-27.3-12.5-31.9,6.4-60.1c3.9-5.8,9.9-10.1,14.8-15.2
	c12.9-13.7,29.3-10.4,44.2-7.1c26,5.7,49.4,17.2,62.8,42.1C566.4,444.7,567.9,451.6,570.1,458.1z M464.4,465.9
	c27.1,3.6,32.8,2.8,34.3-15.4c-1.4-1.2-2.9-2.8-4.8-3.8c-2.3-1.2-4.9-2-7.5-2.6C464.6,439.1,461.4,442.1,464.4,465.9z M544.6,457.3
	c0.3-10.3-5.3-16.2-15.4-16.4c-7.6-0.2-12,3.4-12,9.6c0,7.9,9.2,18.8,16.4,19.5C539.9,470.6,544.4,465.4,544.6,457.3z"/>
<path fill-rule="evenodd" clip-rule="evenodd" fill="#FFFFFF" d="M438.1,595.7c15.2,2.5,30.3,4.9,47.5,7.7
	c-9.8,10.4-21.6,8.9-32.7,8.2C444.3,611,440.4,606.1,438.1,595.7z"/>
<path fill-rule="evenodd" clip-rule="evenodd" d="M387.6,271.2c-0.3,11.9-9.6,25.3-21,27.8c-3.7,0.8-9.6-1.5-12.4-4.5
	c-7.1-7.6-6.6-17-2.1-25.8c4.1-8.1,10.8-13.6,20.2-14.3C382,253.8,387.9,260.5,387.6,271.2z"/>
<path fill-rule="evenodd" clip-rule="evenodd" d="M574,281.9c1-17.7,16.6-29.2,27.9-23.4c5.2,2.7,9.5,6.7,7.8,12.8
	c-2.7,10-6.8,19.3-17.3,24.2c-6.7,3.1-10.5-0.8-13.9-4.9C576,287.4,574.7,283.3,574,281.9z"/>
<path fill-rule="evenodd" clip-rule="evenodd" d="M464.4,465.9c-3-23.7,0.3-26.8,22-21.8c2.6,0.6,5.1,1.4,7.5,2.6
	c1.9,0.9,3.3,2.6,4.8,3.8C497.2,468.7,491.5,469.5,464.4,465.9z"/>
<path fill-rule="evenodd" clip-rule="evenodd" d="M544.6,457.3c-0.2,8.2-4.7,13.3-11,12.7c-7.2-0.7-16.4-11.6-16.4-19.5
	c0-6.2,4.5-9.7,12-9.6C539.3,441.1,544.8,447,544.6,457.3z"/>
</svg>
