<?xml version="1.0" encoding="utf-8"?>
<!DOCTYPE svg PUBLIC "-//W3C//DTD SVG 1.1//EN" "http://www.w3.org/Graphics/SVG/1.1/DTD/svg11.dtd">
<svg artist="zl2017" version="1.1" id="zlIcon-piggy-e" xmlns="http://www.w3.org/2000/svg" xmlns:xlink="http://www.w3.org/1999/xlink" x="0px" y="0px"
	 width="1000px" height="674.7px" viewBox="0 0 1000 674.7" enable-background="new 0 0 1000 674.7" xml:space="preserve">
<path fill-rule="evenodd" clip-rule="evenodd" d="M511.3,350c0.8,5.2,1.4,9.7,2.1,14.1c2.4,16.8-3,31.7-12,45.5
	c-4,6.1-8.3,12.3-13.3,17.6c-6.3,6.7-12.9,13.3-20.8,18.3c-6.6,4.2-12.9,8.8-19.1,13.5c-14.6,11-31.1,18.6-46.6,27.9
	c-10.4,6.2-22.1,8.9-33.1,13.4c-5,2-10.9,2.2-16.4,2.8c-17.1,1.8-33.9,0.6-50.9-3.1c-18.8-4.1-36.9-10.1-55.2-15.6
	c-3.7-1.1-7.7-1.6-11.5-2.5c-12.6-2.9-25.2-6-37.9-8.5c-3.3-0.7-7.1-0.4-10.3,0.6c-14.6,4.6-28.4,11.1-40,21.5
	c-2.1,1.9-4.7,3.3-7.3,4.4c-6.3,2.8-12.6,0.7-15.7-5.3c-10.1-20.1-12.5-40.9-4.4-62.1c2.8-7.4,7.4-14.2,11.7-21
	c1.6-2.5,4.4-4.2,6.8-6.1c1.9-1.5,4.1-0.9,5.7,0.4c4,3.2,7.9,6.5,11.7,10c9.4,8.7,19,17,31.9,20.3c4.8,1.2,9.3,3.5,14.1,4.5
	c5.2,1.1,10.7,2,15.9,1.5c11-1,22-3,33-4.5c5.1-0.7,10.2-1,15.2-1.8c3.4-0.5,6.8-1.6,10.5-2.6c0-2.3,0.4-4.4-0.1-6.3
	c-2.7-10.3-4.4-20.8-7.6-31.1c-3.3-10.5-5.6-21.8-3-33.3c1.1-4.6,1.7-9.3,3-13.8c0.6-2,2.1-3.9,3.7-5.4c4.1-4.1,8.3-8,12.6-11.8
	c1.3-1.2,2.9-2.1,4.4-3.1c0.7-0.5,1.6-0.7,2.1-1.2c8.7-8.6,20.3-11.3,31.1-15.8c8.7-3.6,17.3-7.7,26.3-10.6
	c7.2-2.3,14.8-3.3,22.2-4.6c7.4-1.4,15-2.1,22.4-3.6c10.8-2.1,20.5-7.1,30.8-10.4c9.5-3,18.1-2.1,26.3,1.7
	c8.1,3.8,16.9,6.7,23.7,13.1c1,1,3.6,1.2,5.1,0.7c10.9-3.6,21.8-7.2,32.6-11.2c5.8-2.1,11.4-4.8,16.9-7.6c2.7-1.3,4.9-3.5,7.5-5
	c2.4-1.5,5.1-2.7,7.6-3.9c1.5-0.7,3.1-1.2,4.5-2c7.2-4,14.2-8.3,21.4-12.2c4.9-2.6,8.3-6.6,11.9-10.5c9.6-10.3,17.2-22,23.7-34.5
	c1-2,1.7-4.2,2.3-6.3c2-7.6,3.7-15.2,5.9-22.7c1.7-5.9,4.3-11.5,6.2-17.4c4-12.2,9.8-23.5,17.2-34c4.6-6.5,9.6-12.9,14.2-19.4
	c6.3-9,14.1-16.6,22.9-23.2c3.9-2.9,4.6-6.3,3.4-11.2c-2.8-11.4-1.4-22.6,4.4-32.8c2.7-4.7,6.2-9.2,10.2-13c8.6-8.1,16-17,21.9-27.2
	c2.5-4.2,3.9-4.3,7.7-1.2c6.4,5.2,13.2,9.7,20.7,13.2c8.6,4.1,14.7,11.1,19.9,18.9c4,5.9,9.4,10.5,15.3,14c3.6,2.1,8.7,1.9,13.2,2.1
	c18.2,0.8,36,3.1,53.6,8c6.9,1.9,14.1,2.7,21.1,4.5c8.3,2.1,16.6,4.8,24.8,7.2c2,0.6,3.9,1.4,5.7,2.3c6.5,3.2,12.3,1.6,18.1-1.9
	c2.9-1.8,6.2-3,9.5-4.2c7.4-2.6,14.9-4.9,22.3-7.3c7.4-2.4,14.8-3.3,22.5-1.9c2.1,0.4,4.4-0.3,6.6-0.3c6,0.1,12,0.1,17.9,0.5
	c2.1,0.1,4.2,1.4,6.1,2c-0.6,4.8-1.6,9.1-1.6,13.3c0,4.7,0.6,9.5,1.7,14.1c2.8,11.5,1.6,23-0.4,34.3c-0.7,4.1-3,8.1-5.3,11.7
	c-4.4,6.7-9.3,13.1-14.2,19.5c-2.2,2.9-5,5.3-7.5,8c-2.4,2.5-3.3,5.4-2.8,9c1.4,10.8,3.6,21.5,3.3,32.5c-0.4,14.2-0.7,28.3-5.1,42.1
	c-2.2,6.8-3,14-4.7,21c-3.1,13.2-6.4,26.4-9.5,39.6c-2.3,9.6-4.2,19.3-7,28.7c-3.1,10.2-3.4,20.7-3.9,31.1
	c-0.5,11.7,0.4,23.4,1,35.1c0.5,9.6,1.1,19.3,2.3,28.9c1.3,10.2,3.4,20.3,5.5,30.3c0.5,2.5,2.5,4.6,3.7,7c1.2,2.3,2.3,4.7,3.5,7.1
	c3.2,6.8,6.5,13.6,9.7,20.5c1.2,2.5-1.6,8.5-4.9,10.5c-1.2,0.7-2.5,1.3-4,2c0.1,1,0.1,1.8,0.4,2.5c2.4,7,4.9,13.9,7.2,20.9
	c0.4,1.1,0.2,3.1-0.6,3.8c-0.8,0.8-2.6,0.9-3.9,0.6c-5.3-1.2-9.7-4.2-14-7.4c-2.9-2.2-5.9-4.3-10.7-4.6c-0.5,4.8-1.2,9.2-1.5,13.6
	c-0.2,3.3-0.1,6.6,0,9.9c0,3.6-1.5,6.3-5.4,8.5c-1-1.8-2.2-3.4-2.9-5.1c-2.3-5.8-4.4-11.6-6.5-17.4c-1.7-4.4-2.2-4.7-6.8-4.2
	c-5.9,0.7-5.7,0.6-7.4-5.2c-4.3-14.8-8.9-29.5-13.3-44.3c-0.2-0.7-0.8-1.4-1.1-2c-3.5-0.1-5.1,2-6.3,4.5c-3.1,6.7-6.2,13.4-8.9,20.3
	c-2.6,6.7-4.9,13.6-7,20.4c-0.8,2.5-1,5.3-1.1,7.9c-0.2,8.2-0.4,16.4-0.3,24.5c0.1,6.4,0.5,12.7,1.1,19c0.2,1.8,1.5,3.6,2.3,5.4
	c0.2,0.4,0.7,0.8,0.6,1c-1.5,4.9,1.1,9.1,2.2,13.6c0.6,2.4-0.8,4-3.1,4.6c-2.2,0.6-4.4,0.8-6.7,1c-3.9,0.3-7.8,0.2-11.7,0.6
	c-4.1,0.5-5.7,2-5.6,6c0.4,8.8,1.1,17.5,1.8,26.2c0.2,2.5,0.5,4.9,0.7,7.4c0.6,6.8,0.9,13.5,1.7,20.2c0.3,2.8,0.1,4.9-3.2,6
	c-7.7-6.4-11.8-16.8-22.3-21.4c-3.4,4.4-5.2,9.6-6.2,15c-1.3,6.6-5.6,11-10,16.9c-2-4.8-3.5-8.5-5-12.2c-2.6-6.4-5.2-12.9-7.8-19.3
	c-0.3-0.8-0.8-1.5-0.8-2.3c0.2-11.7-6.9-21.3-9.8-32.1c-1.4-5.1-4.9-8.5-8.5-11.9c-0.9-0.9-2.6-1.1-3.9-1.2
	c-10.3-0.5-20.5-0.8-30.8-1.3c-4.9-0.3-9.9-0.8-14.7-1.8c-3.6-0.7-6.1,0.3-7.8,3.3c-4.7,8-10.1,15.4-11.5,25
	c-1,6.8-3.6,13.4-5.5,20.1c-1.5,5.3-2.7,10.6-4.6,15.7c-0.7,1.8-3,3.1-4.9,5c-3.8-4.7-4.4-9.9-6.1-14.6c-1.6-4.6-3.2-9.1-5-14.1
	c-5.1,3.2-8.7,6.3-10.8,11c-2.9,6.7-7.7,11.5-15.2,14.3c-0.4-1.5-0.9-2.8-1.1-4.1c-1.8-12.2,0-24.1,1.6-36.2
	c1.7-13.1,2.4-26.2,3.4-39.4c0.1-1.6,0.1-3.3-0.2-4.9c-0.4-2.8-1.7-4.9-4.8-5.7c-3.2-0.8-6.3-2-9.4-3c-11.9-4-23.8-8-35.7-12.1
	c-1.2-0.4-2.3-0.8-3.4-1.4c-11.2-5.7-22.4-11.3-33.5-17.2c-6.1-3.3-12-7.2-17.9-10.7c-2.3-1.3-4.8-2.3-6.9-3.8
	c-6-4.2-9.3-10.1-10.3-17.6c3.2-4,6.4-8.2,9.8-12.4c4.9-6.2,7.6-13.6,10.8-20.7c0.5-1.1,0.7-2.4,1.5-3.3
	c10-11.4,14.3-25.2,16.8-39.8c2.4-13.5,4.8-27.1,6.6-40.7c0.7-5.6-0.1-11.5-0.7-17.2c-0.6-5.7-1.9-11.3-3.1-17.9
	C557.4,345.4,534.6,342.1,511.3,350z M485,303.8c2.6,4.2,4.7,7.5,6.6,10.8c4.2,7,9,13.7,11.8,21.5c1.8,5.2,3.5,6,8.9,5.3
	c12.8-1.8,25.7-3.6,38.5-5.4c7.6-1.1,14.8,0.3,21.5,3.8c4.2,2.2,7.8,5.6,12.1,7.3c7.5,3,8,8.8,7.6,15.4c0,0.6-0.1,1.2-0.1,1.9
	c-0.8,8.2-1.8,16.3-2.5,24.5c-1.2,16.2-2,32.5-8.1,47.9c-0.4,0.9-0.4,2-0.6,3c-0.7,3.2-1.2,6.4-2.2,9.5c-2.6,8.4-5.5,16.8-8.1,25.3
	c-3,10-5.9,20.2-8.7,30.3c-1.9,6.7-0.8,13,4.8,17.1c6.8,4.9,14,9.4,21.6,13c13.2,6.3,26.7,11.7,40.1,17.4c0.8,0.3,1.5,0.6,2.3,0.8
	c10.6,2.4,21.3,4.6,31.9,7.1c4.6,1,9.2,2.2,13.7,3.6c5.7,1.8,11.1,4.3,16.8,5.9c12.7,3.5,25.5,6.4,38.1,10.1c6,1.8,12,2.6,18.2,2.6
	c6.4,0,12.7,0.4,19.1,0.7c4.9,0.2,9.8,0.8,14.7,0.8c9.1-0.1,18.1-0.3,27.2-0.8c4.5-0.2,9-1.1,13.5-1.6c2.8-0.3,5.6-0.3,8.5-0.2
	c7.4,0.2,14.6-0.7,21.7-2.5c0.3-1.4,0.5-2.2,0.5-3c1.2-11.3,2.1-22.6,3.8-33.8c1.4-9.3,3-18.8,6.2-27.6c6-16.8,10.2-34.3,17.9-50.6
	c0.8-1.7,0.4-4.6-0.4-6.4c-3.6-7.8-5.7-16.3-11.1-23.3c-1.7-2.2-2.4-5.2-3.2-8c-0.3-0.9,0.3-2.6,1-3.1c0.7-0.5,2.3-0.1,3.2,0.4
	c1,0.6,1.7,1.8,2.4,2.8c2.2,3.4,4.3,6.9,6.7,10.3c6.6,9.1,9.4,20,13.7,30.1c3.3,7.7,5.5,15.9,8,24c3.1,9.7,6,19.5,9.1,29.4
	c14-7.9,27.7-15.5,41.5-23.3c-0.1-1.6-0.2-3.3-0.4-4.9c-0.9-7.9-4.1-15-6.8-22.3c-4.8-13-6.9-26.7-8.6-40.3
	c-1.6-12.4-2.6-25-3.2-37.5c-0.6-13.1-1.9-26.3,0.2-39.4c0.6-4.1-0.5-8.4-0.9-13c-2.2,0.4-3.6,0.6-4.9,0.9c-4,0.8-8,1.6-12,2.3
	c-2.6,0.4-5.3,0.5-7.9,0.8c-8,0.8-15.9,2-23.9,2.3c-6.9,0.2-13.9-0.6-20.9-0.8c-1.8-0.1-3.6,0.4-5.4,0.8c-10,2.3-19.8,5.5-30.4,4.7
	c-6.3-0.5-12.7-0.6-19-0.8c-12.1-0.3-24-3.8-36.2-2.5c-1.6,0.2-3.2-0.5-4.8-0.8c-7.4-1.7-14.7-4.3-22.2-5
	c-12.4-1.3-24.2-4.7-35.9-8.7c-5.8-2-11.4-4.7-17.3-6.2c-6.9-1.8-13.1-4.7-18.6-9.1c-12.1-9.6-24.2-19.2-35.9-29.2
	c-8.3-7.2-17.7-13.6-22.4-24.3c-1.5-3.4-3.4-6.6-5.3-9.8c-2.7-4.3-5.7-8.4-8.8-12.8c-4.5,3.4-8.6,6.5-12.7,9.6
	c-0.5,0.4-0.9,0.8-1.4,1.2c-6.2,5.1-10.5,12.3-19.8,13.9c-5.8,1-11,5.3-16.4,8.3c-12.4,6.9-24.7,13.9-37.1,20.8
	c-1.2,0.7-2.7,1.1-4,1.5c-6.4,1.6-12.8,3.1-19.1,4.9C489,301.6,487.1,302.8,485,303.8z M609,222.4c0.9,5,1.3,10.1,2.9,14.9
	c3.1,9.3,9.9,16.4,15.9,23.9c4.3,5.2,9.7,9.6,13.7,15c5.9,8,13.9,13.6,22,18.6c13.3,8.1,27.3,15.1,41.4,21.8
	c9.8,4.6,20.1,8.3,30.5,11.4c11.4,3.4,23.6,3.4,34.8,8c0.4,0.2,0.8,0.3,1.2,0.3c11.1,0,21.9,3.9,33.1,2.8c4.9-0.5,9.9-1.1,14.7-0.4
	c8.7,1.4,17.1-0.3,25.6-0.7c2.3-0.1,4.5-0.2,6.8-0.3c3.7-0.1,7.3-0.3,11-0.5c2.1-0.1,4.1-0.4,6.2-0.3c11.2,0.5,22.2,0,33.1-2.6
	c1.8-0.4,3.7-0.4,5.5-0.6c8.2-0.7,16.4-1.4,24.6-1.9c3.9-0.2,5.5-2.1,6.9-5.7c8.6-22.9,13.1-46.7,16.2-70.8
	c2-15.5,4.2-30.9,6.6-46.3c1.7-11.3,2-22.7,0-33.8c-1.9-10.4-3.1-21.2-7.7-31.1c-1.4-3-2.1-6.2-3.1-9.4c-3.2-9.4-7.5-18.4-14.6-25.5
	c-6.1-6.1-12.8-11.6-19.5-17c-11.1-8.8-23.7-14.7-37.1-18.9c-7.8-2.4-16.1-3.5-24-5.6c-17.9-4.7-36-8.2-54.5-9.8
	c-12.6-1-25,0.4-37.5,0.8c-2.5,0.1-4.9,1-7.3,0.9c-9-0.7-17.5,2.3-26,4.2c-13.1,2.9-25.1,8.7-36.3,16.4c-12.9,8.9-25.5,18-35,30.7
	c-5,6.7-10.8,13-15.4,20c-6.7,10.1-13.1,20.4-19,31c-5.1,9.2-6.9,19.7-9.6,29.8C612.2,201.9,610.7,212,609,222.4z M472.3,343.8
	c4.6-5.5,8.4-9.8,11.8-14.4c1.6-2.1,2.7-5.1,0.5-7.5c-4.8-5.3-8.2-11.5-13.6-16.4c-7.6-6.9-15.5-13.2-25.5-15.4
	c-6.3-1.4-13.2-1.9-19.5-0.8c-5.7,1-10.9,4.6-16.4,7c-2.4,1.1-4.8,2.3-7.3,3c-15.5,4-26.3,13.6-33.7,27.5c-1.3,2.5-3.1,4.8-5.3,6.6
	c-4.6,3.8-9.6,7-14.3,10.6c-10,7.8-22.4,11.2-33.2,17.4c-1.4,0.8-3.2,1-4.8,1.1c-10.5,0.6-20.9,1-31.4,1.6c-1.2,0.1-2.5,0.2-3.5,0.8
	c-6.3,3.7-8.1,7.4-6.2,14.4c2.9,10.5,6,20.9,9.7,31.2c1.7,4.8,4.6,9.1,7.2,13.6c3.8,6.5,7.7,12.9,11.5,19.2c-1.8,2.7-4,1.5-5.9,1.3
	c-10.5-1.1-20.9-2-31.4-0.5c-6.7,1-13.5,1.4-20.2,2.1c-4.7,0.5-9.4,0.8-14.1,1.8c-8.7,1.8-17.3,2.8-26.2,1.4
	c-9-1.4-17.9-2.8-26.2-6.9c-4.1-2-8.7-3.5-13.8-2.8c-0.1,1.3-0.2,2.3-0.3,3.3c-0.4,8.6,0,17.2-3.1,25.5c-1.2,3.3-2.3,7.5,0.6,11.5
	c2.9-1.7,5.7-3,8.2-4.7c8.1-5.7,17.6-6.5,26.8-8.7c1-0.2,2.1,0,3.1,0.2c9.6,1.5,19.1,2.8,28.6,4.5c5.7,1,11.3,2.4,16.7,4.2
	c22.2,7.4,44,16.2,67.4,19.9c22.8,3.6,45.1,3.3,66.9-4.5c8.9-3.2,17.3-7.7,26-11.3c14.9-6.1,28.7-14.3,41.8-23.7
	c8.5-6,16.9-12.2,25-18.8c5.9-4.8,11.5-10,16.6-15.6c4.3-4.7,7.7-10.1,11.6-15.2c7.1-9.4,9.8-20.4,11.1-31.7
	c1.4-11.6-2.7-21.8-10.7-30.3c-5.1,1.9-10.3,3.9-15.5,5.8c-1,0.4-1.9,0.8-2.7,1.4c-2.5,1.7-2.5,3.6-0.6,6.1c0.9,1.2,1.8,2.6,1.9,4.1
	c1.7,13.1-2.3,24.8-10.3,35c-2.2,2.8-5.6,4.8-8.7,6.7c-2.4,1.5-4.7,1.1-7.3-1c-6.1-4.9-9.9-11.4-13.7-18
	c-4.3-7.7-8.7-15.4-13.7-22.7c-5.1-7.5-10.2-14.9-12.9-23.7c-1.6-5-2.8-10,0.6-14.8c3.4-4.7,7.6-8,13.6-8.6c7-0.7,13.1,0.9,19.6,3.9
	C458.5,323.7,467.5,330.4,472.3,343.8z M963.6,150.3c1.1-0.3,1.5-0.3,1.9-0.5c10.4-5.1,16.2-14.4,21.6-23.9
	c2.8-4.9,4.6-10.7,5.3-16.2c0.8-6.9,0.2-13.9-0.3-20.9c-0.5-7.1-1.7-14.3-2.6-21.4c-0.4-3.4-3.1-5-6.6-4.3c-3.2,0.7-6.4,1.3-9.6,1.5
	c-5.5,0.3-11.1,0.1-16.7,0.3c-9,0.3-17.4,3.2-25.3,7.3c-8.7,4.4-9.6,15.6-2.3,21.7c6.8,5.6,13.8,11,18.2,19c0.5,0.8,1.4,1.4,2.3,2.2
	c7.7-4.2,11.7-11.8,16.6-18.5c4.3,4.4,5.1,6.2,4.8,10.3c-0.8,9.6-4.3,18.5-9.2,26.5c-2.7,4.5-2.8,7.6-0.4,11.7
	C962.2,146.6,962.8,148.4,963.6,150.3z M713.2,63.3c2.3-0.6,3.7-1,5-1.3c10.4-2.5,19.5-8.7,30.2-10.2c2-0.3,2.7-1.7,2.7-3.5
	c0.3-13-7.4-21.7-16.4-29.4c-4.3-3.7-9.6-6.2-14.5-9.3c-1.2-0.7-2.4-1.2-3.9-2c-3.3,4.6-6.6,8.8-9.5,13.2
	c-4.7,7.2-9.3,14.5-13.9,21.8c-2.4,3.8-4.7,7.7-6.7,11.7c-3.9,7.7-2.6,14.9,2.8,22.6c2.9-2.4,6-4.2,7.9-6.8c1.3-1.7,0.8-4.6,1.3-6.9
	c1.2-6,3.9-11.2,8.6-15.2c0.5-0.4,1.5-0.3,2.8-0.4C710.8,52.7,711.9,57.6,713.2,63.3z M470.1,346.9c-1.7-2.2-3.3-4-4.6-6.1
	c-4.7-7.1-11.2-12-18.4-16.1c-1.7-1-4-2.2-5.7-1.9c-7.4,1.2-14.5,3.2-19.9,8.8c-1.7,1.7-2.2,3.4-1.2,5.5c1.7,3.7,3,7.7,5.3,11.1
	c7.7,11.7,15.6,23.2,23.5,34.8c1.8,2.6,4.1,5,6.1,7.3c11.7-8.3,18.6-18,15.7-32.7c-1.3,0.1-2.1,0.4-2.9,0.2c-1.3-0.2-2.6-0.7-3.9-1
	c0.5-1.4,0.6-3,1.4-4.2C466.7,350.7,468.4,348.9,470.1,346.9z M119.2,456.8c-1,9.6,1.7,18.9,4.8,28.1c1,3,3,5.9,5,8.5
	c2.4,3.1,5.3,3.3,8.6,1.1c5.3-3.6,9.7-8.3,11.1-14.4c2.4-11,6-21.7,5.9-33.3c-0.1-11-4.1-19.9-11.4-27.7c-2.7-2.9-4.5-3-8.3-1.3
	c-5.5,2.4-8.2,7.3-10.7,12.3C120.1,438.5,118.9,447.4,119.2,456.8z M362,314.8c-4.6,0.5-8.6,0.9-12.7,1.3c-9.8,0.9-18.8,3.9-27,9.4
	c-4,2.7-8.6,4.7-13,6.9c-4.9,2.5-10.2,4.3-13.3,9.4c-1.6,2.6-4.3,4.4-6.2,6.8c-1.5,1.8-2.5,4-4.1,6.5c2.4,0.8,3.9,1.6,5.4,1.8
	c7.8,0.9,15.6,0.9,22.9-2.8c5.5-2.8,10.9-5.7,16.4-8.6c10.6-5.5,20.3-12.4,29.2-20.4C362.5,322.5,363.2,319.5,362,314.8z
	 M663.4,604.9c4.2,0.6,8.1,1,11.9,1.6c10,1.6,20.5,0.9,29.8,6c0.3,0.1,0.8-0.2,1.5-0.4c2.5-7.2,8.9-13,9.3-21.8
	c-17-5.7-32.7-14.4-50.2-18.3C663.2,580.1,662,597.5,663.4,604.9z M839.1,600.5c-5.6-2-40.9-3.2-48.2-1.5
	c3.4,6.7,3.9,14.5,10.3,20.1c11.8-6.6,24.4-7.4,37.8-4C839.1,609.7,839.1,605.1,839.1,600.5z"/>
<path fill-rule="evenodd" clip-rule="evenodd" d="M66,484.4c-1.8,0.8-3.7,1.4-5.5,2.4c-9.7,5.2-16.9,12.7-21.3,22.9
	c-1.9,4.5-4.2,8.9-6.5,13.3c-2.2,4-5.6,6.3-10.4,6.8c-11.3,1.1-20.6-6.2-21.8-17.6c-0.4-4,1.7-7.3,4.2-9.9c2.5-2.6,5.8-4.4,9-6.3
	c8.2-4.9,17.1-8.1,26.3-10.1C48.4,484,56.9,481.2,66,484.4z M40.1,495.1c-0.3-0.6-0.7-1.2-1-1.8c-2.5,0.2-5.2-0.1-7.5,0.6
	c-3.7,1.1-7.2,3-10.9,4.1c-7.5,2.3-10.9,7.4-11.1,15.1c-0.3,8.1,4.2,12.1,12,9.6c2.5-0.8,5.3-2.7,6.6-4.9
	C32.5,510.4,36.2,502.7,40.1,495.1z"/>
<path fill-rule="evenodd" clip-rule="evenodd" d="M77.4,435.7c-2.9,0.3-4.4,0.8-5.7,0.5c-3.7-0.9-7.2-1.6-10.8,0.3
	c-0.6,0.3-1.6,0.1-2.4-0.1c-7.2-1.7-13.9,0.5-20.5,2.9c-5.8,2.1-11.8,0-14.4-5.5c-2.7-5.8-1.5-14.6,2.7-19.1c2.8-3,6.1-4.8,10.4-4.2
	c1.6,0.2,3.3,0.4,4.9,0.3c12.6-1.1,22,3.7,28.1,14.8c0.9,1.5,2.4,2.7,3.5,4.1C74.5,431.3,75.5,432.9,77.4,435.7z M57.2,424.5
	c-1.7-1.6-3.2-3.2-5-4.5c-8.2-5.6-19.3-1.8-22.9,5.4c-0.6,1.2-1.1,2.7-1.1,4c0.3,4.6,3.6,6.8,9.1,4.7
	C44,431.5,50.3,427.8,57.2,424.5z"/>
<path fill-rule="evenodd" clip-rule="evenodd" d="M102.7,513.5c-2.2,3.7-4.2,7.5-6.5,11c-2.4,3.6-3.3,7.3-3.6,11.6
	c-0.3,4.9-1.2,9.7-2,14.6c-0.2,1-0.6,2-1,2.9c-6.2,12.8-12.5,12.2-23,5.2c-1.7-1.2-3-4.1-3.2-6.4c-0.6-7.8,0.7-15.2,7.5-20.4
	c5.8-4.5,11.6-9.2,17.3-13.8c2.1-1.7,4.1-3.4,6.2-5C97.2,510.9,99.9,510.7,102.7,513.5z M78.2,555.9c-1.7-4.7-1.2-6.1,3.4-9.4
	c0.3,1.6,0.5,3,0.8,4.8c3.3-5.4,4.8-13,4.3-21.3c-0.8,0-1.5-0.1-2.3,0c-7.2,1.5-13.9,9.4-14.3,16.7C69.9,551.9,72.5,555,78.2,555.9z
	"/>
<path fill-rule="evenodd" clip-rule="evenodd" fill="#FFFFFF" d="M485,303.8c2.1-1,3.9-2.3,6-2.9c6.3-1.8,12.7-3.2,19.1-4.9
	c1.4-0.4,2.8-0.8,4-1.5c12.4-6.9,24.7-13.9,37.1-20.8c5.4-3,10.6-7.4,16.4-8.3c9.3-1.6,13.6-8.8,19.8-13.9c0.5-0.4,0.9-0.8,1.4-1.2
	c4.1-3.1,8.2-6.2,12.7-9.6c3,4.4,6,8.5,8.8,12.8c2,3.1,3.8,6.4,5.3,9.8c4.7,10.7,14.1,17.1,22.4,24.3c11.7,10.1,23.8,19.6,35.9,29.2
	c5.5,4.4,11.8,7.3,18.6,9.1c5.9,1.6,11.5,4.2,17.3,6.2c11.7,4.1,23.4,7.4,35.9,8.7c7.5,0.8,14.8,3.3,22.2,5c1.6,0.4,3.3,1,4.8,0.8
	c12.2-1.3,24.1,2.1,36.2,2.5c6.3,0.2,12.7,0.3,19,0.8c10.6,0.8,20.4-2.4,30.4-4.7c1.8-0.4,3.6-0.8,5.4-0.8c7,0.2,13.9,1.1,20.9,0.8
	c8-0.3,16-1.5,23.9-2.3c2.6-0.3,5.3-0.3,7.9-0.8c4-0.6,8-1.5,12-2.3c1.4-0.3,2.8-0.5,4.9-0.9c0.4,4.6,1.5,8.9,0.9,13
	c-2,13.2-0.7,26.3-0.2,39.4c0.6,12.5,1.7,25.1,3.2,37.5c1.7,13.7,3.8,27.3,8.6,40.3c2.7,7.3,5.9,14.5,6.8,22.3
	c0.2,1.6,0.3,3.2,0.4,4.9c-13.9,7.8-27.5,15.4-41.5,23.3c-3.1-9.9-6-19.7-9.1-29.4c-2.5-8-4.7-16.3-8-24c-4.4-10.1-7.2-21-13.7-30.1
	c-2.4-3.3-4.4-6.9-6.7-10.3c-0.7-1-1.4-2.2-2.4-2.8c-0.9-0.5-2.5-0.9-3.2-0.4c-0.7,0.5-1.2,2.2-1,3.1c0.8,2.8,1.5,5.8,3.2,8
	c5.3,7,7.5,15.5,11.1,23.3c0.8,1.8,1.2,4.7,0.4,6.4c-7.7,16.3-11.9,33.7-17.9,50.6c-3.2,8.8-4.7,18.3-6.2,27.6
	c-1.7,11.2-2.6,22.5-3.8,33.8c-0.1,0.8-0.3,1.6-0.5,3c-7.1,1.8-14.3,2.7-21.7,2.5c-2.8-0.1-5.7-0.1-8.5,0.2c-4.5,0.4-9,1.3-13.5,1.6
	c-9,0.4-18.1,0.7-27.2,0.8c-4.9,0-9.8-0.6-14.7-0.8c-6.4-0.3-12.7-0.7-19.1-0.7c-6.2,0-12.2-0.8-18.2-2.6
	c-12.6-3.7-25.4-6.6-38.1-10.1c-5.7-1.6-11.2-4.1-16.8-5.9c-4.5-1.4-9.1-2.6-13.7-3.6c-10.6-2.4-21.3-4.7-31.9-7.1
	c-0.8-0.2-1.6-0.5-2.3-0.8c-13.4-5.7-27-11.2-40.1-17.4c-7.6-3.6-14.8-8.1-21.6-13c-5.6-4.1-6.7-10.4-4.8-17.1
	c2.8-10.1,5.7-20.2,8.7-30.3c2.6-8.5,5.5-16.8,8.1-25.3c1-3.1,1.5-6.3,2.2-9.5c0.2-1,0.2-2.1,0.6-3c6.1-15.4,6.9-31.7,8.1-47.9
	c0.6-8.2,1.6-16.3,2.5-24.5c0.1-0.6,0.1-1.2,0.1-1.9c0.5-6.6-0.1-12.4-7.6-15.4c-4.3-1.7-8-5.1-12.1-7.3c-6.7-3.5-13.9-4.9-21.5-3.8
	c-12.8,1.8-25.7,3.6-38.5,5.4c-5.3,0.7-7,0-8.9-5.3c-2.7-7.9-7.6-14.5-11.8-21.5C489.7,311.3,487.7,308.1,485,303.8z M735.1,401
	c8-1.1,16.4-3.5,22.6-11.4c8.3-10.5,3.5-26.7-9.3-31c-6.3-2.1-12.6-0.9-18.9-0.5c-5,0.3-8.7,2.7-11.4,6.4
	c-5.7,7.9-7.7,16.8-4.2,26.2c2.1,5.5,6,9.2,12.4,9.4C728.9,400.2,731.3,400.6,735.1,401z M696.1,463.9c-0.4,8.7,3,15.6,10,19.6
	c9.3,5.3,25.5,3.5,32.9-5.6c3-3.8,4.8-8.5,7.1-12.9c1.7-3.3,1.7-6.8,0.5-10.2c-1.2-3.3-2.6-6.5-4.2-9.6c-3.6-6.9-9.3-9.1-17-8.3
	c-9.8,1-17.4,5.4-23.8,12.8C697.9,454,695.8,458.6,696.1,463.9z M579.2,325.2c0-0.6,0-1.2,0.1-1.8c-1.3-0.3-2.7-0.9-4-0.9
	c-10.9,0.4-21.7,0.8-32.6,1.6c-4.1,0.3-8.1,1.2-12.1,2.2c-1,0.2-1.7,1.7-2.6,2.6c1.1,0.7,2.3,1.9,3.4,1.9c2-0.1,4-1.1,6-1.4
	c8.9-1.3,17.8-2.8,26.7-3.8C569.1,325,574.2,325.3,579.2,325.2z M836.6,565.6c1.3-1.8,1.8-2.3,1.9-2.8c0.9-9.2,2.7-18.2,5.8-26.9
	c3-8.5,5.6-17.1,8.4-25.7c0.6-1.8,1.7-3.7-0.3-6.3c-1.3,2.5-2.5,4.4-3.2,6.4c-2.6,7.7-4.5,15.8-7.6,23.3c-3.7,8.9-4.1,18.3-5.3,27.6
	C836.2,562.2,836.5,563.2,836.6,565.6z M822.4,556.3c0.6,0.1,1.1,0.2,1.7,0.2c4.5-16.3,8.9-32.7,13.4-49c-0.4-0.2-0.8-0.4-1.2-0.7
	c-1,0.8-2.3,1.5-2.9,2.5c-0.8,1.4-1.1,3.1-1.5,4.6c-2.1,7.5-4.5,14.9-6.2,22.4C824.1,542.9,823.4,549.6,822.4,556.3z M916.9,401.1
	c0.2-5.3,0.9-10.7,0.5-15.9c-0.7-8.2-0.3-16.2,0.8-24.3c0.2-1.6,0.1-3.2-2.7-4C912.9,372,914.2,386.6,916.9,401.1z M540.9,314.2
	c11.9,1.3,21.9-1.5,31.9-3.7C564.7,307.3,548.3,309.1,540.9,314.2z M903.6,393.2c0.6,0,1.2,0,1.8,0c-0.4-5.6-0.8-11.3-1.3-16.9
	c-0.6-5.6,1.4-11.6-2.2-16.9C899.4,370.9,900.9,382.1,903.6,393.2z M578.9,310.4c0-0.5-0.1-1-0.1-1.5c-0.8,0.2-1.6,0.4-2.4,0.6
	c0.1,0.3,0.2,1,0.3,1C577.4,310.6,578.1,310.5,578.9,310.4z"/>
<path fill-rule="evenodd" clip-rule="evenodd" fill="#FFFFFF" d="M609,222.4c1.6-10.4,3.1-20.5,5.9-30.5c2.8-10.1,4.5-20.6,9.6-29.8
	c5.9-10.6,12.3-20.9,19-31c4.7-7,10.4-13.2,15.4-20c9.5-12.7,22-21.8,35-30.7c11.2-7.7,23.3-13.5,36.3-16.4c8.5-1.9,17-4.9,26-4.2
	c2.4,0.2,4.9-0.8,7.3-0.9c12.5-0.4,24.9-1.8,37.5-0.8c18.5,1.5,36.6,5,54.5,9.8c8,2.1,16.2,3.2,24,5.6c13.4,4.2,26,10.1,37.1,18.9
	c6.8,5.3,13.4,10.9,19.5,17c7.1,7.1,11.3,16.1,14.6,25.5c1.1,3.1,1.8,6.4,3.1,9.4c4.5,9.9,5.8,20.7,7.7,31.1c2,11,1.8,22.5,0,33.8
	c-2.4,15.4-4.6,30.9-6.6,46.3c-3.1,24.1-7.6,47.9-16.2,70.8c-1.3,3.5-2.9,5.5-6.9,5.7c-8.2,0.4-16.4,1.2-24.6,1.9
	c-1.8,0.1-3.7,0.1-5.5,0.6c-10.9,2.5-22,3.1-33.1,2.6c-2-0.1-4.1,0.2-6.2,0.3c-3.7,0.2-7.3,0.3-11,0.5c-2.3,0.1-4.5,0.1-6.8,0.3
	c-8.5,0.4-16.9,2-25.6,0.7c-4.8-0.8-9.8-0.1-14.7,0.4c-11.2,1.1-22-2.8-33.1-2.8c-0.4,0-0.8-0.1-1.2-0.3c-11.2-4.6-23.4-4.6-34.8-8
	c-10.4-3.1-20.7-6.8-30.5-11.4c-14.1-6.6-28.1-13.7-41.4-21.8c-8.1-4.9-16-10.6-22-18.6c-4-5.4-9.5-9.8-13.7-15
	c-6.1-7.4-12.9-14.5-15.9-23.9C610.3,232.5,609.9,227.4,609,222.4z M761.5,73.5c-3.5,0.8-4.9,2.9-5.4,6.4
	c-1.1,8.2-5.5,11.7-12.5,10.7c-4.7-0.7-5.4-1.3-6.7-6.4c-0.2-0.6-0.2-1.3-0.5-1.8c-1-1.2-2.1-2.2-3.2-3.3c-1,1.1-2.4,2.1-2.9,3.5
	c-2.6,6.8-5.9,13.3-12.8,16.5c-6.4,3-12.2,6.8-17,11.9c-4.4,4.8-7.8,10.7-7.7,17c0.1,8.8,2.6,17.4,7.2,25.2c3.8,6.5,9.8,10.3,16,14
	c5.7,3.4,11.8,3.8,17.8,2.7c9.4-1.7,18.1-5.6,25.5-11.6c2.8-2.2,5.4-5.3,6.9-8.5c2.2-4.8,3.2-10.2,5-15.1c3.6-9.6,2.3-19.1-3-27.2
	c-4.7-7.3-5.6-14.6-4.7-22.6c0.2-1.6,0.4-3.3,0.6-4.9C764.3,77.5,763.8,75.2,761.5,73.5z M877,102.8c-3.9,4.3-8.5,8.1-11.5,12.9
	c-3.5,5.5-8.4,7.2-14,8.9c-3.7,1.1-7.7,2.5-10.4,5.1c-6.1,5.8-11.9,12-17,18.7c-4.5,5.8-7.8,12.7-3.7,20c2.4,4.2,5.5,8.3,9.3,11.2
	c6.6,5.1,14.6,7.6,23,7.6c11.1,0,19.9-5.7,28.4-12c3.3-2.4,5.9-5.3,7.1-9.1c2.4-7.6,5.2-15.3,1.4-23.4c-0.3-0.5-0.2-1.3-0.4-1.8
	c-1-2.2-0.6-4,1.2-5.5c3.2-2.8,6.4-5.7,9.7-8.4c1.9-1.5,3.5-2.8,1.8-5.7c-3.8,1.4-7.4,2.6-11,4c-3.6,1.4-7.3,2.8-10.9,4.3
	c-2.8-1.2-5.6-2.4-8.3-3.5c-1-6-0.8-7.2,2.8-11.6c1.6-1.9,3.3-3.7,4.8-5.6C880.7,106.9,880.8,105,877,102.8z M783.1,238.4
	c0.2-10.9-1.5-20.9-12.8-26.3c-0.2-0.1-0.3-0.3-0.5-0.4c-5.9-4.3-12.8-5.4-19.7-5.9c-5.8-0.5-11,1.3-16.3,5.1
	c-9.8,6.9-16.9,15.2-21.8,26c-5.3,11.5-3.6,21.6,3.7,31.7c10,13.9,29.2,17.4,42.8,9.6C773.8,269.4,783.8,257.2,783.1,238.4z
	 M838.6,271.2c-5-1.8-7.5-0.6-9.6,3.1c-1.7,3.2-4,6.3-6.8,8.7c-6.8,5.8-14,11.1-23.4,12.3c-1.8,0.2-3.8,2.3-4.8,4.1
	c-0.4,0.7,1.5,2.9,2.6,4.2c0.8,0.9,1.8,1.7,2.9,2.1c12.2,4.5,23.9,5.3,34.7-3.7c4.2-3.5,6.8-7.9,6.6-13.2
	C840.7,282.8,839.4,276.9,838.6,271.2z"/>
<path fill-rule="evenodd" clip-rule="evenodd" fill="#FFFFFF" d="M472.3,343.8c-4.8-13.3-13.8-20-24.9-25.2
	c-6.4-3-12.6-4.6-19.6-3.9c-6,0.6-10.3,4-13.6,8.6c-3.4,4.7-2.2,9.7-0.6,14.8c2.7,8.8,7.8,16.2,12.9,23.7c4.9,7.3,9.3,15,13.7,22.7
	c3.8,6.7,7.6,13.1,13.7,18c2.5,2.1,4.9,2.4,7.3,1c3.1-1.9,6.5-3.9,8.7-6.7c8-10.2,11.9-21.9,10.3-35c-0.2-1.4-1.1-2.9-1.9-4.1
	c-1.9-2.6-1.8-4.4,0.6-6.1c0.8-0.6,1.8-1,2.7-1.4c5.2-2,10.3-3.9,15.5-5.8c8,8.5,12.1,18.7,10.7,30.3c-1.4,11.3-4.1,22.3-11.1,31.7
	c-3.8,5.1-7.3,10.5-11.6,15.2c-5.1,5.6-10.7,10.8-16.6,15.6c-8.1,6.6-16.5,12.7-25,18.8c-13.1,9.3-26.8,17.5-41.8,23.7
	c-8.7,3.6-17.1,8.1-26,11.3c-21.8,7.9-44.1,8.2-66.9,4.5c-23.4-3.7-45.1-12.5-67.4-19.9c-5.4-1.8-11.1-3.2-16.7-4.2
	c-9.5-1.7-19.1-3-28.6-4.5c-1-0.2-2.1-0.4-3.1-0.2c-9.2,2.2-18.7,3-26.8,8.7c-2.5,1.7-5.3,3.1-8.2,4.7c-2.9-4.1-1.7-8.3-0.6-11.5
	c3-8.4,2.7-17,3.1-25.5c0-1,0.2-2,0.3-3.3c5.1-0.7,9.7,0.8,13.8,2.8c8.3,4.1,17.2,5.5,26.2,6.9c8.8,1.4,17.5,0.3,26.2-1.4
	c4.6-0.9,9.4-1.3,14.1-1.8c6.7-0.7,13.5-1.1,20.2-2.1c10.5-1.5,20.9-0.7,31.4,0.5c1.9,0.2,4.1,1.4,5.9-1.3
	c-3.8-6.3-7.7-12.7-11.5-19.2c-2.6-4.4-5.5-8.8-7.2-13.6c-3.6-10.3-6.7-20.7-9.7-31.2c-2-7-0.1-10.7,6.2-14.4c1-0.6,2.3-0.7,3.5-0.8
	c10.5-0.5,20.9-1,31.4-1.6c1.6-0.1,3.4-0.3,4.8-1.1c10.9-6.2,23.2-9.6,33.2-17.4c4.7-3.7,9.7-6.9,14.3-10.6c2.1-1.8,4-4.1,5.3-6.6
	c7.4-13.9,18.2-23.5,33.7-27.5c2.5-0.7,4.9-1.9,7.3-3c5.4-2.4,10.7-6,16.4-7c6.3-1.1,13.2-0.5,19.5,0.8c10.1,2.2,17.9,8.5,25.5,15.4
	c5.5,4.9,8.8,11.2,13.6,16.4c2.1,2.3,1.1,5.3-0.5,7.5C480.7,334,476.9,338.3,472.3,343.8z M313.7,452.6c0.3-0.3,0.7-0.5,1-0.8
	c-2.1-5.5-3.9-11.2-6.5-16.4c-5.9-11.8-8.6-24.2-9.2-37.3c-0.2-5.5-0.5-11-3-16.3c-1.6,0.2-2.7,0.5-3.9,0.6
	c-6.7,0.5-6.7,0.5-5.5,7.2c0.1,0.8,0.3,1.6,0.5,2.4c2.6,8.2,5.6,16.3,7.8,24.6c3,11.5,8.8,21.6,14.7,31.7
	C310.6,449.8,312.3,451.1,313.7,452.6z M321.4,433.6c0.3-0.3,0.7-0.5,1-0.8c-4.5-8.2-5.8-17-5.7-26.1c0.1-4.9,0.8-9.7,1.5-14.6
	c0.5-3.4-0.6-6-3-6.5c-4.9-1.1-11.7,5.2-10.4,10.1c3.5,12.7,8.1,25,14.9,36.3C320,432.7,320.8,433.1,321.4,433.6z M404.2,374.7
	c-2.8,0.8-4.1,2.8-3.3,4.9c1,2.5,2.1,4.9,3.5,7.2c6.2,10.7,11.4,21.8,15,33.7c0.6,2,2.2,3.9,3.7,5.5c1.7,1.8,4.5,1.5,6.6-0.4
	c2.2-1.8,1.3-3.6,0-5.4c-0.5-0.7-1-1.3-1.5-2c-5.7-7.6-10.5-15.6-14.4-24.3c-2.4-5.2-4.8-10.4-7.3-15.6
	C405.8,377,404.9,375.9,404.2,374.7z M394.9,392.4c-0.3,2.4-0.8,3.6-0.5,4.6c1.3,4.7,2.9,9.4,4.4,14.1c2.2,7,4.7,14,6.7,21.1
	c1.6,5.5,3.6,6.3,8.3,2.4c-0.2-0.5-0.2-1.3-0.5-1.6c-4.8-4.9-6.9-11-8.7-17.4c-1.9-6.5-4.2-12.9-6.5-19.2
	C397.6,395.2,396.5,394.3,394.9,392.4z M317,454.7c0.2,1.2,0.1,1.8,0.3,1.8c0.5,0.2,1.1,0.2,1.7,0.3
	C318.5,456.3,318,455.8,317,454.7z"/>
<path fill-rule="evenodd" clip-rule="evenodd" fill="#FFFFFF" d="M963.6,150.3c-0.9-1.9-1.4-3.7-2.4-5.2c-2.4-4-2.4-7.2,0.4-11.7
	c4.9-8,8.4-16.9,9.2-26.5c0.4-4-0.5-5.9-4.8-10.3c-4.8,6.7-8.8,14.2-16.6,18.5c-0.9-0.8-1.8-1.4-2.3-2.2c-4.4-8-11.4-13.4-18.2-19
	c-7.4-6.1-6.5-17.3,2.3-21.7c7.9-4,16.3-6.9,25.3-7.3c5.6-0.2,11.1,0,16.7-0.3c3.2-0.2,6.5-0.8,9.6-1.5c3.4-0.8,6.1,0.9,6.6,4.3
	c0.9,7.1,2,14.2,2.6,21.4c0.5,6.9,1.1,14,0.3,20.9c-0.7,5.6-2.5,11.4-5.3,16.2c-5.4,9.4-11.2,18.8-21.6,23.9
	C965.2,150,964.7,150,963.6,150.3z"/>
<path fill-rule="evenodd" clip-rule="evenodd" fill="#FFFFFF" d="M713.2,63.3c-1.3-5.7-2.4-10.6-3.5-15.7c-1.3,0.2-2.3,0-2.8,0.4
	c-4.8,4-7.4,9.2-8.6,15.2c-0.5,2.3,0,5.3-1.3,6.9c-2,2.6-5,4.4-7.9,6.8c-5.4-7.6-6.8-14.9-2.8-22.6c2.1-4,4.4-7.9,6.7-11.7
	c4.5-7.3,9.1-14.6,13.9-21.8c2.9-4.4,6.2-8.6,9.5-13.2c1.5,0.7,2.8,1.3,3.9,2c4.9,3,10.2,5.6,14.5,9.3c9,7.7,16.7,16.4,16.4,29.4
	c0,1.8-0.7,3.2-2.7,3.5c-10.7,1.5-19.8,7.8-30.2,10.2C716.8,62.4,715.5,62.7,713.2,63.3z"/>
<path fill-rule="evenodd" clip-rule="evenodd" fill="#FFFFFF" d="M119.2,456.8c-0.3-9.5,0.9-18.4,5-26.7c2.5-5,5.1-9.9,10.7-12.3
	c3.8-1.7,5.5-1.6,8.3,1.3c7.3,7.7,11.3,16.6,11.4,27.7c0.1,11.6-3.4,22.3-5.9,33.3c-1.4,6.1-5.8,10.8-11.1,14.4
	c-3.3,2.3-6.2,2.1-8.6-1.1c-2-2.6-3.9-5.4-5-8.5C120.9,475.8,118.2,466.5,119.2,456.8z M132.6,431.7c-0.6,1.9-1.3,3.8-1.7,5.8
	c-0.9,4.3-0.2,6.3,2.3,7.4c1.9,0.8,6-0.6,7.7-2.6c2.2-2.5,2.9-7.3,1.5-9.8c-1.9-3.2-4.7-1.5-7.2-1.5
	C134.4,431.1,133.6,431.5,132.6,431.7z M133.3,482.7c3-0.8,6.3-1.9,8.4-5.1c1.2-1.8,1.2-3.8-0.5-4.9c-1.1-0.8-3.5-1.2-4.4-0.6
	c-2.4,1.8-4.6,4-6.4,6.5C128.9,480.6,130.4,482.7,133.3,482.7z M137.9,456.6c-0.7-1-1.6-2.9-3.1-3.8c-0.7-0.5-2.7,0.9-4,1.6
	c-0.9,0.5-1.6,1.3-2.4,1.9c-2,1.6-2.7,3.6-1.5,6c1,2,4.1,2.7,6.6,1.6C136.1,462.6,137.5,460.5,137.9,456.6z"/>
<path fill-rule="evenodd" clip-rule="evenodd" fill="#FFFFFF" d="M362,314.8c1.2,4.7,0.6,7.7-2.5,10.3c-8.9,8-18.6,14.9-29.2,20.4
	c-5.5,2.8-10.9,5.8-16.4,8.6c-7.3,3.7-15.1,3.6-22.9,2.8c-1.5-0.2-3-1-5.4-1.8c1.6-2.6,2.6-4.7,4.1-6.5c1.9-2.4,4.6-4.2,6.2-6.8
	c3.2-5.1,8.4-7,13.3-9.4c4.4-2.2,8.9-4.2,13-6.9c8.2-5.5,17.2-8.5,27-9.4C353.3,315.7,357.4,315.3,362,314.8z"/>
<path fill-rule="evenodd" clip-rule="evenodd" fill="#FFFFFF" d="M663.4,604.9c-1.4-7.4-0.2-24.8,2.2-32.9
	c17.5,3.9,33.2,12.5,50.2,18.3c-0.4,8.8-6.8,14.6-9.3,21.8c-0.7,0.2-1.2,0.5-1.5,0.4c-9.3-5.1-19.8-4.4-29.8-6
	C671.5,605.9,667.6,605.5,663.4,604.9z"/>
<path fill-rule="evenodd" clip-rule="evenodd" fill="#FFFFFF" d="M839.1,600.5c0,4.6,0,9.2,0,14.6c-13.4-3.4-26.1-2.6-37.8,4
	c-6.5-5.6-7-13.5-10.3-20.1C798.2,597.3,833.5,598.5,839.1,600.5z"/>
<path fill-rule="evenodd" clip-rule="evenodd" fill="#FFFFFF" d="M40.1,495.1c-4,7.6-7.7,15.3-12,22.7c-1.3,2.2-4.1,4.1-6.6,4.9
	c-7.8,2.5-12.3-1.4-12-9.6c0.3-7.7,3.6-12.7,11.1-15.1c3.7-1.1,7.2-3.1,10.9-4.1c2.4-0.7,5-0.4,7.5-0.6
	C39.5,494,39.8,494.5,40.1,495.1z M17.6,521c2.5,0.7,4-0.4,4.8-2.4c0.2-0.5-0.5-1.7-1-1.9c-2.6-0.8-3.5,1.1-4.1,3.1
	C17.3,519.9,17.4,520.2,17.6,521z"/>
<path fill-rule="evenodd" clip-rule="evenodd" fill="#FFFFFF" d="M57.2,424.5c-6.9,3.4-13.2,7-20,9.6c-5.4,2.1-8.8-0.1-9.1-4.7
	c-0.1-1.3,0.5-2.8,1.1-4c3.6-7.2,14.7-11,22.9-5.4C54,421.2,55.5,422.9,57.2,424.5z M33.3,423.6c-0.6,1.7-1.3,2.6-1.2,3.5
	c0.1,0.7,1,1.8,1.6,1.9c0.7,0.1,2-0.8,2-1.4C35.8,426.9,34.9,426.1,33.3,423.6z"/>
<path fill-rule="evenodd" clip-rule="evenodd" fill="#FFFFFF" d="M78.2,555.9c-5.7-0.8-8.3-4-8.1-9.1c0.4-7.3,7.1-15.1,14.3-16.7
	c0.7-0.2,1.5,0,2.3,0c0.5,8.3-1,15.8-4.3,21.3c-0.3-1.9-0.6-3.2-0.8-4.8C77,549.8,76.5,551.2,78.2,555.9z"/>
<path fill-rule="evenodd" clip-rule="evenodd" d="M735.1,401c-3.8-0.4-6.2-0.8-8.7-0.9c-6.4-0.2-10.3-3.9-12.4-9.4
	c-3.5-9.4-1.5-18.2,4.2-26.2c2.7-3.8,6.4-6.2,11.4-6.4c6.3-0.3,12.6-1.6,18.9,0.5c12.8,4.3,17.5,20.5,9.3,31
	C751.5,397.5,743.1,399.9,735.1,401z M732.1,395.3c3.8,0.8,7.3-1.2,10.1-4.4c2.3-2.6,4.2-5.5,6.3-8.2c3.8-4.9,3-10.9-3.3-15.4
	c-1.8-1.3-3.8-2.4-5.9-3.3c-7.1-3-14.9-0.7-18.7,6c-2.9,4.9-3.9,10.3-2.2,16C720.6,393.5,723.4,395.6,732.1,395.3z"/>
<path fill-rule="evenodd" clip-rule="evenodd" d="M696.1,463.9c-0.4-5.3,1.8-9.9,5.5-14.2c6.3-7.4,13.9-11.8,23.8-12.8
	c7.6-0.7,13.4,1.5,17,8.3c1.6,3.1,3.1,6.3,4.2,9.6c1.2,3.4,1.3,6.9-0.5,10.2c-2.3,4.4-4.1,9.1-7.1,12.9c-7.4,9.1-23.5,10.9-32.9,5.6
	C699.1,479.5,695.7,472.6,696.1,463.9z M701.2,464.8c0.5,8.6,5.3,16,15.8,16.2c7.3,0.1,17.4-7.2,19.2-14.3c0.8-3,0.9-6.6,0.1-9.6
	c-0.9-3.5-2.9-6.8-4.6-10.1c-2.1-3.9-5.6-5.3-9.9-4.9C711.2,443,701.2,454,701.2,464.8z"/>
<path fill-rule="evenodd" clip-rule="evenodd" d="M579.2,325.2c-5,0.1-10.1-0.1-15.1,0.4c-8.9,1-17.8,2.4-26.7,3.8
	c-2,0.3-4,1.3-6,1.4c-1.1,0-2.2-1.2-3.4-1.9c0.8-0.9,1.6-2.4,2.6-2.6c4-1,8-1.9,12.1-2.2c10.8-0.7,21.7-1.1,32.6-1.6
	c1.3-0.1,2.7,0.6,4,0.9C579.3,324,579.3,324.6,579.2,325.2z"/>
<path fill-rule="evenodd" clip-rule="evenodd" d="M836.6,565.6c-0.1-2.4-0.4-3.4-0.2-4.4c1.2-9.3,1.6-18.7,5.3-27.6
	c3.1-7.5,5-15.5,7.6-23.3c0.7-2,1.9-3.9,3.2-6.4c2,2.6,0.9,4.5,0.3,6.3c-2.8,8.6-5.4,17.2-8.4,25.7c-3.1,8.7-5,17.7-5.8,26.9
	C838.4,563.3,837.9,563.7,836.6,565.6z"/>
<path fill-rule="evenodd" clip-rule="evenodd" d="M822.4,556.3c1.1-6.6,1.8-13.3,3.3-19.8c1.7-7.6,4.1-15,6.2-22.4
	c0.4-1.6,0.7-3.3,1.5-4.6c0.6-1.1,1.9-1.7,2.9-2.5c0.4,0.2,0.8,0.4,1.2,0.7c-4.5,16.3-8.9,32.7-13.4,49
	C823.5,556.4,822.9,556.3,822.4,556.3z"/>
<path fill-rule="evenodd" clip-rule="evenodd" d="M916.9,401.1c-2.6-14.6-4-29.1-1.5-44.2c2.8,0.8,2.9,2.3,2.7,4
	c-1,8.1-1.5,16.1-0.8,24.3C917.8,390.5,917.1,395.8,916.9,401.1z"/>
<path fill-rule="evenodd" clip-rule="evenodd" d="M540.9,314.2c7.4-5.1,23.8-6.9,31.9-3.7C562.7,312.7,552.8,315.5,540.9,314.2z"/>
<path fill-rule="evenodd" clip-rule="evenodd" d="M903.6,393.2c-2.6-11.1-4.2-22.3-1.7-33.8c3.6,5.3,1.6,11.2,2.2,16.9
	c0.6,5.6,0.9,11.3,1.3,16.9C904.8,393.2,904.2,393.2,903.6,393.2z"/>
<path fill-rule="evenodd" clip-rule="evenodd" d="M578.9,310.4c-0.7,0.1-1.5,0.2-2.2,0.1c-0.1,0-0.2-0.6-0.3-1
	c0.8-0.2,1.6-0.4,2.4-0.6C578.8,309.4,578.8,309.9,578.9,310.4z"/>
<path fill-rule="evenodd" clip-rule="evenodd" d="M761.5,73.5c2.3,1.7,2.8,4,2.5,6.6c-0.2,1.6-0.4,3.3-0.6,4.9
	c-0.9,8.1,0,15.4,4.7,22.6c5.3,8.2,6.6,17.6,3,27.2c-1.8,5-2.8,10.3-5,15.1c-1.5,3.2-4.1,6.3-6.9,8.5c-7.5,6-16.2,9.9-25.5,11.6
	c-5.9,1.1-12.1,0.6-17.8-2.7c-6.2-3.7-12.2-7.5-16-14c-4.6-7.8-7.1-16.4-7.2-25.2c-0.1-6.4,3.3-12.3,7.7-17
	c4.8-5.2,10.5-8.9,17-11.9c6.9-3.2,10.1-9.7,12.8-16.5c0.5-1.3,1.9-2.3,2.9-3.5c1.1,1.1,2.2,2.1,3.2,3.3c0.4,0.4,0.4,1.2,0.5,1.8
	c1.4,5.1,2,5.7,6.7,6.4c7,1,11.4-2.5,12.5-10.7C756.6,76.3,758,74.3,761.5,73.5z M738,100.5c-3.3,0.3-6.6,0.4-9.8,1
	c-13.5,2.6-20.9,12.2-26.7,23.5c-1.1,2.1-2.1,4.7-2,7c0.9,11.3,2.9,22.1,14.9,27.3c0.2,0.1,0.4,0.2,0.5,0.3c9,6.3,18.3,6.5,27.8,1.4
	c12.8-6.9,21.4-17.2,24.5-31.5c1.3-6-0.5-11.4-5.1-15.6c-2.4-2.2-4.6-4.7-7.2-6.7C750,103.3,745.3,98.6,738,100.5z"/>
<path fill-rule="evenodd" clip-rule="evenodd" d="M877,102.8c3.9,2.2,3.8,4.1,2.3,6c-1.5,2-3.3,3.7-4.8,5.6
	c-3.5,4.3-3.8,5.6-2.8,11.6c2.7,1.1,5.5,2.3,8.3,3.5c3.6-1.4,7.2-2.9,10.9-4.3c3.6-1.4,7.2-2.6,11-4c1.7,2.9,0,4.2-1.8,5.7
	c-3.3,2.7-6.5,5.6-9.7,8.4c-1.7,1.5-2.2,3.4-1.2,5.5c0.3,0.5,0.2,1.3,0.4,1.8c3.9,8,1,15.8-1.4,23.4c-1.2,3.8-3.8,6.7-7.1,9.1
	c-8.5,6.3-17.3,12-28.4,12c-8.4,0-16.4-2.5-23-7.6c-3.8-2.9-7-7-9.3-11.2c-4.1-7.3-0.8-14.2,3.7-20c5.1-6.7,10.9-12.9,17-18.7
	c2.7-2.5,6.7-3.9,10.4-5.1c5.6-1.7,10.5-3.4,14-8.9C868.5,110.9,873.1,107.1,877,102.8z M881.5,151.9c-0.3-3.3-0.3-6.6-1.1-9.7
	c-1.3-4.7-4.1-9.1-9-10.1c-6.2-1.2-12.6-1.5-18.9-1.4c-2.6,0-5.6,1.5-7.8,3.1c-8.6,6.3-13.9,15-16.4,25.3c-1.3,5.2-0.9,10.6,3.9,14
	c6.7,4.7,14.1,7.6,22.6,5.2c1.8-0.5,3.6-0.8,5.4-1C871.7,175.5,882.7,165.4,881.5,151.9z"/>
<path fill-rule="evenodd" clip-rule="evenodd" d="M783.1,238.4c0.7,18.8-9.3,31-24.5,39.8c-13.7,7.8-32.8,4.3-42.8-9.6
	c-7.3-10.1-9-20.2-3.7-31.7c4.9-10.8,12-19.1,21.8-26c5.3-3.8,10.5-5.6,16.3-5.1c6.9,0.5,13.8,1.6,19.7,5.9c0.2,0.1,0.3,0.3,0.5,0.4
	C781.6,217.5,783.3,227.5,783.1,238.4z M746.5,216.2c-6.9,0.8-14.1,2.6-19.2,7c-6.1,5.2-10.9,12.3-12.3,20.8c-0.6,3.9-1.3,8,1,11.4
	c3.1,4.8,6.8,9.3,10.3,13.7c0.8,1,2.4,1.8,3.7,2.1c6.5,1.1,13,1.9,19.5,2.7c0.8,0.1,1.7,0,2.4-0.3c5-2.3,10.5-4.1,14.2-8.4
	c3.9-4.4,9.1-8.6,8.7-15.1c-0.4-6.5-1.4-13.2-3.7-19.2C767,220.2,758.1,215.7,746.5,216.2z"/>
<path fill-rule="evenodd" clip-rule="evenodd" d="M838.6,271.2c0.8,5.8,2.1,11.6,2.3,17.5c0.2,5.3-2.5,9.7-6.6,13.2
	c-10.8,9-22.6,8.1-34.7,3.7c-1.1-0.4-2.2-1.2-2.9-2.1c-1.1-1.3-3-3.5-2.6-4.2c1-1.7,3-3.8,4.8-4.1c9.4-1.2,16.6-6.5,23.4-12.3
	c2.7-2.3,5-5.5,6.8-8.7C831.1,270.5,833.6,269.3,838.6,271.2z M809.7,299.3c7,5.3,13.7,4.9,19.7-0.5c6-5.4,6.8-10.8,2.9-17.6
	C824.9,287.1,817.5,293,809.7,299.3z"/>
<path fill-rule="evenodd" clip-rule="evenodd" d="M313.7,452.6c-1.3-1.5-3-2.7-4-4.4c-6-10.1-11.7-20.2-14.7-31.7
	c-2.2-8.3-5.2-16.4-7.8-24.6c-0.2-0.8-0.4-1.6-0.5-2.4c-1.2-6.6-1.2-6.7,5.5-7.2c1.2-0.1,2.4-0.3,3.9-0.6c2.5,5.3,2.7,10.8,3,16.3
	c0.6,13.1,3.3,25.5,9.2,37.3c2.6,5.2,4.4,10.9,6.5,16.4C314.3,452,314,452.3,313.7,452.6z"/>
<path fill-rule="evenodd" clip-rule="evenodd" d="M321.4,433.6c-0.6-0.5-1.4-0.9-1.7-1.5c-6.8-11.3-11.4-23.6-14.9-36.3
	c-1.4-4.9,5.4-11.2,10.4-10.1c2.5,0.5,3.5,3.1,3,6.5c-0.6,4.8-1.4,9.7-1.5,14.6c-0.1,9.1,1.2,17.9,5.7,26.1
	C322,433.1,321.7,433.3,321.4,433.6z"/>
<path fill-rule="evenodd" clip-rule="evenodd" d="M404.2,374.7c0.7,1.2,1.6,2.4,2.2,3.6c2.5,5.2,4.9,10.4,7.3,15.6
	c3.9,8.6,8.8,16.7,14.4,24.3c0.5,0.7,1,1.3,1.5,2c1.3,1.8,2.2,3.5,0,5.4c-2.2,1.8-4.9,2.2-6.6,0.4c-1.5-1.6-3-3.5-3.7-5.5
	c-3.6-11.9-8.7-23-15-33.7c-1.3-2.3-2.5-4.7-3.5-7.2C400.1,377.5,401.4,375.4,404.2,374.7z"/>
<path fill-rule="evenodd" clip-rule="evenodd" d="M394.9,392.4c1.6,1.9,2.7,2.8,3.2,3.9c2.3,6.4,4.7,12.7,6.5,19.2
	c1.9,6.4,3.9,12.5,8.7,17.4c0.4,0.4,0.4,1.1,0.5,1.6c-4.8,3.9-6.8,3.1-8.3-2.4c-2-7.1-4.5-14.1-6.7-21.1c-1.5-4.7-3-9.4-4.4-14.1
	C394.1,396,394.6,394.8,394.9,392.4z"/>
<path fill-rule="evenodd" clip-rule="evenodd" d="M317,454.7c1,1.1,1.5,1.6,2,2.2c-0.6-0.1-1.2-0.1-1.7-0.3
	C317.1,456.5,317.2,455.9,317,454.7z"/>
<path fill-rule="evenodd" clip-rule="evenodd" d="M132.6,431.7c1-0.3,1.8-0.7,2.6-0.7c2.5,0,5.3-1.7,7.2,1.5
	c1.4,2.5,0.8,7.2-1.5,9.8c-1.7,1.9-5.8,3.3-7.7,2.6c-2.6-1-3.3-3.1-2.3-7.4C131.3,435.5,132,433.6,132.6,431.7z M138.9,434.3
	c-3.5,1.6-4.7,3.2-3,6.5C138.9,440,139.3,438.1,138.9,434.3z"/>
<path fill-rule="evenodd" clip-rule="evenodd" d="M133.3,482.7c-2.9,0-4.4-2.1-2.9-4.1c1.8-2.4,4-4.7,6.4-6.5
	c0.9-0.6,3.2-0.2,4.4,0.6c1.7,1.2,1.7,3.1,0.5,4.9C139.6,480.9,136.3,481.9,133.3,482.7z"/>
<path fill-rule="evenodd" clip-rule="evenodd" d="M137.9,456.6c-0.4,3.9-1.8,6-4.5,7.2c-2.5,1.1-5.6,0.4-6.6-1.6
	c-1.2-2.4-0.5-4.3,1.5-6c0.8-0.6,1.5-1.4,2.4-1.9c1.3-0.7,3.3-2,4-1.6C136.3,453.7,137.2,455.7,137.9,456.6z M133,456
	c-0.9,1.1-1.7,1.7-2,2.4c-0.1,0.3,0.8,1,1.2,1.5c0.7-0.6,1.5-1.1,2-1.8C134.4,457.9,133.6,457,133,456z"/>
<path fill-rule="evenodd" clip-rule="evenodd" d="M17.6,521c-0.2-0.8-0.3-1-0.3-1.2c0.6-2.1,1.5-3.9,4.1-3.1c0.5,0.1,1.2,1.4,1,1.9
	C21.6,520.6,20.1,521.6,17.6,521z"/>
<path fill-rule="evenodd" clip-rule="evenodd" d="M33.3,423.6c1.6,2.5,2.6,3.3,2.5,4c-0.1,0.6-1.4,1.5-2,1.4
	c-0.6-0.1-1.6-1.2-1.6-1.9C32,426.3,32.6,425.3,33.3,423.6z"/>
<path fill-rule="evenodd" clip-rule="evenodd" fill="#FFFFFF" d="M732.1,395.3c-8.6,0.3-11.5-1.7-13.7-9.3c-1.7-5.7-0.7-11.1,2.2-16
	c3.9-6.6,11.6-9,18.7-6c2.1,0.9,4.1,2,5.9,3.3c6.4,4.4,7.1,10.4,3.3,15.4c-2.1,2.8-4,5.7-6.3,8.2C739.4,394.1,735.9,396,732.1,395.3
	z"/>
<path fill-rule="evenodd" clip-rule="evenodd" fill="#FFFFFF" d="M701.2,464.8c0.1-10.8,10-21.8,20.7-22.7c4.2-0.4,7.8,1.1,9.9,4.9
	c1.7,3.3,3.7,6.5,4.6,10.1c0.7,3,0.7,6.6-0.1,9.6c-1.9,7.1-11.9,14.4-19.2,14.3C706.4,480.8,701.7,473.4,701.2,464.8z"/>
<path fill-rule="evenodd" clip-rule="evenodd" fill="#FFFFFF" d="M738,100.5c7.3-1.9,12.1,2.8,17,6.6c2.6,2,4.8,4.5,7.2,6.7
	c4.6,4.3,6.4,9.6,5.1,15.6c-3.2,14.3-11.7,24.6-24.5,31.5c-9.5,5.1-18.8,5-27.8-1.4c-0.2-0.1-0.3-0.3-0.5-0.3
	c-12.1-5.2-14.1-16-14.9-27.3c-0.2-2.3,0.8-4.9,2-7c5.9-11.3,13.3-20.9,26.7-23.5C731.4,100.9,734.7,100.8,738,100.5z M731.4,145.5
	c-0.1-5.9-4.1-10.2-9.3-10.3c-3.2-0.1-7.4,4.9-7.3,8.6c0.1,4.6,3.9,9.1,7.6,9C727.8,152.6,731.5,149.6,731.4,145.5z"/>
<path fill-rule="evenodd" clip-rule="evenodd" fill="#FFFFFF" d="M881.5,151.9c1.1,13.5-9.8,23.6-21.2,25.3c-1.8,0.3-3.7,0.5-5.4,1
	c-8.5,2.4-15.9-0.5-22.6-5.2c-4.8-3.4-5.2-8.8-3.9-14c2.5-10.3,7.8-19,16.4-25.3c2.2-1.6,5.1-3.1,7.8-3.1c6.3-0.1,12.8,0.2,18.9,1.4
	c4.9,1,7.7,5.4,9,10.1C881.3,145.3,881.2,148.6,881.5,151.9z M852,163.8c0-2.8-4.5-6.3-8.1-6.2c-3.3,0-6.3,3.4-6.5,7.1
	c-0.2,3.2,2.7,6,6.4,6.2C847.3,170.9,852,167,852,163.8z"/>
<path fill-rule="evenodd" clip-rule="evenodd" fill="#FFFFFF" d="M746.5,216.2c11.6-0.5,20.6,3.9,24.7,14.8c2.3,6,3.3,12.7,3.7,19.2
	c0.4,6.5-4.9,10.6-8.7,15.1c-3.8,4.3-9.2,6.1-14.2,8.4c-0.7,0.3-1.6,0.4-2.4,0.3c-6.5-0.9-13-1.7-19.5-2.7c-1.3-0.2-2.8-1-3.7-2.1
	c-3.6-4.5-7.2-8.9-10.3-13.7c-2.2-3.4-1.6-7.5-1-11.4c1.4-8.6,6.1-15.6,12.3-20.8C732.4,218.8,739.6,217,746.5,216.2z M757.9,247.2
	c-0.1-2.8-3.3-5.5-6.5-5.4c-3,0.1-6.3,4-6,7.4c0.2,2.6,2.3,4.5,4.9,4.5C754.6,253.6,758.1,250.6,757.9,247.2z M727.9,244.8
	c0.1,3.5,1.7,5.7,4.3,5.6c2.9-0.1,5.9-3.3,5.6-6.2c-0.2-2.5-2.7-4.7-5.5-4.8C729.6,239.3,727.8,241.4,727.9,244.8z"/>
<path fill-rule="evenodd" clip-rule="evenodd" fill="#FFFFFF" d="M809.7,299.3c7.8-6.3,15.2-12.2,22.6-18c3.9,6.8,3,12.1-2.9,17.6
	C823.4,304.2,816.7,304.6,809.7,299.3z"/>
<path fill-rule="evenodd" clip-rule="evenodd" fill="#FFFFFF" d="M138.9,434.3c0.4,3.8,0,5.7-3,6.5
	C134.2,437.5,135.4,435.9,138.9,434.3z"/>
<path fill-rule="evenodd" clip-rule="evenodd" fill="#FFFFFF" d="M133,456c0.6,1.1,1.4,1.9,1.3,2.2c-0.5,0.7-1.3,1.2-2,1.8
	c-0.4-0.5-1.3-1.2-1.2-1.5C131.3,457.6,132.1,457,133,456z"/>
<path fill-rule="evenodd" clip-rule="evenodd" d="M731.4,145.5c0.1,4.1-3.6,7.1-9,7.3c-3.7,0.1-7.5-4.4-7.6-9
	c-0.1-3.7,4.1-8.6,7.3-8.6C727.3,135.2,731.3,139.6,731.4,145.5z"/>
<path fill-rule="evenodd" clip-rule="evenodd" d="M852,163.8c0,3.1-4.7,7.1-8.2,7c-3.6-0.1-6.5-2.9-6.4-6.2c0.2-3.7,3.2-7,6.5-7.1
	C847.4,157.6,852,161,852,163.8z"/>
<path fill-rule="evenodd" clip-rule="evenodd" d="M757.9,247.2c0.2,3.4-3.3,6.4-7.6,6.5c-2.6,0-4.7-1.8-4.9-4.5
	c-0.3-3.4,3-7.3,6-7.4C754.6,241.7,757.8,244.4,757.9,247.2z"/>
<path fill-rule="evenodd" clip-rule="evenodd" d="M727.9,244.8c-0.1-3.4,1.6-5.5,4.4-5.4c2.8,0.1,5.3,2.3,5.5,4.8
	c0.2,2.9-2.7,6.1-5.6,6.2C729.7,250.5,728,248.3,727.9,244.8z"/>
</svg>
