<?xml version="1.0" encoding="utf-8"?>
<!DOCTYPE svg PUBLIC "-//W3C//DTD SVG 1.1//EN" "http://www.w3.org/Graphics/SVG/1.1/DTD/svg11.dtd">
<svg artist="zl2017" version="1.1" id="zlIcon-pinguin-duel" xmlns="http://www.w3.org/2000/svg" xmlns:xlink="http://www.w3.org/1999/xlink" x="0px" y="0px"
	 width="1000px" height="760px" viewBox="0 0 1000 760" enable-background="new 0 0 1000 760" xml:space="preserve">
<path fill-rule="evenodd" clip-rule="evenodd" d="M567.2,745.3c2.6-8.2,4.8-15.1,7-22.2c-22.8-19.1-26.3-45.7-27.6-71.7
	c-2.1-45-25.7-73.5-64.5-91.6c-34.8-16.3-69.7-32.4-101.5-54.2c-1.9-1.3-4.6-1.5-9.3-2.9c-1.4,9.2-2.7,17.8-4,26.2
	c-7.4,6.2-14.9,5.8-22.7,2.5c-10.9-4.6-15.1-13.9-9.9-24.7c4.7-9.7,5.7-18.3-2.3-27.7c-24.2-2-44.2-14-60.1-33
	c-7.7-9.3-17.6-11.7-29.3-11.8c-38.2-0.4-76.4-1.5-114.6-2.2c-5.5-0.1-11,0.5-16.5,0.5c-13.3,0-26.7-0.8-39.9-0.3
	c-15,0.6-22.6-7-25.2-22.4c-9.5,0-18.6,0.1-27.7-0.1c-4.2-0.1-9.8,0.7-12.4-1.6c-3.5-3.2-5.8-8.8-6.3-13.6c-0.2-1.9,5.9-6.6,8.8-6.4
	c12.3,0.8,21.6-2.3,25.2-14.8c2.3,0.3,4.2,0,4.5,0.6c5.5,9.3,11.5,13.6,24.1,12.6c18.6-1.5,37.5,3.3,56.3,3.2
	c41.5-0.3,82.9-2.1,126.1-3.3c-8.9-15.7-13.7-30.4,4.5-41.7c12,8.2,11.8,11-2.6,22.4c8.7,10.9,22.4,11.2,33.8,16
	c1.5,0.6,5.9-2.2,6.8-4.4c0.9-2.1,0.2-6.5-1.5-8c-3.8-3.5-8.7-5.8-14.3-9.4c6.8-6.8,14.6-10.1,19.9-4c5,5.7,8.3,15,8.2,22.6
	c-0.3,15-1.5,15.1,12.2,19.9c19,6.7,34.5,17.6,45.7,34.8c6.6,10.1,15.7,15.2,29.2,14.7c27.6-0.9,55.2-0.1,82.8,1
	c16.8,0.7,33.4,4.3,50.2,5c10.7,0.4,22.1-0.8,32.3-4c19.5-6.2,26.9-23.6,18.8-42.4c-11.7-27.4-16.6-55.8-14.4-85.4
	c0.2-3-0.4-6.7,1-9c10.6-16.2,15.2-35.8,29.8-50c9.9-9.6,17.3-21.7,26.9-34.1c-17.4-6.8-34.4-8.5-51.8-8.7
	c-13.3-0.2-17.3-4.4-17-16.1c0.3-9.9,6.9-14.6,17-11.7c16.3,4.8,32.4,10.1,48.8,14.5c8.6,2.3,17.5,3.2,27.8,5
	c0-10.3,1.3-19-0.2-27.1c-6.5-34.8-15.6-68.9-34.6-99.4c-5.1-8.2-11.4-15.7-17-23.7c-6.8-9.8-11.5-20.2-7.6-32.7
	c28.1-20.2,60.7-27.3,94.4-29.7c33.7-2.3,67.2,0.5,100.3,7.3c15.4,3.2,30.7,7.1,46,11c10.1,2.6,13.8,7.9,12.1,19.3
	c-1.4,9.5-4.7,18.8-7.1,28.2c-7.5,29.8-10.2,60.2-8.1,90.7c0.8,12.4,5.1,24.7,9,36.7c3.5,11,12.4,15.2,23.3,12.6
	c19.4-4.5,38.6-9.9,60.9-15.7c5.1,4,18.1,4.1,21,18.5c-21.2,14-47.5,3-69.4,11.8c-0.3,1.5-0.5,3.1-0.8,4.6
	c5.6,2.8,11.1,5.8,16.8,8.5c21.6,10.2,39.6,24.1,49.1,46.8c1.9,4.4,3.5,9.1,4.7,13.7c7.1,27,7.8,54-0.8,80.8
	c-1.7,5.2-4,10.2-6.3,15.1c-8.8,18.9-10,38.3-6.6,58.8c3,18,5.2,36,12.7,53c9.5,21.7,18.5,43.7,26.7,66
	c9.3,25.4,25.9,46.4,41.2,70.2c-9.1,1.9-15.9-0.6-21.7-4.1c-25.1-15.2-50.4-29.5-79.3-36.5c-2.8-0.7-5.1-3.1-10.3-6.6
	c1.2,6,1.3,9.8,2.7,13.1c8.2,19.7,16.4,39.3,25,58.8c8.8,20.1,8.5,38-11.3,51c1.8,12.1,18.3,14.1,16.3,30
	c-8.5-1.5-16.5-2.9-24.3-4.3c-3.6,2.6-7.3,7.3-11.5,7.8c-4.8,0.5-10.1-2.8-16.4-4.9c-1,4.8-1.9,9.3-2.8,13.8
	c-0.9,0.2-2.1,0.9-2.8,0.6c-3.8-1.9-8.5-3.2-11-6.3c-12.1-15.2-28-16.3-45.6-15c-42.7,3-85.3,7.1-128.2,5.4
	c-4.7-0.2-10.2,3-14.2,6.1c-11.4,9.1-22.3,17.2-38,8.7c-2.7-1.5-7.8,1.3-11.8,2.1c-6.1,1.3-11.8,3-14.6-5.8c-2.4-7.5-8.7-4.6-14-3.3
	C577.2,751.5,577.2,751.4,567.2,745.3z M321.8,463.3c-7.1-8.5,10.4-22.3-6.5-28.1c-3.1,2.2-6.3,4.6-9.9,7.1
	c-7.4-19.2-10.2-21.2-27.5-19.9C276.9,438.1,292,452.9,321.8,463.3z"/>
<path fill-rule="evenodd" clip-rule="evenodd" fill="#FFFFFF" d="M615.8,434.2c-27.2,16.4-51.7,33-62.3,65.6
	c-8.7,26.7-11.2,52.1-4.1,78.8c9.1,34.1,17.4,68.2,18.2,103.9c0.3,14.4,7.3,27.3,22.5,32.6c15.4,5.4,30.9,13.7,46.7,14.4
	c45.7,2.1,91.6,1.6,137.3,0.9c23.7-0.4,47.5-2.2,71-5.5c16-2.2,32-6.7,47-12.6c13.9-5.5,18.3-19.4,12.2-38
	c-5.7-17.3-13.4-33.9-20.7-50.7c-17.9-41.2-39.9-80.7-47.1-126.2c-5.7-35.6-7.8-29.3,21.6-46.5c21-12.3,38.4-28.1,48.5-50.4
	c14.2-31.4,23.2-64,14.8-98.6c-5.8-23.9-17.3-45.2-40.9-55.3c-20.9-8.9-42.6-18.5-66.5-9c-2.7,1.1-6,0.7-9,1.3
	c-25.1,4.7-50.5,9-67,31.9c-0.6,0.8-2.2,0.7-4.5,1.3c-4.6-2.5-10.2-5-15.2-8.3c-24.5-16-51.1-18.1-78.5-11.1
	c-29,7.4-47.6,28-62.7,52.4c-15.9,25.8-14.4,53.1-2.3,78.7c6.1,13,19.5,22.9,30.4,33.4C610.4,422.4,616.7,426.1,615.8,434.2z"/>
<path fill-rule="evenodd" clip-rule="evenodd" d="M715.7,347.6c1.2,15.7-6.7,25.2-20.7,32.6c-31.3,16.5-62.5,6.4-76-26.1
	c-11.2-26.7,13-61.3,41.8-59.7c6.6,0.4,13.2,1.8,19.5,3.8C702.9,305.3,715.7,323.3,715.7,347.6z"/>
<path fill-rule="evenodd" clip-rule="evenodd" fill="#FFFFFF" d="M668.7,379c1.2-0.6,7.7-1.7,11.5-5.4c21.8-21.3,13.2-46.3-5.9-60.6
	c-8.1-6.1-18.2-11-28.9-5.4c-10.3,5.4-22.6,29.3-21,38.7C626.7,360.4,649.2,378.9,668.7,379z"/>
<path fill-rule="evenodd" clip-rule="evenodd" d="M824.2,294.2c23.3-5.2,54.8,28.8,53.9,49.4c-1.2,28.7-27.4,57.5-56.7,56.1
	c-31.6-1.5-52.2-21-55.4-54.4C763.8,321.2,798.3,289.8,824.2,294.2z"/>
<path fill-rule="evenodd" clip-rule="evenodd" fill="#FFFFFF" d="M844.7,353.9c0-5.5,0-7.9,0-10.4c-0.2-17.5-9.8-31.7-24.8-36.4
	c-11.4-3.6-24.1,2-34.2,15.3c-17.1,22.6-8.8,60.6,23.2,66.2c20.9,3.7,33-3.9,34.9-25C844.3,359.4,844.6,355.2,844.7,353.9z"/>
<path fill-rule="evenodd" clip-rule="evenodd" d="M772.6,416.9c-12.9,22.7-23.6,41.5-35.8,63c-3.9-5.7-7.5-10-10-14.8
	c-6.4-12.4-12.2-25.1-18.3-37.7c-6.5-13.3-2-22.3,13.1-21C738,407.9,754.2,413,772.6,416.9z"/>
<path fill-rule="evenodd" clip-rule="evenodd" d="M806.1,356c-9.6,1.7-15.9,1-16.7-8.3c-0.5-6.1,3.3-9.6,9-8.6
	C807.6,340.8,806.5,347.9,806.1,356z"/>
<path fill-rule="evenodd" clip-rule="evenodd" d="M657.5,353.6c-11.5,2-19.1,1.2-20-9.9c-0.6-7.3,3.9-11.6,10.8-10.3
	C659.3,335.4,657.9,343.9,657.5,353.6z"/>
</svg>
