<?xml version="1.0" encoding="utf-8"?>
<!DOCTYPE svg PUBLIC "-//W3C//DTD SVG 1.1//EN" "http://www.w3.org/Graphics/SVG/1.1/DTD/svg11.dtd">
<svg artist="zl2017" version="1.1" id="zlIcon-plane-paper" xmlns="http://www.w3.org/2000/svg" xmlns:xlink="http://www.w3.org/1999/xlink" x="0px" y="0px"
	 width="1000px" height="399.7px" viewBox="0 0 1000 399.7" enable-background="new 0 0 1000 399.7" xml:space="preserve">
<path fill-rule="evenodd" clip-rule="evenodd" d="M999.5,99.5c-11.2,3.3-22.4,6.3-33.4,9.8c-30.7,9.7-61,20.9-92,29.3
	c-58.3,15.7-117,29.6-175.5,44.5c-68.7,17.5-137,35.6-202.4,63.9c-30.3,13.1-62.4,21.9-93.8,32.2c-24.1,7.9-48.9,13.7-72.4,23
	c-30.6,12.2-60.3,26.8-90.3,40.5c-12.1,5.5-24.3,11.2-36.2,17.1c-21.3,10.6-42.3,21.8-63.7,32.3c-6.7,3.3-14.2,5.1-21.3,7.5
	c-13.5-13-16.3-29.4-20-44.6c-3.8-15.5-4.1-31.8-5.9-47.7c-17.2,0.3-58.4,16.9-81.8,32.9C-0.7,329-1.9,325,4,313.6
	c9.8-18.6,19.8-37.1,29.8-55.5c12.4-22.7,24.8-45.5,37.8-68c5.2-9,11.8-17.1,16.3-23.6c23.1-2.2,43.6,2.5,64.4-5.6
	c-3.1-23-4.8-45.3-24.3-61.7c1-2.1,1.6-5.4,3.5-6.9c32.1-25.2,62-52.8,88.7-83.6c6.9-7.9,14.2-10.1,24.2-8
	c18.5,3.9,37,7.9,55.8,10.2c32.7,4,65.7,6.2,98.4,10.2c13.9,1.7,27.3,7,41.2,8.9c44.5,6.1,89.2,11.2,133.7,17.1
	c16.7,2.2,33.3,5.7,50,7.9c41,5.5,82.1,10.6,123.2,15.9c45.3,5.8,90.6,12.6,136,17c27,2.6,53.8,9.9,81.6,2.9
	c10.6-2.7,23.1,1.8,34.7,3C999.3,95.8,999.4,97.6,999.5,99.5z M794,104.1c-3.5-1.2-5.8-2.5-8.2-2.9c-42.5-5.4-85-10.4-127.5-16
	c-49.9-6.6-99.7-13.5-149.5-20.6c-80-11.4-160.1-22-239.7-35.6c-20.5-3.5-32.9,3.3-46.9,14.8c-14.5,11.9-30.5,22.1-45.4,33.5
	c-9.2,7-18.9,14.1-20.8,30.1c26.4,0,51.6,0.1,76.7,0c17.6-0.1,35.2-0.9,52.8-0.6c20.3,0.4,40.6,2.8,60.9,2.5
	c61-1.1,122.1-3.2,183.1-4.6c24.2-0.6,48.5-0.9,72.7-0.6c22.4,0.2,44.8,1.4,67.2,2.1c0.1,1.3,0.1,2.5,0.2,3.8
	c-3.9,0.8-7.7,1.6-11.6,2.4c20.4,2.2,41.1-0.8,60.4,2.9c24.7,4.7,47.1-3.5,70.4-5.8C790.3,109.3,791.5,106.8,794,104.1z
	 M586.3,147.7c-0.2-1.2-0.5-2.4-0.7-3.7c-22.8,2.1-45.6,4-68.4,6.3c-11.8,1.2-23.4,4.3-35.3,4.9c-37.2,1.9-74.4,3.1-111.7,4.4
	c-18.9,0.6-37.9-0.7-56.7,1.4c-41.8,4.6-83.3,12.4-125.2,15.6c-26.1,2-51.5,6-75.8,14.7c-10.5,3.7-21.6,11.1-27.8,20.1
	c-17.2,24.7-32,51.1-47.5,77c-2.3,3.8-3.2,8.3-5.5,14.6c5.1-0.9,7.9-0.9,10.3-1.8c38.4-15,76.7-30.5,115.2-45.2
	c18.3-7,36.7-13.9,55.7-18.5c58-14,116.2-26.9,174.4-40.2c2.7-0.6,5.5-1.8,8.2-1.7c29.7,1.8,56-12,83.8-18.5
	c25.9-6,51.5-13.3,77.2-20.2C566.7,154.2,576.4,150.7,586.3,147.7z M639.9,156.6c-5.3,1.1-11.5,1.9-17.4,3.6
	c-26.3,7.5-52.3,16.1-78.9,22.7c-36.8,9.1-73.9,17-110.9,25.1c-32.9,7.2-66.2,12.6-98.6,21.5c-69.1,19.1-137.7,39.9-206.4,60.3
	c-18,5.3-19.5,6.8-16.4,25.5c3.3,20.6,8.9,40.8,14,63.4c7.4-3.1,13.5-5.6,19.5-8.2c-0.6-23.6-13.7-44.5-6.8-67.5
	c4.1,3.5,6.4,7.5,7.5,11.7c3.2,12.9,5.8,25.9,8.8,38.9c0.4,1.8,2.4,3.1,4.3,5.6c5.5-3,10.7-5.9,15.4-8.5
	c-8.9-48.3-8.9-48.3-0.3-59.5c10.4,16.3-1.1,38.9,17.1,53.6c6-2.6,12.6-5.5,18.2-8c-1.3-18.7-11.2-34.3-4.7-50.6
	c1.8-0.2,3.6-0.5,5.4-0.7c3.5,14.6,6.9,29.1,11.2,46.9c8.9-6.3,15.8-11.3,22.1-15.8c-6.1-23.1-6.1-23.1,0.2-39.5
	c4.8,13.5,9,25.2,13.7,38.2c10.5-4.8,18.4-8.4,26.3-12c-8.5-13.3-15.7-25.6-7-42.6c12.5,11.8,10.6,26.8,15,39.2
	c19.2-5.8,18.9-5.8,16.1-25.3c-1-7-3.6-15.2,5.7-21.8c4.1,11,7.8,21,11.8,31.8c7.1-2.2,12.3-3.8,18.3-5.7c-0.6-9.7-1.2-18.5-1.8-28
	c17.4-1.6,8.8,17.9,22.9,21.2c5-2,13.2-5.3,20.8-8.4c-0.4-8.4-0.7-15-1-21.3c15.7-4.2,12,12.6,23.2,16.5c7.2-3.2,16.5-7.4,23.6-10.6
	c4.2-9.1-3-18.7,8.8-23.6c4.3,5.9,8.6,11.8,13.4,18.4c8.8-2.5,17.4-5,25.5-7.3c3.5-7.8-9.9-19.8,7.9-22.4c3,4,6.2,8.3,10.6,14.1
	c11-4.3,21.9-8.5,32.6-12.6c-2.5-17.3-0.5-23.1,7.3-22.2c3.5,4.9,7.1,9.9,10.9,15.2c15.8-5.9,34.8-4.2,38.2-24.2
	c9.7,1.2,18.1,4.3,25.4,2.7c24.1-5,47.8-11.5,71.5-18c7.7-2.1,16.2-3.3,17-15.3c0.5-7,7.7-6.9,13-2.5c2.5,2.1,4.4,5,6,7
	c20.6-3.1,37.8-12.7,58.1-14.3c27.8-2.2,55.1-10.2,82.5-16c5.9-1.2,11.5-3.8,17.2-5.8c-75.5,3.8-149.8,13.3-220.2,31.2
	c-1.1,8.1-1.4,14-3.1,19.5c-0.3,1-8.2,1.6-9.1,0.1C642.1,168.9,641.8,164,639.9,156.6z M231.9,142.4c-14.5,2.7-14.5,2.7-22.5-16.3
	c-4.6,0.2-9.3,0.4-13.7,0.6c-4.2,6.9,7.5,18-6.8,20.4C177.1,125,177.1,125,159.2,129c1.4,9.3,2.9,18.7,4.4,28.6
	c4,0.3,6.8,1.2,9.3,0.6c21.3-4.6,42.4-7.4,64.5-6.5c16.9,0.7,34.9,1.1,51.6-8.1c-2-6.6-3.8-12.4-5.9-19.5c-5.9-0.7-11.8-1.3-17.5-2
	c-2.5,7.6-4.4,13.6-7.6,23.5c-5.4-9.7-8.6-15.5-12-21.5c-6.2,0-12.4,0-20,0C228,130.6,229.7,135.7,231.9,142.4z M436.9,127.7
	c2.7,4.9,3.7,8.8,5.4,9.2c7.4,1.7,15,3.6,22.5,3.2c20-1,40.4-1,60.7-10.2c-3.5-1.9-5.2-3.4-7.1-3.7c-13.4-1.6-26,4.3-38.2,5.3
	C468.1,132.7,454.2,124.9,436.9,127.7z M392.1,140.9c12.2,0,22.8,0,34.6,0c-1.4-5.8-2.2-9.6-3-13.1C394,122.4,394,122.4,392.1,140.9
	z M381.1,140.9c-6.5-17.2-15.9-19.7-40-11.8C350.1,143.5,357.4,145.8,381.1,140.9z M325.9,126.9c-9.1,0-17.1,0-26.6,0
	c1.3,5.7,2.2,10.1,3.2,14.5c8.8,0,16.8,0,26.4,0C327.7,135.6,326.8,131.3,325.9,126.9z"/>
<path fill-rule="evenodd" clip-rule="evenodd" fill="#FFFFFF" d="M794,104.1c-3.5-1.2-5.8-2.5-8.2-2.9c-42.5-5.4-85-10.4-127.5-16
	c-49.9-6.6-99.7-13.5-149.5-20.6c-80-11.4-160.1-22-239.7-35.6c-20.5-3.5-32.9,3.3-46.9,14.8c-14.5,11.9-30.5,22.1-45.4,33.5
	c-9.2,7-18.9,14.1-20.8,30.1c26.4,0,51.6,0.1,76.7,0c17.6-0.1,35.2-0.9,52.8-0.6c20.3,0.4,40.6,2.8,60.9,2.5
	c61-1.1,122.1-3.2,183.1-4.6c24.2-0.6,48.5-0.9,72.7-0.6c22.4,0.2,44.8,1.4,67.2,2.1c0.1,1.3,0.1,2.5,0.2,3.8
	c-3.9,0.8-7.7,1.6-11.6,2.4c20.4,2.2,41.1-0.8,60.4,2.9c24.7,4.7,47.1-3.5,70.4-5.8C790.3,109.3,791.5,106.8,794,104.1z"/>
<path fill-rule="evenodd" clip-rule="evenodd" fill="#FFFFFF" d="M586.3,147.7c-0.2-1.2-0.5-2.4-0.7-3.7c-22.8,2.1-45.6,4-68.4,6.3
	c-11.8,1.2-23.4,4.3-35.3,4.9c-37.2,1.9-74.4,3.1-111.7,4.4c-18.9,0.6-37.9-0.7-56.7,1.4c-41.8,4.6-83.3,12.4-125.2,15.6
	c-26.1,2-51.5,6-75.8,14.7c-10.5,3.7-21.6,11.1-27.8,20.1c-17.2,24.7-32,51.1-47.5,77c-2.3,3.8-3.2,8.3-5.5,14.6
	c5.1-0.9,7.9-0.9,10.3-1.8c38.4-15,76.7-30.5,115.2-45.2c18.3-7,36.7-13.9,55.7-18.5c58-14,116.2-26.9,174.4-40.2
	c2.7-0.6,5.5-1.8,8.2-1.7c29.7,1.8,56-12,83.8-18.5c25.9-6,51.5-13.3,77.2-20.2C566.7,154.2,576.4,150.7,586.3,147.7z"/>
<path fill-rule="evenodd" clip-rule="evenodd" fill="#FFFFFF" d="M639.9,156.6c-5.3,1.1-11.5,1.9-17.4,3.6
	c-26.3,7.5-52.3,16.1-78.9,22.7c-36.8,9.1-73.9,17-110.9,25.1c-32.9,7.2-66.2,12.6-98.6,21.5c-69.1,19.1-137.7,39.9-206.4,60.3
	c-18,5.3-19.5,6.8-16.4,25.5c3.3,20.6,8.9,40.8,14,63.4c7.4-3.1,13.5-5.6,19.5-8.2c-0.6-23.6-13.7-44.5-6.8-67.5
	c4.1,3.5,6.4,7.5,7.5,11.7c3.2,12.9,5.8,25.9,8.8,38.9c0.4,1.8,2.4,3.1,4.3,5.6c5.5-3,10.7-5.9,15.4-8.5
	c-8.9-48.3-8.9-48.3-0.3-59.5c10.4,16.3-1.1,38.9,17.1,53.6c6-2.6,12.6-5.5,18.2-8c-1.3-18.7-11.2-34.3-4.7-50.6
	c1.8-0.2,3.6-0.5,5.4-0.7c3.5,14.6,6.9,29.1,11.2,46.9c8.9-6.3,15.8-11.3,22.1-15.8c-6.1-23.1-6.1-23.1,0.2-39.5
	c4.8,13.5,9,25.2,13.7,38.2c10.5-4.8,18.4-8.4,26.3-12c-8.5-13.3-15.7-25.6-7-42.6c12.5,11.8,10.6,26.8,15,39.2
	c19.2-5.8,18.9-5.8,16.1-25.3c-1-7-3.6-15.2,5.7-21.8c4.1,11,7.8,21,11.8,31.8c7.1-2.2,12.3-3.8,18.3-5.7c-0.6-9.7-1.2-18.5-1.8-28
	c17.4-1.6,8.8,17.9,22.9,21.2c5-2,13.2-5.3,20.8-8.4c-0.4-8.4-0.7-15-1-21.3c15.7-4.2,12,12.6,23.2,16.5c7.2-3.2,16.5-7.4,23.6-10.6
	c4.2-9.1-3-18.7,8.8-23.6c4.3,5.9,8.6,11.8,13.4,18.4c8.8-2.5,17.4-5,25.5-7.3c3.5-7.8-9.9-19.8,7.9-22.4c3,4,6.2,8.3,10.6,14.1
	c11-4.3,21.9-8.5,32.6-12.6c-2.5-17.3-0.5-23.1,7.3-22.2c3.5,4.9,7.1,9.9,10.9,15.2c15.8-5.9,34.8-4.2,38.2-24.2
	c9.7,1.2,18.1,4.3,25.4,2.7c24.1-5,47.8-11.5,71.5-18c7.7-2.1,16.2-3.3,17-15.3c0.5-7,7.7-6.9,13-2.5c2.5,2.1,4.4,5,6,7
	c20.6-3.1,37.8-12.7,58.1-14.3c27.8-2.2,55.1-10.2,82.5-16c5.9-1.2,11.5-3.8,17.2-5.8c-75.5,3.8-149.8,13.3-220.2,31.2
	c-1.1,8.1-1.4,14-3.1,19.5c-0.3,1-8.2,1.6-9.1,0.1C642.1,168.9,641.8,164,639.9,156.6z"/>
<path fill-rule="evenodd" clip-rule="evenodd" fill="#FFFFFF" d="M231.9,142.4c-14.5,2.7-14.5,2.7-22.5-16.3
	c-4.6,0.2-9.3,0.4-13.7,0.6c-4.2,6.9,7.5,18-6.8,20.4C177.1,125,177.1,125,159.2,129c1.4,9.3,2.9,18.7,4.4,28.6
	c4,0.3,6.8,1.2,9.3,0.6c21.3-4.6,42.4-7.4,64.5-6.5c16.9,0.7,34.9,1.1,51.6-8.1c-2-6.6-3.8-12.4-5.9-19.5c-5.9-0.7-11.8-1.3-17.5-2
	c-2.5,7.6-4.4,13.6-7.6,23.5c-5.4-9.7-8.6-15.5-12-21.5c-6.2,0-12.4,0-20,0C228,130.6,229.7,135.7,231.9,142.4z"/>
<path fill-rule="evenodd" clip-rule="evenodd" fill="#FFFFFF" d="M436.9,127.7c2.7,4.9,3.7,8.8,5.4,9.2c7.4,1.7,15,3.6,22.5,3.2
	c20-1,40.4-1,60.7-10.2c-3.5-1.9-5.2-3.4-7.1-3.7c-13.4-1.6-26,4.3-38.2,5.3C468.1,132.7,454.2,124.9,436.9,127.7z"/>
<path fill-rule="evenodd" clip-rule="evenodd" fill="#FFFFFF" d="M392.1,140.9c12.2,0,22.8,0,34.6,0c-1.4-5.8-2.2-9.6-3-13.1
	C394,122.4,394,122.4,392.1,140.9z"/>
<path fill-rule="evenodd" clip-rule="evenodd" fill="#FFFFFF" d="M381.1,140.9c-6.5-17.2-15.9-19.7-40-11.8
	C350.1,143.5,357.4,145.8,381.1,140.9z"/>
<path fill-rule="evenodd" clip-rule="evenodd" fill="#FFFFFF" d="M325.9,126.9c-9.1,0-17.1,0-26.6,0c1.3,5.7,2.2,10.1,3.2,14.5
	c8.8,0,16.8,0,26.4,0C327.7,135.6,326.8,131.3,325.9,126.9z"/>
</svg>
