<?xml version="1.0" encoding="utf-8"?>
<!DOCTYPE svg PUBLIC "-//W3C//DTD SVG 1.1//EN" "http://www.w3.org/Graphics/SVG/1.1/DTD/svg11.dtd">
<svg artist="zl2017" version="1.1" id="zlIcon-poker-game" xmlns="http://www.w3.org/2000/svg" xmlns:xlink="http://www.w3.org/1999/xlink" x="0px" y="0px"
	 width="1000px" height="858.9px" viewBox="0 0 1000 858.9" enable-background="new 0 0 1000 858.9" xml:space="preserve">
<path fill-rule="evenodd" clip-rule="evenodd" d="M383.1,677.6c1.4,0,2.2-0.4,2.6-1.9c1.2-4.9,2.6-9.7,3.9-14.5
	c0.5-1.8,0.8-3.7,1.1-5.5c4.5-0.5,4.5-0.5,5,3.4c0.4,3.3-0.1,6.2-1.5,9.2c-2.6,5.9-5.1,11.8-7.5,17.7c-1.6,3.7-3,7.5-4.6,11.2
	c-0.6,1.5-1.6,2.9-2.4,4.3c-0.8,1.4-1.7,2.8-2.3,4.3c-2.2,5.7-4.2,11.4-6.4,17.1c-1.3,3.6-3.4,6.2-5.8,7.6c-0.1-2.4,1.6-3.8,2.7-5.4
	c0.6-0.8,1.6-1.8,1.5-2.5c-0.4-3.8,0.2-7.4,1.6-10.9c0.3-0.7-0.1-1.7-0.1-3.1c-0.8,0.8-1.4,1.1-1.6,1.5c-2.1,4.1-4.1,8.2-6.1,12.4
	c-1.1,2.3-2.1,4.6-3.2,6.9c-1.1,2.4-2.2,4.9-3.4,7.3c-1.7,3.5-3.7,6.8-5.3,10.4c-1.7,3.8-3.5,7.7-4.5,11.7c-1.1,4-3.4,7.1-6.8,8.9
	c-3.4,1.8-4.2,4.7-5.3,7.8c-0.2,0.7-0.1,1.6-0.5,2c-4.3,4-3.9,9.6-5.4,14.6c0,0.2,0.3,0.4,0.8,1.1c1.4-2.1,2.6-4.1,3.9-6
	c1.6-2.3,3.2-4.6,4.9-6.9c1.4-1.9,2.6-3.9,4-5.8c2.1-2.8,4.2-5.6,6.4-8.4c0.5-0.6,1.1-1.2,1.7-1.4c4-1.2,5.9-4.8,8.8-7.4
	c2-1.8,3.2-4.6,5-6.8c1.4-1.7,3-3.4,4.9-4.4c1.8-1,2.9-2.2,4.1-3.7c3.8-4.4,4.6-9.2,3.9-14.9c-0.5-4.4,0.4-8.9,0.6-13.4
	c0.1-1.8,1.1-2.3,2.6-2.5c1.7-0.2,2.4,1,2.8,2.3c0.4,1.6,0.7,3.3,1.8,4.9c0.3-0.6,0.7-1.3,1-2c2.4,2,0.7,4.3,1,6.3c0.2,2,0.7,4,1,6
	c2.6,0,3.1-1.5,3.4-3.2c1.3-5.7,4.1-11,3.9-17.3c-0.1-3.9,1.4-7.9,2.4-11.8c0.3-1,1.3-2,2.2-2.6c1.9-1.4,3.6-0.7,3.8,1.6
	c0.2,1.5,0,3,0,4.9c1.4-0.5,2.4-0.9,4.1-1.4c-0.4,3.1-0.9,5.8-1.1,8.4c-0.2,2.5-0.8,4.9,1.5,7.1c1,1,0.6,3.5,0,5.5
	c0.8,0.7,1.7,1.5,2.6,2.3c-1.4,1.8-2.7,3.4-4.1,5.3c5.7,2.4,3.9,7.5,4.5,11.7c0.8,5.1,0.2,10.5,3.6,15.9c0.6-2.7,1.2-4.8,1.6-6.8
	c1.3-8.1,3.2-16.1,3.7-24.2c0.4-7.1,2.2-13.9,3.5-20.8c0.3-1.5,0-3,0.1-4.5c0.3-2.6,0.9-5.3,1-7.9c0.1-2.7,0.1-5.4-0.2-8.1
	c-0.4-3.3-1.6-6.4-1.8-9.7c-0.4-5.1-3.6-7.9-7.3-10.5c-1.6-1.1-3.3-2.1-4.6-3.5c-3.9-4.4-8.7-7.7-13-11.5c-2.9-2.5-5.6-5.4-8.7-7.8
	c-2.9-2.2-5.4-5.1-9.4-5.5c-0.6,0-1.1-0.4-1.6-0.8c-5.4-4.4-11.6-7.7-17.2-11.9c-5.7-4.2-11-8.8-16.5-13.2c-0.2-0.2-0.5-0.4-0.7-0.6
	c-2.2-4.4-6.5-5.3-10.6-6.7c-4.8-1.6-9.2-4.1-13.3-7.2c-3.7-2.8-7.8-4.9-11.7-7.4c-1.3-0.8-2.5-1.6-4.3-2.8
	c-4.2,4.6-8.4,9.3-12.7,14c-1,1.1-1.9,2.3-2.9,3.4c-1.9,2.1-3.7,4.2-4.5,7.1c-0.5,1.8-1.5,3.6-2.5,5.2c-3.1,4.7-6.1,9.4-7.9,14.9
	c-1,3.2-3.3,6-5.2,8.9c-3.9,6-7.9,11.9-11.9,17.8c-1.7,2.4-3.5,4.8-5.1,7.3c-1.8,2.9-3.1,6.1-5.1,8.8c-3.7,4.7-7.2,9.5-10.5,14.5
	c-1.5,2.2-3.6,4.2-5.1,6.6c-1.3,2-3.2,3.5-4.9,5.2c-0.8,0.9-2,1.6-2.4,2.6c-1.5,4-4.7,6.4-7.4,9.3c-2.2,2.3-4.5,4.6-5.8,7.4
	c-2.6,5.2-7.3,8.3-11,12.3c-1.8,1.9-6.4,2.5-10.5,1.9c-1.8-4.9,1.2-8.3,4.1-11.3c2.1-2.1,3.4-4.3,4.7-6.9
	c3.1-6.1,6.1-12.3,11.4-16.9c0.4-0.4,0.9-0.9,1-1.4c0.8-4.5,4.4-7,7.2-10.1c1.5-1.7,2.5-3.8,3.6-5.9c2.3-4.3,4.5-8.7,8.1-12.2
	c1.2-1.2,2.1-2.8,2.8-4.4c1.4-3.1,1.8-6.6,4.2-9.4c0.8-0.9,0.8-2.6,1.2-3.8c1.1-2.7,1-6,4.2-7.6c0.3-0.1,0.5-0.4,0.6-0.7
	c2.1-4.9,4.2-9.8,6.1-14.7c1.3-3.5,2.1-7.1,3.3-10.6c0.6-1.6,0.9-3.1-0.5-4.6c-1.2,3.5-1.2,3.5-4.1,2.8c-2,1.7-3.7,3-5.3,4.3
	c-0.9,0.7-2.1,1.2-2.7,2.1c-1.4,2-2.8,2.3-4.9,1c-1.7-1.1-3.2-2.8-5.7-2.2c-0.2,0.1-0.6-0.9-1.1-1.2c-0.7-0.4-1.6-0.9-2.2-0.7
	c-6.3,1.8-12.5,3.8-18.8,5.5c-3,0.8-6.2,1.1-9.3,1.6c-3.8,0.6-4.1,0.8-5,4.4c-0.3,1.3-0.7,2.6-1.3,3.8c-2.1,4.2-6.2,4.5-8.9,0.7
	c-0.9-1.3-1.2-3.3-3.8-2.5c-0.7,2.1-1.3,4.4-2.1,6.6c-0.6,1.7-1.4,3.4-2.4,4.7c-1.7,2.1-4.5,1.8-6-0.5c-2.3-3.6-3.6-7.4-2.6-11.7
	c-1.6-1.8-2.9-1.5-4.2,0c-2,2.2-4.1,4.5-6.2,6.5c-1.6,1.5-3.5,2.9-5.3,4.2c-2.5,1.8-4.5-0.5-7.3-0.6c0.2-2.3,0.2-4.3,0.5-6.3
	c0.5-3.4,0-4.1-3.4-4.9c-5.5-1.3-11-2.8-16.4-4.4c-0.9-0.3-1.5-1.7-2.4-2.3c-3-2.1-5.5-4.5-7.5-7.6c-0.6-1-2.2-1.4-3.6-2.3
	c-0.1-0.6,0.1-1.8-0.4-2.5c-4.2-6-5.3-12.9-6-19.9c-0.1-1-0.5-2-0.6-3.1c-0.3-2.5-0.5-5-0.7-7.5c-0.2-2.8-0.4-5.6-0.3-8.4
	c0.2-2.8,0.8-5.6,1.2-8.4c0.5-2.8,1-5.6,1.5-8.3c0.1-0.6,0-1.2,0.1-1.8c1.4-4.9,3.1-9.7,4.4-14.5c0.9-3.2,1.3-6.6,2.1-10.8
	c-8.2,3.4-15.4,6.5-22.2,9.3c1.1,3.8,2.2,7.1,3,10.5c1.2,4.9-1.3,8.5-5.1,11c-6.4,4.2-13,7.9-19.5,11.8c-0.4,0.2-0.8,0.6-1.2,0.6
	c-5.1-1-9.6,1.4-14.3,2.3c-0.7,0.1-1.6,0-2.1-0.4c-3.2-2.5-7.2-3.9-9.2-7.7c-0.3-0.5-0.6-1.1-1-1.4c-4.2-3.2-8.7-6.3-12.7-9.7
	c-2.2-1.9-3.8-4.4-5.6-6.8c-1.8-2.4-3.4-4.8-5.2-7.2c-3.9-5.4-8.2-10.6-11.6-16.4c-2.1-3.6-3.1-7.6-0.6-12.2c2.1-3.8,4.6-7.3,7-10.8
	c3.3-4.8,6.6-9.5,10.6-13.8c0.6-0.6,1-1.5,1.4-2.3c2-3.8,5.9-5.4,9.1-2.9c2.9,2.3,5.7,2.9,9.2,2.7c1,3.3,3.6,4.3,6.4,5.7
	c2.9,1.4,5.5,4.2,7.2,7c2.9,4.8,6.2,9.2,9.9,13.3c2.5,2.8,4.8,5.8,7.3,8.6c0.5,0.6,1.6,1.5,2,1.3c0.8-0.3,1.5-1.2,1.9-2.1
	c1.9-4.8,4.3-9.1,8.2-12.7c1.1-1,1.8-2.7,2.4-4.2c0.9-2.1,1.6-4.2,2.2-6.3c1.7-5.7,5-10.8,5.6-16.9c0.1-1.7,1.2-3.4,1.5-5.1
	c0.8-4.2,1.9-8.4,0.4-12.8c-0.2-0.5-0.3-1.2-0.1-1.7c1.1-3-0.7-4.9-2.6-6.5c-7.6-6.7-14.1-14.4-18.9-23.1c-2.8-5.1-3.7-11.3-5.2-17
	c-0.9-3.4-1.4-7-1.8-10.5c-0.7-6.4,0.7-12.8,1-19.2c0.3-5.1,0.7-10.1,3.5-14.5c-1.4-4,2-6.6,2.7-9.9c0.8-3.5,1.2-7.1,1.6-10.6
	c0.4-3.6,0.6-7.2,0.7-10.8c0.2-5.4,0.4-10.7,0.4-16.1c0-3.1-0.7-6.3-0.4-9.3c0.5-5.2,1.6-10.3,2.4-15.4c0.1-0.7,0.5-1.4,0.7-2.1
	c1.1-5.9-0.3-8.1-6.1-9.7c-4.4-1.2-5.4-2.7-4.3-6.5c1.1-3.5,4.2-5.2,7.7-4.2c1.5,0.4,3,0.5,5.1,0.8c-0.7-3.3-0.4-5.9-2.5-8.1
	c-1.2-1.2-0.8-2.9,0.3-4.1c0.9-1,2.1-1.7,2.9-2.4c4.8,0.4,5.9,3.9,7.3,7.2c0.7,1.9,1.7,3.7,2.7,6c3.2-2.5,5.7-4.5,8.3-6.5
	c0.7-0.5,1.5-1.4,2.2-1.3c1.4,0.1,3.2,0.3,4,1.2c0.8,0.9,0.9,2.8,0.6,4.1c-0.9,2.9-3.1,5.1-5.2,7.2c-1,1-1.9,2.1-3.3,3.7
	c2.4,1.3,4.4,2.2,6.3,3.3c2.2,1.3,4.5,2.5,6.5,4c3.7,2.8,7.2,5.8,10.9,8.8c0.2,0.2,0.5,0.5,0.7,0.5c4,0.5,7.2,2.8,10.5,4.9
	c0.5,0.3,1.5,0.2,2.1,0c2.3-0.7,4.6-1.5,6.7-2.4c2.4-1.1,4.8-2.1,7.6-2.1c2.6,0,5.2-1,7.7-1.7c12.6-3.4,25.4-5.1,38.3-6.8
	c2.7-0.4,4.4-1.5,5.5-3.9c0.6-1.3,1.3-3,2.5-3.7c3.4-2,5.1-5.5,7.2-8.4c2-2.8,4.4-5.1,6.8-7.6c2.1-2.2,3.8-4.5,4.9-7.4
	c0.7-1.9,2-3.6,3.3-5.3c2-2.5,4.4-4.9,6.4-7.4c0.7-0.8,1.3-2.2,1.1-3.1c-0.4-2.6-1.3-5.1-2.2-8.3c0.3-0.7,0.8-2.1,1.4-3.8
	c1.1-0.3,2.4-0.7,3.7-0.8c2.2-0.2,4.2,0.1,4.8,2.9c0.2,1,1.2,1.8,1.8,2.8c3.7-3,4.9-6.7,6.1-10.6c0.8-2.7,2.1-5.3,3.6-7.6
	c0.8-1.3,2.5-2.4,4.3-1.5c1.7,0.8,3,2.2,2.8,4.2c-0.2,1.6-0.6,3.2-1.1,4.7c-0.9,2.8-2,5.5-3.3,9.4c2.4-0.6,3.7-1.1,5.1-1.3
	c1.4-0.2,3-0.4,4.4-0.1c2.1,0.5,3.3,2.7,2.1,4.5c-2,3.3-4.2,6.5-6.9,9.3c-1.5,1.5-2.2,2.6-1.8,4.6c0.6,3.5,2.2,6.9,0.7,10.6
	c2.6,3.8,0.5,8.5,2.3,12.5c0.4,0.9,0.3,2,0.5,3c0.1,1,0,2.2,0.3,3.1c2.6,6,1.5,12.4,2.3,18.5c0.8,5.9,2.3,11.7,4.5,17.3
	c0.2,0.6,0.7,1.1,0.8,1.6c0.2,5.1,3.6,8.8,5.6,13c0.6,1.3,1.3,2.7,2.4,3.8c3.8,3.9,4.7,8.9,5.7,13.8c0.3,1.5,0.3,3.1,0.9,4.3
	c2.7,5.2,3.4,10.7,3.3,16.5c-0.1,8.2-1.8,15.9-5.1,23.4c-1,2.3-1,5-1.6,7.4c-1.1,4.5-3,8.8-3.5,13.3c-0.4,4.1-1.3,7.8-3.1,11.5
	c-0.9,1.9-0.9,4.2-1.4,6.8c4.3,3.3,7.3,8.9,13.5,10.6c2.2-1.5,3-4,3.2-6.3c0.5-4,1.7-7.6,3.3-11.4c2.4-5.7,5.1-11.2,8.4-16.4
	c3.4-5.5,7.9-10.1,12.9-14.2c0.5-0.4,1.1-0.7,1.3-1.2c2.6-5.6,8-8.1,12.3-11.7c5.9-5,11.5-10.4,18.6-13.5c2.4-1,5-1.8,7.4-2.8
	c3-1.2,6-2.5,9-3.9c2.7-1.3,5.3-2.7,7.8-4.2c0.8-0.5,1.6-1.4,2-2.3c2-5.3,4.1-10.6,5.8-16c0.7-2.2,0.8-4.7,0.8-7.1
	c0-4.9,0-9.9-0.4-14.8c-0.3-2.9-1.4-5.7-2.1-8.6c-1-4-2.4-7.6-4.7-11.1c-1.4-2.1-2.2-4.6-2.8-7.1c-1.4-5.6-2.6-11.4-3.9-17
	c-0.2-1-0.6-2.2-1.2-2.9c-5.4-5.5-8.1-12.1-8.7-19.8c0-0.6-0.3-1.2-0.6-1.7c-3.1-4.9-5.1-10.3-7.2-15.7c-2.4-6.1-5.3-12.1-7.5-18.2
	c-1.3-3.5-2.7-7.4-2.1-10.8c0.7-4-0.3-7.9,0.1-11.8c0.4-4.1,0.3-8.4,1.2-12.4c1.3-5.8,1.8-11.7,2.3-17.6c0-0.1-0.1-0.4-0.1-0.4
	c3.7-3.3,2.6-7.2,1.6-11.3c-0.3-1.1,0.4-2.7,1.1-3.8c2.2-3.3,3.1-7,4-10.7c0.9-4,1.3-8.3,3.6-11.9c0.2-0.2,0.3-0.6,0.2-0.9
	c-0.9-7.8,2.5-15,3.2-22.6c0.4-4.6,2.7-9.1,3.9-13.6c1.1-4,2.4-7.9,2.9-12.1c0.5-3.9,1.7-7.8,2.5-11.7c1.3-6.3,4.5-12.2,3.6-18.9
	c-0.2-1.2,0.5-2.7,1.1-3.8c1.5-2.6,0.8-4.6-1.2-6.4c-1-0.9-2.1-1.6-3.2-2.4c-2.6-1.8-3.5-4.2-2.6-6.5c1-2.5,4.3-4.4,6.9-3.9
	c1.3,0.2,2.5,0.7,3.9,1.1c1.8-3.2,1.8-6.2-0.1-9c1.6-2.8,2.7-6,6.8-6.1c4,4.3,3.6,10.3,4.6,15.8c5.5-1.4,8.3-8,14.9-6.1
	c-0.6,1.4-1.1,2.5-1.7,3.8c0.9,0.6,1.7,1.2,2.9,2c-4.5,4.7-9.4,8.1-12.9,13c7.6,4.6,13.8,10.2,20.4,15.2c3.8,2.8,7.2,6.2,11.6,8.4
	c3.4,1.7,5.8,5.4,9,7.9c3.2,2.5,6.8,4.6,10.3,6.7c0.6,0.4,1.8,0,2.6-0.2c5.5-1.7,11-3.7,16.6-5.2c3.7-1,7.6-1.1,11.3-2.1
	c5-1.4,10.4,0.3,15.1-2.7c0.4-0.3,1.1-0.3,1.7-0.2c5.1,0.2,10-0.7,15.1-1.8c4.1-0.8,8.5-0.5,12.8-0.4c8.6,0.2,17.3,0.3,25.9,0.9
	c4.3,0.3,8.6-1.4,13.1,0.2c1.3,0.5,3.4-0.8,4.9-1.7c3.2-1.9,6.2-4.1,9.3-6.2c2.7-1.8,5.5-3.5,8.3-5.3c6.5-4.2,12.8-8.5,18.6-13.6
	c1.1-1,2.5-1.6,3.8-2.4c2.2-1.4,2.9-3.2,2.5-5.6c-0.3-1.6-0.3-3.3-0.5-4.9c-0.3-2.8-1-5.6-0.9-8.4c0-2.6,0.5-5.3,1.1-7.9
	c0.3-1.3,4.2-2.7,5.9-2.3c2.4,0.6,3.5,2.3,3.8,4.5c0.2,2.2,0.6,4.3,2.2,6.4c1.9-3.1,4.5-5.8,5.3-8.9c1-3.7,3.3-3.7,6-3.7
	c3.8,4.3,3,8.6-0.5,13c4.5,1.5,8.7-3.1,12.5,0.9c-1.1,1.9-2.2,3.8-3.5,5.9c0.7,0.4,1.4,0.8,2.1,1.2c-4,3.7-8,7.3-12,11
	c0.8,5.4,1.7,10.8,2.4,16.3c1,7.1,1.8,14.3,2.7,21.4c1,7.7,2.1,15.3,3.1,23c0.3,2-0.1,4.2,0.3,6.2c0.7,3.2,1.8,6.3,3,9.4
	c0.5,1.2,2.2,1.9,2.9,3.2c2.2,3.7,4.3,7.5,6.1,11.4c0.8,1.8,0.7,4.1,1,6.1c1.7,8.8,2.5,17.7,2.2,26.7c-0.2,6.9-0.3,13.8-0.9,20.6
	c-0.4,4.1-2,8.1-2.9,12.1c-1,4.8-1.9,9.6-2.8,14.4c-0.2,1.4-0.1,2.9-0.2,4.3c-0.6,5.6-0.3,11.1,0.4,16.6c1.3,9.5,2.6,19,3.8,28.5
	c0.3,2.5-0.2,5.1-0.4,7.6c0,0.4-0.3,0.9-0.1,1.3c1.4,5.1-0.6,10.1-0.1,15.2s0.5,10.2,1.5,15.2c1.2,5.7,3.1,11.2,7.6,15.5
	c1.5,1.4,2.5,3.3,3.7,5c3,4.5,6.9,6.5,12.6,7.3c7.9,1.1,15.6-1.5,23.3-0.1c6.3,1.1,12.6,2.6,18.8,4.1c3.9,0.9,7.7,2.5,11.7,3
	c5.5,0.6,10.3,3,15.3,4.8c0.6,0.2,1.1,0.6,1.6,0.7c4.2,1.3,7.3,3.9,9.7,7.5c1.1,1.7,2.9,2.9,4.5,4.2c2.1,1.8,5,3,4.5,6.7
	c-0.1,0.5,0.4,1.1,0.8,1.6c2.7,3.5,4.7,7.4,7.8,10.6c1.4,1.5,2.5,3.3,3.5,5.1c1.4,2.6,3,5,5.7,7.2c1.4-2.6,3-4.7,3.8-7
	c1.6-4.8,4.6-8.6,7.1-12.8c3.2-5.4,5.8-11.1,8.3-16.8c0.6-1.4,1-2.5,2.5-3.3c1.5-0.8,2.8-2.2,4-3.5c5.5-5.9,11.1-11.6,16.3-17.7
	c4.4-5,8.4-10.3,12.4-15.6c2.2-2.9,3.7-6.3,5.6-9.5c0.7-1.1,1.6-2.1,2.4-3.3c2.4-3.7,4.8-7.5,7.3-11.2c0.5-0.7,1-1.5,1.6-2.1
	c5.6-5.3,5.3-11.9,4.4-18.8c-0.5-4.1-2.6-8-1.6-12.3c0.5-1.9,1-3.5,3.1-3.8c2.3-0.4,4.7-0.5,5.8,2.1c1.5,3.4,2.8,6.9,4,10.4
	c0.6,1.6,0.7,3.6,3.5,3.6c0.9-1.8,2.3-3.6,2.6-5.5c0.5-3.3,3.1-4.9,5.1-6.9c1.9-2,6.5,0.7,6.9,4c0.1,1.1-0.3,2.3-0.5,3.9
	c4.2-0.3,8.7-1.9,12.3,2.3c-0.8,2.7-1.5,5.6-2.6,8.3c-0.5,1.2-1.8,2.4-3,3.1c-2.2,1.3-4.5,2.3-6.8,3.4c-1.2,0.6-2.4,1.1-3.7,1.8
	c0.6,3.1,0.6,5.9,3.1,8c0.5,0.4,0.9,1.3,1,2c1.8,7.6,6.7,13.7,10.1,20.5c0.5,1.1,1.1,2.6,1.9,2.9c3.7,1.1,6.1,4.7,10.3,4.9
	c1.1,0,2.2,0.7,3.3,1.1c3,1,5.9,2.5,8.9,2.8c2.4,0.3,4.9-0.8,7.3-1.5c4.4-1.3,8.8-2.6,13.2-4.2c3-1.1,5.9-2.6,8.9-3.8
	c5.3-2.1,9.7-5.8,15.6-6.8c2.3-0.4,4.6-2.2,7.2-2.8c1.5-0.4,2.9-1.9,3.1-4c0.2-2.5,1-5,1.7-7.4c1-3.7,3.3-4.9,6.8-3.7
	c1.8,0.6,2.8,1.3,2.6,3.5c-0.2,1.7,0.4,3.5,0.7,5.9c3.6-2.3,7.1-3.9,9.7-6.4c1.6-1.6,3.2-2,5-2.4c2.6-0.7,3.6,0.1,3.9,2.7
	c0.2,2.4-0.3,4.5-2,6.2c-1.1,1.2-2.2,2.5-3.3,3.7c-1,1.1-1.9,2.2-3.2,3.6c0.7,0.4,1.1,0.7,1.6,1c3,2.4,3.3,5.2,0.7,7.9
	c-1.8,2-3.4,4.2-5.5,5.9c-1.9,1.6-4.2,2.6-7.2,4.4c-0.2,3-0.4,7.1-0.7,11.3c-0.2,2.8-0.5,5.6-0.8,8.4c-0.6,5.5-1.3,11-1.9,16.4
	c-0.3,2.7-0.9,5.3-1.2,8c-0.5,5-1.3,10.1-0.9,15.1c0.3,3.1,0.7,6.1,0.7,9.3c-0.1,7.3,0.5,14.7,0.7,22c0.3,6.5-1.5,12.6-3.1,18.7
	c-1.4,5.3-4.2,9.8-7.2,14.3c-1.3,1.9-2,3.9-1.8,6.3c0.2,3.4-1.2,6.7,0.1,10.2c2.6,6.7,4.9,13.5,8.8,19.6c2.5,4,4.2,8.6,6.2,13
	c3.1,7,5.7,14.1,9.1,20.9c2,4,4.6,7.7,5.8,12c1.1,3.6,2,7.2,2.6,10.9c0.2,1-0.5,2.4-1.2,3.2c-3.2,3.7-7.1,6.5-12,7.5
	c-5.7,1.3-11.4,2.4-17.1,3.4c-2.6,0.5-5.3,0.4-8,0.5c-3.3,0.2-6.6,0.4-10.4,0.7c-0.6,3.9-1.1,7.7-1.9,11.4c-0.6,2.9-1.4,5.7-2.1,8.6
	c-1.8,7.3-4.2,14.3-9.2,20.2c-2.1,2.5-3.6,5.5-5.9,7.9c-5.2,5.5-11.4,9.8-18.5,12.6c-0.8,0.3-1.9,0.7-2.1,1.3c-1,2.7-3.4,2.8-5.6,3
	c-2.7,0.2-5.4,0-8.1,0c-2.5,0.1-5.1-0.2-7,2c-4.6-3.6-9.5-3-14.6-1.6c-1.3,0.3-2.6,0.7-3.9,0.5c-4.2-0.6-8.2,0.3-12.2,0.9
	c-2.7,0.4-5.8,0.5-8.4-0.4c-2.8-0.9-5.3-0.6-8-0.4c-3,0.1-6-0.4-8.9-0.8c-2.1-0.3-4.2-1-6.8-1.7c0.5,2.4,0.7,4.5,1.3,6.4
	c2.2,6.5,4.7,12.9,7,19.4c0.4,1.1,0.7,2.3,0.9,3.5c1.4,8.1,5.1,15.4,8.5,22.7c1.5,3.2,3.4,6.2,4.1,9.8c0.2,1,1.1,2.2,2,2.7
	c2.8,1.6,5.8,3,9,4.6c0.3-0.7,0.8-1.4,1-2.2c1.5-5.8,3.1-11.5,4.3-17.3c0.7-3.7,0.7-7.5,1.1-11.2c0.3-2,0.6-4.1,1.3-6
	c0.9-2.5,3.3-3.4,6-2.8c2.5,0.5,2.8,2.6,2.8,4.6c-0.1,3.3-0.8,6.5-0.9,9.8c-0.1,5.8,0.1,11.6,0.1,17.4c0,1.6,0.8,2.5,2.8,2.7
	c2.6-7.7,3.8-15.9,7.6-23.1c1-0.1,1.9-0.2,2.7-0.2c4.4,0.1,6.5,3,5.1,7.1c-2.1,6.3-4.1,12.6-6.1,18.9c-0.4,1.2-0.4,2.5-0.7,4.4
	c1.7-0.6,2.7-1,3.8-1.4c3.7-1.2,6.3,0.9,5.9,4.8c-0.2,1.5-0.4,3-0.9,4.4c-1,2.3-0.3,4.4,0.3,6.6c0.5,1.8,1.6,3.2,3.3,3.3
	c3.4,0.2,6.2,2.1,9.3,3.2c1.9,0.7,3.9,1.2,5.7,1.8c0.1,2.7-2.2,2.5-3.4,3.8c0.6,1.8,1.2,3.6,1.8,5.6c-5.2,2-9.4,0.2-13.4-1.6
	c-2.9-1.3-5.7-2.2-9-2.1c-2.3,0.1-4.7-0.5-6.8-1.4c-3.8-1.6-7.5-3.6-11.3-5.3c-0.9-0.4-2-0.7-3-1c-3.4-0.9-7.1-1.3-10.2-2.9
	c-3.2-1.6-6.2-4.1-8.8-6.6c-7.1-6.9-12.6-15-18-23.3c-2.1-3.2-4-6.6-6.1-9.9c-0.6-1-1.6-1.8-2.3-2.7c-0.9-1.1-1.7-2.3-2.5-3.5
	c-1.7-2.4-3.5-4.7-5.2-7.2c-1.2-1.8-2.2-3.8-3.3-5.8c-0.9-1.6-1.6-3.2-2.6-4.7c-2.4-3.8-4.2-7.9-4.6-12.5c-0.2-2.2-0.6-4.5-1-6.7
	c-0.2-0.8-0.7-2.2-1.2-2.3c-4-0.4-3.2-4-3.8-6.2c-1.1-4-1.4-8.3-2-12.5c-1-0.6-2-1.1-3.2-1.8c-0.3,0.3-0.6,0.6-0.8,1
	c-1.8,2.9-3,6.2-6.1,8.2c-0.6,0.4-1,1.8-0.9,2.7c0.9,5,1.1,10.2,3.9,14.9c2,3.4,3.1,7.4,4.6,11.1c0.3,0.7,0.7,1.4,0.9,2
	c2.6,6.2,5.1,12.4,7.7,18.5c1.2,2.7,2.6,5.3,3.9,7.9c1.1,2.1,2.3,4.1,3.3,6.2c1.8,4.1,5.6,6.6,7.7,10.3c2.5,4.5,6.8,7.3,9.9,11.2
	c2.9,3.7,7,6.4,10.4,9.7c2.7,2.5,5.1,5.3,7.9,7.6c1.8,1.5,4.3,2,6.1,3.5c4.5,3.5,9.4,6.6,13.3,11.1c3.3,3.8,7.6,6.7,11.2,10.3
	c3.2,3.2,5.8,7,9.8,9.5c2.3,1.4,4.4,2.9,6.8,4.5c-1.1,0.9-2.1,1.8-3.3,2.7c-1.1,0.9-2.1,0.9-3.6,0.7c-4.5-0.6-9.1-0.5-13.6-0.9
	c-2.5-0.2-4.9-1-7.9-1.7c-0.2,2.6-0.1,5.3-0.7,7.8c-1,4.4-1.5,8.7-1.6,13.2c0,1.4-2.7,2.8-4.2,4.3c-3.6-2.8-0.8-6.8-3.2-9.6
	c-2.3,0.5-3.8-1.5-5.6-2.8c-1.9-1.4-3.1-3.1-3.2-5.6c-0.1-1.6-1-3.1-1.6-4.9c-2.5,0.6-4.2-0.2-5.5-2.4c-1.5-2.6-2.8-2.5-6-0.2
	c1.1,2.2,2.3,4.5,0.3,7c-0.3,0.4-0.1,1.2,0,1.7c1.1,6.3,2.4,12.6,3.4,18.9c1.4,9.1,5.1,17.5,8.3,26c1.3,3.4,4.3,6.1,6.5,9.2
	c0.7,1,1.1,2.2,2.1,4.2c-3.2-0.8-4.6,0.1-5.8,2.2c-1.7,2.9-3,2.8-5.4,0.4c-2.2-2.3-4.6-4.3-5.4-7.6c-0.2-0.7-0.8-1.3-1.3-1.8
	c-5.4-4.4-8.4-10.5-11-16.7c-1.2-3-3.8-5.5-3.3-9.2c0.1-0.4-0.3-1-0.6-1.1c-3.5-1.3-3.6-4.9-4.9-7.7c-3.4-6.9-6.8-13.9-10.1-20.9
	c-2.1-4.3-4-8.7-6.3-12.8c-4.5-7.9-6.4-16.7-8.8-25.3c-3.4-12.1-6.5-24.3-9.8-36.6c-2,2.4-2.7,5.7-1.6,7.8
	c2.7,5.2,1.9,10.9,3.1,16.3c1.4,5.9,2.3,12,3.3,18c0.3,1.9,0.2,3.8,0.3,5.7c0,0.6-0.1,1.4,0.2,1.7c2.1,2.4,1.6,5.3,1.6,8.1
	c0,1.4,0.5,2.9,1.1,4.3c1.6,3.7,3.7,7.2,5,10.9c2.5,7.2,4.5,14.6,6.8,21.8c0.4,1.1,1.2,2.1,1.6,3.2c0.6,1.5,1.1,3,1.7,4.5
	c1.4,3.4,2.8,6.9,4.2,10.3c2.3,5.8,6.9,9.7,11.4,13.7c1.2,1,2.7,1.7,4.1,2.6c-0.7,2.9-1.5,3.4-4,2.5c-2-0.8-4-1.6-6.8-2.7
	c3.5,8.8,8.3,15.7,12.8,23.1c-0.7,1.5-2.3,2.5-2.1,4.9c0.3,2.8-5,5.1-7.1,3c-1.6-1.5-5.2-1.7-4.4-5.2c0-0.1-0.8-0.2-1.1-0.4
	c-1.8-1.2-3.3-2.4-3.4-4.9c0-1-0.6-2-1.1-2.9c-2-3.7-4.1-7.3-6-11c-0.8-1.5-1.2-3.2-1.9-5.1c-0.4,0.3-0.9,0.8-1.4,1.3
	c-5.4-4.5-10.7-9-16.8-14.1c-0.3,2.6-0.6,4.5-0.8,6.5c-0.2,3.7-0.2,3.7-3.6,5.4c-0.5,0.2-0.6,1-1.4,2.4c-1.3-2.8-2.1-4.6-3.1-6.8
	c-1.3,0.3-2.7,0.6-4,0.9c-5.1-2-5.7-8.1-10.6-11.7c-1.2,7.4-2.4,14-3.3,20.6c-1,7.2-3.1,14-5.8,20.7c-0.2,0.4-0.4,1.1-0.7,1.1
	c-3,0.3-4,2.9-5.6,4.9c-3.9-4.2-4.4-6.6-2.3-10.7c0.2-0.4,0.4-1,0.3-1.5c-0.4-1.7-1-3.4-1.5-4.9c-1.5,0.9-2.9,1.8-4.6,2.8
	c-1.1-2.6-0.8-4.4-0.5-6.7c0.7-4.5,2.4-9,1.2-13.7c-1-3.8-1.8-7.6-2.6-11.4c-0.7-3.1-1.1-6.2-1.8-9.2c-0.6-2.5-0.8-4.9-1.7-7.4
	c-1.6-4.2-1.6-9-2.3-13.6c-0.1-1,0-2.1-0.2-3.1c-2.7-13.5-4.3-27.1-5.7-40.8c-0.4-3.4-0.4-7-1.1-10.1c-1.2-4.7-0.9-9.5-1.8-14.1
	c-0.4-2.3,0.1-3.8,1.9-5.1c4,0.9,4.7,1.2,4.8,5c0.1,6.2,1.9,12,2.7,18.1c0.5,3.4,0.4,6.8,0.7,10.2c0.1,1,0.6,2,0.9,3.1
	c0.3-0.1,0.6-0.1,0.9-0.2c-0.6-7.9-1.7-15.9-1.6-23.8c0-7-1.6-13.8-0.6-20.9c0.5-3.5-0.8-7.3-1.4-10.9c-0.5-2.7-0.7-5.4,0.9-7.8
	c0.6-0.8,1.9-1.5,2.9-1.5c0.7,0,1.8,1.2,2,2c0.6,2.4,1,4.9,1.3,7.5c0.3,2.7,0.3,5.3,0.5,8c0,0.4,0.2,1,0,1.3
	c-2.6,3.3-0.7,7.2-1.4,10.7c-0.5,2.5-0.1,5.2,0.6,7.9c1.3,5.5,1.8,11.1,2.6,16.7c0.6,4.7-0.1,9.4,0.6,14.2c0.5,3.7,0.6,7.6,1.2,11.3
	c0.2,1,0.3,2.5-0.3,3c-2.6,2.3-1,4.6-0.5,7.2c0.8-0.2,1.3-0.3,1.9-0.4c4.9-0.6,5.7-0.1,8,4.1c2,3.6,3.2,7.7,7.6,10.5
	c0.1-1.7,0.2-2.9,0.3-4.1c0.3-2.2,0.7-4.4,1-6.7c0.1-1.2,0.5-2.5,0.1-3.6c-1.2-3.1-1.9-6.2-2.3-9.5c-0.4-3.1-2.5-5.9-3.8-8.9
	c-0.4-0.9-0.9-1.8-1.1-2.7c-0.9-4.4-1.7-8.8-2.5-13.2c-0.1-0.4-0.2-0.9-0.2-1.3c0.6-7.5-1.4-14.8-1.8-22.2c-0.2-3.3-0.2-6.5-1.2-9.8
	c-0.8-2.5-1.2-5.4-0.8-8.3c0.3-2.6-0.6-5.7-1.7-8.2c-1.7-3.8-1.6-7.5-1.2-11.4c0.1-1-0.2-2-0.4-3.6c-4.7,3.4-8.9,6.6-13.3,9.5
	c-9.4,6.1-10.1,16.1-11.7,25.6c-0.6,3.5,1,7.3,0.2,10.7c-1.1,4.3,2.3,7.9,1.1,12.1c-1.3-0.5-2.5-0.9-4.4-1.6
	c0.9,5.5,2.4,10.5,2.3,15.4c-0.2,6.1,2.4,11.9,0.7,18.1c-0.7,2.3-0.3,5.1,0,7.6c0.7,5.7,1.6,11.4,2,17.2c0.2,4.1,2.8,8.1,4.7,11.9
	c2.9,5.8,2.7,12.2,3.6,18.4c0.4,2.5,0.5,5,0.4,7.5c-0.3,5.9-0.7,11.8-1.1,17.7c-0.1,1.2-0.1,2.3-0.2,3.3c-3.1,1.5-5.9,2.8-9.3,4.5
	c-1.1-0.4-2-1.3-1.3-3.4c0.5-1.5,0.1-3.3,0.7-4.8c2.1-5.3-0.3-10.7,0.4-15.9c-2.7-6.4-1.7-13.9-5.7-20.1c-1.2-1.8-1.3-4.3-1.9-6.5
	c-2.3-1.6-4.6-3.4-6.9-5c-2.4,9.8-4.7,19.2-6.9,28.6c-1.5,6.1-5.1,11.2-8.3,16.4c-2.3,3.7-4.8,7.2-7.1,10.8
	c-2.1,3.3-4.3,6.5-7.7,8.6c-1.2,0.7-2.1,2.1-2.9,3.3c-3,4.6-6.5,8.4-11.7,10.8c-3.9,1.8-7.3,4.8-11.1,6.9c-4.7,2.5-9.4,5.1-15.1,4.3
	c-1-0.1-2.1,0.2-3.1,0.5c-3.4,1.1-6.8,1.5-10.5,1.4c-9-0.1-17.9,0.5-26.9,0.9c-5.5,0.2-10.9,1.2-16.4-0.3c-2.5-0.7-5.3-0.9-7.9-0.8
	c-4.5,0.1-8.4-2.1-12.5-3.3c-3.8-1.1-7.7-1-11.7-0.8c-3.3,0.2-6.9-0.2-10-1.3c-4-1.5-7.8-3.5-11.8-5c-5.8-2.2-11.1-6.1-14.8-11.4
	c-3.3-4.8-7.3-9.1-11.2-13.5c-1.3-1.4-2.2-3.2-2.9-5c-1.7-3.8-3.2-7.6-4.9-11.8c-2.1,0.5-4,0.5-5.5,1.3c-8.5,4.5-17.5,7.5-26.6,10.2
	c-4.7,1.4-9.5,2.7-14.3,3.7c-4.9,1-8.2-2.5-7.7-7.5c0.5-4.8,1.1-9.5,2.6-14c1-2.9,2.4-6,4.3-8.3c3.8-4.6,5.2-10.4,8.6-15.2
	c4.3-6.2,6.2-13.7,11.2-19.6c2.8-3.3,4.1-7.7,6.1-11.6c0.4-0.8,1-1.5,1.5-2.2c3.1-3.7,6.6-7.1,9.2-11c2.5-3.8,5.3-7.4,5.7-12.4
	c0.2-3,1.2-6.3,2.9-8.8c3.3-4.9,3.1-10.5,4.2-15.9c0.4-1.7,0.4-3.5,0.6-5.5c-3.7-3.2-8.4-0.1-12.5-2.1c-0.9,1.7-1.9,3-2.4,4.5
	c-2.1,5.8-4.7,11.5-5.1,17.9c-0.1,2.1-1.6,4.2-2.4,6.3c-1.4,3.6-2.8,7.2-4.1,10.9c-0.6,1.7-0.6,3.7-1.1,5.5
	c-1.3,4.1-2.9,8.2-4.2,12.3c-1.7,5.1-3.3,10.3-5,15.4c-0.1,0.4-0.5,0.6-0.9,1c-1.1-3.1-1.3-4,0.2-8.9c1.1-3.6,1.7-7.2,2-11
	c0.1-1.9,0.9-3.8,1.6-5.6c2.9-8.8,5.5-17.6,7.4-26.6c1-4.4,1.8-8.7,2.4-13.1c0.2-1.4,1.1-2.7,2-3.9c2.5-3.7,1.8-5.4-2.4-6.3
	c-2-0.4-3.9-1.1-6.1-1.8c-0.8,5.8-3.3,10.8-6.4,16.3c1.3,1.9,1.4,4.6,0.8,7.5c-0.7,3.1-0.8,6.2-1.3,9.4c-0.2,1.2-0.3,2.6-1.1,3.4
	c-1.9,1.8-1.8,4.1-2.2,6.2c-1.2,6.1-2.1,12.3-3.1,18.5c-0.6,3.7-1.3,7.3-2,11c-0.1,0.3-0.1,0.7-0.2,0.9c-3.6,3.4-2.3,8.1-3.3,12.1
	c-0.3,1-0.7,1.9-1,2.9c-0.5,1.8-1.5,3.7-1.5,5.5c0.3,5.7-1,11-2.5,16.7c-1-0.4-1.9-0.8-3-1.3c2.3-4.3,2.1-8.8,1.9-13.3
	c-0.1-2.5,0.2-5.2,1-7.5c2.7-7.8,2.6-16.1,4.3-24c0.6-3,1.7-6,2.6-9c0-2-0.6-4.3,0-6.1c1.6-4.3,1.9-8.6,2.5-13.1
	c0.6-4.7,2-9.3,2.9-14c0.4-1.8,0.3-3.6,0.7-5.3c0.8-4.2,1.8-8.5,2.7-12.7c1.1-5.3,0-7-5.3-8.9c-0.8-0.3-1.4-1.1-2.2-1.4
	c-1.7-0.7-3.4-1.4-5.9-2.4c0.3,2.4,0.5,3.8,0.8,5.3c0.4,2.6,0.9,5.3,1.3,7.9c0.1,0.8,0,2.1-0.5,2.6c-3.4,3.2-2,7.1-1.9,10.9
	c0,0.6,0.3,1.3,0.1,1.7c-2.4,4.1-2,9.1-4.3,13.4c-1.5,2.8-1.6,6.7-1.4,10c0.3,5.1-2,9.6-2.5,14.5c-0.5,5.2-1.6,10.3-2.4,15.5
	c-0.1,0.9,0,2-0.5,2.6c-1.9,2.7-1.3,5.4,0.1,8.2c0.7-0.5,1.4-1,2.1-1.6c1.2,0.5,2.5,0.9,3.9,1.4c-0.3,5.2-1.9,9.9-3.7,14.7
	c-1.7,4.6-4,8.9-4.5,13.9c-0.2,1.6-1.2,3-1.7,4.6c-0.9,2.8-1.9,5.6-2.6,8.5c-0.4,1.6-0.6,3.2-2.3,3.5c-2.6,0.5-3,2.6-3.9,4.5
	c-0.8,1.7-0.8,3.9-3.3,4.8c-0.3-0.8-0.5-1.5-0.9-2.7c-0.8,1.6-1.5,2.9-2.1,4.2c-4.5-1.1-6.3-3.3-4.5-6.4c2.1-3.8,1.6-8.1,3.1-12
	c1.3-3.4,1.5-7.3,2-11c1-6.8,1.9-13.6,2.7-20.3c0.2-1.6,0-3.2-0.3-4.8c-0.2-1.4-0.8-2.8-1.2-4.2c-0.3,0-0.8,0-0.8,0
	c-1,5.1-3.5,10.2-1,15.6c0.5,1-0.3,2.6-0.4,3.6c-0.9,0.4-1.2,0.6-1.5,0.6c-7.5-0.8-5.5-0.7-7.2-6.8c-0.2-0.7,0-1.5-0.1-2.2
	c-0.5-3.2-1.7-3.7-4.5-1.8c-0.4,0.2-0.7,0.4-1.3,0.8c-1.4-1.3-2.8-2.7-4.5-4.3c-0.9,2.1-1.7,4.1-2.6,6c-0.9,1.8-2,3.4-4.4,3.1
	c-2.5-0.4-3.4-2.3-3.9-4.4c-0.7-2.6-0.3-5,1.8-6.9c1.6-1.4,1.8-3,0.9-4.8c-3.3,1.6-9.2,7.1-12,9.5c-5.9,5.1-9.1,12.1-13.8,18.1
	c-4.4,5.7-7.6,12.4-10.1,19.4c-1.3,3.7-2.7,7.3-3.9,10.9c-0.4,1.2-0.3,2.7-0.5,4c-0.3,1.9-0.3,4.2-2.5,5c-2.3,0.8-3.9-0.8-5.2-2.5
	c-0.3-0.4-0.6-0.7-1.3-1.4c-1.8,2.1-3.4,4.1-5.2,6.2c-1.3-0.6-2.3-2-4.3-0.7c-1.4,0.9-3.2-0.5-3.4-2.4c-0.3-2.5-0.2-5.1,1.8-6.7
	c1.7-1.4,1.8-2.9,1.9-4.7c0.2-2.6,1-5.1,2.3-7.5c1.4-2.6,1.6-5.9,2.3-8.9c0.2-1,0.1-2.2,0.6-3c2.7-3.9,3.8-8.3,4.9-12.9
	c0.3-1.1,1-2.1,1.3-2.6c-1.3-1.9-2.3-3.5-3.6-5.4c-1.6,0.2-1.8,2-2.4,3.4c-1.4,3.8-2.7,7.6-4.1,11.4c-0.4,1-1,1.9-1.5,2.8
	c-2.4,4.4-4.8,8.8-7.2,13.2c-0.5,0.9-1.2,1.7-1.8,2.6c1.1,0.8,2.1,1.6,3,2.3c0.6,4.2-3.3,3.8-5.3,5.5c0.4,0.8,0.8,1.5,1.3,2.5
	c-1.3,0.5-2.5,1-3.8,1.4c-2,5.5-4.7,6.8-10.3,5c-0.3-0.1-0.5-0.3-0.8-0.4c-4.5-1.1-4.6-1.5-3.1-5.8c1.4-4.1,2.2-8.3,3.9-12.2
	c2.5-5.5,5.6-10.8,8.4-16.2c1.5-2.9,2.8-6,4.2-8.9c1.4-2.9,4-5.3,3.8-8.9c3.8-3.6,4.2-8.7,6.4-13.1c0.5-1.1,1.1-2.2,1.4-3.3
	c0.9-3.9,1.7-7.9,2.4-11.8c0.3-1.9,0.1-3.5-1.8-4.7c-1.9-1.2-1.9-3.2-1.8-5.2c0.3-5.6,0.7-11.2,0.8-16.8c0-1.8-0.7-3.6-1.3-5.9
	c-3.1,7.1-5.8,13.5-8.8,19.7c-1.9,3.8-2,7.5,0.1,11.3c-1.2,1.5-2.4,3-3.6,4.6c-4.2,0-6.4-2.8-7.7-6.1c-1.1-2.8-2.9-4-5.6-4.4
	c-1.4,3.2-2.7,6.3-4.3,9.3c-0.6,1.2-1.6,2.1-2.6,3c-3,2.7-6.6,2.4-8.9-0.8c-0.4-0.6-0.6-1.8-0.3-2.4c0.3-0.5,1.5-0.9,2.2-0.8
	c4.6,0.4,7.6-1.9,7.8-6.8c0.3-5.7,0.1-11.3,0.1-17.4c-1,0.2-1.9,0.1-2.6,0.5c-3.8,2-8,3.4-11.2,6.6c-0.6,0.6-1.5,1-2.3,1.4
	c-7.3,3.2-14.3,7-21.9,9.4c-9.1,2.9-15.4,8.8-21.4,15.6c-1.1,1.3-2.2,1.1-3.6,0.6c-2.2-0.8-3.6-2.9-2.9-4.5c1-2.3-0.7-5.6,2.6-6.9
	c0.3-0.1,0.6-0.7,0.7-1.1c2.1-6.8,8-8.7,13.8-10.8c1.1-0.4,2.4-0.6,3.4-1.3c4.7-3.1,10-4.7,15.2-6.5c1.4-0.5,2.8-1.2,4-2.1
	c3.5-3,7.7-4.5,11.7-6.6c3.9-2.1,7.5-5,11.4-7.7c-0.5-2.1-1.1-4.2-1.6-6.3c-0.2-1-0.6-2.1-0.4-3c0.4-2.3,0.2-4.2-1-6.4
	c-1.1-2.1-0.8-4.9-1-7.5c-0.3-2.7-0.5-5.3-0.8-7.7c-2.5-1.4-3.8,0.2-4.2,1.7c-2,7.2-8.7,10.9-12.3,16.9c-2,3.3-5.5,5.8-8.3,8.6
	c-0.2,0.2-0.6,0.4-0.6,0.6c-2,5.4-6.9,8.5-10.3,12.9c-2.8,3.6-6.5,6.6-9.9,9.7c-1.2,1.1-2.2,0.4-2.9-1.2c1.2-1.8,1.9-4.1,4.7-4.7
	c0.9-0.2,1.8-1.2,2.2-2.1c4.6-8.3,11.4-15,17.3-22.3c0.2-0.2,0.3-0.5,0.6-1.1c-0.4-0.8-0.9-1.8-1.4-2.9c5.5-1.8,8.5-5.9,11.6-10.1
	c5-6.9,8.1-14.9,12.8-22c2.2-3.3,4.2-6.8,4.7-11.1c0.2-1.9,1.8-3.6,2.8-5.4c2.1-4.1,4.2-8.2,6.2-12.4c1.9-3.9,3.9-7.7,5.5-11.7
	c1.7-4.4,3.9-8.5,4.7-13.3c0.6-3.8,1.7-7.7,4.7-10.5c2.8-2.7,3.8-2.8,7.4-0.8c-0.4,2.7-0.8,5.4-1.2,8.2c-0.2,1.7,0.5,3.6-1.8,4.5
	c-0.6,0.3-0.8,1.5-1.1,2.4c-1.2,3.4-3,6.8-3.4,10.3c-0.5,3.9-2.5,7-3.8,10.5c-0.3,0.8-0.9,1.9-1.5,2.1c-3.7,0.9-3.6,4.5-5,6.9
	c-1.2,2.2-1.7,4.7-2.4,7.1c-0.7,2.4-1.5,4.9-2,7.3c-0.5,2.2-0.8,4.1-3.6,4.5c-0.7,0.1-1.5,0.5-1.9,1c-2.5,3.8-4.8,7.8-7.4,12.1
	c1.6,0.1,2.8-0.1,3.6,0.3c1.1,0.5,2.5,1.3,2.8,2.4c0.4,1.2,0.5,2.1,2,2.4c0.5,0.1,1,1.7,0.9,2.6c-0.3,3.4,0.6,6.1,3.4,8.3
	c1.3,1.1,1.9,3,2.7,4.6c0.7,1.2,1.3,2.4,1.9,3.7c0.4,0,0.8-0.1,1.1-0.1c0.5-1.6,1.2-3.3,1.5-4.9c0.6-3.3,1.2-6.5,1.3-9.8
	c0.2-4.6,0.6-9.1,2.8-13.3c0.3-0.6,0.1-1.4,0.1-2.1c-0.2-3.9,0.6-4.8,5.4-5.7c0,1.7,0,3.4,0,5.3c1.1,0,1.9,0,2.9,0
	c-0.4,5.8-1.8,11.5,1.8,17.1c0.8-0.5,1.8-0.8,2.4-1.5c2.8-3.1,3.8-6.7,3.4-11c-0.4-5.4,1.1-10.6,2.7-15.7c0.1-0.4,0.7-0.9,0.6-1.2
	c-2-4.9,2.3-8.3,2.9-12.6c0.7-4.3,2.3-8.4,3.4-12.6c0.5-2,0.9-4.1,1.2-6.2c0.5-3.5,0.5-3.6,5.3-3.6c-0.2,1.9-0.2,3.7-0.5,5.6
	c-0.6,3.5-0.2,7.3-2.8,10.2c-0.2,0.3-0.3,0.8-0.3,1.2c-0.3,10.1-3.4,19.7-5.7,29.4c-0.6,2.3-2.2,4.5-3.5,7.2
	c0.6,0.7,1.4,1.9,2.5,3.3c4.7-4.1,8.1-8.4,9.5-14.1c0.6-2.3,1.4-4.6,2-6.9c0.9-3,1.6-5.9,4.7-7.9c1.3-0.9,1.7-3.3,2.4-5.1
	c1.2-2.9,2.1-5.9,3.4-8.7c0.3-0.6,1.5-1.2,2.2-1.1c3.2,0.6,6.5,1.1,9.5,2.2c2.4,0.9,1.9,3.7,1.9,5.6c-0.1,2.9-1.2,5.8-1.8,8.7
	c-1.6,7.8-4.7,15-8.5,21.8c2.5,4.1,2.4,8-0.8,11c-2.6,2.5-2.4,5.8-3.4,8.6c-2.3,6.3-4.2,12.8-6.1,19.3c-0.3,1.1-0.2,2.4-0.5,3.5
	c-0.7,3.3-0.9,6.9-3.8,9.3c-0.5,0.4-0.6,1.3-0.6,2c0,3.3,0.1,6.5,0.1,9.8c0,8.2-0.5,16.3-3.5,24.1c-0.2,0.4-0.3,0.9-0.3,1.3
	c0,3.7,0,7.4,0,11c2.2-0.3,3.4-1.5,3.9-4.2c0.2-0.8,0.4-1.6,0.6-2.4c1.5-8,5.3-15.2,8-22.8c1-2.8,2.1-5.6,3.3-8.3
	c2.9-6.7,5.3-13.5,6.5-20.8c0.7-4.2,2.8-8.1,4.4-12.1c0.9-2.4,1.9-4.7,2.8-7.1c0.9-2.5,1.9-5,2.6-7.6c0.7-2.4,0.9-5,1.5-7.4
	c1.6-6.5,3.4-12.9,5-19.4c0.9-3.6,1.7-7.3,2.7-10.9c0.7-2.8,0.8-2.8,4.6-2.9c0.4,5-0.1,9.8-1.6,14.6c-3.5,10.7-6.6,21.4-9.9,32.1
	c-0.1,0.3-0.3,0.6-0.3,0.9c0.2,4.3-1.5,8.1-3.9,11.4c-2.4,3.4-2.6,7.3-3.8,10.9c-0.5,1.5-0.9,3.1-1.4,4.7c-0.5,1.6-1,3.1-1.5,4.7
	c-0.6,1.8-1.2,3.7-1.9,5.5c-0.6,1.7-1.3,3.3-1.9,5c-0.4,1.1-0.6,2.4-1.2,3.4c-3.4,5.1-4.3,11.1-6.2,16.7c-1.1,3.1-2.4,6.1-3.5,9.2
	c-0.2,0.5-0.1,1-0.3,2.4c2.3-2.2,4.2-3.7,5.5-5.5c1.1-1.5,1.5-3,4-2.7c0.7,0.1,2.3-2.5,2.6-4c1-5.4,3.2-10.2,5.6-15
	c2.8-5.6,4.8-11.6,7.2-17.4c0.6-1.5,1.6-2.8,2.3-4.2c0.6-1.2,1-2.5,1.5-3.7c0.4-1.1,0.5-2.5,1.2-3.3c2.9-3.4,3.1-8.2,5.7-11.4
	c2.9-3.6,3.6-7.7,4.9-11.7c1-3.3,2.1-6.5,3.1-9.8c0.1-0.3,0.2-0.6,0.2-0.9c1.8-7.4,3.7-14.7,5.6-22.4c1.4,0.2,3,0.5,4.8,0.8
	C387.6,662.9,386.5,670.5,383.1,677.6c0.1,1.1,0.2,2.2,0.3,3.6C385.6,679.4,383.7,678.6,383.1,677.6z M297.9,485.9
	c-0.4,0.9-1,2-1.6,3.2c-0.6,1.2-1.6,2.5-1.5,3.7c0.3,3.1,1.1,6.1,1.6,9.2c0.3,1.9,0.9,4,0.4,5.6c-2.4,6.8-2.6,6.7-1,13.4
	c0.2,0.7,0.5,1.5,0.4,2.2c-0.2,2.1,0.9,3.6,2.1,5.2c2,2.8,3.4,5.9,5.1,8.9c1.3,2.3,2.6,4.7,4.2,6.8c3.4,4.5,7.4,8.6,10.5,13.4
	c3.6,5.5,8.4,9.6,12.8,14.3c5.4,5.6,12.4,9.3,17.5,15.2c1.6,1.8,2.9,3.8,4.6,5.5c3.5,3.4,7.2,6.6,10.7,10c1.9,1.9,3.3,4.3,5.2,6.1
	c6.7,6.2,14.1,11.6,20.1,18.6c0.5,0.5,1.2,1.1,1.9,1.2c1.9,0.2,2.8,1.5,3.8,2.8c0.5,0.7,1.1,1.5,1.9,1.7c6,1.7,9.1,6.8,13.1,10.8
	c4.7,4.9,10.3,8.5,16.5,11.2c3.7,1.6,7.5,2.8,11.1,4.5c3.2,1.4,6.3,3.3,9.6,4.8c0.9,0.4,2,0.3,3,0.3c3.5,0.2,7.4-0.4,10.5,0.8
	c3.9,1.6,7.8,1.3,11.7,1.8c3.7,0.5,7.4,0.7,11,1.3c4.4,0.7,5.9-0.5,6.1-5c0-0.6,0.3-1.1,0.4-1.7c0.4-5.2,2.5-9.9,3.1-15.1
	c0.6-5.8,2.7-11.5,4.1-17.3c0.5-2,0.8-4,1.2-6c0.6-2.9,1.2-5.9,1.7-8.8c0.4-2.3,0.6-4.7,0.9-7.1c0.2-1.9-0.9-3.2-2.6-3.9
	c-5.1-2-7.8-6.4-10.5-10.7c-1.2-1.9-1.5-4.3-2.4-6.8c0.5-0.6,1.1-1.6,1.9-2.2c2-1.8,5.9-1.4,7.2,0.9c2.9,5.4,7.9,8.6,12.6,13
	c0.8-1.6,1.7-2.7,1.9-3.9c0.6-3.8,1.5-7.6,1.4-11.4c-0.1-4.7,0.1-9.6-2.2-14c-0.6-1.2-0.9-2.8-0.8-4.3c0.2-3,1.5-4,5.2-4.2
	c2.8-0.2,4.4,0.8,4.7,3.7c0.9,8,4.5,15.7,2.9,24.1c2.1,0.5,2.9-0.7,4-1.9c1.7-1.9,3.5-3.6,5.4-5.3c1.5-1.3,3.3-1,4.6,0.2
	c1.1,1.1,2.8,3.3,2.4,3.9c-1.4,2.2,0.1,5.7-3.2,7c-0.5,0.2-0.7,1.2-1,1.9c-0.8,1.7-1.5,3.6-2.6,5.2c-1.9,3-2,5.9,0.3,8.6
	c1.9,2.1,3.5,4.4,5.2,6.7c3.6,5.1,7.9,9.8,12.1,14.5c1,1.1,2.3,2.1,3.7,2.5c4.5,1.3,9.1,2.5,13.7,3.8c5.3,1.5,10.9,1.8,16.5,2
	c5.3,0.1,10.7,1.6,15.9-0.9c4.9-2.3,10.7-2.8,14.6-7.3c2.5-2.9,5.4-5.4,7.8-8.6c5.1-6.9,8.2-14.5,11.2-22.5
	c-2.9-2.6-5.6-5.2-8.4-7.6c-2.5-2.1-3.5-4.9-3.6-7.9c-0.1-2.2,0.4-4.5,2.8-5.7c2.2-1,4.9-0.5,6.9,1.4c1.8,1.7,3.6,3.4,6.1,5.6
	c0-4.3,0-7.6,0-10.9c0-2.5,0.1-5,0.1-7.5c0-2.8,1.5-4.8,3.8-5c2.3-0.3,4.8,1.5,5.2,4c0.5,3.2,1,6.6,0.8,9.8
	c-0.1,2.2,0.5,3.7,1.8,5.3c0.8-0.5,1.5-0.8,2.1-1.2c2.9-2.3,5.7-4.8,8.6-6.9c2.1-1.5,5.4-1,6.5,0.7c1,1.4,0.3,6.1-1.3,7.1
	c-5,2.9-7.5,8-10.9,12.4c-2.3,3-1.8,7.8,0.1,11.2c1.5,2.7,2.5,5.6,3.4,8.6c1.3,4.1,2.1,8.4,3.6,12.4c2,5.1,4.4,10,4.8,15.6
	c0.1,1.9,1.1,3.8,2,5.4c2.3,4,4.9,7.8,7.3,11.7c4.4-0.3,7.4-2,9.7-5.8c4.3-7.2,9-14.1,13.4-21.2c0.6-0.9,0.8-2.4,0.5-3.3
	c-0.7-1.8-1.9-3.3-2.9-4.9c-1.8-3.1-4.8-6-5.2-9.3c-0.9-6.4-4.7-11.4-6.9-17.2c-1.5-4-1.4-6.7,1.3-9.5c0.3-0.3,0.6-0.7,0.9-1
	c4.6-5.2,10.6-8.1,16.7-11c4.3-2,9-3.6,12.7-6.4c5.7-4.3,12.3-6.1,18.8-8.4c2-0.7,2.8,0,3.2,2.2c0.2,1.3,0.1,3.2,0.9,3.8
	c3.4,2.3,2.8,5.7,3.1,8.9c0.2,2.1,0.2,4.2,0.5,6.3c0.6,4,1.3,8,2,11.9c0.4,2.3,0.3,4.9,1.3,6.9c2.9,5.7,1.2,10.9-1.2,16.1
	c-1.6,3.5-3.9,6.1-7.6,7.8c-3.5,1.5-6.5,4.3-10,5.9c-2.6,1.2-3.4,2.7-2.8,5.2c1.7,1.5,3.3,1.2,4.7-0.4c0.8-0.9,1.6-2,2.7-2.6
	c3.5-2,6.3-4.7,9.8-6.8c5.3-3.1,9.9-7.4,14.6-11.3c3.7-3.1,7.2-6.3,10.6-9.7c2.5-2.5,5.2-5.1,7-8.2c2.9-5,5.9-9.9,9.6-14.5
	c4-4.9,6.7-10.9,10.1-16.3c2-3.3,4.1-6.6,4.4-10.5c0.2-1.9,0-4.1,0.8-5.8c2.9-6.1,2.4-12.9,4.6-19.1c0.1-0.3,0-0.6,0-0.9
	c0.1-7.4,1.8-14.8,0.8-22.3c-0.6-4.4,0-8.9-0.8-13.3c-1.7-9.1-4.1-18-6.2-27.1c-1.8-7.6-4.9-14.7-9.4-21.1c-1.4-1.9-2.7-4.4-4.6-5.3
	c-2.5-1.1-5.6-1.5-8.3-1c-3.1,0.5-5.8-0.1-8.8-0.9c-5.4-1.5-11-2.1-16.9-2.5c-0.1,4.7-0.3,8.8-1.7,12.9c-1.6,4.9-9,10.5-14.8,9.5
	c-4.9-0.8-9.5,0.4-14.2,1.1c-3.9,0.6-7.8,2.2-11.9,0.3c-0.9-0.4-2.3-0.5-3-0.1c-2.8,1.5-5.2-0.2-7.8-0.5c-2.8-0.3-4.7-1.9-5.7-4.5
	c-0.6-1.7-1.2-3.4-1.5-5.1c-0.6-4.6-2.5-8.4-6-11.5c-1.1-1-1.9-2.6-2.5-4c-0.6-1.5-0.9-3.2-1.2-4.8c-1.1-7.5,0.1-14.4,5.4-20.1
	c1.6-1.8,3.5-3.1,6.3-3.1c1.9,0.1,3.8-0.7,5.7-1c5-0.8,10-1.7,15-2.2c5.1-0.5,10.2-0.6,15.2-1.6c1.9-0.4,3.9-0.5,5.8-0.3
	c6.1,0.6,7.8,2.6,7.9,8.6c0,0.2,0.3,0.4,0.8,1.1c1.8-1.7,3.7-3.3,5.5-4.9c5.5-4.9,11-9.7,16.4-14.7c2.8-2.5,3.6-6,1.9-9
	c-3.4-6-7.3-11.7-11.4-17.3c-1.5-2-2.8-4.2-4.5-6c-2-2-3-4.8-6.1-6.2c-4.2-1.9-7.9-5.1-11.8-7.7c-0.7-0.5-1.6-0.8-2.4-1.1
	c-1.7-0.6-3.3-1.2-5-1.7c-4.1-1.2-8.3-2.4-12.5-3.5c-2.2-0.6-4.5-0.5-6.6-1.3c-4.6-1.7-9.4-1.7-14.1-2.6c-2.9-0.5-5.9-0.9-8.9-1.1
	c-2.7-0.2-5.5-0.9-8-0.3c-5.9,1.5-11.3-0.5-16.7-2c-3-0.8-5.6-0.6-8.3,0.3c-1.4,0.5-2.7,1.3-4.4,2.1c0.5,8.8-4.8,16.9-4.1,25.9
	c-0.8,0.7-1.8,1.3-2.4,2.2c-0.6,1.1-0.7,2.5-1,3.8c-0.7-0.2-1.2-0.4-1.8-0.6c-0.9,4.1-3.3,5.4-6.9,3.4c-1.3-0.7-2.5-2.1-3.3-3.5
	c-2.9-5-5.6-10.2-8.6-15.3c-2-3.4-4.2-6.6-6.3-9.8c-1.4-2.1-2.3-5.2-6.1-3.7c-0.2,0.1-0.6-0.1-0.8-0.3c-2.9-2.8-6.6-2.3-10.1-2
	c-5.8,0.4-11-2.3-16.9-2.2c-8.3,0.2-16.5-1.7-24.8,0.2c-1,0.2-2.1-0.1-3.1-0.1c-4.4-0.1-8.8-0.8-13.2,0.2c-3.5,0.7-7,1-10.6,1.3
	c-9.3,1-18.7,1.7-27.9,3.2c-7.6,1.3-15,3.7-22.5,5.6c-1.1,0.3-2.3,0.7-3.5,0.8c-8.2,1-16.3,2.4-24,5.8c-0.8,0.4-1.7,0.4-2.6,0.5
	c-4.4,0.7-8.8,1.4-13.2,2.2c-2.1,5.2-3.5,10.4-4.1,15.9c-0.5,4-1.4,8-2.6,11.8c-1.9,5.6-3.7,6.4-9.7,4.8c-3-7.7-6.1-15.5-11.3-22.6
	c-2.2,0-5.2-0.9-7.2,0.2c-2.6,1.5-5.3,2.1-7.9,2.3c-3.8,0.3-6.7,2.3-10,3.7c-1.5,0.6-2.9,1.5-4.4,2.1c-3.5,1.6-7.3,2.7-10.6,4.8
	c-7.2,4.6-15.4,7.7-22,13.4c-3,2.6-5.6,5-6.9,8.9c-0.5,1.6-2.4,2.9-3.9,4c-2,1.4-4.8,2.1-6.4,3.9c-3.2,3.5-6.6,6.9-8.4,11.5
	c-0.6,1.6-1.7,3.2-2.9,4.5c-3.2,3.4-4.8,7.5-6.6,11.7c-2.2,5-3.3,10.2-5,15.2c-0.4,1.3-0.5,2.8,0.9,3.1c3.4,0.7,5.4,3.5,8.4,4.7
	c1.8,0.7,4.1,0.4,5.9,1.2c4,1.6,7.9,3.2,12.2,4c1.9,0.3,3.6,1.8,5.5,2.6c2.7,1.1,3.2,2.3,1.3,4.7c-1,1.2-1.2,2-0.9,3.6
	c0.6,2.7,0.1,3.3-2.9,3.5c-3.2,0.3-6.1,1.3-8.9,2.9C311.7,478.7,305,482.1,297.9,485.9z M487.4,127.2c-1-2.1-1.4-4.4-2.7-5.8
	c-4.6-4.7-8.9-9.6-14.7-12.9c-3.5-2-7.3-3.4-11-5.1c-2-0.9-3.9-2.2-5.9-2.6c-3.5-0.7-7.1-0.9-10.6-1.4c-3.1-0.4-6.2-1-9.2-1.6
	c-3.9-0.7-7.8-2.9-11.9-0.9c-3.3-1.4-6,0.2-8.9,1.3c-2.8,1-5.7,1.8-8.6,2c-3.1,0.3-5.7,1.4-8.4,2.8c-4.7,2.4-8.8,5.6-12.4,9.3
	c-4.3,4.4-8.4,8.9-12.5,13.5c-0.9,1-1.1,2.9-2.1,3.4c-2.7,1.4-4.3,3.7-5.6,6.3c-2,4-4.1,7.9-5.7,12c-1.9,5-3.6,10.1-4.8,15.3
	c-1.3,5.8-2.7,11.5-3.3,17.5c-0.6,5.3-0.5,10.6-0.5,15.8c0,6,0.5,12,3.8,17.4c0.2,0.4,0.3,0.9,0.4,1.3c2.7,7,4.8,14.4,11.4,19.3
	c2.1,1.6,3.5,4.1,5.2,6.1c0.5,0.5,0.9,1.1,1.4,1.6c3.9,3.5,7.8,6.9,11.7,10.4c0.9,0.8,1.7,1.7,2.7,2.3c2.9,1.7,5.9,3.3,8.9,5
	c2.5,1.5,5.3,2.8,7.3,4.8c3.3,3.4,7.4,4.9,11.4,6.9c4.1,2,8.8,2.7,12.3,6c0.3,0.3,0.8,0.6,1.2,0.6c3.8-0.2,6.1,2.6,8.4,4.8
	c3.5,3.5,3,8.4,2.5,12.7c-1.3,9.7-3.1,19.3-5.3,28.8c-1,4.2-1.6,8.4-2.4,12.9c1.2,0,1.8,0,2.3,0c6.9-0.2,13.1-4,20.2-3.6
	c2.3,0.1,4.8,0.2,6.4-2.1c0.2-0.3,1.1-0.3,1.7-0.4c6.2-0.9,12.4-1.6,18.5-2.8c5.2-1,10.5-2.3,15.5-4.1c2.6-0.9,5-1.6,7.7-1.3
	c1.8,0.2,4.1,1.3,5.5-1.3c0.1-0.3,0.9-0.4,1.2-0.3c2.7,1.5,5.2-0.2,7.8-0.3c5-0.2,10.1-0.1,15-1.2c4.7-1,9.3-0.7,14-1
	c6.5-0.4,13.1-0.8,19.6-1.5c3.6-0.4,7.1-1.6,10.7-0.2c0.6,0.2,1.4-0.2,2.1-0.4c0.9-0.2,1.9-0.9,2.6-0.6c3.3,1.3,6.5-1.4,10.1,0
	c-0.6-1.7-1.3-3.1-2.4-4.2c-1.5-1.6-3.2-3.2-5-4.5c-3.4-2.6-6-6-7.7-9.7c-2.3-5.1-3.8-10.6-5.7-15.9c-1.2-3.3,0.3-6.5-0.1-9.7
	c-0.6-4.9,1-8.8,4.4-12.3c3.9-4,8.5-6.8,13.5-9.2c3.4-1.6,6.8-3.7,8.3-7.1c1.1-2.5,4.3-3.7,4-7c0-0.2,0.4-0.4,0.7-0.6
	c5-3.2,9.1-7.4,13.1-11.9c2.5-2.7,4.6-5.4,5.7-8.9c0.3-0.8,0.9-1.6,1.2-2.4c2.2-5,4.8-9.8,6.1-15.2c0.7-3,1.6-6.1,2.9-8.9
	c2.3-4.9,4-9.8,4.5-15.3c1.1-11.5,2-22.9-1-34.3c-0.1-0.6-0.1-1.2,0-1.8c0.7-2.8,0-5.2-1.4-7.7c-1.4-2.5-2.2-5.2-4.8-6.8
	c-0.6-0.3-1-1.1-1.3-1.8c-1.7-3.3-3.3-6.7-5-10.1c-1.6-3.4-3.7-6.5-6.6-9c-1.8-1.5-3.3-3.3-5-4.9c-1.6-1.5-3.2-3.2-5.1-4.3
	c-3.9-2.3-8-4.6-12.1-6.4c-3.6-1.6-6.6-4.8-10.8-5c-3.5-0.1-7.1-0.2-10.6-0.4c-6.7-0.4-13,1.8-19.5,2.3c-1.2,0.1-2.8-0.1-3.5,0.5
	c-2.8,2.8-6.5,2.4-9.8,3.3c-5.4,1.4-9.9,3.9-14.2,7.4c-3.6,3-8.3,4.7-10.8,9.1c-0.1,0.2-0.5,0.3-0.8,0.4c-2.5,0.7-4.1,2.4-5.4,4.5
	c-1.2,1.9-2.5,3.6-3.7,5.5c-2.1,3.2-4.3,6.4-6.3,9.7C493.4,127,493.5,128.3,487.4,127.2z M131.4,523c-0.3,3.6-0.8,6.8-0.9,10
	c-0.2,6-0.9,11.9-2.9,17.6c-1.1,3.1-2.4,6.3-2.5,9.4c-0.4,9,2.9,17.2,6.1,25.3c1.7,4.3,4.9,7.5,8.1,10.6c1.9,1.8,4.7,2.7,6.5,4.5
	c4.5,4.7,10.6,5.9,16.3,7.7c4.3,1.3,9,2.3,13.8,0.8c2.4-0.8,5.3,0,7.8-0.8c4.4-1.5,8.9,0.9,13.2-0.5c0.5-0.2,1.3,0.5,2,0.8
	c3.8,1.4,7.7,0.9,11.4-0.3c8.2-2.7,16.4-5.7,24.5-8.8c4.3-1.6,8.7-3.4,12.7-5.6c5.8-3.4,10.8-8,15.9-12.3c2.4-2,4.1-4.7,4.9-7.9
	c1.2-5.2,2.6-10.4,3.8-15.6c0.3-1.5,0.7-2.9,0.7-4.4c0.2-5.2-0.1-10.5,0.7-15.7c0.4-2.9,0.9-5.8,1.3-8.7c0.5-4,1-8,1.2-12
	c0.2-4.6,2-9.2-0.1-13.9c-1.4-3.2-1.8-3.8-5-2.1c-4.8,2.5-9.6,5-14.4,7.4c-2.3,1.2-4.6,1-7.1-1c1.1-2,2.2-4.1,3.5-6.6
	c-2.7-2.8-3-6.7-3-10.7c0-1-0.6-2-1-3c-2.4-5.2-5.5-9.9-9.1-14.3c-3.4-4.3-7-8.5-8.5-14.1c-1.2-4.6-1-8.6,2.2-12.1
	c2.6-2.8,5.5-5.5,8.7-7.7c5.7-4,8.9-10.1,13.4-15.1c1.7-1.9,3.4-3.8,4.4-6.1c2.7-6.1,6.2-11.8,9.4-17.7c0.2-0.4,0.5-0.8,0.5-1.2
	c0.2-5.3,3.3-9.7,4.5-14.7c1.3-5.5,2.6-10.9,1.9-16.8c-0.7-6.2-2.6-11.9-4.5-17.7c-1.6-4.8-3.5-9.4-6.4-13.6
	c-4-5.8-9.3-10.1-14.7-14.4c-0.9-0.7-2-1.4-3.1-1.6c-3.8-0.8-7.7-0.7-11.2-2.8c-0.4-0.3-1.2-0.2-1.8-0.1c-3.9,0.8-7.7,0-11.5-0.6
	c-2-0.3-4.2-0.4-6.2-0.1c-2.4,0.3-4.8,1.2-7.2,1.6c-1.3,0.2-3.2,0.4-3.9-0.3c-3.1-3.1-5.7-1.2-8.4,0.5c-1.1,0.7-2.5,1.1-3.5,2
	c-5.3,4.1-11.1,7.7-14.2,14.1c-1.5,3.1-3.5,5.9-5.5,8.7c-2.1,2.9-4.9,3-7.8,1.1c-2.1-1.3-4.4-2.5-6.8-3.2c-4.5-1.2-9.3-1.7-13.2-4.6
	c-3.5-2.6-7.4-3.8-11.7-3.8c-0.3,0-0.6-0.1-0.9-0.2c-5.2-1.8-10.6-2-15.9-0.6c-4.1,1.1-8.6,1.4-12.2,4.2c-2.5,2-5,4.2-7.8,5.8
	c-5.9,3.4-10.2,8.2-12.9,14.4c-2.3,5.3-4.4,10.6-6.4,16c-2.6,6.9-2.7,14.3-2.2,21.2c0.9,11.5,2.5,23.1,9.6,33.2
	c2.3,3.2,4.7,6.2,7.4,8.9c5.5,5.4,11.3,10.6,17.4,15.3c2.3,1.8,3.5,5.6,7.4,5.1c0.8,1.7,3,2.2,3.2,4.5c0.3,3.2,1.4,5.9,4.6,7.7
	c2,1.1,4,3.2,4.6,5.2c1.4,4.3,1.7,9,2.9,13.4c1.7,6.6,0.5,13.2,0.6,19.8c0.1,4.1-1,8.3,0.8,12.4C135.6,521.3,134.2,522.8,131.4,523z
	 M859.3,323c-1.9-1-3.1-1.8-4.4-2.1c-3.2-0.7-6.4-1-9.5,0.4c-0.8,0.4-1.7,0.6-2.6,0.7c-4.8,0.5-10.7,2.9-16,5.6
	c-8.2,4-14.9,9.8-20.7,16.7c-2.4,2.8-5.2,5.8-6.3,9.2c-2.1,6.6-3.1,13.6-4.6,20.5c-0.4,1.9-0.8,3.8-1.2,5.7
	c-1,5.6-2.3,11.1-0.8,16.9c0.5,1.8,0.3,4-0.5,5.7c-1.6,3.8-1.3,7.7-1.2,11.6c0,1.8,0.7,3.5,1.1,5.2c0.6,2.6,1.2,5.2,1.9,7.8
	c0.5,1.7,1,3.4,1.6,5.1c0.5,1.5,0.8,3.2,1.7,4.6c3.3,5,4.7,10.7,5.7,16.4c0.3,2,0.2,4.4,1.1,6.1c3.9,6.6,2.6,14.8,6.6,21.3
	c0.1,0.2,0,0.6,0.1,0.9c0.5,3.2,1.1,6.5,1.5,9.7c0.3,2.6,0.5,5.3,0.5,8c0,3.1-0.4,6.2-0.5,9.4c-0.1,3.6,0.1,7.1,0,10.7
	c0,1.5-0.3,2.9-0.4,4.4c-0.1,2.8-0.2,5.6-0.4,8.5c0,0.7-0.5,1.5-0.4,2.2c1,5.2,0.9,10.4,0.6,15.6c-0.2,3.6-0.2,7.3,0.3,10.8
	c1.2,9.9,4.7,19.2,7.1,28.7c0.4,1.8,1.5,2.9,3.3,3.4c4.4,1.2,8.7,2.5,13.1,3.4c2.9,0.6,5.9,0.4,8.9,0.5c4.4,0.1,8.9,0.1,13.3,0
	c3.2-0.1,6.6,0.2,9.7-0.7c5.2-1.5,10.3-3.8,15.4-5.8c0.5-0.2,1.2-0.5,1.5-0.9c1.5-2.7,3.5-5.3,4.3-8.2c0.7-2.5,2.1-4.2,3.6-6
	c3.1-3.8,2.8-9.4,6.5-12.9c0.1-0.1-0.1-0.3-0.1-0.4c0.2-2.2,0.1-4.4,0.7-6.5c1.6-5.9,3.4-11.7,5.2-17.5c0.3-0.9,1-2,1.9-2.4
	c2-1,2.3-2.6,2.3-4.5c0.1-6.7,0.3-13.3,0.1-20c-0.2-4.2-1.2-8.3-1.7-12.4c-0.8-6.4-1.5-12.8-2.2-19.2c-0.2-2.1-0.5-4.1-0.4-6.2
	c0-1.1,0.5-2.4,1.3-3.2c1.9-1.8,4.1-3.4,6.2-4.9c3.6-2.6,7.2-5.3,11-7.7c9.5-6.1,18.2-13,24.2-22.8c1.2-2,3.1-3.6,4.3-5.7
	c2-3.3,3.9-6.6,5.3-10.1c3.3-8.2,4.1-17,6.1-25.6c0.9-3.8,1.3-7.6,0.4-11.5c-0.6-2.3-0.5-4.7-0.9-7.1c-0.5-2.9-0.4-6.2-1.8-8.7
	c-2.2-3.9-5-7.5-8.2-10.6c-2.8-2.7-6.3-4.8-9.8-6.6c-3.8-2-7.8-3.9-12.4-2.9c-1.6,0.3-3.3,0.4-4.9,0.7c-2.9,0.5-5.7,1.4-8.7,1.7
	c-2.5,0.3-4.5,0.9-6.3,2.8c-1,1-1.9,2.7-4,2.2c-2.7-0.6-3.7,0.6-3.9,3.4c-0.1,2.1-2.1,2.9-3.9,1.9c-1.7-0.9-3.4-1.7-5-2.8
	c-1.4-1-3.1-2.1-3.9-3.6c-1.7-3.2-3-6.7-4.3-10.2c-3.1-8.4-7.8-15.3-17.1-17.4C865.5,323.5,862.3,321.4,859.3,323z M30.5,494.5
	c-4,3.8-7.6,6.9-10.8,10.4c-1.2,1.3-2.1,2.6-3.8,3.4c-3.2,1.6-4,4.7-2.4,8c1.6,3.3,3.3,6.6,5.3,9.7c2,3,4.2,5.9,6.7,8.5
	c4.4,4.7,9.4,8.8,13.4,13.8c4.3,5.4,10.2,7.2,16.3,8.6c2.5,0.6,5.5,0.4,8-0.3c5.3-1.4,9.8-4.6,14-8c1.6-1.3,1.9-2.9,0.6-4.3
	c-1.1-1.3-2.5-2.1-4.3-0.9c-1.6,1.1-3.3,2-5,2.9c-3.1,1.6-6-0.2-6.3-3.7c-0.2-2.3,0.3-4.3,1.4-6.4c1.9-3.4,3.3-7.1,4.9-10.7
	c-2.4-0.3-4.3-0.5-6.1-0.9c-0.8-0.2-1.5-0.7-2.1-1.3c-1.6-1.5-3-3.1-4.5-4.5c-1.7-1.5-3.4-2.9-5.1-4.3c-0.7-0.6-1.7-0.9-2.1-1.6
	c-3.4-5.6-8.8-9.2-13.1-14C33.8,497.3,32.2,496,30.5,494.5z M761.9,624.7c-3.7,2.3-6.8,4.3-6,8.4c0.9,4.1,1.2,8.1,1,12.4
	c-0.3,5.3,0.2,10.7,0.3,16.1c0.1,2.5,0.7,5.2,0,7.5c-1.1,4.3-0.5,8.5,0.2,12.6c1.1,7.1,2.6,14.1,3.9,21.2c0.3,1.7,0.4,3.6,0.1,5.3
	c-0.6,3.1,0,5.9,1.1,8.8c1.4,3.8,2.6,7.6,3.9,11.4c1.2,3.4,2.3,6.7,3.5,9.9c1.7,0.3,3,0.5,4.5,0.7c0.1,1.8,0.2,3.5,0.2,5.1
	c0.2,0,0.4,0,0.6,0c0.5-1.1,1-2.3,1.7-3.9c2.1,3.6,0.2,7.1,1.3,10.7c1.1-0.8,1.8-1.4,2.2-1.7c4.3-0.5,4.2,4,6.9,5.1
	c-0.3,3.6,1,7.7-1.8,10.5c-2.2,2.1-2.1,4.3-1.3,6.5c0.7,1.9,1.8,3.8,3.3,5.2c2.8,2.7,5.9,5.1,8.9,7.6c1.1,0.9,2.3,1.3,3.7,0.1
	c-0.8-1.6-1.7-3.2-2.3-4.9c-1.4-3.6-2.4-7.4-3.9-10.9c-1.5-3.5-1.7-7.6-4.2-10.7c-0.3-0.3-0.2-0.9-0.3-1.3c-1-3.5-1.7-7.2-3-10.6
	c-2.7-7-5.1-14-6.2-21.5c-0.6-4.1-1.2-8.2-2-12.3c-0.4-2.3-1.3-4.6-1.7-7c-1.5-10.8-2.6-21.6-5.1-32.1c-0.7-3-1.6-6.1-2.1-9.1
	c-0.7-3.5-1.2-7.1-1.6-10.6c-0.3-2.5-0.4-5-0.7-7.5c-0.1-0.7-0.4-1.3-0.6-2c-0.8-2.1-1.8-4.1-2.3-6.2
	C763,633.3,762.5,629.2,761.9,624.7z M727.8,417.9c-0.4-1.3-0.7-2.1-0.8-3c-0.5-4.7-0.9-5.1-5.4-5.1c-1.1,0-2.2-0.1-3.1,0.2
	c-4.3,1.1-8.6,2.5-13,3.5c-3.9,0.9-7.9,1.9-11.8,2c-2.4,0-4.3,0.3-6.2,1.5c0.1,0.9,0.2,1.7,0.1,2.4c-0.4,4.6,0.8,8.8,3.4,12.6
	c1.2,1.7,1.6,3.9,2.4,5.8c1,2.3,2,4.6,2.7,6.4c11.9,0,23.2,0,34.9,0c0-5,0-9.5,0-14.2c-2.9-0.5-6.1-0.8-6.8-4.3
	C723.5,422.5,724.5,419.8,727.8,417.9z M361.6,120.9c3.3-4.1,5.7-7.3,8.4-10.3c2.6-2.9,5.3-5.6,8.1-8.3c1.7-1.6,3.5-3.2,5.5-4.5
	c2.8-1.8,5.5-4,8.6-4.8c3.4-0.9,5.3-4,9-4.8c-1.8-1.9-3.4-3.3-4.5-5c-3.1-4.5-6.8-8.9-8.6-13.9c-1.9-5.4-6.1-9.3-7.8-14.8
	c-0.9-2.7-2.5-5-1.5-8c0.6-1.7-0.4-2.3-2.1-2.9c-0.6,1.9-1.5,3.6-1.5,5.3c-0.1,4.4-1.1,8.5-2.5,12.6c-0.9,2.7-2.1,5.4-2.3,8.1
	c-0.7,8.5-3.3,16.6-5.8,24.6c-2.3,7.1-2.7,14.3-3.8,21.5C360.5,117.1,361.2,118.6,361.6,120.9z M707.4,617.2
	c0.4-0.2,0.8-0.3,0.9-0.5c0.7-0.8,1.3-1.6,2-2.4c3-3.7,4.3-3.9,8.2-1.3c0.6,0.4,1.3,0.7,2,1.1c0.5-0.6,0.8-1.1,1.1-1.6
	c0.3-0.4,0.7-1.2,1.1-1.3c4.5-0.9,7.2-3.8,9.1-7.4c-0.5-1.4-1-2.5-1.3-3.7c-0.4-1.7-0.6-3.4-0.9-5.1c-0.5-2.5-1-4.9-1.4-7.4
	c-0.1-0.9,0.4-2,0-2.7c-2.2-3.7-1.7-8-3.2-12.1c-4.5,0.3-8.3,2.4-11.9,4.7c-5,3.2-9.2,7.5-14.5,10.3c-1.9,1-3.5,2.6-4.7,3.6
	c1.6,4.6,3.6,8.5,4.1,12.5C699,610.3,700.5,615.4,707.4,617.2z M858.5,269.5c-5.8,7.1-9.4,15.2-14.6,22.4
	c-5.3,7.3-10.4,14.7-15.2,22.5c2.6-0.5,4.9-1.3,7.1-2.3c2.5-1.2,5.1-2.4,7.5-3.8c0.7-0.4,1-1.5,1.1-1.8c5.2,1.6,9.8-0.8,14.3-0.1
	C861.3,294.2,861.1,275.4,858.5,269.5z M255,305.5c-0.5-2.9-1.3-5.6-1.4-8.3c-0.2-5.3-0.8-10.6-1.9-15.9c-1-4.9-2.1-9.8-3.1-14.7
	c-0.2-0.9-0.4-1.7-0.3-2.6c0.1-2,0.6-4.1,0.5-6.1c0-0.9-0.8-1.8-1.3-2.7c-0.9,0.4-1.9,0.7-2.5,1.4c-0.7,0.7-1,1.8-1.3,2.8
	c-2.5,7.3-5,14.6-7.4,21.9c-1.2,3.6-2.3,7.3-3.5,11.1c2.4,1.2,4.6,2.5,7,3.2c1.7,0.5,2.8,1.4,3.2,2.8c0.7,2.2,2.5,2.8,4.3,3.5
	C249.7,302.9,251.9,304,255,305.5z M824.6,711.7c1.4-0.8,2.9-1.6,4.3-2.4c1.2,0.7,2.6,1.3,3.6,2.2c0.9,0.8,1.9,1.8,2.3,2.9
	c0.5,1.4,0.1,3,0.5,4.5c0.3,1.2,0.9,2.3,1.4,3.4c1.1-0.4,1.7-0.6,2.2-0.8c5.4-1.8,6.8-7.3,3.8-12.2c-1.6-2.5-4.1-3.1-6-4.8
	c-4.2-3.8-8.7-7.3-12.9-11.1c-4.5-4-9.4-7.8-12.9-12.6c-5.8-7.8-11.5-15.7-15.7-24.6c-0.2-0.4-0.7-0.6-1.3-1.1
	c0.2,6.2,2.8,11,5.7,15.7c3.4,5.6,6.9,11.1,10.5,16.6c0.9,1.4,2,2.6,3,3.9c0.7,0.9,1.7,1.8,2.2,2.8
	C818.3,699.7,821.2,705.4,824.6,711.7z M753.4,685.1c-0.8-1.8-1.9-3.4-2.1-5.1c-0.5-3.7-0.4-7.4-0.7-11.1c-0.3-3.6,0.2-7.2-0.4-10.9
	c-0.6-3.9,0.3-8,0-12c-0.2-3.8-1-7.6-1.7-11.7c-2.1,1.8-4.4,3.7-6.7,5.6c4.6,27.8,5.4,55.9,9.3,83.8c0.7-0.4,1-0.9,1.4-1.4
	c1.4-1.8,3.5-3.5,4-5.6c0.5-2.3-0.4-5-0.7-7.5c-0.5-4.2-1.1-8.3-1.5-12.5C753.7,692.8,751.5,689,753.4,685.1z M817,752.1
	c0.3,0,0.5-0.1,0.8-0.1c-0.8-4.8-1.4-9.7-2.6-14.4c-1.7-6.6-4.2-13.1-5.9-19.7c-1-3.8-1.3-7.7-4.5-10.5c-0.7-0.6-0.7-1.9-1-2.9
	c-1.9-6.2-4.7-11.9-8.8-16.9c-1.2-1.5-2.1-3.2-3.2-4.8c-0.4-0.6-0.9-1.1-1.4-1.7c0.4,4.3-0.5,8.5,1.2,12.5c1.1,2.5,0.6,5.5,3.1,7.4
	c0.3,0.2,0.2,0.8,0.4,1.3c0.9,3.6,1.8,7.2,2.8,10.8c0.6,2.1,1.2,4.3,2,6.3c1.6,3.8,2.3,8.2,5.6,11.2c0.1,0.1,0.1,0.3,0.2,0.4
	c3.4,6.6,6.7,13.2,10.1,19.9C816.2,751.2,816.7,751.6,817,752.1z M953,335.5c3-3.6,3.6-5,3.7-8.9c0-0.6-0.1-1.3,0.1-1.7
	c3.3-5.6,1.7-12.5,5-18.1c0.1-0.1-0.2-0.5-0.3-0.6c-4.8,0.3-9.4,1-13.6,3.6c-2.4,1.5-5,2.9-7.7,3.4c-4.1,0.8-6.6,3.7-10.3,6.1
	C937.9,324.8,945.4,330.1,953,335.5z M84.8,336.5c8.2-3.4,13.5-10,19.8-15.9c-3-4.3-6.4-8.4-9.1-13c-2.7-4.6-4.7-9.6-6.9-14.5
	c-1.4,2.2-1.9,4.4-2.4,6.6c-1.2,5.1-2.7,10.1-2.3,15.5c0.2,3,0.5,6,0.6,9C84.7,328.4,84.7,332.6,84.8,336.5z M609.6,42.7
	c-1.6,2.3-2.9,4-4,5.8c-2.9,4.7-5.6,9.5-8.8,14.1c-2,2.9-3.4,5.7-2.7,9.8c8.8,0.4,15,6.4,21.8,11.2c1.1-3.2,1-6,0-9
	c-0.8-2.5-1.4-5.2-1.6-7.9C613.7,58.7,612.2,51,609.6,42.7z M695.3,748.8c3.1,2.7,5.7,5,8.4,7.3c2.6,2.2,3.2,6.4,7.6,7.3
	c-0.5-3.9-0.1-7.6-1.9-11c-0.6-1.2-0.2-2.9-0.4-4.3c-0.3-2.3-0.2-4.7-1-6.8c-2-4.8-4-9.5-1.4-14.8c0.4-0.8,0.3-2.5-0.2-2.9
	c-2.7-2.1-3.2-4.8-2.7-8c0.1-0.7-0.6-1.5-1.1-2.7c-0.5,1.4-0.8,2.2-1.1,3c-1.6,4-2.8,8.4-5.1,11.9c-3,4.7-2.4,9.5-1.4,14.1
	C695.5,744.5,696.1,746.7,695.3,748.8z M774.9,609.1c-1.7,2.2-3.2,4.1-4.5,6.1c-0.6,0.8-1.1,1.9-1,2.8c0.2,5.1,0.1,10.2,0.8,15.2
	c1.2,7.8,2.8,15.5,4.4,23.2c0.8,3.8,1.5,7.8,3.9,11.1c0-1.3-0.4-2.6-0.5-3.8c-0.4-4.7-1.5-9.6-0.9-14.2c0.4-3.1,1.3-6,0.8-9.2
	c-0.3-1.9-0.2-3.8-0.1-5.7c0.2-3.4,3.1-4.8,5.4-6.5C781.9,621.2,778.3,615.4,774.9,609.1z M737.3,759.8c-0.3,0.1-0.6,0.2-0.8,0.2
	c-0.1,0.8-0.2,1.7-0.1,2.5c0.6,5.3,0.7,10.6,0.2,15.8c-0.2,2.3-0.1,4.3,0.4,6.5c0.8,3.1,1.6,6.5,1.2,9.6c-0.4,3,0.5,5.3,1.4,7.9
	c2.9-8.3,4.3-16.9,7.6-24.9c0.8-2,0.6-4.1-1.3-6c-1.6-1.5-2.4-3.7-3.7-5.6C740.5,763.8,738.9,761.8,737.3,759.8z M863.5,732.2
	c4.2,1.2,8.4,2.4,12.5,3.6c-6.5-7.6-16.1-11-22.8-18.9c-0.4,4.3-0.8,7.9-1.2,12.3c4.6-4.5,5.4-4.6,10-2.6
	C862.5,728.3,863,730.2,863.5,732.2z M728.2,728.6c-0.2-2-0.5-4-0.8-6.9C725.9,724.7,725.8,726.8,728.2,728.6z"/>
<path fill-rule="evenodd" clip-rule="evenodd" d="M299.6,657.3c-2.9-0.7-3.7,1.8-4.7,3.7c-1,1.9-1.4,4-2.4,6.8
	c-1.6-3.1-0.2-4.9,0.4-6.7c1.5-3.9,3.3-7.7,5-11.5c3.2-7.3,6.3-14.7,9.7-22c1.3-2.8,3.4-5.3,7.9-4.7c-2.4,4.7-4.2,9.2-7.2,13.2
	c-1.5,2-2.2,4.6-3.6,6.6C301.7,647.1,301.4,652.3,299.6,657.3z"/>
<path fill-rule="evenodd" clip-rule="evenodd" d="M288.4,677.6c0.9-2.5-0.6-5.8,3.2-8.3c-0.9,3.3-1.6,5.8-2.3,8.4
	C289.1,677.6,288.8,677.6,288.4,677.6z"/>
<path fill-rule="evenodd" clip-rule="evenodd" d="M574.3,439.5c1-0.5,2-1.1,3-1.6c0.3,0.1,0.7,0,0.8,0.2c1.2,1.8,2.6,1.7,3.3-0.1
	c0.8-2,2.2-2.2,3.9-2.2c8-0.1,16,0.1,23.6,2.1c5.6,1.5,10.8,4.4,16.3,6.3c5.2,1.8,8.9,6,13.7,8.4c2.7,1.4,4.5,4.6,6.5,7.1
	c4.7,5.8,9.2,11.7,14,17.4c6.8,8,6.7,16.6,2.3,25.5c-1.5,3.1-3,6.3-5.2,8.9c-2.8,3.3-6,6.3-9.5,8.8c-4.7,3.4-9.9,6.1-14.8,9.3
	c-7.7,4.9-15.9,7.7-25.2,8.5c-7.1,0.6-14.1,2.4-21.1,3.6c-2.6,0.4-5.3,0.5-8,0.8c-4,0.4-8,0.8-12.1,1.1c-2.1,0.2-4.2,0-6.2,0.1
	c-4.3,0.2-8.7,0.4-13,0.7c-9,0.6-18,0.7-26.6-2.2c-3.8-1.3-7.4-0.4-10.9,0c-5.6,0.7-10.9,0-15.7-2.5c-5-2.6-10.3-3.5-15.6-3.3
	c-8.8,0.3-16.8-1.7-24.3-6.1c-4.5-2.6-9.3-4.8-13.9-7.4c-2.4-1.4-4.9-2.9-7-4.7c-6.2-5.3-7.1-15.1-2.5-21.9c1.3-1.9,1.6-4.4,2.7-6.5
	c1.2-2.2,2.6-4.2,4.1-6.2c2-2.5,4.1-5,6.4-7.3c2.2-2.3,4.4-4.6,6.6-7c1.7-1.8,4.6-2.4,6.9-3.9c4.5-2.9,9.5-4.9,14.2-7.5
	c5.8-3.1,11.7-5.7,17.8-8.1c3.5-1.4,6.9-3.1,10.5-3.6c3.2-0.5,5.8-1.7,8.7-2.9c2.9-1.2,6.1-1.6,9.2-2.3c0.4-0.1,0.9-0.2,1.3-0.3
	c6.5-2.5,13.3-3.7,20.2-4.2c4.6-0.3,9.2-1.7,13.6-1.8c5.3-0.1,11.1-1,16.2,2.1c0.8,0.5,2.1,0.3,3,0.7
	C572.4,437.9,573.1,438.6,574.3,439.5z M568.3,438.1c-3.6,0.4-6.7,0.9-9.8,1.2c-5.9,0.7-11.9,1.4-17.8,1.8c-6.9,0.5-13.4,3.7-20.5,3
	c-0.4,0-0.9,0.2-1.2,0.5c-4,4.1-9.5,4.9-14.5,6.2c-5,1.4-9.7,3.5-14.4,5.5c-3.7,1.5-7.1,3.9-10.8,5.4c-6.2,2.4-11.8,5.9-17,9.8
	c-5.1,3.8-10.2,7.6-14.5,12.6c-4.2,4.8-7.3,10.3-10.1,15.8c-1.8,3.5-1.7,7.5,1.6,11.2c3.3,3.6,7.1,5.8,11.3,7.7
	c1.2,0.6,2.5,1,3.7,1.6c5.6,2.9,10.6,7.4,17.6,6.9c0.6,0,1.3,0.7,2,0.9c1.3,0.4,2.6,0.8,3.9,0.9c2.7,0.2,5.4-0.1,8,0.2
	c4.2,0.6,8.5,0.5,12.6,2.7c4.1,2.3,8.8,2.9,13.5,2.5c3.8-0.3,7.7-0.6,11.5-0.9c1-0.1,2.2-0.1,3.1,0.3c4.8,1.7,9.6,3.2,14.8,1.6
	c1.5-0.4,3.3,0.1,4.9,0.3c1,0.1,2.1,0.4,3.1,0.2c8.2-1.2,16.4-2.4,24.7-2.5c3.5,0,7.1-0.4,10.6-0.9c5.3-0.8,10.6-1.8,15.9-2.7
	c4.1-0.6,8.2-1,12.3-1.6c8.2-1.3,15.3-5.2,22.4-9.3c2.9-1.7,5.3-4.1,8.4-5.7c3.2-1.6,6.9-4.1,8.4-7.2c2.6-5.4,6.5-10.9,4.2-17.7
	c-0.6-1.9-0.9-3.5-2.9-4.7c-1.6-0.9-2.6-2.7-3.8-4.2c-2.8-3.4-4-7.9-7.6-10.7c-1.3-1-3.3-1.8-3.7-3.1c-1-3-3.5-4.5-5.7-6.1
	c-3.2-2.4-6.6-4.6-10-6.7c-4.3-2.7-8-6.5-13.6-6.8c-0.7,0-1.6-0.4-2-0.9c-4.3-4.6-10.3-4.7-15.6-5c-6.9-0.4-13.9,0.9-20.9,1.5
	c-0.3,0-0.5-0.2-1-0.4C569,440.5,568.6,439.3,568.3,438.1z"/>
<path fill-rule="evenodd" clip-rule="evenodd" d="M471.3,433.7c-1.7,1.1-2.9,2.1-4.3,2.7c-4.8,2.1-9.9,3.6-14.5,6
	c-9.9,5.2-18.5,12.2-27.4,18.9c-3.7,2.8-7.3,5.7-10.9,8.6c-2.7,2.2-5.5,4.2-7.8,6.7c-3.1,3.4-6.1,6.9-8.6,10.7
	c-2.2,3.3-5.6,6-6,10.4c-0.1,1.2-0.6,2.3-0.8,3.4c-0.8,6-1.6,12.1-2.3,18.2c-0.1,1,0.3,2,0.6,3c2.1,6.5,6.2,11.5,11.3,15.9
	c3.2,2.7,6.2,5.5,9.5,8c1.5,1.2,3.4,1.8,5.2,2.6c5.8,2.7,11.6,5.5,17.4,8.1c1.9,0.9,3.8,1.6,5.8,2.3c4.9,1.8,10.2,2.1,14.8,4.9
	c0.5,0.3,1.4-0.1,2.2-0.1c1.8,0,3.5,0,5.5,0c-0.1,4.2-4.2,3.3-5.4,5.6c-2.6-1.5-4.8-2.3-8-1.4c-3.1,0.8-6.9,0.3-10.1-0.5
	c-4.6-1.2-9-3.2-13.4-5c-5.6-2.2-11.1-4.5-16.6-6.9c-1.8-0.8-3.6-1.6-5-2.9c-5.6-5.2-11.3-10.4-16.5-16c-2.1-2.3-3.4-5.6-4.4-8.7
	c-3-9.2-1.8-18.5-0.2-27.8c0.9-4.7,1.7-9.5,4.6-13.4c2-2.8,4.3-5.3,6.5-7.9c2.4-2.8,4.7-5.8,7.3-8.4c2.3-2.3,5-4.2,7.5-6.4
	c3.2-2.7,6.3-5.5,9.6-8.2c1.7-1.4,3.8-2.4,5.6-3.7c4.9-3.7,9.5-7.7,14.6-11.1c6-4,12.2-7.6,19.6-8.4c0.6-0.1,1.2-0.3,1.7-0.6
	C462.5,430.2,466.6,431.1,471.3,433.7z"/>
<path fill-rule="evenodd" clip-rule="evenodd" d="M783.5,468.8c2.6,1.4,4.4,2.6,4.2,6.3c-0.2,4.6,1.1,9.2,1.9,13.8
	c1,5.9-1,11-5.6,14c-3.4,2.2-8.1,3.3-12.3,3.4c-9.6,0.3-19,1.4-28.4,3.4c-4,0.8-8,0.6-11.9-0.9c-0.8-0.3-1.5-0.9-2.1-1.6
	c-2.7-3.2-5.4-6.2-6.2-10.5c-0.9-4.7-2.4-9.3-3.3-14c-1.1-5.9,1.8-10.7,7.5-12.6c2.3-0.7,4.7-1,7-1.6c1.4-0.4,2.8-0.9,4.3-1.3
	c1.8-0.5,3.7-0.8,5.5-1.2c0.3-0.1,0.7,0.2,0.9,0.1c5-3.4,11.2-2.6,16.6-5c3.9-1.7,8.5-2.1,12.9-2.6c2.1-0.2,4.3,0.5,6.3,1.2
	c0.9,0.3,1.6,1.8,1.9,2.8C783,464.7,783.2,466.8,783.5,468.8z M776.7,495.5c-1-7.9-1.8-14.9-2.7-22.1c-3.3-0.6-6.5-1.2-10-0.2
	c-2.1,0.6-4.5,0.2-6.7,0.6c-2.7,0.4-5.8,0.6-8.1,1.9c-3.2,2-6.6,2.6-10.1,2.4c-2.2-0.1-3.7,0.4-5.4,2.2c0.2,1.8,0.1,4.1,0.9,5.9
	c1.5,3.4,3.4,6.6,5.3,9.8c2.2,3.7,4.1,4.4,7.9,2.8c4.3-1.9,8.4-3.2,13.5-2.2C766.1,497.5,771.4,495.9,776.7,495.5z"/>
<path fill-rule="evenodd" clip-rule="evenodd" d="M337.5,460.4c0.4-1.7,1.1-3.7,1.3-5.7c0.2-1.9,0.1-3.9,0-5.8
	c-0.2-5.3,3.1-9.6,8.4-10.4c1.8-0.3,3.2-0.7,4.8-1.8c2.3-1.5,5.2-2.1,8-2.6c6.7-1.2,13.5-2.4,20.3-3c3.3-0.3,6.7,0.7,10.1,1.4
	c0.7,0.2,1.5,1.5,1.7,2.5c1.7,7.6,4.4,15.1,4,22.9c-0.2,3.9-0.3,7.9-0.6,11.8c-0.3,4.5-3.4,6.4-7,7.8c-5.6,2.2-11.3,4-17.4,3
	c-0.3,0-0.6,0-0.9,0.1c-4.2,2.3-8.7,1-13,1.4c-5.1,0.5-8.6-2-11.5-4.7c-3-2.7-4.9-6.7-6.8-10.4C337.9,465.2,337.9,462.9,337.5,460.4
	z M383.5,446.4c-3.2-0.4-6.1-1.5-8.7-1c-7.5,1.2-14.9,2.9-22.4,4.5c-0.8,0.2-1.9,0.8-2.1,1.5c-1,3.4-1.9,6.9,0.1,10.4
	c0.9,1.5,1.8,3.1,2.5,4.7c1,2.3,2.4,3.6,5.2,3.2c5.7-0.8,11.5-1.4,17.3-2c4.9-0.5,7.2-3.3,8.8-7.7
	C385.8,455.2,384.3,451,383.5,446.4z"/>
<path fill-rule="evenodd" clip-rule="evenodd" d="M479.1,377.6c0.5,9.2-1.7,17.9-4.7,26.4c-0.8,2.4-1.3,4.9-1.6,7.4
	c-0.3,2.1-0.9,3.7-2.9,4.8c-3.3,1.7-6.4,3.6-10.4,3.3c-6-0.6-12-0.6-17.9-1.7c-4.5-0.8-9.1-2.3-11.3-7.1c-0.3-0.7-1-1.3-0.9-2
	c0.3-5.1-1.2-10.1,0.7-15.3c1.6-4.3,1.9-9,2.9-13.5c0.7-3.7,1.5-7.3,2.2-11c0.8-4.4,3.4-8,5.5-11.7c1-1.8,2.5-1.9,4.6-1.3
	c5.3,1.7,10.7,2,16.2,1.6c4-0.3,8.1,0.3,12.1,0.8c1,0.1,2.1,1.5,2.7,2.5c1.9,3.6,3.1,7.5,2.6,11.7
	C478.7,374.2,479,375.9,479.1,377.6z M456.3,408.3c6.2-0.6,6.6-1,8.3-7c1.2-4.1,2.3-8.3,3.7-12.4c1.8-5.2,1.7-10.4-0.1-15.6
	c-0.5-1.4-1.1-2.3-2.6-2.6c-2.2-0.4-4.3-1-6.4-1.8c-2.9-1-6.1,0.4-9.1-1.2c-1.6-0.8-2.7,1-3,2.9c-0.3,1.7-0.8,3.7-2,4.7
	c-1.4,1.2-2,2.4-2.3,4.1c-1,5.4-2.3,10.7-3.2,16.1c-0.3,2.3,0.1,4.8,0.5,7.1c0.3,1.7,1.5,2.3,3.2,2.6c2.4,0.3,4.6,1.1,7,1.6
	C452.2,407.4,454.2,407.8,456.3,408.3z"/>
<path fill-rule="evenodd" clip-rule="evenodd" d="M591.1,362.7c-0.7,7.4-1.1,14.8-2.1,22.1c-0.7,5-2.1,9.9-3.5,14.8
	c-1.8,6.1-6.8,9.1-12.5,10.1c-4.6,0.8-9.5,0.1-14.3,0.2c-1.8,0-3.6,0.1-5.3,0.5c-2.1,0.5-3.8,0.6-5.2-1.4c-0.3-0.4-0.5-0.8-0.9-1
	c-5.6-3-4.6-8.3-4.2-13.1c0.5-5.2,1.9-10.3,2.4-15.5c0.7-8,2.8-15.8,4.1-23.7c0.3-1.9,1.3-3.6,2.2-5.3c0.3-0.6,1.2-1.3,1.7-1.2
	c3.6,0.6,6.6-1.5,9.9-2.3c3.6-0.9,6.9-1.6,10.3,0.7c0.9,0.6,2.3,0.6,3.5,0.7C586.9,349.1,590.7,353.1,591.1,362.7z M575.2,397.7
	c0.8-4.1,1.6-8,2.3-12c1-6,1.6-12.1,2.7-18c1-5.4-2-9.5-7.5-9.7c-0.9,0-1.8,0-2.7,0.1c-2.7,0.3-5.4,0.7-8.4,1.1
	c-0.3,0.8-0.6,1.7-0.9,2.5c-0.8-0.2-1.3-0.3-1.9-0.5c-2.3,5.7-6.2,32.5-5.4,37.5c0.9,0.2,2,0.6,3,0.6c2.8,0,5.7-0.8,8.3-0.3
	C568.3,399.9,571.5,399.3,575.2,397.7z"/>
<path fill-rule="evenodd" clip-rule="evenodd" d="M530.3,358.2c0.3,5.5,0.7,10.7,0.8,15.9c0,1.9-0.5,3.8-0.8,5.7
	c-0.7,4.5-1.1,9.1-2,13.6c-0.9,4.8-1.9,9.7-3.3,14.3c-1.3,4.2-4.5,5.7-9.7,5.5c-0.8,0-2.1-0.3-2.4,0.2c-1.8,2.3-4.3,2.1-6.6,1.7
	c-4.4-0.7-8.7-1.9-13.1-3c-0.9-0.2-1.7-1-2.5-0.9c-4.5,0.3-5.4-3-6.1-6.3c-0.9-4.2-0.3-8.3,1-12.4c0.8-2.5,1.3-5.2,1.5-7.9
	c0.3-4.2-0.1-8.4,2.2-12.2c0.2-0.3,0.3-0.9,0.1-1.3c-1.2-2.6,0.4-4.6,1.3-6.8c3.1-7.1,7.2-9.4,15-9.2c4.4,0.1,8.8,0.1,13.2-0.7
	c2.6-0.5,5.6,1.2,8.4,2.1C528.3,356.8,529.1,357.5,530.3,358.2z M516.4,402.5c1.1-4.3,2.4-8.1,2.9-12c0.6-4.5,0.1-9.2,1.7-13.7
	c0.8-2.1,0.5-4.9-0.2-7c-0.6-1.8-1.4-4.5-3.9-4.3c-3.9,0.3-7.9-0.6-11.4,1.7c-0.3-0.2-0.7-0.3-0.8-0.5c-0.4-0.9-0.7-2.4-2-1.7
	c-0.9,0.4-1.9,1.7-1.8,2.6c0.1,1.5,1,3,1.4,4.5c0.2,0.6,0,1.3,0,1.9c-1.1-0.6-1.9-1.1-2.7-1.6c-0.4,0.4-0.7,0.6-0.8,0.8
	c-1.2,7.4-2.4,14.7-3.4,22.1c-0.4,2.9,3.2,7,6.2,7.1C506.4,402.7,511.4,402.5,516.4,402.5z"/>
<path fill-rule="evenodd" clip-rule="evenodd" d="M655.3,543.6c-1.3-3.6-1.1-4.5,1.5-6.1c3-1.7,6-3.4,9.1-4.9
	c5.8-2.8,9.6-7.4,12.7-12.8c3.6-6.2,3.9-13,3.5-19.9c-0.5-9.4-1.5-18.7-5.4-27.4c-0.5-1.2-1.1-2.5-2-3.5c-3.9-4.1-7.9-8.2-12-12.2
	c-4.2-4-8-8.3-13.1-11.4c-6.3-3.9-12.5-7.9-19-11.6c-9.2-5.3-19.1-7.7-29.8-7c-2.5,0.2-5-0.7-7.4-0.9c-2.1-0.2-4.2,0.1-6.3,0
	c-3.1-0.2-6.3-0.4-9.4-0.8c-0.6-0.1-1.1-1.2-2.3-2.6c2.7,0,5-0.7,5.7,0.1c1.4,1.5,2.1,1,3.3,0.2c4.8-3.3,10.4-2.8,15.8-3.3
	c1.3-0.1,2.7,0.1,4-0.1c7.4-1.3,14.6,0.1,21.5,2.4c3.5,1.2,6.6,3.4,9.9,5.2c1.7,0.9,3.3,2,5,2.8c6.1,2.7,10.6,7.7,16.2,11.2
	c7.2,4.5,12.9,10.6,18.9,16.5c2.2,2.2,4.7,4.2,7,6.3c0.7,0.6,1.4,1.3,1.7,2.1c2,6.9,5.5,13.3,6,20.6c0.7,9.2-0.3,18.2-2.6,27.1
	c-1.6,6-4.4,11.4-9.6,15.3c-2.5,1.9-3.8,4.8-6.8,6.3C666.1,537.7,660.9,540.6,655.3,543.6z"/>
<path fill-rule="evenodd" clip-rule="evenodd" d="M442.2,600.2c-1.2,2.1-2.9,3-5.7,2.6c-4.5-0.6-9.1-1.2-13.7-0.7
	c-0.1,0-0.3,0-0.5,0c-7.6-1.3-15.2-2.1-22.6-3.9c-5.6-1.4-10.8-3.8-15.1-8.2c-2.8-2.9-7-4.5-10.7-6.3c-6.4-3.2-11.7-7.6-15.8-13.3
	c-0.6-0.9-2-1.2-2.8-2.1c-5.5-6-10.5-12.1-12.3-20.4c-1.3-5.7-2.2-11.4-2.3-17.2c-0.1-4.6,0.4-9.1,2.1-13.5c0.4-0.9,0.5-2.1,0.5-3.1
	c0.2-3.8,1.5-7.2,3.7-10.2c0.2-0.2,0.5-0.4,0.5-0.7c1.3-4.8,2.6-9.6,4-14.5c1.2-0.2,2.1-0.4,3-0.4c3.8,0.2,4.7,1.7,3.4,5.3
	c-2.1,6.1-4.2,12.1-6.2,18.2c-3.6,10.9-3.3,21.6,0.1,32.6c2.2,7.2,6.1,12.9,11.8,17.6c3,2.5,5.6,5.5,8.7,7.8
	c3.4,2.4,7.2,4.2,10.8,6.3c1.3,0.8,2.5,1.7,3.7,2.6c2.8,2.2,5.5,4.7,8.4,6.8c1.6,1.1,3.8,1.6,5.7,2.4c1.2,0.5,2.4,1,3.5,1.5
	c0.4,0.2,0.8,0.8,1.1,0.8c3.8-1,6.8,1.8,10.3,2.2c3,0.4,6.4,0.1,8.6,3c0.2,0.3,1.1,0.1,1.7,0.2c2.3,0.5,4.7,1,7,1.7
	C436,598.1,439,599.2,442.2,600.2z"/>
<path fill-rule="evenodd" clip-rule="evenodd" d="M611,390.1c0.6-0.4,1.3-1.1,1.8-1c3.2,1,6.1-0.6,9.2-1c5.7-0.9,11,0.3,16.2,2.4
	c3.3,1.3,6.8,2.1,9.6,4.6c0.7,0.7,1.9,0.9,2.9,1.2c6.8,2.1,12.9,5.2,17.3,11c2.5,3.4,1.9,5.6-2.8,7.4c-1.6-5.2-6.4-6.4-10.6-8.6
	c-2.8-1.4-5.5-3.1-7.7-5.3c-1.7-1.7-3.4-2.5-5.7-3c-3.3-0.8-6.5-2.1-9.6-3.6c-3.6-1.8-7.4-1.7-11.2-2.1c-3-0.3-6.1-0.5-9.1-0.8
	C611.1,390.9,611.1,390.5,611,390.1z"/>
<path fill-rule="evenodd" clip-rule="evenodd" d="M604.6,609.9c-2.3,1.3-4.4,2.9-6.7,3.4c-2.2,0.5-4.7-0.4-7.1-0.3
	c-6.3,0.3-12.5,0.8-18.8,1.3c-3.6,0.3-7.3,0.8-10.6,1.2c-1-1.3-2-2.7-3.2-3.8c-1.6-1.5-2-3-0.8-4.7c0.4-0.6,1.6-1.2,2.2-1
	c6.6,1.7,13.3,0.7,20,0.3c5.7-0.4,11.4-0.2,17.1,0.9c1,0.2,2.1,0,3-0.2C602.2,606.5,603.9,607.2,604.6,609.9z"/>
<path fill-rule="evenodd" clip-rule="evenodd" d="M661.6,355.2c1.4-3.9,4.4-5.9,7.4-5.7c3.1,0.2,6.3,0.1,9.4,0.5c2,0.3,4,1,6,1.8
	c5.6,2.1,10.7,5.1,14.7,9.6c1.5,1.7,3,3.6,2.7,6.4c-0.1,1.3,1,2.8,1.5,4.2c1,2.9,0.9,5.6-1.9,7.9c-2.4-1.4-4.1-3-4.7-6
	c-0.5-2.2-2-4.3-3.3-6.2c-2.8-3.9-5.2-8.2-10.6-9.2c-0.5-0.1-1.1-0.6-1.5-1c-5-5.2-10.9-4.6-17-2.8
	C663.6,354.9,662.9,355,661.6,355.2z"/>
<path fill-rule="evenodd" clip-rule="evenodd" d="M344.4,419.7c-0.1-4.4,3.1-4.5,5.6-5.8c0.2-2.6,2.2-4.2,3.9-6.3
	c4.2-5.1,9.8-8.3,15.2-11.5c5.2-3.1,9.9-7.2,16.1-8.4c2.5-0.5,5-1.5,7.6-1.8c2.1-0.3,3.1,1.4,3.6,3.8c-2.4,1.5-4.9,4.2-7.6,4.4
	c-5.5,0.5-9.4,3.3-13.6,6.1c-1.7,1.1-3.9,1.5-5.8,2.4c-1.6,0.7-3.1,1.7-4.6,2.6c-0.6,0.4-1.1,1.2-1.7,1.4c-4.9,1.3-7.9,5.3-11.5,8.4
	C349.7,416.7,347.8,418.5,344.4,419.7z"/>
<path fill-rule="evenodd" clip-rule="evenodd" d="M486.5,649.7c-1.5-0.6-2.6-1-3.6-1.4c-3.5-1.7-6.8-3.8-10.5-4.9
	c-4.1-1.3-8.5-1.5-12.7-2.4c-8.3-1.7-16.8-2.1-25-4.8c-4.9-1.6-8.6-4-11.1-8.4c0.5-2.3,1.9-2.2,3.7-1.3c4,2,8,4.1,12,5.9
	c2,0.9,4.2,1.4,6.3,2.1c0.9,0.3,1.8,0.8,2.6,1.2c0.4,0.2,0.8,0.5,1.1,0.4c6-2.2,11.6-0.2,17.2,1.7c5.4,1.8,10.7,3.9,15.9,6
	C484.6,644.5,487,645.5,486.5,649.7z"/>
<path fill-rule="evenodd" clip-rule="evenodd" d="M555.8,567.7c0.7-1.4,1.3-2.6,2-3.9c10.4-2.4,20.9-1.6,31.3-0.6
	c0.3,0,0.6,0,0.9,0.1c5.2,2.4,10.8,2.5,16.9,2.8c-2,2.1-3.5,3.8-6.1,3.7c-8.8-0.3-17.6-0.5-26.5-0.8c-0.9,0-1.8,0.2-2.6,0.3
	C564.9,570.3,561.5,569.9,555.8,567.7z"/>
<path fill-rule="evenodd" clip-rule="evenodd" d="M332.1,530.1c-1.7,2.1-3.1,1.2-4.4,0.1c-3.5-3-5.6-6.8-7.1-11.1
	c-3-8.5-1.7-16.5,2.9-24.1c0.6-1,1.5-2.1,2.6-2.4c1.3-0.4,3.2-0.5,4.2,0.1c1.3,0.9,1.9,2.6,0.9,4.4c-0.9,1.7-1.6,3.6-2.3,5.4
	c-2.9,7.1-2.4,14,0.8,20.8C330.5,525.5,331.2,527.8,332.1,530.1z"/>
<path fill-rule="evenodd" clip-rule="evenodd" d="M716.1,521.8c-1.4,2.8-2.5,5.7-4.2,8.2c-3.6,5.4-6.8,11-11.8,15.3
	c-1.7,1.4-2.6,3.6-4.1,5.3c-3,3.5-6.1,7-9.4,10.3c-3.4,3.3-7.7,4.2-12.3,4.1c-0.7-2.3-0.7-4.1,1.7-4.5c7.1-1.1,10.7-6.8,14.9-11.6
	c4.7-5.4,9.2-11.1,13.6-16.7c2.4-3,4.6-6.1,6.8-9.2C712.5,521.4,713.6,520.4,716.1,521.8z"/>
<path fill-rule="evenodd" clip-rule="evenodd" d="M746.8,554.4c-1.6-2.2-1.3-4-0.1-6c1.4-2.4,2.5-5,3.7-7.6c1.2-2.6,2.4-5.2,3.5-7.8
	c1.3-3,2.3-6.1,3.7-9.1c1-2.3,2.3-4.5,3.6-6.6c0.3-0.5,1.4-0.8,1.9-0.7c0.6,0.2,1.4,1,1.4,1.5c0,1.3-0.2,2.7-0.7,3.9
	c-2.2,5.6-4.4,11.2-6.8,16.7c-1.4,3.3-1.8,6.8-4,9.9C751.3,551.1,749.2,552.7,746.8,554.4z"/>
<path fill-rule="evenodd" clip-rule="evenodd" d="M418.9,409.4c-0.7,2.5-1,4.1-1.7,5.6c-1.2,2.9-4,4.2-6.6,4.9
	c-3.4,0.9-5.8,2.8-7.9,5.5c-0.5,0.7-1.3,1.2-2,1.7c-3.7-2.5-3.7-5.3,0.1-6.8c2.2-0.9,3.7-2.1,5.4-3.7c2.7-2.5,5.8-4.5,8.8-6.6
	C415.9,409.5,417.3,409.7,418.9,409.4z"/>
<path fill-rule="evenodd" clip-rule="evenodd" d="M607.5,166.1c-0.3,5.7-0.6,11.4-1,17.1c-0.3,4.4-1.5,8.5-4.2,12.2
	c-1.3,1.8-1.8,4.2-3.1,5.9c-3.1,4.2-6.6,7.8-11.5,10.2c-3.1,1.5-5.6,4.2-8.4,6.4c-0.4,0.3-1,0.9-1.5,0.8c-2.6,0-4.4,1.6-6.5,2.7
	c-4.8,2.7-10.3,2.9-15.6,3.1c-7.7,0.2-14.4-3-21.2-6.3c-5.4-2.7-9.3-6.8-13.7-10.5c-1.2-1.1-2.4-2.5-2.9-3.9
	c-1.8-4.7-3.6-9.5-5-14.3c-0.5-1.9-0.2-4.1-0.1-6.1c0-1.2,0.5-2.5,0.2-3.6c-1.8-7.2,1.4-13.3,4.6-19.2c4.3-8.1,9.1-15.9,13.7-23.8
	c0.4-0.6,1-1,1.6-1.5c5.1-4.7,10-9.7,15.4-14c6.6-5.2,14-9.1,23.1-6.4c2.7,0.8,5.6,0.6,8.5,0.8c0.9,0.1,2-0.1,2.6,0.4
	c3.8,3.1,8.5,4.7,11.7,8.7c3.5,4.3,5.9,9.3,8.7,14c2.8,4.7,4,10,4.2,15.5c0.1,3.9,0,7.8,0,11.7C607.2,166.1,607.3,166.1,607.5,166.1
	z M597.1,162.9c0.1-8.2-1.1-14.1-5.3-20.8c-1.6-2.5-2.8-5.2-4.4-7.7c-0.7-1-1.8-2-2.9-2.5c-4.5-1.9-9.3-1.8-13.9-1.3
	c-3.5,0.4-7,1.5-10.5,2.5c-4.3,1.2-8.8,2.2-12.8,4.1c-6.8,3.3-11,9.5-15,15.6c-1.9,3-3.4,6.3-5.2,9.4c-3.5,5.7-5.6,11.6-5.1,18.5
	c0.4,6.7,2.2,12.6,5.8,18.4c3.8,6.2,9,10.2,15.1,13.3c7.7,3.9,14.9,4.5,23.3,1.6c5.7-2,11.3-4.4,16.6-7.3c3.1-1.7,5.7-4.3,8.1-7
	c1.5-1.6,2.1-3.9,3.1-5.9c2-3.9,4.3-7.6,2.9-12.3c-0.2-0.5-0.1-1.2,0.1-1.7c1.3-4.5,1.6-9.1,0.5-13.7
	C597.1,165,597.2,163.9,597.1,162.9z"/>
<path fill-rule="evenodd" clip-rule="evenodd" d="M430.7,128.5c7.6,2.3,15.7,2.3,22.9,6.3c3.1,1.8,6.5,2.9,9.7,4.4
	c0.5,0.2,0.9,0.7,1.3,1.1c3.1,3.1,3.9,8.1,8.3,10.2c0.2,0.1,0.3,0.5,0.3,0.8c0,6.3,5.2,10.3,7,15.8c0.2,0.5,0.9,1,0.9,1.5
	c0.2,4.9,0.7,9.8,0.4,14.6c-0.2,2.9-1.6,5.7-2.5,8.6c-1.2,3.7-2.5,7.4-3.7,11.1c-2.6,8.4-8.4,14.8-13.6,21.6
	c-1.7,2.3-4.6,3.7-7.1,5.3c-3.3,2.2-6.8,4.2-10.1,6.3c-4,2.5-8.6,2.5-13,3.2c-2.4,0.4-5.1-0.8-7.7-1.3c-4.8-1-9.6-2-14.4-3.2
	c-3.5-0.8-7-1.6-9.7-4.3c-0.5-0.5-1.2-0.8-1.9-1.1c-4.9-2-8.4-5.7-11.4-9.9c-1.8-2.5-4.4-4.6-5.8-7.3c-1.8-3.6-3.2-7.5-3.9-11.4
	c-1.8-9.8-1.5-19.7-1.1-29.6c0.1-2.2,0.7-4.4,2.9-6.2c1.9-1.6,3.3-4.3,4.1-6.8c0.8-2.5,2.6-3.8,4.3-5.5c3.6-3.7,7.4-7.4,10.5-11.5
	c2-2.6,4.6-3.1,7.2-4c0.8-0.3,1.9-0.2,2.6-0.7c4.7-3.8,10.8-4.1,16.1-6.3C425.7,129.4,427.9,127.9,430.7,128.5z M433.6,229.7
	c1.7-0.3,3-0.4,4.3-0.9c2.5-1,4.9-2.5,7.5-3.1c4.2-1,7.6-2.9,10.7-5.8c1.6-1.5,3.7-2.5,5.4-3.7c0.4-0.3,0.7-0.9,0.9-1.4
	c0.8-1.4,1.6-2.8,2.5-4.2c3-4.8,5.8-9.6,6.8-15.3c0.5-2.9,0.7-6,2-8.6c3.5-7.3,0.7-13.7-2.3-20c-1.6-3.3-3.9-6.4-6.3-9.3
	c-3.6-4.3-7.1-8.8-12.1-11.7c-4.6-2.7-9.4-4.1-14.6-5.1c-5-1-9.6-1.9-14.4,0.4c-5.9,2.8-12.4,4.7-17.9,8.2
	c-4.5,2.8-7.9,7.2-11.7,11.1c-5.2,5.4-6.4,12.2-6.9,19.3c-0.2,2.8,0.2,5.9-0.7,8.4c-0.7,1.8-0.9,3.4-0.6,5.1c1,6.4,2.9,12.4,8,16.9
	c0.5,0.5,1.2,1,1.4,1.7c2.4,6.3,8.1,9.2,13.5,11.5c3.6,1.5,7.7,2.7,11.7,3.6C425.2,227.6,429.5,228.7,433.6,229.7z"/>
<path fill-rule="evenodd" clip-rule="evenodd" d="M520.7,246c-0.9,1.9-1.4,3.1-2,4.4c0.9,1.1,1.7,2.2,2.6,3.4
	c-1.2,2.1-2.9,3.3-5.2,4.4c-4.1,2-7.9,4.8-11.7,7.4c-1.8,1.3-3.6,2.7-5.1,4.3c-1.3,1.4-2.7,3.1-3,4.8c-0.7,3.3-2.3,6.5-1.2,10.1
	c0.2,0.7-0.7,2.5-1.2,2.5c-2.3,0.1-3.3,1.7-4.7,3c-1.7,1.8-5.7,0.9-6.8-1.7c-2.7-6.6-5.6-13.1-6.4-20.4c-0.4-3.8-1.3-7.6-0.5-11.4
	c0.9-4.5,2.3-9,4.8-12.8c1.7-2.7,4.4-4.7,6.5-7.3c2.6-3.2,4.8-6.7,7.3-10c1.4-1.8,4.3-2.5,6.4-1.2c3,2,6.1,4.1,8.7,6.7
	C513.1,236.7,516.8,241.4,520.7,246z"/>
<path fill-rule="evenodd" clip-rule="evenodd" d="M132.4,343.3c4.9-1.4,10.2,2.4,15.6,7c3,2.6,6.8,4.3,10.3,6.3
	c3.1,1.8,5.4,4.2,6.7,7.6c0.8,2.1,2,4,2.7,6.1c1.2,3.6,1.4,7.3,1.1,11.1c-0.5,6.9-1.1,13.6-4.1,20c-0.8,1.7-0.7,3.8-1.5,5.5
	c-3.4,7.3-8.7,13.3-15.2,17.8c-3.7,2.6-8.5,3.5-12.7,5.5c-6.1,2.9-12.4,3.4-19.1,3.3c-10.4-0.2-18.8-4-24.4-12.6
	c-3.7-5.7-6.2-12.2-7.1-19.1c-0.6-4.5-2-9-0.4-13.6c0.2-0.6-0.3-1.4-0.3-2.2c0.1-1.4-0.1-3.1,0.5-4.2c2.7-4.8,4.1-10.2,6.6-15
	c1.8-3.6,5.5-6.3,8.4-9.3c1.1-1.2,2.7-2,3.7-3.2c2-2.5,3.9-5,7.4-5.4c0.1,0,0.3-0.1,0.4-0.2C116.3,343.1,123.3,344.4,132.4,343.3z
	 M94.5,392.2c3.3-4.1,6.2-7.5,9-11c0.4-0.5,0.7-1.3,1.1-1.3c4.5-0.7,8.7-4,13.6-1.8c0.8,0.4,1.7,0.5,2.6,0.6
	c7.3,0.7,12.8,4.8,17.6,10c5.3,5.8,5.6,12.5,1.2,18.8c-5,7.3-12.3,11-20.8,12.5c-2.9,0.5-5.7,1-8.6-0.6c-1.2-0.7-2.8-0.7-4.2-1.1
	c-0.1,0.3-0.3,0.5-0.4,0.8c1.1,0.9,2.1,2.3,3.3,2.7c7.1,1.9,14.2,1.7,21.2-0.5c3.4-1.1,6.4-3.3,9.8-4.3c6.6-1.9,9.6-7.9,14.4-11.8
	c0.5-0.4,0.6-1.3,0.8-2c1.3-5.2,2.8-10.4,3.8-15.7c0.6-3,1.5-6.6,0.4-9.2c-2.4-5.8-3.4-12.7-11.1-15.2c-5-1.7-9.5-4.9-14.2-7.4
	c-3.8-2.1-7.2-1.4-10.2,1.5c-2,1.9-4.3,2.6-7,1.2c-0.9-0.5-2.5-0.7-3.3-0.2c-3,1.9-6.3,3.7-8.6,6.3c-5.1,5.8-8,12.9-10,20.2
	C94.3,387,94.6,389.4,94.5,392.2z M107.8,394.3c-0.5,3.9,1,8.3,3.4,10c4.9,3.4,9.8,4.7,15.2,0c-0.5-2.3-1-5-1.6-7.8
	c-0.8-0.4-2-0.6-2.7-1.3c-2.4-2.8-5.4-2-8.3-1.6C112,393.9,110.1,394.1,107.8,394.3z"/>
<path fill-rule="evenodd" clip-rule="evenodd" d="M214.2,330.4c5.9,0.8,12.6,0.4,18.6,4c5.1,3,10.1,6.2,14.6,10
	c2.8,2.4,5.2,5.6,6.8,8.8c2.1,4.2,3.4,8.9,5,13.3c0.2,0.6,0.4,1.2,0.3,1.7c-1.1,6.6-2.1,13.2-3.5,19.7c-0.4,2-1.8,3.8-2.9,5.5
	c-2.6,4-4.9,8.3-8,12c-3.3,4-7.1,7.7-11.1,11.1c-2.4,2.1-5.4,3.8-8.4,5c-4.8,1.9-9.8,0.4-14.6-0.6c-3.8-0.8-7.4-2.2-11.2-3
	c-6.7-1.6-12.2-4.7-16.1-10.5c-2.4-3.6-5.2-6.9-7.3-10.7c-1.3-2.3-1.8-5.1-2.5-7.7c-2.4-8.5-1.8-17,0.5-25.3
	c1.1-3.9,2.9-7.8,6.2-10.7c3.9-3.4,5.4-8.3,8.2-12.5c1.1-1.7,2.2-3,4.1-3.9C199.6,333.5,206.1,330.4,214.2,330.4z M184.1,376
	c0.4-0.6,0.8-1,1-1.5c1.4-2.5,2.4-5.3,4.2-7.3c4.7-5.2,11.2-6.9,17.9-8c1.1-0.2,2.4,0.3,3.5,0.6c1.4,0.5,2.7,1.5,4.2,1.6
	c3.8,0.3,6.1,2.5,7.8,5.4c2.8,4.8,5.4,9.8,3.2,15.7c-0.9,2.5-1.4,5.2-2.5,7.5c-0.9,2-2.2,4-3.9,5.3c-3.6,2.7-7.6,4.8-11.3,7.2
	c-1.6,1-2.9,2.4-4.8,3.9c4.7,2.5,9.1,3.8,13.7,4.1c2.8,0.2,5.7,0.8,8.2-1c4.6-3.2,10.6-4.6,13.1-10.4c0.3-0.7,0.9-1.2,1.5-1.7
	c6.4-6,8.9-14,10.9-22.2c0.3-1.1,0-2.4-0.3-3.6c-1.8-6.9-4.8-13.2-9-18.9c-0.5-0.7-1.3-1.1-2.1-1.6c-2.8-1.7-5.7-3.3-8.5-5
	c-1.8-1.1-3.3-2.6-5.7-1.3c-0.5,0.3-1.7-0.2-2.3-0.7c-4.8-3.2-10-3.7-15.3-1.9c-3.4,1.1-6.4,3.2-9.8,4.5c-2.2,0.8-3.3,2.3-4.4,4.2
	c-0.9,1.6-2.3,3-3.6,4.4c-0.6,0.7-1.5,1-2.1,1.6C184.6,360.2,182.5,371.1,184.1,376z M198.6,378c-3.1,0.6-3.9,1.4-5,5.1
	c-1.5,5.1,1.7,8.5,6.9,7.4c1.9-0.4,3.7-1,5.6-1.5c4.4-1.1,4.9-1.9,3.7-6.7c-0.8,0-1.6-0.1-2.6-0.2c1.5-5-2.8-6.1-5-8.6
	C198.8,375.2,198.8,375.2,198.6,378z"/>
<path fill-rule="evenodd" clip-rule="evenodd" d="M160.6,469.1c-0.2-0.2-0.5-0.4-0.6-0.6c-1.9-2.8-5.1-5.6-5.3-8.6
	c-0.3-4.7,1.2-9.6,2.2-14.4c1.1-5.5,2.5-11,3.9-16.5c0.5-1.8,1.3-3.7,2.4-5.2c0.6-0.8,1.9-1.5,3-1.6c2.2-0.1,4.4,0.2,7,0.4
	c0.8,1.8,2.4,2.8,4.7,3.7c4.6,1.9,6.7,6.6,8.8,10.7c1.9,3.7-0.5,6.9-4.5,8.9c-2.9,1.4-5.6,3.3-8.4,4.9c-0.5,0.3-1,0.8-1.2,1.3
	c-1.7,4-3.8,7.9-4.8,12C166.3,469.4,166.4,469.7,160.6,469.1z"/>
<path fill-rule="evenodd" clip-rule="evenodd" d="M806.3,368.6c-1.1-4.8,0.8-9.6,3.9-14c0.6-0.8,1.2-1.8,1.3-2.8
	c0.4-3.2,2.6-5.2,4.9-7.1c1.6-1.3,3.1-2.7,4.5-4.2c4.4-4.4,9.9-6.7,15.7-8.5c3-0.9,6.2-1.3,9.3-1.7c2.5-0.3,4.7-0.1,6.6,1.8
	c0.8,0.8,2,1.7,3,1.8c5,0.6,8.9,3.5,13.1,5.9c9.8,5.9,14,17.1,11,28.3c-3,11-8.2,20.6-17,28c-2.1,1.8-4.7,3.1-7.2,4.4
	c-4.2,2.3-8.3,4.9-13.1,5.8c-1.7,0.3-3.8,0.7-5.3,0.1c-5.9-2.5-12.2-4.1-17.2-8.5c-4.4-3.9-8.5-8.2-11.3-13.3
	c-1.7-3.1-1.7-7.2-2.3-10.9C806.1,372.4,806.3,370.8,806.3,368.6z M825.8,353.5c0.2,0.3,0.4,0.7,0.6,1c1-0.2,2.2-0.2,3-0.8
	c3.1-2.5,6.4-4,10.5-3.4c2.2,0.3,4.5,0.3,6.5,1c2,0.8,4.1,1.5,5.5,3.9c1.9,3.1,3.4,6.2,4.9,9.4c1.2,2.7,1.6,5,0.5,7.6
	c-0.8,1.9-1.4,4-2.6,5.6c-3.5,4.8-7.2,9.4-13.2,11.7c-2.5,0.9-4.6,1.8-7.2,0.7c-1.9-0.9-3.9-1-6.3-0.3c0.6,0.9,0.9,1.9,1.3,2
	c2,0.3,3.3,1.7,5,2.6c2.9,1.5,6,2.7,9.4,1.4c4.8-1.9,9.8-3.4,13.1-8c0.4-0.6,1.1-1.1,1.7-1.4c4.2-2.5,7.2-6,8.7-10.7
	c0.9-2.7,2.1-5.2,3.3-7.8c2.3-5.3,1-13-3.2-16.9c-3.1-2.8-6.3-5.5-10.7-6c-1.9-0.2-3.6-1.3-5.4-1.8c-2.6-0.7-5.2-2-7.7-1.8
	c-5,0.4-9.7,1.9-12.7,6.5c-0.3,0.5-0.8,0.9-1.2,1.3C828.2,350.8,827,352.2,825.8,353.5z M825.1,386.5c-0.4-0.7-0.8-1.5-1.3-2.2
	c-4.6-5.5-5.7-12.1-5.1-19c0.1-1.3,1-2.7,1.8-3.8c1.3-1.9,3-3.6,4.3-5.6c0.8-1.2,0.6-2.3-1.5-2.6c-0.7,3.3-2.5,5.9-5.4,7.8
	c-0.5,0.3-0.9,1.2-1.1,1.9C814.5,372.5,817,380.5,825.1,386.5z M841.1,372.3c-0.2-0.4-0.2-0.7-0.4-1c-0.9-1.8-8.6-2.3-9.8-0.6
	c-0.2,0.2-0.3,0.5-0.4,0.8c-0.5,2.2,3.2,6,5.2,5.3c1.5-0.5,2.9-1.3,4.2-2.3C840.6,374.1,840.8,373,841.1,372.3z"/>
<path fill-rule="evenodd" clip-rule="evenodd" d="M955.2,388.4c0.7,10-4.2,18-9.8,25.7c-2.8,3.8-5.8,7.7-9.3,10.9
	c-7.3,6.7-16.2,9.3-26,8c-3.5-0.4-7.1-0.8-10.4-1.8c-6.3-1.9-10.3-6.7-12.6-12.5c-1.9-4.8-2.8-10.1-3.8-15.2c-0.7-3.6-1.1-7.4-1-11
	c0-1.8,1.4-3.5,2-5.3c2.1-5.9,5.2-11.3,8.5-16.6c2.5-4.2,6.7-5.9,11-7c2.4-0.6,4.4-1.8,6.4-3c1.5-0.9,3.1-1.6,4.6-2.5
	c3.2-1.8,6.4-1.8,9.9-0.9c4,1,8.2,1.1,12.1,2.7c6.4,2.5,11,6.5,13.5,13c0.7,1.9,2,3.7,3.1,5.5C954.9,381.4,955.8,384.6,955.2,388.4z
	 M894,404.1c-0.2,0.1-0.5,0.2-0.4,0.3c0.6,4.9,2.2,9.5,5.6,13.1c1.7,1.8,3.9,4,6.1,4.4c3.6,0.6,7.4,1.8,11.3,0.3
	c2.6-1,5.9-0.8,7.9-2.4c3.7-3,8.1-5,10.9-9.1c2.7-4.1,6.4-7.8,8.1-12.2c2.4-6.3,3.4-13-0.9-19.4c-3.9-5.8-7.9-11.2-15.8-11.2
	c-1.2,0-2.3-0.9-3.5-0.8c-3.1,0.1-6.7-1.7-9,2.5c-0.7,1.2-3,1.6-4.7,2c-3.1,0.7-6.1,1.7-8.3,4.1c-4.7,5.3-7.2,11.7-8.7,18.5
	c-0.3,1.4-0.7,3.2,1,4.8c0.3-0.9,0.6-1.4,0.6-1.9c-0.1-3.8,1.5-6.5,4.9-8.5c2.1-1.3,3.9-3.2,5.9-4.7c2-1.5,4.1-2.8,6.3-4
	c4.3-2.4,8.7-1.2,12.9,0.2c6,1.9,10.8,5.1,11.7,12c0.1,0.6,0.2,1.3,0.5,1.7c1.8,2,0.7,4.1-0.1,5.9c-3.7,8.2-10,13.4-18.5,15.7
	c-3.8,1.1-7.8,1.4-11.9,2.2C902,412.8,896.2,410,894,404.1z M915.4,403.9c0.2-2.1,0.4-4.3,0.5-5.9c-1.8-1.4-3.3-2.6-4.8-3.8
	c-1.6-1.3-3.3-1-4.1,0.6c-1,1.9-1,6.5,0.1,7.7C909.2,404.9,911.8,405.3,915.4,403.9z"/>
<path fill-rule="evenodd" clip-rule="evenodd" d="M830.5,473.8c-0.7-1.7-1.1-2.6-1.7-4.1c-1.8,1.1-3.5,2.1-5.7,3.5
	c-0.5-1.2-1.2-2.3-1.2-3.5c-0.2-3,0.3-6-0.3-8.9c-0.5-2.5,0.2-4.3,1.3-6.3c0.7-1.2,1.2-2.7,1.6-4c1.7-6.4,3-13,6.7-18.6
	c3.5-5.2,8.1-9.5,14.1-12c2.5-1,5-1.8,7.5-2.7c1-0.3,2.4-0.2,2.9-0.9c1.6-1.9,3.3-1.2,4.9-0.5c1.4,0.6,2.2,1.8,3.1,3.2
	c2.1,3.4,3.5,7.2,5,10.8c1.8,4.2,3.5,8.5,4.5,12.9c0.6,2.7-0.3,5.8-0.7,8.7c-0.3,2-2,3-3.8,3.2c-3,0.4-6,0.9-8.9,0.8
	c-6.6-0.2-12.2,1.5-17.3,5.8C838.1,465.1,834.1,468.6,830.5,473.8z"/>
<path fill-rule="evenodd" clip-rule="evenodd" d="M492.3,512.6c-0.5-0.7-1-2.1-2-3c-2.7-2.5-3.9-5.2-3-8.9c0.2-0.6-0.2-1.4-0.4-2.1
	c-1.7-4.3-0.8-8.1,2.4-11.1c4.4-4.2,8.9-8.6,13.9-11.9c3.8-2.5,8.1-4.6,12.7-6.3c4-1.4,7.8-3.8,12-4.9c2.7-0.7,5-2.5,7.7-3.3
	c6.5-1.9,13-3.7,19.9-2.1c2.6,0.6,5.3,0.6,8,1.2c1.4,0.3,2.8,1,3.9,1.9c2.1,1.6,4.6,2.2,6.7,0.9c5.8-3.6,11.9-2.1,17.9-1.7
	c1.9,0.1,3.9,0.4,5.8,0.9c2.9,0.8,5.8,1.6,8.5,2.8c3.4,1.6,6.5,3.7,9.9,5.3c3.4,1.6,6.3,3.5,7.4,7.3c0.2,0.5,0.6,1.2,1,1.4
	c3.9,2.3,4.3,6.1,4.5,10.1c0.2,4.2-1.4,7.4-3.7,10.7c-5.1,7.4-11.9,12.4-19.5,16.8c-5.5,3.2-11.3,5.3-17.4,6.8
	c-4.8,1.2-9.5,2.9-14.3,3.4c-5.8,0.7-11.6,1-17.4-0.6c-4.1-1.2-8.5-1-12.6-2.1c-6.1-1.7-12.2-1.3-18.3-1.7c-0.9-0.1-1.8-0.3-2.6-0.7
	c-6.9-2.9-14.2-4.5-21.5-5.8C498.8,515.4,496,513.9,492.3,512.6z M553.9,465.5c0,0.1,0,0.2,0,0.2c-2.1,0-4.2-0.1-6.3,0
	c-7.1,0.6-13.9,2.4-20.2,5.4c-5.5,2.6-10.7,5.7-15.9,8.8c-4.8,2.8-9.4,5.9-13.2,10c-4.8,5-5.3,7.7-2,14c0.7,1.4,0.7,3.4,3.1,3.9
	c2.9,0.7,5.7,1.9,8.3,3.2c3.6,1.7,7.4,1.7,11.2,2.3c5.6,0.9,11,2.8,16.6,3.1c8.1,0.5,16,1.4,23.9,3c5.6,1.1,11.3,1.1,16.9,0
	c3.1-0.6,6.2-1.3,9.3-1.1c1.8,0.1,3.1,0,4.6-0.9c1-0.6,2.2-0.9,3.3-1.3c2.8-1,5.8-1.6,8.4-2.9c5.6-2.6,10.2-6.4,14.6-10.9
	c6.7-6.9,4.6-13.5,0.9-19c-2.8-4.1-7.2-6.3-11.6-8.1c-3.5-1.5-6.3-4.3-10.2-5.2c-3.5-0.8-6.6-3-9.9-4.6c-0.4-0.2-0.9-0.1-1.3,0
	c-4.7,1-9.4,1.4-14.1,0.2c-0.8-0.2-1.7,0.3-2.6,0.4c-1.2,0.1-2.4,0.3-3.5,0.3C560.8,466.1,557.3,465.7,553.9,465.5z"/>
<path fill-rule="evenodd" clip-rule="evenodd" d="M535,185.3c0-11.4,4.9-18,13.6-22.3c2.8-1.4,5.1-3.6,8.5-3.3
	c0.6,0.1,1.3-0.4,1.7-0.2c6.3,3.1,13.9,4.1,17.7,11.3c2.2,4.1,2.7,8.2,1,12.5c-0.8,2.1-1.9,4-2.8,6.1c-2.3,5.8-6.8,9.2-12.5,10.5
	c-5,1.2-10,2.5-15.3,0.7C539.7,198,534.8,191.5,535,185.3z M552.4,191.3c3.4-1.1,6.4-2,9.2-3.2c0.9-0.4,1.7-1.8,2-2.9
	c0.6-1.8,0.9-3.7,0.9-5.6c0-0.8-0.9-2.1-1.6-2.3c-3.7-0.9-7.4-1.8-11.2-2.2c-1.2-0.1-2.9,0.9-3.8,1.9c-2.8,3.2-2.1,9,1.2,12
	C550.1,189.9,551.4,190.6,552.4,191.3z"/>
<path fill-rule="evenodd" clip-rule="evenodd" d="M429.3,214.7c-3.9-1.1-8-2.1-11.8-3.5c-1.4-0.5-2.5-2.1-3.5-3.3
	c-3-3.4-5.9-7.2-6.2-11.6c-0.3-4.3,0.6-8.7,2.3-13c1.9-4.7,5.2-8,8.9-10.7c3.7-2.7,8-4.8,12.4-5.9c4.1-1,8.3,0.4,11.7,3.4
	c1.8,1.6,3.7,3,5.4,4.6c4.4,4.1,6.9,8.9,6,15.1c-0.4,2.8-0.4,5.8-1.4,8.4c-1,2.6-2.7,5.1-4.7,7c-4,3.8-8.4,7.4-14,8.5
	c-1.6,0.3-3.3,0.3-4.9,0.5C429.4,214.4,429.4,214.6,429.3,214.7z M441.9,196c0-3.1-5.3-8.2-8.5-8.2c-0.4,0-0.9,0.2-1.2,0.3
	c-4.1,1.8-5.8,5.7-4.4,10.1c0.8,2.5,4.1,4.2,6.7,3.3c1.6-0.5,3-1.3,4.6-1.7C441.4,199.5,441.8,197.9,441.9,196z"/>
<path fill-rule="evenodd" clip-rule="evenodd" d="M531.7,494.9c0.4,0.2,0.8,0.7,1.3,0.8c6,1,11.7,3.3,17.9,3.4
	c3.5,0.1,6.9-0.7,10.5-0.4c4.1,0.4,8.5-1.3,12.7-2.4c1.3-0.4,3-1.9,3.3-3.2c0.4-1.6-0.4-3.5-2.4-4.5c-1.1-0.5-2.1-1.3-3.2-1.8
	c-1.7-0.7-2.3-1.9-1.5-3.6c0.8-1.7,2-3,4.2-2.7c5.2,0.8,9,4,10.6,8.9c1.1,3.5-1.5,7.4-4.2,9.8c-4.4,3.8-9.6,3.8-14.6,4.5
	c-5,0.7-10.2,0.7-15.3,0.8c-8.2,0.2-15.9-2.8-23.7-4.7c-3.1-0.8-5.7-5.7-5.3-8.9c0.6-5.2,4.1-8.7,8.2-10.6c2.6-1.2,5.5-2.4,8.3-3.5
	c3-1.1,5.8-2.8,8.8-3.3c5.4-0.8,11.2-1.4,16,2c2,1.4,3.4,3.7,4.6,5.9c0.4,0.8,0.1,2.8-0.6,3.2c-1.3,0.8-3,1.3-4.5,1.2
	c-1.2,0-2.6-0.9-3.6-1.7c-3.5-3-7.7-2.5-11.6-1.9c-6.4,1-11.6,4.5-15.3,9.9c-0.3,0.5-0.6,1-0.7,1.6
	C531.4,494,531.6,494.3,531.7,494.9z"/>
</svg>
