<?xml version="1.0" encoding="utf-8"?>
<!DOCTYPE svg PUBLIC "-//W3C//DTD SVG 1.1//EN" "http://www.w3.org/Graphics/SVG/1.1/DTD/svg11.dtd">
<svg artist="zl2017" version="1.1" id="zlIcon-postamp" xmlns="http://www.w3.org/2000/svg" xmlns:xlink="http://www.w3.org/1999/xlink" x="0px"
	 y="0px" width="1000px" height="1258.2px" viewBox="0 0 1000 1258.2" enable-background="new 0 0 1000 1258.2"
	 xml:space="preserve">
<g>
	<g>
		<path d="M58,1034.9c-1.2-10.9,2.7-39.1-13.2-41.9c-23.4-3.9-37.1,0-32.8-29.8c4.6-31.8,14.6-13.6,35.9-22.2
			c12.4-5.1,10.3-35.3,1.6-41.8c-10.4-7.8-74.6-17.8-28.9-51.9c15.1-11.3,33.3,8.5,31.3-21.3c-2.1-31.3-21.6-6.6-39.2-21.6
			c-10.4-8.9-12.4-49.4,3.7-52.7c26.6-5.6,40.5,1.7,40.5-29.1c-0.2-33.3-49.2-3.6-48.3-60.6c0.5-29.4,40.6-9.3,43.1-22
			c2.8-14.1,3.2-32.9-14.5-33.3c-20.2-0.7-29.5-8.4-28.5-29.1c2.1-41.6,17.7-20.3,39.3-39.4c39.5-34.9-39.2-28.1-37-51.5
			c3.2-34.2,60-33.5,35-65c-10.8-13.6-44.2,4.6-40.4-23.7C9.3,370,6.4,356,40.6,357c16.3,0.5,14.1-44.4-10.1-40.2
			c-36,5.9-21.9-60.1,4.3-59.5c58.7,1.4-26.6-48.9-22.9-63.9c6.7-27.1,60.6-24.5,44.5-53.7c-10.1-18.4-35-1.8-42.9-21
			C-4,76.2,25.8,79.6,54.5,66.6c19-8.5,21.6-34.3,42.2-43.7c34.3-15.7,38.1,13.9,36.6,38.6c53.7,0,20.3-36.8,56.2-44.7
			C237.3,6,210.7,66.6,237,64.1c38.3-3.7,14.2-26.5,42.7-41.8C322-0.4,301,61.5,323.6,60.7c33.9-1.2,29.7-40.7,49.8-39.2
			c13.8,1.1,30.2-11.5,36.8,6c2.2,5.7,1.9,33.9,9.6,35.2c56.2,7.8,26.7-25.3,57.1-44.6c37.8-24,50.5,18.5,48.1,44.4
			c20.2-1.1,42.4,1.5,42.7-25c0.4-26.5,41.2-21.5,59.7-23.7c7.6,15.7-8.6,32.3,8,45.2c8.2-4.4,42.4-15.8,43.3-27.5
			c1.6-18.8,44-35,59.1-22.2c8.9,7.5,17.5,87.9,45.7,27.5C796.8,8.4,789.1,9,820.2,5.1c49.1-6.2,30.3-5.2,49.1,30
			c13.9,26,77.4-13.5,102.4,11.5c14.5,14.5,22,67,8.4,83.7c-3.4,4.2-81.4,39.3-32,51.3c31.2,7.5,63,26.9,42.4,66
			c-12,22.7-50,5.4-52,41.6c-1.9,35,58,2.2,55.8,33c-2.9,39.3-1,45.3-40.7,51.1c-29.8,4.3-2.4,23,7.6,27.3
			c22.2,9.8,35.6,22.4,34.6,48.6c-1.5,35.9-66.6,12.2-59.8,56.6c3.1,19.4,45.8,9.7,54.5,32.7c13.8,36.5-49.9,43.7-50.5,80.7
			c-0.6,34.8,66.8-3.8,51.9,60.5c-6.9,29.9-48.8,16.7-51.6,46.9c-2.9,32.3,20.1,30.9,46.2,38.1c23.7,6.6,10.9,46.4-10.9,49.1
			c-27.6,3.4-47.8,39.4-10.4,42.8c27.1,2.5,38.4,39.5,26.4,62.8c-8.1,15.8-63.1,8.8-47.8,44.8c6.9,17,39.3-2.1,43.9,25.5
			c2.4,14.7,6.8,36-1.9,49.3c-10.7,16.5-34.5-1.8-34.3,22.5c0.3,27.7,48.2,6.6,48.3,51.6c0.1,38.9-2.8,37.1-37.5,46.1
			c-32.1,8.3,10.5,55.5-38.3,49.1c-18.5-2.4-61.5-51.8-68.4-22.7c-4,16.2,3.1,36-20.6,37.1c-6.5,0.3-33.2,3.8-39.5-2.6
			c-13.3-13.5-8.8-32.5-31-29.3c-16,2.3-21.7,13.4-20.1,29.2c2.1,20.3-61.2,23.6-64.6,12.4c-4.7-15.5,4.6-28.5-17.4-33.8
			c-21.5-5.2-11.8,22.3-17.4,33.7c-5.9,12.1-41.9,5.4-50.9,0.6c-27.1-14.1-6.2-37.2-53-21.9c-7.4,2.4-1.2,25.5-7.6,31
			c-11.3,9.8-40.9,1.3-54,1.5c-25.1,0.2,10.4-37.6-28.5-40c-40.1-2.5-13.8,39.9-47.1,43.7c-37.7,4.5-44.6,13.7-57-26.2
			c-3.6-11.5-14.8-9.6-24.6-9.5c-22.3,0-7.2,23.2-15,38c-7.9,14.9-62,4.6-62.8-14.2c-0.9-28.9-26.5-26.5-38.7-8.4
			c-15.3,22.8-44,50.2-66.2,9c-16.7-31.1-25.3-20.5-37,8.7c-9.4,23.3-53.5,12.4-59.3-8.5c-2.8-10.1,7.2-34-13.8-29
			c-8.1,2-25.9-3.5-28.5-12.6c-17.6-62.5,32.9-32.9,53.1-58.9c32.6-41.8-26.8-37.5-39-49.7C-19.2,1051.5,38.8,1037.3,58,1034.9
			C56.5,1021.5,47.4,1036.2,58,1034.9z"/>
		<path fill="#FFFFFF" d="M363.8,1242.7c-7.3-40-8.6-46.7-54.2-39.9c-17.7,2.5-1.3,73.9-48,36.5c-18.2-14.6-5.7-64.4-49.4-40.4
			c-2.1,1.1-54.4,85.8-57.9,34c-1.7-25-9.9-46.9-45.9-29.5c-15.2,7.3-7.5,25.8-15.4,37.4c-14.6,21.5-38.5-3.8-38.4-19.6
			c0.3-42.2-40.5-9.3-46.2-37.6c-9.7-48.7,44.2-17.3,54.9-44.4c10.7-27.3,12.8-57.8-20.1-58.4c-17.7-0.2-25.3-8.4-19.6-25.8
			c5.2-16.4,30.8-2.5,41.3-14.3c11-12.5-1.6-45.4-3.9-58.8c-17.6,1.7-41.9,8.6-40.8-17.6c0.9-20.1,14.6-10.4,26.8-14.3
			c26.9-8.6,14.3-43,12.6-65.1c-8.7,0-31,4.4-37.5-4.6c-6.5-9,0.9-26.7,13.6-24.7c37.5,6.1,40.5-65.4,1.4-58.8
			c-28.1,4.8-25.1-31.4-4.4-39.4c39-14.8,33-16.3,33-62.6c-9.6,0-53.8,7.8-45.8-13.8c4.4-13.2-10-25,14-26c28.5-1.3,31-7,27.6-34.1
			c-5.8-45.7-32.1-5.1-42.5-36.3C7.9,551.1,33.8,556.3,53.4,548c17.8-7.5,20.8-57.8-5.3-54.8c-8.9,1-27.5,4.3-27.6-9.3
			c0-24.2,28.1-24.5,46.1-31.1c-7.4-11.1-1.6-40.2-17.7-45.9c-15.5-5.5-38.6,0-34.3-25.9c4.1-24.3,28.9-7.3,40-19.4
			c8-8.6,5.4-41.8,6.5-52.7c-12-1.3-73-16.1-31-39.2c12.6-6.9,47.2-4.3,36.1-29.4c-12-26.7-2.1-20.8-31.5-28.5
			c-54.6-14.5,32.4-43.9,33.6-45.4c35.2-44.3-43.3-46-47.7-63.4C11.7,67.7,73,94,81,66.6c4.3-14.7,12.4-50.6,38.5-35.1
			c13.3,7.8-3.2,29.2,9,37.8c50.4,35.6,43.2-34.5,64.9-43.2c23.4-9.4,20.9,23.2,20,33.8c-1.3,14.2,20.4,14.5,30,15.6
			c28.2,3,39.3-60.3,57.7-40.8c12.3,13.1-1.8,37.9,25.6,38.4c22.2,0.4,38.1-11.2,41-33.2c1.9-14.4,17.1-9,26-8.6
			c14.2,0.8,9.5,28.3,13.1,36.4c11.4,25.5,66.1-6.9,68-29.2c1.2-13.8,11.9-11.6,21.7-10.8c38,3.1,5.5,24.6,20.6,41.1
			c38.6,42.1,58.2-34.4,75.3-40.8c40.5-15,14.1,36.1,51.2,41.3c29.3,4.1,37.4-7.8,43.4-32.9c4-16.9,28.7-17.7,42.2-20.8
			c2.9,24.2,13.2,71.7,51.6,52.3c11.5-5.8,14.7-30.3,18.3-39.5c6.5-17.1,36.3-16.1,51.4-20.6c6.6,44.7,5.6,47.8,50.3,50.5
			c27.3,1.7,115,16.2,73.3,64.4c-25.3,29.3-46.8-2.2-47.6,57.6c-0.3,22.3,88.9,5.6,56.1,59.2c-21,34.4-51.3-2.7-53.3,54
			c-1.3,37.7,52.7,6.6,55.5,50.8c1.7,27.2-51,10.3-52.6,39.6c-2.2,39.6,52.9,11.9,53.5,54.7c0.4,31.1-34.1,18.6-50.3,33.3
			c-31.9,28.8,2.1,51.7,27.9,54.9c60.8,8-22,49.2-25.8,52.9c-8.4,8.2-5.4,35.5-6.3,45.9c-1.7,20.6,35.4,16.7,47.3,17.9
			c10.7,60.4-11.2,28-41.5,60.5c-13.6,14.6-9,54.3,11.5,60.5c9.6,2.9,61.1,11.2,35.6,33.2c-7.6,6.5-92.6,40-43.1,66
			c11.4,6,33.7-7,39.7,10.2c3,8.3,9.9,36.9-1.4,42c-34.2,15.4-41-1.9-47.7,43.5c-4.8,30.4,42.7,8.5,47,37c8.1,53-21,19.5-39.3,48.8
			c-14.1,22.5,9.4,40.2,27.3,42.3c23.9,2.8,26.2,18,24.7,41c-2.1,32.1-44.1,3.4-49.7,38.1c-5.5,35.2-36.8,44.1-41.5,3.5
			c-3-26.5-58-7.3-56,21.3c1.4,21.4-38.1,31.9-48.5,14.8c-10.2-16.8-24-59.5-56.9-24.5c-25.5,27.1,9.7,43.6-45.4,43.6
			c-5.1-17.2-23-72.4-52.7-35.6c-13,16.1,13.9,45-25.2,39.5c-28.2-4-23.3-35-59.4-35c-10.1,0.1-24.5-2.2-26.7,11.1
			c-4.9,29.4-4.5,25.4-38.4,28.5c-20.9,1.8-4.3-68.7-58.7-44.9c-19.3,8.5-15.6,18.5-19.1,36.2C409.1,1244.3,377.3,1241,363.8,1242.7
			C361.8,1231.7,372.8,1241.6,363.8,1242.7z"/>
	</g>
</g>
</svg>
