<?xml version="1.0" encoding="utf-8"?>
<!DOCTYPE svg PUBLIC "-//W3C//DTD SVG 1.1//EN" "http://www.w3.org/Graphics/SVG/1.1/DTD/svg11.dtd">
<svg artist="zl2017" version="1.1" id="zlIcon-pot-poo" xmlns="http://www.w3.org/2000/svg" xmlns:xlink="http://www.w3.org/1999/xlink" x="0px" y="0px"
	 width="1000px" height="656.6px" viewBox="0 0 1000 656.6" enable-background="new 0 0 1000 656.6" xml:space="preserve">
<path fill-rule="evenodd" clip-rule="evenodd" d="M785.7,129.8c23.7-4.2,42.6-7.1,61.2-11.1c59.8-12.7,93.3,4.1,123.5,55.8
	c40.8,69.8,39.9,153.1-9.7,215.9c-45,57.1-112.6,96.2-200.4,44c-1.8-1.1-4.1-1.5-5.4-2c-18.3,41-34.2,82.8-55.1,122
	c-29,54.3-80.4,79.4-137.5,94.5c-45.8,12-91.9,8.2-137.6,0.2c-73.1-12.7-147.5-19.9-217.2-48.3c-53.3-21.7-97.7-52.7-131-101.6
	C44.3,452.3,28.6,402.6,26.1,346c-2.3-49.7-11.3-99.1-16-148.8c-2.6-27.7-2.1-55.7-3.9-83.6C5.3,100.3,1,87,0.5,73.6
	c-0.8-26.6,10-37.1,35.6-47.2C87.3,6,140.9,0.8,194.8,0.3c94.3-0.8,188.5,0,282.8,1.6c76.7,1.4,153.5,3.3,230,8.9
	c24.1,1.8,51.7-5.1,73.4,16.1c22.4,22,23.4,34.3,7.9,61.2C782.7,98.5,786.5,114.5,785.7,129.8z M765.2,102.4
	c-116,46.8-235,37.7-351.9,34.2c-116.8-3.5-233.2-18.6-353.9-29c-1.9,25.5-5.4,54.4-6,83.4c-0.6,34.2,0.5,68.5,2.4,102.6
	c2.5,43.6-0.2,89,11.2,130.4c22.3,80.7,86.1,125.5,160.7,153.3c33.8,12.6,70.8,16.8,106.6,23.7c49.7,9.5,99.2,19.9,149.3,26.4
	c70.4,9,131.9-9.3,176.9-68c32.8-42.7,57.5-89.9,68.5-142.7c10.8-51.6,20.3-103.6,26.2-155.9C761.3,208.5,762.1,155.6,765.2,102.4z
	 M33.8,56c19.8,9.5,34.4,19.3,50.5,23.8c20.4,5.6,41.9,8.1,63.1,9.9c89.3,7.6,178.6,16.3,268.1,21.2c59.5,3.2,119.5,2.4,179.1,0.1
	c40.2-1.5,80.6-6.7,120.1-14.3c14.9-2.9,28.5-15.9,41-26.3c14.3-11.9,11.7-24.5-6.4-28.3c-28.8-6-58.1-11-87.3-13.1
	c-60.1-4.3-120.3-8.6-180.5-9c-57.3-0.3-114.6,5.5-172,6.7c-51.3,1-102.7-2.1-153.9-0.6C115.6,27.4,75.5,31.6,33.8,56z M784.7,200.5
	c45.3-19.2,91.5-5,116.3,23.4c26.7,30.4,29.2,79.7,14.5,102.1c-38.8,59.3-91.1,67.6-152.1,33.5c-2.7,17-5,31.4-7.7,47.7
	c64.4,22.2,123.8,15.3,178.4-23.8c9.9-7.1,16.9-20.4,21.6-32.2c19.2-48.8,18.8-98.5,0.3-147.2c-18-47.4-30.3-68.7-92.2-65.5
	c-13.8,0.7-27.4,5.1-40.9,8.3C786.1,155.6,781.7,162.1,784.7,200.5z M828.4,218.2c-39.9,0.8-46.4,6.9-50.5,46
	c-0.6,5.8-2.7,11.4-3.7,17.1c-7.3,43.4,0.7,60.7,33.5,67.1c11.9,2.3,24.8-0.1,37.2-1.3c28.5-2.6,41.3-19.1,37.9-47.4
	c-1-8-0.9-16.2-1.6-24.2C878.7,248.3,850.4,217.7,828.4,218.2z"/>
<path fill-rule="evenodd" clip-rule="evenodd" fill="#FFFFFF" d="M765.2,102.4c-3.1,53.1-3.9,106.1-9.9,158.4
	c-5.9,52.3-15.4,104.3-26.2,155.9c-11,52.8-35.7,100-68.5,142.7c-45,58.6-106.5,77-176.9,68c-50.1-6.5-99.7-16.9-149.3-26.4
	c-35.8-6.9-72.9-11-106.6-23.7C153.2,549.5,89.4,504.8,67.1,424c-11.4-41.3-8.8-86.7-11.2-130.4c-1.9-34.2-3-68.4-2.4-102.6
	c0.5-29,4-57.9,6-83.4c120.7,10.4,237.2,25.4,353.9,29C530.2,140.2,649.3,149.2,765.2,102.4z M264.6,407.5
	c-4.9,72.3,37.7,113.4,98.2,94.4c13-4.1,21.1-3.1,31.8,5c27.2,20.2,51,20.4,75.8-1.6c24.3-21.6,41.3-51.4,72.7-65.4
	c4.4-2,7.7-6.8,11.2-10.6c19.6-21.2,26.2-53.9,10.7-69.1c-12.7-12.5-12.9-22.7-8-38.5c16.4-53.6-15.4-95.5-72.4-99.2
	c-7.4-0.5-15.9-5.9-21.3-11.5c-29-30.3-63.6-30.1-88,1.4c-28.2-23.5-56.3-27.2-83.1-9.9c-29.4,19.1-31.5,45.2-14.9,74
	c-41.9,12.1-50.6,33.7-54.4,66.4C219.7,371.7,236.5,395.4,264.6,407.5z"/>
<path fill-rule="evenodd" clip-rule="evenodd" fill="#FFFFFF" d="M33.8,56c41.7-24.4,81.8-28.6,121.7-29.8
	c51.2-1.6,102.6,1.6,153.9,0.6c57.4-1.2,114.7-7,172-6.7c60.2,0.3,120.4,4.6,180.5,9c29.3,2.1,58.5,7.1,87.3,13.1
	c18.2,3.8,20.7,16.4,6.4,28.3c-12.5,10.4-26.2,23.4-41,26.3c-39.5,7.6-79.9,12.8-120.1,14.3c-59.6,2.2-119.6,3.1-179.1-0.1
	c-89.5-4.9-178.8-13.5-268.1-21.2c-21.2-1.8-42.7-4.3-63.1-9.9C68.2,75.3,53.5,65.5,33.8,56z"/>
<path fill-rule="evenodd" clip-rule="evenodd" fill="#FFFFFF" d="M784.7,200.5c-3-38.5,1.4-44.9,38.2-53.7
	c13.5-3.3,27.2-7.6,40.9-8.3c61.9-3.1,74.2,18.2,92.2,65.5c18.5,48.7,19,98.4-0.3,147.2c-4.7,11.9-11.7,25.1-21.6,32.2
	c-54.6,39-114.1,46-178.4,23.8c2.6-16.3,4.9-30.7,7.7-47.7c61,34.1,113.3,25.8,152.1-33.5c14.7-22.5,12.2-71.7-14.5-102.1
	C876.2,195.6,830,181.4,784.7,200.5z"/>
<path fill-rule="evenodd" clip-rule="evenodd" d="M264.6,407.5c-28.2-12.1-44.9-35.8-41.5-64.6c3.8-32.7,12.4-54.3,54.4-66.4
	c-16.7-28.8-14.6-55,14.9-74c26.8-17.3,54.9-13.6,83.1,9.9c24.4-31.5,58.9-31.7,88-1.4c5.4,5.6,13.9,11,21.3,11.5
	c57,3.7,88.8,45.6,72.4,99.2c-4.8,15.8-4.7,26,8,38.5c15.5,15.2,9,47.8-10.7,69.1c-3.5,3.8-6.8,8.6-11.2,10.6
	c-31.4,14.1-48.3,43.8-72.7,65.4c-24.8,22-48.7,21.8-75.8,1.6c-10.7-8-18.8-9-31.8-5C302.3,521,259.7,479.9,264.6,407.5z
	 M462.9,358.5c0.6-32.6-27.4-57.8-65.4-58.9c-27-0.8-46.7,17.4-47.4,43.7c-1.2,43.2,18.9,74.8,47.6,74.7
	C440.1,417.9,462.2,397.7,462.9,358.5z M331.9,312.6c-7.2-2.3-17.5-6.1-28-8.8c-17.4-4.4-35.3-13.6-50.6,5.3
	c-14.8,18.4-13,49.2,4.4,68.3c11.3,12.4,50.9,15.2,64.8,3.4c3.9-3.3,5.6-10.7,6.1-16.4C330.2,347.5,330.8,330.6,331.9,312.6z
	 M330.2,394.4c-0.1,0-4.1,3.1-8.2,5.9c-4.7,3.2-9.2,7.6-14.5,9.2c-20.4,6.1-26.7,16.7-20.7,36.6c5.2,17.3,30.7,39.1,49.5,38.5
	c21.5-0.7,37.2-12,43.5-34c1.3-4.4,3.7-8.5,5.5-12.8c-2,1.4-3.9,2.7-5.9,4.1C363.5,426.4,347.6,411.1,330.2,394.4z M368.2,275.9
	c-0.6-8.8,0.8-19.8-2.6-28.9c-4.8-12.8-10.4-29.6-20.8-34.9c-10.5-5.5-29.3-3.2-40.6,2.9c-13.5,7.3-19.3,22.7-13.3,40.4
	c9.3,27.7,26.9,44.3,54.7,47.1C353.4,293.3,360.6,284.8,368.2,275.9z M455.1,299.5c2,1.7,10.6,5.8,13.5,12.4
	c7.7,18,21.1,18.2,37.5,17.8c27.9-0.7,44.6-22.8,34.5-49.1c-10.8-28.3-36-32.9-57.4-37.1C473.2,263.4,464.4,280.9,455.1,299.5z
	 M486.6,345.5c-3.5,18.4-10.5,35.3-8.4,50.9c2,14.3,11.4,30.2,22.4,39.5c4.5,3.8,25-4.6,33-12.7c30.6-30.8,23.7-61-15.6-74.2
	C508.5,345.9,497.7,346.7,486.6,345.5z M470.6,422.1c-20.8,6.2-39.2,12.1-57.9,17.2c-12.8,3.5-25.1,26.4-19.3,37.5
	c9.2,17.5,45.1,26.7,62.2,16C480,477.5,484.6,453,470.6,422.1z M386.2,248.4c0,23.1,16.8,38.5,46.3,35.5c9.4-1,23-17,24.6-27.6
	c3.3-21.8-23.5-49.3-43.7-50.4C400.7,205.1,386.2,227.9,386.2,248.4z"/>
<path fill-rule="evenodd" clip-rule="evenodd" fill="#FFFFFF" d="M462.9,358.5c-0.7,39.2-22.9,59.4-65.2,59.5
	c-28.7,0-48.7-31.5-47.6-74.7c0.7-26.3,20.4-44.5,47.4-43.7C435.5,300.6,463.5,325.9,462.9,358.5z"/>
<path fill-rule="evenodd" clip-rule="evenodd" fill="#FFFFFF" d="M331.9,312.6c-1.1,18-1.7,34.9-3.3,51.7
	c-0.6,5.7-2.2,13.1-6.1,16.4c-13.9,11.8-53.5,9-64.8-3.4c-17.4-19.1-19.2-49.9-4.4-68.3c15.2-18.9,33.2-9.7,50.6-5.3
	C314.4,306.5,324.6,310.3,331.9,312.6z"/>
<path fill-rule="evenodd" clip-rule="evenodd" fill="#FFFFFF" d="M330.2,394.4c17.3,16.7,33.3,32,49.2,47.4c2-1.3,3.9-2.7,5.9-4.1
	c-1.9,4.3-4.2,8.4-5.5,12.8c-6.3,22-22,33.3-43.5,34c-18.8,0.6-44.3-21.2-49.5-38.5c-6-19.9,0.3-30.5,20.7-36.6
	c5.3-1.6,9.7-5.9,14.5-9.2C326.2,397.5,330.2,394.5,330.2,394.4z"/>
<path fill-rule="evenodd" clip-rule="evenodd" fill="#FFFFFF" d="M368.2,275.9c-7.6,8.9-14.8,17.4-22.5,26.6
	c-27.8-2.8-45.4-19.4-54.7-47.1c-6-17.7-0.1-33.1,13.3-40.4c11.3-6.1,30.1-8.4,40.6-2.9c10.3,5.4,16,22.1,20.8,34.9
	C369,256.1,367.6,267.1,368.2,275.9z"/>
<path fill-rule="evenodd" clip-rule="evenodd" fill="#FFFFFF" d="M455.1,299.5c9.4-18.7,18.1-36.1,28.1-56.1
	c21.3,4.2,46.6,8.8,57.4,37.1c10,26.3-6.7,48.4-34.5,49.1c-16.4,0.4-29.7,0.2-37.5-17.8C465.7,305.3,457,301.2,455.1,299.5z"/>
<path fill-rule="evenodd" clip-rule="evenodd" fill="#FFFFFF" d="M486.6,345.5c11.1,1.2,21.9,0.4,31.4,3.6
	c39.4,13.2,46.2,43.4,15.6,74.2c-8,8-28.5,16.5-33,12.7c-11.1-9.4-20.5-25.2-22.4-39.5C476,380.8,483.1,363.9,486.6,345.5z"/>
<path fill-rule="evenodd" clip-rule="evenodd" fill="#FFFFFF" d="M470.6,422.1c14,31,9.3,55.5-14.9,70.7
	c-17.1,10.7-53.1,1.5-62.2-16c-5.8-11,6.4-34,19.3-37.5C431.4,434.1,449.9,428.3,470.6,422.1z"/>
<path fill-rule="evenodd" clip-rule="evenodd" fill="#FFFFFF" d="M386.2,248.4c0-20.5,14.5-43.3,27.2-42.5
	c20.1,1.1,47,28.6,43.7,50.4c-1.6,10.6-15.1,26.6-24.6,27.6C403,286.9,386.2,271.5,386.2,248.4z"/>
</svg>
