<?xml version="1.0" encoding="utf-8"?>
<!DOCTYPE svg PUBLIC "-//W3C//DTD SVG 1.1//EN" "http://www.w3.org/Graphics/SVG/1.1/DTD/svg11.dtd">
<svg artist="zl2017" version="1.1" id="zlIcon-products" xmlns="http://www.w3.org/2000/svg" xmlns:xlink="http://www.w3.org/1999/xlink" x="0px" y="0px"
	 width="1000px" height="1044.2px" viewBox="0 0 1000 1044.2" enable-background="new 0 0 1000 1044.2" xml:space="preserve">
<path fill-rule="evenodd" clip-rule="evenodd" d="M341.2,0c9.9,2.6,19.8,7.3,29.7,7.3c22,0.1,42.7,5.6,63.9,10.1
	c29,6.2,58.1,12,87.2,17.5c19.6,3.7,39.3,6.6,59,9.8c4.7,0.8,9.6,0.8,14,2.3c1.9,0.6,3.9,4.1,4,6.4c1.5,26.9,1.9,53.9,4.3,80.7
	c2.2,24.3,6.4,48.4,9.8,72.6c1.8,12.5,3.7,25.1,5.4,37.6c3.1,23,6.1,45.9,9.2,68.9c2.2,16,4.5,32.1,6.7,48
	c36.4,13.1,74,18,112.5,15.2c20.3-1.5,40.6-3.8,60.8-5.7c5.5-0.5,8.8,1.5,10.7,7.2c5.5,16.8,12.3,33.1,17.1,50.1
	c4,14,13.2,22.2,25.3,27.9c12.7,6,25.9,11,38.8,16.6c2.2,1,4.8,2.6,5.7,4.6c8,18.4,15.6,37,23.3,55.6c14.8,35.4,29.1,71,37.1,108.8
	c8.6,40.5,17.5,80.9,24.9,121.6c4.1,22.5,5,45.5,8.4,68.1c1.6,11-0.1,19-7.4,28.2c-8.5,10.7-12.5,24.8-20.1,36.3
	c-9.8,15-19.6,30.8-32.3,43.1c-29.1,28-60.6,53.5-89.9,81.4c-13.7,13-31,13.2-46.9,17.3c-28.8,7.5-58.8,8-88.3,6.1
	c-40.5-2.6-81-6.2-120.7-16.1c-19.1-4.8-38.7-7.2-58.1-10.9c-14.8-2.8-26.9-9.3-30.2-25.5c-1.1-5.3,0.4-11.1-0.7-16.5
	c-3.2-15.8-7.4-31.3-10.6-47.1c-4.7-23.7-8.7-47.5-13.3-72.6c-6.8,3-13.3,5-19,8.5c-11.9,7.3-23.4,15.2-34.9,23.1
	c-5.2,3.6-9.4,9.2-15.1,11.5c-4.7,1.9-10.9,0.7-16.3,0.1c-15.8-1.7-31.5-4-47.4-5.7c-47.2-5.1-94.4-9.8-141-19.5
	c-18-3.8-35.7-8.7-53.7-12.3c-10-2-20.3-1.8-30.4-3.2c-17.5-2.5-35-5.5-52.5-8.3c-4.3-0.7-8.6-2-12.9-2.8
	c-21.2-3.8-21-22.3-24.3-37.2c-6.7-29.9-12.7-60-17.4-90.2c-4.4-28.2-7.1-56.8-9.9-85.2c-1.5-15.1-1.4-30.4-2.1-45.7
	c-1.1-26.2-3.1-52.3-3.2-78.5c-0.1-20.8,2.3-41.6,3-62.4c0.3-7.6-1.8-15.3-1.6-22.9c1-31.6,2.7-63.1,3.7-94.7
	c0.5-17.2-1-34.5,0.4-51.6c2.2-26.6,5.9-53,9.2-79.5c3.1-24.5,6.3-49.1,10-73.5c2.3-15.1,5.4-30,8.6-44.9c0.5-2.3,3.2-5.2,5.4-5.8
	c14.1-4.3,28.4-8.1,42.6-11.8c25.3-6.6,50.7-12.9,76-19.4c25.3-6.6,50.6-13.4,76-19.9c10.7-2.7,21.5-4.9,32.2-7.2
	c22.1-4.6,44.3-9.1,66.4-13.8c1.1-0.2,2-1.2,2.9-1.8C337.3,0,339.2,0,341.2,0z"/>
<path fill-rule="evenodd" clip-rule="evenodd" fill="#FFFFFF" d="M339.1,27c-13.9,0.7-26.6,1.5-39.4,2.1c-4.8,0.2-9.8-0.5-14.5,0.3
	c-21.8,3.6-43.7,7.3-65.4,11.5c-29.1,5.7-58.5,10.8-87.2,18.2c-27,7-53.3,16.8-80.1,24.9c-6.1,1.9-9.4,4.6-10.2,11.1
	c-1.6,13.9-3.5,27.7-5.9,41.5c-1.1,6.5-4.6,12.6-5.3,19.1c-2.5,23.2-4,46.5-6.5,69.7c-1.9,17.4-5.3,34.7-7.3,52.1
	c-1,9-0.1,18.2-0.4,27.3c-0.4,10.9-1.3,21.7-1.6,32.6c-0.4,13.3-0.4,26.6-0.6,39.8c-0.2,14.7-0.4,29.4-0.4,44.2
	c0,9.7,0.5,19.4,0.6,29c0.1,21.1-0.2,42.2,0,63.3c0.1,14.3,1.1,28.7,1.1,43c0,20.7-0.9,41.4-0.8,62.2c0,10,1,20.1,2.1,30
	c1.5,12.9,3.7,25.7,5.5,38.5c2.1,15,3.2,30.3,6.5,45.1c6.2,27.6,13.4,54.9,21,82.2c1.7,6.2,4.9,14.4,9.8,17.1
	c26.9,14.3,56.8,13.6,86.2,15.5c12.4,0.8,24.8,2.9,37,5.2c13.2,2.5,26.1,6.6,39.4,8.7c13.5,2.1,27.3,2.7,41,4c10,1,20,2.5,30.1,3.2
	c8.2,0.6,16.5-0.1,24.7,0.3c9.6,0.5,19.1,2.5,28.7,2.1c14.8-0.5,29.5-2.7,44.2-3.5c5.9-0.3,7.8-2.4,7.9-8.2
	c0.1-9.3,1.1-18.6,1.2-27.8c0.2-20.7,1.1-41.4-0.1-62c-1.2-20.6-4.8-41-6.9-61.5c-1.3-12.4-1.3-24.9-2.5-37.3
	c-2.1-20.5-5.1-41-7.1-61.5c-0.9-9.7,0.3-19.5-0.5-29.2c-1.5-20-3.7-39.9-5.5-59.9c-1.5-16.6-2.5-33.2-4-49.7
	c-3.1-32.7-6.2-65.3-9.6-97.9c-1.6-15.3-3.5-30.5-5.6-45.7c-1.7-12.3-4.6-24.4-5.7-36.8c-3-34.5-5.9-69.1-7.8-103.7
	c-1.5-26.4-1.2-52.9-2.2-79.3C342.1,80.4,340.5,54.4,339.1,27z"/>
<path fill-rule="evenodd" clip-rule="evenodd" fill="#FFFFFF" d="M840.1,515.3c-11.2,2.5-20.1,5.7-29.1,6.2
	c-23.4,1.4-46.9,1.7-70.4,2.1c-5,0.1-10-1.5-15.1-1.6c-14.9-0.3-29.9,0.7-44.7-0.5c-20.3-1.7-40.3-5.2-60.6-7.3
	c-20-2.1-40-3.4-60.1-5c-6-0.5-10.8,1.1-13.6,7.3c-7.6,17.3-16.8,34-22.9,51.8c-8.6,25.4-15.2,51.3-18,78.3
	c-2.5,24.2-8.2,48.1-11,72.2c-2,17.2-1.6,34.6-2.3,51.9c-0.6,16.7-2,33.4-1.7,50c0.3,16.9,2.2,33.8,3.7,50.6
	c0.7,7.9,1.9,15.7,3.3,23.5c3.9,21.1,7.2,42.4,12.4,63.1c4,15.8,6.9,33.7,26.4,39.5c13.3,4,26.5,8.2,40,11
	c24.8,5.1,49.7,9.4,74.6,13.8c19,3.4,37.9,7.8,57,9.3c20.6,1.6,41.5,1.8,62.1-0.1c18.6-1.7,37-6.4,55-11.5
	c5.5-1.5,11.7-7.7,13.6-13.2c3.2-9.1,3.2-19.3,4.6-29c1.7-11.9,3.5-23.8,5.1-35.7c2.2-16.7,4.7-33.3,6.4-50
	c2-18.6,3.5-37.4,4.9-56.1c1.8-23.7,3.6-47.3,4.7-71c0.7-14.5,0.9-29.1-0.2-43.6c-1.8-23.8-5.2-47.4-7.3-71.2
	c-1.2-13.8-0.3-27.7-2.2-41.4C850.7,577.9,845.2,547.1,840.1,515.3z"/>
<path fill-rule="evenodd" clip-rule="evenodd" fill="#FFFFFF" d="M352.7,18.7c-1,18.6-2.8,33.8-2.6,48.9
	c0.4,34.1,1.7,68.2,2.7,102.4c0.1,3.2,0.3,6.4,0.6,9.6c1.7,17.1,3.5,34.2,5.2,51.3c1.3,12.7,2.2,25.4,3.7,38.1
	c2.5,22.4,5.5,44.8,7.9,67.2c1.7,15.2,2.6,30.5,4.1,45.8c3.8,38.7,7.8,77.3,11.4,116c1.1,11.5,1.1,23,2.1,34.5
	c2.4,26.3,5.3,52.6,7.5,79c1.2,13.4,0.8,27,2.2,40.4c2.8,25.9,6.4,51.7,9.5,77.6c3.3,27.4,6.5,54.9,9.7,82.3c2,16.9,4,33.8,6,50.6
	c5.3-1,9.9-1.2,14-2.7c11.5-4.1,22.7-9.1,34.3-12.8c5.9-1.9,7.9-4.5,8-10.7c0.1-24.4,0.6-48.7,1.3-73.1c0.4-11.9,1.5-23.8,2.4-35.6
	c1.5-19.9,2.5-39.8,4.7-59.5c1-9.3,4.6-18.3,6.6-27.5c1.2-5.6,1.4-11.4,2.3-17c2.9-17.8,5-35.8,9-53.3c4.5-19.6,12-38.7,15.6-58.4
	c2.7-14.7,7.2-28.8,18.8-36.8c14.9-10.2,15.8-23.8,14.4-38.2c-1.4-14.4-5.4-28.5-8.3-42.8c-1.7-8.2-3.5-16.4-5.2-24.5
	c23.5-6.8,45.7-13.3,68.1-19.8c-1.9-6-5.1-11.9-5.5-18c-1.8-28.8-2.9-57.7-4.1-86.6c-0.8-20.3-0.8-40.7-2.1-61
	c-2.2-35.4-4.8-70.8-8-106.2c-0.4-4.1-4.2-9.8-7.8-11.4c-10-4.4-20.7-7-31.2-10.1c-13-3.8-26-7.4-39-11.1c-9.4-2.7-18.5-6.4-28-8.1
	c-21.6-3.9-43.4-7-65.2-10C396.9,24.1,375.8,21.6,352.7,18.7z"/>
<path fill-rule="evenodd" clip-rule="evenodd" fill="#FFFFFF" d="M978,844.8c-14.1,29.3-38.8,49.1-61.3,71c-0.8-3.9-0.7-7.4,1.1-9.2
	c20.1-20.4,37.7-42.8,51.5-67.8c5.6-10.1,12.6-20.5,8.7-35.4c-14.8,18.5-28.6,35.7-42.5,53c-0.9-0.6-1.8-1.3-2.7-1.9
	c0.7-1.9,1-4.2,2.2-5.8c12.5-17.4,25-34.8,38-51.8c5.9-7.8,5-15.7,2.8-25.9c-2.8,3.1-4.7,4.7-6,6.7c-5.1,7.2-9.8,14.8-15.2,21.7
	c-1.5,1.9-5.3,1.9-8,2.7c0-2.5-0.8-5.5,0.3-7.4c2.4-4.1,5.9-7.5,8.6-11.4c5.5-7.7,11.2-15.3,16.1-23.4c1.8-2.9,1.5-7.1,2.4-12.3
	c-7,6.1-11.9,10.4-17.1,15c-2.8-7.1-1.9-9.3,5.9-16c8.3-7,9.8-20.9,3.3-28.5c-4.2,2.5-8.5,5.1-12.8,7.6c-0.8-0.6-1.7-1.2-2.5-1.9
	c12-10.8,19.6-22.6,10.1-38.4c-3.2,1.8-6.4,3.5-9.6,5.2c4-10.8,14-20.1,3.3-31.5c-1.8,0.7-4.5,1.7-10.1,3.8
	c3.9-7.9,6.5-12.9,8.9-17.7c-1.1-2.9-2.3-5.8-3.2-8.8c-7.2-25.1-12.9-50.7-21.7-75.2c-8.8-24.5-20.5-47.9-31.1-71.7
	c-1.3-2.9-3.4-6.5-6-7.6c-10.9-4.7-32.4,1.5-39.3,11.4c-2.2,3.2-5.5,8,1.2,11.4c1.6,0.8,2.5,4.3,2.8,6.6c1.2,13,1.9,26.1,3.2,39.1
	c3.1,32,6.5,64,9.5,95.9c1.6,16.6,3,33.1,4,49.8c1.5,27.2,3.4,54.4,3.5,81.6c0.1,21.4-2.3,42.8-3.6,64.2c-0.2,2.8-0.9,5.6-1.3,8.4
	c-2.2,14.4-4.4,28.8-6.4,43.2c-2.5,18.5-5.4,37.1-6.9,55.7c-1.1,12.5-0.2,25.2-0.2,38.4c2.3-0.4,3.6-0.5,4.7-0.9
	c14.4-5.8,26.3-14.7,37.9-25.4c28.2-25.8,54.1-53.2,72.4-87C977.6,865.5,986,856.9,978,844.8z"/>
<path fill-rule="evenodd" clip-rule="evenodd" fill="#FFFFFF" d="M658.8,505.6c-1.2-12.7-2.3-24-3.4-35.4
	c-1.1-10.7-5.4-21.5,1.7-33.4c2,2.6,3.6,3.7,3.8,5c2.2,15.1,4.5,30.1,6,45.3c1.3,12.6,6.3,19.6,18.1,22.3c8.9,2,18,3.2,28.6,5
	c-2.4-9.1-4.7-15.5-5.8-22.2c-2.9-17.5-5.5-35-7.5-52.6c-0.3-2.7,2.9-5.9,4.5-8.9c1.6,2.6,4.8,5.3,4.7,7.8
	c-0.7,17.2,2,33.7,8.1,49.6c7.5,19.4,14.3,27.9,33.2,25.9c5-0.5,9.9-1.8,14.2-2.6c-2.4-17.6-5.3-34.8-6.8-52.1
	c-1.4-16.1-1.4-32.3-1.8-48.4c0-1.7,1.8-3.9,3.4-5.1c0.8-0.6,4,0.3,4.2,1c0.8,3.2,1.1,6.6,1.2,9.9c0.2,14-2.5,28.7,1.1,41.8
	c4.8,17.3,14.2,33.3,22.2,49.6c1.1,2.2,5.8,3.3,8.9,3.7c3,0.3,6.1-1,9.2-1.5c9.1-1.5,18.2-2.9,28.2-4.5c-1.5-3.1-1.9-4.7-2.8-5.8
	c-8.2-9.7-18.6-18.3-24.4-29.3c-9.9-18.7-10.7-39.8-8.1-60.7c0.9-7.1,2.1-14.1,3.1-20.5c-21.4,2.2-41.9,4.6-62.5,6.2
	c-30.8,2.4-60.3,9.6-88.5,22.2c-19.4,8.6-39.5,10.8-60,4.8c-11-3.2-21.7-7.5-33.4-11.7c-0.8,22.9,12.3,45.7-4.8,66.9
	c7.5,4.7,14.2,8.9,21.5,13.5c6.1-20.5,5.3-39.4,2.3-58.4c-0.3-2.2,1.6-4.7,2.5-7c1.9,2,5.1,3.8,5.5,6c3,17.2,5.5,34.4,8,51.6
	c1.9,12.7,9,17.8,22.9,15.9c-0.8-18.3-1.7-36.6-2.5-54.9c1.7-0.4,3.3-0.7,5-1.1c1.1,3.1,3,6.1,3.3,9.2c0.5,5.8-1,11.8,0.1,17.4
	c2.1,10.7,5.5,21.2,8.4,32.2C640.3,503.4,649.5,504.5,658.8,505.6z"/>
<path fill-rule="evenodd" clip-rule="evenodd" fill="#FFFFFF" d="M680.3,396.9c0-1.2-0.1-2.5-0.2-3.7c-4.6-1.8-9.2-3.7-13.8-5.3
	c-15.1-5.2-31.2-8.5-45.2-15.9c-17.2-9.1-33.1-9.6-50-1.4c-5.7,2.8-11.5,5.5-18,8.7c7.4,7.9,13.3,14.1,19.2,20.3
	c13.1,13.8,28.6,17.7,46.8,11.6c5.4-1.8,11-2.7,16.5-4C650.6,403.8,665.4,400.4,680.3,396.9z"/>
<path fill-rule="evenodd" clip-rule="evenodd" d="M710.4,667.4c-9,10.3-20.1,15.4-32.7,17.2c-17.9,2.5-45.8-18.7-49.6-36.3
	c-7.8-35.6,7.7-62.2,33.1-83.9c6.7-5.7,18.5-7.1,28-7.3c13.4-0.2,26.6,3.4,32.8,15.8c9.2-1.7,17.4-3.7,25.6-4.5
	c20.3-1.9,53.2,25.4,51.7,51.2c-1.5,25.4-11,46.1-29.8,62.2c-16.6,14.2-38.1,11-51.9-6.2C715.5,673,713.2,670.5,710.4,667.4z"/>
<path fill-rule="evenodd" clip-rule="evenodd" fill="#FFFFFF" d="M640.7,630.8c1.5,9,0.9,19,4.9,26.8c9.3,18.1,38.6,22.6,54.6,7.1
	c19.2-18.5,24.9-41.1,25.2-66.3c0.1-8.3-18.7-31.3-25.7-31.9c-16.1-1.5-30.7,1.7-41,15.3C647.8,596.1,639.4,611.6,640.7,630.8z"/>
<path fill-rule="evenodd" clip-rule="evenodd" fill="#FFFFFF" d="M729.9,581c1.2,7.5,3.1,13.6,2.9,19.7
	c-0.8,19.1-5.6,37.2-13.7,54.6c-1.2,2.5-0.7,7,0.9,9.2c3.4,4.6,7.8,8.6,12.2,12.4c7.1,6.1,17.9,6.6,26.5,2.7
	c12.3-5.5,17.2-16.7,23.8-27.3c10.8-17.4,11.6-38-1.1-55.6C770.5,581.6,744.5,569.9,729.9,581z"/>
<path fill-rule="evenodd" clip-rule="evenodd" d="M478,222.4c-9.2,6.9-17.9,14-27.3,20.1c-20.1,13.3-47.5,9.7-63.1-7.5
	c-4.8-5.3-7.9-13.1-9.3-20.3c-6.1-32.6,1.1-63.2,17.6-91.4c14.2-24.3,38.2-29.7,55.8-13.9c6.7,6,13.4,11.9,20.2,17.9
	c12.5-18.5,29.5-22.9,51.4-21.6c24.8,1.5,31.3,18.5,36.5,36.3c4.3,14.4,5.5,30,6.1,45.1c0.6,18.1-6.4,33.8-19.4,46.8
	c-15.1,15.1-51.8,12.3-62.8-5.1C481.9,226.1,479.3,223.8,478,222.4z"/>
<path fill-rule="evenodd" clip-rule="evenodd" fill="#FFFFFF" d="M477.8,174.9c-1.4-6.8-2.8-15.2-4.8-23.4
	c-3.6-15-14.5-23.7-26.6-32c-11.9-8.1-31-6.1-39.7,5.6c-19.6,26.6-24.5,56-17,87.8c3.3,13.8,12.6,24.2,25.6,27.1
	c16.9,3.7,32.5-3,45.2-15.1C474.3,211.7,475.2,194,477.8,174.9z"/>
<path fill-rule="evenodd" clip-rule="evenodd" fill="#FFFFFF" d="M553.5,188.2c-1.2-10.2-3.2-17.6-2.6-24.8
	c1.1-13.1-2.5-24.8-9.2-35.2c-3.3-5.1-9.6-10.5-15.1-11.3c-9.6-1.3-19.9-0.3-29.4,2.1c-14.3,3.7-18.9,15.4-14.7,29.9
	c3.7,12.8,5.7,25.7,2.6,39.4c-2.7,12.4-7.3,24.7,7,36.1c18.2,14.4,47.1,10.3,55.5-11.4C551,204.5,552,194.9,553.5,188.2z"/>
<path fill-rule="evenodd" clip-rule="evenodd" d="M279.8,104.8c-6.7-6.9-12-12.3-18-18.5c-7.2,9.1-17.1,17.1-20,30.7
	c-1.7,8.1-5.6,15.9-9.1,23.6c-4,8.9-8.6,9.4-13.5,1.4c-5.7-9.3-10.6-19.1-16.6-29.8c-22.8,29.6-37.8,63.4-46.7,100.5
	c-16.5-8.3-18.1-23.4-24.2-35.4c-1.3-2.5-1.5-5.5-2.8-8c-1.5-2.9-3.1-6.7-5.6-7.6c-1.7-0.6-5.5,2.5-7.4,4.8
	c-20.5,23.8-36.8,50.3-47.7,79.6c-8.2,22-13.8,44.9-12.2,68.9c0.4,5.7,0.3,11.8-1.2,17.2c-1,3.3-5.1,5.8-7.8,8.6
	c-1.5-2.7-3.9-5.2-4.3-8.1c-2.8-18.5-5.9-37-7.5-55.6c-0.9-10.1,0.7-20.4,1.6-30.6c1.7-17.8,3.1-35.6,5.9-53.2
	c2.9-18.3,9-36.3,10.7-54.7c1.2-12.2,4.9-22.9,9.6-33.5c1.6-3.5,5.1-7.3,8.5-8.6c20.6-7.6,41.1-16.1,62.3-21.4
	c28.5-7,57.6-11.5,86.5-16.7c18.7-3.4,37.4-6.7,56.2-9.2c8.6-1.1,17.5-0.4,26.2-0.1c1,0,3,4.3,2.6,4.7c-12.1,12.7-14,30.2-21.3,45.1
	C283.4,100.1,282.2,101.4,279.8,104.8z"/>
<path fill-rule="evenodd" clip-rule="evenodd" d="M295.1,348.4c-7.7,0.9-15.6,1.3-23.2,2.8c-13.9,2.6-28,4.9-41.6,9
	c-21,6.4-41.4,14.3-62.3,21c-3.1,1-7.3-1.6-10.9-2.5c1.8-4,2.7-10.3,5.7-11.6c17.7-7.2,35.8-13.4,53.9-19.7
	c20.7-7.3,41.5-14.3,62.2-21.5c8.3-2.9,16.3-6.8,24.8-9.1c3-0.8,8.9,0.4,10.1,2.6c3.8,6.6,9.2,13.9,4.8,22.1c-1.5,2.8-6,4.6-9.4,5.6
	c-4.4,1.3-9.3,1.3-13.9,1.8C295.1,348.7,295.1,348.5,295.1,348.4z"/>
<path fill-rule="evenodd" clip-rule="evenodd" d="M178.5,416.4c0-5.5,0-8.4,0-12.7c14.5-3.9,29.2-7.9,44-11.9
	c20-5.4,40.1-10.7,60.1-16.3c8.8-2.4,11.9-0.5,12.1,8.4c0.4,15.4,0.4,15.3-15.8,13.8c-24-2.3-46.8,3.3-69.4,10.4
	C199.7,411.2,189.7,413.4,178.5,416.4z"/>
<path fill-rule="evenodd" clip-rule="evenodd" d="M281.1,447.4c-1.7,1.2-4.9,5.4-7.7,5.1c-31.4-3-61.8,1.1-91.8,10
	c-2.9,0.9-7-2.3-10.5-3.6c2.2-2.9,4-7.8,6.8-8.5c28.4-7,57-13.6,85.6-19.8C272.4,428.7,280.7,435.8,281.1,447.4z"/>
<path fill-rule="evenodd" clip-rule="evenodd" d="M66.8,808.7c-11.6-4.4-33.4-90.7-27.5-114.1C48.4,732.3,57.5,770.1,66.8,808.7z"/>
<path fill-rule="evenodd" clip-rule="evenodd" d="M69.7,793.2c-5.7-21-10.9-40.1-16.5-60.7C63.2,738.4,76.8,785.4,69.7,793.2z"/>
<path fill-rule="evenodd" clip-rule="evenodd" d="M596,732.3c44.3,5.2,87.6,10.3,130.1,15.3c-4.3,9.1-8.5,17.9-11.5,24.3
	c-18.7-3.5-35.3-6.8-52.1-9.6c-18.1-2.9-36.3-5.2-54.4-7.9C597.9,753,592.5,742.6,596,732.3z"/>
<path fill-rule="evenodd" clip-rule="evenodd" d="M559.7,849.5c-3.3-4.3-5.5-7-7.5-10c-0.8-1.2-1.7-3.6-1.2-4.1
	c1.4-1.5,3.5-3.1,5.3-3.2c6.9-0.4,13.8-0.3,20.7-0.1c19,0.6,37.9,1.2,56.9,2.2c26.8,1.4,53.7,3.2,80.6,4.8c0.9,8.8-1.9,11-11,9.3
	c-7.8-1.5-15.8-2.3-23.7-2.7c-17.3-0.9-34.7-2.4-52-1.8c-21.6,0.8-43.2,3.6-64.8,5.5C561.3,849.7,559.4,849.5,559.7,849.5z"/>
<path fill-rule="evenodd" clip-rule="evenodd" d="M551.5,868.7c9.1-2.3,15.8-5.2,22.6-5.4c38.4-1.1,76.7-1.4,115.1-2.1
	c6.7-0.1,13.5-0.8,20.2-0.7c2.7,0.1,6.1,0.9,7.7,2.7c1.4,1.6,2,5.9,0.8,7.5c-1.7,2.4-5.6,5.3-8,4.9c-43.4-7.8-87.2-4.2-130.8-4.4
	c-7.4,0-14.6,6-22.6,1.4C555.9,872.2,555.3,871.6,551.5,868.7z"/>
<path fill-rule="evenodd" clip-rule="evenodd" d="M557.7,899.4c2-1.8,3.9-4.9,6.1-5.1c19.4-2.5,38.9-5.2,58.4-6.6
	c17.2-1.2,34.5-1.5,51.7-1.1c15.5,0.3,31,2.1,46.2,3.3c2.2,13.8-0.3,15.5-12.9,12.2c-25.1-6.4-50.4-10.8-76.4-6.2
	c-6.6,1.2-13.7-0.4-20.4,0.3c-15.8,1.6-31.5,3.8-47.2,5.6c-1.2,0.1-2.5-0.2-3.7-0.3C558.9,900.9,558.3,900.1,557.7,899.4z"/>
<path fill-rule="evenodd" clip-rule="evenodd" d="M669.4,911.5c2.3,8.5,0.2,11.9-8.4,11.7c-15.8-0.3-31.6-1.8-47.3-1.6
	c-9.8,0.1-19.5,2.8-29.3,3.1c-8.2,0.3-16.5-1-24.8-2c-1.2-0.1-2.8-2.9-2.8-4.4c0-1.5,1.6-3.5,3-4.2c1.6-0.8,3.8-0.5,5.7-0.5
	c18,0.6,35.9,2,53.9,1.7C636,915,652.6,912.8,669.4,911.5z"/>
<path fill-rule="evenodd" clip-rule="evenodd" d="M526.8,635.5c-7.8,2.5-8-2.5-6.9-7.1c2.8-11.6,6-23.1,9.6-34.5
	c5.5-17.3,11.5-34.5,17.4-51.7c1.1-3.1,2.9-6,4.4-9c1.1,0.1,2.1,0.2,3.2,0.3c0,3.4,0.9,7.1-0.1,10.1c-8.4,25.7-17.3,51.2-25.7,76.9
	C527.1,625,527.4,630,526.8,635.5z"/>
<path fill-rule="evenodd" clip-rule="evenodd" d="M563.9,556c-5.5,17.6-10.9,35.1-17,54.5c-1.8-2.2-3.6-3.5-3.8-4.9
	c-1.2-6.9,12.9-46.5,17.7-50.4C561.8,555.4,562.8,555.7,563.9,556z"/>
<path fill-rule="evenodd" clip-rule="evenodd" d="M415,463.2c8.9-9.6,15.1-17.1,27.9-17.7c13.3-0.5,26.4-5.3,39.6-8
	c3.4-0.7,6.9-1,10.2-1.5c3.5,13.2-1.3,19.6-13.7,21.8c-15.6,2.8-31,7.3-46.6,9.8C427.6,468.5,422.1,465.2,415,463.2z"/>
<path fill-rule="evenodd" clip-rule="evenodd" d="M516.1,387.9c-9.5,0-19-0.2-28.6,0.1c-13.7,0.4-27.4,1-41.1,2
	c-3,0.2-5.7,2.9-8.7,3.7c-2.4,0.6-6.1,0.9-7.4-0.4c-1.4-1.4-1.6-5.6-0.5-7.4c5.1-8.3,12.8-13.2,22.7-13.4
	c15.3-0.3,30.7,0.6,45.9-0.4c10.9-0.7,13.8,7,19,12.8C516.9,385.9,516.5,386.9,516.1,387.9z"/>
<path fill-rule="evenodd" clip-rule="evenodd" d="M419,322.7c18.9-4.4,37-8.5,55.1-12.9c6-1.4,11.9-4.7,17.8-4.7c3.7,0,8,4,10.8,7.3
	c1.6,1.9,1.9,7.2,0.4,8.8c-2.2,2.4-7.4,4.9-9.7,3.8c-16-7.4-31.2,1-46.8,1.6c-5.4,0.2-10.8,3-16.1,5
	C422.4,334.8,419.7,333,419,322.7z"/>
<path fill-rule="evenodd" clip-rule="evenodd" d="M510.4,422.2c-4.5,1.5-8.9,3.9-13.4,4.3c-20.8,2-41.8,1.8-61.6,10
	c-2.6,1.1-5.9,2.3-8.1,1.5c-2.6-1-5.2-3.9-6.1-6.5c-0.4-1.1,3.3-5,5.5-5.4c10.7-2.1,21.5-3.5,32.3-5.2c10.3-1.7,20.4-4.2,30.8-5.2
	c6.7-0.7,13.6,0.7,20.4,1.1C510.2,418.6,510.3,420.4,510.4,422.2z"/>
<path fill-rule="evenodd" clip-rule="evenodd" d="M425.9,416.8c-0.8-0.6-4.5-2.1-4.7-3.9c-0.2-2.6,1.4-7.3,3.3-8
	c11.7-4.2,23.6-8,35.6-11c6.4-1.6,13.2-1.9,19.8-1.6c3.9,0.1,7.8,2.1,11.4,3.9c1,0.5,1.5,4.1,0.7,5.2c-1,1.5-3.5,2.5-5.4,2.7
	c-12.6,1.8-25.3,3-37.8,5.3C441.6,410.8,434.7,413.9,425.9,416.8z"/>
<path fill-rule="evenodd" clip-rule="evenodd" d="M477.5,466.1c3.2,3.2,9.1,7.1,8.5,9c-1.4,4.4-6.6,11.4-9,10.9
	c-16.4-3.3-31.1,4.3-46.6,5.5c-2.6,0.2-5.3-0.9-7.9-1.4c1.6-2.4,2.7-6.3,4.9-7.1C443.5,477.2,459.8,472,477.5,466.1z"/>
<path fill-rule="evenodd" clip-rule="evenodd" d="M457,50.7c-2.7,1.5-4.8,3.7-6.4,3.4c-18.9-3.2-37.8-6.9-56.7-10.2
	c-4.9-0.8-10.1-0.4-15.1-0.7c-2.5-0.1-5.1-0.2-7.5-1c-0.6-0.2-1-3.8-0.5-4.2c2.3-1.4,5-3.1,7.4-2.9c10.7,1.1,21.4,2.2,31.9,4.4
	C425.2,42.5,440.1,46.6,457,50.7z"/>
<path fill-rule="evenodd" clip-rule="evenodd" d="M428.6,511.2c5.3-1.7,10.5-3.5,15.9-4.9c7.8-2.1,15.7-4,23.7-5.7
	c2.1-0.4,5.1-0.4,6.4,0.8c1.5,1.5,2.4,4.6,2,6.7c-0.2,1.5-2.8,3.4-4.7,3.7c-11.5,2.1-23,4.1-34.6,5.5c-2.7,0.3-5.6-1.9-8.5-3
	C428.8,513.3,428.7,512.3,428.6,511.2z"/>
<path fill-rule="evenodd" clip-rule="evenodd" d="M367.7,47.4c18,1.8,36.1,3.6,54.1,5.3c0.1,0.9,0.3,1.9,0.4,2.8
	c-1.6,0.8-3.3,2.4-4.9,2.4c-15.3,0.1-30.6,0.2-45.8-0.5c-2.2-0.1-4.2-4.2-6.3-6.4C366,49.8,366.9,48.6,367.7,47.4z"/>
<path fill-rule="evenodd" clip-rule="evenodd" d="M441.8,535.9c3.6-6.9,20.3-14.1,24.6-11.6c1.3,0.8,2.6,3.1,2.5,4.5
	c-0.1,1.5-1.8,3.8-3.1,4.1C458.1,534.2,450.4,534.9,441.8,535.9z"/>
<path fill-rule="evenodd" clip-rule="evenodd" d="M709.6,613.9c-0.5,9.1-5,12.9-11.5,15.5c-5.6,2.2-10.4,1.6-11.5-5.1
	c-0.6-3.8-0.4-9.2,1.8-11.8c3.4-4,8.6-7.3,13.6-8.7C703.5,603.4,707,610.4,709.6,613.9z"/>
<path fill-rule="evenodd" clip-rule="evenodd" d="M773.7,622c0,10.1-7.6,17.4-16.6,15.6c-3.2-0.6-7-6.5-7.6-10.4
	c-1.1-7.3,6.3-14.4,13.3-14.2C769.7,613.1,772.9,617.3,773.7,622z"/>
<path fill-rule="evenodd" clip-rule="evenodd" d="M458.3,184.8c-1.4,13.1-6,20.6-13.4,27.3c-6.4,5.8-9.9,2.1-13.1-2.4
	c-6.6-9.1-3.5-30.1,5.9-36.4c3-2.1,9.8-2.9,12.1-1C454.1,175.8,456.4,181.8,458.3,184.8z"/>
<path fill-rule="evenodd" clip-rule="evenodd" d="M519.4,220.6c-18.3-12.7-13.9-27.4-5.9-38.7c3.7-5.3,9.5-9.3,16.1-5.1
	c8.2,5.3,13.1,15.2,7.5,23.6C532.2,207.9,525.3,214.1,519.4,220.6z"/>
</svg>
