<?xml version="1.0" encoding="utf-8"?>
<!DOCTYPE svg PUBLIC "-//W3C//DTD SVG 1.1//EN" "http://www.w3.org/Graphics/SVG/1.1/DTD/svg11.dtd">
<svg artist="zl2017" version="1.1" id="zlIcon-products-more" xmlns="http://www.w3.org/2000/svg" xmlns:xlink="http://www.w3.org/1999/xlink" x="0px" y="0px"
	 width="1000px" height="1083.1px" viewBox="0 0 1000 1083.1" enable-background="new 0 0 1000 1083.1" xml:space="preserve">
<path fill-rule="evenodd" clip-rule="evenodd" d="M0.5,728.4c2.8-9.4,6.1-18.8,8.4-28.4c4.1-16.8,7.3-33.8,11.5-50.5
	c2.6-10.2,6.2-20.1,9.7-30c0.6-1.7,2.7-3.7,4.5-4c15.9-3.1,31.9-5.5,47.7-9c8.9-2,17.4-6.1,26.2-8.3c18.9-4.9,37.8-9.5,56.9-13.5
	c7.4-1.6,9.4-4.7,10.1-12.3c2.1-20.8-3.1-40.6-5.5-60.8c-2.9-24.2-5.9-48.5-8.6-72.7c-3-26.2-5.6-52.5-8.6-78.7
	c-3.3-29.4-6.1-58.8-10.5-88c-4.8-32.6-11.2-65-16.8-97.5c-2.5-14.6-4.3-29.3-7.1-43.9c-2.4-12.4,1.7-16.9,14.4-15.8
	c8.3,0.8,16.6,0.1,25,0.3c2.7,0.1,5.5,1.5,8.2,1.4c24.9-1,50-1,74.7-3.8c21.2-2.4,42.1-7.8,63-12.6c24.4-5.6,48.8-11.3,72.9-18
	c13.8-3.8,27.1-9.6,40.5-14.6c11.2-4.1,22.4-8,33.3-12.7c15.2-6.6,30.9-11.8,45.2-20.8c11.1-7,24.2-10.9,36.1-16.8
	c7.7-3.8,15.5-7.7,22-13.1c8.9-7.3,17.4-3.4,25.7-0.5c18.1,6.4,35.4,15,53.8,20.2c19.5,5.5,39.7,9.3,59.8,11.8
	c18,2.2,36.3,1.7,54.5,2c4.8,0.1,9.6-1.2,16.1-2.2c0.8,6.4,2.4,13.9,2.5,21.5c0.2,7.9-1.3,15.7-1.4,23.6c-0.3,14-0.3,28,0,42
	c0.5,29.3,1.7,58.7,1.5,88c-0.2,29.5-2,59-2.8,88.5c-0.2,5.4,1,10.9,1.2,16.4c0.7,23.3,1.4,46.7,1.7,70c0.3,27.1,0.4,54.1-0.1,81.2
	c-0.2,12.4-1.5,24.8-3.5,37c-1.6,9.8,3,16.4,9.3,21.8c14.3,12.3,28.5,24.7,44,35.3c33.5,23.2,67.7,45.5,101.8,67.8
	c12.7,8.4,26,16,39.1,23.7c2.8,1.7,6.3,2.2,9.1,3.9c8.4,5,16.7,10.3,24.9,15.8c1.1,0.8,2,3.8,1.4,5c-3,5.6-0.2,9.4,2.8,13.8
	c6.3,9.4,5.5,21.6-0.8,30.8c-1.4,2-1.7,5.1-1.7,7.7c-0.1,23.3,0.4,46.6-0.2,69.9c-0.5,19.1-2.2,38.1-3.3,57.2
	c-0.7,11.9-1.3,23.8-1.7,35.8c-0.5,15.7-3.6,19.2-18.3,22.9c-12.6,3.3-25,7.5-37.4,11.7c-22.5,7.6-45,15.3-67.4,23.1
	c-16.5,5.8-32.7,12-49.2,17.7c-28.8,10-57.6,20.1-86.7,29.3c-13.2,4.2-27.3,5.8-40.7,9.6c-16.3,4.6-32.2,10.9-48.5,15.5
	c-59.5,16.9-119,33.2-178.5,50c-10.9,3.1-21.4,7.2-32.1,10.8c-1.1,0-2.3,0-3.4,0c-3.6-3.5-7-7.2-10.9-10.4
	c-19.5-16.1-39.1-32-58.7-48.1c-10.4-8.6-20.7-17.3-31.1-25.9c-9.5-7.9-19.1-15.7-28.9-23.3c-10.3-8-21-15.3-31.3-23.3
	c-10.2-8-20.3-16.2-30-24.7c-9.9-8.7-18.8-18.5-29.1-26.7c-17.9-14.2-36.8-27.2-54.7-41.4c-30.4-24.2-60.4-49.1-90.6-73.6
	c-9.4-7.6-19.3-14.4-28.6-22c-10.6-8.6-20.7-17.7-31.1-26.6C0.5,734.1,0.5,731.2,0.5,728.4z"/>
<path fill-rule="evenodd" clip-rule="evenodd" fill="#FFFFFF" d="M575.3,847.3c6.4-1.1,8.9-4.8,7.8-11.2c-0.6-3.5-1.3-7.1-1.4-10.7
	c-0.8-17.4-1.3-34.9-2.1-52.3c-0.1-1.8-1.1-3.5-1.7-5.2c-0.9-0.4-1.9-0.8-2.8-1.2c-2.4,3.8-7,7.6-6.9,11.3c0.3,16.9,1.7,33.8,3,50.6
	c0.3,3.8,1.8,7.5,2.7,11.3C574.5,842.4,574.9,844.9,575.3,847.3c-7.3-0.6-9.5-4.7-9.5-12c0-18.1-0.9-36.3-1.7-54.4
	c-0.1-3.3-1.7-6.6-2.6-10.1c-9.1,4.7-5.8,63.1,3.6,79C568.4,849,571.9,848.1,575.3,847.3z"/>
<path fill-rule="evenodd" clip-rule="evenodd" fill="#FFFFFF" d="M970.6,677c-10.2-7.4-18.1-13.3-26.1-18.8
	c-15.2-10.5-30.5-20.8-45.7-31.2c-20.9-14.4-41.5-29.3-62.6-43.4c-27.7-18.6-55.8-36.7-83.9-54.8c-1.9-1.2-6-1.3-7.6,0
	c-8.1,6.3-15.3,13.8-23.6,19.8c-11.1,8-23.9,13.9-34,22.8c-9.7,8.6-17.1,19.9-25.4,30.1c-8.3,10.2-15,22.3-29.9,24.5
	c-11.3,1.7-22.7,4.7-34,4.6c-43.8-0.3-87.7,3.4-131.2-3.4c-26.6-4.1-53.3-8.5-77.8-21.4c-12.3-6.5-25.8-10.8-38.3-16.8
	c-12.2-5.9-24-12.7-35.4-18.8c2.5-7.4,5-14.9,7.1-21.3c-89,26.6-178.1,53.2-266.6,79.6c11.1,5.1,23.1,10.6,35.1,16.1
	c18.7,8.5,37.5,16.9,56.3,25.3c8.4,3.7,16.8,7.2,25.3,10.7c16.9,7.1,33.8,14,50.7,21.2c8.2,3.5,16,7.8,24.2,11.2
	c17.3,7.2,34.9,13.7,52.2,21c12.3,5.2,24.1,11.6,36.4,16.8c18.9,8,37.9,15.7,57.1,23c7.5,2.8,15.4,5.3,23.3,5.9
	c8.7,0.7,17.5-0.6,26.3-1.6c13.6-1.5,27.2-3.5,40.9-5c21.5-2.4,43.1-4.5,64.6-6.8c5.5-0.6,11.7,0.2,14.3-6.9
	c0.3-0.9,2.3-1.4,3.6-1.6c13.3-1.8,26.7-3.4,40-5.2c14.2-1.9,28.4-3.5,42.4-6.1c13.4-2.5,27-3.1,40.1-8.8
	c11.2-4.8,24.3-5.1,36.5-7.4c29.6-5.7,59.3-11,88.8-17.1c31.4-6.5,62.7-13.6,93.9-20.6c5.9-1.3,11.7-3.6,17.6-5
	C939.3,683.9,953.6,680.8,970.6,677z"/>
<path fill-rule="evenodd" clip-rule="evenodd" fill="#FFFFFF" d="M129.9,128c3.3,22.3,5.5,43.2,9.7,63.7c4.1,20.3,6.1,40.6,6.7,61.2
	c0.2,6.3,1.9,12.7,3.2,18.9c1.6,7.6,4.3,15.1,5.1,22.7c1.7,17.1,1.8,34.4,3.8,51.5c2.1,18.3,5.4,36.5,8.3,54.7
	c2.8,18,5.5,35.9,8.8,53.8c2.1,11.5,5.3,22.8,7.7,34.2c1.6,7.4,3,14.8,4.1,22.2c3,20.2,6,40.4,8.5,60.7c0.8,6.5,4.4,5.2,8.2,4.1
	c18-5,35.9-10.1,53.9-15.4c21-6.1,42-12.3,62.9-18.9c2.2-0.7,4.6-3.6,5.3-5.9c2.7-10,4.8-20.2,7.1-30.3c3.4-14.5,7.2-28.8,10-43.4
	c3.1-15.7,5.5-31.5,7.9-47.3c3.3-21.6,7.1-43.1,9.1-64.8c1.5-16.2-0.1-32.7,0.4-49c0.4-13.5,3.3-27,2.8-40.3
	c-0.6-15.7-3.2-31.4-6.1-46.9c-2.9-15.5-2.2-18.9,8.8-26.4c16.6-11.3,33.7-21.9,49.4-34.3c14.8-11.7,31.5-16.7,49.4-17
	c17.9-0.3,35.9-1.8,54,1.1c24.5,3.8,49.4,5.3,73.8,7.7c-7.7-39.9-15.5-80.2-23.2-120.5c-23.1,8.6-45,16.6-66.8,24.8
	c-19.5,7.4-39,14.9-58.5,22.4c-16.6,6.4-32.8,14.1-49.7,19.2c-22.1,6.7-44.7,11.7-67.2,16.9c-15.8,3.6-31.7,6.3-47.7,9.2
	c-10.6,1.9-21.3,3.6-32,5.2c-11.9,1.8-23.8,3.5-35.6,5.1c-4.4,0.6-8.9,1.2-13.3,1.4c-16.8,0.7-33.6,1.6-50.3,1.8
	C142.1,130.2,136,128.8,129.9,128z"/>
<path fill-rule="evenodd" clip-rule="evenodd" fill="#FFFFFF" d="M436.5,1065.7c4.3,0,6.3,0.4,8.2-0.1c17.5-4.4,35.1-8.6,52.5-13.4
	c34.6-9.5,69.1-19.6,103.7-29.1c15-4.1,30.4-7,45.4-11.3c25.4-7.2,50.7-15,76.1-22.5c20.8-6.2,41.9-11.5,62.5-18.5
	c23.3-8,46.1-17.9,69.2-26.4c18.3-6.8,36.7-13,55.3-19.1c10-3.3,19.7-7.1,30.4-9.3c20.7-4.2,27.8-5.6,29.1-30.3
	c0.6-11.1,3.2-22.2,4.6-33.3c2-16.2,3.7-32.4,5.6-48.6c1.3-10.9,2.8-21.7,4.1-32.6c0.6-5.1,0.8-10.2,0.8-15.3c0.1-9.5,0-19,0-28.7
	c-2.2,0.9-4.3,2-6.5,2.7c-16.5,5.1-32.7,11.4-49.5,14.9c-44.4,9.2-85.9,27.5-129,40.7c-6.3,1.9-8.8,5.6-8.4,11.6
	c0.5,9.3,1.2,18.6,1.8,27.6c5.8,1.7,12.4,1.7,16,5c11.7,10.9,17.7,23.8,15.4,41.3c-1.6,12,1.6,25.1,4.9,37.1
	c2.5,9,2.1,12.9-7.4,15.4c-7.5,2-15,4.1-22.5,6.2c-14.1,4-27.6,10.7-43,9.3c-9.2-0.8-12.6-5.8-11.4-14.9c1.5-11.1,1.7-22.3,1.6-33.5
	c-0.1-11.5-1.8-22.6,4.8-33.4c7.8-12.7,11.3-28.9,30-32c-1.1-10.9-2.1-21.1-3.1-31.6c-4.9,1.2-8.7,2-12.4,3.1c-28,8.5-56,17-84,25.5
	c-21.8,6.6-43.6,13.2-65.4,19.7c-24.3,7.3-48.6,14.4-72.7,22c-4.5,1.4-8.4,4.5-11.7,6.3c-3.7,0-7.2-0.8-10.3,0.1
	c-17.6,5.2-35.1,10.7-52.7,16.2c-14.4,4.5-28.8,9.1-42.5,13.4c1.1,12.9,2.5,24.4,2.9,35.9c0.9,27.9,0.7,55.8,2,83.6
	C431.5,1035,434.5,1050.1,436.5,1065.7z"/>
<path fill-rule="evenodd" clip-rule="evenodd" fill="#FFFFFF" d="M364.6,202.4c1.5,17.6,4.1,33.6,4.1,49.6
	c0.1,43.3-0.9,86.6-1.5,129.9c0,1.1,0.1,2.3-0.1,3.4c-6.4,30.2-9.4,60.7-8.4,91.6c0.4,11.9,0.6,23.8,1.8,35.6c1,9.4,2.2,19,5.3,27.9
	c4.3,12.7,9.6,25.3,15.8,37.2c8.4,16.1,26.2,21.2,40.2,30.3c15.2,9.8,33.9,13.2,52,14c25.8,1,51.7,0.5,77.5,0.2
	c18.5-0.2,37-0.5,55.4-1.9c8.7-0.7,17.3-3.8,25.7-6.7c4.5-1.6,8.7-5.1,6.8-11.1c-3.7-11.1-7.4-22.2-11.6-33.1
	c-8.8-22.6-19.1-44.7-26.5-67.7c-8.1-25.4-12.8-51.9-20.4-77.4c-7.7-25.6-9.3-51.9-11-78.1c-1.9-29.2-1.7-58.5-1.9-87.7
	c0-12.1,1.5-24.3,2.4-37.1c-3.6,0-5.5-0.2-7.5,0c-16.2,1.6-32.4,4.3-48.7,4.8c-17.3,0.5-34.6-0.6-51.9-1.6
	c-6.9-0.4-13.8-2.2-20.7-3.3c-7.2-1.2-14.3-3.1-21.5-3.3C400.8,217.6,383.1,212.6,364.6,202.4z"/>
<path fill-rule="evenodd" clip-rule="evenodd" fill="#FFFFFF" d="M421.7,1063.3c1.1-0.6,2.1-1.2,3.2-1.7
	c-1.5-19.2-3.6-38.4-4.4-57.6c-1.1-28.7-1.2-57.4-1.9-86.1c-0.2-10.8,0-20.1-13.2-26.6c-21.5-10.6-41-25.3-61.8-37.5
	c-13.6-8-28-14.6-41.9-22c-16.4-8.8-32.6-18.1-49-26.9c-20.3-10.8-41.1-20.7-61-32.1c-23.1-13.3-45.5-27.8-68-42
	c-12.7-8-25.1-16.6-37.8-24.7c-16.2-10.3-32.4-20.5-48.7-30.5c-3.9-2.4-8.3-4.1-14.9-7.2c-4,20.3-8.8,38.9-10.8,57.8
	c-0.6,5.6,5.8,13.4,11,17.8c19.1,16.5,39.1,32,58.8,47.9c15.4,12.4,30.9,24.6,46.3,37c21.4,17.3,42.7,34.7,64.3,51.8
	c11.3,9,23.3,17,34.6,25.9c9.6,7.6,18.4,16.3,28,24c13.3,10.7,27.3,20.7,40.5,31.5c16.5,13.6,32.4,28.1,48.9,41.8
	c14.2,11.9,28.7,23.5,43.4,34.7C398.4,1047.2,410.2,1055.1,421.7,1063.3z"/>
<path fill-rule="evenodd" clip-rule="evenodd" fill="#FFFFFF" d="M657.4,181.8c-0.1-0.3-0.1-0.6-0.2-0.9c-8.8,1.5-17.6,3.6-26.5,4.2
	c-15.1,1-35,18.8-37.4,33.5c-2.1,12.7-5.4,25.2-8.2,37.8c-0.5,2.4-1.3,4.8-1.5,7.2c-0.5,8.1-1.1,16.1-1.2,24.2
	c0,12.4-8.6,23.7-4.6,36.7c0.5,1.7-0.4,3.9-0.4,5.9c0,10.1-0.7,20.3,0.2,30.3c1.2,12.8,3.5,25.5,5.5,38.2c2,13,2.9,26.3,6.6,38.8
	c9.4,32,19.7,63.7,30.4,95.3c4.7,13.9,11.1,27.3,16.8,40.9c2.7,6.4,7,10,13.9,5.7c12.2-7.5,24.3-15.4,36.3-23.2
	c10.4-6.8,20.4-14.4,31.3-20.3c6-3.2,9.2-7.5,10.1-13.2c3.3-20.7,6.2-41.5,8.7-62.3c0.8-6.8-1.2-14.1,0.4-20.6
	c3.5-14,3.5-27.7,1.5-41.8c-1.7-11.8-1.3-23.9-3.5-35.5c-3.3-17.5-7.6-34.8-12.1-52.1c-5.9-22.9-11.7-45.8-19-68.3
	c-5.1-15.8-12.6-30.9-18.7-46.4c-4.6-11.8-7-13.7-20-14C663.1,181.7,660.2,181.8,657.4,181.8z"/>
<path fill-rule="evenodd" clip-rule="evenodd" fill="#FFFFFF" d="M756.1,49.5c-27.5-2.2-54.5-2.8-80.9-7
	c-26.3-4.1-52-11.7-78.1-17.8c-0.4,2.4-2.1,6.9-1.7,11.2c1.8,18.2,4.4,36.3,6.6,54.5c2.3,19.5,4.3,39,6.4,58.2
	c20.5,3.3,39.7,5.7,58.6,9.6c7.7,1.6,16.9,1.9,20.6,12.4c6.8,19.6,15.3,38.7,22.2,58.3c5.3,14.9,9.5,30.2,13.9,45.4
	c4.2,14.7,8.2,29.5,12,44.3c2.1,8.1,3.7,16.3,5.3,23.9C758.6,245.5,759.2,147.5,756.1,49.5z"/>
<path fill-rule="evenodd" clip-rule="evenodd" fill="#FFFFFF" d="M662.9,162.9c-1.8-0.4-4.4-1.3-7.1-1.7
	c-16.6-2.4-33.6-3.5-49.9-7.2c-31.7-7.3-63.9-7.4-96-9.9c-9.7-0.7-19.4-0.3-29.1-0.6c-17.2-0.6-34.7,0.7-49.8,8.6
	c-17.5,9.2-33.3,21.8-49.8,33.1c-1.8,1.2-2.8,3.6-4.6,6.1c13.5,5.1,25.6,11.2,38.4,13.9c18,3.8,36.6,5.9,55,7.1
	c18.2,1.2,36.6,0.6,54.9,0.1c10.3-0.3,20.9-1.2,30.9-3.5c13.8-3.2,28.5-3.8,39.5-15.6c5.2-5.5,13.5-8.5,20.8-11.6
	C631.6,175.1,647.5,169.1,662.9,162.9z"/>
<path fill-rule="evenodd" clip-rule="evenodd" fill="#FFFFFF" d="M466.1,875.7c9.6-2.2,16.6-3.8,23.6-5.5c5.6-1.3,8.9-4.1,7.8-10.6
	c-1-6.1-1.3-12.3-1.8-18.4c-1.5-19.7-2.8-39.4-4.4-61.7c-3.8,2.5-8.1,3.8-8.9,6.3c-1.7,4.9-2.3,10.5-2,15.8
	c1.4,18.5,2.9,37,5.5,55.4c0.7,5.3-0.6,6.9-5,8.4c-2.2-27.7-4.3-54.7-6.4-81.6c-3.7,0.4-7.2,0.8-10.8,1.1
	c-14.3,1.3-14.7,1.3-14.1,15.5c1,25.5,2.7,51.1,4.2,76.7c5.9,0.1,11.1,1.6,8.1-6.3c-0.9-2.3-0.3-5.1-0.3-7.6
	c-0.1-18.4-0.3-36.9-0.3-55.3c0-6.9,0.4-13.8,0.6-20.8c1.5,0,2.9,0.1,4.4,0.1C466.1,816.4,466.1,845.4,466.1,875.7z"/>
<path fill-rule="evenodd" clip-rule="evenodd" fill="#FFFFFF" d="M585.4,766.3c-4.1,26-1,50.6,5.2,76.1c5.9-2.1,10.9-3.8,15.1-5.3
	c0-25.1,0-48.7,0-71.8c-6.9-2.5-7.5,0.7-7.3,5.1c0.6,15.3,1,30.6,1.8,45.9c0.2,4,2.3,7.9,2.6,11.9c0.2,2.5-1.4,5.1-2.2,7.6
	c-1-0.2-2-0.4-3-0.6c-1.6-22.9-3.2-45.9-4.8-69C590.2,766.3,588,766.3,585.4,766.3z"/>
<path fill-rule="evenodd" clip-rule="evenodd" fill="#FFFFFF" d="M630.1,830.6c1.5-0.5,4.5-2.3,7.6-2.6c9.1-0.9,11.6-5.8,10.6-14.3
	c-2.2-19-3.9-38-5.8-57.6c-7.7-1.4-8.5,3.8-7.9,9c2.1,16.7,4,33.4,7.5,49.8c1.3,6.4-1.3,6.4-4.3,7.3c-2.7-21.2-5.4-42.1-8.1-63
	c-1.1-0.2-2.2-0.4-3.3-0.6c-1.3,2-3.8,4-3.7,5.9c0.5,11.9,1.2,23.9,2.5,35.8C626.3,810.3,628.4,820.2,630.1,830.6z"/>
<path fill-rule="evenodd" clip-rule="evenodd" fill="#FFFFFF" d="M521.6,778.1c-3.6,0-6.5-0.8-8.6,0.2c-2.1,1.1-5,3.9-4.8,5.8
	c1.8,22.9,4.1,45.8,6.4,68.8c0.3,3.6-1.7,9.2,4.6,8.9c5.5-0.3,9.1-3.1,8.2-10.1c-1.4-10.6-1.7-21.3-2.6-32
	C523.8,805.9,522.7,792.2,521.6,778.1z"/>
<path fill-rule="evenodd" clip-rule="evenodd" fill="#FFFFFF" d="M352.4,850c0-4,0-7.3,0-10.7c-0.1-5.4-0.6-10.8-0.1-16.2
	c1.4-16.8,3.3-33.5,4.5-50.3c0.6-8.3-2.1-10.2-11.3-9.3c-2.4,20.6-5,41.2-7.1,61.8C337,839.2,340.1,844.6,352.4,850z"/>
<path fill-rule="evenodd" clip-rule="evenodd" fill="#FFFFFF" d="M406.3,872.1c1.3-12.8,2.5-25.4,3.7-37.9
	c0.9-9.5,1.2-19.1,2.6-28.6c1.8-13.1-1.1-18.6-12-20.3c-1.5,25.6-2.3,51.3-4.7,76.8C395,871.6,399.1,872.1,406.3,872.1z"/>
<path fill-rule="evenodd" clip-rule="evenodd" fill="#FFFFFF" d="M234.6,714.7c-0.9,23.6-1.8,46.6-2.7,68.6c5.1,3.2,9,5.6,15.3,9.6
	c0-22.3,0.1-42.1,0-61.8C247.2,723.5,245.9,716.6,234.6,714.7z"/>
<path fill-rule="evenodd" clip-rule="evenodd" fill="#FFFFFF" d="M426,884.3c3.4-2.3,9.2-4.4,9.3-6.6c0.7-19.4,0.8-38.8,0.2-58.1
	c-0.3-9.8-2.3-19.6-3.5-29.4c-1.2-0.1-2.3-0.1-3.5-0.2c-5.7,14.4-4.9,29.9-4.6,45.2C424.1,850.7,425.1,866.2,426,884.3z"/>
<path fill-rule="evenodd" clip-rule="evenodd" fill="#FFFFFF" d="M532,856.4c8.5,0.5,12.6-4.8,11.5-13.7c-2.3-20-4.5-40-6.7-60
	c-0.4-3.5,0.8-8.2-5-7.8c-5.1,0.4-5.7,4.2-5.4,8.6C528.4,807.5,530.1,831.6,532,856.4z"/>
<path fill-rule="evenodd" clip-rule="evenodd" fill="#FFFFFF" d="M296.7,819.5c-0.5-7.7-1.3-14.6-1.4-21.5
	c-0.5-17.1-1.7-34.3-0.5-51.2c0.5-7.7-3.8-7.1-8.3-9.6c-0.5,5.4-1,10.1-1.5,14.8c-1.1,11.7-2.7,23.4-3.2,35.2
	C281,802.8,280.3,812.4,296.7,819.5z"/>
<path fill-rule="evenodd" clip-rule="evenodd" fill="#FFFFFF" d="M321.1,832.2c-0.5-3.8-1.5-7.4-1.3-10.8
	c1.3-19.9,2.8-39.9,4.6-59.8c0.8-8.8-2.8-12.5-11.6-12.4c-0.2,2.1-0.4,4-0.5,5.9c-0.5,20.7-1.6,41.4-1,62.1
	C311.5,822.1,310.9,831.1,321.1,832.2z"/>
<path fill-rule="evenodd" clip-rule="evenodd" fill="#FFFFFF" d="M252.8,721.5c0.4,2.9,1.1,5.2,0.9,7.6c-0.9,17.7-2.6,35.4-2.9,53.1
	c-0.1,7.3,0.5,15.9,11.1,17.8c0.8-9.3,2.2-18.4,2.2-27.6c0-13-1.6-26-1.3-38.9C263.1,725.7,259.5,723.3,252.8,721.5z"/>
<path fill-rule="evenodd" clip-rule="evenodd" fill="#FFFFFF" d="M360.7,767.5c-1.3,29.5-4.8,58.2-0.1,87.1
	c2.3-3.8,4.2-7.6,4.7-11.6c2.5-20.9,4.4-41.8,7.1-62.7C373.6,771.6,368.9,769.1,360.7,767.5z"/>
<path fill-rule="evenodd" clip-rule="evenodd" fill="#FFFFFF" d="M392.9,779.3c-1.3,0.3-2.5,0.6-3.8,0.8c-1,10.3-2,20.5-3.2,30.8
	c-1,9.2-2.1,18.4-3.4,27.5c-0.9,6.6-3.1,13.2-2.9,19.8c0,2.4,5.1,4.7,7.8,7c1.2-2.5,3.2-4.8,3.5-7.4c0.6-4.8-0.1-9.7,0.3-14.5
	c1.5-18.5,3.5-37,4.8-55.5C396.3,785.1,394.1,782.2,392.9,779.3z"/>
<path fill-rule="evenodd" clip-rule="evenodd" fill="#FFFFFF" d="M326.1,755.1c0,24.9,0.1,49.6-0.1,74.2c-0.1,6,1.6,9.5,7.4,10
	c1-13.6,1.9-26.9,3.1-40.2c0.9-10.3,2.1-20.6,3.4-30.9C340.9,759,339.2,757,326.1,755.1z"/>
<path fill-rule="evenodd" clip-rule="evenodd" fill="#FFFFFF" d="M267.8,729.7c0,25.3,0,49.6,0,74.1c3.1,1.3,5.5,2.3,8.7,3.7
	c1.1-22.5,1.8-43.8,3.5-64.9C280.7,733.8,276.2,731.4,267.8,729.7z"/>
<path fill-rule="evenodd" clip-rule="evenodd" fill="#FFFFFF" d="M502.7,779.8c-0.9,0-1.9,0.1-2.8,0.1c-6.2,7.6-4.5,16.9-3.9,25.6
	c1.1,15.9,3.2,31.8,4.8,47.7c0.2,2.3-0.7,5.1,0.3,6.7c1.5,2.3,4.3,3.7,6.5,5.5c1.2-2,2.5-3.9,3.4-6c0.4-1,0.2-2.3,0.1-3.4
	c-1.7-19.6-3.4-39.2-5.3-58.8C505.2,791.3,503.8,785.6,502.7,779.8z"/>
<path fill-rule="evenodd" clip-rule="evenodd" fill="#FFFFFF" d="M439.8,879.8c8.2,0.3,10.1-3.4,9.7-9.9
	c-1.4-22.3-2.4-44.6-3.5-66.9c-0.2-4.8,0-9.5,0-14.3c-0.7-0.5-1.5-1-2.2-1.4c-2,1.8-5.7,3.6-5.7,5.4c0,13.9,0.8,27.8,1,41.7
	c0.2,12.5,0,25.1,0.1,37.6C439.2,874.7,439.6,877.3,439.8,879.8z"/>
<path fill-rule="evenodd" clip-rule="evenodd" fill="#FFFFFF" d="M612.4,834.6c9.9-1.1,13.4-7,11.8-16.9
	c-2.9-18.5-5.6-37.1-8.4-55.7c-5.6-0.3-7.5,3.3-7,9.7c0.9,13,1.2,26,1.9,39C611,818.5,611.7,826.3,612.4,834.6z"/>
<path fill-rule="evenodd" clip-rule="evenodd" fill="#FFFFFF" d="M673.9,753.1c-9-0.9-13,4.9-11.9,15.1c1.3,11.7,2,23.5,3.4,35.2
	c0.5,4.1,1.9,8.1,3.4,11.9c0.5,1.2,3.1,2.1,4.7,1.9c1.1-0.1,2.7-2.2,2.8-3.5c0.5-7.4,1-14.9,0.9-22.3c-0.2-8.2-0.9-16.3-1.6-24.5
	C675.2,762.2,674.5,757.6,673.9,753.1z"/>
<path fill-rule="evenodd" clip-rule="evenodd" fill="#FFFFFF" d="M199.3,765.4c0-13.8-0.2-26.5,0.1-39.1c0.1-5.9,1.9-11.8,1.4-17.6
	c-0.4-5.4,0.1-12.9-9.6-12.6c-0.7,3.9-1.7,7.7-2.1,11.5c-0.8,8.1-1.8,16.3-1.6,24.4c0.3,11.4-5,25,10.1,31.8
	C197.8,763.9,197.9,764.1,199.3,765.4z"/>
<path fill-rule="evenodd" clip-rule="evenodd" fill="#FFFFFF" d="M982,690.2c-2.4-4.3-4.6-8.1-11.8-5c-9.2,3.9-19,6.1-28.7,8.7
	c-17.4,4.8-17.3,4.8-17.5,22.4c0,5.5-0.8,11-1.2,16.5c-0.8,0-1.6,0.1-2.3,0.2c-0.7-1.3-1.4-2.6-2.2-3.9c-0.4,0.3-0.8,0.6-1.2,0.9
	c0.2,2.1,0.5,4.1,0.7,5.8c4-0.3,7.3-0.6,11.1-0.9c0-9.5,0-18.8,0-28c0.6,0,1.2-0.1,1.8-0.1c1,1.7,2,3.3,3,5c0.4-3-0.7-5.7-0.7-8.3
	c0-1.9,1.6-3.8,2.5-5.6c1.6,1.1,4.2,1.9,4.7,3.4c1.8,5.5,3,11.3,4.4,16.9c0.5,2.1,1.1,4.2,1.6,6.3c0.9-0.2,1.9-0.4,2.8-0.6
	c-1.5-8.6-3-17.2-4.7-27.4c3.8,2.2,7.1,4.2,10.3,6.1c-0.5-3.6-1-7.3-1.6-11.8c7.9,0.7,16.6-3.3,21,3.5c4,6.2,4.7,14.6,6.7,21.8
	C988.4,707.9,973.1,698.9,982,690.2z"/>
<path fill-rule="evenodd" clip-rule="evenodd" fill="#FFFFFF" d="M380.8,773.9c-1.1,0.4-2.2,0.8-3.3,1.1c-1.1,8-2.4,15.9-3.4,23.9
	c-2.2,17.2-4.4,34.4-6.2,51.6c-0.3,3.3,1.7,6.7,2.7,10.1c0.9-0.2,1.9-0.5,2.8-0.7c0.4-3.3,0.3-6.7,1.4-9.7
	c8.7-22.5,6.6-46.4,9.3-69.6C384.4,778.5,382,776.2,380.8,773.9z"/>
<path fill-rule="evenodd" clip-rule="evenodd" fill="#FFFFFF" d="M222.5,707.9c-1.1,1-1.8,1.4-1.9,1.8c-1.1,20-2.3,39.9-3.3,59.9
	c-0.1,1.6,0,3.7,0.9,4.8c1.5,1.8,3.7,3.1,5.6,4.5c0.9-1.6,2.4-3,2.6-4.7c0.9-6.1,1.4-12.2,1.8-18.4c0.7-9.8,1.8-19.7,1.5-29.5
	C229.7,719.7,234.4,710.3,222.5,707.9z"/>
<path fill-rule="evenodd" clip-rule="evenodd" fill="#FFFFFF" d="M698.7,747c-0.9-0.6-1.8-1.2-2.8-1.7c-1.6,2.9-4.6,5.7-4.6,8.6
	c-0.4,18.7-0.2,37.4-0.2,57.7c6.8-1.4,11-2.3,14.8-3.1C703.4,787.5,701,767.3,698.7,747z"/>
<path fill-rule="evenodd" clip-rule="evenodd" fill="#FFFFFF" d="M548.9,853.8c7.2-1.2,10.5-3.3,7.3-9.8c-1.2-2.4-1.9-5.3-2.1-8
	c-1.3-19.8-2.4-39.6-3.6-59.4c-0.1-1.1-0.4-2.2-0.7-3.7c-2.7,0.2-5.1,0.3-9,0.6C543.5,800.4,546.2,826.7,548.9,853.8z"/>
<path fill-rule="evenodd" clip-rule="evenodd" fill="#FFFFFF" d="M655,822.5c1,0.2,2,0.3,3.1,0.5c1.3-3,3.8-6,3.7-9
	c-0.9-19.9-2.4-39.8-3.7-59.5c-9.3-2.4-10,4-9.6,9.5c1,13.9,2.7,27.8,4.3,41.7C653.3,811.4,654.2,817,655,822.5z"/>
<path fill-rule="evenodd" clip-rule="evenodd" fill="#FFFFFF" d="M808.4,765c-5.9,1.1-6.7-0.7-5.7-8.3c1.2-9.6,1.3-19.3,1.9-29.8
	c-9.1,3.7-10.3,33.5-3.9,48c6-1.8,12-3.7,16.9-5.1c-6.4-14.6-1-29.5-3.7-43.8c-1.9,0.5-3.9,1-5.4,1.4
	C808.4,740.1,808.4,752.5,808.4,765z"/>
<path fill-rule="evenodd" clip-rule="evenodd" fill="#FFFFFF" d="M210.7,771.6c0.9-4.4,1.9-7.8,2.2-11.3c1.3-15.4,2.9-30.8,3.1-46.2
	c0-4.1,1.1-13.3-9-11c-0.7,5.4-1.9,10.7-2,16c-0.4,12.2-0.4,24.5-0.3,36.7c0,2.5,2.5,6,1.5,7.3C201.9,768.9,206.4,769.5,210.7,771.6
	z"/>
<path fill-rule="evenodd" clip-rule="evenodd" fill="#FFFFFF" d="M302,744c0,21.3,0.1,42-0.1,62.6c0,3.3-1.2,6.6-1.2,9.9
	c0,2.7,1,5.3,1.5,8c0.9-0.2,1.8-0.4,2.7-0.6c0.7-8.3,1.9-16.6,2.1-24.9c0.3-16.3-0.4-32.6,0.4-48.8C307.8,744.3,306.5,743,302,744z"
	/>
<path fill-rule="evenodd" clip-rule="evenodd" fill="#FFFFFF" d="M688.1,750.1c-6.1-2.5-7.5-0.4-7.4,4.5c0.2,14.7-0.3,29.4,0.3,44.1
	c0.2,5.2,2.6,10.3,4,15.4c1.1-0.2,2.1-0.4,3.2-0.6C688.1,792.3,688.1,771,688.1,750.1z"/>
<path fill-rule="evenodd" clip-rule="evenodd" fill="#FFFFFF" d="M741.1,798.7c1-5.3,3.3-10.7,2.8-15.9c-1.4-15-3.9-29.9-6-44.5
	C731.6,745.4,732,787.6,741.1,798.7z"/>
<path fill-rule="evenodd" clip-rule="evenodd" fill="#FFFFFF" d="M132.2,726.3c0.1-19.5,5.2-37.9-1.2-57c-1.6,1.7-3.3,2.6-3.3,3.6
	c-0.4,12-0.3,23.9-0.7,35.9c-0.1,3.6-1.5,7.1-2.5,11.9C125.7,721.6,128.5,723.7,132.2,726.3z"/>
<path fill-rule="evenodd" clip-rule="evenodd" fill="#FFFFFF" d="M139.3,673.8c0,7.1,0.2,13,0,19c-0.3,8.1-0.9,16.2-1.3,24.3
	c-0.2,3.4-0.5,6.8-0.9,11.4c4.1,2.3,7,0.7,7.4-6.7c0.9-14.5,1.7-29,2.7-44.3C145.4,676.7,142.9,675.5,139.3,673.8z"/>
<path fill-rule="evenodd" clip-rule="evenodd" fill="#FFFFFF" d="M751.9,735.7c-1.3-0.2-2.6-0.4-3.8-0.6c-7,6-4.2,14.8-3.5,22
	c1.3,12.2,2.5,24.8,7.3,36C751.9,773.9,751.9,754.8,751.9,735.7z"/>
<path fill-rule="evenodd" clip-rule="evenodd" fill="#FFFFFF" d="M792.1,728.3c-8.5,4.4-8.5,10.8-8.3,16c0.3,9.2,2.3,18.3,3.1,27.5
	c0.8,8.9,0.8,9.1,7.1,5.8c-0.7-3-1.8-5.4-1.8-7.9C792,756.7,792.1,743.6,792.1,728.3z"/>
<path fill-rule="evenodd" clip-rule="evenodd" fill="#FFFFFF" d="M155.3,738.7c-2.9-20.3,5.6-39.2,1.1-58c-1.4-0.1-2.8-0.1-4.2-0.2
	c-1.3,17.9-2.6,35.9-4,54.6C149.2,735.6,151.4,736.7,155.3,738.7z"/>
<path fill-rule="evenodd" clip-rule="evenodd" fill="#FFFFFF" d="M172.5,687.1c-2.8,21.7-4.1,40.7-0.5,59.8
	c2.9-18,4.7-36.1,6.1-54.2C178.3,691.4,175.3,689.8,172.5,687.1z"/>
<path fill-rule="evenodd" clip-rule="evenodd" fill="#FFFFFF" d="M779.6,734c-0.8-0.1-1.7-0.1-2.5-0.2c-5.5,16-3.8,32.4-0.2,49.5
	c2.3-1.4,4.8-3.4,4.8-5.4C781.3,763.3,780.4,748.6,779.6,734z"/>
<path fill-rule="evenodd" clip-rule="evenodd" fill="#FFFFFF" d="M708.8,800.2c1.4-0.1,2.8-0.2,4.2-0.3c-1-18.4-2.1-36.9-3.3-57.3
	c-1.9,2.4-4.8,4.4-4.7,6.1C706,765.9,707.5,783.1,708.8,800.2z"/>
<path fill-rule="evenodd" clip-rule="evenodd" fill="#FFFFFF" d="M167.3,684.2c-0.8,0-1.6-0.1-2.4-0.1c-6.4,17.2-7,49.6-0.1,53
	C165.6,719.2,166.4,701.7,167.3,684.2z"/>
<path fill-rule="evenodd" clip-rule="evenodd" fill="#FFFFFF" d="M729.4,739.3c-1,0-1.9,0-2.9,0c-6.8,19.4-1.2,38.3,2.9,57.2
	C729.4,777.5,729.4,758.4,729.4,739.3z"/>
<path fill-rule="evenodd" clip-rule="evenodd" fill="#FFFFFF" d="M757.8,735.5c0,18.6,0,37,0,55.4c1.2,0,2.4,0,3.5,0.1
	c0-16.6,0-33.1,0-49.7c0-1.4,0.1-2.9-0.2-4.2c-0.1-0.6-1-1.3-1.6-1.6C758.7,735.2,757.8,735.5,757.8,735.5z"/>
<path fill-rule="evenodd" clip-rule="evenodd" fill="#FFFFFF" d="M767.4,734.9c-5.7,22.2-3.3,45.7,4.4,52.1
	c-0.7-6.7-1.7-12.4-1.9-18.2c-0.3-9.4,0-18.8-0.2-28.1C769.7,738.7,768.2,736.8,767.4,734.9z"/>
<path fill-rule="evenodd" clip-rule="evenodd" fill="#FFFFFF" d="M718.1,744.1c-7,20.8-0.4,39.8,2.4,58.9
	C722.9,783.7,720,764.6,718.1,744.1z"/>
<path fill-rule="evenodd" clip-rule="evenodd" fill="#FFFFFF" d="M890.1,710.3c0.9,9.3,1.7,18.2,2.6,27.1c0.2,1.5,0.6,3,0.9,4.5
	c1.2-1.5,3.2-2.9,3.3-4.5c0.9-9.5,1.4-19,2-28.9C896,709.1,894.2,709.5,890.1,710.3z"/>
<path fill-rule="evenodd" clip-rule="evenodd" fill="#FFFFFF" d="M885.6,744.9c0-12,0-23.5,0-35.3c-6.7,5-8.4,17.5-5.1,35.8
	C882.4,745.3,884.2,745.1,885.6,744.9z"/>
<path fill-rule="evenodd" clip-rule="evenodd" fill="#FFFFFF" d="M78.6,691c3.5-14.9,2.9-28.6,0.5-42.2c-2,6.9-2.8,13.8-3.8,20.6
	C74.3,676.5,71.8,683.6,78.6,691z"/>
<path fill-rule="evenodd" clip-rule="evenodd" fill="#FFFFFF" d="M111,711.7c1.5-15.2,3-30.7,4.5-47.1
	C107.6,669.9,105.4,704.5,111,711.7z"/>
<path fill-rule="evenodd" clip-rule="evenodd" fill="#FFFFFF" d="M68.1,685.1c-1.5-3.9-4-7.4-3.9-10.9c0.2-10.4,1.5-20.8,2.4-32
	C56.9,649,58.8,680.2,68.1,685.1z"/>
<path fill-rule="evenodd" clip-rule="evenodd" fill="#FFFFFF" d="M182.3,752c0.8-18.3,1.7-36.5,2.5-54.7
	C180.4,715.4,175.9,733.5,182.3,752z"/>
<path fill-rule="evenodd" clip-rule="evenodd" fill="#FFFFFF" d="M838.7,763.6c0.7-0.6,1.4-1.2,2.1-1.8c-9.5-12.8,3.7-27.5-4.3-40.6
	c-1.6,11.5-2.7,23.1-2.8,34.7C833.7,758.4,836.9,761,838.7,763.6z"/>
<path fill-rule="evenodd" clip-rule="evenodd" fill="#FFFFFF" d="M100.5,706.5c0.9,0.1,1.9,0.2,2.8,0.2c0.7-14,1.4-27.9,2.2-41.9
	c-0.8,0-1.6-0.1-2.5-0.2C100.7,678.5,96.8,692.3,100.5,706.5z"/>
<path fill-rule="evenodd" clip-rule="evenodd" fill="#FFFFFF" d="M854.8,757c0-14.6,0-27.4,0-40.2c-2.6,1.5-4.2,3.1-4.2,4.8
	c-0.1,9,0.4,18,0.3,27.1c0,2.3-0.7,4.9-2,6.8c-1.1,1.6-3.5,2.4-5.3,3.6c0.4,0.7,0.8,1.3,1.2,2C848.7,759.4,852.4,758,854.8,757z"/>
<path fill-rule="evenodd" clip-rule="evenodd" fill="#FFFFFF" d="M823.3,723.7c-1.1,0-2.3,0-3.4,0c-0.3,12.6-3.5,25.3,3.4,37.7
	C823.3,748.7,823.3,736.2,823.3,723.7z"/>
<path fill-rule="evenodd" clip-rule="evenodd" fill="#FFFFFF" d="M89.8,654.2c-1.3-0.1-2.5-0.2-3.8-0.3c2.5,13.9-5.5,28,1.7,44
	C88.4,681.9,89.1,668.1,89.8,654.2z"/>
<path fill-rule="evenodd" clip-rule="evenodd" fill="#FFFFFF" d="M916.6,704.4c-1.2,0.7-5.5,1.7-5.7,3.3
	c-1.4,10.1-1.9,20.3-2.7,30.4c0.9,0.1,1.8,0.3,2.6,0.4C912.7,727.4,914.5,716.3,916.6,704.4z"/>
<path fill-rule="evenodd" clip-rule="evenodd" fill="#FFFFFF" d="M120.1,679.2c-0.5,0-1.1,0-1.6,0c0,11.1,0,22.2,0,33.3
	c0.5,0,1.1,0,1.6,0C120.1,701.5,120.1,690.3,120.1,679.2z"/>
<path fill-rule="evenodd" clip-rule="evenodd" fill="#FFFFFF" d="M92.5,693.6c0.8,0,1.5,0.1,2.3,0.1c0.8-11.8,1.6-23.5,2.4-35.3
	c-0.9-0.1-1.7-0.1-2.6-0.2C93.9,670.1,93.2,681.9,92.5,693.6z"/>
<path fill-rule="evenodd" clip-rule="evenodd" fill="#FFFFFF" d="M875.8,715.1c-1.1,0-2.3,0-3.4,0c0,10.1,0,20.2,0,30.3
	c0.5,0,1,0,1.5,0C874.6,735.2,875.2,725.1,875.8,715.1z"/>
<path fill-rule="evenodd" clip-rule="evenodd" fill="#FFFFFF" d="M866.7,720c-3.8,5.6-3.8,23.3,0,28.6
	C866.7,739.2,866.7,729.4,866.7,720z"/>
<path fill-rule="evenodd" clip-rule="evenodd" fill="#FFFFFF" d="M907,706.6c-1.2-0.1-2.3-0.2-3.5-0.3c-0.6,7.5-1.3,15-1.9,22.4
	c0.8,0.1,1.5,0.2,2.3,0.3C904.9,721.5,906,714,907,706.6z"/>
<path fill-rule="evenodd" clip-rule="evenodd" d="M216.8,223.4c6.2,1.3,12.4,3.1,18.8,3.7c2.4,0.3,6.1-1.2,7.6-3.1
	c16.9-21.8,44.6-27.3,67.7-13c2,1.3,3.4,3.5,5,5.5c16.5,20.2,14.9,59.9-0.4,78.6c-4.3,5.2-11.1,9.8-17.5,11.6
	c-13.4,3.6-27.3,4.2-40.1-3.3c-4.4-2.6-6.9-1.1-10.2,2.1c-4.9,4.7-10.2,10.9-16.2,12.2c-15.1,3.2-30.4,9.2-46.1-0.3
	c-9.4-5.7-14.4-14.1-18.4-23.1c-8.2-18.9-2.9-35.7,9.5-51.6C186.9,229.3,199.8,223.2,216.8,223.4z"/>
<path fill-rule="evenodd" clip-rule="evenodd" fill="#FFFFFF" d="M243.8,254.4c0,2.6,0,5.1,0,7.7c0.2,18.6,16.6,36.8,35.2,38.1
	c13.1,0.9,24.4-1.5,33.3-14c8.5-12,9.2-24.5,8.5-37.7c-1.5-29.3-28.5-47.2-53.3-35.9C253.6,219,242.4,229,243.8,254.4z"/>
<path fill-rule="evenodd" clip-rule="evenodd" fill="#FFFFFF" d="M216.8,230.5c-13.6,1.1-24.7,6.3-33.5,16.1
	c-16.5,18.3-14.4,37.8-2.6,54.6c13.3,18.9,46.6,16.9,59.9-2.6c1.9-2.8,2.3-8,1.2-11.4c-4.8-13.9-8.5-27.7-5.1-42.7
	c0.6-2.7-2.2-7.8-4.9-9.3C227.4,232.6,221.8,232,216.8,230.5z"/>
<path fill-rule="evenodd" clip-rule="evenodd" d="M433.1,411c11.5,0.6,17.6-8.9,15.3-22.2c-1.2-7.1-1.7-14.3-2.5-21.5
	c0.7-0.4,1.5-0.7,2.2-1.1c1.5,2,4,3.9,4.4,6.1c2.1,11.5,4,23.2,5.2,34.8c0.5,4.5,3,5.7,5.9,8.4c11.6,11.1,24.6,6.2,37.4,5.8
	c0.3,0,0.5-0.3,0.8-0.5c1.1-13.7,10.1-22.4,19.8-30.6c1.2-1,4-0.2,6-0.3c-0.4,2-0.3,4.3-1.4,5.8c-6,7.9-12.2,15.6-19.1,24.4
	c5.7,2.6,9.4,4.3,14.8,6.7c4.9-5.7,10.3-11.8,15.7-18c1.1,0.4,2.2,0.9,3.2,1.3c-0.7,2.6-0.7,5.6-2.1,7.7c-1.5,2.2-4.2,3.6-6.4,5.3
	c-6.7,5.3-4.7,10.3,0.5,15.7c4.8-3.7,9.4-7.3,14-10.8c0.9,0.4,1.8,0.7,2.7,1.1c-0.7,2.2-0.7,5.5-2.2,6.4c-9,5.3-12.9,11.9-11,22.9
	c2.2,12.5-0.5,25-8.5,35c-18.6,23.2-48.8,29.5-69.4,2.1c-11.7,10.5-24.8,6.8-37.6,2.9c-14.1-4.2-26.4-21.9-26.5-36.5
	c-0.1-10.9-0.8-21.9,6.9-31.3c1.4-1.7,0.9-5.8,0-8.3c-2-5.8-4.8-11.3-7-17c-0.8-2.2-0.6-4.7-0.8-7.1c0.7-0.2,1.4-0.3,2.1-0.5
	c3.9,7.7,7.9,15.4,11.7,23c5.2-2.7,9.5-5.1,14.4-7.7c0-5.4,0.5-11.4-0.1-17.3c-0.5-5.4-2.2-10.6-3.4-15.9c1.3-0.3,2.6-0.7,4-1
	C425.9,389.5,429.4,400,433.1,411z"/>
<path fill-rule="evenodd" clip-rule="evenodd" fill="#FFFFFF" d="M531.6,462.1c1.5-8.9-2.7-17.2-9-24.2c-6.9-7.5-16.8-8.7-26.1-9.3
	c-17.1-1.2-35.9,21.5-35.4,39.1c0.8,27.7,13.7,37.2,29.6,37.2C510.2,505.1,532.7,490,531.6,462.1z"/>
<path fill-rule="evenodd" clip-rule="evenodd" fill="#FFFFFF" d="M470.5,430c-16.6-14.1-31-15.4-50.4-3.5
	c-19,11.7-24.2,42.7-5.4,57.4c7.9,6.2,30.3,11.7,38.7,7.4c1.4-0.7,2.8-3.8,2.4-5.4C451.2,465.1,454.8,446.3,470.5,430z"/>
<path fill-rule="evenodd" clip-rule="evenodd" d="M548.3,987.2c-19.6,18.9-44.2,16.4-62.7,2c-10.7-8.3-18-20.8-15.3-35.4
	c2.7-14.5,10.5-25.7,25.8-30.1c13.5-3.8,26.8-8.3,41.2-6.9c5.5,0.6,8.8-1.3,12.4-6.2c13.3-18.3,37.8-23.2,55.7-10.5
	c5.9,4.2,11.1,12,12.8,19c4.2,17.3,3.8,34.9-2.3,52.2c-4.8,13.6-15.7,18.1-28.1,20.7C574.3,995,561.3,992.7,548.3,987.2z"/>
<path fill-rule="evenodd" clip-rule="evenodd" fill="#FFFFFF" d="M545.4,948.7c0,3.1,0,6.3,0,9.4c0.1,19.1,22.1,34.5,41.6,24.4
	c16.4-8.5,23.8-22.8,24.9-40c1.4-22.3-1.8-31.8-23.8-38.5c-3.4-1-7.9-1.8-10.8-0.4C560.4,912.3,543.2,922.4,545.4,948.7z"/>
<path fill-rule="evenodd" clip-rule="evenodd" fill="#FFFFFF" d="M542,925.3c-4.1-0.6-7.9-1.9-11.6-1.4c-9.4,1.3-18.9,2.5-27.9,5.3
	c-14.6,4.4-20.8,16.9-23.4,30.4c-1.9,9.7,5.1,17.2,11.8,23.5c12.5,11.6,37.8,13.7,52-2.2C532.6,963.1,537.7,945.1,542,925.3z"/>
<path fill-rule="evenodd" clip-rule="evenodd" d="M813,592.9c-18.5-12.3-37-24.6-55.4-37.1c-2-1.4-3.4-3.6-4.3-7.4
	c2.5,0.7,5.4,0.9,7.5,2.3c16.1,10.7,32.2,21.5,48,32.6c2.7,1.9,4.4,5.2,6.5,7.9C814.5,591.7,813.8,592.3,813,592.9z"/>
<path fill-rule="evenodd" clip-rule="evenodd" d="M779.5,587.3c-12.1-9.9-26.5-14.8-36.4-27.6C752.7,559.6,778.9,579.1,779.5,587.3z
	"/>
<path fill-rule="evenodd" clip-rule="evenodd" d="M263.9,393.5c-2.4-3.4-5.2-7.4-7.9-11.4c5.6-2.2,11-5.1,16.7-6.6
	c16.1-4.4,32.3-8.2,48.5-12.2c0.3-0.1,0.5-0.2,0.8-0.3c3.9-1.3,7.4-9,11.6-2.6c2.4,3.6,0.6,9.8,1.1,14.7
	c1.4,11.4-5.8,10.2-13.7,10.9C302,387.7,283.1,390.9,263.9,393.5z"/>
<path fill-rule="evenodd" clip-rule="evenodd" d="M223.7,554.3c-0.9,1.1-2.8,4.2-3.4,4c-3.7-1.5-9.8-3.3-10.3-5.8
	c-4.6-23.8-8.3-47.7-12.1-71.6c-0.2-1.3,0.9-2.7,1.5-4.1c1.1,0.9,2.9,1.6,3.2,2.6c2.5,9,5.5,18,6.8,27.1c2,15,4.4,29.7,13.2,42.7
	C223.2,550.1,223.1,551.8,223.7,554.3z"/>
<path fill-rule="evenodd" clip-rule="evenodd" d="M566.7,120.9C563,99.4,559.2,78,556,56.5c-0.5-3.6,1.4-7.6,2.2-11.5
	c1,0.1,2,0.3,3,0.4c1.6,9.3,3.3,18.5,4.7,27.8c2.3,14.3,4.7,28.7,6.5,43.1c0.2,1.9-2.3,4.2-3.6,6.4
	C568.1,122,567.4,121.5,566.7,120.9z"/>
<path fill-rule="evenodd" clip-rule="evenodd" d="M226.1,494.2c1.9,8.3,3.7,16.6,5.8,24.9c1.7,6.7,3.9,13.3,5.3,20.1
	c0.5,2.2-0.6,4.8-1,7.2c-1.5-1.6-3.3-2.9-4.3-4.7c-7.2-12.6-7.2-26.9-9.1-40.7c-0.3-2.2,0.2-4.5,0.3-6.8
	C224.1,494.1,225.1,494.2,226.1,494.2z"/>
<path fill-rule="evenodd" clip-rule="evenodd" d="M552.1,109.2c-0.3,0.5-1.5,2.1-2.8,3.8c-1.3-1.8-3.5-3.4-3.8-5.3
	c-2-11.2-3.6-22.5-5-33.8c-0.3-2.1,1-4.5,1.5-6.7c1.1,1.7,2.9,3.3,3.3,5.2C547.6,84,549.7,95.7,552.1,109.2z"/>
<path fill-rule="evenodd" clip-rule="evenodd" d="M889.1,893.4c2.5-1.4,4.9-2.9,7.4-4c15.9-7.1,32-14,47.8-21.3
	c3.3-1.5,5.8-4.8,9-6.9c1.3-0.8,4.3-1.3,4.7-0.7c1.1,1.5,2.1,4.1,1.5,5.7c-2.6,6.6-6.9,10.9-14.4,13.2c-14.6,4.5-28.6,10.6-43,15.7
	c-3.7,1.3-8,1-12,1.4C889.8,895.4,889.5,894.4,889.1,893.4z"/>
<path fill-rule="evenodd" clip-rule="evenodd" d="M882.3,914.7c1.8-1.6,3.4-3.9,5.5-4.6c13.6-4.8,27.3-9.1,40.8-13.9
	c3.9-1.4,7.3-4,10.9-5.9c2.5-1.4,5.1-2.6,7.7-3.8c0.8,2.5,1.7,5,2.5,7.6c0.4,1.2,0.6,2.6,1.1,5c-22.2,6.1-44.3,12.1-66.4,18.2
	C883.8,916.3,883,915.5,882.3,914.7z"/>
<path fill-rule="evenodd" clip-rule="evenodd" d="M570,553.4c-10.8,5.1-21.6,10.2-32.4,15.2c-15.2,7.1-31.2,9.5-47.5,5.3
	c-10.2-2.7-19.8-7.5-29.9-10.5c-10.6-3.1-21.4-7-32.9-3.3c-1.8,0.6-4.5-2-6.8-3.1c1.6-2,2.9-5.1,4.9-5.7c8.8-2.5,17.8-4.2,26.7-6.3
	c6.1-1.5,12.1-3.6,18.2-5c9.5-2.2,13.8,5.3,18.7,11c4.2,5,7.4,6.1,13.9,2.1c5.6-3.5,14.7-5.8,20.5-3.8c12.4,4.4,23.8,2,35.7,0.1
	c3.3-0.5,6.8-0.1,10.2-0.1C569.5,550.7,569.7,552.1,570,553.4z"/>
<path fill-rule="evenodd" clip-rule="evenodd" d="M380.9,300.3c0-14,0.3-27.1-0.1-40.2c-0.3-8.1-2-16.1-2.7-24.2
	c-0.2-2.3,0.1-5.3,1.4-6.8c1-1.1,5.3-1.2,6-0.2c1.3,2,1.5,4.9,1.6,7.5c0.2,16.9,0.2,33.9,0.5,50.8
	C387.6,292.2,389,297.5,380.9,300.3z"/>
<path fill-rule="evenodd" clip-rule="evenodd" d="M398.8,239.4c8.2,2,11.1,21.5,3.8,32.7C401.4,261.3,400.1,250.5,398.8,239.4z"/>
<path fill-rule="evenodd" clip-rule="evenodd" d="M116.6,785.2c-2.7,4.6-5.5,9.3-7.8,13.3c-30.7-20-57.5-42.5-83.5-65.9
	c0.9-1.3,1.9-2.6,2.8-3.9C55.3,749.9,82.8,770.7,116.6,785.2z"/>
<path fill-rule="evenodd" clip-rule="evenodd" d="M88.6,755.9c0.3,2.5,0.6,5.1,0.9,7.6c-3.1-1.4-6.3-2.5-9.2-4.3
	c-10.1-6.4-20.1-13-29.9-19.7c-1.6-1.1-2.1-3.6-3.1-5.4c2.4-0.2,5.4-1.5,7.1-0.6c10,5.4,19.7,11.2,29.5,17c2,1.2,4,2.5,6,3.7
	C89.4,754.8,89,755.3,88.6,755.9z"/>
<path fill-rule="evenodd" clip-rule="evenodd" d="M714.9,318.6c-10.1,2.9-20,6.9-30.3,8.3c-20,2.7-37.5,12.1-55.7,19.5
	c-5.9,2.4-11,6.4-16.8,9.2c-2.4,1.2-6.4,2.5-8,1.4c-3-2.2-4.9-6.1-7.2-9.3c2.6-1.2,5.2-2.7,7.9-3.7c15.1-5.4,30.1-11.3,45.4-15.8
	c18.6-5.5,37.6-10,56.5-14.5c2.6-0.6,5.7,1,8.6,1.5C715.2,316.4,715,317.5,714.9,318.6z"/>
<path fill-rule="evenodd" clip-rule="evenodd" d="M617.8,428.7c-3.1-9.7-2.8-9.7,8.4-14.1c20.4-8.1,40.3-17.3,60.8-25.1
	c10.8-4.1,22.5-6.2,33.8-8.7c1.7-0.4,4,2,6,3.1c-1.7,1.7-3.1,4.6-5.1,5.1c-21.8,4.8-43.1,10.7-63.3,20.6
	C645.2,416.1,631.7,422.1,617.8,428.7z"/>
<path fill-rule="evenodd" clip-rule="evenodd" d="M696.8,262.2c-2.8,1.2-5.5,2.8-8.4,3.5c-23.8,5.9-47.6,11.5-71.3,17.5
	c-2.2,0.6-4,3-6,4.6c-8.6-9.1-7.8-13.4,4.2-15.7c24.1-4.8,48.3-8.9,72.4-13.1c2.6-0.5,5.4,0.2,8.1,0.3
	C696.2,260.2,696.5,261.2,696.8,262.2z"/>
<path fill-rule="evenodd" clip-rule="evenodd" d="M724,434.9c-0.9,1.9-1.4,4.7-2.9,5.4c-25,11.7-50.1,23.1-75.2,34.7
	c-6.7,3.1-13.3,6.3-20,9.4c-0.7-1.1-1.4-2.2-2.2-3.3c2.6-2.1,5.1-4.3,7.8-6.3c1.1-0.8,2.5-1,3.8-1.6c18.8-8.2,37.8-16.1,56.4-24.6
	c6.6-3,12.3-7.7,18.7-11.2c3.5-1.9,7.5-3.1,11.3-4.6C722.6,433.5,723.3,434.2,724,434.9z"/>
<path fill-rule="evenodd" clip-rule="evenodd" d="M730.3,480c-31.8,16-63.6,32-96.6,48.6c3-4.5,4.8-10.3,8.8-12.6
	c8.4-5,17.9-8,26.8-12.3c13.2-6.4,26.2-13.2,39.3-19.8c4.5-2.3,8.8-5.3,13.5-7c2.4-0.8,5.6,0.7,8.4,1.1
	C730.4,478.6,730.3,479.3,730.3,480z"/>
<path fill-rule="evenodd" clip-rule="evenodd" d="M719.3,508c-3.2,2.4-6.2,4.9-9.5,7.1c-17.6,11.9-35.3,23.6-52.6,35.8
	c-3.8,2.7-6.2,3.6-9.2-0.2c-3.6-4.7-0.1-6.2,3.4-8.2c18.6-10.6,37.2-21.4,55.8-32.1c3.3-1.9,6.6-3.8,10-5.7
	C717.8,505.8,718.5,506.9,719.3,508z"/>
<path fill-rule="evenodd" clip-rule="evenodd" d="M659.8,222.3c-14-3-26-0.5-37.8,5c-2.1,1-5.2-0.3-7.9-0.5c1.3-2.3,2.1-5.9,4-6.7
	c11.2-4.4,21.9-11.4,35-7.6C657.9,213.9,660.5,215.8,659.8,222.3z"/>
<path fill-rule="evenodd" clip-rule="evenodd" d="M612.4,66c5.9-2.7,10.3-2.6,11.4,2.9c0.5,2.3-2.5,7.5-4.3,7.8
	C610.3,77.9,616.3,69,612.4,66z"/>
<path fill-rule="evenodd" clip-rule="evenodd" d="M727.2,107.6c-3.4,3.1-5.7,5.2-7.9,7.3c-1.4-2.4-3.8-4.8-3.8-7.1
	c0-1.6,3.3-4,5.5-4.4C722.3,103,724.3,105.5,727.2,107.6z"/>
<path fill-rule="evenodd" clip-rule="evenodd" d="M697.8,119.4c2.6,3.4,5.3,5.6,4.9,6.7c-1,2.8-3.4,5.1-5.2,7.6
	c-1.5-1.9-4.3-3.8-4.3-5.8C693.1,125.6,695.5,123.3,697.8,119.4z"/>
<path fill-rule="evenodd" clip-rule="evenodd" d="M627.7,89.3c5.6,2.7,6.2,6.7,3,10.9c-0.8,1-5.1,1-5.9,0
	C621.4,96,622,92,627.7,89.3z"/>
<path fill-rule="evenodd" clip-rule="evenodd" d="M636.1,120.2c1-8.9,4.9-10.1,9.2-8.1c1.6,0.7,1.6,4.7,2.3,7.2
	C644.1,119.6,640.5,119.9,636.1,120.2z"/>
<path fill-rule="evenodd" clip-rule="evenodd" d="M734.8,53.1c0.5,3.5,1,7,1.5,10.6c-2.4-0.3-6.7,0-7-1c-0.9-2.9-0.2-6.2-0.2-9.4
	C731,53.2,732.9,53.1,734.8,53.1z"/>
<path fill-rule="evenodd" clip-rule="evenodd" d="M614.2,41.4c1.9,3.3,3.9,6.7,5.8,10c-0.7,0.8-1.3,1.6-2,2.5
	c-2.7-1.2-6.5-1.8-7.9-3.9c-1.2-1.8,0.4-5.4,0.8-8.3C612.1,41.6,613.2,41.5,614.2,41.4z"/>
<path fill-rule="evenodd" clip-rule="evenodd" d="M670.5,133.2c-2.9-1.6-5.7-3.3-8.6-4.9c2.1-2.1,4.2-4.3,6.3-6.4
	c1.7,2.8,3.3,5.6,5,8.5C672.4,131.3,671.5,132.2,670.5,133.2z"/>
<path fill-rule="evenodd" clip-rule="evenodd" d="M723,83.7c2.7-2.1,5.3-4.2,8-6.3c0.8,2.7,1.5,5.3,2.3,8c-3,0.6-5.9,1.2-8.9,1.8
	C723.9,86,723.4,84.8,723,83.7z"/>
<path fill-rule="evenodd" clip-rule="evenodd" d="M464.4,199.2c-13.7-2-25.1-3.7-36.6-5.4c-6.7-1-13.3-1.8-19.9-3.1
	c-1.2-0.3-3-2.9-2.8-4.1c0.6-3.3,1.1-7.6,3.4-9.5c5.6-4.9,12.1-8.8,18.4-12.8c11.6-7.4,24.3-11.4,38.2-10.6c1.1,0.1,3.2,2.3,3,2.7
	c-1.2,2.5-2.6,6.6-4.3,6.7c-9.2,0.9-14.1,7.4-19.7,13.2c-1.8,1.8-3.1,4-4.6,6c2.8,1.6,5.5,3.9,8.6,4.5c5.1,1.1,10.5,1.1,15.8,1.6
	c1.9,0.2,3.8,0.5,5.7,0.8c-0.6,2-0.9,4.3-1.9,6C466.3,197.3,464.4,199.2,464.4,199.2z"/>
<path fill-rule="evenodd" clip-rule="evenodd" d="M257.5,264.5c2.8-3,5.6-6,8.3-9c3.5,3.9,7.9,7.4,9.8,11.9c0.6,1.4-5.3,7.5-8.9,8.2
	c-6.6,1.4-8.4-3.5-7.3-9.6C258.7,265.5,258.1,265,257.5,264.5z"/>
<path fill-rule="evenodd" clip-rule="evenodd" d="M214.1,289c-5.2,4.1-8.8,8.9-11.6,8.5c-3.2-0.5-7.6-5.6-7.8-8.8
	c-0.1-3,5-8.7,7.5-8.6C205.7,280.4,209,284.9,214.1,289z"/>
<path fill-rule="evenodd" clip-rule="evenodd" d="M547,939.5c5.2-4.7,8.3-9.8,11.9-10.1c6.3-0.5,8.4,5.7,8.6,11.1
	c0.2,6.1-4.6,10.3-9.7,9.9C554.5,950.1,551.7,944.5,547,939.5z"/>
<path fill-rule="evenodd" clip-rule="evenodd" d="M505.9,951.7c-1.4,7.2-2.8,11.3-9.3,11.4c-5.8,0-8.9-3.4-7.5-8.5
	c1.1-4.3,4.6-8,7-12C499.4,945.7,502.7,948.7,505.9,951.7z"/>
<path fill-rule="evenodd" clip-rule="evenodd" d="M491.7,469c-5.5,4.6-8.9,9.2-13.3,10.5c-4.6,1.3-9-2.9-8-8
	c0.9-5,1.9-12.4,9.2-11.7C483.2,460.2,486.5,464.9,491.7,469z"/>
<path fill-rule="evenodd" clip-rule="evenodd" d="M427.5,452.6c1.9,4,4.5,7.8,5.5,12c0.7,2.8,0.4,7.3-1.4,9.1c-1.9,1.9-7,3.1-9,1.8
	c-3.2-2-7.1-6.4-7-9.5C416.1,459.5,418.6,452.7,427.5,452.6z"/>
</svg>
