<?xml version="1.0" encoding="utf-8"?>
<!DOCTYPE svg PUBLIC "-//W3C//DTD SVG 1.1//EN" "http://www.w3.org/Graphics/SVG/1.1/DTD/svg11.dtd">
<svg artist="zl2017" version="1.1" id="zlIcon-projector" xmlns="http://www.w3.org/2000/svg" xmlns:xlink="http://www.w3.org/1999/xlink" x="0px" y="0px"
	 width="1000px" height="1028.1px" viewBox="0 0 1000 1028.1" enable-background="new 0 0 1000 1028.1" xml:space="preserve">
<path fill-rule="evenodd" clip-rule="evenodd" d="M491.4,310.7c49-8.1,96.2-14.2,144-14.3c14.9,0,29.8-1.6,44.6-2.6
	c28.1-1.9,56.1-1.1,84,2.2c5.9,0.7,11.9,0.6,17.8,1.4c5.3,0.7,8.5,3.9,9.5,9.3c0.2,1.2,0.5,2.3,0.6,3.5c1.3,13.6,3.4,27.2,3.6,40.9
	c0.3,23.3,4.3,46.3,5.5,69.5c0.9,18.5,1.5,37,1.9,55.4c0.3,13.7-0.2,27.5,0.1,41.2c0.6,25,0.1,50.2,2.5,75c4.2,43.3,7,86.6,12,129.8
	c1,8.8,2.8,17.6,3.2,26.5c0.3,6.5-1,13-1.7,19.5c-0.9,8.3-2.1,16.5-3.1,24.8c-0.7,5.9-1.6,11.4-3.7,17.2
	c-3.8,10.4-11.2,14.7-20.8,17.3c-5.7,1.5-11.5,3.1-16.8,5.5c-5.4,2.5-6.5,6.1-4.8,11.8c0.5,1.7,1.6,3.2,2.1,5
	c3,10.5,2.3,12.2-7.3,19c-1.4,1-2.7,2.2-5,4.1c1.2,3.6,2,7.6,3.7,11.2c9.1,18.7,6.1,37.1-1.1,55.4c-4.4,11.1-9.2,22-13.9,32.9
	c-0.9,2.2-2.1,4.3-2.9,6.5c-4.4,12.1-1.7,22.3,8.3,30.4c3.2,2.6,7,4.6,10.8,7c12.8-2.6,23.2-8.3,30-20.1c2.6-4.6,6.2-8.8,10.1-12.4
	c7.8-7.3,15.7-14.6,24.3-20.9c11.8-8.5,25.2-13.2,40-13c3.6,0,7.2,0.5,10.7,0.2c31.3-2.7,58,10.4,84.3,24.6c2.1,1.1,4.1,2.6,5.5,4.5
	c7.2,9.6,15.7,17.7,25.4,24.7c3.8,2.7,4.3,6.9,4.6,11.1c0.4,4.7-1.3,8.1-6,10.8c-17.4-5.7-33.8-15-46.7-27.9
	c-18.9-18.9-42.5-23-66.8-25.6c-8.1-0.9-16.4,1.8-24.1,5.6c-11.4,5.6-20.9,13.6-30.4,21.7c-5.9,5-11.8,10-17.7,15.1
	c-7.5,6.3-16.3,9.6-25.9,10.7c-10.6,1.2-21.1,3.9-31.9,2.3c-8-1.2-14.7-4.6-20.5-10.1c-3.6-3.4-6.2-7.4-6.4-12.4
	c-0.5-13.7-2-27.3,3.6-40.6c4.9-11.5,8.6-23.5,13.2-35.1c5.7-14.4,7.8-28.8,0.4-43.3c-1.3-2.5-3.8-4.3-6.2-6.9
	c-5.9,2.4-11.3,5-16.9,6.8c-10.6,3.6-15.1,1.9-21.1-7.4c-2.8-4.4-5.6-8.8-8.7-13.7c-3.7,1.2-6.6,1.8-9.3,3
	c-27.8,12.2-55.6,24.5-83.4,36.9c-9.2,4.1-18.3,8.8-27.4,13.2c-9.6,4.6-19.1,9.4-28.7,13.9c-6.7,3.1-14,3.2-21.1,2.2
	c-2.7-0.4-6-1.8-7.7-3.8c-8-9.4-18.6-14.9-29-20.7c-26.6-14.7-52-31.3-76.2-49.8c-4.7-3.6-10-6.4-15.1-9.5
	c-16.8-10.1-33.9-19.9-47.3-34.8c-3.1-3.4-7.5-5.7-11.5-8.3c-11.5-7.4-23.1-14.7-34.7-22c-7.5-4.8-15.1-9.6-22.5-14.5
	c-17.4-11.5-34.9-22.9-49.4-38.1c-8.4-8.8-19.9-12.8-29.6-19.6c-9.3-6.5-19.2-12.2-27.8-19.5c-7.7-6.5-14.1-14.4-20.9-21.9
	c-3-3.3-3.3-7.5-2.7-11.8c1.4-10,2.4-20.1,3.8-30.2c3.9-27.8,8.9-55.4,17-82.3c2.1-6.8,5.3-13.2,8.8-21.7
	c-3.7-12.5-7.8-26.8-12.1-40.9c-6.2-20.2-4.8-39.1,4-58.9c11.6-26,31.3-44.7,50-64.6c2-2.1,4.9-3.4,7.4-4.9
	c24.5-14.8,49-29.5,73.5-44.3c1-0.6,2-1.3,3.1-1.8c28-11.6,54.9-25.9,83.5-36.4c1.7-0.6,3.5-0.8,5.2-1.4c21.3-7.3,40.8-3.9,59.2,8.9
	C461.2,291.6,476.4,301,491.4,310.7z"/>
<path fill-rule="evenodd" clip-rule="evenodd" fill="#FFFFFF" d="M777,307.6c-2.8-1.1-4.4-1.9-6.1-2.4c-12.8-3.7-25.9-3.8-39-4.2
	c-15.5-0.4-30.9-1.7-46.4-1.2c-23.2,0.7-46.4,2.6-69.6,3.8c-20.8,1.1-41.5,2-62.3,4.7c-36.2,4.8-71.7,12.5-106.2,23.7
	c-31.1,10.2-61.5,22.8-91.8,35.3c-24.9,10.3-48.5,23.5-69.7,40c-20.7,16-39.2,34.8-58.6,52.4c-1.7,1.5-2.9,3.6-4.4,5.4
	c4.8,7.3,9.2,14.3,14,20.9c3.5,4.8,7.5,9.2,11.6,13.6c10.5,11.3,21.4,22.4,31.8,33.8c13.3,14.5,25.7,29.9,39.7,43.6
	c12.5,12.2,23.2,25.6,34.2,38.9c8.7,10.5,16.3,22.1,25.4,32.3c10.3,11.6,18.7,24.6,28.1,36.7c9.1,11.7,19.6,22.3,29.7,33.1
	c23.9,25.7,46.1,53,69.2,79.5c9.4,10.7,19.7,20.5,32.9,27.9c15.7-5.7,31.5-11.1,47-17.2c27.7-10.8,55.3-22.2,83-33
	c20-7.8,40.1-15,60.3-22.3c11.2-4,22.3-8.5,33.9-11.2c11-2.6,19.8-7.6,26.4-15.8c0.8-19.8,0.3-39,2.6-57.9
	c1.7-13.7-0.9-27.1,0.3-40.6c0.8-9.4,0-19,0.2-28.4c0.1-7.7,1-15.5,0.8-23.2c-0.2-10.1-1.4-20.2-1.8-30.3
	c-0.3-7.8,0.2-15.5-0.2-23.3c-2.2-37.4-4.7-74.9-7-112.3c-1.8-28.5-3.2-57.1-5.1-85.6C779.6,318.6,778,312.9,777,307.6z"/>
<path fill-rule="evenodd" clip-rule="evenodd" fill="#FFFFFF" d="M373.6,291.3c6.5,6.9,11.5,11.9,16.2,17.2c1.7,1.9,4.6,4.3,0.4,8.1
	c-5.5-4.2-11.3-8.4-16.7-12.9c-5.2-4.3-10.5-8.3-17.6-7c-9.3,1.7-18.2,4.4-23.6,13.3c6,6.1,11.6,11.4,16.8,17.1
	c2.1,2.3,2.7,5.2-1.6,7.5c-9.7-6-17.2-15.9-29.2-19.8c-3.3,1.5-6.6,2.8-9.6,4.5c-2.9,1.6-5.6,3.6-8.3,5.4
	c4.5,11.9,15.2,17.5,21.4,26.3c-1.2,1.3-1.6,2.1-2,2.1c-15.2,0.2-19.1-16.7-31.5-21.1c-8.6,2.9-16,7.1-21.6,15
	c7,9,13.5,17.5,20,25.9c0.3,0.4,0.4,1.1,0.2,1.5c-0.2,0.5-0.9,0.8-1.7,1.5c-12.7-4.4-18.7-17.7-29.6-24c-6.7,2.6-12.7,5.2-15.9,11.9
	c5.6,9.1,11.2,18.1,16.6,27.3c0.4,0.6-0.5,2-1.1,4.1c-2.1-1.1-4.5-1.7-5.7-3.2c-4-5.2-7.3-10.9-11.2-16.1c-2-2.6-4.9-4.6-7.1-6.6
	c-12.5,6.4-15,15.5-11,27.3c2.2,6.6,3.7,13.4,6.2,22.6c-11.8-7.3-9.5-20.9-17.9-27.2c-7.5,4.7-10.1,10.6-7.9,18.6
	c2,7.4,3.8,15,5.5,22.5c0.6,2.6,0.5,5.2,1,9.8c-10.6-7.5-10.1-19.1-16.1-27c-14.8,14.8-20.8,30.8-17.2,48.4
	c2.4,11.8,6.1,23.3,10,37.9c3.6-9.6,5-17,8.9-22.6c5.7-8.2,12.8-15.5,20.1-22.4c13.4-12.6,27-25.1,41.2-36.9
	c25.2-20.9,50.3-41.8,80.6-55.5c31.4-14.3,62.3-29.9,95.8-39c12.1-3.3,23.7-8,34.6-16c-2.7-2.4-4.9-5.2-7.8-7
	c-7.1-4.4-14.5-8.3-21.7-12.5c-6.2-3.6-12.2-7.5-18.6-10.5c-2-1-5.1,0.2-10.1,0.6c5.3,5.6,8.8,9.5,12.5,13.2
	c3.4,3.4,8.4,5.4,12.3,12.7c-6-1.9-9.6-2.2-12.3-4c-7.4-5-14.5-10.3-21.5-15.9c-4.3-3.4-8.4-4.2-13.2-1.6
	C381.4,286.4,378.5,288.3,373.6,291.3z"/>
<path fill-rule="evenodd" clip-rule="evenodd" fill="#FFFFFF" d="M793.8,749.1c-6.4-1.5-11.4-1-16.5,1.8c-5.7,3.2-11.6,6.2-17.8,8.2
	c-15.3,5-30.8,9.1-46.2,13.9c-18.2,5.7-36.6,10.7-54.2,17.8c-30.3,12.3-60,26.2-90.2,38.9c-6.9,2.9-11.1,7.2-12.1,14.1
	c-1.4,9.9-3.1,19.8-1,30.1c1.6,8,1.2,16.5,1.4,24.8c0.1,2.7-0.7,5.5-1.1,8.4c6.9,1.2,11.7-1,16.3-3.6c26.1-14.6,54.1-25,81.7-36.2
	c8.7-3.6,17.5-7,25.3-14.4c-3.7-5.8-7.2-11.1-11.1-17.1c2-3.3,3.5-7.3,6.3-10.2c21.2-22.6,48.7-31,78.3-34.3
	c6.2-0.7,10.4,2.7,11.6,8.7c1.2,5.6,1.6,11.3,2.5,18.1c10.5-4.1,20.3-6.6,28-13.6C797.4,786.1,803.4,768,793.8,749.1z"/>
<path fill-rule="evenodd" clip-rule="evenodd" fill="#FFFFFF" d="M172.7,676.2c-2.8-8,0.4-14.2,1.8-20.4c2.3-9.9,5.1-19.6,7.2-29.5
	c6.5-30.9,12.7-61.8,19.1-92.7c2.9-14.1,6.4-27.9,14.7-40c1-1.5,1.9-3.1,2.6-4.7c1.2-2.7-0.4-7.3-2.7-7.3c-2.1,0-5.3,0.8-6.1,2.2
	c-3.7,6.7-6.1,14.3-10.2,20.7c-11.9,19.1-17.5,40.5-22.3,61.9c-6.4,28.4-8.8,57.7-18,85.6c-2,6.2-2.1,13.4,2,19
	c7.7,10.6,17.9,18.3,30.9,23.7c1.8-5.6,3.6-10,4.5-14.6c3.3-17,5.6-34.1,9.4-50.9c9.5-41.8,19.5-83.4,29.7-126.4
	c-1-1.2-2.8-3.6-4.8-5.6c-1.9-1.9-4.2-3.5-6.8-5.6c-2.1,3.7-4.1,6.1-4.8,8.9c-6.1,23-12.6,45.9-17.9,69.1
	c-7,30.7-12.8,61.7-19.3,92.6C180.4,667,179.7,672.7,172.7,676.2z"/>
<path fill-rule="evenodd" clip-rule="evenodd" fill="#FFFFFF" d="M243.7,513.4c-1.8,3.5-3,4.9-3.4,6.5c-13.9,49.8-25.9,99.9-34,151
	c-1,6.4-1.9,13-3.7,19.2c-1.1,3.7-3.8,6.9-6.4,11.3c7,4.2,13.4,8,19.3,11.6c6.1-3.3,6-8.5,6.7-13.1c4.1-24.6,8-49.2,14.9-73.1
	c8.6-29.7,14.1-60,19.9-90.3c1-5.2-0.2-9.3-3.8-13C250.3,520.5,247.5,517.5,243.7,513.4z"/>
<path fill-rule="evenodd" clip-rule="evenodd" fill="#FFFFFF" d="M289.5,764.3c2.2-4.7,4.8-8.7,6-13.1c2-7.4,3-15.1,4.5-22.7
	c5.8-27.9,10.3-56.1,18.8-83.4c3.7-11.9,6.6-24,9.8-36c-5.4-6.8-10.1-13.5-19.2-19c-11.3,26.9-16.2,54.3-21.9,81.3
	c-6,27.8-10,55.9-15,84c3.8,2.5,6.6,4.7,9.6,6.4C284.1,762.8,286.4,763.2,289.5,764.3z"/>
<path fill-rule="evenodd" clip-rule="evenodd" fill="#FFFFFF" d="M266.3,541.2c-3.7,5.1-4.2,11-5.5,16.7
	c-4.8,22.1-8.7,44.5-14.9,66.2c-6.5,22.4-10.5,45.2-15,67.9c-1.2,5.8-1.8,11.8-2.5,17.7c-1.1,10.2,3.6,16.5,13.9,20.1
	c1.4-5.8,3.1-10.9,3.9-16.1c5.9-35.8,14-71.2,23-106.4c3.7-14.4,6.2-29.1,9.5-43.6C281.2,552.5,277.4,545.2,266.3,541.2z"/>
<path fill-rule="evenodd" clip-rule="evenodd" fill="#FFFFFF" d="M381,674.6c-1.6,3.5-2.6,5.1-3,6.8c-7.8,29.2-15.6,58.4-23.1,87.7
	c-2.2,8.6-3,17.4-4.9,26.1c-1.7,8,0.5,14.1,7.5,18.2c2.8,1.7,6,2.8,10.1,4.7c2.7-6.5,5.7-11.7,7-17.3c6.7-27.7,13.3-55.4,19-83.3
	c1.6-7.7,4.1-14.2,9.8-19.4C397.2,688.8,390.7,681.3,381,674.6z"/>
<path fill-rule="evenodd" clip-rule="evenodd" fill="#FFFFFF" d="M357.4,645.8c-11.8,26.1-33.1,115.8-33.8,141.8
	c4.6,2.8,9.5,5.7,15,9c1.7-3.1,3.3-5,3.8-7.2c2.2-9.3,3.9-18.6,6.2-27.9c6.9-27.7,13.7-55.5,21.3-83
	C373.7,664.7,371.6,654,357.4,645.8z"/>
<path fill-rule="evenodd" clip-rule="evenodd" fill="#FFFFFF" d="M265.7,750.3c3.2-19.5,5.3-36,8.6-52.2
	c5.6-27.4,12.4-54.5,17.8-81.9c2.4-12.3,6.1-23.8,13.9-34c-5.1-6.4-10.1-12.8-18-22.8c-5,33.6-14.5,62-21,91.3
	c-6.6,29.6-12,59.2-16.5,89.5C255.2,743.3,259.4,746.1,265.7,750.3z"/>
<path fill-rule="evenodd" clip-rule="evenodd" fill="#FFFFFF" d="M376.6,827.6c7.1,4.8,14,10,24.3,11.5c3.5-17.7,7.2-34.5,10-51.3
	c3.6-21,7.4-42,14.9-62.3c-3.8-7.6-9.9-12.9-17.4-18.4c-2.6,4.9-5.5,8.9-6.7,13.3c-3.3,11.4-5.9,23-8.6,34.6
	C387.6,778.5,382.3,802.2,376.6,827.6z"/>
<path fill-rule="evenodd" clip-rule="evenodd" fill="#FFFFFF" d="M336.7,619.4c-2.6,4.8-5.3,8.1-6.3,11.8
	c-5.6,21.3-11.2,42.6-16,64.1c-5.4,24.4-9.9,48.9-14.7,73.4c-0.2,1.1,0.3,2.3,0.7,4.6c3.3,1.9,7.2,4.1,12.1,6.9
	c1.9-5.6,4-9.8,4.9-14.4c7.6-38.6,17.9-76.4,28.1-114.3c1.1-4,2.1-8.1,2.5-12.2c0.2-2.8,0.1-6.1-1.3-8.3
	C344.3,627.2,340.7,624,336.7,619.4z"/>
<path fill-rule="evenodd" clip-rule="evenodd" fill="#FFFFFF" d="M409.4,847.6c5.8,4.4,10.7,8.3,19,7.1c3.2-17.8,6.4-35.3,9.5-52.8
	c3.1-17.4,10.6-33.9,11.4-51.7c-5.6-4.9-7.8-12.7-15.3-14.7c-6.1,3.1-6.4,9.1-7.5,14c-4.1,18.5-7.6,37.2-10.9,56
	C413.2,819.4,411.5,833.5,409.4,847.6z"/>
<path fill-rule="evenodd" clip-rule="evenodd" fill="#FFFFFF" d="M457.1,763.3c-8,17.9-19.6,80.5-19,101.8c4.1,2.9,8,6.9,14.4,5.4
	c0.5-1.6,1.1-3.2,1.4-4.9c4.7-22.1,8-44.6,14.4-66.2C472.7,784.5,472.1,773.1,457.1,763.3z"/>
<path fill-rule="evenodd" clip-rule="evenodd" fill="#FFFFFF" d="M521.5,919.2c1.6-7.2,3.6-12.9,4.1-18.7
	c1.1-14.4,3.9-28.4,8.8-41.8c2.8-7.8,1.3-13.8-3.4-19.9c-3.6-4.6-6.4-10.2-14.5-9.4c-1.2,7.6-2.7,15-3.6,22.5
	c-1.9,15.9-3.3,31.9-5.1,47.9C506.7,909.3,510.4,915.6,521.5,919.2z"/>
<path fill-rule="evenodd" clip-rule="evenodd" fill="#FFFFFF" d="M496,903.3c5.3-13.9,5.8-27.5,8.1-40.7c2.4-14,4.7-28,7-42.4
	c-4.1-4.9-8.6-9.3-16.5-11.1c-6.5,28.5-10.1,56.6-11.1,85.7C487.6,897.5,491.4,900.1,496,903.3z"/>
<path fill-rule="evenodd" clip-rule="evenodd" fill="#FFFFFF" d="M473.3,885.3c5.9-29.1,11.6-57.3,17.5-86.6
	c-2.8-2.5-6.2-5.7-9.6-8.8c-6.2,4.3-6.5,10.8-7.7,16.3c-3.3,15-5.9,30.2-8.3,45.4c-1.3,8.1-2.1,16.4-2.3,24.7
	C462.8,881.5,466.1,885,473.3,885.3z"/>
<path fill-rule="evenodd" clip-rule="evenodd" fill="#FFFFFF" d="M533.7,912.1c1,0,2,0.1,3,0.1c1-4.4,2.5-8.7,3-13.2
	c0.3-2.7-0.8-5.6-5.1-4.4C534.2,900.5,533.9,906.3,533.7,912.1z"/>
<path fill-rule="evenodd" clip-rule="evenodd" d="M664.7,333.5c24.4,0.4,44.3,3,61.6,15.2c4.3,3.1,9,6.3,11.9,10.6
	c22.5,31.8,29.7,65.7,12.9,102.5c-8.2,18-19.3,34.2-31.6,49.5c-16.9,20.9-41.1,30.4-71.9,19.9c-24.6-8.4-46.5-22.3-63.8-41.2
	c-12.2-13.3-22.1-29.7-20.8-49.6c0.4-5.3,1.1-10.8,3.2-15.6c5.8-13.6,10.9-27.8,18.9-40.2c12.2-19,26.2-36.9,48.6-45.4
	C644.9,334.9,656.5,332.9,664.7,333.5z"/>
<path fill-rule="evenodd" clip-rule="evenodd" fill="#FFFFFF" d="M749.2,423c0.6-19.3-7.2-35.3-15.1-51.2
	c-6.6-13.2-18.2-19.8-31.5-24.4c-19.1-6.6-38.2-6-57.4-0.9c-11.3,3-20.8,8.7-28.4,17.5c-4.3,5-8.8,9.7-12.8,14.9
	c-13.3,17.3-19.4,36.3-15,58.5c2.1,10.8,6.7,20.1,12.1,29.4c10,17.2,25.7,26.2,44,30.7c12.6,3.2,25.6,2.6,38.8,0.8
	C714.9,494.2,750.3,461.9,749.2,423z"/>
<path fill-rule="evenodd" clip-rule="evenodd" d="M312.1,199.4c-2.3,3.3-4.3,6.3-6.1,8.9c-2-1.2-3.6-1.6-3.9-2.4
	c-1.9-5.6-4-11.2-5-17c-3.3-18.1-6.2-36.3-9.1-54.5c-1.9-12.3-3.1-24.7-5.4-37c-5.4-29.2-11.3-58.3-16.9-87.4
	c-0.6-3.3-2.6-7.1,1.4-9.6c2.7-1.7,7.6,1.4,8.8,6.6c2.5,11,4.4,22.1,6.5,33.1c4,21.6,7.8,43.3,12.1,64.9c1.4,7,4.1,13.7,6.4,20.4
	c6.3,18.5,12.4,37.1,19.1,55.5c4.5,12.3,9.9,24.2,14.5,36.4c0.6,1.6-0.6,5-2,5.8c-1.6,0.9-4.9,0.5-6.3-0.7c-2.1-1.8-3.4-4.7-4.5-7.4
	C319.7,210.2,319.5,204.6,312.1,199.4z"/>
<path fill-rule="evenodd" clip-rule="evenodd" d="M231.2,239.7c-2.7,1.3-5.5,2.2-7.7,3.9c-2.2,1.6-3.8,4-6.2,6.7
	c-6.4-4.4-9-11.4-12.1-17.4c-14.4-28.2-32.7-53.9-49.5-80.6c-9.8-15.6-19.2-31.5-29-47.2c-6.6-10.6-13.5-21.1-20.2-31.6
	c-1.6-2.5-3.2-5-4.8-7.5c-1.7-2.7-2.9-5.7,0.2-7.8c3-2,5.7,0.2,7.8,2.4c2.9,3,5.8,6.1,8,9.6c16.5,26.9,32.4,54.1,49.5,80.7
	c11.6,18,24.5,35.2,37.2,52.4c7.8,10.5,16.3,20.5,24.4,30.8C229.9,235.2,230.2,237.1,231.2,239.7z"/>
<path fill-rule="evenodd" clip-rule="evenodd" d="M0.5,238.4c3.5-4.1,7.7-1.9,11.1-0.2c11.7,5.9,23.9,11.2,34.5,18.7
	c13.7,9.7,28.8,16.8,43.2,25c15.6,8.7,31.9,16.1,48.2,23.4c8.6,3.9,17.9,6.2,26.8,9.5c3.1,1.1,6.1,2.8,9.8,4.6
	c-5,5.2-9.1,9.5-13.8,14.5c-2.3-1.1-5.1-2.1-7.5-3.7c-49.3-32.3-101.5-59.9-152.1-89.9C0.4,240.1,0.6,239.2,0.5,238.4z"/>
<path fill-rule="evenodd" clip-rule="evenodd" d="M556.5,604.9c12.3-20.9,20.8-21.5,31.7-2.2c6.9,12.4,12.7,25.6,18.1,38.8
	c7.2,17.6,13.9,35.5,20.3,53.4c4.6,12.8,8.4,26,12.5,39c0.9,2.8,1.8,5.7,2.1,8.7c0.4,3,0.1,6.7-3.6,7c-2.5,0.2-5.6-1.3-7.6-3
	c-2.2-1.9-3.5-4.8-4.9-7.4c-4.2-7.9-9-15.5-12.3-23.8c-13-32.1-31.4-61.5-47.3-92.2C562.4,617.4,559.7,611.5,556.5,604.9z"/>
<path fill-rule="evenodd" clip-rule="evenodd" d="M682.4,730.1c-1.1,1.2-2.1,3.4-3.4,3.6c-2,0.4-4.4-0.3-6.4-1.1
	c-0.9-0.3-1.5-1.8-2-2.9c-14.5-35.3-30.6-69.8-46.9-104.3c-5.3-11.3-9.9-23-14.9-34.5c-2-4.5-3.3-9,0.3-13.4
	c3.9-4.8,8.8-5.2,14.6-4.2c7.9,1.4,13,5.2,14.8,13.3c2.3,10.5,6.9,20.2,10.9,30.2c6,14.9,11,30.2,14.3,46
	c2.4,11.6,6.8,22.8,10.2,34.2c2.7,9.1,5.1,18.4,7.6,27.6C681.9,726.3,682,728.1,682.4,730.1z"/>
<path fill-rule="evenodd" clip-rule="evenodd" d="M598,758.3c-0.9,1.3-1.5,3.6-2.8,4.1c-2,0.7-5.1,1-6.7-0.1c-2.3-1.5-4-4.2-5.5-6.7
	c-17.8-30.9-35.4-61.9-53.1-92.9c-6.5-11.4-12.7-22.9-19.1-34.3c-1.8-3.2-3.2-6.4-1.1-10c2.4-4.3,6.2-5.2,10.6-4.9
	c6.4,0.4,11.3,3.3,14.2,9.2c3.4,6.9,6.6,13.9,10.1,20.9c12,23.9,24.3,47.6,36,71.7c6,12.3,10.8,25.1,16,37.7
	C597.5,754.4,597.6,756.3,598,758.3z"/>
<path fill-rule="evenodd" clip-rule="evenodd" d="M406.8,443.6c0.4-5.5,0.5-11.4,1.5-17.1c1.3-7.1,4-14.1,9.6-18.8
	c13.1-10.7,27.4-18.9,45.5-16.6c12.1,1.6,18.3,8.7,20.9,20.5c2.9,13.4-3.5,23.2-10.6,32.5c-13.1,16.9-17.9,18.3-38.2,11.2
	C426,452.1,415.4,451.7,406.8,443.6z"/>
<path fill-rule="evenodd" clip-rule="evenodd" d="M355.3,426.9c9-0.5,17.7,1.1,25.4,6.3c5.1,3.5,9.1,7.8,8.7,14.6
	c-0.4,6.9,3,13.7-1.6,20.8c-6.5,10.2-13.9,19.3-24.8,24.8c-2.5,1.2-6,1.7-8.6,1c-12.1-3.1-24.2-6.2-35.9-10.3
	c-6.9-2.3-9.3-7.1-7.5-14.2c3.8-14.6,9.6-28.3,22-37.9C339.5,427.1,347.3,426.6,355.3,426.9z"/>
<path fill-rule="evenodd" clip-rule="evenodd" d="M189.2,461c-11.4-15.1-11.4-15.1-5-22.8C190.1,444.9,188.7,453.2,189.2,461z"/>
<path fill-rule="evenodd" clip-rule="evenodd" d="M704.6,395.3c11.8-0.5,18.6,3.2,20.5,12c5,24.1-0.4,49.7-30.6,57.1
	c-13.9,3.4-26.7,2.6-39.1-5.7c-15.7-10.6-17.8-31.4-10-47.9c1.8-3.9,6.4-7.1,10.4-9.2c2.6-1.3,6.5,0,13.4,0.2
	c-9.9,6.2-15.7,11.5-17.8,20.3c-4.3,18.5,6.6,36.6,27.8,36c24.8-0.7,41.9-21,37.4-45.5C715.2,405.3,709,402.2,704.6,395.3z"/>
<path fill-rule="evenodd" clip-rule="evenodd" d="M688.8,417.7c-5.7,3-9.8,1.7-10.5-3.3c-2.5-16.9-8.1-33.5-5-50.8
	c3.4-2,6.1-0.8,6.8,2.5c1.4,6.9,1.9,14.1,3.1,21.1C684.9,397.1,686.8,407,688.8,417.7z"/>
<path fill-rule="evenodd" clip-rule="evenodd" fill="#FFFFFF" d="M458.7,400.6c-10.9-0.7-18.7,3.2-25.2,9.6
	c-6.6,6.5-3.5,16.9,5.4,19.4c2.2,0.6,4.6,0.7,7,0.8c8,0.1,14.9-3.1,21.2-7.6c4.6-3.3,6.9-7.9,5.7-13.8c-1-4.9-5-7.8-12-8.4
	C459.7,400.5,458.5,400.6,458.7,400.6z"/>
<path fill-rule="evenodd" clip-rule="evenodd" fill="#FFFFFF" d="M356.6,436.4c-0.1,0.4-0.2,0.8-0.3,1.1c-2.9-0.2-6-1.1-8.8-0.5
	c-3.3,0.7-6.8,2.1-9.3,4.3c-4.6,4.1-7.5,9.3-5.4,15.8c2.5,7.6,8.3,11.4,15.8,12.4c9.5,1.3,23.6-6.5,28.3-15.2
	c2.9-5.4,1.9-10.9-3.8-13.5C368.1,438.6,362.2,437.9,356.6,436.4z"/>
</svg>
