<?xml version="1.0" encoding="utf-8"?>
<!DOCTYPE svg PUBLIC "-//W3C//DTD SVG 1.1//EN" "http://www.w3.org/Graphics/SVG/1.1/DTD/svg11.dtd">
<svg artist="zl2017" version="1.1" id="zlIcon-robot-boy" xmlns="http://www.w3.org/2000/svg" xmlns:xlink="http://www.w3.org/1999/xlink" x="0px" y="0px"
	 width="1000px" height="1643.4px" viewBox="0 0 1000 1643.4" enable-background="new 0 0 1000 1643.4" xml:space="preserve">
<path fill-rule="evenodd" clip-rule="evenodd" d="M848.8,776.1c-12.6,4.2-23.4,8.2-34.5,11.4c-6.1,1.8-12.6,3.4-18.8,3.1
	c-9.2-0.4-11,5-11,11.7c0,24.7,0.7,49.4,0.8,74.2c0.1,34-0.6,68-0.3,102c0.2,39.9,0.8,79.8,1.7,119.7c0.7,30,1.5,59.9,3.7,89.8
	c0.7,10.1,5.7,19.9,8.9,30.3c-11.5,2.5-25.1,5.5-39.3,8.6c-1.7,28-3.5,56.3-5.1,84.5c-0.1,1.3,1,3,2,3.9c15.1,14,20.3,31,14.1,50.6
	c-1.8,5.7-5.8,12-10.6,15.3c-8.6,5.8-10.5,14.1-10.9,22.7c-1.8,42.9-3.1,85.9-4.2,128.9c-0.1,2.7,2.9,6.5,5.5,8.1
	c17.8,10.8,33.2,23.4,36.4,45.7c0.8,6,2.1,12.1,1.5,18c-0.4,3.4-3.6,7.8-6.8,9.5c-21.5,11.7-44.5,17.5-69,18.7
	c-26.9,1.3-50.8-8.2-74.6-18.4c-13.4-5.7-14.4-9.7-13.7-23c0.8-14.3,3.7-26.3,15.6-36.2c10.8-9,21.9-15.2,35.7-16.7
	c2.5-0.3,4.9-1.4,8-2.3c1.4-22.2,2.6-44.5,4.1-66.8c1.4-21.7,3.3-43.4,4.4-65.1c0.2-4-1.5-9.7-4.3-11.9
	c-19.6-14.7-17.1-48.8-2.1-68.5c3.4-4.5,6-10.6,6.5-16.2c2-21.7,3.1-43.5,4.3-65.3c0.6-10-3.3-13.2-13.8-12.5
	c-23.7,1.5-47.3,2.5-71,4.4c-16.5,1.4-32.9,4.1-50.7,6.4c0,1.2-1,4.7,0.3,6.2c4.1,5,4.1,9-0.4,13.5c-1,1-1.6,4-0.8,5
	c4.3,5.7,4,9.9-1.8,14.8c-1.9,1.6-1.8,7.6-0.4,10.7c5.6,12.5-1.3,18.9-10.7,24.6c-17.3,10.4-34.9,14.5-53.6,3.6
	c-10.5-6.1-11.5-10-4.1-19.6c5.2-6.7-1.1-11.1-4.4-13.3c-7-4.6-5.5-6.8,0.7-9.1c8-3,6.5-7.2,1.8-11.9c-3.5-3.6-3.7-5.7-0.8-10.9
	c3.2-5.7,1.5-14.1,2-22.6c-20.4-1.3-38.7-2-57-3.6c-17.8-1.6-35.4-4.2-55.8-6.7c-2,20.5-4.6,40.7-5.7,60.9
	c-0.7,14.1,0.2,28.4,1.5,42.5c0.5,5,4.4,9.7,6.2,14.7c8.3,22.9,5.5,43.2-10.8,62.6c-5.5,6.5-6.2,17.9-7.3,27.3
	c-2.9,25.3-4.8,50.7-7,76.1c-1,11.7-2.3,23.3-2.5,35c-0.1,2.7,3.1,6.8,5.9,8.1c28.1,13.2,35.7,37.1,35.9,65.6
	c0.1,8.5-3.8,13.6-10.7,16.4c-26.2,10.7-53.3,14.8-81.8,12.4c-21.4-1.8-41.3-6.6-61.3-14.4c-27.4-10.6-29.2-32.2-12.3-52
	c15.8-18.6,36.8-30.1,59.5-35.1c2-32.8,4-65.3,6-97.7c0.9-14,1.9-28,2.2-42.1c0.1-2.7-1.9-6-3.8-8.3c-17.8-20.2-18.6-58.1-1.5-78.5
	c6-7.2,9.7-14.5,9.5-24.8c-0.4-19.4,1.8-38.9,2.4-58.4c0.3-7.9-0.7-15.8-1.2-24c-9.8-2-20-3.4-29.6-6.4c-3.7-1.2-8.2-5.9-8.7-9.5
	c-1.5-12.1-1.9-24.4-1.9-36.7c0.1-27.8,0.7-55.5,1.3-83.3c0.6-23.7,1.2-47.4,2.4-71.1c1.6-34.1,3.7-68.3,5.5-102.4
	c1.4-28,2.7-56,4-84c0.4-8.4,1-16.8,1.5-24.8c-13.8-2.1-26.9-4.3-40.1-6c-1.7-0.2-4.2,1.3-5.4,2.8c-13.3,16-20.4,35.2-27.9,54.2
	c-6.2,15.6-13.9,30.6-20,46.3c-5.9,15-9.9,30.8-15.9,45.7c-4,10-0.6,18.5,0.6,28.2c2.6,22.6-0.9,45-20.7,61c-2.7,2.2-5.1,6-5.5,9.3
	c-2.9,21.9-5.8,43.8-7.6,65.8c-0.8,10.2,3.9,17.7,14.6,22.4c9.1,4,16.7,11.5,25.1,17.3c10,6.9,20.3,13.4,30.2,20.4
	c9.4,6.7,10.1,12.2,3.7,21.2c-9,12.6-18,25.3-27,38c-6.5,9.1-12.6,18.6-19.7,27.1c-2.2,2.6-8.2,4.7-11,3.5c-4.1-1.7-5-5.3-1-10.7
	c4.3-5.7,5.2-14,7.7-21.2c4.9-13.8,9.8-27.6,15-42.1c-6.5-3.8-13.1-7.6-19.7-11.4c-8.1-4.6-14.8-7.3-23.7,1.4
	c-11.9,11.7-25.8,3.4-38.9-0.8c-3.4-1.1-7.8-1.6-10.8-0.3c-11.4,5-22.5,10.7-33.4,16.6c-2.1,1.1-4,4.2-4.3,6.5
	c-1.8,14.6-3.1,29.2-4.7,43.8c-0.4,3.5-0.3,7.2-1.6,10.4c-0.7,1.7-4,3.4-5.9,3.2c-1.9-0.2-5.1-2.9-5.1-4.4
	c0.4-22.6-11.8-41.4-18.6-61.8c-4.3-12.9-1.5-18,7.7-23c19.9-10.8,41-19.2,60.4-30.8c7.6-4.5,16.6-14.8,16.6-22.4
	c-0.3-26-4.9-51.9-6.8-78c-1.3-18.5-13.2-34-12.3-53.4c0.7-15.8,10.3-36.3,25.2-40c9.5-2.3,9.8-11.2,12.1-17.4
	c9.5-25,17.7-50.5,26.5-75.9c9.6-27.9,19.7-55.6,28.8-83.7c3.9-11.9,3.3-23.4-0.6-36.6c-6.2-20.8-6.9-43.3,2.1-64.3
	c1.5-3.6,4.6-6.9,7.6-9.5c23.1-20,48.7-35.2,79.3-40.6c15.4-2.7,30.7-5.6,46.2-8.4c2.4-13.5,4.7-26.7,7.2-41.4
	c1.9,2.9,3.2,4.8,4.5,6.8c8.4-13.2,23.6-10.3,36.1-15.2c-7.4-11,0.8-20.7,2.6-31c2.1-12.2,4.8-24.4,7.6-36.5
	c7.7-33.2,15.6-66.3,23.4-99.4c1.7-7.1,1.9-13.7-3.6-20.1c-5.1-6-7.6-14.1-12.7-20.1c-12-14.4-16.2-31.8-12.2-48.5
	c7-29.1,13.9-59.9,41.4-77.9c10.3-6.8,23.7-8.9,35.8-12.7c5.8-1.8,11.9-2.3,17.8-3.9c2.2-0.6,4.3-2.4,5.8-4.2
	c5.7-6.5,11.4-13,16.4-20c1.5-2.2,1.6-6.7,0.5-9.2c-13.9-31.1-28.1-62-42.3-93c-2.9-6.3-6.4-10.9-14.4-11.9
	c-11.7-1.5-18.7-9.7-19-21.6c-0.2-6.9,0.5-14.1,2.4-20.8c3.3-11.9,19.3-15.2,27.9-6.6c11.7,11.6,10.2,25.9,9.2,40.3
	c-0.3,4.1-0.4,9,1.5,12.3c7.5,12.9,15.7,25.4,24.1,37.9c6,8.9,12.4,17.7,19,26.2c6.5,8.3,13.5,16.1,19.5,23.2
	c13.2-5.6,25-13.6,37.8-15.5c23.6-3.6,23.9-22.8,29.6-38.5c0.9-2.4-1.5-7.4-3.9-9.2c-7.7-5.8-13.9-12.2-11.2-22.6
	c2.6-10,7.8-18.1,18.4-21.8c16-5.6,27.8-2.4,38.4,10.9c5.5,6.9,5.1,19.6-3.2,28.1c-6.6,6.8-8.6,13.6-7.7,22.4
	c0.6,6.4,0,12.9,0.8,19.2c1,7.3,2,13.3,12.4,16c13.9,3.6,26.5,12.1,39.4,18.3c20.3-26.1,41.7-53.5,62.9-81c1.5-2,3.4-5.2,2.8-7.2
	c-4.3-15.9-1.5-25.2,11.5-34.6c3.3-2.4,7.1-4.4,10.7-6.5c11.6-6.7,16.9-5,20.9,7.2c7.1,21.2-2.8,30.5-24,37.7
	c-7,2.4-11.6,5.7-15.2,11.6c-15,25.3-30.8,50.1-44.9,75.9c-8.2,14.9-8.8,21,9.3,30c1.6,0.8,4.2,2.4,4.1,3.6
	c-0.3,11.2,8.3,13.6,15.9,17.4c12.7,6.4,18.4,18.9,23.6,30.8c8,18.4,14.9,37.4,20.3,56.7c3.8,13.5,1.4,27.6-4.5,40.5
	c-6.8,15-2.6,30.2-1.8,45.3c1.1,19.8,4,39.5,5.6,59.3c2,25.9,3.5,51.8,5.3,77.7c0,0.6,0.5,1.2,0.5,1.8c0.2,5.3-1.6,13,1.1,15.4
	c3.7,3.2,11,1.9,16.6,3.1c12.2,2.5,24.4,5.1,36.3,8.4c2.1,0.6,5.3,6.1,4.5,7.4c-7.4,13.3-3.2,27.5-4.3,41.3
	c-0.2,2.8-0.9,5.5-1.5,8.5c2-0.8,4.4-2.5,6.7-2.4c26.6,0.7,54.3-1.2,78.1,13c21.7,13,38.7,31.1,44.6,57.4
	c3.9,17.7-3.1,33.1-12.3,45.9c-11.2,15.5-13.7,30.2-9.4,48.1c6.3,25.8,11.1,52,16.8,77.9c1.5,6.8,4.4,13.3,6,20.2
	c1,4.3,0.8,8.9,1.2,14.3c24.7,16,28.2,33.4,12.4,61.9c-4.2,7.7-3.8,14.7-3.4,21.8c1.8,36.8,3.8,73.6,6.9,110.3
	c1.5,17.3,2.7,16.3,18.3,14.1c8.3-1.1,16.7-1.6,24.7-3.4c7-1.6,8.3,1.9,7.8,7c-0.7,8.3-2.2,16.6-3.4,24.9
	c-3.5,24.7-7.3,49.3-10.5,74c-0.8,6-0.2,12.2-0.3,18.3c-9.5,1.3-13.5-3.5-14.4-10.5c-3-21.8-5.6-43.6-8.3-65.4
	c-0.3-2.5-0.4-5.1-0.5-7.5c-8.4-1.8-12.6,3.6-16.3,9.2c-7.7,11.6-19.6,12.5-31.4,11.6c-9.4-0.7-25.9,13-25,22.7
	c1.5,16.5,3.3,33.1,4.6,49.6c0.3,3.6-0.7,7.4-1.8,11c-0.8,2.5-2.6,4.7-4,7.1c-3.1-2.4-7.2-4.3-8.9-7.4c-2.7-4.9-2.6-11.6-5.8-15.9
	c-10.2-13.6-20.9-26.9-32.4-39.3c-4.9-5.2-3.7-9.5-1.2-13.6c3.3-5.3,7.9-9.9,12.4-14.3c9.9-9.8,20.1-19.3,31.5-30.2
	c-2.1-15.3,3.1-29.9,17.9-40.7c10.2-7.4,4.6-18.1,3.8-27.1c-2-24.5-4.8-48.9-8.2-73.3c-0.8-5.7-4.3-12.1-8.5-16.1
	c-19.5-18.6-28.8-39.4-18.6-66.3c1.8-4.9,1.5-11.2,0.4-16.4C863.6,840.8,856.3,809,848.8,776.1z M91.1,1141.6l-0.3-0.4
	c-1,1.9-2,3.9-3.1,6.1c8.9,9,20,8.2,29.2,7.5c3.8-4.1,7.3-6.5,8.9-9.9c2.3-5,4.9-10.9,4.1-15.8c-0.5-3.4-6.3-6.3-10.1-8.9
	c-11.5-7.6-21.6-1.4-30.8,4.7c-3.1,2.1-3.9,8.3-4.7,12.8C84,1138.6,88.7,1140.3,91.1,1141.6z M792.7,553.8
	c-16.1-3.3-29.3-5.9-42.5-8.6c-9.1-1.8-18.1-4.7-27.2-5.2c-25.2-1.2-50.5-1.5-75.7-2c-22.8-0.5-45.6-2.2-68.2-1
	c-42.9,2.2-85.8,6.6-128.7,9.3c-43.6,2.7-87,5.9-129.4,17.8c-5.5,1.6-8.1,3.6-8.6,9.4c-1,11.5-2.2,23-4.1,34.3
	c-2.7,16.4-6.4,32.7-8.9,49.1c-4,26.3-7.6,52.7-10.7,79.2c-2.3,19.7-4.1,39.4-5.1,59.1c-1.5,29.3-1.6,58.7-3.2,87.9
	c-2.2,39.6-6.1,79.2-7.6,118.8c-1.2,30,0.3,60,0.4,90.1c0,31.1-0.3,62.3-0.2,93.4c0,2.2,3,5.8,5.1,6.3c8.2,1.9,16.7,3,25.1,4.2
	c18,2.4,36.1,4.5,54.1,7.1c31.4,4.5,62.7,9.7,94.2,14c27.9,3.8,55.9,9.6,83.9,9.6c46.4,0,92.8-3.8,139.2-6.3
	c11.5-0.6,22.9-2.3,34.3-3.9c21.8-3,43.5-6.2,65.3-9.7c1.8-0.3,4.5-3.1,4.5-4.8c0.1-23.1,0-46.3-0.6-69.4
	c-0.3-11.8-2.3-23.7-2.4-35.5c-0.3-40.9-0.1-81.8-0.3-122.6c-0.1-27.7-0.8-55.4-0.8-83.1c0.1-37.4,0-74.8,1.2-112.1
	c1-31.7,3.5-63.3,5.9-94.9c1.6-20.4,4.9-40.7,6.6-61.1C790.3,600.1,791.3,576.8,792.7,553.8z M725.2,360.1
	c-11.6,12.9-22.8,23.9-39.1,29.7c-36.9,13.1-71.5,14.3-101.8-14.6c-21.4-20.4-26.9-47.8-23.4-74.7c3.1-23.5,17.1-44.7,34.1-62.1
	c19-19.5,41.6-33.6,69.1-37.7c-1.3-23.2-37.6-52.9-79-61c-47-9.1-96.5,9.5-123,53.4c8.5,2.2,17.6,2.9,25.1,6.6
	c34.3,17.3,56.7,43.7,54,85.9c-1.8,28.6-12.9,54-36.1,72.4c-27,21.3-57,33.1-92,24.2c-8.6-2.2-16.7-6.1-26.4-9.7
	c-13.2,54.4-22.8,109.7-28.4,166.7c23.4-2.2,44.5-4.2,65.5-6.4c6.3-0.6,8-4.8,8-10.9c-0.1-12.8,0.6-25.6,0.7-38.4
	c0.2-18.8,8.1-29.6,26.5-31.3c24.2-2.3,48.6-3.2,72.9-3.8c22.1-0.6,44.2-0.3,66.4-0.2c22.7,0.2,45.5-0.1,68.2,1.3
	c21.7,1.4,28.4,12.5,20.4,32.9c-4.1,10.6-10.9,20.2-16.2,30.4c-6.7,13-6.3,13.6,8.5,14.5c2.5,0.1,5.1,0.6,7.6,0.8
	c15.6,1,31.3,1.9,47.3,2.9c0.1-27.8,1.4-56.3-0.1-84.7C732.5,418,728.3,389.6,725.2,360.1z M362.8,288.4
	c0.1,28.5,10.6,53.7,26.9,67.4c35.2,29.7,71.1,22.2,102.4-2c27.9-21.6,38.4-52.9,32.9-87.6c-2.1-13-8.4-26.4-16.1-37.2
	c-14.6-20.3-36.2-28-60.9-24.4c-12.2,1.7-25.2,3.7-35.9,9.3c-19.5,10.2-35.2,25-40.6,48.2C369.1,272.1,365,281.9,362.8,288.4z
	 M575,315.8c-0.7,16.6,1.8,31.8,12.2,44.6c15,18.4,33.9,29.3,58.2,26.1c21.7-2.9,40.7-12.7,57.8-26.2c20.1-16,30.3-37.4,27.2-62.4
	c-2.4-19.4-8.5-38.7-15.8-56.9c-5.2-12.9-14.6-25.9-30.1-27.2c-27.2-2.3-53.2,2.8-72.7,24.3c-7.3,8-14.2,16.7-19.2,26.2
	C584,280.6,574.9,297.1,575,315.8z M798,616.2c-3.3,53-6.6,107.5-10,162.5c5.4-0.2,10.4,0,15.3-0.5c28.7-3.2,51.2-17.6,71.4-37.5
	c15.9-15.7,32.2-30.7,41.7-51.6c3.4-7.4,5.4-14.6,1.4-22.2c-7.6-14.2-15.2-29.5-30.4-36.2c-13.4-5.9-28.3-9-42.8-11.3
	C829.8,617,814.7,617.2,798,616.2z M273.9,776.4c2.8-23.4,5.5-45.7,8.1-67.9c3.6-31.2,7-62.4,10.9-93.5c1-8.3-1.8-11-9.5-8.8
	c-21.9,6.1-44,11.5-65.5,18.9c-8.5,2.9-17.2,9.1-22.6,16.1c-8.5,11.1-19.7,21-21.3,36.5c-1.5,14.5-4.8,29.3,1.3,43.3
	c7.8,18,21.8,29.7,39.4,38.9C233.7,769.7,254.3,770.3,273.9,776.4z M230.3,1615.6c4.5,2.3,7.2,3.9,10.2,5.1
	c38.8,15,78.2,18.6,118.7,7.4c21.4-5.9,21.5-5.7,20.4-27.6c-1.1-22.2-8.5-32.2-29.5-39.5c-23-8-46.7-6.7-70.2-4.6
	c-18.3,1.6-32.9,10.5-40.9,26.9C234.3,1593,233.2,1604.4,230.3,1615.6z M640.2,1605.6c17.4,4.4,33,8.7,48.8,12.3
	c29.2,6.6,57,5,81.2-15.2c4.5-3.8,8.2-7.9,4.2-13.9c-6.9-10.3-14.4-20.1-21.1-30.5c-4.6-7.1-11.1-9.9-18.8-12
	c-21.5-6.1-42.4-1.4-63.2,3c-13,2.7-22.1,11.1-25.9,23.6C642.7,1582.5,642.2,1592.9,640.2,1605.6z M150.8,931.8
	c6.9-15.8,13.9-31.3,20.5-46.9c8-18.8,15.7-37.8,23.6-56.6c6.2-14.7,12.8-29.3,18.5-44.2c1.1-2.9-0.3-8.8-2.6-10.6
	c-12.7-9.7-26-18.5-38.5-27.2c-12.4,59.3-41.8,115.8-58.4,175.3C126.9,925.2,138.2,928.3,150.8,931.8z M295.5,1540.4
	c16,1,31.3,1.9,44.8,2.8c4.1-45.4,8.2-89.8,12.1-132.4c-17.4-1.1-33.7-2.1-48.8-3C301,1451.1,298.3,1495.4,295.5,1540.4z
	 M331,1311.8c-1.8-0.2-4.4-1-6.9-0.8c-18.8,1.1-29.3,2.6-36.1,24.6c-5.8,18.4,3.5,45,18.8,56.2c16.4,12.1,45.3,9.2,57.4-4.4
	c8.6-9.6,8.6-19.6,8.6-30.1C372.9,1335.8,354.4,1308.3,331,1311.8z M741.4,1395.5c-9,2.5-15.7,4.4-22.4,6.2
	c-18.1,4.9-18.5,4.8-19.8,23.7c-2.2,31.2-4,62.4-5.7,93.7c-0.3,4.9,0.6,9.9,0.8,14.5c14,0.2,27,0.4,38.6,0.6
	C735.8,1487.7,738.6,1441.8,741.4,1395.5z M80.3,971.2c-1.8,9.2,2.1,18.2,7.8,27.4c7.8,12.6,19.5,17.7,32.9,18.4
	c11,0.6,21.6-2.8,26.4-14.9c2.4-5.9,5.4-11.6,7.4-17.7c4.8-15-2.8-38.5-16-45.6C110.9,924,81.2,938.3,80.3,971.2z M307,1298
	c19.6,3.6,36,6.6,53.5,9.9c1.7-28.3,3.6-58.2,5.4-88.3c-18.3-2.9-36.3-5.8-53.6-8.5C310.5,1241.5,308.7,1270.8,307,1298z
	 M859.6,770.8c6.7,34.6,13.4,69.6,19.6,101.4c15.9-0.8,29.1-1.5,42.3-2.2c-8.5-40.2-17.2-81.2-25.9-122.1
	C883.3,755.6,871.8,762.9,859.6,770.8z M683.8,1355c-1.6,17.7,13.1,37.2,30.9,37.1c17.4,0,47.3-13.1,48.8-34c1.3-17-13.4-39.8-27-41
	C705.6,1314.3,686.2,1328.3,683.8,1355z M876.4,909.1c-1.5,16.6,15.6,39.3,30.9,39.1c18.4-0.3,34.5-13.3,36.9-36.6
	c1.8-17.3-12.7-29.4-37.6-31.8C890.9,878.4,878.1,890.9,876.4,909.1z M743.2,1307.6c1.6-25.6,3.2-50.9,4.5-76.2
	c0.1-1.4-3.1-4.4-4.6-4.3c-11.7,0.7-23.4,2-35.9,3.1c-1.7,27.1-3.3,53.7-4.9,79.6C716.6,1309.1,729.7,1308.4,743.2,1307.6z
	 M487.9,461.9c-12.7,2.5-24.3,4.5-35.8,7.2c-2.1,0.5-4,3.3-5.2,5.5c-8.9,16.8-2.8,34.5-2.8,51.8c0,1.3,3.6,3.8,5.3,3.7
	c13.9-1.2,27.8-3,41.8-4.6C490.1,504.3,489.1,484.2,487.9,461.9z M542.5,524c1.4-22,2.7-43.5,4.1-66.1c-16,1.6-31.2,3.2-47.7,4.8
	c0.8,17.5,1.3,34.4,2.3,51.3c0.4,6.8,4,11.2,11.8,10.9C522.9,524.4,532.8,524.2,542.5,524z M596.3,458.3c-14.9-0.2-28-0.3-41.4-0.5
	c-0.4,21.9-0.7,43.6-1.1,65.6c13.2-0.1,24.3-0.1,35.5-0.2C591.6,501.7,593.8,480.7,596.3,458.3z M92.2,1022.3
	c1.3,26.1,2.6,52,3.9,76.7c10.1,0.6,18.3,1.1,26.5,1.6c1.5-24.8,3-48.6,4.3-70.8C116.1,1027.5,105.5,1025.2,92.2,1022.3z
	 M622.3,524.9c5.2-22.1,10.3-43.8,15.5-65.9c-9.5,0-18.1-0.4-26.7,0.1c-2,0.1-5.2,3.2-5.5,5.3c-2,12.9-3.6,25.9-4.9,38.9
	C598.3,525.4,598.5,525.4,622.3,524.9z M678.5,461.8c-9.9-1.3-16.8-2.8-23.7-2.8c-2.8,0-7.4,2.9-8,5.2c-4.8,20-8.9,40.3-13.5,61.4
	c8,0.5,13.6,0.8,20.8,1.3C662,506,669.9,484.7,678.5,461.8z M940.1,1077.6c-3.9-43.1-7.6-83.7-11.3-124.2
	c-16,7.3-16.9,8.8-15.2,25.3c0.7,6.7,1.7,13.3,2.3,20c1.9,22.8,3.6,45.6,5.3,67.1c4.3,1.5,7.5,2.1,10.1,3.7
	C934,1071.2,936.1,1073.9,940.1,1077.6z M922.1,1082.2c-9-0.6-20.6,6.1-22,13.2c-1.8,9.2,6.2,29,13,31.3c8.3,2.8,15,0.8,21.5-5.5
	c6.8-6.6,9.8-13.3,5.9-21.9C937,1091.4,934.6,1081.8,922.1,1082.2z M877.5,1199.9c-0.3-15.3-0.7-27.7-0.8-40.1c0-2.2,0.9-5,2.5-6.6
	c5.9-5.9,12.3-11.4,18.8-17.4c-4.5-4.5-7.8-7.7-11-10.9c-10.4,9.2-20.3,18.8-31,27.3c-6,4.8-6.1,9.2-2.2,14.7
	C861.2,1177.3,868.6,1187.5,877.5,1199.9z M146.3,1134.6c-6.1,8.5-6.1,13.4,3.8,16.8c8.7,3,16.9,7.7,25,12c8.3,4.5,8.9,8.6,3,15.6
	c-8.8,10.3-18.2,35.9-16.6,48c12.7-20.6,24.4-39.6,37-60.2c-14.4,0.8-19.7-8.5-27.2-14.9C163.8,1145.5,155,1140.5,146.3,1134.6z
	 M23.3,1208.9c0.4-0.2,0.7-0.4,1.1-0.5c1.4-11.1,2.6-22.2,4.5-33.2c0.4-2.4,2.7-5.2,4.9-6.3c13.8-7.1,27.9-13.7,42.3-20.7
	c-2.1-4-3.6-6.8-5.3-10.1c-14.7,7.4-28.9,14.7-43.2,21.8c-3.7,1.8-7.6,3.2-13,5.4C17.2,1178.5,20.2,1193.7,23.3,1208.9z M577.6,45.2
	c-1.8,0.4-5.5,1.3-9.3,2.1c-7.1,1.4-10,6.5-10.5,12.9c-0.6,7.1,4.3,9.4,10,12.1c9.2,4.3,16.4-0.4,23.7-3.9c2.3-1.1,4.4-5.9,4.1-8.8
	C594.9,49.4,590.4,45.8,577.6,45.2z M988,1094.3c-11.4,1.1-22.6,2.1-33.8,3.1c0,5.2,0,9.3,0,13.4c6.5-0.1,12.7-0.3,18-0.4
	c2,17.5,3.7,33.7,5.5,49.9c0.6,0,1.3,0,1.9,0C982.5,1138.7,985.2,1117.1,988,1094.3z M557.5,125.4c9.7,0.6,18.7,1.1,27.9,1.7
	c-1-14-1.9-26.9-3-42.2c-4.4,2.1-9.4,2.9-10.6,5.5C566.4,101.8,562.1,113.8,557.5,125.4z M425.2,32.3c-0.4-15.4-8.4-25.4-19.6-23
	c-2.2,0.5-4.7,4-5.3,6.6c-0.8,3.3-0.3,7.1,0.3,10.6c0.8,5,0.8,11.2,3.7,14.6c2.4,2.8,9.5,4.2,12.9,2.6
	C420.8,42.1,422.6,36.3,425.2,32.3z M744.8,30.7c-17.2-0.2-27.2,7.3-28,23.7c10,8.5,18.4,4.3,26.1-2.7
	C750.1,45.1,748.2,37.3,744.8,30.7z M549,1274.7c-12.8-3.4-25-3-35.9,4c-4.5,2.9-13.1,4.7-8.9,14.2c14.5-2.6,29.1-5.2,44.3-8
	c-0.3,0.7-0.1,0.4-0.1,0.1C548.5,1282.1,548.7,1279.2,549,1274.7z M549.5,1261c1.1-8.1-0.2-10.9-10.6-10.1c-11,0.9-21.8,4.3-32.5,7
	c-6.9,1.7-8.6,6.1-5.5,11.7C517.2,1266.7,532.9,1264,549.5,1261z M495.3,1306.8c-0.2,1-0.3,1.9-0.5,2.9c5.8,2.6,11.6,5.2,16,7.2
	c2.9-6,3.7-11.5,6.7-13c4.6-2.4,10.5-2.2,15.9-3.1c0.3,1.1,0.6,2.1,0.9,3.2c-2.2,3.1-4.5,6.2-6.7,9.3c5.1-0.5,9.6-2,13.4-4.5
	c2.6-1.7,4.4-4.9,6.5-7.4c-2.8-1.8-5.4-4.6-8.4-5.3c-4.2-0.9-9.1-1.3-13.2-0.1C515.5,1299,505.5,1303.1,495.3,1306.8z M485.3,152.5
	c-12.3-17.3-23.9-33.8-35.6-50.3c-0.4,0.2-0.7,0.3-1.1,0.5c8.8,18.9,17.5,37.7,26.6,57.1C478.7,157.3,481.5,155.3,485.3,152.5z
	 M499.5,1245.8c17.5-2,34.7-3.9,51.8-5.9c0.1-0.2,0.2-0.5,0.3-0.7c-17.2-1.1-34.4-2.1-52.4-3.2
	C499.3,1238.2,499.4,1241.6,499.5,1245.8z M648.1,157c2.9,1.5,5.1,2.6,7.7,3.9c6.7-11.4,13.2-22.4,19.6-33.3c-0.6-0.3-1.2-0.7-1.8-1
	C665.3,136.4,657.1,146.3,648.1,157z"/>
<path fill-rule="evenodd" clip-rule="evenodd" fill="#FFFFFF" d="M792.7,553.8c-1.4,23-2.5,46.3-4.4,69.5c-1.7,20.4-5,40.7-6.6,61.1
	c-2.5,31.6-4.9,63.2-5.9,94.9c-1.2,37.4-1.1,74.8-1.2,112.1c-0.1,27.7,0.6,55.4,0.8,83.1c0.2,40.9-0.1,81.8,0.3,122.6
	c0.1,11.8,2.1,23.7,2.4,35.5c0.6,23.1,0.7,46.3,0.6,69.4c0,1.7-2.7,4.5-4.5,4.8c-21.7,3.5-43.5,6.7-65.3,9.7
	c-11.4,1.6-22.9,3.2-34.3,3.9c-46.4,2.5-92.8,6.3-139.2,6.3c-28,0-56-5.8-83.9-9.6c-31.4-4.3-62.8-9.4-94.2-14
	c-18-2.6-36.1-4.7-54.1-7.1c-8.4-1.1-16.8-2.2-25.1-4.2c-2.2-0.5-5.1-4.1-5.1-6.3c-0.2-31.1,0.2-62.3,0.2-93.4
	c0-30-1.5-60.1-0.4-90.1c1.5-39.6,5.4-79.2,7.6-118.8c1.6-29.3,1.7-58.6,3.2-87.9c1-19.7,2.8-39.5,5.1-59.1
	c3.1-26.4,6.8-52.8,10.7-79.2c2.5-16.5,6.2-32.7,8.9-49.1c1.9-11.4,3.1-22.8,4.1-34.3c0.5-5.8,3.1-7.9,8.6-9.4
	c42.3-11.9,85.8-15.1,129.4-17.8c42.9-2.6,85.7-7,128.7-9.3c22.7-1.2,45.5,0.5,68.2,1c25.2,0.5,50.5,0.8,75.7,2
	c9.1,0.5,18.1,3.4,27.2,5.2C763.4,547.9,776.6,550.5,792.7,553.8z M421.1,574.9c-0.2-1.1-0.3-2.2-0.5-3.3
	c-29.4,3.9-58.8,7.8-88.7,11.7c1.8,8.7,7.2,6.8,12,5.9c20.4-4,40.7-8.1,61.1-12C410.3,576.2,415.8,575.6,421.1,574.9z M333.9,603.9
	c0.3,1.6,0.6,3.3,0.9,4.9c18.3-3.1,36.6-6.2,54.9-9.2c-0.2-1.3-0.4-2.6-0.6-3.9C371.1,601,351.6,596.3,333.9,603.9z"/>
<path fill-rule="evenodd" clip-rule="evenodd" fill="#FFFFFF" d="M725.2,360.1c3.1,29.6,7.3,57.9,8.8,86.5
	c1.5,28.4,0.1,56.9,0.1,84.7c-16-1-31.6-1.9-47.3-2.9c-2.5-0.2-5.1-0.7-7.6-0.8c-14.8-0.9-15.2-1.5-8.5-14.5
	c5.3-10.2,12-19.8,16.2-30.4c8-20.5,1.2-31.6-20.4-32.9c-22.7-1.4-45.5-1.1-68.2-1.3c-22.1-0.2-44.3-0.5-66.4,0.2
	c-24.3,0.7-48.7,1.6-72.9,3.8c-18.4,1.7-26.4,12.5-26.5,31.3c-0.1,12.8-0.8,25.6-0.7,38.4c0.1,6.1-1.7,10.2-8,10.9
	c-21,2.2-42.1,4.1-65.5,6.4c5.6-57,15.2-112.3,28.4-166.7c9.7,3.6,17.9,7.5,26.4,9.7c35,8.9,65-2.9,92-24.2
	c23.2-18.3,34.3-43.8,36.1-72.4c2.7-42.2-19.7-68.6-54-85.9c-7.5-3.8-16.5-4.5-25.1-6.6c26.5-43.9,75.9-62.6,123-53.4
	c41.4,8.1,77.7,37.7,79,61c-27.6,4.1-50.2,18.2-69.1,37.7c-16.9,17.4-30.9,38.6-34.1,62.1c-3.5,26.9,1.9,54.3,23.4,74.7
	c30.3,28.9,64.9,27.7,101.8,14.6C702.4,384,713.6,373,725.2,360.1z"/>
<path fill-rule="evenodd" clip-rule="evenodd" fill="#FFFFFF" d="M362.8,288.4c2.2-6.5,6.3-16.2,8.7-26.4c5.4-23.1,21-38,40.6-48.2
	c10.7-5.6,23.7-7.6,35.9-9.3c24.7-3.5,46.3,4.1,60.9,24.4c7.7,10.8,14,24.2,16.1,37.2c5.5,34.7-5,66-32.9,87.6
	c-31.3,24.2-67.2,31.8-102.4,2C373.4,342,362.9,316.9,362.8,288.4z M419.6,285.2c-0.9,17.9,12.2,31.6,30.2,31.9
	c15.4,0.2,28.5-13.8,29.1-31.2c0.4-12.3-14.5-31.3-25.1-30.4C438.2,256.9,418.3,267.2,419.6,285.2z"/>
<path fill-rule="evenodd" clip-rule="evenodd" fill="#FFFFFF" d="M575,315.8c-0.1-18.8,9-35.2,17.7-51.5c5-9.5,12-18.2,19.2-26.2
	c19.5-21.5,45.4-26.6,72.7-24.3c15.5,1.3,24.9,14.3,30.1,27.2c7.3,18.2,13.4,37.5,15.8,56.9c3.1,25-7.1,46.4-27.2,62.4
	c-17.1,13.6-36.1,23.4-57.8,26.2c-24.3,3.2-43.2-7.7-58.2-26.1C576.8,347.6,574.3,332.5,575,315.8z M688.9,300.2
	c3.6-19.2-11.2-32.9-31.5-35.6c-13.9-1.8-30,12.6-31.4,27.1c-2,21.4,8.7,37.2,27.2,38C670.5,330.3,688.1,324.6,688.9,300.2z"/>
<path fill-rule="evenodd" clip-rule="evenodd" fill="#FFFFFF" d="M798,616.2c16.7,1,31.8,0.8,46.4,3.2c14.5,2.3,29.4,5.4,42.8,11.3
	c15.3,6.7,22.8,22,30.4,36.2c4,7.5,2,14.7-1.4,22.2c-9.5,20.8-25.8,35.9-41.7,51.6c-20.1,19.9-42.7,34.3-71.4,37.5
	c-4.9,0.5-9.9,0.4-15.3,0.5C791.4,723.7,794.8,669.2,798,616.2z M844.4,729.2c6.3,0.4,10.2,1.9,12.3,0.5
	c9.2-5.6,18.3-11.6,26.6-18.4c4.1-3.3,9.2-8.6,9.1-12.9c0-4.1-6.2-8.2-9.8-12.1c-1.3-1.4-3.3-2.3-4.9-3.4c-1.1,1.8-3.1,3.6-3.3,5.5
	c-1.5,14.5-10.3,23.4-21.7,30.8C850,721.1,848.3,724.5,844.4,729.2z"/>
<path fill-rule="evenodd" clip-rule="evenodd" fill="#FFFFFF" d="M273.9,776.4c-19.6-6.2-40.2-6.8-59.2-16.6
	c-17.6-9.1-31.6-20.8-39.4-38.9c-6.1-14-2.7-28.8-1.3-43.3c1.6-15.5,12.8-25.4,21.3-36.5c5.5-7.1,14.1-13.2,22.6-16.1
	c21.4-7.4,43.6-12.8,65.5-18.9c7.7-2.1,10.5,0.5,9.5,8.8c-3.9,31.1-7.3,62.3-10.9,93.5C279.5,730.8,276.7,753,273.9,776.4z
	 M206.9,679.2c-9.6-1.5-12.9,4.3-13.7,10.8c-1.7,14.1,3.5,26.2,13.7,36c3.1,3,7.1,8,10.8,2.6c1.6-2.3-0.1-9.8-2.7-11.8
	c-10.8-8.2-14.1-17.7-8.7-30.2C207.2,684.6,206.7,682.2,206.9,679.2z"/>
<path fill-rule="evenodd" clip-rule="evenodd" fill="#FFFFFF" d="M230.3,1615.6c2.9-11.2,4-22.6,8.7-32.3
	c8-16.5,22.6-25.4,40.9-26.9c23.6-2,47.3-3.3,70.2,4.6c21,7.3,28.4,17.2,29.5,39.5c1.1,22,1,21.7-20.4,27.6
	c-40.5,11.2-79.9,7.6-118.7-7.4C237.5,1619.5,234.8,1617.8,230.3,1615.6z M252.3,1595.4c10.2-8.3,20.6-16.8,31.3-25.6
	c-5.9-8.6-12.5-1.9-18.1,1.3C256.2,1576.4,250,1590,252.3,1595.4z M267.7,1601.3c6.5-6.5,11.3-11.3,16.7-16.7
	C273.6,1581,267.5,1586.8,267.7,1601.3z"/>
<path fill-rule="evenodd" clip-rule="evenodd" fill="#FFFFFF" d="M640.2,1605.6c2-12.7,2.4-23.1,5.3-32.8
	c3.7-12.5,12.9-20.9,25.9-23.6c20.8-4.4,41.7-9.1,63.2-3c7.6,2.2,14.2,4.9,18.8,12c6.6,10.4,14.2,20.2,21.1,30.5
	c4,6,0.3,10.1-4.2,13.9c-24.3,20.2-52,21.9-81.2,15.2C673.2,1614.3,657.6,1610,640.2,1605.6z M754.3,1596.2c1.1-3,2.7-5.7,2.9-8.4
	c0.4-6.9-13.6-24.2-20.2-25.2c-1.5-0.2-3.7,0.9-4.8,2.1c-0.7,0.7-0.4,3.7,0.4,4.1c10.3,6,17.3,14.2,18.9,26.3
	C751.4,1595.3,752,1595.4,754.3,1596.2z M743.7,1598.9c1.4-1.1,2.8-2.2,4.3-3.4c-4.4-6.3-8.6-12.7-13.2-18.8c-0.5-0.7-4-0.2-5,0.8
	c-1,1.1-1.5,4.2-0.6,5.2C733.7,1588.3,738.7,1593.6,743.7,1598.9z"/>
<path fill-rule="evenodd" clip-rule="evenodd" fill="#FFFFFF" d="M150.8,931.8c-12.7-3.5-24-6.6-36.9-10.2
	c16.6-59.5,46-116,58.4-175.3c12.4,8.6,25.8,17.5,38.5,27.2c2.3,1.8,3.7,7.7,2.6,10.6c-5.6,14.9-12.3,29.5-18.5,44.2
	c-7.9,18.9-15.6,37.8-23.6,56.6C164.7,900.6,157.7,916.1,150.8,931.8z M163.7,812.8c11.1-7.8,19.6-39.2,12.2-47.3
	C171.8,781.4,168,796.1,163.7,812.8z"/>
<path fill-rule="evenodd" clip-rule="evenodd" fill="#FFFFFF" d="M295.5,1540.4c2.8-45,5.5-89.3,8.2-132.7c15.1,0.9,31.4,1.9,48.8,3
	c-3.9,42.7-7.9,87-12.1,132.4C326.8,1542.4,311.6,1541.4,295.5,1540.4z M318.7,1424.9c-1-0.5-1.9-1-2.9-1.5c-1.1,3.7-3,7.3-3.2,11
	c-0.8,12.9,0.5,16.1,6.6,18.7C319.1,1443.6,318.9,1434.2,318.7,1424.9z"/>
<path fill-rule="evenodd" clip-rule="evenodd" fill="#FFFFFF" d="M331,1311.8c23.4-3.5,41.9,24,41.8,45.4c0,10.5-0.1,20.5-8.6,30.1
	c-12.1,13.6-41,16.4-57.4,4.4c-15.3-11.2-24.5-37.8-18.8-56.2c6.9-21.9,17.3-23.4,36.1-24.6C326.6,1310.8,329.2,1311.6,331,1311.8z
	 M320.2,1372.1c-4.9-7.2-9.2-13.6-15-22.1c-2,3-5.9,6.3-5.3,8.1c2.9,8.4,6.6,16.7,16.6,19.5C318.3,1375,319.8,1372.6,320.2,1372.1z"
	/>
<path fill-rule="evenodd" clip-rule="evenodd" fill="#FFFFFF" d="M741.4,1395.5c-2.8,46.3-5.7,92.2-8.5,138.7
	c-11.6-0.2-24.6-0.4-38.6-0.6c-0.3-4.5-1.1-9.5-0.8-14.5c1.8-31.2,3.5-62.5,5.7-93.7c1.4-18.9,1.7-18.9,19.8-23.7
	C725.7,1399.9,732.4,1398,741.4,1395.5z M716.5,1414.3c-5.8,4.8-9.1,25.6-5.5,30c0.8,1,3.1,1.9,3.7,1.5c1.3-0.9,2.7-2.8,2.7-4.2
	C717.4,1432.9,716.9,1424.2,716.5,1414.3z"/>
<path fill-rule="evenodd" clip-rule="evenodd" fill="#FFFFFF" d="M80.3,971.2c0.9-32.9,30.6-47.2,58.4-32.4
	c13.2,7,20.8,30.6,16,45.6c-2,6-5,11.7-7.4,17.7c-4.8,12.1-15.3,15.5-26.4,14.9c-13.4-0.7-25.1-5.7-32.9-18.4
	C82.4,989.4,78.5,980.4,80.3,971.2z M120.7,984.7c-9.8-1.6-17.2-2.2-14.5-12.6c0.2-0.8-4-3.5-6.5-3.9c-1.1-0.2-4.2,3.6-3.9,4.9
	c1.3,5.4,2.8,11,5.8,15.5c2,2.9,6.8,5.4,10.4,5.4C114.5,994,116.8,989.2,120.7,984.7z"/>
<path fill-rule="evenodd" clip-rule="evenodd" fill="#FFFFFF" d="M307,1298c1.7-27.2,3.5-56.5,5.3-86.9c17.3,2.7,35.3,5.6,53.6,8.5
	c-1.9,30.1-3.7,59.9-5.4,88.3C343,1304.6,326.6,1301.6,307,1298z M325,1221.6c-5.5,2.2-8.2,7.1-7.9,18c0.1,6.7,2.5,13.4,3.9,20.1
	c0.6-0.2,1.2-0.5,1.7-0.7C323.4,1246.5,324.2,1234.2,325,1221.6z"/>
<path fill-rule="evenodd" clip-rule="evenodd" fill="#FFFFFF" d="M859.6,770.8c12.3-7.8,23.8-15.2,36-22.9
	c8.7,40.9,17.4,81.9,25.9,122.1c-13.2,0.7-26.4,1.4-42.3,2.2C873,840.3,866.2,805.4,859.6,770.8z M879.5,812.1
	c1.2-0.4,2.4-0.9,3.5-1.3c-3.1-12.9-6.2-25.8-9.5-38.6c-0.2-0.7-3.8-1.3-4-1c-0.9,1.8-2.1,4-1.7,5.8c1.6,7.8,3.4,15.7,5.8,23.3
	C874.9,804.4,877.5,808.1,879.5,812.1z"/>
<path fill-rule="evenodd" clip-rule="evenodd" fill="#FFFFFF" d="M683.8,1355c2.4-26.7,21.8-40.7,52.7-37.9c13.6,1.2,28.2,24,27,41
	c-1.5,21-31.4,34-48.8,34C696.8,1392.2,682.2,1372.7,683.8,1355z M720,1372.6c-9.8-9.5-9.7-9.5-10.1-25.5c0-1.6-1.2-4.1-2.4-4.6
	c-1.8-0.7-5.5-0.7-6,0.3c-2.4,4.3-6.4,9.9-5.2,13.5c2.3,6.9,7.4,13,12,19C713.9,1382.9,717.8,1380.8,720,1372.6z"/>
<path fill-rule="evenodd" clip-rule="evenodd" fill="#FFFFFF" d="M876.4,909.1c1.6-18.3,14.5-30.8,30.1-29.3
	c24.9,2.4,39.4,14.4,37.6,31.8c-2.4,23.3-18.5,36.3-36.9,36.6C892.1,948.5,875,925.7,876.4,909.1z M922.9,907.4
	c-4.7,7.6-8.1,12.9-11.2,18.4c-1.1,2-1.2,4.5-1.7,6.8c2.4,0.4,5,1.7,7.1,1.1c7-2,13.5-14.6,10.8-21.5
	C927,909.7,923.8,908.1,922.9,907.4z"/>
<path fill-rule="evenodd" clip-rule="evenodd" fill="#FFFFFF" d="M743.2,1307.6c-13.5,0.8-26.5,1.5-41,2.3
	c1.6-25.9,3.2-52.6,4.9-79.6c12.5-1.2,24.2-2.4,35.9-3.1c1.5-0.1,4.7,2.9,4.6,4.3C746.4,1256.8,744.7,1282.1,743.2,1307.6z
	 M716,1273c0.8,0.3,1.7,0.6,2.5,0.9c1.3-1.2,3.6-2.4,3.6-3.6c-0.3-9.8-1-19.7-1.6-29.5c-1.4,0.1-2.8,0.1-4.2,0.2
	C716.1,1251.7,716,1262.3,716,1273z"/>
<path fill-rule="evenodd" clip-rule="evenodd" fill="#FFFFFF" d="M487.9,461.9c1.2,22.3,2.2,42.3,3.3,63.6
	c-14,1.6-27.9,3.4-41.8,4.6c-1.7,0.2-5.3-2.4-5.3-3.7c0-17.3-6.1-35.1,2.8-51.8c1.2-2.2,3.1-5,5.2-5.5
	C463.6,466.5,475.2,464.4,487.9,461.9z"/>
<path fill-rule="evenodd" clip-rule="evenodd" fill="#FFFFFF" d="M542.5,524c-9.7,0.3-19.7,0.4-29.6,0.9c-7.8,0.4-11.3-4-11.8-10.9
	c-1-16.9-1.6-33.8-2.3-51.3c16.5-1.7,31.7-3.2,47.7-4.8C545.2,480.4,543.9,502,542.5,524z"/>
<path fill-rule="evenodd" clip-rule="evenodd" fill="#FFFFFF" d="M596.3,458.3c-2.4,22.5-4.7,43.5-7,64.9
	c-11.2,0.1-22.4,0.1-35.5,0.2c0.4-21.9,0.8-43.7,1.1-65.6C568.2,457.9,581.3,458.1,596.3,458.3z"/>
<path fill-rule="evenodd" clip-rule="evenodd" fill="#FFFFFF" d="M92.2,1022.3c13.3,2.9,24,5.2,34.7,7.6
	c-1.4,22.1-2.8,45.9-4.3,70.8c-8.2-0.5-16.4-1-26.5-1.6C94.8,1074.3,93.5,1048.4,92.2,1022.3z M98.9,1038.3
	c-0.5,0.9-1.1,1.7-1.6,2.6c1.4,8.3,2.8,16.7,4.6,27.6c6.5-9.9,5.8-18.1,3.2-26.2C104.5,1040.6,101.1,1039.7,98.9,1038.3z"/>
<path fill-rule="evenodd" clip-rule="evenodd" fill="#FFFFFF" d="M622.3,524.9c-23.8,0.5-23.9,0.5-21.7-21.5c1.3-13,2.9-26,4.9-38.9
	c0.3-2.1,3.5-5.2,5.5-5.3c8.6-0.6,17.2-0.2,26.7-0.1C632.5,481.1,627.4,502.8,622.3,524.9z"/>
<path fill-rule="evenodd" clip-rule="evenodd" fill="#FFFFFF" d="M678.5,461.8c-8.6,22.9-16.5,44.2-24.3,65.1
	c-7.2-0.4-12.8-0.8-20.8-1.3c4.5-21.1,8.6-41.3,13.5-61.4c0.6-2.4,5.2-5.2,8-5.2C661.7,458.9,668.5,460.5,678.5,461.8z"/>
<path fill-rule="evenodd" clip-rule="evenodd" fill="#FFFFFF" d="M940.1,1077.6c-4-3.7-6.1-6.4-8.8-8.1c-2.6-1.6-5.8-2.2-10.1-3.7
	c-1.7-21.5-3.4-44.3-5.3-67.1c-0.5-6.7-1.6-13.3-2.3-20c-1.7-16.5-0.8-18,15.2-25.3C932.4,993.9,936.1,1034.5,940.1,1077.6z
	 M922.4,992.1c-0.1-9.4,9.1-18.7,0.2-28.3C916.6,967.8,916,984.6,922.4,992.1z"/>
<path fill-rule="evenodd" clip-rule="evenodd" fill="#FFFFFF" d="M922.1,1082.2c12.5-0.4,14.9,9.2,18.4,17.1
	c3.9,8.6,0.9,15.3-5.9,21.9c-6.5,6.3-13.2,8.3-21.5,5.5c-6.8-2.3-14.8-22.1-13-31.3C901.5,1088.3,913.1,1081.6,922.1,1082.2z
	 M923.5,1107.8c1.1,1,2.2,2,3.4,2.9c2.9-2.8,6.8-5.2,8.2-8.6c0.7-1.8-3.1-7.8-4.9-7.8C918.6,1094.5,930.1,1104.9,923.5,1107.8z"/>
<path fill-rule="evenodd" clip-rule="evenodd" fill="#FFFFFF" d="M877.5,1199.9c-8.9-12.4-16.3-22.6-23.7-32.9
	c-3.9-5.5-3.8-9.9,2.2-14.7c10.7-8.5,20.6-18.1,31-27.3c3.3,3.2,6.5,6.4,11,10.9c-6.6,6-12.9,11.5-18.8,17.4
	c-1.5,1.5-2.5,4.3-2.5,6.6C876.8,1172.2,877.2,1184.6,877.5,1199.9z"/>
<path fill-rule="evenodd" clip-rule="evenodd" fill="#FFFFFF" d="M91.1,1141.6c-2.4-1.3-7.1-3-6.9-3.8c0.9-4.5,1.6-10.8,4.7-12.8
	c9.2-6.1,19.3-12.2,30.8-4.7c3.8,2.5,9.6,5.4,10.1,8.9c0.8,5-1.8,10.9-4.1,15.8c-1.5,3.3-5,5.8-8.9,9.9c-9.2,0.6-20.3,1.5-29.2-7.5
	c1.1-2.3,2.1-4.2,3.1-6.1c3.5,2.1,7.1,4.2,10.6,6.4c0.4-6.9,0.8-11,0.9-15.1c0-2.2-0.5-4.4-0.7-6.6c-2.5,0.7-6.5,0.7-7.2,2.2
	C92.6,1132.2,92.1,1137,91.1,1141.6z"/>
<path fill-rule="evenodd" clip-rule="evenodd" fill="#FFFFFF" d="M146.3,1134.6c8.7,5.9,17.5,10.9,25.1,17.3
	c7.5,6.4,12.8,15.7,27.2,14.9c-12.6,20.6-24.3,39.6-37,60.2c-1.7-12.1,7.8-37.6,16.6-48c6-7,5.4-11.1-3-15.6
	c-8.2-4.4-16.3-9.1-25-12C140.2,1148,140.2,1143,146.3,1134.6z"/>
<path fill-rule="evenodd" clip-rule="evenodd" fill="#FFFFFF" d="M23.3,1208.9c-3-15.2-6-30.4-8.7-43.7c5.4-2.2,9.3-3.5,13-5.4
	c14.3-7.1,28.5-14.3,43.2-21.8c1.7,3.3,3.2,6,5.3,10.1c-14.4,7-28.5,13.6-42.3,20.7c-2.2,1.1-4.5,4-4.9,6.3
	c-1.8,11-3.1,22.1-4.5,33.2C24,1208.6,23.6,1208.8,23.3,1208.9z"/>
<path fill-rule="evenodd" clip-rule="evenodd" fill="#FFFFFF" d="M577.6,45.2c12.8,0.7,17.3,4.2,18,14.4c0.2,2.9-1.8,7.7-4.1,8.8
	c-7.3,3.5-14.5,8.2-23.7,3.9c-5.8-2.7-10.6-5-10-12.1c0.6-6.5,3.4-11.5,10.5-12.9C572.1,46.5,575.8,45.6,577.6,45.2z"/>
<path fill-rule="evenodd" clip-rule="evenodd" fill="#FFFFFF" d="M988,1094.3c-2.9,22.7-5.6,44.3-8.3,65.9c-0.6,0-1.3,0-1.9,0
	c-1.8-16.2-3.6-32.3-5.5-49.9c-5.3,0.1-11.5,0.2-18,0.4c0-4.1,0-8.1,0-13.4C965.4,1096.4,976.6,1095.4,988,1094.3z"/>
<path fill-rule="evenodd" clip-rule="evenodd" fill="#FFFFFF" d="M557.5,125.4c4.6-11.6,8.9-23.6,14.2-35c1.2-2.6,6.3-3.4,10.6-5.5
	c1.1,15.3,2,28.2,3,42.2C576.1,126.6,567.2,126,557.5,125.4z"/>
<path fill-rule="evenodd" clip-rule="evenodd" fill="#FFFFFF" d="M425.2,32.3c-2.6,4-4.4,9.8-8.1,11.4c-3.4,1.5-10.5,0.1-12.9-2.6
	c-2.9-3.4-2.9-9.5-3.7-14.6c-0.6-3.5-1.1-7.3-0.3-10.6c0.6-2.6,3.1-6.1,5.3-6.6C416.8,6.9,424.8,16.9,425.2,32.3z"/>
<path fill-rule="evenodd" clip-rule="evenodd" fill="#FFFFFF" d="M744.8,30.7c3.4,6.6,5.2,14.4-2,21c-7.6,7-16.1,11.2-26.1,2.7
	C717.7,38,727.6,30.5,744.8,30.7z"/>
<path fill-rule="evenodd" clip-rule="evenodd" fill="#FFFFFF" d="M549,1274.7c-0.3,4.6-0.4,7.4-0.6,10.3c0,0.3-0.3,0.6,0.1-0.1
	c-15.2,2.7-29.7,5.4-44.3,8c-4.2-9.4,4.4-11.3,8.9-14.2C524,1271.7,536.2,1271.3,549,1274.7z"/>
<path fill-rule="evenodd" clip-rule="evenodd" fill="#FFFFFF" d="M549.5,1261c-16.6,2.9-32.3,5.7-48.6,8.6
	c-3.1-5.5-1.4-9.9,5.5-11.7c10.8-2.7,21.6-6.1,32.5-7C549.3,1250.1,550.6,1252.9,549.5,1261z"/>
<path fill-rule="evenodd" clip-rule="evenodd" fill="#FFFFFF" d="M495.3,1306.8c10.1-3.7,20.1-7.8,30.5-10.8c4.1-1.2,9-0.8,13.2,0.1
	c3.1,0.7,5.7,3.4,8.4,5.3c-2.1,2.5-3.8,5.7-6.5,7.4c-3.8,2.5-8.3,4-13.4,4.5c2.2-3.1,4.5-6.2,6.7-9.3c-0.3-1.1-0.6-2.2-0.9-3.2
	c-5.4,0.9-11.3,0.7-15.9,3.1c-2.9,1.6-3.8,7-6.7,13c-4.4-2-10.2-4.6-16-7.2C495,1308.7,495.2,1307.7,495.3,1306.8z"/>
<path fill-rule="evenodd" clip-rule="evenodd" fill="#FFFFFF" d="M485.3,152.5c-3.8,2.8-6.6,4.8-10.1,7.3
	c-9-19.4-17.8-38.3-26.6-57.1c0.4-0.2,0.7-0.3,1.1-0.5C461.3,118.7,473,135.1,485.3,152.5z"/>
<path fill-rule="evenodd" clip-rule="evenodd" fill="#FFFFFF" d="M499.5,1245.8c-0.1-4.2-0.2-7.6-0.3-9.8c18,1.1,35.2,2.2,52.4,3.2
	c-0.1,0.2-0.2,0.5-0.3,0.7C534.2,1241.9,517,1243.8,499.5,1245.8z"/>
<path fill-rule="evenodd" clip-rule="evenodd" fill="#FFFFFF" d="M648.1,157c9-10.8,17.2-20.6,25.4-30.4c0.6,0.3,1.2,0.7,1.8,1
	c-6.4,11-12.9,21.9-19.6,33.3C653.2,159.6,651,158.5,648.1,157z"/>
<path fill-rule="evenodd" clip-rule="evenodd" d="M421.1,574.9c-5.4,0.8-10.8,1.3-16.2,2.3c-20.4,3.9-40.7,8.1-61.1,12
	c-4.8,0.9-10.2,2.7-12-5.9c29.9-3.9,59.3-7.8,88.7-11.7C420.8,572.7,421,573.8,421.1,574.9z"/>
<path fill-rule="evenodd" clip-rule="evenodd" d="M333.9,603.9c17.7-7.6,37.2-2.9,55.2-8.2c0.2,1.3,0.4,2.6,0.6,3.9
	c-18.3,3.1-36.6,6.1-54.9,9.2C334.5,607.2,334.2,605.5,333.9,603.9z"/>
<path fill-rule="evenodd" clip-rule="evenodd" d="M419.6,285.2c-1.4-17.9,18.6-28.2,34.2-29.6c10.6-0.9,25.5,18,25.1,30.4
	c-0.6,17.4-13.7,31.4-29.1,31.2C431.8,316.8,418.8,303,419.6,285.2z M460.5,285.3c-6.4-4-11-12.8-19.6-4.9
	c-5.9,5.5-1.5,10.9,2.5,13.4C451.6,298.9,456,292.5,460.5,285.3z"/>
<path fill-rule="evenodd" clip-rule="evenodd" d="M688.9,300.2c-0.8,24.4-18.4,30.1-35.7,29.4c-18.5-0.8-29.2-16.5-27.2-38
	c1.3-14.4,17.5-28.9,31.4-27.1C677.8,267.2,692.5,281,688.9,300.2z M644.6,303.4c2.6,1.8,7.2,7.4,10,6.6c5.1-1.5,11.8-6,13.1-10.6
	c1.6-6-4.5-10.3-11-10.1C650.1,289.4,645.7,293.2,644.6,303.4z"/>
<path fill-rule="evenodd" clip-rule="evenodd" d="M844.4,729.2c3.9-4.8,5.6-8.1,8.3-9.9c11.4-7.4,20.3-16.4,21.7-30.8
	c0.2-1.9,2.1-3.7,3.3-5.5c1.7,1.1,3.6,2,4.9,3.4c3.6,3.9,9.8,8,9.8,12.1c0,4.3-5,9.6-9.1,12.9c-8.4,6.8-17.4,12.8-26.6,18.4
	C854.6,731.1,850.8,729.6,844.4,729.2z"/>
<path fill-rule="evenodd" clip-rule="evenodd" d="M206.9,679.2c-0.2,3,0.3,5.5-0.6,7.4c-5.4,12.6-2,22,8.7,30.2
	c2.6,2,4.3,9.4,2.7,11.8c-3.7,5.4-7.7,0.4-10.8-2.6c-10.2-9.8-15.4-21.9-13.7-36C194,683.4,197.3,677.7,206.9,679.2z"/>
<path fill-rule="evenodd" clip-rule="evenodd" d="M252.3,1595.4c-2.3-5.4,3.8-19,13.3-24.3c5.6-3.2,12.2-9.9,18.1-1.3
	C272.9,1578.6,262.5,1587.1,252.3,1595.4z"/>
<path fill-rule="evenodd" clip-rule="evenodd" d="M267.7,1601.3c-0.2-14.5,5.9-20.3,16.7-16.7C279,1590,274.2,1594.8,267.7,1601.3z"
	/>
<path fill-rule="evenodd" clip-rule="evenodd" d="M754.3,1596.2c-2.4-0.8-2.9-0.9-2.9-1c-1.6-12.2-8.6-20.4-18.9-26.3
	c-0.7-0.4-1-3.4-0.4-4.1c1.1-1.2,3.3-2.3,4.8-2.1c6.6,0.9,20.6,18.2,20.2,25.2C757.1,1590.5,755.4,1593.2,754.3,1596.2z"/>
<path fill-rule="evenodd" clip-rule="evenodd" d="M743.7,1598.9c-4.9-5.4-10-10.6-14.6-16.2c-0.8-1-0.4-4.1,0.6-5.2
	c1-1,4.5-1.5,5-0.8c4.6,6.1,8.9,12.5,13.2,18.8C746.5,1596.7,745.1,1597.8,743.7,1598.9z"/>
<path fill-rule="evenodd" clip-rule="evenodd" d="M163.7,812.8c4.3-16.7,8.1-31.4,12.2-47.3C183.2,773.5,174.7,805,163.7,812.8z"/>
<path fill-rule="evenodd" clip-rule="evenodd" d="M318.7,1424.9c0.2,9.3,0.3,18.7,0.5,28.2c-6.1-2.5-7.4-5.7-6.6-18.7
	c0.2-3.7,2.1-7.4,3.2-11C316.8,1423.9,317.8,1424.4,318.7,1424.9z"/>
<path fill-rule="evenodd" clip-rule="evenodd" d="M320.2,1372.1c-0.4,0.5-1.9,2.9-3.7,5.6c-10-2.8-13.7-11.1-16.6-19.5
	c-0.6-1.8,3.2-5.1,5.3-8.1C310.9,1358.5,315.3,1364.9,320.2,1372.1z"/>
<path fill-rule="evenodd" clip-rule="evenodd" d="M716.5,1414.3c0.4,9.9,0.9,18.6,0.9,27.3c0,1.5-1.4,3.3-2.7,4.2
	c-0.6,0.4-3-0.5-3.7-1.5C707.4,1439.9,710.7,1419.1,716.5,1414.3z"/>
<path fill-rule="evenodd" clip-rule="evenodd" d="M120.7,984.7c-3.9,4.5-6.3,9.3-8.6,9.3c-3.5,0.1-8.3-2.4-10.4-5.4
	c-3-4.4-4.5-10.1-5.8-15.5c-0.3-1.4,2.8-5.1,3.9-4.9c2.4,0.4,6.7,3.1,6.5,3.9C103.5,982.5,111,983.1,120.7,984.7z"/>
<path fill-rule="evenodd" clip-rule="evenodd" d="M325,1221.6c-0.8,12.6-1.5,25-2.3,37.3c-0.6,0.2-1.2,0.5-1.7,0.7
	c-1.4-6.7-3.7-13.4-3.9-20.1C316.8,1228.6,319.5,1223.7,325,1221.6z"/>
<path fill-rule="evenodd" clip-rule="evenodd" d="M879.5,812.1c-2-3.9-4.5-7.7-5.8-11.8c-2.4-7.6-4.2-15.5-5.8-23.3
	c-0.4-1.8,0.8-4,1.7-5.8c0.2-0.3,3.8,0.3,4,1c3.3,12.8,6.4,25.7,9.5,38.6C881.8,811.2,880.7,811.6,879.5,812.1z"/>
<path fill-rule="evenodd" clip-rule="evenodd" d="M720,1372.6c-2.2,8.2-6.1,10.3-11.8,2.8c-4.5-6-9.6-12.1-12-19
	c-1.2-3.6,2.8-9.2,5.2-13.5c0.5-1,4.2-1,6-0.3c1.3,0.5,2.4,2.9,2.4,4.6C710.3,1363.1,710.2,1363.1,720,1372.6z"/>
<path fill-rule="evenodd" clip-rule="evenodd" d="M922.9,907.4c0.8,0.7,4.1,2.3,5.1,4.8c2.7,6.9-3.8,19.5-10.8,21.5
	c-2.1,0.6-4.7-0.7-7.1-1.1c0.5-2.3,0.6-4.8,1.7-6.8C914.8,920.3,918.3,915,922.9,907.4z"/>
<path fill-rule="evenodd" clip-rule="evenodd" d="M716,1273c0.1-10.7,0.1-21.3,0.2-32c1.4-0.1,2.8-0.1,4.2-0.2
	c0.6,9.8,1.3,19.7,1.6,29.5c0,1.2-2.3,2.4-3.6,3.6C717.6,1273.6,716.8,1273.3,716,1273z"/>
<path fill-rule="evenodd" clip-rule="evenodd" d="M98.9,1038.3c2.1,1.3,5.6,2.2,6.2,4.1c2.6,8,3.3,16.2-3.2,26.2
	c-1.8-11-3.2-19.3-4.6-27.6C97.8,1040,98.4,1039.2,98.9,1038.3z"/>
<path fill-rule="evenodd" clip-rule="evenodd" d="M922.4,992.1c-6.3-7.5-5.7-24.3,0.2-28.3C931.5,973.4,922.2,982.6,922.4,992.1z"/>
<path fill-rule="evenodd" clip-rule="evenodd" d="M923.5,1107.8c6.6-2.9-4.8-13.3,6.7-13.5c1.7,0,5.6,6,4.9,7.8
	c-1.4,3.4-5.3,5.8-8.2,8.6C925.7,1109.8,924.6,1108.8,923.5,1107.8z"/>
<path fill-rule="evenodd" clip-rule="evenodd" d="M91.1,1141.6c1-4.6,1.4-9.4,3.3-13.6c0.7-1.5,4.7-1.5,7.2-2.2
	c0.2,2.2,0.7,4.4,0.7,6.6c-0.1,4.1-0.5,8.2-0.9,15.1c-3.6-2.1-7.1-4.2-10.6-6.4C90.8,1141.2,91.1,1141.6,91.1,1141.6z"/>
<path fill-rule="evenodd" clip-rule="evenodd" fill="#FFFFFF" d="M460.5,285.3c-4.5,7.1-8.9,13.6-17,8.4c-4-2.5-8.4-7.9-2.5-13.4
	C449.5,272.5,454.1,281.3,460.5,285.3z"/>
<path fill-rule="evenodd" clip-rule="evenodd" fill="#FFFFFF" d="M644.6,303.4c1.1-10.2,5.5-14,12.1-14.2c6.4-0.2,12.6,4.2,11,10.1
	c-1.3,4.6-7.9,9.1-13.1,10.6C651.8,310.8,647.1,305.2,644.6,303.4z"/>
</svg>
