<?xml version="1.0" encoding="utf-8"?>
<!DOCTYPE svg PUBLIC "-//W3C//DTD SVG 1.1//EN" "http://www.w3.org/Graphics/SVG/1.1/DTD/svg11.dtd">
<svg artist="zl2017" version="1.1" id="zlIcon-robot" xmlns="http://www.w3.org/2000/svg" xmlns:xlink="http://www.w3.org/1999/xlink" x="0px" y="0px"
	 width="1000px" height="1393.6px" viewBox="0 0 1000 1393.6" enable-background="new 0 0 1000 1393.6" xml:space="preserve">
<path fill-rule="evenodd" clip-rule="evenodd" d="M975.1,1121.5c-1.1-8.4-3-15.7-2.9-23.1c0.2-12.2-3.1-22.8-10.6-32.5
	c-7.6-9.8-14.2-20.3-21.5-30.2c-4.2-5.7-8.9-7.2-15.9-3.2c-4.7,2.7-11.2,2.1-16.5,4.1c-5.1,1.9-11.8,4-14,8.1
	c-10.3,18.5-19.6,37.7-13.9,60.1c2.4,9.3-3.7,14.3-11.2,15.4c-2.9,0.5-9.1-5-10-8.8c-7.4-28.5-13.8-57.3-20.8-85.9
	c-4.6-18.8,6-37.8,24.2-44.3c3.9-1.4,6.9-5.8,9.7-9.3c5.5-6.7,11-13.4,15.6-20.7c4.1-6.5,9.8-13.9,9.6-20.8
	c-0.8-37.4-3.6-74.8-4.9-112.2c-0.6-16.3,0.4-32.8,1.3-49.1c0.6-12.2-2.6-19.8-15.9-24.1c-21.1-6.9-24.9-15.5-21.3-37.6
	c0.5-2.9,1.3-5.7,1.9-8.5c4.9-22.6,3.1-26.3-18.6-35.2c-5.9-2.4-12.5-3.3-20.6-5.3c-1.5,14.4-3.6,27.2-4.1,40.1
	c-2.1,54.3-3.8,108.6-5.6,162.9c-1.3,39-3,78-3.6,116.9c-0.6,37.4,0.3,74.8-0.2,112.2c-0.1,8.9-2.9,17.9-5.3,26.6
	c-3,10.8-13.6,11.4-21.5,11.3c-17.6-0.3-26.1,9-30.2,24.2c-4.4,16.5-9.4,32.9-12.2,49.6c-2.2,13.1,2.9,18.4,16,18.5
	c21.3,0.2,42.7-0.3,64-1.3c10.3-0.5,18,3.2,23.2,11.5c8.1,13,18.7,25.6,22.3,39.8c3.9,15.5,2.5,33,0.5,49.2
	c-1.7,13.1-13,20.9-23.1,29.2c-31.6,26.3-69.3,23.6-106.4,23.5c-31.8-0.1-62-9.2-91.4-20.1c-13.9-5.2-27.8-11.5-39.7-20.1
	c-18.6-13.4-34.1-29.6-30-56.2c1.9-12.1-0.3-13.5-12.2-12c-18.4,2.2-36.7,4.6-54.9,6.9c3.1,15.7,6.1,30.5,9.1,45.3
	c2.5,12.4-0.1,23.8-6.1,34.7c-5.4,9.9-10,20.3-15.8,30c-8.5,14.2-19.2,15.8-32.9,7.5c-4.7-2.8-11.8-2.9-17.6-2.5
	c-25.3,1.5-50.7,3.7-76,5.6c-1.8,0.1-3.9,0.1-5.3-0.8c-19.1-11.5-41.1-11.6-61.9-16.5c-18-4.3-36-9.6-52.8-17.1
	c-31.5-14-48.2-60.2-34.2-91.6c7.7-17.2,21.4-26.5,40.3-27c16.7-0.5,33.4-0.1,52.8-0.1c-2.4-8-3.5-14.2-6.1-19.8
	c-6.3-13.1-13.7-25.6-19.8-38.7c-3.9-8.4-9-14.3-17.8-17.9c-21.8-8.8-42.2-19.6-56.5-39.5c-9.8-13.7-13.4-28.2-13.7-44.9
	c-0.8-43.3,7.9-85.5,12.5-128.2c6.1-56.1,4.3-112.1,0.5-168.2c-1.7-25.1-2.4-50.2-3.3-75.3c-0.3-9.1-0.1-18.1-0.1-27.3
	c-15.3,0.7-33.8,15.3-36.7,28.1c-0.4,1.7-0.2,3.6-0.1,5.4c0.5,14.4,2.1,28.8,1.2,43.1c-0.8,13.7-8.7,24.2-19.7,32.7
	c-4.8,3.7-9.3,9.2-11.4,14.8c-23.5,63.7-27.4,130.2-25.5,197.2c0.1,3.2,3.2,6.9,5.9,9.3c6.5,5.8,13.3,10.6,14.7,20.7
	c0.6,4.2,5.7,8.2,9.5,11.3c8.2,6.6,17.2,12.3,25.5,18.9c10.4,8.2,13,17.8,8.1,30.1c-2.6,6.7-6.7,12.9-9.7,19.5
	c-7.4,16.2-14.3,32.5-21.8,48.7c-3.5,7.5-7.2,15.1-12.1,21.7c-2,2.8-7.2,3.2-10.9,4.7c-1.2-3.5-3.4-7-3.5-10.5
	c-0.7-26.5-1.1-53-1.5-79.5c-0.1-8.5-3.4-15.1-12-17.4c-8.9-2.3-17,1.1-20.2,9.1c-6,14.7-10.1,30.1-14.9,45.2
	c-1.8,5.5-4.2,10.8-5.1,16.4c-1.5,9.1-2.1,18.3-2.8,27.5c-0.5,6.7,0.6,13.8-1.1,20.2c-0.8,3.1-6.2,6.1-10,6.8
	c-2.1,0.4-6.3-3.7-7.4-6.6c-12.4-31.5-25.9-62.7-35.8-95c-6-19.7,4.5-37.2,19.9-49.9c16-13.3,33.5-24.7,39.9-46.3c0.9-3.2,4-6.7,7-8
	c9.4-4.1,10.8-11.9,11.3-20.5c3.1-51.7,6.3-103.3,9.1-155c1.2-22.3,0.5-22.2-19.8-31.9c-4-1.9-7.9-5.7-9.9-9.6
	c-9.5-18.9-11.4-38.2-0.9-57.6c3.8-7,7.3-14.3,11.2-21.3c7.8-14.2,15.7-18.5,31.4-15.6c16.8,3.2,30-2.3,41.5-14
	c16.3-16.7,32.5-33.4,48.8-50c11.7-11.9,21.1-24.8,24.4-41.8c2.3-11.6,8.1-20.6,21.1-23.4c19.2-4.1,38.2-9,57.3-13.4
	c5-1.1,10.1-1.7,15-2.8c28.3-6,25.8-6.2,28.1-34.8c2.6-32.5-4.6-63.8-5.4-95.7c-0.7-30.9,2.4-61.9,5-92.7c1.1-13.5,8.3-19.7,22-19.7
	c41.9,0,83.8,0.6,125.6,1.6c11.7,0.3,16.7-2.4,16.9-14.2c1-60.9,1.2-121.7,2.9-182.6c0.5-15.7-2.2-26.6-16.1-36.1
	c-11.8-8.1-14.2-22.7-10.8-36.8c3.5-14.5,12.5-24.7,27.4-28.4c14.3-3.5,23.3,6.2,32.1,14.8c18,17.6,9.4,38.3-5.7,53.4
	c-6.3,6.3-9.6,12-9,20.6c1,13.1,1.9,26.1,2.3,39.2c0.6,16.6,0.2,33.3,1,49.9c1.7,34.9,3.7,69.8,6.2,104.7
	c0.7,9.7,8.8,13.4,17.2,13.7c14.9,0.5,29.8-0.3,44.7-0.3c12.7,0,25.4-0.2,38,0.8c10.1,0.8,17.4,6.8,22.3,15.8
	c5.6,10.3,10.9,20.6,16.9,30.6c10.3,17.5,14.5,35.9,13.7,56.4c-1.1,28.4,0.4,56.9,0.3,85.3c0,9.8-1.7,19.6-2.1,29.4
	c-0.6,11.9,5,17.7,16.7,16.3c26.4-3,52.8-6.2,79.1-10.1c7.3-1.1,12.6,0.3,15.7,6.3c8,15.5,15.6,31.2,22.8,47.1
	c1.3,2.9,0.9,7.3-0.1,10.6c-3.4,11.6,0.2,20.8,8.6,28.6c17.8,16.2,35.3,32.7,53.7,48.2c4.8,4,12.4,5,18.9,6.7
	c10.5,2.6,21.6,3.4,31.6,7.2c30.3,11.5,25.8,41.6,9.2,56.2c-12.7,11.2-16.7,22.3-19.6,39.3c-9.6,57.8,0.9,115.1-0.8,172.5
	c-0.1,1.8-0.1,4.3,0.9,5.2c12.2,10.6,24,21.9,37.2,31.1c6.9,4.8,16.6,5.1,24.7,8.4c14,5.7,18.7,15.4,17.3,30.4
	c-2.6,27.9-5.1,55.9-6.7,83.8C992,1113,986.6,1117.4,975.1,1121.5z M305.1,1209c6.6,4.9,12.9,5.6,18.9-1.1c4.9-5.5,9.2-11,3.6-19.1
	C319.7,1195.8,312.4,1202.4,305.1,1209c6.1-12.4,12.3-24.8,18.5-37.3C304,1181.8,299.6,1191.8,305.1,1209z M789.5,552
	c-6.6,8.5-13.1,17-20.9,27.1c5.1,0.5,7.2,1.3,8.6,0.7c6.4-2.7,13.3-4.9,18.4-9.3c1.5-1.2-2.6-9-4.2-13.7
	C790.9,555.2,790.2,553.7,789.5,552c-3.8-6.8-7.5-16.7-17.2-10.1c-14.8,10.1-28.4,22-37.3,38.9c11,4,18.2-0.7,25.5-6.6
	C769.9,566.6,779.8,559.4,789.5,552z M305.8,565.1c0-2.8,0-5.7,0-10.4c-23,8.5-35.2,23.9-44.3,44.5c6.6,0,11.7,0.6,16.5-0.3
	c2.3-0.4,5.3-3.7,5.6-6c2.1-13.9,9.7-22.9,22.4-28.1c-5.6,9-11.2,18.1-16.8,27.1c0.3,1,0.7,2.1,1,3.1c17.4-3.9,35.3-6.2,52-12.2
	c13.9-5,14.8-22.7,3-31.2c-4.1,3.6-8.2,7.2-12.7,11c-2.2-4.8-3.8-8.2-5.6-12.1C319.4,555.7,312.6,560.4,305.8,565.1z M801.8,654.6
	c0.2,0,0.5,0,0.7,0c0-14.6-0.3-29.2,0.1-43.7c0.4-15.5,0.2-15.8-15.6-15.5c-25.5,0.5-51.1,2.4-76.5,0.8c-17.3-1.1-32.9,0.6-49,6.8
	c-11.2,4.4-24.2,7.9-35.9,6.8c-34.2-3.4-67.6,1.5-101.4,3.8c-42.9,3-86.3,5.8-127.7-9.4c-21.6-7.9-42.8-8.1-64.5-3.5
	c-17.4,3.6-34.7,8.3-51.7,13.6c-20.6,6.3-20.5,6.8-18.2,27.8c0.2,1.8,0.3,3.6,0.3,5.5c0.8,45.6,2.5,91.1,2,136.7
	c-0.7,61.5-4.1,123.1-4.8,184.6c-0.5,47.2-6.2,94.5,2.2,141.7c2.1,11.7,7.4,19.8,18.4,23.3c6.5,2.1,13.4,3.2,20.2,3.7
	c78,5.4,155.2-12,233.1-8.3c44.5,2.1,88.7-2.4,133-7c30.8-3.2,61.8-4.5,92.7-7.5c25.8-2.5,30.4-9.4,30-35.3
	c-0.8-46.6-1-93.3-0.7-139.9c0.2-31.3,2-62.5,2.9-93.8c0.6-19.7,0.3-39.4,1.4-59C795.5,742.5,798.8,698.5,801.8,654.6z M391.9,469.3
	c0,29.2-0.2,58.3,0.1,87.5c0.2,22.5,6.9,33.6,28.7,37.1c27.5,4.4,55.7,5.4,83.6,6.5c14.1,0.6,28.3-1.4,42.4-2.5
	c18.8-1.5,37.6-3.2,56.4-4.8c11.2-0.9,22.6-1.1,33.7-2.8c18.6-2.9,28.7-13.8,31-32.6c0.8-6.9,1.1-13.8,1.2-20.7
	c0.2-42.6,1-85.3,0-127.9c-0.3-15-4.7-30-8-44.8c-0.8-3.4-4-7.7-7.1-9c-16.5-7-33.3-13-51.8-10.4c-8.3,1.1-16.7,1.9-25,2
	c-46.2,1-92.5,1.7-138.8,2.7c-9.1,0.2-18.2,1.4-27.3,1.9c-11,0.6-16.5,6.5-17.4,17.2c-0.6,7.6-1.6,15.3-1.6,22.9
	C391.8,417.5,391.9,443.4,391.9,469.3z M658,1163.4c-1-0.2-1.9-0.4-2.9-0.5c-0.3-3.9-0.7-7.8-1-11.7c-0.9-9.4-7.1-14.2-15.2-10.1
	c-3.8,1.9-6.5,7.3-8.4,11.6c-2.2,4.9-2.8,10.5-4.5,17.3c-2.6-10-3.1-23.4-6.9-24.5c-10.5-2.8-22.3-0.1-28.8,15.7
	c-1.2-14-9.8-18.7-17.3-17.2c-4.8,1-8.8,10.4-11.5,16.7c-2.4,5.5-2.7,11.9-3.9,17.9c-0.8-0.1-1.6-0.2-2.4-0.3c0-11.2,0-22.3,0-34.8
	c-10.1,1.3-19,2.4-28.4,3.5c-2.4,16.7-4.7,32.9-7,49.1c-1,0-1.9,0-2.9-0.1c-0.5-3.4-1.2-6.8-1.4-10.2c-0.6-9.8-1-19.7-1.5-29.5
	c-0.4-9.2-4.8-14.6-14.3-13.9c-8.9,0.7-15.2,4.4-14.8,15c0.4,11.1,0.1,22.2,0.1,33.3c-1,0.2-2,0.3-3,0.5c-0.8-2.9-1.9-5.7-2.4-8.6
	c-1.6-8.6-2.3-17.4-4.7-25.8c-1.1-3.9-4.6-8.9-8-10c-15.6-4.9-23.6,1.7-24,17.9c-0.1,5.4-0.9,10.9-1.4,16.3c-1.3,0-2.5,0-3.8,0.1
	c-1.2-8.4-2.3-16.8-3.7-25.2c-0.9-5.5-4.1-8.8-9.9-6.7c-5.5,2-13.7-0.9-14.6,9.4c-1.2,12.7-4.1,25.1,1.7,37.5
	c1.5,3.2,0.6,7.5,0.9,11.3c-4-3.2-6.4-6.8-7.4-10.7c-2.9-11.3-5.5-22.7-7.6-34.1c-1.3-7.1-3.7-11.2-12.1-10.3
	c-7.9,0.8-11.2,4.5-10.6,12c0.4,5.8,1.8,11.5,1.8,17.3c0,4.1-1.5,8.3-2.4,12.4c-1.1-0.2-2.2-0.4-3.3-0.6c-4.1-13.5-8.2-27-12.5-41.4
	c-5,0.9-9.4,1.6-15.1,2.6c8.3,32.9,16.2,64.7,24.5,96.3c0.6,2.2,3.5,4.9,5.7,5.4c11.7,2.5,23.5,6.4,35.2,6.1c21-0.4,42.1-2.9,63-5.5
	c48.5-6,96.8-12.6,145.2-19.1c29.2-3.9,58.5-8,87.6-12.5c3-0.5,6.9-3.9,7.9-6.7c5.9-18,11.2-36.1,16.4-54.3
	c2.4-8.6,4.1-17.3,6.1-26.2c-10.6-2.3-15.6,2.1-18.6,9.6c-6.3,15.7-12.4,31.5-19.8,50.2c0-7-0.6-10.9,0.1-14.6
	c2.3-11.4,5.6-22.6,7.6-34.1c0.6-3.2-1.7-7-2.7-10.5c-3,2.1-7.3,3.5-8.7,6.4c-3.5,6.8-5.6,14.3-8.3,21.6c-1.9-6.4-0.6-12.3-0.9-18.2
	c-0.3-4.3-1.9-11.6-4.3-12.3c-6.5-1.7-12.9,0.6-15.1,8.7C662,1151.3,659.9,1157.3,658,1163.4z M591.6,1306.1
	c4.7,4.7,8.3,10.8,13.7,13.4c38.5,18.9,77.2,37.8,121.7,37.3c17.7-0.2,29.4-6.9,35.5-23.3c2.8-7.4,3.6-15.5,4.4-23.5
	c3-27.7-20.3-58.9-47.5-59.7c-20.8-0.7-41.8,3.7-62.7,5.8c-4.6,0.5-9.2,1.1-13.8,1.3c-14.4,0.6-28.9,0.2-43.1,1.8
	c-4.8,0.5-9.1,5.9-12.2,8.1c8.9,5,19.8,7.3,22.2,13.2C615.6,1294.1,600.1,1297.4,591.6,1306.1z M388.1,1289.8
	c-1.1-1.3-1.5-2.1-2.1-2.3c-43.3-16-88.4-24.3-133.8-30.8c-10.1-1.4-24.7,7.1-28.3,15.4c-9,20.4-2.6,49.9,16,62.3
	c13.4,9,28.4,17.1,43.9,21.1c27.4,7.2,55.7,10.8,83.6,16.3c25.4,5,45.8-7.2,45.4-38.3c0-3.2-1.6-7.7-4-9.1c-1.8-1.1-6.5,1.1-9,2.9
	c-9.2,6.6-17.7,14-27,20.4c-7.9,5.4-16.8,6-24.4-0.3c-7.6-6.2-4.7-14-2.1-22c6.5-19.9,17.3-34.2,40.3-34.8
	C386.9,1290.6,387.2,1290.3,388.1,1289.8z M113.1,777.4c20,0.5,32.4-13.1,33.2-36.4c0.7-20.8-16.3-37.4-39-38.3
	c-17.6-0.7-32.9,21.3-33.9,48.5C72.9,764.8,91.2,776.8,113.1,777.4z M39.5,1156c5.1-16.2,10.1-31.3,14.6-46.5
	c3-10.1,6.1-20.3,7.9-30.6c1.7-9.4-2.7-17.4-10.8-22.1c-8.4-4.9-14.6,2.1-18.2,7.4c-5.1,7.5-9.2,16.5-10.8,25.4
	C17.8,1113.4,25.8,1134.6,39.5,1156z M897.6,737.3c16.8,0.3,35.8-10.8,41.1-23.9c3.5-8.5,2.1-16-5.7-21
	c-10.3-6.6-21.4-12.1-33.7-5.6c-17.3,9.1-21.5,17.4-19.2,35C881.5,732.2,887.1,737.1,897.6,737.3z M887.7,982.1
	c0.3,18.7,14.4,37.3,28.1,37.2c7.4,0,25.3-18.8,25.1-26.4c-0.3-8.2-15.9-25.1-23-24.8C894.8,969.2,887.6,972.5,887.7,982.1z
	 M239.7,1021.3c-17.3,8.9-28.4,25.5-25.4,38.3c6-4.1,12-8.2,17.9-12.2c0.8,0.9,1.7,1.9,2.6,2.8c-6,7-12.6,13.5-17.8,21
	c-3.4,5-7.1,11.7-6.6,17.3c0.9,11.8,6.4,22.1,16.4,29.2c17.6-11.8,19.9-19.7,8.7-36.8c-4.4,5.8-8.5,11.1-12.6,16.5
	c-1.2-0.9-2.4-1.8-3.6-2.6c2.6-4.6,4.4-10,7.9-13.6C239.7,1068.4,246.6,1037.4,239.7,1021.3z M130.8,1126.6c1.4,0.1,2.7,0.3,4.1,0.4
	c6-11.1,12.5-22,17.6-33.5c2.1-4.6,3.6-12.3,1.2-15.5c-8.4-10.9-17.2-22.4-34.1-24.7C123.4,1078.6,127.1,1102.6,130.8,1126.6z
	 M757.6,546.3c-23.3-7.2-31.9,13.2-47.6,17.5c3.6-6.7,6.8-12.5,10.2-18.9c-10.7-0.1-34.3,22.9-37,39.2c7.8-4.8,15.6-9.7,23.9-14.8
	c-0.6,4.1-1.2,8.1-1.7,12.1c6.9,5,12.6,4,18-1.4c4.4-4.4,9-8.5,13.4-12.9C743,560.9,749.3,554.6,757.6,546.3z M76.2,1016.1
	c-14.1,15.7-15.2,21.3-7.2,36.3c4.1,7.5,10.7,11.5,19,9.3c7.8-2.1,16.9-3.7,18.9-13.9c1.7-8.6-0.3-15.5-9.4-19.6
	C90.3,1024.9,83.6,1020.4,76.2,1016.1z M244.8,844.5c-15.2,9.6-19.9,19.5-17.6,33c3.6-1.2,7-2.3,12.2-4.1
	c-3.9,13.6-17.1,22.2-12,37.2c4.2,0,8.5,0,14.2,0c-9.1,16.2-23,28.7-23.2,48.8c13.2-10.4,25-21.2,26-36.7
	C246,897.5,244.8,872.2,244.8,844.5z M943.2,1017.3c10.5,12.6,20.6,24.6,30.7,36.7c1.5-0.3,3-0.7,4.5-1c1.7-13.5,3.6-26.9,4.9-40.4
	c0.2-1.8-1.9-4.6-3.7-5.8C961.4,994.6,952.6,997.2,943.2,1017.3z M861,1060.8c1.9,0.2,3.7,0.5,5.6,0.7c5.6-11.7,11.2-23.3,16.8-35
	c3.1-6.4-1.2-23.8-7.2-27.4c-2-1.2-6.6-1.3-7.7,0.1c-4.1,4.8-10,10.3-10.2,15.7C857.8,1030.1,859.9,1045.5,861,1060.8z M360,513.8
	c6-9.6,14.5-17.3,15.6-26c2.3-18.4,0.7-37.3,0.7-57.9c-10.5,13.7-23.2,24.6-18.5,43.9c4.1-0.4,7.6-0.8,12.7-1.3
	c-4.7,7.2-9.1,12.9-12.3,19.2C354.9,497.9,352.2,504.9,360,513.8z M226.9,844c21.5-16.2,30.5-51.4,16.5-70.6
	c-5.1,6.5-9.9,12.7-16.1,20.6c6.4-0.7,9.5-1,13.6-1.5C233.2,809.9,213.2,822.6,226.9,844z M516.8,25.4c-15.9,0.4-22.2,4.6-21.6,14.5
	c0.6,9.9,9.7,18.6,19.4,18.5c7.9-0.1,20.5-13.2,20.4-21.2C535,29.5,528.3,25.1,516.8,25.4z M447,1358.8c13-1.8,22.7-2.2,31.6-4.9
	c3.9-1.2,8.3-6.8,9.1-11c1.3-7.5-5.7-6.1-10-5.7c-10.1,0.9-20.4,1.6-30.1,4.2c-5.8,1.6-10.8,6.5-16.1,9.9
	C437.5,1354.2,443.5,1357.1,447,1358.8z M786.7,1301.4c0.3,1.1,0.6,2.1,0.8,3.2c2.2,0.7,4.5,2.1,6.7,2c16.2-1.1,32.4-2.3,48.5-4
	c2.5-0.3,4.8-3.3,7.1-5c-2.6-2-5.1-5.6-7.8-5.7c-11.5-0.5-23.3-1-34.6,0.6C800.3,1293.4,793.6,1298.3,786.7,1301.4z M240.1,955.9
	c-13.2,6.1-28.2,27.6-26.9,39.2c0.4,3.6,3,6.9,5,11.3c6.3-10.2,10.9-17.9,15.7-25.4C238.7,973.3,246.6,966.5,240.1,955.9z
	 M842.1,1276.9c0.1-1.6,0.2-3.3,0.4-4.9c-13.5-10.1-29-1.4-43.4-1.9c-6.3-0.2-14,0.6-15.7,13C803.8,1281,823,1279,842.1,1276.9z
	 M492.6,1325.1c-3.3-10-9.3-13.9-17.2-12c-12.9,3-26.9,4.1-36.9,13.8c0.5,1.6,1,3.2,1.4,4.8C457.3,1329.6,474.7,1327.4,492.6,1325.1
	z M785.8,1326.1c17.2,7.3,56.9,3.3,60.2-5.5C830,1313.7,795,1316.6,785.8,1326.1z M832.9,1254.5c-9.5-10-19.3-12.4-31.1-7.4
	c-7.1,3-15.3,3.6-23.1,5.2c-2.9,0.6-5.9,0.7-8.9,1c-0.1,1.5-0.3,3.1-0.4,4.6c4.4,0.8,8.9,2.7,13.3,2.3c11.1-0.8,22.1-2.7,33.2-4
	C821.5,1255.5,827.2,1255,832.9,1254.5z M487.7,1293.2c-19.1,1.3-37.6-0.6-54.4,12.2C449.2,1312,480.2,1305.2,487.7,1293.2z
	 M246.7,718.8c-24.3,15.9-33.1,31-23.9,41.1C230.1,746.3,250.1,740.9,246.7,718.8z M477.7,1365.6c-20.5,1-39.8-1.1-57.8,10.2
	C436.2,1381.8,468.8,1376.4,477.7,1365.6z M214.6,1031.7c9.1-9.7,17.1-18.1,25-26.7c4.5-4.8,4.4-9.4-0.3-13.9
	C224.1,998.2,212.2,1016.9,214.6,1031.7z M362.8,1333.3c10.8,3.9,24.5-0.1,27.1-9.6c1.2-4.2-3.1-9.9-5.1-15.4
	C366.4,1319.5,364.2,1322.2,362.8,1333.3z M477.1,1276.4c-15.5-6.2-48.1-1.3-53.2,8.1C442.4,1286.4,459.6,1285.5,477.1,1276.4z
	 M433.8,332.3c17.6,5.8,24.6,1.5,28.5-16.6C444.3,314.1,440.1,316.5,433.8,332.3z M777.7,1346.3c10.5,10.5,34.1,8.4,38.4-2.8
	C804.3,1338.1,799.7,1338.4,777.7,1346.3z M375.1,368.6c-19.4,16.9-23.1,24.7-15.5,30.9C372.4,393.3,383,385.9,375.1,368.6z
	 M609.6,313c-12.2-2.6-19.3,1-24.8,7.6c-2.1,2.5-2.3,6.6-3.3,9.9c4.1,0.4,9.6,2.6,11.9,0.8C599.1,326.7,603.4,320.2,609.6,313z
	 M358.5,433c19.2-14.6,21.6-19.5,17-32.6C363,408.3,358.2,417,358.5,433z M378.6,341.4c-21.4,7.1-25.9,13.6-20,28.8
	C365.3,360.5,378.8,356.6,378.6,341.4z M327.7,1238.3c1.4,0.3,2.8,0.6,4.1,0.9c2.1-6.6,4.8-13,6-19.7c0.4-2.2-3.1-7.1-4.7-7.1
	c-2.9,0-6.7,2.3-8.5,4.8C318.8,1225.2,324,1231.8,327.7,1238.3z M372.4,507.7c-5.1,5.8-10.1,11.6-15.6,17.8
	c3.6,4.1,6.5,7.6,9.4,10.9C377,529.7,379.2,521.1,372.4,507.7z M254.2,593.8c8.4-10.5,16.8-21,26-32.4
	C267.1,560.5,252,578.5,254.2,593.8z M434.4,316.7c-15-5.7-18.4,5.6-24.6,12.3c-1.3,1.4-0.8,4.3-1.1,6.6c2.6,0.1,6.2,1.3,7.6,0
	C422.6,329.6,428.4,323.1,434.4,316.7z M244.9,696.2c-10.7,8.9-20.8,18.2-25,31.8C230.2,718.8,244.8,713.1,244.9,696.2z
	 M312.9,1162.3c-10.6-4.4-15.8,0.2-18.3,6.3c-1.8,4.5-0.2,10.4-0.1,15.7c1.6,0.2,3.1,0.5,4.7,0.7
	C303.5,1177.8,307.8,1170.7,312.9,1162.3z M633.1,318.6c-12-3.7-18,2.5-23.3,11C624.6,337.8,628.2,336.2,633.1,318.6z M245.1,751.8
	c-17.2,9.6-23.3,17.6-21.6,28.6C236.7,772.2,245.8,760.3,245.1,751.8z M476,320.1c-3.3,4.7-6.6,9.4-9.9,14.2c2.2,1.1,5,3.7,6.7,3.2
	C480.1,335,483.1,330.1,476,320.1z M245.3,678.3c-13.3-0.2-17.6,4-16.7,19.1C233.9,691.3,239.2,685.2,245.3,678.3z M353.2,324.7
	c0,8.3,0,12.9,0,17.4c0.8,0.6,1.7,1.1,2.5,1.7c3.2-4.2,6.4-8.4,9.6-12.6C361.9,329.4,358.5,327.6,353.2,324.7z M407.3,316.4
	c-11.6-4.1-14.9-1-17,16C397,326.2,401.7,321.7,407.3,316.4z M568.2,320.6c-1.1-1.7-2.2-3.3-3.3-5c-4.2,2.4-8.5,4.8-12.5,7.5
	c-0.2,0.1,2.1,3.8,3.3,5.8C559.8,326.2,564,323.4,568.2,320.6z"/>
<path fill-rule="evenodd" clip-rule="evenodd" fill="#FFFFFF" d="M801.8,654.6c-3,43.9-6.3,87.9-8.9,131.9
	c-1.2,19.6-0.9,39.3-1.4,59c-0.9,31.3-2.6,62.5-2.9,93.8c-0.4,46.6-0.1,93.3,0.7,139.9c0.5,25.9-4.1,32.8-30,35.3
	c-30.8,3-61.8,4.3-92.7,7.5c-44.2,4.6-88.5,9.1-133,7c-78-3.6-155.1,13.7-233.1,8.3c-6.8-0.5-13.7-1.6-20.2-3.7
	c-11.1-3.6-16.3-11.6-18.4-23.3c-8.4-47.2-2.7-94.5-2.2-141.7c0.6-61.5,4-123.1,4.8-184.6c0.5-45.5-1.2-91.1-2-136.7
	c0-1.8-0.1-3.6-0.3-5.5c-2.3-21-2.4-21.5,18.2-27.8c17-5.2,34.3-9.9,51.7-13.6c21.6-4.5,42.9-4.4,64.5,3.5
	c41.4,15.2,84.8,12.4,127.7,9.4c33.8-2.3,67.3-7.3,101.4-3.8c11.7,1.2,24.7-2.4,35.9-6.8c16.1-6.3,31.7-7.9,49-6.8
	c25.4,1.6,51-0.2,76.5-0.8c15.8-0.3,16,0,15.6,15.5c-0.4,14.6-0.1,29.2-0.1,43.7C802.2,654.6,802,654.6,801.8,654.6z M659.7,739.1
	c-2.8-27.4-5.4-58.2-9.2-88.9c-2-15.8-14.4-24.9-30-23.9c-11.6,0.7-23.3,1.3-34.8,3.2c-31.1,5.1-62,7.3-93.5,3.2
	c-27.5-3.7-52.3,7.1-75.7,20.2c-4.4,2.4-9.1,7.6-10,12.2c-4,19.5-8.5,39.2-9.3,58.9c-0.9,21.3,2.2,42.8,3.3,64.3
	c0.5,9.6,4,18,13.2,20.8c20,6.3,40.3,14.3,60.9,15.8c32.1,2.4,64.7,1.3,96.9-0.9c23-1.6,46-6.3,68.4-12.1
	c15.6-4.1,20.2-14,19.9-29.9C659.5,768.9,659.7,755.8,659.7,739.1z M504.8,1022.3c0.1-0.8,0.2-1.5,0.3-2.3c11.7,0,23.3-0.1,35,0
	c6.9,0.1,12-2.8,12-9.8c0-12.1,1.4-25.2-2.6-36.1c-5.5-14.8-15.5-27.9-23.8-41.6c-1-1.7-3-3.5-4.8-4c-17.4-5-34.7-10.1-52.3-14.3
	c-4.1-1-9.5-0.1-13.4,1.7c-34.1,15.9-42.6,46.2-44.8,80.1c-0.7,10.7,5.1,15.7,14.4,16.9C451.3,1016.4,478,1019.2,504.8,1022.3z
	 M559.7,845.8c-6.4,2-12.6,3.1-18,5.8c-10.7,5.2-15.9,16.7-12.8,26c4,12.2,12.2,17.1,25.7,15.7c2.8-0.3,5.7,0.6,8.6,0.7
	c9.7,0.3,18-1.7,21.7-12.3c5.2-15.1,3.9-23-6.9-29.3C572.4,849.3,565.8,848,559.7,845.8z M653.6,866.5c0-2.5,0.1-5.1,0-7.6
	c-0.5-16.8-8.6-23-24.8-18.5c-4.4,1.2-8.8,3.5-12.6,6.2c-9.8,7.1-14.8,17.6-13.7,29.2c1.1,11.7,12.3,11.4,20.9,13.6
	C646.5,895.2,653.6,889.8,653.6,866.5z"/>
<path fill-rule="evenodd" clip-rule="evenodd" fill="#FFFFFF" d="M391.9,469.3c0-25.9-0.1-51.8,0.1-77.7c0.1-7.6,1-15.3,1.6-22.9
	c0.8-10.7,6.4-16.6,17.4-17.2c9.1-0.5,18.2-1.8,27.3-1.9c46.2-1,92.5-1.7,138.8-2.7c8.4-0.2,16.8-0.9,25-2
	c18.5-2.6,35.3,3.4,51.8,10.4c3.2,1.3,6.4,5.6,7.1,9c3.3,14.8,7.6,29.8,8,44.8c1,42.6,0.2,85.3,0,127.9c0,6.9-0.3,13.9-1.2,20.7
	c-2.3,18.8-12.4,29.7-31,32.6c-11.1,1.7-22.4,1.9-33.7,2.8c-18.8,1.6-37.6,3.3-56.4,4.8c-14.1,1.1-28.3,3.1-42.4,2.5
	c-27.9-1.2-56.1-2.2-83.6-6.5c-21.8-3.5-28.5-14.6-28.7-37.1C391.7,527.7,391.9,498.5,391.9,469.3z M504.5,459.3
	c-0.2-1.5,0-4.3-0.9-6.5c-6.4-14.6-12.9-29.2-19.9-43.5c-1.1-2.3-5.2-3.7-8.1-4.4c-22-5.3-37.1,0.9-49.7,21.3
	c-2.1,3.5-2.2,9.7-0.7,13.6c3.3,8.8,9.8,16.5,12.2,25.4c3.4,12.9,12.3,19.2,23.1,24.1C484.5,500.2,504.6,486.8,504.5,459.3z
	 M543.5,504.3c-16.3,3.3-33.2,4.8-48.8,10.3c-24.7,8.6-24.3,9.7-25.2,35.5c-0.6,16.7,2.4,20.7,18.9,20.6c25.5-0.1,50.9-1.4,76.4-2.1
	c18.7-0.5,23.3-3.2,21.7-23C583.6,508.8,581.2,505.9,543.5,504.3z M622.5,433c0.4-0.1,0.8-0.2,1.2-0.2c0-5.1,0.6-10.3-0.2-15.3
	c-0.5-3-2.7-6.8-5.3-8.1c-19.2-10.1-41.6-4.7-54.7,12.9c-6.7,9-9.8,19.3-5,29.8c5.5,12.2,12.2,23.8,18.7,35.6
	c1.1,2.1,3.4,4.3,5.6,4.9c8.7,2.7,17.4,7.8,26.5-0.3c10.2-9.2,20.8-17.7,17.7-33.7C625.4,450.1,624,441.6,622.5,433z"/>
<path fill-rule="evenodd" clip-rule="evenodd" fill="#FFFFFF" d="M658,1163.4c1.9-6.1,4.1-12.2,5.7-18.4c2.2-8.1,8.6-10.4,15.1-8.7
	c2.4,0.6,4,7.9,4.3,12.3c0.3,5.9-1,11.8,0.9,18.2c2.7-7.2,4.8-14.7,8.3-21.6c1.5-2.9,5.7-4.3,8.7-6.4c1,3.5,3.3,7.3,2.7,10.5
	c-2,11.4-5.3,22.7-7.6,34.1c-0.8,3.7-0.1,7.7-0.1,14.6c7.4-18.7,13.5-34.5,19.8-50.2c3-7.5,8-11.9,18.6-9.6
	c-2.1,8.9-3.7,17.7-6.1,26.2c-5.2,18.2-10.5,36.4-16.4,54.3c-0.9,2.9-4.9,6.3-7.9,6.7c-29.2,4.5-58.4,8.5-87.6,12.5
	c-48.4,6.5-96.8,13.1-145.2,19.1c-20.9,2.6-42,5.1-63,5.5c-11.7,0.2-23.6-3.6-35.2-6.1c-2.2-0.5-5.1-3.2-5.7-5.4
	c-8.3-31.6-16.2-63.4-24.5-96.3c5.7-1,10.1-1.8,15.1-2.6c4.3,14.4,8.4,27.9,12.5,41.4c1.1,0.2,2.2,0.4,3.3,0.6
	c0.9-4.1,2.4-8.3,2.4-12.4c0-5.8-1.3-11.5-1.8-17.3c-0.6-7.5,2.7-11.2,10.6-12c8.4-0.9,10.7,3.2,12.1,10.3
	c2.1,11.5,4.7,22.8,7.6,34.1c1,4,3.4,7.6,7.4,10.7c-0.2-3.8,0.6-8.1-0.9-11.3c-5.9-12.4-2.9-24.8-1.7-37.5c1-10.3,9.1-7.5,14.6-9.4
	c5.9-2.1,9,1.2,9.9,6.7c1.4,8.4,2.5,16.8,3.7,25.2c1.3,0,2.5,0,3.8-0.1c0.5-5.4,1.3-10.9,1.4-16.3c0.4-16.3,8.5-22.8,24-17.9
	c3.5,1.1,6.9,6.1,8,10c2.4,8.4,3.1,17.2,4.7,25.8c0.5,2.9,1.6,5.7,2.4,8.6c1-0.2,2-0.3,3-0.5c0-11.1,0.3-22.2-0.1-33.3
	c-0.4-10.6,5.9-14.3,14.8-15c9.6-0.7,13.9,4.7,14.3,13.9c0.4,9.8,0.9,19.7,1.5,29.5c0.2,3.4,0.9,6.8,1.4,10.2c1,0,1.9,0,2.9,0.1
	c2.3-16.2,4.6-32.3,7-49.1c9.4-1.2,18.3-2.3,28.4-3.5c0,12.4,0,23.6,0,34.8c0.8,0.1,1.6,0.2,2.4,0.3c1.2-6,1.5-12.5,3.9-17.9
	c2.8-6.3,6.7-15.7,11.5-16.7c7.5-1.5,16.1,3.1,17.3,17.2c6.6-15.8,18.3-18.5,28.8-15.7c3.8,1,4.3,14.4,6.9,24.5
	c1.7-6.8,2.4-12.3,4.5-17.3c1.9-4.4,4.6-9.7,8.4-11.6c8.2-4.1,14.4,0.6,15.2,10.1c0.4,3.9,0.7,7.8,1,11.7
	C656.1,1163.1,657,1163.3,658,1163.4z"/>
<path fill-rule="evenodd" clip-rule="evenodd" fill="#FFFFFF" d="M591.6,1306.1c8.5-8.7,23.9-12,18.2-25.6
	c-2.5-5.9-13.3-8.2-22.2-13.2c3.1-2.2,7.4-7.6,12.2-8.1c14.3-1.6,28.7-1.3,43.1-1.8c4.6-0.2,9.2-0.8,13.8-1.3
	c20.9-2.1,41.9-6.4,62.7-5.8c27.2,0.9,50.5,32,47.5,59.7c-0.8,7.9-1.7,16.1-4.4,23.5c-6.1,16.4-17.8,23.1-35.5,23.3
	c-44.6,0.5-83.2-18.4-121.7-37.3C600,1316.9,596.3,1310.9,591.6,1306.1z M716.7,1276c-16.9,0.3-31.7,14.6-33.2,32
	c-0.9,11.1,15.4,31.4,27.3,33.7c8.7,1.7,15.3-1.7,18.8-9.6c3.7-8.3,7.1-16.8,9.2-25.6C742.2,1292,730,1275.7,716.7,1276z
	 M659.5,1272.3c-17.5,0.4-28.1,17.8-20.2,33.3c3,5.9,7.6,8.9,14.2,5.6c10-4.9,16.8-12.6,19.2-23.6
	C674.6,1278.5,668.8,1272.1,659.5,1272.3z"/>
<path fill-rule="evenodd" clip-rule="evenodd" fill="#FFFFFF" d="M388.1,1289.8c-0.9,0.5-1.2,0.8-1.5,0.8
	c-23,0.6-33.8,14.9-40.3,34.8c-2.6,8-5.5,15.8,2.1,22c7.6,6.2,16.5,5.6,24.4,0.3c9.3-6.4,17.9-13.8,27-20.4c2.6-1.8,7.2-4,9-2.9
	c2.4,1.4,3.9,5.9,4,9.1c0.4,31.1-20.1,43.3-45.4,38.3c-27.9-5.5-56.2-9.1-83.6-16.3c-15.4-4.1-30.4-12.2-43.9-21.1
	c-18.6-12.4-25-41.9-16-62.3c3.6-8.2,18.2-16.8,28.3-15.4c45.5,6.5,90.5,14.8,133.8,30.8C386.6,1287.7,386.9,1288.5,388.1,1289.8z
	 M331.1,1309.9c0.1-13.5-9.7-25.2-21.6-25.8c-13.6-0.6-33.3,17-33.3,29.7c0,13,13.9,24.6,30.1,25.1
	C317,1339.3,331,1323,331.1,1309.9z M228.4,1291.9c0.3,8.7,12.7,21.9,20.2,21.5c8.3-0.5,21.5-15.7,21.6-24.9
	c0-6.7-13.2-15.7-22.4-15.3C237.8,1273.7,228.1,1283.1,228.4,1291.9z"/>
<path fill-rule="evenodd" clip-rule="evenodd" fill="#FFFFFF" d="M113.1,777.4c-22-0.5-40.3-12.6-39.8-26.2
	c1-27.2,16.4-49.2,33.9-48.5c22.7,0.9,39.7,17.5,39,38.3C145.6,764.2,133.2,777.9,113.1,777.4z"/>
<path fill-rule="evenodd" clip-rule="evenodd" fill="#FFFFFF" d="M39.5,1156c-13.7-21.3-21.8-42.6-17.4-66.4
	c1.6-8.9,5.7-17.9,10.8-25.4c3.6-5.3,9.8-12.3,18.2-7.4c8.1,4.7,12.5,12.7,10.8,22.1c-1.8,10.3-4.9,20.5-7.9,30.6
	C49.6,1124.7,44.6,1139.8,39.5,1156z"/>
<path fill-rule="evenodd" clip-rule="evenodd" fill="#FFFFFF" d="M897.6,737.3c-10.6-0.2-16.1-5.1-17.4-15.5
	c-2.3-17.6,1.9-25.9,19.2-35c12.3-6.5,23.4-1,33.7,5.6c7.8,5,9.2,12.5,5.7,21C933.4,726.5,914.5,737.6,897.6,737.3z"/>
<path fill-rule="evenodd" clip-rule="evenodd" fill="#FFFFFF" d="M887.7,982.1c-0.1-9.6,7-12.9,30.2-13.9c7-0.3,22.7,16.6,23,24.8
	c0.2,7.5-17.6,26.3-25.1,26.4C902.1,1019.4,888,1000.8,887.7,982.1z"/>
<path fill-rule="evenodd" clip-rule="evenodd" fill="#FFFFFF" d="M239.7,1021.3c6.9,16.1,0,47.1-12.5,59.8c-3.6,3.6-5.3,9-7.9,13.6
	c1.2,0.9,2.4,1.8,3.6,2.6c4.1-5.3,8.2-10.7,12.6-16.5c11.3,17.1,9,25-8.7,36.8c-10.1-7.1-15.6-17.5-16.4-29.2
	c-0.4-5.6,3.2-12.3,6.6-17.3c5.1-7.5,11.8-14,17.8-21c-0.8-0.9-1.7-1.9-2.6-2.8c-5.9,4.1-11.9,8.1-17.9,12.2
	C211.3,1046.8,222.4,1030.2,239.7,1021.3z"/>
<path fill-rule="evenodd" clip-rule="evenodd" fill="#FFFFFF" d="M305.7,565.1c6.9-4.7,13.7-9.4,21.4-14.6c1.8,3.8,3.3,7.2,5.6,12.1
	c4.4-3.8,8.6-7.5,12.7-11c11.8,8.5,10.9,26.3-3,31.2c-16.7,6-34.6,8.3-52,12.2c-0.3-1-0.7-2.1-1-3.1c5.6-9,11.2-18.1,16.8-27.1
	L305.7,565.1z"/>
<path fill-rule="evenodd" clip-rule="evenodd" fill="#FFFFFF" d="M130.8,1126.6c-3.7-24-7.4-48-11.3-73.3
	c16.9,2.4,25.8,13.8,34.1,24.7c2.4,3.1,0.9,10.9-1.2,15.5c-5.2,11.5-11.6,22.4-17.6,33.5C133.5,1126.9,132.1,1126.8,130.8,1126.6z"
	/>
<path fill-rule="evenodd" clip-rule="evenodd" fill="#FFFFFF" d="M757.6,546.3c-8.4,8.4-14.6,14.7-20.9,20.9
	c-4.4,4.3-9,8.5-13.4,12.9c-5.4,5.4-11.1,6.4-18,1.4c0.6-3.9,1.1-8,1.7-12.1c-8.2,5.1-16,9.9-23.9,14.8c2.8-16.3,26.3-39.3,37-39.2
	c-3.5,6.4-6.6,12.2-10.2,18.9C725.8,559.5,734.4,539.1,757.6,546.3z"/>
<path fill-rule="evenodd" clip-rule="evenodd" fill="#FFFFFF" d="M76.2,1016.1c7.4,4.3,14.1,8.8,21.4,12.1c9.1,4.1,11.1,11,9.4,19.6
	c-2,10.2-11.1,11.9-18.9,13.9c-8.4,2.2-15-1.7-19-9.3C61,1037.5,62.1,1031.8,76.2,1016.1z"/>
<path fill-rule="evenodd" clip-rule="evenodd" fill="#FFFFFF" d="M244.8,844.5c0,27.7,1.2,53.1-0.4,78.3c-1,15.6-12.7,26.3-26,36.7
	c0.3-20.2,14.1-32.6,23.2-48.8c-5.7,0-10,0-14.2,0c-5-15,8.2-23.6,12-37.2c-5.2,1.7-8.7,2.9-12.2,4.1
	C224.8,864,229.6,854.1,244.8,844.5z"/>
<path fill-rule="evenodd" clip-rule="evenodd" fill="#FFFFFF" d="M943.2,1017.3c9.4-20.1,18.3-22.6,36.5-10.6c1.8,1.2,3.9,4,3.7,5.8
	c-1.3,13.5-3.2,27-4.9,40.4c-1.5,0.3-3,0.7-4.5,1C963.8,1041.9,953.7,1029.8,943.2,1017.3z"/>
<path fill-rule="evenodd" clip-rule="evenodd" fill="#FFFFFF" d="M861,1060.8c-1.1-15.3-3.2-30.7-2.8-45.9
	c0.1-5.4,6.1-10.9,10.2-15.7c1.2-1.3,5.7-1.2,7.7-0.1c6,3.6,10.3,20.9,7.2,27.4c-5.6,11.7-11.2,23.3-16.8,35
	C864.8,1061.2,862.9,1061,861,1060.8z"/>
<path fill-rule="evenodd" clip-rule="evenodd" fill="#FFFFFF" d="M360,513.8c-7.9-8.9-5.1-15.9-1.9-22.2c3.2-6.3,7.7-12,12.3-19.2
	c-5.1,0.5-8.6,0.9-12.7,1.3c-4.7-19.3,8-30.2,18.5-43.9c0,20.6,1.6,39.5-0.7,57.9C374.5,496.5,366,504.3,360,513.8z"/>
<path fill-rule="evenodd" clip-rule="evenodd" fill="#FFFFFF" d="M226.9,844c-13.7-21.4,6.3-34.1,14-51.4c-4,0.4-7.2,0.8-13.6,1.5
	c6.2-8,11-14.1,16.1-20.6C257.4,792.6,248.4,827.8,226.9,844z"/>
<path fill-rule="evenodd" clip-rule="evenodd" fill="#FFFFFF" d="M516.8,25.4c11.5-0.3,18.2,4,18.2,11.8
	c0.1,8.1-12.5,21.2-20.4,21.2c-9.6,0.1-18.8-8.7-19.4-18.5C494.7,30.1,500.9,25.8,516.8,25.4z"/>
<path fill-rule="evenodd" clip-rule="evenodd" fill="#FFFFFF" d="M789.6,552c-9.7,7.4-19.7,14.6-29.1,22.3
	c-7.3,5.9-14.5,10.6-25.5,6.6c8.9-16.9,22.5-28.8,37.3-38.9C782.1,535.3,785.7,545.2,789.6,552L789.6,552z"/>
<path fill-rule="evenodd" clip-rule="evenodd" fill="#FFFFFF" d="M447,1358.8c-3.4-1.6-9.5-4.5-15.5-7.4c5.3-3.4,10.3-8.4,16.1-9.9
	c9.7-2.6,20-3.3,30.1-4.2c4.2-0.4,11.3-1.8,10,5.7c-0.8,4.2-5.2,9.8-9.1,11C469.6,1356.5,460,1356.9,447,1358.8z"/>
<path fill-rule="evenodd" clip-rule="evenodd" fill="#FFFFFF" d="M786.7,1301.4c6.9-3.1,13.5-8,20.7-9c11.3-1.6,23.1-1.1,34.6-0.6
	c2.7,0.1,5.2,3.7,7.8,5.7c-2.4,1.7-4.6,4.8-7.1,5c-16.1,1.7-32.3,2.9-48.5,4c-2.2,0.1-4.4-1.3-6.7-2
	C787.3,1303.5,787,1302.5,786.7,1301.4z"/>
<path fill-rule="evenodd" clip-rule="evenodd" fill="#FFFFFF" d="M306,564.8c-12.7,5.2-20.3,14.3-22.4,28.1c-0.3,2.3-3.4,5.5-5.6,6
	c-4.8,0.9-9.9,0.3-16.5,0.3c9.1-20.6,21.3-35.9,44.3-44.5c0,4.7,0,7.5,0,10.4C305.7,565.1,306,564.8,306,564.8z"/>
<path fill-rule="evenodd" clip-rule="evenodd" fill="#FFFFFF" d="M240.1,955.9c6.5,10.5-1.3,17.4-6.2,25.1
	c-4.8,7.5-9.4,15.2-15.7,25.4c-2-4.3-4.6-7.7-5-11.3C211.9,983.5,226.9,962,240.1,955.9z"/>
<path fill-rule="evenodd" clip-rule="evenodd" fill="#FFFFFF" d="M842.1,1276.9c-19.2,2-38.3,4.1-58.7,6.2
	c1.6-12.4,9.4-13.3,15.7-13c14.4,0.5,29.9-8.2,43.4,1.9C842.4,1273.7,842.3,1275.3,842.1,1276.9z"/>
<path fill-rule="evenodd" clip-rule="evenodd" fill="#FFFFFF" d="M492.6,1325.1c-17.9,2.3-35.3,4.5-52.7,6.7c-0.5-1.6-1-3.2-1.4-4.8
	c10-9.7,24-10.8,36.9-13.8C483.4,1311.2,489.4,1315.1,492.6,1325.1z"/>
<path fill-rule="evenodd" clip-rule="evenodd" fill="#FFFFFF" d="M785.8,1326.1c9.1-9.5,44.2-12.4,60.2-5.5
	C842.7,1329.5,803,1333.4,785.8,1326.1z"/>
<path fill-rule="evenodd" clip-rule="evenodd" fill="#FFFFFF" d="M832.9,1254.5c-5.7,0.6-11.3,1-17,1.7c-11.1,1.3-22.1,3.2-33.2,4
	c-4.3,0.3-8.8-1.5-13.3-2.3c0.1-1.5,0.3-3.1,0.4-4.6c3-0.3,6-0.4,8.9-1c7.7-1.5,15.9-2.1,23.1-5.2
	C813.6,1242.1,823.4,1244.4,832.9,1254.5z"/>
<path fill-rule="evenodd" clip-rule="evenodd" fill="#FFFFFF" d="M487.7,1293.2c-7.4,12-38.4,18.8-54.4,12.2
	C450,1292.5,468.6,1294.4,487.7,1293.2z"/>
<path fill-rule="evenodd" clip-rule="evenodd" fill="#FFFFFF" d="M246.7,718.8c3.4,22.1-16.6,27.5-23.9,41.1
	C213.6,749.8,222.4,734.7,246.7,718.8z"/>
<path fill-rule="evenodd" clip-rule="evenodd" fill="#FFFFFF" d="M477.7,1365.6c-8.9,10.9-41.5,16.2-57.8,10.2
	C438,1364.5,457.2,1366.6,477.7,1365.6z"/>
<path fill-rule="evenodd" clip-rule="evenodd" fill="#FFFFFF" d="M214.6,1031.7c-2.4-14.8,9.5-33.5,24.6-40.5
	c4.8,4.5,4.8,9,0.3,13.9C231.7,1013.5,223.7,1022,214.6,1031.7z"/>
<path fill-rule="evenodd" clip-rule="evenodd" fill="#FFFFFF" d="M362.8,1333.3c1.4-11.1,3.6-13.9,22-25c2,5.5,6.3,11.2,5.1,15.4
	C387.3,1333.3,373.6,1337.3,362.8,1333.3z"/>
<path fill-rule="evenodd" clip-rule="evenodd" fill="#FFFFFF" d="M477.1,1276.4c-17.5,9.1-34.7,10.1-53.2,8.1
	C429,1275.1,461.7,1270.2,477.1,1276.4z"/>
<path fill-rule="evenodd" clip-rule="evenodd" fill="#FFFFFF" d="M433.8,332.3c6.3-15.9,10.5-18.3,28.5-16.6
	C458.4,333.9,451.4,338.1,433.8,332.3z"/>
<path fill-rule="evenodd" clip-rule="evenodd" fill="#FFFFFF" d="M789.5,552c0.7,1.6,1.4,3.2,2,4.9c1.6,4.7,5.6,12.4,4.2,13.7
	c-5.1,4.3-12,6.6-18.4,9.3c-1.5,0.6-3.5-0.2-8.6-0.7C776.4,569.1,783,560.6,789.5,552C789.6,552,789.5,552,789.5,552z"/>
<path fill-rule="evenodd" clip-rule="evenodd" fill="#FFFFFF" d="M777.7,1346.3c22-7.9,26.5-8.2,38.4-2.8
	C811.8,1354.6,788.2,1356.8,777.7,1346.3z"/>
<path fill-rule="evenodd" clip-rule="evenodd" fill="#FFFFFF" d="M375.1,368.6c8,17.3-2.7,24.7-15.5,30.9
	C352,393.3,355.7,385.5,375.1,368.6z"/>
<path fill-rule="evenodd" clip-rule="evenodd" fill="#FFFFFF" d="M609.6,313c-6.1,7.2-10.5,13.7-16.2,18.3
	c-2.3,1.8-7.8-0.4-11.9-0.8c1.1-3.4,1.3-7.4,3.3-9.9C590.2,313.9,597.3,310.4,609.6,313z"/>
<path fill-rule="evenodd" clip-rule="evenodd" fill="#FFFFFF" d="M358.5,433c-0.2-16,4.5-24.7,17-32.6
	C380.1,413.6,377.6,418.4,358.5,433z"/>
<path fill-rule="evenodd" clip-rule="evenodd" fill="#FFFFFF" d="M378.6,341.4c0.2,15.3-13.3,19.1-20,28.8
	C352.7,354.9,357.2,348.5,378.6,341.4z"/>
<path fill-rule="evenodd" clip-rule="evenodd" fill="#FFFFFF" d="M327.7,1238.3c-3.7-6.6-8.8-13.1-3.1-21.2c1.8-2.5,5.6-4.7,8.5-4.8
	c1.6,0,5.1,4.9,4.7,7.1c-1.2,6.7-3.9,13.2-6,19.7C330.4,1238.9,329,1238.6,327.7,1238.3z"/>
<path fill-rule="evenodd" clip-rule="evenodd" fill="#FFFFFF" d="M372.4,507.7c6.9,13.4,4.6,22.1-6.2,28.7
	c-2.9-3.3-5.9-6.8-9.4-10.9C362.2,519.2,367.3,513.4,372.4,507.7z"/>
<path fill-rule="evenodd" clip-rule="evenodd" fill="#FFFFFF" d="M254.2,593.8c-2.2-15.3,12.9-33.4,26-32.4
	C271,572.9,262.6,583.3,254.2,593.8z"/>
<path fill-rule="evenodd" clip-rule="evenodd" fill="#FFFFFF" d="M434.4,316.7c-6,6.3-11.8,12.9-18.2,18.8c-1.4,1.3-5,0.1-7.6,0
	c0.3-2.2-0.1-5.2,1.1-6.6C416,322.3,419.4,311,434.4,316.7z"/>
<path fill-rule="evenodd" clip-rule="evenodd" fill="#FFFFFF" d="M244.9,696.2c-0.2,16.9-14.8,22.6-25,31.8
	C224.2,714.4,234.2,705.1,244.9,696.2z"/>
<path fill-rule="evenodd" clip-rule="evenodd" fill="#FFFFFF" d="M305,1209c-5.4-17.3-1.1-27.2,18.5-37.3
	C317.4,1184.2,311.2,1196.6,305,1209L305,1209z"/>
<path fill-rule="evenodd" clip-rule="evenodd" fill="#FFFFFF" d="M312.9,1162.3c-5.1,8.4-9.4,15.5-13.7,22.6
	c-1.6-0.2-3.1-0.5-4.7-0.7c-0.1-5.3-1.7-11.2,0.1-15.7C297.1,1162.5,302.3,1157.9,312.9,1162.3z"/>
<path fill-rule="evenodd" clip-rule="evenodd" fill="#FFFFFF" d="M633.1,318.6c-5,17.6-8.5,19.2-23.3,11
	C615.1,321.1,621.1,314.8,633.1,318.6z"/>
<path fill-rule="evenodd" clip-rule="evenodd" fill="#FFFFFF" d="M245.1,751.8c0.7,8.5-8.3,20.4-21.6,28.6
	C221.8,769.4,227.8,761.4,245.1,751.8z"/>
<path fill-rule="evenodd" clip-rule="evenodd" fill="#FFFFFF" d="M305,1209c7.4-6.6,14.7-13.2,22.5-20.2c5.6,8,1.3,13.5-3.6,19.1
	C318,1214.6,311.7,1213.9,305,1209C305,1209,305,1209,305,1209z"/>
<path fill-rule="evenodd" clip-rule="evenodd" fill="#FFFFFF" d="M476,320.1c7.1,10,4.1,15-3.2,17.3c-1.7,0.6-4.4-2-6.7-3.2
	C469.4,329.5,472.7,324.8,476,320.1z"/>
<path fill-rule="evenodd" clip-rule="evenodd" fill="#FFFFFF" d="M245.3,678.3c-6,6.9-11.3,13-16.7,19.1
	C227.7,682.3,232,678,245.3,678.3z"/>
<path fill-rule="evenodd" clip-rule="evenodd" fill="#FFFFFF" d="M353.2,324.7c5.3,2.9,8.7,4.7,12.1,6.5c-3.2,4.2-6.4,8.4-9.6,12.6
	c-0.8-0.6-1.7-1.1-2.5-1.7C353.2,337.6,353.2,333,353.2,324.7z"/>
<path fill-rule="evenodd" clip-rule="evenodd" fill="#FFFFFF" d="M407.3,316.4c-5.6,5.3-10.3,9.8-17,16
	C392.5,315.4,395.7,312.3,407.3,316.4z"/>
<path fill-rule="evenodd" clip-rule="evenodd" fill="#FFFFFF" d="M568.2,320.6c-4.2,2.8-8.4,5.6-12.6,8.4c-1.1-2-3.4-5.7-3.3-5.8
	c4-2.7,8.3-5.1,12.5-7.5C566,317.3,567.1,319,568.2,320.6z"/>
<path fill-rule="evenodd" clip-rule="evenodd" d="M659.7,739.1c0,16.7-0.2,29.8,0.1,42.9c0.3,15.9-4.3,25.8-19.9,29.9
	c-22.4,5.8-45.4,10.5-68.4,12.1c-32.2,2.3-64.8,3.3-96.9,0.9c-20.6-1.5-40.9-9.5-60.9-15.8c-9.1-2.8-12.7-11.3-13.2-20.8
	c-1.1-21.4-4.2-42.9-3.3-64.3c0.8-19.8,5.3-39.4,9.3-58.9c1-4.6,5.7-9.8,10-12.2c23.4-13.1,48.2-23.9,75.7-20.2
	c31.5,4.2,62.4,2,93.5-3.2c11.5-1.9,23.2-2.5,34.8-3.2c15.6-1,28,8.1,30,23.9C654.3,680.9,656.9,711.8,659.7,739.1z M645.9,716.9
	c0-6.4,0.2-17.3,0-28.2c-1-40.1-13.6-49.2-53.5-44.5c-34.9,4.1-70.4,4-105.4,7.5c-17.1,1.7-34.3,5.9-50.5,11.6
	c-14.5,5.1-22.6,17.6-22.4,33.3c0.3,19.2,2.1,38.4,3,57.6c0.4,9,1,18.2,0.1,27.1c-1.3,12.3,1.2,17.7,13.2,21.2
	c9.8,2.8,19.7,6.1,29.7,7c25.7,2.2,51.5,2.8,77.2,4.8c32.7,2.5,64.5-2.3,95.9-11.1c11.8-3.3,17.4-12.2,16.6-24.9
	C648.5,759.3,647.3,740.4,645.9,716.9z"/>
<path fill-rule="evenodd" clip-rule="evenodd" d="M504.8,1022.3c-26.7-3.1-53.5-5.9-80.1-9.3c-9.2-1.2-15-6.2-14.4-16.9
	c2.2-33.9,10.7-64.3,44.8-80.1c3.9-1.8,9.3-2.7,13.4-1.7c17.6,4.3,34.9,9.3,52.3,14.3c1.9,0.5,3.8,2.3,4.8,4
	c8.3,13.7,18.3,26.8,23.8,41.6c4,10.9,2.6,24,2.6,36.1c0,6.9-5,9.9-12,9.8c-11.7-0.2-23.3,0-35,0
	C504.9,1020.8,504.9,1021.5,504.8,1022.3z M485.5,988c-0.6,16.8-0.3,17.8,16.5,19.9c7.4,0.9,15.2-0.9,22.7-0.9
	c10.5,0.1,12.6-5.6,11.7-14.6c-3.2-33.3-30.1-59-63.4-60.5c-13.1-0.6-23.5,4.4-31.1,14.8c-4.7,6.5-10.5,13.1-12.1,20.5
	c-2.1,9.4-4.3,23.8,0.6,28.3c7.1,6.5,20.7,8.4,31.3,7.8c9.7-0.5,6.6-12,8.1-19.1c0.2-1.1-0.1-2.5,0.4-3.2c2.6-3.3,5.4-6.5,8.2-9.7
	c2.5,3.7,5.2,7.3,7.3,11.3C486.3,984,485.5,986.1,485.5,988z"/>
<path fill-rule="evenodd" clip-rule="evenodd" d="M559.7,845.8c6.2,2.2,12.8,3.4,18.2,6.6c10.8,6.3,12.1,14.2,6.9,29.3
	c-3.7,10.6-12,12.6-21.7,12.3c-2.9-0.1-5.8-1-8.6-0.7c-13.5,1.4-21.7-3.5-25.7-15.7c-3.1-9.3,2.2-20.8,12.8-26
	C547.1,849,553.2,847.8,559.7,845.8z M556.7,868.1c1.4,9.4,2,17.3,11.4,16.6c3.4-0.3,9.5-7,9.2-7.6c-3.6-6-8.3-11.4-12.7-16.9
	C561.6,863.2,558.6,866.2,556.7,868.1z"/>
<path fill-rule="evenodd" clip-rule="evenodd" d="M653.6,866.5c0,23.3-7.1,28.7-30.1,22.8c-8.6-2.2-19.8-1.8-20.9-13.6
	c-1.1-11.7,3.9-22.1,13.7-29.2c3.7-2.7,8.1-4.9,12.6-6.2c16.2-4.5,24.2,1.7,24.8,18.5C653.7,861.4,653.6,864,653.6,866.5z
	 M644.5,865.5c0-8.4-2.8-13.3-12.9-12.6c-11.6,0.8-8,9.7-8.9,15.4c-1.2,7.6,4,9.5,11,9.4C642.5,877.7,645.6,873.7,644.5,865.5z"/>
<path fill-rule="evenodd" clip-rule="evenodd" d="M504.5,459.3c0.1,27.5-20,40.9-44.1,30.1c-10.8-4.9-19.7-11.2-23.1-24.1
	c-2.4-8.9-8.9-16.6-12.2-25.4c-1.5-4-1.4-10.2,0.7-13.6c12.6-20.4,27.7-26.6,49.7-21.3c3,0.7,7,2.1,8.1,4.4
	c7.1,14.3,13.5,28.9,19.9,43.5C504.6,455,504.3,457.8,504.5,459.3z M481.7,480.6c1.5-2,5.9-5.6,6.6-9.8c1.3-7.4-6.4-13.1-15.4-12.7
	c-7.4,0.3-12.6,3.4-13,11.5C459.7,476.4,467.4,481,481.7,480.6z"/>
<path fill-rule="evenodd" clip-rule="evenodd" d="M543.5,504.3c37.7,1.6,40.2,4.5,43,41.4c1.5,19.8-3.1,22.5-21.7,23
	c-25.5,0.7-50.9,2-76.4,2.1c-16.5,0.1-19.5-4-18.9-20.6c0.9-25.8,0.5-26.9,25.2-35.5C510.3,509.1,527.2,507.6,543.5,504.3z
	 M546.8,554.4c26.4,3.9,30.9-0.9,25.8-26c-22.1-8.3-44.5-9.1-67.4-2.7c-13.1,3.7-18.8,9-19.2,23.2c-0.1,2.9,3.8,8.5,6.1,8.6
	c10.4,0.6,20.9-0.4,31.4-0.8c0.2-1.4,0.3-2.7,0.5-4.1c-5.1-2.3-10.3-4.4-15.2-7.1c-6.7-3.6-7.7-8.8-5.2-12.6c19.2,1.1,36.2,2,53.8,3
	C554.4,541.3,550.9,547.4,546.8,554.4z"/>
<path fill-rule="evenodd" clip-rule="evenodd" d="M622.5,433c1.5,8.5,2.8,17.1,4.5,25.6c3.1,16-7.5,24.5-17.7,33.7
	c-9,8.2-17.7,3-26.5,0.3c-2.2-0.7-4.5-2.8-5.6-4.9c-6.5-11.7-13.1-23.4-18.7-35.6c-4.8-10.6-1.8-20.8,5-29.8
	c13.1-17.6,35.5-23,54.7-12.9c2.5,1.3,4.8,5.1,5.3,8.1c0.9,5,0.2,10.2,0.2,15.3C623.4,432.9,623,433,622.5,433z M612,463.2
	c-1.5-0.4-2.9-0.8-4.4-1.2c-5.9,2.7-12.2,4.8-17.5,8.3c-4.9,3.3-6.6,10.3,0,11.6c6.1,1.2,13.9-2,19.6-5.5
	C612.2,474.9,611.4,467.8,612,463.2z"/>
<path fill-rule="evenodd" clip-rule="evenodd" d="M716.7,1276c13.3-0.2,25.5,16,22.1,30.5c-2.1,8.8-5.6,17.3-9.2,25.6
	c-3.5,7.8-10.1,11.3-18.8,9.6c-11.9-2.3-28.2-22.6-27.3-33.7C685,1290.6,699.8,1276.3,716.7,1276z M729.1,1309.3
	c0.1-11.8-7.2-20.1-18-20.5c-5.7-0.2-13.2,11.3-13.1,20.1c0.1,10.4,7.7,20.2,15.8,20.7C722.3,1330,729,1321.1,729.1,1309.3z"/>
<path fill-rule="evenodd" clip-rule="evenodd" d="M659.5,1272.3c9.3-0.2,15.1,6.2,13.2,15.4c-2.3,11-9.2,18.7-19.2,23.6
	c-6.6,3.2-11.2,0.3-14.2-5.6C631.4,1290.1,642,1272.7,659.5,1272.3z"/>
<path fill-rule="evenodd" clip-rule="evenodd" d="M331.1,1309.9c-0.1,13-14,29.4-24.7,29.1c-16.2-0.5-30.1-12.1-30.1-25.1
	c0-12.7,19.7-30.3,33.3-29.7C321.4,1284.7,331.2,1296.4,331.1,1309.9z M313.2,1301.4c-5.7,2-10.8,3-15,5.5c-2.9,1.8-6.4,5.6-6.4,8.5
	c0.1,3,3.8,8.1,6.4,8.5c5.5,0.7,12.6,0.7,16.6-2.3C322.4,1315.9,317.2,1308.8,313.2,1301.4z"/>
<path fill-rule="evenodd" clip-rule="evenodd" d="M228.4,1291.9c-0.3-8.9,9.5-18.3,19.4-18.8c9.2-0.4,22.4,8.6,22.4,15.3
	c0,9.2-13.2,24.4-21.6,24.9C241.1,1313.8,228.6,1300.6,228.4,1291.9z"/>
<path fill-rule="evenodd" clip-rule="evenodd" fill="#FFFFFF" d="M645.9,716.9c1.5,23.5,2.7,42.3,3.8,61.2
	c0.8,12.7-4.8,21.6-16.6,24.9c-31.3,8.8-63.1,13.6-95.9,11.1c-25.7-2-51.5-2.6-77.2-4.8c-10-0.9-20-4.1-29.7-7
	c-12-3.5-14.5-8.9-13.2-21.2c0.9-8.9,0.4-18.1-0.1-27.1c-0.9-19.2-2.8-38.4-3-57.6c-0.2-15.7,8-28.2,22.4-33.3
	c16.2-5.7,33.4-9.9,50.5-11.6c35-3.5,70.4-3.4,105.4-7.5c39.9-4.7,52.5,4.4,53.5,44.5C646.1,699.6,645.9,710.6,645.9,716.9z
	 M489.7,724.7c-12.5,0.2-25.2,11.6-25.4,22.2c-0.1,8.3,6.7,14.4,15.9,14.1c12.4-0.4,21.8-10.1,21.9-22.5
	C502.1,729.5,497.7,725.1,489.7,724.7z M538.2,711.5c8.1-5.3,17.4-9.1,23.1-15.9c4.2-4.9,6.4-14.6,4.5-20.6
	c-1.4-4.5-10.5-8.7-16.5-9.2c-4.8-0.4-11.6,3.9-14.9,8.2C525.4,686,530,698,538.2,711.5z M578,738.1c-0.2-9-6.1-16.4-12.9-16.4
	c-8.4,0.1-19,12.6-18.3,22.6c0.5,7.6-0.4,17,12,16.5C569.1,760.4,578.3,749.6,578,738.1z M480,677.6c-8.6-0.5-10.4,5.6-10.9,12
	c-0.8,9.9,5.3,18.5,12.7,18.9c7.2,0.4,14.5-7,14.6-14.8C496.6,686.1,488.3,678,480,677.6z M522,724.2c-8,16.1-7.3,24.4,2.6,33.4
	c3.3-2.4,6.7-4.9,10.7-7.8C530.9,741.3,526.8,733.4,522,724.2z M583.9,685.8c0.6,3.2,0.9,7.6,2.3,11.6c0.6,1.7,3.8,3.8,5.4,3.5
	c1.9-0.4,5-3.3,4.8-4.8c-0.7-6.8-2.2-13.6-3.8-20.2c-0.3-1.1-3-2.3-4.3-2.2c-1.3,0.2-2.9,2-3.3,3.4
	C584.3,679.5,584.3,682.1,583.9,685.8z M593.3,737.2c0.8,3.1,1.4,7.8,3.2,12.1c0.7,1.7,3.7,2.9,5.8,3.1c0.9,0.1,3.1-3.1,3-4.6
	c-0.6-6.5-1.7-12.9-3.2-19.3c-0.4-1.6-2.8-2.7-4.2-4c-1.3,1.5-3.1,2.9-3.8,4.6C593.4,731,593.6,733.4,593.3,737.2z M509,674.3
	c-9.2,7.7-9,11.5,1.3,24.7C521,689.9,512.8,682.3,509,674.3z M612.4,697c8.8-11.1,3.8-19.7-0.8-29.5
	C604.5,677.8,606.2,686.7,612.4,697z M449.2,701.7c1.3,0.2,2.5,0.4,3.8,0.6c1.3-5.6,3.3-11.2,3.7-17c0.2-2.2-3-4.7-4.7-7
	c-1.9,2.7-5.2,5.3-5.3,8C446.5,691.4,448.3,696.5,449.2,701.7z M445.3,731.3c-1.2,0-2.3,0-3.5,0c-1.6,10.6-5.1,21.3,2.8,30.8
	c1.1-0.1,2.2-0.2,3.3-0.3C447,751.6,446.1,741.5,445.3,731.3z"/>
<path fill-rule="evenodd" clip-rule="evenodd" fill="#FFFFFF" d="M485.5,988c0.1-1.8,0.9-4,0.1-5.4c-2.1-3.9-4.8-7.5-7.3-11.3
	c-2.7,3.2-5.6,6.3-8.2,9.7c-0.6,0.7-0.2,2.1-0.4,3.2c-1.4,7.1,1.6,18.6-8.1,19.1c-10.6,0.6-24.2-1.3-31.3-7.8
	c-4.9-4.5-2.7-19-0.6-28.3c1.6-7.4,7.5-14.1,12.1-20.5c7.6-10.5,18-15.4,31.1-14.8c33.3,1.6,60.2,27.3,63.4,60.5
	c0.9,9.1-1.2,14.7-11.7,14.6c-7.6-0.1-15.3,1.8-22.7,0.9C485.2,1005.7,484.8,1004.8,485.5,988z"/>
<path fill-rule="evenodd" clip-rule="evenodd" fill="#FFFFFF" d="M556.7,868.1c1.9-1.9,4.9-5,7.8-8c4.4,5.5,9.1,10.9,12.7,16.9
	c0.4,0.6-5.8,7.3-9.2,7.6C558.7,885.4,558.1,877.5,556.7,868.1z"/>
<path fill-rule="evenodd" clip-rule="evenodd" fill="#FFFFFF" d="M644.5,865.5c1.1,8.2-2,12.2-10.7,12.2c-7,0-12.2-1.8-11-9.4
	c0.9-5.7-2.7-14.6,8.9-15.4C641.7,852.2,644.5,857,644.5,865.5z"/>
<path fill-rule="evenodd" clip-rule="evenodd" fill="#FFFFFF" d="M481.7,480.6c-14.3,0.4-22.1-4.2-21.8-11c0.4-8.1,5.6-11.2,13-11.5
	c9-0.4,16.7,5.3,15.4,12.7C487.6,475,483.2,478.5,481.7,480.6z"/>
<path fill-rule="evenodd" clip-rule="evenodd" fill="#FFFFFF" d="M546.8,554.4c4.1-7.1,7.5-13.1,10.6-18.5c-17.6-1-34.6-1.9-53.8-3
	c-2.4,3.8-1.4,8.9,5.2,12.6c4.9,2.7,10.1,4.7,15.2,7.1c-0.2,1.4-0.3,2.7-0.5,4.1c-10.5,0.4-21,1.4-31.4,0.8
	c-2.3-0.1-6.2-5.7-6.1-8.6c0.5-14.1,6.2-19.5,19.2-23.2c23-6.5,45.3-5.6,67.4,2.7C577.7,553.5,573.3,558.3,546.8,554.4z"/>
<path fill-rule="evenodd" clip-rule="evenodd" fill="#FFFFFF" d="M612,463.2c-0.7,4.6,0.2,11.6-2.3,13.2c-5.7,3.5-13.5,6.7-19.6,5.5
	c-6.6-1.3-4.9-8.3,0-11.6c5.3-3.5,11.6-5.6,17.5-8.3C609.1,462.4,610.6,462.8,612,463.2z"/>
<path fill-rule="evenodd" clip-rule="evenodd" fill="#FFFFFF" d="M729.1,1309.3c-0.1,11.8-6.8,20.7-15.2,20.3
	c-8.2-0.4-15.7-10.3-15.8-20.7c-0.1-8.8,7.4-20.3,13.1-20.1C721.9,1289.2,729.2,1297.5,729.1,1309.3z"/>
<path fill-rule="evenodd" clip-rule="evenodd" fill="#FFFFFF" d="M313.2,1301.4c4,7.4,9.2,14.5,1.6,20.2c-4,3-11.1,3-16.6,2.3
	c-2.6-0.3-6.3-5.5-6.4-8.5c-0.1-2.9,3.4-6.7,6.4-8.5C302.4,1304.4,307.5,1303.4,313.2,1301.4z"/>
<path fill-rule="evenodd" clip-rule="evenodd" d="M489.7,724.7c8,0.3,12.4,4.8,12.4,13.7c-0.1,12.4-9.5,22.1-21.9,22.5
	c-9.2,0.3-16-5.8-15.9-14.1C464.5,736.3,477.1,724.9,489.7,724.7z"/>
<path fill-rule="evenodd" clip-rule="evenodd" d="M538.2,711.5C530,698,525.4,686,534.5,674c3.2-4.3,10-8.5,14.9-8.2
	c6,0.4,15.1,4.6,16.5,9.2c1.9,6-0.3,15.7-4.5,20.6C555.6,702.4,546.3,706.2,538.2,711.5z M559.1,687.3c-4.3-3.7-6.7-5.8-9.1-7.8
	c-3.2,3.8-6.8,7.3-9.2,11.5c-0.6,1,3,4.3,4.6,6.5C549.4,694.6,553.4,691.6,559.1,687.3z"/>
<path fill-rule="evenodd" clip-rule="evenodd" d="M578,738.1c0.3,11.5-8.9,22.3-19.1,22.7c-12.4,0.5-11.5-8.9-12-16.5
	c-0.7-10,9.9-22.5,18.3-22.6C571.9,721.6,577.8,729.1,578,738.1z"/>
<path fill-rule="evenodd" clip-rule="evenodd" d="M480,677.6c8.2,0.3,16.5,8.5,16.4,16.1c-0.1,7.9-7.3,15.2-14.6,14.8
	c-7.4-0.4-13.5-9-12.7-18.9C469.7,683.2,471.4,677.2,480,677.6z"/>
<path fill-rule="evenodd" clip-rule="evenodd" d="M522,724.2c4.8,9.2,8.9,17.1,13.3,25.6c-4,2.9-7.4,5.4-10.7,7.8
	C514.7,748.6,514,740.3,522,724.2z"/>
<path fill-rule="evenodd" clip-rule="evenodd" d="M583.9,685.8c0.4-3.7,0.3-6.3,1.1-8.7c0.4-1.4,2.1-3.2,3.3-3.4
	c1.4-0.2,4.1,1.1,4.3,2.2c1.6,6.7,3.1,13.4,3.8,20.2c0.2,1.5-2.9,4.4-4.8,4.8c-1.6,0.3-4.8-1.8-5.4-3.5
	C584.8,693.4,584.5,689,583.9,685.8z"/>
<path fill-rule="evenodd" clip-rule="evenodd" d="M593.3,737.2c0.3-3.8,0.1-6.1,0.9-8.1c0.7-1.8,2.5-3.1,3.8-4.6
	c1.5,1.3,3.9,2.4,4.2,4c1.5,6.3,2.5,12.8,3.2,19.3c0.1,1.5-2.1,4.7-3,4.6c-2.1-0.2-5.2-1.5-5.8-3.1C594.7,745,594,740.3,593.3,737.2
	z"/>
<path fill-rule="evenodd" clip-rule="evenodd" d="M509,674.3c3.8,8.1,12,15.6,1.3,24.7C500,685.8,499.8,682,509,674.3z"/>
<path fill-rule="evenodd" clip-rule="evenodd" d="M612.4,697c-6.2-10.3-7.9-19.2-0.8-29.5C616.2,677.3,621.2,685.9,612.4,697z"/>
<path fill-rule="evenodd" clip-rule="evenodd" d="M449.2,701.7c-0.9-5.1-2.7-10.3-2.5-15.4c0.1-2.7,3.4-5.3,5.3-8
	c1.7,2.3,4.9,4.8,4.7,7c-0.4,5.7-2.4,11.3-3.7,17C451.7,702.1,450.5,701.9,449.2,701.7z"/>
<path fill-rule="evenodd" clip-rule="evenodd" d="M445.3,731.3c0.9,10.2,1.8,20.3,2.7,30.5c-1.1,0.1-2.2,0.2-3.3,0.3
	c-7.9-9.5-4.4-20.3-2.8-30.8C442.9,731.3,444.1,731.3,445.3,731.3z"/>
<path fill-rule="evenodd" clip-rule="evenodd" fill="#FFFFFF" d="M559.1,687.3c-5.7,4.3-9.7,7.2-13.7,10.2c-1.7-2.2-5.2-5.6-4.6-6.5
	c2.4-4.2,6.1-7.7,9.2-11.5C552.4,681.6,554.8,683.6,559.1,687.3z"/>
</svg>
