<?xml version="1.0" encoding="utf-8"?>
<!DOCTYPE svg PUBLIC "-//W3C//DTD SVG 1.1//EN" "http://www.w3.org/Graphics/SVG/1.1/DTD/svg11.dtd">
<svg artist="zl2017" version="1.1" id="zlIcon-room-kitchen" xmlns="http://www.w3.org/2000/svg" xmlns:xlink="http://www.w3.org/1999/xlink" x="0px" y="0px"
	 width="1000px" height="784px" viewBox="0 0 1000 784" enable-background="new 0 0 1000 784" xml:space="preserve">
<path fill-rule="evenodd" clip-rule="evenodd" d="M746,501.3c2.2-10,4.4-20,6.5-30c4.1-19.7,8-39.5,12.3-59.2
	c1.1-5.2,3.4-10.2,5-15.3c2.3-7.1,4.6-14.3,6.9-21.5c1.5-4.8,2.6-9.7,4.6-14.3c1.1-2.5,3.1-5.5,5.5-6.4c9-3.3,16.9-9.6,27.4-8.6
	c16.1,1.5,32.3,2.4,48.5,3.3c24.8,1.5,49.6,2.9,74.4,4.2c2.9,0.1,5.7-1.1,7,2.6c-0.3,0.7-0.6,1.9-0.9,1.9c-15,1.1-29.7,4-45,1.9
	c-24.9-3.3-50-5.2-75.1-7.3c-5.3-0.4-11,0.2-16.1,1.7c-7.6,2.2-13.8,6.1-17.8,14.2c-11.8,24-18,49.1-20.1,75.7
	c-1.2,15.3-5.2,30.5-8.1,45.7c-3.4,18-6.6,36.1-10.7,54c-8.9,39-18,77.9-27.6,116.6c-4,16-9.4,31.7-14.1,47.5
	c-1.2,4.1-2.5,8.3-3.4,12.5c-3,13.5,1.3,23.1,13.6,29.2c6.4,3.2,13.3,5.5,20.2,7.4c19.9,5.7,40.5,6.7,61,8
	c33.1,2.1,66.2,3.5,99.2,5.7c24.1,1.6,48.1,3.9,72.1,5.8c7.5,0.6,15.1,0.6,22.7,1.1c1.6,0.1,3.2,0.8,5.4,1.3
	c-3.1,5.7-7.8,4.7-11.7,4.6c-13-0.5-25.9-1.4-38.8-2.2c-19.4-1.3-38.8-2.8-58.2-4c-33.8-2.1-67.5-4.3-101.3-6
	c-20.9-1.1-41.5-4.1-61.7-9.5c-12.4-3.3-22.8-10-32.4-18.2c-2.2-1.9-3.6-5.5-3.9-8.4c-0.5-5-1-10.4,0.6-15c3.5-9.9,2.2-19.5,1-29.5
	c-1-8.4-0.2-17.1-0.2-25.6c-0.8-0.3-1.6-0.7-2.5-1c-1.4,1.4-3.9,2.8-4,4.3c-0.6,6.8-0.5,13.7-0.7,20.5c-0.2,7.7,0.7,15.5-4.7,22.6
	c0-15.5,0-30.9,0-46.4c-0.8-0.2-1.6-0.5-2.4-0.7c-1.1,1.7-2.9,3.4-3,5.2c-0.6,11.5-0.8,23-1.1,34.6c-0.1,2.3,0,4.7,0,7.9
	c-5.2-5.1-5.7-8.2-5.3-23.3c0.2-7.8,0-15.7,0-23.6c-4.5,0.7-4.8,4.3-4.9,7.4c-0.5,11.1-0.6,22.3-1,33.4c-0.1,3.3-0.4,6.6-1.8,9.8
	c-6.1-15.9-0.5-32.3-3.8-48.4c-3.3,6.6-4,13.7-4.3,20.8c-0.3,6.9-0.1,13.9-1.1,20.9c-6.4-6.5-1.5-14.9-4.6-22.3
	c-4-0.8-5.1,1.6-5.5,5.2c-0.6,5.9-1.3,11.7-2.3,19.9c-7.9-11.2,0.9-22-5.3-31.9c-1.9,1.9-4,3.2-4.5,4.8c-2.3,7.9-4.4,15.9-6,24
	c-2.1,11.3-5.1,14.8-16.8,16c-9.3,1-18.7,1-28,2c-19.3,2-38.7,3.4-58.1,2.3c-12.9-0.7-25.8-2-38.6-3.7c-4.9-0.6-9.8-2.5-14.4-4.5
	c-10.6-4.7-17.8-11.6-17.2-24.7c0.3-6.7-1.5-13.4-2.2-19.6c-1.6-0.8-2.2-1.3-2.8-1.4c-16.6-1.4-17.2-1.6-20.3-17.8
	c-1.4-7.8-1.7-15.8-2.2-23.7c-1.1-19.5-3.7-38.3-11.9-56.7c-5-11.2-6.2-24.2-3.8-37c1.5-7.8,5.9-12.7,12.6-16.5
	c12.8-7.2,26.8-8,40.9-8.5c6.4-0.2,13,0.4,19.3-0.6c18-2.8,35.9-2.1,53.9-0.7c4.3,0.3,8.8-0.3,12.9,0.7c9.8,2.4,16.4-1.6,22.1-9.1
	c3-3.9,6.6-7.4,10.1-11.1c8.4,4,7,12.9,11.8,19.2c6.5-1.9,13.7-3,20.1-6c7.9-3.6,14,1,20.6,2.9c1.6,0.5,3.1,4,3.4,6.3
	c2.1,15.4,11.9,24.8,24,32.8c2.3,1.5,4.1,3.8,7.2,6.8c-3.7,5.1-6.6,10.4-10.8,14.5c-7.3,7-12.4,13.9-6.8,24.4c1.1,2,0.7,4.8,1.1,7.8
	c-3.1,0.7-5.7,1.3-9.5,2.2c2.3,17,4.7,33.9,7.1,51.6c18.9-1.9,36.2-4.3,52.9-10.2c5.4-1.9,6.8-6,7.2-10.8
	c1.1-10.4,2.1-20.8,2.9-31.2c2-26.6,4.1-53.2,5.7-79.8c0.8-12.9,0.4-25.9,0.9-38.8c1.3-38.9,4.3-77.7,10.5-116.2
	c1.7-10.8,10.5-16.9,20.8-14.8c5.3,1.1,8.5,3.5,8,9.5c-1,14-1.4,28.1-2.9,42.1c-2.3,21.1-5.3,42.1-7.9,63.2
	c-1.1,8.9-1.9,17.9-2.7,26.8c-0.1,1.3,0.3,2.7,0.4,4C744.7,501.1,745.3,501.2,746,501.3z M632.9,605.4c-16.7-1-33-3.3-45.8,12.5
	c-4.4-11.2-8.3-21-12.4-31.3c-52.3-1.2-103.7-5.4-154.3-25.4c0.9,6.1,1.4,10.2,2.2,14.3c2,9.5,5,18.8,6.1,28.4
	c1.8,16.8,2.3,33.7,3.8,50.5c0.4,4.8,1,10.3,7.6,12.5c4.5-3,9.1-6.4,14-9.2c6.6-3.7,12.3-2.5,17.2,3.1c3.3,3.8,6.5,7.7,9.7,11.6
	c5.4,6.5,7.2,6.8,14.4,2c3.9-2.6,7.5-5.6,11.5-8.1c8.7-5.5,12.7-5.3,20.3,1.4c4.6,4.1,8.5,8.8,13.1,12.9c5.9,5.2,8.9,5.4,15.3,0.9
	c5.6-3.9,10.7-8.5,15.9-12.9c8.8-7.3,16-6.9,24.3,0.9c6.2,5.9,12.9,11.3,21.8,14c1.9-2.4,3.7-4.6,5.4-6.9c5-6.5,5.7-6.7,13.6-3.6
	c2.7,1.1,5.5,2,8.7,3.1C641,651.7,637,628.8,632.9,605.4z M621.2,692.8c-14.2-1.2-23.6-8.8-32.3-17.6c-3.4-3.5-6.7-3-10.5-0.1
	c-6.3,4.7-12.8,9.3-19.5,13.4c-9.2,5.7-16.6,4.4-24-3.3c-3.5-3.6-6.8-7.5-10.6-10.7c-6.1-5.3-9.7-5.2-16.4-0.4
	c-4.4,3.2-8.4,6.8-13.1,9.5c-8.1,4.7-14.6,3.5-20.8-3.6c-4-4.5-7.7-9.3-12.2-14.8c-3.1,2.1-5.7,4-9.3,6.5c6.5,5.1,6.4,11,6.3,17.2
	c0,5.3,0.8,10.7,2.1,15.8c0.6,2.4,3.2,5.1,5.5,6c16.5,6.3,33.1,12.4,51.2,11.5c26.5-1.3,53-2.5,79.5-3.8c1.1-0.1,2.2-0.1,3.2-0.3
	c9.2-1.3,16.6-4.5,17.8-15.3C618.5,700,619.8,697.3,621.2,692.8z M482.8,549.2c1.5-0.2,2.6-0.1,3.6-0.4c14.1-3.8,14.7-3.5,17.1,11.2
	c2.1,12.7,2.6,13.4,15.4,14.9c5.4,0.6,11.2,3.1,15.6-1.1c-3.8-14.2-12.7-23.2-25.1-29.3c-2-1-2.8-4.5-4.1-6.8c2-1.2,4-3,6.2-3.4
	c5.7-1,11.5-1,17.1-2.1c8.2-1.6,17.2-1.7,24.1-10.1c-4.6,0.2-8,0.6-11.4,0.6c-22.3,0-44.6-0.2-66.9,0c-16.6,0.2-32.9,2.9-48.7,8.1
	c-7.1,2.3-8.2,4.6-7.6,12c0.5,6,3.5,10.2,8.9,12.5c4.6,2,9.5,3.3,14.1,5.3c7.5,3.2,13.7,2.4,18.6-4.7c2.4-3.6,5.1-7,7.8-10.3
	c1.7-2.1,3.8-3.9,7.3-7.4C477.9,542.5,480.4,546,482.8,549.2z M721.9,590.7c3-5.1,5.2-8,6.6-11.3c7.1-16.6,4.6-34.5,6.3-51.9
	c2.9-29.7,5.1-59.5,8-89.2c2.2-21.8,5.2-43.5,7.7-65.2c0.3-3,0-6.1,0-9.9c-7.3,1.3-13.1,2.2-15,10.1c3.2,0,5.6,0,8.5,0
	c-2.5,7-13.1,8.1-10.3,17.1c2.8-0.9,5.6-1.8,9.9-3.2c-3,8.3-13.3,9.9-11,19.2c2.4-0.7,4.6-1.3,7.1-2c0.7,9.2-13.3,10.2-9.7,20.4
	c2.2,0,4.6,0,8.1,0c-4.2,8-13.9,12.5-9.7,22.6c2.5-0.5,4.9-1,8.1-1.6c-2.5,7.7-13.9,10.8-7.5,20.4c1.3,0.3,2.9,0.6,4.5,1
	c-0.8,7.2-11.7,10-6.5,18.1c2,0.7,3.6,1.2,6.1,2.1c-5.9,7.2-11.6,13.4-9.4,22.6c2.2,0.4,4.4,0.8,7,1.2c-0.8,1.7-1.1,2.8-1.8,3.5
	c-4.9,4.6-7.5,9.4-3.5,16c0.6,1.1-0.4,3.2-0.8,4.8c-1.5,5.3-7.3,10.8,1.4,15.3c0.6,0.3,0.3,3.4-0.4,4.9c-1,2.1-2.8,3.8-4.5,6.1
	c3.1,0.3,5.3,0.5,8.7,0.8C723.7,570.8,717.4,577.7,721.9,590.7z M561.7,559.8c6,3.4,12,7.1,18.4,10.1c3.5,1.6,7.9,3.2,11.3,2.4
	c7-1.6,13.7-4.8,20.8-7.5c-3.3-4.2-6.5-8-9.1-12.2c-0.6-1,0.6-3.1,0.9-4.6c3.6,0.4,6.5,0.8,9.4,1.1c-2.4-7.9-4.5-14.9-6.4-21.2
	c4.7-4.1,8.1-7.1,12.3-10.9C596.4,518.2,568.9,538.9,561.7,559.8z M579.3,503.9c-6.4,7.1-12,14.5-18.8,20.7
	c-9.9,9-11.2,20.8-14,33.6c11.2-7.3,25.9-25.6,34.3-39.7C583.9,513.1,583.6,509.4,579.3,503.9z M633.9,594.9
	c-0.1-0.7-0.1-1.5-0.2-2.2c-4.8-2.2-9.8-4.1-14.4-6.6c-14.9-8.2-17.5-7.3-22.1,8.8c-0.4,1.6-0.3,3.3-0.5,5.8
	C609.8,598.6,621.8,596.8,633.9,594.9z M626.3,559c4.5,5.8,8,10.3,11.5,14.7c6.6-4.9,12.1-8.9,17.5-13c-0.3-0.6-0.6-1.2-0.9-1.8
	C645.8,559,637.1,559,626.3,559z M643.6,552.2c-7.3-7.3-15.1-12.8-26.1-13.9c1.7,4.4,2.9,7.6,4.4,11.6
	C629.1,550.7,636.3,551.4,643.6,552.2z M541.5,550.9c1.1-3.2,2.1-6,3.3-9.3c-7.7-3.7-14.4-1.4-21.7,0
	C526.7,550.4,534.2,549.6,541.5,550.9z M699.1,688.5c3-8.9,5.3-15.9,7.9-23.7c-3.3,0.2-5.6,0.3-8.1,0.5c-0.7,6.4-1.5,12.1-2,17.8
	C696.8,684,697.7,685,699.1,688.5z M593.8,581.4c-8.1,3.5-9.6,9.5-5,17.7C590.6,592.4,592.2,586.9,593.8,581.4z M722.7,596.4
	c-1.1-0.1-2.3-0.1-3.4-0.2c-0.5,7.9-1.1,15.7-1.6,23.6c0.7,0.1,1.4,0.1,2.1,0.2C720.8,612.2,721.7,604.3,722.7,596.4z M630.2,519.9
	c-3.3,2.3-5.1,3.5-7.7,5.3c3.7,1.8,6,2.9,9.5,4.6C631.4,526.3,631,524,630.2,519.9z"/>
<path fill-rule="evenodd" clip-rule="evenodd" d="M390.8,337.4c0,1.8-0.7,4.2,0.2,5.2c5.4,6.1,4.2,12.7,2.2,19.4
	c-2.2,7.6-4,15.4-7,22.7c-3.8,9.4-7.6,10.6-16.9,6.5c-8.1-3.6-16.3-7.2-26-11.5c1.5,81.9-3.1,162,1.3,243
	c13.6-2.2,25.7-4.3,39.3-6.5c-0.2,17.7-9,31.7-8.7,47.8c-7.1-0.6-12.8-1.6-18.4-1.6c-13,0-14.3,2.1-15.8,14.9
	c-1.5,13.1-3.9,26.2-7,39.1c-1.9,8-8.1,11.9-16.6,13.2c-13.8,2.2-27.5,5.6-41.3,8.1c-14.1,2.6-28.4,4.5-42.6,7
	c-11.7,2-23.3,4.9-35,6.4c-13.6,1.7-27.2,2.3-40.9,3.4c-5.8,0.5-11.6,0.5-17.3,1.3c-21.7,3.2-43.1,1.7-64.2-4.1
	c-13.5-3.7-27.1-6.9-40.5-10.4c-12.4-3.3-20.4-10.9-24.9-23.2C0.6,690.5-0.7,662,1.3,632.9c2-29.1,2.8-58.3,4.3-87.4
	c2.1-40.6,4.2-81.2,6.6-121.8c0.6-9.7,2.8-19.2,4.3-28.8c2.2-14.2,3.2-28.3,2.7-42.9c-0.5-15.7,2-31.5,4-47.2
	c2.1-16.8,6.1-33.4,7.3-50.2c1.8-25.2,6.7-49.8,12.1-74.4c0.8-3.9,1.1-7.9,2.1-11.7c1.2-4.9,2.4-10.1,7.6-12.5
	c11.3-5.3,21.9-12.1,35.3-11.9c8.5,0.2,17.1-1.5,25.7-2.8c10.3-1.6,19.3,1.6,27.5,7.4c15.3,10.7,30.5,21.7,45.8,32.5
	c11.4,8.1,22.9,16.1,34.4,24.1c19.2,13.4,38.6,26.4,57.6,40c13.5,9.7,28.6,12.4,44.8,12.7c37.8,0.9,75.6,1.5,113.3,3.8
	c42.4,2.6,84.7,7.1,127.1,10.4c21.2,1.6,42.5,2,63.6,3.7c20.5,1.7,40.8,4.5,61.2,6.7c5.7,0.6,11.5,0.9,17.2,1.5
	c23.2,2.8,46.5,5.5,69.6,8.7c24.2,3.4,48.3,7.8,72.5,11.4c26,3.8,52.1,7,78.1,10.5c3.5,0.5,7.2,1,8.8,6c-4.7,3.6-10.1,2.8-15.2,2.2
	c-21.8-2.6-43.6-5.4-65.3-8.2c-22.1-2.9-44.3-5.8-66.3-9c-29.2-4.2-58.5-8.3-87.6-13c-38.8-6.3-77.7-10.8-116.8-13.9
	c-9.6-0.7-19.4-1.5-28.9-0.7c-4.3,0.4-8.8,4.2-12.4,7.3c-11.7,10.1-22.9,20.8-34.5,31c-2,1.8-5,2.5-7.5,3.7
	c6.8-6.9,13.5-13.7,20.3-20.6c-14.3,0.9-27.4,2.9-40.4,5.7c-16.4,3.5-32.9,2.9-49.5,2.6c-1.9,0-3.7-1.3-5.5-1.9
	c5.3-1.3,10.3-1.5,15.3-1.3c29.6,1.2,57.9-5.6,86.1-13.1c7.7-2.1,12.6-7.2,17.2-15.2c-40.2-2-78.9-3.9-117.7-5.8
	c-38.4-1.8-76.9-3.6-115.3-5.3c-0.2,0.9-0.4,1.7-0.7,2.6c3,1.6,6.1,3.1,9.1,4.8c6,3.2,11.8,6.9,18,9.6c7.4,3.3,8.7,8.1,6.7,15.7
	c-3.8,14.5-0.9,29,0.2,43.5c14.7,3.5,28.2,0.2,41.8-0.4C387.5,341.2,389.1,338.7,390.8,337.4z M332,340.6c0.7-3.8,1.6-7.1,1.9-10.6
	c0.6-6.8-0.2-13.9,1.3-20.5c2.7-11.8-1.9-18.7-11.8-24.6c-18.8-11.3-37.3-23.2-55.3-35.6c-14.5-9.9-28.3-21-42.5-31.5
	c-11.6-8.6-23-17.4-34.9-25.4c-12.5-8.4-25.5-16-38.4-23.9c-6.7-4.1-13.3-8.4-20.3-11.8c-11.2-5.4-26.6-0.9-31.9,9.4
	c-7.4,14.5-13.5,29.4-15.3,45.8c-1.4,13.2-3.5,26.4-5.9,39.5c-2.3,12.4-6.2,24.5-8,36.9c-2.5,17-3.8,34.3-5.5,51.5
	c-2,20.8-4.3,41.5-5.7,62.3c-2.6,38.8-4.8,77.6-6.9,116.4c-1.1,19.8-1.7,39.6-2.3,59.4c-1,34.2-2.1,68.5-2.3,102.7
	c-0.1,16.3,2.9,32.3,11.1,46.8c5.7,10.1,15.2,16.3,25.5,18.2c14.4,2.7,29.5,3.9,44.1,2.5c37.2-3.6,74.4-8.5,111.4-13.8
	c18.5-2.6,36.8-7.1,55.1-11c10-2.2,19.2-6.7,26.9-13.3c3.5-3,7.2-8,7.6-12.3c0.8-10.6-0.2-21.4-0.5-32.7c-6.3-0.4-11.7-0.6-17-1.1
	c-3.3-0.3-6.3-1.1-7.5-5c-3.4-10.4,2.4-22.5,12.7-26c3-1,6-2,9.7-3.2c0.9-23.9,2.3-47.6,2.6-71.3c0.2-21.2-1.2-42.5-1.1-63.7
	c0.1-28.1,0.9-56.2,1.3-84.3c0.2-11.5,0-22.9,0-34.3c-1.9-1-3.1-2.1-4.4-2.2c-8.4-1-13-7.3-17.9-12.9c-1.6-1.9-2.7-5.2-2.4-7.7
	c1.1-8.9,10.3-15,19.3-13.6C326.9,340.6,329,340.5,332,340.6z M46.4,735.5c-2-10.4-5.2-19.8-5.5-29.3c-0.6-18.3,0.1-36.6,0.6-55
	c0.6-25.2,1.5-50.4,2.3-75.6c0.7-23.4,1.3-46.8,2.2-70.2c0.7-18,1.7-36,3-54c2.4-34.1,4.9-68.2,7.9-102.3
	c1.9-21.8,4.4-43.6,7.1-65.4c1.9-15,4.4-29.9,6.9-44.8c3.4-19.8,4.8-40.1,12.4-59c4.2-10.6,9.7-20.7,15.2-32.5
	c-7.8,1.4-14.9,2.1-21.6,3.9c-10,2.7-16.8,9.6-20.7,18.9c-3,7.3-5.3,14.9-7.3,22.6c-7.9,30-11.9,60.6-15.3,91.3
	c-2.8,25.7-4.8,51.6-7.1,77.4c-0.9,10.4-1.1,20.9-2.7,31.2c-5.8,38.9-9.2,77.9-10.3,117.2c-0.2,8.6-0.2,17.2-0.6,25.8
	c-0.7,12.2-1.9,24.4-2.5,36.6c-0.7,15.8,0.6,31.9-1.6,47.5c-3,21.4-0.6,42.4,1.1,63.6c0.9,11.8,5.2,22.4,11.8,32.2
	C27.8,724.8,35.2,732.4,46.4,735.5z M311.6,355.2c5.8,5,12,7.5,18.9,8.8c3.8,0.7,7.8,1.6,11.3,3.3c10.4,5,20.5,10.5,30.8,15.7
	c2.1,1.1,4.5,1.5,8.2,2.7c2.9-9.6,6.1-18.3,8.1-27.3c1.6-7.3-1.1-9.6-8.9-9.5c-1.1,0-2.2,0-3.2,0.2c-17.7,3.4-35.3,0.9-52.7-1.9
	C316.8,346,314,348.4,311.6,355.2z M370.2,653c2.4-8.7,5.1-18,7.7-27.4c-21.6,0-40.1,7.8-58.7,15.1c-6.3,2.5-6.8,4.8-4.1,11.3
	C333.8,652.3,351.9,652.7,370.2,653z"/>
<path fill-rule="evenodd" clip-rule="evenodd" d="M800.1,177.3c3.3-4.2,6.8-8.3,10-12.6c2.5-3.3,4.8-6.9,7.7-11.1
	c-12.6-5.1-24.1-9.8-36-14.7c11.1-0.8,42.7,10.7,54.1,19.7c-1.1,6.1-2.1,12.4-3.5,20.3c5.2,1.1,10.9,4.1,15.1,2.7
	c3.6-1.2,5.6-7.3,9-12.2c0.1,8.2-0.3,9.1-7.5,18.5c-5.2-1.2-10.7-2.4-15.9-3.6c-4.5,4.8-8.8,9.4-13.8,14.7c5,3.1,9.4,5.9,13.8,8.7
	c3.8-2.3,7-4.3,11.1-6.7c-2.6,6.2-2.6,6.2-10.4,11.5c-6.1-3.2-12.4-6.5-19-10.1c-1.4,2.2-2.7,3.5-3.2,5c-1.6,5-4.4,6.5-9.8,5.2
	c-10.4-2.4-21.1-4-32.5-6.1c-2.7,3.6-5.6,7.7-8.8,11.6c-7.5,9.2-14.7,18.6-22.8,27.3c-6.1,6.5-14.6,9.1-23.6,8.9
	c-15.1-0.4-30.2-0.8-45.3-1.4c-23.8-0.9-47.5-1.6-71.3-2.9c-28-1.5-56-3.8-84-5.4c-32.3-1.8-64.7-2.9-97.1-4.7
	c-19.8-1.1-39.5-2.8-59.2-4.5c-4.2-0.4-8.9-0.6-11.4-7c10.1-15.9,28.1-25.1,39.4-40.5c5.1,3,3.5,5.1,1.3,7.5
	c-7.4,7.9-14.6,15.9-21.9,23.9c-2.4,2.6-4.5,5.4-7.4,8.9c44.7,0,88.2,0,131.5,0c2.4-7,5.4-13.9,7.2-21.1c2.2-8.7,8-12.3,16.1-13.7
	c3.2-0.6,6.3-1,9.1-1.5c6.7-12.2,13.3-24.1,20.2-36.5c-3.7-3.4-7.2-6.3-10.5-9.5c-5.4-5.3-8.3-11.3-6.4-19.4
	c1.7-7.3,1.8-15,3.4-22.4c1-4.7,3.4-9,5.2-13.5c7.3,1.3,7.3,6.1,7.4,10.2c0.2,6.1-0.5,12.3-0.2,18.4c0.2,4.2,1.4,8.3,2.4,14.5
	c9.6-7,9.2-17.7,14.9-25c6.3,3.3,2.1,8.4,2.7,12.4c0.7,4.4,1,9,1.4,13.4c0.9,0.2,1.7,0.4,2.6,0.6c3.8-6.3,7.8-12.4,11.4-18.8
	c3.5-6.3,6.6-12.9,9.8-19.3c0.8,0.3,1.7,0.5,2.5,0.8c-0.1,2.2,0.2,4.4-0.3,6.5c-2.7,10.4-6.3,20.5-5.9,31.6
	c0.3,8.3-5.7,14-12.5,15.9c-10.7,3-12.7,10.5-13.9,19.4c-0.8,5.7-1.3,11.4-2.2,17c-0.2,1.5-1.6,2.7-3.8,6.1
	c-1.2-14.4-1.3-26.3,3.8-37.6c2.3-5,5.4-8.7,11.7-9.9c8.4-1.7,9.9-4.9,9.7-12.8c-4,2.3-8.2,5.9-12.8,6.7c-2.2,0.4-5.4-4.5-8.8-7.7
	c0.7-0.1-0.2-0.2-0.6,0.1c-10,8.4-14.5,7.1-17.5-5.5c-1.1-4.8-0.9-9.9-1.3-15.6c-8.2,17.4-5.4,25.7,14.1,42
	c-4.4,13.3-14.6,24-19.7,35.6c12,7.2,23,13.9,34.2,20.3c2,1.2,4.6,2,6.9,2c15.4,0,20.6,5.8,18.6,21.2c-0.1,0.7-0.1,1.4-0.3,3
	c11.6,3.2,23.6,4.3,35.6,5.3c24.8,2,49.5,4,74.3,5.8c8.2,0.6,16.5,1,24.7,0.5c4-0.3,8.7-2.1,11.6-4.8c11.6-10.8,21.5-23.1,30.1-37.2
	c-7.7-2.1-14.7-5.5-22-0.5c-7.3,5.1-2.8,11.5-0.7,20c-3.7-3.3-5.5-4.9-7.8-6.9c-1.9,1.6-4.1,3.2-7.1,5.6c0.2-3,0.4-5,0.5-7.1
	c-2.1-0.1-4.1-0.2-6.7-0.3c0.7-1.3,0.9-2.6,1.6-2.8c3-1.1,6.3-1.7,9.2-3.1c2.6-1.3,4.7-3.4,8.2-6c-10.1-4-18.6-3.5-27.1-3.3
	c-12.1,0.4-13.8-1.2-13.9-13.2c0-6.2-0.1-12.4-0.2-19.6c0.6-0.2,2.8-1.2,4.9-2.2l-0.3-0.3c4.8,2.1,9.5,5,14.5,6.2
	c24.6,5.7,49.4,10.9,74,16.3c2.6-3.3,4.8-6,7-8.8c0.9,1,1.8,2.1,3,3.4c-1.3,1.4-2.8,3-4.3,4.5c5.7-0.5,11-2,14.8-5.2
	c3.6-3,5.7-7.9,9.3-13.3C812.9,172,806.5,174.7,800.1,177.3z M793.7,193.3c-30.4-6.7-60.3-13.3-90.7-20c-0.5,5.5-1.1,10.5-1.5,15.4
	c-0.5,6.7,0.8,8.1,7.7,8.2c7.5,0.1,15.1-0.3,22.6,0.6c7,0.8,12.8,0.3,17.3-5.7c0.5-0.6,1.7-0.7,3.4-1.3c-0.7,3-1.2,5.2-1.6,6.9
	c13.3,3.2,26.3,6.3,39.4,9.5C791.4,202.8,792.3,198.7,793.7,193.3z M547.4,228.5c-15.4-5.8-30.1-11.3-45.7-17.1
	c-2.7,5.9-5,10.9-7.4,16C505.4,231.8,540,232.6,547.4,228.5z M559.2,215.2c-15.9-9.1-31.1-17.7-50.5-12.9c3,3.1,6.2,6,9.9,7.3
	c9.4,3.5,19.1,6.1,28.6,9.5C551.9,220.9,555.3,220.3,559.2,215.2z M567.2,218.7c2.5,5.7,5,11.3,7.4,16.8c7.4-2.7,9.5-5.4,8.1-10.3
	C581.1,219,576.5,217.1,567.2,218.7z M568,235c-4.9-9.4-5.2-9.5-11-1.7C560.4,233.9,563.3,234.3,568,235z M831.2,166.8
	c-4.5,3.8-4.5,3.8-4.1,8C831.8,173.5,830.2,169.6,831.2,166.8z M796.1,206.1c3.9,1.1,7,0.7,8.9-5.5
	C800.8,203.2,798.4,204.6,796.1,206.1z M815.6,184c5.1,4.2,5.1,4.2,11,1.4C822.3,184.9,819.3,184.5,815.6,184z M819.8,162.1
	c2-1.7,4-3.4,6.5-5.5C820.3,153.8,819.9,158,819.8,162.1z M819.2,190.8c-2.4,0-4.9,0-7.3,0C814.1,193.4,816.3,195.5,819.2,190.8z
	 M817.9,181.3c3.4-0.3,5.9-0.5,9.9-0.8C822.2,177.4,822.2,177.4,817.9,181.3z M801.5,198.8c0-0.5,0-1,0.1-1.5
	c-1.8-0.3-3.5-0.6-5.3-0.8c0,1.3,0,2.5,0,3.8C798.1,199.8,799.8,199.3,801.5,198.8z"/>
<path fill-rule="evenodd" clip-rule="evenodd" d="M590,84c3.9,0.3,7.8,0.5,11.6,0.8c3.2-12.7,2.4-13.6-13-15
	c4.1-6.1,9.1-1.5,13.5-1.8c5.2-12.3,4.3-13.9-10.1-18.7c4,0.2,8,0.5,12.4,0.7c0-4.4,0-8.6,0-13.8c-4.4-1.7-8.9-3.5-13.5-5.4
	c0-0.3,0-0.7,0.1-1c4.1,0.6,8.2,1.2,12.9,1.9c11.6-14.4,27-11,41.8-6.2c11.9,3.9,14.9,10,13.7,22.5c-0.9,8.9-2.5,17.8-3.7,26.7
	c-0.5,3.5-0.6,7.1-0.9,11.4c8.9,0.9,17.2,1.8,25.7,2.7c1.9-8-6.1-6.9-8.8-11.8c4,1.2,7.2,2.2,10.7,3.3c1.4-7.4-6.3-6.6-8.4-11.3
	c3.1,0.6,5.7,1.1,8.4,1.6c5-3.1,2.8-7.8-8.9-17.1c4.5,0.8,7.6,1.3,11.3,2c0.6-10.8-8.7-10.3-15.6-15.4c5.9,1.1,10.1,1.9,14.1,2.7
	c-0.9-10.5-2.6-11.9-17-14.8c3.1-0.2,6.2-0.4,9.7-0.7c-3.7-10.4-11.7-9.5-20.1-9.1c1.7-1.5,3.1-2.8,4.9-4.4
	c-8.1-5.4-16.1-3.9-24.1-1.8c-0.6-6-5-4.6-7.8-3.5c-3.2,1.3-5.4,2.6-8.5-0.6c-1.2-1.3-4.7-1.2-6.9-0.6c-3.8,1-7.3,2.9-11,4.5
	c-0.7-1.1-1.3-3.4-2.6-3.9c-1.4-0.5-3.6,0.1-5.1,1c-12.2,7-22.3,15.9-26.1,30.9c2.3,0.9,4.6,1.5,6.8,2.6c6.2,3.3,10.7,26,6,31.4
	c-4,4.5-9.7,7.9-15.4,6.6c-23.2-5.2-45.8-0.4-68.5,3.2c-7.4,1.2-14.9,1.9-21.3-4.3c-3.1-3-4.9-5.8-5.3-10
	c-1.4-16.6,5-30.5,15.7-42.3c9.4-10.4,20.4-10,31.5-1.5c8,6,16.6,11.3,25,16.8c4.8,3.1,9.8,5.9,15.3,9.2c0.7-1.2,1.8-2.3,1.8-3.5
	c1.1-18,11.7-30.4,24.2-41.6c5.3-4.8,12.1-6.5,19-6.2c14.4,0.8,28.8,2.1,43.1,3.2c18.9,1.5,32.6,10.8,40.6,27.9
	c4.4,9.4,4.9,19.5,4,29.6c-0.9,11.5-2.7,22.9-3.2,34.4c-0.2,6.4-3.2,9.8-8.7,10.3c-8.9,0.8-17.8,0.6-26.8,0.4
	c-4.8-0.1-7.8-3.2-9.7-7.7c8.6-16.3,8.8-34.5,10.2-52.3c0.7-8.8-2.2-12.9-10.7-15.1c-6.9-1.8-14.2-2.3-21.3-2.5
	c-4.6-0.2-8.5,2-9.2,7.3c-0.8,6-1.6,12.1-1.8,18.1c-0.6,16.1-0.3,32.3-1.6,48.4c-1.2,15-4.4,29.9-5.9,44.9c-1,9.6-0.9,19.3-0.7,29
	c0.2,6.5-0.6,7.7-6.9,6.6c-0.4-0.1-0.7-0.2-1-0.3c-2.8-0.6-5.6-1.3-8.5-2.8c3.1-0.2,6.3-0.4,10.3-0.7c-0.7-4.3-1.4-8.4-2.2-12.9
	c-3.1-1-6.1-1.9-10.6-3.3c4.6-0.7,7.7-1.1,11.3-1.6c0.7-4.9,1.5-9.9,2.3-15.3c-2.5-1.5-4.8-2.8-7.9-4.6c3.1-0.6,5.2-1,7.8-1.5
	c0.7-3.3,1.4-6.7,2.3-10.6c-2.5-1.7-4.7-3.3-7.6-5.3c2.7-0.4,4.6-0.7,6.9-1.1c0.9-4.1,1.9-8.2,2.9-12.7c-3.1-1.7-5.7-3.2-10.2-5.7
	c4.5,0,6.9,0,9.4,0C605.6,92.5,604.1,89.6,590,84z M482.6,72.8c3-0.2,6.2-0.4,9.4-0.6c19.2-1.3,28.7-24.3,18.3-39.6
	c-4.6-6.7-9.4-7.6-16.3-2.7C482.8,37.8,477.1,58.8,482.6,72.8z M515.3,72.9c15.6-0.8,30.3-1.6,44.8-2.4c0.9-8.2-2.3-12.3-9.2-14.5
	c-7.4-2.4-14.5-5.9-21.9-8.5c-3.9-1.4-7.2,0.2-8.4,4.4C518.8,58.6,517.2,65.5,515.3,72.9z M680.2,98.2c-10.1-6.4-23-6.3-29.2,1.3
	C661.3,100.4,670.6,101.8,680.2,98.2z"/>
<path fill-rule="evenodd" clip-rule="evenodd" d="M414.4,326.4c6.6,4,13.3,6.2,21,2.6c1.4-0.7,3.6-0.2,5.3,0.1
	c16.3,3,32.3-0.2,48.3-2.7c3.6-0.6,6.8-3.5,10.2-5.4c-1.5,3-2.9,6.1-4.7,9.6c7.7,12.5,13,15.2,25.4,12.3c-0.8,0.8-1.4,1.9-2.3,2.2
	c-9.4,2.5-10.6,9.4-9.6,17.5c0.3,2.5,1,4.9,1.2,7.4c0.4,6.4,3.4,10.4,9.8,12.4c7.1,2.3,13.9,5.7,20.9,8.4c1.7,0.7,3.7,0.6,5.1,0.8
	c0-10.8-1.4-21,0.4-30.6c1.8-9.3,6.9-18,11-28.2c-7.2,2.4-13.2,4.7-19.3,6.4c-5.7,1.6-11.5,2.6-17.3,3.8
	c12.3-4.7,24.6-9.4,37.8-14.5c-8.4-9.7-17.8-18.5-19.9-34.3c5.4,8.6,9.3,15.2,13.6,21.4c2,2.9,4.6,5.6,7.4,7.7
	c3.5,2.6,7.3,3.8,12.1,1.7c6.5-2.9,13.5-5,20.3-7.2c3.3-1.1,6.7-1.6,10.7-0.4c-2,0.9-4,1.9-6.1,2.6c-5.1,1.7-10.3,3.3-15.4,5
	c-23.7,8-36.3,29.5-32,54.7c0.4,2.5,0.8,5,0.8,7.5c-0.1,5.4,1.6,9.6,7.1,12.1c-4.1,0.5-8.5-3.7-11.8,1.1c1.7-4.3-1-5.5-4.4-6.8
	c-13.3-4.9-26.5-10.2-39.9-15c-8-2.9-15.9-7.8-23.4-3.3c-1.1-9.3-5.6-15.6-14.2-19.5c0.5-0.6,0.9-1.2,1.4-1.8
	c4.1,1.4,8.3,2.8,12.3,4.2c9.2-3.5,18.4-7.1,27.8-10.7c-5.1-5.1-9.5-9.6-13.7-13.8c-2.8,1.1-5.7,2.2-8.5,3.3
	c1.2-1.6,2.3-3.3,3.5-4.9c-0.2-0.7-0.4-1.4-0.6-2.1c-17.8,5.5-36.3,1.1-54.6,4.9c4.2,4.6,8.5,10.7,13.1,11
	c13.5,0.8,27.2-0.5,38.9-9.2c-2.4,6.2-5.3,10.8-13.5,10.2c-5.5-0.4-11.6,1-16.9,2.9c-6.8,2.4-14.4,4.5-16.7,14
	c3.9,0.4,7.7,0.8,11.5,1.3c1.8-2.9,3.4-5.4,5.8-9.3c-0.6,7.7-1.1,13.6-1.7,20.1c5.5,1.5,10.1,2.7,15,4c0.7-3.8,1.2-6.2,1.8-9.7
	c3,5.4,4.8,8.5,2.3,13.9c-2.7,5.8-2.2,13-3.1,20c7.6-1,13.8-1.7,20.5-2.6c-2.8-4.9-5.2-9.1-7.6-13.2c0.4-0.3,0.8-0.6,1.2-0.9
	c3.9,4.5,7.9,9,12,13.7c11.9-13.7,11.9-13.7,19.6-13c-8.6,3.9-13.2,9.9-15.8,18.2c5.4,4.8,10.6,9.5,16,14.4
	c9.2-10.6,17.1-21.3,32.2-20.6c-4.7,2.5-9.8,4.5-14.1,7.6c-6.8,4.7-14.5,9.3-13.6,20.2c-1.8-0.5-3.7-0.6-5-1.6
	c-9.5-7-20.2-6.3-30.9-5.2c-3.9,0.4-7.8,1.7-11.7,1.8c-5.4,0.1-9,2-10.7,7.8c-0.4-1.8-0.8-3.6-1.2-5.5
	c-34.3-4.6-80.2,23.4-98.7,61.5c-0.7-3-2-5.2-1.4-6.2c2.6-4.3,5.6-8.4,8.8-12.2c7.3-8.4,14.7-16.8,22.6-24.7
	c5.1-5.1,5.3-10.6,3.6-16.9c-1.2-4.4-2.5-8.8-1.9-13.9c2.3,5.9,4.6,11.9,7.3,18.8c4.7-3.5,9.1-6.7,13.5-9.9
	c-2.3,3.2-4.5,6.3-6.8,9.6c18.7-3.8,36.5-7.5,55.9-11.5c1.6-10.4,3.3-21.9,5.3-34.5c-5.3-0.8-10.7-3.3-13-1.5
	c-7.2,5.4-13.8,12-20.1,20.5c9.4,1.1,17.1,2,24.8,2.8c-14.4,2.2-29.1,0.1-41.7,9.3c3.2-3.7,6.2-7.7,9.7-11.1c4-4,4.2-7.9,1-13.2
	c-11.1,2.5-20.7,8.8-31,13.2c-3.5,1.5-7.3,2.4-11,3.5l0.2,0.2c12.8-6.4,15.6-18.4,17.2-31.1c0.3-2.2,0.8-4.4,1.2-6.7
	c0.8,0.1,1.6,0.3,2.4,0.4c-1.4,8.5-2.8,17.1-4.5,27.8c9.4-4.3,17.2-7.9,25.8-11.9c-1.3-6.8-2.5-12.9-3.8-19.9c-5.3,0-11.1,0-17.8,0
	c10.5-8.7,11.8-21.1,18.7-30.8C420.2,333.2,417.3,329.8,414.4,326.4z M505.5,350.6c-10.6,4-20.9,5.5-29.6,14
	c8.7,8.8,19.9,8.4,29.6,12.5C505.5,367.7,505.5,359.9,505.5,350.6z M413.7,362.5c14.7,2.7,14.7,2.7,26.5-13.6
	c-4.1-3.3-8.2-6.6-13.5-10.9C422.2,346.6,418.2,354,413.7,362.5z M501.1,417.4c-8-11.3-14.3-13.6-25.9-10.1
	c-8.7,2.6-10.4,4.9-10.7,15.3C475.8,415.4,488.1,418.2,501.1,417.4z M428.2,368.5c0.8,6.2,1.3,11,2,16.7c6.1-2.4,11.3-4.5,16.9-6.8
	c-0.5-3.7-1-6.7-1.4-9.9C440.2,368.5,435.3,368.5,428.2,368.5z M445.4,385.2c-6.7-0.5-11.8,0.1-14.6,4.9c-0.8,1.4,1.3,4.6,2.6,8.5
	C438.1,393.4,441.3,389.8,445.4,385.2z"/>
<path fill-rule="evenodd" clip-rule="evenodd" d="M433.9,216.1c-2.6,0-6.8,0.8-10.5-0.2c-4.7-1.2-10-2.8-13.3-6
	c-9.8-9.8-15.7-22.3-20-35.3c-1.9-5.7,1.6-11.6,6.7-14.7c9.5-5.7,19-12,29.4-15.5c10-3.4,21.1-3.6,31.7-5c2.4-0.3,5.4-0.1,7.4,1.1
	c7.4,4.4,15.1,2.8,22.9,2.7c6.6-0.1,13.8,1,19.7,3.8c12.8,6.1,15.1,23.4,5.6,34c-6,6.8-14.1,9.5-22.4,12.3
	c-4.3,1.4-9.3,3.1-12.1,6.3c-10.3,11.9-23.5,15.8-38.5,16C438.8,215.5,437,215.8,433.9,216.1z M401.5,181.1
	c4.4,8,7.7,13.8,10.8,19.8c2.4,4.7,6.5,7.2,11.2,7.3c14,0.4,28-0.7,41.3-5.8c4.6-1.8,8.1-5,8.2-10.4c0.1-7.4,0-14.8,0-22.1
	c-11.7,3.8-22.6,8.9-34,10.8C427.7,182.5,415.9,181.1,401.5,181.1z M397.7,168.3c0.2,0.8,0.4,1.6,0.7,2.4c4,0.9,8.1,2.7,12.1,2.4
	c10.8-0.7,21.5-1.8,32.1-3.7c6.3-1.1,12.5-3.6,18.4-6.1c4.4-1.9,8.2-9.1,7.1-12.4c-1.7-5.4-6.8-4.8-10.8-5
	c-17.2-1.1-32.7,4.5-47.2,13C405.7,161.5,401.8,165.2,397.7,168.3z M484.8,187.9c5.1-2.4,9.7-4.6,14.2-6.8c1.9-1,3.8-2.1,5.7-3.1
	c7.9-4.3,10.3-12.2,5.9-19.6c-5.7-9.7-18.7-11.7-28.6-3.7c7.5-3.2,14.1-1.5,20.2,3c5.8,4.3,6.5,7.8,2.3,13.7c-3.9,5.5-9.2,9.2-16,10
	C484.7,181.8,483.1,183,484.8,187.9z M482,169.2c2.1,2.3,3.9,5.8,6.4,6.5c4.3,1.3,9.1-3.9,10.8-10.6
	C493.3,163.6,487.7,162.4,482,169.2z"/>
<path fill-rule="evenodd" clip-rule="evenodd" d="M461.2,471.3c-0.7,5.1-1.3,9.7-1.9,14.2c-0.6,0.2-1.2,0.3-1.8,0.5
	c-1.1-4.1-2.2-8.1-3.3-12.2c-6-1.1-5.6,2.8-5.4,6.5c0.2,3.1,0.5,6.1,0.7,9.2c-0.7,0.2-1.4,0.3-2.1,0.5c-1.6-5.2-3.3-10.5-4.9-15.7
	c-1,0-1.9,0-2.9,0.1c-1.4,5.2-2.7,10.4-4.3,16.7c-3.4-4.2-1.8-8.5-2.1-12.3c-0.4-4.2-0.2-4.2-7-7c-0.7,5.9-1.4,11.6-2.1,17.3
	c-0.8,0-1.6,0-2.4,0c-0.3-2.2-0.8-4.3-0.8-6.5c0.1-7.2-0.1-14-2-21.2c-4.5-16.7,10.5-31.2,27.4-26.6c9,2.5,17.6,4.4,27.2,2.6
	c8.9-1.6,16,5.6,17,15.3c0.9,8.9-4.9,16.1-13.9,17.1C471.5,470.4,466.5,470.8,461.2,471.3z M467,456.5c5.2-3.8,3.4-7.8-0.9-9.9
	c-4-2-8.9-2.9-13.4-2.9c-6.8,0-11,5.8-10.1,12.5c0.8,6.3,5.7,10,12.3,8.9c5.4-0.9,10.4-2.9,12.4-8.8L467,456.5z M469.5,462.3
	c7.4,3.4,10.6,2.9,14.3-1.8c3.2-4.1,2.9-9.8-0.9-14.9c-2.9-3.8-6.2-5.8-10.5-2.1C474.9,452.1,474.9,452.1,469.5,462.3z"/>
<path fill-rule="evenodd" clip-rule="evenodd" d="M596,338.3c1.9,8.4-0.1,16.8-0.6,25.3c-0.7,14.7-1.8,29.5-1,44.1
	c0.5,10.9,5.1,13.6,16.2,14.3c13.7,0.9,27.3,2.2,40.9,3c12.2,0.7,24.5,0.8,36.7,1.2c6.3,0.2,10,3.2,10.7,11.1
	c-6.8,0.6-13.4,2.1-20,1.7c-16.9-0.9-33.9-1.8-50.6-4.1c-10.9-1.5-21.5-5.4-32.3-8.3c-7.2-2-8.7-8.4-9.5-14.4
	c-0.8-5.7-0.5-11.5,0-17.3c1.2-14.7,2.6-29.4,4.1-44.1c0.5-4.4,1.5-8.7,2.3-13.1C593.8,338,594.9,338.2,596,338.3z"/>
<path fill-rule="evenodd" clip-rule="evenodd" d="M815.1,440.5c11.2,0.1,21.3,3.6,29.7,10.8c9.8,8.5,8.2,26.3-2.9,35.3
	c-8.2,6.7-22.2,11.6-34,3.1c-6.6-4.8-14.6-7.5-17.9-16.3c-5.4-14.4,4.5-31.3,19.7-32.8C811.5,440.4,813.3,440.5,815.1,440.5z
	 M825.6,488c3.3-1.8,9.4-3.7,13.7-7.6c5-4.6,8.1-11,5-18.5c-3-7.3-8.8-10-16.1-10.6c-8.6-0.6-14.2,4.6-18.9,10.5
	c-3.6,4.5-6.4,9.7-2.8,15.9C810.2,484,815.5,487.6,825.6,488z"/>
<path fill-rule="evenodd" clip-rule="evenodd" d="M863.8,730.1c-4,3.6-7.7,4.8-12.9,4.2c-20-2.1-40.2-4.2-60.3-4.5
	c-13.9-0.2-27.8,2.4-41.8,3.7c-2.5,0.2-5,0.5-7.3,0.7c-5.6-5.4-7-11.1-4.8-18.5c2.5-8.6,3.6-17.6,5.5-26.4c0.4-1.9,1.8-3.6,2.9-5.8
	c7.6,11.7,0.1,24.3,3.7,36.5C787.6,721.8,826.1,720.7,863.8,730.1z"/>
<path fill-rule="evenodd" clip-rule="evenodd" d="M711.9,378.9c0.1,7.3-5.4,7.9-8.9,7.9c-12.5,0-25,4-37.5,0.3
	c-5-1.5-10.2-3.3-14.4-6.3c-2.4-1.8-4-6.1-4.2-9.3c-0.3-5.7,0.6-11.4,1.2-17.1c1.5-14.6,3.1-29.3,4.8-43.9c0.3-2.6,1.3-5.1,2.2-8.3
	c6.2,4,4.8,9,4.3,13.3c-1.4,12.5-3.3,25-4.6,37.5c-0.5,5-0.4,10.1-0.3,15.1c0.1,5.9,3.5,9.7,9.2,10.1c10.7,0.7,21.4,0.7,32.1,0.9
	C701.2,379,706.4,378.9,711.9,378.9z"/>
<path fill-rule="evenodd" clip-rule="evenodd" d="M747.8,152.4c-0.4-11.8,2.4-16.8,9.6-17.8c7.9-1.1,15.5,2.9,17.7,9.3
	c2.2,6.5-1.9,13.2-10.6,17.1c-2,12.6-5.8,14.6-18.2,9.9c-2.7-1-5.7-1.8-7.8-3.5c-2-1.6-4.8-4.6-4.4-6.4c0.6-2.7,3.2-5.5,5.7-7.1
	C741.9,152.6,745.1,152.9,747.8,152.4z M752.9,153.1c3.4,0.9,6,2,8.6,2.2c2.6,0.2,6.4,0.2,7.5-1.2c1.6-2.2,2.3-6.1,1.5-8.8
	c-1.6-5.6-8.1-7.9-14.4-5.8C751.3,141.1,750.5,144.4,752.9,153.1z M758.8,167.6c1.6-11.5-11-0.2-12.3-7.8c-0.2-1.1-4.9,0.4-5.8,4.1
	C746.4,166.2,751.7,170.1,758.8,167.6z"/>
<path fill-rule="evenodd" clip-rule="evenodd" d="M859.5,709.4c-23.1-0.7-44.1-1.3-65.1-2.2c-1,0-1.9-1.7-3-2.7
	C801.5,699.1,845.2,701.8,859.5,709.4z"/>
<path fill-rule="evenodd" clip-rule="evenodd" d="M655.1,123.2c0.1,9.8,0.7,18.2,0.1,26.6c-0.8,11.1-2.7,22-4.1,33.1
	c-0.4,2.9-0.8,5.9-4.6,4.5c1.4-21,2.8-41.7,4.3-62.4C650.8,124.7,652,124.5,655.1,123.2z"/>
<path fill-rule="evenodd" clip-rule="evenodd" d="M702.5,166c1.7-2.6,3.3-5.3,5.2-7.6c5.9-7.1,12.8-13.6,17.9-21.3
	c3.8-5.8,7.6-7.9,14-5.8c2.3,0.7,4.8,0.8,8,1.2c-4.3,6.8-9.4,0.9-14.7,3c-7.3,8.2-15.5,17.6-24,26.7c-1.6,1.8-4.4,2.4-6.7,3.6
	C702.2,165.7,702.5,166,702.5,166z"/>
<path fill-rule="evenodd" clip-rule="evenodd" d="M667.1,134.7c0.4,1.2,1.2,2.6,1,3.7c-2.9,14.9-1.8,29.8-1.4,44.8
	c0,0.3-1.1,0.7-2.1,1.3c-5.6-16.6-3.2-33-0.2-49.3C665.3,134.9,666.2,134.8,667.1,134.7z"/>
<path fill-rule="evenodd" clip-rule="evenodd" d="M781.1,156.1c7.4,3.9,10.9,8.4,9.4,12.5c-1.6,4.3-8.7,7.2-16.1,6.3
	c-2.3-0.3-4.5-1.4-6.9-2.2C772.3,166.9,776.6,161.5,781.1,156.1z M787.8,166.8c-2.2-2.6-3.2-3.7-4.6-5.3c-2.4,3.2-4.2,5.7-6.1,8.1
	c0.4,0.4,0.7,0.8,1.1,1.2C781,169.6,783.7,168.5,787.8,166.8z"/>
<path fill-rule="evenodd" clip-rule="evenodd" d="M395,330c0.9-4.9,1.8-9.8,2.9-15.4c-4.8-6.8-13.4-7.6-23.2-10.4
	c7.6-3.3,12.3,0,16.4,2.1c4.7,2.3,10.6,2.4,13.7,8.4c2.3,4.6,6.6,8.1,10,12.2c-3.9-3-7.9-5.9-12.7-9.5
	C399.7,321.6,397.3,325.8,395,330z"/>
<path fill-rule="evenodd" clip-rule="evenodd" d="M384.2,408.8c-3.6,2.6-7.2,5.3-10.9,7.8c-3.4,2.3-7,4.5-12,7.7
	c0.3-2.7-0.1-5.9,0.7-6.3c7.3-3.3,14.9-6.1,22.4-9L384.2,408.8z"/>
<path fill-rule="evenodd" clip-rule="evenodd" fill="#FFFFFF" d="M482.6,72.8c-5.5-14,0.2-35,11.4-42.9c6.9-4.9,11.7-4,16.3,2.7
	c10.4,15.3,0.9,38.3-18.3,39.6C488.8,72.4,485.6,72.6,482.6,72.8z M505,49.8c-2.1-1.4-4.8-4.4-8.1-5.2c-4.6-1.1-10.6,6.7-10.2,13
	c0.2,3.5,1,7.5,6,7.3C498.1,64.7,505.1,57,505,49.8z"/>
<path fill-rule="evenodd" clip-rule="evenodd" fill="#FFFFFF" d="M515.3,72.9c1.9-7.3,3.5-14.3,5.4-21.1c1.2-4.2,4.4-5.7,8.4-4.4
	c7.4,2.6,14.5,6.1,21.9,8.5c6.9,2.2,10.1,6.3,9.2,14.5C545.6,71.2,530.9,72,515.3,72.9z"/>
<path fill-rule="evenodd" clip-rule="evenodd" fill="#FFFFFF" d="M401.5,181.1c14.4,0,26.2,1.4,37.4-0.4c11.4-1.9,22.4-6.9,34-10.8
	c0,7.3,0.1,14.7,0,22.1c-0.1,5.4-3.6,8.6-8.2,10.4c-13.3,5.1-27.2,6.2-41.3,5.8c-4.7-0.1-8.8-2.6-11.2-7.3
	C409.3,194.9,405.9,189.1,401.5,181.1z M447.1,200.5c10.8,0,16.4-3.1,19.1-10.8C459.8,193.4,453.7,196.8,447.1,200.5z"/>
<path fill-rule="evenodd" clip-rule="evenodd" fill="#FFFFFF" d="M397.7,168.3c4.1-3.2,8-6.8,12.4-9.5c14.5-8.6,30-14.2,47.2-13
	c4.1,0.3,9.2-0.4,10.8,5c1,3.4-2.7,10.5-7.1,12.4c-5.9,2.5-12.1,5-18.4,6.1c-10.6,1.9-21.4,3-32.1,3.7c-4,0.3-8.1-1.6-12.1-2.4
	C398.1,169.9,397.9,169.1,397.7,168.3z"/>
<path fill-rule="evenodd" clip-rule="evenodd" fill="#FFFFFF" d="M484.8,187.9c-1.7-4.9-0.1-6.2,3.6-6.6c6.8-0.8,12.1-4.5,16-10
	c4.2-5.9,3.5-9.5-2.3-13.7c-6.1-4.5-12.7-6.1-20.2-3c9.9-8,22.9-6,28.6,3.7c4.4,7.4,2,15.4-5.9,19.6c-1.9,1-3.7,2.2-5.7,3.1
	C494.4,183.4,489.9,185.5,484.8,187.9z"/>
<path fill-rule="evenodd" clip-rule="evenodd" fill="#FFFFFF" d="M467.3,456.2c-2,5.9-7,7.9-12.4,8.8c-6.7,1.1-11.5-2.6-12.3-8.9
	c-0.8-6.7,3.4-12.5,10.1-12.5c4.5,0,9.4,1,13.4,2.9c4.3,2.2,6.1,6.1,0.8,9.9c-3.5-4.2-3.5-4.2-7.1-1.1
	C462.8,455.7,465.1,455.9,467.3,456.2z"/>
<path fill-rule="evenodd" clip-rule="evenodd" fill="#FFFFFF" d="M469.5,462.3c5.4-10.2,5.4-10.2,2.8-18.8c4.4-3.7,7.7-1.7,10.5,2.1
	c3.8,5,4.1,10.8,0.9,14.9C480.1,465.2,476.9,465.7,469.5,462.3z"/>
<path fill-rule="evenodd" clip-rule="evenodd" fill="#FFFFFF" d="M825.6,488c-10-0.4-15.4-4-19.2-10.3c-3.6-6.1-0.8-11.4,2.8-15.9
	c4.7-5.9,10.3-11.1,18.9-10.5c7.3,0.5,13.1,3.3,16.1,10.6c3.1,7.5,0.1,13.9-5,18.5C834.9,484.3,828.9,486.2,825.6,488z M826.3,480.1
	c7.9-7.1,8.6-11.5,3.1-19.6c-0.3,3.8-0.4,6.8-0.8,9.7C828,473.3,827.2,476.2,826.3,480.1z"/>
<path fill-rule="evenodd" clip-rule="evenodd" fill="#FFFFFF" d="M752.9,153.1c-2.4-8.8-1.6-12,3.2-13.6c6.3-2.1,12.8,0.2,14.4,5.8
	c0.8,2.7,0.1,6.6-1.5,8.8c-1.1,1.5-4.9,1.4-7.5,1.2C758.9,155.1,756.3,154,752.9,153.1z"/>
<path fill-rule="evenodd" clip-rule="evenodd" fill="#FFFFFF" d="M758.8,167.6c-7,2.5-12.4-1.4-18.1-3.8c0.9-3.7,5.6-5.1,5.8-4.1
	C747.7,167.4,760.3,156.1,758.8,167.6z"/>
<path fill-rule="evenodd" clip-rule="evenodd" d="M492.3,646.7c0-14.8,0-29.7,0-45.4C495.7,616.8,493.9,631.8,492.3,646.7z"/>
<path fill-rule="evenodd" clip-rule="evenodd" d="M566.6,634.2c0-8.1,0-16.1,0-24.2c0.3,0,0.6,0,0.9,0c0,8.1,0,16.1,0,24.2
	C567.2,634.2,566.9,634.2,566.6,634.2z"/>
<path fill-rule="evenodd" clip-rule="evenodd" d="M524.1,621.5c0.4,0.5,1.1,0.8,1.3,1.4c1.7,6.3,3.4,12.6,5.5,20.6
	C523.5,636.4,526,628.3,524.1,621.5z"/>
<path fill-rule="evenodd" clip-rule="evenodd" d="M448.5,612c0,7.4,0,14.9,0,22.3c-0.2,0-0.5,0-0.7,0c0-7.3,0-14.5,0-21.8
	C448,612.4,448.3,612.2,448.5,612z"/>
<path fill-rule="evenodd" clip-rule="evenodd" d="M464.4,632.6c-0.9-4.1-1.7-8.1-2.6-12.2c0.6-0.1,1.3-0.3,1.9-0.4
	c0.9,4.1,1.8,8.2,2.7,12.3C465.7,632.5,465.1,632.6,464.4,632.6z"/>
<path fill-rule="evenodd" clip-rule="evenodd" d="M598.9,642.2c0.7,3.6,1.4,7.2,2.2,10.8c-0.5,0.1-1,0.3-1.4,0.4
	c-1-3.5-1.9-6.9-2.9-10.4C597.5,642.7,598.2,642.4,598.9,642.2z"/>
<path fill-rule="evenodd" clip-rule="evenodd" d="M550.4,639c0.2,3.3,0.3,6.7,0.5,10c-0.5,0-1,0-1.4,0c0-3.3,0-6.7,0-10
	C549.8,639,550.1,639,550.4,639z"/>
<path fill-rule="evenodd" clip-rule="evenodd" d="M619.7,644.4c0.9,2.9,1.9,5.9,2.8,8.8c-0.6,0.2-1.2,0.4-1.7,0.6
	c-1-2.9-1.9-5.8-2.9-8.8C618.5,644.8,619.1,644.6,619.7,644.4z"/>
<path fill-rule="evenodd" clip-rule="evenodd" d="M508.3,711.1c-9.7-2.5-19.3-5-29-7.5c0.2-0.7,0.4-1.4,0.5-2
	c8.5,2.1,17.1,4,25.6,6.3C506.6,708.1,507.4,710,508.3,711.1L508.3,711.1z"/>
<path fill-rule="evenodd" clip-rule="evenodd" d="M500.7,696.2c4.6,1.1,9.3,2.1,13.9,3.2c-0.1,0.7-0.3,1.4-0.4,2.2
	c-4.8-0.9-9.6-1.9-14.4-2.8C500.1,697.8,500.4,697,500.7,696.2z"/>
<path fill-rule="evenodd" clip-rule="evenodd" d="M508.3,711.1c4.6-0.5,9.2-1,13.8-1.4c0,0.7,0,1.5,0.1,2.2
	C517.5,711.6,512.9,711.4,508.3,711.1C508.3,711.1,508.3,711.1,508.3,711.1z"/>
<path fill-rule="evenodd" clip-rule="evenodd" d="M80,682.4c8.6,9.1,3,21.7,7.9,31.6c17.9,0,35.5,0,53.2,0c13,0,25.9-0.2,38.9,0.1
	c3.8,0.1,8.9-1.1,11.2,5.8c-3.1,0.2-5.7,0.5-8.3,0.5c-30.9,0.4-61.9,0.8-92.8,1.3c-2.9,0-5.8,0.3-8.6,0.2c-3.8-0.1-5.9-2.3-6.7-5.8
	C73.8,712.6,77.9,686.4,80,682.4z"/>
<path fill-rule="evenodd" clip-rule="evenodd" d="M133.6,288.3c-4.7,0-8.9-4.1-8.9-8.7c-0.1-6.5,5.6-12.9,11.5-13
	c4.8-0.1,10.1,5.5,9.9,10.6C145.9,282.7,139.6,288.3,133.6,288.3z M132.8,282.6c5.2-0.4,7.6-2.7,7.3-6.9c-0.1-1.1-2.2-2.1-3.8-3.4
	c-1.4,2.2-2.5,3.5-3.1,5.1C132.8,278.7,133,280.1,132.8,282.6z"/>
<path fill-rule="evenodd" clip-rule="evenodd" d="M131.7,696.3c20.3-3.8,40.6-5.6,61.1-3.3c-9.9,4.7-20.7,3-31.1,3.6
	C151.8,697.3,141.6,702.1,131.7,696.3z"/>
<path fill-rule="evenodd" clip-rule="evenodd" d="M505,49.8c0.2,7.3-6.9,14.9-12.3,15.1c-5,0.2-5.7-3.8-6-7.3
	c-0.4-6.3,5.6-14.2,10.2-13C500.2,45.3,502.9,48.4,505,49.8z"/>
<path fill-rule="evenodd" clip-rule="evenodd" d="M447.1,200.5c6.6-3.8,12.7-7.2,19.1-10.8C463.5,197.4,457.9,200.5,447.1,200.5z"/>
<path fill-rule="evenodd" clip-rule="evenodd" d="M826.3,480.1c0.9-3.9,1.8-6.9,2.3-9.9c0.5-2.9,0.5-5.9,0.8-9.7
	C834.8,468.6,834.1,473,826.3,480.1z"/>
<path fill-rule="evenodd" clip-rule="evenodd" fill="#FFFFFF" d="M132.8,282.6c0.1-2.4-0.1-3.9,0.4-5.1c0.6-1.6,1.8-2.9,3.1-5.1
	c1.6,1.3,3.7,2.3,3.8,3.4C140.5,279.9,138.1,282.2,132.8,282.6z"/>
<ellipse fill-rule="evenodd" clip-rule="evenodd" cx="457.8" cy="455.7" rx="3.6" ry="3.8"/>
<ellipse fill-rule="evenodd" clip-rule="evenodd" cx="479.6" cy="456.2" rx="3.2" ry="3.2"/>
<ellipse fill-rule="evenodd" clip-rule="evenodd" cx="762.5" cy="145.1" rx="3.6" ry="3.1"/>
</svg>
