<?xml version="1.0" encoding="utf-8"?>
<!DOCTYPE svg PUBLIC "-//W3C//DTD SVG 1.1//EN" "http://www.w3.org/Graphics/SVG/1.1/DTD/svg11.dtd">
<svg artist="zl2017" version="1.1" id="zlIcon-room-doors" xmlns="http://www.w3.org/2000/svg" xmlns:xlink="http://www.w3.org/1999/xlink" x="0px" y="0px"
	 width="1000px" height="716.9px" viewBox="0 0 1000 716.9" enable-background="new 0 0 1000 716.9" xml:space="preserve">
<path fill-rule="evenodd" clip-rule="evenodd" fill="#FFFFFF" d="M0.5,695.8c0-231.1,0-462.2,0-693.3c4.1-0.1,8.2-0.1,12.3-0.2
	c1.5,0,3.1-0.4,4.6-0.2C23.1,3,28.7,2.6,34.3,2.6c6.8,0,13.7-0.3,20.5-0.1c8.2,0.2,16.4-0.1,24.7-0.1c8.7,0,17.5,0.2,26.2,0.3
	c11.8,0.2,23.6-0.4,35.5,0.4c3.6,0.3,7.2,0,11.1,0c0.8-0.7,2-1.7,2.9-2.6c0.9,0,1.4-0.1,1.9,0c3.4,0.6,6.7,1.3,10.2,1.1
	c1.5-0.1,3.3,0.2,4.4,1c2.8,2,5.8,1.8,8.9,1.8c9.4-0.1,18.9-0.2,28.3-0.2c9.1,0,18.2,0,27.3,0c7.9,0,15.8,0,23.7,0
	c1.7,0,3.6,0.2,4.9-1c2.8-2.5,6.3-2.4,9.5-3.2c1.7-0.4,3.3,0.1,5,0.8c3.3,1.4,6.7,2.6,10.4,2.5c7.2-0.1,14.4-0.1,21.6,0
	c9.9,0.2,19.9-0.1,29.8-0.2c3.8,0,7.6,0.3,11.3,0c8.2-0.6,16.4-0.2,24.7,0c11.8,0.3,23.6,0.3,35.5,0.5c1.4,0,2.7,0.1,4.1,0.1
	c5.8,0.2,11.6,0.4,17.5,0.5c1.6,0,3.7-0.2,4.9-1.1c2.9-2.4,6.2-2.4,9.7-2.6c3.6-0.3,6.4,0.8,8.7,3.4c1.2,1.5,2.7,2.1,4.5,2.1
	c1,0,2.1,0,3.1,0c9.6-0.1,19.2-0.3,28.8-0.3c8,0,16.1,0.2,24.1,0.1c11.8-0.2,23.6-0.4,35.5,0.1c1.2,0,2.4,0,3.4,0
	c0.8-1.1,1.3-1.9,1.7-2.4c2.7-0.5,5.1-0.9,7.4-1.4c1.7-0.4,3.5-0.6,5,0.4c2.5,1.6,5.1,1.7,7.9,1.6c6.2-0.2,12.3-0.5,18.5-0.5
	c10.6-0.2,21.2-0.2,31.9-0.3c8.1-0.1,16.1-0.2,24.2-0.2c16.3,0.1,32.6,0.6,48.8,0.4c9.7-0.1,19.4,1.4,29.1-0.8
	c3.3-0.8,6.8-0.7,10.2-1c1.4-0.1,2.9-0.1,3.6,1.3c1,1.8,2.6,2,4.4,2c1.9-0.1,3.8,0,5.7,0.1c5.3,0.1,10.6,0.5,15.9,0.2
	c7.5-0.5,15.1-0.2,22.6-0.1c12.9,0.2,25.7,0,38.6,0c2.8,0,5.5,0,8.1-1.1c1.6-0.7,3.3-0.7,5,0.2c3,1.8,5.9,1.6,8.6-0.5
	c1.8-1.4,3.7-1.5,5.8-0.9c1.6,0.4,3.4,0.6,5.1,0.6c8.2,0,16.4,0,24.7-0.1C900.4,3.3,911.7,2.2,923,3c0.3,0,0.7,0,1,0
	c8-0.2,16.1-0.9,24.1,0.1c0.5,0.1,1,0,1.5,0c6.8,0,13.7-0.5,20.5,0c7,0.4,14,0.1,21.1,0c2.6,0,5.1,0.2,7.7,1.5
	c0.1,1.5,0.3,3,0.4,4.5c0.1,3.4,0,6.8,0,10.3c0,12.5,0.1,25,0.1,37.5c0,22.5-0.1,44.9-0.2,67.4c-0.1,29-0.4,57.9-0.5,86.9
	c-0.1,21.3-0.2,42.5-0.3,63.8c-0.3,44.6-0.7,89.1-1,133.7c-0.2,27.3-0.5,54.5-0.6,81.8c-0.2,30.2-0.3,60.3-0.5,90.5
	c-0.1,20.1-0.3,40.1-0.7,60.2c-0.2,8.4,0.8,16.8-1.1,25.1c-0.1,0.3-0.1,0.7,0,1c1.1,2.6,0.3,5.4,0.8,8.1c0.3,2.1-0.2,3.7-1.7,5.1
	c-1.1,1-1.8,2.1-1.8,3.5c-0.3,0-0.6-0.1-0.9-0.1c0.3,0,0.6,0.1,0.9,0.1c0.1,0.4,0.4,1,0.3,1.2c-0.8,0.8-1.8,1.6-2.7,2.3
	c-0.9,0.6-2.8,0.8-2,2.3c0.6,1.2,1.8,0,2.7-0.3c0.5-0.2,1-0.4,1.5-0.4c0.3,0,0.8,0.2,0.9,0.4c0.2,0.4,0.4,1.1,0.2,1.4
	c-0.8,0.8-1.7,1.7-2.7,2.3c-1,0.5-2.3,0.7-3.4,1c-0.2,0.1-0.3,0.6-0.5,1c1,0.8,2,1.7,3.2,2.7c-0.8,1.1-1.5,2-2.1,3
	c-0.6,1-1.5,2-1.6,3.1c-0.2,3.3-2.1,4.9-4.9,5.9c-1.1,0.4-2.2,0.9-3.3,1.3c-1.5,0.5-2.8,1.3-3.4,2.9c-0.6,1.6-2,2.4-3.5,2.6
	c-1.7,0.2-3.4,0.5-5.1,0.3c-3-0.4-5.9-1.2-10-2c2.5-0.6,4-0.9,5.4-1.2c2-0.5,2.2-1.1,1.7-3.9c-4.3-1.4-8.7-1.4-13.2-1.1
	c-3.4,0.2-6.8,0.5-10.3,0.5c-22.8,0-45.6,0.3-68.4-0.6c-11.1-0.5-22.3-0.3-33.4-0.6c-11.6-0.2-23.3-0.5-34.9-0.8
	c-0.9,0-1.7-0.1-2.6-0.1c-8.6-0.3-17.1-0.5-25.7-0.8c-3.4-0.1-6.9-0.2-10.3-0.3c-0.7,0-1.3-0.3-1-1.6c1.4-0.1,2.9-0.3,4.4-0.4
	c3.8,0,7.5,0,11.3,0c0.6,0,1.4,0,1.3-1.3c-2-0.6-4-0.4-6,0c-3.2,0.7-6.4,0.5-9.7,0.1c-3.4-0.4-6.9-0.6-10.2-0.2
	c-3.8,0.5-7.5,0.7-11.2,0.2c-3.4-0.4-6.8-0.1-9.9,2c-0.8,0.5-1.9,1-2.8,1.1c-4.9,0.3-9.9,0.4-14.8,0c-0.1-1.1-0.2-1.8-0.3-2.6
	c-2.3-1.1-4.8-0.9-7.1-0.9c-19-0.1-38.1-0.1-57.1-0.3c-9.3-0.1-18.5-0.6-27.7-0.8c-23.3-0.4-46.6-0.8-69.9-1
	c-11.8-0.1-23.7,0.1-35.5,0c-20.1-0.1-40.1-0.2-60.2-0.3c-3.4,0-6.9-0.2-10.3-0.2c-6.5,0-13-0.3-19.5,0.2c-6.3,0.4-12.6,0.5-19,0.4
	c-19.7-0.2-39.4-0.3-59.1-0.3c-20.1,0-40.1,0-60.2,0c-13.7,0-27.4-0.1-41.1-0.1c-15.9,0-31.9,0.1-47.8,0.1
	c-11.8,0-23.7,0.1-35.5,0.1c-10.8,0-21.6,0.1-32.4,0.1c-18.2,0-36.3-0.1-54.5-0.2c-18.9-0.1-37.7-0.2-56.6-0.4
	c-5.3-0.1-10.6-0.6-15.8-0.9c-0.6-1.1-1-2-1.5-2.9C2.5,695.8,1.5,695.8,0.5,695.8z M933.5,71c1.1-1.1,2-2.3,3.2-3.3
	c4.3-3.7,8.7-7.2,13-10.8c1.3-1.1,2.7-2.1,3.9-3.4c4.3-4.4,8.5-8.9,13.1-13c4.6-4.1,9-8.4,14.4-11.5c2.2-1.2,4.1-3.1,6.1-4.7
	c0.1-0.1,0.3-0.2,0.4-0.4c0.7-0.7,0.8-1.9,0.1-2.2c-0.5-0.2-1.4-0.2-1.8,0.1c-3.2,2.3-6.3,4.7-9.5,7c-1.9,1.4-4,2.7-5.7,4.3
	c-8.6,7.9-17,15.9-25.5,23.8c-3.9,3.6-8,7-11.9,10.5c-1.3,1.2-2.7,1.2-4.3,0.6c-4.6-2-8.9-4.4-12.7-7.7c-0.3-0.3-0.5-0.8-0.8-1.4
	c0.6-0.5,1-0.9,1.6-1.3c5.3-4.3,10.8-8.5,15.5-13.5c1.3-1.4,2.7-2.6,4.2-3.8c3.2-2.8,6.6-5.5,9.8-8.3c0.7-0.6,1.8-1.1,0.9-2.8
	c-1.1,0.7-2.3,1.2-3.3,2c-4.4,3.8-8.8,7.7-13.1,11.6c-4.2,3.7-8.4,7.5-12.7,11.2c-1.8,1.6-4,2.6-6.2,3.5c-4.5,1.9-9.3,2.5-13.9,3.2
	c-9.5,1.4-19,2.7-28.6,1.5c-2.9-0.4-5.8-0.2-8.7-0.4c-4.4-0.2-8.9-0.7-13-2.1c-1.2-1.6-2.3-3.2-3.5-4.7c-2.5-3.2-5.1-6.5-7.7-9.6
	c-0.6-0.7-1.3-1.8-2.8-0.6c2.9,4,5.7,8,8.8,11.9c1.5,1.9,2.9,3.8,4.2,5.8c1.2,1.9,1.9,4,1,6.4c-1.6,0.3-3.1,0.7-4.7,0.7
	c-6.2,0.2-12.3,0.4-18.5,0.5c-1.4,0-2.8-0.1-4.1,0.2c-5.4,1.2-10.9,0.9-16.4,0.9c-5.7,0-11.3-0.3-16.9,0.2c-7,0.6-14,0.2-21,0.2
	c-10.3,0-20.5-0.6-30.8-1.3c-14.9-1-29.8-0.8-44.7-0.8c-6.2,0-12.3-0.2-18.5-0.3c-1.2,0-2.4,0-3.6,0.1c-6.7,0.3-13.3,0.8-20,1
	c-5.3,0.2-10.6,0-15.9,0.1c-11.1,0.2-22.3,0.4-33.4,0.7c-10.6,0.3-21.2,0.7-31.8,1.1c-3.6,0.2-7.1,0.8-10.7,0.9
	C546,73.4,535,74,524.1,73.4c-0.5,0-1,0-1.5,0.1c-7.9,0.1-15.8,0.5-23.6,0.3c-13.4-0.3-26.7-0.4-40.1-0.2c-3.4,0.1-6.9,0.1-10.3,0.1
	c-1.1,0-2.3-0.4-3.7-0.6c0.1-2.1,0.2-4,0.4-5.8c0.7-7.2,1-14.3,0.3-21.5c-0.5-5.1-3.3-7.5-7.5-9.2c-1-0.4-1.9-0.9-2.9-0.9
	c-6.1-0.4-12-2.9-18.3-1.2c-0.3,0.1-0.7,0-1,0c-8.6-0.2-17.1-0.1-25.7-0.3c-14.7-0.4-29.4-0.8-44.1,0.3c-4.2,0.3-8.2-0.1-11.9-2
	c-0.3-0.1-0.7,0-1.1,0c-1.3,0.6-2.1,2-3.9,1.9c-7.2-0.4-14.4-0.5-21.6-0.9c-7.9-0.5-15.7-1.1-23.6-1c-3.9,0.1-7.9,0.2-11.8-0.1
	c-7.7-0.5-15.4,0.1-23.1,0.2c-3.9,0-7.8-1-11.6,0.4c-6.8,0-13.7,0.1-20.5-0.1c-11.5-0.4-23-0.6-34.4,0c-7.8,0.4-15.7-0.4-23.5,1.2
	c-0.6,0.1-1.5,0-1.9-0.4c-2.3-1.9-5.2-1.5-7.8-1.9c-2.2-0.4-4.6,0.4-6.6,1.8c-0.6,0.4-1.5,0.8-2.3,0.8c-2.4,0.1-4.8,0.1-7.2,0.1
	c-1.9,0-3.8-0.5-5.6-0.4c-8.8,0.7-17.5-0.3-26.2-0.6c-7.7-0.3-15.4-0.7-23.1-1c-2.6-0.1-5.5,1-7.3-2c-3.3-0.4-6.6-2-9.8,0.5
	c-2.5,1.9-5.4,2.7-8.6,2.9c-3.2,0.2-6.4,0.8-9.8,1.2c-0.1-0.1-0.6-0.4-0.9-0.8c-4.2-6.5-8.4-12.9-12.6-19.4C27,11.3,24.9,8,22.6,4.8
	c-0.4-0.6-1.3-0.8-2-1.2c-1,2.2-0.9,3.9,0.3,5.6c1.2,1.7,1.9,3.7,3.1,5.3c5,6.9,9.1,14.5,14.6,21.1c0.3,0.4,0.4,0.9,0.5,1.1
	c-0.7,2.6-4,3.6-3.3,7.2c1.5-1.5,2.7-2.7,3.9-3.9c1.7-1.7,3.8-3,6.2-3.5c2.7-0.6,5.4-1,8.1-1.7c1.6-0.4,3.1-0.2,4.5,0.4
	c0.4,0.2,0.6,0.9,1.1,1.7c-3,0.7-5.9,0.9-8.3,2c-2.6,1.3-5.5-0.4-8,1.4c-0.3,0.5-0.6,1.2-1,1.7c-3.5,4.1-4.6,9-4.7,14.3
	c0,4.1-0.5,8.2-0.6,12.3c-0.2,8.2-1.2,16.4-0.8,24.6c0.1,1.7,0,3.4-0.2,5.1c-0.1,0.7,0.1,1.8-1.4,2.1c-0.1-0.8-0.3-1.6-0.3-2.4
	c-0.3-3.9,0.6-7.9,0.3-11.7c-0.4-5.1,1.3-10.2,0.1-15.3c-0.4-1.5,0.8-3.3,0.8-5c0-4.1-0.1-8.2-0.5-12.3c-0.2-2.4-0.7-4.7-0.1-7.1
	c-0.6,1.6-1.2,3.2-1.3,4.8c-0.2,3.6-0.2,7.2-0.2,10.8c0,1.9,0.4,3.9,0,5.6c-1.2,5.1,0.8,10.3-0.7,15.3c0.7,3.4,0.2,6.8-0.3,10.2
	c-0.2,1.1,0.2,2.4,0.2,3.6c0,1.2,0,2.4,0,3.4c-3,2.2-3,2.2-3,5.4c0,0.7,0.1,1.4,0,2.1c-0.3,2.5,0,4.7,1.7,6.7c0.8,1,0.7,2.2,0.6,3.4
	c-0.6,7.3-1.5,14.7-1.1,22.1c0.2,3.4,0.5,6.8,0.6,10.2c0.1,10.1,0,20.2-0.1,30.3c0,0.9,0,1.7-0.1,2.6c-0.2,0.8-0.3,1.8-0.9,2.3
	c-1.8,1.5-2.2,3.4-2.2,5.5c-0.1,3.2-0.1,6.5-0.1,9.7c0,1-0.1,2.2,0.4,3c0.5,1,1.5,1.6,2.3,2.4c0,7.7,0.1,15.2,0,22.7
	c-0.1,7.7-0.4,15.4,0.6,23.1c0.1,0.8,0.1,1.7-0.1,2.6c-1.2,6.3,0,12.6-0.5,18.9c-0.3,4.6,0.3,9.2,0.5,13.8c0,1.2,0,2.4-1.1,3.3
	c-1.3,1.1-1.4,2.7-1.4,4.2c0,1.9-0.1,3.8-0.2,5.7c-0.1,1.8-0.1,3.5,1,4.9c1.4,1.8,1.4,3.8,1.2,5.9c-0.3,3.2-1,6.5-0.9,9.7
	c0.1,10.8-1.7,21.5-1.3,32.3c0,0.5-0.1,1-0.2,1.8c-1.8,1.6-3.6,3.3-5.6,5c-1.5,1.3-2.4,2.7-2.4,4.8c-0.2,6.3-0.7,12.7-0.9,19
	c-0.1,2.4,0.1,4.8,0.2,7.3c3.6,2.7,8.1,2.9,11.6,5.3c0.9-0.7,1.7-1.1,2.2-1.7c2.6-2.8,5.9-4.6,9.2-6.5c1.2-0.7,2.3-1.5,3.5-2
	c3.4-1.5,4.4-4.1,3.6-7.6c-0.8-3.7-0.9-7.5-0.9-11.2c0-2.9,0-5.8-0.9-8.2c-4.1-1.1-7.9-2.2-11.8-3.3c-0.7-5.8-0.3-11.4,0-17
	c0.2-4.8,0.5-9.6,0.5-14.3c-0.1-6.5-0.6-12.9,1.3-19.3c0.1-0.5,0.1-1,0-1.5c-0.1-2.9-0.1-5.8-0.2-8.7c-0.1-3.4-0.8-6.8-1-10.1
	c-0.3-5.6,0-11.3,0-16.9c0-4.4,0.3-8.9-0.2-13.3c-0.4-4.1,0.2-8.2,0.3-12.3c0.1-6.3-0.1-12.7,0.1-19c0.2-6.3-0.6-12.5,0.7-18.9
	c0.9-4.6,0.3-9.6,0.4-14.4c0.2-7-0.6-13.9,0.5-20.9c0.6-3.8,0.2-7.8,0.2-11.8c0-4.3,0.1-8.5,0.1-12.8c0-5.6,0.1-11.3,0-16.9
	c0-3.9-0.2-7.8-0.3-11.8c0-0.6,0-1.5,0.4-1.9c1.1-1.1,1-2.4,0.9-3.8c-0.2-3,0.5-6.2-1.1-9c-0.3-0.5-0.1-1.3,0-2c0-2.6,0-5.1,0.1-7.7
	c0.3-11,0.7-21.9,1.1-32.9c0.1-3.1,0.7-6.1,1.2-9.2c0.3-2.3,1.3-4.2,3.5-5.6c0.7,0.8,1.4,1.5,2.1,2.3c5.4,5.9,10.7,12,16.3,17.8
	c2.1,2.1,3.8,4.3,5.5,6.7c0.9,1.3,1.4,2.7,1.3,4.3c-0.1,7.7,0.1,15.4-0.2,23.1c-0.2,5.5-1.1,10.9-0.4,16.4c0.1,0.5,0,1-0.1,1.5
	c-1,7-1,14-1.1,21c-0.1,5.3,0,10.7-0.7,15.9c-0.9,7.1-1.6,14.3-1.6,21.5c0,3.8,0.1,7.5,0,11.3c-0.3,13.7-0.9,27.4-1,41.1
	c-0.1,9.1-0.9,18.1-1.7,27.2c-0.5,6.5-0.4,13-0.3,19.5c0.2,8,2.1,16,1.2,24c0,0.3,0.1,0.7,0.1,1c0.2,12.3,0.4,24.7,0.6,37
	c0.2,10-1,19.8-1.8,29.7c-0.1,1.9-0.3,3.8-0.2,5.6c0.8,9.6,0.8,19.2,0.6,28.8c0,2.4,0,4.8,0.1,7.2c0.2,3.9,0.7,7.8,0.8,11.8
	c0.2,10.3,0.2,20.5,0.3,30.8c0.2,16.4,0.3,32.9,0,49.3c0,0.9-0.1,1.7,0.1,2.6c1,4.4,0.4,8.9,0.2,13.3c-0.1,2.5-0.6,4.7-1.9,6.8
	c-2.6,4.2-5,8.6-7.8,12.7c-3.6,5.4-7.6,10.6-11.3,15.9c-1.4,2-2.6,4-4,6c-6.4,9.1-13,18.1-19.2,27.3c-4.8,7.1-9.2,14.4-13.8,21.6
	c-0.2,0.3-0.4,0.6-0.4,0.9c0,0.5,0.1,1.1,0.5,1.3c0.3,0.3,1.1,0.4,1.4,0.2c0.6-0.3,1-0.9,1.4-1.5c2.5-3.9,4.8-7.9,7.4-11.7
	c6.8-9.9,13.7-19.7,20.5-29.5c2-2.8,3.7-5.8,5.8-8.5c6.5-8.2,12.3-16.9,17.8-25.8c1.5-2.5,3.2-4.8,4.9-7.2c0.9-1.4,2.2-2,3.9-2.1
	c3.8-0.2,7.5-0.8,11.3-0.7c18,0.1,35.9,0.3,53.9,0.5c0.9,0,1.7,0,2.6,0.2c12.6,1.5,25.3,1.6,38,0.4c3.1-0.3,6.2-0.4,9.2-0.4
	c9.9,0.1,19.9,0.3,29.8-0.2c3.9-0.2,7.9-0.1,11.8-0.1c5.1,0,10.3,0.1,15.4,0.1c2.9,0,5.8-0.4,8.7-0.4c12.8-0.3,25.7,0.3,38.5-0.8
	c7.7-0.7,15.4-0.7,23.1-0.9c16.4-0.4,32.9-1.2,49.3-2.5c7.4-0.6,14.7-1.1,22.1-1c4.3,0.1,8.6,0.3,12.8,0.2
	c11.1-0.2,22.3,0.3,33.4-0.9c3.6-0.4,7.2-0.2,10.8-0.3c4.3-0.2,8.5-0.4,12.8-0.5c2-0.1,4.1-0.1,6.1,0.2c3.1,0.4,6.1,0.6,9.2,0.3
	c7.8-0.7,15.6-1.5,23.5-1.6c14-0.2,28.1-0.7,42.1-1.1c4.1-0.1,8.3,0.3,12.3-0.3c7.7-1.1,15.4-0.4,23.1-0.6
	c7.5-0.2,15.1-0.3,22.6-0.6c4.3-0.1,8.5-0.5,12.8-0.7c3.6-0.2,7.2-0.2,10.8-0.3c7.4-0.2,14.7-1.1,22.1-0.4c2.7,0.2,5.4,0.9,8.1,1
	c6.3,0.4,12.6,0.7,19,0.8c5.8,0.1,11.6,0.2,17.5,0.1c4.6-0.1,9.2-0.8,13.8-1.1c9.1-0.7,18.1-1.2,27.2-1.9c4.1-0.3,8.2-0.9,12.3-1.1
	c8.7-0.4,17.4-0.8,26.2-1c10.8-0.3,21.6-0.6,32.3,0.7c1.9,0.2,3.8,0.2,5.6,0.3c4.8,0.1,9.6,0.3,14.4,0.4c3.9,0.1,7.9,0.2,11.8,0.3
	c10.3,0.1,20.6-0.3,30.8,0.8c1.7,0.2,3.4,0.2,5.1,0.2c6.3,0,12.7,0,19,0.1c15.5,0.1,31.1,0.1,46.9-0.3c7.9,11.9,13,25.3,17.5,38.9
	c2.4,1,4.8,0.7,7.2,0.7c3.6,0,7.2,0.2,10.7,0.5c0.7,0.1,1.4,0.8,2.1,1.2c-0.1,5.7-0.2,11.2-1.4,16.6c-0.4,2-0.2,4.4-1.1,6
	c-1.5,2.5-1.3,4.4,0.5,6.5c0.4,0.5,0.7,1.2,1,1.8c2.7,5.3,5.3,10.7,8.1,16c2.2,4.3,4.4,8.5,6.7,12.7c2,3.6,4.1,7.1,6.4,11.1
	c0.7-1,1.3-1.5,1.2-2c-0.1-0.8-0.5-1.6-0.9-2.3c-1.9-3.4-4-6.8-5.8-10.3c-4-7.6-7.9-15.2-11.8-22.8c-0.6-1.2-1.4-2.5-1.5-3.8
	c0-4.6-0.7-9.3,0.7-13.8c1-3.4,1.2-6.7,1.3-10.1c0-1,0.3-2,0.4-3.1c0.4-5,1.2-9.9,1-14.9c-0.2-7.8-2.2-15.2-5-22.4
	c-0.6-1.6-1.5-3.1-2.3-4.6c-0.7-1.3-1.7-2.1-3.1-2.5c-4.3-1.2-8.2,0.3-10.6,4.1c-0.4,0.7-0.9,1.5-1.1,2.3c-0.8,3-1.6,5.9-2.1,9
	c-0.3,2.4-1.1,4.5-2.5,6.9c-0.6-1-1.1-1.7-1.4-2.5c-1.4-2.9-2.6-6-4.3-8.7c-2.5-3.8-4-7.8-3.8-12.5c0-0.8-0.2-1.7-0.2-2.6
	c0-3.9-0.4-7.9,0.1-11.8c1.4-10.9,1.2-21.9,2-32.8c0-0.5,0-1,0-1.5c0-9.4,0-18.8,0-28.2c0-1.5,0-3.1,0.2-4.6c0.8-8,1.3-16,1.1-24.1
	c-0.1-4.5,0-8.9,0-13.4c0.1-5.5,0.1-11,0.3-16.4c0.3-6.5,0.9-13,1-19.5c0.1-5.6-0.4-11.3-0.4-16.9c-0.1-8.7,0.1-17.5,0-26.2
	c-0.2-9.6-0.6-19.2-0.8-28.8c-0.1-5.6-0.8-11.3,0.3-16.9c0.2-1,0.2-2.1,0.1-3.1c-0.8-14-0.9-28.1-1.1-42.1c0-2.7,0-5.5-0.1-8.2
	c-0.1-4.6-0.4-9.2-0.4-13.9c-0.1-8.1,0.3-16.1-0.4-24.1c-0.6-7.7-0.3-15.4-0.5-23.1c-0.1-6.2,0-12.3-0.1-18.5
	c-0.1-4.6-0.6-9.2-0.8-13.8c-0.1-1.5,0.1-3.1,0.2-4.6c0.1-1.5,0.5-3.1,0.3-4.6c-0.4-3.2,0.8-5.3,3.7-6.6c1.2-0.6,2.5-1.1,3.6-1.9
	c3-2,6.9-2.1,9.5-4.8c0.5-0.5,1.6-0.6,2.4-0.6c5.3-0.2,10.6-0.3,15.9-0.4c2.2-0.1,4.5-0.1,6.7-0.3c0.5,0,0.8-0.8,1.6-1.5
	c-1.2-0.2-1.9-0.4-2.5-0.3c-6,0.2-12,0.5-18,0.7c-10,0.4-7.9,0.1-14.4-4.8c-1.8-1.3-3.5-2.9-4.7-4.7C936.5,77.4,935.2,74.3,933.5,71
	z M489,695.5c0.1,0,0.3-0.1,0.4-0.1c-0.2,0-0.5-0.1-0.7-0.1C488.8,695.4,488.9,695.5,489,695.5z"/>
<path fill-rule="evenodd" clip-rule="evenodd" d="M933.5,71c1.7,3.3,3,6.4,4.8,9.3c1.2,1.8,2.9,3.4,4.7,4.7
	c6.5,4.9,4.5,5.2,14.4,4.8c6-0.2,12-0.5,18-0.7c0.7,0,1.3,0.2,2.5,0.3c-0.8,0.7-1.2,1.5-1.6,1.5c-2.2,0.2-4.4,0.2-6.7,0.3
	c-5.3,0.1-10.6,0.3-15.9,0.4c-0.8,0-1.9,0.1-2.4,0.6c-2.6,2.7-6.5,2.9-9.5,4.8c-1.1,0.7-2.4,1.3-3.6,1.9c-2.8,1.3-4.1,3.3-3.7,6.6
	c0.2,1.5-0.2,3.1-0.3,4.6c-0.1,1.5-0.3,3.1-0.2,4.6c0.2,4.6,0.7,9.2,0.8,13.8c0.2,6.2,0,12.3,0.1,18.5c0.1,7.7-0.2,15.4,0.5,23.1
	c0.7,8,0.3,16.1,0.4,24.1c0.1,4.6,0.3,9.2,0.4,13.9c0.1,2.7,0.1,5.5,0.1,8.2c0.2,14,0.3,28.1,1.1,42.1c0.1,1,0,2.1-0.1,3.1
	c-1,5.6-0.4,11.3-0.3,16.9c0.2,9.6,0.7,19.2,0.8,28.8c0.1,8.7-0.1,17.4,0,26.2c0.1,5.6,0.5,11.3,0.4,16.9c-0.1,6.5-0.7,13-1,19.5
	c-0.2,5.5-0.2,10.9-0.3,16.4c0,4.5-0.1,8.9,0,13.4c0.2,8.1-0.4,16.1-1.1,24.1c-0.1,1.5-0.2,3.1-0.2,4.6c0,9.4,0,18.8,0,28.2
	c0,0.5,0.1,1,0,1.5c-0.7,10.9-0.6,21.9-2,32.8c-0.5,3.9-0.1,7.9-0.1,11.8c0,0.9,0.2,1.7,0.2,2.6c-0.3,4.6,1.3,8.6,3.8,12.5
	c1.8,2.7,2.9,5.8,4.3,8.7c0.4,0.8,0.8,1.5,1.4,2.5c1.5-2.3,2.2-4.5,2.5-6.9c0.4-3,1.3-6,2.1-9c0.2-0.8,0.7-1.6,1.1-2.3
	c2.4-3.9,6.2-5.3,10.6-4.1c1.4,0.4,2.5,1.2,3.1,2.5c0.8,1.5,1.7,3,2.3,4.6c2.7,7.2,4.8,14.7,5,22.4c0.1,4.9-0.6,9.9-1,14.9
	c-0.1,1-0.3,2-0.4,3.1c-0.1,3.4-0.3,6.8-1.3,10.1c-1.4,4.5-0.8,9.2-0.7,13.8c0,1.3,0.8,2.6,1.5,3.8c3.9,7.6,7.8,15.2,11.8,22.8
	c1.8,3.5,3.9,6.8,5.8,10.3c0.4,0.7,0.8,1.5,0.9,2.3c0,0.5-0.6,1-1.2,2c-2.3-4-4.4-7.5-6.4-11.1c-2.3-4.2-4.5-8.4-6.7-12.7
	c-2.7-5.3-5.4-10.7-8.1-16c-0.3-0.6-0.5-1.3-1-1.8c-1.8-2.1-2-3.9-0.5-6.5c1-1.6,0.7-4,1.1-6c1.2-5.4,1.3-10.9,1.4-16.6
	c-0.7-0.4-1.3-1.2-2.1-1.2c-3.6-0.3-7.2-0.5-10.7-0.5c-2.4,0-4.8,0.3-7.2-0.7c-4.5-13.6-9.6-27-17.5-38.9
	c-15.9,0.4-31.4,0.4-46.9,0.3c-6.3,0-12.6,0-19-0.1c-1.7,0-3.4,0-5.1-0.2c-10.2-1.1-20.5-0.7-30.8-0.8c-3.9,0-7.9-0.2-11.8-0.3
	c-4.8-0.1-9.6-0.2-14.4-0.4c-1.9-0.1-3.8-0.1-5.6-0.3c-10.8-1.3-21.6-1-32.3-0.7c-8.7,0.2-17.4,0.6-26.2,1
	c-4.1,0.2-8.2,0.8-12.3,1.1c-9.1,0.7-18.1,1.3-27.2,1.9c-4.6,0.3-9.2,1-13.8,1.1c-5.8,0.2-11.6,0.1-17.5-0.1
	c-6.3-0.2-12.7-0.5-19-0.8c-2.7-0.2-5.4-0.8-8.1-1c-7.4-0.7-14.7,0.2-22.1,0.4c-3.6,0.1-7.2,0.2-10.8,0.3c-4.3,0.2-8.5,0.5-12.8,0.7
	c-7.5,0.2-15.1,0.4-22.6,0.6c-7.7,0.2-15.4-0.5-23.1,0.6c-4,0.6-8.2,0.2-12.3,0.3c-14,0.4-28.1,0.9-42.1,1.1
	c-7.9,0.1-15.7,0.9-23.5,1.6c-3.1,0.3-6.1,0.1-9.2-0.3c-2-0.3-4.1-0.2-6.1-0.2c-4.3,0.1-8.6,0.4-12.8,0.5c-3.6,0.1-7.2-0.1-10.8,0.3
	c-11.1,1.2-22.3,0.7-33.4,0.9c-4.3,0.1-8.6-0.1-12.8-0.2c-7.4-0.2-14.7,0.4-22.1,1c-16.4,1.3-32.8,2.1-49.3,2.5
	c-7.7,0.2-15.4,0.2-23.1,0.9c-12.8,1.2-25.7,0.6-38.5,0.8c-2.9,0.1-5.8,0.4-8.7,0.4c-5.1,0-10.3-0.1-15.4-0.1
	c-3.9,0-7.9-0.1-11.8,0.1c-9.9,0.5-19.8,0.3-29.8,0.2c-3.1,0-6.2,0.1-9.2,0.4c-12.7,1.2-25.3,1.1-38-0.4c-0.8-0.1-1.7-0.1-2.6-0.2
	c-18-0.2-35.9-0.4-53.9-0.5c-3.8,0-7.5,0.5-11.3,0.7c-1.7,0.1-3,0.8-3.9,2.1c-1.6,2.4-3.4,4.8-4.9,7.2c-5.5,8.9-11.2,17.6-17.8,25.8
	c-2.1,2.7-3.8,5.7-5.8,8.5c-6.8,9.9-13.7,19.7-20.5,29.5c-2.6,3.8-4.9,7.8-7.4,11.7C9,606.1,8.5,606.7,8,607
	c-0.3,0.2-1.1,0.1-1.4-0.2c-0.3-0.3-0.4-0.9-0.5-1.3c0-0.3,0.2-0.6,0.4-0.9c4.6-7.2,9-14.6,13.8-21.6c6.3-9.2,12.8-18.2,19.2-27.3
	c1.4-2,2.6-4,4-6c3.8-5.3,7.7-10.5,11.3-15.9c2.8-4.1,5.2-8.5,7.8-12.7c1.3-2.1,1.8-4.4,1.9-6.8c0.2-4.4,0.8-8.9-0.2-13.3
	c-0.2-0.8-0.1-1.7-0.1-2.6c0.3-16.4,0.2-32.9,0-49.3c-0.1-10.3-0.1-20.5-0.3-30.8c-0.1-3.9-0.6-7.8-0.8-11.8
	c-0.1-2.4-0.1-4.8-0.1-7.2c0.2-9.6,0.2-19.2-0.6-28.8c-0.2-1.9,0-3.8,0.2-5.6c0.8-9.9,1.9-19.8,1.8-29.7c-0.2-12.3-0.4-24.7-0.6-37
	c0-0.3-0.2-0.7-0.1-1c0.9-8.1-1-16-1.2-24c-0.1-6.5-0.3-13,0.3-19.5c0.8-9,1.6-18.1,1.7-27.2c0.1-13.7,0.7-27.4,1-41.1
	c0.1-3.8,0-7.5,0-11.3c0-7.2,0.7-14.3,1.6-21.5c0.7-5.2,0.6-10.6,0.7-15.9c0.1-7,0.1-14,1.1-21c0.1-0.5,0.2-1,0.1-1.5
	c-0.7-5.5,0.1-10.9,0.4-16.4c0.3-7.7,0.1-15.4,0.2-23.1c0-1.6-0.4-3-1.3-4.3c-1.7-2.3-3.5-4.6-5.5-6.7c-5.6-5.7-10.9-11.8-16.3-17.8
	c-0.7-0.7-1.4-1.5-2.1-2.3c-2.2,1.4-3.2,3.4-3.5,5.6c-0.5,3-1,6.1-1.2,9.2c-0.5,11-0.8,21.9-1.1,32.9c-0.1,2.6-0.1,5.1-0.1,7.7
	c0,0.7-0.2,1.5,0,2c1.7,2.9,0.9,6,1.1,9c0.1,1.4,0.2,2.7-0.9,3.8c-0.4,0.4-0.4,1.3-0.4,1.9c0.1,3.9,0.2,7.8,0.3,11.8
	c0,5.6,0,11.3,0,16.9c0,4.3,0,8.5-0.1,12.8c0,3.9,0.4,7.9-0.2,11.8c-1.1,7-0.3,14-0.5,20.9c-0.1,4.8,0.5,9.7-0.4,14.4
	c-1.3,6.3-0.5,12.6-0.7,18.9c-0.2,6.3,0,12.7-0.1,19c0,4.1-0.6,8.2-0.3,12.3c0.4,4.5,0.2,8.9,0.2,13.3c0,5.6-0.3,11.3,0,16.9
	c0.2,3.4,0.9,6.7,1,10.1c0.1,2.9,0.1,5.8,0.2,8.7c0,0.5,0.1,1.1,0,1.5c-1.9,6.3-1.4,12.8-1.3,19.3c0.1,4.8-0.3,9.6-0.5,14.3
	c-0.2,5.6-0.7,11.3,0,17c3.9,1.1,7.6,2.1,11.8,3.3c0.9,2.5,0.9,5.4,0.9,8.2c0,3.8,0.1,7.5,0.9,11.2c0.8,3.4-0.3,6-3.6,7.6
	c-1.2,0.6-2.4,1.4-3.5,2c-3.3,1.8-6.6,3.7-9.2,6.5c-0.6,0.6-1.3,1-2.2,1.7c-3.5-2.3-8-2.5-11.6-5.3c-0.1-2.5-0.3-4.9-0.2-7.3
	c0.3-6.3,0.7-12.7,0.9-19c0.1-2.1,0.9-3.5,2.4-4.8c1.9-1.7,3.8-3.4,5.6-5c0.1-0.8,0.3-1.3,0.2-1.8c-0.3-10.8,1.5-21.5,1.3-32.3
	c0-3.2,0.6-6.5,0.9-9.7c0.2-2.1,0.2-4.1-1.2-5.9c-1.1-1.4-1.2-3.2-1-4.9c0.2-1.9,0.2-3.8,0.2-5.7c0-1.6,0.2-3.1,1.4-4.2
	c1-0.9,1.1-2.1,1.1-3.3c-0.2-4.6-0.8-9.2-0.5-13.8c0.5-6.3-0.7-12.7,0.5-18.9c0.2-0.8,0.2-1.7,0.1-2.6c-1-7.7-0.7-15.4-0.6-23.1
	c0.1-7.5,0-15.1,0-22.7c-0.8-0.8-1.8-1.5-2.3-2.4c-0.4-0.8-0.4-2-0.4-3c0-3.2,0-6.5,0.1-9.7c0.1-2.1,0.4-4.1,2.2-5.5
	c0.6-0.4,0.7-1.5,0.9-2.3c0.2-0.8,0.1-1.7,0.1-2.6c0-10.1,0.1-20.2,0.1-30.3c0-3.4-0.4-6.8-0.6-10.2c-0.4-7.4,0.5-14.7,1.1-22.1
	c0.1-1.2,0.2-2.4-0.6-3.4c-1.6-2-2-4.3-1.7-6.7c0.1-0.7,0-1.4,0-2.1c0-3.1,0-3.1,3-5.4c0-1.1,0-2.3,0-3.4c0-1.2-0.4-2.4-0.2-3.6
	c0.5-3.4,1-6.8,0.3-10.2c1.6-5-0.5-10.2,0.7-15.3c0.4-1.8,0-3.7,0-5.6c0-3.6,0-7.2,0.2-10.8c0.1-1.6,0.6-3.2,1.3-4.8
	c-0.6,2.4-0.1,4.7,0.1,7.1c0.4,4.1,0.5,8.2,0.5,12.3c0,1.7-1.1,3.5-0.8,5c1.2,5.1-0.5,10.2-0.1,15.3c0.3,3.8-0.6,7.8-0.3,11.7
	c0.1,0.8,0.2,1.5,0.3,2.4c1.4-0.4,1.3-1.4,1.4-2.1c0.2-1.7,0.3-3.4,0.2-5.1c-0.4-8.2,0.6-16.4,0.8-24.6c0.1-4.1,0.6-8.2,0.6-12.3
	c0.1-5.3,1.2-10.2,4.7-14.3c0.4-0.5,0.7-1.2,1-1.7c2.4-1.8,5.3-0.2,8-1.4c2.4-1.2,5.2-1.3,8.3-2c-0.4-0.7-0.6-1.5-1.1-1.7
	c-1.4-0.6-2.9-0.8-4.5-0.4c-2.7,0.6-5.4,1.1-8.1,1.7c-2.4,0.5-4.4,1.8-6.2,3.5c-1.2,1.2-2.4,2.4-3.9,3.9c-0.6-3.6,2.6-4.7,3.3-7.2
	c-0.1-0.2-0.2-0.8-0.5-1.1C33.1,29,29,21.4,23.9,14.5c-1.2-1.6-1.9-3.6-3.1-5.3c-1.2-1.8-1.2-3.5-0.3-5.6c0.7,0.4,1.6,0.6,2,1.2
	c2.2,3.2,4.4,6.5,6.5,9.9c4.2,6.5,8.4,12.9,12.6,19.4c0.3,0.4,0.7,0.7,0.9,0.8c3.4-0.5,6.6-1.1,9.8-1.2c3.2-0.2,6.1-1,8.6-2.9
	c3.2-2.4,6.5-0.8,9.8-0.5c1.8,3,4.7,1.9,7.3,2c7.7,0.3,15.4,0.7,23.1,1c8.7,0.3,17.4,1.3,26.2,0.6c1.9-0.1,3.7,0.3,5.6,0.4
	c2.4,0.1,4.8,0,7.2-0.1c0.8,0,1.6-0.4,2.3-0.8c2-1.4,4.3-2.2,6.6-1.8c2.6,0.5,5.5,0,7.8,1.9c0.4,0.4,1.3,0.5,1.9,0.4
	c7.8-1.6,15.7-0.8,23.5-1.2c11.5-0.6,23-0.4,34.4,0c6.8,0.2,13.7,0.1,20.5,0.1c3.8-1.3,7.7-0.3,11.6-0.4c7.7-0.1,15.4-0.7,23.1-0.2
	c3.9,0.3,7.9,0.2,11.8,0.1c7.9-0.2,15.7,0.4,23.6,1c7.2,0.5,14.4,0.5,21.6,0.9c1.9,0.1,2.7-1.3,3.9-1.9c0.4,0,0.8-0.1,1.1,0
	c3.8,1.9,7.7,2.3,11.9,2c14.7-1.1,29.4-0.7,44.1-0.3c8.5,0.2,17.1,0.1,25.7,0.3c0.3,0,0.7,0.1,1,0c6.2-1.7,12.2,0.8,18.3,1.2
	c1,0.1,2,0.5,2.9,0.9c4.2,1.7,7,4.1,7.5,9.2c0.7,7.2,0.5,14.4-0.3,21.5c-0.2,1.8-0.3,3.7-0.4,5.8c1.4,0.2,2.6,0.6,3.7,0.6
	c3.4,0,6.9,0,10.3-0.1c13.4-0.2,26.7-0.1,40.1,0.2c7.9,0.2,15.8-0.2,23.6-0.3c0.5,0,1-0.1,1.5-0.1c11,0.6,21.9,0,32.8-0.2
	c3.6-0.1,7.1-0.7,10.7-0.9c10.6-0.5,21.2-0.8,31.8-1.1c11.1-0.3,22.3-0.5,33.4-0.7c5.3-0.1,10.6,0.1,15.9-0.1c6.7-0.2,13.3-0.6,20-1
	c1.2-0.1,2.4-0.1,3.6-0.1c6.2,0.1,12.3,0.3,18.5,0.3c14.9,0,29.8-0.3,44.7,0.8c10.2,0.7,20.5,1.4,30.8,1.3c7,0,14,0.4,21-0.2
	c5.6-0.5,11.3-0.2,16.9-0.2c5.5,0,11,0.3,16.4-0.9c1.3-0.3,2.7-0.2,4.1-0.2c6.2-0.2,12.3-0.3,18.5-0.5c1.5-0.1,3-0.5,4.7-0.7
	c0.8-2.4,0.2-4.5-1-6.4c-1.3-2-2.8-3.9-4.2-5.8c-3.1-3.9-5.9-7.9-8.8-11.9c1.5-1.1,2.2-0.1,2.8,0.6c2.6,3.2,5.1,6.4,7.7,9.6
	c1.2,1.5,2.3,3,3.5,4.7c4.2,1.3,8.6,1.8,13,2.1c2.9,0.2,5.8,0,8.7,0.4c9.6,1.2,19.2-0.1,28.6-1.5c4.7-0.7,9.5-1.3,13.9-3.2
	c2.2-0.9,4.4-1.9,6.2-3.5c4.2-3.7,8.4-7.5,12.7-11.2c4.4-3.9,8.7-7.7,13.1-11.6c1-0.8,2.2-1.4,3.3-2c0.9,1.7-0.3,2.2-0.9,2.8
	c-3.2,2.8-6.5,5.5-9.8,8.3c-1.4,1.2-2.9,2.4-4.2,3.8c-4.8,5-10.2,9.2-15.5,13.5c-0.5,0.4-1,0.9-1.6,1.3c0.3,0.6,0.5,1.1,0.8,1.4
	c3.8,3.3,8.1,5.7,12.7,7.7c1.6,0.7,2.9,0.6,4.3-0.6c3.9-3.5,8-6.9,11.9-10.5c8.5-7.9,17-15.9,25.5-23.8c1.8-1.6,3.8-2.9,5.7-4.3
	c3.1-2.4,6.3-4.8,9.5-7c0.4-0.3,1.3-0.3,1.8-0.1c0.7,0.3,0.6,1.5-0.1,2.2c-0.1,0.1-0.2,0.2-0.4,0.4c-2,1.6-3.9,3.4-6.1,4.7
	c-5.4,3.1-9.8,7.4-14.4,11.5c-4.6,4.1-8.8,8.6-13.1,13c-1.2,1.2-2.6,2.3-3.9,3.4c-4.3,3.6-8.7,7.2-13,10.8
	C935.5,68.7,934.6,69.9,933.5,71z M876.7,100.5c0.2,1.1,0.5,2.3,0.7,3.6c1.4-0.4,2.8-0.3,3.6-2.1c-1.5-0.9-2.5-2.6-4.5-1.3
	c0.3-1.1,0.2-2-1.1-2.7c-2.3,0.9-5,1.2-6.8,3.6c2,1.6,4.1,2.4,6.5,2.6C875.7,102.9,876.1,101.7,876.7,100.5z M865.2,84.2
	c-0.2,0.4-0.7,0.9-0.7,1.3c0.5,2.7,0.8,5.5,0.1,8.2c4.6,0.5,4.6,0.5,7.9-0.6c-1.5-1.7-2.9-3.4-4.3-5
	C867.3,86.9,866.2,85.6,865.2,84.2c-2.8-1.7-3.8-5.2-7-6.8c-0.1,2,0,3.7-0.4,5.2c-0.4,1.8-1.2,3.5-2,5.3c-0.7,1.6-1.4,3.1-2.3,4.9
	c2.2,0.3,4,0.7,5.8,0.9c1.1,0.2,2-0.4,2.6-1.2c1-1.3,1.6-2.6,1.3-4.3c-0.2-1-0.4-2-0.5-2.8C863.8,85,864.5,84.6,865.2,84.2z
	 M847.3,72.7c-3.8-0.5-6.8-0.2-9.9,0c-9.9,0.6-19.8,1.4-29.7,1.7c-11.5,0.3-23,0.2-34.4,0.2c-5.1,0-10.3,0-15.4,0.2
	c-3.1,0.1-6.1,0.9-9.2,0.9c-6.5,0-13-0.2-19.5-0.7c-14.2-1.1-28.4-1.6-42.6-0.9c-3.2,0.2-6.5,0.5-9.7,0.5c-8,0-16.1-0.3-24.1-0.1
	c-0.9,0-1.7-0.1-2.6-0.1c-12-0.8-23.9-0.8-35.9-0.6c-1,0-2.1,0-3.1,0.1c-5.5,0.3-10.9,0.6-16.4,0.8c-1.5,0.1-3.1-0.1-4.6,0.2
	c-5.4,1.3-10.9,0.4-16.4,0.9c-3.1,0.3-6.1,0.2-9.2,0.2c-3.2,0-6.5-0.4-9.7-0.1c-11.1,0.8-22.2,0.7-33.4,0.4c-6.5-0.2-13,0-19.5,0.2
	c-6.2,0.2-12.3,0.6-18.5,0.8c-3.2,0.1-6.5,0-9.7-0.1c-8.2-0.2-16.4-0.5-24.6-0.7c-1.3,0-2.7,0.2-3.9,0.3c-1.2,2.9-1,5.6-1.1,8.3
	c-0.1,2.1-0.1,4.1,2,5.4c0.4,0.2,0.8,0.8,0.8,1.2c0.2,2.4,1.2,4.6,0.7,7.1c-0.5,2.5-0.7,5.1,0.1,7.5c1.9,1.4,3.8,1.8,5.9,2.2
	c3,0.6,6.1,1.1,8.9,2.3c3.3,1.4,6.4,3.4,9.3,5.4c1.9,1.4,3.6,3.2,5,5c1.5,1.9,2.7,4,3.8,6.1c0.9,1.8,1.9,3.7,2.1,5.7
	c1,9-1.1,17.3-5.5,25.2c-0.3,0.6-0.8,1.1-1.3,1.6c-4.2,4.1-8.9,7.5-14.4,9.6c-2.7,1.1-5.7,1.3-8.3,2.4c-3.8,1.8-7.5,2-11.5,1.7
	c-1.9-0.2-3.8,0-5.6-0.1c-2.1,0-4.1,0.1-6.1-0.2c-4.6-0.7-9.2-1.4-13.1-4.2c-2.9-2.1-5.8-4.3-8.6-6.5c-1.5-1.2-2.8-2.5-4.1-3.8
	c-0.7-0.7-1.3-1.6-1.6-2.6c-0.8-3-1.7-6-2-9c-0.4-4.1-0.1-8.4,1.8-12c2.9-5.4,6.3-10.6,11-14.8c4.4-3.9,8.8-7.6,13.9-10.5
	c3.5-2,5.2-5.1,4.7-8.9c-0.5-4.1,0.7-7.4,3.4-10.3c0.5-0.5,1-1.1,1.1-1.7c0.3-3.3,1.5-6.7,0.8-9.9c-1.4-1.2-2.7-1.1-4.1-0.8
	c-4,0.9-8.1,1-12.2,0.5c-7.7-0.8-15.4-1.3-23-1.8c-0.9-0.1-1.7-0.1-2.6,0c-6.5,0.7-13-0.2-19.5-0.5c-13.3-0.5-26.7-1.8-40-1.1
	c-0.5,0-1,0-1.5,0c-11.5-0.4-22.9-1.9-34.4-0.8c-0.3,0-0.7,0-1,0c-4.4-0.2-8.9-0.6-13.3-0.6c-10.4-0.1-20.9-0.1-31.3-0.1
	c-4.4,0-8.9,0.2-13.3,0.4c-1.2,0-2.4,0.1-3.6,0.4c-4.9,1.2-9.8,0.7-14.8,0.8c-2.2,0.1-4.4,0.5-6.6,0.4c-2.2-0.1-4.3-0.6-6.5-1
	c-0.3-0.1-0.7,0-1,0c-6.5,0.2-12.9,1-19.4,0.8c-3-0.1-6.1,0.7-9.2,0.9c-3.2,0.2-6.5,0.1-9.8,0.2c-7.5,0.1-15.1,0.6-22.6,0.4
	c-9.4-0.3-18.8-0.5-28.2-1.7c-0.3,0-0.7-0.2-1-0.1c-4.9,1.2-9.9,0-14.8,0.1c-4.1,0.1-8.2-0.1-12.3-0.6c-3.9-0.5-7.9-0.3-11.8,0.7
	c-1.5,0.4-2.9,1-4.3,1.6c-1,0.5-1.5,1.4-1.5,2.5c-0.1,3.1-0.3,6.1-0.4,9.2c-0.1,5.5-0.3,10.9-1.2,16.3c-0.2,1.3-0.4,2.7-0.5,4.1
	c-0.2,7.2-1.3,14.3-1,21.5c0.1,2,0.2,4.1,0.3,6.1c0,1.2,0.1,2.4,0,3.6c-0.6,7.2-1.2,14.3-1.8,21.5c-0.1,0.9-0.2,1.7-0.3,2.5
	c-0.3,5.1-0.9,10.3-0.9,15.4c-0.1,4.4,0.6,8.9,0.6,13.3c0,6.5,0.1,13-0.5,19.5c-0.9,10.1-1,20.2-1.2,30.3c-0.1,5,0.1,9.9,0.1,14.9
	c0.1,6.2,0.2,12.3,0.4,18.5c0.1,4.4,0.4,8.9,0.5,13.3c0.1,3.6,0.2,7.2,0.3,10.8c0.1,3.6,0.3,7.2,0.2,10.7c-0.3,10.3-0.7,20.5-1,30.8
	c-0.1,3.6,0.5,7.1-0.5,10.7c-0.4,1.3,0,2.7,0,4.1c0,1.2,0.1,2.4,0.1,3.6c-0.1,2.7-0.4,5.4-0.5,8.2c-0.2,6,0.4,11.9,0.2,17.9
	c-0.1,2.9,0.4,5.8,0.3,8.6c-0.2,5.6,0.7,11.3-0.1,16.9c-0.1,1,0.1,2,0.1,3.1c0,1.2,0,2.4,0,3.6c0.1,3.8,0.1,7.5,0.3,11.3
	c0.1,3.3,0.5,6.5,0.4,9.7c-0.3,19.7-0.5,39.4-0.1,59.1c0.1,4.5,0.2,8.9,0.4,13.4c0,0.8,0.4,1.6,0.6,2.3c11.6,2.5,26.8,3.4,31.6,2
	c0.1-0.3,0.3-0.6,0.3-1c0.2-7.7,0.5-15.4,0.7-23.1c0.2-9.6,0.3-19.2,0.6-28.8c0.2-7.2,0.6-14.4,0.9-21.5c0.1-1.9,0.1-3.8,0.3-5.6
	c0.9-8.2,1.7-16.3,2.7-24.5c1.2-9.2,2.5-18.3,3.7-27.5c0.9-6.6,2.4-13.1,2.3-19.9c-0.1-5,0.2-9.9,1.3-14.8c0.6-2.8,1.1-5.7,1.2-8.6
	c0.2-4.3,1.1-8.5,2.1-12.6c0.3-1.3,0.7-2.7,0.9-4c0.4-2.9,0.7-5.8,1-8.6c0.2-1.9,0.4-3.7,0.4-5.6c0.2-6.8,0.2-13.7,0.5-20.5
	c0.4-6.8,1.1-13.6,1.8-20.5c0.3-3.6,0.4-7.2,1.1-10.7c0.7-3.3,1.6-6.6,4.8-9c2.9,1.3,6,1.2,9.1,0.9c9.1-0.7,18.1-1.5,27.2-1.2
	c2.6,0.1,5.2,0,7.7-0.3c13.4-1.4,26.9-3,40.3-4.4c9-0.9,18.1-1.8,27.2-1.3c9.2,0.5,18.5,0.5,27.7,0c1-0.1,1.9,0.2,2.8,0.3
	c1.7,6.8,2.2,13.5,2.5,20.1c0.4,11,0.7,21.9,1.1,32.9c0.1,2.7,0.2,5.5,0.2,8.2c0,6.5-0.2,13-0.2,19.5c0,1.4-0.2,2.9,0.3,4.1
	c1,2.4,0.8,4.7,0.5,7.1c-0.2,1.2-0.2,2.4-0.2,3.6c0.1,4.6,0.3,9.2,0.4,13.8c0.2,8.2-0.1,16.5,0.8,24.7c0.1,1,0,2.1,0,3.1
	c0.1,6.5-0.1,13.1,0.4,19.5c0.8,8.7,1.1,17.4,1,26.2c0,3.3-0.2,6.5,0.1,9.8c0.7,8.4,0.6,16.8,0.7,25.2c0.1,9.2,0.5,18.5,1.2,27.7
	c0.3,3.4,0.1,6.8,0.3,10.2c0.2,5.1,0.6,10.2,1,15.4c0.1,0.8,0.5,1.5,0.8,2.3c1.5,0,2.7,0.1,3.8,0c7.1-0.9,14.3-1.1,21.5-1
	c2.2,0,4.5,0.1,6.7-0.1c12.5-0.9,25-0.3,37.5-1.9c0.7-0.1,1.4-0.1,2.1-0.1c5.8-0.1,11.6-0.3,17.4-1.7c1.2-0.3,2.4-0.2,3.6-0.3
	c5-0.3,9.9-0.6,14.9-0.9c2.6-0.1,5.1-0.3,7.7-0.4c11.5-0.4,22.9,0.9,34.4-0.3c5.3-0.5,10.6-0.4,15.9-0.7c9.1-0.5,18.1-0.9,27.2,0.7
	c0.8,0.1,1.7,0,2.5-0.1c5.1-0.7,10.2-1.4,15.3-1.4c1.4,0,2.7-0.1,4.1-0.3c8.8-1.4,17.7-1.5,26.6-1.4c4.1,0.1,8.2,0,12.3,0
	c4.6,0,9.3-0.4,13.9,0c12.7,0.8,25.3,0,38,0.4c0.8,0,1.7-0.1,2.6-0.2c7.9-0.5,15.7-1.5,23.6-1.5c8.4,0,16.7-1.1,25.1-0.2
	c0.5,0.1,1-0.1,1.5-0.1c4.8,0.1,9.6,0,14.4,0.5c2.1,0.2,4,0.5,6.1,0.1c1.2-0.2,2.4-0.3,3.6-0.3c9.4,0.1,18.8-1,28.2-0.3
	c1.2,0.1,2.4,0,3.6-0.1c4.4-0.4,8.9-0.7,13.3-1.1c1.8-0.2,3.8-0.1,5.7-1.1c0.7-4.7,1.5-9.4,2-14.2c1.1-10.4,2.1-20.8,3-31.2
	c0.8-10.4,1.8-20.8,2.1-31.3c0.4-13,2.2-25.9,3.5-38.9c0.9-8.7,1.6-17.4,1.9-26.1c0.4-10.9,0.4-21.9,2.4-32.8c0.2-1,0.1-2.1,0.1-3.1
	c0.2-6,0.3-12,0.7-18c0.3-4.8,1-9.5,0.9-14.3c0-2.7,0.3-5.5,0.7-8.2c1-7,2.5-13.9,2.1-20.9c-0.3-5.4,0.6-10.6,1.2-15.9
	c0.4-3.7,2.1-6.4,6.1-7.2c3-0.6,5.9-1.7,8.9-2.5c3.5-0.9,7-1.8,10.5-2.5c6.2-1.3,12.5-2.1,18.6-3.7c12-3,24.3-4,36.6-4.6
	c8.4-0.4,16.8-0.5,25.2-1c8.4-0.5,16.7-1.3,25.1-1.7c3.4-0.2,6.8,0,10.3,0.2c1.1,0.1,2.2,0.6,3.6,1c0.2,2.3,0.5,4.5,0.6,6.7
	c0.2,6,0.3,12,0.5,17.9c0.1,3.1,0.3,6.2,0.3,9.2c0,10.4-0.1,20.9,0,31.3c0,5.1,0.5,10.3,0.6,15.4c0.4,12.5,0.6,25,1.2,37.5
	c0.5,9.6,1.4,19.1,2.1,28.7c0.6,7.7,1.4,15.4,1.9,23c0.6,8.7,0.9,17.4,1.4,26.2c0,0.5,0.1,1,0.2,1.5c0.3,4.1,0.6,8.2,0.8,12.3
	c0.5,8.4,0.9,16.8,1.6,25.1c0.7,8.4,1.5,16.7,2.4,25.1c0.5,4.9,1.2,9.8,2,14.8c0.2,1.1,0.7,2.2,1.1,3.5c1.5,0.2,2.9,0.4,4.2,0.4
	c7.5-0.1,15.1-0.4,22.6-0.3c3.9,0.1,7-1.1,9.1-4.2c0.4-5.1,0.9-10,1.3-15c0.2-2.7,0.6-5.4,0.8-8.2c0.5-8.5,0.4-17.1,0.3-25.7
	c0-2.2,0.1-4.5,0.2-6.7c0.1-3.8,0.4-7.5,0.5-11.3c0.1-4.5-0.2-8.9,0.2-13.4c0.7-8.4,1-16.8,0.9-25.1c-0.1-4.1-0.4-8.2-0.3-12.3
	c0.2-7.4,0.6-14.7,0.9-22.1c0.1-3.4,0.5-6.8,0.5-10.3c-0.1-9.6-0.4-19.2-0.6-28.8c-0.2-6.8-0.6-13.7-0.8-20.5
	c-0.3-7.9-0.6-15.8-0.6-23.6c0-7.4,0.4-14.7,0.3-22.1c-0.2-13.9-0.6-27.7-1-41.6c-0.3-11.3-1-22.6-1.1-33.9
	c-0.1-9.4,0.3-18.8,0.5-28.3c0-2.1,0.1-4.1-0.1-6.2c-0.6-4.1-0.5-8.2-0.2-12.3c0.1-1.4,0.1-2.7,0-4.1c-0.3-7.2-0.8-14.4-0.3-21.6
	c0-0.7,0.4-1.7-1-2.1c-6.6,7-10.2,15.2-9.1,25.3c1.6,1.7,3.6,3.2,5.9,4.4c0.7,0.4,1.1,1.1,0.6,1.6c-0.4,0.4-1.3,0.6-1.8,0.4
	c-1.1-0.5-2.2-1.1-3-2c-1.8-2.1-4.1-2.5-6.5-2.4c-3.9,0.2-7.9,0.5-11.5,2.3c-1.4,0.7-2.8,1.3-4.3,1.8c-9.1,3.4-16.4,8.9-22,17
	c-2,2.9-2,5.6-0.8,8.5c7.6,0.5,9.6,1.2,14.9,4.1c3.5,1.9,6.2,4.2,7,8.3c0.2,1.2,1,2.2,1.3,3.4c1,4.1,1.4,8.3-1.3,11.9
	c-1.9,2.6-2.4,5.3-2.2,8.2c0.4,6.1-0.4,12.3,0.7,18.4c0,0.3-0.3,0.6-0.5,1.1c-0.7-0.3-1.5-0.5-2.2-0.8c-0.5-7.2,0.7-14.2-0.8-21.5
	c-1.2,0.4-2.2,0.8-3.2,1.1c-0.4,3.7-0.6,7.2-1,10.5c-0.5,3.5,0.5,7-0.7,11c-2-2.4-1.9-4.8-1.9-7.2c0-4.5,0.1-8.9,0-13.4
	c0-0.5-0.3-0.9-0.4-1.3c-1.5-0.3-2.8-1.3-4.6-0.8c-0.2,5.9,0.8,11.7-0.1,17.6c-1,0.3-1.9,0.6-3.2,1c0.3-3.7,0.3-7,0.8-10.1
	c0.5-3.1,0.2-6.1-0.3-9.2c-0.4-2.4-1.9-4.2-3.9-5.6c-1.8,1-2,2.6-2.1,4.1c-0.3,5-0.5,9.9-0.8,14.9c0,0.7,0.1,1.4-0.2,2
	c-0.2,0.5-0.9,0.9-1.5,1c-0.2,0.1-0.9-0.6-0.9-1c0-5.7-0.1-11.3,0.2-17c0.2-2.9,0.2-5.8-0.3-8.7c-0.1-0.3-0.3-0.6-0.6-1.2
	c-0.9-0.2-2-0.4-3.2-0.7c-2.7,3.9-6.1,6.5-10.4,8.3c-5.1,2.1-9.3,0.4-13.5-2.2c-0.8-0.5-1.5-1.6-1.7-2.5c-1.4-5.3-0.7-10.4,5.4-13.5
	c1.1-0.5,2.3-0.8,3.3-1.5c3.4-2.3,6.3-2.5,9.8,0.3c2.9,2.4,4.2,1.8,7-1c1.8-1.8,3.7-3.5,5.7-5.1c1.3-1.1,2-2.3,2.1-3.9
	c0.3-4.3,0.7-8.5,1-12.8c0.1-1,0-2.1,0-3.1c0-2.7,0-5.4-0.1-8.2c0-1,0.2-2.2-0.2-3c-1.5-3.1-3.1-6.1-6.2-8.1c-3.2-2-6.3-4.1-9.4-6.2
	c-3.6-2.4-7.7-3.7-11.8-4.9c-1.4-0.4-2.7-0.3-3.9,0.4c-1.3,0.8-2.7,1.6-4.1,2.2c-1.1,0.5-2.3,0.7-3.4,0.9c-0.5,0.1-1.4,0.1-1.3-1.1
	c2.4-1.4,5.5-1.7,7.4-4c-0.1-1.4-0.6-2.8-0.3-4c0.6-3.1-0.5-5.7-2-8.2c-2.4-4.2-5.5-7.8-8.7-10.8c-5.3-1.2-10.3-2.3-15.3-3.5
	c-8.8-2-11.4-3-14.1-5.3c0.5-0.2,1-0.6,1.3-0.5c1.2,0.2,2.3,0.6,3.4,1c7.8,2.6,15.9,4.3,23.9,6c2.5,0.5,4.6-0.1,6.1-1.7
	c3.3-3.5,6.9-6.7,9.4-10.8C846.8,74.9,846.9,74,847.3,72.7z M119.6,516.9c4.6,0,9.1-0.1,13.5,0c13.2,0.3,26.3,0.7,39.5,1
	c6.5,0.1,13-0.2,19.5-0.1c12.3,0.2,24.7-0.2,37-1c5.3-0.4,10.5-1.2,15.9-0.7c4.3,0.4,8.5,0.5,12.8,0.7c1,0,1.9-0.3,3-0.5
	c0.1-1.4,0.2-2.6,0.2-3.8c-0.3-13.7-0.7-27.4-1-41.1c-0.1-2.2,0.1-4.5-0.1-6.7c-0.8-10.6-0.1-21.2,0.4-31.8
	c0.2-3.9,0.4-7.8-0.2-11.8c-0.7-5.1-0.7-10.2-1.4-15.3c-1.3-9.7,0.2-19.5-1-29.2c-0.1-0.7,0.1-1.4,0.1-2c0.7-8,0.8-16.1,0.6-24.1
	c-0.1-2.6,0.2-5.2-0.3-7.7c-0.7-3.7-0.7-7.5-0.7-11.3c0-5.7,0.2-11.3,0.2-17c0-5.3-0.1-10.6-0.1-15.9c0-10.6,0.1-21.2,0-31.8
	c0-2.4-0.6-4.7-0.9-7.1c-0.3-2-1.6-3-3.5-3.1c-3.6-0.2-7.2-0.6-10.8-0.5c-6.7,0.3-13.3,0.9-19.9,1.5c-1.2,0.1-2.4,0.3-3.6,0.5
	c-16.5,2.2-32.9,4.4-49.4,6.5c-9,1.1-18,2.1-27.1,2.1c-2.3,0-4.4,0.5-6.1,2.4c-3.1,8.5-3,17.7-3.8,26.7c-0.2,2.1,0.4,4,2.6,5.2
	c0.6,0.3,1,1.4,1.2,2.1c0.2,1,0.1,2,0.1,3.1c-0.2,7.9-0.3,15.7-0.5,23.6c0,0.8-0.5,1.6-0.7,2.4c-1.8,0.5-3.4,1-5.1,1.5
	c-0.3,1.4-0.7,2.8-0.8,4.1c-0.4,4.6-0.7,9.2-0.9,13.8c-0.7,13.3-1.5,26.7-2.2,40c-0.1,1.7-0.3,3.4-0.5,5.1
	c-1,10.2-2.1,20.4-2.9,30.7c-0.3,3.7-0.8,7.5,1,11.1c0.1,0.3,0.2,0.7,0.2,1c0,5.8-0.1,11.6-0.2,17.4c0,2.7-0.3,5.5-0.1,8.2
	c0.2,3-0.2,5.8-0.9,8.6c-1.6,0.7-3.1,1.3-4.5,1.9c-0.1,0.8-0.3,1.3-0.3,1.8c-0.1,9.1-0.4,18.2-0.3,27.2
	C117.5,508.7,117.6,512.6,119.6,516.9z M745.1,260.1c-1.1,2.8-0.9,5.4-1,7.9c-0.2,4.6-0.3,9.2-0.5,13.9c-0.1,3.8-0.3,7.5-0.5,11.3
	c-0.2,5.1-0.5,10.3-0.7,15.4c-0.2,6.3-0.9,12.6-1.8,18.9c-0.3,2-0.2,4.1-0.3,6.2c-0.2,6.5-0.3,13-0.7,19.5
	c-0.4,6.2-1.1,12.3-1.5,18.4c-0.7,10.9-0.9,21.9-1.9,32.8c-1.5,16-1.3,32.2-2.4,48.2c-0.8,11.6-0.8,23.3-2.1,34.9
	c-0.5,4.7-0.5,9.5,0.5,14.5c1.2,0,2.2,0,3.2,0c8.7-0.3,17.4-0.7,26.2-0.9c3.9-0.1,7.9,0.3,11.8,0.3c12,0,24,0,36,0
	c6.3,0,12.6,0.6,18.9,1.4c2.4,0.3,4.8,0.5,7.2,0.6c5.5,0.2,11,0.3,16.4,0.5c4.8,0.2,9.6,0.4,14.4,0.6c1,0,2-0.3,3.1-0.4
	c0.2-1,0.4-1.9,0.4-2.7c0.1-3.9,0.3-7.9,0.3-11.8c0-4.3,0.2-8.6-0.4-12.8c-1-6.8-1.3-13.6-1.8-20.4c-0.5-7.3-0.5-14.7-0.8-22
	c0-0.5-0.3-1-0.4-1.4c-1.2-1.1-2.3-2.1-3.7-3.2c-0.1-8.3-0.2-16.7-0.3-25.1c0-2.7,0.4-5.4,1.7-7.9c0.6-1.1,0.6-2.6,0.6-3.9
	c-0.1-5.7-0.4-11.3-0.4-17c0-11.3,0.3-22.6,0.2-33.9c-0.1-7.4-0.7-14.7-1.1-22.1c0-0.7-0.1-1.6-0.5-1.9c-2.8-2.3-2.4-5.5-2.3-8.5
	c0.2-7.2,0.5-14.4,0-21.5c-0.2-2.1,0-4.1,1.5-5.8c1-1.1,1.2-2.4,1.2-3.8c-0.1-1.9-0.1-3.8-0.2-5.6c-0.4-8-1.6-16-1.4-24.1
	c0-1.7-0.2-3.3-0.4-5c-3.4-0.8-6.4-0.6-9.5-0.5c-12.7,0.1-25.3,0.3-37.9,2.3c-3,0.5-6.1,0.7-9.2,1c-10.9,1-21.8,2.4-32.3,5.8
	c-5.9,1.9-11.8,3.7-17.7,5.5C751.6,258.4,748.3,259.2,745.1,260.1z M239.1,39.7c-5,0-9.9-0.1-14.9,0c-8.7,0.2-17.5,0.5-26.2,0.9
	c-6,0.3-12-0.5-17.9,1.2c-0.9,0.3-2,0.1-3,0.1c-2.4,0-4.8,0-7.2,0c-2.6,0.1-5.1,0.4-7.7,0.3c-2.4-0.1-4.7-0.4-6.6,1.7
	c-0.7,0.7-2.2,0.6-3.4,0.8c-1.5,0.2-3.1,0.2-4.6,0.2c-1.5,0-3.2,0.2-4.5-0.3c-1.1-0.4-1.7-1.9-2.7-3c-6.5-0.2-13,0.4-19.5,0
	c-4.8-0.3-9.5-0.3-14.3-0.7c-8.2-0.7-16.4-0.6-24.6-1.2c-5.3-0.4-10.5,0.6-15.7,1.2c-2.7,0.3-5.3,1.6-7.7-0.8
	c-0.2-0.2-0.6-0.1-1-0.2c-2.4-0.2-5.7,0.9-8.6,2.8c0.8,1.1,1.5,2.2,2.4,3.3c3.6,4.1,7.3,8.2,10.9,12.3c2.6,2.9,5.2,5.9,7.8,8.9
	c1.4,1.5,2.9,3,5,3.3c2.9,0.5,5.7,0.9,8.6,1.1c3.8,0.3,7.5,0.2,11.3,0.3c1,0,2.2-0.2,3,0.3c2.1,1.1,4.3,0.8,6.5,0.8
	c6.3-0.1,12.7-0.3,19-0.2c6.5,0.2,13,0.8,19.5,0.3c4.1-0.3,8.2-0.4,12.3-0.5c13-0.2,26,0.6,39,0c11.1-0.4,22.2-1,33.3-0.2
	c4.7,0.3,9.2-0.8,13.8-0.8c12-0.1,24-0.1,36-0.2c5-0.1,9.9-0.3,14.9-0.6c8-0.4,16.1-0.5,24.1,0.4c8.5,0.9,17,1.8,25.6,1.1
	c1.7-0.1,3.4,0.1,5.1,0.1c5.1,0.1,10.3,0.2,15.4,0.3c3.8,0.1,7.5,0,11.3,0.2c3.9,0.1,7.9,0.6,11.8,0.7c11,0.2,21.9,0.3,32.9,0.3
	c6,0,11.9-0.2,17.8-0.3c0.4-0.7,0.7-1.2,0.8-1.6c2-7.4,1.5-14.9,0.5-22.4c-0.5-4.1-5.4-6.7-9.4-5c-2,0.9-3.8,1-5.8,0.3
	c-3.8-1.3-7.6-1.6-11.6-1.2c-3.7,0.3-7.5-0.6-11.2,0.2c-0.8,0.2-1.7-0.3-2.5-0.4c-1.9-0.2-3.8-0.5-5.6-0.5c-4.3,0.1-8.5,0-12.8-0.1
	c-7.5-0.2-15.1-0.1-22.6-0.2c-4.6,0-9.2-0.2-13.9-0.1c-1.7,0-3.8-0.1-4.9,0.9c-2.7,2.2-5,1.9-7.2-0.4c-1-1-2-1.2-3.2-1.2
	c-1.5,0-3.1,0-4.6,0c-6,0.2-12,0-17.9-0.8c-2.9-0.4-5.8-0.2-8.7-0.2c-8.2,0-16.4,0.1-24.6,0.1c-5.3,0-10.6-0.2-15.9-0.3
	c-1.9,0-3.7,0.2-5.4,0.3c-0.9,1.1-1.6,2-2.3,2.9c-2.4-0.3-4.6-0.5-6.5-0.7C240.2,41.6,239.7,40.8,239.1,39.7z M737.6,243.6
	c-0.2,2.5-0.3,4.6-0.6,6.6c-0.9,8-1.8,16-2.9,24c-0.7,5.3-2.3,10.3-2.5,15.7c-0.5,11.3-1.3,22.5-1.2,33.8c0.1,6.7-0.5,13.3-1,20
	c-0.3,4.9-1,9.9-1.4,14.8c-0.6,7.7-1.9,15.3-2.4,23c-0.4,7.8-1.6,15.7-2.3,23.5c-0.3,3.2-0.7,6.5-0.6,9.7c0.2,6.2-0.2,12.3-0.9,18.5
	c-0.5,4.8-1.1,9.5-1.5,14.3c-0.9,10.1-1.7,20.1-2.4,30.2c-0.6,8.3-1.1,16.7-1.7,25.5c4,0.2,7.8-0.6,11.9-0.9
	c0.1-1.7,0.3-3.2,0.4-4.7c0.1-6-0.2-12,0.4-18c0.6-6,0.9-11.9,1.1-17.9c0-0.3,0-0.7,0.1-1c1.4-5.2,1-10.5,1.4-15.8
	c0.3-4.2,0.1-8.5,0.8-12.8c0.2-1,0.2-2,0.3-3.1c0.6-10.1,1.2-20.2,1.7-30.3c0.5-9.7,1.1-19.5,1.3-29.2c0.1-5.3,0-10.6,0.7-15.9
	c0.3-2.4,0.5-4.8,0.6-7.2c0.4-16.1,0.9-32.2,2.5-48.2c0.3-2.9,0.4-5.8,0.7-8.7c0.8-7.3,1.8-14.6,1.6-22c-0.1-3.1,0.2-6.1,1-8.9
	c2.5-2.1,5.1-3,8-3.7c8-1.9,15.9-4.1,23.9-6.1c3.6-0.9,7.3-1.9,11-2.5c6.6-1.1,13.2-1.9,19.8-3c4.7-0.8,9.5-1.2,14.3-1.2
	c0.9,0,1.7,0,2.6-0.2c7.9-1.5,16.1-0.6,24-2.5c0.3-0.1,0.7-0.1,1,0c4.1,0.3,8.2,0.3,12.2-0.2c1.7-0.2,3.4,0.2,4.8,1.6
	c0.3,1.6,0.9,3.3,0.9,5c0.2,5,0.2,9.9,0.4,14.9c0.2,6,0.5,12,0.7,18c0,1.2,0.3,2.3,1.3,3.2c2,1.7,2.3,4,2.4,6.5
	c0.2,4.1,0.9,8.1,1.3,12.2c0.6,5.3,1.2,10.5,1.7,15.8c0.1,1.3,0.3,2.8-1,4.1c-1.6-0.2-3.3-0.5-5.3-0.8c-0.1,1.2-0.2,2.1-0.1,2.9
	c0.5,6.2,0.4,12.3,0.3,18.5c0,8.2,0.3,16.4,0.4,24.7c0.1,8.2,0.1,16.4,0.2,24.7c0,2-0.3,4.1,1,6.2c1.1,0.3,2.2,0.6,3.3,1
	c2.3,0.7,3.8,2.1,4,4.7c0.1,1.5,0.5,3.1,0.5,4.6c0.1,7.9,0.2,15.8,0.3,23.6c0,1.7,0,3.4-1.3,5.1c-1.7-0.1-3.5-0.3-5.6-0.5
	c0,1.6-0.1,2.9,0,4.3c0.4,7.7,0.9,15.4,1.3,23.1c0.5,9.7,1.7,19.5,1.4,29.2c-0.1,4.1,0.2,8.1,0.4,12.1c4.9,1.1,13.2,1.1,17,0.1
	c1-1.9,0.6-4,0.2-6c-1.2-6.9-2.2-13.9-2.3-20.9c0-0.2,0-0.3,0-0.5c-1.1-9.3-2.3-18.7-2.5-28.1c-0.4-13.2-1.4-26.3-2.2-39.5
	c-0.1-2-0.3-4.1-0.4-6.1c-0.7-8.9-1.5-17.7-2.1-26.6c-0.5-7.3-1-14.7-1.3-22.1c-0.7-14.5-1.3-29.1-1.9-43.6
	c-0.4-7.7-0.8-15.4-1.2-23.1c-0.1-2.4,0-4.8,0-7.2c0-1.4,0.3-2.7,0.3-4.1c-0.1-6.8-0.2-13.7-0.3-20.5c0-1.4-0.2-2.7-0.3-4.1
	c-0.1-2.2-0.4-4.4-0.4-6.6c0-2.9,0.1-5.8,0.3-8.7c0.1-2.1,0-4.1-0.9-6.3c-6.9-0.1-13.7-0.3-20.5-0.4c-4.1,0-8.2,0.4-12.3,0.3
	c-10.1-0.2-20.2,0-30.3,1c-5.1,0.5-10.2,0.9-15.3,1.5c-5.9,0.7-11.8,1.8-17.8,2.6c-11.3,1.4-22.3,3.9-33.2,6.6
	C742.8,242.1,740.4,242.8,737.6,243.6z M274.2,516.5c0.3-3.1,0.6-5.8,0.7-8.5c0.2-3.1,0.3-6.2,0.2-9.2c-0.2-7.9-0.6-15.7-0.9-23.6
	c-0.3-7.5-0.7-15.1-1.1-22.6c-0.3-4.8-0.7-9.6-0.9-14.3c-0.1-2.9,0-5.8,0-8.7c-0.1-7.2-0.2-14.4-0.7-21.6c-0.5-9.2,0-18.5-1.3-27.7
	c-0.1-0.7-0.1-1.4-0.1-2.1c-0.1-7.7-0.2-15.4-0.1-23.1c0-3.6-0.5-7.2,0.6-10.7c0.1-0.5,0-1-0.1-1.5c-0.2-4.4-0.3-8.9-0.5-13.3
	c-0.2-2.7-0.6-5.4-0.7-8.2c-0.3-4.9-0.8-9.9-0.8-14.8c0-9.4,0.3-18.8,0.5-28.2c0-0.9-0.1-1.7-0.1-2.6c-0.3-5.6-0.5-11.3-0.8-16.9
	c-0.2-4.1-0.7-8.1-1.9-12.3c-1.4-0.2-2.8-0.6-4.1-0.6c-5.5,0.1-11,0.2-16.4,0.5c-8,0.3-16.1,0.8-24.1,1c-6.4,0.1-12.6,0.9-18.9,1.8
	c-8,1.1-16,2-24,2.3c-4.1,0.2-8.2,0.1-12.3,0.3c-4.8,0.2-9.6,0.5-14.4,0.6c-6.7,0.2-13.4,0.3-20,0.4c-1.1,0-2.3,0.3-3.6,0.5
	c-1.6,8-3.9,15.7-4.6,23.8c-0.3,3.4-0.4,6.8-0.6,10.2c-0.3,6.1-0.7,12.3-0.8,18.4c-0.1,5.9-1.1,11.6-2.4,17.2c-0.9,4-2,8-2,12.1
	c0,1-0.1,2.1-0.4,3c-1.5,4.6-1.7,9.4-1.9,14.2c-0.3,8.2-1.5,16.4-2.6,24.5c-1.1,8-2.3,15.9-3.4,23.9c-0.6,4.6-1.3,9.2-1.7,13.8
	c-0.7,7.5-2,14.9-1.6,22.5c0.1,1.4-0.1,2.7-0.2,4.1c-0.5,8.7-1.1,17.4-1.6,26.2c-0.2,3.6-0.1,7.2-0.3,10.8
	c-0.2,3.6-0.9,7.2-0.8,10.7c0.2,7.2,0.6,14.3,1.1,21.5c0.1,2.2,0.5,4.3,0.8,6.6c2.8,1.1,5.6,0.3,8.6-0.3c0.8-7,0.7-13.9,0.9-20.7
	c0.2-6.8,1.5-13.6,0.8-20.2c-4.4-3.3-4.4-3.3-3.8-8.2c1.3-9.3,2.7-18.6,2.9-27.9c3.7-3.1,3.6-3.1,4.3-7.8c0.9-5.9,1.7-11.8,2.2-17.8
	c0.8-9.6,1.4-19.1,1.9-28.7c0.2-5,0.6-9.9,0.8-14.9c0.5-10.6,2.8-21.1,2.1-31.7c-0.1-0.8,0.2-1.7,0.2-2.6c0-0.3-0.1-0.6-0.2-1
	c-1-0.6-2-1.2-3-1.8c0.7-11,1.6-21.9,3.1-32.6c3.5-2.3,3.5-2.3,3.8-6.2c0.4-4.9,0.8-9.9,1.3-14.8c0.4-3.4,0.8-6.8,1.5-10.2
	c0.6-3.2,3.4-5.3,6.6-5.3c0.9,0,1.7,0.1,2.6,0.1c6.7-0.5,13.3-1,20-1.7c9.4-0.9,18.7-2,28.1-3.1c5.3-0.6,10.5-1.4,15.8-2.2
	c2.4-0.3,4.8-0.6,7.1-1.2c7.7-1.8,15.5-2.5,23.4-2.9c4.6-0.2,9.2-0.5,13.8-0.8c0.7,0,1.4-0.1,2.1,0c3.6,0.3,5.6,1.9,6.4,5.6
	c1.6,7.2,2.6,14.5,1.7,21.9c-0.1,0.8-0.1,1.7-0.1,2.6c-0.9,15.2,0.3,30.5,0.6,45.7c0.1,4.3,0,8.6,0.1,12.8
	c0.2,5.8,0.4,11.6,0.6,17.4c0.2,5.3,0.3,10.6,0.5,15.9c0.3,6.8,0.9,13.7,0.7,20.5c-0.2,6-0.2,12,0.4,18c0.6,6,0.7,12,0.8,18
	c0.1,3.8-0.1,7.5-0.1,11.3c0,6.3-0.2,12.7-0.1,19c0.1,8.4,0.4,16.8,0.7,25.2c0.1,2.7,0.3,5.5,0.4,8.2c0.2,5.1-0.1,10.3,0.5,15.4
	c0.8,7.1,0.8,7.2,8.4,6.7C273.8,516.8,273.9,516.6,274.2,516.5z M429.8,111.6c-1.1,0.1-1.7,0-2.1,0.3c-4.4,3.2-9.1,6.2-13.1,9.9
	c-2.7,2.5-4.5,6-6.7,9c-3.8,5.1-4.6,10.9-4.7,17c-0.1,2.6,0.8,5,2.2,7.2c2.2,3.6,5.3,6.2,8.6,8.6c5.5,4.1,11.6,6.5,18.3,7.3
	c6.2,0.7,12.3-0.5,18.4-1.1c0.5-0.1,1-0.2,1.5-0.4c4.5-1.9,9.6-2.7,13.5-5.9c0.4-0.3,0.9-0.5,1.4-0.6c3.4-0.9,5.5-3.3,7.2-6.1
	c1.1-1.9,2.3-3.8,3.4-5.7c2.9-5.1,3.6-10.8,2.7-16.4c-2.4-14.5-15.4-22.1-26.8-22.8c-0.9-0.1-1.9,0.5-2.9,0.8
	c1.2,3.8,2.3,7.4,5.4,9.9c0.6,0.5,0.9,1.4,1.4,2.1c1.3,2,2.6,4,3.9,6c1.8,2.7,3.7,5.3,5.4,8c0.3,0.4,0,1.2,0,2.4
	c-2.3-1.7-3.8-3.3-5-5.1c-2.4-3.7-4.9-7.4-7.4-11.1c-0.9-1.3-2-2.4-3-3.5c-1.2-1.2-2.5-2.3-3.6-3.7c-2.5-3-5.4-4.7-9.4-3.3
	c-3.4-0.6-5.4,1.3-6.9,4c-0.5,0.9-1.1,1.7-1.5,2.7c-3.5,7.6-8,14.7-11.2,22.4c-0.4,0.9-1.3,1-2.3,0c2.4-5,4.2-10.3,7.2-15.1
	C426.8,123.5,428.8,118.1,429.8,111.6z M930.6,93.7c-3.4,0.2-6.1,0.4-8.9,0.4c-2.1,0.1-3.7,0.8-5.5,2.1c-3.2,2.5-4.9,5.6-6.2,9.2
	c-1.2,3.5-1.4,7-1.6,10.6c-0.2,2.9,0.8,5.2,2.9,7.3c3,2.8,3.5,3.4,7.4,4.8c0-1.3,0-2.4,0-3.5c-0.1-3.7,0.8-7,2.6-10.3
	c2.7-5,5.9-9.6,10.2-13.7C931.3,98.5,930.9,96.3,930.6,93.7z M930.6,76.7c-2.6-2.9-5.7-3.6-9.3-3.5c-4.1,0.1-8.2-0.3-12.3-0.5
	c-1,0-2,0-3.3,0c-0.2,1-0.6,2-0.5,2.9c0.1,1.7,0.6,3.4,0.8,5.1c0.7,4.7,3.4,8.1,6.8,11.1c1.1,1,2.4,1.1,3.8,1
	c3.6-0.3,7.2-0.4,10.7-0.7c1-0.1,1.9-0.4,3.2-0.6C930.6,86.5,930.6,81.8,930.6,76.7z M878.3,148.4c2.2-1.1,3.6-3.1,5.5-4.5
	c1.9-1.4,3.9-2.8,5.9-4c1.9-1.2,3.8-2.3,5.8-3.2c2.2-1,4.5-1.5,6.8-2.4c2.2-0.8,4.5-1.7,6.7-2.5c2.1-0.8,4.6-0.5,7.3-1.8
	c-2.6-1.8-4.6-3.3-6.7-4.7c-2-1.4-4.1-1.5-6.4-1.1c-4.4,0.9-8.7,1.8-13.1,2.6c-4.4,0.9-7.9,3-10.4,6.9c-0.6,1-1.7,1.9-1.8,2.9
	C877.6,140.4,876.8,144.4,878.3,148.4z M338.7,40c1.6,0.1,2.9,0.3,4.3,0.3c8.4,0.1,16.7-0.4,25.1,0.1c10.4,0.6,20.8-0.5,31.2,0.9
	c4.2,0.5,8.5,0.1,12.8,0.1c1.5,0,3.1,0,4.6,0c1.5-0.1,2-0.6,2.2-2.2c0.1-0.6-0.1-1.3-0.2-2.2c-5.3-0.9-10.6-0.4-15.9-0.7
	c-5.3-0.3-10.6-0.3-15.9-0.3c-5.5-0.1-11-0.1-16.4-0.1c-5.3,0-10.6,0-15.9,0.2c-5.3,0.2-10.5,0.5-15.9,0.8
	C338.7,37.9,338.7,38.9,338.7,40z M157,39.5c1.9,1,3.8,0.8,5.7,0.8c3.4,0.1,6.8,0,10.3,0.1c3.1,0.1,6.1,0.5,9.1-0.9
	c0.6-0.3,1.3-0.2,2-0.3c2.9-0.1,5.8-0.2,8.7-0.3c8-0.2,16.1-0.4,24.1-0.6c5.5-0.1,10.9-0.1,16.4-0.3c1.7,0,3.4-0.1,5.1-0.3
	c1.5-0.1,1.7-0.5,1.6-3.1c-2.3-0.6-4.7-0.3-7-0.3c-6-0.1-12,0-17.9,0c-8.9,0-17.8-0.1-26.7-0.2c-3.1,0-6.2,0.2-9.2,0.1
	c-7.4-0.3-14.6,0.6-22,1.7C157,37.3,157,38.4,157,39.5z M248.4,34.9c0.2,1.1,0.4,2.2,0.6,3.5c5.1,0.1,9.8,0,14.6,0.2
	c9,0.4,18,0.6,27,0.1c3.6-0.2,7.2-0.1,10.8,0.1c2.6,0.1,5.1,0.8,7.6,0.8c6.5,0.2,13,0.1,19.5,0.1c1.7,0,2-0.5,1.8-3.3
	c-3.3-0.6-6.7-0.8-10.1-0.9c-6-0.3-12-0.6-17.9-0.8c-8.9-0.3-17.8-0.6-26.7-0.7c-6.5-0.1-13,0.6-19.5,0.2
	C253.7,34,251.1,33.7,248.4,34.9z M46.3,362.4c-5.2-2.9-10.2-3.4-15.5-3.8c-0.1,1.8-0.2,3.3-0.2,4.8c0,4.1,0.1,8.2,0,12.3
	c0,4.1-0.2,8.2-0.1,12.3c0,0.9,0.5,1.8,0.9,3c5.2-3,10.1-5.8,14.9-8.5C46.3,375.7,46.3,369.1,46.3,362.4z M73,37.3
	c1.6,0.1,3.1,0.3,4.7,0.3c4.8,0.2,9.5,0.3,14.3,0.6c4.2,0.3,8.5,0.9,12.7,1.1c6.4,0.3,12.9,1,19.3,0.6c5.4-0.3,10.9-0.3,16.4-0.5
	c0.6,0,1.4-0.4,1.7-0.8c0.3-0.4,0.1-1.2,0.2-1.9c-0.7-0.2-1.2-0.5-1.6-0.5c-6.8,0.2-13.6-1.1-20.5-0.3c-0.8,0.1-1.7-0.1-2.6-0.1
	c-12.1-0.6-24.2-1.2-36.3-1.8c-2.7-0.1-5.5,0.1-8.2,0.2c-0.3,0-0.5,0.3-1,0.6C72.4,35.6,72.7,36.4,73,37.3z M908.1,62.2
	c-2.2-0.2-4.1,0-5.9,0.5c-8.2,2-16.6,2.5-25,2.4c-8-0.1-16-1.1-24.1-1.6c-0.6,0-1.2,0.1-2.2,0.2c0.9,2.5,2.9,3.7,4.4,5.3
	c1.4,0,2.8,0,4.1,0c3.9-0.1,7.9-0.5,11.8-0.1c7.7,0.8,15.4-0.1,23.1,0.3C900.2,69.4,904.4,66.7,908.1,62.2z M874.1,431.2
	c0.1-1.6,0.4-3.1,0.3-4.6c-0.3-8.2-0.3-16.4-1.5-24.5c-2-1.3-3.8-2.6-6.7-2.5c-0.3,2.2-1.3,4.2-1.3,6.5c0,6.3,0.2,12.7,0.3,19
	c0,2,0.7,3.9,2.3,4.9C869.3,430.9,871.1,432.2,874.1,431.2z M34.9,186.8c0.2-1.2,0.3-1.8,0.4-2.5c0.3-7.8,0.8-15.7,0.9-23.5
	c0.2-12,0.7-23.9,0-35.9c-0.2-3.5-0.6-7-0.9-11.4c-0.9,1.2-1.5,1.7-1.6,2.2c-0.3,3.1-0.5,6.1-0.8,9.2c-1.1,10.1-0.3,20.2-0.1,30.2
	c0.1,2.4,0.2,4.8,0.3,7.2c0,2.4,0,4.8-0.1,7.1c0,2.6-0.2,5.1-0.1,7.7c0,2.7,0.2,5.5,0.4,8.2C33.3,185.7,34.1,186.1,34.9,186.8z
	 M905.2,121.5c-2-1.8-3.6-3.5-5.5-5c-0.9-0.7-2.1-1.4-3.2-1.4c-3.8,0.1-7.5,0.4-11.2,0.7c-2.5,0.2-4.5,1.6-6.4,3.1
	c-0.5,0.4-1,1.1-1,1.7c-0.1,2.6-0.1,5.1,0,7.7c0,0.8-0.3,1.7,0.8,2.3c1.5-1.2,3-2.8,4.7-3.5c3.5-1.4,7.1-2.4,10.8-3.2
	c3-0.7,6.1-1,9.1-1.5C903.8,122.3,904.3,121.9,905.2,121.5z M848.8,112.9c10.3,2.8,18.1,8.2,25.2,14.8c0.3,0.3,0.9,0.2,1.5,0.3
	c0-3.4,0-6.6,0-9.7c-3.8-5.4-9.9-7.4-15.2-10.3c-1.1-0.6-2.3-0.6-3.5,0C854.3,109.3,851.8,110.6,848.8,112.9z M859.2,74
	c2,3,4.2,5.3,6.5,7.5c0.2,0.2,0.6,0.3,0.9,0.4c4.5,1.1,9.2,2.2,13.5-0.1c3.1-1.6,6.3-2.4,9.6-3.1c1.3-0.3,2.3-0.6,3.1-1.5
	c1.1-1,2.2-2.1,3.3-3.2c0.4-0.4,1.2-0.9,0.1-1.8c-8.3,3.5-17.1,3.6-26,2.5c-3-0.4-6.1-0.7-9.1-1C860.8,73.6,860.3,73.8,859.2,74z
	 M891.8,81.3c0.8,2.2,1.4,3.9,2,5.7c1.9,5.1,11.1,9.4,15.7,5.4c-0.3-0.4-0.4-0.9-0.8-1.3c-3-3.1-4.4-6.9-5-11c-0.4-2.5-1-5-1.5-7.8
	c-1,0.4-2.1,0.5-2.7,1.1C896.9,75.9,894.5,78.5,891.8,81.3z M850.8,72c-1.6,5.1-5.1,9-8.9,12.6c-1.3,1.2-2.6,2.6-3.3,4.8
	c3.3,0.9,6.3,1.7,9.4,2.5c1.7,0.5,3.1,0,4.1-1.4c2.2-3.3,4.2-6.7,3.7-10.9c-0.2-1.7-0.2-3.4-0.4-5.1C855,72,854.5,71.7,850.8,72z
	 M856.2,106.1c0.4-3.6-1.1-6-3.1-8.3c-1.8-2.1-3.7-3.9-6.7-4.3c-2.7-0.4-5.3-1.3-8-1.9c-0.7-0.2-1.5-0.8-2.1,0.1
	c1.9,2.5,3.8,4.9,5.5,7.4c2.3,3.3,3.7,6.9,3,11.1c-0.1,0.4,0.2,0.9,0.4,1.7C849.3,110.7,852.5,108.2,856.2,106.1z M34.1,290
	c0.2-1.3,0.4-1.9,0.4-2.5c-0.1-4.6-0.6-9.2-0.2-13.8c0.6-7.3-0.2-14.6,0.1-21.9c0.3-9.2,0.3-18.5,0.3-27.7c0-5.3-0.2-10.6-0.3-15.9
	c0-0.7-0.3-1.4-1.2-1.2c-1.2,2.9-1.7,4.9-1.2,7.3c0.4,1.8,0.2,3.4,0,5.1c-0.1,1-0.4,2.1-0.2,3.1c0.9,5.6-0.3,11.2,0.3,16.8
	c0.4,3.8-0.2,7.8,0.5,11.7c0.4,2.1-0.1,4.4-0.1,6.7c0,1.5-0.1,3.1-0.1,4.6c0,2.4,0,4.8,0,7.2c0,1-0.2,2-0.2,3.1
	c0,2.7,0.1,5.5,0.2,8.2c0.1,2.6,0.2,5.1,0.4,7.7C32.7,288.7,33.4,289.1,34.1,290z M428.1,41.3c2.4,0.4,4.2,0.7,6,1.1
	c4.6,1,6.2,2.3,6.4,6.6c0.3,6.5,0.5,13-0.3,19.4c-0.7,6.3-0.2,12.5-1.2,19.5c1.3-0.8,2.2-1,2.5-1.6c0.3-0.7,0.2-1.7,0.2-2.5
	c0.3-4.3,0.4-8.5,0.9-12.8c0.8-6.8,1.4-13.6,1.1-20.4c-0.1-2-0.3-4.1-0.7-6.1c-0.7-3.2-2.3-5.5-5.8-6.3c-2.7-0.6-5.3-1.2-8.1-0.9
	c-0.5,0.1-0.9,0.4-1.4,0.7C427.8,39.1,427.9,40.1,428.1,41.3z M905.7,118.8c0.4-2.6,0.8-4.6,0.9-6.6c0.2-5.1,1.7-9.7,4.6-13.8
	c0.6-0.8,0.9-1.7,1.5-2.8c-2.3-1-4.3-0.3-6.3-0.3c-2.7,0-4.5,1.6-5.4,4c-1.4,3.5-2.2,7.3-1.3,11
	C900.5,113.4,901.8,116.6,905.7,118.8z M126.2,328.6c1.4,0.6,2.6,1.4,3.9,1.7c1.9,0.5,3.3-0.7,3.3-2.7c0.2-7.1,0.7-14.2,0.2-21.4
	c-0.1-0.8-0.3-1.6-0.4-2.3c-0.7-0.2-1.2-0.4-1.7-0.5c-1.2-0.2-2.5-0.5-3.2,0.8c-0.6,1.3-0.2,2.3,1.1,2.9c0.3,0.1,0.5,0.5,0.5,0.8
	c0.1,1.4,0.3,2.7,0.2,4.1c0,0.9,0.3,2-0.8,2.6c-1.2-0.7-0.5-2.5-2.1-3.3c-0.4,5.1-0.7,9.8-1.1,14.6
	C126.1,326.6,126.2,327.3,126.2,328.6z M120.4,471.1c0.2-8.8,0.5-17.8,0.6-26.7c0-1.2-0.3-2.3-0.5-3.5c-1.2,0-2.1,0-3.4,0
	c-0.1,2.4,0.2,4.6-0.3,6.7c-1.6,7.2-1.5,14.5-2.3,21.8c-0.1,0.9,0.3,1.9,0.5,2.8C117.1,472.6,118.7,472.6,120.4,471.1z M27.2,360.6
	c-4.4,1.2-5.2,1.7-5.2,5.3c0,6.8,0.3,13.6,0.6,20.4c0.1,2.1,1.8,3,3.5,3.8C27.3,385.8,28,367.2,27.2,360.6z M899.4,96.4
	c-2.4,0-4.6-0.1-6.8,0c-4.1,0.1-4.5,0.6-5.7,4.7c1.2,5.6,6,7,10.5,9.9C897,105.6,898.3,101.1,899.4,96.4z M878.2,115.6
	c3-0.7,5.7-1.4,8.3-2c2.6-0.6,5.3,0.1,8.6-1.4c-4-2.8-7.4-5.3-10.8-7.8c-1.3,0.3-2.4,0.4-3.6,0.8c-1.1,0.3-2.2,0.8-3.1,1.2
	C876.9,109.7,877.2,112.5,878.2,115.6z M32.8,306.7c-2,16.4-2.2,32.2-1,48c0,0.1,0.5,0.3,1,0.5c0.8-1.5,0.6-3.2,0.6-4.8
	c0.1-3.1,0.1-6.1,0.3-9.2c0.1-2.5,0.6-5.1,0.7-7.6c0.1-7.2,0-14.3,0-21.5c0-1.2,0-2.4-0.1-3.6C34.2,308.1,33.6,307.6,32.8,306.7z
	 M863.5,285c-0.1,10.5-0.6,19.9,1.4,29.5c1.3,0.3,2.4,0.6,3.8,0.9c0.1-1.3,0.4-2.2,0.3-3.2c-0.3-3.2-0.7-6.4-1-9.6
	c-0.2-2.1,0.6-4.5-1.8-5.9c-0.2-0.1-0.2-0.6-0.3-1c-0.3-2.1-0.5-4.3-0.8-6.6c0.9,0.2,1.7,0.3,2.6,0.5c-0.2-1-0.1-2.2-0.7-2.9
	C866.4,286,865.2,285.8,863.5,285z M857.9,187.6c0.5-0.1,1.5-0.3,2.4-0.8c2.1-1.2,3.6-3,4.3-5.4c0.5-1.8,0.2-2.9-1.4-3.9
	c-1.6-0.9-3.3-1.6-5.1-2.1c-0.7-0.2-1.7,0.1-2.3,0.5c-2.5,1.8-3.6,5.4-2.8,8.2C853.5,186.3,855.1,187.5,857.9,187.6z M913.1,61.7
	c-5.2,3.6-5.6,3.9-7,7.4c4,1.7,9,1.8,20.2,0.4C921.7,66.8,917.4,64.2,913.1,61.7z M876.1,93.3c3.9-3.9,7.9-7.2,11.6-11.4
	c-1.9-0.3-3.1-0.1-4.4,0.6c-3.7,2-7.6,3-11.8,2.5c-0.7-0.1-1.7-0.3-2.1,1C871.2,88.4,873,91.1,876.1,93.3z M882.5,90.3
	c4.1,4.3,8.8,5.5,14.4,3.5c-1.4-1.5-2.8-2.9-4.1-4.3c-1.4-1.6-1.3-4.2-3.5-5.7C886.9,85.8,883.9,87.2,882.5,90.3z M955.4,535.7
	c-2.4,1.3-4.8,0.2-7.7,1.4c2.8,0.7,4.7,1.2,6.9,1.7c-2.2,1.1-4.3,0-6.1,1.1c0.6,1.7,2.8,0.5,3.6,1.8c-1,1-2.6,0-3.3,1.7
	c3,0.3,5.6,0.6,8.3-1.1c0.2-4,0.5-7.9-0.6-11.8c-2.5,0-4.8,0-7,0c-0.2,0-0.3,0.5-0.5,0.8c1.8,1.5,4.3,0.1,6.5,1.4
	c-2.5,1.2-5.3-0.1-8.1,1.3C949.9,536,952.7,534.7,955.4,535.7z M851,186.6c-0.2-1.8-0.6-3.6-0.4-5.4c0.2-1.8,0.9-3.5,1.5-5.4
	c-1.5-1.3-3.1-1.7-4.8-0.8c-2.4,1.3-4,3.3-4.1,6.1c-0.1,4.3,1.5,8.4,7.5,5.9C850.8,186.9,850.8,186.8,851,186.6z M945.7,90
	c-2.7-2.4-4.5-4.1-6.5-5.7c-2.1-1.6-3-4.4-5.6-6.1c-0.2,4.5-0.3,8.6,0.3,12.8c1,0.1,1.8,0.3,2.6,0.2C939.2,90.9,941.9,90.5,945.7,90
	z M866.3,102.7c-2,0.5-3.8,1.4-5.2,3.3c2.6,1.4,5,2.5,7.3,3.9c2.3,1.3,4.1,3.4,7.3,4c-0.2-2-0.3-3.7-0.4-4.9c-1.1-0.6-2.4-1-2.4-1.4
	c-0.1-1.7-1.3-2.3-2.5-2.9C869.1,104,867.7,103.4,866.3,102.7z M864.6,101.1c-0.3-2.5-1-4-2.7-4.8c-2.3-1.1-5.2-1.3-7.6-0.6
	c1.7,2.7,3.4,5.3,5.2,8.1C861.3,103,862.9,102.1,864.6,101.1z M935.1,98.3c3.3-2.3,7.3-3,10.8-6.6c-4.4,0.6-7.9,1-11.3,1.5
	C933.6,95.1,933.9,96.6,935.1,98.3z M887.1,72c-9.6-0.9-17.7-0.7-21.5,0.2C872.8,72.4,879.9,74.5,887.1,72z M950.2,518
	c2.3,1.7,2.3,1.7,4.2,1.4c2.7-0.4,5.3-1.5,8.6-0.5c-0.4-1.3-0.7-2.1-1-2.9C957.8,516.8,954,517.4,950.2,518z M951.4,515.8
	c3.6-0.5,6.8,0.8,9.4-1.9c-1.6-2.4-3.8-0.6-5.6-0.9C953.7,512.8,952.2,513.3,951.4,515.8z M959.6,521.3c-3.3-0.1-6.6-0.8-10,1.3
	C953.5,523.1,956.7,523,959.6,521.3z M950.2,528.8c2.2,0.1,4.4,0.1,6.6,0.2c0.2,0,0.5-0.5,0.5-0.8c0-0.3-0.2-0.8-0.3-0.8
	C954.6,527,952.3,527,950.2,528.8z M867,99.6c1.9-1.1,3.7-1.4,4.8-3.6c-2.1,0-3.8,0-5.4,0c-0.2,0-0.4,0.4-0.8,0.9
	C865.9,97.6,866.3,98.3,867,99.6z M883.9,101.5c0.6-1.8,0.9-2.9,1.3-4c-2.5-0.4-2.5-0.4-4.9,0.5c0.4,0.6,0.7,1.1,1.2,1.6
	C882,100.2,882.7,100.6,883.9,101.5z M948.9,525.6c2.9,0.3,5.6-0.3,9.4-0.8C953.3,523.9,952.1,524,948.9,525.6z M884.2,94.9
	c-1.9-1.5-2.9-2.2-4.1-3.1c-0.7,1.2-1.2,2.1-1.9,3.3c1.1,0.1,1.8,0.2,2.4,0.2C881.4,95.2,882.2,95.1,884.2,94.9z M953.6,511.6
	c1.7-0.1,2.5-0.2,3.3-0.2C956,509.6,956,509.6,953.6,511.6z"/>
<path fill-rule="evenodd" clip-rule="evenodd" d="M489,695.5c-0.1-0.1-0.2-0.1-0.3-0.2c0.2,0,0.5,0.1,0.7,0.1
	C489.3,695.5,489.2,695.5,489,695.5z"/>
<path fill-rule="evenodd" clip-rule="evenodd" d="M991.7,683.9c-0.3,0-0.6-0.1-0.9-0.1C991.1,683.8,991.4,683.8,991.7,683.9
	C991.7,683.9,991.7,683.9,991.7,683.9z"/>
<path fill-rule="evenodd" clip-rule="evenodd" fill="#FFFFFF" d="M847.3,72.7c-0.4,1.3-0.5,2.1-0.9,2.8c-2.5,4.2-6.1,7.3-9.4,10.8
	c-1.6,1.7-3.6,2.3-6.1,1.7c-8-1.8-16.1-3.4-23.9-6c-1.1-0.4-2.3-0.8-3.4-1c-0.4-0.1-0.8,0.3-1.3,0.5c2.6,2.3,5.3,3.3,14.1,5.3
	c5,1.2,10,2.3,15.3,3.5c3.3,3,6.3,6.7,8.7,10.8c1.5,2.6,2.6,5.1,2,8.2c-0.3,1.2,0.2,2.6,0.3,4c-1.9,2.3-5,2.6-7.4,4
	c-0.2,1.3,0.8,1.2,1.3,1.1c1.2-0.2,2.3-0.5,3.4-0.9c1.4-0.6,2.7-1.4,4.1-2.2c1.3-0.7,2.5-0.8,3.9-0.4c4.1,1.2,8.2,2.5,11.8,4.9
	c3.1,2.1,6.3,4.2,9.4,6.2c3,1.9,4.6,5,6.2,8.1c0.4,0.8,0.2,2,0.2,3c0,2.7,0.1,5.4,0.1,8.2c0,1,0.1,2.1,0,3.1
	c-0.3,4.3-0.7,8.5-1,12.8c-0.1,1.6-0.8,2.9-2.1,3.9c-2,1.6-3.9,3.3-5.7,5.1c-2.9,2.8-4.2,3.4-7,1c-3.4-2.8-6.4-2.6-9.8-0.3
	c-1,0.7-2.2,0.9-3.3,1.5c-6.1,3.1-6.7,8.2-5.4,13.5c0.2,0.9,0.9,2,1.7,2.5c4.1,2.6,8.4,4.4,13.5,2.2c4.3-1.8,7.7-4.4,10.4-8.3
	c1.2,0.3,2.3,0.5,3.2,0.7c0.3,0.6,0.5,0.9,0.6,1.2c0.5,2.9,0.5,5.8,0.3,8.7c-0.3,5.6-0.2,11.3-0.2,17c0,0.3,0.7,1,0.9,1
	c0.6-0.2,1.2-0.5,1.5-1c0.3-0.6,0.1-1.3,0.2-2c0.3-5,0.5-9.9,0.8-14.9c0.1-1.5,0.3-3.1,2.1-4.1c2,1.4,3.4,3.1,3.9,5.6
	c0.5,3,0.9,6,0.3,9.2c-0.5,3.2-0.6,6.4-0.8,10.1c1.4-0.4,2.2-0.7,3.2-1c0.9-5.9-0.2-11.7,0.1-17.6c1.8-0.5,3.1,0.4,4.6,0.8
	c0.1,0.4,0.4,0.9,0.4,1.3c0,4.5,0,8.9,0,13.4c0,2.4,0,4.7,1.9,7.2c1.2-4,0.3-7.5,0.7-11c0.4-3.4,0.7-6.8,1-10.5
	c0.9-0.3,2-0.7,3.2-1.1c1.5,7.3,0.3,14.3,0.8,21.5c0.8,0.3,1.5,0.6,2.2,0.8c0.2-0.5,0.5-0.8,0.5-1.1c-1.1-6.1-0.3-12.3-0.7-18.4
	c-0.2-2.9,0.4-5.7,2.2-8.2c2.6-3.6,2.3-7.8,1.3-11.9c-0.3-1.2-1.1-2.2-1.3-3.4c-0.8-4.1-3.5-6.5-7-8.3c-5.3-2.9-7.3-3.5-14.9-4.1
	c-1.1-2.9-1.1-5.6,0.8-8.5c5.5-8.1,12.9-13.6,22-17c1.4-0.5,2.9-1.1,4.3-1.8c3.6-1.8,7.6-2.2,11.5-2.3c2.4-0.1,4.7,0.3,6.5,2.4
	c0.7,0.9,1.9,1.5,3,2c0.5,0.2,1.5,0,1.8-0.4c0.5-0.5,0.1-1.3-0.6-1.6c-2.3-1.2-4.3-2.7-5.9-4.4c-1.1-10.1,2.5-18.3,9.1-25.3
	c1.4,0.4,1,1.4,1,2.1c-0.5,7.2,0,14.4,0.3,21.6c0.1,1.4,0.1,2.7,0,4.1c-0.3,4.1-0.4,8.2,0.2,12.3c0.3,2,0.2,4.1,0.1,6.2
	c-0.2,9.4-0.6,18.8-0.5,28.3c0.1,11.3,0.8,22.6,1.1,33.9c0.4,13.9,0.8,27.7,1,41.6c0.1,7.4-0.3,14.7-0.3,22.1
	c0,7.9,0.4,15.8,0.6,23.6c0.2,6.8,0.6,13.7,0.8,20.5c0.3,9.6,0.5,19.2,0.6,28.8c0,3.4-0.3,6.8-0.5,10.3c-0.3,7.4-0.7,14.7-0.9,22.1
	c-0.1,4.1,0.3,8.2,0.3,12.3c0.1,8.4-0.2,16.8-0.9,25.1c-0.4,4.4-0.1,8.9-0.2,13.4c-0.1,3.8-0.3,7.5-0.5,11.3
	c-0.1,2.2-0.2,4.5-0.2,6.7c0.1,8.6,0.1,17.1-0.3,25.7c-0.2,2.7-0.5,5.4-0.8,8.2c-0.4,4.9-0.9,9.9-1.3,15c-2.1,3.1-5.1,4.3-9.1,4.2
	c-7.5-0.1-15.1,0.2-22.6,0.3c-1.3,0-2.7-0.3-4.2-0.4c-0.4-1.2-0.9-2.3-1.1-3.5c-0.7-4.9-1.4-9.8-2-14.8c-0.9-8.3-1.7-16.7-2.4-25.1
	c-0.7-8.4-1.1-16.7-1.6-25.1c-0.3-4.1-0.5-8.2-0.8-12.3c0-0.5-0.1-1-0.2-1.5c-0.4-8.7-0.8-17.5-1.4-26.2c-0.5-7.7-1.3-15.4-1.9-23
	c-0.8-9.6-1.7-19.1-2.1-28.7c-0.6-12.5-0.8-25-1.2-37.5c-0.2-5.1-0.6-10.3-0.6-15.4c-0.1-10.4,0-20.9,0-31.3c0-3.1-0.3-6.2-0.3-9.2
	c-0.2-6-0.3-12-0.5-17.9c-0.1-2.2-0.4-4.4-0.6-6.7c-1.4-0.4-2.5-0.9-3.6-1c-3.4-0.2-6.9-0.4-10.3-0.2c-8.4,0.5-16.7,1.3-25.1,1.7
	c-8.4,0.5-16.8,0.6-25.2,1c-12.3,0.6-24.6,1.5-36.6,4.6c-6.1,1.5-12.4,2.4-18.6,3.7c-3.5,0.7-7,1.6-10.5,2.5c-3,0.8-5.9,1.9-8.9,2.5
	c-4,0.9-5.8,3.5-6.1,7.2c-0.5,5.3-1.5,10.5-1.2,15.9c0.4,7.1-1.1,14-2.1,20.9c-0.4,2.7-0.7,5.4-0.7,8.2c0.1,4.8-0.6,9.6-0.9,14.3
	c-0.4,6-0.5,12-0.7,18c0,1,0.1,2.1-0.1,3.1c-2,10.8-2,21.8-2.4,32.8c-0.3,8.7-1,17.4-1.9,26.1c-1.3,12.9-3.1,25.8-3.5,38.9
	c-0.3,10.4-1.2,20.8-2.1,31.3c-0.8,10.4-1.9,20.8-3,31.2c-0.5,4.7-1.3,9.5-2,14.2c-2,1-3.9,1-5.7,1.1c-4.4,0.4-8.9,0.8-13.3,1.1
	c-1.2,0.1-2.4,0.2-3.6,0.1c-9.4-0.8-18.8,0.3-28.2,0.3c-1.2,0-2.4,0-3.6,0.3c-2,0.4-4,0.1-6.1-0.1c-4.8-0.5-9.6-0.4-14.4-0.5
	c-0.5,0-1,0.1-1.5,0.1c-8.4-0.9-16.7,0.1-25.1,0.2c-7.9,0-15.7,1-23.6,1.5c-0.9,0.1-1.7,0.2-2.6,0.2c-12.7-0.4-25.3,0.4-38-0.4
	c-4.6-0.3-9.2,0-13.9,0c-4.1,0-8.2,0.1-12.3,0c-8.9-0.1-17.8,0-26.6,1.4c-1.4,0.2-2.7,0.3-4.1,0.3c-5.2,0-10.2,0.7-15.3,1.4
	c-0.8,0.1-1.7,0.2-2.5,0.1c-9-1.6-18.1-1.2-27.2-0.7c-5.3,0.3-10.6,0.2-15.9,0.7c-11.5,1.2-22.9-0.1-34.4,0.3
	c-2.6,0.1-5.1,0.2-7.7,0.4c-5,0.3-9.9,0.6-14.9,0.9c-1.2,0.1-2.4,0-3.6,0.3c-5.7,1.4-11.5,1.6-17.4,1.7c-0.7,0-1.4,0-2.1,0.1
	c-12.4,1.6-25,1-37.5,1.9c-2.2,0.2-4.4,0.1-6.7,0.1c-7.2-0.1-14.4,0.1-21.5,1c-1.2,0.1-2.4,0-3.8,0c-0.3-0.8-0.8-1.5-0.8-2.3
	c-0.4-5.1-0.8-10.2-1-15.4c-0.1-3.4,0-6.8-0.3-10.2c-0.7-9.2-1.1-18.5-1.2-27.7c-0.1-8.4,0.1-16.8-0.7-25.2
	c-0.3-3.2-0.1-6.5-0.1-9.8c0-8.7-0.3-17.5-1-26.2c-0.6-6.5-0.3-13-0.4-19.5c0-1,0.1-2.1,0-3.1c-1-8.2-0.6-16.4-0.8-24.7
	c-0.1-4.6-0.3-9.2-0.4-13.8c0-1.2,0-2.4,0.2-3.6c0.3-2.4,0.5-4.7-0.5-7.1c-0.5-1.2-0.3-2.7-0.3-4.1c0.1-6.5,0.2-13,0.2-19.5
	c0-2.7-0.1-5.5-0.2-8.2c-0.3-11-0.6-21.9-1.1-32.9c-0.3-6.7-0.8-13.3-2.5-20.1c-0.9-0.1-1.9-0.3-2.8-0.3c-9.2,0.5-18.5,0.5-27.7,0
	c-9.1-0.5-18.2,0.4-27.2,1.3c-13.4,1.3-26.9,3-40.3,4.4c-2.5,0.3-5.1,0.4-7.7,0.3c-9.1-0.3-18.1,0.5-27.2,1.2
	c-3.1,0.2-6.1,0.3-9.1-0.9c-3.1,2.3-4.1,5.7-4.8,9c-0.7,3.5-0.8,7.1-1.1,10.7c-0.6,6.8-1.4,13.6-1.8,20.5
	c-0.4,6.8-0.3,13.7-0.5,20.5c-0.1,1.9-0.2,3.7-0.4,5.6c-0.3,2.9-0.6,5.8-1,8.6c-0.2,1.3-0.6,2.7-0.9,4c-1.1,4.2-1.9,8.3-2.1,12.6
	c-0.1,2.9-0.6,5.8-1.2,8.6c-1.1,4.9-1.4,9.8-1.3,14.8c0.1,6.7-1.4,13.3-2.3,19.9c-1.2,9.2-2.6,18.3-3.7,27.5
	c-1,8.1-1.9,16.3-2.7,24.5c-0.2,1.9-0.2,3.8-0.3,5.6c-0.3,7.2-0.7,14.4-0.9,21.5c-0.3,9.6-0.4,19.2-0.6,28.8
	c-0.2,7.7-0.4,15.4-0.7,23.1c0,0.3-0.2,0.6-0.3,1c-4.7,1.4-20,0.5-31.6-2c-0.2-0.7-0.6-1.5-0.6-2.3c-0.2-4.5-0.3-8.9-0.4-13.4
	c-0.3-19.7-0.2-39.4,0.1-59.1c0.1-3.2-0.3-6.5-0.4-9.7c-0.1-3.8-0.2-7.5-0.3-11.3c0-1.2,0-2.4,0-3.6c0-1-0.3-2.1-0.1-3.1
	c0.8-5.6-0.1-11.3,0.1-16.9c0.1-2.9-0.4-5.8-0.3-8.6c0.2-6-0.3-11.9-0.2-17.9c0.1-2.7,0.4-5.4,0.5-8.2c0.1-1.2,0-2.4-0.1-3.6
	c0-1.4-0.4-2.8,0-4.1c1-3.6,0.4-7.1,0.5-10.7c0.3-10.3,0.7-20.5,1-30.8c0.1-3.6-0.1-7.2-0.2-10.7c-0.1-3.6-0.2-7.2-0.3-10.8
	c-0.2-4.4-0.4-8.9-0.5-13.3c-0.2-6.2-0.3-12.3-0.4-18.5c-0.1-5-0.3-9.9-0.1-14.9c0.3-10.1,0.3-20.2,1.2-30.3
	c0.6-6.5,0.5-13,0.5-19.5c0-4.4-0.6-8.9-0.6-13.3c0.1-5.1,0.6-10.3,0.9-15.4c0.1-0.9,0.2-1.7,0.3-2.5c0.6-7.2,1.2-14.3,1.8-21.5
	c0.1-1.2,0-2.4,0-3.6c-0.1-2.1-0.2-4.1-0.3-6.1c-0.3-7.2,0.9-14.4,1-21.5c0-1.4,0.2-2.7,0.5-4.1c0.9-5.4,1.2-10.8,1.2-16.3
	c0-3.1,0.3-6.1,0.4-9.2c0-1.1,0.6-2,1.5-2.5c1.4-0.7,2.8-1.2,4.3-1.6c3.9-1,7.8-1.1,11.8-0.7c4.1,0.5,8.2,0.7,12.3,0.6
	c4.9-0.1,9.9,1.1,14.8-0.1c0.3-0.1,0.7,0,1,0.1c9.3,1.2,18.8,1.4,28.2,1.7c7.5,0.2,15.1-0.2,22.6-0.4c3.3-0.1,6.5,0,9.8-0.2
	c3.1-0.2,6.1-0.9,9.2-0.9c6.5,0.1,13-0.6,19.4-0.8c0.3,0,0.7-0.1,1,0c2.2,0.3,4.3,0.9,6.5,1c2.2,0.1,4.4-0.3,6.6-0.4
	c4.9-0.1,9.9,0.4,14.8-0.8c1.1-0.3,2.4-0.3,3.6-0.4c4.4-0.2,8.9-0.4,13.3-0.4c10.4,0,20.9,0,31.3,0.1c4.4,0,8.9,0.4,13.3,0.6
	c0.3,0,0.7,0.1,1,0c11.5-1.1,22.9,0.5,34.4,0.8c0.5,0,1,0.1,1.5,0c13.4-0.6,26.7,0.6,40,1.1c6.5,0.3,13,1.2,19.5,0.5
	c0.8-0.1,1.7-0.1,2.6,0c7.7,0.6,15.4,1,23,1.8c4.2,0.5,8.2,0.3,12.2-0.5c1.4-0.3,2.7-0.4,4.1,0.8c0.8,3.2-0.4,6.5-0.8,9.9
	c-0.1,0.6-0.7,1.2-1.1,1.7c-2.7,2.9-4,6.2-3.4,10.3c0.5,3.9-1.2,6.9-4.7,8.9c-5.1,2.9-9.5,6.7-13.9,10.5c-4.7,4.1-8.1,9.4-11,14.8
	c-1.9,3.6-2.2,7.9-1.8,12c0.3,3,1.2,6,2,9c0.3,0.9,0.9,1.9,1.6,2.6c1.3,1.4,2.7,2.7,4.1,3.8c2.8,2.2,5.6,4.4,8.6,6.5
	c3.9,2.8,8.5,3.6,13.1,4.2c2,0.3,4.1,0.2,6.1,0.2c1.9,0,3.8-0.1,5.6,0.1c4,0.3,7.7,0.1,11.5-1.7c2.5-1.2,5.5-1.4,8.3-2.4
	c5.5-2.2,10.2-5.6,14.4-9.6c0.5-0.5,0.9-1,1.3-1.6c4.4-7.8,6.5-16.2,5.5-25.2c-0.2-2-1.2-3.9-2.1-5.7c-1.1-2.1-2.3-4.2-3.8-6.1
	c-1.5-1.9-3.1-3.7-5-5c-2.9-2.1-6-4-9.3-5.4c-2.8-1.2-5.9-1.7-8.9-2.3c-2-0.4-4-0.8-5.9-2.2c-0.8-2.4-0.6-5-0.1-7.5
	c0.5-2.5-0.5-4.7-0.7-7.1c0-0.4-0.4-1-0.8-1.2c-2.2-1.3-2.2-3.3-2-5.4c0.2-2.7-0.1-5.5,1.1-8.3c1.3-0.1,2.6-0.4,3.9-0.3
	c8.2,0.2,16.4,0.5,24.6,0.7c3.2,0.1,6.5,0.2,9.7,0.1c6.2-0.2,12.3-0.6,18.5-0.8c6.5-0.2,13-0.4,19.5-0.2c11.1,0.3,22.3,0.4,33.4-0.4
	c3.2-0.2,6.5,0.1,9.7,0.1c3.1,0,6.2,0.1,9.2-0.2c5.5-0.5,11,0.4,16.4-0.9c1.5-0.3,3.1-0.2,4.6-0.2c5.5-0.3,10.9-0.6,16.4-0.8
	c1-0.1,2.1-0.1,3.1-0.1c12-0.2,24-0.2,35.9,0.6c0.9,0.1,1.7,0.1,2.6,0.1c8-0.2,16.1,0.1,24.1,0.1c3.2,0,6.5-0.3,9.7-0.5
	c14.2-0.7,28.4-0.2,42.6,0.9c6.5,0.5,13,0.6,19.5,0.7c3.1,0,6.1-0.8,9.2-0.9c5.1-0.2,10.3-0.1,15.4-0.2c11.5-0.1,23,0.1,34.4-0.2
	c9.9-0.3,19.8-1,29.7-1.7C840.4,72.5,843.5,72.2,847.3,72.7z"/>
<path fill-rule="evenodd" clip-rule="evenodd" fill="#FFFFFF" d="M119.6,516.9c-2-4.2-2.1-8.2-2.1-12.1c0-9.1,0.2-18.2,0.3-27.2
	c0-0.5,0.1-1,0.3-1.8c1.4-0.6,2.9-1.2,4.5-1.9c0.7-2.9,1.1-5.7,0.9-8.6c-0.2-2.7,0.1-5.5,0.1-8.2c0.1-5.8,0.1-11.6,0.2-17.4
	c0-0.3,0-0.7-0.2-1c-1.8-3.6-1.3-7.4-1-11.1c0.8-10.2,1.9-20.4,2.9-30.7c0.2-1.7,0.4-3.4,0.5-5.1c0.7-13.3,1.4-26.7,2.2-40
	c0.3-4.6,0.6-9.2,0.9-13.8c0.1-1.3,0.5-2.6,0.8-4.1c1.8-0.5,3.4-1,5.1-1.5c0.3-0.8,0.7-1.6,0.7-2.4c0.2-7.9,0.4-15.7,0.5-23.6
	c0-1,0.1-2.1-0.1-3.1c-0.2-0.8-0.6-1.8-1.2-2.1c-2.2-1.2-2.8-3.1-2.6-5.2c0.7-9,0.6-18.2,3.8-26.7c1.7-1.9,3.8-2.4,6.1-2.4
	c9.1,0.1,18.1-0.9,27.1-2.1c16.5-2.1,32.9-4.3,49.4-6.5c1.2-0.2,2.4-0.4,3.6-0.5c6.6-0.5,13.3-1.2,19.9-1.5
	c3.6-0.2,7.2,0.2,10.8,0.5c1.9,0.1,3.2,1.1,3.5,3.1c0.3,2.4,0.9,4.7,0.9,7.1c0.1,10.6,0,21.2,0,31.8c0,5.3,0.1,10.6,0.1,15.9
	c0,5.7-0.1,11.3-0.2,17c0,3.8,0.1,7.5,0.7,11.3c0.4,2.5,0.2,5.1,0.3,7.7c0.2,8,0.1,16.1-0.6,24.1c-0.1,0.7-0.2,1.4-0.1,2
	c1.2,9.7-0.3,19.5,1,29.2c0.7,5.1,0.7,10.2,1.4,15.3c0.6,3.9,0.3,7.8,0.2,11.8c-0.5,10.6-1.2,21.2-0.4,31.8c0.2,2.2,0,4.4,0.1,6.7
	c0.3,13.7,0.7,27.4,1,41.1c0,1.2-0.1,2.4-0.2,3.8c-1.1,0.2-2.1,0.5-3,0.5c-4.3-0.2-8.6-0.2-12.8-0.7c-5.3-0.6-10.6,0.3-15.9,0.7
	c-12.3,0.9-24.6,1.3-37,1c-6.5-0.1-13,0.2-19.5,0.1c-13.2-0.2-26.3-0.7-39.5-1C128.7,516.8,124.2,516.9,119.6,516.9z M238.4,263
	c2.3-0.1,4.7-0.1,7-0.3c1.1-0.1,2.4-0.2,2.6-1.8c-0.4-0.2-0.9-0.6-1.2-0.5c-2.6,0.6-5.2,1.2-7.8,1.9
	C238.9,262.4,238.7,262.9,238.4,263c-3.9-0.3-3.9-0.3-7.6,1.9C233.9,264.2,236.2,263.6,238.4,263z M228.3,386.6c0,0.8,0,1.2-0.1,1.7
	c-0.4,2-1.1,4-1.3,6c-0.6,4.3,1.4,6.7,5.7,7.5c2.6,0.5,5.1,0.3,7.6,0c7.5-0.9,11.4-9.2,10-15.4c-1.6-6.8-7.7-11.7-14.7-12.4
	c-4.2-0.4-8.1,0.6-12.2,1.5c-9.7,2.1-17,7.7-23,15.2c-0.3,0.3-0.5,1.1-0.3,1.4c0.3,0.5,1,0.9,1.5,1.1c2.1,0.4,4-0.4,6-1.1
	c4.5-1.6,9-3.3,13.6-4.7C223.4,386.7,225.8,386.4,228.3,386.6z M231.4,268.5c4-0.4,8-0.6,11.7-2.4C239,265.7,235.2,267,231.4,268.5z
	"/>
<path fill-rule="evenodd" clip-rule="evenodd" fill="#FFFFFF" d="M745.1,260.1c3.2-0.9,6.5-1.7,9.7-2.7c5.9-1.8,11.8-3.6,17.7-5.5
	c10.5-3.4,21.3-4.8,32.3-5.8c3.1-0.3,6.2-0.5,9.2-1c12.6-2,25.2-2.2,37.9-2.3c3.1,0,6.1-0.3,9.5,0.5c0.1,1.7,0.4,3.3,0.4,5
	c-0.2,8.1,1,16.1,1.4,24.1c0.1,1.9,0.1,3.8,0.2,5.6c0.1,1.4-0.2,2.7-1.2,3.8c-1.5,1.7-1.7,3.7-1.5,5.8c0.6,7.2,0.2,14.4,0,21.5
	c-0.1,3-0.5,6.2,2.3,8.5c0.4,0.3,0.5,1.3,0.5,1.9c0.4,7.4,1,14.7,1.1,22.1c0.1,11.3-0.2,22.6-0.2,33.9c0,5.7,0.3,11.3,0.4,17
	c0,1.3,0,2.8-0.6,3.9c-1.3,2.5-1.7,5.2-1.7,7.9c0,8.4,0.2,16.8,0.3,25.1c1.3,1.2,2.5,2.2,3.7,3.2c0.1,0.4,0.4,0.9,0.4,1.4
	c0.3,7.3,0.3,14.7,0.8,22c0.5,6.8,0.8,13.7,1.8,20.4c0.6,4.2,0.4,8.5,0.4,12.8c0,3.9-0.1,7.9-0.3,11.8c0,0.8-0.3,1.6-0.4,2.7
	c-1.2,0.2-2.1,0.5-3.1,0.4c-4.8-0.1-9.6-0.4-14.4-0.6c-5.5-0.2-11-0.3-16.4-0.5c-2.4-0.1-4.8-0.3-7.2-0.6
	c-6.3-0.8-12.6-1.4-18.9-1.4c-12,0-24,0.1-36,0c-3.9,0-7.9-0.4-11.8-0.3c-8.7,0.2-17.4,0.6-26.2,0.9c-1,0-2,0-3.2,0
	c-1-5-1-9.8-0.5-14.5c1.3-11.6,1.3-23.3,2.1-34.9c1.1-16.1,0.9-32.2,2.4-48.2c1-10.9,1.2-21.9,1.9-32.8c0.4-6.2,1.1-12.3,1.5-18.4
	c0.4-6.5,0.5-13,0.7-19.5c0.1-2.1,0-4.1,0.3-6.2c0.9-6.3,1.6-12.6,1.8-18.9c0.2-5.1,0.4-10.3,0.7-15.4c0.2-3.8,0.3-7.5,0.5-11.3
	c0.2-4.6,0.2-9.2,0.5-13.9C744.2,265.5,744,262.9,745.1,260.1z M750,276.8c-0.4,0.5-1.2,0.9-1.3,1.4c-0.2,2.9-0.3,5.8-0.3,8.6
	c0,0.5,0.2,1.4,1.3,0.8c-0.5-3.7-0.9-7.4,0.1-11c0.3-3.1,0.6-6.1,0.8-9.2c0-0.5,0-1.5-1.3-1.1c0,2.5-0.1,5,0,7.5
	C749.5,274.8,749.8,275.8,750,276.8z M794.1,376.9c-2.9-5.6-6.1-9.5-11.6-11.2c-3.8-1.2-7.7-1.6-11.6-1.6c-4.4,0-8.9,0-13.1,1.6
	c-1.6,0.6-3.2,1.3-4.4,2.5c-2.7,2.7-4.4,6-5,9.9c-0.3,1.8,0.1,3.4,1.1,4.9c2.4,3.7,5.9,5.3,10.2,6c3.3,0.5,5.2-0.7,6.8-3.3
	c1-1.7,1.8-3.7,1.6-5.8c-0.1-1.1,0-2.3,0-3.7c2.6-1.2,5-2.8,7.6-3.2c4.4-0.7,8.9-0.4,12.9,2C790,375.8,791.4,376.6,794.1,376.9z
	 M754.5,278.9c0-1.8-0.1-3.7,0-5.5c0.1-1.8,0.6-3.6,0.9-6c-2.7,1.8-1.9,4.2-2.5,6.1C752.5,275.4,752.2,277.4,754.5,278.9z"/>
<path fill-rule="evenodd" clip-rule="evenodd" fill="#FFFFFF" d="M239.1,39.7c0.6,1.1,1.2,1.9,1.9,3.2c1.9,0.2,4.1,0.4,6.5,0.7
	c0.7-0.9,1.4-1.8,2.3-2.9c1.7-0.1,3.5-0.3,5.4-0.3c5.3,0.1,10.6,0.3,15.9,0.3c8.2,0,16.4-0.1,24.6-0.1c2.9,0,5.8-0.1,8.7,0.2
	c6,0.8,11.9,1,17.9,0.8c1.5-0.1,3.1,0,4.6,0c1.2,0,2.3,0.2,3.2,1.2c2.2,2.3,4.4,2.5,7.2,0.4c1.1-0.9,3.2-0.8,4.9-0.9
	c4.6-0.1,9.2,0.1,13.9,0.1c7.5,0.1,15.1,0,22.6,0.2c4.3,0.1,8.5,0.2,12.8,0.1c1.9,0,3.7,0.3,5.6,0.5c0.8,0.1,1.7,0.5,2.5,0.4
	c3.8-0.8,7.5,0.1,11.2-0.2c4-0.4,7.9,0,11.6,1.2c2,0.7,3.8,0.5,5.8-0.3c4-1.7,8.9,0.9,9.4,5c1,7.5,1.5,15-0.5,22.4
	c-0.1,0.5-0.4,0.9-0.8,1.6c-5.9,0.1-11.8,0.3-17.8,0.3c-11,0-21.9-0.1-32.9-0.3c-3.9-0.1-7.9-0.5-11.8-0.7
	c-3.8-0.1-7.5-0.1-11.3-0.2c-5.1-0.1-10.3-0.2-15.4-0.3c-1.7,0-3.4-0.2-5.1-0.1c-8.6,0.8-17.1-0.1-25.6-1.1
	c-8.1-0.9-16.1-0.8-24.1-0.4c-5,0.3-9.9,0.5-14.9,0.6c-12,0.1-24,0.1-36,0.2c-4.6,0-9.1,1.1-13.8,0.8c-11.1-0.7-22.2-0.2-33.3,0.2
	c-13,0.5-26-0.2-39,0c-4.1,0.1-8.2,0.2-12.3,0.5c-6.5,0.5-13-0.1-19.5-0.3c-6.3-0.2-12.7,0.1-19,0.2c-2.2,0-4.4,0.3-6.5-0.8
	c-0.8-0.4-2-0.2-3-0.3c-3.8-0.1-7.5-0.1-11.3-0.3c-2.9-0.2-5.8-0.7-8.6-1.1c-2.1-0.3-3.7-1.8-5-3.3c-2.6-2.9-5.2-5.9-7.8-8.9
	c-3.6-4.1-7.3-8.2-10.9-12.3c-0.9-1-1.6-2.2-2.4-3.3c2.9-1.9,6.2-3,8.6-2.8c0.3,0,0.8,0,1,0.2c2.4,2.3,5,1.1,7.7,0.8
	c5.2-0.6,10.4-1.5,15.7-1.2c8.2,0.6,16.4,0.6,24.6,1.2c4.8,0.4,9.6,0.5,14.3,0.7c6.5,0.3,13-0.2,19.5,0c0.9,1.1,1.6,2.5,2.7,3
	c1.3,0.5,3,0.3,4.5,0.3c1.5,0,3.1-0.1,4.6-0.2c1.2-0.1,2.8-0.1,3.4-0.8c1.9-2.1,4.2-1.7,6.6-1.7c2.6,0.1,5.1-0.2,7.7-0.3
	c2.4-0.1,4.8,0,7.2,0c1,0,2.1,0.2,3-0.1c5.9-1.7,11.9-0.9,17.9-1.2c8.7-0.4,17.5-0.7,26.2-0.9C229.1,39.6,234.1,39.7,239.1,39.7z"/>
<path fill-rule="evenodd" clip-rule="evenodd" fill="#FFFFFF" d="M737.6,243.6c2.8-0.8,5.2-1.5,7.7-2.2c11-2.7,22-5.3,33.2-6.6
	c5.9-0.7,11.8-1.8,17.8-2.6c5.1-0.6,10.2-0.9,15.3-1.5c10.1-1.1,20.1-1.3,30.3-1c4.1,0.1,8.2-0.3,12.3-0.3c6.8,0,13.7,0.2,20.5,0.4
	c0.9,2.2,1,4.2,0.9,6.3c-0.2,2.9-0.3,5.8-0.3,8.7c0,2.2,0.2,4.4,0.4,6.6c0.1,1.4,0.3,2.7,0.3,4.1c0.1,6.8,0.3,13.7,0.3,20.5
	c0,1.4-0.2,2.7-0.3,4.1c-0.1,2.4-0.1,4.8,0,7.2c0.4,7.7,0.8,15.4,1.2,23.1c0.7,14.5,1.2,29.1,1.9,43.6c0.3,7.4,0.8,14.7,1.3,22.1
	c0.6,8.9,1.4,17.7,2.1,26.6c0.2,2,0.3,4.1,0.4,6.1c0.8,13.2,1.8,26.3,2.2,39.5c0.3,9.4,1.4,18.8,2.5,28.1c0,0.2,0,0.3,0,0.5
	c0.1,7,1.1,14,2.3,20.9c0.3,2,0.8,4.1-0.2,6c-3.8,1-12.1,1-17-0.1c-0.1-4-0.5-8.1-0.4-12.1c0.3-9.8-0.9-19.5-1.4-29.2
	c-0.4-7.7-0.9-15.4-1.3-23.1c-0.1-1.3,0-2.7,0-4.3c2.1,0.2,3.9,0.3,5.6,0.5c1.3-1.7,1.3-3.4,1.3-5.1c-0.1-7.9-0.1-15.8-0.3-23.6
	c0-1.5-0.4-3.1-0.5-4.6c-0.2-2.6-1.7-4-4-4.7c-1.1-0.4-2.3-0.7-3.3-1c-1.3-2-1-4.2-1-6.2c-0.1-8.2-0.1-16.4-0.2-24.7
	c-0.1-8.2-0.4-16.4-0.4-24.7c0-6.2,0.2-12.3-0.3-18.5c-0.1-0.8,0.1-1.7,0.1-2.9c1.9,0.3,3.7,0.6,5.3,0.8c1.3-1.3,1.2-2.7,1-4.1
	c-0.5-5.3-1.1-10.5-1.7-15.8c-0.5-4.1-1.1-8.1-1.3-12.2c-0.1-2.5-0.4-4.8-2.4-6.5c-1-0.9-1.3-2-1.3-3.2c-0.2-6-0.5-12-0.7-18
	c-0.2-5-0.2-9.9-0.4-14.9c-0.1-1.7-0.6-3.3-0.9-5c-1.4-1.4-3-1.8-4.8-1.6c-4.1,0.5-8.1,0.5-12.2,0.2c-0.3,0-0.7,0-1,0
	c-7.9,1.8-16.1,0.9-24,2.5c-0.8,0.2-1.7,0.2-2.6,0.2c-4.8,0-9.6,0.4-14.3,1.2c-6.6,1.1-13.2,1.9-19.8,3c-3.7,0.6-7.4,1.6-11,2.5
	c-8,2-15.9,4.2-23.9,6.1c-2.9,0.7-5.6,1.6-8,3.7c-0.8,2.8-1.1,5.8-1,8.9c0.1,7.4-0.8,14.7-1.6,22c-0.3,2.9-0.4,5.8-0.7,8.7
	c-1.6,16-2.1,32.1-2.5,48.2c-0.1,2.4-0.2,4.8-0.6,7.2c-0.7,5.3-0.5,10.6-0.7,15.9c-0.2,9.8-0.8,19.5-1.3,29.2
	c-0.5,10.1-1.1,20.2-1.7,30.3c-0.1,1-0.1,2.1-0.3,3.1c-0.7,4.2-0.5,8.5-0.8,12.8c-0.4,5.2,0,10.6-1.4,15.8c-0.1,0.3-0.1,0.7-0.1,1
	c-0.1,6-0.4,11.9-1.1,17.9c-0.6,5.9-0.3,12-0.4,18c0,1.5-0.2,3-0.4,4.7c-4.1,0.3-7.9,1.2-11.9,0.9c0.6-8.8,1.1-17.1,1.7-25.5
	c0.7-10.1,1.6-20.1,2.4-30.2c0.4-4.8,0.9-9.5,1.5-14.3c0.7-6.1,1.1-12.3,0.9-18.5c-0.1-3.2,0.3-6.5,0.6-9.7
	c0.8-7.8,1.9-15.6,2.3-23.5c0.4-7.7,1.8-15.3,2.4-23c0.4-4.9,1.1-9.9,1.4-14.8c0.5-6.7,1.1-13.3,1-20c-0.2-11.3,0.7-22.6,1.2-33.8
	c0.2-5.4,1.9-10.4,2.5-15.7c1-8,1.9-16,2.9-24C737.3,248.2,737.4,246.1,737.6,243.6z M764.1,240.1c-7.1,0.9-12.8,2.4-18.4,4.3
	c-0.5,0.2-0.9,0.8-1.5,1.3c0.5,0.3,0.9,0.6,1.1,0.5c5.4-1.5,10.8-3.1,16.2-4.7C762,241.4,762.5,241,764.1,240.1z M758.5,245.8
	c-4.8,0-7.1,0.6-10.3,2.7C751.8,248.6,755.5,247.6,758.5,245.8z"/>
<path fill-rule="evenodd" clip-rule="evenodd" fill="#FFFFFF" d="M274.2,516.5c-0.2,0.1-0.3,0.3-0.5,0.3c-7.6,0.5-7.5,0.4-8.4-6.7
	c-0.6-5.1-0.3-10.3-0.5-15.4c-0.1-2.7-0.4-5.5-0.4-8.2c-0.3-8.4-0.6-16.8-0.7-25.2c-0.1-6.3,0-12.7,0.1-19c0-3.8,0.1-7.5,0.1-11.3
	c-0.1-6-0.2-12-0.8-18c-0.6-5.9-0.5-12-0.4-18c0.2-6.9-0.4-13.7-0.7-20.5c-0.3-5.3-0.3-10.6-0.5-15.9c-0.2-5.8-0.5-11.6-0.6-17.4
	c-0.1-4.3,0-8.6-0.1-12.8c-0.2-15.2-1.5-30.5-0.6-45.7c0-0.9,0-1.7,0.1-2.6c0.8-7.4-0.2-14.7-1.7-21.9c-0.8-3.6-2.8-5.2-6.4-5.6
	c-0.7-0.1-1.4,0-2.1,0c-4.6,0.3-9.2,0.6-13.8,0.8c-7.9,0.4-15.7,1-23.4,2.9c-2.3,0.6-4.7,0.8-7.1,1.2c-5.2,0.7-10.5,1.5-15.8,2.2
	c-9.4,1.1-18.7,2.2-28.1,3.1c-6.6,0.7-13.3,1.1-20,1.7c-0.8,0.1-1.7-0.1-2.6-0.1c-3.2,0-5.9,2.1-6.6,5.3c-0.7,3.4-1.1,6.8-1.5,10.2
	c-0.5,4.9-0.9,9.9-1.3,14.8c-0.3,3.8-0.4,3.8-3.8,6.2c-1.5,10.7-2.4,21.6-3.1,32.6c1,0.6,2,1.2,3,1.8c0.1,0.3,0.2,0.7,0.2,1
	c-0.1,0.9-0.3,1.7-0.2,2.6c0.8,10.7-1.5,21.2-2.1,31.7c-0.3,5-0.6,9.9-0.8,14.9c-0.5,9.6-1.1,19.1-1.9,28.7
	c-0.5,6-1.3,11.9-2.2,17.8c-0.7,4.7-0.6,4.7-4.3,7.8c-0.2,9.3-1.7,18.6-2.9,27.9c-0.7,4.9-0.7,4.9,3.8,8.2
	c0.7,6.7-0.6,13.4-0.8,20.2c-0.2,6.8-0.1,13.6-0.9,20.7c-3,0.7-5.8,1.5-8.6,0.3c-0.3-2.3-0.7-4.5-0.8-6.6
	c-0.4-7.2-0.9-14.3-1.1-21.5c-0.1-3.6,0.6-7.1,0.8-10.7c0.2-3.6,0.1-7.2,0.3-10.8c0.5-8.7,1.1-17.4,1.6-26.2
	c0.1-1.4,0.2-2.7,0.2-4.1c-0.4-7.6,0.9-15,1.6-22.5c0.4-4.6,1.1-9.2,1.7-13.8c1.1-8,2.3-15.9,3.4-23.9c1.2-8.1,2.3-16.3,2.6-24.5
	c0.2-4.8,0.4-9.6,1.9-14.2c0.3-1,0.4-2,0.4-3c0-4.2,1.1-8.1,2-12.1c1.3-5.7,2.4-11.4,2.4-17.2c0.1-6.2,0.5-12.3,0.8-18.4
	c0.2-3.4,0.3-6.8,0.6-10.2c0.7-8,3-15.7,4.6-23.8c1.3-0.2,2.4-0.5,3.6-0.5c6.7-0.2,13.4-0.2,20-0.4c4.8-0.1,9.6-0.5,14.4-0.6
	c4.1-0.1,8.2-0.1,12.3-0.3c8-0.3,16-1.2,24-2.3c6.3-0.9,12.5-1.7,18.9-1.8c8-0.2,16.1-0.7,24.1-1c5.5-0.2,11-0.4,16.4-0.5
	c1.3,0,2.6,0.4,4.1,0.6c1.1,4.2,1.7,8.2,1.9,12.3c0.2,5.6,0.5,11.3,0.8,16.9c0,0.9,0.1,1.7,0.1,2.6c-0.2,9.4-0.5,18.8-0.5,28.2
	c0,4.9,0.5,9.9,0.8,14.8c0.2,2.7,0.6,5.4,0.7,8.2c0.2,4.4,0.4,8.9,0.5,13.3c0,0.5,0.2,1.1,0.1,1.5c-1.1,3.5-0.6,7.2-0.6,10.7
	c-0.1,7.7,0.1,15.4,0.1,23.1c0,0.7,0,1.4,0.1,2.1c1.3,9.2,0.8,18.5,1.3,27.7c0.4,7.2,0.6,14.4,0.7,21.6c0,2.9-0.1,5.8,0,8.7
	c0.2,4.8,0.6,9.6,0.9,14.3c0.4,7.5,0.8,15,1.1,22.6c0.4,7.9,0.7,15.7,0.9,23.6c0.1,3.1-0.1,6.2-0.2,9.2
	C274.7,510.7,274.4,513.4,274.2,516.5z"/>
<path fill-rule="evenodd" clip-rule="evenodd" fill="#FFFFFF" d="M429.8,111.6c-1,6.4-3,11.8-6,16.8c-2.9,4.8-4.8,10.2-7.2,15.1
	c1,0.9,1.9,0.9,2.3,0c3.3-7.7,7.7-14.8,11.2-22.4c0.4-0.9,1-1.8,1.5-2.7c1.5-2.8,3.5-4.6,6.9-4c4-1.4,6.9,0.3,9.4,3.3
	c1.1,1.3,2.4,2.4,3.6,3.7c1.1,1.1,2.1,2.2,3,3.5c2.5,3.7,4.9,7.4,7.4,11.1c1.2,1.9,2.7,3.4,5,5.1c0-1.2,0.2-2,0-2.4
	c-1.8-2.7-3.6-5.4-5.4-8c-1.3-2-2.6-4-3.9-6c-0.5-0.7-0.8-1.6-1.4-2.1c-3.1-2.5-4.2-6-5.4-9.9c1-0.3,2-0.8,2.9-0.8
	c11.4,0.7,24.4,8.3,26.8,22.8c0.9,5.6,0.2,11.3-2.7,16.4c-1.1,1.9-2.3,3.8-3.4,5.7c-1.7,2.9-3.8,5.2-7.2,6.1c-0.5,0.1-1,0.3-1.4,0.6
	c-4,3.2-9,4-13.5,5.9c-0.5,0.2-1,0.4-1.5,0.4c-6.1,0.6-12.2,1.9-18.4,1.1c-6.8-0.8-12.9-3.2-18.3-7.3c-3.3-2.5-6.4-5-8.6-8.6
	c-1.4-2.3-2.3-4.6-2.2-7.2c0.1-6,1-11.9,4.7-17c2.2-3,4-6.5,6.7-9c4-3.7,8.7-6.7,13.1-9.9C428,111.7,428.7,111.8,429.8,111.6z
	 M425.5,143.9c1.9,0.3,2.6-0.8,3-2.4c1-0.7,1.1-1.6,0.5-2.6c1.1-0.3,2.1-0.5,3.1-0.8c1.6,5,1.1,10.4,2.3,15.9
	c0.9-0.5,1.7-0.6,1.9-1.1c0.6-1.2,1-2.5,1.5-3.8c1.1-3,2.3-5.9,4.4-9.1c1.4,2.7,2.6,5,3.8,7.2c0.9,1.6,2.9,1.7,3.7,0.1
	c1-1.8,1.6-3.8,2.4-5.6c0.5-1.2,0.6-2.7,2-3.3c1.4,0,1.6,2.3,3.6,1.7c-0.7-1.3-1.3-2.5-2.1-3.5c-0.4-0.6-1.2-1-1.9-1.6
	c-3,3.3-2.6,8-5.6,11.2c-3.3-2.6-3.1-7.4-6.7-9.6c-0.5,0.5-1,0.8-1.1,1.3c-1.3,3.1-2.6,6.3-3.8,9.5c-0.3,0.6-0.5,1.3-1.6,0.9
	c-0.1-1-0.2-2.2-0.4-3.3c-0.4-3.1-0.7-6.1-1.2-9.1c-0.1-0.8-0.5-1.6-1.9-1.6c-1.5,1.1-1.7,3.1-2.4,4.7c-0.2,0.9-0.3,1.7-0.5,2.6
	c-0.5,0.3-1,0.6-1.4,0.9C426.6,142.9,426.1,143.4,425.5,143.9c0.1,0.3,0.1,0.6,0.2,0.8c0.1,0.2,0.3,0.3,0.4,0.5
	c0-0.2,0.1-0.5,0.1-0.7C426,144.3,425.7,144.1,425.5,143.9z"/>
<path fill-rule="evenodd" clip-rule="evenodd" fill="#FFFFFF" d="M930.6,93.7c0.4,2.6,0.7,4.8,1,6.9c-4.3,4.1-7.5,8.7-10.2,13.7
	c-1.8,3.3-2.6,6.6-2.6,10.3c0,1.1,0,2.3,0,3.5c-3.9-1.4-4.5-2-7.4-4.8c-2.2-2.1-3.1-4.4-2.9-7.3c0.2-3.6,0.4-7.2,1.6-10.6
	c1.3-3.6,3-6.7,6.2-9.2c1.8-1.4,3.4-2.1,5.5-2.1C924.4,94,927.1,93.9,930.6,93.7z"/>
<path fill-rule="evenodd" clip-rule="evenodd" fill="#FFFFFF" d="M930.6,76.7c0,5.1,0,9.8,0,14.8c-1.2,0.3-2.2,0.6-3.2,0.6
	c-3.6,0.3-7.2,0.5-10.7,0.7c-1.4,0.1-2.7,0-3.8-1c-3.4-3-6.1-6.4-6.8-11.1c-0.3-1.7-0.7-3.4-0.8-5.1c-0.1-0.9,0.3-1.9,0.5-2.9
	c1.2,0,2.2,0,3.3,0c4.1,0.2,8.2,0.5,12.3,0.5C924.9,73.1,928.1,73.8,930.6,76.7z"/>
<path fill-rule="evenodd" clip-rule="evenodd" fill="#FFFFFF" d="M878.3,148.4c-1.5-4.1-0.8-8-0.3-11.9c0.1-1,1.2-1.9,1.8-2.9
	c2.4-3.8,6-6,10.4-6.9c4.4-0.9,8.7-1.8,13.1-2.6c2.3-0.4,4.4-0.3,6.4,1.1c2.1,1.5,4.1,2.9,6.7,4.7c-2.7,1.3-5.1,1-7.3,1.8
	c-2.2,0.8-4.5,1.7-6.7,2.5c-2.2,0.8-4.6,1.4-6.8,2.4c-2,0.9-3.9,2-5.8,3.2c-2,1.3-4,2.6-5.9,4C881.9,145.3,880.6,147.4,878.3,148.4z
	"/>
<path fill-rule="evenodd" clip-rule="evenodd" fill="#FFFFFF" d="M338.7,40c0-1.2,0-2.1,0-3.3c5.4-0.3,10.7-0.6,15.9-0.8
	c5.3-0.2,10.6-0.2,15.9-0.2c5.5,0,11,0.1,16.4,0.1c5.3,0.1,10.6,0.1,15.9,0.3c5.3,0.3,10.6-0.2,15.9,0.7c0.1,0.9,0.3,1.6,0.2,2.2
	c-0.2,1.7-0.8,2.2-2.2,2.2c-1.5,0.1-3.1,0-4.6,0c-4.3,0-8.6,0.4-12.8-0.1c-10.4-1.4-20.8-0.3-31.2-0.9c-8.4-0.4-16.7,0-25.1-0.1
	C341.6,40.3,340.2,40.1,338.7,40z"/>
<path fill-rule="evenodd" clip-rule="evenodd" fill="#FFFFFF" d="M157,39.5c0-1.1,0-2.2,0-3.5c7.4-1.1,14.7-2,22-1.7
	c3.1,0.1,6.2-0.1,9.2-0.1c8.9,0,17.8,0.1,26.7,0.2c6,0,12,0,17.9,0c2.3,0,4.7-0.3,7,0.3c0.1,2.6-0.1,2.9-1.6,3.1
	c-1.7,0.1-3.4,0.2-5.1,0.3c-5.5,0.1-10.9,0.1-16.4,0.3c-8,0.2-16.1,0.4-24.1,0.6c-2.9,0.1-5.8,0.2-8.7,0.3c-0.7,0-1.4,0-2,0.3
	c-2.9,1.5-6,1-9.1,0.9c-3.4-0.1-6.8,0-10.3-0.1C160.8,40.3,158.9,40.5,157,39.5z"/>
<path fill-rule="evenodd" clip-rule="evenodd" fill="#FFFFFF" d="M248.4,34.9c2.7-1.2,5.3-0.8,7.8-0.7c6.5,0.4,13-0.3,19.5-0.2
	c8.9,0.1,17.8,0.4,26.7,0.7c6,0.2,12,0.6,17.9,0.8c3.4,0.1,6.8,0.3,10.1,0.9c0.2,2.8-0.1,3.3-1.8,3.3c-6.5,0-13,0-19.5-0.1
	c-2.5-0.1-5.1-0.7-7.6-0.8c-3.6-0.2-7.2-0.3-10.8-0.1c-9,0.4-18,0.3-27-0.1c-4.8-0.2-9.5-0.2-14.6-0.2C248.8,37,248.6,36,248.4,34.9
	z"/>
<path fill-rule="evenodd" clip-rule="evenodd" fill="#FFFFFF" d="M46.3,362.4c0,6.7,0,13.3,0,20.2c-4.8,2.7-9.7,5.5-14.9,8.5
	c-0.4-1.2-0.9-2.1-0.9-3c0-4.1,0.1-8.2,0.1-12.3c0-4.1,0-8.2,0-12.3c0-1.5,0.1-3,0.2-4.8C36.1,359.1,41.1,359.5,46.3,362.4z
	 M44.7,379.4c-0.5-3.8-0.9-7.3-1.3-10.9c0-0.3-0.1-0.7-0.2-1c-0.7-2.3-4.9-3.7-6.9-2.3c-0.5,0.4-0.9,1.1-1,1.7
	c-0.6,3.5-1.1,7.1-1.5,10.6c-0.1,1.1,0.3,2.2,0.4,3.2C38.1,381.9,41.5,382.4,44.7,379.4z"/>
<path fill-rule="evenodd" clip-rule="evenodd" fill="#FFFFFF" d="M73,37.3c-0.3-0.9-0.6-1.7-0.8-2.4c0.4-0.3,0.7-0.6,1-0.6
	c2.7-0.1,5.5-0.3,8.2-0.2c12.1,0.5,24.2,1.2,36.3,1.8c0.9,0,1.7,0.2,2.6,0.1c6.8-0.8,13.6,0.5,20.5,0.3c0.5,0,1,0.3,1.6,0.5
	c0,0.7,0.1,1.5-0.2,1.9c-0.3,0.5-1.1,0.8-1.7,0.8c-5.5,0.2-10.9,0.2-16.4,0.5c-6.5,0.4-12.9-0.3-19.3-0.6c-4.2-0.2-8.5-0.8-12.7-1.1
	c-4.8-0.3-9.5-0.4-14.3-0.6C76.1,37.6,74.6,37.5,73,37.3z"/>
<path fill-rule="evenodd" clip-rule="evenodd" fill="#FFFFFF" d="M908.1,62.2c-3.7,4.6-7.9,7.2-13.7,7c-7.7-0.4-15.4,0.5-23.1-0.3
	c-3.9-0.4-7.9,0.1-11.8,0.1c-1.4,0-2.7,0-4.1,0c-1.5-1.7-3.5-2.8-4.4-5.3c0.9-0.1,1.5-0.3,2.2-0.2c8,0.6,16,1.6,24.1,1.6
	c8.4,0.1,16.8-0.4,25-2.4C904,62.2,905.8,62,908.1,62.2z"/>
<path fill-rule="evenodd" clip-rule="evenodd" fill="#FFFFFF" d="M874.1,431.2c-2.9,1-4.8-0.3-6.4-1.3c-1.6-0.9-2.3-2.8-2.3-4.9
	c-0.1-6.3-0.3-12.7-0.3-19c0-2.2,0.9-4.3,1.3-6.5c2.9-0.2,4.6,1.2,6.7,2.5c1.2,8.1,1.2,16.3,1.5,24.5
	C874.5,428.1,874.2,429.6,874.1,431.2z M868.9,404.5c-2.1,0.6-2,1.7-1.7,2.6c0.6,1.7-0.3,4,2.2,5.5c-0.2-1.6-0.5-2.7-0.6-3.8
	C868.8,407.5,868.9,406.1,868.9,404.5z"/>
<path fill-rule="evenodd" clip-rule="evenodd" fill="#FFFFFF" d="M34.9,186.8c-0.8-0.7-1.6-1.1-1.6-1.5c-0.2-2.7-0.4-5.4-0.4-8.2
	c0-2.6,0.1-5.1,0.1-7.7c0-2.4,0.1-4.8,0.1-7.1c0-2.4-0.2-4.8-0.3-7.2c-0.2-10.1-1-20.2,0.1-30.2c0.3-3.1,0.5-6.1,0.8-9.2
	c0.1-0.5,0.7-1,1.6-2.2c0.4,4.4,0.7,7.9,0.9,11.4c0.7,12,0.1,23.9,0,35.9c-0.1,7.9-0.6,15.7-0.9,23.5
	C35.2,185,35.1,185.6,34.9,186.8z"/>
<path fill-rule="evenodd" clip-rule="evenodd" fill="#FFFFFF" d="M905.2,121.5c-0.8,0.4-1.3,0.8-1.9,0.9c-3,0.5-6.1,0.8-9.1,1.5
	c-3.7,0.9-7.3,1.9-10.8,3.2c-1.8,0.7-3.2,2.3-4.7,3.5c-1.1-0.6-0.8-1.5-0.8-2.3c-0.1-2.6-0.1-5.1,0-7.7c0-0.6,0.5-1.3,1-1.7
	c1.9-1.5,3.9-2.9,6.4-3.1c3.7-0.3,7.5-0.6,11.2-0.7c1.1,0,2.3,0.6,3.2,1.4C901.5,118,903.2,119.7,905.2,121.5z"/>
<path fill-rule="evenodd" clip-rule="evenodd" fill="#FFFFFF" d="M848.8,112.9c3-2.3,5.5-3.7,8-5c1.2-0.6,2.4-0.6,3.5,0
	c5.3,3,11.4,5,15.2,10.3c0,3.1,0,6.3,0,9.7c-0.7-0.1-1.2,0-1.5-0.3C866.8,121.1,859,115.8,848.8,112.9z"/>
<path fill-rule="evenodd" clip-rule="evenodd" fill="#FFFFFF" d="M859.2,74c1.1-0.2,1.5-0.3,2-0.3c3.1,0.3,6.1,0.6,9.1,1
	c8.9,1.2,17.7,1,26-2.5c1,0.9,0.3,1.4-0.1,1.8c-1.1,1.1-2.2,2.2-3.3,3.2c-0.9,0.8-1.9,1.2-3.1,1.5c-3.3,0.7-6.5,1.5-9.6,3.1
	c-4.4,2.3-9,1.2-13.5,0.1c-0.3-0.1-0.7-0.2-0.9-0.4C863.4,79.2,861.2,76.9,859.2,74z"/>
<path fill-rule="evenodd" clip-rule="evenodd" fill="#FFFFFF" d="M891.8,81.3c2.7-2.8,5.1-5.4,7.7-7.9c0.6-0.6,1.7-0.7,2.7-1.1
	c0.6,2.8,1.1,5.3,1.5,7.8c0.6,4.2,2,7.9,5,11c0.3,0.4,0.5,0.8,0.8,1.3c-4.6,4-13.8-0.3-15.7-5.4C893.2,85.2,892.6,83.5,891.8,81.3z"
	/>
<path fill-rule="evenodd" clip-rule="evenodd" fill="#FFFFFF" d="M850.8,72c3.7-0.3,4.2,0,4.6,2.5c0.2,1.7,0.2,3.4,0.4,5.1
	c0.4,4.2-1.6,7.6-3.7,10.9c-0.9,1.4-2.4,1.9-4.1,1.4c-3.1-0.8-6.1-1.6-9.4-2.5c0.7-2.2,2-3.5,3.3-4.8C845.7,81,849.2,77.1,850.8,72z
	"/>
<path fill-rule="evenodd" clip-rule="evenodd" fill="#FFFFFF" d="M856.2,106.1c-3.7,2.1-6.8,4.7-10.9,5.8c-0.2-0.8-0.5-1.3-0.4-1.7
	c0.7-4.2-0.7-7.8-3-11.1c-1.7-2.5-3.6-4.9-5.5-7.4c0.6-0.9,1.4-0.2,2.1-0.1c2.7,0.6,5.3,1.5,8,1.9c3,0.4,4.9,2.2,6.7,4.3
	C855,100.1,856.6,102.5,856.2,106.1z"/>
<path fill-rule="evenodd" clip-rule="evenodd" fill="#FFFFFF" d="M34.1,290c-0.8-0.9-1.4-1.3-1.5-1.8c-0.2-2.5-0.3-5.1-0.4-7.7
	c-0.1-2.7-0.2-5.5-0.2-8.2c0-1,0.1-2,0.2-3.1c0-2.4,0-4.8,0-7.2c0-1.5,0.1-3.1,0.1-4.6c0.1-2.2,0.5-4.5,0.1-6.7
	c-0.7-3.9-0.2-7.9-0.5-11.7c-0.6-5.6,0.6-11.2-0.3-16.8c-0.2-1,0.1-2,0.2-3.1c0.2-1.7,0.4-3.3,0-5.1c-0.5-2.3,0-4.3,1.2-7.3
	c1-0.1,1.2,0.6,1.2,1.2c0.2,5.3,0.3,10.6,0.3,15.9c0,9.2,0.1,18.5-0.3,27.7c-0.3,7.3,0.5,14.6-0.1,21.9c-0.4,4.6,0.1,9.2,0.2,13.8
	C34.5,288.1,34.3,288.7,34.1,290z"/>
<path fill-rule="evenodd" clip-rule="evenodd" fill="#FFFFFF" d="M428.1,41.3c-0.2-1.2-0.3-2.2-0.4-3.2c0.6-0.3,1-0.6,1.4-0.7
	c2.8-0.3,5.4,0.2,8.1,0.9c3.5,0.8,5.1,3.1,5.8,6.3c0.4,2,0.7,4.1,0.7,6.1c0.2,6.8-0.3,13.6-1.1,20.4c-0.5,4.2-0.6,8.5-0.9,12.8
	c-0.1,0.8,0.1,1.8-0.2,2.5c-0.3,0.6-1.2,0.8-2.5,1.6c1.1-7,0.5-13.2,1.2-19.5c0.7-6.4,0.6-12.9,0.3-19.4c-0.2-4.4-1.8-5.6-6.4-6.6
	C432.3,42,430.4,41.7,428.1,41.3z"/>
<path fill-rule="evenodd" clip-rule="evenodd" fill="#FFFFFF" d="M905.7,118.8c-3.9-2.1-5.2-5.3-5.9-8.6c-0.9-3.7-0.1-7.5,1.3-11
	c0.9-2.4,2.6-4,5.4-4c2,0,4-0.7,6.3,0.3c-0.6,1.1-0.9,2-1.5,2.8c-3,4.1-4.4,8.7-4.6,13.8C906.5,114.1,906.1,116.2,905.7,118.8z"/>
<path fill-rule="evenodd" clip-rule="evenodd" fill="#FFFFFF" d="M126.2,328.6c0-1.3,0-2,0-2.7c0.3-4.7,0.7-9.5,1.1-14.6
	c1.6,0.8,0.9,2.6,2.1,3.3c1.1-0.6,0.7-1.7,0.8-2.6c0.1-1.4-0.1-2.7-0.2-4.1c0-0.3-0.3-0.7-0.5-0.8c-1.3-0.7-1.7-1.7-1.1-2.9
	c0.7-1.4,2-1,3.2-0.8c0.5,0.1,1,0.3,1.7,0.5c0.1,0.7,0.4,1.5,0.4,2.3c0.5,7.1,0.1,14.3-0.2,21.4c-0.1,2.1-1.4,3.2-3.3,2.7
	C128.7,330,127.6,329.3,126.2,328.6z"/>
<path fill-rule="evenodd" clip-rule="evenodd" fill="#FFFFFF" d="M120.4,471.1c-1.7,1.5-3.4,1.4-5.4,1c-0.2-0.9-0.6-1.8-0.5-2.8
	c0.8-7.2,0.7-14.6,2.3-21.8c0.5-2.1,0.2-4.3,0.3-6.7c1.3,0,2.3,0,3.4,0c0.2,1.2,0.5,2.3,0.5,3.5
	C120.9,453.4,120.6,462.4,120.4,471.1z M118.6,453.3c0.3-2.5,0.7-4.9,1-7.4c0-0.3-0.3-0.5-0.4-0.8c-0.8-0.4-1.4-0.1-1.5,0.6
	C117.3,448.3,117.4,450.8,118.6,453.3z"/>
<path fill-rule="evenodd" clip-rule="evenodd" fill="#FFFFFF" d="M27.2,360.6c0.8,6.6,0.1,25.2-1.1,29.5c-1.7-0.8-3.4-1.7-3.5-3.8
	c-0.3-6.8-0.6-13.6-0.6-20.4C22,362.3,22.8,361.8,27.2,360.6z"/>
<path fill-rule="evenodd" clip-rule="evenodd" fill="#FFFFFF" d="M899.4,96.4c-1.1,4.7-2.4,9.2-2,14.6c-4.5-2.9-9.3-4.4-10.5-9.9
	c1.2-4.1,1.6-4.5,5.7-4.7C894.8,96.3,896.9,96.4,899.4,96.4z"/>
<path fill-rule="evenodd" clip-rule="evenodd" fill="#FFFFFF" d="M878.2,115.6c-1-3.1-1.3-5.9-0.5-9.1c0.9-0.4,2-0.9,3.1-1.2
	c1.1-0.3,2.3-0.5,3.6-0.8c3.4,2.5,6.8,5,10.8,7.8c-3.3,1.5-6.1,0.8-8.6,1.4C883.9,114.3,881.2,114.9,878.2,115.6z"/>
<path fill-rule="evenodd" clip-rule="evenodd" fill="#FFFFFF" d="M32.8,306.7c0.8,0.9,1.4,1.3,1.5,1.8c0.2,1.2,0.1,2.4,0.1,3.6
	c0,7.2,0.1,14.3,0,21.5c0,2.5-0.5,5.1-0.7,7.6c-0.2,3.1-0.2,6.1-0.3,9.2c0,1.6,0.2,3.3-0.6,4.8c-0.6-0.3-1-0.4-1-0.5
	C30.7,338.9,30.8,323.1,32.8,306.7z"/>
<path fill-rule="evenodd" clip-rule="evenodd" fill="#FFFFFF" d="M863.5,285c1.7,0.8,2.9,1,3.4,1.6c0.5,0.7,0.5,1.9,0.7,2.9
	c-1-0.2-1.7-0.3-2.6-0.5c0.3,2.4,0.6,4.5,0.8,6.6c0,0.3,0.1,0.8,0.3,1c2.4,1.5,1.6,3.8,1.8,5.9c0.3,3.2,0.7,6.4,1,9.6
	c0.1,1-0.2,2-0.3,3.2c-1.4-0.3-2.5-0.6-3.8-0.9C862.9,305,863.4,295.5,863.5,285z"/>
<path fill-rule="evenodd" clip-rule="evenodd" fill="#FFFFFF" d="M857.9,187.6c-2.8-0.1-4.4-1.3-5-3.5c-0.8-2.8,0.3-6.4,2.8-8.2
	c0.6-0.4,1.7-0.7,2.3-0.5c1.8,0.5,3.5,1.2,5.1,2.1c1.7,1,2,2.1,1.4,3.9c-0.7,2.4-2.2,4.2-4.3,5.4
	C859.4,187.4,858.4,187.5,857.9,187.6z M857.1,181.1c-0.5,0.5-1,0.8-1.4,1.2c0.4,0.4,0.8,0.8,1.2,1.2c0.4-0.4,0.9-0.8,1.2-1.3
	C858.1,182.1,857.5,181.6,857.1,181.1z"/>
<path fill-rule="evenodd" clip-rule="evenodd" fill="#FFFFFF" d="M913.1,61.7c4.3,2.6,8.6,5.1,13.2,7.8c-11.2,1.4-16.1,1.3-20.2-0.4
	C907.5,65.6,907.9,65.3,913.1,61.7z"/>
<path fill-rule="evenodd" clip-rule="evenodd" fill="#FFFFFF" d="M865.3,84.2c-0.7,0.4-1.5,0.7-2.4,1.2c0.2,0.8,0.4,1.8,0.5,2.8
	c0.3,1.7-0.3,3-1.3,4.3c-0.7,0.9-1.5,1.4-2.6,1.2c-1.8-0.3-3.7-0.6-5.8-0.9c0.9-1.8,1.6-3.3,2.3-4.9c0.7-1.7,1.5-3.4,2-5.3
	c0.4-1.6,0.3-3.3,0.4-5.2c3.3,1.6,4.3,5.1,7,6.9L865.3,84.2z"/>
<path fill-rule="evenodd" clip-rule="evenodd" fill="#FFFFFF" d="M876.1,93.3c-3.1-2.2-4.9-4.9-6.7-7.4c0.4-1.3,1.4-1.1,2.1-1
	c4.2,0.5,8.1-0.4,11.8-2.5c1.3-0.7,2.5-0.9,4.4-0.6C884.1,86,880.1,89.4,876.1,93.3z"/>
<path fill-rule="evenodd" clip-rule="evenodd" fill="#FFFFFF" d="M882.5,90.3c1.4-3.1,4.4-4.5,6.7-6.6c2.2,1.6,2.1,4.1,3.5,5.7
	c1.3,1.5,2.7,2.9,4.1,4.3C891.3,95.8,886.6,94.6,882.5,90.3z"/>
<path fill-rule="evenodd" clip-rule="evenodd" fill="#FFFFFF" d="M955.4,535.7c-2.7-1-5.5,0.3-8.1-1.7c2.8-1.4,5.6-0.1,8.1-1.3
	c-2.1-1.3-4.6,0.1-6.5-1.4c0.2-0.3,0.4-0.8,0.5-0.8c2.2,0,4.4,0,7,0c1.1,3.8,0.8,7.8,0.6,11.8c-2.6,1.7-5.3,1.4-8.3,1.1
	c0.7-1.7,2.3-0.7,3.3-1.7c-0.8-1.3-3-0.1-3.6-1.8c1.8-1.1,4,0,6.1-1.1c-2.2-0.6-4.1-1-6.9-1.7C950.6,535.9,953,537,955.4,535.7z"/>
<path fill-rule="evenodd" clip-rule="evenodd" fill="#FFFFFF" d="M851,186.6c-0.1,0.2-0.2,0.3-0.4,0.4c-6,2.5-7.6-1.6-7.5-5.9
	c0.1-2.8,1.7-4.8,4.1-6.1c1.7-0.9,3.3-0.5,4.8,0.8c-0.5,1.8-1.3,3.6-1.5,5.4C850.4,183,850.8,184.8,851,186.6z M848.6,183.9
	c-0.9-0.8-1.5-1.5-1.9-1.4c-0.5,0.1-0.9,0.8-1.2,1.3c-0.1,0.1,0.6,0.9,0.9,0.9C847,184.7,847.5,184.3,848.6,183.9z"/>
<path fill-rule="evenodd" clip-rule="evenodd" fill="#FFFFFF" d="M945.7,90c-3.8,0.5-6.5,0.9-9.2,1.2c-0.8,0.1-1.6-0.1-2.6-0.2
	c-0.6-4.2-0.5-8.3-0.3-12.8c2.6,1.7,3.5,4.5,5.6,6.1C941.2,85.8,943,87.6,945.7,90z"/>
<path fill-rule="evenodd" clip-rule="evenodd" fill="#FFFFFF" d="M866.3,102.7c1.4,0.7,2.8,1.3,4.1,2c1.2,0.6,2.4,1.2,2.5,2.9
	c0,0.4,1.3,0.8,2.4,1.4c0.1,1.3,0.3,2.9,0.4,4.9c-3.1-0.6-5-2.7-7.3-4c-2.3-1.4-4.8-2.6-7.3-3.9
	C862.5,104.1,864.3,103.2,866.3,102.7z"/>
<path fill-rule="evenodd" clip-rule="evenodd" fill="#FFFFFF" d="M864.6,101.1c-1.7,1-3.3,1.8-5.1,2.8c-1.8-2.8-3.5-5.5-5.2-8.1
	c2.3-0.7,5.2-0.6,7.6,0.6C863.6,97.2,864.3,98.7,864.6,101.1z"/>
<path fill-rule="evenodd" clip-rule="evenodd" fill="#FFFFFF" d="M865.2,84.3c1,1.3,2.1,2.6,3.2,3.9c1.4,1.7,2.8,3.3,4.3,5
	c-3.3,1.1-3.3,1.1-7.9,0.6c0.7-2.8,0.4-5.5-0.1-8.2C864.5,85.2,865,84.7,865.2,84.3C865.3,84.2,865.2,84.3,865.2,84.3z"/>
<path fill-rule="evenodd" clip-rule="evenodd" fill="#FFFFFF" d="M935.1,98.3c-1.1-1.7-1.4-3.2-0.4-5.1c3.4-0.4,6.9-0.9,11.3-1.5
	C942.4,95.4,938.3,96.1,935.1,98.3z"/>
<path fill-rule="evenodd" clip-rule="evenodd" fill="#FFFFFF" d="M887.1,72c-7.1,2.5-14.3,0.4-21.5,0.2
	C869.4,71.2,877.5,71.1,887.1,72z"/>
<path fill-rule="evenodd" clip-rule="evenodd" fill="#FFFFFF" d="M876.6,100.6c-0.5,1.2-1,2.4-1.5,3.7c-2.4-0.2-4.5-1-6.5-2.6
	c1.8-2.4,4.5-2.8,6.8-3.6c1.4,0.7,1.5,1.6,1.1,2.7L876.6,100.6z"/>
<path fill-rule="evenodd" clip-rule="evenodd" fill="#FFFFFF" d="M950.2,518c3.8-0.6,7.6-1.3,11.8-2c0.3,0.8,0.6,1.6,1,2.9
	c-3.2-1-5.9,0.1-8.6,0.5C952.5,519.7,952.5,519.7,950.2,518z"/>
<path fill-rule="evenodd" clip-rule="evenodd" fill="#FFFFFF" d="M951.4,515.8c0.8-2.5,2.3-3,3.8-2.7c1.8,0.3,4-1.5,5.6,0.9
	C958.2,516.6,955,515.3,951.4,515.8z"/>
<path fill-rule="evenodd" clip-rule="evenodd" fill="#FFFFFF" d="M959.6,521.3c-2.9,1.8-6.1,1.8-10,1.3
	C953.1,520.5,956.4,521.2,959.6,521.3z"/>
<path fill-rule="evenodd" clip-rule="evenodd" fill="#FFFFFF" d="M950.2,528.8c2.1-1.9,4.4-1.9,6.7-1.5c0.2,0,0.4,0.6,0.3,0.8
	c0,0.3-0.3,0.8-0.5,0.8C954.6,529,952.4,528.9,950.2,528.8z"/>
<path fill-rule="evenodd" clip-rule="evenodd" fill="#FFFFFF" d="M867,99.6c-0.7-1.3-1-2-1.4-2.7c0.4-0.4,0.6-0.9,0.8-0.9
	c1.7-0.1,3.3,0,5.4,0C870.7,98.2,868.9,98.5,867,99.6z"/>
<path fill-rule="evenodd" clip-rule="evenodd" fill="#FFFFFF" d="M883.9,101.5c-1.2-0.9-1.9-1.4-2.5-2c-0.5-0.4-0.8-1-1.2-1.6
	c2.4-0.9,2.4-0.9,4.9-0.5C884.8,98.6,884.5,99.7,883.9,101.5z"/>
<path fill-rule="evenodd" clip-rule="evenodd" fill="#FFFFFF" d="M948.9,525.6c3.2-1.6,4.4-1.7,9.4-0.8
	C954.4,525.3,951.7,525.9,948.9,525.6z"/>
<path fill-rule="evenodd" clip-rule="evenodd" fill="#FFFFFF" d="M876.5,100.7c2-1.3,3,0.4,4.5,1.3c-0.8,1.8-2.2,1.7-3.6,2.1
	c-0.3-1.3-0.5-2.4-0.7-3.5C876.6,100.6,876.5,100.7,876.5,100.7z"/>
<path fill-rule="evenodd" clip-rule="evenodd" fill="#FFFFFF" d="M884.2,94.9c-2,0.2-2.8,0.3-3.6,0.3c-0.6,0-1.3-0.1-2.4-0.2
	c0.7-1.2,1.2-2.1,1.9-3.3C881.3,92.7,882.3,93.4,884.2,94.9z"/>
<path fill-rule="evenodd" clip-rule="evenodd" fill="#FFFFFF" d="M953.6,511.6c2.4-2,2.4-2,3.3-0.2
	C956.1,511.4,955.3,511.5,953.6,511.6z"/>
<path fill-rule="evenodd" clip-rule="evenodd" d="M228.3,386.6c-2.5-0.1-4.9,0.1-7.2,0.8c-4.6,1.4-9.1,3.1-13.6,4.7
	c-1.9,0.7-3.9,1.5-6,1.1c-0.6-0.1-1.2-0.6-1.5-1.1c-0.2-0.3,0-1.1,0.3-1.4c6-7.5,13.3-13.1,23-15.2c4-0.9,8-1.9,12.2-1.5
	c7,0.7,13.1,5.6,14.7,12.4c1.5,6.2-2.5,14.5-10,15.4c-2.6,0.3-5.1,0.5-7.6,0c-4.3-0.8-6.3-3.2-5.7-7.5c0.3-2,0.9-4,1.3-6
	C228.3,387.8,228.3,387.3,228.3,386.6z M208.9,387.4c0.2,0.2,0.4,0.4,0.7,0.6c2.7-1,5.3-2.3,8.1-3c2.8-0.7,5.7-1.1,8.6-1.1
	c2.7,0,5.7-0.8,8.5,1.2c-0.6,0.8-0.9,1.3-1.3,1.8c-2.2,2.2-2.2,4.9-1.4,7.6c1.3,4.6,6.4,6.3,10.3,3.6c2.9-2,4.4-4.7,3.9-8.3
	c-0.3-2-0.7-4.1-1.2-6c-1-3.6-3.2-5.9-7.1-6.4c-10.3-1.3-19.7,0.9-27.5,8.1C209.7,386,209.3,386.8,208.9,387.4z"/>
<path fill-rule="evenodd" clip-rule="evenodd" d="M231.4,268.5c3.8-1.4,7.5-2.8,11.7-2.4C239.4,267.8,235.4,268.1,231.4,268.5z"/>
<path fill-rule="evenodd" clip-rule="evenodd" d="M238.5,263.1c0.2-0.3,0.3-0.7,0.5-0.8c2.6-0.7,5.2-1.3,7.8-1.9
	c0.4-0.1,0.8,0.3,1.2,0.5c-0.3,1.7-1.5,1.8-2.6,1.8c-2.3,0.1-4.7,0.2-7,0.3L238.5,263.1z"/>
<path fill-rule="evenodd" clip-rule="evenodd" d="M238.4,263c-2.3,0.6-4.6,1.1-7.6,1.9C234.6,262.7,234.6,262.7,238.4,263
	C238.5,263.1,238.4,263,238.4,263z"/>
<path fill-rule="evenodd" clip-rule="evenodd" d="M794.1,376.9c-2.7-0.3-4.1-1.1-5.6-1.9c-4-2.4-8.5-2.7-12.9-2
	c-2.6,0.4-5,2.1-7.6,3.2c0,1.4-0.1,2.6,0,3.7c0.2,2.2-0.6,4.1-1.6,5.8c-1.6,2.7-3.5,3.8-6.8,3.3c-4.3-0.7-7.8-2.3-10.2-6
	c-1-1.5-1.3-3.1-1.1-4.9c0.6-3.8,2.3-7.2,5-9.9c1.2-1.1,2.8-1.9,4.4-2.5c4.2-1.6,8.7-1.6,13.1-1.6c3.9,0,7.7,0.4,11.6,1.6
	C788.1,367.4,791.2,371.3,794.1,376.9z M763.1,375.7c0.6-0.5,1.2-1.2,1.9-1.5c1.3-0.7,2.8-1.3,4.2-2c4.3-2,9-1.4,13.5-1.5
	c0.3-1.4-0.5-1.8-1.3-2c-6.4-2-12.8-2.4-19.2-0.3c-1.9,0.6-3.8,1.5-5.6,2.5c-3.2,1.9-4.5,5.1-4.8,8.6c-0.2,2.6,0.9,4.6,3.4,5.8
	c2.6,1.3,5.2,2.1,7.8,0.5c0.9-0.6,1.6-1.8,2-2.8C765.8,380.2,765.5,379.1,763.1,375.7z"/>
<path fill-rule="evenodd" clip-rule="evenodd" d="M754.5,278.9c-2.3-1.5-2-3.5-1.5-5.4c0.5-1.9-0.2-4.3,2.5-6.1
	c-0.4,2.4-0.8,4.2-0.9,6C754.4,275.2,754.5,277.1,754.5,278.9z"/>
<path fill-rule="evenodd" clip-rule="evenodd" d="M749.9,276.8c-1.1,3.6-0.6,7.3-0.2,11c-1.1,0.5-1.3-0.3-1.3-0.8
	c0-2.9,0.1-5.8,0.3-8.6C748.8,277.8,749.6,277.3,749.9,276.8L749.9,276.8z"/>
<path fill-rule="evenodd" clip-rule="evenodd" d="M750,276.8c-0.2-1-0.5-2-0.6-3c-0.1-2.5,0-5,0-7.5c1.4-0.3,1.4,0.6,1.3,1.1
	c-0.2,3.1-0.6,6.1-0.8,9.2C749.9,276.8,750,276.8,750,276.8z"/>
<path fill-rule="evenodd" clip-rule="evenodd" d="M764.1,240.1c-1.5,0.9-2,1.3-2.6,1.5c-5.4,1.6-10.8,3.2-16.2,4.7
	c-0.2,0.1-0.6-0.3-1.1-0.5c0.5-0.5,0.9-1.1,1.5-1.3C751.3,242.5,757,241,764.1,240.1z"/>
<path fill-rule="evenodd" clip-rule="evenodd" d="M758.5,245.8c-2.9,1.8-6.7,2.8-10.3,2.7C751.3,246.4,753.7,245.8,758.5,245.8z"/>
<path fill-rule="evenodd" clip-rule="evenodd" d="M429.1,138.9c0.8-1.6,0.9-3.6,2.4-4.7c1.4,0,1.8,0.8,1.9,1.6
	c0.4,3,0.8,6.1,1.2,9.1c0.1,1.1,0.3,2.3,0.4,3.3c1.2,0.4,1.4-0.3,1.6-0.9c1.3-3.2,2.5-6.3,3.8-9.5c0.2-0.4,0.6-0.7,1.1-1.3
	c3.6,2.2,3.4,7,6.7,9.6c3-3.2,2.6-7.9,5.6-11.2c0.7,0.6,1.5,0.9,1.9,1.6c0.8,1.1,1.3,2.3,2.1,3.5c-1.9,0.6-2.1-1.7-3.6-1.7
	c-1.5,0.5-1.5,2.1-2,3.3c-0.8,1.9-1.4,3.8-2.4,5.6c-0.9,1.6-2.8,1.5-3.7-0.1c-1.2-2.2-2.4-4.5-3.8-7.2c-2.1,3.1-3.3,6.1-4.4,9.1
	c-0.5,1.3-0.9,2.6-1.5,3.8c-0.2,0.4-1,0.6-1.9,1.1c-1.3-5.5-0.7-10.9-2.3-15.9c-1,0.3-2.1,0.5-3.1,0.8L429.1,138.9z"/>
<path fill-rule="evenodd" clip-rule="evenodd" d="M425.5,143.9c0.6-0.5,1.1-0.9,1.7-1.4c0.4-0.3,0.9-0.6,1.4-0.9
	c0,0-0.1-0.1-0.1-0.1C428.1,143.1,427.4,144.2,425.5,143.9L425.5,143.9z"/>
<path fill-rule="evenodd" clip-rule="evenodd" d="M429,138.8c0.6,1,0.6,1.9-0.5,2.6c0,0,0.1,0.1,0.1,0.1c0.2-0.9,0.3-1.7,0.5-2.6
	C429.1,138.9,429,138.8,429,138.8z"/>
<path fill-rule="evenodd" clip-rule="evenodd" d="M425.5,143.9c0.2,0.2,0.5,0.4,0.7,0.6c0.1,0.2,0,0.5-0.1,0.7
	c-0.1-0.2-0.3-0.3-0.4-0.5C425.6,144.5,425.6,144.2,425.5,143.9C425.5,143.9,425.5,143.9,425.5,143.9z"/>
<path fill-rule="evenodd" clip-rule="evenodd" d="M44.7,379.4c-3.1,3-6.6,2.4-10.4,1.4c-0.1-1-0.5-2.1-0.4-3.2
	c0.4-3.5,0.9-7.1,1.5-10.6c0.1-0.6,0.5-1.3,1-1.7c2-1.5,6.2,0,6.9,2.3c0.1,0.3,0.1,0.7,0.2,1C43.8,372.1,44.2,375.6,44.7,379.4z
	 M38.3,366.9c-0.8,4.6-0.8,8.2,0.8,12.2c1.2-0.7,2.1-1.2,3.2-1.9C40.9,373.9,42.7,369.8,38.3,366.9z"/>
<path fill-rule="evenodd" clip-rule="evenodd" d="M868.9,404.5c0,1.7-0.1,3,0,4.3c0.1,1.1,0.3,2.2,0.6,3.8c-2.6-1.6-1.7-3.8-2.2-5.5
	C867,406.2,866.8,405,868.9,404.5z"/>
<path fill-rule="evenodd" clip-rule="evenodd" d="M118.6,453.3c-1.2-2.6-1.3-5-0.9-7.5c0.1-0.7,0.7-1,1.5-0.6
	c0.1,0.3,0.4,0.6,0.4,0.8C119.3,448.4,118.9,450.9,118.6,453.3z"/>
<path fill-rule="evenodd" clip-rule="evenodd" d="M857.1,181.1c0.5,0.5,1,1,0.9,1.2c-0.3,0.5-0.8,0.9-1.2,1.3
	c-0.4-0.4-0.8-0.8-1.2-1.2C856.1,181.9,856.5,181.6,857.1,181.1z"/>
<path fill-rule="evenodd" clip-rule="evenodd" d="M848.6,183.9c-1.1,0.4-1.6,0.8-2.1,0.8c-0.3,0-1-0.8-0.9-0.9
	c0.3-0.5,0.7-1.2,1.2-1.3C847.1,182.4,847.7,183.1,848.6,183.9z"/>
<path fill-rule="evenodd" clip-rule="evenodd" fill="#FFFFFF" d="M208.9,387.4c0.5-0.7,0.9-1.4,1.4-2c7.8-7.2,17.2-9.3,27.5-8.1
	c3.9,0.5,6.1,2.8,7.1,6.4c0.5,2,0.9,4,1.2,6c0.6,3.6-1,6.3-3.9,8.3c-3.9,2.7-8.9,0.9-10.3-3.6c-0.8-2.7-0.8-5.4,1.4-7.6
	c0.4-0.5,0.8-1,1.3-1.8c-2.8-2-5.8-1.2-8.5-1.2c-2.9,0-5.8,0.4-8.6,1.1c-2.8,0.7-5.4,2-8.1,3C209.3,387.8,209.1,387.6,208.9,387.4z
	 M237.3,394.6c2,1.5,2.6,1.7,3.6,1c4-3,4.7-5.6,2.7-9.2c-0.3-0.6-0.4-1.4-0.9-1.8c-0.4-0.4-1.3-0.8-1.6-0.6
	c-0.5,0.3-0.8,1.1-0.8,1.7c0,0.6,0.6,1.2,0.8,1.9c0.9,2.8,0,4.7-2.7,6.2C238.1,394,237.7,394.3,237.3,394.6z"/>
<path fill-rule="evenodd" clip-rule="evenodd" fill="#FFFFFF" d="M763.1,375.7c2.3,3.5,2.7,4.6,1.7,7.2c-0.4,1.1-1.1,2.3-2,2.8
	c-2.6,1.6-5.2,0.9-7.8-0.5c-2.5-1.3-3.5-3.2-3.4-5.8c0.3-3.6,1.6-6.7,4.8-8.6c1.7-1,3.6-1.9,5.6-2.5c6.4-2.1,12.8-1.7,19.2,0.3
	c0.9,0.3,1.6,0.6,1.3,2c-4.5,0.2-9.1-0.5-13.5,1.5c-1.4,0.6-2.8,1.2-4.2,2C764.3,374.5,763.7,375.1,763.1,375.7z M756.6,374.1
	c-2.6,1.5-3.6,3.6-3.1,6.3c0.1,0.5,0.7,0.9,1.4,1.5c0.2-1.7,0.1-3,0.4-4.2C755.6,376.5,756.2,375.3,756.6,374.1z"/>
<path fill-rule="evenodd" clip-rule="evenodd" fill="#FFFFFF" d="M38.3,366.9c4.4,2.9,2.6,7,4,10.3c-1.1,0.6-2,1.2-3.2,1.9
	C37.5,375.1,37.5,371.5,38.3,366.9z"/>
<path fill-rule="evenodd" clip-rule="evenodd" d="M237.3,394.6c0.4-0.3,0.8-0.6,1.1-0.8c2.7-1.5,3.5-3.5,2.7-6.2
	c-0.2-0.6-0.8-1.2-0.8-1.9c0-0.6,0.3-1.4,0.8-1.7c0.3-0.2,1.3,0.2,1.6,0.6c0.4,0.5,0.5,1.2,0.9,1.8c2,3.6,1.2,6.2-2.7,9.2
	C240,396.3,239.4,396.2,237.3,394.6z"/>
<path fill-rule="evenodd" clip-rule="evenodd" d="M756.6,374.1c-0.4,1.2-1,2.4-1.3,3.6c-0.3,1.2-0.3,2.5-0.4,4.2
	c-0.6-0.6-1.3-1-1.4-1.5C753,377.8,754,375.6,756.6,374.1z"/>
</svg>
