<?xml version="1.0" encoding="utf-8"?>
<!DOCTYPE svg PUBLIC "-//W3C//DTD SVG 1.1//EN" "http://www.w3.org/Graphics/SVG/1.1/DTD/svg11.dtd">
<svg artist="zl2017" version="1.1" id="zlIcon-safety-sheep" xmlns="http://www.w3.org/2000/svg" xmlns:xlink="http://www.w3.org/1999/xlink" x="0px" y="0px"
	 width="1000px" height="748.4px" viewBox="0 0 1000 748.4" enable-background="new 0 0 1000 748.4" xml:space="preserve">
<path fill-rule="evenodd" clip-rule="evenodd" fill="#FFFFFF" d="M480.1,579.4c14-4.3,25.2-10.9,28.8-18.5c2-4.3,4.6-5.8,8.6-6.5
	c6.9-1.2,13.8-2.6,20.7-3.5c29.3-3.9,53.6-15.9,68.1-43.1c2.5-4.7,6.1-9.5,6.7-14.6c1.5-11.6,2.5-23.4,1.8-35
	c-0.5-9.4-0.5-17.8,6.9-25.5c7.3,10.9,0.4,23.7,4.3,34.9c4.8-4.4,8.9-8.2,13-12c3.2-2.9,6.4-5.7,9.6-8.5
	c20.6-18,19.8-51.8,11.2-68.2c-5.2-10-11.2-20-18.8-28.1c-10.3-10.9-21.4-21.5-37.3-24.7c-4.2-0.8-8.1-4-11.7-6.8
	c-3.1-2.5-5.4-5.9-7.8-8.6c3.5-0.3,7.3-0.6,12.2-1c-0.5-4.5-0.4-8.4-1.5-11.9c-2.8-8.9-7.7-17.3-9.1-26.3
	c-2.4-15.6-12.9-22.1-25.7-27.2c-5.2-2-9.4-1-14,2.4c-7.3,5.2-14.9,10.1-23.1,13.6c-16.7,7.2-33.9,13.4-50.9,20
	c-1.1,0.4-2.3,0.4-3.4,0.6c-16.5,2.9-33.1,5.3-49.4,9c-10.6,2.4-21,3.7-31.1,0.2c-7.6-2.6-14.3-7.5-21.7-10.9
	c-19.7-8.9-34.8-23.1-47.5-41.8c-39.4,10.6-56.8,40.1-67,75.8c-6.2,2.6-12,5.9-18.3,7.7c-23.5,6.7-41,21.7-56.4,39.8
	c-4.9,5.7-9.8,11.9-8.5,19.8c1.7,10.6,3.4,21.5,7.5,31.4c2.8,6.8,9.3,12.2,14.4,18.1c9.1,10.6,15.7,11.5,26.7,3.3
	c3.4-2.5,6.3-4,10.8-0.1c-10.1,13.4-11.2,28.1-8,43.6c0.5,2.3,0.4,4.7,0.7,7c1.9,15.6,7.6,28.9,18.3,41.1
	c9.2,10.5,18.6,19.6,32.9,24.6c5.5-9.9,13.4-18.4,24.3-23.6c4.6-2.2,9.4-3.8,13.7-6.4c15.9-9.7,33-8,50.1-5.7
	c7.1,1,13.7,4.1,18.1,9.8c4.2,5.4,7.9,4.6,13,1.8c6.1-3.4,12.6-6.4,19.2-8.6c16.2-5.5,38.6,0.8,48.2,12.8c4.1,5.1,8,10.6,12.9,15
	c5.9,5.2,7.5,11.6,7.7,18.8C479.8,568.3,479.9,573.2,480.1,579.4z"/>
<path fill-rule="evenodd" clip-rule="evenodd" fill="#FFFFFF" d="M613,516.6c-13.5,16.5-27.7,29.9-46.5,36.6
	c-12,4.3-24.6,7.1-37.1,9.5c-7.9,1.5-14.4,4.1-20.4,9.9c-5.7,5.6-12.8,10.8-20.2,13.4c-8.4,3-12.9,7.2-14.9,15.8
	c-2.4,10.2-8.3,19-18.1,23.3c-9.2,4-18,9.6-28.6,9.4c-5.8-0.1-6.9,3.2-6.5,8.5c0.5,6.9,0.4,13.8,0,20.7c-0.8,14-5.5,18.8-19,20
	c-21.2,1.8-42-1.7-62.9-4.2c-9.4-1.1-17.9-4.8-24.9-9.2c-6.4-12.6-2.7-22.7,3.8-32.8c2.3-3.6,3-8.3,4.7-13.3
	c-5.8-1.2-9.9-1.8-14-2.9c-17.5-4.5-33.2-11.4-39.5-30.5c-1.8-5.5-2.8-11.5-6-16.1c-5.5-7.9-12.2-15-18.6-22.3
	c-17.6-20-31.4-41.7-33.2-69.3c-0.6-8.5-1.5-17-2.3-25c-9.3-4.3-18.3-8.4-28.4-13c-6,14.1-11.5,28.1-13.1,44.4
	c10.1-11.7,10.1-11.7,14.7-7.9c-4.3,5.9-7.5,13.1-13,17.3c-9.7,7.4-8.2,17.1-8.4,27.1c3.8-3.4,6.5-7.6,9.8-11
	c3.2-3.3,4.2-10.9,12-7.4c-5.6,8.4-11.6,16.1-16.2,24.6c-5.3,9.5-10.1,19.6-2.8,31.4c3.9-6.8,7-13.6,11.2-19.5
	c3.9-5.5,6.3-13.4,17.8-14.3c-3.6,5.2-6.2,8.5-8.3,12c-5.3,8.6-10.8,17.1-15.2,26.1c-1.9,3.8-2.6,9.5-1.2,13.3
	c5.1,13.8,12.4,26.5,23.3,37.2c10.5-28.1,14.1-32.9,27.9-34.5c-4,4-6.6,6.4-9,9.1c-7.8,9.2-12.8,19.8-12.6,31.9
	c0.2,8.9,8.3,12.5,14.5,17.1c0.3,0.2,0.7,0.2,1.8,0.5c2.4-6.5,4.5-13.1,7.3-19.5c2.3-5.3,5.2-10.4,8.5-15.2c1.7-2.5,4.6-4.3,8.2-0.2
	c-9.6,8.8-13.7,20.6-17.2,32.5c-1.1,3.8-1.2,9,0.6,12.2c3,5.2,7.9,9.2,13.2,14.9c3.2-9.8,5.2-18.2,8.7-25.9
	c3.2-7.1,3.9-16.6,14.4-20c-0.3,2.3,0,3.6-0.6,4.3c-8,10.1-10.4,22.5-14,34.4c-1.2,4-1.2,10.9,1.3,13c7.1,6.2,15.9,10.2,25.3,12.7
	c3.9-17.9,0-36.7,14.8-50.1c0.9,1.3,1.7,1.9,1.7,2.5c0,1.1-0.1,2.4-0.7,3.3c-8.2,11.9-8.1,25.8-9.7,39.3c-0.3,2.8,0.3,7.2,2.2,8.5
	c7.5,5.2,15.6,9.6,24.1,12c4.1-7.1-2-16.3,7.9-21.3c0.4,2.9,0.9,4.7,0.8,6.5c-1.8,22.9-1.7,16.7,16.8,23.6c7.4,2.7,15.7,5,23.3,1.7
	c3.3-4.2-2.9-12.6,7.1-12.6c0.3,4.9,0.7,9.6,1,14.3c5.7,0,9.9-0.1,14.2,0c4,0.1,8.1,0.4,11.3,0.5c3.4-5.8-1.6-13.8,7.3-15.5
	c1.3,5.1,2.4,9.8,3.8,15.4c10.4-1.4,19.8-2.7,29.3-3.9c0.4-6.1-3.1-12.1,4.8-15.9c0.4,5.4,0.6,9.7,1,15.1c27.9-4,54.3-9.5,79.9-19.7
	c-0.4-2.9-0.6-4.8-1-6.6c-3.4-12.8-6.9-25.6-10.2-38.4c-0.5-2,0.3-4.4,0.5-6.5c0.9,0,1.7-0.1,2.6-0.2c8.5,15.5,7.1,34.5,16.2,51.8
	c14.9-6.1,28.8-11.9,42.8-17.6c7.1-2.9,9.4-8.1,8.3-15.7c-1.9-13.5-3-27.1-4.6-40.6c-0.4-3.3,0-5.4,5.2-5.2c5.5,15.1,1,32,6.2,47.3
	c21.8-14.4,25.1-22.8,18.5-46.9c-0.6-2.3-1.3-4.5-1.7-6.8c-1-5.5-1.9-11.1-2.9-16.6c0.9-0.3,1.9-0.6,2.8-0.8
	c5.9,4.2,4.1,12,6.2,17.9c2.3,6.4,2.1,13.8,8,19.4c7.3-9.6,13.5-18.6,6.6-30.9c-2.2-4-3-8.8-4.2-13.3c-0.6-2.4-0.6-4.9-1-8.2
	c11,3.3,7,14.6,13.2,20.3c3.5-12.1,6.3-23.2-3.9-33c-1.3-1.3-0.8-4.3-1.4-8.3c3.9,2.2,5.7,3.2,8.8,5
	C624.3,541,619.9,529.3,613,516.6z"/>
<path fill-rule="evenodd" clip-rule="evenodd" fill="#FFFFFF" d="M476.2,264.3c27.9-4.3,59.7-16.4,84.3-43.4c1-1.1,1.9-2.4,2.7-3.8
	c17.3-30.9,6.4-65.9-25.3-81.2c-2.5-1.2-4.9-2.4-7.3-3.8c-22.6-13.3-45-9.6-66.5,2.2c-9.4,5.2-17.7,12.6-26.2,19.5
	c-14.5,11.9-24.7,26.6-28.1,45.6c-2.7,15.6,4.1,37.5,15.4,48.7C437.3,260,452,265,476.2,264.3z"/>
<path fill-rule="evenodd" clip-rule="evenodd" fill="#FFFFFF" d="M467.1,121.6c-1.7-8.3-7.3-11.8-12.3-13.5
	c-13.1-4.4-26-10.6-40.5-8.7c-2.7,0.4-5.5,0.9-8.1,0.6c-23.4-2.1-44.5,5.8-64.9,15.8c-5.8,2.8-11.6,7.3-15.1,12.6
	c-13.6,20.1-20.1,42.6-14.9,66.6c3.2,14.8,11.7,27.1,28.3,31c3.8,0.9,7.4,2.3,11,3.7c17.2,6.8,33.3,2.1,49.4-2.7
	c0-5.6-0.3-9.9,0.1-14.2c0.8-9.3-0.2-19.4,3.3-27.6c10.5-24.6,28.2-43.7,50.7-58.1C457.8,124.8,462.4,123.6,467.1,121.6z"/>
<path fill-rule="evenodd" clip-rule="evenodd" fill="#FFFFFF" d="M329.5,615.6c15.8,1.1,28.5-5.4,39.8-15c2.9-2.4,5.8-5.5,7.1-8.9
	c6.5-16.7,8.1-33.7,1.9-51.1c-3.8-10.6-11.1-16.2-22.2-18.1c-14.4-2.4-27.9,1.4-41.3,5.3c-15,4.4-26.1,13.6-33,27.7
	c-8.4,17.4-5.7,45.8,20.4,55.2C310.8,613.9,320.4,614.1,329.5,615.6z"/>
<path fill-rule="evenodd" clip-rule="evenodd" fill="#FFFFFF" d="M376.5,609.3c5.5,3.4,10.9,8.3,17.1,10c10.7,2.9,21.9,4.8,33,5.3
	c11.2,0.5,21.4-5.9,26.7-14.4c6.8-10.9,11.4-23.9,14-36.6c2.7-13.1-1.9-25.4-12.9-34.2c-1.8-1.5-4.2-2.4-5.6-4.2
	c-13.1-16.7-39.4-13.2-52.4-1.5c-4.8,4.3-6.6,7.6-5.4,14.7c2.3,13.2,4.6,26.9-3.7,39.6C383,594.7,380,602.2,376.5,609.3z"/>
<path fill-rule="evenodd" clip-rule="evenodd" fill="#FFFFFF" d="M336.4,623.3c-3.7,9.8-7.1,18.8-10.4,27.9
	c-3,8.1-1.5,12.5,5.8,16.6c2.6,1.5,5.8,2.7,8.8,2.8c15.9,0.7,31.7,1.4,47.6,1.3c24.7-0.2,21.3-2.5,21-25.1
	c-0.1-8.4-3.8-14-13.2-16.5c-10.3-2.7-20.3-7.3-25.6-16C358.1,617.5,346.6,620.6,336.4,623.3z"/>
<path fill-rule="evenodd" clip-rule="evenodd" d="M609.6,315.7c30.3,12.5,49.1,37.3,64.4,65.7c5.4,10,10.3,19.8,9.8,32
	c-0.4,7.7-0.8,14.6-5.6,20.9c-2.9,3.8-2.8,7.5-0.8,12c5,11.1,10.8,21.5,19.8,30c13.3,12.6,26.3,25.6,39.3,38.5
	c1.8,1.7,2.8,4.2,4.6,6.9c-7.7,4.2-13.8,1.2-19.5-1.6c-10.2-4.9-20.5-9.5-31.8-11.3c-19.2-3-38.3-6.3-57.5-9.2
	c-3.5-0.5-7.2,0.6-12.6,1.2c2.3,6.1,3.3,10.6,5.5,14.5c12,21,12.8,43.5,10.8,66.9c-2.4,27.6-17.2,48.8-33.1,69.6
	c-2.6,3.4-5.2,6.9-8.1,10c-7.1,7.7-14.1,15.2-24.2,19.7c-18.9,8.3-37.5,16.9-58.1,20.3c-5.6,0.9-10.8,4.1-16.3,6.1
	c-4.4,1.6-8.7,3.3-13.2,4.5c-7.2,1.8-14.4,3.2-21.7,4.6c-25.2,4.9-50.4,9.5-76.2,9.1c-14.8-0.2-29.7-0.7-44.5-1.4
	c-4.6-0.2-9.2-1.4-13.7-2.8c-28.8-8.9-56.3-20.9-82.8-35c-9.1-4.8-17.1-12.1-24.9-19c-8.8-7.6-16.9-16-25.3-24.1
	c-2.2-2.2-4.6-4.3-6.2-6.9c-8.3-13.7-16.2-27.5-24.5-41.2c-8.7-14.4-13.4-30-13.9-46.6c-0.4-16.3-1.9-32.8,2.1-49
	c4.7-19.3,10.5-38.2,19.1-56.2c2.9-6.1,3.3-11.4-0.3-17.4c-7.6-12.5-11.2-26.5-13.5-40.8c-1.3-8.1,1.1-15.5,5.8-22
	c11.3-15.3,19-33.2,33.7-46.1c2.4-2.1,3.8-7.2,3.4-10.6c-1.5-15-3-30.1-6.1-44.9c-4.2-20.2-9.8-40.1-14.9-60
	c-1.1-4.1-3.1-8-4.3-12.1c-1.1-3.9-1.8-7.9-2.8-12.6c7.2-0.7,10.7,2.4,13.9,6.5c9.4,11.9,18.3,24.2,28.3,35.6
	c14.3,16.4,29.4,32,49.6,42.4c13.3-14.7,28.7-26.3,48.1-32.7c-0.6-2-0.7-3.6-1.5-4.8c-16.9-27.9-13.9-57-3-85.3
	c9.1-23.6,29.7-35.2,53.4-41.3c13-3.4,26.3-6,39.8-9.1c-3.2-7.1-5.8-14-9.3-20.3c-3.7-6.8-13.3-9.9-20.3-6.8
	c-3.9,1.7-7.8,3.9-10.9,6.8c-26.7,25-57.5,7.5-68.4-13.3c-3.1-5.8-5.4-12.2-7.4-18.5C281,29,286.5,17.1,294.5,14
	c26.4-10.5,53.8-16.3,82.4-13.1c8,0.9,11.4,5,12.8,14.2c1.7,10.8,2.8,21.7,5.3,32.2c2.5,10.8,3.8,22.2,9.9,32
	c4.1,6.6,8.6,10.3,17.5,10.9c41.6,2.6,81.4,12.2,117.6,34c2,1.2,4.1,2.3,6.3,3.1c11.3,3.8,19.9,10.9,25.2,21.4
	c3.1,6,7.5,9.5,14.4,11.2c22.1-7.9,37.9-24.1,51.2-43c6.3-9,12.1-11.7,23-7.8c18.9,6.7,30,21.3,38.5,38.6c6.9,13.9,5.9,28.4,3.8,43
	c-1,6.8-5.1,11.6-11.8,14.8c-6.4,3.1-11.6,3.2-17.4-0.9c-6-4.3-12.3-8.1-18.4-12.1c-11.7-7.8-23-16-35.1-23.1
	c-5.1-3-11.3-4.3-17.9-1.3c-5.2,2.3-11.4,2.5-18.7,3.9c0.9,18.5-4.6,36-15.4,52.4c5.9,7.4,11.6,14.3,17,21.3c2.1,2.8,4,5.8,5.5,8.9
	c4.8,10.2,10.2,20.3,13.7,31C606.9,294.8,607.7,305.1,609.6,315.7z M480.1,579.4c14-4.3,25.2-10.9,28.8-18.5c2-4.3,4.6-5.8,8.6-6.5
	c6.9-1.2,13.8-2.6,20.7-3.5c29.3-3.9,53.6-15.9,68.1-43.1c2.5-4.7,6.1-9.5,6.7-14.6c1.5-11.6,2.5-23.4,1.8-35
	c-0.5-9.4-0.5-17.8,6.9-25.5c7.3,10.9,0.4,23.7,4.3,34.9c4.8-4.4,8.9-8.2,13-12c3.2-2.9,6.4-5.7,9.6-8.5
	c20.6-18,19.8-51.8,11.2-68.2c-5.2-10-11.2-20-18.8-28.1c-10.3-10.9-21.4-21.5-37.3-24.7c-4.2-0.8-8.1-4-11.7-6.8
	c-3.1-2.5-5.4-5.9-7.8-8.6c3.5-0.3,7.3-0.6,12.2-1c-0.5-4.5-0.4-8.4-1.5-11.9c-2.8-8.9-7.7-17.3-9.1-26.3
	c-2.4-15.6-12.9-22.1-25.7-27.2c-5.2-2-9.4-1-14,2.4c-7.3,5.2-14.9,10.1-23.1,13.6c-16.7,7.2-33.9,13.4-50.9,20
	c-1.1,0.4-2.3,0.4-3.4,0.6c-16.5,2.9-33.1,5.3-49.4,9c-10.6,2.4-21,3.7-31.1,0.2c-7.6-2.6-14.3-7.5-21.7-10.9
	c-19.7-8.9-34.8-23.1-47.5-41.8c-39.4,10.6-56.8,40.1-67,75.8c-6.2,2.6-12,5.9-18.3,7.7c-23.5,6.7-41,21.7-56.4,39.8
	c-4.9,5.7-9.8,11.9-8.5,19.8c1.7,10.6,3.4,21.5,7.5,31.4c2.8,6.8,9.3,12.2,14.4,18.1c9.1,10.6,15.7,11.5,26.7,3.3
	c3.4-2.5,6.3-4,10.8-0.1c-10.1,13.4-11.2,28.1-8,43.6c0.5,2.3,0.4,4.7,0.7,7c1.9,15.6,7.6,28.9,18.3,41.1
	c9.2,10.5,18.6,19.6,32.9,24.6c5.5-9.9,13.4-18.4,24.3-23.6c4.6-2.2,9.4-3.8,13.7-6.4c15.9-9.7,33-8,50.1-5.7
	c7.1,1,13.7,4.1,18.1,9.8c4.2,5.4,7.9,4.6,13,1.8c6.1-3.4,12.6-6.4,19.2-8.6c16.2-5.5,38.6,0.8,48.2,12.8c4.1,5.1,8,10.6,12.9,15
	c5.9,5.2,7.5,11.6,7.7,18.8C479.8,568.3,479.9,573.2,480.1,579.4z M613,516.6c-13.5,16.5-27.7,29.9-46.5,36.6
	c-12,4.3-24.6,7.1-37.1,9.5c-7.9,1.5-14.4,4.1-20.4,9.9c-5.7,5.6-12.8,10.8-20.2,13.4c-8.4,3-12.9,7.2-14.9,15.8
	c-2.4,10.2-8.3,19-18.1,23.3c-9.2,4-18,9.6-28.6,9.4c-5.8-0.1-6.9,3.2-6.5,8.5c0.5,6.9,0.4,13.8,0,20.7c-0.8,14-5.5,18.8-19,20
	c-21.2,1.8-42-1.7-62.9-4.2c-9.4-1.1-17.9-4.8-24.9-9.2c-6.4-12.6-2.7-22.7,3.8-32.8c2.3-3.6,3-8.3,4.7-13.3
	c-5.8-1.2-9.9-1.8-14-2.9c-17.5-4.5-33.2-11.4-39.5-30.5c-1.8-5.5-2.8-11.5-6-16.1c-5.5-7.9-12.2-15-18.6-22.3
	c-17.6-20-31.4-41.7-33.2-69.3c-0.6-8.5-1.5-17-2.3-25c-9.3-4.3-18.3-8.4-28.4-13c-6,14.1-11.5,28.1-13.1,44.4
	c10.1-11.7,10.1-11.7,14.7-7.9c-4.3,5.9-7.5,13.1-13,17.3c-9.7,7.4-8.2,17.1-8.4,27.1c3.8-3.4,6.5-7.6,9.8-11
	c3.2-3.3,4.2-10.9,12-7.4c-5.6,8.4-11.6,16.1-16.2,24.6c-5.3,9.5-10.1,19.6-2.8,31.4c3.9-6.8,7-13.6,11.2-19.5
	c3.9-5.5,6.3-13.4,17.8-14.3c-3.6,5.2-6.2,8.5-8.3,12c-5.3,8.6-10.8,17.1-15.2,26.1c-1.9,3.8-2.6,9.5-1.2,13.3
	c5.1,13.8,12.4,26.5,23.3,37.2c10.5-28.1,14.1-32.9,27.9-34.5c-4,4-6.6,6.4-9,9.1c-7.8,9.2-12.8,19.8-12.6,31.9
	c0.2,8.9,8.3,12.5,14.5,17.1c0.3,0.2,0.7,0.2,1.8,0.5c2.4-6.5,4.5-13.1,7.3-19.5c2.3-5.3,5.2-10.4,8.5-15.2c1.7-2.5,4.6-4.3,8.2-0.2
	c-9.6,8.8-13.7,20.6-17.2,32.5c-1.1,3.8-1.2,9,0.6,12.2c3,5.2,7.9,9.2,13.2,14.9c3.2-9.8,5.2-18.2,8.7-25.9
	c3.2-7.1,3.9-16.6,14.4-20c-0.3,2.3,0,3.6-0.6,4.3c-8,10.1-10.4,22.5-14,34.4c-1.2,4-1.2,10.9,1.3,13c7.1,6.2,15.9,10.2,25.3,12.7
	c3.9-17.9,0-36.7,14.8-50.1c0.9,1.3,1.7,1.9,1.7,2.5c0,1.1-0.1,2.4-0.7,3.3c-8.2,11.9-8.1,25.8-9.7,39.3c-0.3,2.8,0.3,7.2,2.2,8.5
	c7.5,5.2,15.6,9.6,24.1,12c4.1-7.1-2-16.3,7.9-21.3c0.4,2.9,0.9,4.7,0.8,6.5c-1.8,22.9-1.7,16.7,16.8,23.6c7.4,2.7,15.7,5,23.3,1.7
	c3.3-4.2-2.9-12.6,7.1-12.6c0.3,4.9,0.7,9.6,1,14.3c5.7,0,9.9-0.1,14.2,0c4,0.1,8.1,0.4,11.3,0.5c3.4-5.8-1.6-13.8,7.3-15.5
	c1.3,5.1,2.4,9.8,3.8,15.4c10.4-1.4,19.8-2.7,29.3-3.9c0.4-6.1-3.1-12.1,4.8-15.9c0.4,5.4,0.6,9.7,1,15.1c27.9-4,54.3-9.5,79.9-19.7
	c-0.4-2.9-0.6-4.8-1-6.6c-3.4-12.8-6.9-25.6-10.2-38.4c-0.5-2,0.3-4.4,0.5-6.5c0.9,0,1.7-0.1,2.6-0.2c8.5,15.5,7.1,34.5,16.2,51.8
	c14.9-6.1,28.8-11.9,42.8-17.6c7.1-2.9,9.4-8.1,8.3-15.7c-1.9-13.5-3-27.1-4.6-40.6c-0.4-3.3,0-5.4,5.2-5.2c5.5,15.1,1,32,6.2,47.3
	c21.8-14.4,25.1-22.8,18.5-46.9c-0.6-2.3-1.3-4.5-1.7-6.8c-1-5.5-1.9-11.1-2.9-16.6c0.9-0.3,1.9-0.6,2.8-0.8
	c5.9,4.2,4.1,12,6.2,17.9c2.3,6.4,2.1,13.8,8,19.4c7.3-9.6,13.5-18.6,6.6-30.9c-2.2-4-3-8.8-4.2-13.3c-0.6-2.4-0.6-4.9-1-8.2
	c11,3.3,7,14.6,13.2,20.3c3.5-12.1,6.3-23.2-3.9-33c-1.3-1.3-0.8-4.3-1.4-8.3c3.9,2.2,5.7,3.2,8.8,5
	C624.3,541,619.9,529.3,613,516.6z M476.2,264.3c27.9-4.3,59.7-16.4,84.3-43.4c1-1.1,1.9-2.4,2.7-3.8c17.3-30.9,6.4-65.9-25.3-81.2
	c-2.5-1.2-4.9-2.4-7.3-3.8c-22.6-13.3-45-9.6-66.5,2.2c-9.4,5.2-17.7,12.6-26.2,19.5c-14.5,11.9-24.7,26.6-28.1,45.6
	c-2.7,15.6,4.1,37.5,15.4,48.7C437.3,260,452,265,476.2,264.3z M467.1,121.6c-1.7-8.3-7.3-11.8-12.3-13.5
	c-13.1-4.4-26-10.6-40.5-8.7c-2.7,0.4-5.5,0.9-8.1,0.6c-23.4-2.1-44.5,5.8-64.9,15.8c-5.8,2.8-11.6,7.3-15.1,12.6
	c-13.6,20.1-20.1,42.6-14.9,66.6c3.2,14.8,11.7,27.1,28.3,31c3.8,0.9,7.4,2.3,11,3.7c17.2,6.8,33.3,2.1,49.4-2.7
	c0-5.6-0.3-9.9,0.1-14.2c0.8-9.3-0.2-19.4,3.3-27.6c10.5-24.6,28.2-43.7,50.7-58.1C457.8,124.8,462.4,123.6,467.1,121.6z
	 M329.5,615.6c15.8,1.1,28.5-5.4,39.8-15c2.9-2.4,5.8-5.5,7.1-8.9c6.5-16.7,8.1-33.7,1.9-51.1c-3.8-10.6-11.1-16.2-22.2-18.1
	c-14.4-2.4-27.9,1.4-41.3,5.3c-15,4.4-26.1,13.6-33,27.7c-8.4,17.4-5.7,45.8,20.4,55.2C310.8,613.9,320.4,614.1,329.5,615.6z
	 M376.5,609.3c5.5,3.4,10.9,8.3,17.1,10c10.7,2.9,21.9,4.8,33,5.3c11.2,0.5,21.4-5.9,26.7-14.4c6.8-10.9,11.4-23.9,14-36.6
	c2.7-13.1-1.9-25.4-12.9-34.2c-1.8-1.5-4.2-2.4-5.6-4.2c-13.1-16.7-39.4-13.2-52.4-1.5c-4.8,4.3-6.6,7.6-5.4,14.7
	c2.3,13.2,4.6,26.9-3.7,39.6C383,594.7,380,602.2,376.5,609.3z M336.4,623.3c-3.7,9.8-7.1,18.8-10.4,27.9c-3,8.1-1.5,12.5,5.8,16.6
	c2.6,1.5,5.8,2.7,8.8,2.8c15.9,0.7,31.7,1.4,47.6,1.3c24.7-0.2,21.3-2.5,21-25.1c-0.1-8.4-3.8-14-13.2-16.5
	c-10.3-2.7-20.3-7.3-25.6-16C358.1,617.5,346.6,620.6,336.4,623.3z"/>
<path fill-rule="evenodd" clip-rule="evenodd" d="M656.5,592.3c1.7,0.8,3.6,1.2,4.9,2.3c29.8,25.8,65,38,103.8,40.3
	c22.9,1.4,45.9,1.4,68.8,3.1c9.1,0.7,17.1-3.1,26.1-3c9.6,0.2,19.3-2.1,28.8-4.1c9.1-2,18.1-4.5,26.9-7.7
	c11.7-4.2,23.2-9.1,34.6-14.1c16.7-7.4,24.8-20.1,24.5-38.7c-0.2-8.5-4.5-14.8-8.5-21.2c-4.2-6.7-10-12.3-14.6-19
	c-4.4-6.5-13.5-10.5-21.3-13.8c-13.2-5.7-26.9-10.2-40.6-14.7c-8.4-2.7-17.2-4.4-26.9-6.8c-0.4-2.5-0.9-5.7-1.7-10.5
	c7.7,2.1,14.1,3.3,20.2,5.5c24.8,9.1,49.5,18.6,72.3,32.2c9.1,5.4,17,11.9,22.7,21.3c4,6.6,9.6,12.3,15.2,17.7
	c10.3,10.2,10.3,19.4,0.4,30c-10.7,11.4-24.3,18.1-37.9,24.9c-35,17.6-72.9,24.9-111.3,29.6c-11.8,1.4-24.1-1-36.1-1.9
	c-21.3-1.6-42.7,0.6-63.9-3.4c-19.4-3.6-37.3-9.8-54.4-19.8c-10.4-6.1-20.9-11.8-29.6-20.3c-1.7-1.7-3-4-4.4-6
	C655.1,593.6,655.8,593,656.5,592.3z"/>
<path fill-rule="evenodd" clip-rule="evenodd" d="M789.8,496.8c7.9,0.9,15.9,1.3,23.7,2.7c14.5,2.6,29.1,5.1,43.3,8.9
	c12.8,3.4,24.8,8.8,35.1,17.7c14.4,12.4,13.5,24.8,7.1,38.3c-11.5,24.3-34.8,33.3-56.1,45c-3.9,2.1-9.1,2.2-13.7,2.4
	c-8.1,0.4-16.3-0.1-24.4,0.2c-15.1,0.6-30.3,1.5-45.4,2.3c-16.7,0.8-31.5-3.4-43.9-15.3c-8.5-8.1-16.9-16.1-22.4-27.1
	c5-8.9,9.2-18.4,20.9-25.1c-1.1,4.3-1.2,6.4-2.2,8c-1.9,2.9-4.5,5.4-6.5,8.3c-5.1,7.5-4.5,12.9,3,18c5.7,3.9,12,7.5,18.5,9.8
	c17.9,6.6,35.8,13.2,55.4,13.4c18.3,0.2,36.8,0.8,54.4-4.6c21.6-6.7,40.7-17.7,52.8-37.7c8.8-14.5,6.4-22.7-8-32.4
	c-2.9-1.9-6-3.7-9.2-4.8c-21.2-7.4-41.9-16.9-65-16.7c-1.5,0-3.2-0.1-4.4-0.8c-4.3-2.6-8.5-5.5-12.7-8.3
	C790,498.2,789.9,497.5,789.8,496.8z"/>
<path fill-rule="evenodd" clip-rule="evenodd" d="M758.4,528.7c15.7-10,28.3-5.6,40.4,1.8c6.1,3.8,6.4,10.4,1.8,16
	c-6.9,8.4-16,10.6-26,9.1c-6.7-1-13.3-3.4-19.9-6.3c14.2,1.3,27.4-1.6,40.3-6.2c0.3-5.3-1.2-8.1-6-8.8c-5.7-0.8-11.4-2.1-17-3.2
	C768,530.4,764.1,529.7,758.4,528.7z"/>
<path fill-rule="evenodd" clip-rule="evenodd" d="M31.5,666.8c8.1-7.6,106.8-46.7,115.9-46C108.8,636.1,70.2,651.4,31.5,666.8z"/>
<path fill-rule="evenodd" clip-rule="evenodd" d="M50.5,516.2c11.7-11.9,26.4-11.3,38.3-16.9c11.8-5.5,23.9-10.4,36.9-14.6
	c-1.2,1.4-2,3.5-3.5,4.2c-15.4,6.6-30.9,13-46.3,19.4c-6.4,2.7-12.7,5.4-19.2,7.9C55.5,516.6,54,516.2,50.5,516.2z"/>
<path fill-rule="evenodd" clip-rule="evenodd" d="M170.3,664.1c-19.7,12.1-41,19.8-64.1,22.8c1-0.9,1.9-2.2,3.2-2.6
	C129.6,677.6,149.9,670.9,170.3,664.1z"/>
<path fill-rule="evenodd" clip-rule="evenodd" d="M68.5,597.8c18-7.7,35.9-15.4,53.9-23.1c0.3,0.6,0.7,1.2,1,1.8
	c-0.6,0.8-1.1,2.1-1.9,2.4c-17.1,7.3-34.1,14.4-51.2,21.6C69.7,599.7,69.1,598.7,68.5,597.8z"/>
<path fill-rule="evenodd" clip-rule="evenodd" d="M125.5,528.2c-2.5,1.5-4.9,3.4-7.7,4.4c-14.8,5.5-29.6,10.8-44.9,15.1
	c15.6-11,35.4-11.9,51-22.8C124.5,526,125,527.1,125.5,528.2z"/>
<path fill-rule="evenodd" clip-rule="evenodd" d="M279.7,733.3c-13,5-26.1,10-39.1,15.1c11.2-9.9,24.3-14.8,38.3-17.5
	C279.1,731.7,279.4,732.5,279.7,733.3z"/>
<path fill-rule="evenodd" clip-rule="evenodd" d="M217.3,688.8c-11.1,10.2-25.5,10.7-38.9,14.1C191,697,204.2,692.9,217.3,688.8z"/>
<path fill-rule="evenodd" clip-rule="evenodd" d="M0.7,680.1c5.4-6,13.9-9.9,24.3-9.8c-8.2,3.2-16.3,6.4-24.5,9.5L0.7,680.1z"/>
<path fill-rule="evenodd" clip-rule="evenodd" d="M182.4,601.3c-6.1-12.1-1.8-30.2,9.5-40.8c3.3-3.1,7.8-5,11.9-6.9
	c1.1-0.5,3.1,1.3,6.8,3C188.1,564,186,582.6,182.4,601.3z"/>
<path fill-rule="evenodd" clip-rule="evenodd" d="M545.4,671.8c-6.2-15.9-3.7-33.7-14-48.4c0.7-0.6,1.4-1.2,2.1-1.8
	c2,0.9,5.3,1.5,5.7,2.8C543.2,639.9,548.8,655.2,545.4,671.8z"/>
<path fill-rule="evenodd" clip-rule="evenodd" d="M475.6,690.8c-5.7-13.4-6.4-29.1-20.1-39.5c4.4-2.6,7.9-4.1,10.1-0.4
	C472.8,663.1,478.2,675.9,475.6,690.8z"/>
<path fill-rule="evenodd" clip-rule="evenodd" d="M470.3,221.4c0.1,8.9-4,13.5-12.2,13.8c-10.1,0.3-18.9-6.9-18.7-15.3
	c0.2-8.2,6.6-14,15.6-14C463.9,205.8,470.2,212.2,470.3,221.4z"/>
<path fill-rule="evenodd" clip-rule="evenodd" d="M364.1,211c-3.3-0.8-6.8-1.3-10-2.6c-7.2-3-9.6-7.1-8.2-13.4
	c1.8-8,6.1-12,13.7-11.1c5.2,0.6,10.6,2.5,15.1,5.1c4.3,2.5,5.4,10.4,3.2,14.9C375.2,209.8,370.1,211.1,364.1,211z"/>
<path fill-rule="evenodd" clip-rule="evenodd" d="M338.1,581.6c5.2,0,11.5,5.2,11.6,9.6c0.1,5.1-7,10.3-13.7,10.2
	c-6.2-0.1-11.2-4.4-11.1-9.6C325,585.9,330.5,581.7,338.1,581.6z"/>
<path fill-rule="evenodd" clip-rule="evenodd" d="M414.8,608.4c-4.8-0.2-7.7-3.2-7.8-8.2c-0.1-6.5,5.8-12.4,11.8-11.9
	c4.6,0.4,11.3,5.3,11.5,8.5C430.5,602.2,421.8,608.7,414.8,608.4z"/>
<path fill-rule="evenodd" clip-rule="evenodd" d="M383.3,646c-4.1,1.2-7.8,3-10.1-2.1c-2.5-5.7-2.4-10.9,2.8-16
	C382,633,381.4,639.8,383.3,646z"/>
<path fill-rule="evenodd" clip-rule="evenodd" d="M347.2,633.4c3.9-1,9.1-2.9,9.4-2.3c1.9,3.9,4.1,8.4,3.6,12.4
	c-0.5,3.4-5,3.4-7.3,0.5C350.7,641.4,349.6,638.1,347.2,633.4z"/>
</svg>
