<?xml version="1.0" encoding="utf-8"?>
<!DOCTYPE svg PUBLIC "-//W3C//DTD SVG 1.1//EN" "http://www.w3.org/Graphics/SVG/1.1/DTD/svg11.dtd">
<svg artist="zl2017" version="1.1" id="zlIcon-science-chemical-liquid" xmlns="http://www.w3.org/2000/svg" xmlns:xlink="http://www.w3.org/1999/xlink" x="0px" y="0px"
	 width="1000px" height="1806.9px" viewBox="0 0 1000 1806.9" enable-background="new 0 0 1000 1806.9" xml:space="preserve">
<path fill-rule="evenodd" clip-rule="evenodd" d="M155.7,981c-5.9,7.1-16.4,13.9-16.8,21.3c-1.7,32.9-1.2,65.9,0,98.8
	c0.6,14.8,8.1,24,26,22.5c34.4-3,69.1-3.5,103.6-6.5c50.3-4.3,100-2.5,150.3,3.3c40.4,4.7,81.8,1.4,122.8,1.2
	c16.1-0.1,25.9,5.9,32.8,21.6c14.7,33,13.1,68.3,17,102.7c1.9,16.5-8.6,25.5-25.4,25.1c-19.8-0.4-39.7-0.3-59.4-1.9
	c-13.9-1.1-22.2-10.6-25.1-24.1c-0.9-4.1,0.3-8.7-0.5-12.8c-2.6-13.8-4.1-23.1-25.2-18.8c-36.1,7.4-73.7,8-110.7,11.2
	c-57.5,5-115,11.1-172.7,14.3c-31.5,1.8-63.6,0.6-95-2.9c-28-3.1-46.6-30.4-49.2-67.4c-3.4-49.2-4.2-98.4,4.1-147.4
	c3.2-19.1,5-38.6,7.1-57.9c2.2-19.2,15.2-35.3,34.1-38.6c20-3.6,40.3-5.2,61.7-7.8c-3.1-18-4.2-37.8,24.3-41.4
	c-8.7-18.5-15.1-35.3-24.1-50.7c-6.7-11.5-1.3-16.3,7.7-18.6c31.9-8.3,64-15.7,96-23.4c15-3.6,19.4,5.4,16.5,16.8
	c-3.3,13.3-10.3,25.7-15.3,38.6c-3.5,8.9-6.2,18.1-9.8,28.6c11.5,1.9,23.2,0.5,29.2,5.7c5.7,5,5.4,16.9,8.1,27.2
	c13.9-2.9,30.2-6.4,44.4-9.3c-4.3-40.3-9.3-78-11.9-115.9c-1.8-26.4-1.1-53.1,0.2-79.6c1.4-28.2,4.8-56.4,7.4-84.5
	c4.1-43.9,26.9-79.3,51.7-113.8c22.3-31.1,53.9-50.5,86.3-68.5c28.6-15.9,58.4-29.7,86.9-45.8c6.3-3.5,12.3-12.2,13.5-19.3
	c13.8-78.4,6.1-157,1.8-235.6c-1.2-22.5-2.6-45-4.7-67.4c-1.3-14.3-4.9-28.4-5.8-42.8c-0.3-5.5,4-11.2,6.1-16.9
	c4.8,3.1,13.2,5.6,13.8,9.3c3.7,26.1,5.9,52.5,8.2,78.8c2,22.7,3.7,45.4,5.2,68.1c2.9,43.7,8.9,87,3.2,131.4
	c-3.7,28.5,0.3,58.4,4,87.2c1.6,12.3-1.2,14.5-11.2,19.1c-53.6,25.1-111.8,41.9-156.9,82.7c-31.3,28.4-52.6,63.2-70.7,102
	c-23,49.5-12.3,101-22.6,156.2c22.8,3.8,44.3,12.2,64.5,9.8c36.1-4.4,66-25.3,90-52.1c11.9-13.2,16-7.7,22.1,3.3
	c24.1,43.9,48,54.6,99.1,47c37.5-5.5,69-23.1,98.4-45.3c7-5.3,11.9-13.3,19.4-21.9c25.8,25.5,50.1,55.4,91,52.2
	c39.2-3,68.1-24.3,90.3-58.4c19.2,16.9,37.6,33,56,49.2c1.5-0.7,3.1-1.3,4.6-1.9c-1.9-33.3-0.6-67.3-6.6-99.9
	c-4.7-25.6-18.6-49.5-28.1-74.3c-5.3-13.9-15.5-17.1-29.1-14.9c-4.3,0.7-9-1.3-18.7-2.9c10.3-4,15.6-6.1,23.3-9.1
	c-18.1-16.3-34.8-32.8-53-47.3c-32.7-25.9-69.6-44.5-109.5-56c-18.3-5.3-37.8-5.9-56.6-9.6c-4.7-0.9-10.4-4.3-12.7-8.3
	c-12.7-21.9-18.9-45.1-13.8-70.9c6.9-34.6,0.1-68.7-3.6-103.2c-3.8-36-0.7-72.8-0.1-109.2c0.5-30.2,1.5-60.3,2.8-90.5
	c0.2-4.8,2.6-10.5,5.9-13.8c2.7-2.7,8.4-2.5,12.7-3.6c1.3,5.3,3.6,10.6,3.7,15.9c0.7,46.1,0.3,92.1,1.5,138.2
	c1.2,45.8,3.4,91.5,5.9,137.3c1.7,29.9,4.9,59.7,7.2,86.9C730.1,396,772,410,814.4,422c42.6,12,74,38.8,99.5,72.9
	c27.9,37.2,46.3,79.4,52.6,125.5c7.3,53.9,11.5,108.5,3.4,162.7c-6.4,43.1-12.9,86.6-42.2,122.6c-29.6,36.5-56.8,76-99,98.6
	c-32.9,17.6-68.8,29.5-103.3,44.2c-49.6,21.3-102.3,22.5-154.1,18c-48-4.2-97.8-5.6-142.4-27.1c-17.6-8.4-31.4-24.6-47.2-36.8
	c-4.8-3.7-10.5-8.1-16-8.5c-30.5-2-61-3-91.6-3.9c-4.4-0.1-11.5,1.3-13,4.2c-8.7,17.6-25,14.4-39.6,15.5c-7.2,0.5-14.6-1-21.8-0.2
	c-20,2.5-34.9-2.1-37.4-26.7C160.2,982.3,157.9,981.7,155.7,981z M318.6,746.9c3.4,35.4,5.5,66.8,9.8,97.9
	c2.3,16.3,7.1,32.6,12.9,48c9.5,25,25.3,45.9,41,67.8c31.6,44,67.9,72.7,122.3,77.2c12.1,1,24.5,1.8,36.3,4.9
	c44.7,11.6,89.9,8.6,133.9-0.2c54.4-10.9,106.1-30.7,152.6-63c33.1-23,65.2-48.5,82.5-83.8c19.4-39.7,38.4-80.9,40.6-127.5
	c0.9-19.6,0.9-34-20.3-40.6c-2.8-0.9-5.1-3.3-7.5-5.2c-9.8-7.6-20.2-22.2-29.1-21.3c-11.3,1.2-21.5,14.7-31.8,23.3
	c-31.7,26.5-92,28.1-121.4,4c-9.3-7.7-18.9-15-28.4-22.6c-37.3,27-75.7,49.9-121.4,54.4c-31.6,3.1-63.9,3.2-89.5-21
	c-8.2-7.7-14.7-17.3-22.3-26.5C431.1,746,384.9,784.7,318.6,746.9z M549,1144c-12.1,1-21.9,1.6-31.5,2.8c-19.7,2.5-39.4,7.3-59,7.5
	c-23.4,0.2-46.8-5.6-70.1-5c-72.5,1.8-145,4.8-217.4,8.4c-29.6,1.5-44.2-4.6-48.3-24.3c-9.1-44-9.9-88.5-5.9-133.1
	c1.4-15.6,9-28.6,25.6-31.8c14.4-2.8,15.2-9.9,6.7-18.1c-6.6-6.3-16.1-10.6-25.1-13.2c-6.6-1.9-14.4,1-21.7,1
	c-22.8,0.1-35.2,8-41.4,29.9c-3.7,13.3-6.8,27.4-6.4,41c1.6,54.7,2,109.7,8.1,164c4.2,37.1,12.6,54.9,60,48.8
	c53.1-6.7,106.1-14.6,159.3-20.1c47.7-5,95.7-7.7,143.5-11.1c10.2-0.7,21,2.3,30.9,0.3c46.1-9.3,49.3-7.3,54,41.1
	c0.3,3-0.4,6.9,1.2,9c2.9,3.7,7.3,9.1,11,9.1c14.9-0.1,29.8-2,46.9-3.4C554.5,1211.7,581.4,1170.8,549,1144z M156.5,893
	c6.2,24.1,10.8,47.7,18.7,70.2c3.4,9.9,6.5,24.3,21.9,24.6c8.5,0.2,17.1-0.9,25.5-2.1c9-1.3,15.5-4.6,16.1-16
	c1.4-27.4,4.1-54.7,6.4-84.4C215.8,887.9,187.3,890.3,156.5,893z M321.8,904c-17.7,6.8-34.3,12.6-50.2,19.8c-4.4,2-8.9,8.1-9.7,12.9
	c-2.1,12.3-2.1,24.9-2.8,36.1c31,0,62,0,94.2,0C342.4,948.9,332.6,927.6,321.8,904z"/>
<path fill-rule="evenodd" clip-rule="evenodd" d="M833.1,1382.1c14,5.3,18.1,13.1,16.9,25.1c-2.2,23-3.4,46.1-5.3,72.4
	c32.2,0,63.5,0.9,94.7-0.3c33.1-1.3,39.8,4.3,31.6,36c-8.5,32.6-19.1,64.7-29.4,96.8c-11.7,36.4-23.8,72.8-36.3,108.9
	c-21.5,62-43.5,77.3-109.1,76.1c-66.1-1.2-132.1-3.9-198.2-3.6c-43.8,0.2-87.6,5-131.4,6.8c-31.9,1.3-63.8,0.4-95.7,1.5
	c-14.8,0.5-29.4,5-44.1,5c-30.2,0.1-60.8,0.9-90.6-3.1c-32.7-4.4-49.8-28-57.9-59c-21.6-82.1-43.5-164-65.3-246
	c-1.9-7-3.4-14.2-5.5-21.1c-5.7-19-2.6-17.6,14.5-24.2c40.4-15.8,77.9,3.1,116.7,4.7c42.3,1.8,85.3,0.9,126.8,8
	c34.2,5.9,67.7,3.6,101.6,4.8c62.7,2.1,125.3,5.2,188,6.8c52.4,1.4,104.9,0.6,157.3,2.1c18.1,0.5,16.5-12.9,17.2-22
	c1.6-19.8,0-39.9,0.2-59.9C829.9,1393.2,831.7,1388.5,833.1,1382.1z M821,1692.7c2.1-66.5,4.1-132.4,6.2-198.3
	c-23.1,0.4-43.2,1.3-63.2,1.1c-43.1-0.4-86.3-1.2-129.4-1.9c-60.3-0.9-120.7,0-180.9-3c-102.8-5.1-205.5-12.4-308.2-19.1
	c-12.8-0.8-17,3.2-13.4,15.8c16.2,57.1,31.9,114.4,48.1,171.5c5.7,20,15.9,28.6,36.3,24.9c22.9-4.2,45.6-11.4,67.2-20.3
	c19-7.9,36.3-20,54.5-30.3c4.6,9.6,6.6,16.6,10.8,22c26.5,34.2,64.8,34.6,102.6,33.1c31.2-1.2,57.2-19.1,84.3-32.3
	c10.7-5.1,15.5-2,19.5,7.6c7.3,17.6,22.3,25.8,39.7,28.1c52,6.8,98.8-9.1,141.6-36.9c12.2-7.9,19.3-4.5,23.5,4.6
	C772.6,1686.3,795.7,1690.6,821,1692.7z M193.2,1697.5c4.9,17.3,7.8,32.7,13.6,47.1c6.7,16.6,8.1,38.5,30.1,43.7
	c15.8,3.8,32.6,6.6,48.6,5.4c31-2.4,61.6-9.3,92.6-11.8c30.6-2.5,61.5-2.2,92.3-2.5c52.6-0.4,105.2,0.5,157.8-0.6
	c60.1-1.2,120.1-3.6,180.1-6.3c16.7-0.8,38.8,1.1,48.8-8.4c15.7-15,23.2-38.5,34.3-58.4c-1.7-1.3-3.4-2.5-5.1-3.7
	c-12.2,3.1-24.4,6.3-35,9c-8.7,13.8,5.7,39-16.4,40.5c-33,2.3-15.3-24.1-14.9-37.8c-15.8-5.7-30.5-8.8-42.9-16
	c-12.5-7.3-22.6-18.8-34.1-28.7c-34.3,22.6-72.6,36.6-115,39.1c-31.6,1.9-60.8-1.8-82.6-28.8c-2.7-3.3-11.8-4.2-16.6-2.4
	c-21.3,8-41.4,20.3-63.2,25.8c-49.1,12.4-94.5,3.6-130.9-34.3c-7.7-8-13.5-6.4-21.4-2.1C276.3,1685.9,239.9,1707.7,193.2,1697.5z
	 M893,1689.2c2-4.1,4.7-8.3,6.3-12.8c18.1-52.1,36-104.3,54.1-156.5c4.1-11.9-0.9-20.9-12.1-21.7c-30.6-2.1-61.3-2.1-93.7-3
	c0.4,68.1,0.8,132.9,1.2,197.7C864.6,1691.6,877.9,1690.5,893,1689.2z"/>
<path fill-rule="evenodd" clip-rule="evenodd" d="M558.7,1416.2c-10.3-3-26.8-5.8-41.5-12.4c-20.9-9.4-25.3-34.7-12.7-56
	c7.9-13.5,14.6-27.7,21.3-41.8c6-12.7,29.8-17.3,36.4-5.8c13,22.6,25.8,45.4,36.5,69.1C609.5,1393.3,591.4,1417.3,558.7,1416.2z
	 M550.9,1311c-7.5,11.3-12.7,19.5-18.3,27.5c-15.5,22-8.9,44.6,12.4,57.3c8.9,5.3,25.5,0.9,37.1-3.3c3.3-1.2,4.7-18.4,1.4-25.6
	C574.6,1348.1,562.5,1330.6,550.9,1311z"/>
<path fill-rule="evenodd" clip-rule="evenodd" fill="#FFFFFF" d="M318.6,746.9c66.3,37.9,112.5-0.9,160-34.2
	c7.7,9.2,14.2,18.8,22.3,26.5c25.5,24.2,57.9,24.1,89.5,21c45.7-4.4,84-27.4,121.4-54.4c9.5,7.5,19.1,14.9,28.4,22.6
	c29.4,24.1,89.7,22.5,121.4-4c10.3-8.6,20.5-22.1,31.8-23.3c8.9-0.9,19.3,13.7,29.1,21.3c2.4,1.9,4.7,4.3,7.5,5.2
	c21.2,6.5,21.3,21,20.3,40.6c-2.2,46.6-21.2,87.8-40.6,127.5c-17.2,35.4-49.3,60.9-82.5,83.8c-46.5,32.3-98.1,52.1-152.6,63
	c-44,8.8-89.1,11.8-133.9,0.2c-11.7-3-24.1-3.8-36.3-4.9c-54.4-4.4-90.7-33.2-122.3-77.2c-15.8-21.9-31.6-42.8-41-67.8
	c-5.8-15.5-10.6-31.7-12.9-48C324.2,813.7,322,782.3,318.6,746.9z"/>
<path fill-rule="evenodd" clip-rule="evenodd" fill="#FFFFFF" d="M549,1144c32.4,26.8,5.5,67.6,20.4,102.6
	c-17.1,1.4-32,3.3-46.9,3.4c-3.7,0-8.1-5.3-11-9.1c-1.6-2-0.9-5.9-1.2-9c-4.6-48.3-7.8-50.4-54-41.1c-9.9,2-20.6-1-30.9-0.3
	c-47.9,3.3-95.8,6.1-143.5,11.1c-53.2,5.6-106.2,13.4-159.3,20.1c-47.4,6-55.8-11.8-60-48.8c-6.1-54.3-6.5-109.3-8.1-164
	c-0.4-13.6,2.6-27.7,6.4-41c6.2-21.9,18.5-29.8,41.4-29.9c7.3,0,15.1-2.9,21.7-1c9,2.5,18.5,6.8,25.1,13.2
	c8.5,8.1,7.8,15.3-6.7,18.1c-16.5,3.2-24.1,16.2-25.6,31.8c-4.1,44.6-3.2,89.1,5.9,133.1c4.1,19.7,18.6,25.8,48.3,24.3
	c72.4-3.6,144.9-6.6,217.4-8.4c23.3-0.6,46.7,5.2,70.1,5c19.7-0.2,39.3-5,59-7.5C527.1,1145.6,536.8,1145,549,1144z"/>
<path fill-rule="evenodd" clip-rule="evenodd" fill="#FFFFFF" d="M156.5,893c30.8-2.7,59.3-5.2,88.6-7.8c-2.4,29.7-5,57-6.4,84.4
	c-0.6,11.4-7,14.7-16.1,16c-8.4,1.2-17,2.3-25.5,2.1c-15.4-0.3-18.4-14.7-21.9-24.6C167.3,940.8,162.6,917.1,156.5,893z
	 M182.8,911.3c-12.6,13.4-5.7,24.9-1.7,35.8c1.2,3.3,6.7,4.9,13.2,9.3C189.8,939.1,186.7,926.7,182.8,911.3z"/>
<path fill-rule="evenodd" clip-rule="evenodd" fill="#FFFFFF" d="M321.8,904c10.8,23.6,20.6,44.9,31.6,68.7c-32.2,0-63.2,0-94.2,0
	c0.7-11.1,0.7-23.8,2.8-36.1c0.8-4.8,5.3-10.8,9.7-12.9C287.5,916.6,304.1,910.8,321.8,904z"/>
<path fill-rule="evenodd" clip-rule="evenodd" fill="#FFFFFF" d="M193.2,1697.5c46.6,10.3,83.1-11.5,120-31.3
	c7.9-4.2,13.7-5.9,21.4,2.1c36.4,37.9,81.8,46.7,130.9,34.3c21.8-5.5,41.9-17.7,63.2-25.8c4.7-1.8,13.9-0.9,16.6,2.4
	c21.8,27,51,30.6,82.6,28.8c42.4-2.5,80.7-16.5,115-39.1c11.5,10,21.6,21.4,34.1,28.7c12.3,7.2,27.1,10.3,42.9,16
	c-0.4,13.8-18.1,40.2,14.9,37.8c22.2-1.6,7.7-26.7,16.4-40.5c10.6-2.7,22.8-5.9,35-9c1.7,1.2,3.4,2.5,5.1,3.7
	c-11,19.9-18.5,43.5-34.3,58.4c-10,9.5-32,7.6-48.8,8.4c-60,2.7-120.1,5.1-180.1,6.3c-52.6,1.1-105.2,0.2-157.8,0.6
	c-30.8,0.3-61.6,0-92.3,2.5c-31,2.5-61.6,9.4-92.6,11.8c-16,1.2-32.8-1.6-48.6-5.4c-21.9-5.3-23.3-27.2-30.1-43.7
	C201.1,1730.2,198.1,1714.7,193.2,1697.5z"/>
<path fill-rule="evenodd" clip-rule="evenodd" fill="#FFFFFF" d="M550.9,1311c11.7,19.6,23.7,37.1,32.6,56
	c3.4,7.2,1.9,24.4-1.4,25.6c-11.6,4.2-28.1,8.6-37.1,3.3c-21.4-12.7-27.9-35.3-12.4-57.3C538.1,1330.5,543.3,1322.3,550.9,1311z"/>
<path fill-rule="evenodd" clip-rule="evenodd" d="M182.8,911.3c3.9,15.4,7.1,27.8,11.5,45.1c-6.5-4.4-12-6.1-13.2-9.3
	C177.1,936.2,170.2,924.7,182.8,911.3z"/>
</svg>
