<?xml version="1.0" encoding="utf-8"?>
<!DOCTYPE svg PUBLIC "-//W3C//DTD SVG 1.1//EN" "http://www.w3.org/Graphics/SVG/1.1/DTD/svg11.dtd">
<svg artist="zl2017" version="1.1" id="zlIcon-scissors" xmlns="http://www.w3.org/2000/svg" xmlns:xlink="http://www.w3.org/1999/xlink" x="0px" y="0px"
	 width="1000px" height="888.3px" viewBox="0 0 1000 888.3" enable-background="new 0 0 1000 888.3" xml:space="preserve">
<path fill-rule="evenodd" clip-rule="evenodd" d="M495.3,571.7c-23.9,5.1-46.3,9.7-68.5,14.8c-15.4,3.5-30.7,7.5-45.9,11.9
	c-30.4,8.9-60.7,17.8-90.8,27.5c-21.8,6.9-43.2,15-64.7,22.6c-2.1,0.7-4.2,1.3-6.4,1.7c-8.2,1.8-16,4.5-23.6,8
	c-10.4,4.8-21.2,8.4-31.8,12.8c-16.2,6.7-32.6,13.1-48.6,20.3c-14.8,6.7-28.8,15.1-42.1,24.4c-6.7,4.6-13.3,6.4-21,3.9
	c-3.3-1.1-6.8-1.9-10.1-2.9c-11-3.1-22.1-5.8-33.7-5.2c-2.1,0.1-4.4-0.3-6.4-1.1c-0.7-0.2-1.2-2.3-0.9-3.4c0.2-1.1,1.3-2.3,2.3-3
	C31.4,686.1,60,668,88.6,649.9c22.9-14.6,45.8-29.3,68.8-43.9c4.1-2.6,8.6-4.3,12.8-6.8c16.5-10.1,32.9-20.3,49.3-30.7
	c12.6-8,24.8-16.7,37.6-24.4c12-7.2,24.5-13.6,36.8-20.3c20.4-11.3,40.7-22.6,61-34c2.3-1.3,4.3-3,6.7-4.3
	c7.9-4.1,12.6-10.7,15.1-19.1c0.8-2.5,1.7-4.9,2.4-7.2c-9.1-16.8-21.5-30.2-35.9-42.1c-4-3.3-6.9-7.9-10.9-11.4
	c-18.5-16.3-37.2-32.3-55.7-48.5c-8.6-7.5-17.1-15.2-25.3-23.1c-14.6-14-28.5-28.8-43.7-42.1c-11.5-10.2-23-20.4-33.9-31.2
	c-19.3-19.2-41.4-35.3-59.2-56.2c-5.8-6.9-12.6-13.3-20.2-18.6c-7.1-5-12.8-12-19.5-17.6c-6.7-5.6-13.9-10.8-20.9-16.1
	c-3.2-2.4-6.6-4.4-9.6-7c-3.1-2.8-2.5-8.1,1.2-10.2c2.6-1.4,5.7-2.4,8.6-2.5c4.3-0.3,8.9-0.2,13.1,0.7C81,136,95.1,135.5,109,137
	c5.3,0.5,10.3,2.2,14.6,5.7c22.8,18.7,47.5,34.8,71.5,51.9c13.2,9.4,26,19.5,39.1,29.1c7.1,5.2,14.3,10.2,21.4,15.4
	c23.4,17.2,46.8,34.5,70.2,51.6c24.2,17.6,48.5,35.1,72.7,52.7c18.5,13.6,38.7,24.3,59.5,33.8c6.7,3,14.4,3.7,21.1,5.4
	c8.2-5,15.8-9.4,23.1-14.3c11.3-7.7,23.6-11.2,37.2-10.9c10.2,0.3,18.8,3.4,26.4,10.2c3.3,2.9,6.8,5.6,10.4,8.1
	c8.6,6.1,17.9,7.1,27.6,3.3c4.1-1.6,8.3-3.4,11.6-6.1c11.6-9.4,22.8-19.3,31-32c2.8-4.4,4.6-9.4,7-14.3c-2.8-3.9-5.5-7.3-7.7-11
	c-3.5-5.7-3.5-11.5,0.3-17.4c4-6.1,9.2-10.8,15.1-14.5c5.8-3.6,10.2-8.4,14-13.7c7.1-9.6,14-19.2,19.2-30
	c5.4-11.2,9.9-22.4,9.8-35.1c0-8.3,0.5-16.9,2.6-24.8c2.9-10.8,5.4-21.7,11.7-31.8c10.8-17.4,26.3-29.5,42.4-41.1
	c12.9-9.2,25.9-18.3,37.6-28.9C814,64.1,828.9,49,840.2,31c3.5-5.6,7.2-11,10.7-16.6c5.8-9.5,15.3-12.8,25.5-14.2
	c5.2-0.7,9.4,3.1,9.5,8.6c0,4.8-0.3,9.7-1.2,14.4c-1.7,9.3-1.4,18.3,1.7,27.2c1.4,4.1,2.2,8.5,3.5,12.7c0.8,2.4,2.1,4.6,3.5,7.6
	c19-4.9,37.7-9.8,57-5.4c1.3,3.3,0.9,6-2.5,6.3c-4.8,0.5-9.6,0.4-14.5,0.3c-10.9-0.2-20.8,3.2-30.4,7.8c-1.5,0.7-2.8,2-4.6,3.3
	c1.7,6.2,4.5,11.3,9.1,15.7c7.5-2.3,14.5-4.9,21.7-6.6c6.8-1.6,13.8-2.4,20.7-3.3c0.9-0.1,3,1.3,2.9,1.7c-0.2,1.6-0.9,3.9-2,4.3
	c-2.4,0.9-5.1,0.8-7.7,1.1c-10.6,1.3-20.7,3.9-29,11.6c2.5,7.2,8.2,11.6,14,15.2c2.3,1.4,5.9,1.2,8.8,1c7.9-0.4,15.8-1.3,23.6-1.9
	c1.6-0.1,3.2,0.6,5.3,1.1c-0.6,2.2-1.1,3.8-1.5,5.4c-6.2,2.7-13.6-0.7-19.3,5.1c2.9,5.7,8.4,8.8,13.5,11.5
	c10.4,5.5,18.2,13.7,25.3,22.6c3,3.8,6.4,7.2,9.5,10.9c7.8,9.4,7.8,15.1,0.6,24.6c-2.9,3.8-5.8,7.8-8.1,12
	c-16.9,30.7-38,58.2-64.3,81.4c-20.1,17.7-41.7,33.6-65.5,46.3c-13.6,7.3-27,14.8-40.3,22.5c-16,9.3-33.3,15.7-50.1,23.5
	c-11.9,5.5-24,10.9-36.1,16c-9,3.7-18.5,6.1-28.3,4.3c-4.7-0.9-9-0.2-12.7,1.8c-20.2,10.9-39.5,23.3-53,42.5
	c-4.3,6-7.6,12.8-11.6,19.6c2.5,3.3,4.4,6.2,6.7,8.7c3.6,3.9,7.4,7.6,11.3,11.1c12.1,10.9,18.1,25.8,25.5,39.7
	c2.3,4.2,4.5,8.4,7.1,13.5c7.6-4.4,15.4-3.7,23.2-3.5c9.7,0.2,19.2-0.7,28.9-1.7c11.3-1.2,22.8-1.1,34.1-0.2
	c18.8,1.5,37.5,4.3,56.3,6.3c21.9,2.3,42.8,8.4,63.5,15.8c27,9.7,51.6,24.4,77.4,36.7c5.5,2.6,10.6,6.4,15.3,10.4
	c7.4,6.2,11.5,14,10.6,24.2c-1.9,25.1-7.3,49.5-16.2,73.1c-1.2,3.3-2.6,6.5-3.7,9.8c-0.4,1.3-0.5,2.6-0.7,3.8c7,5.1,14-3.7,21-0.4
	c0.5,4.1-1.4,6.5-4.4,7.8c-4,1.7-8.2,3.1-12.5,4.2c-6.7,1.7-11.8,4.5-14.6,11.7c-3,7.7-7.8,14.7-12.2,22.6c2.4,0.9,4.4,2.1,6.3,2.2
	c8.8,0.4,17.6,0.9,26-2.7c1.2-0.5,2.6-1,3.8-0.8c1.1,0.1,2.6,0.9,3.1,1.8c0.5,0.9,0.3,2.7-0.3,3.6c-2.7,3.9-7.2,5.2-11.4,6
	c-10.3,2-20.8,4.1-31.2,4.7c-6.5,0.4-11,2.3-14.1,7.7c-4.1,7.3-10,13.3-16,19.1c-1.1,1.1-1.9,2.6-3.4,4.7c12.2,5,23.8,8.6,36,10
	c2.2,0.2,4.7,0.2,6.3,1.3c1.3,0.9,1.6,3.4,2.6,5.8c-10.7,1.9-20.2,0.4-29.7-1c-9.5-1.3-19.2-2.1-29.9-3.2c-3.9,3.2-8.4,7.2-13.2,11
	c-9,7.1-17.9,14.1-27.1,21c-10.6,7.8-21.4,15.3-32.1,23c-1.4,1-2.7,2.3-4.3,3c-17.3,7.2-19.6,7.3-30.3-6.6
	c-11.1-14.3-23.3-27.5-36.8-39.5c-17.2-15.1-33.6-31.1-48-48.8c-9.1-11.1-19.9-21.4-24.8-35.5c-2.4-7-5-14.1-6.5-21.4
	c-3-14.2-4.8-28.6-7.8-42.8c-4.2-19.5-11.2-37.9-21.4-55.1c-4-6.7-7.7-13.7-6-22c-12.5-5-25.2-7.5-37.7-8.1
	c-11.7-0.6-23.6,1.5-35.3,3.6c-9,1.6-16.4,0.3-23.3-5.6c-7.4-6.2-15-12.2-22.6-18.2C506,579.5,500.6,575.7,495.3,571.7z"/>
<path fill-rule="evenodd" clip-rule="evenodd" fill="#FFFFFF" d="M914,671.7c0.8-13.5-4.8-28-18.9-38.8c-2.1-1.6-3.7-3.9-5.8-5.3
	c-5.7-4-11.5-8.2-17.6-11.4c-14.6-7.8-30.6-10.8-46.7-13c-8.3-1.1-16.6-0.4-24.9,0.4c-28.7,2.6-48.6,18.7-64.7,40.9
	c-0.8,1.1-1.5,2.2-1.9,3.5c-7.1,18.3-10.6,36.9-5.6,56.5c3.2,13.1,9.9,24.4,16.9,35.5c4.3,7,10.8,11.7,18.5,14.2
	c8.8,2.9,17.7,5.3,26.7,7.3c14.8,3.4,29.7,1.3,44.5-0.3c7.1-0.8,13.8-2.6,20.2-5.6c13-5.9,24.1-14.2,34.4-24
	C904.9,716.3,913.8,698,914,671.7z"/>
<path fill-rule="evenodd" clip-rule="evenodd" fill="#FFFFFF" d="M896.9,216.3c-0.9-8.3-1.1-16.7-3-24.7c-5-21.6-16.1-39.1-34.2-53
	c-17.5-13.4-36.4-16.8-57.1-13.5c-6.3,1-13.1,3.1-18.4,6.6c-18,11.9-29.5,28.2-32.2,50.3c-1.2,9.7-0.9,19.2,0.4,28.8
	c3.4,25.5,14.9,46.6,35.2,62.5c16.8,13.2,35.7,18.6,56.9,13.4c5.9-1.4,11.7-3.5,17.5-5.4c13.5-4.3,21.9-14.1,27.7-26.4
	C895.3,242.7,897.1,229.8,896.9,216.3z"/>
<path fill-rule="evenodd" clip-rule="evenodd" fill="#FFFFFF" d="M25.7,703.1c5.3,1.5,8.6,2.3,11.9,3.5c11.9,4.1,23.1,2.6,34.3-3.1
	c16.8-8.6,33.8-16.7,51-24.6c14.3-6.6,28.8-12.9,43.4-18.7c13.5-5.3,27-11.1,41-14.4c14.3-3.3,27.8-8.6,41.2-13.7
	c28.7-11,58.1-20,87.5-28.7c19.4-5.7,38.9-11,58.3-16.8c22.7-6.8,45.9-11.8,69.3-16.1c11.2-2.1,22.5-4,33.5-7
	c28.1-7.7,54.5-19.6,79.5-34.5c3.4-2,6.9-3.8,10.4-5.6c9.1-4.5,15.9-11.2,19.4-20.7c3.4-9,6.2-18.3,8.9-27.5
	c4-13.6,9.4-26.6,19.7-36.7c6.3-6.1,13.2-11.6,20.1-17c12.4-9.7,24.9-19.2,37.7-29.1c-1.6-21.6-10.9-38.4-28.2-50.7
	c-14.1,12.2-27.5,24.3-41.5,35.6c-16.7,13.4-35.2,14.6-54.5,5.8c-7.1-3.3-14.3-6.8-21.4-10.2c-13.4-6.4-27.1-4.6-39.5,1.4
	c-12.1,5.9-23.1,14.3-34.4,21.9c-11.7,7.8-22.9,16.4-34.9,23.6c-11,6.6-21.3,13.8-31.5,21.5c-10.6,8.1-17.5,18-23,29.8
	c-3.9,8.4-9.1,16.1-14,23.9c-1.3,2.1-3.6,3.9-5.8,5.2c-22.5,13.7-44.3,28.6-68.1,40.2c-9.1,4.4-18.2,8.9-27,13.6
	c-10.8,5.8-21.5,11.9-32.2,18c-19.8,11.4-39.5,22.9-59.3,34.4c-0.4,0.2-0.7,0.5-1.1,0.8c-17.1,11.6-34.4,22.7-52.6,32.5
	c-3.5,1.9-7.1,3.5-10.5,5.5c-21.2,13.3-42.4,26.5-63.5,40C42.3,690.4,35.2,696.2,25.7,703.1z"/>
<path fill-rule="evenodd" clip-rule="evenodd" fill="#FFFFFF" d="M639.2,622.8c1.7,3.4,2.8,6.3,4.5,8.8
	c9.5,13.9,15.6,29.5,22.6,44.6c3.4,7.2,5.1,14.9,5.6,22.9c0.7,10.5,1.5,21.1,2.6,31.6c1.2,11.1,4.7,21.4,11.9,30.2
	c2.8,3.4,5.2,7.1,7.7,10.7c15.3,21.6,33.7,40.5,53.8,57.7c12,10.3,24.4,20.1,37.2,29.3c4.8,3.5,11.1,5.1,16.9,7.2
	c1.5,0.5,3.5-0.1,5.1-0.6c9.9-2.6,19.1-6.3,27.4-12.6c6.6-5,13.8-9.3,21-13.6c8.3-5,16.1-10.4,21.9-19.4c-2-1.5-3.7-2.8-5.4-3.9
	c-6.5-3.7-13-7.3-19.4-11c-3.4-2-6.7-4.3-9.9-6.7c-3.6-2.7-7.3-4-12.1-3.9c-7.4,0.2-15.1,0.1-22.3-1.6
	c-21.8-5.2-41.3-14.9-56.4-31.9c-6.2-6.9-12-14-17.7-21.3c-15.2-19.4-19.9-42-17.7-65.8c2.3-25.4,7-33.4,25.7-51.3
	c9.3-8.9,18.8-17.3,31.5-21.1c12.3-3.6,24.8-6.2,37.5-6.8c4.8-0.2,9.7,0.3,14.5,0.9c5.2,0.6,10.4,1.5,15.6,2.4
	c21,3.6,40.7,9.5,57.7,23.6c14.2,11.8,20.9,27,25,43.7c2.4,10.1,3.3,20.8,0.9,31.3c-0.7,3-0.6,6.1-0.9,9.2c-0.4,2.9,0.7,5.2,2.9,7
	c7.4,5.9,15.5,9.6,25.7,8.8c3-7.1,6.3-13.8,8.8-20.8c5.8-16.2,10.7-32.6,11.4-49.9c0.6-15.9-4.4-29.3-18.3-38.5
	c-5.1-3.4-9.9-7.3-14.9-10.8c-13.3-9.5-27.4-17.6-42.6-23.8c-22.9-9.2-46.3-16.5-70.6-21.2c-20.7-3.9-41.5-6.8-62.5-8.4
	c-3-0.2-6.2,0.1-9.2,0.3c-5.7,0.5-11.4,1.4-17.1,1.5c-13.7,0.4-26.9,3.6-40.2,6.7c-4.8,1.2-7.6,4-9.2,8.4c-0.6,1.7-1,3.4-1.5,5
	c-6.7,23.3-20.2,40.7-43.3,49.7C642.2,620.1,641.3,621.2,639.2,622.8z"/>
<path fill-rule="evenodd" clip-rule="evenodd" fill="#FFFFFF" d="M703.3,399.8c5.7,2.7,9.7,0.1,13.8-1.2
	c24.6-8.1,48.4-18.6,71.8-29.6c11.9-5.6,23.4-12,35.1-18.1c17.9-9.3,35.7-19,52.3-30.6c5.8-4,11.4-8.3,16.9-12.6
	c6.5-5.1,13.2-10.2,19.3-15.8c9.3-8.7,18.1-17.9,27-27c4.3-4.4,9-8.5,12.3-13.6c12.5-19.1,24.5-38.5,33.9-59.4
	c1.7-3.7,1.7-7.1-0.5-9.9c-8-9.9-16.2-19.7-26.7-27.2c-5.7-4.1-11.6-8-17.4-11.9c-2.9-1.9-5.9-3.7-8.5-5.3
	c-13.9,6.8-17.1,10.4-21.8,24.2c2.9,7,6.4,13.2,8.1,19.9c6.2,24,3.8,47.1-9.5,68.5c-1.1,1.9-2.3,3.8-3.3,5.7
	c-7.2,13.2-18.6,22.4-31.1,29.6c-11.9,6.8-25.6,9.3-39.1,10.9c-7,0.8-14.1,0.6-21.1,0c-4.3-0.4-8.5-2-12.5-3.6
	c-3.6-1.5-7-3.6-10.4-5.7c-11.2-7.2-21.6-15.1-28.1-27.2c-1.5-2.7-3.7-5-5.1-7.7c-4.6-9.4-10.4-18.6-13.1-28.5
	c-5-18-4.5-36.4,1.3-54.6c4.5-14.1,10.4-27,22.9-36c3.2-2.3,6.1-5,9-7.7c7.1-6.5,15.6-9.7,24.9-11.5c3.5-0.6,6.9-1.4,10.4-1.7
	c11.9-1,21.8-5.9,30.6-13.9c9.1-8.3,19.4-15.1,30.9-19.8c3.1-1.3,5.8-3.6,8.9-5.5c-1.1-5.4-1.3-10.4-3.1-14.8
	c-4-9.7-4.5-19.6-4.3-29.8c0.1-5.1,0-10.2,0-16c-4.9,1.4-8,3.8-10,7.1c-3.7,6-7.7,11.8-10.6,18.2c-3.4,7.8-8.1,14.4-13.6,20.8
	c-12.4,14.1-28.7,23.1-43.2,34.4c-3.1,2.4-6.3,5.1-9.9,6.5c-14.2,5.6-25.4,15.5-37.4,24.5c-13.9,10.5-22,24.9-29,40.1
	c-1.8,3.9-2.7,8.3-3.7,12.6c-1.2,5.1-2.3,10.3-3.2,15.4c-0.9,4.3-1.5,8.6-2.2,13c-4.4,27.4-12.6,53-33.7,72.6
	c-4.8,4.5-9.2,9.5-13.8,14.2c-2.8,2.8-5.7,5.4-8.7,7.9c-6.8,5.4-7.4,9.8-1.4,16.4c4.1,4.6,8.7,8.7,13.1,13
	c18.4,17.9,32.6,37.9,33,64.9C702.6,395.9,703,397.6,703.3,399.8z"/>
<path fill-rule="evenodd" clip-rule="evenodd" fill="#FFFFFF" d="M55.3,141.2c0.6,2.1,0.6,2.7,0.9,2.9c1.6,1.4,3.3,2.8,5,4.1
	c24.2,19,47.7,38.9,68.9,61.4c6.6,7,13.5,13.9,20.7,20.3c14.8,13.1,30.4,25.4,44.9,38.9c16.7,15.5,32.9,31.7,48.9,48
	c20.1,20.4,42.2,38.6,63.5,57.6c15.4,13.8,31,27.3,46.6,40.9c10.9,9.5,23.4,16.9,34.6,25.4c23.4-14.5,47.3-26.4,68.9-43.8
	c-3.3-2.6-5.9-4.9-8.7-6.9c-8.3-5.7-16.8-11.2-25-17c-3.6-2.5-6.6-5.9-10.3-8.2c-26-16.5-50.1-35.7-74.9-53.8
	c-25.9-18.9-51.1-38.8-76.9-57.8c-27.9-20.6-56.1-40.9-84.4-61c-22.2-15.8-45.7-29.7-69.6-42.8c-7.3-4-14.7-8-23.6-6.4
	c-1.6,0.3-3.5-0.2-5.2-0.8C71.7,139.9,63.9,140.8,55.3,141.2z"/>
<path fill-rule="evenodd" clip-rule="evenodd" fill="#FFFFFF" d="M513,567.5c1.3,2.1,1.9,3.8,3.1,4.8c8.8,7.2,17.7,14.4,26.7,21.4
	c4.3,3.3,9.3,4.6,14.8,4.4c12.3-0.5,24.6-0.5,36.9-1.2c11.9-0.7,23.6,0.1,35,3.6c4.2,1.3,8.4,2.5,12.6,3.7c4.6,1.4,8.8,0.9,12.2-2.5
	c5-5,9.9-9.9,14.5-15.2c5.6-6.5,6.3-13.5,3.2-22c-6.1-16.6-15-31.7-22.5-47.6c-5.7-12.1-16.2-20.1-27.4-26.9
	c-3.4,3.6-3.5,7.6-4.3,11.5c-1.8,9.5-4.1,19.3-11.4,26.1c-7,6.5-14.5,13.3-23.1,16.9c-16.9,7.3-34.6,12.5-52,18.4
	C525.7,564.6,519.8,565.8,513,567.5z"/>
<path fill-rule="evenodd" clip-rule="evenodd" fill="#FFFFFF" d="M868.7,786.4c6.4,9.3,14.7,15.2,23.6,20.2
	c11.6-5.7,18.3-14.3,22.9-25.3c-5.4-1.3-10-2.6-14.7-3.5C883.7,774.4,883.7,774.5,868.7,786.4z"/>
<path fill-rule="evenodd" clip-rule="evenodd" fill="#FFFFFF" d="M857.5,118.5c4.5,2.6,8.9,5.2,13.7,8c4.7-4.2,9.3-8.2,13.7-12.4
	c4.4-4.1,10.5-6.4,13.6-12c-2.4-5-4.6-9.6-7.2-15c-3.1,1.6-6.1,2.6-8.3,4.4C873.5,99.1,863.9,106.9,857.5,118.5z"/>
<path fill-rule="evenodd" clip-rule="evenodd" fill="#FFFFFF" d="M915.5,735.9c-3.3,5.6-6.7,11.2-9.9,16.9c-0.3,0.6,0.3,1.6,0.5,2.6
	c4.9,4.6,11.5,6.2,17.5,8.5c3.1,1.2,5.9,0.1,8.2-2.6c4.4-5.1,8.4-12.7,11.2-22.6C933.9,737.8,925,736.9,915.5,735.9z"/>
<path fill-rule="evenodd" clip-rule="evenodd" fill="#FFFFFF" d="M905.2,113.5c-5.3,6.3-10.2,11.4-14.2,17.1
	c-4.5,6.4-3.6,8.8,4.4,15.2c6.9-6.9,16.8-10,24.1-17.3c-2-2.7-3.5-5-5.3-6.8C911.9,119.2,909.2,117.1,905.2,113.5z"/>
<path fill-rule="evenodd" clip-rule="evenodd" d="M498.5,517.8c-16-0.6-30-6.3-41.5-17.1c-12.3-11.5-13.8-33.4-3.8-47
	c14.5-19.7,35.7-24.8,57-17c15.3,5.6,24.4,16.5,30.7,30.5c0.9,1.9,1.3,4.2,1.3,6.4c0,16.1-7.3,28.6-19.8,38.1
	C517,515.9,508.5,517.6,498.5,517.8z M504.1,508.1c12.4-0.1,23.3-7.4,27.3-19c2.2-6.2,4.8-13,1.9-19.2c-2.8-6.3-7-12.4-11.9-17.2
	c-8.2-8.1-18-12.6-29.8-7c-1.9,0.9-4.2,1.3-6.4,1.7c-8.2,1.4-11.5,8.9-16.6,13.9c-0.8,0.8-0.9,2.5-1,3.7c-0.9,12.2-0.6,24,11.6,31.4
	c0.7,0.4,1.5,1,2,1.7C486.7,506.4,494.9,508.3,504.1,508.1z"/>
<path fill-rule="evenodd" clip-rule="evenodd" d="M442.1,555.2c-1.9,0.7-3.9,1.8-5.9,2c-14.6,1.5-27.9,7.1-41.1,12.8
	c-4.4,1.9-8.9,3.7-13.4,5.3c-4.5,1.6-9.1,2.5-14,0c0.8-1.6,1-3.1,1.9-3.7c1.8-1.1,3.9-1.9,6-2.6c15.8-5,31.7-9.9,47.6-14.9
	C432,551.6,432.1,551.7,442.1,555.2z"/>
<path fill-rule="evenodd" clip-rule="evenodd" d="M423.2,536.4c-0.4,3.5-0.6,5.5-0.8,7.1c-11.1,3-21.6,5.8-32.1,8.7
	c-0.9,0.2-1.9,0.7-2.6,0.4c-1.4-0.5-3-1.3-3.9-2.4c-0.3-0.4,0.7-2.2,1.4-3.2c0.4-0.7,1.4-1.1,2.2-1.4
	C398.2,540.9,409.5,537.8,423.2,536.4z"/>
<path fill-rule="evenodd" clip-rule="evenodd" d="M719.6,302.1c-1.2,1.5-2.2,3.8-3.9,4.5c-8.2,3.2-15.9,6.9-22.5,12.9
	c-0.7,0.6-3.1,0.5-3.5,0c-0.9-1.3-1.1-3-1.2-4.6c-0.1-0.7,0.6-1.6,1.3-2.2c5.8-5.2,11.5-10.5,17.5-15.5c3.5-2.8,7.8-2.3,10.5,0.9
	C718.6,298.9,718.8,300.3,719.6,302.1z"/>
<path fill-rule="evenodd" clip-rule="evenodd" d="M701.8,277.7c1.9,0,3.3-0.3,4.5,0.1c3.4,1.2,4.8,3.3,3.6,5.7
	c-1.3,2.6-2.8,5.4-5,7.3c-7,5.9-14.3,11.3-21.4,17c-2.7,2.2-5.4,2.4-8.9,1.4c0.4-1.5,0.3-3.2,1-3.6
	C686.5,298.2,695.9,289.4,701.8,277.7z"/>
<path fill-rule="evenodd" clip-rule="evenodd" d="M424.4,393.7c-6.7-2.3-13.3-3.9-18.7-10c-8.5-9.5-19.9-15.7-30.6-22.5
	c-6.3-4-12.5-8.1-18.8-12.2c-1.5-1-2.9-1.9-4.2-3.2c-1.6-1.6-3-3.7-1.6-5.8c1.5-2.2,3.8-1.7,5.8-0.4c6.6,4.3,13.2,8.6,19.7,13.1
	c15.8,11.1,31.4,22.4,47.1,33.5C425.7,388.2,426.6,390.3,424.4,393.7z"/>
<path fill-rule="evenodd" clip-rule="evenodd" d="M372.4,368.3c9.5,4.9,26.4,18.2,34.6,27.2c-3.5,3.9-4.8,4.4-7,2.6
	c-8-6.7-16.1-13.4-24-20.3c-1.9-1.7-3.4-3.9-4.7-6.2C370.9,371,372,369.5,372.4,368.3z"/>
<path fill-rule="evenodd" clip-rule="evenodd" d="M817.5,711c-11.5,0.9-20.3-6.3-27.4-15.6c-6.3-8.2-7.6-18.2-3.5-27.5
	c4.3-9.9,12.9-15.3,24.1-15.5c6.6-0.1,13,0.7,19.4,2.6c12.3,3.5,16.6,12.7,17.2,23.7c0.8,12.1-4.4,22.1-14.7,29
	C828.3,710.5,823.9,711.9,817.5,711z M825.1,672.3c0-8.2-7.8-14.9-15.8-13.2c-2.9,0.6-5.9,1.9-8.4,3.5c-6.1,3.8-7.2,10.4-2.5,15.8
	c3.5,4.1,8.5,6.3,13.9,6.6C818.2,685.4,825.1,678.2,825.1,672.3z"/>
<path fill-rule="evenodd" clip-rule="evenodd" d="M807.9,257c-1.4-0.5-4.5-1.1-7-2.7c-3.3-2.1-6.3-4.7-9.1-7.5
	c-7.5-7.2-8.9-17.5-2.8-26c4.8-6.7,10-13.4,17.9-16.9c2.4-1.1,4.8-2.1,7.3-2.6c12.6-2.6,20.6,1.2,27.2,12.6
	c6,10.3,4.9,19.9-2.2,29.3C831.7,253.2,821.2,256.2,807.9,257z M811.1,220.1c-6.4,0.8-10.6,2.7-13.5,7.1c-2.6,3.8-1.6,7.6,0.3,11.2
	c5.8,11.3,13.6,12.7,23.1,4.2c1.3-1.1,2.4-2.5,3.5-3.9c3-4.1,3.2-8.9-0.7-11.7C819.6,223.9,814.6,222,811.1,220.1z"/>
<path fill-rule="evenodd" clip-rule="evenodd" d="M520.5,481.3c-1.7,3.3-2.2,5.6-3.4,6.1c-6.4,2.9-13,4.8-20.3,2.5
	c-12.5-3.9-16.7-15.8-8.5-25.8c3-3.6,7.2-6.3,11.2-9c1.1-0.7,3.7-0.3,4.8,0.6c1,0.8,1.4,3.2,1,4.5c-0.7,2.5-2.5,4.6-3.5,7
	c-2.6,5.9,0.1,11.7,6.5,13.3C511.6,481.4,515.1,481.1,520.5,481.3z"/>
</svg>
