<?xml version="1.0" encoding="utf-8"?>
<!DOCTYPE svg PUBLIC "-//W3C//DTD SVG 1.1//EN" "http://www.w3.org/Graphics/SVG/1.1/DTD/svg11.dtd">
<svg artist="zl2017" version="1.1" id="zlIcon-service-sheep" xmlns="http://www.w3.org/2000/svg" xmlns:xlink="http://www.w3.org/1999/xlink" x="0px" y="0px"
	 width="1000px" height="1207.8px" viewBox="0 0 1000 1207.8" enable-background="new 0 0 1000 1207.8" xml:space="preserve">
<path fill-rule="evenodd" clip-rule="evenodd" fill="#FFFFFF" d="M380.9,803.4c-9,6-15.8,9.7-21.7,14.6c-8.6,7-16.9,14.4-24.7,22.3
	c-10,10.1-18,22.5-17.2,36.6c1.4,24.2,7.8,47.5,25.9,65.5c6.7,6.7,16,11,17.9,21.8c0.4,2.2,4.8,4,7.7,5.3c3.3,1.5,7.3,1.8,10.4,3.5
	c2.1,1.2,3.3,4,4.9,6c-0.6,0.6-1.2,1.2-1.8,1.8c-5.1-1.4-10.3-2.8-15.3-4.2c-14.6,23.9-5.1,62.1,5.8,77.9c1.3,1.9,3.1,3.5,4.9,4.9
	c18.6,14.8,40.4,22.6,63.3,25.7c31.7,4.3,62.5-1.2,91.5-15.2c7-3.4,13.6-7.7,20.4-11.5c6.2-3.4,9.2-1.2,9.8,5.4
	c-6.2,4.9-11.9,9.4-17.8,14c1.1,1.8,1.6,3.2,2.5,3.9c22.9,16.3,47.8,23,75.9,16.5c18.8-4.3,33.3-14.2,46.8-27.7
	c20.5-20.5,33.1-43.8,33-73.4c0-4.5,2.1-9.1,3.2-13.9c14.6,3.9,4.5,15.5,9.8,21.8c10.7,0,21.7,0.5,32.6-0.3
	c4.7-0.3,8.6-3.1,11.3-8.6c5.1-10.2,7.3-20.8,7.9-31.9c0.7-13,1.3-26.1,1.9-39.3c-7.6-5.5-15.8-7.8-24.8-8.4
	c-5.9-0.4-12-0.9-17.6-2.7c-10.1-3.2-19.5-8.3-29.7-11c-29-7.9-51-26.6-73.2-45.3c-1.8-1.5-3.4-3.1-5.1-4.7
	c-10.1-9.8-16-21-13.3-35.9c2.8-15.4,4.1-31,6.9-46.4c2.7-14.9-5.8-25.6-21.7-25.4c-1.3,3.7-3.2,7.5-4,11.5
	c-1.2,6.5-5.4,8.1-11.1,10.4c-10.6,4.2-19.5,0.5-27.7-4.2c-11-6.2-24.2-11.2-28-25.1c-2.8-10.2-9-13.4-18.7-15.1
	c-22.9-4.1-42.8,3-61.8,14.2c-30.4,17.7-42.4,46-44.9,79.6c-0.5,6.2,1.8,13.1-5.3,19.8c-2.1-3.4-4.8-6.2-5.6-9.4
	C382.9,820.4,382.4,813.6,380.9,803.4z"/>
<path fill-rule="evenodd" clip-rule="evenodd" fill="#FFFFFF" d="M848.4,772.2c2.8-3.1,4.9-5,6.3-7.3c3.4-6,6-12.5,9.8-18.2
	c7-10.6,14.8-20.7,22-31.2c6.1-8.9,6.1-13-1.6-20.6c-6.1-6.1-13.2-11.3-20.3-16.3c-16.6-11.8-34-21.6-55-23.9
	c-8.6-0.9-16.8-5-25.3-6.8c-12.1-2.6-24.3-5.8-36.5-6.1c-22.7-0.5-23.1,5.2-31,21.2c-1.4,2.8-1.7,6.2-2.1,9.4
	c-1.7,13.2-3.5,26.4-4.5,39.6c-0.2,2.8,2.4,7.1,4.9,8.5c12.6,6.6,25.2,13.4,38.5,18.4C784.7,750.5,816.1,761,848.4,772.2z"/>
<path fill-rule="evenodd" clip-rule="evenodd" fill="#FFFFFF" d="M623.6,801.1c0,6.9-0.8,14,0.2,20.7c2,15.1,10,28.8,23.3,33.8
	c23.4,8.8,48,21.4,73.4,4c1.4-1,3.5-0.9,5.3-1.2c24.6-4.4,38.1-21.2,46.1-42.9c4.4-11.9,7.1-24.6,0.8-37.6
	c-6.3-13-16.2-22.3-27.7-29.9c-14.6-9.7-30.3-17.6-47.9-20.1C664.2,723.4,619.7,758.1,623.6,801.1z"/>
<path fill-rule="evenodd" clip-rule="evenodd" fill="#FFFFFF" d="M734.9,872.7c3.7,6.2,7.1,12.7,11.3,18.7
	c14.8,20.9,45.7,31.8,68.5,21.4c12.5-5.7,23.5-14.4,35.4-21.2c14-7.9,19.4-21,23.9-35.4c4.9-15.9-2.1-29.8-6-44.2
	c-1.2-4.6-3.5-10.1-7.1-12.7c-21.1-15.5-44.8-19.5-70.1-14.3C783.1,831.2,776.6,845,734.9,872.7z"/>
<path fill-rule="evenodd" clip-rule="evenodd" d="M168,857.3c3.4-0.3,6.8-0.5,10.7-0.8c17.5-30.9,28.7-66.1,55.7-93.8
	c3.1,6.8,3,10.9-0.6,15.5c-20.5,26.2-30.9,57.7-45.9,86.8c-1.1,2.2-0.6,5.3-0.9,8.9c16.2,2.8,31.8,3.8,47.6-0.2
	c8.3-2.1,17.1-2.5,25.6-3.9c7.7-1.3,15.3-2.7,22.9-4.3c3.2-0.7,3.1-0.9,11.1,3.2c-7.8,2.2-14.2,4.2-20.7,5.6
	c-16.2,3.4-32.4,7.1-48.7,9.6c-19,2.9-34.2,12.6-48.6,25.2c-2.4-2.2-5.8-3.8-6.1-5.8c-1.7-13.6-12-21.2-20.5-30
	c-5.1-5.2-9.6-11.1-14.6-16.5c-17.2-18.8-35.9-35.8-57-50.1c-18.4-12.5-24.7-15.1-14.9-43.4c0.7-2.2,1.4-4.3,2.6-8
	c-3.3-0.6-6.5-2.2-8.9-1.3c-14.9,5-29.4-0.2-43.9-1.6c-7-0.7-10.7-8.4-12.1-15.8c-1.8-9.6,2.6-15.9,7.1-23.6
	c10.5-18.2,19.2-37.5,29-56.1c5.6-10.7,11.4-21.1,22.9-27c5.5-2.8,10.4-3.5,15.6-0.1c6.2,4,12.5,7.8,18.4,12.3
	c9.6,7.2,18.9,14.8,29.4,23.1c4.8-5.4,8.8-10.3,13.2-14.8c5.7-6,11.7-11.7,17.6-17.5c1-1,2.7-1.5,3.2-2.6
	c6.9-16,23.3-20.9,35.8-30.2c15.5-11.6,32.7-20.5,52.4-23.2c2.1-0.3,4.1-2,7.6-3.8c-13.2-38.9-26.3-77.6-39.6-116.9
	c-21.1,6.5-36.3,19.4-47.4,37.8c-4.7,7.8-10.5,15-16.2,22.2c-9.1,11.5-18.5,22.8-27.7,34.2c-12.7,15.6-11.7,32.4-3.4,49.3
	c4.9,9.9,10.9,19.1,15.9,28.9c1.5,2.9,1.4,6.6,2.2,10.9c-7-0.5-12.3-0.9-18.8-1.4c-4.6-8.3-9.3-17.2-14.3-26c-2.3-4-4.6-8-7.3-11.8
	c-9.6-13.6-9.4-19.3-0.9-34.1c11.8-20.5,28.2-37.6,41.5-57c4.6-6.8,9.6-13.3,13.9-19.2c-21.7-32.6-42.1-63.9-63.2-94.6
	c-7.3-10.6-16.6-19.8-24.3-30.1c-7.1-9.6-12.6-20.3-20-29.7c-8.6-11-15.8-22.6-21.1-35.5c-5.1-12.4-11.5-24.3-15.4-37
	c-4.3-13.7,0.1-27.1,9.4-37.4c12-13.3,25.4-25.4,38.4-37.8c22.4-21.3,44.9-42.5,67.3-63.7c1.3-1.3,2.3-3,3.8-4
	c23.1-16.1,45.3-33.6,69.6-47.7c23.6-13.7,49.3-23,77.9-15.3c5.6,1.5,12-0.2,17.9,0.2c23.5,1.7,46.9,3.5,70.3,5.5
	c5.5,0.5,10.9,2,16.3,3.3c11.4,2.8,16.1-0.4,17.3-12.2c1.6-14.4-3.2-27.2-9.6-39.7c-0.8-1.5-1.8-3-2.8-4.7c3.5-1.5,6.5-2.5,9.3-3.9
	c9.3-4.8,18.4-7.1,29.1-3.6c6.4,2.1,13.6,2,20.4,2.3c8.3,0.4,13.3,4.6,17.7,11.3c7.3,11.2,6.6,23.2,4.1,35.2
	c-2.4,11.6-5.8,23-9.2,36.3c16.7,5.8,34.5,11.3,51.9,18.1c12,4.7,23.7,10.3,34.9,16.6c9.6,5.4,10.7,9.8,7.8,20.8
	c-7,27.1-15.5,53.9-21,81.3c-5.9,29.6-14,59.1-13.2,89.9c0.2,8.7-2.4,17.3-3.2,26.1c-1.7,17.9-3.3,35.8-4.4,53.7
	c-0.4,6.7,5.1,6.5,9.9,6.5c19,0,38-0.2,57,0.2c5.9,0.1,11.9,1.1,17.7,2.5c10.5,2.6,13.8,7.9,12.1,18.1c-0.1,0.5-0.1,1-0.3,1.4
	c-10.7,23.6-7,49-8.7,73.6c-0.7,10-1.4,20-2.2,30.1c9.6,0,18.6,2.4,25.4-0.5c11.2-4.9,20.6,1.3,30.8,1.7c6.2,0.3,10.1,5.4,13.7,10.7
	c9.4,13.9,17,28.7,24.3,43.8c4.6,9.4,4.7,9.3,16.2,11.6c-9.2-0.1-7.5,6-7,11c0.6,5.5,1,11.1,2.8,16.2c1.7,5,5.1,9.4,7.8,14.1
	c-9.2,3.7-18.6-1.5-21.8-11.7c-1.7-5.2-2.9-10.7-4.2-16c-2.4-9.5-8-14.1-18.1-12.5c-2.2,0.4-4.5,0-7-1.5c5-0.5,10-0.9,16-1.5
	c-4.3-17.1-11.2-32.5-21.3-45.9c-2.8-3.7-9.7-5.7-14.8-5.9c-28.2-1-56.3,0.9-84,6.3c-9.9,2-19.6,5.2-29.6,6.7
	c-12.2,1.8-24.6,1.8-36.8,3.6c-10.4,1.6-20.5,4.9-30.8,7c-12.6,2.5-25.2,4.9-37.8,6.7c-28.8,4-57.6,7.3-86.3,11.3
	c-15.5,2.1-30.8,5.2-46.2,7.3c-12.8,1.7-25.6,3-38.5,3.6c-7.9,0.4-13.4,3.6-19.4,8.7c-10.3,8.8-14.9,20.7-20.9,31.8
	c-2.4,4.4-2.3,11.2-0.9,16.3c5.1,18.2,12.1,35.8,16.8,54.1c5.5,21.5,18.6,32.9,39.5,39.9c14,4.7,28.1,6.6,42,6.5
	c22.7-0.2,44.9,3.3,67.3,5.8c9.1,1,17.4,2.3,23.1,11.6c28.4-39.7,65.1-60.1,112.9-54.6c1.6-7.8,1.2-15.5,4.7-20.5
	c6.8-9.6,18-14.2,29.1-17.8c15.3-5,30.7-9.5,45.9-14.7c12.7-4.3,27-1.3,34.9,9.2c7.2,9.5,12.7,20.3,20,29.7
	c5,6.4,11.7,11.4,17.9,16.9c6.6,5.8,14,5.2,22.1,3.1c6.1-1.5,12.8-0.9,18.8-1.2c1.6-18.6,2.5-36.5,5-54.1
	c1.3-9.3,4.6-18.1,12.7-25.2c9-7.9,19-8.4,29.4-8c30.7,1.2,60.1,10.4,88.9,19.6c27.7,8.8,50.5,26.8,68.3,50.3
	c5.2,6.9,6,14.3,0.8,21.8c-1.6,2.3-2.9,4.9-4.9,6.7c-14.5,12.9-21.2,31.1-32.1,46.4c-2.8,3.9-3,7.1,0.2,11.2
	c4.5,5.7,8.5,11.9,12,18.2c3.4,6.3,7.7,9.3,14.6,6.4c14.4-6.1,28.7-12.4,45.2-19.5c9,3.3,16.7,12,22.5,21.9
	c11.2,19,21.7,38.5,32.5,57.8c9.3,16.6,6.7,29.1-8.6,40.4c-12.5,9.2-25.3,17.9-41.7,15.3c-8-1.3-16.3-3.8-23.3-7.9
	c-11.7-6.9-11.8-10.6-8.2-24c4.1-15.4,7.9-31,6-47.3c-1.2-10.6-8.1-17.6-14.9-24.3c-5.1-5-15,0.9-15.8,8.7
	c-1,10.1-1.3,20.3-3.1,30.2c-2.6,14.6-9.7,26.7-22.6,35.1c-10.8,7.1-21.1,14.9-31.9,21.8c-14,8.9-29.2,13.2-47.4,8.7
	c4.4,21.2-4.7,39.5-6.8,58.9c-0.7,6.1-4.7,11.9-7.7,19.2c11.4,24.1,23.4,49.4,35.4,74.6c-4.6,5.4-8.2,4.3-12.5,1
	c-28.5-21.9-50.8-33.3-82.6-42.8c-0.6,0.7-1.5,1.2-1.8,2c-8.5,19.3-21.4,34.6-37.7,48.4c-17.4,14.8-37.5,21-58.4,26.8
	c-8.1,2.3-16.3,1-24.3-1.3c-14.5-4.1-16.4-4.1-23.8,8.3c-8.5,14.1-15,29.4-22.5,44.1c-2,3.9-4.2,7.7-6.6,12.1
	c-9.2-5.5-9.8-14.5-12.6-21.8c-6.2-15.8-10.9-32.3-17-48.2c-5-13-5.5-12.4-19.3-10.6c-7.3,1-14.8,0.2-22.1,0.2
	c-12.7,15.1-16.5,33.4-22.5,50.6c-2.3,6.5-3.7,13.3-6.5,19.6c-1.3,3-5,4.9-8.8,8.5c-4-7.7-7.6-13.9-10.5-20.4
	c-7.7-17.3-14.5-34.9-22.9-51.8c-4.2-8.5-10.5-16.1-16.7-23.4c-12.7-15.1-20.5-32.5-26.5-51c-5.7-17.7-5.4-35.5-1.5-53.1
	c1.7-7.7,0.1-11.7-5.8-16.4c-20.3-16.3-29.9-38.1-34.9-63.7c-6-30.7,7.3-51.8,27.9-70.7c9.1-8.4,19.3-15.6,29.1-23.2
	c2.5-2,5.4-4.3,8.3-4.8c14.8-2.1,17.3-12.9,18.5-24.9c-9.2-7.1-19.6-8.7-30.8-8.5c-30.1,0.6-60-1.7-89.3-8.6
	c-17.3-4.1-35.2-8.7-48-22.7c-10.1-11-15.7-25-20.3-38.7c-4.9-14.7-6.9-30.4-9.9-45.8c-1.4-7.2-1.9-14.6-3-23.6
	c-24.5,8.6-37.9,29.4-56.3,45c8.2,6.4,14.9,11.5,21.5,16.6c-0.4,0.7-0.9,1.5-1.3,2.3c-2.1-0.1-4.7,0.5-6.4-0.5
	c-20.8-12-40.1-26.1-58.3-41.7c-3.1-2.7-6.5-5.2-9.9-7.6c-5.7-4-12-3.8-16.5,1.1c-6.1,6.7-12,14-16.4,21.9
	c-10.8,19.4-20.6,39.2-30.9,58.9c-1.3,2.4-3.3,4.6-4.3,7.1c-4.7,11.8-0.4,19.3,12.4,19.5c13.8,0.1,27.6-2.8,41.3-2
	c19.7,1,39.6,2.9,57.3,13.4c4.2,2.6,8.3,5.4,12,9.2c-16.2-2.8-29.8-15-47.9-12.6c-3.3,6.6-7.1,13.4-10.1,20.6
	c-3.4,7.9-2.3,12.1,4.6,16.6c24.5,16,45.6,35.9,65.1,57.4c7.8,8.7,14.8,15.8,27.7,16.1C173.5,861.7,171.1,859.4,168,857.3L168,857.3
	z M380.9,803.4c-9,6-15.8,9.7-21.7,14.6c-8.6,7-16.9,14.4-24.7,22.3c-10,10.1-18,22.5-17.2,36.6c1.4,24.2,7.8,47.5,25.9,65.5
	c6.7,6.7,16,11,17.9,21.8c0.4,2.2,4.8,4,7.7,5.3c3.3,1.5,7.3,1.8,10.4,3.5c2.1,1.2,3.3,4,4.9,6c-0.6,0.6-1.2,1.2-1.8,1.8
	c-5.1-1.4-10.3-2.8-15.3-4.2c-14.6,23.9-5.1,62.1,5.8,77.9c1.3,1.9,3.1,3.5,4.9,4.9c18.6,14.8,40.4,22.6,63.3,25.7
	c31.7,4.3,62.5-1.2,91.5-15.2c7-3.4,13.6-7.7,20.4-11.5c6.2-3.4,9.2-1.2,9.8,5.4c-6.2,4.9-11.9,9.4-17.8,14c1.1,1.8,1.6,3.2,2.5,3.9
	c22.9,16.3,47.8,23,75.9,16.5c18.8-4.3,33.3-14.2,46.8-27.7c20.5-20.5,33.1-43.8,33-73.4c0-4.5,2.1-9.1,3.2-13.9
	c14.6,3.9,4.5,15.5,9.8,21.8c10.7,0,21.7,0.5,32.6-0.3c4.7-0.3,8.6-3.1,11.3-8.6c5.1-10.2,7.3-20.8,7.9-31.9
	c0.7-13,1.3-26.1,1.9-39.3c-7.6-5.5-15.8-7.8-24.8-8.4c-5.9-0.4-12-0.9-17.6-2.7c-10.1-3.2-19.5-8.3-29.7-11
	c-29-7.9-51-26.6-73.2-45.3c-1.8-1.5-3.4-3.1-5.1-4.7c-10.1-9.8-16-21-13.3-35.9c2.8-15.4,4.1-31,6.9-46.4
	c2.7-14.9-5.8-25.6-21.7-25.4c-1.3,3.7-3.2,7.5-4,11.5c-1.2,6.5-5.4,8.1-11.1,10.4c-10.6,4.2-19.5,0.5-27.7-4.2
	c-11-6.2-24.2-11.2-28-25.1c-2.8-10.2-9-13.4-18.7-15.1c-22.9-4.1-42.8,3-61.8,14.2c-30.4,17.7-42.4,46-44.9,79.6
	c-0.5,6.2,1.8,13.1-5.3,19.8c-2.1-3.4-4.8-6.2-5.6-9.4C382.9,820.4,382.4,813.6,380.9,803.4z M377.3,79.8c0-1.1,0-2.2,0-3.4
	c-4.3-1-8.5-2.7-12.8-3c-17.8-1.2-35.6-2.2-53.4-3c-18-0.8-36-1.8-54-1.5c-15.3,0.2-24.4,14.2-19.2,28.8
	c8.4,23.4,17.2,46.6,25.7,69.9c1.3,3.5,2.6,7,3.1,10.6c3.4,23.6,8.6,46.8,15.1,69.8c2.6,9.2,2,19.2,4,28.6c2.6,12.1,6.4,24,9.6,35.9
	c9.8,36.2,19.7,72.5,29.7,109.3c17.6,0.7,35.1,2.8,52.5,1.7c34.4-2.1,68.1-10,102.1-15.4c6.5-1,8.6-5.2,9.4-10.3
	c1.6-10,2.5-20.1,3.6-30.2c1.4-12.4,2.4-24.8,4.2-37.1c1.9-13.2,4.9-26.2,6.8-39.4c2.3-15.5,3.3-31.2,6-46.6
	c4.4-25,8.9-49.9,8.1-75.5c-0.1-3.6,1.6-7.3,1.4-10.9c-0.4-8.5,3.2-18.2-3.4-25.3c-12.6-13.5-26.5-25.4-45.9-28.2
	c-2.5-0.4-5-1.9-7.2-3.2c-5.4-3.2-10.7-6.7-16.9-10.6c-6,5.7-11.1,10.9-16.5,15.7c-4.6,4-9.2,9.2-17.3,2.7c8.3-7,20.9-8.5,22.9-22.6
	c-11.2-2.3-22.7-3.6-33.3-7.3c-8.3-2.9-12.4,0.8-18.2,5.1c-7.2,5.4-15.5,9.6-23.9,13.3c-5.2,2.3-10.7,1-13.7-4.5
	c4.1-9.1,11.4-0.8,16.3-4.2C367.1,85.8,372.3,82.9,377.3,79.8z M313.9,424.6c-2.3-7.1-4.3-13.4-6.4-19.6
	c-6.2-18.3-13-36.4-18.5-54.9c-4.4-14.5-7.2-29.4-10.8-44.1c-1.5-6.3-4.1-12.4-4.6-18.7c-2.1-25.8-6.9-51-14.4-75.7
	c-4.9-16.3-9.3-32.7-14.2-49c-5.4-18-11.3-35.9-16.6-54c-2.9-9.8-17.1-21.2-27.4-21c-1.8,0-3.8,0.4-5.3,1.2
	c-8.4,4.7-17.1,9-24.9,14.5c-30.7,21.5-58.6,46.4-85.9,72c-16.1,15.1-31.9,30.6-48.4,45.4c-17.1,15.3-16.7,34.3-11.2,53.4
	c5.4,18.9,14.9,35.8,26.5,52.3c13.8,19.6,28.1,38.7,44.2,56.3c16.9,18.4,32.6,37.4,46,58.5c6.3,9.9,11.6,20.9,22.9,28.6
	c5.9-4.4,13.1-7.7,17.4-13.2c9.8-12.5,24-18.4,36.8-26.3c7.1-4.3,15.2-6.2,23.6-2.6c2,0.9,4.5,1.3,6.7,1.1
	C270.8,427.5,292.4,426,313.9,424.6z M420.8,519c-3.4,0.5-6.6,0.7-9.8,1.3c-10.4,2.2-15.4,0.7-18.8-8.5c-3.7-10.1-5.7-20.9-8.3-30.8
	c6.3-3.7,11.3-6.6,16.7-9.7c-6.4-9.6-11.8-18.2-17.9-26.3c-2-2.7-5.5-5.6-8.7-6c-13.2-1.6-26.6-3.1-39.9-3
	c-18.4,0.1-36.8,1.4-55.2,2.4c-12.9,0.8-25.7,2.3-38.5,2.9c-6.9,0.3-10.1,4.5-11.3,10.1c-1,4.4-1.2,9.5,0,13.8
	c4.6,16.3,9.6,32.5,15,48.5c6.5,19.1,13.6,38,20.9,58.4c3.4-0.4,7.9-0.6,12.3-1.5c6.8-1.3,13.4-3.8,20.2-4.3
	c19.3-1.3,38.7-1.5,58-2.7c12.4-0.8,24.8-2.3,37-4.4c14-2.4,27.8-5.9,41.7-8.7c32-6.3,64.1-12.8,96.2-18.6c11.7-2.1,23.7-4,35.5-3.4
	c16,0.8,18.3,0.7,18.6-15.2c0.4-24.5-0.3-49.1-0.7-73.6c-0.3-15.4-2.6-17.8-18-20.8c-3.2-0.6-6.5-1.7-9.6-1.4
	c-15.6,1.6-31.1,3.7-46.6,5.5c-12.7,1.5-25.5,3.1-38.3,4.3c-11.8,1.1-23.7,1.6-34.9,2.4c-5.6,11.5-10.3,21.5-5.7,34
	c6.5-0.7,12.7-1.3,20.6-2.1c4.2,11.6,8.6,23.4,13.1,35.7c-2.1,1.7-4,4.1-6.4,4.9c-9,2.9-11.7,9.7-12.3,18.1
	c-0.1,1.4,0.1,2.8-0.2,4.2c-1.8,8.3-7.4,10.7-14,5.5C427.7,527.2,424.9,523.4,420.8,519z M848.4,772.2c2.8-3.1,4.9-5,6.3-7.3
	c3.4-6,6-12.5,9.8-18.2c7-10.6,14.8-20.7,22-31.2c6.1-8.9,6.1-13-1.6-20.6c-6.1-6.1-13.2-11.3-20.3-16.3c-16.6-11.8-34-21.6-55-23.9
	c-8.6-0.9-16.8-5-25.3-6.8c-12.1-2.6-24.3-5.8-36.5-6.1c-22.7-0.5-23.1,5.2-31,21.2c-1.4,2.8-1.7,6.2-2.1,9.4
	c-1.7,13.2-3.5,26.4-4.5,39.6c-0.2,2.8,2.4,7.1,4.9,8.5c12.6,6.6,25.2,13.4,38.5,18.4C784.7,750.5,816.1,761,848.4,772.2z
	 M623.6,801.1c0,6.9-0.8,14,0.2,20.7c2,15.1,10,28.8,23.3,33.8c23.4,8.8,48,21.4,73.4,4c1.4-1,3.5-0.9,5.3-1.2
	c24.6-4.4,38.1-21.2,46.1-42.9c4.4-11.9,7.1-24.6,0.8-37.6c-6.3-13-16.2-22.3-27.7-29.9c-14.6-9.7-30.3-17.6-47.9-20.1
	C664.2,723.4,619.7,758.1,623.6,801.1z M734.9,872.7c3.7,6.2,7.1,12.7,11.3,18.7c14.8,20.9,45.7,31.8,68.5,21.4
	c12.5-5.7,23.5-14.4,35.4-21.2c14-7.9,19.4-21,23.9-35.4c4.9-15.9-2.1-29.8-6-44.2c-1.2-4.6-3.5-10.1-7.1-12.7
	c-21.1-15.5-44.8-19.5-70.1-14.3C783.1,831.2,776.6,845,734.9,872.7z M454.6,33.2c-14.9,0-29.1-0.1-43.3,0c-5,0.1-7.4,2.8-7.5,7.9
	c-0.2,9.5-0.8,19-1.2,28.5c13.8,3.1,27.5,6.1,41.3,9.2C454.4,65.3,459.5,51.1,454.6,33.2z M623.6,750.5c8.4-7.3,18.4-15.9,29.3-25.3
	c-9.2-9.5-18.4-18.9-26.8-27.5c-21.5,5.9-29.6,20.5-33,36.9C604.1,740.4,613.3,745.1,623.6,750.5z M442.9,472.1
	c-15.9,3.8-31.3,7.5-47.2,11.3c1.1,7.8,1.8,14.6,2.9,21.3c1,6,5.6,7.3,10.5,5.8c8.8-2.7,17.6-5.5,25.8-9.3
	C450.9,493.8,454.5,491.2,442.9,472.1z M452.9,24.1c0.8-1.3,1.5-2.6,2.3-4c-2.2-1.3-4.4-3.3-6.8-3.9c-13.4-2.9-26.8-5.8-40.3-7.9
	c-2.2-0.3-5.8,2.5-7.1,4.7c-0.9,1.6,0.2,6,1.7,7c3.3,2.1,7.4,3.5,11.3,3.9c10.5,1,21,1.5,31.5,1.9C448,26,450.5,24.7,452.9,24.1z
	 M401.6,436.4c2.3,10,3.7,18.1,6,25.9c1.9,6.4,4.3,6.5,12,1.3c-2.1-9.2-4.1-18.5-6.4-28.6C409.6,435.4,406.1,435.9,401.6,436.4z"/>
<path fill-rule="evenodd" clip-rule="evenodd" d="M132.6,695c-20.6,3.6-42.3,16.9-48.2,30.2c7.4,3.1,15,5.8,22,9.6
	c6.7,3.5,12.8,8.2,19.1,12.3c-0.5,1.1-1,2.2-1.4,3.2c-3-0.9-6.4-1.2-9-2.8c-16.1-10.2-33.8-13.8-52.5-14.2
	c-3.6-0.1-7.4-0.8-10.6-2.2c-4.7-2-7-5.2-4.7-11c7.7-18.7,19.1-34.7,34.2-47.9c9.3-8.2,14.3-7,24.4,0.2c6.2,4.5,13.4,7.6,20.5,10.8
	C131.3,685.5,136,687.3,132.6,695z M103.2,684.8c-11.1-7.5-14-7.7-21.3,0.7c-7.9,9-15.2,18.5-22.1,28.2c-2.4,3.3-3,7.8-4.4,11.8
	c8.6,0.5,15.2,1,22.5,1.4C78.3,707.4,94.8,698.6,103.2,684.8z"/>
<path fill-rule="evenodd" clip-rule="evenodd" d="M296.9,676.5c4,5.2,9.2,5.7,15,3.5c-4.8,3.1-9.4,6.6-14.5,9.1
	c-7.7,3.8-15.8,6.8-25.2,10.8c5.1,5.8,8.9,10.2,12.7,14.5c-0.3,0.4-0.6,0.8-0.9,1.2c-6.8-4.2-13.6-8.5-20-12.4
	c-2-16.8-11-31.2-19.7-47.9c3.4-4,4.6-10.2,1.9-17.9c-2.8-7.8-1.3-16.1,5.7-24.7c7,11.3-3.2,23.7,5.4,34.9
	c6.4-2.2,15.4-2.9,20.2-7.7c4.6-4.7,4.9-13.6,8.7-20.5c0.5,4.8,1,9.6,1.8,16.4c4.4-0.6,8.7-0.8,12.7-1.9c6.6-1.9,13-4.4,19.5-6.7
	c-7.2,3.8-14.1,8-21.5,11.2c-9.5,4-10.3,5.5-7.3,15.2c2.4,7.7,4,15.7,6,23.6c-2.4-3-5.7-5.7-7.2-9.1c-3.1-7.4-5.3-15.1-8.1-23.2
	c-3.7,1.1-5.9,1.6-7.9,2.5c-3.4,1.4-6.7,3-10,4.8c-7.8,4.2-10.1,8.7-6.9,16.7c3.5,8.8,8.1,17.2,12.5,26.3c8-2.9,14.8-5.4,21.6-7.9
	C296.5,685.3,299,682.1,296.9,676.5z"/>
<path fill-rule="evenodd" clip-rule="evenodd" d="M319.7,678.8c2.2-2.1,4.2-4.6,6.8-6c3.9-2.2,8.3-3.5,13.1-5.5
	c-3.5-11.5-7.1-22.2-10-33.1c-1.5-5.6-4.7-7.4-10-6.7c9.1-1.8,9.1-11.1,14.2-18.3c2.4,4.1,4,6.9,6.1,10.6c7.8-2.9,16.3-4.3,22.7-8.8
	c5.5-3.9,8.6-11.2,15-16.1c-0.4,2.8-1.3,5.7-1,8.4c0.2,1.4,2.4,2.7,3.8,4l-0.3-0.3c-12.4,13.5-6.8,28.5-3,42.9
	c1.6,5.9,4.9,11,3.1,17.7c-0.6,2.3,2.1,5.4,1,9.5c-3.5-5.9-7-11.8-10.6-17.9c4.5-14-4.2-27.8-2.9-43.9c-7.7,1.9-13.8,3.2-19.8,5
	c-11.9,3.5-12.8,5.2-10.9,17.9c0.6,3.6,2,7.1,2.5,10.7c2.1,13.7,2.1,13.7,14.1,15.9c-2.4,3-5,6.2-7.7,9.6
	C336.6,668.9,328.8,677.6,319.7,678.8z"/>
<path fill-rule="evenodd" clip-rule="evenodd" d="M458.7,590.6c2.1-4.6,4.2-9.2,7.2-15.7c2.1,3.6,3.3,5.6,4.9,8.4
	c12.1-2.9,24.3-6.3,36.8-8.6c4.5-0.8,9.6,1.2,14.5,4.4c-2.2,0.5-4.6,0.7-6.7,1.6c-2,0.8-4.4,1.8-5.5,3.5c-3.8,5.7,0.4,26.9,6.3,33.1
	c-1.2,2.3-2.4,4.7-3.5,6.9c3.2,4.3,6.2,8.3,11,15c-11.9-5.3-16.6-13.4-17.4-23.9c-0.8-10.5-2.5-21-3.9-32.4
	c-11.1-2.6-21.7,3-32.7,4.7c-1.8,0.3-4.4,4.1-4.4,6.4c-0.2,10.9-2.7,22.3,4.9,33.8c4.8-0.6,10.3-1.2,15.8-1.8
	c-14.7,7.4-14.7,7.4-16.6,17.8c-4.3-7.1-8.2-12.1-7.6-20.2c0.7-10-0.3-20-0.9-30C461,592.4,459.5,591.5,458.7,590.6L458.7,590.6z"/>
<path fill-rule="evenodd" clip-rule="evenodd" d="M458.6,590.5c-9.5,1.5-19.1,2.7-28.5,4.6c-5.9,1.2-9.4,4.7-9.8,11.5
	c-0.7,11.4-1,22.7,1.7,35.2c6.8-2,12.2-3.6,17.7-5.2c0.3,0.6,0.5,1.2,0.8,1.8c-5.4,2.6-10.9,5.2-17.7,8.6c3.5,9.5,7,18.7,10.4,27.9
	c-6.9-5-6.9-5-16.7-27.4c-1.8,0.3-3.9,0.6-6,1c-2.1,0.4-4.3,0.8-7.2-0.6c1.6-1,3.1-2.2,4.8-2.9c2-0.9,4.2-1.3,7.1-2.1
	c-1.9-15.2,1.8-30.2-3.2-46.4C426.3,590.1,441.8,586.4,458.6,590.5C458.7,590.6,458.6,590.5,458.6,590.5z"/>
<path fill-rule="evenodd" clip-rule="evenodd" d="M582.3,560.2c6,0.6,10.4,1.4,14.7,1.5c4.5,0.1,9-0.4,13.9,1.1
	c-7.3,1.8-14.6,3.7-23.3,5.9c0.9,9.2-0.8,20,3.3,27.7c4.5,8.2,0.9,17.2,6,24.6c-9-3.5-10.6-12-12.3-19.5
	c-2.3-10.2-3.2-20.7-4.1-31.2C580.2,566.7,581.8,563.1,582.3,560.2z"/>
<path fill-rule="evenodd" clip-rule="evenodd" d="M131,587.8c12.7-20.3,26.7-39.7,44.7-55.7c0.8,0.6,1.5,1.2,2.3,1.9
	c-14.8,18.8-29.6,37.6-44.4,56.4C132.7,589.5,131.8,588.7,131,587.8z"/>
<path fill-rule="evenodd" clip-rule="evenodd" d="M204.3,544.6c-17.8,19.4-34.9,38.1-52.5,57.3c0.4-6.4,9.5-19.7,21.9-31.6
	C183,561.3,189.8,549.1,204.3,544.6z"/>
<path fill-rule="evenodd" clip-rule="evenodd" d="M626.6,555.5c10.5,11.1,8.1,27.9,19.6,40.1c-4.4,0.7-7.6,1.2-10.8,1.8
	C634.2,582.5,625.8,570.2,626.6,555.5z"/>
<path fill-rule="evenodd" clip-rule="evenodd" d="M215.4,553.9c-10,10-20.1,20-29.9,30.1c-3.9,4-7.4,8.5-11.1,12.7
	c-0.9-0.7-1.8-1.4-2.7-2c3.9-5.9,7.1-12.4,11.8-17.6c6.7-7.4,14.1-14.3,21.8-20.6C207.7,554.5,212,554.7,215.4,553.9L215.4,553.9z"
	/>
<path fill-rule="evenodd" clip-rule="evenodd" d="M550.9,606.5c-1.3-7.7-1.9-13.1-3.1-18.4c-1.1-5-2.9-9.8-4.8-15.8
	c2.6-1.8,6.4-6.4,13.7-1.6C542.2,579.8,560.8,593.6,550.9,606.5z"/>
<path fill-rule="evenodd" clip-rule="evenodd" d="M144.8,555.1c0-0.9-0.5-2-0.1-2.7c9.3-16.3,21.2-30.4,36.2-41.8l-0.3-0.3
	c-3.1,4.8-5.7,10-9.4,14.3c-8.7,10.3-17.8,20.1-26.8,30.2L144.8,555.1z"/>
<path fill-rule="evenodd" clip-rule="evenodd" d="M203,717.2c-10.7-15.5-21.5-30.9-32.4-46.7c5.7,1.1,5.6,1.1,18.7,20.6
	c5.4,8.1,11.2,16.1,16.8,24.1C205,715.8,204,716.5,203,717.2z"/>
<path fill-rule="evenodd" clip-rule="evenodd" d="M159.1,824.5c-7.7-10.4-15.3-20.8-23-31.1c12.5,6.7,16.8,19.7,26.1,28.8
	C161.1,822.9,160.1,823.7,159.1,824.5z"/>
<path fill-rule="evenodd" clip-rule="evenodd" d="M180.2,761.5c11.6,5,14.4,17.4,22.7,25.1c-8.3-3.1-9-4-22.3-25.4L180.2,761.5z"/>
<path fill-rule="evenodd" clip-rule="evenodd" d="M116.7,794.1c7.3,6.7,14.7,13.4,22,20.2c-11.1-2.4-16.2-11.7-23.8-18.2
	C115.5,795.4,116.1,794.8,116.7,794.1z"/>
<path fill-rule="evenodd" clip-rule="evenodd" d="M233.1,563c-6.6,5.6-13.1,11.1-19.7,16.7c1.7-10.9,11-13.5,17.3-19.3
	C231.5,561.3,232.3,562.1,233.1,563z"/>
<path fill-rule="evenodd" clip-rule="evenodd" d="M391.8,1204.7c7.1-5.9,17.4-7.4,28.3-2.8C409.3,1202.9,400.5,1203.8,391.8,1204.7
	L391.8,1204.7z"/>
<path fill-rule="evenodd" clip-rule="evenodd" d="M177.7,798c-4-5.4-8-10.8-12-16.3c0.7-0.5,1.4-1,2.1-1.6
	c4.1,5.4,8.2,10.7,12.2,16.1C179.3,796.8,178.5,797.4,177.7,798z"/>
<path fill-rule="evenodd" clip-rule="evenodd" d="M183.7,524.4c4.4-4.5,8.7-9,13.1-13.6c0.9,0.8,1.7,1.6,2.6,2.3
	c-4.4,4.5-8.8,8.9-13.1,13.4C185.4,525.8,184.5,525.1,183.7,524.4z"/>
<path fill-rule="evenodd" clip-rule="evenodd" d="M338.3,1206.6c6.2,0,12.3,0,18.5,0c0,0.4,0,0.8,0,1.2c-6.3,0-12.6,0-19,0
	C338,1207.4,338.2,1207,338.3,1206.6z"/>
<path fill-rule="evenodd" clip-rule="evenodd" d="M391.8,1204.6c-7.7,0.5-15.4,0.9-23.1,1.3c0-0.9,0-1.8,0-2.6
	C376.4,1203.8,384.1,1204.2,391.8,1204.6C391.8,1204.7,391.8,1204.6,391.8,1204.6z"/>
<path fill-rule="evenodd" clip-rule="evenodd" d="M151.1,727.3c-3.5-3.9-7-7.9-10.4-11.8c6.9,0.3,9,5.6,12.5,9.5
	C152.4,725.7,151.8,726.5,151.1,727.3z"/>
<path fill-rule="evenodd" clip-rule="evenodd" d="M380.4,607.1c5.7-1.9,11.3-3.9,17-5.8c0.3,1.3,0.6,2.5,0.9,3.8
	c-6,0.6-12.1,1.1-18.1,1.7C380.1,606.8,380.4,607.1,380.4,607.1z"/>
<path fill-rule="evenodd" clip-rule="evenodd" d="M164.7,705c2.7,2.9,5.4,5.8,8.1,8.8c-0.8,0.7-1.6,1.4-2.3,2.1
	c-2.5-3.1-5-6.2-7.5-9.2C163.5,706.1,164.1,705.6,164.7,705z"/>
<path fill-rule="evenodd" clip-rule="evenodd" d="M303.2,719.4c4.5-1,9-2.1,13.5-3.1c0.1,0.7,0.3,1.3,0.4,1.9
	c-4.3,1.4-8.7,2.8-13,4.3C303.8,721.5,303.4,720.5,303.2,719.4z"/>
<path fill-rule="evenodd" clip-rule="evenodd" d="M141.7,819.5c2.3,2.1,4.6,4.1,7,6.2c-0.4,0.5-0.8,1.1-1.2,1.6
	c-2.7-1.7-5.3-3.3-8-5C140.2,821.4,141,820.5,141.7,819.5z"/>
<path fill-rule="evenodd" clip-rule="evenodd" d="M215.4,554c-1.3-5-0.6-9,6.3-10.6C219.4,547.2,217.4,550.5,215.4,554
	C215.4,553.9,215.4,554,215.4,554z"/>
<path fill-rule="evenodd" clip-rule="evenodd" d="M191.8,499.1c0,7.4-5.8,9-11.1,11.2l0.3,0.3c3.7-3.7,7.4-7.5,11.1-11.2
	L191.8,499.1z"/>
<path fill-rule="evenodd" clip-rule="evenodd" d="M190.1,813.8c-1.6-2.1-3.1-4.2-4.7-6.3c0.4-0.4,0.9-0.8,1.3-1.2
	c2.2,1.5,4.3,3,6.5,4.5C192.1,811.8,191.1,812.8,190.1,813.8z"/>
<path fill-rule="evenodd" clip-rule="evenodd" d="M144.5,554.8c-1.8,3.6-3.6,7.2-5.3,10.8c-1-0.8-2-1.5-3-2.3
	c2.9-2.8,5.8-5.5,8.7-8.3L144.5,554.8z"/>
<path fill-rule="evenodd" clip-rule="evenodd" d="M168.1,857.2c-1.6-3.1-3.2-6.3-5.3-10.4C168,849.3,170.9,851.7,168.1,857.2
	C168,857.3,168.1,857.2,168.1,857.2z"/>
<path fill-rule="evenodd" clip-rule="evenodd" d="M180.5,761.2c-2.6-3-5.2-5.9-9.8-11c7.1,3.2,10.5,5.6,9.4,11.3
	C180.2,761.5,180.5,761.2,180.5,761.2z"/>
<path fill-rule="evenodd" clip-rule="evenodd" d="M190.3,740.9c-1.8-2.2-3.7-4.3-5.5-6.5c0.5-0.4,0.9-0.9,1.4-1.3
	c1.9,2.1,3.8,4.1,5.8,6.2C191.4,739.9,190.8,740.4,190.3,740.9z"/>
<path fill-rule="evenodd" clip-rule="evenodd" d="M192,499.4c2.3-2.8,4.5-5.7,6.8-8.5c1.1,6.6-2,8.5-7.1,8.2
	C191.8,499.1,192,499.4,192,499.4z"/>
<path fill-rule="evenodd" clip-rule="evenodd" d="M578.9,873.8c-1.1,8.6-1.9,16.7-3.3,24.7c-2.8,15.7-0.5,31.4,1.7,46.6
	c1.8,12.6-1.5,23.2-3.2,35c-7,0.1-9.6-3.6-11.9-8.6c-11.1-23.2-22.1-46.5-34-69.4c-3.6-7.1-9.5-13.1-14.7-19.2
	c-4.5-5.2-4.3-8.6,1.6-11c1.2-0.5,2.7-0.7,4.1-0.9C538.7,869.2,558.4,867.7,578.9,873.8z"/>
<path fill-rule="evenodd" clip-rule="evenodd" d="M105.6,176.7c-1.5,4.2-2.8,8.5-4.5,12.7c-10.4,25.1-21,50.1-31.1,75.3
	c-1.8,4.6-1.8,9.9-2.8,14.8c-0.9,4.2-2.1,8.4-4.4,12.4c-4.5-7-2.1-14.4,0-20.5c6.4-18.7,13.7-37.1,21.4-55.4
	c4.9-11.8,11-23.1,16.8-34.5c0.9-1.8,3.2-3,4.8-4.5L105.6,176.7z"/>
<path fill-rule="evenodd" clip-rule="evenodd" d="M231.3,299.2c-12.6,32.3-25.1,64.6-37.7,96.9C200.4,361.8,211.4,328.8,231.3,299.2
	z"/>
<path fill-rule="evenodd" clip-rule="evenodd" d="M132.4,259.4c0.1,3.1,1,6.5,0.1,9.2c-8.1,25.2-16.6,50.2-24.9,75
	c-2-12.1,8.2-46.5,25.2-83.9C132.8,259.7,132.4,259.4,132.4,259.4z"/>
<path fill-rule="evenodd" clip-rule="evenodd" d="M183,326.3c-5.2,18-10.5,35.9-15.6,53.9c-2.5,9.1-4.6,18.4-9.3,27.1
	c1.7-10.2,2.8-20.5,5.3-30.5c3.8-15.1,8.6-30,13-45C177.4,328.6,179.2,326.1,183,326.3L183,326.3z"/>
<path fill-rule="evenodd" clip-rule="evenodd" d="M217.8,418.9c6.5-23.1,15.3-45.3,27.1-66.3c-7.9,22.5-15.9,44.9-23.8,67.4
	C219.9,419.6,218.9,419.2,217.8,418.9z"/>
<path fill-rule="evenodd" clip-rule="evenodd" d="M105.7,249c-0.1,2.3,0.3,4.7-0.5,6.8c-6.7,17.5-13.6,35-20,51.4
	c-1.7-10.5,9.8-43.7,20.7-57.9L105.7,249z"/>
<path fill-rule="evenodd" clip-rule="evenodd" d="M63.9,218.3c-1.9,17.3-10.6,31.8-18.4,46.7c1.2-16.8,8.8-31.2,16.2-45.6
	c0.3-0.6,1.6-0.6,2.4-0.8L63.9,218.3z"/>
<path fill-rule="evenodd" clip-rule="evenodd" d="M164.1,268.5c-4.8,14-9.6,27.9-14.6,41.8c-0.3,0.8-2.3,0.9-3.5,1.4l0.3,0.3
	c3.8-11.7,7.4-23.5,11.6-35.1c1.1-3.1,4.2-5.5,6.4-8.2L164.1,268.5z"/>
<path fill-rule="evenodd" clip-rule="evenodd" d="M146.1,311.7c0.4,0.8,1.3,1.6,1.3,2.4c-1.7,15.9-8.7,30-14.6,44.5
	c2.4-16.2,6.9-31.7,13.7-46.5C146.4,312,146.1,311.7,146.1,311.7z"/>
<path fill-rule="evenodd" clip-rule="evenodd" d="M259.4,396.8c2.9-11.3,8.5-21,19.4-27.6c-5.4,9.9-10.8,19.8-16.1,29.8
	C261.6,398.2,260.5,397.5,259.4,396.8z"/>
<path fill-rule="evenodd" clip-rule="evenodd" d="M211,246c3.8-7,7.6-14,11.4-21.1c1,0.6,2,1.1,3,1.7c-4.2,6.8-8.4,13.6-12.6,20.3
	C212.3,246.7,211.6,246.4,211,246z"/>
<path fill-rule="evenodd" clip-rule="evenodd" d="M143.7,234.3c0.6,10.3-1.5,19.4-11.3,25.1c0,0,0.4,0.3,0.4,0.3
	c3.8-8.3,7.6-16.7,11.4-25L143.7,234.3z"/>
<path fill-rule="evenodd" clip-rule="evenodd" d="M64.2,218.6c2.5-7.1,5-14.2,7.5-21.3c0.8,0.3,1.7,0.7,2.5,1
	c-2.4,7.2-2.6,15.3-10.3,20L64.2,218.6z"/>
<path fill-rule="evenodd" clip-rule="evenodd" d="M105.9,249.2c-0.5-7.9,1.4-14.6,8.8-18.9l-0.3-0.3c-1.3,7-1.6,14.6-8.7,19
	L105.9,249.2z"/>
<path fill-rule="evenodd" clip-rule="evenodd" d="M144.1,234.7c2.2-6,4.4-11.9,6.6-17.9c0.9,7.3-0.2,13.7-7,17.5
	C143.7,234.3,144.1,234.7,144.1,234.7z"/>
<path fill-rule="evenodd" clip-rule="evenodd" d="M164.4,268.7c1.6-5.4,3.1-10.8,4.7-16.2c0.9,0.3,1.8,0.7,2.7,1
	c-1.3,5.5-2.4,11.2-7.7,15L164.4,268.7z"/>
<path fill-rule="evenodd" clip-rule="evenodd" d="M183.1,326.2c-4.4-6.6-2.8-12.5,2.8-20c-1.2,7.9-2.1,14-3,20
	C183,326.3,183.1,326.2,183.1,326.2z"/>
<path fill-rule="evenodd" clip-rule="evenodd" d="M161.6,136.7c-1.7,3.2-3.4,6.4-5.2,9.6c-0.8-0.4-1.6-0.8-2.4-1.1
	c1.5-3.2,3.1-6.5,4.6-9.7C159.7,135.8,160.6,136.2,161.6,136.7z"/>
<path fill-rule="evenodd" clip-rule="evenodd" d="M190.3,290.7c1.5-3.2,3-6.3,4.4-9.2c1,0,1.3,0,1.6,0c-1,3.6-2.1,7.1-3.1,10.7
	C192.2,291.7,191.3,291.2,190.3,290.7z"/>
<path fill-rule="evenodd" clip-rule="evenodd" d="M105.9,176.9c1.8-4.5,3.7-9,5.5-13.4c0.9,0.5,1.8,1,2.7,1.5c-1,5.1-3.8,9-8.5,11.7
	C105.6,176.7,105.9,176.9,105.9,176.9z"/>
<path fill-rule="evenodd" clip-rule="evenodd" d="M144.5,167.7c-2.1,3.8-4.1,7.7-6.2,11.6c-0.8-0.4-1.7-0.8-2.5-1.2
	c2-4,4-8.1,6-12.1C142.8,166.5,143.7,167.1,144.5,167.7z"/>
<path fill-rule="evenodd" clip-rule="evenodd" d="M117.9,213.7c2-2.8,4-5.5,6-8.3C124.6,210.1,126.6,215.7,117.9,213.7L117.9,213.7z
	"/>
<path fill-rule="evenodd" clip-rule="evenodd" d="M114.7,230.3c1.1-5.5,2.1-11.1,3.2-16.7c0,0,0,0,0,0c3.6,6.5,0.2,11.4-3.5,16.3
	C114.4,230,114.7,230.3,114.7,230.3z"/>
<path fill-rule="evenodd" clip-rule="evenodd" d="M824.8,710.3c-6.5,8.1-13,16.2-20.5,25.5c-2-2.4-4.3-4.4-5.6-6.8
	c-2-3.6-3.2-7.6-5-11.3c-5.2-11-5-12.3,4.9-20.7c14.1-12.2,14.1-12.1,21.4,4.6C821.1,704.3,823,707,824.8,710.3z M808.9,703.9
	c-0.9-0.4-1.7-0.7-2.6-1.1c-1.4,2.6-3.4,5.1-4,7.9c-0.2,0.9,3.4,2.6,6.6,4.9C808.9,710.4,808.9,707.2,808.9,703.9z"/>
<path fill-rule="evenodd" clip-rule="evenodd" d="M760,797.7c1.1,25.8-13.6,41.5-36.5,41.5c-10.2,0-16.4-5-20.3-13.7
	c-6.2-13.7-0.2-37.9,11.1-48.3c13.7-12.7,36.5-8.2,45.2,9.1c1,1.9,1.4,4.3,1.4,6.5C760.9,794.9,760.1,797.1,760,797.7z M738,783.6
	c-3.8,8.7-16.6,13.9-9.4,27c4.2,7.5,10.6,8.3,24.3,3.6C756.1,794.4,753.7,789.1,738,783.6z"/>
<path fill-rule="evenodd" clip-rule="evenodd" d="M856.9,846.9c1.9,12.5-2.3,21.8-14.6,26.3c-12.2,4.5-24.5,5.5-34.9-3.8
	c-3.6-3.1-6.2-8.1-7.7-12.7c-5.9-19.2,15.6-45.3,35.8-44.7c5.8,0.2,9.7,2,12.6,6.6C853.6,827.3,859.1,836,856.9,846.9z M850.6,854.3
	c1.5-19.1-3.2-24.2-20.9-22c-0.5,6.1-3.7,14-1.1,18.8C833.1,859.5,842.4,854.6,850.6,854.3z"/>
<path fill-rule="evenodd" clip-rule="evenodd" d="M429.3,494.4c-9.8,4.2-9.8,4.2-15.2-1.3C419,488,423.5,489.7,429.3,494.4z"/>
</svg>
