<?xml version="1.0" encoding="utf-8"?>
<!DOCTYPE svg PUBLIC "-//W3C//DTD SVG 1.1//EN" "http://www.w3.org/Graphics/SVG/1.1/DTD/svg11.dtd">
<svg artist="zl2017" version="1.1" id="zlIcon-shape-height" xmlns="http://www.w3.org/2000/svg" xmlns:xlink="http://www.w3.org/1999/xlink" x="0px" y="0px"
	 width="1000px" height="1638.9px" viewBox="0 0 1000 1638.9" enable-background="new 0 0 1000 1638.9" xml:space="preserve">
<path fill-rule="evenodd" clip-rule="evenodd" d="M435.6,1487.4c-10.8-46.9-20.2-87.6-29.7-128.3c-1.7-7.3-0.3-12.1,10.2-12.7
	c4.2,15.9,8.5,32.3,14.5,55.2c0.4-37.4,5.1-68.3-3.2-99c-0.3-1-0.4-2-0.4-3.1c-1.7-29.7-3.8-59.4-5.1-89.1c-1.6-38-2.8-76-3.9-114.1
	c-0.4-12.3,0.1-24.6,0.1-36.9c0-32.8-1.4-65.6-3.7-98.4c-2.2-31.4,1.2-63.3,2.2-95c0.4-11.3,1-22.6,1.5-33.9
	c1.2-24.6,3.1-49.2,3.3-73.9c0.2-24.6-1.4-49.3-1.7-73.9c-0.2-17.4,0.5-34.8,0.9-52.2c0.1-4.1,1.1-8.2,1-12.3
	c-1.1-65.9,8.1-131.4,5.3-197.3c-0.6-13.1,2.7-26.4,3.7-39.6c0.8-10.2,0.5-20.6,1.2-30.8c0.9-13.3,1.5-26.6,3.9-39.7
	c3.8-21-4.7-40.6-5.5-61.1c-0.1-1.5-2.3-3.5-4.1-4.3c-10.3-4.8-7.4-12.8-5.9-21.1c4.5-24.1,7.8-48.5,12.8-72.5
	c1.7-8.3,2.4-15.9,1.2-24.2c-1.5-10.5-0.9-10.6,8-29.1c11.5,7.6,14.2,19.5,16.5,31.7c4.3,22.1,8,44.3,13.5,66.1
	c5.2,20.7,12.3,41,18.6,61.7c-3.7,4.6-9.1,6.3-12.3,0.8c-6.1-10.6-10.6-22-16.2-34c-9.5,6.8-12.3,15.4-12.1,25.8
	c0.3,13.4,0.4,26.8,0.1,40.2c-0.4,17.4,1.9,34.8-4,52c-2.6,7.4-1.1,16.3-1.2,24.6c-0.1,29.8,3.5,60.2-1,89.2
	c-7,45.1-0.2,90.4-6.9,135.4c-3.3,22.2-0.2,45.3-0.9,67.9c-0.6,21.4-2.5,42.7-3.4,64.1c-0.3,7.1,0.9,14.2,1.2,21.2
	c0.6,14.3,3.8,29.2,1,42.8c-3.3,16.5-3.5,32.7-3.5,49.1c0.1,58.6,0.6,117.2,0.7,175.8c0,16.5-0.9,32.9-0.7,49.3
	c0.3,24.6-0.2,49.1,3.8,73.8c3.9,24.1,1.8,49.2,2.5,73.9c0.7,26.7,0.9,53.4,2.5,80c1.1,18.2,4.1,36.1,6.4,54.5
	c10.9-0.6,6-15.8,16-16.4c1.5,1,4.6,2.1,4.5,3c-1.2,18.2-2.4,36.6-4.5,54.8c-2.2,19.3-5,38.6-8.1,57.8c-1.6,10.1-4.1,20.1-7.1,29.8
	C446.9,1478.1,442.8,1480.3,435.6,1487.4z"/>
<path fill-rule="evenodd" clip-rule="evenodd" d="M998.7,1638.3c-5.5-0.1-11.4-0.2-17.2-0.3c-16.5-0.5-32.6-6.1-49.6,0.3
	c-4.5,1.6-9.2-0.4-13.9-0.8c-29.7-2.8-59.4-5.1-89.1-8.7c-26.4-3.3-52.9,1.1-79.5,4.7c-17.1,2.3-34.2,2.4-51.2,2.4
	c-31.1,0-62.2-1-93.3-1.2c-14.5-0.1-29.1,0.8-43.6,1.2c-1.3,0.1-2.7,0.6-4,0.2c-19.2-6.4-39.5-1.1-59-5.3c-16.6-3.6-33.8-6-51.2,0.3
	c-1.9,0.7-4,0.4-6,0.3c-33.1-1.5-66.1-2.9-99.1-4.6c-33.7-1.7-67.4-4.4-101.2-5.2c-13.7-0.3-27.8,3.3-41.7,5.1
	c-2.7,0.3-5.4,0.9-7.9,0.6c-20.4-2.2-41.1,1.4-61.7,2.7c-17.2,1.1-34.4,0-51.6,1c-16.5,1-33.1,3.3-49.6,4.9c-2,0.2-4.3,0.1-5.7-1.5
	c-1.3-1.5-1.9-5-2.1-7.9c-0.1-1.2,1.7-3.3,2.9-4.3c1.2-0.9,2.6-1.2,3.9-1.2c17.2,0.1,34.4,0.6,51.7,0.4c9.2-0.1,18.6-0.4,27.9-2.3
	c28-5.7,55.6-3.4,83.5-6c19.9-1.8,39.7,0.2,59.6,0c13.9-0.1,27.8-1.4,41.6-1.3c13.3,0.1,26.2,4.3,39.8-0.7c2-0.7,4-0.3,6-0.2
	c33.1,1.8,66.1,3.6,99.2,5.3c17.2,0.8,34.4,1,51.6,2.2c7.8,0.5,16.1-2.7,23.4,3.6c2,1.7,5.1,0.7,7.8,0.4c3.3-0.4,6.7-2,10-1.8
	c32.4,1,64.7,2.6,97.1,3.3c24.4,0.6,49,0,73.5,0c6.6,0,13.4-1,19.9-0.2c16.5,2.2,33-0.4,49.7-4c11.8-2.5,23.8-3.3,35.6-3.4
	c14.6-0.2,29.2,0.2,43.6,2.1c21.6,3,43,7.1,65.1,4.2c7.3-1,14.5,1.3,21.8,1.7c19.2,1.2,38,6.1,57.6,1.6
	C997.1,1624.6,1001.3,1626.2,998.7,1638.3z"/>
<path fill-rule="evenodd" clip-rule="evenodd" d="M2,3.4c13.6,0.4,27.1,1.3,40.7,1c13.8-0.3,27.5,1.2,41.6-2.7
	c10.5-3,21.2-0.8,31.8-1.2c23.3-0.9,46.6-1.2,69.5,2.4c15.1,2.3,30.3,3.6,45.5,5c8.5,0.8,16.9,3.5,25.8-1.6c1.9-1.1,4-0.4,6-0.4
	c12.5,0,25.2-1.3,37.6,0.4c11.1,1.5,22.1,2.2,33.3,1.7c12-0.5,24-1.7,35.9-2.6c4-0.3,8-1,12-0.8c9.2,0.5,18.2,1.7,27.8-1.4
	c7.1-2.2,14.5,0.3,21.8,1.2c12.4,1.6,24.7,5,37.6-0.3c1.3-0.5,2.7-0.4,4-0.4c19.8,0.7,39.7,1.1,59.5,2.2c32.3,1.7,64.5,4.6,96.9,5.3
	c19.1,0.4,38.5-2.9,57.7-3.7c8.6-0.3,17.2,1.3,25.7,2.4c25.6,3,51.6,3.8,77.5-1.4c17.7-3.6,33.9,0,50.4,5.2c3.8,1.2,7.8,2.3,11.7,2
	c32.6-2.7,64.5,1.7,96.4,5.6c1.8,0.2,3.6,1.6,5.3,2.5c-1.5,9.4-6.2,9.4-9.9,9.4c-9.2,0-18.6,0.1-27.5-2.1
	c-16.8-4.3-34.2-1.6-51.2-4.3c-16.3-2.6-32.8-4.5-49.4-5.3c-15.8-0.7-31.7-1.2-47.6,1.4c-8,1.3-15.9,2.5-23.8,1.5
	c-26.9-3.7-54.2-2.6-81.5-0.5c-2.6,0.2-5.3,0-7.9-0.2c-19.1-1.5-37.9-4.4-57.5-1.8c-15.9,2.1-31.6-2.9-47.4-4.3
	c-9.8-0.9-19.6-4.4-29.8,1.4c-1.2,0.7-2.6,0.4-4,0.3c-19.9-0.5-39.7-0.8-59.6-1.5c-23.8-0.9-47.4-3.3-71.5,1.4
	c-2.6,0.5-5.4,0.1-7.9-0.6c-16.3-4.4-33.2,2.4-49.7,1.6c-8.6-0.4-17.3,1.4-25.8,0.5c-19.8-2.1-39.5-2.9-59.7,1.9
	c-5.2,1.2-10.6,0-15.9-0.6c-27-2.9-53.8-6.7-80.9-8.5c-16.4-1.1-33.1-1.3-49.6,1.7c-30.3,5.6-59.6-0.8-89.3-1.9
	C4.5,13,2.6,9.4,0.5,7.5C1,6.1,1.5,4.8,2,3.4z"/>
</svg>
