<?xml version="1.0" encoding="utf-8"?>
<!DOCTYPE svg PUBLIC "-//W3C//DTD SVG 1.1//EN" "http://www.w3.org/Graphics/SVG/1.1/DTD/svg11.dtd">
<svg artist="zl2017" version="1.1" id="zlIcon-shape-roll" xmlns="http://www.w3.org/2000/svg" xmlns:xlink="http://www.w3.org/1999/xlink" x="0px" y="0px"
	 width="1000px" height="572.3px" viewBox="0 0 1000 572.3" enable-background="new 0 0 1000 572.3" xml:space="preserve">
<path fill-rule="evenodd" clip-rule="evenodd" fill="#FFFFFF" d="M720.9,265.9c14.9-18.3,35.9-26.3,55.8-35.7c21.2-10,43-19,65-27
	c10-3.6,21.8-5.2,29.1,6.5c7.7,12.1,3.5,23.6-5.5,32.1c-18.4,17.4-36.4,36.3-57.7,49.7c-53.2,33.5-108.8,63.1-162.1,96.6
	c-29.2,18.4-60.1,27.9-93.5,32.4c-19.2,2.5-34.5-2.1-47.5-16.9c-7.5-8.5-16.3-16.3-25.8-22.4c-14.9-9.5-30.5-18-46.5-25.6
	c-40.7-19.4-82.2-37.5-128.1-39.5c-11-0.5-22.9,3.3-33.3,7.6c-35.2,14.8-69.8,31.1-104.9,46.2c-27,11.7-54.6,22.1-81.6,33.9
	c-9,4-16.8,10.4-29.5,18.5c11.7,4.2,16.9,6.9,22.4,7.9c53.1,9.5,105.9,19.8,155.6,42c5.3,2.4,11.3,3.2,17.1,4.1
	c43.6,6.9,81.4,27.6,119,49c2.7,1.6,6.3,5.6,6,8c-2.2,16.5,8.5,14.8,17.7,12c23.5-7.1,47.5-13.3,69.6-23.6
	c74.8-34.6,150.3-67.4,221.1-110.6c59.1-36,125.1-60.8,173.9-112.6c46.8-21.3,67.6-67.1,96.5-104.7c9-11.7,11.6-29,14.2-44.3
	c1-5.7-4.9-15.9-10.5-18.9c-20.8-11-42-20.2-67.2-11.3c-64.2,22.4-125.9,50.4-183.9,85.5c-47.9,29-93.9,61-131.7,103.2
	c-11.1,12.3-24.5,23.6-31.9,38c-7,13.6-20,28.9-7.5,46.3c7.6,10.5,31.2,10.6,52.4,0c25.4-12.7,50.6-25.7,75.1-39.9
	c36.5-21.3,72.4-43.6,108.2-65.9c17.3-10.8,34.2-22.3,50.9-34c8.4-5.9,14-13.5,8.7-24.6C788.1,225.1,761.4,264.9,720.9,265.9z"/>
<path fill-rule="evenodd" clip-rule="evenodd" fill="#FFFFFF" d="M193,257.9c41,10.1,74.1,19,107.6,26.4c19.9,4.4,41.9,2.6,60,10.4
	c44.9,19.2,93,32.5,131.9,64.3c1.8,1.5,5.2,1,10.9,2c6.4-34.6,31.5-55.7,55.3-77.6c8.6-7.9,18.3-14.7,27.6-21.9
	c31.8-24.7,63.6-49.5,95.6-74c38-29.2,84.9-39.9,127.1-60.5c17.8-8.7,31.1-19,39.8-37c-25.2-31.7-56.1-53.6-94.6-61
	c-16.6-3.2-34.9,1.9-52.3,3.9c-13.5,1.6-27.3,2.7-40.1,6.8c-27,8.6-53.5,19-80.1,28.8c-63.7,23.3-127.2,46.8-190.9,70.1
	c-62.2,22.8-119.5,54.9-173.5,92.9C209.2,237.1,203.5,246.3,193,257.9z"/>
<path fill-rule="evenodd" clip-rule="evenodd" d="M4.1,487.9c-1.3-17.3-1.7-29.8-3.3-42.2c-2.1-16.6,5.5-29.1,17.4-37.9
	c11.7-8.7,25.1-16.1,38.9-20.7c45.5-15,92-27.2,137.2-42.9c21.7-7.5,41.4-20.7,64.6-32.6c-28.4-27-64-26.9-94.2-42.1
	c-4.3-15.6,1.4-27.6,15.1-36.7c50.8-33.5,101.6-66.6,157.8-90.9c56.6-24.4,112.3-51.3,169.4-74.5c34.4-14,71.3-21.8,106.1-34.8
	c49.3-18.4,101.5-21.3,152.4-30.9c47-8.8,83,18.7,117.4,44.8c22.7,17.2,44.2,35,70.6,47.3c30.8,14.3,48,38.7,45.7,75.3
	c-1.1,17.6-10.6,29.8-20.2,41.5c-34.9,42.7-73.3,82.2-117.6,115.2c-32.2,24-64,49.4-98.9,69C703.7,427.8,646.1,463.4,582,487
	c-35.6,13.1-67.7,35.6-102.5,51.5c-27.5,12.5-56.5,22.1-85.3,31.5c-14.6,4.8-29.3,2-41.6-8.4c-47.6-40.1-106.8-57.3-162.6-80.7
	c-13.7-5.8-30.7-5.4-46.1-5.2c-32.1,0.4-64.4-8.2-96.5,0.5C34.5,479.7,21.6,483.2,4.1,487.9z M720.9,265.9
	c14.9-18.3,35.9-26.3,55.8-35.7c21.2-10,43-19,65-27c10-3.6,21.8-5.2,29.1,6.5c7.7,12.1,3.5,23.6-5.5,32.1
	c-18.4,17.4-36.4,36.3-57.7,49.7c-53.2,33.5-108.8,63.1-162.1,96.6c-29.2,18.4-60.1,27.9-93.5,32.4c-19.2,2.5-34.5-2.1-47.5-16.9
	c-7.5-8.5-16.3-16.3-25.8-22.4c-14.9-9.5-30.5-18-46.5-25.6c-40.7-19.4-82.2-37.5-128.1-39.5c-11-0.5-22.9,3.3-33.3,7.6
	c-35.2,14.8-69.8,31.1-104.9,46.2c-27,11.7-54.6,22.1-81.6,33.9c-9,4-16.8,10.4-29.5,18.5c11.7,4.2,16.9,6.9,22.4,7.9
	c53.1,9.5,105.9,19.8,155.6,42c5.3,2.4,11.3,3.2,17.1,4.1c43.6,6.9,81.4,27.6,119,49c2.7,1.6,6.3,5.6,6,8
	c-2.2,16.5,8.5,14.8,17.7,12c23.5-7.1,47.5-13.3,69.6-23.6c74.8-34.6,150.3-67.4,221.1-110.6c59.1-36,125.1-60.8,173.9-112.6
	c46.8-21.3,67.6-67.1,96.5-104.7c9-11.7,11.6-29,14.2-44.3c1-5.7-4.9-15.9-10.5-18.9c-20.8-11-42-20.2-67.2-11.3
	c-64.2,22.4-125.9,50.4-183.9,85.5c-47.9,29-93.9,61-131.7,103.2c-11.1,12.3-24.5,23.6-31.9,38c-7,13.6-20,28.9-7.5,46.3
	c7.6,10.5,31.2,10.6,52.4,0c25.4-12.7,50.6-25.7,75.1-39.9c36.5-21.3,72.4-43.6,108.2-65.9c17.3-10.8,34.2-22.3,50.9-34
	c8.4-5.9,14-13.5,8.7-24.6C788.1,225.1,761.4,264.9,720.9,265.9z M193,257.9c41,10.1,74.1,19,107.6,26.4c19.9,4.4,41.9,2.6,60,10.4
	c44.9,19.2,93,32.5,131.9,64.3c1.8,1.5,5.2,1,10.9,2c6.4-34.6,31.5-55.7,55.3-77.6c8.6-7.9,18.3-14.7,27.6-21.9
	c31.8-24.7,63.6-49.5,95.6-74c38-29.2,84.9-39.9,127.1-60.5c17.8-8.7,31.1-19,39.8-37c-25.2-31.7-56.1-53.6-94.6-61
	c-16.6-3.2-34.9,1.9-52.3,3.9c-13.5,1.6-27.3,2.7-40.1,6.8c-27,8.6-53.5,19-80.1,28.8c-63.7,23.3-127.2,46.8-190.9,70.1
	c-62.2,22.8-119.5,54.9-173.5,92.9C209.2,237.1,203.5,246.3,193,257.9z"/>
<path fill-rule="evenodd" clip-rule="evenodd" d="M333.4,230.3c22.9-27.2,115.7-76.4,145.1-78.8c-27.6,15.5-51.7,28.8-75.5,42.6
	C380.2,207.5,361.2,228,333.4,230.3z"/>
<path fill-rule="evenodd" clip-rule="evenodd" d="M509,178.9c-39.7,20.5-79.5,41-119.2,61.5c-1.3-2.5-2.6-5-3.9-7.5
	c35.7-27.6,79-40.6,118.9-60.1C506.2,174.8,507.6,176.8,509,178.9z"/>
</svg>
