<?xml version="1.0" encoding="utf-8"?>
<!DOCTYPE svg PUBLIC "-//W3C//DTD SVG 1.1//EN" "http://www.w3.org/Graphics/SVG/1.1/DTD/svg11.dtd">
<svg artist="zl2017" version="1.1" id="zlIcon-shape-width" xmlns="http://www.w3.org/2000/svg" xmlns:xlink="http://www.w3.org/1999/xlink" x="0px" y="0px"
	 width="1000px" height="195.4px" viewBox="0 0 1000 195.4" enable-background="new 0 0 1000 195.4" xml:space="preserve">
<path fill-rule="evenodd" clip-rule="evenodd" d="M80.6,85.8c-7.4,2.8-14.4,5.6-21.4,8.3c-0.2,0.1-0.3,0.4-0.5,0.7
	c0.1,1.5,1.2,1.7,2.3,1.6c5.8-0.5,11.6-1.2,17.5-1.8c6.4-0.7,12.8-1.4,19.2-2c7-0.6,14-0.7,21-1.4c7.5-0.8,14.9-2.2,22.4-3.2
	c1.7-0.2,3.3-0.4,5-0.4c8.7-0.4,17.5-0.1,26-1.5c11.2-1.8,22.4-0.5,33.6-1.6c8.3-0.8,16.7-1.3,25.1-1.9c2-0.1,3.9-0.1,5.9-0.1
	c10.7,0,21.4,0,32,0.2c3.3,0.1,6.7,0.7,10,0.8c10.6,0.3,21.2,0.2,31.8-0.8c8.1-0.7,16.3-0.2,24.4,0c6.4,0.1,12.9,0.6,19.3,0.8
	c5.6,0.2,11.2-0.3,16.8,1.1c2.1,0.5,4.5,0.2,6.7,0.2c11,0,21.9,0.1,32.9,0c7.8,0,15.7,0.3,23.5-1.2c4.3-0.8,8.8-0.9,13.4-0.4
	c4.9,0.5,10-0.7,15.1-0.8c18.3-0.1,36.6,0,54.8,0c3.4,0,6.7,0.6,10.1,0.5c15.7-0.1,31.4-0.3,47.1-0.7c11.2-0.3,22.4,0.6,33.6,0.3
	c6.9-0.2,14,0.3,20.9,1.8c3.5,0.7,7.3,0.2,10.9,0c3.9-0.2,7.8-0.9,11.7-1c19.1-0.4,38.2-1.3,57.3-0.9c13.5,0.3,26.9,1.5,40.4,0.6
	c15.4-1,30.9-1.3,46.3-0.6c15.4,0.6,30.9,0.5,46.3,1c11.7,0.4,23.4,2,35.1,2.5c9.8,0.4,19.7,0.5,29.5-0.2c5.4-0.4,10.4,0.9,15.7,0.8
	c-0.9,3-2.3,4.3-4.4,4.2c-1.9-0.1-3.9-0.8-5.8-0.9c-7-0.1-14.1-0.1-21.1,0c-1.7,0-3.3,0.7-4.9,0.8c-1.6,0.2-3.5,0.7-4.9,0.2
	c-4.1-1.5-8.3-0.9-12.5-1.1c-7.3-0.2-14.5,0-21.8-1.1c-7.4-1.1-15.1-0.8-22.7-0.8c-9.2,0-18.4,1-27.5-1.4c-0.8-0.2-1.8-0.5-2.5-0.2
	c-8,2.5-16.2-0.1-24.3,0.9c-5.2,0.6-10.6-0.5-15.9-0.7c-2.2-0.1-4.6-0.4-6.7,0.1c-2.8,0.7-5.5,0.9-8.3,0c-0.8-0.2-1.8-0.5-2.5-0.2
	c-8,2.7-16.2-0.6-24.2,0.8c-13.1-2.1-26.4-0.8-39.6-0.9c-10.4-0.1-20.7,0.9-31.1,1.4c-2.2,0.1-4.5,0.4-6.6-0.2
	c-5.3-1.3-10.6-1.4-15.9-1.4c-4.8,0-9.6,0.5-14.2-1.1c-1-0.4-2.2-0.2-3.3-0.1c-6.7,0.7-13.3,1.7-20,2.1c-8.1,0.4-16.3,0.2-24.4,0.2
	c-1.4,0-2.8-0.5-4.1-0.5c-5.6,0.2-11.2,0.8-16.8,0.7c-9.5-0.2-19.1,0.5-28.6-0.6c-5.5-0.6-11.2,0.4-16.8,0.5
	c-5.9,0.1-11.8,0.9-17.6-0.8c-10,1.7-20-1.3-30.1,0.7c-7.9,1.5-16.2,1.2-24.3,1.3c-8.7,0.2-17.4,0.1-26.2,0
	c-20.5-0.3-41.1-0.2-61.5-1.3c-7.8-0.4-15.6-0.6-23.5-0.5c-8.1,0.1-16.3,1-24.4,0.7c-9.2-0.4-18.4,0.5-27.6-0.9
	c-6-0.9-12.3,0.2-18.5,0.4c-2.5,0.1-5,0.2-7.6,0.4c-6.4,0.4-12.9,0.9-19.3,1.1c-7.3,0.3-14.6,0.1-21.9,0.4
	c-6.1,0.2-12.2,0.8-18.3,1.3c-3.6,0.3-7.2,0.7-10.8,1.1c-11.6,1.6-23.6,0.2-35.1,3.3c-0.5,0.1-1.1,0.3-1.7,0.3
	c-10.4,0.1-20.6,2.4-31,1.5c-5.6-0.4-11.2,0.3-17.1,2.2c4,3.4,9.1,4.2,12.9,7.6c-1.3-0.1-2.6,0-3.7-0.4c-8.3-2.8-16.7-4.7-25.6-4.4
	c-1.1,0-2.4,0.1-3.3-0.3c-2.5-1.2-4.8-2.6-7.8-4.2c1-1.3,1.7-2.4,2.6-3.2c0.8-0.7,2-1,3-1.4c8.3-2.7,16.5-5.3,24.8-8
	C78.6,84,79.7,83.5,80.6,85.8z"/>
<path fill-rule="evenodd" clip-rule="evenodd" d="M11.4,191.7c-1.2,1.8-2.4,4.8-5.5,3.5c-2.4-1-1.3-4-1.5-6.1
	c-2.8-31.1-0.8-62.4-1.2-93.5c-0.1-7.5,1.9-15,1.2-22.6c-0.7-7.8-1.5-15.6-2.3-23.3c0-0.3-0.2-0.5-0.2-0.8c-0.5-8.7-1.3-17.3-1.4-26
	c-0.1-5,0.9-10,1.5-15c0.1-1.1,0.7-2.2,1.4-3C4,4,5.3,3.2,6,3.4c0.8,0.3,1.9,1.6,1.8,2.4c-0.3,3.6-1,7.2-1.6,10.7
	c-1,5.3-1.5,10.5,1,15.6c0.6,1.2,0.9,2.7,0.9,4c0,5.9,0.9,11.7,1.2,17.6c0.8,12.6,1,25.2,1.1,37.9c0.2,14.1,0.1,28.1,0,42.2
	c0,7.2,0.6,14.4,0.2,21.7c-0.4,6.9,0.6,13.9,0.9,20.9c0.1,1.6-0.8,3.3-0.8,4.9C10.8,184.7,11.2,188.1,11.4,191.7z"/>
<path fill-rule="evenodd" clip-rule="evenodd" d="M989.8,29.3c0,6.1-0.5,10.9,0.1,15.6c1.3,11.1,0.6,22.4,3,33.4
	c0.2,1.1,0.6,2.2,0.5,3.3c-0.9,10.1,0.5,20.2,1.7,30.2c1.6,12.3,0.3,24.7,1.8,37c0.8,6.4,1.1,12.8,2.4,19.1c0.6,3.3,0,4.5-3,6.1
	c-0.2,0.1-0.5,0.2-0.8,0.3c-1.8,0.7-3.6,1.9-5.5,0.4c-1.9-1.4-2-3.5-1.3-5.3c1.6-4.5,0.3-8.8,0.1-13.2c-0.5-11.2-3.3-22.2-1.9-33.5
	c0.4-3-0.3-6.2-0.4-9.2c-0.2-6.5-0.8-13-0.2-19.3c0.7-6.8,0.8-13.4-0.1-20.1c-0.5-4.4-0.3-9-0.3-13.5c0-6.8,0.1-13.5,0-20.3
	c0-2.8-0.3-5.6-0.7-8.4c-0.5-3.6-0.5-7.1,0.2-10.8c0.8-4.1,0.2-8.4,0.4-12.6c0.1-2.5,0.3-5,0.8-7.4c0.1-0.5,1.3-1.1,2.1-1
	c0.6,0,1.7,0.7,1.8,1.3c0.4,1.3,0.7,2.9,0.4,4.1C988.8,13.7,990.3,22.2,989.8,29.3z"/>
<path fill-rule="evenodd" clip-rule="evenodd" d="M908.2,80.6c2.7-2.6,4.7-2.2,6.8-1.3c7.8,3.2,16,4.7,24.4,5.7
	c3.5,0.4,7,1.8,10.4,2.9c0.4,0.1,0.7,0.8,1.4,1.6c-1.2,0.6-2.3,1.6-3.5,1.8c-9.7,1-19.3,2.9-28.7,5.6c-3.7,1.1-7.5,2.2-11.3,3.2
	c-1,0.3-2.1,1-3.1-0.1c0.1-0.5,0-1.3,0.2-1.4c10-3.3,20.1-6.5,30.6-9.9C926.9,84.7,917.2,85.3,908.2,80.6z"/>
</svg>
