<?xml version="1.0" encoding="utf-8"?>
<!DOCTYPE svg PUBLIC "-//W3C//DTD SVG 1.1//EN" "http://www.w3.org/Graphics/SVG/1.1/DTD/svg11.dtd">
<svg artist="zl2017" version="1.1" id="zlIcon-sheep-travel-dog" xmlns="http://www.w3.org/2000/svg" xmlns:xlink="http://www.w3.org/1999/xlink" x="0px" y="0px"
	 width="1000px" height="663.9px" viewBox="0 0 1000 663.9" enable-background="new 0 0 1000 663.9" xml:space="preserve">
<path fill-rule="evenodd" clip-rule="evenodd" d="M516,140.7c-2.8-5.5,0.3-10,2.8-14.4c0.8-1.4,3.2-2.2,5-2.6
	c1.9-0.4,3.9-0.1,6.3-0.1c0.6-3.6,1.1-7.1,1.9-12.3c3.6,4.1,6,6.8,8.9,10.2c1.5-2,2.6-3.3,3.4-4.7c3.1-5.7,2.9-12.8,7.7-18
	c1-1.1-1.4-5.5-2.4-8.8c-3.7,1.8-6.7,4.3-9.8,4.4c-2.6,0.1-5.3-2.5-8.9-4.5c-1.9,1.3-5,4.2-8.7,1.9c-3-1.8-5.7-4.3-9.5-7.2
	c-2.7,1-6.5,2.9-10.5,3.9c-2.2,0.5-5.2,0.3-7.1-0.9c-3.2-2.1-5.9-5.2-8.9-8.1c-2.5,1.7-5.5,3.7-9.1,6.1c-2.9-4.1-5.8-8.1-9.5-13.2
	c-2,6.2-3.6,11.3-5.2,16.4c-0.6,0-1.2-0.1-1.8-0.1c-0.6-1.7-1.9-3.5-1.6-5c1.6-6.6,2.4-13.7,9.3-18.5c2.4,2.1,4.9,4.3,7.8,7
	c1.1-1.1,2.4-2.1,3.3-3.3c2.5-3.1,4.6-6.6,7.3-9.5c5.5-5.9,5.9-6.2,1.2-11.9c-3.6-4.4-5.9-9-6.5-14.7c-0.2-2.2-1.3-4.2-2.1-6.8
	c-9.4,1-17.6,3.2-22.7,11.8c-4.3,7.3-10.8,11.6-19.4,10c-8.9-1.7-15.5-7.2-19.2-15.6C412,18.7,420.2,8.6,430,5.5
	c14-4.5,28.2-7.2,42.9-4.2c14.1,2.8,20.4,10.9,17.6,24.9c-1.1,5.4-0.1,9.5,2.3,13.8c4,7.3,6.9,8.1,13.5,2.8
	c7.9-6.3,16.9-9.4,26.7-10.7c9.6-1.3,19.2-3.2,28.9-4c4.7-0.4,9.7,0.3,14.3,1.5c6.9,1.8,14.2,3.4,20.3,6.8
	c7.4,4.2,14.3,9.6,20.5,15.4c9.2,8.5,16.7,7.5,24.8,2.1c8.9-5.8,17.2-12.5,25.9-18.5c7.3-5.1,14.4-7.1,24-4.6
	c11,2.9,18.7,9.6,26.6,16.4c6.5,5.6,12.3,11.9,18.4,18c4.2,4.2,3.7,9.2,0.5,13.3c-5.1,6.6-11.2,12.5-19.1,15.8
	c-9.5,4.1-18.3,2-26.8-3.6c-7.4-4.9-10.8-11.3-10.4-20.2c0.2-3.1-0.5-6.3-1.3-9.3c-2.3-8.4-10.3-10.3-16.4-7.7
	c-10.5,4.5-20.5,10-31.2,15.2c0.4,4.9,0.7,9.3,1.2,14.7c4.2-2,7.4-3.5,12.1-5.8c-1.1,5-2,8.6-3,13.4c3.6-1,6.5-1.8,9.3-2.5
	c6.9-1.9,8.2-0.9,8,6c0,1.4,0,2.8,0,5c4.5-1.7,8.4-3.3,12.7-4.9c7,4.7-0.3,10.2,1,16.1c3.6,0.7,7.9,1.5,13.4,2.5
	c-1.4,4-2.6,7.3-3.8,11c4.6,9.4,13.2,14.3,23.5,17.2c2.7,0.7,5.4,2.3,7.4,4.2c12.8,12.4,24.8,25.6,32,42.3c5,11.7,8.6,23.6,9,36.3
	c0.2,6,2.3,9.9,7.8,13c11,6.1,21.6,13.1,32.4,19.6c2.9,1.8,5.9,3.4,9.3,5.4c3-3,5.8-5.8,9.3-9.4c-5.7-5.4-10.9-10.4-15.3-14.6
	c-7.1,0.3-7.7,9.7-15.3,7.5c0.8-2.3,1-4.5,2.2-5.9c4.5-5.5,9.1-10.4,8.7-18.6c-0.1-2.9,5-5.8,7.4-9c3.4-4.4,7.1-2,11.7,0
	c7.2-8.2,14.4-16.2,21.5-24.5c2.1-2.4,2.3-5.3,2.2-8.7c-0.1-5.6,0.3-11.7,2.6-16.7c3.2-6.9,7.7-13.6,12.8-19.3
	c6.3-7,5.9-14.3,4.3-22.5c-6.9-1.4-11.8,2.3-17,5.1c-3.3,1.7-6.3,4-9.8,5.2c-8.1,2.8-13.9-0.8-15.4-9.5c-1.4-8.2-2.6-16.4-3.9-24.6
	c-1.4-8.6,2-14.4,10.1-15.7c12.7-1.9,25.2-0.9,36.9,5.3c3,1.6,5,3.7,5.3,7.3c0.4,4.5,1.1,9.1,1.6,13.6c0.6,5.4,1.4,10.7,1.7,16.1
	c0.1,2.5-0.8,5.1-1.3,8.4c1.7-0.6,3.2-1.1,4.6-1.8c6.6-3.2,13.4-3,20-0.6c4.4,1.6,8.2,1.2,12.5-0.4c4.5-1.7,9.4-2.4,14.1-3.6
	c4.2-1,6.8-2.6,7.1-7.9c0.5-7.3,0.9-14.9,4.9-21.6c0.7-1.1,0.7-2.7,0.7-4c0-12.9,8.4-21.6,21.5-21.2c8.8,0.3,17.6,1.7,25.7,6.1
	c6,3.2,11.2,7,14.3,13.9c-3.9,9.9-7.9,20.2-12.1,30.5c-2.3,5.8-5.7,7.4-11.6,4.4c-4.5-2.3-8.1-6.3-12.4-9c-5-3.3-10.3-6.1-15.5-9
	c-3.7-2.1-5.9-0.3-7.3,3.2c-2.6,6.6-1.9,12.9,2.2,18.7c3.9,5.6,7.5,11.5,12,16.6c5.9,6.8,2.1,13.6,1,20.4
	c-3.1,18.7-16.8,27.7-32.9,34c-2.5,1-5.6,0.7-8.4,0.6c-1.7-0.1-3.4-0.7-4.9-1.3c-8.3-3.5-16.8-3.6-24.8,0.3c-11,5.4-20,1.1-28.7-5.1
	c-1.6-1.1-3.1-2.4-5-3.9c-2.1,1.6-4.3,3-6.1,4.8c-6.6,6.6-13.1,13.3-20.1,20.5c6.4,7.6,12.8,15.2,19.4,23c3.4-1.4,6.5-2.8,9.6-4.1
	l-0.2-0.2c0,1.9,0.5,5.1-0.2,5.4c-7.1,2.8-3.7,7.1-2.1,11.2c0.5,1.3,1,2.6,1.5,3.7c-10.6,11.6-10.6,11.6-25.5,4.2
	c-0.6,1.1-1.5,3-2.6,4.6c-2.2,3.1-2.2,5.6,1,8.2c4.7,3.8,9.3,7.6,13.7,11.7c2.1,1.9,3.5,4.5,5.3,6.7c-0.4,0.5-0.7,1-1.1,1.5
	c-7.5-1.6-15-3.1-22.4-4.6c-4.7,20.6,4,46.6,19.5,69.9c-2.6,4.3-5.1,9.1-8.3,13.3c-2.9,3.7-12.2,1.4-15.2-4.4
	c-1.6-3.1-3.8-3.1-6-3.7c-1.2-0.3-2.7,0.3-3.9,0.8c-6.8,2.8-11.6,0-11.3-7c0.2-6.8,1.3-13.6,1.6-20.5c0.3-6.6,0.1-13.1,0.1-20.4
	c6,3.7,2.2,9.1,3.3,13.3c1.2,4.7,1.6,9.6,1.6,14.5c0,4.8-1,9.6-1.6,14.8c4.6-2.8,4.6-2.8,14-1.2c-7.4-22.9-10-46.4-7.2-70.6
	c-9.1-1-17.5,0-25.4,4.1c-3.7,2-6.3,4.6-7.8,8.7c-5.9,15.8-8.2,31.7-5.4,48.8c2.9,17.7,7.4,35.3,6.2,53.7
	c-1.5,24.3-11.5,43.4-29.6,59.6c-8,7.2-16.1,8.7-25.7,8.2c-2.7-0.2-5.4,0.4-9.8,0.7c2.7,2.2,3.9,3.5,5.5,4.4
	c3.9,2.2,7.9,4.5,11.9,6.4c6.6,3.2,13.3,1.8,18.6-2.2c7.6-5.6,13.8-12.7,17.5-21.8c4.4-10.9,11-20.7,18.3-30c4.4,3,3.5,6.6,1.7,9.8
	c-7,12.5-13.6,25.3-21.6,37c-3.9,5.7-10.1,10.2-16.1,13.7c-3.5,2-9,2-13.3,1.2c-16.2-3-28.6-13.3-42.2-22.6c2.6-2.9,5.4-3.9,8.6-3.9
	c3.5,0,6.9-0.3,10.4,0.1c9.3,0.9,17.5-2.4,25.6-6.1c1.8-0.8,3.5-2.1,5.4-2.6c6.1-1.7,9.5-5.8,12.3-11.2
	c8.4-16.1,12.4-32.9,12.3-51.2c-0.1-15.5-3.3-30.6-4.2-46c-0.2-2.6-0.5-5.3-1-9.5c-12.2,14.8-27.2,23.1-41.5,32.3
	c-2.9,1.9-3.8,3.9-3.7,7c0.1,4.6-0.2,9.2-0.2,13.8c0.1,11.6-3.2,21.9-10.3,31.1c-3.5,4.5-5.9,9.9-9.5,14.3
	c-6.9,8.2-15.9,14-25.4,18.9c-3.3,1.7-5.5,3.6-7,7c-6.6,15.3-13.6,30.4-19.9,45.7c-2.9,7.1-4.6,14.7-6.8,22c-0.7,2.2-1,4.7-4.2,4.4
	c-3.4-0.3-4.1-3-4.4-5.5c-1.3-15.4-7.8-29.3-12.6-43.6c-0.8-2.4-2.1-4.7-3.2-7.1c-2.3-4.9-5.7-7.5-11.5-7.1c-14.2,1-27-2.5-38.9-11
	c-6.2-4.4-13.9-6.7-19.3-12.6c-0.8-0.8-2.9-1.3-3.9-0.9c-6.3,2.7-13.7,3.9-17.9,9.8c-7.8,11-15.7,22-22.2,33.8
	c-8.3,14.9-17,29.8-18.5,49c-2.6-1.9-4.5-2.7-5.4-4.1c-4.4-6.7-6.5-14.3-7.8-22.2c-1.8-11.3-4.1-22.5-6.8-33.6
	c-1.5-6-4.4-11.8-7-17.5c-0.7-1.6-2.6-2.8-4.2-3.6c-10.3-5.1-20.6-10.1-31-15c-14.2-6.8-22.4-18-25.4-33.4c-1.3-6.7-3.8-13.2-4.8-20
	c-3.5-23.8,1.3-46.7,7.5-69.5c1.6-5.7,4-11.1,6.4-17.6c-1.6-1.4-3.9-3.4-6.3-5.5c-21.2,8.1-40.1,19.5-57.1,34.1
	c8.1,12.7,16,25.5,24.2,38.1c4.5,7,4.6,9.6,0.2,16.2c-1.7,2.6-3.1,5.5-4.6,8.2c-2.3,4.3-6.1,6.7-9.8,4.3c-9.8-6.5-16.9-0.4-24.4,4.1
	c-11.4,6.9-22.7,14-33.8,21.4c-9.6,6.3-19,12.9-28.2,19.7c-1.3,1-2,4-1.7,5.8c0.4,2.1,2.2,3.9,3.6,5.8c5.4,7.4,10.8,14.8,16.1,22
	c-0.1,0.9,0,1.6-0.3,2c-10.9,11.9-14.8,27.6-22.5,41.3c-8.4,14.9-16.1,30.3-23.2,45.8c-4.6,10.1-7.9,20.8-11.4,31.4
	c-2.5,7.5-6.1,14.7-6.4,23.1c-0.3,7.3-5.4,9.9-12.7,7.8c-10.7-3.1-21.3-6.7-31.9-10c-4-1.3-8-3-12.2-3.6c-11.9-1.5-23.9-3-35.9-3.4
	c-5.7-0.2-10.7-1.3-15.2-4.6c-9.7-7.1-19.4-14.3-29.1-21.4c-2.2-1.6-4.4-3.1-7.3-3.8c1,2.3,2.3,4.5,2.8,6.9
	c2.3,12.5-3.6,26.7-21.2,25.9c-7.7-0.4-15-2.4-20.7-8.7c-8-8.9-10.3-15-5.4-23.8c4.6-8.2,11-14.9,21.9-13.9c1.9,0.2,3.9,0,7,0
	c-12.3-10.9-25-19.6-37.5-28.4c-3.1-2.2-7.9-3.2-7.6-8.4c0.3-6.4-0.9-12.7,4.2-18.6c7.5-8.8,16.6-14.7,26.5-20.1
	c9.8-5.4,19.1-11.5,28.7-17.3c4.7-2.8,9.5-5.4,14.1-8.4c16.4-10.5,32.7-21.2,49.1-31.6c8.7-5.5,17.5-10.9,26.3-16.2
	c7.8-4.7,15.7-9.2,23.7-13.6c8.3-4.6,17.5-5.2,26.7-5c3.4,0.1,6.5,1.7,8.8,5.8c-7.3,1.4-14-3.5-21.1,1.1c2.5,4.5,4.7,9,7.3,13.3
	c5.9,9.6,10.5,19.7,12.7,30.9c1.6,8,3.7,8.7,11.8,9.6c6.8,0.7,13.4,2.8,20,4.4c5.1,1.2,10.2,2.4,15.3,3.6c0.3-0.6,0.7-1.1,1-1.7
	c-3.4-5.1-6.8-10.3-9.6-14.4c-5.3,1.3-9.7,3.2-14.1,3.1c-6.5-0.3-9.4-6.9-6.2-12.6c1.1-2,2.6-3.9,4.3-5.3
	c11.5-8.9,23.6-17,34.4-26.6c8.7-7.6,18.3-13.6,27.7-20.1c5.8-4,10.4-9.7,15.2-15c2.4-2.7,3-6.1,0.5-9.5c-1-1.4-1.6-3-2.5-4.5
	c-5.5-9.8-6.7-9.5-16.5-4.4c-9.5,4.9-18.4,10.4-26.2,17.7c-6.1,5.7-11.9,11.7-17.7,17.7c-6.9,7.2-13.6,14.5-20.8,22.2
	c5.9,4.3,9.1,9,9.4,15.9c-3.9-3.9-7.8-7.8-12-12.1c-2.3,3.7-7.9,4.6-8,10.9c-0.1,3.3-5,3.8-7.5,1.1c-2.9-3.1-2.6-10.1,0.4-13.3
	c10.4-10.7,21-21.1,31-32.1c16.2-17.8,30.7-37,43.8-57.7c-1.7-2.4-3-5-5-6.9c-5.1-5.1-3.3-12.4,4.7-15.5c13.3-5.2,28.5-1.5,38.3,9.8
	c7.2-10.7,14.1-21.4,21.5-31.8c7.5-10.4,15.5-20.5,23.5-31.1c-3-12.2-2.9-24.8,1.1-36.9c4.9-14.8,11.2-28.9,25.6-37.5
	c12.3-7.4,24.3-15.3,39.1-16.6c5-0.4,10,0.3,16.2,0.6c0.4-0.7,1.4-2.6,2.8-5.2c5.1,0,10.5,0,15.6,0c1.6-3.8,2.9-7,4.1-9.8
	c6,2.2,11,3.9,15.9,5.7c-4.2,4.9-8.7,0.4-13.5-0.6c-1.9,9.2-8.2,11-16.1,9.5c-5.7-1-5.7,4.7-8.4,6.9c-14.2-3.5-26.7,0.7-38.3,8
	c-16.7,10.4-26,25.7-30.2,44.9c-2.3,10.8-4.6,21.4-2.6,32.2c2.8,15.5,6.9,30.7,20.3,42c5.9-6.8,11.6-13.1,20.9-14
	c2.2,3.8,0,5.8-2.2,7.6c-13.9,12.1-21.1,28-25.8,45.5c-4.3,15.7-5,31.7-4.6,47.7c0.4,13.6,6.3,25.3,14.2,36.2
	c11.2,15.6,27.4,23.2,45.1,28c7.7,2.1,15.7,2.9,23.6,3.8c13.7,1.4,26.7-1.9,39.5-6.7c10.4-3.9,21.1-7.1,31.5-10.9
	c6.2-2.3,12.1-5.1,18.2-7.6c1.7-0.7,3.7-0.8,6.9-1.4c-4.5,9.6-15.1,9.4-21,16.7c1.6,2.1,2.8,4.8,4.8,6.4
	c16.2,13.5,34.7,19.6,55.9,16.4c4.5-0.7,9-1.9,13.5-2.5c21.7-2.9,40.6-13.3,57.4-25.7c12.4-9.2,22.1-23.2,22.5-40
	c0.2-9.7-2.4-19.6-4.7-29.2c-1.5-6.3-3.1-12.6-7.8-17.8c-1.9-2.1-1.4-6.2-2-9.5c2-2,4-2,5.7,0.4c2.5,3.5,5.1,7,7.1,10.8
	c2.1,3.8,4.3,5.3,9,4.3c12.6-2.6,24.1-6.8,31.7-18.2c3.2-4.7,7.6-8.7,10.2-13.7c9-16.7,8.9-34.2,2.4-51.6c-4-10.7-9.1-21-17.5-29.2
	c-1.6-1.6-2.8-3.6-4-5.2c0.9-3.5,3-4.1,5.3-2.6c3,2.1,5.8,4.6,8.5,7.1c1.8,1.7,3.3,3.8,6.1,7c0.8-4.7,1.8-7.9,1.8-11.1
	c-0.5-20.1-4.5-39.2-15.8-56.3c-6.2-9.3-11.3-19.6-20.5-26.3c-9.6-6.9-20.5-11.3-32-14.1c-1.8-0.4-4.3,1.1-6.2,2.1
	c-6.7,3.7-6.9,3.7-11-4.3c5.4-2.1,10.7-4.3,16.6-6.6c-0.7-3.3-1.5-7.1-2.6-12.1c-1.3-0.1-3.7-0.4-6.7-0.7c-0.4-5-0.7-9.7-1.1-15
	c-3.7,1.1-6.9,2.1-10.4,3.1c-1.3-3.3-2.6-6.4-4.2-10.5c-3.6,0.9-7,1.8-12,3.2c-1.8-1.8-4.5-4.7-7.6-7.8c-4.6,1.9-10.5,4.3-17,7
	c-1-4.7-1.7-8.1-2.6-12.3c-6,2.2-10.3,7.8-16.9,7.8c-1.1-2.8-2-5.3-3.5-9c-6.2,7.2-11.7,13.6-17.5,20.2c-2.9-1.5-5.4-2.7-8.7-4.3
	c-1.1,2.6-2.2,4.8-3,7.1c-2.1,6.5-3.6,7-9.4,2.7c-0.7-0.5-1.4-0.9-3.1-1.8c-1,3.4-2,6.5-2.9,9.6c-1.6,5.5-3.9,9.8-10.5,10.6
	c-2.4,0.3-4.6,2.7-7.5,4.4c-0.9-0.6-2-1.4-3.2-2c-2.7-1.4-4.8-1.1-6.6,1.7c-1.9,3.1-4.1,6.1-6.1,9.2L516,140.7z M181.8,407.8
	c-3.4,1.1-5.6,1.6-7.5,2.6c-6.4,3.2-12.7,6.6-18.9,10.1c-22.9,12.7-42.3,30.5-65.3,43c-0.3,0.1-0.5,0.3-0.7,0.4
	c-8.8,5.7-17.5,11.5-26.5,17c-13.4,8.2-27.3,15.7-40.4,24.5c-10.1,6.8-11.2,20.8-2.6,29c8.2,7.9,17.1,15.1,26,22.3
	c13.1,10.7,26.6,21,39.6,31.8c8.2,6.8,17.8,8.9,27.8,9.7c3,0.2,5.9-1.1,7.7-4.4c12.6-21.8,25.5-43.5,38.1-65.3
	c7.7-13.3,14.2-27.4,22.8-40.2c8.9-13.3,10.3-28.1,12-43.1c0.2-2-1.3-4.2-1.9-6.3c-1.6-5.1-3.2-10.2-4.9-15.3
	C185.5,418.8,183.8,413.9,181.8,407.8z M181.9,532.2c0.1-0.5,0.1-0.9,0.2-1.4c4.5,0.6,8.9,1.1,13.4,1.8c9.3,1.4,18.6,3.1,27.9,4.3
	c3.6,0.4,7.6-0.1,8.1-5.8c-5.2-1.6-10.3-3.3-15.5-4.7c-5.2-1.5-10.9-1.8-15.5-4.3c-4.7-2.5-10.9,1.9-14.9-3.8c1-0.9,1.7-1.9,2.2-1.8
	c15.4,2.8,30.8,5.7,47.1,8.8c0.7-2.2,1.6-4.9,2.7-8.2c-12.7-3.4-24.3-6.5-36-9.6c0.1-0.7,0.2-1.3,0.3-1.9c2.9,0.2,5.9,0.2,8.8,0.8
	c8.7,1.7,17.2,3.8,25.9,5.6c5.8,1.2,6.8,0.1,6.3-8.1c-8.9-1.7-18.1-3.3-27.3-5.1c-1.6-0.3-3-1.7-4.4-2.6c0.2-0.6,0.4-1.2,0.7-1.8
	c12,1.8,23.9,3.6,36.2,5.5c0.7-1.6,1.3-3.1,2.2-5.1c-12.5-4.5-24.5-8.6-34.9-16.5c12.3,3.5,24.5,6.9,36.5,10.3
	c6.1-8.2,5.6-10.4-2.9-13.4c-2.7-1-5.5-1.7-8.3-2c-7.9-1-15.9-1.1-23.6-2.7c-4.9-1-7.6,0.4-10.4,3.8c-6.8,8.5-14.1,16.7-20.5,25.4
	c-4.9,6.6-8.9,13.9-13.4,20.9c-2.6,4.1-5.4,8.1-8.1,12.2c-2.3,3.5-4.9,7-7,10.6c-10.1,17.4-20.1,34.8-30,52.2
	c-0.7,1.3-0.8,3-1.3,4.8c4.5,0.8,8.4,2,12.3,2.2c12.3,0.8,24.3,3,36.1,7c4.7,1.6,10,1.6,15,2.1c2.8,0.3,4.2-1.2,4.2-4.5
	c-1.4-0.7-2.8-1.8-4.4-2.1c-12.8-2.6-25.7-5.3-38.6-7.5c-4.1-0.7-8.2-0.5-11-5.7c2.6,0.2,4.3,0.1,5.9,0.4
	c15.2,2.5,30.5,4.7,45.5,7.8c6.2,1.3,9.9,0,12.4-5.7c-0.6-0.7-1.1-1.5-1.8-1.9c-10.2-5.8-21.9-5.5-32.8-8.2
	c-7.3-1.8-15.1-1.9-22.7-3c-1.1-0.1-2-1.5-3.1-2.4c1.1-0.7,1.6-1.3,2-1.3c13,1.6,26,3,38.9,5.2c6.9,1.2,13.6,4,21.2,6.3
	c1.2-2.4,2.4-4.7,3.9-7.7c-7.2-2.1-13.5-4.1-19.8-5.7c-6.2-1.6-12.9-2.1-18.8-4.5c-5.8-2.4-12.8,2.6-18.2-3.2
	c10.2-3,46,4.2,57.6,11.6c1.2-3.8,2.3-7.4,3.6-11.7c-9.9-2.4-18.6-5-27.6-6.7c-8.6-1.6-17.4-2.3-27.1-3.5c3.6-4.5,7.5-3.6,11.4-2.9
	c12.9,2.6,25.8,5.3,38.7,7.8c6.9,1.4,8.2,0.2,8-7.7c-7.3-2.1-14.5-4.7-22.1-6.1c-7.6-1.4-15.5-1.6-23.1-2.3
	c-0.4-3.7,0.9-4.5,3.5-4.1c12.8,2.2,25.6,4.3,38.4,6.6c7.5,1.4,7.5,1.5,9.3-7.1C210,538.7,196,535.5,181.9,532.2z M904.7,157
	c-1.1-13.8-2.4-15.8-11.1-18.5c-1.9-0.6-3.9-0.6-5.9-0.8c-20.4-1.4-32.3,7.8-39.9,24.9c-6.3,14.1,0.1,30.3,16.3,31.4
	c9.1,0.6,18.6-0.4,26-8.1C898.8,177,903.4,166.6,904.7,157z M907.3,140.2c5.7,20.1-1.5,35.7-13.7,49.9c5.9,4,11.5,3.6,17.1,2
	c3-0.9,5.8-2.4,8.9-3.2c8.5-2.2,14-7.6,16.6-15.8c4.2-13.1,2.8-25.4-6.6-36.1c-2-2.2-4.2-4.4-7.4-3.2
	C917.1,135.6,912.3,138,907.3,140.2z M313.5,320.7c-2.2-8.3-9-12.6-19.2-12.3c-1.4,0-2.9,0.5-4.3,0.4c-6.7-0.3-8.5,4.6-4.8,9.7
	c6.6,9.3,13.7,18.2,20.5,27.4c3.1,4.1,6.1,8.3,8.9,12.5c1.8,2.8,3.3,5.9,5.1,9.1c6.2-2.9,11.7-5.4,18-8.3
	c-5.5-8.5-10.6-16.3-15.7-24.2c-3.6,1.9-5.4,6.8-10.9,3.3C311.8,333.3,312.6,327.8,313.5,320.7z M322.7,386.2
	c-2.5-4.5-5.6-4.2-8.5-2.4c-13.3,8.3-26.6,16.8-39.8,25.3c-2.6,1.7-4.8,4.1-7.2,6.1c-10.8,9.4-21.6,18.7-32.4,28.1
	c-1,0.9-1.4,2.4-2.1,3.7c3.4-1.2,5.3-3.7,7.7-5.4c11.4-8.2,22.5-16.7,34.4-24c14-8.6,26.4-19.8,41.9-26.1
	C319.1,390.5,320.8,387.9,322.7,386.2z M31.7,587.4c0,9.7,4.2,15,14.3,18c5,1.5,8.2,0.5,11.1-3.6c4.2-6,2.6-16.8-3.5-20.9
	c-3.5-2.4-7.5-4.3-11.6-5.6c-5.5-1.8-9.7,1.3-10.4,6.9C31.5,583.9,31.7,585.7,31.7,587.4z M805.6,288.2c-1.1,0.7-1.8,0.9-1.9,1.3
	c-4.1,18.7-0.4,37.1,2.2,55.5c0.2,1.5,1.9,2.8,3.1,4c2.9,2.9,5.6,5.6,3.5,10.5c-0.6,1.5,1.2,4.1,2.1,6c0.2,0.5,1.3,0.6,2.1,0.9
	c0.5-2.4,0.9-4.5,1.3-6.4c3-0.5,5.5-0.9,8.1-1.3C814.8,335.7,803.5,314.1,805.6,288.2z M969.8,118.2c6.4-5.9,4.5-7.9,5.4-20.1
	c-5.6-1.9-11.3-5.1-17.2-5.7c-6.3-0.7-12.2,2.6-17.8,6.5C950.4,105.5,959.9,111.7,969.8,118.2z M819.4,98.4
	c0.6,9.7,0.9,17.9,3.5,26.7c10.1-4.9,19.4-9.4,29.5-14.4C842.9,101.7,831.1,102.6,819.4,98.4z M807,218.5c-1,0.1-2,0.3-2.9,0.4
	c-0.8,2.4-2.8,5-2.3,7c0.8,3.1,3,6.1,5.1,8.6c5,5.9,10.2,11.6,15.5,17.2c1.7,1.9,3.6,3.8,5.8,5.1c1.2,0.7,3.6,0.8,4.5,0.1
	c1-0.8,1.6-3,1.4-4.5c-0.2-1.6-1.2-3.2-2.3-4.5C823.5,238,815.2,228.3,807,218.5z M285,332.7c-5.4,10.4-13.4,17.2-16.3,27
	c8.1-5.8,16.8-10.4,24.3-17.3C290.3,339,288.2,336.5,285,332.7z"/>
<path fill-rule="evenodd" clip-rule="evenodd" d="M844.5,235.5c-1.3-7.2-2.7-14.4-3.7-21.7c-0.3-1.9,0.9-4.1,1.4-6.1
	c2,0.6,4.1,0.9,6,1.7c4.4,2,8.8,4.2,13,6.5c5.3,3,10.2,3.3,16.2,0.8c5.6-2.3,12.3-2.5,18.5-2.7c6-0.2,12,0.3,18,1.1
	c9.6,1.2,19.2,2.9,28.8,4.4c4.1,0.6,8.2,1.1,12.3,1.6c0.3-0.7,0.6-1.3,0.9-2c-8.9-6.8-17.9-13.7-27.1-20.7c2.4-3.9,5.6-2.5,8-0.8
	c6.1,4.3,11.8,9,17.7,13.6c2.5,1.9,4.7,4.3,7.3,5.9c1.5,1,3.7,1.6,5.4,1.3c9.2-1.2,17.4,1.2,25,5.9c6.7,4.2,9.2,13.3,5.8,20.4
	c-2.2,4.5-10.2,8.1-16.5,6.4c-6.6-1.8-13-4.4-19.1-7.3c-3.8-1.8-7.1-4.7-6.2-10.1c0.7-3.7-2.7-5-5.3-5.6c-9.2-2.2-18.4-4.2-27.7-5.7
	c-6.5-1.1-13.2-1.9-19.7-1.5c-6.7,0.4-13.6,1.9-20,4.1c-7.5,2.5-14.3,2.6-21.3-1.4c-3.9-2.2-8.3-3.5-12.9-5.4
	c-3.1,6.1,1.6,11.5,0.6,17.7c-2-0.2-3.9-0.4-5.7-0.6C844.3,235.3,844.5,235.5,844.5,235.5z"/>
<path fill-rule="evenodd" clip-rule="evenodd" d="M151.6,616.2c7.7,0.1,18.8,10.8,20.1,21.9c1.2,11.4-7.6,23-19.6,25.7
	c-2,0.5-4.5-0.3-6.5-1.2c-8-3.6-14-9.8-19.4-16.5c-4.6-5.7-4.2-12.4-0.1-17.6C131.5,621.5,138.1,615.2,151.6,616.2z M154.4,628.4
	c-7,0-9.6,2.9-8.9,10c0.2,2,0,4.1,0.3,6c1,6,6.7,11.5,11.8,11.5c4,0,9-6.8,9.4-12.8C167.5,637,160.1,628.4,154.4,628.4z"/>
<path fill-rule="evenodd" clip-rule="evenodd" d="M804,389.8c5.7,9.7,11.3,19.5,22.6,24.5c-0.8,5.8-1.3,11.5-2.3,17
	c-0.7,3.4-7.4,6.7-11.6,4.8c-6-2.7-9.3,0.8-12.6,4.1c-5.9,6-5.8,6.1-12.9,2.1c-1.7-1-3.5-2-5.5-3.2c-0.6-6.5-0.9-13-1.9-19.5
	c-1-6.4-2.7-12.8-4.2-19.2c-1-3.9-1.1-3.9,2-10c0.5,2,0.8,3.2,1,4.4c0.7,3.6,0.6,7.5,2.1,10.7c3.6,7.9,6.4,15.9,5.8,24.8
	c-0.3,4.4,2.1,6.2,5.8,7.3c3.5-2.2,7.1-4.5,11.6-7.4c-2.1-4.1-4.2-8.1-6.2-12.1c-7-14.3-8.4-29.5-7.5-45c0.1-1.7,2.9-3.2,5.4-4.3
	c-0.1,11.1-2.5,21.9,1.8,32.2c4.2,10,8.9,19.8,13.6,30.4c2.6-0.8,5.1-1.5,7.9-2.3c0.2-2.3,0.1-4.3,0.5-6.2c0.8-3.2-0.2-4.9-2.6-7.3
	c-4.8-4.8-8.9-10.3-12.8-15.9c-1.6-2.4-1.8-5.8-2.6-8.7C802.4,390.6,803.2,390.2,804,389.8z"/>
<path fill-rule="evenodd" clip-rule="evenodd" d="M638.4,238.1c4.3,2.2,7.3,3.7,10.2,5.2c0.5-0.3,1-0.7,1.6-1
	c-7.1-13-11.8-26.7-12.4-41.9c1.1,1,2.6,1.9,3.2,3.2c2.1,4.1,4,8.2,5.7,12.4c0.6,1.5,1.6,4,1,4.6c-3.6,3.4-1,6.2,0.7,8.9
	c3,4.5,6.4,8.8,9.4,13.3c1,1.4,1.2,3.3,2.3,6.3c-4.1-0.5-6.9-0.7-9.5-1.3c-2.7-0.6-5.3-1.5-9-2.6c0.8,7.9,2.1,14.3,5.8,20.1
	c2.5,3.9,5.1,7.6,7.7,11.4c2,2.9,1.3,5.3-1.3,8.2c-5-3.1-9.8-6.2-14.7-9.3c0.1-0.5,0.3-1,0.4-1.5c1.4-0.2,2.9-0.4,5.4-0.7
	C641.5,262.1,636.3,251.2,638.4,238.1z"/>
<path fill-rule="evenodd" clip-rule="evenodd" d="M714.4,101.1c3.1,0.5,6.2,0.7,9.2,1.6c10.4,3,13.2,14.9,5.6,22.5
	c-4,3.9-9.2,2.7-13.7,3c-7.6,0.5-13.7-5.8-15.6-13.3C698.4,108.9,705.7,99.2,714.4,101.1z M724.9,121.9c3.4-11.6,2.7-13.1-5.8-14.6
	c-4.5-0.8-6.9,1.6-6.3,6.3C713.5,119.7,715.1,120.8,724.9,121.9z"/>
<path fill-rule="evenodd" clip-rule="evenodd" d="M634.4,147.9c8.1-4.7,14.7-8.5,21.8-12.5c0.9,3.5,1.6,6.4,2.3,9.6
	c-3.4,0.3-6.4,0-8.8,1c-5.4,2.2-7.4,6.3-6.6,12.4c0.5,3.7,1.4,7.3,1.8,10.9c0.8,6.2,0.4,6.7-5.5,9.2c0.1,6.6,6.3,12,4.3,20.5
	c-3.8-2-6.6-3.5-9.1-4.9c3-10.1,0-18.9-3.3-28.7c2.9,1.2,5.1,2.2,8.2,3.5c-0.9-4.7-1.2-8.8-2.6-12.3
	C635.7,153.1,633.3,150.1,634.4,147.9z"/>
<path fill-rule="evenodd" clip-rule="evenodd" d="M581,302.7c-1.8,3.5-3.7,6.9-5.2,10.5c-1.7,4.1-1.4,9.1-5.7,12.4
	c-4.5-4.6-2.6-10.2-2.9-15.3c-0.3-5-0.1-10.1-0.1-15.3c-7.4,1.4-9.9,10.5-17.8,8.2c-1-7.5,2.4-15.2,11.1-23.4
	c-0.8,4.8-1.4,8.2-2.1,12.5c3.7-1.5,7-2.8,10.7-4.3c1,2.4,2.1,4.3,2.6,6.4c0.6,2.2,0.7,4.4,1.2,7.4c2.2-1,4.1-1.8,6.3-2.7
	c0.6,1.4,1.1,2.7,1.6,3.9L581,302.7z"/>
<path fill-rule="evenodd" clip-rule="evenodd" d="M423.8,48c6.7,0.1,13.9,6.3,13.7,11.8c-0.3,7.9-5.8,13.8-12.7,13.5
	c-5.7-0.2-13.5-7.3-13.6-12.4C411,54.9,417.8,48,423.8,48z M430.8,65.7c-0.2-3.7,0-6.2-0.7-8.4c-0.4-1.1-2.5-2.1-4-2.3
	c-1.1-0.1-3.2,1-3.3,1.8c-0.3,1.3,0.3,3.3,1.2,4.3C425.5,62.7,427.6,63.6,430.8,65.7z"/>
<path fill-rule="evenodd" clip-rule="evenodd" d="M546.2,183c-3.6-5.8-7-10.7-4.1-18.9c2.1,4.1,3.5,6.8,5.3,10.3
	c5.6-4.8,11-9.3,16.9-14.4c2.3,8.8-2.2,14.1-6.3,20.1c3.2,0.6,5.7,1.1,9.2,1.8c-4.6,5-3.6,12.5-11.8,17.3c1.6-5.2,2.7-8.5,4-12.6
	c-3.5,0.1-7.5,6.2-10.7-0.4c1.6-1.9,3.4-4,5.1-6.1c-0.2-0.3-0.5-0.6-0.7-1C551.1,180.3,549,181.5,546.2,183z"/>
<path fill-rule="evenodd" clip-rule="evenodd" d="M482.8,172.5c-9.7,0.4-16.4,8.2-25.7,6.2c-0.9-6.4,1.2-10.5,7.4-12.7
	c2.4,3.3,5.1,5.7,10.2,3.4c3.4-1.5,7.8-0.7,11.6-0.9c1.5,3.8,2.7,6.9,4.1,10.7c5.8-4.9,10.5-11.2,20.5-9.3c-2.3,2-3.6,3.2-5,4.2
	c-3.7,2.6-7.6,4.9-11.1,7.7c-4.6,3.7-7.7,3.3-9.9-2.1C483.9,177.5,483.5,175,482.8,172.5z"/>
<path fill-rule="evenodd" clip-rule="evenodd" d="M411.4,99.3c-3.4-2-7-3.9-10.2-6.2c-1.1-0.8-2.3-3.5-1.8-4.2
	c1-1.3,3.1-2.7,4.7-2.6c4.7,0.2,9.4,1.1,14.3,1.7c-0.3-3.8-0.5-6.6-0.7-9.9c10.4,2.6,18.4,7.1,21,11.9c-4.2-1.2-7.8-2.2-11.7-3.3
	c0.6,2.9,1.1,5.5,1.8,8.6c-4.8-0.4-8.7-0.8-13.2-1.2c0.2,1.9,0.4,3.3,0.6,5.4c-1.7-0.1-3.3-0.3-4.9-0.4L411.4,99.3z"/>
<path fill-rule="evenodd" clip-rule="evenodd" d="M542.2,257.8c1.8-3.5,3.6-6.3,4.8-9.5c1.2-3.1,1.6-6.4,2.5-9.6
	c0.5-1.9,0.8-3.9,1.6-5.7c1.9-4.4,4.1-8.7,7-14.7c-0.1,6.5,1.6,10.2,7.3,10.3c-4,6.5-7.5,12.4-11.3,18c-2.3,3.4-3.5,6.5,0.9,9.6
	C551,258.6,547.8,261.3,542.2,257.8z"/>
<path fill-rule="evenodd" clip-rule="evenodd" d="M614.6,288.1c-1.1,9.6,7.2,18.1,3.5,28.3c-12.7-5.8-18.4-9.9-23.1-16.8
	c7-1.9,9.8,7.7,16.1,5.8C615.2,299.9,606.4,293,614.6,288.1z"/>
<path fill-rule="evenodd" clip-rule="evenodd" d="M629.3,277.7c1.6,0,2.8-0.3,3.1,0.1c1,1.3,2.1,2.8,2.2,4.3c0.7,7,8.3,11.3,8,19.2
	c-12.1-3.2-19.9-7.7-23.7-13.9c4.4,1.4,8,2.6,12.5,4.1C630.7,286.6,630,282.3,629.3,277.7z"/>
<path fill-rule="evenodd" clip-rule="evenodd" d="M605.4,159.9c2.8,1.3,4.8,2.1,7.1,3.2c5.7-5.4,11.3-10.8,18.5-17.7
	c-0.5,3.6-0.3,5.5-1.1,6.5c-4.1,5-8.3,10.1-13,14.5c-2.2,2.1-5.8,3.2-9,3.6C606,170.2,605.4,167.6,605.4,159.9z"/>
<path fill-rule="evenodd" clip-rule="evenodd" d="M411.2,99.1c-0.1,0.8,0.2,2-0.3,2.5c-1.8,1.7-3.6,4.1-5.7,4.4
	c-5.6,0.8-9.3,8.8-16.1,4.3c-1.3-0.9-2.5-2-3.7-3c1.2-1.3,2.2-3.4,3.7-3.9c3.4-1.1,7.1-1.3,10.7-1.9c3.8-0.7,7.6-1.4,11.5-2.2
	C411.4,99.3,411.2,99.1,411.2,99.1z"/>
<path fill-rule="evenodd" clip-rule="evenodd" d="M387.1,123.8c1.4,1.6,2.6,2.9,4.5,5c-5.9,1.5-10.3,5.5-17,2.7
	c0.8-1.8,1.1-4,2.4-4.9c5.9-4.2,9.6-12,18.9-12.6C395.1,119.9,388.9,119.4,387.1,123.8z"/>
<path fill-rule="evenodd" clip-rule="evenodd" d="M622.7,229.6c-1-3.6-1.8-6.8-2.8-10.7c6.3,3.5,11.9,16.9,10.1,24
	c-2.3-1.4-4.3-2.7-6.4-4c-2.1-1.4-4.2-2.7-7.1-4.6C618.8,232.4,620.5,231.2,622.7,229.6z"/>
<path fill-rule="evenodd" clip-rule="evenodd" d="M392.2,136c-0.4,1.5-0.8,2.9-1.3,4.9c2.6,0.6,5.2,1.2,7.9,1.8
	c-4.3,4-15.5,8.4-22.4,8.2c4.1-6.5,9.4-10.8,14-15.7C391.1,135.5,391.6,135.8,392.2,136z"/>
<path fill-rule="evenodd" clip-rule="evenodd" d="M580.9,302.9c1.4,0.7,2.9,1.5,4.4,2.3c1.8-2.3,3.3-4.2,4.9-6.3
	c2.4,3.6,4,15.7,2.7,19.9c-7.9-2.5-11-8.4-11.8-16.1C581,302.7,580.9,302.9,580.9,302.9z"/>
<path fill-rule="evenodd" clip-rule="evenodd" d="M549.6,272.7c2.8,1.4,5.2,2.7,7.9,4.1c-6.3,3.3-10.3,2.7-18.1-2.5
	c5.9-4.3,9.4-10.8,16.7-15.2C556.8,265.8,551.7,268,549.6,272.7z"/>
<path fill-rule="evenodd" clip-rule="evenodd" d="M516,140.5c-4.5,0-9,0-14.7,0c-1.3,3.5-2.8,7.8-4.7,13.1c-3-8.6-2.7-12.4,1-20.7
	c6.1,2.6,12.2,5.1,18.3,7.7C516,140.7,516,140.5,516,140.5z"/>
<path fill-rule="evenodd" clip-rule="evenodd" d="M575,160.2c1.1,2,2.2,4.1,3.5,6.5c4.8-0.4,7.6-7.5,14.5-4
	c-0.9,1.5-1.4,3.3-2.7,4.2c-2.8,2-6,3.3-8.8,5.2c-3.2,2.2-5.8,1.2-7.1-1.6c-1.3-2.9-1.5-6.3-2.2-9.4
	C573.2,160.8,574.1,160.5,575,160.2z"/>
<path fill-rule="evenodd" clip-rule="evenodd" d="M438.4,70.1c6.9,5,13.8,7.8,18.4,13.6c-0.5,0.7-0.9,1.4-1.4,2.2
	c-2.9-1.6-5.8-3.2-9.6-5.3c0.7,2.7,1.1,4.5,1.5,6.3C440.8,85.2,438.4,81.1,438.4,70.1z"/>
<path fill-rule="evenodd" clip-rule="evenodd" d="M600.3,125.3c-0.5-3.1-0.8-5.2-1.2-7.6c-4.2,1.7-7.9,3.3-12.5,5.1
	c2.3-7,9.9-11.9,15.2-10.4c1.3,0.4,2.8,2.1,3.1,3.4C605.6,119.3,604.9,122.6,600.3,125.3z"/>
<path fill-rule="evenodd" clip-rule="evenodd" d="M520.5,184.3c-2.5-4.4-4.1-7.4-5.8-10.3c0.4-0.4,0.8-0.9,1.2-1.3
	c1.9,0.8,3.7,1.5,5.7,2.4c5.1-0.8,7.2-7.9,15.5-7.6C531.2,173.4,526.5,178.1,520.5,184.3z"/>
<path fill-rule="evenodd" clip-rule="evenodd" d="M571.2,253.2c1,5,2,9.3,2.6,13.6c0.5,3.3-2.1,4.6-4.6,4.9c-2.9,0.4-5.5-1.7-5-4.4
	c0.8-4.6,2.7-9,4.3-13.5C568.6,253.5,569.9,253.5,571.2,253.2z"/>
<path fill-rule="evenodd" clip-rule="evenodd" d="M565.1,204.7c-4.6,3.6-8.3,5.8-11,8.9c-2.6,3-4.1,6.9-8.7,7.4
	C546.2,211.4,553.4,202.8,565.1,204.7z"/>
<path fill-rule="evenodd" clip-rule="evenodd" d="M584.1,211.8c-1.2,4.5-2.5,9-3.8,13.8c2,0.5,3.7,1,6.4,1.7
	c-4.1,4-7.4,6.4-13.4,4.3c3.1-7.1,6-13.7,8.8-20.4C582.9,211.3,583.5,211.6,584.1,211.8z"/>
<path fill-rule="evenodd" clip-rule="evenodd" d="M566.8,130.3c5.8,5,3.3,10,1.7,15.4c-1.3-2.2-2.6-4.3-4.1-6.7
	c-2,1.3-4.2,2.7-7.3,4.6C556.8,135.7,563.8,135.2,566.8,130.3z"/>
<path fill-rule="evenodd" clip-rule="evenodd" d="M492,108.1c-3,0.4-5.3,0.7-7.6,1c-0.3-0.7-0.5-1.3-0.8-2c3.4-2.4,6.9-4.8,10.6-7.4
	c3.3,8.8,2.9,11.8-2.2,16.3C492,113.1,492,110.8,492,108.1z"/>
<path fill-rule="evenodd" clip-rule="evenodd" d="M606.9,134.6c4.1,6.2,4.1,6.2-1.2,13.5c-5.3-1.1-8.4-4.7-11.7-11.3
	c4.2,2,6.7,3.3,9.9,4.8C604.8,139.4,605.6,137.6,606.9,134.6z"/>
<path fill-rule="evenodd" clip-rule="evenodd" d="M405.7,156.4c-5.6,3.6-10.9,7.8-17.8,4.9c-1.9-4.9,1.7-7,5.4-10.4
	c0.7,2.1,1.2,3.5,1.8,5.5C398.5,156.4,402.1,156.4,405.7,156.4z"/>
<path fill-rule="evenodd" clip-rule="evenodd" d="M617.5,257.5c-1.3-3-2.3-5.6-3.7-8.8c1.6-0.1,3-0.6,3.5-0.2
	c3.9,3.8,5.1,8.4,4.1,14.3c-3.4,0.9-6.9,2.1-10-2.5C613.3,259.5,615,258.7,617.5,257.5z"/>
<path fill-rule="evenodd" clip-rule="evenodd" d="M466.8,110.8c-1.6-2.2-2.4-3.9-3.7-4.9c-1.2-1-2.9-1.2-5.2-2.1
	c0.9-3.3,1.8-6.6,2.8-10.1C467.5,96.9,467.5,96.9,466.8,110.8z"/>
<path fill-rule="evenodd" clip-rule="evenodd" d="M613.3,194.5c1.5-3.6,2.8-6.6,4-9.5c4,3.6,5.2,10.1,2.5,17
	C617.3,199.1,615,196.5,613.3,194.5z"/>
<path fill-rule="evenodd" clip-rule="evenodd" d="M443.7,132.7c-1.1-8.8,1-13.3,5.5-13.8c5.1-0.6,6,2.9,6.2,7.8
	c-2-0.9-3.5-1.5-5.4-2.3C448.3,126.6,446.5,129,443.7,132.7z"/>
<path fill-rule="evenodd" clip-rule="evenodd" d="M433,106c3.2,2.8,6,5.3,9.6,8.5c-4,1.5-6.8,2.6-10.1,3.9
	C429.6,114.6,430,110.9,433,106z"/>
<path fill-rule="evenodd" clip-rule="evenodd" d="M431.2,139.2c4.2,1.3,7.5,2.4,10.9,3.5c-1.1,5.3-1.1,5.3-9.3,8.3
	C432.3,147,431.8,143.3,431.2,139.2z"/>
<path fill-rule="evenodd" clip-rule="evenodd" d="M631.8,118.3c-0.4-2.4-0.8-4.5-1.3-7.2c-2.3,0.7-4.5,1.3-6.6,2
	c-0.2-0.3-0.5-0.7-0.7-1c1.2-1.3,2.2-2.8,3.6-3.8c2.3-1.8,4.8-3.4,7.3-0.2C636.4,111.1,635.9,113.7,631.8,118.3z"/>
<path fill-rule="evenodd" clip-rule="evenodd" d="M587.7,264c4,4.7,6.5,7.7,9.7,11.4c-1.8,1.3-3.7,2.7-5.7,4.1
	C586.5,275.6,588.1,270.6,587.7,264z"/>
<path fill-rule="evenodd" clip-rule="evenodd" d="M589.4,252.5c-3.4-5.8-2.8-9.7,0.1-14.4c2.8,3.2,5,6.3,4.8,10.1
	C594.3,249.5,591.5,250.7,589.4,252.5z"/>
<path fill-rule="evenodd" clip-rule="evenodd" d="M419.7,125.1c1.3,4.6,2.6,9.3,3.9,14.2C416.2,136.6,414.3,131.5,419.7,125.1z"/>
<path fill-rule="evenodd" clip-rule="evenodd" d="M478.8,128c-1.9-2.9-3.4-5.1-5.1-7.6c1.1-1.6,2.2-3.2,3.1-4.6
	c0.9,0.2,1.7,0.1,2,0.4C481.6,119.9,481.8,123.6,478.8,128z"/>
<path fill-rule="evenodd" clip-rule="evenodd" d="M608.6,218.7c-0.9,5.4-4.7,6.4-8.3,9c-1-2.5-1.7-4.4-2.3-5.8
	C601.7,220.8,604.7,219.9,608.6,218.7z"/>
<path fill-rule="evenodd" clip-rule="evenodd" d="M595.9,201c-7.1-5.1-1.7-8.2,0-13.5C595.9,192.8,595.9,196.2,595.9,201z"/>
<path fill-rule="evenodd" clip-rule="evenodd" d="M887.9,174.1c-4.7,0.1-6.9-2-6.9-6.5c0-4,1.6-5.5,5.8-5.5c4.8-0.1,8.3,2.6,8.3,6.6
	C895.2,171.8,892.4,174,887.9,174.1z"/>
<path fill-rule="evenodd" clip-rule="evenodd" d="M932.8,174.9c-6.9,3.5-11.8,3.3-13-0.3c-1.1-3.2,1.3-7.1,5.2-8.6
	C928.7,164.7,930.4,166.5,932.8,174.9z"/>
<path fill-rule="evenodd" clip-rule="evenodd" d="M50.9,590.2c-2.8,2.3-4.4,4.3-6.3,4.9c-0.9,0.2-3.3-2.1-3.8-3.6
	c-0.8-2.5,2.5-6.6,4.5-6C47,586.1,48.3,587.9,50.9,590.2z"/>
<path fill-rule="evenodd" clip-rule="evenodd" d="M161.3,640.4c-2.1,2.9-3.6,6.6-7.3,3.3c-1-0.9-1-4.8,0-5.8
	C157.6,634.6,159.1,638.3,161.3,640.4z"/>
</svg>
