<?xml version="1.0" encoding="utf-8"?>
<!DOCTYPE svg PUBLIC "-//W3C//DTD SVG 1.1//EN" "http://www.w3.org/Graphics/SVG/1.1/DTD/svg11.dtd">
<svg artist="zl2017" version="1.1" id="zlIcon-sheep-flowers" xmlns="http://www.w3.org/2000/svg" xmlns:xlink="http://www.w3.org/1999/xlink" x="0px" y="0px"
	 width="1000px" height="754.5px" viewBox="0 0 1000 754.5" enable-background="new 0 0 1000 754.5" xml:space="preserve">
<path fill-rule="evenodd" clip-rule="evenodd" fill="#FFFFFF" d="M496.3,500.3c-5.7,2.3-9.8,4.6-14.2,5.6
	c-22.3,5.2-43.9,13.5-67.1,14.1c-5.2,0.2-10.3-0.3-15.5-0.7c-15.9-1.2-31.3,3.9-47.5,1.7c-17.3-2.3-35-0.7-52.5-1.8
	c-15.9-1-31.7-3.1-47.5-5.3c-10.3-1.5-20.4-4-30.6-6.1c-21.5-4.6-43.1-9.1-64.6-13.9c-10.1-2.3-20.2-4.9-30.2-7.8
	c-12.9-3.8-25.7-8.1-38.5-12.1c-3-0.9-6-1.8-10.2-3.1c0.3,4.2-0.2,7.2,0.7,9.6c4.4,10.7,5.5,22,5.5,33.4c0,6.7,0,13.4-0.3,20
	c-0.6,9.8-2.2,19.6-2.1,29.3c0.2,15.4-1.1,30.6-4.2,45.6c-4.6,22.1-6,44.7-11.5,66.6c-1.2,4.8,1,6.7,6.2,6
	c18.5-2.4,37.1-4.8,55.6-7.2c12.1-1.5,24.3-1.7,36.5-2.5c19.4-1.3,38.5-1.2,57.6,2.1c4.8,0.8,9.6,1.2,14.5,1.6
	c8.8,0.8,17.8,0.6,26.3,2.4c19.8,4,39.4,8.9,59.1,13.5c9.2,2.2,18.4,4.7,27.6,7c11,2.7,22,5.3,32.9,8.1c6.8,1.7,13.6,3.4,20.3,5.7
	c15.4,5.2,30.6,10.8,45.9,16.2c5.8,2,7.6,0.8,8.3-5.5c0.6-4.8,0.9-9.7,1.8-14.5c1-6,3.3-11.9,3.6-17.9c0.5-14.5,2.3-28.5,6.1-42.5
	c3.5-12.6,2.3-26.1,6.8-38.7c2.7-7.7,3.4-16.1,4.6-24.3c0.6-4.1,0.3-8.4,0.6-12.6c0.2-2.9,0.4-5.9,1.2-8.8c0.7-2.6,2.4-5,3-7.7
	C488.5,537.9,492.2,520,496.3,500.3z"/>
<path fill-rule="evenodd" clip-rule="evenodd" fill="#FFFFFF" d="M640.7,523.8c2.7,3.2,5,5.8,8.2,9.6c3.2-10.2,4.9-19.1,3.9-29.2
	c-3,0-5.1-0.1-7.1,0c-10.1,0.5-20.2,1.2-30.4,1.5c-8.5,0.3-17.1,0.1-25.6-0.1c-1.5,0-3-0.7-4.4-1.3c-2.5-1-4.2-2.6-3.5-5.6
	c0.8-3.4,3.3-4.7,6.2-3.7c6.7,2.4,12.3,0.8,18.2-2.9c2.9-1.8,7-1.8,10.7-2.2c2.7-0.3,5.5-0.1,8.3-0.1c3.1-0.1,5.7-1.3,5.9-4.6
	c0.6-8.5,1.9-17.2,1-25.7c-2.1-21.6-15.9-33.7-35.4-40.6c-3.4-1.2-6.8-2.7-9.9-4.6c-4.3-2.6-8.4-5.5-13.6-9c0.7-1.6,1.2-4.8,3-6
	c5.8-4,4.5-8.8,2.6-13.9c-1.5-3.7-3.4-7.2-5.1-10.8c-5.6-11.8-12.8-22.2-24.4-29.2c-6.6-4-13.3-6.6-21.2-7.9
	c-11-1.9-21.5-4.1-32.6-1.5c-2.9,0.7-6.2,0.4-9.1-0.4c-2-0.5-4.7-2.2-5.2-3.9c-1.9-5.8-6-8.7-11.4-9.5c-7.8-1.1-15.8-2.2-23.6-1.8
	c-16,0.7-28,9.9-39.2,20.3c-7.2,6.7-13.8,14-20.9,20.8c-16.1,15.4-35.4,21.8-57.5,18.4c-8.5-1.3-16.5-4.1-23.3-10.2
	c-9.6-8.7-16.2-19.1-20.7-31c-1.4-3.7-2.6-7.5-3.9-11.3c-1.3-3.8-3.9-6.2-7.9-6.9c-12.9-2.5-26.3,0.1-35.4,12.1
	c-4,5.3-8.3,10.3-13.2,16.3c-4.7-7.7-10.7-6-16-3.5c-9.3,4.3-20,7.4-23.3,19.1c-0.2,0.6-0.5,1.3-1,1.5c-5.8,2.8-5.4,8.2-5.9,13.3
	c-1.1,10.9-6.2,18.6-17.7,20.4c-6.8,1.1-12,5-17.8,8.2c-6.3,3.4-8.4,7.8-10.5,14.6c15.9,4.1,31.2,8.1,46.6,11.9
	c4.4,1.1,9.1,1.6,13.6,1.8c1.9,0.1,4.4-0.6,5.7-1.9c4-3.7,2.9-7-3.2-10.5c-11-6.4-13.2-13.2-9.1-25.4c1.8-5.1,2.8-10.7,2.9-16.1
	c0.1-4.9,2-8.1,5.6-10.9c8-6.2,16.6-7.3,25.5-2.8c2.1-1.3,3.6-2.4,5.1-3.4c6.7-4,9.1-3.9,14.9,0.9c2.1,1.7,3.7,4.1,5.5,6.1
	c2,2.3,3.9,4.6,5.6,6.5c9.1-2.2,11.5-2.3,13.8,0.6c6.4,8,9.8,16.8,1.5,25.7c-4.5,4.8-6.6,9.3-6.8,16c-0.4,10.6-8.8,16-19.1,14
	c-2.3-0.4-4.8-0.1-7.2,0c-4.6,0.2-9.1,0.6-13.7,0.9c-2.3,0.1-4.7,0-7.5,0c0.6,7.6,4.6,11.8,10.1,15.1c10.6,6.4,11.5,7.8,6.5,19
	c-4.1,9.1-5.2,18.1-3.5,28.9c43.4,9.6,87.4,14.6,132.5,11c0.7-3.2,1.6-5.5,1.8-7.9c0.7-9.8,1.3-19.6,1.7-29.4
	c0.4-9,4.6-15.7,13.1-18c11.8-3.1,23.8-5.4,35.7-7.9c6.3-1.3,12.6-2.1,18.9-3.2c10.2-1.9,20.5-3.6,30.6-5.9
	c4.9-1.1,6.8-6.7,5.8-13.7c-0.9-6.2-5-3.3-8.4-3.4c-6.6-0.2-13.2-1.4-16.4-8.2c-2.9-6.2-3.1-12.7,2.2-17.9c4-4,4.3-8.6,3.5-13.6
	c-1-6.9,1.6-11.8,7.6-15.3c3.3-2,6.4-3,10.4-2.2c3.6,0.7,7.3,0.1,10.5,0.1c2.2-2.1,4.2-4,6.3-5.8c6.8-5.9,11.5-5.5,17,1.6
	c1.1,1.5,2.1,3,3.1,4.6c2.1,2.9,4.3,5.8,6.2,8.8c3.8,5.9,8.1,11.5,6.2,19.3c-0.6,2.6-0.3,5.5-0.1,8.3c0.7,7.4-2.5,13.4-8.8,15.7
	c-6,2.2-10.9,6.2-16.6,8.5c-3.4,1.4-7.2,1.4-10.7,2.5c-3.5,1-3.9,3.4-1.9,6.6c3.6-1.1,7.2-3.2,10.6-2.9c3.7,0.3,7.1,2.8,10.7,4.3
	c0.8,0.4,1.8,0.5,2.6,0.8c8,2.4,10.8,6,8.6,14c-2.9,11-3.4,22-3.5,34.4c1.3-2.4,2.2-4,3.1-5.5c7.1-12.9,16.8-22.6,32.1-25.2
	c9.3-1.5,15.7,1.7,20.8,9.8c5.3,8.5,5.6,17.5,4.1,26.7c-2.9,17.1-10.1,21.4-29,19.6c-3.9-0.4-7.5-2.3-7.6-6.7
	c-0.1-4.8-1.7-10.5,5.2-13.7c1.1,2.2,2.1,4,3,5.8c2.7,5.2,5.7,5.6,9.7,1c7.1-8.1,7.5-19,0.3-26.7c-2-2.1-6.2-4.2-8.8-3.5
	c-6.5,1.5-13.3,4.3-16.3,10.9c-5.1,10.8-9.6,21.9-13.9,33.1c-1.7,4.5-2.8,9.4-0.2,14.3c12.2,1.2,23.8,3.1,34.9,8.5
	c8,3.9,17.5,4.7,26.4,6.7c1.7,0.4,3.6-0.2,6.3-0.4c0-4,0-7.8,0-10.8c3.4-4.4,6.4-8.3,9.8-12.8c1.4,4.1,2.5,7.2,3.7,10.5
	c1.4,0.2,2.6,0.5,3.8,0.5c9.4,0.3,9.3,0.3,11.7-8.9c0.4-1.4,1.5-2.6,3.1-5.4c0.4,6.2,0.7,10.4,0.9,14.3c6.9,2.2,12.5,2.6,14.9,1
	c4.7-2.9,2.5-7.8,3.2-11.8c0.6-3.6,1-7.3,5.4-9.2c6.8,7.5-5.6,16.3,1.1,23.5c0.7,0,1.1,0.1,1.3-0.1
	C635.5,527.9,637.6,526.2,640.7,523.8z"/>
<path fill-rule="evenodd" clip-rule="evenodd" fill="#FFFFFF" d="M738.2,311.4c-0.4,1.9-1.2,4.3-1.3,6.6c-0.4,23,5.5,44.2,18.2,63.4
	c1.5,2.2,5,4.4,7.5,4.4c12.9,0,26.1,0.9,38.5-1.7c10.1-2.1,20.5-7.2,28.5-13.8c11.7-9.7,21.9-21.5,31.8-33.2
	c10.7-12.6,20.4-26.1,30.5-39.2c4.3-5.6,8.6-11.2,13-16.7c2.9-3.6,6-6.9,9-10.4c1.2-1.5,2.2-3.2,3.6-5.1c-1.4,0-2-0.2-2.5,0
	c-7,2.6-10.7,8.9-15.5,14c-11.4,12-23.2,23.7-34.5,35.7c-5.2,5.6-11.8,8.3-18.3,11.3c-5-4-5.7-9.3-6.5-14.4c-1-6.6-1.4-13.3-2.1-20
	c-0.8-7.2-2.4-8.3-9.5-6.2c-2.1,0.6-4,1.7-6,2.4c-11.2,4.1-22.3,8.9-33.8,11.9C772.6,304.8,756.1,307.7,738.2,311.4z"/>
<path fill-rule="evenodd" clip-rule="evenodd" fill="#FFFFFF" d="M416.2,306.8c-1.2-5-1.4-10.4-3.6-14.8
	c-11.2-21.6-38.9-24.1-56.1-15.1c-15.9,8.3-21.8,23.6-19,41.4c0.7,4.2,1.2,9,3.6,12.2c9.7,13,27.9,18.6,42.8,11.4
	c6.1-2.9,11.7-6.7,17.6-10C411.3,326.4,416.5,318.6,416.2,306.8z"/>
<path fill-rule="evenodd" clip-rule="evenodd" fill="#FFFFFF" d="M408.7,461.9c0.2,2.1,0.5,3.9,0.4,5.6c-0.4,11-0.9,21.9-1.4,32.9
	c0,0.6-0.2,1.5,0.1,1.8c1.4,1.5,2.8,3.7,4.4,3.9c1.3,0.1,3.7-2,4.1-3.6c0.8-2.9,0.4-6.1,0.6-9.2c0.4-8.6,0.8-17.1,1.5-25.7
	c0.1-1.4,1.7-2.6,3.9-5.8c0.9,5.3,2,8.5,2,11.7c0,5.8-0.9,11.6-1,17.5c0,3.2,0.5,6.6,1.5,9.7c0.5,1.4,2.8,3.1,4.1,2.9
	c1.8-0.2,4-1.7,5-3.3c1-1.7,0.9-4.1,0.9-6.2c0.1-7.1,0.1-14.2,0-21.3c0-3.9,0.9-7.2,5.5-8.3c0.6,1,1.4,1.7,1.4,2.4
	c-0.2,8.9-0.7,17.8-0.7,26.7c0,9.9,3.6,11.6,12.7,6c-0.2-2.9-0.4-5.9-0.6-9c-0.4-6.1-0.8-12.3-1-18.4c-0.1-4.6,2.1-7.8,7.6-10.6
	c0,3.2,0,5.2,0,7.1c0,9.2-0.1,18.4,0.1,27.6c0,1.3,1.3,2.6,2.2,4.1c2.8-1.1,5.3-2,7.6-2.9c-3.4-32.3-3.3-32.9,4.2-37.9
	c0,3.7-0.1,6.6,0,9.4c0.3,7.4,0.5,14.7,1.2,22c0.2,1.5,2.6,3.7,4.1,3.7c1.4,0,3.8-2.2,4-3.7c1.6-12.1,4.6-24.1,2.1-36.5
	c-2.4-11.8-4.5-13.4-16.1-10.6c-1.5,0.3-3,0.8-4.5,1.1c-13.5,3-26.8,6.8-40.4,8.6c-16,2.1-31.2,6.6-46.3,11.7c-2.8,1-6.4,4-6.8,6.6
	c-1.6,10.6-2.1,21.4-2.9,32.1c-0.3,3.4,2.1,5.7,4.9,5.5c2.2-0.2,4.9-2.2,6.2-4.2c1.1-1.5,0.5-4.2,0.5-6.3c0-6.8-0.2-13.6,0.1-20.3
	c0.2-5,3.1-8.6,6-7.7c4.1,1.2,2.8,4.8,2.7,7.7c-0.1,0.9-0.2,1.8-0.2,2.8c0,8.5,0,17,0,26.1c4.6-0.2,7.8-0.4,11.1-0.6
	c0.2-2.8,0.5-4.6,0.6-6.4c0.4-9.5,0.7-19,1.4-28.5C402,468,401.7,462.8,408.7,461.9z"/>
<path fill-rule="evenodd" clip-rule="evenodd" fill="#FFFFFF" d="M126.6,436.9c-0.3,3.6-0.6,7.2-1,10.8c-0.4,4.3-1.1,8.5-1.4,12.8
	c-0.2,3.3,0.6,6.2,5.3,6.8c0.6-2.2,1.5-4.4,1.9-6.7c1-5.1,1.4-10.4,2.7-15.4c0.5-2.1,2.6-3.9,4.6-6.6c1.9,6.8,2,6.9,0.3,11
	c-3,6.8-2.2,13.9-1.3,20.9c0.2,1.6,2.2,3,3.7,5.1c6.1-9.3,1.9-20.8,9.8-28.4c0.8,3.9,0.5,7.6,0,11.3c-0.7,4.2-1.9,8.4-2.3,12.6
	c-0.4,4.2,2.8,7.6,6.5,7.3c3.9-0.2,3.3-3.4,4-6.1c1.6-6.2,3.4-12.4,5.4-18.5c0.9-2.6,2.4-4.9,6.9-4.8c0,2.6,0.6,5.1-0.1,7.1
	c-1.2,3.7-3.1,7.3-4.9,10.8c-5.2,10.3-1.5,17.2,9.2,17.1c0.5,0,1.1-0.5,1.1-0.5c2.4-7.2,4.7-14.1,6.9-20.9
	c8.2-1.1,11.2-5.6,9.9-13.8c-10.9-2.6-21.6-5.2-32.3-7.5c-15-3.2-30-6-43.4-14.1c-4.7-2.9-9.7-5.3-14.8-7.4
	c-6.1-2.4-12.5-4.2-19.4-6.5c0,7.6,0,14,0,20.4c0,3.3,0.5,6.6,0.2,9.9c-0.6,6.4-0.5,6.7,7.7,8.2c2.1-8-0.6-16.6,2-25.1
	c5,2.6,4.8,6,4.6,9.4c-0.1,3.7-0.6,7.4-0.4,11c0.2,4.8,2.1,9,5.5,13.1c4.2-6.9-1.3-14.9,5.5-21.9c0.8,3.5,1.6,5.6,1.8,7.8
	c0.3,3.7,0,7.4,0.2,11.1c0.2,3.7,1.8,6.4,6.3,6.1C121.1,454.6,114.3,443.2,126.6,436.9z"/>
<path fill-rule="evenodd" clip-rule="evenodd" fill="#FFFFFF" d="M344.7,274.6c-4.9-1.1-8.6-2.5-12.5-2.7c-4.2-0.2-8.5,1-12.7,1
	c-19.3,0.3-37.1,21-34.2,39.9c1.8,11.8,10,20.6,20.7,21.4c7,0.5,14.1,0.2,21.2,0c5.4-0.2,6.4-1.6,5.6-6.9c-0.1-0.9-0.4-1.8-0.7-2.7
	c-6-15.9,0.2-29.4,8.1-42.6C341.5,279.7,342.9,277.5,344.7,274.6z"/>
<path fill-rule="evenodd" clip-rule="evenodd" fill="#FFFFFF" d="M983.4,251.7c3.5-8.3,3.1-15.6,3.2-23c0.2-13.1-4.6-23.9-14.2-32.8
	c-5.4-5-7.5-4.9-11.7,0.9c-1.2,1.7-2,3.8-2.8,5.7c-3.6,8.2-7,16.3-10.6,24.5c-1.7,3.9-3.6,7.7-5.3,11.1c2.3,3.9,3.8,7.5,8.5,6.9
	c8.2-0.9,15.7,1.6,23.3,4.5C976.6,250.6,979.6,250.9,983.4,251.7z"/>
<path fill-rule="evenodd" clip-rule="evenodd" fill="#FFFFFF" d="M246.3,394.3c-4.2-2.4-2.6-5.1-2.3-7.8c0.7-9-6.4-16.1-15-15.7
	c-3.2,0.1-5.3,1.2-6.3,4.2c-0.8,2.8-0.6,5.2,2.1,7.3c3.4,2.6,6.5,5.6,9.5,8.7c6.9,7.2,12.5,14.5,5.8,25.2c-1.2,1.9-0.3,6.1,1,8.5
	c0.8,1.5,4.3,2.1,6.6,1.9c4.3-0.4,7-6.1,5.1-10.9c-1.1-2.8-2.7-5.3-4.5-8.5c2.3-1.2,4.2-2.8,6-2.8c6.6,0.1,8.2-4.6,9.6-9.4
	c1.5-5.3-2.6-7.4-6.1-10.5c-2.3,1.6-4.4,2.8-6.2,4.4C249.6,390.6,247.9,392.6,246.3,394.3z"/>
<path fill-rule="evenodd" clip-rule="evenodd" fill="#FFFFFF" d="M664.4,714.2c-2.2-5.8-3.8-10.7-5.8-15.4c-0.6-1.5-2-3.5-3.4-3.8
	c-4.8-0.9-9.7-1.6-14.5-1.5c-4.5,0.1-7.4,2.7-7.3,7.7c0,2.5-0.1,4.9,0.1,7.4c0.2,4,2.5,6,6.5,6.3c5.2,0.4,10.3,1.4,15.5,1.5
	C658.2,716.4,661.1,715.1,664.4,714.2z"/>
<path fill-rule="evenodd" clip-rule="evenodd" fill="#FFFFFF" d="M779.8,279.2c-2.8-0.8-4-1.6-5-1.4c-6.3,1.1-12.6,2.3-18.9,3.6
	c-4.7,1.1-9.5,2.3-14.1,3.8c-3.1,1-5.5,3.1-4.6,6.9c0.9,3.8,3.5,5.5,7.4,5.4c4-0.1,8,0.1,11.9-0.2c7.4-0.6,13.1-5.2,18.6-9.4
	C777.3,286.3,778,282.8,779.8,279.2z"/>
<path fill-rule="evenodd" clip-rule="evenodd" fill="#FFFFFF" d="M648.1,539.2c-6.1,3.2-6.9,5.1-5.9,11.3c0.4,2.5,1.1,5.6,0.1,7.7
	c-6.3,13.2-5.3,27.4-5.8,41.4c-0.1,3.6,1.7,6,5.5,5.9c3.6-0.1,4.3-2.8,4.3-5.8c0-11,0-21.9,0.1-32.9c0-4,0.5-7.9,0.7-11.9
	C647.4,550,647.8,544.9,648.1,539.2z"/>
<path fill-rule="evenodd" clip-rule="evenodd" fill="#FFFFFF" d="M150.8,365c1.1-4,2.7-7.4,2.9-10.9c0.2-3.5-0.1-7.4-1.6-10.5
	c-2.7-5.4-11.2-6.9-15.9-3.6c-4.9,3.5-5.8,9.1-1.1,14.3C139.2,359.1,144.3,363,150.8,365z"/>
<path fill-rule="evenodd" clip-rule="evenodd" fill="#FFFFFF" d="M548.3,692.3c16.2-0.8,18.1-2.4,16.5-13.9
	c-1.2-8.8-0.5-13.4-16.5-9.8C548.3,676.3,548.3,684,548.3,692.3z"/>
<path fill-rule="evenodd" clip-rule="evenodd" fill="#FFFFFF" d="M512.8,668.4c-2.7-0.4-5-0.9-7.4-1c-9.1-0.3-12.8,4.2-10.9,13.2
	c0.3,1.5,1.2,2.9,1.2,4.4c0,3.9,2,6.2,5.6,5.4c3.5-0.8,8.8,0.3,9.7-5.1C512,680,512.2,674.6,512.8,668.4z"/>
<path fill-rule="evenodd" clip-rule="evenodd" fill="#FFFFFF" d="M549.4,702.4c0.3,5.8,0.3,10.6,1,15.3c0.3,1.7,2.1,3.9,3.7,4.6
	c7.2,3,14.3-2,14.5-9.9c0.3-8.8-1.5-10.6-10.5-10.6C555.8,701.9,553.4,702.2,549.4,702.4z"/>
<path fill-rule="evenodd" clip-rule="evenodd" fill="#FFFFFF" d="M460.8,402.5c7.3,5.4,14.4,4.9,21.8,2.2c4-1.5,7-4.1,7.4-8.4
	c0.4-4.4-3-6.2-5.5-7.3c-5.6,1.1-10.3,2.1-14.7,2.9C467.2,395,464.6,398.1,460.8,402.5z"/>
<path fill-rule="evenodd" clip-rule="evenodd" fill="#FFFFFF" d="M544.5,653.2c4,0.7,7.3,1.3,10.5,1.9c8.4,1.6,9.2,1,9.3-7.2
	c0-2.4,0-4.9-0.5-7.3c-1-4.8-4.9-4.7-8.7-4.6c-3.7,0.1-7.9-0.5-9,4.3C545.2,644.3,545.1,648.5,544.5,653.2z"/>
<path fill-rule="evenodd" clip-rule="evenodd" fill="#FFFFFF" d="M236,406.2c-0.7-1.8-1.2-3.3-1.9-4.6c-5.6-10-6-10.1-17-6.2
	c-5.9,2-6.9,4.9-3.8,10.2C217.9,413.6,227.5,414.1,236,406.2z"/>
<path fill-rule="evenodd" clip-rule="evenodd" fill="#FFFFFF" d="M515.7,729.7c2.2-6.7-0.3-11.3-2.5-16c-2-4.2-5.2-4.9-9.1-4.1
	c-4.2,0.8-6.6,3.7-6.3,7.8c0.4,4.8,1.6,9.4,2.5,15C506.4,731.3,511.3,730.5,515.7,729.7z"/>
<path fill-rule="evenodd" clip-rule="evenodd" fill="#FFFFFF" d="M650.4,663.9c-0.8-6.2-1-11.7-2.2-17c-1-4.5-4.3-6.3-9-5.7
	c-4,0.5-5.9,2.7-5.8,6.8c0.1,4.5,0,9,0,13.9C638.8,662.5,643.7,663.1,650.4,663.9z"/>
<path fill-rule="evenodd" clip-rule="evenodd" fill="#FFFFFF" d="M521.8,545.9c-5.2-0.6-10-1.2-14.8-1.9c-5.5-0.7-8.1,1.2-8.6,6.5
	c-0.5,5.1,1.3,7.1,6.6,7.7c3,0.3,6.1,0.6,9.1,1c6,0.7,8-0.9,8.2-6.8C522.4,550.4,522,548.3,521.8,545.9z"/>
<path fill-rule="evenodd" clip-rule="evenodd" fill="#FFFFFF" d="M537.6,667.9c-14.2-2.2-15.2-1.4-15.2,10.8c0,3.3,0.3,6.5,0.4,10.3
	c4.5,0,8,0,13,0C536.4,682.1,537,675.3,537.6,667.9z"/>
<path fill-rule="evenodd" clip-rule="evenodd" fill="#FFFFFF" d="M144.2,371.7c-4.3,0.5-6.9,1-9.5,1.1c-1.1,0-2.3-0.8-3.5-1.1
	c-3.1-0.6-6.5-0.9-7.8,2.7c-1.3,3.7,0.5,6.6,4.1,8c2.5,1,5.1,1.8,7.8,2.6c4.5,1.3,9.6,2.6,12.5-1.9
	C151.2,377.9,146.8,374.3,144.2,371.7z"/>
<path fill-rule="evenodd" clip-rule="evenodd" fill="#FFFFFF" d="M155.1,369.9c0.9,7.4,1.7,13.8,2.5,20.3c6.2,0.4,11.1-2.3,13.6-7.8
	c2.1-4.5,0.9-8.1-4.3-12.8C163,366.2,161.4,366.2,155.1,369.9z"/>
<path fill-rule="evenodd" clip-rule="evenodd" fill="#FFFFFF" d="M529.5,560.6c9.3,3.7,14.7,3.6,17.4-0.3c1.9-2.7,1.9-9.9,0-12.2
	c-1.7-2.1-9.8-4-12.9-2.4C527.8,548.9,529.2,554.7,529.5,560.6z"/>
<path fill-rule="evenodd" clip-rule="evenodd" fill="#FFFFFF" d="M594.5,629.1c4.2,0.5,6.6,0.9,9,1c5.3,0.2,7.1-1.3,7.5-6.8
	c0.3-4.1,0.1-8.4,0.1-13.7c-4.2,0-7.2-0.4-10.1,0.2c-1.8,0.4-4.4,2-4.7,3.5C595.3,618.2,595.1,623.3,594.5,629.1z"/>
<path fill-rule="evenodd" clip-rule="evenodd" fill="#FFFFFF" d="M595.2,637.7c-3,7.1-4.2,13.8-1.9,20.9
	c13.3,1.7,13.3,1.7,14.3-10.5c0.2-2,0.5-4,0.9-6.7C604,640.2,600,639,595.2,637.7z"/>
<path fill-rule="evenodd" clip-rule="evenodd" fill="#FFFFFF" d="M493.2,613.8c6.7,1.5,12.9,5.4,20.9,2.6c0.1-4.8,1.9-10.9-3.3-13.1
	c-4.3-1.9-10.5-1.5-15.2-0.1C491.3,604.5,491.6,609.4,493.2,613.8z"/>
<path fill-rule="evenodd" clip-rule="evenodd" fill="#FFFFFF" d="M562.3,595.5c5.4,0.4,7-1.3,7.5-8.3c0.5-6.9-1.9-10-8.2-10.4
	c-5.8-0.4-8.6,3.1-9.3,11.8C551.9,594,553.2,594.8,562.3,595.5z"/>
<path fill-rule="evenodd" clip-rule="evenodd" fill="#FFFFFF" d="M635,684.3c7,0.5,13,1,19.1,1.4c2.4-6.2-0.3-10.2-2.4-14.5
	c-3.7-0.3-7.1-0.7-10.4-0.7c-6.1,0.1-8.3,2.4-7.8,8.4C633.6,680.7,634.5,682.4,635,684.3z"/>
<path fill-rule="evenodd" clip-rule="evenodd" fill="#FFFFFF" d="M526,590.9c5.9,0.7,11.1,1.4,15.9,2c4.2-9.1,4.3-11.7,1.2-14.6
	c-2.5-2.3-10.5-3.1-14-1.2C523.6,580.1,525.7,584.9,526,590.9z"/>
<path fill-rule="evenodd" clip-rule="evenodd" fill="#FFFFFF" d="M597.7,597.4c16,2.2,17,1.4,17.5-13.9c-3.7-3-8.2-4.5-12.6-2.2
	C596.1,584.7,598.8,591.4,597.7,597.4z"/>
<path fill-rule="evenodd" clip-rule="evenodd" fill="#FFFFFF" d="M558.3,624.8c6.7,0.3,9.6-2,9.7-7.9c0.1-5.1-2.7-8.8-7-9
	c-7.5-0.4-12.3,4-12.5,11.4C548.4,623.1,550.7,624.4,558.3,624.8z"/>
<path fill-rule="evenodd" clip-rule="evenodd" fill="#FFFFFF" d="M524.2,650.7c7,3.3,11.8,3.5,13-0.2c1.3-4.1,1.7-9.2,0.4-13.2
	c-1.4-4.3-6.5-3.8-10.5-3.7c-3.5,0.1-4.9,2-4.3,5.5C523.4,643,523.7,646.9,524.2,650.7z"/>
<path fill-rule="evenodd" clip-rule="evenodd" fill="#FFFFFF" d="M574.2,627.2c2.4,0.4,3.9,0.6,5.3,0.8c3.2,0.5,6.2,0.7,7.9-2.8
	c1.9-3.9,3.7-7.9,0.8-12.1c-1.9-2.8-4.2-5.6-8.2-4.4c-3.5,1.1-5.8,3.4-5.8,7.3C574.2,619.5,574.2,622.9,574.2,627.2z"/>
<path fill-rule="evenodd" clip-rule="evenodd" fill="#FFFFFF" d="M541.4,723.3c-1.1-4.6-1.9-9.6-3.4-14.4c-1.1-3.6-4.6-3.6-7.7-3.1
	c-3.1,0.4-5,2.2-4.8,5.5c0.2,2.7,0.1,5.6,0.9,8.1C529.2,727.9,532,728.7,541.4,723.3z"/>
<path fill-rule="evenodd" clip-rule="evenodd" fill="#FFFFFF" d="M521,620.1c5.8,0.9,9.7,1.7,13.6,2.1c4.4,0.5,6-1.3,6.9-6.7
	c0.6-3.8-0.3-6.8-4.4-7.7c-3.8-0.9-7.6-1.5-12.7-2.5C523.3,610.1,522.3,614.7,521,620.1z"/>
<path fill-rule="evenodd" clip-rule="evenodd" fill="#FFFFFF" d="M492.8,633.5c-0.4,3.4-0.6,4.9-0.6,6.4c-0.1,7.8,2,9.8,9.7,8.9
	c1.8-0.2,3.5-0.9,5.3-1.2c3.7-0.7,5-3.7,4.9-6.7c-0.1-3.1-1.7-6.1-5.3-6.5C502.4,633.7,498,633.7,492.8,633.5z"/>
<path fill-rule="evenodd" clip-rule="evenodd" fill="#FFFFFF" d="M583.6,657.8c0.6-5.7,1.2-10.7,1.6-15.8c0.3-3.8-2.4-5.3-5.6-5.9
	c-3.6-0.7-6.2,1-6.7,4.4c-0.8,5.6-0.9,11.3-1.3,17.3C575.8,657.8,578.7,657.8,583.6,657.8z"/>
<path fill-rule="evenodd" clip-rule="evenodd" fill="#FFFFFF" d="M515.5,587.6c4.5-10.5,2.9-13-7.3-13.3c-1.5-0.1-3-0.6-4.4-0.9
	c-4.3-1-6.2,1.5-7,5.2c-0.9,4,0.5,6.5,4.8,7.1C506,586.2,510.5,586.9,515.5,587.6z"/>
<path fill-rule="evenodd" clip-rule="evenodd" fill="#FFFFFF" d="M571.7,557.5c0-6.1-1.9-8.3-7.1-8.4c-4.9-0.1-9.1,5-9.4,11.5
	c-0.1,4.3,3.2,7,8.8,7C569.7,567.5,571.7,564.8,571.7,557.5z"/>
<path fill-rule="evenodd" clip-rule="evenodd" fill="#FFFFFF" d="M216.2,384.7c-0.1-6.7-1.9-9.7-6.2-11c-4.2-1.2-9.9,1-12.9,5.1
	c-2.6,3.5-2.1,6.1,1.6,8.4C204.9,391.1,210.3,388.7,216.2,384.7z"/>
<path fill-rule="evenodd" clip-rule="evenodd" fill="#FFFFFF" d="M577.4,569.6c4.6,0.2,7.9,1,10.9,0.4c4.6-0.9,7-6.2,6.1-11.8
	c-0.6-3.4-5.2-6.1-10-6.1c-5.4,0.1-5.1,4-5.5,7.7C578.7,562.5,578.1,565.2,577.4,569.6z"/>
<path fill-rule="evenodd" clip-rule="evenodd" fill="#FFFFFF" d="M128.6,363.2c-2.1-2.6-3.7-4.7-5.6-6.6c-5.9-6-11.2-5.4-15.2,2.1
	c-1.1,2.1-2,6.4-0.9,7.3c2.2,1.9,6.1,3.5,8.8,2.9C120,368,124,365.3,128.6,363.2z"/>
<path fill-rule="evenodd" clip-rule="evenodd" fill="#FFFFFF" d="M607.5,671c-13.1-3.5-15.8-1.6-14.8,9.1c0.5,5.6,2,7,7.4,7
	c6,0,7.2-1.2,7.4-7.6C607.5,676.8,607.5,674,607.5,671z"/>
<path fill-rule="evenodd" clip-rule="evenodd" fill="#FFFFFF" d="M578,581c-0.5,3.7-0.8,7-1.6,10.2c-0.9,3.9,1.1,5.8,4.4,6.7
	c3.8,1,10.1-1.5,11-4.2c3.3-9.9-0.2-14.5-10.4-13.8C580.5,580,579.7,580.5,578,581z"/>
<path fill-rule="evenodd" clip-rule="evenodd" fill="#FFFFFF" d="M635.2,635.1c4.4-0.7,8.2-1.3,11-1.8c0-5.9,0.1-10.8,0-15.6
	c-0.1-4-2.5-6.3-6.4-6.2c-3.2,0.1-4.6,2.7-4.6,5.8C635.2,622.8,635.2,628.2,635.2,635.1z"/>
<path fill-rule="evenodd" clip-rule="evenodd" fill="#FFFFFF" d="M615.5,570.7c1.4-4.6,4.7-8.6,0.4-12.9c-2.3-2.3-9.5-2.8-12.2-1.2
	c-3.7,2.2-4.7,6.9-2.7,14C605.7,570.7,610.4,570.7,615.5,570.7z"/>
<path fill-rule="evenodd" clip-rule="evenodd" fill="#FFFFFF" d="M619.5,534.2c-2.8-0.5-4.9-0.8-7-1.1c-6-1-9,1.5-9.4,7.4
	c-0.3,4.7,1.3,5.9,7.7,6c1.5,0,3,0.1,4.5,0c5.6-0.4,6.8-1.9,5.8-7.6C621,537.4,620.2,536.1,619.5,534.2z"/>
<path fill-rule="evenodd" clip-rule="evenodd" fill="#FFFFFF" d="M207.5,416.6c-1.7-5.4-3.2-10.2-4.7-15.1c-0.2-0.6-0.2-1.5-0.6-1.7
	c-1.8-0.7-4.4-2.3-5.3-1.6c-2.2,1.7-4.7,4.2-5.2,6.7C189.9,413.2,195.9,417.9,207.5,416.6z"/>
<path fill-rule="evenodd" clip-rule="evenodd" fill="#FFFFFF" d="M616.1,624.3c-0.2,3.3-0.3,6.7,3.9,7c2.3,0.1,6.1-1.2,6.7-2.7
	c1.4-3.8,1.8-8.2,1.6-12.4c-0.1-1.7-2.6-4.3-4.3-4.5c-1.8-0.2-4.8,1.4-5.6,3.1C617,617.6,616.8,621.1,616.1,624.3z"/>
<path fill-rule="evenodd" clip-rule="evenodd" fill="#FFFFFF" d="M494.6,369.5c-0.2-5.7-2.2-7.5-5.9-7.2c-5.5,0.4-10.8,8-9.2,13.4
	c0.9,3.3,6.5,5.8,8.8,3.4C491.2,376,493.2,371.8,494.6,369.5z"/>
<path fill-rule="evenodd" clip-rule="evenodd" fill="#FFFFFF" d="M454.3,383.8c7.3,3.5,11.4-1.5,16.2-4.6c-2.9-7.7-5.2-9.3-11.3-8.2
	C454.6,371.8,453.9,373.5,454.3,383.8z"/>
<path fill-rule="evenodd" clip-rule="evenodd" fill="#FFFFFF" d="M123.5,391.1c-4.5-4.2-7.3-6.9-10.2-9.4c-2.3-1.9-4.8-4.3-7.8-0.9
	c-2.2,2.5-2.5,8.4,0.1,10c2.7,1.8,6,3.2,9.2,3.5C116.9,394.6,119.4,392.7,123.5,391.1z"/>
<path fill-rule="evenodd" clip-rule="evenodd" fill="#FFFFFF" d="M616.9,643.2c-0.7,4.7-1.5,8.3-1.9,12c-0.5,4.7,2.3,7.2,6.8,5.7
	c2.1-0.7,5.3-2.8,5.3-4.3c0-4.4-1.3-8.8-2.1-13.3C622.1,643.2,619.7,643.2,616.9,643.2z"/>
<path fill-rule="evenodd" clip-rule="evenodd" fill="#FFFFFF" d="M598,532.8c-4.9-0.4-8.2-0.8-11.5-1c-3.4-0.2-5.4,2.1-5.1,5
	c0.2,1.9,2,4.7,3.7,5.2c3.6,1.1,7.5,1,12.2,1.5C597.5,539.5,597.7,536.6,598,532.8z"/>
<path fill-rule="evenodd" clip-rule="evenodd" fill="#FFFFFF" d="M576.2,669.5c-0.7,4.5-1.4,9.3-2,14c-0.3,2.8,0.9,5.3,3.8,5
	c1.8-0.2,4.6-2.3,4.9-3.9c0.7-3.8,0.4-7.9-0.1-11.8C582.3,669.6,580.1,668.3,576.2,669.5z"/>
<path fill-rule="evenodd" clip-rule="evenodd" fill="#FFFFFF" d="M603.8,696.5c-2.6,1.8-5.9,2.9-6.9,5c-1.1,2.4-0.5,5.9,0.2,8.8
	c0.3,1.3,2.5,2.8,3.9,2.9c1.3,0.1,3.6-1.3,4-2.6C606.4,706.6,608.6,702.2,603.8,696.5z"/>
<path fill-rule="evenodd" clip-rule="evenodd" fill="#FFFFFF" d="M616.7,684.6c8.2,0,8.6-0.3,8.7-6.1c0-6.4-1-7.3-8.7-7.2
	C616.7,675.5,616.7,679.7,616.7,684.6z"/>
<path fill-rule="evenodd" clip-rule="evenodd" fill="#FFFFFF" d="M231.4,418.9c-4.8,0.4-9.4,0.8-14.1,1.2c1.1,7.5,2.2,8.7,6.6,8.6
	C228.9,428.6,231.1,426,231.4,418.9z"/>
<path fill-rule="evenodd" clip-rule="evenodd" fill="#FFFFFF" d="M633,549.3c1.2-5.4,2.2-10,3.2-14.6c-2.7-0.9-4.4-1.4-6.8-2.1
	c-1.3,5.1-2.5,9.9-3.8,15.2C628.3,548.3,630,548.7,633,549.3z"/>
<path fill-rule="evenodd" clip-rule="evenodd" fill="#FFFFFF" d="M627.4,582.2c-0.8,0-1.6,0.1-2.3,0.1c-1.5,3.8-3.3,7.6-4.4,11.5
	c-0.3,0.9,0.9,2.8,2,3.6c0.7,0.5,2.8,0.3,3.2-0.3c1.7-2.7,3.8-5.5,4.3-8.6C630.5,586.7,628.4,584.4,627.4,582.2z"/>
<path fill-rule="evenodd" clip-rule="evenodd" fill="#FFFFFF" d="M620.9,697.4c-0.9-0.2-1.8-0.3-2.7-0.5c-1.1,2-2.7,3.9-3.1,6
	c-0.5,2.3-0.4,5.1,0.6,7.2c0.7,1.4,3.3,2.5,5.1,2.6c0.8,0.1,2.6-2.8,2.4-4.1C622.8,704.8,621.7,701.2,620.9,697.4z"/>
<path fill-rule="evenodd" clip-rule="evenodd" fill="#FFFFFF" d="M129.3,391.7c-1.8,8.7-0.7,9.4,11.9,8
	C140.7,391.3,133.2,394.5,129.3,391.7z"/>
<path fill-rule="evenodd" clip-rule="evenodd" fill="#FFFFFF" d="M626.8,559.4c-1.3,3.9-2.7,6.9-3,9.9c-0.1,1.5,2,3.1,3,4.7
	c1.4-1,3.6-1.8,3.9-3C631.8,567.2,632.8,563.2,626.8,559.4z"/>
<path fill-rule="evenodd" clip-rule="evenodd" fill="#FFFFFF" d="M580,698.9c-3.5,6.8,0.1,11.5,0.6,17.4
	C586.2,709.6,586.2,708.3,580,698.9z"/>
<path fill-rule="evenodd" clip-rule="evenodd" fill="#FFFFFF" d="M456.3,411.6c-1.3-5.6-2.7-9.8-7.5-12.2
	C445.6,407.7,446.5,409.3,456.3,411.6z"/>
<path fill-rule="evenodd" clip-rule="evenodd" fill="#FFFFFF" d="M487.1,413.8c-5.9-1.4-5.9-1.4-9.7,1.7
	C482.3,417.6,482.3,417.6,487.1,413.8z"/>
<path fill-rule="evenodd" clip-rule="evenodd" fill="#FFFFFF" d="M499.8,390.6c2.6-2.5,5.4-4.9,0-9.2
	C499.8,385.7,499.8,388.1,499.8,390.6z"/>
<path fill-rule="evenodd" clip-rule="evenodd" d="M421.9,318.3c6.4-1.6,11.3-2.2,15.8-4.1c8.8-3.8,18-4.5,27.1-3.5
	c5.3,0.6,11.2,2.4,15.2,5.7c7.6,6.3,16.1,7.9,25.3,8.3c9.8,0.5,19.7,0.8,29.4,2.4c17.9,2.9,31.9,12.4,41.2,28
	c4.7,7.9,8.4,16.4,12.5,24.6c1,1.9,2,3.7,3.4,6.3c9.7-2,19.2-3.9,28.8-5.8c8.4-1.7,16.8-3.5,25.3-4.9c7.6-1.2,15.3-1.6,22.8-2.8
	c8.4-1.4,10.3-4.5,8.1-13c-1.9-7.4-1.5-13.9,4.1-19.6c0.2-0.2,0.4-0.5,0.5-0.8c6.6-11.6,16.3-18.5,29.8-20.9
	c8.9-1.6,11.7-7.4,10.6-18.1c-0.2-2.1-1.2-4.2-1.4-6.3c-0.9-7.2,2.5-12.8,9.5-14.9c24.5-7.1,49.1-13.5,74.7-15.5
	c4.9-0.4,9.7-1.5,14.5-2.3c1.5-0.2,3-0.6,4.5-0.7c21.7-0.4,24.4,4.6,25.5,22.4c0.4,6.1,1.2,12.2,2.2,18.3c0.6,4,3.2,5.4,6.5,3.3
	c3.3-2.1,6.2-4.9,9-7.7c3.9-3.8,7.5-8.1,11.3-11.9c13.9-13.8,27.8-27.6,41.9-41.1c10.3-9.8,17.4-21.4,22.7-34.3
	c3.7-9.1,7.5-18.1,11.8-26.9c3.7-7.5,6.3-8.3,14.1-5.2c12.4,4.9,19.4,14.4,25.3,26.3c8.1,16.4,4.6,33.2,5,49.8
	c0.2,8.5-11.4,13.7-18.8,8.6c-5.5-3.9-11.6-5.3-17.7-7.2c-12.8-4.1-22.1,1.3-30,10.5c-4,4.6-7.3,9.8-10.9,14.7
	c-10.5,14.3-21.2,28.6-31.6,43c-6.4,9-12.5,18.2-18.6,27.4c-3.3,4.9-5.4,10.1-5.9,16.2c-1,10.5-10.4,19.4-20.8,21.7
	c-13.2,2.9-26.1,6.7-39.3,9.5c-7.8,1.7-15.8,3.1-23.7,2.9c-10.6-0.3-21.3-1.7-31.8-3.6c-7.1-1.3-12.8-5.4-15.8-12.8
	c-1.6-3.9-4.6-6.2-9.6-4.7c-6.4,1.9-12.9,1.2-18.9-1.6c-4.2-2-7.3-0.8-9.9,2.1c-6.7,7.5-15.5,12-23.5,17.7
	c-11.7,8.3-22.6,17.8-33.9,26.8c-3.8,3-4.3,6.8-1.6,10.6c7.1,10,8,20.8,6,32.5c-1,6.2-0.2,12.8-0.2,20.6c4,0.5,9.2,1.2,14.4,1.9
	c1.5,2.8,3.5,5.3,4.3,8.1c1,3.4,2.1,7.5,1.1,10.6c-6.6,20.6-8.1,42-9.1,63.3c-0.6,12.5,1.2,25.1,1.8,37.7c0.2,4,0.4,8,0.4,12
	c0,11.4,1,22.6,4.4,33.5c1.2,3.7,0.3,8.1,1.4,11.9c3.1,10.9,6.6,21.7,10.1,32.5c5.8,17.8,5.8,17.1-8.5,22.7
	c-5.4,2.1-10.9,4.3-16.9,2c-1.1-0.4-2.5-0.1-3.6-0.5c-5.7-1.9-9.9,5.5-15.7,2.5c-5.3-2.6-10.6-1.8-16.2-0.8
	c-17.4,3.3-35.3,4.1-52.2,9.8c-12.9,4.3-26.3,7-38.5,14.1c-9.9,5.8-22.3,5.8-34,3c-15.3-3.6-30.2-7.7-44.1-15.5
	c-9.4-5.3-20.7-7.5-31.3-10.6c-15.5-4.6-31.2-8.7-46.8-13.1c-12.3-3.5-24.4-7.6-36.8-10.5c-15.5-3.6-31.1-6.5-46.8-9.2
	c-11.1-1.9-22.3-3-33.4-4.4c-12.2-1.5-24.3-3.3-36.5-4.3c-10.9-0.9-22-1.1-32.9-1.6c-6.7-0.3-13.6-1.7-20.2-1
	c-18.2,1.8-36.7,0.9-54.7,6c-9.6,2.7-19.9,3-29.9,4.4c-5.1,0.7-9.3,2.6-12.8,6.5c-1.7,1.9-4.3,3.6-6.8,4.1
	c-3.8,0.9-7.8,0.8-11.7,0.9c-6,0.2-7.7-2.8-4.9-8.2c5.1-9.8,10.7-19.3,15.3-29.4c7.5-16.5,13.1-33.7,14.4-52c1.4-18,3.7-35.9,4.8-54
	c1.1-18.7,1.8-37.4,1.7-56.1c-0.1-14.2-3.7-27.9-9.2-40.9c-2.4-5.8-6.9-10.9-11.4-15.5c-2.3-2.3-6.5-3-10-3.7
	c-14.1-2.7-24.8,3.2-30.1,16.3c-3.7,9.1,0.9,16.7,10.6,17.9c2.5,0.3,5,1,7.7,1.6c-3.2,6.9-9,10-14.1,8.4C3.8,485-1.1,477.3,1,464.7
	c0.8-4.7,2.4-9.6,4.7-13.8c7.7-13.7,32.9-25.4,47.8-21.7c4.7,1.2,8.7,5.4,12.9,8.4c1.9,1.3,3.5,3,5.8,5c3.2-6.3,2-11.8,1.7-17.1
	c-0.2-4.6-1.2-9.1-1.3-13.7c-0.2-7.2,4.4-10.9,11.4-8.6c9.6,3.2,18.9,7.1,28.4,10.5c4,1.4,8.2,2.4,12.3,3.5
	c1.8-8.5-1.2-14.1-8.3-15.9c-2.3-0.6-4.9-0.4-7.3-0.7c-10.2-1.3-15.4-10.4-12.1-20.2c1.3-3.9,1.5-8.3,1.4-12.5
	c-0.5-12.9,7-21.5,19.7-22.8c2.4-0.3,4.8-1.9,7-3.3c2.6-1.6,4.8-3.7,7.3-5.5c6.9-5.1,14.6-5.2,23.3-3.1c-0.7-4.8-0.9-8.7-1.9-12.4
	c-3.5-12.7-7.2-25.3-11-38c-1-3.2-2.6-6.2-4-9.3c-1.7-3.8-1.4-7.4,2-9.9c3.9-2.9,6.3,0.3,8.5,2.7c7.8,8.3,15.8,16.4,23.1,25.1
	c6.8,8.1,14.8,14.5,23.4,20.7c5.4,3.8,9.9,9.1,14.2,14.2c4.4,5.1,9,5.8,14.7,2.9c3.5-1.8,7.6-2.9,10.7-5.3c9.3-7,19.6-11.5,31-13.5
	c6.7-1.2,11-3.7,12.4-11.3c0.9-4.9,4.5-9.3,7.1-13.8c1.5-2.6,3.3-5,5-7.6c-9.3-5.2-22.4-3.8-30.2,3.4c-4.5,4.1-8.4,9-12.6,13.4
	c-7.1,7.3-13.8,8.7-22.5,5.1c-8.9-3.6-12.2-10.6-12.6-19.6c-0.4-9.4,4.2-17.1,10.7-22.7c14.4-12.4,30.8-20.1,50.8-16
	c4.1,0.8,6.7,2.4,8.7,5.7c2.5,4.2,4.9,8.6,7.8,12.5c7.5,10,17.8,12.6,28.7,4.1c3.3-2.6,7.4-4.7,11.4-5.5c11-2.3,22.1-5.2,33.3-0.1
	c4.1,1.9,8.9,2.1,13.3,3.3c11.1,3,22.3,6,33.3,9.3c6,1.8,10.4,0.5,14.9-4.1c5.3-5.5,11.4-10.4,17.5-15c14.2-10.8,29.7-9.9,45.5-4.3
	c0.9,0.3,1.7,0.8,2.5,1.3c9.6,6.2,17.1,24.4,14.5,35.6c-0.9,3.9-1.7,7.8-3.2,11.5c-3.6,8.9-11.3,10.9-19.1,5.3
	c-7.2-5.2-13.7-11.5-21.5-15.7c-10.7-5.7-22.3-6-33.8-1.4c-3.7,1.5-6.3,4-6.4,8.2C421.8,300.2,421.9,308.5,421.9,318.3z
	 M496.3,500.3c-5.7,2.3-9.8,4.6-14.2,5.6c-22.3,5.2-43.9,13.5-67.1,14.1c-5.2,0.2-10.3-0.3-15.5-0.7c-15.9-1.2-31.3,3.9-47.5,1.7
	c-17.3-2.3-35-0.7-52.5-1.8c-15.9-1-31.7-3.1-47.5-5.3c-10.3-1.5-20.4-4-30.6-6.1c-21.5-4.6-43.1-9.1-64.6-13.9
	c-10.1-2.3-20.2-4.9-30.2-7.8c-12.9-3.8-25.7-8.1-38.5-12.1c-3-0.9-6-1.8-10.2-3.1c0.3,4.2-0.2,7.2,0.7,9.6
	c4.4,10.7,5.5,22,5.5,33.4c0,6.7,0,13.4-0.3,20c-0.6,9.8-2.2,19.6-2.1,29.3c0.2,15.4-1.1,30.6-4.2,45.6c-4.6,22.1-6,44.7-11.5,66.6
	c-1.2,4.8,1,6.7,6.2,6c18.5-2.4,37.1-4.8,55.6-7.2c12.1-1.5,24.3-1.7,36.5-2.5c19.4-1.3,38.5-1.2,57.6,2.1c4.8,0.8,9.6,1.2,14.5,1.6
	c8.8,0.8,17.8,0.6,26.3,2.4c19.8,4,39.4,8.9,59.1,13.5c9.2,2.2,18.4,4.7,27.6,7c11,2.7,22,5.3,32.9,8.1c6.8,1.7,13.6,3.4,20.3,5.7
	c15.4,5.2,30.6,10.8,45.9,16.2c5.8,2,7.6,0.8,8.3-5.5c0.6-4.8,0.9-9.7,1.8-14.5c1-6,3.3-11.9,3.6-17.9c0.5-14.5,2.3-28.5,6.1-42.5
	c3.5-12.6,2.3-26.1,6.8-38.7c2.7-7.7,3.4-16.1,4.6-24.3c0.6-4.1,0.3-8.4,0.6-12.6c0.2-2.9,0.4-5.9,1.2-8.8c0.7-2.6,2.4-5,3-7.7
	C488.5,537.9,492.2,520,496.3,500.3z M640.7,523.8c2.7,3.2,5,5.8,8.2,9.6c3.2-10.2,4.9-19.1,3.9-29.2c-3,0-5.1-0.1-7.1,0
	c-10.1,0.5-20.2,1.2-30.4,1.5c-8.5,0.3-17.1,0.1-25.6-0.1c-1.5,0-3-0.7-4.4-1.3c-2.5-1-4.2-2.6-3.5-5.6c0.8-3.4,3.3-4.7,6.2-3.7
	c6.7,2.4,12.3,0.8,18.2-2.9c2.9-1.8,7-1.8,10.7-2.2c2.7-0.3,5.5-0.1,8.3-0.1c3.1-0.1,5.7-1.3,5.9-4.6c0.6-8.5,1.9-17.2,1-25.7
	c-2.1-21.6-15.9-33.7-35.4-40.6c-3.4-1.2-6.8-2.7-9.9-4.6c-4.3-2.6-8.4-5.5-13.6-9c0.7-1.6,1.2-4.8,3-6c5.8-4,4.5-8.8,2.6-13.9
	c-1.5-3.7-3.4-7.2-5.1-10.8c-5.6-11.8-12.8-22.2-24.4-29.2c-6.6-4-13.3-6.6-21.2-7.9c-11-1.9-21.5-4.1-32.6-1.5
	c-2.9,0.7-6.2,0.4-9.1-0.4c-2-0.5-4.7-2.2-5.2-3.9c-1.9-5.8-6-8.7-11.4-9.5c-7.8-1.1-15.8-2.2-23.6-1.8c-16,0.7-28,9.9-39.2,20.3
	c-7.2,6.7-13.8,14-20.9,20.8c-16.1,15.4-35.4,21.8-57.5,18.4c-8.5-1.3-16.5-4.1-23.3-10.2c-9.6-8.7-16.2-19.1-20.7-31
	c-1.4-3.7-2.6-7.5-3.9-11.3c-1.3-3.8-3.9-6.2-7.9-6.9c-12.9-2.5-26.3,0.1-35.4,12.1c-4,5.3-8.3,10.3-13.2,16.3
	c-4.7-7.7-10.7-6-16-3.5c-9.3,4.3-20,7.4-23.3,19.1c-0.2,0.6-0.5,1.3-1,1.5c-5.8,2.8-5.4,8.2-5.9,13.3c-1.1,10.9-6.2,18.6-17.7,20.4
	c-6.8,1.1-12,5-17.8,8.2c-6.3,3.4-8.4,7.8-10.5,14.6c15.9,4.1,31.2,8.1,46.6,11.9c4.4,1.1,9.1,1.6,13.6,1.8c1.9,0.1,4.4-0.6,5.7-1.9
	c4-3.7,2.9-7-3.2-10.5c-11-6.4-13.2-13.2-9.1-25.4c1.8-5.1,2.8-10.7,2.9-16.1c0.1-4.9,2-8.1,5.6-10.9c8-6.2,16.6-7.3,25.5-2.8
	c2.1-1.3,3.6-2.4,5.1-3.4c6.7-4,9.1-3.9,14.9,0.9c2.1,1.7,3.7,4.1,5.5,6.1c2,2.3,3.9,4.6,5.6,6.5c9.1-2.2,11.5-2.3,13.8,0.6
	c6.4,8,9.8,16.8,1.5,25.7c-4.5,4.8-6.6,9.3-6.8,16c-0.4,10.6-8.8,16-19.1,14c-2.3-0.4-4.8-0.1-7.2,0c-4.6,0.2-9.1,0.6-13.7,0.9
	c-2.3,0.1-4.7,0-7.5,0c0.6,7.6,4.6,11.8,10.1,15.1c10.6,6.4,11.5,7.8,6.5,19c-4.1,9.1-5.2,18.1-3.5,28.9
	c43.4,9.6,87.4,14.6,132.5,11c0.7-3.2,1.6-5.5,1.8-7.9c0.7-9.8,1.3-19.6,1.7-29.4c0.4-9,4.6-15.7,13.1-18
	c11.8-3.1,23.8-5.4,35.7-7.9c6.3-1.3,12.6-2.1,18.9-3.2c10.2-1.9,20.5-3.6,30.6-5.9c4.9-1.1,6.8-6.7,5.8-13.7
	c-0.9-6.2-5-3.3-8.4-3.4c-6.6-0.2-13.2-1.4-16.4-8.2c-2.9-6.2-3.1-12.7,2.2-17.9c4-4,4.3-8.6,3.5-13.6c-1-6.9,1.6-11.8,7.6-15.3
	c3.3-2,6.4-3,10.4-2.2c3.6,0.7,7.3,0.1,10.5,0.1c2.2-2.1,4.2-4,6.3-5.8c6.8-5.9,11.5-5.5,17,1.6c1.1,1.5,2.1,3,3.1,4.6
	c2.1,2.9,4.3,5.8,6.2,8.8c3.8,5.9,8.1,11.5,6.2,19.3c-0.6,2.6-0.3,5.5-0.1,8.3c0.7,7.4-2.5,13.4-8.8,15.7c-6,2.2-10.9,6.2-16.6,8.5
	c-3.4,1.4-7.2,1.4-10.7,2.5c-3.5,1-3.9,3.4-1.9,6.6c3.6-1.1,7.2-3.2,10.6-2.9c3.7,0.3,7.1,2.8,10.7,4.3c0.8,0.4,1.8,0.5,2.6,0.8
	c8,2.4,10.8,6,8.6,14c-2.9,11-3.4,22-3.5,34.4c1.3-2.4,2.2-4,3.1-5.5c7.1-12.9,16.8-22.6,32.1-25.2c9.3-1.5,15.7,1.7,20.8,9.8
	c5.3,8.5,5.6,17.5,4.1,26.7c-2.9,17.1-10.1,21.4-29,19.6c-3.9-0.4-7.5-2.3-7.6-6.7c-0.1-4.8-1.7-10.5,5.2-13.7c1.1,2.2,2.1,4,3,5.8
	c2.7,5.2,5.7,5.6,9.7,1c7.1-8.1,7.5-19,0.3-26.7c-2-2.1-6.2-4.2-8.8-3.5c-6.5,1.5-13.3,4.3-16.3,10.9c-5.1,10.8-9.6,21.9-13.9,33.1
	c-1.7,4.5-2.8,9.4-0.2,14.3c12.2,1.2,23.8,3.1,34.9,8.5c8,3.9,17.5,4.7,26.4,6.7c1.7,0.4,3.6-0.2,6.3-0.4c0-4,0-7.8,0-10.8
	c3.4-4.4,6.4-8.3,9.8-12.8c1.4,4.1,2.5,7.2,3.7,10.5c1.4,0.2,2.6,0.5,3.8,0.5c9.4,0.3,9.3,0.3,11.7-8.9c0.4-1.4,1.5-2.6,3.1-5.4
	c0.4,6.2,0.7,10.4,0.9,14.3c6.9,2.2,12.5,2.6,14.9,1c4.7-2.9,2.5-7.8,3.2-11.8c0.6-3.6,1-7.3,5.4-9.2c6.8,7.5-5.6,16.3,1.1,23.5
	c0.7,0,1.1,0.1,1.3-0.1C635.5,527.9,637.6,526.2,640.7,523.8z M738.2,311.4c-0.4,1.9-1.2,4.3-1.3,6.6c-0.4,23,5.5,44.2,18.2,63.4
	c1.5,2.2,5,4.4,7.5,4.4c12.9,0,26.1,0.9,38.5-1.7c10.1-2.1,20.5-7.2,28.5-13.8c11.7-9.7,21.9-21.5,31.8-33.2
	c10.7-12.6,20.4-26.1,30.5-39.2c4.3-5.6,8.6-11.2,13-16.7c2.9-3.6,6-6.9,9-10.4c1.2-1.5,2.2-3.2,3.6-5.1c-1.4,0-2-0.2-2.5,0
	c-7,2.6-10.7,8.9-15.5,14c-11.4,12-23.2,23.7-34.5,35.7c-5.2,5.6-11.8,8.3-18.3,11.3c-5-4-5.7-9.3-6.5-14.4c-1-6.6-1.4-13.3-2.1-20
	c-0.8-7.2-2.4-8.3-9.5-6.2c-2.1,0.6-4,1.7-6,2.4c-11.2,4.1-22.3,8.9-33.8,11.9C772.6,304.8,756.1,307.7,738.2,311.4z M416.2,306.8
	c-1.2-5-1.4-10.4-3.6-14.8c-11.2-21.6-38.9-24.1-56.1-15.1c-15.9,8.3-21.8,23.6-19,41.4c0.7,4.2,1.2,9,3.6,12.2
	c9.7,13,27.9,18.6,42.8,11.4c6.1-2.9,11.7-6.7,17.6-10C411.3,326.4,416.5,318.6,416.2,306.8z M408.7,461.9c0.2,2.1,0.5,3.9,0.4,5.6
	c-0.4,11-0.9,21.9-1.4,32.9c0,0.6-0.2,1.5,0.1,1.8c1.4,1.5,2.8,3.7,4.4,3.9c1.3,0.1,3.7-2,4.1-3.6c0.8-2.9,0.4-6.1,0.6-9.2
	c0.4-8.6,0.8-17.1,1.5-25.7c0.1-1.4,1.7-2.6,3.9-5.8c0.9,5.3,2,8.5,2,11.7c0,5.8-0.9,11.6-1,17.5c0,3.2,0.5,6.6,1.5,9.7
	c0.5,1.4,2.8,3.1,4.1,2.9c1.8-0.2,4-1.7,5-3.3c1-1.7,0.9-4.1,0.9-6.2c0.1-7.1,0.1-14.2,0-21.3c0-3.9,0.9-7.2,5.5-8.3
	c0.6,1,1.4,1.7,1.4,2.4c-0.2,8.9-0.7,17.8-0.7,26.7c0,9.9,3.6,11.6,12.7,6c-0.2-2.9-0.4-5.9-0.6-9c-0.4-6.1-0.8-12.3-1-18.4
	c-0.1-4.6,2.1-7.8,7.6-10.6c0,3.2,0,5.2,0,7.1c0,9.2-0.1,18.4,0.1,27.6c0,1.3,1.3,2.6,2.2,4.1c2.8-1.1,5.3-2,7.6-2.9
	c-3.4-32.3-3.3-32.9,4.2-37.9c0,3.7-0.1,6.6,0,9.4c0.3,7.4,0.5,14.7,1.2,22c0.2,1.5,2.6,3.7,4.1,3.7c1.4,0,3.8-2.2,4-3.7
	c1.6-12.1,4.6-24.1,2.1-36.5c-2.4-11.8-4.5-13.4-16.1-10.6c-1.5,0.3-3,0.8-4.5,1.1c-13.5,3-26.8,6.8-40.4,8.6
	c-16,2.1-31.2,6.6-46.3,11.7c-2.8,1-6.4,4-6.8,6.6c-1.6,10.6-2.1,21.4-2.9,32.1c-0.3,3.4,2.1,5.7,4.9,5.5c2.2-0.2,4.9-2.2,6.2-4.2
	c1.1-1.5,0.5-4.2,0.5-6.3c0-6.8-0.2-13.6,0.1-20.3c0.2-5,3.1-8.6,6-7.7c4.1,1.2,2.8,4.8,2.7,7.7c-0.1,0.9-0.2,1.8-0.2,2.8
	c0,8.5,0,17,0,26.1c4.6-0.2,7.8-0.4,11.1-0.6c0.2-2.8,0.5-4.6,0.6-6.4c0.4-9.5,0.7-19,1.4-28.5C402,468,401.7,462.8,408.7,461.9z
	 M126.6,436.9c-0.3,3.6-0.6,7.2-1,10.8c-0.4,4.3-1.1,8.5-1.4,12.8c-0.2,3.3,0.6,6.2,5.3,6.8c0.6-2.2,1.5-4.4,1.9-6.7
	c1-5.1,1.4-10.4,2.7-15.4c0.5-2.1,2.6-3.9,4.6-6.6c1.9,6.8,2,6.9,0.3,11c-3,6.8-2.2,13.9-1.3,20.9c0.2,1.6,2.2,3,3.7,5.1
	c6.1-9.3,1.9-20.8,9.8-28.4c0.8,3.9,0.5,7.6,0,11.3c-0.7,4.2-1.9,8.4-2.3,12.6c-0.4,4.2,2.8,7.6,6.5,7.3c3.9-0.2,3.3-3.4,4-6.1
	c1.6-6.2,3.4-12.4,5.4-18.5c0.9-2.6,2.4-4.9,6.9-4.8c0,2.6,0.6,5.1-0.1,7.1c-1.2,3.7-3.1,7.3-4.9,10.8c-5.2,10.3-1.5,17.2,9.2,17.1
	c0.5,0,1.1-0.5,1.1-0.5c2.4-7.2,4.7-14.1,6.9-20.9c8.2-1.1,11.2-5.6,9.9-13.8c-10.9-2.6-21.6-5.2-32.3-7.5c-15-3.2-30-6-43.4-14.1
	c-4.7-2.9-9.7-5.3-14.8-7.4c-6.1-2.4-12.5-4.2-19.4-6.5c0,7.6,0,14,0,20.4c0,3.3,0.5,6.6,0.2,9.9c-0.6,6.4-0.5,6.7,7.7,8.2
	c2.1-8-0.6-16.6,2-25.1c5,2.6,4.8,6,4.6,9.4c-0.1,3.7-0.6,7.4-0.4,11c0.2,4.8,2.1,9,5.5,13.1c4.2-6.9-1.3-14.9,5.5-21.9
	c0.8,3.5,1.6,5.6,1.8,7.8c0.3,3.7,0,7.4,0.2,11.1c0.2,3.7,1.8,6.4,6.3,6.1C121.1,454.6,114.3,443.2,126.6,436.9z M344.7,274.6
	c-4.9-1.1-8.6-2.5-12.5-2.7c-4.2-0.2-8.5,1-12.7,1c-19.3,0.3-37.1,21-34.2,39.9c1.8,11.8,10,20.6,20.7,21.4c7,0.5,14.1,0.2,21.2,0
	c5.4-0.2,6.4-1.6,5.6-6.9c-0.1-0.9-0.4-1.8-0.7-2.7c-6-15.9,0.2-29.4,8.1-42.6C341.5,279.7,342.9,277.5,344.7,274.6z M983.4,251.7
	c3.5-8.3,3.1-15.6,3.2-23c0.2-13.1-4.6-23.9-14.2-32.8c-5.4-5-7.5-4.9-11.7,0.9c-1.2,1.7-2,3.8-2.8,5.7c-3.6,8.2-7,16.3-10.6,24.5
	c-1.7,3.9-3.6,7.7-5.3,11.1c2.3,3.9,3.8,7.5,8.5,6.9c8.2-0.9,15.7,1.6,23.3,4.5C976.6,250.6,979.6,250.9,983.4,251.7z M246.3,394.3
	c-4.2-2.4-2.6-5.1-2.3-7.8c0.7-9-6.4-16.1-15-15.7c-3.2,0.1-5.3,1.2-6.3,4.2c-0.8,2.8-0.6,5.2,2.1,7.3c3.4,2.6,6.5,5.6,9.5,8.7
	c6.9,7.2,12.5,14.5,5.8,25.2c-1.2,1.9-0.3,6.1,1,8.5c0.8,1.5,4.3,2.1,6.6,1.9c4.3-0.4,7-6.1,5.1-10.9c-1.1-2.8-2.7-5.3-4.5-8.5
	c2.3-1.2,4.2-2.8,6-2.8c6.6,0.1,8.2-4.6,9.6-9.4c1.5-5.3-2.6-7.4-6.1-10.5c-2.3,1.6-4.4,2.8-6.2,4.4
	C249.6,390.6,247.9,392.6,246.3,394.3z M721.7,334.8c-4.8,2.2-7.9,3.5-10.8,5.1c-8.9,4.9-12.1,15.7-7.1,23.6
	c4.1,6.5,17.2,7.9,24.2,2.8C726,356.1,723.9,346.1,721.7,334.8z M664.4,714.2c-2.2-5.8-3.8-10.7-5.8-15.4c-0.6-1.5-2-3.5-3.4-3.8
	c-4.8-0.9-9.7-1.6-14.5-1.5c-4.5,0.1-7.4,2.7-7.3,7.7c0,2.5-0.1,4.9,0.1,7.4c0.2,4,2.5,6,6.5,6.3c5.2,0.4,10.3,1.4,15.5,1.5
	C658.2,716.4,661.1,715.1,664.4,714.2z M779.8,279.2c-2.8-0.8-4-1.6-5-1.4c-6.3,1.1-12.6,2.3-18.9,3.6c-4.7,1.1-9.5,2.3-14.1,3.8
	c-3.1,1-5.5,3.1-4.6,6.9c0.9,3.8,3.5,5.5,7.4,5.4c4-0.1,8,0.1,11.9-0.2c7.4-0.6,13.1-5.2,18.6-9.4
	C777.3,286.3,778,282.8,779.8,279.2z M648.1,539.2c-6.1,3.2-6.9,5.1-5.9,11.3c0.4,2.5,1.1,5.6,0.1,7.7c-6.3,13.2-5.3,27.4-5.8,41.4
	c-0.1,3.6,1.7,6,5.5,5.9c3.6-0.1,4.3-2.8,4.3-5.8c0-11,0-21.9,0.1-32.9c0-4,0.5-7.9,0.7-11.9C647.4,550,647.8,544.9,648.1,539.2z
	 M150.8,365c1.1-4,2.7-7.4,2.9-10.9c0.2-3.5-0.1-7.4-1.6-10.5c-2.7-5.4-11.2-6.9-15.9-3.6c-4.9,3.5-5.8,9.1-1.1,14.3
	C139.2,359.1,144.3,363,150.8,365z M548.3,692.3c16.2-0.8,18.1-2.4,16.5-13.9c-1.2-8.8-0.5-13.4-16.5-9.8
	C548.3,676.3,548.3,684,548.3,692.3z M512.8,668.4c-2.7-0.4-5-0.9-7.4-1c-9.1-0.3-12.8,4.2-10.9,13.2c0.3,1.5,1.2,2.9,1.2,4.4
	c0,3.9,2,6.2,5.6,5.4c3.5-0.8,8.8,0.3,9.7-5.1C512,680,512.2,674.6,512.8,668.4z M549.4,702.4c0.3,5.8,0.3,10.6,1,15.3
	c0.3,1.7,2.1,3.9,3.7,4.6c7.2,3,14.3-2,14.5-9.9c0.3-8.8-1.5-10.6-10.5-10.6C555.8,701.9,553.4,702.2,549.4,702.4z M460.8,402.5
	c7.3,5.4,14.4,4.9,21.8,2.2c4-1.5,7-4.1,7.4-8.4c0.4-4.4-3-6.2-5.5-7.3c-5.6,1.1-10.3,2.1-14.7,2.9
	C467.2,395,464.6,398.1,460.8,402.5z M544.5,653.2c4,0.7,7.3,1.3,10.5,1.9c8.4,1.6,9.2,1,9.3-7.2c0-2.4,0-4.9-0.5-7.3
	c-1-4.8-4.9-4.7-8.7-4.6c-3.7,0.1-7.9-0.5-9,4.3C545.2,644.3,545.1,648.5,544.5,653.2z M236,406.2c-0.7-1.8-1.2-3.3-1.9-4.6
	c-5.6-10-6-10.1-17-6.2c-5.9,2-6.9,4.9-3.8,10.2C217.9,413.6,227.5,414.1,236,406.2z M515.7,729.7c2.2-6.7-0.3-11.3-2.5-16
	c-2-4.2-5.2-4.9-9.1-4.1c-4.2,0.8-6.6,3.7-6.3,7.8c0.4,4.8,1.6,9.4,2.5,15C506.4,731.3,511.3,730.5,515.7,729.7z M650.4,663.9
	c-0.8-6.2-1-11.7-2.2-17c-1-4.5-4.3-6.3-9-5.7c-4,0.5-5.9,2.7-5.8,6.8c0.1,4.5,0,9,0,13.9C638.8,662.5,643.7,663.1,650.4,663.9z
	 M521.8,545.9c-5.2-0.6-10-1.2-14.8-1.9c-5.5-0.7-8.1,1.2-8.6,6.5c-0.5,5.1,1.3,7.1,6.6,7.7c3,0.3,6.1,0.6,9.1,1
	c6,0.7,8-0.9,8.2-6.8C522.4,550.4,522,548.3,521.8,545.9z M537.6,667.9c-14.2-2.2-15.2-1.4-15.2,10.8c0,3.3,0.3,6.5,0.4,10.3
	c4.5,0,8,0,13,0C536.4,682.1,537,675.3,537.6,667.9z M144.2,371.7c-4.3,0.5-6.9,1-9.5,1.1c-1.1,0-2.3-0.8-3.5-1.1
	c-3.1-0.6-6.5-0.9-7.8,2.7c-1.3,3.7,0.5,6.6,4.1,8c2.5,1,5.1,1.8,7.8,2.6c4.5,1.3,9.6,2.6,12.5-1.9
	C151.2,377.9,146.8,374.3,144.2,371.7z M155.1,369.9c0.9,7.4,1.7,13.8,2.5,20.3c6.2,0.4,11.1-2.3,13.6-7.8c2.1-4.5,0.9-8.1-4.3-12.8
	C163,366.2,161.4,366.2,155.1,369.9z M529.5,560.6c9.3,3.7,14.7,3.6,17.4-0.3c1.9-2.7,1.9-9.9,0-12.2c-1.7-2.1-9.8-4-12.9-2.4
	C527.8,548.9,529.2,554.7,529.5,560.6z M594.5,629.1c4.2,0.5,6.6,0.9,9,1c5.3,0.2,7.1-1.3,7.5-6.8c0.3-4.1,0.1-8.4,0.1-13.7
	c-4.2,0-7.2-0.4-10.1,0.2c-1.8,0.4-4.4,2-4.7,3.5C595.3,618.2,595.1,623.3,594.5,629.1z M595.2,637.7c-3,7.1-4.2,13.8-1.9,20.9
	c13.3,1.7,13.3,1.7,14.3-10.5c0.2-2,0.5-4,0.9-6.7C604,640.2,600,639,595.2,637.7z M493.2,613.8c6.7,1.5,12.9,5.4,20.9,2.6
	c0.1-4.8,1.9-10.9-3.3-13.1c-4.3-1.9-10.5-1.5-15.2-0.1C491.3,604.5,491.6,609.4,493.2,613.8z M562.3,595.5c5.4,0.4,7-1.3,7.5-8.3
	c0.5-6.9-1.9-10-8.2-10.4c-5.8-0.4-8.6,3.1-9.3,11.8C551.9,594,553.2,594.8,562.3,595.5z M635,684.3c7,0.5,13,1,19.1,1.4
	c2.4-6.2-0.3-10.2-2.4-14.5c-3.7-0.3-7.1-0.7-10.4-0.7c-6.1,0.1-8.3,2.4-7.8,8.4C633.6,680.7,634.5,682.4,635,684.3z M526,590.9
	c5.9,0.7,11.1,1.4,15.9,2c4.2-9.1,4.3-11.7,1.2-14.6c-2.5-2.3-10.5-3.1-14-1.2C523.6,580.1,525.7,584.9,526,590.9z M597.7,597.4
	c16,2.2,17,1.4,17.5-13.9c-3.7-3-8.2-4.5-12.6-2.2C596.1,584.7,598.8,591.4,597.7,597.4z M558.3,624.8c6.7,0.3,9.6-2,9.7-7.9
	c0.1-5.1-2.7-8.8-7-9c-7.5-0.4-12.3,4-12.5,11.4C548.4,623.1,550.7,624.4,558.3,624.8z M524.2,650.7c7,3.3,11.8,3.5,13-0.2
	c1.3-4.1,1.7-9.2,0.4-13.2c-1.4-4.3-6.5-3.8-10.5-3.7c-3.5,0.1-4.9,2-4.3,5.5C523.4,643,523.7,646.9,524.2,650.7z M574.2,627.2
	c2.4,0.4,3.9,0.6,5.3,0.8c3.2,0.5,6.2,0.7,7.9-2.8c1.9-3.9,3.7-7.9,0.8-12.1c-1.9-2.8-4.2-5.6-8.2-4.4c-3.5,1.1-5.8,3.4-5.8,7.3
	C574.2,619.5,574.2,622.9,574.2,627.2z M541.4,723.3c-1.1-4.6-1.9-9.6-3.4-14.4c-1.1-3.6-4.6-3.6-7.7-3.1c-3.1,0.4-5,2.2-4.8,5.5
	c0.2,2.7,0.1,5.6,0.9,8.1C529.2,727.9,532,728.7,541.4,723.3z M521,620.1c5.8,0.9,9.7,1.7,13.6,2.1c4.4,0.5,6-1.3,6.9-6.7
	c0.6-3.8-0.3-6.8-4.4-7.7c-3.8-0.9-7.6-1.5-12.7-2.5C523.3,610.1,522.3,614.7,521,620.1z M492.8,633.5c-0.4,3.4-0.6,4.9-0.6,6.4
	c-0.1,7.8,2,9.8,9.7,8.9c1.8-0.2,3.5-0.9,5.3-1.2c3.7-0.7,5-3.7,4.9-6.7c-0.1-3.1-1.7-6.1-5.3-6.5
	C502.4,633.7,498,633.7,492.8,633.5z M583.6,657.8c0.6-5.7,1.2-10.7,1.6-15.8c0.3-3.8-2.4-5.3-5.6-5.9c-3.6-0.7-6.2,1-6.7,4.4
	c-0.8,5.6-0.9,11.3-1.3,17.3C575.8,657.8,578.7,657.8,583.6,657.8z M515.5,587.6c4.5-10.5,2.9-13-7.3-13.3c-1.5-0.1-3-0.6-4.4-0.9
	c-4.3-1-6.2,1.5-7,5.2c-0.9,4,0.5,6.5,4.8,7.1C506,586.2,510.5,586.9,515.5,587.6z M571.7,557.5c0-6.1-1.9-8.3-7.1-8.4
	c-4.9-0.1-9.1,5-9.4,11.5c-0.1,4.3,3.2,7,8.8,7C569.7,567.5,571.7,564.8,571.7,557.5z M216.2,384.7c-0.1-6.7-1.9-9.7-6.2-11
	c-4.2-1.2-9.9,1-12.9,5.1c-2.6,3.5-2.1,6.1,1.6,8.4C204.9,391.1,210.3,388.7,216.2,384.7z M577.4,569.6c4.6,0.2,7.9,1,10.9,0.4
	c4.6-0.9,7-6.2,6.1-11.8c-0.6-3.4-5.2-6.1-10-6.1c-5.4,0.1-5.1,4-5.5,7.7C578.7,562.5,578.1,565.2,577.4,569.6z M128.6,363.2
	c-2.1-2.6-3.7-4.7-5.6-6.6c-5.9-6-11.2-5.4-15.2,2.1c-1.1,2.1-2,6.4-0.9,7.3c2.2,1.9,6.1,3.5,8.8,2.9C120,368,124,365.3,128.6,363.2
	z M607.5,671c-13.1-3.5-15.8-1.6-14.8,9.1c0.5,5.6,2,7,7.4,7c6,0,7.2-1.2,7.4-7.6C607.5,676.8,607.5,674,607.5,671z M578,581
	c-0.5,3.7-0.8,7-1.6,10.2c-0.9,3.9,1.1,5.8,4.4,6.7c3.8,1,10.1-1.5,11-4.2c3.3-9.9-0.2-14.5-10.4-13.8
	C580.5,580,579.7,580.5,578,581z M635.2,635.1c4.4-0.7,8.2-1.3,11-1.8c0-5.9,0.1-10.8,0-15.6c-0.1-4-2.5-6.3-6.4-6.2
	c-3.2,0.1-4.6,2.7-4.6,5.8C635.2,622.8,635.2,628.2,635.2,635.1z M615.5,570.7c1.4-4.6,4.7-8.6,0.4-12.9c-2.3-2.3-9.5-2.8-12.2-1.2
	c-3.7,2.2-4.7,6.9-2.7,14C605.7,570.7,610.4,570.7,615.5,570.7z M619.5,534.2c-2.8-0.5-4.9-0.8-7-1.1c-6-1-9,1.5-9.4,7.4
	c-0.3,4.7,1.3,5.9,7.7,6c1.5,0,3,0.1,4.5,0c5.6-0.4,6.8-1.9,5.8-7.6C621,537.4,620.2,536.1,619.5,534.2z M207.5,416.6
	c-1.7-5.4-3.2-10.2-4.7-15.1c-0.2-0.6-0.2-1.5-0.6-1.7c-1.8-0.7-4.4-2.3-5.3-1.6c-2.2,1.7-4.7,4.2-5.2,6.7
	C189.9,413.2,195.9,417.9,207.5,416.6z M616.1,624.3c-0.2,3.3-0.3,6.7,3.9,7c2.3,0.1,6.1-1.2,6.7-2.7c1.4-3.8,1.8-8.2,1.6-12.4
	c-0.1-1.7-2.6-4.3-4.3-4.5c-1.8-0.2-4.8,1.4-5.6,3.1C617,617.6,616.8,621.1,616.1,624.3z M494.6,369.5c-0.2-5.7-2.2-7.5-5.9-7.2
	c-5.5,0.4-10.8,8-9.2,13.4c0.9,3.3,6.5,5.8,8.8,3.4C491.2,376,493.2,371.8,494.6,369.5z M454.3,383.8c7.3,3.5,11.4-1.5,16.2-4.6
	c-2.9-7.7-5.2-9.3-11.3-8.2C454.6,371.8,453.9,373.5,454.3,383.8z M123.5,391.1c-4.5-4.2-7.3-6.9-10.2-9.4c-2.3-1.9-4.8-4.3-7.8-0.9
	c-2.2,2.5-2.5,8.4,0.1,10c2.7,1.8,6,3.2,9.2,3.5C116.9,394.6,119.4,392.7,123.5,391.1z M616.9,643.2c-0.7,4.7-1.5,8.3-1.9,12
	c-0.5,4.7,2.3,7.2,6.8,5.7c2.1-0.7,5.3-2.8,5.3-4.3c0-4.4-1.3-8.8-2.1-13.3C622.1,643.2,619.7,643.2,616.9,643.2z M598,532.8
	c-4.9-0.4-8.2-0.8-11.5-1c-3.4-0.2-5.4,2.1-5.1,5c0.2,1.9,2,4.7,3.7,5.2c3.6,1.1,7.5,1,12.2,1.5C597.5,539.5,597.7,536.6,598,532.8z
	 M576.2,669.5c-0.7,4.5-1.4,9.3-2,14c-0.3,2.8,0.9,5.3,3.8,5c1.8-0.2,4.6-2.3,4.9-3.9c0.7-3.8,0.4-7.9-0.1-11.8
	C582.3,669.6,580.1,668.3,576.2,669.5z M603.8,696.5c-2.6,1.8-5.9,2.9-6.9,5c-1.1,2.4-0.5,5.9,0.2,8.8c0.3,1.3,2.5,2.8,3.9,2.9
	c1.3,0.1,3.6-1.3,4-2.6C606.4,706.6,608.6,702.2,603.8,696.5z M616.7,684.6c8.2,0,8.6-0.3,8.7-6.1c0-6.4-1-7.3-8.7-7.2
	C616.7,675.5,616.7,679.7,616.7,684.6z M231.4,418.9c-4.8,0.4-9.4,0.8-14.1,1.2c1.1,7.5,2.2,8.7,6.6,8.6
	C228.9,428.6,231.1,426,231.4,418.9z M633,549.3c1.2-5.4,2.2-10,3.2-14.6c-2.7-0.9-4.4-1.4-6.8-2.1c-1.3,5.1-2.5,9.9-3.8,15.2
	C628.3,548.3,630,548.7,633,549.3z M627.4,582.2c-0.8,0-1.6,0.1-2.3,0.1c-1.5,3.8-3.3,7.6-4.4,11.5c-0.3,0.9,0.9,2.8,2,3.6
	c0.7,0.5,2.8,0.3,3.2-0.3c1.7-2.7,3.8-5.5,4.3-8.6C630.5,586.7,628.4,584.4,627.4,582.2z M620.9,697.4c-0.9-0.2-1.8-0.3-2.7-0.5
	c-1.1,2-2.7,3.9-3.1,6c-0.5,2.3-0.4,5.1,0.6,7.2c0.7,1.4,3.3,2.5,5.1,2.6c0.8,0.1,2.6-2.8,2.4-4.1
	C622.8,704.8,621.7,701.2,620.9,697.4z M129.3,391.7c-1.8,8.7-0.7,9.4,11.9,8C140.7,391.3,133.2,394.5,129.3,391.7z M626.8,559.4
	c-1.3,3.9-2.7,6.9-3,9.9c-0.1,1.5,2,3.1,3,4.7c1.4-1,3.6-1.8,3.9-3C631.8,567.2,632.8,563.2,626.8,559.4z M580,698.9
	c-3.5,6.8,0.1,11.5,0.6,17.4C586.2,709.6,586.2,708.3,580,698.9z M456.3,411.6c-1.3-5.6-2.7-9.8-7.5-12.2
	C445.6,407.7,446.5,409.3,456.3,411.6z M487.1,413.8c-5.9-1.4-5.9-1.4-9.7,1.7C482.3,417.6,482.3,417.6,487.1,413.8z M499.8,390.6
	c2.6-2.5,5.4-4.9,0-9.2C499.8,385.7,499.8,388.1,499.8,390.6z"/>
<path fill-rule="evenodd" clip-rule="evenodd" d="M310.1,250.2c-2.1-6.2-5.2-12.3-6.1-18.7c-2.9-20-4.8-40.1-7.3-60.2
	c-1.5-12.2-3.9-24.2-5.1-36.4c-2.1-22.2-8.7-43.9-6.2-66.7c1.6-14.7,8.6-26,18.1-36.3c1-1.1,2.3-2.1,3.7-2.7
	c18.9-8.9,38.3-15.7,59.5-17.2c14.3-1,28.4-4.2,42.6-6.3c5.5-0.8,10.9-1.6,16.4-2c23-1.4,46-3.3,69-3.5c20.1-0.2,40.3,1,60.5,2.6
	c14.7,1.2,29.1,4.1,43.5,6.6c15.7,2.8,27,13,34.2,27.2c3.5,7,3.8,15.2,1.4,22.6c-7.5,23.3-15.6,46.5-23.4,69.7
	c-2,5.8-3.9,11.6-5.9,17.4c-8.8,24.5-18.2,48.9-26.3,73.6c-7.8,23.6-14.3,47.6-21.7,71.3c-2.5,8.2-5.8,16.1-9.1,24.1
	c-1,2.3-3.2,4.2-5.1,6.4c-5.4-3-4.4-7.1-3.4-10.8c3.8-14.5,7.3-29.2,12.1-43.4c11.3-33.7,23.3-67.2,35-100.8
	c12.5-36,21.3-73,30.1-109.9c1.6-6.8,1.6-14,2.2-21c0.3-4.1-1.3-7-5.4-8.6c-11.5-4.5-23.2-7.7-35.4-9.3c-13.7-1.7-27.3-3.5-41-5.1
	c-7-0.8-14-1.4-21.1-1.6c-12.2-0.3-24.5,0.1-36.8-0.1c-5.3-0.1-9.1,1-9.4,7.2c-0.1,1.1-0.9,2.3-1.5,3.4c-8.7,14.9-12,31.3-13.9,48.1
	c-1.7,15.9-2.9,31.8-4.5,47.6c-1.4,14.3-3.4,28.6-4.5,42.9c-1.2,15.3-1.6,30.6-2.2,45.9c-0.3,6.5-0.4,12.9-0.7,19.4
	c-0.2,5.6-2.3,10.1-7.6,12.8c-5.3-1.3-5.3-5-4.9-9.3c1.3-14.6,2.4-29.3,3.7-43.9c0.8-8.8,2.3-17.6,2.8-26.5
	c1-16.1,1.5-32.3,2.4-48.4c0.5-8.9,1.9-17.7,2.5-26.6c1.3-20.5,2.6-41.1,3.5-61.6c0.3-8.1-2.2-9.8-10.2-8.6
	c-11.2,1.7-22.4,3.6-33.6,5.1c-3.2,0.4-6.6-0.2-9.9-0.1c-2.7,0.1-5.6,0-8,1c-11.9,5-24.6,5.7-37,6.2c-8.8,0.3-15.8,4.5-23.3,7.3
	c-4.9,1.8-9.1,6.3-13.1,10.1c-5.1,4.9-5.9,11.9-7.1,18.4c-0.6,3.3-0.1,6.8-0.1,10.1c-0.2,13.1-0.9,26.2-0.5,39.3
	c0.6,17.5,1.9,34.9,3.3,52.4c1.1,14.1,2.7,28.1,4.1,42.1c1.3,12.8,2.6,25.6,3.9,38.4c0.2,2-0.2,4-0.3,6
	C311.9,249.8,311,250,310.1,250.2z"/>
<path fill-rule="evenodd" clip-rule="evenodd" d="M518.7,54.5c-3.6,0.3-7.4,0-11,0.9c-8.9,2.2-16.7,5.5-19.3,15.9
	c-3.5,14.2-8,28.3-11.9,42.4c-0.6,2.3-0.5,4.9-0.4,7.3c0.3,12.4-1.6,24.4-4.3,36.5c-2.6,11.6-4,23.5-5.5,35.4
	c-0.9,7.6-0.6,15.3-1.6,22.8c-0.4,2.7-2.6,5.5-4.7,7.6c-1.2,1.2-4.3,1.8-5.6,1.1c-1.2-0.7-1.8-3.6-1.6-5.5
	c3.5-24.6,7.4-49.1,10.7-73.7c1.6-11.5,2.2-23.2,3.2-34.8c0.2-2.1,0.3-4.3,0.8-6.3c3.7-13.2,7.3-26.5,11.5-39.5
	c2.7-8.1,7.8-14.5,16.5-17.1c13-3.9,26.1-5.6,39.6-3.3c11.2,1.9,22.2,4.5,32.6,9.4c4.1,1.9,8.9,2.6,12.5,5c8.1,5.4,11,12.9,9.4,23.1
	c-4.1,27.1-13.8,52.7-21.1,78.9c-5.7,20.6-12.5,40.9-18.6,61.4c-6.5,21.7-13.6,43.3-18.5,65.4c-0.6,2.7-0.4,5.5-0.8,8.2
	c-0.3,2-0.7,4.4-1.9,5.9c-2,2.5-4.2,6-8.2,4.5c-4.6-1.7-2.8-5.8-2-8.7c3.2-12.7,6.8-25.4,10.3-38c2.5-8.9,4.9-17.8,7.7-26.5
	c4.1-13.2,8.8-26.2,12.6-39.4c4.1-14.4,7.6-29.1,11.2-43.7c3.1-12.5,6.6-24.9,8.7-37.6c1.7-10.5,2.5-21.3,2.2-32
	c-0.3-11.1-2.9-13.3-13.6-16.4c-9.1-2.7-18.1-5.4-27.3-7.8C526.8,54.9,522.7,54.9,518.7,54.5z"/>
<path fill-rule="evenodd" clip-rule="evenodd" d="M332,236.6c-5.4-2-7.8-4.7-8.4-9.1c-0.4-3.3-1.2-6.7-1.4-10
	c-0.6-14.1-0.9-28.2-1.4-42.3c-0.4-9.7-1.5-19.4-1.7-29.1c-0.1-8.6,1.6-17.3,0.9-25.7c-1.4-15.2,1.6-29.9,2.8-44.8
	c1.1-14.1,10.3-21.8,22.8-26.1c16-5.5,32.7-7.9,49.4-10.3c4.4-0.6,9.1-0.4,13.4,0.6c8.5,2.1,11.6,8.9,13.6,16.9
	c4.5,17.7,1.8,35.4,0.3,53.1c-1.8,20.5-3.3,41-5.5,61.4c-2,18.3-4.5,36.5-3.8,55c0.1,3.8-1.6,7.8-3,11.5c-0.6,1.5-2.3,2.6-3.4,3.8
	c-5.4-1.2-5.2-5.1-5-8.8c0.8-12,1.6-23.9,2.6-35.8c1.7-21.6,3.5-43.2,5.4-64.9c0.9-10.4,2.4-20.7,3-31.1c0.7-12.2,2.8-24.4,0.3-36.6
	c-2.2-10.5-5.3-13.4-15.6-12.5c-12.5,1.2-24.9,2.1-37.1,5.6c-16.8,4.9-26.6,15-28.1,32.3c-1.2,13.4-3.6,26.7-2.3,40.4
	c1,10-0.1,20.3,0.1,30.4c0.5,18.1,1.2,36.2,1.9,54.3c0.2,4,0.8,7.9,0.9,11.9C332.8,229.7,332.3,232.8,332,236.6z"/>
<path fill-rule="evenodd" clip-rule="evenodd" d="M496.8,146.2c-4.4-2.9-2.9-7.2-2.3-10.8c2.3-15.4,5.1-30.7,7.6-46
	c1.1-6.6,1.6-7.3,9-8.4c0,2.2,0.5,4.4-0.1,6.2c-5.6,16.3-6,33.6-8.9,50.3C501.4,141.1,501.4,145,496.8,146.2z"/>
<path fill-rule="evenodd" clip-rule="evenodd" d="M347.7,81.9c0.9,8.5,2.3,16.9,2.6,25.4c0.5,11.6,0.1,23.3,0.1,35
	c0,1.5,0.3,3.3-0.4,4.5c-0.8,1.3-2.6,2.9-3.8,2.8c-1.3-0.1-3.1-1.9-3.5-3.3c-0.6-2.3-0.7-5-0.1-7.3c3.7-15.6,0.6-31-1-46.5
	c-0.3-2.7-0.6-5.6,0-8.2c0.3-1.4,2.6-2.4,3.9-3.6C346.2,81.2,346.9,81.5,347.7,81.9z"/>
<path fill-rule="evenodd" clip-rule="evenodd" d="M361,93.6c0.8,2.6,1.9,4.7,2.2,6.9c0.9,7.6,1.3,15.2,2.2,22.7c0.3,3.1,0,6-3.3,6.4
	c-3.4,0.4-4.4-2.6-4.6-5.5c-0.5-7.3-1.2-14.6-1.4-21.9C355.9,98.2,356.2,98.1,361,93.6z"/>
<path fill-rule="evenodd" clip-rule="evenodd" d="M515.6,131.5c-3.2-12.2,0.1-22.7,1.7-33.2c0.3-1.7,3.4-2.9,5.1-4.3
	c5.3,4.3,1.7,8.5,1.1,12.4c-0.6,4.5-2.2,8.9-3,13.5C520,123.8,521.6,128.5,515.6,131.5z"/>
<path fill-rule="evenodd" clip-rule="evenodd" d="M409.3,690.6c-0.9-0.5-1.9-1.3-3-1.7c-11.3-3.8-11.8-13.1-10.7-22.4
	c2.3-19.7,5.2-39.4,7.8-59.1c0.3-2.4,0.5-4.9,0.6-7.3c0.7-17.8,1.3-35.6,1.9-53.4c0.2-6.3,3.6-10,8.6-9.2c4.4,0.7,9.8,7.9,8.9,12.4
	c-1.2,5.7-3,11.2-4.5,16.9c-0.7,2.6-1.6,5.3-1.8,8c-0.9,12.5-2.1,25.1-2.4,37.6c-0.4,15.6-0.2,31.3,0.2,46.9
	c0.1,6.4,1.3,12.7,2,19.1C417.5,684.6,416,687.1,409.3,690.6z"/>
<path fill-rule="evenodd" clip-rule="evenodd" d="M117.4,652.5c-4.3-2.5-4-5.8-3.3-9.2c3.9-18.2,8.3-36.4,11.7-54.7
	c2.2-12,3.1-24.3,4.4-36.4c0.7-6.1,1.2-12.2,1.2-18.3c0-5.8-0.7-11.5-1.5-17.3c-0.5-3.8,0.9-5.8,4.5-6.7c8.7-2.1,17.7,5.3,15.2,14.1
	c-4,14-1.1,28.9-6.8,42.5c-1.2,3-1.5,6.6-1.4,9.9c0.7,16.9-4,32.6-9.3,48.3c-1,2.9-1.6,5.9-1.9,8.9
	C129.6,641.5,125.4,647.8,117.4,652.5z"/>
<path fill-rule="evenodd" clip-rule="evenodd" d="M215.4,545.1c-1.3,8.7-3.1,18.1-4.2,27.5c-2.1,19.7-5.2,39.5-1,59.3
	c0.8,3.9,0.9,7.9,0.8,11.9c-0.2,7.8-5.3,13-11.7,12.4c-7.5-0.7-13-8.2-11.6-15.6c2.4-12.3,5.6-24.5,6.9-37c2.1-20.5,2.9-41,4.2-61.6
	c0.1-1.2-0.1-2.5,0.2-3.7c0.9-3.4,6.6-7.8,9.7-7.6c3.2,0.2,6.3,4.2,6.7,8.9C215.5,541.3,215.4,542.8,215.4,545.1z"/>
<path fill-rule="evenodd" clip-rule="evenodd" d="M255.1,663.9c-0.3-9-0.6-17.9-0.9-26.9c0-1.5-0.3-3.2,0.1-4.6
	c3.8-11.7,4.8-23.9,6.1-36c1.2-10.9,2.8-21.8,4.2-32.7c0.6-4.5,1.2-9.1,2-13.6c0.6-3.5,3-5.4,6.4-5.4c2.8,0,4.6,4.1,4.2,8
	c-1.8,19.4-5.7,38.7-4.6,58.3c0.4,7,0.7,14.1,2.1,21c2,9.6,1,18.9-0.6,28.3c-1.1,6.6-6.6,10.5-13.2,10.5
	C256.6,670.7,254.2,668.3,255.1,663.9z"/>
<path fill-rule="evenodd" clip-rule="evenodd" d="M333.6,667.3c-7.7-3.9-8.8-5.4-7.6-12.2c2.1-12,4.5-24,7-36
	c1.5-7.5,1.2-15,3.3-22.6c2.8-10.5,2.9-21.8,4.3-32.7c0.5-3.6,1.1-7.3,2.5-10.6c2.4-5.7,9.5-7.9,14.7-4.7c3.1,1.9,5,4.5,3.7,8.4
	c-0.6,1.7-1.1,3.6-2.1,5.1c-6.6,10.1-8,21.7-9.7,33.2c-0.8,5.1-1.8,10.3-3.5,15.2c-3.9,11.7-5.4,23.8-5.1,36.1
	C341.3,654.1,337.6,660.4,333.6,667.3z"/>
<path fill-rule="evenodd" clip-rule="evenodd" d="M449.2,582.3c-6.8,2.9-12.9-0.6-18.9-2.9c-1.1-0.4-2.2-4-1.5-5.3
	c0.7-1.4,3.9-2.8,5.2-2.3c5.5,2.3,10.8,5.3,16.1,8C449.8,580.7,449.5,581.5,449.2,582.3z"/>
<path fill-rule="evenodd" clip-rule="evenodd" d="M455,677.6c-5.2,2-10.3,4.4-15.6,5.9c-2.1,0.6-4.9,0-7.1-0.8
	c-2.5-1-2.3-5.5,0.2-5.7C439.8,676.4,447.1,673.5,455,677.6z"/>
<path fill-rule="evenodd" clip-rule="evenodd" d="M244,565.2c-7.3,2.9-14,0.1-20.7-0.7c-0.8-0.1-1.8-2.3-1.9-3.6
	c-0.1-0.8,1.4-1.8,2.3-2.6c0.4-0.4,1.2-0.5,1.7-0.5C232.2,558.6,238.3,561.1,244,565.2z"/>
<path fill-rule="evenodd" clip-rule="evenodd" d="M365,606.1c4.5-5.3,8.7-2.2,12.6-1.6c3.1,0.5,8.9-1.9,8.2,3.9
	c-0.6,4.7-6,2.7-9.4,2.9C372,611.5,368.4,609.5,365,606.1z"/>
<path fill-rule="evenodd" clip-rule="evenodd" d="M152.9,616.9c9.1-2.1,9.8-2,17.1,3.8C159.6,626.7,153.4,625.3,152.9,616.9z"/>
<path fill-rule="evenodd" clip-rule="evenodd" d="M307.9,653.6c-5.6,6.3-12.2,4.2-18.3,3.6c-1-0.1-2.8-4.3-2.3-4.9
	c1.3-1.6,4-3.2,5.8-2.9C297.7,650.2,302.2,651.9,307.9,653.6z"/>
<path fill-rule="evenodd" clip-rule="evenodd" d="M179.1,585.6c-1.6,1.7-2.6,3.5-4.1,4.2c-3.4,1.7-11.2,0-17-3.1
	C162.5,581.2,165.1,581,179.1,585.6z"/>
<path fill-rule="evenodd" clip-rule="evenodd" d="M361.6,625c6.5,0.3,11.9,1.9,16.8,6.7c-3,4.3-6.6,4.1-10.5,2.6
	C364.2,632.8,360.1,631.6,361.6,625z"/>
<path fill-rule="evenodd" clip-rule="evenodd" d="M384.9,580.3c-6.5,3.9-12.3,3.5-19.4-0.7C370.7,573.6,377.2,573.6,384.9,580.3z"/>
<path fill-rule="evenodd" clip-rule="evenodd" d="M373.7,659.9c-4.7,0-9.4,0.1-14.1,0c-3.1-0.1-4.8-2.1-3.8-4.8
	c0.5-1.4,3.6-3.2,4.7-2.7c4.5,1.9,10.6,0,13.8,5C374,658.2,373.8,659.1,373.7,659.9z"/>
<path fill-rule="evenodd" clip-rule="evenodd" d="M299.7,576.1c-6.4,0.1-10.8-2.7-10.7-5.9c0.1-3.7,3.2-4.2,5.8-4.3
	c4.3-0.2,9,3.5,8.2,6.6C302.6,574.2,300.3,575.5,299.7,576.1z"/>
<path fill-rule="evenodd" clip-rule="evenodd" d="M314.7,609.6c-1.9,3.2-2.4,4.9-3.1,5c-4.7,0.8-9.5,1.7-14.2,1.7
	c-1.3,0-2.6-2.5-4-3.9c1.4-0.9,2.7-2.6,4.1-2.7C302.5,609.4,307.6,609.6,314.7,609.6z"/>
<path fill-rule="evenodd" clip-rule="evenodd" d="M450.8,610.3c-5.8,2.2-10.4,1.3-14.9-0.3c-1.1-0.4-2.4-2.2-2.3-3.3
	c0.1-1.1,1.5-2.6,2.7-3.1C440.2,601.7,445.3,603.9,450.8,610.3z"/>
<path fill-rule="evenodd" clip-rule="evenodd" d="M243.7,640.4c-8.8,6.1-14.2,5.6-19.5-1.3C231.2,634.8,237.4,640.3,243.7,640.4z"/>
<path fill-rule="evenodd" clip-rule="evenodd" d="M222.3,582.1c2.6-1.3,4.7-3.2,6.6-3.1c3.5,0.2,7,1.4,10.4,2.5
	c0.6,0.2,1.2,2.2,0.8,3.1c-0.3,1-1.9,2.4-2.6,2.2C232.8,585.5,227.2,587.3,222.3,582.1z"/>
<path fill-rule="evenodd" clip-rule="evenodd" d="M160.9,539.3c6.2-3.9,11.1-0.2,16.3,0.5C171.8,547,166.8,546.9,160.9,539.3z"/>
<path fill-rule="evenodd" clip-rule="evenodd" d="M240.8,608.8c-3,0.4-6,1.2-8.9,1c-1.7-0.1-3.2-1.8-4.9-2.8
	c1.8-1.4,3.6-4.1,5.2-3.9c3.1,0.3,6.1,2.1,9.1,3.4C241.2,607.3,241,608,240.8,608.8z"/>
<path fill-rule="evenodd" clip-rule="evenodd" d="M306.2,589.8c-2.6,4.7-5.9,5.2-9.3,4.5c-1.2-0.3-2.9-1.7-3.1-2.8
	c-0.2-1,1.1-3.1,2.1-3.5C299.4,586.8,303,586.6,306.2,589.8z"/>
<path fill-rule="evenodd" clip-rule="evenodd" d="M158.3,564.4c5.4-1.3,10.6-2.8,16.4-0.4C167.5,569.8,161.7,569.9,158.3,564.4z"/>
<path fill-rule="evenodd" clip-rule="evenodd" d="M442.2,635.7c-3,2-4.2,3.5-5.6,3.6c-2.7,0.2-5.9-0.3-6-3.9c0-1.1,2.4-3.4,3.5-3.2
	C436.4,632.5,438.5,634,442.2,635.7z"/>
<path fill-rule="evenodd" clip-rule="evenodd" d="M97.1,529.6c3.7,1,6.5,1.8,10.2,2.8C100.4,537.2,99.8,537,97.1,529.6z"/>
<path fill-rule="evenodd" clip-rule="evenodd" d="M106,603.3c-3.8,2-6.8,1.5-9.3-2.1C102,597.5,102,597.5,106,603.3z"/>
<path fill-rule="evenodd" clip-rule="evenodd" d="M754,325.5c1.7,3.9,3.6,7.3,4.7,11c2.6,9.3,4.2,18.9,11.9,26.1
	c3.3,3.1,1.4,7.1-3.1,8.1c-5.7,1.2-9.4-0.4-11.6-6.1c-1.8-4.5-2.9-9.3-4.2-14c-1.4-5.3-2.7-10.6-3.8-15.9
	C747.1,330.8,746.8,326.7,754,325.5z"/>
<path fill-rule="evenodd" clip-rule="evenodd" d="M786.4,360.6c-4.9,2.1-8.2,1-11.3-3c-4.4-5.7-8-11.4-7.4-19
	c0.3-3.6,2.2-6.1,5.6-5.9c1.8,0.1,4.4,2.3,5,4.1C781.1,344.6,786.3,351.7,786.4,360.6z"/>
<path fill-rule="evenodd" clip-rule="evenodd" d="M310.3,318.3c-2.3-0.7-4.6-1.3-6.8-2.3c-3.2-1.5-5.6-3.7-4.8-7.8
	c0.8-4.2,3.7-6.5,7.6-6.6c2.9-0.1,6.2,0.6,8.6,2.2c3.1,2.1,5,5.6,3.6,9.6C317.3,317.2,314.1,318.1,310.3,318.3z"/>
<path fill-rule="evenodd" clip-rule="evenodd" d="M366.6,325.2c-2.4,0.3-4.7,0.9-7.1,0.9c-3.6,0.1-6.6-1-7.7-5
	c-1.1-4.2,0.6-7.5,4-9.2c2.6-1.3,5.9-2.1,8.7-1.8c3.7,0.5,6.9,2.8,7.4,7C372.4,321.1,369.9,323.3,366.6,325.2z"/>
</svg>
