<?xml version="1.0" encoding="utf-8"?>
<!DOCTYPE svg PUBLIC "-//W3C//DTD SVG 1.1//EN" "http://www.w3.org/Graphics/SVG/1.1/DTD/svg11.dtd">
<svg artist="zl2017" version="1.1" id="zlIcon-sheep-round-w" xmlns="http://www.w3.org/2000/svg" xmlns:xlink="http://www.w3.org/1999/xlink"
	 x="0px" y="0px" width="1000px" height="909.8px" viewBox="0 85 1000 909.8" enable-background="new 0 85 1000 909.8"
	 xml:space="preserve">
<path fill="#FFFFFF" d="M289,324.1c34.7-90.9,97.9-62.5,150.4-110.2c13.3-12.1-55.5-8.6-32-8.6c48.5-115.8,245.5-135.8,309.3-14.2
	c-10.7,1.8-20,6.5-27.7,14.1c0.9,1.6,80.3-4.4,95-0.1c49.1,14.4,97.2,38.3,123.6,84.2c23.3,40.4,42.6,76,25.2,121.8
	c-18,47.3-20.9,33.6-72.6,33.4c10.9,0.1,5.4-4,0,0c144.4,37.2,156.2,123.6,105.8,232.9c-26.2,56.5-135.6,178.5-194.2,120.2
	c12.6-7.1,18.5-16.6,17.6-28.5c-30.6,7.1-21.2,13.7-47.5,42.1c-36.4,39.2-60.9,44.2-107.2,59.2c-79.7,26-183.6-34.3-209.1-113.3
	c-26.7,27.5,13.6,57.7-43.9,57.6c-43.4-0.1-69.4-20.2-101.4-47.9c-72.6-62.9-38.9-90.6,22.2-97.2"/>
<path d="M0.5,280.9c0-46.9,40.7-64.6,82.6-74.3c63.2-14.6,74.8,20.3,82.6,70.1c6,38.3,72.4,23.2,92.9,34.4
	c18.7,10.2,53.7-66.5,76.2-77.9c77.9-39.4,92.7-151,207.1-148.1c27.4,0.7,55.8-0.8,86.4,2.3c71.9,7.3,88.3,87.1,155.4,93.9
	c75.3,7.6,148.1,68.7,167.6,140.9c12.2,45,12.3,74,7,119.1c-4,34.2,22.3,49.5,41.1,79.9c0,92.8-14.3,190.6-94,250.6
	c-24.9,18.8-48.3,67.2-81.7,71.7C775.3,850,791.1,956.7,766,983c-7.8-30.5-7.6-89.1-36.7-108.2c-12.6,15.7-61.6,115.8-61.1,116.2
	c-17.8-11.3-2.6-102.3-34.1-102.6c-37.3-0.4-66.9-5.4-102.9-13.4c-52.9-11.8-50.8,88-70.8,119.9c-5.9,0-43.8-150.4-49.8-163.3
	c-7,9.4-84.5,148.6-87.5,147.4c-19.6-7.4,8.2-48.1-2.7-56.9c2,1.6-1.1-56.9-0.6-44.8c-2.5-64.2,11.8-42.9-28.5-74.1
	c-18.5-14.3-70.7-110.5-71.8-110.4c-50.4,1.8-88.8-30.1-119.6-66.7C18,528,35.4,332,179.6,310.7C102.9,238.6,62,329,0.5,280.9
	C0.5,272.9,10.3,288.6,0.5,280.9z M860.2,444.5c23.8-17.4,47.5,11.3,66.9-19.7c29.4-46.7,4.9-93-19.5-135.5
	c-23.7-41.1-58-56.7-98.9-75.2c-17.1-7.7-121.1-11.3-119.7-8.9c7.7-7.6,17-12.3,27.7-14.1C652.9,69.6,455.9,89.6,407.5,205.3
	c-23.5,0,45.3-3.5,32,8.6c-52.5,47.8-115.8,19.4-150.4,110.2c54.7,17.9,104.5,29.4,155.7,56.4c58.3,30.8,73.9,12.9,120.3-30.8
	c53.7-50.5,135.3,63.9,107.6,95.1c-18.2,20.6-34.8,7.6-54.3-6.8c-53.8-39.7-73.3-43.8-132.6-15.9c58.3,101.8-41.4,228.4-141.9,256.6
	c-68.6,19.3-117.4-12-80.1,67.3c14.6,31.2,50.7,47.3,81.9,53.4c84.2,17,45.4-6.8,80.1-42.7c37.8,69.2,94.8,104.8,171.9,110.9
	c99.5,7.9,125.5-83.4,191.8-98.9c0.8,11.8-5.1,21.3-17.6,28.5c44.4,35.7,176.1-57.6,179-111.1c2.9-52.2,54.1-107.4,26.9-162.6
	C956.3,480.5,901.5,462.7,860.2,444.5C865.7,440.6,870.2,448.9,860.2,444.5z"/>
<g>
	<path fill="#FFFFFF" d="M203.6,555.2c-156,14.1-179.1-185.5-36.5-227.1c37-10.8,182.4,3.1,120.5,49.9
		C234.5,418,189.1,489.2,203.6,555.2C188.5,555.9,202,548,203.6,555.2z"/>
	<path d="M151.5,441.1c0-40.9,59-40.8,55-8.6C202.5,465.5,150.1,483,151.5,441.1C151.5,423.7,150.9,460.1,151.5,441.1z"/>
</g>
<g>
	<path fill="#FFFFFF" d="M242.9,589.2c-23.6-39-27.1-67.8-16-107.9c18.9-68.5,99-149.7,220.3-79.1c73.5,42.8,47.6,174.4-41,222.8
		C347.3,657.1,295.8,626.8,242.9,589.2C239.8,584.1,247.2,592.2,242.9,589.2z"/>
	<path d="M347,532.5c-39.4-0.2-34.1-69.3,5.6-66.6C399.3,469.1,387.4,530.8,347,532.5C336.3,532.4,359.8,532,347,532.5z"/>
</g>
</svg>
