<?xml version="1.0" encoding="utf-8"?>
<!DOCTYPE svg PUBLIC "-//W3C//DTD SVG 1.1//EN" "http://www.w3.org/Graphics/SVG/1.1/DTD/svg11.dtd">
<svg artist="zl2017" version="1.1" id="zlIcon-sheep-3x3" xmlns="http://www.w3.org/2000/svg" xmlns:xlink="http://www.w3.org/1999/xlink" x="0px" y="0px"
	 width="1000px" height="752.2px" viewBox="0 0 1000 752.2" enable-background="new 0 0 1000 752.2" xml:space="preserve">
<path fill-rule="evenodd" clip-rule="evenodd" d="M538.2,715.8c-8.9,6.2-13.7,14-14.2,23.9c-0.2,4-0.5,8.4-5.3,8.8
	c-4.6,0.4-5.8-4.1-7.4-7.6c-1.3-2.9-3-5.6-4.7-8.8c-7.6-0.6-15.1-1.1-22.1-1.6c-6.4,2.4-5.8,8.3-7.8,12.8c-2.1,4.5-4,9.6-11.8,8.8
	c-4.5-5.5-5.3-13.4-3.1-19.3c5.6-15.4-0.8-27.2-8.6-39.1c-0.7-1.1-1.5-2.1-2.3-3.1c-1-0.7-2-1.8-3.2-2c-20.2-3.7-35.7-15-49.1-30
	c-1.6-1.8-4.5-2.3-6.4-4c-13.8-12.2-16.4-30.7-6.4-46.6c3.7-5.9,8.4-11.3,13.3-17.8c-2-2.5-4.1-5.3-6.9-8.8
	c-8.9,4.8-17.2,9-24.7,14.9c-4.6,3.6-5.5,3.1-13.5-2.9c6.8-13.3,16.5-23.5,30.9-29.8c9.7,5.1,13.6,15,21,23.6
	c8.1-0.5,17.1,11.5,26.6-0.6c-0.4-2-0.4-3.9-1.1-5.6c-7.7-17.6-1-31,12.4-42.3c3.9-3.3,8.5-5.6,12.6-8.7c4.1-3,8.5-5.9,11.8-9.7
	c17.2-20.1,39-19.8,57-12c2.9,1.3,5.8,2.8,8.6,4.3c4.1,2.2,8.1,2.2,12.9,1.4c10-1.8,20.3-3.6,30.3-3.3c15.8,0.5,29.4,6.1,38,21.1
	c5.7,10,8.9,19.7,3.3,30.8c16.2,11.8,24.6,26.1,25.2,45.8c0.6,19.7-8.7,32.4-23.9,42.3c0,4.4,0,8.3,0,12.1
	c0.2,12.8-4.7,23.6-12.7,33.2c-3.3,3.9-6.1,8.3-10,11.6c-6.9,5.7-9.3,13.4-11.5,21.5c-1.1,4.1-3.1,8-5.2,13.4
	c-2.9-2.6-5.3-3.9-6.2-5.8c-1.9-4-3.4-8.3-4.2-12.6c-1-5.3-3.7-7.9-8.9-8.2c-5.8-0.3-8.4,1.6-11,8.3c-0.9,2.4-1,5.1-2.4,7.2
	c-1.7,2.6-4.2,4.6-7.5,8c-1.8-3.8-4-6.4-4-9.1C536.2,725.5,537.5,720.7,538.2,715.8z M608,573.5c0.9-3.9,1.8-6.8,2.3-9.8
	c0.9-5.6,2.7-11.4,2-16.8c-1.9-13.7-19.6-28.3-33.7-28.8c-11-0.4-21.6,1.2-31.7,5.8c-7.3,3.3-12.8,2.1-18.7-4.1
	c-11-11.5-25.4-9.2-39.3-7.5c-1.6,0.2-3.3,1.8-4.6,3.1c-6.5,6.8-13.4,13-13,24.1c0.2,6.9-4.8,7.7-11.8,2.5c-0.9-0.7-2-1.2-3.1-1.9
	c-10,3.3-14.5,12-18.6,20.5c-3.6,7.4-1,14,6,17.9c18.6,10.4,49.5,7.8,60.3-17.7c2.4-5.7,3.1-12.6,9.3-16.9c1.4,0,3.5-0.5,5.1,0.1
	c12.7,4.5,24,11.5,34.8,19.4c2,1.5,3.6,3.6,5.1,5.7c5.3,7.6,1.2,17.6-8,18.7c-5,0.6-10.2,0.4-15.3-0.3c-13-1.7-25.5-1.6-36.3,8.2
	c0.7,5.6,2.2,11.9,2.2,18.2c0,6.9-1.4,13.9-2,20.8c-0.2,2.5-0.1,5.2,0.8,7.4c2.5,6.2,0.4,11.6-3.3,16.1c-5.7,6.8-12,13.1-18.5,19.3
	c-4.5,4.3-9.6,8.1-14.6,12.2c3.1,7,4.5,14.8,9.1,19.5c15.1,15.2,30,18.9,47,4.7c5.3-4.4,9.1-10.5,13-15.2c13.9,3.3,23.8,10.1,37,9.4
	c14.9-0.8,20.8-14,32.7-17.7c7.7-9.8,12.5-20.3,9.4-31c-5.3-5.5-11.1,0.9-16.1-4.7c3.2-2.5,5.4-4.8,8-6.1c4.5-2.4,9.3-4.3,14-6.2
	c10.3-4.2,17.5-12.1,18.8-22.5c1.6-13.2,0.6-26.9-9.2-37.7c-2.5-2.7-6-4.6-9.4-6.2C615.1,574.5,611.9,574.3,608,573.5z M468.3,591.6
	c-1.9,0-3.9-0.4-5.7,0.1c-9.1,2.7-18.3,5.2-27.2,8.5c-5,1.9-8.5,6.4-8.1,11.9c0.7,9.4,1.8,18.9,3.9,28.1c1.8,8.1,8.5,13.9,15.9,15.1
	c14.1,2.1,27.8-0.1,38.8-11c7-6.9,8.1-15.7,8.6-24.5C495.4,602.7,485.6,592.5,468.3,591.6z M421.8,646.1
	c-0.6-11.1-1.1-20.4-1.6-29.8c-0.2-3.8,0-7.6-0.3-11.4c-0.3-3.9-4.3-6.8-8-6.3c-15.7,2.1-24.6,13.6-22.4,29c0.4,2.5,1.1,4.9,1.9,7.3
	c2.1,6.4,6.4,10.6,12.7,13.1C410.4,650.7,416.3,650.8,421.8,646.1z"/>
<path fill-rule="evenodd" clip-rule="evenodd" d="M40.4,588.1c-1.3-10.7,4.3-18.4,11.5-25c9.9-9.1,21.2-16.4,34.1-20.6
	c5.7-1.8,10-4.9,14.1-9.3c13-14.1,27.1-16.3,44.8-7.5c5.1,2.5,10,5.6,15,8.4c4.4,2.5,8.8,5.1,13.4,7.7c7.4-3.7,13.5-10.5,24.4-8.8
	c18.1,8.9,24,28.2,31.8,46.9c6.2-2.2,11.9-5.4,17.9-6.1c11.6-1.4,16.1-9,19.2-18.5c1.2-3.6,1.3-7.6,2.9-11c2.1-4.7,8.2-5.8,13.2-4.7
	c6.9,1.5,7,10.2,14.6,11.4c5.9,1,11.2,5.5,16.5,8.8c1.2,0.7,1.9,3.5,1.5,5c-0.4,1.5-2.3,2.7-3.7,3.9c-0.4,0.4-1.2,0.3-1.9,0.4
	c-0.6,0.1-1.3,0.2-1.9,0.2c-7,0.1-14.2-0.8-20.9,0.6c-6,1.3-11.5,5.1-17.5,7.9c3.8,9.8,8.3,19.5,11.2,29.6c1.5,5.2,0.2,11.2,0,16.9
	c-1.5-1-3.9-1.8-4.2-3.1c-0.9-3.7-0.5-7.6-1.3-11.3c-3.2-15-14.7-25.2-28.9-25.9c-4-0.2-7.6,0.8-10,4.4c-4.5,7.1-7.7,14.5-7.2,23.2
	c0.6,9.3,0.9,18.7,1.4,29.8c2.2,1.2,5.9,3.8,9.9,5.2c16.2,5.6,24.6,2.1,32.6-13c1.2-2.2,1.7-4.8,3.1-6.8c1-1.4,3.2-1.9,4.8-2.8
	c-1.5,11-4.4,21.2-15,27.4c-1.6,0.9-3.3,2.4-4,4c-6.9,14.5-21.8,21.1-32,32.4c-8,8.9-13.9,9.1-30.3,6c-8.8,6.8-14.5,15-13.8,27.2
	c0.2,3.4-2.4,6.9-4.4,11.9c-7.2-6.1-12.6-15.1-23.4-8.5c-2.6,4.8-5.6,10.2-9.1,16.6c-11.9-5.9-15-22.3-31.2-22.6
	c-0.7,0.7-2.4,2.4-4.2,4.1c-7.5,6.8-9.5,5.9-12.5-5.2c-0.1-0.5-1-0.8-1.9-1.6c-6.3,4.6-5.6,15-14.7,19.1
	c-6.4-10.2-4.3-21.1-5.1-32.1c-2.5-3-5.3-6.4-8.2-9.8c-9.1-10.5-13.8-22.6-14.7-36.6c-0.6-8.8-2.9-17.5-4.4-26.2l-0.7,0.6
	c5.3-1.2,5.5-6.5,8.1-9.9c1.7-2.3,4.1-4.1,6.2-6.1c1.2,0.5,2.4,1,3.5,1.5c-3.4,8.5-8.3,16.3-7.9,26c0.3,8.6-2.2,16.7,2,25.5
	c4.2,8.8,9.5,16.3,14.7,23.2c11.2,0.9,21.3,1.6,29.8,2.3c5.4,6.4,8.9,11.8,13.6,15.9c4.9,4.4,11,5.9,17.8,3.3c1.2-0.5,3.3,2,5.1,2.3
	c4.4,0.6,9.8,2.4,13,0.6c9.8-5.5,22-6.9,29.6-16.3c2.2-2.7,3.5-6.2,5.2-9.1c-6.1-5.6-10.9-10.7-16.4-14.9
	c-18.8-14.3-23.7-33.6-21.1-56c0.3-2.2-1.1-4.6-1.6-6.6c-11.8-2.4-19.3,1.1-23.9,11.6c-2,4.5-5.8,8.4-9.5,11.9
	c-5.4,5-12.8,2.2-14.7-5.1c-1.3-5.1-1.1-10.1,1.3-14.9c3.6-7.4,6.7-15.2,10.8-22.3c5-8.7,9-18.5,20.8-23c3.8,4.9,7.5,9.8,11.2,14.7
	c5.3,7,8.1,7.7,16.3,5.1c4.7-1.5,9.7-2.9,14.6-3.2c9.4-0.6,18.5-3.4,28.2-1.6c3.7,0.7,8-2,12.8-3.4c-2.5-7.9-4.7-14.6-6.8-21.2
	c-2.4-7.6-7.5-13.2-13.4-18.3c-3.2-2.7-6.7-3.6-10.6-2.3c-5.6,1.8-10.4,4.1-12.9,10.3c-1.2,2.9-4.9,4.7-8.1,7.7
	c-2.2-3.3-3.5-5.5-5.1-7.4c-9.2-10.6-18.5-20.4-34.5-20.4c-14.5,0-17.9,1.2-24.2,16c-2.1,4.9-4.4,9-10.7,9.8
	c-4.2-5.4-9.1-8-16.2-4.1c-13.6,7.5-26.4,15.6-33.3,30.4c-1,2.1-3.3,3.6-5,5.3L40.4,588.1z M163.1,629.2c-3.7,10,2.4,18.1,6.7,26.6
	c5.1,10.3,9.1,12.5,19.3,11c21-3.1,39.9-31.8,34.3-52.2c-0.3-1.2-1-2.4-1.5-3.5c-2.1-5-5.2-9-10.9-9.7c-7.5-1-15.1-2.1-22.7-2.3
	c-15.4-0.3-24.6,8.6-25.6,23.9C162.6,624.9,163,626.9,163.1,629.2z"/>
<path fill-rule="evenodd" clip-rule="evenodd" d="M622.5,264c2.9-1.5,4.5,0.1,6,2.4c4.4,7.2,3.2,14.9,1.6,22.3
	c-1.3,6.2-3.7,12.1-5.9,18.8c5.7,7.4,13.1,13.4,16.6,22.8c5.6,14.7,10.2,28.9,2.4,44c0.7,10.5-5.5,17.9-11.5,25.4
	c-3.1,4-5.4,8.6-8.2,12.8c-8,12.3-15.2,25.2-26.1,33.1c-5.8,6.9,3.8,17.3-7.7,20.9c-7.9-0.6-6.1-15.7-18.1-11.1
	c-1,8.2-2.6,17.4-14.8,17.4c-2.8,7.5,0.9,18.4-11.3,20.1c-9.8-4.2-4.3-14.9-9.5-22.8c-3.9-0.3-8.8-0.7-12.9-1
	c-7.7,3.7-5.7,16.1-17,15.3c-5-6.6-0.1-14.4-1.2-20c-5.1-5.6-10.1-9.7-13.3-14.9c-3.2-5.3-4.6-11.7-7.1-18.6
	c-6.1,1.9-11.4,3.5-16.7,5.2c-6.5,2.1-13.1,1.5-18.4-2.2c-6.6-4.7-13.5-8.8-19.3-15.2c-8.8-9.8-19.9-17.6-30.4-25.8
	c-6.1-4.7-8.5-10.9-9.7-17.8c-3.2-18.4,6.4-31.9,26.4-37.5c-3.5-12.6-18.6-13.3-23.1-24.4c-9.3-0.3-15.6,12.5-25.8,3.5
	c5.7-10.8,15.2-18.4,24-26.5c3-2.8,7.9-2.4,10.2,1.1c3.8,5.8,8.3,11.8,9.6,18.4c2.3,12,11,19.6,16.7,29.2c2,3.4,7.3,4,10.2,1.7
	c4.5-3.6,9.7-7.3,8.8-13.9c-2.6-17.9,5.2-29.4,21-35.6c1-2.5,1.8-4.3,2.4-6.1c4.8-15.1,15.3-23.3,30.6-23.6c10.2-0.2,20.4,0,32.2,0
	c6.4-8.8,16-15.7,28.5-18.2c8.1-1.6,8-2,20.8,1.4c-13.4,3-25.5,3-34.5,10.6c-4.2,3.6-7.3,8.5-12.1,14.3c-7.1,1.5-16.1,0-24.6-2
	c-9.5-2.2-16,3.2-23,7c-2.8,1.5-4.5,6.2-5.2,9.7c-1.3,6.1-1.5,12.5-2.3,19.7c-7.7-0.8-15.5-9.1-21.7,0.8c-0.6,1-1.4,2-1.6,3.1
	c-4.6,19.9,3.4,18.8,18.8,22.5c7.2,1.7,15.2,0.3,23.2,0.3c7.6-3.5,13-9.5,16.6-17.3c1.3-2.9,2.8-5.8,4.3-8.6
	c5.6-10,11.2-12,22.1-7.9c0.6,0.2,1.2,0.5,1.8,0.8c12.9,5.8,22.6,15.8,36.2,24.8c-5.2,2.6-7.8,5.1-10.4,5c-5-0.2-9.9-1.9-14.9-3
	c-9.5-2.1-18.7-3.5-27.2,3.8c-2.6,2.2-7.2,2-10.7,3.1c-2.9,1-5.6,2.4-9.5,4c2.8,5.8,5.2,10.8,7.6,15.7c4.4,9.3,4.3,18.6-0.4,27.6
	c-5.3,10.2-11.1,20.1-16.9,30.5c0.6,3.1,5.5,6.8-0.4,10.6c-4.3,2.8-4.4,7.2-3.4,12c3.3,16.7,15.5,29.1,31.9,31.4
	c3,0.4,6.7,0,9.2-1.5c7.9-4.8,18.1-6,22.6-16.1c2.2-4.9,7.2-8.5,11.6-13.4c2.9,4.7,5.7,9.2,9.4,15.2c3.1-3.6,5.5-5.7,6.8-8.2
	c2.2-4.4,4.9-6.6,10.3-6.7c6.5-0.1,6.5-0.8,11.9-9.1c-2-1-4-1.9-6.1-2.9c0.6-6.9,6.6-8.8,10.8-12.5c3.3-2.9,7.9-6.1,8.5-9.6
	c1.1-7.2,3-11.6,10.9-13.1c5.6-1.1,7.9-7.6,8-11.9c0.3-13.3,1.1-26.9-5.6-39.4c-6.2-11.7-9.3-13.8-23.7-13.5
	c-3.1-4.5,1.2-7.7,3.1-10c10.4-12.2,13.3-25.8,9.8-41.1c-0.4-1.8-0.4-3.8-0.7-5.7L622.5,264z M470.1,409.3c18,1.3,26.6-8.1,32.7-21
	c1.1-2.3,2.6-4.4,3.8-6.6c3.7-7.2,3.6-14.8,1.6-22.4c-3.5-13.1-15.7-23.2-27.7-22.1c-12.7,1.2-21.2,10.2-30.4,17.7
	c-0.9,0.7-1.5,2.1-1.8,3.3c-3.7,16.5-2.3,31.7,11.3,43.6C463.3,405.3,467.8,407.7,470.1,409.3z M438.8,356.5
	c-4.3-6.1-10.4-8.5-17.5-10.2c-12.7-3.1-28,13.3-22.9,26.8c4,10.6,10.8,16.3,20.8,20.5c7.6,3.2,13.4,2.6,19.7-3.9
	C438.8,379.8,438.8,369.1,438.8,356.5z"/>
<path fill-rule="evenodd" clip-rule="evenodd" d="M187.9,311.8c-10.9,2-19.5-3.5-27.3-8.6c-21.8,4.4-38.2,13.3-41.4,38.1
	c-6.7-1.8-12.4-3.3-19-5c-1.7,4.6-3.8,8.5-4.7,12.7c-3.2,14.2-2.5,15.4,12.7,23.4c18.6-1.7,26.2-18.1,37.6-29.7
	c2.2,0.9,4.5,1.1,5.5,2.3c5.9,7.4,10.8,15.7,20.4,19.3c1.2,0.4,2.6,3.8,2.1,4.7c-1.1,1.8-3.4,3.8-5.4,4c-7.5,0.7-15.2-0.8-22.6,2.9
	c-2.4,1.2-6.7,0.9-9.2-0.5c-7.7-4.5-11.8-0.4-16.4,5.9c2.1,5.6,3.9,11.7,6.7,17.3c4.1,8.4,3,16-1.6,23.6c-3,4.9-5.7,10-9.1,14.5
	c-1.8,2.3-4.8,3.8-7.4,5.2c-5.5,3-11.2,5.7-16.8,8.4c2.6,12.1,11.9,16.4,21.2,20.4c13.6,5.8,27.4,3.8,41.2,0.1
	c1.4-4.4,2.7-8.4,3.9-12.1c2.1-0.1,3.6-0.7,4.5-0.2c7.2,4,14.1,8.6,21.5,12.3c9.5,4.8,18.7,3.1,27.1-3c2-1.4,4.9-4,4.7-5.7
	c-1.2-9.5,7.8-14.5,8.9-22.9c3.9-1.4,7.7-2.3,11-4c9.5-4.9,14.1-13.3,12.4-23.7c-1.3-8.1-3.3-16.3-9.3-23.1c-3.1,2.2-6,4.2-10.8,7.5
	c3.1-9.7,5.2-17.5,8.1-25.1c3-8,2.6-14.8-3.9-21c-1.8-1.7-2.8-4.2-4.3-6.3c-4.3-6.2-10.1-9.5-17.8-9.5c-8.9,0.1-17.8,0-28.1,0
	c0.7-3.2,0.8-6.2,2-8.6c1.6-3.4,3.9-6.4,5.9-9.5c3.1,3.9,5.8,8,12,8.1c5.7,0.1,11.5,1.4,17,2.9c18.1,5.1,28.5,19.7,26.5,38.8
	c-0.7,6.9,1.3,12.6,3,18.6c1.4,4.9,4,9.4,5.9,14.1c5.8,14.1,1.9,26.5-7.9,36.8c-7.5,7.9-15.3,15.2-19.8,25.4
	c-1.7,3.9-5.3,7.3-8.8,10c-7.6,5.8-12.3,12.6-12.2,22.6c0,2.6-2.6,5.2-4.3,8.4c-9.6-4.4-9.9-13.6-14.2-20.5c-3,0-6.1,0-9.5,0
	c-2.3,5.1-4.6,10-6.8,14.8c-8.9-1.4-8.1-7.9-9.3-13.4c-0.8,0.5-1.8,0.7-2.1,1.3c-2.4,5.2-4.6,10.5-7,15.7c-1,2.2-2.5,4.3-4,6.9
	c-12.5-2.5-8.9-16.3-16.3-21.9c-5.6-1.9-9.6-0.1-12.3,5.4c-2.2,4.3-2.1,10.3-9,12.4c-6.1-6.4-4.3-15.4-7.8-23.4
	c-4-3.7-9.2-7.5-13.2-12.2C86,462,83,456.3,79.2,450.5c-8.7-0.9-17.5-2.2-24.3-8.9c-1.9-1.9-5.8-2.6-8.7-2.5
	c-9.1,0.3-14-4.7-17.8-12.1c-9.2-17.8-4.6-40.9,10.9-53.5c3.4-2.8,7.2-5.3,10.7-7.9c-1.3-7.6-3.6-10.1-8.6-8.9
	c-3.6,0.9-7.1,2.8-10.6,4.2c-3.5,1.4-7,3.1-10.7,4c-3.6,0.9-7.4,1-12.7,1.7c0.9-3.5,0.8-6.2,2.1-7.7c7.1-8.2,14.2-16.4,21.9-24
	c6.8-6.8,14.4-5.8,19,2.5c3.7,6.6,6.3,13.9,9.7,21.8c4.2,1.2,9.3,2,13.7,4.1c3.7,1.7,6.7,4.9,11.6,8.7c0.4-6.5,0.4-10.8,0.9-15.1
	c0.6-5.1,1-10.2,2.3-15.1c2.6-9.5,8.5-15.6,19-15.9c1.9-0.1,3.7-0.3,6.4-0.6c2.8-3.8,5.9-7.8,8.8-11.9c6.3-8.9,15.1-13.7,25.4-15.9
	c2.4-0.5,5.2-1.2,7.5-0.6c8.6,2.4,17.2,5,25.5,8.2C184,306.2,185.8,309.5,187.9,311.8z M115.7,398.4l0.5,0.5
	c-2.2-14.7-13.4-16.6-24.7-18.3c-7.3,5.1-4.3,12-4.8,18c-0.6,6.2-0.7,12.5-1,18.3c2.1,1.6,3.5,3.2,5.2,3.8c4.8,1.7,9.6,3.1,14.6,4.3
	c8.5,2,17.1-4.7,16.3-13.4C121.3,406.9,121,401.3,115.7,398.4z M65.2,371.3c-7.7,3.6-15.3,6.8-22.6,10.6c-7.8,4.2-11.6,12.3-10,20.9
	c1.1,5.6,2.8,11.1,4.6,16.6c2.7,8,8.1,11.2,16.4,9.2c11.8-2.8,22.1-8.8,24.2-21.6C80.2,393.6,78.9,380.4,65.2,371.3z"/>
<path fill-rule="evenodd" clip-rule="evenodd" d="M528.9,233.9c-0.9-4.8-1.2-9.3-2.6-13.5c-0.7-2.1-2.8-4.5-4.8-5.1
	c-3.7-1.1-5.9,2-7,5c-1.4,4.2-1.9,8.7-3.4,12.9c-0.5,1.6-3,3.9-3.9,3.6c-2-0.7-4.8-2.4-5.2-4.2c-1.7-6.6-2.6-13.5-4-21.5
	c-4.2,0.5-7.1,0.9-9.8,1.2c-4.8,7.2-2.8,17.1-12.3,22.6c-1.7-2.2-4.6-4.1-5-6.5c-0.8-4.8-0.2-9.9-0.2-15.9
	c-13.1-7-22.6-18.3-26.5-34.7c-3.2,0.7-5.7,1.1-8,1.8c-8,2.6-14.9,0.8-21.7-3.9c-5.2-3.6-10.8-6.6-16.5-9.3
	c-8.4-4-12.4-10.1-12.6-19.5c-0.5-19.6,3.3-37,22.4-48c-1.6-4.5-3-8.5-4.9-13.7c-6.8,2-12.6,4.2-18.6,5.4c-1.7,0.3-4.4-1.7-5.8-3.4
	c-0.6-0.7,0.4-4.1,1.5-4.7c9.9-5.6,20-11,30.1-16.3c0.9-0.5,2.4,0.4,4.9,0.9c1.7,7.4,3.3,15.4,5.4,23.2c1.3,4.9,3.2,10,9.4,10.8
	c5.2,0.6,9.7-2.9,11.3-10.6c2.9-13.9,8.7-24.9,22.3-31.1c3.5-1.6,6.3-6.4,7.9-10.4c6.3-15.2,19.2-17,33-17.3c2.4-0.1,5,0.9,7.3,1.9
	c6.7,2.7,12.3,0.8,18-3c4.2-2.8,8.9-4.9,13.5-7c11.5-5.2,23.2-2.2,33,3c8,4.2,13.7,13,16.4,22.6c1.7,6.1,3.1,12.2,4.6,18.1
	c33.1,9,46.5,40,15.6,64.8c0,8.1,0,15.7,0,23.3c0,13.1-4.7,24.1-16.7,30.1c-13.5,6.8-23.1,15.3-22,32c0.2,2.6-2.9,5.3-5.4,9.4
	c-4.4-5.6-8.2-10.2-12.1-15c-8.2,1.8-11.5,7.9-14.6,14.3C539.9,230.7,537.2,235.1,528.9,233.9z M589,80.9l0.4,0.4
	c0-6.3-0.3-12.7,0-19c0.9-18.7-11-31.9-29.6-32.2c-11.8-0.2-22.8,2.1-31.3,11.3c-3,3.2-5.9,6.5-9,9.6c-2.6,2.7-5.3,5.6-9.5,2.6
	c0.2-1.3,0.5-2.6,0.6-3.8c0.6-7.3-1.3-9.9-7.4-9.9c-17.7,0-27.1,7.9-30.2,25.4c-0.5,3-1.2,5.9-1.8,8.6c-13.4,0.7-18.5,2.7-22.4,8.8
	c-4.8,7.5-1.1,16,7.7,17.2c3.8,0.5,7.7,0.7,11.5,0.3c7.2-0.8,13.6,0.6,19.1,6.3c7.3-9.5,13.8-17.8,20.8-26.8
	c14.9,5.9,19.3,19.3,26.8,30.1c-7.3,7.8-15.1,5.6-22.3,3.7c-7.6-1.9-15-2.7-23-0.2c0,1.8-0.5,3.8,0.1,5.4c4.7,13-0.2,23.4-7.9,33.6
	c-6.2,8.3-12.9,15.7-22.9,19.5c-2.2,0.9-4.1,2.7-5.6,3.7c0,2.2-0.4,3.6,0.1,4.7c1.5,3.5,3.6,6.7,5.1,10.2
	c4.8,11.4,17.8,16.5,30.6,12c4.2-1.5,8.7-2.7,12.3-5.1c3.3-2.2,5.5-5.9,9.3-10.1c8.6,11.2,16.6,21.4,31.7,22.3
	c3.1-1.9,8.3-3.4,10.3-6.8c3-5,3.8-11.3,5.7-17.4c2.5,1.3,4.9,3.3,5.7,2.8c6.1-3.7,13.1-3,19.6-4.4c13.2-2.9,23.6-11.3,24.5-27.8
	c0.3-6.6-0.1-12.8-4-18.3c-0.6-0.9-2-1.3-2.9-1.8c-4.1-1.9-7.4,6.2-12.2,0c4.7-5.4,10.8-8.3,17.4-10.4c7.8-2.5,13-8,16.3-15.3
	c2.7-6.1,3.1-12.6-0.5-18.4c-3.8-6.2-10.2-9.3-16.7-12.2C599.4,77.1,594.2,77.5,589,80.9z M454.6,160.3c5.3,0.7,11.5-1.5,15.5-6.6
	c5-6.4,9.7-13.4,12.8-20.9c4.5-10.9-6-23.9-17.8-22.5c-8.8,1-17.1,4.2-24.5,9.3c-9.2,6.3-13.3,15.8-10.4,24.3
	C433.6,154.2,442.1,160.3,454.6,160.3z M427.7,114c-5.9-6.9-12.6-7.2-18.4-4.6c-4.2,1.8-8.4,6.1-10.4,10.2
	c-2.7,5.5-4.2,11.9-4.7,18.1c-0.5,6.4,1.1,12.6,7.6,16.2c6.9,3.9,13.7,6.3,20.9,0.9C420.5,137.5,420.5,137.5,427.7,114z"/>
<path fill-rule="evenodd" clip-rule="evenodd" d="M988.7,62.2c11.3,8.4,12,20,9.8,32.3c-0.7,3.7-2.2,7.5-4.1,10.7
	c-6.6,10.6-10.1,21.9-9.7,34.5c0.2,8.1-3.7,14.9-8,21.2c-6.2,8.8-13.2,17-20.2,25.9c-4.5-2.1-8.7-4.6-13.2-6
	c-4.1-1.3-8.7-1.3-12.8-1.9c-4.9,3.6-2.3,14.5-12.4,11.8c-2.6,4.1-5.2,8.3-8,12.6c-7.4-2.1-6.1-13.5-15.5-13.2
	c-1.9,4.3-3.3,9.1-5.9,13.1c-3.3,5.2-9.9,4.4-12-1.4c-1.4-4-1.8-8.3-2.5-12c-6.3-3.1-10.7-0.5-14.9,2.6c-7.4,5.5-15.8,7.8-24.8,9.4
	c-7.7,1.4-14-0.1-19.6-4.8c-10.3-8.6-22-14.9-33.6-21.5c-11.8-6.7-17-18.7-16.8-32.2c0.1-6.9,2.1-13.7,3.4-20.5
	c0.6-3.1,1.3-6.1,2.1-10.2c-9.9-2.4-17.8,0.2-24.9,5.9c-4.5,3.6-8.5,7.7-13.1,11.1c-3.2,2.4-8.1-0.5-8.2-4.7
	c-0.1-3.1-0.6-6.9,0.8-9.4c8.1-14.3,14.2-30.2,28.4-40.1c1.4-1,3.5-1.1,6-1.8c8.4,8.8,13.6,19.7,18.1,30.8c11.8-1,22.5-1.9,34.6-3
	c-0.4-4.9,0.1-9.4-1.3-13.2c-3.5-9.1-1.5-16.5,5.8-22.2c6.3-5,9-11.2,11.8-18.7c6.5-17.4,17.9-30.8,38.3-32.5c3.6,3.2,6.7,6,9.2,8.3
	C883,17,889.3,11,896.3,5.9c7-5,15.4-6.3,23.8-5.8c4.3,0.2,9.7,1,12.6,3.7c8.2,7.8,19.4,12.4,25.1,23.1c1.9,3.7,5.5,7.2,9.2,9.2
	c9.9,5.4,15.4,14.8,22.2,23.1c0.6,0.8,0.2,2.5,0.3,3.7c-5.1-3.8-10.5-7.3-15.1-11.6c-5.6-5.3-12.2-6.1-17.6-5.1
	c-4.2-8.1-7-15.2-11.2-21.3c-7.5-10.6-19-14.8-31.4-15.8c-9.5-0.8-17.1,3.9-23.2,11.1c-6.3,7.4-14.5,10.3-23.9,7.2
	c-13.1-4.4-20.3,3.7-27.5,12.1c-3.9,4.6-5.3,10-3.8,16.1c1,4.2,1.8,8.5,2.8,13.4c-6.7,2-12.6,3.8-18.4,5.5
	c-1.1,7.3-0.5,13.3,4.6,17.8c18.2,0,36-0.5,53.8,0.2c12.6,0.5,20.4-4.3,25.1-16.1c2.5-6.2,2.7-14,10-18.2c7,2.9,14.3,5.2,20.8,8.9
	c5.5,3,10.3,7.5,15.1,11.6c3.1,2.6,4.8,6.1,3.5,10.2c-1.4,4.4-5,5.2-9.2,5c-6.4-0.2-12.8-0.2-19.2-0.3c-8.9-0.1-15.8,3.2-20.5,10.5
	c0.5,2.6,0.5,4.6,1.2,6.3c4.2,10.2,2.6,19.7-1.8,29.5c-4.3,9.5-9.9,18-17,25.2c-4.4,4.4-6.5,8.8-5.9,15.4c9.9,1.4,18.6,0.3,26.1-7.7
	c6.1-6.5,13.5-8.1,22.6-4.8c8.3,2.9,17.5,3.3,26.3-0.1c1.6-3.4,3.2-6.7,4.6-9.7c4.2,0,7.8,0,11.3,0c6.1-9.5,7.3-19.4,6.9-30.2
	c-3.7-1.1-6.9-2-12-3.4c4.9-4.3,8.3-7.9,12.3-10.8c13.5-9.9,17.3-23,13.4-38.8C991.1,70.8,989.9,66.5,988.7,62.2z M857.8,168.3
	c4-0.4,8.7,0,12.6-1.5c16-6.2,25.7-18.6,29.7-34.9c2.9-11.8-1.4-25.3-16.3-30.6c-6.7-2.4-13.5-5.9-20.2-3.4
	c-10,3.7-19.4,9.1-29,13.9c-1,0.5-1.6,1.9-2.2,3c-6.1,11.3-6.9,23.3-2.3,34.9C835.4,163.8,842.9,168.2,857.8,168.3z M774.7,159.9
	c5.3,4.7,10.1,9.8,16.9,9.4c11.1-0.7,22.6,1.8,33.8-2.2c-0.5-3.1-0.5-5-1.2-6.6c-4.4-10.3-5.9-20.3-1.3-31.4
	c2.3-5.5,1.1-12.3,1.5-19c-6.3,0.4-11.7,2.2-16,0.8c-16.6-5.4-26.7,1.7-34.4,15.4c-0.3,0.6-0.5,1.2-1,2.4
	C773.6,138.6,774.2,149.4,774.7,159.9z"/>
<path fill-rule="evenodd" clip-rule="evenodd" d="M903.9,626.4c-1.6,3.3-2.4,7.3-4.8,9.9c-10,10.6-21.2,20-30.4,31.1
	c-9,10.8-19.1,14-32.4,9c-4.4,3.9-8.6,7.6-13.1,11.6c0,7.2,0,14.1,0,21.2c-10-0.4-5.1-11-12.4-14.5c-2.8,0.7-8,0.6-10.9,3.1
	c-3,2.6-4.3,7.5-5.5,11.7c-1.3,4.8-1.5,9.9-2.6,14.8c-0.2,0.8-2,1.6-3,1.6c-1.1,0.1-2.8-0.5-3.2-1.3c-1.2-2.2-2.1-4.6-2.7-7.1
	c-2.2-8-4.2-16-6.3-23.9c-14.5,2.5-14.5,2.5-25.8,12.6c-10-4.8-8.9-19.6-20.2-23.5c-4.6,5.3-1.7,9.9,0.6,15.6
	c-7.2,3.7-4.4,17.2-17.8,17.6c-1.8-12.7-8.7-23.9-5.3-37.2c0.7-2.8-0.8-6.2-1.5-9.3c-0.9-4.4-2.8-8.7-2.9-13.1
	c-0.4-12.2-3.4-23.6-9.8-34c-4.9-8-1.1-16.1-0.5-24.1c-1.2-1.7-2.3-3.2-3.3-4.7c-11.6-16.4-9.6-34.5,5.6-47.3
	c6.9-5.8,14.4-10.4,23.4-12.5c8-1.9,15.4-4.3,21.6-11c6.1-6.6,14.6-8.4,24.6-6.4c16.3,3.3,29.6,11,42.1,23c2.7-1.9,5.2-3.5,7.6-5.2
	c9.7-6.9,19-7.6,28-0.6c7,5.5,13.2,12,18.9,18.9c2.5,3.1,3.5,8.1,3.8,12.4c1.2,14.3,1,14.6,14.3,15.8c7.8,0.7,13.5,3.4,16.1,11.1
	l0.6-0.4c-3.7-0.4-7.5-0.6-11.1-1.3c-16.9-3.1-20.1-1.5-29.6,13.8c1.7,11.7,3.2,22.5,4.9,34c16.1,2.6,30.6-1.1,43.5-11.3
	L903.9,626.4z M827.8,670.5c-7.6-7.1-16.5-10.5-25.6-13.4c-5.6-1.7-8.3-5.3-10.1-10.4c-3.9-10.7-2.9-21.3,1.5-31.5
	c4.6-10.7,11.1-20.6,21.7-26c9.7-4.8,19.6-3.2,29.3,2c5.4,2.8,11.6-1.8,11.4-8.3c-0.1-3.2-0.5-5.7,1.6-8.6
	c5.6-7.5,2.9-14.8-2.3-20.9c-4.5-5.3-9.6-10.3-15.1-14.6c-8.1-6.3-16.4-3.9-21.9,5.7c-3,5.4-5.3,11.3-12.8,13.2
	c-1.2-2.9-2.1-5.2-3-7.5c-6.7-16.7-20.6-24.1-37-26.4c-12.6-1.8-24,1.5-29.8,15c-1.2,2.7-4.1,4.6-6.1,6.6
	c-12.8-4.8-13.7-4.8-21.8,0.5c-1.6,1-3.1,2.3-4.6,3.4c-13.6,10-17,23.3-10.1,38.5c1.4,3.1,3.3,4.5,7.1,5c8.1,1,9.9,4,5.1,8.6
	c-7.3,7-5.4,13.5-1.1,20.5c5.5,8.9,13.5,15.2,22.6,20.1c4.9,2.7,9.6,5.7,14.2,8.4c-1,4.3-1.9,7.3-2.3,10.4
	c-1.4,12.6,5,20.9,16.1,24.6c10.3,3.4,18.9,0.5,27.5-3.8c4.5-2.2,8.3-5.8,12.6-8.5c0.8-0.5,2.3,0.2,4.3,0.5c-2.2,3.8-4.2,7.4-7,12.5
	c5.1,1,9.2,1.7,13.3,2.5C811.5,681.2,825.7,683.2,827.8,670.5z M831.3,656.9c13.4-9.1,22.8-20,20.8-35.1c-1.7-13-7.7-25.7-22.4-28.2
	c-8,4.6-14.6,8.3-21.1,12.2c-2.6,1.6-6,3.6-7,6.1c-3.5,8.9-6.2,17.9-1.3,27.6c4.1,8.2,9.6,13.1,18.9,13.8
	C823,653.7,826.6,655.5,831.3,656.9z"/>
<path fill-rule="evenodd" clip-rule="evenodd" d="M930.9,380.6c1.7,6-1.8,10-6.2,12.7c-5,3.1-8.1,7.2-11.3,12.2
	c-8.1,12.7-21.9,16.7-35.8,19.5c-4.3,0.9-8.9,0.6-13.3,1.2c-18.3,2.5-30.8-5.8-39.1-21.2c-4.5-8.3-8.4-17.1-11.7-26
	c-3.5-9.6-0.2-18.9,3.8-27.7c2.4-5.1,5.8-9.8,9.9-16.7c-4.7,0.7-7.9,0.3-10.2,1.6c-7,4.1-12.8,10.7-21.9,9.9c-3.6-2.5-3.3-6-1.4-8.4
	c10.4-12.9,21.1-25.4,31.8-38c1.1-1.3,3.2-1.9,5.2-3c12.4,4.1,12.8,18.1,21.5,26.8c3.7-1.2,7.7-3.4,11.7-3.6
	c8.8-0.3,18.1-1.1,26.4,1.1c9.3,2.5,16.2,2.8,19.5-7.2c10,5.5,18.7,10.2,26.1,14.3c18.1,0.7,20.2-17.3,32.2-24.3
	c6.3,8.3,13.7,15.1,14.6,26.3c0.3,3.6,3,7,4.2,10.6c1.7,4.8,0.1,9.1-3.8,11.6c-4.1,2.6-7.5,0.4-10.4-1.8c-3-2.2-5.2-5.5-8-8
	c-6.8-6.1-14.2-10.6-24.9-7c0.3,6,2.3,12.7,0.4,18c-1.8,5,0.7,12.1-5.7,15.3l0.4,0.4c0-7.5,0.4-15.1-0.2-22.5
	c-0.5-6.9-8.4-15-14.5-15.4c-6.6-0.5-10.2,4.2-13.1,9.2c-2.2,3.8-3.7,7.9-5.7,11.8c-1.7,3.3-3.6,6.4-5.4,9.6
	c-0.1-5.7,0.3-11.5-0.4-17.2c-2.2-16.8-18.7-26.1-33.8-18.5c-10.1,5.1-20,10.9-29.3,17.3c-11.7,8.2-14.2,20.6-12.3,33.9
	c1.5,10.4,12.5,18.7,23.1,19.1c11.3,0.4,21.5-2.3,30.1-9.7c6.7-5.7,12.9-11.9,19.4-17.9c-1.5,4.6-3.1,9.2-5,15.1
	c15.9,6.1,29.9,7.5,43.2-3.2L930.9,380.6z"/>
<path fill-rule="evenodd" clip-rule="evenodd" d="M756.9,284.4c-0.9,4.8-2.3,9.5-2.6,14.4c-0.3,3.8,0.7,7.6,1.1,11.1
	c3.4,2.6,6.4,4.8,9.3,7.1c-0.4,1.5-0.4,3-1.1,3.8c-2.9,3.3-6.1,6.3-9.2,9.4c-15,15.5-13.8,32.9-6.7,51.4c3.9,10.1,12,14.5,21.1,18
	c3.4,1.3,7.1,2.1,11.4,3.4c0.4,6.1,1,11.7,1.1,17.3c0.4,13.5,6.9,22.9,19,28.4c2.8,1.3,6.5,2.7,9.1,1.8c12.3-4,26.8-2.2,36.6-13.2
	c1.1-1.2,3.1-1.5,6.5-3.1c-1.3,11.7-2.3,22.1-3.6,32.4c-0.4,3.4-2.4,6.5-6.1,5.9c-1.7-0.3-3-3.3-4.5-5.1c-1.1-1.4-2.2-2.8-3.9-4.8
	c-2.1,3.8-3.7,6.8-5.8,10.6c-3.7-1.5-7-2.8-11.1-4.4c-3.9,6.2-7.8,12.6-12.7,20.5c-2-3-3.7-4.7-4.3-6.6c-1.6-5.5-3-11.1-4-16.8
	c-1.3-7.8-5.8-12.5-14-15.7c-2.1,2.5-4.8,5-6.4,8.1c-1.4,2.7-1.6,6.1-2.5,9.2c-2.1,6.6-5.7,10-8.5,8.1c-3.9-2.7-3.1-6.7-2.5-10.3
	c1.8-9.8-2.1-20.6,5.5-29.5c1.2-1.4,0.5-4.9,0-7.3c-1.2-6.9-2.6-13.7-4.1-21.3c-0.9-0.7-2.2-2.3-3.9-2.9
	c-10.2-3.6-17.5-10-21.4-20.3c-4.2-11-6.4-22.3-2.6-33.7c2.4-7.2,5.9-14.1,9.4-20.9c3.7-7.1,6.2-14.1,2.9-21.9
	C744.4,297.2,752.2,291.4,756.9,284.4z"/>
<path fill-rule="evenodd" clip-rule="evenodd" d="M909.6,303.3c-1.1-11.3-2.9-21.4-12.7-27.5c-10.2-6.4-19.1-3.2-27.9,5.7
	c-4.9-11.3-6.2-23.8-18-28.6c-4-1.6-8.5-2.8-12.8-2.8c-14.6-0.1-25.9,5.3-29.9,22.3c-5.3-2.7-9.3-5.6-13.7-6.8
	c-4.4-1.2-9.3-0.8-14.9-1.2c8.6-9.6,17.2-3.8,25.7-2c1.2-1.5,2.7-2.7,3.4-4.2c3-6.6,6.4-12.5,14-14.6c9.5-2.6,19.1-3.8,27.9,1.2
	c6.5,3.7,13,8.1,18,13.7c4.3,4.9,8.7,6.8,14.8,6.7c24.9-0.4,30.5,17.8,30.7,34.8C914.2,300.9,911.6,301.9,909.6,303.3z"/>
<path fill-rule="evenodd" clip-rule="evenodd" d="M897.5,578.2c5.1-11.2,9.7-21.5,15-33.1c13.5,6.1,25.8,12.4,36.9,20.1
	c-3.4,8.7-9.3,9.9-14.9,10.5c-6.3,0.7-12.7,0-19.1,0.4C910.1,576.4,904.6,577.4,897.5,578.2z"/>
<path fill-rule="evenodd" clip-rule="evenodd" d="M106.3,34.6c1.6-1.2,3-2.4,4.6-3.5c13.3-9.3,25.9-8.9,38,1.5
	c3.8,3.3,7.1,7.3,10.2,11.3c2.7,3.5,4.8,7.4,7.1,11.1c5.1,0,9.5,0,14,0c14.7,9.1,13.6,26.5,19.9,40.1c7.8,0.2,15.5-0.9,22.5,0.9
	c6.5,1.7,12.2,6.6,19.2,10.7c7.7-11.5,15.2-23.5,21.1-36.6c2.2-5,6.8-5.6,10.9-2c4.8,4.2,9.6,8.3,14.2,12.6
	c5.9,5.4,7.5,12.8,9.5,19.7c-5.5,6.9-12.5,4.6-18.4,4.8c-9.1,0.3-17.5,2.6-25.6,6.5c-4.7,2.3-6.6,5.8-6.6,10.6c0,7,0.2,14,0.4,21
	c0.5,18.4-8.7,31.7-23.3,41.4c-9.5,6.3-20.1,10.9-29.9,16.6c-9.7,5.7-19.7,9.2-33.1,6.7c-1.8,2.4-3.4,6.3-6.4,8.3
	c-10,6.7-16.7,15.5-19.1,27.4c-0.2,1.2-1.2,2.2-1.8,3.3c-1.6,2.7-6.3,3.8-8.2,1.6c-3.3-3.9-6.3-8-9.8-12.6c-7.5,2.8-8,9.2-8.8,15.3
	c-0.7,5.1-0.1,10.5-6.5,12.6c-9.4-3.8-3.3-14.2-9.2-20.9c-9.1,1.1-19.2,0.2-26.3,9.7c-1,1.3-4,2.9-4.7,2.4c-7-4.7-12.8,2.1-20.5,2.6
	c-1-6.7-1.9-12.8-2.9-18.9c-1.2-7.4,0.1-15.6-6.5-21.4c-3.5-13.8-11.4-25-19.6-36.4c-8.1-11.3-11.4-24.2-5.1-38
	c1.8-4,2.6-8.5,4.2-13.9c-1.2-2-2.8-4.7-4.5-7.2c-5.1-7.5-5.8-15.8-2.8-23.8c2.9-7.6,6-16.2,11.6-21.6c8.8-8.6,12.3-18.7,14.8-29.9
	c4-18.2,13.2-25.2,31.2-22.2C74.9,26.8,89.6,30.8,106.3,34.6z M150.3,209c-5.2-4.5-11.1-8.5-15.4-13.8c-6.4-8-13.4-15.2-20.5-22.5
	c-9.7-10-14-23.1-9.3-37c3.6-10.7,9-20.8,14.2-32.5c-1.1-1.6-3-4.6-4.5-6.8c-11.2,4.2-21.1,8.2-31.2,11.5c-2.5,0.8-5.8-0.6-10.1-1.1
	c1.7-5.4,2.1-10,4.4-13.5c7.5-11.8,20.8-16.3,31.8-23.7c3.8-2.5,9.1-0.1,11.3,4.2c1.4,2.8,2.5,5.8,3.2,8.9
	c1.4,6.3,3.5,12.1,7.5,16.3c10.3,0.7,19.9,2.9,29.1,1.7c9.1-1.3,17.7-6.1,26-9.2c-0.1-21.9-0.1-21.9-13.4-27.2
	c-7.9-1.6-7.4,10.9-16.1,8.6c-0.4-1.7-1.6-3.6-1.2-5.2c2.4-11.2-1.2-21.1-10.4-26.4c-11.1-6.4-23.6-10.4-35.5,0.4
	c-3.1,2.8-7.7,3.9-11.9,5.9C89.8,33.7,76,32.4,63,31.1c-19.4-2-31.8,14.9-25.8,33.6c0.9,2.9,2,5.7,3,8.4c-2.3,1.8-3.9,4.2-5.2,4
	c-8.4-0.9-12.6,4.7-16.9,10.2c-2.3,3-4.2,6.4-5.8,9.9c-5.7,12.1-1.3,21,12.5,26.1c1.7,0.6,3.2,1.8,5,2.9c0.5,2.6,1.2,5,1.6,7.5
	c0.4,2.4,0.4,4.9,0.7,8.4c-4.3-1-7.7-1.7-10.8-2.5c-12.6,10.9-13.9,14.5-8.5,27.8c1.9,4.7,4.9,8.9,7.6,13.2
	c2.7,4.5,5.9,7.9,11.9,8.3c7.2,0.5,8.6,6.4,10,12c-7.3,8.8-7.1,8.7-4.1,16.3c4.7,11.6,12,17.7,25.4,19.2c14,1.6,24.7-0.3,32.4-12.9
	c1.2-1.9,3.6-4.1,5.6-4.4c5.8-0.7,8.9-4.4,12.1-8.5c2.2-2.7,4.9-4,8.1-0.8c-0.8,1.6-1.5,3.4-2.6,4.8c-2.1,2.7-3.7,5.5-1.4,8.6
	c2.2,3,5.3,3,8.5,1.6C135,221.4,144.1,218.3,150.3,209z M141.5,110.9c-7.2-0.8-13.7,1.5-18.5,7c-13.2,14.9-13,32.2-1.7,46.9
	c7.8,10.1,18.8,13.1,30.6,9.6c18.1-5.3,27.1-17.3,30.7-35.3c1.1-5.4-0.1-10.7-4.7-13.6C166.8,118.6,156.3,109.6,141.5,110.9z
	 M185.1,162.1c9.1,7,23.6,14,31.6,15.3c4.2,0.7,7.1-1.3,10.1-4c15.8-14,15.2-41.8,8.2-56.8c-4-8.4-24.9-14.4-32.1-8.6
	c-6.7,5.4-11.3,12.1-12.9,20.3C187.9,139.4,186.8,150.7,185.1,162.1z"/>
<path fill-rule="evenodd" clip-rule="evenodd" d="M458.7,623c-1,6.3-3.8,9.3-8.4,10.8c-3.1,1-6.3,1.8-8.6-1.4
	c-3-4.2-2.1-8.5,0.4-12.4c1.8-2.7,4.5-4.4,8.1-2.9c1.2,0.5,2.4,0.9,3.4,1.7C455.3,619.9,456.6,621.2,458.7,623z"/>
<path fill-rule="evenodd" clip-rule="evenodd" d="M404.3,613.8c3,4.2,6.2,6.8,6.7,9.8c0.5,2.9-2.3,5.7-6,6.1c-3,0.3-6.2-4.1-5.5-8.5
	C399.9,619.1,402,617.3,404.3,613.8z"/>
<path fill-rule="evenodd" clip-rule="evenodd" d="M212.7,618.9c1.1,1.6,3.5,3.8,4.1,6.4c1.1,4.9-2.8,9-7.4,8.5
	c-4.2-0.5-4.6-3.9-4.7-7.1C204.6,622.1,207.4,618.9,212.7,618.9z"/>
<path fill-rule="evenodd" clip-rule="evenodd" d="M266.7,612.6c0,2.6,0.6,5.8-0.2,8.6c-0.6,1.9-3,4.2-4.8,4.4
	c-3.6,0.4-7.4-4.7-6.2-7.9C257.1,613.3,260,610.1,266.7,612.6z"/>
<path fill-rule="evenodd" clip-rule="evenodd" d="M465.1,378.7c-0.7-1.3-2.5-3.3-2.6-5.4c-0.1-4.1,3.7-7.5,7.3-7
	c3,0.4,4.2,2.7,3.9,5.5C473.3,376.2,469.9,379.3,465.1,378.7z"/>
<path fill-rule="evenodd" clip-rule="evenodd" d="M421.3,361.4c0.8,1.1,2.8,2.8,3.1,4.7c0.9,5.5-2.3,10.8-5.6,9.6
	c-2.6-1-5.4-3.4-6.4-5.8C410.8,366.2,415.2,361.7,421.3,361.4z"/>
<path fill-rule="evenodd" clip-rule="evenodd" d="M70.9,396.8c-0.8,6.1-5.4,9.7-9.1,8c-1.4-0.6-2.8-2.8-2.8-4.3
	c-0.2-4.7,4.1-8.9,8-7.7C68.9,393.4,70.1,395.9,70.9,396.8z"/>
<path fill-rule="evenodd" clip-rule="evenodd" d="M115.7,398.4c2.2,5.1,1.5,9.5-2.9,13.2c-2.9,2.5-6.1,2.7-8,0.2
	c-2.1-2.8-2.6-6.4,0-8.3c3.2-2.3,7.5-3.1,11.4-4.6C116.1,398.9,115.7,398.4,115.7,398.4z"/>
<path fill-rule="evenodd" clip-rule="evenodd" d="M439,133.4c1.7-0.8,4.1-2.7,6.7-3c4-0.5,6.4,3,5.9,7.5c-0.4,3.9-2.9,5.2-6.5,4.8
	C440.8,142.1,438.2,138.9,439,133.4z"/>
<path fill-rule="evenodd" clip-rule="evenodd" d="M408,127.1c2.2,2.8,4.7,4.7,4.6,6.3c-0.1,1.6-3,4.2-4.5,4.2
	c-1.7-0.1-4.5-2.5-4.7-4.2C403.3,131.8,405.8,129.9,408,127.1z"/>
<path fill-rule="evenodd" clip-rule="evenodd" d="M849.8,142.4c-4,0.2-7.1-2.3-5.8-5.2c0.8-1.9,3.4-4.3,5.1-4.2
	c1.8,0.1,4.2,2.7,4.9,4.7C854.8,140.4,852.9,142.4,849.8,142.4z"/>
<path fill-rule="evenodd" clip-rule="evenodd" d="M793.5,152.4c-2.6-4-5-6.1-5.3-8.6c-0.2-1.4,2.5-4.1,4.4-4.9
	c3-1.2,7.2,1.9,6.4,4.6C798.2,146.1,796.1,148.3,793.5,152.4z"/>
<path fill-rule="evenodd" clip-rule="evenodd" d="M729.5,610.6c1.3-19.9,12.3-32.7,25-44.4c3.5-3.2,8.7-3.5,12.6-1.1
	c10.1,6.2,20.5,12,29.5,22c-9.6,1.9-16.5-1.5-25-4.5c-5.8,5.4-11.9,11.6-18.5,17.3c-4.3,3.7-9,7.1-14,9.8
	C736.8,611,733.4,610.3,729.5,610.6z"/>
<path fill-rule="evenodd" clip-rule="evenodd" d="M822,621.9c4.5-4.7,6.5-7.6,9.3-9.2c1-0.6,4.9,1.3,5.6,2.9
	c0.7,1.6-0.5,5.8-1.6,6.1C832,622.4,828.5,621.9,822,621.9z"/>
<path fill-rule="evenodd" clip-rule="evenodd" d="M871.5,606.8c4-3.4,5.9-6,8.3-6.8c1.5-0.5,5,1.4,5.6,3c1.6,4.1-2.1,5.3-5.1,5.7
	C878.4,609.1,876.2,607.9,871.5,606.8z"/>
<path fill-rule="evenodd" clip-rule="evenodd" d="M859.2,346.8c1.8-1.7,3.8-4.3,6.3-5.8c3.8-2.4,7.8-0.5,9,3.5
	c1.1,3.9-1,8.2-4.7,8.9C865,354.4,860.9,353.5,859.2,346.8z"/>
<path fill-rule="evenodd" clip-rule="evenodd" d="M923.9,351.5c-0.5,5.9-3.4,9.4-6.6,8.4c-1.8-0.6-4.1-3.1-4.3-4.9
	c-0.6-4.6,4.3-9.5,7.5-7.9C922.3,348,923.2,350.5,923.9,351.5z"/>
<path fill-rule="evenodd" clip-rule="evenodd" d="M156.6,135.9c3.5,3.4,6.7,5.4,8,8.2c1.1,2.4-4.2,6.2-8,6.1
	c-3.9-0.1-5.7-3.1-5.3-6.1C151.6,141.7,154.2,139.5,156.6,135.9z"/>
<path fill-rule="evenodd" clip-rule="evenodd" d="M217.2,148.3c-2-3.9-3.8-5.8-3.9-7.7c-0.3-4.2,3.3-8.1,6.5-7
	c1.9,0.7,4.6,3.9,4.2,4.9C222.9,141.4,220.4,143.9,217.2,148.3z"/>
</svg>
