<?xml version="1.0" encoding="utf-8"?>
<!DOCTYPE svg PUBLIC "-//W3C//DTD SVG 1.1//EN" "http://www.w3.org/Graphics/SVG/1.1/DTD/svg11.dtd">
<svg artist="zl2017" version="1.1" id="zlIcon-sheep-right-look" xmlns="http://www.w3.org/2000/svg" xmlns:xlink="http://www.w3.org/1999/xlink" x="0px" y="0px"
	 width="1000px" height="878.9px" viewBox="0 0 1000 878.9" enable-background="new 0 0 1000 878.9" xml:space="preserve">
<path fill-rule="evenodd" clip-rule="evenodd" d="M698.4,222.3c15.3-14.4,30.5-28.8,45.8-43.1c2.1,1.3,4.3,2.6,6.4,3.8
	c-1.5,10.8-3,21.6-5.1,36.3c10.7-8,19.2-14.3,32.4-24c-2.2,13.8-3.6,22.3-6.2,38.8c19.7-13.3,35-23.6,55.1-37.1
	c-7.4,20-12.9,35.1-20.2,54.7c32.1-1.4,41.5-25.3,57.8-38.6c8-6.5,12.9-16.9,18.5-26c23.4-37.7,60.3-40.4,90.1-6.6
	c35.5,40.3,36,85.8-1.5,137.3c-11.6-6.8-25.7-11.9-35.4-21.5c-23.8-23.5-48.3-25-75.8-8.3c-5.4,3.3-12,4.5-17.8,6.6
	c12,54.7,5,103.9-11.1,157.3c-21,69.7-75.4,105.6-121.2,150.1c-27.1,26.3-68.1,16.9-104.1,11.6c-5.1-0.7-10-2.6-13.4-3.5
	c-22.3,30.3-47.6,56.9-63.5,88.3c-14,27.7-19.2,60.5-24.8,91.6c-3.5,19.7-0.6,20.2-24.9,36.2c-8.7-20.8-17.1-40.9-26.9-64.2
	c-33.2,31.7-16.4,86.8-59.5,116.7c-7.1-37.1-13-67.9-18.9-99.1c-30.7-3.9-54.8-1.9-65.5,32c-3,9.6-14.5,16.5-24.8,27.6
	c-7.5-24.7-13.1-43.2-18.2-60c-20.9-6.3-30-1.2-33.7,18.5c-4.3,23-8.6,47.5-34.6,62.6c-39.4-67.5-14.6-145.6-39.3-212.8
	C93.3,629.2,57,586,47.5,521.3c-4.6-31.6-14.1-62.2-0.1-94.3c2.9-6.6-3.5-20.8-9.9-27.4c-45.6-47.3-45.2-99.3-19.6-155.4
	c22.3-48.8,53.8-89.4,102.8-113.3c19.9-9.7,41.9-15.3,69-24.9c10.6-30.9,40.2-55.5,69.5-80.1C279.1,9.2,302-1,329.3,0.1
	c28.2,1.1,56.5,0.4,84.8,0.2c27.5-0.2,52.2,5.7,74.5,24c9.1,7.5,24.1,10.2,36.5,10.6c25.6,0.8,50,2.4,74.5,12.7
	c55,23.2,88.4,69.1,89.3,129.3c0.2,13.3,0,26.6,0,39.9C692.1,218.6,695.2,220.5,698.4,222.3z"/>
<path fill-rule="evenodd" clip-rule="evenodd" fill="#FFFFFF" d="M489.8,282.5c-18,0-31.1-2.8-42.2,0.7c-16.3,5.1-31.7,14-46.7,22.4
	c-17.8,10-35.9,16.9-55.9,12.6c-22.6-41.5-9.7-106.2,25.3-130.6c44.4-30.9,87.3-18.5,146.8,43.2c16.4-14.7,43.5-11.6,54.9-41.4
	c6.9,13.9,10.7,21.6,16.8,34c6.3-18.4,10.4-30.3,14.4-41.8c25.7,1.9,13.1,25.3,23.6,34.1c34.4,1,36.5-0.7,38-29
	C668.4,116.4,609.8,66.2,546,60c-11.8-1.1-24.2,3.9-39.7,6.7c12.9,26.9,38.7,40,40.2,70c-25.2-14.4-45.7-29.5-68.7-38.1
	c-22.8-8.6-48.1-10.6-75.7-16.1c20.7-28,47.2-19.7,71-20.9c-8.8-23.3-8.8-23.9-24.1-25.7c-10.6-1.2-21.7,0.7-32.2-1
	c-95.2-15.7-188.1,56.2-214.8,133.3c-14.3-27-34.7-24.8-57.5-15.3c-38.6,16-68.7,42.1-90,77.3c-25.3,41.7-31,86.8-14.6,133.4
	c10.5,29.9,27,33,50.4,13.2c15-12.7,17-29.5,21.8-46c6.2-21.3,11.9-43.2,43.7-42.4c-8.3,23.7-21.2,45.6-22.1,67.9
	c-0.8,21.3,6.7,45.8,18.2,64.1c11.6,18.3,32.7,30.7,49.7,45.6c-1.6,2.5-3.1,5-4.7,7.5c-18.6-8.7-39.7-14.4-55.1-27.1
	c-14.7-12.2-23.5-31.6-38.1-52.3c-11.2,28.4-26.7,49.5-26,70.2c1,32.5,10,65.8,21,96.8c14.9,42.1,56.8,60.9,100.1,51.4
	c16.8-3.7,34.3-4,51.6-5.9c0.5,3.2,1,6.3,1.5,9.5c-20.8,7.3-41.6,14.6-62.7,22c-2.3,23.9,3.8,51.1,19.3,69.4
	c20,23.9,49.2,38.2,77,44.4c50.9,11.3,101.4-1.2,147.6-25.9c10.1-5.4,17.6-15.7,26.4-23.9c-9.1-6.6-16-11.6-23.6-17.1
	c5.3-4.9,7.9-8.4,11.3-10.1c3.4-1.7,8.4-3.3,11.5-2c50,20.7,78.6-3.3,98.6-46.3c3.3-7,7.4-13.6,11.2-20.4
	C446.1,536.6,414.1,417.3,489.8,282.5z"/>
<path fill-rule="evenodd" clip-rule="evenodd" fill="#FFFFFF" d="M470.7,403.9c-5.6,37.4,6.1,65.8,38.8,85.8
	c36.6,22.4,89.7,19.1,112.6-10.4c12.9-16.6,24-35.1,33.7-53.8c25.4-48.7,14.7-101.6-26.3-137.6c-27.4-24.1-87.5-30-116.4,3.4
	C484,324.8,473.4,362.5,470.7,403.9z"/>
<path fill-rule="evenodd" clip-rule="evenodd" fill="#FFFFFF" d="M662.5,463.6c55.9,31.8,94.6,33.5,125.4,1.4
	C841.8,408.6,848,357,806,292c-34.9-54-97.9-52.2-137,1.5C704.1,349.6,696.5,406.2,662.5,463.6z"/>
<path fill-rule="evenodd" clip-rule="evenodd" d="M568.9,315.8c15.1,1,21.1,12.5,19.3,23.8c-2,12.1-7.5,26-25.6,24.1
	c-15.2-1.5-20.4-11.5-19.5-24.5C544.1,324.2,552.8,315.3,568.9,315.8z"/>
<path fill-rule="evenodd" clip-rule="evenodd" d="M734.6,311.7c15.1,1,21.1,12.5,19.3,23.8c-2,12.1-7.5,26-25.6,24.1
	c-15.2-1.5-20.4-11.5-19.5-24.5C709.7,320.1,718.4,311.3,734.6,311.7z"/>
</svg>
