<?xml version="1.0" encoding="utf-8"?>
<!DOCTYPE svg PUBLIC "-//W3C//DTD SVG 1.1//EN" "http://www.w3.org/Graphics/SVG/1.1/DTD/svg11.dtd">
<svg artist="zl2017" version="1.1" id="zlIcon-sheep-atom" xmlns="http://www.w3.org/2000/svg" xmlns:xlink="http://www.w3.org/1999/xlink" x="0px" y="0px"
	 width="1000px" height="824.2px" viewBox="0 0 1000 824.2" enable-background="new 0 0 1000 824.2" xml:space="preserve">
<path fill-rule="evenodd" clip-rule="evenodd" d="M499.9,311.8c4.7-1.6,10.5-3.6,16.4-5.5c2.1-0.7,4.5-1,6.7-1.1
	c5.8-0.1,11.3-3,17.2-1.1c5.2,1.7,10.7,2.8,15.4,6.1c1.3,0.9,2.8,1.9,4.3,2.3c6.2,1.9,10.2,6.2,14.6,10.9c6.5,6.9,11,14.4,13.1,23.6
	c0.4,1.7,2,3.3,3.3,4.6c2.1,2,4.5,3.8,6.9,5.6c7.7,5.9,11.8,13.9,13.2,23.3c0.8,5.2,1.4,10.4,0.5,15.6c-0.2,1.2,0.1,2.6,0.2,3.6
	c5.3,4.2,11.4,5.4,17.4,6.9c3.3,0.8,5.8,0,8-2.2c2.8-2.8,5.4-5.7,8-8.6c0.9-1,1.4-2.3,2.4-3.1c3.2-2.8,5.2-9.1,10.7-6.5
	c3.8,1.8,8.6,2.4,11,7.4c1.9,3.9,6.4,6.3,8.5,10.5c4.3,8.6,3.6,11.9-5,18.5c-4.8-2.1-10.2-3.8-14.9-6.6c-7.5-4.5-14.2-2.8-21.3,1.2
	c1.3,6.6,2.7,12.9,3.9,19.2c2,11-1,20.9-4.9,31.2c-3.2,8.5-7.9,15.3-14,21.9c-4.4,4.8-8.1,10.2-13.2,14.4
	c-9.7,7.8-20.7,12.3-33.2,13c-2.9,0.2-5.9,0-8.8-0.6c-2.8-0.6-5.6-1.8-8.8-2.9c-1.1,1.6-2.5,3.1-3,4.8c-2,6.6-6.6,10.7-13,12.1
	c-7.1,1.6-9.5,6.1-10,12.6c-0.1,1.3-0.3,2.6-0.3,3.9c-0.1,3.4-1.9,5.4-5.6,6.7c-3.4-5.2-7-10.5-11-16.7c-1.5,2.3-2.6,3.8-3.4,5.4
	c-2.4,5-4.6,10.1-7.1,15.1c-1.3,2.6-3,4.9-4.8,7.8c-5.6-4.1-6.2-10.5-9.9-15.6c-4.1-1.4-8.6-3-13.5-4.7c-1.3,2.4-2.2,4.4-3.4,6.2
	c-1.1,1.6-2.5,2.9-4,4.5c-3.5-0.9-3.9-4.5-5.9-6.4c-2.1-2-3.5-4.6-5.7-7.6c-3.6,4.4-6.1,8.6-6.6,13.9c-0.3,3.2-1.6,5.6-5.2,6.7
	c-2.2-6.5-4.6-13-6.4-19.6c-1.3-4.7-3.8-7-8.7-7.7c-8.2-1.1-15.7-4.8-22.6-9.3c-7.1-4.6-11.3-11.9-14.2-19.6
	c-2.5-6.4-4.3-13.1-5.7-19.8c-0.7-3.7-0.1-7.8,0.5-11.6c0.5-3.5,1.4-7.1,2.7-10.4c2.2-5.6,0.8-10.2-2.7-14.6c-0.8-1-1.5-2.1-2.3-3.2
	c-3.9-5.8-5.8-12.2-6.8-19.2c-2.5-17.7,2.6-33.7,10.5-49c5.8-11.1,15.3-18.7,27.3-22.3c5.3-1.6,8.4-4.6,10.7-9.2
	c5.8-11.7,14.3-21,25.2-28.3c4.4-2.9,8.9-5.4,14.4-5.8c6.2-0.5,12.3-1.7,18.5-2C489.7,310.3,494.2,311.2,499.9,311.8z"/>
<path fill-rule="evenodd" clip-rule="evenodd" fill="#FFFFFF" d="M585.3,362.4c-0.6,1-1.2,2-1.8,3.1c-1,1.6-2.7,2.2-4.1,1.3
	c-0.7-0.4-0.8-2.3-0.6-3.4c0.3-1.9,1.2-3.7,1.7-5.6c2.3-9.5,1.2-18.2-6-25.5c-1.6-1.6-2.7-3.8-4.2-5.4c-2-2.1-4-4.5-6.5-5.8
	c-5.5-2.8-11.2-5.1-17-7.4c-2.1-0.8-4.3-1.3-6.6-1.7c-10.2-1.8-19.2,1.6-27.8,6.6c-0.4,0.2-0.3,1.1-0.4,1.7
	c5.9,5.1,6.1,5.1,12.7,5.9c5,0.6,5,0.6,8.5,3.8c-20.1,1-20.3-0.1-35.8,15.6c-2,0-3-1.2-2.8-3.1c0.4-3.1,2.2-5.3,4.9-7
	c3.5-2.2,7.4-4.1,9.1-8.3c-4.7-4.9-10.2-7.8-16.4-9.1c-19.2-4.1-35.3,1.6-49.1,15.4c-5.2,5.2-9,10.9-10.6,18.1
	c-0.1,0.6,0,1.5-0.4,1.9c-3,2.7-4.6,6.7-9.7,7.2c-4.4,0.5-9.4,1.6-12.8,4.2c-5.8,4.5-12.6,8.5-15.1,16.2
	c-8.7,11.8-10.1,25.2-8.9,39.2c0.2,2.6,0.3,5.2,0,7.8c-0.5,5.3,1.1,9.6,4.7,13.4c2.3,2.4,4.1,5.1,6.5,7.3c2.4,2.1,5.2,3.7,8.3,5.9
	c-2.2,2.6-4,4.8-5.9,7c-6.2,7.6-7.9,16.3-6.1,25.7c0.5,2.9,1.7,5.6,2.6,8.4c5.4,15.6,15.6,26.1,31.8,30.6c5.9,1.6,11.5,1.5,16.5-1.8
	c0.4-1.9,0.7-3.4,1.2-6.1c2.4,2.4,4,3.9,5.5,5.5c3.8,4.1,7.4,8.3,12.6,10.8c5.3,2.6,10.6,5,15.9,7.5c0.9,0.4,1.9,0.6,2.9,0.5
	c4.2-0.3,8.5-0.4,12.7-1.1c5-0.9,9.2-3.3,12.1-7.7c3.1-4.6,6.2-9.2,9.3-13.8c0.8-1.1,1.8-1.9,3.7-0.5c-0.8,2.3-1.7,4.8-2.7,7.7
	c9.2,1.4,17.5,0.6,25.4-2.7c5-2.1,8.6-5.6,9.1-12.2c-8.5-4.3-16.9-8.6-25.2-13c-8.7-4.6-17.2-9.8-21.9-18.9
	c-5.1-9.8-7.1-20.3-5.4-31.3c0.3-2.2,1-4.6,2.1-6.5c5.1-9,8.6-19.1,17-25.9c0.2-0.2,0.4-0.5,0.7-0.9c-1.1-1.1-2.3-2.2-3.5-3.3
	c-4.4-4.4-9.2-3.7-14.3-1.2c-4.2,2.1-7.9,4.7-10.4,8.7c-3.2,4.9-8.4,7.2-13,10.2c-3,1.9-6.8,0.6-8.3-2.7c-0.8-1.7-1.5-3.8-1.4-5.6
	c0.6-6.3,2-12.3,6.8-16.9c2.4-2.2,4.7-4.6,7.2-6.7c6.9-5.8,14.5-8.9,23.5-5.1c0.3,0.1,0.6,0.3,1,0.5c4.7,7.7,9.1,15.9,20.6,16.4
	c4.5-3.7,10.4-5.3,16.8-5.9c3.8-0.4,7.6-1.7,11.3-3.1c6-2.2,11.9-3.1,18.3-1.9c5.8,1.1,11.7,1.3,17.6,1.6c3.9,0.2,7.8-0.1,11.5-0.2
	c4.6-5.4,4.8-11.4,2.7-17C601.6,374.2,597.3,364.9,585.3,362.4z"/>
<path fill-rule="evenodd" clip-rule="evenodd" fill="#FFFFFF" d="M578.7,443.4c-0.2,0-0.4,0-0.6-0.1c0-3.3,0.3-6.6-0.1-9.8
	c-0.8-7.5-3.7-14.2-10.2-18.2c-11.3-6.9-23-8.8-35.2-1.6c-12.6,7.4-21.4,17.6-26.4,31.6c-2,5.6-2.4,10.4-1.4,16.1
	c1.9,10.8,5.6,20.1,15.6,25.9c4.6,6.4,12.3,5,18.6,7.3c9.6-1.4,18.6-4.8,25.2-11.8c6.3-6.6,11.7-14.1,12.5-23.9
	C577.2,453.7,578.1,448.5,578.7,443.4z"/>
<path fill-rule="evenodd" clip-rule="evenodd" fill="#FFFFFF" d="M579.2,471.4c5.3,4.3,10.5,8.6,17.2,9.5c5.5,0.8,11,0.8,16.6,0.8
	c4.9,0,8.5-2.5,11.6-6.3c12.4-15.7,13.5-32.8,6.2-50.7c-3.7-9.2-10.7-15.4-21.2-16.8c-10.3-1.3-18.6,2.4-25.4,9.7
	c-2.1,2.2-3,5-2.3,8.2c1.7,8.4,1,16.9,0,25.4C580.9,457.9,580,464.7,579.2,471.4z"/>
<path fill-rule="evenodd" clip-rule="evenodd" d="M750.5,260.3c10.8,2.7,20.8,5.4,31,7.8c3.8,0.9,7.7,1.3,11.6,1.5
	c11.5,0.9,22.6,4,33.5,6.9c11.9,3.2,24.3,4.6,35.9,9.1c0.6,0.2,1.3,0.3,1.9,0.4c16.5,2.2,31,10,46.1,16c3.3,1.3,6.2,3.6,9.3,5.4
	c11.5,6.9,22.9,14,34.5,20.6c4.8,2.7,8.8,6.5,13.5,9.3c0.5,4.9,6,3.9,8,7.1c2.1,3.3,4.3,6.6,6.5,9.8c2.2,3.2,4.4,6.5,6.8,9.6
	c6,7.4,8.2,16.1,9.9,25.1c0.7,3.7,0.3,7.1-1.3,10.5c-2.4,5.3-4.2,10.9-7.9,15.5c-0.6,0.7-1.4,1.6-1.5,2.4
	c-0.8,7.3-5.6,11.4-11.3,14.9c-1.7,1-3.1,2.4-4.5,3.7c-4,3.8-7.9,7.8-12.1,11.4c-2.9,2.6-5.8,5.3-9.9,6.1c-1.2,0.2-2.4,1.1-3.5,1.8
	c-8.6,6.1-18.6,9.5-27.8,14.3c-1.4,0.8-2.8,1.7-4.2,2.5c-3.7,2-7.5,3.9-11.3,5.8c-1.2,0.6-2.6,0.7-3.7,1.3
	c-20,10.8-42,16.4-63.2,24.1c-8.9,3.2-18.2,5.1-27.3,7.9c-5.9,1.8-12.1,2.9-17.4,7.1c-0.1,5.8,2.8,10.6,4.9,15.6
	c2.3,5.4,4.3,10.9,6.1,16.5c0.3,0.9-0.3,2.8-1.1,3.3c-1.7,1.1-3.2-0.2-4.1-1.5c-0.9-1.3-1.4-2.9-2-4.4c-3-7.3-5.8-14.5-8.8-21.8
	c-0.7-1.8-1.8-3.4-2.9-5.5c-6.8,0.3-12.7,3.3-18.6,5.7c-5.2,2.1-10.3,3.9-15.8,5.1c-16.2,3.7-32.8,5.8-48.8,10.8
	c-12.5,3.9-25.6,5.1-38.3,8.5c-7,1.8-13.9,3.8-20.7,6c-1.7,0.5-3.6,2-4.4,3.5c-5.6,11.1-12.2,21.6-19.3,31.7
	c-6.1,8.6-10.5,18.1-16.2,26.9c-1.2,1.9-2.3,4-3.4,5.9c-5.1,8.7-9.6,17.8-14.3,26.7c-8.1,15.3-17.3,30-27.1,44.3
	c-0.3,0.5-0.4,1.2-0.7,2.4c4.1,3.1,8.1,6.9,12.8,9.6c14.1,8.3,28.3,16.5,44,21.5c6.2,2,12.4,3.8,19,4.5c8.4,0.9,16.6,3.2,25,4.7
	c10.2,1.8,20.3,1,30.3,0.5c6.5-0.3,12.8-2.4,19.2-3.5c4.1-0.7,7.5-2.6,10.1-5.6c4.3-4.9,8.5-10,12.2-15.3c5.4-7.8,10.3-16,15.4-23.9
	c0.5-0.7,1.5-1.2,2.5-2c1.6,1.1,3.2,2.1,4.7,3.1c0.6,4,0,7.2-3.1,9.9c-1.7,1.5-3.3,3.4-4.1,5.4c-3.8,9.5-11.8,16.1-16.2,25.2
	c-0.8,1.6-2.7,2.8-4.3,4c-1.6,1.2-3.3,2.2-5,3.1c-2.6,1.3-3.4,4.9-6.7,5.3c-3.9,0.5-7.7,1.4-11.6,1.9c-3.5,0.4-7.1,0.4-10.7,0.8
	c-5.9,0.7-11.6,0.1-17.5-1c-10.9-2-22-3.4-33-4.9c-15.6-2.2-30.7-6.2-45.3-12.4c-0.9-0.4-1.9-0.7-2.6-1.3
	c-8-6.8-17.8-10.8-26.7-16.1c-3.9-2.4-7.6-5-11.8-7.8c-1.5,1.3-3.5,2.3-4.2,3.8c-2.7,5.7-6.9,10.2-10.6,15.2
	c-5.1,6.8-9.4,14.2-14.3,21.1c-10.5,15-21.9,29.5-36.3,41c-6.5,5.2-12.3,11.5-20.2,15.1c-4.1,1.9-8.2,4.6-11.1,7.9
	c-4,4.4-9.2,6.1-14.2,8.3c-4.5,2-9.1,3.5-13.7,5.2c-0.6,0.2-1.2,0.6-1.9,0.6c-6.1,0.7-12.3,1.6-18.4,2c-4.6,0.4-8.9-0.2-13.2-2.8
	c-3.2-1.9-7.6-1.8-11.2-3.3c-6.6-2.8-13.3-5.6-19.4-9.2c-8.7-5-17.1-10.5-24.8-17.4c-8.1-7.3-15.2-15.3-21.9-23.7
	c-3.6-4.5-7-9.7-8.7-15.1c-1.2-3.8-4-6.7-4.9-10.5c-2.4-10.5-6.2-20.7-6.7-31.6c-0.3-6.2-0.4-12.4-0.6-18.6
	c-0.4-10.5-0.3-20.9,0.8-31.3c0.7-6.5,0.6-13.1,1.2-19.6c0.9-9.1,2.2-18.1,3.1-27.2c0.3-3.2,0.1-6.4,0.1-10.2
	c-2.4-0.6-4.5-1.4-6.7-1.6c-8.2-0.6-16.3-1.1-24.5-1.3c-6.2-0.1-12.5,0-18.7,0.6c-6.9,0.6-13.7-0.4-20.5-1.1
	c-9.4-0.9-18.8-3.1-28.3-2c-2.2,0.3-4.5-0.5-6.8-0.8c-4.9-0.7-9.7-1.3-14.5-2.3c-4.8-0.9-9.6-2.2-14.3-3.4
	c-4.4-1.1-8.8-2.9-13.3-3.5c-4.9-0.7-9.5-2-14.1-4c-15-6.5-30.8-11-46.4-15.9c-3.8-1.2-7-3.1-10.4-5.2c-5.5-3.4-11.7-5.7-17.5-8.6
	c-4.1-2-8-4.3-12-6.6c-3.1-1.8-6.1-3.8-9.2-5.6c-16.3-9.6-31.1-20.5-40.3-37.7C0.9,498.1,0,491.1,0.8,484c1-8.8,3.7-17.3,8.8-24.7
	c0.9-1.3,1.9-2.7,2.3-4.2c4.4-13.3,14.1-22.6,23.2-32.4c2.9-3.1,5.9-6.1,8.6-9.4c3.8-4.5,8.4-8.2,12.7-12.1
	c9.2-8.5,19.6-15.3,29.7-22.5c1.6-1.1,3.2-2.3,5-3.1c10.8-4.9,20.9-10.9,30.9-17.1c2.8-1.7,5.3-1.9,8.8-0.4
	c-1.3,1.3-2.2,2.7-3.4,3.5c-6.7,4.7-13.1,9.8-20.3,13.6c-7.2,3.8-13.7,8.6-20.9,12.4c-5.7,3-10.6,7.6-15.7,11.6
	c-3.3,2.6-6.4,5.5-9.8,8.1c-10.6,8.3-20.2,17.8-29.2,27.7c-7.7,8.5-13.3,18.5-17,29.4c-0.1,0.3-0.1,0.6-0.3,1
	c-5.6,15.5-5.2,19.7,1.8,34.6c3.3,6.9,8,12.5,12.9,18.3c10,11.7,22.7,19.4,35.7,27.2c7.6,4.6,15.6,8.1,23.8,11.2
	c0.3,0.1,0.7,0.1,0.9,0.3c14.3,8.1,30.3,12,45.5,18.1c3,1.2,6.2,2,9.4,2.6c10.9,1.9,22,3.3,32.9,5.6c10.2,2.2,20.5,3.9,30.5,7.2
	c1.6,0.5,3.1,1.1,4.7,1.3c9.8,0.8,19.6,1.4,29.4,2.2c5.2,0.4,10.4,1.1,15.6,1.2c14.7,0.3,29.5,0.4,44.2,0.6c0.3,0,0.6-0.2,1.4-0.6
	c2.8-6.1,2.4-13.1,3.6-19.7c0.6-3.2,1-6.4,1.6-9.6c3-16.1,6.5-32,10.8-47.8c3-11,5.9-22.1,8.9-33.2c0.3-1.2,0.4-2.6,0.6-4.1
	c-4.7-6.6-9.3-13.3-14.1-19.9c-3.6-5-8.2-9.4-9.9-15.6c-0.3-0.9-0.8-1.9-1.5-2.5c-5.7-4.7-8.8-11.3-12.7-17.4
	c-0.9-1.4-1.8-2.8-3-3.9c-7.2-6.1-11.7-14.3-15.8-22.3c-6-11.7-13.9-22.2-20.8-33.3c-3.3-5.3-6.3-10.7-9.4-16.1
	c-0.8-1.4-1.5-3-1.7-4.6c-0.1-1,0.6-2.4,1.3-3.2c0.3-0.4,2.1,0,2.6,0.5c2.1,2.5,4.2,5,6,7.8c6,9.4,11.8,18.9,17.9,28.2
	c3.2,4.9,6.7,9.7,10.1,14.5c7.1,10.1,14.2,20.3,21.4,30.4c3.6,5,7.6,9.8,11.2,14.9c4.5,6.4,8.7,13,13,19.5c2.2,3.3,4.8,6.1,8.8,8.5
	c2-5.6,4.6-10.7,5.6-16c3.6-19.1,10.6-37.1,15.9-55.7c4.9-17,9.3-34.1,15.2-50.7c5.7-16,9.3-32.7,16.3-48.3c1.3-2.8,1.4-6.2,2.1-9.6
	c-4.6-1.7-8.4,0.5-11.9,1.3c-11.5,2.5-22.7,6.2-34.2,8.5c-7.1,1.4-13.9,3.4-20.5,6.3c-5.2,2.3-10.9,1.9-16.2,3.3
	c-8.2,2.2-16.4,4.3-24.6,6.7c-4.2,1.2-8.3,1.3-13.2-0.3c4.5-2.2,8-4.9,12.5-6.1c8.4-2.3,16.9-4.8,25.2-7.4c14.4-4.7,29.3-6.4,44-9.4
	c6.3-1.3,12.7-2.4,18.9-4.7c7.6-2.8,15.8-4.1,23.7-6c5.4-14.2,10.7-28.2,16.1-42.2c0.7-1.8,1.5-3.6,2.3-5.4
	c3.7-8.4,7.6-16.7,11.2-25.1c1.3-3,1.8-6.3,5.8-7.6c0.3,1.1,1,2.1,0.7,2.8c-3.8,9.7-6,20-10.9,29.3c-1.5,2.9-4,5.5-4.8,8.5
	c-3.4,12.3-9.3,23.7-13.2,35.8c-0.1,0.3,0.1,0.6,0.2,1.6c1.5,0,3,0.2,4.5,0c6.8-1.2,13.5-2.6,20.2-3.9c13.8-2.8,27.3-6.4,41.6-6.5
	c5.2,0,10.3-1.5,15.5-2.3c8.4-1.3,16.7-2.8,25.1-3.9c14.9-1.9,29.9-3.6,44.8-5.4c3.2-0.4,6.5-0.4,9.2-3.7c-4-5.3-8.8-9.7-13.2-14.3
	c-5.2-5.5-10.6-10.6-16.1-15.8c-1.4-1.3-3.2-2.2-4.7-3.3c-1.9-1.3-3.8-2.5-5.6-4c-1.2-1-2.1-2.4-3.1-3.6c2.7-3.3,4.2-3.8,6.3-2
	c4.3,3.5,8.5,7.2,12.5,10.9c6.7,6.2,13.1,12.8,20.1,18.8c2.5,2.1,4.7,4.3,6.7,6.9c3.8,4.9,8.5,7.9,15.2,7.4
	c10.7-0.8,21.5,0.4,32.2,0c9.1-0.3,18.3,0.2,27.4-1.1c5.3-0.7,11,1,16.4,1.5c5.5,0.6,11,1.2,16.6,1.7c7.8,0.7,15.6,1.3,23.4,1.9
	c1.6,0.1,3.3,0.4,4.9,0.4c7.6-0.2,14.8,1.2,22.2,3.4c7.2,2.1,14.9,1.4,22.8,0.9c0.8-2,1.8-3.7,2.2-5.5c2.2-9.9,4.2-19.8,4.2-30.1
	c0.1-12.8,0.2-25.5,0.4-38.3c0.1-5.5,0.6-11.1,1-16.6c0-0.7,0.1-1.3,0-2c-1.3-7.7-0.9-15.5-0.8-23.3c0-7.5,0-15.1-0.9-22.6
	c-0.8-6.4-2.7-12.8-4.4-19.1c-1.7-6-4-11.8-5.6-17.7c-2.7-9.9-7.7-18.7-13.4-27.1c-4.6-6.8-9.2-13.5-13.7-20.4
	C701.1,21,686.1,12,667.3,9.4c-10-1.4-20.2-1.5-30.1-3c-9.3-1.4-18.3,0.5-27.3,1.6c-16.5,2-31.4,8.7-45.7,17
	c-15.6,9.1-29.7,20.1-42.7,32.7c-9.4,9.1-17.2,19.5-25.2,29.8c-1.6,2.1-3.6,4.2-4.1,6.6c-1,4.3-4.1,6.4-7.4,9.2
	c-1.1-1.1-2.5-2-3.2-3.3c-0.6-1.3-0.7-3.1-0.6-4.6c0.1-0.9,0.8-1.8,1.4-2.5c9.5-11.7,19.1-23.2,29.3-34.3
	c7.8-8.5,17.5-14.7,25.5-22.9c3.1-3.2,7.1-5.9,11.2-7.9c8.2-4.1,15.4-10.1,23.6-13.9c9.4-4.3,18.6-9.7,29.4-10.5
	c8.7-0.6,17.2-3.6,26-3.2c7.8,0.4,15.6-1.3,23.3,0.9c1.2,0.3,2.6,0.5,3.9,0.3c10.5-1.6,19.8,3.3,29.7,5c9.7,1.7,16.3,8.4,22.4,15.1
	c6,6.5,11.1,13.8,16.2,20.9c4.6,6.4,8.8,13,12.9,19.7c2,3.3,3.7,6.9,5,10.6c3.1,8.6,6.2,17.2,8.9,26c2.7,8.7,4.6,17.6,5.5,26.7
	c0.7,7.5,1.3,15,1.7,22.5c0.3,5.2,0.1,10.4,0.2,15.6c0.1,2.9,0.3,5.9,0.5,8.8c0.1,1.9,0.8,4,0.4,5.8c-1.2,7.2-0.2,14.4-0.1,21.5
	c0.2,10.2-1.1,20.1-3,30.1C753,239.7,752,249.8,750.5,260.3z M749.4,267.4c-3.5,5.2-3.4,5.2-4.4,9.9c-1.9,9-3.6,18-6,26.8
	c-3.9,14.2-8.2,28.2-12.3,42.3c-1.2,4.1-2.1,8.2-3.2,12.3c-2,7.2-3.5,14.7-6.2,21.6c-2.5,6.4-1.4,11.5,3.2,16
	c2.6,2.5,4.4,5.5,6.3,8.6c6.3,10.3,12.5,20.8,19.9,30.3c8.4,10.7,13.8,23,20.2,34.8c3,5.4,6.8,10.3,9.4,16c3.2,7.1,6.9,14,10.4,21.2
	c2.9,0.8,5.7,0.3,8.6-0.6c11.9-3.5,23.7-7,35.6-10.5c5-1.5,10-2.9,15-4.5c13-4.3,26-8.8,39.1-13c10.9-3.5,21.7-7.3,31.7-13
	c6.5-3.7,13.6-6.4,20.2-10c6.3-3.5,12.3-7.4,18.3-11.4c4-2.8,7.8-6,11.6-9.1c6.8-5.6,13.3-11.6,17.3-19.7c2-4.1,3.7-8.4,5.9-12.3
	c4.5-8.1,4.8-16.1,0.6-24.3c-2.8-5.5-5.3-11.3-8.4-16.7c-5.6-10-13.3-18.5-22.1-25.7c-10.9-8.9-23.2-15.8-35.4-22.8
	c-8.8-5.1-17.5-10.4-27.1-13.8c-2.7-1-5.6-2.1-8.5-2.1c-9.4-0.1-12.1-0.8-19.6-3.8c-5.4-2.2-11.1-4-16.7-5.5
	c-13.3-3.5-26.7-6.2-39.8-10.2c-6.2-1.9-12.8-3.7-19.1-3.6c-5.4,0.1-10.4-1.1-15.5-1.9C768.4,271.2,758.8,269.1,749.4,267.4z
	 M705.7,391.3c-5.3-5.7-9.8-10.9-14.6-15.7c-5-5.1-10-10.1-14.8-15.6c-7.3-8.4-15.4-16-23.1-24c-7.7-8.1-16.2-15.1-25.8-20.9
	c-1.1-0.7-2.7-1.2-3.1-2.2c-2-5.6-7.3-8.3-10.8-12.5c-10.7-12.4-23.3-22.9-35.6-33.7c-10.9-9.5-11-9.3-25.7-7.9
	c-13,1.3-25.9,2.4-38.9,4c-9.1,1.1-18.1,2.6-27.1,4.2c-8.7,1.5-17.3,2.5-26.1,3c-9.1,0.5-18.3,1.7-27.1,4.1c-6.3,1.7-12.7,3-19,4.5
	c-6.3,1.5-12.7,2.9-18.9,4.4c-1.3,2.8-2.6,5.1-3.4,7.6c-2,5.9-4.3,11.7-5.8,17.7c-2.1,8.6-6,16.5-8.3,25c-1.6,5.6-3,11.3-4.9,16.9
	c-3.4,10.2-7.6,20.2-10.5,30.6c-3.9,14.2-7.6,28.3-11.9,42.4c-4.6,15-8.4,30.2-13.2,45.1c-1.7,5.4-0.7,9.4,2.7,13.5
	c8,9.9,15.8,20,23.8,30c8.1,10.3,16,20.7,24.5,30.7c11.6,13.8,23.7,27.1,35.4,40.8c2.6,3.1,5.6,4.4,9.4,4.1
	c9.4-0.8,18.9-1.4,28.2-2.6c10.4-1.3,20.7-3.3,31.1-4.7c8.4-1.2,16.9-1.9,25.3-3.3c11.9-2,23.8-4.3,35.7-6.5
	c5.1-1,10.3-1.9,15.3-3.3c8.5-2.3,16.9-4.9,25.3-7.4c11.3-3.3,23-4.7,33.9-9.6c4.6-2,7.5-4.9,9.5-9.3c1.8-3.8,3.8-7.6,5.8-11.3
	c5.1-9.5,10.6-18.8,15.4-28.5c4.2-8.4,7.9-17.1,11.6-25.7c2.2-5.1,4.1-10.3,6.3-15.4c4.7-11.1,8.1-22.8,15.8-32.4
	c1.8-2.3,2.8-5.1,4.2-7.7C701.1,411,701.2,400.8,705.7,391.3z M428.2,596.5c-10.2,0.6-19.3,0.6-28.4,1.7
	c-11.4,1.3-22.8,1.9-34.2,2.2c-12.1,0.3-24.2,0.8-36.3,1.2c-4.6,0.2-9.2,0.2-13.7,0.4c-6.1,0.2-6.7,1.1-7.3,6.7
	c-1,9.4-2.6,18.7-3.4,28c-1,12.7-3.2,25.3-2.6,38.2c0.4,9.5,0.2,19,0.7,28.5c0.5,9.4,0.9,19.1,4.4,27.9c4.7,11.8,9,23.8,17.2,33.9
	c5.7,7.1,10.8,14.8,18.1,20.5c9.6,7.4,20.2,13.3,30.5,19.6c2.5,1.5,5.4,2.2,8.2,3.2c7.1,2.4,14.2,4.8,21.4,7c2.4,0.7,5.1,1,7.6,1
	c3.6,0.1,6.9-0.5,10.4-2.1c3.3-1.6,7.5-1.5,11.3-2c4.4-0.5,8.1-2.3,11.6-5c1.5-1.2,3.4-1.9,5-3c7.6-5,15.5-9.6,22.8-15.1
	c7.1-5.3,13.6-11.3,20.3-17c3.7-3.2,7.6-6.3,10.8-10c5-5.6,9.7-11.6,14.1-17.7c7.4-10.3,14.2-21.2,22.5-30.8
	c2.3-2.7,4.3-5.8,6.1-8.9c0.9-1.5,1.1-3.5,1.7-5.4c-1.8-1.2-3.1-2.1-4.5-3c-13.5-8.7-25.9-18.9-38.4-28.8c-10.7-8.5-20.7-18-31-27.1
	c-4.4-3.9-8.6-8-12.9-12.1c-4.7-4.5-9.6-8.9-14.2-13.6C440,609.1,434.2,602.8,428.2,596.5z M436.5,594.9c1.5,2.5,2.5,4.5,3.9,6.2
	c4.1,4.7,8.2,9.3,12.6,13.8c9.3,9.7,19.3,18.5,29.8,26.9c7.9,6.4,15.3,13.3,23,19.9c2.7,2.3,6.5,3.5,8.6,6.2c2.7,3.5,6,6,9.6,8.2
	c7.5,4.6,14.6,9.8,21.2,15.7c1.6,1.4,3.9,2,6.1,3c2.7-3.5,5.2-6.5,7.4-9.7c1.9-2.7,3.4-5.6,5.1-8.4c1.7-2.8,3.4-5.6,5.1-8.4
	c3.2-5.3,6.5-10.6,9.4-16.1c7.4-13.9,14.1-28.2,22.1-41.6c8-13.5,14.4-27.8,21.8-41.7c0.9-1.7,1.5-3.6,2.5-6c-2.1,0-3.8-0.4-5.2,0.1
	c-6.9,2.2-14.1,2.8-21.2,4c-12.9,2.2-25.7,4.9-38.5,7.6c-5.4,1.1-10.7,2.8-16.2,3.9c-10.9,2.2-21.8,4.1-32.7,6.1
	c-5.8,1.1-11.5,2.4-17.4,3.2C475,590.2,456.5,592.4,436.5,594.9z M581.9,259.6c3.7,4.4,5.9,7.1,8.5,9.4c4.4,3.9,9,7.5,13.2,11.6
	c7.4,7.4,15.3,14.1,23.6,20.4c5.7,4.3,11.3,8.9,16.5,13.8c5.7,5.4,10.8,11.4,16.1,17.1c1.1,1.2,2.1,2.5,3.4,3.5
	c10.1,8.2,20.5,16,28.3,26.8c4.5,6.4,10,12.1,15.1,18.1c0.7,0.8,1.9,1.2,3.5,2.2c10.7-38.7,24-75.9,31-115.5c-2.5-0.5-4.3-1-6.1-1.2
	c-3.2-0.4-6.7-0.1-9.7-1.1c-9.8-3.3-19.9-3.8-30-3.7c-3.9,0-7.9-0.1-11.8-0.5c-12-1-24.1-3.1-36.1-3.1
	C626.4,257.5,605.5,258.8,581.9,259.6z M711.1,400.1c-0.8,1.2-2,2.3-2.5,3.7c-2.9,6.9-5.9,13.8-8.4,20.9c-2.2,6.1-3.4,12.7-6,18.7
	c-3.1,6.9-5.3,14-7.1,21.3c-2.6,10.2-6.7,19.9-12.5,28.6c-6,9-8.7,19.7-16,27.9c-1.1,5.7-5,9.8-7.9,14.5c-1.4,2.3-4.1,4.3-3.2,8.4
	c4.6-0.9,9-1.7,13.4-2.8c6-1.4,12-3.8,18.1-4.2c11.3-0.7,21.6-5,32.3-7.7c8.6-2.2,17.1-4.4,25.6-6.7c3.8-1,7.6-2,11.3-3.1
	c5.3-1.5,10.7-3,16-4.6c5.3-1.6,10.8-2.7,15.2-6.4c-0.1-1.2,0-2.3-0.4-3.1c-6.5-14.4-14.4-27.9-23.1-41c-2.3-3.5-4.6-7.1-6.7-10.8
	c-6.4-11.4-12.8-22.8-21-33.1c-3.3-4.1-6.3-8.4-9.5-12.5C716.3,405.4,715.1,401.8,711.1,400.1z M310.7,596.2c6.9,0,13.1-0.2,19.3,0
	c9.8,0.3,19.6-1.3,29.4-1.5c14.7-0.2,29.4-0.1,44-2.6c5.1-0.9,10.1-1.8,15.1-2.7c-1-5.3-1-5.2-3-7.4c-4.3-4.9-8.7-9.7-12.9-14.7
	c-8.7-10.2-17.6-20.3-27.4-29.5c-8.4-7.9-15.2-17.1-22-26.3c-5.1-6.8-10.5-13.4-15.8-20c-0.7-0.9-1.9-1.5-3-2.2
	C324.6,506.2,309.2,575.9,310.7,596.2z"/>
<path fill-rule="evenodd" clip-rule="evenodd" d="M213.7,121.3c-3.2-3.9-5.4-6.6-7.9-9.7c1-3.4,1.3-7.2,3.1-10.1
	c2.5-4.4,4-8.9,5-13.7c2-10.2,7.1-18.9,13.8-26.7c0.6-0.7,1.2-1.6,1.9-2.1c10.6-7,20.8-14.9,33.8-17c9.7-1.6,19.4-2.2,28.8,1.8
	c1.5,0.6,3.2,0.7,4.8,1.1c17.8,4.1,33.6,12.5,48.8,22.3c7.7,5,15.3,9.9,22.1,16.3c4.7,4.4,10.9,7.2,16.3,10.8
	c3.3,2.2,3.3,2.2,2.3,8.6c-5.6-2.1-10.3-5.6-14.8-9.3c-13.7-11.2-27.8-21.8-43.3-30.2c-13.9-7.6-28.5-12.9-44.7-13.2
	c-6.5-0.1-12.9-2.1-19.5-1.1c-2.2,0.3-4.5,0.7-6.6,1.6c-8.1,3.7-16,7.9-21.9,14.6c-7.4,8.3-13.9,17.1-16.7,28.4
	C216.8,102.2,214.1,110.8,213.7,121.3z"/>
<path fill-rule="evenodd" clip-rule="evenodd" d="M416.1,474.3c3.9,2.5,7.9,5.2,13.9,9.1c-3.6-0.5-5-0.4-6.2-0.9
	c-9.2-4.3-14.7-11.2-15.9-21.8c-0.6-5.9-0.6-11.6,0.7-17.3c1-4.4,1.9-8.8,2.8-12.8c2.5-0.7,3.3,0.1,3,1.7c-0.4,2.6-0.9,5.2-1.7,7.6
	c-3,8.7-2.6,17.3,0.5,25.9C414.4,468.6,415.2,471.4,416.1,474.3z"/>
<path fill-rule="evenodd" clip-rule="evenodd" d="M541.6,450.8c1.1-2.1,2.1-4.5,3.6-6.6c2-2.9,5.4-3.5,7.6-1.8
	c2.7,2.2,3.5,5.8,2,8.6c-0.5,0.8-1,1.7-1.6,2.4c-3,3.5-6.3,3.7-9.9,0.2C542.6,453,542.3,452,541.6,450.8z"/>
<path fill-rule="evenodd" clip-rule="evenodd" d="M609,445.9c-0.2,1.8,0,3.5-0.6,5c-1.3,3.6-4.4,4.8-7.9,3.2c-3.1-1.4-5-4.6-4-6.9
	c1.8-4.4,5.4-5.8,9.3-3.6C606.9,444.1,607.8,445,609,445.9z"/>
<path fill-rule="evenodd" clip-rule="evenodd" d="M756.5,640.1c0.2-22.5,8.8-39.9,30-49.7c21-9.7,41.9-19.5,63-28.7
	c5.9-2.6,12.4-4,18.8-5.2c5.8-1.1,10.6,1.2,14.7,5.7c8.6,9.5,9.4,20.9,8.3,32.5c-1.5,16.6-6.9,32.5-12.6,48
	c-4.1,11.3-9.7,22.1-14.9,32.9c-4.5,9.4-11.8,16.1-20.7,21.4c-11.4,6.8-23.3,9-36.1,3.8c-6-2.5-12.3-4.5-18.1-7.4
	C767.3,682.4,756.1,664.8,756.5,640.1z"/>
<path fill-rule="evenodd" clip-rule="evenodd" d="M248.6,275.4c0.6,18.1-6.6,31.2-22,40.2c-5.8,3.3-11,7.6-16.9,10.8
	c-23.9,13.1-52.5,1.4-60-23.3c-7.9-25.8-12.3-51.9-11.5-78.7c0.8-27.1,24.6-41.3,49.4-29.7c26.6,12.4,45.1,32.8,56.4,59.6
	C246.7,260.7,247.1,268.3,248.6,275.4z"/>
<path fill-rule="evenodd" clip-rule="evenodd" d="M419.1,130.3c-1.3-7.9,4.7-15.8,15.5-13.4c3.7,0.8,7.4,2.4,10.6,4.5
	c6.6,4.3,11.6,10.3,15.6,17c2.5,4.1,3.8,8.7,3.1,13.6c-0.2,1.7-0.3,3.9-1.3,4.9c-5.4,5.4-10.4,11.6-17.8,14.3
	c-5.6,2-10.1-1-13.9-4.7c-2.1-2-3.5-4.9-4.9-7.6C423,153.3,419.2,136.8,419.1,130.3z"/>
<path opacity="0.75" fill-rule="evenodd" clip-rule="evenodd" fill="#FFFFFF" d="M886.4,590.6c-0.5-3.2-1-8.2-2.2-13
	c-3.9-16.2-11.2-15-22.1-13.7c-1,0.1-2,0.4-2.9,0.7c-24.8,8.7-48.4,19.4-68.6,37.1c-11.4,10-19.2,21.9-24.2,35.8
	c-6.2,17.1-0.3,35.1,14.7,45.3c10.5,7,21.7,12.8,34.2,15.4c3.3,0.7,6.8,0.6,10.2,0.2c15.4-1.5,25.7-10.5,33.2-23.3
	c13.3-22.9,21-47.8,26.8-73.5C886.2,598.6,886,595.5,886.4,590.6z"/>
<path opacity="0.75" fill-rule="evenodd" clip-rule="evenodd" fill="#FFFFFF" d="M240.1,272c1.1-6.6-1.8-14.7-5.6-22.7
	c-10.1-21.5-26.5-36.8-47.4-47.3c-22.2-11.1-43.4-1.5-43.5,27c-0.1,16.1,3.1,31.8,6.4,47.5c4.5,21.2,17.4,33.6,38.6,38.5
	C215.5,321.1,240.3,301.9,240.1,272z"/>
<path opacity="0.75" fill-rule="evenodd" clip-rule="evenodd" fill="#FFFFFF" d="M432.8,120.9c-5.1-0.1-9,2.9-9.2,6.7
	c-0.4,9.7,1.3,19.1,7.3,26.8c8.9,11.4,18,10.5,26.9,0.8c2.3-2.5,2.8-5.3,1.7-8.3c-3.8-9.9-9.8-18.1-19.2-23.3
	C437.7,122,434.6,121.5,432.8,120.9z"/>
</svg>
