<?xml version="1.0" encoding="utf-8"?>
<!DOCTYPE svg PUBLIC "-//W3C//DTD SVG 1.1//EN" "http://www.w3.org/Graphics/SVG/1.1/DTD/svg11.dtd">
<svg artist="zl2017" version="1.1" id="zlIcon-sheep-round-se" xmlns="http://www.w3.org/2000/svg" xmlns:xlink="http://www.w3.org/1999/xlink"
	 x="0px" y="0px" width="1000px" height="931.3px" viewBox="0 66.2 1000 931.3" enable-background="new 0 66.2 1000 931.3"
	 xml:space="preserve">
<g>
	<path opacity="0.15" enable-background="new    " d="M676.3,887.4c-7.8,52.4-88.7,81.5-211.4,101.2C289,1016.9,197,974.4,143.2,906
		C16.8,745.4,688.5,713.3,676.3,887.4C674.9,896.8,677.6,868.2,676.3,887.4z"/>
	<path d="M381.5,832.7c-42.8,7.6-46.9,18.1-68.6,53.3c2.4-27.6-62.8-46.1-72.5-50.6c-59.2-27.8-21.1,37.6-58.6,38.6
		c-11.7-38.4-22.7-87-25.7-126.8c-45.8-17.9-89.2-44.2-124-78.5C-5.7,631.5-0.3,566.6,2.4,521.1c2.8-48.2,65.7-90.9,63.3-132.9
		C59.2,268.6,150,229.8,194.4,138c55.1-113.9,213.7-75.6,282.6-0.6c11.2,12.2,82.2-16.5,110.7,14c24.1,25.8,71.6,45.8,88.1,80.4
		c22,46.2,89.6,37.4,114,93.5c14.4,33.2,10.6,70.6,13.4,103c3.6,41.2-37.6,93.5-59.6,122.5c-31.8,41.7-2.7,108.8-40.1,152.6
		c-16.5,19.4-82.8,72.2-84.6,95.1c-1.9,25.6-33.5,112.3-52.4,125.2c-9.1,6.2-7.5-74.3-36.6-63.9c-27.8,9.9-59.3,3.9-69.9,37.5
		c-41.7,132.7-70.9-10.7-67.8-61.3C392.5,829.5,388.4,830.7,381.5,832.7z"/>
	<path fill="#FFFFFF" d="M707.7,533.8c-22.5-26.7,14.6-75.5-22.9-97.2c5,51.9-17.4,89.7-21.4,139.8c3.6-2.9,32-35.5,32.9-33.6
		c15.8,31.8,18.7,83.1,8.4,116.1c-24,76.6-69.2,97.1-138.4,117.6c2.7,12.9,11.7,19.4,27.2,19.3c-41.3,61.4-169.1,81.6-210,8.3
		c9.3,0,84.3,3.6,81.2-20.6c0.2,1.6-72,5.5-83.6,2.8c-35.9-8.3-49.7-33.2-79.7-48.6c-9.6,37,63.3,57.1,75.5,87.6
		c-56.5,0-76.2,7.5-129.4-6c-77.3-19.8-60.3-106.4-94.7-152.5c-27.1,16.7-4.4,48.4-53.7,22.5c-21.2-11.2-37.8-15.1-50.5-38.4
		c-25.4-46-27.2-97-20.4-146.7c3.6-26.3,44-90.4,71.7-66.7c-7.4-6.3,16.6,94.7,15.9,87.8c-3-28.3-5.4-52.7,2-81.2
		c7.1-27.4,58.1-53.7,57-68.3c-41.5-8-41.9,39.2-68.4,45.6C89.1,425.2,96.6,298,98,294.8c12.9-29.4,32.7-54.7,58.3-74.2
		c40.2-30.6,54-21.2,74.3-64.4c36.5-78.1,98.1-102.1,179.3-50.8c24.5,15.5,37.2,29,42.4,59.3c3.4,20.1-52.8,23.2-67,41
		c19.7,1.9,34.1-18.8,57.4-11.9c31.6,9.4,50.8,35.4,78.4,48.6c12.7-50.1-92.6-36.2-42.1-81.1c30.2-26.9,51.2-13.6,82.3-8.4
		c21.6,3.6,51.7,30.5,63.9,48.1c16,23.2,26.7,38.6,31.6,67.1c1.2,7.2-29.4,21.3-16.6,30.4c0.2,0.1,50.1-25.5,73-9.6
		c26.4,18.3,70.8,54,70.5,91.4C783.4,437.8,768.6,514,707.7,533.8C705.8,531.5,711.2,532.7,707.7,533.8z"/>
	<path d="M992.3,414.6c-18.9,9.2-127.4-37.7-128-29.7c-3.5,47,51.3,112.4,12.4,162.1c-46.5,59.3-108.2,108.5-187.8,108.1
		c-63.7-0.4-181.6-40.8-180.3-121.6c0.8-49.8,77-181.1-22.6-155.5c-30.1,7.7-42.7,42.6-77.5,43.9c-31.7,1.1-24-57.3-15.4-71.5
		c28.9-47.3,85.8-41.6,124.5-8.3c49.5,42.7,22.8,30.9,79,15.5c40.4-11,76.6-17.7,120-19.2c40.6-1.3,107.5,35.8,142.5,20.6
		c38.4-16.6,54.9-58,106-34c23.1,10.9,41.6,70.1,31.7,86.7C995.8,413.3,995,413.8,992.3,414.6z"/>
	<path fill="#FFFFFF" d="M736.8,389c149.5-92.3,183.9,176.9,63.4,191.1c-118.8,14-36.7-128.1-67.8-189.2L736.8,389z"/>
	<path d="M823.1,535.5c-4.7,24.4-25.8,37-44.8,19.1c-36.7-34.5,5.9-84.9,37.8-45.6C818,511.4,825.7,517.6,823.1,535.5z"/>
	<path fill="#FFFFFF" d="M526.2,526.9c17.4-51.1,13.1-101.6,61.9-138.3C635.7,353,715.2,344,726,422.7
		c4.9,36.2,3.9,125.8-38.5,145.7c-64.8,30.5-165.7-2.2-162.9-36.5C524.8,529,525.6,529.1,526.2,526.9z"/>
	<path d="M621.4,517.2c4-37.1,52.1-25.7,57.8,10.3c5.7,36.6-44.4,46-57.3,8.2C620.2,530.6,620,525.3,621.4,517.2z"/>
</g>
</svg>
