<?xml version="1.0" encoding="utf-8"?>
<!DOCTYPE svg PUBLIC "-//W3C//DTD SVG 1.1//EN" "http://www.w3.org/Graphics/SVG/1.1/DTD/svg11.dtd">
<svg artist="zl2017" version="1.1" id="zlIcon-sheep-pank-full" xmlns="http://www.w3.org/2000/svg" xmlns:xlink="http://www.w3.org/1999/xlink" x="0px" y="0px"
	 width="1000px" height="1166.8px" viewBox="0 0 1000 1166.8" enable-background="new 0 0 1000 1166.8" xml:space="preserve">
<path fill-rule="evenodd" clip-rule="evenodd" d="M863.4,796.8c2.5-3.1,4.2-4.7,5.3-6.7c6-10.3,12.1-20.5,17.6-31.1
	c6.8-13,9.6-27.5,13.1-41.6c1-4.2,0.4-9-0.2-13.4c-2.8-19.2-1.6-38.1,4-56.7c1.1-3.5,2.6-7.2,2.5-10.8c-0.1-5.8,3.2-8.7,7.5-11.1
	c12.3-6.8,24.8-8.6,37.9-1.6c3.9,2.1,6.3,4.7,7.1,8.9c0.7,3.9,1.8,7.9,1.6,11.8c-0.5,11.1-1.7,22.2-2.3,33.3
	c-0.8,14.6-1.2,29.1,1.7,43.6c1.3,6.7,2,13.7,3.6,20.3c4,16.2,9.8,31.7,16.2,47.2c2.9,7,4.2,14.5,6.4,21.8c2,6.5,3.8,13.1,6.1,19.5
	c5.6,15.1,8.8,30.5,7.8,46.7c-0.7,11.6-1.6,23.3-1.9,34.9c-0.2,5.5,1.3,11.1,1.1,16.6c-0.9,22.8-1.7,45.6-6.2,68.1
	c-1,4.8-3.4,9.4-5.9,13.8c-1.2,2.1-3.8,3.9-6.1,4.6c-15.1,4.8-30.1,10.3-46.2,11.6c-3.8,0.3-6.4,2.3-8.3,5.4
	c-1.8,2.9-3.3,6.1-5.4,8.8c-1.9,2.5-4.1,5.2-6.8,6.5c-7.8,3.7-15.8,7.4-24.1,9.8c-12.7,3.7-25,9.1-38.5,9.3
	c-11.9,0.2-23.9,2.8-35.6-0.4c-13.8-3.7-28-5.8-40.8-12.8c-4.9-2.7-10.2-4.4-15.4-6.5c-2.6-1.1-4.3-2.7-4.8-5.7
	c-2.3-13.3-4.8-26.6-7.2-39.9c-0.3-1.6-0.4-3.2-0.6-4.7c-0.9-7.9-4.1-10.3-11.7-8.3c-6.4,1.7-12.6,4.4-19.1,5.7
	c-18,3.6-36.2,6-54.5,5c-9.6-0.5-19.5-1-28-7.4c-3.2-2.4-8-2.7-11.9-4.3c-14.9-6.2-17.3-8.7-22.9-23.5c-6.1,0.9-12.3,2-18.5,2.7
	c-3.1,0.3-6.3,0.3-9.4-0.2c-9.9-1.8-19.8-3.7-29.6-5.9c-2.8-0.6-5.7-1.7-8.1-3.2c-11.7-7.3-23.3-14.7-34.7-22.3
	c-3.2-2.1-5.7-2.4-8.6-0.1c-2.9,2.3-5.7,4.6-9.1,7.3c5.6,22.6,11.1,44.9,16.5,67.2c1.3,5.4,2,10.9,3,16.4c2,11,4.9,21.6,9,32
	c3.7,9.3,5.4,19.4,7.7,29.2c1.4,6-1.3,8.3-7.5,6.9c-2-0.5-4-1.3-5.9-2.3c-10.5-5.6-21.2-10.9-31.3-17.2
	c-8.7-5.4-16.7-12.1-25.1-18.1c-5.8-4.2-11.6-8.3-17.4-12.5c-7.5-5.4-14.8-11.1-22.6-16.1c-7.8-5-16.3-8.9-24-14
	c-9.2-6.1-18.3-12.6-26.6-19.9c-6.5-5.7-13.1-9.3-21.8-9.8c-14.3-0.8-28.5-2.2-42.8-3.5c-4.7-0.4-9.4-1.7-14.2-2.1
	c-3.9-0.4-7.8-0.1-11.8-0.1c-2.1,0-4.3,0.1-6.3-0.3c-17.6-3.9-34.8-9.4-51.1-17.1c-1.9-0.9-4.4-1.7-5.3-3.3
	c-3.1-5.4-8.2-7.1-13.5-9.1c-3.9-1.5-7.8-3.4-11.2-5.9c-8.9-6.7-18.2-12.8-24.8-22.1c-7.3-10.4-15.1-20.4-22.4-30.8
	c-5-7.1-6.8-15.4-9.2-23.6c-6.2-20.9-11.3-42-13.3-63.8c-0.5-5.2,0-10.6,0.3-15.8c0.3-5.1-0.9-8.9-5.4-12.3
	c-8.5-6.3-16.6-13.2-24.5-20.2c-4.6-4-8.8-8.5-12.6-13.2c-9.8-12.1-19.9-24.2-28.8-37c-7.6-10.8-14.4-22.3-20.3-34.1
	c-4-8-6.4-16.9-8.5-25.6c-3.4-14.4-6.9-28.9-8.3-43.6c-1.1-10.9,0.8-22.1,1.9-33.2c0.7-7.1,2.7-14,3.8-21.1
	c1.3-8.9,5.9-16.2,10.2-23.9c2.9-5.3,4.3-11.4,7.3-16.7c4.5-8.1,9.5-15.8,14.7-23.4c1.8-2.6,3-4.8,2.3-8c-1-4.4-1.8-8.8-2.7-13.2
	c-0.1-0.5-0.4-1-0.4-1.5c-0.4-13.8-1-27.5-1.1-41.3c0-6,0.3-12.2,1.7-18.1c1.9-8.5,4.5-16.9,7.6-25.1c5.7-14.8,11.4-29.7,18.4-43.9
	c4.6-9.4,10.8-18.2,17.4-26.5c12.5-15.8,28.1-28.8,43.2-41.9c17.6-15.3,38.8-23.4,61.8-27.3c11.8-2,23.6-3.9,35.6-2.7
	c3.8,0.4,7.6,1.9,11.3,3c4.6,1.4,9,3,13.6,4.2c10.2,2.7,20.4,5.1,30.8,7.7c2.4-3.4,1.3-6.7,0.3-10c-7.2-24.2-17.1-46.9-35.5-64.9
	c-0.9-0.9-1.6-2.1-2.3-3.1c5.9-4.1,6.7-3.8,12-0.8c10.2,5.7,20.1,12,30.8,16.4c12,5,24.6,8.4,37.9,7.1c7.2-0.7,8.8-1.9,7.9-8.9
	c-1.7-12.3-3.8-24.6-11.1-35.3c-5.7-8.3-10.8-16.9-16.1-25.5c-0.8-1.3-1.2-3-1.4-4.5c-0.4-3.9,1.2-5.8,5-4.8
	c5.6,1.5,11.3,3.2,16.4,5.9c12.4,6.6,24.6,13.5,36.5,20.9c7.8,4.9,14.9,10.9,22.3,16.4c1,0.8,2.1,1.5,3.7,2.8
	c1.1-1.8,2.4-3.2,2.8-4.7c1.1-4.6,2-9.3,2.8-14c2.6-16.1,8.4-31.2,15.2-45.9c7.2-15.6,14.8-31.1,22.6-46.5
	c2.7-5.4,6.6-10.2,10.1-15.2c5-7.1,10.2-14.2,15.4-21.2c4-5.4,9.4-9.2,15.6-11.7c3.2,1.5,2.9,3.8,1.6,6c-9.4,16.2-6.4,33.3-3.3,50.3
	c1.3,7,2.8,14.1,4.8,20.9c1.8,6.1,4.5,11.9,7,17.7c0.5,1.1,1.7,1.9,2.6,2.8c1-0.4,2-0.4,2.4-0.9c5.6-7.4,10.9-14.9,16.6-22.2
	c6.1-7.9,11.9-16,20.5-21.9c10.5-7.1,20.1-15.6,30.2-23.3c2.3-1.8,4.7-3.5,7.4-4.6c2.2-0.9,4.8-0.7,8.7-1.1
	c-3.5,6.8-6.1,12.2-8.9,17.4c-5.1,9.7-9,19.7-10.3,30.7c-0.6,5.3-2.5,10.4-3,15.6c-0.5,6.3-0.7,12.7,0,19c0.5,4.6,4.2,5.5,7.4,2.6
	c7.1-6.3,13.9-13,21.4-18.8c14-10.9,28.5-21.1,42.4-32.2c6-4.8,12.5-7.9,19.5-10.5c3.5-1.3,7.5-3,12,0.7c-1.6,1.9-2.9,3.7-4.4,5.3
	c-6.9,7.7-14.1,15.1-20.7,23c-8.7,10.5-12.4,23.2-14.3,36.5c-0.1,1-0.1,2.1,0.1,3.2c0.1,0.4,0.5,0.8,0.5,0.9
	c11.4-4.2,22.7-8.4,34-12.6c4.9-1.8,9.8-4.4,14.9-5.3c17.5-3.1,35-5.7,52.6-8.3c3.4-0.5,6.9-0.4,10.3,0.1c2,0.3,4.8,1.5,5.6,3.2
	c1.5,3.2-1.8,4.3-3.9,5.8c-12.7,9-25.3,18.2-38.1,27.3c-13.3,9.5-22,22.8-30.3,36.4c-1.4,2.2-2.7,4.5-4.3,6.7
	c-11,15.5-18.8,32.5-22.9,51.1c-1.7,7.6-3.7,15.6-1.7,23.6c0.6,2.5,1.6,4.9,2.5,7.7c5.7-1.2,9.1-4.3,11.3-8.8
	c6.5-13.3,12.7-26.8,19.4-40c1.7-3.4,4.3-6.8,7.3-9.2c11.5-9.7,25.3-14.4,39.8-16.7c18.3-2.9,36.5-2,54.6,1.3
	c6.6,1.2,12.5,4.2,17.8,8.4c7,5.6,9.2,13.1,7,21.4c-4.9,18.4-11.4,36.5-22.4,52.2c-6.3,9-17.5,13.5-29.6,8.1
	c-6.5-2.9-12.2-7.6-18.6-10.5c-13.4-6.1-26.7-13.1-42.4-9.3c-4.3,1-7,3.1-9.2,6.7c-7.8,13.1-9.4,13.4,4.9,22.5
	c11.1,7.1,21.6,15.4,27.7,27.9c1.5,3.1,3.4,6,5.4,8.8c6.9,10,9.4,21.7,13.1,33c3.8,11.5,5.3,23.2,7.4,34.9c1,5.6,0.5,11.5,0.3,17.3
	c-0.5,15.9-6.9,29.8-14.9,43.1c-0.7,1.1-1.3,2.3-1.8,3.5c-0.2,0.4-0.1,1-0.2,2c5.2,3.2,10.7,6.2,15.8,9.8c4.7,3.4,9,7.4,13.1,11.4
	c5,4.7,10.2,9.3,14.3,14.7c5.3,7,12.2,8.1,20.2,8.3c17.1,0.5,33.7-3,50.6-4.3c6.3-0.5,12.7-0.7,19-1.2c3.4-0.2,6.9-0.4,10.2-1.1
	c5.8-1.3,6.6-3.6,4.4-9.3c-4.6-12.1-13.9-20.4-22.8-29c-4.6-4.4-9.3-8.7-13.2-13.6c-11-14.2-19-29.8-21-48.1
	c-1-9.2-4.2-18.1-5.8-27.2c-3.3-19.4-3.4-39-3.3-58.6c0-8.7,0.2-17.5,1.4-26.2c2.7-19.6,14.5-37.2,36.7-40.1
	c2.5-0.3,4.9-1.9,7.3-2.9c6.8-2.9,13.6-5.9,20.6-8.5c1.9-0.7,4.2-0.9,6.3-0.8c17.7,1.1,35.4,2.7,53.1,3.4
	c11.1,0.4,20.9,8.5,21.7,21.2c1,14.2,3.8,28.4,5.2,42.6c1.9,19,3.2,38,4.6,57.1c0.6,7.9,1,15.9,1.3,23.8c1.1,22.5-5.6,42.8-16.8,62
	c-3.6,6.2-7.3,12.3-10.9,18.5c-6,10.5-8.1,21.7-5.8,33.6c0.7,4,0.3,7.5-1.7,11.4c-3,5.8-4.8,12-3.6,19c1.4,8.6,1.8,17.4,1.9,26.2
	c0.1,12.6-2.7,15.5-15.2,16.1c-6.6,0.3-13.3,0.2-19.9-0.1c-5.7-0.3-8.9-3.4-10.1-9.3c-0.6-3-1.2-6.1-2-10.4
	c-4.3,2.2-7.7,3.5-10.6,5.6c-12.8,8.9-25.5,18-38.1,27.2c-9.2,6.7-11.6,13.9-8.2,24.8c0.6,2,2.4,4.2,4.3,5.3
	c11.4,6.8,21.9,14.8,31,24.6c7.1,7.6,12.9,15.8,16.2,25.9c4.2,12.8,9.8,25.5,9.3,39.2c-0.6,18.1,1,37.2-9.5,53.2
	c-6,9.2-6.8,16.7-1.7,26.3C857.4,777.8,859.7,786.6,863.4,796.8z M529.4,875.9c-0.5,3.3-0.4,5.7-1.3,7.6
	c-4.2,9.1-8.3,18.4-15.6,25.7c-3.3,3.3-3.4,6.7-1,10.7c5.8,9.8,13.2,17.8,23.4,23.1c6.3,3.3,12.2,7.5,19.7,8.2
	c5.8,0.5,11.6,1.2,17.3,2.3c6,1.1,11.9,1.3,18.1,0.9c8.7-0.6,11.2-4.5,10.1-13.1c-0.9-6.8-0.5-13.7-0.6-20.5
	c0-6.1,0.5-12.2,0.2-18.3c-0.8-14.8-2.4-29.6-2.9-44.4c-0.7-20.4,0.6-40.8,5.3-60.8c1.5-6.4,3-12.9,4.3-19.4
	c0.5-2.5,0.7-5.1-1.9-7.2c-5.8-4.7-11.2-9.7-16.8-14.5c-2.8-2.4-4.7-5.2-4.1-9c1.2-8.1,1.7-16.5,4.2-24.2
	c4.2-12.8,9.7-25.2,14.6-37.8c4-10.4,8.3-20.6,12-31.1c3.1-8.7,1.9-10.4-7-13.1c-0.5-0.2-1.1-0.2-1.6-0.3c-11.8-4-24.1-5.8-36.4-7.6
	c-20.4-3-40.5-7.5-60.9-10.9c-24-4-48-7-72.6-6.1c-18.3,0.7-36.5,1.7-54.8,3.1c-2,0.1-3.9,0.9-5.5,1.3c-0.2,1.4-0.5,1.9-0.4,2.4
	c3.1,14.5,6.1,29.1,9.3,43.6c0.4,1.7,1.4,3.5,2.6,4.7c3.6,3.5,7.6,6.6,11.2,10c11.8,11,17.4,32.2,11.1,47.7c-1.3,3.2-3,6.2-4.7,9.2
	c-3.4,5.8-4.4,11.8-2.9,18.4c0.3,1.3,0.3,2.6,0.3,4c0.1,7.1-2,10.3-9,12.1c-12.8,3.4-25.8,5.8-39.2,5c-15.6-1-31.3-1.5-46.9-1.9
	c-9-0.2-18.1,0.8-27,0c-12.9-1.2-14.1-4.6-14.7-17.1c0-0.8,0.2-1.6,0.2-2.4c0.4-12.7,0.8-25.4,1-38.1c0.1-4.2-1-8.5-0.5-12.7
	c2.5-20.7-1.3-40.7-6.3-60.6c-1.6-6.6-3.8-7.2-9.5-3.5c-3.1,2-6.1,4.1-9.3,5.9c-4.6,2.6-9.3,4.9-14,7.4c-3.9,2.2-7.8,4.6-11.6,6.9
	c-6.3,3.8-13,7.1-18.9,11.5c-12.8,9.4-26,18.5-35.8,31.3c-8.3,10.7-16.3,21.6-24.3,32.5c-1.2,1.6-1.8,3.8-2.2,5.8
	c-1.8,8.8-3.7,17.6-5,26.5c-1.4,9.1-3.4,18.4-3.1,27.5c0.5,16.4,2,32.8,7.6,48.5c4.5,12.7,7,26.2,15.8,37.1c1.3,1.6,1.7,3.8,2.5,5.8
	c5.5,14.1,14.3,25.8,25.9,35.5c8.4,7.1,17.7,12.3,28.1,16.1c13.9,5.1,27.4,11.3,41.1,16.9c3.2,1.3,6.6,1.9,9.8,2.9
	c9.1,2.7,18.2,5.6,27.3,8.2c8.6,2.5,17.2,5.4,26,6.8c11.5,1.8,23,2.4,34.8,1.3c11.8-1.1,23.7-0.8,35.4-3.9
	c14-3.7,28.3-6.3,42.1-11.3c15.2-5.5,27.7-15.6,42.4-21.7c1.2-0.5,2-1.7,3.1-2.4c3.7-2.5,7.5-4.9,11.3-7.3c2.9-1.9,5.9-3.5,8.6-5.7
	c13-10.1,22.7-22.8,29.9-37.6C519.9,881.5,521.9,877,529.4,875.9z M59.8,461.7c3-1,5.6-2.3,8.4-2.7c1.7-0.2,3.7,1.1,5.5,1.7
	c-0.7,1.6-1,3.7-2.2,4.7c-4.9,4.1-9.8,8.1-15.2,11.6c-7.7,4.9-12.7,12-16.9,19.6c-4.2,7.6-7.4,15.9-11.6,23.5
	c-9.3,16.6-12.6,34.9-15,53.3c-1.3,10.2-0.7,20.7-0.3,31c0.4,8.4,1.8,16.8,2.9,25.3c0.5,3.9,0.6,8.1,2.1,11.7
	c4.9,11.6,8.1,24.2,16.3,34.3c1.6,2,2.5,4.7,3.9,6.9c5.5,9,9.2,19.1,17.4,26.4c4.2,3.7,9,6.8,12.5,11c10.1,11.8,23.3,19,36.7,26
	c5,2.6,7.4,1.4,10.1-3.7c2.6-4.8,5.6-9.5,8.8-14c3.6-4.9,7.5-9.6,11.4-14.3c3.2-3.9,6.1-8.1,9.8-11.5c13-11.6,26.7-22.4,39.5-34.2
	c10.7-9.9,24.3-14.8,36.6-22c10.3-6,21.2-10.8,32-15.8c4.3-2,6.3-5.2,5.7-9.4c-1.1-8.1-2.5-16.2-4.6-24.2c-1.3-5.2-3.8-6.2-9-4.5
	c-5.8,1.9-11.5,4.1-17,6.5c-12.6,5.5-25.1,11.1-37.6,16.9c-7.2,3.3-14,7.4-21.3,10.4c-7.3,3.1-11,1.6-15.5-5.1
	c-1.6-2.4-2.8-5.2-4.8-7.3c-8.4-9.3-10-20.8-10.1-32.6c-0.1-6.8,0.8-13.8,2.4-20.5c3.4-14.4,7.3-28.7,11.3-43c1-3.4,3.2-6.7,5.4-9.6
	c4.4-5.8,5.4-5.8,12-3.3c18.1,6.9,36.1,13.8,54.3,20.4c6.5,2.4,13.4,4.1,21.2,5.3c-1.5-6-2.6-10.9-4-15.7
	c-5.5-18.5-10.8-37.1-16.8-55.5c-3.2-9.8-7.6-19.1-11.4-28.7c-1-2.5-2.3-4.9-2.9-7.4c-2.1-10-6-19.2-11.1-27.9
	c-2-3.4-3.2-7.2-5-10.8c-6.1-12.3-8.3-26.3-16.6-37.7c-0.6-0.8-0.5-2.1-1-3c-5.2-10.5-11.1-20.5-18.9-29.3
	c-7.7-8.7-15.7-17.1-23.6-25.6c-3-3.2-6.2-6.2-9.4-9.4c-2.8,2-5.1,3.4-7.1,5.1c-8.4,6.8-17.5,13-23.5,22.3c-3,4.7-6.4,9.1-9.5,13.7
	C76,332.2,67.9,343.9,63.9,358c-1.6,5.8-3.9,11.5-6,17.2c-7.6,20.4-13.3,40.9-7.7,62.9C52.3,446.3,54.2,454.5,59.8,461.7z
	 M320,128.5c-0.2,2.1-0.6,3-0.3,3.6c2.8,5.7,5.6,11.4,8.6,17c1.7,3.3,3.9,6.3,5.5,9.6c3.4,6.9,6,14.3,10,20.8
	c4.7,7.6,5.5,15.9,6.3,24.3c0.1,1.4-1.3,2.9-2.6,5.4c-4.9-7.3-11.3-8.2-18.1-7.9c-13.6,0.5-26.8-1.8-40.1-4.8
	c-5.6-1.3-11.8-3.1-18.7-0.5c1.6,4.5,2.8,8.8,4.6,12.8c7.8,17,13.5,34.6,15.3,53.3c0.7,7.2,2.5,12.8,9.5,15.9
	c1.1,0.5,1.9,1.8,2.9,2.6c5.9,4.9,11.5,10.2,17.8,14.7c7.6,5.3,16.4,8.1,25.6,6.6c6.4-1.1,13.7-2.6,18.4-6.5
	c9.6-7.8,17.8-17.3,26.5-26.2c1.6-1.7,2.7-4,4.6-5.3c16-11.2,33.8-16.3,53.2-14.8c11.1,0.9,22.1,2.3,33.1,4.2
	c21.2,3.7,42,9,60.5,20.9c0.6,0.4,1.5,0.3,2,0.4c14.8-9.7,30-16.8,47.9-18.2c17-1.3,17.1-2,18.8-19.6c1.5-15.3,5.4-30.1,14.2-42.5
	c11.6-16.2,20.2-34.1,32.7-49.8c11.5-14.5,23.6-27.8,39.2-37.7c0.8-0.5,1.2-1.5,1.9-2.4c-1-0.7-1.6-1.5-2.2-1.5
	c-7.6-0.1-15.1-1-22.8,0.4c-14.9,2.8-29.4,7.2-43.3,12.9c-9.5,3.9-18.1,9.7-26.9,15.1c-2,1.2-3.4,3.9-4.6,6.2
	c-6,12.2-11.1,24.6-12,38.4c-0.1,1.4-1.6,2.7-3.1,5.1c-3.3-6.1-5.9-10.6-5.2-16.6c2.2-19.7,6.9-38.6,15.7-56.4
	c4.4-8.9,9.5-17.6,14.7-27.2c-5.7,0.4-9.2,3.3-12.9,5.7c-5.1,3.2-10.3,6.4-15.4,9.6c-2,1.3-4,2.7-5.7,4.3
	c-5.9,5.6-11.7,11.4-17.6,17c-11.1,10.6-21.6,21.7-30.7,34.1c-1.4,1.9-3.3,3.4-5.3,4.7c-1.1,0.7-3.4,1-4.1,0.4
	c-0.8-0.7-1.1-3-0.6-4.2c1.6-3.6,3.9-6.9,5.6-10.4c4.6-9.4,9.7-18.4,10.7-29.5c2-21.7,5.9-43.1,14.8-63.3c1.1-2.5,1.5-5.3,2.2-8
	c-1.3-0.2-1.7-0.3-1.9-0.2c-18.9,11.9-33.5,28.2-46.4,46.1c-0.3,0.4-0.3,1-0.6,1.5c-4.5,7.8-8.5,15.9-13.5,23.4
	c-12.1,18.3-20.9,38.1-27.5,58.8c-1.4,4.4-4,8.2-9.6,10.4c2.6-11.2,5.1-21.4,7.3-31.6c2.1-9.8,4.8-19.5,3.4-29.7
	c-1.6-11.8-3.5-23.6-5.1-35.4c-0.7-5.3-1-10.6-1.2-15.9c-0.4-11.1-0.5-22.3-0.8-33.4c0-0.9-0.8-1.7-1.5-3.2
	c-1.8,1.5-3.5,2.4-4.5,3.8c-9.9,13.8-19.8,27.5-26.6,43.2c-3.5,8-8.2,15.5-11.4,23.6c-6.9,17.8-12.1,36.2-15.9,54.9
	c-1.8,8.8-3.6,17.7-5.3,26.5c-1.1,5.5-2.2,6.5-6,6.8c-3-5.1-5.3-10.2-8.6-14.3c-5.6-7-12.3-13.1-18-20
	C346.9,144.4,333.4,137.6,320,128.5z M471,496.4c0,0.1,0,0.1,0,0.2c5.6,0,11.2,0.4,16.7-0.1c5.8-0.5,11.6-1.5,17.3-2.7
	c5.4-1.1,10.8-2.4,16.1-3.9c3.3-0.9,6.5-2.2,9.7-3.6c3.1-1.3,6.5-2.5,9.1-4.5c17.6-13.5,30.8-30.4,38.5-51.5
	c2.3-6.2,5.7-12.3,6.4-18.7c1.4-13.4,1.4-26.9,1.8-40.4c0.2-5.3,0.3-10.6-0.4-15.8c-1.3-9.8-4-19.2-10-27.3
	c-1.9-2.5-2.9-5.7-4.6-8.3c-4.9-7.5-9.4-15.5-15.2-22.2c-4.8-5.5-10.4-10.2-16.4-14.8c-9.3-7.1-19.4-12.1-30.1-15.7
	c-19.9-6.6-40.3-10.5-61.6-10.8c-18.9-0.2-33.7,8-48.1,18c-5.6,3.9-10.3,9.1-15.7,13.3c-8.6,6.7-15.1,14.7-19,24.9
	c-2.1,5.4-3.8,11-6.4,16.2c-6.2,12.3-7.1,25.3-5.7,38.7c0.5,4.7,0.4,9.6,1.1,14.3c1.8,12.3,2.5,25,6.1,36.8
	c6.7,22,19.9,40.2,37.3,55.3c2.4,2.1,5,4.1,7.8,5.4c7.5,3.4,15.1,6.5,22.7,9.3c11.2,4.2,22.5,8,34.7,7.7
	C465.7,496.3,468.3,496.4,471,496.4z M904.4,1022.1c-0.2-15.5-2.7-30.6-7.2-45.4c-1.5-4.8-2.9-9.7-3.4-14.7
	c-1.2-14-4.1-27.7-7.9-41.3c-1.4-5.1-2.8-10.2-4.4-15.3c-6.3-19.7-8.7-40.5-17.5-59.4c-1-2.1-1.3-4.6-1.5-7
	c-2.7-25.1-12.5-48.2-20.7-71.7c-1.1-3.2-3.9-6.1-4.2-9.3c-1.1-9-5.5-16.5-9.4-24.3c-2.7-5.4-5.2-11.1-6.5-17
	c-2.7-12.4-4.4-25-6.7-37.6c-0.4-2.3-0.6-5.3-2.1-6.5c-6.4-5.3-13.4-9.7-22-10.1c-4.4-0.2-6.3,1.3-7.1,5.8
	c-2.3,14.9-5,29.8-6.5,44.8c-2.8,27.1-8.3,53.4-20,78.1c-2.2,4.5-4.9,9-6.2,13.7c-4.2,15.6-11.2,30.5-12.6,46.7
	c-1.1,12.4-3.3,24.9-2.3,37.2c1.4,18.4,5.2,36.7,8,55c0.2,1,0.9,1.9,1.1,3c2.8,11.5,6,23,8.2,34.7c2.2,11.4,3.5,23,5.2,34.5
	c0.4,2.9,0.9,5.7,1.1,8.6c0.6,7.5,4,13.3,10.6,16.6c20.8,10.5,43,15.2,66.1,14.9c19.6-0.3,38.2-5.5,56.4-12.3
	c12-4.5,12.1-4.7,11.6-17.9C904.6,1024.8,904.5,1023.5,904.4,1022.1z M375.3,664.9c-0.5-3.8-0.6-6.7-1.2-9.4
	c-3.8-17.6-9.8-34.6-13.2-52.2c-1.8-9.6-4.6-19.1-7.4-28.5c-3-9.9-6.5-19.6-9.9-29.3c-3.1-9-7-17.8-9.6-27
	c-8.8-30.3-17.1-60.7-25.6-91.1c-0.4-1.5-1-3-1.6-4.5c-2.7-6.8-5.3-13.7-8-20.5c-3.9-10-7.9-19.9-12.5-31.3
	c-3.4,7.1-6.1,12.7-8.7,18.4c-3.7,8.1-10.6,11.2-18.8,10.6c-5.3-0.4-11.2-2-15.6-5c-8-5.5-15.4-12.2-22.4-19
	c-6.9-6.6-12.5-14.4-15.5-23.8c-1-3-2.4-5.9-3.7-8.8c-5.8-12.5-1.3-29,9.7-36.2c10-6.5,19.9-13.1,29.9-19.6c2.2-1.4,4-3.2,2.6-5.9
	c-3.8-7.5-7.3-15.3-11.9-22.3c-2.2-3.3-5.9-5.5-7.5-9.8c-0.8-2.2-4.2-3.8-6.8-4.8c-7.3-2.9-14.6-2.8-22.5-1.6
	c-14.6,2.1-28.6,5.7-41.9,11.9c-7.5,3.5-15.4,6.9-21,13.9c1.1,1.6,1.9,3,2.9,4.2c5.1,6.1,10,12.3,15.3,18.2
	c7.7,8.5,14.2,17.7,20,27.6c9.2,15.8,18.9,31.3,27.2,47.5c7.1,13.9,12.8,28.5,18.6,43c9.9,24.6,17.7,49.9,24.8,75.5
	c3.9,14,8.5,27.9,12.4,41.9c1.7,6.3,5.2,9.8,11.6,11.4c14.4,3.5,28.7,7.5,41.5,15.5c2.4,1.5,5.8,1.6,8,3.3c2.6,1.9,5.6,4.6,6.3,7.5
	c0.8,3.6-1.6,7.4-5.3,8.9c-3.3,1.4-7,2.2-10.6,2.9c-5.4,1.1-10.9,1.8-16.4,2.6c-2.1,0.3-4.2,0.5-6.3,0.9c-3.3,0.6-6.7,1.4-10,2.1
	c-3.8,0.7-5.4,3-5.1,6.8c1,11.1,1.9,22.2,3.1,33.2c0.3,2.6,2.1,5.1,1.8,7.5c-1,8.4,0.7,16.3,2.4,24.4c1.3,6.2,2.3,12.6,2.2,18.9
	c-0.1,11.1-1.1,22.2-1.6,33.3c-0.7,16.4-1.6,32.9-2,49.3c-0.2,9.2,0.3,9.9,9.7,10.9c6.2,0.7,12.6-0.6,18.9-0.4
	c18.2,0.4,36.5-1.1,54.6,2.7c1.8,0.4,3.7,0.2,5.6,0c5.3-0.4,10.6-0.8,15.8-1.5c3.9-0.5,7.9-1.3,11.8-2.1c3-0.6,4.7-2.5,4.4-5.7
	c-0.3-2.2-1-4.4-1.4-6.4c-10.2,1.4-19.7,2.7-29.1,4.1c-10.6,1.6-19.3-2.1-26.5-9.7c-19.1-20.3-20.5-62.7,11.5-79.4
	c2.4-1.3,5.4-1.9,8.2-2.2C362.5,665.6,368.5,665.4,375.3,664.9z M672.6,989c9.7-1.5,19.3-3.5,29-4.4c9.5-0.9,17.9-4.5,26.4-8.3
	c3.3-1.5,6.2-4,9.3-6.1c2.7-1.9,3.6-4.5,3-7.7c-2-10.4-3.5-21-6.2-31.2c-6-22.8-8.7-45.8-6.2-69.3c1.1-10.5,2.6-21.1,3.1-31.6
	c0.3-7,1.5-13.6,3.9-20.2c3.3-9.2,6.6-18.5,9.6-27.8c0.9-2.9,1.4-6.4,0.6-9.3c-2.4-9.8-5-19.5-10.4-28.2c-2.2-3.6-5.2-6.8-6.9-10.6
	c-4.2-9.4-10.6-17-16.9-24.9c-7.4-9.3-13.1-19.4-10.7-32.1c0.5-2.5,0-5.3-0.1-7.9c-0.3-12.9-0.9-25.9-0.9-38.8
	c0-7.1,1.3-14.3,1.6-21.4c0.2-5.1-1.3-6.6-6.4-7.1c-3.9-0.4-7.9-0.4-11.9-0.7c-10.2-0.7-14.2,1.8-16.6,11.7c-3,12.6-5.5,25.3-8,38.1
	c-1.2,6-1.5,12.1-2.5,18.1c-1.3,8.1-3.4,16.1-4.3,24.2c-1.8,16.1-7,30.8-15.4,44.7c-6.3,10.3-13.4,20.7-17.1,32
	c-5.3,16-9.4,32.8-11.1,49.5c-1.9,18.6-0.9,37.5-0.8,56.3c0.1,8.7,1.5,17.4,1.9,26.1c0.3,6.1-0.4,12.2,0,18.3
	c0.9,13.1,2.3,26.3,3.5,39.4c0.1,0.8,0.4,1.7,0.9,2.2c6.7,5.6,11.4,13.5,19.7,17C645.2,984.2,658.1,989.3,672.6,989z M642.4,508.7
	c-7.5,4.3-13.4,7.5-19.2,11c-3.6,2.1-7,4.9-10.8,6.7c-12,5.6-24.1,11.1-36.3,16.2c-15.4,6.3-31.2,10.6-47.8,4.2
	c-1-0.4-2.1-0.4-3.1-0.6c-8.7-2.3-17.5-4.2-26-7c-8.8-2.9-17.3-6.6-25.8-10.3c-8-3.5-15.9-7.2-23.6-11.3c-6.1-3.2-12-6.8-17.8-10.5
	c-11.8-7.5-24.7-14-35-23.2c-11.5-10.3-22-21.9-30-35.7c-8.8-15.4-15.2-31.5-19.2-48.4c-2.2-9.4-2.1-19.5-2.5-29.3
	c-0.4-11.4,0.5-22.8,3.1-33.9c1.1-4.5-0.1-6.2-4.4-6.5c-5.5-0.3-11.3-0.9-16.6,0.4c-11.2,2.6-21.4,7.8-30,15.7
	c-4.2,3.8-6,8.4-4,14.3c3.2,9.3,6,18.7,9.1,28c6.3,18.9,12.7,37.7,18.9,56.5c2,6,3.4,12.3,5.2,18.3c1.9,6.3,4.2,12.5,6.1,18.8
	c6.2,20.5,12,41.1,18.7,61.5c6,18.3,12.7,36.5,17.2,55.3c3.5,14.5,2.5,13.3,18.4,12.6c0.3,0,0.5-0.1,0.8-0.1
	c26.7-4.1,53.5-3.7,80.2-1.4c19,1.6,37.9,4.5,56.8,6.9c11.8,1.5,23.6,3.5,35.4,5.1c7,0.9,14.1,1,21.1,3.1
	c12.4,3.6,25.2,5.5,38.3,8.2c1.1-3.2,2-5.7,2.7-8.2c2.7-9.2,4.8-18.6,8.1-27.5c3.8-10.2,6.6-20.5,8.7-31.2
	c2.8-14.1,3.1-28.4,4.1-42.7C643.5,519.4,642.8,515.2,642.4,508.7z M799.2,331.5c0.1,0,0.2,0,0.3,0c0,4.5,0,9,0,13.5
	c0,17.1,1.7,33.9,7.9,49.9c2.6,6.6,6.1,12.9,8.5,19.6c4.2,11.4,10.1,21.4,19.9,29.1c6.2,4.8,12.5,10.4,16.4,17.1
	c5.1,8.6,8.2,18.3,11.4,27.9c2.4,7.3,3.6,15,5,22.5c0.8,4.4,1,8.9,1.5,13.4c0.7,6.6,1.5,13.2,2.2,19.8c0.3,2.7,1.7,4.6,4.5,4.7
	c5.5,0.1,11.1,0.2,16.6-0.3c4.2-0.4,6.7-3.1,6.4-7.6c-0.5-11.1-0.9-22.2-1.7-33.3c-0.1-1.9-1.5-4-2.9-5.5
	c-3.2-3.5-6.8-6.7-10.1-10.1c-1.8-1.9-3.7-3.8-5.1-6c-2.5-3.8-2-5.5,2.1-7.5c4.5-2.2,9.2-4.2,14-5.7c4-1.2,6.1-3.3,7.1-7.5
	c2.5-10.4,6.5-20.1,13-28.8c3.5-4.6,6.2-10,8.2-15.4c3.2-9,5.8-18.2,8.1-27.4c1.6-6.4,2.9-12.9,3.4-19.5c0.4-5.5-0.6-11.1-0.8-16.6
	c-0.4-9.8-0.1-19.6-0.9-29.4c-1.8-21.9-3.9-43.9-6.2-65.8c-0.6-6-2.4-11.9-4-17.8c-0.5-1.8-2-4-3.7-4.7c-6.3-2.8-12.7-5.2-19.9-4.9
	c-4.8,0.2-9.5,0-14.3-0.2c-7.9-0.4-15.9-1-23.8-1.3c-7.5-0.3-14.8,0.9-21.5,4.7c-7.4,4.1-14.9,7.9-21.9,12.6c-3.6,2.4-7.3,6-8.9,9.9
	c-5.9,13.6-10.3,27.8-10.9,42.8C798.9,312.9,799.2,322.2,799.2,331.5z M951.3,653c0.3,0,0.5,0,0.8,0c-0.4-4.5-0.5-9-1.4-13.4
	c-1.4-6.8-4.5-9.6-11.3-10.3c-4.5-0.4-9-0.5-13.5-0.1c-7,0.7-9.7,3.7-12,10.8c-4.3,13.7-3.4,27.9-3.2,41.8c0.3,21.2-2.1,42-8.8,61.8
	c-4.9,14.4-12.8,27.9-20.1,41.4c-8.8,16.2-13.8,32.5-6.7,50.7c2.2,5.7,4.3,11.4,6.4,17.1c2.3,5.9,4.6,11.8,6.9,17.7
	c2,5.1,3.9,10.3,6,15.4c3.6,9.1,7.9,18,10.5,27.3c3.3,12.2,7.1,24.5,7,37.4c0,1.3,0.7,2.5,0.9,3.8c2.4,13.3,5.1,26.6,4.2,40.2
	c-0.3,4.2,0.3,8.4,0.3,12.6c0,4.5,2.6,6.3,6.5,7.8c8.1,3.2,15.9,1.2,23.3-1.5c9.2-3.4,17.7-8.5,26.9-11.8c6.5-2.4,9.3-6.6,10-12.9
	c1.5-13.2,3.5-26.3,4.4-39.5c0.9-14,0.2-28.1,1.1-42.1c1.5-21.5,2-42.6-3.7-63.9c-4.1-15.2-8.3-30.2-14.2-44.6
	c-9.4-23.2-15.6-47.2-21.2-71.4c-1-4.3-1.8-8.9-1.7-13.3C949.4,693.7,950.4,673.3,951.3,653z M549.3,278.9c3.1,3.1,5.8,5.5,8.3,8.1
	c3.3,3.4,7,6.6,9.6,10.5c5.9,8.8,11.5,17.8,16.7,27c9.9,17.7,15.3,36.5,13.1,57.1c-0.4,3.9-0.1,7.9-0.1,11.9c0,11.9,1,23.9-0.3,35.6
	c-1.1,9.5-2.1,19.6-10.4,26.8c-3.2,2.7-2.2,6.7,0.6,9.2c3.3,2.9,7.1,5.7,11.2,7.4c19.3,7.9,39.2,8.4,59.3,3.1
	c12-3.2,23-8.1,30.8-18.3c9.2-11.9,19.3-23.5,23.3-38.4c2.1-7.8,4.1-16.1,3.7-24.1c-1.3-29.1-10.6-56.1-24.1-81.7
	c-1-1.9-2.2-3.7-3.6-5.2c-8-8-14.2-17.9-24.8-23.1c-1.4-0.7-2.4-2.1-3.7-3C646,273,633.2,264.6,617,262c-22-3.5-42.1,1.1-61.3,11.2
	C553.5,274.4,551.8,276.7,549.3,278.9z M722.5,700.9c1.2-20,6-39.3,3.5-59.4c-2.3-18.6-2.3-37.5-2.8-56.3
	c-0.5-16.7-0.8-33.4-0.3-50.1c0.4-14.8,2-29.6,2.8-44.4c0.2-4.2-0.3-8.5-1.3-12.6c-0.7-3-2.2-6.3-4.4-8.2c-4.2-3.6-8.9-6.6-13.8-9.3
	c-6.3-3.6-7.5-3.1-11.8,2.7c-2.8,3.9-5.1,8.2-8.4,11.5c-6.2,6.1-13,11.6-19.7,17.2c-3.5,2.9-7.4,5.4-8.2,10.3
	c-2.4,14.3-5,28.7-6.9,43.1c-2.3,17.7-4.3,35.3-12.3,51.6c-2.2,4.5-3.9,9.3-5.1,14.1c-4,16.5-7.5,33-13.5,48.9
	c-5.6,14.9-11.1,29.8-16.6,44.7c-0.2,0.5-0.5,0.9-0.7,1.4c-3.2,9.2-6.4,18.4-9.5,27.7c-3.3,9.9-0.8,17.6,8.7,22.7
	c0.7,0.4,1.3,0.9,2,1.3c5.1,3.2,7.1,2.7,10.2-2.6c6.3-11,12.5-22.1,18.7-33.3c0.9-1.6,1.7-3.4,2.1-5.1c3.1-12.1,6.2-24.1,9-36.2
	c2-8.5,3.6-17,3.6-25.9c0-17.3,3.8-34.1,9.6-50.4c1.7-4.7,4.4-8.8,9.5-9.9c11.5-2.5,23.1-3.1,34.5,1c4.7,1.7,6.8,4.8,6.6,9.6
	c-0.2,5.3-0.8,10.6-0.7,15.9c0.3,17.7,0.4,35.5,1.5,53.2C709.5,684.4,714.7,693.3,722.5,700.9z M735.4,488.3c-0.4,1.9-0.9,3.6-1,5.3
	c-0.8,12.2-1.9,24.4-2.3,36.5c-0.4,15.6-0.5,31.2-0.2,46.8c0.4,17.5,1.5,35,2.1,52.5c0.4,10.3,0.3,20.7,0.6,31
	c0.1,3.2,0.1,6.5,3.3,8.5c9.7,6.2,20.1,10.3,31.3,12.2c3.5-5.5,3.5-5.5,4.7-13.9c1.5-10.5,6.3-14,16.9-13.2c9,0.7,17,4.5,24.6,8.5
	c4.7,2.5,8.3,6.9,8.4,13.4c0.1,6.6,1.6,13.1,2.7,19.7c0.8,4.9,3,9,7.6,11.5c4.6,2.5,9.2,5.3,13.8,7.8c1.8,0.9,3.8,1.3,6.8,2.3
	c0.9-8.6,2.1-16.4,2.3-24.2c0.4-14.1-5.1-27-9.3-40.1c-3-9.3-7.8-17.3-16.7-22.4c-2.5-1.4-4.4-3.8-6.5-5.8
	c-6.1-5.8-13.1-9.7-21.9-10.1c-1.2,2.2-2.1,4.4-3.5,6.2c-2.1,2.6-5.9,1.9-7-1.2c-0.5-1.4-0.6-3.1-0.5-4.7
	c1.1-13.5-2.1-26.4-5.2-39.3c-4-17-9-33.8-17.7-49.2c-4.4-7.8-8.1-16-15.6-21.7c-3.7-2.8-6.4-7-9.3-10.7
	C741.8,491.3,739.9,488.4,735.4,488.3z M337.5,707.1c0.4,16.7,7.1,27.2,22.1,34.4c1.7,0.8,3.3,1.7,5.1,2.3
	c12.9,4.7,26.7-0.4,33.3-12.3c1.4-2.5,3-5,4.1-7.7c2.3-5.4,4.4-11,2.1-16.9c-4.1-10.4-8.6-20.6-19.3-26.2c-1.9-1-3.8-2-5.5-3.2
	c-7-5-14.4-4.7-21.9-1.8C343.9,680.9,337.9,693.2,337.5,707.1z M755.6,754.5c6.3-7.8,8.8-15.8,10.3-24c1.6-8.5,2.4-17.2,3.9-25.8
	c1.6-9.7,1.6-10-7.8-14.1c-0.7-0.3-1.4-0.8-2.1-1.1c-7.7-2.7-15.5-4.3-24-5.2c-1.7,7.4-3.3,14.1-4.8,20.8
	c-1.3,5.5,0.2,10.1,3.6,14.8c4.7,6.6,8.6,13.8,12.8,20.8C749.9,744.9,752.4,749.2,755.6,754.5z M239.6,246.2
	c1.7,8.1,12.4,29,16.4,32.6c8.9-3.9,17.8-7.9,26.5-11.8c-2.5-8.3-7.7-12.4-14.4-14.6c-3.8-1.2-7.6-2.3-11.5-3.1
	C251.1,248.1,245.6,247.2,239.6,246.2z M843.7,745.2c2.1-2,3.3-2.8,4.2-4c6.9-9.6,6.5-12-2.8-19.3c-3.3-2.5-6.8-4.4-12.3-3.3
	C836.5,727.6,839.9,736,843.7,745.2z"/>
<path fill-rule="evenodd" clip-rule="evenodd" d="M891.8,578.2c1.6,1.2,1.9,1.3,2,1.5c1.8,11.3,6.3,22.2,6.5,33.8
	c0.1,8.6-4.6,14-11.6,17.4c-6.4,3.1-13.2,3.7-19.7-0.4c-5.5-3.4-6.8-7.1-5.1-13.4c1.9-7.3,5.2-13.5,10.9-18.8
	c4.6-4.2,7.8-9.8,11.8-14.7C888.1,581.7,890,580,891.8,578.2z M888.3,592.2c-4.6,6-8.8,11.1-12.6,16.4c-1.3,1.9-2.3,4.3-2.7,6.6
	c-1.1,5.5,2.5,10,7.9,10.6c7.1,0.8,13.2-4,13.8-11.2C895.4,607,893.9,599.9,888.3,592.2z"/>
<path fill-rule="evenodd" clip-rule="evenodd" d="M452.4,15.4c-0.2-0.4-0.3-0.8-0.5-1.2c0.4-0.1,0.8-0.2,1.2-0.3
	c0.1,0,0.3,0.5,0.3,0.6C453.1,14.9,452.7,15.1,452.4,15.4z"/>
<path fill-rule="evenodd" clip-rule="evenodd" d="M225.4,1165.7c-0.3,0.4-0.4,0.9-0.8,1.1c-0.4,0.1-0.9-0.1-1.4-0.2
	c0.3-0.5,0.5-1.1,0.9-1.4C224.3,1165,225,1165.5,225.4,1165.7z"/>
<path fill-rule="evenodd" clip-rule="evenodd" fill="#FFFFFF" d="M529.4,875.9c-7.5,1.1-9.5,5.7-11.6,9.8
	c-7.2,14.8-16.9,27.5-29.9,37.6c-2.7,2.1-5.7,3.8-8.6,5.7c-3.8,2.4-7.5,4.8-11.3,7.3c-1.1,0.7-2,1.9-3.1,2.4
	c-14.7,6.1-27.2,16.2-42.4,21.7c-13.8,5-28.1,7.6-42.1,11.3c-11.7,3.1-23.6,2.7-35.4,3.9c-11.8,1.1-23.4,0.6-34.8-1.3
	c-8.8-1.4-17.4-4.4-26-6.8c-9.1-2.6-18.2-5.4-27.3-8.2c-3.3-1-6.7-1.6-9.8-2.9c-13.7-5.6-27.2-11.9-41.1-16.9
	c-10.4-3.8-19.6-9-28.1-16.1c-11.6-9.7-20.4-21.4-25.9-35.5c-0.8-2-1.2-4.2-2.5-5.8c-8.8-10.9-11.3-24.4-15.8-37.1
	c-5.6-15.7-7.1-32.1-7.6-48.5c-0.3-9.1,1.7-18.4,3.1-27.5c1.4-8.9,3.2-17.7,5-26.5c0.4-2,1.1-4.2,2.2-5.8c8-10.9,16-21.8,24.3-32.5
	c9.9-12.7,23-21.9,35.8-31.3c5.9-4.3,12.6-7.7,18.9-11.5c3.9-2.3,7.7-4.7,11.6-6.9c4.6-2.6,9.4-4.8,14-7.4c3.2-1.8,6.2-3.9,9.3-5.9
	c5.7-3.7,7.9-3.1,9.5,3.5c4.9,19.9,8.8,39.9,6.3,60.6c-0.5,4.1,0.6,8.5,0.5,12.7c-0.2,12.7-0.7,25.4-1,38.1c0,0.8-0.3,1.6-0.2,2.4
	c0.6,12.5,1.8,15.9,14.7,17.1c8.9,0.8,18-0.3,27,0c15.6,0.4,31.3,0.9,46.9,1.9c13.5,0.9,26.4-1.6,39.2-5c7-1.8,9.1-5,9-12.1
	c0-1.3,0-2.7-0.3-4c-1.5-6.5-0.5-12.6,2.9-18.4c1.7-3,3.4-6,4.7-9.2c6.3-15.5,0.7-36.7-11.1-47.7c-3.7-3.4-7.6-6.5-11.2-10
	c-1.2-1.2-2.2-3-2.6-4.7c-3.2-14.5-6.3-29-9.3-43.6c-0.1-0.5,0.1-1,0.4-2.4c1.6-0.4,3.5-1.1,5.5-1.3c18.2-1.4,36.5-2.4,54.8-3.1
	c24.6-0.9,48.6,2.1,72.6,6.1c20.3,3.3,40.5,7.9,60.9,10.9c12.3,1.8,24.6,3.6,36.4,7.6c0.5,0.2,1.1,0.2,1.6,0.3
	c8.9,2.8,10.1,4.4,7,13.1c-3.7,10.5-8,20.8-12,31.1c-4.9,12.6-10.4,25-14.6,37.8c-2.5,7.7-3,16.1-4.2,24.2c-0.6,3.7,1.3,6.6,4.1,9
	c5.6,4.8,11.1,9.9,16.8,14.5c2.6,2.1,2.4,4.7,1.9,7.2c-1.3,6.5-2.7,13-4.3,19.4c-4.8,20-6,40.4-5.3,60.8c0.5,14.8,2.1,29.6,2.9,44.4
	c0.3,6.1-0.2,12.2-0.2,18.3c0,6.9-0.3,13.8,0.6,20.5c1.1,8.6-1.4,12.5-10.1,13.1c-6.2,0.4-12.1,0.2-18.1-0.9
	c-5.7-1-11.5-1.8-17.3-2.3c-7.5-0.7-13.3-4.9-19.7-8.2c-10.2-5.3-17.6-13.4-23.4-23.1c-2.4-4-2.4-7.4,1-10.7
	c7.3-7.3,11.4-16.6,15.6-25.7C529,881.6,528.9,879.2,529.4,875.9z M230.9,720.2c-3.4-3.5-6.2-3.8-9.2-1.5c-3.3,2.6-6.9,5-9.8,8.1
	c-10.5,11.1-20.8,22.5-31.2,33.7c-9.2,9.9-18.3,19.8-27.5,29.7c-5.5,5.9-7.7,12.2-3.8,20c2.5,4.9,6.2,5.8,9.8,1.8
	c1-1.2,1.9-2.6,2.5-4c3.1-7.2,8-13,13.3-18.6c3.2-3.5,5.8-7.5,8.7-11.3c6.3-8.5,12.1-17.4,18.9-25.5c7.3-8.7,15.5-16.6,23.1-25
	C227.7,725.3,229.2,722.6,230.9,720.2z"/>
<path fill-rule="evenodd" clip-rule="evenodd" fill="#FFFFFF" d="M59.8,461.7c-5.7-7.2-7.5-15.4-9.6-23.6c-5.6-22,0.1-42.5,7.7-62.9
	c2.1-5.7,4.4-11.4,6-17.2c3.9-14.1,12.1-25.8,20.2-37.5c3.2-4.6,6.5-9,9.5-13.7c6-9.4,15.1-15.5,23.5-22.3c2-1.7,4.3-3.1,7.1-5.1
	c3.1,3.1,6.4,6.1,9.4,9.4c7.9,8.5,15.9,17,23.6,25.6c7.8,8.7,13.7,18.8,18.9,29.3c0.5,0.9,0.4,2.2,1,3c8.3,11.3,10.5,25.4,16.6,37.7
	c1.8,3.5,3,7.4,5,10.8c5.1,8.8,9,18,11.1,27.9c0.5,2.6,1.9,4.9,2.9,7.4c3.8,9.6,8.2,18.9,11.4,28.7c6,18.4,11.3,37,16.8,55.5
	c1.4,4.8,2.5,9.7,4,15.7c-7.8-1.1-14.6-2.9-21.2-5.3c-18.2-6.6-36.2-13.5-54.3-20.4c-6.7-2.5-7.7-2.5-12,3.3
	c-2.2,2.9-4.4,6.2-5.4,9.6c-4.1,14.2-8,28.6-11.3,43c-1.6,6.7-2.4,13.7-2.4,20.5c0.1,11.7,1.7,23.2,10.1,32.6
	c1.9,2.1,3.1,4.9,4.8,7.3c4.4,6.7,8.1,8.2,15.5,5.1c7.3-3.1,14.1-7.1,21.3-10.4c12.5-5.8,25-11.4,37.6-16.9c5.6-2.4,11.2-4.7,17-6.5
	c5.2-1.7,7.7-0.7,9,4.5c2,7.9,3.5,16,4.6,24.2c0.6,4.2-1.5,7.4-5.7,9.4c-10.8,5-21.8,9.8-32,15.8c-12.3,7.2-25.8,12.1-36.6,22
	c-12.8,11.8-26.5,22.7-39.5,34.2c-3.7,3.3-6.6,7.6-9.8,11.5c-3.9,4.7-7.8,9.4-11.4,14.3c-3.2,4.5-6.2,9.1-8.8,14
	c-2.7,5-5.1,6.3-10.1,3.7c-13.4-7-26.6-14.2-36.7-26c-3.6-4.2-8.4-7.3-12.5-11c-8.1-7.2-11.9-17.4-17.4-26.4
	c-1.4-2.3-2.2-4.9-3.9-6.9c-8.3-10.1-11.4-22.6-16.3-34.3c-1.5-3.6-1.6-7.8-2.1-11.7c-1.1-8.4-2.5-16.8-2.9-25.3
	c-0.5-10.3-1-20.8,0.3-31c2.3-18.4,5.7-36.7,15-53.3c4.3-7.6,7.4-15.9,11.6-23.5c4.2-7.6,9.2-14.7,16.9-19.6
	c5.3-3.4,10.3-7.5,15.2-11.6c1.2-1,1.5-3.1,2.2-4.7c-1.8-0.6-3.8-1.9-5.5-1.7C65.5,459.4,62.8,460.7,59.8,461.7z"/>
<path fill-rule="evenodd" clip-rule="evenodd" fill="#FFFFFF" d="M320,128.5c13.4,9.1,26.9,15.9,36.8,27.8c5.8,6.9,12.4,13,18,20
	c3.4,4.1,5.6,9.2,8.6,14.3c3.8-0.2,4.9-1.3,6-6.8c1.8-8.8,3.5-17.7,5.3-26.5c3.8-18.7,9-37.1,15.9-54.9c3.1-8.1,7.9-15.6,11.4-23.6
	c6.8-15.7,16.7-29.4,26.6-43.2c1-1.4,2.7-2.3,4.5-3.8c0.7,1.5,1.5,2.3,1.5,3.2c0.3,11.1,0.5,22.3,0.8,33.4
	c0.2,5.3,0.5,10.6,1.2,15.9c1.6,11.8,3.5,23.6,5.1,35.4c1.4,10.2-1.3,19.9-3.4,29.7c-2.2,10.3-4.7,20.4-7.3,31.6
	c5.6-2.2,8.2-5.9,9.6-10.4c6.7-20.8,15.4-40.6,27.5-58.8c5-7.5,9-15.6,13.5-23.4c0.3-0.5,0.3-1,0.6-1.5
	c12.9-17.9,27.4-34.3,46.4-46.1c0.2-0.1,0.5,0.1,1.9,0.2c-0.7,2.7-1.2,5.5-2.2,8c-8.9,20.2-12.8,41.6-14.8,63.3
	c-1,11.1-6.1,20.1-10.7,29.5c-1.7,3.5-4,6.8-5.6,10.4c-0.5,1.1-0.2,3.5,0.6,4.2c0.8,0.7,3,0.3,4.1-0.4c2-1.2,3.9-2.8,5.3-4.7
	c9.1-12.4,19.7-23.5,30.7-34.1c5.9-5.7,11.7-11.4,17.6-17c1.7-1.6,3.7-3,5.7-4.3c5.1-3.3,10.3-6.4,15.4-9.6
	c3.7-2.3,7.1-5.3,12.9-5.7c-5.2,9.7-10.3,18.3-14.7,27.2c-8.8,17.8-13.5,36.7-15.7,56.4c-0.7,6,2,10.6,5.2,16.6
	c1.5-2.4,3-3.7,3.1-5.1c0.9-13.8,6-26.3,12-38.4c1.1-2.3,2.5-5,4.6-6.2c8.8-5.4,17.5-11.2,26.9-15.1c13.9-5.7,28.4-10.1,43.3-12.9
	c7.7-1.5,15.2-0.5,22.8-0.4c0.6,0,1.2,0.8,2.2,1.5c-0.7,0.9-1.1,1.9-1.9,2.4c-15.6,9.9-27.7,23.2-39.2,37.7
	c-12.4,15.7-21.1,33.6-32.7,49.8c-8.9,12.4-12.8,27.2-14.2,42.5c-1.7,17.6-1.8,18.3-18.8,19.6c-17.9,1.4-33.1,8.5-47.9,18.2
	c-0.5-0.1-1.4,0-2-0.4c-18.5-11.9-39.2-17.2-60.5-20.9c-10.9-1.9-22-3.3-33.1-4.2c-19.4-1.5-37.3,3.5-53.2,14.8
	c-1.9,1.3-2.9,3.7-4.6,5.3c-8.7,8.9-16.9,18.4-26.5,26.2c-4.8,3.9-12,5.4-18.4,6.5c-9.2,1.5-18-1.2-25.6-6.6
	c-6.3-4.4-11.9-9.7-17.8-14.7c-1-0.8-1.8-2.1-2.9-2.6c-7-3.1-8.8-8.7-9.5-15.9c-1.9-18.6-7.5-36.3-15.3-53.3c-1.8-4-3-8.3-4.6-12.8
	c7-2.6,13.1-0.8,18.7,0.5c13.3,3,26.5,5.3,40.1,4.8c6.7-0.3,13.2,0.7,18.1,7.9c1.3-2.5,2.7-4,2.6-5.4c-0.8-8.4-1.6-16.7-6.3-24.3
	c-4-6.5-6.6-13.9-10-20.8c-1.6-3.3-3.8-6.3-5.5-9.6c-3-5.6-5.8-11.3-8.6-17C319.4,131.5,319.8,130.6,320,128.5z"/>
<path fill-rule="evenodd" clip-rule="evenodd" fill="#FFFFFF" d="M471,496.4c-2.6,0-5.3-0.1-7.9,0c-12.2,0.3-23.5-3.5-34.7-7.7
	c-7.7-2.9-15.3-6-22.7-9.3c-2.8-1.3-5.4-3.3-7.8-5.4c-17.3-15.1-30.6-33.3-37.3-55.3c-3.6-11.8-4.3-24.5-6.1-36.8
	c-0.7-4.7-0.6-9.5-1.1-14.3c-1.4-13.4-0.5-26.4,5.7-38.7c2.6-5.2,4.4-10.8,6.4-16.2c3.9-10.2,10.4-18.3,19-24.9
	c5.4-4.2,10.1-9.4,15.7-13.3c14.4-10.1,29.2-18.2,48.1-18c21.3,0.2,41.7,4.2,61.6,10.8c10.6,3.5,20.8,8.6,30.1,15.7
	c5.9,4.6,11.6,9.3,16.4,14.8c5.9,6.7,10.3,14.7,15.2,22.2c1.7,2.7,2.7,5.8,4.6,8.3c6.1,8.1,8.7,17.5,10,27.3
	c0.7,5.2,0.6,10.5,0.4,15.8c-0.4,13.5-0.4,27-1.8,40.4c-0.7,6.4-4.2,12.5-6.4,18.7c-7.7,21-20.9,37.9-38.5,51.5
	c-2.6,2-6,3.2-9.1,4.5c-3.2,1.4-6.4,2.7-9.7,3.6c-5.3,1.5-10.7,2.8-16.1,3.9c-5.7,1.1-11.5,2.2-17.3,2.7c-5.5,0.4-11.1,0.1-16.7,0.1
	C471,496.5,471,496.4,471,496.4z"/>
<path fill-rule="evenodd" clip-rule="evenodd" fill="#FFFFFF" d="M904.4,1022.1c0.1,1.3,0.1,2.7,0.2,4c0.5,13.2,0.4,13.4-11.6,17.9
	c-18.2,6.8-36.8,12-56.4,12.3c-23.1,0.3-45.3-4.4-66.1-14.9c-6.6-3.3-10.1-9.1-10.6-16.6c-0.2-2.9-0.7-5.8-1.1-8.6
	c-1.7-11.5-3-23.1-5.2-34.5c-2.3-11.7-5.4-23.1-8.2-34.7c-0.2-1-1-1.9-1.1-3c-2.8-18.3-6.6-36.6-8-55c-1-12.3,1.2-24.8,2.3-37.2
	c1.5-16.3,8.5-31.1,12.6-46.7c1.3-4.8,4-9.2,6.2-13.7c11.8-24.7,17.2-51.1,20-78.1c1.6-15,4.2-29.9,6.5-44.8c0.7-4.6,2.6-6,7.1-5.8
	c8.7,0.4,15.7,4.8,22,10.1c1.5,1.2,1.7,4.3,2.1,6.5c2.2,12.5,4,25.1,6.7,37.6c1.3,5.9,3.8,11.6,6.5,17c3.9,7.8,8.4,15.3,9.4,24.3
	c0.4,3.2,3.1,6.1,4.2,9.3c8.2,23.5,18,46.6,20.7,71.7c0.3,2.4,0.5,4.9,1.5,7c8.9,18.9,11.3,39.7,17.5,59.4c1.6,5,3,10.2,4.4,15.3
	c3.7,13.5,6.6,27.2,7.9,41.3c0.4,5,1.9,9.9,3.4,14.7C901.8,991.5,904.2,1006.7,904.4,1022.1z"/>
<path fill-rule="evenodd" clip-rule="evenodd" fill="#FFFFFF" d="M375.3,664.9c-6.8,0.5-12.9,0.7-18.8,1.3c-2.8,0.3-5.7,0.9-8.2,2.2
	c-32.1,16.7-30.6,59.1-11.5,79.4c7.2,7.6,15.9,11.3,26.5,9.7c9.4-1.4,18.9-2.7,29.1-4.1c0.4,1.9,1.2,4.1,1.4,6.4
	c0.3,3.1-1.3,5.1-4.4,5.7c-3.9,0.8-7.8,1.6-11.8,2.1c-5.2,0.7-10.5,1.1-15.8,1.5c-1.8,0.1-3.8,0.3-5.6,0
	c-18.1-3.7-36.4-2.2-54.6-2.7c-6.3-0.2-12.7,1.1-18.9,0.4c-9.4-1.1-9.9-1.7-9.7-10.9c0.4-16.4,1.2-32.9,2-49.3
	c0.5-11.1,1.5-22.2,1.6-33.3c0-6.3-1-12.7-2.2-18.9c-1.6-8.1-3.4-16-2.4-24.4c0.3-2.4-1.5-5-1.8-7.5c-1.1-11.1-2.1-22.2-3.1-33.2
	c-0.4-3.8,1.3-6,5.1-6.8c3.3-0.6,6.7-1.4,10-2.1c2.1-0.4,4.2-0.6,6.3-0.9c5.5-0.8,11-1.6,16.4-2.6c3.6-0.7,7.2-1.5,10.6-2.9
	c3.7-1.6,6.1-5.3,5.3-8.9c-0.7-2.9-3.7-5.6-6.3-7.5c-2.2-1.7-5.6-1.8-8-3.3c-12.8-8-27.1-12-41.5-15.5c-6.5-1.6-9.9-5.1-11.6-11.4
	c-3.9-14-8.4-27.9-12.4-41.9c-7.1-25.5-15-50.8-24.8-75.5c-5.8-14.5-11.5-29.1-18.6-43c-8.3-16.2-18.1-31.7-27.2-47.5
	c-5.7-9.9-12.3-19.1-20-27.6c-5.3-5.9-10.3-12.1-15.3-18.2c-1-1.2-1.8-2.6-2.9-4.2c5.6-7,13.5-10.4,21-13.9
	c13.2-6.2,27.3-9.8,41.9-11.9c7.9-1.2,15.2-1.3,22.5,1.6c2.6,1,6,2.7,6.8,4.8c1.6,4.3,5.3,6.5,7.5,9.8c4.6,7,8.1,14.8,11.9,22.3
	c1.4,2.7-0.4,4.4-2.6,5.9c-10,6.5-19.9,13.1-29.9,19.6c-11,7.2-15.5,23.6-9.7,36.2c1.3,2.9,2.7,5.8,3.7,8.8
	c3,9.4,8.6,17.1,15.5,23.8c7.1,6.8,14.4,13.4,22.4,19c4.3,3,10.2,4.5,15.6,5c8.1,0.7,15.1-2.4,18.8-10.6c2.6-5.7,5.3-11.3,8.7-18.4
	c4.6,11.4,8.6,21.4,12.5,31.3c2.7,6.8,5.4,13.7,8,20.5c0.6,1.5,1.1,3,1.6,4.5c8.5,30.4,16.9,60.8,25.6,91.1c2.6,9.1,6.5,17.9,9.6,27
	c3.4,9.7,6.9,19.4,9.9,29.3c2.8,9.4,5.6,18.9,7.4,28.5c3.4,17.7,9.5,34.7,13.2,52.2C374.8,658.3,374.9,661.1,375.3,664.9z"/>
<path fill-rule="evenodd" clip-rule="evenodd" fill="#FFFFFF" d="M672.6,989c-14.5,0.3-27.3-4.8-40.1-10.1
	c-8.4-3.5-13.1-11.5-19.7-17c-0.5-0.4-0.8-1.4-0.9-2.2c-1.2-13.1-2.6-26.2-3.5-39.4c-0.4-6.1,0.3-12.2,0-18.3
	c-0.4-8.7-1.8-17.4-1.9-26.1c-0.2-18.8-1.2-37.7,0.8-56.3c1.8-16.7,5.8-33.5,11.1-49.5c3.7-11.3,10.8-21.7,17.1-32
	c8.5-13.8,13.6-28.6,15.4-44.7c0.9-8.1,3-16.1,4.3-24.2c1-6,1.4-12.1,2.5-18.1c2.5-12.7,5-25.5,8-38.1c2.3-9.9,6.4-12.4,16.6-11.7
	c4,0.3,7.9,0.3,11.9,0.7c5.1,0.5,6.7,2,6.4,7.1c-0.3,7.1-1.6,14.3-1.6,21.4c0,12.9,0.6,25.9,0.9,38.8c0.1,2.6,0.6,5.4,0.1,7.9
	c-2.4,12.7,3.2,22.9,10.7,32.1c6.3,7.9,12.8,15.5,16.9,24.9c1.7,3.8,4.7,7.1,6.9,10.6c5.4,8.7,8,18.5,10.4,28.2
	c0.7,2.9,0.3,6.4-0.6,9.3c-2.9,9.4-6.2,18.6-9.6,27.8c-2.4,6.5-3.6,13.1-3.9,20.2c-0.4,10.6-1.9,21.1-3.1,31.6
	c-2.5,23.5,0.1,46.5,6.2,69.3c2.7,10.2,4.2,20.8,6.2,31.2c0.6,3.1-0.3,5.8-3,7.7c-3,2.1-5.9,4.6-9.3,6.1c-8.4,3.8-16.9,7.4-26.4,8.3
	C691.8,985.6,682.2,987.5,672.6,989z"/>
<path fill-rule="evenodd" clip-rule="evenodd" fill="#FFFFFF" d="M642.4,508.7c0.4,6.5,1.1,10.7,0.8,14.9c-1,14.3-1.3,28.5-4.1,42.7
	c-2.1,10.7-4.9,21-8.7,31.2c-3.4,8.9-5.4,18.3-8.1,27.5c-0.7,2.5-1.6,4.9-2.7,8.2c-13.1-2.7-26-4.6-38.3-8.2
	c-7.1-2-14.1-2.1-21.1-3.1c-11.8-1.6-23.6-3.6-35.4-5.1c-18.9-2.5-37.8-5.3-56.8-6.9c-26.7-2.3-53.5-2.8-80.2,1.4
	c-0.3,0-0.5,0.1-0.8,0.1c-15.9,0.7-14.9,1.9-18.4-12.6c-4.5-18.8-11.1-36.9-17.2-55.3c-6.7-20.3-12.4-41-18.7-61.5
	c-1.9-6.3-4.2-12.5-6.1-18.8c-1.8-6.1-3.2-12.3-5.2-18.3c-6.2-18.9-12.6-37.7-18.9-56.5c-3.1-9.3-5.9-18.7-9.1-28
	c-2.1-5.9-0.2-10.5,4-14.3c8.6-7.9,18.8-13.1,30-15.7c5.3-1.2,11.1-0.7,16.6-0.4c4.4,0.3,5.5,2,4.4,6.5c-2.6,11.2-3.5,22.5-3.1,33.9
	c0.4,9.8,0.2,19.8,2.5,29.3c4,17,10.4,33.1,19.2,48.4c8,13.9,18.4,25.5,30,35.7c10.3,9.2,23.2,15.7,35,23.2
	c5.8,3.7,11.7,7.3,17.8,10.5c7.7,4,15.6,7.8,23.6,11.3c8.5,3.7,17,7.4,25.8,10.3c8.5,2.8,17.3,4.7,26,7c1,0.3,2.1,0.3,3.1,0.6
	c16.6,6.4,32.4,2.1,47.8-4.2c12.3-5,24.3-10.6,36.3-16.2c3.8-1.8,7.1-4.6,10.8-6.7C629.1,516.2,634.9,512.9,642.4,508.7z"/>
<path fill-rule="evenodd" clip-rule="evenodd" fill="#FFFFFF" d="M799.2,331.5c0-9.3-0.3-18.6,0.1-27.9c0.5-15,5-29.2,10.9-42.8
	c1.7-3.9,5.3-7.5,8.9-9.9c7-4.7,14.5-8.5,21.9-12.6c6.7-3.7,14-5,21.5-4.7c7.9,0.3,15.9,1,23.8,1.3c4.8,0.2,9.5,0.4,14.3,0.2
	c7.1-0.3,13.6,2.1,19.9,4.9c1.6,0.7,3.2,2.9,3.7,4.7c1.6,5.8,3.4,11.8,4,17.8c2.3,21.9,4.4,43.8,6.2,65.8c0.8,9.7,0.6,19.6,0.9,29.4
	c0.2,5.5,1.2,11.1,0.8,16.6c-0.5,6.6-1.8,13.1-3.4,19.5c-2.3,9.2-4.9,18.5-8.1,27.4c-1.9,5.4-4.7,10.8-8.2,15.4
	c-6.5,8.7-10.5,18.4-13,28.8c-1,4.2-3.1,6.2-7.1,7.5c-4.8,1.5-9.5,3.5-14,5.7c-4.1,2-4.5,3.7-2.1,7.5c1.4,2.2,3.3,4.1,5.1,6
	c3.3,3.4,6.9,6.6,10.1,10.1c1.4,1.5,2.7,3.6,2.9,5.5c0.8,11.1,1.2,22.2,1.7,33.3c0.2,4.5-2.2,7.2-6.4,7.6
	c-5.5,0.5-11.1,0.4-16.6,0.3c-2.8,0-4.2-2-4.5-4.7c-0.7-6.6-1.5-13.2-2.2-19.8c-0.5-4.5-0.7-9-1.5-13.4c-1.4-7.6-2.6-15.2-5-22.5
	c-3.1-9.5-6.3-19.3-11.4-27.9c-3.9-6.6-10.2-12.2-16.4-17.1c-9.9-7.7-15.7-17.7-19.9-29.1c-2.5-6.7-6-13-8.5-19.6
	c-6.2-16-7.8-32.9-7.9-49.9c0-4.5,0-9,0-13.5C799.4,331.5,799.3,331.5,799.2,331.5z"/>
<path fill-rule="evenodd" clip-rule="evenodd" fill="#FFFFFF" d="M951.3,653c-0.9,20.4-1.9,40.7-2.5,61.1c-0.1,4.4,0.7,9,1.7,13.3
	c5.7,24.2,11.8,48.3,21.2,71.4c5.9,14.5,10.1,29.5,14.2,44.6c5.7,21.3,5.2,42.4,3.7,63.9c-0.9,14-0.2,28.1-1.1,42.1
	c-0.9,13.2-2.9,26.4-4.4,39.5c-0.7,6.3-3.5,10.5-10,12.9c-9.2,3.3-17.7,8.4-26.9,11.8c-7.4,2.7-15.2,4.7-23.3,1.5
	c-3.9-1.5-6.5-3.4-6.5-7.8c0-4.2-0.6-8.4-0.3-12.6c0.9-13.7-1.8-26.9-4.2-40.2c-0.2-1.3-1-2.6-0.9-3.8c0-12.9-3.7-25.2-7-37.4
	c-2.6-9.4-6.9-18.2-10.5-27.3c-2-5.1-4-10.3-6-15.4c-2.3-5.9-4.6-11.8-6.9-17.7c-2.2-5.7-4.2-11.5-6.4-17.1
	c-7.1-18.1-2.1-34.5,6.7-50.7c7.3-13.5,15.3-27,20.1-41.4c6.7-19.8,9.1-40.6,8.8-61.8c-0.2-13.9-1.1-28.1,3.2-41.8
	c2.2-7.1,5-10.1,12-10.8c4.5-0.4,9-0.4,13.5,0.1c6.8,0.6,10,3.5,11.3,10.3c0.9,4.4,0.9,8.9,1.4,13.4C951.8,653,951.5,653,951.3,653z
	"/>
<path fill-rule="evenodd" clip-rule="evenodd" fill="#FFFFFF" d="M549.3,278.9c2.5-2.3,4.2-4.5,6.4-5.7
	c19.2-10.2,39.3-14.7,61.3-11.2c16.2,2.6,29,11,41.8,20.1c1.3,0.9,2.3,2.3,3.7,3c10.7,5.1,16.8,15.1,24.8,23.1
	c1.5,1.5,2.7,3.3,3.6,5.2c13.5,25.6,22.8,52.6,24.1,81.7c0.4,8-1.6,16.3-3.7,24.1c-4,14.9-14.1,26.5-23.3,38.4
	c-7.9,10.2-18.8,15.1-30.8,18.3c-20.1,5.3-39.9,4.8-59.3-3.1c-4.1-1.7-7.8-4.4-11.2-7.4c-2.8-2.5-3.7-6.4-0.6-9.2
	c8.3-7.2,9.3-17.3,10.4-26.8c1.3-11.7,0.3-23.7,0.3-35.6c0-4-0.4-8,0.1-11.9c2.2-20.6-3.2-39.4-13.1-57.1
	c-5.2-9.2-10.8-18.2-16.7-27c-2.6-3.9-6.3-7.1-9.6-10.5C555.1,284.5,552.4,282,549.3,278.9z"/>
<path fill-rule="evenodd" clip-rule="evenodd" fill="#FFFFFF" d="M722.5,700.9c-7.7-7.6-13-16.5-13.7-27
	c-1.1-17.7-1.2-35.5-1.5-53.2c-0.1-5.3,0.4-10.6,0.7-15.9c0.2-4.8-1.9-8-6.6-9.6c-11.4-4-23-3.5-34.5-1c-5.1,1.1-7.8,5.2-9.5,9.9
	c-5.8,16.3-9.7,33-9.6,50.4c0,8.9-1.6,17.4-3.6,25.9c-2.8,12.1-5.9,24.2-9,36.2c-0.5,1.8-1.2,3.5-2.1,5.1
	c-6.2,11.1-12.4,22.2-18.7,33.3c-3.1,5.4-5,5.8-10.2,2.6c-0.7-0.4-1.3-1-2-1.3c-9.5-5-12-12.8-8.7-22.7c3.1-9.2,6.3-18.5,9.5-27.7
	c0.2-0.5,0.5-0.9,0.7-1.4c5.5-14.9,11-29.8,16.6-44.7c6-15.9,9.6-32.4,13.5-48.9c1.2-4.8,2.9-9.7,5.1-14.1c8-16.3,10-33.9,12.3-51.6
	c1.9-14.4,4.5-28.7,6.9-43.1c0.8-4.9,4.7-7.4,8.2-10.3c6.7-5.6,13.5-11.1,19.7-17.2c3.4-3.3,5.6-7.6,8.4-11.5
	c4.2-5.8,5.4-6.3,11.8-2.7c4.8,2.7,9.6,5.7,13.8,9.3c2.2,1.9,3.7,5.2,4.4,8.2c1,4.1,1.5,8.4,1.3,12.6c-0.8,14.8-2.4,29.6-2.8,44.4
	c-0.4,16.7-0.1,33.4,0.3,50.1c0.5,18.8,0.5,37.7,2.8,56.3C728.5,661.6,723.7,680.9,722.5,700.9z"/>
<path fill-rule="evenodd" clip-rule="evenodd" fill="#FFFFFF" d="M735.4,488.3c4.5,0.2,6.3,3.1,8.5,5.8c2.9,3.7,5.6,7.9,9.3,10.7
	c7.5,5.7,11.2,13.9,15.6,21.7c8.7,15.4,13.7,32.2,17.7,49.2c3.1,12.9,6.3,25.8,5.2,39.3c-0.1,1.6,0,3.3,0.5,4.7
	c1.1,3.2,4.9,3.8,7,1.2c1.4-1.8,2.3-4,3.5-6.2c8.8,0.4,15.8,4.3,21.9,10.1c2.1,2,4,4.4,6.5,5.8c8.9,5.1,13.7,13.1,16.7,22.4
	c4.2,13.1,9.7,26,9.3,40.1c-0.2,7.8-1.5,15.6-2.3,24.2c-3-1-5-1.4-6.8-2.3c-4.7-2.5-9.2-5.2-13.8-7.8c-4.6-2.5-6.8-6.6-7.6-11.5
	c-1.1-6.5-2.6-13.1-2.7-19.7c-0.1-6.6-3.7-11-8.4-13.4c-7.6-4-15.6-7.8-24.6-8.5c-10.5-0.8-15.4,2.7-16.9,13.2
	c-1.2,8.4-1.2,8.4-4.7,13.9c-11.1-1.8-21.6-6-31.3-12.2c-3.2-2-3.2-5.3-3.3-8.5c-0.3-10.3-0.2-20.7-0.6-31
	c-0.6-17.5-1.7-35-2.1-52.5c-0.3-15.6-0.3-31.2,0.2-46.8c0.3-12.2,1.4-24.4,2.3-36.5C734.6,491.9,735.1,490.1,735.4,488.3z"/>
<path fill-rule="evenodd" clip-rule="evenodd" fill="#FFFFFF" d="M337.5,707.1c0.4-13.9,6.5-26.3,20-31.5c7.5-2.9,14.9-3.2,21.9,1.8
	c1.7,1.2,3.6,2.3,5.5,3.2c10.7,5.6,15.2,15.8,19.3,26.2c2.3,5.9,0.2,11.5-2.1,16.9c-1.2,2.7-2.7,5.2-4.1,7.7
	c-6.6,11.9-20.4,17-33.3,12.3c-1.7-0.6-3.4-1.5-5.1-2.3C344.6,734.3,337.9,723.9,337.5,707.1z"/>
<path fill-rule="evenodd" clip-rule="evenodd" fill="#FFFFFF" d="M755.6,754.5c-3.1-5.3-5.6-9.6-8.2-13.8c-4.2-7-8.1-14.2-12.8-20.8
	c-3.3-4.7-4.8-9.3-3.6-14.8c1.5-6.7,3.1-13.3,4.8-20.8c8.5,0.9,16.4,2.5,24,5.2c0.7,0.3,1.4,0.8,2.1,1.1c9.4,4.1,9.5,4.4,7.8,14.1
	c-1.5,8.6-2.3,17.3-3.9,25.8C764.3,738.7,761.8,746.7,755.6,754.5z"/>
<path fill-rule="evenodd" clip-rule="evenodd" fill="#FFFFFF" d="M239.6,246.2c5.9,1.1,11.5,1.9,17,3.1c3.9,0.8,7.7,1.8,11.5,3.1
	c6.8,2.3,11.9,6.3,14.4,14.6c-8.7,3.9-17.6,7.8-26.5,11.8C252.1,275.2,241.4,254.2,239.6,246.2z"/>
<path fill-rule="evenodd" clip-rule="evenodd" fill="#FFFFFF" d="M843.7,745.2c-3.8-9.2-7.2-17.6-10.9-26.6
	c5.5-1.1,9.1,0.8,12.3,3.3c9.3,7.2,9.6,9.6,2.8,19.3C847,742.3,845.7,743.2,843.7,745.2z"/>
<path fill-rule="evenodd" clip-rule="evenodd" fill="#FFFFFF" d="M888.3,592.2c5.6,7.7,7.1,14.8,6.5,22.4c-0.6,7.2-6.7,12-13.8,11.2
	c-5.5-0.6-9-5.1-7.9-10.6c0.4-2.3,1.4-4.7,2.7-6.6C879.5,603.3,883.6,598.2,888.3,592.2z"/>
<path fill-rule="evenodd" clip-rule="evenodd" d="M230.9,720.2c-1.7,2.4-3.2,5.1-5.2,7.3c-7.7,8.4-15.9,16.3-23.1,25
	c-6.8,8.1-12.6,17-18.9,25.5c-2.8,3.8-5.4,7.9-8.7,11.3c-5.3,5.7-10.2,11.4-13.3,18.6c-0.6,1.4-1.5,2.9-2.5,4
	c-3.6,4.1-7.4,3.1-9.8-1.8c-3.9-7.8-1.7-14.1,3.8-20c9.2-9.9,18.4-19.8,27.5-29.7c10.4-11.2,20.7-22.6,31.2-33.7
	c2.9-3.1,6.4-5.5,9.8-8.1C224.6,716.4,227.5,716.7,230.9,720.2z"/>
<path fill-rule="evenodd" clip-rule="evenodd" d="M537.8,378.6c1.9,0.1,4.8,0.6,7.7,0.5c8.3-0.1,13.4,4.1,16.1,11.6
	c1.8,5,3.6,10,5.2,15c3.9,12.2,0.6,23.1-6.9,32.8c-5.6,7.3-12.2,14-21.9,14.4c-8.1,0.3-16.3-0.9-24.4-2.1c-2.2-0.3-4.3-3-6.1-4.8
	c-9.5-9.3-14.8-19.9-9.7-33.5c1.6-4.2,2.2-8.8,3.8-12.9C507.9,384.3,517.8,377.9,537.8,378.6z"/>
<path fill-rule="evenodd" clip-rule="evenodd" d="M768.3,927.1c2,1.8,4.4,3.4,5.7,5.6c1.5,2.7,2.3,5.9,3,9
	c3.9,17.8,7.4,35.8,11.8,53.5c1.2,5,4.5,9.5,7.1,14.1c2.8,4.8,5.4,9.7,9,13.8c2.5,2.8,6.6,4.2,9.8,6.5c1.8,1.3,3.7,2.9,4.8,4.7
	c0.6,1-0.1,3.4-1,4.2c-0.8,0.7-3.1,0.7-4.3,0.2c-10.9-5.3-21.8-10.7-32.5-16.3c-1.4-0.7-2.7-2.5-3.2-4.1c-1.2-3.8-2.2-7.7-2.8-11.6
	c-3.3-21.2-6.6-42.4-9.6-63.7c-0.7-4.9-0.1-9.9-0.1-14.8C766.8,927.9,767.6,927.5,768.3,927.1z"/>
<path fill-rule="evenodd" clip-rule="evenodd" d="M814.1,996.2c-6.5,1.2-8.7-3-10.5-6.4c-2.9-5.3-5.4-11-7.4-16.7
	c-2.4-7-3.8-14.4-5.9-21.5c-1.1-3.7,0.7-5.5,3.6-6.9c2.7-1.3,4.7-0.4,5.5,2.5c0.6,2.3,1.2,4.7,1.3,7c0.7,13.8,4.3,26.6,12.3,38
	C813.5,993,813.5,994.2,814.1,996.2z"/>
<path fill-rule="evenodd" clip-rule="evenodd" d="M804.5,714.5c-0.6-5.4-1.4-10.5-1.8-15.7c-0.4-4.5-0.3-9-0.5-13.5
	c0-1.1-0.1-2.1,0-3.2c0.5-3.1,2-6,5.4-5.8c3.5,0.2,4.5,3.1,4.3,6.4c-0.5,9.2-0.8,18.4-1.4,27.6C810.5,713.1,809,714.7,804.5,714.5z"
	/>
<path fill-rule="evenodd" clip-rule="evenodd" d="M633.8,947.9c-0.8-4.8-1.7-9.6-2.3-14.6c-2-17.9-4.2-35.7-5.7-53.7
	c-0.9-10.2-0.4-20.6-0.8-30.9c-0.1-3.7-1.4-7.3-1.5-11c-0.2-6-0.1-12.1,0.2-18.1c0.1-1.6,1.5-3,3-5.7c1.4,3,2.7,4.7,2.9,6.6
	c1.4,9.4,2.7,18.8,3.7,28.2c0.8,7.4,0.7,14.8,1.7,22.2c2,14.9,4.1,29.9,7,44.6c1.5,7.7,4.8,15.1,7.3,22.6c0.3,1,1.1,2,1.1,3
	c-0.1,3.1,0.6,6.8-0.9,9c-2,3.1-5.2,0.2-7.8-0.7C639.4,948.9,637.1,948.6,633.8,947.9z"/>
<path fill-rule="evenodd" clip-rule="evenodd" d="M675.5,929.2c-2,1.7-3.3,3.4-5.1,4.3c-5.6,3.1-9.1,2-11-4.1
	c-2.7-8.6-4.9-17.3-6.6-26.1c-1.8-9.8-2.9-19.8-4.1-29.7c-0.2-1.4,0.4-2.9,0.9-5.8c1.9,2.3,3.2,3.4,3.9,4.9c0.7,1.4,0.9,3,1,4.6
	c2,17.8,9.9,33.3,19.1,48.2C674.2,926.3,674.6,927.3,675.5,929.2z"/>
<path fill-rule="evenodd" clip-rule="evenodd" d="M684.9,651.2c-1.4-5.8-3.1-11.3-2.7-17.3c0.3-3.4,1.2-6.8,1.2-10.2
	c0-3.1-0.8-6.2-2.4-9.2c0.1-0.5,0.1-1.1,0.3-1.5c1.6-2.7,2.7-6.3,7-4.7c3.6,1.4,4.4,5,3.4,8c-3.5,11.2-3.9,22.8-5.2,34.3
	C686.4,650.7,686,650.8,684.9,651.2z"/>
<path fill-rule="evenodd" clip-rule="evenodd" d="M818.3,348.3c-0.6-2.1-1.2-3.3-1.3-4.6c-0.7-18.7-1.3-37.5-1.8-56.3
	c-0.3-9.7,3.1-17.7,11.3-23.1c3.4-2.2,5.4-6.9,10.9-6.2c1.1,5.5-2.2,9.8-4.5,13.7c-3.8,6.6-6.5,13.1-6.9,20.8
	c-0.8,15.8-2.1,31.6-3,47.4C822.7,344.6,822.8,344.7,818.3,348.3z"/>
<path fill-rule="evenodd" clip-rule="evenodd" d="M846.4,276.7c0.2,3.1,0.5,4.9,0.3,6.6c-1.9,17.6-3.8,35.1-6,54.2
	c-1.6-2-2.8-2.8-3-3.8c-1.1-7-2.3-14-3-21c-0.8-7.6-1.3-15.2-1.8-22.9c-0.2-2.6-0.2-5.4,0.5-7.8c1-3.4,4.4-1.9,6.8-2.5
	C842,279.1,843.5,278,846.4,276.7z"/>
<path fill-rule="evenodd" clip-rule="evenodd" d="M879,534.4c-4.3-6-5.3-18.6-1.6-24c5.5,4.9,3.4,11.7,4.4,17.6
	C882.4,530.9,882,531,879,534.4z"/>
<path fill-rule="evenodd" clip-rule="evenodd" d="M960.4,981.1c0-2.1-0.3-3.9,0-5.7c3.5-17.9,7.1-35.7,10.8-53.6
	c0.1-0.6,1-1,2.2-2.2c1,1.8,2.5,3.2,2.4,4.6c-0.3,7.3-0.9,14.7-1.5,22c-0.8,9.5-2,18.9-2.5,28.4
	C971.4,982.6,969.7,983.9,960.4,981.1z"/>
<path fill-rule="evenodd" clip-rule="evenodd" d="M935.6,685.2c-1-8-2.3-15.9-2-24.1c0.2-4,0.8-7.9,1.1-11.9c0.3-3.8,2-6.4,5.7-7.8
	c3.5,2.4,2.8,5.7,2,8.7c-2.4,9.8-4.2,19.6-1.7,29.8c0.4,1.6-1.5,3.8-2.4,5.8C937.4,685.6,936.5,685.4,935.6,685.2z"/>
<path fill-rule="evenodd" clip-rule="evenodd" d="M661,391.2c2.9,0.5,6.1,0.6,9.1,1.6c12,3.9,18,12.2,18.9,25.7
	c1,15.8-10.4,40.4-29.7,46.7c-9.7,3.2-16.1,1.8-22.5-6.3c-8-10.2-13.6-21.6-14.3-34.7c-0.3-4.5,1.1-10,3.7-13.5
	C634.7,399.3,645.4,390.9,661,391.2z"/>
<path fill-rule="evenodd" clip-rule="evenodd" fill="#FFFFFF" d="M527.2,423.8c-0.2-9.9,4.5-13.5,9.7-16.3
	c4.7-2.5,13.1-0.5,16.9,3.5c1.3,1.3,2.2,3,3.3,4.5c5.6,7.8,5.6,10.5-0.9,17.8c-2.8,3.1-5.8,6.2-9.2,8.7c-5.6,4.1-11.6,3.1-14.7-3
	C529.6,433.4,528.3,427.1,527.2,423.8z"/>
<path fill-rule="evenodd" clip-rule="evenodd" fill="#FFFFFF" d="M649.1,438.4c-0.2-8.2,3.5-13.5,11.7-16.8
	c7.1-2.8,14.3-1.2,18.5,4.6c1.2,1.7,2.2,4.5,1.7,6.4c-1.7,6.9-4.2,13.6-9.6,18.7c-1.1,1-2.4,2.2-3.8,2.5
	C657.6,455.6,649.4,448.7,649.1,438.4z"/>
</svg>
