<?xml version="1.0" encoding="utf-8"?>
<!DOCTYPE svg PUBLIC "-//W3C//DTD SVG 1.1//EN" "http://www.w3.org/Graphics/SVG/1.1/DTD/svg11.dtd">
<svg artist="zl2017" version="1.1" id="zlIcon-sheep-help" xmlns="http://www.w3.org/2000/svg" xmlns:xlink="http://www.w3.org/1999/xlink" x="0px"
	 y="0px" width="1000px" height="672.8px" viewBox="-160.9 -82.1 1000 672.8" enable-background="new -160.9 -82.1 1000 672.8"
	 xml:space="preserve">
<ellipse opacity="0.15" stroke="#000000" stroke-miterlimit="10" enable-background="new    " cx="80" cy="549.4" rx="221.5" ry="40.8"/>
<g>
	<path d="M698.1,128.7c2.9-54.9,32.1-71.6,71-103.5C798.5,1,811.5-55.3,760.6-63c-48.5-7.4-12.4,41.6-37,69.3
		c-26.9,30.5-69.5,7.9-49.3-30.9c34.1-65.7,153.2-83.2,163.7,8.2c6.4,55.2-36.2,67.7-75.9,87.5c-46.5,23.1-29.6,51.5-51.6,84.7
		C700.5,149.8,696.5,140.6,698.1,128.7C699.2,105.4,698.9,134.7,698.1,128.7z"/>
	<path d="M677.5,216.8c0-34.2,62.4-58.2,63.8-14.1C742.5,242.4,673,263,677.5,216.8C677.5,194.5,675.8,234.9,677.5,216.8z"/>
</g>
<g>
	<path fill="#FFFFFF" d="M230.6,414.3c54.1,45.4-159.4,53-122.4,21.8C92.6,424.5,22.5,471-9,462.1c-25.4-7-46.8-29.8-61.3-50.8
		c-7.9-11.3-19.3-85.9-27.7-84.6c-3.9,4.7-5.6,10.2-5.1,16c-47.2-14.9-40.8-94.1-33.7-130.6c5.9-30.9,27.3-57.2,48-80
		c11.8-12.9,58-28.3,56.7-44.5c-59.9-3,14.3-87.1,36.4-101.3c51.3-33.1,111.6-42.1,169.4-27.8c-5.9,5.7-7.4,12-4.4,18.7
		c14.1,11.6,66.1-55.4,107.8-27.2c18.5,12.6,39,26.9,48.9,47.3c2.8,5.7,7.5,45.8,11.6,47.6c11,4.7,15.6-28,42.9-10.5
		c41.9,26.7,32.7,85,23.7,124.5"/>
	<path d="M352.5,6.9c75.1-2.1,76.7,96.7,80.8,146.3c5.4,67.7,89.3-35.7,113.2-33.9c29.5,2.5,49.7,16.5,58.2,45.2
		c5.9,20-17.5,83.7-34.7,46c-12.9-28.7-57.4-23.6-78.2-10.5c-20,12.8,16.4,63.1,7.5,91.8c-20.5,66.2-40.8,98.1-96.3,140.7
		C349.7,473,279.6,409,232.3,450.6c-13.3,11.6-44.7,23.9-50.3,41.6c-0.3,0.8-21.8,83.1-26,52.1c-4.9-36.8,3.6-61.6-33.6-71.5
		c-13.2-3.3-19.4,70.9-24.6,79.9c-22.8-13.9-2.5-72.3-23.6-81.8c-36.4-16.2-31.9,86.4-51.2,73.7c-14.1-9.2,15.9-73.6-11.8-63.4
		c-17,6.2-23.3,56.9-23.3,71.9c-35.3,14.3-12-75.3-37.6-95.9c-33.2-26.9-66.9-86.7-88-124.3c-36.8-65.6-28.5-140.2,21-195.1
		c11.5-12.8,35.9-28.5,43.2-43.9c11-23.1,5.2-52.5,18.7-75.9c26-45.2,86.2-59,129.9-78.2c28.8-12.6,54.3-12.1,83.2-4.7
		c41.1,10.6,23.6,3.4,55.4-11.8C266.2-101.6,335.2-35.5,352.5,6.9C367.1,6.4,351,3.6,352.5,6.9z M-32.2,87.8
		c1.3,16.4-30.1,22.1-41.1,30.5c-28.3,21.8-56.9,58.4-63.8,94.1c-6.9,36.5-13.4,115.7,33.7,130.6c-0.5-6.1,1.1-11.3,5.1-16
		c-12.2,1.8,48.7,113.6,69.7,126.7c27.8,17.4,67.2,13.8,95.4-0.7c11.6-5.9,25.7-28.3,41.4-16.7c-16.5,13.9,35.5,24.9,40.6,25.2
		c35.9,2.8,67.4-12.3,88.8-40.9c-61.3-51.6-125.5-93.6-77-181.6c14.4-26.4,63.1-53,14.4-74.7c-30.6-13.6-57,83.2-84.2,48.4
		c-43.3-55.1,73.4-184.7,111.5-82.1c18,48.3,32.6,33.9,71,21.5c42.2-13.6,90.3-11.1,130.9,7.5c9-39.8,15.6-79.8-12.3-114.4
		C361,7,351.4,51.3,337.3,45.3c-5.9-2.6-2.6-26.2-3.6-29.5c-7.4-24.4-22.8-39.8-42.4-54.9c-21.8-16.7-41.4-30.1-69.5-17.5
		c-10.2,4.4-39.8,45-53,34.1c-2.9-6.7-1.5-13.1,4.4-18.7C115.4-55.5,55.1-46.5,3.7-13.4C-17.8,0.5-92.3,84.6-32.2,87.8
		C-31.4,96.4-35.8,87.7-32.2,87.8z"/>
</g>
<g>
	<path fill="#FFFFFF" d="M391.2,374.8c-68-2.6-34.9-43.1-24.4-78.5c11-37.2-40-107.2,13.9-121.6c49.7-13.3,108.8,46.5,106.5,93.7
		C484,334.1,454.3,362.6,391.2,374.8C379.2,374.4,402.2,372.8,391.2,374.8z"/>
	<path d="M464.9,264.5c0,28.2-48.3,30.8-47.3,1.6C418.6,236,465.1,235.5,464.9,264.5C464.9,276.3,464.9,249.9,464.9,264.5z"/>
</g>
<g>
	<path fill="#FFFFFF" d="M247.5,368.9c-48.9-4.3-90.8-47.2-70.6-97.5c18-45.4,48-65.9,91.9-85.2
		C361.8,145.4,392.5,379.3,247.5,368.9C219.3,366.4,269.9,370.5,247.5,368.9z"/>
	<path d="M331.2,266.8c-1.1,24.7-45.2,30.5-48.3,5.2C278.6,235,323.9,228,331.2,266.8C330.7,278.1,330.4,262.2,331.2,266.8z"/>
</g>
<path fill="#FFFFFF" d="M228.5,167.8"/>
<path fill="#FFFFFF" d="M301.4,142.8"/>
</svg>
