<?xml version="1.0" encoding="utf-8"?>
<!DOCTYPE svg PUBLIC "-//W3C//DTD SVG 1.1//EN" "http://www.w3.org/Graphics/SVG/1.1/DTD/svg11.dtd">
<svg artist="zl2017" version="1.1" id="zlIcon-sheep-loading" xmlns="http://www.w3.org/2000/svg" xmlns:xlink="http://www.w3.org/1999/xlink"
	 x="0px" y="0px" width="1000px" height="914.5px" viewBox="-416.8 -381 1000 914.5"
	 enable-background="new -416.8 -381 1000 914.5" xml:space="preserve">
<path d="M582.7,60.4c0,109.8-29.4,177.1-96.6,258.1c-25.8,31.2-73.2,44.4-95.4,76.8c-27,38.4-10.8,99-42.6,128.4
	c-6.6-26.4-9.6-93-36.6-108C300,430.1,259.8,534,249,531.6c-0.6,0-13.8-50.4-15-59.4c-4.8-53.4-18-36-63-46.2
	c-45-10.8-87.6-25.8-105,28.8c-4.8,15-13.8,93.6-34.8,76.2c-4.8-53.4-16.8-109.2-39.6-158.4c-19.8,27.6-64.8,142.8-93.6,142.8
	c7.8-37.8,15-153.6-11.4-163.3c-42.6-15.6-59.4-49.8-71.4-89.4c-13.8-46.2-50.4-22.2-87-49.8c-112.2-87-151.2-336.7,31.2-363.7
	c-19.8-18.6-46.8-36-75.6-36.6c-29.4-0.6-32.4,30-60.6,27.6c-111.6-9.6,43.2-153,109.2-82.8c28.8,30.6,3.6,55.2,40.2,81
	c30.6,21.6,75.6,18,92.4-9c12.6-21,24-34.8,42.6-50.4c13.8-11.4,41.4-14.4,50.4-30.6c23.4-42,34.2-75.6,81-101.4
	c52.2-28.8,134.4-37.2,191.5-16.2c21.6,8.4,82.2,40.8,82.8,69.6c0.6,16.2,74.4,29.4,94.2,34.8c76.8,19.2,130.2,91.8,140.4,168.7
	c1.8,15,0,81.6-12,91.2C532.3-2,575.5,49,582.7,60.4C582.7,85.6,579.1,55,582.7,60.4z"/>
<path fill="#FFFFFF" d="M-130.3-137.6c13.8-36.6,30-61.8,67.2-81c12-6,86.4-29.4,82.8-34.2c-9-6.6-19.8-7.8-31.2-3.6
	c48.6-118.8,244.9-136.8,310.3-14.4c-10.8,1.8-20.4,6.6-27,15c-0.6-1.2,81.6-4.8,94.8-1.2c49.8,14.4,95.4,39,123.6,84
	c25.8,41.4,49.2,90.6,19.8,136.8c-18.6,29.4-43.8,3-66.6,19.8c106.2,49.8,152.4,103.2,97.2,220.3c-15,32.4-25.2,54.6-46.2,84
	c-16.8,22.8-111.6,75-139.2,50.4c3.6-2.4,19.2-23.4,16.2-28.8c-11.4-21-40.8,36.6-41.4,37.2c-39.6,35.4-70.2,51.6-123,58.2
	c-27,3.6-96.6,1.8-119.4-18.6c-15.6-13.8-67.8-87.6-84-87.6c-18.6,22.2,16.8,48.6-28.8,44.4c-31.2-2.4-63-4.2-91.2-19.2
	c-29.4-15.6-31.2-50.4-53.4-71.4c-22.2-21,63.6-28.2,69.6-30c53.4-14.4,93-38.4,134.4-76.2c36-33,85.2-144.6,32.4-184.3
	c29.4-13.8,60-34.2,93-16.8C181.2-43.4,215.4,3.4,243-6.2c48.6-16.8-18-92.4-34.2-111c-48.6-51.6-102,78-150.6,58.8
	C29.3-69.8,2.3-107-31.3-108.2C-60.7-109.4-102.7-128-130.3-137.6C-125.5-150.2-125.5-135.8-130.3-137.6z"/>
<path fill="#FFFFFF" d="M-188,125.2C-277.4-12.2-98.5-162.8,26.3-62C94.1-7.4,83.9,119.2-1.3,155.3c-46.8,19.8-81.6,16.8-129,3
	C-138.7,155.3-191.6,131.2-188,125.2C-191,121-188,125.8-188,125.2z"/>
<path fill="#FFFFFF" d="M-136.3-99.8c3.6,16.2-19.8,26.4-24.6,30.6C-208.4-29-232.4,40-219.2,100.6C-301.4,106-375.8,37-344-50
	c22.2-61.2,153.6-133.2,201.7-63C-138.1-107.6-139.3-107.6-136.3-99.8z"/>
<circle cx="-246.8" cy="-73.4" r="31.8"/>
<circle cx="-64.3" cy="-18.2" r="39"/>
</svg>
