<?xml version="1.0" encoding="utf-8"?>
<!DOCTYPE svg PUBLIC "-//W3C//DTD SVG 1.1//EN" "http://www.w3.org/Graphics/SVG/1.1/DTD/svg11.dtd">
<svg artist="zl2017" version="1.1" id="zlIcon-sheep-princess-feelings" xmlns="http://www.w3.org/2000/svg" xmlns:xlink="http://www.w3.org/1999/xlink" x="0px" y="0px"
	 width="1000px" height="978.3px" viewBox="0 0 1000 978.3" enable-background="new 0 0 1000 978.3" xml:space="preserve">
<path fill-rule="evenodd" clip-rule="evenodd" d="M620.2,964c-7.1-38.7-13.6-74.2-20.7-113c-28.1,12.1-52.6,25.1-78.6,33.1
	c-27,8.2-54.9,3.9-83.1-7c-13.2,34.4-25.8,67.2-38.9,101.2c-16.1-5.6-22.5-14.6-24.7-29c-5.2-34.3-11.6-68.4-18.1-102.4
	c-1.4-7.6-5-14.8-8.2-24.1c-22.5,20.6-27.5,50.5-43.9,72.4c-2.3-0.8-4.7-1.7-7-2.5c-0.7-10.2,0-20.8-2.5-30.6
	c-2.3-9.3-7.9-17.8-10.3-22.9c-22.6-4.4-41-8.1-59.5-11.7c-10.9-2.1-20.1,0.9-25.7,10.8c-5.5,9.5-10.1,19.5-15.1,29.2
	c-22.2,2-23.2,0.9-26.3-16.1c-5.5-30.2-12.2-60.1-17.9-90.3c-2.8-15.1-11-25.2-25.3-30.5c-42.5-15.7-63-51.4-83.6-88.4
	c-18.1-32.4-21-67.2-27.1-102.7c-8.1-46.5,0.3-89.9,9.4-134.1c1-4.9,0.7-10.6,3.3-14.4c16.8-25,16-53.1,14.5-81.1
	c-1-19,4.7-35.5,14.2-51.1c20.3-33.3,45.8-62.3,75.4-87.6c18.9-16.2,42.9-21.6,66.6-22.4c25.6-0.8,51.3,2.9,81.9,5
	c5.5-8.1,14.7-19.7,21.9-32.5c37.2-65.8,97-82,166-73.5c26.4,3.2,47.8,1.1,69.2-16.4C550.4,11.4,579.9,4,611.8,0.8
	c49.4-4.9,89.7,11.6,127.5,41c18.6,14.5,35.8,31.8,60.3,37.7c7,1.7,13.7,8.6,18.7,14.6c25.3,30.1,59.8,47.5,91.2,69.5
	c41.5,29,61,72.6,65.1,122.4c3.2,39.4,3.6,78.8-9.7,117.1c-1.8,5.2-2.3,13.5,0.6,17.3c24.3,31.9,23.2,71.8,31.3,107.7
	c8.2,36.4-3.1,76.3-22.4,109c-20.1,34.1-42.9,68.4-71.7,94.9c-21.2,19.5-34,41.5-48.2,64.8c-23.5,38.6-56.6,66.5-103.4,73.8
	c-20.6,3.2-41,7.9-61.7,9.7c-11.8,1-18.5,5.7-22.6,16c-5.5,13.8-12.6,27.3-16.3,41.6C646.9,951.5,639.8,958.4,620.2,964z"/>
<path fill-rule="evenodd" clip-rule="evenodd" fill="#FFFFFF" d="M784.4,762.7c-0.8-0.9-1.7-1.7-2.5-2.6
	c7.9-5.8,15.3-12.5,23.8-17.3c40.7-23.1,64.8-57.8,73.3-103.6c1.8-9.8,3-19.7,4.4-29.6c2.1,0.1,4.2,0.3,6.4,0.4
	c0.9,4.3,2.4,8.6,2.5,12.9c0.7,24.3-2.2,47.8-15.1,69.4c-1.8,3-0.3,10.9,2.3,12.7c2.7,1.9,9.6,0.5,12.9-1.9c5.6-4,11-9.3,14.3-15.2
	c11.1-19.9,22.3-39.8,31.4-60.6c24.9-57,27.3-114.5,2.6-174.1c-16.6,6.2-12.6,17.9-13.6,28.2c-1.3,13.6-2.3,27.9-7.4,40.2
	c-7.8,18.9-17.8,21.1-35.3,9.2c-11.4-7.8-20.5-19-31.7-27.3c-21.9-16.1-42.5-36.9-75.1-27.6c-0.4,5.9-1.9,11-0.9,15.5
	c17.7,78.6-11.9,139.7-69.5,190.9c-25.1,22.3-53.3,36.9-85.6,46.7c-59.4,17.9-112,6.2-158.2-32.6c-25.7-21.5-49-46.3-71.2-71.5
	c-14.5-16.4-24.4-36.3-23.8-59.8c1.2-43.1,17-79.2,49-107.9c-33.5-17.6-36.7-17.4-64.3,7.1c-11.2,10-21.4,21.2-33.3,30.3
	c-13.3,10.2-27.6,19.5-42.3,27.4c-5,2.7-14.3,2.4-19.2-0.5c-28.1-16.7-38.7-53.5-31.8-83.3c7-30.1,28.2-47.1,53.1-61.4
	c39.5-22.7,86.4-13.1,114.6,23.1c9,11.6,17.4,24.5,34.6,27.9c1-9.2,1.8-17.3,3-28.2c9.7,7,16.8,12.1,26.7,19.2c0-15,0-25.7,0-36.3
	c23-3.9,14.6,17.5,23.5,27c5.6-1.8,11.6-3.7,16.4-5.2c-2.8-17.1-5.2-31.6-7.6-46.1c2-0.8,3.9-1.6,5.9-2.4
	c9.2,14.4,18.4,28.7,28.8,45c10.9-5.2,20.3-9.6,31.4-14.9C548.1,352,540,320,531.4,286.1c33.3-0.8,25.5,41.8,55.3,46.5
	c3.4-25.1,4.8-49.7,10.5-73.3c3.2-13.2,0.6-32.3,24.9-39c-0.2,17.5,0,32.8-0.6,47.9c-1,22.7,0.6,44.8,11.3,68.9
	c12.3-10.7,22.1-20.5,33.2-28.5c10.5-7.6,18.4-22.7,39-14c-25,30.7-46.8,62.2-48.4,102.2c36.8,13,36.8,13,54.8-17.7
	c1.5-2.6,2.1-6.1,4.2-7.8c12.1-9.6,20.8-25.7,41.7-23.6c-41.5,51.2-41.5,51.2-32,69.7c11.2-8.7,15.7-29.3,37-21.6
	c-4.2,13.6-24.9,21.2-11.3,40.5c14.8-8.9,25.5-26.5,48.2-25.8c-6.8,9.5-11.8,16.4-19.6,27.4c27.6-10.1,49.7-20.6,73-26.3
	c29-7.1,46.6,16.1,69.9,35.1c4.6-24.7,10.9-45.6,11.9-66.8c2.1-41.2-6-81.4-26.5-117.2C893,237,874,213.5,855.2,190.4
	c-8.1-9.9-20-17.5-36.6-15.1c12.3,24.7,23.4,47.4,15.8,80.6c-8.7-20.2-13.8-35.1-21.1-48.7C799.7,182,778.6,163.8,755,148
	c-8.1-5.4-20.8-11-11.3-24.9c24.6-3,38.7,25,63.3,20.8c4-15-5.6-22.5-13.6-28.9c-28-22.3-57.9-42.3-85.2-65.5
	c-49.9-42.4-102.6-29.4-154.5-8.3C520.4,54.8,514,78,530.9,114c-13.1-5.4-22.7-9.5-32.3-13.5c-21-8.7-41.4-21.6-63.2-25.2
	c-40.1-6.6-76.5,2.6-104,37.4c-18.1,22.9-36.3,45.1-46.3,76.2c14.7-4.2,25.9-7.8,37.3-10.6c31.5-8,53.1,12.1,48.8,47.9
	c-7.6-0.8-15.1-1.7-22.8-2.5c-9.8-1-21.5-5.8-29.2-2.1c-38.6,18.3-78.3,35.4-105.4,71.1c-3.4,4.5-9,7.4-13.5,11.1
	c-2.1-1.2-4.1-2.3-6.2-3.5c1.3-10.3-0.4-22.5,4.7-30.3c10.1-15.5,23.9-28.6,36.2-42.7c5.6-6.4,11.3-12.6,17.4-19.3
	c-53.1-29.4-79.6-30.3-117-8.3c-25.8,15.2-41.9,38.9-60,61.4c-15.7,19.5-17.3,41.2-15,64.3c9,2.9,16.9,5.5,26.7,8.6
	c-3.9,6.3-5.4,11.7-9,14.2c-34.3,24.7-45,63.4-51.5,100.4C19,491.4,20,536.1,37.1,578.4c2.9,7.3,3.8,15.4,5.4,23.1
	c7,33.7,40.3,64.2,73.9,67.7c7.9-21.7,7.1-28.4,4-48.8c-2.2-14.8-1.5-30.3-0.2-45.3c1.2-13.8,10-15.4,22.2-9.2
	c0.4,8.2,0.8,16.2,1.3,24.1c2.8,42.7,20,74.6,64.2,86.6c7.6,2.1,15.2,5,22.2,8.6c4.3,2.3,7.4,6.8,11.1,10.2
	c-0.9,2.1-1.8,4.2-2.7,6.2c-31-6.3-62-12.5-92.9-18.8C168,775,194,791.9,256.1,812.5c32.3,10.7,69.1,10.9,97.4-15.3
	c-3.2-15.4-5.9-28.4-9.6-46.2c9.3,5.6,15.4,7.4,18.6,11.4c14.1,18.1,26.1,38.1,41.3,55.2c35.5,40.4,98.2,60.1,152.2,32.2
	c30.8-15.9,63.9-27.4,96.1-40.5c3.2-1.3,7.7,0.3,11.9,0.6c-2.3,7-4.2,12.9-6.7,20.3c42.2,6.5,81.9,25.3,121,0.8
	c34.3-21.4,68.2-44.2,68.8-91.5C824.7,747.9,804.6,755.3,784.4,762.7z"/>
<path fill-rule="evenodd" clip-rule="evenodd" fill="#FFFFFF" d="M496.6,637.6c0.1-0.5,0.1-1.1,0.2-1.6c3,0,6.1-0.3,9,0
	c40,5.1,79.7-19.3,96.3-68.7c2.5-7.5,3.1-15.6,5.8-22.9c12.3-33.8-0.5-65.6-32.1-83.2c-25.2-14.1-50.7-18.4-79.4-13.7
	c-53.6,8.6-90.4,42.7-99.9,95.6c-8.1,45.3,9.1,75.5,52.9,88.6C464.3,636.2,480.8,635.8,496.6,637.6z"/>
<path fill-rule="evenodd" clip-rule="evenodd" fill="#FFFFFF" d="M618.9,469.8c18.5,25.4,20.3,52.3,11.2,80
	c-3.7,11.3-9.8,21.8-14.1,33c-9.1,23.5-8.9,24.6,11.6,38.8c9.8,6.8,20.2,12.8,30.9,18c23.3,11.3,41.9,8.5,59.8-9.6
	c28.8-29.2,42.5-62.1,41.6-105.7c-0.7-36.3-23.2-52.3-42.5-73.5c-3.6-4-10.5-6.3-16.1-6.8C671.7,440.9,643.5,443.8,618.9,469.8z"/>
<path fill-rule="evenodd" clip-rule="evenodd" d="M784.4,762.7c-3.6,11.6-10.1,11.6-23.5,3c9.9-2.6,15.5-4.1,21-5.6
	C782.8,761,783.6,761.8,784.4,762.7z"/>
<path fill-rule="evenodd" clip-rule="evenodd" d="M661.6,572.3c15.5,0.5,23.7,7.7,23.4,20.7c-0.3,13.3-9.8,21.9-23.4,21.2
	c-13.2-0.7-25.9-12.5-26.1-24.2C635.4,578.8,645.7,571.8,661.6,572.3z"/>
<path fill-rule="evenodd" clip-rule="evenodd" d="M476.2,578.3c15.5,0.5,23.7,7.7,23.4,20.7c-0.3,13.3-9.8,21.9-23.4,21.2
	c-13.2-0.7-25.9-12.5-26.1-24.2C450,584.8,460.3,577.8,476.2,578.3z"/>
</svg>
