<?xml version="1.0" encoding="utf-8"?>
<!DOCTYPE svg PUBLIC "-//W3C//DTD SVG 1.1//EN" "http://www.w3.org/Graphics/SVG/1.1/DTD/svg11.dtd">
<svg artist="zl2017" version="1.1" id="zlIcon-sheep-lasvegas" xmlns="http://www.w3.org/2000/svg" xmlns:xlink="http://www.w3.org/1999/xlink" x="0px" y="0px"
	 width="1000px" height="1253.9px" viewBox="0 0 1000 1253.9" enable-background="new 0 0 1000 1253.9" xml:space="preserve">
<path fill-rule="evenodd" clip-rule="evenodd" fill="#FFFFFF" d="M448.5,139.2c0-17-8.4-27-22.8-27.1c-11.4-0.1-21.7,12.5-21.8,26.5
	c0,10.4,12.2,24.2,21.5,24.2C436,162.7,448.5,149.9,448.5,139.2z"/>
<path fill-rule="evenodd" clip-rule="evenodd" fill="#FFFFFF" d="M475.4,144.5c1.2-15.9-5.6-24.1-19.9-22.1c0,3.7-0.6,7.6,0.1,11.2
	c1.8,9.2,2.5,18.1-3.9,26.1c-0.4,0.6,0.1,1.9,0.2,3.3c6.2,0.4,12.3,2.5,16.4-1.3c-1.8-4.4-5.2-9.2-4.2-10.4
	C466.6,148.3,471.1,146.9,475.4,144.5z"/>
<path fill-rule="evenodd" clip-rule="evenodd" fill="#FFFFFF" d="M814.6,93.7c-1.5-5.7-2.3-11.6-4.5-17c-3.1-7.9-8.5-9.7-16.6-6.8
	c-1.3,0.5-2.8,1.4-3.9,1.2c-8-1.7-13.3,2-17.9,8.1c-4.7,6.4-5,13-4,20.8c1.3,10.1,7.9,15.2,14.9,20.5c7.9,6,14.7,5.6,21.3-1.7
	C810.2,111.9,814.3,103.8,814.6,93.7z"/>
<path fill-rule="evenodd" clip-rule="evenodd" fill="#FFFFFF" d="M756.8,105.7c-15,9.8-20.9,24.9-17.3,40.2
	c2.7,11.6,16.2,20.5,28.5,10.5c6.2-5.1,11.9-10.8,17.7-16.4c2.6-2.5,1.5-5.1-0.7-7.4c-8.3-8.5-16.7-16.9-25.1-25.3
	C759.4,106.6,758.2,106.4,756.8,105.7z"/>
<path fill-rule="evenodd" clip-rule="evenodd" fill="#FFFFFF" d="M690.4,367.4c4.5,4.2,9.2,3.5,14.2-0.2
	c-2.6,16.3,0.5,14.3,11.1,18.7c7.3-5.1-1.6-12.8,2.9-18.3c10.6,2.2,10.5,2.1,16-8.2c1.7-3.2,4.4-5.9,6.8-9c1.7,1.4,2.7,2,3.2,2.8
	c6.2,10.3,6.8,10.3,14.9,0.6c1.6-1.9,3.9-3.1,5.9-4.7c-2.8,8.9-10,15.8-5.5,25.4c-3.3,1.2-6.7,1.5-8.3,3.3c-2.4,2.6-5.8,7.1-4.9,9.5
	c1.3,3.7,5.3,7.4,9.1,9.1c4.4,2,6.7-2.5,8.6-5.9c1.7-3.1,3.1-6.3,4.9-9.3c0.7-1.2,2.2-1.8,5.5-4.3c-1.2,4.4-1.4,6.3-2.3,8
	c-1.8,3.4-3.9,6.7-5.8,10.1c-1.9,3.3-2.9,6.8,0.4,9.6c3.3,2.8,7,3,10.4-0.3c0.9-0.9,1.8-1.8,3.3-3.2c1,8.3,1.2,15-6.4,19.2
	c-1.1,0.6-1.7,2.2-2.3,3.5c-2.8,5.5-2,8.6,3.9,10.7c4,1.4,8.6,1.3,12.9,1.8c4.5,7.5-3.6,8.9-6.5,12.7c4.5,5.8,4.5,5.8,4.4,11.2
	c-2.7,0.2-5.7,0-8.2,0.9c-2,0.7-4.9,2.8-4.9,4.3c0,2.4,1.7,5.4,3.6,6.7c1.3,0.9,5,0.2,6.4-1.1c8.2-7.7,14.6-16.8,12.7-28.7
	c-2-12.8-4.7-25.6-7.8-38.2c-3-11.9-7.1-23.5-10.7-35.3c-1.9-6.4-3.2-12.9-5.6-19.1c-4-10.7-6-11.8-17.3-10.4
	c-2.7,0.3-5.3,1.6-7.9,2.6c-11.7,4.7-23.5,9.2-35,14.5c-7.3,3.4-16,4.3-21.6,11.2c-5.2,0.5-10.3,0.7-15.5,1.4c-6,0.8-9,4.6-8.7,11.1
	c0.1,2.1,0.5,4.2,0.9,6.3c4.1,21,8.1,42,12.5,62.9c1.6,7.5,4.9,14.6,6.5,22.1c3.1,14.9,15.7,21.4,28.2,22.8
	c9.8,1.1,19.5,2.6,29.2,3.8c4.1,0.5,8.3,1.4,10.9-3.7c-6.8-3-13.5-5.1-19.3-8.7c-5.2-3.3-9.3-4.5-14.3-0.4c-0.9,0.7-2.5,0.6-4.8,1
	c2.2-12.1-6-17.4-13.5-23.1c-2.2-1.7-4.7-3.2-6.7-5.1c-2.8-2.6-5.2-5.5-7.7-8.2c4.8-10.5,7.2-20.5,2.5-31.4
	c6.4-0.9,11.8-2.3,11.4-10.2c-3.1-3.5-5.5-8.5-11.8-8.2c-4.1,5,0.2,13.8-9.1,16.3c-0.5-2.5-1.6-4.9-1.2-6.9c0.9-4.4,2.1-9,4.2-13
	c4.5-8.5,10.5-16.5,5.7-26.9C689.8,368.9,690.3,368.1,690.4,367.4z"/>
<path fill-rule="evenodd" clip-rule="evenodd" fill="#FFFFFF" d="M133.3,791.9c0,1.1,0,2.1,0,3.1c-5.3,2.6-10.7,5.1-15.9,7.8
	c-12.7,6.7-21.7,17-27.2,30c-4.8,11.3-8.9,22.9-12.2,34.7c-3.5,12.3-10,24.2-5.6,37.9c1.4,4.3,0.4,9.3,1.9,13.5
	c3.6,10.4,5.6,21.7,15.3,29.2c7,5.3,13.7,11.1,19.8,17.5c13.4,14.1,28.6,20.6,47.8,13.5c3.9,5.7,4.1,5.8,1.6,10.9
	c-5.1,10.4-6.5,21.6-5.1,32.8c1.1,8.7,3.2,17.3,5.4,25.8c4.9,18.7,14.7,35.4,26.3,50.1c9.8,12.4,22.5,23.3,39.1,27.9
	c8,2.2,15.4,6.6,23.4,9.4c3.9,1.3,8.4,0.9,12.5,1.7c23.2,4.8,46.3,3.2,69-2.6c20.6-5.2,35.8-17.6,44.5-37.4c1.3-2.9,3-5.6,4.6-8.3
	c4.9-8.2,7.2-8.5,15.1-3.6c5.3,3.3,11.3,5.4,16.9,8.4c5.9,3.1,11.5,6.6,17.3,9.9c4.5,2.5,8.8,5.7,13.6,7.4
	c7.9,2.7,16.1,5.3,24.4,6.2c12.5,1.3,25,4.6,37.7,1.2c13.2-3.6,26.5-7.4,39.9-10.2c15.6-3.2,28.5-11.8,41.7-19.8
	c16.2-9.9,25.4-26,36.3-40.7c2.9-3.9,5.8-7.9,8.3-12.2c13.3-23.2,17.8-48.9,19.4-74.9c0.9-14.8-1.7-29.9-3.1-44.8
	c-0.6-6.5,1.4-8.3,7.7-6.5c2.5,0.7,6.3,1.8,7.5,0.7c5.5-5.3,11.4-10.7,15.1-17.3c4.7-8.1,8.1-17.2,10.8-26.2
	c5-16.6,7.1-33.7,3.8-51.1c-1.8-9.6-3.6-19.3-5.4-28.9c-0.8-4.1-1.2-8.3-2.6-12.2c-2.7-7.6-6-14.9-8.9-22.5
	c-8.4-21.7-23.4-38.5-41.1-52.8c-9.6-7.7-20.7-13.5-33.4-15c-4.3-0.5-8.7-0.7-14.7-1.2c3-4.1,5.1-7,7.6-10.5
	c-5.3-10.5-10.5-21.2-16.1-31.8c-2.4-4.6-4.9-9.4-8.4-13.2c-9.9-10.6-21.1-19.1-33.8-26.6c-17.1-10-34.4-17.4-54.4-17.9
	c-13-0.3-17.1,2.6-18.5,15.7c-1.1,10-5.7,18-12.8,24.8c-2.2,2.2-4.2,4.6-6.3,6.9c-5.1,5.7-10.2,11.5-15.5,17.1
	c-1.7,1.8-4.4,2.8-5.6,4.7c-10.2,16.5-20.1,33.1-30.1,49.7c-2.8,4.7-1.1,8.1,3.3,10.4c3.4,1.8,7.1,3.1,10.7,4.6
	c5.5,2.4,11,4.7,16.5,7c5.8,2.4,11.6,4.9,17.5,7.2c3.6,1.4,7.3,2.4,10.9,3.9c15.5,6.7,31,13.5,46.5,20.4c9.3,4.2,19,7.8,25.1,16.9
	c0.9,1.4,2.6,2.4,4.2,3.2c23.4,12.2,46.6,24.7,70.2,36.5c16,8.1,17.2,9.7,13,26.7c-2.5,9.8-7.1,12.2-16.1,7.7
	c-8.2-4-16-8.7-24.1-12.8c-14.1-7.2-28.2-14.4-42.5-21.4c-4.1-2-8.5-3.8-12.9-4.2c-5.7-0.5-9.7-3.1-13.9-6.6
	c-8.6-7.3-17.1-14.8-26.5-20.8c-17-10.8-34.5-20.8-52.1-30.5c-12.6-7-25.9-13-38.7-19.5c-5.7-2.9-11.3-3.8-17.1-0.7
	c-6.8,3.7-13.4,7.8-20.5,11c-12.9,6-26.4,8.7-40.7,8.4c-14.2-0.3-26.9-5.6-39.5-10.5c-11.4-4.5-22.1-10.8-32.8-16.8
	c-7.6-4.2-14.3-10.5-22.2-13.7c-12.2-5-23.8-10.3-33.1-19.9c-3.3-3.4-7.4-4.6-12.5-2c-12.5,6.3-21,17.5-31.8,25.8
	c-1.8,1.4-3,3.9-4.1,6.1c-2.8,5.6-5.6,11.2-8.1,16.9c-1.8,4.1-3.9,8.3-4.6,12.7c-1.3,8.7-1.3,17.5-2.5,26.2
	c-1.9,13.6,1.4,17.3,15,16.1C129.3,790.4,131.3,791.4,133.3,791.9z"/>
<path fill-rule="evenodd" clip-rule="evenodd" fill="#FFFFFF" d="M240.9,1212c0.5,0.1,0.9,0.2,1.4,0.3c0,4.9-0.5,9.9,0.1,14.7
	c1.2,8.8,8.6,13.9,17.7,12.8c6.3-0.7,9.8-6.4,9.6-15.1c-0.1-4.6-0.1-9.2-0.2-13.8c-0.1-6.6,0.3-13.1,4-19.6c3.8,16.2-4,33,4.4,47.8
	c7.3,0,13.9,0,20.7,0c5.6-12.2,2.5-26.4,11.1-37.3c0.5,3.3,0,6.6-0.2,9.8c-0.5,7-1.6,14-1.3,21c0.3,7.5,1.6,8.4,9,8.6
	c9.2,0.2,18.4,0.2,27.6,0c8-0.1,10.7-1.9,12.8-9.8c4.2-15.7,8-31.5,11.7-47.3c2.7-11.6,6.7-22.5,13.5-32.3c-1.5,7.5-4.1,14.7-5.9,22
	c-4.6,19.5-8.8,39.1-13,58.8c-0.7,3.4,0.8,6.4,5,6.5c5.6,0.1,11.3,0.6,16.9-0.1c14.6-1.9,28.9-5.4,37.2-19.2
	c4.5-7.5,9.2-15.4,11.3-23.8c4.6-18.8,7.7-37.9,11.3-56.9c0.7-3.9-0.5-6.6-4.4-8.5c-14.9-7.6-29.5-15.6-47.1-8.6
	c-1.6,0.6-3.5,0.1-5.2,0.5c-9.2,2.1-18.6,2.4-26.7,8.9c-13.7,11.1-29.4,18.4-47.1,19.8c-15,1.1-29.9,5-45.2,1.7
	c-7.5-1.6-15.3-2.4-23-2.9c-8.7-0.5-9.3,0.1-11.4,8.7c-2.3,9.9-3.8,20-6.4,29.8c-2.6,9.6-9.3,14.8-18.7,13.6
	c-11.8-1.5-23.5-4.3-35.2-6.6c-5.1-1-7.7-4.3-9-9.2c-1.7-6.2-2.3-12.3-0.3-18.7c4.8-15.5,9-31.1,14-46.5c2.3-7.4,0.4-12.5-4.9-17.9
	c-6.4-6.5-12.3-13.7-16.8-21.6c-5.3-9.4-9.8-18.6-22.7-17.8c-0.7,0-1.3-0.4-2-0.6c-12.1-3.6-24.2-7.4-36.4-10.6
	c-12.6-3.3-25.4-5.5-38-8.8c-13.5-3.6-17.1-2.4-21.7,10.4c-5.3,14.8-10.7,29.7-15,44.9c-3.1,11.1-5,22.6-6.5,34
	c-1.6,12.2-1.8,24.6-3.3,36.8c-1.5,12.7,0.6,16.2,14.4,19.7c0.9-2.1,2.4-4.2,2.7-6.5c1.2-9.6,1.8-19.4,3.1-29c1-8.1,2.6-16,3.9-24.1
	c0.7,0.1,1.5,0.2,2.2,0.3c-0.6,4.1-1,8.3-1.7,12.4c-3.1,16.8-4.7,33.4,2.5,49.7c4.1,9.3,3.9,9.7,15.2,7.7c1.2-3.3,2.5-6.9,4.1-11.3
	c3.4,10,4.8,21.2,18.5,21.5c1.8-3.7,3.6-7.2,6-12.1c1.8,4.5,2.9,7,3.9,9.6c2.7,7,8.6,10.5,16.6,9.2c5.8-0.9,6.2-5.9,6.9-10.5
	c0.1-0.4,0.8-0.7,1.6-1.2c1.1,3.5,2.1,6.9,3.3,10.1c1.4,3.8,4.4,5.1,8.4,5.1c4.1,0,6.9-1.6,7.9-5.5c1.1-4.5,1.9-9.1,3.2-15.5
	c1.9,6.9,3.5,11.9,4.6,17c1,4.6,4.2,6.6,8.1,7.2c4.6,0.7,7-2.5,8.7-6.2c0.7-1.5,1.1-3.2,2-5.6c4.8,6.4,2.3,16.9,14.2,17.9
	c8.6,0.7,16.3,1.7,21.8-3.7c5.5,3.1,9.7,6.6,14.5,7.7c6.4,1.5,13.3,1.3,20,1.3c4,0.1,6.4-2.5,7.4-6.4
	C237.9,1223.3,239.4,1217.6,240.9,1212z"/>
<path fill-rule="evenodd" clip-rule="evenodd" fill="#FFFFFF" d="M142.7,555.7c3.2,1,6,2.5,8.9,2.6c6,0.2,12.1,0.2,18-0.6
	c15.7-2.1,31.3-4.7,47-7.1c12.5-1.9,25.2-3.1,37.5-6c22.9-5.5,45.6-11.8,68.3-18.2c7-2,13.7-5.3,20.2-8.7c9-4.7,17.5-10.6,27.7-12.3
	c6.2-1.1,12.7-1.1,18.7-2.8c19.7-5.5,33.7-19.9,48.8-32.5c1.5-1.3,3-3.6,2.9-5.5c-0.1-2.9-0.6-7-2.5-8.3c-9.3-6.5-19.5-9.5-30.7-4.7
	c2.5,9.2,2.5,9.2-5.7,14c-0.8-1.1-1.7-2.1-2.5-3.3c-17.5-23.5-37.5-43.7-66.3-53.7c-8.8-3-17.3-2.5-25.9-3.2
	c-3.6-0.3-6.5,1.4-7.5,5.8c-2.9,12.7-11.8,18.4-24.2,19.9c-3.8,0.5-7.8,0.9-11.3,2.4c-5.6,2.4-10.6,2.8-15.9-0.5
	c-4.2-2.6-8.1-1.8-11.3,2c-7,8.3-14.6,16.1-20.9,24.9c-6.2,8.7-12,18-16.5,27.7c-6.2,13.1-14.5,25.7-14.4,41.1
	c0,2.6-1.5,5.4-2.9,7.8c-0.7,1.3-2.7,2.6-4,2.5c-1.2-0.1-2.7-1.9-3.3-3.3c-1.2-3.1-1.9-6.4-3.2-11
	C158.4,532.1,146.6,538.6,142.7,555.7z"/>
<path fill-rule="evenodd" clip-rule="evenodd" fill="#FFFFFF" d="M233.7,698c4.1,0.3,6.6,0.5,9,0.6c18,0.6,32.5-5.8,44.4-19.9
	c10.7-12.7,14.5-27.9,19-43.1c3.1-10.5,1.8-21-1.9-31.1c-4.1-11.2-10.8-20.7-21.9-25.8c-11.8-5.5-24.1-9.4-37.3-11
	c-23.5-3-43.4,2.1-57.2,22.9c-1.2,1.8-2.3,3.9-4,4.9c-9.4,5.4-12.3,14-15,24c-2.7,9.9-4.4,19.2-0.8,28.8c2.5,6.9,5.7,13.6,8.2,20.5
	c7,18.8,32.8,31.8,51.7,29.6C230.5,698.2,232.9,698,233.7,698z"/>
<path fill-rule="evenodd" clip-rule="evenodd" fill="#FFFFFF" d="M453.8,585.2c-1.3-6.5-2.3-13.1-4.1-19.5
	c-4.3-15.4-14.7-27.1-24.8-38.8c-11.1-12.9-25.8-14-40.8-10.5c-10.9,2.5-21.4,7-32,10.9c-11.4,4.2-19.3,18.2-18.1,30.4
	c1,9.4,2.4,19,1.8,28.4c-1.3,18.1,5.9,31.8,18.4,44c18.3,17.8,45.4,14.2,60.7,4.6c8.3-5.2,15.4-12.3,23.2-18.4
	C448.3,608.6,453.6,598.5,453.8,585.2z"/>
<path fill-rule="evenodd" clip-rule="evenodd" fill="#FFFFFF" d="M209.8,1192.2c5.4-0.4,9.6-2.5,11.4-7.9c2.9-8.7,6-17.3,8.4-26.1
	c3.5-12.7,2.5-14.3-9.9-20.1c-1.3-0.6-2.6-1.2-3.8-1.8c-6.6-3.4-13.1-6.9-19.7-10.2c-7.9-4-11.7-1.8-13.2,6.5
	c-1.4,7.9-3.9,15.7-5.5,23.6c-1.2,5.8-2.6,11.7-2.7,17.6c-0.2,8.6,2.6,12.2,11.1,14.4C193.8,1190.1,201.9,1190.9,209.8,1192.2z"/>
<path fill-rule="evenodd" clip-rule="evenodd" fill="#FFFFFF" d="M389.6,718.8c-0.8,1-1.5,2.1-2.3,3.1c18.5,13.8,39.9,23,59.4,35.2
	c19.5,12.1,39.8,23.1,59.6,34.6c7.9-9,8.4-11.6,0.2-18.4c-6.4-5.3-13.8-9.6-21.3-13.2c-15.5-7.5-31.3-14.5-47.1-21.3
	C422,731.9,405.7,725.5,389.6,718.8z"/>
<path fill-rule="evenodd" clip-rule="evenodd" fill="#FFFFFF" d="M97.6,1031.3c-3.8-4.4-1.2-7.5,1.1-10.5
	c5.1-6.7,10.4-13.3,15.4-20.1c2.3-3.2,3.8-7,0-10.4c-3.8-3.4-8-3.2-11.3,0.2c-6.2,6.2-12.2,12.6-17.6,19.5
	c-2.2,2.8-3.1,7.1-3.7,10.8c-1.1,7.1,0.1,9.2,6.8,12.4c4.4,2.1,9.3,2.9,13.7,5c5.5,2.6,8.8-0.3,11.5-4.2c4.8-6.9,9.3-14,14-20.9
	c2.3-3.4,4.3-6.7-0.1-9.9c-3.9-2.8-7.4-1.7-10,2.1c-3.9,5.8-7.9,11.6-11.2,17.7C104.2,1026.7,102,1029.9,97.6,1031.3z"/>
<path fill-rule="evenodd" clip-rule="evenodd" fill="#FFFFFF" d="M547.1,801.7c-1.2,0.8-4.2,1.9-4.4,3.3c-0.2,1.6,1.8,4.3,3.5,5.3
	c7.9,4.5,16,8.7,24,12.9c6.9,3.6,13.7,7.3,20.8,10.3c1.9,0.8,6.3-0.2,7.2-1.8c0.9-1.7,0-5.7-1.5-7.4c-3.1-3.3-7-7.4-11-7.9
	c-11.6-1.6-20.6-9-31.2-12.5C552.4,803.3,550.4,802.7,547.1,801.7z"/>
<path fill-rule="evenodd" clip-rule="evenodd" fill="#FFFFFF" d="M142.1,1044.9c2.5-7.6,2.9-14.8,1.6-19.2c-2-6.4-9.1-9.1-14-4.6
	c-3.2,2.9-5.7,7.1-7.5,11.1c-1.8,4.1,0,8,4.3,9.3C131.4,1043.1,136.5,1043.7,142.1,1044.9z"/>
<path fill-rule="evenodd" clip-rule="evenodd" fill="#FFFFFF" d="M67.3,1024.5c3.2-4.3,6.4-8.7,9.7-12.9c3.7-4.7,8-9,11.3-13.9
	c3-4.3,8.6-6.9,9.7-13.5C73.9,992,61.4,1007.2,67.3,1024.5z"/>
<path fill-rule="evenodd" clip-rule="evenodd" fill="#FFFFFF" d="M739.4,480.9c5.2-4.1,5-9.3,3.2-13.8c-1-2.7-4.4-4.4-6.7-6.5
	C726.9,471.6,728,476.5,739.4,480.9z"/>
<path fill-rule="evenodd" clip-rule="evenodd" fill="#FFFFFF" d="M722.5,429.4c-0.2,3.3-1.1,7.2-0.3,10.7c0.5,2.1,3.3,4.9,5.4,5.2
	c2.1,0.3,5.4-1.6,6.7-3.5c1.3-1.9,1.7-5.7,0.6-7.6C732.6,430.4,729.1,427,722.5,429.4z"/>
<path fill-rule="evenodd" clip-rule="evenodd" fill="#FFFFFF" d="M718.6,468.1c5.3-4.2,8.3-9,9.5-15.6c-3.1-1.5-5.8-2.9-8.4-4.2
	C711.3,459.7,711.1,462.2,718.6,468.1z"/>
<path fill-rule="evenodd" clip-rule="evenodd" fill="#FFFFFF" d="M751.6,401.6c-3.5-2.1-6.7-4.1-9.8-6c-5.5,3.2-6.1,7.7-3,11.6
	c2.1,2.6,6.4,5,9.4,4.7C753.3,411.3,752,406.3,751.6,401.6z"/>
<path fill-rule="evenodd" clip-rule="evenodd" fill="#FFFFFF" d="M732.4,411.4c-4.4,3-5.9,7.1-3.5,10.4c2,2.7,6.2,5.1,9.6,5.3
	c4.7,0.3,5.4-4.4,6.6-9.2C740.7,415.7,736.4,413.5,732.4,411.4z"/>
<path fill-rule="evenodd" clip-rule="evenodd" fill="#FFFFFF" d="M753.8,470.7c-5.9,7.2-6.8,9.5-5.2,12c1.7,2.6,13.3,5.6,16.2,4
	c1.3-0.7,2-2.4,3.8-4.5c-3.6,0-5.8,0-6.4,0C759,477.8,756.5,474.4,753.8,470.7z"/>
<path fill-rule="evenodd" clip-rule="evenodd" fill="#FFFFFF" d="M737,385.9c3.6-5.9,6.6-9.5,8.2-13.8c1-2.7-3.9-6.6-6.1-4.9
	c-3.3,2.5-6.1,6.2-7.7,10C730.8,378.6,734.1,381.7,737,385.9z"/>
<path fill-rule="evenodd" clip-rule="evenodd" fill="#FFFFFF" d="M742.3,441.4c-1.1,3.3-2.7,5.9-2.6,8.5c0.1,2.3,1.4,5.3,3.2,6.8
	c2.9,2.3,5-0.2,6.7-2.6C754.2,447.4,752.2,443.5,742.3,441.4z"/>
<path fill-rule="evenodd" clip-rule="evenodd" fill="#FFFFFF" d="M268.1,418.5c12,3.6,16.7,1.3,17.4-8.2
	C276.3,409.7,272.2,411.5,268.1,418.5z"/>
<path fill-rule="evenodd" clip-rule="evenodd" fill="#FFFFFF" d="M762.7,424.4c2.5-3.1,7.5-5.5,5.3-10.9c-0.8-2-4.5-4-6.7-3.8
	c-2,0.2-4.8,3-5.4,5.2C754.6,419.6,757,422.9,762.7,424.4z"/>
<path fill-rule="evenodd" clip-rule="evenodd" fill="#FFFFFF" d="M701.3,434.3c-1.6,3.2-3.8,5.6-3.9,8.1c-0.1,2.2,1.6,5.2,3.4,6.7
	c2.7,2.2,5.2,0.3,7-2.4C711,442,709.6,439,701.3,434.3z"/>
<path fill-rule="evenodd" clip-rule="evenodd" fill="#FFFFFF" d="M704.7,402.6c2.6-3.9,5.2-6,5.5-8.5c0.5-3.8-6.1-7.9-14-9.1
	C698.9,390.5,701.2,395.3,704.7,402.6z"/>
<path fill-rule="evenodd" clip-rule="evenodd" fill="#FFFFFF" d="M707.5,414.2c-0.2,6.4-0.6,10-0.3,13.6c0.1,1.3,1.8,3.3,3.1,3.6
	c1.3,0.3,3.8-0.7,4.4-1.8c1.2-2.3,2.8-5.7,2-7.5C715.4,419.5,712.1,417.9,707.5,414.2z"/>
<path fill-rule="evenodd" clip-rule="evenodd" fill="#FFFFFF" d="M734.9,390.2c-4.5-2.3-7.9-6.2-11.7-1c-2.2,3.1-0.6,7.4,3.1,8.7
	C732.6,400.1,732.9,395,734.9,390.2z"/>
<path fill-rule="evenodd" clip-rule="evenodd" fill="#FFFFFF" d="M754.8,466.5c8.4,0.7,9.2-4.8,11.2-8.4c0.6-1.2-1.4-3.9-2.2-5.9
	c-2,0.9-4.9,1.3-5.7,2.8C756.4,458.2,756,462,754.8,466.5z"/>
<path fill-rule="evenodd" clip-rule="evenodd" fill="#FFFFFF" d="M761.9,432.4c-4.3-2.6-6.8-4.8-9.8-5.7c-0.7-0.2-3.7,3.8-3.9,6
	c-0.5,4,3.4,5.6,6.4,5.4C756.5,438,758.5,435.2,761.9,432.4z"/>
<path fill-rule="evenodd" clip-rule="evenodd" fill="#FFFFFF" d="M719.3,399.1c-1,0.4-2.1,0.7-3.1,1.1c-0.1,2.9-1.1,6.2,0,8.6
	c0.8,1.7,4.6,3.4,6.5,2.9c2.9-0.7,4.1-4,2.1-6.9C723.4,402.6,721.2,401,719.3,399.1z"/>
<path fill-rule="evenodd" clip-rule="evenodd" fill="#FFFFFF" d="M768.2,437.3c-3.8,3.5-5.2,6.9-0.7,9.7c1.5,0.9,5.7,0.3,6.4-0.9
	C776.9,441.1,772.3,439.7,768.2,437.3z"/>
<path fill-rule="evenodd" clip-rule="evenodd" d="M777.9,711.8c-3.2,1.4-5.8,2.2-8.1,3.6c-27.4,16.8-50.2,38.6-69.5,64.3
	c-2.6,3.4-3.8,6.6-3.3,10.6c1.8,14.6,4.1,29.3,5.3,43.9c1.2,14-3.3,27.1-7.7,40.1c-5.5,16.6-14.7,31.1-25.4,44.7
	c-3.5,4.4-4.8,8.9-5,14.6c-0.9,21.5-1.9,43-3.7,64.4c-0.9,11.1,0.7,21.8,3.3,32.3c3.5,14,7.7,27.8,11.4,41.7
	c3.2,11.9,6.1,23.7,13.6,33.9c5,6.8,4.4,7.2-1.7,14.4c-0.7-0.1-1.5,0-2-0.3c-19.5-15.5-42-25.1-65.1-33.9
	c-6.4-2.4-11.7-1.9-16.5,2.9c-14.7,14.6-32.1,25.3-50.9,33.6c-6.1,2.7-9.1,6.9-8.4,13c1,9.4,2.4,18.8,4.3,28
	c2.3,11,5.3,21.9,8.2,32.8c1,3.6,1.8,7.7,4,10.5c4.8,5.8,3.5,10.8-0.5,16.8c-1.7-0.7-3.5-0.9-4.7-2c-15.7-14.7-32.6-28.4-46.5-44.7
	c-11.5-13.3-24-24.6-38.4-34.2c-1.8-1.2-3.6-2.3-5.5-3.2c-9-3.9-14.3-1.4-14.3,8.1c0,20.3-6.4,39.5-9.4,59.3
	c-1.7,11.6-10.6,19.6-19,27.3c-3.9,3.6-8.4,6.4-12.5,9.8c-5.8,5-13.3,3.8-19.9,5c-12.7,2.3-25.7,2.7-38.6,3.8
	c-4.9,0.4-9.8,0.9-14.7,0.8c-10.6-0.2-21.1-1-31.6-1.3c-8.5-0.2-16.7-0.5-25-3.5c-5.3-1.9-11.8-0.3-17.7-0.4
	c-5.6-0.1-11.2-0.1-16.7-0.5c-5.6-0.5-11.2-1.3-16.7-2.2c-3.8-0.6-7.9-0.8-11.3-2.4c-5.2-2.5-9.9-2.1-15.4-1.3
	c-7.1,0.9-14.5,0.8-21.8,0.2c-6.6-0.5-13.5-1.5-19.7-3.8c-18-6.6-36.9-9.2-55.7-11.2c-18.1-1.9-34.6-8.1-51.3-14
	c-4-1.4-8-2.8-12.1-3.6c-13.2-2.6-23.1-11.8-35.1-16.7c-6.6-2.7-6.6-8.5-6.1-14.4c2.3-26,4.9-51.9,12.5-77
	c5.1-16.8,9.8-33.7,14.9-50.5c1.1-3.7,3.2-7,4.9-10.5c1.2-2.5,3.2-5,3.5-7.6c1.6-17.3,12.2-29.7,23-41.8c5.1-5.7,11.3-10.5,17-15.8
	c7.4-6.9,6.9-9.4,0.6-17.2c-7.1-8.8-13.6-18.1-19.3-27.8c-2.5-4.3-2.8-10.1-3.5-15.3c-1.8-13.3-2.5-26.8,1-40
	c1.4-5.3,5.1-10.1,6.5-15.4c5.7-21.5,19.7-38,32.8-55c6.4-8.3,9.2-17.2,9.4-27.3c0.4-21.9,4.7-42.2,18.3-60.5
	c9.9-13.4,21.5-24.8,33.1-36.6c2.7-2.7,5.4-5.3,6.9-6.8c-1.9-12.4-3.8-23-5.1-33.7c-1.2-10.3,4.8-20.1,3.6-31.9
	c-8.4,3.4-14.1,7-16.5,14.2c-2.1,6.4-4.5,12.7-6,19.1c-4.3,18.1-16.2,29.3-32.3,36.6c-3.2,1.5-7.8,1.4-11.3,0.4
	c-8.1-2.4-16.2-5.2-23.7-9c-12.1-6.1-18.4-16.6-17.8-30c0.9-19.1,6.1-37.1,20.9-50.4c12.7-11.4,28.1-14.4,44.5-9.5
	c6.7,2,12.9,5.6,19.5,8.3c16.3,6.6,34.1-0.3,42.2-16.8c-2-0.5-3.9-1.6-5.6-1.4c-7,0.8-13.9,2-20.9,2.9c-9.4,1.3-17.2-2.7-25-7.8
	c-2.1-10,0.2-18.9,7.4-26.1c8.4-8.4,15.8-17.8,27.6-22.6c8.3-3.3,13.6-10.4,16.9-19.3c4.6-12.7,12.4-23.6,21.8-33.4
	c1.9-2,4.3-4.2,5-6.7c3.4-13.7,15-20.8,23.8-30.1c7.2-7.6,17.2-12.2,22.7-21.9c1.4-2.6,5.7-4.1,8.9-5.2c5-1.7,10.2-3.5,15.4-3.7
	c17.8-0.7,35.7-5,53.4-0.6c6,1.5,11.6,4.8,17.2,7.6c6.3,3.2,13.1,5.8,18.3,10.3c10.2,8.7,19.4,18.4,29,27.7c2,1.9,4,4.1,6.4,5.3
	c5.4,2.9,6.9,2.6,9.3-3.6c1.8-4.7,4.8-5.7,9-5.5c10.2,0.6,19.2,5,27.6,9.9c7.3,4.3,7.7,13.5,4.9,21.2c-5.8,16-18.7,24-32.2,31.8
	c-1.7,1-3.2,2.4-5.2,4c6.1,6.7,13.3,4.1,19.7,3.6c10.1-0.7,17.5-7.3,24.3-13.9c5.3-5.1,9.2-11.6,14.3-16.9c16.4-16.8,42.9-22,64.5-3
	c11,9.7,14.7,22,17.1,35.2c0.8,4.3-0.5,9-1.3,13.5c-0.4,2.4-2.4,4.7-2.3,6.9c0.3,12.6-9.3,16.6-18.2,20.8c-6.5,3.1-17-0.6-21.1-7.9
	c-7.6-13.8-20.6-19.6-33.9-25.3c-3.9-1.7-7.5-1.9-11.1,0.3c-6.5,4-13,8.2-19.5,12.3c6.5,15.8,12.6,30.7,19.2,46.8
	c-0.1,0,1.8,0.9,3.2,0.4c11.3-4.2,22.2-0.7,33.3,1.1c17.4,2.7,31.2,12.4,44.9,22.2c8.5,6.2,17.1,12.5,24.5,19.9
	c13.8,13.6,21.6,31.3,29.1,48.7c1.9,4.4,4,7.4,8.3,8.4c12.2,2.6,21.2,10.9,31.4,17c4.7,2.8,8.1,7.8,11.7,12.1
	c4.5,5.5,9.2,7.5,16.6,5.4c12.1-3.5,24.5-6.4,36.9-8.6c19.7-3.6,39-9.7,59.4-9.5c9.4,0.1,10.8-7.5,9.7-15.2c-1-7.3-3-14.5-4.3-21.8
	c-2.8-17-4.9-34.2-8.3-51c-4.1-20.3-9.5-40.4-14.2-60.6c-0.9-3.8-1.4-7.6-1.9-11.4c-0.2-1.7,0-3.5-0.1-5.3
	c-0.8-17.5-2.6-19.1-20-19.3c-7.4-0.1-14.8-1.1-22.1-1.3c-11.1-0.4-18.6-5.2-22.1-16.1c-4.5-14-10.7-27.6-13.8-41.9
	c-3.4-15.7-9.4-31-9.4-47.5c0-6.5-3.4-12.9-4.4-19.4c-1.6-10.9,4.5-18,13.3-23.2c3-1.8,6.4-2.9,9.8-4c15.1-4.8,30.3-9.2,45.2-14.3
	c9.3-3.2,18.2-7.5,27.3-11.4c15.4-6.6,24.7-2.5,29.8,13.8c4,13.1,7.6,26.4,11.4,39.6c0.9,3,1.1,6.5,2.8,9.1
	c7.8,12.6,9.1,27.2,13.3,40.8c0.6,2,1.1,4.1,1.5,6.2c2,12.1,2.7,23.3-8.5,32.8c-6.6,5.6-11.6,12.9-19.8,17c-10,5-13.7,15.8-20,24.1
	c-1.3,1.7-1.6,4.8-1.2,7.1c2.8,16.3,5.9,32.5,8.9,48.8c4.1,22.8,8.4,45.6,12.1,68.6c2.4,14.9,2.2,30.5,6.4,44.9
	c4.7,15.9,4.6,32.3,8.7,48.1c1.6,6.1,4.2,11.9,6.3,17.9c5,14.6,9.7,29.2,14.9,43.7c3.7,10.5,8.1,20.8,12,31.2
	c1.2,3.3,1.8,6.8,3.2,10.1c3.1,7.8-1.1,12.9-6.4,17.4c-5.5,4.6-12,3.2-18.1,1.4c-1.8-0.5-3.4-3.4-4.2-5.5c-4.6-12.9-8-26.2-9.9-39.8
	c-3.4-25.1-7-50.2-10.9-75.2C782.6,725.4,780.1,719.5,777.9,711.8z M690.4,367.4c4.5,4.2,9.2,3.5,14.2-0.2
	c-2.6,16.3,0.5,14.3,11.1,18.7c7.3-5.1-1.6-12.8,2.9-18.3c10.6,2.2,10.5,2.1,16-8.2c1.7-3.2,4.4-5.9,6.8-9c1.7,1.4,2.7,2,3.2,2.8
	c6.2,10.3,6.8,10.3,14.9,0.6c1.6-1.9,3.9-3.1,5.9-4.7c-2.8,8.9-10,15.8-5.5,25.4c-3.3,1.2-6.7,1.5-8.3,3.3c-2.4,2.6-5.8,7.1-4.9,9.5
	c1.3,3.7,5.3,7.4,9.1,9.1c4.4,2,6.7-2.5,8.6-5.9c1.7-3.1,3.1-6.3,4.9-9.3c0.7-1.2,2.2-1.8,5.5-4.3c-1.2,4.4-1.4,6.3-2.3,8
	c-1.8,3.4-3.9,6.7-5.8,10.1c-1.9,3.3-2.9,6.8,0.4,9.6c3.3,2.8,7,3,10.4-0.3c0.9-0.9,1.8-1.8,3.3-3.2c1,8.3,1.2,15-6.4,19.2
	c-1.1,0.6-1.7,2.2-2.3,3.5c-2.8,5.5-2,8.6,3.9,10.7c4,1.4,8.6,1.3,12.9,1.8c4.5,7.5-3.6,8.9-6.5,12.7c4.5,5.8,4.5,5.8,4.4,11.2
	c-2.7,0.2-5.7,0-8.2,0.9c-2,0.7-4.9,2.8-4.9,4.3c0,2.4,1.7,5.4,3.6,6.7c1.3,0.9,5,0.2,6.4-1.1c8.2-7.7,14.6-16.8,12.7-28.7
	c-2-12.8-4.7-25.6-7.8-38.2c-3-11.9-7.1-23.5-10.7-35.3c-1.9-6.4-3.2-12.9-5.6-19.1c-4-10.7-6-11.8-17.3-10.4
	c-2.7,0.3-5.3,1.6-7.9,2.6c-11.7,4.7-23.5,9.2-35,14.5c-7.3,3.4-16,4.3-21.6,11.2c-5.2,0.5-10.3,0.7-15.5,1.4c-6,0.8-9,4.6-8.7,11.1
	c0.1,2.1,0.5,4.2,0.9,6.3c4.1,21,8.1,42,12.5,62.9c1.6,7.5,4.9,14.6,6.5,22.1c3.1,14.9,15.7,21.4,28.2,22.8
	c9.8,1.1,19.5,2.6,29.2,3.8c4.1,0.5,8.3,1.4,10.9-3.7c-6.8-3-13.5-5.1-19.3-8.7c-5.2-3.3-9.3-4.5-14.3-0.4c-0.9,0.7-2.5,0.6-4.8,1
	c2.2-12.1-6-17.4-13.5-23.1c-2.2-1.7-4.7-3.2-6.7-5.1c-2.8-2.6-5.2-5.5-7.7-8.2c4.8-10.5,7.2-20.5,2.5-31.4
	c6.4-0.9,11.8-2.3,11.4-10.2c-3.1-3.5-5.5-8.5-11.8-8.2c-4.1,5,0.2,13.8-9.1,16.3c-0.5-2.5-1.6-4.9-1.2-6.9c0.9-4.4,2.1-9,4.2-13
	c4.5-8.5,10.5-16.5,5.7-26.9C689.8,368.9,690.3,368.1,690.4,367.4z M133.3,791.9c0,1.1,0,2.1,0,3.1c-5.3,2.6-10.7,5.1-15.9,7.8
	c-12.7,6.7-21.7,17-27.2,30c-4.8,11.3-8.9,22.9-12.2,34.7c-3.5,12.3-10,24.2-5.6,37.9c1.4,4.3,0.4,9.3,1.9,13.5
	c3.6,10.4,5.6,21.7,15.3,29.2c7,5.3,13.7,11.1,19.8,17.5c13.4,14.1,28.6,20.6,47.8,13.5c3.9,5.7,4.1,5.8,1.6,10.9
	c-5.1,10.4-6.5,21.6-5.1,32.8c1.1,8.7,3.2,17.3,5.4,25.8c4.9,18.7,14.7,35.4,26.3,50.1c9.8,12.4,22.5,23.3,39.1,27.9
	c8,2.2,15.4,6.6,23.4,9.4c3.9,1.3,8.4,0.9,12.5,1.7c23.2,4.8,46.3,3.2,69-2.6c20.6-5.2,35.8-17.6,44.5-37.4c1.3-2.9,3-5.6,4.6-8.3
	c4.9-8.2,7.2-8.5,15.1-3.6c5.3,3.3,11.3,5.4,16.9,8.4c5.9,3.1,11.5,6.6,17.3,9.9c4.5,2.5,8.8,5.7,13.6,7.4
	c7.9,2.7,16.1,5.3,24.4,6.2c12.5,1.3,25,4.6,37.7,1.2c13.2-3.6,26.5-7.4,39.9-10.2c15.6-3.2,28.5-11.8,41.7-19.8
	c16.2-9.9,25.4-26,36.3-40.7c2.9-3.9,5.8-7.9,8.3-12.2c13.3-23.2,17.8-48.9,19.4-74.9c0.9-14.8-1.7-29.9-3.1-44.8
	c-0.6-6.5,1.4-8.3,7.7-6.5c2.5,0.7,6.3,1.8,7.5,0.7c5.5-5.3,11.4-10.7,15.1-17.3c4.7-8.1,8.1-17.2,10.8-26.2
	c5-16.6,7.1-33.7,3.8-51.1c-1.8-9.6-3.6-19.3-5.4-28.9c-0.8-4.1-1.2-8.3-2.6-12.2c-2.7-7.6-6-14.9-8.9-22.5
	c-8.4-21.7-23.4-38.5-41.1-52.8c-9.6-7.7-20.7-13.5-33.4-15c-4.3-0.5-8.7-0.7-14.7-1.2c3-4.1,5.1-7,7.6-10.5
	c-5.3-10.5-10.5-21.2-16.1-31.8c-2.4-4.6-4.9-9.4-8.4-13.2c-9.9-10.6-21.1-19.1-33.8-26.6c-17.1-10-34.4-17.4-54.4-17.9
	c-13-0.3-17.1,2.6-18.5,15.7c-1.1,10-5.7,18-12.8,24.8c-2.2,2.2-4.2,4.6-6.3,6.9c-5.1,5.7-10.2,11.5-15.5,17.1
	c-1.7,1.8-4.4,2.8-5.6,4.7c-10.2,16.5-20.1,33.1-30.1,49.7c-2.8,4.7-1.1,8.1,3.3,10.4c3.4,1.8,7.1,3.1,10.7,4.6
	c5.5,2.4,11,4.7,16.5,7c5.8,2.4,11.6,4.9,17.5,7.2c3.6,1.4,7.3,2.4,10.9,3.9c15.5,6.7,31,13.5,46.5,20.4c9.3,4.2,19,7.8,25.1,16.9
	c0.9,1.4,2.6,2.4,4.2,3.2c23.4,12.2,46.6,24.7,70.2,36.5c16,8.1,17.2,9.7,13,26.7c-2.5,9.8-7.1,12.2-16.1,7.7
	c-8.2-4-16-8.7-24.1-12.8c-14.1-7.2-28.2-14.4-42.5-21.4c-4.1-2-8.5-3.8-12.9-4.2c-5.7-0.5-9.7-3.1-13.9-6.6
	c-8.6-7.3-17.1-14.8-26.5-20.8c-17-10.8-34.5-20.8-52.1-30.5c-12.6-7-25.9-13-38.7-19.5c-5.7-2.9-11.3-3.8-17.1-0.7
	c-6.8,3.7-13.4,7.8-20.5,11c-12.9,6-26.4,8.7-40.7,8.4c-14.2-0.3-26.9-5.6-39.5-10.5c-11.4-4.5-22.1-10.8-32.8-16.8
	c-7.6-4.2-14.3-10.5-22.2-13.7c-12.2-5-23.8-10.3-33.1-19.9c-3.3-3.4-7.4-4.6-12.5-2c-12.5,6.3-21,17.5-31.8,25.8
	c-1.8,1.4-3,3.9-4.1,6.1c-2.8,5.6-5.6,11.2-8.1,16.9c-1.8,4.1-3.9,8.3-4.6,12.7c-1.3,8.7-1.3,17.5-2.5,26.2
	c-1.9,13.6,1.4,17.3,15,16.1C129.3,790.4,131.3,791.4,133.3,791.9z M240.9,1212c0.5,0.1,0.9,0.2,1.4,0.3c0,4.9-0.5,9.9,0.1,14.7
	c1.2,8.8,8.6,13.9,17.7,12.8c6.3-0.7,9.8-6.4,9.6-15.1c-0.1-4.6-0.1-9.2-0.2-13.8c-0.1-6.6,0.3-13.1,4-19.6c3.8,16.2-4,33,4.4,47.8
	c7.3,0,13.9,0,20.7,0c5.6-12.2,2.5-26.4,11.1-37.3c0.5,3.3,0,6.6-0.2,9.8c-0.5,7-1.6,14-1.3,21c0.3,7.5,1.6,8.4,9,8.6
	c9.2,0.2,18.4,0.2,27.6,0c8-0.1,10.7-1.9,12.8-9.8c4.2-15.7,8-31.5,11.7-47.3c2.7-11.6,6.7-22.5,13.5-32.3c-1.5,7.5-4.1,14.7-5.9,22
	c-4.6,19.5-8.8,39.1-13,58.8c-0.7,3.4,0.8,6.4,5,6.5c5.6,0.1,11.3,0.6,16.9-0.1c14.6-1.9,28.9-5.4,37.2-19.2
	c4.5-7.5,9.2-15.4,11.3-23.8c4.6-18.8,7.7-37.9,11.3-56.9c0.7-3.9-0.5-6.6-4.4-8.5c-14.9-7.6-29.5-15.6-47.1-8.6
	c-1.6,0.6-3.5,0.1-5.2,0.5c-9.2,2.1-18.6,2.4-26.7,8.9c-13.7,11.1-29.4,18.4-47.1,19.8c-15,1.1-29.9,5-45.2,1.7
	c-7.5-1.6-15.3-2.4-23-2.9c-8.7-0.5-9.3,0.1-11.4,8.7c-2.3,9.9-3.8,20-6.4,29.8c-2.6,9.6-9.3,14.8-18.7,13.6
	c-11.8-1.5-23.5-4.3-35.2-6.6c-5.1-1-7.7-4.3-9-9.2c-1.7-6.2-2.3-12.3-0.3-18.7c4.8-15.5,9-31.1,14-46.5c2.3-7.4,0.4-12.5-4.9-17.9
	c-6.4-6.5-12.3-13.7-16.8-21.6c-5.3-9.4-9.8-18.6-22.7-17.8c-0.7,0-1.3-0.4-2-0.6c-12.1-3.6-24.2-7.4-36.4-10.6
	c-12.6-3.3-25.4-5.5-38-8.8c-13.5-3.6-17.1-2.4-21.7,10.4c-5.3,14.8-10.7,29.7-15,44.9c-3.1,11.1-5,22.6-6.5,34
	c-1.6,12.2-1.8,24.6-3.3,36.8c-1.5,12.7,0.6,16.2,14.4,19.7c0.9-2.1,2.4-4.2,2.7-6.5c1.2-9.6,1.8-19.4,3.1-29c1-8.1,2.6-16,3.9-24.1
	c0.7,0.1,1.5,0.2,2.2,0.3c-0.6,4.1-1,8.3-1.7,12.4c-3.1,16.8-4.7,33.4,2.5,49.7c4.1,9.3,3.9,9.7,15.2,7.7c1.2-3.3,2.5-6.9,4.1-11.3
	c3.4,10,4.8,21.2,18.5,21.5c1.8-3.7,3.6-7.2,6-12.1c1.8,4.5,2.9,7,3.9,9.6c2.7,7,8.6,10.5,16.6,9.2c5.8-0.9,6.2-5.9,6.9-10.5
	c0.1-0.4,0.8-0.7,1.6-1.2c1.1,3.5,2.1,6.9,3.3,10.1c1.4,3.8,4.4,5.1,8.4,5.1c4.1,0,6.9-1.6,7.9-5.5c1.1-4.5,1.9-9.1,3.2-15.5
	c1.9,6.9,3.5,11.9,4.6,17c1,4.6,4.2,6.6,8.1,7.2c4.6,0.7,7-2.5,8.7-6.2c0.7-1.5,1.1-3.2,2-5.6c4.8,6.4,2.3,16.9,14.2,17.9
	c8.6,0.7,16.3,1.7,21.8-3.7c5.5,3.1,9.7,6.6,14.5,7.7c6.4,1.5,13.3,1.3,20,1.3c4,0.1,6.4-2.5,7.4-6.4
	C237.9,1223.3,239.4,1217.6,240.9,1212z M142.7,555.7c3.2,1,6,2.5,8.9,2.6c6,0.2,12.1,0.2,18-0.6c15.7-2.1,31.3-4.7,47-7.1
	c12.5-1.9,25.2-3.1,37.5-6c22.9-5.5,45.6-11.8,68.3-18.2c7-2,13.7-5.3,20.2-8.7c9-4.7,17.5-10.6,27.7-12.3
	c6.2-1.1,12.7-1.1,18.7-2.8c19.7-5.5,33.7-19.9,48.8-32.5c1.5-1.3,3-3.6,2.9-5.5c-0.1-2.9-0.6-7-2.5-8.3c-9.3-6.5-19.5-9.5-30.7-4.7
	c2.5,9.2,2.5,9.2-5.7,14c-0.8-1.1-1.7-2.1-2.5-3.3c-17.5-23.5-37.5-43.7-66.3-53.7c-8.8-3-17.3-2.5-25.9-3.2
	c-3.6-0.3-6.5,1.4-7.5,5.8c-2.9,12.7-11.8,18.4-24.2,19.9c-3.8,0.5-7.8,0.9-11.3,2.4c-5.6,2.4-10.6,2.8-15.9-0.5
	c-4.2-2.6-8.1-1.8-11.3,2c-7,8.3-14.6,16.1-20.9,24.9c-6.2,8.7-12,18-16.5,27.7c-6.2,13.1-14.5,25.7-14.4,41.1
	c0,2.6-1.5,5.4-2.9,7.8c-0.7,1.3-2.7,2.6-4,2.5c-1.2-0.1-2.7-1.9-3.3-3.3c-1.2-3.1-1.9-6.4-3.2-11
	C158.4,532.1,146.6,538.6,142.7,555.7z M233.7,698c4.1,0.3,6.6,0.5,9,0.6c18,0.6,32.5-5.8,44.4-19.9c10.7-12.7,14.5-27.9,19-43.1
	c3.1-10.5,1.8-21-1.9-31.1c-4.1-11.2-10.8-20.7-21.9-25.8c-11.8-5.5-24.1-9.4-37.3-11c-23.5-3-43.4,2.1-57.2,22.9
	c-1.2,1.8-2.3,3.9-4,4.9c-9.4,5.4-12.3,14-15,24c-2.7,9.9-4.4,19.2-0.8,28.8c2.5,6.9,5.7,13.6,8.2,20.5c7,18.8,32.8,31.8,51.7,29.6
	C230.5,698.2,232.9,698,233.7,698z M453.8,585.2c-1.3-6.5-2.3-13.1-4.1-19.5c-4.3-15.4-14.7-27.1-24.8-38.8
	c-11.1-12.9-25.8-14-40.8-10.5c-10.9,2.5-21.4,7-32,10.9c-11.4,4.2-19.3,18.2-18.1,30.4c1,9.4,2.4,19,1.8,28.4
	c-1.3,18.1,5.9,31.8,18.4,44c18.3,17.8,45.4,14.2,60.7,4.6c8.3-5.2,15.4-12.3,23.2-18.4C448.3,608.6,453.6,598.5,453.8,585.2z
	 M209.8,1192.2c5.4-0.4,9.6-2.5,11.4-7.9c2.9-8.7,6-17.3,8.4-26.1c3.5-12.7,2.5-14.3-9.9-20.1c-1.3-0.6-2.6-1.2-3.8-1.8
	c-6.6-3.4-13.1-6.9-19.7-10.2c-7.9-4-11.7-1.8-13.2,6.5c-1.4,7.9-3.9,15.7-5.5,23.6c-1.2,5.8-2.6,11.7-2.7,17.6
	c-0.2,8.6,2.6,12.2,11.1,14.4C193.8,1190.1,201.9,1190.9,209.8,1192.2z M389.6,718.8c-0.8,1-1.5,2.1-2.3,3.1
	c18.5,13.8,39.9,23,59.4,35.2c19.5,12.1,39.8,23.1,59.6,34.6c7.9-9,8.4-11.6,0.2-18.4c-6.4-5.3-13.8-9.6-21.3-13.2
	c-15.5-7.5-31.3-14.5-47.1-21.3C422,731.9,405.7,725.5,389.6,718.8z M97.6,1031.3c-3.8-4.4-1.2-7.5,1.1-10.5
	c5.1-6.7,10.4-13.3,15.4-20.1c2.3-3.2,3.8-7,0-10.4c-3.8-3.4-8-3.2-11.3,0.2c-6.2,6.2-12.2,12.6-17.6,19.5
	c-2.2,2.8-3.1,7.1-3.7,10.8c-1.1,7.1,0.1,9.2,6.8,12.4c4.4,2.1,9.3,2.9,13.7,5c5.5,2.6,8.8-0.3,11.5-4.2c4.8-6.9,9.3-14,14-20.9
	c2.3-3.4,4.3-6.7-0.1-9.9c-3.9-2.8-7.4-1.7-10,2.1c-3.9,5.8-7.9,11.6-11.2,17.7C104.2,1026.7,102,1029.9,97.6,1031.3z M547.1,801.7
	c-1.2,0.8-4.2,1.9-4.4,3.3c-0.2,1.6,1.8,4.3,3.5,5.3c7.9,4.5,16,8.7,24,12.9c6.9,3.6,13.7,7.3,20.8,10.3c1.9,0.8,6.3-0.2,7.2-1.8
	c0.9-1.7,0-5.7-1.5-7.4c-3.1-3.3-7-7.4-11-7.9c-11.6-1.6-20.6-9-31.2-12.5C552.4,803.3,550.4,802.7,547.1,801.7z M142.1,1044.9
	c2.5-7.6,2.9-14.8,1.6-19.2c-2-6.4-9.1-9.1-14-4.6c-3.2,2.9-5.7,7.1-7.5,11.1c-1.8,4.1,0,8,4.3,9.3
	C131.4,1043.1,136.5,1043.7,142.1,1044.9z M67.3,1024.5c3.2-4.3,6.4-8.7,9.7-12.9c3.7-4.7,8-9,11.3-13.9c3-4.3,8.6-6.9,9.7-13.5
	C73.9,992,61.4,1007.2,67.3,1024.5z M739.4,480.9c5.2-4.1,5-9.3,3.2-13.8c-1-2.7-4.4-4.4-6.7-6.5C726.9,471.6,728,476.5,739.4,480.9
	z M722.5,429.4c-0.2,3.3-1.1,7.2-0.3,10.7c0.5,2.1,3.3,4.9,5.4,5.2c2.1,0.3,5.4-1.6,6.7-3.5c1.3-1.9,1.7-5.7,0.6-7.6
	C732.6,430.4,729.1,427,722.5,429.4z M718.6,468.1c5.3-4.2,8.3-9,9.5-15.6c-3.1-1.5-5.8-2.9-8.4-4.2
	C711.3,459.7,711.1,462.2,718.6,468.1z M751.6,401.6c-3.5-2.1-6.7-4.1-9.8-6c-5.5,3.2-6.1,7.7-3,11.6c2.1,2.6,6.4,5,9.4,4.7
	C753.3,411.3,752,406.3,751.6,401.6z M732.4,411.4c-4.4,3-5.9,7.1-3.5,10.4c2,2.7,6.2,5.1,9.6,5.3c4.7,0.3,5.4-4.4,6.6-9.2
	C740.7,415.7,736.4,413.5,732.4,411.4z M753.8,470.7c-5.9,7.2-6.8,9.5-5.2,12c1.7,2.6,13.3,5.6,16.2,4c1.3-0.7,2-2.4,3.8-4.5
	c-3.6,0-5.8,0-6.4,0C759,477.8,756.5,474.4,753.8,470.7z M737,385.9c3.6-5.9,6.6-9.5,8.2-13.8c1-2.7-3.9-6.6-6.1-4.9
	c-3.3,2.5-6.1,6.2-7.7,10C730.8,378.6,734.1,381.7,737,385.9z M742.3,441.4c-1.1,3.3-2.7,5.9-2.6,8.5c0.1,2.3,1.4,5.3,3.2,6.8
	c2.9,2.3,5-0.2,6.7-2.6C754.2,447.4,752.2,443.5,742.3,441.4z M268.1,418.5c12,3.6,16.7,1.3,17.4-8.2
	C276.3,409.7,272.2,411.5,268.1,418.5z M762.7,424.4c2.5-3.1,7.5-5.5,5.3-10.9c-0.8-2-4.5-4-6.7-3.8c-2,0.2-4.8,3-5.4,5.2
	C754.6,419.6,757,422.9,762.7,424.4z M701.3,434.3c-1.6,3.2-3.8,5.6-3.9,8.1c-0.1,2.2,1.6,5.2,3.4,6.7c2.7,2.2,5.2,0.3,7-2.4
	C711,442,709.6,439,701.3,434.3z M704.7,402.6c2.6-3.9,5.2-6,5.5-8.5c0.5-3.8-6.1-7.9-14-9.1C698.9,390.5,701.2,395.3,704.7,402.6z
	 M707.5,414.2c-0.2,6.4-0.6,10-0.3,13.6c0.1,1.3,1.8,3.3,3.1,3.6c1.3,0.3,3.8-0.7,4.4-1.8c1.2-2.3,2.8-5.7,2-7.5
	C715.4,419.5,712.1,417.9,707.5,414.2z M734.9,390.2c-4.5-2.3-7.9-6.2-11.7-1c-2.2,3.1-0.6,7.4,3.1,8.7
	C732.6,400.1,732.9,395,734.9,390.2z M754.8,466.5c8.4,0.7,9.2-4.8,11.2-8.4c0.6-1.2-1.4-3.9-2.2-5.9c-2,0.9-4.9,1.3-5.7,2.8
	C756.4,458.2,756,462,754.8,466.5z M761.9,432.4c-4.3-2.6-6.8-4.8-9.8-5.7c-0.7-0.2-3.7,3.8-3.9,6c-0.5,4,3.4,5.6,6.4,5.4
	C756.5,438,758.5,435.2,761.9,432.4z M719.3,399.1c-1,0.4-2.1,0.7-3.1,1.1c-0.1,2.9-1.1,6.2,0,8.6c0.8,1.7,4.6,3.4,6.5,2.9
	c2.9-0.7,4.1-4,2.1-6.9C723.4,402.6,721.2,401,719.3,399.1z M768.2,437.3c-3.8,3.5-5.2,6.9-0.7,9.7c1.5,0.9,5.7,0.3,6.4-0.9
	C776.9,441.1,772.3,439.7,768.2,437.3z"/>
<path fill-rule="evenodd" clip-rule="evenodd" d="M428.6,349.9c-3.7,6.1-8,4.7-11.9,3.3c-4.6-1.7-9-4.1-13.6-6
	c-1.1-0.5-3.3-0.5-3.8,0.2c-0.9,1.2-1.5,3.3-1.1,4.6c2.5,7.6,5.3,15.1,8.1,22.9c-1.8,3.1-4.7,4.3-7.2,0.8c-2.4-3.3-4.3-7.2-5.7-11.1
	c-2.3-6.1-4-12.4-6-19c-8,1.7-7.9,7.4-9,12.4c-1.1,5.4-1.1,5.4-8.1,8.3c-0.3-1.8-1.3-3.7-0.8-5c3.3-7.7,6-15.9,10.6-22.8
	c5-7.4,5.7-13.9,1.3-21.6c-3.7-6.3-6.8-12.9-10.5-19.8c-10.3,4-19.5,8-29,10.9c-8,2.5-10.8,8.7-12.8,15.5c-1.2,4-1.2,8.3-1.9,12.5
	c-0.8,4.9-1.9,9.7-7.7,11.9c-6.6-6.7-1.3-15.1-4.5-22.6c-5.9-0.9-8.5,4-11.9,7.7c-3.5,3.8-6.6,8.5-12.7,8.5c-3.5-6.1-3.2-8.3,2.2-13
	c4.5-3.9,9.4-7.5,13.9-11.4c5.9-5.3,5.7-8-1.4-11.9c-3.6-2-8-2.5-11.8-4.3c-3.3-1.6-6.6-3.6-9.3-6.1c-1.1-1-1.5-4.6-0.7-5.6
	c1.3-1.6,4-2.5,6.2-2.8c1.5-0.2,3.4,0.9,4.9,1.8c7,4.1,14.2,7.9,20.7,12.8c4.4,3.2,8.4,3.9,12.6,1.3c7.7-4.8,16-9.3,22.5-15.5
	c6.4-6.1,5.6-15.7,5.4-24c-0.1-5-5.6-7.3-10.3-7.4c-5.9-0.2-11.9,0.5-17.8,1.2c-3.5,0.4-6.8,1.8-10.3,2.3c-9,1.2-11.2-1-11.8-10
	c-0.5-8-1-16.1-2.3-24.1c-1.7-10.9-11.6-16.6-22.1-12.6c-9.8,3.7-19.1,8.7-28.7,13c-0.8,0.3-1.9-0.2-4.7-0.6
	c3.1-5.1,5.6-9.4,8.3-13.7c7.5-12.2,5.4-23.7-5.9-32.4c-2.8-2.1-5.6-4.3-8.7-6.1c-5.9-3.6-12.1-6-18.8-1.7c-1.1,0.7-2.7,0.5-3.8,0.7
	c-8.1-10.9-7.3-14,3.9-20.8c22.6-13.7,45.6-26.8,65-45c7.5-7,14.5-14.5,24.5-17.9c2.2-0.7,4.5-1.2,6.8-1.8c0.7,1.6,1.6,2.6,1.4,3.4
	c-3.4,17.9-0.3,35,6.2,51.7c4.6,11.8,8.7,23.7,13.7,35.3c6.7,15.3,20.9,21.4,35.3,26.5c7.7,2.7,11.3,0,13.8-8.4
	c5.5-18,8.2-36.5,7.3-55.3c-0.5-9.8,4.6-17.5,8.1-25.9c1-2.3,3.7-4.4,6.1-5.6c11.4-6,19.1-15.3,24.9-26.4
	c5.1-9.6,10.2-19.2,15.2-28.8c1.4-2.7,1.8-7.2,6.1-5.6c3.9,1.4,5.9,5.2,5.1,9.5c-1.1,5.8-2.7,11.6-4.1,17.4
	c-2.1,8.7-2.5,17.3,1.6,25.4c8.3,2.7,13.2-2.1,17.6-7.3C485,83,492.1,73.9,499.6,65c1-1.2,2.9-1.8,4.3-2.6c4.6,4,4.6,8.1,1.6,12.4
	c-2.2,3.2-4.4,6.5-7.2,9.1c-9.2,8.3-14.8,18.7-18.8,30.2c-1.6,4.6-1,8.6,0.6,13.3c2.8,8.2,4.8,16.8,6.5,25.4c1,5.1-0.6,9.8-5.6,12.7
	c-8.9,5.3-9.7,14.1-9.1,22.9c0.8,12.8-3.4,18.9-15.7,19.8c-6.9,0.5-13.9-0.1-20.9,0.2c-6.2,0.3-12.5,1.2-20,1.9c1.4,4,2,7.1,3.5,9.7
	c10.9,17.7,26.8,27.2,47.5,25.5c16.7-1.3,33.7-1.7,50.1-7.1c10.9-3.6,20.8-8.6,29.9-15.4c4.5-3.4,9-6.8,13.6-10
	c3.3-2.2,6.6-1.6,7.4,2.5c0.8,4.3,2.2,9.9,0.3,13.1c-7.6,12.4-7.8,26.2-9.1,39.7c-1.5,15.3-0.8,30.8-2.5,46.1
	c-1.5,13.5-0.6,26.7,0.6,40c0.4,4.7,0.2,9.2-3.7,12.6c-4.2,3.7-8.4,2.7-9.1-2.8c-0.5-3.4-0.2-7.1,0.4-10.5
	c2.4-12.7-0.8-22.9-12.2-30c-2.1-1.3-4.2-2.8-5.7-4.6c-7-8.2-16.2-8.7-25.9-7.9c-4.2,0.3-7.2,1.2-9.2,5.5c-0.7,1.5-4.4,2.9-6,2.3
	c-1.6-0.6-2.9-3.7-3.1-5.8c-1.9-18.8-1.9-18.3-20.1-20.3c-12.8-1.4-24.5,1.2-35.8,6.6c-1.9,0.9-3.7,2-5.7,2.8
	c-5.2,1.9-8.2,0-8.4-5.5c-0.1-2.5,1-5.2,0.3-7.3c-1.5-4.6-2.9-9.5-5.9-13.1c-4.1-5-11.5-2.5-12.8,4c-3.2,16.2-2.5,32.1,4,47.4
	c3,6.9,9.3,10.3,15.2,14C417.4,344.7,422.6,346.9,428.6,349.9z M448.5,139.2c0-17-8.4-27-22.8-27.1c-11.4-0.1-21.7,12.5-21.8,26.5
	c0,10.4,12.2,24.2,21.5,24.2C436,162.7,448.5,149.9,448.5,139.2z M475.4,144.5c1.2-15.9-5.6-24.1-19.9-22.1c0,3.7-0.6,7.6,0.1,11.2
	c1.8,9.2,2.5,18.1-3.9,26.1c-0.4,0.6,0.1,1.9,0.2,3.3c6.2,0.4,12.3,2.5,16.4-1.3c-1.8-4.4-5.2-9.2-4.2-10.4
	C466.6,148.3,471.1,146.9,475.4,144.5z"/>
<path fill-rule="evenodd" clip-rule="evenodd" d="M999.5,37c-2.6,4.2-5.5,5.5-9.4,3.4c-9.8-5.4-17.7-1.3-24.8,5.4
	c-9.7,9.1-17.1,19.8-18.2,33.5c-0.3,3.7,0.2,7.7,1.5,11.1c3.3,8.1,0.5,15.8-7.7,19.6c-7,3.3-14.1,6.5-20.7,10.5
	c-4.1,2.5-7.8,6.1-10.8,9.9c-7.3,9.3-6.5,16.7,1.9,25c6.2,6.1,14.6,6.9,22.3,7.9c7.2,0.9,9.2-6.6,12.9-11.1
	c4.2-5.1,8.3-10.3,12.9-15c1.9-1.9,5.1-2.7,8.3-3.2c-4.6,7.9-15.9,12-11.8,24.1c10.8,3.3,21.4-7.9,33.8-1.4
	c-6.2,7.6-14.1,8.6-21.2,10.5c-18.1,4.8-18.9,6.2-8.2,21.9c0.4,0.6,0.5,1.3,0.8,1.9c-5.1,7.3-7.7,7.7-12,1.2c-3-4.7-5.1-10-8-15.8
	c-5.7,0-12.2,0-19.1,0c-1.5,11.7-4.2,22-11.7,30.7c-3.9,4.5-3,12.6,2.3,17.3c4.9,4.3,11,7.4,17,10.2c4.1,1.9,8.9,2.1,13.2,3.5
	c2.4,0.8,4.5,2.6,6.7,4c-0.1,0.8-0.2,1.6-0.3,2.4c-6.6,1.4-13.2,2.8-20.4,4.3c-1.2,8.2,1.5,14.7,8.8,18.2c4.6,2.2,3.7,4.8,2.1,7.5
	c-2.2,3.8-5.6,2.7-7.9,0c-2.5-2.9-4.4-6.3-6.4-9.7c-2.3-3.9-4.2-8-7.1-13.3c-4.8,6.2-4,12.1-3.2,17.7c0.8,5.9-0.9,8.7-7.8,9.1
	c-0.4-2.9-0.9-5.5-1-8.1c-0.6-11.6-0.8-23.2-1.5-34.9c-0.5-8.1-6-13.5-11.9-17.8c-3.8-2.7-7.3-0.1-9.9,3.4
	c-10.6,14.1-10.2,30.6,0.6,44.7c2.5,3.2,4.9,7,5.5,10.8c1.5,9.1-1,13.2-9.5,16.5c-5.2,2-10.8,3-16.3,4.2c-4.5,1-9.1,1.4-13.5,2.6
	c-14.3,4.1-23.3,15.5-23.4,30.4c-0.1,12.3,0.7,24.7,1.3,37c0.3,5.9-0.1,7.6-6,16.8c-4.7,0.2-7.1-2.2-9.3-6.5
	c-7.3-14.4-15-28.7-23.1-42.7c-11.2-19.3-24.7-36.8-41.8-51.3c-8.3-7-15.3-14.6-16.6-26.6c7.1-5.4,14.6-10.9,23.8-12.2
	c22.4-3.2,40.8-14.4,58.6-27.6c11.5-8.6,18-20.6,25.8-31.8c1.3-1.8,2.3-4.9,1.8-6.9c-2-8.1-4-16.4-7.3-24.1c-2.4-5.6-7-5.7-10.8-0.9
	c-2.4,3-4.2,6.5-5.6,10c-5.4,13.3-13.1,17.9-27.2,15.3c-3.1-0.6-6.3-1-9.2-2.1c-8.2-3.3-16.4-5.4-25.5-5.5
	c-13.3-0.2-23-10.4-24.4-25.8c-1.1-11.9-3.1-23.1-7.3-34.5c-4.6-12.4-9.3-24.7-14.9-36.7c-1.1-2.3-1.3-4.9-1.9-7.5
	c6.3-2,9.1,1.6,12.3,4.2c7.4,6,14.4,12.5,22,18.2c4,3,9,4.6,13.8,7c3.4-7.8,6.4-14.1,8.9-20.5c0.7-1.8,0.7-4.4,0-6.2
	c-5-12-9.9-24.1-15.5-35.8c-1.6-3.4-4.4-6.3-0.6-9.2c4-3.2,6.3,0.9,8.7,3.2c3.5,3.4,7,6.9,10.4,10.4c8.5,8.6,19.2,13,30.8,14.9
	c11,1.8,19.3,6.8,23.8,17.1c5.2,11.9,9.5,24.2,14.9,36c3.9,8.6,8.7,16.9,13.6,25c2.8,4.7,7.1,7.9,13.7,7.1
	c5.1-8.7,7.6-18.4,9.4-28.5c2.2-12.1,4.5-24.2,7.8-36c5.6-20.3,9.1-40.5,3.9-61.4c-0.8-3.3-1.3-6.7-2-9.9c10.6-3.9,17-2.9,23.1,5.6
	c7.3,10.2,18,13.5,28.8,15.5c10.6,2,21.6,1.5,32.2-2.5C980.6,15.5,992.8,20,999.5,37z M814.6,93.7c-1.5-5.7-2.3-11.6-4.5-17
	c-3.1-7.9-8.5-9.7-16.6-6.8c-1.3,0.5-2.8,1.4-3.9,1.2c-8-1.7-13.3,2-17.9,8.1c-4.7,6.4-5,13-4,20.8c1.3,10.1,7.9,15.2,14.9,20.5
	c7.9,6,14.7,5.6,21.3-1.7C810.2,111.9,814.3,103.8,814.6,93.7z M756.8,105.7c-15,9.8-20.9,24.9-17.3,40.2
	c2.7,11.6,16.2,20.5,28.5,10.5c6.2-5.1,11.9-10.8,17.7-16.4c2.6-2.5,1.5-5.1-0.7-7.4c-8.3-8.5-16.7-16.9-25.1-25.3
	C759.4,106.6,758.2,106.4,756.8,105.7z"/>
<path fill-rule="evenodd" clip-rule="evenodd" d="M314.9,991.2c-1.7-0.4-4-1.3-6.2-1.5c-4.8-0.4-9.8,0-14.5-0.8
	c-9.3-1.7-14.6-8.6-16-19.9c-1.5-12.2-3.1-24.3-4.7-37c-7.2-3.9-14.5-7.1-23.6-6.7c-6.5,0.3-13.1-2-19.7-3c-6.5-1.1-13.1-1.9-19.7-3
	c-10.6-1.9-15.8-7.4-15.2-17.9c1-17.6,2.6-35.1,4.4-52.6c0.6-5.1,2.3-10.3,8.8-11.8c6.1-1.5,10.2,1.3,13.9,5.5
	c0.9,1.1,1.8,2.2,2.6,3.3c8.9,13.1,18.8,25.3,31.8,34.5c1.1,0.8,2.1,1.9,2.9,3c6.1,8.5,12.1,17.1,18.3,25.6
	c3.8,5.2,5.5,5.3,11.6,1.9c8.3-4.7,16.2-10.1,26.5-9.3c3.4,0.2,5.8-2,6.5-5.7c1.2-5.5,2.6-10.9,4-16.6c-8.2-7-8.9-16.4-8.4-26.1
	c0.4-7.1,3.8-11.8,10.6-12.5c6.4-0.7,10.3-3.8,13.7-8.6c1.4-2,3.3-3.7,4.9-5.5c6.4-7.2,14-10.7,23.4-6.8c5.5,2.3,9.2,1.1,13.1-2.9
	c8.9-9.2,22.7-11.3,32.4-3.1c9.2,7.7,18.9,11.1,30.4,12.2c4.7,0.4,9.6,2.7,13.8,5.1c8.2,4.7,10,13.3,10.9,21.6
	c1.1,10.1,1.3,20.4,1.1,30.6c-0.1,3.7-2.4,7.3-3.4,11c-1,4-2.7,8.3-2.3,12.2c2,18.1,4.7,36.2,7.2,54.3c1.9,13.6,3.5,27.2,5.9,40.7
	c2.5,14.1-14.2,32-30.9,29.9c-7.3-0.9-14.7-1.5-22.1-2.2c-20.4-1.7-40.7-3.1-61.1-0.2c-9,1.3-18.2,1.8-27.4,2.2
	c-8.6,0.5-16.7-1.8-23.8-5.7C314.9,1014.1,314.9,1003.6,314.9,991.2z M374.6,880.8c-1.1,4.9-1.8,8.2-2.4,11.4
	c-1.1,6.4,1.1,11.9,5.9,16c4.9,4.1,10.7,5.8,16.6,2.1c4.4-2.8,8.3-6.4,12.4-9.6c2.3-1.8,4.7-3.6,7.4-5.7c1.8,2.7,3,4.4,4.2,6.1
	c4.5,6.8,11.2,7.6,16.5,1.6c5.4-6.2,10.4-12.8,15.1-18.7c3,1,6.1,3.2,8.2,2.5c3.6-1.1,5-4.6,3.4-8.3c-0.6-0.4-0.8-0.7-1.1-0.8
	c-3.2-1.8-8.9,2.8-10-2.5c-0.5-2.5,3.8-5.9,5.9-8.8c0.4-0.6,1.1-0.8,1.6-1.3c8.1-7.9,6.4-20.9-3.8-25.9c-6.4-3.1-13.3-4.6-21.6-0.7
	c0,3.5-0.3,7.3,0.1,11.1c0.4,3.8,1.6,7.6,2.3,11.1c-5.2-1.9-9.7-5-14-4.8c-4.7,0.2-9.3,3.5-14.1,5.5c-2.5-10.1-0.1-13.8,9.6-16.6
	c7.3-2.1,9.4-7.1,4.8-13.2c-2.7-3.5-6.3-6.9-10.2-9c-10.3-5.5-15.7-3.4-21.3,7.1c-1.9,3.6-3.9,7.1-6.2,11.2
	c-2.4-2.2-3.7-3.3-4.9-4.5c-6.5-6.6-14.3-8.4-20.9-4.9c-6.7,3.5-10,11-8.8,19.7c0.2,1.8-0.2,3.8-0.3,6.3c-6.1-2-11.3-3.8-16.5-5.5
	c-5.9,11-4.4,15.6,5.9,20c6.8,2.9,7.3,4.9,2.4,10.6c-1.4,1.6-3.7,2.8-4.2,4.6c-1.2,4.2-3.3,9.4-1.8,12.9
	c4.5,10.9,16.1,12.7,24.9,4.8c4-3.6,5.5-7.9,5.1-13.3C364.8,886.4,366.3,882.4,374.6,880.8z M400.7,1009.8
	c1.6-17.1,3.5-33.1,4.5-49.3c1-15.5,2.5-30.8,10.4-44.3c-5.8-7.2-5.8-7.2-11.9-3.1c-1.5,1-2.8,2.1-4.3,3.1
	c-10.8,7.9-19.9,7.4-30.1-1.7c-1.8-1.6-3.9-2.7-5.7-3.9c-9.5,5.2-15.3,12.7-17.4,22.4c-2.1,9.9-2.9,20.1-4.5,30.2
	c-1.1,7.3-2.6,14.5-3.8,21.8c-1,5.9-2.1,11.8-2.6,17.8c-0.4,5,0.3,10,5.3,13c6.4-1.1,6.8-6.8,7.7-11.3c1.9-9.7,2.9-19.5,4.7-29.2
	c1.6-8.3,3.7-16.5,6-24.7c1-3.7,3.5-6.4,7.9-4.2c5.6,2.8,11.7,18.9,10.1,25c-2.7,10.2-5.2,20.5-7.3,30.8c-1.4,7.2,1.1,10.1,8.3,9.7
	C385.6,1011.6,392.9,1010.5,400.7,1009.8z M449.5,1010.4c0-0.2,0-0.4,0-0.5c1.4,0,2.8,0.1,4.2,0c9.4-0.5,11.8-3.1,13.9-12.5
	c1.8-8.1,1-15.9-0.7-24c-2.5-12.3-3.8-24.9-5.8-37.3c-1.4-8.6-2.6-17.3-5-25.7c-2-6.8-6.2-7.6-12.1-3.4c-5.4,3.9-10.6,8.1-16.3,11.7
	c-3.5,2.2-3.6,4.7-2.5,8c3.3,9.7,4.8,19.6,3.7,30c-0.4,3.4,0.7,7,1,10.4c0.2,2.8,0.9,5.7,0.3,8.3c-2,9.3-0.7,18,2,26.9
	c1.3,4.5,3.7,6.6,7.8,7.3C443.2,1010.3,446.4,1010.2,449.5,1010.4z M322.7,920.3c-2.3-8.1-7.4-7.7-12.3-7.1
	c-21.7,2.6-28.9,26.3-25.4,40.5c1.4,5.4,3.8,10.5,5.4,15.9c1.4,5.1,5,7.7,9.6,8.8c4.4,1,9,1.1,13.5,1.3c1,0,2-1.3,3.6-2.5
	c-15.2-2.4-19.5-7.5-19.3-22.5c0.1-4.9,1.1-9.7,1.6-14.6c0.9-8.8,5.7-14,14.2-16.2C316.6,923.1,319.4,921.6,322.7,920.3z
	 M320.1,964.2c4.4-5.3,9.4-20.4,8.5-26.1c-0.7-3.9-3.3-5-7-4.4c-8.7,1.2-12.6,5.9-13.1,16C307.9,959.4,309.8,961.8,320.1,964.2z"/>
<path fill-rule="evenodd" clip-rule="evenodd" d="M602,724.6c-2.6,5-4.6,9.1-6.8,13c-7.6,13.4-6.1,22.8,5.7,33.4
	c4.8,4.3,9.1,9,10.3,15.6c0.4,2-1.1,4.2-1.8,6.4c-2.1-0.9-5.5-1.2-6-2.7c-2.6-6.6-7.8-10.7-12.9-15c-12.4-10.5-11.2-29.7-3.3-41.6
	C590.3,728.9,592.3,722.4,602,724.6z"/>
<path fill-rule="evenodd" clip-rule="evenodd" d="M618.2,716.5c6.2,10.7,3.3,19.7-0.5,28.5c-0.8,1.9-2.5,3.5-3.5,5.3
	c-3.1,5.7-1.9,8,4.8,9c3.4,0.5,8.1-0.3,7.2,5.1c-0.7,4.3-5.1,4.3-8.7,4.1c-14.4-1-18.7-11.5-12.2-23.1c4.5-8.1,10-15.4,9.2-25.3
	C614.4,719.3,616.2,718.4,618.2,716.5z"/>
<path fill-rule="evenodd" clip-rule="evenodd" d="M357.4,1147.5c1.2,7.3-1.4,14-4.5,20.4c-8,16.6-13.1,34-14.9,52.3
	c-0.5,5.7-0.8,11.7-7,16.9c-0.9-3.1-2.2-5.3-1.9-7.4c1-7.3,1.9-14.7,4-21.7c5.7-18.4,12-36.7,18.2-55c0.8-2.2,2.5-4.1,3.9-6.1
	C355.9,1147.1,356.7,1147.3,357.4,1147.5z"/>
<path fill-rule="evenodd" clip-rule="evenodd" d="M394.2,1228c0.4-25.1,6.5-49,17.8-73.9c1.1,3.7,2.4,5.5,2.1,7.1
	c-4.1,19.9-8.3,39.7-12.7,59.5c-0.7,3-2.7,5.8-4,8.7C396.3,1228.8,395.3,1228.4,394.2,1228z"/>
<path fill-rule="evenodd" clip-rule="evenodd" d="M111,1189.2c0.4,2.4,0.8,4.7,1.3,7.1c-0.8,0.2-1.5,0.3-2.3,0.5
	c-0.4-2.5-0.8-5-1.2-7.4C109.4,1189.3,110.2,1189.2,111,1189.2z"/>
<path fill-rule="evenodd" clip-rule="evenodd" d="M211.7,508.1c2.7-14,3.8-27.4,12.1-38.5c4.8-6.5,10.7-12.2,16.4-17.9
	c2.8-2.8,6.5-4.7,10.6,1c-2.2,2.5-4.3,5.6-7.1,8c-9.3,7.9-17.1,16.8-20.9,28.6c-0.9,3-1.5,6.1-2.3,9.1
	C219.6,502.5,218.5,506.6,211.7,508.1z"/>
<path fill-rule="evenodd" clip-rule="evenodd" d="M234.4,501c-1.7-4.7-0.7-9.1,1.1-13.9c3-8,8.7-13.6,15.1-18.4
	c1.4-1.1,4.8-0.8,6.5,0.2c1.2,0.7,2,4.6,1.2,5.5c-7.8,8.7-13.8,18.9-22.5,26.9C235.7,501.4,235.2,501.2,234.4,501z"/>
<path fill-rule="evenodd" clip-rule="evenodd" d="M234.4,690.8c-9.8,1.3-17.5,1.3-24.7-4.2c-9.1-6.9-17.8-13.8-22.7-24.5
	c-6.9-15.2-5.5-31-2.8-46.7c1.5-8.8,6.3-16.4,14.1-21.6c7.9-5.2,15.8-10.4,23.9-15.3c7.3-4.4,15.5-4.6,23.6-3.4
	c6.6,1,13.1,2.6,19.6,4.2c1.7,0.4,3.5,1.2,4.6,2.4c12.5,13.3,26.7,25.9,21.6,47.3c-0.5,2-0.3,4.2-0.2,6.3
	c0.9,19.8-9.5,34.1-23.1,46.5c-7.9,7.2-17.6,10.1-28.3,9.5C237.6,691.3,235.2,690.9,234.4,690.8z M236.4,584.9
	c-14.6,1.2-33,12.9-37.7,26.3c-6.3,17.5-7.1,34.5,5.1,50.8c12.8,17.1,33,23,52.3,13.6c11.3-5.5,18.1-14.1,22.4-26.4
	c5.4-15.7,4.7-30.3-1.9-44.9c-2.8-6.3-7.9-11.1-14.6-13.1C253.5,588.8,244.9,587,236.4,584.9z"/>
<path fill-rule="evenodd" clip-rule="evenodd" d="M386.6,624.4c-8.4-0.8-16.6,0.3-24.4-5c-13.7-9.2-16.8-22.7-17.6-37.4
	c-0.5-8.8,0.6-17.7-0.3-26.4c-0.9-10,3.7-17.1,10.3-23.2c14.7-13.8,46.1-14.7,62-2.2c7.1,5.6,14.3,10.5,19.3,18.9
	c9.4,15.7,7.6,30.8,1.7,46.4c-6.8,18.1-20.5,27.1-39.5,28.3C394.3,624.1,390.4,624.2,386.6,624.4z M353.7,566.3
	c0.3,0.1,0.5,0.2,0.8,0.2c0.6,4.9,1.2,9.8,1.9,14.6c0.7,4.9,1.6,9.7,2.4,14.5c1.1,6.5,5.2,9.9,11,12.9c10.7,5.6,21.6,3.1,32.6,3.1
	c9.9,0,15.9-5.6,20.1-13.2c3.5-6.4,5.9-13.5,7.8-20.5c2.9-11-0.5-21-7.4-29.5c-14.5-18-40.8-20-60.7-9c-2,1.1-4.1,3.3-4.6,5.3
	C355.9,551.8,355,559.1,353.7,566.3z"/>
<path fill-rule="evenodd" clip-rule="evenodd" d="M202.2,1155.7c0.9,2,1.8,4.2,2.7,6.4c0.5-0.4,1.3-0.9,1.2-1.1
	c-0.8-3-2.1-5.8-2.6-8.9c-0.4-2.6-0.7-6,0.7-7.6c1.4-1.7,5.2-2.9,7.3-2.2c2,0.6,4.1,3.6,4.7,5.9c1.1,4.4,1.4,9,1.7,13.5
	c0.5,6.6-9,16.1-15.6,15.8c-5.5-0.3-8.6-3-9.2-8.1C192.1,1160.8,193.6,1158.4,202.2,1155.7z"/>
<path fill-rule="evenodd" clip-rule="evenodd" d="M439.2,142.5c-0.1,5.5-4.7,10.5-8.9,10.1c-1.8-0.2-4.3-2.4-4.7-4.1
	c-0.8-3.5,4.7-8.8,8.8-8.6C436.2,140.1,438,141.9,439.2,142.5z"/>
<path fill-rule="evenodd" clip-rule="evenodd" d="M783,109.6c1.2-3.2,2.3-5.7,3-8.4c0.7-3,1.7-5.5,5.3-5c3.5,0.5,6.8,5.2,6.3,8.5
	C796.4,111.7,791,113.7,783,109.6z"/>
<path fill-rule="evenodd" clip-rule="evenodd" d="M754.3,136.5c4.3-1,8.8-2.9,11.3,1.8c1.1,2.1,0.2,6.2-1.3,8.3
	c-1,1.4-5.2,1.7-7.2,0.8C752.1,145.3,753.3,140.9,754.3,136.5z"/>
<path fill-rule="evenodd" clip-rule="evenodd" d="M246.2,615.8c6.2-0.1,11.7,4.9,11.9,10.9c0.2,5.1-9.4,14.2-15,14.3
	c-5.3,0.1-11.7-6.3-11.8-11.6C231.4,622.7,238.8,615.9,246.2,615.8z"/>
<path fill-rule="evenodd" clip-rule="evenodd" d="M403.4,574.7c-5.4,11.1-13.9,14.6-22.6,9.3c-7.3-4.4-7.5-13.3-0.4-18
	C390,559.6,396.1,561.9,403.4,574.7z"/>
</svg>
