<?xml version="1.0" encoding="utf-8"?>
<!DOCTYPE svg PUBLIC "-//W3C//DTD SVG 1.1//EN" "http://www.w3.org/Graphics/SVG/1.1/DTD/svg11.dtd">
<svg artist="zl2017" version="1.1" id="zlIcon-sheep-round-roll" xmlns="http://www.w3.org/2000/svg" xmlns:xlink="http://www.w3.org/1999/xlink" x="0px" y="0px"
	 width="1000px" height="745.5px" viewBox="0 0 1000 745.5" enable-background="new 0 0 1000 745.5" xml:space="preserve">
<path fill-rule="evenodd" clip-rule="evenodd" d="M659.5,639c24,27.4,47.6,54.3,71.9,82c-8.1,8.6-17.1,6.9-25.5,3.8
	c-21.9-8.2-43.2-18-65.3-25.3c-14.1-4.7-29.2-7-44-8.4c-4.2-0.4-10.4,5.3-13.4,9.8c-18.7,28.7-49.6,37.6-79.2,43.5
	c-19.1,3.8-41-3.5-60.9-8.7c-21.2-5.5-41.5-14.1-63.4-4c-36.9-7.6-78.7,2.4-109.5-27c-38.8-37.1-85.7-36-133.9-32.1
	c-11.9,1-24,0.1-39.2,0c14.9-29.4,47.7-32.8,60.8-59.3c-2.6-3.1-5.5-6.8-8.5-10.3c-6.5-7.7-16.8-14.5-18.8-23.3
	c-8.1-35.1-36.2-36.8-63.3-41.6c-16.4-2.9-32.9-5.9-49.1-9.9c-5-1.2-9.2-5.9-17.7-11.6c19.4-8.7,35-15.5,50.6-22.7
	c22.7-10.5,45.5-20.9,68-32c12.6-6.2,22.5-39.4,16.2-52.4c-27.9-57.1-14.8-108.4,21.8-156.4c4.1-5.3,9.3-10,12.2-15.9
	c1.9-3.9,2.3-10.1,0.6-14.1c-8.9-21.4-18.3-42.6-28.3-63.5c-5.7-12-12.2-23.7-19.5-34.8c-5.8-8.8-8.2-17.1-0.2-24.9
	c7.7-7.5,15.1-3,22.5,2.2c38.3,26.9,77.2,53.1,115,80.7c10.4,7.6,16.7,6.1,26.3-0.8c32.9-23.5,69.4-39.9,109.3-46.4
	c27.5-4.5,52.1,9.1,76.7,19.4c7.7,3.2,15.3,7,22.3,11.6c7.5,4.9,14,4.5,20.9-0.4c19.2-13.5,40.5-18.4,64-17.8
	c27.6,0.7,33.9-6.7,33.5-34.5c-0.1-6.6-1-13.3-1.6-20.7c-27.6-10.4-52.6-10.3-78.7,4.9c-28.7,16.8-60.2,17.6-91.7,6.6
	c-5.5-1.9-10.9-4.7-15.5-8.1c-19.1-14.2-22.4-28.9-7.8-47.2C436.4,25.7,458.5,4,491,0.9c48.6-4.7,92.3,8.7,123.4,47.2
	c19.5,24.2,23.2,55.2,15.6,86c-5.3,21.7-6.1,21.8,13.2,34.5c53,34.7,83.8,85.2,102.7,144.1c9.6,30.1,21.7,59.5,19,92.3
	c-0.5,6,4,12.5,6.3,18.8c5.3,14.3,17,21.2,30.7,22.9c21.9,2.8,43-0.7,63.7-10.2c23.3-10.7,47.5-20.4,72.2-26.9
	c21.7-5.8,40.1,7.2,52.8,22.9c11.5,14.2,11.5,32,1.6,49.3c-15.1,26.3-36.1,41.8-66.4,48.7c-35.5,8.1-68,7.1-97.6-15.9
	c-16.5-12.8-32-27.1-48.9-39.3c-8.4-6-18.7-10.7-28.8-12.8c-12.1-2.5-18.1,6.2-14.9,18.2c0.2,0.8,0.9,1.4,1.3,2.2
	c27.7,54.2-5,93.3-35.2,131.4C692.8,625.6,675.2,630.2,659.5,639z"/>
<path fill-rule="evenodd" clip-rule="evenodd" fill="#FFFFFF" d="M176.8,460.7c-27.9,1.1-42.5,11.6-44.2,35.8
	c-5.5,78.3,32.4,116.7,111,115.6c9.9-19.3-5.9-44.1,14.1-61.9c3.9,17.9,1.9,36.6,6.8,53.4c4.7,16.2,16.4,30.4,25.9,47
	c-11.1-1.9-21.2-3.6-31-5.3c-1.2,3.5-2.4,5.2-2.1,6.5c11.4,45.2,65.2,70.4,106.4,50c13.6-6.7,16.4-14.8,9.8-28.5
	c-3.4-7-7.2-13.9-10.8-20.9c1.7-1.4,3.3-2.9,5-4.3c4.8,3.3,10.8,5.6,14,10c6.4,8.8,11.2,18.7,16.8,28c11.6,19.4,27.4,35.9,49.5,39.9
	c37.5,6.7,72.5,3.9,104.5-24.4c22.5-19.9,25.9-39.5,20.5-66.3c-17.4,4.6-33.3,9.3-49.4,13.1c-17.7,4.2-32.1-1.1-45.4-17.4
	c7.2-0.7,11.3-1.8,15.2-1.3c41.8,5.1,74.6-13.5,104.8-39.4c3.3-2.9,7.5-4.7,11.3-7.1c1.5,9.1,0,16.2-3.7,21.7
	c-4,6-12.3,9.7-7.7,19.6c40.9,6.2,79,1.9,106.1-34.3c25.5-34,32.1-71.4,15.8-113.7c-54.5,21.1-110.3,16.4-164.2,6.5
	c-65.3-12-112.5-51.8-124.8-126.6c-5.2-31.4-4.4-63.1,13.7-92.5c14.3-23.2,25.1-48.6,38-74.1c-8.8-6.4-17.6-12.8-26.4-19.2
	c-24.3-17.7-51.7-18.6-79.4-12.4c-32.3,7.2-60.6,24-86.7,43.7c-12.9,9.7-23.4,22.6-26,40.5c26.3-2.5,50.9-4.7,75.9,0.6
	c-2.7,14.6-12.3,13.1-21.7,12.6c-44.9-2.8-80.8,23-92.2,67.9c-1.5,5.8-4.3,11.3-7.5,19.5c-10.2-12.5-8.9-22.9-4.5-33.1
	c5.3-12.3,11.3-24.3,17.2-36.3c4.8-9.8,10.7-19.3,2.7-31.9c-17.9-2.8-35.5-3.4-49,13.8c-3.6,4.5-10.1,6.9-13.1,11.6
	c-10.7,16.7-25.2,32.8-29.7,51.3c-8.5,34.7-3.2,68.9,17.8,100.2C168.1,430,179.5,441.9,176.8,460.7z"/>
<path fill-rule="evenodd" clip-rule="evenodd" fill="#FFFFFF" d="M749.2,393.4c-0.8-14.5,2.3-32-12.3-46.6
	c-36.3-36.3-77.8-53.1-128.2-35.6c-55.9,19.4-71,80.9-34.7,127.8c29.7,38.3,71.1,46.1,117.4,31.7C738.3,456,749.2,442.8,749.2,393.4
	z"/>
<path fill-rule="evenodd" clip-rule="evenodd" fill="#FFFFFF" d="M665,286.7c0-16.4,3.4-31.4-0.6-44c-12.8-40.4-42.6-64.4-82.6-76.4
	c-4.6-1.4-10.2-1.3-15-0.3c-31.8,6.3-58.2,22.7-74.4,50.2c-11.9,20.1-12.9,43.7-4,67.1c11,28.8,31.5,43.3,61.9,46.5
	C580.8,297.8,617.4,280.9,665,286.7z"/>
<path fill-rule="evenodd" clip-rule="evenodd" d="M649.2,423.6c-22,0.1-31.2-8.6-31.5-29.5c-0.3-21.7,13.8-37.1,34.6-37.9
	c18.7-0.7,35.5,15.1,36,34C688.9,408.5,671.2,423.5,649.2,423.6z"/>
<path fill-rule="evenodd" clip-rule="evenodd" d="M565.4,287c-24,0-39.2-15.5-38.6-39.6c0.5-21.5,16.8-36.4,39.8-36.3
	c21.8,0.1,38.9,15,39.2,34C606.2,268.3,588.1,287,565.4,287z"/>
</svg>
