<?xml version="1.0" encoding="utf-8"?>
<!DOCTYPE svg PUBLIC "-//W3C//DTD SVG 1.1//EN" "http://www.w3.org/Graphics/SVG/1.1/DTD/svg11.dtd">
<svg artist="zl2017" version="1.1" id="zlIcon-sheep-round-nw" xmlns="http://www.w3.org/2000/svg" xmlns:xlink="http://www.w3.org/1999/xlink" x="0px" y="0px"
	 width="1000px" height="805.3px" viewBox="0 0 1000 805.3" enable-background="new 0 0 1000 805.3" xml:space="preserve">
<path fill-rule="evenodd" clip-rule="evenodd" d="M704,805.3c-16.7-28.2-21.1-56-29-82.4c-13.6-5.6-23.4,0.7-34,6.4
	c-9.8,23.4-5.5,55-36.7,66.1c-10.7-3.2-10-12.5-11.6-20c-3.6-17.1-6.2-34.4-10-51.4c-2.8-12.8-9.2-22.9-21.1-30.5
	c-18.4-11.8-35.4-25.8-54-39.6c-6.7,5-12.5,8.6-17.5,13.2c-21.7,20.1-50.2,23.4-76.9,30.8c-29.6-9.2-62.7,0.4-90.8-19.2
	c-28.6-19.9-61.8-34-87.7-56.7c-24.9-21.8-54.7-39.4-72.2-69.9c-6.5-11.4-12.2-22.8-14.1-35.3c-3.8-26.6-4.9-53.2,6.8-78.7
	c8.3-17.9,16.3-35.9,25.9-57.1c-6.2-8.7-13.9-19.7-22.5-31.7c-23.8,15.2-41.1,32-44.7,60.1c-1,7.6-4.9,16.1-10.1,21.8
	c-13.1,14.6-27.6,27.9-41.3,41.6c-17.8-7-35.2-12.8-51.5-20.8c-5.1-2.5-9.5-10.7-10.3-16.9c-2-14.3,2.6-27.5,11.5-39.2
	c24.8-32.7,54.1-60.9,86.2-86.1c19.9-15.7,33.6-12.9,51.4,6.3c14.9,16.1,30.2,31.8,44.9,47.1c19.1-2.9,36.4-4.5,53.2-8.6
	c8.5-2.1,16.4-8.2,23.7-13.7c5.8-4.5,7.7-11.5,5.2-18.9c-3-8.8-6-17.6-9.2-26.4c-11.8-31.9,5.2-74.2,36.4-83.9
	c10.9-3.4,21-9.6,32.8-15.2c1.4-8.4,3.6-17.5,4.2-26.6c2.3-34.4,16.8-62.4,43-84.6c8-6.8,15.4-14.3,23.9-20.5
	c34.7-25.7,71.6-31.2,111.1-11c8.1,4.1,16.7,7.3,25.2,10.9c7.5-6.5,13.8-11.5,19.6-17c29-27.2,64.7-40.3,102.8-47.4
	c7.7-1.4,16.4-0.1,24.2,1.7c57.1,13.6,76,19.4,118.1,79.9c4.7-0.5,10.5-0.2,15.7-1.9c46.2-14.5,83.6-1.4,116.3,33.4
	c28.2,30,40.8,64.4,37,105c-2.5,26.5-5.9,53-9.6,85.9c1,2.1,3.8,11.3,9.2,18.5c13.4,17.5,16.1,38.5,19.9,58.8
	c5.7,30-1.6,58.5-19.9,82.5c-14.7,19.4-22.6,43.5-42.2,59.5c-3.7,3-4.7,10.3-5.4,15.9c-3.8,31.8-14.9,60.8-31.5,88
	c-10.3,16.8-16.7,34.1-15.6,55.3c0.8,14-6.9,29.2-13,42.8c-5.7,12.7-13.3,24.1-14.7,38.8c-0.9,9.3-7.4,16.7-16.1,21.2
	c-8.6-0.2-12.1-6.2-15.2-12.6c-5.1-10.4-10.1-20.8-14.7-30.3c-10.7-2.7-14.8,3.5-16.3,10.3c-3.5,15.8-16.2,21.1-27.8,29.6
	c-14.5-16.6-8.4-38.2-20.5-54.3C722.9,748.8,730.2,783.8,704,805.3z"/>
<path fill-rule="evenodd" clip-rule="evenodd" fill="#FFFFFF" d="M905.5,541.1c-9.9,3.3-17.4,6.7-25.3,8.2
	c-3.5,0.6-7.8-2.6-11.7-4.1c1.8-4,2.6-9.6,5.7-11.6c10.7-7,22.3-12.5,33.3-19.1c45.7-27.4,62.9-69.4,60.9-120.9
	c-0.3-8.1-1.9-16.2-2.7-24.3c-1.8-17.9-6.8-33.3-23.3-44.5c-10.2-6.9-17.3-18.3-25.5-27.9c-1.2-1.4-0.5-4.3-0.9-9.2
	c9.2-1.7,18.6-3.4,29.9-5.4c10.3-33.5,14.7-67.9,9.5-102.8c-2.4-16-8.7-31.2-23.7-41.1c-11.6-7.7-22-17.1-33.1-25.6
	c-24.2-18.5-51.7-16.3-80.7-14.6c-0.9,9-1.2,15.8-2.5,22.4c-1.1,5.5-2.6,11.5-12.5,11c-4.8-9.2-10.5-19.1-15.3-29.4
	c-10.1-21.5-24.6-39.2-43.2-54.1c-33.3-26.6-70.4-28.7-108.1-14.3c-21.5,8.2-40.2,23.4-61.4,32.7c-10.9,4.8-16.5,11.5-20.6,21.5
	c-3.4,8.1-3,19-14.5,21.6c-1.9-1.4-5.2-2.6-5.3-4c-1.8-21.1-17.5-30.8-34.1-34.8c-21.2-5.1-44-7-64.9,3.7
	c-8.2,4.2-17.9,7.7-23.5,14.4c-21.8,25.7-42.7,51.9-52.7,85.3c-6.6,22.2-9.2,43,3.7,63.7c0.7,1.2-1.1,4-1.9,6.6
	c-15.2,6.8-16.8-13.4-29.5-14.7c-18.4,2.3-34.1,10.3-40,31.2c-5.9,20.8-7.5,41,7.6,55.9c14.3,0,25.7-0.3,37,0.1
	c34.7,1.1,69.4,2.6,104.1,3.8c18.5,0.7,36.8,0.1,54.8,7.8c19.3,8.2,36.7,1.5,49.7-14.8c9.4-11.8,18.7-23.8,27.2-36.3
	c21.8-32.1,56.6-38.2,87.1-15.2c32.2,24.3,52.2,58.3,73.2,91.5c3.9,6.2,2.8,13.7-2.5,19.4c-5.7,6.2-13.4,5.6-19.1,1.4
	c-16.6-12.3-35.9-15.3-55.3-19.5c-22.9-5-45.4-9.9-69-6.4c-20.5-9.7-34.4,1.5-49.9,14.4c7.2,17,15.3,32.4,20.2,48.8
	c5,16.6,6.8,34.1,10.1,51.2c0.2,1.1,1.1,2.1,1.3,3.2c6.8,29.7,12.1,59.2-3.6,88c-5,9.1-8.9,18.9-13.8,28.1
	c-9.1,17.2-18.4,34.2-28.3,52.4c9,8.4,16,16.3,24.3,22.3c23.7,16.8,47.5,32.1,78.3,35.2c43.8,4.4,75.4-8.5,91.9-51.3
	c1.3-3.4,5.9-5.5,12.3-11.2c2.3,15.2,3.9,26.1,5.6,37.7c28.6,19.2,57.9,20.9,88.9,5.6c36.7-18.1,60.6-46.2,70.3-86.2
	C897.3,572.7,901.1,558.5,905.5,541.1z"/>
<path fill-rule="evenodd" clip-rule="evenodd" fill="#FFFFFF" d="M547.9,447.3c2.3-15.1-7.2-39.8-20.1-63.8
	c-8.6-16-21.8-25.9-38.6-33.3c-26.4-11.7-52.7-13.9-81-10.8c-18.4,2.1-25.1,20.1-40.8,24.6c-18,20.9-39.3,40-36.1,71.7
	c0.6,5.6-0.5,11.7-2.2,17.1c-9.7,31.8,5.3,57.4,22.8,80.6c22.4,29.5,55.7,40.5,91.2,45.2c11.9,1.6,23.2-0.8,33.1-8.1
	C518.5,539.4,547.7,500.8,547.9,447.3z"/>
<path fill-rule="evenodd" clip-rule="evenodd" fill="#FFFFFF" d="M315.6,385.5c-20.3-14.8-43.3-15.4-66.4-15.5
	c-39.5-0.2-62.3,21.5-74.4,56.7c-4.1,12-7,24.6-9,37.2c-5.6,35.1,1.5,66.1,27.2,92.9c12.4,12.9,26.2,22.9,41.6,31
	c39.2,20.8,39.3,19.7,81.9,15.8c21.9-2,33.3-12.8,38.8-32.2C311.6,516.5,294.4,457,315.6,385.5z"/>
<path fill-rule="evenodd" clip-rule="evenodd" d="M429.4,435.7c-10.7,0.4-17.8-5.7-18.7-14c-0.9-8.4,0.1-16,6.6-22.2
	c5.9-5.6,11.6-11.5,20.9-9.3c8.8,2.1,15.1,10.3,15.7,20.4c0.6,9.6-4.2,17.8-13.5,21.9C436.3,434.3,431.7,435.1,429.4,435.7z"/>
<path fill-rule="evenodd" clip-rule="evenodd" d="M249.4,464.4c-5.9-10.7-12.2-16.9-11.3-21.8c1.5-8.3,6.2-17,12-23.2
	c5.9-6.2,23.2-0.5,26.2,8c1.3,3.7,1,9.8-1.4,12.6C268.5,447.5,260.7,453.8,249.4,464.4z"/>
</svg>
