<?xml version="1.0" encoding="utf-8"?>
<!DOCTYPE svg PUBLIC "-//W3C//DTD SVG 1.1//EN" "http://www.w3.org/Graphics/SVG/1.1/DTD/svg11.dtd">
<svg artist="zl2017" version="1.1" id="zlIcon-sheet-landscape" xmlns="http://www.w3.org/2000/svg" xmlns:xlink="http://www.w3.org/1999/xlink"
	 x="0px" y="0px" width="1000px" height="694.5px" viewBox="0 27.9 1000 694.5" enable-background="new 0 27.9 1000 694.5"
	 xml:space="preserve">
<g>
	<path d="M999.5,90.9c-2.6,0.4-4,0.5-5.4,0.8c-6.7,1.4-13.9,0.3-20,4.3c-4.7,3.1-10,5.4-13.9,9.2c-6.7,6.6-12.3,14.1-16.9,22.5
		c-3.5,6.4-7.3,12.8-10,19.5c-4.2,10.4-7.8,21.1-10.8,31.9c-3.2,11.2-5.3,22.6-8,33.9c-1.5,6.2-3.2,12.3-4.4,18.6
		c-1.4,7-3.1,14.1-3.2,21.1c0,6-2.3,11.3-3.2,16.9c-0.7,4.4-1.6,8.7-2.1,13.1c-1.3,10.9-2.5,21.8-3.6,32.7c-0.7,7.3-1,14.7-1.5,22.1
		c-0.7,11.5-1.5,23-2.1,34.4c-0.2,4.1,0,8.2-0.1,12.3c-0.2,7.3-0.5,14.7-0.7,22c-0.1,3.7-0.2,7.4,0,11.1c0.3,6.2,0.8,12.5,1.2,18.7
		c0.6,9.3,0.9,18.6,1.7,27.8c0.6,7,1.9,13.9,2.8,20.9c0.8,5.7,1.2,11.5,2.2,17.2c1,5.7,2.7,11.3,3.9,17c1.2,5.6,2,11.3,3.4,16.8
		c1.7,6.8,3.9,13.4,5.7,20.1c1.8,6.6,3,13.4,4.9,20c1.7,6,3.9,11.9,5.8,17.8c4,12.9,6.3,26.1,6.9,39.6c0.4,7.8,0.5,15.7-0.9,23.3
		c-1.8,9.6-4.2,19.3-8.2,28.2c-4.1,9.3-9.6,18.5-19.8,22.8c-5.6,2.4-11.2,5-17.8,4.7c-5.8-0.3-11.7,1.2-17.6,1.2
		c-6.7-0.1-13.4-1-20.1-1.6c-5.5-0.4-11.1-0.7-16.6-1.2c-4-0.4-7.9-1.1-11.8-1.6c-2.9-0.3-5.9-0.3-8.9-0.6
		c-6.9-0.7-13.8-1.5-20.6-2.4c-7.7-1-15.4-2.2-23-3.3c-5.4-0.8-10.9-1.7-16.3-2.4c-3.6-0.5-7.3-0.6-10.8-1.2
		c-5.8-0.9-11.4-2.2-17.2-3.1c-8.7-1.3-17.4-2.2-26.1-3.4c-5.2-0.7-10.4-1.7-15.6-2.5c-5.1-0.8-10.1-1.7-15.2-2.4
		c-6.3-1-12.6-2.1-18.9-2.7c-5.7-0.6-11.5-0.5-17.3-0.9c-8.1-0.6-16.2-1.4-24.2-2c-4.2-0.3-8.5-0.5-12.7-0.8
		c-6.4-0.4-12.7-1-19.1-1.2c-7.5-0.2-14.9-0.1-22.4-0.1c-4,0-8-0.3-11.9-0.1c-9.5,0.4-19,0.9-28.5,1.3c-1.4,0.1-2.8-0.6-4.1-0.6
		c-15.5,0.4-30.9,0.9-46.4,1.4c-5.8,0.2-11.7,0.4-17.5,0.7c-10.2,0.6-20.5,1.4-30.7,2.1c-4.9,0.3-9.8,0.6-14.7,0.8
		c-13.4,0.5-26.8,1-40.2,1.5c-12,0.4-24.1,1.2-36.1,1.4c-12.4,0.2-24.6,1-36.9,2.8c-8.9,1.2-17.9,1-26.9,1.6c-7,0.5-14,1.5-21,2.3
		c-4.2,0.5-8.5,0.8-12.7,1.3c-8.3,0.9-16.6,1.9-24.8,2.8c-5.7,0.6-11.5,0.8-17.2,1.6c-6.8,0.8-13.7,2-20.5,3
		c-6.1,0.9-12.3,1.8-18.4,2.7c-5.3,0.8-10.6,1.6-16,2.4c-2.7,0.4-5.3,0.9-8,1.2c-8.4,1-16.8,1.8-25.2,3c-8,1.2-15.9,2.5-23.8,4.3
		c-6.2,1.4-12.2,3.9-18.5,5.1c-5.3,1.1-10.6,0.2-14.7-3.8c-0.7-0.7-0.9-2.1-1.1-3.2c-1-6.7-1.4-13.5-2.9-20.1c-2-8.9-5-17.7-7-26.6
		c-2.5-10.6-4.4-21.2-6.6-31.9c-1.6-7.9-3.3-15.7-4.7-23.7c-1.7-9.4-3.3-18.9-4.5-28.4c-1.6-12.4-3-24.9-4.3-37.4
		c-1-9.5-2-18.9-2.8-28.4c-0.6-7.2-1.1-14.4-1.4-21.6c-0.4-8.2-0.5-16.4-0.8-24.6c-0.2-7.9-0.6-15.7-0.6-23.6
		c-0.1-20.1-0.4-40.1,0.1-60.1c0.3-11.7,1.8-23.4,2.8-35.2c0.5-6,0.8-12,1.5-18c0.8-7,1.9-13.9,2.7-20.9c0.6-5.1,0.9-10.3,1.6-15.4
		c0.8-6.5,1.8-13,2.7-19.5c1-7.5,1.9-15.1,3.1-22.6c1-6.6,2.3-13.1,3.6-19.6c1.2-6.3,2.4-12.6,3.6-18.9c1.8-9.3,3.3-18.6,5.4-27.8
		c4.2-18.3,8.6-36.5,13.3-54.5c2.3-8.8,5.7-17.2,8.5-25.8c2.9-8.8,5.6-17.7,8.6-26.5c0.9-2.6,2.4-5,3.5-7.6c2.2-5.3,4.2-10.7,6.5-16
		c2.8-6.4,5.9-12.7,8.8-19c1.4-3.1,2.8-6.3,4-9.5c1-2.5,1.8-4,5.2-3c4.5,1.4,9.3,1.6,13.9,2.3c2.5,0.4,5,1.1,7.5,1.4
		c1.6,0.2,3.4-0.1,5,0c6.7,0.4,13.5,1,20.2,1.4c6.8,0.3,13.6,0.6,20.4,0.7c4.5,0,9-0.7,13.4-0.6c9.8,0.3,19.6,1,29.4,1.2
		c6.5,0.1,13.1-0.4,19.7-0.5c2.7,0,5.4,0.7,8.1,0.8c5.4,0.3,10.7,0.4,16.1,0.6c4.7,0.2,9.5,0.5,14.2,0.6c3.2,0,6.4-0.3,9.6-0.3
		c3.3,0,6.6,0.1,9.9,0.1c10.7,0.1,21.4,0.6,32.1,0.2c10.8-0.4,21.6-1.7,32.4-2.4c8.2-0.5,16.4-0.8,24.6-1.1
		c8.1-0.3,16.1-0.4,24.2-0.8c7.7-0.3,15.4-0.5,23-1.5c14.6-2,29.3-2,44-2c14.1,0,28.2,0.1,42.4,0c5.4,0,10.7-0.5,16.1-0.5
		c9.5,0,19,0.5,28.5,0.3c9-0.1,18-0.8,27-1.2c3.5-0.1,7-0.1,10.4,0c6.3,0.2,12.6,0.6,18.9,0.6c7.8,0,15.7-0.5,23.5-0.6
		c4.2,0,8.5,0.3,12.8,0.5c6.5,0.2,12.9,0.5,19.4,0.6c12.6,0.2,25.3,1.1,37.8,0.1c10-0.8,19.3,2.5,29,2.3c4.1-0.1,8.3-0.3,12.4-0.5
		c2.2-0.1,4.3-0.2,6.5-0.2c9.8,0,19.6-0.1,29.4,0c6.4,0.1,12.8,0.5,19.1,0.7c9.8,0.3,19.5,0.2,29.3,0.8c7.2,0.5,14.4,1.9,21.6,2.7
		c5.5,0.6,11,0.8,16.5,1.5c7.7,1,15.4,2.3,23.1,3.5c6.4,1,12.7,1.8,19.1,2.9c11.2,1.9,22.3,4,33.4,6.1c5.6,1,11.3,2,16.8,3.3
		c5.4,1.2,11.7,1.5,15.9,4.6c7.6,5.5,17.6,7,23.6,14.8C989.7,77.7,994.2,83.8,999.5,90.9z"/>
	<path fill="#FFFFFF" d="M973.5,70.9c-10,2.5-15.7,8.7-20.2,15.8c-4.3,6.7-7.6,14.1-10.8,21.4c-4.1,9.4-7.8,19.1-11.6,28.7
		c-1.7,4.3-2.8,8.7-4.3,13.1c-0.5,1.5-1.7,2.8-2.1,4.4c-2.1,8.7-3.8,17.5-5.9,26.2c-2.2,9-5,17.8-6.8,26.9
		c-1.9,9.8-2.9,19.8-4.5,29.6c-0.8,4.8-2,9.6-2.8,14.4c-1.5,8.4-3,16.9-4.3,25.3c-1.1,7.7-2.1,15.5-2.9,23.2
		c-1.1,10.1-1.9,20.2-2.9,30.3c-0.3,3.4-0.6,6.8-0.7,10.2c-0.5,10.7-1.2,21.4-1.4,32.1c-0.4,18.9-0.8,37.8-0.6,56.6
		c0.1,12,0.9,24,2.2,35.9c1.3,11.4,3.5,22.6,5.6,33.9c2.3,12.6,4.5,25.2,7.3,37.6c1.5,6.9,4.2,13.5,6.1,20.3
		c1.6,6.1,2.6,12.3,4.3,18.4c2.1,7.5,4.7,14.9,6.7,22.4c1.1,3.9,1.5,8,2.2,12c0.7,3.7,1.2,7.5,2.1,11.2c2.7,10.6,2.3,21.1,0.8,31.9
		c-1.3,9.9-4.2,19.3-7.5,28.7c-1.7,4.9-4.4,9.5-9,12.6c-0.8,0.5-1.8,0.5-2.3,0.7c-3.9-8.7,1.4-16.6,1.4-25.7c-1.5,1-2.7,1.4-3.3,2.2
		c-2.7,3.7-4.9,7.6-7.8,11.1c-1.9,2.3-4.5,4.4-7.1,5.9c-3.3,1.9-7,3.1-10.5,4.7c-4,1.8-9.8-2.3-11.5-6.5c-3.6-8.8-1.2-17.5-0.4-26.3
		c0.9-9.3,5.2-17.1,8.7-25.4c2-4.9,5.3-9.3,7.9-14c0.4-0.7,0.3-2-0.1-2.6c-0.3-0.5-1.8-0.6-2.4-0.3c-3.1,2.1-5.9,4.6-9.1,6.6
		c-7.1,4.4-14.3,8.8-21.6,12.9c-11.6,6.6-23.6,12.2-36.4,16.1c-13.5,4.1-27,7.8-40.9,10.6c-10.3,2.1-20.3,5.3-30.5,7.5
		c-10.7,2.3-21.6,4.1-32.4,6c-7.3,1.3-14.5,2.4-21.8,3.5c-0.8,0.1-1.7,0.1-2.5,0.1c-16.5,0-32.9,0.4-49.3-0.1c-12-0.3-24-1.8-36-2.7
		c-4.4-0.3-8.7-0.6-13.1-0.7c-23.8-0.5-47.4-1.3-71.2-1.4c-16.1-0.1-32.2,0.7-48.2,1.4c-11.4,0.5-22.9,1.4-34.3,2.1
		c-8.9,0.5-17.7,0.8-26.6,1.5c-11.3,0.8-22.5,2-33.8,2.6c-6.1,0.3-12.3-0.3-18.4-0.2c-12.4,0.3-24.8,0.7-37.2,1.1
		c-4,0.1-8,0.4-12,0.7c-10.1,0.9-20.1,1.9-30.2,2.8c-0.4,0-0.7,0-1.1,0c-7.9,0.2-15.9,0.2-23.8,0.8c-6.7,0.5-13.3,1.5-19.9,2.4
		c-6.6,0.8-13.2,1.8-19.9,2.6c-13.3,1.5-26.6,2.9-39.9,4.3c-8.4,0.8-16.9,1.4-25.3,2.3c-4.6,0.5-9.2,1.4-13.9,2.1
		c-6.7,1-13.5,1.8-20.1,2.9c-7.9,1.3-15.8,3-23.8,4.3c-8,1.3-16,2.4-23.9,3.5c-4.2,0.6-8.4,1.1-12.5,1.9c-4.3,0.9-7.2-0.2-9.2-4.4
		c-3.3-7-7.1-13.9-9.5-21.3c-4-11.9-7.1-24-10.5-36.1c-1.9-6.8-3.7-13.7-5.1-20.7c-1.9-9.5-3.4-19.1-4.9-28.6
		c-1.7-10.5-3.4-21-5-31.5c-0.7-4.7-1-9.5-1.5-14.2c-0.5-4.3-1-8.6-1.6-12.9c-0.4-3.7-0.9-7.5-1.3-11.2c-1-8.8-2.1-17.7-2.8-26.5
		c-0.4-5.2-0.1-10.5-0.2-15.8c-0.1-3.1-0.6-6.1-0.6-9.2c-0.1-12-0.1-23.9,0-35.9c0-4.5,0-9.1,0.8-13.5c1.5-8.9,0.4-17.8,0-26.7
		c-0.2-5.4,0.6-10.9,1-16.4c0.2-3,0.7-6.1,1-9.1c1-10.2,1.9-20.4,2.8-30.6c0.1-1.2,0-2.4,0.1-3.6c0.9-12.9,1.8-25.9,2.8-38.8
		c0.6-8.3,1.3-16.5,2.2-24.8c0.5-4.5,1.3-9,2.1-13.5c1.4-8.1,2.9-16.1,4.2-24.2c1.5-9,3-18,4.3-27c2.4-16.6,4.9-33.2,9.9-49.3
		c4.4-14.4,8.3-29,12.9-43.4c3.8-12.1,8-24.1,12.4-35.9c3.1-8.4,6.3-16.8,10.5-24.7c3.6-6.8,8-13.5,13.2-19.1
		c5.3-5.6,12.6-9.2,20.7-9.5c8.3-0.4,16.6-0.2,24.9-0.1c11.3,0.2,22.7,0.4,34,0.7c10.3,0.3,20.7,0.9,31,1.4
		c11.4,0.5,22.8,1.1,34.2,1.4c6.5,0.1,13-0.5,19.5-0.6c7.4-0.1,14.8-0.1,22.3,0c9.3,0.1,18.5,0.6,27.8,0.6c5.9,0,11.9-0.4,17.8-0.5
		c6.9-0.1,13.7-0.2,20.6-0.1c6.7,0.1,13.3,0.9,19.9,0.6c7.1-0.4,14.2-0.3,21.3-1.1c6.3-0.7,12.7-1.8,18.9-1.4c6.2,0.4,12-1,18-1.6
		c6.7-0.6,13.5-0.6,20.3-0.8c8.1-0.3,16.2-0.9,24.2-0.6c11,0.3,22,1.3,33.1,1.9c2.1,0.1,4.2-0.6,6.3-0.6c18.6,0,37.3-0.1,55.8,0
		c4.8,0,9.7,0.7,14.5,0.6c4.4-0.1,8.9-1,13.3-1.3c7.4-0.6,14.8-1.2,22.3-1.4c4.5-0.1,9,0.5,13.5,0.6c7.6,0.1,15.3,0.3,22.9,0
		c10.7-0.5,21.5-1.6,32.2-2c8.2-0.3,16.4,0.4,24.6,0.6c7.2,0.2,14.3,0.3,21.5,0.4c7.7,0.1,15.3,0.4,23,0.3c6.3,0,12.6-0.6,18.9-0.6
		c4.1,0,8.3,0.6,12.4,0.6c6.8,0.1,13.7-0.3,20.4,0.1c11.2,0.7,22.4,1.7,33.6,2.8c8.9,0.8,17.8,1.8,26.6,2.9c6.7,0.9,13.3,2.3,20,3.3
		c5,0.7,10.1,0.9,15.1,1.7c12.8,2.1,25.7,3.9,38.3,7c9.5,2.3,18.7,6.2,27.8,9.9C961.2,64.3,966.8,67.6,973.5,70.9z"/>
	<path fill="#FFFFFF" d="M721.5,685.9c6.1-1.9,12.1-4.1,18.2-5.8c8.1-2.3,16.2-4.2,24.3-6.3c6.9-1.8,13.8-3.2,20.6-5.4
		c12.5-4,25-8.2,37.3-12.9c10.5-3.9,20.8-8.2,30.9-13c6.1-2.9,11.6-6.9,17.3-10.5c3.1-2,6.1-4,9.8-6.5c-1.2,3-2.1,5.7-3.2,8.4
		c-2.6,6.2-5.8,12.3-7.8,18.7c-3.3,11-5,22.3-2,33.6c2,7.4,6.2,13.6,13.1,17.5c1.6,0.9,3.1,2,5.6,3.6c-4.3,0.5-7.5,1.3-10.7,1.2
		c-5.6-0.2-11.3-0.8-16.9-1.3c-6.9-0.7-13.8-1.4-20.7-2.2c-6.3-0.8-12.5-1.8-18.7-2.8c-8.4-1.4-16.8-3-25.2-4.4
		c-6.3-1-12.7-1.9-19.1-2.8c-3.6-0.5-7.2-1-10.8-1.5c-5.5-0.7-10.9-1.3-16.4-2.1c-5.7-0.9-11.4-2.1-17-3.1c-2.8-0.5-5.7-0.9-8.5-1.4
		C721.6,686.7,721.5,686.3,721.5,685.9z"/>
	<path fill="#FFFFFF" d="M993.1,88c-5.3,0.8-10.3,1.5-15.4,2.4c-6.3,1.1-10.9,5.6-16,9c-0.8,0.5-1.4,1.3-2.1,1.7
		c-0.4,0.2-1.2,0.2-1.5,0c-0.3-0.3-0.6-1.1-0.4-1.5c2.6-7.3,4-15,9.4-21.1c2.2-2.4,8.4-4.7,11.4-3.6c6.2,2.3,10.2,7.4,14.6,12.1
		C993.3,87.3,993.1,87.9,993.1,88z"/>
</g>
</svg>
