<?xml version="1.0" encoding="utf-8"?>
<!DOCTYPE svg PUBLIC "-//W3C//DTD SVG 1.1//EN" "http://www.w3.org/Graphics/SVG/1.1/DTD/svg11.dtd">
<svg artist="zl2017" version="1.1" id="zlIcon-sheep-pank-empty" xmlns="http://www.w3.org/2000/svg" xmlns:xlink="http://www.w3.org/1999/xlink" x="0px" y="0px"
	 width="1000px" height="1114.6px" viewBox="0 0 1000 1114.6" enable-background="new 0 0 1000 1114.6" xml:space="preserve">
<path fill-rule="evenodd" clip-rule="evenodd" d="M418,183.8c-2.9-6.6-5.2-12.6-8.2-18.3c-6.7-12.8-15.6-24.1-25.5-34.6
	c-1.5-1.6-3.1-3.3-4.4-5.1c-10.1-13.8-22.7-24.5-37.6-33c-8-4.6-16-8.9-24.2-12.9c-10.5-5.2-21.6-8.9-32.9-11.7
	c-1.1-0.3-2.4-0.3-3.2-1c-1.2-0.9-2.7-2.1-2.8-3.3c-0.1-1,1.6-2.6,2.8-3.1c3.4-1.3,6.9-2.1,10.3-3c14.6-3.7,29.3-3.9,44.2-2.2
	c4.7,0.5,9.4,1,14,1.8c7.8,1.3,15.1,4.2,22.1,7.9c1.1,0.6,2.4,0.9,3.9,0.8c-3.7-6.7-9.4-11.5-14.9-16.5c-5.3-4.8-13.2-6-17.8-12.3
	c2.4-2.6,4.8-2.2,7.2-1.6c10.7,2.5,21.5,4.5,31.9,7.8c11.9,3.8,24,7.2,35,13.7c13,7.6,26.5,14.2,39.8,21.3c3.1,1.7,6.2,3.5,10.2,5.8
	c-0.3-2.3-0.1-3.8-0.7-4.9c-8-14.9-17.5-28.7-30.7-39.6c-6.6-5.4-13-11-19.4-16.7c-1.1-1-1.8-2.4-2.6-3.6c2.4-3.2,5.3-3.2,8.1-2.3
	c14.7,4.8,30.2,7.4,44,14.6c7.9,4.1,15.8,8.5,23.1,13.6c10.4,7.1,20.4,14.7,30.2,22.6c9.1,7.3,17.5,15.5,26.3,23.1
	c4.9,4.2,10,8,16.2,13c2.8-19.5-2-36.7-4.7-53.9c-2.7-17.2-8.5-33.8-18-49c3.7-2.2,6-0.7,7.4,1.6c6.6,10.8,16.1,19.2,24.2,28.8
	c10.1,12,19.4,24.7,29,37.1c8.5,11,17,22,25.5,33c1.3,1.7,2.9,3.3,4.5,5.1c4-2.5,4.9-6.4,6.2-9.8c7.1-17.8,12.3-36.1,15.6-55
	c0.5-2.6,0.6-5.4,1-8c0.3-1.6,0.8-3.2,1.2-4.6c3.6,0,3.8,2.3,4.4,4.2c3.9,11.9,7.7,23.9,11.6,35.8c3.3,10,6.7,20,9.9,30
	c1.4,4.3,2.4,8.6,3.7,12.9c0.9,2.9,2.7,5.1,6.2,5.8c7.2-4.1,10.3-11.6,14.3-18.2c4-6.6,7.1-13.8,10.8-21.2c2.7,0.1,4.4,2,3.2,4.7
	c-3.3,7.6-1.9,15.4-1.9,23.2c0,11.9,0.1,23.7,0.7,35.6c0.3,6.3,2.2,12.4,6.4,18.2c4-1,8.7-1.3,12.6-3.1c13.2-6.2,27.1-5.6,41-4.8
	c9,0.5,18,1.1,26.8,2.6c7,1.2,14,3.2,20.7,5.9c4.9,2,9.3,5.3,13.8,8.3c7.5,4.9,15.3,9.5,22.2,15.2c8.8,7.2,16.7,15.5,25.3,22.9
	c4.2,3.6,9.2,6.3,13.8,9.6c4.2,3,8.4,6,12.2,9.5c13.6,12.4,18.9,29.1,23,46.3c0.3,1.3,0.5,2.6,0.8,4c0,0.2,0.2,0.4,0.6,1
	c8.9,2.7,14.1,10.9,21.3,16.5c1.2,0.9,1.8,2.5,2.6,3.9c7.1,13.2,14.4,26.4,21.1,39.8c7.8,15.8,12.3,32.6,13.5,50.4
	c0.6,8.7,1.8,17.5,3.4,26.1c1.7,9,1.3,17.9,1.1,26.9c-0.2,9.4-1.5,18.3-5.6,26.8c-0.6,1.2-0.8,2.6-0.9,3.9
	c-0.2,8.8-4.4,16.4-6.7,24.6c-1.1,3.9-2.6,7.6-3.7,11.5c-3,10.7-8.9,20.1-13.9,29.9c-8.3,16.2-18.3,31.4-30.9,44.8
	c-1.4,1.5-2.5,3.2-4,4.6c-6,5.4-7,12.3-5.8,19.7c2.5,14.1,0.7,28.2-0.1,42.3c-0.2,3.6-0.3,7.2-0.7,10.7c-0.5,4.2-1.2,8.4-1.9,12.6
	c-0.2,1.3-0.9,2.6-1,3.9c-1.8,17.6-10.4,32.4-20.3,46.3c-4.6,6.4-11.4,11.4-17.6,16.4c-10.5,8.5-22.7,14.4-34.9,20
	c-3.2,1.4-4.6,3.8-6.1,6.8c-4.6,9-9,18.1-14.6,26.4c-6.8,10.1-15.9,18-25.9,25.2c-8.4,6-16.8,11.9-25.6,17.4c-2.3,1.4-4.6,2.8-7,4
	c-10,4.6-19.7,10.1-30.1,13.4c-10.1,3.1-19.8,9.1-31.1,6.6c-2.7-0.6-4,0.7-5.3,3c-4.6,8.4-9.5,16.7-14.1,25.2
	c-3.4,6.3-6.5,12.8-9.8,19.2c-2.8,5.4-5.6,10.7-8.3,16.1c-3.2,6.5-2.6,9.8,2.2,15.3c1.6,1.8,3.2,3.8,4,6c6.6,18.2,9.1,37.1,8.1,56.4
	c-0.7,13.7-4.5,26.9-11.5,38.4c-7.1,11.8-17.9,20.4-30,27.5c-10.8,6.3-22.5,10.5-34.6,12.5c-11.4,1.8-23.2,3.1-34.6-0.7
	c-6.9-2.3-13.2-5.9-16.8-12.6c-4.7-8.7-9-17.6-13.3-26.4c-2-4-3.8-8-5.8-12.4c-8.4,1.3-16.3,2.8-24.3,3.8
	c-9.8,1.1-19.6,1.7-29.4,2.5c-1.6,0.1-3.1,0.3-4.7,0.5c-15,1.8-29.9,3.2-45,2.1c-6.9-0.5-13.9-1-20.8-1.9c-3.5-0.5-7.1-1.4-10.4-2.8
	c-9.7-4.2-13.9-12.6-10.8-24c2.9-10.8,7-21.3,11-31.8c1.2-3.3,4.1-5.8,5.9-9c3.1-5.7,5.5-11.8,9-17.3c3.1-4.8,6.9-9.4,11.1-13.4
	c6.4-6.2,13.2-12.2,20.2-17.8c4.7-3.8,9.9-7,15.2-9.9c12.8-6.9,26.4-11.2,40.9-12.3c0.9-0.1,1.8-0.2,2.6-0.5
	c0.6-0.2,1.1-0.7,2.5-1.6c-1.8-5.3-3.3-10.9-5.7-16c-4.6-9.8-9.2-19.5-14.7-28.8c-7.5-12.8-16.3-24.7-26-35.9
	c-3.2-3.7-6.8-5.7-12.1-5.8c-6.5-0.1-12.9-1.6-19.3-2.5c-3.6-0.5-7.1-1.1-10.6-1.7c-1.8-0.3-3.6-0.4-5.2-1.2
	c-15.4-7.3-30.8-14.3-45.9-22.2c-6.3-3.3-11.7-8.2-17.4-12.6c-10.9-8.5-22.2-16.7-32.5-26c-7.6-6.9-14.2-15-20.2-23.4
	c-3.3-4.6-4.8-10.6-6.3-16.2c-2.9-11.1-5.4-22.3-7.8-33.4c-0.6-2.8-0.6-5.8-0.5-8.7c0.4-11.4,0.7-22.9,1.6-34.3
	c0.3-4.4,1.4-8.9,2.8-13.1c1-3,0.5-5.3-1.2-7.5c-2-2.7-4-5.5-6.5-7.7c-4-3.6-6.4-8-7.8-13.1c-0.5-1.9-1.5-3.8-2.4-5.6
	c-5.5-10.2-9-21.4-9.3-32.7c-0.7-23.7-0.8-47.5,7.7-70.5c4.6-12.4,9.2-24.8,13.8-37.2c4.9-13.4,11.2-25.9,19.3-37.4
	c9-12.7,16.9-26.5,29-36.9c3-2.6,3.8-5.7,2.1-9.7c-7.4-16.9-7.5-34.5-4.6-52.3c1.9-12,4.2-23.9,6.9-35.7c3.4-14.9,10.6-28,20.3-39.8
	c2.1-2.6,4.1-5.4,5.9-8.2c1.6-2.5,1.3-4.5-1.1-7c-9.1-9.7-20.4-11-32.3-8.3c-6.8,1.5-11.4,7.2-14.8,13.1c-4,7-7.2,14.4-10.7,21.7
	c-2.1,4.5-4,9-6.2,13.4c-1.8,3.6-3.9,6.9-7.4,9.4c-4,2.8-7.4,6.5-11,9.9c-4.7,4.4-10,7.7-16.4,8.8c-2.6,0.5-5.3,0.4-8,0.4
	c-1.1,0-2.1-0.6-3.2-0.9c-19.2-4-22.8-19.8-23.5-33c-0.5-8.5,0.3-17.1,0.6-25.6c0-1.1,0.2-2.2,0.5-3.3c2.8-11.4,7.9-21.9,13.5-32.2
	c6.8-12.5,17.1-21.7,27.8-30.7c6.4-5.4,14-7.9,21.3-11.4c2.5-1.2,6.1-0.5,9.2-0.3c8.3,0.4,15.9,2.7,22.4,8c2.4,2,5.1,3.7,7.9,5.1
	c6.2,3.1,10.6,8.2,15.1,13.2c5,5.5,9.8,11.1,15,16.4c2.5,2.5,5.4,4.7,8.5,6.6c6,3.7,12.3,5,19.3,2.8
	C401.8,190.2,409.6,187.3,418,183.8z M390,560.7c-1.8,0.4-3.5,0.7-5.1,1.3c-2.7,1.1-5.3,2.3-7.9,3.6c-7.6,3.8-15.1,7.8-22.7,11.6
	c-3.2,1.6-4.6,4-4.5,7.6c0.1,7.4,0,14.8,0.1,22.2c0,2.3,0.3,4.7,0.5,8.2c6.3-2.6,11.5-4.8,16.6-7c2,3.6-0.1,5.2-2.1,6.6
	c-3.8,2.7-8,5-11.6,7.9c-10,7.9-20.2,15.7-28.1,25.9c-2.2,2.8-3.9,6-6,9c-1.4,1.9-2.7,4.2-6.6,3.2c0.9-10.6,9.5-16.8,14.8-25.8
	c-9.8-6.7-15.8-17-26.5-24.5c-1.5,6.2-3.1,11.3-3.8,16.6c-2.2,15.9-3.2,31.8,3.7,47c3.9,8.6,7.9,17.1,11.7,25.8
	c3.1,7.1,7.5,13.3,13,18.7c6,6,11.8,12.3,18.2,17.8c9.7,8.3,19.7,16.3,30,23.9c9.3,7,19.2,13.2,28.7,19.9
	c8.9,6.3,18.5,11.4,29.1,13.5c10.9,2.1,21.8,4.6,33.2,3.4c8.5-0.8,17-0.5,25.1-3.9c2.8-1.2,6.1-1.6,9.2-2.1
	c10.1-1.8,20.5-2.5,30.1-6.7c4.8-2.1,5.5-3.6,2.7-8c-3-4.5-6.1-8.9-9.2-13.3c-3.6-5.1-7.3-10.3-11-15.3c-1.8-2.5-1.3-4.5,0.7-6.6
	c4.3-4.5,8.1-4,11,1.6c5.5,10.5,10.3,21.3,17.5,31c5.6,7.4,11.1,14.6,18.4,20.5c10.7,8.5,21.9,16.3,33.5,23.5
	c15,9.3,29.8,18.1,47.4,21.8c13.1,2.7,26,7,39.6,7.3c0.9,0,1.8,0.3,2.6,0.5c9.3,1.2,18.7,2.4,28,3.5c11.7,1.3,22.7-1.2,33.3-6.3
	c6.1-2.9,12.1-5.9,18.3-8.6c16.4-7.1,31.3-16.5,45.3-27.6c14.5-11.5,25.1-25.5,31.5-42.8c3.2-8.8,5.9-17.9,8.8-26.8
	c0.6-1.9,1.1-4,2.1-5.7c0.6-1,2.2-1.5,4.5-3.1c0,5.5,0,9.6,0,13.8c5.3,0.9,9.8,0.8,13.8-1.7c4.7-3,9.5-6.1,13.7-9.7
	c7.1-6.2,14.1-12.5,20.4-19.4c3.5-3.9,6.4-8.8,8.2-13.8c4.9-13.3,8.9-26.8,11.3-40.8c2.7-15.5,1.9-30.9-1.2-46.2
	c-1.5-7.5-6.1-12.9-13.7-15.4c-2.9-1-5.4-1-8.1,1.2c-6.7,5.6-13.6,11-18.6,18.4c-1.2,1.7-2.3,3.6-3.6,5.6c4,2.3,7.4,4,10.5,6.1
	c8.4,5.5,16.8,11.2,25.2,16.9c1.1,0.8,2.5,1.4,3.2,2.4c0.6,0.9,0.9,2.5,0.6,3.5c-0.1,0.5-2.1,1.2-2.8,0.9c-3-1.4-6-2.9-8.8-4.7
	c-10.3-6.8-19.7-14.9-31.4-19.4c-6-2.3-11.6-6-17.6-8.3c-7.3-2.8-14.9-4.8-22.3-7.2c-2.7-0.9-5.3-1.9-6.4-4.7
	c5.9-4,11.7-0.1,17.8-0.7c2.3-7.4,3.9-14.8,3.3-22.5c-0.1-1.3-1.2-2.9-2.3-3.8c-3.6-2.7-7.1-5.5-11.1-7.6
	c-10.8-5.9-21.8-11.6-32.8-17.2c-1.8-0.9-3.8-1.5-5.7-1.8c-8.9-1.5-10.8,0.2-10.8,9.2c0,22.9,0.1,45.8,0.1,68.7
	c0,8.6-2,10.5-10.7,9.8c-2.2-0.2-4.3-1.1-6.5-1.7c-5.8-1.6-11.6-3.6-17.5-4.9c-12-2.4-23.9-5.7-36.2-6.8c-2.6-0.2-5.2-1.3-7.7-2.3
	c-6.7-2.8-7.7-4.9-6.2-12c0.1-0.7,0.4-1.3,0.6-1.9c2.5-8.7,3.5-17.4-0.9-25.9c-0.3-0.6-0.6-1.2-0.7-1.9c-1.2-6.1-1.4-12.1,2.4-17.5
	c2.3-3.3,5.1-6.2,7.6-9.3c1.2-1.5,2.8-3.1,3.3-4.8c1.7-5.6,2.9-11.3,4.3-16.9c0.4-1.7,0.6-3.4,1.1-5.9c-12.5-3.3-24.5-6.7-36.7-9.6
	c-7.8-1.8-15.9-2.8-23.8-4.3c-6.2-1.2-12.2-2.9-18.4-3.7c-8.9-1.2-17.8-1.9-26.7-2.7c-2.7-0.2-5.4,0-8,0.1
	c-6.5,0.4-13.1,1.7-19.5,1.2c-15.1-1.3-30.1-0.4-45,1.2c-14.5,1.5-29.2,1.8-43,7.4c-0.8,0.3-1.7,0.5-2.6,0.6
	c-11.2,1.4-21.9,4.8-32.4,8.6c-6.7,2.4-8.3,4.5-5.9,11c4.5,12.4,9.4,24.8,15,36.8c4.8,10.4,10.7,20.2,16,30.3
	c2.1,3.9,0.9,6.4-3.5,8.1c-6.2,2.5-12.7,4.7-18.7,7.7c-15,7.4-31,11.9-46.8,16.9c-1.9,0.6-4.2,0.4-6.1,0.5
	c-2.5-10.2-4.6-19.6-7.2-28.9c-0.7-2.6-2.7-5.3-4.8-7c-3.8-3.2-6.5-7.2-7.2-11.8c-0.8-4.8-0.6-9.8,0.1-14.7
	C393.3,571.7,392.7,566.5,390,560.7z M730.1,169.8c3.4,1.5,5.6,2.8,7.9,3.4c6.4,1.7,12.3,4.2,17.4,8.4c5.5,4.6,11.2,8.9,16.7,13.6
	c10.1,8.5,12.5,21.2,8.6,33c-3.6,10.9-11.2,19.3-18.9,27.5c-4,4.2-8.5,8-12.7,12c-5.9,5.6-12.7,8.3-20.9,6.2
	c-9.2-2.4-16.6-7.1-22.2-15.1c-8.4-12.1-18.4-22.6-33.5-26.7c-7.6-2.1-14.8-1.8-21.4,2.2c-6.1,3.7-11.4,8.8-12.4,16
	c-1,7.2-1.3,14.7,1.7,21.9c6.5,15.5,3.7,31.5,1.5,47.2c-1.2,8.6-2,17.8-6.9,25.7c-0.4,0.7-0.5,1.7-0.5,2.6
	c-0.9,7.9-5.1,14.3-9.5,20.5c-6.9,9.7-14.1,19.1-21.8,28.1c-8.3,9.6-16.9,19.3-26.5,27.6c-8.7,7.6-19.3,13-27.5,21.4
	c-1.5,1.6-3.7,2.5-5.7,3.6c-16,8.5-33.3,13.3-50.7,17.5c-11.4,2.7-23.1,3.2-34.8,2.9c-6.9-0.2-7.6,0.5-8,7.5
	c-0.6,10.1-1.4,20.1-1.3,30.2c0.1,6.6,1.8,13.1,4.5,18.8c13.6-4.1,26.3-8.5,39.3-11.6c14.8-3.6,29.8-6,44.8-8.9
	c19.2-3.8,38.7-4.4,58.2-5.6c4-0.2,8.1-0.7,12.1-0.4c10.9,0.8,21.9,1.7,32.8,3.2c15.3,2.1,30.5,4.8,45.8,7.2
	c4.2,0.7,8.6,0.8,12.5,2.3c7.6,2.9,15.4,2,23.5,2.7c0.8-2.1,1.7-3.9,2.1-5.8c2.6-13.2,4.8-26.5,7.7-39.6c2.6-11.8,5.9-23.5,9.3-35.1
	c2.6-9,6.5-17.8,8.6-26.9c3.4-14.6,9.8-27.9,16.3-41.2c7.5-15.3,15.1-30.6,22.7-45.8c3.7-7.4,7.1-15.1,11.8-21.9
	c7.6-10.8,16.1-21,24.3-31.3c5.2-6.5,10.2-13.2,16.1-19c8.4-8.4,17.5-16.1,26.1-24.2c1.4-1.3,3.3-3.3,3.2-4.9
	c-0.3-4.4-0.7-9-2.4-13.1c-3.8-9.4-10.5-16.6-19.1-22c-2.3-1.4-4.6-2.8-6.8-4.3c-11.2-7.5-22.4-15-36.1-17.2c-3.1-0.5-6.1-2-9.1-2.1
	c-12.3-0.6-24.6-1.1-37-1.2C749,158.8,739.5,162.1,730.1,169.8z M850.3,531.7c-0.1,0-0.1,0-0.2,0c0-4.3,0-8.5,0-12.8
	c0-4.3,0.1-8.5,0.3-12.8c0.2-6.1,2.4-9.9,7.1-9.7c9.8,0.3,20,0.1,29.3,2.7c10.2,2.9,19.7,8.6,29.2,13.7c4.9,2.6,9.4,6.2,13.5,10
	c11.3,10.4,11.5,23.9,0.8,34.8c-0.6,0.6-1.4,1.2-2,1.8c-7.2,8-15.1,15.4-18.8,26c-1.2,3.6-1,5.8,2.5,6.9c1.9,0.6,4.8,0.5,6.2-0.6
	c4.4-3.3,8.3-7.4,12.6-11c4.5-3.8,7.2-9,10.8-13.5c9-11.5,17.9-22.8,24.7-36c8.2-15.7,13-32.4,18.1-49.2c3.3-10.7,5.6-21.8,8.2-32.7
	c2-8.6,3.6-17.3,2.3-26c-1.5-10.4-3.8-20.7-5.8-31c-0.4-2-1.1-4-1-5.9c0.4-7.5-1.8-14.2-5.1-20.7c-0.8-1.6-1.5-3.3-2.1-5
	c-3.1-9.4-6.1-18.8-9.3-28.1c-0.7-2.1-1.4-4.5-3-6c-4.4-4.2-6.3-9.7-9-14.8c-2.8-5.3-5.6-10.7-8.6-16c-5.9-10.1-15.7-11.2-24.1-3
	c-2.1,2-4.1,4.2-6.5,5.8c-13.5,9.2-25.1,20.3-35.9,32.4c-7.3,8.2-15.5,15.5-22.9,23.6c-9.6,10.6-18.3,22.1-26.9,33.6
	c-7.9,10.6-13.4,22.2-18.6,34.1c-3.1,7.2-5.6,14.6-8.1,22.1c-3.4,10.7-6.7,21.4-9.7,32.2c-2.2,7.7-4,15.6-5.8,23.5
	c-0.8,3.7-1.3,7.5-1.8,11.3c-0.9,6.7-2,13.3-2.5,20.1c-0.5,7.6,0.8,9.3,8.2,11.4c9,2.6,16.8,7.1,24.3,12.7
	c6.8,5.1,14.4,9.1,21.7,13.4c3.2,1.9,5.1,1.1,6-2.5c0.9-3.7,1.6-7.5,1.8-11.3C850.5,547.4,850.3,539.6,850.3,531.7z M561.6,175.2
	c-3.9,0.7-5.5-1.2-5.6-4.3c-0.2-3.4-0.5-7,0.5-10c3-8.6,3.6-17.4,3.9-26.4c0.2-6.8-1.8-12.9-4.3-18.6c-1.8-4.1-5.5-7.5-8.8-10.8
	c-10.9-11.3-21.9-22.4-32.9-33.5c-2.5-2.5-5.4-4.8-8.3-6.9c-10.4-7.4-21-14.6-31.5-21.9c-9.5-6.6-20.4-10.2-31.5-13.2
	c-1.4-0.4-3.1,0.4-5.7,0.7c5,6.5,9.2,12,13.5,17.4c8.9,11,17.6,22.1,24.3,34.5c7,13.1,11.7,27.2,16.1,41.3
	c5.1,16,7.5,32.6,10.4,49.2c0.5,2.6,1.5,5.8-1.7,8.1c-3.2-2.5-2.4-6.2-3.1-9.3c-3-13.4-5.4-26.9-9-40.1c-2.3-8.5-7.3-15.8-15-20.9
	c-1.3-0.9-2.4-2-3.4-3.2c-9.5-11-21.5-19-33.3-27.1c-3.7-2.5-8.6-3.9-11.2-7.2c-3.2-3.9-7.1-6-11.2-8.2c-4.3-2.4-8.5-5.1-12.8-7.5
	c-11.1-6.1-22.8-10.3-37-11.6c2.4,2.5,3.8,4.1,5.4,5.5c6.8,6.5,14,12.6,20.3,19.6c5.5,6.1,10,13.2,14.9,19.9c1.5,2.1,2.6,4.2,0,6.4
	c-4.4-2.8-8.8-5.4-12.9-8.3c-14.2-10-30.6-15.7-46.1-23c-10-4.7-20.9-4.9-31.6-5.6c-6.1-0.4-12.3,0.7-19,3.5c2,1.3,3.2,2.3,4.6,2.8
	c7.2,3.1,14.3,6.4,21.7,9.1c15.2,5.6,28.1,15.1,40.8,24.7c11.2,8.4,21.9,17.5,29.8,29.6c4.9,7.5,11.3,13.9,16.5,21.2
	c8.3,11.7,16.8,23.3,22.7,36.5c3.6,7.9,8.8,9.3,15.6,3.9c5.2-4.1,10.9-5.8,17.3-6.6c5.7-0.7,10.6,0.4,15.2,3.6
	c6.4,4.5,10.8,10.7,14.9,17.2c1.9,3,4,4.6,7.8,3.5c9-2.8,18.3-3.9,27.8-3.9c11.5,0,22.7,0.3,33.9,4.2c11.7,4.1,22.8,9.4,33.8,15
	c4.2,2.1,8.5,4.5,13,5.3c6.3,1.1,13.2,2.3,18.6-2.7c8.3-7.6,16.2-15.8,21.1-26.1c7.8-16.2,21.6-24.7,37.5-30.7
	c4.6-1.7,9.6-2.3,14.4-3.3c5.5-1.2,6.4-2.1,6.7-7.5c1.1-17,2.2-34,3.2-51c0.1-1.5-0.7-3-1.1-4.6c-0.5,0-1-0.1-1.5-0.1
	c-1,1.6-2,3.3-3.1,4.9c-1.5,2.2-2.9,4.5-4.7,6.5c-8.2,9.2-16.2,18.6-24.8,27.5c-8.8,9.2-18.1,18-27.4,26.8c-2.5,2.4-5.6,4.2-10.8,3
	c1.7-2.1,2.7-3.6,4-4.9c7.6-7.6,15.2-15.2,22.9-22.8c2.2-2.2,3-4.8,3.2-7.9c0.9-11.1-0.2-22-1.9-32.9c-1.1-7.3-3.4-14.6-3.2-21.9
	c0.2-8.5-3-16.3-3.7-24.6c-0.1-1-0.9-1.9-1.7-3.6c-0.9,1.6-1.6,2.4-1.9,3.4c-3.8,10.5-7.5,21.2-11.4,31.7
	c-3.7,9.9-7.1,19.9-11.7,29.3c-6.7,13.5-16.4,25.1-25.3,37.3c-1.1,1.4-2.4,2.7-3.7,3.9c-2.4,2.2-5.3,2.7-8.4,2.6
	c-0.1-0.8-0.3-1.4-0.2-1.7c0.4-0.8,0.8-1.7,1.5-2.2c6.6-5.4,10.4-12.9,14.4-20.2c5.1-9.1,6.8-18.4,1.4-28.1
	c-0.8-1.4-1.1-2.9-1.6-4.4c-3.7-12.4-10.7-23.1-17.2-34.2c-6.6-11.3-15.5-20.9-23-31.4c-1.7-2.4-4.4-4.1-6.6-6.2
	c-0.5,0.3-0.9,0.5-1.4,0.8c0.3,1.8,0.5,3.7,0.8,5.5c1.2,6.2,2.8,12.3,3.7,18.5c1.6,11.3,3,22.7,4.2,34.1c1.6,14.6,1.8,29.2-0.6,43.6
	c-1.5,9.1-3.9,18-6,26.9C564,167.1,562.7,171.1,561.6,175.2z M529.8,406.3c3.8,0,7.9,0.8,11.4-0.2c11.8-3.4,24.2-5.4,34.8-12.3
	c7.7-5,15.5-9.9,22.8-15.4c10-7.5,17-17.8,22.8-28.7c3.8-7.1,6.7-14.7,9.6-22.2c2.6-6.7,5.7-13.4,6.7-20.4
	c2.4-17-0.7-33.1-10.6-47.5c-7-10.2-15.9-18.2-26.2-24.8c-11.8-7.5-24.3-13.6-37.8-17.3c-13.9-3.8-28-2.6-42.2-1.1
	c-10.3,1.1-18.5,5.8-25.5,12.5c-10.3,9.8-18.7,21.4-25.3,33.9c-6.3,12.1-10.6,25.2-12.3,38.9c-0.9,7.3-0.5,14.8-1.9,22
	c-2.4,12.5-0.4,24.1,3.1,36.3c4.1,14.6,12.3,25.2,24.1,33.5c4.7,3.3,9.6,6.2,15.4,8C508.9,404.6,519.2,406.1,529.8,406.3z
	 M723.2,549.3c6.6,2.4,12,3.8,17,6.2c8.4,3.9,15.1,9.6,17.5,19.2c1.9,7.7,0.6,15.2-4,21.1c-4.7,6.1-12.1,9.5-19.8,10
	c-6.2,0.4-12.5-1.2-18.7-2.2c-4.8-0.8-5.5-0.6-7,3.7c-0.4,1.3-0.7,2.6-1.1,3.9c-2,6.7-0.6,8.9,6.4,9.9c3.6,0.5,7.2,0.5,10.7,1.2
	c13.4,2.5,26.8,5.2,40.3,7.6c13.5,2.4,15.2,0.5,14.2-13.5c-0.6-8.7-0.5-17.5-0.4-26.2c0-7.6,0.8-15.3,0.6-22.9
	c-0.3-14.3,1.7-28.2,4.2-42.2c1.7-9.5,2.8-19.1,4.1-28.6c0.5-3.5,0.7-7.2,1.7-10.6c4.5-15,8.9-30.1,13.8-45
	c3.6-11.1,6.5-22.4,12.5-32.6c1.6-2.7,3.2-5.4,4.7-8.1c4.3-7.4,8-15.2,13.1-21.9c7.3-9.7,15.3-18.8,23.4-27.8
	c8.2-9,16.9-17.4,25.4-26c5.8-5.9,11.2-12.3,17.3-17.9c7.4-6.8,15.6-12.8,23.2-19.4c5.7-4.9,9-10.9,6.1-18.5
	c-4.6-11.9-8.1-24.5-17.9-33.6c-5.6-5.2-11.7-9.8-17.8-14.3c-5.3-3.9-9-3.6-13.9,0.9c-12.1,11.3-24.7,22.2-36.1,34.1
	c-13.3,14-25.7,28.8-35.6,45.5c-2.3,3.9-4.7,7.7-6.9,11.5c-4.5,7.7-9.5,15.3-13.3,23.4c-7.8,16.6-15.1,33.4-22.4,50.2
	c-3.5,8.2-7.3,16.5-9.6,25.1c-5,18.2-9.1,36.6-13.5,54.9c-2.5,10.4-4.7,20.9-7.3,31.4c-2.8,11.5-6.2,23-8.8,34.6
	C724.1,538,723.9,543.8,723.2,549.3z M451,249.7c-5-6.2-9.7-11.9-14.2-17.7c-0.9-1.2-1.5-2.8-1.8-4.3c-2.6-11.4-6.7-22.3-11.3-33
	c-2.2-5.1-3-5.6-8.1-3.9c-6.2,2.1-12.3,4.3-18.2,6.9c-9.1,4.1-17.1,9.7-22.9,18.2c-4.2,6.1-8.7,12-13.5,17.6
	c-8.6,10.3-13.4,22.3-16.3,35c-2.7,12.3-5,24.7-6.4,37.1c-0.9,8.1-1.8,16.5,0.5,24.7c2.6,9.5,4.5,19.2,7.3,28.7
	c2.9,9.9,7.8,18.7,16.1,25c9.2,6.9,19.3,12.3,30.3,15.8c9.3,2.9,18.6,5.3,28.2,0.9c1.6-0.7,3.5-0.7,5.3-0.9
	c14.5-1.9,26-8.9,35.6-20.1c-1.5-3.2-2.6-6.4-4.3-9.2c-6-9.8-6.5-21-8-31.7c-1.4-10.6-0.3-21.4,1.9-32.1
	c3.3-15.9,7.6-31.4,14.8-45.9c5.7-11.7,12-23.1,17.5-34.8c2.2-4.8,3.4-10.2,4.3-15.4c0.4-2-0.6-5.2-2.1-6.5
	c-3.1-2.8-6.8-5.2-10.7-6.8c-6.6-2.6-12.9-0.6-17.5,5c-2.5,3.1-4.8,6.5-6.9,9.9c-3.1,4.9-3.3,10.1-1.3,15.5
	c1.3,3.6,2.8,7.1,3.7,10.8C453.7,242.1,454.5,246,451,249.7z M343.7,369.8c-5.4,3.3-10.2,6.7-13.9,11.1
	c-9.5,11.6-18.7,23.4-25.5,36.9c-3,6-6.8,11.7-9.2,17.9c-4.7,12.3-9.8,24.4-13.5,37.2c-3.5,12.1-6.8,24-8,36.6
	c-1.7,17,0.7,33.6,4.7,50c1.8,7.3,10.4,10.1,16.7,5.9c9-6,19.2-8.9,29.6-10.7c5.2-0.9,10.7-0.1,16.1,0.3c4.4,0.3,7.5,2.3,8,7.4
	c0.3,3.2,1.3,6.3,2,10.1c11.9-5.6,23-10.8,34.1-16.1c4.1-2,5.8-5.2,5.1-9.8c-0.8-4.9-1.6-9.8-1.9-14.7c-0.9-15.4-1.6-30.8-2.3-46.3
	c-0.7-15-2.5-30,1.3-44.9c0.7-2.8,0-5-2.4-7.1c-2.8-2.4-5.3-5.4-7.3-8.5c-5.9-9.2-11.5-18.6-17.1-28c-4.5-7.5-8.7-15.1-13-22.7
	C346.1,373,345,371.7,343.7,369.8z M562.5,920.4c-2,1.4-3.9,2.8-6,4.1c-1.3,0.8-2.6,2-4,2.2c-5.4,0.9-10.7,0.6-15.7-2.1
	c-7-3.8-12-9.3-16-16c-0.7-1.2-1.1-2.5-1.8-3.6c-2.3-3.6-6-4.4-10.7-3.1c-4.1,1.2-3.2,4.3-3.2,7.1c0.2,7.6,3.9,13.7,8.6,19.2
	c1.2,1.4,2.3,2.8,3.9,4.7c-4.4,2.2-7.3,0.9-10.4-0.5c-4.7-2.1-9.4-4.2-14.3-5.8c-4.7-1.6-7.1-4.3-7.1-9.3c0-3-0.6-6-1-9.1
	c-7.7,1.7-10.1,4-10.8,10c-0.6,5.9-0.5,11.8,5.2,15.7c2.8,1.9,5.4,4,8.1,6c1.1,0.9,2.2,1.8,3.6,2.9c-2.8,3-5.7,2.5-8.5,1.9
	c-6.6-1.4-13-3.4-19.7-4.4c-4-0.6-5.9-2.5-7.3-5.9c-0.9-2.2-1.9-4.3-3.1-6.8c-2.6,1.8-4.4,3.1-6.3,4.4c0.5,5.5-0.3,11.2,3.2,15.7
	c3.1,4.1,7,7.5,11.5,12.2c-3,0.1-5,0.8-6.7,0.2c-6.5-2.2-13.4-3.6-19.1-7.9c-3.9-3-6.2-2.1-8.5,2.3c-1.5,2.9-3.5,5.7-5.1,8.6
	c-3.6,6.4-7.8,12.6-10.5,19.4c-3.7,9.1-4.9,19-6.1,28.7c-0.6,4.7,1,8.1,5.1,9.9c3.9,1.7,8,3.1,12.1,3.8c21.4,3.5,42.9,1.7,64.4,0.3
	c12.1-0.8,24-2.2,36-4.8c6.2-1.4,12.2-2.3,17.2-6.8c0.1-1.4,0.1-3,0.5-4.5c2-9.6,3.1-19.6,6.4-28.8c5.3-14.6,12.5-28.3,24.6-38.8
	c2.3-2,3-4.6,2.2-7.3C571.5,928.7,569.9,922.9,562.5,920.4z M665.3,941.6c-4.7,4.3-8.6,7.9-12.7,11.5c-2.5,2.2-5.1,4.6-8.8,4.2
	c-5.7-0.5-11.3-1.8-15-6.6c-2.7-3.5-4.8-7.5-6.9-11.4c-1.4-2.7-2.7-5.2-6.4-4.9c-9.3,0.8-18.5,0.8-27.3,5.2
	c-9.7,4.8-17,11.5-22.5,20.5c-1.2,1.9-2.2,3.9-3.5,5.7c-11.5,15.1-16.7,31.9-14,50.9c1.5,11,5.2,21.2,11.8,30.3
	c1.2,1.6,2.3,3.3,3.3,5c5,8.5,12.4,14.2,21.6,17.2c12.9,4.2,25.7,0.8,38.4-1.6c1.2-0.2,2.3-1.3,3.5-2c4.2-2.6,8.2-5.7,12.7-7.6
	c9.2-3.9,16.4-10,22.9-17.3c10.3-11.6,19.1-24.2,19.8-40.3c0.4-10.5-0.7-21-1.7-31.5c-0.5-4.9-1.9-9.7-3.6-14.3
	C674.7,948.7,671.3,943.4,665.3,941.6z M412.7,609.7c0.8,6.2,1,11.6,2.3,16.7c1.4,5.8,3.7,6.7,9.5,4.8c9-2.9,18-5.7,26.8-9
	c8.4-3.2,16.6-6.8,24.8-10.6c4.4-2,4.4-3.5,2-7.9c-3.7-6.9-7.5-13.8-10.8-20.9c-5.9-13.1-11.6-26.2-16.9-39.6
	c-2.4-6-3.6-12.5-5.1-18.8c-0.7-3-1.2-6.2-1.5-9.3c-0.5-4.7-1.2-9.4-1.1-14c0.3-8.1,1.3-16.1,1.9-24.2c0.2-2.6,0-5.3,0-7.1
	c-9.4-4.2-18.5-7.5-26.8-12.2c-8.4-4.7-16-10.8-24.2-16.5c-3.1,4.3-3.7,8.5-3.6,12.7c0.2,12.8,0.8,25.6,0.6,38.3
	c-0.3,19.2,2.8,38,5.6,56.9c0.7,4.6,0.9,9.9,4.9,13.4c15.3-6.3,24.7-6.1,32.6,0.6c8.1,7,11,16.3,8.5,26.2
	C438.7,603.3,427.9,609,412.7,609.7z M573.6,816.9c-1,5.8-2.1,10.8-2.6,15.9c-0.9,9.1-1.6,18.2-2.3,27.3c-0.6,7.8-1,15.6-1.4,23.4
	c-0.2,4.9-0.4,9.8-0.1,14.7c0.4,6.6,0.3,13.3,5.4,18.9c2.5,2.7,3.5,6.7,5.1,10.1c1.1,2.3,2.2,4.6,2.9,6c5.3-1.4,9.6-2.5,13.9-3.6
	c5.9-1.4,11.8-2.8,17.7-3.9c3.6-0.7,4.8-2.9,4.7-6.2c0-1.3-0.1-2.7-0.4-4c-2.4-11.6-5.1-23.2-7.4-34.8c-2.7-13.8-5.2-27.7-7.7-41.6
	c-0.8-4.3-2.1-8.1-6.5-10.3c-3-1.5-5.2-4.3-8-6C582.9,820.3,579.3,816.5,573.6,816.9z M724,558.2c-6,0.3-10.5,2.6-13.3,7.4
	c-2.6,4.4-4.8,9.1-6.6,13.9c-0.7,1.8-0.2,4.5,0.8,6.3c2.7,5.1,6.5,8.8,12.5,10.4c5.3,1.4,10.2,0.6,15.2-0.5
	c11.1-2.4,17.2-15.9,11.8-25.9C739.8,561.4,732.1,559.3,724,558.2z M397.7,584.6c0.8,6.5,0.5,13.7,8.6,16.5c2.1,0.7,4.3,1.3,6.4,1.5
	c7.5,0.7,12.8-3.8,17.5-8.5c9.3-9.4,4.3-27.9-8.4-29.9c-11.3-1.8-22.3,2.1-23.7,16.3C398.1,581.8,397.9,583.2,397.7,584.6z"/>
<path fill-rule="evenodd" clip-rule="evenodd" d="M0.8,937.3c-1.8-7.1,4-12.7,6.3-19.3c1.3-3.6,3.7-6.7,5-10.3
	c2.2-5.8,4.3-11.8,5.7-17.8c2.9-12,9.1-21.9,18.9-29.3c5.5-4.1,11.8-6.6,18.6-7.2c5.8-0.5,11.7-0.6,17.5,0c5.8,0.5,11.2,2.3,16.6,5
	c8.8,4.4,18.2,7.5,27.3,11.4c5.1,2.2,10.1,4.8,15.2,7.1c6.5,2.9,13.2,5.6,19.7,8.6c11.7,5.3,22.3,12.4,32.1,20.7
	c11.4,9.7,22.7,19.6,34,29.5c2.5,2.2,5,4.6,7,7.3c8.5,11.7,18.7,21.6,28.9,31.8c9.4,9.4,20.9,15.4,31.7,22.5
	c12.3,8.2,25,15.8,37.7,23.4c4,2.4,5.1,5.4,5,10c-0.3,10.5-6.2,18-12.7,25.2c-2.7,3-7.3,3.5-11.8,1.1c-5.9-3.2-12-6.3-17.2-10.4
	c-5.3-4.1-11.6-5-17.4-6.6c-10.1-2.8-20.6-4.1-30.9-5.8c-14-2.4-27.7-0.2-41.5,2.3c-12.7,2.4-25.3,2.8-38.1,0.6
	c-8.8-1.5-17.9-1.9-26.7-3.2c-4.8-0.7-9.7-1.9-14.2-3.7c-14.4-5.7-28.8-11.3-42.8-17.9c-8.2-3.9-16-9.1-23.3-14.6
	c-8.5-6.5-18.1-11.7-25.2-20c-5.8-6.8-12.5-12.8-18.5-19.5C2.7,952.4,0.6,945.7,0.8,937.3z M59.8,861.9c-12.4,1.9-23.4,6-28.3,18.2
	c-3.9,9.7-9.9,18.7-11.4,29.4c-0.1,0.6-0.5,1.3-0.8,1.8c-8.2,14-6.8,28.4-1.9,42.9c0.6,1.9,1.5,3.8,2.8,5.3
	c4.9,5.5,9.5,11.4,15.2,16.1c16,13.4,32.2,26.5,52.1,34.1c15.5,5.9,30.3,13.5,47,15.8c8.7,1.2,17.3,3,26,3.9c10,1,20,1.5,30.2-0.2
	c16.8-2.8,33.7-5.6,50.8-2.8c7.3,1.2,14.8,1.4,21.9,3.2c10.6,2.8,21,6.6,31.4,10.1c3.6,1.2,6.1,0.1,8-2.9c1.5-2.5,2.8-5.1,4.4-7.6
	c4.7-7.4,4.5-8.5-3.2-12.6c-1.6-0.8-3.3-1.5-4.9-2.3c-5.8-2.9-11.5-6.1-17.4-8.8c-8-3.7-14.9-9-22.1-13.9c-5-3.4-10.5-6.3-14.8-10.4
	c-5.5-5.2-10.2-11.3-15.1-17c-9.9-11.6-19.4-23.5-29.8-34.6c-9.5-10.1-19.4-20.1-33.1-24.7c-1.2-0.4-2.3-1.3-3.5-2
	c-7.5-4.8-14.4-10.6-22.8-14c-5.2-2.1-10.8-3.2-15.7-5.9c-7.7-4.2-15.4-8-23.8-10.8c-10.6-3.5-21-7.9-32.4-7.8
	c-1.7,0-3.4-0.9-5.1-1.4C62.1,862.6,60.8,862.2,59.8,861.9z M307.9,1048.4c8.9-2.3,14.2-11.7,10.5-19.7c-5.9,2.7-7.1,8.9-10,13.5
	C307.5,1043.7,308.1,1046.1,307.9,1048.4z"/>
<path fill-rule="evenodd" clip-rule="evenodd" d="M325.7,1051.2c1.3,1.7,2.6,3.4,3.8,5.2c3.3,5.3,7.5,7.6,14.1,6.4
	c8.1-1.5,16.4-2.2,24.7-2.7c13.8-0.8,24.7,11.7,21.9,25.1c-0.4,1.8-1.7,3.6-2.9,5.2c-5.5,6.8-13.1,9.4-21.4,9.5
	c-8.9,0.1-16.4,3.9-24.2,7.2c-4.7,2-9.3,4.3-14.1,6.3c-4.8,2-7,1.9-9-2.2c-3.2-6.4-8.7-9.2-14.5-12.2c-4.8-2.4-8-7.2-5.5-14.1
	c1.9-5.4,4.6-8.9,9.8-11c6.4-2.6,10.8-6.8,11.8-14.2c0.4-2.9,2.4-5.6,3.7-8.3C324.3,1051.3,325,1051.3,325.7,1051.2z M327.8,1066.6
	c-3.6,7.9-10.4,12.1-17.3,16.3c-0.7,0.5-1.3,1.2-1.9,1.9c-4.1,4.7-3.5,7.1,2.1,9.6c2.4,1.1,5.4,1.9,7,3.7c5.5,6.6,12,5.5,18.4,2.8
	c9.1-3.9,18.3-7.3,28.2-8.5c2.7-0.3,5.3-0.9,7.9-1.7c3-0.9,6.4-1.8,6.9-5.5c0.6-4-0.5-8-4.2-10c-7.5-4-15.1-8.5-24.1-6.8
	C343.1,1069.9,335.7,1069.8,327.8,1066.6z"/>
<path fill-rule="evenodd" clip-rule="evenodd" fill="#FFFFFF" d="M390,560.7c2.7,5.7,3.3,11,2.4,16.8c-0.7,4.8-0.9,9.9-0.1,14.7
	c0.8,4.6,3.4,8.6,7.2,11.8c2.1,1.8,4,4.4,4.8,7c2.6,9.3,4.7,18.7,7.2,28.9c1.9-0.1,4.1,0.1,6.1-0.5c15.8-5,31.8-9.6,46.8-16.9
	c6-3,12.4-5.2,18.7-7.7c4.4-1.8,5.5-4.3,3.5-8.1c-5.3-10.1-11.3-19.9-16-30.3c-5.5-12-10.4-24.3-15-36.8c-2.4-6.5-0.8-8.6,5.9-11
	c10.5-3.8,21.2-7.2,32.4-8.6c0.9-0.1,1.8-0.3,2.6-0.6c13.8-5.6,28.5-5.9,43-7.4c15-1.5,29.9-2.4,45-1.2c6.4,0.5,13-0.8,19.5-1.2
	c2.7-0.2,5.4-0.4,8-0.1c8.9,0.8,17.9,1.5,26.7,2.7c6.2,0.8,12.3,2.6,18.4,3.7c7.9,1.5,15.9,2.4,23.8,4.3c12.2,2.9,24.2,6.3,36.7,9.6
	c-0.4,2.5-0.7,4.2-1.1,5.9c-1.4,5.7-2.6,11.3-4.3,16.9c-0.5,1.8-2.1,3.3-3.3,4.8c-2.5,3.1-5.3,6.1-7.6,9.3
	c-3.8,5.3-3.6,11.4-2.4,17.5c0.1,0.7,0.4,1.3,0.7,1.9c4.4,8.5,3.3,17.2,0.9,25.9c-0.2,0.6-0.4,1.3-0.6,1.9c-1.6,7.1-0.6,9.2,6.2,12
	c2.5,1,5.1,2.1,7.7,2.3c12.3,1.1,24.2,4.3,36.2,6.8c5.9,1.2,11.7,3.2,17.5,4.9c2.2,0.6,4.3,1.5,6.5,1.7c8.6,0.8,10.7-1.2,10.7-9.8
	c0-22.9-0.1-45.8-0.1-68.7c0-9,2-10.7,10.8-9.2c2,0.3,4,0.9,5.7,1.8c11,5.6,22,11.3,32.8,17.2c3.9,2.1,7.5,4.9,11.1,7.6
	c1.1,0.8,2.1,2.4,2.3,3.8c0.6,7.7-1,15.1-3.3,22.5c-6,0.6-11.8-3.3-17.8,0.7c1.1,2.8,3.8,3.8,6.4,4.7c7.4,2.4,15,4.4,22.3,7.2
	c6,2.3,11.6,6,17.6,8.3c11.7,4.5,21.1,12.6,31.4,19.4c2.8,1.8,5.8,3.3,8.8,4.7c0.7,0.3,2.7-0.4,2.8-0.9c0.3-1.1,0-2.6-0.6-3.5
	c-0.7-1.1-2.1-1.7-3.2-2.4c-8.4-5.6-16.7-11.3-25.2-16.9c-3.1-2.1-6.5-3.8-10.5-6.1c1.3-2,2.4-3.9,3.6-5.6
	c5-7.3,11.9-12.7,18.6-18.4c2.7-2.2,5.2-2.2,8.1-1.2c7.5,2.5,12.1,8,13.7,15.4c3.1,15.3,3.9,30.6,1.2,46.2
	c-2.4,14-6.5,27.5-11.3,40.8c-1.8,5-4.6,9.9-8.2,13.8c-6.3,6.9-13.4,13.2-20.4,19.4c-4.2,3.7-8.9,6.8-13.7,9.7
	c-3.9,2.5-8.4,2.6-13.8,1.7c0-4.2,0-8.3,0-13.8c-2.4,1.6-3.9,2-4.5,3.1c-1,1.7-1.4,3.8-2.1,5.7c-2.9,8.9-5.6,18-8.8,26.8
	c-6.3,17.3-16.9,31.3-31.5,42.8c-14,11.1-28.9,20.5-45.3,27.6c-6.2,2.7-12.2,5.6-18.3,8.6c-10.5,5.1-21.6,7.6-33.3,6.3
	c-9.3-1-18.7-2.3-28-3.5c-0.9-0.1-1.8-0.4-2.6-0.5c-13.6-0.3-26.4-4.5-39.6-7.3c-17.6-3.7-32.5-12.5-47.4-21.8
	c-11.7-7.2-22.9-15-33.5-23.5c-7.3-5.8-12.8-13.1-18.4-20.5c-7.2-9.6-12-20.5-17.5-31c-3-5.6-6.7-6.1-11-1.6c-2,2.1-2.5,4.1-0.7,6.6
	c3.7,5.1,7.3,10.2,11,15.3c3.1,4.4,6.3,8.8,9.2,13.3c2.8,4.3,2.1,5.9-2.7,8c-9.6,4.2-19.9,4.9-30.1,6.7c-3.1,0.5-6.3,0.9-9.2,2.1
	c-8.1,3.4-16.7,3.1-25.1,3.9c-11.4,1.1-22.3-1.3-33.2-3.4c-10.6-2.1-20.2-7.2-29.1-13.5c-9.5-6.7-19.3-13-28.7-19.9
	c-10.2-7.6-20.2-15.6-30-23.9c-6.4-5.5-12.2-11.8-18.2-17.8c-5.5-5.4-9.9-11.6-13-18.7c-3.8-8.6-7.8-17.2-11.7-25.8
	c-6.9-15.2-5.9-31.1-3.7-47c0.7-5.2,2.3-10.4,3.8-16.6c10.6,7.4,16.7,17.7,26.5,24.5c-5.3,9-13.9,15.2-14.8,25.8
	c3.9,1,5.2-1.3,6.6-3.2c2.1-2.9,3.8-6.1,6-9c8-10.1,18.1-18,28.1-25.9c3.7-2.9,7.8-5.2,11.6-7.9c2-1.4,4.1-3,2.1-6.6
	c-5.2,2.2-10.4,4.4-16.6,7c-0.2-3.6-0.4-5.9-0.5-8.2c-0.1-7.4,0-14.8-0.1-22.2c-0.1-3.5,1.3-6,4.5-7.6c7.6-3.8,15.1-7.8,22.7-11.6
	c2.6-1.3,5.2-2.5,7.9-3.6C386.5,561.4,388.2,561.2,390,560.7z"/>
<path fill-rule="evenodd" clip-rule="evenodd" fill="#FFFFFF" d="M730.1,169.8c9.4-7.7,19-11,29.6-10.9c12.3,0.1,24.6,0.6,37,1.2
	c3.1,0.1,6.1,1.6,9.1,2.1c13.7,2.2,24.9,9.7,36.1,17.2c2.2,1.5,4.5,2.9,6.8,4.3c8.6,5.4,15.3,12.6,19.1,22c1.6,4.1,2.1,8.7,2.4,13.1
	c0.1,1.6-1.8,3.6-3.2,4.9c-8.7,8.1-17.7,15.8-26.1,24.2c-5.8,5.9-10.9,12.5-16.1,19c-8.2,10.3-16.7,20.5-24.3,31.3
	c-4.7,6.7-8.1,14.5-11.8,21.9c-7.7,15.2-15.2,30.5-22.7,45.8c-6.5,13.3-13,26.6-16.3,41.2c-2.1,9.1-6,17.9-8.6,26.9
	c-3.4,11.6-6.6,23.3-9.3,35.1c-2.9,13.1-5.1,26.4-7.7,39.6c-0.4,1.9-1.3,3.7-2.1,5.8c-8.1-0.7-15.9,0.3-23.5-2.7
	c-3.9-1.5-8.3-1.6-12.5-2.3c-15.2-2.4-30.5-5.1-45.8-7.2c-10.9-1.5-21.8-2.3-32.8-3.2c-4-0.3-8,0.2-12.1,0.4
	c-19.5,1.2-39,1.8-58.2,5.6c-14.9,3-30,5.4-44.8,8.9c-13,3.1-25.7,7.5-39.3,11.6c-2.7-5.7-4.4-12.2-4.5-18.8
	c-0.1-10.1,0.8-20.1,1.3-30.2c0.4-7.1,1.1-7.8,8-7.5c11.7,0.4,23.4-0.2,34.8-2.9c17.5-4.2,34.7-9.1,50.7-17.5c2-1,4.2-2,5.7-3.6
	c8.2-8.4,18.8-13.8,27.5-21.4c9.6-8.4,18.1-18,26.5-27.6c7.8-9,14.9-18.5,21.8-28.1c4.4-6.1,8.6-12.6,9.5-20.5
	c0.1-0.9,0.1-1.9,0.5-2.6c4.8-7.9,5.6-17.1,6.9-25.7c2.2-15.6,5.1-31.7-1.5-47.2c-3-7.2-2.7-14.7-1.7-21.9c1-7.1,6.4-12.3,12.4-16
	c6.6-4.1,13.8-4.3,21.4-2.2c15.1,4.1,25,14.6,33.5,26.7c5.6,8,13,12.7,22.2,15.1c8.2,2.1,15-0.6,20.9-6.2c4.2-4,8.7-7.8,12.7-12
	c7.7-8.2,15.4-16.6,18.9-27.5c3.9-11.9,1.4-24.5-8.6-33c-5.5-4.6-11.2-9-16.7-13.6c-5.1-4.3-11-6.8-17.4-8.4
	C735.6,172.5,733.5,171.2,730.1,169.8z M736.8,284.6c-3.5,2.4-3.7,5.4-4.2,8.2c-0.6,4.1-2.1,7.1-7,7.6c-2.1,0.2-4.1,1.9-7,3.4
	c2.3,2,3.6,3.1,4.9,4.2c3.3,2.7,3.7,4.4,1.8,8c-1,1.8-2.5,3.2-3.4,5c-1.1,2.2-1.8,4.6-2.6,6.9c0.4,0.2,0.8,0.4,1.2,0.7
	c4.5-4.1,9-8.3,13.7-12.5c1.5,1.4,2.6,2.2,3.3,3.2c1.3,1.8,2.1,4.6,4.9,3.6c3.1-1.1,1.4-3.9,1-5.8c-1.4-6.6-1.4-12.5,6-15.7
	c0.2-0.1,0.5-0.3,0.5-0.4c0.3-1.4,1-3,0.6-4.2c-0.3-0.8-2-1.6-3.2-1.7c-1.7-0.1-3.4,0.4-5.3,0.7
	C740.3,291.9,738.6,288.4,736.8,284.6z"/>
<path fill-rule="evenodd" clip-rule="evenodd" fill="#FFFFFF" d="M850.3,531.7c0,7.9,0.2,15.7-0.1,23.6c-0.1,3.8-0.9,7.6-1.8,11.3
	c-0.9,3.6-2.8,4.4-6,2.5c-7.3-4.3-14.9-8.4-21.7-13.4c-7.5-5.6-15.3-10.1-24.3-12.7c-7.4-2.1-8.7-3.8-8.2-11.4
	c0.5-6.7,1.6-13.4,2.5-20.1c0.5-3.8,1-7.6,1.8-11.3c1.8-7.9,3.6-15.7,5.8-23.5c3-10.8,6.3-21.5,9.7-32.2c2.4-7.4,4.9-14.9,8.1-22.1
	c5.2-11.9,10.7-23.6,18.6-34.1c8.6-11.5,17.3-22.9,26.9-33.6c7.4-8.1,15.6-15.5,22.9-23.6c10.8-12.1,22.5-23.2,35.9-32.4
	c2.4-1.6,4.4-3.8,6.5-5.8c8.4-8.2,18.2-7.1,24.1,3c3.1,5.2,5.8,10.6,8.6,16c2.7,5.1,4.6,10.7,9,14.8c1.5,1.4,2.3,3.9,3,6
	c3.2,9.3,6.2,18.7,9.3,28.1c0.6,1.7,1.3,3.4,2.1,5c3.3,6.5,5.5,13.2,5.1,20.7c-0.1,2,0.6,4,1,5.9c1.9,10.3,4.2,20.6,5.8,31
	c1.3,8.8-0.3,17.5-2.3,26c-2.6,10.9-4.9,22-8.2,32.7c-5.1,16.7-9.9,33.4-18.1,49.2c-6.8,13.1-15.7,24.5-24.7,36
	c-3.5,4.6-6.2,9.7-10.8,13.5c-4.3,3.6-8.1,7.6-12.6,11c-1.4,1.1-4.3,1.2-6.2,0.6c-3.5-1.1-3.7-3.3-2.5-6.9c3.6-10.6,11.6-18,18.8-26
	c0.6-0.7,1.4-1.2,2-1.8c10.7-11,10.5-24.4-0.8-34.8c-4.1-3.8-8.6-7.4-13.5-10c-9.5-5.1-19-10.7-29.2-13.7
	c-9.3-2.7-19.5-2.4-29.3-2.7c-4.7-0.1-6.9,3.6-7.1,9.7c-0.2,4.3-0.2,8.5-0.3,12.8c0,4.3,0,8.5,0,12.8
	C850.2,531.7,850.3,531.7,850.3,531.7z"/>
<path fill-rule="evenodd" clip-rule="evenodd" fill="#FFFFFF" d="M561.6,175.2c1.2-4.1,2.5-8.1,3.4-12.2c2.1-9,4.5-17.9,6-26.9
	c2.4-14.5,2.2-29.1,0.6-43.6c-1.3-11.4-2.6-22.8-4.2-34.1c-0.9-6.2-2.4-12.3-3.7-18.5c-0.4-1.8-0.5-3.7-0.8-5.5
	c0.5-0.3,0.9-0.5,1.4-0.8c2.2,2,4.9,3.8,6.6,6.2c7.5,10.6,16.4,20.2,23,31.4c6.5,11,13.5,21.7,17.2,34.2c0.4,1.5,0.8,3.1,1.6,4.4
	c5.4,9.7,3.7,19-1.4,28.1c-4.1,7.3-7.8,14.7-14.4,20.2c-0.7,0.5-1.1,1.4-1.5,2.2c-0.2,0.3,0.1,0.8,0.2,1.7c3.1,0.1,6-0.5,8.4-2.6
	c1.3-1.2,2.7-2.5,3.7-3.9c8.9-12.1,18.6-23.7,25.3-37.3c4.6-9.4,8-19.5,11.7-29.3c4-10.5,7.6-21.1,11.4-31.7c0.4-1,1-1.8,1.9-3.4
	c0.8,1.7,1.6,2.6,1.7,3.6c0.7,8.2,3.9,16,3.7,24.6c-0.1,7.3,2.1,14.6,3.2,21.9c1.7,10.9,2.7,21.8,1.9,32.9c-0.2,3.1-1,5.7-3.2,7.9
	c-7.7,7.5-15.3,15.1-22.9,22.8c-1.3,1.3-2.3,2.8-4,4.9c5.1,1.3,8.3-0.5,10.8-3c9.3-8.8,18.5-17.6,27.4-26.8
	c8.5-8.9,16.6-18.3,24.8-27.5c1.8-2,3.2-4.3,4.7-6.5c1.1-1.6,2.1-3.2,3.1-4.9c0.5,0,1,0.1,1.5,0.1c0.4,1.5,1.2,3.1,1.1,4.6
	c-1,17-2.1,34-3.2,51c-0.3,5.4-1.2,6.3-6.7,7.5c-4.8,1-9.9,1.6-14.4,3.3c-15.9,6-29.7,14.6-37.5,30.7c-4.9,10.2-12.8,18.4-21.1,26.1
	c-5.4,5-12.3,3.9-18.6,2.7c-4.5-0.8-8.8-3.2-13-5.3c-11-5.5-22.1-10.8-33.8-15c-11.1-3.9-22.3-4.2-33.9-4.2
	c-9.5,0-18.8,1.1-27.8,3.9c-3.7,1.1-5.9-0.4-7.8-3.5c-4.1-6.5-8.4-12.7-14.9-17.2c-4.7-3.3-9.6-4.4-15.2-3.6
	c-6.4,0.8-12,2.5-17.3,6.6c-6.8,5.4-12,4-15.6-3.9c-6-13.2-14.5-24.8-22.7-36.5c-5.2-7.3-11.6-13.7-16.5-21.2
	c-7.9-12.1-18.6-21.2-29.8-29.6c-12.7-9.6-25.5-19.1-40.8-24.7c-7.4-2.7-14.5-6-21.7-9.1c-1.3-0.6-2.5-1.6-4.6-2.8
	c6.7-2.9,12.9-3.9,19-3.5c10.7,0.7,21.6,0.9,31.6,5.6c15.5,7.3,31.9,13,46.1,23c4.1,2.9,8.5,5.4,12.9,8.3c2.5-2.2,1.5-4.3,0-6.4
	c-4.9-6.7-9.4-13.8-14.9-19.9c-6.3-7-13.5-13.1-20.3-19.6c-1.5-1.5-2.9-3-5.4-5.5c14.3,1.3,25.9,5.5,37,11.6
	c4.3,2.4,8.5,5.1,12.8,7.5c4.1,2.3,8,4.3,11.2,8.2c2.6,3.3,7.5,4.6,11.2,7.2c11.8,8.1,23.8,16.1,33.3,27.1c1,1.2,2.1,2.3,3.4,3.2
	c7.6,5.1,12.7,12.4,15,20.9c3.6,13.2,6,26.7,9,40.1c0.7,3.1,0,6.8,3.1,9.3c3.2-2.3,2.2-5.5,1.7-8.1c-2.9-16.5-5.4-33.1-10.4-49.2
	c-4.5-14.1-9.1-28.2-16.1-41.3c-6.7-12.4-15.4-23.6-24.3-34.5c-4.3-5.3-8.5-10.9-13.5-17.4c2.6-0.4,4.3-1.1,5.7-0.7
	c11.1,3,21.9,6.5,31.5,13.2c10.5,7.3,21,14.5,31.5,21.9c2.9,2.1,5.8,4.4,8.3,6.9c11.1,11.1,22,22.3,32.9,33.5
	c3.2,3.4,7,6.7,8.8,10.8c2.5,5.8,4.5,11.9,4.3,18.6c-0.2,9-0.9,17.8-3.9,26.4c-1.1,3.1-0.7,6.7-0.5,10
	C556.1,174,557.7,175.9,561.6,175.2z"/>
<path fill-rule="evenodd" clip-rule="evenodd" fill="#FFFFFF" d="M529.8,406.3c-10.6-0.2-20.9-1.7-31.2-4.8
	c-5.8-1.8-10.7-4.7-15.4-8c-11.8-8.3-20-18.9-24.1-33.5c-3.5-12.2-5.5-23.7-3.1-36.3c1.4-7.2,1-14.7,1.9-22
	c1.7-13.7,6-26.8,12.3-38.9c6.5-12.5,15-24.1,25.3-33.9c7-6.7,15.2-11.4,25.5-12.5c14.2-1.5,28.3-2.7,42.2,1.1
	c13.5,3.7,26,9.8,37.8,17.3c10.3,6.6,19.2,14.6,26.2,24.8c9.9,14.4,13.1,30.5,10.6,47.5c-1,7-4.1,13.7-6.7,20.4
	c-2.9,7.5-5.8,15.1-9.6,22.2c-5.8,10.9-12.8,21.2-22.8,28.7c-7.3,5.5-15.1,10.4-22.8,15.4c-10.6,6.8-22.9,8.9-34.8,12.3
	C537.7,407.1,533.6,406.3,529.8,406.3z"/>
<path fill-rule="evenodd" clip-rule="evenodd" fill="#FFFFFF" d="M723.2,549.3c0.7-5.5,1-11.3,2.3-16.9c2.7-11.6,6-23,8.8-34.6
	c2.6-10.4,4.8-20.9,7.3-31.4c4.4-18.3,8.5-36.8,13.5-54.9c2.3-8.6,6.1-16.9,9.6-25.1c7.3-16.8,14.5-33.7,22.4-50.2
	c3.8-8.1,8.8-15.6,13.3-23.4c2.3-3.9,4.7-7.7,6.9-11.5c9.9-16.7,22.3-31.5,35.6-45.5c11.4-12,23.9-22.9,36.1-34.1
	c4.8-4.5,8.6-4.8,13.9-0.9c6.1,4.5,12.2,9.1,17.8,14.3c9.7,9.1,13.3,21.7,17.9,33.6c2.9,7.6-0.4,13.6-6.1,18.5
	c-7.6,6.6-15.8,12.6-23.2,19.4c-6.1,5.6-11.5,11.9-17.3,17.9c-8.5,8.7-17.2,17.1-25.4,26c-8.2,8.9-16.2,18.1-23.4,27.8
	c-5.1,6.8-8.8,14.6-13.1,21.9c-1.6,2.7-3.2,5.4-4.7,8.1c-6,10.1-8.9,21.5-12.5,32.6c-4.9,14.9-9.4,30-13.8,45
	c-1,3.4-1.2,7.1-1.7,10.6c-1.4,9.5-2.5,19.1-4.1,28.6c-2.5,14-4.5,27.9-4.2,42.2c0.2,7.6-0.5,15.2-0.6,22.9c0,8.7-0.2,17.5,0.4,26.2
	c1,13.9-0.7,15.9-14.2,13.5c-13.4-2.4-26.8-5.1-40.3-7.6c-3.5-0.6-7.1-0.7-10.7-1.2c-7.1-1-8.4-3.2-6.4-9.9c0.4-1.3,0.7-2.6,1.1-3.9
	c1.5-4.3,2.2-4.5,7-3.7c6.2,1,12.5,2.6,18.7,2.2c7.7-0.5,15.1-3.9,19.8-10c4.6-5.9,5.9-13.4,4-21.1c-2.4-9.6-9.1-15.3-17.5-19.2
	C735.2,553.1,729.8,551.6,723.2,549.3z"/>
<path fill-rule="evenodd" clip-rule="evenodd" fill="#FFFFFF" d="M451,249.7c3.5-3.7,2.7-7.6,1.8-11.2c-0.9-3.7-2.4-7.2-3.7-10.8
	c-2-5.4-1.8-10.6,1.3-15.5c2.2-3.4,4.4-6.8,6.9-9.9c4.5-5.6,10.9-7.6,17.5-5c3.9,1.6,7.6,4,10.7,6.8c1.5,1.3,2.5,4.5,2.1,6.5
	c-0.9,5.3-2.1,10.7-4.3,15.4c-5.5,11.8-11.8,23.2-17.5,34.8c-7.2,14.6-11.5,30-14.8,45.9c-2.2,10.7-3.3,21.5-1.9,32.1
	c1.5,10.7,2,22,8,31.7c1.7,2.8,2.9,6,4.3,9.2c-9.6,11.3-21.1,18.2-35.6,20.1c-1.8,0.2-3.7,0.2-5.3,0.9c-9.6,4.4-18.9,2.1-28.2-0.9
	c-11-3.5-21.1-8.9-30.3-15.8c-8.3-6.3-13.3-15.1-16.1-25c-2.7-9.5-4.6-19.2-7.3-28.7c-2.3-8.3-1.4-16.6-0.5-24.7
	c1.4-12.5,3.7-24.9,6.4-37.1c2.9-12.8,7.7-24.8,16.3-35c4.8-5.7,9.3-11.5,13.5-17.6c5.8-8.5,13.8-14.1,22.9-18.2
	c5.9-2.7,12.1-4.8,18.2-6.9c5.2-1.8,5.9-1.3,8.1,3.9c4.6,10.7,8.7,21.6,11.3,33c0.3,1.5,0.9,3.1,1.8,4.3
	C441.2,237.8,445.9,243.5,451,249.7z"/>
<path fill-rule="evenodd" clip-rule="evenodd" fill="#FFFFFF" d="M343.7,369.8c1.3,1.9,2.4,3.2,3.2,4.7c4.4,7.6,8.6,15.2,13,22.7
	c5.6,9.4,11.2,18.8,17.1,28c2,3.1,4.5,6.1,7.3,8.5c2.4,2.1,3.1,4.2,2.4,7.1c-3.7,14.9-1.9,29.9-1.3,44.9c0.7,15.4,1.4,30.9,2.3,46.3
	c0.3,4.9,1.1,9.8,1.9,14.7c0.8,4.7-1,7.9-5.1,9.8c-11.1,5.3-22.2,10.5-34.1,16.1c-0.8-3.8-1.7-6.9-2-10.1c-0.5-5-3.6-7-8-7.4
	c-5.4-0.4-10.9-1.2-16.1-0.3c-10.4,1.8-20.6,4.7-29.6,10.7c-6.3,4.2-14.9,1.3-16.7-5.9c-4-16.4-6.4-32.9-4.7-50
	c1.3-12.6,4.5-24.5,8-36.6c3.7-12.8,8.9-24.9,13.5-37.2c2.4-6.2,6.2-11.9,9.2-17.9c6.8-13.5,16-25.3,25.5-36.9
	C333.5,376.4,338.3,373.1,343.7,369.8z"/>
<path fill-rule="evenodd" clip-rule="evenodd" fill="#FFFFFF" d="M562.5,920.4c7.4,2.5,9,8.3,10.8,13.9c0.9,2.7,0.1,5.4-2.2,7.3
	c-12.1,10.4-19.4,24.2-24.6,38.8c-3.3,9.2-4.4,19.2-6.4,28.8c-0.3,1.5-0.3,3.1-0.5,4.5c-5,4.5-11,5.4-17.2,6.8
	c-11.9,2.6-23.9,4-36,4.8c-21.5,1.4-43,3.3-64.4-0.3c-4.1-0.7-8.3-2.1-12.1-3.8c-4.1-1.8-5.7-5.2-5.1-9.9c1.2-9.8,2.4-19.6,6.1-28.7
	c2.8-6.8,6.9-13,10.5-19.4c1.6-2.9,3.6-5.6,5.1-8.6c2.3-4.4,4.5-5.3,8.5-2.3c5.7,4.4,12.6,5.7,19.1,7.9c1.7,0.6,3.7-0.1,6.7-0.2
	c-4.5-4.7-8.3-8.2-11.5-12.2c-3.5-4.5-2.7-10.2-3.2-15.7c1.9-1.3,3.7-2.6,6.3-4.4c1.2,2.5,2.2,4.6,3.1,6.8c1.3,3.4,3.3,5.3,7.3,5.9
	c6.6,1,13.1,3,19.7,4.4c2.8,0.6,5.7,1.1,8.5-1.9c-1.3-1.1-2.4-2-3.6-2.9c-2.7-2-5.3-4.1-8.1-6c-5.7-3.9-5.8-9.8-5.2-15.7
	c0.6-6,3.1-8.2,10.8-10c0.4,3.1,0.9,6.1,1,9.1c0.1,5,2.5,7.7,7.1,9.3c4.9,1.6,9.6,3.8,14.3,5.8c3.1,1.4,6.1,2.7,10.4,0.5
	c-1.5-1.9-2.7-3.3-3.9-4.7c-4.8-5.6-8.5-11.6-8.6-19.2c-0.1-2.8-1-5.9,3.2-7.1c4.7-1.3,8.4-0.5,10.7,3.1c0.7,1.1,1.1,2.5,1.8,3.6
	c4,6.6,9,12.2,16,16c5,2.7,10.3,3,15.7,2.1c1.4-0.2,2.7-1.4,4-2.2C558.6,923.2,560.6,921.7,562.5,920.4z"/>
<path fill-rule="evenodd" clip-rule="evenodd" fill="#FFFFFF" d="M665.3,941.6c6,1.9,9.4,7.1,11.6,13.1c1.7,4.6,3.1,9.5,3.6,14.3
	c1,10.5,2.1,21,1.7,31.5c-0.7,16.1-9.4,28.7-19.8,40.3c-6.5,7.3-13.7,13.5-22.9,17.3c-4.5,1.9-8.5,5-12.7,7.6
	c-1.1,0.7-2.2,1.7-3.5,2c-12.7,2.4-25.5,5.9-38.4,1.6c-9.2-3-16.6-8.8-21.6-17.2c-1-1.7-2.1-3.4-3.3-5c-6.6-9.1-10.2-19.3-11.8-30.3
	c-2.7-19,2.5-35.8,14-50.9c1.3-1.8,2.4-3.8,3.5-5.7c5.5-9,12.8-15.7,22.5-20.5c8.9-4.3,18-4.4,27.3-5.2c3.7-0.3,4.9,2.2,6.4,4.9
	c2.1,3.9,4.2,7.9,6.9,11.4c3.7,4.8,9.3,6,15,6.6c3.7,0.4,6.3-2,8.8-4.2C656.6,949.5,660.6,945.9,665.3,941.6z M579.6,989.9
	c-1.8,4-2.3,8.4-2,12.8c0.5,10.2,3.7,19.8,8.2,28.8c2.5,5,5,5.7,10.9,4.4c1.1-0.3,2.2-0.3,3.3-0.5c6.8-1.5,13.4-3.6,19.2-7.6
	c1.8-1.3,4.2-2.7,3-5.3c-1.3-2.7-3.8-1.5-5.8-0.5c-0.6,0.3-1.2,0.6-1.8,0.9c-8,2.7-10.1,2.1-15.5-4.7c-6-7.5-11.8-15.3-15-24.5
	C583.4,991.8,582.9,989.5,579.6,989.9z M599.7,970.8c-1.2,5.6-2.6,10.4-3.1,15.2c-0.8,7.1,1.9,13.2,6.4,18.6
	c3.9,4.6,8.8,5.9,14.5,3.7c5-2,10.1-3.8,15-5.9c1.7-0.7,3-2.2,4.9-3.6c-1.5-1.1-2.1-1.8-2.9-2.1c-0.8-0.3-1.8-0.4-2.6-0.4
	c-11.7,0.4-18.6-6.5-24-15.6C605.9,977.3,604.8,973.2,599.7,970.8z M616.7,954.9c-1.1,0.7-2,0.9-2.2,1.4c-2.8,5.5-2.3,11.3,0.7,16.1
	c3,4.7,8,7.8,14.1,7.8c3.6,0,7.1-0.5,10.7-0.8c2.6-0.3,4.9-1,4.7-4.2C633.8,970.7,623.5,965.7,616.7,954.9z"/>
<path fill-rule="evenodd" clip-rule="evenodd" fill="#FFFFFF" d="M412.7,609.7c15.2-0.7,26-6.4,29.6-20.5c2.5-9.8-0.4-19.2-8.5-26.2
	c-7.9-6.7-17.3-7-32.6-0.6c-4-3.5-4.2-8.7-4.9-13.4c-2.8-18.8-5.9-37.7-5.6-56.9c0.2-12.8-0.4-25.6-0.6-38.3
	c-0.1-4.3,0.5-8.5,3.6-12.7c8.2,5.7,15.8,11.8,24.2,16.5c8.3,4.7,17.4,8,26.8,12.2c0,1.9,0.2,4.5,0,7.1c-0.6,8.1-1.6,16.1-1.9,24.2
	c-0.2,4.7,0.6,9.4,1.1,14c0.3,3.1,0.8,6.3,1.5,9.3c1.5,6.3,2.7,12.8,5.1,18.8c5.3,13.3,11,26.5,16.9,39.6c3.2,7.1,7,14,10.8,20.9
	c2.4,4.4,2.4,5.9-2,7.9c-8.2,3.7-16.4,7.4-24.8,10.6c-8.8,3.3-17.9,6-26.8,9c-5.8,1.9-8.1,1-9.5-4.8
	C413.7,621.3,413.5,615.9,412.7,609.7z"/>
<path fill-rule="evenodd" clip-rule="evenodd" fill="#FFFFFF" d="M724,558.2c8.1,1.1,15.8,3.3,20.3,11.7c5.4,10-0.7,23.5-11.8,25.9
	c-5,1.1-9.9,1.9-15.2,0.5c-6-1.6-9.8-5.3-12.5-10.4c-0.9-1.8-1.4-4.5-0.8-6.3c1.8-4.8,4-9.5,6.6-13.9
	C713.5,560.8,718,558.5,724,558.2z"/>
<path fill-rule="evenodd" clip-rule="evenodd" fill="#FFFFFF" d="M397.7,584.6c0.2-1.4,0.4-2.8,0.5-4.1
	c1.3-14.1,12.4-18.1,23.7-16.3c12.6,2,17.6,20.5,8.4,29.9c-4.7,4.7-10,9.2-17.5,8.5c-2.2-0.2-4.4-0.8-6.4-1.5
	C398.2,598.3,398.5,591.1,397.7,584.6z"/>
<path fill-rule="evenodd" clip-rule="evenodd" fill="#FFFFFF" d="M871.4,573.4c1.7-6.2,2-12.5,4.9-18.5c2.6-5.6,4-12,4.7-18.1
	c0.3-2.8-2.1-6.1-3.7-8.9c-1-1.8-2.8-3.2-4.2-4.7c0.3-0.3,0.7-0.7,1-1c2.5,2.3,5,4.6,8.1,7.3c1.7-2,3.3-3.7,4.8-5.4
	c0.5,3.5,0.1,7.4,1.6,10.4c4.6,9.2,11.3,16.2,22.9,15.8c0.7,0,1.5-0.2,2,0.1c0.9,0.5,1.5,1.3,2.3,2c-0.9,0.7-1.8,1.6-2.8,2.2
	c-0.3,0.2-0.9-0.1-1.3-0.3c-4.9-2-8.7-0.7-10.8,3.4c-5-0.3-9.4-0.7-13.9-0.7c-6.8,0-10.8,3.3-12.5,9.9c-0.6,2.3-1.2,4.7-1.8,7
	C872.3,573.6,871.8,573.5,871.4,573.4z M880.3,553.2c5,0.9,9.1,3.1,14-0.1c-2.8-5-6.3-8.8-12.2-12.1
	C881.4,545.6,880.9,549,880.3,553.2z"/>
<path fill-rule="evenodd" clip-rule="evenodd" fill="#FFFFFF" d="M59.8,861.9c1,0.3,2.3,0.7,3.5,1.1c1.7,0.5,3.4,1.4,5.1,1.4
	c11.5-0.1,21.8,4.3,32.4,7.8c8.4,2.8,16.1,6.6,23.8,10.8c4.8,2.7,10.5,3.8,15.7,5.9c8.4,3.4,15.3,9.2,22.8,14c1.1,0.7,2.2,1.6,3.5,2
	c13.7,4.7,23.6,14.6,33.1,24.7c10.4,11.1,19.9,23.1,29.8,34.6c4.9,5.8,9.6,11.9,15.1,17c4.4,4.1,9.9,7,14.8,10.4
	c7.2,4.9,14.1,10.2,22.1,13.9c5.9,2.7,11.6,5.9,17.4,8.8c1.6,0.8,3.3,1.5,4.9,2.3c7.7,4,8,5.1,3.2,12.6c-1.6,2.5-2.8,5.1-4.4,7.6
	c-1.9,3-4.4,4.1-8,2.9c-10.4-3.5-20.8-7.3-31.4-10.1c-7.1-1.9-14.6-2-21.9-3.2c-17.2-2.8-34,0-50.8,2.8c-10.1,1.7-20.1,1.2-30.2,0.2
	c-8.7-0.9-17.3-2.7-26-3.9c-16.7-2.3-31.6-9.8-47-15.8c-19.9-7.7-36.1-20.7-52.1-34.1c-5.6-4.7-10.3-10.6-15.2-16.1
	c-1.3-1.5-2.2-3.4-2.8-5.3c-4.9-14.5-6.3-29,1.9-42.9c0.3-0.6,0.7-1.2,0.8-1.8c1.5-10.7,7.5-19.7,11.4-29.4
	C36.4,867.9,47.4,863.8,59.8,861.9z"/>
<path fill-rule="evenodd" clip-rule="evenodd" fill="#FFFFFF" d="M307.9,1048.4c0.1-2.3-0.4-4.7,0.5-6.2c2.9-4.7,4.1-10.8,10-13.5
	C322.2,1036.7,316.9,1046.1,307.9,1048.4z"/>
<path fill-rule="evenodd" clip-rule="evenodd" fill="#FFFFFF" d="M327.8,1066.6c7.9,3.2,15.3,3.3,23,1.9c8.9-1.7,16.6,2.8,24.1,6.8
	c3.7,2,4.8,5.9,4.2,10c-0.6,3.7-3.9,4.6-6.9,5.5c-2.6,0.8-5.2,1.4-7.9,1.7c-9.9,1.2-19.1,4.6-28.2,8.5c-6.3,2.7-12.9,3.8-18.4-2.8
	c-1.6-1.9-4.6-2.6-7-3.7c-5.6-2.5-6.1-5-2.1-9.6c0.6-0.7,1.2-1.4,1.9-1.9C317.3,1078.7,324.1,1074.5,327.8,1066.6z"/>
<path fill-rule="evenodd" clip-rule="evenodd" d="M736.8,284.6c1.8,3.8,3.5,7.3,5.3,11.1c1.9-0.3,3.6-0.8,5.3-0.7
	c1.1,0.1,2.9,0.8,3.2,1.7c0.4,1.2-0.3,2.8-0.6,4.2c0,0.2-0.3,0.3-0.5,0.4c-7.4,3.2-7.4,9-6,15.7c0.4,1.9,2.1,4.7-1,5.8
	c-2.8,1-3.6-1.8-4.9-3.6c-0.7-1-1.8-1.8-3.3-3.2c-4.7,4.3-9.2,8.4-13.7,12.5c-0.4-0.2-0.8-0.4-1.2-0.7c0.9-2.3,1.5-4.7,2.6-6.9
	c0.9-1.8,2.5-3.2,3.4-5c2-3.6,1.5-5.3-1.8-8c-1.3-1.1-2.6-2.2-4.9-4.2c2.9-1.5,4.9-3.2,7-3.4c4.9-0.5,6.3-3.5,7-7.6
	C733.1,290,733.3,287,736.8,284.6z"/>
<path fill-rule="evenodd" clip-rule="evenodd" d="M518.8,375.2c-4.4,0.1-8.5-0.8-12.2-3.3c-2.6-1.7-5.4-3.2-7.9-5
	c-11.3-8.2-12.9-22.1-3.5-32.5c4.7-5.3,9.9-10,18-10.4c9.8-0.5,17.4,3.3,22.1,11.1c9.6,16.1,3,29.4-10.1,39
	C523.7,375.2,521,374.8,518.8,375.2z"/>
<path fill-rule="evenodd" clip-rule="evenodd" d="M370.5,349c-1-6.7,4.1-11.1,8.3-15.5c3.8-3.9,8.7-7.1,13.6-9.6
	c11-5.4,22.3,0.7,27.3,8.8c3.9,6.4,5,12.7,3.5,19.9c-1.8,8.5-5.5,16.1-11.2,22.6c-8.8,10-21.4,9.9-30.7,0.8
	C373,367.9,370.4,361.3,370.5,349z"/>
<path fill-rule="evenodd" clip-rule="evenodd" d="M579.6,989.9c3.3-0.3,3.8,2,4.4,3.7c3.3,9.3,9,17,15,24.5
	c5.4,6.8,7.5,7.4,15.5,4.7c0.6-0.2,1.2-0.5,1.8-0.9c2.1-1.1,4.5-2.2,5.8,0.5c1.3,2.6-1.1,4-3,5.3c-5.8,4.1-12.4,6.2-19.2,7.6
	c-1.1,0.2-2.2,0.2-3.3,0.5c-5.9,1.4-8.4,0.6-10.9-4.4c-4.5-9.1-7.7-18.6-8.2-28.8C577.4,998.3,577.8,993.8,579.6,989.9z"/>
<path fill-rule="evenodd" clip-rule="evenodd" d="M599.7,970.8c5.1,2.4,6.2,6.5,8.2,9.9c5.5,9.1,12.4,16,24,15.6
	c0.9,0,1.8,0.1,2.6,0.4c0.8,0.3,1.4,1,2.9,2.1c-1.9,1.5-3.3,2.9-4.9,3.6c-4.9,2.1-10,4-15,5.9c-5.7,2.2-10.6,0.9-14.5-3.7
	c-4.5-5.3-7.3-11.5-6.4-18.6C597.2,981.2,598.5,976.4,599.7,970.8z"/>
<path fill-rule="evenodd" clip-rule="evenodd" d="M616.7,954.9c6.7,10.8,17.1,15.7,28.1,20.2c0.1,3.3-2.2,4-4.7,4.2
	c-3.6,0.4-7.1,0.8-10.7,0.8c-6.1,0-11.1-3.1-14.1-7.8c-3.1-4.8-3.5-10.6-0.7-16.1C614.8,955.8,615.6,955.6,616.7,954.9z"/>
<path fill-rule="evenodd" clip-rule="evenodd" d="M35.1,924.1c1.1,4.5,2.6,8.9,3.1,13.5c0.6,5.8,4,10.1,7.6,13.9
	c8.4,9.2,18.7,15.8,30.1,20.9c4.5,2,9,4,13.4,6.2c1.2,0.6,2.1,1.8,4,3.5c-2.1,0.5-3.1,1.1-4,0.9c-6.2-1.7-12.7-2.4-18.4-6.1
	c-3.7-2.4-8.3-3.3-12.3-5.4c-10.5-5.7-19.4-13.6-28-21.9c-5.3-5.1-5.5-8-2.5-15c0.8-1.8,1.1-3.8,1.8-5.7
	C30.7,926.6,31.5,924.2,35.1,924.1z"/>
<path fill-rule="evenodd" clip-rule="evenodd" d="M50,922.4c4-1,5.3,0.5,6.4,2.8c3.1,6.4,6.3,12.9,11.9,17.7
	c3.4,2.9,7.2,5.2,10.7,7.9c4.4,3.3,9.4,6,12.1,11c-0.3,0.5-0.6,1-0.8,1.5c-3.5-1.1-7.3-1.6-10.4-3.5c-8.8-5.3-17.3-11.2-25.9-16.9
	c-3.5-2.3-6.2-4.6-4.2-9.9C51,929.9,50,926,50,922.4z"/>
<path fill-rule="evenodd" clip-rule="evenodd" fill="#FFFFFF" d="M518,355.3c0,5.6-5.2,12-9.8,11.8c-5.4-0.2-13.5-6.9-13.5-11.3
	c-0.1-5.4,7-13.1,12.4-13.3C511.5,342.4,518,349.9,518,355.3z"/>
<path fill-rule="evenodd" clip-rule="evenodd" fill="#FFFFFF" d="M388.6,377c-6.4-4.2-11.4-9.1-13.6-16.4c-1-3.5-0.9-6.4,2.2-9.1
	c3.1-2.6,5.9-5,10.2-2.7c2.6,1.4,5.3,2.5,7.6,4.2c6.3,4.7,6.5,13.3,0.6,18.6C393.4,373.6,391,375.2,388.6,377z"/>
</svg>
