<?xml version="1.0" encoding="utf-8"?>
<!DOCTYPE svg PUBLIC "-//W3C//DTD SVG 1.1//EN" "http://www.w3.org/Graphics/SVG/1.1/DTD/svg11.dtd">
<svg artist="zl2017" version="1.1" id="zlIcon-ship-cat-stars" xmlns="http://www.w3.org/2000/svg" xmlns:xlink="http://www.w3.org/1999/xlink" x="0px" y="0px"
	 width="1000px" height="692.2px" viewBox="0 0 1000 692.2" enable-background="new 0 0 1000 692.2" xml:space="preserve">
<path fill-rule="evenodd" clip-rule="evenodd" d="M122.7,276c-0.8-12.5-1.3-24.2-2.3-35.9c-0.2-2.6-2.4-5.1-3.7-7.8
	c0.1-4.1,3.2-5.7,6.5-6.7c9.3-2.8,18.5-5.6,27.9-7.9c7.3-1.8,15-2.4,22.3-4.3c7.7-2,15.6-2.6,22.8-6.8c5-2.9,11-3.8,17.2-2.5
	c3.2,0.7,6.7,0.1,10.4,0.1c1.3,2.5,2.8,4.5,3.5,6.8c2,6,3.8,12,5.6,18c0.7,2.4,1.4,4.8,1.6,7.3c1.1,13.1,1.5,14.4,9.8,27.2
	c4.9-0.1,10.1-0.7,15.6,0.5c5.4,1.2,11.5-0.5,17.4-1c6.7-0.6,13.4-2.2,20.1-1.8c11.8,0.6,23.3-1.9,35-1.4c6.7,0.3,13.4-0.9,20.1-1.5
	c1.7-0.1,3.3-0.7,5-0.6c11.9,0.8,23.4-2.1,35.1-4.5c5.1-8.9,8.1-18.3,6.2-28.8c-0.4-2,0.2-4.1,0.2-6.2c0-16.2,0-32.4,0-49
	c-14.5-2.2-27.9,0.3-41.4,2.5c-2.1,0.3-4.1,1.6-6.1,1.4c-11.6-1-22.5,2.7-33.7,5.8c-2.4-1.7-5.9-2.8-6.9-5.1
	c-3.4-7.1-9.2-10.6-16.1-13.2c-1-0.4-1.6-1.7-3.1-3.4c6-2.2,11.5-3.7,17.2-2.8c3.4,0.5,6.5,0.4,9.8-0.3c4.9-0.9,10-0.8,15.1-1
	c1.3-0.1,2.5,0.3,3.8,0.2c16.7-1.2,33.4-2.5,50.2-3.7c3.2-0.2,6.5,0,9.9,0c0.8-7.7,1.5-14.9,2.2-22.6c-9.2,0.5-17.5,1.1-25.8,1.2
	c-3.2,0-6.6-0.9-9.6-2.1c-1.9-0.7-3.2-3-2.1-5.2c0.7-1.4,2.1-3,3.5-3.2c2.9-0.5,5.8-0.1,8.8-0.1c9.2-0.2,18.6,1,28.1-3.2
	c1-3.5,2.2-7.4,3.2-11.5c1.1-5,4.1-9.1,6.9-13.2c0.5-0.8,2.3-1.3,3.3-1c1,0.3,2.3,1.5,2.5,2.5c0.4,2,0.3,4.2,0,6.2
	c-0.9,5.3-2.3,10.6-1.1,16.5c10.4,2.3,20.3,1.8,29.8-2.2c4.5-1.9,8.1-1.2,11.5,2.2c-0.8,2.3-1.5,4.6-2.2,6.8
	c-13.6,1.7-26.9,3.3-40.5,4.9c-4.3,6.5-3.2,13.7-4,20.8c5.1,2.9,10.3,1.9,15.1,1.3c10.4-1.2,20.9-1.8,31-5.4c2.7-1,5.8-1,8.7-1.4
	c4.6-0.7,9.1-1.3,13.7-1.9c7.9-1,15.6-3.5,23.8-2.9c2.9,0.2,5.8-0.6,8.8-1c5-0.5,10-1,15-1.6c3.7-0.4,7.3-1,11.2-1.6
	c7.9,6.6,7.9,6.6,2.7,19.4c-3.9,0-8,0-12.2,0c-6.7,0-13.6-0.7-19.7,3.2c-0.3,0.2-0.8,0.5-1.2,0.5c-9.1-0.3-18,2.3-27.1,1.7
	c-5.9-0.3-11.6,0-17.5,1.1c-10.2,1.9-20.6,3.5-31,3.5c-6.9,0-13.3,1-20.4,3.1c-2.6,8.8-0.4,18-0.3,27c0.1,9.6,1.4,19.3,2.3,28.9
	c0.8,9.2,5.1,17.5,7.2,27.3c2.7-0.9,4.6-1.4,6.4-2.2c14.4-7,28.3-4.7,40.6,4.1c11.2,8,23.3,15,33.3,24.7c3.6,3.5,7.6,6.6,12,10.4
	c11.3-1.2,23.4-2.6,35.5-3.9c8.6,3,17.4-2.8,26.1,0.4c1.7,0.6,4.1-0.5,6.2-0.7c7.9-0.9,15.8-1.7,23.7-2.8c5.7-0.8,10.4-3.6,13.9-8
	c3.4-4.3,7.1-8.7,8.7-13.8c2.9-9.2,7.1-18,7.8-27.9c0.4-5.8,2.3-11.5,3.2-17.2c0.7-4.5,1.4-9.2,1.3-13.7c-0.3-8.3-1.5-16.5-1.7-24.8
	c-0.2-5,0.2-10.1,1.3-15c1.4-6.6,9.7-8.9,13.5-3.4c7.2,10.4,18.6,12.5,28.9,16.7c5,2,10.3,3.5,16.6,5.6c12-6.1,25.1-12.7,38.1-19.5
	c7.4-3.9,14.8-7.8,20.5-14.2c0.8-0.9,2.1-1.4,3.1-2.1c2.2-1.4,4.3-2.7,7-1.3c1.8,0.9,2,4-0.4,7.9c-8,13.2-6.9,27.1-4.2,41.5
	c3.1,16.5,10,31.7,13.6,48.1c2.4,10.7,8.9,19.9,16.2,28.2c2.5,2.8,5.1,5.5,9,6.6c1.9,0.5,3.8,2,5.1,3.5c6,6.7,13.9,7.9,21.9,6.9
	c7.2-0.9,14.2-1.2,21.3,0.5c2.4,0.6,5.1,0.5,7.6,0.1c22.6-3,45.4-1.8,68.1-2.1c7.1-0.1,14.2,0,21.8,0c1.7,3.5,1.6,6.5,0,9.7
	c-3.6,7.1-7.4,14.2-10.3,21.6c-2,5-2.7,10.5-3.9,15.8c-0.5,2-0.4,4.2-1,6.2c-4.4,15.7-4.1,31.5-2.1,47.5c-2.1,9.5,2.5,18.1,4.3,27
	c2.3,11.1,6.5,21.8,9.3,32.8c4.1,16.1,11,30.8,20.4,44.7c-1.6,4.7-3.3,9.4-5,14.5c-4,0.5-6.2-2-7.6-5.1c-6-13-12.7-25.7-16.9-39.5
	c-2.8-9.2-6.5-18.2-9.2-27.5c-5.3-18.3-8.2-37-7.3-56c1-19.7,1.6-39.4,7.7-58.5c1-3.1,1-6.5,1.5-9.5c-2.4-2-4.3-0.5-6.1,0.3
	c-5.7,2.8-11.2,5.9-16.9,8.6c-4.6,2.2-9.2,4.4-14,5.8c-25.4,7.7-49.2,19.5-73.9,29.2c-4.3,1.7-8.7,3-13.1,4.6
	c-11.1,4-22.1,8.2-33.2,11.8c-13.2,4.3-26.5,8.3-39.9,11.9c-12.2,3.3-24.5,5.9-36.3,10.5c-9.4,3.6-19.1,6.4-28.8,9
	c-7.3,1.9-14.9,2.3-22.1,4.4c-12.9,3.7-26.2,5.4-38.8,10.8c-7,3-15.6,2.9-23.6,3.3c-14.4,0.8-28.3,3.4-42.2,7.1
	c-10.9,2.9-22.4,3.6-33.5,5.8c-11.6,2.3-23.1,3-35,1.9c-8.7-0.8-17.5,0.8-26.3,1.5c-6.6,0.5-13.2,1.3-19.8,1.5
	c-11.3,0.3-22.6,0-34,0.2c-15.2,0.2-30.3,0.5-45.4,1c-10.9,0.3-21.7,0.9-32.6,1.5c-7.5,0.5-14.9-3.5-22.5-0.8
	c-11.4-2.7-22.6,1.4-33.9,1.2c-7.2-0.2-14.4,0.8-21.5,0.3c-10.1-0.7-20.2-0.7-30.3-0.4c-8.4,0.3-16.8-0.3-25.3-0.4
	c-3.3,0-6.7,0-10,0c-13.5,0.3-26.9,0.6-40.4,0.9c-0.8,0-1.7,0-2.5,0c-10.4-0.4-20.4-3.6-30.9-4.1c-10.4-0.5-20.9-2.6-31.2-4.5
	c-5.3-1-10.1-2.7-14.3-7.1c-9.2-9.8-8.8-20.4-4.5-31.5c5.1-12.9,10.7-25.4,19.2-36.7c6.7-9,10.7-20,16.2-30
	c3.4-6.3,7.4-12.2,11.1-18.4c1.5-2.5,2.9-5,4.2-7.6c4.9-10,11.6-17.6,23.8-18C120.3,277,121.1,276.5,122.7,276z M508.6,414.2
	c-0.2-11.1-0.4-20.7-0.6-30.3c-0.1-4.2-0.2-8.4,0-12.5c0.4-9.6,0.9-19.2,1.6-28.9c0.1-1.2,1.6-2.4,3-4.2c4,8.9,0,16.8,0.5,24.6
	c0.5,8.3-0.9,16.6,0.3,25c1.1,7.8-0.6,15.8,2.4,23.9c4.6,0.8,9,0.5,12.9-1c0.3-13.9,0.6-27.2,1-40.5c0.2-7.5,0.5-15,1-22.4
	c0.1-1.2,1.4-2.2,3.3-5.1c1.6,23.3-0.8,44.8,2.8,65.9c4.7,0.3,8.9,0.8,12.9-3c-3-10.6-1.2-21.7-0.3-32.7c0.2-2.2,0.7-5.2,4.6-4.7
	c2,11.7-2.3,24.4,5,35.8c4.5,0.2,8.8,0,12.7-1.2c-0.6-5-1.3-9-1.5-13.2c-0.2-4-0.3-8.3,4.4-10.7c5.7,6.9-0.5,15.3,4,22.3
	c2.5-0.3,4.9-0.5,7.2-0.7c0.6-7.2-1.4-14.9,6.9-19.1c4.1,5.4-3.6,12.2,3.7,17.1c8.6-1.8,17.8-3.4,26.3-7.7c-2.1-5.5-5-9.2-9-12.7
	c-9.4-8.4-21.4-13.6-29.2-23.9c-15.8-10.4-29.7-23.6-46.1-33.1c-5.4-3.2-10.8-6.6-14.6-11.9c-1.4-2-3.7-3.3-5.7-4.9
	c-9.7-8-20.1-15.4-28.9-24.3c-7.5-7.6-17.2-12.2-24.8-19.5c-2-1.9-5.3-2.5-7.3-3.4c-5.5,1.7-10.2,3.4-15.1,4.6
	c-6.1,1.5-12.3,2.6-18.5,3.9c-6.2,1.3-12.4,2.4-18.5,3.8c-4.8,1.1-9.7,0.3-14.5,3.2c-3.9,2.3-9.5,1.7-14.4,2.5
	c-0.3,0.1-0.6,0.5-0.9,0.8c0.2,6.5,6.2,12.4,1.8,21.1c-3.8-7.5-6.9-13.7-9.9-19.8c-2.3-0.1-3.9-0.4-5.6-0.2c-5.4,0.5-7,2.2-6.1,7
	c1.2,6.2,2.9,12.2,4.2,18.3c0.3,1.7,0.9,4.2-3.1,4.6c-2.8-9.5-8.5-18-8.7-28.6c-3.3-0.5-6.2-1.1-9-1.2c-3.7-0.1-6.1,3.1-5.4,6.8
	c0.2,1.2,0.9,2.3,1.3,3.6c1.9,6.7,2.4,13.6,1.9,20.4c-1.3,0.1-2,0.2-2.1,0.1c-5.3-9-4.8-20.1-10.3-29c-6.5-0.9-6.5-1-14.5,2.5
	c0.4,2.7,0.8,5.5,1.3,8.3c1.3,8.3,2.7,16.5,3.9,24.8c0.1,0.7-1.4,1.8-2.3,2.3c-0.4,0.2-1.8-0.5-1.9-1c-0.9-3.6-1.3-7.4-2.4-11
	c-2.3-7.6-4.4-15.2-7.4-22.4c-2.1-4.9-4-5-11.7-2.8c-0.5,6,3.6,11.9,0.2,19.1c-1.5-2.6-3.4-4.6-3.6-6.6c-0.4-5.3-1.9-9.9-6.2-14
	c-15.2-1.3-30.6,1.3-46,3.2c-8.7,1.1-17.5-0.9-26,1.4c-5.8-2.2-11.6-0.6-17.4-0.1c-10.1,0.9-20.1,2.3-30.2,2.4
	c-12,0-23.5,2.3-34.9,5.1c-7.4,1.8-14.1,5.1-18.3,12.2c-1,1.8-2.4,3.4-4,4.8c-3.9,3.5-6.1,7.8-8.3,12.4c-4.7,9.5-6.3,20.4-11.2,29.3
	c-5.2,9.3-7.3,19.4-11.4,28.9c-2.3,5.3-3.6,11.3-6.9,16c-4.5,6.4-4.7,13.1-3.5,20c4.2,2.7,8.1,3.8,12.6,2.6
	c2.7-9.6,5.6-19.2,7.9-28.9c2.4-10,6.1-19.3,11.9-27.8c-0.6,6.1-1.9,12.1-3.5,17.9c-2,7.7-4.5,15.3-6.3,23.1
	c-1.4,5.8-1.6,11.6,1.5,17.7c2.1,0.2,4.5,0.4,7.5,0.6c1.3-5.3,2.5-10.1,3.6-15c1.8-7.7,3-15.6,5.2-23.2c4.2-14.4,9.3-28.6,13.3-43.1
	c2.2-7.8,6.5-14.5,9.4-21.8c0.3-0.9,1.7-1.3,3-2.3c-5.5,17.6-10.9,34.7-16.3,51.8c-5.5,17.2-8.8,34.6-9.2,53.3c4.6,0,8.2,0,12.3,0
	c0.5-2.6,1.1-5,1.5-7.5c0.7-3.7,1.3-7.4,1.9-11.1c2.1-13.3,7.3-25.8,9.5-39c1-6.3,4.7-11.2,8.3-16.4c0.6,1.6,0.6,3.1,0.3,4.5
	c-5.6,20.3-10.3,40.7-13.6,61.5c-0.4,2.7-1.7,5.8,1.5,8.4c4.5-0.4,9.5,1,14.1-0.7c3-29.6,3.9-33,11.2-42.2
	c1.1,8.1-2.1,14.8-2.4,21.6c-0.3,7-1.3,14.2,0.6,21.5c4.9,0,9.4,0,14.4,0c2.3-5.4,4.5-10.7,7-16.5c6.6,4.8,0.2,11.9,4.3,16.2
	c0.8,0.2,1.6,0.7,2.4,0.7c19.3,1.1,38.7,1.9,58,3.4c8.5,0.7,16.6,0.2,24.6-2.5c1.4-0.5,3.3-0.4,4.7,0.1c11.7,4.1,21.3-1.5,30.9-6.7
	c1-0.5,2-1.7,2.4-2.8c2.8-7.5,6.3-14.8,8.1-22.5c2.9-12.2,4.6-24.7,7.2-37c1.6-7.8,3.9-15.5,8.9-22c2.5-3.2,6.1-5.3,7.2-9.8
	c0.5-1.8,3.6-3.6,5.8-4.2c4.4-1.2,9.1-1.6,13.6-2.2c4.3-0.6,8,0.2,12,2.4c8.2,4.6,15,10.7,21.4,17.4c6.7,6.8,11.5,14.4,11.8,24.3
	c0,2.1,0.2,4.3,0.9,6.2c2.4,6.3,4.4,12.9,7.7,18.6c4,6.8,8.8,13.3,14.2,19.2c7.3,8.1,15.3,15.8,28.1,16.8c-0.2-4.4-0.1-8.6-0.7-12.6
	c-1.9-11.3-0.5-22.5-0.6-33.8c0-0.9,1.4-2.2,2.3-2.5c0.6-0.1,2.5,1.4,2.4,2c-1.3,12.7,1.8,25.1,1.9,37.7c0,2.4,0.5,4.9,0.8,7.2
	c4.6,1.4,8.6,2.3,13.6,0c0.1-11,0-22.4,0.5-33.7c0.4-8.4,1.7-16.7,2.8-25c0.2-1.3,1.7-2.4,4-5.6c-0.4,12.8-1.2,23.1-0.8,33.4
	c0.3,10.3-3.3,20.8,1,31.5c4.4-0.3,8.5-0.6,12.9-1c0.3-2.3,0.9-3.9,0.8-5.5c-0.8-15.4,3.9-30.6,2.4-46.1c-0.3-2.9,0.4-5.9,1.1-8.7
	c0.2-0.8,1.7-1.4,3.2-2.4c0,17.9,0.2,35.1-0.2,52.3c-0.1,3.6,0.4,6.3,2.1,8.9C497.5,414.2,502.4,414.2,508.6,414.2z M745.2,165.5
	c-1.6,0.9-3.2,1.5-4.5,2.4c-8,5.8-17.1,8.9-26.5,11.2c-3.3,0.8-6.6,1.6-9.7,2.8c-7.8,3.2-15.3,2.7-23.4,0.5
	c-7.5-2.1-14-5.5-20.6-9.3c-2.1-1.2-4.3-2.2-7.4-3.7c-0.2,7.4-3,13.6-1.2,20.4c0.6,2.3,0,5-0.3,7.4c-0.3,2.5-1.6,5.1-1.2,7.4
	c1.5,7-0.6,13.3-2.3,19.8c-1.5,5.7-3.1,11.3-4.2,17.1c-1.9,10.1-4.4,20.4,0,30.9c4.4,2.4,8.7,5,13.3,7.1c5.7,2.7,11.8,4.4,18.2,4.3
	c11.3-0.2,22.7-0.3,34-1c10-0.6,20.1,0.2,30-2.9c8.3-2.6,13.7-7.4,17.1-15.3c6-13.8,5.8-27.8,0.9-41.6c-2-5.7-2.7-11.4-3.2-17.2
	c-0.7-8.3-1-16.8-2.5-24.9C750.9,175.4,749.3,170,745.2,165.5z M391.5,420.1c0.1-4.6,0.7-7.9,0.2-11.1c-1.4-10.4-3.3-20.7-4.6-31.2
	c-0.9-7.1-3.2-13.8-5.2-20.6c-3.8-12.9-13.6-20.2-24-26.3c-4.7-2.7-11.4-2.1-17.2-2.8c-1.1-0.1-2.7,0.5-3.4,1.3
	c-2.6,2.8-5.7,5.4-7.1,8.8c-4.1,10.1-7.4,20.5-11,30.8c1.2,5.9-2.4,11.2-1.6,17.3c0.7,5.6-1.3,11.6-1.5,17.4
	c-0.2,5.7,0.3,11.5,0.6,18C341.6,421.1,365.7,420.6,391.5,420.1z M822,303.5c-3.2,2.2-4.9,3.3-6.6,4.5c-1.7,1.2-3.3,2.5-5.1,3.7
	c-25.6,16.6-54.4,23.8-83.9,28.7c-2.9,0.5-5.9,0.6-8.8,0.2c-10.9-1.4-21.7,1.9-32.6,0.6c-6.7,3.4-13.3,0.9-19.7-0.7
	c-18.7-4.7-38.1-6.7-55.4-16.4c-3.1-1.8-7.2-2-10.9-2.9c-4.1,3.8-7.9,7.6-8.9,13.6c9.2,4,18.2,7,27.6,9.2c21.7,5,43.7,6,65.8,6.6
	c10.8-2.7,21.6-0.2,32.4,0.1c12.2,0.3,24.3,0.4,36.3-2.6c9-2.2,18.4-2.8,27.1-5.7c14.6-4.9,28.2-12.5,41.6-20.3
	c3.5-2,6.4-5,10.4-8.1C828.1,310.4,825.4,307.3,822,303.5z M802.2,285c-3.3,2.2-5.2,3.9-7.5,4.9c-6.6,3-12.9,6.1-17.3,12.1
	c-0.7,1-1.8,1.8-3,2.3c-8.9,3.8-17.6,8-26.7,11.2c-7.9,2.9-16.2,4.2-24.8,2.6c-2.4-0.5-5.1-0.1-7.5,0.3c-11.7,2-23.3,2.2-35.1,0.2
	c-6.1-1-12.3-2.1-18.3-3c-14.8-2.3-28.3-7.4-41.2-14.5c-1.7-0.9-3.6-1.6-5.5-2.5c-3.5,4.5-7.9,7.5-8.3,14c5,1.8,10,4.1,15.2,5.3
	c15.9,3.6,31.9,6.9,48,10c4.9,1,9.9,1.4,14.9,1.5c6.3,0.1,12.6-0.7,18.8-0.7c17.3,0.1,34.5-0.5,51.1-6.2c6.7-2.3,13.5-3.8,19.6-8.2
	c4.6-3.3,10.7-4.8,16.2-6.8c7.8-2.9,15.2-6.4,22.6-12C809.3,291.8,806,288.7,802.2,285z M627.8,286.3c4.2,7.2,11.1,8.6,17.9,10.9
	c11.6,4.1,23.4,6.6,35.5,7.8c2.9,0.3,6,0.5,8.6,1.5c2.9,1.2,5.5,1.3,8.5,0.4c2.8-0.8,5.8-0.9,8.7-1.1c10.4-0.9,20.9-1.7,31.3-2.6
	c1.2-0.1,2.5-0.5,3.6-1.1c8.8-5,17.6-9.9,26.1-15.3c4.2-2.7,8-6.1,11.7-9.5c3.2-2.9,2-7.7-2.2-8.9c-3.1-0.9-6.4-1-9.9-1.5
	c-3.2,6.9-8.6,10.8-14,14.9c-5.6,4.2-11.9,5.8-18.4,7.5c-13.1,3.5-26.2,5.2-39.8,3.7c-3.2-0.3-6.6,0.6-9.9,0.7
	c-12.1,0.6-24.2,0.6-35.2-5.8c-2.9-1.7-5.9-3.3-9-4.6C636.3,281.4,631.8,282.4,627.8,286.3z M706.8,367.5c-14.1-1.5-25.3-2.8-36.5-4
	c-10.8-1.2-22.3-0.6-32.4-4c-10.9-3.7-22.2-2.5-33.7-6.7c1,2.2,1.1,3.7,2,4.3c4.4,3.2,8.8,6.3,13.4,9.3c9,5.8,18.5,8.8,29.5,8.1
	c6.5-0.4,13.2,1.8,21.3,3.1C680.4,374.8,692.1,371.5,706.8,367.5z"/>
<path fill-rule="evenodd" clip-rule="evenodd" d="M571.4,487.6c15.2-0.2,29.4,3.6,43.5,7.9c1.9,0.6,3.6,2.1,5.1,3.5
	c5.2,4.9,10.7,9.6,15.3,14.9c6.1,6.9,12.5,13.9,17,21.8c5.2,9.2,6.8,19.8,7.5,30.4c0.4,5.4,1,10.9,1.3,16.3
	c0.7,11,0.2,21.7-4.3,32.1c-2.3,5.3-2.9,11.3-4.4,17c-2.3,8.6-5.1,17-11.2,23.7c-5.9,6.5-10.8,14-19.3,17.7
	c-1.1,0.5-2.4,1.2-3.1,2.1c-4.3,6.5-11.3,8.3-18.1,10.4c-2,0.6-4.1,0.9-6,1.8c-11.9,5.5-24.2,5.8-36.9,3.5c-5.4-1-10.8-2.2-16.2-2.3
	c-11.9-0.3-22.1-5.2-31.9-11.1c-9.4-5.6-18.7-11.1-26.8-18.8c-7.4-7-11.7-15.6-15.2-24.4c-3.9-9.7-5.7-20.3-5.8-30.9
	c0-11.4,2.1-22.4,6.9-33.1c4.8-10.7,8.7-21.8,16-31.2c3.9-4.9,7.6-10.1,11.9-14.7c3.7-4,8.1-7.4,12.1-11.1
	c12.9-12.1,28.1-20,45.2-23.8C559.9,488.3,565.8,488.2,571.4,487.6z M651.7,585.8c-0.8-13.7-0.5-23.8-3.7-33.5
	c-5.7-17.3-16.3-31.1-31.2-41.5c-2.4-1.7-4.6-3.9-7.3-4.7c-14-4.4-27.7-8.3-43.1-6.9c-17.1,1.6-30,9.5-42.2,19.8
	c-11,9.2-16,22.4-22.5,34.6c-4.9,9.2-3.2,19.7-6.9,29c-0.4,1,0.3,2.4,0.5,3.7c0.5,2.9,1.8,6,1.3,8.6c-2.3,11.1,0.8,21.9,3,32.2
	c3.2,14.9,11.8,27.6,23.7,37.5c1.3,1.1,2.9,1.6,4.5,2.3c10.4,4.8,20.9,9,32.6,8.9c2.9,0,5.8,0.7,8.8,0.8c2.9,0.1,5.8,0.1,8.6-0.3
	c16.3-2.3,30.1-10.4,43.4-19.3c4.1-2.7,7.9-6.6,10.6-10.7C640.4,632.9,653.8,601.8,651.7,585.8z"/>
<path fill-rule="evenodd" clip-rule="evenodd" d="M882.4,536.4c-1.7,3.7-4.3,4.4-7.5,4c-6.2-0.8-12.5-1.4-18.7-2.1
	c-1.6-0.2-3.5,0-4.9-0.8c-8.2-4.7-17.4-4.8-25.9-3.5c-16.5,2.5-33.4,5.2-44.5,20.3c-4.5,6-10.4,10.6-17.4,15.4
	c-2.7-12.3-6.2-23.4-7.4-35c-0.5-5.3-2.7-10.6-5.2-15.4c-5-9.7-10.9-18.9-16.1-28.5c-2.5-4.5-5.4-8.3-10-11c-3.1-1.8-5.8-4.9-8-7.9
	c-1.7-2.3-0.6-4.8,2-6c9.4,2.7,18.6,5.4,27.7,8.1c6.7,2,6.6,2.1,8.7,10.9c-3.3,0.5-6.6,1-10.5,1.7c0.8,1.9,1,4.1,2.2,5.4
	c7.6,8.6,13.2,18.3,16,29.5c0.2,0.8,0.9,1.4,2,2.8c3.2-1.9,5.2-4.7,6.7-8c3.7-8,7.4-16,11.3-23.9c2.7-5.6,5.9-10.9,9-16.8
	c-6-3.4-11.7-6.6-16.9-9.6c-1.4-5.1,0-8.3,3.7-11.4c2.3,1.5,4.6,3.1,7.1,4.5c3.6,2.1,7.3,4.3,11.1,5.8c3.2,1.3,7.1-2.7,5.8-5.9
	c-2.1-5-4.7-9.9-7.2-15c2.3-11.1,6.7-20.7,17.4-26c16.5,4.2,31.2,10.4,37.3,28.7c-3.8,8.5-10.9,13.3-19.6,15.9
	c-2.8,0.8-5.7,1.4-8.6,1.8c-3.9,0.6-6.9,2.6-10.1,5.9c1.3,1.3,2.2,3.1,3.4,3.3c6.9,1.2,11.3,6.2,16.8,10c-3.4,2.6-13.8,7.3-15.4,6.8
	c-5.1-1.6-10.2-3.4-15.8-5.3c-7.8,13.9-15.4,27.2-13.6,44.5c6,0.3,11-1.4,15.7-3.9c5.9-3.1,11.9-3.6,18.3-2.7
	c7.4,1.1,14.9,0.4,23.2,0.4c-0.7-2.1-0.8-3.4-1.5-4.2c-2-2.5-1.5-4.5,0.4-6.7c1.9-2.1,4.4-3.1,6.8-2c3,1.3,5.9,3.2,8.2,5.4
	c2.5,2.3,4.5,4.9,8.3,5.4c1.2,0.1,2.5,0.8,3.3,1.6C874.3,527.4,878.4,532,882.4,536.4z M807.8,438.4c-2.8,10.4,5.8,13.1,10.9,18.8
	c5.9-1.5,11.6-2.6,17.2-4.4c4-1.3,5.3-5.4,3.3-9.2c-1.2-2.3-3-3.9-5.7-4.5C825.3,437.3,817.1,435.4,807.8,438.4z"/>
<path fill-rule="evenodd" clip-rule="evenodd" d="M58.6,573.6c-10.1,0.3-17.8,0.3-25.4-3.8c-4.6-2.5-8.7-5.4-11.9-9.1
	c-11-12.6-18.6-27.3-20.4-44c-1.3-12.2,0.9-24.2,6.9-35.2c1.4-2.6,3.4-4.9,4.4-7.6c3-7.7,8.8-13,14.9-18.3
	c17.1-15.1,37.2-16.3,58.1-12.5c6.4,1.2,13.2,4.2,18.1,8.4c13,11.2,24,23.5,24.9,42.8c0.9,19.6-3.5,36.6-16.2,51.2
	c-5.7,6.6-11.3,13.5-18.7,18.6C82.2,571.6,69.8,574.2,58.6,573.6z M52.4,561.5c27.7-1.4,46.3-11,59-30.9c1.8-2.8,2.9-6.1,3.7-9.2
	c3-10.9,0.2-21.7-0.7-32.5c-0.6-7.3-3.9-12.7-9.5-17c-3.6-2.9-7.8-5.3-10.8-8.7c-8.3-9.3-19.9-7.6-30.3-9.9
	c-9.3,2.4-18.6,4.8-27.9,7.4c-1.4,0.4-3.1,1.8-3.7,3.2c-3.9,9.3-11.2,16.4-16.1,25.2c-3.6,6.5-6,13-5.7,20.2
	c0.3,5.8,1.2,11.6,2.2,17.4C16.1,545.6,38.1,563,52.4,561.5z"/>
<path fill-rule="evenodd" clip-rule="evenodd" d="M330.1,599.1c17.6-1.8,35,9.7,42.1,24.4c4.5,9.5,5.2,19.4,0.6,29.2
	c-1.2,2.7-2.8,5.2-3.9,7.9c-3.2,7.4-8.3,12-16.1,14.8c-10.2,3.7-20.1,8.3-30,13c-7.2,3.4-13.9,2.4-20.6-0.9
	c-7.5-3.8-14.7-8.1-22.3-11.6c-3.7-1.7-6.2-4.1-8.1-7.5c-4.3-7.4-8.9-15.2-6.3-23.7c2.1-7,4.2-14.5,9.5-20.2
	c2.9-3.1,5.5-6.3,8.3-9.4c0.8-0.9,1.7-1.8,2.8-2.5C298.6,604.7,313.8,600,330.1,599.1z M367.5,630.5c-4.3-8.3-10.6-15-18.8-19.6
	c-2.8-1.6-6.3-3.2-9.4-3c-7.5,0.4-14.9,2-22.4,2.8c-9.1,0.9-15.5,6.2-21,12.6c-4.3,5-7.7,10.6-8.6,17.6c-1,7.5-0.6,14.2,4.6,20.1
	c1.1,1.2,1.7,2.9,2.6,4.3c5.6,9.8,14.2,14.3,25.3,12.8c9.1-1.3,18.1-3.4,25.9-8.9c2-1.4,4.3-3.1,6.7-3.4c5.9-0.8,8.3-4.9,10.6-9.5
	C367.1,648.1,368.8,639.6,367.5,630.5z"/>
<path fill-rule="evenodd" clip-rule="evenodd" d="M117.5,50.1c-5-5.9-13.3-5.7-17.1-13.1c1.5-1.5,2.9-3.6,4.8-4.5
	c2.2-1,5.1-0.6,7.3-1.5c7.8-3.2,15.6-6,15.1-17.2C127.4,8.6,129.6,3.1,136,0c2.2,4.5,5.2,7.9,5.3,13.5c0.1,5.2,2.5,10.3,3.8,15.1
	c8,3.2,14-4.4,21.9-2.1c1.4,4.2-0.7,8.7-3.5,10.3c-7,3.9-11,10-15.6,16.1c1.5,3.5,2.9,6.9,4.3,10.3c3.9,9.6,3.6,10.5-4.8,18.3
	c-3.6-2.7-7-5.7-10.8-8.2c-2.1-1.4-4.6-1.5-6.9,0.6c-3.7,3.3-7.5,6.6-11.6,9.3c-1.9,1.3-4.6,1.6-7,1.8c-2,0.1-3.8-2.7-3.2-4.5
	c1.6-4.7,3.5-9.4,5-14.1C114.7,60.9,116.1,55.3,117.5,50.1z"/>
<path fill-rule="evenodd" clip-rule="evenodd" d="M883.6,130.7c-4.1-2.4-8.4-5-12.3-7.3c-4.6,0.9-4.9,4.5-6.3,7.5
	c-2.9,6.2-5.8,6.4-13.4,1c2.3-5,4.6-10.2,7.3-16.1c-4-4.3-7.8-8.5-11.5-12.4c2.5-7.6,9.1-7.2,14.9-8.6c4.1-8.1,3.3-16.3,1.9-24.6
	c-0.6-3.5-0.3-3.6,5.2-5.9c2.7,7.5,10.9,12.8,7.5,22.2c5.1,2.4,8.2-0.4,11.5-1.9c2.6-1.2,5-3.4,8.1-1.3c0.1,6.4-2.7,10.9-8.4,13.9
	c-3.1,1.6-5.4,4.2-3.5,8.2c0.2,0.4,0.4,0.9,0.3,1.2c-3,5.2-1.1,9.2,2.2,13.6C889.9,124.2,889,125.8,883.6,130.7z"/>
<path fill-rule="evenodd" clip-rule="evenodd" d="M145.2,160.3c2.4,2.9,4.5,6,7.2,8.5c3.1,2.9,3,6.7,3.7,10.2
	c0.2,0.9-1.9,2.2-3.1,3.6c-5.6-3.8-9.8-9-17.4-8.9c-4,1.9-5.5,6.6-8.1,10.2c-1.3,1.8-3.4,3.4-5.2,2c-1.7-1.4-3.5-4.1-3.4-6.1
	c0.3-3.2,2.1-6.3,3.5-9.7c-5.5-3-12.1-4.3-15.4-11.4c1.8-1,3.4-2.6,5.2-2.7c5.8-0.4,10.4-3,15.2-6.9c2.3-6.5-0.7-15.8,7.4-20.6
	c6.5,2.9,5.8,9.1,7,14.9c5.6-3,10.3-5.5,15.9-8.6c0.7,3.9,1.3,6.9,2,10.5C155,150.1,150.4,154.9,145.2,160.3z"/>
<path fill-rule="evenodd" clip-rule="evenodd" d="M421.4,578.6c1.9,13.1-5.1,20.5-15.4,26.4c-17.3,9.8-38.1,1.8-46.9-11.2
	c-4.3-6.3-4.1-17.7,0.9-22.3c4.3-3.9,9.4-6.9,14.2-10.1c4.5-2.9,9.5-2.7,14.6-1.8C401.5,562,412.8,567.1,421.4,578.6z M414.2,585.3
	c-3.1-6.8-8.5-11.2-14.9-14.6c-5.4-2.9-11.1-3.1-16.9-1.1c-8,2.8-10.9,8.1-8.4,16.6c1.3,4.3,3,8.5,4.3,12c7.5,4.8,14.3,4.3,21.2,1.6
	C406.6,597.2,411.8,592.8,414.2,585.3z"/>
<path fill-rule="evenodd" clip-rule="evenodd" d="M194.6,593.9c0.5,0,2.6-0.1,4.7-0.2c12-0.9,19.5,5.6,25.2,15
	c4.4,7.3,0.8,22-6.9,25.6c-8.3,3.9-16.4,8.3-25.7,9.9c-16.4,2.8-28-6.1-31.9-16.5c-2.9-7.6-2.4-14.5,3.3-21.1
	C171.5,596.9,177.1,594.1,194.6,593.9z M180,636.5c12.8,2.2,25.9-0.8,34.5-7.7c7.1-5.7,6.1-19.9-2.2-23.5
	c-7.6-3.3-15.5-5.9-24.2-2.9c-9.6,3.2-14.9,11.6-12.3,21.4C177,628.1,178.7,632.3,180,636.5z"/>
<path fill-rule="evenodd" clip-rule="evenodd" d="M627.9,77.5c-5.6-3.3-10.4-6.3-16.3-9.8c-0.9,3.1-1.9,5.3-2.1,7.6
	c-0.3,3.5-0.9,6.6-4.6,8.9c-9.9-3.3-2.9-12.3-5.7-18.3c-6.6-3.7-17.5,1.7-21.2-8.9c2.5-4,6.6-4,10-5.2c3.1-1,6.3-2.1,9.3-3.1
	c1.5-6.3-4.6-9.8-5-15.2c4-4.6,5-5,7.6-2.2c3.7,3.9,7.2,8.1,11.3,12.8c6.3-3.6,12.7-7.3,19.7-11.4c1.9,3.7,1.9,7.1-0.7,10.2
	c-2.4,2.9-5.4,5.3-7.9,8.1c-3.4,3.8-2.9,7.4,1.2,10.8c1.9,1.6,4.2,2.7,6.1,4.4C633.2,69.5,632.9,71.4,627.9,77.5z"/>
<path fill-rule="evenodd" clip-rule="evenodd" d="M204.3,63c3.9,5.5,6.5,11.9,8,18.5c5.9,2.6,9.8-2.7,15.5-2.8
	c1.1,1.6,2.5,3.5,4.2,5.8c-4.8,4.2-9.1,8-13.2,11.6c1.5,5.2,2.9,9.8,4.2,14.3c-1.5,2.4-2.9,4.5-4.1,6.5c-4-2.2-7.7-4.8-11.9-6.4
	c-4.1-1.6-7.5,0-9.7,3.7c-1.3,2.2-2,4.6-3.2,6.8c-1.2,2.1-3.4,2.8-5.4,1.7c-1.2-0.7-2.7-2.8-2.4-3.9c1.4-4.7-0.8-10.2,4.2-14.4
	c-2.1-1.6-3.6-3-5.3-3.9c-2.6-1.3-6.2-1.8-5.9-5.5c0.2-3.7,3.5-4,6.5-4.6c3.3-0.7,6.4-1.9,9.3-2.8c4.7-6.1,4.1-12.9,4.3-19.6
	C199.4,65.4,200.2,63.1,204.3,63z"/>
<path fill-rule="evenodd" clip-rule="evenodd" d="M711.1,570.9c-12.2-0.9-21.4-5.2-27.4-15c-6-9.8-3.4-21,7.2-25.2
	c9.2-3.7,19.3-6.6,29.3-2c8.6,3.9,15.9,9.1,20.4,18c2.9,5.7,1.5,10.8-1,15.7c-1,1.9-3.8,3.4-6.1,4
	C725.8,568.2,717.9,569.6,711.1,570.9z M708.6,534.4c-9.7,5-8.5,14.6-9.4,23.1c-0.3,2.6,2.3,4.5,5.1,4.5c5.8,0,11.8,0.4,17.5-0.6
	c4.6-0.9,10.1-1.4,12.9-6.4C729.6,542.4,723.6,537.7,708.6,534.4z"/>
<path fill-rule="evenodd" clip-rule="evenodd" d="M82.5,601.8c0.2-0.6,1.1-3.7,2.4-6.7c4.3-9.2,11.5-15.3,20.6-19.4
	c6.1-2.7,11.5-2.2,15.9,2.8c1.5,1.7,2.9,2.5,4.9,3.3c4.2,1.6,8.2,3.9,12.3,6c6.1,3.3,7.3,8.9,6.4,15.1c-1.1,7.8-4,14.3-12.5,17.2
	c-5.9,2-11.4,5.2-17.2,7.7c-4.8,2.1-9.8,2.2-14.8,0.7C88.4,624.7,81.8,617,82.5,601.8z M106.7,621.9c9.5-0.2,15.9-3.3,22.4-6.4
	c5.2-2.5,7.8-6.4,8.2-11.8c0.5-5.8-3.2-10.1-7.8-12c-15.3-6.4-24.7-6.9-36,6.6c-6.9,8.3-3.8,17,4.4,20.8
	C101.3,620.7,105,621.4,106.7,621.9z"/>
<path fill-rule="evenodd" clip-rule="evenodd" d="M180.6,575.2c-12.2-0.7-19.5-5.2-23.1-14.5c-5-13,0.9-21.8,13-28.7
	c3.1-1.8,6.8-2.8,10.1-4.7c8.8-5,20,0.4,26.4,8.4c2.1,2.6,3.5,5.7,4.8,8.8c4.5,11.1-0.2,22.3-11.7,26.2
	C193.8,572.9,187.1,573.8,180.6,575.2z M174.9,566.8c8.2,4,14.7,0.1,21.3-2.3c8.1-3,9.5-5.8,9.6-14.1c0.1-6.6-3.4-11.1-7.8-15.1
	c-3-2.6-6.5-3-10.5-2.1c-5.7,1.3-8.8,5.3-12.8,9.2c-4.2,4.1-4.4,7.6-2.7,12.2c0.7,1.9,2.4,3.6,2.8,5.6
	C175.3,562.3,174.9,564.7,174.9,566.8z"/>
<path fill-rule="evenodd" clip-rule="evenodd" d="M72.8,614.9c-5.6,15.8-18.7,18.1-30.7,21.4c-5.3,1.4-11.3-1.3-15-5.2
	c-5.8-6-10.5-13-9.9-22.2c0.6-9,9.4-18.6,18.5-19.1c4.6-0.3,9.3,0.1,13.9,0.5c15.3,1.4,21.1,7.2,23.1,22.8
	C72.7,613.9,72.8,614.7,72.8,614.9z M39.3,627.5c7.9-0.5,14.2-1.5,19.3-5.4c2.5-2,4.9-4.6,6.5-7.4c2.3-4,1.4-8-1.7-11.5
	c-6.2-6.9-14.7-7.8-22.4-2c-3.6,2.8-7.5,5.4-10.6,8.7c-5,5.5-5.5,10.5,1.2,14.4C34.3,626,37.6,626.9,39.3,627.5z"/>
<path fill-rule="evenodd" clip-rule="evenodd" d="M230.7,567.1c-0.4-6.8,2.6-12.7,10.2-15.9c6.6-2.8,12.7-5.9,20.4-2.6
	c4,1.8,9,0.5,13.2,3.2c5.2,3.3,8.9,7.4,11,13.3c2.3,6.3,1.2,11.8-3.2,16.4c-8.8,9.1-21.9,14.7-36.8,9.1
	C236.3,587,230.5,578.4,230.7,567.1z M247.8,584.3c9.8,4.8,18.7,1.8,26.9-4.2c4.9-3.6,6.7-9.8,4.3-14.6c-2.3-4.7-5.9-8-11.4-9.1
	c-9.6-1.9-16.7,3-24.3,8C244.8,570.9,246.1,576.9,247.8,584.3z"/>
<path fill-rule="evenodd" clip-rule="evenodd" d="M695,581c10-0.2,18,4.1,25.5,9.9c10,7.7,10.1,18.5,0,26.3
	c-3.6,2.8-7.6,5.4-11.8,7.1c-6.2,2.6-12.6,4.3-19.3,0.4c-7.9-4.5-12.4-11.3-14.5-19.7c-1.6-6.4,5.5-19.4,11.7-22.3
	C689.1,581.6,692.2,581.5,695,581z M702,589c-5.4,8.1-10.5,16-15.6,23.6c3.8,6.6,9.1,8.2,16.1,6.9c9.5-1.7,15.6-7,19.6-15.7
	C715.5,598.3,711.1,590.8,702,589z"/>
<path fill-rule="evenodd" clip-rule="evenodd" d="M320.6,556.3c-6.4,0.9-12.4-1.9-16.2-9.1c-2.1-4-2.4-8-0.6-12.1
	c6.7-14.4,24.6-20.1,38.2-12.4c5.8,3.3,10,13.1,8.4,19.6c-0.5,1.9-1.8,3.7-3.2,5.2C340.9,554.4,333.1,557.1,320.6,556.3z
	 M344.9,539.1c-0.8-5-2.4-8.6-6.7-10.6c-3.5-1.7-7-2.7-10.9-1.7c-4.7,1.2-9.3,8.4-7,12.7c2.1,3.9,3,8.9,9.2,11.1
	C334.3,547.5,341.5,546.7,344.9,539.1z"/>
<path fill-rule="evenodd" clip-rule="evenodd" d="M446.3,645.5c-7.8,3.9-15.1,7.9-22.7,11.4c-6.6,3-15.5,0.3-20.3-5.8
	c-2-2.6-3.3-5.8-4.7-8.4c1.7-10.8,8.3-17.4,16.8-22.6c5.7-3.5,11.9-4,18.2-2.5c10.6,2.6,15.5,10.5,13.9,21.7
	C447.1,641,446.8,642.6,446.3,645.5z M439.4,636.7c-0.3-6.8-6.5-13-12.2-11.1c-6.3,2.1-12.4,5.3-17.1,10.3
	c-4.5,4.8-2.1,12.5,4.2,13.8c2.4,0.5,5.2,0.8,7.4,0.1c4.8-1.5,9.4-3.5,14-5.7C438.7,642.8,439.8,640,439.4,636.7z"/>
<path fill-rule="evenodd" clip-rule="evenodd" d="M237.3,687.7c-13.9-0.3-25.5-11.4-26.3-23.3c-0.1-1.6,0.1-3.4,0.7-4.9
	c2-5.4,13.7-12.8,19.3-12.2c1.6,0.2,3.2,0.9,4.6,1.7c1.8,0.9,3.4,2.9,5.2,3.1c8.9,0.7,12,7,13.8,14.2c3,12,1.7,14.5-9.6,19.3
	C241.8,686.7,238.5,687.3,237.3,687.7z M219.3,669.2c1.3,1.7,2.8,3.3,3.9,5c5.7,8.4,14.8,7.2,21.4,4.5c2.6-1.1,3.9-3,3.9-5.8
	c0.1-4.4-0.6-8.5-4.8-10.9c-4.7-2.6-9.8-2.7-14.5-0.2C225.7,663.7,222.7,666.6,219.3,669.2z"/>
<path fill-rule="evenodd" clip-rule="evenodd" d="M461.8,542.3c0.4,6.6-3.8,11.1-7.6,15.4c-6.3,6.9-23.1,7.1-30.2,1
	c-7.9-6.8-8.7-16.2-2.6-24.5c10-13.7,23.5-12.6,34-4.8C459.9,532.7,461.8,536.6,461.8,542.3z M425.8,549c1.6,1.9,2.5,3.4,3.8,4.3
	c7.6,5.4,19.8,1.9,23.4-6.5c2.1-4.9,0.4-9.2-4.5-11.3c-9.2-3.8-15.7-1.1-20.1,8.3C427.7,545.3,427,546.8,425.8,549z"/>
<path fill-rule="evenodd" clip-rule="evenodd" d="M74.1,667.6c-3.3-0.6-5.8-1.5-8.3-1.5c-10.1-0.3-15.9-15-9.4-24.9
	c2.8-4.3,6.4-8.9,12.6-9.8c2.8-0.4,5.5-2,8.3-3c10-3.6,23.3,3.8,25,14.4c0.5,3.1,0.4,7.3-1.3,9.6C94.2,661.6,84.8,666.7,74.1,667.6z
	 M63.5,656.7c11.4,5.3,20.9,1.8,29.5-6.2c3.1-2.9,3.3-6.7,0.8-10.1c-4-5.6-8.7-7.4-15.3-4.9c-5.4,2.1-10.5,4.9-15,7
	C61.5,648.1,60.1,652.4,63.5,656.7z"/>
<path fill-rule="evenodd" clip-rule="evenodd" d="M956.9,534.1c0-0.2,0-0.6,0.1-1c2.7-17.1,17.5-23.5,34.1-12.8
	c4.5,2.9,6,7.8,8.4,12.1c-3.2,10.9-8.4,19.9-20.8,20.4C966.4,553.5,960.1,545.4,956.9,534.1z M990.8,533.4c-0.2-4.1-3-7.2-6.8-7.9
	c-6.5-1.2-11.3,1.8-15.4,6.4c-2.1,2.4-1.7,7,1,9.1c2.2,1.8,4.9,3.4,7.6,4C983,546.4,991.1,539.1,990.8,533.4z"/>
<path fill-rule="evenodd" clip-rule="evenodd" d="M135.1,636.9c5.2-0.8,10.7,0,15.1,5c4.1,4.6,6.1,9.9,6.7,15.7
	c0.5,4.6-3.3,9.9-8,9.6c-6.1-0.4-11.4,2.4-17.1,2.6c-7.5,0.3-14-2.1-19.3-7.4c-3-2.9-3.6-6.2-2.3-10.3
	C113.4,642.1,120.2,635.6,135.1,636.9z M135.1,643.2c-11.6,5.9-11.6,5.9-16.1,14.2c4.7,2.7,9.8,5.9,15,4.5c5.2-1.5,12.2,1,15.8-5.7
	C148.4,647.5,141.3,645.7,135.1,643.2z"/>
<path fill-rule="evenodd" clip-rule="evenodd" d="M906.5,520.9c2.9-6.1,7-10.5,12.6-13.9c11.7-7.2,26.3,1.5,29.4,13.9
	c1.3,5.3-1,9.9-5.2,13.4c-9.8,7.9-21.4,8.1-31.3,0.1c-1.5-1.2-2.8-3.2-3.5-5C907.5,526.7,907.1,523.7,906.5,520.9z M934.1,513.8
	c-9.9,0.7-12.9,8.5-16.6,16.5c2.5,1,4.3,2.1,6.3,2.6c5.4,1.2,15-2.1,16.6-6.2C942.8,520.8,938.1,517.5,934.1,513.8z"/>
<path fill-rule="evenodd" clip-rule="evenodd" d="M686.6,487.6c-1.6,6-5,9-10.3,10.6c-7.8,2.5-15.7,2.2-23.6,1.7
	c-5.2-0.3-8.1-3.6-8.8-8.9c-1.5-10.5,4.6-18.7,14.9-21C669.4,467.7,683.7,472.8,686.6,487.6z M656.5,486.5c2.5,4.9,5.9,8.4,12.5,7.1
	c5.6-1.2,9.7-3.5,9.8-6.3c0.2-3.3-4-8.2-8.8-9.5c-1.8-0.5-4.3-0.5-5.9,0.4C660.9,479.9,657.5,481.9,656.5,486.5z"/>
<path fill-rule="evenodd" clip-rule="evenodd" d="M832.1,589.2c-4.1,11.4-13.7,16.1-24.3,19.2c-7.2,2.1-15.8-1.9-19.2-8.4
	c-4.2-8-0.8-16,8-18.6c2.4-0.7,4.9-1.1,7.1-2.2c4.7-2.5,9.5-3.3,14.5-1.4C824.1,579.9,830,582.3,832.1,589.2z M806.9,584.2
	c-2.3,2.1-4.5,4-6.5,6c-0.6,0.6-0.8,1.5-1.2,2.2c-2.9,5.1-0.5,9.5,5.2,9.6c7.2,0.1,12.9-3,18.1-7.7c3-2.8,2.6-6-1.1-8
	C816.7,583.7,811.8,583.6,806.9,584.2z"/>
<path fill-rule="evenodd" clip-rule="evenodd" d="M218.8,509.9c1-1.2,1.6-1.8,2-2.5c2.5-3.7,3.9-8.9,9.3-9.4
	c6.6-0.6,13.2-1.4,19,3.8c3.4,3.1,7.3,5.5,9.1,10c2.2,5.6,0.8,10.2-4.6,12.5c-4.9,2.1-10.1,3.6-15.3,5c-1.8,0.5-4.2,0.6-5.9-0.1
	C221.9,525,219.7,528,218.8,509.9z M228.8,520.9c9.3,5.4,16.3,1.5,23.7-3.6c-3.3-6.9-8-11.1-15.6-13.6c-2.5,3.3-5.3,6.4-7.3,10
	C228.5,515.5,229,518.4,228.8,520.9z"/>
<path fill-rule="evenodd" clip-rule="evenodd" d="M202.6,674.2c-1.9,11.3-11.6,13.1-20.2,16.1c-1.1,0.4-2.7,0.2-3.7-0.3
	c-6.3-3.6-11.7-8.2-14.9-14.9c-1.3-2.8-1.2-5.6,0.8-8.3c3.7-5,8.4-8.2,14.6-8.9c1.2-0.1,2.9-0.4,3.7,0.2
	C189.2,663.3,198.8,664.1,202.6,674.2z M180.9,683.5c6.3-1.4,11.5-3.3,14.5-9c-5.1-5.1-11.1-6.3-17.5-5.8c-1.8,0.1-3.6,1.4-5.1,2.1
	C173.2,676.6,177.4,679.2,180.9,683.5z"/>
<path fill-rule="evenodd" clip-rule="evenodd" fill="#FFFFFF" d="M508.6,414.2c-6.1,0-11.1,0-16.6,0c-1.8-2.6-2.2-5.3-2.1-8.9
	c0.4-17.2,0.2-34.4,0.2-52.3c-1.5,1.1-3,1.6-3.2,2.4c-0.7,2.9-1.4,5.9-1.1,8.7c1.6,15.5-3.2,30.6-2.4,46.1c0.1,1.6-0.4,3.2-0.8,5.5
	c-4.4,0.3-8.5,0.6-12.9,1c-4.3-10.7-0.7-21.2-1-31.5c-0.3-10.3,0.5-20.6,0.8-33.4c-2.4,3.2-3.9,4.3-4,5.6c-1.1,8.3-2.4,16.6-2.8,25
	c-0.6,11.3-0.4,22.7-0.5,33.7c-4.9,2.3-9,1.4-13.6,0c-0.3-2.3-0.8-4.7-0.8-7.2c-0.1-12.6-3.1-25-1.9-37.7c0.1-0.6-1.8-2.2-2.4-2
	c-1,0.2-2.3,1.6-2.3,2.5c0.1,11.3-1.3,22.5,0.6,33.8c0.7,4,0.5,8.2,0.7,12.6c-12.9-1-20.8-8.7-28.1-16.8
	c-5.3-5.9-10.1-12.4-14.2-19.2c-3.4-5.7-5.4-12.3-7.7-18.6c-0.7-1.9-0.9-4.1-0.9-6.2c-0.2-9.9-5.1-17.4-11.8-24.3
	c-6.5-6.7-13.2-12.8-21.4-17.4c-4-2.3-7.7-3-12-2.4c-4.6,0.6-9.2,1-13.6,2.2c-2.2,0.6-5.3,2.4-5.8,4.2c-1.1,4.5-4.7,6.6-7.2,9.8
	c-4.9,6.4-7.2,14.2-8.9,22c-2.6,12.3-4.3,24.8-7.2,37c-1.9,7.7-5.3,15.1-8.1,22.5c-0.4,1.1-1.4,2.2-2.4,2.8
	c-9.6,5.2-19.2,10.8-30.9,6.7c-1.4-0.5-3.3-0.5-4.7-0.1c-8.1,2.6-16.2,3.1-24.6,2.5c-19.3-1.5-38.6-2.3-58-3.4
	c-0.8,0-1.6-0.5-2.4-0.7c-4.1-4.4,2.3-11.5-4.3-16.2c-2.5,5.8-4.7,11.1-7,16.5c-5,0-9.5,0-14.4,0c-2-7.3-1-14.5-0.6-21.5
	c0.3-6.8,3.5-13.4,2.4-21.6c-7.3,9.2-8.2,12.6-11.2,42.2c-4.6,1.7-9.6,0.3-14.1,0.7c-3.2-2.7-2-5.8-1.5-8.4
	c3.3-20.8,8-41.2,13.6-61.5c0.4-1.4,0.3-2.9-0.3-4.5c-3.6,5.1-7.2,10-8.3,16.4c-2.2,13.2-7.4,25.8-9.5,39c-0.6,3.7-1.2,7.4-1.9,11.1
	c-0.4,2.4-1,4.8-1.5,7.5c-4.1,0-7.7,0-12.3,0c0.4-18.6,3.8-36.1,9.2-53.3c5.4-17.1,10.8-34.2,16.3-51.8c-1.3,0.9-2.7,1.4-3,2.3
	c-2.9,7.4-7.2,14-9.4,21.8c-4,14.5-9.1,28.7-13.3,43.1c-2.2,7.6-3.5,15.5-5.2,23.2c-1.1,4.8-2.3,9.6-3.6,15c-3-0.2-5.4-0.4-7.5-0.6
	c-3-6-2.9-11.9-1.5-17.7c1.9-7.7,4.3-15.3,6.3-23.1c1.5-5.9,2.9-11.8,3.5-17.9c-5.8,8.5-9.5,17.9-11.9,27.8
	c-2.4,9.7-5.3,19.3-7.9,28.9c-4.5,1.2-8.4,0.2-12.6-2.6c-1.1-6.9-1-13.6,3.5-20c3.4-4.8,4.6-10.7,6.9-16c4.1-9.5,6.3-19.6,11.4-28.9
	c5-9,6.6-19.8,11.2-29.3c2.3-4.6,4.4-9,8.3-12.4c1.5-1.4,2.9-3,4-4.8c4.1-7,10.8-10.3,18.3-12.2c11.4-2.8,22.9-5.1,34.9-5.1
	c10.1,0,20.1-1.5,30.2-2.4c5.8-0.5,11.6-2.1,17.4,0.1c8.5-2.2,17.3-0.3,26-1.4c15.3-1.9,30.8-4.4,46-3.2c4.4,4.2,5.8,8.7,6.2,14
	c0.1,2.1,2.1,4,3.6,6.6c3.4-7.2-0.7-13.1-0.2-19.1c7.7-2.1,9.6-2.1,11.7,2.8c3,7.2,5.2,14.9,7.4,22.4c1.1,3.6,1.5,7.3,2.4,11
	c0.1,0.5,1.5,1.2,1.9,1c0.9-0.5,2.4-1.6,2.3-2.3c-1.1-8.3-2.5-16.5-3.9-24.8c-0.5-2.8-0.9-5.7-1.3-8.3c8-3.5,8-3.4,14.5-2.5
	c5.5,8.9,5,20,10.3,29c0.1,0.2,0.8,0,2.1-0.1c0.5-6.9,0-13.7-1.9-20.4c-0.3-1.2-1-2.3-1.3-3.6c-0.7-3.7,1.7-6.9,5.4-6.8
	c2.9,0.1,5.7,0.7,9,1.2c0.2,10.6,5.9,19.2,8.7,28.6c3.9-0.5,3.4-3,3.1-4.6c-1.2-6.1-3-12.2-4.2-18.3c-0.9-4.8,0.7-6.5,6.1-7
	c1.6-0.2,3.3,0.1,5.6,0.2c3.1,6.1,6.2,12.2,9.9,19.8c4.5-8.7-1.6-14.7-1.8-21.1c0.3-0.3,0.6-0.8,0.9-0.8c4.9-0.8,10.5-0.2,14.4-2.5
	c4.8-2.8,9.7-2.1,14.5-3.2c6.1-1.4,12.3-2.6,18.5-3.8c6.2-1.3,12.4-2.4,18.5-3.9c4.8-1.2,9.6-2.9,15.1-4.6c2,0.9,5.3,1.5,7.3,3.4
	c7.6,7.3,17.2,11.9,24.8,19.5c8.8,8.9,19.2,16.3,28.9,24.3c1.9,1.6,4.2,3,5.7,4.9c3.9,5.3,9.2,8.7,14.6,11.9
	c16.5,9.6,30.3,22.7,46.1,33.1c7.8,10.3,19.7,15.6,29.2,23.9c4,3.5,6.9,7.1,9,12.7c-8.5,4.3-17.7,5.9-26.3,7.7
	c-7.3-4.9,0.4-11.7-3.7-17.1c-8.3,4.2-6.3,11.9-6.9,19.1c-2.3,0.2-4.7,0.5-7.2,0.7c-4.5-7,1.7-15.4-4-22.3
	c-4.7,2.5-4.6,6.7-4.4,10.7c0.2,4.1,0.9,8.2,1.5,13.2c-3.8,1.2-8.2,1.4-12.7,1.2c-7.2-11.4-2.9-24.1-5-35.8
	c-3.8-0.5-4.4,2.6-4.6,4.7c-0.9,11.1-2.7,22.1,0.3,32.7c-4,3.8-8.2,3.3-12.9,3c-3.6-21.1-1.2-42.5-2.8-65.9
	c-1.9,2.8-3.2,3.9-3.3,5.1c-0.5,7.5-0.8,14.9-1,22.4c-0.4,13.3-0.6,26.6-1,40.5c-3.9,1.5-8.3,1.8-12.9,1c-3-8-1.3-16.1-2.4-23.9
	c-1.2-8.4,0.3-16.7-0.3-25c-0.5-7.8,3.5-15.7-0.5-24.6c-1.3,1.8-2.9,2.9-3,4.2c-0.7,9.6-1.2,19.2-1.6,28.9c-0.2,4.2-0.1,8.4,0,12.5
	C508.2,393.5,508.4,403.1,508.6,414.2z M231.7,407.2c13.6-1.8,28.4-3.9,42.1-10.7c2.9-1.4,5.5-3.7,7.8-6
	c13.2-13.6,17.1-40.7,8.5-58.8c-3.1-6.4-6.6-12.6-10.2-18.7c-1.9-3.3-4.9-5.5-8.4-7.4c-10.3-5.5-21.5-6.5-32.6-8.8
	c-13.9-2.8-26.7,0.8-39.5,4.9c-4.2,1.3-8.3,3.7-11.5,7.4c-4.2,4.7-8.9,9.1-14,12.7c-5.9,4.2-8.3,10.2-10.5,16.6
	c-0.8,2.4-1,5-1.9,7.2c-3.3,7.9-3.7,15.3,2.7,22.1c1.1,1.1,1.4,3.1,1.9,4.7c4.6,14.3,14.1,23.6,28.6,27.4
	c10.1,2.6,20.4,4.8,30.6,7.2C226.9,407.2,228.7,407.1,231.7,407.2z M387,286.7c0.8,7.3,1.4,14,2.2,20.7c0.2,2,0.6,4.2,1.5,6
	c3,6.3,8.3,8.8,17.1,6.8c6.7-1.5,13.3-1.5,20-1.8c8-0.4,15.9-1.3,23.8-2.1c11.3-1.2,22.5-2.8,33.8-3.6c5.3-0.4,8.5-2.6,10.2-7.4
	c-0.3-0.9-0.3-1.9-0.8-2.5c-9.2-9.8-18.3-19.7-27.8-29.2c-1.9-1.9-5.2-2.9-8-3.1c-3.7-0.3-7.5,0.5-11.2,1.1
	c-14.9,2.7-29.7,6.2-44.9,6.1C395.8,277.8,390.8,280.2,387,286.7z M426,363.6c-1,0-1.9,0-2.9,0c-1.3,7.1-2.9,14.3-3.9,21.4
	c-0.5,3.6,1.8,4.3,7.5,1.8C424.3,379.4,428,371.4,426,363.6z M447.5,332.1c-6.7,7.6-2.4,12.7-2.7,17.7c-0.3,5.2-2.6,10.2-1.9,15.6
	c1.4-0.2,2.6-0.1,2.7-0.4C448.9,355,446.6,345,447.5,332.1z M98.7,346.1c-0.7,1-1.3,1.9-1.8,2.8c-0.1,0.1,0.6,0.9,0.7,0.8
	c0.8-0.5,1.6-1.1,2.3-1.8C99.9,347.8,99.2,346.9,98.7,346.1z M134.9,339.5c0.3,0.3,0.6,0.9,0.8,0.9c0.7-0.2,1.4-0.6,2.1-0.9
	c-0.3-0.3-0.6-1-0.8-0.9C136.3,338.8,135.6,339.1,134.9,339.5z"/>
<path fill-rule="evenodd" clip-rule="evenodd" fill="#FFFFFF" d="M745.2,165.5c4.1,4.5,5.7,9.9,6.7,15.1c1.5,8.2,1.9,16.6,2.5,24.9
	c0.5,5.9,1.2,11.5,3.2,17.2c4.9,13.8,5.1,27.8-0.9,41.6c-3.4,7.9-8.8,12.8-17.1,15.3c-9.9,3.1-20,2.3-30,2.9
	c-11.3,0.7-22.7,0.8-34,1c-6.4,0.1-12.5-1.5-18.2-4.3c-4.6-2.2-8.9-4.8-13.3-7.1c-4.4-10.5-2-20.7,0-30.9c1.1-5.7,2.7-11.4,4.2-17.1
	c1.7-6.5,3.7-12.8,2.3-19.8c-0.5-2.3,0.9-4.9,1.2-7.4c0.3-2.5,0.9-5.2,0.3-7.4c-1.9-6.8,0.9-12.9,1.2-20.4c3.1,1.5,5.3,2.5,7.4,3.7
	c6.5,3.8,13.1,7.3,20.6,9.3c8.1,2.3,15.6,2.7,23.4-0.5c3.1-1.3,6.4-2,9.7-2.8c9.4-2.3,18.6-5.4,26.5-11.2
	C742,167,743.6,166.4,745.2,165.5z M717.5,261.2c-1.2-0.6-2.3-1.1-3.5-1.7c-5.1-2.2-7.2-5.9-7.7-11.7c-1-11.3-1.4-22.4,1.9-33.4
	c0.9-3.1,2.1-6.6-1.3-10c-5.7,0.4-12.1-0.3-15.8,6.5c-0.6,1-0.9,2.2-1.7,4c2.5,2.1,4.9,4.1,7.8,6.6c0.4,3.9,1,8.5,1.1,13
	c0.1,4.6-0.2,9.2-0.5,13.8c-0.3,4.6-2.5,7.8-6.9,9.7c-2.7,1.1-5.9,2.2-7.5,4.3c-3.5,4.6-8.6,6.7-13.1,9.5c-1.1,0.7-1.8,2.1-4.4,5.3
	c8.4-2.6,14.3-4.1,19.9-6.3c5.7-2.3,11.2-5.3,17.1-8.2c0.7,0.4,1.9,0.8,2.8,1.6c5.8,5.2,12,4.9,18.7,2.1c4.6-1.9,9.5-3,14.2-4.8
	c1.4-0.6,4.2-0.7,3.4-4.3C733.8,258.6,725.6,259.9,717.5,261.2z M733.4,192.1c-5.9,0.3-11.2,8-9.2,12.3c0.7,1.5,3.3,3.5,4.6,3.2
	c3.1-0.7,6.2-2.2,8.9-4c2.2-1.5,3-4.5,1.4-6.7C737.5,194.6,734.8,193.2,733.4,192.1z M680.2,196.4c-4.7-3.3-8.9-3.3-12.8-2.6
	c-1.6,0.3-3.6,2.3-4.1,4c-0.5,1.6,0.1,4.3,1.3,5.5c4.2,4.4,9,4,12.6-0.8C678.3,200.9,679,198.9,680.2,196.4z"/>
<path fill-rule="evenodd" clip-rule="evenodd" fill="#FFFFFF" d="M391.5,420.1c-25.8,0.5-49.9,1-74.9,1.6c-0.3-6.5-0.8-12.3-0.6-18
	c0.2-5.8,2.2-11.8,1.5-17.4c-0.8-6.1,2.8-11.4,1.6-17.3c3.6-10.3,7-20.7,11-30.8c1.3-3.3,4.5-6,7.1-8.8c0.8-0.8,2.3-1.5,3.4-1.3
	c5.8,0.7,12.5,0.1,17.2,2.8c10.5,6.1,20.2,13.4,24,26.3c2,6.8,4.3,13.5,5.2,20.6c1.3,10.4,3.2,20.7,4.6,31.2
	C392.2,412.2,391.6,415.5,391.5,420.1z M362,372c0.2-3.8,0.5-7.5,0.7-11.1c0.3-5.4-2.5-8.6-7.4-10.2c-14.9-4.7-23.5-1.5-24.4,15.8
	c0,0.8-0.4,1.6-0.4,2.5c0,10.2,9.2,15.7,18.2,10.8C352.8,377.6,356.7,375.2,362,372z"/>
<path fill-rule="evenodd" clip-rule="evenodd" fill="#FFFFFF" d="M822,303.5c3.4,3.8,6.1,6.8,9.3,10.4c-4,3.1-6.9,6-10.4,8.1
	c-13.4,7.8-26.9,15.3-41.6,20.3c-8.7,2.9-18.1,3.6-27.1,5.7c-12,2.9-24.1,2.8-36.3,2.6c-10.8-0.2-21.6-2.8-32.4-0.1
	c-22.1-0.6-44.1-1.5-65.8-6.6c-9.4-2.2-18.5-5.2-27.6-9.2c1-6,4.8-9.8,8.9-13.6c3.8,1,7.8,1.2,10.9,2.9
	c17.2,9.7,36.7,11.7,55.4,16.4c6.4,1.6,13,4.1,19.7,0.7c10.9,1.3,21.7-2,32.6-0.6c2.9,0.4,5.9,0.3,8.8-0.2
	c29.6-4.9,58.4-12.1,83.9-28.7c1.8-1.1,3.4-2.5,5.1-3.7C817.2,306.9,818.9,305.7,822,303.5z"/>
<path fill-rule="evenodd" clip-rule="evenodd" fill="#FFFFFF" d="M802.2,285c3.9,3.7,7.1,6.8,11,10.6c-7.4,5.6-14.8,9.1-22.6,12
	c-5.5,2-11.5,3.5-16.2,6.8c-6.1,4.4-12.9,5.9-19.6,8.2c-16.6,5.7-33.8,6.4-51.1,6.2c-6.3,0-12.6,0.8-18.8,0.7
	c-5-0.1-10-0.6-14.9-1.5c-16-3.1-32-6.4-48-10c-5.2-1.2-10.2-3.5-15.2-5.3c0.4-6.6,4.8-9.5,8.3-14c2,0.9,3.8,1.6,5.5,2.5
	c13,7.1,26.4,12.2,41.2,14.5c6.1,0.9,12.2,2,18.3,3c11.8,2,23.4,1.9,35.1-0.2c2.5-0.4,5.1-0.7,7.5-0.3c8.6,1.6,16.8,0.3,24.8-2.6
	c9.1-3.3,17.9-7.4,26.7-11.2c1.1-0.5,2.2-1.3,3-2.3c4.4-6.1,10.8-9.2,17.3-12.1C797,288.9,798.9,287.2,802.2,285z"/>
<path fill-rule="evenodd" clip-rule="evenodd" fill="#FFFFFF" d="M627.8,286.3c4-4,8.5-4.9,13.6-2.8c3.1,1.3,6.1,2.9,9,4.6
	c11,6.3,23.1,6.4,35.2,5.8c3.3-0.2,6.7-1.1,9.9-0.7c13.5,1.4,26.7-0.2,39.8-3.7c6.5-1.7,12.8-3.3,18.4-7.5c5.4-4.1,10.8-8,14-14.9
	c3.4,0.5,6.8,0.6,9.9,1.5c4.3,1.2,5.4,6,2.2,8.9c-3.7,3.4-7.5,6.8-11.7,9.5c-8.5,5.4-17.4,10.3-26.1,15.3c-1.1,0.6-2.4,1-3.6,1.1
	c-10.4,0.9-20.9,1.7-31.3,2.6c-2.9,0.2-5.9,0.3-8.7,1.1c-3,0.9-5.6,0.8-8.5-0.4c-2.6-1.1-5.7-1.3-8.6-1.5c-12.2-1.2-24-3.7-35.5-7.8
	C638.9,294.9,632,293.6,627.8,286.3z"/>
<path fill-rule="evenodd" clip-rule="evenodd" fill="#FFFFFF" d="M706.8,367.5c-14.7,4.1-26.4,7.3-36.4,10.1
	c-8.1-1.3-14.8-3.4-21.3-3.1c-11,0.6-20.6-2.4-29.5-8.1c-4.6-2.9-9-6-13.4-9.3c-0.8-0.6-1-2-2-4.3c11.5,4.1,22.8,3,33.7,6.7
	c10.1,3.4,21.5,2.8,32.4,4C681.5,364.7,692.7,365.9,706.8,367.5z"/>
<path fill-rule="evenodd" clip-rule="evenodd" fill="#FFFFFF" d="M651.7,585.8c2,16-11.3,47.1-20.1,60.5c-2.7,4.1-6.5,8-10.6,10.7
	c-13.3,8.9-27.1,17-43.4,19.3c-2.8,0.4-5.8,0.4-8.6,0.3c-2.9-0.1-5.8-0.9-8.8-0.8c-11.7,0.1-22.2-4.1-32.6-8.9
	c-1.5-0.7-3.2-1.3-4.5-2.3c-11.9-10-20.5-22.6-23.7-37.5c-2.2-10.3-5.3-21.1-3-32.2c0.6-2.7-0.8-5.7-1.3-8.6
	c-0.2-1.2-0.9-2.7-0.5-3.7c3.7-9.3,2.1-19.8,6.9-29c6.5-12.2,11.6-25.4,22.5-34.6c12.3-10.3,25.1-18.2,42.2-19.8
	c15.4-1.4,29.1,2.4,43.1,6.9c2.7,0.8,4.9,3,7.3,4.7c14.9,10.4,25.4,24.2,31.2,41.5C651.3,561.9,650.9,572.1,651.7,585.8z"/>
<path fill-rule="evenodd" clip-rule="evenodd" fill="#FFFFFF" d="M52.4,561.5c-14.4,1.5-36.3-15.9-39.6-34.8c-1-5.8-2-11.6-2.2-17.4
	c-0.4-7.3,2.1-13.7,5.7-20.2c4.9-8.8,12.2-15.9,16.1-25.2c0.6-1.4,2.2-2.8,3.7-3.2c9.3-2.6,18.6-5,27.9-7.4
	c10.4,2.2,22,0.6,30.3,9.9c3,3.4,7.2,5.8,10.8,8.7c5.6,4.3,8.9,9.7,9.5,17c0.8,10.9,3.7,21.6,0.7,32.5c-0.9,3.2-2,6.5-3.7,9.2
	C98.7,550.4,80.1,560.1,52.4,561.5z M62.1,539.9c2.5-0.7,8-1.1,11.9-3.6c9.2-6,15.9-14.6,20.1-24.9c2.6-6.4,3.2-12.8-0.3-19.3
	c-7.5-13.8-20-19.6-34.6-22c-1.2-0.2-2.6,0-3.7,0.5c-6,2.9-12.7,5-16.8,10.7c-3.9,5.4-7.8,11-10.6,17c-3.1,6.5-4.6,14.1-1.2,20.6
	C33.7,531.8,44.5,539.9,62.1,539.9z"/>
<path fill-rule="evenodd" clip-rule="evenodd" fill="#FFFFFF" d="M367.5,630.5c1.3,9.1-0.4,17.6-4.5,25.7c-2.3,4.6-4.7,8.7-10.6,9.5
	c-2.3,0.3-4.6,1.9-6.7,3.4c-7.8,5.5-16.8,7.7-25.9,8.9c-11.1,1.5-19.7-3-25.3-12.8c-0.8-1.5-1.5-3.1-2.6-4.3
	c-5.2-5.9-5.6-12.6-4.6-20.1c0.9-7,4.3-12.7,8.6-17.6c5.5-6.4,12-11.7,21-12.6c7.5-0.7,14.9-2.4,22.4-2.8c3.1-0.2,6.6,1.4,9.4,3
	C356.9,615.6,363.2,622.3,367.5,630.5z"/>
<path fill-rule="evenodd" clip-rule="evenodd" fill="#FFFFFF" d="M414.2,585.3c-2.5,7.5-7.6,11.9-14.6,14.5
	c-7,2.6-13.8,3.2-21.2-1.6c-1.3-3.5-3.1-7.7-4.3-12c-2.5-8.5,0.4-13.9,8.4-16.6c5.8-2,11.5-1.8,16.9,1.1
	C405.7,574.1,411.1,578.6,414.2,585.3z"/>
<path fill-rule="evenodd" clip-rule="evenodd" fill="#FFFFFF" d="M180,636.5c-1.4-4.2-3-8.5-4.2-12.8c-2.6-9.7,2.6-18.1,12.3-21.4
	c8.7-2.9,16.6-0.4,24.2,2.9c8.3,3.6,9.3,17.8,2.2,23.5C206,635.7,192.9,638.7,180,636.5z"/>
<path fill-rule="evenodd" clip-rule="evenodd" fill="#FFFFFF" d="M708.6,534.4c15,3.3,21,8.1,26.2,20.6c-2.8,5-8.3,5.5-12.9,6.4
	c-5.7,1.1-11.7,0.6-17.5,0.6c-2.8,0-5.4-1.9-5.1-4.5C700.1,548.9,698.9,539.3,708.6,534.4z"/>
<path fill-rule="evenodd" clip-rule="evenodd" fill="#FFFFFF" d="M106.7,621.9c-1.6-0.5-5.4-1.2-8.7-2.8
	c-8.2-3.9-11.2-12.6-4.4-20.8c11.3-13.5,20.6-13,36-6.6c4.6,1.9,8.2,6.2,7.8,12c-0.4,5.4-3.1,9.3-8.2,11.8
	C122.6,618.5,116.2,621.7,106.7,621.9z"/>
<path fill-rule="evenodd" clip-rule="evenodd" fill="#FFFFFF" d="M174.9,566.8c0-2.1,0.4-4.5-0.1-6.8c-0.4-2-2.1-3.6-2.8-5.6
	c-1.7-4.6-1.5-8.1,2.7-12.2c3.9-3.9,7.1-7.8,12.8-9.2c4-0.9,7.6-0.5,10.5,2.1c4.5,4,7.9,8.5,7.8,15.1c-0.1,8.3-1.5,11.1-9.6,14.1
	C189.6,566.9,183.1,570.8,174.9,566.8z"/>
<path fill-rule="evenodd" clip-rule="evenodd" fill="#FFFFFF" d="M39.3,627.5c-1.7-0.7-4.9-1.5-7.7-3.2c-6.7-3.9-6.2-8.9-1.2-14.4
	c3.1-3.3,6.9-6,10.6-8.7c7.7-5.8,16.1-4.9,22.4,2c3.2,3.5,4,7.5,1.7,11.5c-1.6,2.8-3.9,5.4-6.5,7.4C53.4,626.1,47.2,627,39.3,627.5z
	"/>
<path fill-rule="evenodd" clip-rule="evenodd" fill="#FFFFFF" d="M247.8,584.3c-1.7-7.4-3.1-13.4-4.5-19.9c7.6-5,14.7-9.9,24.3-8
	c5.4,1.1,9,4.4,11.4,9.1c2.4,4.7,0.6,11-4.3,14.6C266.5,586.1,257.6,589.1,247.8,584.3z"/>
<path fill-rule="evenodd" clip-rule="evenodd" fill="#FFFFFF" d="M702,589c9.1,1.8,13.5,9.3,20.1,14.9c-4.1,8.7-10.2,14-19.6,15.7
	c-6.9,1.2-12.2-0.3-16.1-6.9C691.5,605,696.6,597.2,702,589z"/>
<path fill-rule="evenodd" clip-rule="evenodd" fill="#FFFFFF" d="M344.9,539.1c-3.4,7.5-10.6,8.3-15.3,11.5
	c-6.1-2.2-7.1-7.2-9.2-11.1c-2.3-4.3,2.2-11.5,7-12.7c3.9-1,7.4,0.1,10.9,1.7C342.5,530.6,344.1,534.2,344.9,539.1z"/>
<path fill-rule="evenodd" clip-rule="evenodd" fill="#FFFFFF" d="M439.4,636.7c0.4,3.3-0.8,6-3.6,7.4c-4.5,2.2-9.2,4.2-14,5.7
	c-2.3,0.7-5,0.4-7.4-0.1c-6.3-1.3-8.7-9-4.2-13.8c4.7-5,10.8-8.1,17.1-10.3C432.9,623.7,439.1,629.9,439.4,636.7z"/>
<path fill-rule="evenodd" clip-rule="evenodd" fill="#FFFFFF" d="M219.3,669.2c3.4-2.6,6.4-5.5,10-7.4c4.6-2.5,9.8-2.4,14.5,0.2
	c4.2,2.3,4.9,6.5,4.8,10.9c-0.1,2.8-1.3,4.7-3.9,5.8c-6.6,2.7-15.7,4-21.4-4.5C222.1,672.5,220.7,670.9,219.3,669.2z"/>
<path fill-rule="evenodd" clip-rule="evenodd" fill="#FFFFFF" d="M425.8,549c1.1-2.3,1.9-3.7,2.6-5.2c4.5-9.4,11-12.1,20.1-8.3
	c4.8,2,6.6,6.3,4.5,11.3c-3.6,8.4-15.8,11.9-23.4,6.5C428.3,552.4,427.4,550.9,425.8,549z"/>
<path fill-rule="evenodd" clip-rule="evenodd" fill="#FFFFFF" d="M63.5,656.7c-3.4-4.3-2-8.7,0-14.2c4.5-2.1,9.6-4.9,15-7
	c6.6-2.5,11.2-0.8,15.3,4.9c2.5,3.5,2.3,7.2-0.8,10.1C84.4,658.5,74.8,662,63.5,656.7z"/>
<path fill-rule="evenodd" clip-rule="evenodd" fill="#FFFFFF" d="M990.8,533.4c0.3,5.8-7.8,13-13.6,11.6c-2.7-0.6-5.4-2.3-7.6-4
	c-2.7-2.1-3.1-6.7-1-9.1c4-4.6,8.8-7.6,15.4-6.4C987.8,526.2,990.6,529.3,990.8,533.4z"/>
<path fill-rule="evenodd" clip-rule="evenodd" fill="#FFFFFF" d="M135.1,643.2c6.2,2.5,13.3,4.3,14.6,13c-3.6,6.6-10.5,4.2-15.8,5.7
	c-5.2,1.5-10.3-1.8-15-4.5C123.5,649,123.5,649,135.1,643.2z"/>
<path fill-rule="evenodd" clip-rule="evenodd" fill="#FFFFFF" d="M934.1,513.8c4,3.8,8.6,7,6.3,12.9c-1.6,4.1-11.2,7.4-16.6,6.2
	c-2-0.4-3.8-1.5-6.3-2.6C921.3,522.3,924.2,514.5,934.1,513.8z"/>
<path fill-rule="evenodd" clip-rule="evenodd" fill="#FFFFFF" d="M656.5,486.5c1-4.6,4.4-6.5,7.6-8.3c1.6-0.9,4.1-0.9,5.9-0.4
	c4.8,1.3,9,6.1,8.8,9.5c-0.2,2.8-4.2,5.2-9.8,6.3C662.4,494.9,659,491.4,656.5,486.5z"/>
<path fill-rule="evenodd" clip-rule="evenodd" fill="#FFFFFF" d="M806.9,584.2c4.9-0.6,9.8-0.5,14.4,2.1c3.7,2.1,4.1,5.3,1.1,8
	c-5.1,4.7-10.9,7.8-18.1,7.7c-5.6-0.1-8.1-4.5-5.2-9.6c0.4-0.7,0.6-1.6,1.2-2.2C802.4,588.3,804.6,586.4,806.9,584.2z"/>
<path fill-rule="evenodd" clip-rule="evenodd" fill="#FFFFFF" d="M228.8,520.9c0.3-2.5-0.2-5.3,0.9-7.3c2-3.6,4.8-6.7,7.3-10
	c7.5,2.5,12.3,6.8,15.6,13.6C245,522.4,238,526.3,228.8,520.9z"/>
<path fill-rule="evenodd" clip-rule="evenodd" fill="#FFFFFF" d="M180.9,683.5c-3.5-4.4-7.7-6.9-8.1-12.8c1.5-0.6,3.3-1.9,5.1-2.1
	c6.4-0.5,12.4,0.7,17.5,5.8C192.4,680.2,187.2,682.1,180.9,683.5z"/>
<path fill-rule="evenodd" clip-rule="evenodd" d="M231.7,407.2c-3.1-0.2-4.8,0-6.4-0.4c-10.2-2.3-20.5-4.5-30.6-7.2
	c-14.5-3.8-24-13.1-28.6-27.4c-0.5-1.6-0.8-3.5-1.9-4.7c-6.4-6.8-6-14.2-2.7-22.1c1-2.3,1.1-4.9,1.9-7.2c2.1-6.4,4.5-12.3,10.5-16.6
	c5.1-3.6,9.8-8,14-12.7c3.3-3.6,7.3-6,11.5-7.4c12.8-4.1,25.6-7.7,39.5-4.9c11.1,2.2,22.4,3.3,32.6,8.8c3.5,1.9,6.4,4,8.4,7.4
	c3.5,6.2,7.1,12.3,10.2,18.7c8.7,18.1,4.7,45.2-8.5,58.8c-2.3,2.3-4.9,4.6-7.8,6C260.2,403.4,245.3,405.5,231.7,407.2z M207,348.2
	c-0.3,14,8.9,20.3,17.9,26.7c1.6,1.1,4.2,1.5,6,1.1c4.9-1,9.9-2.1,14.4-4.3c7-3.4,9.5-8.2,7.6-15.4c-1.7-6.5-5.2-12.7-10.6-16.7
	c-8.8-6.5-20.9-5.5-29.2,1.9C211,343.4,209.2,345.8,207,348.2z M228.6,308.6c-4.3,0.9-8,1.4-11.6,2.5c-14.3,4.5-27.1,11.4-36.7,23.3
	c-5.6,7-9,14.7-5,24.5c7.7-3,16,0.6,22.6-3.3c0.9-4,1-7.7,2.6-10.4c2.1-3.4,0.7-6.3,0.9-9.5c0.1-1.3,1.7-2.9,3-3.8
	c3.4-2.4,6.8-5.2,10.6-6.7c4.1-1.6,8.8-1.8,13.5-2.6C228.6,317.9,228.6,313.4,228.6,308.6z M229.5,393c3.8,3.4,7.2,3.5,10.5,2.8
	c11.9-2.8,23.2-7.1,32.9-14.7c2.9-2.3,5.4-5.3,7.7-8.2c1.1-1.4,2.8-3.3,0-5.9c-1.6,0.4-3.5,1.4-5.4,1.4c-9.4-0.2-16.5,4.2-23.3,10
	c-5.5,4.6-12.3,7-19.6,7.6c-0.7,0.1-1.4,0.6-2.5,1.2C229.7,388.9,229.6,390.9,229.5,393z"/>
<path fill-rule="evenodd" clip-rule="evenodd" d="M387,286.7c3.8-6.5,8.8-9,16-8.9c15.2,0.1,30-3.4,44.9-6.1
	c3.7-0.7,7.5-1.4,11.2-1.1c2.8,0.2,6.1,1.2,8,3.1c9.5,9.5,18.6,19.4,27.8,29.2c0.5,0.5,0.5,1.6,0.8,2.5c-1.7,4.8-4.9,7-10.2,7.4
	c-11.3,0.9-22.5,2.5-33.8,3.6c-7.9,0.8-15.9,1.7-23.8,2.1c-6.7,0.3-13.4,0.3-20,1.8c-8.8,2-14.1-0.5-17.1-6.8c-0.9-1.8-1.3-4-1.5-6
	C388.4,300.7,387.7,294.1,387,286.7z M397.1,291c2,3.3,4.1,6,5.4,9c1.5,3.3,2.3,6.8,3.4,10.4c2.6,0.1,4.7,0.5,6.8,0.3
	c18.7-1.5,37.4-3,55.9-5.7c3.3-0.5,6.4-0.8,8.7-4c-5.5-6.2-10.8-12.1-16.3-18.1c-0.6-0.2-1.4-0.4-2.2-0.7c-7.3-2.1-14.1,1.3-21.1,2
	c-11.7,1.1-23.3,2.3-35,3.8C401,288.2,399.4,289.8,397.1,291z"/>
<path fill-rule="evenodd" clip-rule="evenodd" d="M426,363.6c2,7.8-1.7,15.8,0.7,23.3c-5.7,2.5-8,1.8-7.5-1.8
	c1-7.2,2.6-14.3,3.9-21.4C424.1,363.6,425,363.6,426,363.6z"/>
<path fill-rule="evenodd" clip-rule="evenodd" d="M447.5,332.1c-0.9,12.8,1.5,22.9-1.8,32.8c-0.1,0.3-1.4,0.2-2.7,0.4
	c-0.8-5.4,1.5-10.4,1.9-15.6C445.1,344.8,440.8,339.7,447.5,332.1z"/>
<path fill-rule="evenodd" clip-rule="evenodd" d="M98.7,346.1c0.5,0.9,1.3,1.7,1.1,1.9c-0.6,0.7-1.5,1.2-2.3,1.8
	c0,0-0.7-0.7-0.7-0.8C97.4,348,98,347.1,98.7,346.1z"/>
<path fill-rule="evenodd" clip-rule="evenodd" d="M134.8,339.5c0.7-0.3,1.4-0.7,2.2-0.9c0.2,0,0.5,0.6,0.8,0.9
	c-0.7,0.3-1.4,0.7-2.1,0.9C135.5,340.4,135.1,339.8,134.8,339.5z"/>
<path fill-rule="evenodd" clip-rule="evenodd" d="M717.5,261.2c8.1-1.3,16.3-2.6,24.6-4c0.8,3.6-2,3.8-3.4,4.3
	c-4.6,1.8-9.6,3-14.2,4.8c-6.7,2.7-13,3.1-18.7-2.1c-0.9-0.8-2.1-1.2-2.8-1.6c-5.9,2.9-11.3,6-17.1,8.2c-5.6,2.2-11.5,3.7-19.9,6.3
	c2.6-3.2,3.2-4.6,4.4-5.3c4.6-2.9,9.6-4.9,13.1-9.5c1.6-2.1,4.8-3.1,7.5-4.3c4.4-1.9,6.6-5.1,6.9-9.7c0.3-4.6,0.6-9.2,0.5-13.8
	c-0.1-4.6-0.8-9.1-1.1-13c-2.9-2.5-5.3-4.5-7.8-6.6c0.8-1.8,1.2-3,1.7-4c3.6-6.8,10.1-6.1,15.8-6.5c3.4,3.4,2.3,6.8,1.3,10
	c-3.2,11-2.8,22.1-1.9,33.4c0.5,5.9,2.6,9.5,7.7,11.7C715.2,260.1,716.3,260.7,717.5,261.2z"/>
<path fill-rule="evenodd" clip-rule="evenodd" d="M733.4,192.1c1.4,1.1,4.1,2.6,5.7,4.7c1.7,2.2,0.8,5.2-1.4,6.7
	c-2.7,1.8-5.8,3.4-8.9,4c-1.3,0.3-3.9-1.7-4.6-3.2C722.2,200.1,727.5,192.4,733.4,192.1z"/>
<path fill-rule="evenodd" clip-rule="evenodd" d="M680.2,196.4c-1.3,2.5-1.9,4.5-3.1,6.1c-3.5,4.8-8.3,5.2-12.6,0.8
	c-1.2-1.2-1.8-3.9-1.3-5.5c0.5-1.6,2.5-3.7,4.1-4C671.4,193.1,675.5,193.1,680.2,196.4z"/>
<path fill-rule="evenodd" clip-rule="evenodd" d="M362,372c-5.3,3.2-9.2,5.6-13.2,7.8c-9,4.9-18.3-0.7-18.2-10.8
	c0-0.8,0.4-1.6,0.4-2.5c0.9-17.3,9.5-20.5,24.4-15.8c4.9,1.5,7.7,4.8,7.4,10.2C362.5,364.5,362.2,368.2,362,372z M336.7,366.2
	c4.2,7.2,6,8.2,10.7,5.3c2.4-1.4,4.3-3.7,6-5.9c1.4-1.8-0.1-5.3-2.2-6.3c-3.6-1.8-7.1-1.2-10.1,1.7
	C339.7,362.5,338.5,364.1,336.7,366.2z"/>
<path fill-rule="evenodd" clip-rule="evenodd" d="M62.1,539.9c-17.7,0-28.4-8.1-35.3-21c-3.4-6.5-1.8-14.1,1.2-20.6
	c2.8-6,6.7-11.6,10.6-17c4.1-5.7,10.8-7.8,16.8-10.7c1.1-0.5,2.5-0.7,3.7-0.5c14.7,2.4,27.1,8.2,34.6,22c3.6,6.5,2.9,12.9,0.3,19.3
	c-4.1,10.3-10.9,18.9-20.1,24.9C70.1,538.9,64.7,539.2,62.1,539.9z M83.3,493.2c-5.4,1.9-11.4-0.8-15.4,3.4
	c-1.6,7.2-3.1,14-4.6,20.9c2,3.7,4.5,6.7,8.5,8.1c8.3-4.5,12.6-11.4,14.9-19.8C88,501.4,86.9,497.5,83.3,493.2z"/>
<path fill-rule="evenodd" clip-rule="evenodd" fill="#FFFFFF" d="M207,348.2c2.2-2.4,4-4.9,6.1-6.8c8.2-7.3,20.4-8.4,29.2-1.9
	c5.5,4,9,10.2,10.6,16.7c1.9,7.2-0.6,12.1-7.6,15.4c-4.5,2.1-9.5,3.2-14.4,4.3c-1.9,0.4-4.5,0-6-1.1
	C215.9,368.6,206.8,362.2,207,348.2z"/>
<path fill-rule="evenodd" clip-rule="evenodd" fill="#FFFFFF" d="M228.6,308.6c0,4.9,0,9.3,0,14c-4.7,0.9-9.4,1.1-13.5,2.6
	c-3.8,1.5-7.2,4.3-10.6,6.7c-1.3,0.9-3,2.5-3,3.8c-0.1,3.2,1.3,6.2-0.9,9.5c-1.7,2.7-1.7,6.4-2.6,10.4c-6.5,3.9-14.8,0.3-22.6,3.3
	c-4-9.8-0.6-17.5,5-24.5c9.5-11.9,22.4-18.8,36.7-23.3C220.5,310,224.3,309.5,228.6,308.6z"/>
<path fill-rule="evenodd" clip-rule="evenodd" fill="#FFFFFF" d="M229.5,393c0.1-2.1,0.2-4.1,0.3-6c1.1-0.6,1.8-1.1,2.5-1.2
	c7.3-0.6,14.1-3,19.6-7.6c6.9-5.8,14-10.2,23.3-10c1.9,0,3.9-1,5.4-1.4c2.8,2.6,1.1,4.5,0,5.9c-2.3,2.9-4.8,5.9-7.7,8.2
	c-9.7,7.6-21,11.9-32.9,14.7C236.7,396.6,233.3,396.4,229.5,393z"/>
<path fill-rule="evenodd" clip-rule="evenodd" fill="#FFFFFF" d="M397.1,291c2.3-1.2,3.9-2.8,5.7-3c11.6-1.4,23.3-2.6,35-3.8
	c7-0.7,13.8-4.1,21.1-2c0.8,0.2,1.6,0.5,2.2,0.7c5.4,6.1,10.7,12,16.3,18.1c-2.3,3.2-5.5,3.5-8.7,4c-18.6,2.7-37.2,4.2-55.9,5.7
	c-2.1,0.2-4.2-0.2-6.8-0.3c-1.1-3.6-1.9-7.1-3.4-10.4C401.2,297.1,399.2,294.4,397.1,291z"/>
<path fill-rule="evenodd" clip-rule="evenodd" fill="#FFFFFF" d="M336.7,366.2c1.8-2.1,3-3.8,4.5-5.2c3.1-3,6.5-3.5,10.1-1.7
	c2.1,1,3.5,4.6,2.2,6.3c-1.7,2.2-3.7,4.5-6,5.9C342.8,374.4,340.9,373.4,336.7,366.2z"/>
</svg>
