<?xml version="1.0" encoding="utf-8"?>
<!DOCTYPE svg PUBLIC "-//W3C//DTD SVG 1.1//EN" "http://www.w3.org/Graphics/SVG/1.1/DTD/svg11.dtd">
<svg artist="zl2017" version="1.1" id="zlIcons-shipping-sheep-truck" xmlns="http://www.w3.org/2000/svg" xmlns:xlink="http://www.w3.org/1999/xlink" x="0px" y="0px"
	 width="1000px" height="730px" viewBox="0 0 1000 730" enable-background="new 0 0 1000 730" xml:space="preserve">
<path fill-rule="evenodd" clip-rule="evenodd" d="M698.8,612.9c-30.2-2.4-58.6-4.6-89.1-7c-5.1,11.2-9.2,22-14.7,32
	c-8.1,14.7-14.9,31-26.2,42.8c-35.6,36.8-82.3,41.7-118-2.2c-15.5-19.1-24.1-43.8-38.2-70.3c-6.1-0.6-17.3-1.6-28-2.6
	c-3.3,3.6-6.7,5.7-7.4,8.5c-5.1,21.7-14.4,41.1-28,58.8c-19.3,25-45.2,34.7-75.4,32.3c-44.7-3.5-79.5-17.2-94.9-75.2
	c-2.2-8.1-4.4-16.2-6.9-25.2c-41.3-20.4-96.8-9.8-122.2-57.9c-16.7,2.5-29.7,4.4-42.2,6.2c-13-32.6-10.7-37.4,24.4-52.9
	c3.1-47.9,5.4-96.6,9.6-145.2c7.6-89.7,29.3-176,67.2-257.8c17.7-38.2,45.2-65,87.2-77.9C253.3,1.5,309-6.1,369.7,6.4
	c65.6,13.5,132.6,22.8,200.4,24.8c50.3,1.5,100.2,12.1,145.7,37.4c25.4,14.1,50.2,28.4,61.7,56.9c5.8,14.4,18.8,19.5,31.2,23.4
	c27.3,8.4,55.3,14.7,83,21.6c11.4,2.9,23.1,4.8,34.5,7.7c29.6,7.7,54.4,19.9,50,57.4c18,70.8,17.6,143.3,21.9,215.5
	c2.1,35.5,1.9,70.2-2,105.4c-6,53.5-24.6,73.3-79,80.8c-8.2,1.1-16.4,1.7-25.6,2.6c-5.2,15.2-7.5,30.8-15.5,42.7
	c-8.2,12.2-20.9,22.1-33.2,30.7c-46.4,32.3-103.8,15.6-125.9-37C709.2,657.9,705.8,637.8,698.8,612.9z M354.3,583.4
	c0,0.7,0,1.4,0,2.2c16.8,0,33.7,0.5,50.5-0.1c80.8-3,161.7-6.1,242.5-9.6c56.1-2.4,65.4-9.9,83-63c0.5-1.6,0.6-3.3,1.2-4.9
	c18.9-49.6,22.8-102,26.6-153.9c4-55.2,12.5-110.4,7.2-166.2c-5.1-54.6-31.5-90.4-83.7-108.6c-48.2-16.8-97.5-26.8-148.4-27.5
	C476,50.9,418.8,50,361.8,40.6c-55.1-9-110.2-9.2-164.8,8.4c-30.9,10-53,26.1-67.6,55.7c-16.4,33.4-29.5,67.6-40.1,103.3
	c-27.2,91.7-31.1,186-30.2,280.4c0.4,38.5,19.4,66.9,59.3,78.6c30.9,9.1,61.7,16.7,94.2,16.4C259.9,583,307.1,583.4,354.3,583.4z
	 M969.4,456.3c-0.9-46.5,0.7-88.6-3.3-130.1c-3.2-33.2-12.9-65.7-20.1-98.5c-2.7-12.3-9.7-21.4-22.6-24.6
	c-34.3-8.3-68.6-17-103.1-24.4c-8.8-1.9-18.5,0.4-29,0.9c0,22.1,1.5,40.6-0.3,58.8c-7.6,78.5-11.4,157.4-21.7,235.7
	c-3,22.7-6.4,45.9-0.4,70c28.7,2.7,58-4.6,79.6,15.1c19.5,17.7,36.2,38.5,54.6,58.4c44.6-3.4,48.9-6.4,61.1-45.4
	c-7.8-1.8-15.7-2.6-22.9-5.4c-22.5-8.7-34.5-26.2-37.2-49.6c-2.5-21.9,12.4-34,28.5-43.8C943.9,466.6,956.7,462.1,969.4,456.3z
	 M796.5,685.8c26.1,2.2,49.4-16.8,52.9-43.2c3.9-28.8-19-57-48.6-59.9c-25.2-2.4-50.9,18.6-53.2,43.5
	C744.8,656.3,767,683.4,796.5,685.8z M274.8,628.1c-10.2-8.4-18.3-16.2-27.5-22.4c-5.7-3.9-19,3.5-20,9.9
	c-4.9,30.7,25.5,59.5,52.4,47.8c22.9-10,43.5-24.5,45.8-53.1C301.5,591.2,293.7,617,274.8,628.1z M553.3,599.4
	c-9.9,11-12.2,13.2-14,15.6c-19.6,25.9-21.3,26-42.1,1.4c-1-1.2-1.5-3.5-2.7-4c-4.3-1.6-10.4-5-13-3.4c-4.9,3.2-10.1,8.9-11.2,14.4
	c-2.6,13,6.7,21.4,15.2,29.5c16.2,15.3,31.6,19.6,44,8.9c9.7-8.3,17.3-19.8,23.3-31.2C555.8,625,553.3,616.3,553.3,599.4z
	 M967.5,485.7c-27,5.9-30.6,8-35.1,17.8c-4.8,10.5-2.2,20.6,4.9,27.7c5.2,5.2,14.3,8.8,21.6,8.7c4.6-0.1,10.8-7.5,13.2-13
	C977.6,514,976.7,500.8,967.5,485.7z"/>
<path fill-rule="evenodd" clip-rule="evenodd" fill="#FFFFFF" d="M354.3,583.4c-47.2,0-94.4-0.4-141.7,0.1
	c-32.5,0.3-63.3-7.3-94.2-16.4c-39.9-11.7-58.9-40.1-59.3-78.6c-0.9-94.5,3-188.7,30.2-280.4c10.6-35.7,23.7-69.9,40.1-103.3
	C144,75.2,166.1,59,197,49c54.6-17.7,109.8-17.5,164.8-8.4c57,9.3,114.1,10.3,171.5,11.1c50.9,0.7,100.2,10.7,148.4,27.5
	c52.2,18.2,78.6,54,83.7,108.6c5.2,55.9-3.2,111-7.2,166.2c-3.8,51.9-7.7,104.3-26.6,153.9c-0.6,1.6-0.7,3.3-1.2,4.9
	c-17.6,53.1-26.9,60.6-83,63c-80.8,3.5-161.7,6.6-242.5,9.6c-16.8,0.6-33.7,0.1-50.5,0.1C354.3,584.8,354.3,584.1,354.3,583.4z
	 M359.5,499.4c8.9-15,15.4-25.9,21.6-36.2c16.6,5.6,17.3,27.9,40.2,26.8c-2.1-39.9,26-60.7,56.8-66.6c28-5.3,48.9-20.2,73.1-30.6
	c28.9-12.4,45.7-32.5,51.4-63.3c1.3-7,7.9-12.9,13.7-21.8c13.8,12,24.3,22.2,36,30.9c8,6,23.7-2.5,22.8-11.7
	c-1.6-16.9-6-33-17.9-46.1c-8.3-9.1-20.4-11.3-32-4.5c-8.5,5-16,11.7-23.4,17.2c-15.6-7.2-29.4-11.8-26.9-32.2
	c2.7-22.2-9.3-39.1-27-50.6c-12-7.8-19.5-16.7-24-30.5c-11.4-34.8-38.2-54.8-71.7-65.3c-10.2-3.2-24.8-3.5-33.6,1.6
	c-21.2,12.2-42,17.3-66.6,16.4c-26.5-1-43.2,15.3-49.5,41.1c-2.8,11.3-4.7,22.7-6.8,32.7c-6.2,4.1-10.4,6.7-14.6,9.5
	c-38.6,26.1-51.6,72.9-27.9,113.7c8.2,14.1,12.4,26.5,11.6,42c-0.4,8.3-1.3,18.3,2.6,24.7c15.5,25.4,15.5,54.1,18.8,82
	C332.3,472.8,332.3,472.8,359.5,499.4z"/>
<path fill-rule="evenodd" clip-rule="evenodd" fill="#FFFFFF" d="M969.4,456.3c-12.8,5.9-25.5,10.3-36.8,17.2
	c-16.1,9.8-31,21.9-28.5,43.8c2.7,23.5,14.7,40.9,37.2,49.6c7.2,2.8,15.1,3.6,22.9,5.4c-12.1,39-16.4,42-61.1,45.4
	c-18.4-20-35.1-40.7-54.6-58.4c-21.7-19.7-51-12.4-79.6-15.1c-6-24.1-2.6-47.3,0.4-70c10.3-78.3,14.1-157.2,21.7-235.7
	c1.8-18.2,0.3-36.7,0.3-58.8c10.5-0.4,20.2-2.8,29-0.9c34.5,7.4,68.7,16.1,103.1,24.4c12.9,3.1,19.9,12.3,22.6,24.6
	c7.2,32.7,16.9,65.3,20.1,98.5C970.1,367.7,968.5,409.7,969.4,456.3z M820.8,224.4c-21.6,40.4-19.4,85.4-30.8,127
	c-4.2,15.2,7,29.5,23.9,33.3c22.7,5.1,46,9,69.3,9.8c33.2,1.2,42-8.1,42.2-40.7c0.1-26.8-1-53.5-2.4-80.3
	c-0.4-8.2-3.2-16.3-5.7-24.3c-8.3-26.8-24.6-37.3-52.5-33.1C850,218.4,835.5,221.6,820.8,224.4z"/>
<path fill-rule="evenodd" clip-rule="evenodd" fill="#FFFFFF" d="M796.5,685.8c-29.5-2.5-51.7-29.5-48.9-59.6
	c2.3-24.9,28-45.9,53.2-43.5c29.6,2.9,52.5,31.1,48.6,59.9C845.9,669.1,822.6,688,796.5,685.8z M796.5,623.6
	c-3.3,4.1-8.4,7.6-8.3,10.8c0.2,3.3,5.5,6.3,8.6,9.5c4.2-4.3,8.4-8.5,12.6-12.8C805.4,628.8,801.5,626.5,796.5,623.6z"/>
<path fill-rule="evenodd" clip-rule="evenodd" fill="#FFFFFF" d="M274.8,628.1c18.8-11.2,26.7-36.9,50.7-17.8
	c-2.3,28.6-22.9,43.1-45.8,53.1c-26.9,11.7-57.2-17.1-52.4-47.8c1-6.4,14.3-13.8,20-9.9C256.5,611.9,264.7,619.7,274.8,628.1z"/>
<path fill-rule="evenodd" clip-rule="evenodd" fill="#FFFFFF" d="M553.3,599.4c0,16.9,2.5,25.6-0.5,31.4
	c-6,11.4-13.6,22.9-23.3,31.2c-12.5,10.7-27.9,6.4-44-8.9c-8.5-8.1-17.8-16.5-15.2-29.5c1.1-5.5,6.3-11.3,11.2-14.4
	c2.6-1.7,8.7,1.8,13,3.4c1.2,0.5,1.6,2.7,2.7,4c20.8,24.6,22.5,24.6,42.1-1.4C541.1,612.5,543.4,610.4,553.3,599.4z"/>
<path fill-rule="evenodd" clip-rule="evenodd" fill="#FFFFFF" d="M967.5,485.7c9.1,15.1,10,28.3,4.5,41.1c-2.4,5.5-8.6,13-13.2,13
	c-7.3,0.1-16.3-3.5-21.6-8.7c-7.1-7.1-9.7-17.2-4.9-27.7C936.9,493.6,940.6,491.6,967.5,485.7z"/>
<path fill-rule="evenodd" clip-rule="evenodd" d="M359.5,499.4c-27.2-26.6-27.2-26.6-73.3-20.7c-3.3-27.9-3.3-56.6-18.8-82
	c-3.9-6.4-3.1-16.5-2.6-24.7c0.8-15.5-3.4-27.9-11.6-42c-23.7-40.8-10.7-87.6,27.9-113.7c4.1-2.8,8.3-5.5,14.6-9.5
	c2-10,4-21.4,6.8-32.7c6.3-25.8,23-42.1,49.5-41.1c24.6,0.9,45.5-4.2,66.6-16.4c8.7-5,23.3-4.8,33.6-1.6
	c33.5,10.5,60.2,30.6,71.7,65.3c4.5,13.8,12.1,22.7,24,30.5c17.7,11.5,29.7,28.4,27,50.6c-2.5,20.5,11.3,25.1,26.9,32.2
	c7.4-5.5,14.9-12.2,23.4-17.2c11.5-6.8,23.6-4.6,32,4.5c11.9,13,16.3,29.1,17.9,46.1c0.9,9.2-14.7,17.7-22.8,11.7
	c-11.7-8.7-22.2-18.9-36-30.9c-5.8,8.9-12.4,14.9-13.7,21.8c-5.7,30.8-22.5,50.9-51.4,63.3c-24.2,10.4-45,25.3-73.1,30.6
	c-30.8,5.8-58.9,26.6-56.8,66.6c-22.9,1-23.6-21.3-40.2-26.8C374.9,473.5,368.4,484.4,359.5,499.4z M324.4,218.4
	c-38.7,6.6-62.4,25.6-65.2,65.8c-1.8,25.8,5.1,45,30.4,55c-3.7,11.1-8.2,20.4-9.9,30.1c-4,23.1,10.9,47.6,35.2,61.6
	c20.7,11.9,34.5,1,47.2-15.2c17.1,15,36,22.3,56.9,18.3c10.2-1.9,19.4-8.8,32.2-14.9c-14.7-13.2-26.8-22.4-36.8-33.4
	c-25.6-28.1-41-65.9-11.1-98.9c5.4-5.9,9.5-12.9,14.1-19.3c-2.6-2.3-3.7-3.7-5.2-4.4c-13-5.8-34-5.2-31.2-25.7
	c2-14.6,19.6-16.6,32.4-20.3c19.1-5.6,25.5-3.3,36.5,15.7c6.8,11.8,13,23.4,29.4,29.8c23-6.1,49.8,4.8,74.9-3.7
	c6.2-44.4-38.5-29.7-52.5-48.8c6.6-31.7,6.2-33-11.5-54.3c-14.8-17.8-34.1-26.5-56.7-28.3c-13.3-1-23,7.3-23,20.3
	c0,6,6.3,12-2.4,18.1c-3.8-1.6-8.7-2.6-12.5-5.3c-21.3-14.8-45.1-19.3-65.5-3.6C311.1,171.9,313.4,194.9,324.4,218.4z M406.1,331
	c1.5,3.2,3.3,9.8,7.1,15.1c16.5,23.2,53.9,23,74.4,0.1c22.8-25.6,16.4-49.7-16-61.1c-3.2-1.1-6.4-1.9-9.6-2.8
	C433.3,274.4,404.5,297.9,406.1,331z M504.3,360.6c4.8,6.5,7.4,10.8,10.8,14.2c2.2,2.2,5.7,4,8.7,4.3c25.1,2.3,54.5-20.9,57.3-44.8
	c2-16.7-6.1-32.3-19.1-36.8c-15.2-5.2-33.9,3-41,19.1C515.1,330.3,510.4,344.3,504.3,360.6z"/>
<path fill-rule="evenodd" clip-rule="evenodd" d="M820.8,224.4c14.7-2.8,29.2-6.1,43.9-8.2c27.9-4.1,44.2,6.3,52.5,33.1
	c2.4,7.9,5.2,16.1,5.7,24.3c1.4,26.7,2.5,53.5,2.4,80.3c-0.1,32.5-8.9,41.9-42.2,40.7c-23.2-0.8-46.5-4.7-69.3-9.8
	c-16.8-3.7-28-18.1-23.9-33.3C801.4,309.9,799.2,264.9,820.8,224.4z M903.7,315.1c-0.3,0-0.6,0-0.8,0c-0.6-13.4-1.2-26.7-2-40.1
	c-0.2-3.3-0.6-6.7-1.4-9.9c-4.5-18.8-21.7-26.2-38.7-16.2c-5.5,3.2-12.1,7.9-14,13.3c-8.9,25.1-16.9,50.6-24.2,76.2
	c-3,10.5,1.7,19.9,10.7,26.1c17.9,12.2,38.2,14.2,57.1,5.7c16.4-7.4,12.7-25.4,13.4-40.2C903.8,325.1,903.7,320.1,903.7,315.1z"/>
<path fill-rule="evenodd" clip-rule="evenodd" d="M796.5,623.6c5,2.9,9,5.2,12.9,7.5c-4.2,4.3-8.4,8.5-12.6,12.8
	c-3.1-3.1-8.4-6.2-8.6-9.5C788,631.2,793.1,627.6,796.5,623.6z"/>
<path fill-rule="evenodd" clip-rule="evenodd" fill="#FFFFFF" d="M324.4,218.4c-11-23.5-13.3-46.6,5.7-61.2
	c20.4-15.8,44.3-11.2,65.5,3.6c3.8,2.6,8.7,3.7,12.5,5.3c8.7-6.1,2.4-12.1,2.4-18.1c0-13,9.6-21.3,23-20.3
	c22.5,1.8,41.8,10.5,56.7,28.3c17.6,21.2,18.1,22.5,11.5,54.3c14,19.1,58.7,4.4,52.5,48.8c-25.1,8.5-51.9-2.3-74.9,3.7
	c-16.4-6.4-22.6-18-29.4-29.8c-10.9-19-17.3-21.2-36.5-15.7C400.6,221,383,223,381,237.6c-2.8,20.5,18.2,19.9,31.2,25.7
	c1.5,0.7,2.6,2.1,5.2,4.4c-4.6,6.4-8.8,13.4-14.1,19.3c-29.9,33-14.5,70.9,11.1,98.9c10,11,22.1,20.2,36.8,33.4
	c-12.8,6.1-22,13-32.2,14.9c-20.9,3.9-39.8-3.3-56.9-18.3c-12.7,16.2-26.5,27.1-47.2,15.2c-24.3-14-39.2-38.5-35.2-61.6
	c1.7-9.8,6.2-19.1,9.9-30.1c-25.3-9.9-32.2-29.2-30.4-55C262,244.1,285.7,225,324.4,218.4z"/>
<path fill-rule="evenodd" clip-rule="evenodd" fill="#FFFFFF" d="M406.1,331c-1.6-33.1,27.2-56.6,55.8-48.7c3.2,0.9,6.5,1.7,9.6,2.8
	c32.4,11.4,38.8,35.5,16,61.1c-20.4,22.9-57.9,23.1-74.4-0.1C409.4,340.8,407.5,334.2,406.1,331z M457,313.7
	c-5.6,5.8-11.8,10-11.2,12.2c1.5,5.2,6.3,9.4,9.7,14c3.5-3,10.1-6.2,9.9-9C465.1,325.7,460.8,320.8,457,313.7z"/>
<path fill-rule="evenodd" clip-rule="evenodd" fill="#FFFFFF" d="M504.3,360.6c6.1-16.3,10.8-30.3,16.7-43.9
	c7.1-16.1,25.8-24.3,41-19.1c13,4.4,21.1,20,19.1,36.8c-2.8,23.9-32.3,47-57.3,44.8c-3-0.3-6.5-2.1-8.7-4.3
	C511.7,371.4,509.1,367.1,504.3,360.6z M550.6,339.5c-3.6-3.3-7.1-8.5-9.4-8c-3.6,0.8-8,4.9-9.2,8.5c-2,6.1,6.3,14.6,10.6,11.7
	C545.9,349.4,547.5,344.5,550.6,339.5z"/>
<path fill-rule="evenodd" clip-rule="evenodd" fill="#FFFFFF" d="M903.7,315.1c0,5,0.2,10,0,15c-0.7,14.8,3,32.8-13.4,40.2
	c-18.9,8.5-39.2,6.5-57.1-5.7c-9-6.2-13.7-15.5-10.7-26.1c7.3-25.6,15.3-51.1,24.2-76.2c1.9-5.5,8.5-10.1,14-13.3
	c17-10.1,34.2-2.6,38.7,16.2c0.8,3.2,1.2,6.6,1.4,9.9c0.7,13.4,1.3,26.7,2,40.1C903.1,315.1,903.4,315.1,903.7,315.1z"/>
<path fill-rule="evenodd" clip-rule="evenodd" d="M457,313.7c3.8,7.1,8.1,12,8.4,17.2c0.2,2.7-6.4,6-9.9,9c-3.4-4.6-8.2-8.8-9.7-14
	C445.2,323.7,451.4,319.5,457,313.7z"/>
<path fill-rule="evenodd" clip-rule="evenodd" d="M550.6,339.5c-3.2,5-4.7,9.9-8,12.1c-4.3,2.9-12.6-5.6-10.6-11.7
	c1.2-3.6,5.6-7.7,9.2-8.5C543.5,331,547,336.3,550.6,339.5z"/>
</svg>
