<?xml version="1.0" encoding="utf-8"?>
<!DOCTYPE svg PUBLIC "-//W3C//DTD SVG 1.1//EN" "http://www.w3.org/Graphics/SVG/1.1/DTD/svg11.dtd">
<svg artist="zl2017" version="1.1" id="zlItem-smartphone-signal" xmlns="http://www.w3.org/2000/svg" xmlns:xlink="http://www.w3.org/1999/xlink" x="0px" y="0px"
	 width="1000px" height="2343.2px" viewBox="0 0 1000 2343.2" enable-background="new 0 0 1000 2343.2" xml:space="preserve">
<path fill-rule="evenodd" clip-rule="evenodd" d="M700.7,1083.2c10-71.8-0.2-128.9-11-186.1c-8.6-45.7-14-92.1-25.4-137.1
	c-10.3-40.6-26.9-79.7-44.3-129.5c10-14.8,21.5-39.9,40.1-57.5c17.1-16.1,44.2-21.6,62.8-1.2c11.7,12.8,25.6,38.5,20.2,49.4
	c-32.5,65.7-8.7,128.8,2.1,192.7c14.3,84.3,29,168.4,43.6,253c5.3,4.7,11.2,14.3,16.4,13.9c78.9-5.7,110.9,43.8,125.2,109.2
	c9.6,44,33.4,88.9,4.5,135.2c-3.5,5.7-4.2,16.6-1.1,22.3c33.4,61.2,40.1,124.6,20.4,191.4c-1.9,6.5,2.5,15,4.5,22.4
	c17.7,63,14.3,129.4,27,191.8c12.9,63.2,3.5,123.5,5.3,185c1.6,54.1,9.1,108.4,6.2,162.1c-5.4,100.4-59.9,168.9-156.8,192.9
	c-100.5,24.9-201.5,51.4-307,49.8c-100.7-1.6-171.9-63.5-247.3-116.9c-8.4-6-12-19.7-16.5-30.3c-52.5-124.7-106.3-248.1-136.8-381.6
	c-20.5-89.7-56.2-177.4-96.3-260.7c-33.7-70-44.3-136.6-30-212.3c8.3-43.8,27.7-72.1,66.7-86.8c57.9-21.9,116.8-41.3,175.6-61
	c10.8-3.6,23.5-6.5,34.3-4.4c85.8,17.1,159-23.4,235.7-49.2C577.3,1120.4,636.3,1103.2,700.7,1083.2z"/>
<path fill-rule="evenodd" clip-rule="evenodd" fill="#FFFFFF" d="M240.8,1334.5c-20.5,43.8-22.8,92.5-6.8,143.1
	c8.1,25.6,13.2,52.1,19.7,78.2c13.8,56.2,25.6,113,41.8,168.5c26.9,92.6,63,183,83.3,276.8c18.2,84.1,47.7,162.6,77.2,240.8
	c156.7,46.1,302.8,34.2,440.4-37.9c34.3-67.9,56.4-133.5,53.1-205.9c-3.9-85-5.5-170.1-9.8-255.1c-8.5-170.2-33.8-338.7-55-507.6
	c-5.8-46.3-27-79.6-63.3-93.4c-67.5,16.6-127.3,30-186.2,46.1C501,1224.9,361.5,1246.8,240.8,1334.5z"/>
<path fill-rule="evenodd" clip-rule="evenodd" d="M18.6,207.5c168-146.8,352.5-237.6,589-198.4C731.7,29.7,848,62.9,954.3,128.8
	c17.8,11,29.9,31.4,45.2,48c-38.3,26-63.9,1-87.6-15.8C782.6,69.4,632.1,53.7,481.7,43.7c-128.8-8.5-241.1,42.7-344,117.4
	c-33.6,24.4-70.3,44.4-105.6,66.4C27.6,220.9,23.1,214.2,18.6,207.5z"/>
<path fill-rule="evenodd" clip-rule="evenodd" d="M315.9,297.8c17.6-51.1,62.2-53.5,100.2-67.4c85.9-31.6,173.6-31.7,262.3-18.3
	c32.2,4.9,58.3,19.5,72.5,59.9c-23.3,0.4-47,7.4-64.5,0c-116.2-49.2-225.9-30.4-334.3,23.7C343,300.3,330.1,297.2,315.9,297.8z"/>
<path fill-rule="evenodd" clip-rule="evenodd" d="M513.3,413.1c9.5-18.7,11.9-32.2,19.8-37.7c44.8-31,94-29.1,143.5-13.3
	c4.6,1.5,9.1,12.9,8.3,19c-0.7,6-7.7,15.5-12.8,16.1C623.3,403.1,574.3,407.3,513.3,413.1z"/>
<path fill-rule="evenodd" clip-rule="evenodd" d="M609.3,2142.2c4.4-17.9,3.1-50.1,18.4-68.4c38.3-45.7,85.9-47.7,127.6-14.4
	c28.8,23.1,25.7,64.7-7.1,93.7C705.5,2190.9,656,2190.9,609.3,2142.2z"/>
</svg>
