<?xml version="1.0" encoding="utf-8"?>
<!DOCTYPE svg PUBLIC "-//W3C//DTD SVG 1.1//EN" "http://www.w3.org/Graphics/SVG/1.1/DTD/svg11.dtd">
<svg artist="zl2017" version="1.1" id="zlIcon-smile-sad-gril" xmlns="http://www.w3.org/2000/svg" xmlns:xlink="http://www.w3.org/1999/xlink" x="0px" y="0px"
	 width="1000px" height="550.1px" viewBox="0 0 1000 550.1" enable-background="new 0 0 1000 550.1" xml:space="preserve">
<path fill-rule="evenodd" clip-rule="evenodd" d="M275.1,144.3c-22-7.4-40.2-9.5-61-1c-21.3,8.7-36.9,20.5-46.5,41.4
	c-13,28.3-35.5,49.1-57.3,70.3c-14.8,14.4-31.5,16.1-49,6.8c-34.6-18.4-57.9-48.1-60.6-86.1c-2-28.8,12.1-57.6,34.8-77.7
	c21.7-19.3,46.1-35.5,69.6-52.6c6.1-4.4,13.4-7.2,20.1-10.8c44.5-24.5,89.8-13.1,122,16.4c21.2,19.4,46.2,34.7,69.9,52.2
	c5.8-3.4,10.5-5.4,14.3-8.5c42.7-34.6,93-49.5,146.4-55c21.4-2.2,43.1-1,64.7-1.7c32.2-1,59.5,11,83.7,31.2
	c10.7,9,20.8,18.6,31.6,27.5c6.8,5.5,14,10.8,21.7,15c17.9,9.6,23.2,8.7,36.4-5.5c21.7-23.2,41.8-48,54.7-77.1
	c10.7-24,28.8-30,52.1-28.9c35.8,1.8,70.5,6.8,98.7,32c32,9.2,52.7,33.1,75.7,60.3c0.7,12.6,2.6,28.9,2.5,45.2
	c-0.2,23.8-11.2,41.1-34.1,49.9c-3.5,1.4-7,3-9.8,4.1c-43.7-9.8-84.9-26.7-129.6-28.8c-8.6-0.4-16.9-4.8-25.5-6.9
	c-15.2-3.7-30-3.2-44.6,3.4c-24.2,10.8-30.6,21-29.4,47c1.2,25.3,3,50.6,2.7,75.8c-0.4,33.3-8.9,65-23.3,95.3
	c-8.1,17.1-13.7,35.3-20.3,53c-2.2,5.9-2.5,13.9-6.6,17.6c-24.1,21.8-41.4,51-74.9,62.8c-33.6,11.8-66.5,24.8-102.4,27.8
	c-10,0.8-19.9,3.9-29.8,6.4c-35.5,9.2-70.7,3.5-105.6-3c-19.1-3.6-32.5-18.8-48-29.6c-9.3-6.5-17-15.5-26.7-21.2
	c-24.2-14.2-40-34.5-49.2-60.7c-4.6-13.2-9.4-26.2-14.4-39.2c-13.2-34.3-10.4-68.8-5.4-104.6c6-42.7,24-79.9,42.6-117.5
	C268.9,161.9,271.4,153.7,275.1,144.3z"/>
<path fill-rule="evenodd" clip-rule="evenodd" fill="#FFFFFF" d="M687.9,278c0-7.6,0.3-15.2-0.1-22.8c-1.3-25.3-1.9-50.5-16.1-73.3
	c-12.8-20.6-26.4-40.4-45.6-55.2c-24.1-18.7-50.3-34.4-80.5-40.5c-19.1-3.9-36.1-13.7-58.6-9.1c-28.4,5.8-56.9,8.9-82.8,23.5
	c-27.7,15.6-62.9,20.2-78.1,54.2c-1.8,4.1-8.1,6-11.4,9.7c-5.8,6.6-11.9,13.3-16.2,20.9c-26,45.9-41.3,94.8-41.7,147.9
	c-0.4,45.4,15.6,83.8,49.3,114.1c16.7,15.1,34.7,29.1,53.4,41.6c17.9,11.9,37.5,18.3,60.4,18.8c38.3,0.9,75.9-2.7,112.9-10.7
	c50.1-10.8,88.9-40.6,119.2-81.6c1.5-2,2.7-4.3,3.7-6.6C673.9,367.1,692.7,325.5,687.9,278z"/>
<path fill-rule="evenodd" clip-rule="evenodd" d="M368.3,433.6c-2.5-12.4,3.6-21.3,11.2-30.6c21.8-26.6,51.2-40.7,82.5-51.8
	c9.5-3.4,19.2-6.7,29.2-8.3c7.1-1.2,15.4-1.2,22,1.3c24.8,9.5,49.9,19,68.2,41.8c-0.1,9.7-5.7,17.9-11.5,26.1
	c-2.4,0.1-5.2,1.2-6.9,0.2c-13.2-7.6-25.9-16.1-39.3-23.3c-17.9-9.7-38.7-9-55.6-2.8c-20.8,7.7-38.7,23-57.7,35.3
	c-6.3,4.1-11.4,10.2-17.9,14C384.7,440.3,376,441.5,368.3,433.6z"/>
<path fill-rule="evenodd" clip-rule="evenodd" d="M565.7,271.3c-16.3-6.9-30.2-8.3-32.5-24.1c-2.3-16,9.1-25.6,19-35
	c6.8-6.5,20.9-5.7,28.3,0.1c7.6,5.9,12.4,18.6,7.8,26.9C582.4,249.9,574.3,259.4,565.7,271.3z"/>
<path fill-rule="evenodd" clip-rule="evenodd" d="M372.1,237.8c-0.3-27.5,22.6-35.2,45.7-26.9c10.9,3.9,13,27,3.8,37.1
	c-3.4,3.7-7.8,6.4-11.9,9.4c-7.3,5.5-14.8,9.8-24.5,5.5C376.2,258.9,372.2,251.6,372.1,237.8z"/>
</svg>
