<?xml version="1.0" encoding="utf-8"?>
<!DOCTYPE svg PUBLIC "-//W3C//DTD SVG 1.1//EN" "http://www.w3.org/Graphics/SVG/1.1/DTD/svg11.dtd">
<svg artist="zl2017" version="1.1" id="zlIcon-smile-happy-girl" xmlns="http://www.w3.org/2000/svg" xmlns:xlink="http://www.w3.org/1999/xlink" x="0px" y="0px"
	 width="1000px" height="587.6px" viewBox="0 0 1000 587.6" enable-background="new 0 0 1000 587.6" xml:space="preserve">
<path fill-rule="evenodd" clip-rule="evenodd" d="M266.6,127.7c-3.2-2.5-5.7-5.3-8.8-6.7c-3.2-1.4-6.9-1.9-10.4-1.9
	c-69.1,1-56.3-7.9-107.9,40.8c-15.7,14.8-30.5,30.6-49.8,40.8c-10.5,5.5-21.4,10.8-32.6,14.6c-22.3,7.4-37.3,1.2-47.3-19.2
	c-8.1-16.5-12.4-34.6-6.5-52.3c7.5-22.6,17-44.7,27.1-66.3c11.2-23.9,33.4-37,54.8-50c12.2-7.4,25.5-13,38.7-18.6
	c22.7-9.6,46.1-12.4,69.9-3.5c11.4,4.2,21.5,9.9,29.4,19.7c16.6,20.4,33.5,40.5,50.7,60.5c11.9,13.8,20,15.9,33.7,4.4
	c30-25.4,66.7-37.7,101.5-52.8c44.3-19.2,92.3-25.9,140.5-18.5c30.5,4.7,60.9,15,84.1,35.9c13,11.8,32,14.2,41.4,32
	c7.6,14.4,21.2,25.6,32,38.3c10.8,12.5,18.8,14.2,30.1,3.1c10.9-10.8,20.8-23,29.4-35.8c17.6-26,36.7-50.4,64.8-65.7
	c12.4-6.8,26.5-10.5,39.1-17c16.4-8.4,31.4-4.2,43.3,6.3c17.8,15.8,38.2,28.1,54.8,45.9c25.9,27.9,34.1,58.9,30,95.4
	c-4.4,39.5-51.2,59.7-81.5,47.8c-16.6-6.5-32.7-14.4-49-21.8c-38.6-17.6-77.3-23.9-118-0.8c-0.4,15-2.5,30.1,3.1,45.3
	c7.6,20.5,8,42,8.2,63.6c0.2,22.5-3,44.9-1,67.7c1.2,13.7-2.4,28.9-7.8,41.8c-12,28.6-25.3,56.9-40.4,84
	c-9.8,17.6-23,33.2-42.4,42.5c-10.7,5.1-20.7,12-30.3,19.1c-21.7,15.9-44.6,27.9-72.4,26.9c-3.5-0.1-7.3,0.2-10.6,1.5
	c-35.6,13.6-73.2,9.9-110,12.8c-23.9,1.8-47.7-1.3-69.6-12.9c-5.2-2.8-11.2-4.1-17-5.6c-42.3-11-73.5-38.2-102.3-69.2
	C247.1,488,236.2,477,225.2,466c-28.3-28.1-35.6-64.4-37.9-101.6c-2.1-33.8,8.4-66.3,18.9-98.1c7.9-23.8,16.9-47.3,26.9-70.3
	c8-18.6,18.1-36.2,27.2-54.3C262.4,137.5,264.1,133.2,266.6,127.7z"/>
<path fill-rule="evenodd" clip-rule="evenodd" fill="#FFFFFF" d="M734.5,304.4c0,4.9,0.1,1.3,0-2.3c-2.6-55.2-5.7-110.3-46.7-153.9
	c-1.6-1.7-2.5-4.1-3.3-6.3c-5.5-13.8-15.5-23.3-26.9-32.6c-21.3-17.4-42.6-34.1-70-40.8c-4.5-1.1-8.8-3.8-12.8-6.3
	c-23.4-14.7-49-18.5-75.7-14.4c-20,3.1-39.6,9.5-59.6,11.8c-42.3,4.9-75.7,27.7-108.9,51.2c-11.7,8.2-22.6,17.6-33.1,27.3
	c-6.9,6.3-49.9,91-52.4,100.6c-2.8,10.3-5.8,20.6-8.8,30.9c-17.1,58.8-13.8,115.2,17.1,169.4c13.2,23.3,31.5,41.7,50.3,60
	c25.2,24.5,53.3,42.9,89.4,48.9c45,7.5,89.9,14.9,135,3.7c32.2-8,64.1-16.6,93.2-34.3c22.6-13.8,43.5-27.2,60.3-49.1
	C717,421.7,739,372.1,734.5,304.4z"/>
<path fill-rule="evenodd" clip-rule="evenodd" d="M486.6,480.4c-48.3-3-90-20-120.4-59.7c-3.5-4.6-7.1-10.2-7.9-15.7
	c-0.7-5.2,0.9-13.1,4.4-15.6c3.3-2.3,11.6-0.5,15.6,2.3c5.7,4,9.7,10.4,14,16.1c10.4,13.8,23.3,23.4,40.2,28.1
	c12.6,3.5,24.4,9.7,37.1,12.3c20.2,4.2,39.8,2.5,58.9-7.7c29.9-16,56.6-35.3,76.2-63.5c4.7-6.7,11.2-12.2,17.2-17.8
	c1.2-1.1,4.9-0.6,6.5,0.5c1.7,1.2,3.1,4,3.1,6c-0.1,3.4-0.7,7.1-2.2,10.2c-17.6,36.4-43.8,65.5-77.7,86.7
	C532.5,474.9,510.6,482.1,486.6,480.4z"/>
<path fill-rule="evenodd" clip-rule="evenodd" d="M438.4,229c1.1,18.2-18.9,43.5-36.8,46.8c-15.9,2.9-31.3-14.3-27.7-32.4
	c3.4-17,14.5-29.7,29.5-37.4C419.3,197.9,437.4,210.6,438.4,229z"/>
<path fill-rule="evenodd" clip-rule="evenodd" d="M567.8,270.5c-7.3-0.3-13.6-4.1-17.5-15.6c-4-11.8-5.7-23.7,5.8-32.5
	c7.5-5.7,15.4-11.3,24-15c10.5-4.5,22.8,0.6,27.7,9.8c7,13.2,2.6,25.5-3.7,37.3C598.1,266,588.6,272.2,567.8,270.5z"/>
</svg>
