<?xml version="1.0" encoding="utf-8"?>
<!DOCTYPE svg PUBLIC "-//W3C//DTD SVG 1.1//EN" "http://www.w3.org/Graphics/SVG/1.1/DTD/svg11.dtd">
<svg artist="zl2017" version="1.1" id="zlIcon-snowman" xmlns="http://www.w3.org/2000/svg" xmlns:xlink="http://www.w3.org/1999/xlink" x="0px" y="0px"
	 width="1000px" height="1300px" viewBox="0 0 1000 1300" enable-background="new 0 0 1000 1300" xml:space="preserve">
<path fill-rule="evenodd" clip-rule="evenodd" d="M188.4,649.9c-15.3-44.7-19.9-88.7-14.2-132.4c-24.3-18.8-46.6-38.5-71.3-54.4
	C77.2,446.7,49.1,434,22,419.8c-6.6-3.4-11.6-11-10.1-16.2c1.7-6,9.9-10.7,17.3-9.4c3.9,0.7,7.7,2.6,11.6,3.8
	c2.7,0.8,5.5,1.2,10,2.1c0-4.8,0.8-8.7-0.1-12.2c-3.6-13.7-10.5-27.2-10.8-40.9c-0.2-13.4-2.1-26.2-4.4-39.2c-1-5.8,0-12.1,1.2-17.9
	c0.4-2,4.2-3.3,6.3-4.8c11.7,6.8,6.2,21.9,17.3,29.7c13.9-2.9,21.4-16.7,33.5-23.5c12.4-7,24.2-14.9,36.2-22.4
	c6.8,5.9,4.1,10.9-0.9,15.3c-16.1,14.1-32.4,28-48.6,42.1c-3.1,2.7-5.5,6.1-8.7,8.5c-10.8,7.9-13,17.2-6.6,29.2
	c3.3,6.2,5.5,13.2,7,20.1c7.5,33.6,29.5,54.8,59,69.6c17.2,8.7,34.8,16.6,54.3,22.8c11.6-15.7,19.3-32.4,30-46.8
	c10.8-14.5,25.8-25.8,40-39.5c-2.4-5.9-4.4-12.7-7.8-18.7c-25.8-45.1-10.9-83.2,16.4-115c6.6-7.6,15.5-13.3,22.7-19.4
	c-2.7-17.2-4.9-31.1-6.9-44c-15.5-6.3-29.8-11.6-43.5-18c-6.3-2.9-12.7-7.1-17.2-12.3c-14.5-16.5-17.2-22.8-4.2-39.9
	c9.9-12.9,18.8-26.5,28.7-39.4c9.5-12.5,24.7-15.2,37.5-6.1c16.5,11.7,32.3,24.3,46.8,35.3c30.7-10.2,59.5-20.1,88.6-29.2
	c14.4-4.5,29.2-8.1,44-11.1c36.9-7.6,74-14.7,111-21.7c14-2.6,27.9-5.6,42.3-1.2c7.1,2.2,13.7-0.9,19.1-6.8
	c10.3-11.3,20.7-22.4,31.7-33.1c12.9-12.6,24-12.8,37.3-1.1c17.4,15.4,25.6,36.4,33.2,57.5c3,8.4-0.8,16.6-7.6,21.9
	c-6.3,4.9-13.6,8.9-21.1,11.7c-19.1,7.2-38.4,13.9-57.8,20c-9.8,3.1-15.3,9.1-18.9,18.3c-8.8,22.8-18.8,45.3-18.8,72.8
	c2.4,3.3,5.8,8.3,9.6,12.9c10.7,13.2,16,28.3,15.4,45.3c-0.8,22.3-1.7,44.6-2.7,69c14.2,21.8,30.9,45,44.8,69.7
	c10.3,18.4,17,38.9,25.7,59.5c38-3.9,74-17.6,110.4-32c6.8-8.1,6.1-18.8,8.2-28.6c2.7-13.2,7.8-25.4,16.3-35.8
	c2.5-3,5.7-5.6,8.9-7.9c3.7-2.5,8.2-2.7,10.7,1.3c2,3.1,4,8,2.8,10.8c-2.7,6.4-8.2,11.7-11.1,18.1c-4,9.1-8.7,18.7-2.1,30.9
	c13.8,0.5,26.8-4.7,39.9-9.3c12.3-4.3,23.6-12.1,39.9-7.6c-0.6,5.5-1.3,11.1-1.9,16.3c-7.9,3.8-15.1,7.2-23.3,11.1
	c14.1,17.8,32.4,26.5,50.6,35.3c12,5.7,24.2,11,35.9,17.2c3,1.6,4.7,5.6,10.1,12.5c-12.6-1.7-20.6-1.9-28.1-3.9
	c-31-8.2-58.2-24.7-83.9-43c-10.4-7.4-18.7-9.8-30.7-5.5c-35.6,12.6-71.9,23.1-105.5,40.7c-5.4,2.9-10.7,6.1-16.2,8.7
	c-21.3,9.8-34.8,24-30.1,49.8c0.9,4.7-1.1,10-2,16.6c15.7,13.9,31.8,27.8,47.4,42.1c7.4,6.8,13.6,14.3,18.3,23.9
	c7.6,15.4,17.9,29.7,27.8,43.9c17.2,24.7,27,52.3,33.9,81.2c0.7,3,1.3,6.1,1.3,9.1c-0.7,42.8,5.9,85.9-1.2,128.2
	c-5.8,34.9-9.5,70.7-25.4,103.4c-5.8,11.9-9.5,24.8-13.5,37.5c-16.3,51.8-45.3,95.5-84.6,132.3c-11,10.3-24.6,18.2-37.7,26
	c-29.7,17.7-58,37.7-89.3,53.2c-30.5,15.2-63.4,22.2-94.7,34.5c-26.8,10.5-55,14.8-83.2,18.6c-30.2,4.1-60.9,5.6-91.1-0.3
	c-40-7.8-80.3-15-117.1-33.9c-12.7-6.5-25.2-13.2-37.6-20.3c-12.3-7.1-24.9-14-36.3-22.4c-8.9-6.5-16.3-15.2-24.2-23
	c-17.8-17.4-29.8-38.1-38.2-61.6c-7.2-20.1-16.2-39.6-25.8-58.7c-17-34-23.4-71.2-30.1-107.8C-1.6,950.1,2.3,930,5,911
	c5.2-37.5,16.1-73.6,31.9-108c7.2-15.8,13.8-32,22.7-46.8c8.4-13.8,18.7-26.7,29.7-38.7c25-27.2,52.6-51.3,89.8-60.8
	C181.8,656,183.9,653.3,188.4,649.9z M567.2,110.6c14.2-0.9,11.3-10.9,12.7-21.2c-9.9,6.1-11.5,13.7-11.9,22
	c-0.1,1.5-0.2,2.9-0.4,4.4C567.4,114,567.3,112.3,567.2,110.6z M331.8,176.5c-1.8,0.2-4.8-0.3-5.3,0.6c-5,8.4-5,16.8,1.7,31.1
	c1.3-14.8,2.2-23.6,2.8-32.6c3.5-5.5,7-11.1-1.1-24.2C330.9,164.3,331.3,170.4,331.8,176.5z M595.2,120.5c-8.1,1-10.8,6.7-12,13.8
	c-1.1,6.6-2.2,13.2-3.2,19.9c-1.4,7.8-3.3,15.6-4.2,23.5c-0.6,4.5,2.1,6.1,10.5,7.9c-2.3-10.6-4.6-21.4-6.9-32.1
	c2.3-1.6,5.9-2.7,6.6-4.9c3.3-9.4,5.7-19.2,8.3-28.9c1.1-1.4,2.2-2.8,3.1-4.4c0.1-0.2-0.9-1.1-1.5-1.7
	C595.7,115.9,595.4,118.2,595.2,120.5z M416.1,144.1c-1,0-2.6-0.3-2.9,0.2c-6.4,9.9-11,29.7-8.2,38.6c0.5,1.5,5,1.8,7.9,2.7
	c7.2-14.1,2.9-28.2,2.7-41.9c1.5-2.9,3-5.8,4.4-8.7c-1-0.3-2-0.6-3-0.9C416.7,137.3,416.4,140.7,416.1,144.1z M524.4,111.3
	c-15.4,14.3-20.8,34.2-28.8,52.6c-0.7,1.5,2.1,6.3,4.1,6.8c2.1,0.6,6.7-1.4,7.4-3.3c7-17.8,13.3-35.8,19.8-53.8
	c12.3-14.3,12.3-14.3,8.2-32c-3.3,3.6-7.1,5.8-7.9,8.9C525.4,97.2,525.2,104.3,524.4,111.3z M687.4,625.9
	c-2.4,5.4-5.1,10.8-7.4,16.4c-8.5,21.1-22.4,38.8-38.7,53.8c-19.4,17.9-41.1,33.3-62,49.5c-10.5,8.1-20.6,17.6-32.6,22.5
	c-25.3,10.3-52,17.2-77.6,26.9c-24.8,9.4-50.5,5.3-75.7,7c-17.7,1.2-36.4-3.7-53.9-8.6c-15.5-4.4-29.8-13.1-45-19
	c-30.7-11.9-53.7-32.7-71.9-59.5c-5.6-8.3-11.6-16.4-18-25.4c-6.2,3.9-11.4,7-16.4,10.3c-28.6,18.8-49.5,45.2-70.5,71.4
	c-10.7,13.4-22.1,27-29.1,42.4C65,865.6,45.2,919,46.6,977.7c0.1,5.1,0.2,10.3-0.4,15.3c-3.5,29.7-1,58.3,14.8,84.7
	c4.7,7.8,8.3,16.4,11.4,25c6.8,18.5,15.8,35.1,32.1,47.4c6.2,4.7,10.3,12.4,15,19c15,21.1,33,39,56.4,50.4
	c26.5,12.9,53.1,26.4,80.8,36.4c29.6,10.6,60.7,17,92.7,15.7c63.5-2.6,124.9-13.9,184.4-37.3c56.8-22.4,107.4-54.1,152.8-94.2
	c19.7-17.4,41.2-34.1,52.9-58.8c9.5-20,19.4-40,26.3-60.9c11.4-34.8,20.4-70.3,30.4-105.5c14.4-50.5,11.2-100.4-4.6-150.1
	c-5.5-17.3-9.2-35.1-15.5-52.1c-4.5-12.3-10.2-24.9-18.3-35C739.5,654.6,718.2,634.4,687.4,625.9z M609.3,372.1
	c-3.2,3.4-6.6,7-10,10.6c-23.5,24.9-51.4,42.7-84.1,53.8c-39,13.3-79.1,19.5-119.8,22.4c-18.9,1.3-38.2,2.4-56.9-4.2
	c-14.7-5.2-26.9-14.3-39.7-22.6c-16-10.5-27.9-11-41.7,0.6c-20.5,17.2-37.9,36.7-44.6,64c-15.2,62.5-10.3,122.9,18.4,180.7
	c4.8,9.7,13.1,17.9,20.2,26.4c5.9,7,13.2,12.9,18.6,20.2c8.4,11.2,19.8,16.8,32.4,21.8c50,19.9,100.4,16,149.7-0.3
	c55.4-18.3,106.7-45.6,152.7-81.6c14.2-11.1,24.6-27,38.5-38.7c14.1-11.9,22.2-27.3,26.6-43.7c6.2-23.3,12.8-47.1,11.2-71.8
	c-0.3-5.1,0.1-10.3-1.1-15.2c-9.3-37.6-18.7-75.1-44.8-105.8C628.2,380.5,620.7,374.9,609.3,372.1z M608.7,297
	c0-25.1-11.3-46.3-31.1-59.4c-26.2-17.3-55.1-30.7-88.4-28.7c-20.3,1.2-40.7,1.4-60.9,3.3c-14.2,1.3-28.7,4.7-39.9,14
	c-11.7,9.7-24.9,12.9-39.1,14c-25.7,2-45.9,15.3-64.7,31.2c-3.7,3.1-7.2,7.9-8.2,12.5c-4.4,19.7-9.4,39.7,0.3,59.3
	c4.1,8.2,8.4,16.3,13.2,24.1c13.8,22.6,36.1,35.6,57.1,49.9c15.6,10.5,32.2,16.3,52,10.7c9.5-2.7,20.3-0.4,30.4-1.4
	c11.1-1.1,22.2-2.5,33-5.1c49.2-12,87.7-42.6,124.2-75.1C599.9,334.4,609.3,317.2,608.7,297z M712.2,72.1
	c-12.5-28.7-30-30.9-61.9-10.9c-0.9,12.4-1.8,24.8-2.8,39.3C670.3,90.5,690.3,81.7,712.2,72.1z M277.5,167.8
	c9.8-14.2,18.1-26.1,26.1-37.7c-14.6-13.7-29.9-17.5-46.2-10.6c-12.1,5.1-16.4,16.5-15.9,29.4C250.6,159.6,263.6,162.4,277.5,167.8z
	 M499.5,91.8c-4.4,3.6-10.5,6.3-12.9,10.9c-6.5,12.4-11.4,25.6-17,38.6c-4.2,9.8-6.1,19.9-1.3,31.6
	C475.9,145,494.6,122.6,499.5,91.8z M463.7,104.5c-20.4,19.7-27.2,42.3-20.3,62.6C450.6,145,457.1,124.7,463.7,104.5z M388.9,142.2
	c-13.6,25.3-15,30-13.3,46.9C383.6,176.9,388.7,159,388.9,142.2z M355.6,204.1c-1.6-5.4-2.7-9.3-4.9-16.4
	C350.1,195.6,346.2,200.6,355.6,204.1z M558.5,149.8c3.4-6.3,5.5-9.3,6.5-12.6c0.4-1.3-1.7-3.4-2.7-5.2c-1.9,1.6-5,2.9-5.5,4.9
	C556.1,139.6,557.4,142.7,558.5,149.8z M552.6,168.3c0.5,0,1.8,0,1.8,0c0.1-1.9,0.1-3.8,0.1-5.7c-0.6,0-1.8,0-1.8,0
	C552.6,164.6,552.6,166.5,552.6,168.3z"/>
<path fill-rule="evenodd" clip-rule="evenodd" d="M942.9,1108c-1.2,1.8-1.7,3.4-2.7,3.8c-34.7,14.3-65.9,35.5-99.9,51.2
	c-24.4,11.3-47.4,25.1-70.1,39.3c-17.6,11-34.3,23.4-51.8,34.6c-14.8,9.5-27.3,21.6-41,32.5c-2.2,1.7-5.4,2.1-9.2,3.6
	c1.1-7.9,3.7-12.8,8.7-17c45.5-38.1,96.1-68.3,148.2-96.1c16-8.5,32.7-15.5,49-23.4c17.4-8.5,34.6-17.6,52.1-25.8
	C930.9,1108.4,936.5,1105.6,942.9,1108z"/>
<path fill-rule="evenodd" clip-rule="evenodd" fill="#FFFFFF" d="M687.4,625.9c30.7,8.5,52.1,28.7,70.6,51.8
	c8.1,10.1,13.7,22.7,18.3,35c6.2,16.9,10,34.8,15.5,52.1c15.7,49.7,18.9,99.6,4.6,150.1c-10,35.2-19.1,70.7-30.4,105.5
	c-6.9,20.9-16.8,40.9-26.3,60.9c-11.7,24.7-33.1,41.4-52.9,58.8c-45.4,40-96,71.8-152.8,94.2c-59.5,23.5-121,34.7-184.4,37.3
	c-32,1.3-63.1-5-92.7-15.7c-27.7-9.9-54.2-23.4-80.8-36.4c-23.3-11.4-41.4-29.3-56.4-50.4c-4.7-6.6-8.8-14.3-15-19
	c-16.3-12.3-25.3-28.9-32.1-47.4c-3.1-8.6-6.8-17.2-11.4-25c-15.8-26.4-18.4-55-14.8-84.7c0.6-5.1,0.5-10.2,0.4-15.3
	C45.2,919,65,865.6,88.7,813.5c7-15.4,18.4-29,29.1-42.4c21-26.2,41.9-52.6,70.5-71.4c5-3.3,10.2-6.3,16.4-10.3
	c6.4,9,12.4,17.1,18,25.4c18.2,26.8,41.2,47.7,71.9,59.5c15.2,5.9,29.4,14.6,45,19c17.5,4.9,36.1,9.8,53.9,8.6
	c25.2-1.7,50.9,2.4,75.7-7c25.6-9.7,52.3-16.6,77.6-26.9c11.9-4.9,22.1-14.4,32.6-22.5c21-16.2,42.6-31.6,62-49.5
	c16.3-15,30.2-32.7,38.7-53.8C682.3,636.7,685,631.3,687.4,625.9z M158.8,1126.4c-1.1-2.5-1.6-6-3.5-7.3
	c-20.1-13.5-32.9-31.5-42.7-53.9c-9.7-22.2-15.2-44.7-13.6-67.8c2.4-35.5,9.4-70.5,23.9-103.4c7-15.8,14.5-31.3,21.4-47.1
	c5.1-11.7,9.6-23.6,14.2-34.9c-6.4-4.5-9.8-1.1-12,1.6c-4.4,5.5-8.5,11.5-11.5,17.8c-18.9,39.5-34.8,79.8-44.2,123
	c-5.6,25.4-7.1,50.4-4,75.6c4.6,37.9,22.3,69.2,52.6,92.6C144.5,1126.3,150.1,1133.2,158.8,1126.4z M709.2,985
	c-19.2,24.9-33.8,45.4-47.8,66.6c-21.1,32-40.2,66.5-78.2,82.8c-1.3,0.5-1.5,3.4-3,7c5.5,1.9,10.8,3.8,15.3,5.4
	c20-11.9,34.1-27.2,45.9-45.6c16.8-26.4,35.8-51.3,52.9-77.6C700.5,1013.9,710.7,1005.4,709.2,985z M727.3,840.7
	c14-21.2,12-42.9,11.2-65.3c-1-31.3-15.6-52.6-38.3-72.5c-4.6,3-8.6,5.6-13.1,8.5c2.3,3.7,3.5,6.7,5.6,8.5
	c26.6,23,31.2,55.2,35.8,87.2c0.8,5.5-2.9,11.6-3.2,17.5C725,829.9,726.6,835.3,727.3,840.7z M610.6,1023.6
	c-16,19.3-22.9,41.3-43.9,52.9c-1,0.5-0.8,6.2,0.7,7.6c1.7,1.7,6.1,2.7,8,1.7c19.9-10.5,33-26.3,36.1-49.1
	C612.1,1032.5,610.9,1028,610.6,1023.6z M151.7,980.3c-3.1,0.3-4.8,0.1-5.1,0.6c-13.5,22.1-9.3,44.6-1.2,67.1
	c0.4,1.2,3.9,2.6,4.8,2.1c2.3-1.3,5.9-4.5,5.5-5.5c-7.3-19-1.8-38.3-2.1-57.4C153.6,985.2,152.6,983.3,151.7,980.3z M207.1,1065
	c-3.6-18.7-6.2-33.1-9.4-47.3c-0.5-2-4.5-4.6-6.6-4.4c-2.2,0.3-6,3.8-5.8,5.5c1.2,11.8,2.3,23.7,5.6,35
	C191.9,1057.7,199.1,1059.8,207.1,1065z M696.6,831c2.1-5.5,5.7-10.2,5.1-14.3c-1.7-10.9-4.8-21.6-8.5-32c-0.6-1.7-7.9-2.9-10.7-1.5
	c-2.6,1.2-5.2,6.7-4.5,9.6c2.6,10.8,6.2,21.4,10,31.9C688.8,826.8,692.4,828,696.6,831z"/>
<path fill-rule="evenodd" clip-rule="evenodd" fill="#FFFFFF" d="M609.3,372.1c11.3,2.7,18.9,8.3,25.9,16.6
	c26.1,30.7,35.5,68.1,44.8,105.8c1.2,4.9,0.8,10.1,1.1,15.2c1.6,24.7-5,48.5-11.2,71.8c-4.4,16.4-12.6,31.8-26.6,43.7
	c-13.8,11.7-24.3,27.6-38.5,38.7c-46,36-97.3,63.3-152.7,81.6c-49.4,16.3-99.7,20.2-149.7,0.3c-12.5-5-24-10.6-32.4-21.8
	c-5.5-7.3-12.7-13.2-18.6-20.2c-7.1-8.5-15.4-16.6-20.2-26.4c-28.7-57.8-33.6-118.2-18.4-180.7c6.6-27.3,24.1-46.8,44.6-64
	c13.8-11.6,25.7-11.1,41.7-0.6c12.8,8.3,24.9,17.5,39.7,22.6c18.8,6.6,38,5.6,56.9,4.2c40.7-2.9,80.8-9,119.8-22.4
	c32.7-11.2,60.5-28.9,84.1-53.8C602.8,379.1,606.2,375.5,609.3,372.1z M294.6,691.9c-6.8-4.1-9.7-6.6-13.2-7.8
	c-16.7-6.2-25-18.9-31.1-35.2c-16.7-44.6-8.7-87.6,6-130.5c1.6-4.8,4.7-9.1,6.2-13.9c1.7-5.3,7.4-10.1,2.4-17.3
	c-2.4,0.1-6.2-0.9-7.7,0.6c-4.2,4.2-8.1,9-10.9,14.2c-15.3,28.6-16.8,60.3-20.4,91.6c-3,25.2,4.1,48.2,12.8,71.2
	c4.6,12.3,15.3,19,24.8,26.3C270.9,696.6,280.3,698.1,294.6,691.9z M287.6,584.7c-19.7,6.6-21.3,10.8-20.4,35.8
	c0.5,14.3,5.8,25.4,15.9,34.6c1.6,1.4,5.1,0.8,7.8,1.1c5.3-13.8-5.1-24.1-5.6-35.8C284.9,608.6,286.8,596.7,287.6,584.7z
	 M625.9,510.6c2-1.5,5.9-2.9,6.1-4.8c1-7.8,2.8-16.3,0.8-23.5c-4.5-16.1-14.3-29-31.1-34.5c-2.2-0.7-6.3,0.7-7.8,2.5
	c-1.5,1.8-1.5,5.5-1.2,8.2c0.2,1.7,2.1,3.5,3.7,4.6c15.4,10.2,23.5,24.5,24.8,42.9C621.3,507.4,623.8,508.6,625.9,510.6z
	 M602.9,547.4c6.7-21.2,3.4-37.2-0.3-54.5c-6.6,0.4-11.1,0.6-19,1C593.6,511.1,581.9,531.5,602.9,547.4z M660.4,528.1
	c-8.7-4.8-13.6-7.9-18.9-10.3c-1.3-0.6-4.1,0.5-5.2,1.8c-1,1.1-1.7,3.8-1,5.1C639.8,534.1,644.4,535.2,660.4,528.1z"/>
<path fill-rule="evenodd" clip-rule="evenodd" fill="#FFFFFF" d="M608.7,297c0.6,20.2-8.7,37.4-22,49.2
	c-36.5,32.6-75,63.1-124.2,75.1c-10.8,2.6-21.9,4-33,5.1c-10.1,1-20.9-1.3-30.4,1.4c-19.7,5.6-36.4-0.2-52-10.7
	c-21-14.3-43.3-27.3-57.1-49.9c-4.8-7.8-9.1-15.9-13.2-24.1c-9.7-19.6-4.7-39.6-0.3-59.3c1-4.6,4.5-9.4,8.2-12.5
	c18.8-15.9,38.9-29.2,64.7-31.2c14.2-1.1,27.4-4.2,39.1-14c11.2-9.3,25.7-12.7,39.9-14c20.2-1.9,40.6-2,60.9-3.3
	c33.3-2,62.2,11.4,88.4,28.7C597.4,250.7,608.7,272,608.7,297z"/>
<path fill-rule="evenodd" clip-rule="evenodd" fill="#FFFFFF" d="M499.5,91.8c-5,30.8-23.6,53.1-31.2,81.1
	c-4.8-11.7-2.9-21.8,1.3-31.6c5.5-13,10.5-26.2,17-38.6C489,98.1,495.1,95.4,499.5,91.8z"/>
<path fill-rule="evenodd" clip-rule="evenodd" fill="#FFFFFF" d="M526.9,113.5c-6.5,18-12.9,36-19.8,53.8c-0.8,1.9-5.3,3.9-7.4,3.3
	c-2-0.6-4.8-5.3-4.1-6.8c8-18.4,13.4-38.3,28.8-52.6C525.2,112,526.1,112.8,526.9,113.5z"/>
<path fill-rule="evenodd" clip-rule="evenodd" fill="#FFFFFF" d="M463.7,104.5c-6.6,20.3-13.1,40.5-20.3,62.6
	C436.5,146.7,443.3,124.2,463.7,104.5z"/>
<path fill-rule="evenodd" clip-rule="evenodd" fill="#FFFFFF" d="M388.9,142.2c-0.2,16.8-5.3,34.7-13.3,46.9
	C373.9,172.2,375.2,167.5,388.9,142.2z"/>
<path fill-rule="evenodd" clip-rule="evenodd" fill="#FFFFFF" d="M415.6,143.6c0.2,13.8,4.5,27.8-2.7,41.9c-2.9-0.9-7.5-1.1-7.9-2.7
	c-2.8-8.9,1.8-28.7,8.2-38.6c0.3-0.5,1.9-0.2,2.9-0.2L415.6,143.6z"/>
<path fill-rule="evenodd" clip-rule="evenodd" fill="#FFFFFF" d="M524.4,111.3c0.8-7,1.1-14.1,2.8-20.8c0.8-3.1,4.6-5.3,7.9-8.9
	c4.1,17.7,4.1,17.7-8.2,32C526.1,112.8,525.2,112,524.4,111.3z"/>
<path fill-rule="evenodd" clip-rule="evenodd" fill="#FFFFFF" d="M579.9,154c1.1-6.6,2.2-13.2,3.3-19.8c1.2-7,3.9-12.7,12-13.8
	l-0.8-0.7c-2.7,9.6-5.2,19.4-8.4,28.8c-0.7,2.1-4.3,3.3-6.6,4.9L579.9,154z"/>
<path fill-rule="evenodd" clip-rule="evenodd" fill="#FFFFFF" d="M579.4,153.5c2.3,10.7,4.6,21.4,6.9,32.1c-8.4-1.8-11-3.3-10.5-7.9
	c0.9-7.9,2.8-15.6,4.1-23.5C579.9,154,579.4,153.5,579.4,153.5z"/>
<path fill-rule="evenodd" clip-rule="evenodd" fill="#FFFFFF" d="M331.2,175.8c-0.8,8.8-1.6,17.7-3,32.5
	c-6.7-14.3-6.7-22.8-1.7-31.1c0.6-0.9,3.5-0.5,5.3-0.6L331.2,175.8z"/>
<path fill-rule="evenodd" clip-rule="evenodd" fill="#FFFFFF" d="M567.8,111.2c0.5-8.2,2.1-15.8,12-21.8
	c-1.4,10.3,1.5,20.3-12.7,21.2L567.8,111.2z"/>
<path fill-rule="evenodd" clip-rule="evenodd" fill="#FFFFFF" d="M355.6,204.1c-9.4-3.4-5.5-8.5-4.9-16.4
	C352.9,194.8,354,198.6,355.6,204.1z"/>
<path fill-rule="evenodd" clip-rule="evenodd" fill="#FFFFFF" d="M558.5,149.8c-1.1-7.1-2.4-10.2-1.7-12.8c0.5-2,3.6-3.3,5.5-4.9
	c1,1.7,3.1,3.8,2.7,5.2C564,140.5,561.9,143.5,558.5,149.8z"/>
<path fill-rule="evenodd" clip-rule="evenodd" fill="#FFFFFF" d="M331.8,176.5c-0.5-6.1-0.9-12.1-1.9-25c8.1,13.1,4.6,18.6,1.1,24.2
	C331.2,175.8,331.8,176.5,331.8,176.5z"/>
<path fill-rule="evenodd" clip-rule="evenodd" fill="#FFFFFF" d="M552.6,168.3c0-1.9,0-3.8,0.1-5.7c0,0,1.2,0,1.8,0
	c0,1.9,0,3.8-0.1,5.7C554.4,168.4,553.1,168.3,552.6,168.3z"/>
<path fill-rule="evenodd" clip-rule="evenodd" fill="#FFFFFF" d="M416.1,144.1c0.3-3.4,0.6-6.8,0.9-10.1c1,0.3,2,0.6,3,0.9
	c-1.5,2.9-3,5.8-4.4,8.7L416.1,144.1z"/>
<path fill-rule="evenodd" clip-rule="evenodd" fill="#FFFFFF" d="M567.2,110.6c0.1,1.7,0.3,3.4,0.4,5.1c0.1-1.5,0.2-2.9,0.3-4.4
	C567.8,111.2,567.2,110.6,567.2,110.6z"/>
<path fill-rule="evenodd" clip-rule="evenodd" fill="#FFFFFF" d="M595.2,120.5c0.2-2.3,0.5-4.6,0.7-6.8c0.5,0.6,1.6,1.5,1.5,1.7
	c-0.9,1.5-2,2.9-3.1,4.4C594.4,119.8,595.2,120.5,595.2,120.5z"/>
<path fill-rule="evenodd" clip-rule="evenodd" d="M158.8,1126.4c-8.7,6.8-14.3-0.1-19.3-3.9c-30.4-23.5-48-54.8-52.6-92.6
	c-3.1-25.2-1.6-50.1,4-75.6c9.4-43.1,25.3-83.5,44.2-123c3-6.3,7.1-12.3,11.5-17.8c2.2-2.7,5.6-6,12-1.6
	c-4.6,11.3-9.1,23.2-14.2,34.9c-6.9,15.8-14.5,31.3-21.4,47.1c-14.6,32.9-21.6,68-23.9,103.4c-1.5,23.1,4,45.7,13.6,67.8
	c9.8,22.4,22.6,40.5,42.7,53.9C157.2,1120.4,157.7,1124,158.8,1126.4z"/>
<path fill-rule="evenodd" clip-rule="evenodd" d="M709.2,985c1.5,20.4-8.7,28.9-15,38.5c-17,26.3-36.1,51.2-52.9,77.6
	c-11.7,18.4-25.8,33.7-45.9,45.6c-4.5-1.6-9.9-3.5-15.3-5.4c1.4-3.6,1.7-6.4,3-7c38-16.3,57.1-50.8,78.2-82.8
	C675.4,1030.5,690,1010,709.2,985z"/>
<path fill-rule="evenodd" clip-rule="evenodd" d="M727.3,840.7c-0.7-5.4-2.3-10.8-2-16.2c0.3-5.9,4-11.9,3.2-17.5
	c-4.7-31.9-9.2-64.1-35.8-87.2c-2.1-1.8-3.2-4.8-5.6-8.5c4.4-2.9,8.4-5.5,13.1-8.5c22.8,19.9,37.3,41.2,38.3,72.5
	C739.3,797.8,741.4,819.5,727.3,840.7z"/>
<path fill-rule="evenodd" clip-rule="evenodd" d="M610.6,1023.6c0.3,4.4,1.5,8.9,0.9,13.1c-3.1,22.8-16.3,38.6-36.1,49.1
	c-2,1-6.4,0-8-1.7c-1.4-1.4-1.7-7-0.7-7.6C587.7,1064.9,594.6,1043,610.6,1023.6z"/>
<path fill-rule="evenodd" clip-rule="evenodd" d="M151.7,980.3c0.9,3,1.9,4.9,1.9,6.8c0.3,19.1-5.2,38.4,2.1,57.4
	c0.4,1.1-3.2,4.3-5.5,5.5c-1,0.5-4.4-0.9-4.8-2.1c-8.2-22.5-12.3-45,1.2-67.1C146.9,980.3,148.5,980.6,151.7,980.3z"/>
<path fill-rule="evenodd" clip-rule="evenodd" d="M207.1,1065c-8-5.2-15.2-7.3-16.3-11.2c-3.3-11.3-4.4-23.2-5.6-35
	c-0.2-1.8,3.6-5.3,5.8-5.5c2.1-0.2,6.2,2.4,6.6,4.4C200.9,1031.9,203.5,1046.3,207.1,1065z"/>
<path fill-rule="evenodd" clip-rule="evenodd" d="M696.6,831c-4.2-3-7.8-4.2-8.6-6.4c-3.9-10.4-7.5-21-10-31.9
	c-0.7-2.8,2-8.3,4.5-9.6c2.8-1.4,10.1-0.2,10.7,1.5c3.7,10.4,6.8,21.1,8.5,32C702.3,820.7,698.7,825.4,696.6,831z"/>
<path fill-rule="evenodd" clip-rule="evenodd" d="M294.6,691.9c-14.2,6.2-23.7,4.8-31-0.8c-9.5-7.3-20.2-14-24.8-26.3
	c-8.7-23-15.8-46-12.8-71.2c3.7-31.3,5.2-63,20.4-91.6c2.8-5.2,6.7-10.1,10.9-14.2c1.4-1.5,5.3-0.5,7.7-0.6c5.1,7.3-0.6,12-2.4,17.3
	c-1.6,4.8-4.6,9.1-6.2,13.9c-14.8,42.9-22.7,85.9-6,130.5c6.1,16.3,14.4,29,31.1,35.2C284.8,685.3,287.8,687.8,294.6,691.9z"/>
<path fill-rule="evenodd" clip-rule="evenodd" d="M287.6,584.7c-0.9,12-2.7,23.9-2.3,35.6c0.4,11.7,10.9,22,5.6,35.8
	c-2.6-0.3-6.1,0.4-7.8-1.1c-10.2-9.1-15.4-20.3-15.9-34.6C266.3,595.5,267.9,591.3,287.6,584.7z"/>
<path fill-rule="evenodd" clip-rule="evenodd" d="M625.9,510.6c-2.1-2-4.6-3.2-4.7-4.6c-1.3-18.4-9.4-32.7-24.8-42.9
	c-1.6-1.1-3.4-2.9-3.7-4.6c-0.4-2.7-0.4-6.4,1.2-8.2c1.6-1.8,5.6-3.2,7.8-2.5c16.8,5.5,26.6,18.3,31.1,34.5c2,7.2,0.2,15.7-0.8,23.5
	C631.8,507.7,627.9,509.2,625.9,510.6z"/>
<path fill-rule="evenodd" clip-rule="evenodd" d="M602.9,547.4c-21.1-15.9-9.3-36.3-19.3-53.5c7.9-0.4,12.4-0.7,19-1
	C606.3,510.2,609.6,526.2,602.9,547.4z"/>
<path fill-rule="evenodd" clip-rule="evenodd" d="M361.5,391.8c2.5-17.3,37.5-63,47.9-61.9c1.4,0.1,11.5,13.3,11.9,14.7
	c0.4,1.6,5.7,11.1,4.6,11.9C421.1,359.7,370.2,387,361.5,391.8z"/>
<path fill-rule="evenodd" clip-rule="evenodd" d="M325,302.4c7.6-4.4,14.4-8.4,21.2-12.4c18.2-10.6,25.4-9.2,37.9,7.8
	c1.8,2.4,2.9,5.3,5.2,9.8c-3.9,5.7-7.2,13.7-13,18.5c-13.6,11.4-25.7,9.7-37.1-3.7C334.2,316.6,330.2,309.8,325,302.4z"/>
<path fill-rule="evenodd" clip-rule="evenodd" d="M463.4,291c4.9,2.4,8.7,3.9,12,5.9c14.7,9,16.8,19.7,6.6,32.1
	c-0.6,0.8-1.3,1.6-2,2.3c-8.4,7.3-16.8,15.4-29.3,11.5c-7.7-2.4-13-19.6-10.8-32.2C441.4,302,441.7,301.7,463.4,291z"/>
<path fill-rule="evenodd" clip-rule="evenodd" d="M588.7,295.3c-6.9-12.8-12.6-23.3-18.9-34.8c0.9-4,4.6-6.2,8.6-3.1
	c4.4,3.5,8.7,8.3,10.6,13.5C591.4,277.5,594.9,285,588.7,295.3z"/>
<path fill-rule="evenodd" clip-rule="evenodd" d="M407.3,403.2c2.9-1.2,4.7-2.5,6.5-2.7c18.9-2.5,38.8,0.8,56.8-8.7
	c1-0.5,4.6,2.7,6.1,4.8c0.7,0.9-0.4,4.5-1.5,5c-21.4,10.7-43.3,17.4-66.8,6.5C407.9,407.9,407.9,406.3,407.3,403.2z"/>
<path fill-rule="evenodd" clip-rule="evenodd" d="M940.7,1152c-0.9,1.3-1.3,2.5-2,2.8c-25.5,10.5-48.4,26-73.3,37.6
	c-17.9,8.3-34.7,18.4-51.4,28.8c-12.9,8-25.2,17.2-38,25.4c-10.9,7-20.1,15.9-30.1,23.8c-1.6,1.3-4,1.6-6.8,2.6
	c0.8-5.8,2.7-9.4,6.4-12.5c33.4-27.9,70.5-50.1,108.7-70.5c11.7-6.3,24-11.3,36-17.2c12.8-6.2,25.4-12.9,38.2-18.9
	C931.9,1152.3,936,1150.2,940.7,1152z"/>
<path fill-rule="evenodd" clip-rule="evenodd" d="M955.2,1195.9c-0.6,0.8-0.8,1.6-1.3,1.8c-16.2,6.7-30.8,16.6-46.7,24
	c-11.4,5.3-22.1,11.8-32.8,18.4c-8.3,5.1-16.1,10.9-24.2,16.2c-6.9,4.4-12.8,10.1-19.2,15.2c-1,0.8-2.5,1-4.3,1.7
	c0.5-3.7,1.8-6,4.1-7.9c21.3-17.8,44.9-31.9,69.3-44.9c7.5-4,15.3-7.2,22.9-10.9c8.1-4,16.2-8.2,24.4-12.1
	C949.6,1196.1,952.2,1194.7,955.2,1195.9z"/>
</svg>
