<?xml version="1.0" encoding="utf-8"?>
<!DOCTYPE svg PUBLIC "-//W3C//DTD SVG 1.1//EN" "http://www.w3.org/Graphics/SVG/1.1/DTD/svg11.dtd">
<svg artist="zl2017" version="1.1" id="zlIcon-spinner-worms" xmlns="http://www.w3.org/2000/svg" xmlns:xlink="http://www.w3.org/1999/xlink" x="0px" y="0px"
	 width="1000px" height="1124.4px" viewBox="0 0 1000 1124.4" enable-background="new 0 0 1000 1124.4" xml:space="preserve">
<path fill-rule="evenodd" clip-rule="evenodd" fill="#FFFFFF" d="M561.4,941.4c-2.9,9.6-0.9,17.2,5.7,23.6c2.6,2.5,4.8,5.3,7.6,7.5
	c6.7,5.2,13.3,7.2,22,2.5c12.7-6.8,18.9-17.2,21.5-30.4c2.2-11.1-2.9-16.6-14.2-16.6c-1.8,0-3.6-0.5-5.3-0.3c-1.4,0.1-3,0.7-4,1.5
	c-8.2,7-17.9,9.8-28.2,11.3C564.8,940.8,563.1,941.1,561.4,941.4z"/>
<path fill-rule="evenodd" clip-rule="evenodd" fill="#FFFFFF" d="M545.9,908.7c0.3,15.9,15.2,26.2,29.6,17.7c1.1-0.6,2.4-1,3.3-1.8
	c4.3-3.8,9.9-6.9,12.5-11.7c4.5-8.3,2.3-17.4-4-24c-5.3-5.6-12.4-9.9-20.9-5.9c-5,2.3-11.2,4-14.2,8
	C548.7,895.9,547.9,902.8,545.9,908.7z"/>
<path fill-rule="evenodd" clip-rule="evenodd" fill="#FFFFFF" d="M391.8,775c-1.3-2.3-2.1-5-3.9-6.7c-3.3-3.1-6.7-6.6-10.8-8
	c-4.3-1.5-9.4-3-14.2,0.8c-7.6,6-9.2,14.1-3.9,22.8c4.5,7.4,7.8,8.8,16,6c3-1,5.7-2.9,8.7-3.9C388.7,784.1,390.9,780.6,391.8,775z"
	/>
<path fill-rule="evenodd" clip-rule="evenodd" fill="#FFFFFF" d="M374.7,819.7c-8.8,5.1-11.4,4.6-14-1.5c-1.3-3.2,1.2-10.4,4-11.3
	c3.3-1.1,7.7,2,8.9,6.4c0.1,0.5,0,1,0.2,1.5c0.3,1.2,0.7,2.4,1.4,5c3-6.3,3.8-11.3,2.7-17.1c-9.1,1.9-17.7,2.5-26.1-2.6
	c-2.1,6.5-4.3,12.1-5.8,18c-1,4,1.9,8.2,6.1,10.2C359,831.5,368.2,828.4,374.7,819.7z"/>
<path fill-rule="evenodd" clip-rule="evenodd" fill="#FFFFFF" d="M383.3,611.5c-0.2-5.8,0.2-10.5-3.4-14.6
	c-6.4-7.3-17.2-9.1-25.9-3.9c-6,3.6-11.8,7.4-17.7,11.2c-0.6,0.4-1.4,1-1.5,1.6c-1.2,4.9-3,9.8-3.1,14.7
	c-0.2,6.5,8.6,14.7,15.1,14.7c5.7,0,11.3-0.7,17-1.3C373.9,632.5,384.8,622.2,383.3,611.5z"/>
<path fill-rule="evenodd" clip-rule="evenodd" fill="#FFFFFF" d="M392.7,628.4c3.4,1.8,6,1.6,9.1,0.4c4.7-1.9,9.7-2.8,14.5-4.1
	c1.7-0.5,3.6-0.7,4.8-1.7c7.5-6.2,12.4-14.1,9.2-23.9c-2.3-7.1-3.5-15-11.2-19.8c-6.3-4-10.7-5.5-16.9-1.7c-2.6,1.6-5,3.4-7.6,5
	c-3.9,2.4-4.3,5.9-3.1,9.8c3.3,11,5.3,22.1,1.1,33.4C392.4,626.4,392.7,627.2,392.7,628.4z"/>
<path fill-rule="evenodd" clip-rule="evenodd" fill="#FFFFFF" d="M516.4,534.6c0.4,3.3,0.9,6,1.1,8.8c0.6,8.5,9,14.9,17.4,13.5
	c11.9-2,21.3-8.8,28.8-17.2c7.3-8.2,7.6-18.2-6.4-22.6c-4.6-1.4-9.3-2.5-13.8-4c-10.1-3.4-16.4,3.8-23.8,8.1c-0.6,0.3-0.9,1.2-1.1,2
	C517.8,527.1,517.1,531.1,516.4,534.6z"/>
<path fill-rule="evenodd" clip-rule="evenodd" fill="#FFFFFF" d="M576.8,522.8c1-0.1,2,0,2.9-0.4c6.9-3,12.2-8.1,16.4-14
	c1.3-1.9,1.2-5.4,0.7-7.9c-2.1-10.4-10.4-14.8-21.1-16.6c-10.9-1.8-21.5,5-26.4,14.9c-0.3,0.6,0,1.5,0,3c3,1.1,6.2,2.7,9.6,3.2
	C569.1,506.6,574.7,512.7,576.8,522.8z"/>
<path fill-rule="evenodd" clip-rule="evenodd" fill="#FFFFFF" d="M934.5,626.2c-1.7,4.8-3.5,8.7-4.5,12.9c-0.5,2,0.3,4.5,1.1,6.5
	c1.3,3.5,2.8,7,4.6,10.4c2,3.8,3.4,8.8,6.6,10.9c7.8,5,16.8,5.8,25.5,1.8c11.9-5.5,16.7-16.3,19.7-28.1c0.5-1.9,0.3-4.2-0.2-6.1
	c-5.4-19.4-25-20.9-39.3-12.5C945.6,628.3,940.6,627.8,934.5,626.2z"/>
<path fill-rule="evenodd" clip-rule="evenodd" fill="#FFFFFF" d="M930.5,621.2c-3.2-2.7-5.7-4.8-8.2-6.9c-4.6-3.9-10-3.9-14.9-1.7
	c-7.7,3.6-13.8,9.1-17.5,17.1c-5.1,11.2,1.1,26.7,15.7,25.9c1.6-0.1,3.3,1.1,5,1.6c3.5,1.1,7,2.2,12,3.8
	C919,645.9,917.7,632.2,930.5,621.2z"/>
<path fill-rule="evenodd" clip-rule="evenodd" fill="#FFFFFF" d="M774.9,451.3c1.9,2.4,4.1,4.6,5.5,7.2c2.5,4.6,5.3,9.2,6.7,14.2
	c1.7,6,2.2,12.3,3.1,18c6.2-0.8,11.5-1.1,16.6-2.3c4.6-1,8.8-2.8,12.4-6.6c7.6-8.1,6.3-17,3.7-26.2c-2.2-7.8-5.7-14.7-14.2-17.6
	C795.4,433.5,783.2,436.7,774.9,451.3z"/>
<path fill-rule="evenodd" clip-rule="evenodd" fill="#FFFFFF" d="M759.6,455.6c-6.1,2.8-12.8,2-16.5,8.8c-3.3,6.1-8.2,11.4-12.5,17
	c-2.6,3.5-1.6,6.5,0.8,9.6c3.4,4.6,7.4,8,13,9.6c6.4,1.9,12.5,3.9,18.8,0.1c1.9-1.2,4.2-1.8,6.3-2.8c8.2-3.8,10.9-9.3,9-18.4
	c-1.7-8.2-5.9-15-12-20.5C764.6,457.4,761.7,456.7,759.6,455.6z"/>
<path fill-rule="evenodd" clip-rule="evenodd" fill="#FFFFFF" d="M579.3,81.6c-0.5-3.2-0.7-6.6-1.6-9.7c-2.1-7.3-8.6-12.8-14.8-12.2
	c-7.2,0.7-14.2,1-21.1-2.3c-1.8-0.9-4.9-0.9-6.6,0.1c-5.9,3.6-12.1,7.1-16.9,12c-3.5,3.5-4.1,9.5-5.9,14.2
	c-2.4,6.1,1.5,13.3,5.2,18.6c3.2,4.6,8.7,7.2,14.9,8.3c8.8,1.6,17.2,0.4,25.4-2.2C570.5,104.4,578.9,93.3,579.3,81.6z"/>
<path fill-rule="evenodd" clip-rule="evenodd" fill="#FFFFFF" d="M574,47.6c0.4-2,0.5-3.5,1-4.9c2.5-8-0.4-17-7.6-20.9
	c-4.9-2.6-10.2-4.8-15.5-6c-11.7-2.5-20.9,3.9-28.6,11c-6.3,5.8-4.2,21,2.2,27.8c5.1-6.2,12.2-7.4,19.7-7.3c1.2,0,2.6-0.1,3.7-0.5
	C557.3,43.5,565.4,45.4,574,47.6z"/>
<path fill-rule="evenodd" clip-rule="evenodd" fill="#FFFFFF" d="M345.9,342.1c1.3-1.5,3.1-2.9,3.7-4.6c2.6-9-1.2-16.5-9.9-20.1
	c-0.9-0.4-2.1-0.4-2.9-0.9c-6.5-4.9-11.4-3-16.9,2.4c-7.7,7.5-7.3,23.3,1.6,29.3c0.6,0.4,1.3,0.8,2,1.1c8.4,3,16.6,0.3,22.6-7.3
	L345.9,342.1z"/>
<path fill-rule="evenodd" clip-rule="evenodd" fill="#FFFFFF" d="M380.7,352.3c1.4-2.3,2.4-4.1,3.5-5.8c3.5-5.4,2.8-12.5-1.6-17.4
	c-4.3-4.7-10.3-5.8-16.3-2.7c-1.9,1-4.2,2.5-4.8,4.3c-1.7,5.4-2.6,11-3.8,16.4c1.8,4.5,5.4,5.5,9.9,5.2
	C371.9,352.1,376.2,352.3,380.7,352.3z"/>
<path fill-rule="evenodd" clip-rule="evenodd" fill="#FFFFFF" d="M99.9,638.9c0.1-0.5,0.1-1,0.2-1.5c0.5-6.7-3.6-11.5-7.2-16.3
	c-2.7-3.5-6.6-4.5-11-3c-0.7,0.2-2-0.4-2.7-1c-2.9-2.2-5.1-1-7.3,1.2c-2,2-4.5,3.5-6.1,5.7c-3.9,5.6-8,11.2-6.7,18.7
	c0.7,4.2,1,8.4,2.1,12.5c0.6,2,2.2,4.2,3.9,5.4c7.9,5.7,22.3,3.4,28.7-4.2C98.1,651.3,100.4,645.6,99.9,638.9z"/>
<path fill-rule="evenodd" clip-rule="evenodd" fill="#FFFFFF" d="M44.9,647.4c0-1.4,0-2.1,0-2.9c-0.6-10.1,0.6-19.6,8.8-26.9
	c4.4-3.9,3.7-9.7-1.3-12.9c-4.3-2.7-8.8-4.9-14.2-5.1c-5.3-0.2-10.1,1.5-13.6,4.9c-3.7,3.7-6.5,8.5-8.9,13.3
	c-3.7,7-2.1,14.3,0.8,21.2c0.8,1.8,3.2,3,5,4.3c1.6,1.1,4.1,1.6,5,3.1c2.5,4.1,5.5,4.7,9.7,3.2C39.1,648.5,42.1,648.1,44.9,647.4z"
	/>
<path fill-rule="evenodd" clip-rule="evenodd" d="M502.7,90.4c0.8-3.9-1.4-7.1-3.3-11.1c-7.3-15.1-9.8-30.8,0.3-46.1
	c2-3,3.4-6.3,5.2-9.3c2-3.2,4-5.8,7.8-7.8c5-2.6,9.5-6.3,14.7-9.1c5.9-3.2,11.9-5.5,18.3-6.9c2.1-0.5,4.5,0,6.7,0.3
	c12.4,1.7,23,6.4,30.8,16.9c4.8,6.4,12.4,9.2,19.5,12.2c6.5,2.7,13.5,4.1,20.1,6.6c9.2,3.5,18.5,6.7,28.3,8.1
	c9.3,1.3,18.7,1.8,27.9,3.4c7.7,1.4,15.3,3.5,22.7,6.1c11.9,4.2,23.6,9,35.2,13.9c4.9,2,9.4,4.9,14.1,7.4c1.5,0.8,3.2,1.4,4.8,2
	c1.4,0.5,3,0.7,4.2,1.5c15.9,11,33.9,18.9,47.1,34c6.4,7.4,14.6,13.3,22.5,19.3c4.7,3.5,7.3,8.3,10.6,12.7
	c6.9,9.4,13.8,18.7,20.5,28.2c3.8,5.4,7.2,10.9,10.5,16.6c2.4,4.2,4.7,8.5,3.3,13.7c-0.4,1.3-0.1,3.4,0.7,4.4
	c3.8,4.6,3.5,10.5,5.6,15.6c1.7,4.2,3.6,8.4,5,12.7c2.2,6.7,4.7,13.4,5.8,20.4c1.2,7.6,3.6,14.5,7,21.3c1.6,3.4,2.7,7,3.6,10.7
	c2.2,9.1,4.5,18.2,6.1,27.5c2,11.5,3.1,23.1,4.8,34.7c1.4,9.2,3.3,18.4,4.9,27.6c1.4,8.2,2.6,16.5,3.7,24.7
	c1.2,8.5,2.1,17.1,3.1,25.7c0.2,1.5,0.5,3.2,0,4.5c-5.3,12.2-1.8,25.1-3.6,37.6c-0.6,3.9-0.9,8-1.9,11.8c-1.1,3.9-4.5,6.3-7.8,6
	c-3.6-0.3-4.1-3.5-5.1-6c-0.7-1.8-1.4-4.3-0.7-5.8c2.4-5.1,0.6-9.9-0.1-14.8c-0.5-3.4-0.7-6.9-1.2-10.4c-0.2-1.2-0.9-2.3-1.4-3.4
	c-2-4.6-5-9-5.9-13.7c-2.4-12.2-2.6-24.6-3.2-37c-0.8-16.7-1.6-33.4-6-49.7c-1.6-5.8-1.6-12.1-3.1-17.9c-2.4-9.6-5.8-18.9-8.2-28.5
	c-3.2-12.7-7-25.1-12.4-37c-1.2-2.7-1.4-5.9-2.2-8.8c-0.4-1.7-0.9-3.4-1.6-4.9c-3.9-8.7-8.2-17.3-11.8-26.1
	c-2.7-6.6-5.7-12.9-10.1-18.6c-9.9-12.9-19-26.3-28.8-39.2c-4-5.2-8.8-9.8-13.2-14.7c-1.6-1.8-2.9-4-4.8-5.6c-3-2.6-6.4-4.8-9.7-7
	c-10-6.8-19.9-13.8-30.2-20.1c-5.8-3.5-12.3-5.9-18.5-8.6c-6-2.6-12-5.4-18.2-7.4c-5-1.6-10.4-2.1-15.6-3
	c-9.6-1.8-19.3-3.7-28.9-5.2c-11.5-1.8-23-3.3-34.5-4.9c-1.5-0.2-3.1-0.1-4.5,0.3c-9.1,2.2-18.2,4.3-27.3,6.7
	c-3.4,0.9-7.1,1.7-9.9,3.7c-6.6,4.5-14.2,7.3-20.5,12.3c-2.7,2.1-6.2,3.5-9.6,4.5c-9,2.6-18,6-27.2,7
	C519,125.9,501.7,110.4,502.7,90.4z M579.3,81.6c-0.5-3.2-0.7-6.6-1.6-9.7c-2.1-7.3-8.6-12.8-14.8-12.2c-7.2,0.7-14.2,1-21.1-2.3
	c-1.8-0.9-4.9-0.9-6.6,0.1c-5.9,3.6-12.1,7.1-16.9,12c-3.5,3.5-4.1,9.5-5.9,14.2c-2.4,6.1,1.5,13.3,5.2,18.6
	c3.2,4.6,8.7,7.2,14.9,8.3c8.8,1.6,17.2,0.4,25.4-2.2C570.5,104.4,578.9,93.3,579.3,81.6z M574,47.6c0.4-2,0.5-3.5,1-4.9
	c2.5-8-0.4-17-7.6-20.9c-4.9-2.6-10.2-4.8-15.5-6c-11.7-2.5-20.9,3.9-28.6,11c-6.3,5.8-4.2,21,2.2,27.8c5.1-6.2,12.2-7.4,19.7-7.3
	c1.2,0,2.6-0.1,3.7-0.5C557.3,43.5,565.4,45.4,574,47.6z"/>
<path fill-rule="evenodd" clip-rule="evenodd" d="M554,1118.9c-0.7-8-0.6-8.1,7.1-8.8c1.5-0.1,3-0.5,4.4-1
	c7.6-2.8,15.4-4.7,23.6-5.5c4.6-0.4,9.2-2.5,13.7-3.9c15.6-4.8,30.6-11.6,46.9-13.5c8.9-1,16.2-5.6,24-9.1c3.4-1.5,7-2.8,10.2-4.7
	c4.2-2.6,8.7-4.6,12.6-8.1c7.8-7,16.5-13.2,25.2-19.2c5.2-3.6,10.9-6.5,16.7-9c8.3-3.5,13.2-10.6,19.2-16.6c0.3-0.3,0.4-1.1,0.7-1.3
	c7.7-5,12.2-12.9,18.5-19.2c11.3-11.3,26.3-19.6,33.1-34.8c5.1-11.5,12-21.8,18.7-32.2c9.5-15,13.5-32,20.1-48.1
	c4-9.7,6.2-20.2,11.7-29.4c0.8-1.3,1.5-2.9,1.3-4.3c-0.7-7,2.4-12.7,5-18.8c4.5-10.5,7-21.5,8.8-32.8c1.5-9.5,4.4-18.8,7.4-27.9
	c5.3-16,9.1-32.2,11.7-48.9c2.4-15.4-1.2-30.2-2.2-45.3c-0.4-6.1-5.8-8.2-8.9-12.1c-7.9-9.8-12.3-20.5-9-32.9
	c2.3-8.7,6.3-16.5,14.4-22.1c4.5-3.1,8.5-6.6,13.8-8.6c4.6-1.7,8.7-2.3,13.4-0.9c2.4-3.6,5.5-4.4,9.7-4.5c6.7-0.1,13.5-0.4,20.3-1.1
	c6.4-0.6,15.2-1.3,19.4,7.2c0.5,1,2.5,2,3.8,1.9c4.3-0.3,7.2,1.7,10.1,4.5c1.6,1.5,3.7,2.5,5.7,3.7c6.8,4.2,12.1,10.2,13.8,17.6
	c1.3,5.5,0,12.3-1.9,17.8c-2.4,6.9-6.6,13.2-10.4,19.4c-4,6.6-10.8,9.8-17.5,12.4c-0.6,12.2-3.6,23.3-8.4,34
	c-3.6,8-6.6,16.4-9.8,24.6c-4.3,11.1-7.8,22.6-12.8,33.3c-6.3,13.4-14.2,26.1-20.9,39.3c-4.5,8.9-8.2,18.2-12.3,27.3
	c-1.8,4.1-3.8,8.2-5.5,12.4c-4.1,9.8-7.8,19.8-12.1,29.5c-3,6.9-6.9,13.5-10.1,20.4c-5.6,12.1-10.6,24.5-16.3,36.6
	c-3.6,7.6-8,14.7-11.9,22.1c-8.3,15.5-19.2,29.3-30.3,42.9c-1.3,1.6-2.1,5.2-5.7,3.4c-0.2-0.1-1,0.4-1,0.6c-0.2,6.2-6.1,7-9.4,10.1
	c-3.2,3-4.8,7.7-9.8,8.8c-0.6,0.1-1.1,1-1.5,1.7c-9.1,14.8-23.4,23.7-37.8,32.3c-17.4,10.4-35.2,20.1-52.8,30.1
	c-3.9,2.2-7.7,4.5-11.6,6.7c-0.4,0.3-1,0.7-1.4,0.5c-8.4-2.6-14.2,4-21.2,6c-11.4,3.3-22.9,6.6-33.6,11.6c-14.9,6.9-31,6.9-46.5,10
	C575.9,1125.5,564.7,1124.3,554,1118.9z M934.5,626.2c-1.7,4.8-3.5,8.7-4.5,12.9c-0.5,2,0.3,4.5,1.1,6.5c1.3,3.5,2.8,7,4.6,10.4
	c2,3.8,3.4,8.8,6.6,10.9c7.8,5,16.8,5.8,25.5,1.8c11.9-5.5,16.7-16.3,19.7-28.1c0.5-1.9,0.3-4.2-0.2-6.1
	c-5.4-19.4-25-20.9-39.3-12.5C945.6,628.3,940.6,627.8,934.5,626.2z M930.5,621.2c-3.2-2.7-5.7-4.8-8.2-6.9
	c-4.6-3.9-10-3.9-14.9-1.7c-7.7,3.6-13.8,9.1-17.5,17.1c-5.1,11.2,1.1,26.7,15.7,25.9c1.6-0.1,3.3,1.1,5,1.6c3.5,1.1,7,2.2,12,3.8
	C919,645.9,917.7,632.2,930.5,621.2z"/>
<path fill-rule="evenodd" clip-rule="evenodd" d="M561.7,978.2c-2.9,2.4-4.8,5.1-7.4,6.1c-11,4.3-21.5,10.2-33.3,12.4
	c-8.2,1.5-16.1,4.4-24.3,6.1c-11.6,2.3-23.4,4.1-35.1,6c-3,0.5-5.9,0.9-8.9,1.3c-19.4,3-39,1.3-58.5,1c-9.3-0.1-18.6,0.3-27.9,0.2
	c-5,0-10-0.4-15-1c-8.9-1.2-17.9-1.7-26.4-4.4c-14.5-4.6-29.7-6.5-43.8-12.8c-9.1-4.1-19.4-5.3-28.8-8.8
	c-15.2-5.6-30.9-10.6-45.1-18.3c-18.7-10.1-36.2-22.4-53.9-34.3c-8.5-5.7-16.7-12.3-24.2-19.2c-7.6-7.1-14.7-14.8-21.3-22.9
	c-3.1-3.8-5.2-8.8-6.8-13.5c-4.4-13.6-11.1-26-19.3-37.7c-1.4-2-2.1-4.6-3.2-6.9c-8.1-16.8-16.3-33.7-24.5-50.5
	c-1.3-2.6-3.4-4.8-4.4-7.5c-1-2.8-1.3-5.9,2-8.2c1.3-0.9,1.7-3.2,2.8-5.5c1.7,0.3,3.9,0.4,6,1.1c4.5,1.5,7.6,3.9,9.4,8.9
	c3.2,8.5,4.4,17.6,8.8,25.8c7.7,14.2,14.7,28.9,22,43.3c0.6,1.1,1,2.6,2,3.2c6.5,4.4,7,11.8,9.7,18.2c0.3,0.7,0.4,1.6,0.8,2.1
	c5.5,7,10.3,14.6,16.7,20.6c7.9,7.4,16.8,13.8,25.8,20c4.5,3.1,10,4.7,15.1,7.1c12.9,6.1,23.8,15.3,35.7,23.1
	c6.7,4.4,14,8,20.8,12.3c13,8,27.8,9.9,42.3,12.8c1.5,0.3,3.6-0.1,4.4,0.8c5.1,5.4,12,3.1,17.9,4.7c4.1,1.1,8.3,2.2,12.5,2.8
	c4.4,0.7,8.9,0.8,13.4,1.2c15.3,1.2,30.5,2.7,45.8,3.5c6.5,0.3,13.1-0.5,19.6-1.3c13.3-1.7,26.6-3.5,39.8-5.8c5.6-1,11.1-3,16.6-4.7
	c6.3-1.9,12.5-3.9,18.8-5.7c11.7-3.3,23.5-6.1,34.2-12.1c3.3-1.8,6.3-4.3,9-6.9c6.3-5.8,12.5-11.9,18.7-17.9
	c1.1-1.1,2.5-2.2,2.9-3.5c2.8-11.6,11.8-19.2,18.1-28.4c5.7-8.4,14.5-12,24.2-14.1c8-1.7,15.4,0.3,23.1,1.7
	c7.6,1.3,12.6,5.6,17,11.5c1.9,2.6,4.8,4.4,7.2,6.6c8.2,7.2,14.2,15.6,14.9,27c0.4,6.5,0.7,13,1.3,19.4c1.4,14.6-3.4,27.2-13.5,37.3
	c-7.1,7.2-16.3,11.9-26.3,14.4c-7.6,1.9-13.8-2.2-20.2-5.3C566.4,982.4,564,980,561.7,978.2z M561.4,941.4
	c-2.9,9.6-0.9,17.2,5.7,23.6c2.6,2.5,4.8,5.3,7.6,7.5c6.7,5.2,13.3,7.2,22,2.5c12.7-6.8,18.9-17.2,21.5-30.4
	c2.2-11.1-2.9-16.6-14.2-16.6c-1.8,0-3.6-0.5-5.3-0.3c-1.4,0.1-3,0.7-4,1.5c-8.2,7-17.9,9.8-28.2,11.3
	C564.8,940.8,563.1,941.1,561.4,941.4z M545.9,908.7c0.3,15.9,15.2,26.2,29.6,17.7c1.1-0.6,2.4-1,3.3-1.8c4.3-3.8,9.9-6.9,12.5-11.7
	c4.5-8.3,2.3-17.4-4-24c-5.3-5.6-12.4-9.9-20.9-5.9c-5,2.3-11.2,4-14.2,8C548.7,895.9,547.9,902.8,545.9,908.7z"/>
<path fill-rule="evenodd" clip-rule="evenodd" d="M433.3,57.6c-1.2,2.3-4.3,3.2-2.9,6.8c0.5,1.3-2.5,3.9-4.2,6.2
	c-2-1.3-3.4-2.3-4.9-3c-1.5-0.7-3.3-1.5-4.8-1.2c-6.9,1.3-14,2.2-20.6,4.6c-11.8,4.3-23.5,9.3-34.9,14.7c-5.1,2.4-9.1,7-13.9,10.1
	c-15.6,9.9-31.5,19.4-47,29.3c-2.9,1.8-4.9,5-7.3,7.7c-5.2,5.8-10.2,12-15.7,17.5c-5,5-10.5,9.3-15.8,14c-4.9,4.4-9.7,8.9-14.6,13.2
	c-4.8,4.1-10,7.6-14.5,11.9c-3.2,3-5.9,6.7-8.3,10.4c-4.2,6.4-7.5,13.2-11.9,19.4c-6.7,9.4-12.1,19.6-19.3,28.9
	c-10,13-22.1,24.7-26.9,41.3c-1.8,6.2-5.8,11.6-8.8,17.5c-0.7,1.3-0.9,2.9-1.4,4.3c-2.3,6.9-4.6,13.9-6.9,20.8
	c-1.9,5.7-3.9,11.3-5.9,17c-2.1,6-4.5,11.9-6.1,18c-4.4,16.9-8.4,33.9-12.5,50.8c-0.3,1.2-0.7,2.5-0.7,3.7
	c0.4,13.1-3.8,25.5-5.7,38.2c-1.5,9.9-5.6,19.3-4.6,29.7c0.3,3.4-2.3,7-3.6,10.6c-3.2,8.9-1.4,18-1.3,27c0,5.8,0.7,11.5,0.8,17.3
	c0.1,3.3-0.5,6.5-0.7,9.8c-0.2,2.5-0.4,5.1-0.3,7.6c0.2,7.3,0.6,14.6,0.9,21.9c0.4,8.2,0.9,16.5,1.1,24.7c0.2,6-0.1,12-0.1,18
	c0,0.9,0.3,1.9,0.4,2.8c0.2,1.5,1.1,3.3,0.5,4.5c-3.9,9.3-1.2,21.2-10.7,28.1c1.6,8.5-0.1,10.9-8.1,14.1c-6.8,2.8-13.1,6.8-20,9.2
	c-14.2,4.9-27,1.8-38.2-8.2c-0.6-0.5-1.3-1-1.6-1.6c-3.2-9.1-11.8-12.7-18.4-18.3c-13.7-11.5-18.1-34-8.1-48.2
	c6-8.5,13.3-16.2,24.2-19.7c10.3-3.3,18.1-10.4,22.7-20.5c4.1-8.9,8.6-17.8,12.1-26.9c5.8-15.4,9.8-31.3,12.6-47.6
	c1.9-11.4,5.6-22.6,8.3-33.9c3.3-14,6.6-27.9,9.7-41.9c1.9-8.6,2.4-17.8,5.7-25.8c3.6-8.8,3-18.1,6.2-26.8c1.3-3.7,1.2-8,2-11.9
	c0.5-2.4,1.3-5,2.7-7c4.8-7.2,7.1-15.4,10.6-23.2c6.9-15.6,9.4-32.6,16.3-48.1c4.8-10.7,7.6-22.3,15.2-32
	c6.6-8.5,11.3-18.4,17.4-27.4c2.8-4,6.8-7.2,10.3-10.7c0.5-0.5,1.8-0.7,1.8-1.1c0.4-7,6.9-10,10.4-15c5.3-7.7,11.1-15.5,19.1-21.1
	c6.6-4.6,12.7-10,18.5-15.5c6.8-6.4,13.2-13.3,19.7-20c1.7-1.8,11.3-7.2,13.7-7.9c1.6-0.5,3.4-1.1,4.7-2.1c6-5,13-8,19.8-11.6
	c4.4-2.3,8.2-5.9,12.3-8.7c6.5-4.3,12.6-9.2,20.3-11.4c2.1-0.6,4.1-2,6.1-3c8.1-3.9,16.2-7.8,24.4-11.8c1.1-0.5,2.1-1.2,3.1-2
	c4.3-3.6,9.1-6.2,14.4-8.1c10.2-3.6,20.3-7.5,30.5-11c3.6-1.2,7.3-1.9,11-2.9C419.9,49.7,427.1,51.3,433.3,57.6z M99.9,638.9
	c0.1-0.5,0.1-1,0.2-1.5c0.5-6.7-3.6-11.5-7.2-16.3c-2.7-3.5-6.6-4.5-11-3c-0.7,0.2-2-0.4-2.7-1c-2.9-2.2-5.1-1-7.3,1.2
	c-2,2-4.5,3.5-6.1,5.7c-3.9,5.6-8,11.2-6.7,18.7c0.7,4.2,1,8.4,2.1,12.5c0.6,2,2.2,4.2,3.9,5.4c7.9,5.7,22.3,3.4,28.7-4.2
	C98.1,651.3,100.4,645.6,99.9,638.9z M44.9,647.4c0-1.4,0-2.1,0-2.9c-0.6-10.1,0.6-19.6,8.8-26.9c4.4-3.9,3.7-9.7-1.3-12.9
	c-4.3-2.7-8.8-4.9-14.2-5.1c-5.3-0.2-10.1,1.5-13.6,4.9c-3.7,3.7-6.5,8.5-8.9,13.3c-3.7,7-2.1,14.3,0.8,21.2c0.8,1.8,3.2,3,5,4.3
	c1.6,1.1,4.1,1.6,5,3.1c2.5,4.1,5.5,4.7,9.7,3.2C39.1,648.5,42.1,648.1,44.9,647.4z"/>
<path fill-rule="evenodd" clip-rule="evenodd" d="M260.9,435.6c1.5,3.2,2.7,5.9,4.1,8.8c-6,12-12.1,24.3-18.1,36.5
	c-1,2.1-2.1,4.1-2.9,6.2c-3.7,10.7-7.8,21.4-10.9,32.3c-3.6,12.4-6.3,25.1-9.4,37.6c-2.4,9.8-5.4,19.4-7.1,29.3
	c-1.9,11.4-3.2,23-3.9,34.6c-0.8,12.7-1.3,25.4-1,38.1c0.4,12.5,5.1,24.3,8.9,36.1c4.2,13.1,9.5,25.6,18,36.5
	c5.2,6.6,9.2,14.2,16.4,19.4c4.8,3.5,8.6,8.2,13.6,11.9c8.2,6.1,17.3,9.7,26.7,12.7c5.8,1.9,12.4,1.9,18.6,1.6
	c5.5-0.3,10.9-2.1,16.5-0.2c0.9,0.3,2.6-0.3,3.4-1c4.3-3.4,8.6-6.5,10.3-12.6c2.8-10.2,18.4-17.9,29.1-14.9
	c9.1,2.5,17.5,6.5,24.9,12.5c0.4,0.3,0.7,1,1.1,1c7.7,0.6,7.8,6.4,8.8,12c1,5.7,2.3,11.1,1.8,17.1c-1.3,15.5-9.8,25.6-21.7,34
	c-3.6,2.6-6.3,6.4-9.5,9.6c-10.5,10.4-28.7,10.4-39.9,0.7c-3.3-2.9-7.9-4.3-12.1-6c-6.1-2.5-12.3-4.7-18.5-6.8
	c-2.3-0.8-4.8-1-7.2-1.4c-1.7-0.3-3.6-0.1-5.2-0.7c-6.8-2.7-13.6-5.6-20.4-8.4c-3-1.2-6.3-2-9.2-3.5c-5.3-2.8-11.6-3.7-15.8-8.7
	c-1.4-1.6-3.8-2.7-6-3.2c-7.1-1.6-12.3-6.1-17-11.1c-10.4-10.8-20.4-21.9-26.2-36c-0.4-0.9-0.5-2.3-1.2-2.7
	c-6.4-4.1-6.6-11.5-9.4-17.5c-2.8-5.9-4.9-12.1-7.2-18.2c-0.5-1.4-0.5-3-0.6-4.5c-0.4-3.2-0.3-6.6-1.1-9.7
	c-2.4-9.1-2.2-18.3-2.1-27.6c0.1-18.3,1.7-36.4,6-54.3c0.4-1.5,0.6-3,0.7-4.5c0.5-6.1,1.7-11.7,4.4-17.4c3.8-8,6.1-16.7,9-25
	c1.9-5.4,4.1-10.8,5.9-16.3c5.9-18,11.2-36.3,17.7-54.1c3.5-9.7,9-18.7,13.6-28.1c1.4-3,2.8-6,4.2-8.9c3.6-7.3,7.2-14.5,10.9-21.7
	C253.6,435.7,256.6,434.3,260.9,435.6z M391.8,775c-1.3-2.3-2.1-5-3.9-6.7c-3.3-3.1-6.7-6.6-10.8-8c-4.3-1.5-9.4-3-14.2,0.8
	c-7.6,6-9.2,14.1-3.9,22.8c4.5,7.4,7.8,8.8,16,6c3-1,5.7-2.9,8.7-3.9C388.7,784.1,390.9,780.6,391.8,775z M374.7,819.7
	c-8.8,5.1-11.4,4.6-14-1.5c-1.3-3.2,1.2-10.4,4-11.3c3.3-1.1,7.7,2,8.9,6.4c0.1,0.5,0,1,0.2,1.5c0.3,1.2,0.7,2.4,1.4,5
	c3-6.3,3.8-11.3,2.7-17.1c-9.1,1.9-17.7,2.5-26.1-2.6c-2.1,6.5-4.3,12.1-5.8,18c-1,4,1.9,8.2,6.1,10.2
	C359,831.5,368.2,828.4,374.7,819.7z"/>
<path fill-rule="evenodd" clip-rule="evenodd" d="M826.2,491.3c5,4.8,4.2,11.5,5.2,17.6c1.1,7.5,2.3,15.1,2.6,22.6
	c0.3,7.3-0.5,14.7-0.9,22c-0.4,5.5-0.9,11.1-1.5,16.6c-0.4,3.5-1.1,7-1.4,10.5c-0.3,2.9-0.1,5.9-0.2,8.9c0,1.8-0.1,3.5-0.3,5.3
	c-1.2,9.7-2.2,19.5-3.8,29.2c-1.6,9.7-3.4,19.5-5.9,29c-2.3,8.5-5.7,16.7-8.5,25.1c-0.7,2.1-1,4.4-1.6,6.6
	c-4.6,15-8.9,30.2-15.9,44.3c-1.1,2.2-1.4,4.8-2.3,7.1c-1.4,3.8-1.3,8-5.9,10.7c-2.8,1.7-4,6.3-5.9,9.6c-3.9,6.8-7.3,14-12,20.2
	c-5.2,6.8-9.8,14.1-14.9,21c-0.5,0.6-0.8,1.4-1.3,1.9c-11.8,9.7-20.4,22.8-33.4,31.4c-6.5,4.3-11.7,10.3-17.6,15.5
	c-2.8,2.5-5.4,5.2-8.4,7.3c-8.5,6-8.8,4.8-15.6-2.6c2.1-2,4.1-4.1,6.2-6.1c2-1.9,4.6-3.3,6.2-5.5c5-7,12.4-11.2,18.2-17.1
	c6.4-6.6,12.9-13.2,18-21c2.6-3.9,6.9-6.6,10.2-10.1c5.2-5.5,10.4-11.1,15.1-17c2.5-3.1,3.8-7.1,5.6-10.7c2.6-5.2,4.2-10.6,8.7-14.9
	c2.8-2.7,4.2-7.5,5-11.6c0.9-4.7,3-8.4,5.3-12.4c7.3-12.8,9.3-27.3,11.8-41.5c2.1-12.2,3.7-24.5,5.2-36.8c0.8-6.8,1.6-13.7,1.5-20.5
	c-0.2-9.8-0.9-19.6-1.8-29.4c-0.6-7.1-1-14.3-3-21c-2.6-8.7-6.3-17.1-10.4-25.2c-4.4-8.7-11.3-15.2-19.5-20.6
	c-4.3-2.9-7.5-7.4-11.4-10.9c-3.6-3.1-7.8-5.6-11.5-8.8c-2.2-1.9-5.2-3.3-5.3-7c0-0.9-2-2.1-3.3-2.4c-4.7-1-6.2-4.2-7.6-8.4
	c-2.6-7.9,0.6-15.5,0.6-23.2c0-1.1,0.8-2.4,1.6-3.4c3.2-4.2,6.2-8.7,9.9-12.4c6.5-6.6,13-13.4,20.3-19c4.5-3.4,10.4-5.1,15.8-6.9
	c6-1.9,12.1-4,18.3-4.3c10.8-0.5,22.1-1.4,31.9,4c4.6,2.5,8.4,7.4,11.3,12c5.4,8.7,6.5,18.9,8.4,28.8c0.4,2-0.3,4.6-1.4,6.5
	C833.3,480,829.7,485.5,826.2,491.3z M774.9,451.3c1.9,2.4,4.1,4.6,5.5,7.2c2.5,4.6,5.3,9.2,6.7,14.2c1.7,6,2.2,12.3,3.1,18
	c6.2-0.8,11.5-1.1,16.6-2.3c4.6-1,8.8-2.8,12.4-6.6c7.6-8.1,6.3-17,3.7-26.2c-2.2-7.8-5.7-14.7-14.2-17.6
	C795.4,433.5,783.2,436.7,774.9,451.3z M759.6,455.6c-6.1,2.8-12.8,2-16.5,8.8c-3.3,6.1-8.2,11.4-12.5,17c-2.6,3.5-1.6,6.5,0.8,9.6
	c3.4,4.6,7.4,8,13,9.6c6.4,1.9,12.5,3.9,18.8,0.1c1.9-1.2,4.2-1.8,6.3-2.8c8.2-3.8,10.9-9.3,9-18.4c-1.7-8.2-5.9-15-12-20.5
	C764.6,457.4,761.7,456.7,759.6,455.6z"/>
<path fill-rule="evenodd" clip-rule="evenodd" d="M341.3,304.8c0.7-4.3,3-5.4,6.6-4.5c1.3,0.3,3.1,0.2,4.3-0.4
	c12.5-6,25.9-9.6,37.5-17.8c10.1-7.1,21.2-13.1,32.6-17.9c8.2-3.4,17.6-4.1,26.6-5.7c7.9-1.4,15.9-2.2,23.8-3.3
	c0.7-0.1,1.5-0.7,2.2-0.6c11.2,2.7,22.1-0.6,33.1-1.4c19.3-1.4,38.4,0.2,57.5,2c11.2,1.1,22.2,4.8,33.4,5.7
	c13.5,1.1,26,6.1,39.1,8.7c6.6,1.3,13,4.2,19.3,6.8c16.1,6.6,32.2,13.4,48.2,20.4c2.7,1.2,5.1,3.3,7.2,5.4c4.8,5.1,9,10.8,14,15.7
	c6.6,6.6,10.4,14.9,15,22.7c0.4,0.7,1.1,1.5,0.9,2c-2.2,5.5,1.8,9.5,3.5,14.1c-1.5,2.6-2.8,5-4.3,7.7c-7.1-0.3-11.6-4.4-15.2-9.8
	c-1.5-2.3-2.7-4.9-4.3-7.1c-5.7-8.3-10.9-17.1-17.5-24.6c-4.8-5.4-11.5-9-17.3-13.4c-4.2-3.2-9-4.7-14.1-6.1
	c-4.4-1.2-8.5-4-12.6-6.1c-8.9-4.5-18.3-5.9-27.7-7.4c-9.9-1.5-20-2.2-30-3.2c-0.8-0.1-1.5-0.1-2.3-0.4c-10-3.4-20.5-2.2-30.7-3.5
	c-8.8-1.1-17.5-1.8-26.3,0c-2.2,0.5-4.7,0.4-6.8-0.2c-14.1-3.4-28.1-0.8-42,0.5c-6.2,0.6-12.3,2.9-18.4,4.7
	c-14.1,4.1-28.1,8.2-42.1,12.7c-8.7,2.8-15.4,9-21.2,15.6c-7.2,8.2-12.1,17.7-15.3,28.4c-3.4,11.1-10,19.9-23.2,21.1
	c-2.6,0.2-5.2,1.8-7.5,3.1c-5.7,3.3-11.2,6.9-16.8,10.4c-6.4,4-12.6,4.6-18.9-0.3c-1.2-0.9-2.6-1.7-4.1-2c-7.7-1.6-11.8-7.5-15-13.7
	c-3.5-6.7-5.8-14-9.3-20.8c-5.1-9.9-3.1-18.7,3.3-26.9C315.2,304.8,326.4,300.5,341.3,304.8z M345.9,342.1c1.3-1.5,3.1-2.9,3.7-4.6
	c2.6-9-1.2-16.5-9.9-20.1c-0.9-0.4-2.1-0.4-2.9-0.9c-6.5-4.9-11.4-3-16.9,2.4c-7.7,7.5-7.3,23.3,1.6,29.3c0.6,0.4,1.3,0.8,2,1.1
	c8.4,3,16.6,0.3,22.6-7.3L345.9,342.1z M380.7,352.3c1.4-2.3,2.4-4.1,3.5-5.8c3.5-5.4,2.8-12.5-1.6-17.4c-4.3-4.7-10.3-5.8-16.3-2.7
	c-1.9,1-4.2,2.5-4.8,4.3c-1.7,5.4-2.6,11-3.8,16.4c1.8,4.5,5.4,5.5,9.9,5.2C371.9,352.1,376.2,352.3,380.7,352.3z"/>
<path fill-rule="evenodd" clip-rule="evenodd" d="M554.7,556.1c-6.2,7.5-13.4,11.9-22.4,11.3c-7.3-0.4-15-1.1-18.4-9.6
	c-0.6-1.5-2.6-2.4-3.8-3.7c-1.6-1.7-3.5-3.2-4.4-5.2c-3.6-8.5-6.1-17.4-3.6-26.6c1.2-4.2,4.1-8,6.7-11.7c5-7,10.3-13.8,15.5-20.5
	c5.1-6.5,12.3-9.6,20-11.6c1.5-0.4,3.6,1.2,5.7,2c2.1-1.4,4.5-2.8,6.7-4.5c5.1-3.9,10.7-5.4,17.2-4.7c16.8,1.8,29.2,9.6,35.7,25.7
	c0.6,1.5,0.7,3.4,0.4,5c-1.1,6-2.2,12-3.8,17.9c-1.5,5.3-1.6,10.3,0.3,15.6c2.1,5.8,2.2,12.5,7.5,16.8c1.6,8.5,4.1,16.9,4.5,25.4
	c0.4,10.6-1.2,21.3-1.6,32c-0.3,7.1,0.1,14.2,0.2,21.2c0,2,0.3,4.1,0.1,6.1c-0.6,4.8-1.8,9.5-2.1,14.3c-0.5,9-2.9,17.5-5.3,26
	c-3.8,13.5-8.9,26.5-16.6,38.3c-4.9,7.4-9.7,14.9-15.4,21.6c-4.7,5.5-10.2,10.6-16.3,14.4c-14.8,9.3-31.7,14.1-47.6,20.9
	c-9.5,4-19.1,6.9-29,8.9c-3.2,0.6-6.5,1-9.8,1.2c-5.8,0.3-11.6,0.4-17.5,0.7c-3.6,0.2-7.6-2.4-8.3-5.4c-0.6-2.7,1.5-6.8,4.7-7.8
	c7.4-2.3,15-4.2,22.5-6.2c2.7-0.7,5.4-1.3,8-2c4.9-1.3,9.6-3.3,14.6-3.9c9.9-1.1,16.1-8.2,23.7-13.1c4.8-3.1,9-7,13.8-10.1
	c7.4-4.8,11.2-12.8,16.7-19.2c4.1-4.7,7-10.6,9.8-16.2c5.4-10.9,10.8-21.8,14-33.6c1.3-4.6,1.9-9.4,3-14.1
	c1.6-6.9,4.1-13.6,4.9-20.6c0.8-7.7,0.7-15.6-0.1-23.4c-1-10.3-2.7-20.6-4.5-30.8c-1-5.9-8.4-13-13.8-12.1c-5.1,0.9-6.9-1.7-9.1-4.9
	C556.7,558.7,555.8,557.6,554.7,556.1z M516.4,534.6c0.4,3.3,0.9,6,1.1,8.8c0.6,8.5,9,14.9,17.4,13.5c11.9-2,21.3-8.8,28.8-17.2
	c7.3-8.2,7.6-18.2-6.4-22.6c-4.6-1.4-9.3-2.5-13.8-4c-10.1-3.4-16.4,3.8-23.8,8.1c-0.6,0.3-0.9,1.2-1.1,2
	C517.8,527.1,517.1,531.1,516.4,534.6z M576.8,522.8c1-0.1,2,0,2.9-0.4c6.9-3,12.2-8.1,16.4-14c1.3-1.9,1.2-5.4,0.7-7.9
	c-2.1-10.4-10.4-14.8-21.1-16.6c-10.9-1.8-21.5,5-26.4,14.9c-0.3,0.6,0,1.5,0,3c3,1.1,6.2,2.7,9.6,3.2
	C569.1,506.6,574.7,512.7,576.8,522.8z"/>
<path fill-rule="evenodd" clip-rule="evenodd" d="M441.7,605.2c0.6,13.6-5.9,23.6-17.5,29.6c-7.6,3.9-13,10.1-19.7,15
	c-2.4,1.8-4.6,4-6.8,6.1c-3.5,3.1-7.5,5-12.3,5.2c-3.5,0.2-7.1,1.4-10.5,1.1c-3.7-0.3-7.6-1.2-10.7-3.1c-6.8-4.1-14-6.7-21.6-8.8
	c-8.3-2.2-16.2-13.3-17.4-21.9c-1.2-8.5,2-15.8,4.3-23.4c1.1-3.6,2-7.4,1.9-11.1c-0.3-8.4,1-16.4,6.2-22.9c5.6-7.1,7-15.7,10-23.6
	c2.4-6.3,3.8-12.9,3.6-20c-0.1-3.8,2.7-7.7,4.3-11.6c1.5-3.7,3.6-7.3,4.7-11.2c4.5-16.6,15-28.9,28.1-39.2c1.3-1,3-1.8,4.7-2.1
	c2.5-0.6,4.8-0.9,6.2-3.7c0.6-1.2,2.2-2.2,3.6-2.7c14.8-6.1,29.9-11,45.6-14.2c10.7-2.1,19.9,2.1,28.4,8.2c2.8,2,5.9,4,8.2,6.5
	c1.7,1.9,3.7,5.1,3.2,7.1c-0.8,3.1-3.5,5.8-5.7,8.4c-0.4,0.5-2.8,0.1-3.4-0.6c-4.4-4.9-10.7-4-16.1-5.7c-3.6-1.1-7.3-2-11-2.8
	c-10-2-20.2-3-29.5,2.1c-7.1,3.9-14,8.3-20.4,13.2c-3.5,2.7-6.4,6.5-8.5,10.5c-6.7,12.7-8,26.3-6.8,40.5c0.8,9.4,4.2,17.4,9.1,25.1
	c3,4.7,6.8,7.6,13.2,6.7c3.8-0.5,8.8-0.1,11.7,2c5.4,4,12.3,7.3,14.7,14.1c3,8.5,6.9,16.9,6.5,26.3
	C441.7,604.7,441.7,605,441.7,605.2z M383.3,611.5c-0.2-5.8,0.2-10.5-3.4-14.6c-6.4-7.3-17.2-9.1-25.9-3.9
	c-6,3.6-11.8,7.4-17.7,11.2c-0.6,0.4-1.4,1-1.5,1.6c-1.2,4.9-3,9.8-3.1,14.7c-0.2,6.5,8.6,14.7,15.1,14.7c5.7,0,11.3-0.7,17-1.3
	C373.9,632.5,384.8,622.2,383.3,611.5z M392.7,628.4c3.4,1.8,6,1.6,9.1,0.4c4.7-1.9,9.7-2.8,14.5-4.1c1.7-0.5,3.6-0.7,4.8-1.7
	c7.5-6.2,12.4-14.1,9.2-23.9c-2.3-7.1-3.5-15-11.2-19.8c-6.3-4-10.7-5.5-16.9-1.7c-2.6,1.6-5,3.4-7.6,5c-3.9,2.4-4.3,5.9-3.1,9.8
	c3.3,11,5.3,22.1,1.1,33.4C392.4,626.4,392.7,627.2,392.7,628.4z"/>
<path fill-rule="evenodd" clip-rule="evenodd" d="M534.4,94.4c-5.1-2.5-6.8-7.2-7.4-12.3c-0.6-5.1,1.9-7.6,7.5-8.2
	c4.8-0.5,7.6,1.8,8.3,6.6C543.9,87.7,542.3,90.2,534.4,94.4z"/>
<path fill-rule="evenodd" clip-rule="evenodd" d="M543.2,38.2c-2,0.5-3.8,0.9-5.9,1.4c-2.3-2.7-4.7-5.5-6.9-8.1
	c3.6-6.6,5.2-7.5,9.2-5.9C544.3,27.4,545,29.5,543.2,38.2z"/>
<path fill-rule="evenodd" clip-rule="evenodd" d="M949.1,633.5c1.4-1.9,2.8-3.9,4.3-5.9c1.9,0.5,4.3,0.6,5.6,1.8
	c1.7,1.5,3.7,4,3.7,6c0,2.5-1.5,5.3-3.2,7.3c-1.6,1.8-5.9,0.1-7.7-2.8C950.7,638,950,635.8,949.1,633.5z"/>
<path fill-rule="evenodd" clip-rule="evenodd" d="M918.6,622.9c-1,2.6-2,4.2-2.2,5.9c-0.5,3.2-2,5.3-5.3,5.1
	c-2.6-0.2-5.6,0.5-7.4-2.6c-1.8-3.1-2-6.3-0.6-9.3c0.5-1,2.6-1.8,3.8-1.6C910.5,620.8,914.1,621.8,918.6,622.9z"/>
<path fill-rule="evenodd" clip-rule="evenodd" d="M606.8,957.9c-6-3.6-7.6-6.4-6.3-10.9c1-3.4,3.8-3.6,6.6-3.9
	c3.3-0.3,4.4,1.9,5.3,4.4C614,952.1,613.2,953.6,606.8,957.9z"/>
<path fill-rule="evenodd" clip-rule="evenodd" d="M578.1,914c-4.8-2.5-7.2-6-6.1-10.7c0.3-1.3,3.6-2.7,5.5-2.6
	c3.4,0,6.7,1.4,7.4,5.3C585.8,910.9,582,912.4,578.1,914z"/>
<path fill-rule="evenodd" clip-rule="evenodd" d="M73.3,632.4c1.3-0.1,2.6-0.3,3.8-0.3c4.8,0.2,9.2,6.7,7.6,11.2
	c-1,2.8-4.6,5-7.2,4.3c-3.4-0.9-6.5-4.7-6.1-7.8C71.7,637.6,72.5,635.5,73.3,632.4z"/>
<path fill-rule="evenodd" clip-rule="evenodd" d="M30.9,634.3c-2.9-3.8-6.3-6.9-2.8-11.7c2.6-3.6,6.1-4.1,12.8-1.6
	c-0.9,3.8-1.8,7.8-2.9,12.1C35.5,633.6,33.1,634,30.9,634.3z"/>
<path fill-rule="evenodd" clip-rule="evenodd" d="M383.3,774.3c-0.5,2.5-0.9,5.3-1.7,7.9c-1,3.3-4.9,4.8-8,3.2
	c-3.7-1.8-5.2-5.2-4.5-9.7c0.2-1,0.2-2,0.2-3c0.4-5.7,1.6-7.1,5.7-6.9C379.8,766,383.3,769.5,383.3,774.3z"/>
<path fill-rule="evenodd" clip-rule="evenodd" d="M799,462.1c-5.1-3.2-6.5-7.8-5.9-13.6c3.2-0.5,6.6-1,10.3-1.6
	c1.6,1.8,3.3,3.7,5.2,5.7C806.7,457.4,804.3,461.2,799,462.1z"/>
<path fill-rule="evenodd" clip-rule="evenodd" d="M758.3,462.7c4.9-0.1,8.6,3.1,8.7,7.5c0,3-4.8,8.1-7.9,8.3
	c-4,0.2-10.9-4.6-11.1-7.6C747.9,467.6,753.8,462.8,758.3,462.7z"/>
<path fill-rule="evenodd" clip-rule="evenodd" d="M346.1,341.9c-1.5,0.8-2.9,1.7-4.4,2.4c-5.1,2.2-9.1-0.5-8.9-6.1
	c0.1-3.1,1.7-6.3,4.5-9c0.8,0.4,1.6,1,2.5,1.3c8.9,2.8,8.9,2.7,6.1,11.7C345.9,342.1,346.1,341.9,346.1,341.9z"/>
<path fill-rule="evenodd" clip-rule="evenodd" d="M362.6,338.5c5.5,0.8,10.5-4.3,13.9,2.1c1.5,2.8,1.7,5.8-0.7,8.4
	c-1.9,2-8.8,3.1-11.4,1.4C359.7,347.3,363.5,343.1,362.6,338.5z"/>
<path fill-rule="evenodd" clip-rule="evenodd" d="M536.1,523.8c2.7,4.4,4.6,7.5,6.6,10.8c-2.8,2.4-4.9,4.1-6.9,5.9
	c-5.1,4.5-8.4,3.9-11.4-2.3c-0.5-1.1-0.8-2.4-1.6-4.6C526.7,530.8,530.8,527.7,536.1,523.8z"/>
<path fill-rule="evenodd" clip-rule="evenodd" d="M568,487.7c3.1,1.5,6.2,3,10,4.8c-1.4,3.4-2.9,7.1-4.3,10.6
	c-5.9,1.3-10.2-0.2-12.2-4.3C560,495.5,562.3,491.6,568,487.7z"/>
<path fill-rule="evenodd" clip-rule="evenodd" d="M352.8,622.9c-1.4-4.8,0.7-7.8,4.1-9.8c3.5-2.1,6.8-0.8,11,3.7
	C364.9,622.9,359.8,624.2,352.8,622.9z"/>
<path fill-rule="evenodd" clip-rule="evenodd" d="M414.5,597.7c2.8,0,5.8,5.4,5.6,10.1c-0.2,3.8-4.4,7.8-7.9,7.7
	c-4-0.2-7.2-3.2-7.3-6.9C404.7,602,408.5,597.7,414.5,597.7z"/>
</svg>
