<?xml version="1.0" encoding="utf-8"?>
<!DOCTYPE svg PUBLIC "-//W3C//DTD SVG 1.1//EN" "http://www.w3.org/Graphics/SVG/1.1/DTD/svg11.dtd">
<svg artist="zl2017" version="1.1" id="zlIcon-computer-squirrel" xmlns="http://www.w3.org/2000/svg" xmlns:xlink="http://www.w3.org/1999/xlink"
	 x="0px" y="0px" width="1000px" height="921.7px" viewBox="-213.5 -176.6 1000 921.7"
	 enable-background="new -213.5 -176.6 1000 921.7" xml:space="preserve">
<g>
	<path d="M-130.7,445c7-1.9,14.1-37.2,15.2-43.5c4-21.3,3.5-45.9,9.9-66c13.4-42.1-4.2-90.3-19.2-126.1
		c-9.3-21.8-24.4-40.3-35.2-61.2c-7.5-14.3-21.6-22.5-30.2-37.5C-199.5,94-221,99.5-210,77.3c22.3,5.8,33.2-13.6,54-14
		c3,1.7,5.9,3.1,9.1,4.4c3.1-1.2,6.3-2.4,9.4-3.5c8.2,0.5,12.4-8.6,21.5-6.6c6.1,1.2,6.8-8.2,13.4-6.8c7.2,1.6,15.7,1.4,22.9,0.2
		c6.3-1,9.2-3.1,16.2-3.8c10.6-1,19.4,1,29,5.9c14.8,7.5,29,5.2,42.1,17.8c34,32.5,69,55.9,80.3,104.9c5.8,24.6,18.3,46.8,20.6,72
		c2.3,23.2-5.9,47.9,0.2,70c20.4-36.5,41-80.5,49.8-121.5c3.5-16.4,12-30.9,15.2-48.8c3.1-17.6,20.8-36.5,20.6-54
		c-0.2-23.6,13.4-43.5,27.9-61.1c11.2-13.8,18.8-32.3,27.7-47.7c12.2-21.5,30.4-47.7,34.4-72.3c0.9-5.1,4.4-13.6,3.8-18.8
		C286.7-117.7,271-126,268-138c13.3-3.5,19.7,12.4,27.2,21.1c11-19.9,18.3-40.1,30.5-59.6c11.5,8.6-1,21.8-3.5,32.3
		c-4.9,20.6,13.1,14,28.1,11.9c1.4,12.9-26.2,19.7-34.4,24.3c-8.7,4.7-0.3,22.5-0.3,28.8c0.4,26.8,23.4,47.3,44.9,56.3
		c25.1,10.6,40.7-5.6,61-15.7c20.4-9.9,42.8-33.7,55.4-52.1c11.2-16.1,8.2-16.2-2.4-33c-2.3-3.7-9.8-17.1,1-15.7
		c5.9,0.7,17.6,24.6,20.6,23c3.8-2.1,17.3-40.5,22.5-36.5c20.1,15.7-23.6,37.9,13.8,42.9c26.7,3.7-23,31.1-34.2,20.2
		c-7.9,32.3-11.5,64.6-19.2,97.1c-6.5,27.6-16.8,60.1-11.9,87.8c3.1,17.5-0.9,31.4-6.1,47.7c-4.4,13.4-4,27.2-8.6,39.8
		c-13.8,38.2-17.6,68-57.5,87c-48.1,22.9-97.4,40-123.8,88c-7.9,14.1-13.3,29-20.1,43.5c-5.8,12.2-5.1,26-9.6,37.7
		c-3.1,7.9-6.5,18.1-5.1,26.7c1.6,9.9-7.7,14.8-6.8,23.6c1.6,17.1,6.1,37.3,4,54c-3.8,30.4,15,61.7,13.6,92.4
		c-1.4,33.7-36.8,63.9-66,74.4c-31.9,11.3-64.1,27.9-99.2,25.1c-14.1-1.2-36.5,7-51.2,8.9c-19.7,2.4-34.9,2.1-54.5-2.3
		c-26.7-5.9-54.3-6.5-78.6-18.1c-30.9-15-50-46.1-54.9-79.1c-1.7-12.2-9.4-33.7-5.6-44.8c5.4-16.2,6.6-36.6,9.1-53.6
		C-149.1,511.8-138.1,478.5-130.7,445C-126.5,443.9-131.8,450.2-130.7,445z"/>
	<path d="M625.7,199.4c8.6,9.4,34.9,13.3,47.4,17.1c23.4,7.2,45.9,22.9,69.5,31.1c19.4,6.8,42.8,20.8,43.3,43.1
		c0.5,25.8-10.1,65-18.3,89.6c-7.2,21.6-13.4,42.4-21.3,63.8c-6.6,18.3-15.2,50-28.4,64.1c-7.3,7.9-10.1,19-16.9,27.4
		c-8.4,10.3-14.3,5.8-27.4,7.2c-5.9,0.5-21.6,5.9-27,3.8c-12.2-4.5-16.1-19-29.8-19c7.9,10.3,0.2,0.5,0.3,13.1
		c0.2,8.6,10.1,17.6,15.4,23.2c11.7,12.4,15.4,23.4-2.1,33.3c-16.4,9.4-25.3-14.3-33.3-25.5c-9.1-12.7-30-20.2-36.1-33.5
		c-3.5-7.9-15.2-31.6,1.2-34.2c11.2-1.9,17.8,10.5,29.7,10.5c0-23-6.1-31.9-24.8-46.6c-14.3-11.3-29-22.3-44.3-32.1
		c-20.4-13.1-20.1-16.2-17.1-40.1c2.1-16.9,0.5-36.1,6.5-52.3c10.8-30.2,3.1-66.4,13.1-97.3c2.3-7.3,3.3-13.8,4.4-21.3
		c7.5-0.3,8.6-7.9,12-14c5.1-8.4,24.4-18,33.9-13.6C577.3,197.8,625.9,199,625.7,199.4C626.7,200.6,622,204.3,625.7,199.4z"/>
	<path d="M460.6,480.9c30.2,0,50.7,38.2,66.2,62.2c17.8,27.4,39.1,48.6,50.3,79.3c11,29.7-23.7,50-42.4,66.4
		c-7.9,7-24.6,7.7-26.4,21.6c-1.9,16.4-36.8,17.1-46.4,9.6c-13.3-10.3-26.5-20.9-37-34c-11.9-14.8-18.5-32.6-30.4-47.4
		c-19.5-24.4-39.6-53.8-47.9-84.5c-3.1-11.2-10.5-29.5-3-40.1c10.1-14.1,25.8-16.2,40.3-22.5C396.7,486.1,459.4,467.3,460.6,480.9
		C465,480.9,459.9,473.2,460.6,480.9z M564.4,618.6c4.7-9.4-31.6-50.2-39.3-58c-19.4-20.1-33.7-62.7-62.2-68.8
		c-19.7-4.2-47.5,7.3-66.2,12.9c-18.7,5.6-45.7,5.8-37.9,32.1c18,61,61,106.5,98.7,156.7c24.4,32.6,54.7-7.9,71.4-29
		c7.9-9.8,12.4-21.6,22.7-29.8C555.1,631.8,557.6,616.6,564.4,618.6C564.7,618,557.2,616.5,564.4,618.6z"/>
	<path fill="#FFFFFF" d="M262.1,149.1c-17.1-5.4-37.7-5.9-47.2-23.7c-8.2-15.2-13.8-38.4-6.1-54.9c10.5-22.9,24.4-31.9,42.2-48.1
		c5.8-5.2,13.4-5.1,20.4-8.4c5.2-2.4,21.6-4.9,24.1-6.6c10.3-6.8,41.2,5.6,49.6,12.2c18.8,14.8,22,45.2,16.4,66.9
		c-5.6,21.5-24.4,43.5-44.3,53.3c-5.2,2.6-17.5,9.9-23.4,9.8C284.9,149.7,269.8,145.1,262.1,149.1
		C258.9,148.3,262.8,148.8,262.1,149.1z"/>
	<path fill="#FFFFFF" d="M-84.1,222.8c-7.5-8.4-12.6-9.8-21.5-15.7c-15-10.3-21.3-28.3-31.1-42.8c-16.1-24.1-31.9-47.9-49.8-70.6
		c18.5-5.9,38-10.3,55.6-18.1c10.3-4.5,39.4-16.8,50.5-14.8c17.8,3.1,33.2-3.1,52.4,2.8c19.4,5.8,21.8,26.9,25.3,43.8
		c-6.8-0.2-11.5-4.2-18-4.4c-11.7-0.5-18.1,6.8-28.8,7.9c-25.1,2.6,18.8,43.6-13.3,34.6c-17.5-4.9-32.8-15-21.8,16.6
		C-79.2,176.7-77.8,207.4-84.1,222.8C-87.4,219.1-81.6,217-84.1,222.8z"/>
	<path fill="#FFFFFF" d="M341,138.2c8.7-15.9,19.9-26.2,27.2-42.2c6.6-14.7,4.9-37.3,2.3-51.9c-2.1-11.2,26.4-13.6,33.9-15.4
		c24.4-5.6,33,8.7,43.8,27.7c17.1,30.2,15.9,72.1-12,95.4C410.7,173,362.3,158.9,341,138.2C344.9,131.4,346.3,143.3,341,138.2z"/>
	<path fill="#FFFFFF" d="M188.5,683.7c5.4-20.6,2.1-40.8,15-59.4c11.7-17.1,31.9-8.2,32.6,11.2c1.7,44.7-70.4,68.5-104.3,76.3
		c0-25.5-13.1-77.2,22.7-89.2c12.7-4.2,22.2,5.1,31.1,12.4C191.2,639.5,174.2,683,188.5,683.7C189.4,680.5,188,683.7,188.5,683.7z"
		/>
	<path fill="#FFFFFF" d="M603.5,484.1c-15.2-12.6-28.8-27-44.7-38.9c-10.1-7.5-39.1-19.5-41.9-32.3c-3.1-14,4-29.8,5.8-43.6
		c2.4-19.5,3.3-39.8,6.6-59.1c4.7-27.2,1.2-77.2,32.3-89.4c40.3-15.7,76.2,7.5,110.7,27c12.9,7.3,23.9,17.8,35.8,27.2
		c11.3,8.9,27,18.5,34.6,31.2c17.1,29-11.3,73.2-26.4,97.8c-17.7,28.9-43.7,66.1-51.1,99.1C652.4,557.6,621.9,507.3,603.5,484.1
		C598.7,480.2,605.4,486.3,603.5,484.1z"/>
	<path fill="#FFFFFF" d="M564.4,618.6c-7-1.9-8.5,7.3-7.5,11.9c-9.8,8.4-20.9,17.8-24.4,30.9c-4.9,18.3-54,61.5-69.5,38.9
		c-37.8-54.6-85.1-98.6-104.2-163.4c-11.7-39.8,76.5-38.2,99.5-44.3c25.3-6.6,48.6,46.6,62.2,62.9
		C528.6,565.3,570.1,607.3,564.4,618.6C557.2,616.5,564.7,618,564.4,618.6z"/>
	<path d="M313.4,109.1c-3.8-11-4.9-34.2,13.8-32.8C348.4,78,333,115.9,313.4,109.1C312,105.3,321.2,111.9,313.4,109.1z"/>
	<path d="M433.1,109.6c-0.7,7-6.1,12.6-11.5,16.2c-13.8,9.4-10.5-18-10.1-21.3C411.9,97.8,433.1,93.7,433.1,109.6
		C432.4,116.1,433.1,107.2,433.1,109.6z"/>
	<path d="M559.5,260.2c13.6,2.6,4.2,14.1,1.7,24.6c-3.8,16.6-6.3,33.5-9.9,50c-1.9,8.2-11.5,58-14.3,58.4c-7.7-11,5.9-57.1,9.1-70.6
		C550.6,301.7,557.4,281.7,559.5,260.2C562.5,260.7,559,265.6,559.5,260.2z"/>
	<path d="M556.9,365.7c2.8-8.9,4.5-35.2,13.6-38.7C572,333.2,561.4,367.2,556.9,365.7C558.3,361.3,557.7,366,556.9,365.7z"/>
	<path d="M415.2,569.5c8.2,13.3,12,26.2,21.3,38.9c11.7,16.1,4.7,21.3-10.3,29.3C416.2,624.9,371,563.7,415.2,569.5
		C417.6,573.3,411,568.9,415.2,569.5z"/>
	<path d="M389.7,557.2c-13.1-1.7-23.2-28.6-5.8-29.5C405.3,526.5,404.9,546.6,389.7,557.2C382,556.2,391.6,555.8,389.7,557.2z"/>
	<path d="M456.1,568.4c0,13.6-18.3,26.5-21.6,6.3C431.5,555.8,447.6,555.7,456.1,568.4C455.9,579.4,454.5,566,456.1,568.4z"/>
	<path d="M457.2,611.4c0-16.1,26.4-15.2,25.1-0.3C481.4,623.5,457.2,628,457.2,611.4C457.2,606.1,457.2,618.4,457.2,611.4z"/>
	<path d="M446.2,654.2c0-15.2,22.9-13.4,23,2.4C469.4,673.5,446.2,669.5,446.2,654.2C446.2,649.8,446.2,660.3,446.2,654.2z"/>
	<path d="M414.1,528.8c-2.4-5.8,4.9-6.1,7.9-8.2c5.4-3.8,11.2,9.6,12.9,11.5C440.1,537.7,416.2,549.6,414.1,528.8
		C411.9,523,414.5,532.1,414.1,528.8z"/>
	<path d="M460.3,544.2c-2.3-10.1-6.8-20.6,4.9-26.9C476,532.1,478.4,533.7,460.3,544.2C457.9,533.5,462.9,542.6,460.3,544.2z"/>
	<path d="M502.9,650c-8.2,9.1-22.5,4.5-15.9-8.5C494.5,626.2,502,641.4,502.9,650C501.3,651.5,502.5,647.5,502.9,650z"/>
	<path d="M476.5,567.9c8.7-5.1,29.8-1.4,18,8.2C485.2,583.8,482.3,575.6,476.5,567.9C479.5,566.1,479.5,571.7,476.5,567.9z"/>
	<path d="M500.4,606.3c-1.6-4.5,1.9-23.4,10.8-15.5C519.9,598.4,510.9,608,500.4,606.3C498,598.8,506.5,607.3,500.4,606.3z"/>
	<path d="M476.2,690.5C460.1,670.4,499.4,669,476.2,690.5C473.7,687.5,479,687.8,476.2,690.5z"/>
	<path d="M523.7,629.4c-10.8,1.2-2.8-15.4,3.7-12.9C536.6,620.1,532.1,629.6,523.7,629.4C520.7,629.7,530.7,629.6,523.7,629.4z"/>
</g>
</svg>
