<?xml version="1.0" encoding="utf-8"?>
<!DOCTYPE svg PUBLIC "-//W3C//DTD SVG 1.1//EN" "http://www.w3.org/Graphics/SVG/1.1/DTD/svg11.dtd">
<svg artist="zl2017" version="1.1" id="zlIcon-stats-worms" xmlns="http://www.w3.org/2000/svg" xmlns:xlink="http://www.w3.org/1999/xlink" x="0px" y="0px"
	 width="1000px" height="1414.5px" viewBox="0 0 1000 1414.5" enable-background="new 0 0 1000 1414.5" xml:space="preserve">
<path fill-rule="evenodd" clip-rule="evenodd" fill="#FFFFFF" d="M610.4,1365.3c-4,0.6-6.8,0.6-9.2,1.6c-4.8,1.8-9.5,4.1-14.1,6.4
	c-4.3,2.2-8,10-7.6,14.9c0.8,11,12.9,18,21.1,15.7c4.3-1.2,8.7-2.7,12.5-4.9c6.4-3.8,8.6-10.5,5.8-17.5
	C616.6,1375.9,613.4,1370.8,610.4,1365.3z"/>
<path fill-rule="evenodd" clip-rule="evenodd" fill="#FFFFFF" d="M643.4,1373.7c-2.6-9.6-7.7-16.8-11.8-24.5
	c-1.2-2.3-3.3-2.7-5.8-2.5c-6.6,0.4-11,4.1-15.4,9.7c3.7,3.1,8.1,5.4,10.6,9.1c2.7,3.9,3.8,9,5.4,13.3
	C633.7,1382,636.9,1374.6,643.4,1373.7z"/>
<path fill-rule="evenodd" clip-rule="evenodd" fill="#FFFFFF" d="M272.7,1068.5c0.1,1.5-0.4,3.5,0.3,4.5c2.7,3.6,5.8,6.9,9,10.1
	c0.7,0.7,2.6,0.5,3.7,0.1c3.6-1.2,7-3.2,10.7-3.8c4.2-0.7,6.6-3,7.6-6.7c0.9-3.6,3.1-7.6,0.8-11.1c-2.5-3.6-5.4-8.1-9.1-9.5
	C286.1,1048.4,273.7,1057.9,272.7,1068.5z"/>
<path fill-rule="evenodd" clip-rule="evenodd" fill="#FFFFFF" d="M312.9,1064.1c5.1-0.8,9.9-1.2,14.5-2.4c4.5-1.2,5.7-3.2,5.7-7.8
	c0-2.5,0-5-0.3-7.4c-0.9-5.6-6.8-13-11.1-13.5c-6.6-0.8-11.7,2.1-15.3,7.6c-3.1,4.6-3,4.6,0.6,9.2c1,1.2,1.7,2.6,2.3,4.1
	C310.4,1056.7,311.4,1059.7,312.9,1064.1z"/>
<path fill-rule="evenodd" clip-rule="evenodd" fill="#FFFFFF" d="M903.8,627.5c0,0.9,0,2.9,0,5c-0.1,4.6,2.5,7.5,6.9,8
	c11,1.1,18.6-4.8,25.1-12.4c3-3.6,2.8-8.6,1.7-13c-0.5-1.9-2.3-4.4-4-5c-4.7-1.5-9.7-3.1-14.5-2.8c-7.6,0.5-14.9,2.3-14.8,14.5
	C904.3,623.2,904.1,624.8,903.8,627.5z"/>
<path fill-rule="evenodd" clip-rule="evenodd" fill="#FFFFFF" d="M902.4,647.5c-1.8,5.6-0.1,10.1,1.7,14.4c2.1,4.9,7,6.8,12.2,4.9
	c2.8-1,5.3-3.1,8.1-4.2c8.8-3.7,11.5-9.4,8.3-19.3C923.5,649.8,912.9,646.5,902.4,647.5z"/>
<path fill-rule="evenodd" clip-rule="evenodd" fill="#FFFFFF" d="M465.8,707.8c1.2,1.7,2.4,2.7,2.7,3.9c1.7,6.8,7,8.9,12.9,10
	c7.5,1.4,21-6.7,23.7-13.9c1.8-5,0.1-11.6-4.5-14.2c-9.5-5.5-15.8-6.2-22.8,1.7c-1.6,1.9-3.5,3.5-5.2,5.3
	C470.3,702.8,468.1,705.3,465.8,707.8z"/>
<path fill-rule="evenodd" clip-rule="evenodd" fill="#FFFFFF" d="M510.9,717.7c-3.6,2.1-6.3,3.7-9.1,5.1c-3,1.5-6.3,2.5-9.2,4.2
	c-2.7,1.6-5.1,2.7-8.2,1.3c-2.1-0.9-4.1-0.2-5.2,1.9c-3.3,6.3,1.8,16.3,9.7,17.5c3.4,0.5,7.1-0.5,10.4,0c6.5,1.1,10.6-2,13.1-7.2
	c2.2-4.6,3.6-9.6,5.2-14.2C515.2,723.3,513.2,720.6,510.9,717.7z"/>
<path fill-rule="evenodd" clip-rule="evenodd" fill="#FFFFFF" d="M503.4,595.8c0.2-10-8-20.8-16.1-21.4
	c-6.9-0.5-19.9,11.9-20.1,19.2c-0.3,8.8,8.4,18.1,17.4,17.7C491.8,611,504,602.9,503.4,595.8z"/>
<path fill-rule="evenodd" clip-rule="evenodd" fill="#FFFFFF" d="M523.8,585.9c1.1-1.6,2.8-3.1,3.2-5c0.7-3.2,1.8-7.2,0.5-9.7
	c-3.3-6.7-9-11.7-15.6-15.4c-1.1-0.6-3.4-0.5-4.5,0.2c-4.4,3-8.5,6.4-12.7,9.6c0.9,1.8,1.2,3,1.9,3.8c3.1,3.8,6.8,7.2,9.5,11.2
	c2.9,4.2,6.7,5.5,11.3,5.5C519.5,586.2,521.5,586,523.8,585.9z"/>
<path fill-rule="evenodd" clip-rule="evenodd" fill="#FFFFFF" d="M636.2,449.1c4.2,3.7,8.4,3.3,12.7,1.1
	c10.8-5.4,16.2-21.9,10.7-32.8c-3-5.9-10.9-6.8-15.1-1.7c-0.8,0.9-1.4,2.5-1.2,3.7c1.5,9.2-1.5,17.3-5.5,25.3
	C637.1,446,636.8,447.6,636.2,449.1z"/>
<path fill-rule="evenodd" clip-rule="evenodd" fill="#FFFFFF" d="M636.5,430.5c-0.1,0-0.2,0-0.3,0c0-1.6,0.2-3.2,0-4.7
	c-0.8-4.7-3.7-7.3-8.2-8.8c-4-1.3-6.4,0.6-8.9,3.1c-6,5.7-8.7,13.1-10.3,20.8c-1.5,6.9,2.6,11.2,9.6,10.9
	c7.1-0.2,15.4-6.5,17.2-13.2C636.2,436,636.2,433.2,636.5,430.5z"/>
<path fill-rule="evenodd" clip-rule="evenodd" fill="#FFFFFF" d="M977,78.8c-1-1.9-1.7-5.1-3.6-6.1c-1.4-0.8-4.5,0.8-6.6,1.8
	c-3.4,1.6-6.6,3.9-10.1,5.2c-4.5,1.8-6.9,5-7.4,9.5c-0.5,4.8,1.6,8.7,5.5,11.5c3.2,2.3,6.8,1.7,9.5-0.1
	C971.6,95.6,974.3,87.7,977,78.8z"/>
<path fill-rule="evenodd" clip-rule="evenodd" fill="#FFFFFF" d="M955.4,72.3c7.4-0.1,13.1-5.2,15.8-14.3c1.9-6.4-2.4-11.8-8.8-10.4
	c-4.7,1-9.2,3.2-13.5,5.5c-3.6,2-4.6,7-3.1,11.3C947.7,69.7,950.9,72.3,955.4,72.3z"/>
<path fill-rule="evenodd" clip-rule="evenodd" d="M40.6,480.1c6.7,0.5,9.1,1.9,10.2,6c0.9,3.5,0.1,5.5-3.6,6.5
	c-4.8,1.3-6.3,3.7-6.9,8.9c-1.1,8.4,0.2,16.6,0.2,24.8c0,8.8,0.8,17.6,0.8,26.4c0,3.1-1.9,6.1-1.9,9.2c0,6.3,0.8,12.5,1.2,18.8
	c0.5,9.9,1.1,19.8,1.3,29.7c0.2,10.8,0.1,21.7-0.2,32.5c-0.5,14.1-1.4,28.2-2,42.3c-0.3,7-0.5,14-0.7,21c-0.1,2.9,0.8,4.8,3.9,5.3
	c2,0.3,3.9,0.9,5.9,1.2c4.4,0.7,6.7,2.6,6.8,6c0.2,3.9-1.2,5.3-6.4,6c-3,0.4-6.1,0.5-9.7,0.8c0.3,5.9,0.5,11.5,0.7,17
	c0.2,3.6,0.3,7.2,0.4,10.9c0.5,19.7,1.1,39.3,1.5,59c0.2,7.4-0.2,14.9-0.1,22.3c0,3.1,0.6,6.3,0.9,9.4c1,10.5,1.2,20.9,0.6,31.5
	c-0.5,9.2,0.6,18.5,1.1,27.7c0.2,4.4,1.1,8.8,2.1,13.2c1.5,7.4,1.6,15.2,2.1,22.9c0.5,7.3,0.8,14.7,1.1,21c4.6,2.5,8.7,3.8,11.3,6.6
	c1.6,1.7,1,5.5,1.5,9c-3.7,1.1-7,2.1-11.3,3.4c-2.4,4.6-1.2,10.7-0.9,16.7c0.7,13.9,1.7,27.8,2.6,41.7c0.2,2.7,0.4,5.4,0.9,8
	c1.3,7.6,1.3,15-1.5,22.4c-0.4,1.1-0.4,2.6-0.3,3.8c0.3,3.1,1.1,6.1,1.1,9.2c0.1,16.3-0.2,32.5,0,48.8c0.1,7.4,1.4,14.8,1.8,22.2
	c0.3,6.7-0.7,13.6,0.3,20.1c1.4,9,0.3,18,0.1,26.9c-0.2,10.6-1.6,21.1-2.4,31.7c-0.2,3.1-0.5,6.2-0.7,9.7c3.9-0.2,7.2-0.2,10.4-0.7
	c4.2-0.7,8.4-2,12,1.7c0.4,0.5,1.7,0.2,2.6,0.1c15.2-1.6,30.4-1.4,45.7-0.9c16,0.5,32,0.8,48,0.8c11.1,0,22.3-0.7,33.4-1.2
	c5.6-0.3,11.2-1.3,16.9-1.5c6.3-0.2,12.6,0,18.9,0.1c5.2,0.1,10.4,0.2,15.5,0.3c4.8,0,9.6,0,14.7,0c0-1.5,0.1-3,0-4.5
	c-0.3-3.1,1.1-5.1,4-6.3c5.5-2.2,8.5-0.6,9.3,5.4c0.3,2.4,0.4,4.9,0.6,7.5c9,2.2,18,0.3,26.9,0.6c6.5,0.3,13,0.8,19.6,0.8
	c11.9,0.1,23.8-0.1,35.7-0.3c6.5-0.1,13.1-0.8,19.6-0.9c14.1-0.1,28.3,0,42.4,0c6.5,0,13.1,0,19.8,0c0.5-1.2,1-2.2,1.4-3.2
	c1.8-4.5,8.1-6.2,10.5-2.2c2.6,4.4,6.1,4,9.8,4c1.8,0,3.5-0.2,5.7-0.4c-0.4-6.2-3.6-10.8-6.6-15.5c-2.6-4.2-5.3-8.4-8.2-12.3
	c-1.9-2.5-4.2-4.7-6.5-6.8c-1.9-1.8-4.5-3.1-6.1-5.2c-5.6-7.1-13.7-8.3-21.7-9.8c-2.8-0.5-5.4-0.6-5.9-3.8
	c-9.1,1.7-9.5,1.5-12.8-6.2c4.5-8.7,5.5-9.1,15.9-8.5c5.1,0.3,10.3-0.5,15.4-0.3c3.8,0.2,7.5,1.2,11.3,1.9c3.3,0.7,6.6,2,9.9,2.1
	c6.6,0.2,11.5,3.1,16.9,6.8c5.4,3.6,8,9.7,13.6,12.7c3.9,8.1,11.1,13.8,14.6,22.6c2.9,7.2,6.7,14.5,10.8,21.5
	c1.6,2.7,3.7,2.8,6.3,2.8c12.1,0.2,24.2,0.4,36.3,0.8c17.7,0.6,35.5,1.3,53.2,2c5.4,0.2,10.7,0.7,16.6,1.1c0.4-2.1,0.6-3.9,0.9-5.6
	c0.3-2,0.7-3.9,0.9-5.9c0.3-3.1,2-5.1,5.1-5.3c2.4-0.2,5.9,3.4,6.1,6.4c0.3,2.9,0.1,5.8,0.1,9.1c4-0.6,7.9-0.6,11.5-1.7
	c9.1-2.8,18.4-1.7,27.6-2.6c9.3-0.9,18.5-2.4,27.8-3.5c8.3-1,16.9-0.7,24.8-3.2c6.2-1.9,11.7,1,17.5-0.5c2.7,2.7,6.4,1.4,9.4,2.5
	c8,2.9,16,0.7,23.9,0.4c2-0.1,3.9,0,5.8,0c1.3-5,2.4-9.8,3.8-14.5c0.4-1.2,2.2-3.2,2.7-3.1c1.9,0.8,4.6,1.8,5.1,3.4
	c1.5,4.3,2,8.9,3.1,14.4c7.1,0.2,14.7,0.7,22.2,0.6c10.9-0.2,21.9-0.8,32.8-1.1c7.3-0.2,14.7,0,22.6,0c0-1.4-0.2-2.9,0-4.4
	c0.4-2.9,0.5-5.9,1.6-8.5c2.3-5.5,4.2-6.3,10-4.4c3.2,1,6.2,2.6,9.2,4.1c7.3,3.5,14.4,7.5,21.9,10.6c3.7,1.6,5.2,4,6,7.4
	c0.8,3.1-0.2,5.3-3.2,6.5c-0.6,0.3-1.3,0.3-2,0.6c-11.5,4.3-21.3,10.8-29.1,20.4c-0.6,0.7-1.2,1.3-1.9,1.9c-0.1,0.1-0.4,0.1-1.1,0.3
	c-0.9-0.7-2-1.6-3.3-2.6c-1.6,1.4-3.1,2.7-5,4.5c-0.7-1.4-1.3-2.4-1.7-3.5c-1.1-2.9,1.4-6.8-2.4-9.2c-0.5-0.3,0.1-3,0.8-4.4
	c2.9-6.6,2.3-7.8-5-8.8c-2.5-0.3-4.9-0.3-7.4-0.4c-0.9,0-2.2-0.1-2.6,0.4c-4,5-9.9,2.9-14.9,3.9c-8.3,1.6-16.5-1.2-24.8-1.4
	c-3.6-0.1-7.2,0.2-10.8,0.1c-4.4-0.1-8.7-0.3-14.1-0.5c-0.2,3.2-0.4,7.1-0.7,11c-0.1,2.1,0.5,4.5-2.9,5.2c-0.9,0.2-1.1,3.4-1.6,5.3
	c-5.5,0.3-7.8-1.5-7.7-6.8c0.1-5.3,0.5-10.6,0.8-16.8c-8.5,1-16,2.3-23.4,2.6c-7.6,0.2-15.2-0.6-22.8-1c-0.9,0-1.8-0.2-2.7-0.2
	c-11.6,0.9-23.2,2-34.8,2.8c-16.8,1.2-33.6,2.1-50.3,3.5c-5.2,0.5-10.3,2.4-16.3,3.8c-0.3,1.3-1.1,3.4-1.2,5.6
	c-0.1,2.8-0.9,4.9-3.9,5.6c-2.7,0.6-6.9-1.1-8.1-3.5c-0.8-1.6-2.2-3.3-2.2-4.9c0.2-5.2-3.5-5.2-6.7-5.3c-12.4-0.2-24.9-0.1-37.3-0.1
	c-9.1,0-18.3-0.1-27.3-0.1c-10.9,0-21.7-2-32.8-1c-0.1,0.1-0.4,0.6-0.3,0.9c3.5,8.7,6.9,17.6,10.8,26.1c1.9,4,4.6,7.9,7.7,11.1
	c4.6,4.8,9.9,8.9,15,13.3c1,0.9,2.6,1.2,3.3,2.3c4.8,6.5,12,10.3,18.5,14.3c9,5.5,18.4,11.4,29.9,10.8c1.3-0.1,3.1-0.1,3.9,0.7
	c5.2,4.8,11.3,3.1,16.6,1.6c5.6-1.5,9.7,1.1,12.8,3.9c2.4,2.2,4.9,5.4,5.5,9.7c0.9,5.7,3.1,11.2,4.9,16.8c1.4,4.7-0.2,8.9-2.2,12.9
	c-2,4-4.8,7.6-6.8,11.6c-3.8,7.3-11,11.1-16.5,16.7c-1.7,1.7-5.4,2-8.3,2c-3.4,0-6.4,0.1-9.6,2.1c-2.9,1.9-6.8,2.3-10.3,3.2
	c-1,0.3-2.5,0.2-3.3-0.4c-4.3-3.1-9.4-2.7-14.3-3.5c-6.4-1-12.6-2.4-19-3.5c-1.1-0.2-2.3-0.5-3.3-0.3c-6.1,1.5-10.5-1.3-14.2-5.6
	c-9.7-11.4-17.2-24.2-22.5-38.2c-3.1-8.1-4-16.8-5.5-25.3c-1.2-7.1-2.1-14.3-4.1-21.2c-3.3-11.4-7.3-22.6-11-33.9
	c-6-5.8-5.8-14.4-9.1-21.4c-1.5-3.1-3-4.7-6.5-5.9c-7.4-2.3-14.3,0.6-22,0c0.4,4.1,1.1,7.5-2.8,10c-2.7,1.8-4.5,0.8-6.7-0.2
	c-0.9-3.1-1.8-6.1-2.6-9.1c-7.2,0-13.7,0-20.4-1.3c-6.2-1.2-12.9,0-19.3,0.6c-10.1,1-20.1,0.3-30.2-0.8c-8.9-1-18-0.3-27.1-0.3
	c-9.2,0-18.4,0.3-27.7,0.2c-9-0.1-18-0.6-26.9-0.5c-4.6,0-9.3,0.9-13.7,1.4c-0.5,2.8-0.8,4.9-1.2,7c-0.6,3.2-2.7,4.4-5.9,4.3
	c-3.1-0.1-4.3-1.9-5-4.6c-1.7-6.9-1.8-6.8-9.2-7.3c-9.4-0.6-18.9-1.8-28.3-2.1c-15.2-0.5-30.4-2.4-45.7-0.1c-7.9,1.2-16,1.3-24,1.7
	c-9,0.4-18-0.4-26.9-1.8c-4.1-0.6-8.5,0.4-12.7,0.4c-9.3,0-18.5-0.3-27.8-0.1c-12.5,0.2-25,1-37.5,1.2c-4.5,0.1-9-0.5-13.4-1.3
	c-1.3-0.2-3.1-2.3-3.2-3.7c-0.9-9.4-2-18.8-2-28.2c0-10.7,1.5-21.4,1.6-32.2c0.1-6.5,0.5-13-1.9-19.5c-1.4-4.1,0.3-9.2,0.5-13.9
	c0.2-3.6,0.4-7.2,0.2-10.8c-0.8-10.7-1.8-21.4-2.6-32.2c-0.1-1.6-0.1-3.2,0.1-4.7c1-7.9-0.3-15.7-0.8-23.5c-0.4-6-0.2-12.1,0-18.1
	c0.3-8.7,1-17.5,1-26.2c0.1-11.7-0.1-23.5-0.5-35.2c-0.2-8.1-0.9-16.1-1.4-25.2c-7,0.7-13.8,1.3-20.7,2c0.1-1.2,0.1-2.4,0.2-3.4
	c-2.3-1.4-4.4-2.7-6.6-4.1c0.1-0.5,0.1-1,0.2-1.5c8.8-2.8,16.1-8.9,25.6-10.7c0-2.3,0-4.3,0-6.3c0-3.5,0.3-7.1,0.1-10.6
	c-0.3-5.8,0-12-1.7-17.4c-2.8-8.9-1.1-17.9-1.9-26.8c-0.5-5,0.5-10.3-0.8-15c-2-7.1-1.4-14.2-2-21.3c-0.7-7.3,1.1-14.8,1.8-22.1
	c0.1-1.3,0.9-2.9,0.4-3.8c-2.3-3.9-1.1-7.9-1.2-11.9c-0.1-7.4-0.5-14.9-0.7-22.3c-0.1-6.2,0.1-12.4-0.1-18.6
	c-0.6-18.1-1.2-36.2-1.9-54.4c0-1.3-0.3-2.7-0.5-4.8c-4.3,0.2-8.5,0.5-12.7,0.5c-3.2,0-6.7,1.3-9.1-2.6c-3-4.7-1.7-8.4,3.7-9.5
	c3.5-0.7,7.1-1.1,10.7-1.8c2.2-0.4,4.3-1.1,7.1-1.9c0.9-18.8,1.9-37.4,2.5-56.1c0.6-16-1.6-31.9-1.8-47.8c0-4.7,0.1-9.4,0.1-14.1
	c0-8.6-0.1-17.2,0.1-25.7c0.2-7.2,1-14.4,1.1-21.6c0.1-6.7-0.4-13.5-0.6-20.2c0-1.3-0.2-2.6-0.1-3.9c0.6-8.3,1.2-16.5,1.7-24.8
	c0-0.7-0.9-1.5-1.5-2.5c-2.1,1.3-3.7,2.4-6.5,1.5c-2.6-0.9-6.1,0.3-9.1,0.8c-4.1,0.7-6.8-0.4-7.7-3.4c-1.3-4.2,0-7,4.6-8.2
	c6-1.6,12.2-2.5,18.2-3.7c0-11.2,0.4-22.2-0.1-33.2c-0.6-14.2-2-28.3-2.9-42.5c-0.4-6.3,0.2-12.4,1.9-18.7c1.5-5.7,0.8-12,1.3-18.1
	c0.7-8.8-1.6-17.2-2.5-25.8c-1-9.8-1.6-19.6-2.1-29.5c-0.4-8.5-0.4-17-0.6-25.4c-0.2-10.5-0.3-20.9-0.5-30.9
	c-5.3-1.5-9.8-2.8-14.3-4c-0.9-6-2-6,13.1-11.7c-0.5-4.1-0.5-8.4-1.7-12.4c-2.6-8.6-1.7-17.3-1.1-26c0.4-6.5,0.9-13,1.2-19.5
	c0.1-1.4-0.2-3.4-1.1-4.3c-7.7-8.4-6.1-18.3-5-28.1c1.2-11.1,4.8-22,3.2-33.5c-0.4-2.7,1.1-5.7,0.9-8.5c-0.4-5.3-1.1-10.7-2.3-15.9
	c-1.7-7.4,0.1-14.3,1.9-21.3c1-3.9,1.9-7.8,2.9-11.8c-5.1-1.5-9.6-2.8-14.1-4c-6-1.6-7.6-5.7-3.2-10.2c5.2-5.2,8.4-11.5,12-17.7
	c4-6.8,4.3-14.5,6.3-21.8c1-3.5,3-6.1,6-6c2.9,0.1,4.9,1.6,5.9,4.6c4,12.3,7.9,24.7,12.4,36.8c1.8,4.8,5.2,9.1,8.2,14.1
	c-0.9,1.7-2.2,4.2-3.7,7.2c-5.6-0.5-11.3-1.1-17.8-1.7c-0.8,4.5-2.1,8.4-2.2,12.3c-0.3,8-0.1,16.1,0.2,24.1c0.3,7.8,1,15.5,1.4,23.3
	c0.5,7.6,0.7,15.3,1.4,22.9c1,10.3,0.8,20.6-0.9,30.8c-0.8,4.9,0.8,9.8-1.2,15.1c-1.5,3.9,0.7,9.3,1.2,14c0.4,4.2,0.7,8.5,1,12.7
	c0,0.2-0.2,0.5-0.2,0.6c2.7,7.6,1.3,15.5,0.9,22.5c5.2,2,9.8,3.6,14.3,5.4c2.7,1.1,4.7,2.6,3.6,6.1c-1.2,3.8-3.8,5.9-7.4,5.7
	c-2.9-0.2-5.7-0.6-9.2-1c-0.2,2.5-0.5,4.2-0.5,5.9c0.3,11.7,0.7,23.5,1,35.2c0.1,2.2-0.1,4.5-0.4,6.8c-0.6,4.9-0.3,9.7,0.5,14.7
	c1.4,9.1,1.8,18.3,2.7,27.5c1.3,13.6,0.8,27.2,0.1,40.8c-0.6,12.2-0.8,24.5,0.1,36.6c1.3,17.6,0.8,35.1,1.1,52.7
	C40.1,477.2,40.4,478.7,40.6,480.1z M610.4,1365.3c-4,0.6-6.8,0.6-9.2,1.6c-4.8,1.8-9.5,4.1-14.1,6.4c-4.3,2.2-8,10-7.6,14.9
	c0.8,11,12.9,18,21.1,15.7c4.3-1.2,8.7-2.7,12.5-4.9c6.4-3.8,8.6-10.5,5.8-17.5C616.6,1375.9,613.4,1370.8,610.4,1365.3z
	 M643.4,1373.7c-2.6-9.6-7.7-16.8-11.8-24.5c-1.2-2.3-3.3-2.7-5.8-2.5c-6.6,0.4-11,4.1-15.4,9.7c3.7,3.1,8.1,5.4,10.6,9.1
	c2.7,3.9,3.8,9,5.4,13.3C633.7,1382,636.9,1374.6,643.4,1373.7z"/>
<path fill-rule="evenodd" clip-rule="evenodd" d="M782.7,301.9c5.7-4.7,7.9-11.2,11.3-17c6.6-11.3,13.3-22.5,20.1-33.7
	c5.4-8.9,10.7-17.8,16.3-26.5c7.1-11.2,14.4-22.3,21.7-33.3c6.7-10.1,13.5-20.2,20.5-30.2c1.8-2.6,4-4.9,6.3-7.1
	c9.8-9.6,15.5-22,22.3-33.5c1.8-3.1,4.1-5.9,6.1-8.9c5.6-8.2,11-16.4,16.7-24.5c4.9-7,10.1-13.8,14.8-20.9c1.9-2.8,3.2-5.9,4.3-9.1
	c1.5-4.7,4.8-7.7,8.7-10.4c5.7-3.9,11.2-8.1,17-11.9c11.1-7.4,24.1-3.1,28.1,9.6c1.6,5.1,2.4,10.5,2.7,15.8
	c0.4,8.2-3.4,15.3-7.9,21.9c-5.6,8.2-11.2,16.3-17.1,24.2c-1.8,2.4-4.6,4.2-6.8,6.3c-3.4,3.2-7.4,6.1-9.9,10
	c-3.7,5.6-9.6,8-14.7,11.5c-4.2,2.8-10,4.8-12,8.8c-2.8,5.4-9.6,7.9-9.8,14.7c-6.1,7.8-11.8,16-18.6,23.2c-3.6,3.8-6.5,8-9.6,12.1
	c-3.9,5.2-7.9,10.5-10.8,16.3c-3.5,7-10.4,11.6-12.1,19.9c-0.7,3.6-4.6,6.5-6.7,10c-2.4,4-4.5,8.3-6.7,12.4
	c-3,5.5-5.8,11.1-9.2,16.3c-5.1,7.7-10.7,15-16,22.5c-5.7,8.1-11.5,16.1-16.7,24.4c-3.9,6.1-6.6,12.9-10.5,18.9
	c-4.6,7.1-10.7,12.9-18.1,17c-5.8,3.2-14.1,2.1-18.9-2.3c-5.4-4.9-10.5-10-13.5-16.9c-4.4-0.8-6.2-4.6-8.8-7.5
	c-5.4-5.9-10.8-11.9-16.2-17.8c-6.6-7.1-9.7-16.2-13.8-24.7c-2.3-4.8-4.7-9.3-4.4-15.3c0.2-3.7-3.2-7.8-5.6-11.2
	c-2.3-3.3-5.6-5.8-8.4-8.8c-1.1-1.1-2.2-2.3-3.1-3.6c-6.9-10.3-13.7-20.6-20.7-30.8c-7.5-10.9-15.2-21.7-22.8-32.5
	c-1.8-2.6-3.9-5-5.3-7.9c-5.1-10.4-14.6-13.8-24.9-15.1c-8.7-1.2-17.1,0.6-25,4.5c-3.4,1.7-7,3-10.2,5
	c-13.1,8.2-26.8,15.5-38.5,25.8c-4.9,4.3-10.8,7.3-16.3,10.8c-5.3,3.4-10.8,6.6-15.9,10.2c-2.2,1.6-3.8,4.3-5.6,6.5
	c-0.7,0.8-1.1,1.9-2,2.6c-7.7,6.1-15.5,12.3-23.4,18.3c-2.1,1.6-4.5,2.8-6.9,3.9c-4.1,1.9-8.2,3.6-12.3,5.4c-4.7,2-9.6,3.2-14.5,1.9
	c-5-1.4-9.7-3.6-14.5-5.3c-3.3-1.1-6.7-1.9-9.7-2.8c-4.5-2.7-8.7-5.4-13.2-7.7c-7.8-3.9-15.8-7.5-23.7-11.3
	c-0.8-0.4-1.7-0.8-2.3-1.4c-6.5-7.2-15-11.5-23.1-16.4c-3.8-2.3-6.7-6.1-10.5-8.3c-7.9-4.5-16.7-7.7-24-13
	c-3.9-2.8-7.7-5.4-12.1-7.2c-9.3-3.9-18.6-5-27.5,0.8c-5.8,3.8-11.5,7.9-17,12.3c-6.5,5.2-12.6,10.9-18.9,16.3
	c-1.5,1.3-3.3,2.3-5,3.4c-5.3,3.4-10.5,6.8-15.8,10.2c-0.6,0.4-1.3,0.8-1.5,1.3c-1.9,7.1-8.6,9.4-13.2,13.9
	c-6.9,6.8-13.3,14.1-20.2,20.8c-6,5.8-12.3,11.2-18.7,16.4c-5.4,4.4-11.3,8.3-16.8,12.5c-3.3,2.5-6.4,5.1-11,3.1
	c-1.2-0.5-3,0.3-4.5,0.4c-2.3-4.3,0.7-6.6,3.1-8.8c11.5-10.4,23.2-20.6,34.4-31.3c3.8-3.7,6.4-8.6,9.7-12.8
	c2.9-3.7,5.6-7.4,9.1-10.7c4.6-4.5,8.7-9.8,12-15.3c3.5-5.8,7.6-10.7,12.6-15.5c9.2-8.7,18.9-17,26.6-27.4
	c3.9-5.2,9.6-9.1,14.7-13.3c4.8-3.9,10-7.4,14.9-11.2c5.5-4.3,14.8-6.1,21.1-3.4c4.1,1.7,8.1,3.8,12,5.9c5,2.6,9.7,5.7,14.8,8
	c5.5,2.5,9.8,6.3,14,10.4c4,3.9,8.5,7.3,13.1,10.6c4.9,3.6,10,6.9,15.2,10.1c5.9,3.6,11.8,7,18.5,9.3c5.1,1.7,9.5,5.8,13.8,9.4
	c2.5,2.1,4.9,3.7,8.1,4.6c2.6,0.8,5,2,7.3,3.4c5.3,3,10.1,7,15.7,9c7.3,2.6,15,4.1,22.7,5.3c5.8,0.9,10.7-1.3,15-5.7
	c4.7-4.8,10.3-8.5,15.6-12.7c6.4-5,13.1-9.6,19.2-15c5.9-5.2,11.1-11.3,16.6-16.9c6.4-6.6,13.8-12.5,18.9-20
	c4.6-6.8,11.1-10,17.3-14.3c3.4-2.4,6-5.9,9-8.9c6.2-6.3,12.4-12.4,18.5-18.8c4-4.2,8-8.6,11.7-13.1c8.1-9.7,20-13.9,32.5-5.4
	c2.1,1.4,5.3,1.7,8,3c8.5,3.9,13.2,10.2,15.3,19.1c0.8,3.3,2.8,6.5,4.7,9.4c3.7,5.7,6.2,11.9,8.8,18.1c3.2,7.8,6,16.1,12,22.5
	c1.9,2.1,3,4.9,4.4,7.4c2.4,4.1,4.7,8.2,7.1,12.3c4,6.7,7.8,13.6,12.1,20.1c5.8,8.7,10.1,18.7,19.7,24.4c0.7,0.4,1.5,1.1,1.8,1.8
	c3.3,6.9,9.3,11.5,13.9,17.3c2.8,3.5,5,7.5,7.8,11c7.3,9.1,14.8,18.1,22.2,27.2C775.1,292.9,778.9,297.3,782.7,301.9z M977,78.8
	c-1-1.9-1.7-5.1-3.6-6.1c-1.4-0.8-4.5,0.8-6.6,1.8c-3.4,1.6-6.6,3.9-10.1,5.2c-4.5,1.8-6.9,5-7.4,9.5c-0.5,4.8,1.6,8.7,5.5,11.5
	c3.2,2.3,6.8,1.7,9.5-0.1C971.6,95.6,974.3,87.7,977,78.8z M955.4,72.3c7.4-0.1,13.1-5.2,15.8-14.3c1.9-6.4-2.4-11.8-8.8-10.4
	c-4.7,1-9.2,3.2-13.5,5.5c-3.6,2-4.6,7-3.1,11.3C947.7,69.7,950.9,72.3,955.4,72.3z"/>
<path fill-rule="evenodd" clip-rule="evenodd" d="M311,1215.4c-1.7-2.3-2.9-3.9-4-5.5c-4.1,0.3-4.1,0.3-6.7-2.7
	c3.4-2.5,6.5-5.5,10.2-7.4c14.5-7.3,26.4-18,38.5-28.3c9-7.7,17.8-15.8,26.1-24.3c7-7.1,13.2-15.1,19.8-22.7
	c5.3-6.1,10.8-12.1,15.9-18.4c4.1-5.1,8.7-9.6,12-15.5c3.6-6.4,7.2-13,13.1-18c2.8-2.4,5-6,6.5-9.4c4.8-11,11.2-21,17.8-30.9
	c3.4-5.2,5.6-11.1,8.6-16.6c3.5-6.4,7.2-12.7,10.9-19.1c0.4-0.8,1-1.6,1.1-2.4c1.5-8.3,6.6-14.7,10.9-21.5c1.7-2.6,2.6-5.6,4-8.4
	c4.7-9.5,9-19.1,12.2-29.3c4.3-13.4,9-26.7,13.9-40c4.4-12,9.5-23.7,13.8-35.7c1.8-5,2.5-10.5,3.8-15.7c0.7-3,1.7-6,2.5-9
	c4.4-15.8,8.8-31.5,13.2-47.3c2.2-7.8,4.8-15.5,6.9-23.3c2.2-8.4,4-16.9,6-25.3c0.2-0.9-0.2-2,0.2-2.7c5-7.7,3-16.9,5.7-25.3
	c3.2-9.9,4-20.6,5.7-31c0.4-2.6-0.2-5.4,0.3-7.9c1.3-7,3.1-14,4.4-21c1.6-8.4,2.9-16.8,4.2-25.2c1-6.9,1.7-13.8,2.5-20.7
	c1-9,1.9-18.1,2.8-27.1c0.4-3.6,1.1-7.2,1.3-10.8c0.4-7.9,0.9-15.7,0.6-23.6c-0.2-3.9,0.7-7.6,2.8-10.2c3-3.5,3-7.4,3.4-11.3
	c0.7-6.7,1-13.5,1.9-20.2c0.4-3.2,0.1-6.1-0.9-9.2c-3-9.4-4.4-19.1-4-29.1c0.1-1.6,0.6-3.5,0-4.6c-3.2-5.8-1-11.5,0.1-17.1
	c1-4.8,2.5-9.6,3.9-14.3c0.5-1.7,1.5-3.3,2.5-4.7c3.5-4.6,6.5-10,10.9-13.5c5.9-4.7,12.7-8.2,19.6-11.4c2-0.9,5.5,1,8.3,1.8
	c4.1,1.2,8.3,2.3,12,4.2c2.9,1.5,6,3.7,7.5,6.4c2,3.6,2.6,8,3.7,12.1c0.4,1.5,0.5,3.1,0.9,4.6c0.9,3.3,1.4,6.5-0.3,9.8
	c-0.4,0.8-0.7,1.7-0.6,2.6c1.3,12.7-4.6,24.2-7.4,36c-2.1,8.7-1.8,17.6-4.5,26c-1.4,4.3-2.1,8.7-2.8,13.2
	c-1.6,9.6-2.8,19.2-4.6,28.7c-1.3,6.7-3.3,13.3-4.8,20c-0.9,4.2-1.3,8.4-1.9,12.6c-0.1,0.4,0.1,1-0.1,1.3
	c-2.8,4.9-2.1,10.4-2.7,15.7c0,0.2,0,0.5-0.1,0.7c-3.2,4.6-1.5,8.9,0.6,11.7c-2.4,9.7-4.6,18.4-6.7,27.1c-0.2,0.9,0.2,2.1-0.3,2.6
	c-5.7,6-3.3,14.2-5.7,21.1c-2.6,7.4-3.8,15.3-6.5,22.7c-2.1,6-3.1,12.1-4.3,18.2c-1.5,7.4-4.2,14.6-6.4,21.9
	c-3.3,11.2-6.5,22.5-10.1,33.6c-1.5,4.4-4.3,8.4-6.2,12.6c-0.7,1.6-0.5,3.6-1,5.4c-1.6,5.6-2.7,11.4-5.1,16.6
	c-4.1,9-4.8,19.3-10.1,27.9c-1.8,3-2.1,6.9-3.3,10.3c-1.4,4-2.6,8.1-4.6,11.8c-3.5,6.7-5.9,13.6-7.6,20.9c-0.6,2.6-1.9,5-3.1,7.4
	c-5.7,11.6-8.2,24.2-11.4,36.6c-0.3,1.1-0.3,2.3-0.7,3.3c-4.1,10-8.3,20-12.5,29.9c-1.7,4.1-3.5,8.3-5.5,12.3
	c-3.4,6.6-7.2,13-10.6,19.5c-2.7,5.1-4.8,10.5-7.6,15.6c-8.8,16.2-15.6,33.5-26.4,48.6c-1.8,2.6-4,4.9-5.9,7.4
	c-2.1,2.9-4.3,5.8-6.1,8.8c-2.7,4.6-4.9,9.6-7.8,14.1c-5.1,7.9-10.5,15.7-16,23.3c-3,4.2-6.6,7.9-10,11.9
	c-7.6,8.8-15.1,17.7-22.8,26.5c-7.3,8.3-14.5,16.6-22,24.7c-4.6,4.9-9.9,9.2-14.2,14.4c-7.4,9-17.6,14.6-25.4,22.9
	C341.5,1198,326.2,1205.9,311,1215.4z M636.2,449.1c4.2,3.7,8.4,3.3,12.7,1.1c10.8-5.4,16.2-21.9,10.7-32.8
	c-3-5.9-10.9-6.8-15.1-1.7c-0.8,0.9-1.4,2.5-1.2,3.7c1.5,9.2-1.5,17.3-5.5,25.3C637.1,446,636.8,447.6,636.2,449.1z M636.5,430.5
	c-0.1,0-0.2,0-0.3,0c0-1.6,0.2-3.2,0-4.7c-0.8-4.7-3.7-7.3-8.2-8.8c-4-1.3-6.4,0.6-8.9,3.1c-6,5.7-8.7,13.1-10.3,20.8
	c-1.5,6.9,2.6,11.2,9.6,10.9c7.1-0.2,15.4-6.5,17.2-13.2C636.2,436,636.2,433.2,636.5,430.5z"/>
<path fill-rule="evenodd" clip-rule="evenodd" d="M907.7,678.7c-5.3-2.7-12.7,1.5-19-2.5c-7.8,1.1-12.8-4.4-18.9-7.6
	c-9.2-4.8-18.1-10.7-29.5-9c-3.4,0.5-7-1-10.5-1.1c-12.8-0.2-22.6,5.9-31.5,14.4c-9.1,8.6-15,19.4-20.6,30.2
	c-3.2,6.2-5.3,12.9-7.7,19.5c-0.4,1-0.4,2.2-0.2,3.3c0.8,4.4-0.7,8.3-1.9,12.4c-2.7,9-5.1,18.2-7.6,27.3c-0.7,2.6-1.2,5.2-1.9,7.9
	c-1.3,5.2-2.4,10.5-4,15.6c-3.6,11.6-7.7,23.1-11.2,34.8c-3,10-6,20.1-8.1,30.4c-1,4.7-2.8,9.1-3.7,13.8c-0.9,4.6-2.8,9-4,13.6
	c-1.5,5.8-2.6,11.8-4.3,17.6c-2.3,7.8-4.3,15.5-5.9,23.5c-1.9,9.9-6.2,19.3-8.9,29.1c-2.2,8.1-5.3,16-6.1,24.6
	c-0.6,7-3.9,13.7-5.6,20.7c-0.9,4.1-0.9,8.3-1.3,12.5c-0.1,1.5,0.1,3.1-0.2,4.6c-1.1,5.5-2.6,11-3.4,16.5
	c-1.1,7.7-4.6,14.6-7.6,21.6c-1,2.4-1.6,4.4-0.6,7.1c0.7,1.7,0.7,4.4-0.2,5.9c-3.9,7-5.1,15.3-10.2,21.7c-1.5,1.9-2.9,4.2-3.4,6.5
	c-2.3,9.5-8.5,16.7-14.4,24c-2.8,3.5-5.5,7.2-8.9,10.1c-5.8,5.1-13.3,7-20.6,7.8c-4.1,0.4-8.9-1.6-12.7-3.8
	c-10.2-5.8-19.1-13.3-25.1-23.8c-3.5-6.1-7.2-12-10.5-18.2c-1.4-2.7-1.3-6.3-3-8.8c-2.7-4.1-2.1-8.9-3.9-13.2
	c-1.8-4.3-3.6-8.8-4.2-13.4c-0.9-7-4.7-13.6-3.5-21c0-0.2,0.2-0.5,0.2-0.6c-4.3-9.2-1.3-19.3-3.5-28.7c-1-4.4,0.4-7.3,3.6-8
	c3-0.7,6,1.6,6.9,5.6c0.6,2.4,1,4.9,1.4,7.3c1.9,12.5,8.1,23.3,12.9,34.6c3.1,7.5,6.8,14.7,9.7,22.3c3.4,8.9,8.5,16.9,14.4,24.1
	c5.4,6.7,14.2,8.6,21.6,1c4.3-4.5,8.2-9.6,12.3-14.3c1.6-1.8,3.4-3.6,5.2-5.2c5.8-5.2,7.6-12.7,10.2-19.4
	c7.1-18.7,13.1-37.8,17.4-57.3c2.6-11.9,7.6-22.9,11.5-34.4c1.2-3.5,3.4-7,1.8-11c-0.2-0.5,0.6-1.5,0.9-2.2c1.7-3.3,4-6.5,5-10
	c3.7-12,6.9-24.2,10.5-36.3c3.5-11.6,8.1-22.9,9-35.2c0.1-1.3,0.5-2.7,1-3.9c5-11.9,7.3-24.7,11.5-36.8c1.7-4.7,1.7-9.5,3-14.2
	c5.3-18.3,9.5-37,14.9-55.3c3.7-12.7,5.2-26,9.8-38.6c3.1-8.5,3.2-18.1,5.7-27c3.1-11.2,6.3-22.3,11.3-32.9
	c3.2-6.6,6-13.7,10.1-19.5c6.1-8.4,13-16.5,22.3-22.1c9.9-5.9,19.7-4.5,29.8-1.5c3.2,0.9,6.6,1.2,9.9,1.6
	c12.8,1.5,25.6,2.5,37.2-5.3c1.8-1.2,4.2-1.8,6.4-2c3.5-0.4,6.2-2.1,9.1-3.9c3.2-2,7.2-3.1,11-3.8c6.4-1.1,12.8-1.6,19.3-2.1
	c5.7-0.4,10.8,1.7,15.3,5.1c2,1.5,4.8,1.2,6.3,4.2c1.4,2.9,2.6,5.4,2.8,8.7c0.2,4.9,0.6,10,1.9,14.7c2.4,8.2-0.7,14.1-6.6,19.2
	c-1.9,1.7-3.4,2.8-3.6,5.8c-0.4,4.9-4.9,7.5-8.3,10.2c-3.5,2.8-6.5,6.2-10.8,8.3C918.4,676.8,914.1,678.8,907.7,678.7z M903.8,627.5
	c0,0.9,0,2.9,0,5c-0.1,4.6,2.5,7.5,6.9,8c11,1.1,18.6-4.8,25.1-12.4c3-3.6,2.8-8.6,1.7-13c-0.5-1.9-2.3-4.4-4-5
	c-4.7-1.5-9.7-3.1-14.5-2.8c-7.6,0.5-14.9,2.3-14.8,14.5C904.3,623.2,904.1,624.8,903.8,627.5z M902.4,647.5
	c-1.8,5.6-0.1,10.1,1.7,14.4c2.1,4.9,7,6.8,12.2,4.9c2.8-1,5.3-3.1,8.1-4.2c8.8-3.7,11.5-9.4,8.3-19.3
	C923.5,649.8,912.9,646.5,902.4,647.5z"/>
<path fill-rule="evenodd" clip-rule="evenodd" d="M530.8,599.5c-4.1,4.3-8.4,9.3-13.3,13.6c-1.8,1.5-5.1,2.1-7.6,1.9
	c-6.7-0.6-13,0.9-19.2,3.1c-9.7,3.5-18.4,1-25.5-5.2c-5.6-4.9-7.3-12.5-7.4-19.8c-0.1-4.2,0.9-8.7,2.6-12.4c2.6-5.7,5-11.1,1.9-17.3
	c0.4-13.2-7.3-23.9-11.6-35.5c-4.9-13.1-14.8-23.1-23.8-33.5c-5.2-6.1-10.6-12-15-18.9c-5.2-8.1-12.6-14.7-19.2-21.8
	c-3.8-4.2-7.9-8.1-11.8-12.2c-6.5-6.9-13.7-12.7-22.3-16.9c-4.2-2.1-8.1-5.4-11.2-9c-5.9-6.6-12.9-11.3-21-14.7
	c-3.5-1.4-5.6-0.2-7.4,2.6c-8.4,12.6-16.6,25.3-25.4,37.6c-8,11.1-16.8,21.6-25.2,32.4c-0.8,1.1-1.6,2.2-2.3,3.3
	c-5,8.3-9.7,16.8-14.9,24.9c-2.1,3.3-5.4,5.9-8.4,8.6c-2.5,2.3-5.6,3.9-7.9,6.3c-4.1,4.3-9.4,6.1-14.7,7.9c-2.4,0.9-5,0.8-6.7-1.6
	c-2.1-2.9-4.5-5.6-6.1-8.7c-1.8-3.6-3.3-7.5-3.9-11.5c-1.3-8.5-5.9-15.4-10-22.7c-1.8-3.3-2.6-7.1-4-10.6
	c-2.8-6.7-4.3-13.9-8.5-20.1c-2.4-3.6-3.6-8.1-5.2-12.3c-0.9-2.4-18.4-24.4-20.7-25.7c-1.4-0.8-2.9-1.2-4.8-1.9
	c-1.9,2-4,3.7-5.4,5.9c-4.5,7.2-10.7,13.1-14.7,20.9c-5,9.8-11.6,18.8-17.6,28.1c-2,3.1-4.9,4.5-8.8,3c-2.1-5.7-1.1-10.8,2.4-15.9
	c8.4-12.2,16.7-24.6,24.6-37.1c4.3-6.9,8.6-13.7,15.2-18.7c6-4.6,12.5-4.8,18.8-0.8c10.1,6.5,17.2,15.1,21.5,26.7
	c5,13.2,12,25.7,17.9,38.6c2.7,5.9,4.6,12.1,6.9,18.2c1.1,2.9,2.2,5.7,3.1,8.2c10.7,1.4,17.8-3,23.3-10.9c1.3-1.8,2.9-3.4,4.4-5.1
	c8.6-9.3,15.1-20.2,21.4-31.1c4.2-7.2,6.8-15.4,11.7-22c8.8-11.7,13.7-25.2,20.8-37.7c6.4-11.3,12.1-23,18.1-34.5
	c3.3-6.4,7.4-7.8,13.4-4.5c0.8,0.4,1.6,1.1,2.4,1c5.6-0.3,8.3,3.5,11.4,7.2c2.3,2.8,4.9,5.2,7.5,7.7c3.2,3.1,6.4,6.1,8.3,10.5
	c1.3,3,4.2,5.2,6.3,7.8c2,2.4,4,4.9,6,7.3c7,8.5,14,17,20.9,25.5c1.1,1.4,2.1,2.9,3.1,4.5c0.6,1,0.7,2.5,1.5,3
	c7.6,4.3,10.5,12.7,16.2,18.6c6.9,7.1,14.1,13.9,20.9,21.1c4.8,5.1,9.1,10.6,13.8,15.7c3.2,3.5,6.8,6.5,10.1,9.8
	c4.2,4.1,8.4,8.2,12.5,12.3c6.1,6.2,12.9,11.8,18,18.7c3.9,5.1,10.7,7.3,12.7,14.3c0.8,2.8,4.5,4.8,6.7,7.3
	c7.6,8.5,15.4,16.9,24,24.5c6.8,5.9,9.1,12.6,5.1,21.1c-1.6,3.4-3,7.1-3.7,10.9C530.3,592.6,530.8,595.8,530.8,599.5z M503.4,595.8
	c0.2-10-8-20.8-16.1-21.4c-6.9-0.5-19.9,11.9-20.1,19.2c-0.3,8.8,8.4,18.1,17.4,17.7C491.8,611,504,602.9,503.4,595.8z M523.8,585.9
	c1.1-1.6,2.8-3.1,3.2-5c0.7-3.2,1.8-7.2,0.5-9.7c-3.3-6.7-9-11.7-15.6-15.4c-1.1-0.6-3.4-0.5-4.5,0.2c-4.4,3-8.5,6.4-12.7,9.6
	c0.9,1.8,1.2,3,1.9,3.8c3.1,3.8,6.8,7.2,9.5,11.2c2.9,4.2,6.7,5.5,11.3,5.5C519.5,586.2,521.5,586,523.8,585.9z"/>
<path fill-rule="evenodd" clip-rule="evenodd" d="M105.2,686.6c2.7,0,4,0.1,5.3,0c8.8-1,9.6-0.5,11.3,7.9c0.4,2,1.1,3.9,1.8,5.8
	c0.5,1.2,1.3,2.3,2.3,4c3.6-3.5,6.9-2.7,9.9,0.5c3.4,3.6,6.7,7.3,10.2,10.9c3,3,6,6.1,9.3,8.8c7,5.5,14.1,10.8,21.3,16
	c2.3,1.6,5,2.6,7.6,3.9c0.8,0.4,1.6,0.8,2.4,1.3c13.3,8.6,26.6,17.3,39.9,25.9c0.9,0.6,1.9,1.4,2.4,2.3c2.7,5.2,8.1,7.5,12.1,11.2
	c4.2,3.9,10.3,5.8,15.7,8.2c7.8,3.4,15.6,6.9,23.6,9.6c4.8,1.6,8.8,4.8,12.9,7.2c4.5,2.7,8.9,2.1,13.3,2.8c3.6,0.6,7.5-0.3,11.2,0
	c9.8,0.8,19.4,0.1,28.8-2.5c4.5-1.2,8.6-2.6,13.5-2.5c2.7,0,5.4-2.9,8.3-4.2c7.1-3.3,14.3-6.3,20.1-11.8c0.5-0.5,1-1.1,1.6-1.2
	c11.8-3.4,19.1-12.7,27.4-20.7c6.3-6,12.2-12.6,17.7-19.3c2.6-3.2,4-7.4,6.2-11.1c1.7-2.9,3.3-5.9,5.5-8.3
	c5.1-5.7,9.4-11.7,10.9-19.5c1.7-8.4,7.5-14.3,13.5-19.8c6.3-5.6,13.4-9.7,21.9-11c1.3-0.2,2.5-1,3.7-1.6c7.6-4.3,15.1-3.5,22.6,0
	c3.5,1.6,5.8,4.4,6.3,8.2c1.3,9.8,3,19.6,3.4,29.5c0.1,4.2,0.6,8.9-2.6,13.3c-4.4,5.9-7.1,13-11,19.2c-1.7,2.7-4.5,4.4-8.3,5.4
	c-4.9,1.2-9.8,2.6-14.9,3.6c-1.2,0.2-2.3,0.8-3.4,1.5c-1.9,1.1-3.6,2.8-5.6,3.5c-5.3,2-8.9,6.4-14,8.8c-6.4,3-12.3,7.3-18.3,11.1
	c-1.2,0.8-1.9,2.4-3.2,3.3c-3.1,2.1-6.5,4-9.6,6.1c-1.5,1-3.7,2-4,3.3c-1.1,5-5.1,6.3-8.9,8.2c-3.7,2-7.2,4.5-10.8,6.6
	c-9.9,5.7-19.9,11.2-29.8,16.8c-6.4,3.6-12.9,7.3-19.2,11.1c-4.7,2.8-9.3,5.2-14.8,6.3c-13.8,2.7-27.7,5.2-41.8,5.6
	c-11.7,0.4-21.9-4-31.9-9.8c-10.6-6.3-21.7-11.6-32.6-17.4c-0.8-0.4-1.8-0.7-2.3-1.3c-8.2-9.5-20.8-13.4-29.1-22.8
	c-5.5-1.5-8.2-6.6-12.2-9.9c-4.1-3.4-8.3-6.8-12.5-10.2c-5.6-4.5-12.1-8.2-16.7-13.6c-4.7-5.6-10.6-9.7-15.8-14.6
	c-3.3-3.1-7.4-5.2-10.5-8.4c-8.1-8.4-15.9-17.2-23.8-25.7c-1.5-1.6-3.5-2.8-5-4.4c-1.8-1.9-3.6-4-4.9-6.3c-1.7-3-2-6.4-5-9.2
	C104.6,695.4,105.6,690.8,105.2,686.6z M465.8,707.8c1.2,1.7,2.4,2.7,2.7,3.9c1.7,6.8,7,8.9,12.9,10c7.5,1.4,21-6.7,23.7-13.9
	c1.8-5,0.1-11.6-4.5-14.2c-9.5-5.5-15.8-6.2-22.8,1.7c-1.6,1.9-3.5,3.5-5.2,5.3C470.3,702.8,468.1,705.3,465.8,707.8z M510.9,717.7
	c-3.6,2.1-6.3,3.7-9.1,5.1c-3,1.5-6.3,2.5-9.2,4.2c-2.7,1.6-5.1,2.7-8.2,1.3c-2.1-0.9-4.1-0.2-5.2,1.9c-3.3,6.3,1.8,16.3,9.7,17.5
	c3.4,0.5,7.1-0.5,10.4,0c6.5,1.1,10.6-2,13.1-7.2c2.2-4.6,3.6-9.6,5.2-14.2C515.2,723.3,513.2,720.6,510.9,717.7z"/>
<path fill-rule="evenodd" clip-rule="evenodd" d="M97.7,1058.9c0.5-1.6,0.5-3.6,1.5-4.7c5.6-6.7,11.5-13.2,17.2-19.8
	c2.2-2.5,4.2-5.2,6.3-7.9c6.1-7.8,12.2-15.7,18.4-23.5c6-7.6,12.1-15,17.9-22.7c6.3-8.2,11.9-17.1,18.8-24.7
	c6.1-6.8,10.5-15,16.9-21.3c4.6-4.6,8.5-10.7,15.9-11.9c0.9-0.2,1.7-1.4,2.6-2c12-7.4,20.2-8.5,32.7,1.8c5.3,4.4,9.8,9.9,13.9,15.5
	c4.4,6,7.9,12.6,11.8,18.9c0.8,1.3,2,2.4,3,3.6c1.7,2.1,3.8,4,5,6.3c6.6,13.7,15.7,25.5,25.9,36.7c2.2,2.4,5,4.3,7.2,6.7
	c1.7,1.9,2.7,4.5,4.3,6.6c1.4,1.7,3.1,3.5,5,4.3c14.3,6,19,18.1,19.9,32.1c0.4,7-0.9,14.5-2.8,21.3c-2,7-6.5,13-12.4,17.4
	c-3.3,2.4-5.6,6.3-10.6,6.7c-3.6,0.2-6.9,1.5-10.5-0.2c-1.5-0.7-3.5-0.4-5.3-0.5c-1.1-0.1-2.7,0.5-3.3-0.1c-3.8-3.6-8.6-2.1-12.9-3
	c-10-2.1-16.6-8.7-20.9-17.4c-4.3-8.6-1.8-20.6,5.3-27.5c3.4-3.2,5-6.5,4.6-11.2c-0.7-10-0.9-20.1-1.4-30.2c-0.1-2-0.6-4.1-1.5-5.9
	c-4.4-9.1-8.7-18.3-13.6-27.2c-2.6-4.7-6.2-8.8-9.5-13.1c-1.8-2.3-3.8-4.4-5.6-6.7c-3.7-4.7-8.8-7.3-14.4-8.2
	c-11.9-1.9-11.9-1.6-21.3,6.3c-7.5,6.4-15.1,12.7-22.4,19.3c-2.3,2-3.8,4.9-5.5,7.5c-4.9,7.4-12,12.7-17.6,19.5
	c-7.9,9.5-15.1,19.6-22.9,29.2c-9.3,11.4-18.9,22.4-28.2,33.7c-2,2.5-4.6,3-7.2,2.9C97.8,1065.4,97.7,1062.2,97.7,1058.9z
	 M272.7,1068.5c0.1,1.5-0.4,3.5,0.3,4.5c2.7,3.6,5.8,6.9,9,10.1c0.7,0.7,2.6,0.5,3.7,0.1c3.6-1.2,7-3.2,10.7-3.8
	c4.2-0.7,6.6-3,7.6-6.7c0.9-3.6,3.1-7.6,0.8-11.1c-2.5-3.6-5.4-8.1-9.1-9.5C286.1,1048.4,273.7,1057.9,272.7,1068.5z M312.9,1064.1
	c5.1-0.8,9.9-1.2,14.5-2.4c4.5-1.2,5.7-3.2,5.7-7.8c0-2.5,0-5-0.3-7.4c-0.9-5.6-6.8-13-11.1-13.5c-6.6-0.8-11.7,2.1-15.3,7.6
	c-3.1,4.6-3,4.6,0.6,9.2c1,1.2,1.7,2.6,2.3,4.1C310.4,1056.7,311.4,1059.7,312.9,1064.1z"/>
<path fill-rule="evenodd" clip-rule="evenodd" d="M304.9,243.7c4.9-7,6.5-7.9,10.7-6.3c6.3,2.6,6.3,2.6,5.6,8.9
	C315.3,249,309.8,249.7,304.9,243.7z"/>
<path fill-rule="evenodd" clip-rule="evenodd" d="M749.8,960.1c5.8-2.2,5.8-2.2,8,1.8c-1.3,0.3-2.5,0.9-3.7,0.8
	c-5.5-0.3-11-1-16.4-1.3c-2.5-0.1-4.5-0.7-5-3.4c-0.3-2,2.3-4.7,4.7-4.8C742.8,953.3,747.4,955,749.8,960.1z"/>
<path fill-rule="evenodd" clip-rule="evenodd" d="M119.9,968c-5.4,1.4-9.4,2.5-13.4,3.4c-2.7,0.6-4.8-0.5-6.4-2.7
	c-1.8-2.4-0.7-5.9,2.2-6.2C108.3,961.7,114,962.8,119.9,968z"/>
<path fill-rule="evenodd" clip-rule="evenodd" d="M398.6,967.7c-9.2,5.2-17.5-2.2-25.9-0.1c-0.3-5,0.1-5.5,3.8-5.7
	c0.9,0,1.8-0.1,2.7,0.2C385.2,963.8,391.3,965.6,398.6,967.7z"/>
<path fill-rule="evenodd" clip-rule="evenodd" d="M93.2,248.9c-4.4-0.1-6.5-1.8-6.3-5.3c0.2-2.9,2.8-5.5,5.8-5.6
	c3.2-0.1,7.4,3.2,7.5,5.8C100.2,246.5,96.8,248.9,93.2,248.9z"/>
<path fill-rule="evenodd" clip-rule="evenodd" d="M245.7,715.5c-2.5,4.6-6.8,3.3-10.1,3.3c-2.5,0-6.1-0.9-7-4.3
	c-0.3-1,0.6-3.3,1.3-3.4c3.2-0.7,6.4-2.3,9.6,0.2C241.3,712.6,243.2,713.8,245.7,715.5z"/>
<path fill-rule="evenodd" clip-rule="evenodd" d="M331,968.4c-8.5,1.7-16.3-3.7-25.1-2.3c-0.4-3.4,0-5.5,3.5-5.5
	c1.6,0,3.2-0.2,4.7,0.3c5.7,1.9,11.3,3.9,17,5.9C331.1,967.4,331,967.9,331,968.4z"/>
<path fill-rule="evenodd" clip-rule="evenodd" d="M96.8,718.9c-5.6,3.3-10.5,2.8-14.4-0.3c-2.2-1.8-1.9-3.6-1-5.2
	c0.6-1,2.5-1.6,3.9-1.8C86.8,711.4,94.8,716.8,96.8,718.9z"/>
<path fill-rule="evenodd" clip-rule="evenodd" d="M456.2,964.3c-1.2,1-1.8,1.7-2.5,2.1c-0.8,0.4-1.7,0.9-2.5,0.8
	c-3.7-0.4-7.5-0.9-11.2-1.6c-1.2-0.2-2.3-1.3-3.4-1.9c3.4-5.2,6.6-6.1,11.3-3.4C450.4,961.5,453.1,962.7,456.2,964.3z"/>
<path fill-rule="evenodd" clip-rule="evenodd" d="M372.5,233.6c2-3.5,4.6-6,8.4-4.5c4.9,1.9,1.2,6.3,2.7,9.2
	C377,241.3,376.2,240.9,372.5,233.6z"/>
<path fill-rule="evenodd" clip-rule="evenodd" d="M249.7,246.9c-3.4-0.6-7.5-0.1-7.9-4.5c-0.2-2,1.5-4.6,3.1-6.2
	c1.7-1.7,4.5-1.2,6,0.8C253.7,240.5,251,243.6,249.7,246.9z"/>
<path fill-rule="evenodd" clip-rule="evenodd" d="M502.4,479.1c3.1,1.3,6.3,2.7,9.4,4.1c0.1,4.4-1.2,6.5-5.5,5.2
	c-0.6-0.2-1.4,0.1-2,0.1c-2.1-0.3-4.8,0.2-5.6-2.7C497.9,482.9,499.2,480.9,502.4,479.1z"/>
<path fill-rule="evenodd" clip-rule="evenodd" d="M152.3,484.7c2.5,0.8,5.2,1.6,7.8,2.5c-1.6,6.2-1.6,6.2-7.5,8.8
	C147.2,491.2,147.1,490.1,152.3,484.7z"/>
<path fill-rule="evenodd" clip-rule="evenodd" d="M611.6,238.9c0-3.3,0-6.3,0-9.2c5.9-0.6,5.9-0.6,11.6,4.4
	C620.6,237.6,617.3,239.6,611.6,238.9z"/>
<path fill-rule="evenodd" clip-rule="evenodd" d="M518.9,237.6c-2.1-7.4-1.8-7.7,5.8-8c0.9,0,1.7-0.9,2.8-1.6
	c1.8,2.8,2.2,5.3-0.1,7.9C524.9,238.7,522,238.6,518.9,237.6z"/>
<path fill-rule="evenodd" clip-rule="evenodd" d="M129.4,239.5c1.4-0.9,2.2-1.3,2.9-1.8c3.4-2.2,5.7-2.1,7.3,0.1
	c1.4,2,0.6,6.9-1.6,8.4c-2,1.4-4.1,1.9-5.5-1C131.6,243.5,130.6,241.8,129.4,239.5z"/>
<path fill-rule="evenodd" clip-rule="evenodd" d="M188.2,711.3c-6.5,4.1-12.5,1.5-19.1,0.2c0.3-1.9,0.5-3.4,0.8-5.6
	C176.2,707.8,182.2,709.5,188.2,711.3z"/>
<path fill-rule="evenodd" clip-rule="evenodd" d="M578.2,226.4c1.1,1.5,2,2.6,2.6,3.8c1.5,2.8,0.9,5.2-1.7,6.9
	c-2.5,1.6-5.2,0.9-6.9-1.8c-1.8-2.7-0.9-4.6,1.8-6.1C575.2,228.4,576.5,227.4,578.2,226.4z"/>
<path fill-rule="evenodd" clip-rule="evenodd" d="M289.4,476.3c0.8,3.9,1.5,7,2.2,10.1c-4,2.3-7.1,2-8.6-0.7
	C280.7,481.8,282.2,479.5,289.4,476.3z"/>
<path fill-rule="evenodd" clip-rule="evenodd" d="M97.1,490.6c-0.1,2.6-2,4.6-4.6,4.7c-3,0.1-5.1-2.3-4.9-5.8
	c0.2-2.8,1.5-4.7,4.5-4.9C94.7,484.4,97.2,487.5,97.1,490.6z"/>
<path fill-rule="evenodd" clip-rule="evenodd" d="M718,693.6c0.5-9.5,2.1-10.9,8.9-7.8c0.2,1.6,0.4,3.4,0.6,5.1
	C726.8,693.5,723.8,694.4,718,693.6z"/>
<path fill-rule="evenodd" clip-rule="evenodd" d="M866.2,694.1c3.3,2.3,5.4,3.8,7.8,5.5c-0.2,1.8-0.4,3.7-0.7,6.1
	c-3.1-0.5-6-0.9-9.9-1.6C864.3,700.9,865,698.1,866.2,694.1z"/>
<path fill-rule="evenodd" clip-rule="evenodd" d="M816.6,959.4c1.5,4.4,0.9,5.2-3,4.6c-3.7-0.6-7.4-1.1-10.9-1.6
	c-1-4.1,1.3-4.7,4-4.4C809.9,958.3,813.2,958.9,816.6,959.4z"/>
<path fill-rule="evenodd" clip-rule="evenodd" d="M213.4,972.8c-0.6-5.9-0.6-5.3,5.6-5c4.5,0.2,7.5,1.7,11.1,6
	C224,973.4,219,973.1,213.4,972.8z"/>
<path fill-rule="evenodd" clip-rule="evenodd" d="M184.9,484.4c4.3,0.5,7,1.5,6.6,5.4c-0.1,1.6-0.6,3.8-1.7,4.6
	c-2.9,2.2-4.8-0.7-7.4-2.2C183.3,489.7,184.1,487.2,184.9,484.4z"/>
<path fill-rule="evenodd" clip-rule="evenodd" d="M755.8,215.2c2.3,1.3,4.7,2.6,8,4.5c-2.9,2.7-5.1,4.8-7.1,6.7
	c-1.7-1-3.2-1.8-4.8-2.7C750.9,220.1,753,217.9,755.8,215.2z"/>
<path fill-rule="evenodd" clip-rule="evenodd" d="M403.8,709.7c1.8-3.5,3.9-5,7.7-3.7c2.5,0.9,2.7,2.6,2.6,4.7
	c-0.2,4.8-4.7,2.6-6.9,4.8C405.9,713.3,404.8,711.5,403.8,709.7z"/>
<path fill-rule="evenodd" clip-rule="evenodd" d="M574.1,487.3c-2.4,2.6-4.4,4.8-6.5,7.2c-1.5-3-4.8-5.6-2.3-9.4
	c0.8-1.3,2.9-2.5,4.3-2.5C572.3,482.6,574,484.5,574.1,487.3z"/>
<path fill-rule="evenodd" clip-rule="evenodd" d="M854.9,479.1c-2.7,1.7-4.7,3-6.8,4.4c-4.8-4-4.8-4.4-0.2-10.5
	C851.7,473.2,853.3,475.9,854.9,479.1z"/>
<path fill-rule="evenodd" clip-rule="evenodd" d="M807.6,694c4.5,1,7.6,2.8,6.7,8.1c-3.1,0.6-6.5,3.1-8.9-0.5
	C803.2,698.5,805.8,696.1,807.6,694z"/>
<path fill-rule="evenodd" clip-rule="evenodd" d="M667.2,234.9c-2.6,1.8-4.8,4.7-8.2,2c-1.1-0.9-1.8-3.2-1.5-4.5
	c0.5-2.1,2-4.1,4.8-3.8C666.2,228.9,666.8,231.6,667.2,234.9z"/>
<path fill-rule="evenodd" clip-rule="evenodd" d="M689.6,489.6c0-3.5,0-6.5,0-9.6c9.1,3.1,9.1,3.1,8.7,8.2
	C695.8,488.6,693.2,489,689.6,489.6z"/>
<path fill-rule="evenodd" clip-rule="evenodd" d="M330.3,482.5c0.3-3,1-5.1,4-4.8c3.1,0.3,7.1,1.7,7.7,4.2c0.6,2.3-1.2,4.3-3.9,3.6
	C335.4,484.8,332.9,483.5,330.3,482.5z"/>
<path fill-rule="evenodd" clip-rule="evenodd" d="M799.9,221.4c-2.7-3.8-1-6.3,1.4-8.7c0.6,0,1.4-0.3,1.9-0.1c2.2,1.2,5.9,1,5.7,4.6
	c-0.2,4-4.1,2.4-6.3,3.3C801.8,220.8,801,221,799.9,221.4z"/>
<path fill-rule="evenodd" clip-rule="evenodd" d="M950.9,227c-1.9-4.1-2.4-7.6,2.6-10.4c1.6,0.9,3.6,2,6.8,3.8
	C955.8,222.2,957,228.4,950.9,227z"/>
<path fill-rule="evenodd" clip-rule="evenodd" d="M901.1,220.3c1.2-3.7,2.4-7.4,6.3-7.3c2.9,0.1,4.8,2.8,4.9,6.4
	C908.7,220.5,905.5,222.8,901.1,220.3z"/>
<path fill-rule="evenodd" clip-rule="evenodd" d="M398.4,488.3c-0.6-5.7,1.9-8.2,6.6-9.2c2.8,1.2,3.6,3.8,2.4,6
	C405.6,488.3,402.1,488.5,398.4,488.3z"/>
<path fill-rule="evenodd" clip-rule="evenodd" d="M671.6,691.6c-1.8,2.2-3.1,4.8-6.2,3.3c-2.1-1-4.2-2.6-3.4-5.2
	c0.4-1.5,1.8-3.6,3.1-3.9C668.9,685.1,670.7,687.8,671.6,691.6z"/>
<path fill-rule="evenodd" clip-rule="evenodd" d="M680.9,956.6c-0.3,3.6-1.1,6.2-4.6,6.1c-1.5,0-4.1-1-4.3-2
	c-0.7-2.9,0.6-5.5,3.6-7.4C677.3,954.4,679,955.4,680.9,956.6z"/>
<path fill-rule="evenodd" clip-rule="evenodd" d="M907.4,490.4c-3.5-4.8-3.7-7.5-0.5-9.2c2.4-1.3,4.4-0.3,5.7,1.7
	C914.5,485.5,913.3,487.2,907.4,490.4z"/>
<path fill-rule="evenodd" clip-rule="evenodd" d="M609.9,964.6c0.7-1.8,1.4-3.6,2.1-5.2c6.3,0.3,6.3,0.3,12.4,5
	c-4.4,4.2-9.4-2.3-13.5,1.6C610.5,965.5,610.2,965.1,609.9,964.6z"/>
<path fill-rule="evenodd" clip-rule="evenodd" d="M555.5,694.8c-0.4,1.5-0.4,2.2-0.7,2.8c-1.6,3.4-5,6.4-6.6,5.5
	c-3.6-2-0.2-4.8-0.4-7.2c-0.1-1,0.5-2,1-3.8C551.2,693,553.2,693.8,555.5,694.8z"/>
<path fill-rule="evenodd" clip-rule="evenodd" d="M875.7,957.1c-0.3,1.6-3.2,5.2-6.4,8.3c-2.1-2-4.3-3.8-2.3-7.2
	C868.9,955,869.9,954.9,875.7,957.1z"/>
<path fill-rule="evenodd" clip-rule="evenodd" d="M937.6,692.1c2.4,3.2,3.6,4.7,4.9,6.4c-1.1,1.5-1.8,2.9-2.9,3.9
	c-1,0.9-2.4,1.4-3.6,2c-0.6-1.3-2-2.8-1.8-4C934.6,698,936,695.8,937.6,692.1z"/>
<path fill-rule="evenodd" clip-rule="evenodd" d="M387.5,480.6c-2.3,2.2-4.1,3.8-6.3,5.9c-1.6-3.2-6.9-3.9-3.8-7.9
	C380.3,474.8,383.3,478.3,387.5,480.6z"/>
<path fill-rule="evenodd" clip-rule="evenodd" d="M934.8,968.1c0-1.8-0.6-3.9,0.1-5.2c1.4-2.3,4-1.6,6-0.4c1.7,1,3.1,2.4,4.8,3.8
	C943,971.6,938.6,965.2,934.8,968.1z"/>
<path fill-rule="evenodd" clip-rule="evenodd" d="M332.5,716.9c-3.8-5.7,4.3-4.5,3.6-8.7c3,2.2,5.3,3.9,8.4,6.1
	c-1.8,1-3.9,2.4-4.1,2.1C337.5,713.4,335,716.4,332.5,716.9z"/>
<path fill-rule="evenodd" clip-rule="evenodd" d="M773.5,481.6c1.7,2.1,3,3.8,4.4,5.4c-1.6,3.1-4,4-6.8,3.6c-0.8-0.1-1.8-1.9-2.1-3
	C768.2,483.9,771.4,483.4,773.5,481.6z"/>
<path fill-rule="evenodd" clip-rule="evenodd" d="M552.9,962.7c-5.1-0.7-9.4-1.3-15.3-2c3.5-1.9,5.6-3.1,8-4.5
	C546.8,959.6,553.5,956,552.9,962.7z"/>
<path fill-rule="evenodd" clip-rule="evenodd" d="M283.3,709.2c6.2,1.4,8.2,3.1,7.2,5.5c-1.6,4-4.6,2.2-7.9,1.3
	C282.8,713.9,283,711.8,283.3,709.2z"/>
<path fill-rule="evenodd" clip-rule="evenodd" d="M608,1383.5c3.2-0.1,6.3,3.2,6.4,6.6c0.1,3.3-4.7,7.4-8.5,7.3
	c-2.4-0.1-3.6-2.2-3.6-6.2C602.4,1386.5,604.5,1383.6,608,1383.5z"/>
<path fill-rule="evenodd" clip-rule="evenodd" d="M632.6,1374c-2.1,0.1-4.9-2.5-4.9-4.6c-0.1-2.7,1.8-5.3,4-5.4
	c2.4-0.1,5.2,2.5,5.5,5C637.4,1370.9,634.7,1373.9,632.6,1374z"/>
<path fill-rule="evenodd" clip-rule="evenodd" d="M965.4,87.3c0.1,2.8-2.3,5.9-4.9,6.2c-2.1,0.3-4.2-1.7-4.4-4.1
	c-0.3-3.2,1.8-6,4.6-6.2C963.7,83,965.3,84.3,965.4,87.3z"/>
<path fill-rule="evenodd" clip-rule="evenodd" d="M956,55.5c3.3,0.1,5.3,1.9,5.1,4.7c-0.1,2.3-4.9,7.2-7,7.1c-2.5,0-5.2-3.7-5.2-6.8
	C948.9,57.1,951.2,55.4,956,55.5z"/>
<path fill-rule="evenodd" clip-rule="evenodd" d="M653,427.6c2.3,1.8,4.3,3.9,2.2,6.7c-1,1.3-3.3,2-5.1,2.3
	c-0.7,0.1-2.4-1.8-2.4-2.7C647.8,430.7,648.8,427.8,653,427.6z"/>
<path fill-rule="evenodd" clip-rule="evenodd" d="M624.8,427.4c5.7,0.3,6.7,2,4.2,7c-0.6,1.2-1.1,2.5-2.1,3.4
	c-2.3,2.2-5.3,3.2-7.9,1.3c-1.5-1.1-2.6-3.9-2.4-5.7c0.3-2.6,1.7-5.2,4.8-5.8C622.5,427.5,623.7,427.5,624.8,427.4z"/>
<path fill-rule="evenodd" clip-rule="evenodd" d="M915,623.1c-0.9-1.7-2.8-3.7-2.4-4.9c0.5-1.6,2.9-2.6,4.6-4
	C920.5,620,920.5,620,915,623.1z"/>
<path fill-rule="evenodd" clip-rule="evenodd" d="M921.4,653c-0.8,2.9-1.2,5.1-2.2,7c-0.2,0.5-2.6,0.4-3.6-0.2
	c-2.8-1.6-1.5-4.2-1.3-6.8C916.3,653,918,653,921.4,653z"/>
<path fill-rule="evenodd" clip-rule="evenodd" d="M489,592.9c-0.5,2.1-0.9,4.3-1.5,6.8c-3.8-0.1-7.6,2.4-11.3-0.8
	c-1.5-6.5-0.5-9.8,3.4-11.5C482.7,586,484.5,587,489,592.9z"/>
<path fill-rule="evenodd" clip-rule="evenodd" d="M517,577.9c-6.7-0.9-8.6-2.9-7.1-7c1.1-3,4.1-4.6,7-3.6c2.3,0.8,3.4,3.8,2.2,6.7
	C518.6,575.4,517.7,576.7,517,577.9z"/>
<path fill-rule="evenodd" clip-rule="evenodd" d="M483.7,700.5c6,3.1,6,3.1,4.5,11.8c-2.6,0.2-5.4,1.7-7.4-1.8
	C478.8,706.9,479.4,704.5,483.7,700.5z"/>
<path fill-rule="evenodd" clip-rule="evenodd" d="M505.3,729.9c3.1,3.8,1.5,6.5-0.9,8.7c-0.9,0.9-3.5,1.6-3.8,1.2
	c-1.4-2-2.4-4.3-3.7-7C500.4,731.6,502.9,730.7,505.3,729.9z"/>
<path fill-rule="evenodd" clip-rule="evenodd" d="M294,1067.3c-2.5,1-4.8,1.9-7.5,3c-2-3.1-3.4-6.5-0.7-9.5c1.2-1.3,4.8-1.5,6.7-0.8
	C295.6,1061.1,295.1,1064.2,294,1067.3z"/>
<path fill-rule="evenodd" clip-rule="evenodd" d="M318.8,1052.1c-5.5,1.8-7.5-1.2-8.8-5.6c2.8-0.5,4.6-4.6,8.1-2.2
	C321,1046.4,320.8,1049.3,318.8,1052.1z"/>
</svg>
