<?xml version="1.0" encoding="utf-8"?>
<!DOCTYPE svg PUBLIC "-//W3C//DTD SVG 1.1//EN" "http://www.w3.org/Graphics/SVG/1.1/DTD/svg11.dtd">
<svg artist="zl2017" version="1.1" id="zlIcon-stats-meeter" xmlns="http://www.w3.org/2000/svg" xmlns:xlink="http://www.w3.org/1999/xlink" x="0px" y="0px"
	 width="1000px" height="1875.7px" viewBox="0 0 1000 1875.7" enable-background="new 0 0 1000 1875.7" xml:space="preserve">
<path fill-rule="evenodd" clip-rule="evenodd" d="M712.6,774.1c-36.8-11.9-50.2-44.1-35.2-78.5c15.3-34.9,15.3-34.9,6.3-73.2
	c-39.9,4.7-79.9,9.5-120.1,14.2c-73.9,8.7-147.9,16.7-221.7,26.2c-49.9,6.4-99.4,16-149.3,22.1c-50.5,6.1-101.2,10.2-151.9,13.5
	c-6.5,0.4-15.6-7.7-20.3-14.2C-0.1,655.8-1,623.4,1.5,589.6c3.2-43.2,1.8-86.6,5-129.8c3-40.9,5.3-82.7,15.7-122
	c7-26.2,27.6-48.9,42.1-73.1c36.6-60.9,82.5-113.7,142.2-152.5c36.1-23.4,74.3-44.5,113.7-61.7c37.9-16.5,77.9-29.2,118.1-39.1
	c63.5-15.7,127.5-14.9,191.6,1.2c73.9,18.6,138.9,54.2,200.4,97.7c42.7,30.1,72.2,71.6,92.5,118.3c21.3,49,40.7,99.4,54.1,150.9
	c12.1,46.8,16.7,95.8,21.2,144.1c1.8,19.3-2.7,40.5-9.6,58.9c-3.5,9.4-17.6,18.2-28.4,20.9c-18.7,4.7-38.7,4.5-58.6,6.3
	c0,9.6-1.4,20.1,0.5,30c1.1,5.9,6.3,13.2,11.6,15.8c19.4,9.2,32.4,24.1,33.4,44.5c1.1,22.4-11.4,43.8-31.8,50
	c-31.7,9.7-27.2,32.7-27.3,54.7c-0.3,41.8,25.1,73,48.7,103.2c27.8,35.5,44.8,73.3,54.8,117.9c14.9,66.1,9,128.5-16.8,188.7
	c-25.6,60.1-65.4,108.9-131.5,129.5c-9.3,2.9-18.8,6-27.3,10.6c-13.8,7.3-24,14.9-17.5,35.3c8.1,25.4-3,48.5-25.9,61.1
	c-15.7,8.6-18.7,19.7-18.1,34.3c2.1,52.2,5.1,104.4,7,156.7c1.4,39.1,1,78.3,2.3,117.4c1,28.4,2.7,56.9,5.9,85.2
	c1.8,16.5-2.6,27-19.5,27.7c-15.2,0.7-26.6-6.8-26.9-23.5c-0.2-10.8,3.6-21.5,3.9-32.4c0.9-40.3,2.4-80.6,1.3-120.9
	c-1.3-51.2-3.8-102.5-8-153.6c-1.6-20.1-13.1-39.7-13-59.4c0.1-24.1-9.2-42.4-20.6-61.9c-10.9-18.6,4.1-54.1,24.1-62.7
	c25.2-10.8,43-10.1,64.7,0.5c23.5-12.1,43.2-25.8,65-32.8c56.1-17.8,89.2-58.3,114-108.1c40.1-80.5,33.6-162.8,3.3-243.5
	c-10.8-28.8-32.8-53.5-51-79.2c-26.2-37.1-43.1-76.3-34-124c-5.1-1.5-9.4-2.2-13.1-4c-40.3-19.7-57-61-18.1-99
	c7.2-7.1,9.9-19.9,12.1-30.6c1.7-8.4-0.8-17.6-1.5-27.6c-30.5,1.5-61.1,2.7-91.6,4.9c-3.7,0.3-9.9,5.6-10.1,9
	c-1.4,19.4-8.6,37.9,16.8,52.7c37.4,21.9,30.9,75.8-11.3,89.8c-34,11.3-37.9,39-41.6,63.4c-9.8,63.8,23.8,87,75.8,104.2
	c49.4,16.2,85.3,47.5,111.9,85.5c27.5,39.2,26.7,88.5,6.6,134.4c-8.4,19.3-16.6,38.7-26.5,57.3c-30.5,56.9-84.2,73.1-142.5,72.4
	c-58-0.7-102.2,20.1-136,67.3c7.6,5.7,16.2,11.3,23.8,18.1c26,23.3,23.1,57.3-4.6,79c-8.2,6.4-16.9,17.6-17.7,27.3
	c-3.3,36.6-5.4,73.5-4.4,110.1c1.6,61.7,5.7,123.3,9.2,184.9c1.6,27.4,4.8,54.8,6.2,82.2c0.4,7.2-1,17.5-5.6,21.3
	c-4.6,3.7-15.9,3.4-21.5,0.1c-7-4-15.9-12.8-16-19.6c-1.4-92.7-0.4-185.4-2.3-278.1c-0.8-39.3-6.8-78.5-11.4-117.7
	c-0.5-4.4-6.3-8.8-10.6-11.9c-12.4-8.9-31.7-14.1-26-34.4c6.1-22.1,7.5-50.4,37.9-54.8c21.5-3.1,32-15.1,43.8-31.9
	c25.3-36.2,62.5-54.8,106.6-58.7c21.7-1.9,43.5-2.5,65.3-4.5c48.4-4.4,78-33.9,97.6-75.4c7-14.8,11.2-31,17.6-46.1
	c20.4-48.3,9.6-114-44.7-149.4c-22.2-14.5-45.5-27.8-69.4-39.1c-41.4-19.4-75-45.4-82.8-93c-2.5-15.2,2.4-32,5.8-47.7
	C702.8,798.7,708.1,787,712.6,774.1z M272.7,485.5c49.1,19.6,93,38.2,138,54.2c9.5,3.4,26.6,0.9,33.2-5.8
	c25.3-25.5,54.6-31.4,87.7-24.9c42.2,8.2,71.1,36.4,97.4,67.7c7.3,8.7,11.8,16,26.8,13c31.4-6.2,63.6-7.9,95.3-12.4
	c41.9-5.9,84.4-9.6,125.2-20c31.6-8.1,60.9-25.1,91.8-38.3c-6.6-47-11.3-92.6-19.5-137.7c-16.8-92.3-46.1-179.6-120.7-242.8
	c-24.8-21-54-37-82.2-53.6C648.5,28,545.1,7.2,434.3,34.7c-82.5,20.5-160,54.3-228,104.7C123,201.2,68.3,284.3,42.1,385.9
	c-21,81.3-11.4,164.4-17.3,246.5c-2,26.3,11.4,33.2,37.1,30.2c69.9-8.2,139.8-15.8,209.7-23.2c38.5-4.1,77-7.3,111.8-10.5
	c5.5-14.7,10.2-27.4,15.1-40.6c-19.6-12-41-24.8-62.1-38.1c-21.7-13.7-43.1-27.8-62.1-40c-9.3,12.2-17.2,22.5-27.3,35.7
	c-8.2-17.3-11.4-29.5-18.6-38.4c-16.4-20.3-35.2-38.6-52.1-58.4c-4-4.8-4.6-12.4-7.3-20.3c37.4,5.9,69.6,13.7,101.9,14.9
	c15.3,0.6,21.7,3.5,24.9,16.7C289.6,467,283.6,473.5,272.7,485.5z M605.1,597.9c-21.4-34.9-68.8-58.4-97-50.8
	c-36.5,9.9-60.2,38.7-60.5,77.5C499.5,615.9,550.6,607.2,605.1,597.9z M734.7,1438.7c22.4,0,46.4-17.9,46-34.4
	c-0.3-15.2-20.9-38.7-33.4-38.2c-26.6,1.1-42.7,14.4-43.1,35.5C704.1,1421.2,718.4,1438.7,734.7,1438.7z M721.9,685.5
	c-17.4-0.1-28.4,12.2-28.7,32.1c-0.4,25.8,7.6,36.3,27.7,36c27.4-0.3,49.3-17.9,48.6-39.1C768.9,696.7,750.6,685.6,721.9,685.5z
	 M895,689c-8.4-17.5-14.3-21.1-21.4-14.3c-6.4,6.2-12.5,12.6-19.4,18.3c-16.3,13.7-13.8,35.4,3.4,48.8c15.3,12,28.5,3.8,38.8-3.7
	c12.8-9.3,24-22.6,31.3-36.5c2.2-4.2-10.8-16.4-15.3-22.8c-5.7,12.3-8.7,18.5-11.5,24.8c-2.1,4.5-5.8,9.3-5.5,13.8
	c0.8,14.5-7.1,13.1-15.1,8.3c-8-4.8-14.8-11.7-25.9-20.7c10.8-3.2,17.1-4.5,22.9-6.9C883.5,695.7,889.2,692.1,895,689z
	 M610.2,1374.8c-12.6,0-22.7-0.2-32.8,0.1c-6.5,0.2-17.7-0.6-18.7,2c-5.1,13.7-13.2,30-9.5,42.2c4.6,15.2,40.6,21,53.3,12.9
	C629.3,1414.9,630.6,1401,610.2,1374.8z M730.2,617.5c-9.3,1.1-17,1.9-27.2,3.1c8.3,16.6-4.8,42.7,27.2,42.4
	C730.2,646.8,730.2,633,730.2,617.5z M874.3,653.7c14.1-10,14.5-30.5,0-46.8C874.3,623.8,874.3,638.3,874.3,653.7z"/>
<path fill-rule="evenodd" clip-rule="evenodd" fill="#FFFFFF" d="M272.7,485.5c11-12,16.9-18.4,23.2-25.3
	c-3.2-13.2-9.6-16.1-24.9-16.7c-32.4-1.2-64.5-9-101.9-14.9c2.7,7.9,3.3,15.6,7.3,20.3c16.9,19.8,35.6,38.1,52.1,58.4
	c7.2,8.9,10.4,21.1,18.6,38.4c10.1-13.2,18-23.5,27.3-35.7c19,12.2,40.4,26.4,62.1,40c21.1,13.3,42.6,26.1,62.1,38.1
	c-4.9,13.2-9.6,25.9-15.1,40.6c-34.8,3.2-73.3,6.4-111.8,10.5c-70,7.4-139.9,15-209.7,23.2c-25.6,3-39-3.9-37.1-30.2
	c6-82.1-3.6-165.2,17.3-246.5C68.3,284.3,123,201.2,206.4,139.4c68-50.4,145.5-84.2,228-104.7C545.1,7.2,648.5,28,745.6,84.9
	c28.2,16.6,57.4,32.6,82.2,53.6c74.6,63.2,103.9,150.4,120.7,242.8c8.2,45,13,90.7,19.5,137.7c-30.9,13.3-60.2,30.3-91.8,38.3
	c-40.8,10.4-83.3,14.1-125.2,20c-31.7,4.5-63.9,6.2-95.3,12.4c-15,3-19.6-4.4-26.8-13c-26.3-31.3-55.2-59.5-97.4-67.7
	c-33.1-6.4-62.5-0.6-87.7,24.9c-6.6,6.7-23.7,9.2-33.2,5.8C365.7,523.7,321.7,505,272.7,485.5z M875.3,306.4
	c-37.9,16.6-75,28.4-110,54.4C810.7,367.6,876.2,336.4,875.3,306.4z M626,95c-0.7-0.2-5.9-2.9-10.9-2.4c-4.5,0.4-11.5,3.5-12.5,6.8
	c-5.1,17.5-9.1,35.4-12.2,53.4c-0.6,3.4,3.7,10.2,6.9,11c3.1,0.8,10.3-3,11.4-6.2C614.4,140,618.7,121.9,626,95z M261,149.4
	c7.2,18.9,12.6,34.2,19.1,49c1.1,2.5,8,4.7,11,3.6c3.9-1.5,8.7-5.9,9.5-9.8C302.8,182.2,277.6,152.2,261,149.4z M61.3,394.7
	c0.4,2.5,0.9,5,1.4,7.5c10.1,4.7,20,10.4,30.5,13.4c3,0.8,8.3-5.9,12.5-9.3c-8.1-6.3-15.5-14.7-24.7-18.3
	C76.1,386,68,392.2,61.3,394.7z"/>
<path fill-rule="evenodd" clip-rule="evenodd" fill="#FFFFFF" d="M605.1,597.9c-54.5,9.3-105.6,18-157.4,26.7
	c0.3-38.8,23.9-67.6,60.5-77.5C536.3,539.5,583.7,563,605.1,597.9z"/>
<path fill-rule="evenodd" clip-rule="evenodd" fill="#FFFFFF" d="M734.7,1438.7c-16.3,0-30.7-17.6-30.4-37.1
	c0.3-21.1,16.4-34.4,43.1-35.5c12.5-0.5,33.1,23,33.4,38.2C781.1,1420.8,757.2,1438.8,734.7,1438.7z M761.1,1409.8
	c-3.7-21.7-17.7-24.5-36-19.9C730.2,1419,735.3,1421.7,761.1,1409.8z"/>
<path fill-rule="evenodd" clip-rule="evenodd" fill="#FFFFFF" d="M721.9,685.5c28.6,0.1,47,11.3,47.5,29
	c0.7,21.2-21.2,38.8-48.6,39.1c-20.1,0.3-28.1-10.2-27.7-36C693.5,697.6,704.5,685.3,721.9,685.5z M747.7,701.7
	c-15.7,1-26.6,1.7-37.6,2.4c2.7,8.2,3.4,18.5,8.8,24.1c4.7,4.9,14.9,4.7,22.6,6.8C743.3,725.3,745.1,715.6,747.7,701.7z"/>
<path fill-rule="evenodd" clip-rule="evenodd" fill="#FFFFFF" d="M895,689c-5.8,3.1-11.5,6.6-17.7,9.2c-5.8,2.4-12,3.7-22.9,6.9
	c11.1,9,17.9,15.9,25.9,20.7c8,4.8,15.9,6.2,15.1-8.3c-0.2-4.5,3.5-9.3,5.5-13.8c2.8-6.3,5.8-12.5,11.5-24.8
	c4.5,6.4,17.6,18.6,15.3,22.8c-7.3,13.9-18.5,27.2-31.3,36.5c-10.4,7.5-23.5,15.8-38.8,3.7c-17.2-13.4-19.7-35.2-3.4-48.8
	c6.8-5.7,13-12.2,19.4-18.3C880.8,667.9,886.6,671.6,895,689z"/>
<path fill-rule="evenodd" clip-rule="evenodd" fill="#FFFFFF" d="M610.2,1374.8c20.4,26.2,19.1,40.1-7.6,57.2
	c-12.7,8.1-48.8,2.3-53.3-12.9c-3.7-12.2,4.4-28.5,9.5-42.2c1-2.7,12.2-1.8,18.7-2C587.5,1374.6,597.6,1374.8,610.2,1374.8z
	 M567.6,1416c3,2,6,3.9,9,5.9c9.2-9.6,18.4-19.1,27.7-28.7c-9-4.1-18-8.3-28.5-13.1C572.2,1395.6,570,1405.8,567.6,1416z"/>
<path fill-rule="evenodd" clip-rule="evenodd" fill="#FFFFFF" d="M730.2,617.5c0,15.5,0,29.3,0,45.4c-32,0.3-18.8-25.7-27.2-42.4
	C713.3,619.4,720.9,618.6,730.2,617.5z"/>
<path fill-rule="evenodd" clip-rule="evenodd" fill="#FFFFFF" d="M874.3,653.7c0-15.4,0-30,0-46.8
	C888.8,623.2,888.4,643.7,874.3,653.7z"/>
<path fill-rule="evenodd" clip-rule="evenodd" d="M875.3,306.4c0.9,29.9-64.6,61.1-110,54.4C800.3,334.8,837.3,323,875.3,306.4z"/>
<path fill-rule="evenodd" clip-rule="evenodd" d="M626,95c-7.2,26.9-11.6,45-17.3,62.7c-1,3.2-8.2,7.1-11.4,6.2
	c-3.2-0.8-7.5-7.6-6.9-11c3.1-18,7.1-35.9,12.2-53.4c1-3.3,8-6.4,12.5-6.8C620,92.1,625.3,94.8,626,95z"/>
<path fill-rule="evenodd" clip-rule="evenodd" d="M261,149.4c16.6,2.8,41.8,32.8,39.6,42.8c-0.8,3.9-5.5,8.3-9.5,9.8
	c-3,1.1-9.9-1.1-11-3.6C273.6,183.7,268.2,168.3,261,149.4z"/>
<path fill-rule="evenodd" clip-rule="evenodd" d="M61.3,394.7c6.7-2.5,14.8-8.6,19.7-6.7c9.2,3.6,16.6,12,24.7,18.3
	c-4.2,3.3-9.5,10.1-12.5,9.3c-10.6-3-20.4-8.7-30.5-13.4C62.3,399.7,61.8,397.2,61.3,394.7z"/>
<path fill-rule="evenodd" clip-rule="evenodd" d="M761,1409.9c-25.7,11.8-30.8,9.1-36-19.9C743.4,1385.3,757.3,1388.2,761,1409.9z"
	/>
<path fill-rule="evenodd" clip-rule="evenodd" d="M747.7,701.7c-2.6,13.9-4.4,23.6-6.2,33.3c-7.7-2.1-17.9-1.8-22.6-6.8
	c-5.4-5.6-6.1-15.9-8.8-24.1C721.1,703.3,732,702.6,747.7,701.7z"/>
<path fill-rule="evenodd" clip-rule="evenodd" d="M567.6,1416c2.3-10.2,4.6-20.4,8.1-35.9c10.5,4.8,19.5,9,28.5,13.1
	c-9.2,9.6-18.4,19.1-27.7,28.7C573.6,1419.9,570.6,1418,567.6,1416z"/>
</svg>
