<?xml version="1.0" encoding="utf-8"?>
<!DOCTYPE svg PUBLIC "-//W3C//DTD SVG 1.1//EN" "http://www.w3.org/Graphics/SVG/1.1/DTD/svg11.dtd">
<svg artist="zl2017" version="1.1" id="zlIcon-support-phone" xmlns="http://www.w3.org/2000/svg" xmlns:xlink="http://www.w3.org/1999/xlink" x="0px" y="0px"
	 width="1000px" height="1007.5px" viewBox="0 0 1000 1007.5" enable-background="new 0 0 1000 1007.5" xml:space="preserve">
<path fill-rule="evenodd" clip-rule="evenodd" d="M429.9,0c58.2,2,106,9.5,153.9,18.5c79.9,15.1,150.8,50.7,218.8,92
	c38.2,23.2,70.2,55.3,96.7,92.7c33.3,47,54.9,99.4,73.1,153.1c13.4,39.7,20.1,81.1,21,123.4c0.5,23.4,5.1,46.8,6.1,70.2
	c0.6,13.8-2.7,27.7-3.5,41.6c-3.8,65.3-18.5,127.8-46.1,187.3c-23.8,51.3-60.6,91.6-103.7,127.3c-52.6,43.6-115.4,63.6-179.6,81.9
	c-46.6,13.3-94.1,16.8-141.9,19.3c-11.6,0.6-23.8-0.8-35-3.8C427,987.1,363.4,973.3,302.4,952c-64-22.3-124.5-54-177.9-97
	c-29.8-24-51-54.9-68.1-88.8c-6.3-12.5-11.8-25.4-18.3-37.8C14.4,683,4.6,633.5,0.9,583.7c-2.4-32.5,5.4-65.8,9.1-98.7
	c2.2-19,4.1-38.2,8.4-56.8c10.8-46.8,22.8-93.2,49.9-133.9c3.3-4.9,6.4-10.2,8-15.8c11.7-41.9,38.9-73.7,66.8-105.4
	c14.1-16.1,26.7-33.5,41.2-49.2C207.6,98.8,236,80.2,264.8,62c35.7-22.6,72.7-42.5,113.5-53.6C397.9,3,418.7,1.7,429.9,0z
	 M983.7,542.5c-1.4-25-3.1-60.4-5.7-95.7c-1-13.9-3.4-27.8-6.1-41.5c-8.8-45.2-26.5-87.6-45.6-128.9
	c-33.3-71.9-83.9-129.4-153.6-168.9c-57.9-32.8-117.7-61.8-183.1-75.6c-41.7-8.8-84-15.3-126.3-19.9c-30.8-3.3-62.2-2.3-91.9,8.7
	c-44.5,16.4-86,38.8-125,65.7c-9.1,6.2-18,12.7-26.6,19.6c-31.2,25.2-55.9,56.6-81.5,87.1c-21.5,25.6-41.1,52-51.6,84.2
	c-2.9,9-7.5,17.7-12.2,26C53.8,340.1,36.3,378.1,29.3,420c-3,18.1-4.5,36.4-7.4,54.6c-2.5,15.2-7.2,30.2-8.8,45.5
	c-4.8,46.5-3,92.5,8.9,138.1C35.9,711.8,59.9,760.6,92,805c13.5,18.7,31.7,34.6,49.7,49.4c37.9,31.1,81.6,52.7,125.8,73.2
	c19.3,9,38.9,18.1,59.2,24.2c41.6,12.3,83.8,22.9,125.9,33.5c17.8,4.5,36,9.5,54.2,10.3c53.3,2.3,106.1-2.8,157.6-17.5
	c61.1-17.5,121-37.5,171.7-78.3c34.2-27.6,65.3-58.7,87.1-96.3C968.1,726.4,984.3,641.3,983.7,542.5z"/>
<path fill-rule="evenodd" clip-rule="evenodd" fill="#FFFFFF" d="M983.7,542.5c0.5,98.8-15.6,183.9-60.4,260.9
	c-21.8,37.5-52.9,68.7-87.1,96.3c-50.7,40.8-110.6,60.8-171.7,78.3c-51.5,14.7-104.3,19.8-157.6,17.5c-18.2-0.8-36.4-5.8-54.2-10.3
	c-42.1-10.6-84.3-21.2-125.9-33.5c-20.3-6-39.9-15.2-59.2-24.2c-44.2-20.5-88-42.2-125.8-73.2c-18-14.8-36.2-30.6-49.7-49.4
	c-32.1-44.4-56-93.2-70-146.8c-11.9-45.7-13.8-91.7-8.9-138.1c1.6-15.3,6.4-30.2,8.8-45.5c2.9-18.1,4.3-36.5,7.4-54.6
	c7.1-41.9,24.5-80,45.2-116.7c4.7-8.3,9.2-16.9,12.2-26c10.5-32.3,30.2-58.6,51.6-84.2c25.6-30.6,50.3-61.9,81.5-87.1
	c8.6-6.9,17.5-13.3,26.6-19.6c39-26.9,80.5-49.3,125-65.7c29.7-10.9,61.2-12,91.9-8.7c42.3,4.6,84.7,11.1,126.3,19.9
	c65.5,13.9,125.2,42.8,183.1,75.6c69.7,39.5,120.3,97,153.6,168.9c19.1,41.3,36.8,83.7,45.6,128.9c2.7,13.7,5.1,27.6,6.1,41.5
	C980.6,482.2,982.3,517.6,983.7,542.5z M86.8,550.6c0.2,0,0.4,0,0.7,0c0,23.6-2.4,47.5,0.5,70.8c4.7,37.2,15,73.1,32.7,106.9
	c19.4,37.2,45.5,68.9,75.8,97.1c21,19.6,42.4,39.7,66.7,54.4c57.2,34.8,121.9,46.7,187.4,54.5c42,4.9,83.9,3.6,126.1,2.5
	c58.4-1.4,114.3-12,167.1-36.4c25.3-11.7,52.1-21.9,72.1-42.4c13.9-14.1,25.7-30.2,39.4-44.6c19.7-20.8,32.8-45.8,42.5-71.9
	c11.5-31,20.3-63.1,28.3-95.2c4.6-18.4,7.9-37.7,7.5-56.6c-0.8-37.5-3.8-75.1-7.4-112.5c-2.9-30.7-4.5-61.7-16.8-90.8
	c-6.6-15.6-10.3-32.3-16.2-48.2c-21.1-56-47.5-108.5-91-151.7c-38.4-38.1-82.5-66.7-130.7-89.9c-17.9-8.6-37-14.8-54.1-24.8
	c-33.6-19.5-71.2-23.8-108.1-28.8c-54.2-7.4-105.9,7.9-154.7,29.5c-32.6,14.4-62.2,34.7-87.8,61.6c-43.3,45.6-85.5,90.8-116,146.9
	C109.9,356.7,87,436,86.8,521.8C86.7,531.4,86.8,541,86.8,550.6z"/>
<path fill-rule="evenodd" clip-rule="evenodd" d="M86.8,550.6c0-9.6,0-19.2,0-28.8C87,436,109.9,356.7,151,281.1
	c30.5-56.1,72.7-101.4,116-146.9c25.6-26.9,55.2-47.2,87.8-61.6c48.8-21.6,100.5-36.9,154.7-29.5c36.9,5,74.5,9.3,108.1,28.8
	c17.1,9.9,36.2,16.2,54.1,24.8c48.2,23.2,92.3,51.8,130.7,89.9c43.5,43.2,69.9,95.6,91,151.7c6,15.8,9.7,32.6,16.2,48.2
	c12.3,29.2,13.9,60.2,16.8,90.8c3.6,37.4,6.6,75,7.4,112.5c0.4,18.8-2.9,38.2-7.5,56.6c-8.1,32.1-16.8,64.2-28.3,95.2
	c-9.7,26.1-22.8,51.1-42.5,71.9c-13.6,14.4-25.5,30.5-39.4,44.6c-20.1,20.5-46.8,30.7-72.1,42.4c-52.9,24.4-108.7,35-167.1,36.4
	c-42.2,1-84.1,2.4-126.1-2.5c-65.5-7.7-130.2-19.7-187.4-54.5c-24.3-14.8-45.7-34.9-66.7-54.4c-30.3-28.2-56.4-59.9-75.8-97.1
	c-17.6-33.8-28-69.7-32.7-106.9c-2.9-23.2-0.5-47.2-0.5-70.8C87.2,550.7,87,550.7,86.8,550.6z M519.9,281.3
	c-43.2,45-102.3,42-155.5,53.5C306.3,437.8,209.4,472.5,98.7,487.5c0,28.7-0.8,55.6,0.2,82.6c1.5,44.4,8,88.4,23.8,129.7
	c24.7,64.5,69.7,114,124.3,155.3c2.1,1.6,5.2,1.8,10.6,3.6c-9.2-48.1-10.9-95.4-33.4-140.7c22.3-21.8,51-33.8,77-49.5
	c26.9-16.3,55.7-29.2,81.9-46.8c-3.5-13.3-6.5-24.5-9.3-35.2c-10.9-3-20.3-4.8-29.2-8.2c-10.4-4.1-17.2-11.4-14.2-24.1
	c2-8.6,3.5-17.3,5.3-25.9c8.3-41.6,10-43.2,50.8-48.3c2.1-5.5,5-11.4,6.6-17.7c4.7-19.1,14-35.5,26.6-50.4
	c4.3-5.1,8.5-10.3,11.6-16.1c15.8-29.8,41.7-44.7,73.6-50.9c10-2,20.7-5.7,30.3-4c32.9,5.6,60.5,20.6,83.2,46.5
	c25.6,29.2,35.2,62.3,33.3,100c-0.3,6.4,0,12.9,0,19c8.7,2.7,16.3,5.1,22.4,7.1c1.5,17.8,4,33.8,3.8,49.8c-0.1,10.9-4,21.7-7,36.6
	c0.8,1.7,4.5,7.5,6.1,13.8c3.2,12.3,10.6,16.7,23,19.8c36.5,9.2,72.4,20.5,108.4,31.4c4.5,1.3,8.2,5.1,12,7.6
	c-41.8,96.2-55.3,144.7-52.9,190.8c13-4.5,24.6-10,34.4-19.2c10.8-10.1,22.4-19.4,32.5-30.1c9.5-10.1,18.7-20.9,26.1-32.7
	c24.5-39.1,39-82.7,51.7-126.5c6.4-22.3,8.2-46.5,8.1-69.9c-0.1-29.3-4.3-58.7-6.7-88c-3.9-48.6-11-96.4-31.5-141.4
	c-18.2-40.1-32.8-81.5-59.1-118.1c-29.8-41.5-62.8-78.6-108.2-102.5c-39.8-21-79.9-41.7-121.2-59.1c-19.8-8.4-42.9-11.4-64.7-12.4
	c-51.4-2.3-101.3,7.3-148.9,27.4c-14.5,6.1-29,12.1-45.8,19.2c8.4,7,13.9,11.7,17.9,15c15.6-2.4,29.3-4.8,43.1-6.6
	c13.9-1.8,27.8-3.9,41.7-4.3c24.8-0.8,48.5,3.3,67.8,21.1c4.2,3.8,9.2,6.7,13.4,9.7c38.3-27.5,77.6-17.1,98.3,3.5
	c27.5,27.5,37.8,69.4,12.1,105.3C599.4,293.9,583.5,310.6,519.9,281.3z M798.6,674.3c-38-15.1-74.1-25.5-113-30.2
	c-1,6.1-1.8,10.4-2.4,14.6c-3.4,25.9-16.1,35.6-42,31.4c-5.8-0.9-11.3-3-17.1-4.2c-7.4-1.7-14.3-2.3-19.6,5.5
	c-2.8,4.1-7.4,7.1-11.5,10.3c-28.8,22.2-61.4,33.6-97.1,24.7c-36.2-9.1-69.3-25.5-91.6-57.8c-2.4-3.5-5.8-6.5-8.8-9.8
	c-45.1,8.8-87.5,23.1-128.2,42.6c-19.9,9.5-23.3,16.6-17.2,39c8.5,31.2,17.9,62.2,27.3,93.2c8.1,26.8,23.6,47.9,50.4,57.7
	c22.7,8.2,45.8,16.7,69.4,20.3c58.1,8.8,116.2,15.8,175.6,10.2c51.1-4.8,99.9-16.3,147.5-34.8c7.4-2.9,12.6-6.2,15.1-14.3
	c5.4-17.6,12.1-34.7,17.2-52.3c5.9-20.4,9.8-41.4,16.3-61.7C777.5,731.4,787.8,704.7,798.6,674.3z M106.3,442.9
	c101.5,32.8,216.4-36.9,246-129.4c-3.7-7.5-21-6.4-13.7-23.6c45.6,34,91.4,26.8,136.8,4.4c16-7.9,33.4-16.6,30.4-39.9
	c-0.1-0.6,2.2-1.5,3.3-2.3c0.7,0,1.7-0.3,2.1,0c4.1,4,8.2,8,12.2,12.2c19.4,20,49.9,23.9,70.4,8.6c22.9-17.2,42.4-52.6,30.5-90.4
	c-7.8-24.8-48.8-53.1-81.1-36.4c-14.1,7.3-15.7,11.2-7.6,25.5c4.7,8.4,12.3,16.2,6.4,30.3c-10.2-11.8-18.8-21.5-27.1-31.6
	c-27.4-33.2-62.9-44.9-104.7-39.3c-11.7,1.6-22.8,5.4-29.6,14.4c-2.6,9.1,15.8,17-1.6,25c-3.4-3.7-6.8-7.4-10.1-11.1
	c-27.8-31-80.8-38.2-113,5.1c-4.4,5.9-9.9,10.8-14.7,16.4c-17.9,20.6-38.4,39.4-53,62.1C149.1,303.8,116.7,368.2,106.3,442.9z
	 M604,672.6c14.2-19.9,17.6-42,18.7-63.6c1.2-23.3-2.1-46.7-3.6-70.1c-0.6-10.5-2.3-21.2,12.4-24c2-0.4,4.5-4.1,4.9-6.6
	c1.7-13,5-26.4,3.7-39.2c-4.2-43.6-44.4-87.5-88-93.3c-65.1-8.7-125.6,19.6-147.5,91c-1.7,5.5-2.9,11.7-2.4,17.4
	c3,34.2-5.3,66.6-14.1,99c-1.3,4.6-1.4,10-0.4,14.7c2,9.3,4.7,18.6,7.8,27.6c5.8,16.7,12.7,32.7,25.4,46.1
	c30.8,32.4,67.6,48.4,112.6,45.4c27.9-1.9,46.3-18.7,66.1-36.6c-3.9-3.7-5.7-6-8-7.5c-3.6-2.4-7.6-4.3-11.1-6.2
	c-16,12.1-26.9,13.4-48.8,6.2c2.4-27.8,15.9-34.9,39-20.6C581.5,658.9,592.1,665.3,604,672.6z M382.7,565.9
	c3.2-18.8,6.5-36,9.1-53.4c1.9-12.7-7.3-19.3-18.8-13.7c-3.7,1.8-8,5.3-8.9,8.9c-3.7,13.3-7.8,26.9-8.6,40.5
	C354.5,564.8,361.8,568.8,382.7,565.9z M619.1,678.3c16,3.2,31.6,13.6,46.7-2.1c10-10.4,10-21.6,3.6-33.3
	c-39.6-5.5-39.6-5.5-51.4,30.4C617.9,673.9,618.3,674.7,619.1,678.3z M643,587.8c26.6-10,28.5-28.8,19.7-52.8
	c-3.7-10.1-12.2-10.2-19.9-8.3c-4.6,1.1-12,7.1-11.6,9.9C633.7,553.5,631.7,571.7,643,587.8z M656.9,598.1
	c-10,4.8-17.2,8.2-27.4,13.1c14.5,7.6,24.5,14.8,40.6,10.3C665.6,613.5,661.9,607,656.9,598.1z"/>
<path fill-rule="evenodd" clip-rule="evenodd" fill="#FFFFFF" d="M519.9,281.3c63.6,29.3,79.5,12.6,108.6-28
	c25.7-35.9,15.4-77.8-12.1-105.3c-20.6-20.6-59.9-31-98.3-3.5c-4.2-3-9.3-5.9-13.4-9.7c-19.3-17.8-43-21.8-67.8-21.1
	c-13.9,0.4-27.9,2.5-41.7,4.3c-13.8,1.8-27.4,4.2-43.1,6.6c-4-3.3-9.5-8-17.9-15c16.8-7,31.3-13,45.8-19.2
	c47.6-20.1,97.4-29.7,148.9-27.4c21.8,1,44.8,4.1,64.7,12.4c41.4,17.4,81.5,38.1,121.2,59.1c45.4,23.9,78.3,61,108.2,102.5
	c26.3,36.6,40.9,78,59.1,118.1c20.4,45,27.6,92.8,31.5,141.4c2.4,29.3,6.6,58.7,6.7,88c0.1,23.4-1.6,47.6-8.1,69.9
	c-12.7,43.8-27.2,87.4-51.7,126.5c-7.4,11.7-16.6,22.5-26.1,32.7c-10.1,10.7-21.7,20-32.5,30.1c-9.8,9.2-21.4,14.7-34.4,19.2
	c-2.4-46.2,11.2-94.7,52.9-190.8c-3.8-2.5-7.6-6.2-12-7.6c-36-10.9-71.9-22.3-108.4-31.4c-12.4-3.1-19.8-7.5-23-19.8
	c-1.7-6.3-5.3-12.1-6.1-13.8c3-14.9,6.9-25.8,7-36.6c0.2-16-2.3-31.9-3.8-49.8c-6.1-1.9-13.7-4.3-22.4-7.1c0-6.1-0.3-12.5,0-19
	c1.8-37.7-7.7-70.8-33.3-100c-22.7-25.8-50.3-40.9-83.2-46.5c-9.6-1.6-20.3,2.1-30.3,4c-31.9,6.2-57.8,21.1-73.6,50.9
	c-3.1,5.8-7.3,11.1-11.6,16.1c-12.6,14.9-21.9,31.3-26.6,50.4c-1.5,6.3-4.5,12.2-6.6,17.7c-40.8,5.1-42.5,6.7-50.8,48.3
	c-1.7,8.7-3.2,17.4-5.3,25.9c-3,12.7,3.7,20,14.2,24.1c8.8,3.5,18.3,5.2,29.2,8.2c2.8,10.7,5.8,22,9.3,35.2
	c-26.2,17.5-55.1,30.5-81.9,46.8c-26,15.7-54.7,27.8-77,49.5c22.5,45.3,24.2,92.6,33.4,140.7c-5.4-1.8-8.5-2-10.6-3.6
	c-54.6-41.2-99.6-90.8-124.3-155.3c-15.8-41.3-22.3-85.4-23.8-129.7c-0.9-26.9-0.2-53.9-0.2-82.6c110.6-15,207.6-49.7,265.7-152.6
	C417.7,323.3,476.7,326.3,519.9,281.3z"/>
<path fill-rule="evenodd" clip-rule="evenodd" fill="#FFFFFF" d="M798.6,674.3c-10.8,30.4-21.1,57.1-29.7,84.4
	c-6.4,20.2-10.3,41.3-16.3,61.7c-5.1,17.6-11.9,34.8-17.2,52.3c-2.5,8.1-7.7,11.4-15.1,14.3c-47.6,18.5-96.3,30-147.5,34.8
	c-59.4,5.6-117.5-1.4-175.6-10.2c-23.6-3.6-46.8-12-69.4-20.3c-26.8-9.7-42.4-30.9-50.4-57.7c-9.3-31-18.7-62-27.3-93.2
	c-6.1-22.4-2.7-29.5,17.2-39c40.7-19.5,83.1-33.8,128.2-42.6c3,3.3,6.3,6.2,8.8,9.8c22.3,32.3,55.4,48.8,91.6,57.8
	c35.7,8.9,68.3-2.5,97.1-24.7c4.1-3.1,8.7-6.1,11.5-10.3c5.3-7.8,12.2-7.2,19.6-5.5c5.7,1.3,11.3,3.3,17.1,4.2
	c25.9,4.1,38.6-5.5,42-31.4c0.6-4.3,1.4-8.5,2.4-14.6C724.4,648.8,760.6,659.2,798.6,674.3z"/>
<path fill-rule="evenodd" clip-rule="evenodd" fill="#FFFFFF" d="M106.3,442.9c10.4-74.7,42.8-139.1,81.8-200.1
	c14.5-22.7,35.1-41.6,53-62.1c4.8-5.5,10.4-10.5,14.7-16.4c32.2-43.4,85.2-36.1,113-5.1c3.4,3.7,6.8,7.4,10.1,11.1
	c17.4-8-1-15.9,1.6-25c6.8-8.9,18-12.8,29.6-14.4c41.8-5.6,77.3,6.1,104.7,39.3c8.3,10.1,16.9,19.8,27.1,31.6
	c5.9-14.1-1.7-21.9-6.4-30.3c-8.1-14.3-6.5-18.2,7.6-25.5c32.4-16.7,73.3,11.6,81.1,36.4c11.8,37.8-7.7,73.3-30.5,90.4
	c-20.5,15.4-51,11.5-70.4-8.6c-4-4.1-8.1-8.2-12.2-12.2c-0.4-0.4-1.4,0-2.1-0.1c-1.2,0.8-3.4,1.7-3.3,2.3
	c3.1,23.4-14.3,32-30.4,39.9c-45.4,22.4-91.2,29.6-136.8-4.4c-7.3,17.1,10,16,13.7,23.6C322.7,406,207.8,475.7,106.3,442.9z"/>
<path fill-rule="evenodd" clip-rule="evenodd" fill="#FFFFFF" d="M604,672.6c-11.9-7.3-22.5-13.8-33.1-20.3
	c-23.1-14.3-36.5-7.2-39,20.6c21.9,7.2,32.7,5.9,48.8-6.2c3.5,1.9,7.5,3.8,11.1,6.2c2.3,1.5,4.1,3.8,8,7.5
	c-19.8,17.9-38.2,34.7-66.1,36.6c-45,3-81.8-13-112.6-45.4c-12.7-13.3-19.6-29.3-25.4-46.1c-3.1-9-5.9-18.3-7.8-27.6
	c-1-4.7-0.9-10.1,0.4-14.7c8.8-32.4,17.1-64.9,14.1-99c-0.5-5.7,0.7-11.8,2.4-17.4c21.9-71.4,82.4-99.7,147.5-91
	c43.6,5.8,83.9,49.8,88,93.3c1.2,12.9-2,26.2-3.7,39.2c-0.3,2.4-2.8,6.2-4.9,6.6c-14.8,2.8-13.1,13.5-12.4,24
	c1.4,23.4,4.7,46.9,3.6,70.1C621.6,630.6,618.2,652.7,604,672.6z M616.4,487c0-7.8-0.3-13.2,0.1-18.6c0.4-5.3,1.5-10.5,2.5-17.1
	C603.7,459.3,602.8,470.5,616.4,487z M546.9,480.4c0.5-10.3,3.5-21.1-3.6-31C534.1,462.7,534.3,464.5,546.9,480.4z M569.6,450.2
	c-2,0.3-4,0.5-6,0.8c-1.1,12.3-3.7,25.1,12,36.4C573.3,472.9,571.4,461.5,569.6,450.2z M429.8,492.8c9.4-19.2,8.1-26.9-4.3-36.3
	C427.1,469.3,428.4,481,429.8,492.8z M451.5,455.2c-1.7,10.7-10,21.9,5.5,36.7C454.1,476.7,460.9,466.1,451.5,455.2z M523.3,450.4
	c-2.2,0.3-4.3,0.7-6.5,1c-3.6,9.9-1.1,18.7,4.8,26.9c1.7-0.2,3.4-0.5,5-0.7C525.5,468.5,524.4,459.5,523.3,450.4z M494.9,552.8
	c-5-7-9.7-12.8-17.4-4.5c-1.7,1.8-1.9,8-0.3,9.5C484.7,564.9,489.9,560.5,494.9,552.8z M593.6,475.7c3.5-9.8,6.6-19.5-6.6-26.7
	C582.3,460.7,587.7,468.2,593.6,475.7z M501.9,451.9c-1.8,0.2-3.6,0.4-5.4,0.5c-3.3,22-3.2,22.5,8.5,31.3
	C503.9,472.1,502.9,462,501.9,451.9z M553,550.3c-6.6-3.2-10.6-6.7-13.7-6c-3.2,0.7-7.5,5.4-7.5,8.4c0,2.7,5.7,7.9,7.9,7.5
	C543.8,559.3,547,555,553,550.3z M480.4,487.6c-1.4-13.3-2.4-22.3-3.8-35.3C467.4,473.6,467.5,474.6,480.4,487.6z"/>
<path fill-rule="evenodd" clip-rule="evenodd" fill="#FFFFFF" d="M382.7,565.9c-20.9,2.8-28.2-1.2-27.3-17.6
	c0.7-13.6,4.9-27.2,8.6-40.5c1-3.6,5.3-7.1,8.9-8.9c11.6-5.6,20.7,1,18.8,13.7C389.2,529.9,385.9,547.2,382.7,565.9z"/>
<path fill-rule="evenodd" clip-rule="evenodd" fill="#FFFFFF" d="M619.1,678.3c-0.8-3.7-1.2-4.4-1.1-5
	c11.8-35.8,11.8-35.8,51.4-30.4c6.3,11.6,6.4,22.9-3.6,33.3C650.8,691.9,635.1,681.6,619.1,678.3z"/>
<path fill-rule="evenodd" clip-rule="evenodd" fill="#FFFFFF" d="M643,587.8c-11.3-16.1-9.3-34.3-11.8-51.2c-0.4-2.8,7-8.8,11.6-9.9
	c7.7-1.9,16.2-1.7,19.9,8.3C671.5,559,669.6,577.8,643,587.8z"/>
<path fill-rule="evenodd" clip-rule="evenodd" fill="#FFFFFF" d="M656.9,598.1c5,8.8,8.7,15.4,13.2,23.4c-16.1,4.5-26-2.7-40.6-10.3
	C639.7,606.3,646.9,602.9,656.9,598.1z"/>
<path fill-rule="evenodd" clip-rule="evenodd" d="M616.4,487c-13.6-16.5-12.7-27.7,2.6-35.7c-1,6.7-2.1,11.9-2.5,17.1
	C616.1,473.7,616.4,479.2,616.4,487z"/>
<path fill-rule="evenodd" clip-rule="evenodd" d="M546.9,480.4c-12.6-15.9-12.7-17.7-3.6-31C550.3,459.3,547.4,470.1,546.9,480.4z"
	/>
<path fill-rule="evenodd" clip-rule="evenodd" d="M569.6,450.2c1.8,11.4,3.7,22.8,6,37.2c-15.8-11.3-13.1-24-12-36.4
	C565.6,450.7,567.6,450.4,569.6,450.2z"/>
<path fill-rule="evenodd" clip-rule="evenodd" d="M429.8,492.8c-1.4-11.7-2.8-23.4-4.3-36.3C438,465.9,439.2,473.5,429.8,492.8z"/>
<path fill-rule="evenodd" clip-rule="evenodd" d="M451.5,455.2c9.4,10.9,2.6,21.5,5.5,36.7C441.5,477.1,449.8,465.8,451.5,455.2z"/>
<path fill-rule="evenodd" clip-rule="evenodd" d="M523.3,450.4c1.1,9,2.2,18.1,3.3,27.1c-1.7,0.2-3.4,0.5-5,0.7
	c-5.9-8.1-8.3-16.9-4.8-26.9C519,451.1,521.2,450.8,523.3,450.4z"/>
<path fill-rule="evenodd" clip-rule="evenodd" d="M494.9,552.8c-5,7.7-10.2,12.1-17.7,5c-1.6-1.5-1.4-7.7,0.3-9.5
	C485.2,540,489.9,545.8,494.9,552.8z"/>
<path fill-rule="evenodd" clip-rule="evenodd" d="M593.6,475.7c-5.9-7.4-11.2-15-6.6-26.7C600.1,456.2,597.1,465.9,593.6,475.7z"/>
<path fill-rule="evenodd" clip-rule="evenodd" d="M501.9,451.9c1,10.1,2,20.2,3.2,31.9c-11.7-8.8-11.8-9.3-8.5-31.3
	C498.3,452.3,500.1,452.1,501.9,451.9z"/>
<path fill-rule="evenodd" clip-rule="evenodd" d="M553,550.3c-5.9,4.7-9.2,9-13.2,9.8c-2.2,0.5-7.9-4.8-7.9-7.5
	c0-2.9,4.4-7.7,7.5-8.4C542.4,543.6,546.3,547.2,553,550.3z"/>
<path fill-rule="evenodd" clip-rule="evenodd" d="M480.4,487.6c-12.9-13-13-14-3.8-35.3C477.9,465.4,478.9,474.3,480.4,487.6z"/>
</svg>
