<?xml version="1.0" encoding="utf-8"?>
<!-- Generator: Adobe Illustrator 16.0.0, SVG Export Plug-In . SVG Version: 6.00 Build 0)  -->
<!DOCTYPE svg PUBLIC "-//W3C//DTD SVG 1.1//EN" "http://www.w3.org/Graphics/SVG/1.1/DTD/svg11.dtd">
<svg version="1.1" id="Layer_1" xmlns="http://www.w3.org/2000/svg" xmlns:xlink="http://www.w3.org/1999/xlink" x="0px" y="0px"
	 width="1000px" height="808.9px" viewBox="0 0 1000 808.9" enable-background="new 0 0 1000 808.9" xml:space="preserve">
<path fill-rule="evenodd" clip-rule="evenodd" d="M499.3,330.7c-65.1-69-118.5-142.4-186.4-203.7c-31.5-28.4-58.1-62.2-85.7-94.7
	c-3.8-4.5-2.8-17.7,1.1-22.8c4.3-5.7,15.4-10.5,22.4-9.3c42.8,7.6,79,28.5,111.5,57.2c65.9,58.3,132.6,115.8,199.2,173.3
	c6.4,5.5,14.5,9,24.1,14.9c96.8-73.2,164.4-180,267.4-245.6c27.4,18,21.5,38.1,8.2,53.1c-14.8,16.7-36.6,27.1-52.5,43.1
	c-54.3,54.6-108,109.8-160.7,165.9c-27.3,29.1-27.2,52.5,1.9,81.7c78.5,78.6,160,153.8,257.6,209.2c19.8,11.2,38.9,23.7,58.2,35.9
	c15.5,9.9,15.2,10.2,34,55.8c-27,49.4-73.2,68.9-124.5,81.7c-34.6,8.6-44.1,6.6-64.1-20.8c-50.4-69-99.3-139.2-152.4-206.2
	c-33.2-42-72.6-78.8-111-119.7c-39.4,22.9-69.1,50.5-86.8,85.7c-17.4,34.6-45,58.3-69.1,86.2c-46.5,53.9-92.4,108.1-136.9,163.6
	c-10,12.5-15.6,30-18.8,46.1c-8.9,45.7-8,46.7-48.5,47.1c-59.4,0.7-118.7,0.2-186.9,0.2c7.1-20.1,7.6-37.6,15.8-42.6
	c98.4-59.9,170.8-150,259.4-220.7c65-52,125-108.5,183-167.5C472.3,364.2,484.1,348.6,499.3,330.7z"/>
</svg>
