<?xml version="1.0" encoding="utf-8"?>
<!DOCTYPE svg PUBLIC "-//W3C//DTD SVG 1.1//EN" "http://www.w3.org/Graphics/SVG/1.1/DTD/svg11.dtd">
<svg artist="zl2017" version="1.1" id="zlIcon-symbol-square-stop" xmlns="http://www.w3.org/2000/svg" xmlns:xlink="http://www.w3.org/1999/xlink" x="0px" y="0px"
	 width="1000px" height="981px" viewBox="0 0 1000 981" enable-background="new 0 0 1000 981" xml:space="preserve">
<path fill-rule="evenodd" clip-rule="evenodd" d="M405.1,4.7c73.5,0,147.1-1.9,220.5,0.7c48.8,1.7,97.3,10.2,146.1,14.7
	c30,2.8,60.2,3.7,90.3,5.6c49.8,3,75.4,26.7,83,75.5c10.8,69.3,6.6,139.2,9,208.8c0.8,22.4,4.8,44.8,6.9,67.2c1.4,15,1.8,30,2.8,45
	c1.6,24.4,2,49.1,5.3,73.3c5.2,37.4,6.6,74.9,8,112.6c1.6,41.1,8.4,82.2,15.9,122.8c10.2,54.6,7.6,109.3-0.3,163
	c-8.5,58.5-63.6,90.6-123.2,76.8C728.7,937.8,585.6,932,442.3,934c-61.9,0.9-123.5,11.7-184.4,25.6C214,969.7,168.8,974.3,124,980
	c-20.8,2.6-41.1-0.6-59.3-13.4C47,954.1,33,939.8,29.8,917.5c-2.6-18.6-6-37.3-6.7-56c-4.3-113-6.8-226.1-11.9-339.1
	C5.8,404,4,285.5,3.9,167c0-20.7-3.4-41.4-3.4-62.1C0.6,57.7,21.1,30.2,67.2,21c76-15.2,152.7-23.5,230.5-20
	c35.7,1.6,71.6,0.3,107.4,0.3C405.1,2.4,405.1,3.5,405.1,4.7z M101.6,941.9c51,4.8,95.4,0.8,140.3-8.3
	c75.6-15.3,151.5-29.2,229.5-28.2c31.9,0.4,63.5-1.3,95.5,2.6c37.3,4.5,75.1,4.2,112.6,6.5c45.1,2.8,90.7,2.9,135.1,10.4
	c38.4,6.5,75,3,112.1-3.3c30.4-5.1,42.2-17.3,46.9-47.8c5-32.1,0.1-63.8-4.6-95.6c-7.8-52.2-15.1-104.5-21.3-156.8
	c-4.3-35.5-4.6-71.5-10-106.8c-13.2-85.9-18.1-172.2-18.6-258.9c-0.2-39.5,2.4-79.1,3.1-118.6c0.2-11.2-2.3-22.4-3.2-33.6
	c-1.6-19.6-13-31.2-31.2-35.5c-29.2-6.9-58.5-14.6-88.2-18.3C738,42,676,36.8,614.2,30.8c-11.2-1.1-22.6-1.6-33.9-1.5
	c-90.1,0.7-180.1,0.8-270.2,2.8c-71.6,1.6-143.3,2.5-214.2,15.4c-71.3,13-76.3,19-72.4,92.5c4,75.3,6.5,150.6,9.4,226
	c2.1,54.6,3,109.3,6.1,163.8c4.6,78.9,12,157.6,15.9,236.5C58,827.8,77.6,883.9,101.6,941.9z"/>
<path fill-rule="evenodd" clip-rule="evenodd" fill="#FFFFFF" d="M101.6,941.9c-24-58-43.6-114.1-46.7-175.6
	c-3.9-78.9-11.3-157.6-15.9-236.5c-3.2-54.5-4-109.2-6.1-163.8c-3-75.3-5.5-150.7-9.4-226c-3.9-73.5,1.2-79.6,72.4-92.5
	c71-12.9,142.6-13.8,214.2-15.4c90-2.1,180.1-2.1,270.2-2.8c11.3-0.1,22.6,0.4,33.9,1.5C676,36.8,738,42,799.7,49.6
	c29.7,3.7,59,11.4,88.2,18.3c18.2,4.3,29.5,15.9,31.2,35.5c0.9,11.2,3.4,22.5,3.2,33.6c-0.6,39.5-3.3,79.1-3.1,118.6
	c0.4,86.7,5.4,173,18.6,258.9c5.4,35.3,5.7,71.3,10,106.8c6.3,52.4,13.6,104.6,21.3,156.8c4.7,31.8,9.6,63.5,4.6,95.6
	c-4.7,30.5-16.5,42.7-46.9,47.8c-37.1,6.2-73.7,9.8-112.1,3.3c-44.3-7.5-90-7.6-135.1-10.4c-37.5-2.3-75.4-2-112.6-6.5
	c-32-3.9-63.6-2.2-95.5-2.6c-78-0.9-153.9,12.9-229.5,28.2C197.1,942.7,152.7,946.7,101.6,941.9z"/>
</svg>
