<?xml version="1.0" encoding="utf-8"?>
<!DOCTYPE svg PUBLIC "-//W3C//DTD SVG 1.1//EN" "http://www.w3.org/Graphics/SVG/1.1/DTD/svg11.dtd">
<svg artist="zl2017" version="1.1" id="zlIcon-symbol-wc" xmlns="http://www.w3.org/2000/svg" xmlns:xlink="http://www.w3.org/1999/xlink" x="0px" y="0px"
	 width="1000px" height="936.5px" viewBox="0 0 1000 936.5" enable-background="new 0 0 1000 936.5" xml:space="preserve">
<path fill-rule="evenodd" clip-rule="evenodd" d="M488.5,926.7c-32.4-40.2-21.4-69.4-9.5-96.8c19.2-44,40.8-86.9,62-130
	c46.5-94.3,93.2-188.4,140.1-282.5c8-16.1,16-32.5,26.3-47.1c20.8-29.3,55.5-30.4,73.9,1.5c65.6,114.4,138.5,225.3,182.9,350.7
	c13.8,39.1,24.2,79.4,35.3,116.2c-23.5,26.6-49.7,31.8-76.9,34.8c-38.9,4.2-77.6,11.2-116.5,12.6c-69.2,2.6-137.2,9.8-204.6,27.6
	C564.6,923.6,524.9,922.9,488.5,926.7z M941.1,797c-19.7-90.8-57.3-162.5-101.4-231.6c-24.2-37.9-45-78.1-68.2-116.7
	c-9.9-16.5-12.6-40.5-38.2-43.3c-56.2,94-194,400.2-208.1,464.5c14.4,2,29.7,8.5,42.3,5.2C688.8,842.7,817.5,845,941.1,797z"/>
<path fill-rule="evenodd" clip-rule="evenodd" d="M190.7,936.5c-21.5-68-44-124-56.4-182.1c-14.8-69-46.8-129.4-77.7-191.1
	c-18.8-37.5-37.5-75.4-52.1-114.7c-12.4-33.3,4-59.2,39.1-66.6c32.3-6.8,65-12.8,97.9-15.5c92.8-7.5,185.8-13.9,278.8-19.3
	c47.4-2.8,67.9,22.3,50.6,68c-21.2,56-48.7,109.7-74.6,163.8c-28.5,59.4-58.3,118.2-87.6,177.3c-26.6,53.5-52.4,107.4-80.6,160.1
	C223.7,924.5,208.7,927.2,190.7,936.5z M212.7,827.4c66.8-97.4,179.7-344.6,200.5-437.8c-60.9,3.4-120.1,5.9-179.1,10.1
	c-58.1,4.1-118.9-4.1-175.4,29.7c8.2,25.3,12.2,46.3,21.4,64.8C132.1,599.2,179.1,706.1,212.7,827.4z"/>
<path fill-rule="evenodd" clip-rule="evenodd" d="M127.8,120.5c-8-79.6,67.1-122.7,133.5-120.4c17.8,0.6,36.1,8.4,53.3,6.2
	c50.7-6.5,80.3,22.2,99.4,61.1c19.3,39.6,15.9,81.6-9,119.9C362.8,251.9,300.2,275,227,271.1c-49.4-2.7-88.6-42.8-95.9-92.2
	C128.9,164.1,129.3,149,127.8,120.5z M358.6,173.2c20.9-32,16-63.4,0.2-94.2c-12.6-24.7-40.2-23.4-61.3-33c-8.1-3.7-17-5.9-25.7-7.6
	c-28.7-5.6-53.3,4.5-74.4,22.9c-28,24.3-31.6,56.5-24.2,90.4c6.5,29.8,27.4,43.9,67,49.4C283.7,207.1,322.7,195.3,358.6,173.2z"/>
<path fill-rule="evenodd" clip-rule="evenodd" d="M659.1,231.3c-10.2-17.6-19.2-33-28.1-48.4c-19-32.6-12.3-62.7,6.6-93.4
	c31.6-51.4,68.8-90.8,136.1-87.6c41.9,2,76,21.2,104.5,47.4c38.7,35.6,36.1,98.3-0.1,138.4c-32.2,35.7-72.7,53.7-120.1,52.9
	C725.2,240.1,692.5,234.7,659.1,231.3z M750.4,200.1c7.7-0.5,19.7-0.1,31.4-2.1c42.6-7.1,68.7-41.5,63.4-82.5
	c-5.5-42.6-37.4-72.6-79-67.6c-22.4,2.7-45.7,13-64.7,25.7c-28.7,19.1-38.5,56.9-28.4,87.2C681.6,186.1,706.7,199.6,750.4,200.1z"/>
<path fill-rule="evenodd" clip-rule="evenodd" fill="#FFFFFF" d="M941.1,797c-123.6,48-252.4,45.7-373.6,78.1
	c-12.6,3.4-27.9-3.2-42.3-5.2c14.1-64.3,151.8-370.5,208.1-464.5c25.6,2.8,28.3,26.9,38.2,43.3c23.3,38.6,44,78.8,68.2,116.7
	C883.8,634.5,921.5,706.1,941.1,797z"/>
<path fill-rule="evenodd" clip-rule="evenodd" fill="#FFFFFF" d="M212.7,827.4c-33.6-121.3-80.6-228.2-132.6-333.2
	c-9.2-18.5-13.2-39.5-21.4-64.8c56.5-33.8,117.3-25.6,175.4-29.7c59.1-4.1,118.2-6.7,179.1-10.1C392.3,482.8,279.4,730,212.7,827.4z
	"/>
<path fill-rule="evenodd" clip-rule="evenodd" fill="#FFFFFF" d="M358.6,173.2c-35.9,22.1-74.9,33.9-118.5,27.9
	c-39.6-5.5-60.5-19.6-67-49.4c-7.4-33.9-3.8-66.1,24.2-90.4c21.1-18.3,45.7-28.5,74.4-22.9c8.7,1.7,17.6,3.9,25.7,7.6
	c21.2,9.6,48.7,8.3,61.3,33C374.6,109.8,379.5,141.1,358.6,173.2z"/>
<path fill-rule="evenodd" clip-rule="evenodd" fill="#FFFFFF" d="M750.4,200.1c-43.7-0.6-68.8-14.1-77.2-39.3
	c-10.1-30.2-0.3-68,28.4-87.2c19-12.7,42.3-23,64.7-25.7c41.6-5,73.5,25,79,67.6c5.3,40.9-20.8,75.4-63.4,82.5
	C770.1,200,758.1,199.7,750.4,200.1z"/>
</svg>
