<?xml version="1.0" encoding="utf-8"?>
<!DOCTYPE svg PUBLIC "-//W3C//DTD SVG 1.1//EN" "http://www.w3.org/Graphics/SVG/1.1/DTD/svg11.dtd">
<svg artist="zl2017" version="1.1" id="zlIcon-symbol-hexagon-bolt" xmlns="http://www.w3.org/2000/svg" xmlns:xlink="http://www.w3.org/1999/xlink" x="0px" y="0px"
	 width="1000px" height="1123.9px" viewBox="0 0 1000 1123.9" enable-background="new 0 0 1000 1123.9" xml:space="preserve">
<path fill-rule="evenodd" clip-rule="evenodd" d="M5.4,482.5c0-59.8,4-120.1-1.3-179.4c-3.9-43.5,13.3-66.7,47.9-85.4
	C178.6,149,303.9,77.9,431.8,11.8C456-0.8,492.1-3.4,518.3,4.3c43.8,12.9,84.1,37.5,125.8,57.6c90.2,43.5,180.5,86.8,270.4,130.9
	c52,25.4,73.8,63.1,73.2,125.7c-1.3,145.9,10,291.8,11.8,437.8c0.3,28-11,69.1-31.3,82.4c-147.6,97-298.6,189-449.7,280.7
	c-11.3,6.9-34.1,5.3-46.5-1.6c-49.1-27.3-98.9-54.8-143.6-88.6c-96.1-72.6-188.2-150.6-284.3-223.3c-36.2-27.5-50-50-40.8-101.1
	c13-71.9,3.3-148,3.3-222.3C6.1,482.5,5.8,482.5,5.4,482.5z M70.1,741.4c86.1,61.2,164.1,117.9,243.5,172.7
	c73.4,50.7,126.5,62.8,207,3.8c71.2-52.2,140.3-108.7,216.7-152.1c73.8-41.9,113-94.9,111.3-180.4c-1.4-73.2,5.7-146.6,2.7-219.6
	c-2.1-51.9-21.6-96.4-71.7-126.8c-82.3-50-160.5-106.9-241.4-159.4c-9.1-5.9-26.9-6.4-36.8-1.5C382.1,136.6,262.2,194.3,145.7,258
	c-21,11.5-36,48.8-39,75.8C91.8,469.9,81.7,606.6,70.1,741.4z"/>
<path fill-rule="evenodd" clip-rule="evenodd" fill="#FFFFFF" d="M70.1,741.4c11.6-134.8,21.7-271.5,36.6-407.7
	c3-27,18-64.3,39-75.8c116.6-63.7,236.5-121.4,355.9-179.9c9.9-4.9,27.8-4.4,36.8,1.5c80.9,52.5,159.1,109.4,241.4,159.4
	c50.1,30.5,69.6,74.9,71.7,126.8c2.9,73-4.1,146.4-2.7,219.6c1.6,85.4-37.5,138.5-111.3,180.4c-76.4,43.4-145.5,99.9-216.7,152.1
	c-80.5,59-133.6,46.9-207-3.8C234.2,859.3,156.2,802.6,70.1,741.4z M187.9,300.4c40.1,31.6,136.8-4.8,240.8-90.6
	C379.4,196.1,225.5,254,187.9,300.4z M701.1,648.5c-6.5-9-12.9-18-19.3-27c-48.7,32.8-97.7,65.2-145.8,99c-3.7,2.6-3,20.3-0.2,21.6
	c10.2,4.6,26.3,10.9,32.9,6.3C613.8,716.5,657.1,682.1,701.1,648.5z M280.5,355.3c46.2,36.6,135.5,0.1,168.5-61.4
	C384.8,317.3,332.6,336.3,280.5,355.3z"/>
<path fill-rule="evenodd" clip-rule="evenodd" d="M187.9,300.4c37.6-46.4,191.5-104.4,240.8-90.6C324.7,295.6,228,332,187.9,300.4z"
	/>
<path fill-rule="evenodd" clip-rule="evenodd" d="M701.1,648.5c-43.9,33.6-87.3,68-132.4,99.9c-6.6,4.6-22.7-1.7-32.9-6.3
	c-2.8-1.3-3.5-19,0.2-21.6c48-33.8,97-66.2,145.8-99C688.2,630.5,694.6,639.5,701.1,648.5z"/>
<path fill-rule="evenodd" clip-rule="evenodd" d="M280.5,355.3c52.2-19,104.3-38,168.5-61.4C416,355.4,326.7,391.9,280.5,355.3z"/>
</svg>
