<?xml version="1.0" encoding="utf-8"?>
<!DOCTYPE svg PUBLIC "-//W3C//DTD SVG 1.1//EN" "http://www.w3.org/Graphics/SVG/1.1/DTD/svg11.dtd">
<svg artist="zl2017" version="1.1" id="zlIcon-symbol-injan" xmlns="http://www.w3.org/2000/svg" xmlns:xlink="http://www.w3.org/1999/xlink" x="0px" y="0px"
	 width="1000px" height="855.7px" viewBox="0 0 1000 855.7" enable-background="new 0 0 1000 855.7" xml:space="preserve">
<path fill-rule="evenodd" clip-rule="evenodd" fill="#FFFFFF" d="M413.6,202.2c-0.5-3.1,0.5-10.7-2.8-14.9
	c-6.6-8.4-7.4-21.6-20-25.2c-1-0.3-1.7-1.9-2.3-3.1c-3.5-6.1-8.4-10.5-15.3-12.7c-2.1-0.7-4.4-1.8-5.9-3.4
	c-7.3-7.7-15.3-5.3-23.2-1.8c-6.2,2.7-12.3,5.8-18.2,9.2c-9.9,5.6-18.2,12.7-19.4,25.1c-1.5,15-2.9,30.1-4.3,45.1
	c-0.1,1.2,0.8,2.5,1.1,3.7c4.6,18.4,19.3,29.1,37.5,30c9.1,0.4,18.6,4.3,27.5-1.5c0.9-0.6,2.6,0.3,3.8,0.3c9.5-0.4,19-3.6,24.9-10
	C406.4,232.7,413.6,220.4,413.6,202.2z"/>
<path fill-rule="evenodd" clip-rule="evenodd" fill="#FFFFFF" d="M434.6,606.7c0.8-4,1.7-8.4,2.6-12.9c3-14.8,8.6-28,23.3-35.1
	c1.1-0.6,2.3-1.4,3.1-2.4c4.1-5.7,10.2-7.9,16.6-9.5c5.4-1.3,10.9-1.9,16.1-3.6c11.3-3.6,22.3-1.2,33.3,1
	c11.7,2.3,19.2,11.8,28.5,18.1c3.7,2.5,7.1,5.8,9.7,9.4c6.2,8.7,11.9,17.8,17.7,26.7c4.6,7.1,5.4,14.8,5.3,23.2
	c-0.3,16.1-10.4,29.4-12.4,44.9c-0.1,0.9-0.8,1.8-1.4,2.5c-6.7,7.9-13.3,15.7-20.1,23.5c-0.8,0.9-2.3,1.2-3.4,1.9
	c-16.2,9.5-33.8,12.1-52.2,10.9c-3.2-0.2-6.6,0.7-9.5-0.3c-7.6-2.7-15-5.8-22.3-9.3c-8.4-4.2-9.8-4.4-15.8,2.6
	c-7.8,9.2-15.4,18.5-22.5,28.2c-4.6,6.2-8.4,12.9-12.2,19.7c-1,1.7-1.4,5-0.5,6.4c2.8,4,5.7,8.5,9.7,10.8
	c14.4,8.3,29.2,16.2,44.1,23.6c7.8,3.9,16.8,5.6,24.1,10.1c12.9,7.9,27.8,8,41.4,13.1c7.1,2.6,15.1,3,22.4,5.2
	c7.3,2.2,14.5,2.3,22,2.6c10.9,0.5,21.5,0.3,32.4-1.1c15.4-1.9,31.3,0.5,46.3-5c0.9-0.3,1.9-0.7,2.8-0.7
	c19.3,0.5,36.8-8.1,55.5-11.2c5.3-0.9,10.2-4.2,15.2-6.4c13-5.6,25.7-12,39.8-14.7c2.1-0.4,3.8-2.2,5.8-3.4c2-1.2,3.9-2.4,6-3.3
	c8.6-3.8,17.2-7.5,25.8-11.3c2.3-1,5.5-1.7,6.5-3.5c2.2-4,5.9-4.8,9.3-6.6c10-5.3,21.1-9.5,29.5-16.8c8.7-7.6,19.7-12.8,25.8-23.5
	c1.6-2.9,5.4-4.6,8.3-6.6c7.3-4.9,14.1-10.2,19.2-17.7c4.1-6,9.1-11.7,14.7-16.3c4.1-3.4,6.2-7.1,8-11.8c3.5-9.5,6.9-19,11.4-28
	c5.1-10.1,10-20.1,10-31.8c0-1.3,0.4-2.5,0.8-3.8c3.9-12,8.8-23.6,10.3-36.6c1-8.9,3.4-17.8,4.8-26.8c2.9-18.6,4.7-37.2,5-56
	c0.2-11.6,0.3-23.2-0.5-34.7c-1.2-17.9-3.3-35.6-4.8-53.5c-0.8-9.5-4.1-18-8.4-26.4c-1.7-3.3-1-8-1.1-12.1c-0.1-2.1,1.5-5.1,0.6-6.1
	c-3.9-4.3-3.4-9.5-4.1-14.6c-0.8-5.8-1.1-11.9-3.5-17.1c-3.7-8.1-4.6-17.3-10.3-24.6c-1.5-2-1.9-4.8-2.8-7.2
	c-2.8-8.2-6.1-16.3-9.4-24.2c-6.2-15.1-15.4-28.9-23.5-43.2c-2-3.6-4.3-7.2-7.1-10.2c-6.9-7.4-11.4-15.9-15.6-25.2
	c-4-8.9-11.2-16.5-17.6-24.2c-6.1-7.3-13.4-13.6-19.5-20.9c-8.5-10.1-16.7-20.4-28-27.8c-3.5-2.3-7.2-5.1-9.1-8.6
	c-5.6-10.4-15.1-16-24.6-21.5C776,67.4,765.8,61.7,755.1,57c-10.2-4.5-20-10.1-31.7-11.6c-8.2-1-16.2-4.9-24-8.2
	c-8.1-3.5-15.5-8.9-23.8-11.5c-8.4-2.7-17.5-3.2-26.3-4.5c-0.7-0.1-1.5,1.1-2.7,2c0.9,1.4,1.4,3.2,2.5,3.9
	c9.3,5.3,16.9,13.5,27.7,16.2c1.8,0.5,3.7,1.3,5.3,2.2c18.9,10,33.3,25.6,44.1,43.1c8.3,13.5,19.7,24.4,27.9,38.1
	c8.3,13.9,13.1,29.3,21.6,43c4.6,7.3,4.9,17.4,6.6,26.3c1.4,7.2,2.3,14.7,3.7,21.8c3.1,15.9,5.4,32.7,2.9,48.6
	c-0.5,3.5-0.1,7.5-1.8,10.4c-3.5,6.2-3.3,13-4.6,19.5c-0.4,2.2-0.7,4.5-1.3,6.6c-2.9,9.6-5.7,19.3-8.8,28.9c-3,9.4-3.1,20-11.4,27.2
	c-5.2,4.5-8,10.5-10.4,16.8c-1.1,2.8-3.5,5.9-6.2,7.1c-5.5,2.5-8.6,6.4-11.3,11.5c-1.7,3.2-5.2,7.5-8.1,7.7
	c-7.1,0.3-10.8,4.8-15.5,8.7c-3.7,3.1-7.9,5.6-12.1,7.9c-4.6,2.6-9.7,4.5-14.3,7.2c-9.2,5.4-18.4,10.6-29.5,11
	c-2.7,0.1-5.4,1.2-7.5,1.8c1.3,10.9,9.8,19.8,3.7,30.7c-0.3,0.6,0.3,1.9,0.6,2.8c1.4,3.8,0.1,6.8-1.8,10.1
	c-2.2,3.9-3.5,8.4-5.3,12.5c-0.7,1.7-1.6,3.7-3,4.7c-7.1,5.1-14.5,9.7-21.5,15.1c-6.9,5.3-16.9,4.2-23,11.2
	c-0.7,0.8-2.4,0.8-3.7,1.1c-3.8,1-7.5,2.2-11.3,3c-1.4,0.3-3.1,0.3-4.5-0.2c-7.5-2.5-8.4-10.5-1.6-16c7.6-6.2,13-14,16.4-22.8
	c3-7.5,6.8-15.8,1.2-24.1c-5-7.5-10.3-14.8-14.9-22.5c-3.2-5.3-8.2-6.6-13.4-6.6c-7.5,0.1-15.2,0.2-22.3,2.2c-7,2-14.9-2.9-21.1,3.1
	c-11.9-1.3-22.1,4.9-33.1,7.5c-6.7,1.6-13.1,2.9-18.9,7.2c-4.1,3-9.2,5.8-14.1,6.4c-10.5,1.3-17.7,7.7-24.8,14.2
	c-6.7,6.1-12.6,13.2-18.8,19.8c-2.4,2.6-5.9,4.6-7.3,7.6c-5.7,12.3-15.5,22.5-18.4,36.4c-2.1,9.8-6,19.3-7.7,29.2
	c-1.9,11.2-2.8,22.6-3.2,33.9c-0.2,6.1-2.7,13,1.8,18.2C397.8,624.2,417.1,619.8,434.6,606.7z"/>
<path fill-rule="evenodd" clip-rule="evenodd" fill="#FFFFFF" d="M485.1,658c8.3-3.3,16.9-6.1,24.9-10c3.2-1.5,5.8-5.2,7.5-8.5
	c3.6-7,2-16.3,9.7-21.5c0.7-0.5,0.3-2.5,0.5-3.8c0.4-2.2,1.3-4.4,1.4-6.6c0.3-8.5,0.5-17,0.4-25.4c0-1.3-1.5-2.7-2.5-3.9
	c-3.6-4.1-7.5-8-11-12.2c-5.3-6.3-9.2-7.5-17-5.1c-2.5,0.8-5,1.4-7.6,2c-16.3,3.7-29.3,11.6-34.7,28.5c-3.1,9.8-7.7,19.4-3.3,30
	c0.5,1.2-0.5,3-0.9,4.5c-1.7,6.8,0.5,10.6,6.5,13.9c4.7,2.6,9.5,5.8,12.7,10C475.2,654.8,479,657,485.1,658z"/>
<path fill-rule="evenodd" clip-rule="evenodd" fill="#FFFFFF" d="M407.8,732.4c5.9-8.2,11.5-16.1,17.3-23.8c2.9-3.9,6.9-7.1,9-11.3
	c2.1-4.3,4-7.6,8.7-9.7c4.7-2.2,7-9.8,5.3-13.5c-1.6-3.7-7.3-5.8-12.9-4.4c-14.1,3.5-28.2,7.5-42.4,10.8c-4.9,1.1-7.4,4.3-6.2,8.2
	c2.6,9.1,0.8,19.8,10.1,26.6c2,1.4,2.9,5.1,3.3,7.8C400.4,727.4,402.7,730.1,407.8,732.4z"/>
<path fill-rule="evenodd" clip-rule="evenodd" fill="#FFFFFF" d="M377.3,641.5c1.1,10.3-2,20,7.1,28.1c9.5-8.8,23.6-5,33.1-13.5
	c5,1.1,7.4-2.6,10.7-5c-1.3-4.5-2.5-8.5-3.6-12.7c-7.6,1.2-15.1,0.5-22.7,2.7C394.8,643.1,386.6,641.5,377.3,641.5z"/>
<path fill-rule="evenodd" clip-rule="evenodd" d="M360.4,398.8c-4.6,1.5-9.5,1.5-14.6-1c-2.5-1.3-5.6-1.8-8.5-1.9
	c-5.1-0.2-9.6-0.9-13-5.3c-1.1-1.5-4.1-1.3-6.1-2.3c-5.3-2.4-10.8-4.5-15.7-7.7c-5.6-3.7-10.7-8.2-15.8-12.6
	c-2.7-2.3-4.9-5.1-7.4-7.6c-1.5-1.5-3.2-2.9-5.1-4.7c-1.2,9.5,2.6,26.6,7.3,34c1.2,1.9,2.9,3.7,3.4,5.8c2.1,8,9.1,10.5,15.2,14
	c1.4,0.8,3.5,0.5,4.5,1.4c9.7,9.2,22.3,13.2,35.4,18.4c-1.8,1.3-2.6,2.4-3.6,2.5c-6.4,1.1-12.8,3-19.1,2.7
	c-21.8-1-42.5,4.8-63.3,9.6c-12.1,2.8-22.9,8.2-31.3,18c-7.1,8.4-16.4,15.1-22.8,23.9c-8.3,11.5-17.7,22.3-21.5,36.9
	c-5,18.8-11.7,37.1-18,56.9c-1.6-2.4-2.7-4-3.8-5.6c-0.2,0.2-0.8,0.5-0.9,0.9c-3.7,18.9-3.1,37.5,2.5,56c1.3,4.4,2.7,8.8,3.2,13.3
	c1.4,11.5,5.4,22.1,9.8,32.6c1.6,3.9,2.4,8.1,4,12c2.5,5.7,5.6,11,8.1,16.7c4.3,9.8,7.7,20.1,12.8,29.6
	c6.5,12.1,13.2,24.4,25.3,32.3c2.4,1.6,4.1,4.3,6.4,6c3,2.3,6.4,4.2,9.7,6c8.3,4.6,16.6,9.2,25,13.5c8.5,4.4,16.9,9,26.7,10.5
	c4,0.6,7.6,3.4,11.4,5.1c13.3,6,27.3,9.4,41.9,10c5.6,0.2,10,2.6,13.6,6.7c2.7,3,3.3,6.7,1.3,10c-1.9,3.1-3.7,7.2-8.8,6.3
	c-1.2-0.2-2.6-0.3-3.6,0.1c-16.3,7.5-33.9,9.7-51.2,13.5c-1.3,0.3-2.9,0.6-3.9,0.1c-9.9-5.5-20.7,1.6-30.7-2.5
	c-2.6-1.1-5.6-1-8.4-1.5c-2.5-0.4-5.4-1.8-7.5-1c-11.5,4.4-21.7,0.5-31.9-4c-15.2-6.6-30.6-12.5-46.9-16.1c-3.9-0.9-7.1-5-10.5-7.7
	c-8.9-7.1-17.8-14.1-26.4-21.5c-10.1-8.7-19.3-18.4-28.2-28.4c-10.4-11.8-12.9-27.4-22.3-39.5c-2-2.5-3.6-5.4-5.3-8.2
	c-4.7-7.5-9.4-14.8-11.4-23.6c-2.1-9.6-8.2-17.5-12.5-26.2c-5.4-11.1-11-22.1-15.6-33.6c-2-4.9-2.1-10.7-2.2-16.1
	c-0.3-13.4-5.7-25.6-8.9-38.3c-2.3-9.3-5.1-18.5-7.6-27.8c-0.4-1.5-0.5-3.1-0.7-4.7c-0.7-5.9,0.7-12.2-3.8-17.6
	c-1.4-1.6-0.6-5-0.7-7.6c-0.2-4.9,0.5-10-0.7-14.7c-3.7-14.4-3.6-29-3.5-43.7c0-2,0.2-4.1-0.5-5.8c-5.3-15.2-3.2-30.7-2.2-46.1
	c0.9-12.9,3.7-25.7,0.9-38.8c-0.5-2.1-0.6-5.1,0.5-6.6c4.5-5.8,2.7-12.5,3.8-18.8c3.2-19.5,3.1-39.5,10-58.4
	c4.2-11.5,7.4-23.5,11.7-35c3-8.1,7.6-15.6,10.3-23.7c2-6,1.7-12.8,2.7-19.1c1-6.6,1.8-13.3,8.7-17.3c1.8-1.1,2.3-4.4,3.4-6.8
	c3.7-8.3,6.5-17.1,11.3-24.7c3.6-5.7,7.8-10.9,10.4-17.2c0.5-1.2,1.1-2.5,1.9-3.4c7.7-8.9,15.5-17.7,23.2-26.6
	c7.8-9.1,15.2-18.7,23.2-27.7c15.4-17.5,32.7-33.1,50-48.7c6.8-6.1,14.5-11.4,23.9-13.3c1.2-0.2,2.5-0.5,3.4-1.2
	c17-12.9,36.8-18.3,57.5-21.1c2.9-0.4,5.8-1,8.6-1.8c14.7-4.2,29.2-8,45.1-5.6c12.9,2,26.4,0.3,39.5,1.7c17.3,2,34.9,2.2,51.9,7.4
	c14.4,4.4,28.4,9.4,40.4,18.7c8,6.1,16,12.2,23.9,18.4c2,1.6,3.8,3.6,5.3,5.7c5,7.2,11.3,12.7,18.3,18.1c8,6.2,15.5,13.5,21.4,21.6
	c5.3,7.2,8.4,16.1,12.3,24.3c3.9,8.1,8.1,16,11.3,24.4c2.4,6.3,3.6,13.1,5.3,19.8c3.5,13.9,7.1,27.7,10.2,41.6
	c2.8,12.9,2.9,25.8,1.7,39.1c-2,21.7-9.4,41.7-16.5,61.9c-1.7,4.9-2.4,10.2-4.1,15c-3.6,10.2-10.6,18.4-17.2,26.7
	c-6.1,7.6-12.4,15.1-19.3,22c-6.4,6.4-13.7,12-20.5,18.1c-12.4,11.2-27.1,17.3-43.4,20.3c-4.5,0.8-8.8,2.6-13.1,3.9
	c-1.6,0.5-3.2,1.5-4.7,1.3c-15.4-2.1-31.4-0.4-46.1-6.9C365.6,405.4,363.6,402,360.4,398.8z M413.6,202.2
	c-0.5-3.1,0.5-10.7-2.8-14.9c-6.6-8.4-7.4-21.6-20-25.2c-1-0.3-1.7-1.9-2.3-3.1c-3.5-6.1-8.4-10.5-15.3-12.7
	c-2.1-0.7-4.4-1.8-5.9-3.4c-7.3-7.7-15.3-5.3-23.2-1.8c-6.2,2.7-12.3,5.8-18.2,9.2c-9.9,5.6-18.2,12.7-19.4,25.1
	c-1.5,15-2.9,30.1-4.3,45.1c-0.1,1.2,0.8,2.5,1.1,3.7c4.6,18.4,19.3,29.1,37.5,30c9.1,0.4,18.6,4.3,27.5-1.5
	c0.9-0.6,2.6,0.3,3.8,0.3c9.5-0.4,19-3.6,24.9-10C406.4,232.7,413.6,220.4,413.6,202.2z"/>
<path fill-rule="evenodd" clip-rule="evenodd" d="M341.6,721.8c-0.8-6.9-0.8-12.8,3.5-18.6c4.6-6.2,7-13.8,13.9-18.5
	c1.9-1.3,3-5.3,2.7-7.8c-1.5-11.3-3.9-22.4-5.4-33.7c-0.5-4.1-2.7-5.5-5.9-6.8c-7.5-2.9-15.1-5.6-22.3-9.2
	c-7.5-3.8-14.6-8.5-21.9-12.8c-2.5-1.5-5.1-2.8-7.6-4.3c-6-3.6-6-4.1-1.4-12.6c3,1.7,6,3.3,8.9,5.1c4.7,3,8.3,6.6,15.3,6.3
	c5.5-0.2,11.3,5.3,17.7,8.7c3.3-0.6,7.7-1.5,12.4-2.4c1-10.8,1.5-21.5,3.1-32c2-12.5,4.1-25.1,7.8-37.1c3.4-11.1,7.6-22.6,14.3-31.9
	c6.7-9.4,11.8-20.1,19.4-28.7c9.7-10.8,20.2-21.2,31.7-30c7-5.4,16.4-7.9,24.8-11.5c8.9-3.8,17.7-7.7,26.8-11.1
	c4.7-1.8,9.9-2.3,14.7-4c11.3-4,22.7-6,34.9-5.5c10.2,0.4,20.8-0.9,30.9-2.9c9.6-1.9,18.2,0.9,26.7,3.7c3.8,1.3,7.3,5.6,9.6,9.4
	c7.7,12.3,12.9,25.7,14.1,40.2c0.5,5.9-1.6,12-2.3,18c-0.3,2.8-3.2,6.4,2.2,8.6c5.8-4.9,13.1-8.5,14.4-17.9c0.8-6,3.4-11.9,5.4-17.7
	c2.1-6,1.1-11.5-1.8-17c-3.5-6.8-5.6-14-4.8-21.7c0.5-5.4,2.5-7.9,7.9-8c4.8-0.1,9.5,1.4,14.3,1.2c6.7-0.2,13.6-0.3,19.9-2.3
	c6.7-2.1,13-6,18.9-9.9c12.4-8.2,25.2-16,36.5-25.6c17-14.4,30.9-31.3,32.9-54.9c0.1-0.7-0.1-1.4,0.2-1.9
	c7.4-11.3,7.8-24.6,10.4-37.1c2.3-10.7,4.6-21.6,5.7-32.5c1.5-14.7,0.7-29.5-5.5-43.3c-0.1-0.3-0.2-0.6-0.4-0.9
	c-3.8-6.1,1.4-13.5-3.3-19.6c-4-5.2-4.8-11.8-5.9-18.2c-0.6-3.3-2.6-6.4-4-9.6c-3.4-7.5-6.2-15.5-10.4-22.5
	c-4.3-7.2-10.2-13.4-15.2-20.2c-10.4-14.1-20.6-28.2-31-42.3c-4.6-6.2-9.8-11.3-17.6-14.1c-5.1-1.9-11.7-2.7-14.5-9
	c-0.3-0.7-1.5-1.2-2.4-1.4c-8.6-1.7-14.7-8-21.9-12.1c-7.3-4.2-15.2-7.8-23.2-9.7c-13.8-3.3-27.9-5.6-42-7.2
	c-9.1-1-18.5,1.3-27.6-1.9c-1.3-0.5-3.1,0.6-4.7,1c-0.6-0.4-1.2-0.7-1.6-1.2c-8.7-9.7-8.4-11.5,2.7-18.3c5.6-3.5,11.1-5,18.3-4.2
	c13.1,1.5,26.5,0.7,39.8,0.9c16.8,0.2,33.6-0.5,50.5,0.1c15.3,0.5,29,3.8,42.5,10.3c2.5,1.2,5.4,1.7,8.1,2.5c0.6,0.2,1.5,0,1.9,0.4
	c9,10.6,23,7.1,34,12.2c3.7,1.7,7.1,3.9,10.9,5.5c2.6,1.1,5.4,1.5,8.1,2.3c3.9,1.2,8.2,1.9,11.7,3.9c10.2,5.8,19.7,12.9,30.2,18.1
	c9.8,4.8,16.8,13,25.6,18.9c6.9,4.7,12.4,11,20.4,14.6c6.8,3,12.4,9.1,17.8,14.6c4.9,4.9,10.9,9.1,13.8,15.9
	c0.8,1.8,3.2,2.9,4.9,4.4c2.4,2.1,5.1,4,7.3,6.5c6.6,7.5,13.3,14.8,19.3,22.8c4.4,5.9,8.1,12.5,11.5,19.1c2.6,5.2,4.7,10.5,8.5,15.2
	c10.9,13.3,18.7,28.4,25.4,44.4c6.4,15.4,10.5,31.2,14.3,47.3c0.9,4.1,2.9,7.9,4.2,11.9c6.9,21.4,9.6,43.5,12.7,65.6
	c0.8,5.3,3.6,10.4,4.3,15.8c2.7,20.8,5.1,41.7,7.3,62.6c0.5,4.8-0.4,9.8-0.1,14.7c0.8,17.6,1.7,35.1,2.7,52.6
	c0.1,2.3,0.6,4.5,0.9,6.8c1.9,11.8,1.5,23.5-1.4,35.2c-2.1,8.5-3.5,17.2-5.3,25.8c-1.3,6-3.1,11.5-6.8,16.8
	c-3.8,5.4-5.2,12.5-7.6,18.8c-3.3,9.1-6.5,18.3-9.8,27.4c-2.5,6.7-3.8,14.3-7.9,19.8c-3.7,4.9-3.8,11.6-9.5,15.4
	c-2.9,2-4.3,6.2-6.5,9.3c-2.2,3.1-4.7,6.2-7.1,9.2c-4,5.1-8.3,10-12.1,15.2c-3.2,4.3-6.4,8.2-11.8,9.7c-1.4,0.4-2.8,1.5-3.9,2.6
	c-6.3,6.4-11.5,15-19.1,18.7c-10.3,5.1-17,14.3-27.1,19.4c-11.7,6-21.8,15-33.4,21.2c-12.4,6.7-24.1,15.2-38.5,18.1
	c-2.8,0.6-5.3,2.5-8,3.6c-3.7,1.5-6.6,5.7-11.5,3.8c-0.7-0.3-2.1,0.3-2.6,1c-3.9,4.7-9.4,4.9-14.8,6.3c-6.5,1.7-12.5,5.4-18.9,7.5
	c-7.3,2.5-15,4.1-22.4,6.2c-11.3,3.3-22.5,7.4-34,9.9c-8.7,1.8-17.4,5.8-26.7,3.3c-0.9-0.2-2.2-0.6-2.6-0.2
	c-8.7,7.9-18.9,3.1-28.5,3.4c-3.2,0.1-6.5,0.6-9.5,1.5c-9.7,2.8-18.9,3.2-28.5-1.2c-3.4-1.5-8-0.4-12-0.4c-1.8,0-3.8,0.3-5.5-0.2
	c-5.8-1.8-11.4-4-17.1-6c-1.2-0.4-2.6-0.6-3.9-0.4c-6.8,1.1-12.9-1-19-3.6c-12.3-5.2-25.3-7.7-38-11.6c-11.5-3.5-23.8-6.1-33.4-14.5
	c-2.1-1.8-5.9-1.7-8.6-2.9c-7.7-3.6-14.9-7.8-21.4-13.4c-3.2-2.8-7.4-5.8-12.4-2.6c-3,1.9-5.1-0.1-6.4-2.5
	c-2.1-3.7-3.7-7.6-5.5-11.4c-2.1-4.4-4.3-8.8-6.3-13.2c-1.7-3.8-3.2-7.8-5-11.6c-2.9-6.2-5.2-12.8-9.2-18.2
	c-4.7-6.2-6.8-13.2-8.9-20.3c-2.2-7.3-4.4-7.5-10.7-2.7c-4.6,3.6-6.6,7.9-6.5,13.4c0.2,7.1,0.4,7.1-6,7.2
	C345.1,722.5,343.5,722.1,341.6,721.8z M434.6,606.7c0.8-4,1.7-8.4,2.6-12.9c3-14.8,8.6-28,23.3-35.1c1.1-0.6,2.3-1.4,3.1-2.4
	c4.1-5.7,10.2-7.9,16.6-9.5c5.4-1.3,10.9-1.9,16.1-3.6c11.3-3.6,22.3-1.2,33.3,1c11.7,2.3,19.2,11.8,28.5,18.1
	c3.7,2.5,7.1,5.8,9.7,9.4c6.2,8.7,11.9,17.8,17.7,26.7c4.6,7.1,5.4,14.8,5.3,23.2c-0.3,16.1-10.4,29.4-12.4,44.9
	c-0.1,0.9-0.8,1.8-1.4,2.5c-6.7,7.9-13.3,15.7-20.1,23.5c-0.8,0.9-2.3,1.2-3.4,1.9c-16.2,9.5-33.8,12.1-52.2,10.9
	c-3.2-0.2-6.6,0.7-9.5-0.3c-7.6-2.7-15-5.8-22.3-9.3c-8.4-4.2-9.8-4.4-15.8,2.6c-7.8,9.2-15.4,18.5-22.5,28.2
	c-4.6,6.2-8.4,12.9-12.2,19.7c-1,1.7-1.4,5-0.5,6.4c2.8,4,5.7,8.5,9.7,10.8c14.4,8.3,29.2,16.2,44.1,23.6
	c7.8,3.9,16.8,5.6,24.1,10.1c12.9,7.9,27.8,8,41.4,13.1c7.1,2.6,15.1,3,22.4,5.2c7.3,2.2,14.5,2.3,22,2.6
	c10.9,0.5,21.5,0.3,32.4-1.1c15.4-1.9,31.3,0.5,46.3-5c0.9-0.3,1.9-0.7,2.8-0.7c19.3,0.5,36.8-8.1,55.5-11.2
	c5.3-0.9,10.2-4.2,15.2-6.4c13-5.6,25.7-12,39.8-14.7c2.1-0.4,3.8-2.2,5.8-3.4c2-1.2,3.9-2.4,6-3.3c8.6-3.8,17.2-7.5,25.8-11.3
	c2.3-1,5.5-1.7,6.5-3.5c2.2-4,5.9-4.8,9.3-6.6c10-5.3,21.1-9.5,29.5-16.8c8.7-7.6,19.7-12.8,25.8-23.5c1.6-2.9,5.4-4.6,8.3-6.6
	c7.3-4.9,14.1-10.2,19.2-17.7c4.1-6,9.1-11.7,14.7-16.3c4.1-3.4,6.2-7.1,8-11.8c3.5-9.5,6.9-19,11.4-28c5.1-10.1,10-20.1,10-31.8
	c0-1.3,0.4-2.5,0.8-3.8c3.9-12,8.8-23.6,10.3-36.6c1-8.9,3.4-17.8,4.8-26.8c2.9-18.6,4.7-37.2,5-56c0.2-11.6,0.3-23.2-0.5-34.7
	c-1.2-17.9-3.3-35.6-4.8-53.5c-0.8-9.5-4.1-18-8.4-26.4c-1.7-3.3-1-8-1.1-12.1c-0.1-2.1,1.5-5.1,0.6-6.1c-3.9-4.3-3.4-9.5-4.1-14.6
	c-0.8-5.8-1.1-11.9-3.5-17.1c-3.7-8.1-4.6-17.3-10.3-24.6c-1.5-2-1.9-4.8-2.8-7.2c-2.8-8.2-6.1-16.3-9.4-24.2
	c-6.2-15.1-15.4-28.9-23.5-43.2c-2-3.6-4.3-7.2-7.1-10.2c-6.9-7.4-11.4-15.9-15.6-25.2c-4-8.9-11.2-16.5-17.6-24.2
	c-6.1-7.3-13.4-13.6-19.5-20.9c-8.5-10.1-16.7-20.4-28-27.8c-3.5-2.3-7.2-5.1-9.1-8.6c-5.6-10.4-15.1-16-24.6-21.5
	C776,67.4,765.8,61.7,755.1,57c-10.2-4.5-20-10.1-31.7-11.6c-8.2-1-16.2-4.9-24-8.2c-8.1-3.5-15.5-8.9-23.8-11.5
	c-8.4-2.7-17.5-3.2-26.3-4.5c-0.7-0.1-1.5,1.1-2.7,2c0.9,1.4,1.4,3.2,2.5,3.9c9.3,5.3,16.9,13.5,27.7,16.2c1.8,0.5,3.7,1.3,5.3,2.2
	c18.9,10,33.3,25.6,44.1,43.1c8.3,13.5,19.7,24.4,27.9,38.1c8.3,13.9,13.1,29.3,21.6,43c4.6,7.3,4.9,17.4,6.6,26.3
	c1.4,7.2,2.3,14.7,3.7,21.8c3.1,15.9,5.4,32.7,2.9,48.6c-0.5,3.5-0.1,7.5-1.8,10.4c-3.5,6.2-3.3,13-4.6,19.5
	c-0.4,2.2-0.7,4.5-1.3,6.6c-2.9,9.6-5.7,19.3-8.8,28.9c-3,9.4-3.1,20-11.4,27.2c-5.2,4.5-8,10.5-10.4,16.8c-1.1,2.8-3.5,5.9-6.2,7.1
	c-5.5,2.5-8.6,6.4-11.3,11.5c-1.7,3.2-5.2,7.5-8.1,7.7c-7.1,0.3-10.8,4.8-15.5,8.7c-3.7,3.1-7.9,5.6-12.1,7.9
	c-4.6,2.6-9.7,4.5-14.3,7.2c-9.2,5.4-18.4,10.6-29.5,11c-2.7,0.1-5.4,1.2-7.5,1.8c1.3,10.9,9.8,19.8,3.7,30.7
	c-0.3,0.6,0.3,1.9,0.6,2.8c1.4,3.8,0.1,6.8-1.8,10.1c-2.2,3.9-3.5,8.4-5.3,12.5c-0.7,1.7-1.6,3.7-3,4.7c-7.1,5.1-14.5,9.7-21.5,15.1
	c-6.9,5.3-16.9,4.2-23,11.2c-0.7,0.8-2.4,0.8-3.7,1.1c-3.8,1-7.5,2.2-11.3,3c-1.4,0.3-3.1,0.3-4.5-0.2c-7.5-2.5-8.4-10.5-1.6-16
	c7.6-6.2,13-14,16.4-22.8c3-7.5,6.8-15.8,1.2-24.1c-5-7.5-10.3-14.8-14.9-22.5c-3.2-5.3-8.2-6.6-13.4-6.6
	c-7.5,0.1-15.2,0.2-22.3,2.2c-7,2-14.9-2.9-21.1,3.1c-11.9-1.3-22.1,4.9-33.1,7.5c-6.7,1.6-13.1,2.9-18.9,7.2
	c-4.1,3-9.2,5.8-14.1,6.4c-10.5,1.3-17.7,7.7-24.8,14.2c-6.7,6.1-12.6,13.2-18.8,19.8c-2.4,2.6-5.9,4.6-7.3,7.6
	c-5.7,12.3-15.5,22.5-18.4,36.4c-2.1,9.8-6,19.3-7.7,29.2c-1.9,11.2-2.8,22.6-3.2,33.9c-0.2,6.1-2.7,13,1.8,18.2
	C397.8,624.2,417.1,619.8,434.6,606.7z M485.1,658c8.3-3.3,16.9-6.1,24.9-10c3.2-1.5,5.8-5.2,7.5-8.5c3.6-7,2-16.3,9.7-21.5
	c0.7-0.5,0.3-2.5,0.5-3.8c0.4-2.2,1.3-4.4,1.4-6.6c0.3-8.5,0.5-17,0.4-25.4c0-1.3-1.5-2.7-2.5-3.9c-3.6-4.1-7.5-8-11-12.2
	c-5.3-6.3-9.2-7.5-17-5.1c-2.5,0.8-5,1.4-7.6,2c-16.3,3.7-29.3,11.6-34.7,28.5c-3.1,9.8-7.7,19.4-3.3,30c0.5,1.2-0.5,3-0.9,4.5
	c-1.7,6.8,0.5,10.6,6.5,13.9c4.7,2.6,9.5,5.8,12.7,10C475.2,654.8,479,657,485.1,658z M407.8,732.4c5.9-8.2,11.5-16.1,17.3-23.8
	c2.9-3.9,6.9-7.1,9-11.3c2.1-4.3,4-7.6,8.7-9.7c4.7-2.2,7-9.8,5.3-13.5c-1.6-3.7-7.3-5.8-12.9-4.4c-14.1,3.5-28.2,7.5-42.4,10.8
	c-4.9,1.1-7.4,4.3-6.2,8.2c2.6,9.1,0.8,19.8,10.1,26.6c2,1.4,2.9,5.1,3.3,7.8C400.4,727.4,402.7,730.1,407.8,732.4z M377.3,641.5
	c1.1,10.3-2,20,7.1,28.1c9.5-8.8,23.6-5,33.1-13.5c5,1.1,7.4-2.6,10.7-5c-1.3-4.5-2.5-8.5-3.6-12.7c-7.6,1.2-15.1,0.5-22.7,2.7
	C394.8,643.1,386.6,641.5,377.3,641.5z"/>
<path fill-rule="evenodd" clip-rule="evenodd" d="M397.3,206.2c-2.5,5.4-1.4,12.8-7.2,17.9c-5.9,5.2-10.1,5.9-16.5,1.9
	c-9.6-6-12.5-15.5-12.8-25.9c-0.2-5.4,3.1-9.7,8.1-12.2c2.6-1.3,5.3-2.7,8.1-3.4c2-0.5,4.9-0.9,6.3,0.2
	C390.3,190,396.8,195.7,397.3,206.2z"/>
<path fill-rule="evenodd" clip-rule="evenodd" d="M482,611.4c-1.3-1.4-2.7-3.6-4.7-5c-8-5.6-7.8-13.8-6.6-21.8
	c1.3-8.4,9.2-12,17.5-12.1c9.4-0.1,17.2,5.3,19,13.5c1.7,8.2-0.3,15.4-6.8,21c-1.4,1.2-3.2,2.3-5,2.6
	C491.1,610.5,486.8,610.8,482,611.4z"/>
</svg>
