<?xml version="1.0" encoding="utf-8"?>
<!DOCTYPE svg PUBLIC "-//W3C//DTD SVG 1.1//EN" "http://www.w3.org/Graphics/SVG/1.1/DTD/svg11.dtd">
<svg artist="zl2017" version="1.1" id="zlIcon-symbol-yes" xmlns="http://www.w3.org/2000/svg" xmlns:xlink="http://www.w3.org/1999/xlink" x="0px" y="0px"
	 width="1000px" height="1186.1px" viewBox="0 0 1000 1186.1" enable-background="new 0 0 1000 1186.1" xml:space="preserve">
<path fill-rule="evenodd" clip-rule="evenodd" d="M0.5,672.1c19.5-34,34.4-63.4,52.5-90.7c23.6-35.8,59.3-42.7,91.8-15.2
	c31.8,27,61.2,57.3,88.7,88.6c53.1,60.4,102.3,123.6,143.3,193.4c22.4,38.3,50.3,73.4,81,117.5c11.6-17.8,21.1-27.8,25-39.6
	c26-79.2,49.4-159.3,76.7-238.1c11.6-33.6,30.1-64.9,46.1-96.9c41.3-82.3,83-164.4,124.6-246.7c19-37.5,44.6-69.6,71.2-102.3
	c45-55.5,82.1-117.3,122-176.8C939.9,40.9,955,15.5,989.8,0c3.7,11.3,12.2,23.7,8.9,29.6c-21.6,39.3-43.5,78.8-69.4,115.3
	c-72.7,102.3-145.4,204.5-197.9,319c-24.8,54.1-48.3,109.4-66.5,166c-29.1,90.7-56.4,182.4-78.9,275c-17.3,71.7-36.8,144.3-25.3,220
	c0.9,5.9,1.1,11.9,0.8,17.9c-1.1,19-7.1,38.6-25.9,42.8c-11.6,2.7-29-5.3-39.2-14c-62-52.7-112-115.3-152.4-186.2
	c-33.7-59.2-86.4-110.5-145-152.4C141,791.4,84.7,747.1,28.1,703.3C18.9,696.3,12.4,685.8,0.5,672.1z"/>
</svg>
