<?xml version="1.0" encoding="utf-8"?>
<!DOCTYPE svg PUBLIC "-//W3C//DTD SVG 1.1//EN" "http://www.w3.org/Graphics/SVG/1.1/DTD/svg11.dtd">
<svg artist="zl2017" version="1.1" id="zlIcon-symbol-pentagram-sheep" xmlns="http://www.w3.org/2000/svg" xmlns:xlink="http://www.w3.org/1999/xlink" x="0px" y="0px"
	 width="1000px" height="971.3px" viewBox="0 0 1000 971.3" enable-background="new 0 0 1000 971.3" xml:space="preserve">
<path fill-rule="evenodd" clip-rule="evenodd" fill="#FFFFFF" d="M548.7,598c-0.8-3.2-0.6-6.6-2.1-7.8c-3.9-3-8.4-5.8-13-7.4
	c-6.4-2.2-13-2.9-20-0.5c-5,1.8-9.5,3.7-13.2,7.5c-4.4,4.7-8.9,9.3-11.6,15.3c-1.4,3.1-2.1,3-5.3,1.1c-2.2-1.2-4.5-2.2-6.4-3.1
	c-4.5,1.9-9.3,2.4-12.2,6.7c-2.6,3.9-5.3,7.7-3,12.4c4.3,0.5,8.2,0.8,12,1.5c9.7,1.9,19.5,3.7,28.4,8.5c4.4,2.4,9.4,3.2,14.5,2.5
	c3.7-0.5,7.4-0.9,11-1.5c3.9-0.6,7.3,0.3,10.4,2.8c3,2.4,6.3,4.6,9.6,6.7c6.7,4.2,9.9,10.8,12.3,17.7c0.9,2.6,0.6,5.9-0.2,9.1
	c-1.2,5.3-5.1,8.3-8.5,11.5c-2.7,2.5-6.5,4-10.8,3.5c-3.5-0.4-3.9-3.2-5.7-5c-3.5-3.6-3.8-5.5-2.4-10c1.5-4.8,2.7-9.7,3.4-14.6
	c0.2-1.5-1.1-3.7-2.4-5c-4-3.9-8.6-4.1-13.8-1.4c4.3,12.8,0.2,24.7-4.2,36.4c-3.7,9.8-12.6,14.6-21.4,18.6c-5,2.3-8.9,5.8-13.4,8.7
	c1.2,2.2,2.9,3.9,3,5.6c0.2,5,2.8,9.1,5.6,12.5c4.2,5.2,10.2,8.6,17.4,7.5c4.6-0.7,9.1-1.7,13.6-2.7c1.1-0.2,2.7-0.7,3-1.5
	c1.5-3.7,4.8-4.9,7.6-7c2.8-2.1,5.1-2.3,7.2-0.8c5.2,3.7,11.4,4.8,16.9,7.5c7.6,3.6,15.3,3.5,23.2,1.9c2-0.4,4.3-1.6,5.3-3.1
	c1.5-2.4,2.3-5.3,2.7-8.2c0.3-2.1,1.3-3.1,3-3.8c1.2-0.5,2.5-0.9,3.1-1.1c3.5-3.1,0.5-8.4,5.7-10.8c0.5,2,1.2,3.5,1.4,5.1
	c0.2,1.9,0.1,3.8,0.1,5.7c13.6,0.5,26.2-17.6,22.6-26.9c-6,2.9-12,5.9-18.3,8.9c-0.9-1.7-1.5-2.9-2-4c4.6-4.3,8.2-8.9,13.9-11.2
	c7.8-3.1,11.8-10.1,15.1-17.2c2.9-6.3,2.5-13-0.5-19.8c-4.2-9.4-9.3-17.9-18.6-23.2c-1.6-1-3.3-3-3.7-4.8c-0.5-2.6,1.7-4,4-4.9
	c0.5-0.2,0.9-0.6,1.8-1.1c-2.5-12-8.7-21.5-20.5-25.4c-15.3-5.2-29.8-3.4-41.5,9.5C550.6,598.5,549.5,598.2,548.7,598z"/>
<path fill-rule="evenodd" clip-rule="evenodd" fill="#FFFFFF" d="M459.7,664.7c0.7,2.3,2,6,3,9.9c0.7,3,2.3,5.2,4.5,7.3
	c4.8,4.7,10.5,7.6,17.1,7.4c4.8-0.1,9.9-0.4,14.2-2.3c11.9-5.4,17-18.8,13.6-32.7c-1.3-5.3-4.2-9-9.3-10.9c-7.4-2.9-14.9-4.9-23-5.9
	c-6.6-0.8-10.9,1.5-14.6,6.1C460.6,649.3,460.1,656,459.7,664.7z"/>
<path fill-rule="evenodd" clip-rule="evenodd" fill="#FFFFFF" d="M461.5,637.5c-2.8-0.7-4.3-0.9-5.7-1.4c-3.9-1.5-7.9-2.3-12-1.3
	c-8.5,2.1-15.7,6.4-19.8,14.3c-1.9,3.6-2.2,8.2-2.9,12.3c-0.5,3.1,2,4.9,3.7,6.9c0.6,0.7,1,1.7,1.6,2.5c1.7,2.1,3.3,4.2,5.1,6.1
	c5.1,5.5,12.2,3.5,18.4,4.6c2.5,0.4,3.1-1.7,2.8-4c-0.8-4.8-1.7-9.6-2.1-14.4c-0.8-8.3,0.6-15.8,8-21.2
	C459.6,641.1,460.3,639.4,461.5,637.5z"/>
<path fill-rule="evenodd" clip-rule="evenodd" fill="#FFFFFF" d="M811.3,402.2c6.9-0.1,13.6-1.5,19.8,1.8c7.4-1.3,13.5,3.3,20.2,5
	c5.9,1.5,11.2,5,16.8,7.6c5.2,2.4,10,2.1,14.4-2c1.7-1.6,3.6-3,5.5-4.3c5-3.1,10.2-3.8,15.5-0.9c2.9,1.6,5.6,3.4,8.1,5.6
	c6.7,5.9,10.1,13.8,10.9,22.3c0.5,5.4-0.9,11.1-1.6,16.6c-0.1,0.9-0.7,2.1-1.4,2.4c-3,1.6-5.9,3.1-9.8,2.1
	c-5.7-1.4-9.8-4.8-12.3-9.6c-3.3-6.2-7.2-11.8-12.3-16.7c-3.7-3.6-4.3-4.1-9.9-2c1,4.2,2.3,8.5,3.1,12.9c3,16.3-6.9,32.9-17.8,40.8
	c-4.6,3.3-9.1,6.6-13.1,10.6c-2.3,2.3-2.3,3.3-0.2,5.9c2.6,3.1,5,6.5,7.9,9.3c2.6,2.5,5.7,5.5,8.9,6c5.4,1,11.1,1.3,16.5-1.5
	c5.6-3,11.4-5.7,17.2-8.3c1.6-0.7,3.4-0.8,5.2-1.3c0.9,7.5,4.8,10,11.4,8.3c0.9-0.3,2-0.4,2.8-0.9c1.1-0.6,2.7-1.4,2.9-2.3
	c0.4-1.7-0.8-2.8-2.7-3c-0.4-0.1-0.8-0.7-1.3-1c0.3-2.2,1.7-3.6,3.6-3.2c4.3,0.8,8.5,1.8,12.9,1.8c2.4,0,4.9,1.2,7.3,1
	c4.6-0.3,9.2-1.1,13.7-2c11.8-2.3,18.7-10.2,23.4-20.7c2.3-5.2-0.6-10.2,0.7-15.8c-2.2,0.1-3.7,0.4-5.2,0.2
	c-1.2-0.1-2.2-0.8-3.4-1.2c0.5-1.2,0.6-2.8,1.4-3.5c3.8-3.2,7.7-6.2,11.6-9.2c4.4-3.4,8.3-6.8,8.7-13.1c0.5-6.4-0.6-12.4-2.8-18.2
	c-1.8-4.7-4.4-9.1-7-13.4c-3.1-5.3-6.4-10.6-12.3-13.3c-1.7,0.8-3.2,1.5-4.7,2.2c-1-2-1.7-3.5-2.5-5c-2.5-0.1-4.6-0.8-6.4-1.9
	c-0.7-0.4-1.4-1.7-1.2-2.4c0.5-1.6,1.1-3.5,2.3-4.5c1.3-1.1,3.4-1.5,5.5-2.3c-1.9-3.9-3.4-8.3-6.1-11.7c-3.2-4-7.3-7.4-11.5-10.4
	c-4.9-3.5-11.1-2.6-16.7-3.4c-1.5-0.2-3.3-0.3-4.5,0.5c-4,2.5-9.4,1.9-12.8,5.9c-0.6,0.8-2.2,0.7-3.2,1.2c-2.3,1.2-4.5,1.2-6.5-0.5
	c-2.2-1.9-2.3-4.2-0.3-7c-4.9-2.6-9.1-5.7-13.8-7.1c-7.4-2.3-15-3.1-21.6,3.1c-5.2,4.9-11.4,8.9-16.1,14.2c-3,3.3-4.4,8.2-6.2,12.5
	c-0.9,2.2-1.8,4.2-4.5,5.1c-1-1.8-2-3.4-2.9-4.9c-6.8,0.5-13.6,0.2-18.6,5.6C812,388.8,809.6,394.9,811.3,402.2z"/>
<path fill-rule="evenodd" clip-rule="evenodd" fill="#FFFFFF" d="M810.9,451.6c-0.2,0-0.4,0.1-0.7,0.1c0.4,3.2,0,7,1.5,9.6
	c3.5,6,6.9,12,13.2,16.1c11.6,7.7,23.7,2.9,32.6-3.7c6-4.4,8.3-10.9,10.8-17.5c3.9-10.3,0.7-19.5-3.9-28.5c-0.5-0.9-1.6-1.8-2.6-2.2
	c-14-5.3-27.7-8-39.9,4c-0.8,0.8-1.7,1.6-2.7,2.2c-6.2,3.8-7.8,9.8-8.4,16.4C810.8,449.3,810.9,450.5,810.9,451.6z"/>
<path fill-rule="evenodd" clip-rule="evenodd" fill="#FFFFFF" d="M785.6,430.4c3.8,7.7,3.2,9.7-4.1,13.4c-2.2-2.4-4.5-4.8-7.1-7.6
	c-1.2,2.9-3,5.6-3.5,8.6c-1,5.5-0.5,10.8,4.3,14.9c8,6.9,17.1,8.3,27.6,6c-5.1-14.6-0.8-26.6,10.2-37.3c-6.1-4.3-11.1-10.3-18.9-8.3
	c-5.9,1.5-13,2.1-16,9.8C781,430.1,783.1,430.3,785.6,430.4z"/>
<path fill-rule="evenodd" clip-rule="evenodd" fill="#FFFFFF" d="M793.7,203.8c3.9-0.7,6.9-0.1,9.8,2c4,2.9,8.7,4.1,13.6,4.1
	c5.2-0.1,10.5-0.2,15.7-0.6c1.7-0.1,3.4-0.8,5-1.5c6.5-3.3,9.8-8.9,11.7-15.8c1.5-5.3,4.2-10.2,6.4-15.3c0.1-0.1,0.7,0,1.6,0
	c0.2,2.9,0.4,5.8,0.7,8.7c15.7-2.7,26.8-27.1,18.2-38.7c-3.3,0.3-5.6,4.5-9.7,2.3c0.2-0.8,0-1.9,0.5-2.2c5-3.2,6.6-9,10.3-13.2
	c2-2.2,3.5-4.8,4-8.2c1.3-10.1-2.2-18.9-7.5-26.9c-4.1-6.3-10.1-10.4-18.2-9.5c-1,3.3-1.9,6.3-5.5,6.4c0-5.9,0.2-11.4-0.1-17
	c-0.1-2.2-0.5-4.8-1.7-6.5c-7.8-11.3-20.2-19.1-35.8-12.9c-4.5,1.8-8.8,4.5-14,4.8c-3.5,0.2-4,0.2-3.9-3.4c0-0.9,0.1-1.8,0.2-2.4
	c-6.7-7.1-14.8-8.7-23.7-8.1c-7.3,0.6-11.6,5.5-15.7,10.8c-0.9,1.2-3.1,1.9-3.2,3c-0.5,5.1-4.5,8-6.7,12c-1.4,2.4-3.6,2.2-4.8-0.3
	c-0.5-1-0.5-2.1-0.7-2.8c-2.8,0-5.1,0-7.4,0c-1.5,0-3.3-0.8-4.5-0.2c-7,3-14.3,5.2-18.4,12.8c-2.6,4.9-2.4,8.9-0.4,13.7
	c7.2-0.9,14,0,21-2c6.6-1.9,14.1-1.6,20.3,2.5c4.5,3,8.9,2.6,13.9,2.2c6.1-0.6,11.9-3.1,18.6-0.5c6,2.4,11.8,4.5,15.7,9.8
	c3.6,4.9,6.4,10.2,7.6,16.2c1.2,5.8,0.9,11.6-2.7,16.7c-2.6,3.7-9.1,6.6-12.2,5c-6.2-3.2-9.9-7.6-9.5-15.4
	c0.3-5.3-1.3-10.8-4.5-15.4c-3.4-4.9-7.2-5.6-12.4-1.9c0.5,1.9,1.3,3.9,1.6,6c0.6,4,1.2,8,1.2,12.1c0.1,13.1-4.9,25.1-8.4,37.4
	c-2.5,8.9-5.8,16.9-13.4,23.1c5.3,8.2,12.1,14.2,21,17.9c2.9,1.2,5.9,1.6,9.1,0.2c3.4-1.5,7-2.3,10.5-3.3c1.6-0.5,3.3-0.8,5.2-1.3
	C792.2,207.1,792.9,205.5,793.7,203.8z"/>
<path fill-rule="evenodd" clip-rule="evenodd" fill="#FFFFFF" d="M703.3,135.8c0.6,3.4,0.9,5.9,1.4,8.3c1.9,10.3,9.3,17.6,14.5,26
	c0.3,0.5,0.8,1,1.3,1.1c4.6,1.1,9.2,2.3,13.9,2.9c1.8,0.2,3.8-0.7,5.6-1.3c5.4-1.9,7.3-7.9,11.9-10.7c2-6.8,4.7-13.6,5.8-20.5
	c1.3-7.4,0.6-15.1-2.2-22.3c-1.1-2.8-2.3-6.2-4.5-7.9c-4.3-3.3-9.3-4.8-15.1-4.5c-9.4,0.5-16.3,4.5-20.6,12.8c-2,3.9-4,7.9-5.9,11.9
	C708.5,134.1,707.2,136,703.3,135.8z"/>
<path fill-rule="evenodd" clip-rule="evenodd" fill="#FFFFFF" d="M704.2,119.8c-3.5-1.9-6.2-3.1-9.3-0.6c-0.8,0.7-2.2,0.9-3.3,0.8
	c-4.7-0.5-8,2.4-10.3,5.5c-9.3,12.6-11.2,25.7-4,39.7c3,5.9,8.2,10.1,15.2,10c5.6-0.1,11.2-1.2,17.5-2
	C695.7,156.3,692.2,139,704.2,119.8z"/>
<path fill-rule="evenodd" clip-rule="evenodd" fill="#FFFFFF" d="M279.5,187.3c-0.5-0.8-1.5-1.7-1.5-2.4c0.3-4.3-1.7-7.3-5-9.8
	c-1.3-1-2.1-2.8-2.9-4.3c-2.1-4.2-2.3-8.7-2.8-13.3c-0.6-5.7-0.7-11,1.1-16.3c1.3-3.7,3.1-7.3,4.7-10.9c-3.6,0.2-6.7,1.8-8.8,4
	c-3.9,4-7.5,8.3-11.9,11.7c-7.6,5.9-8.3,5.5-14-2.1c-5.6-7.6-2.5-22,5.6-26.7c7.6-4.4,15.3-5.1,23.4-1.7c7.7,3.2,15.6,3.4,23.7,1.9
	c1.7-0.3,3.3-1.1,4.9-1.4c6.9-1.2,13.9-2.2,20.5-3.2c2.1-5.6-1.1-8.7-3.5-12.7c-1.9-3.2-4.6-3.7-7-5.4c-2.9-2.1-6-2-8.9-1.2
	c-3.5,1.1-6.9,0.8-10.3,0.5c-4.3-0.4-4.8-1.1-6.1-5.4c-2.1-7-4.1-14.1-11.6-17.8c-9.6-4.7-19.2-7.4-28.8,0c-1.2,0.9-2.3,1.9-3.4,2.9
	c-2.4,2.4-5.6,2.9-8.4,0.9c-1.3-0.9-2.6-1.9-3.5-3.1c-3.1-4.2-7.5-6.7-12-9c-4.6-2.3-9.9-3.2-14.8-2c-9.3,2.3-16,8.7-22.3,15.8
	c1.4,1.8,2.6,3.5,4.2,5.7c-4.4,2.2-8.3,4.6-12.4,5.9c-5.7,1.8-8.8,6.8-13.3,10c-2.3,1.6-3.4,5.1-4.9,7.8c-5,8.7-6.2,19.1,1.1,27.7
	c3.7,4.3,3.4,4.5,8.6,1.9c0.3-0.1,0.7,0.2,1.8,0.4c-0.2,2.1-0.2,4.3-0.6,6.5c-1.4,8.8-2.8,17.7,0.8,26.3c2,4.8,3.8,9.9,6.9,14
	c5.4,7,13.5,9.7,22.2,10c3.2,0.1,6.7,0.8,9.7-2.2c-0.2-1.3-0.4-2.8-0.6-4.3c-0.8-4.3-0.8-4.4,4-5c4.8,13.3,15,21.3,27.9,24
	c9.9,2.1,20.6,0.7,27.1-8.4c0-3.1-0.9-6,0.2-7.8c1.5-2.4,4.2-0.2,6.4,0.2c1,0.2,1.9,0.6,2.8,0.8
	C271.9,190.7,275.8,190.9,279.5,187.3z"/>
<path fill-rule="evenodd" clip-rule="evenodd" fill="#FFFFFF" d="M299,123.5c-1.3,3-3.2,3.9-6.8,2.7c-2.5-0.8-5.6-0.1-7.5,2.9
	c-0.9,1.5-2.7,2.7-4.4,3.5c-3.1,1.6-4.6,4-4.9,7.4c-0.7,8,0.5,15.8,2.3,23.5c0.6,2.4,2.4,5.6,4.5,6.4c7.1,3,14.6,4.3,21.9,0.4
	c7.3-3.9,14-8.8,18-16.1c2.9-5.3,4.9-11.5,1.7-17.3c-2.5-4.7-5.8-9.3-11.7-10.5C308,125.5,304,124.6,299,123.5z"/>
<path fill-rule="evenodd" clip-rule="evenodd" fill="#FFFFFF" d="M314.2,174.7c3.4,1.2,6.5,2.3,9.6,3.5c6.3,2.3,12.7,3.8,18.6-0.9
	c5-4,10.2-7.9,12.1-14.4c2.1-6.9-0.7-13.7,0.2-20.3c-2.5-1.1-4.2-1.9-6.1-2.7c0.3-3.3,0.2-6.5-3.2-8c-3.2-1.4-6.5-2.7-9.9-3.4
	c-2.1-0.4-4.3,0.3-7,0.6C335,148.2,326.4,162,314.2,174.7z"/>
<path fill-rule="evenodd" clip-rule="evenodd" fill="#FFFFFF" d="M189.5,346.8c0.1,3,0.1,5.6-3.2,5.8c-2.6,0.1-3.6-1.7-4.3-4
	c-1.3-3.8-2.6-7.7-4.6-11.3c-1.1-2-3.3-4-5.4-4.9c-3.2-1.2-6.8-1.5-10.2-2c-6.8-0.9-13.1,1.6-19.3,3.8c-3.1,1.1-5.4,4.1-8.1,6.2
	c0.3,1.6,0.6,3,1,4.8c-2.3,0-4.6,0.7-6.1-0.1c-5.9-3.2-12-4.3-18.6-4.9c-3.8-0.3-7.1-0.2-10.5,0.7c-7.3,2-13.5,5.8-19.1,10.8
	c-7.6,6.9-10.8,15.8-11.4,26.1c3.6,1.2,7.8,1.9,8.9,6.9c-0.8,0.5-1.9,1.8-2.6,1.6c-5.9-1.2-10.2,2.4-14.6,4.9
	c-5.5,3.1-9.5,7.8-12.2,13.5c-3.9,8.1-4.4,16.5-1.9,25c1.6,5.6,5.9,9.2,10.5,11.7c2.9-1.1,2.7-6.3,7-3.5c0,3-0.1,6.1,0,9.1
	c0.1,2.9,0,5.9,0.7,8.6c0.8,3.1,2.5,6.1,3.5,9.2c2.7,8.2,7.4,14.4,16.3,16.4c0.8,0.2,1.6,0.3,2.2,0.7c4.7,2.5,9.4,3.3,14.2,0.1
	c0.9-0.6,2.6-0.3,3.9-0.2c2.1,0.2,4.2,0.6,6.3,0.9c2.1,0.3,3.5-0.1,4.5-2.5c1.3-3.1,2.3-3.3,4.6-1.1c2.6,2.6,4.9,5.5,7,8.5
	c5.8,8.5,18.5,15.1,30.1,9.8c8.4-3.8,15.3-9.7,22.8-14.4c-1.6-6.5-0.5-8.2,5.7-8.8c1.9-0.2,3.9-0.3,5.8-0.6c5-0.9,5.2-1.1,7.9-6
	c-5.5-1.7-10.1-4.8-13.7-9.3c-0.8-1-1.9-2-3.1-2.4c-9.8-3.3-16.3-9.9-21.2-18.9c-6.2-11.4-7.5-22.9-2-35.8
	c-4.1,1.7-7.6,2.8-10.6,4.7c-2.8,1.8-4.4,4.8-5.3,8.2c-2.3,8.6-6.1,16.3-14.7,20.5c-5.5-2.1-9.2-5.9-10.1-11.6
	c-0.6-3.9-1-8.4,0.2-12c1.3-4,2.1-8.9,6.1-11.5c8.1-5.3,16.5-9.7,26.8-6.4c1.5,0.5,3.1,0.8,4.6,0.8c5.3-0.1,10.9,1,15.2-3.5
	c3.4-3.6,7.7-5.6,12.5-7.1c3.3-1,6.6-2.5,9.3-4.6c4.2-3.2,9.1-4.3,14-5.3c3.4-0.7,6.9-0.8,10.5-1.2c0.2-1.5,0.5-2.6,0.4-3.7
	c-0.3-4.3-2.1-8-4-11.7c-2.9-5.9-12-10.7-18.4-8.6C193.9,349.3,191.9,349,189.5,346.8z"/>
<path fill-rule="evenodd" clip-rule="evenodd" fill="#FFFFFF" d="M165.1,420c0.2,0,0.4,0.1,0.7,0.1c0,1-0.1,2,0,2.9
	c0.3,4.1,0.1,8.3,4.3,10.9c0.6,0.4,0.6,1.4,1.1,2c6,7.3,12.6,12.7,23,12.3c13.3-0.6,24.1-8.3,28.3-20.9c1.8-5.3,1.8-10.7,2.2-16.2
	c0.2-2.6,1.7-5.2-1.2-7.6c-2.2-1.8-3.6-4.8-5.9-6.2c-5.5-3-11.2-5.4-17.8-4.8c-4.7,0.5-9.5,0-14,1c-8.7,1.8-16.5,5.3-19.1,15
	C165.8,412.4,165.6,416.3,165.1,420z"/>
<path fill-rule="evenodd" clip-rule="evenodd" fill="#FFFFFF" d="M230.2,432.5c8.3,3.3,15.8,1.7,23.3-0.3c0.9-0.2,1.9-0.8,2.5-1.4
	c4.7-5.4,10-10.5,9-18.7c-0.5-4.4-0.7-8.8-1.4-13.2c-1.6-9.8-8.1-14.5-17.4-16.1c-8.5-1.5-14.5,2.3-19.3,8.8
	c4.3,5.9,5.4,8.1,5.6,15.2C232.9,415.2,232.6,423.7,230.2,432.5z"/>
<path fill-rule="evenodd" clip-rule="evenodd" d="M19.3,375.2c-1.7,1.7-2.3,4.1-2.1,7.4c0.3,4.9,0.7,9.8-0.5,14.9
	c-1.2,4.8-0.7,10-1.4,15c-1.6,11.4,0,22.9-0.3,34.3c-0.3,12.7,2.4,25.1,2.5,37.7c0,4.3,0.2,8.5,0.1,12.8c-0.1,4.2,0.6,8.1,3,11.6
	c2.3,3.3,2.2,7.2,1.5,10.8c-1.2,5.6,1.3,10.1,3.3,15c1.6,4.1,3.1,8.3,3.9,12.6c1.5,7.6,2.5,15.3,3.6,23c0.6,4.6,0.6,9.3,2.7,13.6
	c0.7,1.6,1.2,3.2,1.8,4.9c1.3,3.6,2.3,7.3,3.8,10.8c3.8,8.7,7.7,17.3,11.7,25.9c1,2.1,2.3,4,3.4,6c4.2,7,8.7,13.9,12.5,21.1
	c7.1,13.1,13.8,26.4,20.6,39.6c0.4,0.9,0.7,2,1.5,2.5c6.4,4,8.5,11.4,13.5,16.5c2.4,2.4,1.8,6.9,5.4,8.6c2.7,7.8,10.3,12,13.6,19.8
	c2.5,5.9,8.1,10.8,12.9,15.5c4.8,4.7,9.2,9.5,12.8,15.2c0.9,1.4,2.3,2.6,3.6,3.8c4.6,4.2,9.4,8,13.7,12.5c2.7,2.8,4.3,6.8,7.1,9.6
	c3.7,3.8,8.2,6.8,12.1,10.3c2.7,2.4,5.1,5.2,7.8,7.7c3.1,2.8,6.2,5.5,9.4,8.1c2.8,2.2,6.6,3.2,7.7,7.3c0.3,1.1,1.8,1.9,2.9,2.8
	c1.4,1.1,2.9,2,4.2,3.2c4,3.4,8.1,6.3,13,8.5c7.2,3.2,13.6,8,20.3,12.2c6.3,3.8,13.6,6.6,18.6,11.7c6.3,6.3,15.5,8.3,20.8,15.6
	c4,1.1,7.1,3.4,10.2,6.1c4.5,3.9,9.7,7.1,14.3,10.9c4.5,3.8,9.2,6.9,14.7,9.2c4.7,1.9,8.9,4.8,13.3,7.2c9.7,5.3,20.3,8.4,30.5,12.5
	c12,4.9,24.2,9.3,36.2,14.3c7.9,3.3,15.6,6.9,24.2,7.5c4.7,0.3,8.8,2.8,13.5,2.8c4.6,0,9.4,0,13.8,1.3c6.4,1.8,13.4-0.7,19.4,3.3
	c0.1,0.1,0.4,0.1,0.6,0.1c9.8,0.3,19.7,1.2,29.5,0.8c9-0.3,18.3-1.2,26.7-4.6c6.5-2.6,13.1-2.5,19.7-3.6c16.4-2.7,33-3.9,49.2-8.6
	c10.6-3.1,21.6-5.7,32.9-6.3c3.8-0.2,7.5-1.7,11.3-2.4c2.8-0.6,5.7-0.9,8.5-1.3c1.5-0.2,3.2,0,4.6-0.6c5.7-2.2,11.4-4.5,17-7.1
	c6.8-3.2,13.4-6.6,20-10.1c6.3-3.3,12.6-6.9,18.8-10.4c10.5-6,22.1-9.9,32.8-15.6c7.5-4,14.7-8.4,21.4-13.9
	c5.6-4.7,11.6-9.1,17.1-13.9c2.3-2,5-3.5,7.7-5c9.1-5.1,15.8-13,23.9-19.4c2.7-2.1,4.8-5.1,7.1-7.6c4.5-4.8,9-9.7,13.4-14.5
	c5.6-6.1,11.2-12.2,16.7-18.4c5.7-6.2,11.4-12.5,17-18.7c7.7-8.5,15.7-16.7,22.9-25.5c3.7-4.6,6-10.4,9-15.7c0.7-1.2,1-2.7,2-3.5
	c6.7-5.7,8.6-13.9,11.6-21.6c1.1-2.8,2.3-5.6,4-7.9c3.5-4.4,4.7-9.7,6.6-14.7c0.1-0.2,0-0.5,0.2-0.6c5.4-4,5.3-10.5,7.3-16
	c3.2-9.4,6.3-18.8,9.1-28.3c2.8-9.5,5.6-19,7.7-28.7c1.7-7.7,2.2-15.7,3.4-23.5c0.8-5.3,2.2-10.5,2.8-15.8
	c0.8-7.5,2.6-14.8,2.3-22.5c-0.1-4,1.1-8.3,1.7-12.4c0.6-4.2-0.1-7.9-0.8-11.7c0.2-0.5,0.4-0.9,0.6-1.2c1.5-2,2.9-4.4,5.8-4.3
	c2.1,0.1,5.9,4.3,6.5,7c0.1,0.4,0.3,0.8,0.2,1.1c-2.9,7.4-0.8,15.1-1.5,22.6c-0.6,7.2-2.3,14.2-3.2,21.4c-1.1,8-1.9,16-2.8,23.9
	c-0.1,1.1-0.1,2.4-0.6,3.4c-1.7,2.9-1.6,6.2-2.4,9.2c-2.2,8.2-1.7,17.1-6.4,24.7c-1.2,1.9-2,4.2-2.6,6.4c-1.2,4.1-1.9,8.2-3.1,12.3
	c-2.1,7.6-4.6,15.1-6.6,22.8c-1.3,4.9-2,9.9-3.3,14.8c-1.3,4.9-3.1,9.6-4.6,14.4c-0.4,1.3-0.5,2.7-0.9,3.9c-0.8,2.2-1.3,4.6-2.6,6.4
	c-4.4,6-7.9,12.5-10.6,19.4c-3.3,8.4-9.3,15-14.7,22c-5.2,6.7-10.2,13.6-15.6,20.1c-3.3,4-7.3,7.5-10.8,11.4
	c-4.9,5.5-9.2,11.5-14.3,16.7c-3.2,3.3-5.2,7.9-10,9.6c-0.6,0.2-1.1,1-1.6,1.6c-4.1,4.6-7.6,9.7-12.9,13.4c-4,2.8-6.8,7.2-10.2,10.9
	c-5.1,5.6-9.9,11.4-16.6,15.4c-2.9,1.7-5.1,4.7-7.9,6.8c-7.1,5.4-14,11-21.4,15.9c-7.1,4.7-15.2,7.9-22,12.8
	c-5.8,4.2-12.7,5.8-18.3,10.8c-5.8,5.2-12.8,9.6-20.4,12.6c-7,2.7-13.8,6.5-21.1,7.9c-8.7,1.6-16,6.7-24.6,8.5
	c-5.3,1.1-10.1,4.8-15.1,7.4c-0.5,0.3-0.9,0.8-1.5,0.9c-10.6,2.6-19.9,8.7-31.4,9c-6.6,0.2-13.4,1.5-19.7,4.5
	c-2.9,1.4-6.7,1-10.1,1.7c-4.8,0.9-9.5,1.9-14.2,3c-18.9,4.5-38.2,6.6-57.6,8.2c-5.8,0.5-11.6,1.6-17.4,1.9
	c-9.7,0.4-19.5,0.3-29.2,0.5c-3.5,0.1-7,0.7-10.5,0.6c-4.3-0.1-8.5-0.7-12.8-1.2c-2.5-0.3-5.1-1-7.5-0.8c-3.7,0.3-6.9,0.1-9.3-3.3
	c-0.7-1-2.8-1.1-4.3-1.4c-5.3-1-10.7-2.1-16.1-2.9c-8.6-1.2-16.2-5.3-24.2-8.3c-7.7-3-15.7-5.3-23.5-8.3c-4.8-1.8-9.5-4.3-14.2-6.5
	c-3.1-1.5-6.1-3.3-9.4-4.7c-3.2-1.3-6.6-2.1-9.9-3.3c-2.6-0.9-5.1-2-7.5-3.2c-4-1.9-7.7-4.6-11.9-5.9c-7.6-2.4-13.5-7.5-19.5-12.3
	c-8-6.5-17.6-9.9-26.5-14.8c-6.6-3.7-13.1-7.4-19.7-11.1c-2-1.1-4.1-2.2-6.1-3.3c-1.7-0.9-3.5-1.8-5-3c-2.3-1.7-4.4-3.5-7.1-4.7
	c-2-0.9-5.1-1.8-5.5-5.4c-0.1-1.3-2.6-2.9-4.3-3.4c-6.5-2-12.1-5.8-16.5-10.5c-3.8-4-8.3-7.4-11.6-11.8c-5.4-7.2-13.2-12-18.9-18.7
	c-6-7-13.5-12.1-20.5-17.9c-4.1-3.5-7.9-7.6-11.8-11.3c-4.5-4.3-9.5-8.2-13.6-12.8c-5.6-6.2-12.1-11.6-15.6-19.6
	c-1.9-4.3-5.5-7.9-8.2-11.9c-3-4.3-6.3-8.3-10.2-11.9c-2.8-2.6-4.9-5.9-6.9-9.2c-4.2-7.1-9.8-12.8-16.1-18c-3.8-3.1-6.1-7.9-9.1-12
	c-4.2-5.6-8.4-11.1-12.5-16.8c-1.2-1.7-2.7-3.7-2.9-5.7c-0.6-7.5-6-12.5-9.3-18.6c-2.7-5-5.2-9.9-6.4-15.5c-0.5-2.2-1.3-4.5-2.5-6.4
	c-2.1-3.5-4.8-6.6-6.8-10c-1.4-2.5-2.5-5.2-3.2-8c-0.9-4-1.2-8.1-2-12.1c-0.7-3.2-1.9-6.2-2.8-9.3c-0.9-3.1-1.6-6.3-2.6-9.5
	c-1.7-5.7-2.9-11.6-6.4-16.6c-1.8-2.6-3-5.7-4.4-8.6c-0.2-0.3-0.2-0.8-0.5-1.1c-6.6-7.1-5-17-8.6-25.1c-1.3-2.9-0.3-6.9-0.1-10.4
	c0.2-3.3,1-6.5,0.9-9.7c-0.1-3.8-0.7-7.7-1.2-11.5c-1.4-10.2-3.1-20.3-4.1-30.5c-0.5-4.8,0.5-9.7,0.5-14.5c0.1-3.7-0.3-7.3-0.4-11
	c0-2.7,0.1-5.4,0.4-8.1c0.7-6.7,1.6-13.5,2.4-20.2c0.9-7.9,2.3-15.8,2.5-23.7c0.4-12.3,3.7-24.1,5.7-36.1c0.6-3.8,0.7-7.6,1.2-11.5
	c0.9-6.9,1.7-13.9,2.9-20.8c0.8-4.9,2.1-9.8,3.4-14.7c0.7-2.7,1.7-5.4,2.7-8c2.1-5.3,5.1-10.5,6.3-16c1.6-7.1,5.4-12.8,9.1-18.8
	c5.7-9.5,11.1-19.1,16.7-28.6c4.8-8.2,10.1-16.1,14.4-24.6c3.2-6.2,6.2-12.3,10.2-18c6.3-8.8,11-18.8,20.1-25.4
	c3.3-6.1,9.2-10.2,12.3-16.6c2.6-5.3,7.1-9.6,12.6-12.4c1-0.5,2.8-0.8,3.6-0.3c1.6,1.1,1,2.7-0.1,4.1c-3,3.8-6.4,7.4-9.1,11.4
	c-2.5,3.6-4.4,7.7-6.6,11.6c-1,1.7-2,3.4-3.4,4.7c-8.4,7.7-15.5,16.3-21.3,26.1c-2.5,4.3-5.4,8.3-8.1,12.5c-0.4,0.7-0.9,1.3-1.2,2
	c-3,9.1-9.1,16.4-14.2,24.4c-1.5,2.3-2.6,4.7-4,7.1c-4.4,7.7-9,15.4-13.3,23.2c-4.1,7.4-8.9,14.7-11.8,22.6
	c-2.1,5.7-5.3,11.6-3.2,18.5c1,3.4-0.3,7.7-1,11.5c-1.5,7-3.4,13.9-5,20.9c-1.9,8.3-3.7,16.7-5.4,25
	C19.4,370.3,19.5,372.2,19.3,375.2z"/>
<path fill-rule="evenodd" clip-rule="evenodd" d="M203.3,508.2c3-2.2,5.1-4.3,9-3.2c2.4,0.7,5.4-0.4,8.1-0.6
	c1.1-0.1,2.3-0.2,3.5-0.1c9.1,0.4,18.3,0,27.2,1.5c8.9,1.5,17.5-0.7,26.2-0.5c8,0.2,15.9-0.9,23.9-0.9c9.9,0,19.8,0.5,29.7,0.7
	c4.8,0.1,9.7,0.1,14.5,0c1.3,0,2.6-0.5,4.5-0.9c-3.8-5-6.3-10-10-14.6c-8.1-10.1-14.9-21.3-22.2-32.1c-1.6-2.4-2.8-5-4.3-7.4
	c-3.5-5.9-4.8-12.9-9.3-18.6c-2.9-3.8-5-9-3.9-14.3c3.9-0.8,6.2,0.6,8.1,3.6c2.6,4.1,5.5,8,8.2,12c0.7,1,1.2,2.1,2.1,2.8
	c8.3,7.1,11.8,17.9,19.5,25.4c1,1,1.2,2.9,1.9,4.2c1.4,2.5,3.1,4.8,4.6,7.2c0.7,1.1,1.5,2.2,2.3,3.4c3.5,5.6,6.7,11.4,10.5,16.8
	c1.3,1.8,1.8,4.3,3.1,6.2c1.4,2.1,3.1,4,4.9,5.7c0.8,0.7,2.5,0.9,3.7,0.9c3.7-0.2,7.4-0.9,11-0.9c9.9,0.2,19.8,0.7,29.6,1.1
	c9.5,0.4,18.9,0.8,28.4,1.5c6.6,0.5,13.1,1.8,19.6,2.5c2.3,0.3,4.6,0.1,7,0.3c11.2,1,22.4,2.2,33.6,2.9c9.9,0.6,19.8,0.6,29.7,0.9
	c11.4,0.4,22.7,0.7,34.1,1.1c6.7,0.2,13.5-0.6,20.2,1.3c3.1,0.9,7.2,0.3,10.3-0.9c4.4-1.7,8.5-0.3,12.7-0.2
	c5.6,0.1,11.2,0.7,16.8,0.8c1.2,0,3-1,3.6-2.1c2.7-4.7,4.9-9.6,7.4-14.4c0.9-1.7,1.8-3.4,2.7-5.1c0.3-0.5,1-1,0.9-1.5
	c-1-6.2,4.6-9.9,5.9-15.3c1.3-5.4,3.9-10.5,6.1-15.6c1.9-4.4,3.9-8.7,6.2-14c-1.1-0.7-2.1-1.8-3.3-2.2c-5.6-1.9-10.3-5.7-16.4-6.6
	c-2.9-0.4-5.5-2.7-8.3-3.9c-6.1-2.5-12.4-4.8-18.5-7.3c-4.7-1.9-9.2-4-13.8-6.1c-5.5-2.5-10.9-4.9-16.3-7.5c-2.2-1.1-4-2.8-5.8-4.1
	c2.6-6.2,4.5-6.8,9.3-4.1c4.4,2.4,9,4.4,13.5,6.7c5.5,2.8,10.9,6,16.6,8.5c4.6,2,9.7,3,14.5,4.5c1.8,0.6,3.4,1.6,5.2,2.3
	c2.1,0.8,4.3,1.3,6.4,2.1c3.6,1.4,7.2,2.9,10.7,4.5c3.2,1.4,6.2,3.1,9.7,4.8c1.6-2.8,3.4-5.3,4.6-8c2.5-5.4,4.3-11.2,7-16.5
	c3.2-6.3,7.2-12.2,10.4-18.5c1.7-3.3,2.8-7,3.7-10.6c2-8.6,5.9-16.3,10.8-23.6c3.5-5.3,6.2-11.2,9.3-16.8c0.4-0.7,0.6-1.4,1.1-2
	c5.9-7.5,9-16.6,13.7-24.7c1.7-3,4.3-5.5,6.4-8.2c0.8-1,2-2.1,2.1-3.2c0.6-5,3.9-8.4,6.4-12.3c2.7-4.4,5.3-9,7.9-13.5
	c0.6-1,1.1-2.1,1.9-2.9c1.4-1.4,2.5-3.9,5.3-2.3c1.8,1,3.2,5,2.2,7.2c-1.4,3.2-3,6.3-4.7,9.4c-1.4,2.6-2.9,5.1-4.6,7.4
	c-5.7,8-10.4,16.5-14.9,25.2c-5.9,11.2-12.5,21.9-18.7,32.9c-2.4,4.3-4.4,8.8-6.2,13.5c-1.8,4.8-4.7,9.2-6.7,13.9
	c-2.6,6.2-5.5,12.3-8.6,18.3c-4.1,8.1-8.5,16.1-12.6,24.3c-2.1,4.3-3.7,8.9-5.6,13.5c4.5,4,9.9,5.8,15.6,7c0.8,0.2,1.7,0,2.3,0.5
	c8.5,6.4,19.7,6.6,28.6,11.9c2.4,1.4,4.7,3.1,7.8,5.1c5.6,0.1,11,3.7,16.8,6.1c6,2.4,12.3,4.2,18.1,7.2c5.5,2.9,11,5.8,16.6,8.8
	c-3.3,4.5-4,4.9-7.9,3.6c-8.2-2.9-16.7-5.2-24.5-9c-6.4-3.1-13-5.9-19.5-8.9c-3-1.4-6.1-2.2-9.2-3.4c-2-0.8-3.9-1.6-5.8-2.5
	c-1.2-0.6-2.4-1.3-3.6-1.8c-11.7-4.5-23.5-8.9-35.3-13.5c-1.8-0.7-3.4-1.7-4.8-2.4c-2.5,5.1-6.1,10-7.2,15.4
	c-1.2,5.8-3.9,10.8-5.9,16.2c-2,5.4-4.5,10.6-6.8,15.9c-2.3,5.3-4.5,10.7-6.9,16.5c1.6,0.4,2.8,1,4.1,1.1c9.3,0.5,18.5,0.9,27.8,1.5
	c6,0.4,11.9,1.1,17.9,1.5c5.1,0.3,10.3,0.5,15.4,0.3c6.2-0.2,12.2-1,18.5,0.1c5.3,1,10.9,0.2,16.4,0.3c5.3,0.1,10.8-0.4,16,0.5
	c5.3,0.9,11-0.1,15.8,2.9c7.1-2.5,14,3.1,21.1,0.5c0.5-0.2,1.2-0.2,1.7-0.1c6.2,2,12.6,1.4,18.9,1.7c3.7,0.2,6.2,1.3,8.4,4.3
	c0.9,1.3,2.8,2,4.6,3.1c-6.3,5.2-12.4,4.6-18.2,4c-8.5-0.8-16.9-2.5-25.4-3.6c-5.5-0.7-11-0.8-16.5-1.4c-6.6-0.7-13.1-1.8-19.7-2.5
	c-2.5-0.2-5,0.3-7.5,0.6c-1.9,0.2-3.9,0.8-5.8,0.7c-5.4-0.4-10.8-0.7-16.2-0.1c-3.2,0.3-6.5-1.1-9.8-1.3c-5.1-0.3-10.2-0.1-15.2-0.1
	c-1.4,0-2.8,0.3-4.1-0.1c-9.9-2.7-19.9-2.2-30.1-1.5c-6.7,0.5-13.5-0.5-20.8-0.9c-1.6,6-2.8,11.7-4.7,17.2
	c-2.6,7.4-3.4,15.5-8.5,22.1c-2.3,2.9-3,7.1-4.3,10.8c-1.7,4.9-3.4,5.2-7.6,2.5c-2.5-1.6-5.5-2.4-8.5-3.7c-0.7-2.4,0.8-4.2,1.9-6.2
	c1.7-2.8,3.1-5.8,4.5-8.8c1.6-3.5,3.1-7.1,4.6-10.6c0.8-2,1.5-4,2.2-6c2-5.4,4-10.8,6.1-16.5c-3.7-0.8-7.4-1.4-11.6-0.8
	c-8.8,1.3-17.7,2.5-26.5,2.2c-4.3-0.1-8.4,0.5-12.6,0.4c-4.8,0-9.6-0.6-14.4-0.2c-5.8,0.5-11.4-1.3-17.2-0.4
	c-3.6,0.6-7.6-1.4-11.3-1.3c-8.8,0.1-17.2-2.9-25.8-3c-12.2-0.2-23.8-4-36.2-3.5c-10.2,0.4-20.4-1.5-30.6-2.4
	c-0.6,0-1.2-0.3-1.7-0.1c-7.6,2-15.3,0.2-22.7-0.6c-9.9-1.1-19.8-0.8-29.7-1.1c-1.8-0.1-3.7,0.5-5.5,0.8c0.7,2.8,1.3,5,1.9,7.2
	c0.1,0.6,0.1,1.4,0.4,1.7c4.2,3.9,6,9.6,10.1,13.6c1,0.9,2.3,1.7,3,2.8c3.3,5.2,6.5,10.6,9.8,15.9c1,1.6,2.1,3.2,3.3,4.5
	c4.3,4.7,6.5,10.5,9.6,15.9c0.8,1.5,2.1,2.7,3.2,4c0.7,0.8,1.6,1.6,2,2.5c0.9,2.3,1.6,4.8,2.4,7.1c0.4,1.1,1,2.2,1,3.3
	c0,2.2,0.7,4.9-2.1,6.2c-1.9,0.9-5.6-0.8-6.7-3.6c-3.5-8.6-9.6-15.7-13.8-24c-1.2-2.3-2.8-4.5-4.4-6.6c-4-5.2-8.3-10.1-12.3-15.3
	c-2.1-2.8-3.7-5.9-5.6-8.8c-2.8-4.1-5.8-8.2-8.6-12.3c-1-1.4-1.8-3-2.8-4.4c-2.3-3.2-4.1-7-7.1-9.1c-2.3-1.7-6.3-2.1-9.3-1.7
	c-11.7,1.3-23.3,0.2-34.9-0.4c-5.6-0.3-11.2,0.6-16.8,0.9c-2.1,0.1-4.3,0.3-6.4,0.2c-4.1-0.2-8.1-0.2-12,1.2
	c-1.8,0.7-3.8,0.8-5.8,0.8c-10.3,0.1-20.7,0.6-31,0c-9.5-0.6-19.1-0.4-28.5-2.8C208.5,514.2,205.9,512.1,203.3,508.2z"/>
<path fill-rule="evenodd" clip-rule="evenodd" d="M877.4,563.8c5.9,1.1,9.6,5.3,13.9,8.9c1.6-1.1,3.2-2.1,4.7-3.2
	c5.8,3.2,6.9,5.9,4.8,11.6c-2.7,7.6-5.7,15.1-8.1,22.9c-1.2,3.9-1.4,8-2.2,12c-0.4,1.9-0.8,3.8-1.7,5.5
	c-5.1,10.2-10.3,20.5-15.5,30.6c-2.2,4.3-4.3,8.7-6.9,12.7c-3.8,5.9-8.8,11.1-11.8,17.3c-3.9,7.8-9.7,14.1-14.7,21
	c-6.5,8.8-13.6,17-20.3,25.6c-1.3,1.7-2.5,3.5-3.6,5.3c-4.5,8.3-10.3,15.5-17.7,21.4c-5.6,4.4-10.7,9.4-16.2,14
	c-2.2,1.9-4.8,3.2-7,5.1c-8,7-17.3,12.3-25.8,18.7c-5.5,4.2-10.3,9.3-15.5,14c-1.1,1-2.4,1.9-3.8,2.7c-6,3.2-12.1,6.3-18.1,9.4
	c-1.5,0.8-3.1,1.6-4.8,2.1c-4.8,1.4-9.2,4-12.1,7.8c-4.3,5.6-10.7,6.9-16.5,9.3c-6.6,2.7-13.5,4.8-20.2,7.4
	c-5.3,2-10.4,4.4-15.7,6.3c-9.2,3.4-18.4,6.8-27.8,9.7c-5.3,1.7-11,2.3-16.5,3.5c-5.9,1.2-11.7,2.5-17.6,3.7
	c-13.9,2.8-27.8,5.8-41.7,8.4c-4.8,0.9-9.7,0.7-14.6,1.1c-7.1,0.7-14.1,1.8-21.2,2c-5,0.1-10.2-0.4-15-1.8c-3.5-1-6.8-1.4-10.2-0.5
	c-2.7,0.7-5.3,0.9-7.9-0.5c-1.5-0.8-3.2-1.6-4.7,0.2c-0.3,0.3-1.1,0.2-1.6,0.1c-7.2-2.3-14.9-2.1-22.1-5.1c-5-2.1-10.8-2.7-16.1-4.1
	c-0.7-0.2-1.4-0.7-2.1-1c-7.2-3.3-14.1-7.3-22-8.9c-3-0.6-5.8-2.1-8.7-3.4c-4.4-2-9.5-1.9-13.6-4.8c-2.6-1.9-5.6-3.4-8.5-4.8
	c-7.3-3.5-14.8-6.7-22.1-10.4c-4-2-7.6-4.6-11.5-6.7c-2.6-1.4-5.3-2.5-8-3.5c-6.4-2.5-12-6.2-17.7-9.9
	c-11.5-7.5-22.3-15.7-32.8-24.5c-3.3-2.7-6.6-5.5-10.2-7.7c-9.5-5.9-17.3-13.9-25.7-21.2c-5.1-4.4-10.4-8.7-15.2-13.4
	c-7.8-7.6-15.5-15.3-22.9-23.2c-3.8-4.1-7.1-8.7-10.6-13.1c-8.3-10.4-16.7-20.9-25-31.3c-7.4-9.3-14.9-18.5-22-28
	c-4.6-6.2-8.9-12.6-12.7-19.3c-2.4-4.3-5.7-8.4-7.3-13.1c-1.8-5.1-4.8-9.3-7.6-13.8c-2.9-4.6-6.4-8.8-9.2-13.4
	c-4.4-7.1-8.3-14.5-12.5-21.7c-2.1-3.5-1.2-7.2-1.1-10.9c0-0.9,1.1-2.5,1.8-2.5c1.1-0.1,2.7,0.6,3.3,1.5c2.2,3.1,4.1,6.5,6.1,9.8
	c3.1,5.2,6,10.5,9.2,15.6c6.5,10.3,12.9,20.7,21,30c5.1,5.8,8.4,13.1,12.8,19.5c3.9,5.8,8.4,11.1,13.2,16.3
	c6.2,6.9,11.2,14.9,16.7,22.5c0.7,0.9,1.1,2.2,1.9,2.9c6.5,5.3,11.2,12.3,16.8,18.4c3.3,3.6,6,7.6,9.1,11.3c2.9,3.6,5.9,7.1,9,10.5
	c6.4,6.7,13,13.2,19.4,19.8c1.1,1.1,1.7,2.6,2.6,3.9c0.5,0.8,0.9,1.8,1.6,2.2c6.9,3.4,11,9.6,16,14.9c0.9,1,1.9,1.9,2.9,2.8
	c3,3,5.9,6.1,9,9.1c1.9,1.9,4.1,3.5,6.1,5.2c1.9,1.7,3.7,3.4,5.4,5.1c0.5,0.5,0.8,1.3,1.4,1.8c7.8,6.2,15.8,12.2,23.5,18.4
	c12.3,10,26.1,17.1,40.4,23.6c10.6,4.9,20.6,10.9,31.1,16.1c3.4,1.7,7.4,2.5,11,3.8c6.9,2.6,13.7,5.8,20.7,7.8
	c10.1,2.8,20.4,5,30.8,6.1c4.8,0.5,9.6,1.5,14.4,2.2c3.1,0.4,6.1,0.8,9.2,1c5.8,0.3,11.6,0.6,17.4,0.5c8.7-0.1,17.4-1,26-0.9
	c6.8,0.1,13.7-1.7,20.2-1c7.4,0.8,14.6-0.4,21.9,0c8.4,0.5,16.4-2.3,24.5-4.2c6.2-1.5,12.4-3.1,18.6-4.8c4.6-1.3,9.2-2.8,13.8-4.2
	c12.3-3.6,24.4-7.8,36.9-10.6c9.7-2.2,17.8-7.5,26.7-11.2c7.2-2.9,14.5-5.5,21.9-7.8c9.8-3,18.8-7.2,26.7-13.9
	c7.3-6.2,14.5-12.3,22-18.2c9.4-7.5,19.4-14.3,28.5-22.1c10.8-9.2,21-19.2,31.6-28.7c6.9-6.1,12.6-13.2,17.8-20.8
	c1.5-2.2,3.5-4.1,5.3-6.2c10.8-12.8,20.5-26.4,29.4-40.6c9.9-15.9,17.2-32.9,22.5-50.9c1.8-6.1,2.2-12,2.8-18.1
	c0.5-5.4,1.4-10.9,3.3-15.9c1.7-4.6,0.1-7.9-2.6-10.5C876.2,568.4,876.5,566.6,877.4,563.8z"/>
<path fill-rule="evenodd" clip-rule="evenodd" d="M787.5,411.1c2.5-1.1,5-2.4,7.6-3.4c2.5-1,6.1-5.6,6-8.5c-0.4-7.6,2.6-14,6.5-20.2
	c5.3-8.5,15.9-12.9,25.7-10.4c2.9,0.7,4.3,0.2,5.6-2.3c4.5-8.8,11.3-15.6,19.1-21.5c2.9-2.2,5.2-5.3,8.1-7.4
	c1.9-1.4,4.6-2.6,6.8-2.5c13.1,0.6,25,4,33.8,14.7c0.2,0.3,0.7,0.4,1.1,0.6c10.9-6.5,22.4-8.8,34.6-3.4c2.8,1.2,5.9,1.9,8.6,3.4
	c4.7,2.5,8.6,5.9,10.4,11.2c0.4,1.2,1.6,2.1,2.2,3.3c1.1,2,2.4,4.1,2.9,6.3c0.8,3.6,1.1,7.3,1.6,10.9c7.5,3.3,13.9,7.5,17.8,14.9
	c0.8,1.5,2.2,2.6,3.3,3.9c0.4,0.4,1.1,0.7,1.3,1.2c1.8,5.2,3.5,10.3,5.2,15.5c0.3,1.1,0.3,2.3,0.7,3.3c4.9,12.7,4.4,24.8-5,35.2
	c-3.5,3.9-4.7,7.7-4.3,12.6c0.8,11.1-2.5,21-9,30.1c-3.3,4.6-7.6,7.3-12.5,9.2c-4.1,1.6-6.5,4.1-7.9,8.2c-1.4,4.1-3.2,8.2-5.3,12
	c-1.6,2.9-4,5.4-6.6,8.7c-5.3-6.9-6.4-14.4-8.5-21.8c-1.6-0.4-3.5-0.9-5.7-1.6c-3.3,5.6-6.5,11.1-10.2,17.2
	c-5.1-6.1-11.4-7.7-19-7.9c-0.8,2.2-1.8,4.7-2.6,7.2c-1.1,3.3-2,6.7-3,10.1c-1,3.5-3.6,5.3-6.7,6.8c-6.6-5.6-8.3-13.6-11.6-20.3
	c-5.4,0-10.4,0-15.7,0c-0.9,2.5-2.2,4.7-2.5,7.1c-0.8,7.7-0.6,7.7-7.1,13.7c-1-1.2-2.4-2.3-2.9-3.7c-1.6-5-3-10.1-4.2-15.2
	c-0.5-2-0.5-4.2-0.4-6.2c0.4-7.6-3.6-13.4-8.4-18.5c-1.2-1.3-3.9-1.5-5.9-1.4c-2.7,0.1-5.4,0.9-8.1,1.4c-6.7,1.2-12.4,0.4-18.2-4.5
	c-7.7-6.5-14.1-14.2-21.5-20.9c-3.8-3.4-7.9-6.6-12.3-9.3c-3.6-2.2-6.1-4.5-7-8.7c-0.5-2.4-1.2-4.9-2.3-7.2c-1.8-4-0.3-7.7,0.7-11.4
	c0.7-2.8,2.4-5.3,3.5-8c0.5-1.3,0.7-2.8,1.2-5.6c-3.7,3.1-6.1,5.6-8.9,7.2c-2.1,1.2-4.8,1.4-7.2,1.6c-7.5,0.6-14.1-1.1-18.9-7.7
	c-2.1-2.8-2.6-5.6-1.1-8.7c2.8-6,5.4-12.2,12.7-14.3c7-7,14.8-4.3,21.7-0.6C772.7,409.1,779.7,411.5,787.5,411.1z M811.3,402.2
	c6.9-0.1,13.6-1.5,19.8,1.8c7.4-1.3,13.5,3.3,20.2,5c5.9,1.5,11.2,5,16.8,7.6c5.2,2.4,10,2.1,14.4-2c1.7-1.6,3.6-3,5.5-4.3
	c5-3.1,10.2-3.8,15.5-0.9c2.9,1.6,5.6,3.4,8.1,5.6c6.7,5.9,10.1,13.8,10.9,22.3c0.5,5.4-0.9,11.1-1.6,16.6c-0.1,0.9-0.7,2.1-1.4,2.4
	c-3,1.6-5.9,3.1-9.8,2.1c-5.7-1.4-9.8-4.8-12.3-9.6c-3.3-6.2-7.2-11.8-12.3-16.7c-3.7-3.6-4.3-4.1-9.9-2c1,4.2,2.3,8.5,3.1,12.9
	c3,16.3-6.9,32.9-17.8,40.8c-4.6,3.3-9.1,6.6-13.1,10.6c-2.3,2.3-2.3,3.3-0.2,5.9c2.6,3.1,5,6.5,7.9,9.3c2.6,2.5,5.7,5.5,8.9,6
	c5.4,1,11.1,1.3,16.5-1.5c5.6-3,11.4-5.7,17.2-8.3c1.6-0.7,3.4-0.8,5.2-1.3c0.9,7.5,4.8,10,11.4,8.3c0.9-0.3,2-0.4,2.8-0.9
	c1.1-0.6,2.7-1.4,2.9-2.3c0.4-1.7-0.8-2.8-2.7-3c-0.4-0.1-0.8-0.7-1.3-1c0.3-2.2,1.7-3.6,3.6-3.2c4.3,0.8,8.5,1.8,12.9,1.8
	c2.4,0,4.9,1.2,7.3,1c4.6-0.3,9.2-1.1,13.7-2c11.8-2.3,18.7-10.2,23.4-20.7c2.3-5.2-0.6-10.2,0.7-15.8c-2.2,0.1-3.7,0.4-5.2,0.2
	c-1.2-0.1-2.2-0.8-3.4-1.2c0.5-1.2,0.6-2.8,1.4-3.5c3.8-3.2,7.7-6.2,11.6-9.2c4.4-3.4,8.3-6.8,8.7-13.1c0.5-6.4-0.6-12.4-2.8-18.2
	c-1.8-4.7-4.4-9.1-7-13.4c-3.1-5.3-6.4-10.6-12.3-13.3c-1.7,0.8-3.2,1.5-4.7,2.2c-1-2-1.7-3.5-2.5-5c-2.5-0.1-4.6-0.8-6.4-1.9
	c-0.7-0.4-1.4-1.7-1.2-2.4c0.5-1.6,1.1-3.5,2.3-4.5c1.3-1.1,3.4-1.5,5.5-2.3c-1.9-3.9-3.4-8.3-6.1-11.7c-3.2-4-7.3-7.4-11.5-10.4
	c-4.9-3.5-11.1-2.6-16.7-3.4c-1.5-0.2-3.3-0.3-4.5,0.5c-4,2.5-9.4,1.9-12.8,5.9c-0.6,0.8-2.2,0.7-3.2,1.2c-2.3,1.2-4.5,1.2-6.5-0.5
	c-2.2-1.9-2.3-4.2-0.3-7c-4.9-2.6-9.1-5.7-13.8-7.1c-7.4-2.3-15-3.1-21.6,3.1c-5.2,4.9-11.4,8.9-16.1,14.2c-3,3.3-4.4,8.2-6.2,12.5
	c-0.9,2.2-1.8,4.2-4.5,5.1c-1-1.8-2-3.4-2.9-4.9c-6.8,0.5-13.6,0.2-18.6,5.6C812,388.8,809.6,394.9,811.3,402.2z M810.9,451.6
	c-0.2,0-0.4,0.1-0.7,0.1c0.4,3.2,0,7,1.5,9.6c3.5,6,6.9,12,13.2,16.1c11.6,7.7,23.7,2.9,32.6-3.7c6-4.4,8.3-10.9,10.8-17.5
	c3.9-10.3,0.7-19.5-3.9-28.5c-0.5-0.9-1.6-1.8-2.6-2.2c-14-5.3-27.7-8-39.9,4c-0.8,0.8-1.7,1.6-2.7,2.2c-6.2,3.8-7.8,9.8-8.4,16.4
	C810.8,449.3,810.9,450.5,810.9,451.6z M785.6,430.4c3.8,7.7,3.2,9.7-4.1,13.4c-2.2-2.4-4.5-4.8-7.1-7.6c-1.2,2.9-3,5.6-3.5,8.6
	c-1,5.5-0.5,10.8,4.3,14.9c8,6.9,17.1,8.3,27.6,6c-5.1-14.6-0.8-26.6,10.2-37.3c-6.1-4.3-11.1-10.3-18.9-8.3c-5.9,1.5-13,2.1-16,9.8
	C781,430.1,783.1,430.3,785.6,430.4z"/>
<path fill-rule="evenodd" clip-rule="evenodd" d="M553.7,127.6c0.8-0.2,1.5-0.5,2.3-0.6c7-0.8,9.4,1.4,10.6,8.4
	c1.6,8.6,0.9,16.9-1.1,25.4c-1.3,5.7-0.6,11.9-0.8,17.8c-0.1,2.3-0.1,4.6-0.8,6.7c-1,3-1.4,5.8-1.3,9c0.1,8.5-0.1,17.1-0.9,25.6
	c-0.3,3.2-3,6.2-4.3,9.4c-2.7,6.7-7.2,10.2-14.6,10.4c-6.2,0.2-12.4,1.1-19.4,1.8c-0.1,3.5-0.2,7.5-0.5,11.4
	c-0.5,7.7-0.1,15.4,0.2,23.2c0.2,4.6-0.3,9.3-0.5,13.9c-0.1,3.8-0.4,7.7-0.3,11.5c0.2,10,0.8,20.1,0.8,30.1c0,6.2-0.9,12.4-1,18.7
	c-0.1,3.5,0.3,7,0.7,10.4c0.8,5.9,1.4,12,2.8,17.8c2.6,10.6,6.1,20.8,12.2,30.1c4.4,6.8,8,14.1,12.4,20.9c2.6,4.1,5.9,7.7,8.9,11.6
	c0.2,0.3,0.5,0.7,0.9,0.8c3.1,0.4,5.2,2.7,5.8,5.2c0.8,3.1,0.7,6.6,0.1,9.8c-1,5.3-3.2,9.6-9.4,11.4c-4.1,1.2-7.7,4.4-11.4,6.9
	c-6.2,4.2-13.4,4.7-20.5,5.8c-10.7,1.5-21.3-0.2-31.9-0.6c-4.6-0.2-9.1-1.8-13.5-3.3c-3.9-1.2-7.5-3.3-11.4-4.6
	c-4.1-1.3-6.8-3.6-9.1-7.4c-3-5-2.7-9.2-0.7-14.6c3.8-10.2,11-18.2,15.6-27.7c2.9-6,4.8-12.6,6.9-19.1c1.3-4,1.8-8.3,2.8-12.5
	c0.2-0.9,0.7-1.8,1.2-2.5c2.7-3.6,5.5-6.7,5.4-12c-0.1-5,2.2-10,3-15.1c0.7-4.2,0.9-8.5,1.1-12.8c0.9-13.2,1.7-26.3,2.5-39.5
	c0-0.6,0.1-1.1,0.1-1.7c0.2-10.1,0.6-20.1,0.6-30.2c0-5.4-0.8-10.8-1.2-16.1c-0.5-5.6-1-11.2-1.5-16.8c0-0.2-0.2-0.4-0.2-0.6
	c0.5-3.3,1.4-6.6-2.4-8.7c-2.9-1.6-5.5-3.6-8.5-4.7c-5.3-1.9-10.7-3.3-16.1-4.9c-5.3-1.6-9.1-5.3-12.4-9.4c-1.3-1.5-1.9-3.9-2.1-5.9
	c-0.6-6.7,0.1-13.4,3.3-19.3c3.4-6.2,2.7-12.8,2.8-19.3c0.1-2.7,0.4-5.3,0.5-8c0.1-1.5,0.1-3.1-0.1-4.7c-1.1-8.1-2.1-16.1-0.2-24.2
	c0.3-1.1-0.3-2.3-0.2-3.4c0.2-3,2.3-4.7,5.3-4.7c3.8,0.1,7.7,0,11.8,0c1.9-6.2,3.1-12.5,1.8-19.2c-0.5-2.7,0.3-5.7,0.5-8.6
	c0-0.6,0.4-1.2,0.2-1.7c-1.4-4.8-2.7-9.6-4.3-14.3c-0.3-0.9-1.9-1.3-3.8-2.3c-0.1,8.9-1.4,16.8,2.9,24.2c1,1.7,1.1,4.1,1.2,6.2
	c0.1,2.5-0.2,5-0.3,7.5c0,2.8-0.8,3.4-4.2,3.3c-0.3-7.1-1.8-13.9-4.2-20.7c-1.7-4.7-2.5-9.4-2.2-14.7c0.3-4.8,1.1-9.4,1.9-14.1
	c0.2-1.3,0.9-2.5,1.3-3.7c3.4,0.1,5.7,1.6,7.9,3.7c4.7,4.5,6.4,10.2,8.2,16.1c2.5,7.9,3.4,16,2.3,24c-0.7,5-3.5,9.7-5.6,15.2
	c1.1,1.8,3,4.2,4.1,7c0.7,1.7,0.7,3.9,0.3,5.8c-1.2,6.5-2.9,12.9-3.8,19.4c-1.3,9-2.1,18.1-2.9,27.2c-0.2,2.6,0.6,5.4,1.2,8
	c0.3,1.3,1,2.8,2,3.4c6,3.9,12.5,6.6,19.5,8.9c1.8-5,2.3-9.5,1.6-14.2c-0.5-3.3-1.2-6.5,1.1-9.5c0.4-0.6,0.2-1.8,0.1-2.7
	c-0.3-2.1-0.8-4.2-0.9-6.2c-0.7-8.7-1.5-17.3-2.1-26c-0.2-3.3-0.2-6.7,0.3-9.9c0.2-1.5,1.5-3.2,2.8-4.1c4.1-2.8,8.4-5.3,13.7-5.6
	c0.8,0,1.5-0.4,2.5-0.6c6,2.3,4.7,8,4.5,12.3c-0.3,5.9-2.7,11.7-3.2,17.7c-0.4,4.9,0.5,10,0.9,15c0.2,3.1,0.9,6.2,0.8,9.3
	c-0.1,4.3-0.5,8.5,1.1,12.6c0.6,1.5,0.3,3.5,0.3,5.2c0.2,6.4,6.4,12.8,12.6,13c1.2,0,3.1-0.4,3.6-1.3c2.1-3.5,4.7-7,5.3-10.8
	c0.8-5.1-0.4-10.4-0.1-15.6c0.6-11.2-3.4-21.7-3.7-32.8c-0.2-6.3-1.4-12.6,0.3-19.2c3.5-1,6.1-5.2,10.8-3.7c0.3,0.1,1.2-1.8,1.9-2.8
	L553.7,127.6z M489.8,423.1c-0.6,0.7-1.5,1.3-1.6,2.1c-1.4,6.2-2.7,12.5-4.1,18.8c-0.6,2.4-1.4,4.8-2.1,7.2c-0.4,1.2-1,2.4-1.7,4
	c7.7,2.9,14.9,5.5,22.1,8.5c6.5,2.7,13.1,2.2,19.5,0.7c8.5-2.1,16.1-6.5,23.2-11.7c2.3-1.7,4.2-3.9,5.8-5.5
	c-6.7-9.5-13-18.5-19.2-27.5c-1.9-9.6-9.3-16.7-11.3-26.4c-1.5-7.5-5.3-14.4-5.7-22.4c-0.3-7.2-1.9-14.3-1.3-21.6
	c0.4-5.9,1.9-12,0.3-18c-1.5-5.6-1-11.2-0.2-16.7c0.8-5.8,1.2-11.5,0.5-17.4c-0.4-3.8,0.6-7.7,1-11.6c0.2-1.7,0.6-3.4,0.7-5.1
	c0.4-10.5,0.6-20.9,1.3-31.4c0.3-5,1.4-9.9,2.2-15.3c3.9-0.5,7.3-0.9,10.6-1.5c6-1,12.1-1.6,17.7-4c5.4-2.3,7.5-5.9,6.7-11.5
	c-0.2-1.3-0.1-2.6,0-4c0.2-4.7,0.5-9.3,0.6-14c0-0.8-0.5-1.6-0.7-2.5c-1.4,3.1-2,6.2-2.4,9.3c-0.8,6.7-5,11.6-8.8,16.7
	c-0.3,0.4-1,0.9-1.4,0.9c-5.7-0.5-11.5,0.6-17-2.8c-7.5-4.5-8.2-11.9-10.1-19c2.2-3.7-1.1-6.6-1.7-10.1c-1.2,2-2.1,4.1-2.4,6.2
	c-0.4,2.7-0.1,5.5-0.3,8.2c-0.7,7.9-6.8,15.7-16.9,10.7c-5.2-2.6-10.5-4.9-15.8-7.3c-0.7-0.3-1.3-0.9-1.9-1.4
	c-5.2-4.1-6.1-10.2-7.3-16.1c-0.4-2.1,0.7-4.6-1.2-6.5c-0.6,0.3-1.1,0.4-1.2,0.7c-3.1,7-3.5,14.5-4.1,21.9c-0.2,2.4,0.4,4.7,2.8,6
	c4,2.3,7.9,4.4,12.6,5.2c5.7,0.9,11.3,2.4,16.3,5.9c7.3,5.1,10.2,12.1,9.2,20.4c-0.7,5.4,0,10.6,1.1,15.5c2.7,12,1.9,24.2,2.4,36.3
	c0.4,8-0.5,16.1-0.9,24.1c-0.3,7.4-0.6,14.8-1,22.2c-0.3,5.2-0.5,10.4-1,15.5c-0.4,4.2-1.1,8.4-2,12.5c-2.2,9.2-4.8,18.4-7.1,27.6
	c-0.8,3.3-1.5,6.7-2.5,10.9c4-2.7,2.3-8.7,8.4-9c-0.6,2.1-0.9,3.7-1.4,5.3c-0.8,2.8-2.7,5.6-2.4,8.3c1,8.8-1.4,17.3-1.6,26
	c0,1-0.9,2-1.7,3.7c-1.5-1.3-3.2-2.1-3.4-3.2c-0.5-2.6-1.1-5.9,0-7.9C491.2,429.7,489.8,426.6,489.8,423.1z M547.7,141.7
	c1.3,10.2,2.5,19.9,3.8,29.7c2,0.4,3.6,0.8,5.8,1.2c0-2.6-0.3-4.7,0.1-6.8c0.4-2.2,1.4-4.4,2.1-6.5c0.1-0.3,0-0.8,0-1.2
	c-0.1-4.5-0.3-8.9-0.1-13.4c0.1-2.7-0.5-4.8-2.1-6.8C554,139.3,550.9,140.4,547.7,141.7z M469.1,170.9c0.6-0.1,1.3-0.3,1.9-0.4
	c0.5-2,1.5-4.1,1.3-6c-0.6-6.8,0.9-13.3,2.3-19.8c1.5-7,1.3-7.6-5.7-8.3c-0.5-0.1-1.1,0.2-2.3,0.5c0,10-0.1,20,0.1,30
	C466.8,168.3,468.3,169.6,469.1,170.9z M511.3,169.9c0.2-2.1,0.3-4.1,0.5-6.2c0.3-3.2,0.6-6.5,1.1-9.7c0.5-3,1.2-6,1.7-9
	c0.4-2-0.2-3.5-2.5-3.8c-2.2-0.3-3.7,1.3-3.8,4C508,153.4,508.5,161.7,511.3,169.9z M553.5,181.8c-1.2,2.8-1.4,4.5,1,6
	C556.6,185.5,556.6,183.8,553.5,181.8z"/>
<path fill-rule="evenodd" clip-rule="evenodd" d="M742,65.3c1.6-2.7,3.2-5.3,4.6-8c8.4-16.3,28.4-21.2,42.5-14.4
	c2.3,1.1,4.2,3.4,5.9,5.4c3.1,3.7,6.6,4.2,10.9,2.2c3.3-1.5,6.9-2.6,10.3-3.8c6.1-2,12.1-0.6,17.8,1.2c6.5,2.1,12.3,5.9,16.7,11.3
	c2.1,2.6,4.5,5.1,4.2,9.2c-0.2,2.6,1.6,5.6,3,8.1c0.6,1.1,2.4,1.9,3.8,2.1c5,0.6,8.6,3.3,12.7,6.3c12.2,9,15,21.6,15.3,35.4
	c0.1,5.1-1,10.1-3.7,14.6c-1.6,2.6-1.7,4.8-0.8,7.7c1.3,4.2,2.1,8.7,3,13.1c0.6,3.1,0.2,6-1.4,9c-2.3,4.1-3.9,8.5-5.8,12.8
	c-1.9,4.2-4.9,7.5-8.7,10.1c-3.1,2.2-5.4,4.9-7,8.4c-4.7,10.6-7.4,21.7-8.5,33.2c-0.2,2.3-0.5,4.8-1.5,6.8c-0.9,1.6-2.9,2.5-4.5,3.8
	c-3.1,0.1-4.3-1.7-5.1-4.4c-1.7-5.7-3.7-11.3-5.7-17.4c-1.2,0.4-3.2,0.5-3.5,1.3c-1.9,4.5-5.8,8.4-4.2,14.2c1.1,3.7,0.3,7.3-3.5,9.7
	c-5.2-1.3-7.4-4.8-7.4-10.1c0-1.7-0.6-3.4-1.2-5c-1-2.5-2.3-4.8-3.6-7.7c-1.7-0.2-3.8-0.4-5.8-0.7c-4.3,4.9-5.2,7.6-8.2,26.6
	c-4-0.4-4.1,4-6.8,5.8c-3.6-3.5-2.9-8.3-3.7-12.4c-1.3-6.9-3-13.6-7.2-19.4c-5.6,1.6-5.2,6.7-6.5,10.6c-1.2,3.7-1.8,7.6-2.5,11.4
	c-0.5,2.6-1.5,4.5-3.8,6.2c-3.6,2.6-3.4,3-7.7,0.3c1-5.3-1.6-9.7-3.6-14.3c-1.4-3.2-3.2-6.4-3.5-9.7c-0.4-4.5-2.7-7.3-6-9.3
	c-5.1-3.2-8.1-8.2-11.8-12.6c-1.2-1.5-2.3-2-3.9-1.5c-0.7,0.2-1.4,0.6-2.1,1c-7.7,4.6-16.3,4.2-23.6,0.8
	c-6.4-2.9-13.7-5.4-18.1-12.1c-2.1-3.2-5.9-5.7-9.4-7.4c-5.9-2.8-10.8-6-13.2-12.3c-0.6-1.5-1.8-2.8-3.2-5
	c-1.9,7.8-8.3,7.6-13.5,8.9c-1.4,0.3-3.5-0.5-4.8-1.4c-6.6-4.8-8.1-11.7-6.2-19.9c1.5-6.5,5.7-10.4,10.7-13.7
	c4.1-2.7,8.4-4.9,12.6-7.3c2.3-1.3,3.7-2.9,5.1-5.6c3.5-7.3,8.7-13.4,17.3-15.4c5.4-1.2,7.7-6.3,11.4-9.6c0.7-0.6,0.3-2.6,0-3.9
	c-1.3-6.6,0-13.3,2.9-18.5c3.2-5.8,8.4-11.1,15.1-14C724.5,62.2,732.7,62.9,742,65.3z M793.7,203.8c3.9-0.7,6.9-0.1,9.8,2
	c4,2.9,8.7,4.1,13.6,4.1c5.2-0.1,10.5-0.2,15.7-0.6c1.7-0.1,3.4-0.8,5-1.5c6.5-3.3,9.8-8.9,11.7-15.8c1.5-5.3,4.2-10.2,6.4-15.3
	c0.1-0.1,0.7,0,1.6,0c0.2,2.9,0.4,5.8,0.7,8.7c15.7-2.7,26.8-27.1,18.2-38.7c-3.3,0.3-5.6,4.5-9.7,2.3c0.2-0.8,0-1.9,0.5-2.2
	c5-3.2,6.6-9,10.3-13.2c2-2.2,3.5-4.8,4-8.2c1.3-10.1-2.2-18.9-7.5-26.9c-4.1-6.3-10.1-10.4-18.2-9.5c-1,3.3-1.9,6.3-5.5,6.4
	c0-5.9,0.2-11.4-0.1-17c-0.1-2.2-0.5-4.8-1.7-6.5c-7.8-11.3-20.2-19.1-35.8-12.9c-4.5,1.8-8.8,4.5-14,4.8c-3.5,0.2-4,0.2-3.9-3.4
	c0-0.9,0.1-1.8,0.2-2.4c-6.7-7.1-14.8-8.7-23.7-8.1c-7.3,0.6-11.6,5.5-15.7,10.8c-0.9,1.2-3.1,1.9-3.2,3c-0.5,5.1-4.5,8-6.7,12
	c-1.4,2.4-3.6,2.2-4.8-0.3c-0.5-1-0.5-2.1-0.7-2.8c-2.8,0-5.1,0-7.4,0c-1.5,0-3.3-0.8-4.5-0.2c-7,3-14.3,5.2-18.4,12.8
	c-2.6,4.9-2.4,8.9-0.4,13.7c7.2-0.9,14,0,21-2c6.6-1.9,14.1-1.6,20.3,2.5c4.5,3,8.9,2.6,13.9,2.2c6.1-0.6,11.9-3.1,18.6-0.5
	c6,2.4,11.8,4.5,15.7,9.8c3.6,4.9,6.4,10.2,7.6,16.2c1.2,5.8,0.9,11.6-2.7,16.7c-2.6,3.7-9.1,6.6-12.2,5c-6.2-3.2-9.9-7.6-9.5-15.4
	c0.3-5.3-1.3-10.8-4.5-15.4c-3.4-4.9-7.2-5.6-12.4-1.9c0.5,1.9,1.3,3.9,1.6,6c0.6,4,1.2,8,1.2,12.1c0.1,13.1-4.9,25.1-8.4,37.4
	c-2.5,8.9-5.8,16.9-13.4,23.1c5.3,8.2,12.1,14.2,21,17.9c2.9,1.2,5.9,1.6,9.1,0.2c3.4-1.5,7-2.3,10.5-3.3c1.6-0.5,3.3-0.8,5.2-1.3
	C792.2,207.1,792.9,205.5,793.7,203.8z M703.3,135.8c0.6,3.4,0.9,5.9,1.4,8.3c1.9,10.3,9.3,17.6,14.5,26c0.3,0.5,0.8,1,1.3,1.1
	c4.6,1.1,9.2,2.3,13.9,2.9c1.8,0.2,3.8-0.7,5.6-1.3c5.4-1.9,7.3-7.9,11.9-10.7c2-6.8,4.7-13.6,5.8-20.5c1.3-7.4,0.6-15.1-2.2-22.3
	c-1.1-2.8-2.3-6.2-4.5-7.9c-4.3-3.3-9.3-4.8-15.1-4.5c-9.4,0.5-16.3,4.5-20.6,12.8c-2,3.9-4,7.9-5.9,11.9
	C708.5,134.1,707.2,136,703.3,135.8z M704.2,119.8c-3.5-1.9-6.2-3.1-9.3-0.6c-0.8,0.7-2.2,0.9-3.3,0.8c-4.7-0.5-8,2.4-10.3,5.5
	c-9.3,12.6-11.2,25.7-4,39.7c3,5.9,8.2,10.1,15.2,10c5.6-0.1,11.2-1.2,17.5-2C695.7,156.3,692.2,139,704.2,119.8z"/>
<path fill-rule="evenodd" clip-rule="evenodd" d="M413.1,646.7c-4.1,4-7,7.3-10.5,10c-3.8,2.9-7.9,5.7-13.4,4.4
	c-7.6-1.8-12.5-8.2-10.7-15.9c2.1-8.5,5.2-16.1,14.2-20.6c6.7-3.4,12.2-4,18.5-0.7c6.8,3.6,13.9,3.8,21.3,2.9c6-0.7,12-0.6,18.3-0.9
	c-1.6-12.2,4.2-21.2,12.4-29c1.3-1.2,3.5-1.9,5.3-1.9c5.2,0.1,10.3,0.6,16.7,1.1c1.1-1.6,2.6-4.4,4.7-6.8c2.6-3,5.6-5.7,8.6-8.5
	c0.7-0.6,1.8-0.9,2.4-1.5c6.6-7.4,14.5-10.6,24.5-8.2c4.2,1,8.2,2.4,12.1,4.1c4.2,1.8,7.9,4,11.3,7c4.8,4.2,5.3,4.5,10.3,0.1
	c7.5-6.6,16.2-8.1,25.2-6c10.3,2.4,20.1,6.1,27.1,15.5c5.3,7.1,8.5,14.2,8.7,22.9c0,1.6,1.6,3.3,2.7,4.8c4.4,5.6,9.3,10.9,12.3,17.5
	c2.8,6.1,4.7,12.4,5.2,19c0.6,8.3-2,15.8-6.8,22.5c-1.7,2.3-2.4,4.4-2,7.5c0.5,4.1-0.4,8.4-0.5,12.6c-0.2,6.9-4.1,12.1-8.4,16.9
	c-2.2,2.5-4.6,5-7.4,6.7c-7.3,4.5-10.6,11.6-13.8,18.9c-2.5,5.9-4.8,11.9-7.2,17.8c-0.6,1.4-1.4,2.6-2.5,4.8
	c-5.8-6-5.8-13.7-8.5-20.2c-0.5,0.1-1.1,0.4-1.6,0.5c-7,1.1-11.1,4.9-11.6,12.3c-0.1,1.7-0.9,3.3-1.4,5.2c-2.4-0.5-4.4-0.9-6.9-1.4
	c-0.7-3.1-1.4-6.3-2-9.5c-0.8-4-2.9-6.4-7.1-7.5c-3.9-1-7.6-2.9-11.8-4.7c-2,5.9-4,11.9-6.1,17.9c-0.3,0.9-0.7,1.8-1,2.8
	c-0.6,2.4-2,4.2-4.5,3.5c-1.6-0.5-3.3-2.1-4-3.6c-2.1-4.7-3.7-9.6-5.7-15c-3.6,0.8-7.3,1.3-10.6,2.6c-4.1,1.6-6.6,4.7-6.2,9.5
	c0.2,2.8,0.1,5.6-3.3,6.7c-1.7,0.6-3.2,0.7-4-1.1c-1.2-2.6-2.8-5.3-3-8c-0.4-5.5-2.6-9.9-6.9-13c-4.4-3.2-6.2-8-8.4-12.5
	c-2.2-4.5-3.4-9.5-5.2-14.9c-2.7,0-5.4,0.3-8.1-0.1c-3-0.5-6.4-0.8-8.8-2.5c-6.4-4.4-13.5-7.8-18.9-13.6
	c-5.9-6.5-12.5-12.2-18.1-18.9c-4.8-5.8-7.9-12.6-6-20.7C412.9,654.2,412.8,651.1,413.1,646.7z M548.7,598c-0.8-3.2-0.6-6.6-2.1-7.8
	c-3.9-3-8.4-5.8-13-7.4c-6.4-2.2-13-2.9-20-0.5c-5,1.8-9.5,3.7-13.2,7.5c-4.4,4.7-8.9,9.3-11.6,15.3c-1.4,3.1-2.1,3-5.3,1.1
	c-2.2-1.2-4.5-2.2-6.4-3.1c-4.5,1.9-9.3,2.4-12.2,6.7c-2.6,3.9-5.3,7.7-3,12.4c4.3,0.5,8.2,0.8,12,1.5c9.7,1.9,19.5,3.7,28.4,8.5
	c4.4,2.4,9.4,3.2,14.5,2.5c3.7-0.5,7.4-0.9,11-1.5c3.9-0.6,7.3,0.3,10.4,2.8c3,2.4,6.3,4.6,9.6,6.7c6.7,4.2,9.9,10.8,12.3,17.7
	c0.9,2.6,0.6,5.9-0.2,9.1c-1.2,5.3-5.1,8.3-8.5,11.5c-2.7,2.5-6.5,4-10.8,3.5c-3.5-0.4-3.9-3.2-5.7-5c-3.5-3.6-3.8-5.5-2.4-10
	c1.5-4.8,2.7-9.7,3.4-14.6c0.2-1.5-1.1-3.7-2.4-5c-4-3.9-8.6-4.1-13.8-1.4c4.3,12.8,0.2,24.7-4.2,36.4c-3.7,9.8-12.6,14.6-21.4,18.6
	c-5,2.3-8.9,5.8-13.4,8.7c1.2,2.2,2.9,3.9,3,5.6c0.2,5,2.8,9.1,5.6,12.5c4.2,5.2,10.2,8.6,17.4,7.5c4.6-0.7,9.1-1.7,13.6-2.7
	c1.1-0.2,2.7-0.7,3-1.5c1.5-3.7,4.8-4.9,7.6-7c2.8-2.1,5.1-2.3,7.2-0.8c5.2,3.7,11.4,4.8,16.9,7.5c7.6,3.6,15.3,3.5,23.2,1.9
	c2-0.4,4.3-1.6,5.3-3.1c1.5-2.4,2.3-5.3,2.7-8.2c0.3-2.1,1.3-3.1,3-3.8c1.2-0.5,2.5-0.9,3.1-1.1c3.5-3.1,0.5-8.4,5.7-10.8
	c0.5,2,1.2,3.5,1.4,5.1c0.2,1.9,0.1,3.8,0.1,5.7c13.6,0.5,26.2-17.6,22.6-26.9c-6,2.9-12,5.9-18.3,8.9c-0.9-1.7-1.5-2.9-2-4
	c4.6-4.3,8.2-8.9,13.9-11.2c7.8-3.1,11.8-10.1,15.1-17.2c2.9-6.3,2.5-13-0.5-19.8c-4.2-9.4-9.3-17.9-18.6-23.2c-1.6-1-3.3-3-3.7-4.8
	c-0.5-2.6,1.7-4,4-4.9c0.5-0.2,0.9-0.6,1.8-1.1c-2.5-12-8.7-21.5-20.5-25.4c-15.3-5.2-29.8-3.4-41.5,9.5
	C550.6,598.5,549.5,598.2,548.7,598z M459.7,664.7c0.7,2.3,2,6,3,9.9c0.7,3,2.3,5.2,4.5,7.3c4.8,4.7,10.5,7.6,17.1,7.4
	c4.8-0.1,9.9-0.4,14.2-2.3c11.9-5.4,17-18.8,13.6-32.7c-1.3-5.3-4.2-9-9.3-10.9c-7.4-2.9-14.9-4.9-23-5.9
	c-6.6-0.8-10.9,1.5-14.6,6.1C460.6,649.3,460.1,656,459.7,664.7z M461.5,637.5c-2.8-0.7-4.3-0.9-5.7-1.4c-3.9-1.5-7.9-2.3-12-1.3
	c-8.5,2.1-15.7,6.4-19.8,14.3c-1.9,3.6-2.2,8.2-2.9,12.3c-0.5,3.1,2,4.9,3.7,6.9c0.6,0.7,1,1.7,1.6,2.5c1.7,2.1,3.3,4.2,5.1,6.1
	c5.1,5.5,12.2,3.5,18.4,4.6c2.5,0.4,3.1-1.7,2.8-4c-0.8-4.8-1.7-9.6-2.1-14.4c-0.8-8.3,0.6-15.8,8-21.2
	C459.6,641.1,460.3,639.4,461.5,637.5z"/>
<path fill-rule="evenodd" clip-rule="evenodd" d="M263.8,384.1c0.6,1.4,1.1,2.8,1.8,4.2c0.4,0.8,1.7,1.6,1.6,2.3
	c-0.6,6.4,5.2,11,5,17.3c-0.2,5,0.3,10.1-0.3,15c-0.3,2.7-1.8,5.7-3.7,7.8c-4.9,5.4-8.3,11.6-11.6,18c-1.9,3.7-4.9,7-7.9,9.9
	c-5.7,5.4-11.8,10.4-20.1,11c-5.2,0.4-10.5,0.3-15.7,0c-2.3-0.1-3.8,0.2-5.6,1.9c-3.8,3.5-6.5,7.9-10.8,11.2c-3.9,3-6,8.8-5.8,14.5
	c0,0.8,0,1.6,0.1,2.3c1.1,6.1-2.3,10.1-6.5,13.9c-6.4-4-3.1-12.5-8.6-17c-0.7,0.4-1.8,0.6-2.2,1.3c-3.5,5.4-6.9,10.9-7.4,17.5
	c-0.5,6-0.5,6.3-6.4,11.7c-3.4-6.1-6.7-12.1-10-18.2c-9.9-1.9-20.2-3.1-26.7-13.2c0.4,6.8-6.1,9.3-8.1,14.8c-5-3.7-5.1-10-9-14.6
	c-1.8,2.2-2.9,4.7-3.2,7.6c-0.5,4.2-0.9,8.5-1.2,12.7c-0.3,4-2.8,6-6.5,7.7c-3.2-8.8-8.8-16.2-10-25.3c-0.9-6.1-4.3-10.2-9.7-12.1
	c-4.6-1.6-7.4-5-9.8-8.5c-4.7-6.8-7.4-14.6-8.5-22.8c-0.4-2.8,0.3-5.7,0.4-8.7c-3.7-1.4-7.6-2.7-11.2-4.4c-1.6-0.8-2.6-2.6-3.9-3.9
	c-3.3-3.2-4.3-7.5-5.7-11.7c-0.3-0.9-1-2.1-0.7-2.8c3.2-7,0.7-15.2,4.9-22.2c3.7-6.2,7.6-12,13.8-16c3.7-2.3,7.4-4.8,11.3-7.3
	c-0.6-1.8-1.4-3.4-1.8-5.1c-0.8-3.3-1.3-6.5,1.1-9.5c0.7-0.8,1.1-2.1,1.2-3.2c1-9.4,7.7-15,14.2-20.5c2.1-1.8,4.4-3.2,6.7-4.7
	c1.1-0.7,2.5-1.9,3.6-1.7c2.9,0.5,5.2-0.7,7.7-1.5c6.3-2.2,12.1-0.2,17.9,1.8c4.9,1.7,9.8,3.6,15,5.5c0.7-1.5,1.4-2.5,1.5-3.5
	c0.2-4.2,2.2-6.9,6.1-8.4c3.9-1.6,7.8-3.5,11.7-5.2c6.7-2.9,13.5-3.5,20.4-0.4c2.1,0.9,4.5,1.3,6.6,2.2c4.8,2.2,7.5,5.8,8.3,11.1
	c0.5,3.3,1.5,6.6,2.2,9.6c5.6-1.8,10.4-3.5,15.3-5c4.2-1.2,11,1.8,13.9,5.8c1.6,2.2,3.5,4.2,4.9,6.5c1.4,2.3,2.9,4.7,3.5,7.3
	c1,4.7,1.4,9.5,2.1,14.3c0.1,0.7,0.5,1.4,0.7,2.3c3.5-0.7,7-1.2,10.3-2.2c3.1-0.9,6.2-1,9.1,0.3c5.6,2.5,9.2-0.5,12.7-4.1
	c2-2.1,3.9-4.4,6.1-6.3c4.1-3.7,8.1-4.1,12.8-1.3c6.3,3.8,11.2,8.8,13.8,15.8c2,5.6-0.4,9.3-6.5,9.1c-3.6-0.1-7.3-0.9-10.7-2.2
	C270.6,382.4,270.7,382.1,263.8,384.1z M189.5,346.8c0.1,3,0.1,5.6-3.2,5.8c-2.6,0.1-3.6-1.7-4.3-4c-1.3-3.8-2.6-7.7-4.6-11.3
	c-1.1-2-3.3-4-5.4-4.9c-3.2-1.2-6.8-1.5-10.2-2c-6.8-0.9-13.1,1.6-19.3,3.8c-3.1,1.1-5.4,4.1-8.1,6.2c0.3,1.6,0.6,3,1,4.8
	c-2.3,0-4.6,0.7-6.1-0.1c-5.9-3.2-12-4.3-18.6-4.9c-3.8-0.3-7.1-0.2-10.5,0.7c-7.3,2-13.5,5.8-19.1,10.8
	c-7.6,6.9-10.8,15.8-11.4,26.1c3.6,1.2,7.8,1.9,8.9,6.9c-0.8,0.5-1.9,1.8-2.6,1.6c-5.9-1.2-10.2,2.4-14.6,4.9
	c-5.5,3.1-9.5,7.8-12.2,13.5c-3.9,8.1-4.4,16.5-1.9,25c1.6,5.6,5.9,9.2,10.5,11.7c2.9-1.1,2.7-6.3,7-3.5c0,3-0.1,6.1,0,9.1
	c0.1,2.9,0,5.9,0.7,8.6c0.8,3.1,2.5,6.1,3.5,9.2c2.7,8.2,7.4,14.4,16.3,16.4c0.8,0.2,1.6,0.3,2.2,0.7c4.7,2.5,9.4,3.3,14.2,0.1
	c0.9-0.6,2.6-0.3,3.9-0.2c2.1,0.2,4.2,0.6,6.3,0.9c2.1,0.3,3.5-0.1,4.5-2.5c1.3-3.1,2.3-3.3,4.6-1.1c2.6,2.6,4.9,5.5,7,8.5
	c5.8,8.5,18.5,15.1,30.1,9.8c8.4-3.8,15.3-9.7,22.8-14.4c-1.6-6.5-0.5-8.2,5.7-8.8c1.9-0.2,3.9-0.3,5.8-0.6c5-0.9,5.2-1.1,7.9-6
	c-5.5-1.7-10.1-4.8-13.7-9.3c-0.8-1-1.9-2-3.1-2.4c-9.8-3.3-16.3-9.9-21.2-18.9c-6.2-11.4-7.5-22.9-2-35.8
	c-4.1,1.7-7.6,2.8-10.6,4.7c-2.8,1.8-4.4,4.8-5.3,8.2c-2.3,8.6-6.1,16.3-14.7,20.5c-5.5-2.1-9.2-5.9-10.1-11.6
	c-0.6-3.9-1-8.4,0.2-12c1.3-4,2.1-8.9,6.1-11.5c8.1-5.3,16.5-9.7,26.8-6.4c1.5,0.5,3.1,0.8,4.6,0.8c5.3-0.1,10.9,1,15.2-3.5
	c3.4-3.6,7.7-5.6,12.5-7.1c3.3-1,6.6-2.5,9.3-4.6c4.2-3.2,9.1-4.3,14-5.3c3.4-0.7,6.9-0.8,10.5-1.2c0.2-1.5,0.5-2.6,0.4-3.7
	c-0.3-4.3-2.1-8-4-11.7c-2.9-5.9-12-10.7-18.4-8.6C193.9,349.3,191.9,349,189.5,346.8z M165.1,420c0.2,0,0.4,0.1,0.7,0.1
	c0,1-0.1,2,0,2.9c0.3,4.1,0.1,8.3,4.3,10.9c0.6,0.4,0.6,1.4,1.1,2c6,7.3,12.6,12.7,23,12.3c13.3-0.6,24.1-8.3,28.3-20.9
	c1.8-5.3,1.8-10.7,2.2-16.2c0.2-2.6,1.7-5.2-1.2-7.6c-2.2-1.8-3.6-4.8-5.9-6.2c-5.5-3-11.2-5.4-17.8-4.8c-4.7,0.5-9.5,0-14,1
	c-8.7,1.8-16.5,5.3-19.1,15C165.8,412.4,165.6,416.3,165.1,420z M230.2,432.5c8.3,3.3,15.8,1.7,23.3-0.3c0.9-0.2,1.9-0.8,2.5-1.4
	c4.7-5.4,10-10.5,9-18.7c-0.5-4.4-0.7-8.8-1.4-13.2c-1.6-9.8-8.1-14.5-17.4-16.1c-8.5-1.5-14.5,2.3-19.3,8.8
	c4.3,5.9,5.4,8.1,5.6,15.2C232.9,415.2,232.6,423.7,230.2,432.5z"/>
<path fill-rule="evenodd" clip-rule="evenodd" d="M388.7,161.5c-11.1-3.4-18.2-10.6-26.2-16.7c0,3.6,0.3,6.8-0.1,10.1
	c-0.3,3.2-1.3,6.3-2,9.5c-0.1,0.6-0.7,1-0.7,1.6c-0.6,9.5-7.4,14.4-14.2,19.4c-3,2.2-5.9,4.6-8.2,7.5c-4.3,5.4-10,7.9-16.4,9.1
	c-8,1.5-16,0.3-23.8-1.3c-2.8-0.6-5.5-3-7.6-5.1c-4.3-4.4-4-4.4-8.3-0.5c-1.8,1.6-4.2,2.9-6.6,3.6c-2.7,0.7-4.2,1.9-5.7,4.3
	c-4.4,7.1-9.1,14-14,20.8c-1.6,2.2-4.3,3.6-6.4,5.4c-2.1-5-4-9.8-5.9-14.5c-7.1-1.4-10.7,3-13.5,7.6c-2.5,4-6.5,4.8-10.4,8.1
	c-0.7-4-1.2-6.9-1.7-9.9c-0.4-2.7-0.5-5.4-1.3-8c-0.6-1.9-1.9-3.7-3.3-5.2c-2.6-2.8-5.5-5.3-8.2-8c-1.7-1.7-3.9-1.8-4.1,0
	c-0.4,2.6-2.2,3.2-3.8,4.5c-1.5,1.2-2.9,2.8-3.6,4.5c-1.3,3.1-3.7,4.9-6.5,6.3c-2.7,1.3-3.9,1-4.6-1.9c-0.9-3.6-1.3-7.4-1.9-11.2
	c-5.5-1.1-9.2,1.4-12.4,6c-1-1.3-2.2-2.2-2.4-3.3c-1.6-7.9-5.1-14.9-8.7-22c-2.9-5.8-3.8-12.6-5.3-19c-1.1-5.1-2-10.1,0.5-15.3
	c1.2-2.5,0-5.3-2.4-6.6c-4.9-2.7-8-7-9.7-11.7c-1.9-5.4-3.1-11.4-1.4-17.3c0.9-3.1,2.2-6.2,3.5-9.2c0.9-2.1,1.8-4.5,3.4-5.9
	c6.6-5.8,11.6-13.6,20.9-16c3.3-0.9,5.8-2.9,6.7-7.2c0.9-4.7,4-8.6,7.9-12c5.3-4.6,10.7-8.6,17.7-9.5c3.9-0.5,8.1-2.1,11.6,1.5
	c0.1,0.1,0.3,0.3,0.5,0.3c9.6,0.2,15.2,7,21.6,12.6c0.4,0.4,1,0.6,1.6,1c6.2-8.5,15.6-9.3,24.7-10.8c8.3,3.2,18.1,3.6,23.2,12.7
	c0.5,0.8,1.5,1.3,2.1,2c2.5,2.9,5,5.7,5.1,10.1c0.1,4,1.2,4.5,5.3,4c1.7-0.2,3.4-0.8,5.2-0.9c10.2-0.5,17.9,4.4,24.5,11.5
	c3.1,3.3,4.9,7.4,3.7,12.3c-0.5,2-0.4,4.2-0.6,7.2c1.7,0.6,3.8,1.6,5.9,1.8c3.5,0.4,6.6-0.3,9.8,3c2.7,2.7,7.9,2.7,12,4
	c4.2,1.3,7.9,1.3,12-1.5c5.3-3.6,6.4-2.9,10.8,2c3.6,4.1,7.6,7.9,10.2,12.5c2.6,4.6,3.9,10,5.5,15.1c0.2,0.7-0.7,2.5-1.5,2.8
	C388.6,156.6,388.2,158.4,388.7,161.5z M279.5,187.3c-0.5-0.8-1.5-1.7-1.5-2.4c0.3-4.3-1.7-7.3-5-9.8c-1.3-1-2.1-2.8-2.9-4.3
	c-2.1-4.2-2.3-8.7-2.8-13.3c-0.6-5.7-0.7-11,1.1-16.3c1.3-3.7,3.1-7.3,4.7-10.9c-3.6,0.2-6.7,1.8-8.8,4c-3.9,4-7.5,8.3-11.9,11.7
	c-7.6,5.9-8.3,5.5-14-2.1c-5.6-7.6-2.5-22,5.6-26.7c7.6-4.4,15.3-5.1,23.4-1.7c7.7,3.2,15.6,3.4,23.7,1.9c1.7-0.3,3.3-1.1,4.9-1.4
	c6.9-1.2,13.9-2.2,20.5-3.2c2.1-5.6-1.1-8.7-3.5-12.7c-1.9-3.2-4.6-3.7-7-5.4c-2.9-2.1-6-2-8.9-1.2c-3.5,1.1-6.9,0.8-10.3,0.5
	c-4.3-0.4-4.8-1.1-6.1-5.4c-2.1-7-4.1-14.1-11.6-17.8c-9.6-4.7-19.2-7.4-28.8,0c-1.2,0.9-2.3,1.9-3.4,2.9c-2.4,2.4-5.6,2.9-8.4,0.9
	c-1.3-0.9-2.6-1.9-3.5-3.1c-3.1-4.2-7.5-6.7-12-9c-4.6-2.3-9.9-3.2-14.8-2c-9.3,2.3-16,8.7-22.3,15.8c1.4,1.8,2.6,3.5,4.2,5.7
	c-4.4,2.2-8.3,4.6-12.4,5.9c-5.7,1.8-8.8,6.8-13.3,10c-2.3,1.6-3.4,5.1-4.9,7.8c-5,8.7-6.2,19.1,1.1,27.7c3.7,4.3,3.4,4.5,8.6,1.9
	c0.3-0.1,0.7,0.2,1.8,0.4c-0.2,2.1-0.2,4.3-0.6,6.5c-1.4,8.8-2.8,17.7,0.8,26.3c2,4.8,3.8,9.9,6.9,14c5.4,7,13.5,9.7,22.2,10
	c3.2,0.1,6.7,0.8,9.7-2.2c-0.2-1.3-0.4-2.8-0.6-4.3c-0.8-4.3-0.8-4.4,4-5c4.8,13.3,15,21.3,27.9,24c9.9,2.1,20.6,0.7,27.1-8.4
	c0-3.1-0.9-6,0.2-7.8c1.5-2.4,4.2-0.2,6.4,0.2c1,0.2,1.9,0.6,2.8,0.8C271.9,190.7,275.8,190.9,279.5,187.3z M299,123.5
	c-1.3,3-3.2,3.9-6.8,2.7c-2.5-0.8-5.6-0.1-7.5,2.9c-0.9,1.5-2.7,2.7-4.4,3.5c-3.1,1.6-4.6,4-4.9,7.4c-0.7,8,0.5,15.8,2.3,23.5
	c0.6,2.4,2.4,5.6,4.5,6.4c7.1,3,14.6,4.3,21.9,0.4c7.3-3.9,14-8.8,18-16.1c2.9-5.3,4.9-11.5,1.7-17.3c-2.5-4.7-5.8-9.3-11.7-10.5
	C308,125.5,304,124.6,299,123.5z M314.2,174.7c3.4,1.2,6.5,2.3,9.6,3.5c6.3,2.3,12.7,3.8,18.6-0.9c5-4,10.2-7.9,12.1-14.4
	c2.1-6.9-0.7-13.7,0.2-20.3c-2.5-1.1-4.2-1.9-6.1-2.7c0.3-3.3,0.2-6.5-3.2-8c-3.2-1.4-6.5-2.7-9.9-3.4c-2.1-0.4-4.3,0.3-7,0.6
	C335,148.2,326.4,162,314.2,174.7z"/>
<path fill-rule="evenodd" clip-rule="evenodd" d="M477.7,338.7c1,1.4,1.8,2.5,2.5,3.7c2.8,4.5,1.2,8.9-4.1,9
	c-6.3,0.1-11.2,3.9-17.6,5c5.7,6.2,13.8,6.3,20.4,9.5c-4.9,6.2-6.9,6.4-13.1,3.9c-4.3-1.7-8.1-4.8-13.1-4.6c-0.7,0-1.6-0.4-2.2-0.8
	c-5.4-3.9-10.9-2.1-16.1-0.2c-9.6,3.6-19.1,7.6-28.7,11.4c-0.9,0.4-1.8,0.8-2.7,1.1c-8.1,2.6-16.6,4.4-24.3,8
	c-8.2,3.9-17.2,4.5-25.6,7.8c-12.4,4.9-25.2,8.9-38,12.9c-4.5,1.4-9,3.5-14.1,2.3c-1.7-0.4-3-0.6-3.5-2.5c-0.5-1.9,0.5-3,1.9-4.4
	c4.2-4.3,10-4.9,15.2-6.8c8.2-3.1,16.4-6.1,24.9-8.5c6.7-1.9,13.2-4.3,20.2-5.5c8.2-1.3,16.2-4.3,23.9-7.4
	c13.8-5.7,28.1-10,42.1-15.4c0.9-0.3,1.7-0.9,2.1-1.1c-8.1-4-16.2-8-24.3-12c-5.2-2.6-10.5-5-15.7-7.8c-4.2-2.3-8.3-5-12.4-7.5
	c-0.8-0.5-1.6-1.2-2.5-1.5c-10.4-3.2-19.4-9.6-29.4-13.9c-6.2-2.7-11.8-6.9-17.9-9.8c-14.4-6.7-28.1-15-43.4-20
	c-6.6-2.1-12.6-6-18.9-9c-5.8-2.7-11.6-5.3-17.4-8c-5.2-2.5-10.5-4.9-15.6-7.7c-2.6-1.4-6.2-1-7.7-4.5c-0.2-0.5-2.6-0.1-5.5-0.1
	c3.8,5,6.8,8.7,9.4,12.7c6.2,9.4,12.5,18.7,18.2,28.3c1.7,2.8,4.1,5.3,5.3,8c4.2,8.8,10.9,16.5,13,26.3c0.5,2.5-0.5,5.4-0.8,8.5
	c-3.4-2.3-6.1-4.1-8.7-6c-0.5-0.3-0.9-0.8-1.1-1.4c-1.1-4.1-4.6-6.3-7.1-9.4c-4.7-5.9-8.9-12.2-13.4-18.3
	c-4.3-5.7-8.9-11.2-13.2-16.9c-1.7-2.3-3.5-4.7-4.4-7.4c-2.3-7.2-8.9-11.6-11.2-19c-1.4-4.6-5.4-8.5-8.2-12.7
	c-1.8-2.7-3.7-5.4-5.4-7.9c4.4-6.4,12.1-8.5,18.7-4.7c11.5,6.5,23.9,10.8,36.1,15.7c1.3,0.5,2.6,1,3.8,1.6
	c9.4,4.6,18.9,9.1,28.2,13.9c4.1,2.1,7.9,4.7,11.9,6.9c6.4,3.5,12.9,6.9,19.3,10.4c5.8,3.1,11.5,6.4,17.4,9.4
	c9.2,4.6,18.7,8.6,27.6,13.7c8.2,4.8,17.1,8.2,25.2,13.1c7.2,4.3,15.6,6.8,23.4,10.3c6.9,3.1,13.7,6.5,20.5,9.8
	c7,3.3,13.9,6.9,21,9.8c1.8,0.7,4.5,0,6.6-0.7C458.7,345.3,468.1,342,477.7,338.7z"/>
<path fill-rule="evenodd" clip-rule="evenodd" d="M724.5,57c-2.9-1-6.1-1.7-9-3.2c-6.6-3.4-13.4-6.1-20.5-8
	c-7.9-2.1-15.6-4.7-23.5-7c-6.7-1.9-13.4-4-20.3-5.4c-5.5-1.1-11.2-1.1-16.7-1.6c-2.3-0.2-4.6-0.7-6.8-1.1c-4-0.8-8.1-1.1-11.9-2.5
	c-7.7-2.8-15.8-2.6-23.8-3.4c-3-0.3-6-1.9-9.2-0.3c-0.8,0.4-2.3-0.3-3.3-0.7c-8.3-3.4-17.1-2.9-25.7-3.8c-1.6-0.2-3.2-0.9-4.8-1.4
	c-0.7-0.2-1.6-1-2.1-0.8c-5.2,2.1-10.2-1.2-15.4-0.5c-0.8,0.1-1.7-0.8-2.6-0.9c-2.7-0.4-5.5-1.3-8-0.7c-6.9,1.7-13.7-0.4-20.5,0.4
	c-3.6-4.1-8.3,0.2-12.6-1.7c-3.6-1.5-8.4-0.1-12.6-0.1c-2.3,0-4.7-0.3-7-0.5c-3.1-0.2-6.3-0.9-9.2-0.3c-2.6,0.5-5,0.5-7.4-0.2
	c-3.3-1-6.4-0.8-9.7,0.1c-2,0.5-4.2,0.6-6.4,0.8c-8.5,0.5-17.1,0.6-25.4,3.2c-2.5,0.8-5.3,0.1-8,0.3c-6,0.3-11.9,0.6-17.9,1
	c-0.9,0.1-1.9,0.5-2.8,0.8c-1.3,0.5-2.7,1.7-3.8,1.4c-5.8-1.5-10.6,1.7-15.6,3.4c-3.6,1.2-7.1,1.7-10.8,1.9
	c-4.2,0.3-8.6,0.4-11.8,3.9c8.1,9.6,2.1,17.4-3.7,25.7c5.4,1.1,10,2.2,14.8,1.4c2.3-0.4,4-0.1,4.4,2.4c0.4,2.2,0.2,4.4-2.4,5.3
	c-1.1,0.4-2.2,0.8-3.3,1c-3.4,0.6-6.8,1.1-10.4,1.6c-1,4.8-0.3,8.9,1,13c1.5,4.9-0.9,7.4-5.9,6.9c-3.2-0.3-3.7-2.5-3.8-4.9
	c-0.2-4.8-0.3-9.6-2.7-13.7c-4.2-0.8-8-1.5-11.9-2.3c-2.8-8-2.3-8.4,9.4-8.8c-9.1-8.5-5-16.4,0.7-24.9c-2.5,0.2-4.6,0-6.5,0.5
	c-11.8,3.4-24,5-35.2,10.5c-5,2.5-10.3,4.4-15.6,6.5c-3.6,1.5-5.8,0.6-7.3-2.5c-1.6-3.4-0.7-5.8,3.2-7.4c4.5-1.8,9.2-3.3,13.8-4.9
	c0.9-0.3,1.9-0.5,2.8-0.9c6.5-2.7,13.1-5.1,19.3-8.3c4.5-2.3,9.1-3.6,14-4.6c4.9-1,9.9-1.8,14.8-2.7c2.7-0.5,5.3-1.1,8-1.6
	c8.3-1.7,16.6-3.5,24.9-5.2c4-0.8,7.9-1.8,11.8-2.6c3.2-0.6,6.5-1.1,9.7-1.3c8.1-0.5,16-2.1,24-3.1c6.9-0.9,14-0.2,21.1-0.5
	c7.2-0.3,14.3-1,21.3-2.7c5.5-1.3,11.2-1.8,16.8-2c7.5-0.2,15-0.6,22.4,1.9c2.7,0.9,6.1-0.1,9.2-0.2c1,0,2-0.4,2.9-0.2
	c3.2,0.7,6.6,2.8,9.3,2.1c3.6-1,6.4,0,9.5,0.9c4.1,1.1,8,2.8,12.5,1.9c0.9-0.2,1.9,0.2,2.8,0.5c10.2,3.5,20.9,3.6,31.5,4.1
	c4.8,0.2,9.6-0.4,14.3-0.1c7,0.5,13.9,1.9,20.8,2.1c7.7,0.3,14.6,3.5,22,4.9c5.2,1,10.1,3.3,15.7,3.6c6.4,0.4,12.7,2.8,19.1,3.9
	c8.4,1.5,16.9,2.3,25.2,3.9c4.3,0.8,8.7,2.2,12.5,4.2c8.2,4.4,16.8,7.8,25.2,11.7C728.2,48.6,728.8,50.1,724.5,57z M329.7,44
	c2.1,0.8,3.4,1.3,4.7,1.8c2.1-5.7,2.1-5.7-1.6-7.6C331.9,39.9,331,41.5,329.7,44z"/>
<path fill-rule="evenodd" clip-rule="evenodd" d="M548.1,325.3c-2.2,0-4.4,0.3-6.6-0.1c-1.1-0.2-2.8-1.5-2.8-2.4
	c0-1.3,0.8-3.3,1.8-3.9c2.9-1.6,6-2.7,9.1-3.9c7.7-3.1,15.5-5.9,23.1-9.4c11.5-5.3,22.8-11,34.1-16.6c10-5,19.9-10.2,30-15.2
	c2.3-1.1,4.7-1.9,7-3c11.3-5.6,22.4-11.5,33.7-16.9c7-3.4,14.3-6,21.2-9.3c4.8-2.3,10-3.5,14.3-7.1c2.8-2.2,7.1-2.5,10.8-3.7
	c2.6-0.8,5.1-1.9,7.7-2.6c4.5-1.1,6.6,0,7.4,3.3c0.7,2.8-2,6.2-5.1,7.3c-8,2.9-15.9,6.1-23.8,9.2c-3.4,1.4-6.7,3-10.2,4.2
	c-12.2,4.2-23.6,10.3-34.9,16.3c-7.1,3.7-14.4,6.9-21.6,10.4c-5.8,2.8-11.5,5.6-17.3,8.3c-6.8,3.2-13.2,7.1-20.6,9
	c-3.4,0.9-6.2,3.5-9.5,5c-14.8,6.9-29.6,13.7-44.5,20.6c-1,0.5-2.2,0.6-3.4,0.9C548.1,325.5,548.1,325.4,548.1,325.3z"/>
<path fill-rule="evenodd" clip-rule="evenodd" d="M950.7,326.7c0,4.9-1.2,6.5-3.9,6.8c-3.7,0.4-5.4-0.4-5.6-4
	c-0.4-7.7-4.6-13.9-7.7-20.6c-2-4.3-3-9.3-6.8-12.7c-0.1-5.7-5.4-9.2-5.8-14.9c-0.2-2.5-2.2-4.9-3.1-7.4c-1.2-3.2-2.1-6.6-3.1-9.8
	c-0.4-1.1-0.8-2.2-1.4-3.2c-5.2-7.7-11-15-15.4-23.1c-3.7-6.6-8.5-12-13.2-17.7c-3-3.5-5.1-7.8-7.5-11.8c-0.4-0.6-0.6-1.5-0.7-2.2
	c-0.5-3,0.7-6.4,2.5-6.6c2.4-0.3,4.3,0.6,5.9,2.8c3.4,4.8,7.6,9.1,10.7,14.3c3.3,5.5,7.8,10.1,11.6,15.2c2.4,3.3,4.6,6.7,6.8,10.1
	c3.4,5.1,7,10.1,10,15.4c1.9,3.3,2.7,7.2,4.3,10.7c1.9,4.3,4.1,8.4,6.1,12.6c0.3,0.5,0.6,1,0.8,1.6c2.4,6.5,4.7,12.9,7.1,19.4
	c2.1,5.6,4.5,11.2,6.5,16.9C949.9,321.5,950.3,324.8,950.7,326.7z"/>
<path fill-rule="evenodd" clip-rule="evenodd" d="M412.2,47c7.3-7.2,15.6-11.6,26.1-10.4c4.2,8.2,2.3,15.6-2.2,21.9
	c-2.3,3.2-6.4,5.7-10.2,7.3c-3.7,1.5-8,1-11.8-2.5c-0.8,2.5-1.9,4.6-2.2,6.8c-0.3,2.2-1.3,3.5-3.2,4.4c-9.6,5-20,2.7-25.6-5.8
	c-0.5-0.8-1.3-1.6-1.4-2.4c-0.5-4.2-1-8.5-1.1-12.8c-0.1-1.4,0.5-3.1,1.3-4.2c5-6.1,17.7-8.5,24.8-4.9c1.7,0.9,3.5,1.8,5.2,2.7
	C411.8,47.2,412,47.1,412.2,47z M399.8,51.1c-3.1,4-5.9,7.7-8.6,11.2c3.6,4.9,4.2,5.1,11,2.9c1-3.2,4.6-5.7,2.7-9.9
	C403.7,54.3,402.2,53.1,399.8,51.1z M419.2,55c3.5,2.2,3.5,2.2,7,0c4.6-3,6-5.2,5.4-8.7C425.5,45.3,422,47.8,419.2,55z"/>
<path fill-rule="evenodd" clip-rule="evenodd" d="M790.9,793.6c-1.5,2.5-2.3,3.9-3.6,6.1c-1.5-0.7-4.1-1.2-4.5-2.3
	c-1.2-4-2.6-8.4,1.8-12.1c8.8-2.3,13.9,4.6,20.3,9.8c-4.4,5.1-1,11.1-1.3,17c-0.1,2.7,0.3,5.5,0.2,8.2c-0.2,3.3-1.5,5.9-4.9,7.1
	c-2.4,0.9-4.9,5.3-4.8,7.7c0.1,3.6,0.1,3.6-3.3,7c-0.5-0.5-1.1-0.9-1.6-1.4c-3.8-3.2-7.8-4.9-13.1-4.7c-6.2,0.3-11.2-3.4-15.8-7.4
	c-2-1.7-4.1-3.2-6.1-4.8c-0.5-1.8-1-4-1.6-6.1c-0.8-3-1.9-5.9,1-8.6c1.1-1,1.2-3,1.8-4.6c4.7,0.7,7.4,3.1,7,8.1
	c-0.7,7.9,4.4,11.2,10,14.2c1.6,0.9,3.7,0.8,5.6,1.2c-0.1-5.3-0.9-6.2-5.3-5.8c-5.1,0.4-5.7-0.5-3.9-5.4c1.2-3.1,2.7-5.9,5.4-8.2
	c1.9-1.7,3.5-2.2,5.7-1c1.1,0.6,2.3,1,3.4,1.7c5.7,3.8,5.9,5.9,0.8,11.1c1.1,2,2.2,4.2,3.7,7c3.7-2.5,6.8-4.6,9.9-6.7
	C798.6,811.3,794.9,803.1,790.9,793.6z"/>
<path fill-rule="evenodd" clip-rule="evenodd" d="M69.1,246.7c5.7,1.5,11.1,3.7,14.6,9c2.7,4,2.4,5.3-1.3,8.2
	c-2.1-1.4-4.3-2.8-6.7-4.3c-2.4,12.4,2.8,14.9,10.1,10.6c0.1-5.1,2.8-9.6,5.7-13.8c1.7-2.5,3.4-5.6,7.3-4.8c4.1,0.8,4.5,4.2,4.9,7.5
	c0.1,1,0,2,0.3,2.9c1,2.7-0.6,3.8-2.8,3.8c-3.7,0-6.6,0.9-7.3,5.1c-0.5,2.9-2.6,5.8,0.1,8.8c0.7,0.8,0.6,2.5,0.4,3.8
	c-0.3,3.1-0.5,6.2-1.4,9.1c-0.5,1.7-2.1,3.1-3.5,4.4c-4.3,4.1-8.8,7.3-15.3,7.1c-2.3-0.1-4.7,1.2-7,2.1c-3.1,1.1-5.6,0.3-6.9-2.4
	c-1.5-3.4-0.6-6.6,2.8-7.5c4.6-1.2,8.9-3.5,14.1-2.7c5.6,0.8,8.9-4.9,5.9-9.8c-0.7-1.1-2.5-1.7-3.9-2c-7-1.5-10.9-5.9-12.5-13.2
	c-0.4-2-2.1-4-3.7-5.5c-4.3-4-4.2-8.1,0.5-11.6C65.5,250.1,67.2,248.4,69.1,246.7z"/>
<path fill-rule="evenodd" clip-rule="evenodd" d="M107.6,317.1c-0.9-3.3-0.8-6.2,0.3-9.2c0.5-1.4,1-3,0.7-4.4
	c-1.1-4.3,0.4-8.2,2.7-11.4c4.1-5.7,6-12.4,9-18.6c1.4-2.8,2.8-5.6,4.7-8.1c4.6-6.2,8.4-13.1,14.7-17.9c1.7-1.3,2.7-3.3,4.3-4.8
	c3.8-3.5,7.3-7.6,11.7-10.2c3.3-2,7.7-2.2,12-3.3c1.2,1.4,2.4,2.8,3.8,4.5c-5,4.8-9.2,10.2-14.6,13.9c-13.6,9.2-21.8,22.4-28.6,36.8
	c-0.4,0.9-0.7,1.8-1.1,2.7c-4.6,8.7-9.4,17.3-13.7,26.1C112.2,315.8,110.4,316.6,107.6,317.1z"/>
<path fill-rule="evenodd" clip-rule="evenodd" d="M895.5,304.5c-2.4,2.7-3.8,4.3-5.2,5.9c-2.9,3.2-6.5,5-10.8,3.8
	c-4.6-1.2-7.6-4-9.1-8.8c-1.9-6.1-0.1-11.6,2.4-16.5c1.5-2.8,5.4-4.8,8.6-6.1c2.1-0.9,4-2.3,6.9-2.3c2.5,0,4.3-3.7,5.7-6.6
	c2.6-5.5,9.7-6.6,13.9-2.1c4.8,5,4.9,11.1,3.9,17.4c-0.1,0.6-0.6,1-0.7,1.6c-1.5,4.9-4.6,9.3-4.4,14.9c0.1,2.6-2.8,4.1-5.8,4.7
	C897.1,311,896.2,308.6,895.5,304.5z M891.1,298.3c-2.5-3.4-4.5-6.2-6.4-8.9c-7.5,2.5-8.7,6.7-5.2,16.9
	C886.1,307.8,887,301.1,891.1,298.3z M903.5,279.4c-3-1.7-4.2,0.1-5.2,1.7c-0.9,1.4-1.6,3.1-2,4.8c-0.3,1.4-0.7,3.3,0,4.2
	c0.7,0.9,2.7,1.4,4.1,1.2c1.8-0.2,3-1.6,3.1-3.7C903.6,284.9,903.5,282.3,903.5,279.4z"/>
<path fill-rule="evenodd" clip-rule="evenodd" d="M510.6,772c3.8-0.3,6.1,1.6,7.8,4.4c2.8,4.8,5.2,9.9,8.3,14.6
	c3.2,5,7,9.6,11.3,15.4c1.2-2.6,2.1-4,2.4-5.5c1.2-5.3,2.6-10.5,5.6-15.1c0.9-1.4,1.3-3.2,1.8-4.8c0.1-0.4,0-0.8,0.2-1.2
	c0.2-0.5,0.4-1.3,0.8-1.5c3.5-1.7,5.4-5.2,8.2-7.6c0.9-0.8,2.5-0.7,4.4-1.2c0.7,6.4,1,12.3-1.3,18c-2.4,5.7-5.4,11.2-8.1,16.8
	c-0.3,0.7-0.6,1.5-0.7,2.2c-0.4,6.2-4.6,10.5-8.2,14.9c-1,1.3-3.4,1.5-5.4,2.3c-4.9-7.6-9.4-15.3-14.6-22.4
	c-5-6.9-8.5-14.6-12.9-21.7C508.6,776.7,508.8,774.4,510.6,772z"/>
<path fill-rule="evenodd" clip-rule="evenodd" d="M663.3,65.7c2.7-0.4,5-0.9,7.3-0.9c0.8,0,2,1,2.4,1.9c0.3,0.6-0.2,1.9-0.8,2.4
	c-4.7,4-8.5,9.4-14.9,11.3c-1.8,0.5-3.8,1.4-5.5,1.1c-3.5-0.7-5.8-2.1-4.1-8c0.9-0.4,1.9-0.8,3.3-1.3c-1.3-3-2.6-5.9-4-9
	c-3-0.5-6.2-1.1-9.4-1.6c-4.5,5.2-6.4,8.4-7.1,12.8c1.3,0.5,2.9,0.9,4,1.7c1,0.7,1.6,2.1,2.9,3.7c-2.5,1.6-4.9,4.3-7,4.1
	c-3.6-0.4-7.5-2-10.5-4.3c-3.2-2.4-5.5-5.9-7.9-9.2c-0.9-1.2-1.3-2.9-1.4-4.4c-0.2-2.9,2.6-4.8,5-3.2c2.1,1.3,3.7,3.3,5.9,5.4
	c2.8-3.3,4.6-7.4,5.2-12c0.7-5.8,3.6-7.5,9.1-5.7c4.4,1.5,8.9,2.7,13.4,3.7c2.4,0.5,5.1-0.1,7.6,0.3c4.7,0.6,4.6,0.8,5.2,5.6
	C662.5,61.8,662.9,63.5,663.3,65.7z"/>
<path fill-rule="evenodd" clip-rule="evenodd" d="M684.5,852.8c1.7-0.8,3.6-1.8,5.9-2.9c1.8,2.5,3.5,5,5.4,7.8
	c-0.4,1.2-1.7,3-1.6,4.7c0.2,3.9,2.6,5.6,6.6,5c3.6-0.5,7.1-1.6,11.2-2.6c-0.4-4-0.6-7.2-1-10.4c-0.1-0.9-0.3-2.2-0.9-2.6
	c-2.1-1.2-3.4-3-2.9-5.2c0.6-2.8,1.4-5.7,3-8c1.7-2.5,4.3-4.5,6.6-6.5c2.8-2.3,4.9-2,6.8,0.9c3.3,5.2,2.6,10.8,1.2,16.3
	c-0.4,1.4-2.7,2.3-4.9,4.1c0,2.5,0.4,5.9-0.1,9.3c-0.6,3.9-0.8,8.4-6.1,9.5c-2.5,0.5-3,2.3-2.7,4.4c0.3,1.9,0.9,3.8,1.3,5.7
	c1,4.3,0.6,5-3.5,6.5c-4.1,1.5-4.8,1-5.8-3.5c-0.7-2.9-1.8-5.7-2.8-8.9c-2.5,0.5-4.2,0.8-5.9,1.1c-4.6,0.6-7.4-1.4-8.2-6
	c-0.6-3.4-0.7-6.8-1.1-10.2C685,858.6,684.8,856.1,684.5,852.8z"/>
<path fill-rule="evenodd" clip-rule="evenodd" d="M317.7,839.5c0.1,1.6,0.2,2.9,0.3,4.2c0.5,4.2,1.6,8.5,1.3,12.6
	c-0.5,6.5-4.8,11.3-9.9,14.5c-4.8,3-10.6,4.2-16.3,2.7c-8.4-2.2-11.2-8.7-11.2-18.1c0-1.1,0.4-2.3,0.2-3.3c-1.7-6.1,1-10.5,5.3-14.1
	c4.8-4,10.1-6.6,16.6-3.9C308.7,836.2,313.4,837.9,317.7,839.5z M291,859c2,5.9,4,7.2,9.4,6.7c6.8-0.6,13.8-5.9,12.8-14.8
	C304.3,849.1,298.2,855.1,291,859z M306.8,840.4c-8.9-0.4-12.5,1.6-15.7,8.7C296.8,846.5,301.8,845,306.8,840.4z"/>
<path fill-rule="evenodd" clip-rule="evenodd" d="M386.3,889.9c-3.9,2.3-7.7,4.7-11.4,6.9c-6.6-2-10.3-6.9-13.2-12.3
	c-1-1.8-0.6-4.3-1-7.6c0.2,0.2-0.7-0.3-1.2-1c-2.3-3-1.6-4.9,1.9-6c1.3-0.4,2.6-0.7,4-1c6.9-1.7,13-1,18.1,4.7
	c3.3,3.7,3.5,3.3,7.5,0.5c1.5-1.1,3.5-2,5.3-2.1c3.8-0.1,7.7,0.2,11.4,0.8c3,0.4,7.2,6.1,7.3,9.1c0.1,3.3-2.7,7-6.1,8.3
	c-0.4,0.1-0.8,0.2-1.1,0.3c-3.4,1.1-5.7,5.4-10.5,2.9C394,891.5,390.1,891,386.3,889.9z M407.3,882.3c-3.8-2.5-7.2-3.5-10.9-3.2
	c-2.6,0.2-4.4,1.5-3.7,4.7C397.6,885.8,402.2,887,407.3,882.3z M375.2,876.4c-1.6,0-3.1-0.3-4.3,0.1c-0.8,0.3-2,2-1.7,2.4
	c1.4,2.8,3.2,5.3,4.9,8c2.1-1.8,3.6-3.2,5.2-4.6C378,880.4,376.7,878.6,375.2,876.4z"/>
<path fill-rule="evenodd" clip-rule="evenodd" d="M85.9,616.6c-3.7,1.9-7.6,4-11.6,6c-1.7-1.3-3.2-2.5-4.6-3.6c0-2.1,0-4,0-5.8
	c3.9-2.7,7.7-5.4,11.6-8.1c-1.1-1.5-1.9-2.7-2.7-3.9c-1.6-2.3-1-4.4,0.9-6.3c4.1-4,9.3-5.6,14.8-5.9c3-0.2,6.4,3.1,7.1,6.7
	c0.5,2.6,0.5,5.4,0.7,8.1c0.2,3.4,0.5,6.9,0.6,10.3c0,1.3,0.3,3.4-0.5,3.9c-4.2,3.3-3.2,8.4-4.7,12.6c-0.1,0.2,0,0.4-0.2,0.6
	c-1.8,1.6-3.5,4.2-5.5,4.4c-2.6,0.4-3.5-2.6-3.7-5.1c-0.2-2.5-0.3-5-0.1-7.4C88.2,620.8,88.9,618.5,85.9,616.6z"/>
<path fill-rule="evenodd" clip-rule="evenodd" d="M557.9,890.4c0.7-3.5,1.3-6.7,1.9-9.9c3.3-1.4,5.6,0.2,8,2
	c1.6,1.2,3.6,2.3,5.5,2.4c6.7,0.5,8.2,3.1,5.1,9c-0.3,0.5-0.5,0.9-0.7,1.3c1.7,5.1,8.2,6.6,8.5,11c-1.7,3.1-2.9,5.1-4.4,7.9
	c-4.9-2.7-9.2-8.3-16.7-7.4c-2.4,3.8-5.9,7.8-6.8,13.2c-0.5,2.7-2.3,4.1-5,3.8c-2.5-0.3-4.6-1.6-4.4-4.5c0.1-2.4,0.6-4.9,1.3-7.3
	c0.5-1.8,1.7-3.5,2.7-5.6c-1.4-0.3-2.8-0.3-3.8-1c-1.8-1.3-3.8-2.8-3.5-5.6c0.3-2.5,1.4-4.5,3.7-5.5
	C551.9,892.8,554.7,891.7,557.9,890.4z"/>
<path fill-rule="evenodd" clip-rule="evenodd" d="M620.1,898.1c-0.7-0.6-1.2-1.2-1.8-1.5c-1.2-0.6-2.5-1-3.8-1.6
	c-0.1-6.6,3.4-10.6,8.9-13.7c1.6-0.9,2.3-3.7,3.2-5.7c0.6-1.4,0.7-3.1,1.4-4.4c1.9-3.4,6.3-3.4,7.9,0.1c1.2,2.7,2.7,4.1,5.3,5.5
	c5.8,3.1,5.4,9.7-0.4,12.9c-1,0.5-2.1,1-3.7,1.7c1,0.7,1.5,1.5,2,1.4c4.7-0.4,7.3,2.3,9.6,5.9c1.9,3.1,0.8,7.3-2.8,7.5
	c-4.6,0.3-8.5,2.3-12.7,3.7c-3,1-6.5,0.7-9.8,0.5c-2.1-0.2-4.4-5-4.2-8.3C619.3,900.8,619.8,899.5,620.1,898.1z M621.1,895.7
	c2-1,3.7-1.8,2.1-3.9c-0.4-0.5-1.9-0.9-2.5-0.5C618.3,892.6,620,893.9,621.1,895.7z"/>
<path fill-rule="evenodd" clip-rule="evenodd" d="M349.5,93.7c9.1-4.4,18.8-4.5,28-6.4c6.9-1.4,13.8-1.1,20.7-0.5
	c9.2,0.8,18.5,0.8,27.8,1.3c3.1,0.2,6.1,0.9,8.8,1.4c3.2,4,0,6.2-1.6,8.9c-1.5,2.6-3.7,1.9-6,2.1c-5.8,0.7-11-1.6-16.4-2.9
	c-1.9-0.4-3.8-1-5.7-1.1c-6.6-0.4-13.4-1.7-19.7-0.5c-6.8,1.4-13.9,1.4-20.6,3.3c-1.7,0.5-3.4,0.8-5.1,1.2
	C354,102,351.1,100.1,349.5,93.7z"/>
<path fill-rule="evenodd" clip-rule="evenodd" d="M235.7,783.6c-7-0.8-12,2.6-16.4,6.8c-2.6,2.5-2.5,2.5-6.8,2
	c-1.2-2.2-0.6-4.1,0.9-5.9c4.9-5.8,10.8-10,18.2-12.1c4.5-1.3,6.6-0.4,9.2,3.8c1.9,3.1,3.7,6.3,5.8,9.9c0.7,0.1,1.8,0.4,3,0.3
	c8.2-0.7,14,6.4,13.9,14.3c-0.1,8.6-3.5,14.5-10.8,18.5c-1.1,0.6-2.5,0.5-4.8,1c0.6-2.5,0.4-4.9,1.5-5.8c5.2-4.5,6-9.9,3.7-16.3
	c-4.4-0.1-8.2,0.8-10.7,5.1c-1.2,2-3,3.6-4.7,5.2c-0.7,0.7-2.2,1.3-2.9,1c-0.9-0.3-1.9-1.7-1.9-2.6c0.1-2.7,0.6-5.3,1.2-8
	c0.3-1.5,0.9-3.1,1.8-4.2C239.7,792.1,237.7,787.9,235.7,783.6z"/>
<path fill-rule="evenodd" clip-rule="evenodd" d="M841.8,729.3c5.8,0.3,7.9,3.6,9.9,6c1.7,2.1,2.3,5.8,2,8.7
	c-0.5,3.9-0.1,7.1,2.4,10.2c2.8,3.5,1.1,8.7-3.3,9.3c-2.8,0.4-5,3.2-8.2,1.9c-0.3-0.1-1.3,1.6-2,2.4c-1,1-2.3,3-3,2.8
	c-1.5-0.4-3.7-1.8-3.7-2.9c-0.3-4.8-3.9-5.5-7.2-6.3c-2.5-0.6-4.8-1.4-5.1-3.9c-0.3-2.8,0-5.3,2.3-7.9c4.7-5.4,10.6-10,13.4-17.1
	C840,730.9,841.4,729.7,841.8,729.3z"/>
<path fill-rule="evenodd" clip-rule="evenodd" d="M935.2,616.1c-4.3-6.2-0.6-13.5-4.7-19c-2.6-0.5-3.4,2-4.1,3.4
	c-2.2,4.2-5.5,5.8-9.9,5.2c-2,5-3.9,9.9-6,14.7c-1.3,3-3.8,3.8-6.8,3.3c-3.1-0.5-4.7-3.5-2.9-6.1c5.8-7.9,8-17.1,9.8-26.5
	c0.3-1.6,1.3-3,2.2-5c3,1.9,5.4,3.4,8.3,5.2c1.5-2.1,3.2-4.2,4.6-6.5c2.1-3.2,5.3-3.9,8.4-1.7c4.7,3.2,6.6,8.1,7.7,13.3
	c1.3,6.4-0.2,12.3-3.8,17.7C937.5,614.8,936.5,615.2,935.2,616.1z"/>
<path fill-rule="evenodd" clip-rule="evenodd" d="M848.7,335.4c-2.5-0.2-3.7-1.3-4.1-3.6c-0.5-2.6-1.7-5-2.6-7.5
	c-0.2-0.5-0.6-1.1-0.5-1.7c0.4-6.5-3.3-11.9-5.2-17.7c-1.6-4.7-4.3-9.1-6.5-13.6c-3.7-7.5-7.8-14.9-13-21.5c-2-2.6-3.2-5.2-1.1-8.6
	c2-3.3,5.1-4,7.4-0.9c4.8,6.4,9.3,12.9,12.5,20.3c3.1,7.1,6.9,13.9,10,21c2.5,5.6,4.3,11.5,6.5,17.3
	C854.3,324.9,851.7,330,848.7,335.4z"/>
<path fill-rule="evenodd" clip-rule="evenodd" d="M553.9,127.6c-0.8-0.8-1.7-1.6-2.3-2.5c-2.5-4.4-4.7-9-7.4-13.3
	c-2.8-4.4-3.8-9.3-4.7-14.2c-0.3-1.7,0.4-4.2,1.6-5.4c1.9-2.1,2.4-4.7,3.7-6.9c2.1-3.8,3-7.5,2.6-11.7c-0.2-2.3,0.8-3.9,2.9-4.5
	c2.3-0.7,3.6,1,4.4,2.9c1.4,3.6,2.2,7.5,4.1,10.7c3.3,5.4,5.5,11.1,6.8,17.3c2,9,1,16.9-7.1,22.7c-1.8,1.3-3.2,3.3-4.8,5
	C553.7,127.6,553.9,127.6,553.9,127.6z M552.6,90.7c-3.9,0.8-3.8,4.4-4.7,7.2c-2.4,7.3,2.6,11.8,6.5,16.7
	C560.2,110,559.6,101.4,552.6,90.7z"/>
<path fill-rule="evenodd" clip-rule="evenodd" d="M445.7,912.1c-2.6-0.5-3.9-0.4-4.8-0.9c-1.4-0.9-3.2-2-3.6-3.3
	c-0.7-2.3,1.8-2.5,3.2-3.4c1.1-0.7,2.2-1.5,3.4-2.3c0-2-0.2-3.9,0-5.8c0.7-5.5,1.7-6,7.2-3.4c0.1,2,0.3,4,0.5,6.1
	c0.4,0.2,0.7,0.3,1.1,0.5c2.7-3.2,4.9-6.8,7.4-10.1c6.6,3,6.9,4.5,2.1,13.2c1,1,2,2.1,3,3.2c2.6,2.7,3.1,4.7,1.4,6.6
	c-1.8,2-4.9,2.5-7.5,1c-2-1.2-4-2.4-5.9-3.5c-0.1-0.1-0.4,0.1-0.9,0.3c-0.5,3.7-1,7.1,2.8,10.1c3.5,2.8,3,7.4,3,11.3
	c0,3-3.7,4.1-5.5,1.6c-2.3-3.1-5.8-3.6-8.8-5.3c-0.8-0.5-2.1,0-3.2,0.1c-2.5,0.3-5.1,1.1-6.9-2.2c1.2-3.2,2.1-6.5,6.2-8.2
	C441.9,916.7,443.3,914.4,445.7,912.1z"/>
<path fill-rule="evenodd" clip-rule="evenodd" d="M135.2,659c-1.9,4.9-3.6,6-7.9,5.6c-4.5-0.4-6.2,1.5-5,5.6
	c1.3,4.4,0.8,6.8-1.8,8.7c-2.2,1.6-7.6,1.8-10,0.3c-7-4.3-10.6-14.7-6.9-22c1.2-2.4,3.7-4.4,6.1-5.9c2.2-1.4,5.1-1.6,7.6-2.6
	c1.1-0.4,2.2-1.4,2.9-2.4c1.4-2.1,3.2-2.7,5.5-1.8c2.2,0.8,4.4,2.2,3.8,4.5C128.2,654.3,131.8,656.4,135.2,659z"/>
<path fill-rule="evenodd" clip-rule="evenodd" d="M654.4,118.4c-1.4,0.2-2.8,0.8-3.8,0.4c-3.3-1.1-6.5-2.3-9.5-3.9
	c-7.2-3.9-14.6-7.2-22.7-9.2c-7.5-1.8-14.9-4.3-22.4-6.3c-2.2-0.6-4.6-0.8-7-1.1c-0.2-0.1-0.6-0.3-0.7-0.7c-3.2-7.3-2.1-9.2,5.5-7.9
	c13.1,2.3,26.5,4,38.8,9.6c3.1,1.4,6.6,2.2,9.8,3.5C648.9,105.6,653.2,110.2,654.4,118.4z"/>
<path fill-rule="evenodd" clip-rule="evenodd" d="M121.1,219c-2.8,1.4-5,3.2-6,6.5c-0.3,1.2-1.3,2.4-2.3,3.1
	c-3.2,2.3-6.2,0.9-6.7-2.9c-0.2-1.1,0.1-2.3-0.1-3.5c-0.1-0.9-0.6-1.8-0.9-2.7c2-2.7,6.2-3.5,5.8-7.2c-2.3-1.8-4.7-3.1-6.2-5.2
	c-2.1-3-1-5.4,2.7-6.4c2-0.6,4.1-0.9,6-1.3c2.2-2.9-1.2-7.1,2.2-9.4c1.5-1,3.6-0.9,5.7-1.3c1.6,3.9,2.8,7.6,7.4,8.5
	c1.2,0.2,2.1,2.6,3.2,4.1c-3.3,3.7-4.3,7.4-0.8,11.5c1.4,1.6,1.4,3.5,0.1,5.4c-1.1,1.5-2,3.2-3.5,5.6
	C125.6,222.3,123.4,220.7,121.1,219z"/>
<path fill-rule="evenodd" clip-rule="evenodd" d="M497.4,923.9c1.5,0.9,2.4,1.5,3.5,2c2.1,1.1,2.7,2.7,1.9,4.9c-1,2.5-2.9,4-5.5,3.3
	c-3.6-0.9-6.9-2.6-11-1.5c-1.5,0.4-3.9-2.2-5.7-3.3c1.7-3.6,3.4-7,5-10.3c-5.1-2.7-6-3.9-5.3-6.6c1.3-4.6,4.2-6.5,9-5.7
	c0.6-1.8,1.1-3.7,1.9-5.4c1.2-2.6,7.6-4.7,10.2-3.6c3.8,1.8,4.2,5.3,1,10c2.6,0.2,4.9,0.4,7.7,0.7c0.4,2.6,0.8,5.2,1.1,7.6
	C507.4,920.4,499.6,916.3,497.4,923.9z"/>
<path fill-rule="evenodd" clip-rule="evenodd" d="M512.2,122c-0.4-0.4-0.6-0.7-0.9-0.9c-3.2-3.1,1.2-8.2-3.2-11.1
	c-3.4-2.2-3.8-6.4-5.3-9.8c-2.4-5.2-2.7-10.8-1.4-16.3c19.7-0.7,33.2,18.3,18.9,37C517.8,121.3,515,121.7,512.2,122z M518.2,110.1
	c1.6-5.4-0.6-9.1-2.6-12.6c-1-1.8-3.1-2.7-5.7-1.6c0.3,2.1,0.1,4.3,1,5.7C512.9,104.4,515.4,106.9,518.2,110.1z"/>
<path fill-rule="evenodd" clip-rule="evenodd" d="M887.3,704.5c-3.3,0.2-5.6,0.4-8,0.6c0.3-4.4,0.6-8.8,1-14c-3.9,2.3-7,4.2-10.1,6
	c-4.1-4.6-4.5-10.7-0.4-15.2c0.8-0.9,2.9-1.4,4.1-1.1c2.7,0.8,3.6-0.4,5-2.4c2.5-3.7,5.4-7.1,8.5-10.3c3.4-3.5,6.4-2.6,8.2,2
	c0.3,0.7,0.5,1.4,0.8,2C890.4,682.3,890,693.8,887.3,704.5z"/>
<path fill-rule="evenodd" clip-rule="evenodd" d="M566.5,37.1c2.3,0.8,4.1,1.5,5.9,2.1c3.6,1.3,4.9,4.1,3.8,7.8
	c-0.5,1.6-0.6,3.3-0.6,4.9c0,4.6-1.5,6.2-6.2,6c-5.1-0.2-8.7,2.6-12,5.9c-3.6,3.5-4.8,3.6-9.8-0.2c2-3.1,4.1-6.3,6.3-9.6
	c-0.3-0.3-0.7-0.8-1.1-0.9c-2.9-0.4-4.1-2.1-3.6-4.9c0.6-2.7,2.4-4.4,5.2-4.7c1.1-0.1,2.5,0.5,3.4,0.1c2.1-0.9,4-2.1,5.8-3.4
	C564.9,39.4,565.7,38.1,566.5,37.1z"/>
<path fill-rule="evenodd" clip-rule="evenodd" d="M73,336.6c-4.7,5.6-9.5,5.2-15,3.9c-0.8,5.1-1.6,9.8-2.4,14.9
	c-1.9,0.5-4.1,1-6.9,1.7c-2.5-4.4-5.1-8.8-7.5-13.4c-1.9-3.8-0.8-7.7,0.5-11.3c1.2-3.5,3.9-4.3,7.4-3.1c3.1,1.1,6.3,1.6,9.5,2.4
	c3.5,0.9,7.1,1.6,10.6,2.6C70.5,334.6,71.6,335.6,73,336.6z"/>
<path fill-rule="evenodd" clip-rule="evenodd" d="M56.4,521.6c-2.6-3.7,1.4-9.8-5.5-11.5c-0.7,1.4-1.6,3.2-2.6,5
	c-1.7,3.1-4.6,4.4-6.5,2.8c-2.1-1.8-1.9-3.6-0.4-6.1c2-3.2,2.3-7.1,4.5-10.4c1.4-2.2-0.7-4.3-2.2-6.2c-1.4-1.6-2.7-3.2-3.8-5
	c-1.3-2.2-0.8-4.2,1.4-5.5c1.8-1.1,4.5-0.4,6,1.8c1.2,1.8,2,3.7,3.2,5.9c1.1-0.5,2.3-1.3,3.5-1.4c1.4-0.1,3.1,0,4.1,0.8
	c0.7,0.5,0.8,2.8,0.2,3.6c-2.3,3-1.4,5.3,0.5,7.9c1.3,1.7,2.1,3.7,3,5.7C64.2,514.2,62.7,517.9,56.4,521.6z"/>
<path fill-rule="evenodd" clip-rule="evenodd" d="M864.2,254c-1.5,5.4-2.4,9.7-3.8,13.8c-0.8,2.2-2.6,4.5-5.3,3.7
	c-2.8-0.9-5.3-3.1-5.5-6.2c-0.5-5.6-0.7-11.3,2.2-16c3.8-1,7.1-1.9,10.3-2.8c4.5-1.3,5.9-0.6,8.4,4.7c3.2-0.7,5-2.4,5-5.9
	c0-1.5,0.2-3.3,1-4.4c0.7-1,2.6-2.1,3.6-1.9c1.2,0.3,2.7,1.9,2.9,3.1c0.3,2.4-0.2,4.9-0.5,7.4c-0.3,3.1-1.8,5.7-4.8,6.7
	c-2.6,0.9-5.3,2-7.7-1.5C869.3,253.5,865.9,254.1,864.2,254z"/>
<path fill-rule="evenodd" clip-rule="evenodd" d="M59.6,548.7c0.1-1.4,0.1-3,0.4-4.4c1.4-5.5,1.5-5.5,7.4-6.3
	c0.9-0.1,1.9-0.4,2.8-0.7c2.6-0.8,5-0.8,6.6,1.9c0.4,0.6,1.1,1.1,1.7,1.6c6.3,6.3,6.4,7.6,0,13.5c-0.9,0.8-2.2,1.5-3.4,1.7
	c-4,0.6-8,1-12.1,1.2c-2,0.1-3.7,0-5.3,1.5c-1.8,1.6-3.8,1.1-4.9-0.9c-1-1.8-1-3.8,0.9-5.2C55.6,551.2,57.5,550,59.6,548.7z"/>
<path fill-rule="evenodd" clip-rule="evenodd" d="M494.8,35.9c7.4,2,12.7,6,18.1,10.2c-0.4,1.8-0.5,3.6-1.2,5.1
	c-2.3,5.2-3.8,6-9.5,5.5c-4.2-0.4-8.3-0.9-12.2-2.8c-4-2-4.6-5.8-0.6-8C493.2,43.9,494.5,40.9,494.8,35.9z"/>
<path fill-rule="evenodd" clip-rule="evenodd" d="M177.4,730.2c5.9,0.3,9.7,5.1,8.4,10.8c-1.9,7.8-5.8,10.3-13.8,8.5
	c-1.5-0.3-3.1-0.6-4.5-1c-4.3-1.2-5.6-3.4-3.5-7.2c1.8-3.2,4-6.3,6.7-8.7C172.2,731.1,175,730.9,177.4,730.2z"/>
<path fill-rule="evenodd" clip-rule="evenodd" d="M901.9,674.9c3.3,2.3,4.1,4.2,3.2,7.2c-2.2,7-3.9,14.1-5.9,21.1
	c-1,3.5-4,4.8-6.9,3c-0.8-0.5-1.6-2-1.4-2.8c1.6-7.1,3.2-14.2,5.5-21.1C897.1,679.6,899.8,677.5,901.9,674.9z"/>
<path fill-rule="evenodd" clip-rule="evenodd" d="M905.6,697.7c2.1-5.5,1-12.2,5.4-17.3c0.8-0.9,1.3-2,2.3-2.6
	c0.7-0.4,2-0.6,2.6-0.2c0.7,0.4,1.4,1.6,1.3,2.3c-1,6.9-2.2,13.7-3.5,20.6c-0.5,2.6-3.2,4.5-5,3.9
	C905.5,703.4,906.1,700.5,905.6,697.7z"/>
<path fill-rule="evenodd" clip-rule="evenodd" d="M162,725.6c-0.7-4.1-5.1-6.6-2.7-10.2c1.1-1.7,4-2.2,6.2-3.3
	c2.5,4.1,3.4,7.8,1.4,11.4C166.2,724.6,163.9,724.8,162,725.6z"/>
<path fill-rule="evenodd" clip-rule="evenodd" d="M153.3,714.5c-2.3,1.8-4,3.6-6.1,4.6c-1.1,0.5-3.1-0.1-4.4-0.8
	c-1.9-1.1-1.9-4.6-0.4-6.3C145.3,708.8,147.6,709.2,153.3,714.5z"/>
<path fill-rule="evenodd" clip-rule="evenodd" d="M153,702c2-0.6,3.6-1.2,5.6-1.8c1.3,1.3,2.5,2.7,4,4.2c-1,2.8-2.5,5.2-5.8,4.5
	C153.6,708.2,152.7,705.7,153,702z"/>
<path fill-rule="evenodd" clip-rule="evenodd" d="M151.6,732.7c-1.2-2.8-1.2-5.2,1.4-6.3c1-0.4,3.2,0.2,3.9,1.1
	c0.9,1.2,1.5,3.5,0.8,4.6C156.1,734.6,153.7,732.7,151.6,732.7z"/>
<path fill-rule="evenodd" clip-rule="evenodd" d="M820.6,452.7c-3.6-4.2-3.9-10.7-1.1-14.1c1.8-2.2,3.6-1.3,5.7-0.6
	c2.8,1,4.3,2.8,3.7,5.7c-0.6,2.8-1.3,5.7-4.5,6.9C823.2,451,822.1,451.9,820.6,452.7z"/>
<path fill-rule="evenodd" clip-rule="evenodd" d="M534.4,439.2c-10.5-4.6-24.8-26.3-23.5-35.6c3.3,0.5,4.6,3.2,6.3,5.5
	c4.2,5.8,8.7,11.4,12.3,17.5C531.7,430.4,534.8,434.1,534.4,439.2z"/>
<path fill-rule="evenodd" clip-rule="evenodd" d="M713.4,152.4c0.4-1.9,0.6-3.6,1-5.2c0.4-1.4,0.8-3,1.7-4.1
	c2.1-2.6,5.6-3.3,7.7-1.9c3.3,2.2,4.6,6.5,2.9,9.6c-0.5,1-1.1,2-1.8,3c-1.8,2.7-3.9,3.1-6.9,1.4
	C716.6,154.2,715.1,153.4,713.4,152.4z"/>
<path fill-rule="evenodd" clip-rule="evenodd" d="M683.3,153c3.3-0.4,5.6,0.9,7.5,3c1.8,2,2,5.7,0.6,7.5c-1.3,1.6-4.9,2.4-6.9,1.4
	c-3.3-1.7-4.7-4-3.7-6.9C681.5,156.1,682.5,154.5,683.3,153z"/>
<path fill-rule="evenodd" clip-rule="evenodd" d="M481.1,662.4c-4.1-3.1-3.1-7.1-2.4-10.8c0.3-1.6,4.8-3,7-2.3c2.1,0.7,3,2,2.8,4.4
	C488.2,659.5,487.9,660,481.1,662.4z"/>
<path fill-rule="evenodd" clip-rule="evenodd" d="M442.8,654.2c-3.9,0.6-6.6,0.8-8.1-2.7c-1-2.4-1.1-4.4,0.6-6.5
	c1.7-2,3.9-2.4,6.3-2c2.1,0.3,2.9,2,2.7,3.8C444,649.2,443.4,651.6,442.8,654.2z"/>
<path fill-rule="evenodd" clip-rule="evenodd" d="M204.5,419.2c-4.2-3.4-2.5-7-0.7-10.2c2.3-3.8,6.1-2.5,9.4-1.9
	C216.3,416.3,215.5,417.3,204.5,419.2z"/>
<path fill-rule="evenodd" clip-rule="evenodd" d="M244.6,398.2c0.9-1.2,1.6-2.2,2.2-3.1c2.4-3.3,6.7-3.4,9.3-0.3
	c2.4,2.9,2.5,6.7,0.1,9.9c-0.8,1.1-1.7,2.1-2.6,3.3c-2.7-0.5-5.2-0.4-5.2-4.5C248.4,401.7,246,400.1,244.6,398.2z"/>
<path fill-rule="evenodd" clip-rule="evenodd" d="M313.3,149c-4.5,1.2-6.6-1.1-8.3-3.8c-1.4-2.1-1.1-4.5,0.6-6.4
	c1.6-1.9,3.4-1.3,5.2-0.1c1.7,1.1,3.5,2.1,5.6,3.3C315.2,144.7,314.2,146.9,313.3,149z"/>
<path fill-rule="evenodd" clip-rule="evenodd" d="M343.6,161c-5.5-1.6-7.3-5.6-8.1-10.4c4.3-4.3,8.8-4.8,11.9-1.3
	C350.5,152.6,349.4,155.9,343.6,161z"/>
</svg>
