<?xml version="1.0" encoding="utf-8"?>
<!DOCTYPE svg PUBLIC "-//W3C//DTD SVG 1.1//EN" "http://www.w3.org/Graphics/SVG/1.1/DTD/svg11.dtd">
<svg artist="zl2017" version="1.1" id="zlIcon-symbol-triangle-play" xmlns="http://www.w3.org/2000/svg" xmlns:xlink="http://www.w3.org/1999/xlink" x="0px" y="0px"
	 width="1000px" height="946px" viewBox="0 0 1000 946" enable-background="new 0 0 1000 946" xml:space="preserve">
<path fill-rule="evenodd" clip-rule="evenodd" d="M245.4,1.3c64-0.5,131.8,13.7,196.5,38.5c36.8,14.1,71.6,34.4,105.2,55.3
	c64.5,40,128.3,81.3,191,124c57.1,38.8,113,79.4,168.2,120.9c26.1,19.6,50.1,42.2,73.3,65.2c28.3,28,25.9,66.4-4.2,95
	c-42.9,40.8-93.9,69.9-144.1,100.2c-23.6,14.3-47.6,28.1-72,41.1c-47.2,25.2-93.5,52.5-142.4,73.8
	c-68.3,29.7-131.3,68.8-196.3,104.4c-60.5,33.1-120.5,67.2-181.2,100c-13.6,7.3-28.7,11.8-43.4,17C140.5,956.4,92,941.6,45.9,908
	c-28.4-20.8-36.4-51.2-38.5-81.5C3,764.5-3.8,701.2,4.2,640.3c8.4-63.9,6.6-127.4,10.9-191c2.5-37.9,7.9-75.6,11.9-113.4
	C32.7,281,39,226.1,43.7,171.1c2.2-25.8,0.8-51.8,1.4-77.7C46,58,65.6,32.2,97,23.4C143.2,10.4,190.2-3.2,245.4,1.3z M966.4,455
	c-15.9-45.6-16.6-47.3-48.8-71.8c-38.5-29.4-77.1-58.6-116.3-87c-96.4-70.2-192.1-141.5-299.8-194.3c-23.1-11.3-46.8-21.7-70.8-31.2
	c-55.5-22-114.1-26-172.8-30.6c-53-4.2-103.2,6.8-153.2,21.1c-11.1,3.2-21.1,10.2-31.3,15.2c-3,43.6-7.6,84.8-8.2,126
	c-1,72.8-6.3,144.9-18,216.8c-4.1,25.3-1.9,51.6-2.9,77.4c-1.5,41.4-3.2,82.8-4.9,124.2c-1.1,25.9-4.4,51.9-3.1,77.6
	c1.8,36.2,5.5,72.5,11.3,108.3c3.5,21.8,10.4,43.7,19.5,63.9c11.8,26.2,34.6,37.9,63.5,34.5c24-2.8,47.8-8,71.9-10.1
	c26.5-2.4,50-10.9,73.1-24.1c60-34.3,120.8-67.1,181.2-100.5c22.6-12.5,44.8-26,67.9-37.7c58.5-29.7,118-57.6,176-88.2
	c36.6-19.3,72.3-40.9,106.7-63.9c40.2-26.8,79-55.7,117.5-85.1C939.7,484.3,951.9,469.4,966.4,455z"/>
<path fill-rule="evenodd" clip-rule="evenodd" fill="#FFFFFF" d="M966.4,455c-14.5,14.4-26.6,29.3-41.5,40.6
	c-38.4,29.3-77.3,58.2-117.5,85.1c-34.4,23-70.1,44.6-106.7,63.9c-58,30.6-117.5,58.5-176,88.2c-23.1,11.7-45.2,25.2-67.9,37.7
	c-60.4,33.5-121.3,66.3-181.2,100.5c-23,13.2-46.6,21.7-73.1,24.1c-24.1,2.1-47.9,7.3-71.9,10.1c-29,3.4-51.7-8.3-63.5-34.5
	c-9.1-20.2-16-42.1-19.5-63.9c-5.8-35.8-9.5-72.1-11.3-108.3c-1.3-25.8,2-51.7,3.1-77.6c1.7-41.4,3.4-82.8,4.9-124.2
	c0.9-25.8-1.3-52.1,2.9-77.4c11.7-71.9,17-144,18-216.8c0.6-41.2,5.2-82.4,8.2-126c10.2-5.1,20.2-12.1,31.3-15.2
	c50-14.3,100.2-25.3,153.2-21.1c58.8,4.6,117.4,8.6,172.8,30.6c24,9.5,47.6,19.9,70.8,31.2c107.7,52.7,203.4,124.1,299.8,194.3
	c39.1,28.5,77.8,57.7,116.3,87C949.8,407.8,950.5,409.4,966.4,455z"/>
</svg>
