<?xml version="1.0" encoding="utf-8"?>
<!DOCTYPE svg PUBLIC "-//W3C//DTD SVG 1.1//EN" "http://www.w3.org/Graphics/SVG/1.1/DTD/svg11.dtd">
<svg artist="zl2017" version="1.1" id="zlIcon-symbol-dollar" xmlns="http://www.w3.org/2000/svg" xmlns:xlink="http://www.w3.org/1999/xlink" x="0px" y="0px"
	 width="1000px" height="1383.1px" viewBox="0 0 1000 1383.1" enable-background="new 0 0 1000 1383.1" xml:space="preserve">
<path fill-rule="evenodd" clip-rule="evenodd" fill="#FFFFFF" d="M556.5,679.9c0-6.2-0.2-12.1,0.1-18c0.1-3.9,1.4-7.7,1.1-11.5
	c-1-13.1-0.4-26.3,0.5-39.3c0.7-10.6,1.9-21.1,3-31.7c1-9,2.3-18,3.2-27c0.9-8.7,5-17,3.1-26c-0.2-0.9,0.4-2,0.5-3
	c0.6-9.8,1.1-19.7,1.6-29.5c0.1-3.1-0.5-6.2-0.4-9.3c0.5-9.8,0.9-19.7,2-29.5c2-16.7,1.8-33.6,4.4-50.4c1.8-11.7,0.8-23.8,1.1-35.7
	c0.1-3.1-0.2-6.5,0.8-9.3c5.6-15.7,5.3-32,4.9-48.1c-0.3-10.5,0-21,0.3-31.5c0.1-2.3,1.9-4.9,1.3-6.8c-3.3-9.4,1.1-18.7,0.1-28.3
	c-1.2-11.4,1.4-23.2,2.2-34.9c0.3-4.6,0.1-9.1,0.2-13.7c0-2.5,0.1-5.1,0.1-7.6c0-3.4,0-6.8,0.2-10.1c0.3-4.1,1.4-8.3,1-12.4
	c-1.7-14.7,1.5-29,4-43.2c2.5-14.4,4.3-28.7,4.2-43.4c0-3.5,0.4-7.3,1.6-10.6c4.2-11.3,1.6-21.9-2.6-32.5c-0.5-1.1-1.4-2.2-2.5-3
	c-8.2-6-17-10.5-27.4-9.1c-7.3,1-13.4,3.8-17.8,10.7c-4.9,7.6-8.6,14.8-5.3,23.9c0.2,0.5,0,1,0,1.6c0.5,14.6-2.8,29.1,0,43.7
	c0.2,1,0.1,2.1-0.1,3.1c-1.7,9.9,0.5,20.3-3.1,30c-0.2,0.5,0,1-0.1,1.5c-1,13.9-2.1,27.9-3.1,41.8c-0.1,0.8-0.4,1.5-0.6,2.3
	c-1.4,4.8-3.6,9.4-1.2,14.6c0.7,1.5,0.4,3.7,0.1,5.4c-2,11-4.3,21.9-6.3,32.9c-0.3,1.8-0.5,3.6-0.5,5.4c0.3,8.8,1.9,17.8,0.9,26.4
	c-1.5,12-1.8,23.7-0.2,35.6c0.2,1.5-0.3,3.1-0.4,4.6c-0.3,3.3-0.4,6.7-0.7,10c-1,9.2,3.8,18.6-1.2,27.7c-0.5,1,0,2.6,0,3.9
	c0,8.2,0.2,16.4-0.1,24.7c-0.3,8.8-1.4,17.6-1.6,26.5c-0.1,4.9,0.7,9.8,1,14.8c0.6,9.7-1.4,19.1-3,28.6c-2.4,14-3.4,28.2-4.9,42.3
	c-0.3,3.1-1.2,6.2-0.9,9.3c1.7,20.8-3.7,41.1-5.3,61.6c-0.6,8.1-4.5,15.7-4.7,24.1c-0.2,8.7-2.1,17.3-3.1,26
	c-1.1,9.1-1.8,18.3-3,27.4c-1.7,13.3-4.3,26.5-2.9,41C516.6,677.2,536.5,678.6,556.5,679.9z"/>
<path fill-rule="evenodd" clip-rule="evenodd" fill="#FFFFFF" d="M380.1,669c0.6-6.2,2.2-11.8,1.4-17c-1.9-12.7-0.1-25.2,0.6-37.7
	c0.7-12.7,2.8-25.2,4.3-37.9c2.3-19,4.6-38.1,6.9-57.1c1.3-11,2.4-22,4.3-32.9c1.5-8.1,1.5-15.9,0.6-24c-0.7-5.8-0.5-12.4,1.7-17.7
	c3.2-7.7,1.5-15.3,1.9-22.9c0.2-3.3,0.2-6.3,1.1-9.7c1.5-6,1.7-12.3,2.2-18.5c0.6-7.1,0.1-14.4,1.5-21.4c1.9-9.1,3.5-18.1,3.6-27.4
	c0.1-17.7,0.1-35.4,0.3-53.1c0-3.9,0.5-7.7,0.8-11.6c0.5-5.9,1.3-11.9,1.6-17.8c0.4-7.2-0.5-14.7,1-21.6c1.6-7.1,1.6-14.3,2.3-21.3
	c1.5-15.7,1.1-31.6,1.6-47.4c0.3-8,0.8-16.1,1.4-24.1c0.2-3.2,1.9-6.6,1.3-9.7c-1.3-7.7-1.6-15.4-0.9-23.2
	c0.5-5.6,0.6-11.3,0.3-16.9c-0.3-8-1.2-15.9-1.6-23.9c-0.3-5.4-1.2-11-0.1-16.1c1.9-8.6-0.9-15.8-4.3-23.2c-3-6.4-9.6-8.4-15-8.9
	c-11.2-1.1-15.9,5-17.3,16.3c-1.3,10.2-3.7,20.5-6.9,30.3c-1.8,5.5-3.1,10.8-4.2,16.4c-1.5,8.2-3.8,16.2-0.3,24.4
	c0.2,0.4-0.4,1-0.4,1.5c0.1,11.2-1.6,22.3,0.9,33.5c0.7,3.3-0.8,7.1-1.4,10.7c-0.3,1.8-1.4,3.4-1.6,5.2c-1,11.3-2.1,22.7-2.8,34
	c-0.9,15.3-1.8,30.6-1.9,45.8c-0.1,13.4,1.1,26.9,1.5,40.3c0.3,9.1,1.6,18.5-0.3,27.1c-1.7,7.6-1.2,14.8-1.4,22.2
	c-0.3,13-0.9,25.9-1,38.9c-0.1,15.2-1.8,30.1-5.2,44.9c-0.7,3-0.9,6.1-1.1,9.2c-1.3,17.5,1.4,35.3-3.5,52.6
	c-0.8,2.7,0.6,6.1-0.6,8.4c-4.3,8.9-4.6,18.5-6.4,27.9c-1.4,7-1.1,14.5-3.3,21.3c-3.1,9.5-3.8,19.3-5.1,29
	c-0.9,6.6-1.7,13.2-2.1,19.9c-0.6,9-0.7,18.1-1.3,27.2c-0.4,6-1.2,11.9-1.8,17.8c-1.2,10.8-2.4,21.6-3.4,32.4
	c-0.2,2.6,0.5,5.3,0.8,8.5C346.3,670.7,362.9,669.9,380.1,669z"/>
<path fill-rule="evenodd" clip-rule="evenodd" fill="#FFFFFF" d="M324.8,757.5c-1.5,6.6-1.6,12.3-1,18.4c1.2,11.2,1.2,22.6,1.3,33.9
	c0.1,5.1,0.5,10.6-1.1,15.3c-5.4,16.2-6.8,33.1-9.8,49.7c-2.5,14-3.3,28.2-4.4,42.4c-1.4,16.9-3.7,33.7-3.1,50.6
	c0.4,10.1,1.1,20.2,1.9,30.3c0.9,11,3.6,21.9,1.9,33.1c-0.7,4.5-1.1,9-1.6,13.5c-0.5,3.8-0.9,7.6-1.5,11.4c-0.6,3.8-1.7,7.6-2,11.4
	c-0.7,10-1.2,20-1.6,30c-0.3,7.8-0.3,15.6-0.7,23.4c-0.7,14.1-1.6,28.2-2.6,42.3c-0.5,7-0.5,14.2-2.5,20.8
	c-3.3,11.2-4.9,22.4-4.3,34.1c0.1,1.3-0.2,2.6-0.6,3.8c-2.2,6.7-3.3,14-1.8,20.4c2.1,8.8,3.6,17.2,1.3,26c-0.2,0.7-0.1,1.6,0,2.3
	c0.8,6,0.5,11.8-0.6,17.7c-0.9,4.9-0.2,10.1-0.2,15c9.3,2.3,18.6,4.6,28.9,7.2c0.5-3.3,1.4-6.3,1.1-9.1c-1.3-12.9-0.1-25.8,2.5-38.3
	c3.1-14.9,2.8-29.8,3.6-44.7c0.1-2-0.1-4-0.3-6c-0.8-9.1,4.9-17.4,3-26.6c-0.2-1,1.1-2.2,1.6-3.3c0.8-1.7,1.8-3.3,2.1-5
	c1.9-10.7,3.9-21.4,5.5-32.2c1.1-7.1,0.8-14.5,2.4-21.5c1.7-7.3,3.5-14.4,4.5-21.9c1.8-13,4.8-25.8,7.1-38.7
	c0.4-2.2,0.5-4.5,0.5-6.8c-0.1-8.2-0.4-16.5-0.3-24.7c0.1-4.4,0.8-8.7,1.3-13.1c1.4-11.7,3.2-23.4,4.4-35.2c1-9.8,2.7-19.7,1.9-29.3
	c-0.6-6.9-0.5-13.3,0.7-20c0.8-4.6,1.1-9.4,1-14c-0.3-9.9-1.1-19.8,1.6-29.5c0.3-1.2,0.1-2.6,0.1-3.9c-0.1-6.5-0.7-13-0.2-19.5
	c1.4-18.9,3.2-37.8,5-56.7c0.6-6.6,1.8-13.1,2.8-19.6c0.4-2.8,1-5.6,1.2-8.4c0.5-6.9,1.2-13.9,0-20.3
	C357.7,754.6,341.4,758.8,324.8,757.5z"/>
<path fill-rule="evenodd" clip-rule="evenodd" fill="#FFFFFF" d="M490.9,776c-0.9,13.4-2,25.2-2.5,37c-0.4,11.3,0,22.7-0.3,34
	c-0.2,8,0.1,16.3-1.8,24c-2.9,11.5-3.2,23.1-4.3,34.8c-1.5,15.8-1.2,31.6-1.1,47.4c0.1,14.7-1.1,29.3-1.8,44
	c-0.2,5.7-0.6,11.4-0.7,17.1c0,6.7,0.1,13.4,0.5,20.1c0.4,6.1,1.4,12.2,2.2,18.7c6.2,1.8,7.6,3.1,7.7,11c0,7.4-1,14.8-1.7,22.2
	c-0.4,4.4-1.2,8.7-1.8,13c-0.9,6.7-2,13.4-2.7,20.1c-0.6,5.5-2.3,11.5-1.1,16.6c3.7,16,0.9,32,0.5,48c-0.3,9.6-3.3,19.3-5.9,28.7
	c-3.3,11.5-4.5,23.3-3.1,34.8c1.3,10.7,0.9,21.2,0.2,31.8c-0.6,9.2-1.2,18.3-1.8,28c7.4-3.9,14.4-4.9,22.4-1.6
	c1.4-7.9,3-14.9,3.9-22.1c1.1-8.4,1.5-16.9,2.5-25.4c1.5-12.2,2-24.6,2.7-36.9c0.8-12.9,2-25.9,3.2-38.8c0.9-9.3,2-18.6,3-27.9
	c0.6-5.2-0.1-10.9,2-15.3c3-6.3,2.2-12.6,2.5-18.9c0.4-6.2,0.8-12.4,1.6-18.5c1.1-8.7,2.7-17.4,4-26.1c0.9-6.2,1.8-12.3,2.6-18.5
	c1.1-8.1,2.7-16.2,2.9-24.4c0.1-5.1-0.1-10.2,1-15.3c3.3-15.4,4.1-31.1,5.3-46.7c0.8-10.2-1.2-20.7,2.5-30.7
	c0.4-1.1,0.2-2.5-0.2-3.7c-2-6.1-0.4-12.1,0.2-18.1c0.4-3.6,1.4-7,1.8-10.6c0.3-3.1,0-6.3,0.3-9.4c1.6-13.8,3.3-27.7,3.4-41.6
	c0.1-5.5,1-11,0.4-16.3c-1.4-11.5,1.4-22.2,4.6-32.9c0.4-1.2,1-2.4,0.9-3.7c-0.2-7.2-0.5-14.4-0.8-22.5
	C527.1,779.7,509.3,777.9,490.9,776z"/>
<path fill-rule="evenodd" clip-rule="evenodd" fill="#FFFFFF" d="M848.9,269.8c-3.6,4.3-6.3,8.6-6.8,14.1c-0.2,2.8-1.1,5.6-1.6,8.4
	c-2,11-1.8,21.8,5.3,31c6.6,8.5,14.2,16.1,26.1,16.7c4.1,0.2,8.3-0.7,12.3,0.1c5,0.9,9-0.6,13.3-2.6c8.5-3.8,15-10.1,20.9-17
	c3.2-3.7,6.1-7.8,8-12.2c2.3-5.4,4.8-10.7,5.6-16.9c0.4-3.7,3.1-7.1,0.1-11.5c-2.1,0.7-4.3,1.4-6.5,2c-2.2,0.6-4.5,1.3-6.8,1.3
	c-8.1-0.2-16.2-0.7-24.3-1c-9.4-0.3-18.8-0.9-27.6-4.4C860.8,275.2,854.9,272.5,848.9,269.8z"/>
<path fill-rule="evenodd" clip-rule="evenodd" fill="#FFFFFF" d="M448.3,1341.8c0,1.8-0.1,2.6,0,3.3c1,9,6.3,15,14.2,18.5
	c6,2.7,11.8,2.6,18.2-1.2c6-3.6,9.1-9.6,14.7-13.2c0.4-0.2,0.4-0.9,0.7-1.4c4.2-7,2.4-14-0.2-20.8c-0.5-1.4-2.4-2.4-3.9-3.3
	c-10.6-6-19.6,2.4-29.5,3.3c-0.4,0-0.9,0.6-1.1,1.1C459.4,1334.9,453.4,1337.9,448.3,1341.8z"/>
<path fill-rule="evenodd" clip-rule="evenodd" fill="#FFFFFF" d="M295.6,1320c-8.4-0.4-14.7,4.9-15.8,13.1c-0.3,2-0.4,5.1-1.6,5.8
	c-6.2,3.5-2.9,7.8-1.3,11.8c5.1,12.6,5.1,11.7,18.3,11.4c11-0.3,16.9-8.1,23.7-13.9c6.4-5.4,1.5-21.5-6.6-24.4
	C307,1322,301.2,1321.3,295.6,1320z"/>
<path fill-rule="evenodd" clip-rule="evenodd" d="M272.6,1149.2c-7.1-2.2-13.1-4.5-19.3-5.8c-5.2-1.1-10.8-0.4-16-1.7
	c-7.5-1.9-14.7,0.1-22.1,0c-14.2-0.3-28.5-0.3-42.7,0c-9.6,0.2-19.1,1-28.7,2c-7.9,0.8-15.8,2.8-23.7,3.5
	c-10.6,0.9-21.2,1.3-31.9,1.7c-11.9,0.4-23.6,1.5-35.2,4.4c-7,1.7-14.4,1.7-21.6,2.8c-4.3,0.7-8.5,2.1-12.8,3.2
	c-2.7,0.7-5.3,1.6-8,2c-7.9,1.1-10.4-1.3-10-9.3c0-1,0.3-2,0.4-3.2c10.1-2.7,19.1-8.9,30.1-7c13.4-5.1,27.9-4,41.5-7.9
	c10.4-2.9,20.8-5.7,31.3-8.2c12.4-3,24.6-7.8,37.8-7.5c2,0,4.2-0.4,6.1-1.2c13.5-5.6,27.7-6.7,42.1-6.4c5.4,0.1,10.7,0.1,16.1,0.1
	c1,0,2.2-0.1,3.1-0.6c6.2-3.8,13.1-2.7,19.7-2.9c1.3,0,2.8,0.3,3.9-0.1c7.7-3,15.3-0.2,22.9,0.3c6.7,0.4,13.5,0.1,21.3,0.1
	c0.3-9.4,0.9-17.8,0.8-26.3c-0.1-3.7,1.7-7,0.9-11.1c-1-5.4,1.2-11.2,1.1-16.8c-0.5-16.5,4.8-32.2,5.5-48.6
	c0.2-4.7,2.5-9.4,3.9-14.4c-0.7-1.3-2.5-3.3-2.4-5.2c0.1-7.3,0.7-14.5,1.3-21.7c0.3-3,1.8-6.2,1.4-9c-1.6-10.6,0.7-21.1,0.7-31.5
	c0-16.7,4.6-33,2.7-49.6c-0.1-0.5-0.1-1.1,0.1-1.6c4.4-16.2,1.9-33.2,6.1-49.4c2.7-10.3,2.3-20.9,2.8-31.5c0.6-11.3-0.1-22.7,3-33.8
	c0.2-0.7-0.2-1.5-0.3-2.6c-6.4-3.5-13.5-3-20.5-3.4c-4.3-0.2-8.6-0.8-13-1.3c-1.3-0.1-2.9-0.9-3.8-0.4c-5.5,3-10.6,0.4-15.9-0.4
	c-7.9-1.1-15.9-1.1-23.8-2.3c-3.7-0.6-7.5-2.1-10.5-4.3c-5.9-4.1-11.8-7.3-19.2-7.6c-2.2-0.1-4.3-1.7-6.4-2.7
	c-3-1.4-5.9-2.2-9.3-2.7c-5.9-1-11.7-4.1-16.9-7.4c-8.3-5.2-15.9-11.3-24-16.8c-3.8-2.6-8.9-3.8-11.9-7c-8.5-9.1-16.6-18.5-24-28.5
	c-4.2-5.7-6.6-12.8-10.2-19c-2.4-4.2-5.6-7.9-8.3-12c-1-1.5-1.7-3.3-2.1-5c-6-23.4-10.3-47.1-11-71.3c-0.2-5.5,1.8-11.2,2.8-16.7
	c1.9-10.2,4.2-20.3,5.5-30.5c1-7.5,2-14.8,5.5-21.8c1.4-2.8,0.3-6.8,1.4-9.8c2.6-7.8,5.9-15.5,8.8-23.2
	c5.8-15.2,15.9-27.7,27.2-38.5c8.2-7.7,14.8-16.2,21.7-24.8c4.3-5.4,9.3-10.4,14.5-15.1c8.6-7.8,17.4-15.3,26.3-22.6
	c1.8-1.5,4.6-1.9,5.3-2.1c3.8-4,6.3-7.5,9.5-9.7c11.1-7.7,22.4-15.1,33.8-22.2c5.7-3.5,12.3-5.5,17.8-9.3c5.2-3.5,9.9-7.8,15.6-10.5
	c3.9-1.8,7.9-3.5,11.9-5.3c2.1-1,4.1-2.1,6.1-3.1c3-1.3,6.1-2.5,9.2-3.8c1.7-0.7,3.3-1.4,5-2.1c8-3.4,16-6.8,23.9-10.3
	c3.9-1.8,8.4,0.1,12.4-3.2c2.2-1.8,3.8-3.2,4.3-5.6c0.6-3.3,0.8-6.8,0.8-10.1c0-10.6-0.4-21.3-0.1-31.9c0.4-12.9,1.3-25.7,2.2-38.5
	c0.6-9.6,1.4-19.1,2.2-28.7c0.5-6.9,1.6-13.9,1.5-20.8c-0.2-12.2,0.8-24.2,2.8-36.3c1.4-8.4,1.9-17,2.3-25.5
	c0.1-2.6-0.8-5.3-1.7-7.8c-1.9-5.2,1.7-9.4,2-14.3c0.4-7,1.2-13.9,1.9-21.5c1.9-1.1,4.1-2.3,6.6-3.8c0.7-7.4,2.7-14.4,8-20.4
	c7.5-8.5,22.1-14.2,33.4-11.8c6.1,1.3,12,3.1,17.9,5c6.8,2.1,11.2,7.5,15.3,12.8c1.8,2.3,2.8,5.6,3.3,8.6c2,11,3.7,22,5.5,33
	c1.8,10.8,0.3,21.6,0.3,32.5c0.1,11.3-1.9,22.2-5.8,32.9c-3.1,8.6-3.5,17.7-3.4,26.7c0.1,12-0.4,23.9-2.9,35.8
	c-1,5-0.2,10.4-0.4,15.5c-0.3,8.2-0.9,16.5-1.1,24.7c-0.1,3.3,1.1,6.7,0.8,10c-0.8,9.8-2,19.5-3,29.2c-0.1,1.3-0.1,2.5-0.2,4.5
	c2.8-0.8,5.3-1.4,7.6-2.2c12.6-4.6,25.9-5.9,39.1-6.4c5.1-0.2,10.6-3.1,15.8,1.2c1,0.8,5-1.9,7.9-3.1c0-11.1-0.1-22,0-32.9
	c0.1-8.7,0.7-17.4,1-26.2c0.2-5.9,0-11.8,0.1-17.7c0.1-6.7,0.2-13.5,0.5-20.2c0.4-8,1-16,1.6-23.9c0.5-6.1,1.1-12.2,1.6-18.2
	c0.7-8,1.2-15.9,1.9-23.9c0.3-3.1,0.8-6.2,1.3-9.2c1.4-7.9-0.4-15.8,0.3-23.7c0.3-3.1,0.3-6.3,1.4-9.1c3.9-9.8,6.7-20.1,12.8-28.8
	c1.2-1.7,2.5-3.4,4.1-4.6c6.1-4.4,12.3-8.7,18.6-12.9c1.4-0.9,3.2-1.4,4.9-1.4c4.4,0.1,8.9,0.9,12.9-1.8c0.4-0.3,1.1-0.5,1.5-0.4
	c7.9,3.1,17.1,1.7,24.3,7.6c3.5,2.8,7.9,4.5,11.8,7c6.3,4,9.8,9.7,11.1,17.1c0.7,4,2.6,7.9,2.9,11.9c0.4,6.3,1,12.9-0.4,19
	c-2.2,9.6,0.2,19.2-1.7,28.7c-1.8,8.9-1,17.9-2.3,26.9c-1.4,9.6-2.7,19.8-0.5,30c1.1,5.3-1,11.3-1.4,17c-1,13.4-2,26.8-2.7,40.2
	c-0.6,11.1-0.9,22.2-1.1,33.4c-0.2,6.2,0,12.5,0,18.9c5,1.3,8.5-0.3,11.8-4.1c4.3,3.9,9.5,4.8,14.9,2.8c5.6-2.1,11.3-1.5,15.8,1.1
	c5.6,3.2,10.5,1.5,15.8,0.6c1.8-0.3,3.7-1.6,5.1-1.1c8.8,3.1,17.1-0.8,25.5-1.7c6.5-0.7,12.9-3.3,19.3-5.3c1.1-0.3,1.8-1.7,2.8-2.6
	c7.3-6.2,14.9-11.7,24-15.3c9.6-3.8,18.7-8.8,27.8-13.5c1.7-0.9,2.7-3.1,3.8-4.8c1.2-1.7,1.8-4,3.2-5.3c5.8-5.5,11.9-10.8,18-15.9
	c4.8-4,9.5-8.2,14.7-11.6c5.4-3.5,11.3-6.1,17.1-9c2-1,4.3-1.7,6.2-3c9.8-6.7,20.2-12,32.5-11.6c18.6,0.5,37.2-0.3,55.5,4.2
	c8,2,16.2,3.8,24,6.6c8.3,3,14,9.8,20.1,15.8c8.6,8.4,13.6,19,18.6,29.6c1.1,2.3,2.5,4.6,3.7,6.9c3.9,7.4,9.2,14.4,11.2,22.2
	c2.2,8.8,4,18.2,2.6,27.7c-0.7,4.6-1.4,9.4-0.8,13.9c2,14.9-1.5,29.1-6.5,42.7c-4.5,12.3-9.6,24.6-18.6,34.8
	c-5.1,5.9-9,12.7-13.8,18.9c-6.6,8.7-14.7,16-23.7,22.1c-8,5.4-16.1,10.5-24.7,14.7c-5.3,2.6-11.6,3.3-17.5,4.8
	c-3.7,0.9-7.7,1.1-11.1,2.7c-6.1,2.9-12.5,1.7-18.5,1.2c-11.1-0.9-22-4.8-33-5c-11.7-0.2-22.7-3.6-33.2-7
	c-14.2-4.6-29.7-8.8-36.2-25.6c-3.3-8.4-10.6-13.6-18.5-17.9c-2.9-1.6-5.3-4.1-8-6.1c-3.5-2.6-6.7-5.6-11.5-5.9
	c-1.9-0.1-4.4-1.3-5.4-2.8c-4.5-6.2-11.1-7-17.9-7.9c-4.3-0.6-8.8-0.9-12-4.7c-0.5-0.6-1.8-0.9-2.7-0.8c-11.4,0.6-22.6-2.1-33.8-2.1
	c-11.7-0.1-22-5.5-33.4-5.8c-4.3-0.1-8.6,0-13.1,0c-1.4,9.9-1.1,19.2-3.9,28.1c-1.1,3.4,0.2,7.8,1,11.5c2.3,10,2.2,19.7,0.5,29.9
	c-1.8,11.1-2.3,22.5-1,33.9c0.5,4.6-0.4,9.3-0.6,14c-0.1,2,0,4.1-0.1,6.2c-0.2,4.3-0.3,8.7-0.9,13c-0.6,3.6-0.5,7-0.4,10.6
	c0.2,9.3-0.7,18.7-1.7,28c-1.4,13.1-3.2,26.2-4.8,39.4c-0.1,0.7,0.1,1.6,0.3,2.2c3.1,6.9,0.7,13.8,0.2,20.8
	c-0.6,8.6-0.8,17.1-1.2,25.7c-0.5,10.6-0.7,21.2-1.6,31.8c-0.8,10-2.6,20-3.5,30c-0.4,4.2,0.2,8.5,0.8,12.7c0.4,2.9,2.9,4.1,5.7,4.4
	c2,0.3,4.5,0.1,5.8,1.2c4.3,3.8,9.5,2.3,13.8,1.6c3.5-0.6,6.8-1.3,10.3-0.8c8,1.2,15.6,3.9,23.1,6.9c3.6,1.5,7.2,2.7,11,3.8
	c12.4,3.6,24.9,7.1,37.4,10.7c1.7,0.5,3.4,1.3,5,2.2c7.7,4.7,15.4,9.3,22.9,14.2c7.1,4.6,14,9.6,20.9,14.4c0.8,0.6,1.7,1.2,2.3,2
	c5.5,8.3,14.1,13.5,20.4,20.8c9.9,11.6,20.3,22.9,26.5,37.3c2.8,6.6,7.6,12.3,11.1,18.6c2.7,4.9,4.8,10.1,7.2,15.3
	c4.5,9.9,5.2,20.9,8.6,31.1c2.3,6.9,5,13.6,7.5,20.4c3.9,10.7,8.2,21.1,8.6,33c0.3,9.7,3.4,19.3,4.9,29c1.5,9.9,4.2,20,3.5,29.8
	c-0.7,10.4,1,21.3-3.1,31.4c-1.4,3.6-3.3,7.1-5,10.6c-0.8,1.6-2.1,3.2-2.4,4.9c-1.9,11.6-7.4,21.4-14,30.9
	c-3.9,5.5-6.9,11.7-10.3,17.5c-8.3,14-18,27-29.6,38.4c-1.8,1.8-4.4,2.6-6.4,4.3c-4.5,3.9-8.7,8.2-13.3,12
	c-6.2,5-12.3,10.5-19.2,14.1c-9.9,5.1-20.8,8.4-31,13.1c-10.4,4.8-21.2,8.4-31.1,14.2c-4.2,2.5-9.1,3.9-13.9,4.9
	c-12.1,2.5-24.2,4.8-36.4,6.6c-4.5,0.7-9.6,0.4-13.9-1c-5.9-1.9-11.4-0.1-16.5,1.4c-9.1,2.6-18,4.1-27.3,3.1c-1.9-0.2-3.9,0-5.9,0.1
	c-1.3,0.1-2.8,0.7-3.8,0.3c-7-2.7-14.6-0.2-21.7-2.2c-1.3-0.4-2.9,0.5-4.4,0.6c-2.5,0.3-4.9,0.5-8.5,0.9c-2.4,2.5-2.1,6.8-2.5,10.9
	c-0.6,4.9-1.2,9.8-1.5,14.7c-0.8,10.3-1.4,20.6-2.1,30.9c-0.2,3.1,0,6.2-0.4,9.2c-1.6,14.7-3.5,29.3-4.8,44
	c-0.6,6.6,0.1,13.4-0.2,20.1c-0.2,3.2-1.3,6.4-2,9.6c-0.1,0.5-0.6,1-0.5,1.4c2.6,7.7-0.6,14.8-2,22.1c-0.4,2-0.5,4.2-1.4,6
	c-5.2,10.8-13.7,18.9-22.6,26.5c-1.1,0.9-2.9,1.6-4.3,1.6c-3.1,0-5.3,1-7.5,3.3c-3.9,3.9-9.4,2.1-13.4,1.1
	c-8.7-2.2-16.7-6.1-21.8-14.8c-3.6-6.2-8.4-11.8-9.7-19.2c-1.4-8.1-0.6-15.9,2.5-23.6c1.7-4.2,3.2-8.4,3.2-13.3
	c0.1-10.3,1.5-20.7,2.5-31c0.4-4.1,0.9-8.2,2.1-12.1c4-13,1.3-26.4,2.8-39.6c0.6-4.9,0.8-9.8,1.3-14.7c0.6-6.5,1.7-13,1.7-19.4
	c0-6.3,0.1-12.4,2.3-18.4c1.4-3.8-0.9-6-4.9-5.5c-11.2,1.3-28,0-38.1-2.2c-6.2-1.4-12.7-1.8-19.1-2.5c-5.5-0.6-11.2-0.7-16.6-1.8
	c-2.4-0.5-4.4-3-7.2-5.2c-0.6,2.5-1.2,4.4-1.4,6.3c-1,9.6-1.8,19.3-2.7,29c-0.9,9.8-1.9,19.5-3,29.3c-0.5,4-1.3,8-2.1,11.9
	c-2.8,12.6-7.1,25.1-8.3,37.9c-0.8,8.6-3.8,18.4,3.3,26.5c0.5,0.6,0.3,2,0.2,2.9c-1.1,8.2-1.9,16.3-2,24.6c0,7.1,0.5,15.3-5.7,21.3
	c-2.1,0.2-4.4,0.5-6.2,0.7c-3.1,5.2-5.7,10.3-9.1,14.8c-6.6,8.7-17.1,10.2-26.5,13.7c-3.6,1.3-7.7,1-11.5,2c-9,2.3-21-4.2-23.6-13.3
	c-1.7-5.9-6.9-10.5-7.1-17.1c-0.1-5.4-0.3-10.7-0.6-16.1c-0.1-1.8-0.6-3.7-1.1-6.2c6.5-4.7,5.7-13.2,7.1-20.6
	c1.5-8,1.3-16.4,1.3-24.6c0-7.3-0.6-14.5-0.9-21.8c-0.1-1.6-0.5-3.7,0.3-4.6c5.5-5.7,3.8-13.2,5.1-19.8c1.3-6.8,0.7-13.9,1-20.9
	c0.5-12-0.7-24.3,2-35.8C273.7,1168.3,270.1,1158.6,272.6,1149.2z M536.8,1096.8c15.6,3.5,29.9,0.7,44-1.9c11.4-2.1,22.6-5.4,33.8-8
	c2-0.5,4.2-0.8,6.2-0.5c11.9,1.8,22.8-2.3,33.7-5.8c11-3.6,21.9-7.8,32.7-12.3c12.4-5.2,24.1-10.8,34.3-20.2
	c11.6-10.7,18.5-23.4,22.7-38.1c1.3-4.5,1.8-9.2,3.4-13.5c3.2-8.7,4.9-17.4,4.7-26.7c-0.1-3.9,0.6-7.8,1.2-11.6
	c1.5-9.6,5.5-19,2-29.1c-0.5-1.4,0-3.1-0.2-4.7c-0.7-6.2-0.7-12.6-2.3-18.5c-2.5-9.1-4.2-18.4-10.8-26.3
	c-5.6-6.6-8.5-15.4-13.7-22.4c-5.1-6.9-10-14.3-17.8-18.9c-11.4-6.7-22.8-13.4-34.1-20.2c-3.5-2.1-6.4-5.2-9.9-7
	c-11.9-6.1-24.7-9.3-37.8-11.4c-11.2-1.8-22.6-2.7-33.6-5.7c-1.7-0.5-3.5-0.2-5.3-0.3c-0.8-1.6-1.6-3.1-2.5-4.7
	c-5.8,3.5-8-5.5-14.1-2.8c0,7.9,0.4,16.2-0.1,24.4c-0.7,12.2-2,24.4-3.3,36.5c-1.2,10.7-4.1,21.2-4.3,32.2
	c-0.1,6.8-2.7,13.5-2.5,20.3c0.2,7.2-0.1,14.3-0.9,21.5c-1.4,11.8,0.4,24-5.7,35c-0.6,1-0.2,2.6-0.4,3.9c-2.1,11.1-1.2,22.4-4,33.5
	c-3.2,12.3-4.7,25-7,37.5c-1.8,9.5-3.8,18.9-3.2,28.7c0.1,2-0.4,4.1-0.7,6.2C539.6,1076.1,538.2,1086.4,536.8,1096.8z M556.5,679.9
	c0-6.2-0.2-12.1,0.1-18c0.1-3.9,1.4-7.7,1.1-11.5c-1-13.1-0.4-26.3,0.5-39.3c0.7-10.6,1.9-21.1,3-31.7c1-9,2.3-18,3.2-27
	c0.9-8.7,5-17,3.1-26c-0.2-0.9,0.4-2,0.5-3c0.6-9.8,1.1-19.7,1.6-29.5c0.1-3.1-0.5-6.2-0.4-9.3c0.5-9.8,0.9-19.7,2-29.5
	c2-16.7,1.8-33.6,4.4-50.4c1.8-11.7,0.8-23.8,1.1-35.7c0.1-3.1-0.2-6.5,0.8-9.3c5.6-15.7,5.3-32,4.9-48.1c-0.3-10.5,0-21,0.3-31.5
	c0.1-2.3,1.9-4.9,1.3-6.8c-3.3-9.4,1.1-18.7,0.1-28.3c-1.2-11.4,1.4-23.2,2.2-34.9c0.3-4.6,0.1-9.1,0.2-13.7c0-2.5,0.1-5.1,0.1-7.6
	c0-3.4,0-6.8,0.2-10.1c0.3-4.1,1.4-8.3,1-12.4c-1.7-14.7,1.5-29,4-43.2c2.5-14.4,4.3-28.7,4.2-43.4c0-3.5,0.4-7.3,1.6-10.6
	c4.2-11.3,1.6-21.9-2.6-32.5c-0.5-1.1-1.4-2.2-2.5-3c-8.2-6-17-10.5-27.4-9.1c-7.3,1-13.4,3.8-17.8,10.7c-4.9,7.6-8.6,14.8-5.3,23.9
	c0.2,0.5,0,1,0,1.6c0.5,14.6-2.8,29.1,0,43.7c0.2,1,0.1,2.1-0.1,3.1c-1.7,9.9,0.5,20.3-3.1,30c-0.2,0.5,0,1-0.1,1.5
	c-1,13.9-2.1,27.9-3.1,41.8c-0.1,0.8-0.4,1.5-0.6,2.3c-1.4,4.8-3.6,9.4-1.2,14.6c0.7,1.5,0.4,3.7,0.1,5.4c-2,11-4.3,21.9-6.3,32.9
	c-0.3,1.8-0.5,3.6-0.5,5.4c0.3,8.8,1.9,17.8,0.9,26.4c-1.5,12-1.8,23.7-0.2,35.6c0.2,1.5-0.3,3.1-0.4,4.6c-0.3,3.3-0.4,6.7-0.7,10
	c-1,9.2,3.8,18.6-1.2,27.7c-0.5,1,0,2.6,0,3.9c0,8.2,0.2,16.4-0.1,24.7c-0.3,8.8-1.4,17.6-1.6,26.5c-0.1,4.9,0.7,9.8,1,14.8
	c0.6,9.7-1.4,19.1-3,28.6c-2.4,14-3.4,28.2-4.9,42.3c-0.3,3.1-1.2,6.2-0.9,9.3c1.7,20.8-3.7,41.1-5.3,61.6
	c-0.6,8.1-4.5,15.7-4.7,24.1c-0.2,8.7-2.1,17.3-3.1,26c-1.1,9.1-1.8,18.3-3,27.4c-1.7,13.3-4.3,26.5-2.9,41
	C516.6,677.2,536.5,678.6,556.5,679.9z M307.1,667c0.3-3.4,0.8-7.1,0.9-10.8c0.1-1.7-0.7-3.4-1-5.1c-0.2-1.2-0.8-2.3-0.7-3.5
	c1-15,2.2-30.1,3.3-45.1c0.1-1.2,0.3-3,1.1-3.6c5.8-4.2,2.2-11.5,5.5-16.4c-1.8-7.3,0-14.7,1.9-21.4c5-17.5,5.2-35.4,7.4-53.2
	c1.1-9,2.6-18,3.8-27c1.4-10.8,2.9-21.6,3.8-32.4c0.8-9,1.2-18.1,1.1-27.2c0-8.7,2.5-17.4-0.5-26.3c-1.7-5.1-1.3-11-1.9-16.7
	c-2.3,1.2-4.8,2.5-7.3,3.8c-6.3,3.3-12.6,6.8-19,10c-8.8,4.3-18.3,7.5-26.6,12.5c-12.9,7.9-25.1,17.1-37.7,25.7
	c-2.5,1.8-5.4,3.2-7.5,5.3c-6.9,7-13.7,14-20.1,21.5c-5.8,6.9-11.2,14.2-16.3,21.7c-3.7,5.6-5.9,12.3-10,17.5
	c-6.3,7.8-8.2,17.2-11.7,26c-2.3,5.8-4.2,11.8-5.6,17.8c-2.2,9.9-1.6,20-1,30c0.3,5.3,1,10.8,2.3,16c3.3,13.1,11.8,23.4,18.8,34.4
	c1.6,2.6,5.1,4,6.6,6.6c5.4,9.6,15,13.6,24.1,17.2c14.6,5.8,29.9,10,45,14.6c5.7,1.7,11.6,2.7,17.5,3.8c4.8,0.9,8.9,4.1,14.2,3.3
	C300.5,665.7,303.8,666.7,307.1,667z M380.1,669c0.6-6.2,2.2-11.8,1.4-17c-1.9-12.7-0.1-25.2,0.6-37.7c0.7-12.7,2.8-25.2,4.3-37.9
	c2.3-19,4.6-38.1,6.9-57.1c1.3-11,2.4-22,4.3-32.9c1.5-8.1,1.5-15.9,0.6-24c-0.7-5.8-0.5-12.4,1.7-17.7c3.2-7.7,1.5-15.3,1.9-22.9
	c0.2-3.3,0.2-6.3,1.1-9.7c1.5-6,1.7-12.3,2.2-18.5c0.6-7.1,0.1-14.4,1.5-21.4c1.9-9.1,3.5-18.1,3.6-27.4c0.1-17.7,0.1-35.4,0.3-53.1
	c0-3.9,0.5-7.7,0.8-11.6c0.5-5.9,1.3-11.9,1.6-17.8c0.4-7.2-0.5-14.7,1-21.6c1.6-7.1,1.6-14.3,2.3-21.3c1.5-15.7,1.1-31.6,1.6-47.4
	c0.3-8,0.8-16.1,1.4-24.1c0.2-3.2,1.9-6.6,1.3-9.7c-1.3-7.7-1.6-15.4-0.9-23.2c0.5-5.6,0.6-11.3,0.3-16.9c-0.3-8-1.2-15.9-1.6-23.9
	c-0.3-5.4-1.2-11-0.1-16.1c1.9-8.6-0.9-15.8-4.3-23.2c-3-6.4-9.6-8.4-15-8.9c-11.2-1.1-15.9,5-17.3,16.3
	c-1.3,10.2-3.7,20.5-6.9,30.3c-1.8,5.5-3.1,10.8-4.2,16.4c-1.5,8.2-3.8,16.2-0.3,24.4c0.2,0.4-0.4,1-0.4,1.5
	c0.1,11.2-1.6,22.3,0.9,33.5c0.7,3.3-0.8,7.1-1.4,10.7c-0.3,1.8-1.4,3.4-1.6,5.2c-1,11.3-2.1,22.7-2.8,34
	c-0.9,15.3-1.8,30.6-1.9,45.8c-0.1,13.4,1.1,26.9,1.5,40.3c0.3,9.1,1.6,18.5-0.3,27.1c-1.7,7.6-1.2,14.8-1.4,22.2
	c-0.3,13-0.9,25.9-1,38.9c-0.1,15.2-1.8,30.1-5.2,44.9c-0.7,3-0.9,6.1-1.1,9.2c-1.3,17.5,1.4,35.3-3.5,52.6
	c-0.8,2.7,0.6,6.1-0.6,8.4c-4.3,8.9-4.6,18.5-6.4,27.9c-1.4,7-1.1,14.5-3.3,21.3c-3.1,9.5-3.8,19.3-5.1,29
	c-0.9,6.6-1.7,13.2-2.1,19.9c-0.6,9-0.7,18.1-1.3,27.2c-0.4,6-1.2,11.9-1.8,17.8c-1.2,10.8-2.4,21.6-3.4,32.4
	c-0.2,2.6,0.5,5.3,0.8,8.5C346.3,670.7,362.9,669.9,380.1,669z M453.8,1109.6c-0.2-3,0.1-5.2-0.6-7c-2.7-6.8-1.7-13.1,0.9-19.7
	c3.2-8,3-16.5,3-24.9c-0.1-6.2-0.1-12.5,0.6-18.6c1.9-16.7,4-33.6,2.6-50.3c-0.8-10.8,2-21.1,1.8-31.7c-0.1-3.6-0.4-7.1-0.2-10.7
	c0.5-13.5,0.8-26.9,1.8-40.4c0.6-8.4-1.9-17.4,3.9-25c0.4-0.5,0.3-1.5,0.1-2.3c-1.8-8.7-1.8-17.4-0.9-26.2c1-10.3,1.7-20.6,2.8-30.9
	c0.8-6.7,2.4-13.2,3.2-19.9c0.8-6.4,1.1-12.9,1.3-19.4c0.3-11,2.8-10.2-8.4-12.4c-1-0.2-2-0.4-2.9-0.8c-8.3-3.2-16.8-3.6-25.7-4
	c-13.1-0.6-26.4,2.5-39.3-1.9c-1.7-0.6-4,0.4-6,0.6c-1.6,10.2-4.8,19.9,0.9,29.4c0.4,0.6,0.2,1.5,0.4,2.3c1,6.4-0.9,12.5-2.2,18.7
	c-2.2,10.1-5.6,20.1-7,30.3c-1.8,14.2-2.6,28.5-3.1,42.8c-0.4,11.4,0.6,22.8-0.6,34.1c-0.8,7.4-2.8,14.8-2.3,22.1
	c0.6,8.1-0.3,16-0.9,24c-0.5,5.9-0.9,11.9-1.6,17.8c-0.9,8.2-2.7,16.3-2.8,24.5c-0.3,19-0.8,37.9-2.7,56.8
	c-1.3,13.5-1,27.2-1.4,40.7c1.4,0.5,2.1,1,2.8,1c6.4,0.3,12.8,0.6,19.2,0.7c6.1,0.1,12.3,0,18.4-0.2c7.9-0.3,15.8,0.1,23.8-0.9
	C439.2,1107.5,446.2,1109.1,453.8,1109.6z M408.4,673.3c5,0.4,8.9,0.5,12.7,1c7.4,0.9,14.7,2.1,22.1,2.9c7.6,0.9,15.3,0.9,23,0.4
	c3.8-0.3,7.7-0.1,11.4-0.9c1.7-0.3,4.3-2.6,4.2-3.8c-0.7-6.8,2.6-13,1.2-20.1c-2.2-11.4-1.3-23.1,0.8-34.7c1.3-7.5,2.4-15.2,3-22.8
	c1-11.7,1.5-23.4,2.2-35.1c0.1-1.3,0.6-2.5,0.7-3.8c0.7-8.2,1.3-16.5,2.1-24.7c0.7-6.8,0.8-13.8,2.8-20.3c1.4-4.5,1.9-8.4,1-12.9
	c-0.7-3.2-1.3-6.7-0.8-9.9c0.8-5.5,0.7-10.8-0.1-16.2c-0.3-1.7-0.1-3.5-0.1-5.3c0.1-8,0.9-16.1,0-24c-0.7-6.2,0.9-11.8,1.4-17.7
	c0.1-1.5,0.5-3.1,0.4-4.6c-0.7-9.2-0.4-18.3,1.1-27.5c2.6-15.9,5.1-31.7,7.5-47.6c0.8-5.3,0.6-5.5-4.7-6.3c-6.2-1-12.5-1.9-18.8-2.8
	c-5.9-0.9-11.1,1.2-16.7,2.5c-11.5,2.8-23.2,4.5-35,6.7c-0.2,3.1,0,5.4-0.5,7.7c-2.6,12.5-1.5,25.2-2.1,37.9
	c-0.4,8.8-0.7,17.7-2.5,26.2c-1.7,7.7-3.3,15.2-3.6,23.1c0,1.6,0.4,3.3-0.2,4.6c-4.5,9.7-1.6,20-2.3,29.9c-0.3,4.3,2,8.7,1.9,13.1
	c0,11.1-0.6,22.2-1.1,33.3c-0.4,7.2-0.1,14.7-2.1,21.5c-2.2,7.5-3.7,15-4.2,22.8c-0.3,5.2-1.1,10.3-1.6,15.4c-0.9,9-1.7,18-2.5,27.1
	c-0.3,2.8,0.8,4.5,3.6,5c0.2,0,0.3,0.9,0.5,1.4c-1.1,0.9-2.3,1.7-2.5,1.9c0.4,6,2.4,11.7,0.7,16c-3.3,8.7-1.6,17.5-2.7,26.1
	C407.9,663.5,408.4,668.2,408.4,673.3z M324.8,757.5c-1.5,6.6-1.6,12.3-1,18.4c1.2,11.2,1.2,22.6,1.3,33.9
	c0.1,5.1,0.5,10.6-1.1,15.3c-5.4,16.2-6.8,33.1-9.8,49.7c-2.5,14-3.3,28.2-4.4,42.4c-1.4,16.9-3.7,33.7-3.1,50.6
	c0.4,10.1,1.1,20.2,1.9,30.3c0.9,11,3.6,21.9,1.9,33.1c-0.7,4.5-1.1,9-1.6,13.5c-0.5,3.8-0.9,7.6-1.5,11.4c-0.6,3.8-1.7,7.6-2,11.4
	c-0.7,10-1.2,20-1.6,30c-0.3,7.8-0.3,15.6-0.7,23.4c-0.7,14.1-1.6,28.2-2.6,42.3c-0.5,7-0.5,14.2-2.5,20.8
	c-3.3,11.2-4.9,22.4-4.3,34.1c0.1,1.3-0.2,2.6-0.6,3.8c-2.2,6.7-3.3,14-1.8,20.4c2.1,8.8,3.6,17.2,1.3,26c-0.2,0.7-0.1,1.6,0,2.3
	c0.8,6,0.5,11.8-0.6,17.7c-0.9,4.9-0.2,10.1-0.2,15c9.3,2.3,18.6,4.6,28.9,7.2c0.5-3.3,1.4-6.3,1.1-9.1c-1.3-12.9-0.1-25.8,2.5-38.3
	c3.1-14.9,2.8-29.8,3.6-44.7c0.1-2-0.1-4-0.3-6c-0.8-9.1,4.9-17.4,3-26.6c-0.2-1,1.1-2.2,1.6-3.3c0.8-1.7,1.8-3.3,2.1-5
	c1.9-10.7,3.9-21.4,5.5-32.2c1.1-7.1,0.8-14.5,2.4-21.5c1.7-7.3,3.5-14.4,4.5-21.9c1.8-13,4.8-25.8,7.1-38.7
	c0.4-2.2,0.5-4.5,0.5-6.8c-0.1-8.2-0.4-16.5-0.3-24.7c0.1-4.4,0.8-8.7,1.3-13.1c1.4-11.7,3.2-23.4,4.4-35.2c1-9.8,2.7-19.7,1.9-29.3
	c-0.6-6.9-0.5-13.3,0.7-20c0.8-4.6,1.1-9.4,1-14c-0.3-9.9-1.1-19.8,1.6-29.5c0.3-1.2,0.1-2.6,0.1-3.9c-0.1-6.5-0.7-13-0.2-19.5
	c1.4-18.9,3.2-37.8,5-56.7c0.6-6.6,1.8-13.1,2.8-19.6c0.4-2.8,1-5.6,1.2-8.4c0.5-6.9,1.2-13.9,0-20.3
	C357.7,754.6,341.4,758.8,324.8,757.5z M490.9,776c-0.9,13.4-2,25.2-2.5,37c-0.4,11.3,0,22.7-0.3,34c-0.2,8,0.1,16.3-1.8,24
	c-2.9,11.5-3.2,23.1-4.3,34.8c-1.5,15.8-1.2,31.6-1.1,47.4c0.1,14.7-1.1,29.3-1.8,44c-0.2,5.7-0.6,11.4-0.7,17.1
	c0,6.7,0.1,13.4,0.5,20.1c0.4,6.1,1.4,12.2,2.2,18.7c6.2,1.8,7.6,3.1,7.7,11c0,7.4-1,14.8-1.7,22.2c-0.4,4.4-1.2,8.7-1.8,13
	c-0.9,6.7-2,13.4-2.7,20.1c-0.6,5.5-2.3,11.5-1.1,16.6c3.7,16,0.9,32,0.5,48c-0.3,9.6-3.3,19.3-5.9,28.7
	c-3.3,11.5-4.5,23.3-3.1,34.8c1.3,10.7,0.9,21.2,0.2,31.8c-0.6,9.2-1.2,18.3-1.8,28c7.4-3.9,14.4-4.9,22.4-1.6
	c1.4-7.9,3-14.9,3.9-22.1c1.1-8.4,1.5-16.9,2.5-25.4c1.5-12.2,2-24.6,2.7-36.9c0.8-12.9,2-25.9,3.2-38.8c0.9-9.3,2-18.6,3-27.9
	c0.6-5.2-0.1-10.9,2-15.3c3-6.3,2.2-12.6,2.5-18.9c0.4-6.2,0.8-12.4,1.6-18.5c1.1-8.7,2.7-17.4,4-26.1c0.9-6.2,1.8-12.3,2.6-18.5
	c1.1-8.1,2.7-16.2,2.9-24.4c0.1-5.1-0.1-10.2,1-15.3c3.3-15.4,4.1-31.1,5.3-46.7c0.8-10.2-1.2-20.7,2.5-30.7
	c0.4-1.1,0.2-2.5-0.2-3.7c-2-6.1-0.4-12.1,0.2-18.1c0.4-3.6,1.4-7,1.8-10.6c0.3-3.1,0-6.3,0.3-9.4c1.6-13.8,3.3-27.7,3.4-41.6
	c0.1-5.5,1-11,0.4-16.3c-1.4-11.5,1.4-22.2,4.6-32.9c0.4-1.2,1-2.4,0.9-3.7c-0.2-7.2-0.5-14.4-0.8-22.5
	C527.1,779.7,509.3,777.9,490.9,776z M848.9,269.8c-3.6,4.3-6.3,8.6-6.8,14.1c-0.2,2.8-1.1,5.6-1.6,8.4c-2,11-1.8,21.8,5.3,31
	c6.6,8.5,14.2,16.1,26.1,16.7c4.1,0.2,8.3-0.7,12.3,0.1c5,0.9,9-0.6,13.3-2.6c8.5-3.8,15-10.1,20.9-17c3.2-3.7,6.1-7.8,8-12.2
	c2.3-5.4,4.8-10.7,5.6-16.9c0.4-3.7,3.1-7.1,0.1-11.5c-2.1,0.7-4.3,1.4-6.5,2c-2.2,0.6-4.5,1.3-6.8,1.3c-8.1-0.2-16.2-0.7-24.3-1
	c-9.4-0.3-18.8-0.9-27.6-4.4C860.8,275.2,854.9,272.5,848.9,269.8z M448.3,1341.8c0,1.8-0.1,2.6,0,3.3c1,9,6.3,15,14.2,18.5
	c6,2.7,11.8,2.6,18.2-1.2c6-3.6,9.1-9.6,14.7-13.2c0.4-0.2,0.4-0.9,0.7-1.4c4.2-7,2.4-14-0.2-20.8c-0.5-1.4-2.4-2.4-3.9-3.3
	c-10.6-6-19.6,2.4-29.5,3.3c-0.4,0-0.9,0.6-1.1,1.1C459.4,1334.9,453.4,1337.9,448.3,1341.8z M295.6,1320
	c-8.4-0.4-14.7,4.9-15.8,13.1c-0.3,2-0.4,5.1-1.6,5.8c-6.2,3.5-2.9,7.8-1.3,11.8c5.1,12.6,5.1,11.7,18.3,11.4
	c11-0.3,16.9-8.1,23.7-13.9c6.4-5.4,1.5-21.5-6.6-24.4C307,1322,301.2,1321.3,295.6,1320z"/>
<path fill-rule="evenodd" clip-rule="evenodd" d="M889.7,288c13.9,0,19.9,8.4,20,18.1c0,0.8,0.4,1.6,0.2,2.3
	c-1.7,10.2-20.4,17-28.4,10.4c-4.9-4.1-9.3-8.4-8.6-15.6c0.1-1-0.2-2.4,0.4-3c3.4-3.8,6.7-7.7,10.7-10.9
	C885.8,287.9,889,288.1,889.7,288z"/>
</svg>
