<?xml version="1.0" encoding="utf-8"?>
<!DOCTYPE svg PUBLIC "-//W3C//DTD SVG 1.1//EN" "http://www.w3.org/Graphics/SVG/1.1/DTD/svg11.dtd">
<svg artist="zl2017" version="1.1" id="zlIcon-users-group" xmlns="http://www.w3.org/2000/svg" xmlns:xlink="http://www.w3.org/1999/xlink" x="0px" y="0px"
	 width="1000px" height="1001.2px" viewBox="0 0 1000 1001.2" enable-background="new 0 0 1000 1001.2" xml:space="preserve">
<path fill-rule="evenodd" clip-rule="evenodd" d="M850.2,949.4c1.3,11.9,2.3,21.9,3.5,31.7c0.4,3,1.5,5.9,2.3,8.9
	c1,4.4,1.8,9.7-3.7,11c-5.1,1.1-6.7-3.6-8.6-7.9c-5.5-12.8-11.9-25.3-17.7-38c-1.9-4.2-4.9-5.8-9.3-5.6c-10.9,0.4-21.8,1.1-32.7,1
	c-7.8-0.1-15.6-1.1-23.4-1.8c-25.3-2.3-50.5-4.7-75.7-7.1c-2.6-0.2-5.2-0.9-7.7-1.7c-7.8-2.4-10.5-5.7-9.1-13.1
	c6.7-33.8,9.4-68.5,22.5-100.9c7.4-18.2,13.9-36.7,20.9-55.1c1.1-2.9,1.9-6.2,3.9-8.3c13.8-13.5,10.9-30,8.7-46.4
	c-2.2-16.1-1.2-31.6,7.6-45.6c7.9-12.5,15.1-26.1,25.5-36.4c16.8-16.6,38.3-24.3,62.3-22.3c11.8,1,23.3,3.6,33.8,9.8
	c20.3,12.1,37.3,47.6,34.3,71.1c-2.9,22.9-7.1,18.3,13.7,35.2c16.9,13.7,30.2,30.3,42.1,48.4c11.8,18,24.1,35.7,32,55.7
	c8.4,21.5,15.8,43.5,23.3,65.4c1,2.8-0.1,6.1,0.4,9.1c1.3,7.9-2.3,12.8-9.4,15c-12.9,4.1-25.8,8.2-38.9,11.7
	c-9.3,2.4-18.8,4.2-28.3,5.3c-6.5,0.8-9.4,4-10.4,9.8c-1.8,10.3-3.5,20.6-5.2,31c-0.4,2.2,0.1,4.8-1,6.4c-1.4,2.2-4,3.6-6,5.4
	c-1.4-2-3.6-3.8-3.9-5.9c-1.3-9.5-1.7-19.2-3.2-28.6c-1.4-8.7-2.7-13.8-14.6-11C870,947.8,861.2,948.1,850.2,949.4z M988.8,904.7
	c-1.6-17.2-6.2-32.3-12.4-46.7c-10.6-24.6-23.3-47.9-38.2-70.4c-13.1-19.8-30.5-33.3-50.7-44.2c-9.3-5-11.1-4.4-17.2,4.3
	c-9.8,13.9-22.5,24.7-37.1,32.8c-8.7,4.8-18.1,8.8-28.7,7.8c-19.9-2-38.9-6.4-54.6-19.9c-1.6-1.3-3.7-2-5.7-3.2
	c-20.7,17.4-34,39.1-43.3,63.7c-11.5,30.2-13.2,62.4-19.1,93.7c-0.6,3.1,0.5,6.6,0.9,10.4c15.9,1.2,30.8,1.7,45.5,3.7
	c44,6.1,88.1,4.7,132.2,1.9c36-2.3,71.1-9.5,104.4-23.9C972.4,911.4,980,908.4,988.8,904.7z M733.6,709.2c1.7,9.8,1.5,20.5,5.6,29.2
	c10.7,22.7,31.3,33.2,54.7,38.7c18.6,4.4,34.2-2.9,48.6-14.1c17.4-13.5,27.9-31.1,32.5-52.3c4.7-21.6,5.3-42.6-10.6-60.7
	c-0.6-0.6-0.9-1.5-1.3-2.3c-5.4-11.1-15.1-16.5-26.4-19.8c-4.2-1.2-8.7-1.3-12.8-2.7c-19.6-6.8-37.2,0.6-51.7,11.3
	C748.7,654,731.8,676.8,733.6,709.2z"/>
<path fill-rule="evenodd" clip-rule="evenodd" d="M293.7,907.2c-1.6-12.7-3.1-24.5-4.5-35.8c-27.8,1-54.3,1.9-81.3,2.9
	c-3.1,9.4-1.7,18.9-0.9,28.3c0.2,2.6,0.9,5.3,0.3,7.7c-0.4,1.7-2.5,3.9-4.1,4.3c-1.7,0.4-4.9-0.7-5.5-2c-3-6.2-5.6-12.6-8-19.1
	c-1.5-4.1-1.7-8.6-3.2-12.7c-2.2-6-5.9-10.3-13.2-11c-13-1.4-26-3.4-38.9-5.6c-5.5-1-11.1-2.6-16.1-5.1c-6.2-3.2-9.6-8.2-8.1-16.2
	c3.6-18,5.3-36.4,10-54.1c7.6-28.7,16.4-57.2,33-82.3c7.5-11.3,16.3-21.6,24.5-32.3c-1.1-10.1-3.1-20.8-3.1-31.5
	c-0.1-18.5,9.1-34.3,16.5-50.6c19.3-16.8,40-28,67-21c15.4,4,28.4,11.7,38.7,23.3c16.5,18.4,18.3,39.9,11.4,62.7
	c-1.7,5.8-4.6,11.2-7.2,17.4c5.7,5,11.2,9.3,16,14.2c36.5,37.9,55,83.4,57.2,135.8c0.2,4.8,1.3,9.5,1.9,14.3c0.6,5.6-1.5,9-7.3,10.5
	c-15.2,4-30.2,8.8-45.4,12.5c-5.4,1.3-8.6,3.4-10.1,8.7c-2.3,8-4.8,15.9-7.6,23.7C303.9,899.4,303.5,905.8,293.7,907.2z
	 M361.4,829.8c0.9-16,0.9-30.8-4.4-45.1c-3.9-10.7-7-21.7-11.3-32.2c-6.2-15-13-30-26.6-40c-7.6-5.6-15.2-12.6-25.6-11.3
	c-8.9,1.1-17.7,3.2-26.3,5.4c-19.6,5.2-39,5.8-57.8-2.3c-13.3-5.7-25.6-2.3-35.9,5c-12.5,8.9-22.5,20.9-27.9,35.8
	c-11.2,31-19.7,62.6-23,95.4c-0.9,9.1-0.2,10.7,9.1,12.4c8.1,1.5,16.5,1.8,24.8,2.6c20,2,40,5.6,60,5.7c32.3,0.2,64.4-4.3,96-11.6
	C329.6,845.9,345.6,839,361.4,829.8z M189.8,641.8c0,6.3-0.6,11.6,0.1,16.8c1.7,12.1,6.1,23.8,16.5,30.2
	c18.6,11.4,38.8,14.7,60.2,7.5c11.6-3.9,17.3-13.1,22.3-22.8c9.4-18.2,16.1-36.4,7.6-57.7c-5.1-12.9-14.7-20.6-25.1-27.6
	c-18-12.1-55.8-9.8-70.4,13.8C193.2,614.8,187.9,627.7,189.8,641.8z"/>
<path fill-rule="evenodd" clip-rule="evenodd" d="M143.1,557.5c-3.1-13.2,4.4-26.6-2.7-39.2c-9.9,0.5-19.8,1-29.6,1.4
	c-6.6,14.1,1.2,29.3-3.8,43.9c-6.2-1.5-8.6-4.1-9.7-9.1c-2-8.9-5-17.6-6.9-26.5c-1.7-7.9-6.6-10.2-14.1-10.9
	c-17-1.6-33.9-3.6-50.7-6.3c-6.7-1.1-13.5-3.6-19.6-6.7c-5-2.5-6.7-7.2-4.9-13.4c6-21,10.4-42.4,17.5-63.1
	c6.9-20.2,15.8-39.7,24.6-59.2c4.8-10.7,11.5-20.6,16.4-31.3c1.4-3,0.4-7.5-0.6-11c-3.9-13.9-8.6-27.7-6.4-42.5
	c3.5-23.9,14.7-43.3,35.9-55c12.8-7.1,27.7-7.2,42.3-6.1c23.5,1.8,42.2,13.9,58.9,29.2c14.1,12.9,14.3,30.4,12.4,47.7
	c-0.8,6.8-3.3,13.6-5.6,20.2c-1.9,5.5-1.2,9.6,2.7,14.4c15.6,19.1,28.2,40.2,37.9,62.8c4.9,11.5,6.6,24.4,9.5,36.7
	c3,12.8,5.8,25.6,8.3,38.5c2.5,12.5-0.2,18.1-12.6,22c-22.9,7.2-46,13.9-69.2,20.1c-5.8,1.5-9.7,4-11.4,9.4
	c-2.6,8.8-5,17.6-7.1,26.5C153.1,555.6,151.7,560.5,143.1,557.5z M77.6,353.2c-8,8.4-16.8,16-23.5,25.1
	c-24.7,33.5-31.4,73.7-40.2,112.9c-1.3,5.7,1.6,9.2,7.4,10.2c8.2,1.5,16.3,3,24.5,4.3c28.6,4.3,57.2,6.9,86.3,4.1
	c32-3.1,62.8-10.5,93.2-20.6c13.2-4.4,19.2-15.1,16-29.4c-5.9-26.6-13.1-52.8-26-76.9c-7.8-14.5-17.7-27.7-31.9-36.7
	C156.2,371.2,118.7,377.7,77.6,353.2z M128.7,234.6c-6.2,0-9.7-0.1-13.2,0c-21.6,0.7-41.2,14.7-46.7,35.6c-2.7,10.4-3.2,21.6-3,32.4
	c0.6,36.7,35.9,64,71.7,55.8c33.2-7.6,48.2-24.2,54.3-57.8c2.4-13.1,3.4-28.1-7.5-38.5C168.2,246.6,151.1,231.8,128.7,234.6z"/>
<path fill-rule="evenodd" clip-rule="evenodd" d="M576.4,242.4c-12,1-22.2,1.9-33.7,2.9c0,15.7,0,29.9,0,43.9
	c-6.7,1.6-9.3-0.4-10.5-5.9c-2-9.3-4.9-18.4-7.3-27.6c-1.8-7-5.6-9.9-13.3-9.2c-13.1,1.2-26.3,1.9-39.4,1.6
	c-9.5-0.2-19.1-2-28.5-3.8c-4.8-0.9-6.7-4.2-5.5-9.9c8.3-40.1,22-78.2,42.7-113.6c2.7-4.6,3.1-8.6,1.5-13.6
	c-1.6-4.9-1.7-10.3-3.2-15.2c-6.9-23,0.5-43.1,15.2-59.7c21-23.6,46.8-40.1,80-28.6C608.6,15.5,629.6,38.1,628,70
	c-0.5,9.1-1.2,18.2-2.9,27.2c-1,5.2,0.9,8.3,4.2,11.5c20.9,20.2,34.7,45,44.8,71.9c2.4,6.5,4,13.4,6.1,20.1
	c2.7,8.8,1.8,12.3-6.3,15.7c-7.6,3.2-15.6,5.8-23.6,7.9c-15.6,4.1-31.4,7.8-47.1,11.5c-5.8,1.4-9,5.1-10.2,10.7
	c-1.7,7.7-2.9,15.5-5.1,23c-0.8,2.8-3.5,7-5.7,7.2c-5.7,0.6-5.1-4.6-5.2-8.4C576.8,260.1,576.6,251.9,576.4,242.4z M613.7,121.9
	c-14.5,18.6-32.2,29.7-55.9,31.3c-23.6,1.6-42.3-8.8-59.7-22.2c-23.7,21.5-49.3,80.6-45.8,105.7c5.3,0.5,10.9,1.6,16.5,1.3
	c30.1-1.5,60.1-3.6,90.2-5c31.9-1.5,61.9-10.9,91.4-22.1c6.2-2.4,11.7-6.8,17.1-10.1C654.6,161.6,635.4,133.4,613.7,121.9z
	 M617.6,72.1c-1.1-6.8-1.2-14.1-3.5-20.5c-8.5-22.9-39.9-41-65.1-38.2c-42.2,4.6-69.8,46.2-57.8,86.5c5.2,17.5,18.7,26.8,33.1,35.3
	c12.1,7.2,25.5,8.8,39.3,6.6C593.2,137.1,619.9,104.9,617.6,72.1z"/>
<path fill-rule="evenodd" clip-rule="evenodd" d="M450.4,667.4c-2.7-5.2-5.2-10.3-7.9-15.3c-10.5-19.8,0.5-54.8,15.8-65.7
	c7.1-5,14.3-10,21.5-15c8.2-5.9,17.6-8.1,27.3-7.1c12.4,1.3,25.3,0.3,36.5,8.2c23,16.2,29,38.2,24,64.5c-0.4,2.2-0.3,4.5-1.2,6.4
	c-4,8.9,0,14.9,5.4,22.2c18.9,25.8,37.3,52.2,46.6,83.3c3.6,12,4.1,24.9,5.4,37.5c0.4,4.4-3.1,6.6-7.5,7.6c-16.6,3.8-33,8.1-49.6,12
	c-6.4,1.5-12.9,2.3-19.5,3.2c-7,0.9-11,4.6-12,11.7c-0.8,6.1-1.8,12.1-3.2,18.1c-0.9,4-2.6,7.8-4,11.7c-7.7-0.9-9-4.5-8.8-10.2
	c0.4-8.6,0.1-17.3,0.1-27.4c-8.5-0.5-15.2-1-22.2-1.4c-3.5,11.5-1.5,22-1.7,32.3c-0.1,5,2,12.3-5.6,12.3c-7.3,0-5.3-6.7-5.6-12
	c-0.8-11.1-3-22.1-4.4-31.9c-23.3-2.8-44.6-4.6-65.5-8.1c-17-2.9-14.8-8.4-13.4-19.6c4.2-32,17.6-60.1,33.9-87.4
	C440.5,688.1,445,678.1,450.4,667.4z M549.1,675.8c-3.7,2.7-6.8,5.3-10.2,7.2c-20,11.4-40.7,16.3-62.3,4.9
	c-5.5-2.9-9.8-2.7-14.3,1.1c-4,3.4-8.6,6.2-12.2,10c-22.2,24.2-31.4,54.1-36.6,85.5c-1.3,8.1,0.5,10.6,8.4,11.4
	c19.1,2.1,38.2,4.2,57.4,5c23.2,1,46.3-0.3,69.3-4.2c20.8-3.5,40.6-9.7,59.8-17.1C612.2,746.5,585.1,690.2,549.1,675.8z
	 M508.2,575.5c-21.2-0.4-50.3,20.8-57.9,41.5c-12,32.9,22.1,71.3,55.3,65.8c39-6.5,55.4-33.7,52.3-69.4c-1.1-13.1-7.5-24.4-22-28.1
	c-1.7-0.4-3.5-1.2-4.6-2.4C524.8,576.4,516.6,575.7,508.2,575.5z"/>
<path fill-rule="evenodd" clip-rule="evenodd" d="M368.5,541c1.9,8.8,3.4,16.8,5.3,24.8c1,4.2,1.1,8.9-3.5,9.7
	c-2.6,0.4-7.3-2.7-8.7-5.5c-3.8-7.3-6.4-15.3-9.3-23.1c-2.3-6.1-6.2-8.5-12.9-8.6c-14.4-0.4-28.8-1.6-43.2-2.8
	c-11.2-0.9-12.8-2.2-11.5-13.7c5.1-46.3,13.8-86.7,48.9-134.5c-1.7-4.9-3.8-10.1-5.5-15.4c-9.5-29.8-1.2-55.2,19.8-77.1
	c13-13.7,30.2-14.5,47.5-13.4c34.6,2.2,53.6,41.6,45.7,66.7c-2.9,9.1-5.5,18.3-8.5,28.5c12.9,15.4,22.8,33.8,29.3,53.8
	c3.2,10,6.4,20.1,8.1,30.4c2.2,13.8,2.9,27.8,4.3,41.8c0.8,8.1-2.8,13.9-9.8,16.9c-9.2,4-18.7,7.3-28.2,10.5
	c-5.4,1.8-11.1,2.5-18,4.1c-2.6,9.2-5,18.9-8.2,28.3c-0.9,2.8-3.9,6.7-6.2,6.9c-5,0.4-5.7-4-5.7-8.3
	C397.7,535.4,397.3,535.2,368.5,541z M463.9,508.9c-1.8-30.1-7.7-58.9-17.4-87.1c-4.8-13.9-16-21.1-26.8-30
	c-24,17.4-49.1,14-74.1,4.6c-36.4,36.4-45.1,82.5-50.7,131.6C352,532,408.3,534,463.9,508.9z M430.7,337.6
	c-0.8-5.2-0.6-10.7-2.6-15.4c-8.2-19.7-34.1-33-55.1-28.9c-2.5,0.5-5,1.4-7.4,2.5c-26.7,12.8-37.8,47.1-26.9,73
	c3.3,7.9,6.6,16.8,16,19.9c13.5,4.5,27.3,6.8,41.3,2.7C416.4,385.5,430.8,362.5,430.7,337.6z"/>
<path fill-rule="evenodd" clip-rule="evenodd" d="M656,574c-7,1.6-8-2.1-8.7-5.5c-1.7-7.7-2.9-15.5-4.7-23.2
	c-2.8-11.8-4.7-12.9-16.8-14.7c-11.2-1.6-22.4-3.6-33.6-5.9c-11-2.2-11.8-4.5-9.4-15.2c7.4-32.9,23-62.1,40.7-90.6
	c-9.7-18.7-14.7-38.6-8.1-59.2c12.3-38.3,44.6-57.9,85.9-52.5c20.6,2.7,33.3,14.4,43.4,32c12.5,21.6,14,43.6,7.5,66.8
	c-1.7,6.1-5.7,11.6-8.9,18.1c17.5,23.3,25.9,51.4,35.7,78.9c2.4,6.6,0.2,11.4-5.9,14c-9.2,3.9-18.4,8-28,10.6
	c-14.7,4-18.6,7.8-19.7,22.8c-0.3,3.5,0,7,0,10.8c-3.9,3.6-7.2,1.7-8.9-2.4c-1.3-3.1-1.3-6.8-1.8-10.3c-0.6-4.6-1.1-9.2-1.6-13.6
	c-18.5,0-35.5,0-52.6,0C654.5,547.8,656.8,561.1,656,574z M743.8,376.9c3.9-17.3-7.5-32.6-19.5-46.3c-14.2-16.1-33.6-19.6-54.2-13.4
	c-26.8,8-50.5,34.9-45.9,69.3c4.2,31,18.1,45.3,48.7,52C712.1,447.1,745.6,419.7,743.8,376.9z M594.2,514.6c2.4,1,3.5,1.9,4.7,2
	c18.2,2.3,36.5,4,54.5,7c24.6,4.1,48.9,0.5,73.2-2c8.2-0.8,16.2-3.7,24.1-6.2c6.7-2.1,12.9-5.3,16.8-12.6
	c-9.6-23.5-17.6-47.9-38.8-65.4c-29.9,23.2-59.3,12.5-88.8,1.1C614.9,457.7,598.9,482.2,594.2,514.6z"/>
<path fill-rule="evenodd" clip-rule="evenodd" fill="#FFFFFF" d="M988.8,904.7c-8.8,3.7-16.5,6.7-24,10
	c-33.3,14.4-68.5,21.7-104.4,23.9c-44,2.8-88.2,4.1-132.2-1.9c-14.7-2-29.6-2.4-45.5-3.7c-0.4-3.9-1.5-7.3-0.9-10.4
	c5.9-31.3,7.6-63.5,19.1-93.7c9.4-24.6,22.7-46.2,43.3-63.7c2.1,1.1,4.2,1.8,5.7,3.2c15.8,13.4,34.7,17.9,54.6,19.9
	c10.7,1.1,20.1-3,28.7-7.8c14.7-8.1,27.4-18.8,37.1-32.8c6.1-8.7,7.9-9.3,17.2-4.3c20.2,10.9,37.5,24.4,50.7,44.2
	c14.9,22.4,27.6,45.8,38.2,70.4C982.6,872.4,987.2,887.5,988.8,904.7z"/>
<path fill-rule="evenodd" clip-rule="evenodd" fill="#FFFFFF" d="M733.6,709.2c-1.8-32.4,15.1-55.1,38.6-72.7
	c14.5-10.8,32.1-18.1,51.7-11.3c4.1,1.4,8.6,1.5,12.8,2.7c11.2,3.3,21,8.7,26.4,19.8c0.4,0.8,0.7,1.6,1.3,2.3
	c15.9,18.1,15.3,39.1,10.6,60.7c-4.6,21.3-15.2,38.8-32.5,52.3c-14.4,11.2-30,18.4-48.6,14.1c-23.4-5.5-44-16-54.7-38.7
	C735.1,729.7,735.3,719,733.6,709.2z M816.5,707.2c-0.3-4.4-5.8-8.1-11.6-7.9c-5.6,0.3-9.5,4.7-9,10.4c0.4,4.9,4.6,8.4,9.8,8.2
	C811.3,717.6,816.8,712.2,816.5,707.2z M777.9,705.3c0.3-5.6-3.4-10.7-7.6-11.1c-4.1-0.4-9.7,4.1-10.2,8.2c-0.6,4.7,4.3,10,9.5,10
	C774.8,712.5,777.4,709.7,777.9,705.3z"/>
<path fill-rule="evenodd" clip-rule="evenodd" fill="#FFFFFF" d="M361.4,829.8c-15.8,9.3-31.9,16.1-49,20.1
	c-31.6,7.3-63.6,11.8-96,11.6c-20-0.1-40-3.7-60-5.7c-8.3-0.8-16.6-1.1-24.8-2.6c-9.3-1.7-10-3.3-9.1-12.4
	c3.3-32.9,11.8-64.5,23-95.4c5.4-14.9,15.4-26.9,27.9-35.8c10.3-7.3,22.6-10.7,35.9-5c18.8,8.1,38.2,7.4,57.8,2.3
	c8.7-2.3,17.5-4.3,26.3-5.4c10.4-1.3,18,5.7,25.6,11.3c13.6,10,20.4,25,26.6,40C350,763,353,774,357,784.6
	C362.3,799,362.3,813.8,361.4,829.8z"/>
<path fill-rule="evenodd" clip-rule="evenodd" fill="#FFFFFF" d="M189.8,641.8c-2-14.2,3.3-27,11.2-39.8
	c14.6-23.5,52.4-25.9,70.4-13.8c10.4,7,20,14.6,25.1,27.6c8.4,21.2,1.8,39.5-7.6,57.7c-5,9.7-10.7,19-22.3,22.8
	c-21.4,7.1-41.6,3.9-60.2-7.5c-10.5-6.4-14.8-18.1-16.5-30.2C189.2,653.4,189.8,648.1,189.8,641.8z M268.6,638.7
	c-2.8-7.1-8.6-7-14-5.6c-1.9,0.5-4.2,4.7-3.9,6.8c0.5,2.8,3,7,5.3,7.5C262.4,648.7,266.1,644.3,268.6,638.7z M232.9,634.4
	c-1.9-1.4-4.5-4.4-7.8-5.5c-4-1.3-8.8,4.1-9,9.1c-0.2,4,1.4,6.9,5.5,7.7C226,646.6,232.4,641.2,232.9,634.4z"/>
<path fill-rule="evenodd" clip-rule="evenodd" fill="#FFFFFF" d="M77.6,353.2c41.1,24.5,78.6,18,105.9-7c14.2,9,24.1,22.2,31.9,36.7
	c12.9,24.1,20.1,50.3,26,76.9c3.2,14.3-2.8,25-16,29.4c-30.4,10.1-61.2,17.5-93.2,20.6c-29.1,2.8-57.7,0.2-86.3-4.1
	c-8.2-1.2-16.4-2.8-24.5-4.3c-5.8-1-8.7-4.5-7.4-10.2c8.8-39.3,15.5-79.4,40.2-112.9C60.8,369.2,69.6,361.7,77.6,353.2z"/>
<path fill-rule="evenodd" clip-rule="evenodd" fill="#FFFFFF" d="M128.7,234.6c22.3-2.9,39.4,12,55.6,27.4
	c10.9,10.4,9.8,25.4,7.5,38.5c-6,33.6-21.1,50.1-54.3,57.8c-35.8,8.2-71.1-19.1-71.7-55.8c-0.2-10.8,0.3-22,3-32.4
	c5.5-20.8,25-34.9,46.7-35.6C119,234.5,122.5,234.6,128.7,234.6z M146.9,282.4c-5.2,0-11.2,5.5-11.4,10.5c-0.2,4.2,5.7,8.5,11.3,8.4
	c5.4-0.1,9-3.5,9.3-8.7C156.4,286.7,152.5,282.4,146.9,282.4z M113.1,283.9c-8.2-0.3-12.7,3.8-12.9,9.3c-0.2,5.5,2.5,8,7.9,8.1
	c6,0.1,11.4-3.7,10.5-9C118.1,288.9,114.5,285.9,113.1,283.9z"/>
<path fill-rule="evenodd" clip-rule="evenodd" fill="#FFFFFF" d="M613.7,121.9c21.7,11.4,40.9,39.7,53.9,78.9
	c-5.4,3.3-10.9,7.7-17.1,10.1C621,222.1,591,231.5,559,233c-30.1,1.4-60.1,3.5-90.2,5c-5.5,0.3-11.2-0.9-16.5-1.3
	c-3.6-25.2,22.1-84.2,45.8-105.7c17.4,13.4,36,23.8,59.7,22.2C581.5,151.6,599.2,140.5,613.7,121.9z"/>
<path fill-rule="evenodd" clip-rule="evenodd" fill="#FFFFFF" d="M617.6,72.1c2.3,32.9-24.5,65-54,69.7c-13.8,2.2-27.1,0.6-39.3-6.6
	c-14.4-8.5-27.9-17.8-33.1-35.3c-12-40.3,15.6-81.9,57.8-86.5c25.3-2.7,56.6,15.3,65.1,38.2C616.4,58,616.5,65.2,617.6,72.1z
	 M582.2,65.6c-6.1-2.6-11.9-5.2-15.8,1.2c-1.5,2.4-1.9,8-0.4,9.1c3.1,2.3,8,4.1,11.5,3.3C583.9,77.6,583.4,71.7,582.2,65.6z
	 M542.6,76.3c-0.4-6.8-6.3-11.3-11.6-10.8c-4.6,0.4-7.1,3-7,7.7c0.1,5.4,5.1,10.4,10.3,9.1C537.8,81.5,540.5,77.9,542.6,76.3z"/>
<path fill-rule="evenodd" clip-rule="evenodd" fill="#FFFFFF" d="M549.1,675.8c36,14.4,63.1,70.7,59.3,103.8
	c-19.2,7.4-39,13.6-59.8,17.1c-23,3.9-46.1,5.3-69.3,4.2c-19.2-0.9-38.3-3-57.4-5c-7.8-0.8-9.7-3.3-8.4-11.4
	c5.2-31.4,14.4-61.3,36.6-85.5c3.5-3.8,8.1-6.6,12.2-10c4.6-3.9,8.8-4,14.3-1.1c21.6,11.3,42.3,6.4,62.3-4.9
	C542.3,681.1,545.4,678.5,549.1,675.8z"/>
<path fill-rule="evenodd" clip-rule="evenodd" fill="#FFFFFF" d="M508.2,575.5c8.4,0.2,16.6,0.9,23.1,7.4c1.2,1.2,3,2,4.6,2.4
	c14.6,3.7,20.9,15,22,28.1c3.1,35.7-13.3,62.9-52.3,69.4c-33.2,5.5-67.3-32.9-55.3-65.8C457.9,596.3,487,575,508.2,575.5z
	 M521.1,616.6c-3.9,5.2-7.4,8.1-8.3,11.6c-1,4,5.2,8.2,10.1,7.7c4.8-0.5,7.6-3.5,6.3-7.9C528.1,624.5,524.9,621.7,521.1,616.6z
	 M484.1,619.6c-1.3,2-4.9,5.1-5.2,8.4c-0.4,4.4,2.7,8.2,8.2,7.8c5.1-0.4,7.6-3.8,7.8-8.6C495.2,622.7,490.9,619.1,484.1,619.6z"/>
<path fill-rule="evenodd" clip-rule="evenodd" fill="#FFFFFF" d="M463.9,508.9C408.3,534,352,532,295,527.9
	c5.6-49.1,14.3-95.2,50.7-131.6c25,9.3,50.1,12.7,74.1-4.6c10.9,8.9,22,16.1,26.8,30C456.3,449.9,462.1,478.7,463.9,508.9z"/>
<path fill-rule="evenodd" clip-rule="evenodd" fill="#FFFFFF" d="M430.7,337.6c0.1,24.8-14.3,47.9-34.7,53.9
	c-14,4.1-27.8,1.8-41.3-2.7c-9.4-3.1-12.7-12-16-19.9c-10.9-26,0.2-60.3,26.9-73c2.3-1.1,4.8-2,7.4-2.5c20.9-4.1,46.8,9.2,55.1,28.9
	C430.1,326.9,429.9,332.5,430.7,337.6z M410.4,338.5c-2.4-1.4-5.5-4.4-9-5.2c-4.9-1-11.4,4.5-10.9,8.7c0.6,4.9,4.1,7.6,8.8,8.1
	C403.5,350.5,410.2,344.4,410.4,338.5z M377.3,342.2c-0.3-4.9-4-8.1-8.8-7.2c-5,0.9-10,3.8-9.2,9c0.4,3.1,5,7,8.5,8
	C372.6,353.4,377.6,347.4,377.3,342.2z"/>
<path fill-rule="evenodd" clip-rule="evenodd" fill="#FFFFFF" d="M743.8,376.9c1.8,42.7-31.6,70.2-70.9,61.6
	c-30.6-6.7-44.5-21-48.7-52c-4.6-34.3,19.1-61.3,45.9-69.3c20.6-6.2,40-2.7,54.2,13.4C736.3,344.3,747.7,359.7,743.8,376.9z
	 M661.4,382.5c1.2-1.3,4.6-3.4,5.6-6.3c1.4-4.2-3.5-8.8-8.6-9.3c-4.6-0.5-9,3-9.2,7.2C649,378.3,653.4,382.1,661.4,382.5z
	 M712.6,379.5c-0.1-1.1-0.1-2.3-0.2-3.4c-3.1-1.4-6.1-3.7-9.4-4.2c-4.8-0.7-9,1.5-8.9,6.9c0.1,4.7,4.3,7.1,8.2,6.3
	C706,384.4,709.2,381.4,712.6,379.5z"/>
<path fill-rule="evenodd" clip-rule="evenodd" fill="#FFFFFF" d="M594.2,514.6c4.7-32.4,20.7-56.9,45.7-76.1
	c29.4,11.4,58.9,22.1,88.8-1.1c21.2,17.4,29.2,41.9,38.8,65.4c-3.9,7.3-10.1,10.5-16.8,12.6c-7.9,2.5-15.9,5.3-24.1,6.2
	c-24.3,2.5-48.6,6.1-73.2,2c-18.1-3-36.3-4.6-54.5-7C597.7,516.5,596.6,515.6,594.2,514.6z"/>
<path fill-rule="evenodd" clip-rule="evenodd" d="M816.5,707.2c0.3,5.1-5.2,10.4-10.9,10.7c-5.2,0.2-9.4-3.3-9.8-8.2
	c-0.5-5.7,3.4-10.1,9-10.4C810.7,699,816.2,702.8,816.5,707.2z"/>
<path fill-rule="evenodd" clip-rule="evenodd" d="M777.9,705.3c-0.5,4.4-3.1,7.3-8.3,7.2c-5.2-0.1-10.1-5.3-9.5-10
	c0.5-4.1,6.1-8.6,10.2-8.2C774.5,694.6,778.2,699.6,777.9,705.3z"/>
<path fill-rule="evenodd" clip-rule="evenodd" d="M268.6,638.7c-2.5,5.6-6.3,9.9-12.6,8.7c-2.3-0.4-4.8-4.7-5.3-7.5
	c-0.4-2.1,2-6.3,3.9-6.8C260,631.7,265.8,631.7,268.6,638.7z"/>
<path fill-rule="evenodd" clip-rule="evenodd" d="M232.9,634.4c-0.5,6.8-6.9,12.2-11.3,11.4c-4.1-0.8-5.7-3.7-5.5-7.7
	c0.2-5,5-10.4,9-9.1C228.4,629.9,231,632.9,232.9,634.4z"/>
<path fill-rule="evenodd" clip-rule="evenodd" d="M146.9,282.4c5.6,0,9.5,4.3,9.2,10.2c-0.3,5.2-3.9,8.6-9.3,8.7
	c-5.6,0.1-11.5-4.2-11.3-8.4C135.7,287.9,141.7,282.4,146.9,282.4z"/>
<path fill-rule="evenodd" clip-rule="evenodd" d="M113.1,283.9c1.4,2,5,5,5.5,8.4c0.9,5.3-4.5,9-10.5,9c-5.5-0.1-8.1-2.6-7.9-8.1
	C100.4,287.7,104.9,283.7,113.1,283.9z"/>
<path fill-rule="evenodd" clip-rule="evenodd" d="M582.2,65.6c1.2,6.1,1.7,12-4.7,13.6c-3.5,0.8-8.4-1-11.5-3.3
	c-1.4-1.1-1-6.7,0.4-9.1C570.3,60.4,576.1,63,582.2,65.6z"/>
<path fill-rule="evenodd" clip-rule="evenodd" d="M542.6,76.3c-2,1.6-4.8,5.2-8.2,6c-5.2,1.3-10.2-3.7-10.3-9.1
	c-0.1-4.7,2.4-7.3,7-7.7C536.3,65.1,542.2,69.5,542.6,76.3z"/>
<path fill-rule="evenodd" clip-rule="evenodd" d="M521.1,616.6c3.7,5.1,7,7.9,8.1,11.4c1.4,4.4-1.4,7.4-6.3,7.9
	c-4.9,0.5-11.1-3.6-10.1-7.7C513.7,624.7,517.2,621.8,521.1,616.6z"/>
<path fill-rule="evenodd" clip-rule="evenodd" d="M484.1,619.6c6.8-0.5,11,3.1,10.8,7.6c-0.2,4.8-2.7,8.2-7.8,8.6
	c-5.5,0.5-8.6-3.4-8.2-7.8C479.2,624.7,482.8,621.6,484.1,619.6z"/>
<path fill-rule="evenodd" clip-rule="evenodd" d="M410.4,338.5c-0.3,6-7,12.1-11.1,11.6c-4.7-0.5-8.2-3.2-8.8-8.1
	c-0.5-4.1,5.9-9.7,10.9-8.7C405,334.1,408,337,410.4,338.5z"/>
<path fill-rule="evenodd" clip-rule="evenodd" d="M377.3,342.2c0.3,5.2-4.7,11.2-9.6,9.8c-3.4-1-8-4.9-8.5-8c-0.7-5.2,4.2-8.1,9.2-9
	C373.3,334.2,377,337.4,377.3,342.2z"/>
<path fill-rule="evenodd" clip-rule="evenodd" d="M661.4,382.5c-7.9-0.4-12.4-4.2-12.2-8.5c0.2-4.2,4.6-7.6,9.2-7.2
	c5.1,0.5,10,5.2,8.6,9.3C666,379.1,662.6,381.2,661.4,382.5z"/>
<path fill-rule="evenodd" clip-rule="evenodd" d="M712.6,379.5c-3.4,2-6.6,4.9-10.3,5.6c-4,0.8-8.2-1.6-8.2-6.3
	c-0.1-5.4,4.2-7.6,8.9-6.9c3.3,0.5,6.3,2.7,9.4,4.2C712.5,377.2,712.6,378.3,712.6,379.5z"/>
</svg>
