<?xml version="1.0" encoding="utf-8"?>
<!DOCTYPE svg PUBLIC "-//W3C//DTD SVG 1.1//EN" "http://www.w3.org/Graphics/SVG/1.1/DTD/svg11.dtd">
<svg artist="zl2017" version="1.1" id="zlIcon-user-a" xmlns="http://www.w3.org/2000/svg" xmlns:xlink="http://www.w3.org/1999/xlink" x="0px" y="0px"
	 width="1000px" height="1350.3px" viewBox="0 0 1000 1350.3" enable-background="new 0 0 1000 1350.3" xml:space="preserve">
<path fill-rule="evenodd" clip-rule="evenodd" d="M374.7,1348.4c-35.1,8-40.1-10.4-43.9-27.7c-8.5-38.8-14.5-78.3-23.8-116.9
	c-14.3-59.5-23.5-65.2-84.5-74c-56.6-8.2-113-18.1-169.1-29.5C-2.1,1089-6,1077.8,6.2,1023.9C43.6,858.2,121.8,711.2,211,567.1
	c-49-94.3-74.1-194.3-40.7-298.2C232.2,75.7,395-22.6,603.2,4.4C707.1,17.9,770.8,77,822,165.4c63.2,109,70.6,219.9,37.8,336.4
	c-8.7,30.9-28.5,58.7-45,91.4c88.1,117.4,130.3,259.1,180,397.6c11.9,33.2,0.8,57.5-29.8,70.6c-46.2,19.8-92.7,40.4-141,53.6
	c-73.9,20.1-93.8,39.2-99.4,114.8c-1.3,17.5-0.2,35.1-0.2,54.4c-19.8,18.2-36.2,8.8-45.1-12.2c-6.7-15.7-6.6-34.4-8.9-51.8
	c-3-23.2-5.4-46.5-7.9-68.4c-93.4,0-178.8,0-265,0C367.2,1216.5,378.6,1283.4,374.7,1348.4z M816.9,355.6
	c19.8-86.9-37.9-164.3-98.4-233.1c-71.5-81.2-169.1-98.6-273-67.6c-135,40.3-254.2,176-231,349C235.4,560,305.6,632.3,459.7,666
	C657.6,709.2,826.1,570.9,816.9,355.6z M63.5,1049.2c12,5.3,17.7,9.4,23.8,10.2c91.6,11.7,183.7,19.9,274.7,35
	c124,20.6,246.3,2.3,368.7-10.3c41.1-4.2,81.5-18.6,121.4-31c33.7-10.5,64.9-26.6,84.5-63.5C888.4,871.3,847.9,748,741.3,660.1
	c-150.7,117.1-298.9,63.2-447.3,5.6C167.6,762.8,87.1,885.9,63.5,1049.2z"/>
<path fill-rule="evenodd" clip-rule="evenodd" fill="#FFFFFF" d="M816.9,355.6c9.2,215.4-159.4,353.6-357.2,310.4
	c-154.1-33.7-224.3-106-245.2-262.1c-23.2-173,96-308.7,231-349c103.9-31,201.5-13.6,273,67.6C779.1,191.3,836.7,268.6,816.9,355.6z
	"/>
<path fill-rule="evenodd" clip-rule="evenodd" fill="#FFFFFF" d="M63.5,1049.2C87.1,885.9,167.6,762.8,294,665.7
	c148.4,57.6,296.5,111.5,447.3-5.6C847.9,748,888.4,871.3,936.6,989.6c-19.5,36.9-50.7,53-84.5,63.5c-39.9,12.4-80.3,26.8-121.4,31
	C608.3,1096.7,486,1115,362,1094.4c-91-15.1-183.1-23.3-274.7-35C81.2,1058.6,75.6,1054.5,63.5,1049.2z"/>
<path fill-rule="evenodd" clip-rule="evenodd" d="M401.7,383.6c-40-1.8-62.5-21-61.3-42.6c1.2-21.3,23.2-38.4,46.4-36.2
	c25.5,2.5,50.2,26,43.2,46.9C425.1,366.4,407.9,377,401.7,383.6z"/>
<path fill-rule="evenodd" clip-rule="evenodd" d="M620.5,383.6c-40-1.8-62.5-21-61.3-42.6c1.2-21.3,23.2-38.4,46.4-36.2
	c25.5,2.5,50.2,26,43.2,46.9C643.9,366.4,626.7,377,620.5,383.6z"/>
</svg>
