<?xml version="1.0" encoding="utf-8"?>
<!DOCTYPE svg PUBLIC "-//W3C//DTD SVG 1.1//EN" "http://www.w3.org/Graphics/SVG/1.1/DTD/svg11.dtd">
<svg artist="zl2017" version="1.1" id="zlIcon-users-group-collection" xmlns="http://www.w3.org/2000/svg" xmlns:xlink="http://www.w3.org/1999/xlink" x="0px" y="0px"
	 width="1000px" height="788.8px" viewBox="0 0 1000 788.8" enable-background="new 0 0 1000 788.8" xml:space="preserve">
<path fill-rule="evenodd" clip-rule="evenodd" d="M146.3,371.1c-6.8,2.5-13.4,3.1-20.2,2.7c-5.3-0.4-10.6-0.4-16-0.5
	c-3.5-0.1-4.7,0.8-5.3,4.2c-0.6,3.4-2.5,6.8-0.8,10.5c5.8,3.2,12.2,2.6,18.4,2.9c0.3,4.5-0.3,5-4,4.5c-4.3-0.5-8.6-0.7-12.9-1.2
	c-1.8-0.2-3.6-0.7-5.8-1.2c-1.2-6.7-2.5-13.3-3.7-20.1c-4.6-0.1-8.8-0.2-13.1-0.2c-1.8,0-2.7,1.5-3.3,3c-1.8,4.8-3.6,9.7-5.1,14.6
	c-0.6,1.9-1.9,2.7-3.6,3.4c-3.9,1.7-7.9,3.4-11.8,5.1c-0.3,0.1-0.5,0.3-0.8,0.3c-1.4,0.2-2.9,0.8-3.8-1c-0.6-1.4,0.3-2.8,2.1-3.6
	c4.2-1.8,8.4-3.7,12.8-5.7c-0.1-3.9,0-7.7-0.4-11.3c-0.3-3.1-1-3.5-4.1-3.8c-5-0.4-10.1-0.5-15-1.3c-3.2-0.5-6.2-2.1-9.2-3.4
	c-1.6-0.7-2.3-1.9-1.8-3.8c0.6-2.8,0.8-5.6,1.3-8.4c1.1-7.2,2.6-14.4,3.4-21.7c1-8.5,3.6-16.5,6.3-24.5c1.1-3.2,2.1-6.6,3.4-9.7
	c1.8-4.2,3.9-8.3,6-12.8c-3-3.9-5.6-8.4-6.4-13.6c-1.8-11.6-0.7-22.6,7.1-32.1c2.4-2.9,4.6-5.9,7.4-8.3c3.1-2.5,6.9-4.1,10.1-6.5
	c3.1-2.4,6.9-2.5,10.4-3.6c0.3-0.1,0.6-0.2,0.8-0.1c13.4,2.1,25.9,5.6,34.3,17.8c6.8,9.9,7.9,20.5,5.4,31.6
	c-1.1,5.2-3.1,10.5-6.7,14.8c-1,1.3-1.5,2.4-0.5,4.3c2.8,5.4,5.6,11,7.9,16.7c4.4,11.2,8.7,22.5,12.6,33.9
	C144.7,351.9,146.1,361.3,146.3,371.1z M90.5,229.5c-9.1-0.3-9.1-0.3-16.3,4.6c-1.1,0.7-2.2,1.4-3.2,2.1c-7.5,5.2-12.8,11.8-14.4,21
	c-0.5,2.9-0.8,6-0.7,8.9c0.3,6.1,1.4,11.9,5.4,16.9c5.1,6.3,10.8,11.6,18.6,14.6c10.5,4,20.2,3.5,29.3-3.2c2.4-1.8,4.3-4.3,6.6-6.2
	c7.8-6.5,9.4-15.9,10-24.8c0.9-12.2-6.5-21.2-16.1-27.7C104.1,231.9,97.6,228.7,90.5,229.5z"/>
<path fill-rule="evenodd" clip-rule="evenodd" d="M958.5,568c-9.4,1.6-18.1,3.1-26.5,4.5c-2.7,3.9-1.6,7.9-1.7,11.7
	c-0.1,4.2,0.1,4.2-3.7,6.8c-2.2-1-2.5-3.2-2.5-5.1c0-3.7-2.1-6.5-3.6-9.6c-1-2-2.9-3.2-5.3-3.1c-9.3,0.3-18.4-2-27.7-2.9
	c-4.2-0.4-8.3-2.3-12.3-3.9c-3.9-1.6-4.5-5.4-4.6-9c0-3.7,0.2-7.5,0.7-11.2c0.4-2.7,1.3-5.2,2.1-7.8c0.6-2.1,1.2-4.1,1.8-6.2
	c1.4-4.5,2.6-9.1,4.4-13.4c1.1-2.6,3.2-4.7,4.8-7c2.4-3.4,4.9-6.7,7.4-10.1c2.8-3.6,2.7-5,0.3-8.6c-5.8-8.7-8.8-18.3-8.4-28.8
	c0.1-3.8,1.5-7.5,2.2-11.3c0.5-2.9,0.7-5.9,1.3-8.8c1-5.3,2.2-10.6,3.1-15.9c0.2-1.2-0.3-2.5-0.5-3.7c-0.2-1.4-0.6-2.8-0.4-4.2
	c0.1-0.8,1.2-1.8,1.9-1.9c0.6-0.1,1.7,0.9,2.1,1.6c0.5,0.8,0.5,1.9,0.7,2.9c1,3.4,2,6.8,3.1,10.9c1.1-1.1,2-1.7,2.3-2.4
	c1.3-3.3,2.4-6.6,3.5-10c0.2-0.7,0-1.6,0.4-2c0.6-0.7,1.5-1.3,2.3-1.4c0.5,0,1.4,1,1.5,1.7c0.2,1.4,0.1,2.9,0.1,4.3
	c-0.1,1.9,0.2,3.7,1.8,5.1c3-0.9,4.1-3.4,5.2-5.8c0.7-1.4,1.2-2.9,1.7-4.4c0.5-1.5,1.8-2.2,3-1.6c0.7,0.4,1.1,1.8,1.2,2.9
	c0.1,1-0.4,2-0.6,2.9c-0.5,3,0.1,4.3,2.1,4.9c2.3,0.8,4.6,0,5.7-2.5c0.8-1.7,1.1-3.5,1.5-5.3c0.2-0.8,0.1-1.8,0.4-2.5
	c0.3-0.5,1.1-1.1,1.6-1.1c0.5,0,1.3,0.7,1.4,1.2c0.4,1.2,0.8,2.5,0.8,3.7c-0.1,3,1.4,5.2,3.5,7.1c1.8,1.6,3.4,1.6,4.5-0.5
	c1.1-2.1,1.8-4.5,2.2-6.9c0.3-1.7,0.6-3.1,2.8-3.6c0.4,0.7,1.1,1.5,1.3,2.3c0.3,1.8,0.6,3.7,0.4,5.6c-0.3,3.4,0.9,6,3.7,8.2
	c1.9-1.2,2.9-2.9,3.2-5.1c0.2-1.6,0.5-3.1,0.9-4.6c0.2-0.5,1-1.1,1.6-1.1c0.6,0,1.5,0.6,1.6,1.1c0.2,1.2,0.3,2.5,0.1,3.7
	c-0.5,2.8-0.7,5.6,1.1,8.2c3-1.6,2.7-4.4,3.1-6.8c0.2-1.3,0-2.6,0.3-3.8c0.3-1.4,1.1-2.4,3.4-1.6c0,2.7,0.5,5.7,0,8.5
	c-0.8,4.3,0.8,8.2,1.1,12.4c0.3,3.8,1.1,7.6,1.9,11.4c0.5,2.5,1.7,4.9,2.1,7.4c0.6,3.6,1.1,7.3,1.3,11c0.2,5.6-1.8,10.6-4.5,15.4
	c-0.2,0.4-0.2,0.8-0.3,1.2c2.3,2.8,4.8,5.4,6.8,8.3c5.4,8.1,11,16,12.6,26c1.2,7.8,3,15.4,4.7,23.1c0.6,2.7-0.4,4.5-2.7,5.7
	c-6.9,3.6-13.8,7.3-20.8,10.8c-1.8,0.9-2.6,2.4-2.9,4c-0.4,2.8-0.4,5.7-0.5,8.5c0,0.8,0.4,1.9,0,2.5c-0.6,1-1.7,2.2-2.7,2.3
	c-1.6,0.1-2.3-1.2-2.5-2.9C960.2,575.8,959.4,572.4,958.5,568z M880.6,532.2c-0.6,1.7-1.2,3.3-1.7,4.9c-0.4,1.1-0.5,2.2-0.9,3.3
	c-1.7,5-1.9,10.1-1.8,15.3c0,2.8,1.1,5.7,4.3,6.8c6,2.2,11.8,4.8,18.5,4.3c5.2-0.3,10.5,0.7,15.8,0.7c6.7-0.1,13.5-0.4,20.1-1.2
	c10.8-1.4,21.7-2.6,31.7-7.2c1.2-0.5,2.5-0.8,3.6-1.3c4.7-2,9.4-4.1,14.1-6.1c1.6-0.7,2.4-2,2-3.8c-1.4-6.1-2.8-12.3-4.3-18.4
	c-0.3-1-1-1.9-1.6-3c-0.8,0.5-1.3,0.7-1.7,1c-4,3-6.2,7.5-8.8,11.6c-0.8,1.4-1.8,2.2-3.2,2.5c-2,0.3-3.1-1-2.2-2.9
	c0.7-1.5,1.8-2.9,2.6-4.5c3-6.4,5.6-12.9,4.5-20.2c-0.6-4.2-2.1-7.9-4.5-11.5c-3-4.6-3.5-4.9-7.4-1.1c-0.5,0.5-0.9,1.2-1.4,1.6
	c-1.8,1.4-3.5,3.1-5.6,3.9c-2.9,1.2-6.1,1.6-9.1,2.6c-8.6,2.6-17.2,2.9-25.8,0.3c-3.4-1-6.8-2.3-10.1-3.7c-2.6-1.1-4.7-1.1-7.2,0.7
	c-3.9,2.7-6.1,6.4-8.4,10.2c-2.3,3.9-2.8,8.1-0.7,12.3c1.6,3.2,3.4,6.3,5,9.5c0.8,1.5,1.5,2.9,2.3,4.4c-1.8,1.1-3.2,1.9-4.8,2.9
	c-2-2.6-4-5.1-5.9-7.6C886.3,535.8,884.2,533.5,880.6,532.2z M889.1,463.8c0.6,4.5,0.4,9.4,1.9,13.5c6,16.4,18.2,25.7,35.5,27.1
	c13.7,1.1,25.4-3.9,34.8-14.5c6.3-7.1,8.5-14.9,6.2-23.8c-1.3-5.2-3.1-10.5-5.5-15.2c-2.8-5.4-6.9-9.9-12.9-12.2
	c-8.1-3-16.4-5.2-25.2-4.8c-9.7,0.5-18.7,2.6-26.2,9.2c-1.5,1.3-2.7,2.9-3.8,4.5C890.5,452.5,889.4,458,889.1,463.8z"/>
<path fill-rule="evenodd" clip-rule="evenodd" d="M449.3,699.1c-1.9-2-3.6-4-5.4-5.8c-5.5-5.4-8-12.4-8.2-19.8
	c-0.1-4.9,1.6-9.8,2.9-14.7c2.3-8.7,8.4-14.9,14.3-21.2c1.9-2,4.8-3.1,7.1-4.9c6.8-5.3,14.7-7.6,23.1-8.3c3.6-0.3,7.4,0.9,11,1.8
	c4.7,1.2,9.2,2.7,13.8,4.1c6.5,1.9,13.3,3.3,17.5,9.2c2.6,3.7,5.1,7.6,6.8,11.8c2.8,6.7,3.5,13.9,3.4,21.1c-0.1,4.3-2,8-3.6,11.9
	c-1.1,2.8-2.4,5.5-3.8,8.2c-1.1,2.1-1.2,4.3-1.1,6.6c0.4,7.7,3.4,14.7,5.7,21.9c2.9,8.7,6.3,17.2,9.4,25.8c0.5,1.3,0.7,2.9,0.4,4.2
	c-1.3,6.4-3.5,11.8-11.1,13.6c-4.6,1.1-9.1,2.6-13.8,3c-1.9,0.2-3.3,1.1-4,2.8c-1.5,3.4-2.8,6.9-4.2,10.3c-0.3,0.7-0.2,1.4-0.5,2.1
	c-0.8,1.7-3.5,3.1-5,2.7c-2.1-0.6-2.4-2.3-2.4-4.1c-0.1-3.6-0.2-7.2-0.4-10.8c-0.1-2.1-1.1-3.2-3.2-3.3c-3-0.1-6-0.3-9-0.4
	c-2.2-0.1-3.6,0.9-4.5,3.2c-1.5,4.1-2.5,8.2-2.1,12.6c0.1,0.9,0.1,1.7,0.1,2.6c0,2-1.5,2.7-3.1,3c-1.7,0.4-2.4-0.8-2.7-2.1
	c-0.6-3.2-1.2-6.5-1.7-9.7c-0.3-2.1-0.8-4.3-0.9-6.4c-0.1-2.7-1.6-3.2-3.9-3.5c-7.8-0.8-15.7-1.7-23.5-2.7c-3.6-0.5-7.2-1.1-9.9-4.5
	c-3.7-4.5-3.6-9.4-2.2-14.2c2.1-7.1,4.5-14.3,7.5-21.1c3-6.8,4.6-13.8,6.1-20.9C448.8,702.1,449,700.7,449.3,699.1z M490.9,702.8
	c8.8-0.5,17.1-2.4,25.1-6.9c7.3-4.1,9.8-11.1,12.5-17.8c3-7.6,1.8-15.6-0.9-23.2c-2.1-6.1-5.8-11.4-11.5-14.6
	c-5.6-3.1-11.5-5.9-17.9-7.1c-5.9-1.1-11.6-2.4-17.7-1.1c-7.4,1.6-14.2,4.3-20.4,8.5c-2.9,2-6.3,3.4-8.2,6.7
	c-0.6,1.1-1.5,2.1-2.2,3.2c-4.3,7.4-8.1,14.9-7.3,23.8c0.6,7.6,3.9,13.6,10.5,17.8c6.2,4,12.9,6.5,20.1,8.2
	C478.9,701.6,484.9,701.9,490.9,702.8z M469.9,758.5c0-0.2,0-0.4,0-0.6c9,0.9,17.9,1.7,26.9,2.6c1,0.1,2.1,0.3,3-0.1
	c5.6-2.4,11.6-1.1,17.3-2.4c4.3-1,8.6-1.8,12.9-2.9c0.6-0.1,1.1-0.8,1.6-1.3c3.5-3.4,3.3-7.5,1.8-11.6c-1-2.8-2.6-5.4-3.7-8.2
	c-3.6-9.2-6.6-18.6-12.4-26.8c-2.5-3.4-3.3-3.9-6.9-1.9c-6.1,3.4-13,3.8-19.5,3.6c-8.9-0.3-18-1.5-26.7-4.1c-3.2-1-3.6-0.7-5.3,2
	c-0.5,0.7-1,1.4-1.3,2.2c-4.5,9.9-9.1,19.8-13.5,29.8c-1.8,4.2-3.6,8.5-3.5,13.2c0,1.5,0.1,2.9,2,3.3c5.2,1,10.4,2.2,15.6,2.8
	C462.1,758.7,466,758.4,469.9,758.5z"/>
<path fill-rule="evenodd" clip-rule="evenodd" d="M599,137.3c-0.8,1.8-1.4,3.4-2.2,4.8c-2.7,4.7-2.2,6.9,2.5,9.4
	c4.7,2.5,9.5,4.8,14.2,7.2c0.6,0.3,1.2,0.8,1.7,1.2c-0.9,3.3-2,4-4.7,3.3c-2.7-0.7-5.5-1.3-8.3-1.7c-2.8-0.5-5.7-0.6-8.5-1.2
	c-3.6-0.7-5.2-2.9-5.7-6.5c-0.5-3.8-1.2-7.6-1.9-11.4c-0.4-2.1-1.6-3.1-3.9-3.2c-3.9,0-7.6-0.5-11.6,0.1c-3.5,0.5-7.1-0.1-10.7-0.5
	c-3.3-0.4-4.4,0.1-5.6,3c-1.8,4.3-3.6,8.6-2.8,13.6c0.4,2.5-1.5,4.5-4.3,5c-6.3,1-12.2,2.7-17.3,6.8c-1.9,1.5-3.1,0-4.1-1.4
	c0.6-2.9,2.3-4.5,5.1-5.2c6-1.7,9.6-6.6,13.5-10.9c1.5-1.6-0.8-10.2-2.8-11c-1.5-0.5-3.2-1.1-4.6-0.9c-4.9,0.9-9.3-1.2-13.9-2
	c-2.8-0.5-5.5-1.9-8.3-2.3c-3.2-0.5-6.5-0.4-9.8-0.8c-2-0.2-4-0.5-5.8-1.4c-3.5-1.7-4.5-5.1-2.8-8.7c3.6-7.5,6.9-15.1,10.7-22.5
	c5.1-9.9,10.9-19.6,18.1-28.1c2.5-3,5.9-5.4,8.5-7.8c-0.9-5.6-2.1-10.5-2.5-15.4c-0.3-4.7-0.3-9.6,0.6-14.1c0.8-3.5,2.7-7.1,5.1-9.8
	c4.5-4.9,8.9-10.2,15.2-13.1c5.3-2.4,10.8-3.7,16.6-3.3c4.7,0.3,9.5,0.8,14,2c7.4,2,13.9,5.5,19.5,11.1c4.5,4.6,7.2,9.6,7.6,15.8
	c0.3,4.7-0.4,9.4-0.6,14.1c-0.1,4.3,0.8,8.3,3.1,12.1c5,8,9.8,16.2,12.9,25.2c3,8.6,5.8,17.2,8.8,25.9c0.8,2.3,1.8,4.5,2.5,6.8
	c1.3,4.8-1.3,8.8-6.1,9.7c-7.8,1.6-15.7,3.2-23.5,4.7C604.3,136.5,601.6,136.8,599,137.3z M535.9,68.6c-0.6,0.3-1.4,0.6-2,1.2
	c-5.5,5.3-10.2,11.3-13.1,18.4c-1.9,4.6-3,9.6-5.1,14.1c-2.8,6-3.2,12.4-3.3,18.8c-0.1,4.5,1.9,6.8,6.3,8.3c1.6,0.5,3.3,1.1,5,1.3
	c7.8,0.8,15.6,1.8,23.5,2.2c9.4,0.5,18.9,0.5,28.3,0.7c3.4,0.1,6.9,0.3,10.3,0c5.4-0.5,10.8-1.7,16.2-1.9c7.9-0.4,15.1-3.2,22.4-5.6
	c1.7-0.6,2.3-1.7,2.1-3.3c-0.2-2.4-0.3-4.9-0.9-7.2c-2.7-11-5.4-21.9-8.3-32.8c-1.4-5.1-3.9-9.8-7.5-13.9c-2.1-2.4-5.7-2.8-7.1-0.7
	c-3.3,4.8-7.6,8.4-12.7,11.2c-6.4,3.6-13.1,6.3-20.6,5.7c-4.8-0.3-9.8-0.3-14.4-1.4c-3.6-0.8-7.6-1.4-10.2-4.9
	C542,75.3,539,72.2,535.9,68.6z M604.9,36.9c0.3-7.1-5.3-15.6-12-18.9c-6.7-3.2-13.6-4.8-21-5.5c-6.3-0.7-12,0.1-17.4,3.1
	c-6.7,3.9-12.4,8.7-14.4,16.7c-0.7,2.6-1.8,5.2-2.4,7.8c-0.5,2.2-0.9,4.6-0.5,6.7c1.2,6.3,3.3,12.4,6.9,17.8
	c6.6,10.1,15.5,16.2,27.9,14.9c10.1-1,19.3-4.5,25.6-13.1c3.3-4.5,6.3-9.3,6.5-15.2C604.2,46.5,604.6,41.7,604.9,36.9z"/>
<path fill-rule="evenodd" clip-rule="evenodd" d="M362.3,277.2c-0.3-0.7-0.4-1.8-1-2.5c-3.9-4.7-5-10.6-6.2-16.3
	c-1.3-6.5-1.8-13-0.1-19.5c0.7-2.8,1.9-5.6,2.9-8.3c0.8-2,1.5-4.1,2.7-5.8c2-2.7,4.1-5.6,6.8-7.7c4.8-3.8,10.5-5.6,16.5-6.8
	c6.5-1.3,12.8-0.2,19.2,0.9c2.5,0.5,5.1,0.8,7.6,1.1c9.9,1.1,17,6.5,22.1,14.7c1.6,2.6,2.3,5.9,3.4,8.8c2.5,6.3,0.5,12.4-0.7,18.4
	c-0.9,4.9-2.2,9.8-3.9,14.5c-1.1,3.1,0.2,4.8,2.1,6.7c2.7,2.7,5.6,5.4,7.9,8.4c4.7,6.2,9.1,12.8,12,20.1c2.9,7.1,4.4,14.8,6.8,22.1
	c1.7,5.3,1.3,10.8,1.2,16.1c0,5.2-2.5,7.6-8.6,9c-5.3,1.3-10.6,2.5-15.9,3.6c-3.4,0.7-6.8,1.1-10.4,1.7c-3.1,4.2-5.7,8.9-4.9,14.7
	c0.3,2.1-1.5,2.5-2.7,3.4c-1.9-0.6-2.5-1.9-2.7-3.6c-0.6-3.4-1.4-6.8-2.1-10.1c-0.4-1.8-1.2-3.4-3.3-3.4c-6.7-0.2-13.4-0.2-20.5-0.3
	c-0.4,5.6-1.9,10.7-0.9,16c0.5,2.5,0,4.5-3.2,5.7c-0.6-1-1.6-2-2-3.2c-1.6-4.3-2.7-8.8-4.5-13c-0.9-2.3-2.5-4.5-4.3-6.3
	c-0.8-0.9-2.7-0.9-4.1-1c-5.7-0.7-11.4-1.1-17.1-2c-3.7-0.6-7.2-1.8-10.8-2.8c-3-0.8-4.3-3-4.7-6c-1.2-10.2-1-20.3,1.7-30.3
	c2.8-10.3,7.5-19.8,13.9-28.4C357.1,282.8,359.7,280.2,362.3,277.2z M367.8,283c-1.8,1.8-3.2,3.4-4.7,4.8c-1.6,1.6-3.5,2.9-5,4.6
	c-2.3,2.7-4.9,5.4-6.4,8.5c-2.1,4.5-3.5,9.4-4.9,14.1c-0.9,3.1-1.7,6.4-2,9.7c-0.5,5.1-0.5,10.3-0.6,15.4c0,1.3,0.1,2.6,0.5,3.8
	c0.3,0.8,1.1,1.8,1.9,2c4.1,1.2,8.2,2.5,12.4,3.1c6.8,0.9,13.7,1.4,20.6,1.8c4.5,0.2,9-0.2,13.5-0.1c3.4,0.1,6.8,0.7,10.2,0.7
	c7.1-0.1,14.2-0.5,21.3-0.7c0.7,0,1.4-0.2,2.1-0.4c3.5-0.8,6.9-1.7,10.5-2.3c6.7-1.1,12.5-4.4,18.8-7c-0.5-5.4-0.4-10.7-1.7-15.6
	c-1.8-7.2-3.8-14.2-7.5-20.9c-4.9-8.9-11.1-16.2-19.6-21.7c-1.4-0.9-2.5-1.2-3.9-0.1c-1.6,1.2-3.3,2.2-4.8,3.4
	c-4.9,4-10.6,6-16.8,6.9c-3.7,0.5-7.1-0.2-10.6-0.5C382.2,291.6,374,289.7,367.8,283z M397.1,287.2c11.8,0.1,20.5-4.5,26.4-14.1
	c5.1-8.4,7.8-17.6,8.7-27.2c0.4-4,0.4-8.4-1.8-12.2c-2-3.3-4-6.7-6.5-9.6c-1.7-2-4-3.9-6.5-4.6c-6.2-1.7-12.5-3.5-18.9-3.8
	c-7.2-0.3-14.6,0.3-21.6,3c-0.8,0.3-1.7,0.5-2.3,1c-6.4,5.3-11.4,11.5-13.7,19.7c-2.3,8.2-0.9,16.1,1.1,24.1
	c0.6,2.2,1.4,4.4,2.7,6.2C372.9,280.6,384,286.3,397.1,287.2z"/>
<path fill-rule="evenodd" clip-rule="evenodd" d="M625,593.8c-1.9,1.2-3.4,2.1-5.2,3.1c-0.6-1-1.2-2.1-2-3.1
	c-3-3.8-5.9-7.7-9.1-11.4c-0.6-0.6-2.1-0.7-3.2-0.6c-1.4,0.1-2.8,0.7-4.2,1.1c-2.4,3.6-2.8,7.5-1.9,11.8c0.6,2.8,0.4,5.7,0.5,8.6
	c-1.1,1-2.3,2-3.8,3.3c-1.1-1.7-2.4-3.4-3.3-5.2c-1.6-3.2-3.1-6.5-4.3-9.8c-1-2.9-3.3-4.6-5.4-6.5c-0.7-0.6-2.1-0.7-3.2-0.6
	c-7.6,0.6-15.2,0.1-22.7-1.5c-3.9-0.9-8-0.7-12-1.3c-7.4-1.2-14.7-2.5-22.1-3.8c-0.6-0.1-1.1-0.2-1.6-0.5c-1.6-0.9-4-6.8-3.6-8.8
	c0.6-3.4,1.4-6.7,1.7-10.1c1-10.4,4.6-20.1,8.3-29.7c1.1-2.8,1.9-5.7,3.3-8.4c2.2-4.3,4.8-8.4,7.1-12.7c3.2-5.9,7.4-11.1,12-15.8
	c-3.1-5.4-6.5-10.3-7.3-16.3c-0.8-6.1-0.7-12,2-17.7c0.4-0.9,0.7-1.9,0.9-2.9c1.2-5.3,4.7-8.9,8.8-11.8c4-2.8,8.3-4.8,13-6.3
	c7.9-2.5,15.4-2.6,23.4-0.8c7.2,1.6,13.5,4.4,19.3,8.9c6.8,5.3,10.1,12.4,11.5,20.4c0.9,4.7,1.5,9.5,0.8,14.5
	c-0.4,2.9,0.1,6.2,1.6,9.4c2.9,6.2,4.7,12.9,7.3,19.3c1.6,3.9,3.5,7.8,5,11.7c1.9,4.9,4,10,4.9,15.4c0.8,4.8,2.1,9.5,3,14.3
	c1,5.3,1.7,10.7,2.5,16.1c0.1,0.7-0.2,1.9-0.8,2.2c-2.9,1.9-5.8,3.9-8.9,5.3c-3.1,1.4-6.4,2.3-9.6,3.4c-1.4,0.5-3.5,0.8-4,1.9
	c-1.2,2.2-2.3,4.6-1.2,7.4C623.8,588.7,624.3,591.4,625,593.8z M554.1,495.9c-15.4,14.3-32.2,52.3-29.1,77.7
	c2.3,0.4,4.7,0.8,7.1,1.2c8,1.4,16,3.5,24.2,3.5c1.7,0,3.4,0.5,5.1,0.7c5.4,0.5,10.8,1.7,16.1,1.3c4.9-0.4,9.9-1.3,14.8-1.8
	c7.9-0.8,15.7-2.7,23.5-4.2c2-0.4,3.9-0.7,5.8-1.3c6.2-1.9,12.5-3.9,18.8-5.9c-0.9-4.6-1.7-8.7-2.3-12.7
	c-2.5-17.5-5.9-34.8-14.3-50.6c-1.3-2.5-2.8-5-4.5-7.3c-1.9-2.5-3.3-2.6-5.1-0.1c-3.8,5.2-9.8,6.6-15.2,9
	c-5.9,2.6-12.2,1.9-18.2,1.4c-6.2-0.5-12.5-1.6-18-5C560,499.8,557,497.8,554.1,495.9z M549.4,467.1c0.8,3.9,1.7,7.8,2.4,11.7
	c1.1,6,4.3,10.6,9.3,13.9c8.7,5.7,18.1,8.8,28.8,8.1c6.6-0.4,12.3-2.2,17-6.8c7.6-7.5,11.6-16.1,10-27.4
	c-1.2-8.5-6.7-13.4-12.2-18.6c-4.5-4.2-10.5-5.9-16.4-7.1c-4.2-0.8-8.7-0.7-12.9-0.3c-2.9,0.3-5.7,1.9-8.5,2.7
	C556.2,446.6,549.6,455.9,549.4,467.1z"/>
<path fill-rule="evenodd" clip-rule="evenodd" d="M825.2,754.3c-0.9,6.4-1.8,12.9-2.7,20.1c-0.4,0.4-1.6,1.6-2.9,3
	c-2.6-0.6-2.7-3.1-3-5.3c-0.6-4.1-1-8.3-1.5-12.4c-0.4-3.3-0.7-3.7-4-3.6c-4.6,0-9.1,0-13.5,1.8c-1.1,0.4-2.5-0.1-3.8,0
	c-10,0.9-20,2-30,2.7c-2.5,0.2-3.5,1-4,3.4c-1.1,4.7-1.2,9.3,0.5,13.9c0.5,1.4,1.4,2.8-0.5,4.2c-0.7,0.5-0.6,2.1-0.9,3.1
	c-1.9,0.9-2.7-0.2-3.4-1.6c-2.7-6.2-5.5-12.3-8.1-18.5c-0.9-2.3-2.1-3.3-4.7-3.5c-4.2-0.2-8.5-1-12.7-1.7c-4.5-0.8-7.5-3.6-9-7.7
	c-0.5-1.4-0.7-3.1-0.3-4.5c1.8-6,3.8-12,5.7-18c1.2-4,2.3-8,3.5-11.9c1.6-5.5,3.2-11,5.1-16.3c1.2-3.4,2.8-6.6,4.2-9.8
	c0.8-1.8,1.2-3.5,0.1-5.3c-0.3-0.6-0.6-1.3-0.7-2c-0.8-9.7-0.2-19.1,4.5-28c7.2-13.6,19-20,33.5-22.4c1.7-0.3,3.4-1.2,5-1.1
	c3,0.2,6,0.5,8.8,1.4c6.4,1.8,12.5,4.3,17.4,9c7.2,6.9,12.8,14.7,14.9,24.7c0.7,3.1,1.8,6.2,1.8,9.3c-0.1,4.1-0.6,8.3-1.8,12.2
	c-1.3,4-0.6,7.3,1.1,10.8c2.4,4.9,5.2,9.6,7.1,14.7c2.7,7.2,5.5,14.5,6.8,22.1c0.4,2.1,0.8,4.2,0.9,6.4c0.2,5-1.7,7.6-6.5,9.2
	C830,753.1,827.8,753.6,825.2,754.3z M745,697.2c-1.4,3.1-3,5.9-4.1,9c-1.2,3.3-2,6.9-3.1,10.3c-3.2,9.3-6.6,18.6-9.7,28
	c-0.7,2.2-0.6,4.8-0.4,7.1c0.2,2.3,1.7,3.9,4.2,4.2c2.6,0.3,5.1,0.7,7.7,0.7c6-0.2,12-0.7,18-1.1c6.4-0.4,12.8-0.7,19.2-1.4
	c6.7-0.6,13.3-1.6,20-2.4c8.8-1,17.6-2,26.4-3.2c2.1-0.3,4.2-0.9,6.2-1.6c3-1.1,3.8-3,3-6.2c-0.3-1-0.7-1.9-1-2.8
	c-3.6-9.3-8.2-18.3-10.6-28.1c-0.6-2.5-1.9-4.9-2.9-7.3c-2.9,0.2-4.1,2.2-5.8,3.4c-1.3,1-2.7,2-4.3,2.7c-2.6,1.1-5.5,1.6-8,3
	c-6.1,3.4-12.4,4.5-19.4,4.2c-9.1-0.4-17.1-3.2-24.2-8.7C752.5,704.2,749.1,700.9,745,697.2z M819.1,680.8c0-1.3,0.2-2,0-2.7
	c-1.5-6.7-2.3-13.6-7.2-19.1c-1-1.2-1.7-2.6-2.4-4c-3.4-6.3-9.3-9-15.7-10.9c-2.1-0.6-4.2-0.9-6.3-1.5c-7.4-2.1-14.7-2.5-21.7,1.4
	c-2,1.1-4.2,1.9-6.2,2.9c-0.9,0.4-1.8,1-2.5,1.7c-3.8,4.4-8.2,8.3-10.6,13.8c-2.1,4.9-3.1,9.8-2.3,15c0.4,2.5,0.6,5,2.5,7.2
	c1.2,1.3,0.7,3.7,2.2,5.4c7.1,7.8,15,14.7,24.9,18.8c5.7,2.3,11.3,4.3,17.9,2.2c7.4-2.4,14.3-5.4,19.3-11.5c1.9-2.2,2.4-5.7,4.4-7.7
	C818.7,688.4,818.2,684.2,819.1,680.8z"/>
<path fill-rule="evenodd" clip-rule="evenodd" d="M448.4,595.6c-2.1-5.2-4.1-10.2-6.4-15.7c-7.8,1.7-15.7,3.4-23.8,5.2
	c-0.8,7.2,0.6,14,2.3,21c-1.2,0.6-2.4,1.3-3.7,2c-2.4-1.1-2.7-3.6-3.7-5.5c-2.3-4.8-4.7-9.5-6.9-14.3c-0.8-1.8-2.2-2.4-4.1-2.7
	c-10.5-1.4-21-2.8-31.5-4.2c-2.4-0.3-4.9-0.7-7.1-1.6c-2.4-1.1-4.4-2.9-6.5-4.5c-0.3-0.3-0.4-1.1-0.4-1.6c0.6-6.4,0.8-12.9,1.9-19.1
	c1.6-9,3.7-18,6-26.8c0.9-3.5,2.9-6.8,4.8-10.1c3.4-5.8,6.9-11.5,10.5-17.2c0.7-1.1,1.4-2.2,2.2-3.2c2-2.6,2.2-3.3,0-5.5
	c-3.1-3-5-6.6-6.2-10.6c-2.4-8.2-1.6-15.8,3.6-22.7c9.2-12.1,21.6-17.5,36.6-17c4.7,0.1,9.4,0.4,14,1c2.9,0.4,5.7,1.7,8.5,2.7
	c1.2,0.4,2.2,1.3,3.4,1.8c11.4,5.2,15.2,14.9,15.5,26.6c0.1,3.8-0.6,7.7-1.1,11.5c-0.4,2.8,0.4,4.9,2.2,7
	c4.6,5.7,8.8,11.6,13.4,17.3c3.1,3.9,3.9,8.6,5.3,13c1.8,5.4,3.5,10.9,5,16.4c1.4,5.2,2.5,10.6,3.5,15.9c0.2,0.9-0.4,2.3-1.1,3
	c-4.3,4.4-9,8.4-14.7,10.9c-4.1,1.8-8.1,3.8-12,5.9c-1,0.5-1.8,1.7-2.3,2.7c-1.9,4.2-2.5,8.7-2.5,13.4
	C453,594,452.7,594.1,448.4,595.6z M450.3,497.7c-1.2,1-2,1.9-3,2.4c-6.2,3.3-12.2,7.1-19.6,8c-4.1,0.5-8,0.7-11.9-0.4
	c-0.5-0.2-1.1-0.2-1.7-0.2c-3.5-0.5-7.1-0.8-10.5-1.7c-3.3-0.9-6.4-2.5-9.5-4c-2-1-3.6-1.4-5.3,0.6c-3.5,3.9-7.5,7.5-10.8,11.6
	c-1.9,2.3-2.9,5.2-4.2,7.9c-3.8,8.1-5.1,17-7.5,25.5c-2,7-3.8,14-3.8,21.5c0,4.8,0,5.1,5,6.1c2.7,0.6,5.3,1.3,7.9,1.9
	c10.8,2.3,21.6,4.3,32.8,2.8c3.1-0.4,6.3-0.4,9.4-0.9c4.8-0.7,9.7-1.3,14.4-2.5c6.1-1.5,12.1-3.3,18-5.5c4.8-1.8,9.7-3.7,14-6.5
	c4.4-2.9,8-6.9,12-10.4c2.6-2.3,3-4.9,1.9-8.1c-2.8-8.6-5.5-17.2-8-25.8c-1.9-6.6-5.5-12-10.3-16.6c-1.2-1.2-2.9-2.7-4.3-2.6
	C453,500.7,451.9,499.1,450.3,497.7z M380.3,470.3c-0.2,10,4.2,18.1,9.7,21.9c12.8,8.9,27,12.2,42.4,8.9c6.4-1.4,12.4-4.3,15.9-10.1
	c4.7-7.7,6.3-15.9,2.9-24.7c-0.4-1.1-0.6-2.2-1.1-3.2c-1.6-3-2.7-6.7-5.1-8.8c-3.5-3.1-7.8-5.5-12.5-6.2c-7.3-1.1-14.5-3-22-1.8
	c-3.6,0.6-7,1.1-10.3,2.8c-2.3,1.2-4.5,2.3-6.8,3.6C385.8,456.8,381.6,463.4,380.3,470.3z"/>
<path fill-rule="evenodd" clip-rule="evenodd" d="M743.4,144.3c-1.3-3.6-1.2-8.3-5.5-10c-3.1-1.2-6.7-1.9-10-1.7
	c-9.5,0.5-18.4-2.4-27.7-3.4c-2.3-0.3-3.2-1.9-3-4c0.3-3.9,0.7-7.7,1.4-11.5c1.4-7.4,2.9-14.9,4.6-22.3c0.6-2.6,1.7-5.2,2.7-7.7
	c2.5-5.9,5-11.8,7.7-17.7c1.2-2.6,2.6-5.1,4.3-7.4c1.4-1.8,1.1-3.4,0.3-5.2c-0.9-2-1.8-3.9-2.6-5.9c-1.5-3.7-1.7-7.4-1.1-11.4
	c0.7-5,1-10,3.7-14.5C723,13.6,729,6.9,739.1,5.6c0.3,0,0.6,0,0.9-0.1c13-4.8,23.7,0.8,34.1,7.6c4.6,3,6.3,8.1,8.2,12.9
	c1.5,3.7,2.5,7.7,2.9,11.6c0.3,3-0.6,6.2-1,9.3c-0.1,1-0.3,1.9-0.4,2.9c8.2,2.1,11.6,8.4,14.9,15c4.2,8.4,6.8,17.3,9.4,26.3
	c1.5,5.5,3.6,10.8,5.4,16.2c0.2,0.7,0.3,1.4,0.5,2.1c0.8,4,1.5,8.1,2.5,12.1c0.8,3.3-0.9,6.1-4.3,6.5c-6.3,0.8-12.5,1.3-18.8,2
	c-1.1,0.1-2.3,0.1-3.4,0.2c-2.6,0.3-4.6,1.5-5.2,4.4c-0.4,1.7-0.8,3.3-1.1,4.7c6.1,4.9,13.6,3.5,20.3,5.5c0,2.5-0.9,3.5-3.1,3.2
	c-5.7-0.7-11.4-1.2-17.2-0.4c-3,0.4-4.2-0.4-5.2-3.4c-0.8-2.4-1.1-5-1.5-7.6c-0.2-1.3-0.2-2.5-0.3-3.9c-1.1-0.3-2-0.9-3-0.8
	c-7.7,0.5-15.4,1.2-23.3,1.9c-1.1,5.3-3.3,10.2,0.5,15.6c-1.7,0.5-3,1-4.3,1.3c-5.2,1.5-10.5,2.9-15.7,4.4c-0.7,0.2-1.4,0.5-2.1,0.5
	c-1.5,0.1-3,0.2-3.3-1.8c-0.3-1.9,0.9-2.8,2.5-2.8c4,0.1,6.9-2.6,10.3-4C739.7,146.3,741.2,145.4,743.4,144.3z M704.5,125.2
	c4.4,0.3,8.6,0.2,12.6,1c6.7,1.4,13.4,1.5,20.1,1.2c5.7-0.2,11.4-0.9,17.1-1.4c2.4-0.2,4.9-0.3,7.3-0.6c8.7-1,17.3-2.5,26-3.2
	c6.5-0.5,12.7-1.6,19-3.3c2-0.6,3.1-1.6,2.9-3.6c-0.2-2.4-0.4-4.9-1.1-7.2c-1.9-6.5-4.4-12.8-5.9-19.3c-2-8.3-5.2-16.1-9.3-23.5
	c-1.5-2.6-2.9-5.3-4.5-7.8c-2.3-3.4-7.5-3.6-9.4-0.1c-2.5,4.6-6,8-10.5,10.5c-1.1,0.6-2.1,1.6-2.6,2.7c-1.2,2.5-1.9,5.1-3,7.6
	c-0.7,1.7-0.5,3.1,0.8,4.3c1.6,1.6,3.2,3.3,5,4.7c3.3,2.4,3.5,2.7,1.9,6.5c-1,2.2-2.3,4.4-2.8,6.7c-0.8,3.8-2.9,7.5-1.8,11.7
	c0.5,1.9-1.2,3.3-3,3.4c-1.9,0.1-3.3-1.3-3.2-3.2c0.4-8.5-2.4-15.9-7.7-22.4c-1.3-1.7-1.3-3,0.1-4.5c0.8-0.8,1.7-1.6,2.2-2.6
	c0.4-0.8,0.9-2.3,0.5-2.7c-2.7-3.2-3.2-9.1-9.5-8c-0.4,0.1-0.9-0.1-1.2-0.3c-6.4-3-13.3-5.1-19-9.6c-2.6-2.1-3-1.8-5.1,0.9
	c-4.9,6.5-7.2,14.3-10.2,21.7c-3.4,8.6-5.4,17.5-6.1,26.7C703.8,116.4,702.6,121.1,704.5,125.2z M751.9,8.9
	c-2.2,0.3-5.5,0.8-8.7,1.2c-6.5,0.8-12,4-16.8,8.1c-5.4,4.6-7.2,11.1-8.2,18c-0.9,6.5,0.5,12.5,4.3,17.5c8.4,11.2,20.2,15.7,34,14.6
	c5.8-0.4,10.7-3.9,15.5-7c12.9-15.4,11.9-29,2.3-43.7c-0.4-0.6-0.9-1.1-1.5-1.5C766.9,11.9,760.3,9.3,751.9,8.9z"/>
<path fill-rule="evenodd" clip-rule="evenodd" d="M785.9,587.4c-1.4,0.9-2.3,1.5-3.6,2.4c-0.8-1.1-1.8-2.2-2.4-3.4
	c-1.3-3-2.2-6.2-3.4-9.2c-1.5-3.8-1.9-4.1-6-4.1c-5.9-0.1-11.7-0.1-17.6-0.3c-1.9-0.1-3.1,0.4-3.7,2.2c-1.1,3.5-2.3,7.1-3.2,10.7
	c-0.6,2.2-0.8,4.5-1.2,6.7c-3.9,2.2-4.7,2-5.9-1.9c-1.5-5-2-10.1-2.3-15.2c-0.1-1.3-0.2-2.5-0.4-4.2c-5.2-1-10.4-2-15.6-2.8
	c-6.5-1.1-13-2.1-19.1-4.9c-1.7-0.8-3.2-1.8-4.9-2.7c-0.7-0.4-1.5-0.7-2.2-0.8c-2.6-0.3-3.5-1.2-3.3-3.8c0.7-7.7,2.1-15.2,4.7-22.6
	c2.1-5.9,3.8-12,5.5-18.1c1.2-4.2,3.3-7.9,5.4-11.6c2.4-4.2,4.3-8.6,6.3-13c0.3-0.6,0.3-1.7,0-2.3c-4.3-8.2-3.8-17-2.9-25.7
	c0.6-6.3,1.2-12.7,4.6-18.2c2.6-4.4,5.2-9,8.6-12.8c2.4-2.7,5.9-4.5,9.3-6c4.6-2,9.3-3.8,14.2-4.8c5-1.1,10.1-1.3,15.3,0.1
	c6.9,1.9,13.4,4.3,18.8,9.2c1.9,1.7,4.1,3.2,6.3,4.5c4.5,2.8,7.2,6.9,8.5,11.9c2,7.7,3.3,15.4,1.6,23.4c-0.5,2.2-0.2,4.6-0.4,6.9
	c-0.2,2-0.8,3.9-0.9,5.8c-0.1,1.8-0.2,3.8,0.5,5.4c1.3,3.5,3.2,6.7,4.7,10.1c1.9,4.3,3.7,8.7,5.6,13c2.3,5.4,4.8,10.7,7.1,16.1
	c2.6,6,5.2,12.1,7.5,18.2c2.3,5.8-0.8,12.3-7,14.7c-4.7,1.8-9.5,3.1-14.3,4.6c-0.8,0.3-1.6,0.5-2.4,0.8c-2.3,1-4.6,2.1-7,3
	c-2.4,0.8-3.9,1.8-5,4.5C783.7,578,783.5,582.4,785.9,587.4z M790.2,492c-3.4,3-6.4,5.8-9.5,8.5c-1.2,1-2.3,2.1-3.6,2.9
	c-6.7,3.9-13.9,5-21.5,3.8c-2.8-0.5-5.7-0.7-8.5-1.2c-8.2-1.6-16-4.4-23.4-8.1c-2.7-1.3-3.5-1.4-5.6,0.8
	c-5.1,5.3-8.8,11.6-11.5,18.5c-4,10.1-6.2,20.8-9,31.3c-1,3.9,1,7.9,4.6,9.7c1.7,0.8,3.4,1.6,5.2,2c8,1.7,16,3.4,24.1,4.7
	c5.8,1,11.7,1,17.5,2c9.2,1.6,18.3,0.9,27.4-0.6c4.9-0.8,9.6-2.6,14.3-4c4.5-1.3,9.1-2.6,13.5-4.2c4.6-1.8,9.3-3.4,14.4-5.2
	c-3.2-7.9-6.2-15.3-9.2-22.7c-2.5-6.2-4.6-12.6-7.3-18.8c-2.1-4.9-4.7-9.5-7.3-14.1C793.7,495.4,792,494,790.2,492z M794.1,464.8
	c-0.5-4-1.1-9.5-2.1-15c-0.8-4.4-3-8-6.7-10.7c-2.7-1.9-5.4-3.7-8.1-5.7c-5.4-4-11.2-6.4-17.9-7.5c-6.8-1-13.1-0.1-19.3,2.3
	c-2.9,1.1-5.7,2.6-8.5,4.1c-1.4,0.7-2.6,1.6-3.8,2.6c-3.8,3-6.1,7.2-7.6,11.7c-2.2,6.7-5.5,13.3-4.6,20.7c0.3,2.1,0.7,4.2,0.9,6.3
	c0.7,8,4.5,14.1,11,18.5c2.1,1.4,4.6,2.4,6.7,3.8c3.7,2.4,7.7,3.7,12,4.3c3.8,0.5,7.6,1.3,11.4,1.7c5.8,0.6,11.5,0.3,16.5-3.3
	c3.1-2.2,6.6-4.2,9.2-7c4-4.2,8.2-8.5,9.1-14.6C793.2,473.6,793.5,470,794.1,464.8z"/>
<path fill-rule="evenodd" clip-rule="evenodd" d="M837.3,346c-0.1,6.5-0.2,12.6-0.3,18.8c-1.5,0-2.6,0-4.1-0.1
	c-0.3-2.7-0.5-5.2-0.9-7.7c-0.3-2.1-0.6-4.3-1.1-6.4c-1.2-5.4-5.1-6.9-8.9-5.9c-4.8,1.3-9-0.3-13.5-1c-1.7-0.2-3.4-0.5-5.1-0.7
	c-3.3-0.5-6.5-0.9-9.8-1.4c-1.7-0.2-3.4-0.7-5.1-0.7c-3.7,0.1-4.9-1.9-4.6-5.2c0.5-4.2,1.3-8.6,2.8-12.5c2.2-6,5.1-11.7,7.9-17.4
	c3.8-7.6,9.1-14,15.6-19.4c2.9-2.5,5.7-5,8.9-7.8c-2.2-2.7-4.2-4.8-7.6-5.5c-0.4,1.5-0.6,2.9-1.2,4.2c-0.3,0.8-1.2,1.8-1.9,1.8
	c-0.8,0-1.9-0.7-2.4-1.4c-0.5-0.6-0.5-1.6-0.5-2.4c-0.1-8-0.6-16-0.2-24c0.2-3.1,2-6.2,3.6-8.9c1.2-2,3.4-3.5,5.1-5.2
	c4.8-4.7,10.6-6.2,17.1-6.9c6.4-0.7,12.6,0.1,18.8,0.5c5.6,0.3,10.3,2.5,14.7,6.3c8.4,7.3,14.4,16.2,19,26.3
	c0.2,0.5,0.4,1.1,0.5,1.6c0.9,4.3,1.9,8.7,2.7,13c0.3,1.6,1,3.8-1.4,4.2c-2.4,0.4-2.4-1.6-2.7-3.4c-0.5-3.1-1.1-6.2-3.5-8.9
	c-2.9,3.1-5.6,6.1-8.4,9.1c0,0.2,0,0.6,0.1,0.7c2.9,2.3,5.6,4.8,7.6,8c1.9,3,4.7,5.3,6.9,8.1c6.7,8.5,11.9,17.9,15,28.3
	c0.6,2.1,1.4,4.1,2.4,6c2.3,4.5,2.1,6.5-2.2,8.7c-4.1,2.2-8.5,4.2-13,5.3c-5.5,1.3-11.3,2-17,2.3c-6.3,0.4-8.3,1.9-8.7,8.5
	c-0.2,2.7-0.3,5.5-0.5,8.2c-0.1,1.2-0.3,2.4-1.8,2.5c-1.5,0-2.4-0.8-2.6-2.3c-0.1-1.4-0.3-2.8-0.4-4.3c-0.1-1.7-0.1-3.5-0.2-5.2
	c-0.6-5.4-1.5-6.3-6.8-6.8c-2.4-0.2-4.8-0.6-7.2-0.8C840.9,346,839.3,346.1,837.3,346z M790,331.2c1.7,0.3,2.8,0.4,3.9,0.7
	c6.3,1.5,12.5,3.2,18.8,4.4c7.5,1.4,15,2.5,22.5,3.6c3.4,0.5,6.8,1.2,10.3,1.2c7.3-0.1,14.5,1,21.8,0.4c9.8-0.9,19.3-2.3,28.5-5.7
	c2.1-0.8,2.7-2,2.1-3.9c-0.9-2.7-1.9-5.4-2.8-8.1c-2.2-7.4-5.6-14.1-10-20.4c-2.4-3.4-5.1-6.5-7.6-9.9c-3.3-4.5-7.8-7.7-13-9.5
	c-1.4-0.5-3.3-0.1-4.9,0.3c-1.8,0.4-3.4,1.5-5.2,2c-8.4,2.2-16.5,1.3-24.4-2.1c-2.6-1.1-4.8-1-7.4,0.3c-3.1,1.5-5.9,3.5-8.3,6
	c-4,4.1-8.4,8-11.7,12.6c-3.6,4.9-6.5,10.3-9.1,15.9C791.9,322.6,791.2,326.9,790,331.2z M821.5,240.3c-0.3-0.2-0.6-0.4-0.9-0.6
	c-1.8,1.9-3.6,3.8-5.5,5.6c-3.8,3.5-4.4,8.3-4.8,13c-0.2,1.7,0.7,3.7,1.5,5.3c1.3,2.5,2.9,4.8,5.5,6.5c2.6,1.7,5.3,3.5,7.5,5.7
	c4,3.8,9.1,5,14.1,5.8c10.2,1.6,19.9,0.4,28.6-5.9c3.1-2.2,5.8-4.7,7.4-8.1c1.8-3.8,2.1-7.6-0.9-11.6c-0.4,1.1-0.7,1.9-1,2.6
	c-0.5,1.1-0.9,2.4-1.7,3.3c-0.5,0.6-1.9,1-2.6,0.7c-0.7-0.3-1.3-1.4-1.6-2.2c-0.2-0.8-0.1-1.8,0.2-2.5c1.5-3.3,1-6.8,0.3-10.1
	c-0.4-1.6-1.7-3.2-3-4.4c-0.6-0.6-2-0.4-3.3-0.5c-0.2,2.5-0.3,4.6-0.4,6.9c-3.2-0.8-3.7-3-4-5.1c-0.5-3.8-3.1-6.2-5.4-9.7
	c-1.2,2.4-2.1,4.1-2.9,5.8c-3.1,0.1-4.2-2-5.2-4c-3.3,0.7-4,3.7-6,6.3c-1.4-1.7-2.6-3-3.8-4.4c-5.8,4.1-7.8,10-7.3,17.3
	c-1.7-0.4-2.8-0.7-4.3-1.1C821.8,249.7,821.6,245,821.5,240.3z"/>
<path fill-rule="evenodd" clip-rule="evenodd" d="M967,51.6c7.7,5.8,12.7,13.3,17,21.2c2.3,4.4,3.8,9.2,5.3,14
	c3.4,10.6,6.6,21.3,9.8,32c0.9,2.9-0.4,5.2-3.8,6.7c-3.2,1.3-6.3,2.7-9.6,3.7c-3.2,1-5.2,2.7-5.8,6.1c-0.3,1.7-1.2,3.2-1.7,4.9
	c-0.7,2.4-1.1,4.8,0,7.1c3,1.1,5.8,2.3,8.8,3.2c2,0.6,4.2,0.7,6.3,1.2c0.9,0.2,2.1,0.5,2.6,1.1c0.5,0.6,0.7,1.9,0.5,2.6
	c-0.2,0.6-1.4,1.2-2,1.1c-5.8-0.7-11.6-1.5-17.4-2.5c-3.5-0.6-4.4-2-4.7-5.6c-0.3-3.1-0.6-6.3-1-9.4c-0.4-3.4-2.6-5-6-4.5
	c-4.8,0.7-9.6,1.9-14.4,2.4c-4.6,0.5-9.2,0.3-13.8,0.5c-2.9,0.1-5.7,0.5-8.6,0.8c-1.9,0.2-3.2,1.2-3.2,3.3c0,2.8-0.2,5.7-0.3,8.5
	c0,1.7,0.2,3.4,0.3,5.7c-2.1,0.8-4.1,2-6.2,2.4c-5.7,1.1-10.9,3.4-15.9,6.3c-0.6,0.4-1.3,0.7-1.9,0.9c-2.6,0.8-3.3,0.4-4.7-3
	c6.3-3.2,12.6-6.6,19.1-9.7c4-1.9,4.5-2,3.4-7.4c-1.2-6-3.4-7.4-9.7-8.4c-8.8-1.3-17.7-2-26.2-4.7c-2.7-0.9-5.4-1.7-8.2-2.2
	c-2.7-0.5-3.6-2.3-3.5-4.6c0.1-2.6,0.6-5.1,0.8-7.7c0.3-3.1,0.4-6.3,0.9-9.4c1.5-10.4,4-20.5,8.5-30c3-6.2,6.4-12.1,9.7-18.1
	c0.8-1.5,2.3-2.6,3.1-4.1c0.7-1.3,1.3-3,1.1-4.3c-0.4-2.4-1.2-4.8-2.3-6.9c-2.4-4.8-2.1-10-2-15.1c0.1-9,4.9-15.9,11.1-21.5
	c5.5-5,12.7-7.2,20.1-8.1c8.2-1,16,0.9,23.5,3.9c1.3,0.5,2.5,1.5,3.6,2.4c3.8,3.2,7.9,6.2,11.3,9.8c3.3,3.4,5.6,7.5,7.2,12
	c2.3,6.3,0.6,12.4-0.5,18.6C967.7,48.5,967.3,50.2,967,51.6z M900.5,61.7c-3.3,3.6-6.8,6.6-9.4,10.4C885.9,80,882.1,88.7,880,98
	c-1.4,6.1-2,12.4-2.8,18.6c-0.3,2.3-0.5,4.6-0.4,6.9c0.1,3.5,1.2,4.5,4.7,4.8c1.4,0.1,2.9,0.1,4.3,0.4c7.3,1.7,14.5,2.9,22,3.1
	c8,0.2,16,0.3,24.1,0c9.6-0.4,19.1-1,28.5-3.4c10.5-2.7,20.7-5.8,30.4-10.7c1-0.5,1.9-1.2,2.8-1.8c-0.3-1.4-0.5-2.5-0.9-3.6
	c-1.5-4.8-3-9.5-4.5-14.3c-1.9-6-3-12.4-5.7-17.9C978.9,72.8,974,66,967.2,61c-3.5-2.6-4.4-2.4-8,0.2c-4,2.8-7.9,5.6-12,8.2
	c-4,2.5-8.5,4.2-13.2,4.5c-8.5,0.6-16.5-1.5-23.8-6C907.2,66,904.2,64,900.5,61.7z M897.9,38.8c-0.3,5.3,1.9,12,7.5,17.2
	c3.1,2.9,6.6,5.6,10.1,8c6.2,4.4,13.1,5.4,20.5,3.8c7.3-1.6,13.7-5.7,19.3-10.1c5.8-4.6,8.9-12,9.7-19.2c0.8-7.2-1-14.2-6.2-20.3
	c-8.2-9.6-18.4-13.4-30.4-12.8c-6.7,0.3-13.3,2.2-19.1,6c-3.5,2.3-7.5,4.2-9,8.7C898.3,25.5,897.9,31,897.9,38.8z"/>
<path fill-rule="evenodd" clip-rule="evenodd" d="M42.3,509.4c2.8-2.1,3.5-2,4.7,0.3c2.6,5.2,7.2,8.4,11.5,12c1,0.9,2.4,0.9,3.3-0.6
	c3-4.9,6-9.7,8.5-13.8c-1.6-5.5-3-10.3-4.4-15.1c-2.1-7.4,0-14.2,3.1-20.8c0.8-1.7,2.7-2.9,4.1-4.3c7.8-7.7,17-9.6,27.3-6.4
	c3.3,1,6.5,2.3,9.7,3.4c0.5,0.2,1.1,0.4,1.5,0.7c6.4,5.8,11.7,12.2,13.1,21.1c0.5,2.9,0.4,5.6-0.6,8.4c-3,8.5-2.9,8.5,1.4,16.4
	c1.4,2.6,2.4,5.5,3.5,8.2c0.7,1.7,1.3,3.4,2,5.5c7.9-1.8,13.1-7.6,19.4-11.6c2.2,3.3,2.3,3.5-0.1,5.6c-4.5,4-9.2,7.8-12.6,12.8
	c-0.7,1.1-1.4,2.1-2.2,3.2c-2,2.6-2,5.5-1,8.5c2.5,8,5,16.1,7.5,24.2c0.4,1.2,1.1,2.3,1.6,3.5c2.8,6.4,1.5,13-5.4,16.3
	c-5.2,2.5-10.5,3.6-16.1,4.3c-8.3,1.1-6.4-0.9-9.7,7.2c-1.8,4.5-2.3,9.4-3.3,14.2c-0.3,1.2-0.4,2.6-1,3.7c-0.5,0.9-1.4,2.1-2.3,2.1
	c-1.5,0.1-2-1.2-2-2.7c0-3,0-6-0.1-9c-0.1-3.6-0.3-7.2-0.3-10.8c0-2.4-1.4-3.2-3.5-3.4c-1-0.1-2,0-3-0.1c-6.3-0.3-8.3,1.4-9.4,7.7
	c-0.6,3.4-1.5,6.7-2.2,10c-0.2,0.9-0.1,1.9-0.2,2.9c-0.2,2.6-0.3,5.2-0.8,7.7c-0.2,0.8-1.5,2-2.3,2c-0.8,0-2-1.1-2.3-2
	c-0.4-1.5-0.2-3.1-0.3-4.7c-0.5-7.3-1-14.6-1.6-21.9c-0.3-3-1.4-5-4.8-6.2c-4.5-1.6-8.9-3-13.5-4.1c-4.4-1.1-8.2-3.3-11.6-6.3
	c-2.5-2.3-3-5.7-2.9-8.7c0.2-3.1-0.3-6.7,2.3-9.3c0.5-5.3,3.6-9.6,5.3-14.4c1-2.8,1.8-5.7,2.6-8.6c0.5-1.6,0.5-2.9-0.5-4.4
	c-1.1-1.6-1.4-3.6-2.1-5.5c-2.1-5.3-4.9-10.3-8.6-14.7C43.2,511.5,42.8,510.3,42.3,509.4z M107.7,587.3c8.2-0.1,16.1-1.1,23.8-2.7
	c2.6-0.5,4.7-2.2,4.7-5.3c0-3.7,0.3-7.4,0-11.1c-0.2-2.5-1.4-4.9-2.1-7.3c-2.3-7.2-4.7-14.3-7-21.5c-0.6-2-0.8-4.2-1.5-6.2
	c-1.4-3.7-3-7.4-4.9-11c-1.2-2.2-2.8-4.3-4.6-6.2c-1.4-1.5-3.4-1.9-5.5-0.8c-2.5,1.4-5.1,2.6-7.7,3.9c-2.2,1.1-4.5,1.4-7,1.2
	c-5-0.3-9.5-1.9-14-3.9c-2.9-1.3-4.1-1.2-6.1,1.1c-3.7,4.1-8.3,7.4-10.9,12.5c-1.3,2.7-2.5,5.4-4.1,7.9c-6,9.9-7.8,20.7-7.7,32.1
	c0,3,0.8,5.3,3.8,6.6c4.1,1.7,8,3.7,12.2,5.2c3,1.1,6.5,1.1,9.4,2.4c2.9,1.3,5.8,1.4,8.7,1.6c1.4,0.1,2.9-0.3,4.3-0.2
	C96.8,586.2,102.4,586.8,107.7,587.3z M95.3,465.5c-2.8,0.3-5.8,0-8.5,0.8c-8,2.3-13.9,7.3-17.1,15.1c-0.4,1-0.9,2.2-0.7,3.3
	c0.5,4.2,0.7,8.7,2.1,12.6c1.3,3.8,3.2,7.9,6,10.7c5.7,5.8,13.2,8.3,21.2,7.3c3.2-0.4,6.4-2.5,9.3-4.2c8.8-5.1,13-13,13.4-23.1
	c0.2-4.4-2.3-7.9-4.2-11.5c-1.4-2.6-3.2-5.3-5.6-6.9C106.5,466.7,101.2,464.8,95.3,465.5z"/>
<path fill-rule="evenodd" clip-rule="evenodd" d="M252.3,367.8c-7,0.4-13.4,0.7-20.2,1c-1,4.7-2.2,9.4-3,14.2
	c-0.3,1.7-0.8,2.9-3.1,3.8c-0.6-1.2-1.3-2.3-1.7-3.6c-0.3-1.1-0.2-2.3-0.3-3.4c-0.3-4.2-1-8.2-4.6-11.8c-13.2,0.2-25.4-5.4-38-10.2
	c-0.1-0.1-0.3-0.3-0.4-0.6c-3-7.3-0.3-14.1,1.8-21c2.5-8.4,6.4-16.2,10.7-23.9c1.8-3.3,3.6-6.5,5.7-9.6c1.4-2.1,1-3.7-0.3-5.5
	c-2-2.7-4-5.3-5.8-8c-2.4-3.5-3.8-7.4-3.2-11.8c0.3-2,0.3-4,0.3-6c-0.1-7.9,5.2-12.4,10.9-16.5c8.4-6.1,17.9-8.2,28.1-9.3
	c8.5-1,16.2,1.1,24.2,2.2c5.6,0.8,10.9,2.9,15,6.9c10,9.8,12.8,19.5,6.3,33.3c-1.1,2.3-2.4,4.5-3.4,6.9c-0.3,0.8-0.2,2,0.2,2.8
	c1.3,2.5,2.8,5,4.2,7.4c4.6,7.8,7.6,16.3,10.9,24.6c1.9,4.7,3.5,9.6,6.4,14c3.2,4.9,1.2,10-3.7,13.6c-7.3,5.4-15.8,7.2-24.5,8.1
	c-2.2,0.2-3.6,1-4.2,3c-0.9,3.6-1.6,7.2-2.3,10.9c-0.2,0.8,0.1,1.7,0,2.6c-0.1,1.8-1.3,2.8-2.8,2.5c-0.7-0.1-1.6-1.5-1.8-2.4
	C253.4,377.4,252.9,372.9,252.3,367.8z M184.4,355.1c5.1,1.6,9.6,3,14.2,4.3c2.9,0.8,5.8,1.5,8.7,2.3c3.9,1.1,7.9,0.9,11.9,0.8
	c7.4-0.1,14.9,0.7,22.3,0.7c3.7,0,7.4-0.5,11.1-1c3.7-0.5,7.3-1.2,10.9-1.9c4.4-0.8,8.7-1.6,13.1-2.4c2.3-0.4,3.7-1.9,4.8-4
	c3.4-6.4,2.5-13.1,0.2-19.2c-2.1-5.5-4.6-10.9-6.2-16.7c-0.2-0.7-0.4-1.4-0.8-2c-2.5-3.5-5-7-7.6-10.3c-2.1-2.6-3.9-2.8-7.2-1.5
	c-1.9,0.7-3.8,1.3-5.7,1.9c-3.6,1-7.2,1.8-10.7,3c-10.4,3.4-20.6,2.7-30.6-1.7c-3.7-1.6-4.7-1.5-7.6,1.4c-2,2-3.8,4.3-5.9,6.3
	c-5.2,5.1-9.2,10.7-10.4,18.3C187.8,340.5,186,347.5,184.4,355.1z M234.3,303c2-0.1,4-0.1,6-0.2c10.5-0.7,19.5-4.6,26.5-12.4
	c1.8-1.9,3.1-4.2,3.8-7.1c1.4-6.3,0.5-12.2-1.3-18.2c-0.6-2.1-1.4-3.7-3.2-4.8c-6.6-4-13.1-8.1-21.3-7.7c-0.7,0-1.4-0.2-2.1-0.2
	c-4-0.1-8-0.5-12-0.1c-9.1,1-18.2,2.1-26.5,6.6c-4.3,2.3-7.9,5.4-8.7,10.1c-1.3,7.8,0,15.2,6,21.1c2.4,2.3,5.2,4,7.8,5.9
	C217,301.5,225.5,302.6,234.3,303z"/>
<path fill-rule="evenodd" clip-rule="evenodd" d="M650,750.3c-1.4,4.2-2,8.3-1.8,12.5c0.2,3.2,0.2,6.4-3.5,8.1
	c-2-0.8-2.6-2.4-2.8-4.4c-0.5-3.7-1.1-7.4-1.6-11.1c-0.7-4.8-1-5-5.7-4.7c-0.4,0-0.8,0.1-1.4,0.2c-2.2,5.3-3,11-3.2,16.7
	c-0.1,3-1.1,4.8-3.8,6.2c-2.3-1.1-2.2-3.2-2.3-5.3c-0.3-4.7-0.6-9.5-1.1-14.1c-0.4-3.7-0.6-3.7-4.2-4.1c-2.3-0.2-4.6-0.3-6.8-0.2
	c-6.5,0.4-12.8-0.5-19.1-2c-5-1.2-10.1-2.2-15.1-3.6c-1.7-0.5-3.4-1.5-4.8-2.7c-2.7-2.5-2.5-6.6-0.4-9.5c2.4-3.2,4.1-6.8,6.3-10.2
	c3.9-5.8,7.8-11.6,12-17.3c4.8-6.6,9.8-13,14.7-19.5c0.9-1.2,1.1-2.3,0.2-3.5c-0.9-1.4-1.8-2.9-2.7-4.3c-3.1-5.4-4.9-11-4.5-17.5
	c0.6-7.9,3.9-14.6,7.2-21.5c0.3-0.7,1-1.4,1.7-1.8c2.7-1.3,5.4-2.6,8.1-3.8c0.5-0.2,1.3-0.3,1.5-0.7c1.9-3.6,5.8-3.3,8.9-4.2
	c2.4-0.8,5.4-0.3,8.1,0.2c6.5,1.2,13,2,18.9,5.4c6.3,3.6,10.1,8.7,12.8,15.4c2.7,6.8,3.1,13.6,2.9,20.6c-0.1,3.8-1.3,7.1-3.4,10
	c-1.9,2.6-2.6,4.9-0.6,7.8c3.8,5.4,7.5,10.8,11.2,16.3c3.8,5.7,7.6,11.5,11.3,17.3c1.7,2.8,3.3,5.7,4.6,8.7
	c2.8,6.4,0.1,8.6-3.4,11.5c-1.9,1.6-4.4,2.6-6.8,3.3c-5.7,1.8-11.4,3.5-17.3,5c-2.7,0.7-5.7,0.5-8.5,0.7
	C653.9,750.2,652.2,750.2,650,750.3z M610.6,686.4c-0.4,0.8-0.7,1.7-1.2,2.3c-6.2,6.7-10,15-14.9,22.5c-3.8,5.8-6.8,12.3-11.5,17.5
	c-1.4,1.6-2.6,3.4-3.7,5.2c-1.4,2.3-0.8,4.6,1.7,5.2c5.8,1.5,11.7,3.1,17.6,3.7c7.8,0.8,15.7,0.5,23.6,0.8
	c5.9,0.2,11.8,0.9,17.6,0.8c6.9-0.1,13.7-1,20.6-1.2c7.6-0.2,14.6-2.2,21.3-5.4c4.8-2.3,5.5-4,2.8-8.7c-3.3-6-6.7-12-10.5-17.8
	c-3.9-6-8.2-11.8-12.5-17.5c-1.2-1.6-2.8-2.8-4.2-4.2c-1.2,0.7-2.1,1.2-2.9,1.7c-2.4,1.3-4.6,3.1-7.1,3.8
	c-5.6,1.7-11.4,2.3-17.1,0.2C623.8,693,617.3,691.2,610.6,686.4z M663.3,664.1c-0.2-2.1-0.4-4.3-0.6-6.4c-1-7.7-3.7-14.4-11-18.4
	c-3.1-1.7-6.3-3.1-9.8-4.1c-10.2-2.9-19.3-0.4-27.9,4.9c-2.1,1.3-4.2,3.3-5.2,5.4c-1.6,3.3-2.4,7-3.4,10.6c-2.5,8.8,1,16,6.7,22.3
	c4.5,5,10.3,7.9,16.4,10.6c7.5,3.3,14.5,1.9,21.1-1.4C658.8,682.7,663.8,674.9,663.3,664.1z"/>
<path fill-rule="evenodd" clip-rule="evenodd" d="M284.5,504.9c6.7,7.5,12.7,14.9,16.4,24c2.4,5.9,5.2,11.8,7.4,17.8
	c2.7,7.7,4.4,15.7,7.6,23.2c2.1,4.8,0.1,7.2-2.4,10.5c-2.6,3.4-5.7,5.9-9.4,7.8c-0.9,0.4-1.8,0.9-2.7,1.3c-4.1,1.6-8.2,3.2-12.6,4.9
	c-1.5,5.4-3,10.7-4.4,16.1c-0.5,1.9-1.6,2.9-3.9,3.5c-3.9-4-1.6-10.7-5.7-14.8c-5,0.4-10.2,1-15.4,1.3c-2.5,0.1-3.2,1.5-3.5,3.5
	c-0.4,3-0.8,6-1.1,9c-0.1,0.9,0,1.8-0.4,2.5c-0.5,0.9-1.4,2.2-2.2,2.2c-0.8,0.1-2-1-2.4-1.9c-1.5-3-3-6.1-4.1-9.3
	c-1.3-3.6-3.5-5.5-7.4-5.9c-8.6-0.9-16.9-3-24.9-6.1c-4.3-1.7-8.4-3.6-11.5-7.1c-1.5-1.6-1.4-3.5-0.8-5.2c1.6-5.3,3.4-10.6,5.2-15.9
	c1.9-5.7,3.5-11.6,6.1-17c4.4-9.3,9.4-18.4,14.2-27.5c0.7-1.4,1.7-2.7,2.4-4.1c2.2-3.9,2.2-4-1-7.3c-2.6-2.6-3.7-5.9-5.4-9.1
	c-3.6-6.9-3-13.6-1.4-20.8c1.8-8.3,5.8-14.5,12.4-19.8c12.1-9.6,29.3-7.8,39.1-0.8c3.1,2.2,6.8,3.6,9.5,6.6c2,2.1,3.7,4.1,4.4,7.1
	c2,8.6,1.4,17.1,0.3,25.7C286.6,501.2,285.4,502.9,284.5,504.9z M277.9,514.1c-5.5,4.9-11.7,7.8-18.5,9.2c-4.6,0.9-9.3,1.4-13.9-0.6
	c-7.3-3.2-9.3-2.5-13.6,4.1c-0.2,0.4-0.4,0.8-0.6,1.1c-2.6,3.9-5.2,7.8-7.7,11.8c-2.6,4.3-5.4,8.5-7.4,13.1
	c-4.3,9.7-6.9,20.1-9.7,30.3c-0.3,1.1-0.1,2.2-0.1,3.3c8.3,5.2,17.7,6.7,26.9,8.8c7.8,1.8,15.4,0.4,23.1,0.1
	c12.1-0.5,24-2.6,35.1-7.6c5.6-2.5,11-5.5,16.3-8.5c3.4-2,3.9-4.8,2.2-8.5c-0.5-1.2-1.2-2.3-1.5-3.6c-2.1-8.9-4.7-17.7-9.1-25.8
	c-2.7-4.9-5.4-9.8-8.2-14.7C288.2,521.2,282.9,518.1,277.9,514.1z M255,458.5c-14.1,0.6-28.5,10.4-30.1,27.8c-0.1,1.5-0.3,3-0.1,4.5
	c1.1,9.5,6.5,16.4,13.7,21.9c3,2.2,6.2,4.7,10.3,4.9c2.8,0.1,5.7,0.2,8.5-0.3c5.8-1.1,11.5-2.9,16-6.8c5.7-4.9,8.9-11.1,9.3-18.7
	c0.1-1.6,0.4-3.1,0.7-4.6c1-5.4-0.5-10.4-3.1-14.8c-1.7-2.9-5-4.9-7.8-7.2c-3.2-2.6-7.1-3.6-10.9-4.8
	C259.3,459.7,257.1,459.1,255,458.5z"/>
<path fill-rule="evenodd" clip-rule="evenodd" d="M573.8,277.8c4,7,7.6,14.3,12.2,20.8c3.4,4.7,6.6,9.4,9.4,14.4
	c2.6,4.8,4.9,9.7,7.3,14.6c2.4,4.9,0.6,8.2-4.4,12c-1.6,1.2-4,1.6-6.1,1.9c-6.1,0.6-12.3,0.9-18.4,1.3c-0.4,0-0.8,0.2-1.3,0.2
	c-2.4,4-1.4,8.4-1.8,12.6c-0.1,1.3,0,2.6,0,3.9c-0.1,1.9-1.4,3.1-3,3c-0.9,0-2.1-1.5-2.4-2.5c-1.4-4-2.6-8.2-3.8-12.3
	c-0.9-3.2-1.9-4-5-3.8c-1.4,0.1-2.8,0.4-4.5,0.7c0,1.4,0,2.6-0.1,3.9c-0.1,4.4-0.2,8.8-0.1,13.2c0,2.9-1.4,4.4-4.3,5.1
	c-2.3-3.2-2.5-7-3.4-10.5c-0.8-2.8-1.1-5.6-1.8-8.4c-0.5-2.1-1.6-2.9-4-2.7c-8.3,0.6-16.6,1-24.9,1.1c-2.8,0-5.6-1.1-8.3-2
	c-2.2-0.8-3.3-2.7-3.3-5.1c0.1-3.7,0.4-7.5,2.1-10.9c3.1-6.2,5-12.8,7.2-19.3c1.9-5.9,5-11.5,7.4-17.2c0.9-2.1,1.5-4.3,2.3-6.4
	c0.5-1.2,0.9-2.4,1.8-3.3c2.5-2.6,2.8-3.5,1-6.5c-1.2-2.1-2.6-4.1-3.7-6.3c-3.7-7.3-5.2-15.2-4.7-23.3c0.4-5.9,2.5-11.7,6.5-16.2
	c2.2-2.6,5.6-4.7,8.8-5.8c6.7-2.4,13.7-4.4,21-3.3c4.2,0.6,7.8,2.2,11,5.2c2.4,2.3,5.6,3.9,8.3,5.8c1.3,0.9,2.7,1.8,3.5,3
	c5.6,8.2,8.3,16.9,5.9,27.1C578.9,267.4,576.2,272.3,573.8,277.8z M568.6,282.8c-4.1,1.7-8,3.5-11.9,5.1c-1.3,0.5-2.7,0.8-4.1,1.1
	c-5.2,1-10.2-0.1-14.9-2.3c-2.9-1.4-5.8-2.9-9-4.5c-9.1,17.3-15.5,35.3-21.1,54.4c2.7-0.3,4.6-0.6,6.6-0.7
	c5.7-0.3,11.4-0.5,17.1-0.7c0.3,0,0.6,0.1,0.9,0.1c2.8,0.1,5.7,0.2,8.5,0.2c3,0.1,6,0,9,0.1c3.9,0.2,7.7,0.6,11.6,0.7
	c4.4,0.1,8.9-0.5,13.3-0.2c6.9,0.4,13.6-0.1,20.3-1.9c3.2-0.9,3.9-1.8,2.9-4.8c-0.3-1-0.7-1.9-1.2-2.8c-2.8-5.2-5.5-10.4-8.4-15.5
	c-1.9-3.3-4.1-6.5-6.2-9.8C577.7,295.1,575.1,287.8,568.6,282.8z M526.4,231.1c-0.6,0.8-1,1.6-1.5,2.3c-3.4,4.2-5,8.8-4.8,14.2
	c0.3,7.7,1.5,15,5.7,21.7c3.3,5.1,7.6,8.9,12.8,11.8c5.2,2.9,10.5,3.8,16,1.8c3.7-1.3,7.3-3.2,10.9-5c1.4-0.7,2.7-1.8,3.6-3
	c6.9-9.4,9.7-19.6,5.5-31.1c-1.2-3.1-3.1-5.4-5.6-7.4c-6.4-5.1-14.3-6.3-21.8-8.7c-1.2-0.4-2.6-0.3-3.9-0.3c-3,0.1-5.6,1.1-7.4,3.6
	c-2.4,3.3-3.2,3.4-6.7,1.6C528.5,232.3,527.9,232,526.4,231.1z M547.6,346.3c-0.3,0.1-0.5,0.1-0.8,0.2c0.3,0.7,0.6,1.4,0.8,2.1
	c0.2-0.1,0.4-0.1,0.6-0.2C548,347.6,547.8,346.9,547.6,346.3z"/>
<path fill-rule="evenodd" clip-rule="evenodd" d="M958.3,686.5c-4.2,2.6-4.2,2.6-3.6,6.3c1.3,8.6,4.6,16.5,8.9,24
	c1.4,2.5,2.5,5.1,3.8,7.7c1.4,2.8,2.7,5.7,4.1,8.5c1.7,3.5,3.6,6.9,5.1,10.4c2.3,5.6-1,12.1-6.7,14.2c-6.9,2.6-14.1,2.4-21.2,3.2
	c-1.4,0.2-2.8,0.2-4.7,0.4c0.2,4.4,0.4,8.6,0.6,13.4c-0.8,0.4-1.9,1.1-2.9,1.6c-2.2-0.8-2.3-2.4-2.4-4c-0.1-2.2-0.1-4.3-0.2-6.5
	c-0.3-3.6-1.4-4.4-5-3.9c-0.8,0.1-1.7,0.4-2.7,0.7c-1.3,4.5-0.8,9-0.4,13.9c-1.1,0.6-2.3,1.3-3.5,2c-1.9-1.3-1.9-3.2-2-5.1
	c-0.1-2.4-0.1-4.9-0.4-7.3c-0.3-2.7-1.2-3.6-3.9-3.6c-3.7,0-7.4,0.4-11.1,0.7c-5.6,0.5-11.1,1.3-16.6,1.5c-4.9,0.2-7-3.4-4.8-7.8
	c0.6-1.3,1.5-2.4,2.3-3.6c3.2-4.6,3.6-10.2,5.5-15.3c2.5-6.8,5.3-13.6,7.4-20.5c2.2-7.1,4-14.4,5.9-21.6c0.2-0.8,0.1-1.7,0.1-2.8
	c-1.2,0.4-2.1,0.6-2.9,0.8c-0.5,3.3-0.9,6.4-1.6,9.4c-0.3,1.5-1,3.2-3.2,2.6c-1.6-0.4-2.5-2.1-2.2-4.1c0.4-2.1,0.6-4.3,1.3-6.3
	c1.8-6.1,1.1-12.2,0-18.3c-1.5-8.6,1.2-16.1,6.6-22.8c1-1.2,1.9-2.5,2.9-3.7c0.8-1,1.6-2,2.7-2.7c11.2-7.3,23.1-8.9,35.6-3.6
	c5.9,2.5,9.4,7.3,11.6,13.2c3.3,8.8,4.6,18,5.9,27.2c0.9,6.6,2,13.1,4.2,19.3c0.7,2,0,3.1-2,4.1c-2,0.9-3-0.1-3.7-1.8
	c-1.9-5.1-3.8-10.2-5.7-15.3C959,689.7,958.7,688.3,958.3,686.5z M946.6,695.8c-11.1,6.2-21,2.3-31-3.1c-0.6,1.4-1.2,2.5-1.5,3.7
	c-0.8,3.3-1.3,6.8-2.2,10.1c-1.9,7.2-3.9,14.4-6.1,21.5c-1.8,5.7-4.2,11.3-6.1,17c-1.4,4.3-2.2,8.8-3.4,13.6
	c1.3,0.3,2.3,0.8,3.4,0.8c2.3,0,4.6-0.2,6.9-0.5c5.4-0.8,10.7-1.9,16.2-2.4c7.3-0.7,14.6-0.7,21.9-1.4c5.8-0.5,11.6-2,17.4-2.4
	c4-0.2,7.2-1.5,10.3-4.5c-0.4-1.5-0.5-3.2-1.2-4.7c-1.9-4-4-7.9-6.1-11.8c-2.6-4.9-5.5-9.8-7.9-14.8c-3-6.2-5.8-12.5-8.7-18.7
	C948,697.4,947.4,696.8,946.6,695.8z M917.5,652.2c-3.9,3.4-6.8,6-8.2,10.5c-3,9.7,0.5,20.5,8.7,26.2c3.8,2.6,8,3.9,12.3,4.9
	c6,1.5,11.7,0.1,16.3-4.3c1.4-1.4,3.1-2.5,4.5-3.9c1.5-1.7,3.3-3.3,4.2-5.3c3.7-8.6,3.1-17-1.8-25c-1.1-1.9-2.9-4-4.8-4.7
	c-4.3-1.6-8.8-2.4-13.3-3.5c-2.4-0.5-4.4,0.3-6.4,1.9c-3.6,2.8-5.2,6.3-4.6,10.8c0.2,1.6-0.3,2.9-2.1,3.2c-1.6,0.3-2.4-0.8-2.9-2
	c-0.4-1.1-0.5-2.2-0.8-3.4C918.4,655.9,918.1,654.4,917.5,652.2z"/>
<path fill-rule="evenodd" clip-rule="evenodd" d="M357.4,700.7c0.6,7.3,2.4,14,5.3,20.5c3.5,7.8,6.7,15.9,9.5,24
	c1.2,3.6,1.7,7.6,1.7,11.4c0.1,5-3,8.4-7.9,9.4c-5,1-10.1,2-15.2,2.6c-2.2,0.3-3.4,1.2-3.9,3.2c-0.4,1.5-1,3-1.5,4.5
	c-0.4,1.3-1,2.5-2.6,2.4c-1.8-0.1-3-1-3.3-2.8c-0.2-1.6-0.2-3.1-0.3-4.7c0-2.1-1-3.1-3.1-3.4c-1.8-0.3-3.7-0.7-5.5-1.2
	c-2.1-0.5-3.4,0.3-3.9,2.3c-0.5,1.7-0.8,3.3-1.2,5c-0.2,1.1-0.3,2.3-0.6,3.4c-0.6,2.7-2.1,4.1-3.9,3.9c-1.5-0.2-2.3-1.9-2.5-4.5
	c-0.2-2.8-0.4-5.7-0.9-8.5c-0.4-2.2-1.8-3.1-4.3-3.4c-6.5-0.8-13-1.9-19.5-3.2c-2.3-0.5-4.5-2-6.4-3.4c-1.8-1.4-2.8-3.5-2.1-6.1
	c1.1-3.9,1.7-7.9,3.3-11.6c2.5-6.1,4.5-12.4,7.3-18.4c3.2-6.8,6.2-13.9,7.6-21.4c0.2-1.2,1.2-2.4,1.3-3.6c0.2-2.4-1.1-4.4-2.8-6
	c-6.1-5.9-8.5-13.1-9.2-21.5c-0.9-11.5,4.2-20.1,11.8-27.8c6-6.1,13.2-9.5,21.7-10.4c8.1-0.8,16.1,0.5,23.6,3.5c2.6,1,5,2.9,7.1,4.9
	c6.7,6.7,11.9,14.4,14.3,23.7c1.1,4.2-0.1,8.2-0.5,12.4c-4.3,3.5-2.9,9-4.7,13.4C363.5,696,363.8,696.2,357.4,700.7z M312.3,699.6
	c-0.8,1.6-1.4,2.8-1.9,4.1c-1,2.4-1.8,4.8-2.8,7.2c-2.2,5.4-4.8,10.8-6.7,16.3c-2.5,7-4.4,14.2-6.8,21.3c-1.9,5.6-1.1,6.7,5.2,8.7
	c0.4,0.1,0.9,0,1.3,0.1c4.3,0.6,8.5,1.2,12.8,1.8c4.4,0.6,8.8,1.4,13.2,1.8c6.3,0.5,12.6,0.4,18.8,1.3c4.2,0.7,8.5,0.9,12.3-0.2
	c9.4-2.7,12.2-5.3,9.1-14.9c-2.7-8.3-6.2-16.3-9.5-24.4c-2.3-5.7-4.7-11.3-7.1-17c-6.5,0.7-12.7,2.2-19.3,0.8
	C324.7,705,318.8,702.7,312.3,699.6z M365.9,668.8c-0.1-6-1.2-11.4-5.3-16.1c-1.7-1.9-2.8-4.3-4.4-6.3c-0.8-1-1.8-2.1-2.9-2.5
	c-4.7-1.7-9.4-3.4-14.2-4.6c-3.6-0.8-7.3-1.3-11-0.4c-2.5,0.7-4.9,2.3-7.6,0.5c-0.3-0.2-1.1,0.2-1.6,0.4
	c-8.8,3.2-15.3,8.7-18.8,17.6c-1.5,3.9-1.3,7.9-1.4,11.8c0,1.8,0.6,3.6,1,5.4c1.2,4.8,3.8,8.9,6.5,13c1.2,1.7,2.7,3.3,4.2,4.7
	c3.6,3.5,8,5.4,12.7,7c9.6,3.3,19,3.9,28.1-1.6c5.6-3.4,10.7-7.3,12.1-14.3C364.2,678.6,365,673.7,365.9,668.8z"/>
<path fill-rule="evenodd" clip-rule="evenodd" d="M754.8,331c-1.9,2.5-3.8,4.4-7.2,4.6c-1.7,0.1-3.4,1.3-4.9,2.3
	c-5.9,4-12.7,4.9-19.4,6.1c-3.2,0.6-5.3,1.9-6,5.1c-0.5,2.4-1,4.7-1.6,7.1c-0.1,0.3-0.1,0.6-0.1,0.8c-0.5,2.6-1.7,4.2-3.2,3.9
	c-2.2-0.4-2.4-2.3-2.6-4c-0.3-2.3-0.4-4.6-0.6-6.9c-0.1-0.7-0.3-1.4-0.6-2.4c-2.1,0-4.2-0.1-6.3-0.1c-0.8,0-1.7,0.4-2.5,0.4
	c-6,0.5-6.1,0.5-7.4,6.1c-0.7,3.1-1.3,6.2-1.7,9.3c-0.2,1.6-0.9,2.6-2.3,2.3c-0.8-0.2-1.9-1.4-2-2.2c-0.6-3.7-0.8-7.4-1.4-11.1
	c-0.6-3.5-1.4-4.8-5.7-4.5c-9.5,0.9-18.9-0.5-28.1-2.6c-4.1-0.9-8-3-11.8-4.9c-2.8-1.4-3.2-2.4-2.5-5.1c1.6-5.9,3.4-11.8,5.1-17.7
	c3.6-12.6,10.4-23.8,15.9-35.6c0.5-1,1-2.1,1.6-3.3c-1.8-2.3-3.5-4.8-5.4-7c-2.1-2.4-3.3-5.1-3.1-8.2c0.2-4.3,0.2-8.6,1-12.8
	c1.2-6,5.2-10.1,10.2-13.7c8.3-6,17.6-7.2,27.2-7.5c1,0,2,0,3-0.1c7.4-0.8,14.1,1.3,20.5,5c3.7,2.1,7.9,3.7,10,7.8
	c3.5,7,7.5,13.9,6.7,22.2c-0.3,2.9-1.1,5.9-2.3,8.6c-2.1,4.7-2.4,4.9,1.1,8.7c2.6,2.9,5.6,5.3,8.1,8.3c2.8,3.3,5.2,6.9,7.6,10.4
	c1.4,2,2.6,4.1,3.7,6.3c1.3,2.7,2.7,5.4,3.4,8.3C752.6,320.4,753.6,325.6,754.8,331z M749,329.4c-2.1-6-4.3-11.6-5.9-17.3
	c-2.9-10.5-9.9-17.9-17.9-24.5c-1.1-0.9-2.5-1.6-3.8-1.9c-0.9-0.2-2.4,0-3.1,0.6c-7.1,5.9-15.5,6.8-24.2,6.2
	c-7.4-0.5-14.8-1.5-21.6-5.1c-4.5-2.4-6.4-1.6-9.6,2.6c-2.8,3.8-5.7,7.6-8,11.7c-4.6,8.1-7.7,16.9-10.2,25.9c-0.5,1.7-0.3,3.1,1,4.3
	c1.4,1.3,2.6,2.8,4.1,3.7c2.6,1.4,5.5,2.3,8.3,3.5c1.7,0.7,3.3,1.8,5.1,2.1c11.5,2.2,23.1,2.1,34.7,1.6c8.9-0.4,17.6-2.2,26.1-4.6
	C732.2,335.8,740.4,333.4,749,329.4z M695,287.5c0-0.2,0-0.4,0.1-0.5c0.7,0.1,1.4,0.2,2.1,0.2c6.6,0,13.1-0.4,17.9-5.5
	c3.2-3.4,6.2-7.2,8.6-11.2c1.7-2.9,2.5-6.3,1.1-9.9c-1.5-3.9-2.2-8.2-3.8-12.1c-1.3-3.1-2.6-6.4-5.8-8.3c-8.7-5.1-18-7.1-28-5.6
	c-3.1,0.5-6.1,1.3-9.2,1.4c-3.7,0.2-6.9,0.8-10,3c-4.9,3.4-8.7,7.6-10.4,13.2c-3.2,10.4,1.1,18.9,8.3,25.9c4.2,4.1,9.9,6.4,15.7,7.6
	C685.9,286.5,690.5,286.9,695,287.5z"/>
<path fill-rule="evenodd" clip-rule="evenodd" d="M140.5,151.9c-1.8,3.6-2.4,3.8-5.9,2.8c-4.5-1.3-9.1-2.5-13.7-3.7
	c-1.2-0.3-2.6-0.2-3.8-0.4c-2.5-0.5-3.3-1.8-3.2-4.3c0.1-4.6,0-9.1,0-13.7c0-2.1-1.5-2.6-3.2-2.8c-3.1-0.4-6.3-0.5-9.4-0.9
	c-3.4-0.4-6.8-0.9-10.2-1.4c-3.2-0.5-4.2-0.2-5.3,2.9c-1.4,4.1-2.3,8.3-3.1,12.5c-0.5,2.8,0.4,6.3-1,8.3c-1.3,1.9-4.9,2.3-7.4,3.5
	c-4.4,2.1-8.7,4.3-13.1,6.5c-0.9,0.4-1.7,0.8-2.9,1.4c-0.4-1.2-0.6-2.1-1-3.2c3-1.6,5.9-3,8.7-4.6c3.7-2.2,7.4-4.5,11-6.8
	c1.5-1,2.6-2.2,2.4-4.2c-0.2-3.9-0.2-7.8-0.5-11.6c-0.4-4.7-1.8-5.9-6.5-6.5c-7.1-0.9-14.1-2.3-20.7-5.3c-1.7-0.8-3.5-1.4-5.3-1.6
	c-2.3-0.3-3.9-1.6-5.3-3.3c-2.9-3.5-3-4.4-0.7-8.4c0.3-0.6,0.8-1.2,1-1.9c1.3-5.2,3.5-10,6.4-14.6c1.5-2.3,1.8-5.4,2.9-8
	c1-2.3,2.2-4.6,3.6-6.7c2-3.1,3.9-6.4,6.3-9.1c3.2-3.7,6.8-6.9,10.2-10.4c0.3-0.3,0.6-0.6,1-1C70.3,45,73,35.4,77.4,26.5
	C82.9,15.2,92.6,9,105,7.1c1.8-0.3,3.7-0.6,5.6-0.6c6.7-0.3,13.2,0,18.6,4.8c0.3,0.3,0.7,0.5,1.1,0.7c8.3,4.7,11,12.3,11.4,21.2
	c0.3,5.7-0.6,11.1-3.1,16.3c-0.4,0.8-0.5,1.7-0.8,2.4c-0.7,1.8-0.1,2.9,1.4,4c2.9,2.1,5.7,4.4,8.6,6.5c7.4,5.5,12.7,12.8,16.8,20.9
	c3.6,7,5.3,14.8,6.8,22.5c0.2,1.1,0.4,2.3,0.7,3.4c0.9,3.5,0.4,5.5-2.4,7.5c-4.7,3.5-9.8,6-15.3,8.2c-6.1,2.4-12.2,4-18.5,5
	c-3.5,0.6-7.1,0.7-10.7,0.8c-2.5,0.1-4.1,1-4.7,3.5c-0.2,1-0.9,1.8-1.2,2.8c-1,3-0.6,4.3,1.9,6.3c4.7,3.7,10.2,5.7,15.9,7.6
	C138,151.1,139.1,151.5,140.5,151.9z M132.1,123.8c0-0.3,0-0.6,0-0.9c10.7,2.1,20.4-1.6,30.3-4.6c1.9-0.6,3-1.6,2.8-3.7
	c-0.4-4.8-0.3-9.7-1.3-14.4c-1.7-8.2-6-15.4-9.6-22.9c-1.4-3-3.5-5.5-5.9-7.8c-3.1-3-6.3-5.8-9.8-8.3c-3.7-2.7-4.6-2.9-7.4,0.6
	c-3.8,4.7-8.7,7.8-14,10.4c-6,2.8-12.4,3.5-18.9,3.1c-9.9-0.7-18.9-3.4-23.9-13.2c-1.3-2.5-3.5-2.6-5.2-0.5
	C63.6,68.3,57.8,74.9,53.9,83c-3.7,7.7-6.9,15.4-8.2,23.8c-0.7,4.9-0.5,5.9,4.2,7.2c5.8,1.6,11.7,2.8,17.6,3.8
	c5.7,1,11.6,1.4,17.4,2.3c6.3,1.1,12.6,2.8,19.1,1c1-0.3,2.3,0.1,3.4,0.2C115.6,122.2,123.8,123,132.1,123.8z M139.1,36.2
	c-0.4-2.8-0.4-5.7-1.2-8.4c-2.7-8.8-10.3-12.6-17.4-17c-0.1-0.1-0.3-0.1-0.4-0.1c-4.2,0.2-8.1-1.8-12.6-1.3c-8.4,1-15.7,3.8-22,9.5
	c-5.1,4.6-7.6,10.4-9.5,16.6c-2.4,8-3,16,0.9,23.9c1.5,3.1,3.8,5.5,6.7,7c7.5,4,15.3,6.4,24,4.8c7.9-1.4,15.5-3.1,20.6-10
	c2-2.7,3.9-5.6,5.8-8.4C137.5,47.9,139.3,42.4,139.1,36.2z"/>
<path fill-rule="evenodd" clip-rule="evenodd" d="M187.4,767.7c-2.9-4.9-0.2-11.2-3.4-16.2c-0.9-0.2-1.9-0.4-2.9-0.5
	c-4.5-0.5-5.5,0.4-6,4.9c-0.2,1.9-0.3,3.7-0.5,5.6c-0.1,1.7-0.7,3.2-2.7,3.2c-1.8,0-2.9-1-3.2-2.9c-0.3-1.8-0.6-3.6-0.9-5.5
	c-0.8-5.1-1.5-6-6.7-6.9c-5.1-0.9-10.2-1.4-15.3-2.3c-5.4-0.9-10.8-1.8-16-3c-2.1-0.5-4.4-1.7-5.8-3.3c-1.1-1.3-0.9-3.6-1.2-5.5
	c0.3,0.1,0.6,0.1,1,0.2c1.3-1.7,2.8-3.3,4-5.2c2.5-4.2,4.9-8.4,7.2-12.7c3.7-6.9,7.5-13.9,11-20.9c1.5-2.9,1.8-5.5-1.2-8.4
	c-5.5-5.3-6.3-12.2-4.7-19.6c1.3-6.3,5.4-10.6,9.5-15c0.5-0.5,1.2-0.9,1.6-1.5c5.7-7.6,13.9-8,22.3-8.1c3.3,0,6.6,0.2,9.9,0.3
	c4.7,0.1,8.9,2.1,13.1,3.8c1.5,0.6,3.3,1.2,3.7,3.2c0.1,0.5,0.7,1,1.1,1.2c5.8,2.8,7.8,8,8.6,13.8c0.2,1.3,0.5,2.5,1,3.8
	c1.8,5,1.4,10.2,1.1,15.4c-0.2,3.6-1.2,7.1-4,9.8c-0.4,0.4-0.5,1-0.7,1.4c2.6,5.6,5,11.1,7.8,16.4c2.3,4.5,4.9,8.7,7.6,13
	c2.2,3.5,4.6,6.9,6.9,10.3c2,2.9,1.9,4.3-1.1,6c-3.9,2.1-7.9,4.1-12.1,5.5c-5.3,1.7-10.7,3.1-16.4,2.7c-3.8-0.3-4.6,0.7-5.7,4.4
	c-0.7,2.2-1.4,4.4-1.5,6.7C192.7,765.2,191.1,767,187.4,767.7z M157,695.9c-1.7,2.5-3.1,4.4-4.5,6.4c-4.6,6.5-9.4,13-13.8,19.6
	c-2.9,4.4-5.3,9.1-7.8,13.7c-0.6,1.1-0.8,2.5-1.3,4.2c2.5,0.6,4.4,1.2,6.4,1.4c12.5,1.4,25.1,2.9,37.7,3.9c15.2,1.2,30.3,0.3,45-4.4
	c1.8-0.6,3.5-1.6,5.7-2.7c-3.1-4.8-5.7-9-8.5-13.1c-1.4-2-3.1-3.8-4.3-5.9c-2.9-5-5.6-10-8.2-15.1c-1.7-3.4-4.1-4.6-7.9-4.2
	c-10,1-20,0.4-29.8-2.2C162.7,696.7,159.7,696.4,157,695.9z M181.5,695c7.8,0.3,13.1,0.3,18.2-1.8c4.6-1.9,7.3-5,8.3-10.1
	c0.9-4.8-0.2-9.2-1-13.6c-1.6-8.6-6.5-14.9-14.9-18c-4.5-1.7-9.2-2.5-14-2.2c-4.3,0.3-8.5-0.4-12.8,1.1c-6,2.1-10.7,5.6-15.2,10.1
	c-4.8,4.8-6.4,10.5-5.8,16.8c0.7,7,5.4,11,11.7,13.4C165.1,694.2,174.6,694.3,181.5,695z"/>
<path fill-rule="evenodd" clip-rule="evenodd" d="M249.7,65.7c-1.3-2.1-2.4-4.1-3.7-6c-3.1-4.7-4.2-9.9-4.5-15.5
	c-0.4-6.9,2.5-12.7,6.6-17.7c5.7-7,12.8-12.4,22.1-13.9c1-0.2,2-0.3,3-0.2c7.2,0.9,14.6,1,21.6,3.5c4.2,1.5,7.6,3.9,10.4,7.2
	c0.8,1,1,2.6,1.4,4c2.6,8.9,2.6,17.8-0.7,26.5c-0.9,2.2-2.4,4.2-3.6,6.3c-0.7,1.1-1.5,2.1-2.4,3.3c3.4,3.8,6.5,7.5,9.8,11
	c3.9,4.2,6.7,8.9,8.6,14.2c0.5,1.6,1.6,3,2.3,4.6c4.3,9.1,6.6,18.8,8.2,28.6c0.6,3.6-1,5.7-4.4,6.2c-4.8,0.7-9.6,1.6-14.4,2
	c-2.7,0.2-5.4-0.3-8.1-0.4c-3.4,0-3.3,0.6-4.4,5.1c-0.7,3.1,0,3.8,2.9,5.1c3,1.3,5.9,1.7,9.1,1.3c1.8-0.2,3.7,0,5.5,0.4
	c0.9,0.2,1.7,1.3,2.7,2.1c-1.2,1.3-2,2.2-2.2,2.3c-5.7,0.3-10.5,0.5-15.3,0.8c-4.4,0.3-5.7-0.3-7-4.4c-0.8-2.6-1.1-5.3-2-7.9
	c-1.4-4.3-1.4-4.1-5.7-3.9c-6.1,0.2-12.3,0.4-18.4,0.4c-1.8,0-2.8,0.4-3.3,2c-1.2,3.9-4.1,7.1-4.5,11.4c-0.3,3.4-1.8,4.3-5.3,4.4
	c-4.9,0.1-9.3,1.3-13.5,3.6c-1.6,0.8-3.5,1.1-5.3,1.6c-0.7-4.4-0.6-4.7,2.9-5.5c5.7-1.3,11.3-3.1,16.6-5.9c0.1-0.9,0.3-1.8,0.3-2.6
	c-0.3-6.9,0.3-8.9-8.7-9.1c-7.5-0.1-15.1-0.7-22.3-3.2c-1.4-0.5-3.6-0.2-4.2-1.1c-0.6-0.9,0.2-2.9,0.6-4.3c2.1-6.5,4.3-13,6.4-19.5
	c3.2-9.9,9-18.2,15.2-26.3C244.2,72.8,246.8,69.4,249.7,65.7z M224.3,119.9c0,3.3,0.9,4.5,3.7,4.9c4.5,0.7,9.1,1,13.7,1.6
	c5.8,0.7,11.7,1.3,17.5,0.1c0.7-0.1,1.4-0.1,2.1-0.1c8.6,0.1,17.2,0.2,25.7,0.1c2.4,0,4.9-1.5,7.2-1.3c8.9,0.9,17.3-1.7,25.8-3.5
	c3-0.7,3.7-1.4,3.1-4.5c-0.4-2.2-1.1-4.5-1.9-6.6c-3.5-8.8-7.7-17.3-11.8-25.8c-3-6.1-7.3-10.5-12.1-14.9c-2.1-2-4.2-2-6.6-0.6
	c-7.1,3.9-14.7,5.4-22.7,3.9c-3.7-0.7-7.3-1.1-10.6-3.2c-3.1-2-4-1.8-6.6,1.1c-3.9,4.4-7.8,8.8-11.3,13.6c-5.3,7.1-9,15.2-11.8,23.6
	C226.2,112.5,225.2,116.6,224.3,119.9z M305.3,40.5c-0.9-4.3-1.5-8.6-2.8-12.6c-1.7-5-6.4-7-10.9-8.2c-5.7-1.6-11.6-2.4-17.5-3.3
	c-1.8-0.3-3.9-0.1-5.5,0.6c-8.2,3.4-16,7.3-20.9,15.3c-2.5,4-3.3,8-2.5,12.7c0.8,5.1,2.8,9.5,5.6,13.8c3.8,5.9,9.5,9,16.1,10.5
	c2.8,0.6,5.7,0.8,8.5,1c4.4,0.4,8.5-0.4,12.2-3c6.6-4.7,11-11.1,14.5-18.3C303.4,46.4,304.2,43.5,305.3,40.5z"/>
<path fill-rule="evenodd" clip-rule="evenodd" d="M383.5,63.1c-0.7-1.4-1.8-3.3-2.8-5.2c-1.7-3.4-3-6.7-2.2-10.7
	c0.8-3.8,1.1-7.7,2-11.4c0.4-1.7,1.3-3.7,2.7-4.8c7.5-6.4,15.9-10.8,26-10.6c2.4,0,4.7,1,7,1.8c2,0.7,3.9,1.8,5.9,2.5
	c9.2,3.4,13.9,10.2,15.1,19.7c0.1,1.1-0.3,2.2-0.6,3.3c-1,3.6-2.1,7.1-3.1,10.7c-0.4,1.5-0.1,2.6,1.3,3.7
	c10.8,8.3,17.8,19.4,22.8,31.8c0.9,2.3,0.6,5.1,1.2,7.5c1.8,6.6,1.9,13.3,0.6,20c-0.6,3.2-1,3.7-4.3,4.3c-6.3,1.1-12.6,2.2-19.1,1.8
	c-2-0.1-3.7,0.5-5.2,2.3c-2.6,3-4.5,6.2-5.6,10.4c4.8,1.8,9.5,3.5,14.1,5.1c0.3,0.1,0.6,0.1,0.8,0.2c1.1,0.4,2.3,1,1.7,2.5
	c-0.5,1.4-1.8,2-3.2,1.5c-2.7-0.9-5.4-2-8.1-3c-0.9-0.4-1.9-0.8-2.8-1c-2.6-0.6-5.1-1.1-7.4-1.5c-1.7-3.7,0.3-6.6,0.7-9.6
	c0.2-1.4,0.8-2.8,1-4.2c0.3-1.4-0.5-2.3-1.9-2.3c-3.7-0.1-7.4-0.1-11.1-0.2c-1.4,3.8-0.1,7.3,0.4,10.7c0.4,2.6-0.1,4.7-0.9,6.3
	c-3.2,0.5-5.9,0.8-8.6,1.4c-4,0.9-8,2-12,3.1c-2.6,0.7-3.4-0.1-3.1-3.6c6.3-1.6,12.7-3.3,19.6-5.1c-1.7-4-1.3-8.7-5-11.8
	c-1.3-1.1-2.7-2.2-4.3-2.6c-4.2-1.1-8.4-1.8-12.6-2.6c-4.6-0.9-9.2-1.6-13.7-2.6c-1.7-0.4-3.3-1.6-4.9-2.6c-0.8-0.5-1.4-1.4-2.2-2.1
	c-3.8-3.3-4-3.8-2.2-8.3c3.4-8.3,6.5-16.9,10.7-24.8C374.1,76.4,378.8,70.3,383.5,63.1z M430.9,64.3c-6,6.3-13,10.3-21.7,10.2
	c-8.2-0.1-16.1-1.8-22.3-7.7c-2.7,0.3-4,2.3-5.3,4.1c-3.1,4.2-5.3,9-7.9,13.6c-3.9,6.9-6.8,14.2-9.6,21.5
	c-1.8,4.6,1.5,10.3,6.3,11.2c5.4,1,10.7,1.9,16.1,2.8c2.3,0.4,4.6,0.4,6.8,1.2c7.9,2.7,16.1,2.4,24.2,2.3c5.6,0,11.2-0.4,16.7-0.5
	c4.3-0.1,8.5,0.2,12.8-0.1c5.5-0.3,6.7-1.3,7.7-6.7c1.5-7.8,0.5-15.5-2.2-22.8c-2.7-7.4-6.5-14.3-11.9-20.2
	C437.8,70.2,435.2,66.6,430.9,64.3z M407.4,70.7c0.7,0,1.4,0,2.2,0c9,0.1,15.8-3.7,19.7-12c1.2-2.6,2-5.4,2.8-8.1
	c0.9-2.8,0.4-5.6-0.3-8.4c-2.2-9.1-9-13.1-17-15.9c-2.5-0.9-5.2-1.7-7.9-1.9c-5.9-0.5-10.8,2.2-15.6,5.3c-2.9,1.9-5.1,4.5-6.1,8
	c-0.6,2.1-1.6,4-2.2,6c-0.9,3.4-1.1,6.7,0.3,10.1C387.8,64.7,395.7,70.4,407.4,70.7z"/>
<path fill-rule="evenodd" clip-rule="evenodd" d="M55.8,748.3c-4.1,0.3-8.2,0.5-12.3,0.9c-2,0.2-3.2,1.6-3.1,3.5
	c0.1,3,0.5,6,0.8,8.9c0.1,1,0.7,2.1,0.5,2.9c-0.2,0.9-1.1,2.1-1.9,2.3c-0.8,0.2-2.3-0.4-2.8-1.1c-0.7-1.1-0.8-2.7-1.2-4.1
	c-1-3.3-1.9-6.6-3-9.9c-0.5-1.4-1.5-2.3-3.1-2.6c-4.5-0.7-9-1.5-13.5-2.6c-4.1-1-7.9-2.6-11.1-5.4c-3.8-3.3-5.3-7.6-4.3-12.4
	c0.9-4,2.2-8.1,4-11.7c5-9.7,10.3-19.2,15.6-28.7c1.5-2.6,3.5-4.9,5.2-7.3c-1-3.1-2-6-3-9c-2-6-1.6-11.9,0.5-17.7
	c0.9-2.4,1.7-4.9,2.9-7.2c3.5-6.9,9.4-9.6,16.8-9.8c1.1,0,2.3,0.2,3.4,0c7-1.6,12.5,1.6,17,6.2c7.6,8.1,10.8,17.7,7.7,28.9
	c-1,3.4-1.6,6.9-2.6,11.1c3.4,6.8,7.4,14.1,10.8,21.6c2.5,5.6,4.2,11.5,6.2,17.4c1.4,4.1,2.6,8.2,3.8,12.3c0.8,2.9,0,5.5-1.8,8
	c-1.4,1.9-3.2,3-5.3,3.4c-4.2,0.7-8.5,1.2-12.7,1.5c-3.3,0.3-3.9,0.4-4.9,3.7c-0.7,2.4-1,5-1.4,7.5c-0.1,0.6,0.1,1.2-0.1,1.7
	c-0.4,1.7-1.2,2.9-3.3,2.5c-2-0.3-2.6-1.3-2.3-3.3C57.9,756.1,57.9,752.3,55.8,748.3z M61.8,742.5c0,0.3,0.1,0.7,0.1,1
	c6.2-0.8,12.5-1.4,18.7-2.5c3.3-0.6,4.6-2.5,4.7-5.7c0-1.4-0.2-2.8-0.6-4.2c-3.1-11.4-7.9-22-13.5-32.4c-1.2-2.1-2.1-4.4-3.5-6.4
	c-2.9-4.2-2.9-4-7.2-1.2c-11.5,7.4-21.3,4.8-29.1-3.3c-2.8-2.9-2.8-3-5.5-0.1c-0.5,0.5-0.9,1.1-1.3,1.7c-3.1,5.3-6.5,10.4-9.3,15.9
	c-3.2,6.4-6.1,13-8.8,19.6c-2.5,6.3-0.9,13.5,7,15.9c3,0.9,6,2,9.1,2.5c7.6,1.4,15.3,1.5,23.1,0.7C51,743.5,56.4,743,61.8,742.5z
	 M26,666c-0.4,5.2,2.7,12.1,7.6,18.2c2.5,3.1,5.7,5.5,10,6.2c7.4,1.2,17.6-3.7,21-12c0.8-1.9,1.5-3.8,2-5.7c0.6-2.9,1.7-6,1.3-8.9
	c-0.9-6-2.6-11.8-7-16.3c-3.7-3.8-8.6-5.1-13.7-5.3c-2.8-0.1-5.6,0.9-8.4,1.5c-2.5,0.5-4.7,1.5-6.3,3.5C28.8,651.9,26,657,26,666z"
	/>
<path fill-rule="evenodd" clip-rule="evenodd" fill="#FFFFFF" d="M90.5,229.5c7-0.8,13.6,2.4,19.3,6.3c9.6,6.5,16.9,15.5,16.1,27.7
	c-0.6,8.9-2.2,18.3-10,24.8c-2.3,1.9-4.2,4.4-6.6,6.2c-9.1,6.7-18.8,7.2-29.3,3.2c-7.8-3-13.5-8.3-18.6-14.6c-4-5-5.1-10.8-5.4-16.9
	c-0.1-3,0.2-6,0.7-8.9c1.5-9.2,6.9-15.9,14.4-21c1.1-0.7,2.2-1.4,3.2-2.1C81.4,229.2,81.4,229.2,90.5,229.5z M80.4,254.8
	c-4.2,0-7.3,2.5-7.4,6.1c-0.1,3.2,2.7,6,5.9,6.1c4,0,6.9-3,7-7.1C85.9,256.4,84.2,254.8,80.4,254.8z M102.4,255.1
	c-3.1,0-5.6,2.9-5.7,6.3c0,3.3,1.8,5.9,4.1,5.8c4.2-0.2,7.5-3.4,7.4-7.2C108.1,257.3,105.5,255,102.4,255.1z"/>
<path fill-rule="evenodd" clip-rule="evenodd" fill="#FFFFFF" d="M880.6,532.2c3.5,1.3,5.6,3.6,7.6,6.1c1.9,2.5,3.9,4.9,5.9,7.6
	c1.6-1,3-1.8,4.8-2.9c-0.7-1.4-1.5-2.9-2.3-4.4c-1.7-3.2-3.5-6.3-5-9.5c-2.1-4.2-1.6-8.4,0.7-12.3c2.3-3.8,4.5-7.5,8.4-10.2
	c2.5-1.7,4.6-1.7,7.2-0.7c3.3,1.4,6.7,2.6,10.1,3.7c8.6,2.6,17.2,2.3,25.8-0.3c3-0.9,6.2-1.4,9.1-2.6c2.1-0.8,3.8-2.5,5.6-3.9
	c0.6-0.4,0.9-1.1,1.4-1.6c3.9-3.8,4.4-3.5,7.4,1.1c2.3,3.6,3.8,7.3,4.5,11.5c1.1,7.3-1.5,13.8-4.5,20.2c-0.7,1.5-1.8,2.9-2.6,4.5
	c-0.9,1.8,0.2,3.2,2.2,2.9c1.5-0.2,2.4-1.1,3.2-2.5c2.6-4.1,4.8-8.5,8.8-11.6c0.4-0.3,0.9-0.6,1.7-1c0.6,1.1,1.4,2,1.6,3
	c1.5,6.1,2.9,12.2,4.3,18.4c0.4,1.8-0.4,3.1-2,3.8c-4.7,2.1-9.4,4.1-14.1,6.1c-1.2,0.5-2.5,0.8-3.6,1.3c-10.1,4.7-20.9,5.9-31.7,7.2
	c-6.7,0.8-13.4,1.1-20.1,1.2c-5.3,0.1-10.6-1-15.8-0.7c-6.7,0.4-12.5-2.2-18.5-4.3c-3.2-1.2-4.3-4-4.3-6.8c-0.1-5.1,0-10.3,1.8-15.3
	c0.4-1.1,0.6-2.2,0.9-3.3C879.4,535.5,880,533.9,880.6,532.2z"/>
<path fill-rule="evenodd" clip-rule="evenodd" fill="#FFFFFF" d="M889.1,463.8c0.3-5.8,1.4-11.2,4.7-16c1.1-1.6,2.3-3.3,3.8-4.5
	c7.5-6.6,16.6-8.8,26.2-9.2c8.8-0.4,17.1,1.8,25.2,4.8c6,2.2,10.1,6.8,12.9,12.2c2.5,4.7,4.2,10,5.5,15.2c2.3,8.9,0.1,16.7-6.2,23.8
	c-9.4,10.6-21.1,15.6-34.8,14.5c-17.3-1.4-29.4-10.8-35.5-27.1C889.5,473.1,889.7,468.3,889.1,463.8z M933.2,461.2
	c0,2.7,1.7,4.6,4,4.6c2.2,0,4.4-2.4,4.4-4.9c0.1-2.4-1.9-4.3-4.3-4.3C934.9,456.7,933.2,458.7,933.2,461.2z M914.4,466.2
	c4.8-1.1,5.6-1.8,5.8-4.9c0.1-2.2-1.2-3-2.9-3.6c-2.1-0.8-3.2,0.4-4.2,1.9C911.5,461.9,911.7,463.2,914.4,466.2z"/>
<path fill-rule="evenodd" clip-rule="evenodd" fill="#FFFFFF" d="M490.9,702.8c-6.1-0.8-12-1.2-17.9-2.6c-7.2-1.7-13.9-4.3-20.1-8.2
	c-6.6-4.2-9.8-10.2-10.5-17.8c-0.8-8.9,3.1-16.4,7.3-23.8c0.6-1.1,1.5-2.1,2.2-3.2c1.9-3.3,5.3-4.7,8.2-6.7c6.2-4.2,13-6.9,20.4-8.5
	c6.2-1.3,11.9,0,17.7,1.1c6.4,1.2,12.3,4,17.9,7.1c5.7,3.2,9.4,8.5,11.5,14.6c2.6,7.6,3.8,15.7,0.9,23.2
	c-2.6,6.7-5.2,13.7-12.5,17.8C508.1,700.4,499.7,702.2,490.9,702.8z M497.5,665.1c0,2.7,2.1,5.4,4.5,5.5c3.4,0.1,6.6-2.6,6.5-5.6
	c-0.1-2.9-2.9-5.8-5.8-5.8C500.3,659.1,497.5,662.3,497.5,665.1z M474.8,660.4c-1.1,3.5-1.2,6.2,1.7,8.2c2.2,1.5,4.3,1.1,6.4-0.3
	c2.5-1.6,3.3-3,2.7-5.2c-0.5-1.9-2.6-3.7-4.8-3.6C478.7,659.6,476.6,660.1,474.8,660.4z"/>
<path fill-rule="evenodd" clip-rule="evenodd" fill="#FFFFFF" d="M469.9,758.5c-3.9-0.1-7.8,0.2-11.6-0.3
	c-5.2-0.7-10.4-1.9-15.6-2.8c-1.9-0.4-2-1.8-2-3.3c0-4.7,1.7-9,3.5-13.2c4.4-10,8.9-19.9,13.5-29.8c0.4-0.8,0.8-1.5,1.3-2.2
	c1.8-2.7,2.2-3,5.3-2c8.7,2.7,17.7,3.8,26.7,4.1c6.5,0.2,13.4-0.2,19.5-3.6c3.5-2,4.4-1.5,6.9,1.9c5.9,8.1,8.8,17.6,12.4,26.8
	c1.1,2.8,2.7,5.4,3.7,8.2c1.5,4.1,1.7,8.2-1.8,11.6c-0.5,0.5-1,1.2-1.6,1.3c-4.3,1-8.6,1.9-12.9,2.9c-5.7,1.3-11.7,0.1-17.3,2.4
	c-0.9,0.4-2,0.2-3,0.1c-9-0.8-17.9-1.7-26.9-2.6C469.9,758.1,469.9,758.3,469.9,758.5z"/>
<path fill-rule="evenodd" clip-rule="evenodd" fill="#FFFFFF" d="M535.9,68.6c3.2,3.6,6.2,6.7,8.7,10.1c2.6,3.5,6.6,4.1,10.2,4.9
	c4.7,1.1,9.6,1,14.4,1.4c7.5,0.5,14.2-2.2,20.6-5.7c5-2.8,9.4-6.3,12.7-11.2c1.4-2.1,5-1.7,7.1,0.7c3.5,4.1,6.1,8.8,7.5,13.9
	c2.9,10.9,5.6,21.9,8.3,32.8c0.6,2.3,0.7,4.8,0.9,7.2c0.1,1.6-0.4,2.7-2.1,3.3c-7.3,2.5-14.5,5.3-22.4,5.6
	c-5.4,0.2-10.8,1.5-16.2,1.9c-3.4,0.3-6.9,0.1-10.3,0c-9.4-0.2-18.9-0.2-28.3-0.7c-7.8-0.4-15.7-1.4-23.5-2.2
	c-1.7-0.2-3.4-0.7-5-1.3c-4.4-1.5-6.4-3.8-6.3-8.3c0.1-6.4,0.5-12.8,3.3-18.8c2.1-4.5,3.2-9.5,5.1-14.1c3-7.1,7.6-13.1,13.1-18.4
	C534.5,69.3,535.3,69,535.9,68.6z"/>
<path fill-rule="evenodd" clip-rule="evenodd" fill="#FFFFFF" d="M604.9,36.9c-0.3,4.8-0.7,9.6-0.9,14.5c-0.2,5.9-3.1,10.7-6.5,15.2
	c-6.3,8.6-15.5,12.1-25.6,13.1c-12.4,1.3-21.3-4.8-27.9-14.9c-3.6-5.5-5.7-11.5-6.9-17.8c-0.4-2.1,0.1-4.5,0.5-6.7
	c0.6-2.6,1.7-5.2,2.4-7.8c2.1-8,7.7-12.9,14.4-16.7c5.4-3.1,11-3.8,17.4-3.1c7.4,0.8,14.3,2.3,21,5.5
	C599.6,21.3,605.2,29.8,604.9,36.9z M560,38.6c-2.6,0-4.8,1.9-4.6,4c0.1,1.9,2.3,3.4,4.8,3.4c2.7,0,4.4-1.4,4.2-3.7
	C564.3,40.1,562.5,38.6,560,38.6z M580.9,39.6c-2.7,0-4.6,1.5-4.5,3.6c0,1.9,2.5,3.8,5,3.7c2.4-0.1,3.9-1.5,3.9-3.6
	C585.3,41.1,583.4,39.6,580.9,39.6z"/>
<path fill-rule="evenodd" clip-rule="evenodd" fill="#FFFFFF" d="M367.8,283c6.2,6.7,14.4,8.7,23.2,9.4c3.5,0.3,7,1,10.6,0.5
	c6.3-0.8,11.9-2.8,16.8-6.9c1.5-1.2,3.2-2.3,4.8-3.4c1.4-1,2.5-0.8,3.9,0.1c8.5,5.5,14.7,12.8,19.6,21.7c3.7,6.7,5.7,13.7,7.5,20.9
	c1.2,4.9,1.1,10.2,1.7,15.6c-6.3,2.6-12.1,5.9-18.8,7c-3.5,0.6-7,1.5-10.5,2.3c-0.7,0.2-1.4,0.3-2.1,0.4c-7.1,0.3-14.2,0.7-21.3,0.7
	c-3.4,0-6.8-0.6-10.2-0.7c-4.5-0.1-9,0.3-13.5,0.1c-6.9-0.4-13.7-0.9-20.6-1.8c-4.2-0.6-8.3-1.9-12.4-3.1c-0.8-0.2-1.6-1.2-1.9-2
	c-0.4-1.2-0.5-2.5-0.5-3.8c0.1-5.1,0.2-10.3,0.6-15.4c0.3-3.3,1-6.5,2-9.7c1.4-4.8,2.8-9.7,4.9-14.1c1.5-3.1,4.1-5.8,6.4-8.5
	c1.5-1.7,3.4-3,5-4.6C364.6,286.3,366,284.8,367.8,283z"/>
<path fill-rule="evenodd" clip-rule="evenodd" fill="#FFFFFF" d="M397.1,287.2c-13.1-0.8-24.2-6.5-32.4-17.5c-1.3-1.8-2.1-4-2.7-6.2
	c-2.1-7.9-3.4-15.9-1.1-24.1c2.3-8.2,7.3-14.4,13.7-19.7c0.6-0.5,1.5-0.7,2.3-1c7-2.7,14.4-3.3,21.6-3c6.3,0.2,12.7,2,18.9,3.8
	c2.4,0.7,4.8,2.6,6.5,4.6c2.5,2.9,4.5,6.3,6.5,9.6c2.2,3.7,2.2,8.2,1.8,12.2c-0.9,9.6-3.5,18.9-8.7,27.2
	C417.6,282.7,408.9,287.3,397.1,287.2z M405.9,241.3c-1.1,0.3-3.2,0.7-5.1,1.6c-2.1,1-2.7,3.9-1.9,6.5c0.8,2.5,2,3.2,4.8,3.3
	c2.6,0.1,4.2-1.4,6-2.8c1.7-1.3,2.9-2.8,2.5-5C411.8,242.9,409.6,241.5,405.9,241.3z M386,238.7c-3.3-0.1-7.3,2.7-7.4,5.1
	c-0.2,3.7,1.4,5.8,4.5,6c3.2,0.2,6.9-3,7.1-6C390.4,240.3,389.1,238.8,386,238.7z"/>
<path fill-rule="evenodd" clip-rule="evenodd" fill="#FFFFFF" d="M554.1,495.9c2.9,1.9,5.8,3.9,8.8,5.7c5.5,3.4,11.8,4.5,18,5
	c6.1,0.5,12.4,1.2,18.2-1.4c5.4-2.4,11.4-3.7,15.2-9c1.9-2.5,3.2-2.4,5.1,0.1c1.7,2.3,3.2,4.8,4.5,7.3c8.4,15.8,11.7,33.1,14.3,50.6
	c0.6,4.1,1.5,8.1,2.3,12.7c-6.3,2-12.6,4-18.8,5.9c-1.9,0.6-3.9,1-5.8,1.3c-7.8,1.5-15.6,3.4-23.5,4.2c-5,0.5-9.9,1.4-14.8,1.8
	c-5.3,0.4-10.8-0.8-16.1-1.3c-1.7-0.2-3.4-0.7-5.1-0.7c-8.2,0-16.2-2.1-24.2-3.5c-2.4-0.4-4.8-0.8-7.1-1.2
	C521.9,548.2,538.7,510.3,554.1,495.9z"/>
<path fill-rule="evenodd" clip-rule="evenodd" fill="#FFFFFF" d="M549.4,467.1c0.2-11.2,6.8-20.4,17.4-23.7c2.9-0.9,5.6-2.5,8.5-2.7
	c4.3-0.4,8.8-0.6,12.9,0.3c5.9,1.1,11.9,2.8,16.4,7.1c5.5,5.1,11,10.1,12.2,18.6c1.6,11.2-2.4,19.8-10,27.4
	c-4.7,4.6-10.3,6.4-17,6.8c-10.7,0.7-20.1-2.4-28.8-8.1c-5-3.3-8.2-7.9-9.3-13.9C551.1,474.9,550.2,471,549.4,467.1z M570.1,464.8
	c-0.4-0.6-0.9-2-1.9-3.1c-1.1-1.2-2.6-1-3.9,0c-1.3,0.9-2.7,1.7-3.8,2.8c-1.6,1.6-1.2,4.2,0.5,6.2c1.6,1.8,3.3,2,5.3,0.6
	C568.3,470,569.7,468.2,570.1,464.8z M586.1,470c0-3-1-4.2-3.5-4.2c-3.6,0-6.4,2.3-6.5,5.4c-0.1,2.4,2.4,5.3,4.5,5.3
	C583.6,476.4,586,473.5,586.1,470z"/>
<path fill-rule="evenodd" clip-rule="evenodd" fill="#FFFFFF" d="M745,697.2c4.2,3.7,7.5,7,11.3,9.9c7.1,5.5,15.1,8.3,24.2,8.7
	c6.9,0.3,13.3-0.8,19.4-4.2c2.5-1.4,5.4-1.9,8-3c1.5-0.7,2.9-1.7,4.3-2.7c1.7-1.2,2.8-3.3,5.8-3.4c1,2.4,2.3,4.8,2.9,7.3
	c2.4,9.8,7,18.8,10.6,28.1c0.4,0.9,0.8,1.9,1,2.8c0.9,3.1,0,5-3,6.2c-2,0.7-4.1,1.3-6.2,1.6c-8.8,1.1-17.6,2.1-26.4,3.2
	c-6.7,0.8-13.3,1.7-20,2.4c-6.4,0.6-12.8,0.9-19.2,1.4c-6,0.4-12,0.9-18,1.1c-2.6,0.1-5.1-0.4-7.7-0.7c-2.5-0.3-4-1.9-4.2-4.2
	c-0.2-2.4-0.3-4.9,0.4-7.1c3-9.4,6.5-18.6,9.7-28c1.2-3.4,1.9-6.9,3.1-10.3C742,703.1,743.5,700.2,745,697.2z"/>
<path fill-rule="evenodd" clip-rule="evenodd" fill="#FFFFFF" d="M819.1,680.8c-0.8,3.4-0.3,7.6-3.7,11c-2,2-2.5,5.5-4.4,7.7
	c-5,6.1-11.9,9.1-19.3,11.5c-6.5,2.1-12.1,0.1-17.9-2.2c-9.9-4.1-17.8-10.9-24.9-18.8c-1.5-1.6-1-4-2.2-5.4
	c-1.9-2.2-2.1-4.7-2.5-7.2c-0.8-5.2,0.2-10.1,2.3-15c2.4-5.6,6.8-9.4,10.6-13.8c0.6-0.7,1.6-1.3,2.5-1.7c2-1,4.2-1.8,6.2-2.9
	c7-3.9,14.3-3.5,21.7-1.4c2.1,0.6,4.2,0.8,6.3,1.5c6.4,2,12.3,4.6,15.7,10.9c0.7,1.4,1.4,2.9,2.4,4c4.8,5.5,5.6,12.4,7.2,19.1
	C819.2,678.8,819.1,679.5,819.1,680.8z M780.5,677.9c-4-0.1-7.5,2.2-7.4,4.9c0.1,3.1,2.7,6.1,5.1,6c2.8-0.1,6-3.7,6-6.8
	C784.3,679.2,783.2,678,780.5,677.9z M799,680.5c-1.7,0.6-3.2,1-4.6,1.5c-1.5,0.6-2,1.7-1.8,3.4c0.4,3.2,1.2,4.3,4.1,5.1
	c2.5,0.7,3.4,0.1,5.5-2.6c1.3-1.7,2.2-3.7,1.1-5.4C802.6,681.3,800.5,681.1,799,680.5z"/>
<path fill-rule="evenodd" clip-rule="evenodd" fill="#FFFFFF" d="M450.3,497.7c1.7,1.4,2.8,3,5.2,2.9c1.4,0,3.1,1.5,4.3,2.6
	c4.8,4.7,8.4,10.1,10.3,16.6c2.5,8.7,5.2,17.3,8,25.8c1,3.2,0.7,5.8-1.9,8.1c-4,3.5-7.6,7.5-12,10.4c-4.3,2.8-9.1,4.8-14,6.5
	c-5.9,2.2-11.9,4-18,5.5c-4.7,1.2-9.6,1.8-14.4,2.5c-3.1,0.4-6.3,0.4-9.4,0.9c-11.1,1.5-22-0.5-32.8-2.8c-2.7-0.6-5.3-1.4-7.9-1.9
	c-5-1-4.9-1.3-5-6.1c-0.1-7.4,1.8-14.5,3.8-21.5c2.4-8.5,3.7-17.4,7.5-25.5c1.3-2.7,2.3-5.6,4.2-7.9c3.4-4.1,7.3-7.6,10.8-11.6
	c1.7-1.9,3.3-1.6,5.3-0.6c3.1,1.6,6.2,3.1,9.5,4c3.4,1,7,1.2,10.5,1.7c0.6,0.1,1.1,0.1,1.7,0.2c3.9,1.1,7.8,0.9,11.9,0.4
	c7.4-0.8,13.3-4.6,19.6-8C448.2,499.6,449,498.7,450.3,497.7z"/>
<path fill-rule="evenodd" clip-rule="evenodd" fill="#FFFFFF" d="M380.3,470.3c1.3-6.9,5.5-13.6,13.2-17.8c2.2-1.2,4.5-2.4,6.8-3.6
	c3.2-1.7,6.7-2.2,10.3-2.8c7.5-1.2,14.7,0.7,22,1.8c4.8,0.7,9.1,3.2,12.5,6.2c2.4,2.1,3.5,5.8,5.1,8.8c0.5,1,0.7,2.2,1.1,3.2
	c3.4,8.7,1.8,17-2.9,24.7c-3.5,5.8-9.5,8.7-15.9,10.1c-15.4,3.3-29.6,0-42.4-8.9C384.5,488.4,380.1,480.3,380.3,470.3z M410,469.1
	c-3.7-0.1-6.8,2.6-7,6.1c-0.2,2.2,2.8,5.3,5.1,5.3c3.3,0,7-3.2,7.1-6.1C415.4,471,413.6,469.2,410,469.1z M435.1,473.9
	c0.1-2.1-1.7-4.1-3.8-4.3c-3.2-0.2-5.9,2.2-6.2,5.6c-0.2,2.4,1.8,5,4,5.1C432.3,480.4,434.9,477.7,435.1,473.9z"/>
<path fill-rule="evenodd" clip-rule="evenodd" fill="#FFFFFF" d="M704.5,125.2c-1.9-4.1-0.8-8.9-0.4-13.5c0.7-9.2,2.7-18.2,6.1-26.7
	c2.9-7.4,5.2-15.2,10.2-21.7c2.1-2.7,2.4-3,5.1-0.9c5.7,4.5,12.6,6.6,19,9.6c0.4,0.2,0.9,0.3,1.2,0.3c6.3-1.1,6.8,4.8,9.5,8
	c0.4,0.4-0.1,1.9-0.5,2.7c-0.5,1-1.4,1.8-2.2,2.6c-1.5,1.5-1.5,2.9-0.1,4.5c5.3,6.5,8.2,13.9,7.7,22.4c-0.1,1.9,1.3,3.2,3.2,3.2
	c1.9-0.1,3.5-1.5,3-3.4c-1.1-4.2,1-7.9,1.8-11.7c0.5-2.3,1.8-4.5,2.8-6.7c1.6-3.8,1.4-4.1-1.9-6.5c-1.8-1.3-3.4-3.1-5-4.7
	c-1.3-1.2-1.5-2.6-0.8-4.3c1.1-2.5,1.8-5.2,3-7.6c0.5-1.1,1.6-2.1,2.6-2.7c4.5-2.6,8-6,10.5-10.5c1.9-3.5,7.1-3.3,9.4,0.1
	c1.7,2.5,3.1,5.2,4.5,7.8c4.1,7.4,7.4,15.1,9.3,23.5c1.5,6.5,4.1,12.9,5.9,19.3c0.7,2.3,0.9,4.8,1.1,7.2c0.2,2-0.9,3-2.9,3.6
	c-6.2,1.7-12.5,2.8-19,3.3c-8.7,0.7-17.3,2.1-26,3.2c-2.4,0.3-4.9,0.4-7.3,0.6c-5.7,0.5-11.4,1.2-17.1,1.4
	c-6.7,0.3-13.4,0.2-20.1-1.2C713.1,125.4,708.9,125.5,704.5,125.2z"/>
<path fill-rule="evenodd" clip-rule="evenodd" fill="#FFFFFF" d="M751.9,8.9c8.4,0.4,14.9,3,20.9,7.3c0.6,0.4,1.1,0.9,1.5,1.5
	C784,32.4,784.9,46,772,61.3c-4.8,3.1-9.7,6.5-15.5,7c-13.7,1-25.5-3.4-34-14.6c-3.8-5-5.2-11-4.3-17.5c0.9-6.9,2.8-13.4,8.2-18
	c4.8-4.1,10.3-7.3,16.8-8.1C746.4,9.7,749.7,9.2,751.9,8.9z M749.1,41.8c0.9-5.1-1.8-7.6-6.1-6c-1.2,0.4-2.7,1.7-2.8,2.7
	c-0.1,1.1,1,2.6,2,3.5C744.3,44.1,746.6,42.8,749.1,41.8z M758.9,36.7c0,3.3,1.5,4.9,4,4.9c2.5,0,3.9-1.1,3.8-2.9
	c-0.1-2.2-2.7-4.2-5.2-4.2C759.7,34.6,759,35.5,758.9,36.7z"/>
<path fill-rule="evenodd" clip-rule="evenodd" fill="#FFFFFF" d="M790.2,492c1.8,2,3.5,3.4,4.6,5.2c2.6,4.6,5.2,9.3,7.3,14.1
	c2.7,6.2,4.8,12.5,7.3,18.8c2.9,7.4,6,14.8,9.2,22.7c-5,1.8-9.7,3.4-14.4,5.2c-4.4,1.7-9,2.9-13.5,4.2c-4.7,1.4-9.4,3.2-14.3,4
	c-9.1,1.4-18.2,2.1-27.4,0.6c-5.8-1-11.7-1-17.5-2c-8.1-1.3-16.1-3-24.1-4.7c-1.8-0.4-3.6-1.1-5.2-2c-3.6-1.8-5.7-5.8-4.6-9.7
	c2.7-10.5,5-21.1,9-31.3c2.7-6.9,6.3-13.1,11.5-18.5c2.1-2.2,2.9-2.1,5.6-0.8c7.4,3.7,15.2,6.4,23.4,8.1c2.8,0.6,5.7,0.8,8.5,1.2
	c7.6,1.3,14.8,0.2,21.5-3.8c1.3-0.8,2.4-1.9,3.6-2.9C783.7,497.8,786.8,495.1,790.2,492z"/>
<path fill-rule="evenodd" clip-rule="evenodd" fill="#FFFFFF" d="M794.1,464.8c-0.6,5.2-0.9,8.7-1.4,12.3c-1,6.1-5.1,10.4-9.1,14.6
	c-2.6,2.8-6.1,4.7-9.2,7c-5,3.5-10.7,3.8-16.5,3.3c-3.8-0.4-7.6-1.2-11.4-1.7c-4.3-0.6-8.3-1.9-12-4.3c-2.2-1.4-4.6-2.4-6.7-3.8
	c-6.5-4.4-10.3-10.5-11-18.5c-0.2-2.1-0.6-4.2-0.9-6.3c-1-7.5,2.3-14,4.6-20.7c1.5-4.5,3.8-8.6,7.6-11.7c1.2-1,2.5-1.9,3.8-2.6
	c2.8-1.5,5.5-3,8.5-4.1c6.2-2.4,12.5-3.3,19.3-2.3c6.7,1,12.6,3.5,17.9,7.5c2.6,2,5.4,3.8,8.1,5.7c3.7,2.6,5.9,6.3,6.7,10.7
	C793,455.3,793.6,460.9,794.1,464.8z M748.8,456.1c-2.3,0-4.2,1.3-6,4.3c-1.4,2.2-1.1,3.6,1,5c3.5,2.2,6.8,0.6,8.4-4
	C753.3,458.4,751.8,456.1,748.8,456.1z M766.5,465c3.5,1.1,5.8-0.3,7.4-2.7c0.7-1.1,0.9-3,0.5-4.3c-0.5-1.7-2.6-2.2-4-1.5
	c-1.8,0.8-3.6,2.1-4.9,3.6C764,461.9,765.4,463.5,766.5,465z"/>
<path fill-rule="evenodd" clip-rule="evenodd" fill="#FFFFFF" d="M790,331.2c1.2-4.3,1.9-8.6,3.7-12.4c2.6-5.5,5.5-11,9.1-15.9
	c3.4-4.6,7.7-8.5,11.7-12.6c2.4-2.4,5.2-4.4,8.3-6c2.5-1.2,4.8-1.4,7.4-0.3c7.9,3.4,16,4.4,24.4,2.1c1.8-0.5,3.4-1.5,5.2-2
	c1.6-0.4,3.5-0.8,4.9-0.3c5.2,1.9,9.6,5,13,9.5c2.5,3.3,5.2,6.5,7.6,9.9c4.4,6.3,7.8,13,10,20.4c0.8,2.7,1.9,5.4,2.8,8.1
	c0.6,1.9,0,3.1-2.1,3.9c-9.2,3.5-18.7,4.8-28.5,5.7c-7.4,0.6-14.6-0.5-21.8-0.4c-3.4,0-6.8-0.7-10.3-1.2c-7.5-1.1-15-2.2-22.5-3.6
	c-6.3-1.2-12.5-3-18.8-4.4C792.8,331.6,791.7,331.5,790,331.2z"/>
<path fill-rule="evenodd" clip-rule="evenodd" fill="#FFFFFF" d="M821.5,240.3c0.2,4.7,0.4,9.5,0.6,14.3c1.5,0.4,2.6,0.7,4.3,1.1
	c-0.6-7.2,1.5-13.1,7.3-17.3c1.2,1.4,2.4,2.8,3.8,4.4c2-2.6,2.7-5.6,6-6.3c1,2,2.1,4.1,5.2,4c0.8-1.6,1.7-3.4,2.9-5.8
	c2.3,3.5,4.9,5.9,5.4,9.7c0.3,2.1,0.8,4.2,4,5.1c0.1-2.3,0.3-4.3,0.4-6.9c1.3,0.2,2.7-0.1,3.3,0.5c1.2,1.2,2.6,2.8,3,4.4
	c0.8,3.3,1.3,6.7-0.3,10.1c-0.3,0.7-0.4,1.7-0.2,2.5c0.3,0.9,0.9,2,1.6,2.2c0.7,0.3,2.1-0.1,2.6-0.7c0.8-0.9,1.2-2.2,1.7-3.3
	c0.3-0.7,0.6-1.5,1-2.6c3.1,4,2.8,7.8,0.9,11.6c-1.6,3.4-4.3,5.8-7.4,8.1c-8.7,6.3-18.4,7.5-28.6,5.9c-5.1-0.8-10.1-2-14.1-5.8
	c-2.3-2.2-4.9-4-7.5-5.7c-2.6-1.6-4.2-3.9-5.5-6.5c-0.8-1.6-1.7-3.6-1.5-5.3c0.5-4.7,1-9.4,4.8-13c1.9-1.8,3.7-3.7,5.5-5.6
	C820.9,239.8,821.2,240,821.5,240.3z M836.9,257.4c0-2.1-1.7-3.9-3.7-3.7c-1.6,0.1-3.1,1.6-3.1,3.4c-0.1,1.7,1.9,3.9,3.7,4
	C835.5,261.2,836.9,259.6,836.9,257.4z M856.8,257.7c0-1.4-1.8-2.9-3.6-2.9c-1.8,0-3.2,1.1-3.1,2.6c0,1.9,1.6,3.3,3.7,3.3
	C855,260.7,856.8,259,856.8,257.7z"/>
<path fill-rule="evenodd" clip-rule="evenodd" fill="#FFFFFF" d="M900.5,61.7c3.6,2.3,6.6,4.2,9.7,6.1c7.3,4.6,15.3,6.6,23.8,6
	c4.7-0.3,9.2-2,13.2-4.5c4.1-2.6,8.1-5.4,12-8.2c3.6-2.6,4.6-2.7,8-0.2c6.8,5,11.7,11.7,15.3,19.1c2.7,5.6,3.9,11.9,5.7,17.9
	c1.5,4.8,3,9.5,4.5,14.3c0.3,1.1,0.5,2.2,0.9,3.6c-1,0.6-1.8,1.3-2.8,1.8c-9.7,4.9-19.9,8-30.4,10.7c-9.4,2.4-18.9,3-28.5,3.4
	c-8,0.3-16,0.2-24.1,0c-7.5-0.2-14.8-1.4-22-3.1c-1.4-0.3-2.8-0.2-4.3-0.4c-3.6-0.4-4.6-1.3-4.7-4.8c-0.1-2.3,0.1-4.6,0.4-6.9
	c0.8-6.2,1.4-12.5,2.8-18.6c2.1-9.3,5.9-18,11.2-25.9C893.7,68.3,897.3,65.3,900.5,61.7z"/>
<path fill-rule="evenodd" clip-rule="evenodd" fill="#FFFFFF" d="M897.9,38.8c0-7.8,0.4-13.3,2.3-18.7c1.6-4.6,5.5-6.4,9-8.7
	c5.8-3.8,12.4-5.7,19.1-6c12-0.5,22.2,3.3,30.4,12.8c5.2,6.1,7,13.1,6.2,20.3c-0.8,7.2-3.9,14.6-9.7,19.2c-5.6,4.5-12,8.5-19.3,10.1
	c-7.3,1.6-14.3,0.6-20.5-3.8c-3.5-2.5-6.9-5.1-10.1-8C899.9,50.8,897.7,44.1,897.9,38.8z M918.1,36.1c1.2,2.2,1.9,5.2,5.4,4.8
	c1.6-0.2,3.2-2.6,3.2-4.5c0-1.8-0.5-3.3-2.6-3.9C921.7,31.9,920.1,32.8,918.1,36.1z M946.2,38.9c-0.4-4.6-1.6-6.9-3.6-7
	c-1.9-0.1-4.4,1.8-4.5,3.9c-0.2,3.5,2.8,3.8,4.9,5C944.2,40,945.2,39.5,946.2,38.9z"/>
<path fill-rule="evenodd" clip-rule="evenodd" fill="#FFFFFF" d="M107.7,587.3c-5.3-0.5-10.8-1.1-16.4-1.6c-1.4-0.1-2.9,0.3-4.3,0.2
	c-2.9-0.2-5.8-0.3-8.7-1.6c-2.9-1.3-6.4-1.3-9.4-2.4c-4.1-1.5-8.1-3.5-12.2-5.2c-2.9-1.3-3.7-3.6-3.8-6.6
	c-0.1-11.3,1.7-22.2,7.7-32.1c1.5-2.5,2.7-5.3,4.1-7.9c2.6-5.1,7.3-8.4,10.9-12.5c2-2.3,3.2-2.4,6.1-1.1c4.5,1.9,9,3.6,14,3.9
	c2.6,0.2,4.8-0.1,7-1.2c2.6-1.2,5.2-2.5,7.7-3.9c2.1-1.1,4.1-0.7,5.5,0.8c1.8,1.8,3.4,3.9,4.6,6.2c1.9,3.5,3.4,7.2,4.9,11
	c0.8,2,0.9,4.2,1.5,6.2c2.3,7.2,4.7,14.3,7,21.5c0.8,2.4,1.9,4.8,2.1,7.3c0.3,3.7,0,7.4,0,11.1c0,3.2-2,4.8-4.7,5.3
	C123.7,586.2,115.9,587.2,107.7,587.3z"/>
<path fill-rule="evenodd" clip-rule="evenodd" fill="#FFFFFF" d="M95.3,465.5c5.9-0.8,11.2,1.2,15.9,4.3c2.4,1.6,4.2,4.3,5.6,6.9
	c2,3.6,4.4,7.1,4.2,11.5c-0.4,10-4.6,17.9-13.4,23.1c-2.9,1.7-6.1,3.7-9.3,4.2c-8.1,1.1-15.5-1.5-21.2-7.3c-2.8-2.8-4.7-6.8-6-10.7
	c-1.4-4-1.6-8.4-2.1-12.6c-0.1-1.1,0.3-2.2,0.7-3.3c3.2-7.8,9.1-12.8,17.1-15.1C89.5,465.6,92.5,465.8,95.3,465.5z M82.5,487.1
	c0.7,1.8,1.3,3.1,1.8,4.4c0.6,1.6,1.9,2.4,3.3,2c1-0.3,2-1.6,2.3-2.7c0.4-1.1,0.2-2.6-0.1-3.7c-0.6-2-2.4-2.8-4.3-2
	C84.5,485.6,83.7,486.3,82.5,487.1z M108.4,486.9c0-2.4-0.8-3.6-2.6-3.7c-2-0.1-3.9,2.2-3.9,4.7c0,2,1.3,2.7,3,2.8
	C107.2,490.9,108.4,489.6,108.4,486.9z"/>
<path fill-rule="evenodd" clip-rule="evenodd" fill="#FFFFFF" d="M184.4,355.1c1.5-7.5,3.3-14.6,4.4-21.8
	c1.1-7.5,5.2-13.1,10.4-18.3c2-2,3.8-4.3,5.9-6.3c2.9-2.9,3.9-3,7.6-1.4c10,4.4,20.2,5.1,30.6,1.7c3.5-1.1,7.1-1.9,10.7-3
	c1.9-0.5,3.8-1.1,5.7-1.9c3.3-1.3,5.1-1.1,7.2,1.5c2.7,3.3,5.1,6.8,7.6,10.3c0.4,0.6,0.6,1.3,0.8,2c1.6,5.7,4.2,11.1,6.2,16.7
	c2.3,6.1,3.2,12.8-0.2,19.2c-1.1,2-2.5,3.5-4.8,4c-4.3,0.9-8.7,1.6-13.1,2.4c-3.6,0.7-7.3,1.4-10.9,1.9c-3.7,0.5-7.4,1.1-11.1,1
	c-7.4-0.1-14.9-0.8-22.3-0.7c-4,0.1-8,0.3-11.9-0.8c-2.9-0.8-5.8-1.5-8.7-2.3C194.1,358,189.6,356.6,184.4,355.1z"/>
<path fill-rule="evenodd" clip-rule="evenodd" fill="#FFFFFF" d="M234.3,303c-8.8-0.4-17.3-1.5-24.9-7c-2.6-1.9-5.4-3.6-7.8-5.9
	c-6-5.9-7.3-13.3-6-21.1c0.8-4.7,4.4-7.8,8.7-10.1c8.3-4.5,17.4-5.6,26.5-6.6c3.9-0.4,8,0,12,0.1c0.7,0,1.4,0.3,2.1,0.2
	c8.2-0.4,14.7,3.7,21.3,7.7c1.8,1.1,2.6,2.8,3.2,4.8c1.8,6,2.7,11.9,1.3,18.2c-0.6,2.9-2,5.2-3.8,7.1c-7.1,7.8-16.1,11.7-26.5,12.4
	C238.3,303,236.3,303,234.3,303z M224,280.1c2.2-1.5,4.3-2.9,3.7-5.8c-0.3-1.7-1.8-2.5-3.6-2.5c-1.6,0.1-3.8,2-4,3.4
	C219.8,277.9,221.4,279.2,224,280.1z M245.6,278.4c0-4.4-0.5-5.5-2.4-5.9c-2.1-0.4-3.1,1.1-4,2.5c-1.1,1.8-0.2,3.4,1,4.5
	C242.6,281.8,243.8,278.7,245.6,278.4z"/>
<path fill-rule="evenodd" clip-rule="evenodd" fill="#FFFFFF" d="M610.6,686.4c6.7,4.8,13.2,6.6,19.5,8.9c5.7,2.1,11.5,1.5,17.1-0.2
	c2.5-0.8,4.8-2.5,7.1-3.8c0.9-0.5,1.7-1,2.9-1.7c1.4,1.4,3,2.6,4.2,4.2c4.3,5.8,8.6,11.5,12.5,17.5c3.8,5.8,7.1,11.8,10.5,17.8
	c2.6,4.8,2,6.5-2.8,8.7c-6.8,3.2-13.8,5.2-21.3,5.4c-6.9,0.2-13.7,1.1-20.6,1.2c-5.9,0.1-11.7-0.6-17.6-0.8
	c-7.9-0.3-15.8,0-23.6-0.8c-5.9-0.6-11.8-2.2-17.6-3.7c-2.4-0.6-3-2.9-1.7-5.2c1.1-1.8,2.3-3.6,3.7-5.2c4.8-5.3,7.7-11.7,11.5-17.5
	c5-7.5,8.8-15.8,14.9-22.5C609.9,688.2,610.2,687.3,610.6,686.4z"/>
<path fill-rule="evenodd" clip-rule="evenodd" fill="#FFFFFF" d="M663.3,664.1c0.5,10.8-4.5,18.6-13.9,23.4
	c-6.6,3.3-13.6,4.7-21.1,1.4c-6.1-2.7-11.9-5.6-16.4-10.6c-5.7-6.3-9.2-13.5-6.7-22.3c1-3.6,1.8-7.3,3.4-10.6
	c1.1-2.2,3.1-4.1,5.2-5.4c8.6-5.3,17.7-7.8,27.9-4.9c3.5,1,6.7,2.4,9.8,4.1c7.3,4,10,10.7,11,18.4
	C663,659.8,663.1,661.9,663.3,664.1z M641.3,651.4c-1.7,0-3.3,1.7-3.4,3.7c-0.1,1.5,1.6,3.6,3,3.7c1.6,0.1,4.2-2,4.2-3.5
	C645.2,653.5,643.2,651.5,641.3,651.4z M624.9,652.2c-0.4,2.7-0.1,4.9,2.2,5.8c0.9,0.3,3-0.3,3.3-1c0.5-1.3,0.7-3.4-0.1-4.4
	C629.1,650.9,627,651,624.9,652.2z"/>
<path fill-rule="evenodd" clip-rule="evenodd" fill="#FFFFFF" d="M277.9,514.1c5,4,10.3,7.1,13.4,12.5c2.8,4.9,5.5,9.7,8.2,14.7
	c4.4,8.1,7,16.8,9.1,25.8c0.3,1.2,1,2.4,1.5,3.6c1.7,3.7,1.1,6.6-2.2,8.5c-5.3,3.1-10.7,6-16.3,8.5c-11.1,5-23,7.1-35.1,7.6
	c-7.7,0.3-15.3,1.7-23.1-0.1c-9.2-2.1-18.6-3.6-26.9-8.8c0-1.1-0.2-2.2,0.1-3.3c2.8-10.2,5.4-20.6,9.7-30.3c2-4.6,4.8-8.8,7.4-13.1
	c2.4-4,5.1-7.9,7.7-11.8c0.2-0.4,0.4-0.8,0.6-1.1c4.4-6.6,6.3-7.3,13.6-4.1c4.6,2,9.3,1.6,13.9,0.6
	C266.2,522,272.4,519.1,277.9,514.1z"/>
<path fill-rule="evenodd" clip-rule="evenodd" fill="#FFFFFF" d="M255,458.5c2.2,0.6,4.4,1.2,6.5,1.9c3.8,1.2,7.7,2.3,10.9,4.8
	c2.7,2.2,6,4.2,7.8,7.2c2.6,4.4,4.1,9.5,3.1,14.8c-0.3,1.5-0.6,3.1-0.7,4.6c-0.4,7.6-3.6,13.8-9.3,18.7c-4.6,3.9-10.2,5.7-16,6.8
	c-2.8,0.5-5.7,0.5-8.5,0.3c-4-0.2-7.3-2.7-10.3-4.9c-7.3-5.5-12.7-12.5-13.7-21.9c-0.2-1.5,0-3,0.1-4.5
	C226.5,468.9,240.9,459.1,255,458.5z M268,487.4c-2.1,0-4.1,2.1-4.2,4.5c-0.1,1.8,2.3,4.2,4.1,4.2c2.6-0.1,4.4-1.9,4.3-4.3
	C272.2,489.1,270.6,487.4,268,487.4z M251.6,487.9c-2.5,0.6-5.2,0.6-5.8,3.7c-0.3,1.7,1.4,4.3,3,4.8c1.5,0.5,2.8,0,3.7-1.3
	C254,493,253.8,491.1,251.6,487.9z"/>
<path fill-rule="evenodd" clip-rule="evenodd" fill="#FFFFFF" d="M568.6,282.8c6.5,4.9,9.1,12.3,13.3,18.6c2.1,3.2,4.3,6.4,6.2,9.8
	c2.9,5.1,5.6,10.3,8.4,15.5c0.5,0.9,0.8,1.8,1.2,2.8c1,3.1,0.4,4-2.9,4.8c-6.7,1.8-13.4,2.3-20.3,1.9c-4.4-0.3-8.9,0.3-13.3,0.2
	c-3.9-0.1-7.7-0.5-11.6-0.7c-3-0.1-6-0.1-9-0.1c-2.8-0.1-5.7-0.2-8.5-0.2c-0.3,0-0.6-0.1-0.9-0.1c-5.7,0.2-11.4,0.4-17.1,0.7
	c-2,0.1-3.9,0.4-6.6,0.7c5.7-19,12-37.1,21.1-54.4c3.2,1.6,6.1,3.1,9,4.5c4.7,2.2,9.7,3.3,14.9,2.3c1.4-0.3,2.8-0.6,4.1-1.1
	C560.6,286.3,564.5,284.6,568.6,282.8z"/>
<path fill-rule="evenodd" clip-rule="evenodd" fill="#FFFFFF" d="M526.4,231.1c1.5,0.9,2.1,1.3,2.8,1.6c3.5,1.8,4.4,1.7,6.7-1.6
	c1.9-2.5,4.4-3.5,7.4-3.6c1.3-0.1,2.7-0.1,3.9,0.3c7.4,2.4,15.4,3.6,21.8,8.7c2.5,2,4.5,4.3,5.6,7.4c4.3,11.5,1.4,21.6-5.5,31.1
	c-0.9,1.2-2.2,2.3-3.6,3c-3.6,1.8-7.1,3.6-10.9,5c-5.5,2-10.8,1.1-16-1.8c-5.2-3-9.5-6.7-12.8-11.8c-4.3-6.7-5.4-14-5.7-21.7
	c-0.2-5.4,1.4-10.1,4.8-14.2C525.4,232.7,525.8,231.9,526.4,231.1z M560,247.9c0.1-2.5-0.7-3.7-2.8-3.8c-2.1-0.1-4.4,1.8-4.4,3.6
	c-0.1,2.2,1.4,4.3,3.1,4.4C558.2,252.3,559.9,250.6,560,247.9z M545.3,248.9c0.3-2.4-1-3.9-3.7-4.2c-1.8-0.2-3.3,1.4-3.6,3.6
	c-0.2,1.8,1.2,3.7,3.2,3.9C543.5,252.6,545,251.4,545.3,248.9z"/>
<path fill-rule="evenodd" clip-rule="evenodd" fill="#FFFFFF" d="M547.6,346.3c0.2,0.7,0.4,1.4,0.6,2c-0.2,0.1-0.4,0.1-0.6,0.2
	c-0.3-0.7-0.6-1.4-0.8-2.1C547.1,346.4,547.3,346.3,547.6,346.3z"/>
<path fill-rule="evenodd" clip-rule="evenodd" fill="#FFFFFF" d="M946.6,695.8c0.8,1,1.5,1.6,1.8,2.4c2.9,6.2,5.6,12.5,8.7,18.7
	c2.5,5,5.3,9.8,7.9,14.8c2.1,3.9,4.2,7.8,6.1,11.8c0.7,1.5,0.8,3.2,1.2,4.7c-3.1,3-6.3,4.3-10.3,4.5c-5.8,0.4-11.6,1.8-17.4,2.4
	c-7.3,0.7-14.6,0.7-21.9,1.4c-5.4,0.5-10.8,1.6-16.2,2.4c-2.3,0.3-4.6,0.5-6.9,0.5c-1.1,0-2.1-0.5-3.4-0.8c1.2-4.8,2-9.3,3.4-13.6
	c1.8-5.7,4.2-11.3,6.1-17c2.2-7.1,4.2-14.3,6.1-21.5c0.9-3.3,1.4-6.7,2.2-10.1c0.3-1.2,0.9-2.3,1.5-3.7
	C925.6,698.1,935.5,702,946.6,695.8z"/>
<path fill-rule="evenodd" clip-rule="evenodd" fill="#FFFFFF" d="M917.5,652.2c0.5,2.3,0.9,3.8,1.2,5.3c0.3,1.1,0.4,2.3,0.8,3.4
	c0.5,1.2,1.2,2.3,2.9,2c1.8-0.3,2.3-1.6,2.1-3.2c-0.6-4.5,1-8,4.6-10.8c2-1.5,4-2.4,6.4-1.9c4.5,1,9,1.9,13.3,3.5
	c1.9,0.7,3.7,2.8,4.8,4.7c4.8,8,5.5,16.5,1.8,25c-0.9,2-2.6,3.7-4.2,5.3c-1.4,1.4-3,2.6-4.5,3.9c-4.7,4.4-10.3,5.8-16.3,4.3
	c-4.3-1-8.5-2.3-12.3-4.9c-8.2-5.7-11.6-16.5-8.7-26.2C910.8,658.2,913.7,655.6,917.5,652.2z M924.5,671.2c0.1,1.4,2.2,3,3.7,2.9
	c1.1-0.1,2.7-2.4,2.8-3.9c0.1-1.5-1.4-2.5-3.3-2.4C926.1,667.9,924.5,669.7,924.5,671.2z M940,668c-1.4-0.1-2.4,0.7-2.4,2.5
	c0,1.7,2,3.6,3.4,3.3c1.5-0.4,2.5-1.3,2.5-3C943.4,669,942.2,667.9,940,668z"/>
<path fill-rule="evenodd" clip-rule="evenodd" fill="#FFFFFF" d="M312.3,699.6c6.5,3,12.3,5.4,18.7,6.8c6.6,1.5,12.7-0.1,19.3-0.8
	c2.4,5.8,4.8,11.4,7.1,17c3.2,8.1,6.8,16.1,9.5,24.4c3.1,9.6,0.3,12.2-9.1,14.9c-3.9,1.1-8.1,0.9-12.3,0.2c-6.2-1-12.5-0.8-18.8-1.3
	c-4.4-0.4-8.8-1.2-13.2-1.8c-4.3-0.6-8.5-1.2-12.8-1.8c-0.4-0.1-0.9,0-1.3-0.1c-6.4-2-7.1-3.1-5.2-8.7c2.3-7.1,4.3-14.3,6.8-21.3
	c2-5.5,4.5-10.9,6.7-16.3c1-2.4,1.8-4.8,2.8-7.2C310.9,702.4,311.6,701.2,312.3,699.6z"/>
<path fill-rule="evenodd" clip-rule="evenodd" fill="#FFFFFF" d="M365.9,668.8c-0.9,4.9-1.7,9.9-2.7,14.8c-1.3,7-6.4,10.9-12.1,14.3
	c-9.1,5.5-18.5,4.9-28.1,1.6c-4.7-1.6-9.1-3.5-12.7-7c-1.5-1.5-3-3-4.2-4.7c-2.7-4-5.3-8.2-6.5-13c-0.4-1.8-1-3.6-1-5.4
	c0.1-4-0.1-7.9,1.4-11.8c3.5-8.9,10-14.4,18.8-17.6c0.5-0.2,1.3-0.6,1.6-0.4c2.7,1.8,5.1,0.2,7.6-0.5c3.7-1,7.5-0.5,11,0.4
	c4.8,1.1,9.5,2.9,14.2,4.6c1.1,0.4,2.1,1.5,2.9,2.5c1.5,2,2.7,4.4,4.4,6.3C364.7,657.3,365.8,662.8,365.9,668.8z M319.5,667.6
	c0.4,0.6,0.9,2.3,1.9,2.8c1,0.5,3,0.5,3.9-0.2c1.6-1.3,2.8-3.2,3.9-5c0.3-0.5-0.2-1.8-0.7-2.2c-1.9-1.5-4.1-1.4-6.2-0.6
	C320.5,663.1,319.7,664.9,319.5,667.6z M348.1,668c0.3-2.2-1.4-4.3-3.5-4.4c-2.3-0.2-4.7,1.6-5,3.7c-0.4,2.6,1.5,5.5,3.9,5.8
	C345.7,673.5,347.6,671.3,348.1,668z"/>
<path fill-rule="evenodd" clip-rule="evenodd" fill="#FFFFFF" d="M749,329.4c-8.6,4-16.8,6.3-25,8.7c-8.6,2.4-17.2,4.2-26.1,4.6
	c-11.6,0.5-23.2,0.6-34.7-1.6c-1.8-0.3-3.4-1.4-5.1-2.1c-2.8-1.2-5.6-2.1-8.3-3.5c-1.6-0.8-2.8-2.4-4.1-3.7c-1.3-1.2-1.5-2.7-1-4.3
	c2.5-9,5.6-17.8,10.2-25.9c2.3-4.1,5.1-7.9,8-11.7c3.2-4.2,5.1-5,9.6-2.6c6.8,3.7,14.2,4.6,21.6,5.1c8.6,0.6,17.1-0.3,24.2-6.2
	c0.7-0.6,2.1-0.8,3.1-0.6c1.4,0.3,2.7,1,3.8,1.9c8.1,6.6,15.1,14,17.9,24.5C744.6,317.9,746.9,323.4,749,329.4z"/>
<path fill-rule="evenodd" clip-rule="evenodd" fill="#FFFFFF" d="M695,287.5c-4.5-0.6-9.1-0.9-13.5-1.9c-5.8-1.2-11.5-3.5-15.7-7.6
	c-7.2-7-11.4-15.5-8.3-25.9c1.7-5.6,5.6-9.8,10.4-13.2c3.1-2.2,6.4-2.8,10-3c3.1-0.1,6.1-1,9.2-1.4c10-1.5,19.3,0.5,28,5.6
	c3.2,1.9,4.6,5.2,5.8,8.3c1.6,3.9,2.3,8.2,3.8,12.1c1.4,3.6,0.6,7-1.1,9.9c-2.4,4-5.4,7.8-8.6,11.2c-4.8,5.1-11.4,5.5-17.9,5.5
	c-0.7,0-1.4-0.1-2.1-0.2C695,287.1,695,287.3,695,287.5z M677,253.5c1.5,4,3.4,5.6,6.6,5.3c1.8-0.2,3.3-2.3,3.6-5.1
	c0.2-2.1-1-4.2-2.8-4.7C681.8,248.1,679.4,249.6,677,253.5z M702.4,249.1c-4,0.1-6.4,1.8-6.5,4.7c0,2.7,2.7,4.9,6,4.8
	c2.5-0.1,4.3-2.1,4.3-4.9C706.3,250.8,704.9,249.1,702.4,249.1z"/>
<path fill-rule="evenodd" clip-rule="evenodd" fill="#FFFFFF" d="M132.1,123.8c-8.3-0.8-16.5-1.6-24.8-2.4c-1.1-0.1-2.4-0.5-3.4-0.2
	c-6.5,1.8-12.8,0-19.1-1c-5.8-1-11.6-1.3-17.4-2.3c-5.9-1-11.8-2.3-17.6-3.8c-4.7-1.3-4.9-2.3-4.2-7.2c1.3-8.5,4.5-16.1,8.2-23.8
	c3.9-8.2,9.7-14.8,15.4-21.6c1.7-2,3.9-1.9,5.2,0.5c5,9.8,14,12.5,23.9,13.2c6.5,0.5,12.9-0.2,18.9-3.1c5.3-2.5,10.2-5.7,14-10.4
	c2.8-3.5,3.7-3.2,7.4-0.6c3.5,2.5,6.7,5.3,9.8,8.3c2.4,2.3,4.4,4.8,5.9,7.8c3.5,7.5,7.9,14.7,9.6,22.9c1,4.7,0.9,9.6,1.3,14.4
	c0.2,2.1-0.9,3.1-2.8,3.7c-9.9,3-19.6,6.7-30.3,4.6C132.1,123.3,132.1,123.5,132.1,123.8z"/>
<path fill-rule="evenodd" clip-rule="evenodd" fill="#FFFFFF" d="M139.1,36.2c0.3,6.2-1.6,11.6-5,16.7c-1.9,2.8-3.8,5.7-5.8,8.4
	c-5.1,6.9-12.7,8.6-20.6,10c-8.7,1.6-16.5-0.8-24-4.8c-2.9-1.6-5.1-3.9-6.7-7c-3.9-7.9-3.4-15.9-0.9-23.9c1.9-6.2,4.4-12.1,9.5-16.6
	c6.3-5.7,13.6-8.6,22-9.5c4.4-0.5,8.3,1.4,12.6,1.3c0.1,0,0.3,0.1,0.4,0.1c7.1,4.4,14.7,8.2,17.4,17
	C138.7,30.5,138.7,33.4,139.1,36.2z M98.5,41.3c0.6-0.4,1.2-0.8,1.7-1.2c0.5-0.5,1-1,1.4-1.6c1.1-1.6,0.6-3.1-1.3-3.5
	c-1.6-0.3-3-0.2-3.9,1.6C95.4,38.8,96.1,40.1,98.5,41.3z M117.4,35.4c-2.4,0.2-4.5,2.6-4,4.3c0.2,0.8,1.3,1.9,2.2,2
	c1.8,0.2,3.6-2.1,3.3-4.1C118.7,36.7,117.8,35.9,117.4,35.4z"/>
<path fill-rule="evenodd" clip-rule="evenodd" fill="#FFFFFF" d="M157,695.9c2.7,0.5,5.7,0.8,8.6,1.6c9.8,2.7,19.8,3.2,29.8,2.2
	c3.8-0.4,6.2,0.8,7.9,4.2c2.6,5.1,5.3,10.1,8.2,15.1c1.2,2.1,3,3.9,4.3,5.9c2.8,4.1,5.4,8.3,8.5,13.1c-2.2,1.1-3.9,2.2-5.7,2.7
	c-14.7,4.6-29.8,5.5-45,4.4c-12.6-1-25.1-2.5-37.7-3.9c-2-0.2-3.9-0.9-6.4-1.4c0.5-1.6,0.7-3,1.3-4.2c2.5-4.6,4.9-9.3,7.8-13.7
	c4.4-6.7,9.2-13.1,13.8-19.6C153.9,700.3,155.3,698.4,157,695.9z"/>
<path fill-rule="evenodd" clip-rule="evenodd" fill="#FFFFFF" d="M181.5,695c-7-0.7-16.5-0.8-25.5-4.3c-6.3-2.4-11-6.4-11.7-13.4
	c-0.7-6.4,1-12,5.8-16.8c4.5-4.5,9.2-7.9,15.2-10.1c4.3-1.5,8.5-0.9,12.8-1.1c4.8-0.3,9.5,0.6,14,2.2c8.4,3.1,13.3,9.4,14.9,18
	c0.8,4.5,2,8.9,1,13.6c-1,5.1-3.7,8.2-8.3,10.1C194.7,695.2,189.3,695.3,181.5,695z M186.5,668.7c-1.7-0.2-3.3,1.4-3.6,3.5
	c-0.2,1.9,0.7,3.1,2.4,3.3c1.7,0.2,4-1.3,4.2-2.9C189.8,670.6,188.5,668.9,186.5,668.7z M173,668.8c-1.7,0.1-2,1.2-2.1,2.6
	c-0.1,1.7,0.9,3.5,2.3,3.5c1.6,0,2.6-0.9,2.8-2.6C176.2,670.7,174.6,668.9,173,668.8z"/>
<path fill-rule="evenodd" clip-rule="evenodd" fill="#FFFFFF" d="M224.3,119.9c0.9-3.3,1.9-7.4,3.3-11.5c2.8-8.4,6.4-16.5,11.8-23.6
	c3.5-4.7,7.4-9.1,11.3-13.6c2.6-3,3.5-3.1,6.6-1.1c3.3,2.1,6.9,2.6,10.6,3.2c8,1.4,15.6,0,22.7-3.9c2.5-1.4,4.5-1.3,6.6,0.6
	c4.8,4.4,9.1,8.8,12.1,14.9c4.2,8.5,8.3,17,11.8,25.8c0.8,2.1,1.5,4.4,1.9,6.6c0.6,3.1-0.1,3.8-3.1,4.5c-8.5,1.8-16.9,4.4-25.8,3.5
	c-2.3-0.2-4.8,1.2-7.2,1.3c-8.6,0.1-17.2-0.1-25.7-0.1c-0.7,0-1.5-0.1-2.1,0.1c-5.8,1.2-11.7,0.6-17.5-0.1
	c-4.6-0.6-9.1-0.9-13.7-1.6C225.2,124.4,224.3,123.2,224.3,119.9z"/>
<path fill-rule="evenodd" clip-rule="evenodd" fill="#FFFFFF" d="M305.3,40.5c-1.1,2.9-1.9,5.8-3.2,8.5c-3.5,7.1-7.9,13.6-14.5,18.3
	c-3.7,2.6-7.8,3.4-12.2,3c-2.9-0.3-5.8-0.4-8.5-1c-6.6-1.5-12.3-4.6-16.1-10.5c-2.8-4.3-4.7-8.7-5.6-13.8c-0.8-4.6,0.1-8.7,2.5-12.7
	c4.9-8,12.7-11.9,20.9-15.3c1.7-0.7,3.7-0.9,5.5-0.6c5.9,0.9,11.8,1.8,17.5,3.3c4.5,1.2,9.3,3.2,10.9,8.2
	C303.8,31.9,304.3,36.2,305.3,40.5z M269.7,44.2c-0.8-1.8,0.1-4.5-2.6-4.9c-2-0.3-3.5,1.3-4.2,3c-0.4,1-0.1,2.9,0.6,3.4
	C265.6,47.2,267.5,45.9,269.7,44.2z M286,40.8c-1.6-0.2-2.8-0.6-4-0.4c-1.9,0.2-3,2.3-2.5,4.6c0.4,1.6,1.5,2.1,3.7,1.5
	C286,45.8,285.7,43.6,286,40.8z"/>
<path fill-rule="evenodd" clip-rule="evenodd" fill="#FFFFFF" d="M430.9,64.3c4.4,2.3,6.9,5.8,9.8,9c5.3,5.9,9.1,12.8,11.9,20.2
	c2.7,7.3,3.7,15,2.2,22.8c-1,5.4-2.2,6.4-7.7,6.7c-4.2,0.2-8.5,0-12.8,0.1c-5.6,0.1-11.2,0.4-16.7,0.5c-8.1,0.1-16.3,0.4-24.2-2.3
	c-2.1-0.7-4.5-0.8-6.8-1.2c-5.4-0.9-10.7-1.8-16.1-2.8c-4.8-0.9-8.1-6.6-6.3-11.2c2.8-7.3,5.7-14.6,9.6-21.5
	c2.6-4.6,4.8-9.4,7.9-13.6c1.3-1.8,2.6-3.8,5.3-4.1c6.2,5.9,14.1,7.6,22.3,7.7C417.8,74.6,424.8,70.6,430.9,64.3z"/>
<path fill-rule="evenodd" clip-rule="evenodd" fill="#FFFFFF" d="M407.4,70.7c-11.7-0.3-19.6-6-24.1-16.8c-1.4-3.4-1.3-6.7-0.3-10.1
	c0.6-2.1,1.6-4,2.2-6c1-3.5,3.2-6,6.1-8c4.7-3.1,9.7-5.8,15.6-5.3c2.7,0.2,5.3,1,7.9,1.9c8,2.8,14.8,6.8,17,15.9
	c0.7,2.8,1.2,5.6,0.3,8.4c-0.9,2.7-1.6,5.5-2.8,8.1c-3.9,8.2-10.6,12-19.7,12C408.9,70.7,408.2,70.7,407.4,70.7z M415.7,49.2
	c1.1-1,2.2-1.7,2.9-2.6c1-1.2,1.1-2.8-0.3-3.8c-1.3-1-2.7-0.7-3.9,0.3C412.5,44.6,412.6,45.8,415.7,49.2z M403.3,41.6
	c-1.2,1.6-2.3,2.5-2.7,3.6c-0.4,1.3,1.2,2.8,2.6,2.7c1.6-0.1,3.4-1.6,3-2.9C405.9,43.8,404.7,43,403.3,41.6z"/>
<path fill-rule="evenodd" clip-rule="evenodd" fill="#FFFFFF" d="M61.8,742.5c-5.4,0.5-10.8,1-16.2,1.6c-7.7,0.8-15.4,0.7-23.1-0.7
	c-3.1-0.6-6.1-1.6-9.1-2.5c-7.9-2.4-9.5-9.6-7-15.9c2.6-6.7,5.5-13.3,8.8-19.6c2.8-5.5,6.2-10.6,9.3-15.9c0.4-0.6,0.8-1.2,1.3-1.7
	c2.7-2.8,2.7-2.7,5.5,0.1c7.8,8,17.5,10.7,29.1,3.3c4.3-2.8,4.3-3,7.2,1.2c1.4,2,2.4,4.3,3.5,6.4c5.6,10.3,10.4,21,13.5,32.4
	c0.4,1.4,0.6,2.8,0.6,4.2c-0.1,3.2-1.4,5.2-4.7,5.7c-6.2,1.1-12.4,1.7-18.7,2.5C61.9,743.2,61.8,742.9,61.8,742.5z"/>
<path fill-rule="evenodd" clip-rule="evenodd" fill="#FFFFFF" d="M26,666c0.1-9,2.8-14.1,6.4-18.8c1.6-2,3.8-3,6.3-3.5
	c2.8-0.5,5.6-1.5,8.4-1.5c5.1,0.2,9.9,1.5,13.7,5.3c4.4,4.5,6.2,10.4,7,16.3c0.4,2.8-0.7,5.9-1.3,8.9c-0.4,2-1.2,3.8-2,5.7
	c-3.4,8.3-13.6,13.2-21,12c-4.3-0.7-7.5-3.2-10-6.2C28.7,678.2,25.6,671.3,26,666z M47.6,664.4c-0.9-3.8-1.7-5.2-3.3-4.9
	c-1.1,0.2-2.2,1.1-3,2c-0.8,1,0,4,1.1,4.5C44.5,666.9,46.1,666.1,47.6,664.4z M56.3,669.8c1.8-1.3,3.5-2,3.9-3.1
	c0.4-1-0.6-2.7-1.4-3.8c-0.4-0.6-2-0.9-2.6-0.5c-0.8,0.5-1.5,1.8-1.5,2.7C54.8,666.4,55.5,667.6,56.3,669.8z"/>
<path fill-rule="evenodd" clip-rule="evenodd" d="M80.4,254.8c3.8,0,5.5,1.7,5.5,5.1c0,4.2-3,7.2-7,7.1c-3.2,0-6.1-2.9-5.9-6.1
	C73.1,257.3,76.2,254.7,80.4,254.8z"/>
<path fill-rule="evenodd" clip-rule="evenodd" d="M102.4,255.1c3.1,0,5.7,2.2,5.8,5c0.1,3.7-3.2,7-7.4,7.2c-2.2,0.1-4.1-2.6-4.1-5.8
	C96.7,258,99.3,255.1,102.4,255.1z"/>
<path fill-rule="evenodd" clip-rule="evenodd" d="M933.2,461.2c0-2.5,1.7-4.5,4.1-4.6c2.4,0,4.4,1.9,4.3,4.3
	c-0.1,2.6-2.2,4.9-4.4,4.9C934.9,465.9,933.2,464,933.2,461.2z"/>
<path fill-rule="evenodd" clip-rule="evenodd" d="M914.4,466.2c-2.6-3-2.9-4.3-1.3-6.6c1-1.5,2.1-2.7,4.2-1.9c1.7,0.7,3,1.5,2.9,3.6
	C919.9,464.4,919.1,465.1,914.4,466.2z"/>
<path fill-rule="evenodd" clip-rule="evenodd" d="M497.5,665.1c0-2.8,2.8-6,5.2-6c2.9,0.1,5.8,2.9,5.8,5.8c0.1,3-3.1,5.7-6.5,5.6
	C499.6,670.5,497.5,667.8,497.5,665.1z"/>
<path fill-rule="evenodd" clip-rule="evenodd" d="M474.8,660.4c1.8-0.3,3.9-0.8,6-0.9c2.2-0.1,4.3,1.7,4.8,3.6
	c0.6,2.2-0.2,3.6-2.7,5.2c-2.1,1.4-4.2,1.9-6.4,0.3C473.6,666.6,473.7,663.9,474.8,660.4z"/>
<path fill-rule="evenodd" clip-rule="evenodd" d="M560,38.6c2.5,0,4.3,1.5,4.4,3.7c0.1,2.2-1.6,3.7-4.2,3.7c-2.5,0-4.7-1.5-4.8-3.4
	C555.2,40.5,557.4,38.6,560,38.6z"/>
<path fill-rule="evenodd" clip-rule="evenodd" d="M580.9,39.6c2.5,0,4.4,1.5,4.4,3.7c0,2.1-1.5,3.5-3.9,3.6c-2.5,0.1-5-1.7-5-3.7
	C576.3,41.1,578.2,39.6,580.9,39.6z"/>
<path fill-rule="evenodd" clip-rule="evenodd" d="M405.9,241.3c3.7,0.2,5.9,1.6,6.3,3.6c0.5,2.2-0.7,3.7-2.5,5
	c-1.8,1.4-3.4,2.9-6,2.8c-2.8-0.1-4-0.8-4.8-3.3c-0.8-2.6-0.2-5.5,1.9-6.5C402.7,242,404.8,241.6,405.9,241.3z"/>
<path fill-rule="evenodd" clip-rule="evenodd" d="M386,238.7c3.1,0.1,4.4,1.7,4.2,5.1c-0.2,3.1-3.9,6.2-7.1,6
	c-3.1-0.2-4.7-2.3-4.5-6C378.7,241.3,382.7,238.6,386,238.7z"/>
<path fill-rule="evenodd" clip-rule="evenodd" d="M570.1,464.8c-0.4,3.4-1.8,5.1-3.7,6.5c-2,1.5-3.7,1.2-5.3-0.6
	c-1.8-2-2.1-4.6-0.5-6.2c1.1-1.1,2.5-1.9,3.8-2.8c1.3-1,2.8-1.2,3.9,0C569.2,462.8,569.8,464.2,570.1,464.8z"/>
<path fill-rule="evenodd" clip-rule="evenodd" d="M586.1,470c0,3.5-2.5,6.4-5.5,6.5c-2.1,0-4.6-2.9-4.5-5.3c0.1-3.1,2.9-5.4,6.5-5.4
	C585.1,465.8,586.1,467,586.1,470z"/>
<path fill-rule="evenodd" clip-rule="evenodd" d="M780.5,677.9c2.6,0,3.8,1.3,3.7,4.1c0,3.1-3.2,6.8-6,6.8c-2.5,0.1-5-3-5.1-6
	C773,680.1,776.5,677.8,780.5,677.9z"/>
<path fill-rule="evenodd" clip-rule="evenodd" d="M799,680.5c1.5,0.6,3.6,0.9,4.4,2c1.1,1.7,0.2,3.7-1.1,5.4c-2.1,2.7-3,3.3-5.5,2.6
	c-2.9-0.8-3.8-1.9-4.1-5.1c-0.2-1.7,0.3-2.8,1.8-3.4C795.8,681.4,797.3,681,799,680.5z"/>
<path fill-rule="evenodd" clip-rule="evenodd" d="M410,469.1c3.6,0.1,5.4,1.9,5.2,5.3c-0.1,2.9-3.8,6.1-7.1,6.1
	c-2.3,0-5.3-3.1-5.1-5.3C403.3,471.7,406.3,469,410,469.1z"/>
<path fill-rule="evenodd" clip-rule="evenodd" d="M435.1,473.9c-0.2,3.8-2.7,6.5-6,6.4c-2.2-0.1-4.2-2.7-4-5.1
	c0.3-3.4,3-5.9,6.2-5.6C433.3,469.8,435.2,471.8,435.1,473.9z"/>
<path fill-rule="evenodd" clip-rule="evenodd" d="M749.1,41.8c-2.5,1-4.8,2.3-7,0.2c-1-0.9-2.1-2.4-2-3.5c0.1-1,1.7-2.2,2.8-2.7
	C747.3,34.1,749.9,36.7,749.1,41.8z"/>
<path fill-rule="evenodd" clip-rule="evenodd" d="M758.9,36.7c0.1-1.2,0.8-2.2,2.6-2.2c2.5,0,5,2,5.2,4.2c0.1,1.8-1.3,2.9-3.8,2.9
	C760.4,41.6,758.9,40,758.9,36.7z"/>
<path fill-rule="evenodd" clip-rule="evenodd" d="M748.8,456.1c2.9,0,4.5,2.3,3.4,5.2c-1.6,4.6-4.9,6.2-8.4,4c-2.1-1.3-2.4-2.8-1-5
	C744.7,457.4,746.6,456.1,748.8,456.1z"/>
<path fill-rule="evenodd" clip-rule="evenodd" d="M766.5,465c-1.1-1.5-2.5-3.1-1-4.9c1.3-1.5,3.1-2.8,4.9-3.6c1.4-0.6,3.5-0.2,4,1.5
	c0.4,1.3,0.2,3.2-0.5,4.3C772.4,464.7,770,466.1,766.5,465z"/>
<path fill-rule="evenodd" clip-rule="evenodd" d="M836.9,257.4c0,2.2-1.4,3.8-3.2,3.7c-1.8-0.1-3.8-2.3-3.7-4
	c0.1-1.8,1.5-3.3,3.1-3.4C835.2,253.6,836.9,255.3,836.9,257.4z"/>
<path fill-rule="evenodd" clip-rule="evenodd" d="M856.8,257.7c0,1.3-1.8,3-3.1,3c-2.1,0-3.6-1.4-3.7-3.3c0-1.5,1.3-2.6,3.1-2.6
	C855,254.7,856.8,256.3,856.8,257.7z"/>
<path fill-rule="evenodd" clip-rule="evenodd" d="M918.1,36.1c2-3.3,3.6-4.2,6-3.6c2.1,0.5,2.6,2,2.6,3.9c0,1.9-1.6,4.4-3.2,4.5
	C919.9,41.3,919.3,38.3,918.1,36.1z"/>
<path fill-rule="evenodd" clip-rule="evenodd" d="M946.2,38.9c-1.1,0.6-2.1,1.2-3.2,1.8c-2.1-1.2-5.2-1.5-4.9-5c0.1-2,2.7-4,4.5-3.9
	C944.6,32,945.9,34.3,946.2,38.9z"/>
<path fill-rule="evenodd" clip-rule="evenodd" d="M82.5,487.1c1.2-0.8,2-1.5,3-2c2-0.8,3.8,0,4.3,2c0.3,1.2,0.5,2.6,0.1,3.7
	c-0.4,1.1-1.4,2.4-2.3,2.7c-1.4,0.4-2.7-0.5-3.3-2C83.8,490.2,83.2,488.9,82.5,487.1z"/>
<path fill-rule="evenodd" clip-rule="evenodd" d="M108.4,486.9c0,2.7-1.2,4-3.4,3.8c-1.8-0.1-3-0.8-3-2.8c0-2.5,1.9-4.9,3.9-4.7
	C107.6,483.3,108.4,484.5,108.4,486.9z"/>
<path fill-rule="evenodd" clip-rule="evenodd" d="M224,280.1c-2.6-0.9-4.1-2.2-3.8-4.8c0.2-1.4,2.4-3.3,4-3.4
	c1.8-0.1,3.3,0.8,3.6,2.5C228.2,277.2,226.2,278.7,224,280.1z"/>
<path fill-rule="evenodd" clip-rule="evenodd" d="M245.6,278.4c-1.8,0.3-3,3.4-5.4,1.2c-1.2-1.1-2.2-2.7-1-4.5
	c0.9-1.4,1.9-2.9,4-2.5C245.1,272.9,245.6,274.1,245.6,278.4z"/>
<path fill-rule="evenodd" clip-rule="evenodd" d="M641.3,651.4c1.9,0,3.9,2.1,3.8,3.9c0,1.5-2.6,3.7-4.2,3.5c-1.4-0.1-3.1-2.2-3-3.7
	C638,653.2,639.6,651.4,641.3,651.4z"/>
<path fill-rule="evenodd" clip-rule="evenodd" d="M624.9,652.2c2-1.2,4.2-1.3,5.4,0.4c0.7,1,0.6,3.1,0.1,4.4c-0.3,0.7-2.4,1.3-3.3,1
	C624.8,657.2,624.6,654.9,624.9,652.2z"/>
<path fill-rule="evenodd" clip-rule="evenodd" d="M268,487.4c2.5,0,4.2,1.7,4.3,4.4c0.1,2.4-1.7,4.2-4.3,4.3
	c-1.8,0.1-4.2-2.3-4.1-4.2C263.9,489.5,265.9,487.3,268,487.4z"/>
<path fill-rule="evenodd" clip-rule="evenodd" d="M251.6,487.9c2.3,3.2,2.4,5.1,1,7.1c-1,1.3-2.2,1.7-3.7,1.3c-1.7-0.5-3.3-3-3-4.8
	C246.4,488.4,249,488.5,251.6,487.9z"/>
<path fill-rule="evenodd" clip-rule="evenodd" d="M560,247.9c-0.1,2.7-1.8,4.4-4.2,4.3c-1.7-0.1-3.2-2.2-3.1-4.4
	c0.1-1.9,2.3-3.7,4.4-3.6C559.3,244.2,560.1,245.3,560,247.9z"/>
<path fill-rule="evenodd" clip-rule="evenodd" d="M545.3,248.9c-0.3,2.5-1.8,3.7-4.1,3.3c-1.9-0.3-3.4-2.1-3.2-3.9
	c0.3-2.2,1.8-3.7,3.6-3.6C544.3,245,545.7,246.5,545.3,248.9z"/>
<path fill-rule="evenodd" clip-rule="evenodd" d="M924.5,671.2c-0.1-1.5,1.5-3.3,3.1-3.4c1.9-0.1,3.4,0.9,3.3,2.4
	c-0.1,1.5-1.7,3.8-2.8,3.9C926.7,674.2,924.6,672.6,924.5,671.2z"/>
<path fill-rule="evenodd" clip-rule="evenodd" d="M940,668c2.2,0,3.5,1.1,3.5,2.7c0,1.7-1.1,2.6-2.5,3c-1.4,0.3-3.3-1.6-3.4-3.3
	C937.5,668.6,938.6,667.9,940,668z"/>
<path fill-rule="evenodd" clip-rule="evenodd" d="M319.5,667.6c0.2-2.8,1-4.6,2.8-5.3c2-0.8,4.3-0.9,6.2,0.6c0.5,0.4,1,1.8,0.7,2.2
	c-1.1,1.8-2.3,3.7-3.9,5c-0.8,0.7-2.8,0.8-3.9,0.2C320.4,669.9,319.9,668.3,319.5,667.6z"/>
<path fill-rule="evenodd" clip-rule="evenodd" d="M348.1,668c-0.4,3.3-2.4,5.4-4.7,5.1c-2.3-0.4-4.3-3.2-3.9-5.8
	c0.3-2.1,2.7-3.8,5-3.7C346.7,663.8,348.3,665.9,348.1,668z"/>
<path fill-rule="evenodd" clip-rule="evenodd" d="M677,253.5c2.4-3.8,4.8-5.3,7.4-4.6c1.8,0.5,3,2.6,2.8,4.7c-0.3,2.8-1.8,5-3.6,5.1
	C680.4,259.1,678.4,257.5,677,253.5z"/>
<path fill-rule="evenodd" clip-rule="evenodd" d="M702.4,249.1c2.5,0,3.9,1.6,3.8,4.6c0,2.8-1.8,4.8-4.3,4.9c-3.3,0.1-6-2.1-6-4.8
	C696,250.9,698.4,249.2,702.4,249.1z"/>
<path fill-rule="evenodd" clip-rule="evenodd" d="M98.5,41.3c-2.4-1.2-3.1-2.5-2.1-4.7c0.9-1.8,2.3-1.9,3.9-1.6
	c1.9,0.4,2.4,1.9,1.3,3.5c-0.4,0.6-0.9,1.1-1.4,1.6C99.6,40.5,99,40.9,98.5,41.3z"/>
<path fill-rule="evenodd" clip-rule="evenodd" d="M117.4,35.4c0.4,0.5,1.3,1.3,1.4,2.2c0.4,2-1.5,4.3-3.3,4.1
	c-0.8-0.1-1.9-1.2-2.2-2C113,38,115.1,35.6,117.4,35.4z"/>
<path fill-rule="evenodd" clip-rule="evenodd" d="M186.5,668.7c1.9,0.2,3.3,1.9,3,3.9c-0.2,1.5-2.4,3-4.2,2.9
	c-1.8-0.2-2.7-1.4-2.4-3.3C183.2,670.1,184.8,668.6,186.5,668.7z"/>
<path fill-rule="evenodd" clip-rule="evenodd" d="M173,668.8c1.6,0.1,3.2,1.9,3,3.5c-0.2,1.7-1.2,2.6-2.8,2.6
	c-1.3,0-2.4-1.8-2.3-3.5C171,670,171.3,668.9,173,668.8z"/>
<path fill-rule="evenodd" clip-rule="evenodd" d="M269.7,44.2c-2.2,1.8-4.1,3-6.2,1.5c-0.7-0.5-1-2.4-0.6-3.4c0.7-1.7,2.2-3.4,4.2-3
	C269.9,39.7,269,42.3,269.7,44.2z"/>
<path fill-rule="evenodd" clip-rule="evenodd" d="M286,40.8c-0.3,2.8,0,5-2.8,5.7c-2.2,0.6-3.3,0.1-3.7-1.5
	c-0.5-2.3,0.5-4.4,2.5-4.6C283.2,40.3,284.4,40.6,286,40.8z"/>
<path fill-rule="evenodd" clip-rule="evenodd" d="M415.7,49.2c-3-3.4-3.2-4.5-1.2-6.2c1.3-1.1,2.7-1.3,3.9-0.3
	c1.4,1.1,1.2,2.6,0.3,3.8C417.9,47.5,416.8,48.2,415.7,49.2z"/>
<path fill-rule="evenodd" clip-rule="evenodd" d="M403.3,41.6c1.3,1.5,2.6,2.3,2.9,3.4c0.4,1.3-1.3,2.8-3,2.9
	c-1.4,0.1-3-1.3-2.6-2.7C401,44.1,402.1,43.2,403.3,41.6z"/>
<path fill-rule="evenodd" clip-rule="evenodd" d="M47.6,664.4c-1.6,1.7-3.1,2.5-5.1,1.6c-1.1-0.5-1.9-3.5-1.1-4.5
	c0.7-0.9,1.9-1.8,3-2C45.9,659.2,46.8,660.6,47.6,664.4z"/>
<path fill-rule="evenodd" clip-rule="evenodd" d="M56.3,669.8c-0.8-2.3-1.5-3.5-1.5-4.7c0-0.9,0.7-2.2,1.5-2.7
	c0.6-0.4,2.2,0,2.6,0.5c0.8,1.1,1.7,2.8,1.4,3.8C59.8,667.9,58,668.5,56.3,669.8z"/>
</svg>
