<?xml version="1.0" encoding="utf-8"?>
<!DOCTYPE svg PUBLIC "-//W3C//DTD SVG 1.1//EN" "http://www.w3.org/Graphics/SVG/1.1/DTD/svg11.dtd">
<svg artist="zl2017" version="1.1" id="zlIcon-user-b" xmlns="http://www.w3.org/2000/svg" xmlns:xlink="http://www.w3.org/1999/xlink" x="0px" y="0px"
	 width="1000px" height="1337.2px" viewBox="0 0 1000 1337.2" enable-background="new 0 0 1000 1337.2" xml:space="preserve">
<path fill-rule="evenodd" clip-rule="evenodd" d="M558.9,1312.9c-12.1-51.9,17.3-104.3-10.4-153.4c-38.6,1.9-77.6,3.8-115.7,5.7
	c-25.9,55,4.8,114.7-14.8,172c-24.3-5.8-33.6-16.1-37.9-35.4c-7.7-34.8-19.4-68.8-27.1-103.6c-6.8-31-25.9-39.8-55.1-42.6
	c-66.4-6.3-132.8-14.3-198.7-24.7c-26.4-4.2-52.8-14.3-76.8-26.3c-19.6-9.9-26.3-28-19.2-52.5c23.6-82.1,40.9-166.2,68.4-246.9
	c27-79.1,62-155.6,96.3-231.9c18.8-42,44.9-80.7,64.3-122.4c5.4-11.6,1.5-29.4-2.3-43.2c-15.2-54.5-33.5-108.3-25.1-166.3
	c13.7-93.5,57.4-169.4,140.6-215.5C395.7-2,454-2.3,511,2.1c92.2,7.2,165.2,54.4,230.6,114.2c55.3,50.5,55.8,118.9,48.4,186.6
	c-2.9,26.8-13.1,53.1-22.1,78.9c-7.5,21.6-4.7,37.7,10.4,56.3c61,74.8,110.6,157.5,148.2,245.9c19.2,45,25.9,95.4,37.1,143.6
	c11.6,50,22.5,100.2,32.5,150.6c9.7,49-1,70.8-49.4,86.1c-89.7,28.3-180.1,54.3-271,78.6c-22.6,6.1-38.1,15.5-44.5,36.8
	c-10.3,34.3-19.5,69.1-27.9,104C598.1,1305.5,592.4,1324.8,558.9,1312.9z M302.3,513.3c-31.3,33.1-65.7,62.6-91.8,98.2
	C114,742.6,87.7,899.8,53.1,1053.5c-5.1,22.5,6.4,36.1,28.9,40.1c32,5.7,63.9,11.9,96.1,16.7c112,16.8,224,27.2,337.8,16.1
	c125.2-12.2,246.1-41.1,364.9-80.7c51.9-17.3,75.1-59,62.7-115.1c-23.1-104-51.4-206.7-101.8-301.1
	c-30.4-56.9-69.3-108.5-124.8-143.7C610.2,583.7,463.2,609,302.3,513.3z M502.6,48.9c-24.4,0-38.1-0.4-51.8,0.1
	C366,51.6,289.4,106.6,268,188.2c-10.6,40.6-12.3,84.5-11.7,126.8c2.3,143.5,140.5,250.5,280.8,218.3
	C667,503.4,726,438.6,749.6,307.1c9.2-51.4,13.4-110-29.3-150.8C657,95.8,590.1,37.7,502.6,48.9z"/>
<path fill-rule="evenodd" clip-rule="evenodd" fill="#FFFFFF" d="M302.3,513.3c160.9,95.7,307.9,70.5,414.6-27.3
	c55.5,35.2,94.4,86.8,124.8,143.7c50.4,94.4,78.7,197,101.8,301.1c12.4,56.1-10.8,97.8-62.7,115.1
	c-118.8,39.6-239.7,68.5-364.9,80.7c-113.8,11-225.8,0.6-337.8-16.1c-32.1-4.8-64.1-11-96.1-16.7c-22.5-4-34-17.6-28.9-40.1
	C87.7,899.8,114,742.6,210.5,611.4C236.7,575.9,271,546.3,302.3,513.3z"/>
<path fill-rule="evenodd" clip-rule="evenodd" fill="#FFFFFF" d="M502.6,48.9c87.5-11.2,154.4,47,217.7,107.4
	c42.7,40.8,38.6,99.4,29.3,150.8C726,438.6,667,503.4,537.2,533.2c-140.3,32.3-278.5-74.8-280.8-218.3c-0.7-42.3,1-86.2,11.7-126.8
	c21.4-81.5,98-136.6,182.8-139.2C464.5,48.5,478.2,48.9,502.6,48.9z M573.7,235.9c-20.3,0-43.9,21.7-44.6,41
	c-0.6,16.3,22.2,33.3,44.3,32.9c21.1-0.3,35.4-13.7,36.4-34.1C611,252.9,595.5,235.9,573.7,235.9z M441.5,242
	c-32.1-1.1-49.8,14.7-50.5,36.4c-0.7,21.4,9.6,31.5,31,31.7c23.6,0.3,44.6-14.4,41.2-35.1C460.9,261.5,446.9,249.8,441.5,242z"/>
<path fill-rule="evenodd" clip-rule="evenodd" d="M573.7,235.9c21.8,0,37.3,17,36.1,39.7c-1,20.4-15.3,33.8-36.4,34.1
	c-22.1,0.3-44.9-16.6-44.3-32.9C529.8,257.6,553.4,235.9,573.7,235.9z"/>
<path fill-rule="evenodd" clip-rule="evenodd" d="M441.5,242c5.5,7.9,19.4,19.5,21.7,33c3.4,20.7-17.6,35.4-41.2,35.1
	c-21.3-0.3-31.7-10.4-31-31.7C391.7,256.7,409.3,240.9,441.5,242z"/>
</svg>
