<?xml version="1.0" encoding="utf-8"?>
<!DOCTYPE svg PUBLIC "-//W3C//DTD SVG 1.1//EN" "http://www.w3.org/Graphics/SVG/1.1/DTD/svg11.dtd">
<svg artist="zl2017" version="1.1" id="zlIcon-wine" xmlns="http://www.w3.org/2000/svg" xmlns:xlink="http://www.w3.org/1999/xlink" x="0px" y="0px"
	 width="1000px" height="1195.9px" viewBox="0 0 1000 1195.9" enable-background="new 0 0 1000 1195.9" xml:space="preserve">
<path opacity="0.75" fill-rule="evenodd" clip-rule="evenodd" fill="#FFFFFF" d="M308.7,755.1c-11.4,4-18.1,5.9-24.4,8.7
	c-40.3,17.6-81.6,28.4-126.3,26.1c-34.7-1.8-69.7-0.4-104.1-0.4c-5.9,23,1.4,47.8,18.4,55.8c28.9,13.5,55.7,29.7,88.6,36.9
	c46.6,10.1,85.3-3.7,124.9-21.4c12.9-5.8,19.8-16.9,21.8-30.9c2.2-15.9,4.7-31.9,5.7-47.9C313.8,774.5,310.9,766.8,308.7,755.1z"/>
<path opacity="0.75" fill-rule="evenodd" clip-rule="evenodd" fill="#FFFFFF" d="M133.2,768.3c0.2-1.7,0.4-3.4,0.6-5.1
	c12.1,0,24.3,0.9,36.3-0.2c37.1-3.3,74.3-6.6,108.3-23.9c14.5-7.4,28-16.1,34.3-32.5c6.2-16.3,4.9-25.8-11.4-32
	c-19.3-7.4-40.4-12.9-61-13.7c-21.8-0.9-44,3.5-65.7,7.4c-29.6,5.2-59.3,10.7-88.1,18.8c-13,3.7-25.6,12.6-35.9,21.9
	c-17.8,16.1-13.8,40.7,9,47.5C83.3,763.5,108.7,764.6,133.2,768.3z"/>
<path opacity="0.75" fill-rule="evenodd" clip-rule="evenodd" fill="#FFFFFF" d="M541.4,800.7c-1.8,0.1-3.6,0.2-5.4,0.3
	c3.5,47.2,4.1,94.9,11.4,141.6c8.6,54.6,22.5,108.5,35.2,162.4c4,16.8,16.2,25.9,34,30.2c29.6,7.2,59.1,12.5,89.8,11.1
	c13-0.6,26.5-0.1,39.2,2.5c58.5,11.8,112-5,163.3-29.9c19.8-9.6,37.6-24.8,38.3-50.7c0.5-18.2,0.5-36.4,0.4-54.6
	c-0.1-12.6-5-18.6-19-15.1c-12.7,3.2-25.7,4.9-38.7,6.7c-36.8,5.1-73.6,10.7-110.5,14.6c-27.7,3-37.8-5.3-45.4-32.7
	c-1.3-4.9-3.1-9.7-3.7-14.7c-10.5-74.9-19.8-150-19.4-225.8c0.1-27.4,3.4-34.9,30.8-39.3c38-6,70.3-23.8,103.1-41.5
	c38-20.5,41.7-36,17-71.6c-2.9-4.1-6.5-7.7-9.9-11.4c-24.2-27-48.6-53.7-72.4-81.1c-6.6-7.5-13.3-16.1-16.2-25.4
	c-14.2-46.4-28.2-93-23.7-142.5c3.3-36.1,7.8-72.1,11-108.2c0.6-6.6-0.2-17.5-3.9-19.5c-11.1-5.8-23.9-10.2-36.3-11
	c-13.8-0.9-12.5,13.2-15.3,22.3c-1.2,3.8-2.1,7.9-2.3,11.8c-2.2,42.3-3.7,84.7-6.5,127c-1.8,26.8,4.5,55.4-10.4,79.8
	c-17.3,28.4-34.7,57.5-56.8,82c-43.6,48.3-70.8,103.4-77.1,167.4C538.4,723.6,541.4,762.3,541.4,800.7z"/>
<path fill-rule="evenodd" clip-rule="evenodd" d="M753.2,1193.1c-58,6.2-111.8-16.8-167.7-23.1c-17.1-1.9-28.8-12.2-34.1-30.1
	c-17.8-59.9-38.3-119.2-37.3-183c0.2-10.9-2.8-21.9-4.1-32.8c-2-17-4-34-5.7-51c-1.9-18-3.8-36-5.2-54c-0.8-10.1-1.3-20.2-0.8-30.3
	c3.1-63.8,13-126.8,32.3-187.3c14.2-44.4,40.4-84.5,71.9-118.6c34.5-37.4,46.4-81.8,53.1-129c7.9-55.1,10.2-110.4-0.1-165.5
	c-0.4-2-1.4-4.4-0.7-5.9c17.4-37.8-0.2-75.7,0-113.5c0.1-13.5,3.4-22.8,12.4-32.2C699.8,2.9,738.7-7.3,783.3,5
	c25.7,7.1,34.7,21.6,28.4,47.9c-5.7,23.4-14.1,46.2-21.7,69.2c-8,24.4-12,48.5-2.8,73.7c2.3,6.2,2,14,0.7,20.7
	c-4.8,24.6-12.9,48.7-15.3,73.5c-2.1,21.8,1.3,44.2,3.1,66.3c2,25,4.4,50.1,7.8,74.9c1,7.7,4.6,15.8,9.2,22.1
	c24.3,33.3,45.4,69.3,78.5,95.4c5.4,4.2,9,10.7,13.2,16.3c29.1,39.5,44,84.9,55.9,131.9c8.9,35.1,21.1,69.3,30.5,104.3
	c3.8,14.4,4.3,29.8,5.9,44.8c6.9,64.1,11.1,128.7,21.5,192.2c6.1,37.6-10.4,63.1-32.2,86.7c-31.8,34.4-71.9,54.5-119.7,58
	C815.2,1185.2,784.3,1189.6,753.2,1193.1z M541.4,800.7c-1.8,0.1-3.6,0.2-5.4,0.3c3.5,47.2,4.1,94.9,11.4,141.6
	c8.6,54.6,22.5,108.5,35.2,162.4c4,16.8,16.2,25.9,34,30.2c29.6,7.2,59.1,12.5,89.8,11.1c13-0.6,26.5-0.1,39.2,2.5
	c58.5,11.8,112-5,163.3-29.9c19.8-9.6,37.6-24.8,38.3-50.7c0.5-18.2,0.5-36.4,0.4-54.6c-0.1-12.6-5-18.6-19-15.1
	c-12.7,3.2-25.7,4.9-38.7,6.7c-36.8,5.1-73.6,10.7-110.5,14.6c-27.7,3-37.8-5.3-45.4-32.7c-1.3-4.9-3.1-9.7-3.7-14.7
	c-10.5-74.9-19.8-150-19.4-225.8c0.1-27.4,3.4-34.9,30.8-39.3c38-6,70.3-23.8,103.1-41.5c38-20.5,41.7-36,17-71.6
	c-2.9-4.1-6.5-7.7-9.9-11.4c-24.2-27-48.6-53.7-72.4-81.1c-6.6-7.5-13.3-16.1-16.2-25.4c-14.2-46.4-28.2-93-23.7-142.5
	c3.3-36.1,7.8-72.1,11-108.2c0.6-6.6-0.2-17.5-3.9-19.5c-11.1-5.8-23.9-10.2-36.3-11c-13.8-0.9-12.5,13.2-15.3,22.3
	c-1.2,3.8-2.1,7.9-2.3,11.8c-2.2,42.3-3.7,84.7-6.5,127c-1.8,26.8,4.5,55.4-10.4,79.8c-17.3,28.4-34.7,57.5-56.8,82
	c-43.6,48.3-70.8,103.4-77.1,167.4C538.4,723.6,541.4,762.3,541.4,800.7z M897.9,673.9c-50.3,22.5-96.9,43.6-143.7,64.1
	c-11.6,5.1-13.4,14.2-13,24.6c2,46.2,3.3,92.6,6.8,138.7c1.4,17.8,7.2,35.5,12.6,52.8c7.6,24.3,16.7,31.1,42.2,28
	c41.8-5.2,83.5-12.1,125-19.2c11.3-1.9,20.6-7.7,19.9-22.2c-1.7-32.2,0-64.8-4.9-96.5c-6.6-42.5-17.6-84.4-27.9-126.2
	C911.1,702.8,903.6,688.3,897.9,673.9z"/>
<path fill-rule="evenodd" clip-rule="evenodd" d="M244.3,1114.9c-26,0.3-26.1-20.7-37.6-34.5c-22.7,9.3-45.9,18.5-68.7,28.4
	c-6.3,2.8-13.5,6.9-16.7,12.4c-4.1,7.2-7.7,17.3-5.8,24.7c1.4,5.2,11.9,11,18.7,11.3c28.1,1.7,56.1,5.3,84.2-3.8
	c36.4-11.8,73.8-20.2,110.4-31.5c14.8-4.7,28.4-13.3,45.1-21.4c-27.2-46.7-70-31.1-111.1-33.6c18.6-23.1,40.8-25,61.6-23.2
	c20.9,1.8,42,7.6,61.5,15.4c32.6,13,33.7,38.6,7.6,62.3c-32.9,29.9-74.2,40.1-113.9,54.1c-62.9,22.2-128.9,17.5-194,20
	c-22.7,0.9-31.3-11-33.3-33.7c-2.7-31.3,16.4-48.8,38.5-63.4c31.9-21.2,63.9-42.5,101.5-53.6c20.4-6,21.7-10,17.9-30.7
	c-0.9-5-2.6-9.8-3.4-14.7c-5.1-33.3-5.1-32.4-37.9-34.4c-27-1.5-50.5-13.8-70.7-31.1c-15.3-13.1-28.3-29-43.2-42.6
	C16.1,856.2,8.8,807.1,1.4,759.8c-4.7-30.1,9.3-57.8,38.8-73c38.8-20,79.6-32.6,123-39.9c31.8-5.4,63-13.2,95.6-11.3
	c12.1,0.8,24.4,0.6,36.3,2.3c40.5,6,59,35.6,51.2,75.9c-5.9,30.6-10,61.7-11.8,92.7c-3.4,58.9-28.7,104.3-78.4,135.8
	c-15.4,9.8-20.6,20.7-17.7,40c5.6,36.7,7.1,74.2,9.7,111.3C248.6,1100.3,245.9,1107.1,244.3,1114.9z M308.7,755.1
	c-11.4,4-18.1,5.9-24.4,8.7c-40.3,17.6-81.6,28.4-126.3,26.1c-34.7-1.8-69.7-0.4-104.1-0.4c-5.9,23,1.4,47.8,18.4,55.8
	c28.9,13.5,55.7,29.7,88.6,36.9c46.6,10.1,85.3-3.7,124.9-21.4c12.9-5.8,19.8-16.9,21.8-30.9c2.2-15.9,4.7-31.9,5.7-47.9
	C313.8,774.5,310.9,766.8,308.7,755.1z M133.2,768.3c0.2-1.7,0.4-3.4,0.6-5.1c12.1,0,24.3,0.9,36.3-0.2
	c37.1-3.3,74.3-6.6,108.3-23.9c14.5-7.4,28-16.1,34.3-32.5c6.2-16.3,4.9-25.8-11.4-32c-19.3-7.4-40.4-12.9-61-13.7
	c-21.8-0.9-44,3.5-65.7,7.4c-29.6,5.2-59.3,10.7-88.1,18.8c-13,3.7-25.6,12.6-35.9,21.9c-17.8,16.1-13.8,40.7,9,47.5
	C83.3,763.5,108.7,764.6,133.2,768.3z"/>
<path fill-rule="evenodd" clip-rule="evenodd" d="M588.7,1009c-4.5-15.8-9.8-31.5-13.4-47.5c-5.4-24.5-9.5-49.3-14.1-73.9
	c-3.8-20.1,0.7-34.3,10.7-32c15.2,3.3,14.5,16.9,15.3,29c2.6,40.8,5.2,81.7,7.8,122.5C592.9,1007.8,590.8,1008.4,588.7,1009z"/>
<path fill-rule="evenodd" clip-rule="evenodd" d="M636.3,971.4c-26.2-7.1-18.2-26.5-21.6-38.9c-2.9-10.5-5.3-25.2,11.1-38.1
	C635,921.1,631.6,944.5,636.3,971.4z"/>
<path fill-rule="evenodd" clip-rule="evenodd" fill="#FFFFFF" d="M897.9,673.9c-50.3,22.5-96.9,43.6-143.7,64.1
	c-11.6,5.1-13.4,14.2-13,24.6c2,46.2,3.3,92.6,6.8,138.7c1.4,17.8,7.2,35.5,12.6,52.8c7.6,24.3,16.7,31.1,42.2,28
	c41.8-5.2,83.5-12.1,125-19.2c11.3-1.9,20.6-7.7,19.9-22.2c-1.7-32.2,0-64.8-4.9-96.5c-6.6-42.5-17.6-84.4-27.9-126.2
	C911.1,702.8,903.6,688.3,897.9,673.9z"/>
</svg>
