<?xml version="1.0" encoding="utf-8"?>
<!DOCTYPE svg PUBLIC "-//W3C//DTD SVG 1.1//EN" "http://www.w3.org/Graphics/SVG/1.1/DTD/svg11.dtd">
<svg artist="zl2017" version="1.1" id="zlIcon-witch" xmlns="http://www.w3.org/2000/svg" xmlns:xlink="http://www.w3.org/1999/xlink" x="0px" y="0px"
	 width="1000px" height="938.3px" viewBox="0 0 1000 938.3" enable-background="new 0 0 1000 938.3" xml:space="preserve">
<path fill-rule="evenodd" clip-rule="evenodd" d="M28.5,765c-3.8-4-4.8-6.9-1.2-10.1c8.9-8,17.8-16,26.6-24.1
	c4-3.7,7.7-7.6,12.4-12.4c-6.8-1.7-10.9,0.9-15.1,2.9c-11.7,5.5-23.4,11.2-35.1,16.6c-2.6,1.2-5.5,2.2-8.4,2.5
	c-1.5,0.1-4-1.2-4.6-2.5c-0.6-1.3-0.1-4.3,1-5.1c4.5-3.2,9.5-5.6,14-8.6c13.1-8.7,26.1-17.6,39.1-26.4c-0.3-0.6-0.6-1.3-1-1.9
	c-2.7,0.7-5.4,1.2-8,2c-12,3.6-24,7.4-36.1,10.8c-1.7,0.5-3.9-0.7-6.2-1.2c2.6-7.1,7.4-10.3,12.9-12.5c7.9-3,15.9-5.7,23.8-8.7
	c2.3-0.8,4.4-2.1,7.9-3.9c-8.3-3.8-15.4-1.8-22.3-2.2c-8.1-0.4-16.1-0.9-24.1-1.7c-1.4-0.2-3.7-2.3-3.7-3.5c0-1.9,1-4.8,2.5-5.6
	c2.8-1.4,6.1-2,9.3-2.3c16.4-1.7,32.9-3.2,49.3-4.8c0.8-0.1,1.5-0.9,3.8-2.5c-20.9-4.2-40.2-8.1-59.6-12c2.4-7.7,3.7-8.9,9.9-7.9
	c4.8,0.7,9.4,2.3,14.2,3c13.4,1.9,26.8,3.5,40.5,4.3c-5.2-4.5-11.5-4.8-17.5-6.5c-5.3-1.4-12.6,0.3-16-7.7
	c5.7-2.7,10.8-1.9,15.8-1.2c6.7,1,13.4,2.6,20,3.9c19.4,3.8,38.8,7.5,58.2,11.4c4.7,1,9.6,2.1,14,4.2c12.3,5.8,24,4,35.5-2
	c6.6-3.5,12.8-7.6,19.1-11.5c3.3-2,6-3.8,10.6-3.1c3.4,0.5,7.3-3.1,11.1-4.6c2.2-0.9,5.7-2.6,6.7-1.8c1.6,1.4,1.7,4.7,2.7,7.9
	c7.4,0,15.8,0,24.7,0c0,5.3-4.8,5.4-7.7,7.3c-3,2-6.1,4-9.9,6.5c7.6,3.4,29.1,2.1,50.6-2.3c-1.5-6.1,1.8-9.4,7.1-12.3
	c4.7-2.6,8.6-6.7,13-10.1c2-1.6,4.1-3.3,6.4-4.1c8.9-3,12.7-9.7,13.9-18.3c1.3-9.3,2.1-18.7,6.6-27.2c3.4-6.6,6.9-13.2,11-19.4
	c3.8-5.9,8.3-11.4,12.6-17.1c1-1.3,2-2.7,3.3-3.5c18.5-11.2,29.6-28.4,39-47.1c2.9-5.8,6.1-11.5,9.3-17.1
	c5.9-10.5,9.5-21.8,12.5-33.5c2.4-9.4,6.3-18.4,9.6-27.5c0.9-2.4,1.9-4.7,1.6-8c-3.1,3.7-5.9,7.8-9.4,11.1
	c-9.3,9-18.8,17.9-28.6,26.3c-2.2,1.9-6.1,1.7-10.9,2.8c3.2-7.7,7.9-11.2,12.5-14.7c17.7-13.6,29.6-31.5,39.6-51
	c3.2-6.3,6-12.7,9.6-20.5c-8.8,0.7-13.7,5.4-16.7,10.5c-8.8,15.4-21.8,27.3-33,40.6c-8.3,9.8-19.3,15.9-32.7,16.7
	c-1.3-4.7,2-5.9,4.4-6.9c11.3-5,19.9-13.2,28.2-21.9c1.1-1.2,2.4-2.3,3.2-3.7c9-15.7,18-31.4,26.9-47.1c0.4-0.8,0.3-1.9,0.7-4.1
	c-11.6,1.9-20.4,7.4-26.9,16c-3.9,5.1-6.1,11.4-9.5,17c-3.4,5.5-7.1,10.8-11.1,15.8c-1.1,1.4-3.7,1.5-8,3.2
	c4.1-12.6,12.7-20.5,15.8-30.4c3.5-11.2,13.4-17.2,19.1-28.6c-3.9,0.2-6.4-0.1-8.5,0.6c-9.4,3.3-19.2,5.9-28,10.6
	c-6.7,3.5-12.6,9.2-17.9,14.7c-4.7,4.8-8.5,10.7-12.2,16.3c-2.1,3.1-4.1,4.9-9.1,3.5c1-2.8,1.5-5.9,3-8.5c13-22.7,31.1-38.8,57.5-44
	c12.7-2.5,25.4-4.9,38.1-7.7c5.9-1.3,12-2.3,17.5-7.7c-3.3-1.4-5.8-2.8-8.5-3.5c-19.9-4.6-39.7-9.7-59.7-13.3
	c-16.8-3-33.6-2-49.8,4.7c-3.5,1.4-8.3,4.3-10.3-2.7c3.7-4.6,8.8-7.3,14.7-8.3c22.4-4.1,44.8-6.3,67.2-0.3c2.1,0.6,4.4,0.4,6.7,0.7
	c4.7,0.5,9.6,0.5,14.2,1.5c21.6,4.4,41.1,0,58.9-12.9c1-0.7,1.6-2,2.2-3.1c5.6-11,11.2-22,16.5-33.1c0.9-1.8,0.5-4.2,0.9-7.4
	c-11.5,1.9-21,6.6-30.8,10.4c-7.5,2.9-15.2,5.8-22.9,8.2c-4.1,1.3-8.6,1.8-10.1-4.4c2.5-4.8,7.8-5.2,12.2-6.8
	c12.3-4.5,23.8-10.6,34.1-18.4c17.9-13.5,26.6-32.2,28.7-54.2c1.8-19.7,3.1-39.4,4.6-59.1c0.6-7.7,1.8-15.5,1.4-23.2
	c-1.3-24.3-3.9-48.4-11.4-71.7c-2.5-7.9-2.4-8.1,3.5-14.6c5.8,0.5,6.6,5.7,8,9.7c4.7,13.5,8.2,27.4,13.6,40.5
	c10.5,25.5,21.2,50.9,35.9,74.4c9.3,14.9,18.3,29.9,26.7,45.2c9.9,18,25.4,25,45,25c5.8,0,11.7-0.3,17.5-0.2
	c3.5,0.1,6.6,1.4,6.6,5.5c0,4.3-2.6,6.4-6.9,6.3c-16.2-0.3-31.1,5.9-46.6,9.2c-6.4,1.4-7.8,3.9-6.6,10.5c2,10.8,4.2,21.6,6.5,32.3
	c1.4,6.3-0.8,11-6,14.2c-11.2,6.9-20.6,15.7-28.9,25.8c-3,3.7-5.1,8.2-7.9,12.1c-2.6,3.7-5.2,7.5-8.3,10.7
	c-16.9,17-34,33.7-50.8,50.8c-2.8,2.9-5.7,6.7-6.5,10.5c-4.1,18.7-8.9,37.4-8.1,56.6c0.7,16.1,1.4,32.6,9.5,47.2
	c3.4,6.2,7.5,12.1,12.2,17.4c5.4,6.2,11,12.1,18.1,17c11.9,8.2,22.1,19,33.2,28.5c2.9,2.5,6.4,4.2,9.6,6.4
	c6.9,4.7,14.2,8.9,20.7,14.2c4.4,3.6,9.2,5.9,14.1,4.2c7.8-2.9,13.8,0.1,20.3,3.4c3.1,1.6,6.5,3.4,9.8,3.5
	c13.4,0.6,20.6,6.8,22.3,20.2c0.2,1.2,0.4,2.5,0.8,5c10.1-0.9,19.9-2.1,29.8-2.5c28-1.2,54.7-9.9,82.5-13.1
	c19.2-2.2,38.1-7.3,57.3-10.4c36.1-5.8,72.3-11.2,108.5-16.6c13.8-2.1,27.6-3.8,41.4-5.8c8.7-1.3,14.5,1.5,16.6,12.1
	c-1.8,1.2-4.2,3.2-6.8,4.5c-9.2,4.7-19.4,4.7-29.3,6.1c-16,2.3-32,4.6-48.1,6.7c-13.8,1.8-27.6,3.2-41.3,5.1
	c-15.4,2.1-30.7,4.4-46.1,6.6c-20.1,2.9-40.1,7.2-60.6,8c-12.9,0.5-25.7,3.4-38.5,5.2c-16.4,2.3-32.7,4.6-49.1,6.8
	c-8.3,1.1-16.5,2.1-24.5,3.2c-0.8,4.7,2.2,4.7,4.4,5.9c4.4,2.5,8.9,5,12.7,8.4c11.1,10,22,20.2,32.6,30.7
	c10.1,10.1,19.9,20.6,29.6,31c17.5,18.8,27.9,42,39.4,64.5c9.7,18.9,15.4,39.2,22.4,59c1.1,3.2,0.7,6.9,1.2,12.2
	c-20.5-12.3-41-20.3-62.4-26.3c-3.9,17.3-4.1,33.4,5.3,48.3c2.9,4.5,6.8,7.6,11.9,9.5c3.5,1.3,7,3.5,9.7,6.2
	c12.6,12.7,25.4,25,41.6,33.3c6.2,3.2,8.4,9.6,6.5,15.9c-1.8,5.7-5.5,10.9-8.9,15.9c-0.9,1.3-4.2,1.7-6.2,1.4
	c-12.5-1.7-25-3.5-37.5-5.7c-10.4-1.8-15.5-10.2-13.5-20.7c1.3-6.6,2.3-13.4,2.4-20.1c0.1-6-9.9-11.9-15.1-9c-2.1,1.2-3.5,4.5-4,7
	c-1.7,8.9-2.8,17.9-4.3,26.9c-0.8,4.9-1.9,9.7-8.6,11c-2.7-6.8-0.5-13.8-0.6-20.7c-0.2-19.4-0.1-38.9-0.4-58.3
	c-0.1-5.5-1.2-11-1.4-16.5c-0.3-7.5-3.2-13.8-7.7-19.5c-2-2.5-3.7-5.3-5.3-8.2c-2.3-4.1-6-6.1-10.3-6.3c-22.7-0.8-45.4-1.6-68.1-2
	c-6.1-0.1-12.3,0.8-18.4,1.3c-3.3,0.2-5.8,1.5-5.7,5.2c0.2,16.1-1,32.5,6.1,47.7c2.6,5.5,5.9,9.6,12.1,11.8
	c8.9,3.2,15.9,8.4,21.9,16.6c5.5,7.5,14.3,13.4,22.8,17.6c7.2,3.5,9.5,8.4,10,15c0.6,6.3-1,12.3-6.1,16.6
	c-8.3,7.1-17.3,10.7-28.6,7.5c-8.7-2.5-17.8-3.7-26.7-5.4c-8-1.5-9.7-3.3-10.1-11.7c-0.3-6.8-0.4-13.6-0.2-20.4
	c0.1-5.3-2.3-9.1-5.6-12.9c-4.7,2.4-4,7-5.2,10.4c-1.9,5.5-2.1,11.7-4.7,16.7c-2.2,4.3-6.5,7.8-10.4,11.1c-2.3,1.9-5.5-0.3-4.9-3.3
	c0.5-3.2,1.7-6.2,2.8-9.3c5.6-15.6,11.3-31.3,10.6-48.2c-0.6-12.6-2.8-25-4.6-37.5c-1.1-7.5-2.9-15-4.6-23.7
	c-11.4,2.8-21.2,5.8-31.3,7.6c-10.2,1.8-17.5,11.6-29.3,10.2c-0.2-1.8-1-3.5-0.6-4.8c4.5-13.8,2.2-27.6,0.1-41.4
	c-0.6-3.8-1.1-7.7-2.1-11.5c-1.8-6.8-3.9-13.6-6.1-20.3c-1.4-4.3-4.1-8.4-4.5-12.8c-1.1-10-5.4-18.6-9.3-27.5
	c-1.8-4.1-2.8-8.6-4.4-12.8c-4.6-12.1-9.4-24.1-14.1-36.2c-1.5-4-4.5-5.2-8.5-4.9c-33.5,3.1-67.4,1.2-100.5,9.2
	c-3.1,0.8-6.5,0.5-9.7,0.5c-21.8,0-43.4,0.6-65,3.7c-12.2,1.7-24.5,2.2-36.8,2.7c-5.3,0.2-8.4,2.3-10.5,7.6
	c3.7,2.7,7.4,5.3,12.6,8.9c-8.5,3.1-14.1,7.9-21.8,4.9c-1.4-0.6-3.5-0.8-4.8-0.2c-9.4,4.4-18.1-0.1-26.4-3
	c-15.5-5.4-29.5-2.6-42.8,5.4c-13,7.9-25.3,16.9-38.1,25.2c-7.3,4.7-15.2,8.7-22.5,13.5c-11,7.4-21.7,15.3-32.6,22.8
	c-1.8,1.3-4.1,2.6-6.2,2.6c-8.6-0.3-14.7,4.1-20.5,9.6C33.4,762.3,31,763.4,28.5,765z M361.2,618.3c3.9,3.7,8.6,6.9,11.5,11.2
	c5.7,8.4,5.5,8.5,15.3,7.5c13.8-1.4,27.7-2.1,41.5-3.6c9.2-1,18.4-2.7,27.4-4c0.2-2,0.8-3.2,0.4-3.9c-14.2-28.8-25.6-58.6-34.6-89.4
	c-0.1-0.5-1-0.8-2.4-1.9c-5.9,3.8-12.4,7.4-18.1,12c-7.2,5.9-6.4,9.6,1.6,14c0.5,0.3,0.7,1.1,1.7,2.7
	C387.4,578.1,369.6,594.1,361.2,618.3z M590.3,224.6c-0.9,0-2-0.3-2.8,0c-12.2,5.1-24.7,9.4-35.9,16.9c-9.6,6.4-17.1,14.2-20.8,24.9
	c-4.3,12.5-8.4,25.1-14.8,36.8c-1.5,2.8-2.9,5.8-4.2,8.8c-2.1,4.9-1.6,8.2,3.1,10.6c3.3,1.6,7.4,2.1,11.1,2.1c3.5,0,7-1.5,10.4-2.2
	c10.6-2.2,18.9-7.9,24.9-16.8c9.3-13.7,19.3-26.8,33.2-36.5c2.6-1.8,4.5-4.5,6.2-6.3c-1.3-5.6-2.1-10.4-3.7-14.9
	c-1-2.7-2.9-5.9-5.3-7.2c-5.1-2.7-5.3-4.9-1.3-8.6C593.2,229.9,592.9,227.2,590.3,224.6z M370.1,545.8c-7.3,8.9-14.1,17.9-21.6,26.3
	c-5.9,6.6-8.9,13.9-9.2,22.7c-0.1,5.4-1.3,10.9-2.7,16.2c-1.4,5.1-3.7,10-6,16.1c-10.5,1.8-21.2,6.1-31,13.8
	c11.5,9.5,18.8-1.8,28.7-3.6c-0.6,6,2.7,6.3,7.2,5.5c3.5-0.6,7.1-0.7,10.6-0.9c7.7-0.6,15.4-1,22.7-4.2c-0.7-7.2-6.2-9-11.1-11.4
	c-6.1-3-6.3-4.1-5.2-10.6c2.1-13.1,9.5-23.2,18.8-32c7.5-7.1,15.3-14,22.9-20.9C388.9,555.7,382.1,550.8,370.1,545.8z M586.8,583.1
	c11.5,7.5,21.9,14.4,32.5,21.2c10.2,6.5,21.3,6.2,32.5,3.9c1.8-0.4,4-3.2,4.4-5.3c1.2-5.1-2.4-8.8-6.1-11.2c-3-1.9-6.8-3.4-10.7-0.2
	c-2.5,2.1-6.1,3-10.2,5c0.2-4.2,0.3-6.9,0.4-9.3c-7.9-6.3-15.7-4.9-22.9,0.2C600.2,578.9,595.4,577.8,586.8,583.1z"/>
<path fill-rule="evenodd" clip-rule="evenodd" fill="#FFFFFF" d="M590.3,224.6c2.6,2.6,2.9,5.3,0.3,7.7c-4.1,3.7-3.8,5.9,1.3,8.6
	c2.4,1.3,4.3,4.5,5.3,7.2c1.6,4.5,2.4,9.3,3.7,14.9c-1.7,1.7-3.6,4.5-6.2,6.3c-13.9,9.6-23.8,22.7-33.2,36.5
	c-6.1,8.9-14.3,14.6-24.9,16.8c-3.5,0.7-7,2.2-10.4,2.2c-3.7,0-7.8-0.5-11.1-2.1c-4.7-2.4-5.3-5.6-3.1-10.6c1.3-3,2.6-5.9,4.2-8.8
	c6.3-11.7,10.5-24.3,14.8-36.8c3.7-10.7,11.2-18.5,20.8-24.9c11.2-7.5,23.7-11.9,35.9-16.9C588.3,224.3,589.4,224.6,590.3,224.6z"/>
<path fill-rule="evenodd" clip-rule="evenodd" fill="#FFFFFF" d="M370.1,545.8c12,5,18.8,9.9,24,16.9c-7.6,7-15.4,13.8-22.9,20.9
	c-9.3,8.8-16.6,18.8-18.8,32c-1.1,6.5-0.8,7.6,5.2,10.6c4.9,2.4,10.3,4.2,11.1,11.4c-7.3,3.2-15,3.6-22.7,4.2
	c-3.5,0.3-7.1,0.3-10.6,0.9c-4.5,0.8-7.9,0.5-7.2-5.5c-9.9,1.8-17.2,13.1-28.7,3.6c9.8-7.7,20.6-12,31-13.8c2.3-6,4.6-10.9,6-16.1
	c1.4-5.3,2.6-10.7,2.7-16.2c0.2-8.9,3.2-16.1,9.2-22.7C356,563.7,362.9,554.7,370.1,545.8z"/>
<path fill-rule="evenodd" clip-rule="evenodd" fill="#FFFFFF" d="M586.8,583.1c8.6-5.4,13.4-4.2,19.9,4.2c7.3-5,15-6.4,22.9-0.2
	c-0.1,2.5-0.2,5.2-0.4,9.3c4.1-2,7.6-2.9,10.2-5c3.9-3.2,7.8-1.7,10.7,0.2c3.7,2.4,7.3,6.1,6.1,11.2c-0.5,2-2.6,4.9-4.4,5.3
	c-11.2,2.3-22.3,2.7-32.5-3.9C608.8,597.6,598.3,590.6,586.8,583.1z"/>
</svg>
