<?xml version="1.0" encoding="utf-8"?>
<!-- Generator: Adobe Illustrator 16.0.0, SVG Export Plug-In . SVG Version: 6.00 Build 0)  -->
<!DOCTYPE svg PUBLIC "-//W3C//DTD SVG 1.1//EN" "http://www.w3.org/Graphics/SVG/1.1/DTD/svg11.dtd">
<svg version="1.1" id="Layer_1" xmlns="http://www.w3.org/2000/svg" xmlns:xlink="http://www.w3.org/1999/xlink" x="0px" y="0px"
	 width="798.8px" height="172px" viewBox="0 0 798.8 172" enable-background="new 0 0 798.8 172" xml:space="preserve">
<g>
	<path fill-rule="evenodd" clip-rule="evenodd" d="M649.9,41.3c1.6,0.3,3.1,0.8,4.7,0.9c5.1,0.3,10.3,0.3,15.4,0.5
		c1.8,0.1,3.7,0.2,5.5,0.5c0.5,0.1,1,0.9,1.1,1.5c0.1,0.8-0.1,1.6-0.2,2c2.1,0.6,4.2,0.9,6.1,1.8c4,1.9,2.1,7.9-0.6,9.5
		c-2.8,1.6-5.7,1-8.7,0.5c-0.7-0.1-1.6,0.1-2.3,0.5c-2.3,1.3-4.4,3.3-6.8,3.9c-5,1.3-9.6-0.2-13.6-3.5c-3-2.4-4.8-5.6-5.4-9.2
		c-0.3-2.4,0.3-5,0.9-7.4c0.2-0.6,1.6-1,2.5-1.5C649,41.3,649.4,41.3,649.9,41.3z M673.3,56.2c1.7,0,3.1,0,4.6,0
		c2.8-0.1,4.8-3.1,3.5-5.6c-0.4-0.8-1.6-1.5-2.4-1.5c-1.1-0.1-2.9,0.1-3.4,0.9C674.5,51.8,674.1,53.9,673.3,56.2z"/>
	<path fill-rule="evenodd" clip-rule="evenodd" d="M512.6,136.1c-3.2-0.6-6.4-1-9.5-1.9c-4.2-1.2-8.7-7.8-8.7-12.2
		c0-2.8,0-5.6,0-8.4c0-1.7,0.2-2.7,2.5-2.3c2.1,0.3,4.3-0.2,6.4-0.4c6.9-0.6,13.9-1.2,20.8-1.8c1.8-0.2,2.7,0.3,2.8,2.3
		c0.3,3.2,0.8,3.5,4.2,4c2.9,0.4,5.2,1.8,7.2,3.7c1.8,1.8,1.4,4.7-0.8,6.3c-3,2.1-6.4,2.8-9.9,2.6c-2.4-0.1-3.8,0.6-5.2,2.7
		C520.3,134.2,517,136.1,512.6,136.1z M526.3,125.9c1,0.1,2.4,0.6,3.2,0.1c1.9-1.2,3.6-2.7,5.1-4.4c1-1,0.8-2.2-0.8-2.8
		c-1.8-0.6-3.7-1.3-5.6-1.9C527.5,120.1,527,122.8,526.3,125.9z"/>
	<path fill-rule="evenodd" clip-rule="evenodd" d="M331.1,92.4c6.9-0.3,13.4-0.5,19.9-0.9c3.6-0.2,7.1-0.6,10.7-1
		c1.9-0.2,3.7-0.6,5.6-0.7c1.1-0.1,2.1,0.2,2,1.6c0,0.8,0,1.6,0,1.9c2.7,1.7,5.5,2.8,7.4,4.7c3,3.1,1.8,8.1-2.1,10.2
		c-3.4,1.8-7,3-10.8,1.7c-1.6-0.5-2.4-0.1-3.3,1c-2,2.3-4.4,3.6-7.5,4.3c-3.4,0.7-6.1-0.6-8.6-2c-3-1.7-5.4-4.3-8.1-6.5
		c-1.7-1.4-2.4-3.2-2.8-5.4C332.9,98.4,332,95.6,331.1,92.4z M363.8,107.3c1.8,1.2,4.3,1.5,5.8,0.3c1.4-1.1,2.5-2.5,3.8-3.7
		c1.2-1.2,1.6-2.6,1-4.1c-0.6-1.6-4-3.5-5.3-3.2c-0.4,0.1-0.8,0.4-0.9,0.7C366.7,100.6,365.3,103.9,363.8,107.3z"/>
	<path fill-rule="evenodd" clip-rule="evenodd" d="M561,101.4c5.9,0,11.8,0.1,17.6,0c4.2-0.1,8.4-0.3,12.6-0.4
		c1.8-0.1,2.9,0.7,3.3,2.6c0.1,0.6,1.4,1.3,2.2,1.4c4.2,0.5,8,6,6.2,9.7c-0.7,1.4-2.3,2.8-3.9,3.3c-2.9,1-6,2.2-9.2,0.9
		c-0.3-0.1-1,0.3-1.4,0.6c-5.2,3.7-11,5.1-17.2,3.6c-1.3-0.3-2.7-1.1-3.5-2.2c-2.4-3.2-4.8-6.5-6.8-9.9
		C559.3,108.4,559.6,105.2,561,101.4z M599.2,111.4c0-0.5,0.1-1.1,0-1.6c-0.4-1.8-1.6-2.8-3.4-2.9c-2-0.2-1.8,1.2-2,2.5
		c-0.3,1.5-0.7,3-1.2,4.4c-0.4,1-1.1,2-1.6,3c1.2,0,2.4,0.2,3.6,0.1C598.1,116.4,599.6,114.9,599.2,111.4z"/>
	<path fill-rule="evenodd" clip-rule="evenodd" d="M650.6,129.5c-0.2,1.9-0.3,3.2-0.4,4.2c2.7,1.3,5.6,2.2,7.9,3.9
		c1.1,0.9,1.4,3.3,1.4,5c0,1.8-1.5,2.6-3.2,3.1c-3.6,1.1-7.2,1.4-10.9,0.1c-0.6-0.2-1.8,0.2-2.3,0.8c-4,4.4-8.9,5.7-14.7,4.6
		c-2.9-0.6-4.5-2.8-6.3-4.7c-3.5-3.7-4.8-8.4-5-13.3c-0.2-3.9,0.3-4.2,4.1-4.1c6.2,0.1,12.3,0,18.5,0
		C643.1,129.1,646.8,129.3,650.6,129.5z M646,143.8c3.2,0.2,6.1,0.5,8.8-1.2c2.2-1.4,2.5-3,0.6-4.8c-1-0.9-5.1-1.6-6.1-1
		c-0.2,0.1-0.5,0.4-0.6,0.6C647.7,139.5,646.9,141.5,646,143.8z"/>
	<path fill-rule="evenodd" clip-rule="evenodd" d="M395.9,65.9c0-0.8-0.1-1.7,0-2.5c0.1-0.5,0.7-1.1,1.1-1.1c4-0.3,8.1-0.4,12.1-0.7
		c3.6-0.2,7.3-0.6,10.9-0.9c1.7-0.1,3.2,1.4,3.4,3.7c0.1,1.4,0,2.1,2.1,2.1c3.8,0,8.3,2.6,8.9,5.7c0.7,3.3,0.1,5.6-2.8,7.1
		c-3.1,1.6-6.3,2.2-9.6,0.6c-1-0.5-1.7-0.3-2.7,0.7c-2.3,2.3-4.7,4.5-8.7,4.2c-4.2-0.3-7.8-1.1-10.5-4.3c-2.2-2.7-3.3-6-3.8-9.5
		c-0.3-1.7-0.4-3.4-0.6-5.1C395.8,65.9,395.8,65.9,395.9,65.9z M422.1,77.7c3.4,0.3,6.5,0.1,8.6-3.2c1.5-2.4,0.8-4.3-1.9-5.2
		c-0.9-0.3-1.8-0.5-2.7-0.7c-1.2-0.3-1.9-0.2-2.2,1.3C423.4,72.5,422.7,75,422.1,77.7z"/>
	<path fill-rule="evenodd" clip-rule="evenodd" d="M459.4,53.5c0.2-1.6,0.3-3.3,0.7-4.8c0.2-0.6,1.3-1.4,1.8-1.3
		c7,1.7,14.2,0.4,21.3,0.8c1,0.1,2.1,0,3.2,0c1.5,0,2.3,0.7,2.2,2.2c-0.1,2.3,0.8,3.6,3.1,4.2c1.9,0.5,3.7,1.4,5.3,2.4
		c1.7,1,2.2,2.5,1.2,4.5c-2,3.6-4.7,6.3-9.1,5.6c-3.9-0.6-7.2,1-10.4,2.4c-8.5,3.7-19.9-4.8-19.1-15c0-0.3,0-0.6,0-0.9
		C459.5,53.5,459.5,53.5,459.4,53.5z M494.8,57.5c-1.6-0.5-3.1-1-4.7-1.3c-0.5-0.1-1.4,0.2-1.5,0.5c-0.9,2.8-1.7,5.6-2.5,8.3
		c1.8,0,4.3,0.7,5.8-0.2C494.4,63.6,494.7,60.6,494.8,57.5z"/>
	<path fill-rule="evenodd" clip-rule="evenodd" d="M789.2,50.3c-0.2,2.2-0.3,4-0.5,6.1c1.7-0.1,3.4-0.6,4.9-0.3
		c1.3,0.3,2.9,1.3,3.6,2.4c3,4.7,1.6,7.3-3.4,8.9c-2.3,0.8-5.1,0.4-7.6,0c-1.7-0.3-2.6-0.1-3.7,1.1c-2.7,2.9-6.1,4.8-10.1,5
		c-6.2,0.2-11.8-3.7-14.1-9.8c-0.9-2.3-1.7-4.7-2.6-7c-0.5-1.3,0.2-1.9,1.3-2.1c2.6-0.4,5.1-0.6,7.7-1c5.7-0.8,11.4-1.7,17.1-2.5
		C784.1,50.7,786.4,50.6,789.2,50.3z M784.8,65.7c2.7-0.3,4.9-0.6,7.1-0.6c2.3,0,3-1.6,3.3-3.1c0.2-1.1-0.1-3-0.9-3.6
		c-2.3-1.8-6-0.5-7.1,2.2C786.5,62,785.8,63.5,784.8,65.7z"/>
	<path fill-rule="evenodd" clip-rule="evenodd" d="M687.9,97.8c-0.1,1.7-0.3,3.2-0.4,5c0.6,0,1.4,0.1,2.1,0c1.9-0.5,3,0.3,4.5,1.6
		c2,1.7,2.3,3.5,1.7,5.5c-0.7,2.3-2.5,3.9-5,4.1c-2.2,0.2-4.4,0-6.5-0.5c-1.5-0.4-2.2,0.3-3.4,0.8c-3,1.6-6,3.8-9.1,4
		c-6.3,0.4-12.1-2.9-13.7-10c-0.7-3.1-1.2-6.2-1.8-9.3c-0.3-1.4,0.9-2.2,2.6-2.1c4.3,0.3,8.6,0.6,12.9,0.7
		C677,97.9,682.2,97.8,687.9,97.8z M683.9,111.4c4.4,1.3,7,0.3,8.1-3.2c0.3-0.9-0.3-2.8-0.9-3c-1.3-0.4-3.5-0.6-4.1,0.1
		C685.6,107,684.9,109.3,683.9,111.4z"/>
	<path fill-rule="evenodd" clip-rule="evenodd" d="M542.1,73c-1.8,3.5,0.6,4,2.9,4.7c0.9,0.3,1.7,0.8,2.6,1.1c3.4,1.3,3.9,4,3.6,5.9
		c-0.3,2.5-2.5,3.9-5.8,4c-2.8,0.1-5.6,0-8.3,0c-0.6,0-1.3,0.3-1.6,0.7c-4.5,5-9.7,6.4-16.1,2.4c-6.4-4-8.8-9.8-8.3-17
		c0.1-1.2,0.5-1.9,1.9-1.9c7.1,0.1,14.2,0.1,21.2,0.1C536.7,73,539.1,73,542.1,73z M537.2,87.5c2.9-0.4,5.5-0.4,7.9-1
		c2.1-0.5,3.2-4.6,1.6-5.6c-1.8-1.1-4-1.7-6-2.6C539.4,81.5,538.4,84.1,537.2,87.5z"/>
	<path fill-rule="evenodd" clip-rule="evenodd" d="M588,48c-0.1,1.1-0.2,2.3-0.3,3.6c2,0.2,4.1,0.5,6.4,0.7c0.8,1.8,2.2,3.3,1.2,5.7
		c-0.9,2.1-3.2,4-5.4,4.1c-0.5,0-1.1,0-1.6,0c-3.1-0.3-5.6,0.2-8,2.7c-3.6,3.7-10.7,3.3-14.6,0.7c-2.9-1.9-4.4-5.3-5.2-8.8
		c-0.5-2-0.5-4.1-1.1-6.1c-0.4-1.5,0.3-2,1.4-2.1c6.3-0.5,12.6-0.8,18.9-1.4C582.5,46.9,585.2,46.7,588,48z M592.9,54.2
		c-4.8-1.5-5.4-1.3-6.9,3.3c-0.3,0.9-0.7,1.7-1,2.6C588,61.4,591.7,58.8,592.9,54.2z"/>
	<path fill-rule="evenodd" clip-rule="evenodd" d="M726.4,72.7c1.8,0.6,3.7,1,5.3,2c1.1,0.7,2.2,2.2,2.2,3.4c-0.1,2.4-1,5.1-3.4,6.1
		c-2,0.8-4.6,1.3-6.7,0.8c-2.2-0.6-3.3,0-4.9,1.1c-3.4,2.4-7.2,3.6-11.4,2.7c-3.6-0.8-7.8-5.9-8.3-9.8c-0.3-2-0.7-3.9-1.1-5.9
		c-0.4-1.8,0.3-2.7,2.1-2.7c7.1-0.2,14.1-0.3,21.2-0.5c0.6,0,1.2,0,1.8,0C726.1,69.7,726.1,69.7,726.4,72.7z M726.3,75.4
		c-0.7,2.1-1.3,4.1-2.1,6.1c-0.5,1.3-0.1,1.8,1.2,1.9c2.5,0.2,3.6-0.9,4.4-3.3C730.9,76.4,729.9,74.9,726.3,75.4z"/>
	<path fill-rule="evenodd" clip-rule="evenodd" d="M404.8,106.3c3.3,0,6.2,0.1,9.1,0c3.4-0.1,6.7-0.5,10.1-0.7
		c1.2-0.1,2.6,0,3.7,0.5c0.6,0.3,1.2,1.5,1.2,2.2c0,1.7,0.6,2.3,2.2,2.2c1.1-0.1,2.2,0.2,3.3,0.4c2.7,0.6,3.3,1.7,3.6,5.7
		c0.2,2.3-1.2,3.6-3,4.2c-1.9,0.6-4,0.4-6,0.8c-1,0.2-2.5,0.4-2.9,1.2c-1.9,3.1-5,3.5-8,4c-3.6,0.6-6.9-0.1-8.9-3.4
		c-1.7-2.7-3.6-5.4-3.5-9C405.7,111.6,405.1,108.9,404.8,106.3z M428.3,120c1.4,0,2.5,0.1,3.6,0c0.4,0,0.9-0.5,1.2-0.9
		c0.4-0.7,0.5-1.4,0.8-2.1c0.4-1.1,0.8-2.2,1.2-3.5c-2-0.5-3.5-0.9-4.9-1.2C429.5,114.9,429,117.3,428.3,120z"/>
	<path fill-rule="evenodd" clip-rule="evenodd" d="M633.7,72.1c-0.1,1.3-0.2,2.7-0.4,4.4c0.8,0.1,1.8,0,2.7,0.2
		c2.6,0.6,4.6,3.9,4.4,6.9c-0.2,2.3-2.7,4.6-5.4,4.7c-1.6,0.1-3.3,0-4.9-0.4c-2.2-0.5-3.3,1.1-4.6,2.2c-2.7,2.1-5.8,2.6-9,2.3
		c-1-0.1-2.2-0.9-2.9-1.8c-3.5-4.4-6.1-9.3-6.6-15.1c-0.2-2,0.7-2.9,2.6-3c5.2-0.1,10.5-0.3,15.7-0.4
		C627.9,72,630.6,72.1,633.7,72.1z M629.8,85.9c2.6,0.7,5.2,1,7.2-1.5c1-1.2,1.4-3.8,0.5-5c-0.9-1.3-4-1.7-4.6-0.5
		C631.7,81.3,630.8,83.6,629.8,85.9z"/>
	<path fill-rule="evenodd" clip-rule="evenodd" d="M371.2,47.6c1.9-0.2,3.5-0.1,3.4,2.5c-0.1,1.3,0.6,1.8,2,2.1
		c4.7,1,5.7,3.9,5.3,6.6c-0.5,3.3-4,5.7-7.5,5.4c-2-0.2-3.6,0.2-5.5,1.3c-4.4,2.6-9.2,3-13.7-0.1c-2.5-1.7-3.3-4.5-3.9-7.1
		c-0.6-2.6-0.7-5.4-0.8-8.1c-0.1-1.5,1.2-1.6,2.4-1.6c4.9-0.2,9.8-0.4,14.7-0.6C368.7,47.9,370,47.7,371.2,47.6z M373.2,62.2
		c1.6-0.1,3.3-0.2,4.6-0.3c0-1.5-0.1-2.4,0-3.4c0.5-2.6-0.2-3.6-3-4C374.3,57.1,373.8,59.5,373.2,62.2z"/>
	<path fill-rule="evenodd" clip-rule="evenodd" d="M465.8,106.4c-2.5-0.4-6.5-0.6-8.8-3.9c-1.4-2-2-4.7-2.7-7.1
		c-0.5-1.6-0.7-3.3-0.9-5c-0.2-1.3,0.1-2.1,1.8-2.1c3,0.1,6,0,9.1-0.1c2.6-0.1,5.3-0.3,7.9-0.5c0.7,0,1.3-0.2,2-0.1
		c0.8,0.1,2.3,0.3,2.3,0.6c0.6,3.7,3.7,2.3,5.7,2.7c3.6,0.7,6,5.1,3.7,7.6c-1.3,1.4-3.5,2.1-5.3,2.8c-1.1,0.4-2.3,0.3-3.5,0.5
		c-0.4,0.1-0.8,0.2-1.1,0.5C473.6,105.5,470.5,106.5,465.8,106.4z M478,93c-0.1,2.1-0.3,4.3-0.4,6.5c2.9,0.3,4.9-1.6,5-4.2
		C482.7,93.8,481,92.9,478,93z"/>
</g>
<g>
	<path fill-rule="evenodd" clip-rule="evenodd" d="M230.4,103.3c4.8,0,8.5-4.7,7.1-8.9c-1-3.1-2.8-5.6-5.3-7.7
		c-1.6-1.4-3.4-1.4-5.2-0.6c-0.6,0.3-1.5,1-1.5,1.5c0.4,3.9-1.7,7-2.9,10.4c-0.9,2.7-0.2,4.3,2.5,4.8
		C227.1,103.1,229,103.2,230.4,103.3z"/>
	<path fill-rule="evenodd" clip-rule="evenodd" d="M139.1,26.4c2.3-1.2,4-2.2,5.7-3c3.6-1.8,3.5-5.2,3.3-8.4
		c-0.3-4.2-2.8-7.3-6.2-9.4c-1.8-1.1-3.9-1.6-6.1-0.7c-1.3,0.6-1.9,1.4-1.2,3c2.2,4.9,3.2,10,3.7,15.3
		C138.4,24.1,138.8,25,139.1,26.4z"/>
	<path fill-rule="evenodd" clip-rule="evenodd" d="M305.9,164.6c3.9,0.2,7.9-3.6,8.2-8.1c0.1-2.2,0.2-4.6-0.5-6.7
		c-1.2-3.7-4.1-5.2-7.9-4.9c-1,0.1-2.1,0.1-3.1,0c-1.6-0.2-2.3,0.5-1.9,2.1C302.4,152.8,304.1,158.7,305.9,164.6z"/>
	<path fill-rule="evenodd" clip-rule="evenodd" d="M162.6,55.1c-0.2-1.1,0-2.5-0.6-3.2c-1.1-1.5-2.9-1.6-4.7-1.4
		c-2.1,0.3-4.5,0-6.2,0.9c-2.7,1.4-3.2,4.3-2.3,7.5c1.4,4.5,4.8,7.2,8.7,9.3c1.3,0.7,2.2,0.7,2.5-1.2c0.5-3.3,1.2-6.5,1.8-9.8
		C162,56.5,162.3,55.8,162.6,55.1z"/>
	<path fill-rule="evenodd" clip-rule="evenodd" d="M191.6,97.1c1.7-1,3-1.7,4.3-2.4c3.9-1.9,5.4-6.6,3.4-10.3
		c-0.6-1-0.9-2.2-1.5-3.2c-1.6-2.8-4.5-3-7.3-3.3c-0.8-0.1-1.7,0-2.5,0c-3.6,0-3.8,0.3-2.5,3.8c1.6,4.1,3.1,8.2,4.7,12.3
		C190.8,95.1,191.2,96,191.6,97.1z"/>
	<path fill-rule="evenodd" clip-rule="evenodd" d="M296.5,43.6c0.1,3.2,1.1,6.3,3.2,8.7c1.9,2.3,4.8,2.2,7.5,1.7
		c0.8-0.1,1.8,0.1,2.5-0.2c1.6-0.6,1-1.9,0.6-2.9c-1.9-4.2-3.7-8.4-5.7-12.6c-0.5-1.1-1.2-2.2-1.8-3.3c-0.7-1.2-1.7-1.2-2.6-0.3
		C298,37.2,296.1,39.9,296.5,43.6z"/>
	<path fill-rule="evenodd" clip-rule="evenodd" d="M13.6,52c-0.3,3.7,1.4,6.4,3.3,9c0.7,1,2.3,1.8,3.6,1.8c2.2,0.1,4.5-0.3,6.7-0.7
		c0.3-0.1,0.8-1.3,0.6-1.7c-2.2-5-4.6-10-6.9-15c-0.6-1.2-1.3-1.6-2.6-0.9C15.1,46.2,13,48.4,13.6,52z"/>
	<path fill-rule="evenodd" clip-rule="evenodd" d="M200.5,146c-0.2-4.1-3.4-8.6-7.7-10.1c-1.4-0.5-3-0.6-4.5-0.8
		c-0.1,1.5-0.5,3-0.2,4.4c0.6,3.2,1.6,6.4,2.2,9.6c0.3,1.7,0.4,3.4,0.5,5.1c0,1.3,1.2,2.1,2.1,1.3c2.3-2.1,4.6-4.3,6.7-6.7
		C200.1,148.2,200.2,147,200.5,146z"/>
	<path fill-rule="evenodd" clip-rule="evenodd" d="M254,160.7c-0.2,5.5,3.3,10.5,9,10.9c2.1,0.1,2.7-0.6,2.3-2.8
		c-0.6-2.7-1-5.5-1.3-8.2c-0.2-2,0.1-4.1-0.1-6.1c-0.2-2.2-1.1-4-4-2.9C256.9,152.8,253.4,157.3,254,160.7z"/>
	<path fill-rule="evenodd" clip-rule="evenodd" d="M174.2,104.4c0.2,1,0.3,2,0.7,2.8c1.9,4.6,3.8,9.2,5.7,13.8
		c0.3,0.7,0.4,1.4,0.5,2.1c0.2,1.5,1.4,2,2.2,1.2c1.8-1.7,3.7-3.5,4.7-5.6c0.7-1.5,0.1-3.8-0.5-5.5c-1.5-4.3-3.5-8.4-8.5-9.6
		C177.6,103.3,176.1,104,174.2,104.4z"/>
	<path fill-rule="evenodd" clip-rule="evenodd" d="M114.8,34.8c0-5.7-4.2-11.7-8.9-12.9c-1.4-0.4-2.4,0.4-2.3,1.9
		c0.4,5.2,0.9,10.3,1.2,15.5c0.2,3,1.5,4.1,4.5,3C112.7,41.1,114.8,38.1,114.8,34.8z"/>
	<path fill-rule="evenodd" clip-rule="evenodd" d="M213.6,133.4c2.2-0.7,4.3-1.3,6.4-2.1c2.6-1,4.2-3.1,4.5-5.7
		c0.3-2.2-0.1-4.6-0.3-6.9c-0.3-3.1-2.7-4.2-5.1-5.3c-1.4-0.6-2.1,0.2-2.5,1.4c-0.7,2.1-1.2,4.2-1.8,6.4c-0.8,2.7-1.5,5.5-2.4,8.2
		C211.8,131.6,211.8,131.9,213.6,133.4z"/>
	<path fill-rule="evenodd" clip-rule="evenodd" d="M267.4,135.4c0.4-0.9,0.7-1.4,0.9-1.9c1.7-3.2,3.4-6.4,5-9.6
		c0.7-1.4,1.1-3,1.5-4.6c0.4-2-0.5-3.6-2.7-3.7c-2.6-0.1-5.5,0-7.8,1.1c-2.6,1.2-3.4,4.3-3,7.2C261.9,128.1,264.4,131.3,267.4,135.4
		z"/>
	<path fill-rule="evenodd" clip-rule="evenodd" d="M250.6,85.2c-3.2-0.2-5,1.3-6.5,4.1c-2.2,4.4-1.5,8.3,0.9,12c1.2,1.8,3.2,3,5,4.3
		c0.2,0.1,1.6-0.6,1.7-1.1c0.9-5.8,1.7-11.7,2.2-17.5C254.1,84.8,252,85.3,250.6,85.2z"/>
	<path fill-rule="evenodd" clip-rule="evenodd" d="M252.2,137.5c-0.2-4.2-1.6-7.9-5.6-10c-1.1-0.6-2.5-0.3-3.8-0.5
		c-0.1,1-0.2,2-0.2,3.1c0,3.2,0,6.3,0,9.5c0,2.5-0.1,5.1,0.1,7.6c0,0.6,1.3,1.5,1.8,1.4c1.2-0.3,2.7-0.8,3.5-1.6
		C250.5,144.3,252.5,141.4,252.2,137.5z"/>
	<path fill-rule="evenodd" clip-rule="evenodd" d="M287.5,153.6c0.1,2.1,0.7,5.2,2.7,7.9c1.9,2.7,4.9,4,8,3.1
		c0.7-0.2,1.5-1.6,1.4-2.3c-1-4.6-2.2-9.1-3.4-13.6c-0.8-3.2-3.9-4-6.4-1.8C287.7,148.7,287.4,149.2,287.5,153.6z"/>
	<path fill-rule="evenodd" clip-rule="evenodd" d="M175.8,62.9c-0.4-4.8-2.9-8-6.2-10.7c-1.2-1-2.5-0.3-2.8,1.3
		c-0.6,3.5-1.1,7-1.8,10.4c-0.2,1.1-0.8,2.2-1.5,3.1c-1,1.6-0.7,2.5,1.1,3.3c3.4,1.5,6.6,1.3,8.9-1.7
		C174.7,67.1,175.1,64.8,175.8,62.9z"/>
	<path fill-rule="evenodd" clip-rule="evenodd" d="M122.5,14.3c0.1,7,5.2,11.3,11.7,12.5c1.2,0.2,1.6-0.5,1.3-1.7
		c-1.2-5-2.3-10-3.5-14.9c-0.5-2.3-1.6-2.7-5-1.8C123.6,9.3,122.5,10.8,122.5,14.3z"/>
	<path fill-rule="evenodd" clip-rule="evenodd" d="M183.1,136.8c-1.9-0.2-3.2-0.3-4.5-0.5c-2.7-0.5-4.8,1.4-5.1,4.8
		c-0.5,5.1,3,10.9,7.7,12.4c0.9,0.3,1.7,1.1,2.7,1.4c0.5,0.2,1.2,0,1.9,0c0-0.6,0.1-1.2,0-1.8c-0.4-2.3-1-4.6-1.3-6.9
		C183.9,143,183.5,139.7,183.1,136.8z"/>
	<path fill-rule="evenodd" clip-rule="evenodd" d="M95.3,21.2c-2.5-0.2-4.1,1.1-4.5,3.5c-0.1,0.4-0.2,0.9-0.4,1.2
		c-2.8,5.2,1.2,13.5,8.8,14.4c0.5,0.1,1.6-1.3,1.5-1.9c-0.5-4.7-1.3-9.3-1.6-14C98.9,21.8,97.6,21.1,95.3,21.2z"/>
	<path fill-rule="evenodd" clip-rule="evenodd" d="M237.1,74.1c4-0.7,7.2-1.8,9.6-4.3c1.7-1.7,0.4-3.7-0.3-5.4
		c-1.6-4-4.9-6.2-8.6-7.7c-0.8-0.3-2.5-0.4-2.6-0.1c-0.5,1.1-0.8,2.4-0.7,3.6c0.4,3,1.3,5.9,1.8,8.8c0.2,1-0.2,2.1-0.1,3.1
		C236.3,72.8,236.8,73.5,237.1,74.1z"/>
	<path fill-rule="evenodd" clip-rule="evenodd" d="M209.8,64.5c3.3-1.1,4.1-3.3,4-6c-0.2-4.8-1.7-9-5.1-12.5
		c-2.3-2.4-5.1-1.6-7.8-1.7c-0.3,0-1.2,1.6-1,2.2c0.4,1.4,1.4,2.5,2.1,3.8c2.1,3.8,4.1,7.6,6.1,11.4
		C208.6,62.7,209.2,63.6,209.8,64.5z"/>
	<path fill-rule="evenodd" clip-rule="evenodd" d="M141.6,50.1c-0.3-3.8-0.7-6.8-3.5-8.7c-1.2-0.8-2.1-0.9-3.1,0.9
		c-1.3,2.3-3.3,4.3-5.2,6.2c-0.8,0.9-2.1,1.4-3.1,2c-0.9,0.6-0.2,3.9,0.9,4.7c0.9,0.6,1.8,1.3,2.8,1.8c0.5,0.3,1.4,0.6,1.8,0.4
		c2.9-1.5,6.5-2.1,8.5-5.2C141.2,51.5,141.5,50.5,141.6,50.1z"/>
	<path fill-rule="evenodd" clip-rule="evenodd" d="M275.7,34.2c0.8-0.1,2.3-0.1,3.8-0.3c4.9-0.9,6-5.7,4.4-9.8
		c-0.7-1.8-1.8-3.6-3-5.1c-0.6-0.7-1.9-1.4-2.8-1.3c-0.8,0.1-1.7,1.3-2.1,2.2c-1.5,3.1-2.8,6.3-4.1,9.5
		C270.2,33,271,34.2,275.7,34.2z"/>
	<path fill-rule="evenodd" clip-rule="evenodd" d="M146.7,128.3c0,2.3,1.1,2.7,2.8,2.5c1.2-0.1,2.3-0.3,3.5-0.4
		c2.7-0.2,5.4-3.2,5.7-6.4c0.4-3.9-0.7-7.3-3-10.4c-0.2-0.2-0.4-0.5-0.6-0.6c-1.1-0.5-2.2-1-3.3-1.5c-0.4,1-0.9,2-1.1,3
		c-0.7,3.2-1.1,6.5-1.9,9.7C148.3,125.7,147.3,127,146.7,128.3z"/>
	<path fill-rule="evenodd" clip-rule="evenodd" d="M13.6,30.2c1.3-0.1,2.4,0.1,3.1-0.3c6.9-4.2,6.2-10.3,1.5-16.2
		c-0.7-0.9-1.4-1.7-2.1-2.6c-1.3-1.6-4.1-2-5.6-0.6C10,10.9,9.9,12,10,12.7c1.3,5.2,2.7,10.4,4,15.7C14.1,28.7,13.8,29.1,13.6,30.2z
		"/>
	<path fill-rule="evenodd" clip-rule="evenodd" d="M112.8,57.8c-0.7,1.2-1.5,2-1.4,2.8c0.3,4.9,0.8,9.7,1.2,14.6
		c0.1,0.9-0.4,1.7-0.4,2.6c0,0.6,0.5,1.3,0.7,1.9c0.5-0.2,1.1-0.4,1.6-0.7c1.4-1,2.8-2.1,4.1-3.2c4.3-3.7,4.4-8.6,1-13
		C118,60.9,115.4,59.7,112.8,57.8z"/>
	<path fill-rule="evenodd" clip-rule="evenodd" d="M316.8,118.9c0.5-2.9-0.8-5.7-3-7.9c-0.8-0.8-2.2-0.9-3.3-1.3
		c-0.3,0.8-0.7,1.7-0.9,2.5c-0.7,4.3-2.7,8.1-4.7,11.8c-0.9,1.7-0.6,2.5,1.3,2.8c1,0.2,2,0.5,3,0.7c4.3,0.8,7-1.2,7.6-5.5
		C316.9,121.1,316.8,120.2,316.8,118.9z"/>
	<path fill-rule="evenodd" clip-rule="evenodd" d="M310.4,32.8c-3.4-0.3-3,0.7-2.1,3.3c1.8,5.2,3.5,10.4,5.3,15.6
		c0.2,0.4,0.7,0.9,1.2,1c0.4,0.1,1.1-0.1,1.4-0.4c0.9-1.2,1.8-2.5,2.6-3.8c2.8-4.3,0.5-8.2-1.3-12.1C316,33.4,313.3,32.7,310.4,32.8
		z"/>
	<path fill-rule="evenodd" clip-rule="evenodd" d="M107.9,77.5c0-6.3,0-12.6,0-18.8c-6.1,0.4-9.8,3.8-9.8,9.6
		C98.1,73.4,102.5,77.5,107.9,77.5z"/>
	<path fill-rule="evenodd" clip-rule="evenodd" d="M175.3,20.8c0.9,4.4,0.3,8.6-0.8,12.8c-0.3,1.1-0.3,2.4,1.6,2.4
		c4.1,0,7.6-2.4,8.9-6.3c0.8-2.6-0.2-4.9-1.4-6.9c-1.1-1.9-2.6-3.7-4.3-5.2c-2.1-1.9-2.9-1.6-3.7,1.2
		C175.4,19.4,175.4,20.1,175.3,20.8z"/>
	<path fill-rule="evenodd" clip-rule="evenodd" d="M62.1,29.3c-0.5,1-1.3,1.9-1.4,2.8c-0.5,4.6-1.9,8.9-4,13c-1,1.9-0.8,2.6,1,3.6
		c4.5,2.6,8.9-1.3,9.7-5.7C68.3,37.7,66.8,33.2,62.1,29.3z"/>
	<path fill-rule="evenodd" clip-rule="evenodd" d="M223.2,150.3c-1.3,0.9-2.6,1.6-1.8,3.7c0.3,0.8-0.2,2-0.4,3
		c-0.5,3.1-1.2,6.2-1.6,9.3c-0.1,0.6,1.1,2.1,1.5,2c3.9-0.5,7.8-1.2,9.9-5.1c0.5-0.8,0.6-2,0.5-3c-0.4-4.2-3.5-6.4-6.6-8.5
		C224.3,151.3,223.8,150.9,223.2,150.3z"/>
	<path fill-rule="evenodd" clip-rule="evenodd" d="M269.2,172c6.8-2.5,9.3-7.7,6.7-14.5c-0.9-2.3-1.5-5.1-4.5-5.8
		c-1-0.3-2.1-0.5-3.1-0.4c-0.5,0.1-1.3,1.1-1.3,1.7C267.6,159.3,268.4,165.6,269.2,172z"/>
	<path fill-rule="evenodd" clip-rule="evenodd" d="M51.1,19.4c-1.2-3.7-2.1-8.4-6.7-11c-0.5-0.3-1.4-0.4-1.8-0.2
		c-0.4,0.3-0.5,1.2-0.5,1.8c-0.2,3.4-0.3,6.9-0.6,10.3c-0.2,1.8-0.9,3.4-1.1,5.2c-0.1,0.7,0.3,1.6,0.8,2.1c0.2,0.3,1.2,0.1,1.7,0
		c0.8-0.2,1.7-0.6,2.5-0.7C48.7,26.4,51.1,23.7,51.1,19.4z"/>
	<path fill-rule="evenodd" clip-rule="evenodd" d="M71.4,2.9c0,3.5,0,7,0,10.5c0,1.2-0.2,2.4-0.4,3.5c-0.5,2.5,0.7,3.5,3.1,2.7
		c4.7-1.5,7.1-4.8,6.8-9.8c-0.2-2.9-2.1-5-4.2-6.8c-1.1-0.9-2.3-1.8-3.5-2.5c-0.4-0.3-1.4-0.3-1.5-0.1c-0.4,0.7-0.6,1.6-0.8,2.4
		C71,2.9,71.2,2.9,71.4,2.9z"/>
	<path fill-rule="evenodd" clip-rule="evenodd" d="M187.1,95.9c-2.2-5.8-4.3-11.3-6.4-16.8c-0.5-1.3-1.5-1.5-2.5-1
		c-3.6,1.6-5.2,5.9-3.7,9.6c0.4,1,0.6,2.1,0.9,3.2c1.1,3.3,3.7,5.1,7.6,5.1C184.6,96,186.2,97,187.1,95.9z"/>
	<path fill-rule="evenodd" clip-rule="evenodd" d="M276.5,138.4c2.6,0.2,5.6-2.3,6.6-5c1.7-4.7,1.3-9.1-1.5-13.2
		c-0.4-0.6-1.2-0.8-1.8-1.2c-0.3,0.6-0.6,1.2-0.9,1.7c-2,4.2-3.8,8.4-5.9,12.5c-1.5,2.8-1.1,4.1,1.9,4.9
		C275.4,138.2,276,138.3,276.5,138.4z"/>
	<path fill-rule="evenodd" clip-rule="evenodd" d="M259,63.2c0,5.3,2.6,7.9,7.3,8c1.4,0,2.8,0.4,4.2,0.4c0.9,0,2.1-0.3,2.7-0.9
		c0.7-0.7,0.3-1.6-0.3-2.6c-1.5-2.7-2.7-5.6-4-8.4c-0.6-1.3-1.1-2-2.9-1.7c-2.9,0.4-5.4,0.9-6.6,3.9C259.2,62.4,259,63.1,259,63.2z"
		/>
	<path fill-rule="evenodd" clip-rule="evenodd" d="M170.2,36.2c-0.1-1.3-0.2-2.3-0.2-3.2c0.1-3-0.1-6,0.3-8.9
		c0.3-2.8-0.5-5.1-2.6-5.6c-3.1-0.8-7.4,2.4-7.8,5.5c-0.6,5.3,2.6,10.5,7.5,11.3C168.2,35.3,168.8,35.7,170.2,36.2z"/>
	<path fill-rule="evenodd" clip-rule="evenodd" d="M54.8,63.1c0.7,4.6,1.4,9.2,2,13.8c0.2,1.2,0.1,2.4,0.1,3.6
		c0.1,1.6,1,2.1,2.4,1.2c3.3-2,5.5-4.9,6.1-8.8c0.2-1,0.1-2.3-0.4-3c-1.7-2.3-3.5-4.7-5.6-6.6c-0.9-0.8-2.7-0.7-4.1-1
		C55.2,62.6,55,62.8,54.8,63.1z"/>
	<path fill-rule="evenodd" clip-rule="evenodd" d="M50.7,63.5c-6.8,0.8-10.2,5.3-8.4,11.2c0.6,2.1,3.1,3.8,4.8,5.5
		c0.8,0.8,2,1.2,3.1,1.6c0.7,0.3,1.6,0.5,2.2,0.2c0.4-0.2,0.6-1.3,0.5-1.9c-0.7-4.4-1.5-8.7-2.2-13C50.5,65.9,50.7,64.8,50.7,63.5z"
		/>
	<path fill-rule="evenodd" clip-rule="evenodd" d="M81.1,67.7c2.8-0.9,5-1.3,7-2.2c3.4-1.7,4.4-4.8,3.6-8.2
		c-0.7-3.2-1.7-6.4-4.3-8.8c-1.5-1.4-2.4-1.2-2.8,0.8c-0.8,3.9-1.5,7.8-2.3,11.7c-0.2,1.1-0.7,2.1-0.9,3.2
		C81.1,65.3,81.2,66.4,81.1,67.7z"/>
	<path fill-rule="evenodd" clip-rule="evenodd" d="M275.2,93.1c-0.1,3.9,2.6,6.5,5.5,8.1c0.4,0.2,1.9-0.5,2.1-1
		c0.9-3.2,2.2-6.3,2-9.7c-0.1-2,0.6-4.1,1-6.1c0.3-1.4-0.6-2-1.7-1.8C279.6,83.2,275.3,88.5,275.2,93.1z"/>
	<path fill-rule="evenodd" clip-rule="evenodd" d="M112.9,109.7c0.5,0.3,0.9,0.7,1.3,0.7c2.5,0.3,8-3.2,8.5-5.7
		c0.8-4,0.4-7.9-1.8-11.3c-0.6-0.9-1.8-1.5-2.9-2c-2-0.9-3.2-0.2-3.1,2.1c0.1,5,0.1,10-1.4,14.8C113.3,108.7,113.1,109,112.9,109.7z
		"/>
	<path fill-rule="evenodd" clip-rule="evenodd" d="M209.3,130.5c0.4-1.2,0.9-2.3,1.2-3.5c1.2-4.5,2.3-9.1,3.4-13.7
		c0.1-0.4-0.4-1.3-0.7-1.3c-5-1.1-9,1-10.1,6.2c-0.3,1.6-0.1,3.5,0.6,5c1.2,2.6,2.9,5,4.4,7.6C208.5,130.6,208.9,130.6,209.3,130.5z
		"/>
	<path fill-rule="evenodd" clip-rule="evenodd" d="M288.2,83.8c-0.9,5.6-1.7,10.6-2.5,15.6c-0.2,1.2-0.4,2.3-0.6,3.5
		c1.2-0.2,2.4-0.2,3.5-0.5c4.6-1.2,6.2-3.9,6.6-8.6c0.4-4.5-1.7-7.3-5-9.6C289.5,83.8,288.5,83.9,288.2,83.8z"/>
	<path fill-rule="evenodd" clip-rule="evenodd" d="M256,108.9c3-2.5,7.1-3.2,8.4-7.5c1-3.2,0-6-1.1-8.8c-0.7-1.8-0.9-4.1-3.6-4.6
		c-2.1-0.4-2.4,0.1-2.4,2.3c0.1,2.5-0.5,4.9-0.8,7.4c-0.4,3.1-0.8,6.1-1.2,9.2C255.3,107.5,255.8,108.1,256,108.9z"/>
	<path fill-rule="evenodd" clip-rule="evenodd" d="M101.3,98.7c-0.7,3.3,5,9.1,7.4,9.9c1.1,0.4,2.1-0.7,2-1.9c0-2.3-0.1-4.5,0.2-6.8
		c0.4-2.9,0.6-5.8-0.7-8.5c-0.2-0.5-1.4-1.1-1.6-1c-2,1.3-3.9,2.6-5.6,4.2c-1,1-1.5,2.4-2.3,3.7C100.9,98.4,101.1,98.6,101.3,98.7z"
		/>
	<path fill-rule="evenodd" clip-rule="evenodd" d="M230.4,55.3c-6.5,1.7-8.1,6.4-7.6,10.4c0.6,4,5.8,7.6,10.5,7.1
		C232.6,67,232,61.2,230.4,55.3z"/>
	<path fill-rule="evenodd" clip-rule="evenodd" d="M268.5,30.9c1.2-3.9,2.4-7.6,3.6-11.3c1.1-3.6,0.5-4.5-3.1-4
		c-1.9,0.2-3.9,0.1-5.6,0.9c-2.6,1.3-3.7,5.7-2,8.4c1.4,2.3,3.7,4,5.6,6C267.3,31.2,268.1,30.9,268.5,30.9z"/>
	<path fill-rule="evenodd" clip-rule="evenodd" d="M164.5,110.2c0,6.1,5.3,12.2,10.9,12.6c0.5,0,1.2-0.1,1.4-0.5
		c0.2-0.4,0.1-1.1-0.1-1.5c-1.5-4-3.1-7.9-4.5-11.9c-0.6-1.7-0.7-3.9-2.9-4.1c-2.6-0.2-4.7,2.1-4.8,4.8
		C164.5,109.7,164.5,109.9,164.5,110.2z"/>
	<path fill-rule="evenodd" clip-rule="evenodd" d="M58.2,9.5c1,1.8,1.6,3.5,2.7,4.9c1.2,1.4,2.9,2.5,4.4,3.6c1.4,1,2.3-0.1,2.3-1.2
		c0.2-3,0-6,0.1-9c0.1-1.9,0.6-3.7,0.8-5.6c0-0.6-0.4-1.6-0.8-1.8c-2-0.9-5.4-0.1-6.4,1.7C60.2,4.3,59.3,6.8,58.2,9.5z"/>
	<path fill-rule="evenodd" clip-rule="evenodd" d="M141.7,76.2c-3.3,0-5.5,1.5-6.2,4c-0.6,1.9-1.1,3.9-1.1,5.9
		c-0.2,4,3.2,5.5,5.7,7.6c0.4,0.4,1.7,0.1,2.3-0.2c0.3-0.2,0.2-1.3,0.2-2c0.2-2.5,0.3-5,0.4-7.5c0.1-2.2,0.3-4.5,0.2-6.7
		C143.1,76.7,141.9,76.3,141.7,76.2z"/>
	<path fill-rule="evenodd" clip-rule="evenodd" d="M33.6,61.5c1.4-2,2.2-3,2.9-4c2.3-3.4,0.6-6.5-1.1-9.2c-1.3-2.1-3.3-3.8-5-5.6
		c-1.5-1.6-3.4-0.9-5.2-0.6c-0.2,0-0.5,1.6-0.3,2.3c0.4,1.1,1.4,1.9,1.9,3c1.3,2.5,2.4,5.1,3.6,7.6c0.6,1.3,1,2.7,1.6,4
		C32.5,59.8,33.1,60.5,33.6,61.5z"/>
	<path fill-rule="evenodd" clip-rule="evenodd" d="M0,18.3c0.3,5.3,4.1,10,9.3,11c1.4,0.3,1.9-0.8,1.5-2.5c-0.8-3-1.7-6.1-2.5-9.1
		C8,16.5,7.6,15.2,7.8,14c0.4-1.8-1-2.2-2-2.6c-0.6-0.2-1.7,0.5-2.3,1C1.6,14.1,0,15.9,0,18.3z"/>
	<path fill-rule="evenodd" clip-rule="evenodd" d="M276.2,55.3c-1.7,0.4-3.2,0.6-4.6,1.1c-0.3,0.1-0.7,1.5-0.5,1.7
		c3.1,3,3.6,7.2,5.5,10.7c0.3,0.5,1.5,1.1,1.8,0.9c2.4-1.6,5.2-2.9,6.3-6c0.4-1.2,0.5-2.2-0.4-3.2C282,58,279.1,56.4,276.2,55.3z"/>
	<path fill-rule="evenodd" clip-rule="evenodd" d="M239.5,145.3c0-1.1,0-2,0-2.8c-0.1-2.6-0.3-5.2-0.3-7.8c0-1.9,0.3-3.7,0.4-5.6
		c0.1-2.2-0.7-2.8-2.9-2.2c-4.6,1.2-6.7,4.9-5.6,9.7C232.1,141.1,234.6,143.9,239.5,145.3z"/>
	<path fill-rule="evenodd" clip-rule="evenodd" d="M219.4,40.5c3.7-0.5,7.2-0.8,8.1-4.5c0.9-3.6,0.7-7.2-1.3-10.5
		c-0.5-0.7-1-1.5-1.6-2.1c-0.4-0.4-1.2-1-1.4-0.9c-0.6,0.3-1.3,1-1.5,1.7c-0.7,3.1-1.2,6.2-1.9,9.3c-0.3,1.3-1,2.4-1.4,3.7
		c-0.2,0.7-0.6,1.6-0.3,2.2C218.2,39.9,219.1,40.3,219.4,40.5z"/>
	<path fill-rule="evenodd" clip-rule="evenodd" d="M307.1,68.5c0.4,4.6,0.9,9.3,1.3,13.9c0,0.4,0.2,0.7,0.2,1c0.1,0.7,0.1,1.3,0.1,2
		c0.9-0.1,1.9,0.1,2.5-0.3c4.7-3,7.1-9.6,2.3-14.3c-1.3-1.3-2.7-2.5-4.2-3.7c-0.4-0.4-1.3-0.6-1.8-0.4c-0.5,0.2-0.6,1-0.9,1.6
		C306.8,68.5,307,68.5,307.1,68.5z"/>
	<path fill-rule="evenodd" clip-rule="evenodd" d="M296.5,74.4c0,5.8,2.2,8.9,7.6,11c1.5,0.6,2-0.1,1.8-1.4
		c-0.6-3.8-1.5-7.5-2.1-11.2c-0.2-1-0.2-2.1-0.1-3.2c0.1-1.7-0.7-2.2-2.2-1.9C297.8,68.2,296.5,69.9,296.5,74.4z"/>
	<path fill-rule="evenodd" clip-rule="evenodd" d="M249.9,38.4c-0.1,2.9-0.3,5.7-0.4,8.6c0,0.3,0,0.6-0.1,0.9
		c-0.9,2.5-0.4,3.3,2.2,2.9c3.1-0.5,6.2-1.1,7.5-4.4c0.4-0.9,0.6-2.2,0.2-3c-1.2-3.5-3.6-6-7.1-7.4
		C250.2,35.2,249.5,35.9,249.9,38.4z"/>
	<path fill-rule="evenodd" clip-rule="evenodd" d="M296.8,116c-0.3,3.3,1.9,5.5,3.4,8c0.8,1.3,2,0.9,2.4-0.5
		c1.4-4.5,2.8-9.1,4.1-13.7c0.6-2,0-2.7-2.1-2.8c-1.2-0.1-3-0.8-3.4-0.3c-1.5,1.7-2.7,3.8-3.8,5.9C296.9,113.5,297,114.8,296.8,116z
		"/>
	<path fill-rule="evenodd" clip-rule="evenodd" d="M52.3,45.6c0.5-0.9,1.1-1.8,1.4-2.8c1.3-3.4,2.5-6.9,3.6-10.3
		c0.2-0.6,0.4-1.7,0.1-2c-0.8-0.6-1.8-1.3-2.8-1.3c-1.3,0-2.5,0.6-3.8,0.8c-3.1,0.7-5.2,5.2-3.9,7.8c1.3,2.7,3,5.2,4.5,7.8
		C51.8,45.6,52,45.6,52.3,45.6z"/>
	<path fill-rule="evenodd" clip-rule="evenodd" d="M219.8,82.5c-3.8-0.7-6.5,3.4-5.7,7.4c0.4,2,0.9,4.1,1.7,6
		c0.3,0.9,1.3,1.6,2.1,2.2c1.7,1.2,2.3,0.8,2.7-1.2c0.7-3.4,1.8-6.8,2.6-10.2C224.2,82.9,223.8,82.5,219.8,82.5z"/>
	<path fill-rule="evenodd" clip-rule="evenodd" d="M146.2,85.8c-0.2,2.8-0.5,5.5-0.6,8.3c0,0.7,0.3,1.5,0.5,2.3
		c0.8-0.2,1.7-0.3,2.3-0.8c1.9-1.5,3.8-3.1,5.4-5c0.6-0.7,0.9-2.1,0.7-3.1c-0.6-3.7-2.8-6.5-5.9-8.4c-1.4-0.9-2.6,0-2.6,1.7
		c0,1.7,0,3.3,0,5C146.1,85.8,146.1,85.8,146.2,85.8z"/>
	<path fill-rule="evenodd" clip-rule="evenodd" d="M193.5,55.6c0.5,5.2,4.4,8.8,9.3,9.3c0.4,0,0.7,0.2,1.1,0.2
		c0.5,0,1.2,0.1,1.4-0.2c0.2-0.4,0.3-1.1,0-1.6c-1.4-2.8-2.9-5.6-4.3-8.4c-1-2-1.7-4.2-2.6-6.2c-0.2-0.4-0.6-0.9-1-1
		c-0.4-0.1-1.3,0.1-1.4,0.4C195.1,50.8,194.2,53.4,193.5,55.6z"/>
	<path fill-rule="evenodd" clip-rule="evenodd" d="M77.5,63.6c0.5-2.2,1.1-4.4,1.6-6.6c0.6-2.6,1.1-5.2,1.7-7.7
		c0.4-1.6-0.2-2.4-1.8-2.5c-4.5-0.4-7.6,2.5-7.6,7.1C71.4,58.7,73.5,62.1,77.5,63.6z"/>
	<path fill-rule="evenodd" clip-rule="evenodd" d="M216.5,167.3c0.8-4.9,1.5-9.4,2.2-14c0.1-0.6,0.2-1.2,0.3-1.7
		c0.3-1.7-0.9-2.7-2.6-2.4c-4,0.7-5.2,3.6-5.7,6.9c-0.6,4.2,0.5,7.8,4.1,10.4C215.3,166.8,215.7,166.9,216.5,167.3z"/>
	<path fill-rule="evenodd" clip-rule="evenodd" d="M217.3,21c-6,0.2-10.3,5.9-7.6,11.6c0.7,1.5,1.6,2.9,2.6,4.3
		c0.4,0.6,1.3,0.9,1.9,1.4c0.4-0.6,1.1-1.2,1.2-1.9c1-4.6,2-9.2,2.8-13.8C218.3,22,217.5,21.3,217.3,21z"/>
	<path fill-rule="evenodd" clip-rule="evenodd" d="M38.5,26.5c0.2-5.9,0.4-11.3,0.5-16.6c0-1.5-1.1-1.7-2.1-1.3
		c-3.9,1.6-8.7,7.8-4.6,12.5c1.1,1.2,1.9,2.7,3,3.8C36,25.5,37.1,25.8,38.5,26.5z"/>
	<path fill-rule="evenodd" clip-rule="evenodd" d="M138.3,117.2c0.1,2.3,1,5.5,3.1,8.3c0.4,0.6,1.3,0.9,2,1.3
		c0.3-0.7,0.7-1.3,0.9-2.1c0.9-3.9,1.6-7.9,2.5-11.8c0.8-3.3-0.2-4.4-3.5-3.7C139.9,110,138.3,112.1,138.3,117.2z"/>
	<path fill-rule="evenodd" clip-rule="evenodd" d="M246.4,49.5c0.2-0.4,0.6-0.7,0.7-1.1c0.6-3.9,0.5-7.9-0.4-11.8
		c-0.1-0.5-1-1.2-1.3-1.1c-2,0.9-4.2,1.6-5.8,3c-2.9,2.5,0.4,9.2,3.7,10.1C244.4,48.9,245.3,49.2,246.4,49.5z"/>
	<path fill-rule="evenodd" clip-rule="evenodd" d="M134.2,38.7c-2.2-0.3-3.8-0.8-5.5-0.8c-3,0-5.3,2.6-5.2,5.7
		c0,1.8,0.3,3.6,0.7,5.3c0.3,1,1.2,1.6,2.2,0.5c2.3-2.4,4.6-4.7,6.7-7.2C133.7,41.5,133.7,40.2,134.2,38.7z"/>
</g>
</svg>
