<?xml version="1.0" encoding="utf-8"?>
<!DOCTYPE svg PUBLIC "-//W3C//DTD SVG 1.1//EN" "http://www.w3.org/Graphics/SVG/1.1/DTD/svg11.dtd">
<svg version="1.1" id="Layer_1" xmlns="http://www.w3.org/2000/svg" xmlns:xlink="http://www.w3.org/1999/xlink" x="0px" y="0px"
	 width="500px" height="350px" viewBox="0 0 500 350" enable-background="new 0 0 500 350" xml:space="preserve">
<path fill-rule="evenodd" clip-rule="evenodd" d="M88.3,101.9c0.8-5.4-8.9-5.9-9.7-8.3c0.4,1.2,4,17.1,0.3,17.7
	c-0.8,0.1-0.5-12.9-1.4-14.6c-2.9-5.8-1.3-7.4-7.8-9.8c-1.9-0.7-15-6.5-8.5-0.2c2.7,2.6,6.3,5.4,8.1,8.8c0.9,1.6,2.7,7,0.7,8.4
	c-1.7-0.7-1.8-7.3-3.3-9.1c-2.4-2.9-5.4-5.3-7.8-8.2c-2.8-3.3-3.2-3.7-7.7-3.9c-3.3-0.1-8-2.2-10.4,1.8
	c-0.8,1.3,13.5,14.3,14.9,16.8c1.7,3,4.3,6.2,4.9,9.6c0.7,3.9,0.4,8.4,4.3,10.3c3.8,1.9,7.7,3.4,11.4,5.4c2,1.1,5.7,4.1,7.9,4.4
	c2.4,0.4,6.4,4.1,8.2,5.7c3.7,3.5,6.7-1.6,9.3-4.5c3.5-3.9,10-14.5,16.2-10c7.3,5.1,13.9,10.1,5,18c-2,1.7-5.2,4.5-7.6,5.6
	c-3.7,1.7-3.6-5.5-5.6-6.8c-2.8-1.8-5.7-1-8.7-0.7c-2.3,0.2-6.7,5.4-4.4,7.7c5.5,5.4,8,15,6.7,22.5c-0.8,4.7-3.4,6.7,2.1,9.4
	c4.2,2.1,8.8,3.2,13.1,5.3c1.9,1,6.8,6.2,8.2,4.7c2.3-2.5,2.8-6.8,3.9-9.9c0.9-2.4,2.1-7.9,1-10c-2.9-5.6,1.1-5,3.1-9.6
	c2.5-6,2.8-12.9,5.5-18.6c3.5-7.3,3.5-16.3,7.2-23.4c3.4-6.4,4.2-15,6.4-21.9c2.4-7.4,5-15,6.7-22.6c0.8-3.3,1.9-6.6,2.9-9.8
	c1-3.4,3.5-6.9,3.6-10.5c0.2-4.3,4.1-7.7,5.7-11.4c1.1-2.6-1.5-7.8,0-9.6c4.7-5.8,8.6-12.5,12.6-18.8c2-3.3,3.9-6.8,6-9.9
	c3.3-4.8,3-0.4,2.3,2.4c-2,7.1-4.4,13.9-5.5,21.2c-0.4,2.5-0.4,8.1-2.3,9.9c-3.5,3.4-4.6,7.1-5.2,11.7c-0.4,2.5-0.9,6.6-3.6,7.5
	c-2.7,0.9-3.4,6.5-4,8.9c-1.9,7.7-4.4,15.2-6.3,22.9c-1.6,6.8-4,13.7-7.3,19.9c-1,7.4-3.4,16.1-5.8,23.2c-1.2,3.7-1.3,8.2-2,12.1
	c-0.4,2.4-2.7,7.6-0.9,9.8c1.6,1.9,4.6,1.5,6.1,4.4c2.2,4.1,3.7,6.4,7.9,8.4c3.6,1.7,3.4-4.5,4.3-6.1c1.6-3,1.9-6.3,3.8-9.4
	c1.1-1.8,3.3-5.9,5.3-6.7c6.4-2.7,1.9-8.2,0.3-5.5c-0.6,1,0.1,3.6-1.1,4c-1.8,0.7-1.8-2.2-1.8-2.8c0-2.8,3.1-6,0.5-8.6
	c-3.2-3.1,2.1-4.6,4.3-5.1c3.7-0.9,0.4-7.4,4-9.2c2.9-1.5,6.7-2.4,8.8-5.3c2.8-4,1.5-4.1,6.7-3.2c2.8,0.5,4.6-1.7,5.9-3.7
	c0.8-1.2,0-3.8,1.9-4.3c2.4-0.6,2.8,2.8,5.7,0.6c2.3-1.7,3.7-5.7,7.2-4.6c1.7,0.5,3.4,0.8,5.2,1.2c2.3,0.6,2.4-1.4,4.5-1.4
	c4.4,0,10.2,15.6,2.1,16.3c-5.3,0.5-15.2,8.4-18,12.7c-1.9,3-3,5.4-3.3,8.9c-0.3,4.1,6.8,5,9.5,6.3c3.7,1.9,7.5,5,9.6,8.7
	c2.1,3.7,5.1,0.8,7.1-1.8c2.1-2.9,7.2-18.9,13.1-16.6c7.3,2.7,16.9,3.1,11.4,13.5c-1.8,3.4-4.7,5.9-6.5,9.3
	c-2.5,4.8-5.2-0.3-6.2-2.5c-4-8.2-9.6-2.4-12.1,3.8c1.8,3.4,5.6,5.5,7.4,9.3c2.1,4.4,3,8,2.6,13c-0.6,9-7.4,15.1-15.4,18.1
	c-3.2,1.2-5,3-7.6,5.3c-3.1,2.8-6.3,3.8-10.1,5.4c-4.1,1.7-9.1,1.6-13.5,2.2c-5.8,0.8-10.9-1.7-16.6-2.2c-5.5-0.4-10.7-2.8-14.3-6.9
	c-1.5-1.8-1.7-4.3-3.2-6.1c-1.4-1.6-3.5-2.4-5.4-3.3c-4.9-0.5-10.9-0.2-15.5,1.9c-4.3,1.9-9,1.2-13,3.9c-4.7,3-6.9,6.6-9.4,11.5
	c0,2.9,0.2,5.4,1.3,8c1,2.2,4.4,1.4,5.3,2.9c-1-1.7-15.5,9.7-16.9,10.9c-3.1,2.6-5.2,7.6-5,11.5c0.1,2.3,1,4.1,1.4,6.3
	c0.7,1.2,3.3,5.2,3.5,6.4c0.4,2.7,4.3,6.8,6.6,8.1c3.5,2.1,7.5,0.6,11,2.1c2.2,1,4.4,0.9,0.8,3.5c-2.9,2.1-6.3,3.9-6.7,8.1
	c-0.6,7.5-1.7,15.8,2.9,22.3c3.4,4.8,18.4,10.9,12.9,0c-3.1-6-1.1-13.4-0.8-19.6c0.4-8.5,4.2-17.2,8.2-24.6
	c3.6-6.8,8.3-12.1,12.7-18.3c5.1-6.9,13.3-9.9,20.9-12.9c5.8-2.3,18-1.1,23.7,1.2c6.8,2.7,14.9,2.8,20.6,7.9
	c13.8,12.2,18,26.2,17.6,44.2c-0.1,8.1-2.6,15.3-6.1,22.6c-1.6,3.3-3.8,7.7,1.6,4c4-2.8,8.6-5.8,11-10.2c3.1-5.8,4.9-10.1,4.9-16.8
	c0-0.5-0.9-8.1,1.6-6.3c2.6,1.8-1.1,7.8,4.3,5c11.9-6.2,10.5-22.8,7.9-33.6c-0.9-3.7-7.8-13.6-11.8-13.5c-3.9,0.1-3.6,2.8-5.5,5.7
	c-3.2,4.9-2-0.7-1-3c2.5-5.3,4.3-13.2,2.4-19c-2.5-7.6-7.3-13.6-10.9-20.5c6.2,0.3,11.7,12.3,12.6,18.1c0.5,3.2,1.3,6.4,3,9.1
	c1.6,2.6,8.6,2.7,11.3,3.5c5.7,1.7,4.8,1.2,4.9-5c0.1-4,1-8.3,1.1-12.5c0.2-11.1,0.5-22.4,0.1-33.5c-0.4-9-2.2-17.7-2.3-26.5
	c-0.2-10.9-0.2-21.8-0.1-32.7c0.1-6.6,1.4-13.7,0.3-20.1c-0.6-3.2,0.6-6.1,0.8-9.2c0.2-4.3,0.9-9.6-0.1-13.8c-0.8-3.2-2.8-5.5-2-8.9
	c1.7-2.5,2.8-7.1,3.5-10.1c1.8-7.2,3.6-15.4,6.7-22.2c1.3-2.9,2.3,7.1,2.3,7.6c0.1,3.6,1.1,6.8,1.2,10.4c0,4.1,2.1,7.8,2.5,11.8
	c0.1,1.4,0.4,2.9-0.8,3.9c-2.2,2-1.7,4.2-1.8,7c-0.2,3.7-0.1,6.7,0.1,10.5c0.1,2.4,2.4,7.7,1,9.8c-4.2,6.2-1.5,16.2-3.6,23.1
	c-2.8,9.1-0.9,20.7-1,30.2c-0.1,10.6,0,21.2,0.1,31.8c0.1,8.8,0.9,17.7,0.9,26.4c0,2.9-1.4,7.6,2.5,6.5c4.2-1.2,9.6-0.8,13.8,0
	c5.2,1,13.1,6.3,16.6,10.1c2.9,3,5.7,6.1,8.7,9c2.3,2.3,3.4,7.1,4.4,10.1c1.1,3.1,2.7,7.9,4.4,10.6c2.3,3.6-0.2,9.9-0.9,13.6
	c-1.8,9-7.5,14.4-11.3,22.2c-1.4,3-4.9,3.8-7,6.2c-0.3,0.4-6.8,4.4-3.4,5c2.8,0.5,7.6,2,10.1,3.2c4.1,2.1,7.7-0.4,11.7-0.5
	c6.4-0.1,13.6-6.2,17.4-10.7c0.8-0.9,4.4-9.2,5-8.9c2.8,1.6-2.7,7.8,0.1,8.1c7.6,1,14.4,0,20.2-5.5c6.6-6.2,10.2-14.6,7.1-23.8
	c-1.1-3.3-2.1-6.2-4-9.2c-1-1.6-5.4-6.8-0.3-4.4c2.2,1,8.1-3.8,9.5-5.2c2.8-2.9,3.7-8.4,2.1-12c-2.9-6.4-5.9-14-12.7-17.4
	c-0.7-0.4-2-1.6-1.6-2.5c0.6-1.3,3.8,1.2,4.3,1.5c4.4-0.4,0-8.4-1.2-10.3c-2.5-3.8-5.1-5.9-9.3-7.6c-2.8-1.2-6-1.3-7.9-3.2
	c6.4-0.5,13.6,2.4,17.4,7.5c1.9,2.6,3.3,4.9,4.4,7.9c1.4,4.2,7.5,7.1,10.9,9.3c2.7,1.7,5,3.9,7.6,5.6c1.9,1.3,6.9-3.6,8-4.6
	c3.2-3,5.6-6.6,8.7-9.7c3.7-3.7,8.1-6.7,11.8-10.5c3.1-3.2,6-6.5,9.2-9.6c3-2.9,8.5-6.3,10.6-9.9c2.1-3.7,3.6-6.8,6.8-9.6
	c3.7-1.6,8.2-5.2,9.4-9.3c1.3-4.5,1.8-2.8,5.8-4.8c3.2-1.6,6.1-4.3,8.9-6.6c2.5-2.1,6.1-3.2,8.3-5.7c2-1,8.8-6.3,10.9-5.4
	c1.9,0.8-4.7,6.6-5.3,7.8c-1.7,3-4.5,6.5-6.8,9c-3.1,3.4-4.8,6.3-6.2,10.7c-1.4,4.2-2,8.8-6.9,6.5c-5.1-2.4-14.3,8-16.9,11.5
	c-5.1,6.8-12.6,13.7-18.9,19.4c-4.9,4.5-9.1,9.9-13.7,14.7c-6.7,7.1-13.4,14.3-20.2,21.4c-5.7,5.9-10.6,12.4-16.1,18.4
	c-2.9,3.2-3.6,3.5-3.5,7.5c0.2,5.3,0,9.8-1.1,14.9c-1.6,7.9-13.5,15.5-21.1,16c-3.1,0.2-12.3-2.2-13.1,2.6
	c-0.8,4.6-3.3,9.1-4.7,13.6c-0.9,2.9-1.6,6.2-1.6,9.2c0-0.3-1.1,5.6-2.1,2.7c-1.5-4.3-3.1-8.2-3.8-12.8c-0.3-2,0.2-6.2-3.3-5
	c-1.7,0.6-3.9,1.1-4.5,3c-0.8,2.5-1.1,16.2-2,16.5c-1.9,0.6-6.2-8.5-6.8-9.7c-0.3-2.8-2.2-5.5-2.9-8.3c-0.4-1.5-6-2.7-7.4-3.3
	c-2.2-1-4.5-2.7-7-1.5c-2.6,1.3-5,2.5-7.9,2.8c-4.4,0.4-12.5,3.6-16.4,0.6c1.3-0.9,5.8-1.9,7.2-1.8c4.2,0.3,7.5-2.5,11.3-3.6
	c6.8-2,13.1-4.7,17.3-11c9-13.7,14.6-26.2,10.2-42.8c-1.6-5.9-3-10.7-7.3-15.3c-3.9-4.1-10-11.2-16-12.1c-2.6-0.4-3.9-2.4-6.9-2.5
	c-2.8-0.1-9.4-1.3-11.9,0.7c-2.9,2.4-1.8,8.7-1.8,11.9c-0.1,4-1.5,9.7-0.9,13.5c1.4,7.9-1.7,16.4-1.5,24.3
	c0.3,10.1-0.9,19.9-1.3,29.8c-0.4,8.4,0.3,16.8-0.1,25.3c-0.3,6.3-2,13.7-1,19.9c0.3,1.6,1.4,4.5-1.4,4.8c-1.6,0.2-8.3,1.5-8.8-1
	c-1.3-6.8,3.4-14.7,3.6-21.6c0.2-9.3,0.9-18.4,1.3-27.7c0.2-4.2,1.1-8.1,1.2-12.3c0.1-2.1,1.5-10-0.4-11.4
	c0.8,0.6-7.9,12.7-9.2,13.9c-1.4,1.4-6.6,4.6-6.6,6.5c-0.2,3.9-3.3,8-5.5,11.2c-4,5.8-10.8,9.2-17.2,11.6c-3.5,1.4-5,4.1-8,6.4
	c-3,2.3-6.1,3.7-6.2,8.1c-0.1,6.4-1.8,12.9-2.8,19.2c-0.4,2.6-3.2-3.4-3.3-3.5c-1-3.5-2.1-7.6-3.7-10.9c-1-2.1-2.6-3-4.9-1.8
	c-3.1,1.6-8.5-0.6-9.6,3.2c-0.6,1.7-5.1,18.9-5.5,18.7c-1.8-0.8-3.7-10.3-4.1-12.2c-0.3-1.6-0.4-5.2-1.3-6.5
	c-1.6-2.3-6.4-0.4-8.7-1.4c-3-1.3-6-0.5-9-2c-3.5-1.7-7.4-3.4-10.6-5.7c-2.6-2-5.3-2.5-7.6-5.3c-1.8-2.3-3.8-3.8-6.8-4
	c-6.3-0.5-10.3-4.8-15-8.5c-1.6-1.3-6.9,0.9-8.5,1.5c-3.2,1.3-7.8-2.7-11.1-0.1c-1.9,1.5-2.3,6.8-2.6,8.9c-0.3,2.6-0.8,6.2-2,8.6
	c-1.4,2.9-0.4,12.7-3.6,14.5c-0.6,0.4-4.2-16-4.5-17.8c-0.3-2.1-2.4-8.1-4.9-8.3c-2.1-0.2-8-4.2-8.8-0.4c-0.7,3.3-2.5,7-2.6,10.3
	c-0.1,3.6,0.6,8.5-0.9,11.9c-0.2,0.4-0.4,8.1-2.5,5.5c-2.6-2.9-5.1-7.2-5.8-11.1c-1.3-7.2-5.3-13.6-9-19.7c-1.9-3.2-6.5-1.7-9.5-1.5
	c-4.3,0.3-8.1,0.5-12.2-1.2c-5.7-2.5-7.9-9.8-14.2-10.5C14,287.9,11.7,277.1,8,271c-3.8-6.2-5.9-12.4-7.9-19.4
	c-0.4-1.5,0.8-3.9,0.8-5.5c0-1.9,0-3.8,0-5.7c0-3.9,2.6-7.2,2.5-10.9c-0.1-8.1,1-16.5,5.6-23.5c1.8-2.7,4.8-4.6,6.4-7.2
	c1-1.7,0.6-4.5,0.7-6.4c1.7-2.8,2.9-5.4,5.1-7.8c3.6-3.8,3.5-3.2,2.4-7.6c-1-3.8-3.4-6.9-3.7-11c-0.5-7.6,4.3-14.7,8.4-20.5
	c2.2-4.7,5.6-6.1,0.1-9.7c-4.6-3.1-6.4,2-7.4,6c-3.1,11.7-13.5-3.5-15.9-6.8c-3.8-5.3-0.2-7,4-10.3c1.8-1.5,5.1-3.7,7.5-3.8
	c2.6-0.1,3,1.7,4.9,2.9c4.4,2.8,6,8.1,11.3,10.1c4.3,1.6,6.6-4.6,10.2-6.9c6.2-3.9,14.1-11.7,7.1-19.2c-3.6-3.9-7.5-6.8-12.1-9.4
	c-1.6-0.9-10.6-5.7-10.6-6.6c0-2.2,4.8-5.4,6.3-6.8c1.5-1.4,3.7-0.3,5.2-1.8c2.3-2.3,7.5-4.9,10.9-3.4c4.8,2.2,9.8-0.3,14.6,2.7
	c3.8,2.4,9.1,3.7,13.4,5.4c2.1,0.8,2.4,2.7,3.7,4.1c1.5,1.6,3.8,1.8,5.4,3.3c4.1,3.8,6.9,9,9.3,14.1c2,4.4,0.8,9.3,2.7,13.5
	c0.4,0.8,0.9,5.5-1.4,4.1c-1.3-0.8-1.2-4.3-2.6-5.5c-0.3,0.5-2.9,5.7-3.9,4c-0.7-1.2,2.1-5,2.1-6.4c0-2,1.4-3.8,1.3-5.8
	c-0.1-1.6-1.3-2.9-1.4-4.5c-0.1-1.6-3.1-5-3.7-5.3C89.4,102.4,88,101.7,88.3,101.9z M204.6,133.3c0.1,0.9,0.3,1.1,0.7,0.6
	c-0.2-0.2-3.5-2.1-3-1.1C202.9,133.6,203.7,133.7,204.6,133.3C204.6,133.7,204,133.3,204.6,133.3z M32.6,90.4
	c2.4,0.6,3.9-2.7,6.4-2.6c-0.1,1.4-5.9,5.1-2.8,6.1c1.1,0.4,6.1-4,5.8-4.5c-2.5-3.7-9.2-2.9-10.3,1.6C32.1,91.6,32.4,91.4,32.6,90.4
	C33.2,90.6,32.7,90.9,32.6,90.4z M131.1,190.3c5.5,1.4,8.5-12.2,4.4-14.8c-3.1-2-4.9,15.7-4.9,15.8
	C130.8,190.9,131,190.6,131.1,190.3C132.5,190.6,131.2,190.7,131.1,190.3z M205.9,115.8c-3.9-0.6-1.3-3-1.7-5.7
	c-0.2-1.7-2.5-1.7-3.6-1.8c-3.8-0.4-4-0.4-5.3,3c-1.3,3.3-2.4,3.6-0.8,7c1.8,3.7,3.1,7.5,3.8,11.5c-5.7-0.8-2.2-14.2-10.6-13.9
	c-10.3,0.4,4.2,15.8,1,17.2c-0.4,0.2-2.6-4.4-2.9-4.8c-1.2-1.8-4-1.3-5.9-1.3c-5.1,0.2-0.5,5,1.7,6.9c1.1,0.9,1.2,2.9,2.7,3.2
	c2.5,0.6,4.6-2.4,7.1-2.3c4.7,0.1,5-3.4,7.2-5.4c3.3-2.9,4.8-8.2,6.9-11.9c0-0.6,0.1-1.2,0.1-1.9c1.2-0.1,2-0.8,2.4-2.1
	c1.3-2.5,3.2-4.7,4.8-7c3.2-4.4-4.4-5.9-4.5-3.9c-0.1,1.7-0.7,3.3-1.9,4.5C205,108.8,205.6,113.8,205.9,115.8
	C205.5,115.7,205.5,113.5,205.9,115.8z M487.9,134.8c-3.9,0.4-8.6,4.8-11.5,7.1c-1.5,1.3-2.8,2.6-4.5,3.7c-2.7,1.6-5.2,0.9-4.4,4.1
	c1.1,5-4.6,6-7.9,8.1c-1.4,0.9-4.4,2.6-4.7,4.5c-0.2,1.3,1.9,4.9,3.5,3.4c3.9-3.8,8-7.4,11.7-11.4c2.4-2.7,4.5,5.3,5.9,2.8
	c2.2-4,3.2-8.5,5.9-12.3c1.5-2,3.5-4.1,4.6-6.3c0.6-1.2,1.4-4.3,1.9-4.6C488.2,134.2,488,134.5,487.9,134.8
	C487.2,134.9,487.9,134.4,487.9,134.8z M47.7,298.9c3.2-1.1,18.8-2.3,15.8-7.8c-2.3-4.4-0.2-5.4,1.9-1c1.1,2.3,3.9,5.2,6.3,6.3
	c5.8,2.7,13.3,7.5,19.9,6.5c4-0.6,7.6-2.1,11.2-4c4.7-2.4-3.3-4.4-1.5-6.7c0.1-0.1,7.1,4.4,8.5,4.4c4,0.1,8,0.4,12-0.3
	c3.2-0.6-0.5-5.2-0.7-7c-0.3-5.4-1.2-13.1,0.9-18.2c1.8-4.5-1.9-4.9-4.9-7c-2.9-2-5.1-4.3-7.2-7.1c-6-7.7-5.9-15.8-3.7-24.8
	c0.8-3.2,4.2-6.3,6.4-8.5c1.7-1.6,5.6-3.6,6.6-5.7c0.6-1.1-0.5-3.9-0.5-5.1c0-1.8,1-3.6,1-5.4c0-3.8,2.4-6.7,4.1-9.7
	c2-3.7,1.6-3.6-1-7.3c-1.7-2.4-5-5.1-7.8-6.2c-6.5-2.6-14.6-4.6-20.3,0c-5.8,4.7-12.7,4-19.3,6.3c-6.4,2.2-18,6.1-24.6,3.1
	c-7-3.2-14.8-4.7-21-9.5c-5.2-4-12.1,8.9-9.2,12.6c1.8,2.4,8.2,0.9,10.9,1c3.6,0.1,6.4-0.6,10.2-0.1c6.2,0.9,13.7,6.8,17,12
	c8.5,13.1,14.6,27.3,14.3,43c-0.2,11.2-10.6,22.2-18.1,29.6c-4.9,4.7-11.2,7.6-17.5,9.4c-2.9,0.9,0.3,4.6,1.3,5.5
	C41.3,299.2,44.7,298.9,47.7,298.9C49,298.4,46.4,298.9,47.7,298.9z M198.3,222.2c-7.6,0-16.5-1.4-23.4,2.6
	c-5.6,3.2-9.6,9-14.9,12.4c-4.8,3.1-8.7,10.4-10.6,15.5c-2.3,6-5.1,11.9-5.6,18.3c-0.7,7.9-3.2,13.5-0.6,21.5
	c1.8,5.5,5.2,11.3,9.1,15.6c3.4,3.8,8.8,9.4,14.2,10c6.3,0.7,13,5.9,19.5,3.1c4.8-2.2,11.6,1.3,16.7-1.4c3-1.5,6.6-1.8,9.7-3.5
	c3.2-1.8,6.1-4.1,9.2-6c4-2.6,9.8-10.8,10.8-15.3c1.3-5.5,5.1-10.3,5.2-16.1c0-7.1,4-16.7,0.2-23.7c-0.9-6.6-3.2-10.4-7.1-15.6
	c-3.4-4.6-8.5-10.3-14.1-12.2C210.7,225.4,203.8,224.7,198.3,222.2C194.1,222.2,199.6,222.8,198.3,222.2z M19.2,211
	c22.5-11.9,27.2,18.7,27.2,34.6c0,9.5-2.5,19.7-7.9,27.7c-2.6,3.9-7.5,6.8-12.2,6.7c-1.5,0-12-1.6-12.1-1.9
	c1.1,6.3,13.6,12.3,19.3,11.9c8.3-0.5,15.8-4.9,21-11.2c5.3-6.4,10-12,12.1-20.1c2.4-9.5,1.2-18.2-1.5-27.3
	c-2.8-9.3-6.5-18.7-13.6-25.5c-2-2-5.7-4.7-8.4-5.4c-5.1-1.4-9.3-0.2-14.4-0.2c-4,0-8.6-0.5-12.1,1.9c-3.3,2.3-7.1,7.2-7.8,11.2
	c-0.1,0.6-2.3,11.2-0.1,9C12.2,218.7,15.5,214.7,19.2,211C20.9,210.2,16.8,213.4,19.2,211z M5.8,245.3c0.2,8.2,0.7,14.8,4.5,22.1
	c1.4,2.7,3.7,7.2,6.5,8.5c2.9,1.4,8.1,0.5,11.3,0.3c4.3-0.3,9.9-8.3,11.7-12c2.5-4.9,5.8-15,3.2-20.4c-2.8-5.7,0.5-13.2-2.6-19
	c-0.9-6.3-5.8-14.7-12.8-14.4c-6.9,0.3-11,6.9-15.1,11.6C7,228.5,6,237.3,5.8,245.3C5.9,248.7,5.9,242.8,5.8,245.3z M168.1,177.4
	c-0.7,6.1-1,15,3.8,19.7c3.8,3.7,9.7,4.6,14.8,4.5c6.1,0,12,0.5,17.4-3c6.1-3.9,8.2-7.3,11.3-13.5c1.9-3.9,1-14.1-4.7-15
	c-2.1-0.3-6.6,4.7-8.2,2c-1.7-3-2.9-6.2-5.4-8.7C185.2,151.5,173.1,166.5,168.1,177.4C167.6,181,168.7,176.1,168.1,177.4z
	 M78.5,186.7c6.1-0.4,11.1-2.1,15.9-6.2c4.2-3.5,8-13.2,5.7-18.6c0.9-10.8-18.4-21.4-27.1-14.2c-1.6,1.3-3.7,0.1-5.2,1.7
	c-2.3,2.4-2.7,4.7-2.6,8c0.1,3.1-0.5,4.4-3.6,3c-3.2-1.5-6.4,2.9-6.5,5.7C54.7,179.5,66.6,186.3,78.5,186.7
	C80.7,186.6,77.8,186.7,78.5,186.7z M209.6,137.4c-6.5-0.5-11.3-2-17.8,0c-6.1,1.9-14.5,6.9-16.9,13.3c-1.3,3.4-6.5,17.3,1.6,11.1
	c4.2-3.2,15.2-9.6,20.6-5.9c1.9,1.3,4,4.5,4.7,6.6c1.1,3.6,1.5,8,5.7,6c1.4-0.7,9.2-3.4,9.2-4.8c0-3.2-2.5-6.4-4-9.1
	c-0.5-0.9,5.2-0.7,5.9-0.9c1.3-0.3,9.2-1.4,8.4-3.1C223.4,143.2,216.8,140.6,209.6,137.4C208.7,137.3,211.1,138,209.6,137.4z
	 M72.3,145.7c5.5-2.2,10.4-3.1,16.3-2.7c3.2,0.2-0.2-5.5-1.2-6.2c-3.1-2-6.2-3.8-9.5-5.5c-5.8-3-12.2-4.7-17.9-7.6
	c-5.9-3-13.8,3.3-17.8,7.1c-2.7,2.6-8.2,11-3.5,13.2c3.7,1.7,6.3,0.9,10,0.9c3.2,0,1.5,7.5,1.4,9.6c-0.1,2.9,5.1,1.7,6.9,2.5
	c6.1,2.8,4.5-4.5,4.6-8c-0.2-1.5,0.1-2.9,0.9-4.2c1.5-1.9,1.4,0.7,2.6,1.1C67.5,146.8,69.5,144.5,72.3,145.7
	C73.4,145.2,72.1,145.6,72.3,145.7z M53.8,162c2.3-5.5-4.1-0.6-6.8-4.7c-1.3-2,1.7-4.5,0.6-6.7c-1-1.9-5-2.2-6.6-3.2
	c-6.1-3.7-9.3-1.8-13.6,3.4c-2.7,3.3-4.9,10.2-4.8,14.4c0.1,8.6,10.2,20.9,19.5,18.3c4.7-1.3,8-2.2,11.4-5.9c1.8-2-0.4-4.5-0.6-6.5
	C52.6,168.3,52.2,164.8,53.8,162C54.1,161.3,53.1,163.1,53.8,162z M243.6,177.7c1.1-8.1-2.1-22.6-12.7-22.7c-3.4,0-9.7,0.7-11.2,4.4
	c-0.9,2.1,0.3,4.7,0.9,6.7c0.5,1.9-5.4,1.5-6.1,1.7c-1.7,0.4,3.2,6.1,3.8,7.1c0.5,3.5,0.2,7,0,10.5c-0.5,1.2-1.9,3.6-0.6,4.8
	c3.6,3.2,11.2,2,15.1,0C238.4,187.5,241.1,183.2,243.6,177.7C243.9,175.6,242.9,179.2,243.6,177.7z M395.7,219.4
	c-5.4,0.2-4.2,0.1-4.2,5.1c0,5.5-2.7,10.3-6.2,14.4c-0.4,0.4-8,7.4-3,7.9c2.7,0.3,9.1-9,10.9-10.8c7-7.1,12.3-16.1,20.4-22.3
	c7-5.3,12.2-13.6,18.4-19.9c3.4-3.4,9-7.5,11.2-11.7c2.4-4.6,7.6-7.3,10.3-11.9c0.8-1.3,1.5-2.1,0.1-3.2c-1.2-0.9-3.9,3.9-4.7,4.5
	c-4.6,4.8-9.1,9.8-14,14.3c-7.4,6.8-15.2,13.5-22.3,20.7c-1.6,1.6-8.7,6.9-7.3,9.5C407.7,220.3,397.5,219.4,395.7,219.4
	C395.2,219.4,398.6,219.4,395.7,219.4z M171.7,56.6c0.4-7.5-4-1.1-4.9,2.3c-1.2,4.7-3.2,9-4.2,13.7c-1,4.4-2.6,10.6-4.5,14.7
	c-1.8,3.8-3.9,10.2-4.2,14.4c-0.3,4.6-3.2,9.8-4.1,14.4c-2.4,3.5-2.3,8.7-3.8,12.6c-3.3,8.3-4.5,17.2-7.5,25.5c-1.8,5,4.3,2.4,5-0.3
	c1.2-4.4,1.4-10.6,3.6-14.6c2-3.7,2.2-10.1,3.3-14.2c1-3.8,2.2-7.4,3.8-11c1.5-3.7,1.8-8.5,3.9-11.9c1.4-2.2,1.7-5.7,2.5-8.2
	c0.8-2.3,2.2-4.2,2.4-6.7C163.7,76.8,170.4,67.1,171.7,56.6C171.8,56,171.6,57.5,171.7,56.6z M143.9,178.6
	c-0.4,6.3,0.4,10.8,7.8,7.2c2.3-1.1,6.9-0.7,9.2-0.1c5.2,1.3,4.4-1.4,4.4-6c0-2.7,1-4.4,1.4-6.9c0.6-3.8-4.4-5.7-6.9-7.3
	C153.9,162,145.9,174.5,143.9,178.6C143.8,179.6,145.4,175.5,143.9,178.6z M278.4,81.6c7.9-0.3,0.7-17.7,3.2-22.9
	c0.6-1.3,2.3-2.4,2.5-3.8c0.2-2.6-1.2-4.8-1.3-7.3c-0.1-1.9-0.6-11.5-1.7-12.3c-1.9-1.5-5,11.7-5.2,12.2c-0.8,2-4.1,10.3-2.3,11.7
	c5.1,3.9,3.3,4.5,2.9,10.3C276.3,74.8,270.8,81.3,278.4,81.6C278.9,81.6,277,81.5,278.4,81.6z M280.2,100.7c0.2-5,1.5-10.3,1.3-15.2
	c-0.1-1.8-4.4-2.2-4.6-0.6c-0.4,3-0.3,5.8-0.3,8.8c0,6-1.4,12-1.4,18.1c0,7.9-0.1,15.9,0.1,23.8c0.1,2.6-1.1,17.4,1.2,17.9
	c1.9,0.4,1.2-14.6,1.1-16.3C277.5,126.1,275.4,110.8,280.2,100.7C280.2,99.6,279.8,101.4,280.2,100.7z M187.3,16.1
	c1.4-3.5-4.6,4-5,4.6c-2.2,3.2-5.7,6.7-7,10.4c-0.5,1.5,1.2,2.8,1.9,3.7c1.2,1.3-1.8,4.6-2.4,5.4c-1,1.8-6.9,9.4-3.4,10.9
	c5.6,2.4,7-13,8.3-15.7c1.4-3,3.9-0.9,4.9-4.5C185.9,26.1,185.2,20.6,187.3,16.1C187.4,15.9,187,16.8,187.3,16.1z M271.8,293.8
	c-0.4,10.6-1.3,21-1.5,31.5c0,0.7-0.3,11.5,3.1,6.5c2.1-3,0.4-11.3,0.5-14.8c0.2-11.2,0.5-22.4,0.3-33.6c-0.1-3.8,1.3-7.9,1.3-11.9
	c0-2.6,1.5-11.7-0.6-13.6c-2.4,1.4-0.8,15.8-0.8,18.6c0,3.2-1.2,5.9-1.3,9.2C272.7,288.6,273,291,271.8,293.8
	C271.8,294.5,272,293.3,271.8,293.8z M278.7,203.7c-0.8-2.7,0.6-5.2,0.2-8c-0.3-3-0.9-5.6-1-8.7c0-2.1-1.3-17.2-0.8-17.6
	c-2.2,1.8-0.4,15.9-0.5,18.9c-0.1,6.3,0.3,12.8-0.1,19.1c-0.1,2.3-3.6,14.8,0.4,15.1C278.1,222.7,278.1,205.5,278.7,203.7
	C278.6,203.3,278.5,204.3,278.7,203.7z M275.1,243.6c-0.4,0.8-2.2,8.4-0.3,8.2c3.1-0.3,2.1-19.3,2-21.7c-0.2-6.2-2.3-0.8-2.1-0.4
	C276.5,233.2,275.2,239.8,275.1,243.6C274.4,245.2,275.2,239.6,275.1,243.6z M220.7,96.8c-2.9,0-3.5,0.9-4.7,3.5
	c0.6-1.3-2.3,5.8,0.4,3.7C218.3,102.5,227.4,97.5,220.7,96.8C220,96.8,221.2,96.9,220.7,96.8z M272.7,238.8c0-2.2,0.4-11.4-3.8-8.3
	c-1.3,1,2.5,11.3,3.2,11.2C272.9,241.6,272.7,239.3,272.7,238.8C272.7,236.9,272.7,238.7,272.7,238.8z M225.6,100.8
	c-2.2,1-0.4,8.9,2,8.3C229.5,108.7,227.5,100.7,225.6,100.8C225.3,101,226.1,100.8,225.6,100.8z M232.4,104.9c0-0.9-2.3-9.1-3.4-6
	C228,101.4,231.8,109.8,232.4,104.9C232.3,103.9,232.3,105.3,232.4,104.9z M40.7,97c2.8,2.1,6.7-4.4,3.3-5
	C42.2,91.7,37.5,95.8,40.7,97C41.6,97.6,40.4,96.9,40.7,97z M212.6,119.4c-0.7-1.5-2.7-5.7-3.9-1.6
	C207.2,123.3,214.4,121.5,212.6,119.4C212.3,118.6,212.9,119.8,212.6,119.4z M220.8,112.5c-0.3-0.4-3.3-8.8-3.7-5.3
	C216.9,108.9,218.4,117.5,220.8,112.5C220.5,112,220.6,113.1,220.8,112.5z M213.9,110.8c-1.6,1.4-2,5.1,0.5,6
	C217,117.7,215.9,111.6,213.9,110.8C213.6,111.1,214.1,110.9,213.9,110.8z M209.4,125.7c-0.1-0.8-2-5-3.2-2.9
	C204.6,125.8,209.6,128.1,209.4,125.7C209.3,125,209.4,126.1,209.4,125.7z M221,104.3c0,2.1,0.4,3.5,1.2,5.4c0.4,1,2.8,1.3,2.1,0
	C223.8,108.7,221,101.8,221,104.3C221,106.6,221,104.9,221,104.3z M51.1,100.4c-2.2,0.5-2.6,3.8-0.1,3.5
	C53.8,103.5,54.1,100.8,51.1,100.4C50.7,100.5,52,100.5,51.1,100.4z M204.4,127.4c-2.2,0.2-0.6,4.7,1.9,3.4
	C208.1,129.9,205.6,127.4,204.4,127.4C203.7,127.5,204.6,127.4,204.4,127.4z M45.7,99.9c1.2,0.2,4.9-0.4,3.5-2.3
	C47.5,95.3,43.6,98.1,45.7,99.9C45.9,99.9,45.4,99.6,45.7,99.9z M56.4,109.7c-1.4,0.3-0.7,1.8,0.3,2C58.4,112,57.7,109.5,56.4,109.7
	C55.9,109.8,57,109.6,56.4,109.7z M55.3,106.9c0.3-1.1-1.5-1.9-2.1-0.9C52.7,106.9,54.7,108.6,55.3,106.9
	C55.5,106.2,55.1,107.6,55.3,106.9z M56.5,116c0,0.7,0.2,1.3,0.7,1.7c0.4-0.4,0.9-3.5-0.2-2.8C56.8,115.3,56.7,115.7,56.5,116
	C56.6,116.4,56.4,115.5,56.5,116z M272,256.7C272.4,256.8,272.4,256.8,272,256.7L272,256.7z"/>
<path fill-rule="evenodd" clip-rule="evenodd" d="M366.3,147.3c2.9,0.5,5.4-3.6,8.3-2c3.5,1.8,8.1,3.4,10.7,6.5
	c3.1,3.8-2,14.8-6.9,11.7c-5.5-3.5-13.4-5.7-19.5-1.6c-1.8,1.3,1.9,6,2.5,7.6c1.6,4.2-0.6,7.9-1.4,12.1c-1.2,0.4-3.4,5-4.5,6.7
	c-2.5,3.7-4.2,4.8-8.4,6.2c-9.6,3.2-20.1,2.3-30.2,2.4c-7,0-11.5-10.4-17.8-5.6c-2.8,2-4.8,4-6.3,7.1c-2.1,4.2-2.1-2.1,0.2-4.6
	c2-2.2,6.1-4.1,7.4-6.6c-2.5-2.6-7-6.1-7.3-10.1c-0.3-4.2-1.1-8,0.2-12.1c1.5-4.7,5.2-6.7,8.6-9.7c2.7-2.4,4.8-5.5,6.2-8.9
	c1.2-2.8-6.9-0.4-7.9,0c-3,1.3-5.5,3.9-8.3,0.6c-2.8-3.3-6.2-9.3-1.3-11.9c8-4.2,13.8-5.6,17.9,3.9c2.1,4.9,6.2-0.4,8.5-1.8
	c5.1-3.2,4.9-1.6,3.6-7.9c-2.3-3.3-3.4-7-6-10.2c-2.5-3.1-5.3-3.8-8.7-5.4c-4.2-2-5.2-4.2,0.1-5.5c4.7-1.2,7.9-4.1,13-4
	c4.9,0.1,8.2-2.9,12.2,1.1c3.9,4,6.3,4.1,11.8,4.1c4.2,0,4.2,2.4,5.9,5.7c2.1,4.1,6,4.9,7.7,8.8c1.7,3.9,4.7,2.4,7.3,5.1
	c2.7,2.9,2,6.1,0.3,9.2c-0.7,1.2,2.2,3.1,2.8,3.9c1.6,2.3-0.4,3.1-0.4,5.3c-4.4-0.3,0.1-3.5-2.1-4.8c-3.8-2.2-4.3,5.5-7.1,4.4
	c-0.9-0.4,3.9-6.5,4-7.9c0.2-2.1,4.2-9.6-1.4-9.4c-4,0.2-4,5.8-5.5,8.8c-2.7,5.1-1.8,0.2-0.5-2.6c2-4.3,0.9-7.6,0-11.9
	c-0.3-1.7-1.6-1.8-3-2.2c-2.8-0.8-1.9,1.7-2,3.9c0,0.8-2.4,10.3-3.4,9.6c-1.4-1,1.9-9.1,2-10.8c0.2-3.4-1-9.1-2.8-12.1
	c-1.1-1.7-8.6,0.1-6.7,3.2c1.5,2.4-1.4,10.8-1.4,10.8c-1-1.2,0.8-4.9,0.7-6.4c-0.1-2.6-1-4.5-2.3-6.8c-2.1-3.5-6.1-8.6-10.5-7.6
	c-4.6,1,0.2,9.1,1.1,11.9c1.4,4.7,1.5,9.7,1.8,14.5c0.3,5.7,5.6,3.9,10,5.3c4.6,1.4,9.4,6,12.2,9.7c0.8,1.1,6.4,10.1,6.8,10.1
	C358.8,156.9,366.1,149.8,366.3,147.3C366.9,147.4,366.3,147.5,366.3,147.3z M322.2,120.9c-0.9-0.2-1.6-0.1-2.3,0.5
	c1,1,2.7-0.2,3.1-1.1C322.6,119.7,322.3,119.9,322.2,120.9C321.8,120.9,322.2,120.5,322.2,120.9z M358.7,176.1
	c0.8-10.4-6.2-19-17.2-18.6c-4.8,0.2-10.2,2.9-12.7,7c-1.2,2-2.5,4.6-4.1,6.3c-2.1,2-4.4-0.8-5.9,2.7c-4.9,10.8,6.5,20.9,16.5,20.6
	C347.3,193.8,354.6,187.5,358.7,176.1C358.8,174.9,357.6,179.1,358.7,176.1z M314.3,143.9c-2.2,2.8-8.1,10.4-0.2,9.7
	c9.4-0.8,5.1,5.6,2.3,9.9c-3,4.7,6.6,5.2,6.8,3.9c1.2-6.9,4.2-8,9.5-12.1c3.1-2.3,13.2-0.1,16.7,1.2c3,1.1,1.5-2.7,0.6-4.1
	c-2-3.4-5.2-6.2-8.1-8.8c-5.3-4.8-9.5-2.9-15.8-3.9C321.3,138.9,316.2,137.7,314.3,143.9C313.6,144.8,314.5,143.4,314.3,143.9z
	 M306.9,155.1c-9.5,3.8-12,11.3-11.3,20.8c0.7,9.2,13.5,10.9,20.3,10.6c1.8-0.1,0-7,0-8.1c-0.1-2.5,3.9-9.3,0.6-9.6
	c-7-0.8-3.1-4.6-0.6-8.4C318.1,156.6,308.8,155.1,306.9,155.1C305.2,155.8,307.8,155.1,306.9,155.1z M319.3,107.9
	c-1.3-1.8-9.5,4.8-9.1,4.9C311.8,113.6,319.7,109.9,319.3,107.9C319.2,107.7,319.4,108.3,319.3,107.9z M323.2,117.4
	c0.9-4.5-4.8-0.9-5.7-0.1C315.7,119,322.2,119.6,323.2,117.4C323.3,116.7,323,117.7,323.2,117.4z M318.5,113.8c2.4-1,3-3.6-0.3-1.9
	C314.2,114.1,313.7,116.1,318.5,113.8C318.6,113.8,317.1,114.5,318.5,113.8z M322.6,125.7c0.5-0.1,3.3-1.5,1.2-2.1
	C321.5,122.9,320.6,126.2,322.6,125.7C323,125.7,322.1,125.8,322.6,125.7z M324.5,132.4c-0.1-0.4-0.2-0.7-0.4-1.1
	C323.3,130.9,323.8,134.1,324.5,132.4C324.7,131.9,324.5,132.6,324.5,132.4z M323.9,128.1c0.5-0.2,0.5-0.4,0.1-0.7
	C323.6,127.6,323.5,127.9,323.9,128.1C324.4,128,323.8,128,323.9,128.1z M311.4,108.6C311.3,109,311.3,109,311.4,108.6L311.4,108.6z
	"/>
<path fill-rule="evenodd" clip-rule="evenodd" d="M294.4,232.3c-2.3-0.1-7.4,0.7-9.4-0.6c-4.2-2.8,0.4-3.6,2.8-3.6
	c6.6,0,11.2,3.1,16.9,5.9c6.4,3.1,7.2,10.8,7.4,16.9c0.2,6.9-6.8,11.3-10.9,15.5c-2.5,2.5-10.7,6.1-14.3,6.1c-2.9,0-2.1-2.1-0.1-2.6
	c2.9-0.8,6.4-2.3,9-3.7c6-3.3,11.5-11.4,11.3-18.3C306.9,239.7,301.5,235.2,294.4,232.3C291.6,232.1,294.9,232.5,294.4,232.3z"/>
<path fill-rule="evenodd" clip-rule="evenodd" d="M89.4,103c0.6,3.9,0.5,14.5-3.2,17.3c-1.9-2.6,1.6-8.5,1.8-11.4
	c0.2-2.9-3.6-7,0.3-7.1C88.2,101.4,89.7,103.6,89.4,103z"/>
<path fill-rule="evenodd" clip-rule="evenodd" d="M298.7,252.1c-1.1-1.9-0.8-4.4-1.4-6.5c-0.3-0.9-4.2-5.6-3.2-5.9
	C299.5,237.8,300.1,249.7,298.7,252.1C298.5,251.8,298.9,251.8,298.7,252.1z"/>
<path fill-rule="evenodd" clip-rule="evenodd" d="M293.9,217.1c2.5-0.6,8.3,6.8,7.3,6.9C299.9,224.1,293.3,218,293.9,217.1
	C294.3,217,293.8,217.3,293.9,217.1z"/>
<path fill-rule="evenodd" clip-rule="evenodd" d="M292.9,250.9c-5.4-11.8,6.5,2.6,0.7,4.8C292.5,254.8,292.9,252.1,292.9,250.9
	C292.3,249.5,292.9,252.1,292.9,250.9z"/>
<path fill-rule="evenodd" clip-rule="evenodd" d="M350.9,325.3c0.2,3.2-3,2.9-4.3,0.8C345.3,324.1,350.3,324.1,350.9,325.3
	C350.9,325.5,350.7,325,350.9,325.3z"/>
<path fill-rule="evenodd" clip-rule="evenodd" d="M206.5,340.3C202.9,342.3,203,331.2,206.5,340.3
	C206.2,340.4,206.1,339.3,206.5,340.3z"/>
<path fill-rule="evenodd" clip-rule="evenodd" d="M298.2,214.3c-0.7,0-7.2-2.1-5.9-3.3C293.6,209.7,297.8,213.3,298.2,214.3z"/>
<path fill-rule="evenodd" clip-rule="evenodd" d="M117,333.4c-1,1.8-4.1-2.1-3-3.5C115.5,328.1,117,332.6,117,333.4
	C116.9,333.5,117,333.2,117,333.4z"/>
<path fill-rule="evenodd" clip-rule="evenodd" d="M309.4,318.3c0,1.9-3.8-0.5-3.4-2.3C306.5,314.1,309.2,317.6,309.4,318.3
	C309.4,318.7,309.3,318.1,309.4,318.3z"/>
<path fill-rule="evenodd" clip-rule="evenodd" d="M299.4,313.4c0.8-1.1,3.4-1.7,2.2,0.3C300.6,315.6,297.6,316.1,299.4,313.4
	C299.6,313.3,299.1,313.9,299.4,313.4z"/>
<path fill-rule="evenodd" clip-rule="evenodd" d="M218.9,337.7c-2.1-1.2-0.7-3.2,1.2-2.9C221.8,335.2,220,337.6,218.9,337.7
	C218.3,337.4,219,337.7,218.9,337.7z"/>
<path fill-rule="evenodd" clip-rule="evenodd" d="M64.1,335.8c0.8-0.1,1.5,0.1,2.1,0.6C66.6,339.8,58.8,336.1,64.1,335.8
	C64.5,335.8,63.7,335.8,64.1,335.8z"/>
<path fill-rule="evenodd" clip-rule="evenodd" d="M70.4,339.5c-0.5,2.3-2.4-1.4-2.3-2.4C68.4,335.1,70.5,338.3,70.4,339.5
	C70.3,340,70.4,339.3,70.4,339.5z"/>
<path fill-rule="evenodd" clip-rule="evenodd" d="M172.8,339.5c0.1,2.2-2.8,0.9-2.3-1.7C170.9,335.7,172.7,338.6,172.8,339.5
	C172.8,340.3,172.8,339.1,172.8,339.5z"/>
<path fill-rule="evenodd" clip-rule="evenodd" d="M303.2,218.1c-1.6,0.1-4.3-2.9-5.2-3.7C300.7,214.2,303.3,215.7,303.2,218.1z"/>
<path fill-rule="evenodd" clip-rule="evenodd" d="M233.6,336.9c-0.2,0.3-0.4,0.5-0.6,0.8C229.7,337.9,234.3,328.3,233.6,336.9
	C233.5,337.4,233.7,335.9,233.6,336.9z"/>
<path fill-rule="evenodd" clip-rule="evenodd" d="M327.1,322.8c-0.1,0.4-0.3,0.7-0.4,1.1C323.9,325.4,326.4,317.1,327.1,322.8
	C327.2,323.2,327,322.4,327.1,322.8z"/>
<path fill-rule="evenodd" clip-rule="evenodd" d="M346.8,318.1c-0.8-1.3,1.6-1.3,1.8-0.4c0.2,0.7-1,4.2-2,2.5
	C346.1,319.5,347.2,318.9,346.8,318.1C346.5,317.6,346.9,318.3,346.8,318.1z"/>
<path fill-rule="evenodd" clip-rule="evenodd" d="M297.8,322.5C295.6,327.5,294,317.3,297.8,322.5
	C297.5,323.1,297.5,322.2,297.8,322.5z"/>
<path fill-rule="evenodd" clip-rule="evenodd" d="M308.9,326.3C305.4,329.2,306.1,321.3,308.9,326.3
	C308.8,326.4,308.8,326.1,308.9,326.3z"/>
<path fill-rule="evenodd" clip-rule="evenodd" d="M121.1,337.2c2.1-0.4,0.7,2.1-0.7,2.3C118.1,339.8,119.7,337.3,121.1,337.2
	C121.5,337.1,120.2,337.3,121.1,337.2z"/>
<path fill-rule="evenodd" clip-rule="evenodd" d="M84.9,332c0.6,0.2,2.4,0.7,1.5,1.8C85.3,335.1,82.6,332.4,84.9,332
	C85.3,332.1,84.7,332,84.9,332z"/>
<path fill-rule="evenodd" clip-rule="evenodd" d="M342.3,316.6C343.2,322.7,334.8,313.8,342.3,316.6
	C342.3,317.1,342.3,316.6,342.3,316.6z"/>
<path fill-rule="evenodd" clip-rule="evenodd" d="M334.5,320.5c2.2,0,0.6,2.5-0.5,2.3C332.1,322.5,332.9,320.6,334.5,320.5
	C334.9,320.5,334.1,320.6,334.5,320.5z"/>
<path fill-rule="evenodd" clip-rule="evenodd" d="M344.6,324.8c-0.3,1.2-1.8,0.5-1.9-0.4C342.5,322.9,345,323.3,344.6,324.8
	C344.5,325.1,344.8,324.3,344.6,324.8z"/>
<path fill-rule="evenodd" clip-rule="evenodd" d="M332,325.9c-0.4,0.8-1.4,1.2-1.9,0.2C329.2,324.2,332.3,324.2,332,325.9
	C331.9,326,332,325.4,332,325.9z"/>
<path fill-rule="evenodd" clip-rule="evenodd" d="M52.7,329.6c-0.1,1.4-2.3,1.2-2.1-0.2C50.8,328,52.9,328.2,52.7,329.6
	C52.7,330.4,52.8,328.9,52.7,329.6z"/>
<path fill-rule="evenodd" clip-rule="evenodd" d="M136.7,330.3c-0.7,0.5-3.2,0.2-2.6-1.2C134.6,328.1,136.8,329.6,136.7,330.3
	C135.9,330.9,136.7,330.1,136.7,330.3z"/>
<path fill-rule="evenodd" clip-rule="evenodd" d="M313,331c-0.4,1.2-1.9,0.5-2-0.4C310.9,329,313.3,329.8,313,331
	C312.9,331.4,313.2,330.5,313,331z"/>
<path fill-rule="evenodd" clip-rule="evenodd" d="M175.2,333.4c-0.1,1.3-1.7,0.9-1.9,0C173,332,175.5,331.9,175.2,333.4
	C175.2,333.8,175.4,332.7,175.2,333.4z"/>
<path fill-rule="evenodd" clip-rule="evenodd" d="M330.3,335.3c-1.2,1.1-3.3-1.2-2.3-1.6C329,333.1,330.3,334.2,330.3,335.3
	C330.1,335.5,330.3,335.1,330.3,335.3z"/>
<path fill-rule="evenodd" clip-rule="evenodd" d="M179.7,335c0.9-0.1,2.3,1.5,1.8,2.4C180.9,338.4,178.7,336.2,179.7,335
	C180.3,335,179.6,335.2,179.7,335z"/>
<path fill-rule="evenodd" clip-rule="evenodd" d="M126.4,336c1,0.2,0.9,1.6,0,1.9C124.7,338.5,124.7,335.6,126.4,336
	C127,336.1,125.8,335.8,126.4,336z"/>
<path fill-rule="evenodd" clip-rule="evenodd" d="M228.8,341.7c-1,0.1-3.6-1.8-1.6-2C228.1,339.6,230,341,228.8,341.7
	C227.9,341.8,229,341.6,228.8,341.7z"/>
<path fill-rule="evenodd" clip-rule="evenodd" d="M223.7,341.1c1.6,0.2,1,2.1-0.4,2.1C221.5,343,222.6,341.1,223.7,341.1
	C224.5,341.1,223.5,341.1,223.7,341.1z"/>
<path fill-rule="evenodd" clip-rule="evenodd" d="M239.5,342.7c0,1-2.7,2.8-2.8,1.1C236.6,342.6,238.8,342.1,239.5,342.7
	C239.5,343.6,239.4,342.6,239.5,342.7z"/>
<path fill-rule="evenodd" clip-rule="evenodd" d="M71.1,346.7C66.3,350.1,69.5,341.2,71.1,346.7C71,346.8,71.1,346.5,71.1,346.7z"/>
<path fill-rule="evenodd" clip-rule="evenodd" d="M316.1,324.5c0.9,0.3,1.1,0.9,0.5,1.7c-0.3,0.2-1.8-0.9-1.5-1.3
	C315.4,324.8,315.8,324.6,316.1,324.5C316.5,324.6,315.7,324.4,316.1,324.5z"/>
<path fill-rule="evenodd" clip-rule="evenodd" d="M322.6,326.6c-1.3-0.1-1.8-0.7-1.4-1.8C321.8,324.1,323.8,325.8,322.6,326.6
	C321.9,326.7,322.7,326.5,322.6,326.6z"/>
<path fill-rule="evenodd" clip-rule="evenodd" d="M106.1,325.9c0.6,0.2,1.4,1.6,0.4,1.7C105.7,327.8,104.5,325.7,106.1,325.9
	C106.3,326,105.6,325.9,106.1,325.9z"/>
<path fill-rule="evenodd" clip-rule="evenodd" d="M125,328.1c-0.8,0.2-1.5,0.1-2.2-0.5c0.2-1.1,0.8-1.6,1.8-1.4
	C124.8,326.4,125,328.6,125,328.1z"/>
<path fill-rule="evenodd" clip-rule="evenodd" d="M65,328.8c-1.1,1.4-2.7-0.9-1.6-1.4C64.3,327.1,64.9,328.3,65,328.8
	C64.7,329.2,65,328.6,65,328.8z"/>
<path fill-rule="evenodd" clip-rule="evenodd" d="M328,327.5C331.6,329.7,325.6,328.9,328,327.5C328.3,327.7,327.9,327.5,328,327.5z
	"/>
<path fill-rule="evenodd" clip-rule="evenodd" d="M58.7,331.9c-0.6,0.1-1.2-0.1-1.5-0.6c0,0,3.2-1.3,2.5,0.1
	C59.4,331.8,59.1,331.9,58.7,331.9C57.9,331.9,58.9,331.9,58.7,331.9z"/>
<path fill-rule="evenodd" clip-rule="evenodd" d="M180.7,331c0.6,0,1.4,1.6,0.5,1.7C180.3,332.9,179.2,331.2,180.7,331
	C181.1,331,180.5,331,180.7,331z"/>
<path fill-rule="evenodd" clip-rule="evenodd" d="M107.1,332.8c0.2,1-0.8,2-1.5,0.7C104.7,332,106.9,331.5,107.1,332.8
	C107.2,333.3,107,332.3,107.1,332.8z"/>
<path fill-rule="evenodd" clip-rule="evenodd" d="M128.9,332.3c0.6,0.2,1.4,1.6,0.4,1.7C128.5,334.1,127.3,332,128.9,332.3
	C129.1,332.3,128.4,332.2,128.9,332.3z"/>
<path fill-rule="evenodd" clip-rule="evenodd" d="M323.2,332.2c1.1-0.1,1.8,1.6,0.8,1.8C323.2,334.1,322.2,332.7,323.2,332.2
	C323.9,332.1,323,332.3,323.2,332.2z"/>
<path fill-rule="evenodd" clip-rule="evenodd" d="M160.5,336.1c-0.2-1.3,1.8-1.9,1.9-1.1C162.4,335.9,161.2,337.1,160.5,336.1
	C160.4,335.6,160.6,336.2,160.5,336.1z"/>
<path fill-rule="evenodd" clip-rule="evenodd" d="M346.3,305.7c-0.4-2,2.3-0.8,1.9,0.4C347.9,307.3,346.5,306.2,346.3,305.7
	C346.2,305.3,346.4,305.9,346.3,305.7z"/>
<path fill-rule="evenodd" clip-rule="evenodd" d="M227,336.5C223.7,338.6,226,332.4,227,336.5C226.8,336.6,226.9,336.3,227,336.5z"
	/>
<path fill-rule="evenodd" clip-rule="evenodd" d="M335.5,307.4c-1.3,1.1-2.6-1.1-1.4-1.7C334.7,305.4,335.4,306.9,335.5,307.4
	C335.1,307.7,335.5,307.2,335.5,307.4z"/>
<path fill-rule="evenodd" clip-rule="evenodd" d="M315.3,309.8c-1.3-0.5-0.5-2.9-0.1-2.6C315.8,307.5,316.3,309.5,315.3,309.8
	C315.2,309.7,315.7,309.7,315.3,309.8z"/>
<path fill-rule="evenodd" clip-rule="evenodd" d="M135.2,337.1c-0.7,0-1.1-0.3-1-0.9c0.4-0.7,2.4-0.7,2.7,0.1
	C136.7,337.2,136.1,337.4,135.2,337.1C134.4,337,135.6,337.1,135.2,337.1z"/>
<path fill-rule="evenodd" clip-rule="evenodd" d="M331.1,313.4c-0.2-1.1,0.6-1.5,1.4-0.6C334,314.4,331.5,314.7,331.1,313.4
	C331,312.9,331.2,314,331.1,313.4z"/>
<path fill-rule="evenodd" clip-rule="evenodd" d="M347.2,312.4c0,0,2.7,1.7,0.5,1.8C346.4,314.2,346.2,312.1,347.2,312.4
	C347.5,312.6,346.8,312.3,347.2,312.4z"/>
<path fill-rule="evenodd" clip-rule="evenodd" d="M102.1,340.9C105.9,339.1,103.5,343.4,102.1,340.9
	C102.6,340.6,102.1,340.9,102.1,340.9z"/>
<path fill-rule="evenodd" clip-rule="evenodd" d="M316.8,315.7c-0.3,1.4-1.8,0-1.8-0.6C315,314.2,317.1,314.4,316.8,315.7
	C316.7,316.3,316.9,315.2,316.8,315.7z"/>
<path fill-rule="evenodd" clip-rule="evenodd" d="M160.4,342.2c-0.2-0.7,0-1.4,0.4-1.9C162.4,339.5,162,342.2,160.4,342.2z"/>
<path fill-rule="evenodd" clip-rule="evenodd" d="M320.3,317.2c-0.5,0.8-2,0.4-1.6-0.8C319.6,316,320.1,316.3,320.3,317.2
	C320.3,317.4,320.3,316.8,320.3,317.2z"/>
<path fill-rule="evenodd" clip-rule="evenodd" d="M73.8,342.9c-1.4-0.9,0.2-2.7,1.2-1.7C75.2,342.1,74.8,342.7,73.8,342.9
	C73.7,342.8,74.3,342.9,73.8,342.9z"/>
<path fill-rule="evenodd" clip-rule="evenodd" d="M160.2,342C159.2,344.8,156.9,340.4,160.2,342C159.9,342.9,160.2,342,160.2,342z"
	/>
<path fill-rule="evenodd" clip-rule="evenodd" d="M233,343.7C232,346.9,230.5,339.4,233,343.7C232.9,343.8,232.9,343.5,233,343.7z"
	/>
<path fill-rule="evenodd" clip-rule="evenodd" d="M89,345.3c-0.5,0.7-3.2,0.7-2.6-0.2C87,344.2,88.3,344.7,89,345.3
	C88.7,345.6,88.8,345.1,89,345.3z"/>
<path fill-rule="evenodd" clip-rule="evenodd" d="M113.8,345.8c-0.3-0.2-0.7-0.4-1-0.6c0.6-0.9,2.1-0.8,2.7,0.1
	C115,345.7,114.4,345.9,113.8,345.8C113.3,345.7,113.9,345.8,113.8,345.8z"/>
<path fill-rule="evenodd" clip-rule="evenodd" d="M210.5,344.8c0.4,0.1,0.7,0.2,1.1,0.4C212.8,347.6,207.1,345.4,210.5,344.8
	C210.9,344.7,209.8,344.9,210.5,344.8z"/>
<path fill-rule="evenodd" clip-rule="evenodd" d="M342.4,316.9C343.7,313.9,345.6,318.9,342.4,316.9
	C342.8,315.9,342.4,316.9,342.4,316.9z"/>
<path fill-rule="evenodd" clip-rule="evenodd" d="M331.8,317.3C336.6,319.4,327.7,318.7,331.8,317.3
	C332.2,317.5,331.7,317.4,331.8,317.3z"/>
<path fill-rule="evenodd" clip-rule="evenodd" d="M353.6,319.4c0.2,1.1-1.6,1.7-2,0.7C351.1,319.3,353.2,317.6,353.6,319.4
	C353.7,320.2,353.4,318.6,353.6,319.4z"/>
<path fill-rule="evenodd" clip-rule="evenodd" d="M306.6,321.3C303.8,323.3,305.1,317.4,306.6,321.3
	C306.4,321.4,306.5,321.1,306.6,321.3z"/>
<path fill-rule="evenodd" clip-rule="evenodd" d="M114.2,324.9c-0.1,0.9-0.6,1.3-1.4,1.4C111.7,326,113.1,323.5,114.2,324.9
	C114.4,325.5,114,324.6,114.2,324.9z"/>
<path fill-rule="evenodd" clip-rule="evenodd" d="M64,343.3c-0.3-0.2-0.6-0.4-0.9-0.6c-0.3-0.7,2.2-0.6,1.9,0
	C64.7,342.9,64.3,343.1,64,343.3C63.6,343.3,64.4,343.3,64,343.3z"/>
<path fill-rule="evenodd" clip-rule="evenodd" d="M181.5,344.7c0.3,0.1,0.7,0.3,1,0.4c0.3,0.6-1.2,1.2-1.6,0.3
	C181.1,345.2,181.3,345,181.5,344.7C181.9,344.6,181,344.9,181.5,344.7z"/>
<path fill-rule="evenodd" clip-rule="evenodd" d="M206.6,345.1c0.7,0.8,0.6,1.3-0.4,1.6C205.5,345.9,205.6,345.4,206.6,345.1
	C207,345.3,206.2,345,206.6,345.1z"/>
<path fill-rule="evenodd" clip-rule="evenodd" d="M177.4,346.2c0.3,0.3,0.9,1.8,0,1.8C176.4,347.9,177,346.4,177.4,346.2
	C177.5,346.3,177.2,346.3,177.4,346.2z"/>
<path fill-rule="evenodd" clip-rule="evenodd" d="M160.9,347.4c0.4,0.3,0.9,1.9-0.1,1.8C160,349.1,160.5,347.7,160.9,347.4
	C161.1,347.5,160.8,347.5,160.9,347.4z"/>
<path fill-rule="evenodd" clip-rule="evenodd" d="M220.3,347.9c-0.4-0.6,1.6-0.8,1.5,0C221.4,348.5,220.9,348.5,220.3,347.9
	C220.3,347.8,220.5,348.3,220.3,347.9z"/>
<path fill-rule="evenodd" clip-rule="evenodd" d="M239.4,349c-0.4,0.5-0.9,0.5-1.5-0.1C238.3,348.3,238.8,348.4,239.4,349
	C239.3,349.1,239.2,348.6,239.4,349z"/>
<path fill-rule="evenodd" clip-rule="evenodd" d="M303.1,218.2c1.1-0.1,1.9,1.4,0.8,2.1C303.3,220,303.1,218.1,303.1,218.2z"/>
<path fill-rule="evenodd" clip-rule="evenodd" d="M309.1,310.1c-1.3-0.2-0.5-1.9,0-1.5C309.6,309.2,309.6,309.7,309.1,310.1
	C308.9,310.1,309.2,310,309.1,310.1z"/>
<path fill-rule="evenodd" clip-rule="evenodd" d="M332.1,309.4c-0.6,1.6-1.4-1.3-0.4-1C332.1,308.7,332.2,309,332.1,309.4
	C332,309.6,332.2,309.3,332.1,309.4z"/>
<path fill-rule="evenodd" clip-rule="evenodd" d="M352.1,312.1c0.5,1-1.8,1.1-1.8,0.2C350.2,311.4,351.7,311.7,352.1,312.1
	C352.2,312.4,351.9,312,352.1,312.1z"/>
<path fill-rule="evenodd" clip-rule="evenodd" d="M301.8,325.7c-0.2,0.2-0.4,0.4-0.6,0.7c-0.6-0.4-0.5-0.9,0.1-1.5
	C301.6,325,301.8,325.3,301.8,325.7C301.8,326.2,301.8,325.5,301.8,325.7z"/>
<path fill-rule="evenodd" clip-rule="evenodd" d="M83,327.4c-0.9,1-1.5-0.9-0.6-1.2C83,326,83,327.2,83,327.4
	C82.9,327.5,83,327.2,83,327.4z"/>
<path fill-rule="evenodd" clip-rule="evenodd" d="M336.2,328.3c0-1.6,2.3-1.1,2.1-0.6C338.1,328.1,335.6,328.4,336.2,328.3z"/>
<path fill-rule="evenodd" clip-rule="evenodd" d="M124.8,328.2c0.6,0.2,2.1,1.4,0.9,2C124.5,330.8,124.9,327.5,124.8,328.2z"/>
<path fill-rule="evenodd" clip-rule="evenodd" d="M225.9,329.8c-0.3,1.8-1.6-1.6-0.5-1C225.6,329.1,225.8,329.5,225.9,329.8
	C225.9,330,226,329.4,225.9,329.8z"/>
<path fill-rule="evenodd" clip-rule="evenodd" d="M336,328.1c-0.2,0.8-2.1,1.9-2,0.7C334,327.8,336.8,328,336,328.1z"/>
<path fill-rule="evenodd" clip-rule="evenodd" d="M346.2,329.3c-0.8,0.3-1.6,0.1-2.3-0.5C343.3,327.5,346.9,329.7,346.2,329.3z"/>
<path fill-rule="evenodd" clip-rule="evenodd" d="M343.2,331.3c-0.6,0.8-1.2,0.7-1.8,0C341.9,330.3,342.7,330.8,343.2,331.3
	C342.9,331.7,343,331.2,343.2,331.3z"/>
<path fill-rule="evenodd" clip-rule="evenodd" d="M63.5,332.7c0.3-0.6,1.7-0.7,1.5,0C64.8,333.6,63.9,333,63.5,332.7
	C63.6,332.5,63.7,332.8,63.5,332.7z"/>
<path fill-rule="evenodd" clip-rule="evenodd" d="M168.5,333.6c0.6,0.7-1.5,1-1.4,0.1C167.4,333.2,167.8,333.2,168.5,333.6
	C168.5,333.7,168.2,333.3,168.5,333.6z"/>
<path fill-rule="evenodd" clip-rule="evenodd" d="M201.4,333.8c-0.5,0.6-1,0.7-1.5,0.2C199.1,333,201.2,333.6,201.4,333.8
	C201.2,334.2,201.2,333.6,201.4,333.8z"/>
<path fill-rule="evenodd" clip-rule="evenodd" d="M337,334.3c-1.3-0.4,0.8-1.7,1-0.4C337.7,334.3,337.4,334.4,337,334.3
	C336.8,334.2,337.1,334.3,337,334.3z"/>
<path fill-rule="evenodd" clip-rule="evenodd" d="M47.9,335.9c0.2,0.2,0.4,0.4,0.6,0.6c-0.4,0.5-0.9,0.5-1.5-0.1
	C47.2,336,47.5,335.8,47.9,335.9C48.4,335.9,47.7,335.9,47.9,335.9z"/>
<path fill-rule="evenodd" clip-rule="evenodd" d="M102,337.2c0,0.4-0.2,0.7-0.6,0.7c-0.7-0.6-0.7-1.1,0.1-1.7
	C101.8,336.5,101.9,336.9,102,337.2C102,337.6,101.9,337.1,102,337.2z"/>
<path fill-rule="evenodd" clip-rule="evenodd" d="M78.4,337.5c0.7-0.6,1.3-0.5,1.7,0.3C79.4,338.5,78.8,338.4,78.4,337.5
	C78.7,337.1,78.5,337.8,78.4,337.5z"/>
<path fill-rule="evenodd" clip-rule="evenodd" d="M92.6,337.9c-0.7,0.6-1.2,0.5-1.4-0.4C91.5,336.8,92.5,337.2,92.6,337.9
	C92.4,338.2,92.6,337.8,92.6,337.9z"/>
<path fill-rule="evenodd" clip-rule="evenodd" d="M109.4,337.7c-0.7,0.7-1.3,0.7-2,0C108.1,336.8,108.8,337.2,109.4,337.7
	C109.1,338.1,109.2,337.6,109.4,337.7z"/>
<path fill-rule="evenodd" clip-rule="evenodd" d="M87.6,338.7c0.6,0.8-1.6,1-1.6,0.2C86.4,338.3,87,338.2,87.6,338.7
	C87.7,338.7,87.3,338.3,87.6,338.7z"/>
<path fill-rule="evenodd" clip-rule="evenodd" d="M199,339.1c-0.4,0.5-0.9,0.5-1.5,0.1C197,338.6,198.7,337.9,199,339.1
	C198.9,339.2,199,339,199,339.1z"/>
<path fill-rule="evenodd" clip-rule="evenodd" d="M241.9,338.8c-0.3,0.7-1.8,0.6-1.5,0C240.8,338.3,241.3,338.3,241.9,338.8
	C241.9,339,241.7,338.5,241.9,338.8z"/>
<path fill-rule="evenodd" clip-rule="evenodd" d="M56,340c-0.2,0.5-1.5,1.1-1.6,0.2C54.3,339.3,55.7,339.7,56,340
	C56,340.2,55.9,339.9,56,340z"/>
<path fill-rule="evenodd" clip-rule="evenodd" d="M113.3,340.6c-0.4,0-0.7-0.2-0.8-0.5c0.6-0.7,1.2-0.6,1.7,0.1
	C113.9,340.3,113.6,340.4,113.3,340.6C112.9,340.6,113.7,340.6,113.3,340.6z"/>
<path fill-rule="evenodd" clip-rule="evenodd" d="M128.6,340.5c-0.2,0.3-0.3,0.7-0.5,1c-0.6,0.4-1.2-1.2-0.3-1.5
	C128.1,340.2,128.4,340.3,128.6,340.5C128.7,341,128.5,340.1,128.6,340.5z"/>
<path fill-rule="evenodd" clip-rule="evenodd" d="M180.3,341.1c-0.6,1.7-1.3-1.5-0.4-1C180.1,340.4,180.2,340.8,180.3,341.1
	C180.3,341.3,180.5,340.7,180.3,341.1z"/>
<path fill-rule="evenodd" clip-rule="evenodd" d="M313.7,320.9c0.6-0.1,0.6,0.1,0.2,0.8C313.5,321.4,313.4,321.2,313.7,320.9
	C313.8,320.9,313.6,321,313.7,320.9z"/>
<path fill-rule="evenodd" clip-rule="evenodd" d="M341.7,321.6c-0.5-0.3-0.5-0.6,0-0.8C342.3,321,342.3,321.3,341.7,321.6
	C341.5,321.4,341.8,321.4,341.7,321.6z"/>
<path fill-rule="evenodd" clip-rule="evenodd" d="M90.4,327.5c-0.3,0.5-0.5,0.4-0.7,0C90,327,90.2,327,90.4,327.5
	C90.3,327.6,90.3,327.3,90.4,327.5z"/>
<path fill-rule="evenodd" clip-rule="evenodd" d="M346.1,329.5c0.3,0.2,0.7,0.4,1,0.5c-0.1,0.2-0.2,0.3-0.4,0.3
	C346.6,329.3,346.4,329,346.1,329.5z"/>
<path fill-rule="evenodd" clip-rule="evenodd" d="M197.4,331.1c0.5-0.1,0.6,0.1,0.2,0.8C197.2,331.6,197.1,331.4,197.4,331.1
	C197.5,331.1,197.3,331.2,197.4,331.1z"/>
<path fill-rule="evenodd" clip-rule="evenodd" d="M206.9,331.3c-0.1,0.5-0.4,0.5-0.8,0C206.4,330.7,206.6,330.7,206.9,331.3
	C206.8,331.4,206.8,331.1,206.9,331.3z"/>
<path fill-rule="evenodd" clip-rule="evenodd" d="M316.6,331C316.5,331.6,316.5,331.5,316.6,331L316.6,331z"/>
<path fill-rule="evenodd" clip-rule="evenodd" d="M45.9,332.8C46,332.3,46,332.3,45.9,332.8L45.9,332.8z"/>
<path fill-rule="evenodd" clip-rule="evenodd" d="M55,332.5c0.1,0.5-0.2,0.5-0.7,0.1C54.5,332.3,54.7,332.2,55,332.5
	C55,332.6,54.9,332.4,55,332.5z"/>
<path fill-rule="evenodd" clip-rule="evenodd" d="M44.6,338c-0.5-0.1-0.5-0.4,0-0.8C45.2,337.5,45.2,337.7,44.6,338
	C44.5,337.9,44.8,337.9,44.6,338z"/>
<path fill-rule="evenodd" clip-rule="evenodd" d="M92.8,340c0.1,0.5-0.1,0.6-0.7,0.2C92.3,339.8,92.6,339.7,92.8,340
	C92.8,340.1,92.7,339.9,92.8,340z"/>
<path fill-rule="evenodd" clip-rule="evenodd" d="M102.2,340.7c-1-0.1-1.2-0.4-0.6-0.8C101.7,340.9,101.9,341.2,102.2,340.7z"/>
<path fill-rule="evenodd" clip-rule="evenodd" d="M193.8,339.8c0.6,0.3,0.6,0.5,0,0.8C193.3,340.4,193.3,340.1,193.8,339.8
	C194,340,193.3,340.1,193.8,339.8z"/>
<path fill-rule="evenodd" clip-rule="evenodd" d="M200.6,341.6c-0.3,0.4-0.5,0.4-0.7-0.1C200.1,341,200.4,341,200.6,341.6
	C200.4,341.7,200.4,341,200.6,341.6z"/>
<path fill-rule="evenodd" clip-rule="evenodd" d="M172,342.6C172.6,342.7,172.5,342.7,172,342.6L172,342.6z"/>
<path fill-rule="evenodd" clip-rule="evenodd" d="M165.6,344C166.2,344,166.2,344,165.6,344L165.6,344z"/>
<path fill-rule="evenodd" clip-rule="evenodd" d="M216.9,344c-0.3,0.5-0.6,0.4-0.8-0.1C216.4,343.5,216.6,343.5,216.9,344
	C216.7,344.1,216.8,343.9,216.9,344z"/>
<path fill-rule="evenodd" clip-rule="evenodd" d="M61,344.8c0.5,0.3,0.5,0.6-0.1,0.8C60.4,345.2,60.4,345,61,344.8
	C61.2,344.9,60.9,344.9,61,344.8z"/>
<path fill-rule="evenodd" clip-rule="evenodd" d="M79.8,344.9c0.6-0.1,0.6,0.1,0.2,0.8C79.5,345.5,79.5,345.2,79.8,344.9
	C79.9,344.9,79.7,345,79.8,344.9z"/>
<path fill-rule="evenodd" clip-rule="evenodd" d="M197.5,345C197.5,345.6,197.5,345.6,197.5,345L197.5,345z"/>
<path fill-rule="evenodd" clip-rule="evenodd" d="M191.6,346.5c-0.3,0.5-0.6,0.4-0.8,0C191.1,346,191.4,346,191.6,346.5
	C191.5,346.6,191.5,346.4,191.6,346.5z"/>
<path fill-rule="evenodd" clip-rule="evenodd" fill="none" d="M241.1,187.7c3.5,6.7,11.3,14.8,11.4,22.9c0,3.6-0.9,7.1-1,10.6
	c0,1.2-3.9,10.9-3.2,10.8c3.3-0.5,3-7.5,5.9-7.5c4.7,0,6.5,3.8,9.6,6.8c5.1,5.1,6.3,14.3,6.3,21.3c-3,6.3-1.9,13.3-8.4,17.9
	c-4.4,3.1-5,1.8-5.5-2.8c-0.1-1-1.7-2.1-2.1-0.7c-0.7,2.5-0.1,5.7-0.1,8.3c-0.1,7-3.3,14-8.4,18.8c-3.1,2.9-6.4,5.5-10.2,7.3
	c-3,1.4,0.5-3.9,0.1-3.3c1.5-2.8,2.7-5.8,4.2-8.6c4-14.6,5.5-33.4-2.9-47c-3.3-5.4-10.8-15.7-17.5-16.8c-3-0.5-6.9-1.6-9.5-3.1
	c-3.3-1.9-8.1-1.3-11.6-2.5c-6.7-2.4-15.1-0.1-21.9,0.9c-3.7,2.4-7.7,4.2-11.3,6.7c-3.6,2.5-5.7,5.8-8.6,9.1
	c-5.4,5.8-9.4,13.7-12.7,20.9c-1.5,3.3-3.1,7.5-3.6,11.1c-0.5,3.3-3.1,9.5-1.8,12.6c0.8,1.9-0.4,5.3-0.4,7.4
	c0.1,2.6,1.8,5.3,2.1,7.8c0.3,2.3,2.4,4.9-1.4,5c-4.6,0.1-6.9-2-10.7-4.5c-4-5.6-4.7-9.9-4.6-16.8c0.1-3.9,0.6-7.1,1.6-10.8
	c0.8-2.6,4.8-3.6,6.5-5.5c3.2-3.5-9.7-3.4-11.7-4.2c-6-2.3-8.3-10.1-11.2-15.1c-1.3-7.6-1.9-13,4.6-18.7c0.9-1.9,15.4-11,15.9-10.1
	c-0.8-0.6-1.6-0.9-2.6-0.9c-2.4-1.1-2.3-1.6-3.3-3.8c-1.8-4.1-0.2-7,1.5-10.7c2-4.6,8.1-8.7,12.9-9.1c6-0.5,11.6-3.7,17.7-3.8
	c3.7-0.1,6.5,0.3,9.5,2.6c2.7,2,3.3,6.3,5.9,8.8c5.7,5.3,12.4,3.2,18.8,5.8c6.9,2.9,14.3,0.8,21.6,0.2c2.7-1.1,5.9-1.9,8.4-3.4
	c2.7-1.6,4.7-4,7.2-5.7C231.1,193.1,237,190.3,241.1,187.7z"/>
<path fill-rule="evenodd" clip-rule="evenodd" fill="none" d="M47.7,298.9c-3.8,0-7.6,0.1-10.2-3.2c-3.1-3.9,0.7-3.8,3.6-4.9
	c7.7-2.9,16-9.2,20.9-15.8c4.3-5.8,7.2-11.5,10.4-17.8c3.1-5.9-0.4-16.6-1.7-22.7c-1.5-7-5.8-15.6-9.8-21.6c-4-6-9-10.7-15.3-14.3
	c-5.8-3.4-14.5-1-20.8-0.9c-9.4,0.3-2.3-11.6,1.7-14.7c1.7-1.3,6.3,3.2,8.3,3.6c4,0.7,6.6,4.8,11.3,5.1c3.6,0.2,6.8,2.3,10.7,2.4
	c3.2,0.1,10.4-0.3,13.2-1.9c6.5-3.7,14.4-2.6,21-5.9c2-1,5.3-4.8,7.3-4.8c4.6,0,8.7,0.3,13.1,1.4c6.5,1.6,10.6,6.4,14.3,11.6
	c0.5,0.7-3.9,5.8-4.3,6.8c-1.5,3.3-2.7,7.8-2.8,11.4c-0.1,3.6,1.4,5-1.9,7c-3.1,1.8-6.5,5.5-8.4,8.5c-4.5,7.1-5.5,15.6-1.7,23.3
	c2.6,5.3,6.6,10.6,11.9,13.4c2.9,1.5,4.7,2.4,3.3,6c-1.5,3.7-1,8.7-1,12.7c0,3.1,0,5.6,1.2,8.4c1.8,4.1-0.3,4.3-4.1,4.6
	c-3,0.2-7,0.4-9.9-0.5c-1-0.3-6.5-4.6-6.8-4.1c-1.5,2,5.1,4.1,2.5,6c-3.4,2.4-7,2.5-10.4,4.2c-6.1,3-15.1-3-20.5-5.4
	c-2.9-1.3-4.8-3.4-6.9-5.7c-1.1-1.2-1.7-2.8-3-4c-2.1-1.9-0.3,2.5-0.3,2.5C67.4,297.1,52.3,297.4,47.7,298.9
	C46.4,298.9,49,298.4,47.7,298.9z"/>
<path fill-rule="evenodd" clip-rule="evenodd" fill="none" d="M198.3,222.2c3.2,1.5,6.8,1.6,10.2,2.5c2,0.6,4.1,1.9,6.2,2.3
	c6,1,11,7,14.9,11.1c2.6,5.2,7.4,8.3,7.8,14.7c0.4,7.1,3.9,16.7,0.6,23.7c-1.1,2.4-1.1,6.1-1.9,8.8c-0.8,2.7-2.1,5.4-3.3,7.9
	c-2.8,5.7-5.6,11.4-10.1,16.1c-10,10.3-23.1,11.1-36.2,11.7c-6.2,0.4-12.2,0.5-18.3-2.2c-5.8-2.5-10.1-4.7-14.7-9.3
	c-4.2-4.3-7.1-9.6-9.6-14.9c-2.9-6.3-3.5-15.2-0.5-21.7c1.1-2.4,1.1-6.5,1.8-9.2c0.8-3,2.7-5.8,3.5-8.8c1.5-6.1,5.6-12.1,9.9-16.5
	c4.5-4.7,10.1-8.1,14.9-12.5C179.5,220.2,190.9,222.2,198.3,222.2C199.6,222.8,194.1,222.2,198.3,222.2z M162.8,271.1
	c0,7-0.1,16.2,4.8,21.8c3.6,4.1,11.3,5.8,16.5,5.9c8.4,0.1,14-0.3,20.6-5.7c5.7-4.7,9.5-11.4,11.5-18.4c2-6.7-0.3-16.6-5.2-21.6
	c-5.1-5.2-13.2-8.2-20.3-8.4C174.4,244.2,162.2,253.9,162.8,271.1C162.8,274,162.7,270.5,162.8,271.1z M228.4,253.6
	c0.2,2.7,0.9,5.2,1.2,7.9c0.2,1.2-1.2,6-0.4,6.6c1.9,1.4,2-9.3,1.9-9.7c-0.1-4.2-1.5-7.9-3.3-11.6c-0.6-1.2-1.3-3.1-2.4-4
	c-0.9-0.7-2.4,0.1-1.7,1.2C225.8,247,227,250.2,228.4,253.6C228.5,254.9,227.8,252.3,228.4,253.6z M220.1,250.3
	c1,2.6,2.3,5.2,3.1,7.9c0.3,1.2-0.1,7.1,0.9,7.5C228.4,267.7,222.6,246.7,220.1,250.3C221,252.4,220.4,249.9,220.1,250.3z
	 M186.5,312.8c0.4,0.1,0.7-0.1,1-0.4C187.5,311.7,185.5,311.8,186.5,312.8C186.7,312.8,186.4,312.7,186.5,312.8z"/>
<path fill-rule="evenodd" clip-rule="evenodd" fill="none" d="M19.2,211c-3.2,3.1-6,6.5-9,9.7c-5.1,5.6-1.9-5.3-1.5-7.4
	c0.7-3.5,3.9-7.8,6.5-10.2c3.8-3.4,8.5-2.9,13.4-3c2.1,0,3.8,0.1,5.8-0.6c2.7-0.9,4.7,0.4,7.4,0.6c3.2,0.2,7.5,3.5,9.7,5.6
	c7.1,6.8,10.8,16.2,13.6,25.5c2.8,9.2,4,17.8,1.5,27.3c-2.1,8.1-6.8,13.7-12.1,20.1c-5.2,6.3-12.7,10.7-21,11.2
	c-5.7,0.4-18.2-5.7-19.3-11.9c0-0.2,8.6,1.7,9.5,1.8c5.3,0.4,9.8-1.2,13.6-5.2c5.9-6.4,9-18.3,9.1-26.8c0-5-0.8-9.6-1.1-14.5
	c-0.4-5.4-0.3-11.7-3.9-16.2C34.4,208.8,29.4,205.6,19.2,211C16.8,213.4,20.9,210.2,19.2,211z M61.4,242.5c0,0.9-1-4.4-1.1-5.2
	c-0.1-2.2-1.5-5.9-3.2-7.4c-2.1,1.6,1.7,6.8,1.8,8.7c0.3,4.1,0.8,9.2-0.8,13.1c-0.4,1-0.8,5.4,1.5,4C61,254.9,61.5,244.5,61.4,242.5
	C61.4,243.2,61.5,244.2,61.4,242.5z M55.4,245.7c-0.1-3.2-0.4-5.9-1.7-9c-0.3-0.6-2.1-0.9-1.8-0.1c0.7,1.9,0.7,3.6,1.1,5.5
	c0.6,3.6,0.6,5.6-0.1,9.1c-0.1,0.4-0.1,3,1.1,1.8C55.8,251.2,55.5,247.9,55.4,245.7C55.4,244.6,55.5,247.5,55.4,245.7z"/>
<path fill-rule="evenodd" clip-rule="evenodd" fill="none" d="M5.8,245.3c0.2-7.9,1.3-14.5,5.4-21.4c3.3-5.6,9.4-13.1,16.4-13.4
	c7-0.3,10.2,6.7,12.3,12.6c1.3,3.6,1.9,6.9,1.7,10.6c-0.1,2.1,0.4,8.3,1.4,10.2c2.2,4.5,0,14-2.1,18.3c-2,4.1-7.6,13.8-12.8,14.1
	c-7.6,0.5-13.2,0.6-16.9-7C7.2,261.1,6.1,254.5,5.8,245.3C5.9,242.8,5.9,248.7,5.8,245.3z M15.7,252.9c-4-4.9-4.4-10.6-3.2-16.9
	c0.7-3.3,2.1-6.4,3.8-9.3c1.7-2.9-1.1-2.7-2.2-0.7c-2.7,4.6-4.2,10.1-4.2,15.4c0,3.7,0.4,5.9,1.4,9.4
	C11.6,252,14.8,256.5,15.7,252.9C14.9,251.9,15.6,253.6,15.7,252.9z M16,241c0.1,2-0.2,4.7,0.5,6.6c0.3,1,2.3,1,1.9-0.5
	c-1.3-4.2-0.7-7.9,0.3-12c0-0.2,2.7-8.3,0.2-5C16.4,233.3,16.1,237.2,16,241C16,242.6,16,239.9,16,241z"/>
<path fill-rule="evenodd" clip-rule="evenodd" fill="none" d="M168.1,177.4c4.5-9.9,15.5-24.9,27.4-15.6c4.2,3.4,5.5,13,11.6,9.6
	c8.3-4.6,9.3,6.9,8.8,12.4c-1.2,12.4-16,17.9-26.4,17.7c-6.2-0.1-10.6-0.5-16-3.4C166.9,194.7,167.3,183.5,168.1,177.4
	C168.7,176.1,167.6,181,168.1,177.4z M196.8,175.6c-0.3-4.8-4.6-4.8-7.1-1.4C187.3,177.5,197.3,182.2,196.8,175.6
	C196.8,175.4,196.9,177.4,196.8,175.6z"/>
<path fill-rule="evenodd" clip-rule="evenodd" fill="none" d="M78.5,186.7c-12-0.4-23.9-7.2-23.4-20.5c0.1-1.7,2.2-5.6,4.1-6
	c0.7-0.1,6.2,2,6.1-0.2c-0.1-3.1-0.8-7.2,1.6-9.7c2-2.1,4.2-1,6.1-2.6c8.7-7.2,28,3.4,27.1,14.2c2.1,4.8-1,13.9-4.5,17.4
	C91,184.3,85,186.3,78.5,186.7C77.8,186.7,80.7,186.6,78.5,186.7z M68,171.5c2.9-0.2,6.2-5.9,2.3-6.4
	C65.8,164.7,62.7,170.7,68,171.5C68.4,171.5,67.5,171.5,68,171.5z"/>
<path fill-rule="evenodd" clip-rule="evenodd" fill="none" d="M209.6,137.4c5.7,2.6,13.4,4.9,16.3,11.1c2.1,4.5,0.1,3.3-3.7,4.2
	c-1.7,0.4-4.2,1-5.6,1.9c-1.3,0.2-2.4-1.3-3.5-0.9c-1.5,0.6,2.7,5.9,2.8,7c0.1,0.7,1.7,3.6,0.2,4c-2.2,0.6-4.4,1.5-6.4,2.6
	c-4.1,2.3-4.8,3.1-6.7-1.3c-1.4-3.3-2.3-6.7-4.9-9.3c-3.9-4-16.9,0.2-20.3,3.9c-7,7.6-6.8-2.9-4-7.7c3.8-6.6,8.7-12.3,16.2-14.9
	C197.3,135.4,202.4,136.8,209.6,137.4C211.1,138,208.7,137.3,209.6,137.4z M184.9,143.8c-2.4-0.3-6.5,9-4.8,9.7
	C181.4,154,185.8,144.5,184.9,143.8C184.3,143.7,185.1,143.9,184.9,143.8z M211.2,141.6c-0.7,0.2-1.1,0.6-1.2,1.3
	c0,0,7.6,4.2,7.6,4.2C219.4,145.9,212.4,141.6,211.2,141.6C210.9,141.8,211.4,141.6,211.2,141.6z M215.3,149.4
	c-0.3-0.4-5.1-4.6-5.2-2.7C210,148.4,213.9,150.6,215.3,149.4C215.2,149.2,215.2,149.5,215.3,149.4z M188.7,147.9
	c-1.7-1-3.9,3.1-2.8,4C187,152.7,188.7,148.4,188.7,147.9C188.6,147.8,188.7,148,188.7,147.9z"/>
<path fill-rule="evenodd" clip-rule="evenodd" fill="none" d="M72.3,145.7c-2.5-1.1-3.6,0.2-6,0.3c-1.7,0.1-4.2-4.2-4.5,0.4
	c-0.2,2.9,1.1,8.9-1,10.9c-1.5,0.2-9.5-0.6-10.3-1.6c-1.5-1.9,0.1-7.7-0.2-10c-2-1.5-5.1-0.1-7.6-0.7c-11.1-2.5-2.4-6.4-1.1-13.2
	c0.9-4.4,11.6-8.4,15.2-8.4c6.8,0,13.3,4.2,19.3,7c4.3,2.1,15.4,5.6,13.5,12c-0.3,1-6.1,0.6-7.3,0.9
	C78.6,144.1,75.8,144.3,72.3,145.7C72.1,145.6,73.4,145.2,72.3,145.7z M48.3,131c-1.5,1.2-3.2,2-4.4,3.4c-0.3,0.3-3.9,5.8-1,5
	c1.4-0.4,2.4-3.2,3.5-4.2c0.5-0.4,4.2-5.5,3.3-5.1C49.2,130.5,48.7,130.7,48.3,131C47.7,131.5,48.6,130.8,48.3,131z M57.2,133.3
	c0-1.8-9.5,3.4-9.2,5.9C48.3,140.5,56.5,134.6,57.2,133.3C57.2,133.1,57.1,133.4,57.2,133.3z"/>
<path fill-rule="evenodd" clip-rule="evenodd" fill="none" d="M53.8,162c-2.6,4.5-0.2,9.5,0.4,14.1c0.6,4.5-7.9,6.2-10.6,7.1
	c-5.6,1.8-7.3-0.5-11.8-2.6c-5.6-2.6-6.6-8.1-8.8-13.1c-1.5-3.5,1.1-10,2.4-13.4c1.1-2.7,3.4-4.9,5.4-6.9c2.9-3,5.2-1.8,8.6-0.8
	c4.7,1.4,10.1,3.6,7.4,9.1c-0.8,1.7,1.4,3.2,2.5,3.9C51.7,161.2,56.3,156,53.8,162C53.1,163.1,54.1,161.3,53.8,162z M33.5,164.9
	c-4,0-5.3,5.1-0.8,5.4C37,170.6,37.6,165.6,33.5,164.9C32.7,164.9,33.8,164.9,33.5,164.9z"/>
<path fill-rule="evenodd" clip-rule="evenodd" fill="none" d="M243.6,177.7c-3.8,8.4-14.1,18.9-24.6,13.4c-2-1.1-2-2.5-1.2-4.4
	c1.1-2.7,0.8-6.2,0.7-9.1c-0.1-2.9-1.2-4.1-2.7-6.4c-0.3-0.4-3.5-2.7-1.3-3.2c1.9-0.5,3.8,0,5.6-0.7c1.1-0.4-0.5-5.8-0.5-6.5
	c-0.2-3.9,6.7-5.6,9.5-5.7C240.7,154.5,244.9,168.2,243.6,177.7C242.9,179.2,243.9,175.6,243.6,177.7z M228.7,162.4
	c-3.4,0.3-5.9,5.4-1.4,6.3C232.2,169.7,233.8,162.4,228.7,162.4C228.3,162.5,230.1,162.4,228.7,162.4z"/>
<path fill-rule="evenodd" clip-rule="evenodd" fill="none" d="M171.7,56.6c-1.4,10.4-8,20.2-8.8,30.7c-0.2,2.5-1.6,4.4-2.4,6.7
	c-0.8,2.5-1.2,5.9-2.5,8.2c-2,3.4-2.3,8.3-3.9,11.9c-1.5,3.6-2.7,7.3-3.8,11c-1.2,4.1-1.3,10.5-3.3,14.2c-2.2,4-2.4,10.2-3.6,14.6
	c-0.7,2.7-6.9,5.3-5,0.3c3-8.3,4.2-17.2,7.5-25.5c1.6-3.9,1.4-9.1,3.8-12.6c0.9-4.7,3.7-9.8,4.1-14.4c0.3-4.2,2.3-10.6,4.2-14.4
	c1.9-4,3.5-10.2,4.5-14.7c1.1-4.7,3-9.1,4.2-13.7C167.7,55.5,172.1,49.1,171.7,56.6C171.6,57.5,171.8,56,171.7,56.6z"/>
<path fill-rule="evenodd" clip-rule="evenodd" fill="none" d="M143.9,178.6c2.2-4.6,8.6-14.6,14.7-13.5c2.4,0.4,5.8,2.9,7.3,4.8
	c2.2,2.6-0.6,5.1-0.6,7.7c0,1.2,0.8,8.9-1.2,8.9c-3.5,0-6.9-1.2-10.6-1c-2.1,0.1-6.2,2.6-8.2,1.7
	C142.7,185.9,143.8,180.8,143.9,178.6C145.4,175.5,143.8,179.6,143.9,178.6z"/>
<path fill-rule="evenodd" clip-rule="evenodd" fill="none" d="M278.4,81.6c-7.3-0.3-2.5-5.1-2-10.2c0.3-2.8,3-10.1-1.1-11.3
	c-4.8-1.4-0.4-7.5,0.1-10.8c0.1-1,4-15.3,5.7-14c1.3,1,1,8.8,1.5,10.8c0.9,4.1,2.4,7.8-0.1,11.3C278.6,62.7,286.5,81.3,278.4,81.6
	C277,81.5,278.9,81.6,278.4,81.6z M278.3,68.3c-0.4,0.6-0.3,1.1,0.2,1.5C278.9,69.5,278.9,67.8,278.3,68.3
	C278,68.6,278.4,68.3,278.3,68.3z M279.8,53C279.7,53.5,279.7,53.5,279.8,53L279.8,53z"/>
<path fill-rule="evenodd" clip-rule="evenodd" fill="none" d="M198.1,129.6c-0.2,3.3-3.4,5.3-6.6,5.3c-1.9,0-4.1,1.5-5.8,2.2
	c-2.3,1-2.8-2.2-4-3.2c-2.2-1.9-6.7-6.7-1.7-6.9c1.4-0.1,3.7-0.4,5,0.4c0.9,0.5,3.3,5.8,3.8,5.6c3.2-1.4-11.3-16.8-1-17.2
	C195.3,115.6,194.1,130.3,198.1,129.6z"/>
<path fill-rule="evenodd" clip-rule="evenodd" fill="none" d="M280.2,100.7c-4.7,10-1.9,23.1-2.5,33.9c-0.3,5.9,1.1,12.4-0.2,18.2
	c-0.7,0.8-1.3,0.8-1.8-0.2c-0.2-1.7-0.3-3.5-0.2-5.2c0-4,0-7.9-0.1-11.9c-0.4-13.5,0.4-26.7,1.2-40c0.1-1.6-0.8-16.6,4.6-10.9
	c1.5,1.6-0.6,5.3-0.6,7C280.4,94.7,280.3,97.7,280.2,100.7C279.8,101.4,280.2,99.6,280.2,100.7z"/>
<path fill-rule="evenodd" clip-rule="evenodd" fill="none" d="M271.8,293.8c1.2-2.8,0.9-5.2,0.9-8.1c0-3.3,1.2-6,1.3-9.2
	c0-2.8-1.5-17.2,0.8-18.6c2.1,1.9,0.6,11,0.6,13.6c0.1,4-1.3,8.2-1.3,11.9c0.2,11.2-0.1,22.4-0.3,33.6c-0.1,3.5,1.6,11.8-0.5,14.8
	c-3.5,5-3.1-5.9-3.1-6.5C270.6,314.8,271.5,304.4,271.8,293.8C272,293.3,271.8,294.5,271.8,293.8z"/>
<path fill-rule="evenodd" clip-rule="evenodd" fill="none" d="M205.7,115.7c0.4,2.4-4.7,13.3-7.6,13.9c0.2-2.1-1.6-7-2.8-9.5
	c-2.2-4.6-1.8-4.5-0.1-8.9c1-2.6,0.4-3.3,3.4-3.1c1.4,0.1,5.2-0.2,5.5,2C204.5,112.3,202.2,116.1,205.7,115.7z"/>
<path fill-rule="evenodd" clip-rule="evenodd" fill="none" d="M278.7,203.7c-1.9,5.4-0.7,12.3-1,18.1c-0.1,2.8-2.3-2.9-2.3-3.5
	c0-3.1,0.9-5.7,1.1-8.7c0.4-6.2,0.1-12.5,0.2-18.7c0-3.5,0.1-7,0.1-10.5c0-1.9-1-9.8,0.4-11c-0.3,0.2,0.8,13.3,0.8,15.1
	c0,2.3-0.8,6.7,0.3,8.8C280,196.9,277.7,200.2,278.7,203.7C278.5,204.3,278.6,203.3,278.7,203.7z"/>
<path fill-rule="evenodd" clip-rule="evenodd" fill="none" d="M131.3,190.4c-0.4-2.1,1.4-18.5,5.2-14.2
	C139.6,179.8,135.9,190.8,131.3,190.4z"/>
<path fill-rule="evenodd" clip-rule="evenodd" fill="none" d="M205.9,115.8c-0.7-4.5,0.1-14.3,5.9-13.8
	C216.9,102.4,207.5,115.4,205.9,115.8z"/>
<path fill-rule="evenodd" clip-rule="evenodd" fill="none" d="M275.1,243.6c0.1-4,0.2-8,0-12c-0.2-3.3,1.5-7,1.7-1.4
	c0.1,2.4,1.1,21.3-2,21.7C272.9,252,274.7,244.4,275.1,243.6C275.2,239.6,274.4,245.2,275.1,243.6z"/>
<path fill-rule="evenodd" clip-rule="evenodd" fill="none" d="M220.7,96.8c6.2,0.7-1.1,4.5-2.9,6C213.2,106.6,215.8,96.8,220.7,96.8
	C221.2,96.9,220,96.8,220.7,96.8z"/>
<path fill-rule="evenodd" clip-rule="evenodd" fill="none" d="M272.7,238.8c0,0.5,0.2,2.8-0.6,2.9c-0.7,0.1-4.5-10.2-3.2-11.2
	C273.1,227.3,272.7,236.6,272.7,238.8C272.7,238.7,272.7,236.9,272.7,238.8z"/>
<path fill-rule="evenodd" clip-rule="evenodd" fill="none" d="M225.6,100.8c1.9-0.2,3.9,7.8,2,8.3
	C225.3,109.7,223.4,101.8,225.6,100.8C226.1,100.8,225.3,101,225.6,100.8z"/>
<path fill-rule="evenodd" clip-rule="evenodd" fill="none" d="M38.8,88c5.8-0.3,1.6,3.1-0.3,4.7c-0.9,0.7-4.8,1.6-3-0.8
	C36.6,90.5,38.9,89.2,38.8,88z"/>
<path fill-rule="evenodd" clip-rule="evenodd" fill="none" d="M232.4,104.9c-0.7,5.7-3.4-3.7-3.6-4.2c-0.6-1.5,1.4-3.6,2.1-1.9
	C231.6,100.7,232.3,102.9,232.4,104.9C232.3,105.3,232.3,103.9,232.4,104.9z"/>
<path fill-rule="evenodd" clip-rule="evenodd" fill="none" d="M40.7,97c-3.2-1.1,1.5-5.3,3.3-5C47.4,92.5,43.5,99,40.7,97
	C40.4,96.9,41.6,97.6,40.7,97z"/>
<path fill-rule="evenodd" clip-rule="evenodd" fill="none" d="M212.6,119.4c0.4,1.1,0.1,1.9-1.1,2.5c-1.6,0.7-1.9-1.6-2.4-2.3
	C207.5,117.3,210.3,114.4,212.6,119.4C212.9,119.8,212.3,118.6,212.6,119.4z"/>
<path fill-rule="evenodd" clip-rule="evenodd" fill="none" d="M220.8,112.5c-2.4,4.9-3.9-3.7-3.7-5.3
	C217.5,103.7,220.6,112.1,220.8,112.5C220.6,113.1,220.5,112,220.8,112.5z"/>
<path fill-rule="evenodd" clip-rule="evenodd" fill="none" d="M213.9,110.8c1.9,0.7,3,6.9,0.5,6
	C211.9,115.9,212.3,112.2,213.9,110.8C214.1,110.9,213.6,111.1,213.9,110.8z"/>
<path fill-rule="evenodd" clip-rule="evenodd" fill="none" d="M209.4,125.7c0.2,2.5-4.8,0.2-3.2-2.9
	C207.4,120.6,209.3,124.9,209.4,125.7C209.4,126.1,209.3,125,209.4,125.7z"/>
<path fill-rule="evenodd" clip-rule="evenodd" fill="none" d="M221,104.3c0-2.5,2.8,4.4,3.3,5.4c0.7,1.3-1.7,1-2.1,0
	C221.4,107.8,221,106.4,221,104.3C221,104.9,221,106.6,221,104.3z"/>
<path fill-rule="evenodd" clip-rule="evenodd" fill="none" d="M51.1,100.4c2.5,0.3,2.8,2.2,0.8,3.1
	C49.6,104.7,47.9,101.2,51.1,100.4C52,100.5,50.7,100.5,51.1,100.4z"/>
<path fill-rule="evenodd" clip-rule="evenodd" fill="none" d="M204.4,127.4c1.1,0.1,3.7,2.5,1.9,3.4
	C203.8,132.1,202.2,127.6,204.4,127.4C204.6,127.4,203.7,127.5,204.4,127.4z"/>
<path fill-rule="evenodd" clip-rule="evenodd" fill="none" d="M45.7,99.9c-2.1-1.8,1.8-4.6,3.5-2.3C50.6,99.4,46.9,100,45.7,99.9
	C45.4,99.6,45.9,99.9,45.7,99.9z"/>
<path fill-rule="evenodd" clip-rule="evenodd" fill="none" d="M32.6,90.5c-0.6-3.1,5.2-4.6,6.4-2.6C36.4,87.7,35,90.3,32.6,90.5z"/>
<path fill-rule="evenodd" clip-rule="evenodd" fill="none" d="M56.4,109.7c0.8-0.2,1.9,1.1,1.2,1.8
	C56.4,112.6,54.4,110.2,56.4,109.7C57,109.6,55.9,109.8,56.4,109.7z"/>
<path fill-rule="evenodd" clip-rule="evenodd" fill="none" d="M55.3,106.9c-0.4,1-1.2,0.9-1.8,0.2C52,105.4,55.8,105,55.3,106.9
	C55.1,107.6,55.5,106.2,55.3,106.9z"/>
<path fill-rule="evenodd" clip-rule="evenodd" fill="none" d="M56.5,116c0.1-0.4,0.3-0.7,0.4-1.1c1.1-0.7,0.6,2.4,0.2,2.8
	C56.7,117.3,56.5,116.7,56.5,116C56.4,115.5,56.6,116.4,56.5,116z"/>
<path fill-rule="evenodd" clip-rule="evenodd" fill="none" d="M204.6,133.3c-0.9,0.4-1.7,0.2-2.2-0.4
	C201.8,131.5,205.2,133.8,204.6,133.3z"/>
<path fill-rule="evenodd" clip-rule="evenodd" fill="none" d="M131.1,190.3c-0.2,0.3-0.3,0.6-0.5,0.9
	C130,191.5,131.4,190,131.1,190.3z"/>
<path fill-rule="evenodd" clip-rule="evenodd" fill="none" d="M204.4,133.5c0.3,0.1,0.6,0.3,0.9,0.4
	C204.8,134.4,204.5,133.6,204.4,133.5z"/>
<path fill-rule="evenodd" clip-rule="evenodd" fill="none" d="M79.4,94.2c-0.3-0.2-0.6-0.4-0.9-0.6C78.3,92.9,79.8,94.5,79.4,94.2z"
	/>
<path fill-rule="evenodd" clip-rule="evenodd" fill="none" d="M32.6,90.4c-0.2,1-0.5,1.2-0.9,0.6C32.6,90.9,32.9,90.7,32.6,90.4z"/>
<path fill-rule="evenodd" clip-rule="evenodd" fill="none" d="M272,256.7C272.4,256.8,272.4,256.8,272,256.7L272,256.7z"/>
<path fill-rule="evenodd" clip-rule="evenodd" fill="none" d="M89.6,103.2c-0.8-0.2-1.3-0.7-1.5-1.5C89,101.8,89.4,102.4,89.6,103.2
	z"/>
<path fill-rule="evenodd" clip-rule="evenodd" fill="none" d="M358.7,176.1c-3.6,10-10.5,17.9-21.6,17.9c-12,0.2-19.8-6.8-18.8-19.1
	c0.1-1.8,1.4-3.9,3.4-3.7c3.1,0.3,3.5-1.3,4.9-3.6c3.3-5.4,7.1-8.6,13.3-9.9C351.5,155.2,359.5,165.9,358.7,176.1
	C357.6,179.1,358.8,174.9,358.7,176.1z M328.2,173c-1.7,0.5-3.7,3.5-1.2,4.7C331.4,179.7,332,173.2,328.2,173
	C328,173,328.4,173,328.2,173z"/>
<path fill-rule="evenodd" clip-rule="evenodd" fill="none" d="M366.3,147.3c-0.2,2.5-7.6,9.7-10.1,10c-0.5,0.1-6-8.9-6.8-10.1
	c-2.8-3.8-7.5-8.3-12.2-9.7c-4.4-1.3-9.8,0.4-10-5.3c-0.2-4.8-0.3-9.9-1.8-14.5c-0.8-2.7-5.7-10.8-1.1-11.9c4.4-1,8.4,4.1,10.5,7.6
	c1.3,2.2,2.2,4.2,2.3,6.8c0,1.5-1.7,5.2-0.7,6.4c0.5,0.6,2.3-8.1,2-9.3c-0.9-4,0.8-5.9,5.5-5c2,0.4,3.1,8.9,3.3,10.6
	c0.3,2.2-3.4,11.7-2,12.7c1.3,0.9,3.5-10.7,3.5-11.5c0.2-3.3,0.7-2.3,3.4-1.6c2.1,0.5,1.3,3.3,2.1,4.8c1.1,2.1,0.6,4.3,0.5,6.6
	c-0.4,0.8-3.5,6.3-2.9,7c1.8,2,4.4-7.6,4.6-8.6c0.7-5,9.1-0.6,5.8,4.8c-0.9,1.4-0.7,3.4-1.8,4.6c-0.8,0.9-3.7,4-3.6,5.2
	c0.1,2,3.2-1.8,3.4-2.2c0.9-1.5,2.4-2.7,4-1.7C365.9,143.5,362.9,148.5,366.3,147.3z"/>
<path fill-rule="evenodd" clip-rule="evenodd" fill="none" d="M314.3,143.9c1.9-6.2,7.1-5,11.9-4.2c6.3,1.1,10.5-0.9,15.8,3.9
	c2.5,2.3,4.9,4.6,7,7.2c0.9,1.2,4.2,7,0.4,5.6c-3.5-1.3-13.6-3.5-16.7-1.2c-5.4,4-8.4,5.2-9.5,12.1c-0.2,1.2-9.9,0.8-6.8-3.9
	c2.8-4.3,7.1-10.7-2.3-9.9C306.2,154.3,312.1,146.7,314.3,143.9C314.5,143.4,313.6,144.8,314.3,143.9z M319.7,145.6
	c2.1-2.8,1.4-4.9-1.3-1.5C315,148.4,318.1,150,319.7,145.6C320.3,144.8,319.4,146.4,319.7,145.6z M321.9,149.8
	c0.9-0.1,4.4-3.4,3.6-4.5C324.2,143.7,319.9,149.2,321.9,149.8C322.1,149.7,321.4,149.6,321.9,149.8z"/>
<path fill-rule="evenodd" clip-rule="evenodd" fill="none" d="M306.9,155.1c2.8-0.1,8.2,0.4,8.9,4c0.5,2.5-7,7.8-1.9,9.4
	c4.9,1.5,4.5,1.1,2.1,6.2c-0.4,2.5,1.8,9.8,0.6,11.4c-1.6,2.1-8.6,0.4-10.6-0.4c-4.4-1.7-8.1-4.1-10.1-8.6
	C291.9,168.1,298.7,158.4,306.9,155.1C307.8,155.1,305.2,155.8,306.9,155.1z M305.7,174.3c0-3.2-3.8-4.4-5-0.9
	C299.7,176.5,305.7,176.7,305.7,174.3C305.7,173.3,305.7,174,305.7,174.3z"/>
<path fill-rule="evenodd" clip-rule="evenodd" fill="none" d="M319.3,107.9c0.4,2-7.6,5.7-9.1,4.9
	C309.9,112.6,318,106.1,319.3,107.9C319.4,108.3,319.2,107.7,319.3,107.9z"/>
<path fill-rule="evenodd" clip-rule="evenodd" fill="none" d="M323.2,117.4c-0.4,1-5.2,2.7-5.8,1.1
	C316.2,115.9,324.1,113,323.2,117.4C323,117.7,323.3,116.7,323.2,117.4z"/>
<path fill-rule="evenodd" clip-rule="evenodd" fill="none" d="M318.5,113.8c-2.4,1.1-6.2,1.6-1.9-1
	C319.9,110.9,322.5,112.2,318.5,113.8C317.1,114.5,318.6,113.8,318.5,113.8z"/>
<path fill-rule="evenodd" clip-rule="evenodd" fill="none" d="M322.6,125.7c-1.8,0.4-1.2-1.3-0.5-1.8
	C324.1,122.5,325.3,125.3,322.6,125.7C322.1,125.8,323,125.7,322.6,125.7z"/>
<path fill-rule="evenodd" clip-rule="evenodd" fill="none" d="M322,120.7c0.1,1.4-1.5,1.3-2.2,0.7C320.2,121,322.4,120.7,322,120.7z
	"/>
<path fill-rule="evenodd" clip-rule="evenodd" fill="none" d="M324.5,132.4c-0.7,1.8-1.2-1.5-0.4-1.1
	C324.3,131.7,324.4,132,324.5,132.4C324.5,132.6,324.7,131.9,324.5,132.4z"/>
<path fill-rule="evenodd" clip-rule="evenodd" fill="none" d="M323.9,128.1c-0.4-0.3-0.4-0.5,0.1-0.7
	C324.4,127.7,324.4,128,323.9,128.1C323.8,128,324.4,128,323.9,128.1z"/>
<path fill-rule="evenodd" clip-rule="evenodd" fill="none" d="M322.2,120.9c0.1-1,0.4-1.2,0.8-0.6
	C322,120.4,321.8,120.6,322.2,120.9z"/>
<path fill-rule="evenodd" clip-rule="evenodd" fill="none" d="M311.4,108.6C311.3,109,311.3,109,311.4,108.6L311.4,108.6z"/>
<path fill-rule="evenodd" clip-rule="evenodd" d="M162.8,271.1c-0.6-17.2,11.6-26.9,28-26.4c7.1,0.2,15.2,3.3,20.3,8.4
	c4.9,5,7.2,14.9,5.2,21.6c-2,6.9-5.9,13.7-11.5,18.4c-6.6,5.5-12.2,5.9-20.6,5.7c-5.2-0.1-12.9-1.8-16.5-5.9
	C162.7,287.3,162.8,278.1,162.8,271.1C162.7,270.5,162.8,274,162.8,271.1z M213.3,261.1c-2.5-5.1-6.3-8.8-11.4-11.3
	c-4.2-2.1-13.4-4.3-17.7-2c-5.9,3.1-9.2,5.5-12.4,11.7c-3.5,6.7-3.9,13.3-3.9,20.7c0.1,15.3,18.7,20.5,30.6,14.8
	c5.1-2.5,11.4-10.2,13.4-15.6c1.1-3,2.8-6,2.6-9.3C214.5,267.1,213.5,264.1,213.3,261.1C213,260.5,213.4,262.3,213.3,261.1z"/>
<path fill-rule="evenodd" clip-rule="evenodd" d="M228.4,253.6c-1.4-3.4-2.5-6.6-4.6-9.7c-0.8-1.1,0.8-2,1.7-1.2
	c1.1,0.9,1.8,2.8,2.4,4c1.8,3.7,3.2,7.4,3.3,11.6c0,0.5-0.1,11.2-1.9,9.7c-0.8-0.6,0.6-5.4,0.4-6.6
	C229.2,258.8,228.6,256.3,228.4,253.6C227.8,252.3,228.5,254.9,228.4,253.6z"/>
<path fill-rule="evenodd" clip-rule="evenodd" d="M220.1,250.3c2.4-3.7,8.3,17.4,3.9,15.4c-0.9-0.4-0.5-4.9-0.6-5.9
	C223.1,256.5,221.3,253.4,220.1,250.3C220.4,249.9,221,252.4,220.1,250.3z"/>
<path fill-rule="evenodd" clip-rule="evenodd" d="M61.4,242.5c0.1,4-0.8,8.7-1.4,12.7c-0.4,2.4-2.2-0.8-2.1-1.9
	c0.2-4.2,1.4-8,1.2-12.4c-0.1-2.2-3.8-9.6-2-10.9c1.7,1.5,3.1,5.2,3.2,7.4C60.4,238.1,61.4,243.4,61.4,242.5
	C61.5,244.2,61.4,243.2,61.4,242.5z"/>
<path fill-rule="evenodd" clip-rule="evenodd" d="M55.4,245.7c0,1.9,0.3,4.6-0.7,6.3c-0.1,0.2-1.8,2.6-1.9,0.4
	c-0.1-2.9,2.2-5.4,0.7-8.5c-0.5-1-2.3-8.5-0.5-7.8C55.5,237,55.4,243.8,55.4,245.7C55.5,247.5,55.4,244.6,55.4,245.7z"/>
<path fill-rule="evenodd" clip-rule="evenodd" d="M15.7,252.9c-0.7,2.9-3.2,0.3-3.9-0.8c-1.6-2.6-2-5.5-2-8.5
	c0-6.2,1.1-12.2,4.3-17.7c0.5-0.9,3.8-2.1,3-0.6c-1.5,2.7-3.5,5.4-3.8,8.6C10.2,239.7,11.9,248.2,15.7,252.9
	C15.6,253.6,14.9,251.9,15.7,252.9z"/>
<path fill-rule="evenodd" clip-rule="evenodd" d="M16,241c0.1-3.9,0.5-7.7,2.9-10.9c2.5-3.3-0.1,4.8-0.2,5c-1,4.2-1.7,7.8-0.3,12
	c0.5,1.5-1.5,1.5-1.9,0.5C15.8,245.7,16,243,16,241C16,239.9,16,242.6,16,241z"/>
<path fill-rule="evenodd" clip-rule="evenodd" d="M196.8,175.6c0.5,6.6-9.5,2-7.1-1.4C192.2,170.7,196.5,170.8,196.8,175.6
	C196.9,177.4,196.8,175.4,196.8,175.6z"/>
<path fill-rule="evenodd" clip-rule="evenodd" d="M68,171.5c-3.9-0.6-3.4-5.9,0.5-6.3C73.8,164.7,72.2,171.2,68,171.5
	C67.5,171.5,68.4,171.5,68,171.5z"/>
<path fill-rule="evenodd" clip-rule="evenodd" d="M184.9,143.8c0.8,0.7-2.8,8.3-3.7,9.3c-2.4,2.5-0.5-3.8-0.3-4.2
	C181.6,147.4,182.7,143.5,184.9,143.8C185.1,143.9,184.3,143.7,184.9,143.8z"/>
<path fill-rule="evenodd" clip-rule="evenodd" d="M211.2,141.6c1.2,0,8.1,4.3,6.4,5.4c-0.1,0-7.6-4.1-7.6-4.2
	C210.1,142.2,210.5,141.8,211.2,141.6C211.4,141.6,210.9,141.8,211.2,141.6z"/>
<path fill-rule="evenodd" clip-rule="evenodd" d="M215.3,149.4c-1.4,1.3-5.3-0.9-5.2-2.7C210.2,144.7,215,149,215.3,149.4
	C215.2,149.5,215.2,149.2,215.3,149.4z"/>
<path fill-rule="evenodd" clip-rule="evenodd" d="M188.7,147.9c0,0.6-1.7,4.9-2.8,4C184.8,151,187,146.9,188.7,147.9
	C188.7,148,188.6,147.8,188.7,147.9z"/>
<path fill-rule="evenodd" clip-rule="evenodd" d="M48.3,131c0.4-0.3,0.9-0.5,1.3-0.8c1.9-1.1-3,4.8-1.5,3.4c-1.2,1.1-4,5.6-5.3,5.9
	c-2.5,0.6-0.2-3.3-0.1-3.4C44.1,133.7,46.2,132.6,48.3,131C48.6,130.8,47.7,131.5,48.3,131z"/>
<path fill-rule="evenodd" clip-rule="evenodd" d="M57.2,133.3c-0.7,1.3-8.9,7.3-9.2,5.9C47.7,136.7,57.2,131.5,57.2,133.3
	C57.1,133.4,57.2,133.1,57.2,133.3z"/>
<path fill-rule="evenodd" clip-rule="evenodd" d="M33.5,164.9c4.1,0.7,3.5,5.7-0.8,5.4C28.2,170,29.5,164.9,33.5,164.9
	C33.8,164.9,32.7,164.9,33.5,164.9z"/>
<path fill-rule="evenodd" clip-rule="evenodd" d="M228.7,162.4c5,0,3.5,7.3-1.4,6.3C222.8,167.8,225.3,162.7,228.7,162.4
	C230.1,162.4,228.3,162.5,228.7,162.4z"/>
<path fill-rule="evenodd" clip-rule="evenodd" d="M328.2,173c2.2,0.1,4,3.9,1.3,4.8C325.4,179,324.9,174,328.2,173
	C328.4,173,328,173,328.2,173z"/>
<path fill-rule="evenodd" clip-rule="evenodd" d="M319.7,145.6c-0.9,2.5-4.8,4.4-2.4,0.2C319.2,142.5,323.2,140.8,319.7,145.6
	C319.4,146.4,320.3,144.8,319.7,145.6z"/>
<path fill-rule="evenodd" clip-rule="evenodd" d="M321.9,149.8c-2-0.6,2.3-6.1,3.6-4.5C326.3,146.4,322.8,149.6,321.9,149.8
	C321.4,149.6,322.1,149.7,321.9,149.8z"/>
<path fill-rule="evenodd" clip-rule="evenodd" d="M305.7,174.3c-0.1,2.3-6.1,2.1-5-0.9C301.9,169.9,305.7,171.1,305.7,174.3
	C305.7,174,305.7,173.3,305.7,174.3z"/>
<path fill-rule="evenodd" clip-rule="evenodd" fill="none" d="M213.3,261.1c0.4,6.3,1.8,10.3-0.9,16.4c-0.8,6.9-8.1,12.5-12.8,16.8
	c-4.2,3.9-15.1,2.9-20.1,1.6c-7.3-1.8-9-7.5-11.3-13.9c-3.2-8.9,3-31.8,14.2-33.6C194.9,246.5,207,248.5,213.3,261.1
	C213.4,262.3,213,260.5,213.3,261.1z M172.9,273.5c0,2.6,0.1,4.6,1.3,7c0.2,0.5,4.2,5,4.8,2.9c0.2-0.6-2.1-2.6-2.4-3.1
	c-1.3-2.1-1.4-4.4-1.3-6.7c0.2-4.1,2.3-9.4,5.5-12c0.6-0.5,1.2-1.3,0.4-2.1c-1.7-1.7-4.3,2.9-4.9,3.9
	C174.6,266.3,173.2,269.9,172.9,273.5C172.9,275.1,172.9,273.6,172.9,273.5z M185,267c-2.8-5-7.9,13.3-3.6,11.6
	c0.7-0.3,0.5-4.3,0.5-4.9C182,271.2,183.5,269,185,267C184.9,266.8,184.6,267.5,185,267z"/>
<path fill-rule="evenodd" clip-rule="evenodd" d="M172.9,273.5c0.2-3.6,1.7-7.2,3.4-10.3c0.9-1.6,2-3.3,3.7-4.1
	c1.7-0.8,1.6,1.7,0.7,2.4c-3.2,2.6-5.3,7.9-5.5,12c-0.1,1.8,0,3.6,0.6,5.2c0.3,0.9,3.3,4,3.1,4.6c-0.4,1.7-3.8-1.4-4-1.6
	C173.1,279.3,172.9,276.4,172.9,273.5C172.9,273.6,172.9,275.1,172.9,273.5z"/>
<path fill-rule="evenodd" clip-rule="evenodd" d="M185,267c-1.3,1.8-2,3.5-2.9,5.5c-0.5,1.1,0.4,5.7-0.7,6.1
	C177.1,280.3,182.2,262,185,267C184.6,267.5,184.9,266.8,185,267z"/>
</svg>
