<?xml version="1.0" encoding="utf-8"?>
<!DOCTYPE svg PUBLIC "-//W3C//DTD SVG 1.1//EN" "http://www.w3.org/Graphics/SVG/1.1/DTD/svg11.dtd">
<svg version="1.1" id="Layer_1" xmlns="http://www.w3.org/2000/svg" xmlns:xlink="http://www.w3.org/1999/xlink" x="0px" y="0px"
	 width="1000px" height="810px" viewBox="149 342.2 1000 810" enable-background="new 149 342.2 1000 810" xml:space="preserve">
<g>
	<path d="M700.7,1005.6c23.1-5.4,46.4-1.3,57.7,22.5c6.1,12.8,12.8,25.5,14.5,39.8c1.8,15.5-5.3,25.7-5,40.9
		c0.1,6.7,6.5,34.9-2.5,36.9c-14.4,3.2-29.5,4.8-44.2,5.6c-16.2,0.9-30.8,1.1-47,0.2c-10.6-0.7-8.6-22.7-8.9-29
		c-0.7-12.6-1.9-11.1-14-10.8c-9.9,0.3-27,4.6-34.1-4.7c-6.5-8.6-1.6-23.8-5.2-34c-4.4-12.7-8.1-24.3-7.7-37.9
		c0.7-25,14.8-54.7,40.3-61.9C670.7,965.8,692.1,981.5,700.7,1005.6C705.2,1004.5,698.2,998.4,700.7,1005.6z M762.9,1088.9
		c-6.4-0.4-21.9-1-25,5c-1.4,2.9-5.5,14.6-10.9,11.8c-6.4-3.3-4.4-13.3-10.4-16.8c-9.2-5.4-19.8,10.3-25.9,15.2
		c-4.4,3.5-6.8-1.3-8.3-5c-2.5-6.3-11.9-4.4-11.9,2.5c0.1,11.4-2.3,33.9,10.3,40.1c15,7.5,31.5,4.3,47.4,2.6
		c11-1.2,30.4,0.6,32.6-14C762.8,1116.8,762.9,1102.5,762.9,1088.9C758.1,1088.6,762.9,1091.9,762.9,1088.9z M697.4,1006.7
		c-10.2-13.4-16.1-27.8-34.9-29.4c-18.1-1.6-35.1,9-42.8,25.2c-2.7,5.8-6.1,13.8-5.7,20.3c0.6,10.4,20,1.7,26.3,0.3
		c10.6-2.3,21.4-5.8,32.2-6.6c3.1-0.2,9.9,2.3,12.5,0.3C689.2,1013.5,693.3,1010.1,697.4,1006.7
		C695.9,1004.8,693.2,1010.2,697.4,1006.7z M668.4,1041.1c0,0-19,3.2-21.7,3.3c-12.7,0.4-24.2,1.8-36.9-0.4c0,8.9,3.8,18.2,6.2,26.7
		c3.5-1.3,4.9-4.9,8-6.5c5.3-2.5,6.2,4.2,12.7,0.8c10.2-5.2,11.4,12.1,13.3,17.7c1.9-2.5,3.8-5.1,5.8-7.5c5.6-7,7.1,5.3,8.7-6.7
		C665.8,1059.4,667.1,1050.2,668.4,1041.1C668.9,1041.4,666.9,1052.2,668.4,1041.1z M729.2,1100.7c2.2-4.7,7.6-20.5,14.8-19
		c7.8,1.6,14.9-0.5,23,1.4c0.7-5.6,0.6-11.2-0.6-16.7c-17.2,4.2-34.2,11.5-52.7,9.3c-16.2-1.9-32.1,3.5-44.1-9.8
		c-1.4,6.1-3.3,21.1-0.2,26.7c14-8,12.6-4.3,19.2,7.3c5.6-7.3,12.6-13.6,19.8-19.2C721.2,1070.7,724.2,1095.3,729.2,1100.7
		C730.8,1097.4,726.6,1097.8,729.2,1100.7z M760.6,1050c-5.7-27.3-32.5-46.4-59.7-31.6c3.9,1.9,10.7,3.5,11.4,8.5
		c1,7,2.4,14,4.5,20.8C731.8,1047.7,745.9,1048.5,760.6,1050C757.5,1035.3,757.9,1049.7,760.6,1050z M762.3,1058.2
		c-14.9-5.6-33.2-5.6-49-4.6c-2.9,0.2-46.9,5.1-34.1,14C688.7,1074.4,763.5,1069.9,762.3,1058.2
		C760,1057.3,762.6,1061.9,762.3,1058.2z M625.9,1071.7c-7.3,8-7.5,23-4,32.6c13.7,4.7,28.6-2.8,42.3,2.3
		c-0.3-8.7-0.6-17.5-0.9-26.2c-9.4-0.5-13.8,16.9-18.6,0.5C640.2,1065.4,636.7,1077.5,625.9,1071.7
		C619.8,1078.3,629.3,1073.5,625.9,1071.7z M680.7,1021.6c-8.6-1.3-25.6,1.9-34.1,4.4c-7.8,2.3-28.5,4.4-32.2,12.7
		c10.6,4.8,26.7,0.9,38.1-0.1c5.5-0.5,11.1-0.9,16.6-1.1C673,1032.3,676.9,1027,680.7,1021.6C679,1021.4,676.9,1027,680.7,1021.6z
		 M707,1034.1c-8.1,3.5-16.9,5-25.6,5.4c-4.6-1.7-6.5-0.2-5.8,4.2c-0.3,2-1.9,6.6,0.1,8.5c3.5,3.3,16.9-1.4,21-2
		c5-0.8,9.7-1.2,14.4-3.2C709.7,1042.6,708.4,1038.3,707,1034.1C696.8,1038.5,708.6,1039,707,1034.1z M677.9,1036
		c4.9-1.4,27.4-4.2,25.3-10.2C697.9,1010.6,681.4,1030.4,677.9,1036C682.5,1034.7,682.3,1029,677.9,1036z"/>
	<path opacity="1" fill="#FFFFFF" enable-background="new    " d="M668.4,1041.1c-1.3,9.1-2.5,18.3-3.8,27.4c1.1,5.3-0.5,7-5,5.1
		c-4.3-0.1-7.4,6.5-9.5,9.2c-1.8-5.6-3-22.9-13.3-17.7c-3.6,1.8-6.7,3.2-9.2-1.3c-5.5-0.8-7.2,5.3-11.6,6.9
		c-2.3-8.5-6.2-17.8-6.2-26.7c10.7,1.8,20.4,1.5,31.3,0.7C644.4,1044.5,667.9,1040.8,668.4,1041.1
		C666.9,1052.2,668.9,1041.4,668.4,1041.1z"/>
	<path opacity="1" fill="#FFFFFF" enable-background="new    " d="M729.2,1100.7c-5.6-6.1-5.6-25.3-18.2-21.4
		c-4.4,1.4-5.1,6.9-9.2,8.1c-6.2,1.8-9.6,7.7-13.3,12.5c-6.5-11.6-5.1-15.4-19.2-7.3c-3-5.6-1.1-20.7,0.2-26.7
		c12,13.3,27.9,7.9,44.1,9.8c18.5,2.2,35.5-5.2,52.7-9.3c1.3,5.5,1.4,11.1,0.6,16.7c-8-1.9-15.1,0.2-23-1.4
		C736.9,1080.2,731.4,1095.9,729.2,1100.7C726.6,1097.8,730.8,1097.4,729.2,1100.7z"/>
	<path opacity="1" fill="#FFFFFF" enable-background="new    " d="M762.3,1058.2c1.2,11.7-73.6,16.2-83.1,9.5
		c-12.8-9,31.2-13.9,34.1-14C729.1,1052.6,747.4,1052.5,762.3,1058.2C762.6,1061.9,760,1057.3,762.3,1058.2z"/>
	<path opacity="1" fill="#FFFFFF" enable-background="new    " d="M680.7,1021.6c-2.9,4-5.7,7.9-8.6,11.8
		c-4.7,6.5-12,4.6-19.6,5.3c-11.4,1-27.5,4.9-38.1,0.1c3.7-8.3,24.4-10.3,32.2-12.7C655.2,1023.5,672.1,1020.3,680.7,1021.6
		C676.9,1027,679,1021.4,680.7,1021.6z"/>
	<path opacity="1" fill="#FFFFFF" enable-background="new    " d="M707,1034.1c3.1,9.7,6.9,13.3-4.9,15.1
		c-7.5,1.2-17,4.4-24.6,3.6c-5.2-0.6-1.8-10.4-1.4-13.4C686.7,1039.6,697.2,1038.3,707,1034.1C708.6,1039,696.8,1038.5,707,1034.1z"
		/>
	<path opacity="1" fill="#FFFFFF" enable-background="new    " d="M677.9,1036c3.8-6.2,14.2-21.1,23.1-13.4
		C711,1031.4,683.3,1034.4,677.9,1036C682.3,1029,682.5,1034.7,677.9,1036z"/>
	<path d="M744.4,1130.3c0.6-4.6,0.8-31,7.8-28.8C752.7,1108.7,752.5,1127.9,744.4,1130.3C745.6,1120.8,748.7,1129,744.4,1130.3z"/>
	<path d="M741.6,1110.2c-2.3,6.3-1.9,13.4-5.8,19.2C732.7,1124.4,734.2,1110.6,741.6,1110.2C739.1,1116.9,737,1110.5,741.6,1110.2z"
		/>
	<path d="M629.3,1075.7c1.7,5.6,1,16.4-1.8,21.7C625.6,1094.3,622.6,1075.3,629.3,1075.7C630.5,1079.6,626.7,1075.6,629.3,1075.7z"
		/>
	<path d="M632.7,1097c0.1-4-2.9-7.1,0.6-10.2C637,1090.2,637.1,1093.4,632.7,1097z"/>
</g>
<g>
	<path d="M424.9,1014.1c-5.8,3-17.3,6.2-18.7,13.5c-2,10.1-4.1,20.2-7.6,30c-3.8,10.6-6.2,22-8.7,33.1c-0.4,1.5-2.5,33.6-9.9,21.1
		c-5.5-9.3-6.1-23.5-8.3-34c-2-9.9-4.9-19.4-7.7-29.2c-5.3-18.8-11.1-43.7-32.8-50.2c-10.9-3.2-21.6-3.7-32.1-8.7
		c-7-3.3-13.4-12.8-17.6-19.1c-15.2-22.3-12.7-42.9-6.6-67.8c3-12.2-2.5-12.6-9.2-22.3c-7.7-10.8-7.5-20.5-23-18
		c-10.9,1.7-21.8,2.2-32.3,5.8c-7.1,2.5-25,14.6-32.3,11c-2.2-6.6,17.1-19.2,21.3-23.1c8.7-8.3,17.8-16.1,27-23.8
		c7.8-6.5,17.8-12.7,22.8-21.8c5.5-10,7.3-21.6,13.2-31.9c10.8-19.1,23.1-36.9,40.4-50.7c8-6.4,16.9-11.8,26.2-16.1
		c4.7-2.1,9.5-3.5,14.7-3.9c5.9-0.5,12.1,3.2,16.6-1.9c15.7-17.8,30.9-22.2,53.8-24.3c4.7-0.5,14.9-14,18.8-17.3
		c8.9-7.3,18.7-16.9-1-18c-18.1-1-50.2,8.4-65.5-2.5c-22.1-15.7,5.8-37.6,20.4-44.6c14.2-6.7,39.9-14.9,49.6,3.2
		c7.9,14.8,7,44,29.7,42.6c23-1.4,40-1.6,61.5,8c7.7,3.4,12.4,15.6,19.7,17.4c8,2,23.2-13.7,28.5-18.6c13.3-12.5,33.5-25.9,48.2-6
		c7.3,9.9,23.6,43-0.7,44.9c-21.4,1.7-39.8-19.5-61.7-8.7c-9.1,4.5-9.3,7.5-8.4,17.1c1.2,13.3,3.3,15.2,12.2,25.1
		c9,9.9,14.3,21,16.8,34.2c1.6,8.7,20-9,23.7-11.7c10.5-7.8,22.7-15.5,34.6-21.1c6.7-3.1,22.6-12.5,21.1,1.8
		c3.2-0.7,6.2,0.7,8.8-2.2c-10.6-6.7-0.6-2.6,1.8-7.4c3-6-12-1-13.1-4.9c7.8-5.6,7.5-3.4,3.1-9.4c4.5-2.5,7.3-10.2,0.7-5.9
		c-5.3,3.4-6.2,10.9-12.7,13.9c3.7-12.2,11.4-22.9,18.1-33.7c3.2-5.3,6.6-8.7,10.9-13c-3.1-4.7-6-9.4-8.2-14.7
		c-8.9-21.5,26.6-38.9,40.5-49.1c-0.4,10.8,8.6,23.8,5.2,34.3c-4.1,12.5-7.9,21.4-17.8,30c-7,6.1-1.6,3.4-2.1,11.3
		c-0.5,6.6-3.7,13.3-5.5,19.5c-4.4,15-5.9,30.3-8.6,45.7c-1.6,8.9-0.9,18.7-11.7,20c-3.8,0.5-29.2-5.5-24.7-12.6
		c2.5-3.9,7.7,0.8,9.5,2.2c2.4-4.6,6.7-5.6,11.5-4.7c5.6,1,14.5-3.8,4.4-5.5c-6.3-1-12.6-0.2-18.6,1.8c4.4-8.4,17.3-7.7,23.9-4.3
		c1.4-9.7-12.3-8.2-19.2-5.8c-12.1,4.1-20.8,22.6-28.3,32.4c-8.1,10.6-14.3,21.4-20.8,33c-3.5,6.3-6.6,12.8-10,19.2
		c-2.6,4.9,1,9.9,1.1,15.1c0.2,12.2-1.7,25.2-6.8,36.3c-5.4,11.7-14.5,16.8-9.6,29.5c8.6,22.5,5.1,52.7-12.7,69.7
		c-8.8,8.4-19.6,14.3-30.9,18.5c-5,1.9-5.2,7.8-8.5,11.6c-4.1,4.7-9.4,8.6-14.5,12.2c-5.8,4.1-19.8,9.2-22.3,16.1
		c-5.1,13.9-6.1,30.7-8.9,45.2c-1.1,5.9-2.3,11.7-3.4,17.5c-0.8,4.4-0.1,13.8-2.8,17.6c-8.5,12.3-15.9-20-17.3-24.1
		c-4.6-13.3-7.9-26.8-11.3-40.5C446.2,1025.1,439.9,1022.2,424.9,1014.1C420.2,1016.6,430.8,1017.3,424.9,1014.1z M491.3,983.8
		c11.8-7.3,30.4-0.1,43.8-3.1c15.3-3.4,28.2-12,36.2-25.3c7.1-11.8,14.2-28.4,7.7-41.9c-2.2-4.5-6.3-10.6-12.2-9.2
		c-5.9,1.3-11,11.6-16.9,11.1c-15.2-1.4,14.9-21.7,17.5-24.4c10.9-11.1,18.9-23.8,22.5-39.1c3.4-14.6,3.5-31.6-4.8-44.8
		c-8.4-13.4-18.7-18.3-31.7-25.8c1.8-6.5,14.9,5.8,18.5-2c3.2-6.8,5.2-11,3.8-18.9c-3.1-17.7-12.7-34-27.9-43.8
		c-14.4-9.2-36.9-15.3-53.3-10.7c-19.3,5.5,6.4,22.1,2.9,35.7c-6.1-4.2-9.9-15.9-13.6-22.4c-4.1-7.4-7.7-11.1-14.7-16
		c-14.2-9.8-30-14.7-47.2-15.4c-35.8-1.3-61.5,16.7-71.3,51.8c-5.3-4.7-1.8-8.9-1.9-14.5c-0.1-6.8-12-9.1-16.8-7.7
		c-16.3,5-30.4,18.1-41.5,30.4c-11.3,12.6-21.8,27.8-27.3,43.9c-6.4,18.5-3.7,37.8-0.5,56.7c2.5,14.7,9,28.2,19.2,39.1
		c5.8,6.2,12.6,12.1,19.6,16.8c-1-0.7,12.2,8,3.5,7.4c-10.9-0.7-11-10.8-21.1-1.3c-5.9,5.5-8.7,14.1-9,22
		c-0.6,16.1,8.2,30.8,18.2,42.5c8.2,9.6,23.4,15.8,35.8,16.6c7.3,0.4,13.2-3.7,19.9-4c3.2-0.1-2.6,9-0.7,11.5
		c10.1,13.4,28.2,16,43.4,18c6.7,0.9,16.4,1.7,21.1-4.6c5.5-7.3-4.4-15.1-8.2-20.4c-4.6-6.3,0.4-8.7,5.5-4.7
		c6.1,4.8,9,13.3,15.2,18.5c13.2,11.1,32.4,17.9,49.5,15c15.1-2.5,32.6-6.8,41.4-20.4C525.9,985,499.3,990.2,491.3,983.8
		C494.8,981.7,492.9,985,491.3,983.8z M708.7,607.8c-15,12.3-41.4,35.2-23.4,56.2c7.1,8.2,18.7-11.9,20.6-16.9
		C711,633.7,708.6,621.8,708.7,607.8C705.6,610.4,708.6,619.3,708.7,607.8z M689.3,682.8c7.2-13-12.2-15.3-14.8-3.8
		C679.4,680.3,684.3,681.6,689.3,682.8C691,679.7,684,681.5,689.3,682.8z M673.2,752c-5.5-0.8-10.9-2.6-16.2,0.1
		C661.3,756.9,671.1,760.5,673.2,752C668,751.2,672.3,755.8,673.2,752z M679.3,721.3C682,711.6,669,717.9,679.3,721.3
		C680.3,717.7,675.2,720,679.3,721.3z M685.1,689.9c-4.3-5.2-5.3-5.4-9.2-2.9C677.8,691.4,683,685.5,685.1,689.9z M675.5,707.8
		C669.2,703.5,667.4,712.7,675.5,707.8C673.7,706.5,673.5,709,675.5,707.8z M673.2,726.2c1.2,2.3,2.8,3.2,5.3,2.3
		C677.1,724.6,676.9,724.5,673.2,726.2z M676.4,711.3c1.7-0.2,3.3-0.4,5-0.6C680.1,706.7,677.9,707.2,676.4,711.3
		C678.6,711.1,677.6,708,676.4,711.3z M678.4,695.4c-0.7-2.3-4-8.3-5.9-1.9C674.5,694.2,676.5,694.8,678.4,695.4
		C677.8,693.4,675.7,694.6,678.4,695.4z M676.4,700.2c-1.3-2.1-2.6-2.8-5-1.5C672.5,701.3,673.7,702.6,676.4,700.2z M684.2,697.1
		c1.5-3.4-0.6-4.3-3.1-2.7C681.6,695.9,682.6,696.8,684.2,697.1C685.2,694.8,683.3,696.7,684.2,697.1z M665,692.4
		c1.2,1.9,2.4,2,3.5,0.4C668.6,691,667.4,690.8,665,692.4C666.8,694.6,666.4,692.2,665,692.4z"/>
	<path d="M158.8,921.3c18.6-2.7,36.9-9.4,55.9-7.3c0.2-12-7.4-27.8-19.1-32.2c6.2-6.4,9.1-2,14.5,4.3c4.6,5.5,7.7,12,9.7,18.7
		c1.4,4.7,6.7,10.8,6.8,15.2c0.4,11,0.6,22,0.8,33c0.1,6.7-5.4,10.5-5.4,16.9c0,6.5,2.8,23.4-1.3,28.8c-4.3,5.6-16.4,5-22.6,5.7
		c-10.6,1.4-21.9,4-32.6,2.3c-15-2.5-14.2-22.9-15.1-34.6c-1.6-19.6-3.3-38.2,2.2-57.9c2.5-8.9,5.4-17.6,9.2-26.1
		c0.2-0.5,8.4-13.6,9-5.8c0.4,5-5.4,10.3-7,15.1C161.2,905.2,158.4,913.2,158.8,921.3C177.9,918.5,158.7,918.7,158.8,921.3z
		 M158.3,963.3c-1.3,9.2,0.1,20,2.8,29c3.5,12,10.7,9.8,21.8,8.5c9-1.1,28.9,0.4,32.8-10.2c3.5-9.5,0.8-25.5-0.9-35.4
		c-6.4,5.5-9,6.9-12.5-1.6c-1.9-4.6-5-0.8-6.4,1.4c-3.7,6.1-6.3,2.4-11.5,4c-6.7,2-5.1,12.6-9.2,16.8
		C168.3,982.9,161.8,966.5,158.3,963.3C158.1,965.2,161.7,966.4,158.3,963.3z M172.1,971.4c2-5.9,3.2-14.1,9.9-16.7
		c5.4-2,9-6.2,13.9-7.9c7.7-2.6,6.9-0.5,11.5,4.4c0.8,0.9,10.6-0.6,13.6,0.6c1.1-6.8,1.3-14.8-1.1-21.4c-11.9,4.4-24.4,7.1-37.1,7.7
		c-7.4,0.4-14.7,0-22-0.9c-9.2-1.2-8.5,7.3-8.4,15.4C167.1,952.6,160.6,967,172.1,971.4C173.3,968.1,167.2,969.5,172.1,971.4z
		 M160.7,928.7c7.1,10.2,45.5,3.6,54.7-3.1c11-8.2-18.2-5.5-21.1-5.1C183.3,922,170.4,923.1,160.7,928.7
		C161.7,930,168.1,924.4,160.7,928.7z"/>
	<path opacity="1" fill="#FFFFFF" enable-background="new    " d="M491.3,983.8c5.3,4.2,31.9,3.4,26.7,13.1
		c-8.3,15.4-22.1,18.4-37.8,22.8c-17.8,4.9-36.4-0.5-51.3-10.7c-6.8-4.7-12.6-10.9-16.3-18.3c-3.4-6.7-14.6-7.2-8.3,1.6
		c3.3,4.6,10.8,10.4,9.7,16.9c-1.3,7.4-11.4,9.4-17.5,8.8c-16.3-1.7-35.2-3.7-46.8-17c-5.5-6.3,2.3-7.1,0.8-11.9
		c-0.9-2.9-14.4,2.5-17,2.6c-13.8,0.8-31.3-5.9-40.3-16.5c-9.3-10.9-16.3-22.9-18-37.4c-1-7.9,1-17.3,5.8-23.7
		c1.9-2.5,4.1-4.6,6.7-6.4c5.8-4.2,6.7-0.6,12.2,2.5c4.1,2.2,11.5-0.5,6.5-3c-7.8-3.8-14.7-10-21-15.9c-12-11.5-19.8-26.2-22.5-42.5
		c-2.9-16.8-5.7-34.8-1.1-51.5c4.6-16.6,14.6-32.2,25.6-45.3c10.8-12.7,24.3-25.8,39.8-32.4c7-3,15.7-3.5,20.9,3.2
		c4,5.1-3.4,11.4,2.8,17.1c9-32.6,32.5-51.8,66.2-51.9c16.9-0.1,33.9,3.4,48.2,12.7c5.6,3.7,12.4,7.4,15.8,13.5
		c4.4,7.8,9.2,22.6,16.5,27.7c2.3-8.9-17.5-31-7.2-34.3c17.4-5.7,37.5-1.7,53.7,7c16.4,8.7,25.5,23.5,30.6,40.9
		c1.9,6.5,3.3,14.8-0.8,20.8c-4.2,6.2-0.5,7.5-8.9,5.3c-2.3-0.6-10.4-3.2-11.4,0.1c13.1,7.5,23.3,12.5,31.7,25.8
		c8.3,13.2,8.2,30.2,4.8,44.8c-3.5,15.3-11.6,27.9-22.5,39.1c-2.6,2.7-32.8,23.1-17.5,24.4c4.1,0.4,10.5-7.1,13.3-9.3
		c6.8-5.4,13,1.6,15.8,7.5c6.5,13.6-0.6,30.1-7.7,41.9c-8,13.4-20.8,21.9-36.2,25.3C521.7,983.7,503.1,976.5,491.3,983.8
		C492.9,985,494.8,981.7,491.3,983.8z M295.8,778.2c7.8-5.3,10.2-15.1,14.5-23c4-7.2,13.9-12.6,15.4-20.4
		C312.4,732.9,291.5,766,295.8,778.2C297.1,777.4,293.9,772.6,295.8,778.2z M324.8,750c-5,0-15.6,13.2-12.5,18.3
		C316.1,774.5,324.5,753.7,324.8,750C323.3,750,324.7,752,324.8,750z"/>
	<path opacity="1" fill="#FFFFFF" enable-background="new    " d="M708.7,607.8c-0.1,12.3,2.5,23.5-1.5,35.6
		c-2.2,6.5-9.9,24.6-19.6,22.3c-12.3-2.9-7.5-24.5-3.8-31.3C689.9,623,698.8,615.9,708.7,607.8C708.6,619.3,705.6,610.4,708.7,607.8
		z M689.9,655.1c2.1-10.1,3.7-20.4,7.8-29.8C691.1,620,686.4,649.7,689.9,655.1C692.2,644.1,688.7,653.2,689.9,655.1z M698.9,649.7
		c0-3.9,3.9-15,2.7-18C696.5,634,693.5,651.9,698.9,649.7C698.9,646.4,696.5,650.7,698.9,649.7z"/>
	<path opacity="1" fill="#FFFFFF" enable-background="new    " d="M689.3,682.8c-4.9-1.3-9.9-2.5-14.8-3.8
		C677,667.6,696.5,669.8,689.3,682.8C684,681.5,691,679.7,689.3,682.8z"/>
	<path opacity="1" fill="#FFFFFF" enable-background="new    " d="M172.1,971.4c-11.5-4.3-5-18.7-19.8-18.7
		c0-5.5,0.8-11,2.8-16.2c7.3,1.3,14.7,1.9,22.2,1.9c14.5-0.1,29-2.8,42.6-7.9c2.3,6.6,2.2,14.6,1.1,21.4c-2.9-1.1-12.7,0.4-13.6-0.6
		c-4.6-5-3.8-7.1-11.5-4.4c-4.9,1.7-8.5,5.8-13.9,7.9C175.3,957.3,174.2,965.5,172.1,971.4C167.2,969.5,173.3,968.1,172.1,971.4z"/>
	<path opacity="1" fill="#FFFFFF" enable-background="new    " d="M160.7,928.7c8.3-4.8,18.6-5.8,27.9-7.3
		c3.4-0.6,37.9-4.1,26.7,4.2C206.3,932.3,167.8,938.9,160.7,928.7C168.1,924.4,161.7,930,160.7,928.7z"/>
	<path d="M295.8,778.2c-4.3-12.2,16.6-45.2,29.8-43.4c-1.4,7.9-11.4,13.2-15.4,20.4C306,763.1,303.6,772.9,295.8,778.2
		C293.9,772.6,297.1,777.4,295.8,778.2z"/>
	<path d="M324.8,750c-0.4,3.7-8.7,24.4-12.5,18.3C309.3,763.2,319.9,750,324.8,750C324.7,752,323.3,750,324.8,750z"/>
	<path d="M689.9,655.1c-3.5-5.4,1.2-35.1,7.8-29.8C693.6,634.8,692,645.1,689.9,655.1C688.7,653.2,692.2,644.1,689.9,655.1z"/>
	<path d="M698.9,649.7c-5.3,2.2-2.3-15.8,2.7-18C702.7,634.7,698.9,645.8,698.9,649.7C696.5,650.7,698.9,646.4,698.9,649.7z"/>
	<path d="M200.1,968.4c1.6,1.1,3.1,2.2,4.6,3.3c2.6-6.6,7.5-4.8,6.5-3.2c-3.1,5.2-6.1,10-8.9,15.3
		C199,981.2,196.9,971.2,200.1,968.4C201.7,969.4,199.7,968.8,200.1,968.4z"/>
</g>
<g>
	<path d="M1011.8,693.1c40.9-4,87.8,24.6,110.1,58.2c11.8,17.8,15.4,36.3,21.7,56.1c7.5,23.7,6.7,47.1-0.1,70.8
		c-12,41.6-57.1,71.8-100.1,69.4c-21.7-1.2-43.6-4.8-62.1-17.3c-7.5-5.1-17.2,3.5-23.2,7.6c-10.2,6.9-22,12.1-33.8,15.8
		c-21.3,6.7-42.5,3.7-63.5-3c-21.5-6.7-35.8-17.5-54.2-29.6c-5.5-3.6-19.9,5.6-25.8,6.7c-9.4,1.7-21.3,1-30.4-1.4
		c-21.3-5.6-45-14-55.5-35.1c-19.9-39.8,7.4-84.7,46.2-97.9c10.2-3.4,20.5-4.6,31.2-3.4c4.9,0.5,9.8,1.7,14.3,3.8
		c2.5-4,5.2-8,7.6-12.1c12.3-19.9,27.4-35.5,46.6-48.8c4.2-2.9,12-6.1,13.5-11.5c2.1-7.1-1.1-18.5-2.3-25.6
		c-1.3-7.8-2.9-16.1-6.5-23.3c-3-5.9-17.5-0.5-23.4-0.4c-27.7,0.2-55.2-32.8-61-57.8c-0.8-3.4-0.9-13.2-4.6-15.1
		c-7.4-3.8-18.2-4.1-26.3-6.1c-13.3-3.2-30.6-10.5-40.8-19.4c-31.6-27.4-14.9-60.9,9.4-85.5c-22.1-10-44,11.8-66.8,3.4
		c-26.4-9.7-10.3-36,8.7-43.7c22.3-9,35.5,5.7,49.4,20.7c9.9,10.7,15.9,10.9,29.3,5.8c3.2-12.7,1.6-25.9-2.5-38.3
		c7.1,11.1,7.7,24.4,7.1,37.1c2.9-1.3,8.7-2.4,9.8-6c1.3-4-0.5-8.3,2.1-12c3.3,1.9,1.9,10.5,2,13.6c4.9-1.4,13.2-1.4,13.4-7
		c0.4-7.7-1.5-15.2-0.7-22.9c1.5-14.9,13-28.5,25.6-35.7c11.1-6.3,17.8-20.8,27-30.9c11.6-12.6,26.1-22.3,42.8-27
		c15.2-4.2,32.6-4.7,47.7-0.1c7.7,2.3,16.6,5.3,23,10.5c8,6.5,7.4,12.3,18.6,7.8c34.1-13.6,67.4-20,99.1,3.1
		c11.1,8.1,24.2,18.7,29.9,31.6c2.5,5.5,0.5,15.4,4.9,19.4c4.9,4.6,12.6,6.1,17.8,10.9c26,23.5,25.4,65.5,17.3,96.7
		c-4,15.2-11.9,34-24.7,44c-4.2,3.2-10.8,5-10.6,11.3c0.4,9.8,0.4,19.7-0.5,29.5c-1.6,19.1-17.5,30.6-32.1,40.7
		C1023.3,660.5,1017,677.8,1011.8,693.1C1015.9,692.7,1012.9,690.1,1011.8,693.1z M951.2,907.3c3.7-6,40.2,22.1,47.7,25.2
		c20,8.3,45,11.7,66.2,7c45.6-10,68.8-60.6,70.5-103.6c1-25.5-4.2-45.9-14-69.6c-9.3-22.3-28.6-36-47.4-50
		c-18.1-13.4-41.7-18.6-63.8-19.4c-1.2,4.5-2.3,18.5-7.2,20.6c-5.6,2.5-6.3-18.9-7.4-23.1c-16.1,8.7-32.3,11.8-46.3,25.2
		c-6.8,6.6-12.9,13.9-19.4,20.8c-4.4,4.8-8.1,1.1-3.8-3.7c5.5-6.2-10.2-10.8-14.4-12c-11.6-3.4-3.5,12.4-10.6,17.4
		c-5.3,3.8-6.7-12.6-7.2-15c-1.8-9.2-10.6-5.6-18-4c-18.6,4.1-35.3,14.2-49.2,27c-12.3,11.3-29.2,30.6-25,48.8
		c1.4,6.2,7.7,9.4,6.1,15.8c-6-1.9-11-8.3-16.6-11.7c-18.9-11.4-40.1-8.4-59.3,1.1c-31.5,15.7-50.7,65.1-22.8,93
		c28.6,28.6,74.6,31.5,106.4,7.4c3.2-2.4,10.4-13.9,14.9-12.5c5.4,1.7,0.6,15.9,1,19.2c2.4,19,25,34,43,36.2
		c18.7,2.3,36.9,6.6,53.6-5.5C941.5,932.5,959.3,926.5,951.2,907.3C953.3,903.9,952.1,909.6,951.2,907.3z M813.5,466.3
		c4,2.5,8.9,2.4,13.4,3.7c6.4,1.9,13.4,6.8,20,7.2c10.4,0.7,21.6-23.5,26.8-30.6c14.7-19.7,46.5-5.3,56.3,12
		c6.2,10.7,10.2,21.1,3.5,32.7c-7.1,12.3-18.9,12.3-28.8,2.9c-16.4-15.5-49.6-16.6-45.3,12.2c4,25.8-10.4,48.2-29.8,63.4
		c-9.7,7.6-19.5,15.8-31,20.7c-6,2.6-12.3,4.4-18.6,6.3c-7.9,2.3-16.8-0.5-15.1,9.2c3.8,22.5,22.1,45.9,44,53
		c11.4,3.7,28.9,5.9,37.6-4.3c5.7-6.7-5.4-18-6.9-25.9c2.8-1.3,32.5,37.3,38.2,41.8c17.5,13.7,40,15,60.8,9.8
		c15.2-3.8,36.9-17,42.1-32.6c2.2-6.6,7.7,7.8,11.8,9.3c9.4,3.4,20.1-2.5,28.6-6c17.8-7.4,36.4-17.6,40.6-38.1
		c3.7-18.3,4.1-43.8-4.9-60.7c-4.7-9.1,3.3-2.5,5.8,0.6c4,5,11.1,10,17.6,6.2c8.3-4.8,11.6-18.7,15.3-26.8
		c5.3-11.8,7.6-25.9,7.6-38.8c0.1-22-4.7-39.6-18.7-56.9c-6.2-7.7-13.1-12.1-22.4-15.3c-3.6-1.3-16.1,1.1-10.8-5.7
		c4.8-6.2,12.5-7,6.7-17.5c-4.8-8.8-13.4-15.8-21-22.1c-18.5-15.2-41.9-23-65.7-18.2c-18.1,3.7-37.9,10.4-53.1,21.1
		c-9.5,6.7-4.6-0.1-3-5c2.5-7.7-6.6-16.3-12.2-19.5c-41.9-24-87.9,8-109.5,42.9c2.2,0.6,4.3,1.2,6.5,1.8
		c-8.2,8.2-21.5,8.6-30.2,16.2c-10.5,9.1-14.5,24.3-12.4,37.8c2.3,15.1,14,10.6,27.1,11c11.8,0.4,10.7,0.1,13.7-11
		c1.7-6.5,4.6-15.2,12.2-16.9c-3,5.4-14.8,21.4-9.3,27.9c6.1,7.3,16.3-14.3,24.9-13.4C820.3,454.8,816.6,460.4,813.5,466.3
		C814.8,467.2,816.6,460.3,813.5,466.3z M758.8,535.9c-4.3,30.9,31.9,39.1,54.2,33.1c25.4-6.8,44.7-30.7,40.9-57.8
		c-3.8-26.9-32.7-41.9-57.5-31.8C771.6,489.7,758.2,508.5,758.8,535.9C758.2,540.9,758.4,516.3,758.8,535.9z M759.7,503.7
		c-13.1-16.7-38.3-21.6-56.4-10c-17.6,11.2-36.1,42.1-24.3,62.5c12.7,22.2,41.8,27.7,63.9,14.9c4.9-2.8,11-7.1,13.5-12.3
		c2.6-5.2-2-12.3-2.9-17.5C751.2,527.8,754.9,515.9,759.7,503.7C758.6,502.3,758.1,507.8,759.7,503.7z M909.1,718.5
		c5.9,2.9,12.2,5,18,8c7.3,3.8,10.9-3.8,15.8-8.7c12.1-12.2,13.5-17.2,9.2-34.3c-8.7,5.3-19.1,1.3-27.1,6.2
		C917.4,694.4,912.6,710.7,909.1,718.5C910.8,719.4,910.6,715.3,909.1,718.5z M892.2,715.6c0.5-9-1.8-18.3-2.9-27.3
		c-0.5-4-4.6-10.1-7.9-3.8c-3.9,7.5-5,15.5-6.6,23.7C872.4,721.2,882.3,716.5,892.2,715.6C892.3,713.9,886.7,716.1,892.2,715.6z
		 M994.6,691c-0.4-6.7-2.5-27.6-12.2-23.7c-5.3,2.2-9.1,23.6-9.5,28.8C980,693.7,986.8,689.9,994.6,691
		C994,681.7,986.5,689.9,994.6,691z"/>
	<path d="M715.7,434.7c-0.7-1.6-1.3-3-2-4.6C716.4,428.9,718.4,433.4,715.7,434.7C715,433.2,716.1,434.6,715.7,434.7z"/>
	<path opacity="1" fill="#FFFFFF" enable-background="new    " d="M951.2,907.3c7,16.7-6,25-19.7,32.7
		c-20.3,11.4-34.6,10.3-57,7.5c-15.9-2-36.7-14.7-41.7-30.6c-2.2-7,2.9-18-0.6-23.4c-3.8-5.8-13.7,8.9-16.5,11
		c-31.9,24.1-77.9,21.2-106.4-7.4c-27.9-27.9-8.7-77.3,22.8-93c17.1-8.5,37.1-12.6,54.9-3.6c5.5,2.8,13.8,12.5,19.1,13.7
		c7.2,1.7-3.5-12.9-4.1-15.3c-4.1-17.6,10.9-33.1,21.5-45.2c13.2-15,33.4-26.3,52.8-30.6c3.5-0.8,15.4-4.8,17.1,0.6
		c1.1,3.2,1.6,19,6.3,19.2c5.1,0.2,6-15.1,7.1-19.1c4.5,0.6,25.7,6.1,19.5,13c-2.6,3-1.9,9.5,2.3,5.4c6.1-6,11.4-12.9,17.4-19.1
		c15-15.4,32.1-19,49.8-28.7c0.8,3.2,2.8,23.5,5.3,23.5c6.3,0.1,7.1-12.6,8.2-16.8c3.7-14.2,51.5,6.6,60.9,12.5
		c41.3,25.5,67.5,67.3,65.6,116.6c-1.6,39.2-19.9,99.1-65.3,108.1c-22.8,4.5-44.5,3.2-66.6-4.1c-10.5-3.4-19.5-9.6-28.8-15.6
		C971.2,916.3,955.3,900.5,951.2,907.3C952.1,909.6,953.3,903.9,951.2,907.3z M1050.4,726.7c-19.3,2.6,8.1,7.3,13.7,9.5
		c7,3,13.7,5.3,19.7,10.1c5.3,4.2,9.8,13.2,16.1,14.8c1.6-9-13.2-19.6-19.9-23.8C1070.7,731.5,1061,728.8,1050.4,726.7
		C1048.8,726.9,1054.1,727.4,1050.4,726.7z M816.4,791.1c3.7-0.4,10.4-16.6,14-20.1c3.8-3.7,16.6-8.6,18.3-13.5
		c3.4-9.4-17,7.4-18.6,8.8C825.4,770.5,810.3,783.7,816.4,791.1C819.1,790.8,814.2,788.3,816.4,791.1z M1073.4,755.6
		c3.2-3.1-19.4-19.8-24.6-9.2C1057.4,748.8,1065.2,751.7,1073.4,755.6C1073.8,755.2,1069.4,753.7,1073.4,755.6z M844.6,771.8
		c-7.6-4.9-17.5,10.1-16.4,16.8C833.6,783.4,840.4,778.3,844.6,771.8C841.2,769.7,843.9,772.8,844.6,771.8z"/>
	<path opacity="1" fill="#FFFFFF" enable-background="new    " d="M813.5,466.3c3-5.9,6.7-11.5,12.3-15.4
		c-12-1.3-12.5,15.9-21.9,14.7c-10.9-1.4,4.1-25,6.4-29.2c-14,2.9-8.7,28.3-19.4,28c-13.7-0.4-31,5.2-33.5-11.2
		c-1.9-12.2,1.1-25.6,9.5-35c9-9.9,23.9-9.8,33.1-19c-2.2-0.6-4.3-1.2-6.5-1.8c21.6-34.8,62.6-63.2,105.1-45.1
		c8.6,3.7,14.9,9.5,16.8,18.9c0.2,1.3-6.8,14.2-0.8,10.4c16.3-10.1,33-17.8,51.8-22.5c21.6-5.4,43.6-1.8,62.2,10.6
		c9,6.1,42.7,29.8,28,43.1c1-0.9-12.5,10.4-4.1,7.9c8.3-2.5,20.1,4,26,9.4c17,15.4,24,35.9,24.7,58.2c0.8,23-6.1,44.7-17.2,64.7
		c-4,7.1-11,9.7-18,5c-1.8-1.2-10.7-13.7-11.9-10.3c-1.8,4.7,5.6,18.1,6.3,23.8c1.2,10.4,1.9,21.3,0.8,31.8
		c-2.4,23.7-16.2,36.9-37.5,46c-9.1,3.9-18.9,9.4-29.1,8.7c-9.5-0.6-8.2-11.1-13.9-12.5c-11.1,14.4-20.7,27.7-39.4,33.8
		c-20.4,6.6-43,6.2-61.4-5.8c-6.8-4.4-39.7-45.7-42.2-44.6c1,5.2,11.1,19.1,9.1,23c-6.1,12-24.2,11.3-35.1,8.6
		c-23.7-6-39.9-26.4-47.4-48.9c-2.4-7.1-4.9-10.7,3.4-12.3c6.7-1.3,13.3-3.1,19.8-5.3c13.8-4.5,23.8-12.2,35.4-20.6
		c21.3-15.3,35.9-35.5,34.9-62.7c-0.3-8.3-5-16.8,3.6-22.5c13-8.7,26.3-6.2,37.8,3.1c6.8,5.5,17.2,15.7,26.5,7.5
		c10.9-9.5,11.8-24.7,4.4-36.5c-10.3-16.4-36.5-36.1-55.4-19c-9.4,8.5-14.4,27.9-26.1,33.3c-5.8,2.6-13.3-2.9-18.5-4.7
		C826.4,469.7,818.8,469.6,813.5,466.3C816.6,460.3,814.8,467.2,813.5,466.3z M982,383.6c16.3-2.9,31.9,2.2,44.7,12.4
		C1031.6,377.7,979.7,375.1,982,383.6C998.8,380.6,981.1,380.5,982,383.6z M1018,400.4c-1.6-7.6-18.8-13-23.7-7.8
		C1002.2,395.2,1010.1,397.8,1018,400.4C1017.3,396.9,1010.2,397.8,1018,400.4z"/>
	<path opacity="1" fill="#FFFFFF" enable-background="new    " d="M758.8,535.9c-0.7-27.5,12.7-46.2,37.5-56.3
		c24.7-10.1,53.7,4.9,57.5,31.8c3.9,27-15.6,51-40.9,57.8C790.8,575,754.5,566.8,758.8,535.9C758.4,516.3,758.2,540.9,758.8,535.9z
		 M787.2,549c19.3,1.6,34.7-35.4,11.6-36.4C779.5,511.7,764,549.4,787.2,549C799.3,550,782.8,549.1,787.2,549z"/>
	<path opacity="1" fill="#FFFFFF" enable-background="new    " d="M759.7,503.7c-4.2,10.6-7.6,20.7-6.8,32.3
		c1,15.2,8.6,21.7-6,32.5c-19.4,14.2-52.4,12.8-65.7-8.6C654,516.3,725.2,459.8,759.7,503.7C758.1,507.8,758.6,502.3,759.7,503.7z
		 M732.7,536.6c-5.9-19.8-27.7-16.1-31.9,3.4c-1.8,8.3-1.8,23.4,11.6,21.3C723,559.7,731.3,546.3,732.7,536.6
		C732,534.3,731.7,543.4,732.7,536.6z"/>
	<path d="M1050.4,726.7c10.6,2.1,20.3,4.8,29.6,10.6c6.7,4.2,21.4,14.8,19.9,23.8c-5.5-1.4-8.6-8-12.7-11.8
		c-5.5-5.2-12.1-9.1-19.3-11.5c-7.5-2.5-13.4-5.2-21.6-5.6C1037.6,731.6,1047.5,727.1,1050.4,726.7
		C1054.1,727.4,1048.8,726.9,1050.4,726.7z"/>
	<path d="M816.4,791.1c-6.1-7.3,9-20.6,13.8-24.7c1.6-1.4,22-18.2,18.6-8.8c-1.8,4.8-14.5,9.8-18.3,13.5
		C826.8,774.4,820.1,790.7,816.4,791.1C814.2,788.3,819.1,790.8,816.4,791.1z"/>
	<path d="M1073.4,755.6c-8.2-3.8-15.9-6.7-24.6-9.2C1054,735.8,1076.7,752.5,1073.4,755.6C1069.4,753.7,1073.8,755.2,1073.4,755.6z"
		/>
	<path d="M844.6,771.8c-4.2,6.4-11,11.5-16.4,16.8C827.1,782,836.9,767,844.6,771.8C843.9,772.8,841.2,769.7,844.6,771.8z"/>
	<path d="M982,383.6c-2.2-8.5,49.6-5.9,44.7,12.4C1013.9,385.8,998.2,380.7,982,383.6C981.1,380.5,998.8,380.6,982,383.6z"/>
	<path d="M1018,400.4c-7.9-2.6-15.8-5.3-23.7-7.8C999.1,387.4,1016.5,392.8,1018,400.4C1010.2,397.8,1017.3,396.9,1018,400.4z"/>
	<path d="M787.2,549c-23.2,0.5-7.8-37.3,11.6-36.4C821.9,513.6,806.5,550.5,787.2,549C782.8,549.1,799.3,550,787.2,549z M788,532.7
		C770,544.8,801.2,542.4,788,532.7C786.2,533.9,789.3,533.8,788,532.7z"/>
	<path d="M732.7,536.6c-1.4,9.9-7.9,18.3-16.3,23.3c-10.3,6.2-21.3-7.5-16.5-17.3c4.1-8.3,5.4-15.8,15.4-19.2
		C726,519.9,730,527.6,732.7,536.6C731.7,543.4,732,534.3,732.7,536.6z M709.2,552.7c4.9-5.2,5.1-7.7,1-11.1
		C704.3,545.3,703.9,548.7,709.2,552.7z"/>
	<path opacity="1" fill="#FFFFFF" enable-background="new    " d="M788,532.7C801.2,542.4,770,544.8,788,532.7
		C789.3,533.8,786.2,533.9,788,532.7z"/>
	<path opacity="1" fill="#FFFFFF" enable-background="new    " d="M709.2,552.7c-5.3-4-4.9-7.4,1-11.1
		C714.3,545,714.1,547.5,709.2,552.7z"/>
</g>
</svg>
