<?xml version="1.0" standalone="no"?>
<svg id="Sheep_SecretTrigger__you" xmlns="http://www.w3.org/2000/svg" xmlns:xlink="http://www.w3.org/1999/xlink" style="isolation:isolate" viewBox="0 0 1000 931.3" width="1000" height="931.3"><defs><clipPath id="_clipPath_8cfM29bvnO8uNV3nnudqZMYOgdYOGSeZ"><rect width="1000" height="931.3"/></clipPath></defs><g clip-path="url(#_clipPath_8cfM29bvnO8uNV3nnudqZMYOgdYOGSeZ)"><g opacity="0.15"><path d=" M 676.3 821.2 C 668.5 873.6 587.6 902.7 464.9 922.4 C 289 950.7 197 908.2 143.2 839.8 C 16.8 679.2 688.5 647.1 676.3 821.2 C 674.9 830.6 677.6 802 676.3 821.2 Z " fill="rgb(0,0,0)"/></g><path d=" M 381.5 766.5 C 338.7 774.1 334.6 784.6 312.9 819.8 C 315.3 792.2 250.1 773.7 240.4 769.2 C 181.2 741.4 219.3 806.8 181.8 807.8 C 170.1 769.4 159.1 720.8 156.1 681 C 110.3 663.1 66.9 636.8 32.1 602.5 C -5.7 565.3 -0.3 500.4 2.4 454.9 C 5.2 406.7 68.1 364 65.7 322 C 59.2 202.4 150 163.6 194.4 71.8 C 249.5 -42.1 408.1 -3.8 477 71.2 C 488.2 83.4 559.2 54.7 587.7 85.2 C 611.8 111 659.3 131 675.8 165.6 C 697.8 211.8 765.4 203 789.8 259.1 C 804.2 292.3 800.4 329.7 803.2 362.1 C 806.8 403.3 765.6 455.6 743.6 484.6 C 711.8 526.3 740.9 593.4 703.5 637.2 C 687 656.6 620.7 709.4 618.9 732.3 C 617 757.9 585.4 844.6 566.5 857.5 C 557.4 863.7 559 783.2 529.9 793.6 C 502.1 803.5 470.6 797.5 460 831.1 C 418.3 963.8 389.1 820.4 392.2 769.8 C 392.5 763.3 388.4 764.5 381.5 766.5 Z " fill="rgb(0,0,0)"/><path d=" M 707.7 467.6 C 685.2 440.9 722.3 392.1 684.8 370.4 C 689.8 422.3 667.4 460.1 663.4 510.2 C 667 507.3 695.4 474.7 696.3 476.6 C 712.1 508.4 715 559.7 704.7 592.7 C 680.7 669.3 635.5 689.8 566.3 710.3 C 569 723.2 578 729.7 593.5 729.6 C 552.2 791 424.4 811.2 383.5 737.9 C 392.8 737.9 467.8 741.5 464.7 717.3 C 464.9 718.9 392.7 722.8 381.1 720.1 C 345.2 711.8 331.4 686.9 301.4 671.5 C 291.8 708.5 364.7 728.6 376.9 759.1 C 320.4 759.1 300.7 766.6 247.5 753.1 C 170.2 733.3 187.2 646.7 152.8 600.6 C 125.7 617.3 148.4 649 99.1 623.1 C 77.9 611.9 61.3 608 48.6 584.7 C 23.2 538.7 21.4 487.7 28.2 438 C 31.8 411.7 72.2 347.6 99.9 371.3 C 92.5 365 116.5 466 115.8 459.1 C 112.8 430.8 110.4 406.4 117.8 377.9 C 124.9 350.5 175.9 324.2 174.8 309.6 C 133.3 301.6 132.9 348.8 106.4 355.2 C 89.1 359 96.6 231.8 98 228.6 C 110.9 199.2 130.7 173.9 156.3 154.4 C 196.5 123.8 210.3 133.2 230.6 90 C 267.1 11.9 328.7 -12.1 409.9 39.2 C 434.4 54.7 447.1 68.2 452.3 98.5 C 455.7 118.6 399.5 121.7 385.3 139.5 C 405 141.4 419.4 120.7 442.7 127.6 C 474.3 137 493.5 163 521.1 176.2 C 533.8 126.1 428.5 140 479 95.1 C 509.2 68.2 530.2 81.5 561.3 86.7 C 582.9 90.3 613 117.2 625.2 134.8 C 641.2 158 651.9 173.4 656.8 201.9 C 658 209.1 627.4 223.2 640.2 232.3 C 640.4 232.4 690.3 206.8 713.2 222.7 C 739.6 241 784 276.7 783.7 314.1 C 783.4 371.6 768.6 447.8 707.7 467.6 C 705.8 465.3 711.2 466.5 707.7 467.6 Z " fill="rgb(255,255,255)"/><path d=" M 992.3 348.4 C 973.4 357.6 864.9 310.7 864.3 318.7 C 860.8 365.7 915.6 431.1 876.7 480.8 C 830.2 540.1 768.5 589.3 688.9 588.9 C 625.2 588.5 507.3 548.1 508.6 467.3 C 509.4 417.5 585.6 286.2 486 311.8 C 455.9 319.5 443.3 354.4 408.5 355.7 C 376.8 356.8 384.5 298.4 393.1 284.2 C 422 236.9 478.9 242.6 517.6 275.9 C 567.1 318.6 540.4 306.8 596.6 291.4 C 637 280.4 673.2 273.7 716.6 272.2 C 757.2 270.9 824.1 308 859.1 292.8 C 897.5 276.2 914 234.8 965.1 258.8 C 988.2 269.7 1006.7 328.9 996.8 345.5 C 995.8 347.1 995 347.6 992.3 348.4 Z " fill="rgb(0,0,0)"/><path d=" M 736.8 322.8 C 886.3 230.5 920.7 499.7 800.2 513.9 C 681.4 527.9 763.5 385.8 732.4 324.7 L 736.8 322.8 Z " fill="rgb(255,255,255)"/><path d=" M 838.09 406.64 C 832.4 436.708 806.854 452.235 783.851 430.177 C 739.418 387.663 790.994 325.555 829.615 373.984 C 831.916 376.942 841.238 384.582 838.09 406.64 Z " fill="rgb(0,0,0)"/><path d=" M 526.2 460.7 C 543.6 409.6 539.3 359.1 588.1 322.4 C 635.7 286.8 715.2 277.8 726 356.5 C 730.9 392.7 729.9 482.3 687.5 502.2 C 622.7 532.7 521.8 500 524.6 465.7 C 524.8 462.8 525.6 462.9 526.2 460.7 Z " fill="rgb(255,255,255)"/><path d=" M 607.873 392.953 C 613.687 347.184 683.599 361.248 691.884 405.659 C 700.169 450.811 627.35 462.407 608.6 415.775 C 606.129 409.484 605.838 402.945 607.873 392.953 Z " fill="rgb(0,0,0)"/></g></svg>