<?xml version="1.0" encoding="utf-8"?>
<!-- Generator: Adobe Illustrator 16.0.0, SVG Export Plug-In . SVG Version: 6.00 Build 0)  -->
<!DOCTYPE svg PUBLIC "-//W3C//DTD SVG 1.1//EN" "http://www.w3.org/Graphics/SVG/1.1/DTD/svg11.dtd">
<svg version="1.1" id="Layer_1" xmlns="http://www.w3.org/2000/svg" xmlns:xlink="http://www.w3.org/1999/xlink" x="0px" y="0px"
	 width="1280px" height="840px" viewBox="0 0 1280 840" enable-background="new 0 0 1280 840" xml:space="preserve">
<path fill-rule="evenodd" clip-rule="evenodd" d="M949.21,268.962c-10.96,0.551-17.902-7.241-20.101-16.605
	c-2.484-10.58-8.61-12.552-18.215-13.899c-8.16-1.146-16.627,5.581-19.617,13.552c-1.958,5.222-4.707,10.188-7.469,15.059
	c-4.604,8.113-16.91,9.896-24.406,7.017c-10.057-3.863-16.275-11.264-17.835-21.868c-0.515-3.484,0.703-7.432,1.883-10.913
	c3.305-9.744,10.716-14.868,20.35-17.604c5.812-1.648,11.701-3.508,17.007-6.314c6.194-3.276,7.136-13.778,2.252-18.825
	c-1.984-2.051-4.174-3.926-6.386-5.736c-7.973-6.519-10.977-16.203-7.976-25.377c2.01-6.144,7.598-10.17,13.478-13.009
	c7.952-3.838,16.529-6.644,23.868-11.391c4.19-2.711,6.808-8.194,9.49-12.805c2.677-4.599,3.108-10.493,7.913-13.883
	c1.731-1.22,3.47-2.672,5.433-3.271c5.124-1.563,10.503-2.403,15.729-0.959c4.719,1.304,8.104,4.971,10.236,9.14
	c2.455,4.796,4.021,10.056,5.871,15.152c2.312,6.361,5.975,12.141,11.582,15.519c4.123,2.484,9.615,2.863,14.574,3.741
	c6.577,1.164,13.471,1.094,19.79,3.011c8.977,2.725,14.964,9.473,17.341,18.517c0.913,3.469-0.412,7.559-0.883,11.346
	c-0.222,1.779-0.862,3.501-1.266,5.261c-1.578,6.872-8.879,12.385-16.021,13.46c-5.388,0.81-10.732,2.659-15.771,4.809
	c-4.283,1.828-4.833,6.354-4.971,10.502c-0.288,8.685-0.743,17.388-5.099,25.136c-5.949,10.586-14.162,18.6-26.64,21.026
	C952.008,269.013,950.592,268.901,949.21,268.962z M1014.002,182.494c-0.345-13.044-6.849-18.31-17.997-18.404
	c-3.958-0.033-5.742,3.011-3.499,6.277c1.692,2.464,3.78,4.728,5.996,6.749c4.061,3.703,7.008,7.93,8.15,13.41
	c0.256,1.231,1.496,2.259,2.286,3.38c1.071-0.957,2.687-1.723,3.104-2.911C1013.007,188.271,1013.387,185.341,1014.002,182.494z"/>
<path fill-rule="evenodd" clip-rule="evenodd" d="M933.54,601.525c0.187,4.485-0.033,8.711-2.704,12.769
	c-3.898,5.921-9.379,8.869-16.067,9.503c-14.796,1.394-24.929-6.77-32.983-17.699c-4.076-5.528-4.566-12.727-3.559-19.431
	c0.485-3.228,2.643-6.6,4.94-9.068c4.155-4.456,8.868-8.42,13.563-12.332c3.92-3.268,5.684-10.357,3.582-16.5
	c-2.706-7.909-8.921-9.955-16.005-11.725c-12.146-3.036-16.104-8.974-17.637-19.824c-1.203-8.506,1.596-15.504,6.231-21.536
	c5.726-7.448,13.698-12.73,23.283-13.863c3.184-0.375,7.242,1.436,9.96,3.491c4.769,3.607,8.997,7.931,12.14,13.263
	c3.125,5.304,7.728,8.98,13.94,10.508c5.236,1.286,12.787-2.347,13.318-7.504c0.345-3.384-1.191-6.985-2.028-10.455
	c-2.642-10.927-2.547-21.612,2.541-31.919c3.74-7.567,10.367-11.238,18.158-12.979c3.281-0.732,6.596-2.288,10.222-0.553
	c8.299,3.967,12.698,10.869,14.549,19.434c2.276,10.511,0.135,20.284-6.479,28.869c-4.657,6.045-8.753,12.31-10.815,19.797
	c-2.258,8.204,0.861,19.896,12.539,21.837c3.165,0.528,6.512-0.133,9.742,0.137c5.43,0.454,10.822,1.322,16.25,1.813
	c4.336,0.39,8.345,1.352,11.09,5.038c6.349,8.525,10.294,17.803,6.488,28.459c-1.836,5.144-4.321,10.322-7.648,14.605
	c-4.934,6.354-11.608,11.219-19.734,12.316c-7.201,0.974-18.736-2.944-23.113-11.382c-2.352-4.53-6.019-7.944-10.186-10.719
	c-6.425-4.283-12.647-1.885-18.062,1.852c-4.9,3.379-9.533,7.457-13.297,12.039c-1.879,2.29-1.571,6.39-2.204,9.682
	C933.431,600.117,933.54,600.833,933.54,601.525z M979.876,467.347c-0.534-5.649-2.757-8.946-7.938-9.849
	c-1.761-0.308-3.835,1.185-5.765,1.855c0.673,1.241,1.104,2.722,2.06,3.682c3.224,3.235,4.393,7.378,5.617,11.55
	c0.221,0.752,0.916,1.367,1.393,2.044c0.67-0.478,1.688-0.815,1.944-1.459C978.214,472.615,979.002,469.962,979.876,467.347z"/>
<path fill-rule="evenodd" clip-rule="evenodd" d="M594.9,644.89c-4.764-0.965-9.961-1.048-14.189-3.111
	c-5.884-2.871-9.684-8.282-10.621-15.012c-0.77-5.528-0.571-11.21-1.58-16.68c-0.926-5.006-4.049-9.219-8.028-12.302
	c-3.327-2.58-7.116-4.852-11.056-6.271c-3.75-1.354-7.939-1.718-11.972-1.997c-5.971-0.414-9.607-4.076-12.257-8.679
	c-2.563-4.45-4.566-9.264-6.41-14.075c-2.225-5.801-6.38-9.623-11.736-12.177c-7.536-3.592-15.216-6.88-22.842-10.279
	c-6.708-2.99-10.193-8.549-11.276-15.419c-1.083-6.886,2.991-11.89,8.069-15.646c3.926-2.906,8.422-5.211,12.95-7.095
	c7.21-3.003,14.497-1.303,21.727,0.597c5.983,1.575,12.037,3.916,18.077,3.969c7.405,0.065,14.254-3.453,19.962-8.287
	c1.617-1.369,2.123-4.149,2.937-6.354c3.636-9.841,8.857-18.35,17.555-24.789c7.581-5.615,15.685-8.762,25.011-8.145
	c13.651,0.901,24.616,6.481,31.148,19.136c3.744,7.249,4.686,15.047,4.164,23.008c-0.329,5.071-0.679,10.303-2.172,15.104
	c-2.1,6.759-5.898,12.773-11.861,17.003c-5.074,3.6-10.302,6.986-15.416,10.533c-7.018,4.865-10.58,16.08-7.561,24.898
	c3.806,11.113,8.472,21.846,14.435,32.036c1.816,3.106,2.333,7.036,3.135,10.657c1.691,7.632-0.457,14.63-4.455,21.006
	C607.114,642.136,601.874,645,594.9,644.89z M620.523,506.262c0.277-0.605,0.87-1.279,0.816-1.896
	c-0.353-4.055-0.256-8.275-1.407-12.113c-3.323-11.083-8.354-12.731-17.684-13.806c-0.939-0.109-1.999,0.829-3.202,1.372
	C607.676,487.927,616.253,495.26,620.523,506.262z"/>
<path fill-rule="evenodd" clip-rule="evenodd" d="M563.775,195.945c0-6.431,0.367-12.886-0.079-19.287
	c-0.796-11.483,12.643-24.566,23.989-23.971c9.434,0.493,17.499,3.005,23.487,10.473c5.335,6.653,6.474,14.344,4.559,22.51
	c-2.457,10.493-7.628,19.715-14.938,27.414c-3.815,4.02-9.09,6.696-13.832,9.787c-4.788,3.122-6.539,7.63-5.648,12.93
	c0.318,1.889,2.125,4.129,3.868,5.073c7.712,4.174,13.605,10.178,16.593,18.205c2.795,7.507,2.526,15.715-3.441,21.724
	c-5.72,5.758-13.093,8.445-21.574,6.001c-5.305-1.529-10.649-3.024-16.072-4.033c-6.349-1.182-15.507,6.283-17.004,13.711
	c-1.34,6.648-1.833,13.504-3.621,20.014c-3.223,11.733-9.897,21.362-22.543,23.403c-11.433,1.846-22.808,0.714-32.993-6.724
	c-7.689-5.614-13.103-12.548-16.668-21.11c-2.604-6.254-1.671-12.54,0.935-18.545c4.938-11.377,12.952-20.229,23.924-25.82
	c5.549-2.827,12.005-3.837,17.979-5.879c3.942-1.348,7.889-2.809,11.589-4.697c3.862-1.972,6.751-10.687,4.494-14.751
	c-2.261-4.066-5.452-7.676-8.568-11.188c-7.182-8.091-14.88-15.972-15.387-27.576c-0.218-4.969,1.202-9.709,5.977-12.981
	c4.084-2.797,8.074-6.029,13.108-5.703c7.254,0.47,13.535,3.893,17.046,10.334c2.549,4.675,3.987,10.06,5.264,15.289
	c0.881,3.601,3.07,5.521,6.065,6.659c2.999,1.136,5.121-0.962,7.188-2.833C562.948,209.412,565.168,203.242,563.775,195.945z
	 M588.306,167.48c0.968,1.583,1.286,2.535,1.938,3.097c5.507,4.745,6.352,11.209,6.937,17.872c0.12,1.353,1.271,2.616,1.947,3.92
	c1.168-0.942,2.987-1.671,3.378-2.868c1.258-3.824,2.533-7.791,2.756-11.762c0.201-3.588,0.008-7.868-4.25-9.596
	c-2.671-1.085-5.618-1.635-8.497-2.002C591.301,165.987,589.949,166.921,588.306,167.48z"/>
<path fill-rule="evenodd" clip-rule="evenodd" d="M297.135,595.802c-13.111,1.617-18.825-7.766-24.855-16.546
	c-1.53-2.226-2.563-4.787-3.91-7.146c-4.767-8.341-14.275-9.811-21.606-3.761c-7.12,5.875-13.783,12.4-21.357,17.604
	c-8.136,5.593-17.281,9.019-27.459,5.11c-9.862-3.787-14.756-12.03-18.109-21.219c-1.681-4.603-2.538-9.681-2.792-14.594
	c-0.471-9.098,3.612-16.415,10.541-22.146c5.838-4.828,12.596-7.971,19.811-10.079c2.359-0.689,5.005-0.407,7.354-1.116
	c10.843-3.288,19.045-10.03,24.701-19.797c2.256-3.895,4.784-7.805,6.063-12.046c1.583-5.253,2.168-10.834,2.875-16.313
	c0.983-7.629,6.6-18.221,16.64-20.271c2.632-0.539,5.103-1.921,7.74-2.368c10.418-1.773,20.989,5.497,25.038,16.269
	c3.576,9.515,2.099,18.716-1.395,27.539c-3.406,8.602-1.854,16.098,2.484,23.606c2.463,4.265,6.203,6.938,10.242,9.669
	c6.233,4.216,12.652,8.655,17.518,14.276c7.274,8.403,7.961,18.39,3.946,29c-4.465,11.806-13.745,18.153-24.385,23.058
	C303.561,595.76,300.182,595.422,297.135,595.802z M286.89,480.542c0.894-1.287,1.734-2.124,2.134-3.135
	c2.416-6.108,0.383-11.555-3.649-15.924c-3.601-3.903-8.567-4.458-13.579-2.27c-0.874,0.38-2.384,1.066-2.336,1.454
	c0.123,0.994,0.83,2.016,1.548,2.806c0.583,0.641,1.464,1.151,2.307,1.391c4.863,1.37,7.92,4.706,10.131,9.025
	C284.521,475.992,285.617,478.087,286.89,480.542z M316.503,574.304c0.262,0.16,0.522,0.321,0.783,0.482
	c0.718-0.907,1.625-1.723,2.116-2.738c0.924-1.916,1.605-3.95,2.396-5.931c3.006-7.521,0.675-17.327-5.544-22.494
	c-0.979-0.813-2.576-0.885-3.887-1.3c0.14,1.123,0.088,2.313,0.451,3.358C316.047,554.961,318.53,564.322,316.503,574.304z"/>
<path fill-rule="evenodd" clip-rule="evenodd" d="M255.293,87.606c8.063-0.602,15.026,2.068,20.879,7.785
	c9.771,9.544,10.393,21,6.699,33.175c-1.567,5.166-4.091,10.039-5.729,15.188c-1.479,4.646-3.411,9.099-2.407,14.471
	c0.866,4.625,0.56,9.415,2.18,14.073c2.691,7.737,8.439,11.394,15.914,12.391c8.439,1.126,17.001,1.304,25.473,2.236
	c8.992,0.989,16.823,3.995,21.797,12.496c3.141,5.369,1.956,10.4,0.606,15.713c-2.511,9.888-7.609,18.076-15.127,25.026
	c-9.184,8.49-25.103,11.662-36.194,6.255c-4.835-2.355-7.901-6.783-10.46-11.446c-3.111-5.666-6.021-11.45-9.328-16.999
	c-4.562-7.652-11.017-13.992-19.187-16.87c-7.089-2.497-15.073-5.406-22.831-1.65c-3.817,1.848-7.337,4.438-10.705,7.06
	c-6.504,5.066-13.766,7.925-21.914,6.576c-4.916-0.814-8.975-3.889-12.059-8.145c-5.354-7.388-5.953-15.62-4.153-24.028
	c1.502-7.024,7.053-10.718,13.482-12.737c6.868-2.156,13.931-3.682,20.87-5.623c7.417-2.074,14.156-5.582,15.942-13.654
	c0.861-3.885-0.079-8.543-1.387-12.457c-2.787-8.339-5.387-16.777-4.98-25.516c0.277-5.959,2.582-11.793,8.365-15.241
	C237.757,91.681,247.078,86.581,255.293,87.606z M253.609,101.696c5.289,7.386,13.077,12.953,13.792,22.708
	c5.008-2.116,6.38-10.239,3.116-16.61C267.248,101.419,259.398,98.308,253.609,101.696z"/>
<path fill-rule="evenodd" clip-rule="evenodd" d="M549.231,619.474c-0.612,3.788-1.377,9.409-2.458,14.972
	c-0.835,4.306-1.798,8.62-3.179,12.772c-1.988,5.969-6.359,10.168-11.458,13.596c-4.188,2.815-8.729,1.252-12.743-0.042
	c-7.547-2.435-13.295-7.613-16.425-14.914c-1.156-2.697-0.835-6.262-0.464-9.341c1.334-11.064,8.997-17.729,17.131-24.085
	c3.101-2.423,5.706-5.465,8.713-8.02c3.253-2.761,6.934-4.879,11.39-4.606c1.463,0.089,3.455,0.582,4.211,1.614
	C547.434,606.19,549.161,611.66,549.231,619.474z M539.771,625.822c3.628-4.11,3.863-9.412,2.799-14.828
	c-0.852-4.335-4.225-5.538-7.943-3.091c-0.827,0.546-1.424,1.442-1.774,1.811C535.25,615.3,537.518,620.577,539.771,625.822z"/>
<path fill-rule="evenodd" clip-rule="evenodd" d="M236.598,469.707c-0.857,2.885-1.394,5.919-2.636,8.625
	c-2.929,6.381-10.386,7.989-15.224,2.918c-5.584-5.858-11.899-10.605-18.669-14.883c-4.855-3.068-7.707-7.615-9.146-13.06
	c-1.111-4.204,3.129-11.137,8.371-14.087c12.272-6.912,22.638-2.077,30.088,7.828C234.337,453.64,235.519,461.502,236.598,469.707z"
	/>
<path fill-rule="evenodd" clip-rule="evenodd" d="M314.536,165.436c-0.558-4.591,1.459-8.668,5.118-11.699
	c5.941-4.922,11.925-9.875,18.364-14.091c7.17-4.694,17.665-0.412,20.296,7.691c3.553,10.943-0.569,20.609-10.913,25.85
	c-7.811,3.957-16.04,4.769-24.508,3.224C317.274,175.386,314.536,171.659,314.536,165.436z"/>
<path fill-rule="evenodd" clip-rule="evenodd" d="M632.515,259.186c-6.384-2.11-14.948-1.334-21.114-7.672
	c-2.426-2.49-2.575-6.904-0.284-9.582c2.817-3.291,5.267-7.026,8.548-9.763c6.551-5.465,13.127-11.139,22.019-12.638
	c3.528-0.594,8.727,1.909,10.861,5.233c4.402,6.854,4.708,14.004,1.378,21.313C650.002,254.685,643.125,258.847,632.515,259.186z
	 M640.468,227.486c2.481,3.674,4.779,7.079,7.255,10.749c1.565-3.105,1.247-5.854-0.343-8.254
	C645.951,227.821,643.717,226.768,640.468,227.486z"/>
<path fill-rule="evenodd" clip-rule="evenodd" d="M1040.553,476.182c-0.639,1.503-1.599,3.887-2.663,6.225
	c-2.944,6.471-7.22,12.153-13.811,14.742c-5.374,2.113-11.061,4.567-17.296,3.196c-2.196-0.486-4.535-0.335-6.735-0.808
	c-3.475-0.744-5.021-3.753-3.559-6.957c0.881-1.934,1.967-3.885,3.384-5.443c4.556-5.013,9.366-9.792,13.961-14.772
	c3.342-3.62,7.481-5.973,12.113-7.112C1033.18,463.476,1039.774,467.772,1040.553,476.182z"/>
<path fill-rule="evenodd" clip-rule="evenodd" d="M488.847,613.399c-2.53-0.849-6.454-1.341-9.342-3.333
	c-4.069-2.809-4.136-9.009-1.357-13.142c2.989-4.448,7.396-6.233,12.328-6.719c5.471-0.54,10.993-0.65,16.495-0.733
	c5.155-0.079,7.57,3.962,5.296,8.622C507.735,607.377,499.989,611.897,488.847,613.399z"/>
<path fill-rule="evenodd" clip-rule="evenodd" d="M878.782,304.372c-0.346,2.125-0.667,5.889-1.63,9.481
	c-0.923,3.428-8.564,7.566-12.288,7.118c-4.808-0.578-8.364-4.723-9.751-9.621c-1.731-6.125,1.814-10.623,3.709-15.667
	c0.555-1.479,1.391-2.853,2.111-4.267c2.013-3.946,6.354-5.119,10.148-2.824C876.431,291.827,878.98,296.552,878.782,304.372z"/>
<path fill-rule="evenodd" clip-rule="evenodd" d="M186.182,512.489c-6.617-0.871-12.164-0.634-16.234-4.906
	c-3.354-3.522-4.343-7.291-2.523-11.974c1.464-3.768,3.909-5.344,8.297-5.728c7.146-0.62,13.129,1.885,18.727,6.012
	c3.192,2.353,4.466,5.607,4.567,9.262c0.034,1.3-1.063,3.367-2.167,3.827C193.044,510.569,189.008,511.601,186.182,512.489z"/>
<path fill-rule="evenodd" clip-rule="evenodd" d="M1011.304,530.131c-2.715-1.233-5.593-2.21-8.101-3.776
	c-2.37-1.483-1.392-6.615,1.713-8.643c5.1-3.328,10.305-6.505,15.595-9.525c3.417-1.954,8.983-1.05,11.765,1.627
	c4.565,4.396,2.848,13.959-3.999,16.643c-2.807,1.1-5.854,1.677-8.844,2.211c-2.566,0.459-5.206,0.521-7.813,0.76
	C1011.514,529.662,1011.408,529.897,1011.304,530.131z"/>
<path fill-rule="evenodd" clip-rule="evenodd" d="M335.362,426.812c4.509-10.55,9.05-21.175,13.63-31.886
	c0.86,0.345,1.445,0.599,2.043,0.82c2.608,0.957,2.966,2.453,1.525,4.843c-7.905,13.116-12.891,27.544-18.563,41.664
	c-0.705,1.752-1.675,3.544-2.987,4.85c-0.691,0.689-2.411,0.596-3.624,0.461c-3.027-0.336-6.02-0.979-9.044-1.347
	c-4.458-0.543-8.594-3.356-9.253-7.332c-0.662-3.999,1.766-6.694,5.076-8.832C320.259,426.11,328.098,424.684,335.362,426.812z
	 M333.472,429.342c-1.927-0.471-3.5-1.343-4.877-1.102c-3.971,0.703-7.984,1.528-11.748,2.929c-3.182,1.184-5.431,3.809-4.458,7.536
	c0.874,3.336,3.432,5.163,6.948,5.407c2.714,0.19,5.431,0.324,8.724,0.516C329.756,439.839,331.477,434.977,333.472,429.342z"/>
<path fill-rule="evenodd" clip-rule="evenodd" d="M642.638,295.633c-1.763-0.733-3.693-1.186-5.209-2.236
	c-3.9-2.704-7.842-5.433-11.307-8.647c-1.464-1.361-2.933-4.447-2.331-5.883c0.797-1.903,3.531-3.999,5.589-4.174
	c5.171-0.44,10.51-2.169,15.427,2.22c4.561,4.072,5.88,13.044,1.44,17.283C645.45,294.956,644.055,295.093,642.638,295.633z"/>
<path fill-rule="evenodd" clip-rule="evenodd" d="M551.136,658.18c2.116,0.225,4.466,1.18,5.147,4.935
	c0.555,3.048,2.026,5.919,2.95,8.909c1.074,3.475,0.701,7.146-2.652,8.696c-2.698,1.247-6.396,1.637-9.261,0.899
	c-3.846-0.992-5.903-4.497-5.694-8.613c0.172-3.367,0.805-6.726,1.422-10.055C543.719,659.332,545.604,658.136,551.136,658.18z"/>
<path fill-rule="evenodd" clip-rule="evenodd" d="M212.595,234.521c-0.497,7.442-5.456,13.468-7.175,20.976
	c3.484,0.514,6.807,1,10.127,1.494c5.47,0.813,8.937,3.672,10.063,8.292c0.971,3.981-2.01,12.19-5.452,14.066
	c-1.297,0.706-3.294,0.958-4.678,0.51c-3.536-1.146-6.878-2.878-10.355-4.227c-2.082-0.807-4.235-1.547-6.424-1.933
	c-3.342-0.589-3.933-1.535-2.643-4.768c4.351-10.915,8.625-21.861,13.048-32.748c0.401-0.989,1.662-1.63,2.523-2.433
	C211.952,234.008,212.273,234.265,212.595,234.521z M209.405,258.874c-0.159-0.213-0.317-0.425-0.477-0.637
	c-1.97,1.028-4.828,1.547-5.756,3.171c-3.75,6.563-3.346,8.486,2.667,11.596c1.495,0.773,3.04,1.47,4.614,2.064
	c5.708,2.156,5.881,2.091,9.618-2.425c3.687-4.456,1.96-11.427-3.273-12.737C214.397,259.303,211.873,259.202,209.405,258.874z"/>
<path fill-rule="evenodd" clip-rule="evenodd" d="M860.479,467.419c-0.704-2.855-1.645-5.276-1.859-7.766
	c-1.222-14.07-5.762-27.657-6.978-41.721c0.63-0.189,1.263-0.376,1.895-0.566c0.748,1.789,1.839,3.514,2.187,5.376
	c1.33,7.115,2.416,14.274,3.614,21.416c0.054,0.304,0.343,0.566,0.788,1.272c2.244-1.478,4.435-2.938,6.646-4.367
	c2.938-1.901,5.894-2.757,9.255-0.801c3.309,1.923,4.774,4.66,4.766,8.417c-0.017,9.026-2.347,12.046-11.245,14.9
	C866.671,464.501,863.956,465.927,860.479,467.419z M862.713,462.862c3.342-0.953,5.652-1.466,7.856-2.268
	c5.623-2.043,7.536-5.059,6.692-10.528c-0.274-1.765-0.82-3.505-1.389-5.206c-0.901-2.696-3.051-3.784-5.574-2.405
	c-2.955,1.613-5.677,3.668-8.424,5.636c-0.576,0.412-1.23,1.339-1.152,1.938C861.266,454.205,861.989,458.356,862.713,462.862z"/>
<path fill-rule="evenodd" clip-rule="evenodd" d="M289.088,268.111c-1.316,4.038-2.799,8.244-4.051,12.518
	c-1.171,3.998-2.034,8.083-3.181,12.087c-0.259,0.902-1.134,1.625-1.726,2.433c-1.026-0.883-2.13-1.695-3.034-2.687
	c-0.287-0.315-0.104-1.121-0.032-1.688c0.62-4.854,0.652-4.682-4.166-3.943c-3.364,0.517-6.814,0.685-10.22,0.646
	c-3.1-0.035-4.653-3.773-3.447-7.468c2.506-7.676,7.637-12.463,15.6-13.818c2.154-0.367,4.499,0.252,6.737,0.561
	C283.809,267.06,286.023,267.547,289.088,268.111z M274.184,284.309c2.736,0.008,5.304,0.126,6.184-3.335
	c0.608-2.396,1.526-4.716,2.099-7.121c0.508-2.132,0.314-4.105-2.294-4.912c-3.752-1.161-11.563,1.2-14.052,4.296
	c-3.085,3.837-1.912,8.358,2.766,10.069C270.55,283.916,272.412,283.99,274.184,284.309z"/>
<path fill-rule="evenodd" clip-rule="evenodd" d="M925.705,352.307c1.235-2.192,2.33-4.48,3.737-6.559
	c3.385-4.998,7.813-8.84,13.219-11.603c2.71-1.387,5.323-2.994,7.886-4.65c4.197-2.712,4.771-4.454,3.221-9.146
	c-0.389-1.177-0.928-2.305-1.328-3.479c-0.834-2.449-2.251-2.681-4.46-1.564c-2.287,1.155-4.698,2.132-7.15,2.865
	c-4.413,1.319-9.531-1.896-10.494-6.814c-1.221-6.213,1.786-16.288,10.156-16.96c0.943-0.077,2.471,0.375,2.849,1.064
	c4.304,7.824,8.559,15.679,12.569,23.656c2.493,4.964,0.58,9.702-4.087,12.623c-6.391,3.999-13.965,6.255-18.844,12.516
	c-2.193,2.819-4.312,5.698-6.463,8.55C926.245,352.638,925.975,352.473,925.705,352.307z M940.602,315.551
	c2.438-0.844,5.164-1.613,7.696-2.798c0.558-0.261,0.928-2.263,0.531-3.004c-1.875-3.489-4.001-6.848-6.126-10.196
	c-1.678-2.646-3.543-2.863-5.845-0.833c-4.389,3.876-3.343,13.594,1.79,16.409C939.125,315.387,939.746,315.374,940.602,315.551z"/>
<path fill-rule="evenodd" clip-rule="evenodd" d="M348.527,306.413c-2.028-6.775-4.058-13.55-6.134-20.482
	c-4.625,2.152-6.041,5.635-6.427,9.923c-0.088,0.966-1.326,1.83-2.034,2.741c-0.224-1.009-0.785-2.076-0.621-3.017
	c2.245-12.803,4.578-25.591,6.931-38.375c0.258-1.402,0.771-2.756,1.694-4.049c0.72,9.712-2.617,19.028-3.188,29.351
	c7.824-4.813,13.309-11.691,20.839-15.547c0.305,0.307,0.609,0.614,0.914,0.92c-0.358,0.712-0.549,1.603-1.098,2.107
	c-4.211,3.864-8.481,7.669-12.76,11.458c-1.451,1.286-1.676,2.477-1.059,4.504c1.709,5.6,2.953,11.346,4.295,17.055
	c0.229,0.972,0.031,2.045,0.031,3.072C349.45,306.186,348.989,306.299,348.527,306.413z"/>
<path fill-rule="evenodd" clip-rule="evenodd" d="M293.961,439.985c-5.717-0.359-11.443-0.773-16.507-3.967
	c-4.638-2.922-5.353-6.222-3.415-11.214c3.378-8.7,10.386-12.767,18.675-15.281c3.324-1.007,5.966,0.205,6.679,3.4
	c0.822,3.668,1.158,7.499,1.215,11.266c0.047,3.09-2.335,3.478-4.898,3.228c-4.983-0.486-9.974-0.897-14.96-1.36
	c-1.847-0.173-2.848,0.344-3.402,2.406c-0.537,1.993-0.953,3.933,1.031,4.811c3.561,1.573,7.354,2.622,11.046,3.898
	c1.623,0.56,3.243,1.135,4.862,1.702C294.178,439.242,294.069,439.614,293.961,439.985z M297.675,425.089
	c0.292-2.612,0.974-4.687,0.629-6.572c-0.476-2.601-0.536-5.989-4.385-6.315c-4.437-0.374-11.335,4.217-12.481,8.415
	c-0.192,0.702,0.81,2.44,1.451,2.546C287.667,423.952,292.493,424.453,297.675,425.089z"/>
<path fill-rule="evenodd" clip-rule="evenodd" d="M658.313,161.526c-5.619,2.609-12.161-2.253-12.647-8.596
	c-0.618-8.049,4.216-13.189,9.506-17.943c2.12-1.905,4.919-3.231,7.616-4.284c4.67-1.823,6.914-1.087,9.379,3.254
	c2.19,3.86,4.184,7.84,2.142,12.679c-0.89,2.107-1.838,2.322-3.584,1.722c-4.567-1.566-9.193-2.98-13.661-4.789
	c-2.339-0.948-3.604-0.284-4.732,1.628c-0.746,1.265-1.57,2.482-2.354,3.723c-3.136,4.962-1.002,10.202,4.694,11.575
	C655.756,160.756,656.823,161.101,658.313,161.526z M668.398,145.882c3.486,0.072,5.145-2.58,4.168-5.194
	c-0.663-1.773-1.626-3.445-2.565-5.1c-1.295-2.279-3.36-4.348-5.675-2.183c-2.117,1.98-3.186,5.089-4.662,7.731
	c-0.075,0.136,0.274,0.68,0.535,0.809C663.223,143.428,666.269,144.867,668.398,145.882z"/>
<path fill-rule="evenodd" clip-rule="evenodd" d="M613.436,142.217c5.141,0.305,10.278,0.751,15.422,0.835
	c1.716,0.028,3.831-0.417,5.066-1.466c1.316-1.121,1.804-3.211,2.656-4.88c-1.204-0.407-2.381-0.93-3.614-1.197
	c-2.307-0.503-4.679-0.72-6.963-1.299c-6.714-1.701-5.514-10.472-1.661-12.871c3.672-2.286,7.857-4.092,12.058-5.04
	c2.102-0.474,4.886,1.184,7.059,2.411c0.759,0.428,1.126,2.612,0.792,3.729c-1.815,6.048-3.848,12.034-5.922,18.001
	c-2.036,5.857-6.482,5.75-11.132,5.273c-3.804-0.389-7.64-0.46-11.445-0.826c-1.002-0.096-1.948-0.761-2.92-1.164
	C613.034,143.223,613.234,142.72,613.436,142.217z M635.712,133.712c0.857-0.494,2.826-0.954,3.46-2.134
	c1.195-2.222,1.728-4.832,2.34-7.329c0.919-3.771-0.946-6.033-4.759-5.318c-2.815,0.528-6.117,1.241-8.017,3.091
	c-1.834,1.785-2.375,5.081-2.967,7.824c-0.144,0.658,1.617,2.175,2.752,2.563C630.521,133.091,632.717,133.209,635.712,133.712z"/>
<path fill-rule="evenodd" clip-rule="evenodd" d="M638.184,642.252c-1.358-1.214-2.979-2.156-3.863-3.565
	c-1.655-2.634-3.23-5.43-4.146-8.373c-0.488-1.569-0.125-4.158,0.93-5.27c1.464-1.543,3.839-2.372,6.271-0.944
	c0.921,0.541,2.165,0.539,3.264,0.772c3.898,0.827,5.954,3.485,6.912,7.119c0.803,3.031,0.218,5.884-2.496,7.611
	C643.238,640.761,640.971,641.215,638.184,642.252z"/>
<path fill-rule="evenodd" clip-rule="evenodd" d="M622.473,432.824c-3.938,3.137-7.877,6.273-11.857,9.444
	c-3.456-6.825-4.952-25.771-2.16-27.01c1.018,6.848,2.031,13.678,3.176,21.382c4.098-3.197,7.739-5.586,10.725-8.618
	c1.04-1.058,0.469-3.705,1.161-5.741c2.717,6.063,1.843,12.952,3.651,19.568c5.033-2.785,9.652-5.386,14.334-7.872
	c0.621-0.333,1.558-0.08,2.348-0.101c-0.436,0.746-0.69,1.748-1.333,2.193c-4.923,3.407-9.912,6.729-14.91,10.027
	c-0.737,0.485-1.646,0.72-2.475,1.069c-0.319-0.974-0.882-1.937-0.911-2.917c-0.112-3.615-0.045-7.238-0.045-10.857
	C623.609,433.203,623.041,433.015,622.473,432.824z"/>
<path fill-rule="evenodd" clip-rule="evenodd" d="M470.05,158.947c0.25-5.088,3.402-10.954,10.582-14.536
	c3.867-1.93,8.827,0.77,11.629,5.223c4.847,7.704,0.552,14.856-5.192,19.655c-1.649,1.377-3.852,2.706-5.901,2.88
	C473.517,172.816,470.05,169.32,470.05,158.947z M480.528,169.508c0.538-0.218,2.148-0.559,3.378-1.434
	c2.818-2.006,6.377-4.077,6.09-7.906c-0.28-3.715-1.824-7.387-3.139-10.956c-1.017-2.761-3.627-3.33-6.125-1.74
	c-5.096,3.245-7.856,7.923-8.569,13.87C471.678,165.384,475.395,169.537,480.528,169.508z"/>
<path fill-rule="evenodd" clip-rule="evenodd" d="M1049.326,255.55c-5.309,3.301-5.496,2.879-7.513-2.583
	c-2.009-5.445-5.041-10.511-7.553-15.775c-0.564-1.185-1.274-2.561-1.133-3.754c0.18-1.514,2.804-1.674,3.878-0.325
	c0.764,0.959,1.442,1.985,2.172,2.997c1.876-3.176,3.53-6.167,5.372-9.035c2.064-3.214,4.914-3.655,7.611-0.999
	c1.673,1.65,3.004,3.697,4.252,5.713c1.956,3.169,3.773,6.429,5.525,9.717c0.546,1.026,0.692,2.267,1.154,3.863
	c-3.873-0.823-4.286-4.015-5.761-6.151c-2.367-3.429-4.405-7.083-6.707-10.561c-1.478-2.237-3.361-1.666-4.31,0.281
	c-1.898,3.896-3.903,7.887-4.784,12.067c-0.419,1.988,1.438,4.611,2.631,6.744C1045.635,250.381,1047.483,252.804,1049.326,255.55z"
	/>
<path fill-rule="evenodd" clip-rule="evenodd" d="M472.345,507.646c1.158-6.213,2.273-12.435,3.495-18.634
	c0.48-2.433,1.214-4.813,1.802-7.223c0.701-2.882-1.696-4.055-3.236-5.625c-4.726-4.828-9.612-9.499-14.223-14.433
	c-0.918-0.985-0.889-2.854-1.295-4.315c0.281-0.094,0.561-0.189,0.842-0.282c6.271,4.535,12.542,9.072,19.167,13.863
	c3.719-8.757,2.268-17.941,7.308-25.205c0.08-0.115,0.618,0.088,0.416,0.054c-4.539,20.67-9.066,41.285-13.593,61.898
	C472.8,507.712,472.573,507.68,472.345,507.646z"/>
<path fill-rule="evenodd" clip-rule="evenodd" d="M566.449,135.048c-1.795-0.966-2.834-1.524-3.416-1.838
	c-4.594,1.782-8.807,3.727-13.208,5.042c-5.973,1.785-9.263-0.943-8.956-6.974c0.289-5.694,7.68-17.415,13.76-18.224
	c2.49-0.331,5.026-0.396,7.54-0.365c0.529,0.006,1.072,0.94,1.556,1.493c0.12,0.134,0.019,0.448,0.047,0.677
	C564.622,121.291,565.476,127.722,566.449,135.048z M561.864,128.158c-0.289-1.667-0.548-3.338-0.877-4.998
	c-0.288-1.436-0.578-2.88-1.002-4.279c-0.873-2.884-3.559-4.041-6.225-2.717c-5.578,2.77-8.46,7.775-9.983,13.379
	c-1.426,5.253,1.814,7.82,7.062,6.101c2.669-0.875,5.253-2.016,7.931-2.865C561.116,132.033,562.2,130.669,561.864,128.158z"/>
<path fill-rule="evenodd" clip-rule="evenodd" d="M580.499,134.527c1.104-6.02,2.047-11.119,2.97-16.222
	c0.405-2.226,0.741-4.462,1.155-6.685c0.498-2.69,1.685-3.016,4.016-1.71c1.162,0.65,2.87,0.819,4.203,0.558
	c2.528-0.496,4.946-1.521,7.442-2.214c3.605-1.002,5.996,0.557,5.747,4.264c-0.261,3.917-1.21,7.793-1.945,11.671
	c-0.396,2.105-0.877,4.205-1.504,6.251c-0.279,0.911-1.011,1.684-1.538,2.52c-0.398-0.12-0.797-0.239-1.197-0.359
	c0.188-1.445,0.277-2.913,0.591-4.332c0.921-4.182,2.326-8.299,2.804-12.526c0.504-4.468-1.715-5.635-6.112-4.275
	c-6.741,2.084-10.323,6.166-10.621,13.51c-0.112,2.863,0.458,6.653-3.101,8.537C582.849,133.81,582.205,133.942,580.499,134.527z"/>
<path fill-rule="evenodd" clip-rule="evenodd" d="M993.592,287.732c1.525,2.332,2.644,4.91,4.52,6.684
	c2.345,2.218,4.598,0.023,6.709-1.208c0.886-0.517,1.758-1.054,2.829-1.276c-1.261,3.885-4.643,5.551-7.884,5.856
	c-3.782,0.357-7.292-1.653-9.151-5.354c-3.78-7.519-2.643-15.025,0.836-22.207c0.939-1.939,3.034-3.622,5.978-2.111
	c3.731,1.915,7.197,4.043,8.018,8.469c0.228,1.226-0.457,3.199-1.412,3.959C1000.877,283.05,997.405,285.158,993.592,287.732z
	 M991.08,279.345c0.341,1.477,0.461,3,1.093,4.265c0.301,0.598,1.95,1.23,2.366,0.944c2.419-1.659,4.7-3.533,6.912-5.465
	c0.521-0.455,1.053-1.757,0.806-2.092c-1.713-2.307-3.232-5.426-5.593-6.403c-2.599-1.075-3.636,2.34-4.557,4.458
	C991.534,276.364,991.413,277.874,991.08,279.345z"/>
<path fill-rule="evenodd" clip-rule="evenodd" d="M886.614,399.935c2.266,0.555,3.573,0.876,4.792,1.175
	c1.784,10.759,3.525,21.486,5.359,32.201c0.571,3.337,1.55,6.606,2.041,9.949c0.301,2.044,0.185,4.191-0.054,6.254
	c-0.091,0.77-1.069,1.434-1.641,2.145c-0.806-0.718-2.169-1.329-2.323-2.167c-0.691-3.78-0.979-7.633-1.528-11.442
	c-1.217-8.397-2.415-16.8-3.806-25.171C888.779,408.806,887.697,404.798,886.614,399.935z"/>
<path fill-rule="evenodd" clip-rule="evenodd" d="M516.477,470.418c-2.513,0.56-5.001,1.305-7.544,1.65
	c-9.205,1.253-14.263-6.063-11.529-14.908c1.604-5.188,4.27-10.021,8.57-13.715c2.685-2.307,6.119-2.643,8.716-0.605
	c2.962,2.319,5.053,8.026,3.686,10.354c-0.376,0.64-1.122,1.194-1.825,1.487c-4.062,1.697-8.103,3.473-12.265,4.883
	c-2.79,0.945-4.568,2.887-4.156,5.42c0.265,1.617,2.378,3.525,4.088,4.16c2.087,0.775,4.619,0.412,6.958,0.433
	c1.741,0.013,3.483-0.15,5.225-0.23C516.425,469.702,516.451,470.06,516.477,470.418z M502.236,457.582
	c3.732-1.422,7.411-2.722,10.991-4.253c1.028-0.44,2.285-1.42,2.541-2.391c0.691-2.62-0.288-5.123-2.579-6.437
	c-1.185-0.681-3.494-0.724-4.592,0.004C504.188,447.433,501.01,451.248,502.236,457.582z"/>
<path fill-rule="evenodd" clip-rule="evenodd" d="M330.79,127.274c-1.582-1.172-3.663-2.033-4.628-3.587
	c-1.393-2.238-0.431-4.543,1.427-6.482c3.703-3.864,8.199-5.182,13.239-3.828c3.863,1.037,4.908,5.929,2.035,8.681
	C339.682,125.106,335.719,126.322,330.79,127.274z"/>
<path fill-rule="evenodd" clip-rule="evenodd" d="M1045.938,547.068c-2.158-1.264-5.281-2.797-7.984-4.875
	c-0.692-0.532-0.654-3.252,0.065-4.175c2.892-3.719,6.971-5.893,11.615-6.339c1.453-0.142,3.468,1.168,4.525,2.408
	c1.62,1.899,1.639,4.425,0.126,6.524C1052.419,543.2,1051.104,546.542,1045.938,547.068z"/>
<path fill-rule="evenodd" clip-rule="evenodd" d="M318.198,293.28c-2.071,3.083-5.981,3.765-9.712,4.631
	c-4.108,0.954-7.947,0.085-10.665-3.238c-3.303-4.041-3.489-8.694-1.606-13.475c2.702-6.86,7.563-11.402,14.933-12.191
	c2.616-0.279,5.48,1.39,8.149,2.383c0.349,0.13,0.22,1.543,0.311,2.361c-0.813,0.032-1.834,0.395-2.407,0.04
	c-5.777-3.584-11.831-2.079-14.808,4.126c-1.593,3.321-2.749,6.893-3.729,10.455c-0.798,2.902,2.559,6.981,5.586,6.736
	C308.922,294.729,313.558,293.912,318.198,293.28z"/>
<path fill-rule="evenodd" clip-rule="evenodd" d="M1031.689,266.742c-1.323,3.235-7.727,7.222-10.535,7.021
	c-2.994-0.215-7.231-3.896-8.196-7.417c-1.293-4.714-1.284-9.331,1.159-13.83c2.395-4.411,7.447-5.01,10.727-1.076
	c2.638,3.166,2.54,5.261-0.418,8.289c-1.449,1.484-3.225,2.748-4.315,4.455c-0.851,1.333-1.513,3.371-1.123,4.783
	c0.669,2.422,3.02,1.914,4.806,1.255C1026.34,269.285,1028.775,268.045,1031.689,266.742z M1017.641,263.352
	c1.833-1.942,3.5-3.488,4.868-5.266c0.627-0.815,1.251-2.632,0.862-3.052c-1.287-1.384-2.948-2.544-4.676-3.314
	c-0.414-0.183-1.863,1.352-2.472,2.324C1014.375,257.003,1015.312,259.773,1017.641,263.352z"/>
<path fill-rule="evenodd" clip-rule="evenodd" d="M536.575,464.702c-1.951-18.287-3.863-36.206-5.825-54.6
	c3.297,0.649,3.633,2.735,3.829,4.644c1.002,9.842,1.719,19.719,2.89,29.541c0.612,5.118,2.024,10.14,2.942,15.228
	C540.853,461.952,540.081,463.867,536.575,464.702z"/>
<path fill-rule="evenodd" clip-rule="evenodd" d="M258.819,239.229c-4.421,10.325-8.832,20.456-13.085,30.652
	c-1.334,3.2-2.45,6.527-3.285,9.889c-0.669,2.696-2.216,3.182-5.457,2.624c1.211-3.667,2.09-7.336,3.6-10.726
	c4.912-11.039,10.052-21.975,15.26-33.288C256.782,238.648,257.861,238.957,258.819,239.229z"/>
<path fill-rule="evenodd" clip-rule="evenodd" d="M593.629,425.944c-0.731,4.777-2.844,9.594-7.542,12.768
	c-4.093,2.767-7.936,1.341-10.432-3.053c-5.273-9.281-1.25-12.887,4.989-18.846c0.593-0.566,1.641-0.795,2.511-0.908
	C587.415,415.359,593.621,420.927,593.629,425.944z M590.845,427.317c0.021-4.211-2.94-8.561-5.881-9.072
	c-1.148-0.199-2.819,0.73-3.74,1.656c-0.849,0.855-1.115,2.365-1.459,3.633c-0.762,2.813-1.875,5.638-1.994,8.494
	c-0.18,4.272,3.364,6.157,7.074,4.132C588.808,433.995,590.38,430.386,590.845,427.317z"/>
<path fill-rule="evenodd" clip-rule="evenodd" d="M553.75,448.943c-0.824-0.858-2.217-1.622-2.385-2.594
	c-1.987-11.587-3.811-23.206-5.629-34.823c-0.543-3.471-1.082-6.957-1.324-10.455c-0.088-1.281,0.693-2.623,1.076-3.938
	c0.355-0.003,0.713-0.01,1.068-0.013c0.418,1.093,1.083,2.154,1.209,3.277c0.775,6.772,1.158,13.604,2.189,20.337
	c1.208,7.91,2.958,15.74,4.443,23.609c0.229,1.208,0.289,2.45,0.43,3.674C554.467,448.328,554.107,448.634,553.75,448.943z"/>
<path fill-rule="evenodd" clip-rule="evenodd" d="M916.194,414.253c0.461,3.565,0.899,7.138,1.385,10.705
	c0.261,1.902,0.217,3.98,1.014,5.64c0.804,1.676,2.521,4.146,3.757,4.1c2.008-0.075,4.606-1.466,5.749-3.13
	c1.5-2.188,2.095-5.131,2.584-7.839c0.401-2.238,0.002-4.619,0.153-6.92c0.04-0.631,0.785-1.212,1.207-1.815
	c0.492,0.531,1.403,1.057,1.41,1.592c0.049,6.104,1.052,12.384-3.591,17.603c-2.079,2.341-8.015,4.597-10.908,3.49
	c-0.844-0.323-1.636-1.256-2.063-2.104c-3.022-6.001-4.366-12.418-4.071-19.107c0.04-0.937,1.44-1.814,2.21-2.721
	C915.418,413.914,915.806,414.083,916.194,414.253z"/>
<path fill-rule="evenodd" clip-rule="evenodd" d="M955.524,430.37c-7.674-7.026-7.89-13.85-1.98-23.221
	c1.589-2.52,3.804-4.727,6.04-6.732c1.713-1.534,3.925-1.434,5.416,0.541c1.474,1.955,3.318,3.998,3.802,6.261
	c1.078,5.001-1.037,7.19-6.991,8.331c-2.555,0.488-5.158,0.803-7.646,1.52c-0.778,0.223-1.901,1.634-1.765,2.262
	c0.657,3.045,1.694,6.005,2.587,9C955.188,429.002,955.346,429.689,955.524,430.37z M953.542,414.495
	c3.586-0.623,6.657-1.271,9.764-1.664c3.233-0.408,3.2-2.771,2.773-4.876c-0.476-2.341-0.987-5.063-4.134-5.521
	c-0.474-0.067-1.146,0.217-1.518,0.563C957.254,405.958,954.362,409.113,953.542,414.495z"/>
<path fill-rule="evenodd" clip-rule="evenodd" d="M238.297,425.502c1.363-4.361,2.598-8.768,4.125-13.071
	c1.62-4.563,3.402-9.078,5.374-13.498c0.492-1.107,1.98-1.77,3.011-2.637c0.157,1.072,0.529,2.165,0.434,3.212
	c-0.367,3.989,2.89,3.167,4.899,3.577c4.422,0.902,8.917,1.445,13.38,2.162c0.372,0.061,0.713,0.324,1.024,1.371
	c-1.963,0-3.937,0.135-5.885-0.03c-4.411-0.368-8.804-0.995-13.219-1.254c-0.926-0.054-2.44,0.807-2.797,1.631
	c-2.512,5.789-4.761,11.689-7.184,17.519c-0.317,0.762-1.142,1.314-1.73,1.965C239.25,426.133,238.774,425.818,238.297,425.502z"/>
<path fill-rule="evenodd" clip-rule="evenodd" d="M508.521,128.975c8.193,4.276,12.478-1.78,18.313-4.205
	c-0.784,1.051-1.421,2.27-2.382,3.123c-2.548,2.258-5.069,4.621-7.92,6.439c-2.169,1.385-2.78,3.047-2.759,5.361
	c0.049,5.264,0.015,10.53,0.015,16.834c-1.407-1.234-2.583-1.757-2.66-2.409C510.214,146.231,509.461,138.325,508.521,128.975z"/>
<path fill-rule="evenodd" clip-rule="evenodd" d="M629.023,311.699c0.044,4.181-2.059,7.011-4.444,7.059
	c-2.27,0.047-4.554-2.769-4.878-5.851c-0.09-0.859-0.506-1.689-0.797-2.522c-1.03-2.943,0.602-4.396,2.941-5.683
	c2.671-1.469,3.932,0.403,4.987,2.093C627.944,308.573,628.573,310.653,629.023,311.699z"/>
<path fill-rule="evenodd" clip-rule="evenodd" d="M975.341,286.023c-2.972,2.617-5.784,5.453-8.975,7.771
	c-2.056,1.496-2.498,2.841-1.727,5.16c1.295,3.894,4.192,7.445,2.542,12.809c-1.096-0.876-2.416-1.394-2.73-2.271
	c-1.887-5.295-3.588-10.659-5.232-16.037c-0.244-0.803,0.14-1.798,0.232-2.703c0.809,0.155,1.918,0.029,2.377,0.515
	c2.305,2.453,3.797,0.551,5.477-0.791c2.354-1.881,4.752-3.71,7.131-5.562C974.737,285.285,975.038,285.655,975.341,286.023z"/>
<g>
	<path fill-rule="evenodd" clip-rule="evenodd" d="M953.994,684.619c5.914,0.287,8.061,2.013,7.388,5.579
		c-0.387,2.051-2.184,4.026-3.762,5.614c-3.204,3.225-6.763,6.042-11.654,6.173c-4.488,0.119-6.854,2.392-7.204,6.867
		c-0.426,5.405-0.947,10.798-1.342,16.204c-0.053,0.731,0.582,1.506,0.566,2.263c-0.021,0.725-0.269,1.824-0.77,2.074
		c-0.549,0.281-1.821,0.081-2.225-0.389c-2.084-2.398-3.563-4.829-2.662-8.499c1.988-8.017,3.481-16.165,5.078-24.276
		c0.521-2.645,0.652-5.36,1.135-8.012c0.105-0.604,0.844-1.469,1.396-1.557C945.186,685.817,950.457,685.118,953.994,684.619z
		 M940.392,699.841c5.252,0.107,9.242-1.204,12.159-4.217c1.398-1.445,1.387-4.263,2.012-6.463c-1.99-0.249-3.971-0.655-5.969-0.704
		c-2.141-0.058-4.632-0.112-5.585,2.298C941.923,693.517,941.331,696.48,940.392,699.841z"/>
	<path fill-rule="evenodd" clip-rule="evenodd" d="M1042.469,692.338c1.021-7.944,1.982-15.537,2.953-23.128
		c0.521-4.075,5.042-3.98,7.021-6.574c0.083-0.107,1.512,0.818,2.286,1.243c-4.042,7.187-5.892,14.718-6.985,22.396
		c-0.838,5.912-0.959,11.91-1.574,17.854c-0.107,1.03-0.905,2.618-1.701,2.837c-4.449,1.268-8.818,3.611-13.696,1.486
		c-4.559-1.98-5.605-6.379-2.345-10.111C1032.077,694.167,1036.414,691.636,1042.469,692.338z M1035.596,706.597
		c5.355,0.218,5.748-0.249,5.384-5.625c-0.079-1.123,0.641-2.323,0.521-3.436c-0.091-0.787-0.871-2.024-1.512-2.144
		c-2.319-0.419-6.509,2.4-7.362,4.642C1031.467,703.06,1033.021,706.497,1035.596,706.597z"/>
	<path fill-rule="evenodd" clip-rule="evenodd" d="M852.781,709.841c-1.459-1.545-2.999-3.162-3.937-4.15
		c1.273-3.949,2.424-6.912,3.179-9.98c1.63-6.586,3.146-13.216,4.523-19.863c0.598-2.914,0.506-5.981,1.171-8.881
		c0.691-3.013,1.656-6.036,3.018-8.805c0.825-1.682,2.718-2.537,4.969-1.488c-2.883,11.73-5.742,23.336-8.606,34.938
		c0.275,0.126,0.548,0.25,0.82,0.375c0.913-0.511,1.806-1.047,2.736-1.523c4.097-2.063,7.757-0.786,8.373,4.68
		c0.37,3.324,0.869,6.642,1.102,9.98c0.047,0.699-0.827,1.456-1.279,2.187c-0.89-0.676-2.449-1.255-2.559-2.042
		c-0.497-3.607-0.606-7.262-0.823-10.906c-0.108-1.767-0.938-2.03-2.349-1.23c-2.296,1.3-5.276,2.132-6.682,4.08
		c-1.361,1.9-1.938,5.182-1.347,7.455C855.731,707.115,855.629,708.403,852.781,709.841z"/>
	<path fill-rule="evenodd" clip-rule="evenodd" d="M725.258,711.79c-1.675,1.323-2.924,1.162-4.155-1.188
		c-1.826-3.486-4.024-6.78-6.187-10.079c-0.222-0.332-1.755-0.362-1.881-0.119c-1.874,3.636-3.584,7.356-5.402,11.018
		c-0.5,1-1.228,1.895-1.856,2.837c-0.86-0.606-1.923-1.05-2.553-1.837c-3.961-4.931-6.864-10.449-8.741-16.497
		c-0.669-2.182-1.276-4.388-1.985-6.837c2.747-0.38,3.442,0.506,4.09,2.523c1.629,5.045,3.729,9.938,5.636,14.887
		c0.421,0.032,0.845,0.063,1.265,0.1c2.641-3.579,5.467-7.049,7.872-10.779c1.822-2.844,2.563-3.161,4.563-0.469
		c1.156,1.563,1.942,3.381,2.939,5.062c0.535,0.895,1.167,1.731,2.389,3.525c2.851-5.094,5.339-9.486,7.768-13.898
		c1.016-1.844,1.742-3.875,2.943-5.581c0.624-0.899,1.976-1.293,3.006-1.911c0.336,0.25,0.664,0.506,1.005,0.757
		c-0.546,1.269-1.035,2.562-1.646,3.797c-1.983,3.969-4.113,7.875-5.984,11.906c-1.143,2.461-2.064,5.055-2.787,7.681
		C725.151,708.147,725.352,709.783,725.258,711.79z"/>
	<path fill-rule="evenodd" clip-rule="evenodd" d="M741.849,705.353c2.966-3.479,5.287-6.348,7.793-9.054
		c0.734-0.794,1.948-1.387,3.013-1.519c0.527-0.062,1.328,1.043,1.802,1.75c1.698,2.556,3.303,5.154,4.948,7.736
		c0.321-0.07,0.641-0.133,0.96-0.2c1.284-2.93,2.514-5.887,3.863-8.786c1.605-3.451,2.34-7.4,5.349-10.043
		c0.652-0.567,1.95-0.399,2.948-0.567c0.065,1.173,0.669,2.794,0.116,3.454c-4.861,5.875-6.721,13.116-9.413,19.979
		c-0.177,0.443,0.392,1.177,0.23,1.625c-0.362,0.976-0.976,1.856-1.484,2.775c-0.782-0.538-1.803-0.912-2.295-1.65
		c-2.41-3.58-4.678-7.262-6.994-10.904c-0.386-0.007-0.769-0.019-1.157-0.03c-1.543,2.98-3.016,6.004-4.683,8.909
		c-0.646,1.14-1.699,2.757-2.647,2.813c-1.048,0.057-2.658-1.183-3.197-2.269c-2.167-4.38-4.097-8.886-5.907-13.429
		c-0.371-0.925,0.167-2.212,0.282-3.332c0.857,0.683,2.113,1.188,2.493,2.076C739.25,697.892,740.343,701.235,741.849,705.353z"/>
	<path fill-rule="evenodd" clip-rule="evenodd" d="M880.534,699.817c-0.098,2.756,2.016,5.049,4.948,5.263
		c3.203,0.219,3.703,0.511,4.64,2.935c-3.676,0.301-7.474,0.895-10.136-1.967c-2.391-2.563-3.603-5.531-2.796-9.719
		c0.979-5.08,4.775-7.354,7.772-10.31c2.432-2.387,5.884-3.863,9.067-5.337c2.605-1.219,5.502-0.982,7.753,0.961
		c3.29,2.833,2.142,8.094-2.027,10.061c-4.268,2.014-8.501,4.113-12.819,6.007C884.901,698.604,882.695,699.123,880.534,699.817z
		 M880.795,696.062c5.214-1.356,9.893-2.182,13.049-6.011c0.755-0.92,0.706-2.764,0.484-4.089c-0.082-0.474-2.135-1.248-2.666-0.911
		C887.463,687.712,883.385,690.573,880.795,696.062z"/>
	<path fill-rule="evenodd" clip-rule="evenodd" d="M819.162,718.489c-0.384-2.013-0.055-2.73,1.897-3.157
		c6.428-1.4,12.337-4.104,16.567-9.315c1.456-1.789,2.17-4.362,2.67-6.692c0.46-2.188-0.941-3.507-3.213-3.782
		c-2.27-0.269-4.568-0.425-6.781-0.949c-5.323-1.274-5.592-4.975-3.235-8.713c2.431-3.861,6.085-6.609,10.528-8.054
		c0.875-0.287,1.926-0.655,2.709-0.406c0.844,0.264,1.478,1.213,2.197,1.864c-0.781,0.416-1.538,1.141-2.35,1.21
		c-3.616,0.301-8.596,5.863-8.096,9.506c0.121,0.862,1.208,1.98,2.088,2.274c1.763,0.587,3.686,0.888,5.551,0.925
		c2.692,0.057,4.536,1.119,5.718,3.536c1.286,2.619,1.318,5.075-0.499,7.469c-3.517,4.623-7.998,8.023-13.31,10.279
		c-3.052,1.293-6.189,2.361-9.324,3.449C821.316,718.264,820.248,718.308,819.162,718.489z"/>
	<path fill-rule="evenodd" clip-rule="evenodd" d="M992.396,671.128c8.404,0.755,8.404,0.755,9.241,3.693
		c-2.673,0.05-5.211,0.218-7.729,0.099c-1.892-0.087-2.616,0.444-2.856,2.444c-0.75,6.206-1.822,12.373-2.646,18.573
		c-0.459,3.442-0.667,6.91-1.032,10.853c-0.594,0.068-1.708,0.188-2.814,0.313c-0.057-0.943-0.231-1.906-0.145-2.843
		c0.74-7.816,1.439-15.635,2.328-23.433c0.658-5.756,0.777-5.751-5.104-4.675c-1.25,0.23-2.489,0.563-3.751,0.694
		c-0.689,0.073-1.71,0.079-2.053-0.326c-0.484-0.568-0.864-1.72-0.601-2.33c0.778-1.844,1.491-4.063,4.414-2.964
		c1.001,0.384,2.183,0.228,3.233,0.5c4.519,1.206,5.237,0.401,6.394-4.131c0.759-2.98,2.682-5.71,4.369-8.373
		c0.33-0.519,1.994-0.338,2.996-0.181c0.198,0.024,0.465,1.568,0.199,2.207C995.49,664.496,993.971,667.679,992.396,671.128z"/>
	<path fill-rule="evenodd" clip-rule="evenodd" d="M808.138,683.607c-2.321,4.544-4.785,8.904-6.8,13.466
		c-1.187,2.675-1.632,5.681-2.474,8.518c-0.261,0.886-0.643,2.393-1.104,2.442c-1.168,0.138-2.834,0.007-3.542-0.737
		c-1.319-1.393-2.125-3.293-3.102-4.998c-1.701-2.957-3.391-3.145-5.243-0.343c-1.126,1.692-1.689,3.785-2.935,5.379
		c-0.864,1.113-2.384,1.825-3.745,2.368c-0.27,0.108-1.385-1.292-1.74-2.156c-1.396-3.325-2.762-6.68-3.859-10.111
		c-0.254-0.798,0.354-2.573,0.975-2.799c1.479-0.543,2.1,0.4,2.406,2.074c0.417,2.232,1.504,4.338,2.583,7.268
		c2.409-2.873,4.511-5.168,6.359-7.634c1.913-2.557,3.355-2.639,5.139-0.015c0.452,0.662,0.979,1.271,1.475,1.895
		c0.692,0.875,1.385,1.736,2.079,2.605c0.895-0.874,2.053-1.599,2.627-2.645c1.735-3.186,3.241-6.497,4.842-9.767
		c0.704-1.436,1.412-2.872,2.131-4.305C805.583,681.375,806.317,681.331,808.138,683.607z"/>
	<path fill-rule="evenodd" clip-rule="evenodd" d="M907.517,703.523c0.829,3.73,4.313,5.455,8.857,4.505
		c1.678-0.35,3.484-1.112,4.729,0.913c-3.567,3.579-13.646,2.993-16.167-2.183c-0.888-1.823-1.412-4.475-0.772-6.273
		c2.309-6.512,6.065-12.147,13.189-14.128c4.381-1.219,9.277,0.343,8.147,6.611c-0.104,0.604-0.494,1.354-0.985,1.679
		c-3.974,2.577-7.938,5.182-12.049,7.531C911.081,702.98,909.294,703.066,907.517,703.523z M909.003,699.948
		c4.515-1.75,9-3.323,9.923-9.025C912.553,691.729,907.896,696.022,909.003,699.948z"/>
	<path fill-rule="evenodd" clip-rule="evenodd" d="M1089.825,704.397c2.787-5.299,5.062-9.642,7.351-13.973
		c1.391-2.623,2.724-5.368,6.182-5.675c1.033-0.089,2.105,0.219,3.161,0.343c-0.265,1.182-0.147,2.726-0.858,3.5
		c-6,6.555-11.361,13.618-15.248,21.572c-1.722,3.531-4.598,7.018-3.334,11.617c0.142,0.513-1.447,2.118-2.187,2.088
		c-0.859-0.037-2.496-1.538-2.372-2.021c0.897-3.286,2.069-6.511,3.349-9.68c0.594-1.462,1.878-2.655,2.391-4.13
		c0.304-0.86-0.027-2.193-0.528-3.049c-2.387-4.099-4.96-8.086-7.381-12.174c-0.306-0.52-0.291-1.468-0.009-1.999
		c0.195-0.375,1.2-0.669,1.647-0.494c0.685,0.27,1.431,0.857,1.757,1.495C1085.712,695.742,1087.584,699.725,1089.825,704.397z"/>
	<path fill-rule="evenodd" clip-rule="evenodd" d="M1073.114,708.79c-3.679,0.65-2.979-2.431-3.131-3.924
		c-0.268-2.75-1.501-3.145-3.726-2.557c-2.261,0.594-4.624,0.951-6.719,1.895c-1.203,0.548-3.809,1.536-1.033,3.673
		c0.35,0.271,0.411,1.646,0.273,1.699c-1.032,0.439-2.158,0.913-3.241,0.876c-0.564-0.025-1.616-1.147-1.546-1.637
		c0.436-2.713,0.131-5.469,1.958-8.054c2.755-3.901,4.875-8.25,7.185-12.456c1.368-2.5,3.456-3.307,5.952-3.123
		C1069.896,693.204,1074.828,700.366,1073.114,708.79z M1069.697,699.35c-1.356-2.568-2.434-4.719-3.652-6.781
		c-0.163-0.271-1.397-0.333-1.579-0.089c-1.739,2.419-3.363,4.932-5.344,7.893C1062.932,699.997,1065.747,699.729,1069.697,699.35z"
		/>
	<path fill-rule="evenodd" clip-rule="evenodd" d="M1008.139,708.353c-5.438,0.607-9.328-4.624-8.965-9.311
		c0.4-5.192,5.313-9.366,11.009-9.18c5.421,0.18,10.855,4.612,10.613,8.648C1020.458,704.196,1014.723,708.659,1008.139,708.353z
		 M1016.767,699.142c0.16-3.588-1.562-5.548-4.955-5.767c-4.13-0.275-8.107,4.667-7.168,8.997c0.2,0.926,0.731,2.52,1.145,2.524
		c2.209,0.069,4.618,0.205,6.59-0.587C1014.524,703.441,1017.116,702.261,1016.767,699.142z"/>
	<path fill-rule="evenodd" clip-rule="evenodd" d="M970.856,707.39c0.541,3.006-1.792,3.182-3.525,3.2
		c-1.834,0.019-3.224-1-3.104-3.361c0.156-2.938,2.256-3.419,4.261-3.144c1.12,0.151,2.044,1.769,3.057,2.729
		C971.314,707.008,971.086,707.196,970.856,707.39z"/>
	<path fill-rule="evenodd" clip-rule="evenodd" d="M811.1,711.857c-2.787-0.736-4.032-1.886-3.792-4.03
		c0.255-2.211,2.077-2.866,3.896-2.475c1.345,0.28,2.522,1.382,3.773,2.119C813.688,708.935,812.391,710.396,811.1,711.857z"/>
</g>
</svg>
