<?xml version="1.0" encoding="utf-8"?>
<!DOCTYPE svg PUBLIC "-//W3C//DTD SVG 1.1//EN" "http://www.w3.org/Graphics/SVG/1.1/DTD/svg11.dtd">
<svg version="1.1" id="Sheeps-Clothes" xmlns="http://www.w3.org/2000/svg" xmlns:xlink="http://www.w3.org/1999/xlink" x="0px" y="0px"
	 width="1000px" height="582px" viewBox="0 0 1000 582" enable-background="new 0 0 1000 582" xml:space="preserve">
<g>
	<path fill-rule="evenodd" clip-rule="evenodd" d="M532.4,361.3c-4.7,0-9.6-0.8-14,0.2c-4.9,1.2-9.3,4.1-13.9,6.2
		c-1.7,0.8-3.3,1.8-4.9,2.5c-5.7,2.5-9.7-0.1-10.7-6.2c-1.7-10.8,6.4-20.5,13.1-24.3c9.8-5.6,24.2-1.7,30.7,7.7
		c3.8,5.5,8.4,7.3,14.7,5.4c1.6-0.5,2.5-1.1,2.4-3.6c-0.2-8.7-1.1-17.8,1-26.1c2.6-10.1,7.6-20,18.9-23.8c2.9-1,6.3-0.7,9.3-1.5
		c2.2-0.6,4.9-1.7,6.1-3.4c10.4-14.9,24.7-23.9,42.3-26.9c8.4-1.5,16.7,1.8,24.2,6c3.1,1.7,5.8,4.2,8.7,6.1c1.8,1.2,3.4,1.8,6.1,0.9
		c6.4-2.2,13.2-4.9,19.8-4.9c6.9,0,14,2.2,20.6,4.6c8.9,3.1,17,7.9,24,14.3c5.2,4.7,7.8,11,9.5,17.6c1,3.7,0.9,7.6,1.8,11.3
		c0.5,1.9,1.8,4.2,3.4,5.3c7.1,4.8,13,10.6,15.1,19.1c1.6,6.2,3,12.6,3.9,18.9c1.2,8.5-3.2,15.6-6.9,22.8c-0.6,1.1-1.2,2.8-0.7,3.6
		c7.9,12,2.7,22.6-4.5,32c-7.6,9.9-17.7,18-30,21.1c-7.8,2-9.2,7.5-11,13c-2.7,8.7-4.4,17.8-6.8,26.6c-0.3,1.2-1.8,2-2.8,3
		c-0.7-1.1-1.9-2.2-1.9-3.3c-0.2-7,0-14.1-0.1-21.1c0-1.5-0.5-3-0.8-4.5c-8,1.7-10,7.8-11.2,14.3c-0.5,2.3-0.3,4.8-1,7.1
		c-0.4,1.3-1.9,2.4-3,3.5c-0.3-1-0.7-2-1-3.1c-0.9-4-1.7-7.9-2.7-12.5c-10.8,1.9-20.6-1.9-30.7-5c-0.8-0.2-2.7,0.9-2.9,1.8
		c-1.9,6.2-4.7,12.1-4.3,18.8c0.1,1.5-1.9,4.5-3,4.5c-2.6,0.1-3.2-2.3-3.4-4.8c-0.6-9.4-2.9-18.4-6.4-26.8c-5.9-0.5-8,2.8-9,7.6
		c-1.2,5.5-2.8,10.9-3.9,16.4c-0.8,3.7-1.2,4.4-4.3,4.5c-1-6.7-2.3-13.3-3-20c-0.6-6.1-2.8-10.6-8.9-13c-7.3-2.9-12.4-8.5-16.6-15
		c-0.7-1.1-2.9-1.8-4.4-1.9c-5.9-0.5-11.7,0.9-17.7-0.8c-14.8-4-26.7-11.8-35.8-24.1c-4.8-6.5-8-13.4-8-21.4c0-8.2,3.2-15.1,8.7-21
		c1.9-2.1,4.2-3.7,6.3-5.6C532.8,362.7,532.6,362,532.4,361.3z"/>
	<path fill-rule="evenodd" clip-rule="evenodd" fill="#FFFFFF" d="M613.3,369.2c1.1,3.1,1.9,5.4,2.7,7.8c2.9,8,2.9,15.9,0,24
		c-4.9,13.8-15.5,22.4-26.9,30.2c-3.2,2.2-2.6,3.6-1.2,5.9c0.5,0.8,1.4,1.3,1.9,2.1c6.7,10.4,24.6,18.5,38,14.2
		c0.3-2.9-4.6-4.8-1.7-8.4c2.7,2.3,5.2,4.8,8,6.7c5.9,4.2,11.7,8.4,19.7,8.1c4.8-0.2,9.7,0.7,14.5,1.6c9.2,1.6,17.9-0.7,25.3-5.4
		c6.3-4,11-10.6,16.4-16c0.9-0.9,1.9-1.6,2.9-2.4c0.2,0.2,0.5,0.5,0.7,0.7c-0.5,1.5-1.1,3.1-1.7,4.7c5.6,1.5,10.7-0.5,15.4-2.7
		c10-4.7,18.3-12,24.9-20.9c1.6-2.2,2.6-4.7,0.2-7.2c-2.8-2.9-5.7-5.6-8.5-8.5c-2.6-2.7-4.8-1.4-6.9,0.5c-2.1,1.9-3.8,4.2-6.1,5.9
		c-3.9,2.9-7.2,7.3-13.9,6.4c0.8-1.3,1.2-2.5,2-3c15-7.8,24.7-19.7,28.5-36.3c0.6-2.7,1.3-5.5,2-8.2c0.4,0.1,0.8,0.2,1.2,0.3
		c0.4,9.6-3.1,18.3-7,27.2c4.9-0.3,6.5-4.3,8.8-7.1c4.2-5.2,7.4-11.3,7.3-17.8c-0.1-7.4-1.2-14.8-3.7-22.1
		c-4.5-13.3-13.8-20.1-27-22.5c-0.8-0.2-2.2-0.6-2.3-1.1c-0.1-0.9,0.3-2,0.9-2.8c0.7-0.9,2.1-1.3,2.8-2.2c1-1.2,2.5-2.8,2.3-4
		c-1.2-11.1-4.9-20.9-14.9-27.1c-2.7-1.7-5.5-3.1-8.4-4.4c-12.6-5.7-25.5-9.1-38.9-2.8c-3.1,1.5-6,3.3-9.4,5.2
		c7.1,2.9,13.3,5.4,19.5,8c-0.2,0.4-0.3,0.9-0.5,1.3c-0.6-0.1-1.3,0-1.9-0.2c-5.2-1.2-10.4-3-15.7-3.7c-10.1-1.2-19.7,1.6-29.1,5.2
		c-2.8,1.1-5.6,2-8.4,3.1c-0.2-0.6-0.4-1.1-0.6-1.7c8.6-7.3,19.9-8.1,30.3-11.1c-3.5-10.2-13-17.2-22.9-17.4
		c-14.2-0.3-25.6,6-35.5,15.2c-6.4,5.9-11.5,13.1-13.4,23.3c-1.3-1.8-2.1-2.7-2.7-3.6c-0.5-0.7-0.8-2.2-1.3-2.2
		c-3.1-0.4-6.5-1.3-9.3-0.5c-8.6,2.8-12.6,10.2-15.2,18.1c-2.8,8.6-1.7,17.7-1.5,26.6c0.1,3.4,1.2,3.1,3.7,2.9
		c7.4-0.4,15-1.4,22.1-0.1c7.2,1.3,14.3,4.4,20.9,7.9c5.8,3.1,10.2,1.7,15.1-1.2c5.4-3.1,10.6-6.8,16.3-8.9
		c8.1-2.9,16.7,0.8,20.9,10.5c1.2,2.7,1.7,5.8,2.5,8.7c1.6,5.8,3.4,11.6,4.8,17.5c0.7,3-2.2,7.6-4.8,9.3c-3.9,2.6-12.2,0.3-16-5.8
		C632.8,379.6,625.1,372.6,613.3,369.2z"/>
	<path fill-rule="evenodd" clip-rule="evenodd" fill="#FFFFFF" d="M562.5,393.7c0,15.8,14.8,28.5,27.6,26.4
		c6.5-1.1,12.2-3.3,15.8-9.1c5.7-9.2,11.5-17.9,7.8-30.1c-3.9-12.9-11.9-17.5-25-16.4c-4.9,0.4-10.4,0.6-14.4,4.6
		C566.7,376.7,562.9,385.8,562.5,393.7z"/>
	<path fill-rule="evenodd" clip-rule="evenodd" fill="#FFFFFF" d="M521.1,388.9c2,5.2,3.4,10,5.7,14.3c4,7.9,14.7,12.7,21.1,10.3
		c3.9-1.4,7.8-3.3,10.9-6c1-0.9-0.7-4.8-1.1-7.4c-0.1-0.5,0-1.1,0-1.6c0.4-12,4.9-22.3,13.3-30.9c2.7-2.8,2.5-3.8-0.8-6
		c-5.3-3.4-10.8-3.2-16.8-2.4c-10.5,1.5-19,6.2-25.2,14.3C524.7,377.9,523.4,383.7,521.1,388.9z"/>
	<path fill-rule="evenodd" clip-rule="evenodd" d="M631,507.7c1.4-0.6,2.8-1.3,4.3-1.8c0.5-0.2,1.1,0,1.6,0
		c15.5-0.5,31-1.1,46.5-1.6c17.4-0.6,34.8-1.1,52.2-1.6c4.7-0.1,9.4,0,13.9,0c-0.2,0.1-0.7,0.7-1.2,0.7c-8.8,0.6-17.5,1.3-26.3,1.6
		c-10,0.4-20.1,0.4-30.1,0.9c-6.2,0.3-12.3,1.5-18.5,2.3c-0.3,0-0.5,0-0.8,0c-5.6,0.3-11.2,0.6-16.8,0.8c-6.7,0.3-13.4,0.6-20.1,0.8
		c-1.4,0-2.8-0.4-4.3-0.7C631.1,508.7,631.1,508.2,631,507.7z"/>
	<path fill-rule="evenodd" clip-rule="evenodd" d="M706.3,515.9c-17.4,1.6-34.8,3.1-52.2,4.7c-0.2-0.4-0.4-0.7-0.6-1.1
		c1.7-0.8,3.4-2.1,5.1-2.2c10-0.7,19.9-1.3,29.9-1.7c5.9-0.2,11.7,0,17.6,0C706.2,515.7,706.3,515.8,706.3,515.9z"/>
	<path fill-rule="evenodd" clip-rule="evenodd" d="M580.3,375.5c0.1-3.4,1.5-5.7,4.2-5.4c1.7,0.2,3.2,2.5,4.7,3.9
		c-1.7,1.6-3.2,3.9-5.3,4.6C581.6,379.4,579.9,377.7,580.3,375.5z"/>
	<path fill-rule="evenodd" clip-rule="evenodd" d="M546,372.7c0.8-3.4,1.1-5.9,4.6-5.9c2.4,0,5,1.2,4.3,3.3
		c-0.8,2.2-3.5,3.9-5.7,5.4C549,375.8,547,373.6,546,372.7z"/>
</g>
<g>
	<path fill-rule="evenodd" clip-rule="evenodd" d="M94.6,495.5c-0.4-2.5-1-4.7-1.2-7c-0.9-7.5-1.6-15-2.5-22.5
		c-0.1-0.8-0.8-1.5-2.2-2.3c-1.4,5.8-3.4,11.5-4,17.4c-0.7,6.5,0.1,13.2-0.3,19.8c-0.1,2-2,5.2-3.4,5.4c-3,0.4-2.7-2.6-3-4.9
		c-0.9-8.2-2-16.3-3.1-24.4c-0.3-2.6-0.5-5.3-1.2-7.8c-0.3-0.9-2-2.1-3.1-2c-5.3,0-10.7,0.5-16,0.7c-6,0.1-6.7,0.6-7.3,6.5
		c-0.4,4.2-0.4,8.5-0.9,12.8c-0.1,1.2-1.2,2.2-1.9,3.3c-1-1-2.4-1.8-2.8-3c-1-3.1-1.6-6.3-2.4-9.4c-0.4,0-0.9,0-1.3,0
		c-1.2,7.2-2.4,14.4-3.8,21.6c-0.3,1.5-1.8,2.8-2.7,4.1c-0.4-0.1-0.8-0.3-1.2-0.4c-0.3-1.6-0.6-3.3-0.8-4.9
		c-0.9-7.6-1.7-15.3-2.7-22.9c-0.4-3.4-1.4-6.7-1.7-10.1c-0.7-7.7-7.3-11.5-10.9-17.4c-3.3-5.4-6.1-11-9-16.6
		c-0.8-1.5-1.1-3.2-2-4.7c-2.3-4.3-3.5-8.6-2.3-13.7c0.9-3.8,0-8.1,0.2-12.1c0.9-16.7,6.7-31.4,19.8-42.2
		c7.2-5.9,15.9-9.2,25.2-10.7c1.9-0.3,3.8-0.9,5.7-1.6c8.1-2.9,15.8,0,23.7,1.1c11.8,1.7,22,7.8,33.1,11.4
		c9.8,3.1,19.6,5.4,30.1,4.5c11.3-0.9,21.9-3.5,30.9-10.7c3.8-3,6.9-6.7,10.5-10c1.4-1.3,3.2-2.2,5.9-4.1c-4.2-1.1-7.3-2.3-10.5-2.6
		c-2.5-0.2-5.3,0.4-7.8,1.2c-2.2,0.8-4.2,2.2-6.1,3.6c-4,3.2-7.8,6.9-11.9,10c-4,3-11.4-0.4-13.4-6.4c-0.7-2.1-0.4-4.9,0.4-7.1
		c1.5-4,3.7-7.9,5.8-11.7c2.4-4.3,6.4-5.7,11.2-6.3c5.5-0.6,10.9-1.5,15.8,1.8c3.7,2.5,7.4,5.2,10.8,8.1c5,4.2,14.1,5.8,19.9,2.7
		c6.3-3.3,12.7-3.7,19.5-2.3c10.3,2.1,20.6,4.2,31,5.9c4.9,0.8,9.6-0.2,14.1-3c4.4-2.8,9.4-4.8,14.1-7.2c7.1-3.6,16.2,0.2,20.1,5.4
		c6.5,8.8,11.5,18.5,10.2,30.1c-0.3,2.3-1.1,5.8-2.6,6.5c-1.9,0.9-5.5,0.2-7.3-1.2c-3.6-2.9-6.9-6.5-9.7-10.3
		c-4.9-6.8-12.5-8.4-19.6-11.1c-0.1-0.1-1.5,2.1-1.3,2.4c4.1,5.9,5.7,12.7,6.8,19.6c1.9,11.8-1,22.4-8.5,31.5
		c-6.9,8.3-14,16.5-21.8,24c-3.5,3.4-8.7,5.3-13.4,7c-12.1,4.2-24,0.5-35.2-3.6c-5.7-2.1-11.1-6.7-14.9-11.5
		c-8.4-10.6-19.8-12.6-30.7-4.1c-5.2,4.1-10.7,7.9-15.5,12.4c-5.5,5.3-10.2,11.5-15.6,16.9c-4.6,4.6-9.8,8.6-14.5,13.1
		c-1.6,1.5-3.6,3.5-3.9,5.5c-1.2,8.3-1.9,16.6-2.5,24.9c-0.1,1.7,0.6,3.4,0.6,5.1C99.8,491.6,99.3,494.4,94.6,495.5z"/>
	<path fill-rule="evenodd" clip-rule="evenodd" fill="#FFFFFF" d="M196.8,404c7,0,13.7-1.5,19.2-6c7.4-5.9,12.4-13.8,15-22.9
		c1.3-4.5,2-9.3,2.2-14c0.1-4.5-1.4-8.5-6.2-10.6c-4.1-1.8-7.9-4.4-12.1-5.7c-4.2-1.4-9-2.9-13.2-2.3c-4.9,0.7-9.6,3.4-14,5.9
		c-9.9,5.6-17.9,12.8-20.7,24.7c-1.7,7.2,0.8,17.3,6.4,22.2C180,401.2,187.8,404,196.8,404z"/>
	<path fill-rule="evenodd" clip-rule="evenodd" fill="#FFFFFF" d="M224.6,396.1c4.3,2.3,8.4,4.7,12.6,6.5
		c11.2,4.8,21.4,0.7,28.3-8.4c6.7-8.9,6.6-19.2,5-29.7c-2.6-16.3-15.5-25.5-32.3-19.7c-4.4,1.5-5.2,4-3,8.1c1.1,2,1.9,4.4,2,6.6
		C237.7,372.8,232.5,384.2,224.6,396.1z"/>
	<path fill-rule="evenodd" clip-rule="evenodd" d="M97.7,523.5c-1.9,0.8-3.8,1.8-5.7,2.5c-0.8,0.3-1.9,0-2.8,0.1
		c-16.1,0.3-32.2,0.6-48.3,0.8c-11.5,0.1-23.1,0-34.6,0c-0.1-0.4-0.2-0.9-0.2-1.3c1.6-0.3,3.2-1,4.9-1c10.8-0.1,21.6-0.1,32.4-0.1
		c5.2,0,10.5,0.3,15.7-0.1c11.7-0.8,23.3-2.1,34.9-3c1.1-0.1,2.3,0.5,3.5,0.8C97.6,522.6,97.6,523.1,97.7,523.5z"/>
	<path fill-rule="evenodd" clip-rule="evenodd" d="M31.5,537.1c2.2-0.4,4.4-1.1,6.6-1.3c10.1-0.8,20.2-1.5,30.3-2.1
		c0.8,0,1.7,0.9,2.6,1.5c-0.1,0.6-0.2,1.2-0.3,1.7c-13,0.5-26,1-38.9,1.6C31.7,538,31.6,537.6,31.5,537.1z"/>
	<path fill-rule="evenodd" clip-rule="evenodd" d="M199,362.8c-1-2.1-2.6-4.1-2.7-6.2c-0.1-2.1,5.1-4.9,7-4.3c3,0.9,4.8,3.9,4,6.7
		C206.5,361.5,202.8,363.1,199,362.8z"/>
	<path fill-rule="evenodd" clip-rule="evenodd" d="M244.8,364.6c-0.7-3.2-2.2-5.9-1.4-7c1.4-2,3.2-5.4,6.9-3.7
		c2.3,1.1,3.4,5.8,1.4,7.7C250.3,363,247.8,363.3,244.8,364.6z"/>
</g>
<g>
	<path fill-rule="evenodd" clip-rule="evenodd" d="M294,546.1c-5.5,4.3-11.9,5.9-18.7,5c-13.5-1.9-26.2-5.5-33.6-18.7
		c-2.9-5.2-3.9-10.8-1.9-16.4c1.8-4.9,4.2-9.6,6.3-14.5c0.5-1.3,1.2-2.9,0.8-4.1c-4.5-15.8,9.1-37.2,22-44.2
		c7.7-4.2,15.5-7.8,24.1-9.7c9-2,16.9-0.4,23.2,6.6c2.6,3,4.3,3.2,7.7,0.7c3.6-2.6,8.1-4.2,12.5-5.5c13.9-4.2,27.2-1.1,40,4.4
		c3.1,1.3,5.6,2.2,9,0.1c6.2-3.7,13.1-4.6,20.3-3c6.5,1.4,13.3,2.3,19.6,4.4c11,3.5,17.1,11.4,18.3,23c0.1,1.2,0.6,2.6,1.3,3.6
		c10.8,14.6,7.2,29.2-0.4,43.5c-2.1,4-6,7-9,10.5c-1,1.3-2.1,2.8-2.4,4.3c-3.6,14.6-13.1,23.5-27.5,26.1
		c-10.4,1.9-21.2,1.6-31.4-2.1c-4.8-1.7-9.1-1.3-13.8,1.3c-4,2.3-8.9,3.4-13.5,4.1c-6.5,1-13.2,1.6-19.8,1.7
		c-14.1,0.1-25.1-5.4-31.3-18.7c-0.2-0.5-0.4-1-0.7-1.4C295,546.9,294.7,546.7,294,546.1z"/>
	<path fill-rule="evenodd" clip-rule="evenodd" d="M396,571.5c15.2-1.7,30.4-3.3,45.6-5c0.2,0.3,0.4,0.6,0.6,0.9
		c-0.7,0.8-1.3,2.1-2.2,2.3c-2.3,0.6-4.7,0.7-7.1,0.9c-10.7,0.8-21.3,1.6-32,2.4c-1.6,0.1-3.3,0-4.9,0C396,572.5,396,572,396,571.5z
		"/>
	<path fill-rule="evenodd" clip-rule="evenodd" d="M407.1,580.2c2.5-0.5,5-1.1,7.5-1.5c4.5-0.8,9.1-1.5,13.6-2.1
		c0.7-0.1,1.5,0.6,2.2,0.9c-0.4,0.6-0.7,1.6-1.3,1.8c-2.6,0.7-5.3,1.6-8,1.7c-4.7,0.3-9.4,0.1-14.1,0.1
		C407.1,580.8,407.1,580.5,407.1,580.2z"/>
	<path fill-rule="evenodd" clip-rule="evenodd" fill="#FFFFFF" d="M436.7,488.5c0.6-1.7,0.9-2.7,1.2-3.6c3.5-10.3,2.2-20.6-8.1-27.2
		c-8.2-5.4-16.8-5.3-25.4-2.4c-5.4,1.8-12.3,3.1-10.6,12c-3.8-5.7-8-10.6-14.3-12.8c-8.2-2.8-16.4-5.7-24.9-7.5
		c-9.6-2-17.9,2-25.2,8c-0.7,0.5-1.1,1.5-1.4,2.3c-0.2,0.9-0.1,1.9-0.1,2.8c0.9,0,1.7,0,2.6-0.1c6.4-1.2,12.7-1.9,19,0.6
		c0.7,0.3,1.2,1.2,1.8,1.8c-0.8,0.3-1.7,0.8-2.5,0.8c-5.3,0.3-11.1-0.8-15.8,0.9c-6.9,2.5-13.2,6.9-19.7,10.8
		c-2.6,1.5-4.8,3.6-7.2,5.5c-0.5-0.4-0.9-0.8-1.4-1.2c1-1.6,1.7-3.7,3.1-4.8c4.2-3.2,8.6-6.1,13-9c2.8-1.8,2.8-3.5,0.3-5.6
		c-1.3-1.1-2.4-2.4-3.6-3.5c-4-3.8-7.2-8.3-13.6-9.1c-5.6-0.6-10.8-0.4-16.1,1.2c-15.3,4.8-27.5,13.3-34.4,28.4
		c-2.8,6.1-1.4,11.3,3.9,15.7c0.5,0.4,0.3,3-0.3,3.4c-5.4,3.8-9.3,8.8-11.6,14.9c-1.4,3.8-3.3,7.9-2.8,11.6
		c1.5,11.2,8.9,17.8,19.3,21.3c3.7,1.3,7.6,2.1,11.4,3.1c10.2,2.8,18-2,25.7-7.6c-5-6.9-10.4-13.1-9.4-22c4.4,6,4.8,14.3,12.3,18.5
		c6.9,3.9,14.1,5.2,22.9,4.8c-1.3,1.4-1.7,2.3-2.2,2.3c-5.3,0-10.6-0.2-15.8-0.3c-1.2,0-3-0.2-3.6,0.5c-2.4,2.8-1.4,9.5,1.6,12
		c1.4,1.2,3,2.2,4.5,3.2c6.7,4.7,14.2,5.6,22.1,4.8c7.2-0.7,13.8-3.6,19.2-8.1c5.2-4.3,9.7-9.4,12.4-15.9c0.7-1.7,1.9-6.1,5.8-4.2
		c3.7,1.7,0.5,4.3,0.2,6.3c-1.5,8.1,1.5,13.9,9,16.2c1.9,0.6,3.9,0.7,5.8,1c12.4,2,24.6,0.8,35.3-5.9c9.5-6,10.6-14.9,5.4-24.7
		c-1.2-2.1-2.8-2.5-4.8-0.4c-2.5,2.6-5.2,5.1-8,7.2c-3.1,2.3-6.5,4.1-9.7,6.2c-0.2-0.3-0.4-0.7-0.7-1c5.9-4.9,12.2-9.5,17.6-15
		c5.6-5.7,7.1-13.6,9.1-21.3c0.7,3.2,0.7,6.3,0.1,9.2c-0.7,3-2.1,5.9-3.2,8.9c8.4,0.9,17.6-3.1,19.5-9.4c1.7-5.5,3-11.4,2.6-17
		c-0.2-3.1-4.2-6-6.4-8.9C439.2,487.2,438.4,487.6,436.7,488.5z"/>
</g>
<g>
	<path fill-rule="evenodd" clip-rule="evenodd" d="M722.7,104.3c-5.3,1.1-9.4,0.1-13.7-3c-12.4-8.9-26.7-13.6-41.3-17.6
		c-8.6-2.3-17.4-4.3-26.2-5.5c-3.4-0.4-7.4,1.6-10.8,3.3c-6.1,3.1-12,6.6-17.7,10.3c-7.4,4.6-14.3,10.1-21.8,14.3
		c-6,3.3-10.9,7.3-15,12.7c-0.7,0.9-2.6,0.9-4,1.3c0.1-1.4-0.2-3,0.5-4c5.1-7.1,12-12.2,19.2-17.1c9.8-6.7,19.3-13.9,29-20.7
		c4.1-2.8,8.6-5,12.6-8c2.1-1.5,4.2-4,4.7-6.4c1.4-5.8,2.9-10.9,8.2-14.8c3.1-2.2,5.3-5.9,7.3-9.3c2.6-4.3-0.7-13.5-4.8-14.8
		c-3.5-1.1-9.5,1.4-11.4,4.6c-0.5,0.8-0.8,1.8-1.4,2.4c-0.5,0.5-1.6,0.9-2.2,0.7c-0.6-0.3-1.2-1.4-1.2-2c0.4-4.2,3.4-6.5,6.8-8.2
		c4.4-2.3,9.2-2.1,13.9-0.8c5.1,1.4,8.2,7.9,8.1,12.9c-0.3,8.8-6.4,12.9-12.2,17.4c-3.9,3-5,6.2-4.9,11.4c0.1,6.9,4.2,8.1,8.7,9.8
		c13.5,4.9,27.1,9.4,40.3,14.8c7.8,3.2,15.1,7.7,22.6,11.6c1.9,1,3.8,1.8,5.6,2.9C722.2,102.7,722.4,103.6,722.7,104.3z"/>
	<path fill-rule="evenodd" clip-rule="evenodd" d="M646.1,29.9c1.1,1.8,2.1,2.7,2,3.5c-0.2,1.2-1.3,2.2-1.9,3.3
		c-0.9-1-2.4-1.9-2.6-2.9C643.4,32.9,644.8,31.8,646.1,29.9z"/>
</g>
<g>
	<path fill-rule="evenodd" clip-rule="evenodd" d="M833.9,301.1c-6.7,0.3-12.7,1.2-18.6,0.8c-9.2-0.6-14.3-6.9-17.4-14.8
		c-4.1-10.3-3.2-20.9,0.2-31.2c1.4-4.3,0.7-6.5-2.8-8.6c-9-5.2-13.8-13.7-17.2-23c-2.8-7.5-1.6-15.4,0.6-22.8
		c2.1-7,5.1-13.8,8.1-20.5c1.3-2.9,1.9-4.4-1.2-6.9c-8.2-6.8-14.3-15-13.6-26.6c0.4-6.4,3.6-11.5,7.2-16.4
		c7.4-10.2,17.5-17.4,29.8-18.7c11.7-1.2,18.7-9,27.2-15c5.2-3.7,9.9-8,15-11.7c3.3-2.4,6.1-4.6,6.7-9.3c0.5-3.6,2.5-7,4.1-10.4
		c2.9-6,6.2-11.8,8.9-17.9c1.9-4.3,0.4-8.7-1.4-12.7c-0.6-1.3-2.6-2.4-4.2-2.7c-5.3-1.1-11.5,2.9-13.3,8c-0.3,0.8-1.5,1.3-2.7,2.2
		c-0.9-6.7,3.3-11.9,10.5-13.3c6.2-1.2,14.2-0.3,17.7,7.4c1.7,3.7,2.2,8.6,1.6,12.7c-0.7,4.9-3.6,8.9-7.9,12.3
		c-5.2,4-10.3,8.7-10.3,16.2c0,1.6,0.8,3.9,2,4.6c12.3,6.6,24.7,12.8,37.1,19.3c4,2.1,7.6,4.7,11.7,6.7c3,1.5,6.3,2.8,9.6,3.1
		c13.7,1.2,27,3.1,38.7,11.2c9.3,6.5,14.6,15.7,12.2,26.6c-1.5,6.9,2.1,10,5.3,13.4c8.5,9.1,13.1,20.1,14.1,31.9
		c0.7,8.5-2.7,17.3-8.6,24c-5.8,6.7-12.6,12.5-18.6,19c-1.8,2-3.7,4.9-3.7,7.4c-0.2,17.7-6.4,33.3-16.7,47.4c-2,2.7-4.9,5-7.7,7
		c-7.7,5.5-15.5,10.7-25.1,12.9c-4.4,1.1-8.2,4.8-12.4,6.8c-10.8,5.2-21.3,11.4-33.9,10.7c-7.9-0.4-14-4.3-19.4-10
		C839.8,314.6,835.9,308,833.9,301.1z M911.3,114c-1.4-0.9-2.3-1.9-3.5-2.4c-12.3-5.3-24.6-10.7-37.1-15.7c-3.5-1.4-7.2-4-11.3-1.7
		c-9.7,5.4-19.4,10.9-29.1,16.5c-2.5,1.5-2.4,3.2,0.3,4.6c2.7,1.4,5.6,2.4,8.1,4.1c2.4,1.5,4.1,1.4,6.4-0.1
		c13-8.4,26.8-11.5,41.6-5.3c5.4,2.2,10.6,4.9,15.9,7.4C905.3,119.1,908,116.8,911.3,114z"/>
	<path fill-rule="evenodd" clip-rule="evenodd" d="M864.8,42.2c-1.7,1.2-2.8,2.4-3.9,2.5c-0.7,0.1-2.2-1.4-2.2-2.3
		c-0.1-1,1.1-2.1,1.7-3.1C861.6,40.1,862.9,40.9,864.8,42.2z"/>
	<path fill-rule="evenodd" clip-rule="evenodd" d="M809.2,206.9c-0.6-1.7-1.6-3.4-1.6-5.1c-0.2-8.2,2.3-15.8,5.6-23.2
		c2.3-5,5.2-9.7,8.1-14.4c0.5-0.9,2.2-1,3.4-1.5c-0.2,1.2-0.1,2.6-0.7,3.5c-5.7,7.4-9,15.8-11.5,24.6c-1.4,5-1.7,10.4-2.4,15.6
		C809.8,206.6,809.5,206.7,809.2,206.9z"/>
	<path fill-rule="evenodd" clip-rule="evenodd" d="M923.1,272.3c4.4-5.3,8.9-10.7,13.3-16c-2.2,7.1-7.4,11.9-12.4,16.8
		C923.7,272.8,923.4,272.5,923.1,272.3z"/>
	<path fill-rule="evenodd" clip-rule="evenodd" fill="#FFFFFF" d="M810.4,178.8c0,0.4,0,0.7,0,1.1c-2.3,0.1-4.6,0.2-6.8,0.4
		c-6.3,0.6-9.6,5.5-13.6,9.4c-8.5,8.5-10.9,19.1-8.7,30.1c2.5,12.6,10.1,22.3,21.6,28.5c3.7,2,7.5,3.8,11.3,5.8
		c-4.7-0.7-6.6,2.8-8.7,5.3c-2.3,2.8-4.1,6.2-5.9,9.3c-0.5,0.9-1,2.1-0.8,3c1.1,6,0.8,12.5,4.7,17.8c2.8,3.7,5.4,7.9,10.5,8.4
		c4.8,0.5,9.8,0.5,14.6,0c5.2-0.5,10.2-1.7,15.6-2.7c-2.2-7.5-6.2-13.8-4.1-21.5c1.1,1,1.9,2.3,2.3,3.6c3.5,12.9,5.8,26.6,21.5,31.2
		c0.2,0.1,0.4,0.3,0.7,0.7c-10.8,3.1-14.1-6.1-20-12.4c-1.1,4.9-2,9.1-2.9,13.2c0,0.2,0.1,0.6,0.2,0.8c4.5,5.9,9.2,11.8,16.2,14.7
		c8.9,3.7,17.7,1.4,26.1-2.3c0.7-0.3,1.8-1.3,1.8-1.8c-0.4-2.7,1.4-3.7,3.2-5c1-0.7,2.2-1.6,2.4-2.6c1-5.2,3.7-6,8.8-5.6
		c16.8,1.3,31.1-4.6,41.9-17.6c4.2-5.1,8.2-10.8,8.5-17.9c0.2-4.8-0.2-9.8,1-14.3c1.2-4.7-0.4-7.9-3.7-12c-3.4,2.6-6.7,5.2-10.4,8
		c5.6-10.8,11.5-21.2,8.2-33.8c3.5-0.2,4.1,2.2,4,4.2c-0.2,4.3-1,8.6-1.5,12.9c-0.1,1.1-0.2,2.2,0,3.2c0.1,0.3,1.5,0.6,2.1,0.4
		c2.3-0.8,4.9-1.4,6.9-2.8c12.6-8.7,23.9-18.5,26.9-34.7c2.2-11.4,2.6-22.4-5-32.2c-1.4-1.9-2.8-3.9-4.3-5.6
		c-4.5-5.2-7.6-11.9-14.5-14.8c-0.7-0.3-1-1.3-1.6-2.1c2.3-0.6,4.5-0.7,6.1-1.7c1.7-1.1,2.4-12.2,1-13.8c-2.7-2.9-5.4-5.9-8.6-8
		c-8.8-5.8-19-7.7-29.1-9.3c-3.2-0.5-7.3-0.2-9.8,1.5c-6.1,4-9.8,9.7-6.9,18c-1.9-0.9-3.3-1.9-4.5-3.2c-7.6-8.5-16.5-14.9-28.1-16.8
		c-3.1-0.5-6.4-1.5-9.4-1.2c-8.6,0.9-16.8,3.5-23.7,9c-3.4,2.7-6.4,5.8-9.6,8.7c-0.7,0.7-1.7,1.2-2.7,1.4c-0.3,0-1.2-1.3-1.2-2.1
		c-0.3-9.7-0.7-10.8-9.7-13c-5.7-1.4-12.2-2.6-17.8-1.4c-9.9,2.2-17.5,8.6-23.4,17.2c-3.5,5-6.1,10.3-5.8,16
		c0.3,7.4,4.5,13.7,9.7,18.9c3.6,3.7,7.9,6.4,13.5,6.8C802.6,176.4,806.5,177.8,810.4,178.8z"/>
</g>
<g>
	<path fill-rule="evenodd" clip-rule="evenodd" d="M369.4,16.9c-0.3-4.1,3.6-8.7,8.3-9.9c4.8-1.2,13.9,2.6,16.5,6.9
		c1.8,3.1,0.6,9.7-2.9,13.2c-2,2.1-4.5,3.7-6.7,5.6c-5.1,4.4-8.6,9.7-8.8,16.6c0,1.2,1.1,3,2.2,3.5c8.1,3.4,16.5,6.2,24.5,9.9
		c9.1,4.2,18,8.9,26.8,13.6c3.3,1.8,6.4,3.3,10.4,3.4c13.1,0.1,24.5,4.9,35.1,12.7c11.5,8.6,15.5,20.3,15.8,33.9
		c0.2,7.8,0.1,15.2-4.4,22.3c-1.7,2.6-2.2,6.5,0.2,10.2c5,7.6,5.1,16.8,7.1,25.3c0.8,3.5-0.9,8.1-2.5,11.8
		c-4.7,10.6-12.4,18.9-22.1,25c-4.7,3-5.8,6.8-6.8,11.6c-2.1,10.2-4.6,20.3-10.7,29c-4.9,6.9-11.9,11.4-20,11
		c-7.6-0.3-12.3,3.5-17.1,7.6c-5.7,5-12.1,7.9-19.3,9.3c-9.9,2.1-19.6,1.5-28.5-3.6c-4.9-2.8-9.1-6.7-13.6-10.3
		c-1.5-1.2-2.5-1.7-4.8-1.3c-16.4,3.1-30.7-1-41.4-14.3c-3.7-4.5-5.3-10.4-5.5-16.3c-0.1-4.5,0.4-9.1,0.8-13.6
		c0.2-2.6-0.6-3.8-3.3-4.3c-13.1-2.4-21.1-13.6-22.7-25.7c-1.6-12.2,2.4-22.3,9.4-31.7c0.9-1.2,2.1-2.2,2.5-3.5
		c0.4-1.3,0.7-3.4,0-4.2c-13.4-14.9-6.1-46,6.2-57.9c7-6.7,14.4-11.5,23.9-13c1.8-0.3,3.3-2.1,5-3.1c13.4-7.2,25.2-16.8,37.5-25.7
		c2.7-1.9,5.6-3.5,8.5-5c2.5-1.4,3.5-3.2,3.4-6.2c-0.3-8.8,3.8-15.6,10.5-21c4.6-3.7,6-10.5,3-15.6c-2.3-3.8-9.4-3.4-11.9,0.6
		c-0.9,1.4-2.3,2.6-3.4,3.8C370.2,17.7,369.8,17.3,369.4,16.9z M428.5,81.3c-2.9-1.7-4.8-3.3-6.9-4.1c-11.2-4.1-22.5-8.2-33.8-12.1
		c-3.4-1.2-6.8-1.1-10.4,0.6c-9.5,4.5-19.3,8.3-28.7,13c-5.3,2.7-10.1,6.6-16.3,10.7c12.9,1.2,21.1,7.7,27.2,17
		c1.2-0.6,2.1-0.9,2.9-1.3c11.8-6.3,24.2-9.1,37.5-5.5c1.8,0.5,3.5,0.3,5.1-1.9c2.3-3.2,5.5-5.9,8.7-8.2
		C418.2,86.7,422.9,84.5,428.5,81.3z"/>
	<path fill-rule="evenodd" clip-rule="evenodd" d="M382.6,18.9c-1.9,1.2-2.8,2.3-3.7,2.3c-0.8,0-2.3-1.5-2.2-1.9
		c0.3-1,1.3-2.4,2.2-2.6C379.6,16.5,380.7,17.8,382.6,18.9z"/>
	<path fill-rule="evenodd" clip-rule="evenodd" fill="#FFFFFF" d="M460.1,217.8c-0.6-0.2-1.2-0.5-1.8-0.7c-1.1,1.2-2.2,2.4-3.3,3.6
		c-5.5,6.1-11.1,12.1-16.7,18.1c-0.5,0.5-1.7,0.3-3.4,0.4c4.7-5.1,8.7-9.1,12.4-13.5c6.8-8.1,12.2-16.9,13.9-27.5
		c0.5-3.3,0.4-6.7,0.6-10.1c2.7,0,3.9,1.7,3.4,4.1c-1,5.6-2.1,11.1-3.5,16.5c-0.6,2.4-1,4.7,1.8,4.9c5.1,0.5,10.6,1.5,14.3-3.8
		c1.1-1.5,2.4-2.8,3.5-4.3c4.5-6.3,9.2-12.6,8.2-20.9c-0.6-4.8-1.2-9.8-2.9-14.3c-3-8-6.7-15.7-10.4-23.3c-1.6-3.2-1.4-2.2,1.5-3.9
		c3.6-2.1,8.3-5.5,9-9c1.8-8.8,0.6-17.9-3.3-26.2c-4.6-9.7-13.2-15.2-22.6-19.5c-12.8-5.8-25.6-6.9-38.5,0.1c-5.9,3.2-8.6,9-11,14.6
		c-1.8,4.1,2,7.3,4.2,10.5c0.5,0.8,1,1.5,1.5,2.3c3.2,5.4,7.1,10.7,4.6,18.4c-0.7-1.2-1.5-1.9-1.7-2.7c-1.4-8.2-6.5-14.3-11.2-20.6
		c-7.9-10.5-19-10.5-30.3-8.1c-15.3,3.3-26.4,12.7-35.1,25.3c-0.7,1-1.7,1.8-2.6,2.7c-1.3-4.7,1.3-7.6,3.7-10.2
		c3.6-4,5.1-8.7,4.1-13.7c-2-10.1-3.1-12.1-13.4-13.6c-4.6-0.7-9.3-0.9-14-0.8c-6.2,0.1-11.9,2.3-16.9,6
		c-7.7,5.7-13.7,12.7-17.1,21.9c-2.4,6.3-3.3,12.7-1.5,19.1c1.3,4.7,3.7,9.3,6.1,13.6c1.5,2.6,4,3.1,6.6,0.7c1.4-1.2,3.3-1.8,6-3.2
		c-0.8,2-1,2.6-1.4,3.2c-0.3,0.4-0.7,0.8-1.1,1.2c-9.5,8.7-17.9,18-21.9,30.8c-2.3,7.4-1.6,14.4,1,21.2c2.2,5.9,6.3,11.3,12.1,13.6
		c6.9,2.7,14.6,3.5,21.6,5.1c0.9-7.6,1.6-14.2,2.5-20.8c0.1-1,1.4-1.8,2.3-3.1c0,6.9-0.1,12.9,0,18.9c0.2,6.5,2.3,12.2,7.5,16.4
		c2.3,1.9,4.7,3.8,7,5.7c-0.1,0.3-0.2,0.7-0.2,1c-1-0.1-2.1,0-2.9-0.4c-1.5-0.8-2.8-2.1-4.3-2.8c-4.2-2.2-6.8-5.7-8.8-9.9
		c-0.8-1.7-1.8-3.3-3-5.5c-3.2,2.8-6.2,4.7-8.2,7.3c-5,6.6-2.5,13.9,0.1,20.4c7.5,18.2,30.4,22.6,46.3,15.8c2-0.8,3.8-2,5.7-3.1
		c-0.3,1.4-1.1,2.6-0.7,3.3c2.8,5.6,4,12.8,11.4,14.5c5.9,1.3,12,2.2,18,2.4c3.3,0.1,7.1-0.7,9.9-2.4c5.5-3.4,11.3-7.2,10.4-15.3
		c6,0.3,11.8-0.2,17.1,1.1c11.1,2.8,22.1-5.7,25.5-13.9c3.1-7.6,5.5-15.6,7.6-23.6C459.6,227.2,459.6,222.5,460.1,217.8z"/>
</g>
<g>
	<path fill-rule="evenodd" clip-rule="evenodd" d="M117.2,11.4c-0.6-4.5,2.2-7.8,7.1-10c6.2-2.9,18.4,0.1,22.2,5.6
		c3,4.4,1.7,10.6-3.1,15.7c-4,4.2-8.3,8.2-11.8,12.8c-2,2.6-3.1,6.1-4,9.3c-0.2,0.8,1.6,2.7,2.8,3.3c7.3,3.6,15.1,6.4,22.1,10.5
		c11.8,7,23.2,14.6,34.7,22.1c5.2,3.4,10.2,7.2,15.5,10.5c1.9,1.2,4.5,1.2,6.8,2c13.7,4.8,18.8,16.6,23,28.9
		c2.5,7.5,3.9,15.3,1.5,23.1c-1.3,4.3-3.8,8.3-6.3,12.1c-1.4,2.2-2.4,3.5-1.3,6.6c6.6,17.9,7.1,35.8-1.3,53.3
		c-5.9,12.2-14.9,21.5-27.8,26.6c-1.5,0.6-2.6,2.8-3.6,4.4c-4.1,6.1-10.4,9.2-16.8,12c-7,3-14.3,4.9-22,4.5
		c-3.9-0.2-8.2-0.7-11.4-2.6c-6.1-3.7-10.7-2.8-15.9,1.8c-3.8,3.4-8.4,6.1-13,8.1c-11.3,4.8-22.3,2.2-33-2.5
		c-13.8-6.1-21.8-16.7-24-31.7c-0.2-1.1-1.9-2.6-3-2.7c-19.6-1.4-33.8-15-37.4-33.8c-2.1-11.2,0.3-21.7,5-31.6
		c3.5-7.4,8.4-14.2,12.5-21.5c0.7-1.3,0.8-3.6,0.2-5c-3-6.6-4.7-13.5-4.6-20.7c0-10.7,5.3-19.2,12.2-26.7c6.4-6.9,14.8-11.1,24-13.1
		c4.1-0.9,8.5-0.4,12.8-0.9c1.8-0.2,3.9-0.6,5.2-1.8c5.7-5.1,11-10.8,16.8-15.7c7-6,14.5-11.5,21.7-17.3c0.9-0.7,1.6-1.9,1.8-2.9
		c1.3-7.1,4.2-13.5,9.8-18.2c5.8-4.9,5.2-11.4,4.6-17.7c-0.4-3.7-8.6-6.2-12.9-3.8C123,6.2,120.3,9,117.2,11.4z M192,90.3
		c-1.8-1.5-2.9-2.6-4.2-3.4c-9.1-5.3-18.1-10.9-27.4-15.7c-9.3-4.9-18.9-9.3-28.7-13.3c-2.6-1.1-6.7-0.9-9,0.5
		c-12,6.8-23.6,14.2-35.4,21.3c0.1,0.4,0.2,0.9,0.3,1.3c3.3,1.6,6.8,2.8,9.7,4.9c2.8,2,4.8,1.8,7.4,0c3.7-2.5,7.5-5,11.5-6.9
		c8.7-3.9,17.7-5.5,27.4-4.3c12.2,1.5,24.1,3.4,32.3,13.7c3.8,4.8,8,5,13,3C189.6,91,190.4,90.8,192,90.3z"/>
	<path fill-rule="evenodd" clip-rule="evenodd" d="M127.9,9c1.2,2,2.1,3.1,2.5,4.3c0.1,0.3-1.6,1.7-2.1,1.6c-1-0.3-2.1-1.4-2.4-2.3
		C125.8,11.8,126.9,10.7,127.9,9z"/>
	<path fill-rule="evenodd" clip-rule="evenodd" fill="#FFFFFF" d="M188.2,109.2c-0.5,0.2-0.9,0.5-1.4,0.7c-0.9-1-1.9-1.9-2.6-3
		c-3.3-4.8-6.1-9.9-9.8-14.4c-5.5-6.6-12.6-10.9-21.3-12.1c-6.3-0.9-12.7-2.7-18.9-2.2c-14,1.3-25.8,8-35.8,17.8
		c-3.1,3.1-5.7,6.7-8.6,10c-0.4,0.5-1.3,0.6-1.9,0.9c-0.1-0.7-0.5-1.5-0.3-2c1.2-2.3,2.3-4.7,3.9-6.8c1.9-2.4,2.1-4.5,0.6-7.2
		c-3.1-5.9-8.8-6-14.1-6.3c-10.2-0.7-19,3.2-27.4,8.7c-10.4,6.8-15.8,16.4-16.2,28.6c-0.2,4.8,0.4,9.8,1.7,14.4
		c1.8,6.3,5,12.1,9.4,17.3c6.3-5.1,8.2-14.7,17.9-15.1c-0.6,1.4-1.5,2.6-2.5,3.5C54.8,147,50.2,153,48,161
		c-1.8,6.6-2.3,13.1-0.8,19.7c0.2,1-0.7,2.2-1.4,4.3c-4.4-10.1-2.2-19.1-0.8-28.1c-8.5-1.1-14,1.9-17.9,10.5
		c-4.7,10.3-8,21-5.6,32.6c2.9,14.4,10.4,25.2,25.1,29.2c6.2,1.6,12.9,1.3,19.4,1.8c1.5,0.1,2.9,0,4.4,0c-3.6,2.4-4.4,5.5-4.4,9
		c0,1.2,0.1,2.5-0.3,3.6c-1.5,3.9,0.1,6.9,2.2,10c5.3,8,13.3,11.9,22,14.8c7.7,2.6,15.2,2.9,23.2,0.1c8-2.8,14.3-7.9,20.5-13.2
		c2-1.7,3.6-3.8,5.9-6.2c-6.2,0.3-11.4,0.6-16.5,0.8c-0.2-0.3-0.5-0.7-0.7-1c0.7-0.9,1.4-2.6,2.1-2.6c14.4,0.5,26.7-5.3,38.5-12.6
		c1.2-0.7,2.6-1.1,3.9-1.6c-1.6,2.3-3.4,4.1-5.5,5.4c-5,3-10.1,5.7-15.1,8.7c-1,0.6-2.4,2.7-2.1,3c2,2.7,3.9,6,6.7,7.5
		c6.7,3.7,13.9,5,21.5,1.9c10.9-4.4,20-10,22.6-22.7c0.8-4.2,2.8-8.1,4.3-12.4c1.1,0.4,1.9,0.7,2.6,1c7.9,3.5,15,0.7,19.2-7
		c4.1-7.6,5.8-15.8,6.8-24.1c0.8-6.3-0.1-12.3-3.8-17.9c-3-4.3-7.3-5.5-11.3-2.5c-1.2,0.9-2.5,1.5-4.4,2.6
		c5.5-6.3,10.3-12.1,15.4-17.5c5.8-6.1,9-13.7,8-21.6c-1.1-8.3-4-16.6-7.2-24.5c-3.8-9.4-11.3-15.3-21.6-16.7
		c-4.5-0.6-9-0.5-13.1,2.3c-2.8,1.9-4.1,4-2.4,7.4C187.8,106.1,187.9,107.7,188.2,109.2z"/>
</g>
<g>
	<path fill-rule="evenodd" clip-rule="evenodd" d="M887.4,548.7c4.3,0.2,5.9,1.5,5.4,4.1c-0.3,1.5-1.6,3-2.8,4.1
		c-2.4,2.4-5,4.4-8.6,4.5c-3.3,0.1-5,1.8-5.3,5c-0.3,4-0.7,7.9-1,11.9c0,0.5,0.4,1.1,0.4,1.7c0,0.5-0.2,1.3-0.6,1.5
		c-0.4,0.2-1.3,0.1-1.6-0.3c-1.5-1.8-2.6-3.6-2-6.2c1.5-5.9,2.6-11.9,3.7-17.8c0.4-1.9,0.5-3.9,0.8-5.9c0.1-0.4,0.6-1.1,1-1.1
		C881,549.6,884.9,549.1,887.4,548.7z M877.5,559.9c3.9,0.1,6.8-0.9,8.9-3.1c1-1.1,1-3.1,1.5-4.8c-1.5-0.2-2.9-0.5-4.4-0.5
		c-1.6,0-3.4-0.1-4.1,1.7C878.6,555.2,878.1,557.4,877.5,559.9z"/>
	<path fill-rule="evenodd" clip-rule="evenodd" d="M952.5,554.4c0.7-5.8,1.5-11.4,2.2-17c0.4-3,3.7-2.9,5.2-4.8
		c0.1-0.1,1.1,0.6,1.7,0.9c-3,5.3-4.3,10.8-5.1,16.5c-0.6,4.3-0.7,8.7-1.2,13.1c-0.1,0.8-0.7,1.9-1.2,2.1c-3.3,0.9-6.5,2.7-10.1,1.1
		c-3.4-1.5-4.1-4.7-1.7-7.4C944.8,555.7,948,553.9,952.5,554.4z M947.4,564.9c3.9,0.2,4.2-0.2,4-4.1c-0.1-0.8,0.5-1.7,0.4-2.5
		c-0.1-0.6-0.6-1.5-1.1-1.6c-1.7-0.3-4.8,1.8-5.4,3.4C944.4,562.3,945.5,564.8,947.4,564.9z"/>
	<path fill-rule="evenodd" clip-rule="evenodd" d="M813.1,567.2c-1.1-1.1-2.2-2.3-2.9-3.1c0.9-2.9,1.8-5.1,2.3-7.3
		c1.2-4.8,2.3-9.7,3.3-14.6c0.4-2.1,0.4-4.4,0.9-6.5c0.5-2.2,1.2-4.4,2.2-6.5c0.6-1.2,2-1.9,3.7-1.1c-2.1,8.6-4.2,17.1-6.3,25.7
		c0.2,0.1,0.4,0.2,0.6,0.3c0.7-0.4,1.3-0.8,2-1.1c3-1.5,5.7-0.6,6.1,3.4c0.3,2.4,0.6,4.9,0.8,7.3c0,0.5-0.6,1.1-0.9,1.6
		c-0.7-0.5-1.8-0.9-1.9-1.5c-0.4-2.6-0.4-5.3-0.6-8c-0.1-1.3-0.7-1.5-1.7-0.9c-1.7,1-3.9,1.6-4.9,3c-1,1.4-1.4,3.8-1,5.5
		C815.3,565.2,815.2,566.2,813.1,567.2z"/>
	<path fill-rule="evenodd" clip-rule="evenodd" d="M719.4,568.7c-1.2,1-2.2,0.9-3.1-0.9c-1.3-2.6-3-5-4.5-7.4
		c-0.2-0.2-1.3-0.3-1.4-0.1c-1.4,2.7-2.6,5.4-4,8.1c-0.4,0.7-0.9,1.4-1.4,2.1c-0.6-0.4-1.4-0.8-1.9-1.3c-2.9-3.6-5-7.7-6.4-12.1
		c-0.5-1.6-0.9-3.2-1.5-5c2-0.3,2.5,0.4,3,1.9c1.2,3.7,2.7,7.3,4.1,10.9c0.3,0,0.6,0,0.9,0.1c1.9-2.6,4-5.2,5.8-7.9
		c1.3-2.1,1.9-2.3,3.4-0.3c0.8,1.1,1.4,2.5,2.2,3.7c0.4,0.7,0.9,1.3,1.8,2.6c2.1-3.7,3.9-7,5.7-10.2c0.7-1.4,1.3-2.8,2.2-4.1
		c0.5-0.7,1.5-0.9,2.2-1.4c0.2,0.2,0.5,0.4,0.7,0.6c-0.4,0.9-0.8,1.9-1.2,2.8c-1.5,2.9-3,5.8-4.4,8.7c-0.8,1.8-1.5,3.7-2,5.6
		C719.3,566,719.5,567.2,719.4,568.7z"/>
	<path fill-rule="evenodd" clip-rule="evenodd" d="M731.6,563.9c2.2-2.6,3.9-4.7,5.7-6.7c0.5-0.6,1.4-1,2.2-1.1c0.4,0,1,0.8,1.3,1.3
		c1.2,1.9,2.4,3.8,3.6,5.7c0.2,0,0.5-0.1,0.7-0.1c0.9-2.2,1.8-4.3,2.8-6.5c1.2-2.5,1.7-5.4,3.9-7.4c0.5-0.4,1.4-0.3,2.2-0.4
		c0,0.9,0.5,2.1,0.1,2.5c-3.6,4.3-4.9,9.6-6.9,14.7c-0.1,0.3,0.3,0.9,0.2,1.2c-0.3,0.7-0.7,1.4-1.1,2c-0.6-0.4-1.3-0.7-1.7-1.2
		c-1.8-2.6-3.4-5.3-5.1-8c-0.3,0-0.6,0-0.8,0c-1.1,2.2-2.2,4.4-3.4,6.5c-0.5,0.8-1.3,2-1.9,2.1c-0.8,0-2-0.9-2.3-1.7
		c-1.6-3.2-3-6.5-4.3-9.9c-0.3-0.7,0.1-1.6,0.2-2.5c0.6,0.5,1.5,0.9,1.8,1.5C729.7,558.5,730.5,560.9,731.6,563.9z"/>
	<path fill-rule="evenodd" clip-rule="evenodd" d="M833.5,559.9c-0.1,2,1.5,3.7,3.6,3.9c2.4,0.2,2.7,0.4,3.4,2.2
		c-2.7,0.2-5.5,0.7-7.4-1.4c-1.8-1.9-2.6-4.1-2.1-7.1c0.7-3.7,3.5-5.4,5.7-7.6c1.8-1.8,4.3-2.8,6.7-3.9c1.9-0.9,4-0.7,5.7,0.7
		c2.4,2.1,1.6,5.9-1.5,7.4c-3.1,1.5-6.2,3-9.4,4.4C836.7,559,835.1,559.4,833.5,559.9z M833.7,557.1c3.8-1,7.3-1.6,9.6-4.4
		c0.6-0.7,0.5-2,0.4-3c-0.1-0.3-1.6-0.9-2-0.7C838.6,551,835.6,553.1,833.7,557.1z"/>
	<path fill-rule="evenodd" clip-rule="evenodd" d="M788.4,573.6c-0.3-1.5,0-2,1.4-2.3c4.7-1,9.1-3,12.2-6.8c1.1-1.3,1.6-3.2,2-4.9
		c0.3-1.6-0.7-2.6-2.4-2.8c-1.7-0.2-3.4-0.3-5-0.7c-3.9-0.9-4.1-3.7-2.4-6.4c1.8-2.8,4.5-4.9,7.7-5.9c0.6-0.2,1.4-0.5,2-0.3
		c0.6,0.2,1.1,0.9,1.6,1.4c-0.6,0.3-1.1,0.8-1.7,0.9c-2.7,0.2-6.3,4.3-5.9,7c0.1,0.6,0.9,1.5,1.5,1.7c1.3,0.4,2.7,0.7,4.1,0.7
		c2,0,3.3,0.8,4.2,2.6c0.9,1.9,1,3.7-0.4,5.5c-2.6,3.4-5.9,5.9-9.8,7.5c-2.2,1-4.5,1.7-6.8,2.5C790,573.4,789.2,573.5,788.4,573.6z"
		/>
	<path fill-rule="evenodd" clip-rule="evenodd" d="M915.7,538.8c6.2,0.6,6.2,0.6,6.8,2.7c-2,0-3.8,0.2-5.7,0.1
		c-1.4-0.1-1.9,0.3-2.1,1.8c-0.6,4.6-1.3,9.1-1.9,13.6c-0.3,2.5-0.5,5.1-0.8,8c-0.4,0-1.3,0.1-2.1,0.2c0-0.7-0.2-1.4-0.1-2.1
		c0.5-5.7,1.1-11.5,1.7-17.2c0.5-4.2,0.6-4.2-3.7-3.4c-0.9,0.2-1.8,0.4-2.8,0.5c-0.5,0.1-1.3,0.1-1.5-0.2c-0.4-0.4-0.6-1.3-0.4-1.7
		c0.6-1.4,1.1-3,3.2-2.2c0.7,0.3,1.6,0.2,2.4,0.4c3.3,0.9,3.9,0.3,4.7-3c0.6-2.2,2-4.2,3.2-6.2c0.2-0.4,1.5-0.3,2.2-0.1
		c0.1,0,0.3,1.2,0.1,1.6C917.9,533.9,916.8,536.3,915.7,538.8z"/>
	<path fill-rule="evenodd" clip-rule="evenodd" d="M780.3,548c-1.7,3.3-3.5,6.5-5,9.9c-0.9,2-1.2,4.2-1.8,6.3
		c-0.2,0.7-0.5,1.8-0.8,1.8c-0.9,0.1-2.1,0-2.6-0.5c-1-1-1.6-2.4-2.3-3.7c-1.2-2.2-2.5-2.3-3.9-0.3c-0.8,1.2-1.2,2.8-2.2,4
		c-0.6,0.8-1.8,1.3-2.8,1.7c-0.2,0.1-1-0.9-1.3-1.6c-1-2.4-2-4.9-2.8-7.4c-0.2-0.6,0.3-1.9,0.7-2.1c1.1-0.4,1.5,0.3,1.8,1.5
		c0.3,1.6,1.1,3.2,1.9,5.3c1.8-2.1,3.3-3.8,4.7-5.6c1.4-1.9,2.5-1.9,3.8,0c0.3,0.5,0.7,0.9,1.1,1.4c0.5,0.6,1,1.3,1.5,1.9
		c0.7-0.6,1.5-1.2,1.9-1.9c1.3-2.3,2.4-4.8,3.6-7.2c0.5-1.1,1-2.1,1.6-3.2C778.4,546.3,779,546.3,780.3,548z"/>
	<path fill-rule="evenodd" clip-rule="evenodd" d="M853.3,562.6c0.6,2.7,3.2,4,6.5,3.3c1.2-0.3,2.6-0.8,3.5,0.7
		c-2.6,2.6-10,2.2-11.9-1.6c-0.7-1.3-1-3.3-0.6-4.6c1.7-4.8,4.5-8.9,9.7-10.4c3.2-0.9,6.8,0.3,6,4.9c-0.1,0.4-0.4,1-0.7,1.2
		c-2.9,1.9-5.8,3.8-8.9,5.5C855.9,562.2,854.6,562.3,853.3,562.6z M854.4,560c3.3-1.3,6.6-2.4,7.3-6.6
		C857,553.9,853.6,557.1,854.4,560z"/>
	<path fill-rule="evenodd" clip-rule="evenodd" d="M987.2,563.2c2-3.9,3.7-7.1,5.4-10.3c1-1.9,2-3.9,4.5-4.2
		c0.8-0.1,1.5,0.2,2.3,0.3c-0.2,0.9-0.1,2-0.6,2.6c-4.4,4.8-8.3,10-11.2,15.8c-1.3,2.6-3.4,5.2-2.5,8.5c0.1,0.4-1.1,1.6-1.6,1.5
		c-0.6,0-1.8-1.1-1.7-1.5c0.7-2.4,1.5-4.8,2.5-7.1c0.4-1.1,1.4-2,1.8-3c0.2-0.6,0-1.6-0.4-2.2c-1.8-3-3.6-5.9-5.4-8.9
		c-0.2-0.4-0.2-1.1,0-1.5c0.1-0.3,0.9-0.5,1.2-0.4c0.5,0.2,1,0.6,1.3,1.1C984.2,556.9,985.6,559.8,987.2,563.2z"/>
	<path fill-rule="evenodd" clip-rule="evenodd" d="M975,566.5c-2.7,0.5-2.2-1.8-2.3-2.9c-0.2-2-1.1-2.3-2.7-1.9
		c-1.7,0.4-3.4,0.7-4.9,1.4c-0.9,0.4-2.8,1.1-0.8,2.7c0.3,0.2,0.3,1.2,0.2,1.3c-0.8,0.3-1.6,0.7-2.4,0.6c-0.4,0-1.2-0.8-1.1-1.2
		c0.3-2,0.1-4,1.4-5.9c2-2.9,3.6-6.1,5.3-9.1c1-1.8,2.5-2.4,4.4-2.3C972.6,555,976.2,560.3,975,566.5z M972.5,559.5
		c-1-1.9-1.8-3.5-2.7-5c-0.1-0.2-1-0.2-1.2-0.1c-1.3,1.8-2.5,3.6-3.9,5.8C967.5,560,969.6,559.8,972.5,559.5z"/>
	<path fill-rule="evenodd" clip-rule="evenodd" d="M927.2,566.1c-4,0.4-6.9-3.4-6.6-6.8c0.3-3.8,3.9-6.9,8.1-6.7
		c4,0.1,8,3.4,7.8,6.4C936.3,563.1,932.1,566.4,927.2,566.1z M933.6,559.4c0.1-2.6-1.1-4.1-3.6-4.2c-3-0.2-6,3.4-5.3,6.6
		c0.1,0.7,0.5,1.8,0.8,1.9c1.6,0.1,3.4,0.2,4.8-0.4C931.9,562.5,933.8,561.7,933.6,559.4z"/>
	<path fill-rule="evenodd" clip-rule="evenodd" d="M899.8,565.4c0.4,2.2-1.3,2.3-2.6,2.4c-1.3,0-2.4-0.7-2.3-2.5
		c0.1-2.2,1.7-2.5,3.1-2.3c0.8,0.1,1.5,1.3,2.2,2C900.2,565.2,900,565.3,899.8,565.4z"/>
	<path fill-rule="evenodd" clip-rule="evenodd" d="M782.5,568.7c-2-0.5-3-1.4-2.8-3c0.2-1.6,1.5-2.1,2.9-1.8c1,0.2,1.9,1,2.8,1.6
		C784.4,566.6,783.4,567.6,782.5,568.7z"/>
</g>
</svg>
