<?xml version="1.0" encoding="utf-8"?>
<!-- Generator: Adobe Illustrator 16.0.0, SVG Export Plug-In . SVG Version: 6.00 Build 0)  -->
<!DOCTYPE svg PUBLIC "-//W3C//DTD SVG 1.1//EN" "http://www.w3.org/Graphics/SVG/1.1/DTD/svg11.dtd">
<svg version="1.1" id="Layer_1" xmlns="http://www.w3.org/2000/svg" xmlns:xlink="http://www.w3.org/1999/xlink" x="0px" y="0px"
	 width="96.473px" height="87.098px" viewBox="0 0 96.473 87.098" style="enable-background:new 0 0 96.473 87.098;"
	 xml:space="preserve">
<path style="fill-rule:evenodd;clip-rule:evenodd;" d="M31.507,32.965c-0.641-1.904-1.179-3.399-1.648-4.917
	c-1.13-3.652-1.911-7.398-2.92-11.086c-1.033-3.774-0.704-7.722,0.371-11.447c0.708-2.458,2.577-4.209,5.223-4.896
	c2.455-0.638,4.925-0.979,7.348-0.034c1.706,0.665,3.682-0.354,5.302,1.267c1.293,1.292,3.085,2.091,4.68,3.069
	c0.838,0.515,1.698,1.018,2.602,1.4c1.786,0.756,3.193,1.968,4.286,3.516c1.007,1.426,1.933,2.919,2.778,4.447
	c1.408,2.547,1.318,5.33,0.725,8.022c-0.398,1.805-1.494,3.271-3.085,4.505c-3.501,2.715-7.647,4.118-11.487,6.137
	c-2.697-0.211-4.935,1.532-7.554,1.758c-1.42,0.123-1.835,1.046-1.484,2.438c0.893,3.532,2.429,6.829,4.131,9.999
	c1.877,3.497,4.156,6.78,6.311,10.124c0.667,1.033,1.499,1.961,2.169,2.825c1.483,0.392,2.307-0.299,3.061-1.2
	c1.438-1.721,2.868-3.449,4.355-5.126c0.574-0.646,1.21-1.347,1.968-1.702c2.015-0.945,2.273-2.4,1.722-4.346
	c-0.262-0.925-0.208-1.939-0.29-2.836c3.165-1.822,6.388-3.078,9.726-4.05c6.258-1.821,12.391-4.085,18.814-5.524
	c0.09,2.331,0.09,2.331-0.865,3.015c-1.009,0.723-1.985,1.496-3.031,2.157c-2.422,1.531-3.865,3.493-2.908,6.611
	c-1.085,0.798-2.078,1.53-3.073,2.262c-3.409,2.508-6.815,5.02-10.232,7.518c-0.705,0.516-1.411,1.05-2.183,1.449
	c-1.207,0.625-2.471,0.189-3.181-1.027c-0.554-0.948-1.063-1.923-1.688-3.059c-0.723,0.323-1.377,0.444-1.787,0.828
	c-2.474,2.316-4.211,5.18-6.057,7.988c1.157,1.555,2.424,2.264,4.166,2.468c1.563,0.182,3.055,1.018,4.617,1.175
	c4.345,0.438,8.666,0.149,12.943-0.841c2.158-0.499,4.364-0.79,7.088-1.271c-1.834,1.814-3.741,2.364-5.544,2.775
	c-3.505,0.799-7.077,1.349-10.647,1.796c-1.448,0.182-2.965-0.166-4.449-0.294c-0.617-0.054-1.23-0.238-1.844-0.23
	c-3.1,0.038-5.888-1.002-8.488-2.536c-1.471-0.866-2.574-0.7-4.116,0.074c-4.979,2.502-9.918,5.203-15.582,5.969
	c-0.589,0.08-1.147,0.42-1.708,0.665c-2.306,1.01-4.699,1.625-7.232,1.542c-3.679-0.121-7.372-0.13-11.031-0.478
	c-1.696-0.16-3.529-0.406-5.071-0.984c-3.017-1.131-5.755-2.661-6.362-6.575c-0.846-5.448-0.274-10.389,3.265-14.78
	c0.468-0.581,0.928-1.186,1.281-1.839c2.159-3.998,5.584-6.611,9.446-8.771c0.649-0.363,1.25-0.816,1.864-1.241
	c3.088-2.136,6.417-3.828,9.916-5.157C27.714,33.907,29.411,33.557,31.507,32.965z M32.36,36.604
	c-4.057,2.208-8.382,2.911-12.247,5.025c-4.042,2.209-6.895,5.37-8.614,9.444c-1.656,3.924-1.944,7.983,1.12,11.589
	c0.402,0.474,0.678,1.061,1.102,1.511c0.498,0.529,1.022,1.118,1.658,1.42c3.259,1.549,6.588,2.933,10.251,3.165
	c1.109,0.07,2.349,0.266,3.32-0.121c2.458-0.979,5.093-1.116,7.571-1.895c3.374-1.06,7.073-1.408,9.833-4.275
	c-0.252-0.661-0.41-1.405-0.791-2.009c-1.125-1.784-2.335-3.517-3.521-5.263c-0.629-0.927-1.225-1.884-1.932-2.75
	c-1.829-2.239-3.15-4.735-4.185-7.432C34.869,42.263,33.631,39.581,32.36,36.604z M57.813,19.138
	c-0.053-0.223-0.159-0.581-0.22-0.948c-0.58-3.514-2.449-6.286-5.238-8.34c-2.502-1.842-5.158-3.479-8.024-4.764
	c-1.147-0.514-2.153-0.568-3.208-0.028c-3.39,1.736-6.345,4.026-8.304,7.336c-1.269,2.143-1.909,4.439-1.625,7.09
	c0.433,4.036,2.25,7.602,3.344,11.405c0.33,1.146,1.461,1.595,2.768,1.234c4.017-1.105,8.197-1.755,11.754-4.186
	c0.811-0.554,1.73-1.019,2.668-1.3c1.771-0.531,2.906-1.888,4.249-2.984C57.369,22.518,57.448,20.841,57.813,19.138z M81.564,39.762
	c-2.915-0.177-4.966,0.673-7.021,1.471c-3.565,1.384-7.142,2.746-10.661,4.239c-1.854,0.785-2.036,1.971-0.863,4.309
	c1.15-0.313,2.313-0.742,3.514-0.925c1.307-0.198,2.475,0.104,2.802,1.825c-0.963,0.212-1.914,0.338-2.81,0.634
	c-2.898,0.956-3.133,2.206-0.852,4.405c0.141,0.137,0.455,0.093,0.729,0.139c1.981-1.429,3.977-2.888,5.994-4.315
	c1.316-0.933,2.629-1.879,4.009-2.712c1.283-0.774,2.025-1.837,2.101-3.309c0.066-1.314,0.564-2.371,1.451-3.336
	C80.518,41.576,80.893,40.794,81.564,39.762z"/>
<path style="fill-rule:evenodd;clip-rule:evenodd;" d="M50.264,87.098c0.237-0.371,0.391-0.922,0.729-1.081
	c0.996-0.473,2.038-0.942,3.113-1.139c2.426-0.442,4.889-1.032,7.324-0.981c2.836,0.06,5.543-0.529,8.305-0.841
	c2.705-0.305,5.408-0.62,8.115-0.902c0.512-0.053,0.979,0.114,1.099,0.951c-2.087,1.09-4.463,0.906-6.705,1.224
	c-4.381,0.619-8.786,1.061-13.181,1.582c-0.369,0.043-0.73,0.19-1.096,0.194C55.479,86.132,53.08,86.605,50.264,87.098z"/>
<path style="fill-rule:evenodd;clip-rule:evenodd;" d="M63.277,77.274c-0.297,1.126-1.303,1.528-2.169,1.399
	c-2.597-0.387-5.091,0.51-7.693,0.351c-2.432-0.149-4.906,0.57-7.373,0.759c-1.835,0.141-3.702,0.27-5.445-0.152
	c-0.474-0.896-0.047-1.363,0.57-1.481c0.965-0.186,1.966-0.2,2.954-0.25c1.981-0.1,3.988-0.405,5.942-0.21
	c4.219,0.423,8.301-0.634,12.453-0.832C62.714,76.849,62.923,77.072,63.277,77.274z"/>
<path style="fill-rule:evenodd;clip-rule:evenodd;" d="M76.568,76.115c-1.727,1.433-4.882,1.788-11.611,1.327
	c1.316-1.155,2.707-0.495,3.904-0.734c1.202-0.239,2.414-0.479,3.634-0.57C73.811,76.04,75.14,76.115,76.568,76.115z"/>
<path style="fill-rule:evenodd;clip-rule:evenodd;" d="M91.483,76.159c1.562-1.695,3.149-1.056,4.989-0.652
	C94.794,76.787,94.794,76.787,91.483,76.159z"/>
<path style="fill-rule:evenodd;clip-rule:evenodd;" d="M84.393,76.127c-2.591,0.646-4.297,1.682-6.128,0.215
	C80.378,75.517,80.378,75.517,84.393,76.127z"/>
<path style="fill-rule:evenodd;clip-rule:evenodd;" d="M87.712,81.495c-1.378,1.759-3.114,1.071-4.976,1.034
	C84.406,81.494,85.898,80.822,87.712,81.495z"/>
<path style="fill-rule:evenodd;clip-rule:evenodd;" d="M89.148,76.387c-1.589,0-2.281,0.033-2.967-0.028
	c-0.137-0.012-0.338-0.391-0.329-0.592c0.008-0.16,0.339-0.467,0.445-0.436C86.981,75.535,87.644,75.814,89.148,76.387z"/>
<path style="fill-rule:evenodd;clip-rule:evenodd;" d="M91.093,81.5c-0.111,0.12-0.227,0.246-0.343,0.371
	c-0.139-0.131-0.277-0.263-0.416-0.394c0.083-0.076,0.185-0.229,0.243-0.213C90.767,81.313,90.938,81.425,91.093,81.5z"/>
<path style="fill-rule:evenodd;clip-rule:evenodd;fill:#64908A;" d="M32.36,36.604c1.271,2.978,2.509,5.659,3.565,8.41
	c1.034,2.696,2.356,5.192,4.185,7.432c0.707,0.866,1.302,1.823,1.932,2.75c1.187,1.746,2.396,3.479,3.521,5.263
	c0.381,0.604,0.538,1.348,0.791,2.009c-2.759,2.867-6.459,3.216-9.833,4.275c-2.478,0.778-5.113,0.915-7.571,1.895
	c-0.971,0.387-2.211,0.191-3.32,0.121c-3.663-0.232-6.993-1.616-10.251-3.165c-0.636-0.302-1.16-0.891-1.658-1.42
	c-0.423-0.45-0.699-1.037-1.102-1.511c-3.064-3.605-2.776-7.665-1.12-11.589c1.719-4.074,4.573-7.235,8.614-9.444
	C23.978,39.515,28.303,38.812,32.36,36.604z"/>
<path style="fill-rule:evenodd;clip-rule:evenodd;fill:#64908A;" d="M57.813,19.138c-0.365,1.703-0.444,3.38-1.836,4.516
	c-1.343,1.097-2.478,2.453-4.249,2.984c-0.938,0.281-1.857,0.746-2.668,1.3c-3.557,2.431-7.737,3.08-11.754,4.186
	c-1.307,0.36-2.438-0.088-2.768-1.234c-1.094-3.804-2.912-7.369-3.344-11.405c-0.284-2.65,0.355-4.947,1.625-7.09
	c1.959-3.31,4.914-5.6,8.304-7.336c1.055-0.54,2.061-0.485,3.208,0.028c2.866,1.284,5.522,2.922,8.024,4.764
	c2.789,2.054,4.658,4.826,5.238,8.34C57.654,18.557,57.761,18.915,57.813,19.138z M46.141,18.648
	c1.048,0.005,2.023-0.866,1.999-1.786c-0.024-0.912-1.01-1.851-1.968-1.874c-1.139-0.028-2.224,0.998-2.165,2.046
	C44.058,17.941,44.985,18.643,46.141,18.648z M51.436,22.494c2.961-1.812,2.989-2.199,0.515-4.142
	C49.307,20.434,49.307,20.434,51.436,22.494z"/>
<path style="fill-rule:evenodd;clip-rule:evenodd;fill:#64908A;" d="M81.564,39.762c-0.672,1.032-1.047,1.814-1.607,2.425
	c-0.887,0.965-1.385,2.021-1.451,3.336c-0.075,1.472-0.817,2.534-2.101,3.309c-1.38,0.833-2.692,1.779-4.009,2.712
	c-2.018,1.428-4.013,2.887-5.994,4.315c-0.273-0.046-0.588-0.002-0.729-0.139c-2.281-2.199-2.047-3.449,0.852-4.405
	c0.896-0.296,1.847-0.422,2.81-0.634c-0.327-1.722-1.495-2.023-2.802-1.825c-1.2,0.183-2.363,0.612-3.514,0.925
	c-1.173-2.338-0.99-3.523,0.863-4.309c3.52-1.493,7.096-2.855,10.661-4.239C76.599,40.435,78.649,39.585,81.564,39.762z"/>
<path style="fill-rule:evenodd;clip-rule:evenodd;" d="M46.141,18.648c-1.156-0.006-2.083-0.707-2.134-1.614
	c-0.059-1.048,1.026-2.074,2.165-2.046c0.958,0.023,1.944,0.962,1.968,1.874C48.164,17.782,47.188,18.653,46.141,18.648z"/>
<path style="fill-rule:evenodd;clip-rule:evenodd;" d="M51.436,22.494c-2.129-2.061-2.129-2.061,0.515-4.142
	C54.425,20.295,54.396,20.683,51.436,22.494z"/>
</svg>
