<?xml version="1.0" encoding="utf-8"?>
<!-- Generator: Adobe Illustrator 16.0.0, SVG Export Plug-In . SVG Version: 6.00 Build 0)  -->
<!DOCTYPE svg PUBLIC "-//W3C//DTD SVG 1.1//EN" "http://www.w3.org/Graphics/SVG/1.1/DTD/svg11.dtd">
<svg version="1.1" id="Layer_1" xmlns="http://www.w3.org/2000/svg" xmlns:xlink="http://www.w3.org/1999/xlink" x="0px" y="0px"
	 width="391.405px" height="152.335px" viewBox="0 0 391.405 152.335" style="enable-background:new 0 0 391.405 152.335;"
	 xml:space="preserve">
<path style="fill-rule:evenodd;clip-rule:evenodd;" d="M230.053,112.385c-1.608-0.338-3.061-0.964-4.245-2.169
	c-0.521-0.529-1.14-0.979-1.766-1.389c-2.841-1.857-5.311-4.071-7.239-6.907c-0.606-0.892-1.61-1.515-2.617-2.427
	c-1.307,1.137-2.49,2.168-3.813,3.318c-0.951,4.877-1.921,9.882-2.904,14.885c-0.889,4.514-1.795,9.023-2.684,13.538
	c-0.167,0.847-0.354,1.696-0.418,2.553c-0.379,4.966-1.023,9.911-1.045,14.905c-0.009,1.807-0.925,2.604-2.631,2.26
	c-4.455-0.898-8.854-0.621-13.328-0.041c-2.709,0.352-5.41,0.541-8.076,1.256c-1.271,0.34-2.709,0.059-4.109,0.059
	c-1.436-2.125-3.81-3.121-5.305-5.145c-2.238-3.026-3.511-6.074-2.717-10.021c0.978-4.856,2.157-9.761,1.254-14.807
	c-0.062-0.349,0.104-0.731,0.11-1.1c0.068-4.27,1.502-8.304,2.176-12.469c0.475-2.937,1.521-5.765,1.381-8.819
	c-0.05-1.088,0.362-2.195,0.543-3.297c0.524-3.19,1.087-6.377,1.546-9.578c0.672-4.684,1.609-9.315,2.553-13.947
	c0.622-3.052,1.327-6.088,1.894-9.149c0.179-0.966,0.127-2.001,0.021-2.988c-0.405-3.77,1.163-6.772,3.525-9.51
	c1.41-1.634,3.135-2.867,4.985-3.911c1.31-0.74,2.747-1.174,4.308-1.058c4.242,0.315,8.462,0.174,12.693-0.348
	c2.842-0.351,5.732-0.295,8.598-0.482c1.238-0.081,2.463-0.358,3.701-0.467c0.852-0.075,1.715-0.015,2.647-0.015
	c1.46,3.016,2.574,6.037,4.061,8.901c1.481,2.856,2.788,5.784,4.761,8.691c0.524-0.603,1.1-0.977,1.244-1.476
	c0.836-2.875,2.723-5.371,3.027-8.431c1.371-1.824,1.824-4.417,4.432-5.214c0.457-0.14,0.878-0.483,1.25-0.808
	c3.348-2.923,7.323-3.57,11.505-2.871c3.613,0.604,7.221,0.319,10.828,0.372c1.216,0.018,2.436-0.486,3.657-0.73
	c3.87-0.772,7.395-0.031,10.702,2.432c-0.359,3.938,1.258,7.553,1.905,11.346c0.712,4.174,1.776,8.289,2.663,12.434
	c0.155,0.728,0.225,1.479,0.281,2.223c0.501,6.589,1.22,13.114,3.159,19.502c2.24,7.376,4.122,14.862,5.76,22.403
	c0.026,0.121,0.015,0.266,0.078,0.363c2.366,3.654,2.713,8.241,5.508,11.717c-0.262,0.355-0.415,0.754-0.703,0.926
	c-2.876,1.703-5.409,3.938-8.473,5.361c-0.994,0.461-1.912,1.184-2.713,1.945c-2.438,2.319-5.044,4.389-7.968,6.074
	c-0.956,0.551-1.753,1.386-2.601,2.117c-1.333,1.15-2.777,2.083-4.427,2.755c-1.325,0.54-2.568,0.516-3.422-0.55
	c-1.056-1.318-2.441-2.049-3.8-2.924c-2.271-1.463-4.019-3.338-4.055-6.321c-0.01-0.853-0.239-1.765-0.604-2.538
	c-1.026-2.172-1.53-4.477-1.957-6.809c-0.74-4.043-1.548-8.066-2.679-12.025c-1.636-5.734-3.199-11.489-4.808-17.232
	c-0.128-0.457-0.361-0.886-0.685-1.658c-0.531,0.623-0.941,1.018-1.252,1.48c-2.295,3.41-4.456,6.916-6.89,10.223
	C235.187,109.093,233.231,111.242,230.053,112.385z M215.89,48.949c-4.147,0.144-8.376,0.276-12.604,0.442
	c-3.347,0.131-6.692,0.323-10.04,0.448c-1.005,0.038-1.664,0.447-1.946,1.409c-0.176,0.599-0.353,1.203-0.454,1.816
	c-0.851,5.157-1.918,10.292-2.463,15.481c-0.626,5.968-1.966,11.803-3.451,17.543c-2.012,7.778-3.222,15.621-3.997,23.575
	c-0.169,1.734-0.704,3.46-0.673,5.183c0.054,2.982-0.614,5.926-0.328,8.91c0.059,0.613-0.063,1.246-0.126,1.867
	c-0.394,3.844-0.826,7.684-1.185,11.531c-0.29,3.104-0.536,6.214-0.706,9.326c-0.036,0.658,0.344,1.34,0.523,1.979
	c0.603,0.031,0.977,0.1,1.34,0.063c5.324-0.547,10.646-1.115,15.972-1.658c1.229-0.125,2.511-0.009,3.462-0.834
	c0.946-1.555,1.008-3.164,0.981-4.801c-0.089-5.396,0.846-10.686,2.085-15.887c1.01-4.242,1.851-8.516,2.846-12.758
	c0.34-1.453,0.896-2.896,0.969-4.363c0.15-3.03,0.887-5.908,1.742-8.781c0.461-1.551,0.851-3.123,1.291-4.681
	c0.778-2.755,1.54-5.515,2.384-8.25c0.172-0.555,0.679-1.005,1.036-1.51c1.442-0.124,2.783-0.24,4.063-0.351
	c5.435,7.328,10.111,14.951,14.424,22.868c0.531-0.229,0.933-0.292,1.164-0.523c0.705-0.702,1.43-1.411,1.994-2.224
	c2.06-2.969,4.018-6.01,6.089-8.971c2.86-4.09,5.805-8.119,8.672-12.204c0.605-0.862,1.285-1.496,2.583-1.704
	c0.871,0.588,1.88,1.27,2.776,1.875c0.848,4.633,1.604,9.057,2.478,13.456c1.236,6.229,2.542,12.444,3.854,18.657
	c1.153,5.47,2.654,10.888,3.419,16.409c0.437,3.151,1.833,5.593,3.397,8.293c0.653-0.302,1.263-0.465,1.727-0.817
	c3.57-2.715,7.12-5.457,10.66-8.211c1.571-1.224,2.957-2.789,4.695-3.667c1.878-0.948,2.862-2.267,3.4-4.261
	c-0.902-2.254-2.026-4.503-2.706-6.879c-1.196-4.182-2.113-8.442-3.161-12.666c-0.39-1.57-0.819-3.129-1.23-4.693
	c-0.887-3.368-1.693-6.761-2.684-10.1c-0.931-3.138-1.063-6.387-1.583-9.581c-0.721-4.427-1.081-8.924-2.016-13.301
	c-0.911-4.268-1.729-8.541-2.396-12.849c-0.306-1.969-0.884-3.857-1.632-5.69c-2.325-0.772-4.53-0.735-6.774-0.309
	c-1.588,0.302-3.205,0.765-4.79,0.699c-2.477-0.103-5.003-0.348-7.386-0.988c-2.325-0.624-4.383-0.27-6.462,0.399
	c-1.208,2.754-2.294,5.399-3.515,7.98c-2.405,5.086-4.128,10.401-5.46,15.85c-0.232,0.948-0.196,1.959-0.335,2.934
	c-0.14,0.981-0.228,1.997-0.566,2.914c-0.185,0.501-0.779,1.007-1.302,1.19c-0.827,0.289-1.358-0.402-1.826-0.994
	c-0.151-0.19-0.235-0.436-0.349-0.657c-0.732-1.436-1.372-2.928-2.213-4.296c-3.594-5.847-6.969-11.801-9.783-18.078
	C218.874,52.5,217.928,50.382,215.89,48.949z"/>
<path style="fill-rule:evenodd;clip-rule:evenodd;" d="M59.65,109.645c-2.021-0.038-3.875-0.111-5.697,0.441
	c-2.037,0.618-4.127,0.896-6.25,1.05c-1.485,0.107-2.954,0.432-4.432,0.648c-2.209,0.325-4.379,0.908-6.649,0.824
	c-0.701-0.025-1.413,0.281-2.229,0.46c0,3.101-0.15,6.062,0.034,9.003c0.295,4.717,0.087,9.499,1.553,14.096
	c0.185,0.58,0.091,1.244,0.199,1.855c0.406,2.301-0.227,4.182-2.338,5.684c-2.079,0.104-4.28-0.26-6.465-0.73
	c-1.349-0.291-2.612-0.498-4.031-0.025c-1.133,0.379-2.453,0.202-3.69,0.252c-0.615,0.025-1.272-0.131-1.841,0.033
	c-2.912,0.843-5.958,0.167-8.879,0.846c-0.352,0.082-0.802,0.146-1.098-0.001c-1.416-0.704-2.81-1.458-4.177-2.253
	c-0.42-0.244-0.671-0.811-1.1-1.003c-2.55-1.14-2.786-3.175-2.43-5.603c0.197-1.344-0.003-2.741,0.068-4.109
	c0.065-1.236,0.25-2.466,0.397-3.697c0.088-0.738,0.389-1.504,0.276-2.205c-0.643-3.975,0.241-7.928,0.064-11.896
	c-0.179-3.993-0.165-7.995-0.204-11.994c-0.042-4.334,0.007-8.67-0.081-13.003C0.528,82.229,0.546,76.118,1.04,70.073
	c0.394-4.829,0.012-9.737,1.19-14.504c0.334-1.351,0.364-2.714-0.552-4.007c1.938-2.852,4.804-4.432,7.472-6.212
	c0.573-0.382,1.428-0.392,2.164-0.467c4.445-0.458,8.757-1.643,13.154-2.353c2.085-0.336,4.195-0.546,6.301-0.708
	c0.579-0.044,1.187,0.292,1.642,0.417c0.967,1.141,0.544,2.301,0.452,3.376c-0.383,4.457-0.704,8.908-0.639,13.392
	c0.036,2.474-0.445,4.957-0.392,7.429c0.08,3.729,0.337,7.461,0.685,11.177c0.224,2.389,1.498,3.562,3.971,3.612
	c4.362,0.091,8.738,0.192,13.08-0.396c2.815-0.381,5.613-0.9,8.375-1.351c0.504-1.126,0.961-2.138,1.412-3.152
	c0.765-1.72,1.241-3.486,1.338-5.399c0.12-2.355,0.492-4.697,0.737-7.046c0.05-0.482,0.158-1.021,0.004-1.45
	c-0.7-1.948-0.417-3.958-0.505-5.946c-0.056-1.24-0.093-2.5-0.341-3.708c-0.356-1.73-0.048-3.137,1.203-4.452
	c1.813-1.907,3.367-4.024,4.375-6.491c0.598-1.462,1.73-1.989,3.258-1.999c2.34-0.015,4.683-0.071,7.018-0.223
	c0.849-0.055,1.768-0.275,2.497-0.694c1.685-0.967,3.487-1.282,5.374-1.429c0.987-0.077,1.96-0.328,2.943-0.485
	c2.391-0.382,3.142,0.261,3.577,2.555c0.759,3.999-0.129,7.94-0.204,11.908c-0.039,2.111-0.002,4.224,0.024,6.335
	c0.037,2.995,0.176,5.99,0.127,8.983c-0.094,5.733-0.089,11.447,0.509,17.169c0.401,3.841,0.337,7.729,0.491,11.596
	c0.139,3.491,0.305,6.982,0.436,10.475c0.131,3.494,0.215,6.99,0.357,10.483c0.051,1.246,0.063,2.521,0.348,3.723
	c1.297,5.466,1.851,11.043,2.635,16.588c0.137,0.973,0.535,1.906,0.706,2.877c0.314,1.78-0.529,2.891-2.338,3.121
	c-0.74,0.094-1.496,0.127-2.241,0.102c-3.977-0.137-7.891,0.307-11.813,0.954c-3.202,0.528-6.461,0.405-9.692-0.021
	c-1.033-0.137-2.065-0.426-2.457-1.445c-0.704-1.834-2.231-2.589-3.833-3.334c-3.321-1.545-4.454-3.291-3.707-6.8
	c0.9-4.229,0.801-8.427,0.415-12.667c-0.056-0.616-0.152-1.25-0.07-1.855C60.885,115.105,60.503,112.547,59.65,109.645z
	 M67.621,81.143c-2.037,1.63-4.036,2.68-6.539,2.194c-0.236-0.045-0.496,0.027-0.745,0.053c-4.469,0.445-8.929,1.015-13.407,1.299
	c-3.724,0.237-7.47,0.227-11.203,0.148c-1.567-0.033-3.119-0.572-4.689-0.801c-1.665-0.241-2.748-1.19-2.335-2.613
	c0.586-2.021,0.174-3.929,0.04-5.916c-0.448-6.605-0.274-13.213,0.205-19.818c0.189-2.611,0.143-5.242,0.125-7.864
	c-0.003-0.571-0.344-1.14-0.539-1.738c-1.868-0.378-3.559-0.28-5.286,0.178c-1.564,0.416-3.183,0.626-4.776,0.934
	c-1.678,0.324-3.535-0.094-5.25,1.341c-0.205,2.299-0.422,4.766-0.646,7.232c-0.585,6.454-1.197,12.905-1.747,19.362
	c-0.254,2.983-0.457,5.976-0.558,8.968c-0.079,2.361,0.226,4.746,0.022,7.092c-0.531,6.113-0.579,12.226-0.398,18.351
	c0.176,5.964,0.402,11.93,0.4,17.895c-0.001,4.516,1.7,8.388,3.845,12.384c3.023-0.154,5.996-0.399,8.97-0.432
	c2.963-0.032,5.928,0.15,8.905,0.238c0.292-0.789,0.738-1.391,0.683-1.943c-0.358-3.592-0.679-7.197-1.302-10.748
	c-0.5-2.846-0.664-5.715-0.507-8.537c0.143-2.576-0.033-4.931-1.459-6.972c0.715-1.88,1.84-3.3,3.629-2.952
	c3.589,0.697,6.913-0.17,10.314-0.959c1.69-0.393,3.444-0.527,5.175-0.727c1.116-0.128,2.291,0.02,3.357-0.266
	c4.7-1.254,9.641-0.915,14.33-2.241c0.935-0.265,1.994-0.22,2.979-0.136c1.011,0.087,1.932,0.49,2.317,1.9
	c-1.468,1.979-1.541,4.463-1.433,6.963c0.107,2.477,0.298,4.949,0.441,7.424c0.101,1.738,0.04,3.5,0.317,5.207
	c0.244,1.509,0.209,2.931,0,4.439c-0.464,3.346-0.442,6.704,0.625,10.17c0.9,0.23,1.855,0.703,2.796,0.676
	c2.979-0.087,5.995-0.123,8.915-0.642c2.101-0.372,4.185-0.488,6.284-0.669c0.7-0.061,1.377-0.374,2.292-0.637
	c-0.395-3.338-0.664-6.551-1.174-9.727c-0.869-5.404-2.026-10.747-1.949-16.29c0.061-4.36-0.396-8.728-0.568-13.093
	c-0.088-2.244,0.029-4.499-0.095-6.74c-0.31-5.598-0.256-11.213-0.891-16.794c-0.084-0.741-0.031-1.499-0.03-2.249
	c0.006-5.484,0.066-10.969,0.003-16.453c-0.037-3.249-0.19-6.48,0.45-9.708c0.264-1.328,0.231-2.75,0.109-4.109
	c-0.095-1.06-0.159-2.259-1.308-3.001c-1.683,0.271-3.514,0.25-5.078,0.885c-2.756,1.12-5.562,1.33-8.449,1.316
	c-1.117-0.005-2.273-0.085-3.417,1.125c-0.135,3.022-1.091,6.271-0.57,9.668c0.147,0.959-0.091,1.978-0.149,2.969
	c-0.176,2.968-0.622,5.951-0.465,8.902C68.465,70.809,68.553,75.896,67.621,81.143z"/>
<path style="fill-rule:evenodd;clip-rule:evenodd;" d="M113.768,28.71c-8.112,0.51-15.804,0.837-23.459,1.548
	c-3.23,0.3-6.45,0.455-9.681,0.628c-2.233,0.12-4.505,0.388-6.657,0.969c-3.6,0.972-6.882-0.244-10.238-1.054
	c-1.071-0.259-2.084-0.757-3.293-1.208c-0.627-2.054-0.536-4.294-0.5-6.518c0.031-1.87,0.186-3.737,0.23-5.607
	c0.018-0.737,0.102-1.595-0.22-2.197c-1.284-2.404-0.298-4.327,1.181-6.1c1.264-1.514,2.511-3.151,4.718-3.396
	c2.29-1.746,4.906-2.208,7.712-2.024c6.108,0.399,12.166-0.693,18.253-0.67c5.106,0.02,10.203-0.55,15.312-0.154
	c0.736,0.057,1.511-0.014,2.231-0.182c2.948-0.687,5.95-0.429,8.928-0.591c0.74-0.04,1.498-0.015,2.216-0.165
	c3.282-0.688,6.612-0.592,9.932-0.692c0.494-0.015,0.991,0.042,1.482,0.009c3.856-0.255,7.709-0.668,11.569-0.754
	c5.84-0.132,11.688-0.103,17.53-0.021c4.113,0.058,8.229,0.535,12.334,0.43c4.216-0.107,8.456,0.206,12.665-0.745
	c1.883-0.425,3.981-0.135,5.947,0.112c2.148,0.27,3.164,1.626,3.163,3.857c-0.003,4.604-0.053,9.209-0.104,13.813
	c-0.009,0.746-0.008,1.527-0.225,2.226c-0.38,1.229-1.063,2.14-2.533,2.406c-7.657,1.386-15.339,1.896-23.09,0.943
	c-0.74-0.091-1.517-0.17-2.242-0.048c-3.936,0.665-7.964,0.241-11.892,1.115c-1.803,0.401-3.697,0.395-5.493,0.568
	c-1.03,1.04-1.245,2.287-1.381,3.506c-0.387,3.463-0.704,6.935-1.018,10.405c-0.056,0.617,0.021,1.249,0.063,1.871
	c0.565,8.314,0.932,16.639,1.19,24.966c0.151,4.868,0.622,9.682,1.491,14.473c0.823,4.534,1.306,9.137,2.277,13.636
	c0.919,4.26,1.16,8.654,2.6,12.808c1.222,3.524,1.938,7.222,3.526,10.616c1.04,2.221,0.752,4.082-1.114,5.795
	c-5.962-1.451-12.062-0.723-18.123-0.877c-4.102-0.104-8.205-0.2-12.305-0.365c-0.714-0.028-1.635-0.164-2.085-0.621
	c-1.803-1.829-4.25-2.576-6.321-3.947c-2.611-1.73-3.912-4.043-4.311-7.02c-0.033-0.247-0.045-0.498-0.053-0.748
	c-0.307-9.977-0.848-19.949-0.51-29.939c0.092-2.723-0.068-5.454-0.002-8.178c0.078-3.237,0.542-6.486,0.364-9.703
	c-0.31-5.618,0.454-11.195,0.273-16.803c-0.145-4.482,0.026-8.974,0.016-13.462C114.12,30.776,113.922,29.932,113.768,28.71z
	 M151.705,118.205c-0.677-3.44-1.263-6.358-1.82-9.28c-0.162-0.85-0.259-1.713-0.355-2.574c-0.194-1.736-0.278-3.49-0.565-5.212
	c-0.635-3.809-1.397-7.597-2.047-11.403c-0.314-1.84-0.411-3.719-0.751-5.554c-0.979-5.276-1.889-10.551-1.802-15.953
	c0.119-7.374-0.244-14.731-0.92-22.075c-0.092-0.992-0.095-2-0.045-2.995c0.113-2.236,0.602-4.503,0.364-6.695
	c-0.405-3.732,0.026-7.364,0.457-11.033c0.206-1.753,1.097-2.767,2.756-3.067c2.446-0.443,4.897-0.916,7.368-1.145
	c4.093-0.38,8.201-0.638,12.308-0.831c3.108-0.146,6.239-0.32,9.334-0.109c4.293,0.293,8.417-0.722,12.612-1.181
	c0.835-0.092,1.645-0.414,2.241-0.571c0.252-0.339,0.375-0.431,0.395-0.542c0.704-3.954,0.003-7.947,0.312-11.917
	c0.063-0.809-0.583-1.392-1.373-1.559c-0.723-0.152-1.487-0.214-2.225-0.172c-3.61,0.208-7.216,0.476-10.826,0.698
	c-1.611,0.099-3.239,0.302-4.836,0.173c-3.595-0.291-7.224,0.352-10.795-0.442c-0.357-0.08-0.751-0.038-1.122,0.001
	c-3.978,0.423-7.917-0.763-11.92-0.203c-1.949,0.272-3.975-0.061-5.959,0.026c-3.355,0.148-6.71,0.643-10.057,0.58
	c-6.832-0.128-13.603,0.787-20.415,0.912c-3.906,1.083-7.94,0.114-11.906,0.778c-2.542,0.426-5.229,0.208-7.829,0.006
	c-2.595-0.201-5.091,0.54-7.707,0.361c-2.957-0.202-5.971,0.206-8.943,0.513c-1.593,0.165-3.199,0.484-4.566,1.508
	c-0.758,0.568-1.211,1.22-1.289,2.157c-0.133,1.609-0.264,3.219-0.434,4.824c-0.363,3.425,0.814,6.657,1.255,9.979
	c0.165,1.236,1.125,1.823,2.477,1.762c3.116-0.14,6.232-0.299,9.345-0.499c2.492-0.16,4.994-0.286,7.466-0.615
	c3.816-0.508,7.614-1.151,11.412-1.789c1.338-0.225,2.651-0.86,3.977-0.862c4.121-0.005,8.212-0.36,12.304-0.742
	c1.855-0.173,3.705-0.426,5.548-0.705c0.969-0.146,1.924-0.513,2.927,0.236c0.046,0.468,0.166,0.957,0.129,1.433
	c-0.133,1.741-0.33,3.477-0.48,5.217c-0.366,4.215-0.939,8.427-1.033,12.649c-0.202,9.108-1.027,18.176-1.451,27.269
	c-0.261,5.605-0.533,11.208,0.079,16.824c0.377,3.462,0.472,6.957,0.643,10.439c0.288,5.857,0.714,11.693,2.04,17.431
	c0.337,1.458,0.666,2.901,1.542,4.183c6.733,0.909,13.444,0.316,20.127,0.564C148.833,119.052,150.034,118.554,151.705,118.205z"/>
<path style="fill-rule:evenodd;clip-rule:evenodd;" d="M307.573,43.222c1.89-0.843,4.041-1.331,6.201-1.894
	c3.075-0.803,6.179-0.614,9.267-0.758c2.968-0.138,5.9-0.628,8.918-0.414c2.309,0.164,4.693-0.325,7.001-0.752
	c1.411-0.261,2.384,0.14,3.419,1.096c-0.113,0.514-0.177,0.999-0.328,1.454c-1.296,3.9-2.913,7.725-3.828,11.711
	c-0.883,3.851-2.776,7.483-2.662,11.559c-1.52,6.547-2.501,13.201-4.065,19.75c-1.124,4.707-2.467,9.387-3.001,14.25
	c-0.409,3.732-0.777,7.445-0.735,11.201c0.029,2.605,0.246,5.22-0.454,7.801c-0.305,1.127,0.313,2.055,1.454,2.197
	c1.475,0.184,2.981,0.223,4.47,0.171c4.105-0.142,8.206-0.413,12.312-0.538c5.359-0.162,10.722-0.235,16.082-0.34
	c3.362-0.066,6.726-0.077,10.086-0.196c1.619-0.058,3.235-0.275,4.846-0.482c1.108-0.144,2.147-0.175,3.297,0.024
	c1.546,0.269,3.206,0.049,4.794-0.151c1.5-0.189,2.95-0.45,4.358,0.342c1.825,1.027,2.686,2.484,2.32,4.64
	c-0.396,2.335-0.704,4.686-0.999,7.035c-0.279,2.223-0.627,4.45-0.701,6.684c-0.101,3.051-1.287,5.836-1.882,8.763
	c-0.229,1.127-1.077,1.985-2.254,2.315c-0.952,0.266-1.93,0.594-2.9,0.609c-3.614,0.057-7.239,0.149-10.843-0.059
	c-4.356-0.252-8.705-0.303-13.063-0.271c-3.364,0.023-6.729-0.039-10.092-0.029c-3.488,0.011-6.978,0.119-10.466,0.078
	c-2.612-0.03-5.286,0.077-7.813-0.453c-1.903-0.4-3.675,0.047-5.5-0.079c-1.862-0.13-3.729-0.289-5.593-0.282
	c-4.613,0.019-9.226,0.141-13.839,0.176c-0.594,0.004-1.411-0.066-1.747-0.44c-1.578-1.759-4.499-1.108-5.76-3.16
	c-1.01-1.646-2.043-3.266-2.055-5.456c-0.015-2.635,0.093-5.194,0.616-7.785c0.983-4.873,2.006-9.746,2.245-14.742
	c0.101-2.11,0.47-4.207,0.647-6.316c0.166-1.982,0.292-3.972,0.342-5.96c0.062-2.488-0.025-4.954,0.358-7.457
	c0.489-3.19,0.411-6.466,0.654-9.698c0.225-2.975,0.807-5.945,0.763-8.91c-0.045-3.032,0.902-5.868,1.137-8.826
	c0.128-1.609,0.156-3.274,0.613-4.799c1.059-3.531,0.62-7.184,1.138-10.718C304.866,50.459,305.731,46.774,307.573,43.222z
	 M386.984,121.607c-2.513,1.376-4.909,0.458-6.94,1.718c-0.333,0.205-0.959-0.112-1.446-0.095c-2.719,0.101-5.452,0.081-8.148,0.384
	c-4.101,0.459-8.193,0.475-12.311,0.502c-8.824,0.061-17.675-0.685-26.472,0.855c-2.016,0.353-4.194,0.113-6.268-0.466
	c-1.794-0.501-2.795-1.659-3.021-3.407c-0.19-1.477-0.262-2.996-0.148-4.479c0.333-4.338,0.724-8.674,1.208-12.998
	c0.374-3.34,0.707-6.711,1.449-9.979c1.018-4.484,2.415-8.882,3.629-13.322c0.329-1.203,0.696-2.413,0.849-3.644
	c0.979-7.941,3.05-15.631,5.184-23.316c0.883-3.181,1.711-6.393,2.212-9.927c-3.094-0.049-5.94-0.175-8.782-0.113
	c-2.363,0.052-4.73,0.247-7.079,0.522c-2.627,0.308-4.287,1.845-4.979,4.407c-0.098,0.362-0.216,0.721-0.278,1.089
	c-0.633,3.68-1.34,7.35-1.859,11.046c-0.605,4.314-1.168,8.643-1.511,12.984c-0.207,2.633-0.908,5.142-1.321,7.713
	c-0.553,3.436-0.693,6.936-1.067,10.402c-0.2,1.852-0.461,3.7-0.793,5.532c-0.688,3.79-1.545,7.552-2.146,11.354
	c-1.017,6.431-0.649,12.945-0.972,19.42c-0.099,1.987-0.104,3.979-0.128,5.969c-0.043,3.663-0.774,7.352,0.464,11.154
	c2.271,0.072,4.61,0.192,6.951,0.211c3.358,0.025,6.719-0.082,10.075-0.023c3.107,0.053,6.211,0.285,9.317,0.365
	c1.493,0.039,2.991-0.148,4.485-0.13c3.731,0.046,7.462,0.183,11.194,0.221c3.719,0.038,7.432-0.136,11.16,0.036
	c5.601,0.256,11.216,0.228,16.825,0.247c1.857,0.007,3.733-0.099,5.568-0.368c1.425-0.209,2.533-1.061,2.925-2.568
	c0.5-1.923,1.243-3.782,1.19-5.84c-0.029-1.103,0.278-2.212,0.402-3.321c0.33-2.972,0.684-5.94,0.938-8.918
	C387.412,123.999,387.168,123.146,386.984,121.607z"/>
<path style="fill-rule:evenodd;clip-rule:evenodd;fill:#CC2941;" d="M215.89,48.949c2.038,1.434,2.984,3.551,3.887,5.562
	c2.814,6.276,6.189,12.23,9.783,18.078c0.841,1.368,1.48,2.861,2.213,4.296c0.113,0.221,0.197,0.467,0.349,0.657
	c0.468,0.592,0.999,1.283,1.826,0.994c0.522-0.184,1.117-0.689,1.302-1.19c0.339-0.917,0.427-1.932,0.566-2.914
	c0.139-0.975,0.103-1.986,0.335-2.934c1.332-5.449,3.055-10.764,5.46-15.85c1.221-2.581,2.307-5.226,3.515-7.98
	c2.079-0.669,4.137-1.023,6.462-0.399c2.383,0.64,4.909,0.885,7.386,0.988c1.585,0.065,3.202-0.397,4.79-0.699
	c2.244-0.426,4.449-0.463,6.774,0.309c0.748,1.833,1.326,3.722,1.632,5.69c0.667,4.308,1.484,8.581,2.396,12.849
	c0.935,4.377,1.295,8.875,2.016,13.301c0.52,3.194,0.652,6.443,1.583,9.581c0.99,3.339,1.797,6.731,2.684,10.1
	c0.411,1.564,0.841,3.123,1.23,4.693c1.048,4.224,1.965,8.484,3.161,12.666c0.68,2.376,1.804,4.625,2.706,6.879
	c-0.538,1.994-1.522,3.313-3.4,4.261c-1.738,0.878-3.124,2.443-4.695,3.667c-3.54,2.754-7.09,5.496-10.66,8.211
	c-0.464,0.353-1.073,0.516-1.727,0.817c-1.564-2.7-2.961-5.142-3.397-8.293c-0.765-5.521-2.266-10.939-3.419-16.409
	c-1.312-6.213-2.617-12.428-3.854-18.657c-0.874-4.399-1.63-8.823-2.478-13.456c-0.896-0.605-1.905-1.287-2.776-1.875
	c-1.298,0.208-1.978,0.842-2.583,1.704c-2.867,4.085-5.812,8.114-8.672,12.204c-2.071,2.961-4.029,6.002-6.089,8.971
	c-0.564,0.813-1.289,1.521-1.994,2.224c-0.231,0.231-0.633,0.294-1.164,0.523c-4.313-7.917-8.989-15.54-14.424-22.868
	c-1.28,0.11-2.621,0.227-4.063,0.351c-0.357,0.505-0.864,0.955-1.036,1.51c-0.844,2.735-1.605,5.495-2.384,8.25
	c-0.44,1.558-0.83,3.13-1.291,4.681c-0.855,2.873-1.592,5.751-1.742,8.781c-0.073,1.467-0.629,2.91-0.969,4.363
	c-0.995,4.242-1.836,8.516-2.846,12.758c-1.239,5.201-2.174,10.49-2.085,15.887c0.026,1.637-0.035,3.246-0.981,4.801
	c-0.951,0.825-2.232,0.709-3.462,0.834c-5.325,0.543-10.647,1.111-15.972,1.658c-0.363,0.037-0.737-0.031-1.34-0.063
	c-0.179-0.639-0.56-1.32-0.523-1.979c0.169-3.112,0.416-6.222,0.706-9.326c0.359-3.848,0.791-7.688,1.185-11.531
	c0.063-0.621,0.185-1.254,0.126-1.867c-0.286-2.984,0.382-5.928,0.328-8.91c-0.031-1.723,0.504-3.448,0.673-5.183
	c0.775-7.954,1.985-15.797,3.997-23.575c1.485-5.74,2.825-11.576,3.451-17.543c0.545-5.189,1.612-10.324,2.463-15.481
	c0.102-0.614,0.278-1.218,0.454-1.816c0.282-0.961,0.94-1.371,1.946-1.409c3.348-0.125,6.693-0.317,10.04-0.448
	C207.514,49.225,211.742,49.093,215.89,48.949z"/>
<path style="fill-rule:evenodd;clip-rule:evenodd;fill:#CC2941;" d="M67.621,81.143c0.932-5.247,0.845-10.334,0.572-15.459
	c-0.157-2.951,0.289-5.934,0.465-8.902c0.059-0.991,0.297-2.009,0.149-2.969c-0.521-3.398,0.435-6.646,0.57-9.668
	c1.143-1.209,2.3-1.129,3.417-1.125c2.888,0.014,5.693-0.196,8.449-1.316c1.564-0.635,3.395-0.615,5.078-0.885
	c1.149,0.743,1.212,1.941,1.308,3.001c0.123,1.359,0.155,2.781-0.109,4.109c-0.641,3.227-0.487,6.458-0.45,9.708
	c0.063,5.483,0.003,10.968-0.003,16.453c-0.001,0.75-0.054,1.508,0.03,2.249c0.634,5.581,0.581,11.196,0.891,16.794
	c0.124,2.241,0.007,4.496,0.095,6.74c0.172,4.365,0.629,8.732,0.568,13.093c-0.078,5.543,1.08,10.886,1.949,16.29
	c0.51,3.176,0.78,6.389,1.174,9.727c-0.916,0.263-1.593,0.576-2.292,0.637c-2.099,0.181-4.183,0.297-6.284,0.669
	c-2.92,0.519-5.936,0.555-8.915,0.642c-0.941,0.027-1.896-0.445-2.796-0.676c-1.067-3.466-1.09-6.824-0.625-10.17
	c0.209-1.509,0.244-2.931,0-4.439c-0.277-1.707-0.216-3.469-0.317-5.207c-0.144-2.475-0.334-4.947-0.441-7.424
	c-0.108-2.5-0.035-4.984,1.433-6.963c-0.385-1.41-1.307-1.813-2.317-1.9c-0.986-0.084-2.044-0.129-2.979,0.136
	c-4.689,1.326-9.63,0.987-14.33,2.241c-1.066,0.285-2.241,0.138-3.357,0.266c-1.731,0.199-3.485,0.334-5.175,0.727
	c-3.401,0.789-6.725,1.656-10.314,0.959c-1.79-0.348-2.915,1.072-3.629,2.952c1.426,2.041,1.603,4.396,1.459,6.972
	c-0.157,2.822,0.007,5.691,0.507,8.537c0.623,3.551,0.944,7.156,1.302,10.748c0.055,0.553-0.391,1.154-0.683,1.943
	c-2.977-0.088-5.942-0.271-8.905-0.238c-2.975,0.032-5.947,0.277-8.97,0.432c-2.146-3.996-3.847-7.868-3.845-12.384
	c0.002-5.965-0.224-11.931-0.4-17.895c-0.181-6.125-0.133-12.237,0.398-18.351c0.204-2.346-0.102-4.73-0.022-7.092
	c0.101-2.992,0.303-5.984,0.558-8.968c0.55-6.457,1.162-12.908,1.747-19.362c0.223-2.466,0.44-4.933,0.646-7.232
	c1.716-1.435,3.572-1.017,5.25-1.341c1.593-0.308,3.212-0.519,4.776-0.934c1.727-0.458,3.418-0.557,5.286-0.178
	c0.195,0.598,0.535,1.167,0.539,1.738c0.018,2.622,0.063,5.252-0.125,7.864c-0.479,6.605-0.653,13.213-0.205,19.818
	c0.135,1.987,0.546,3.894-0.04,5.916c-0.412,1.423,0.671,2.372,2.335,2.613c1.57,0.229,3.122,0.768,4.689,0.801
	c3.733,0.078,7.479,0.089,11.203-0.148c4.479-0.284,8.938-0.854,13.407-1.299c0.249-0.025,0.509-0.098,0.745-0.053
	C63.584,83.822,65.584,82.772,67.621,81.143z"/>
<path style="fill-rule:evenodd;clip-rule:evenodd;fill:#CC2941;" d="M151.705,118.205c-1.67,0.349-2.872,0.847-4.052,0.804
	c-6.683-0.248-13.394,0.345-20.127-0.564c-0.876-1.281-1.205-2.725-1.542-4.183c-1.326-5.737-1.752-11.573-2.04-17.431
	c-0.171-3.482-0.266-6.978-0.643-10.439c-0.612-5.615-0.34-11.218-0.079-16.824c0.423-9.092,1.249-18.161,1.451-27.269
	c0.094-4.222,0.667-8.434,1.033-12.649c0.151-1.74,0.348-3.476,0.48-5.217c0.037-0.477-0.083-0.965-0.129-1.433
	c-1.003-0.75-1.958-0.383-2.927-0.236c-1.843,0.279-3.693,0.531-5.548,0.705c-4.092,0.382-8.183,0.737-12.304,0.742
	c-1.326,0.001-2.639,0.637-3.977,0.862c-3.797,0.638-7.596,1.281-11.412,1.789c-2.472,0.329-4.974,0.455-7.466,0.615
	c-3.113,0.2-6.229,0.359-9.345,0.499c-1.352,0.061-2.312-0.526-2.477-1.762c-0.441-3.323-1.619-6.554-1.255-9.979
	c0.17-1.605,0.301-3.215,0.434-4.824c0.078-0.937,0.531-1.589,1.289-2.157c1.368-1.024,2.974-1.343,4.566-1.508
	c2.972-0.308,5.986-0.715,8.943-0.513c2.616,0.179,5.112-0.563,7.707-0.361c2.601,0.202,5.287,0.42,7.829-0.006
	c3.966-0.665,8,0.305,11.906-0.778c6.812-0.125,13.583-1.04,20.415-0.912c3.347,0.063,6.701-0.432,10.057-0.58
	c1.984-0.087,4.01,0.246,5.959-0.026c4.004-0.56,7.942,0.626,11.92,0.203c0.371-0.04,0.765-0.081,1.122-0.001
	c3.571,0.794,7.2,0.151,10.795,0.442c1.597,0.129,3.225-0.074,4.836-0.173c3.609-0.222,7.216-0.49,10.826-0.698
	c0.738-0.042,1.502,0.02,2.225,0.172c0.79,0.167,1.436,0.75,1.373,1.559c-0.309,3.97,0.392,7.963-0.312,11.917
	c-0.02,0.11-0.142,0.202-0.395,0.542c-0.596,0.157-1.406,0.479-2.241,0.571c-4.195,0.459-8.318,1.474-12.612,1.181
	c-3.095-0.211-6.226-0.037-9.334,0.109c-4.107,0.193-8.214,0.451-12.308,0.831c-2.47,0.229-4.922,0.702-7.368,1.145
	c-1.66,0.3-2.55,1.313-2.756,3.067c-0.431,3.669-0.862,7.301-0.457,11.033c0.238,2.192-0.251,4.459-0.364,6.695
	c-0.05,0.995-0.047,2.003,0.045,2.995c0.676,7.343,1.039,14.701,0.92,22.075c-0.087,5.401,0.823,10.676,1.802,15.953
	c0.34,1.835,0.437,3.714,0.751,5.554c0.65,3.807,1.412,7.595,2.047,11.403c0.287,1.722,0.371,3.476,0.565,5.212
	c0.096,0.861,0.193,1.725,0.355,2.574C150.441,111.847,151.027,114.765,151.705,118.205z"/>
<path style="fill-rule:evenodd;clip-rule:evenodd;fill:#CC2941;" d="M386.984,121.607c0.184,1.538,0.428,2.392,0.357,3.219
	c-0.254,2.978-0.607,5.946-0.938,8.918c-0.124,1.109-0.432,2.219-0.402,3.321c0.053,2.058-0.69,3.917-1.19,5.84
	c-0.392,1.508-1.5,2.359-2.925,2.568c-1.835,0.27-3.711,0.375-5.568,0.368c-5.609-0.02-11.225,0.009-16.825-0.247
	c-3.729-0.172-7.441,0.002-11.16-0.036c-3.732-0.038-7.463-0.175-11.194-0.221c-1.494-0.019-2.992,0.169-4.485,0.13
	c-3.106-0.08-6.21-0.313-9.317-0.365c-3.356-0.059-6.717,0.049-10.075,0.023c-2.341-0.019-4.681-0.139-6.951-0.211
	c-1.238-3.803-0.507-7.491-0.464-11.154c0.024-1.989,0.029-3.981,0.128-5.969c0.322-6.475-0.045-12.989,0.972-19.42
	c0.601-3.803,1.457-7.564,2.146-11.354c0.332-1.832,0.593-3.681,0.793-5.532c0.374-3.467,0.515-6.967,1.067-10.402
	c0.413-2.571,1.114-5.08,1.321-7.713c0.343-4.341,0.905-8.67,1.511-12.984c0.52-3.696,1.227-7.366,1.859-11.046
	c0.063-0.368,0.181-0.727,0.278-1.089c0.691-2.562,2.352-4.099,4.979-4.407c2.349-0.275,4.716-0.471,7.079-0.522
	c2.842-0.063,5.688,0.064,8.782,0.113c-0.501,3.535-1.329,6.747-2.212,9.927c-2.134,7.685-4.204,15.375-5.184,23.316
	c-0.152,1.231-0.52,2.441-0.849,3.644c-1.214,4.44-2.611,8.838-3.629,13.322c-0.742,3.268-1.075,6.639-1.449,9.979
	c-0.484,4.324-0.875,8.66-1.208,12.998c-0.113,1.482-0.042,3.002,0.148,4.479c0.226,1.748,1.227,2.906,3.021,3.407
	c2.073,0.579,4.252,0.818,6.268,0.466c8.797-1.54,17.647-0.795,26.472-0.855c4.117-0.027,8.21-0.043,12.311-0.502
	c2.696-0.303,5.43-0.283,8.148-0.384c0.487-0.018,1.113,0.3,1.446,0.095C382.075,122.065,384.472,122.983,386.984,121.607z"/>
</svg>
