<?xml version="1.0" encoding="utf-8"?>
<!-- Generator: Adobe Illustrator 16.0.0, SVG Export Plug-In . SVG Version: 6.00 Build 0)  -->
<!DOCTYPE svg PUBLIC "-//W3C//DTD SVG 1.1//EN" "http://www.w3.org/Graphics/SVG/1.1/DTD/svg11.dtd">
<svg version="1.1" id="Layer_1" xmlns="http://www.w3.org/2000/svg" xmlns:xlink="http://www.w3.org/1999/xlink" x="0px" y="0px"
	 width="476.564px" height="92.414px" viewBox="0 0 476.564 92.414" style="enable-background:new 0 0 476.564 92.414;"
	 xml:space="preserve">
<path style="fill-rule:evenodd;clip-rule:evenodd;" d="M24.983,83.275c-1.437,1.44-3.006,1.76-4.667,1.551
	c-1.765-0.223-3.441,0.017-5.184,0.31c-2.073,0.348-4.229,0.22-6.349,0.274c-1.122,0.028-2.244-0.021-3.366,0.011
	c-3.144,0.09-5.479-2.143-5.417-5.265c0.022-1.121,0.152-2.242,0.275-3.358c0.765-6.936,1.549-13.868,2.312-20.804
	c0.464-4.213,0.854-8.435,1.367-12.641c0.3-2.467,0.741-4.919,1.18-7.366c1.122-6.268,1.624-12.592,1.958-18.942
	c0.163-3.09,0.661-6.161,1.014-9.309c1.769-0.944,3.417-2.143,5.577-1.298c3.952-0.502,7.915-0.901,11.768-2.018
	c4.685-1.356,9.511-2.065,14.356-2.317c2.914-0.151,5.731-0.409,8.369-1.651c1.382-0.65,2.624-0.624,4.086,0.243
	c0.641,1.313,1.165,2.786,0.936,4.475c-0.35,2.573,0.5,5.197-0.348,7.772c-0.171,0.522,0.141,1.204,0.231,1.813
	c0.109,0.735,0.315,1.471,0.309,2.205c-0.021,2.712-1.015,4.051-3.707,4.196c-5.744,0.311-11.189,2.294-16.889,2.802
	c-0.676,0.061-1.554,0.445-1.917,0.97c-1.188,1.72-2.56,3.339-2.983,5.525c-0.374,1.932-1.423,3.715-1.393,5.749
	c0.007,0.472,0.155,0.941,0.259,1.527c3.535,0.892,6.695-0.342,9.664-1.324c1.612,0.511,2.22,1.45,2.151,2.894
	c-0.191,4.012,0.169,7.944,1.421,11.803c0.521,1.604-1.257,3.234-3.276,3.146c-2.109-0.093-4.212-0.308-6.318-0.453
	c-0.489-0.034-0.983-0.005-1.633-0.005c-0.512,0.854-1.253,1.639-1.465,2.548c-0.32,1.371-0.712,2.599-1.709,3.645
	c-0.526,0.551-0.629,1.312-0.301,2.096c0.188,0.447,0.457,1.042,0.309,1.423c-1.648,4.251-0.311,8.611-0.527,12.908
	c-0.069,1.366,0.13,2.744,0.123,4.116C25.193,81.507,25.049,82.487,24.983,83.275z M21.896,49.414
	c1.431-0.256,2.602-0.232,3.55-0.681c2.282-1.079,4.322-0.725,6.391,0.489c0.846,0.497,1.777,0.876,2.709,1.188
	c0.762,0.256,1.479-0.413,1.4-1.248c-0.202-2.109-0.378-4.225-0.697-6.317c-0.124-0.812-0.604-1.567-0.954-2.426
	c-0.781,0.098-1.38,0.188-1.982,0.244c-2.477,0.234-4.951,0.51-7.433,0.659c-1.004,0.061-2.013-0.187-2.556-1.577
	c1.726-4.229,1.34-8.829,0.854-13.547c1.71-2.505,3.95-4.328,7.106-4.855c1.224-0.205,2.437-0.474,3.662-0.658
	c1.846-0.277,3.727-0.379,5.543-0.783c3.124-0.695,6.209-1.566,9.394-2.385c0.157-0.247,0.438-0.531,0.539-0.869
	c1.115-3.702,0.378-7.431,0.081-11.146c-0.057-0.716-0.904-1.091-1.772-0.935c-1.47,0.265-2.958,0.874-4.398,0.77
	c-4.943-0.355-9.668,0.981-14.482,1.589c-4.183,0.528-8.157,2.285-12.469,2.149c-1.204-0.037-2.135,0.521-2.651,1.71
	c-1.187,2.729-2.436,5.433-3.611,8.167c-0.188,0.438-0.164,0.98-0.176,1.478c-0.12,4.739-0.738,9.416-1.424,14.108
	c-0.881,6.022-1.852,12.046-2.138,18.149c-0.279,5.958-1.715,11.829-1.296,17.85c0.111,1.6-0.201,3.226-0.283,4.841
	c-0.058,1.143-0.288,2.151-1.049,3.11c-0.76,0.958-0.433,2.277,0.612,2.846c0.861,0.469,1.832,0.911,2.788,0.999
	c2.359,0.215,4.779,0.42,7.063-0.36c1.586-0.542,3.155-0.643,4.784-0.602c0.588,0.016,1.18-0.12,1.936-0.206
	c0.141-1.001,0.34-1.832,0.359-2.668c0.048-2.12,0.118-4.249-0.006-6.364c-0.313-5.345,0.356-10.749-0.774-16.035
	C19.979,53.587,20.453,51.439,21.896,49.414z"/>
<path style="fill-rule:evenodd;clip-rule:evenodd;" d="M417.914,17.43c0.827-1.011,1.476-1.941,2.263-2.737
	c1.477-1.492,2.804-1.594,4.712-0.619c2.545,1.299,5.116,2.545,7.679,3.81c4.349,2.146,8.642,4.39,12.678,7.099
	c0.929,0.622,1.881,1.287,2.92,1.652c2.933,1.03,5.75,2.364,8.413,3.884c4.742,2.706,9.374,5.639,13.847,8.771
	c2.734,1.914,3.983,5.01,4.777,8.212c0.148,0.598,0.061,1.282,0.308,1.823c1.59,3.484,1.099,7.021,0.366,10.571
	c-0.585,2.833-2.273,4.929-4.508,6.652c-3.881,2.993-8.139,5.159-12.934,6.339c-3.491,0.859-6.898,2.053-10.356,3.053
	c-5.493,1.589-10.993,3.161-16.653,4.064c-0.858,0.137-1.738,0.188-2.608,0.19c-2.495,0.009-4.901,0.394-7.247,1.298
	c-1.025,0.396-2.165,0.498-3.253,0.734c-2.492-0.753-3.842-2.581-4.701-4.914c-0.643-1.742-1.559-3.408-1.989-5.196
	c-0.306-1.27-0.34-2.803,0.085-4.015c1.533-4.366,2.194-8.893,2.9-13.421c0.096-0.614,0.049-1.264,0.228-1.849
	c0.849-2.771,1.1-5.599,1.021-8.485c-0.027-0.983,0.215-1.977,0.34-2.964c0.56-4.435,1.129-8.864,1.002-13.356
	c-0.043-1.482,0-3.046,0.425-4.445C418.229,21.59,418.026,19.643,417.914,17.43z M423.874,17.432
	c-0.411,1.455-0.706,2.394-0.93,3.35c-0.083,0.353-0.064,0.76,0.021,1.115c0.613,2.565,0.348,5.184,0.47,7.775
	c0.472,9.99-0.656,19.951-0.622,29.938c0.014,4.085,0.064,8.202-0.945,12.228c-0.148,0.587-0.014,1.244-0.016,1.868
	c-0.003,0.811,0.337,1.447,0.985,1.914c2.211,1.591,4.562,2.446,7.364,1.792c6.377-1.489,12.888-2.448,19.011-4.926
	c0.685-0.277,1.433-0.417,2.163-0.553c6.452-1.193,12.325-3.728,17.714-7.467c1.548-1.074,2.567-2.561,2.851-4.243
	c0.529-3.146,1.052-6.359,0.054-9.545c-0.409-1.305-0.702-2.652-1.196-3.922c-0.952-2.448-2.045-4.754-4.506-6.203
	c-4.612-2.717-8.96-5.932-13.727-8.326c-4.902-2.465-9.933-4.624-14.292-8.037c-0.477-0.373-1.131-0.515-1.693-0.782
	c-2.001-0.95-4.176-1.66-5.948-2.931C428.641,19.05,426.355,18.668,423.874,17.432z"/>
<path style="fill-rule:evenodd;clip-rule:evenodd;" d="M195.571,64.487c2.977-1.911,3.439-4.565,3.104-7.604
	c-0.178-1.605-0.171-3.245-0.088-4.861c0.043-0.838,0.366-1.686,0.684-2.479c0.305-0.762,0.988-1.123,1.809-1.05
	c1.964,0.174,3.921,0.448,5.888,0.571c2.186,0.136,4.448,0.506,6.546,0.099c1.57-0.304,2.642-0.074,3.772,0.801
	c0.389,0.301,0.771,0.613,1.226,0.977c0,0.748,0.241,1.6-0.049,2.194c-0.658,1.352-0.627,2.507,0.007,3.868
	c0.336,0.722,0.276,1.764,0.072,2.58c-1.291,5.172-0.5,10.305-0.053,15.487c0.341,3.945,1.7,7.475,3.201,11.023
	c0.425,1.005,1.153,1.999,0.313,3.143c-0.902,1.228-2.023,1.067-3.346,0.759c-2.404-0.561-4.856-0.912-7.293-1.329
	c-0.488-0.083-1-0.131-1.49-0.081c-1.23,0.125-2.455,0.443-3.682,0.443c-1.228,0.001-2.463-0.46-3.681-0.406
	c-1.211,0.055-2.405,0.5-3.967,0.856c-0.641-0.321-1.663-0.756-2.602-1.326c-0.836-0.507-1.774-1.021-2.329-1.78
	c-1.517-2.073-3.632-3.388-5.625-4.875c-0.893-0.666-1.866-1.271-2.613-2.08c-3.356-3.633-7.562-6.027-11.852-8.311
	c-0.072-0.038-0.228,0.08-0.324,0.118c-0.385,2.669-0.79,5.325-1.133,7.989c-0.061,0.472,0.169,0.974,0.204,1.467
	c0.149,2.104,0.276,4.212,0.41,6.309c-0.764,0.837-1.374,1.623-2.11,2.265c-0.437,0.381-1.055,0.692-1.624,0.76
	c-1.593,0.189-3.204,0.234-4.807,0.339c-0.622,0.04-1.257,0.018-1.862,0.143c-2.904,0.6-5.799,1.24-8.901,1.911
	c-0.273-0.489-0.749-0.977-0.802-1.507c-0.124-1.236-0.301-2.56,0.005-3.727c0.646-2.474,0.386-4.958,0.507-7.439
	c0.115-2.362,0.093-4.767,0.56-7.064c0.432-2.119,0.359-4.211,0.483-6.32c0.174-2.978,0.424-5.952,0.708-8.923
	c0.271-2.843,0.606-5.682,0.957-8.516c0.182-1.478,0.358-2.971,0.737-4.403c0.169-0.64,0.832-1.149,1.128-1.534
	c3.56,0.396,6.846,0.875,10.149,1.082c1.511,0.095,2.716,0.488,3.516,1.717c1.5,2.302,3.999,3.707,5.379,6.101
	c3.831,2.563,6.45,6.567,10.537,8.834c0.749,0.415,1.369,1.063,2.05,1.601C191.086,63.729,192.983,64.877,195.571,64.487z
	 M217.238,86.621c1.131-2.033,0.143-3.732-0.361-5.27c-0.826-2.521-1.25-5.047-1.375-7.662c-0.075-1.586-0.084-3.182-0.286-4.753
	c-0.445-3.474-0.52-10.072,0.102-13.38c0.231-1.228-0.18-2.171-0.681-3.302c-1.358-0.206-2.727-0.677-4.031-0.54
	c-1.519,0.159-2.962-0.134-4.437-0.136c-1.306-0.002-2.701-0.388-4.062,0.406c-0.092,5.56-0.171,11.014-0.281,16.467
	c-0.027,1.343,0.293,2.781-0.915,3.99c-1.92,0.129-3.486-0.654-4.917-2.016c-1.44-1.371-2.878-2.857-4.587-3.812
	c-5.5-3.071-9.913-7.51-14.754-11.399c-2.119-1.703-3.944-3.776-5.862-5.722c-1.632-1.655-3.356-2.794-5.9-2.527
	c-1.646,0.172-3.356-0.253-5.14-0.42c-0.658,2.577-1.637,4.946-1.785,7.367c-0.183,2.984-0.375,5.956-0.791,8.917
	c-0.155,1.105-0.255,2.223-0.299,3.338c-0.237,5.97-0.446,11.94-0.676,17.911c-0.015,0.368-0.15,0.73-0.194,1.1
	c-0.268,2.275,1.28,3.782,3.576,3.469c2.337-0.32,4.666-0.706,7.008-0.979c1.148-0.133,1.926-0.674,2.132-1.755
	c0.28-1.464,0.5-2.958,0.534-4.444c0.077-3.373-0.035-6.75,0.053-10.123c0.039-1.479,0.293-2.968,0.62-4.414
	c0.141-0.626,0.715-1.154,1.214-1.911c3.001,1.726,5.876,3.212,8.574,4.968c4.166,2.713,8.376,5.404,12.265,8.486
	c4.373,3.466,9.368,5.593,14.398,7.737c0.222,0.095,0.484,0.208,0.706,0.173C210.424,85.864,213.732,86.752,217.238,86.621z"/>
<path style="fill-rule:evenodd;clip-rule:evenodd;" d="M398.519,76.27c-3.567-1.831-6.968-3.579-10.372-5.319
	c-0.552-0.282-1.098-0.653-1.688-0.771c-3.329-0.663-6.443-1.923-9.529-3.285c-0.313-0.138-0.722-0.057-1.3-0.09
	c-0.474,2.419-1.14,4.771-0.152,7.201c0.516,1.269,1.038,2.535,1.604,3.781c0.482,1.063,0.201,1.927-0.546,2.729
	c-1.272,1.366-2.866,1.908-4.699,1.901c-3.25-0.013-6.499-0.009-9.749,0.001c-1.484,0.005-2.89,0.05-4.335,0.776
	c-1.148,0.578-2.659,0.435-3.961,0.604c-0.731-0.88-1.401-1.622-1.991-2.424c-0.283-0.386-0.621-0.903-0.579-1.326
	c0.185-1.853-1.001-3.632-0.204-5.526c0.225-0.533,0.193-1.267,0.046-1.849c-1.301-5.134-0.237-10.196,0.769-15.159
	c0.939-4.643,1.404-9.321,2.037-13.991c0.051-0.368,0.134-0.731,0.245-1.335c2.417-1.32,5.157-1.873,7.944-2.446
	c2.635-0.543,5.179-1.525,7.882-2.351c0.716,0.536,1.462,0.98,2.069,1.568c3.399,3.289,6.746,6.634,10.156,9.913
	c0.973,0.935,2.096,1.715,3.234,2.635c0.658-0.707,1.426-1.163,1.604-1.787c0.712-2.495,1.918-4.874,1.835-7.576
	c-0.042-1.367-0.074-2.779,0.215-4.1c0.307-1.393,0.297-2.652-0.053-4.035c-0.266-1.048-0.053-2.216-0.053-3.311
	c1.57-1.868,3.765-2.481,5.887-3.121c2.495-0.752,5.037-1.272,7.337-2.633c1.427-0.844,2.757,0.218,2.497,1.949
	c-0.374,2.503-0.365,4.968,0.148,7.442c0.1,0.483,0.064,0.997,0.084,1.496c0.217,5.593,0.812,11.172,0.55,16.78
	c-0.029,0.624,0.021,1.251-0.008,1.875c-0.221,5.005,0.113,9.961,1.333,14.835c0.432,1.726,0.563,3.42-0.252,5.179
	C403.751,74.964,400.648,73.692,398.519,76.27z M372.712,79.071c0.566-1.51,0.274-2.721-0.375-4.036
	c-2.065-4.188-3.207-8.609-2.828-13.33c0.017-0.217,0.237-0.418,0.475-0.811c0.818-0.115,1.771-0.249,2.75-0.387
	c1.482,1.727,3.256,2.77,5.229,3.626c2.366,1.027,4.737,1.976,7.214,2.712c2.93,0.872,6.053,1.143,8.703,2.921
	c2.07,1.389,4.457,1.434,6.831,1.082c1.482-0.219,2.081-1.133,1.86-2.637c-0.18-1.223-0.492-2.429-0.632-3.655
	c-0.126-1.104-0.385-2.314-0.072-3.319c0.501-1.611,0.445-3.202,0.45-4.813c0.019-6.244,0.062-12.489-0.022-18.733
	c-0.028-2.106-0.327-4.221-0.662-6.307c-0.126-0.782-0.708-1.491-1.087-2.245c-1.892,0.523-3.549,1.066-5.245,1.428
	c-1.601,0.341-2.259,1.45-2.621,2.829c-0.155,0.589-0.098,1.239-0.1,1.862c-0.011,3.371-0.011,6.742-0.013,10.112
	c-0.001,2.989,0,5.979,0,8.976c-1.752,1.187-2.163,3.457-4.159,4.36c-1.322-1.011-2.589-1.992-3.87-2.953
	c-1.797-1.346-3.4-2.871-4.862-4.591c-1.368-1.607-2.919-3.071-4.474-4.506c-1.361-1.255-2.947-2.225-4.148-3.705
	c-1.401-1.725-3.53-2.204-5.454-1.41c-2.516,1.037-5.225,1.449-7.696,2.483c-0.229,0.592-0.49,1.037-0.568,1.513
	c-0.7,4.272-1.417,8.543-2.023,12.829c-0.296,2.089-0.192,4.243-0.578,6.311c-0.865,4.642,0.062,9.163,0.689,13.704
	c0.201,1.453,0.771,1.752,2.346,1.813c0.622,0.023,1.287,0.157,1.859-0.011c2.58-0.753,5.147-0.438,7.754-0.199
	C369.208,80.151,371.1,80.082,372.712,79.071z"/>
<path style="fill-rule:evenodd;clip-rule:evenodd;" d="M296.035,26.125c0.929-0.095,1.9-0.26,2.876-0.283
	c4.984-0.119,9.969-0.215,14.954-0.282c0.737-0.011,1.479,0.245,2.218,0.248c5.795,0.024,11.589,0.03,17.384,0.004
	c0.861-0.004,1.719-0.223,2.582-0.31c1.441-0.145,2.653,1.14,2.417,2.55c-0.041,0.244-0.124,0.485-0.224,0.712
	c-1.721,3.905-1.646,8.225-2.882,12.432c-2.352,1.279-4.339,3.375-7.393,3.804c-1.94,0.272-3.229,1.769-3.532,3.87
	c-0.319,2.209-0.679,4.411-0.988,6.621c-0.145,1.034,0.094,1.944,0.883,2.728c0.968,0.959,1.678,2.28,2.793,2.964
	c2.366,1.448,5.014,2.083,7.943,1.551c1.35,0.925,1.811,2.303,1.859,4.06c0.086,3.092,0.429,6.176,0.649,9.076
	c-0.573,1.03-1.263,1.431-2.229,1.48c-3.093,0.161-6.209,0.182-9.271,0.593c-6.526,0.876-13.169,0.729-19.62,2.265
	c-1.539,0.366-3.151,0.3-4.673,0.925c-0.761,0.312-1.719,0.188-2.587,0.183c-1.088-0.006-2.129-0.552-3.276,0.121
	c-0.599,0.351-1.472-0.433-1.542-1.203c-0.079-0.868-0.087-1.744-0.087-2.616c-0.006-9.112-0.041-18.225,0.023-27.336
	c0.017-2.227,0.35-4.452,0.571-6.676c0.282-2.839,0.632-5.671,0.88-8.513c0.063-0.718-0.155-1.459-0.23-2.19
	C295.308,30.687,294.925,28.461,296.035,26.125z M332.723,66.329c-0.842-0.087-1.328-0.157-1.815-0.183
	c-3.483-0.182-6.966-0.364-10.45-0.521c-0.619-0.028-1.243,0.059-1.865,0.098c-1.737,0.11-3.487,0.136-5.21,0.358
	c-2.433,0.313-3.691-1.056-4.652-2.964c-0.464-0.919-0.152-2.093,0.78-2.583c0.534-0.28,1.165-0.39,1.762-0.537
	c2.755-0.68,5.512-1.346,8.491-2.071c0.212-2.091,0.481-4.165,0.605-6.248c0.059-0.985-0.934-1.854-2.006-1.782
	c-1.719,0.116-3.517,0.11-5.117,0.646c-2.044,0.684-3.327,0.015-4.636-1.561c0.183-1.438,0.247-2.938,0.585-4.375
	c0.545-2.313,0.987-2.544,3.292-2.786c2.827-0.297,5.731,0.246,8.488-0.777c1.79-0.664,3.645-0.538,5.477-0.372
	c1.979,0.181,3.89,0.105,5.863-0.718c0.386-3.694,1.509-7.249,1.679-11.128c-0.85-0.16-1.551-0.374-2.261-0.408
	c-1.496-0.071-2.998-0.018-4.495-0.072c-1.455-0.052-2.906-0.221-4.36-0.253c-1.443-0.033-2.889,0.038-4.334,0.067
	c-3.724,0.077-7.448,0.17-11.173,0.229c-1.996,0.032-3.994-0.028-5.988,0.036c-0.7,0.022-1.393,0.292-2.177,0.468
	c-0.202,3.262-0.366,6.352-0.595,9.437c-0.128,1.73-0.364,3.452-0.545,5.179c-0.163,1.563-0.776,3.014-0.186,4.732
	c0.4,1.165-0.471,2.723-0.22,3.995c0.372,1.884,0.284,3.676,0.139,5.554c-0.152,1.961,0.197,3.956,0.223,5.937
	c0.049,3.872,0.004,7.745,0.046,11.617c0.01,0.835,0.225,1.668,0.354,2.553c2.043,0.241,3.89,0.239,5.747-0.019
	c3.063-0.426,6.127-0.829,9.194-1.217c4.806-0.609,9.603-1.287,14.464-1.348c1.105-0.015,2.202-0.413,3.313-0.488
	c1.425-0.098,2.273-0.874,2.955-2.176C333.672,70.701,333.228,68.654,332.723,66.329z"/>
<path style="fill-rule:evenodd;clip-rule:evenodd;" d="M76.062,58.252c0.31,0.706,0.511,1.456,0.924,2.062
	c3.089,4.529,6.261,9.005,9.324,13.552c1.736,2.576,3.485,5.17,4.908,7.922c0.887,1.716,0.564,3.635-0.763,5.234
	c-0.952,1.146-1.776,2.413-2.823,3.46c-0.75,0.75-1.774,1.225-2.843,1.933c-0.694-0.826-1.46-1.381-1.722-2.114
	c-0.981-2.756-2.93-4.889-4.455-7.291c-0.258-0.406-0.662-0.74-1.051-1.04c-2.059-1.583-4.136-3.144-6.252-4.747
	c-1.598,0.984-0.77,3.288-2.455,4.027c-0.475,1.395-0.949,2.789-1.465,4.308c-0.973,0.074-1.841,0.293-2.658,0.17
	c-1.54-0.23-2.958-1.42-4.635-0.524c-0.089,0.048-0.271,0.024-0.357-0.039c-2.212-1.631-5.001-1.216-7.431-2.096
	c-1.606-0.582-2.213-1.138-2.307-2.935c-0.104-1.994-0.034-3.996-0.129-5.991c-0.077-1.606-0.398-3.205-0.417-4.809
	c-0.034-2.734,0.003-5.475,0.157-8.204c0.356-6.347,1-12.675,0.998-19.047c-0.001-3.857,0.316-7.715,0.501-11.572
	c0.064-1.324,0.984-2.049,2.068-2.399c3.306-1.069,6.534-2.389,10.067-2.706c5.096-0.458,10.172-0.607,15.256,0.07
	c0.493,0.065,1.001,0.1,1.496,0.062c3.434-0.264,6.344,1.209,9.077,2.955c4.454,2.847,6.888,9.024,5.488,14.095
	c-1.008,3.649-3.498,6.228-6.982,7.722c-2.386,1.023-4.978,1.464-7.223,2.947C78.518,54.469,76.986,55.803,76.062,58.252z
	 M68.667,52.847c0.886-1.615,1.919-2.177,3.247-2.356c2.46-0.333,4.918-0.686,7.364-1.103c1.963-0.335,3.985-0.56,5.843-1.219
	c3.53-1.254,5.86-3.707,6.329-7.592c0.233-1.938-0.64-3.647-1.223-5.415c-0.823-2.497-2.388-4.29-4.801-5.389
	c-1.713-0.779-3.396-1.481-5.354-1.418c-1.234,0.04-2.477-0.268-3.719-0.377c-1.983-0.176-3.979-0.512-5.953-0.422
	c-2.612,0.118-5.224,0.488-7.807,0.925c-1.95,0.329-3.882,0.842-5.77,1.44c-1.718,0.545-2.616,1.799-2.549,3.692
	c0.039,1.118-0.061,2.242-0.104,3.363c-0.173,4.474-0.285,8.952-0.543,13.421c-0.193,3.353-0.128,6.714-0.714,10.058
	c-0.313,1.786-0.43,3.692,0.482,5.51c0.341,0.678,0.255,1.742,0.007,2.516c-0.992,3.094-0.598,6.171-0.062,9.244
	c0.14,0.804,0.645,1.544,0.913,2.156c2.356,0.271,4.442,0.529,6.533,0.747c1.507,0.157,2.377-0.557,2.496-2.057
	c0.049-0.618-0.065-1.247-0.055-1.869c0.034-1.987,0.041-3.978,0.156-5.96c0.092-1.593,0.58-3.121,0.052-4.784
	c-0.393-1.236,0.045-2.474,1.621-3.018c1.589,0.709,2.846,1.791,3.824,3.333c2.338,3.685,4.759,7.289,7.87,10.435
	c2.961,2.995,5.755,6.183,8.091,9.729c0.168,0.255,0.616,0.325,1.03,0.529c1.215-0.917,2.355-1.819,3.061-3.484
	c-0.742-1.354-1.441-2.798-2.296-4.144c-0.997-1.57-2.127-3.055-3.203-4.574c-4.611-6.513-9.239-13.014-13.813-19.553
	C69.136,54.522,68.967,53.614,68.667,52.847z"/>
<path style="fill-rule:evenodd;clip-rule:evenodd;" d="M279.776,35.937c-0.295,1.576-0.453,2.688-0.717,3.772
	c-0.63,2.596-0.541,5.211-0.007,7.772c0.365,1.753,0.415,3.446,0.159,5.189c-0.088,0.602-0.104,1.223-0.071,1.83
	c0.204,3.831-0.676,4.832-4.448,5.059c-1.612,0.097-3.222,0.252-4.834,0.342c-0.872,0.049-1.774-0.116-2.616,0.05
	c-1.076,0.212-2.105,0.661-3.263,1.043c-0.533,1.464-0.393,2.96-0.214,4.425c0.42,3.445,0.92,6.881,1.389,10.319
	c0.051,0.37,0.125,0.738,0.154,1.11c0.125,1.596-0.453,2.424-1.967,2.623c-2.092,0.275-4.189,0.536-6.293,0.668
	c-1.497,0.094-2.911,0.229-4.363,0.784c-2.455,0.937-5.431-1.146-5.618-3.828c-0.14-1.99,0.038-4.002-0.065-5.996
	c-0.161-3.101-0.416-6.197-0.685-9.291c-0.1-1.144-0.795-1.831-1.985-1.839c-1.482-0.011-3.036-0.063-4.436,0.333
	c-2.728,0.772-5.426,0.418-8.122,0.141c-1.397-0.144-2.303-0.947-2.867-2.507c-0.827-2.288-1.194-4.536-1.123-6.934
	c0.076-2.498-0.031-5.001,0.041-7.499c0.032-1.104,0.203-2.229,0.494-3.296c0.437-1.598,0.84-1.725,2.674-1.77
	c2.345-0.058,4.709-0.078,7.026-0.4c5.051-0.704,10.147-0.933,15.195-1.549c2.933-0.358,5.957,0.126,8.807-0.93
	c3.219,0.768,6.357-0.783,9.586-0.324c0.931,0.132,1.933-0.313,2.91-0.42c0.97-0.105,1.983-0.293,2.917-0.119
	C278.216,34.842,278.911,35.457,279.776,35.937z M275.389,37.875c-3.951,0.307-7.642,0.017-11.332,0.404
	c-2.475,0.259-4.945,0.615-7.428,0.74c-3.466,0.175-6.92-0.098-10.404,0.553c-4.261,0.796-8.622,1.047-12.938,1.549
	c-0.584,0.068-1.158,0.228-1.826,0.362c-0.848,5.195-1.197,10.167,0.924,15.099c1.952,0.256,3.78,0.382,5.635-0.09
	c0.834-0.212,1.717-0.301,2.579-0.316c2.352-0.041,4.704-0.014,7.197-0.014c1.693,1.645,1.725,1.644,1.748,3.613
	c0.032,2.625-0.075,5.254,0.035,7.874c0.114,2.729,0.369,5.456,0.67,8.172c0.076,0.686,0.56,1.327,0.879,2.039
	c3.511,0.075,6.752-0.492,10.004-1.131c0.673-1.866,0.525-3.612,0.288-5.322c-0.427-3.072-1.046-6.118-1.442-9.193
	c-0.175-1.349-0.118-2.756,0.05-4.11c0.18-1.441,1.248-2.271,2.57-2.214c3.951,0.17,7.9,0.366,11.838,0.553
	c1.011-0.777,1.227-1.838,1.224-3.01c-0.015-4.482-0.006-8.965-0.021-13.447C275.636,39.492,275.525,38.999,275.389,37.875z"/>
<path style="fill-rule:evenodd;clip-rule:evenodd;" d="M115.587,80.161c-3.726,0.173-7.142-0.646-10.204-2.905
	c-1.234-0.91-2.192-1.94-3.029-3.232c-2.26-3.488-3.344-7.247-2.816-11.358c0.544-4.246,1.628-8.402,4.637-11.613
	c3.145-3.355,6.455-6.619,10.718-8.58c1.205-0.555,2.634-0.69,3.98-0.855c4.173-0.515,8.106,0.132,11.659,2.554
	c1.028,0.7,2.148,1.268,3.237,1.878c5.011,2.809,7.43,7.581,9.351,12.636c0.613,1.612,0.417,3.504-0.387,5.121
	c-1.436,2.891-2.773,5.836-4.751,8.438c-0.797,1.049-1.781,1.71-2.91,2.24c-1.573,0.738-3.167,1.431-4.743,2.162
	C125.653,78.817,120.732,79.955,115.587,80.161z M115.65,77.597c6.236,0.135,11.746-2.382,17.144-5.235
	c1.565-0.827,2.906-1.991,3.8-3.52c1-1.708,1.825-3.519,2.724-5.286c1.37-2.688,0.682-4.979-1.186-7.19
	c-2.5-2.958-5.479-5.354-8.439-7.805c-1.191-0.985-2.522-2.219-3.847-1.957c-1.688,0.331-2.81-0.912-4.278-0.763
	c-0.366,0.037-0.758,0.071-1.082,0.226c-2.175,1.035-4.557,1.128-6.865,1.563c-0.723,0.137-1.606,0.155-2.111,0.585
	c-2.248,1.915-4.891,3.507-5.873,6.571c-0.226,0.706-0.534,1.394-0.866,2.059c-1.979,3.955-2.251,7.895-1.125,12.291
	C104.927,74.129,110.837,78.656,115.65,77.597z"/>
<path style="fill-rule:evenodd;clip-rule:evenodd;fill:#E8CBA5;" d="M21.896,49.414c-1.443,2.025-1.917,4.173-1.38,6.684
	c1.13,5.286,0.461,10.69,0.774,16.035c0.124,2.115,0.054,4.244,0.006,6.364c-0.019,0.836-0.218,1.667-0.359,2.668
	c-0.756,0.086-1.348,0.222-1.936,0.206c-1.629-0.041-3.197,0.06-4.784,0.602c-2.284,0.78-4.704,0.575-7.063,0.36
	c-0.956-0.088-1.926-0.53-2.788-0.999c-1.044-0.568-1.372-1.888-0.612-2.846c0.761-0.959,0.991-1.968,1.049-3.11
	c0.082-1.615,0.394-3.241,0.283-4.841c-0.418-6.021,1.017-11.892,1.296-17.85c0.286-6.104,1.256-12.127,2.138-18.149
	c0.687-4.692,1.304-9.369,1.424-14.108c0.012-0.497-0.012-1.04,0.176-1.478c1.176-2.734,2.425-5.438,3.611-8.167
	c0.516-1.188,1.447-1.747,2.651-1.71c4.312,0.136,8.286-1.621,12.469-2.149c4.814-0.607,9.539-1.944,14.482-1.589
	c1.44,0.104,2.929-0.505,4.398-0.77c0.868-0.156,1.715,0.219,1.772,0.935c0.298,3.715,1.035,7.443-0.081,11.146
	c-0.102,0.338-0.382,0.622-0.539,0.869c-3.185,0.818-6.271,1.689-9.394,2.385c-1.816,0.404-3.697,0.506-5.543,0.783
	c-1.226,0.185-2.438,0.453-3.662,0.658c-3.156,0.527-5.396,2.351-7.106,4.855c0.486,4.718,0.872,9.318-0.854,13.547
	c0.543,1.391,1.552,1.638,2.556,1.577c2.482-0.149,4.956-0.425,7.433-0.659c0.602-0.057,1.201-0.146,1.982-0.244
	c0.35,0.858,0.83,1.614,0.954,2.426c0.319,2.093,0.496,4.208,0.697,6.317c0.08,0.835-0.638,1.504-1.4,1.248
	c-0.932-0.312-1.864-0.69-2.709-1.188c-2.069-1.214-4.109-1.568-6.391-0.489C24.498,49.182,23.327,49.158,21.896,49.414z"/>
<path style="fill-rule:evenodd;clip-rule:evenodd;fill:#E8CBA5;" d="M423.874,17.432c2.481,1.236,4.767,1.618,6.758,3.045
	c1.772,1.271,3.947,1.98,5.948,2.931c0.563,0.268,1.217,0.409,1.693,0.782c4.359,3.413,9.39,5.572,14.292,8.037
	c4.767,2.395,9.114,5.609,13.727,8.326c2.461,1.449,3.554,3.755,4.506,6.203c0.494,1.27,0.787,2.617,1.196,3.922
	c0.998,3.186,0.476,6.399-0.054,9.545c-0.283,1.683-1.303,3.169-2.851,4.243c-5.389,3.739-11.262,6.273-17.714,7.467
	c-0.73,0.136-1.479,0.275-2.163,0.553c-6.123,2.478-12.634,3.437-19.011,4.926c-2.803,0.654-5.153-0.201-7.364-1.792
	c-0.648-0.467-0.988-1.104-0.985-1.914c0.002-0.624-0.133-1.281,0.016-1.868c1.01-4.025,0.959-8.143,0.945-12.228
	c-0.034-9.986,1.094-19.947,0.622-29.938c-0.122-2.592,0.144-5.21-0.47-7.775c-0.086-0.355-0.104-0.763-0.021-1.115
	C423.168,19.825,423.463,18.887,423.874,17.432z M437.922,61.84c1.755,2.006,3.95,2.323,6.41,1.47c1.527-0.53,3.009-1.477,4.563-1.6
	c4.817-0.384,8.989-2.679,13.438-4.143c1.544-0.509,2.455-1.785,3.047-3.14c1.229-2.818-2.206-9.977-5.198-11.098
	c-0.23-0.087-0.51-0.059-0.728-0.164c-1.194-0.58-2.496-0.734-3.622-1.728c-1.258-1.11-2.999-1.89-4.656-2.278
	c-2.144-0.504-3.824-1.615-5.52-2.869c-2.206-1.632-4.467-3.197-7.834-3.571c-0.661,0.672-1.514,1.539-2.038,2.071
	c0.125,2.099,0.242,3.576,0.294,5.058c0.048,1.373-0.147,2.775,0.065,4.117C437.08,49.866,437.583,55.804,437.922,61.84z"/>
<path style="fill-rule:evenodd;clip-rule:evenodd;fill:#E8CBA5;" d="M217.238,86.621c-3.506,0.131-6.813-0.757-10.151-0.235
	c-0.222,0.035-0.484-0.078-0.706-0.173c-5.03-2.145-10.025-4.271-14.398-7.737c-3.889-3.082-8.099-5.773-12.265-8.486
	c-2.698-1.756-5.572-3.242-8.574-4.968c-0.5,0.757-1.073,1.285-1.214,1.911c-0.327,1.446-0.582,2.936-0.62,4.414
	c-0.088,3.373,0.024,6.75-0.053,10.123c-0.034,1.486-0.254,2.98-0.534,4.444c-0.206,1.081-0.984,1.622-2.132,1.755
	c-2.342,0.273-4.671,0.659-7.008,0.979c-2.296,0.313-3.843-1.193-3.576-3.469c0.043-0.369,0.179-0.731,0.194-1.1
	c0.23-5.971,0.439-11.941,0.676-17.911c0.044-1.115,0.144-2.232,0.299-3.338c0.415-2.961,0.608-5.933,0.791-8.917
	c0.148-2.421,1.127-4.79,1.785-7.367c1.783,0.167,3.493,0.592,5.14,0.42c2.544-0.267,4.269,0.872,5.9,2.527
	c1.918,1.945,3.743,4.019,5.862,5.722c4.841,3.89,9.254,8.328,14.754,11.399c1.708,0.954,3.146,2.44,4.587,3.812
	c1.431,1.361,2.997,2.145,4.917,2.016c1.208-1.209,0.888-2.647,0.915-3.99c0.11-5.453,0.189-10.907,0.281-16.467
	c1.361-0.794,2.756-0.408,4.062-0.406c1.475,0.002,2.918,0.295,4.437,0.136c1.304-0.137,2.672,0.334,4.031,0.54
	c0.501,1.131,0.913,2.074,0.681,3.302c-0.622,3.308-0.547,9.906-0.102,13.38c0.202,1.571,0.21,3.167,0.286,4.753
	c0.125,2.615,0.548,5.141,1.375,7.662C217.38,82.889,218.369,84.588,217.238,86.621z"/>
<path style="fill-rule:evenodd;clip-rule:evenodd;fill:#E8CBA5;" d="M372.712,79.071c-1.612,1.011-3.504,1.08-5.33,0.913
	c-2.606-0.238-5.174-0.554-7.754,0.199c-0.572,0.168-1.237,0.034-1.859,0.011c-1.575-0.061-2.145-0.359-2.346-1.813
	c-0.628-4.541-1.555-9.063-0.689-13.704c0.386-2.067,0.282-4.222,0.578-6.311c0.606-4.286,1.323-8.557,2.023-12.829
	c0.078-0.476,0.34-0.921,0.568-1.513c2.472-1.034,5.181-1.446,7.696-2.483c1.924-0.794,4.053-0.314,5.454,1.41
	c1.201,1.48,2.787,2.45,4.148,3.705c1.555,1.435,3.105,2.898,4.474,4.506c1.462,1.72,3.065,3.245,4.862,4.591
	c1.281,0.961,2.548,1.942,3.87,2.953c1.996-0.903,2.407-3.174,4.159-4.36c0-2.997-0.001-5.986,0-8.976
	c0.002-3.37,0.002-6.741,0.013-10.112c0.002-0.623-0.056-1.273,0.1-1.862c0.362-1.379,1.021-2.488,2.621-2.829
	c1.696-0.361,3.354-0.904,5.245-1.428c0.379,0.754,0.961,1.463,1.087,2.245c0.335,2.086,0.634,4.2,0.662,6.307
	c0.084,6.244,0.041,12.489,0.022,18.733c-0.005,1.61,0.051,3.201-0.45,4.813c-0.313,1.005-0.054,2.216,0.072,3.319
	c0.14,1.227,0.452,2.433,0.632,3.655c0.221,1.504-0.378,2.418-1.86,2.637c-2.374,0.352-4.761,0.307-6.831-1.082
	c-2.65-1.778-5.773-2.049-8.703-2.921c-2.477-0.736-4.848-1.685-7.214-2.712c-1.974-0.856-3.747-1.899-5.229-3.626
	c-0.979,0.138-1.932,0.271-2.75,0.387c-0.237,0.393-0.458,0.594-0.475,0.811c-0.379,4.721,0.763,9.143,2.828,13.33
	C372.986,76.351,373.278,77.562,372.712,79.071z"/>
<path style="fill-rule:evenodd;clip-rule:evenodd;fill:#E8CBA5;" d="M332.723,66.329c0.505,2.325,0.949,4.372,1.372,6.32
	c-0.682,1.302-1.53,2.078-2.955,2.176c-1.111,0.075-2.208,0.474-3.313,0.488c-4.861,0.061-9.658,0.738-14.464,1.348
	c-3.067,0.388-6.132,0.791-9.194,1.217c-1.857,0.258-3.704,0.26-5.747,0.019c-0.129-0.885-0.344-1.718-0.354-2.553
	c-0.042-3.872,0.003-7.745-0.046-11.617c-0.025-1.98-0.375-3.976-0.223-5.937c0.146-1.878,0.233-3.67-0.139-5.554
	c-0.251-1.272,0.62-2.83,0.22-3.995c-0.591-1.719,0.022-3.169,0.186-4.732c0.181-1.727,0.417-3.448,0.545-5.179
	c0.229-3.085,0.393-6.175,0.595-9.437c0.784-0.176,1.477-0.445,2.177-0.468c1.994-0.064,3.992-0.004,5.988-0.036
	c3.725-0.06,7.449-0.152,11.173-0.229c1.445-0.029,2.891-0.101,4.334-0.067c1.454,0.032,2.905,0.201,4.36,0.253
	c1.497,0.055,2.999,0.001,4.495,0.072c0.71,0.034,1.411,0.248,2.261,0.408c-0.17,3.879-1.293,7.434-1.679,11.128
	c-1.974,0.823-3.884,0.898-5.863,0.718c-1.832-0.166-3.687-0.292-5.477,0.372c-2.757,1.023-5.661,0.48-8.488,0.777
	c-2.305,0.242-2.747,0.473-3.292,2.786c-0.338,1.437-0.402,2.938-0.585,4.375c1.309,1.575,2.592,2.244,4.636,1.561
	c1.601-0.536,3.398-0.53,5.117-0.646c1.072-0.072,2.064,0.797,2.006,1.782c-0.124,2.083-0.394,4.157-0.605,6.248
	c-2.979,0.726-5.736,1.392-8.491,2.071c-0.597,0.147-1.228,0.257-1.762,0.537c-0.933,0.49-1.244,1.664-0.78,2.583
	c0.961,1.908,2.22,3.276,4.652,2.964c1.723-0.223,3.473-0.248,5.21-0.358c0.622-0.039,1.246-0.126,1.865-0.098
	c3.484,0.156,6.967,0.339,10.45,0.521C331.395,66.172,331.881,66.242,332.723,66.329z"/>
<path style="fill-rule:evenodd;clip-rule:evenodd;fill:#E8CBA5;" d="M68.667,52.847c0.3,0.768,0.469,1.676,0.951,2.365
	c4.574,6.539,9.202,13.04,13.813,19.553c1.076,1.52,2.207,3.004,3.203,4.574c0.855,1.346,1.554,2.79,2.296,4.144
	c-0.705,1.665-1.845,2.567-3.061,3.484c-0.415-0.204-0.862-0.274-1.03-0.529c-2.335-3.546-5.129-6.733-8.091-9.729
	c-3.11-3.146-5.532-6.75-7.87-10.435c-0.978-1.542-2.234-2.624-3.824-3.333c-1.576,0.544-2.014,1.781-1.621,3.018
	c0.528,1.663,0.041,3.191-0.052,4.784c-0.116,1.982-0.123,3.973-0.156,5.96c-0.01,0.622,0.104,1.251,0.055,1.869
	c-0.119,1.5-0.989,2.214-2.496,2.057c-2.09-0.218-4.177-0.476-6.533-0.747c-0.269-0.612-0.773-1.353-0.913-2.156
	c-0.536-3.073-0.93-6.15,0.062-9.244c0.248-0.773,0.334-1.838-0.007-2.516c-0.913-1.817-0.795-3.724-0.482-5.51
	c0.586-3.344,0.521-6.705,0.714-10.058c0.258-4.469,0.371-8.947,0.543-13.421c0.043-1.121,0.143-2.245,0.104-3.363
	c-0.067-1.894,0.831-3.147,2.549-3.692c1.887-0.599,3.82-1.111,5.77-1.44c2.583-0.437,5.195-0.807,7.807-0.925
	c1.974-0.09,3.97,0.246,5.953,0.422c1.242,0.109,2.485,0.417,3.719,0.377c1.958-0.063,3.64,0.639,5.354,1.418
	c2.413,1.099,3.978,2.892,4.801,5.389c0.583,1.768,1.456,3.477,1.223,5.415c-0.468,3.885-2.799,6.338-6.329,7.592
	c-1.858,0.659-3.88,0.884-5.843,1.219c-2.446,0.417-4.904,0.77-7.364,1.103C70.586,50.67,69.553,51.231,68.667,52.847z
	 M67.365,44.027c1.259-0.314,2.081-1.075,3.367-0.723c2.412,0.661,4.313-0.722,6.012-2.188c1.471-1.27,0.76-4.247-1.113-4.45
	c-3.081-0.334-6.181-0.22-9.037,1.313c-0.86,0.462-1.167,1.183-1.283,2.104C65.091,41.813,66.246,42.805,67.365,44.027z"/>
<path style="fill-rule:evenodd;clip-rule:evenodd;fill:#E8CBA5;" d="M275.389,37.875c0.137,1.124,0.247,1.617,0.249,2.11
	c0.016,4.482,0.007,8.965,0.021,13.447c0.003,1.172-0.213,2.232-1.224,3.01c-3.938-0.187-7.887-0.383-11.838-0.553
	c-1.322-0.058-2.391,0.772-2.57,2.214c-0.168,1.354-0.225,2.762-0.05,4.11c0.396,3.075,1.016,6.121,1.442,9.193
	c0.237,1.71,0.385,3.456-0.288,5.322c-3.252,0.639-6.493,1.206-10.004,1.131c-0.319-0.712-0.803-1.354-0.879-2.039
	c-0.301-2.716-0.556-5.442-0.67-8.172c-0.11-2.62-0.003-5.249-0.035-7.874c-0.023-1.97-0.055-1.969-1.748-3.613
	c-2.493,0-4.846-0.027-7.197,0.014c-0.862,0.016-1.745,0.104-2.579,0.316c-1.855,0.472-3.683,0.346-5.635,0.09
	c-2.121-4.932-1.771-9.903-0.924-15.099c0.668-0.135,1.242-0.294,1.826-0.362c4.316-0.502,8.677-0.753,12.938-1.549
	c3.484-0.65,6.938-0.378,10.404-0.553c2.482-0.125,4.953-0.481,7.428-0.74C267.747,37.892,271.438,38.182,275.389,37.875z"/>
<path style="fill-rule:evenodd;clip-rule:evenodd;fill:#E8CBA5;" d="M115.65,77.597c-4.813,1.06-10.723-3.468-12.003-8.462
	c-1.126-4.396-0.854-8.336,1.125-12.291c0.332-0.665,0.64-1.353,0.866-2.059c0.982-3.064,3.625-4.656,5.873-6.571
	c0.505-0.43,1.388-0.448,2.111-0.585c2.308-0.435,4.689-0.527,6.865-1.563c0.324-0.154,0.715-0.188,1.082-0.226
	c1.468-0.149,2.591,1.094,4.278,0.763c1.325-0.262,2.656,0.972,3.847,1.957c2.961,2.45,5.94,4.847,8.439,7.805
	c1.868,2.211,2.556,4.502,1.186,7.19c-0.899,1.768-1.725,3.578-2.724,5.286c-0.895,1.528-2.235,2.692-3.8,3.52
	C127.396,75.215,121.886,77.731,115.65,77.597z M119.046,54.798c-1.996,1.785-3.066,4.213-4.331,6.476
	c-0.853,1.523-1.091,3.323-0.342,4.999c0.27,0.603,0.993,1.323,1.581,1.395c1.197,0.145,2.566,0.179,3.642-0.271
	c2.342-0.979,4.217-2.669,5.353-4.992c0.724-1.48,1.005-2.982,0.09-4.627C123.4,54.835,122.784,54.441,119.046,54.798z"/>
<path style="fill-rule:evenodd;clip-rule:evenodd;" d="M437.922,61.84c-0.339-6.036-0.842-11.974-1.778-17.874
	c-0.213-1.342-0.018-2.744-0.065-4.117c-0.052-1.481-0.169-2.959-0.294-5.058c0.524-0.532,1.377-1.399,2.038-2.071
	c3.367,0.374,5.628,1.939,7.834,3.571c1.695,1.254,3.376,2.365,5.52,2.869c1.657,0.389,3.398,1.168,4.656,2.278
	c1.126,0.993,2.428,1.147,3.622,1.728c0.218,0.105,0.497,0.077,0.728,0.164c2.992,1.121,6.427,8.279,5.198,11.098
	c-0.592,1.354-1.503,2.631-3.047,3.14c-4.449,1.464-8.621,3.759-13.438,4.143c-1.554,0.123-3.035,1.069-4.563,1.6
	C441.872,64.163,439.677,63.846,437.922,61.84z M442.369,59.754c3.173-1.112,5.727-3.102,8.403-4.87
	c1.349-0.891,2.716-1.764,3.979-2.766c1.074-0.852,1.159-1.802,0.442-2.974c-0.321-0.525-0.679-1.061-1.128-1.473
	c-2.827-2.593-5.575-5.308-9.111-6.962c-1.375-0.643-2.633-1.291-3.337-2.78c-0.288-0.609-0.976-1.115-2.117-0.877
	c-0.184,7.201,1.717,14.256,2.084,21.438C441.606,58.909,442.078,59.303,442.369,59.754z"/>
<path style="fill-rule:evenodd;clip-rule:evenodd;" d="M67.365,44.027c-1.12-1.223-2.274-2.214-2.055-3.944
	c0.116-0.921,0.423-1.642,1.283-2.104c2.856-1.532,5.956-1.646,9.037-1.313c1.873,0.203,2.584,3.181,1.113,4.45
	c-1.698,1.466-3.6,2.849-6.012,2.188C69.446,42.952,68.624,43.713,67.365,44.027z"/>
<path style="fill-rule:evenodd;clip-rule:evenodd;" d="M119.046,54.798c3.738-0.356,4.354,0.037,5.992,2.979
	c0.915,1.645,0.634,3.146-0.09,4.627c-1.136,2.323-3.011,4.014-5.353,4.992c-1.076,0.449-2.445,0.415-3.642,0.271
	c-0.588-0.071-1.312-0.792-1.581-1.395c-0.749-1.676-0.51-3.476,0.342-4.999C115.98,59.011,117.05,56.583,119.046,54.798z"/>
</svg>
