<?xml version="1.0" standalone="no"?><!-- Generator: Gravit.io --><svg xmlns="http://www.w3.org/2000/svg" xmlns:xlink="http://www.w3.org/1999/xlink" style="isolation:isolate" viewBox="0 0 251.929 191.984" width="251.929" height="191.984"><defs><clipPath id="_clipPath_DaoOzjfwqD6pxLozTm8jhDwi1e4hAanr"><rect width="251.929" height="191.984"/></clipPath></defs><g clip-path="url(#_clipPath_DaoOzjfwqD6pxLozTm8jhDwi1e4hAanr)"><path d=" M 47.69 50.175 C 48.69 50.175 49.69 50.175 50.69 50.175 C 51.09 50.175 51.29 49.875 51.49 49.675 C 51.79 49.075 52.29 48.575 52.39 47.875 C 52.69 46.775 53.29 45.875 53.79 44.875 C 54.29 43.775 54.99 42.775 55.89 41.875 C 56.69 41.075 57.49 40.275 57.99 39.375 C 58.19 38.975 58.49 38.675 58.89 38.375 C 60.39 37.175 61.59 35.675 63.09 34.675 C 63.79 34.175 63.99 33.475 63.99 32.675 C 63.89 31.975 63.79 31.375 63.59 30.675 C 63.29 29.575 62.89 28.575 62.49 27.475 C 62.29 26.975 61.89 26.575 61.39 26.275 C 60.39 25.775 59.29 25.575 58.19 25.775 C 55.89 26.175 53.79 27.075 51.99 28.775 C 50.59 30.075 49.29 31.375 48.39 33.075 C 47.99 33.775 47.69 34.475 47.49 35.175 C 47.29 36.175 46.99 37.075 46.79 38.075 C 46.59 39.075 46.49 40.075 46.39 41.075 C 46.29 41.475 46.09 41.875 45.79 42.275 C 45.59 42.475 45.39 42.575 45.19 42.575 C 43.79 42.475 42.59 41.875 41.59 40.975 C 40.99 40.375 40.39 39.675 39.79 39.075 C 38.79 37.875 37.59 36.875 36.19 36.075 C 34.99 35.475 33.99 34.575 32.99 33.675 C 31.99 32.775 30.99 31.975 29.99 31.075 C 29.29 30.475 28.79 29.775 28.29 29.075 C 27.69 28.075 27.39 27.075 27.49 25.875 C 27.49 24.975 27.79 24.175 28.49 23.475 C 30.09 22.075 31.59 20.675 33.49 19.575 C 34.09 19.275 34.69 18.975 35.09 18.475 C 36.09 17.475 37.29 17.075 38.59 16.675 C 40.69 16.075 42.79 15.275 44.89 14.475 C 46.79 13.775 48.69 13.375 50.69 13.075 C 51.99 12.875 53.29 12.775 54.69 12.575 C 55.59 12.475 56.49 12.475 57.39 12.575 C 58.69 12.775 59.99 12.975 61.29 13.175 C 62.99 13.475 64.39 14.275 65.49 15.675 C 67.09 17.975 68.49 20.375 68.99 23.175 C 69.09 23.775 69.09 24.275 68.99 24.875 C 68.69 26.475 68.39 28.175 68.19 29.775 C 68.09 30.175 68.59 30.775 68.99 30.675 C 69.09 30.675 69.19 30.575 69.29 30.575 C 69.79 30.375 70.29 30.175 70.89 29.975 C 72.49 29.475 73.89 28.675 75.59 28.375 C 77.19 28.075 78.89 27.675 80.49 27.375 C 81.49 27.175 82.49 27.075 83.39 26.575 C 85.39 26.175 87.29 25.675 89.29 25.675 C 92.39 25.675 95.49 25.575 98.59 25.075 C 99.19 24.975 99.69 25.075 100.19 25.375 C 100.49 25.575 100.79 25.675 101.09 25.775 C 101.49 25.975 101.89 26.075 102.39 25.975 C 105.39 25.575 108.39 25.875 111.39 26.075 C 114.09 26.275 116.69 26.775 119.29 27.175 C 119.79 27.275 120.39 27.475 120.89 27.475 C 122.79 27.575 124.59 27.975 126.39 28.775 C 126.89 28.975 127.49 28.975 127.99 28.875 C 129.39 28.475 130.79 28.075 132.09 27.675 C 132.79 27.475 133.59 27.175 134.19 26.775 C 135.49 25.875 136.79 25.075 138.09 24.175 C 138.89 23.575 139.59 22.875 140.29 22.175 C 140.39 21.975 140.59 21.875 140.69 21.675 C 141.49 20.375 143.09 19.575 143.69 18.075 C 144.19 16.675 144.99 15.575 145.79 14.275 C 146.09 13.675 146.39 13.075 146.59 12.475 C 147.19 11.075 147.89 9.675 148.39 8.175 C 149.09 6.575 150.29 5.475 151.59 4.375 C 152.09 3.975 152.79 3.775 153.39 3.575 C 156.59 2.775 159.79 2.775 162.99 3.275 C 164.79 3.475 166.49 3.675 168.29 3.875 C 170.79 4.175 173.39 4.275 175.89 4.775 C 177.19 5.075 178.39 5.575 179.49 6.375 C 179.89 6.675 180.19 6.975 180.49 7.175 C 182.19 8.275 182.49 9.975 182.39 11.875 C 182.29 13.175 181.89 14.475 181.59 15.775 C 181.29 16.575 180.99 17.475 180.69 18.275 C 180.09 19.675 179.59 21.175 179.09 22.675 C 178.89 23.275 178.69 23.975 178.39 24.575 C 177.19 26.875 176.59 29.375 175.39 31.675 C 174.89 32.675 174.29 33.575 173.69 34.475 C 173.09 35.375 172.39 36.275 171.69 37.075 C 171.09 37.875 170.19 38.475 169.29 38.775 C 168.99 38.875 168.59 38.875 168.29 38.875 C 167.29 38.675 166.39 38.175 165.79 37.375 C 165.09 36.375 164.39 35.375 163.69 34.375 C 162.89 33.175 161.99 32.075 160.99 31.075 C 160.59 30.675 160.19 30.375 159.79 29.875 C 158.19 27.975 156.19 26.975 153.89 26.375 C 150.89 25.575 147.79 25.075 144.69 24.875 C 142.39 24.775 140.29 25.375 138.39 26.575 C 137.49 27.175 136.59 27.875 135.69 28.475 C 134.89 28.975 134.59 29.775 134.29 30.675 C 134.19 30.975 134.39 31.475 134.59 31.575 C 135.19 32.075 135.79 32.475 136.49 32.975 C 138.69 34.475 140.79 36.175 142.69 37.975 C 144.79 39.875 146.29 42.175 147.09 44.875 C 147.59 46.575 147.89 48.375 147.59 50.175 C 147.29 51.975 147.29 53.675 146.89 55.475 C 146.69 56.475 146.69 57.475 146.59 58.475 C 146.59 58.675 146.99 59.175 147.19 59.175 C 148.29 59.275 149.39 59.375 150.49 59.375 C 151.29 59.375 152.09 59.575 152.79 59.875 C 155.79 61.075 158.79 62.175 161.69 63.575 C 162.29 63.875 162.79 64.275 163.19 64.875 C 165.09 67.575 166.19 70.575 166.79 73.775 C 166.79 73.975 166.89 74.175 166.99 74.375 C 167.09 74.675 167.69 75.075 168.09 74.875 C 168.89 74.575 169.79 74.275 170.59 74.075 C 171.99 73.775 173.39 73.175 174.59 72.375 C 176.29 71.275 178.19 70.675 179.69 69.375 C 179.79 69.275 179.89 68.875 179.79 68.775 C 179.19 68.275 178.59 67.775 177.99 67.275 C 177.19 66.675 177.09 65.775 177.29 64.875 C 177.39 64.475 177.49 63.975 177.69 63.575 C 178.59 61.775 179.39 59.975 180.39 58.175 C 181.49 56.175 182.19 54.075 182.69 51.975 C 183.09 50.475 183.39 48.975 183.69 47.475 C 183.99 46.075 184.39 44.675 184.89 43.375 C 185.89 40.975 186.49 38.575 187.19 36.075 C 187.79 33.875 188.49 31.575 188.99 29.275 C 189.49 27.175 189.99 25.175 190.49 23.175 C 190.89 21.375 191.39 19.475 192.19 17.775 C 192.29 17.475 192.49 17.175 192.59 16.875 C 193.19 14.775 194.19 12.775 194.99 10.675 C 195.59 9.075 196.39 7.675 197.29 6.275 C 197.89 5.175 198.69 4.275 199.59 3.475 C 200.39 2.875 200.99 2.075 201.79 1.475 C 202.39 0.975 202.99 0.575 203.79 0.375 C 204.19 0.275 204.69 0.175 205.09 0.075 C 205.59 -0.025 206.19 -0.025 206.79 0.075 C 208.39 0.375 209.99 0.875 211.69 1.075 C 213.29 1.275 214.79 1.675 216.19 2.175 C 217.69 2.675 219.09 3.175 220.59 3.675 C 222.79 4.375 224.99 5.175 227.09 6.075 C 227.59 6.275 228.09 6.475 228.69 6.675 C 229.39 6.875 229.89 7.175 230.49 7.475 C 232.29 8.575 234.19 9.475 236.09 10.275 C 237.09 10.675 238.09 11.175 239.09 11.575 C 239.49 11.775 239.89 11.975 240.29 12.175 C 243.89 14.475 247.59 16.375 251.19 18.475 C 251.39 18.575 251.49 18.775 251.69 18.875 C 251.99 19.075 251.99 19.875 251.79 20.075 C 251.69 20.175 251.69 20.275 251.59 20.375 C 249.89 21.275 248.59 22.675 247.19 23.875 C 245.99 24.875 244.99 26.075 244.19 27.375 C 242.69 29.575 241.49 31.975 240.49 34.475 C 239.39 37.175 238.39 39.875 237.29 42.475 C 236.99 43.275 236.59 44.075 236.19 44.875 C 234.79 47.975 233.49 51.175 232.49 54.475 C 232.09 55.875 231.49 57.175 230.99 58.575 C 230.49 59.875 229.99 61.275 229.69 62.675 C 228.89 65.775 227.89 68.875 226.89 71.875 C 226.19 73.975 225.79 76.175 225.19 78.275 C 225.09 78.575 224.99 78.875 224.79 79.175 C 224.59 79.575 223.79 79.975 223.39 79.875 C 222.29 79.675 221.19 79.475 220.19 79.075 C 218.49 78.475 216.89 77.875 215.09 77.475 C 214.19 77.275 213.39 76.975 212.59 76.675 C 211.89 76.375 211.09 76.275 210.29 76.075 C 208.79 75.875 207.19 75.675 205.69 75.175 C 205.29 75.075 204.79 75.075 204.39 75.075 C 203.39 75.175 202.39 74.975 201.39 74.775 C 199.09 74.175 196.79 73.775 194.59 73.375 C 193.29 73.075 191.99 73.075 190.59 73.075 C 189.99 73.075 189.49 73.275 189.19 73.775 C 188.29 75.175 187.39 76.575 186.49 77.975 C 185.39 79.675 184.19 81.275 182.99 82.775 C 182.09 83.875 181.19 85.075 180.29 86.175 C 180.19 86.375 179.99 86.475 179.89 86.675 C 179.09 88.475 177.69 89.675 176.19 90.875 C 175.99 90.975 175.89 91.175 175.69 91.375 C 175.49 91.575 175.39 92.075 175.59 92.275 C 176.39 92.975 177.19 93.775 178.09 94.475 C 178.79 95.075 179.29 95.775 179.79 96.475 C 179.89 96.675 179.99 96.875 180.09 97.075 C 181.59 99.575 181.69 99.575 182.29 102.275 C 182.79 104.475 183.19 106.575 183.09 108.875 C 183.09 109.475 183.09 109.975 183.09 110.575 C 183.19 113.175 182.69 115.675 181.79 118.075 C 181.59 118.675 181.29 119.275 181.09 119.975 C 180.39 122.075 179.39 124.075 178.29 125.975 C 178.09 126.375 177.89 126.775 177.59 127.175 C 176.89 128.075 176.69 129.175 176.89 130.275 C 177.29 132.775 177.09 135.375 176.59 137.875 C 176.39 138.675 176.29 139.375 175.99 140.075 C 175.69 140.775 175.49 141.575 175.19 142.275 C 174.59 143.975 173.69 145.475 172.69 146.975 C 171.89 148.175 171.09 149.375 170.19 150.575 C 169.79 151.175 169.69 151.775 169.79 152.475 C 169.89 153.475 170.09 154.475 170.29 155.475 C 170.79 157.775 171.09 160.075 171.69 162.275 C 171.99 163.375 172.29 164.375 172.69 165.475 C 173.29 167.275 174.09 168.975 174.69 170.775 C 174.99 171.975 175.59 173.075 176.19 174.075 C 177.09 175.975 177.89 177.975 178.59 179.875 C 178.69 180.075 178.69 180.275 178.69 180.575 C 178.69 180.875 178.59 181.275 178.29 181.375 C 177.99 181.475 177.69 181.575 177.39 181.675 C 177.19 181.675 176.89 181.675 176.79 181.475 C 175.99 180.475 175.19 179.675 174.29 178.775 C 173.39 177.875 172.39 177.275 171.69 176.275 C 171.09 175.975 170.69 175.475 170.29 174.875 C 169.99 174.575 169.69 174.175 169.39 173.875 C 166.59 171.475 163.99 168.975 161.49 166.275 C 160.29 164.975 158.89 163.875 157.39 162.875 C 156.59 162.375 155.79 162.275 154.89 162.575 C 153.99 162.975 152.99 163.275 152.09 163.675 C 150.89 164.175 149.49 164.375 148.39 165.175 C 147.29 165.475 146.29 165.875 145.19 166.175 C 143.89 166.575 142.59 166.875 141.39 167.275 C 140.39 167.675 139.29 167.875 138.09 167.975 C 137.89 167.975 137.69 167.975 137.39 168.075 C 135.39 168.475 133.39 168.575 131.49 167.875 C 128.79 167.475 125.99 166.975 123.19 166.875 C 122.49 166.875 121.89 167.075 121.29 167.375 C 119.19 168.775 117.09 170.275 114.79 171.475 C 114.49 171.675 114.19 171.775 113.99 172.075 C 113.39 172.775 112.59 173.175 111.79 173.475 C 110.49 173.975 109.09 174.375 107.69 174.875 C 106.39 175.275 105.19 175.675 103.89 176.075 C 102.69 176.475 101.59 176.775 100.39 176.975 C 98.99 177.175 97.59 177.575 96.19 177.975 C 94.09 178.475 92.09 178.875 89.99 178.875 C 89.29 178.875 88.69 178.875 87.99 178.975 C 85.19 179.475 82.49 179.275 79.69 179.375 C 77.79 179.475 75.89 179.175 74.09 178.875 C 72.29 178.575 70.59 178.175 68.89 177.975 C 67.19 177.775 65.59 177.275 64.09 176.775 C 63.49 176.575 62.79 176.375 62.19 176.175 C 60.99 175.875 59.99 175.275 58.99 174.475 C 57.69 173.575 56.49 172.675 55.19 171.775 C 54.79 171.475 54.39 171.375 53.89 171.475 C 51.89 172.075 49.69 172.175 47.59 172.275 C 46.89 172.275 46.29 172.475 45.79 172.875 C 45.29 173.375 44.69 173.675 44.09 173.975 C 43.19 174.375 42.29 174.875 41.49 175.475 C 38.79 177.575 35.99 179.575 33.39 181.875 C 32.59 182.575 31.69 183.275 30.79 183.975 C 29.19 185.175 27.69 186.575 26.39 188.075 C 25.49 189.175 24.39 190.075 23.59 191.375 C 23.49 191.575 23.29 191.675 23.09 191.775 C 22.89 191.975 22.39 192.075 22.19 191.875 C 21.89 191.675 21.69 191.475 21.59 191.075 C 21.59 190.875 21.49 190.675 21.59 190.375 C 21.59 190.175 21.69 189.975 21.69 189.775 C 22.59 187.375 23.59 185.075 24.49 182.675 C 24.99 181.475 25.49 180.275 26.09 179.075 C 26.89 177.475 27.39 175.775 27.99 174.075 C 28.39 172.775 28.79 171.575 29.19 170.275 C 29.29 169.975 28.99 169.375 28.59 169.175 C 26.69 168.575 24.89 167.675 23.09 166.775 C 22.69 166.575 22.29 166.475 21.89 166.275 C 17.89 164.975 16.29 164.175 13.09 161.775 C 10.79 160.075 8.59 158.175 6.39 156.275 C 5.19 155.175 4.29 153.975 3.69 152.575 C 3.49 152.075 3.19 151.575 2.99 151.075 C 1.59 148.275 1.19 145.375 1.59 142.275 C 1.79 140.675 2.09 138.975 2.19 137.275 C 2.29 136.375 2.59 135.575 2.89 134.775 C 3.39 133.375 3.99 132.075 4.39 130.775 C 4.49 130.575 4.59 130.375 4.59 130.175 C 4.79 129.475 4.79 128.875 4.39 128.275 C 3.59 127.375 2.89 126.375 2.39 125.175 C 1.69 123.675 0.99 122.175 0.59 120.575 C 0.29 119.575 0.09 118.675 0.09 117.675 C -0.21 114.275 0.29 111.075 0.89 107.775 C 0.99 107.375 1.09 106.875 1.29 106.475 C 1.89 104.775 2.39 103.075 3.09 101.475 C 3.89 99.575 4.99 97.975 6.29 96.375 C 7.19 95.375 7.99 94.275 8.79 93.275 C 9.79 91.875 10.89 90.375 11.99 89.075 C 12.99 87.875 14.09 86.675 15.29 85.775 C 16.49 84.875 17.49 83.875 18.69 83.075 C 19.89 82.275 21.09 81.575 22.29 80.775 C 22.59 80.575 22.79 80.375 23.09 80.175 C 23.19 80.075 23.29 79.775 23.39 79.575 C 23.49 79.375 23.49 79.175 23.39 78.875 C 23.09 76.775 23.29 74.675 23.29 72.575 C 23.29 70.575 23.79 68.575 24.49 66.775 C 25.79 63.075 27.99 59.875 30.69 57.075 C 32.59 55.175 33.29 54.475 35.09 53.575 C 37.29 52.475 39.39 51.375 41.89 50.875 C 43.79 50.375 45.69 50.275 47.69 50.175 Z " fill-rule="evenodd" fill="rgb(0,0,0)"/><path d=" M 97.39 93.275 C 99.99 93.075 102.39 92.975 104.69 92.775 C 106.09 92.675 107.59 92.375 108.89 91.975 C 109.89 91.675 110.79 91.475 111.79 91.375 C 112.49 91.275 113.09 91.275 113.79 91.075 C 116.59 90.175 119.49 89.375 122.39 88.475 C 122.99 88.275 123.59 87.975 124.19 87.675 C 124.69 87.375 125.19 87.175 125.59 86.775 C 127.49 85.475 129.59 84.275 131.59 83.275 C 133.19 82.475 134.59 81.375 135.89 80.175 C 137.19 78.875 138.39 77.275 139.19 75.575 C 139.99 73.775 140.99 71.975 141.89 70.275 C 142.89 68.275 143.69 66.275 144.49 64.175 C 144.69 63.575 144.99 62.975 145.29 62.375 C 145.39 62.075 145.69 61.875 145.99 61.675 C 146.69 61.375 147.49 61.175 148.29 61.175 C 150.89 61.175 153.39 61.575 155.79 62.375 C 158.89 63.475 161.09 65.475 162.79 68.275 C 163.09 68.775 163.29 69.275 163.49 69.775 C 164.19 71.775 164.69 73.775 164.99 75.875 C 164.99 76.175 165.09 76.575 165.09 76.875 C 165.09 78.475 165.09 79.975 165.09 81.575 C 165.09 83.075 164.79 84.475 164.49 85.875 C 164.49 86.075 164.19 86.275 163.99 86.275 C 163.59 86.375 163.09 86.475 162.69 86.475 C 161.79 86.475 160.89 86.375 159.99 86.375 C 159.49 86.375 158.99 86.875 158.79 87.375 C 158.69 87.775 159.09 88.375 159.49 88.375 C 159.59 88.375 159.69 88.475 159.79 88.475 C 161.69 88.375 163.49 88.875 165.29 89.575 C 167.79 90.575 170.19 91.675 172.49 93.075 C 173.99 93.975 175.59 94.775 177.09 95.775 C 177.49 96.075 177.79 96.375 177.99 96.775 C 178.99 98.675 179.89 100.575 180.39 102.575 C 180.49 103.175 180.69 103.875 180.89 104.475 C 181.49 105.675 181.39 106.875 181.19 108.075 C 181.09 108.975 180.89 109.875 180.59 110.675 C 180.19 111.775 179.89 112.775 179.79 113.875 C 179.79 114.275 179.59 114.775 179.39 115.175 C 178.89 116.175 178.39 117.175 177.69 117.975 C 176.79 119.075 175.79 120.175 174.89 121.275 C 174.79 121.375 174.69 121.375 174.59 121.475 C 174.29 121.775 173.39 121.775 172.99 121.475 C 172.59 121.075 172.19 120.675 171.79 120.375 C 171.49 120.175 171.29 119.975 170.99 119.775 C 170.79 119.675 170.19 119.675 169.99 119.775 C 169.69 119.975 169.49 120.675 169.69 120.975 C 169.89 121.275 169.99 121.575 170.19 121.875 C 170.79 122.575 171.39 123.175 171.89 123.875 C 174.29 126.875 175.19 130.375 174.99 134.175 C 174.89 134.975 174.79 135.675 174.69 136.475 C 174.49 139.475 174.59 138.975 173.29 141.575 C 172.99 142.175 172.79 142.775 172.49 143.375 C 171.99 144.675 171.39 145.775 170.49 146.875 C 170.39 147.075 170.19 147.175 170.09 147.375 C 168.79 149.675 167.09 151.475 165.19 153.275 C 164.69 153.775 164.19 154.175 163.69 154.575 C 163.39 154.875 162.89 155.075 162.69 155.475 C 161.69 156.875 160.19 157.675 158.69 158.475 C 155.79 160.075 152.79 161.475 149.59 162.475 C 148.89 162.675 148.09 162.875 147.39 163.275 C 144.99 164.475 142.29 164.875 139.79 165.675 C 139.29 165.875 138.69 165.875 138.19 165.875 C 136.59 165.675 134.89 165.675 133.29 165.075 C 132.79 164.875 132.29 164.675 131.79 164.475 C 131.09 164.175 130.49 163.675 129.99 163.075 C 129.49 162.475 129.09 161.875 128.69 161.175 C 128.29 160.575 128.39 159.875 128.69 159.275 C 128.99 158.775 129.29 158.375 129.69 157.975 C 129.89 157.775 129.79 157.275 129.59 157.075 C 129.39 156.775 128.79 156.575 128.39 156.775 C 127.99 156.975 127.59 157.275 127.39 157.575 C 126.29 159.275 124.89 160.675 123.59 162.175 C 122.29 163.575 120.79 164.675 119.49 166.075 C 119.09 166.575 118.49 166.975 117.89 167.275 C 117.09 167.775 116.09 168.175 115.29 168.675 C 114.49 169.075 113.89 169.775 113.09 170.175 C 112.69 170.375 112.29 170.475 111.89 170.775 C 110.79 171.775 109.39 172.275 107.99 172.475 C 105.69 172.875 103.49 173.575 101.39 174.575 C 100.59 174.975 99.69 175.175 98.89 175.375 C 97.39 175.675 95.89 176.075 94.29 176.375 C 92.99 176.675 91.69 176.775 90.29 176.875 C 88.69 176.975 87.19 177.075 85.69 177.175 C 84.69 177.275 83.69 177.275 82.69 177.275 C 81.89 177.275 81.09 177.275 80.39 177.375 C 78.29 177.475 76.19 177.375 74.09 176.775 C 73.09 176.475 72.19 176.375 71.19 176.275 C 67.69 175.975 64.49 174.675 61.29 173.475 C 59.59 172.475 57.79 171.475 56.19 170.375 C 55.79 170.075 55.49 169.775 55.29 169.475 C 54.29 168.175 53.39 166.775 52.39 165.375 C 52.19 165.075 51.89 164.875 51.69 164.675 C 51.49 164.575 51.29 164.575 51.09 164.575 C 50.79 164.575 50.49 164.975 50.49 165.275 C 50.49 165.475 50.49 165.775 50.49 165.875 C 50.69 166.275 50.89 166.675 51.09 167.075 C 51.19 167.375 51.19 167.875 50.99 167.975 C 49.59 169.175 47.99 169.875 46.19 170.175 C 45.49 170.275 44.89 170.375 44.29 170.675 C 43.89 170.875 43.39 170.775 42.99 170.675 C 41.49 170.275 40.09 169.675 38.49 169.375 C 35.89 168.975 33.39 168.075 30.79 167.475 C 29.19 167.075 27.59 166.575 26.09 165.775 C 24.89 165.175 23.69 164.575 22.39 164.275 C 21.49 164.075 20.79 163.575 20.09 163.075 C 19.19 162.375 18.29 161.775 17.19 161.375 C 14.89 160.575 13.09 159.075 11.29 157.675 C 10.09 156.675 8.99 155.675 7.79 154.575 C 6.89 153.775 6.09 152.775 5.69 151.575 C 5.29 150.575 4.89 149.475 4.49 148.475 C 4.29 147.975 4.29 147.375 4.39 146.875 C 4.49 146.475 4.39 145.975 4.19 145.575 C 3.79 144.975 3.69 144.375 3.89 143.675 C 4.09 143.075 4.09 142.375 4.29 141.675 C 4.59 140.775 4.49 139.975 4.39 139.075 C 4.29 138.375 4.39 137.775 4.79 137.175 C 4.99 136.975 4.89 136.575 4.99 136.275 C 5.39 134.175 6.29 132.275 6.89 130.275 C 7.49 129.475 7.79 128.475 8.19 127.575 C 8.89 126.175 9.69 124.875 10.49 123.575 C 11.19 122.375 11.99 121.375 13.09 120.575 C 13.39 120.375 13.59 120.175 13.79 119.875 C 13.99 119.675 13.99 119.275 13.69 118.975 C 13.39 118.675 13.09 118.575 12.79 118.775 C 11.69 119.275 10.79 120.175 9.99 121.075 C 9.69 121.375 9.49 121.775 9.19 122.175 C 8.79 122.675 7.89 122.675 7.49 122.075 C 6.99 121.475 6.59 120.875 6.09 120.175 C 4.39 117.975 4.29 117.775 3.59 115.175 C 3.19 113.775 2.89 112.375 2.99 110.875 C 2.99 110.775 2.99 110.675 2.99 110.575 C 2.69 108.475 3.29 106.575 3.99 104.775 C 4.29 103.975 4.69 103.175 5.09 102.375 C 5.89 100.675 6.79 99.075 7.99 97.575 C 9.69 95.575 11.29 93.375 12.89 91.275 C 13.89 89.975 14.99 88.675 16.39 87.675 C 17.49 86.875 18.49 85.975 19.49 85.175 C 21.79 83.475 24.39 82.075 26.99 80.975 C 29.39 79.975 31.79 79.275 34.19 78.475 C 34.59 78.375 34.69 78.075 34.89 77.775 C 34.99 77.575 34.99 77.375 34.79 77.175 C 34.49 76.875 34.09 76.675 33.59 76.775 C 32.89 76.875 32.29 77.075 31.59 77.175 C 31.19 77.275 30.69 77.175 30.29 76.875 C 29.79 76.575 29.29 76.275 28.89 75.975 C 28.49 75.775 28.19 75.375 27.99 75.075 C 27.09 73.675 26.49 72.075 26.09 70.475 C 25.79 69.375 25.89 68.275 26.39 67.275 C 27.59 64.775 28.99 62.375 30.99 60.375 C 32.89 58.375 34.89 56.375 37.19 54.875 C 38.29 54.175 39.49 53.575 40.89 53.375 C 41.19 53.275 41.59 53.275 41.89 53.175 C 44.29 52.375 46.69 52.375 49.09 52.475 C 49.39 52.475 49.79 52.575 50.09 52.675 C 50.29 52.675 50.69 53.175 50.59 53.475 C 50.59 53.675 50.59 53.975 50.49 54.175 C 49.99 55.575 49.89 56.975 49.79 58.475 C 49.79 59.275 49.69 60.075 49.59 60.775 C 49.49 61.975 49.29 63.175 49.59 64.375 C 49.29 65.875 49.69 67.275 49.79 68.675 C 49.89 70.875 50.69 72.775 51.79 74.575 C 53.39 77.275 55.49 79.575 58.09 81.275 C 58.79 81.675 59.39 82.175 59.99 82.575 C 60.49 82.875 60.99 83.075 61.49 83.375 C 62.29 83.775 63.09 84.075 63.99 84.375 C 64.89 84.775 65.79 85.175 66.59 85.775 C 67.19 86.275 67.89 86.575 68.59 86.875 C 69.29 87.175 69.99 87.475 70.69 87.875 C 73.29 89.475 76.09 90.375 78.99 91.175 C 79.99 91.475 80.89 91.675 81.89 91.975 C 84.69 92.775 87.49 93.375 90.39 93.675 C 91.59 93.775 92.79 93.775 94.09 93.775 C 95.29 93.375 96.49 92.975 97.39 93.275 Z " fill-rule="evenodd" fill="rgb(255,255,255)"/><path d=" M 243.99 17.175 C 244.09 17.175 244.19 17.075 244.29 17.175 C 245.69 17.675 246.89 18.375 248.09 19.175 C 248.29 19.375 248.39 19.875 248.19 20.075 C 247.39 20.875 246.59 21.575 245.79 22.275 C 245.19 22.875 244.49 23.475 243.89 24.175 C 242.79 25.275 241.79 26.475 241.09 27.875 C 239.39 30.275 238.29 32.875 237.19 35.575 C 236.89 36.175 236.69 36.875 236.49 37.475 C 235.99 38.675 235.59 39.975 234.99 41.175 C 234.49 42.275 234.09 43.475 233.69 44.575 C 232.99 46.375 232.49 48.175 231.49 49.775 C 231.19 50.275 231.09 50.775 230.99 51.375 C 230.79 52.475 230.29 53.475 229.99 54.575 C 229.79 55.675 229.29 56.675 228.89 57.675 C 228.19 59.675 227.69 61.675 227.09 63.775 C 226.89 64.475 226.69 65.275 226.49 65.975 C 225.39 69.075 224.39 72.275 223.69 75.575 C 223.59 76.075 223.29 76.575 223.09 77.175 C 222.99 77.475 222.59 77.775 222.29 77.675 C 221.59 77.475 220.79 77.175 220.09 76.975 C 218.79 76.475 217.39 75.975 215.99 75.675 C 215.29 75.575 214.69 75.375 214.09 75.175 C 212.89 74.775 211.79 74.575 210.49 74.375 C 209.19 74.175 207.89 73.875 206.59 73.575 C 205.49 73.275 204.39 73.075 203.29 72.975 C 199.99 72.475 196.69 71.975 193.39 71.575 C 192.59 71.475 191.89 71.475 191.09 71.375 C 190.89 71.375 190.69 71.075 190.79 70.875 C 190.79 70.675 190.89 70.475 190.99 70.275 C 191.39 69.375 191.79 68.475 192.49 67.675 C 193.49 66.575 193.89 65.175 194.39 63.875 C 194.39 63.775 194.39 63.675 194.39 63.575 C 194.49 63.175 193.89 62.475 193.39 62.475 C 192.09 62.375 190.99 62.775 189.99 63.575 C 188.19 64.875 186.29 65.975 184.39 67.175 C 184.09 67.375 183.79 67.475 183.49 67.575 C 183.29 67.675 183.09 67.775 182.89 67.675 C 181.79 67.475 180.79 67.175 179.89 66.375 C 179.69 66.175 179.39 65.475 179.59 65.175 C 180.19 63.975 180.29 62.675 180.99 61.475 C 181.59 60.375 181.99 59.275 182.39 58.075 C 182.69 57.275 183.09 56.475 183.39 55.575 C 183.79 54.375 184.19 53.275 184.39 52.075 C 184.99 49.275 185.69 46.475 186.69 43.775 C 187.59 41.375 188.09 38.875 188.79 36.475 C 188.99 35.875 189.09 35.175 189.19 34.475 C 189.29 33.975 190.19 30.975 190.29 30.375 C 190.49 29.875 190.69 29.375 190.79 28.775 C 191.39 25.275 192.49 22.175 193.79 18.275 C 193.99 17.775 194.19 17.275 194.29 16.675 C 194.69 14.775 195.69 13.175 196.29 11.375 C 196.39 11.075 196.59 10.775 196.79 10.475 C 197.49 9.375 198.19 8.175 198.89 7.075 C 199.79 5.575 200.99 4.275 202.39 3.075 C 202.69 2.775 203.19 2.575 203.59 2.575 C 204.29 2.475 204.89 2.375 205.59 2.375 C 208.29 2.475 210.89 2.775 213.39 3.675 C 213.69 3.775 214.09 3.875 214.29 3.975 C 216.29 5.175 218.59 5.675 220.79 6.575 C 221.59 6.975 222.49 6.875 223.29 7.375 C 223.89 7.775 224.69 7.975 225.49 8.175 C 226.49 8.575 227.69 8.575 228.69 9.075 C 229.59 9.575 230.49 9.975 231.29 10.475 C 231.89 10.775 232.49 11.075 233.09 11.375 C 234.99 12.075 236.69 12.975 238.39 14.175 C 240.29 15.275 242.19 16.175 243.99 17.175 L 243.89 17.075 L 243.99 17.175 Z " fill-rule="evenodd" fill="rgb(0,180,203)"/><path d=" M 51.49 61.675 C 51.49 60.775 51.59 60.375 51.59 59.975 C 51.69 57.375 51.99 54.875 52.99 52.475 C 53.39 50.275 54.39 48.275 55.49 46.375 C 56.59 44.375 57.79 42.575 59.49 41.075 C 60.29 40.375 60.99 39.475 61.89 38.775 C 62.39 38.375 62.79 37.775 63.29 37.375 C 63.59 37.075 63.79 36.675 64.19 36.375 C 66.09 34.675 68.29 33.275 70.49 32.175 C 71.29 31.775 72.09 31.475 72.89 31.075 C 73.59 30.775 74.39 30.575 75.09 30.475 C 76.39 30.375 77.69 30.075 78.99 29.675 C 82.79 28.575 86.69 28.575 90.49 29.475 C 92.29 29.875 94.19 30.275 96.09 30.475 C 96.69 30.575 97.19 30.775 97.59 31.075 C 98.29 31.575 98.99 32.075 99.69 32.675 C 101.29 33.875 102.89 35.075 104.39 36.375 C 105.19 37.075 105.79 37.875 106.19 38.675 C 106.69 39.675 107.19 40.675 107.69 41.575 C 108.09 42.275 108.29 42.975 108.39 43.775 C 108.59 44.775 108.89 45.675 109.09 46.675 C 109.39 47.675 109.49 48.675 109.49 49.675 C 109.69 51.575 109.49 53.475 108.89 55.275 C 108.39 56.675 108.19 58.075 107.59 59.375 C 106.79 61.275 105.79 63.175 104.89 65.075 C 104.89 65.175 104.79 65.275 104.69 65.375 C 102.89 67.575 101.29 70.075 99.09 71.975 C 97.69 73.175 96.09 74.275 94.49 75.175 C 92.99 75.975 91.59 76.675 90.09 77.475 C 89.59 77.675 89.09 77.975 88.59 78.075 C 86.19 78.775 83.99 79.575 81.69 80.575 C 79.69 81.475 77.69 81.875 75.59 82.175 C 73.79 82.375 72.09 82.475 70.29 82.775 C 69.89 82.875 69.39 82.875 68.99 82.775 C 67.49 82.475 65.89 82.375 64.49 81.875 C 62.89 81.375 61.39 80.875 59.99 79.775 C 59.49 79.375 58.89 78.975 58.29 78.675 C 56.59 77.675 55.39 76.375 54.39 74.675 C 53.59 73.375 52.69 72.075 52.19 70.575 C 51.99 69.975 51.79 69.275 51.69 68.675 C 51.59 66.875 51.39 65.175 51.29 63.375 C 51.49 62.575 51.49 61.875 51.49 61.675 Z " fill-rule="evenodd" fill="rgb(255,255,255)"/><path d=" M 118.49 85.075 C 114.59 84.975 111.59 84.475 108.59 83.675 C 108.19 83.575 107.69 83.375 107.39 83.175 C 106.69 82.775 106.09 82.375 105.29 82.075 C 104.79 81.875 104.29 81.575 103.89 81.175 C 102.49 79.875 101.09 78.675 99.49 77.575 C 98.99 77.275 98.69 76.875 98.39 76.375 C 98.19 76.075 98.29 75.675 98.49 75.475 C 98.69 75.375 98.79 75.175 98.99 75.075 C 100.99 73.875 102.59 72.175 103.99 70.275 C 104.79 69.175 105.69 68.275 106.39 67.075 C 106.99 66.075 107.39 64.875 107.99 63.775 C 108.59 62.675 108.99 61.575 109.49 60.475 C 110.49 58.275 111.09 55.875 111.59 53.475 C 111.69 53.075 111.79 52.575 111.79 52.175 C 111.89 48.575 111.49 45.075 110.19 41.775 C 109.99 41.175 109.59 40.575 109.39 39.975 C 108.99 39.075 108.59 38.175 108.19 37.275 C 107.99 36.875 108.29 36.375 108.59 36.075 C 111.29 34.475 113.99 33.075 116.99 32.175 C 117.69 31.975 118.49 31.775 119.29 31.675 C 120.39 31.575 121.49 31.375 122.59 31.175 C 124.59 30.875 126.59 31.075 128.49 31.775 C 129.99 32.275 131.39 32.875 132.89 33.375 C 133.69 33.675 134.49 34.075 135.19 34.675 C 137.19 36.175 139.19 37.875 141.09 39.575 C 142.29 40.575 143.09 41.875 143.89 43.275 C 144.09 43.675 144.29 44.075 144.39 44.475 C 144.69 45.775 144.89 47.075 144.99 48.375 C 144.99 48.675 144.99 49.075 144.89 49.375 C 144.59 51.175 144.49 52.875 144.49 54.675 C 144.49 55.375 144.49 55.975 144.39 56.675 C 144.29 57.175 144.29 57.775 144.09 58.275 C 143.29 61.475 142.19 64.675 140.79 67.675 C 139.29 70.775 137.69 73.775 135.79 76.675 C 135.39 77.375 134.89 77.975 134.39 78.475 C 132.79 80.075 131.09 81.475 128.99 82.375 C 128.69 82.475 128.39 82.675 128.09 82.875 C 125.39 84.275 125.39 84.275 122.49 84.775 C 121.09 84.875 119.39 84.975 118.49 85.075 Z " fill-rule="evenodd" fill="rgb(255,255,255)"/><path d=" M 63.09 124.975 C 63.79 124.475 64.49 123.975 65.29 123.475 C 65.99 122.975 66.29 122.375 66.39 121.575 C 66.49 120.575 66.49 119.575 66.49 118.575 C 66.49 117.675 66.69 116.775 66.89 115.975 C 67.19 114.875 67.99 114.075 69.09 113.675 C 69.39 113.575 69.79 113.575 70.09 113.475 C 72.59 112.575 75.29 112.275 77.99 112.275 C 79.29 112.275 80.59 112.075 81.89 111.775 C 82.29 111.675 82.79 111.675 83.19 111.875 C 83.49 111.975 83.79 112.275 83.79 112.575 C 83.79 112.875 83.79 113.275 83.59 113.475 C 82.89 114.075 82.19 114.575 81.49 115.075 C 80.59 115.675 79.99 116.375 79.39 117.175 C 78.69 118.175 77.99 119.175 77.49 120.275 C 77.29 120.775 77.19 121.375 77.39 121.875 C 77.59 122.375 77.79 122.875 77.89 123.475 C 77.99 124.175 78.69 124.475 79.39 124.275 C 80.99 123.875 82.49 123.175 83.99 122.375 C 85.59 121.475 86.99 120.575 88.49 119.475 C 88.79 119.275 89.39 119.275 89.69 119.575 C 90.29 120.175 90.39 120.975 90.29 121.775 C 90.19 122.275 89.89 122.775 89.69 123.275 C 89.19 124.475 88.69 125.675 88.39 127.075 C 88.19 128.175 87.69 129.175 87.09 130.175 C 86.79 130.775 86.59 131.375 86.39 132.075 C 86.29 132.375 86.19 132.675 86.09 132.975 C 85.59 134.075 84.69 134.675 83.49 134.775 C 82.49 134.775 81.49 134.775 80.49 134.875 C 78.59 135.175 76.69 134.775 74.99 133.975 C 74.39 133.675 73.69 133.575 73.09 133.575 C 71.99 133.575 70.89 133.775 69.89 134.375 C 68.79 135.075 67.59 135.775 66.49 136.375 C 64.79 137.275 63.39 138.575 62.19 140.075 C 61.19 141.375 60.09 142.675 58.99 143.875 C 56.69 146.575 54.89 149.675 53.39 152.875 C 52.99 154.275 52.19 155.475 51.19 156.475 C 50.99 156.675 50.89 156.775 50.69 156.975 C 48.49 157.475 46.09 157.675 43.79 157.775 C 42.79 157.775 41.79 157.775 40.79 157.875 C 38.79 157.875 36.79 158.075 34.89 158.475 C 34.29 158.675 33.59 158.675 32.89 158.575 C 32.39 158.475 32.09 158.275 31.89 157.875 C 31.89 157.775 31.79 157.675 31.79 157.575 C 31.59 157.175 31.59 156.575 31.99 156.375 C 32.89 155.775 33.39 154.975 34.19 154.275 C 34.49 154.175 34.79 154.075 35.19 154.075 C 37.29 153.875 38.99 152.975 40.59 151.575 C 41.39 150.975 41.59 150.175 41.39 149.175 C 41.39 148.975 41.19 148.675 41.09 148.575 C 40.39 148.175 39.79 147.775 39.09 147.375 C 37.59 146.675 37.09 146.775 35.69 147.575 C 34.69 148.075 33.79 148.775 33.19 149.675 C 32.79 150.275 32.29 150.975 31.69 151.475 C 31.19 151.975 30.89 152.475 30.59 153.075 C 30.39 153.475 29.89 153.675 29.49 153.675 C 28.49 153.675 27.49 153.375 26.69 152.875 C 26.19 152.575 25.89 152.075 25.89 151.475 C 25.89 151.075 25.99 150.575 25.99 150.175 C 25.99 149.775 26.09 149.275 25.89 148.875 C 25.29 147.575 25.49 146.275 25.59 144.975 C 25.69 143.575 25.99 142.075 26.59 140.775 C 26.79 140.375 26.89 139.975 27.09 139.575 C 27.39 138.975 27.79 138.475 28.39 138.175 C 29.59 137.575 30.69 136.875 31.99 136.375 C 33.49 135.775 34.89 135.175 36.29 134.575 C 36.69 134.375 37.09 134.275 37.59 134.175 C 37.99 134.075 38.59 133.975 38.89 134.275 C 40.49 135.475 42.29 135.875 44.19 136.175 C 44.39 136.175 44.59 136.275 44.89 136.275 C 45.09 136.275 45.39 136.275 45.49 136.175 C 46.29 135.775 46.99 135.275 47.79 134.775 C 47.99 134.675 47.99 134.375 47.89 134.175 C 47.79 134.075 47.79 133.975 47.69 133.875 C 45.59 132.375 43.79 130.575 42.29 128.475 C 41.59 127.475 40.59 126.775 39.99 125.675 C 39.49 124.675 38.89 123.775 38.39 122.775 C 37.69 121.475 37.09 120.175 36.39 118.975 C 36.19 118.675 36.39 118.075 36.69 117.775 C 37.09 117.475 37.59 117.175 37.99 116.775 C 38.29 116.475 38.59 116.175 38.89 115.775 C 39.09 115.375 39.39 115.075 39.79 114.875 C 40.79 114.375 41.69 113.675 42.59 113.175 C 43.99 112.375 45.49 111.475 46.99 110.775 C 48.19 110.175 49.39 109.575 50.39 108.775 C 50.89 108.375 51.89 108.575 52.09 109.175 C 52.39 109.875 52.79 110.575 52.79 111.375 C 52.89 112.375 52.99 113.375 53.09 114.375 C 53.29 117.275 53.99 120.075 54.59 122.875 C 54.89 124.375 55.29 125.875 55.69 127.375 C 55.79 127.675 55.99 127.975 56.09 128.275 C 56.19 128.475 56.69 128.775 56.99 128.675 C 57.09 128.675 57.19 128.675 57.29 128.575 C 58.29 128.075 59.39 127.675 60.29 127.175 C 60.99 126.675 61.79 126.275 62.49 125.775 C 62.59 125.675 62.89 125.275 63.09 124.975 L 63.29 124.875 L 63.09 124.975 Z " fill-rule="evenodd" fill="rgb(0,0,0)"/><path d=" M 11.89 98.875 C 11.99 99.175 11.99 99.575 11.89 99.875 C 11.29 101.075 10.79 102.275 10.29 103.575 C 9.89 104.875 9.59 106.175 9.69 107.475 C 9.69 109.375 9.79 111.275 10.49 113.075 C 10.49 113.175 10.49 113.275 10.49 113.375 C 10.59 113.675 10.39 113.975 9.99 114.075 C 9.69 114.175 9.59 114.075 9.39 113.875 C 9.09 113.375 8.89 112.875 8.79 112.375 C 8.49 110.375 8.49 108.375 8.49 106.375 C 8.49 106.175 8.49 105.975 8.59 105.675 C 9.19 103.375 9.79 101.175 11.29 99.275 C 11.49 99.075 11.79 98.975 11.89 98.875 L 11.89 98.875 Z " fill-rule="evenodd" fill="rgb(0,0,0)"/><path d=" M 8.29 143.275 C 7.89 145.875 8.19 147.775 9.19 149.575 C 9.69 150.475 10.29 151.275 11.09 151.875 C 11.59 152.275 12.19 152.675 12.69 153.075 C 12.89 153.275 12.89 153.475 12.69 153.575 C 12.59 153.675 12.49 153.675 12.39 153.675 C 12.09 153.575 11.69 153.575 11.49 153.475 C 10.59 152.975 9.89 152.275 9.29 151.575 C 9.09 151.375 8.89 151.075 8.79 150.775 C 8.39 149.875 7.89 148.975 7.59 148.075 C 7.09 146.475 6.99 144.875 7.19 143.175 C 7.19 142.775 7.49 142.375 7.59 141.975 C 7.69 141.775 7.99 141.675 8.19 141.875 C 8.39 141.975 8.49 142.175 8.59 142.375 C 8.69 142.575 8.59 142.775 8.59 142.975 C 8.29 143.175 8.19 143.475 8.29 143.275 Z " fill-rule="evenodd" fill="rgb(0,0,0)"/><path d=" M 161.89 152.275 C 161.79 152.475 161.69 152.675 161.49 152.775 C 161.09 153.175 160.69 153.575 160.29 153.875 C 157.09 156.075 153.79 157.975 150.09 159.275 C 149.09 159.575 148.19 159.775 147.19 159.575 C 146.89 159.475 146.79 159.375 146.89 159.075 C 146.89 158.975 146.99 158.875 146.99 158.775 C 147.09 158.675 147.19 158.675 147.29 158.575 C 147.59 158.475 147.89 158.375 148.29 158.275 C 152.09 157.475 155.59 155.975 158.79 153.775 C 159.49 153.275 160.19 152.775 160.99 152.275 C 161.29 152.175 161.59 152.175 161.89 152.275 L 161.89 152.275 Z " fill-rule="evenodd" fill="rgb(0,0,0)"/><path d=" M 156.19 66.775 C 155.39 66.575 154.49 66.475 153.69 66.275 C 151.79 65.775 149.79 65.475 147.79 65.275 C 147.59 65.275 147.39 65.175 147.19 65.075 C 146.99 64.975 146.89 64.775 146.79 64.575 C 146.69 64.375 147.09 63.875 147.39 63.875 C 147.49 63.875 147.59 63.875 147.69 63.875 C 148.49 63.975 149.19 64.075 149.99 64.275 C 150.49 64.375 151.09 64.475 151.59 64.675 C 152.99 65.175 154.29 65.575 155.69 65.875 C 155.89 65.875 156.09 66.075 156.29 66.175 C 156.59 66.275 156.99 66.675 156.89 66.775 C 156.69 66.675 156.49 66.675 156.19 66.775 Z " fill-rule="evenodd" fill="rgb(0,0,0)"/><path d=" M 16.39 99.475 C 16.49 99.775 16.59 100.075 16.49 100.375 C 16.49 100.475 16.39 100.575 16.39 100.675 C 14.89 103.175 14.29 105.975 14.49 108.875 C 14.49 109.075 14.29 109.275 14.09 109.275 C 13.99 109.275 13.89 109.275 13.79 109.175 C 13.59 109.075 13.49 108.875 13.39 108.675 C 13.19 108.075 12.99 107.375 13.19 106.775 C 13.59 104.375 14.39 102.075 15.99 100.175 C 16.09 99.875 16.29 99.675 16.39 99.475 C 16.49 99.375 16.39 99.475 16.39 99.475 Z " fill-rule="evenodd" fill="rgb(0,0,0)"/><path d=" M 61.89 168.775 C 61.59 168.875 61.19 168.875 60.89 168.775 C 60.19 168.375 59.59 167.975 59.09 167.375 C 57.99 166.275 57.09 165.075 56.19 163.675 C 56.09 163.575 56.09 163.475 56.09 163.375 C 55.99 163.175 56.09 162.475 56.29 162.475 C 56.49 162.475 56.79 162.575 56.89 162.775 C 57.19 163.175 57.59 163.675 57.79 164.175 C 58.49 165.375 59.49 166.475 60.49 167.475 C 60.89 167.875 61.29 168.175 61.69 168.575 C 61.89 168.575 61.89 168.775 61.89 168.775 L 61.89 168.775 Z " fill-rule="evenodd" fill="rgb(0,0,0)"/><path d=" M 69.39 168.975 C 69.39 169.075 69.29 169.175 69.29 169.175 C 68.99 169.375 68.69 169.375 68.29 169.275 C 65.89 168.275 63.79 166.775 62.09 164.975 C 61.99 164.875 61.89 164.775 61.89 164.675 C 61.89 164.475 61.89 164.275 61.99 164.075 C 62.09 163.775 62.29 163.775 62.49 163.975 C 63.19 164.575 63.79 165.175 64.49 165.775 C 65.79 167.075 67.29 167.975 68.99 168.575 C 69.19 168.575 69.29 168.875 69.39 168.975 Z " fill-rule="evenodd" fill="rgb(0,0,0)"/><path d=" M 36.59 60.275 C 36.59 59.775 36.69 59.375 37.09 59.075 C 37.29 58.875 37.59 58.575 37.79 58.375 C 39.49 57.375 41.39 56.675 43.39 56.375 C 43.59 56.375 43.79 56.375 44.09 56.475 C 44.39 56.475 44.69 56.975 44.59 57.275 C 44.59 57.475 44.39 57.675 44.19 57.675 C 43.89 57.775 43.49 57.775 43.19 57.775 C 42.69 57.775 42.19 57.775 41.79 57.875 C 40.09 58.175 38.59 58.675 37.39 59.975 C 37.09 60.175 36.79 60.275 36.59 60.275 L 36.59 60.275 Z " fill-rule="evenodd" fill="rgb(0,0,0)"/><path d=" M 159.79 150.175 C 159.69 150.375 159.69 150.675 159.49 150.775 C 157.99 151.875 156.29 152.675 154.49 153.375 C 153.69 153.675 152.79 153.775 151.89 153.975 C 151.69 153.975 151.49 153.875 151.39 153.675 C 151.29 153.375 151.49 153.175 151.69 153.175 C 154.09 152.675 156.29 151.675 158.39 150.575 C 158.99 150.275 159.39 150.175 159.79 150.175 C 159.89 150.175 159.79 150.175 159.79 150.175 Z " fill-rule="evenodd" fill="rgb(0,0,0)"/><path d=" M 155.79 70.275 C 155.09 70.175 154.49 70.175 153.79 70.075 C 152.29 69.675 150.79 69.475 149.19 69.475 C 148.89 69.475 148.59 69.275 148.29 69.075 C 148.19 69.075 148.19 68.875 148.19 68.775 C 148.09 68.575 148.19 68.375 148.49 68.375 C 149.29 68.175 149.99 68.275 150.79 68.375 C 152.29 68.675 153.79 68.975 155.19 69.675 C 155.59 69.775 155.79 69.975 155.79 70.275 L 155.79 70.275 Z " fill-rule="evenodd" fill="rgb(0,0,0)"/><path d=" M 37.99 63.575 C 37.89 62.975 38.19 62.475 38.59 62.075 C 39.19 61.475 39.89 60.975 40.69 60.575 C 41.59 60.175 42.59 59.975 43.59 60.075 C 43.89 60.075 43.99 60.275 43.99 60.475 C 43.99 60.575 43.89 60.675 43.79 60.775 C 43.59 60.875 43.39 60.975 43.19 60.975 C 41.39 61.475 39.69 62.175 38.29 63.375 C 38.19 63.575 37.99 63.475 37.99 63.575 L 37.99 63.575 Z " fill-rule="evenodd" fill="rgb(0,0,0)"/><path d=" M 173.29 98.075 C 173.09 98.075 172.89 98.175 172.69 98.175 C 172.49 98.175 172.29 97.975 172.09 97.875 C 170.89 96.775 169.49 95.875 167.89 95.375 C 167.69 95.275 167.59 95.075 167.49 94.875 C 167.39 94.675 167.49 94.475 167.69 94.375 C 167.99 94.375 168.39 94.375 168.59 94.475 C 170.59 95.275 172.09 96.475 173.29 98.075 L 173.29 98.075 Z " fill-rule="evenodd" fill="rgb(0,0,0)"/><path d=" M 172.09 102.775 C 172.19 102.975 172.39 103.575 172.59 104.175 C 172.59 104.275 172.49 104.375 172.49 104.475 C 172.39 104.475 172.29 104.575 172.19 104.475 C 171.99 104.375 171.89 104.175 171.79 103.975 C 170.99 102.675 170.29 101.275 169.49 99.975 C 169.39 99.775 169.49 99.475 169.69 99.375 C 169.89 99.275 170.09 99.275 170.29 99.475 C 170.49 99.675 170.79 99.975 170.89 100.275 C 171.29 100.975 171.59 101.675 172.09 102.775 Z " fill-rule="evenodd" fill="rgb(0,0,0)"/><path d=" M 13.89 150.875 C 13.59 150.875 13.29 150.775 12.99 150.575 C 12.79 150.475 12.69 150.275 12.59 150.075 C 11.69 148.775 11.09 147.375 11.09 145.775 C 11.09 145.475 11.19 145.175 11.29 144.775 C 11.39 144.475 11.59 144.375 11.69 144.575 C 11.79 144.675 11.89 144.675 11.89 144.775 C 11.99 144.875 11.99 144.975 11.99 145.075 C 12.19 146.975 12.69 148.775 13.79 150.375 C 13.99 150.475 13.89 150.775 13.89 150.875 L 13.89 150.875 Z " fill-rule="evenodd" fill="rgb(0,0,0)"/><path d=" M 175.89 102.875 C 175.79 102.875 175.69 102.875 175.59 102.775 C 175.49 102.775 175.39 102.675 175.39 102.575 C 174.79 101.475 174.09 100.375 173.49 99.275 C 173.39 99.075 173.29 98.875 173.19 98.675 C 173.19 98.475 173.29 98.275 173.29 98.075 L 173.19 98.175 C 174.29 99.075 175.09 100.275 175.69 101.575 C 175.89 101.975 175.89 102.475 175.89 102.875 L 175.89 102.875 Z " fill-rule="evenodd" fill="rgb(0,0,0)"/><path d=" M 61.89 168.875 C 61.99 168.875 62.09 168.875 62.19 168.875 C 62.89 169.175 65.39 170.575 66.39 171.275 C 66.49 171.375 66.49 171.475 66.49 171.575 L 66.59 171.475 C 65.99 171.475 65.49 171.375 64.99 171.175 C 63.99 170.675 62.99 170.175 62.19 169.375 C 61.99 169.275 61.99 168.975 61.89 168.875 L 61.89 168.875 Z " fill-rule="evenodd" fill="rgb(0,0,0)"/><path d=" M 66.49 171.575 C 66.89 171.475 67.39 171.475 67.79 171.675 C 68.59 171.975 69.39 172.275 70.19 172.475 C 69.79 172.875 69.19 172.775 68.69 172.675 C 67.99 172.575 67.29 172.275 66.69 171.775 C 66.59 171.675 66.59 171.575 66.49 171.575 L 66.49 171.575 Z " fill-rule="evenodd" fill="rgb(0,0,0)"/><path d=" M 11.89 98.875 C 12.09 97.775 12.79 96.875 13.69 96.175 C 13.79 96.075 13.89 96.075 13.99 96.075 C 14.29 96.175 14.29 96.375 14.09 96.575 C 13.49 97.275 12.99 97.975 12.39 98.575 C 12.29 98.875 12.09 98.875 11.89 98.875 L 11.89 98.875 Z " fill-rule="evenodd" fill="rgb(0,0,0)"/><path d=" M 164.69 149.675 C 164.69 149.475 164.59 149.275 164.69 149.075 C 164.79 148.875 164.89 148.875 164.89 149.075 C 164.89 149.275 164.79 149.475 164.69 149.675 L 164.69 149.675 Z " fill-rule="evenodd" fill="rgb(0,0,0)"/><path d=" M 175.79 102.875 C 175.99 102.875 176.19 102.975 176.19 103.175 C 176.29 103.475 176.19 103.575 175.89 103.575 C 175.79 103.575 175.79 103.475 175.69 103.375 C 175.69 103.175 175.79 102.975 175.79 102.875 L 175.79 102.875 Z " fill-rule="evenodd" fill="rgb(0,0,0)"/><path d=" M 36.49 60.175 C 36.59 60.375 36.69 60.575 36.59 60.775 C 36.49 61.075 36.39 61.175 36.19 60.975 C 36.09 60.875 36.19 60.775 36.19 60.675 C 36.19 60.375 36.29 60.275 36.49 60.175 L 36.49 60.175 Z " fill-rule="evenodd" fill="rgb(0,0,0)"/><path d=" M 164.59 149.575 C 164.39 149.875 164.19 150.175 163.79 150.075 L 163.89 150.175 C 163.99 149.775 164.19 149.575 164.59 149.575 L 164.59 149.575 Z " fill-rule="evenodd" fill="rgb(0,0,0)"/><path d=" M 160.49 149.475 C 160.39 150.075 160.39 150.075 159.79 150.175 C 159.79 150.175 159.89 150.275 159.89 150.275 C 159.89 149.575 159.89 149.575 160.49 149.475 L 160.49 149.475 Z " fill-rule="evenodd" fill="rgb(0,0,0)"/><path d=" M 161.99 152.275 C 161.89 151.675 161.89 151.675 162.59 151.475 L 162.49 151.375 C 162.49 151.975 162.19 152.175 161.99 152.275 L 161.99 152.275 Z " fill-rule="evenodd" fill="rgb(0,0,0)"/><path d=" M 160.49 149.575 C 160.49 149.075 160.49 149.075 161.09 148.875 L 160.99 148.775 C 161.09 149.375 161.09 149.375 160.49 149.575 L 160.49 149.575 Z " fill-rule="evenodd" fill="rgb(0,0,0)"/><path d=" M 16.49 99.375 C 16.79 99.675 16.19 99.575 16.59 99.475 C 16.69 99.475 16.59 99.375 16.49 99.375 L 16.49 99.375 Z " fill-rule="evenodd" fill="rgb(0,0,0)"/><path d=" M 161.09 148.875 C 161.19 148.675 161.29 148.575 161.39 148.675 C 161.39 148.775 161.29 148.775 161.29 148.875 C 161.19 148.775 161.19 148.775 161.09 148.875 L 161.09 148.875 Z " fill-rule="evenodd" fill="rgb(0,0,0)"/><path d=" M 155.69 70.375 C 155.79 70.375 155.89 70.375 155.89 70.375 C 155.99 70.475 155.99 70.475 155.69 70.375 L 155.69 70.375 Z " fill-rule="evenodd" fill="rgb(0,0,0)"/><path d=" M 162.49 151.575 C 162.49 151.175 162.69 150.975 162.99 150.775 L 162.89 150.675 C 163.09 151.275 163.09 151.275 162.49 151.575 L 162.49 151.575 Z " fill-rule="evenodd" fill="rgb(0,0,0)"/><path d=" M 37.89 63.475 L 37.89 63.675 L 37.99 63.575 L 37.89 63.475 Z " fill-rule="evenodd" fill="rgb(0,0,0)"/><path d=" M 13.89 150.975 L 14.09 150.875 L 13.89 150.875 L 13.89 150.975 Z " fill-rule="evenodd" fill="rgb(0,0,0)"/><path d=" M 163.79 150.075 C 163.69 150.775 163.59 150.775 162.99 150.675 L 163.09 150.775 C 163.19 150.475 163.49 150.175 163.79 150.075 L 163.79 150.075 Z " fill-rule="evenodd" fill="rgb(0,0,0)"/><path d=" M 207.29 29.475 C 207.19 29.775 207.19 30.075 206.99 30.375 C 206.79 30.675 206.59 30.875 206.39 31.175 C 203.99 33.475 201.79 35.975 199.99 38.775 C 199.49 39.575 198.89 40.175 198.39 40.875 C 198.19 41.175 197.79 41.075 197.59 40.675 C 197.39 40.375 197.19 40.075 197.09 39.775 C 196.39 38.175 195.99 36.375 195.59 34.675 C 195.39 33.775 195.09 32.975 194.59 32.275 C 194.49 32.175 194.49 32.075 194.49 31.975 C 194.39 31.775 194.59 31.175 194.79 31.075 C 195.09 30.875 195.49 30.875 195.69 31.075 C 196.29 31.475 196.69 31.975 196.99 32.575 C 197.39 33.375 197.69 34.175 198.09 34.975 C 198.29 35.375 198.89 35.475 199.19 35.075 C 199.29 34.875 199.49 34.775 199.59 34.575 C 199.79 34.275 199.89 33.975 200.09 33.675 C 200.89 32.375 201.89 31.175 203.39 30.475 C 204.29 30.075 205.09 29.375 205.89 28.875 C 206.19 28.675 206.59 28.675 206.89 28.875 C 207.09 29.075 207.19 29.275 207.29 29.475 Z " fill-rule="evenodd" fill="rgb(0,0,0)"/><path d=" M 201.49 24.675 C 201.39 24.575 201.19 24.575 201.19 24.575 C 200.99 24.475 200.79 24.275 200.69 24.075 C 199.89 21.875 199.29 19.675 198.79 17.375 C 198.69 17.075 198.99 16.775 199.19 16.575 C 199.39 16.375 199.99 16.475 200.09 16.675 C 200.29 17.075 200.49 17.475 200.69 17.775 C 200.99 18.275 200.99 18.875 201.39 19.275 C 201.49 19.375 201.79 19.575 201.99 19.475 C 202.79 19.275 203.49 18.975 203.99 18.375 C 205.09 17.075 206.59 16.275 207.99 15.475 C 209.29 14.675 210.69 13.975 211.99 13.175 C 212.09 13.075 212.69 13.375 212.79 13.675 C 212.89 13.875 212.89 14.175 212.69 14.275 C 212.49 14.475 212.19 14.675 211.89 14.875 C 210.79 15.475 209.89 16.175 208.99 17.075 C 207.39 18.575 205.79 20.175 204.29 21.675 C 203.49 22.475 202.89 23.375 202.19 24.175 C 202.09 24.475 201.79 24.575 201.49 24.675 Z " fill-rule="evenodd" fill="rgb(0,0,0)"/><path d=" M 199.79 46.875 C 199.79 47.075 199.79 47.375 199.69 47.475 C 199.59 47.775 199.39 48.075 199.09 48.275 C 197.49 49.975 195.99 51.775 194.79 53.675 C 194.39 54.275 193.99 54.675 193.49 55.175 C 193.29 55.375 192.79 55.375 192.59 55.175 C 191.59 54.175 191.09 52.975 190.69 51.775 C 190.39 50.875 190.19 49.875 189.99 48.875 C 189.89 48.675 190.19 48.175 190.39 48.075 C 190.79 47.875 191.39 47.975 191.59 48.275 C 191.89 48.875 192.19 49.475 192.59 49.975 C 192.79 50.275 193.49 50.375 193.79 50.075 C 194.79 49.075 195.89 48.075 196.89 47.075 C 197.19 46.775 197.59 46.475 197.99 46.375 C 198.49 46.175 198.99 46.075 199.59 46.275 C 199.69 46.475 199.79 46.675 199.79 46.875 Z " fill-rule="evenodd" fill="rgb(0,0,0)"/><path d=" M 229.89 23.075 C 229.89 23.575 229.19 24.275 228.79 24.275 C 228.69 24.275 228.59 24.275 228.49 24.275 C 226.29 23.975 224.09 23.675 221.89 23.275 C 219.39 22.875 216.89 22.375 214.39 21.675 C 214.09 21.575 213.79 21.475 213.49 21.275 C 213.19 21.175 213.09 20.775 213.09 20.475 C 213.09 20.175 213.49 19.775 213.69 19.775 C 213.89 19.775 214.09 19.775 214.39 19.775 C 214.79 19.875 215.29 19.975 215.69 20.075 C 217.19 20.475 218.69 20.775 220.29 20.775 C 220.99 20.775 221.59 20.875 222.29 20.975 C 223.89 21.275 225.59 21.575 227.19 21.575 C 227.99 21.575 228.69 21.775 229.39 22.175 C 229.69 22.475 229.69 22.875 229.89 23.075 Z " fill-rule="evenodd" fill="rgb(0,0,0)"/><path d=" M 216.99 55.275 C 216.99 55.675 216.59 56.075 216.19 56.175 C 215.79 56.275 215.29 56.275 214.89 56.075 C 213.29 55.275 211.49 55.075 209.79 54.975 C 207.79 54.875 205.79 54.675 203.89 54.175 C 203.59 54.075 203.29 53.875 202.99 53.675 C 202.79 53.575 202.79 53.275 202.79 53.075 C 202.89 52.875 202.99 52.675 203.19 52.575 C 203.49 52.475 203.89 52.375 204.19 52.475 C 205.69 52.775 207.29 52.775 208.79 52.875 C 211.19 53.075 213.59 53.275 215.99 53.975 C 216.19 54.075 216.39 54.175 216.59 54.275 C 216.79 54.475 216.99 54.975 216.99 55.275 Z " fill-rule="evenodd" fill="rgb(0,0,0)"/><path d=" M 221.49 39.875 C 221.49 40.275 220.99 40.875 220.69 40.875 C 220.39 40.875 219.99 40.975 219.69 40.875 C 219.29 40.775 218.79 40.775 218.39 40.575 C 216.59 39.975 214.79 39.675 212.89 39.575 C 211.59 39.475 210.29 39.375 208.99 38.875 C 208.69 38.775 208.49 38.475 208.19 38.275 C 207.99 38.075 207.89 37.475 207.99 37.375 C 208.19 37.275 208.39 37.175 208.59 37.075 C 208.69 37.075 208.79 37.075 208.89 37.075 C 208.99 37.075 209.09 37.075 209.19 37.075 C 210.29 37.475 211.49 37.675 212.79 37.675 C 214.69 37.675 216.49 38.175 218.29 38.475 C 219.09 38.875 220.09 38.675 220.79 39.075 C 221.19 39.275 221.29 39.675 221.49 39.875 Z " fill-rule="evenodd" fill="rgb(0,0,0)"/><path d=" M 215.49 59.475 C 215.29 59.475 214.59 59.375 213.79 59.275 C 212.79 59.175 211.79 58.975 210.89 58.975 C 209.39 58.975 207.79 58.775 206.29 58.475 C 205.69 58.275 204.99 58.375 204.39 58.075 C 204.19 57.975 204.09 57.775 203.99 57.575 C 203.89 57.275 204.19 56.975 204.59 57.075 C 204.69 57.075 204.79 57.075 204.89 57.075 C 205.09 57.075 205.29 57.075 205.49 57.175 C 206.59 57.475 207.69 57.575 208.69 57.875 C 211.19 58.475 213.69 58.475 216.19 58.575 C 216.69 58.575 217.29 58.375 217.79 58.675 C 217.89 58.675 217.89 58.875 217.89 58.975 C 217.89 59.075 217.89 59.275 217.89 59.275 C 217.69 59.375 217.49 59.575 217.29 59.575 C 216.99 59.475 216.49 59.475 215.49 59.475 Z " fill-rule="evenodd" fill="rgb(0,0,0)"/><path d=" M 207.29 40.175 C 207.39 40.075 207.49 39.975 207.59 39.975 C 207.79 39.975 207.99 39.875 208.19 39.975 C 209.59 40.275 210.99 40.575 212.39 40.875 C 213.69 41.075 214.89 41.675 216.19 41.775 C 217.29 42.175 218.49 42.375 219.79 42.375 C 220.19 42.375 220.69 42.475 221.09 42.475 C 221.39 42.475 221.49 42.675 221.39 42.975 C 221.39 43.175 221.29 43.375 220.99 43.475 C 220.89 43.475 220.79 43.475 220.69 43.475 C 219.19 43.275 217.59 43.075 216.09 42.775 C 214.09 42.375 211.99 41.875 209.89 41.575 C 208.99 41.475 208.19 41.275 207.39 40.775 C 207.39 40.575 207.39 40.275 207.29 40.175 Z " fill-rule="evenodd" fill="rgb(0,0,0)"/><path d=" M 225.09 26.975 C 223.69 26.975 221.99 26.875 220.19 26.575 C 219.39 26.475 218.69 26.475 217.89 26.375 C 216.89 26.275 215.89 26.175 214.89 26.075 C 214.59 26.075 214.19 25.575 214.29 25.375 C 214.39 25.175 214.59 25.075 214.79 24.975 C 215.39 24.775 216.09 24.775 216.79 24.975 C 217.49 25.175 218.29 25.375 219.09 25.375 C 222.29 25.675 225.39 26.175 228.59 26.375 C 228.69 26.375 228.89 26.575 228.99 26.775 C 228.89 26.875 228.79 26.975 228.69 26.975 C 228.39 27.075 228.09 27.075 227.69 27.075 C 226.99 27.075 226.29 27.075 225.09 26.975 Z " fill-rule="evenodd" fill="rgb(0,0,0)"/><path d=" M 218.19 46.175 C 216.89 45.975 215.59 45.775 214.29 45.575 C 212.99 45.275 211.69 44.975 210.39 44.675 C 210.19 44.675 209.99 44.475 209.79 44.375 C 209.69 44.275 209.59 43.975 209.49 43.775 C 209.69 43.675 209.89 43.575 210.09 43.575 C 210.39 43.575 210.79 43.675 211.09 43.675 C 212.29 43.975 213.49 44.175 214.59 44.475 C 216.09 44.875 217.69 44.975 219.19 45.075 C 219.29 45.075 219.39 45.175 219.39 45.275 C 219.49 45.575 219.39 45.775 219.09 45.775 C 218.79 46.075 218.49 46.075 218.19 46.175 Z " fill-rule="evenodd" fill="rgb(0,0,0)"/><path d=" M 223.59 29.575 C 223.19 29.575 222.19 29.475 221.19 29.375 C 219.69 29.175 218.09 28.975 216.59 28.675 C 216.39 28.675 216.29 28.475 216.09 28.275 C 215.89 28.075 215.99 27.875 216.19 27.775 C 216.49 27.575 216.79 27.575 217.19 27.675 C 218.39 27.775 219.49 28.375 220.79 28.375 C 221.89 28.375 222.99 28.575 224.09 28.775 C 224.59 28.875 225.19 28.975 225.69 29.075 C 225.99 29.075 226.09 29.175 226.19 29.375 C 226.19 29.575 226.09 29.675 225.79 29.675 C 225.29 29.575 224.69 29.575 223.59 29.575 Z " fill-rule="evenodd" fill="rgb(0,0,0)"/><path d=" M 212.79 62.375 C 211.09 62.175 209.49 62.175 207.99 61.775 C 207.79 61.675 207.69 61.475 207.69 61.275 C 207.69 61.175 207.79 61.075 207.89 60.975 C 208.09 60.875 208.29 60.775 208.49 60.775 C 209.29 60.775 210.09 60.775 210.79 60.975 C 212.29 61.375 213.79 61.575 215.39 61.675 C 215.49 61.675 215.59 61.775 215.59 61.875 C 215.59 61.875 215.49 62.075 215.49 62.075 C 215.19 62.175 214.89 62.375 214.59 62.375 C 213.89 62.475 213.29 62.375 212.79 62.375 Z " fill-rule="evenodd" fill="rgb(0,0,0)"/><path d=" M 243.99 17.175 L 243.79 17.075 L 244.09 17.175 L 243.99 17.175 Z " fill-rule="evenodd" fill="rgb(0,0,0)"/><path d=" M 83.59 58.175 C 82.59 58.175 81.59 57.875 80.79 57.275 C 80.39 56.975 79.89 56.575 79.49 56.275 C 78.99 55.875 78.59 55.275 78.49 54.575 C 78.49 54.375 78.39 54.175 78.39 53.875 C 78.09 52.575 78.39 51.475 79.19 50.475 C 79.49 50.175 79.79 49.775 80.09 49.575 C 81.09 48.975 81.99 48.375 82.89 47.775 C 83.49 47.275 84.29 47.175 85.09 47.175 C 85.89 47.175 86.59 47.375 87.39 47.575 C 88.49 47.875 89.39 48.475 89.99 49.475 C 90.29 49.975 90.49 50.475 90.49 50.975 C 90.49 51.375 90.49 51.875 90.49 52.275 C 90.39 52.975 90.19 53.575 89.79 54.075 C 88.79 55.275 87.79 56.475 86.39 57.175 C 86.09 57.375 85.79 57.575 85.59 57.675 C 84.99 57.975 84.29 58.175 83.59 58.175 Z " fill-rule="evenodd" fill="rgb(0,0,0)"/><path d=" M 127.09 45.275 C 127.49 45.275 127.99 45.275 128.39 45.275 C 128.69 45.275 129.09 45.475 129.29 45.575 C 129.69 45.875 130.19 46.275 130.49 46.675 C 131.09 47.475 131.49 48.375 131.79 49.375 C 131.89 49.775 131.99 50.275 131.99 50.675 C 131.79 52.575 131.09 54.075 129.39 55.075 C 127.69 55.975 125.89 56.575 123.99 56.475 C 123.09 56.475 122.19 56.175 121.59 55.475 C 121.09 54.975 120.79 54.475 120.39 53.875 C 120.29 53.675 120.19 53.475 120.19 53.275 C 120.09 52.275 120.09 51.275 120.29 50.275 C 120.29 50.175 120.29 50.075 120.39 49.975 C 120.99 48.675 121.69 47.475 122.79 46.475 C 123.59 45.775 124.49 45.375 125.49 45.275 C 125.99 45.275 126.49 45.275 127.09 45.275 C 127.09 45.275 127.09 45.275 127.09 45.275 Z " fill-rule="evenodd" fill="rgb(0,0,0)"/><path d=" M 49.69 135.775 C 49.99 135.775 50.29 135.775 50.39 135.875 C 51.99 136.775 53.79 136.875 55.49 136.975 C 56.39 137.075 57.29 136.775 58.09 136.475 C 58.59 136.375 58.99 135.175 58.79 134.775 C 58.69 134.575 58.59 134.375 58.49 134.175 C 58.19 133.475 57.79 132.775 57.49 132.075 C 57.39 131.775 57.49 131.375 57.79 131.175 C 59.59 130.075 61.39 128.975 63.19 127.975 C 64.89 127.075 66.39 125.875 67.79 124.675 C 68.29 124.175 68.49 123.575 68.49 122.875 C 68.49 122.075 68.39 121.275 68.39 120.575 C 68.39 119.275 68.49 117.875 68.79 116.575 C 68.89 116.175 69.19 115.775 69.59 115.575 C 71.99 114.775 74.49 114.175 77.09 114.275 C 77.39 114.275 77.49 114.375 77.49 114.675 C 77.49 114.875 77.49 115.075 77.29 115.275 C 76.99 115.475 76.79 115.675 76.49 115.875 C 76.09 116.075 75.69 116.275 75.29 116.475 C 74.49 116.975 73.89 117.575 73.59 118.475 C 73.39 118.975 73.19 119.475 73.09 120.075 C 72.99 120.475 73.09 120.975 73.19 121.375 C 73.39 121.875 73.69 122.375 73.99 122.875 C 74.69 123.875 75.49 124.875 76.29 125.675 C 76.89 126.275 77.49 126.575 78.29 126.675 C 78.99 126.775 79.59 126.675 80.19 126.375 C 81.29 125.775 82.29 125.075 83.49 124.875 C 83.69 124.875 83.89 124.875 84.09 125.075 C 84.09 125.175 84.19 125.275 84.19 125.375 C 84.19 125.475 84.19 125.575 84.19 125.675 C 83.19 127.775 81.99 129.775 80.79 131.775 C 80.29 132.475 79.59 132.775 78.79 132.675 C 78.39 132.675 77.89 132.575 77.49 132.475 C 76.19 132.075 74.99 131.675 73.69 131.175 C 72.59 130.775 71.49 130.875 70.39 130.875 C 70.09 130.875 69.79 130.975 69.39 131.175 C 68.39 131.575 67.29 131.975 66.39 132.675 C 65.99 132.975 65.49 133.275 64.99 133.475 C 63.99 133.975 62.99 134.475 62.29 135.375 C 62.09 135.575 61.79 135.775 61.49 135.975 C 59.89 137.175 58.29 138.375 56.69 139.575 C 55.39 140.575 54.39 141.975 53.19 143.175 C 53.09 143.275 52.99 143.575 52.99 143.775 C 52.89 143.975 52.89 144.175 52.89 144.475 C 52.89 146.575 52.19 148.575 51.79 150.675 C 51.49 151.875 50.99 152.975 50.49 154.075 C 50.29 154.475 49.99 154.775 49.49 154.875 C 48.49 155.075 47.59 155.375 46.59 155.475 C 45.09 155.675 43.49 155.875 41.99 155.875 C 40.99 155.875 39.99 155.975 38.99 156.075 C 38.79 156.075 38.59 155.975 38.39 155.975 C 38.29 155.875 38.59 155.375 38.99 155.175 C 40.09 154.675 41.09 153.975 42.09 153.175 C 43.49 152.075 43.99 149.875 43.19 147.975 C 43.09 147.775 42.99 147.575 42.89 147.375 C 42.49 146.975 42.09 146.575 41.69 146.175 C 40.49 144.875 39.09 144.175 37.29 143.875 C 36.49 144.075 35.59 144.175 34.79 144.475 C 32.79 145.075 30.89 145.975 29.39 147.575 C 29.19 147.775 28.89 147.975 28.59 148.175 C 28.39 148.275 27.79 148.175 27.69 147.975 C 27.59 147.775 27.39 147.575 27.39 147.375 C 26.99 144.875 27.49 142.575 28.89 140.375 C 29.09 139.975 29.49 139.675 29.89 139.575 C 32.19 138.575 34.59 137.575 36.89 136.475 C 37.19 136.375 37.59 136.475 37.79 136.675 C 38.29 137.075 38.89 137.475 39.39 137.875 C 40.09 138.575 40.79 139.275 41.49 139.975 C 41.99 140.475 42.69 140.575 43.39 140.175 C 43.79 139.975 44.19 139.775 44.49 139.475 C 46.39 138.275 48.09 136.975 49.69 135.775 Z " fill-rule="evenodd" fill="rgb(2,95,107)"/><path d=" M 63.09 124.975 L 63.29 124.975 L 63.19 124.975 L 63.09 124.975 Z " fill-rule="evenodd" fill="rgb(255,255,255)"/><path d=" M 49.19 150.675 C 49.29 149.475 49.79 146.975 50.29 145.975 C 50.39 145.875 50.69 145.875 50.89 145.775 C 50.99 145.775 51.09 145.975 51.09 146.075 C 51.19 146.275 51.19 146.475 51.19 146.675 C 51.19 146.975 51.09 147.275 50.99 147.675 C 50.69 148.875 50.29 149.975 49.99 151.075 C 49.89 151.275 49.79 151.475 49.59 151.475 C 49.49 151.475 49.39 151.175 49.29 150.975 C 49.19 150.875 49.19 150.775 49.19 150.675 Z " fill-rule="evenodd" fill="rgb(0,0,0)"/><path d=" M 64.89 128.875 C 65.19 128.775 65.49 128.575 65.79 128.475 C 65.99 128.375 66.19 128.375 66.39 128.575 C 66.39 128.575 66.29 128.775 66.29 128.775 C 66.19 128.875 66.19 128.975 66.09 128.975 C 64.59 129.875 62.99 130.675 61.49 131.575 C 61.39 131.675 61.29 131.675 61.19 131.675 C 60.99 131.775 60.79 131.675 60.69 131.375 C 60.69 131.275 60.69 131.175 60.69 131.075 C 60.89 130.675 61.19 130.375 61.59 130.175 C 62.69 129.775 63.79 129.275 64.89 128.875 C 64.89 128.775 64.89 128.775 64.89 128.875 Z " fill-rule="evenodd" fill="rgb(0,0,0)"/><path d=" M 36.19 139.275 C 36.19 139.475 36.19 139.675 36.09 139.875 C 35.79 140.175 35.49 140.475 35.09 140.675 C 34.19 141.275 33.19 141.775 32.29 142.275 C 32.09 142.375 31.89 142.375 31.69 142.175 C 31.69 142.075 31.69 141.975 31.69 141.875 C 31.69 141.775 31.79 141.675 31.89 141.575 C 32.99 140.575 34.19 139.575 35.69 139.075 C 35.79 138.975 36.09 139.075 36.19 139.275 Z " fill-rule="evenodd" fill="rgb(0,0,0)"/><path d=" M 77.69 130.975 C 76.59 130.975 75.59 130.675 74.59 130.175 C 74.39 130.075 74.29 129.875 74.29 129.675 C 74.39 129.275 74.69 129.075 74.99 129.075 C 75.09 129.075 75.19 129.075 75.29 129.075 C 76.29 129.375 77.39 129.675 78.29 130.275 C 78.49 130.375 78.59 130.575 78.59 130.775 C 78.59 130.875 78.39 130.875 78.29 130.975 C 78.09 130.875 77.89 130.875 77.69 130.975 Z " fill-rule="evenodd" fill="rgb(0,0,0)"/></g></svg>