<?xml version="1.0" encoding="utf-8"?>
<!DOCTYPE svg PUBLIC "-//W3C//DTD SVG 1.1//EN" "http://www.w3.org/Graphics/SVG/1.1/DTD/svg11.dtd">
<svg version="1.1" id="SheepTodayOffice" xmlns="http://www.w3.org/2000/svg" xmlns:xlink="http://www.w3.org/1999/xlink" x="0px" y="0px"
	 width="478.9px" height="506px" viewBox="0 0 478.9 506" enable-background="new 0 0 478.9 506" xml:space="preserve">
<g>
	<g opacity="0.8">
		<path fill-rule="evenodd" clip-rule="evenodd" stroke="#FFFFFF" stroke-width="8" stroke-miterlimit="10" d="M299.3,467.4
			c-1,3.8-1.8,7.5-3,11.1c-0.9,2.7-1.5,5.5-1.8,8.3c-0.1,1.2-0.6,2.3-1,3.4c-0.1,0.4-0.5,0.8-0.9,1.1c-0.6,0.6-2.1,0.4-2.5-0.3
			c-0.6-1.3-1.3-2.5-1.9-3.8c-0.3-0.6-0.4-1.4-0.5-2c-0.1-0.5-0.1-0.9-0.1-1.4c0.1-6.6-0.5-13.2,0-19.9c0.1-0.7,0.1-1.4,0-2.1
			c-0.7-3.5-1.5-6.9-2.3-10.4c-0.2-0.9-1.6-1.3-2.3-0.8c-0.2,0.1-0.5,0.2-0.6,0.3c-2.4,2.3-5.4,3.9-8.3,5.5
			c-0.6,0.3-1.2,0.8-1.6,1.4c-1.1,1.8-2.3,3.6-3.2,5.5c-1.2,2.8-2.2,5.7-3.2,8.7c-0.6,2-1.2,4.1-1.2,6.3c0.1,4.1-0.7,8-1.8,11.9
			c-0.3,0.9-0.4,1.8-0.8,2.7c-0.2,0.4-0.7,0.6-1.1,0.8c-0.7,0.3-1.7-0.1-1.8-0.6c-0.7-3.2-1.3-6.5-1.5-9.8c-0.1-1.9-0.3-3.8-0.9-5.6
			c-1.4-4.3-2.8-8.5-4.7-12.6c-0.4-0.9-1-1.6-2-1.9c-1.3-0.4-2.7-1-4.1-1.2c-2.9-0.3-5.5-1.2-8-2.6c-1.2-0.7-2.6-1.1-3.9-1.7
			c-2.6-1.1-5.2-2.2-7.5-4c-0.9-0.7-2-1.2-3.1-1.7c-2.6-1.1-5-2.7-7-4.7c-1.2-1.1-2.5-2.2-3.8-3.2c-1.1-0.9-2-1.9-2.7-3.2
			c-1-1.9-2.4-3.4-4.1-4.8c-1.6-1.3-2.9-3.1-4.4-4.6c-0.9-1-1.9-1.2-3.2-0.9c-1.6,0.3-3.3,0.5-4.9,0.8c-3.5,0.6-7,0.9-10.6,1
			c-6.6,0.2-13.2,0.4-19.9,1c-7.3,0.6-14.7,0.6-22,0.6c-7.6,0-15.1,0.1-22.7,0.8c-1.4,0.1-2.8,0.2-4.2,0.3
			c-7.1,0.2-14.2,0.4-21.3,0.5c-2.6,0.1-5.2,0.1-7.8,0.1c-6.4,0-12.8,0.1-19.2,0.5c-2.6,0.2-5.2,0.1-7.8-0.1
			c-3.5-0.3-7.1-0.3-10.6-0.4c-4-0.1-8-0.2-12.1-0.2c-2.4-0.1-4.7-0.6-6.8-1.7c-2.6-1.2-5.1-2.6-7.6-3.8c-1.8-0.9-3.1-2.2-4-3.9
			c-2.1-3.5-3.4-7.3-3.7-11.4c-0.4-4.5-0.4-9-0.1-13.5c0.2-3.8,1.1-7.5,1.4-11.3c0-0.5,0.2-0.9,0.4-1.3c0.6-1.3,0.8-2.7,0.8-4.1
			c0-1.4,0.1-2.8,0.1-4.3c0-3.4,1-6.5,3-9.3c0.3-0.4,0.6-0.7,0.8-1.1c2.2-4.5,5.3-8.4,8.2-12.4c2.8-3.8,5-8,7.4-12.1
			c0.6-1,1.2-2,2.3-2.6c1.8-1.1,3.2-2.7,4.6-4.4c1.6-2,3.3-4,4.9-6.1c0.4-0.6,0.8-1.2,1.3-1.7c2.3-1.8,3.8-4.2,5.2-6.6
			c0.5-0.8,1.2-1.5,1.8-2.2c2.8-2.9,5.6-5.8,9-8c0.4-0.3,0.7-0.6,1.1-0.9c2-1.3,3-3.6,5.2-4.8c2.1-1.1,3.9-2.6,5.9-3.9
			c0.4-0.3,0.7-0.6,1.1-0.9c0.7-0.6,0.8-2.1,0.2-2.6c-0.2-0.1-0.3-0.3-0.5-0.5c-1.5-1.2-3-2.3-4.4-3.5c-1.5-1.3-1.9-3.3-2.8-4.9
			c-1.6-2.6-3.9-3.4-6.6-2.7c-1.4,0.4-2.6,1.1-4,1.4c-2.5,0.5-4.1,2.2-5.6,4.1c-1.3,1.7-2.3,3.6-3.6,5.3c-2.2,2.9-5,5.1-8.5,6.2
			c-4,1.3-8,1.2-11.6-1.2c-2.7-1.7-4.5-4.1-5.4-7.2c-0.9-3.5-0.7-7.1,0.2-10.5c0.6-2.2,2-3.9,4.2-4.5c2.7-0.8,5.5-1.3,8.3-1.9
			c1.2-0.2,2.4-0.5,3.5-0.4c3.1,0.3,6.1-0.3,9.2-0.6c5.2-0.5,10.4-0.4,15.5,0.8c0.9,0.2,1.9,0.3,2.8,0.5c0.9,0.2,1.7,0.7,2.5,1.3
			c1.9,1.6,3.2,3.5,3.4,6c0.1,2,1.2,3.5,2.4,5c1.8,2.3,4.5,3.3,6.9,4.8c0.3,0.2,0.9,0,1.4-0.2c0.4-0.1,1-0.3,1.3-0.6
			c2.8-3.4,6.4-5.5,10.4-7.2c0.5-0.2,1.1-1.4,1-1.8c0-0.2-0.1-0.5-0.2-0.7c-0.1-0.5-0.2-0.9-0.3-1.4c-0.5-2.1-1-4.1-1.3-6.2
			c-0.3-2.1-0.3-4.2-0.5-6.4c0-0.2-0.1-0.5-0.1-0.7c0.1-6.2,0.6-12.3,2.1-18.3c0.2-0.7,0.5-1.3,0.8-2c0.8-1.7,1.6-3.4,2.5-5.1
			c0.3-0.6,0.6-1.3,1.1-1.8c1.4-1.9,2.9-3.7,4.2-5.7c0.5-0.8,1.3-1.3,2.1-1.8c1-0.7,1.8-1.5,2.6-2.4c0.6-0.7,1.2-1.5,2-2
			c1-0.7,2-1.2,3.1-1.7c1.7-0.8,3.4-1.5,4.9-2.9c2.1-2,4.8-3,7.6-3.7c2.1-0.5,4.1-1,6.2-1.5c1-0.3,1.7-1,2-1.9
			c1.7-5.4,4.2-10.5,6.1-15.9c0.3-0.9,0.7-1.8,1.2-2.6c1.7-2.9,3.4-5.7,5-8.6c1.2-2.1,2.4-4.1,4.4-5.5c0.4-0.3,0.7-0.6,1-1
			c2.2-3.4,5.4-6,8.4-8.6c2.4-2,4.9-3.7,7.9-4.7c2-0.7,3.9-1.7,5.6-3.1c1.9-1.5,4.1-2.3,6.6-2.3c3.1-0.1,6.1-1,9-1.8
			c4.3-1.2,8.7-2,13.2-2.6c2.4-0.3,4.7-0.4,7.1-0.2c6.9,0.6,13.7,0.1,20.6-0.2c0.8,0,1.9-1.1,1.9-1.8c0-0.2,0-0.5,0-0.7
			c0-0.5,0-1-0.1-1.4c-0.8-5.2,1.2-9.7,3.9-14c3.8-6,8.3-11.5,12.8-17c0.6-0.7,1.3-1.4,2.1-1.9c1.9-1.1,3.5-2.5,5-3.9
			c0.5-0.5,1.1-0.9,1.7-1.3c4.1-2.7,8.3-5.5,12.4-8.2c0.8-0.5,1.7-0.9,2.5-1.3c4.6-1.9,9.2-3.8,13.7-5.7c0.9-0.4,1.8-0.6,2.7-0.8
			c4.2-1.2,8.5-0.9,12.6,0.5c3,1.1,6,1.1,9.1,1.5c1,0.1,1.9-0.2,2.7-0.8c1.1-0.8,2.2-1.8,3.2-2.8c1-1,1.8-2.2,2.7-3.3
			c1.6-2,3.1-4.2,5-6c1.9-1.8,4.2-3,6.3-4.5c2.1-1.5,4-3.4,6.2-4.7c2-1.2,4.3-1.9,6.4-3c7.4-3.9,5.9-3.3,13.4-4.1
			c7.3-1.6,14.6-0.9,21.9-0.9c5.4,1,10.8,1.3,16,2.9c3.4,1,6.8,2.2,9.8,4c1.2,0.7,2.5,1.5,3.8,1.9c3.5,1.1,6.1,3.6,8.9,5.7
			c2.8,2.1,5.7,4.3,7.7,7.3c0.9,1.4,2,2.6,2.9,4c4.6,7.5,8.2,15.4,10.8,23.9c0.8,2.7,1.4,5.5,1.6,8.3c0.6,7.1,0.7,7.1,0.2,16.3
			c-0.1,1.2,0.2,2.4,1,3.3c2.1,2.5,4,5.3,6.6,7.4c0.8,0.6,1.2,1.5,1.5,2.4c0.7,2,1.5,4,3.1,5.5c2.8,4.1,5.6,8.2,8.2,12.4
			c2.2,3.4,3.7,7.1,5,10.9c1.4,4,2.7,8.1,4,12.1c1,2.9,1.8,5.9,2.1,9c0.2,2.1,0.6,4.2,0.8,6.3c0.6,5.4,0.4,10.9-0.4,16.3
			c0,0.2-0.1,0.5-0.1,0.7c-0.1,4.8-1.7,9.3-3.3,13.7c-0.2,0.4-0.4,0.9-0.5,1.3c-1.3,4.7-4.1,8.4-7.4,11.9c-2.5,2.6-5,5-8,6.9
			c-0.6,0.4-1.1,0.9-1.6,1.4c-0.4,0.4-0.4,0.8-0.1,1.3c0.9,1.7,2,3.2,3.4,4.5c2.3,2.2,3.7,4.9,4.5,7.9c1.3,5,2.7,10,3.9,15.1
			c0.9,4.1,1.8,8.3,1.5,12.6c-0.2,2.6,0.2,5.2,0,7.8c-0.3,5.7-1.5,11.2-3.9,16.5c-2.5,5.5-2.5,5.5-6.4,11.8c-2.7,4.3-6,7.9-9.9,11
			c-5,4-10.3,7.5-16.4,9.8c-2.2,0.9-4.5,1.3-6.8,2c-1.3,0.4-1.9,1.2-2.2,2.5c-0.1,0.7-0.5,1.3-0.7,2c-1.1,5.8-2.2,11.6-3.2,17.4
			c-0.3,1.9-0.7,3.7-1.4,5.5c-1.4,4-2.7,8.1-4.3,12c-2.1,5.1-4.6,9.9-7.5,14.5c-0.5,0.8-1.1,1.6-1.7,2.3c-1.2,1.5-2.6,2.8-3.5,4.4
			c-0.8,1.5-2.1,2.5-2.9,4c-0.9,1.7-1.9,3.3-2.9,4.8c-0.6,1-1.3,1.9-2.1,2.9c-2,2.7-3.6,5.6-4.5,8.8c-1.5,5.7-2.8,11.5-2.3,17.5
			c0.1,1.2,0.1,2.3-0.1,3.5c-0.3,1.6-0.3,3.3-0.7,4.9c-0.1,0.7-0.8,1.3-1.5,1.4c-0.4,0.1-1.1-0.1-1.3-0.4c-1.5-2.7-3-5.4-4.3-8.2
			c-1.2-2.6-2-5.3-1.6-8.3c0.1-0.9,0.1-1.9-0.1-2.8c-0.7-3-1.4-6-2.2-8.9c-0.2-0.6-0.8-1.2-1.3-1.6c-0.3-0.3-0.9-0.5-1.3-0.4
			c-1.9,0.3-3.7,0.8-5.5,1.2c-0.5,0.1-1.2,1.1-1.2,1.6c0,0.5,0,0.9,0.1,1.4c0.1,0.5,0.2,0.9,0.4,1.4c2.4,5.7,3.8,11.7,6,17.4
			c0.8,2.2,1.7,4.4,2.8,6.5c2.5,4.4,3.3,9.3,3.6,14.3c0.1,0.9-0.3,1.8-0.6,2.7c-0.1,0.5-0.5,0.8-0.9,1.1c-1.5,0.9-3.1,1.3-4.8,1
			c-4.2-0.9-8.5-0.6-12.7-1.4c-0.5-0.1-1-0.2-1.4-0.1c-3.8,0.5-7.6-0.3-11.3,0.3c-1.2,0.2-2.4,0.1-3.5,0.1c-5.7,0-11.3,0.3-17,1.2
			c-5.2,0.9-10.4,0.4-15.5-0.9c-2.4-0.6-3.3-3.7-1.7-5.7c1.3-0.8,1.8-2,2.1-3.5c1.3-7,2.9-13.9,5.3-20.6c0.6-1.8,0.9-3.7,1.3-5.5
			c0.1-0.6-0.4-1.5-0.9-1.7c-2.7-1.1-5.5-1.5-8.3-1.6c-1.3-0.1-2.3,0.4-3.1,1.3C301.8,464.7,300.5,466.1,299.3,467.4z"/>
		<path fill-rule="evenodd" clip-rule="evenodd" stroke="#FFFFFF" stroke-width="8" stroke-miterlimit="10" d="M13.7,167.9
			c-0.4-1.2-0.8-2.3-1.2-3.4c-1.1-3.7-1.2-7.4,0-11.2c0.6-1.8,1-3.6,1.6-5.4c0.7-2.3,2-4.3,3.6-6.1c3.9-4.3,8.5-7.5,13.8-9.8
			c0.9-0.4,1.8-0.6,2.6-1c2.9-1.3,5.9-1.8,9-1.7c1.4,0,2.9,0.2,4.2-0.3c0.4-0.1,0.9-0.4,1.1-0.8c0.9-2.2,2-4.3,2.6-6.6
			c0.8-2.9,2.2-5.2,4.8-6.7c1-0.6,1.9-1.5,2.6-2.4c1.3-1.8,3-3,5.2-3.5c2.4-0.5,4.4-1.6,6.3-3.1c2.8-2.1,5.9-2.8,9.3-3
			c3.1-0.2,6.1-0.2,9.2-0.2c3.3,0.1,6.6,0.7,9.8,1.3c0.7,0.1,1.3,0.5,1.9,0.9c1.2,0.7,2.4,1.4,3.7,2.1c1.1,0.6,2.2,0.7,3.4,0.5
			c1.9-0.4,3.6-1.1,5-2.4c0.8-0.8,1.6-1.7,2.4-2.6c2.1-2,4.3-3.7,7-4.8c2-0.8,3.9-1.7,5.8-2.6c5.3-2.3,10.8-3.2,16.6-2.8
			c4,0.3,8,1.2,11.9,1.8c1.6,0.3,3.1,1.1,4.6,1.8c0.6,0.3,1.3,0.8,1.6,1.3c1.1,1.6,2.6,2.7,4.1,3.9c0.8,0.6,1.3,1.4,1.7,2.2
			c0.3,0.6,0.5,1.4,0.9,1.9c1.3,1.7,3.2,3,3.5,5.2c0.3,1.9,1.3,3.5,1.9,5.3c0.2,0.7,0.4,1.4,0.5,2.1c0.3,1.6,0.5,3.3,0.7,4.9
			c-0.7,3.5,0.8,7.1-0.2,10.6c-0.1,3.2-1.4,6-2.9,8.6c-1.8,3.1-3.6,6.1-6.1,8.7c-1.6,1.7-3,3.7-4.4,5.5c-1.8,2.2-3.5,4.5-5.3,6.6
			c-0.6,0.7-1.4,1.3-2.1,1.9c-4,3.4-8.4,6.2-13,8.6c-0.6,0.3-1.3,0.6-1.9,0.9c-5.2,3-10.9,4.6-16.7,5.8c-5.1,1.1-10.3,1.4-15.4-0.3
			c-2.7-0.9-5.5-1.4-8.3-1.9c-4.9-0.8-9.7-2.3-14.2-4.5c-3-1.4-6.1-2.5-9.2-3.7c-1.4-0.5-2.8-0.4-4.1,0.3c-1.3,0.7-2.4,1.4-3.6,2.2
			c-2.5,1.8-4.9,3.8-7.5,5.4c-3.2,2.1-6.6,3.8-10.4,4.3c-1.2,0.2-2.3,0.6-3.4,0.9c-1.4,0.3-2.8,0.6-4.2,0.7c-7.3,0.4-9.3,0-15.5-3.6
			c-3.7-2.1-7.3-4.5-10-7.8C16,170.9,14.8,169.4,13.7,167.9z"/>
		<path fill-rule="evenodd" clip-rule="evenodd" stroke="#FFFFFF" stroke-width="8" stroke-miterlimit="10" d="M24.4,214.2
			c1.5-1,3-2,4.6-3.1c1.5-1.1,3.1-2.1,4.6-3.2c1.4-1,2.9-1.6,4.6-1.7c2.8-0.2,5.6-0.5,8.4,0c0.7,0.1,1.3,1,1,1.5
			c-0.2,0.4-0.4,0.8-0.8,1.1c-0.4,0.3-0.9,0.4-1.3,0.4c-1.2,0.2-2.3,0.4-3.5,0.5c-4,0.2-7.1,2.2-10.2,4.5c-0.5,0.4-1,1-1.3,1.6
			c-0.5,1-1,2.1-1.4,3.2c-0.5,1.5-1.7,2.2-3,2.8c-0.5,0.3-1.6,0.1-1.9-0.4c-0.7-1-1.3-1.9-2-2.9c-1.3-1.8-2.9-3-4.9-3.8
			c-1.1-0.4-2.2-0.9-3.2-1.5c-2.1-1.1-4.1-0.8-6.1,0.1c-1.1,0.5-1.9,1.4-3.2,1.3c-0.2,0-0.4-0.2-0.6-0.4C4.1,214.3,4,214,4,213.9
			c0.6-1.4,1.8-2.2,3.1-2.7c2.7-1,5.5-1.4,8.3-1c1.9,0.3,3.6,0.9,5.3,1.9C21.9,212.8,22.8,214,24.4,214.2z"/>
		<path fill-rule="evenodd" clip-rule="evenodd" stroke="#FFFFFF" stroke-width="8" stroke-miterlimit="10" d="M85,204.6
			c1.2-0.2,2.1-1,3-1.7c3.5-2.6,7.4-4.3,11.8-4.1c1.2,0,2.2-0.7,3.4-0.4c0.6,0.2,0.8,0.5,0.7,1.1c-0.1,0.4-0.3,1-0.6,1.2
			c-1,0.6-2.1,1.2-3.2,1.5c-3.2,0.7-5.5,2.6-7.9,4.5c-1.7,1.3-2.8,3.2-3.4,5.3c-0.2,0.7-0.5,1.3-1,1.8c-0.7,0.8-2.7,0.7-3.1-0.2
			c-0.3-0.6-0.6-1.3-0.8-1.9c-1.4-4.2-1.2-3.9-5.3-6c-3.5-1.8-4.5-3.1-10-0.5c-0.8,0.4-1.6,1.1-2.6,0.9c-0.2,0-0.4-0.2-0.6-0.4
			c-0.1-0.1-0.2-0.4-0.2-0.6c0-0.2,0.1-0.5,0.2-0.7c2.3-3.1,5.4-4.5,9.2-4.2c0.9,0.1,1.9,0.3,2.7,0.8
			C79.8,202.5,82.4,203.5,85,204.6z"/>
	</g>
	<g>
		<g opacity="0.8">
			<path fill-rule="evenodd" clip-rule="evenodd" stroke="#FFFFFF" stroke-width="6" stroke-miterlimit="10" d="M88.4,66.3
				c-0.3,0.5-0.6,1.1-1,1.5c-0.6,0.5-1.2,0.4-1.7-0.1c-0.2-0.2-0.5-0.4-0.7-0.6c-2.5-3.2-5.1-6.4-7.5-9.6c-1.1-1.5-2.1-3.1-2.9-4.8
				c-1.6-3.4-3-6.9-4.6-10.3c-0.3-0.7-0.8-1-1.5-0.8c-0.3,0.1-0.7,0.1-0.8,0.3c-3.1,4.4-6.5,10.4-8.3,14.7c-0.2,0.6-0.3,1.3-0.6,1.8
				c-2,2.5-2.8,5.5-3.5,8.6c-0.2,1.1-1.7,2.1-2.8,2.1c-2.2,0-3.7-0.9-4.2-3c-0.5-2.2-1.3-4.2-2.6-6c-4.4-5.7-8.2-11.8-11.7-18.2
				c-0.3-0.6-0.9-0.8-1.6-0.9c-0.7-0.1-1.2,0.1-1.5,0.8c-0.2,0.3-0.4,0.5-0.5,0.8c-1.5,2.8-2.7,5.6-3.5,8.7
				c-1.4,5.5-3,10.9-4.8,16.2c-1.2,3.6-1.8,7.3-2.8,10.9c-0.2,0.8-1.1,1.5-1.6,2.2c-0.5,0.6-1,0.7-1.7,0.5c-1-0.4-1.6-1.2-1.6-2.1
				c0.1-0.6-0.1-1.3,0.1-1.9c1.3-4.8,2.6-9.7,4-14.5c1.2-3.9,2-7.9,2.6-11.9c0.3-2.5,0.7-5,1.5-7.3c0.4-1.2,0.5-2.4,0.6-3.7
				c0.2-1.9,0.4-3.8,0.3-5.6c-0.1-3.1,1.5-5.4,3.7-7.3c1-0.9,2.2-1.1,3.5-0.9c2.3,0.3,4.3,1.3,5.5,3.2c2.4,3.7,4.7,7.4,5.8,11.7
				c1.1,4,3.2,7.5,4.9,11.2c0.8,1.7,1.8,3.3,3.5,4.4c0.4,0.3,1.4,0.3,1.7,0c3.2-3.8,5.9-8.1,8.1-12.6c2.8-5.6,5.6-11.2,8-17
				c0.4-0.9,0.7-1.7,1.5-2.4c0.5-0.4,2.2-0.4,2.5,0.2c0.5,1.1,1.3,2.2,1.6,3.4c0.7,3.1,1.9,6,3.1,8.9c1.3,3.2,2.5,6.4,3.8,9.6
				c1.5,3.5,2.6,7,4.5,10.3c1.4,2.4,2.2,5.2,3.1,7.8C88.5,65.1,88.4,65.7,88.4,66.3z"/>
			<path fill-rule="evenodd" clip-rule="evenodd" stroke="#FFFFFF" stroke-width="6" stroke-miterlimit="10" d="M220.6,19.7
				c3.2,0.1,5.6,0.7,7.7,2.1c0.5,0.3,0.8,1,1,1.5c0.2,0.6,0.2,1.2,0.2,1.9c-0.4,4.4-0.8,8.7-1.3,13.1c-0.2,1.6,0,3.1,0.1,4.7
				c0.3,2.8,0.3,5.6,0.6,8.4c0.3,2.5,0.8,4.9,1.2,7.4c0.1,0.6,0.1,1.3,0.1,1.9c0.2,2.3-1.3,4.1-3.8,4.4c-0.3,0-0.6,0-0.9,0
				c-1-0.2-1.7-0.8-2.1-1.7c-0.4-0.8-0.5-1.8-0.6-2.7c-0.2-2.2-0.3-4.3-0.5-6.5c-0.1-1.2-1.8-2-2.9-1.4c-5.8,3.1-11.4,6.6-16,11.4
				c-1.7,1.8-3.5,3.6-5.3,5.3c-0.7,0.6-1.4,1.2-2.2,1.7c-0.5,0.3-1.2,0.3-1.8,0.4c-0.5,0-1.1-1.9-0.8-2.5c0.4-0.8,0.7-1.7,1.2-2.5
				c2.3-3.4,4.7-6.7,7-10c0.5-0.8,0.9-1.6,1.3-2.5c0.3-0.7,0.2-1.4-0.6-1.5c-3.5-0.8-6.2-2.8-8.4-5.6c-0.8-1-1.8-1.7-2.7-2.6
				c-1.2-1.3-1.1-3.7,0-5.2c0.4-0.5,0.7-1,1.2-1.5c3.5-3.2,7-6.2,10.4-9.5c3.9-3.8,8.9-5.8,13.8-7.7C218,19.9,219.6,19.9,220.6,19.7
				z M222.9,35.6c0.1,0,0.1,0,0.2,0c-0.1-2.8-0.2-5.6-0.3-8.4c-0.1-1.9-2.8-3.8-4.8-3.5c-3.1,0.5-5.9,1.6-8.2,4
				c-3.1,3.1-5.4,6.8-7.7,10.5c-1,1.6-1.5,3.4-2.1,5.2c-0.8,2.5,0.5,4.5,2.9,4.7c5,0.5,9.8-0.1,14.7-1.5c5-1.5,5.3-2.9,5.4-7.2
				C222.9,38.1,222.9,36.9,222.9,35.6z"/>
			<path fill-rule="evenodd" clip-rule="evenodd" stroke="#FFFFFF" stroke-width="6" stroke-miterlimit="10" d="M343.7,36.5
				c0.2-5.1,0.3-9.5,0.5-13.9c0-0.9,0.1-1.9,0.3-2.8c0.4-1.6,1.4-2.9,2.9-3.5c1.8-0.7,3.6-1.2,5.4-1.6c4.6-0.9,9.3-1.5,14-1.8
				c2.2-0.2,4.4,0,6.3,1.3c0.6,0.4,0.9,1,0.5,1.6c-0.3,0.5-0.8,1.3-1.1,1.3c-5.4-0.4-10.6,1.2-15.9,1.6c-1.2,0.1-2.4,0.7-3.5,1.3
				c-0.5,0.2-1.2,0.7-1.4,1.2c-0.8,2.7-2.2,5.2-1.8,8.2c0.1,0.7,0.4,1.2,1.1,1.4c0.9,0.2,1.8,0.5,2.7,0.5c3.8,0.1,7.5-0.6,11.2-1.4
				c1.5-0.3,3.1-0.6,4.6-0.1c0.7,0.2,1,0.8,0.9,1.4c0,0.3-0.1,0.6-0.2,0.8c-0.2,0.3-0.4,0.6-0.7,0.6c-5.5,1.4-11,2.5-16.6,3.1
				c-1.9,0.2-3.2,2-3.2,4c0,0.6-0.1,1.3,0.1,1.9c0.4,1.5,1,3,1.5,4.4c0.3,0.8,1.3,1.3,2.3,1.3c5.4,0,10.6-1.1,15.8-2.2
				c2.1-0.5,4.3-0.9,6.4-1.4c0.7-0.1,1.7,1.1,1.6,1.9c-0.1,1-0.3,1.9-1.2,2.4c-1.9,1.1-4,1.8-6.1,2.4c-4.9,1.2-9.7,2.7-14.4,4.5
				c-2.6,1-5.4,1.5-8.2,2.1c-0.8,0.2-1.8-0.3-2.7-0.5c-0.3-0.1-0.6-0.3-0.8-0.5c-1.1-2.3-1.8-4.7-1.6-7.3
				C343.1,44.5,343.5,40.1,343.7,36.5z"/>
			<path fill-rule="evenodd" clip-rule="evenodd" stroke="#FFFFFF" stroke-width="6" stroke-miterlimit="10" d="M301.6,56.6
				c-0.6,1.7-1.8,2.6-3.5,2.7c-2.1,0.2-3.9-1.1-4.3-2.8c-0.8-4-1-8.1-0.9-12.2c0.3-6.3,0.1-12.5,0.2-18.8c0-2.9,0.5-5.6,1.9-8.1
				c0.4-0.6,1-0.7,1.6-0.6c0.7,0.1,1.2,0.4,1.4,1.1c0.3,1.2,0.7,2.4,0.8,3.6c0.1,3.8-0.1,7.5-0.1,11.3c0,0.9,0.3,1.8,0.5,2.7
				c0.1,0.7,0.6,1,1.3,1.2c1.3,0.4,2.5,0.2,3.7,0c1.8-0.4,3.6-1,5.4-1.6c4.4-1.5,8.8-3.2,13.4-4.2c0.7-0.2,1.5-1.4,1.5-2.2
				c0-1.2,0-2.5-0.1-3.7c-0.4-4.1-0.8-8.1-1.2-12.2c-0.1-0.9,0.2-1.8,0.3-2.8c0.1-0.7,0.6-1,1.2-1.2c0.7-0.2,1.2-0.1,1.8,0.3
				c1.1,0.8,1.8,1.8,1.9,3.1c0.3,3.1,0.7,6.3,0.5,9.4c-0.4,5.4,0.4,10.6,0.7,15.9c0.1,1.2,0.4,2.5,0.4,3.7c0,3.5,0.8,6.8,2.4,9.9
				c0.4,0.9,0,1.8-0.7,2.5c-1.1,1-3.5,0.6-3.9-0.7c-0.3-0.9-0.7-1.8-0.8-2.7c-0.2-3.5-1.2-6.8-1.8-10.2c-0.4-2.2-1.5-3-4-3.1
				c-1.9-0.1-3.8,0-5.5,0.7c-4.6,1.9-9.3,3.8-13.9,5.8c-1.5,0.7-2.4,2-2.7,3.6c-0.5,2.5-0.6,5,1.2,7.2
				C300.8,55,301.2,55.9,301.6,56.6z"/>
			<path fill-rule="evenodd" clip-rule="evenodd" stroke="#FFFFFF" stroke-width="6" stroke-miterlimit="10" d="M102.8,54.7
				c0-1.4,0-3.3,0-5.2c0-1.6,0-3.2,0.4-4.7c0.7-2.8,1-5.5,0.8-8.4c0-0.6,0.1-1.3,0.2-1.9c0.2-1.5,2-3.7,3.5-4.1
				c1.2-0.3,2.4-0.6,3.7-0.8c2.5-0.4,5-0.5,7.4-1.2c4.6-1.4,9.3-1.2,14-1.2c0.7,0,1.1,0.6,1.2,1.1c0.1,0.7-0.1,1.2-0.6,1.7
				c-0.7,0.7-1.6,1-2.5,1c-5.9,0.5-11.7,1.9-17.6,2.7c-1,0.1-1.6,1.1-2,1.9c-1.3,2.6-1.4,5.4-1.1,8.3c0.1,0.7,1.1,1.9,1.7,2
				c4.4,0.3,8.8,0.4,13.1-0.7c1.8-0.5,3.7-0.8,5.5-0.2c0.7,0.2,0.9,0.7,0.6,1.5c-0.3,0.9-0.9,1.6-1.8,2c-0.9,0.4-1.8,0.7-2.7,0.9
				c-4.6,0.8-9.3,1.6-13.9,2.3c-1.8,0.3-2.7,1.4-2.7,3.2c0,0.3,0,0.6,0,0.9c0.1,1.7,1.5,3.1,2.9,3c5-0.5,10-0.9,15-1.5
				c2.5-0.3,5-0.7,7.4-1.5c0.8-0.3,1.9-0.1,2.8,0.1c0.5,0.1,1,0.8,1.1,1.3c0.4,1.3-1,3.4-2.3,3.6c-0.6,0.1-1.2,0.3-1.9,0.3
				c-5.3,0.1-10.6,0.6-15.9,1.4c-4.6,0.7-9.3,1.1-13.9,2.5c-0.6,0.2-2.1-0.9-2.1-1.5C103,60.8,102.9,58,102.8,54.7z"/>
			<path fill-rule="evenodd" clip-rule="evenodd" stroke="#FFFFFF" stroke-width="6" stroke-miterlimit="10" d="M413.7,36.3
				c0.3-2.9,0.8-6,1-9.1c0.4-5,1-10-0.2-15c-0.1-0.6-1.4-1.7-2-1.7c-0.9,0.1-1.9,0.2-2.8,0.5c-2.4,0.9-4.6,1.9-7,2.8
				c-1.2,0.4-2.4,0.6-3.7,0.6c-0.9,0-1.8-0.3-2.7-0.5c-0.7-0.2-1-0.7-1-1.4c0-0.6,0.1-1.3,0.7-1.6c3.2-1.3,6.4-2.6,9.6-3.8
				c4.7-1.7,9.6-2.8,14.6-3.6c3.4-0.5,6.9-0.6,10.3-0.7c1.2,0,2.5,0.4,3.7,0.7c1.4,0.4,2.1,2.9,1,3.8c-0.4,0.4-1,0.8-1.6,0.8
				c-3.1,0.2-6.2,0.4-9.4,0.5c-0.6,0-1.9,1.2-2,1.8c0,0.3-0.2,0.6-0.2,0.9c-0.1,0.9-0.2,1.9-0.2,2.8c0.1,7.2,0.3,14.4,2.4,21.4
				c0.3,0.9,0.5,1.8,0.6,2.8c0.2,1.6-0.1,3.1-1.2,4.4c-0.4,0.5-0.9,0.9-1.4,1.2c-1.8,0.8-3.7,0.7-5.5,0.5c-0.9-0.1-2.5-1.6-2.6-2.5
				C414,40.4,413.9,38.5,413.7,36.3z"/>
			<path fill-rule="evenodd" clip-rule="evenodd" stroke="#FFFFFF" stroke-width="6" stroke-miterlimit="10" d="M180.4,45.3
				c0.6,3.1,1.1,4.9,1.3,6.7c0.2,1.7-0.5,3-1.7,4.1c-1,0.8-2.6,0.6-3.1-0.7c-0.4-0.9-0.6-1.8-0.8-2.7c-0.6-2.8-1.1-5.5-1.7-8.3
				c-0.3-1.2-1.8-2-3-1.6c-2.1,0.7-4.1,1.4-6.2,2.3c-1.4,0.6-2.8,1.4-4.2,2.1c-0.9,0.5-1.8,2.2-1.6,3.2c0.1,0.9,0.2,1.9,0.5,2.8
				c0.2,0.9,0.6,1.8,0.8,2.7c0.7,2.9-0.2,5-3.4,5.4c-0.3,0-0.6,0.1-0.9,0.1c-0.6,0-2-1.1-2.1-1.6c-0.7-2.5-0.6-5-0.2-7.5
				c0.9-5.3,0.8-10.6,0.9-15.9c0-2.8,0.2-5.7,1-8.4c0.4-1.2,0.7-2.4,1.7-3.3c0.2-0.2,0.5-0.3,0.8-0.3c0.7-0.2,1.3,0.1,1.5,0.9
				c0.2,0.6,0.5,1.2,0.4,1.8c-0.6,3.1-1.3,6.1-0.9,9.3c0.2,1.3,1.4,2.3,2.6,2.1c3.4-0.6,6.8-1.3,10.2-1.9c0.7-0.1,1.8-1.3,1.8-2
				c0.1-3.1,0.2-6.3,0.4-9.4c0.1-1.2,0.3-2.5,0.5-3.7c0.1-0.7,0.6-1,1.2-1.2c0.7-0.2,1.1-0.1,1.7,0.4c1.1,1.2,1.8,2.6,1.9,4.2
				c0.2,4.1,0.2,8.1,0.2,12.2C179.8,40.3,179.9,43.5,180.4,45.3z"/>
		</g>
		<g>
			<path fill-rule="evenodd" clip-rule="evenodd" d="M88.4,66.3c-0.3,0.5-0.6,1.1-1,1.5c-0.6,0.5-1.2,0.4-1.7-0.1
				c-0.2-0.2-0.5-0.4-0.7-0.6c-2.5-3.2-5.1-6.4-7.5-9.6c-1.1-1.5-2.1-3.1-2.9-4.8c-1.6-3.4-3-6.9-4.6-10.3c-0.3-0.7-0.8-1-1.5-0.8
				c-0.3,0.1-0.7,0.1-0.8,0.3c-3.1,4.4-6.5,10.4-8.3,14.7c-0.2,0.6-0.3,1.3-0.6,1.8c-2,2.5-2.8,5.5-3.5,8.6
				c-0.2,1.1-1.7,2.1-2.8,2.1c-2.2,0-3.7-0.9-4.2-3c-0.5-2.2-1.3-4.2-2.6-6c-4.4-5.7-8.2-11.8-11.7-18.2c-0.3-0.6-0.9-0.8-1.6-0.9
				c-0.7-0.1-1.2,0.1-1.5,0.8c-0.2,0.3-0.4,0.5-0.5,0.8c-1.5,2.8-2.7,5.6-3.5,8.7c-1.4,5.5-3,10.9-4.8,16.2
				c-1.2,3.6-1.8,7.3-2.8,10.9c-0.2,0.8-1.1,1.5-1.6,2.2c-0.5,0.6-1,0.7-1.7,0.5c-1-0.4-1.6-1.2-1.6-2.1c0.1-0.6-0.1-1.3,0.1-1.9
				c1.3-4.8,2.6-9.7,4-14.5c1.2-3.9,2-7.9,2.6-11.9c0.3-2.5,0.7-5,1.5-7.3c0.4-1.2,0.5-2.4,0.6-3.7c0.2-1.9,0.4-3.8,0.3-5.6
				c-0.1-3.1,1.5-5.4,3.7-7.3c1-0.9,2.2-1.1,3.5-0.9c2.3,0.3,4.3,1.3,5.5,3.2c2.4,3.7,4.7,7.4,5.8,11.7c1.1,4,3.2,7.5,4.9,11.2
				c0.8,1.7,1.8,3.3,3.5,4.4c0.4,0.3,1.4,0.3,1.7,0c3.2-3.8,5.9-8.1,8.1-12.6c2.8-5.6,5.6-11.2,8-17c0.4-0.9,0.7-1.7,1.5-2.4
				c0.5-0.4,2.2-0.4,2.5,0.2c0.5,1.1,1.3,2.2,1.6,3.4c0.7,3.1,1.9,6,3.1,8.9c1.3,3.2,2.5,6.4,3.8,9.6c1.5,3.5,2.6,7,4.5,10.3
				c1.4,2.4,2.2,5.2,3.1,7.8C88.5,65.1,88.4,65.7,88.4,66.3z"/>
			<path fill-rule="evenodd" clip-rule="evenodd" d="M220.6,19.7c3.2,0.1,5.6,0.7,7.7,2.1c0.5,0.3,0.8,1,1,1.5
				c0.2,0.6,0.2,1.2,0.2,1.9c-0.4,4.4-0.8,8.7-1.3,13.1c-0.2,1.6,0,3.1,0.1,4.7c0.3,2.8,0.3,5.6,0.6,8.4c0.3,2.5,0.8,4.9,1.2,7.4
				c0.1,0.6,0.1,1.3,0.1,1.9c0.2,2.3-1.3,4.1-3.8,4.4c-0.3,0-0.6,0-0.9,0c-1-0.2-1.7-0.8-2.1-1.7c-0.4-0.8-0.5-1.8-0.6-2.7
				c-0.2-2.2-0.3-4.3-0.5-6.5c-0.1-1.2-1.8-2-2.9-1.4c-5.8,3.1-11.4,6.6-16,11.4c-1.7,1.8-3.5,3.6-5.3,5.3c-0.7,0.6-1.4,1.2-2.2,1.7
				c-0.5,0.3-1.2,0.3-1.8,0.4c-0.5,0-1.1-1.9-0.8-2.5c0.4-0.8,0.7-1.7,1.2-2.5c2.3-3.4,4.7-6.7,7-10c0.5-0.8,0.9-1.6,1.3-2.5
				c0.3-0.7,0.2-1.4-0.6-1.5c-3.5-0.8-6.2-2.8-8.4-5.6c-0.8-1-1.8-1.7-2.7-2.6c-1.2-1.3-1.1-3.7,0-5.2c0.4-0.5,0.7-1,1.2-1.5
				c3.5-3.2,7-6.2,10.4-9.5c3.9-3.8,8.9-5.8,13.8-7.7C218,19.9,219.6,19.9,220.6,19.7z M222.9,35.6c0.1,0,0.1,0,0.2,0
				c-0.1-2.8-0.2-5.6-0.3-8.4c-0.1-1.9-2.8-3.8-4.8-3.5c-3.1,0.5-5.9,1.6-8.2,4c-3.1,3.1-5.4,6.8-7.7,10.5c-1,1.6-1.5,3.4-2.1,5.2
				c-0.8,2.5,0.5,4.5,2.9,4.7c5,0.5,9.8-0.1,14.7-1.5c5-1.5,5.3-2.9,5.4-7.2C222.9,38.1,222.9,36.9,222.9,35.6z"/>
			<path fill-rule="evenodd" clip-rule="evenodd" d="M343.7,36.5c0.2-5.1,0.3-9.5,0.5-13.9c0-0.9,0.1-1.9,0.3-2.8
				c0.4-1.6,1.4-2.9,2.9-3.5c1.8-0.7,3.6-1.2,5.4-1.6c4.6-0.9,9.3-1.5,14-1.8c2.2-0.2,4.4,0,6.3,1.3c0.6,0.4,0.9,1,0.5,1.6
				c-0.3,0.5-0.8,1.3-1.1,1.3c-5.4-0.4-10.6,1.2-15.9,1.6c-1.2,0.1-2.4,0.7-3.5,1.3c-0.5,0.2-1.2,0.7-1.4,1.2
				c-0.8,2.7-2.2,5.2-1.8,8.2c0.1,0.7,0.4,1.2,1.1,1.4c0.9,0.2,1.8,0.5,2.7,0.5c3.8,0.1,7.5-0.6,11.2-1.4c1.5-0.3,3.1-0.6,4.6-0.1
				c0.7,0.2,1,0.8,0.9,1.4c0,0.3-0.1,0.6-0.2,0.8c-0.2,0.3-0.4,0.6-0.7,0.6c-5.5,1.4-11,2.5-16.6,3.1c-1.9,0.2-3.2,2-3.2,4
				c0,0.6-0.1,1.3,0.1,1.9c0.4,1.5,1,3,1.5,4.4c0.3,0.8,1.3,1.3,2.3,1.3c5.4,0,10.6-1.1,15.8-2.2c2.1-0.5,4.3-0.9,6.4-1.4
				c0.7-0.1,1.7,1.1,1.6,1.9c-0.1,1-0.3,1.9-1.2,2.4c-1.9,1.1-4,1.8-6.1,2.4c-4.9,1.2-9.7,2.7-14.4,4.5c-2.6,1-5.4,1.5-8.2,2.1
				c-0.8,0.2-1.8-0.3-2.7-0.5c-0.3-0.1-0.6-0.3-0.8-0.5c-1.1-2.3-1.8-4.7-1.6-7.3C343.1,44.5,343.5,40.1,343.7,36.5z"/>
			<path fill-rule="evenodd" clip-rule="evenodd" d="M301.6,56.6c-0.6,1.7-1.8,2.6-3.5,2.7c-2.1,0.2-3.9-1.1-4.3-2.8
				c-0.8-4-1-8.1-0.9-12.2c0.3-6.3,0.1-12.5,0.2-18.8c0-2.9,0.5-5.6,1.9-8.1c0.4-0.6,1-0.7,1.6-0.6c0.7,0.1,1.2,0.4,1.4,1.1
				c0.3,1.2,0.7,2.4,0.8,3.6c0.1,3.8-0.1,7.5-0.1,11.3c0,0.9,0.3,1.8,0.5,2.7c0.1,0.7,0.6,1,1.3,1.2c1.3,0.4,2.5,0.2,3.7,0
				c1.8-0.4,3.6-1,5.4-1.6c4.4-1.5,8.8-3.2,13.4-4.2c0.7-0.2,1.5-1.4,1.5-2.2c0-1.2,0-2.5-0.1-3.7c-0.4-4.1-0.8-8.1-1.2-12.2
				c-0.1-0.9,0.2-1.8,0.3-2.8c0.1-0.7,0.6-1,1.2-1.2c0.7-0.2,1.2-0.1,1.8,0.3c1.1,0.8,1.8,1.8,1.9,3.1c0.3,3.1,0.7,6.3,0.5,9.4
				c-0.4,5.4,0.4,10.6,0.7,15.9c0.1,1.2,0.4,2.5,0.4,3.7c0,3.5,0.8,6.8,2.4,9.9c0.4,0.9,0,1.8-0.7,2.5c-1.1,1-3.5,0.6-3.9-0.7
				c-0.3-0.9-0.7-1.8-0.8-2.7c-0.2-3.5-1.2-6.8-1.8-10.2c-0.4-2.2-1.5-3-4-3.1c-1.9-0.1-3.8,0-5.5,0.7c-4.6,1.9-9.3,3.8-13.9,5.8
				c-1.5,0.7-2.4,2-2.7,3.6c-0.5,2.5-0.6,5,1.2,7.2C300.8,55,301.2,55.9,301.6,56.6z"/>
			<path fill-rule="evenodd" clip-rule="evenodd" d="M102.8,54.7c0-1.4,0-3.3,0-5.2c0-1.6,0-3.2,0.4-4.7c0.7-2.8,1-5.5,0.8-8.4
				c0-0.6,0.1-1.3,0.2-1.9c0.2-1.5,2-3.7,3.5-4.1c1.2-0.3,2.4-0.6,3.7-0.8c2.5-0.4,5-0.5,7.4-1.2c4.6-1.4,9.3-1.2,14-1.2
				c0.7,0,1.1,0.6,1.2,1.1c0.1,0.7-0.1,1.2-0.6,1.7c-0.7,0.7-1.6,1-2.5,1c-5.9,0.5-11.7,1.9-17.6,2.7c-1,0.1-1.6,1.1-2,1.9
				c-1.3,2.6-1.4,5.4-1.1,8.3c0.1,0.7,1.1,1.9,1.7,2c4.4,0.3,8.8,0.4,13.1-0.7c1.8-0.5,3.7-0.8,5.5-0.2c0.7,0.2,0.9,0.7,0.6,1.5
				c-0.3,0.9-0.9,1.6-1.8,2c-0.9,0.4-1.8,0.7-2.7,0.9c-4.6,0.8-9.3,1.6-13.9,2.3c-1.8,0.3-2.7,1.4-2.7,3.2c0,0.3,0,0.6,0,0.9
				c0.1,1.7,1.5,3.1,2.9,3c5-0.5,10-0.9,15-1.5c2.5-0.3,5-0.7,7.4-1.5c0.8-0.3,1.9-0.1,2.8,0.1c0.5,0.1,1,0.8,1.1,1.3
				c0.4,1.3-1,3.4-2.3,3.6c-0.6,0.1-1.2,0.3-1.9,0.3c-5.3,0.1-10.6,0.6-15.9,1.4c-4.6,0.7-9.3,1.1-13.9,2.5
				c-0.6,0.2-2.1-0.9-2.1-1.5C103,60.8,102.9,58,102.8,54.7z"/>
			<path fill-rule="evenodd" clip-rule="evenodd" d="M413.7,36.3c0.3-2.9,0.8-6,1-9.1c0.4-5,1-10-0.2-15c-0.1-0.6-1.4-1.7-2-1.7
				c-0.9,0.1-1.9,0.2-2.8,0.5c-2.4,0.9-4.6,1.9-7,2.8c-1.2,0.4-2.4,0.6-3.7,0.6c-0.9,0-1.8-0.3-2.7-0.5c-0.7-0.2-1-0.7-1-1.4
				c0-0.6,0.1-1.3,0.7-1.6c3.2-1.3,6.4-2.6,9.6-3.8c4.7-1.7,9.6-2.8,14.6-3.6c3.4-0.5,6.9-0.6,10.3-0.7c1.2,0,2.5,0.4,3.7,0.7
				c1.4,0.4,2.1,2.9,1,3.8c-0.4,0.4-1,0.8-1.6,0.8c-3.1,0.2-6.2,0.4-9.4,0.5c-0.6,0-1.9,1.2-2,1.8c0,0.3-0.2,0.6-0.2,0.9
				c-0.1,0.9-0.2,1.9-0.2,2.8c0.1,7.2,0.3,14.4,2.4,21.4c0.3,0.9,0.5,1.8,0.6,2.8c0.2,1.6-0.1,3.1-1.2,4.4c-0.4,0.5-0.9,0.9-1.4,1.2
				c-1.8,0.8-3.7,0.7-5.5,0.5c-0.9-0.1-2.5-1.6-2.6-2.5C414,40.4,413.9,38.5,413.7,36.3z"/>
			<path fill-rule="evenodd" clip-rule="evenodd" d="M180.4,45.3c0.6,3.1,1.1,4.9,1.3,6.7c0.2,1.7-0.5,3-1.7,4.1
				c-1,0.8-2.6,0.6-3.1-0.7c-0.4-0.9-0.6-1.8-0.8-2.7c-0.6-2.8-1.1-5.5-1.7-8.3c-0.3-1.2-1.8-2-3-1.6c-2.1,0.7-4.1,1.4-6.2,2.3
				c-1.4,0.6-2.8,1.4-4.2,2.1c-0.9,0.5-1.8,2.2-1.6,3.2c0.1,0.9,0.2,1.9,0.5,2.8c0.2,0.9,0.6,1.8,0.8,2.7c0.7,2.9-0.2,5-3.4,5.4
				c-0.3,0-0.6,0.1-0.9,0.1c-0.6,0-2-1.1-2.1-1.6c-0.7-2.5-0.6-5-0.2-7.5c0.9-5.3,0.8-10.6,0.9-15.9c0-2.8,0.2-5.7,1-8.4
				c0.4-1.2,0.7-2.4,1.7-3.3c0.2-0.2,0.5-0.3,0.8-0.3c0.7-0.2,1.3,0.1,1.5,0.9c0.2,0.6,0.5,1.2,0.4,1.8c-0.6,3.1-1.3,6.1-0.9,9.3
				c0.2,1.3,1.4,2.3,2.6,2.1c3.4-0.6,6.8-1.3,10.2-1.9c0.7-0.1,1.8-1.3,1.8-2c0.1-3.1,0.2-6.3,0.4-9.4c0.1-1.2,0.3-2.5,0.5-3.7
				c0.1-0.7,0.6-1,1.2-1.2c0.7-0.2,1.1-0.1,1.7,0.4c1.1,1.2,1.8,2.6,1.9,4.2c0.2,4.1,0.2,8.1,0.2,12.2
				C179.8,40.3,179.9,43.5,180.4,45.3z"/>
		</g>
	</g>
	<g>
		<path fill-rule="evenodd" clip-rule="evenodd" d="M299.3,467.4c-1,3.8-1.8,7.5-3,11.1c-0.9,2.7-1.5,5.5-1.8,8.3
			c-0.1,1.2-0.6,2.3-1,3.4c-0.1,0.4-0.5,0.8-0.9,1.1c-0.6,0.6-2.1,0.4-2.5-0.3c-0.6-1.3-1.3-2.5-1.9-3.8c-0.3-0.6-0.4-1.4-0.5-2
			c-0.1-0.5-0.1-0.9-0.1-1.4c0.1-6.6-0.5-13.2,0-19.9c0.1-0.7,0.1-1.4,0-2.1c-0.7-3.5-1.5-6.9-2.3-10.4c-0.2-0.9-1.6-1.3-2.3-0.8
			c-0.2,0.1-0.5,0.2-0.6,0.3c-2.4,2.3-5.4,3.9-8.3,5.5c-0.6,0.3-1.2,0.8-1.6,1.4c-1.1,1.8-2.3,3.6-3.2,5.5c-1.2,2.8-2.2,5.7-3.2,8.7
			c-0.6,2-1.2,4.1-1.2,6.3c0.1,4.1-0.7,8-1.8,11.9c-0.3,0.9-0.4,1.8-0.8,2.7c-0.2,0.4-0.7,0.6-1.1,0.8c-0.7,0.3-1.7-0.1-1.8-0.6
			c-0.7-3.2-1.3-6.5-1.5-9.8c-0.1-1.9-0.3-3.8-0.9-5.6c-1.4-4.3-2.8-8.5-4.7-12.6c-0.4-0.9-1-1.6-2-1.9c-1.3-0.4-2.7-1-4.1-1.2
			c-2.9-0.3-5.5-1.2-8-2.6c-1.2-0.7-2.6-1.1-3.9-1.7c-2.6-1.1-5.2-2.2-7.5-4c-0.9-0.7-2-1.2-3.1-1.7c-2.6-1.1-5-2.7-7-4.7
			c-1.2-1.1-2.5-2.2-3.8-3.2c-1.1-0.9-2-1.9-2.7-3.2c-1-1.9-2.4-3.4-4.1-4.8c-1.6-1.3-2.9-3.1-4.4-4.6c-0.9-1-1.9-1.2-3.2-0.9
			c-1.6,0.3-3.3,0.5-4.9,0.8c-3.5,0.6-7,0.9-10.6,1c-6.6,0.2-13.2,0.4-19.9,1c-7.3,0.6-14.7,0.6-22,0.6c-7.6,0-15.1,0.1-22.7,0.8
			c-1.4,0.1-2.8,0.2-4.2,0.3c-7.1,0.2-14.2,0.4-21.3,0.5c-2.6,0.1-5.2,0.1-7.8,0.1c-6.4,0-12.8,0.1-19.2,0.5
			c-2.6,0.2-5.2,0.1-7.8-0.1c-3.5-0.3-7.1-0.3-10.6-0.4c-4-0.1-8-0.2-12.1-0.2c-2.4-0.1-4.7-0.6-6.8-1.7c-2.6-1.2-5.1-2.6-7.6-3.8
			c-1.8-0.9-3.1-2.2-4-3.9c-2.1-3.5-3.4-7.3-3.7-11.4c-0.4-4.5-0.4-9-0.1-13.5c0.2-3.8,1.1-7.5,1.4-11.3c0-0.5,0.2-0.9,0.4-1.3
			c0.6-1.3,0.8-2.7,0.8-4.1c0-1.4,0.1-2.8,0.1-4.3c0-3.4,1-6.5,3-9.3c0.3-0.4,0.6-0.7,0.8-1.1c2.2-4.5,5.3-8.4,8.2-12.4
			c2.8-3.8,5-8,7.4-12.1c0.6-1,1.2-2,2.3-2.6c1.8-1.1,3.2-2.7,4.6-4.4c1.6-2,3.3-4,4.9-6.1c0.4-0.6,0.8-1.2,1.3-1.7
			c2.3-1.8,3.8-4.2,5.2-6.6c0.5-0.8,1.2-1.5,1.8-2.2c2.8-2.9,5.6-5.8,9-8c0.4-0.3,0.7-0.6,1.1-0.9c2-1.3,3-3.6,5.2-4.8
			c2.1-1.1,3.9-2.6,5.9-3.9c0.4-0.3,0.7-0.6,1.1-0.9c0.7-0.6,0.8-2.1,0.2-2.6c-0.2-0.1-0.3-0.3-0.5-0.5c-1.5-1.2-3-2.3-4.4-3.5
			c-1.5-1.3-1.9-3.3-2.8-4.9c-1.6-2.6-3.9-3.4-6.6-2.7c-1.4,0.4-2.6,1.1-4,1.4c-2.5,0.5-4.1,2.2-5.6,4.1c-1.3,1.7-2.3,3.6-3.6,5.3
			c-2.2,2.9-5,5.1-8.5,6.2c-4,1.3-8,1.2-11.6-1.2c-2.7-1.7-4.5-4.1-5.4-7.2c-0.9-3.5-0.7-7.1,0.2-10.5c0.6-2.2,2-3.9,4.2-4.5
			c2.7-0.8,5.5-1.3,8.3-1.9c1.2-0.2,2.4-0.5,3.5-0.4c3.1,0.3,6.1-0.3,9.2-0.6c5.2-0.5,10.4-0.4,15.5,0.8c0.9,0.2,1.9,0.3,2.8,0.5
			c0.9,0.2,1.7,0.7,2.5,1.3c1.9,1.6,3.2,3.5,3.4,6c0.1,2,1.2,3.5,2.4,5c1.8,2.3,4.5,3.3,6.9,4.8c0.3,0.2,0.9,0,1.4-0.2
			c0.4-0.1,1-0.3,1.3-0.6c2.8-3.4,6.4-5.5,10.4-7.2c0.5-0.2,1.1-1.4,1-1.8c0-0.2-0.1-0.5-0.2-0.7c-0.1-0.5-0.2-0.9-0.3-1.4
			c-0.5-2.1-1-4.1-1.3-6.2c-0.3-2.1-0.3-4.2-0.5-6.4c0-0.2-0.1-0.5-0.1-0.7c0.1-6.2,0.6-12.3,2.1-18.3c0.2-0.7,0.5-1.3,0.8-2
			c0.8-1.7,1.6-3.4,2.5-5.1c0.3-0.6,0.6-1.3,1.1-1.8c1.4-1.9,2.9-3.7,4.2-5.7c0.5-0.8,1.3-1.3,2.1-1.8c1-0.7,1.8-1.5,2.6-2.4
			c0.6-0.7,1.2-1.5,2-2c1-0.7,2-1.2,3.1-1.7c1.7-0.8,3.4-1.5,4.9-2.9c2.1-2,4.8-3,7.6-3.7c2.1-0.5,4.1-1,6.2-1.5c1-0.3,1.7-1,2-1.9
			c1.7-5.4,4.2-10.5,6.1-15.9c0.3-0.9,0.7-1.8,1.2-2.6c1.7-2.9,3.4-5.7,5-8.6c1.2-2.1,2.4-4.1,4.4-5.5c0.4-0.3,0.7-0.6,1-1
			c2.2-3.4,5.4-6,8.4-8.6c2.4-2,4.9-3.7,7.9-4.7c2-0.7,3.9-1.7,5.6-3.1c1.9-1.5,4.1-2.3,6.6-2.3c3.1-0.1,6.1-1,9-1.8
			c4.3-1.2,8.7-2,13.2-2.6c2.4-0.3,4.7-0.4,7.1-0.2c6.9,0.6,13.7,0.1,20.6-0.2c0.8,0,1.9-1.1,1.9-1.8c0-0.2,0-0.5,0-0.7
			c0-0.5,0-1-0.1-1.4c-0.8-5.2,1.2-9.7,3.9-14c3.8-6,8.3-11.5,12.8-17c0.6-0.7,1.3-1.4,2.1-1.9c1.9-1.1,3.5-2.5,5-3.9
			c0.5-0.5,1.1-0.9,1.7-1.3c4.1-2.7,8.3-5.5,12.4-8.2c0.8-0.5,1.7-0.9,2.5-1.3c4.6-1.9,9.2-3.8,13.7-5.7c0.9-0.4,1.8-0.6,2.7-0.8
			c4.2-1.2,8.5-0.9,12.6,0.5c3,1.1,6,1.1,9.1,1.5c1,0.1,1.9-0.2,2.7-0.8c1.1-0.8,2.2-1.8,3.2-2.8c1-1,1.8-2.2,2.7-3.3
			c1.6-2,3.1-4.2,5-6c1.9-1.8,4.2-3,6.3-4.5c2.1-1.5,4-3.4,6.2-4.7c2-1.2,4.3-1.9,6.4-3c7.4-3.9,5.9-3.3,13.4-4.1
			c7.3-1.6,14.6-0.9,21.9-0.9c5.4,1,10.8,1.3,16,2.9c3.4,1,6.8,2.2,9.8,4c1.2,0.7,2.5,1.5,3.8,1.9c3.5,1.1,6.1,3.6,8.9,5.7
			c2.8,2.1,5.7,4.3,7.7,7.3c0.9,1.4,2,2.6,2.9,4c4.6,7.5,8.2,15.4,10.8,23.9c0.8,2.7,1.4,5.5,1.6,8.3c0.6,7.1,0.7,7.1,0.2,16.3
			c-0.1,1.2,0.2,2.4,1,3.3c2.1,2.5,4,5.3,6.6,7.4c0.8,0.6,1.2,1.5,1.5,2.4c0.7,2,1.5,4,3.1,5.5c2.8,4.1,5.6,8.2,8.2,12.4
			c2.2,3.4,3.7,7.1,5,10.9c1.4,4,2.7,8.1,4,12.1c1,2.9,1.8,5.9,2.1,9c0.2,2.1,0.6,4.2,0.8,6.3c0.6,5.4,0.4,10.9-0.4,16.3
			c0,0.2-0.1,0.5-0.1,0.7c-0.1,4.8-1.7,9.3-3.3,13.7c-0.2,0.4-0.4,0.9-0.5,1.3c-1.3,4.7-4.1,8.4-7.4,11.9c-2.5,2.6-5,5-8,6.9
			c-0.6,0.4-1.1,0.9-1.6,1.4c-0.4,0.4-0.4,0.8-0.1,1.3c0.9,1.7,2,3.2,3.4,4.5c2.3,2.2,3.7,4.9,4.5,7.9c1.3,5,2.7,10,3.9,15.1
			c0.9,4.1,1.8,8.3,1.5,12.6c-0.2,2.6,0.2,5.2,0,7.8c-0.3,5.7-1.5,11.2-3.9,16.5c-2.5,5.5-2.5,5.5-6.4,11.8c-2.7,4.3-6,7.9-9.9,11
			c-5,4-10.3,7.5-16.4,9.8c-2.2,0.9-4.5,1.3-6.8,2c-1.3,0.4-1.9,1.2-2.2,2.5c-0.1,0.7-0.5,1.3-0.7,2c-1.1,5.8-2.2,11.6-3.2,17.4
			c-0.3,1.9-0.7,3.7-1.4,5.5c-1.4,4-2.7,8.1-4.3,12c-2.1,5.1-4.6,9.9-7.5,14.5c-0.5,0.8-1.1,1.6-1.7,2.3c-1.2,1.5-2.6,2.8-3.5,4.4
			c-0.8,1.5-2.1,2.5-2.9,4c-0.9,1.7-1.9,3.3-2.9,4.8c-0.6,1-1.3,1.9-2.1,2.9c-2,2.7-3.6,5.6-4.5,8.8c-1.5,5.7-2.8,11.5-2.3,17.5
			c0.1,1.2,0.1,2.3-0.1,3.5c-0.3,1.6-0.3,3.3-0.7,4.9c-0.1,0.7-0.8,1.3-1.5,1.4c-0.4,0.1-1.1-0.1-1.3-0.4c-1.5-2.7-3-5.4-4.3-8.2
			c-1.2-2.6-2-5.3-1.6-8.3c0.1-0.9,0.1-1.9-0.1-2.8c-0.7-3-1.4-6-2.2-8.9c-0.2-0.6-0.8-1.2-1.3-1.6c-0.3-0.3-0.9-0.5-1.3-0.4
			c-1.9,0.3-3.7,0.8-5.5,1.2c-0.5,0.1-1.2,1.1-1.2,1.6c0,0.5,0,0.9,0.1,1.4c0.1,0.5,0.2,0.9,0.4,1.4c2.4,5.7,3.8,11.7,6,17.4
			c0.8,2.2,1.7,4.4,2.8,6.5c2.5,4.4,3.3,9.3,3.6,14.3c0.1,0.9-0.3,1.8-0.6,2.7c-0.1,0.5-0.5,0.8-0.9,1.1c-1.5,0.9-3.1,1.3-4.8,1
			c-4.2-0.9-8.5-0.6-12.7-1.4c-0.5-0.1-1-0.2-1.4-0.1c-3.8,0.5-7.6-0.3-11.3,0.3c-1.2,0.2-2.4,0.1-3.5,0.1c-5.7,0-11.3,0.3-17,1.2
			c-5.2,0.9-10.4,0.4-15.5-0.9c-2.4-0.6-3.3-3.7-1.7-5.7c1.3-0.8,1.8-2,2.1-3.5c1.3-7,2.9-13.9,5.3-20.6c0.6-1.8,0.9-3.7,1.3-5.5
			c0.1-0.6-0.4-1.5-0.9-1.7c-2.7-1.1-5.5-1.5-8.3-1.6c-1.3-0.1-2.3,0.4-3.1,1.3C301.8,464.7,300.5,466.1,299.3,467.4z"/>
		<path fill-rule="evenodd" clip-rule="evenodd" fill="#0B8C9E" d="M394.7,266.6c0.4,0.2,0.8,0.4,1.1,0.7c1.1,0.6,1.7,0.5,2.4-0.4
			c0.3-0.4,0.5-0.8,0.8-1.3c0.6,0,1.3,0,2,0c0.5,0,1-0.2,1.2-0.6c0.9-2.1,2.7-2.4,4.7-2.6c1-0.1,1.9,0.1,2.6,0.8
			c0.3,0.3,0.6,0.8,1,1c0.4,0.2,0.9,0.4,1.3,0.3c0.5-0.1,0.6-0.6,0.8-1.1c0.1-0.4,0.3-1.2,0.5-1.2c0.7-0.2,1.4,0.1,1.9,0.6
			c0.2,0.2,0.3,0.4,0.5,0.5c1.2,1,1.9,0.9,2.5-0.7c0.2-0.5,0.4-1,0.9-1c0.4,0,0.7,0.4,1,0.7c0.9,0.8,2.1,0.3,2.1-0.6
			c-0.1-1.7,1.1-3.1,1.4-4.7c-1.1-1.8-2.1-3.6-2.6-5.7c-0.7-2.5-1.5-5-2.1-7.5c-0.3-1.5,0.1-2.8,1-4c1.9-2.5,4.4-4.2,7.5-5.2
			c1.1-0.3,2.2-0.7,3.2-1.4c0.7-0.5,0.8-1.9,0-2.4c-1.1-0.8-2.5-1.4-3.3-2.7c-0.2-0.3-0.3-0.9-0.2-1.3c0.1-0.7,0.6-1.2,1.1-1.8
			c1.6-1.8,2.6-3.9,3.4-6.2c0.5-1.4,0.5-2.8,0-4.2c-0.3-0.9-0.6-1.8-1-2.6c-0.5-1.1-1.3-2-2.4-2.5c-1.7-0.9-3.4-1.6-5.4-1.8
			c-1.4-0.1-2.8-0.2-4.2-0.4c-0.4,0-1.4-0.9-1.5-1.4c-0.5-2.5-1.1-5.1-1.6-7.6c-0.1-0.6-0.5-0.8-1-0.7c-0.4,0.1-1,0.3-1.2,0.6
			c-0.9,1.6-1.1,3.6-2.5,5c-0.3,0.3-0.9,0.4-1.3,0.3c-0.4-0.1-0.8-0.5-1.1-0.8c-1.6-1.4-2.1-1.2-3,0.8c-0.3,0.7-0.5,1.3-0.8,2
			c-0.4,0.9-1.6,1.4-2.4,1c-1.1-0.5-2.1-1.1-3.2-1.5c-0.4-0.2-1-0.2-1.4,0c-0.4,0.1-1,0.6-0.9,0.9c0.1,1.6,0.3,3.3,0.4,4.9
			c0.1,1-0.3,1.9-1.1,2.5c-1.8,1.2-3.4,2.5-4.9,4.1c-1.3,1.4-2.4,3-2.7,4.9c-0.3,1.9-0.7,3.7-0.9,5.6c-0.6,6.8-1.6,13.6-2.8,20.4
			c-0.2,1.4-0.3,2.8-0.5,4.2c-0.2,1.2-0.1,2.4-0.5,3.5c-1.1,2.8-1.3,6-3.2,8.7c-1,0.3-2.1,0.6-3.2,1c-1.4,0.4-2.8,0.7-4,1.3
			c-5.8,2.7-12.1,4-18.2,5.7c-2,0.6-4.2,0.9-6.3,0.6c-0.4-0.1-0.9-0.4-1.1-0.8c-0.7-1.5-1.2-3.1-1.2-4.8c0.1-1.9,0-3.8,0.3-5.7
			c0.5-3.6,0.3-7.1-0.4-10.6c-0.2-0.9-0.2-1.9-0.2-2.8c0-1.9,0-3.8,0.2-5.7c0.3-2.6,0.3-5.1-0.1-7.8c-0.3-2.6-0.2-5.2-0.5-7.8
			c-0.2-1.6,0.1-3.3,0.3-4.9c0.1-1.2,0.1-2.4,0.5-3.5c0.6-2.1,0.6-4.2,0.6-6.3c0-2.6,0-5.2-0.2-7.8c-0.1-1.9-0.6-3.7-0.9-5.6
			c-0.2-1.4-0.2-2.8-0.9-4.1c-0.2-0.4-0.6-0.9-1.1-0.8c-1.1,0.3-2.3,0.5-3.3,1c-0.8,0.4-1.5,1.2-1.7,2.2c-0.7,5.9-0.8,11.8,0.2,17.7
			c0.5,3.1,0.7,6.1,0.7,9.2c0,2-1,2.9-3.2,2.9c-0.9,0-1.9,0-2.8-0.2c-2.1-0.3-4.2-0.7-6.3-1.1c-1.4-0.3-2.8-0.7-4.2-0.8
			c-1.4-0.1-2.8,0.4-4.2,0.4c-2.8,0-5.7-0.2-8.5-0.3c-4-0.2-8-0.3-12.1-0.4c-0.4,0-1,0.2-1.2,0.6c-0.2,0.3,0.1,0.9,0.2,1.3
			c0.2,0.5,0.6,0.8,1.1,0.8c1.2,0.2,2.3,0.4,3.5,0.6c3.3,0.4,6.6,0.6,9.9,1c2.6,0.4,5.2,0.8,7.6,1.5c6.1,1.8,12.2,3.7,18.3,5.6
			c0.4,0.1,0.8,0.6,1,1c0.7,1.8,1.3,3.6,1,5.5c-0.2,0.9-0.3,1.9-0.2,2.8c0.1,4.6,0,10.6-0.5,15.5c-0.4,3.8-0.7,7.5-0.2,11.3
			c0.1,0.9,0.1,1.9,0,2.8c-0.5,3.8-0.3,7.6-0.3,11.3c0,2.1,0,4.2-0.5,6.3c-0.2,0.9-0.2,1.9-0.2,2.8c0.2,2.6,0.3,5.2-0.1,7.8
			c0,0.2-0.1,0.5-0.1,0.7c0.1,8.1-0.8,16.1-1,24.1c0,1.4,0.1,2.8,0,4.3c-0.1,1.9-0.3,3.8-0.5,5.6c-0.1,0.7-0.2,1.5-0.6,2
			c-1.7,2.3-2.6,5.1-4.6,7.1c-1.5,1.5-2.9,3.1-4.2,4.8c-1.6,2.1-3.4,3.9-5.9,4.9c-1.5,0.6-2.8,1.7-4.2,2.6c-6.3,4.2-5.5,4.5-15,5.5
			c-6.2,0.6-12.3,0.6-18.4,0c-3.3-0.3-6.5-1.1-9.7-1.9c-1.1-0.3-2.2-0.9-3.2-1.5c-1.8-1.1-3.5-2.4-5.4-3.4c-5-2.5-8.9-6.3-12.3-10.5
			c-2.9-3.5-5.3-7.3-7.3-11.3c-1.8-3.6-3.5-7.2-5.3-10.8c-1.3-2.6-2-5.3-2.5-8.1c-0.3-1.5-0.2-2.8,0.3-4.2c0.5-1.3,0.9-2.7,1.4-4
			c1-3.2,2.6-6.1,4.6-8.8c2.2-3,5.4-4.5,9.1-5c4.8,0.3,9.4-0.9,14.1-1.3c2.4-0.2,4.6-0.9,6.8-1.8c0.4-0.2,0.7-0.6,1-0.9
			c0.1-0.2,0.3-0.5,0.2-0.6c-0.1-0.2-0.4-0.4-0.5-0.4c-2.3,0.1-4.6,0.6-7,0.8c-2.1,0.2-4.2,0.6-6.3,1.1c-2.3,0.5-4.7,0.4-7.1,0.4
			c-1.7,0-3.3-0.2-5-0.3c-1.2-0.1-2.3-0.4-3.4-0.9c-3.7-1.6-7.2-3.7-11-4.9c-3.2-2-6.6-3.8-9.3-6.4c-0.9-0.8-1.7-1.7-2.5-2.5
			c-2.2-2.1-7.8-8.1-9.7-10.2c-2.1-2.3-3.3-5.2-5.1-7.7c-1.6-3.7-4-7-6.2-10.3c-2.2-3.3-3-7-2.7-10.8c0.2-3.8,0.8-7.5,1.3-11.3
			c0.4-2.6,1.2-5.1,2.4-7.4c1.9-4,4.1-8,6.2-12c0.5-1,1.2-2,2-3c3.5-4.2,7-8.4,11.3-11.7c0.7-0.6,1.6-1.1,2.5-1.4
			c3.2-0.8,6.4-1.6,9.8-1.6c2.7,0.1,5.2,0.6,7.5,1.8c2.3,1.2,4.8,2.1,6.7,3.9c0.5,0.5,1.2,0.9,1.9,1c1.7,0.3,3.1,1.1,4.3,2.3
			c2.2,2.2,5,3.5,7.7,5.1c1.6,0.9,3.2,2.1,5.1,2.4c0.2,0,0.4-0.2,0.6-0.3c0.3-0.3,0.5-1,0.1-1.2c-2.1-1.9-4.3-3.8-6.5-5.5
			c-3.2-2.4-6.3-5-9.4-7.6c-2.9-2.5-5.2-5.5-7.6-8.4c-0.4-0.5-0.9-1.2-1.1-1.8c-0.9-2.4-1.7-4.9-2.7-7.3c-0.4-1.1-0.6-2.3-0.8-3.4
			c-0.2-1.4-0.3-2.8-0.6-4.2c-1.3-5.8-0.2-11.3,2.2-16.6c3.2-7.2,7.4-13.7,13.4-19c2.5-2.2,4.9-4.4,7.5-6.5
			c5.4-4.4,11.3-7.8,17.8-10.1c0.9-0.3,1.8-0.8,2.7-0.9c2.6-0.4,5.1-1.2,7.5-2.2c1.3-0.5,2.7-0.8,4.1-1.1c1.9-0.4,3.8-0.2,5.6,0.3
			c0.7,0.2,1.3,0.5,1.9,0.9c0.7,0.6,1.4,1.3,2.1,2c1.7,1.9,3.4,3.9,5.1,5.9c1,1.1,1.6,2.3,1.6,3.8c0,0.7,0.3,1.4,0.5,2.1
			c0.1,0.2,0.3,0.3,0.4,0.5c0.3,0.4,0.7,0.5,1.3,0.3c0.5-0.1,0.8-0.3,1-0.8c0.4-0.9,0.5-1.8,0.3-2.8c-0.4-3,0.7-5.6,1.8-8.2
			c0.8-1.9,1.9-3.9,3.5-5.3c1.6-1.5,2.4-3.5,3.9-5.1c1.5-1.5,2.9-3.1,4.3-4.7c0.6-0.7,1.2-1.6,1.9-2.1c4-2.6,7.3-6,11.7-8
			c1.5-0.7,3-1.5,4.3-2.5c2.8-2,5.9-3,9-4c0.9-0.3,1.9-0.4,2.8-0.5c3.3-0.2,6.6-0.3,9.9-0.4c2.4-0.1,4.7-0.1,7.1-0.2
			c0.7,0,1.4-0.1,2.1,0c2.4,0.2,4.8,0.2,7,0.8c4.6,1.1,9.4,1.3,13.8,3.2c4.8,2,9.4,4.4,14,6.9c1.7,0.9,3.1,2.1,4.6,3.3
			c1.1,0.9,2.1,1.9,3.3,2.7c3.7,2.8,6.2,6.4,8.5,10.4c2.3,4.1,4.4,8.4,6.2,12.7c3.6,8.7,5.2,17.7,5,27c-0.1,3.8-1.2,7.5-2,11.2
			c-0.2,0.7-0.5,1.3-0.8,2c-1.1,2.3-2.9,4.4-3.3,7c-1.1,2.1-2.2,4.2-3.3,6.3c-0.1,0.3,0.3,0.7,0.8,0.8c1.2,0.1,2.4,0.1,3-1.2
			c0.3-0.6,0.7-1.3,1.1-1.8c4-4.6,3.2-4.6,8.8-2.3c0.9,0.3,1.7,0.8,2.6,1.2c0.7,0.3,1.4,0.2,2.1,0.2c0.7,0,1.5,0.4,1.8,1
			c0.8,1.8,2.1,3.1,3.8,4.1c0.8,0.5,1.5,1.3,1.8,2.1c0.8,2.2,2.1,4.2,3.5,6.2c2.3,3.3,4,7,5.2,10.8c1.5,4.7,2.9,9.5,4.7,14.1
			c0.8,2.2,1.3,4.5,1.5,6.9c0.2,2.4,0.4,4.7,0.7,7.1c0.7,5.5-0.1,10.9-0.9,16.3c-1,2.9-2,5.8-2.8,8.8c-1.9,6.8-6.1,12.2-11.2,17
			c-1.4,1.3-2.9,2.4-4.6,3.4c-1.6,0.9-3.4,1.8-4.8,3c-2.9,2.5-6.2,4.3-9.7,5.9c-0.6,0.3-1.3,0.7-1.8,1.1c-0.3,0.3-0.5,0.8-0.6,1.2
			c0,0.5,0.3,0.9,0.8,1.1c0.4,0.2,0.9,0.4,1.3,0.5c1.4,0.1,2.8,0.2,4.2,0.3c2.1,0.1,4.2,0.6,6.3,1.1c2.2,0.6,3.8,1.7,4.7,3.9
			c0.8,2,2.1,3.8,4,4.9c2.3,1.3,3.3,3.3,3.7,5.7c0.2,1.2,0.4,2.3,0.6,3.5c0.2,0.9,0.1,1.9,0.5,2.8c1.1,2.7,1.1,5.6,1.2,8.4
			c0.3,7.1-0.6,14.1-2.6,21c-1.2,4.3-2.5,8.6-4.6,12.7c-1,1.9-2.1,3.7-3.5,5.3c-2,2.3-4,4.6-6.5,6.5c-0.4,0.3-0.8,0.6-1.1,0.9
			c-5,5.3-11.7,7.9-18.2,10.7c-0.4,0.2-0.9,0.4-1.4,0.4c-3.1,0.3-6,1.2-8.9,2.1c-3.4,1-7,1.1-10.6,0.9c-1.6-0.1-3.3-0.3-4.9-0.8
			c-3.4-1.1-6.8-1.9-10.4-2.3c-4.3-0.5-8.3-2.1-12-4.2c-1.6-0.9-3-2.2-4-3.9c-1.3-2.3-3.3-4-5.5-5.4c-1.2-0.8-2.4-1.5-3.7-2.2
			c-1.1-0.6-1.9-1.4-2.6-2.4c-1-1.7-2.4-2.9-4-4c-1.4-0.9-2.5-2.2-3.5-3.5c-0.4-0.6-0.7-1.3-1.2-1.7c-4.5-3.9-3.8-6.4-4.6-12.2
			c-0.3-2.1-0.1-4.3,0-6.4c0.3-3.3-0.3-6.6,0.5-9.9c0.2-0.7,0-1.4-0.1-2.1c-0.8-4.7-1.2-9.4-1.3-14.1c-0.1-1.9-0.4-3.8-0.6-5.6
			c-0.1-1.2-0.1-2.4-0.1-3.5c0-0.7,0.3-1.4,0.8-1.9c2.2-1.8,4.4-3.5,7-4.8c3.2-1.5,6.4-3.1,9.4-5.1c3-1.9,6.4-3.1,9.6-4.5
			c1.9-0.8,3.9-1.6,5.9-2.4c2.8-1.2,5.8-2.1,8.7-3.1c0.9-0.3,1.8-0.1,2.5,0.8c0.3,0.4,0.6,0.7,0.9,1.1c0.5,0.4,1.6,0.1,1.7-0.5
			C394.1,268.3,393.9,267.3,394.7,266.6z"/>
		<path fill-rule="evenodd" clip-rule="evenodd" fill="#FFFFFF" d="M334.3,361.4c-0.5,3.3-0.7,6.6-0.9,9.9c-0.1,2.4-0.5,4.7-0.9,7
			c-0.4,2.1-0.8,4.2-0.8,6.3c0,2.4-1.1,4.6-1.1,7c0,2.4-0.5,4.7-0.9,7c-0.8,5.1-1.6,10.3-2.2,15.5c-0.6,4.7-1.6,9.3-2.9,13.9
			c-1,3.4-2,6.8-2.9,10.2c-0.5,1.8-1,3.7-1.2,5.5c-0.6,5.2-2.2,10.2-3.2,15.3c-0.1,0.6-1.2,1.4-1.6,1.1c-1.6-1-3.4-1.5-5.3-1.8
			c-1.4-0.2-2.8-0.7-4.1-1.2c-1.6-0.6-3-1.3-4.6-1.9c-1.6-0.5-3.2-0.9-4.8-1.3c-0.4-0.1-0.9-0.3-1.3-0.6c-0.4-0.3-0.8-0.6-1-1
			c-0.6-1.5-1.2-3.1-1.7-4.6c-0.1-0.4-0.1-0.9-0.1-1.4c0.3-2.3,0.3-4.7,1.9-6.7c0.4-1.3,1.1-2.7,1-4.1c0-0.4-0.3-0.8-0.5-1.1
			c-0.4,0.2-0.8,0.4-1.2,0.7c-0.2,0.1-0.3,0.3-0.4,0.5c-0.9,1.4-1.9,2.7-2.8,4.1c-1.3,1.8-2.8,3.1-4.8,4c-2.4,1.1-4.6,2.5-6.5,4.3
			c-1.4,1.3-3,2.2-4.8,3.1c-2.1,1.1-4.2,2.2-6.2,3.4c-2.7,1.6-5.7,2.3-8.6,3.1c-0.9,0.2-1.9,0.3-2.8,0c-3.4-1.1-7-1.2-10.3-2.7
			c-2.8-0.5-5.6-1-8.4-1.4c-1.6-0.3-3.3-0.5-4.9-0.8c-1.2-0.2-2.2-0.7-3.3-1.4c-1.8-1.2-3.7-2.2-5.5-3.3c-1-0.6-2-1.2-2.9-2
			c-3.4-3-6.2-6.5-8.8-10.1c-1.6-2.1-2.1-4.7-2.2-7.4c0-0.4,0.8-1.6,1.2-1.6c2.3-0.5,4.6-0.9,7-1.4c1.4-0.3,2.7-0.9,3.9-1.6
			c1.3-0.7,2.3-1.6,3.2-2.8c1.4-1.9,2.8-3.8,4.1-5.8c0.6-2.5,1.2-5,1.7-7.6c0.3-1.9,0.5-3.8,1.2-5.5c0.4-0.9,0.4-1.8,0.2-2.8
			c-0.5-3.3-0.7-6.6-0.6-9.9c0.1-2.8-0.3-5.7-1.1-8.4c-0.7-2.2-0.5-4.7-1.8-6.8c-0.1-2.4-0.9-4.6-1.5-6.9c-0.9-3.8-2.7-7.1-5.1-10
			c-2-2.4-4.1-4.6-6.3-6.8c-1.5-1.5-3.1-2.9-4.5-4.5c-1.4-1.6-3-3-4.8-4.2c-1-0.6-1.8-1.5-2.8-2.2c-0.7-0.6-1.4-1.3-2.2-1.7
			c-2.2-1.3-4.6-2.4-6.8-3.8c-2-1.3-3.8-2.8-6.1-3.6c-1.4-0.5-2.5-1.3-3.3-2.6c-1-1.7-2.8-2.5-4.1-3.9c-1.1-1.3-2.5-2.1-4-2.9
			c-1.2-0.7-2.5-1.4-3.5-2.3c-3.2-2.9-7-4.9-10.7-7c-3.9-2.2-7.9-4.3-11.8-6.5c-0.6-0.3-1.2-0.7-1.8-1.2c-2.9-2.1-5.7-4.2-8.5-6.4
			c-0.9-0.7-0.8-1.7,0.2-2.2c1.9-1,3.7-2,5.5-3.2c2-1.3,3.9-2.7,5.1-4.8c0.1-0.2,0.3-0.3,0.5-0.5c0.9-0.8,2.1-1.3,3.3-1
			c3,0.8,5.9,1.7,8.8,2.8c1.5,0.6,3,1.4,4.3,2.4c2.9,2.1,6.1,3.6,9.1,5.6c0.8,0.5,1.7,0.9,2.5,1.3c1.9,0.7,3.7,0.5,5.4-0.6
			c0.6-0.4,1.2-0.8,1.7-1.3c1.7-1.7,3.3-3.4,5-5.1c1.2-1.2,2.3-2.4,3.5-3.5c2.5-2,4-4.6,5.4-7.4c0.2-0.4,0.2-0.9,0.3-1.4
			c0.1-1-0.3-1.9-1.1-2.5c-1.1-0.8-2.4-1.6-3.8-1.7c-3.1-0.4-6-1.2-8.7-2.8c-0.6-0.4-1.3-0.5-2-0.7c-4.3-1.4-8.5-2.9-12.3-5.4
			c-0.4-0.3-0.8-0.5-1.2-0.7c-1.8-0.8-3.6-1-5.5-0.5c-0.9,0.3-1.9,0.6-2.4,1.4c-1.1,1.9-2.7,3.2-4.3,4.6c-0.9,0.8-1.8,1.7-2.3,2.7
			c-0.9,2-2.3,3.6-3.7,5.2c-1.1,1.3-2.1,2.5-3.3,3.7c-1.2,1.3-1.8,2.7-2.2,4.4c-0.3,1.5-1.2,2.5-2.5,3.3c-1.2,0.7-2.5,1.3-3.8,1.9
			c-2.7,1.4-5.5,1.2-8.3,0.7c-0.7-0.1-1.3-0.4-2-0.8c-1.7-0.9-3.3-1.9-4.9-2.8c-3.8-2-8-3-12.3-2.8c-2.8,0.1-5.7,0.4-8.4,1.1
			c-0.9,0.2-1.9,0.5-2.8,0.2c-0.4-0.1-1-0.3-1.2-0.7c-1-1.6-1.5-3.4-1.8-5.3c-0.2-1.4-0.5-2.8-1.1-4.1c-0.5-1.1-0.6-2.3-0.4-3.5
			c0.4-3.3,0.8-6.6,1.4-9.8c0.4-2.6,1.2-5,1.7-7.6c0.4-2.1,1.4-4,2.3-6c0.4-0.9,0.9-1.7,1.5-2.4c1.4-1.9,2.9-3.8,4.3-5.7
			c1.7-2.3,3.8-4.2,6.2-5.8c2.7-1.9,5.7-3.4,8.6-5c1.5-0.8,3.1-1.1,4.8-0.6c1.4,0.4,2.7,0.7,4.1,1.1c1,0.3,1.7,0.9,2.1,1.8
			c0.5,1.1,0.8,2.2,1.6,3.1c0.1,0.1,0.5,0.1,0.7,0.1c0.2,0,0.4-0.2,0.5-0.3c0.1-0.2,0.3-0.4,0.3-0.7c0-4.3,0.6-8.5,1-12.7
			c0.6-5.8,3.1-14,6.7-20.1c1.3-2.2,2.6-4.5,4-6.7c1.3-2,2.7-3.9,4.5-5.5c1.2-1.1,2.4-2.3,3.4-3.6c1-1.3,2.3-2.4,3.6-3.4
			c2.6-2.1,5.5-3.6,8.7-4.7c3.8-1.4,7.4-3.1,11.2-4.5c3.3-1.3,6.6-2.4,10.2-2.9c3.3-0.5,6.6-0.9,9.8-1.6c6.8-1.3,13.7-0.9,20.5-0.7
			c1.2,0,2.3,0.3,3.5,0.6c2.7,0.8,5.3,1.9,7.9,3.2c0.4,0.2,0.9,0.5,1.1,0.9c1,1.9,1.9,3.8,2.8,5.7c0.1,0.2-0.1,0.5-0.2,0.6
			c-0.3,0.4-0.5,0.9-0.9,1c-3.1,1.2-6.1,2.6-9.3,3.4c-2,0.5-4,1.5-5.9,2.3c-2.7,1.1-4.9,2.8-6.6,5.2c-2.1,2.9-4.4,5.6-6.6,8.3
			c-1.2,1.5-2.3,3-2.8,4.9c-0.2,0.9-0.7,1.8-1.3,2.5c-2.7,3.4-4.1,7.4-6.3,11.1c-1.3,2.3-1.8,4.9-2.2,7.5c-0.5,3.7-0.9,7.5-1.2,11.3
			c-0.2,1.9,0.1,3.7,0.5,5.6c1,4.9,2.8,9.5,5.5,13.8c0.9,1.4,1.6,2.9,2.3,4.4c0.9,1.9,1.9,3.8,3.1,5.6c2.1,3.1,4.5,6.1,6.7,9.2
			c0.3,0.4,0.6,0.7,1,1c1.6,1.4,3.4,2.6,4.9,4.1c1.3,1.4,2.8,2.5,4.5,3.5c2,1.2,4.1,2.3,6,3.8c1.5,1.2,3.2,1.9,5,2.6
			c1.1,0.4,1.7,1.7,1.5,2.9c-0.1,0.5-0.1,0.9-0.2,1.4c-0.2,0.7-0.4,1.4-0.7,2c-2.3,4.1-2.3,8.6-2.5,13.1c0,0.9,0.2,1.9,0.3,2.8
			c0.4,2.3,1.1,4.6,2,6.8c0.6,1.5,1.4,3,1.6,4.7c0.1,0.5,0.2,1,0.5,1.3c1.6,2.4,2.2,5.2,3.8,7.6c0.8,1.2,1.4,2.4,1.8,3.8
			c0.3,0.9,0.8,1.7,1.4,2.5c1,1.3,1.8,2.7,2.6,4.2c1.3,2.8,3.7,4.9,5.1,7.6c0.4,0.8,1.3,1.3,2.1,1.9c2.2,1.8,4.5,3.4,6.5,5.5
			c0.6,0.7,1.5,1.2,2.3,1.7c1.8,1.1,3.7,2.1,5.4,3.3c2.4,1.7,5.2,2.3,7.9,2.8c0.4,0.1,0.9-0.1,1.4-0.2c1.2-0.4,2.3-0.4,3.5-0.1
			c0.9,0.3,1.9,0.3,2.7,0.7c2,1.1,4.1,1.2,6.2,1.2c2.4,0,4.7-0.1,7.1-0.3c2.4-0.2,4.6-0.5,7-0.1c2.8,0.5,5.6-0.4,8.5-0.7
			c0.5,0,0.9-0.2,1.3-0.5c3.1-1.8,6.3-3.2,9.2-5.3c2.9-2.1,6.3-3.2,9.7-4.3c0.5-0.2,1.6,0.5,1.6,1
			C334.1,360,334.2,360.7,334.3,361.4z"/>
		<path fill-rule="evenodd" clip-rule="evenodd" fill="#FFFFFF" d="M154.2,330.2c5.1-0.6,10-0.2,14.9,0.8c2.1,0.4,4.2,0.4,6.3,0.5
			c1.7,0.1,3.3,0.1,4.9,0.3c4.3,0.6,8.2,2,11.9,4.4c2.2,1.4,4.5,2.7,6.7,4c0.8,0.5,1.6,1.1,2.3,1.6c1.5,1.1,3,2.3,4.5,3.4
			c0.7,0.6,1.5,1.1,2.2,1.8c3.9,3.8,7.9,7.5,11.4,11.7c2.9,3.5,5,7.4,6.2,11.8c0.5,1.9,0.8,3.7,0.3,5.6c0,3.8-1,7.5-2,11.1
			c-0.9,3.2-2.4,6.2-4.7,8.6c-0.3,0.3-0.6,0.7-0.9,1.1c-1.3,1.8-3.1,2.9-5.1,3.7c-4.6,1.8-9.3,3.3-14.3,4.1c-3,0.5-6.1,0.8-9,1.7
			c-0.7,0.2-1.4,0.3-2.1,0.3c-2.6,0-5.2,0.5-7.7,1c-4.2,0.8-8.5,0.8-12.7-0.1c-1.2-0.3-2.3-0.5-3.5-0.7c-1.6-0.2-3.3-0.2-4.9-0.6
			c-1.3-0.4-2.5-1.3-3.9-1.8c-1.8-0.6-3.6-1.2-5.5-1.5c-2.1-0.4-4.1-1.1-6-2c-3.2-1.5-6.4-3-9.6-4.6c-0.8-0.4-1.6-1-2.2-1.7
			c-1.3-1.4-2.6-2.8-4.2-3.7c-0.8-0.5-1.5-1.1-2.2-1.8c-1.4-1.6-2.9-3.1-4.8-4.1c-0.4-0.2-0.8-0.5-1.1-0.9c-2.5-2.9-4.4-6.1-5.2-9.9
			c-0.3-1.4-0.3-2.8-0.5-4.2c-0.2-2.4,0-4.7,0.7-7c1.1-3.4,2.2-6.7,3.4-10.1c0.8-2.2,2.1-4.2,3.5-6.1c0.4-0.6,0.9-1.1,1.5-1.5
			c2.2-1.7,4.3-3.7,6.3-5.6c1.9-1.8,4.1-3.2,5.8-5.2c1-1.1,2.2-1.7,3.4-2.5c1.6-1.1,3.4-1.6,5.3-1.7c2.1-0.1,4.3-0.1,6.4-0.2
			C151.5,330.1,152.9,330.2,154.2,330.2z"/>
		<path fill-rule="evenodd" clip-rule="evenodd" fill="#FFFFFF" d="M91.5,400c-2.1,0-4.3,0.1-6.4,0.1c-1.4,0-2.8,0-4.2,0.2
			c-2.6,0.3-5.2,0.3-7.8-0.2c-1.2-0.2-2.3-0.3-3.5-0.3c-6.6-0.1-13.2-0.1-19.8-0.2c-4.7-0.1-9.5-0.1-14.2-0.4
			c-4.3-0.3-8.3-1.5-12.1-3.7c-2.8-1.6-3.8-4.1-3.8-7.1c0-0.7,0.2-1.4,0.2-2.1c0.1-1.4,0.3-2.8,0.1-4.2c-0.3-4.4,1.1-8.4,2.6-12.3
			c0.3-0.6,0.6-1.3,1.2-1.8c1.5-1.3,2.3-3,3.1-4.7c0.3-0.6,0.6-1.3,1.1-1.8c3.3-3.7,5.5-8.2,8.5-12.2c0.7-0.9,1.5-1.8,2.4-2.6
			c1.8-1.6,3.3-3.4,4.8-5.1c4.4-4.9,8.9-9.8,14.8-13.1c0.8-0.5,1.6-1,2.3-1.6c4.4-3.3,9.4-4.2,14.8-3.6c0.9,0.1,1.9,0.4,2.8,0.4
			c4.3,0,8.3,1.4,12.4,2.7c3.8,1.2,7.7,2.1,11.5,3.5c3.1,1.1,6.1,2.4,9,4.1c3,1.8,6.1,3.6,9.4,4.8c1,0.4,1.2,2.2,0.3,3
			c-0.9,0.8-1.8,1.5-2.7,2.3c-0.8,0.6-1.3,1.4-1.4,2.4c-0.1,1-0.3,1.9-0.9,2.7c-1.5,1.9-2.1,4.2-3.1,6.3c-1.5,3-2.2,6.3-2.7,9.5
			c-0.5,3-0.5,6.1,0.5,9.1c0.3,0.9,0.5,1.8,0.7,2.7c0.3,1.2,0.7,2.2,1.4,3.2c0.6,1,1.3,2,1.8,3c0.9,1.7,2.1,3.1,3.7,4.3
			c1,0.7,1.9,1.4,2.8,2.2c0.8,0.8,1.6,1.8,2.3,2.7c0.7,0.9,0.4,2.3-0.7,3c-0.4,0.3-0.8,0.6-1.2,0.8c-1.3,0.5-2.6,1.2-4,1.4
			c-3.7,0.7-7.4,1.5-11.2,1.6C101.4,399.5,96.5,399.8,91.5,400C91.5,400,91.5,400,91.5,400z"/>
		<path fill-rule="evenodd" clip-rule="evenodd" fill="#FFFFFF" d="M414.1,388.9c-0.2,1.1-0.5,3-1,4.8c-0.7,3-1.7,5.9-2.3,8.9
			c-0.6,3-1.8,5.9-2.6,8.8c-1,3.9-3.1,7.4-4.4,11.2c-0.2,0.4-0.5,0.8-0.8,1.2c-3.1,4.1-6.3,8.2-9.8,12.1c-1.3,1.4-2.7,2.7-4.5,3.3
			c-2.5,0.9-4.6,2.3-6.8,3.8c-1.4,0.9-2.9,1.6-4.5,2.1c-3.4,1-6.8,2.1-9.9,3.7c-1.2,0.6-2.7,0.9-4,1.3c-0.8,0.2-1.9-0.4-2.4-1.2
			c-0.2-0.4-0.6-0.8-0.7-1.2c-1.6-5.9-4-11.6-5.2-17.7c-0.2-0.9-0.5-1.8-0.8-2.7c-1.1-3.4-1.6-6.9-1.6-10.5c0-2.4-0.1-4.7-0.8-7
			c-0.3-0.9-0.2-1.9-0.3-2.8c-0.6-3.7-0.4-7.6-1.3-11.2c0.1-2.6-0.2-5.2-0.5-7.8c-0.3-2.3-0.8-4.7-0.8-7c0-2.1,0.3-4.2,0.5-6.3
			c0.3-3.3-0.1-6.6-0.2-9.9c-0.1-3.3-0.4-6.6-0.5-9.9c0-0.7,0.2-1.4,0.2-2.1c0.1-0.4,1.1-1.4,1.5-1.4c1.9-0.2,3.8,0,5.4,1.3
			c0.9,0.7,2,1.4,2.7,2.3c1.5,1.9,3.4,3.3,5.5,4.4c2.3,1.3,4.4,2.8,6.2,4.7c0.8,0.8,1.8,1.5,2.7,2.2c0.7,0.6,1.6,1.1,2.2,1.8
			c3.1,3.6,7.2,5.2,11.7,6.1c2.1,0.4,4.2,0.7,6.3,1.1c1.2,0.2,2.4,0.2,3.5,0.6c3.4,1.2,6.9,1.4,10.5,1.4c1,0,1.8,0.4,2.4,1.2
			c0.4,0.6,0.9,1.2,1.4,1.6C413.9,382,414.3,385,414.1,388.9z"/>
		<path fill-rule="evenodd" clip-rule="evenodd" fill="#095F6B" d="M406.1,235.2c2,1.2,3.1,3.2,5.2,3.9c0.6,0.2,1.1,0.8,1.5,1.4
			c0.9,1.4,1.6,2.9,2.4,4.3c0.4,3.3,1.8,6.3,2.9,9.4c0.3,0.8-0.4,2-1.2,2.3c-0.7,0.2-1.3,0.5-2,0.6c-1.2,0.2-2.3,0.3-3.5,0.3
			c-2.6,0.2-5.1,0.6-7.7,1.1c-3,0.6-6,1.3-8.8,2.6c-1.3,0.6-2.7,0.8-4.1,1.2c-0.7,0.2-2.1-0.7-2.1-1.4c-0.1-1.9-0.3-3.8-0.3-5.6
			c0-1.4-0.1-2.8-0.7-4.1c-0.6-1.4-0.6-2.8,0-4.1c0.8-1.8,1-3.6,1.2-5.5c0.3-2.3,0.7-4.6,1.1-7c0.1-0.5,1.2-1.3,1.6-1
			c3,1.5,6.2,1.9,9.6,1.7C403,235.1,404.6,235.2,406.1,235.2z"/>
		<path fill-rule="evenodd" clip-rule="evenodd" fill="#FFFFFF" d="M401.5,231.9c-0.9,0-1.9,0-2.8,0c-2.5-0.1-4.5-1.2-6.1-3.1
			c-0.6-0.7-1.1-1.6-1-2.6c0.1-1.6,0.3-3.3,0.3-4.9c0-1.2,0.8-2.2,2-2.7c0.4-0.2,0.9-0.2,1.3-0.4c4.4-2.1,9.1-2.2,13.8-2
			c0.7,0,1.4,0.3,2,0.6c0.6,0.3,1.2,0.8,1.7,1.2c2.3,1.7,3.1,4,2.6,6.8c-0.2,1.5-0.9,2.7-2,3.6c-2.6,2.2-5.6,3.5-9,3.5
			C403.4,232,402.4,232,401.5,231.9C401.5,232,401.5,231.9,401.5,231.9z"/>
		<path fill-rule="evenodd" clip-rule="evenodd" fill="#FFFFFF" d="M417.9,218.8c-1.1-0.6-1.2-2-2.2-2.7c-0.8-0.5-1.4-1.2-2-1.9
			c-0.3-0.3-0.2-0.9,0.2-1.3c1.5-1.3,3.3-1.7,5.2-2.1c0.9-0.2,1.9-0.2,2.8-0.3c2.8-0.1,5.5,1.9,6.5,4.6c0.7,2,0.5,3.8-0.9,5.3
			c-1.1,1.3-2.2,2.4-3.4,3.6c-1.6,1.5-4.5,0.8-5.3-1.3c-0.2-0.4-0.3-0.9-0.4-1.3c-0.2-0.9-0.4-1.8-0.6-2.8c0.6,0.3,1.3,0.5,1.9,0.9
			c1.2,0.7,2.2,0.3,3.2-0.4c1-0.8,1-2.2-0.1-2.9c-1.1-0.7-2.4-0.5-3.1,0.4C419,217.4,418.8,218.3,417.9,218.8z"/>
		<path fill-rule="evenodd" clip-rule="evenodd" fill="#54C7E4" d="M423.2,231c0,0.2,0,0.4-0.1,0.5c-0.1,0.2-0.3,0.4-0.5,0.4
			c-3.1,0.9-6.2,1.9-9.3,2.8c-0.2,0.1-0.5,0.1-0.7,0c-0.2-0.1-0.4-0.2-0.6-0.3c-0.3-0.2-0.4-0.8,0-1.1c1.4-1.3,2.8-2.5,4.2-3.6
			c0.3-0.3,0.9-0.4,1.3-0.4c1.6,0,3.3,0.1,4.8,0.8C422.5,230.2,422.8,230.7,423.2,231z"/>
		<path fill-rule="evenodd" clip-rule="evenodd" fill="#0A5F6B" d="M400.9,209.5c1,0,1.9,0,2.8,0c1,0,1.8-0.4,2.5-1
			c0.5-0.4,1-1,1.8-0.9c1.5,0.2,2.7-0.5,3.9-1.2c0.6-0.4,1.4,0.1,1.6,0.7c0.2,0.8,0,1.6-0.5,1.8c-1.1,0.5-2.1,1.1-3.2,1.5
			c-4.4,1.6-3.9,1.2-8.7-0.2C401.1,210.1,401,209.8,400.9,209.5z"/>
		<path fill-rule="evenodd" clip-rule="evenodd" d="M428.3,132.3c0,0.2,0,0.5-0.1,0.7c-0.2,0.4-0.4,0.8-0.7,1.1
			c-0.3,0.3-1.6-0.4-1.8-0.9c-0.1-0.2-0.2-0.4-0.3-0.7c-1-4.7-3.5-8.7-5.8-12.8c-0.6-1-1.3-2-2-2.9c-1.3-1.4-2.4-2.9-3.2-4.6
			c-0.3-0.7-0.9-1.1-1.5-1.5c-0.8-0.5-1.7-0.9-2.3-1.7c-2.1-2.8-5.1-4-8-5.5c-2.3-1.2-4.4-2.6-7-3.3c-0.2-0.1-0.4-0.3-0.6-0.4
			c-0.5-0.2-0.8-1.3-0.7-1.9c0.2-0.7,1-1.2,1.6-1c3,0.7,5.9,1.6,8.6,3c1.3,0.6,2.5,1.3,3.3,2.6c0.9,1.4,2.3,2.4,3.8,3.1
			c0.8,0.4,1.7,0.8,2.5,1.3c0.8,0.5,1.5,1.2,2,1.9c0.7,0.9,1.2,2.1,2,2.9c2.1,1.9,3.4,4.5,4.9,6.8c1.6,2.6,3,5.3,4.2,8.1
			C428.1,128.6,428.3,130.4,428.3,132.3z"/>
		<path fill-rule="evenodd" clip-rule="evenodd" d="M449.6,327.2c0.1,2.4,0.1,4.1-0.7,5.6c-0.7,1.5-1.4,3-1.9,4.6
			c-0.5,1.6-1.2,3.1-2.1,4.5c-0.6,1-1.1,2.1-1.7,3.1c-0.1,0.2-0.2,0.4-0.3,0.6c-1.9,3-4.4,5.5-6.8,8.1c-1.6,1.7-3.6,3.1-5.7,4.1
			c-0.6,0.3-1.3,0.5-2,0.6c-0.4,0.1-0.9,0-1.4,0c-0.9-0.1-1.5-0.7-1.3-1.3c0.1-0.4,0.3-1,0.6-1.2c0.5-0.4,1.2-0.9,1.8-1
			c1.9-0.4,3.5-1.3,5-2.5c3.2-2.5,5.9-5.4,7.8-9c0.6-1.3,1.3-2.5,2.1-3.7c1.6-2.4,2.5-5.1,3.2-7.8c0.5-2.3,1.7-4.4,1.5-6.9
			c0-0.1,0.4-0.4,0.5-0.4c0.4,0.1,1,0.3,1.1,0.6C449.6,326.1,449.6,327,449.6,327.2z"/>
		<path fill-rule="evenodd" clip-rule="evenodd" d="M231.7,197.7c1.6,0.2,2.8,0.1,3.8,0.7c0.4,0.2,0.7,1.5,0.2,1.8
			c-0.4,0.3-0.7,0.7-1.1,0.8c-1.6,0.3-3.2,0.5-4.8,0.7c-1.4,0.2-2.7,0.7-3.9,1.4c-3.5,2.1-6.4,4.6-8.9,7.9c-2.3,3-4.3,6.1-5.8,9.5
			c-0.1,0.3-0.7,0.5-1.1,0.7c-0.2-0.4-0.5-0.8-0.6-1.2c-0.1-0.4-0.2-1,0-1.4c1.6-2.9,3.2-5.7,4.8-8.6c0.5-0.8,1.1-1.5,1.8-2.2
			c1.8-1.9,3.6-3.7,5.4-5.5c2.2-2.3,5-3.5,7.8-4.5C230.2,197.7,231.2,197.8,231.7,197.7z"/>
		<path fill-rule="evenodd" clip-rule="evenodd" d="M295.6,121.4c-2.6-0.4-5.4-0.3-8.1,0.8c-1.7,0.7-3.6,1.2-5.3,2
			c-2.9,1.5-6.2,2.4-8.8,4.4c-0.7,0.6-1.6,1-2.4,1.4c-1.9,1-3.5,2.3-4.9,3.9c-0.4,0.5-1.2,0.5-1.9,0.1c-0.6-0.4-0.9-1.3-0.6-1.9
			c0.2-0.4,0.4-0.9,0.7-1.2c0.7-0.6,1.5-1.2,2.3-1.6c1.7-0.9,3.4-1.6,5.1-2.4c0.8-0.4,1.8-0.8,2.4-1.4c3.3-3.3,7.8-4.3,11.7-6.4
			c0.6-0.3,1.3-0.5,2-0.6c2.8-0.4,5.6-0.6,8.4-0.4c1.1,0.1,2.2,1,2.5,2.1c0.2,0.6-0.5,1.7-0.9,1.6
			C297.2,121.7,296.5,121.6,295.6,121.4z"/>
		<path fill-rule="evenodd" clip-rule="evenodd" d="M246.7,316.4c0.2-4.2,0.6-7.4,2.3-10.4c0.2-0.4,0.6-0.8,0.9-1
			c0.4-0.2,0.9-0.1,1.3,0c0.1,0,0.3,0.4,0.3,0.6c0.1,0.5,0.3,1,0.1,1.4c-1,2.5-1,5.1-1.2,7.6c-0.1,1.2,0,2.3,0.2,3.5
			c0.2,0.9,0.3,1.9,0.3,2.8c-0.1,2,0.4,3.7,1.5,5.3c0.5,0.8,1,1.6,1.3,2.5c0.6,2.5,2.3,4,4.3,5.4c0.4,0.3,0.5,0.8,0.2,1.1
			c-0.3,0.4-0.8,0.6-1.3,0.4c-1.4-0.3-2.6-1.1-3.7-1.9c-1-0.7-1.8-1.6-2.1-2.8c-0.6-2.1-1.3-4-2.5-5.8c-0.4-0.6-0.5-1.3-0.7-2
			c-0.4-1.6-0.7-3.2-1-4.8C246.8,317.4,246.7,316.5,246.7,316.4z"/>
		<path fill-rule="evenodd" clip-rule="evenodd" d="M463.7,234.8c0,5.7-1.4,11.2-3.1,16.6c-0.6,1.8-1.4,3.5-2.7,5
			c-0.1,0.2-0.3,0.4-0.6,0.4c-0.4,0.1-1,0.3-1.3,0.1c-0.3-0.2-0.6-0.7-0.6-1.2c-0.1-0.4,0.1-0.9,0.2-1.3c0.7-1.7,1.5-3.5,2.3-5.1
			c0.8-1.5,1.3-3,1.5-4.7c0.1-1.2,0.3-2.3,0.7-3.5c0.8-2.5,1-5.1,0.8-7.7c0-0.7-0.1-1.4-0.1-2.1c0.1-3.1-0.7-6.1-1.6-9
			c-0.3-0.9-0.6-1.8-0.8-2.7c-0.1-0.5,0-1,0.4-1.2c0.2-0.1,0.7,0.5,1,0.7c0.2,0.1,0.3,0.4,0.4,0.6c1.3,3.5,2.3,7.1,3.1,10.8
			C463.8,231.9,463.6,233.4,463.7,234.8z"/>
		<path fill-rule="evenodd" clip-rule="evenodd" d="M405.5,112.1c1,0.5,2.1,1,3.1,1.5c1.1,0.5,2,1.2,2.6,2.2c1.3,2,2.6,3.9,3.8,5.8
			c0.4,0.6,0.4,1.3,0.1,2c-0.2,0.4-0.4,0.8-0.8,1c-0.4,0.2-1,0-1.3-0.3c-0.6-0.7-1.2-1.4-1.7-2.2c-2.1-3.4-4.6-6.4-8.1-8.5
			c-0.6-0.4-0.8-1.1-0.5-1.8c0.2-0.5,0.7-0.5,1.9,0C405.1,111.9,405.3,112,405.5,112.1C405.5,112.1,405.5,112.1,405.5,112.1z"/>
		<path fill-rule="evenodd" clip-rule="evenodd" d="M440.4,327.3c0.7,1.4,0.7,2.8,0.3,4.2c-0.5,1.6-1.1,3.1-1.6,4.6
			c-1.2,3.4-4,7.4-7.1,10.2c-0.1,0.1-0.5,0-0.7,0c-0.6-0.2-1.1-1.2-0.8-1.6c1.3-1.6,2.6-3.3,3.9-4.9c1.7-2,2.8-4.3,3.4-6.8
			c0.2-0.9,0.3-1.8,0.6-2.7c0.1-0.4,0.3-0.9,0.6-1.2C439.4,328.3,439.9,327.8,440.4,327.3z"/>
		<path fill-rule="evenodd" clip-rule="evenodd" d="M231.7,207.6c-0.1,0.2-0.1,0.5-0.3,0.6c-0.3,0.3-0.6,0.7-1,0.9
			c-1.6,0.9-3.3,1.7-4.9,2.8c-1.6,1.1-2.5,2.7-4,3.8c-0.1,0.1-0.5,0-0.7-0.1c-0.2-0.1-0.4-0.4-0.4-0.5c0-2.2,0.9-4.1,2.5-5.6
			c1.9-1.8,4.3-2.8,6.9-3.3c0.4-0.1,0.9,0.1,1.4,0.2C231.7,206.7,231.9,207.1,231.7,207.6z"/>
		<path fill-rule="evenodd" clip-rule="evenodd" d="M289.5,127.9c0.2,0,0.5,0,0.7,0.1c0.4,0.2,0.9,0.5,1,0.8
			c0.1,0.3-0.2,0.9-0.5,1.2c-0.3,0.3-0.8,0.5-1.2,0.6c-1.1,0.3-2.3,0.6-3.4,0.6c-3.7,0.1-6.7,1.7-9.3,4.2c-0.4,0.4-0.9,0.4-1.1-0.1
			c-0.1-0.4-0.2-0.9-0.1-1.3c0.3-1.2,1.2-2,2.2-2.7c1-0.6,2-1.2,3.1-1.6c2.4-0.9,4.9-1.6,7.5-1.9C288.5,127.8,289,127.9,289.5,127.9
			z"/>
		<path fill-rule="evenodd" clip-rule="evenodd" d="M257.5,314.7c0.2,0.1,0.6,0.2,0.6,0.3c0.4,1.6,0.9,3.1,1.1,4.7
			c0.3,1.9,0.9,3.6,2.5,4.8c0.3,0.3,0.5,0.7,0.8,1.1c0.3,0.5,0.1,0.9-0.4,1.1c-0.9,0.4-1.8,0.4-2.6-0.2c-1.4-0.9-2.4-2.2-2.8-3.8
			c-0.3-1.6-0.7-3.2-0.9-4.8c-0.1-0.9,0.1-1.9,0.7-2.6C256.6,315,257.1,314.9,257.5,314.7z"/>
		<path fill-rule="evenodd" clip-rule="evenodd" d="M455.2,236.5c0,2.8-0.5,5.3-1.6,7.6c-0.2,0.3-0.7,0.5-1.1,0.7
			c-0.2,0.1-0.6,0.2-0.7,0.1c-0.3-0.4-0.5-0.8-0.6-1.2c-0.1-0.2-0.1-0.5,0-0.7c1-2.1,1.2-4.4,1.3-6.8c0-0.9,0.2-1.8,0.2-2.7
			c0.1-0.7,0.4-0.9,0.9-0.5c0.4,0.3,0.9,0.5,1,0.9C455,234.9,455,235.8,455.2,236.5z"/>
		<path fill-rule="evenodd" clip-rule="evenodd" d="M201.7,181c0.2,0.6,0,0.9-0.5,1.1c-1.1,0.5-2.3,0.6-3.5,0.5
			c-2.4-0.1-4.7,0.1-7.1,0.4c-4.8,0.6-9.1,2.3-13.6,3.8c-1.1,0.4-2.1,1.1-3,1.8c-2,1.7-3.9,3.4-5.8,5.2c-0.7,0.6-1.2,1.4-1.5,2.3
			c-0.6,1.6-1.4,3-2.6,4.2c-0.4,0.4-0.8,0.5-1.3,0.2c-0.6-0.4-1-1.3-0.8-1.8c0.2-0.4,0.3-0.9,0.6-1.3c0.7-1,1.5-1.9,2-2.9
			c2.9-5.2,7.5-8.4,12.7-10.8c1.7-0.8,3.5-1.4,5.3-1.9c1.3-0.4,2.7-0.7,4.1-0.9c2.1-0.2,4.3-0.1,6.4-0.3c1.9-0.2,3.7-0.7,5.6-0.9
			c0.7-0.1,1.4,0.1,2.1,0.3C201.2,180.1,201.4,180.6,201.7,181z"/>
		<path fill-rule="evenodd" clip-rule="evenodd" d="M226.5,436.3c0.4,0.1,1,0.1,1.3,0.4c1.7,2,3.5,3.8,5.5,5.4
			c1.7,1.4,3.4,2.5,5.4,3.3c4.6,1.9,8.8,4.4,13.5,5.9c0.5,0.2,1.1,1.5,0.8,1.7c-0.4,0.2-0.9,0.5-1.3,0.4c-2.3-0.3-4.6-1.1-6.8-1.9
			c-1.6-0.5-3.1-1.2-4.6-1.7c-2.4-0.8-5.1-1.3-7.2-2.8c-2.5-1.8-4.6-4-6.9-6.1c-0.7-0.7-1-1.6-1.1-2.5c0-0.4,0.1-0.9,0.3-1.3
			C225.6,436.5,226,436.3,226.5,436.3z"/>
		<path fill-rule="evenodd" clip-rule="evenodd" d="M106.9,259.7c0.1-2,0.4-3.9,1-5.7c0.6-1.8,1.3-3.5,2.6-5
			c0.8-0.9,1.5-1.9,2.3-2.7c0.6-0.7,1.3-1.3,2.1-1.9c3.1-2.3,6.4-4,10.1-5c0.4-0.1,0.9,0.2,1.3,0.4c0.6,0.4,0.7,1.3,0.2,1.8
			c-0.3,0.3-0.7,0.7-1,1c-0.2,0.1-0.4,0.3-0.6,0.3c-3.6,0.6-6.6,2.6-9.4,4.7c-1.3,1-2.2,2.3-2.8,4c-1,2.9-2.3,5.7-3.1,8.7
			c-0.1,0.5-1.3,1.1-1.7,1C107.3,261.2,106.8,260.3,106.9,259.7z"/>
		<path fill-rule="evenodd" clip-rule="evenodd" d="M189.8,189.6c0.4,0.2,0.9,0.3,1.3,0.5c0.4,0.2,0.6,0.6,0.6,1.2
			c0,0.2-0.2,0.4-0.4,0.5c-0.4,0.3-0.8,0.6-1.2,0.7c-2.1,0.4-4.1,0.9-6.2,1.2c-2.9,0.4-5.4,1.4-7.4,3.5c-0.5,0.5-1.1,0.8-1.8,1.1
			c-0.5,0.2-0.9,0-1.2-0.5c-0.1-0.2-0.2-0.5-0.1-0.6c1.6-2.6,3.8-4.6,6.8-5.6c2.9-1,5.8-1.7,8.9-1.9
			C189.3,189.6,189.5,189.6,189.8,189.6z"/>
		<path fill-rule="evenodd" clip-rule="evenodd" d="M237,436.2c0.2,0,0.5,0,0.7,0.1c2.5,1.8,5.2,3.2,8.1,4.1c1.5,0.5,3,1.4,4.4,2.1
			c0.5,0.2,0.6,0.7,0.4,1.2c-0.3,0.8-0.9,1.1-1.6,1c-0.2-0.1-0.5,0-0.7-0.1c-2.4-0.8-4.9-1.7-7.3-2.6c-1.6-0.6-3-1.3-4.2-2.6
			c-0.5-0.5-0.8-1.2-1-1.8c-0.2-0.5,0.1-0.9,0.6-1.2C236.6,436.3,236.8,436.2,237,436.2z"/>
		<path fill-rule="evenodd" clip-rule="evenodd" d="M121.5,249.1c0.2,0.5,0.1,0.9-0.2,1.3c-1.8,2.1-3.8,4.1-5.9,5.9
			c-0.1,0.1-0.4,0.1-0.5,0c-0.2-0.2-0.3-0.4-0.3-0.6c0-0.7-0.1-1.5,0.2-2c1.1-2.1,2.6-3.8,4.5-5.3
			C120.1,247.7,121.1,248,121.5,249.1z"/>
		<path fill-rule="evenodd" clip-rule="evenodd" d="M408.2,389.6c0,0.7,0.1,1.2-0.1,1.6c-1.5,4-1.7,8.3-3.5,12.2
			c-0.8,1.7-1,3.6-1.5,5.4c-0.8,2.7-1.9,5.3-3.6,7.6c-1.4,1.9-2.4,4-3.7,6c-0.2,0.3-0.8,0.4-1.2,0.4c-0.1,0-0.3-0.3-0.4-0.5
			c-0.4-0.9-0.5-1.8,0-2.7c1.2-2.3,2.9-4.3,3.8-6.7c0.8-2.2,2-4.2,2.2-6.7c0.1-1.4,0.8-2.7,1.2-4c1.4-4.5,2.7-9,2.9-13.8
			c0-0.4,0.3-0.9,0.4-1.3c0.3-0.8,1.7-1.2,2.3-0.5c0.3,0.3,0.7,0.7,0.8,1.1C408.1,388.4,408.1,389.1,408.2,389.6z"/>
		<path fill-rule="evenodd" clip-rule="evenodd" d="M398.4,392.1c-0.6,3.9-1.6,7.8-3.4,11.4c-0.9,1.9-1.9,3.8-2.8,5.6
			c-0.2,0.4-0.8,0.6-1.2,0.3c-0.4-0.2-0.8-0.6-0.8-0.9c-0.1-0.7-0.1-1.5,0.3-2c3.1-4.6,4.4-9.8,5.2-15.2c0.1-0.9,0.5-1.8,1.2-2.5
			c0.3-0.4,0.7-0.6,1.2-0.4c0.4,0.1,0.7,0.4,0.8,0.9c0,0.2,0,0.5,0,0.7C398.7,390.7,398.5,391.4,398.4,392.1z"/>
		<path fill-rule="evenodd" clip-rule="evenodd" d="M405.1,244.4c0,0.2,0.1,0.5,0,0.7c-0.8,2.9-1.4,5.9-3.1,8.5
			c-0.4,0.6-0.8,1.2-1.4,1.6c-0.3,0.2-0.9,0.2-1.3,0.1c-0.2,0-0.4-0.2-0.6-0.3c-2.4-2.3-4.1-5.1-5.6-8c-0.1-0.2-0.1-0.5,0-0.7
			c0.2-0.4,0.3-0.9,0.7-1.1c0.3-0.2,1-0.1,1.3,0.1c1.3,1,2.4,2.2,3.6,3.3c0.7,0.6,2.1,0.3,2.4-0.4c0.6-1.3,1.1-2.6,1.7-3.9
			c0.1-0.2,0.3-0.4,0.5-0.4c0.4-0.1,0.9,0,1.3,0C404.8,243.9,404.9,244.2,405.1,244.4z"/>
		<path fill-rule="evenodd" clip-rule="evenodd" d="M406.9,224.7c0,0.2,0,0.5-0.1,0.7c-1.1,2.3-3.7,2.7-5.3,1.9
			c-0.7-0.4-1.3-1.7-1-2.4c0.2-0.4,0.3-0.9,0.5-1.3c0.8-1.3,2.3-1.8,3.7-1.2c0.6,0.2,1.3,0.6,1.8,1.1
			C406.7,223.7,406.7,224.3,406.9,224.7z"/>
		<path fill-rule="evenodd" clip-rule="evenodd" d="M417.9,218.8c0.9-0.5,1.1-1.4,1.6-2.2c0.7-1,2-1.1,3.1-0.4
			c1.1,0.7,1.2,2.1,0.1,2.9c-1,0.7-2,1.1-3.2,0.4c-0.6-0.4-1.2-0.6-1.9-0.9L417.9,218.8z"/>
		<circle fill-rule="evenodd" clip-rule="evenodd" cx="198.9" cy="379.5" r="10.4"/>
		<circle fill-rule="evenodd" clip-rule="evenodd" cx="93.8" cy="376.2" r="10.4"/>
	</g>
	<g>
		<path fill-rule="evenodd" clip-rule="evenodd" d="M13.7,167.9c-0.4-1.2-0.8-2.3-1.2-3.4c-1.1-3.7-1.2-7.4,0-11.2
			c0.6-1.8,1-3.6,1.6-5.4c0.7-2.3,2-4.3,3.6-6.1c3.9-4.3,8.5-7.5,13.8-9.8c0.9-0.4,1.8-0.6,2.6-1c2.9-1.3,5.9-1.8,9-1.7
			c1.4,0,2.9,0.2,4.2-0.3c0.4-0.1,0.9-0.4,1.1-0.8c0.9-2.2,2-4.3,2.6-6.6c0.8-2.9,2.2-5.2,4.8-6.7c1-0.6,1.9-1.5,2.6-2.4
			c1.3-1.8,3-3,5.2-3.5c2.4-0.5,4.4-1.6,6.3-3.1c2.8-2.1,5.9-2.8,9.3-3c3.1-0.2,6.1-0.2,9.2-0.2c3.3,0.1,6.6,0.7,9.8,1.3
			c0.7,0.1,1.3,0.5,1.9,0.9c1.2,0.7,2.4,1.4,3.7,2.1c1.1,0.6,2.2,0.7,3.4,0.5c1.9-0.4,3.6-1.1,5-2.4c0.8-0.8,1.6-1.7,2.4-2.6
			c2.1-2,4.3-3.7,7-4.8c2-0.8,3.9-1.7,5.8-2.6c5.3-2.3,10.8-3.2,16.6-2.8c4,0.3,8,1.2,11.9,1.8c1.6,0.3,3.1,1.1,4.6,1.8
			c0.6,0.3,1.3,0.8,1.6,1.3c1.1,1.6,2.6,2.7,4.1,3.9c0.8,0.6,1.3,1.4,1.7,2.2c0.3,0.6,0.5,1.4,0.9,1.9c1.3,1.7,3.2,3,3.5,5.2
			c0.3,1.9,1.3,3.5,1.9,5.3c0.2,0.7,0.4,1.4,0.5,2.1c0.3,1.6,0.5,3.3,0.7,4.9c-0.7,3.5,0.8,7.1-0.2,10.6c-0.1,3.2-1.4,6-2.9,8.6
			c-1.8,3.1-3.6,6.1-6.1,8.7c-1.6,1.7-3,3.7-4.4,5.5c-1.8,2.2-3.5,4.5-5.3,6.6c-0.6,0.7-1.4,1.3-2.1,1.9c-4,3.4-8.4,6.2-13,8.6
			c-0.6,0.3-1.3,0.6-1.9,0.9c-5.2,3-10.9,4.6-16.7,5.8c-5.1,1.1-10.3,1.4-15.4-0.3c-2.7-0.9-5.5-1.4-8.3-1.9
			c-4.9-0.8-9.7-2.3-14.2-4.5c-3-1.4-6.1-2.5-9.2-3.7c-1.4-0.5-2.8-0.4-4.1,0.3c-1.3,0.7-2.4,1.4-3.6,2.2c-2.5,1.8-4.9,3.8-7.5,5.4
			c-3.2,2.1-6.6,3.8-10.4,4.3c-1.2,0.2-2.3,0.6-3.4,0.9c-1.4,0.3-2.8,0.6-4.2,0.7c-7.3,0.4-9.3,0-15.5-3.6c-3.7-2.1-7.3-4.5-10-7.8
			C16,170.9,14.8,169.4,13.7,167.9z"/>
		<path fill-rule="evenodd" clip-rule="evenodd" d="M24.4,214.2c1.5-1,3-2,4.6-3.1c1.5-1.1,3.1-2.1,4.6-3.2c1.4-1,2.9-1.6,4.6-1.7
			c2.8-0.2,5.6-0.5,8.4,0c0.7,0.1,1.3,1,1,1.5c-0.2,0.4-0.4,0.8-0.8,1.1c-0.4,0.3-0.9,0.4-1.3,0.4c-1.2,0.2-2.3,0.4-3.5,0.5
			c-4,0.2-7.1,2.2-10.2,4.5c-0.5,0.4-1,1-1.3,1.6c-0.5,1-1,2.1-1.4,3.2c-0.5,1.5-1.7,2.2-3,2.8c-0.5,0.3-1.6,0.1-1.9-0.4
			c-0.7-1-1.3-1.9-2-2.9c-1.3-1.8-2.9-3-4.9-3.8c-1.1-0.4-2.2-0.9-3.2-1.5c-2.1-1.1-4.1-0.8-6.1,0.1c-1.1,0.5-1.9,1.4-3.2,1.3
			c-0.2,0-0.4-0.2-0.6-0.4C4.1,214.3,4,214,4,213.9c0.6-1.4,1.8-2.2,3.1-2.7c2.7-1,5.5-1.4,8.3-1c1.9,0.3,3.6,0.9,5.3,1.9
			C21.9,212.8,22.8,214,24.4,214.2z"/>
		<path fill-rule="evenodd" clip-rule="evenodd" d="M85,204.6c1.2-0.2,2.1-1,3-1.7c3.5-2.6,7.4-4.3,11.8-4.1c1.2,0,2.2-0.7,3.4-0.4
			c0.6,0.2,0.8,0.5,0.7,1.1c-0.1,0.4-0.3,1-0.6,1.2c-1,0.6-2.1,1.2-3.2,1.5c-3.2,0.7-5.5,2.6-7.9,4.5c-1.7,1.3-2.8,3.2-3.4,5.3
			c-0.2,0.7-0.5,1.3-1,1.8c-0.7,0.8-2.7,0.7-3.1-0.2c-0.3-0.6-0.6-1.3-0.8-1.9c-1.4-4.2-1.2-3.9-5.3-6c-3.5-1.8-4.5-3.1-10-0.5
			c-0.8,0.4-1.6,1.1-2.6,0.9c-0.2,0-0.4-0.2-0.6-0.4c-0.1-0.1-0.2-0.4-0.2-0.6c0-0.2,0.1-0.5,0.2-0.7c2.3-3.1,5.4-4.5,9.2-4.2
			c0.9,0.1,1.9,0.3,2.7,0.8C79.8,202.5,82.4,203.5,85,204.6z"/>
		<path fill-rule="evenodd" clip-rule="evenodd" fill="#00B0C8" d="M122,176.3c-3.4,0.2-5.9-0.3-8.5-0.9c-4.3-1.2-8.7-2.3-13.1-3
			c-2.8-0.5-5.6-1.1-8.4-1.5c-3.1-0.4-6-1.4-8.8-2.5c-2-0.8-3.9-1.7-5.9-2.4c-2.7-1-5.1-2.4-7.1-4.6c-0.4-0.5-1.2-0.8-1.8-1
			c-0.4-0.1-0.9,0.1-1.3,0.3c-0.5,0.2-0.7,0.7-0.5,1.2c0.1,0.2,0.1,0.5,0.2,0.7c0.9,1.9,0.4,3.7-0.4,5.5c-0.3,0.6-0.8,1.2-1.3,1.7
			c-2.4,2.4-5.4,3.9-8.1,5.8c-0.6,0.4-1.3,0.6-2,0.8c-2.7,0.8-5.5,1.5-8.2,2.3c-2.1,0.6-4.2,0.9-6.3,1c-3.1,0.1-6.1-0.5-8.9-2.1
			c-1.6-0.9-3.2-2-4.9-2.9c-2.6-1.4-4.5-3.5-5.8-6.1c-2.3-4.5-3.5-9.3-3.2-14.4c0.1-2.1,0.6-4.2,1.3-6.2c0.9-2.5,2.2-4.7,4.3-6.4
			c1.1-0.9,2.2-1.9,3.3-2.7c1.1-0.9,2.3-1.6,3.7-2.1c3.3-1.2,6.7-2.3,10.2-2.8c1.2-0.2,2.3-0.4,3.5-0.6c2.8-0.6,5.6-0.7,8.5-0.2
			c2.6,0.4,5.2,0.5,7.7,1.3c0.2,0.1,0.5,0.1,0.7,0c0.4-0.2,0.8-0.5,1.1-0.8c0.4-0.4-0.1-1.6-0.5-1.9c-1.6-1-3.6-1-5.3-1.9
			c-0.8-0.4-1.4-1.3-1.3-2.3c0.2-2.6,1-5.1,2-7.5c0.3-0.6,0.6-1.3,1.1-1.8c2.1-2.3,4.4-4.3,7.4-5.4c2-0.7,3.9-1.7,5.8-2.6
			c5.2-2.6,10.7-3.6,16.5-2.9c2.8,0.4,5.6,0.7,8.4,1.1c2.9,0.4,5.5,1.4,7.9,2.9c3.8,2.5,7.3,5.3,10.4,8.5c1.5,1.5,3,3.1,4.4,4.6
			c0.4,0.4,0.8,0.6,1.3,0.2c0.3-0.3,0.7-0.6,0.8-1c0.1-0.4,0.1-1,0-1.4c-0.4-0.8-0.8-1.7-1.4-2.4c-1.1-1.2-2.4-2.3-3.5-3.5
			c-0.3-0.3-0.6-0.7-0.9-1.1c-0.7-0.8-0.9-2.5-0.4-3.3c0.5-0.8,1-1.6,1.5-2.4c1.1-1.8,1.8-3.8,3.4-5.4c1.5-1.5,3.4-2.5,5.2-3.7
			c2.7-1.9,5.6-3.5,9-4.1c1.2-0.2,2.3-0.5,3.5-0.6c6-0.5,11.8,0.4,17.5,2.2c3,0.9,5.6,2.5,7.6,5c1.3,1.6,2.7,3.3,4,5
			c2.3,2.8,3.7,6,4.6,9.5c0.2,0.7,0.4,1.4,0.4,2.1c0.1,2.1,0.5,4.2,0.9,6.3c0.4,2.3,0.5,4.7,0.3,7.1c-0.3,2.8-1.2,5.6-2.6,8
			c-1.6,2.9-3.3,5.8-5.9,7.9c-0.7,0.6-1.5,1.3-1.9,2.1c-1.4,2.8-3.8,4.8-5.6,7.3c-1.6,2.2-3.4,3.9-5.8,5.1c-0.6,0.3-1.3,0.6-1.8,1.1
			c-4.3,3.4-9.1,5.9-14.3,7.7c-1.1,0.4-2.1,1-3,1.8c-2.1,1.8-4.6,2.4-7.2,2.6C123.2,176.4,122.2,176.3,122,176.3z"/>
		<path fill-rule="evenodd" clip-rule="evenodd" d="M165.6,128.4c-0.1,2.1-0.2,4.2-0.4,6.3c0,0.5-0.5,0.7-1,0.5
			c-0.2-0.1-0.4-0.3-0.5-0.5c-0.2-0.7-0.5-1.3-0.5-2c0-2.3,0.1-4.7,0.4-7c0.3-3.5-1-6.5-2.8-9.3c-1.7-2.6-3.9-4.7-6.8-5.9
			c-0.8-0.4-1.7-0.9-2.1-1.8c-0.1-0.2-0.1-0.4-0.1-0.7c0-0.5,0.2-0.8,0.8-1c1.2-0.3,2.3-0.2,3.4,0.3c0.6,0.3,1.3,0.6,1.8,1
			c3.8,3,6.4,6.8,7.7,11.5c0.3,1.1,0.4,2.3,0.4,3.5C165.9,125.1,165.7,126.8,165.6,128.4C165.6,128.4,165.6,128.4,165.6,128.4z"/>
		<path fill-rule="evenodd" clip-rule="evenodd" d="M78.8,115.5c0-1.8,1.3-2.5,2.6-2.8c2.1-0.4,4.2-0.7,6.3-0.7
			c1.6,0,3.3,0.5,4.8,1.1c2,0.8,3.8,1.9,5.7,2.8c0.2,0.1,0.3,0.4,0.5,0.5c0.5,0.4,0.6,1.4,0.1,1.9c-0.3,0.4-0.8,0.7-1.2,0.6
			c-0.7-0.1-1.4-0.3-2-0.6c-1.5-0.7-2.9-1.6-4.4-2.3c-1.7-0.8-3.6-1.2-5.5-1c-2.3,0.2-4.7,0.6-7.1,0.4L78.8,115.5z"/>
		<path fill-rule="evenodd" clip-rule="evenodd" d="M25.7,157c-0.3-2.2,0.1-4.7,1.2-7.1c0.6-1.3,1.6-2.3,3-2.7
			c0.2-0.1,0.5,0,0.7,0.1c0.5,0.2,1.1,1.3,0.8,1.7c-0.6,0.7-1.2,1.4-1.8,2.2c-1.4,2-2,4.2-1.4,6.7c0.2,0.7,0.4,1.4,0.5,2.1
			c0.4,1.6,1.1,3,2.3,4.3c0.6,0.7,0.1-0.5-0.1,0.4c0,0.1-0.4,0.3-0.6,0.3c-0.7-0.1-1.4-0.2-2-0.6c-1.4-1-2.3-2.3-2.5-4.1
			C25.8,159.3,25.7,158.4,25.7,157z"/>
		<path fill-rule="evenodd" clip-rule="evenodd" d="M158.5,126.4c-0.2,0.9-0.3,1.8-0.5,2.7c0,0.1-0.3,0.3-0.4,0.3
			c-0.2,0-0.5-0.2-0.6-0.3c-0.9-3.1-1.8-6.2-3.2-9.1c-0.1-0.2-0.1-0.5-0.2-0.7c-0.1-0.5,0.4-1.4,1-1.6c0.5-0.2,0.9,0,1.2,0.4
			c1.3,1.4,1.9,3.1,2.3,5C158.4,124.1,158.4,125.3,158.5,126.4z"/>
		<path fill-rule="evenodd" clip-rule="evenodd" d="M80.7,121.2c0.2-0.4,0.2-1,0.5-1.2c1.1-0.5,2.2-0.9,3.3-1.1
			c1.7-0.3,3.2,0.3,4.3,1.7c0.1,0.2,0.2,0.4,0.3,0.6c0.1,0.6-0.2,1-0.7,0.9c-2.3-0.3-4.6,0.4-6.9,0
			C80.9,122.1,80.6,121.8,80.7,121.2z"/>
		<path fill-rule="evenodd" clip-rule="evenodd" d="M33.7,160.3c-0.1-0.2-0.3-0.4-0.4-0.6c-0.8-1.9-0.3-3.7,0.5-5.4
			c0.2-0.4,0.7-0.6,1-0.9c0.2-0.1,0.6-0.3,0.6-0.3c0.3,0.3,0.7,0.7,0.7,1.1c0,2.1-0.6,4.1-1.9,5.8C34.1,160.2,33.9,160.2,33.7,160.3
			z"/>
		<path fill-rule="evenodd" clip-rule="evenodd" d="M78.7,115.3c0.2,0.5,0,0.8-0.5,0.9c-0.1,0-0.4-0.3-0.4-0.4
			c0.2-0.5,0.5-0.6,1-0.3L78.7,115.3z"/>
	</g>
</g>
</svg>
