<?xml version="1.0" encoding="utf-8"?>
<!DOCTYPE svg PUBLIC "-//W3C//DTD SVG 1.1//EN" "http://www.w3.org/Graphics/SVG/1.1/DTD/svg11.dtd">
<svg version="1.1" id="SheepTodayOffice" xmlns="http://www.w3.org/2000/svg" xmlns:xlink="http://www.w3.org/1999/xlink" x="0px" y="0px"
	 width="507.3px" height="193.8px" viewBox="0 0 507.3 193.8" enable-background="new 0 0 507.3 193.8" xml:space="preserve">
<g opacity="0.6">
	<path fill-rule="evenodd" clip-rule="evenodd" stroke="#FFFFFF" stroke-width="8" stroke-miterlimit="10" d="M369.6,36.8
		c0.8-0.3,1.5-0.5,2.2-0.8c3.3-1.1,6.5-2.5,9.6-4.1c0.4-0.2,0.8-0.3,1.2-0.5c0.3-0.1,0.9,0.2,1.1,0.5c0.2,0.3,0.2,0.6,0.1,0.8
		c-0.1,0.3-0.2,0.6-0.4,0.7c-3.2,2.4-5.5,5.6-7.9,8.7c-3,4.1-5.8,8.4-8.1,12.9c-0.5,1-1.2,2-1.9,2.9c-1.3,1.9-2.5,3.9-3.7,6
		c-0.3,0.6-0.2,1.5,0.2,2.1c0.1,0.1,0.2,0.2,0.3,0.3c2.4,2.1,4.5,4.5,6.8,6.8c1.9,1.9,3.9,3.5,6.4,4.4c0.5,0.2,1.1,0.5,1.5,0.9
		c0.4,0.4,0.7,0.9,0.6,1.6c0,0.3-0.1,0.6-0.4,0.7c-0.4,0.2-0.8,0.4-1.2,0.5c-1.6,0.3-3.2,0.3-4.7,0.9c-0.9,0.3-1.8-0.1-2.3-0.8
		c-1.4-1.7-2.7-3.5-3.8-5.3c-1.6-2.6-3.3-5.2-5.4-7.4c-0.3-0.3-0.9-0.1-1.1,0.3c-0.2,0.2-0.4,0.5-0.5,0.7c-0.9,2.1-2.1,4.1-3,6.3
		c-0.9,2.3-2.2,4.4-3.4,6.6c-0.5,0.9-1.4,1.5-2.4,1.7c-0.9,0.2-1.8-0.2-2.2-1c-0.2-0.4-0.4-0.9-0.2-1.3c0.3-1,0.7-1.9,1.2-2.8
		c1.3-2.3,2.4-4.7,3.5-7c0.9-1.8,2-3.6,3-5.3c0.5-0.9,0.9-1.8,1.1-2.8c0-0.3,0-0.6-0.1-0.9c-0.3-0.7-0.6-1.3-1.1-1.9
		c-2.3-3-4.5-6.1-6.8-9.1c-1.1-1.4-2.3-2.6-3.4-4c-0.3-0.4-0.4-0.9-0.2-1.2c0.6-1,0.9-2.1,1.2-3.3c0.1-0.6,0.4-1.1,0.6-1.6
		c0.1-0.3,0.8-0.5,1.2-0.3c0.5,0.3,0.9,0.7,1.1,1.3c0.5,2.5,1.6,4.7,2.9,6.8c1.6,2.5,3.2,4.9,4.8,7.3c0.3,0.5,0.7,0.9,1.1,1.4
		c0.2,0.3,0.9,0.3,1.2,0.1c0.2-0.2,0.4-0.4,0.6-0.7c0.9-1.5,1.7-3,2.3-4.7c0.6-1.6,1.4-3.2,2.2-4.8c1-1.9,2-3.9,2.8-5.9
		C367,40.6,368.3,38.6,369.6,36.8z"/>
	<path fill-rule="evenodd" clip-rule="evenodd" stroke="#FFFFFF" stroke-width="8" stroke-miterlimit="10" d="M380.7,117.2
		c0.1-3.6,0.2-7.3,0.5-10.9c0.1-2.3,0.5-4.6,0.5-7c0-0.6,0.3-1.1,0.8-1.5c0.8-0.6,1.7-1.1,2.8-1.1c1.9,0.1,3.8-0.3,5.6-0.9
		c5.4-1.6,10.9-3.1,16.4-4.7c0.3-0.1,0.6-0.2,0.8-0.2c0.6-0.1,1.5,0.6,1.5,1.2c0,0.9,0,1.7-0.1,2.6c0,1.3-0.2,2.6-0.1,3.9
		c0.4,4.4,0.5,8.7,0.3,13.1c-0.1,3,0.6,5.8,1.1,8.6c0.1,0.4,0.3,0.8,0.5,1.2c0.7,1.5,0.8,3.1,1,4.7c0,0.1,0,0.3-0.1,0.4
		c-0.4,0.8-0.8,1.5-1.5,2.1c-0.2,0.2-1,0.2-1.3,0c-0.5-0.3-0.9-0.7-1.1-1.3c-0.1-0.6-0.3-1.1-0.3-1.7c-0.2-2.2-0.2-4.4-0.9-6.5
		c-0.2-0.5-0.2-1.2-0.2-1.7c0.1-1.8-0.1-3.5-0.4-5.2c-0.3-2.8-0.5-5.5-0.4-8.3c0.1-1.8-0.1-3.5-0.5-5.2c-0.1-0.6-0.4-1.1-0.6-1.6
		c-0.1-0.2-0.5-0.4-0.7-0.4c-0.4,0-0.9,0-1.3,0.1c-3.2,0.9-6.5,1.8-9.7,2.6c-2,0.5-3.9,1.2-5.8,1.8c-0.3,0.1-0.5,0.3-0.8,0.4
		c-0.6,0.3-0.9,0.8-1,1.3c-0.3,1.9-0.6,3.7-0.2,5.6c0.2,0.7,0.2,1.5-0.1,2.2c-0.8,2.3-0.7,4.6-0.3,6.9c0.3,1.7,0.5,3.4,0.5,5.2
		c0,1.2,0.2,2.3,0.7,3.4c0.3,0.7,0.3,1.4,0.3,2.1c0,0.6-0.3,1.1-0.7,1.6c-0.5,0.6-1.1,1-1.8,1c-0.6,0-1.2,0-1.7,0.1
		c-1.3,0-1.9-1.1-1.9-2C380.8,125.3,380.8,121.3,380.7,117.2C380.8,117.2,380.7,117.2,380.7,117.2z"/>
	<path fill-rule="evenodd" clip-rule="evenodd" stroke="#FFFFFF" stroke-width="8" stroke-miterlimit="10" d="M411.9,64
		c0-0.4,0.1-1.4,0.2-2.4c0.5-4.9,0.4-9.9,0.4-14.9c0-0.4-0.1-0.9-0.2-1.3c0-0.3-0.7-0.8-0.9-0.8c-0.6,0-1.2,0-1.7,0.1
		c-3.3,0.3-6.6,1-9.9,1.5c-1.4,0.2-2.8,0.7-4.2,1.3c-0.7,0.3-1.4-0.1-1.8-0.8c-0.6-1.4-0.1-2.6,0.7-3.6c0.2-0.2,0.5-0.4,0.7-0.5
		c1.9-0.4,3.7-0.9,5.6-1c3-0.3,6.1-0.7,9.1-1.2c1.6-0.3,3.2-0.5,4.8-0.6c1-0.1,2-0.3,3-0.4c1.7-0.2,3.5-0.3,5.2-0.7
		c1.7-0.4,3.5-0.2,5.2-0.5c0.9-0.2,1.7-0.2,2.6-0.3c1.1-0.1,2,1,1.7,2c-0.2,0.8-0.4,1.7-0.7,2.5c-0.2,0.7-0.8,1.3-1.5,1.3
		c-1.7,0.1-3.5,0.2-5.2,0.3c-1.3,0-2.6,0-3.9,0c-0.6,0-1.1,0.2-1.7,0.3c-0.2,0.1-0.6,0.3-0.6,0.5c-0.3,1-0.7,1.9-0.8,2.9
		c-0.2,2-0.4,4.1-0.3,6.1c0.2,4.5,0.1,9,0.1,13.6c0,1,0,2,0,3.1c0,1.5,0.2,2.9,0.7,4.3c0.1,0.4,0.2,0.9,0.2,1.3
		c0,0.6-0.2,1.2-0.7,1.5c-0.4,0.2-0.7,0.5-1.1,0.6c-1.2,0.4-2.3,0.2-3.4-0.4c-0.4-0.2-0.7-0.6-0.8-1c-0.1-3.2-0.5-6.4-0.8-9.6
		C411.7,66.4,411.9,65.5,411.9,64z"/>
	<path fill-rule="evenodd" clip-rule="evenodd" stroke="#FFFFFF" stroke-width="8" stroke-miterlimit="10" d="M448.3,69.3
		c-3.7,1.1-7.4,2.5-11.2,3.4c-1.3,0.3-2.5,0.6-3.8,0.9c-0.6,0.2-1.3,1-1.3,1.6c-0.1,0.7-0.2,1.5-0.1,2.2c0.1,1.9,0.1,3.8,0.3,5.7
		c0.2,2.2,0.4,4.3,0.4,6.5c0,1.6,0.2,3.2,0.5,4.8c0.2,0.8-0.4,1.8-1.3,2c-0.5,0.2-1.1,0.3-1.7,0.4c-0.5,0.1-0.9-0.1-1.2-0.4
		c-0.9-1.2-1.5-2.5-1.5-4c0-3.5,0.1-7,0.2-10.5c0.1-2.3,0.2-4.7,0.2-7c0-0.4-0.1-0.9-0.2-1.3c-0.2-0.7-0.2-1.4,0-2.2
		c0.3-1,0.3-2,0.3-3c-0.1-2.8,0-5.5,0-8.3c0-0.9,0.4-1.7,0.9-2.4c0.4-0.5,0.8-0.9,1.4-1c2.9-0.4,5.7-1.1,8.6-1.6
		c1.2-0.2,2.3-0.2,3.5-0.1c1,0.1,2,0.3,3,0.4c2.4,0.2,4.4,1.2,6.3,2.7c1.2,1,2.2,3.2,1.6,5.1c-0.4,1.1-0.9,2.2-1.7,3
		c-0.2,0.2-0.4,0.4-0.6,0.6C450.1,67.6,449.2,68.4,448.3,69.3z M432,64.7c0,0-0.1,0-0.1,0c0.1,1.5,0.1,2.9,0.2,4.4
		c0,0.3,0.2,0.6,0.2,0.8c0.1,0.2,0.7,0.8,1,0.8c2.5,0.1,4.8-0.8,7.2-1.4c0.9-0.7,2-1.1,3.1-1.5c0.5-0.2,1-0.6,1.5-0.9
		c1.8-1.1,2.7-2.6,2.5-4.7c0-0.4,0-0.9-0.1-1.3c-0.1-0.6-0.3-1.1-0.6-1.6c-0.2-0.5-0.7-0.9-1.2-1.1c-1.1-0.4-2.3-0.6-3.4-0.6
		c-2.9-0.1-5.8,0.4-8.6,1.4c-1,0.3-1.3,1.1-1.4,2C432.1,62.1,432,63.4,432,64.7z"/>
	<path fill-rule="evenodd" clip-rule="evenodd" stroke="#FFFFFF" stroke-width="8" stroke-miterlimit="10" d="M385.1,68
		c0-3.1,0.1-6.1,0.1-9.2c0-1.6,0.1-3.2,0.2-4.8c0-0.5,0.8-1,1.3-0.9c0.6,0.1,1.1,0.4,1.6,0.7c0.4,0.3,0.6,0.6,0.7,1.1
		c0.3,3.2,0.6,6.4,0.8,9.6c0.2,2,0.4,4.1,0.9,6c0,0.1,0.1,0.4,0.2,0.4c0.3-0.1,0.6-0.1,0.8-0.3c1.7-1.8,3.1-3.8,4.5-5.9
		c1.7-2.5,3.4-5.1,5.2-7.6c0.9-1.3,2.4-1.6,3.9-1.3c0.5,0.1,1.1,0.7,1.1,1.2c0,0.3,0.2,0.6,0.1,0.9c-0.1,2.9,0,5.9-0.4,8.7
		c-0.4,3.5-0.6,7-0.4,10.5c0,0.7-0.1,1.5-0.2,2.2c0,0.2-0.3,0.5-0.5,0.7c-0.2,0.2-1,0.1-1.2-0.1c-0.3-0.3-0.6-0.7-0.6-1.1
		c-0.1-1-0.2-2-0.2-3.1c0-4.2-0.5-8.4-1.2-12.6c0-0.1-0.2-0.2-0.3-0.2c-0.1,0-0.3,0-0.4,0c-0.6,0.7-1.2,1.3-1.6,2.1
		c-1.2,2-2.3,4.1-3.4,6.1c-0.3,0.6-0.6,1.3-1,1.9c-0.7,1.1-1.2,2.3-1.6,3.6c-0.4,1.1-0.9,2.1-1.3,3.3c-0.4,1.2-1.1,2-2.1,2.7
		c-0.8,0.6-1.7,1.1-2.7,1.3c-0.6,0.1-1.6-0.5-1.7-1.1c-0.1-0.4-0.2-0.9-0.2-1.3c0-1.9-0.1-3.8-0.2-5.7c-0.1-2.6-0.1-5.2-0.2-7.9
		C385.2,68,385.2,68,385.1,68z"/>
	<path fill-rule="evenodd" clip-rule="evenodd" stroke="#FFFFFF" stroke-width="8" stroke-miterlimit="10" d="M484.4,68.3
		c-0.1,1.8-0.1,4.3,0.4,6.7c0.1,0.4,0.7,0.7,1,0.5c0.4-0.2,0.8-0.4,1.1-0.7c1.6-1.7,3.4-3.2,5.2-4.7c2-1.7,4-3.4,5.7-5.4
		c0.2-0.2,0.4-0.4,0.7-0.6c0.4-0.3,1.2-0.4,1.7-0.1c0.8,0.4,1.5,1,1.5,2c0.3,3.3,0.8,6.7,0.8,10c0,2.6,0.3,5.2,0.8,7.8
		c0.1,0.6,0.1,1.2,0.2,1.7c0,0.4-0.2,0.8-0.4,1.2c-0.3,0.4-0.8,0.7-1.1,0.5c-0.2-0.2-0.5-0.3-0.6-0.6c-0.2-0.4-0.3-0.8-0.4-1.2
		c-0.3-2-0.6-4-0.9-6.1c-0.4-3-1-6-2-8.9c-0.1-0.4-0.8-0.6-1.1-0.3c-0.1,0.1-0.3,0.1-0.4,0.2c-2.7,3.1-5.5,6-8,9.3
		c-1.2,1.6-2.3,3.3-3.4,5.1c-0.4,0.6-1,1.1-1.7,1.2c-0.3,0.1-0.6-0.1-0.7-0.3c-0.1-0.2-0.3-0.5-0.3-0.8c-0.2-2.8-0.6-5.5-0.3-8.3
		c0.1-0.9,0.1-1.8-0.1-2.6c-0.4-2.5-0.3-4.9-0.5-7.4c-0.2-2-0.1-4.1,0.2-6.1c0-0.1,0.1-0.3,0.2-0.4c0.2-0.5,1.1-0.7,1.5-0.5
		c0.5,0.3,0.9,0.8,1,1.4c0.1,0.4,0.1,0.9,0.1,1.3C484.4,64.1,484.4,65.9,484.4,68.3z"/>
	<path fill-rule="evenodd" clip-rule="evenodd" stroke="#FFFFFF" stroke-width="8" stroke-miterlimit="10" d="M455.4,114.7
		c0.3,0.7,0.5,1.3,0.8,2c0,0.1,0,0.3,0,0.4c-0.3,1-1.5,1.6-2.5,1.2c-0.7-0.3-1.3-0.6-1.6-1.3c-0.8-1.7-1.5-3.5-2.3-5.2
		c-0.2-0.4-0.4-0.8-0.6-1.1c-0.4-0.7-1-1-1.7-1.2c-1.3-0.3-2.6-0.3-3.9-0.1c-1.7,0.3-3.4,0.6-5.2,0.9c-0.6,0.1-1,0.6-1.2,1.1
		c-0.4,1.1-0.8,2.2-1.2,3.3c-0.2,0.4-1.2,0.5-1.5,0.1c-0.2-0.3-0.5-0.8-0.5-1.2c0-0.7,0.2-1.4,0.5-2.1c0.4-1.1,0.8-2.2,1.3-3.2
		c2-4.4,3.8-8.8,5.9-13.1c0.6-1.2,1.1-2.4,1.7-3.5c0.4-0.7,1.4-1.1,2.3-0.7c0.4,0.2,0.8,0.4,1.1,0.7c0.6,0.5,1,1.1,1.2,1.8
		c1,2.7,2,5.4,3,8.2c0.3,0.8,0.5,1.7,0.6,2.5c0.5,2.3,1.3,4.5,2.2,6.6C454.4,112,454.9,113.4,455.4,114.7
		C455.5,114.7,455.4,114.7,455.4,114.7z M441.5,106.5c1-0.1,3.1,0,5-0.8c0.5-0.2,0.9-0.8,0.8-1.4c-0.4-2.4-1.3-4.7-2.3-7
		c-0.1-0.2-0.4-0.4-0.7-0.4c-0.2,0-0.6,0.2-0.7,0.4c-1.3,2.6-2.5,5.2-3.8,7.8c-0.1,0.1,0,0.3-0.1,0.4
		C439.7,105.8,440.2,106.4,441.5,106.5z"/>
	<path fill-rule="evenodd" clip-rule="evenodd" stroke="#FFFFFF" stroke-width="8" stroke-miterlimit="10" d="M483.8,100.3
		c0.1,1.9,0.2,3.8,0.3,5.7c0.1,2,0.3,4.1,1.1,6c0.1,0.3,0,0.6,0,0.9c0,0.5-0.7,1.1-1.2,1.1c-1.2-0.1-2.3-1.1-2.3-2.2
		c0-1.8-0.2-3.5-0.8-5.2c-0.2-0.5-0.8-0.9-1.4-0.8c-0.3,0.1-0.6,0.1-0.9,0.2c-0.1,0-0.3,0.1-0.4,0.1c-0.6,0.2-1.1,0.2-1.7,0
		c-0.7-0.3-1.4-0.4-2.1-0.2c-2.1,0.6-4.3,0.9-6.4,1.3c-2.9,0.5-3.9,1.7-2.3,4.5c0.1,0.3,0.3,0.5,0.4,0.8c0.2,0.5-0.1,1.3-0.5,1.5
		c-0.8,0.4-1.5,0.8-2.3,1.2c-0.3,0.1-0.6,0.1-0.8-0.2c-0.3-0.3-0.5-0.7-0.7-1.1c-0.2-0.4-0.2-0.9-0.2-1.3c0-1.8-0.3-3.5-0.8-5.2
		c-0.7-2.5-0.9-5.2-1.2-7.8c0-0.4,0.1-0.9,0.1-1.3c0-0.3,0.6-0.8,0.9-0.8c1.1,0,1.7,0.5,1.8,1.5c0.2,1.3,0.4,2.6,0.5,3.9
		c0.1,0.5,0.8,1,1.3,0.9c1.1-0.2,2.3-0.3,3.4-0.6c1.7-0.4,3.4-0.7,5.1-1.2c2.1-0.6,4.3-0.8,6.4-1.2c0.4-0.1,1.1-0.9,1.1-1.3
		c0-0.3,0-0.6,0-0.9c-0.1-1.2-0.2-2.3-0.3-3.5c0-0.3,0-0.6,0-0.9c0-0.4,0.2-0.8,0.6-1.1c0.4-0.2,0.8-0.4,1.2-0.6
		c1-0.5,2.1,0.2,2.2,1.4c0,0.6,0,1.2,0,1.7c-0.1,1.5-0.1,2.9-0.2,4.4C483.7,100.3,483.7,100.3,483.8,100.3z"/>
	<path fill-rule="evenodd" clip-rule="evenodd" stroke="#FFFFFF" stroke-width="8" stroke-miterlimit="10" d="M419.1,116.8
		c0,1.2,0,2.3,0,3.5c-0.1,1.5,0,2.9,0.4,4.3c0.2,0.7,0.2,1.4,0,2.2c-0.1,0.4-0.8,1.1-1.3,1.1c-0.6,0-1.2-0.1-1.6-0.5
		c-0.1-0.1-0.3-0.2-0.3-0.3c-0.1-0.4-0.2-0.9-0.2-1.3c-0.1-1.9-0.1-3.8-0.2-5.7c0-1.2-0.1-2.3-0.3-3.5c-0.5-3.2-0.3-6.4-0.4-9.6
		c0-0.6,0.1-1.1,0.3-1.7c0.3-1.2,1.6-1.8,2.7-1.4c0.3,0.1,0.6,0.2,0.8,0.3c1.2,0.8,2.4,1.7,3.3,2.8c0.7,0.9,1.5,1.7,2.3,2.6
		c2.6,3.3,5.5,6.4,7.6,10.1c0.2,0.4,0.5,0.7,0.7,1.1c0.6,1.1,0.5,2.3-0.9,3.4c-0.2,0.1-0.6,0.1-0.8-0.1c-0.2-0.1-0.4-0.4-0.6-0.6
		c-0.2-0.4-0.4-0.8-0.5-1.2c-0.2-0.9-0.6-1.6-1-2.4c-0.8-1.4-1.7-2.7-2.7-4c-1.6-2.1-3.3-4.1-4.9-6.1c-0.3-0.3-0.6-0.6-1-0.8
		c-0.3-0.2-0.9,0-1,0.4c-0.4,1.3-0.3,2.6-0.4,3.9C419,114.4,419.1,115.6,419.1,116.8C419.1,116.8,419.1,116.8,419.1,116.8z"/>
	<path fill-rule="evenodd" clip-rule="evenodd" stroke="#FFFFFF" stroke-width="8" stroke-miterlimit="10" d="M456.5,66.8
		c0-1,0.1-2,0-3.1c-0.2-2.9,0.2-5.8,0.6-8.7c0-0.3,0.7-0.7,1-0.6c0.8,0.3,1.2,0.8,1.3,1.6c0.1,0.7,0.1,1.5,0,2.2
		c-0.3,2.2-0.3,4.3-0.2,6.5c0,0.5,0.7,1.1,1.2,1c0.3,0,0.6-0.1,0.9-0.1c2.2-0.4,4.3-0.2,6.5-0.2c0.4,0,0.9,0.1,1.3,0.3
		c2,0.6,2.9,1.8,3,3.8c0,0.4,0,0.9,0,1.3c0,0.7-0.2,1.4-0.6,2.1c-0.5,0.7-0.9,1.5-1.4,2.2c-0.6,0.9-1.4,1.4-2.5,1.5
		c-2.7,0.3-5.5,0.7-8.2,1c-0.4,0-0.9,0-1.3,0c-0.3,0-0.8-0.6-0.9-0.8c-0.3-0.8-0.4-1.7-0.5-2.6c-0.1-2.5-0.1-4.9-0.2-7.4
		C456.4,66.8,456.5,66.8,456.5,66.8z M463.8,67.9C463.8,67.9,463.8,68,463.8,67.9c-0.7,0.1-1.4,0-2.2,0.1c-2,0.2-2.7,0.6-2.5,2.6
		c0.1,0.7,0.1,1.4,0.2,2.1c0,0.3,0.1,0.6,0.2,0.8c0.2,0.6,0.7,1,1.2,1.1c1.7,0.3,3.4,0.2,5.1-0.2c0.3-0.1,0.5-0.2,0.8-0.4
		c0.6-0.3,0.9-0.8,0.9-1.4c0-0.6,0-1.2-0.2-1.7c-0.2-0.8-0.6-1.6-0.9-2.4c-0.2-0.4-0.6-0.6-1-0.7C464.9,68,464.4,67.9,463.8,67.9z"
		/>
	<path fill-rule="evenodd" clip-rule="evenodd" stroke="#FFFFFF" stroke-width="8" stroke-miterlimit="10" d="M493.5,59.3
		c-0.6-0.1-1.1-0.2-1.6-0.6c-0.4-0.4-0.9-0.8-1.1-1.3c-1.4-2.4-3-4.6-4.5-6.9c-0.1-0.1-0.1-0.3-0.2-0.4c-0.2-0.4-0.1-1,0.3-1.1
		c0.4-0.2,0.8-0.2,1.2,0c0.9,0.5,1.7,1.1,2.5,1.8c0.8,0.7,1.6,1.3,2.5,1.6c0.4,0.1,0.8,0.3,1.3,0.1c0.7-0.3,1.4-0.5,2-0.8
		c0.6-0.3,1.2-0.8,1.8-1.1c1.3-0.7,2.5-1.5,3.9-1.9c0.4-0.1,0.9,0.3,0.9,0.7c0,0.1,0,0.3,0,0.4c0,0.1-0.1,0.3-0.2,0.4
		c-2.3,2.8-4.6,5.6-6.9,8.4C495,59.1,494.3,59.2,493.5,59.3z"/>
	<path fill-rule="evenodd" clip-rule="evenodd" stroke="#FFFFFF" stroke-width="8" stroke-miterlimit="10" d="M474.2,65.3
		c-0.1-3.2-0.1-5.7-0.3-8.2c-0.1-1.1,0.2-2,0.9-2.8c0.3-0.4,0.4-0.8,0.7-1.1c0.2-0.2,0.5-0.3,0.8-0.3c0.3-0.1,0.9,0.4,1,0.7
		c0.1,0.3,0.2,0.6,0.2,0.8c-0.2,2.2-0.3,4.4-0.6,6.5c-0.2,1.9-0.3,3.8-0.1,5.7c0.1,1,0.2,2,0.3,3c0.1,1.2,0.4,2.3,0.8,3.4
		c0.2,0.5-0.2,1.2-0.7,1.3c-0.6,0.2-1.1,0.3-1.7,0.2c-0.3-0.1-0.5-0.2-0.7-0.5c-0.1-0.3-0.2-0.5-0.3-0.8c-0.1-0.3-0.1-0.6-0.1-0.9
		C474.5,69.8,474.4,67.2,474.2,65.3z"/>
</g>
<path opacity="0.6" fill-rule="evenodd" clip-rule="evenodd" stroke="#FFFFFF" stroke-width="8" stroke-miterlimit="10" d="
	M8.6,86.6l1.3-0.3c0,0,4.1-1.2,6.1-1.8c1-0.3,1.9-0.6,2.9-0.8c2.3-0.5,4.6-0.8,6.9-1.1c2-0.3,4-0.1,6,0c1.9,0.1,3.8,0.3,5.7,0.5
	c0.5,0.1,1.1,0.2,1.6,0.4c0.4,0.1,0.8,0.4,1.2,0.6c0.8,0.4,1.6,0.9,2.4,1.2c2.7,1.2,5.2,2.5,7.7,4.1c0.9,0.6,2,1,3,1.5
	c0.7,0.3,1.4,0.6,2.2,0.8c1,0.3,1.8,1,2.8,1c0.9,0,1.7-0.3,2.6-0.6c0.5-0.1,1.1-0.3,1.7-0.3c1.3,0,2.4-0.3,3.6-0.8
	c0.5-0.2,1.1-0.3,1.6-0.4c1.3-0.1,2.6-0.5,3.9-0.7c1.6-0.3,3.3-0.7,5-0.8c1.6,0,3.1-0.4,4.7-0.6c4-0.4,8-1,12-1.4
	c0.4,0,0.9-0.4,1-0.8c0.3-1.6,0.6-3.3,1-4.9c0.1-0.3,0.2-0.6,0.3-1c0.9-2.5,1.4-5.2,1.7-7.8c0.1-0.8,0.3-1.5,0.5-2.3
	c0.1-0.4,0.2-0.9,0-1.3c-0.2-0.6-0.1-1.1,0.5-1.4c0.5-1,0.9-2,1.1-3.1c0.1-0.9,0.5-1.7,1-2.4c0.1-0.2,0.2-0.4,0.4-0.6
	c2.1-3,1.9-2.9,5.1-4.6c3.7-2,7.6-3.7,11.7-5c1.7-0.6,3.5-0.9,5.2-1.4c2.6-0.8,5.2-1.4,7.7-2.4c0.7-0.3,1.5-0.6,2.1-1.1
	c0.5-0.4,1.2-0.6,1.8-0.9c1-0.6,1.8-1.3,2-2.6c0.3-1.3,0.6-2.6,0.8-3.9c0.3-2.2,0.9-4.4,1.5-6.5c0.6-2.2,1.6-4.2,2.5-6.2
	c0.2-0.5,0.6-1,0.9-1.4c2-2.5,4.4-4.4,7.3-5.7c2.1-0.9,4.3-2,6.6-2.5c3.5-1.3,7.2-1.7,10.8-2.3c1-0.2,2-0.3,3-0.5
	c1.2-0.3,2.4-0.4,3.6-0.5c3.5-0.2,6.9-0.6,10.4-0.6c0.8,0,1.6-0.1,2.3-0.2c1.6-0.2,3.1-0.4,4.7-0.4c3,0,6,0,9.1,0c0,0,0,0,0-0.1
	c2,0.1,4,0.2,6,0.2c0.6,0,1.1,0,1.7,0c1.1,0,2.2,0,3.4,0c0.7,0,1.3-0.1,1.9-0.5c2-1.2,4.2-2.2,6.1-3.5c0.4-0.3,0.8-0.5,1.2-0.6
	c2.7-0.9,5.4-2.2,8.2-2.8c3.8-0.9,7.7-1.5,11.6-1.4c1.5,0,2.9,0,4.4,0.1c2.8,0.1,5.6,0.5,8.3,1.1c2,0.4,3.9,0.8,5.8,1.5
	c0.5,0.2,1,0.4,1.6,0.6c1.3,0.5,2.7,1.1,4.1,1.5c1.4,0.4,2.7,1,4,1.7c1.8,0.9,3.6,1.9,5.3,2.8c1.4,0.8,2.6,1.7,3.8,2.8
	c1.3,1.2,2.8,2.2,4.3,3.2c1.2,0.8,2.4,1.6,3.6,2.5c0.9,0.7,1.9,1.2,2.8,1.8c0.6,0.3,1.2,0.5,1.9,0.3c1.4-0.3,2.9-0.5,4.3-0.8
	c0.9-0.2,1.8-0.1,2.7,0.1c1.9,0.4,3.6,1.3,5.3,2c0.4,0.2,0.8,0.5,1,0.8c0.9,1.4,2.2,2.5,3.5,3.6c0.3,0.3,0.7,0.6,1,0.9
	c2.3,1.8,4.3,3.9,6.1,6.2c0.8,1,1.7,1.8,2.6,2.6c3.1,3,6.2,6.2,8.7,9.7c0.3,0.4,0.6,0.7,0.8,1.1c1.9,3.2,3.7,6.4,5.2,9.8
	c0.6,1.5,0.8,3,1,4.6c0,0.2,0,0.4,0,0.7c-0.2,1.7-0.3,3.3-0.7,5c-0.6,2.5-1.1,5-2.1,7.4c-0.5,1.3-0.8,2.8-1.4,4.1
	c-0.2,0.3,0.1,1,0.4,1.2c1.6,0.8,2.7,2.3,4.2,3.3c0.8,0.9,1.6,1.9,2.3,2.8c0.2,0.3,0.3,0.6,0.4,0.9c0.2,1,0.4,2,0.4,3
	c0.2,2-0.2,4-0.8,5.9c-0.8,2.3-1.4,4.7-1.7,7.2c-0.1,0.8-0.3,1.5-0.5,2.3c-0.3,1.3-0.7,2.6-0.8,3.9c0,0.3-0.1,0.7-0.2,1
	c-0.5,1.5-1,3-1,4.6c0,0.4-0.2,0.9-0.4,1.3c-0.5,1.4-0.9,2.8-1.1,4.2c-0.1,0.5-0.3,1.1-0.4,1.6c-0.4,1.4-0.8,2.8-1.1,4.2
	c-0.3,1.6-1.4,2.6-2.9,2.9c-2.2,0.5-4.4,0.8-6.6,0.6c-0.7-0.1-1.3-0.1-2,0.1c-0.3,0.1-0.7,0.2-1,0.1c-1.5-0.2-2.9,0.4-4.3,0.2
	c-1.2-0.1-2.5-0.1-3.7,0.2c-0.5,0.1-0.8,0.4-1,0.8c-0.1,0.3-0.3,0.6-0.4,0.9c-0.2,0.7-0.5,1.5-0.7,2.2c-0.2,1-0.7,1.9-0.9,2.9
	c-0.1,0.6-0.6,1.2-0.8,1.8c-0.6,2.1-1.8,3.9-2.4,5.9c-0.1,0.3-0.3,0.6-0.5,0.9c-1,1.3-1.9,2.8-3,4c-1.1,1.2-2.3,2.2-3.6,3
	c-3,1.8-6.1,3.3-9.3,4.6c-2,0.8-4,1.3-6.1,1.8c-1.8,0.4-3.7,0.6-5.7,0.4c-1.7-0.2-3.3-0.3-5-0.3c-0.9,0-1.8-0.2-2.7-0.3
	c-0.5,0-0.9,0.2-1.2,0.6c-0.4,0.6-0.8,1.3-1.2,2c-2,3.3-3.3,6.8-4.5,10.4c-0.5,1.5-0.8,3-0.8,4.6c0,0.6-0.1,1.1-0.1,1.7
	c0,0.8-0.5,1.5-1,2c-0.2,0.2-0.6,0.3-0.9,0.1c-0.8-0.4-1.5-1-2-1.8c-1.6-2.4-2.4-4.3-2.7-6.8c-0.2-2.5-0.2-4.9-0.1-7.4
	c0-1.1,0.1-2.2,0.1-3.3c0-1.2,0-2.5,0.2-3.7c0.1-0.4,0-0.9-0.1-1.3c0-0.5-0.2-0.9-0.6-1.1c-1.5-1-2.9-2-4.4-3.1
	c-0.9-0.7-1.3-0.6-2.1-0.1c-0.7,0.5-1.4,1.1-2.1,1.6c-0.4,0.4-0.7,0.9-1.2,1.1c-0.9,0.4-1.7,1.1-2.7,1.4c-1.7,0.4-2.6,1.7-3.4,3.1
	c-0.6,1.1-1,2.2-1.4,3.4c-0.5,1.7-1,3.4-1.7,5.1c-0.3,0.8-0.6,1.7-0.7,2.6c-0.5,2.3-1,4.6-1.5,6.9c-0.2,0.9-0.4,1.7-0.7,2.6
	c-0.2,0.7-0.7,1.1-1.2,1.5c-0.2,0.2-0.7,0.1-0.9-0.1c-0.1-0.1-0.2-0.1-0.2-0.2c-1.1-1.7-2-3.5-2.2-5.6c-0.2-1.4-0.4-2.9-0.5-4.3
	c-0.1-1,0-2,0.1-3c0.2-2.3,0.2-6.4,0-8.4c0-0.2-0.4-0.7-0.7-0.7c-0.6,0-1.1-0.1-1.7,0c-1.1,0.2-2.2,0.3-3.3,0.3
	c-2.5,0.1-4.9,0.6-7.3,0.8c-3.6,0.4-7.1,0.6-10.7,0.3c-2.5-0.2-4.9-0.2-7.4-0.1c-0.3,0-0.7,0.1-1,0.1c-0.4,0.1-0.9,0.2-1.2,0.5
	c-0.6,0.5-1.1,1.1-1.5,1.8c-1.5,2.9-2.8,5.8-4,8.8c-0.7,1.7-1.2,3.4-1.7,5.1c-0.2,0.6-0.3,1.3-0.4,2c-0.3,1.6-0.4,3.1,0.1,4.6
	c0.1,0.4,0.2,0.9,0.3,1.3c0.1,0.6,0,1.1-0.2,1.6c-0.1,0.3-0.5,0.5-0.8,0.5c-0.9-0.2-1.6-0.7-2.4-1.2c-0.6-0.4-0.9-1-1.2-1.6
	c-0.8-2-1.5-4-1.5-6.1c-0.1-2.8-0.1-5.6-0.2-8.4c0-0.4,0.1-0.9,0.1-1.3c0.3-2.1,0.7-4.2,1-6.3c0.1-1,0.3-2,0.4-3
	c0.1-0.9-0.5-1.3-1.1-1.5c-1.8-0.6-3.6-1.2-5.4-1.7c-0.9-0.2-1.7-0.6-2.4-1.2c-0.9-0.7-1.8-1.4-2.4-2.3c-0.4-0.5-0.9-1-1.4-1.4
	c-0.2-0.2-0.5-0.3-0.9-0.3c-2.3,0-4.7,0-7,0c-0.5,0-0.8,0.2-1.2,0.6c-0.6,0.6-1.2,1.3-1.6,2.1c-1,2.1-1.7,4.4-2.7,6.5
	c-0.3,1.6-0.8,3.3-0.9,4.9c-0.2,3.9,0.1,7.8,0.9,11.7c0.2,1.1,0.6,2.2,1.1,3.2c0.1,0.3,0,0.7-0.1,1c-0.1,0.3-0.6,0.5-0.8,0.4
	c-0.2-0.1-0.4-0.1-0.6-0.3c-0.7-0.6-1.4-1.1-2-1.7c-1.9-1.7-3.5-3.8-4.7-6.1c-0.6-1.1-1.1-2.2-1.1-3.5c0-0.9-0.3-1.8-0.5-2.6
	c-0.5-2.1-0.7-4.2-0.5-6.3c0-0.4,0.1-0.9,0.1-1.3c-0.3-2.4-0.3-4.9-0.5-7.4c0-0.2-0.1-0.4-0.1-0.7c-0.1-0.3-0.4-0.6-0.7-0.7
	c-0.2,0-0.4-0.1-0.6-0.1c-1.6-0.1-3.1-0.2-4.7-0.2c-1.1,0-2.2-0.1-3.3-0.2c-1.6-0.1-3.1-0.2-4.7-0.2c-3-0.1-6-0.7-8.9-1.3
	c-1.1-0.2-2.1-0.7-3.1-1.2c-1.8-1-3.5-2-5.3-2.9c-1.7-0.9-3.2-2-4.2-3.7c-0.4-0.7-1-1.2-1.5-1.8c-0.5-0.7-1-1.5-1.3-2.3
	c-0.5-1.4-1.3-2.6-1.8-4c-0.4-1.3-0.8-2.5-1.3-3.8c-0.1-0.3-0.4-0.5-0.8-0.5c-1.9-0.3-3.8-0.4-5.7-0.5c-1.8-0.1-3.6-0.2-5.3-0.5
	c-0.5-0.1-1.1-0.1-1.7-0.1c-2.7-0.2-5.3-0.5-8-0.7c-0.4,0-0.9-0.1-1.3-0.2c-3.2-0.6-6.4-1.1-9.6-1.5c-1.3-0.2-2.7-0.3-4-0.4
	c-1.9-0.2-3.8-0.3-5.7-0.6c-2.2-0.4-4.3-0.9-6.5-1.7c-1.9-0.7-3.7-1.6-5.3-2.8c-1.1-0.8-2.1-1.7-3.1-2.5c-0.4-0.4-0.7-0.9-0.7-1.5
	c0-0.7-0.2-1.3-0.5-1.9c-0.5-1-0.7-2.1-0.5-3.3c0.1-0.4,0.2-0.9,0.2-1.3c0.1-2.4,0.3-2.5,1.5-4.4c1.8-2.7,3.6-5.4,6-7.7
	c1.1-1.1,2.3-2.2,3.2-3.4c0.1-0.1,0.1-0.5-0.1-0.6c-0.9-0.9-2.1-1.4-3.3-1.6c-1.9-0.3-3.8-0.5-5.7-0.7c-0.2,0-0.4,0-0.7,0
	c-2.2,0.3-4.4,0.5-6.5,1.5c-0.7,0.3-1.5,0.5-2.2,0.8c-1.3,0.6-2.7,1.1-4,1.7c-1.5,0.8-3.1,1.3-4.7,1.9c-1.5,0.5-2.9,1.2-4.3,1.9
	c-2.2,1.3-4.5,2.5-6.7,3.8c-2.1,1.1-5.5,4.2-10.6-5.2L8.6,86.6z"/>
<path fill-rule="evenodd" clip-rule="evenodd" d="M8.6,86.6l1.3-0.3c0,0,4.1-1.2,6.1-1.8c1-0.3,1.9-0.6,2.9-0.8
	c2.3-0.5,4.6-0.8,6.9-1.1c2-0.3,4-0.1,6,0c1.9,0.1,3.8,0.3,5.7,0.5c0.5,0.1,1.1,0.2,1.6,0.4c0.4,0.1,0.8,0.4,1.2,0.6
	c0.8,0.4,1.6,0.9,2.4,1.2c2.7,1.2,5.2,2.5,7.7,4.1c0.9,0.6,2,1,3,1.5c0.7,0.3,1.4,0.6,2.2,0.8c1,0.3,1.8,1,2.8,1
	c0.9,0,1.7-0.3,2.6-0.6c0.5-0.1,1.1-0.3,1.7-0.3c1.3,0,2.4-0.3,3.6-0.8c0.5-0.2,1.1-0.3,1.6-0.4c1.3-0.1,2.6-0.5,3.9-0.7
	c1.6-0.3,3.3-0.7,5-0.8c1.6,0,3.1-0.4,4.7-0.6c4-0.4,8-1,12-1.4c0.4,0,0.9-0.4,1-0.8c0.3-1.6,0.6-3.3,1-4.9c0.1-0.3,0.2-0.6,0.3-1
	c0.9-2.5,1.4-5.2,1.7-7.8c0.1-0.8,0.3-1.5,0.5-2.3c0.1-0.4,0.2-0.9,0-1.3c-0.2-0.6-0.1-1.1,0.5-1.4c0.5-1,0.9-2,1.1-3.1
	c0.1-0.9,0.5-1.7,1-2.4c0.1-0.2,0.2-0.4,0.4-0.6c2.1-3,1.9-2.9,5.1-4.6c3.7-2,7.6-3.7,11.7-5c1.7-0.6,3.5-0.9,5.2-1.4
	c2.6-0.8,5.2-1.4,7.7-2.4c0.7-0.3,1.5-0.6,2.1-1.1c0.5-0.4,1.2-0.6,1.8-0.9c1-0.6,1.8-1.3,2-2.6c0.3-1.3,0.6-2.6,0.8-3.9
	c0.3-2.2,0.9-4.4,1.5-6.5c0.6-2.2,1.6-4.2,2.5-6.2c0.2-0.5,0.6-1,0.9-1.4c2-2.5,4.4-4.4,7.3-5.7c2.1-0.9,4.3-2,6.6-2.5
	c3.5-1.3,7.2-1.7,10.8-2.3c1-0.2,2-0.3,3-0.5c1.2-0.3,2.4-0.4,3.6-0.5c3.5-0.2,6.9-0.6,10.4-0.6c0.8,0,1.6-0.1,2.3-0.2
	c1.6-0.2,3.1-0.4,4.7-0.4c3,0,6,0,9.1,0c0,0,0,0,0-0.1c2,0.1,4,0.2,6,0.2c0.6,0,1.1,0,1.7,0c1.1,0,2.2,0,3.4,0
	c0.7,0,1.3-0.1,1.9-0.5c2-1.2,4.2-2.2,6.1-3.5c0.4-0.3,0.8-0.5,1.2-0.6c2.7-0.9,5.4-2.2,8.2-2.8c3.8-0.9,7.7-1.5,11.6-1.4
	c1.5,0,2.9,0,4.4,0.1c2.8,0.1,5.6,0.5,8.3,1.1c2,0.4,3.9,0.8,5.8,1.5c0.5,0.2,1,0.4,1.6,0.6c1.3,0.5,2.7,1.1,4.1,1.5
	c1.4,0.4,2.7,1,4,1.7c1.8,0.9,3.6,1.9,5.3,2.8c1.4,0.8,2.6,1.7,3.8,2.8c1.3,1.2,2.8,2.2,4.3,3.2c1.2,0.8,2.4,1.6,3.6,2.5
	c0.9,0.7,1.9,1.2,2.8,1.8c0.6,0.3,1.2,0.5,1.9,0.3c1.4-0.3,2.9-0.5,4.3-0.8c0.9-0.2,1.8-0.1,2.7,0.1c1.9,0.4,3.6,1.3,5.3,2
	c0.4,0.2,0.8,0.5,1,0.8c0.9,1.4,2.2,2.5,3.5,3.6c0.3,0.3,0.7,0.6,1,0.9c2.3,1.8,4.3,3.9,6.1,6.2c0.8,1,1.7,1.8,2.6,2.6
	c3.1,3,6.2,6.2,8.7,9.7c0.3,0.4,0.6,0.7,0.8,1.1c1.9,3.2,3.7,6.4,5.2,9.8c0.6,1.5,0.8,3,1,4.6c0,0.2,0,0.4,0,0.7
	c-0.2,1.7-0.3,3.3-0.7,5c-0.6,2.5-1.1,5-2.1,7.4c-0.5,1.3-0.8,2.8-1.4,4.1c-0.2,0.3,0.1,1,0.4,1.2c1.6,0.8,2.7,2.3,4.2,3.3
	c0.8,0.9,1.6,1.9,2.3,2.8c0.2,0.3,0.3,0.6,0.4,0.9c0.2,1,0.4,2,0.4,3c0.2,2-0.2,4-0.8,5.9c-0.8,2.3-1.4,4.7-1.7,7.2
	c-0.1,0.8-0.3,1.5-0.5,2.3c-0.3,1.3-0.7,2.6-0.8,3.9c0,0.3-0.1,0.7-0.2,1c-0.5,1.5-1,3-1,4.6c0,0.4-0.2,0.9-0.4,1.3
	c-0.5,1.4-0.9,2.8-1.1,4.2c-0.1,0.5-0.3,1.1-0.4,1.6c-0.4,1.4-0.8,2.8-1.1,4.2c-0.3,1.6-1.4,2.6-2.9,2.9c-2.2,0.5-4.4,0.8-6.6,0.6
	c-0.7-0.1-1.3-0.1-2,0.1c-0.3,0.1-0.7,0.2-1,0.1c-1.5-0.2-2.9,0.4-4.3,0.2c-1.2-0.1-2.5-0.1-3.7,0.2c-0.5,0.1-0.8,0.4-1,0.8
	c-0.1,0.3-0.3,0.6-0.4,0.9c-0.2,0.7-0.5,1.5-0.7,2.2c-0.2,1-0.7,1.9-0.9,2.9c-0.1,0.6-0.6,1.2-0.8,1.8c-0.6,2.1-1.8,3.9-2.4,5.9
	c-0.1,0.3-0.3,0.6-0.5,0.9c-1,1.3-1.9,2.8-3,4c-1.1,1.2-2.3,2.2-3.6,3c-3,1.8-6.1,3.3-9.3,4.6c-2,0.8-4,1.3-6.1,1.8
	c-1.8,0.4-3.7,0.6-5.7,0.4c-1.7-0.2-3.3-0.3-5-0.3c-0.9,0-1.8-0.2-2.7-0.3c-0.5,0-0.9,0.2-1.2,0.6c-0.4,0.6-0.8,1.3-1.2,2
	c-2,3.3-3.3,6.8-4.5,10.4c-0.5,1.5-0.8,3-0.8,4.6c0,0.6-0.1,1.1-0.1,1.7c0,0.8-0.5,1.5-1,2c-0.2,0.2-0.6,0.3-0.9,0.1
	c-0.8-0.4-1.5-1-2-1.8c-1.6-2.4-2.4-4.3-2.7-6.8c-0.2-2.5-0.2-4.9-0.1-7.4c0-1.1,0.1-2.2,0.1-3.3c0-1.2,0-2.5,0.2-3.7
	c0.1-0.4,0-0.9-0.1-1.3c0-0.5-0.2-0.9-0.6-1.1c-1.5-1-2.9-2-4.4-3.1c-0.9-0.7-1.3-0.6-2.1-0.1c-0.7,0.5-1.4,1.1-2.1,1.6
	c-0.4,0.4-0.7,0.9-1.2,1.1c-0.9,0.4-1.7,1.1-2.7,1.4c-1.7,0.4-2.6,1.7-3.4,3.1c-0.6,1.1-1,2.2-1.4,3.4c-0.5,1.7-1,3.4-1.7,5.1
	c-0.3,0.8-0.6,1.7-0.7,2.6c-0.5,2.3-1,4.6-1.5,6.9c-0.2,0.9-0.4,1.7-0.7,2.6c-0.2,0.7-0.7,1.1-1.2,1.5c-0.2,0.2-0.7,0.1-0.9-0.1
	c-0.1-0.1-0.2-0.1-0.2-0.2c-1.1-1.7-2-3.5-2.2-5.6c-0.2-1.4-0.4-2.9-0.5-4.3c-0.1-1,0-2,0.1-3c0.2-2.3,0.2-6.4,0-8.4
	c0-0.2-0.4-0.7-0.7-0.7c-0.6,0-1.1-0.1-1.7,0c-1.1,0.2-2.2,0.3-3.3,0.3c-2.5,0.1-4.9,0.6-7.3,0.8c-3.6,0.4-7.1,0.6-10.7,0.3
	c-2.5-0.2-4.9-0.2-7.4-0.1c-0.3,0-0.7,0.1-1,0.1c-0.4,0.1-0.9,0.2-1.2,0.5c-0.6,0.5-1.1,1.1-1.5,1.8c-1.5,2.9-2.8,5.8-4,8.8
	c-0.7,1.7-1.2,3.4-1.7,5.1c-0.2,0.6-0.3,1.3-0.4,2c-0.3,1.6-0.4,3.1,0.1,4.6c0.1,0.4,0.2,0.9,0.3,1.3c0.1,0.6,0,1.1-0.2,1.6
	c-0.1,0.3-0.5,0.5-0.8,0.5c-0.9-0.2-1.6-0.7-2.4-1.2c-0.6-0.4-0.9-1-1.2-1.6c-0.8-2-1.5-4-1.5-6.1c-0.1-2.8-0.1-5.6-0.2-8.4
	c0-0.4,0.1-0.9,0.1-1.3c0.3-2.1,0.7-4.2,1-6.3c0.1-1,0.3-2,0.4-3c0.1-0.9-0.5-1.3-1.1-1.5c-1.8-0.6-3.6-1.2-5.4-1.7
	c-0.9-0.2-1.7-0.6-2.4-1.2c-0.9-0.7-1.8-1.4-2.4-2.3c-0.4-0.5-0.9-1-1.4-1.4c-0.2-0.2-0.5-0.3-0.9-0.3c-2.3,0-4.7,0-7,0
	c-0.5,0-0.8,0.2-1.2,0.6c-0.6,0.6-1.2,1.3-1.6,2.1c-1,2.1-1.7,4.4-2.7,6.5c-0.3,1.6-0.8,3.3-0.9,4.9c-0.2,3.9,0.1,7.8,0.9,11.7
	c0.2,1.1,0.6,2.2,1.1,3.2c0.1,0.3,0,0.7-0.1,1c-0.1,0.3-0.6,0.5-0.8,0.4c-0.2-0.1-0.4-0.1-0.6-0.3c-0.7-0.6-1.4-1.1-2-1.7
	c-1.9-1.7-3.5-3.8-4.7-6.1c-0.6-1.1-1.1-2.2-1.1-3.5c0-0.9-0.3-1.8-0.5-2.6c-0.5-2.1-0.7-4.2-0.5-6.3c0-0.4,0.1-0.9,0.1-1.3
	c-0.3-2.4-0.3-4.9-0.5-7.4c0-0.2-0.1-0.4-0.1-0.7c-0.1-0.3-0.4-0.6-0.7-0.7c-0.2,0-0.4-0.1-0.6-0.1c-1.6-0.1-3.1-0.2-4.7-0.2
	c-1.1,0-2.2-0.1-3.3-0.2c-1.6-0.1-3.1-0.2-4.7-0.2c-3-0.1-6-0.7-8.9-1.3c-1.1-0.2-2.1-0.7-3.1-1.2c-1.8-1-3.5-2-5.3-2.9
	c-1.7-0.9-3.2-2-4.2-3.7c-0.4-0.7-1-1.2-1.5-1.8c-0.5-0.7-1-1.5-1.3-2.3c-0.5-1.4-1.3-2.6-1.8-4c-0.4-1.3-0.8-2.5-1.3-3.8
	c-0.1-0.3-0.4-0.5-0.8-0.5c-1.9-0.3-3.8-0.4-5.7-0.5c-1.8-0.1-3.6-0.2-5.3-0.5c-0.5-0.1-1.1-0.1-1.7-0.1c-2.7-0.2-5.3-0.5-8-0.7
	c-0.4,0-0.9-0.1-1.3-0.2c-3.2-0.6-6.4-1.1-9.6-1.5c-1.3-0.2-2.7-0.3-4-0.4c-1.9-0.2-3.8-0.3-5.7-0.6c-2.2-0.4-4.3-0.9-6.5-1.7
	c-1.9-0.7-3.7-1.6-5.3-2.8c-1.1-0.8-2.1-1.7-3.1-2.5c-0.4-0.4-0.7-0.9-0.7-1.5c0-0.7-0.2-1.3-0.5-1.9c-0.5-1-0.7-2.1-0.5-3.3
	c0.1-0.4,0.2-0.9,0.2-1.3c0.1-2.4,0.3-2.5,1.5-4.4c1.8-2.7,3.6-5.4,6-7.7c1.1-1.1,2.3-2.2,3.2-3.4c0.1-0.1,0.1-0.5-0.1-0.6
	c-0.9-0.9-2.1-1.4-3.3-1.6c-1.9-0.3-3.8-0.5-5.7-0.7c-0.2,0-0.4,0-0.7,0c-2.2,0.3-4.4,0.5-6.5,1.5c-0.7,0.3-1.5,0.5-2.2,0.8
	c-1.3,0.6-2.7,1.1-4,1.7c-1.5,0.8-3.1,1.3-4.7,1.9c-1.5,0.5-2.9,1.2-4.3,1.9c-2.2,1.3-4.5,2.5-6.7,3.8c-2.1,1.1-5.5,4.2-10.6-5.2"/>
<path fill-rule="evenodd" clip-rule="evenodd" fill="#FFFFFF" d="M332.8,90.2c0.1,0.3,0.1,0.8,0.3,1.2c0.6,2.1,0.3,4.2-0.4,6.3
	c-0.6,1.8-1,3.6-1.3,5.5c-0.3,2.1-0.6,4.2-1.3,6.2c-0.1,0.2-0.2,0.4-0.2,0.6c-0.5,3.2-1.7,6.3-2.5,9.4c-0.3,1.1-0.6,2.2-0.7,3.3
	c-0.1,0.9-0.2,1.8-0.5,2.6c-0.5,1.3-0.7,2.9-1.8,3.9c-1.2,0.5-2.4,0.2-3.6,0.4c-0.3,0.1-0.7,0-1,0c-1.9-0.1-3.8-0.1-5.7-0.2
	c-2.6-0.1-5.1-0.3-7.6-1c-1.6-0.4-3.3-0.6-4.9-0.9c-0.9-0.1-1.8-0.2-2.7-0.4c-0.3,0-0.7-0.2-1-0.1c-1.5,0.1-2.9-0.3-4.3-0.2
	c-0.5,0-0.9,0.2-1.2,0.6c-0.5,0.5-0.9,1-1,1.7c-0.2,1-0.3,2-0.4,3c-0.1,0.6,0.3,1.1,0.8,1.3c0.3,0.1,0.7,0.1,1,0.2
	c1.1,0.6,2.3,0.7,3.6,0.3c0.1,0,0.2-0.1,0.3-0.1c1-0.3,1.8,0.2,2.1,1.1c0.4,1.2,0.8,2.3,1.2,3.5c0.1,0.3,0.2,0.7,0.1,1
	c-0.1,1.3-0.2,2.7-0.8,3.9c-0.2,0.5-0.5,1-0.5,1.6c-0.1,1.7-0.9,3-1.8,4.2c-0.9,1.2-1.5,2.5-2.4,3.6c-0.6,0.8-1.3,1.5-2.2,2
	c-3.3,1.7-6.5,3.5-10.1,4.4c-1.7,0.6-3.4,1-5.2,1.4c-1.2,0.3-2.4,0.5-3.6,0.4c-1.3-0.1-2.7-0.1-4-0.2c-1.1-0.1-2.2-0.2-3.3-0.4
	c-1.8-0.3-3.5-0.6-5.3-0.8c-2.2-0.3-4.4-0.9-6.5-1.7c-0.9-0.3-1.8-0.8-2.8-1c-0.5-0.1-1-0.4-1.5-0.7c-0.7-0.4-1.3-0.9-1.9-1.4
	c-0.5-0.4-1-0.9-1.5-1.3c-2-1.6-3.9-3.4-5.5-5.4c-0.6-0.7-1.2-1.3-1.8-2c-0.2-0.2-0.5-0.5-0.6-0.8c-0.9-1.9-2.5-3.5-3.2-5.5
	c-0.6-0.9-1.4-1.4-2.5-1.5c-0.3,0-0.7,0.3-0.6,0.6c0,0.3,0,0.7,0.1,1c1.1,2.1,2.1,4.2,3.7,6c0.8,0.9,1.5,1.9,2.5,2.7
	c0.2,0.1,0.3,0.3,0.4,0.5c0.2,0.4,0.4,0.8,0.4,1.3c-0.2,1.3-0.7,2.6-1.5,3.7c-0.4,0.6-0.8,1.1-1.4,1.5c-0.7,0.5-1.5,1-2.2,1.6
	c-1.3,1.1-2.9,1.7-4.6,1.9c-2.5,0.2-4.9,0.8-7.3,0.8c-0.7,0-1.3,0.1-2,0.2c-1.1,0.2-2.2,0.3-3.3,0.3c-0.8,0-1.6,0-2.3,0.2
	c-2.6,0.5-5.3,0.7-8,0.9c-0.8,0.1-1.6,0.1-2.3,0.1c-2.6-0.1-5.1-0.2-7.7-0.3c-0.9,0-1.8,0-2.7,0c-2.9,0-5.8-0.1-8.7-0.6
	c-1.9-0.4-3.7-0.8-5.5-1.6c-1.2-0.6-2.5-0.9-3.8-1.2c-1.2-0.3-2.3-0.8-3.4-1.4c-1.1-0.7-2.3-1.4-3.2-2.4c-0.6-0.6-1.4-1.1-2.1-1.7
	c-0.5-0.4-0.9-1-1.2-1.6c-0.3-0.6-0.5-1.2-0.7-1.9c-0.2-0.5-0.2-1.1-0.4-1.6c-0.8-2.2-0.9-4.3-0.5-6.6c0.1-0.3,0.1-0.7,0.1-1
	c0-0.5-0.3-0.8-0.6-1.1c-0.2-0.2-0.4-0.2-0.6,0c-0.3,0.5-0.6,0.9-0.8,1.4c-0.2,0.6-0.3,1.3-0.4,2c-0.1,0.7-0.1,1.3,0,2
	c0.1,0.5,0.2,1.1,0.3,1.6c0.3,1.2-0.2,2.2-0.9,3.1c-0.3,0.3-0.6,0.6-1,0.9c-0.4,0.2-0.8,0.4-1.2,0.6c-0.6,0.2-1.1,0.9-1.8,0.9
	c-0.8,0.1-1.6,0.2-2.3,0.1c-1.6-0.1-3.1,0-4.7,0c-1.6,0-3.1-0.2-4.7-0.2c-3.2,0-6.5-0.3-9.7-0.4c-2.2-0.1-4.5-0.1-6.7-0.2
	c-1.7-0.1-3.3-0.3-5-0.7c-1.5-0.3-3-0.7-4.6-1c-1.4-0.2-2.8-0.7-4.1-1.5c-1-0.6-2.2-1.1-3.3-1.7c-1-0.5-1.9-1.2-2.7-2
	c-0.2-0.2-0.5-0.5-0.6-0.8c-0.5-1.1-1.4-2-2.1-3c-0.7-1-1.4-2-2-3.1c-1-1.5-1.6-3.2-2-4.9c-0.1-0.4,0.2-0.9,0.7-1
	c1.6-0.1,3.1-0.3,4.7-0.4c0.4,0,0.9-0.1,1.3-0.1c2.8,0.2,5.6-0.1,8.3-0.5c0.4-0.1,0.9-0.1,1.3-0.2c3.1-0.3,6.2-0.5,9.4-0.8
	c2.6-0.2,5.1-0.5,7.7-0.9c1.7-0.3,3.3-0.4,5-0.3c1.6,0.1,3.1-0.1,4.7-0.4c1.6-0.4,3.3-0.6,5-0.8c2.1-0.3,4.2-0.7,6.2-1.2
	c1.8-0.4,3.7-0.9,5.5-1.6c2.6-1,5.2-2.1,7.5-3.6c1.4-0.9,2.9-1.7,4.4-2.4c2.5-1.1,4.6-2.7,6.7-4.4c0.8-0.7,1.2-1.6,1.6-2.5
	c0.1-0.2,0.1-0.4,0.1-0.7c0.1-1.8-0.4-3.5-1.3-5.1c-0.4-0.7-0.9-1.3-1.6-1.7c-0.8-0.5-1.4-1.1-1.9-1.9c-0.4-0.6-0.9-1-1.5-1.3
	c-1-0.5-2-1-3-1.5c-0.3-0.2-0.6-0.4-0.8-0.6c-0.1-0.1-0.1-0.2-0.2-0.3c-0.1-0.2,0-0.4,0.3-0.5c0.3-0.1,0.6-0.3,0.9-0.4
	c2.4-0.4,4.8-0.9,7.3-1.3c1.7-0.2,3.3-0.2,5-0.2c3.2-0.1,6.5-0.2,9.7,0c0.8,0.1,1.6,0.1,2.3,0.1c2.8,0,5.6,0.3,8.4,0.5
	c0.7,0.1,1.3,0.2,2,0.4c2.3,0.7,4.5,1.2,6.7,2c0.3,0.1,0.6,0.2,1,0.3c1.7,0.4,3.2,1,4.7,1.8c2.9,1.5,6,2.3,9.2,3
	c0.8,0.2,1.5,0.4,2.3,0.5c3.6,0.6,2.5,0.7,5.5-1.4c0.3-0.2,0.5-0.5,0.6-0.8c0.3-0.8,0.6-1.7,0.8-2.5c0.2-0.9,0.2-1.8-0.1-2.6
	c-1.2-3-2.2-6.1-3.6-9c-0.3-0.5-0.5-1-0.8-1.5c-0.7-1-1.3-2.1-2-3.1c-0.9-1.2-2-2.4-2.9-3.6c-0.1-0.2-0.3-0.3-0.5-0.5
	c-0.9-0.7-1.6-1.5-2.3-2.4c-1-1.2-2.1-2.3-3.4-3.2c-1.2-0.8-2.2-1.9-3.3-2.9c-0.4-0.4-0.9-0.7-1.4-0.9c-0.5-0.3-1-0.4-1.6-0.5
	c-1-0.1-2-0.1-3-0.1c-0.8,0-1.5,0.2-2.2,0.7c-0.6,0.4-1.4,0.8-2.1,1.1c-3.5,1.7-6.9,3.6-10.2,5.7c-2.9,1.8-5.9,3.6-8.9,5.4
	c-0.5,0.3-1,0.6-1.4,0.9c-1.4,1-2.8,1.9-4.4,2.3c-2.5,1.1-5.2,2-7.7,3.3c-0.7,0.4-1.4,0.6-2.2,0.8c-2.3,0.6-4.5,1.3-6.7,2.2
	c-1.2,0.4-2.4,0.6-3.6,0.9c-0.9,0.2-1.8,0.3-2.6,0.3c-0.9,0-1.7-0.4-2.6-0.7c-4.1-1.4-11-3.2-14.9-4c-0.4-0.1-0.9-0.2-1.3-0.3
	c-2-0.7-4.1-1-6.2-1.5c-1.1-0.3-2.2-0.5-3.3-0.5c-1.8,0-3.6-0.3-5.3-0.2c-1.2,0.1-2.5,0-3.7,0c-1.7-0.1-3.3-0.1-5,0
	c-1.3,0.1-2.7,0-4,0c-0.8,0-1.6-0.1-2.3,0c-3,0.4-6,0.7-9,0.8c-2.4,0.5-4.9,0.4-7.3,0.8c-0.6,0.1-1.1-0.5-1-1c0-0.1,0-0.2,0-0.3
	c0.4-1.5,0.6-3.1,1.1-4.6c0.7-2.5,1.3-5,1.8-7.5c0.5-2.9,1.2-5.7,1.8-8.5c0.2-0.8,0.5-1.5,0.9-2.1c1.6-2.5,2.1-2.9,4.5-4.4
	c0.8-0.5,1.6-0.8,2.5-1c0.6-0.1,1.3-0.4,1.9-0.7c1.8-1,3.7-1.6,5.6-2.2c0.6-0.2,1.3-0.4,1.9-0.6c2.3-0.8,4.7-1.3,7.2-1.2
	c0.7,0,1.3-0.1,2-0.2c1.2-0.2,2.5-0.1,3.7,0c0.3,0,0.6,0.2,1,0.3c0.7,0.2,1.1,0.9,0.9,1.6c-0.4,0.9-0.7,1.9-1.1,2.8
	c-0.2,0.4-0.4,0.8-0.6,1.2c-0.1,0.4-0.2,0.9-0.2,1.3c-0.1,0.6,0.5,1,1.1,0.8c0.3-0.1,0.6-0.3,0.7-0.6c0.2-0.7,0.5-1.5,0.9-2.2
	c1.4-2.4,2.3-5.1,3-7.8c0.8-3,1.8-6,2.7-9c0.5-1.7,1.1-3.4,1.2-5.2c0-0.6,0.2-1.1,0.3-1.6c0.4-1.8,1-3.7,1.4-5.5
	c0.2-0.9,0.7-1.6,1.3-2.3c1.8-2.1,3.9-3.7,6.3-4.8c1.8-0.8,3.7-1.6,5.6-2.3c1.3-0.5,2.6-0.8,3.9-1c4-0.7,7.9-1.4,11.9-2
	c3.2-0.4,6.4-0.8,9.7-0.8c1.9,0,3.8-0.1,5.7-0.3c1.6-0.1,3.1-0.1,4.7-0.1c1.6,0,3.1,0.1,4.7,0.5c0.6,0.2,1.3,0.2,2,0.3
	c1.5,0.3,5.4,1.5,7,2.1c0.3,0.1,0.5,0.6,0.3,0.8c-0.1,0.1-0.1,0.2-0.2,0.3c-1,1.1-1.9,2.2-2.9,3.3c-1.1,1.1-2.1,2.4-3.3,3.3
	c-0.8,0.6-1.3,1.5-1.8,2.4c-0.1,0.3,0,0.7,0.3,0.9c0.3,0.2,0.7,0.2,0.9,0c0.2-0.1,0.3-0.3,0.5-0.4c0.8-0.9,1.6-1.8,2.5-2.7
	c1.8-1.7,3.4-3.5,5.1-5.3c0.9-1,1.9-1.9,2.9-2.8c0.6-0.5,1.1-1.1,1.7-1.7c0.9-1,2-1.8,3.2-2.4c1.3-0.6,2.5-1.4,3.8-2.2
	c1.1-0.7,2.3-1.3,3.6-1.7c0.4-0.1,0.9-0.3,1.3-0.5c1.8-1,3.8-1.3,5.8-1.7c1.2-0.3,2.4-0.6,3.6-0.7c1.1-0.1,2.2-0.3,3.3-0.5
	c0.6-0.1,1.3-0.2,2-0.2c0.6,0,1.1,0,1.7,0c2.8-0.2,5.6,0.2,8.3,1c1,0.3,1.9,0.5,2.9,0.8c5.5,1.2,10.6,3.5,15.6,6
	c0.9,0.4,1.8,1,2.6,1.5c2.2,1.5,4.5,3,6.6,4.5c1,0.7,1.9,1.5,2.9,2.3c0.9,0.8,1.8,1.6,2.8,2.4c0.3,0.3,0.6,0.6,0.8,1.1
	c0.1,0.2,0.1,0.4-0.1,0.6c-0.2,0.2-0.5,0.5-0.7,0.7c-1.6,0.8-3.1,1.8-4.5,2.9c-0.4,0.3-0.8,0.4-1.2,0.7c-0.5,0.3-0.9,0.6-1.4,0.9
	c-1,0.8-2,1.8-3.2,2.4c-0.2,0.1-0.4,0.3-0.5,0.4c-1.9,1.8-3.7,3.5-5.1,5.7c-0.1,0.2-0.1,0.4-0.1,0.6c0.1,0.4,0.7,0.7,1,0.5
	c0.4-0.3,0.8-0.5,1.1-0.8c1.2-1.1,2.5-2.2,3.7-3.4c2-1.9,4-3.9,6.5-5.3c0.2-0.1,0.4-0.2,0.6-0.4c1.9-1.5,4-2.5,6.1-3.4
	c1.9-0.7,3.7-1.5,5.7-2c1.4-0.4,4.6-0.7,6-0.5c0.4,0.1,0.9,0.1,1.3,0.2c1.1,0.3,2.1,0.7,3.2,1.1c0.4,0.2,0.9,0.4,1.1,0.7
	c1.8,2.3,4.1,4.1,6.2,6.1c1.7,1.6,3.3,3.3,4.8,5.1c0.4,0.4,0.7,0.9,1.1,1.3c1.8,1.3,3.2,3.1,4.7,4.7c1.2,1.2,2.3,2.5,3.3,3.8
	c1.1,1.4,2.2,2.8,3.1,4.4c0.3,0.6,0.7,1.2,1,1.7c2.2,3.6,3.1,7.6,3.3,11.8c0,0.1,0,0.2,0,0.3c-0.3,1.7-0.7,3.3-1.7,4.7
	c-1.8,2.3-3.7,4.5-5.6,6.7c-0.3,0.3-0.9,0.4-1.2,0.2c-0.7-0.6-1.4-1.1-2.1-1.7c-0.4-0.3-0.7-0.5-1.1-0.7c-0.2-0.1-0.4-0.1-0.6,0
	c-0.5,0.2-0.9,0.9-0.5,1.3c0.2,0.3,0.4,0.5,0.7,0.8c1,0.9,2.1,1.7,3.1,2.5c0.5,0.4,1.1,0.7,1.6,1.2c1.5,1.2,3.1,2.2,4.8,3
	c1,0.5,1.9,1.1,2.7,1.9C330.6,87.6,331.8,88.7,332.8,90.2z"/>
<path fill-rule="evenodd" clip-rule="evenodd" d="M318.6,160.3c-0.3,2.5,0.5,4.8,1,7c0.3,1.1,1,2,2,2.6c0.2,0.1,0.8,0.1,0.9-0.1
	c0.4-0.4,0.7-0.8,1.1-1.2c0.2-0.2,0.5-0.4,0.8-0.6c0.3-0.2,0.6-0.2,1-0.1c0.8,0.4,1.4,1.1,2.1,1.6c0.5,0.3,1.1,0.3,1.6,0.1
	c0.3-0.1,0.6-0.3,0.9-0.5c1.2-0.9,2.5-1.5,3.7-2.2c0.3-0.2,0.6-0.3,0.9-0.4c0.2-0.1,0.4-0.1,0.7-0.1c0.6,0,1.1,0,1.6,0.4
	c0.5,0.5,1,0.9,1.4,1.4c0.9,1,2,1.8,3.1,2.5c0.8,0.4,1.6,0.9,2.3,1.3c0.2,0.1,0.2,0.3,0.1,0.6c-0.1,0.1-0.1,0.2-0.2,0.2
	c-0.3,0.2-0.6,0.2-1,0.1c-2.3-0.6-4.3-1.8-6-3.5c-0.2-0.2-0.5-0.5-0.7-0.7c-0.4-0.3-0.9-0.3-1.3-0.1c-0.6,0.3-1.2,0.6-1.8,0.9
	c-1.3,0.9-2.5,1.8-3.7,2.9c-0.3,0.3-0.7,0.6-1.1,0.8c-0.3,0.1-0.7,0.2-1,0.1c-0.6-0.1-1.1-0.4-1.4-0.9c-0.3-0.3-0.5-0.8-0.7-1.1
	c-0.3-0.5-0.8-0.5-1-0.1c-0.2,0.3-0.5,0.5-0.6,0.8c-0.5,1.4-1.5,2.4-2.6,3.4c-0.2,0.2-0.4,0.1-0.6-0.1c-0.7-0.7-1.2-1.7-1.5-2.6
	c-0.7-2-1.3-4-1.5-6.2c-0.1-1.8-0.7-3.5-1.1-5.2c-0.1-0.3-0.6-0.5-0.8-0.3c-0.1,0.1-0.2,0.1-0.3,0.2c-0.1,0.1-0.2,0.1-0.2,0.2
	c-1.7,2.1-3.5,4.1-5,6.3c-0.3,0.5-0.7,0.9-1,1.3c-1.2,1.4-2.4,2.7-3.5,4c-2.3,2.7-4.9,4.9-8.2,6.3c-0.3,0.1-0.6,0.3-0.9,0.4
	c-1.1,0.5-2.1,0.7-3.2,0.2c-0.5-0.2-1.1-0.2-1.6,0.1c-0.5,0.3-1,0.5-1.5,0.7c-0.4,0.2-0.9,0.1-1.3-0.2c-0.3-0.2-0.5-0.4-0.8-0.6
	c-0.2-0.2-0.5-0.5-0.7-0.7c-0.2-0.2-0.7-0.1-0.9,0.1c-0.3,0.2-0.5,0.4-0.8,0.7c-0.4,0.4-0.7,0.8-1.1,1.2c-1.5,1.5-1.8,1.3-3.2-0.2
	c-0.5-0.6-0.9-1.3-1.2-2c-0.3-0.5-0.5-1-0.9-1.4c-0.2-0.2-0.4-0.2-0.6-0.1c-0.6,0.3-1,0.9-1.5,1.4c-1.5,1.6-3.1,2.9-4.8,4.1
	c-0.3,0.2-0.6,0.4-0.9,0.3c-0.2-0.1-0.4-0.2-0.5-0.3c0,0,0-0.2,0.1-0.3c0.6-0.5,1.2-1,1.8-1.5c1.9-1.5,3.7-3.2,5.2-5.2
	c0.5-0.7,1.1-0.6,1.7-0.1c0.6,0.5,1.1,1.1,1.6,1.7c0.4,0.4,0.7,0.9,1.1,1.3c0.9,0.9,1.6,1.1,2.6,0.1c0.3-0.3,0.6-0.6,1-0.9
	c0.6-0.5,1.2-0.5,1.9-0.3c0.4,0.1,0.8,0.3,1.2,0.5c0.8,0.4,1.7,0.6,2.6,0.2c0.5-0.2,1.1-0.2,1.6,0c1.1,0.4,2.2,0.2,3.3-0.3
	c1.4-0.7,2.8-1.3,4.1-2.3c0.9-0.7,1.8-1.4,2.6-2.2c2.2-2.2,4.2-4.6,6.2-7.1c1.9-2.4,3.9-4.6,5.8-7c0.6-0.8,1.3-1.5,1.9-2.3
	c0.2-0.2,0.4-0.3,0.6-0.2c0.3,0,0.6,0.3,0.7,0.6c0.1,0.2,0.2,0.4,0.2,0.6C318.6,159.1,318.6,159.8,318.6,160.3z"/>
<path fill-rule="evenodd" clip-rule="evenodd" d="M122.9,159.7c-0.2,0.1-0.4,0.1-0.4-0.2c0,0,0.1-0.2,0.2-0.2
	C122.9,159.3,122.9,159.5,122.9,159.7L122.9,159.7z"/>
<g>
	<path fill-rule="evenodd" clip-rule="evenodd" d="M238.2,11.5c0.6,0.1,1.4,0.1,2.1,0.3c4,0.7,7.8,1.9,11.5,3.3
		c1.3,0.5,2.4,1.1,3.6,1.7c2.9,1.4,5.8,2.9,8.7,4.3c0.8,0.4,1.6,0.7,2.4,1.1c0.4,0.2,0.5,0.7,0.2,1.1c-0.3,0.4-0.6,0.7-1.1,0.7
		c-0.5,0.1-1.1,0.2-1.6,0.2c-0.3,0-0.7-0.1-0.9-0.3c-0.5-0.7-1.1-1.1-1.8-1.4c-0.4-0.2-0.8-0.4-1.2-0.5c-2.2-1-4.5-1.9-6.7-3
		c-1.8-0.9-3.6-1.7-5.4-2.5c-3-1.3-6.1-2.2-9.3-2.8c-0.9-0.2-1.7-0.3-2.6-0.5c-0.2,0-0.4-0.3-0.4-0.5c0-0.2,0.1-0.4,0.3-0.5
		c0.2-0.1,0.4-0.3,0.6-0.3C237.1,11.5,237.6,11.5,238.2,11.5z"/>
	<path fill-rule="evenodd" clip-rule="evenodd" d="M174.5,23.9c-1.3,0.1-2.7,0.2-4,0.4c-4.5,0.7-9,1.6-13.3,3
		c-1.6,0.5-3.1,1.1-4.6,2c-0.5,0.3-1,0.5-1.5,0.7c-0.2,0.1-0.5,0-0.6-0.2c-0.1-0.2-0.2-0.4-0.2-0.6c0-0.2,0.2-0.4,0.3-0.6
		c0.6-0.8,1.4-1.5,2.3-1.8c0.7-0.3,1.5-0.5,2.2-0.8c1.2-0.4,2.3-0.8,3.5-1.2c0.7-0.2,1.5-0.5,2.2-0.6c2.7-0.6,5.4-1.2,8.2-1.7
		c2.5-0.5,5.1-0.7,7.6-0.5c0.6,0.1,1,0.6,0.8,1.2c-0.2,0.4-0.5,0.8-0.9,0.8C175.8,24,175.2,24,174.5,23.9
		C174.5,24,174.5,23.9,174.5,23.9z"/>
	<path fill-rule="evenodd" clip-rule="evenodd" d="M315.2,47.7c-0.1,0.1-0.1,0.2-0.2,0.3c-0.4,0.4-1.3,0.3-1.5-0.1
		c-0.5-1.6-1.6-2.9-2.7-4.1c-2.2-2.4-4.5-4.4-7.3-6.8c-0.3-0.2-0.5-0.4-0.8-0.7c-2-2-4.2-3.6-6.7-4.9c-0.2-0.1-0.3-0.3-0.5-0.5
		c-0.2-0.2-0.1-0.8,0.2-0.9c0.7-0.2,1.5-0.4,2.2-0.5c0.2,0,0.5,0.1,0.6,0.2c0.3,0.2,0.6,0.4,0.8,0.6c1.2,1,2.3,2.1,3.5,3.2
		c2.6,2.5,5.1,5,7.6,7.5c0.6,0.5,1.1,1.1,1.6,1.7c0.8,0.8,1.4,1.7,1.9,2.7c0.4,0.7,0.8,1.4,1.2,2C315.3,47.5,315.2,47.7,315.2,47.7z
		"/>
	<path fill-rule="evenodd" clip-rule="evenodd" d="M212.1,156.4c-0.6,0-1.1,0.1-1.7,0c-0.3,0-0.4-0.2-0.4-0.4c0-0.3,0.1-0.5,0.3-0.6
		c0.3-0.1,0.6-0.2,0.9-0.3c2.8-0.4,5.5-0.9,8.2-1.4c2.3-0.5,4.4-1.5,6.5-2.6c1-0.5,1.8-1.4,2.7-1.9c0.2-0.1,0.7,0,0.9,0.3
		c0.3,0.4,0.3,0.7,0.1,0.9c-0.4,0.7-1,1.3-1.6,1.6c-2.4,1.4-4.9,2.5-7.7,3.1C217.6,155.6,214.9,156.2,212.1,156.4z"/>
	<path fill-rule="evenodd" clip-rule="evenodd" d="M275.4,156.4c-0.2-0.1-0.4-0.2-0.4-0.2c0.1-0.2,0.1-0.4,0.3-0.5
		c0.4-0.2,0.8-0.4,1.2-0.5c3.5-0.8,6.7-2.4,9.6-4.5c1.4-1,2.8-2.1,4-3.5c0.4-0.4,0.7-0.9,1-1.3c0.1-0.2,0.7-0.2,0.9,0
		c0.4,0.3,0.5,0.8,0.3,1.2c-0.2,0.3-0.3,0.6-0.5,0.9c-0.5,0.6-1,1.2-1.6,1.7c-2.8,2.4-5.8,4.4-9.4,5.5c-1,0.3-1.9,0.6-2.9,0.9
		C277.1,156.3,276.2,156.3,275.4,156.4z"/>
	<path fill-rule="evenodd" clip-rule="evenodd" d="M261,26.3c0,0.3-0.7,0.8-1,0.7c-0.3-0.1-0.6-0.2-0.9-0.4
		c-1.1-0.6-2.1-1.3-3.2-1.8c-1.9-1-3.7-2-5.7-2.7c-0.9-0.3-1.9-0.7-2.6-1.4c-0.2-0.2-0.4-0.7-0.2-0.9c0.1-0.1,0.4-0.3,0.6-0.3
		c0.2,0,0.4,0,0.7,0c0.3,0.1,0.6,0.2,0.9,0.4c2.2,1,4.4,2,6.6,3.1c0.4,0.2,0.8,0.3,1.3,0.2c0.2,0,0.5,0,0.6,0.2
		c0.5,1,1.4,1.4,2.2,1.9c0.2,0.1,0.4,0.2,0.5,0.4C261,25.9,261,26.1,261,26.3z"/>
	<path fill-rule="evenodd" clip-rule="evenodd" d="M135.1,147c-0.8,0-2-0.2-3.2-0.5c-2.8-0.6-5.6-1.3-8.4-2.1
		c-1.4-0.4-2.7-0.9-4-1.6c-0.4-0.2-0.7-0.5-1-0.8c-0.1-0.1-0.1-0.4-0.2-0.6c0-0.4,0.3-0.7,0.6-0.5c0.2,0.1,0.4,0.1,0.6,0.3
		c1.1,0.9,2.5,1.5,3.9,1.9c4.4,1.3,8.8,2.6,13.3,3.4c0.1,0,0.2,0.1,0.2,0.2c0.1,0.2,0,0.3-0.3,0.4C136.2,147,135.9,147,135.1,147z"
		/>
	<path fill-rule="evenodd" clip-rule="evenodd" d="M172,27.6c-0.1,0.2-0.2,0.4-0.3,0.5c-0.2,0.1-0.4,0.2-0.6,0.3
		c-0.7,0.2-1.5,0.3-2.3,0.3c-1,0-2,0.1-3,0.3c-1.8,0.4-3.7,0.6-5.5,1.1c-0.2,0.1-0.4,0-0.7-0.1c-0.3-0.1-0.4-0.2-0.4-0.4
		c0-0.1,0-0.2,0-0.3c0.2-0.4,0.6-0.7,1-0.8c0.9-0.3,1.9-0.6,2.9-0.8c1.5-0.3,3.1-0.5,4.6-0.7c1.2-0.2,2.4-0.3,3.6-0.1
		C171.8,26.9,172.1,27.3,172,27.6z"/>
	<path fill-rule="evenodd" clip-rule="evenodd" d="M113.3,60.3c0,0.2,0,0.5-0.1,0.6c-1.1,1.1-2.2,2.3-3.3,3.4
		c-0.5,0.5-0.9,1-1.4,1.4c-1.6,1.7-3.2,3.5-4.2,5.6c-0.2,0.4-0.8,0.4-1.1,0c-0.2-0.3-0.3-0.6-0.2-0.9c0.3-1.2,1-2.3,1.8-3.2
		c0.5-0.6,1.1-1.1,1.6-1.7c1.5-1.5,3.1-2.9,4.6-4.4c0.5-0.4,1.1-0.8,1.6-1.2C113,59.9,113.2,60,113.3,60.3z"/>
	<path fill-rule="evenodd" clip-rule="evenodd" d="M307.9,44.6c0,0.5-0.6,0.8-1,0.6c-0.2-0.1-0.4-0.2-0.6-0.3
		c-0.3-0.2-0.5-0.5-0.7-0.7c-1.6-1.9-3.4-3.5-5.2-5.2c-0.6-0.6-1.2-1.3-1.8-1.9c-0.1-0.1-0.1-0.4-0.2-0.6c0-0.2,0.6-0.3,0.9-0.1
		c0.2,0.1,0.4,0.2,0.6,0.3c2.7,2.1,5.4,4.3,7.6,6.9C307.9,44,308,44.3,307.9,44.6z"/>
	<path fill-rule="evenodd" clip-rule="evenodd" d="M325.7,108.4c-0.1,2.7-0.6,5.4-1.6,8.1c-0.3,0.8-0.4,1.7-0.7,2.6
		c-0.1,0.3-0.3,0.6-0.5,0.8c-0.1,0.1-0.4,0.1-0.6,0.1c-0.1,0-0.2-0.2-0.2-0.3c0-0.3-0.1-0.7,0-1c0.2-1.2,0.4-2.4,0.7-3.6
		c0.7-2.7,1.2-5.4,1.3-8.2c0-0.1,0.1-0.2,0.1-0.3c0.1-0.3,0.3-0.3,0.5-0.3c0.2,0,0.4,0.1,0.5,0.3
		C325.7,107.2,325.7,107.7,325.7,108.4z"/>
	<path fill-rule="evenodd" clip-rule="evenodd" d="M134.7,144c-1.7-0.3-3.3-0.8-4.8-1.3c-0.7-0.3-1.4-0.6-2.1-1
		c-0.2-0.1-0.4-0.3-0.5-0.4c-0.2-0.1-0.3-0.7-0.2-0.9c0.1-0.1,0.4-0.3,0.6-0.3c0.4,0,0.9,0,1.3,0.2c2.2,0.9,4.3,1.8,6.5,2.7
		c0.3,0.1,0.6,0.3,0.8,0.5c0.2,0.2,0.3,0.4,0.1,0.5c-0.1,0.1-0.2,0.1-0.3,0.1C135.6,144.1,135.2,144.1,134.7,144z"/>
	<path fill-rule="evenodd" clip-rule="evenodd" d="M285.4,145.7c-0.1,0.2-0.1,0.4-0.2,0.6c-0.2,0.3-0.4,0.5-0.7,0.7
		c-1.7,1.3-3.5,2.3-5.4,3.3c-0.3,0.1-0.6,0.1-1,0.1c-0.1,0-0.2-0.1-0.3-0.2c0-0.2-0.1-0.4,0-0.6c0.1-0.2,0.3-0.4,0.5-0.5
		c1.9-1.1,3.8-2.3,5.5-3.7c0.2-0.1,0.4-0.3,0.6-0.3c0.2-0.1,0.5-0.1,0.6,0C285.3,145.2,285.3,145.5,285.4,145.7z"/>
	<path fill-rule="evenodd" clip-rule="evenodd" d="M215,152.3c-0.2-0.1-0.4-0.2-0.4-0.4c0-0.1,0-0.2,0.1-0.3
		c0.1-0.2,0.3-0.4,0.5-0.5c0.7-0.4,1.3-0.8,2.1-1.1c1.6-0.6,3.3-1.3,5-1.7c0.2,0,0.4,0,0.6,0.2c0.2,0.2,0.1,0.8-0.1,0.9
		c-0.1,0.1-0.2,0.2-0.2,0.2c-0.2,0.1-0.4,0.3-0.6,0.3c-2.1,0.8-4.1,1.6-6.2,2.3C215.4,152.4,215.2,152.3,215,152.3z"/>
	<path fill-rule="evenodd" clip-rule="evenodd" d="M114,65.4c0,0.1,0,0.2-0.1,0.3c-0.3,0.3-0.6,0.6-1,0.9c-1.1,0.9-2.3,1.8-3.2,2.9
		c-0.2,0.2-0.7,0.2-0.9,0c-0.1-0.2-0.3-0.4-0.3-0.6c0-0.3,0.1-0.7,0.3-0.9c1.1-1.4,2.4-2.6,4.2-3.2c0.2-0.1,0.4,0,0.6,0
		C113.9,64.9,114,65.1,114,65.4z"/>
	<path fill-rule="evenodd" clip-rule="evenodd" d="M321,111.7c0,1-0.1,2.1-0.6,3.1c0,0.1-0.1,0.2-0.2,0.3c-0.2,0.1-0.4,0.2-0.6,0.3
		c-0.2,0.1-0.7-0.3-0.7-0.6c0-0.1,0-0.2,0-0.3c0.1-1.1,0.3-2.2,0.6-3.2c0.1-0.2,0.3-0.3,0.5-0.3c0.2,0,0.4,0,0.6,0.2
		C320.8,111.2,320.8,111.4,321,111.7z"/>
</g>
<g>
	<path fill-rule="evenodd" clip-rule="evenodd" fill="#FFFFFF" d="M142.3,99.2c0.9,0,1.2,0,1.4,0c2.7,0,5.3,0.3,8,0.3
		c0.8,0,1.6,0.1,2.3,0.2c1.5,0.2,3.1,0.5,4.6,0.6c3,0.3,5.9,1,8.8,1.8c1.8,0.5,3.7,1,5.6,1c1.7,0.1,3.3,0.7,4.9,1.1
		c0.9,0.2,1.6,0.8,2,1.6c0.2,0.3,0.3,0.6,0.4,0.9c0.1,1,0.2,2,0.2,3c0,0.8-0.4,1.6-1,2c-2.8,2-5.7,3.9-8.9,5.3
		c-3,1.3-6.1,2.1-9.4,2.2c-1.4,0-2.9,0.2-4.3,0.3c-1.6,0.2-3.1,0.3-4.7,0.2c-2.1-0.2-4.2-0.1-6.3,0c-3,0.3-6,0.2-9-0.2
		c-1.2-0.2-2.4-0.2-3.7-0.3c-1.5-0.1-2.9-0.2-4.3-0.5c-1.1-0.2-2.2-0.4-3.3-0.6c-1.9-0.3-3.7-0.8-5.4-1.6c-1.4-0.6-2.9-1.1-4.4-1.7
		c-0.8-0.3-1.3-0.9-1.6-1.6c-0.4-1.2-0.7-2.3-0.8-3.6c-0.2-1.9,0.6-3.5,1.9-4.8c0.5-0.5,1-0.9,1.6-1.1c1-0.3,1.7-1,2.7-1.4
		c1.4-0.5,2.7-1,4.1-1.5c0.9-0.4,1.9-0.6,2.9-0.6c0.9,0,1.8-0.1,2.7-0.3c2.3-0.5,4.6-0.6,7-0.7c1.3-0.1,2.7-0.2,4-0.3
		C141.2,99.3,142.1,99.2,142.3,99.2z"/>
	<path fill-rule="evenodd" clip-rule="evenodd" fill="#FFFFFF" d="M95,118.3c-1.5,0-2.9,0-4.2,0.1c-1,0.1-2-0.1-3-0.2
		c-1.8-0.2-3.6-0.2-5.4-0.2c-3.6,0-7.1,0-10.7,0c-0.9,0-1.8,0-2.7,0c-3,0.1-6,0-9-0.1c-2.6-0.1-5.1-0.6-7.4-1.7
		c-0.7-0.3-1.5-0.5-2.2-0.8c-1-0.4-2.1-0.8-3.1-1.3c-0.7-0.3-1.2-1-1.6-1.6c-0.1-0.2,0-0.7,0.2-0.9c0.3-0.2,0.5-0.5,0.8-0.6
		c0.4-0.2,0.8-0.4,1.2-0.7c1.8-1.7,4.2-2.5,6.3-3.8c0.4-0.2,0.8-0.4,1.2-0.5c0.8-0.2,1.5-0.4,2.3-0.5c2.7-0.3,5.2-1.2,7.9-1.5
		c0.3,0,0.7-0.2,1-0.3c0.7-0.3,1.5-0.4,2.3-0.4c1.6-0.1,3.1-0.2,4.7-0.3c1.2-0.1,2.5-0.2,3.6-0.5c3.4-0.8,6.8-1,10.3-0.9
		c1.4,0,2.9,0.3,4.3,0c0.3-0.1,0.7,0,1,0.1c1,0.2,2,0.1,3,0c1.1-0.1,2.2-0.1,3.3,0c1,0.1,2,0.2,3,0.3c2,0,4,0.5,5.9,1
		c1.3,0.4,2.6,0.5,3.8,1.2c0.2,0.1,0.4,0.2,0.5,0.4c0.1,0.2,0.3,0.4,0.2,0.6c-0.1,0.4-0.3,0.8-0.5,1.2c-0.4,0.8-0.7,1.6-0.9,2.5
		c-0.1,0.3-0.1,0.7,0,1c0.2,0.8,0.4,1.5,0.6,2.3c0.3,1,0.5,1.9,0.8,2.9c0,0.2-0.3,0.7-0.5,0.8c-0.1,0-0.2,0.1-0.3,0.1
		c-2,0.7-4.1,1.1-6.2,1.5c-1.7,0.4-3.5,0.5-5.3,0.6S96.6,118.2,95,118.3z"/>
	<path fill-rule="evenodd" clip-rule="evenodd" d="M171,112.6c-0.6,0-1.1,0-1.7,0c-1.6-0.2-3-0.6-4.2-1.7c-0.4-0.4-0.8-0.7-1.2-1.1
		c-0.8-0.9-0.9-2.1-0.1-3c0.4-0.4,0.8-0.8,1.2-1.1c1.5-1,3.1-1.2,4.8-0.8c1.3,0.3,2.6,0.7,3.9,1c0.8,0.2,1.4,0.6,2,1.1
		c0.3,0.3,0.6,0.6,0.7,1.1c0.1,0.5,0.2,1.1,0.3,1.6c0,1.2-0.4,1.9-1.5,2.4c-0.8,0.4-1.6,0.7-2.6,0.7
		C172.1,112.7,171.5,112.7,171,112.6C171,112.7,171,112.6,171,112.6z"/>
	<path fill-rule="evenodd" clip-rule="evenodd" d="M100.6,105.4c0.5,0,1,0.1,1.6,0.1c0.6,0,1.1,0.1,1.6,0.4c1,0.5,2,0.9,3,1.3
		c1,0.4,1.3,1.1,1.6,2c0.2,0.8-0.4,2-1.1,2.2c-0.3,0.1-0.6,0.3-0.9,0.4c-2.4,0.7-5.2,1.1-7.6,0.9c-0.3,0-0.7-0.1-1-0.2
		c-1.1-0.5-2.1-1.2-2.9-2.2c-0.1-0.2-0.2-0.4-0.3-0.6c-0.2-1-0.1-2,0.6-2.8c0.2-0.3,0.4-0.5,0.7-0.7c0.9-0.5,1.8-0.8,2.8-0.8
		C99.5,105.3,100,105.4,100.6,105.4z"/>
</g>
<g>
	<path fill-rule="evenodd" clip-rule="evenodd" d="M369.6,36.8c0.8-0.3,1.5-0.5,2.2-0.8c3.3-1.1,6.5-2.5,9.6-4.1
		c0.4-0.2,0.8-0.3,1.2-0.5c0.3-0.1,0.9,0.2,1.1,0.5c0.2,0.3,0.2,0.6,0.1,0.8c-0.1,0.3-0.2,0.6-0.4,0.7c-3.2,2.4-5.5,5.6-7.9,8.7
		c-3,4.1-5.8,8.4-8.1,12.9c-0.5,1-1.2,2-1.9,2.9c-1.3,1.9-2.5,3.9-3.7,6c-0.3,0.6-0.2,1.5,0.2,2.1c0.1,0.1,0.2,0.2,0.3,0.3
		c2.4,2.1,4.5,4.5,6.8,6.8c1.9,1.9,3.9,3.5,6.4,4.4c0.5,0.2,1.1,0.5,1.5,0.9c0.4,0.4,0.7,0.9,0.6,1.6c0,0.3-0.1,0.6-0.4,0.7
		c-0.4,0.2-0.8,0.4-1.2,0.5c-1.6,0.3-3.2,0.3-4.7,0.9c-0.9,0.3-1.8-0.1-2.3-0.8c-1.4-1.7-2.7-3.5-3.8-5.3c-1.6-2.6-3.3-5.2-5.4-7.4
		c-0.3-0.3-0.9-0.1-1.1,0.3c-0.2,0.2-0.4,0.5-0.5,0.7c-0.9,2.1-2.1,4.1-3,6.3c-0.9,2.3-2.2,4.4-3.4,6.6c-0.5,0.9-1.4,1.5-2.4,1.7
		c-0.9,0.2-1.8-0.2-2.2-1c-0.2-0.4-0.4-0.9-0.2-1.3c0.3-1,0.7-1.9,1.2-2.8c1.3-2.3,2.4-4.7,3.5-7c0.9-1.8,2-3.6,3-5.3
		c0.5-0.9,0.9-1.8,1.1-2.8c0-0.3,0-0.6-0.1-0.9c-0.3-0.7-0.6-1.3-1.1-1.9c-2.3-3-4.5-6.1-6.8-9.1c-1.1-1.4-2.3-2.6-3.4-4
		c-0.3-0.4-0.4-0.9-0.2-1.2c0.6-1,0.9-2.1,1.2-3.3c0.1-0.6,0.4-1.1,0.6-1.6c0.1-0.3,0.8-0.5,1.2-0.3c0.5,0.3,0.9,0.7,1.1,1.3
		c0.5,2.5,1.6,4.7,2.9,6.8c1.6,2.5,3.2,4.9,4.8,7.3c0.3,0.5,0.7,0.9,1.1,1.4c0.2,0.3,0.9,0.3,1.2,0.1c0.2-0.2,0.4-0.4,0.6-0.7
		c0.9-1.5,1.7-3,2.3-4.7c0.6-1.6,1.4-3.2,2.2-4.8c1-1.9,2-3.9,2.8-5.9C367,40.6,368.3,38.6,369.6,36.8z"/>
	<path fill-rule="evenodd" clip-rule="evenodd" d="M380.7,117.2c0.1-3.6,0.2-7.3,0.5-10.9c0.1-2.3,0.5-4.6,0.5-7
		c0-0.6,0.3-1.1,0.8-1.5c0.8-0.6,1.7-1.1,2.8-1.1c1.9,0.1,3.8-0.3,5.6-0.9c5.4-1.6,10.9-3.1,16.4-4.7c0.3-0.1,0.6-0.2,0.8-0.2
		c0.6-0.1,1.5,0.6,1.5,1.2c0,0.9,0,1.7-0.1,2.6c0,1.3-0.2,2.6-0.1,3.9c0.4,4.4,0.5,8.7,0.3,13.1c-0.1,3,0.6,5.8,1.1,8.6
		c0.1,0.4,0.3,0.8,0.5,1.2c0.7,1.5,0.8,3.1,1,4.7c0,0.1,0,0.3-0.1,0.4c-0.4,0.8-0.8,1.5-1.5,2.1c-0.2,0.2-1,0.2-1.3,0
		c-0.5-0.3-0.9-0.7-1.1-1.3c-0.1-0.6-0.3-1.1-0.3-1.7c-0.2-2.2-0.2-4.4-0.9-6.5c-0.2-0.5-0.2-1.2-0.2-1.7c0.1-1.8-0.1-3.5-0.4-5.2
		c-0.3-2.8-0.5-5.5-0.4-8.3c0.1-1.8-0.1-3.5-0.5-5.2c-0.1-0.6-0.4-1.1-0.6-1.6c-0.1-0.2-0.5-0.4-0.7-0.4c-0.4,0-0.9,0-1.3,0.1
		c-3.2,0.9-6.5,1.8-9.7,2.6c-2,0.5-3.9,1.2-5.8,1.8c-0.3,0.1-0.5,0.3-0.8,0.4c-0.6,0.3-0.9,0.8-1,1.3c-0.3,1.9-0.6,3.7-0.2,5.6
		c0.2,0.7,0.2,1.5-0.1,2.2c-0.8,2.3-0.7,4.6-0.3,6.9c0.3,1.7,0.5,3.4,0.5,5.2c0,1.2,0.2,2.3,0.7,3.4c0.3,0.7,0.3,1.4,0.3,2.1
		c0,0.6-0.3,1.1-0.7,1.6c-0.5,0.6-1.1,1-1.8,1c-0.6,0-1.2,0-1.7,0.1c-1.3,0-1.9-1.1-1.9-2C380.8,125.3,380.8,121.3,380.7,117.2
		C380.8,117.2,380.7,117.2,380.7,117.2z"/>
	<path fill-rule="evenodd" clip-rule="evenodd" d="M411.9,64c0-0.4,0.1-1.4,0.2-2.4c0.5-4.9,0.4-9.9,0.4-14.9c0-0.4-0.1-0.9-0.2-1.3
		c0-0.3-0.7-0.8-0.9-0.8c-0.6,0-1.2,0-1.7,0.1c-3.3,0.3-6.6,1-9.9,1.5c-1.4,0.2-2.8,0.7-4.2,1.3c-0.7,0.3-1.4-0.1-1.8-0.8
		c-0.6-1.4-0.1-2.6,0.7-3.6c0.2-0.2,0.5-0.4,0.7-0.5c1.9-0.4,3.7-0.9,5.6-1c3-0.3,6.1-0.7,9.1-1.2c1.6-0.3,3.2-0.5,4.8-0.6
		c1-0.1,2-0.3,3-0.4c1.7-0.2,3.5-0.3,5.2-0.7c1.7-0.4,3.5-0.2,5.2-0.5c0.9-0.2,1.7-0.2,2.6-0.3c1.1-0.1,2,1,1.7,2
		c-0.2,0.8-0.4,1.7-0.7,2.5c-0.2,0.7-0.8,1.3-1.5,1.3c-1.7,0.1-3.5,0.2-5.2,0.3c-1.3,0-2.6,0-3.9,0c-0.6,0-1.1,0.2-1.7,0.3
		c-0.2,0.1-0.6,0.3-0.6,0.5c-0.3,1-0.7,1.9-0.8,2.9c-0.2,2-0.4,4.1-0.3,6.1c0.2,4.5,0.1,9,0.1,13.6c0,1,0,2,0,3.1
		c0,1.5,0.2,2.9,0.7,4.3c0.1,0.4,0.2,0.9,0.2,1.3c0,0.6-0.2,1.2-0.7,1.5c-0.4,0.2-0.7,0.5-1.1,0.6c-1.2,0.4-2.3,0.2-3.4-0.4
		c-0.4-0.2-0.7-0.6-0.8-1c-0.1-3.2-0.5-6.4-0.8-9.6C411.7,66.4,411.9,65.5,411.9,64z"/>
	<path fill-rule="evenodd" clip-rule="evenodd" d="M448.3,69.3c-3.7,1.1-7.4,2.5-11.2,3.4c-1.3,0.3-2.5,0.6-3.8,0.9
		c-0.6,0.2-1.3,1-1.3,1.6c-0.1,0.7-0.2,1.5-0.1,2.2c0.1,1.9,0.1,3.8,0.3,5.7c0.2,2.2,0.4,4.3,0.4,6.5c0,1.6,0.2,3.2,0.5,4.8
		c0.2,0.8-0.4,1.8-1.3,2c-0.5,0.2-1.1,0.3-1.7,0.4c-0.5,0.1-0.9-0.1-1.2-0.4c-0.9-1.2-1.5-2.5-1.5-4c0-3.5,0.1-7,0.2-10.5
		c0.1-2.3,0.2-4.7,0.2-7c0-0.4-0.1-0.9-0.2-1.3c-0.2-0.7-0.2-1.4,0-2.2c0.3-1,0.3-2,0.3-3c-0.1-2.8,0-5.5,0-8.3
		c0-0.9,0.4-1.7,0.9-2.4c0.4-0.5,0.8-0.9,1.4-1c2.9-0.4,5.7-1.1,8.6-1.6c1.2-0.2,2.3-0.2,3.5-0.1c1,0.1,2,0.3,3,0.4
		c2.4,0.2,4.4,1.2,6.3,2.7c1.2,1,2.2,3.2,1.6,5.1c-0.4,1.1-0.9,2.2-1.7,3c-0.2,0.2-0.4,0.4-0.6,0.6
		C450.1,67.6,449.2,68.4,448.3,69.3z M432,64.7c0,0-0.1,0-0.1,0c0.1,1.5,0.1,2.9,0.2,4.4c0,0.3,0.2,0.6,0.2,0.8
		c0.1,0.2,0.7,0.8,1,0.8c2.5,0.1,4.8-0.8,7.2-1.4c0.9-0.7,2-1.1,3.1-1.5c0.5-0.2,1-0.6,1.5-0.9c1.8-1.1,2.7-2.6,2.5-4.7
		c0-0.4,0-0.9-0.1-1.3c-0.1-0.6-0.3-1.1-0.6-1.6c-0.2-0.5-0.7-0.9-1.2-1.1c-1.1-0.4-2.3-0.6-3.4-0.6c-2.9-0.1-5.8,0.4-8.6,1.4
		c-1,0.3-1.3,1.1-1.4,2C432.1,62.1,432,63.4,432,64.7z"/>
	<path fill-rule="evenodd" clip-rule="evenodd" d="M385.1,68c0-3.1,0.1-6.1,0.1-9.2c0-1.6,0.1-3.2,0.2-4.8c0-0.5,0.8-1,1.3-0.9
		c0.6,0.1,1.1,0.4,1.6,0.7c0.4,0.3,0.6,0.6,0.7,1.1c0.3,3.2,0.6,6.4,0.8,9.6c0.2,2,0.4,4.1,0.9,6c0,0.1,0.1,0.4,0.2,0.4
		c0.3-0.1,0.6-0.1,0.8-0.3c1.7-1.8,3.1-3.8,4.5-5.9c1.7-2.5,3.4-5.1,5.2-7.6c0.9-1.3,2.4-1.6,3.9-1.3c0.5,0.1,1.1,0.7,1.1,1.2
		c0,0.3,0.2,0.6,0.1,0.9c-0.1,2.9,0,5.9-0.4,8.7c-0.4,3.5-0.6,7-0.4,10.5c0,0.7-0.1,1.5-0.2,2.2c0,0.2-0.3,0.5-0.5,0.7
		c-0.2,0.2-1,0.1-1.2-0.1c-0.3-0.3-0.6-0.7-0.6-1.1c-0.1-1-0.2-2-0.2-3.1c0-4.2-0.5-8.4-1.2-12.6c0-0.1-0.2-0.2-0.3-0.2
		c-0.1,0-0.3,0-0.4,0c-0.6,0.7-1.2,1.3-1.6,2.1c-1.2,2-2.3,4.1-3.4,6.1c-0.3,0.6-0.6,1.3-1,1.9c-0.7,1.1-1.2,2.3-1.6,3.6
		c-0.4,1.1-0.9,2.1-1.3,3.3c-0.4,1.2-1.1,2-2.1,2.7c-0.8,0.6-1.7,1.1-2.7,1.3c-0.6,0.1-1.6-0.5-1.7-1.1c-0.1-0.4-0.2-0.9-0.2-1.3
		c0-1.9-0.1-3.8-0.2-5.7c-0.1-2.6-0.1-5.2-0.2-7.9C385.2,68,385.2,68,385.1,68z"/>
	<path fill-rule="evenodd" clip-rule="evenodd" d="M484.4,68.3c-0.1,1.8-0.1,4.3,0.4,6.7c0.1,0.4,0.7,0.7,1,0.5
		c0.4-0.2,0.8-0.4,1.1-0.7c1.6-1.7,3.4-3.2,5.2-4.7c2-1.7,4-3.4,5.7-5.4c0.2-0.2,0.4-0.4,0.7-0.6c0.4-0.3,1.2-0.4,1.7-0.1
		c0.8,0.4,1.5,1,1.5,2c0.3,3.3,0.8,6.7,0.8,10c0,2.6,0.3,5.2,0.8,7.8c0.1,0.6,0.1,1.2,0.2,1.7c0,0.4-0.2,0.8-0.4,1.2
		c-0.3,0.4-0.8,0.7-1.1,0.5c-0.2-0.2-0.5-0.3-0.6-0.6c-0.2-0.4-0.3-0.8-0.4-1.2c-0.3-2-0.6-4-0.9-6.1c-0.4-3-1-6-2-8.9
		c-0.1-0.4-0.8-0.6-1.1-0.3c-0.1,0.1-0.3,0.1-0.4,0.2c-2.7,3.1-5.5,6-8,9.3c-1.2,1.6-2.3,3.3-3.4,5.1c-0.4,0.6-1,1.1-1.7,1.2
		c-0.3,0.1-0.6-0.1-0.7-0.3c-0.1-0.2-0.3-0.5-0.3-0.8c-0.2-2.8-0.6-5.5-0.3-8.3c0.1-0.9,0.1-1.8-0.1-2.6c-0.4-2.5-0.3-4.9-0.5-7.4
		c-0.2-2-0.1-4.1,0.2-6.1c0-0.1,0.1-0.3,0.2-0.4c0.2-0.5,1.1-0.7,1.5-0.5c0.5,0.3,0.9,0.8,1,1.4c0.1,0.4,0.1,0.9,0.1,1.3
		C484.4,64.1,484.4,65.9,484.4,68.3z"/>
	<path fill-rule="evenodd" clip-rule="evenodd" d="M455.4,114.7c0.3,0.7,0.5,1.3,0.8,2c0,0.1,0,0.3,0,0.4c-0.3,1-1.5,1.6-2.5,1.2
		c-0.7-0.3-1.3-0.6-1.6-1.3c-0.8-1.7-1.5-3.5-2.3-5.2c-0.2-0.4-0.4-0.8-0.6-1.1c-0.4-0.7-1-1-1.7-1.2c-1.3-0.3-2.6-0.3-3.9-0.1
		c-1.7,0.3-3.4,0.6-5.2,0.9c-0.6,0.1-1,0.6-1.2,1.1c-0.4,1.1-0.8,2.2-1.2,3.3c-0.2,0.4-1.2,0.5-1.5,0.1c-0.2-0.3-0.5-0.8-0.5-1.2
		c0-0.7,0.2-1.4,0.5-2.1c0.4-1.1,0.8-2.2,1.3-3.2c2-4.4,3.8-8.8,5.9-13.1c0.6-1.2,1.1-2.4,1.7-3.5c0.4-0.7,1.4-1.1,2.3-0.7
		c0.4,0.2,0.8,0.4,1.1,0.7c0.6,0.5,1,1.1,1.2,1.8c1,2.7,2,5.4,3,8.2c0.3,0.8,0.5,1.7,0.6,2.5c0.5,2.3,1.3,4.5,2.2,6.6
		C454.4,112,454.9,113.4,455.4,114.7C455.5,114.7,455.4,114.7,455.4,114.7z M441.5,106.5c1-0.1,3.1,0,5-0.8c0.5-0.2,0.9-0.8,0.8-1.4
		c-0.4-2.4-1.3-4.7-2.3-7c-0.1-0.2-0.4-0.4-0.7-0.4c-0.2,0-0.6,0.2-0.7,0.4c-1.3,2.6-2.5,5.2-3.8,7.8c-0.1,0.1,0,0.3-0.1,0.4
		C439.7,105.8,440.2,106.4,441.5,106.5z"/>
	<path fill-rule="evenodd" clip-rule="evenodd" d="M483.8,100.3c0.1,1.9,0.2,3.8,0.3,5.7c0.1,2,0.3,4.1,1.1,6c0.1,0.3,0,0.6,0,0.9
		c0,0.5-0.7,1.1-1.2,1.1c-1.2-0.1-2.3-1.1-2.3-2.2c0-1.8-0.2-3.5-0.8-5.2c-0.2-0.5-0.8-0.9-1.4-0.8c-0.3,0.1-0.6,0.1-0.9,0.2
		c-0.1,0-0.3,0.1-0.4,0.1c-0.6,0.2-1.1,0.2-1.7,0c-0.7-0.3-1.4-0.4-2.1-0.2c-2.1,0.6-4.3,0.9-6.4,1.3c-2.9,0.5-3.9,1.7-2.3,4.5
		c0.1,0.3,0.3,0.5,0.4,0.8c0.2,0.5-0.1,1.3-0.5,1.5c-0.8,0.4-1.5,0.8-2.3,1.2c-0.3,0.1-0.6,0.1-0.8-0.2c-0.3-0.3-0.5-0.7-0.7-1.1
		c-0.2-0.4-0.2-0.9-0.2-1.3c0-1.8-0.3-3.5-0.8-5.2c-0.7-2.5-0.9-5.2-1.2-7.8c0-0.4,0.1-0.9,0.1-1.3c0-0.3,0.6-0.8,0.9-0.8
		c1.1,0,1.7,0.5,1.8,1.5c0.2,1.3,0.4,2.6,0.5,3.9c0.1,0.5,0.8,1,1.3,0.9c1.1-0.2,2.3-0.3,3.4-0.6c1.7-0.4,3.4-0.7,5.1-1.2
		c2.1-0.6,4.3-0.8,6.4-1.2c0.4-0.1,1.1-0.9,1.1-1.3c0-0.3,0-0.6,0-0.9c-0.1-1.2-0.2-2.3-0.3-3.5c0-0.3,0-0.6,0-0.9
		c0-0.4,0.2-0.8,0.6-1.1c0.4-0.2,0.8-0.4,1.2-0.6c1-0.5,2.1,0.2,2.2,1.4c0,0.6,0,1.2,0,1.7c-0.1,1.5-0.1,2.9-0.2,4.4
		C483.7,100.3,483.7,100.3,483.8,100.3z"/>
	<path fill-rule="evenodd" clip-rule="evenodd" d="M419.1,116.8c0,1.2,0,2.3,0,3.5c-0.1,1.5,0,2.9,0.4,4.3c0.2,0.7,0.2,1.4,0,2.2
		c-0.1,0.4-0.8,1.1-1.3,1.1c-0.6,0-1.2-0.1-1.6-0.5c-0.1-0.1-0.3-0.2-0.3-0.3c-0.1-0.4-0.2-0.9-0.2-1.3c-0.1-1.9-0.1-3.8-0.2-5.7
		c0-1.2-0.1-2.3-0.3-3.5c-0.5-3.2-0.3-6.4-0.4-9.6c0-0.6,0.1-1.1,0.3-1.7c0.3-1.2,1.6-1.8,2.7-1.4c0.3,0.1,0.6,0.2,0.8,0.3
		c1.2,0.8,2.4,1.7,3.3,2.8c0.7,0.9,1.5,1.7,2.3,2.6c2.6,3.3,5.5,6.4,7.6,10.1c0.2,0.4,0.5,0.7,0.7,1.1c0.6,1.1,0.5,2.3-0.9,3.4
		c-0.2,0.1-0.6,0.1-0.8-0.1c-0.2-0.1-0.4-0.4-0.6-0.6c-0.2-0.4-0.4-0.8-0.5-1.2c-0.2-0.9-0.6-1.6-1-2.4c-0.8-1.4-1.7-2.7-2.7-4
		c-1.6-2.1-3.3-4.1-4.9-6.1c-0.3-0.3-0.6-0.6-1-0.8c-0.3-0.2-0.9,0-1,0.4c-0.4,1.3-0.3,2.6-0.4,3.9
		C419,114.4,419.1,115.6,419.1,116.8C419.1,116.8,419.1,116.8,419.1,116.8z"/>
	<path fill-rule="evenodd" clip-rule="evenodd" d="M456.5,66.8c0-1,0.1-2,0-3.1c-0.2-2.9,0.2-5.8,0.6-8.7c0-0.3,0.7-0.7,1-0.6
		c0.8,0.3,1.2,0.8,1.3,1.6c0.1,0.7,0.1,1.5,0,2.2c-0.3,2.2-0.3,4.3-0.2,6.5c0,0.5,0.7,1.1,1.2,1c0.3,0,0.6-0.1,0.9-0.1
		c2.2-0.4,4.3-0.2,6.5-0.2c0.4,0,0.9,0.1,1.3,0.3c2,0.6,2.9,1.8,3,3.8c0,0.4,0,0.9,0,1.3c0,0.7-0.2,1.4-0.6,2.1
		c-0.5,0.7-0.9,1.5-1.4,2.2c-0.6,0.9-1.4,1.4-2.5,1.5c-2.7,0.3-5.5,0.7-8.2,1c-0.4,0-0.9,0-1.3,0c-0.3,0-0.8-0.6-0.9-0.8
		c-0.3-0.8-0.4-1.7-0.5-2.6c-0.1-2.5-0.1-4.9-0.2-7.4C456.4,66.8,456.5,66.8,456.5,66.8z M463.8,67.9
		C463.8,67.9,463.8,68,463.8,67.9c-0.7,0.1-1.4,0-2.2,0.1c-2,0.2-2.7,0.6-2.5,2.6c0.1,0.7,0.1,1.4,0.2,2.1c0,0.3,0.1,0.6,0.2,0.8
		c0.2,0.6,0.7,1,1.2,1.1c1.7,0.3,3.4,0.2,5.1-0.2c0.3-0.1,0.5-0.2,0.8-0.4c0.6-0.3,0.9-0.8,0.9-1.4c0-0.6,0-1.2-0.2-1.7
		c-0.2-0.8-0.6-1.6-0.9-2.4c-0.2-0.4-0.6-0.6-1-0.7C464.9,68,464.4,67.9,463.8,67.9z"/>
	<path fill-rule="evenodd" clip-rule="evenodd" d="M493.5,59.3c-0.6-0.1-1.1-0.2-1.6-0.6c-0.4-0.4-0.9-0.8-1.1-1.3
		c-1.4-2.4-3-4.6-4.5-6.9c-0.1-0.1-0.1-0.3-0.2-0.4c-0.2-0.4-0.1-1,0.3-1.1c0.4-0.2,0.8-0.2,1.2,0c0.9,0.5,1.7,1.1,2.5,1.8
		c0.8,0.7,1.6,1.3,2.5,1.6c0.4,0.1,0.8,0.3,1.3,0.1c0.7-0.3,1.4-0.5,2-0.8c0.6-0.3,1.2-0.8,1.8-1.1c1.3-0.7,2.5-1.5,3.9-1.9
		c0.4-0.1,0.9,0.3,0.9,0.7c0,0.1,0,0.3,0,0.4c0,0.1-0.1,0.3-0.2,0.4c-2.3,2.8-4.6,5.6-6.9,8.4C495,59.1,494.3,59.2,493.5,59.3z"/>
	<path fill-rule="evenodd" clip-rule="evenodd" d="M474.2,65.3c-0.1-3.2-0.1-5.7-0.3-8.2c-0.1-1.1,0.2-2,0.9-2.8
		c0.3-0.4,0.4-0.8,0.7-1.1c0.2-0.2,0.5-0.3,0.8-0.3c0.3-0.1,0.9,0.4,1,0.7c0.1,0.3,0.2,0.6,0.2,0.8c-0.2,2.2-0.3,4.4-0.6,6.5
		c-0.2,1.9-0.3,3.8-0.1,5.7c0.1,1,0.2,2,0.3,3c0.1,1.2,0.4,2.3,0.8,3.4c0.2,0.5-0.2,1.2-0.7,1.3c-0.6,0.2-1.1,0.3-1.7,0.2
		c-0.3-0.1-0.5-0.2-0.7-0.5c-0.1-0.3-0.2-0.5-0.3-0.8c-0.1-0.3-0.1-0.6-0.1-0.9C474.5,69.8,474.4,67.2,474.2,65.3z"/>
</g>
</svg>
