<?xml version="1.0" encoding="utf-8"?>
<!DOCTYPE svg PUBLIC "-//W3C//DTD SVG 1.1//EN" "http://www.w3.org/Graphics/SVG/1.1/DTD/svg11.dtd">
<svg version="1.1" id="SheepTodayOffice" xmlns="http://www.w3.org/2000/svg" xmlns:xlink="http://www.w3.org/1999/xlink" x="0px" y="0px"
	 width="507px" height="178.9px" viewBox="0 0 507 178.9" enable-background="new 0 0 507 178.9" xml:space="preserve">
<g>
	<g opacity="0.6">
		<path fill-rule="evenodd" clip-rule="evenodd" stroke="#FFFFFF" stroke-width="8" stroke-miterlimit="10" d="M245.2,122
			c0.4,1,0.2,2,0.9,3c1.1,0.2,2.2,0.5,3.4,0.5c2.6,0.2,5.1,0.8,7.6,1.2c0.6,0.1,1.1,0.3,1.7,0.4c2.8,0.8,5.6,1.5,8.4,1.9
			c2.1,0.3,4,1.1,5.9,1.8c2,0.7,4.1,1.4,6,2.4c0.9,0.4,1.8,0.8,2.6,1.3c2.3,1.4,4.8,2.5,7,4.2c1.2,0.9,2.6,1.4,3.9,2.1
			c0.3,0.1,0.6,0.3,0.8,0.5c0.2,0.1,0.2,0.4,0.2,0.7c0,0.2-0.2,0.5-0.4,0.6c-0.4,0.2-0.8,0.3-1.2,0.1c-0.1-0.1-0.3-0.2-0.4-0.3
			c-2.1-1.5-4.5-2-7-2.3c-2.6-0.3-5.3-0.6-7.9-0.9c-4.4-0.5-8.7-0.8-13.1-0.5c-4.3,0.3-8.6,0.6-12.9,0.9c-1.8,0.1-3.6,0.5-5.4,0.7
			c-0.6,0.1-1.1,0.4-1.4,0.9c-0.2,0.3-0.3,0.6-0.5,0.9c-2.5,4.4-5.6,8.2-9.8,11.1c-1.5,1-3,2.1-4.6,2.9c-0.9,0.5-1.8,0.9-2.7,1.3
			c-0.8,0.4-1.7,0.7-2.5,1.1c-1.2,0.5-2.4,1-3.8,1.3c-1.5,0.3-2.9,0.5-4.4,0.8c-1.5,0.3-3.1,0.5-4.7,0.4c-0.7,0-1.5,0-2.2,0
			c-4,0.1-7.9-0.5-11.8-1.5c-1.1-0.3-2.2-0.6-3.4-0.9c-1.5-0.4-3.1-0.6-4.5-1.4c-0.2-0.1-0.5-0.2-0.7-0.2c-1.5-0.3-3-0.8-4.5-1.3
			c-0.7-0.3-1.4-0.2-2.1,0.3c-1.2,0.9-2.4,1.7-3.6,2.7c-2.5,2-5.1,3.7-8.1,4.8c-2.2,1.3-4.6,1.7-7.1,2.2c-3.3,0.7-6.6,0.7-9.9,0.5
			c-1.3-0.1-2.6-0.1-3.9-0.5c-0.7-0.2-1.2-0.8-2-0.8c-0.7,0-1.3-0.2-2-0.3c-0.7-0.1-1.5-0.3-2.2-0.4c-1.7-0.2-3.4-0.7-5-1.5
			c-0.6-0.3-1.2-0.6-1.8-0.7c-1.5-0.3-2.8-0.9-4.1-1.7c-0.1-0.1-0.3-0.2-0.4-0.2c-1.5-0.5-2.9-1.3-4.2-2.2c-0.7-0.5-1.5-0.8-2.3-0.7
			c-0.2,0-0.5,0.1-0.7,0c-1.3-0.6-2.6-0.4-3.9,0c-1.1,0.3-2.3,0.4-3.4,0.6c-0.3,0.1-0.7,0.1-0.9,0.4c0.1,1.4,0.4,2.6,0.9,3.5
			c1,2.1,2,4.2,3.1,6.2c1,1.9,2.1,3.8,3.6,5.3c0.3,0.3,0.6,0.6,0.8,1c0.1,0.2,0.1,0.5,0.1,0.7c-0.1,0.2-0.6,0.4-0.9,0.3
			c-0.3-0.1-0.6-0.3-0.9-0.5c-1-1-2.2-1.7-3.6-2.1c-0.5-0.2-0.8-0.5-1.3-0.8c-0.6-0.4-1.2-0.9-1.9-1.1c-1-0.4-1.8-0.8-2.4-1.6
			c-0.6-0.7-1.6-0.9-2.5-1.4c-0.4-0.9-1.2-1.6-2.1-2.1c-0.5-0.3-0.9-0.7-1.2-1.2c-0.2-0.3-0.4-0.6-0.6-0.8c-1.4-1-2.4-2.5-3.5-3.8
			c-0.3-0.4-0.7-0.8-1.1-1c-1.4-1-2.6-2.3-4.3-2.9c-1.7-0.5-3.3-1.1-4.9-1.7c-0.8-0.3-1.6-0.5-2.3-0.9c-0.7-0.4-1.5-0.8-2.3-0.8
			c-0.8-0.1-1.4-0.4-2-0.8c-1.1-0.8-2.2-1.4-3.4-2.1c-0.7-0.4-1.4-0.9-2.1-1.4c-2.8,0-5.7-0.1-8.6-0.1c-1,0-2,0-3-0.1
			c-3.1-0.5-6.3-0.3-9.4-0.5c-2.1-0.1-4.1-0.3-6.2-0.5c-0.7-0.1-1.5-0.3-2.2-0.6c-1.3-0.4-2.5-0.7-3.9-0.8c-2.8-0.3-5.5-0.9-8.2-1.7
			c-0.6-0.2-1.3-0.5-1.9-0.6c-1.6-0.3-2.9-1-4.3-1.8c-1.1-0.7-1.9-1.5-2.4-2.7c-0.9-2.2-2-4.3-2.7-6.7c-0.8-2.7-1.1-5.5-1.1-8.3
			c0-2.9,0.4-5.8,1.3-8.6c0.3-0.9,0.5-1.9,0.8-2.9c0.2-0.6,0.3-1.1,0.5-1.6c0.7-1.6,1.3-3.2,2.1-4.7c1.1-2,2.3-4,3.4-6.1
			c0.1-0.1,0.2-0.3,0.3-0.4c1.7-2.1,3.2-4.4,5.1-6.4c0.6-0.7,1.3-1.3,1.6-2.1c0-0.5-0.4-0.5-0.6-0.7c-1.3-0.8-2.6-1.4-3.8-2.4
			c-0.7-0.6-1.4-1.1-1.8-2c-0.4-0.8-1-0.9-1.9-0.7c-0.4,0.1-0.8,0.2-1.2,0.3c-1.3,0.4-2.2,1.1-2.7,2.3c-0.7,1.5-1.3,3-1.3,4.7
			c0,1-0.3,2-0.4,3c-0.1,1.5-0.8,2.7-1.6,3.9c-0.5,0.8-1.2,1.3-2.1,1.6c-1.5,0.5-3.1,0.4-4.7,0.2c-1.4-0.2-2.7-0.6-4.1-1
			c-0.5-0.1-0.9-0.3-1.4-0.6c-1.6-0.9-3.1-1.8-4.7-2.8C8.6,95,7,93.2,5.8,91.1c-0.5-0.8-0.9-1.6-1.2-2.5C4.3,88,4.1,87.2,4,86.5
			c-0.1-1.6,0.3-3,1.7-3.8c0.6-0.4,1.3-0.8,1.9-1.2c0.4-0.3,0.9-0.4,1.3-0.7c3-1.8,6.4-2.7,9.8-3.5c0.6-0.1,1.1-0.2,1.7-0.3
			c2-0.2,4-0.3,5.9-0.4c1.4-0.1,2.8-0.1,4.2-0.1c1.1,0,2,0.5,2.8,1.4c1.2,1.4,2.3,2.8,3.4,4.3c1.5,2.1,3.4,3.8,5.4,5.4
			c0.7,0.6,1.5,1,2.5,1.3c1.5-0.8,3.1-1.8,4.8-2.3c1.7-0.6,3.3-1.4,5.1-1.8c1.8-0.4,3.6-0.7,5.4-1c0.8-1.5,0.9-3,0.8-4.6
			c-0.1-2-0.1-4-0.1-6c0-2.6,0.7-5.1,1.3-7.5c0.3-1.4,0.8-2.7,1.3-4c0.2-0.5,0.4-0.9,0.6-1.4c1.5-2.7,3.2-5.2,5.6-7.2
			c0.4-0.4,0.8-0.8,1.2-1.2c0.4-0.3,0.7-0.7,1.1-1c1.8-1.2,3.6-2.4,5.5-3.4c1.5-0.9,3.2-1.4,5-1.4c0.8,0,1.7,0,2.4-0.3
			c0.4-0.3,0.6-0.8,0.7-1.3c0.2-1,0.4-1.9,0.6-2.9c0.4-2,1-4,2-5.8c0.8-1.4,1.4-2.8,2.1-4.2c1.3-2.5,3-4.8,4.9-6.8
			c1.1-1.2,2.4-2.2,3.8-3.2c1.7-1.3,3.4-2.6,5.5-3.4c0.2-0.1,0.3-0.1,0.4-0.2c1.6-1.2,3.4-1.6,5.3-1.8c2.1-0.3,4.2-0.6,6.4-0.5
			c1.8,0.1,3.6-0.1,5.4-0.1c1.1,0,2.1,0,3.2,0.2c0.6,0.1,1.3,0.1,2,0.1c3.2,0.1,6.2,0.6,9.3,1.5c1,0.3,1.9,0.3,2.9,0
			c1.8-0.5,3.4-1.3,4.6-2.7c0.5-0.6,1-1.1,1.7-1.4c0.2-0.1,0.5-0.2,0.6-0.4c1.1-1.3,2.6-2,3.9-3.1c0.9-0.7,2-1.2,3-1.7
			c1.6-0.8,3.3-1.4,5.1-2c2.6-0.9,5.3-1.4,8-1.8c2.1-0.3,4.1-0.3,6.2,0c1.2,0.2,2.5,0.2,3.7,0.2c1.9,0,3.8,0.1,5.6,0.8
			c1.5,0.6,3.2,0.8,4.8,1.3c1,0.3,2.1,0.6,3.1,0.9c4.1,1.4,8.1,2.9,12.2,4.3c0.5,0.2,1.1,0.5,1.5,0.8c1.3,0.8,2.5,1.5,3.8,2.4
			c1.7,1.1,3.4,2.3,5.1,3.5c1.6,1.1,3.3,2.2,4.9,3.4c2.8,2.2,5.5,4.5,8.1,7c0.2,0.2,0.4,0.3,0.5,0.5c1.1,1.8,2.6,3.5,3.3,5.5
			c0.6,1.8,1.8,3.4,2.4,5.2c0.2,0.5,0.6,0.8,1.1,1c0.8,0.3,1.6,0.5,2.4,0.7c1,0.3,2,0.6,2.9,1.4c0.4,0.3,0.8,0.5,1.3,0.7
			c1.3,0.6,2.6,1.1,3.6,2.1c0.2,0.2,0.4,0.3,0.6,0.4c2.1,0.6,3.5,2.2,5,3.5c0.5,0.4,1,0.9,1.5,1.3c0.9,0.5,1.6,1.2,2.2,2
			c1.4,1.9,3.1,3.7,4.6,5.5c1.1,1.3,2.1,2.8,3,4.2c1.5,2.3,2.4,4.9,3.7,7.3c0.2,0.4,0.3,0.8,0.4,1.2c0.7,2.7,1.2,5.5,1.6,8.3
			c0.5,3.8,0.6,7.6,0.6,11.4c0,1.5-0.2,3-0.3,4.4c-0.1,1.1-0.3,2.1,0.2,3.2c-0.2,1.6,0.7,2.6,2,3.4c0.2,0.1,0.4,0.3,0.6,0.5
			c0.2,0.2,0.4,0.3,0.6,0.4c1.7,0.4,2.9,2,4.6,2.3c0.7,0.1,1.2,0.5,1.8,0.9c0.4,0.3,0.8,0.7,1.2,0.9c1.8,0.8,3.4,2,5,3.2
			c2.1,1.6,4.3,3.1,6.1,5c0.7,0.7,1.5,1.3,2.1,2.1c0.6,0.7,1.2,1.3,1.8,2c0.4,0.4,0.3,1.1-0.1,1.3c-0.3,0.2-0.9,0.3-1.2,0
			c-1.2-0.9-2.6-1.4-4-2c-1.3-0.6-2.5-1.3-3.8-1.8c-0.9-0.3-1.9-0.6-2.8-1c-1.7-0.6-3.5-0.8-5.3-1.1c-2-0.3-4-0.4-5.8-1.2
			c-0.4-0.2-1-0.1-1.5-0.2c-0.7-0.1-1.3-0.1-2-0.3c-1.4-0.3-2.8-0.4-4.2-0.2c-1.6,0.1-3.1,0.3-4.7,0.5c-1.2,0.2-2.2,0.6-3.1,1.5
			c-2.5,2.2-4.9,4.4-7.5,6.5C245.6,121.4,245.5,121.6,245.2,122z"/>
		<g>
			<path fill-rule="evenodd" clip-rule="evenodd" stroke="#FFFFFF" stroke-width="8" stroke-miterlimit="10" d="M447,121.7
				c-0.5,1.2-1.2,1.5-1.9,1.7c-4.1,0.9-8.2,1.6-12.4,1.9c-3.1,0.2-6,0.8-9,1.6c-6.5,1.9-11.3,6.1-15.6,11c-1.7,1.9-1.3,4.9,0.5,6.7
				c2.4,2.4,5.4,3.5,8.7,4c5.1,0.9,10.2,1.3,15.3,1.1c4.7-0.2,9.5-0.1,14.3,0c0.7,0,1.5,0.1,2.2,0.3c0.4,0.2,0.9,0.8,0.9,1.2
				c0,0.4-0.4,1.1-0.8,1.3c-0.6,0.3-1.4,0.5-2.2,0.5c-7.6-0.3-15.2,0.3-22.8,0.9c-8.5,0.6-15.7-2.2-21.2-9c-3.2-3.9-4.4-8.5-4-13.3
				c0.4-4.3,0.9-8.6,2.4-12.8c1.7-5,4.5-9,8.6-12.4c3.4-2.7,7.1-4.3,11.1-5.4c2.9-0.8,5.6,0.1,8.5,0.4c2.8,1.9,6,2.9,8.3,5.8
				c2.3,2.9,4.3,5.7,5.7,9.1C444.6,118.3,445.3,120.4,447,121.7z M424.6,104.3c-7.6,0.3-12.6,3.9-16.2,9.8c-1.8,3-1.9,6.1-1.2,9.3
				c0.5,2.3,2.4,3.6,4.6,3.1c2.4-0.6,4.8-1.1,7.1-2c5-1.9,10.2-3.1,15.5-3.3c0.9,0,1.9-0.1,2.8-0.2c1.7-0.2,2.5-1.5,2.3-3.3
				c-0.3-3-1.9-5.3-3.6-7.6C433,106.1,428.8,104.8,424.6,104.3z"/>
			<path fill-rule="evenodd" clip-rule="evenodd" stroke="#FFFFFF" stroke-width="8" stroke-miterlimit="10" d="M327.5,125
				c1.9-2.3,3.4-4.9,4.6-7.6c3.6-7.8,7.5-15.4,10.4-23.4c0.1-0.2,0.1-0.4,0.2-0.5c0.6-1.3,1.9-2.1,3.2-1.7c1.6,0.4,3.2,1,4.6,1.4
				c0.9,0.7,0.8,1.5,0.6,2.3c-0.6,2.4-1.4,4.7-2.9,6.8c-1.4,2-2.8,4.1-3.2,6.6c-0.2,0.9-0.7,1.8-1.2,2.5c-3.8,5.3-6.4,11.2-9.2,17
				c-0.3,0.7-0.6,1.5-0.6,2.2c0.1,1.6-0.3,3-1.7,4c-0.4,0.3-0.8,0.8-1,1.3c-1.5,3.5-3,7-4.3,10.6c-1.3,3.6-2.1,7.3-3.6,10.8
				c-0.6,1.5-0.7,3.3-1,5c-0.4,2.2-0.8,4.5-1.3,6.7c-0.2,1.2-0.9,2.1-1.8,2.8c-0.7,0.6-1.7,1-2,0.5c-0.3-0.5-0.6-1-0.6-1.5
				c0.1-1.7,0.2-3.4,0.5-5.1c1.5-7.1,3.1-14.1,4.7-21.2c0.9-3.9,1.7-7.8,2.5-11.7c0.3-1.4,0.1-2.7-0.8-3.8c-1.8-2.2-3.5-4.5-5.6-6.5
				c-6.1-5.7-11.6-12.1-17.4-18.1c-1.8-1.9-3.4-4.1-5.3-6c-1.8-1.7-1.9-3.6-1.5-5.7c0.1-0.6,0.6-1,1.2-1c0.3,0,0.7,0.2,1,0.4
				c0.3,0.2,0.6,0.5,0.7,0.9c1,3,3.1,5.2,5.2,7.4c3.8,4,7.3,8.2,11.3,12c4.3,4,8.5,8.1,12.8,12.2C326.4,124.7,326.9,124.8,327.5,125
				z"/>
			<path fill-rule="evenodd" clip-rule="evenodd" stroke="#FFFFFF" stroke-width="8" stroke-miterlimit="10" d="M468,99.7
				c4.9-0.5,10.9-1.2,16.9-1.9c5.5-0.7,11-1,16.3-2.4c0.7-0.2,1.6,0.4,1.6,1.2c0.1,0.9,0.2,1.9,0,2.8c-0.2,1.5-1.2,2.4-2.6,2.6
				c-2.6,0.3-5.3,0.6-7.9,1c-1.8,0.3-3.7,0.9-5.4,1.5c-1.1,0.4-1.8,1.3-2.1,2.5c-0.8,3.7-1.8,7.3-2.5,11.1c-0.8,4.3-0.3,8.7,0.3,13
				c0.5,3.2,0.8,6.4,1.9,9.5c0.2,0.7,0.4,1.5,0.4,2.2c0.1,0.8-0.3,1.5-0.9,2c-0.5,0.4-1.4,0.2-2.1-0.4c-1.2-1.1-1.8-2.4-2-4
				c-0.5-3.4-1-6.7-1.4-10.1c-0.4-3.6-0.7-7.2-1.1-10.7c-0.3-3.4-0.8-6.8-2.4-9.9c-0.8-1.6-2-2.2-3.7-2.2c-1.1,0-2.2,0.3-3.4,0.4
				c-1.5,0.2-3,0.4-4.5,0.4c-0.5,0-1.3-0.2-1.5-0.6c-1-1.7-2.6-2.1-4.3-2.5c-0.7-0.2-1-1.2-0.8-1.9c0.4-1.3,1.1-2.4,2.5-2.9
				c1.3-0.5,2.5-0.7,3.9-0.7C464.6,99.7,465.8,99.7,468,99.7z"/>
			<path fill-rule="evenodd" clip-rule="evenodd" stroke="#FFFFFF" stroke-width="8" stroke-miterlimit="10" d="M379.1,124.5
				c-0.2,8.1,1.6,15.9,3.1,23.7c0.8,4.3,1.4,8.6,2.9,12.8c0.7,2,1.4,3.9,2,5.9c0.4,1.1,0,2.1-1.1,2.9c-0.5,0.4-1.1,0.3-1.5-0.1
				c-0.4-0.4-0.8-0.8-1-1.3c-0.5-1.2-1-2.5-1.3-3.8c-1.4-5.9-2.9-11.8-3.7-17.9c-0.8-6.8-1.8-13.6-2.8-20.3
				c-0.5-3.2-1.1-6.4-2.4-9.4c-0.3-0.7-1.3-1-1.9-0.5c-1.2,0.9-2.5,1.8-3.5,2.9c-8.3,8.9-14.2,19.2-16.6,31.3
				c-0.1,0.7-0.3,1.6-0.1,2.3c0.4,1.7,0,3.1-1.1,4.2c-1.3,1.4-0.7,3.3-1.5,4.8c-0.2,0.3-0.5,0.5-0.8,0.7c-0.3,0.2-1.2-0.4-1.2-0.9
				c-0.1-0.4-0.2-0.8-0.2-1.1c0.5-2.8,1-5.6,1.6-8.4c1.7-8,4.9-15.6,8.3-23c0.7-1.6,1.4-3.1,1.8-4.8c0.4-1.7,1.1-3.2,2.4-4.4
				c0.8-0.8,1.3-1.8,1.9-2.8c2.6-4.9,5.7-9.4,9.1-13.8c0.2-0.3,0.5-0.5,0.8-0.8c1.8-1.7,4.8-0.9,5.6,1.4c0.1,0.2,0.2,0.4,0.2,0.5
				c0.1,5.3,2.3,10.4,1.1,15.8C378.9,121.8,379.1,123.1,379.1,124.5z"/>
			<path fill-rule="evenodd" clip-rule="evenodd" stroke="#FFFFFF" stroke-width="8" stroke-miterlimit="10" d="M430.7,81.2
				c2.2,0.1,3.9,2.5,3.5,4.5c-0.7,2.7-2.3,4.6-5,5.6c-1.6,0.6-3.9-0.9-4.2-2.7c-0.1-0.9-0.1-1.9,0.3-2.7c0.7-1.6,1.8-2.8,3.1-3.9
				C429.1,81.3,430,81.1,430.7,81.2z"/>
			<path fill-rule="evenodd" clip-rule="evenodd" stroke="#FFFFFF" stroke-width="8" stroke-miterlimit="10" d="M408.2,89.3
				c0.1,2.7-1.1,4.4-3.2,5.4c-1.6,0.7-3.7,0.2-5.2-1.2c-0.7-0.7-1-1.6-1-2.6c0-3.6,3.9-6.1,7.2-4.7
				C407.5,86.9,408.1,88.2,408.2,89.3z"/>
		</g>
	</g>
	<path fill-rule="evenodd" clip-rule="evenodd" d="M245.2,122c0.4,1,0.2,2,0.9,3c1.1,0.2,2.2,0.5,3.4,0.5c2.6,0.2,5.1,0.8,7.6,1.2
		c0.6,0.1,1.1,0.3,1.7,0.4c2.8,0.8,5.6,1.5,8.4,1.9c2.1,0.3,4,1.1,5.9,1.8c2,0.7,4.1,1.4,6,2.4c0.9,0.4,1.8,0.8,2.6,1.3
		c2.3,1.4,4.8,2.5,7,4.2c1.2,0.9,2.6,1.4,3.9,2.1c0.3,0.1,0.6,0.3,0.8,0.5c0.2,0.1,0.2,0.4,0.2,0.7c0,0.2-0.2,0.5-0.4,0.6
		c-0.4,0.2-0.8,0.3-1.2,0.1c-0.1-0.1-0.3-0.2-0.4-0.3c-2.1-1.5-4.5-2-7-2.3c-2.6-0.3-5.3-0.6-7.9-0.9c-4.4-0.5-8.7-0.8-13.1-0.5
		c-4.3,0.3-8.6,0.6-12.9,0.9c-1.8,0.1-3.6,0.5-5.4,0.7c-0.6,0.1-1.1,0.4-1.4,0.9c-0.2,0.3-0.3,0.6-0.5,0.9
		c-2.5,4.4-5.6,8.2-9.8,11.1c-1.5,1-3,2.1-4.6,2.9c-0.9,0.5-1.8,0.9-2.7,1.3c-0.8,0.4-1.7,0.7-2.5,1.1c-1.2,0.5-2.4,1-3.8,1.3
		c-1.5,0.3-2.9,0.5-4.4,0.8c-1.5,0.3-3.1,0.5-4.7,0.4c-0.7,0-1.5,0-2.2,0c-4,0.1-7.9-0.5-11.8-1.5c-1.1-0.3-2.2-0.6-3.4-0.9
		c-1.5-0.4-3.1-0.6-4.5-1.4c-0.2-0.1-0.5-0.2-0.7-0.2c-1.5-0.3-3-0.8-4.5-1.3c-0.7-0.3-1.4-0.2-2.1,0.3c-1.2,0.9-2.4,1.7-3.6,2.7
		c-2.5,2-5.1,3.7-8.1,4.8c-2.2,1.3-4.6,1.7-7.1,2.2c-3.3,0.7-6.6,0.7-9.9,0.5c-1.3-0.1-2.6-0.1-3.9-0.5c-0.7-0.2-1.2-0.8-2-0.8
		c-0.7,0-1.3-0.2-2-0.3c-0.7-0.1-1.5-0.3-2.2-0.4c-1.7-0.2-3.4-0.7-5-1.5c-0.6-0.3-1.2-0.6-1.8-0.7c-1.5-0.3-2.8-0.9-4.1-1.7
		c-0.1-0.1-0.3-0.2-0.4-0.2c-1.5-0.5-2.9-1.3-4.2-2.2c-0.7-0.5-1.5-0.8-2.3-0.7c-0.2,0-0.5,0.1-0.7,0c-1.3-0.6-2.6-0.4-3.9,0
		c-1.1,0.3-2.3,0.4-3.4,0.6c-0.3,0.1-0.7,0.1-0.9,0.4c0.1,1.4,0.4,2.6,0.9,3.5c1,2.1,2,4.2,3.1,6.2c1,1.9,2.1,3.8,3.6,5.3
		c0.3,0.3,0.6,0.6,0.8,1c0.1,0.2,0.1,0.5,0.1,0.7c-0.1,0.2-0.6,0.4-0.9,0.3c-0.3-0.1-0.6-0.3-0.9-0.5c-1-1-2.2-1.7-3.6-2.1
		c-0.5-0.2-0.8-0.5-1.3-0.8c-0.6-0.4-1.2-0.9-1.9-1.1c-1-0.4-1.8-0.8-2.4-1.6c-0.6-0.7-1.6-0.9-2.5-1.4c-0.4-0.9-1.2-1.6-2.1-2.1
		c-0.5-0.3-0.9-0.7-1.2-1.2c-0.2-0.3-0.4-0.6-0.6-0.8c-1.4-1-2.4-2.5-3.5-3.8c-0.3-0.4-0.7-0.8-1.1-1c-1.4-1-2.6-2.3-4.3-2.9
		c-1.7-0.5-3.3-1.1-4.9-1.7c-0.8-0.3-1.6-0.5-2.3-0.9c-0.7-0.4-1.5-0.8-2.3-0.8c-0.8-0.1-1.4-0.4-2-0.8c-1.1-0.8-2.2-1.4-3.4-2.1
		c-0.7-0.4-1.4-0.9-2.1-1.4c-2.8,0-5.7-0.1-8.6-0.1c-1,0-2,0-3-0.1c-3.1-0.5-6.3-0.3-9.4-0.5c-2.1-0.1-4.1-0.3-6.2-0.5
		c-0.7-0.1-1.5-0.3-2.2-0.6c-1.3-0.4-2.5-0.7-3.9-0.8c-2.8-0.3-5.5-0.9-8.2-1.7c-0.6-0.2-1.3-0.5-1.9-0.6c-1.6-0.3-2.9-1-4.3-1.8
		c-1.1-0.7-1.9-1.5-2.4-2.7c-0.9-2.2-2-4.3-2.7-6.7c-0.8-2.7-1.1-5.5-1.1-8.3c0-2.9,0.4-5.8,1.3-8.6c0.3-0.9,0.5-1.9,0.8-2.9
		c0.2-0.6,0.3-1.1,0.5-1.6c0.7-1.6,1.3-3.2,2.1-4.7c1.1-2,2.3-4,3.4-6.1c0.1-0.1,0.2-0.3,0.3-0.4c1.7-2.1,3.2-4.4,5.1-6.4
		c0.6-0.7,1.3-1.3,1.6-2.1c0-0.5-0.4-0.5-0.6-0.7c-1.3-0.8-2.6-1.4-3.8-2.4c-0.7-0.6-1.4-1.1-1.8-2c-0.4-0.8-1-0.9-1.9-0.7
		c-0.4,0.1-0.8,0.2-1.2,0.3c-1.3,0.4-2.2,1.1-2.7,2.3c-0.7,1.5-1.3,3-1.3,4.7c0,1-0.3,2-0.4,3c-0.1,1.5-0.8,2.7-1.6,3.9
		c-0.5,0.8-1.2,1.3-2.1,1.6c-1.5,0.5-3.1,0.4-4.7,0.2c-1.4-0.2-2.7-0.6-4.1-1c-0.5-0.1-0.9-0.3-1.4-0.6c-1.6-0.9-3.1-1.8-4.7-2.8
		C8.6,95,7,93.2,5.8,91.1c-0.5-0.8-0.9-1.6-1.2-2.5C4.3,88,4.1,87.2,4,86.5c-0.1-1.6,0.3-3,1.7-3.8c0.6-0.4,1.3-0.8,1.9-1.2
		c0.4-0.3,0.9-0.4,1.3-0.7c3-1.8,6.4-2.7,9.8-3.5c0.6-0.1,1.1-0.2,1.7-0.3c2-0.2,4-0.3,5.9-0.4c1.4-0.1,2.8-0.1,4.2-0.1
		c1.1,0,2,0.5,2.8,1.4c1.2,1.4,2.3,2.8,3.4,4.3c1.5,2.1,3.4,3.8,5.4,5.4c0.7,0.6,1.5,1,2.5,1.3c1.5-0.8,3.1-1.8,4.8-2.3
		c1.7-0.6,3.3-1.4,5.1-1.8c1.8-0.4,3.6-0.7,5.4-1c0.8-1.5,0.9-3,0.8-4.6c-0.1-2-0.1-4-0.1-6c0-2.6,0.7-5.1,1.3-7.5
		c0.3-1.4,0.8-2.7,1.3-4c0.2-0.5,0.4-0.9,0.6-1.4c1.5-2.7,3.2-5.2,5.6-7.2c0.4-0.4,0.8-0.8,1.2-1.2c0.4-0.3,0.7-0.7,1.1-1
		c1.8-1.2,3.6-2.4,5.5-3.4c1.5-0.9,3.2-1.4,5-1.4c0.8,0,1.7,0,2.4-0.3c0.4-0.3,0.6-0.8,0.7-1.3c0.2-1,0.4-1.9,0.6-2.9
		c0.4-2,1-4,2-5.8c0.8-1.4,1.4-2.8,2.1-4.2c1.3-2.5,3-4.8,4.9-6.8c1.1-1.2,2.4-2.2,3.8-3.2c1.7-1.3,3.4-2.6,5.5-3.4
		c0.2-0.1,0.3-0.1,0.4-0.2c1.6-1.2,3.4-1.6,5.3-1.8c2.1-0.3,4.2-0.6,6.4-0.5c1.8,0.1,3.6-0.1,5.4-0.1c1.1,0,2.1,0,3.2,0.2
		c0.6,0.1,1.3,0.1,2,0.1c3.2,0.1,6.2,0.6,9.3,1.5c1,0.3,1.9,0.3,2.9,0c1.8-0.5,3.4-1.3,4.6-2.7c0.5-0.6,1-1.1,1.7-1.4
		c0.2-0.1,0.5-0.2,0.6-0.4c1.1-1.3,2.6-2,3.9-3.1c0.9-0.7,2-1.2,3-1.7c1.6-0.8,3.3-1.4,5.1-2c2.6-0.9,5.3-1.4,8-1.8
		c2.1-0.3,4.1-0.3,6.2,0c1.2,0.2,2.5,0.2,3.7,0.2c1.9,0,3.8,0.1,5.6,0.8c1.5,0.6,3.2,0.8,4.8,1.3c1,0.3,2.1,0.6,3.1,0.9
		c4.1,1.4,8.1,2.9,12.2,4.3c0.5,0.2,1.1,0.5,1.5,0.8c1.3,0.8,2.5,1.5,3.8,2.4c1.7,1.1,3.4,2.3,5.1,3.5c1.6,1.1,3.3,2.2,4.9,3.4
		c2.8,2.2,5.5,4.5,8.1,7c0.2,0.2,0.4,0.3,0.5,0.5c1.1,1.8,2.6,3.5,3.3,5.5c0.6,1.8,1.8,3.4,2.4,5.2c0.2,0.5,0.6,0.8,1.1,1
		c0.8,0.3,1.6,0.5,2.4,0.7c1,0.3,2,0.6,2.9,1.4c0.4,0.3,0.8,0.5,1.3,0.7c1.3,0.6,2.6,1.1,3.6,2.1c0.2,0.2,0.4,0.3,0.6,0.4
		c2.1,0.6,3.5,2.2,5,3.5c0.5,0.4,1,0.9,1.5,1.3c0.9,0.5,1.6,1.2,2.2,2c1.4,1.9,3.1,3.7,4.6,5.5c1.1,1.3,2.1,2.8,3,4.2
		c1.5,2.3,2.4,4.9,3.7,7.3c0.2,0.4,0.3,0.8,0.4,1.2c0.7,2.7,1.2,5.5,1.6,8.3c0.5,3.8,0.6,7.6,0.6,11.4c0,1.5-0.2,3-0.3,4.4
		c-0.1,1.1-0.3,2.1,0.2,3.2c-0.2,1.6,0.7,2.6,2,3.4c0.2,0.1,0.4,0.3,0.6,0.5c0.2,0.2,0.4,0.3,0.6,0.4c1.7,0.4,2.9,2,4.6,2.3
		c0.7,0.1,1.2,0.5,1.8,0.9c0.4,0.3,0.8,0.7,1.2,0.9c1.8,0.8,3.4,2,5,3.2c2.1,1.6,4.3,3.1,6.1,5c0.7,0.7,1.5,1.3,2.1,2.1
		c0.6,0.7,1.2,1.3,1.8,2c0.4,0.4,0.3,1.1-0.1,1.3c-0.3,0.2-0.9,0.3-1.2,0c-1.2-0.9-2.6-1.4-4-2c-1.3-0.6-2.5-1.3-3.8-1.8
		c-0.9-0.3-1.9-0.6-2.8-1c-1.7-0.6-3.5-0.8-5.3-1.1c-2-0.3-4-0.4-5.8-1.2c-0.4-0.2-1-0.1-1.5-0.2c-0.7-0.1-1.3-0.1-2-0.3
		c-1.4-0.3-2.8-0.4-4.2-0.2c-1.6,0.1-3.1,0.3-4.7,0.5c-1.2,0.2-2.2,0.6-3.1,1.5c-2.5,2.2-4.9,4.4-7.5,6.5
		C245.6,121.4,245.5,121.6,245.2,122z"/>
	<g>
		<path fill-rule="evenodd" clip-rule="evenodd" d="M447,121.7c-0.5,1.2-1.2,1.5-1.9,1.7c-4.1,0.9-8.2,1.6-12.4,1.9
			c-3.1,0.2-6,0.8-9,1.6c-6.5,1.9-11.3,6.1-15.6,11c-1.7,1.9-1.3,4.9,0.5,6.7c2.4,2.4,5.4,3.5,8.7,4c5.1,0.9,10.2,1.3,15.3,1.1
			c4.7-0.2,9.5-0.1,14.3,0c0.7,0,1.5,0.1,2.2,0.3c0.4,0.2,0.9,0.8,0.9,1.2c0,0.4-0.4,1.1-0.8,1.3c-0.6,0.3-1.4,0.5-2.2,0.5
			c-7.6-0.3-15.2,0.3-22.8,0.9c-8.5,0.6-15.7-2.2-21.2-9c-3.2-3.9-4.4-8.5-4-13.3c0.4-4.3,0.9-8.6,2.4-12.8c1.7-5,4.5-9,8.6-12.4
			c3.4-2.7,7.1-4.3,11.1-5.4c2.9-0.8,5.6,0.1,8.5,0.4c2.8,1.9,6,2.9,8.3,5.8c2.3,2.9,4.3,5.7,5.7,9.1
			C444.6,118.3,445.3,120.4,447,121.7z M424.6,104.3c-7.6,0.3-12.6,3.9-16.2,9.8c-1.8,3-1.9,6.1-1.2,9.3c0.5,2.3,2.4,3.6,4.6,3.1
			c2.4-0.6,4.8-1.1,7.1-2c5-1.9,10.2-3.1,15.5-3.3c0.9,0,1.9-0.1,2.8-0.2c1.7-0.2,2.5-1.5,2.3-3.3c-0.3-3-1.9-5.3-3.6-7.6
			C433,106.1,428.8,104.8,424.6,104.3z"/>
		<path fill-rule="evenodd" clip-rule="evenodd" d="M327.5,125c1.9-2.3,3.4-4.9,4.6-7.6c3.6-7.8,7.5-15.4,10.4-23.4
			c0.1-0.2,0.1-0.4,0.2-0.5c0.6-1.3,1.9-2.1,3.2-1.7c1.6,0.4,3.2,1,4.6,1.4c0.9,0.7,0.8,1.5,0.6,2.3c-0.6,2.4-1.4,4.7-2.9,6.8
			c-1.4,2-2.8,4.1-3.2,6.6c-0.2,0.9-0.7,1.8-1.2,2.5c-3.8,5.3-6.4,11.2-9.2,17c-0.3,0.7-0.6,1.5-0.6,2.2c0.1,1.6-0.3,3-1.7,4
			c-0.4,0.3-0.8,0.8-1,1.3c-1.5,3.5-3,7-4.3,10.6c-1.3,3.6-2.1,7.3-3.6,10.8c-0.6,1.5-0.7,3.3-1,5c-0.4,2.2-0.8,4.5-1.3,6.7
			c-0.2,1.2-0.9,2.1-1.8,2.8c-0.7,0.6-1.7,1-2,0.5c-0.3-0.5-0.6-1-0.6-1.5c0.1-1.7,0.2-3.4,0.5-5.1c1.5-7.1,3.1-14.1,4.7-21.2
			c0.9-3.9,1.7-7.8,2.5-11.7c0.3-1.4,0.1-2.7-0.8-3.8c-1.8-2.2-3.5-4.5-5.6-6.5c-6.1-5.7-11.6-12.1-17.4-18.1
			c-1.8-1.9-3.4-4.1-5.3-6c-1.8-1.7-1.9-3.6-1.5-5.7c0.1-0.6,0.6-1,1.2-1c0.3,0,0.7,0.2,1,0.4c0.3,0.2,0.6,0.5,0.7,0.9
			c1,3,3.1,5.2,5.2,7.4c3.8,4,7.3,8.2,11.3,12c4.3,4,8.5,8.1,12.8,12.2C326.4,124.7,326.9,124.8,327.5,125z"/>
		<path fill-rule="evenodd" clip-rule="evenodd" d="M468,99.7c4.9-0.5,10.9-1.2,16.9-1.9c5.5-0.7,11-1,16.3-2.4
			c0.7-0.2,1.6,0.4,1.6,1.2c0.1,0.9,0.2,1.9,0,2.8c-0.2,1.5-1.2,2.4-2.6,2.6c-2.6,0.3-5.3,0.6-7.9,1c-1.8,0.3-3.7,0.9-5.4,1.5
			c-1.1,0.4-1.8,1.3-2.1,2.5c-0.8,3.7-1.8,7.3-2.5,11.1c-0.8,4.3-0.3,8.7,0.3,13c0.5,3.2,0.8,6.4,1.9,9.5c0.2,0.7,0.4,1.5,0.4,2.2
			c0.1,0.8-0.3,1.5-0.9,2c-0.5,0.4-1.4,0.2-2.1-0.4c-1.2-1.1-1.8-2.4-2-4c-0.5-3.4-1-6.7-1.4-10.1c-0.4-3.6-0.7-7.2-1.1-10.7
			c-0.3-3.4-0.8-6.8-2.4-9.9c-0.8-1.6-2-2.2-3.7-2.2c-1.1,0-2.2,0.3-3.4,0.4c-1.5,0.2-3,0.4-4.5,0.4c-0.5,0-1.3-0.2-1.5-0.6
			c-1-1.7-2.6-2.1-4.3-2.5c-0.7-0.2-1-1.2-0.8-1.9c0.4-1.3,1.1-2.4,2.5-2.9c1.3-0.5,2.5-0.7,3.9-0.7C464.6,99.7,465.8,99.7,468,99.7
			z"/>
		<path fill-rule="evenodd" clip-rule="evenodd" d="M379.1,124.5c-0.2,8.1,1.6,15.9,3.1,23.7c0.8,4.3,1.4,8.6,2.9,12.8
			c0.7,2,1.4,3.9,2,5.9c0.4,1.1,0,2.1-1.1,2.9c-0.5,0.4-1.1,0.3-1.5-0.1c-0.4-0.4-0.8-0.8-1-1.3c-0.5-1.2-1-2.5-1.3-3.8
			c-1.4-5.9-2.9-11.8-3.7-17.9c-0.8-6.8-1.8-13.6-2.8-20.3c-0.5-3.2-1.1-6.4-2.4-9.4c-0.3-0.7-1.3-1-1.9-0.5
			c-1.2,0.9-2.5,1.8-3.5,2.9c-8.3,8.9-14.2,19.2-16.6,31.3c-0.1,0.7-0.3,1.6-0.1,2.3c0.4,1.7,0,3.1-1.1,4.2
			c-1.3,1.4-0.7,3.3-1.5,4.8c-0.2,0.3-0.5,0.5-0.8,0.7c-0.3,0.2-1.2-0.4-1.2-0.9c-0.1-0.4-0.2-0.8-0.2-1.1c0.5-2.8,1-5.6,1.6-8.4
			c1.7-8,4.9-15.6,8.3-23c0.7-1.6,1.4-3.1,1.8-4.8c0.4-1.7,1.1-3.2,2.4-4.4c0.8-0.8,1.3-1.8,1.9-2.8c2.6-4.9,5.7-9.4,9.1-13.8
			c0.2-0.3,0.5-0.5,0.8-0.8c1.8-1.7,4.8-0.9,5.6,1.4c0.1,0.2,0.2,0.4,0.2,0.5c0.1,5.3,2.3,10.4,1.1,15.8
			C378.9,121.8,379.1,123.1,379.1,124.5z"/>
		<path fill-rule="evenodd" clip-rule="evenodd" d="M430.7,81.2c2.2,0.1,3.9,2.5,3.5,4.5c-0.7,2.7-2.3,4.6-5,5.6
			c-1.6,0.6-3.9-0.9-4.2-2.7c-0.1-0.9-0.1-1.9,0.3-2.7c0.7-1.6,1.8-2.8,3.1-3.9C429.1,81.3,430,81.1,430.7,81.2z"/>
		<path fill-rule="evenodd" clip-rule="evenodd" d="M408.2,89.3c0.1,2.7-1.1,4.4-3.2,5.4c-1.6,0.7-3.7,0.2-5.2-1.2
			c-0.7-0.7-1-1.6-1-2.6c0-3.6,3.9-6.1,7.2-4.7C407.5,86.9,408.1,88.2,408.2,89.3z"/>
	</g>
	<path fill-rule="evenodd" clip-rule="evenodd" fill="#FFFFFF" d="M147.4,21.4c-0.1-0.9-0.1-1.7-0.2-2.4c-0.2-1.3,0.3-2.4,1.1-3.5
		c0.5-0.7,1.3-1.3,1.7-2.1c0.1-0.2,0.3-0.3,0.5-0.5c1.3-1,2.6-1.8,4-2.4c0.5-0.2,1-0.5,1.5-0.8c1.6-1,3.3-1.9,5.3-1.9
		c0.4,0,0.8-0.2,1.2-0.4c1.5-0.6,3.1-1.2,4.8-1.1c0.4,0,0.8-0.1,1.2-0.2c0.4-0.1,0.8-0.2,1.2-0.2c2.9,0.1,5.8-0.4,8.7,0.1
		c0.7,0.1,1.5,0.2,2.2,0.4c3.5,1,7,2,10.5,3.1c1.9,0.6,3.8,1.2,5.5,2.2c0.9,0.5,1.8,0.7,2.8,1.1c2.1,0.9,4.3,1.8,6.1,3.2
		c1.1,0.8,2.4,1.2,3.4,2c1.2,0.9,2.4,1.7,3.7,2.5c3.7,2.3,6.7,5.3,9.7,8.4c1.5,1.6,2.5,3.5,3.5,5.4c0.9,1.7,1.6,3.4,2.6,5.1
		c1.2,2.2,1.8,4.6,2.2,7.1c0.2,1.1,0.1,2.3,0.4,3.4c0.3,1.1,0,2.1,0.1,3.2c0,0.1,0.2,0.3,0.3,0.3c0.1,0,0.3,0,0.5-0.1
		c0.7-0.4,1-1.1,1.2-1.8c0.1-0.6,0.3-1.3,0.4-1.9c0.3-1.5,1.2-2.7,2.4-3.7c0.6-0.5,1.1-0.6,1.8-0.4c1.3,0.3,2.6,0.7,3.6,1.5
		c0.3,0.2,0.5,0.4,0.8,0.5c2.5,0.9,4.3,2.8,6.2,4.4c1.8,1.5,3.3,3.2,4.7,5.1c1.3,1.6,2.7,3.1,3.9,4.8c2.7,3.6,4.6,7.6,5.7,12
		c0.6,2.2,1.1,4.3,1.1,6.6c0,0.5,0.1,1,0.2,1.5c0.6,4.9,0.5,9.7-1,14.5c-0.1,0.2-0.1,0.3-0.2,0.5c-0.4,1.1-0.6,2.3-1.1,3.3
		c-0.8,1.6-1.5,3.3-2.5,4.8c-0.9,1.5-2,2.9-3,4.3c-0.2,0.3-0.5,0.6-0.8,0.9c-1.3,1.2-2.7,2.5-4,3.7c-0.6,0.6-1.3,1.1-2.1,1.3
		c-1.2,0.3-2.4,0.7-3.6,1c-1-0.4-2-0.7-3-1.1c-0.2-0.5-0.4-0.9-0.6-1.3c-0.3-0.4-0.7-0.7-1-1.1c-0.1-0.1-0.3-0.2-0.4-0.3
		c-0.1,0-0.4-0.1-0.5,0c-0.2,0.2-0.3,0.4-0.3,0.6c0,0.2,0.1,0.5,0.2,0.7c0.4,0.7,0.8,1.5,1.2,2.2c0.3,0.5,0.5,1,0.6,1.6
		c0.1,0.8,0.2,1.7,0.6,2.4c0.6,1.2,0.7,2.6,1.2,3.8c0.1,0.3,0.2,0.6,0.2,1c0.3,3.2,0.7,6.4,0.3,9.7c-0.1,1.3-0.3,2.6-0.9,3.8
		c-0.2,0.4-0.3,0.8-0.4,1.2c-0.9,2.8-2.5,5.2-4.5,7.4c-0.7,0.7-1.3,1.5-2,2.2c-1.3,1.6-3,2.6-4.6,3.8c-1.9,1.4-3.8,2.7-6,3.4
		c-0.2,0.1-0.5,0.2-0.7,0.3c-1.7,1.1-3.6,1.5-5.6,1.9c-2.7,0.4-5.4,0.9-8.1,0.8c-1.7-0.1-3.3,0.4-4.9,0.2c-1.4-0.1-2.8-0.2-4.2-0.3
		c-0.4,0-0.8-0.1-1.2-0.3c-1.1-0.4-2.2-0.7-3.3-1.1c-0.5-0.2-0.9-0.4-1.3-0.6c-0.8-0.4-1.6-0.8-2.4-1.3c-0.6-0.4-1.3-0.8-1.9-1.2
		c-0.7-0.5-1.4-1.1-2.3-1.3c-1.1-0.3-2-1.2-2.7-2.1c-0.3-0.4-0.4-0.9-0.2-1.4c0.4-0.7,0.8-1.4,1.2-2.2c0.1-0.2-0.1-0.7-0.4-0.8
		c-0.2-0.1-0.5,0-0.7,0.1c-0.1,0-0.3,0.2-0.3,0.3c-0.8,1.1-1.5,2.2-2.3,3.2c-0.5,0.7-1.2,1.4-1.7,2.1c-0.5,0.6-1.1,1-1.7,1.5
		c-1.4,1.1-2.8,2.1-3.8,3.5c-0.5,0.7-1.2,1.2-2,1.4c-1.1,0.3-2,0.8-2.7,1.6c-0.5,0.6-1.2,0.9-2,1c-0.7,0.1-1.3,0.4-1.7,0.9
		c-0.6,0.7-1.5,1-2.4,1.2c-2.1,0.5-4.2,0.9-6.4,1c-1.4,0-2.8,0.1-4.2,0.2c-1.9,0-3.8-0.1-5.7-0.5c-1-0.2-2.1-0.5-3.1-0.7
		c-1.9-0.5-3.8-1.1-5.6-1.9c-2.3-1.1-4.7-2-7.1-2.9c-0.6-0.3-1.2-0.5-1.7-0.9c-0.8-0.6-1.4-1.4-1.1-2.6c0.8-0.7,1.7-1.3,2.2-2.3
		c-0.3-0.6-0.5-0.7-0.9-0.5c-0.2,0.1-0.5,0.2-0.7,0.3c-1.1,1.1-2.6,1.3-4,1.8c-0.6,0.2-1.3,0.3-2,0.2c-1.8-0.1-3.6,0.2-5.4,0.5
		c-2.8,0.5-5.6,0.8-8.4,0.6c-1.6-0.1-3.1-0.2-4.7-0.2c-1.7-0.1-3.3-0.4-4.9-0.8c-2.7-0.6-5.3-1.2-7.9-2.3c-2.8-1.1-5.4-2.4-8-3.9
		c-0.4-0.2-0.7-0.4-0.8-0.9c0.2-0.4,0.7-0.5,1.1-0.5c2-0.2,3.9-0.6,5.9-0.6c1,0,2-0.1,2.9,0.3c0.6,0.2,1.2,0.1,1.7-0.2
		c0.9-0.5,1.9-0.6,2.9-0.8c1.1-0.1,2.3-0.3,3.4-0.6c1.2-0.3,2.4-0.5,3.5-1.1c1.3-0.6,2.6-1.1,3.9-1.6c0.8-0.3,1.5-0.6,2.4-0.6
		c0.8,0,1.5-0.3,2.1-0.6c1.3-0.6,2.7-1.2,4-2.1c0.3-0.2,0.7-0.5,1.1-0.6c1.1-0.2,1.9-0.9,2.7-1.7c0.5-0.5,1-0.8,1.6-1.1
		c1.8-1,3.5-2.1,4.9-3.8c2.3-1.8,3.7-4.2,4.9-6.8c0.7-1.5,1.6-2.9,2.3-4.4c1.7-3.4,2.5-7,2.6-10.8c0-1.9,0.1-3.8,0-5.7
		c-0.1-1.4-0.4-2.6-1-3.8c-0.6-1.4-1.4-2.6-2.3-3.8c-1.7-2.2-3.5-4.4-5.7-6.2c-1-0.8-1.9-1.6-2.8-2.4c-0.9-0.8-1.8-1.5-2.9-1.9
		c-0.3-0.1-0.6-0.3-0.9-0.5c-1-0.6-1.3-1.1-0.1-2.1c0.4-0.4,1-0.7,1.4-1c0.5-0.3,1-0.6,1.4-1.1c1.7-1.8,3.7-3,5.7-4.3
		c0.6-0.3,1.2-0.6,1.8-0.8c0.5-0.2,1-0.3,1.4-0.5c1.9-1,3.8-0.9,5.8-0.6c0.4,0.1,0.8,0.2,1.2,0.2c1.7,0,3.2,0.8,4.5,1.9
		c1.5,1.2,3,2.4,4.4,3.7c1.8,1.6,3.4,3.4,5.1,5.1c1.3,1.3,2.6,2.6,3.9,3.8c0.9,0.9,2,1.3,3.1,1.4c1.5,0.2,2.8-0.3,3.8-1.4
		c0.9-1.1,1.8-2.2,2.6-3.3c0.8-1.1,1.4-2.2,2.1-3.4c0.6-1,1.2-2,1.9-2.9c1.8-2.6,2.9-5.4,3.5-8.4c-0.1-0.5-0.2-1-0.3-1.5
		c-0.1-0.7-0.5-1.2-0.9-1.7c-0.5-0.6-0.9-1.2-1.5-1.7c-0.3-0.3-0.7-0.7-1.2-0.9c-2.5-0.9-4.8-2.2-7.4-2.8c-0.9-0.2-1.7-0.5-2.6-0.7
		c-1.3-0.3-2.6-0.6-4.1-1c-2.3,0.5-4.9,0.4-7.4,0.2c-1.8-0.2-3.6-0.2-5.5-0.2c-1.3,0-2.6,0.3-3.9,0.6c-1.6,0.5-2.9,1.5-4,2.8
		c-1.1,1.4-2.3,2.8-3.3,4.3c-0.9,1.5-2.1,2.7-3.1,4.1c-0.8,1.2-1.8,2.4-3.1,3.2c-0.5,0.3-0.9,0.7-1.3,1.1c-0.5,0.5-0.9,0.9-1.5,1.3
		c-0.9,0.6-1.6,1.5-2.5,2c-0.9,0.5-2,0.7-3,1c-0.2,0.1-0.3,0.2-0.4,0.2c-0.5,0.2-1,0.3-1.4,0.1c-1.4-0.5-2.8-0.9-4.1-1.8
		c-0.9-0.7-1.9-1-3-1.1c-2-0.3-4.1-0.7-6.1-1.3c-0.5-0.2-1.1-0.3-1.7-0.3c-2,0-4-0.3-5.9-0.4c-2.5-0.1-5,0-7.4-0.1
		c-2.4,0-4.8,0.2-7.2,0.5c-0.7,0.1-1.5,0.3-2.2,0.5c-1.4,0.5-2.9,0.7-4.4,0.9s-3,0.4-4.4,0.6c-0.5,0.1-1,0.2-1.4,0.3
		c-1.7,0.5-3.3,1.1-5,1.6c-0.9,0.3-1.6,0.1-2.1-0.7c-0.3-0.6-0.7-1.2-0.8-1.8c-1.2-4.7-1.2-9.4,0-14.2c0.6-2.6,1.8-4.8,3.2-6.9
		c0.2-0.3,0.5-0.7,0.8-1c2-1.8,4.1-3.6,6.2-5.4c1.7-1.5,3.8-2.3,6-2.9c0.4-0.1,0.8,0,1.2,0.2c0.3,0.2,0.6,0.3,0.8,0.6
		c0.6,0.8,1.1,1.7,1.6,2.5c0.1,0.2,0.1,0.5,0.1,0.7c0.1,0.6,0.1,1.2,0.2,1.7c0,0.3,0.1,0.5,0.4,0.5c0.2,0,0.5-0.1,0.6-0.3
		c0.2-0.2,0.4-0.5,0.5-0.8c0.2-0.6,0.2-1.3,0.3-2c0.1-0.5,0.1-1,0.1-1.5c0-1.4,0.4-2.8,0.9-4.1c0.4-0.9,0.6-1.9,0.9-2.8
		c0.5-2.1,1.2-4.1,2.1-6.1c0.3-0.7,0.6-1.4,1-2c0.7-1.2,1.4-2.4,2.1-3.7c1.4-2.7,3.4-4.9,5.5-7c1.4-1.4,3.2-2.4,4.9-3.4
		c1.7-0.9,3.4-1.8,5.1-2.6c1.2-0.6,2.4-1,3.8-1.2c1.7-0.2,3.4-0.5,5.2-0.5c0.4,0,0.8,0,1.2-0.1c2.3-0.5,4.6-0.3,6.9-0.4
		c3.3-0.1,6.6,0.5,9.8,1.1c0.3,0.1,0.7,0.1,1,0.2c1.9,1,4.1,1.1,6.2,1.7c1,0.3,2,0.7,2.9,1.3c1.4,1,3,1.8,4.3,3
		c0.2,0.2,0.6,0.3,0.9,0.5c0.3,0.1,0.8,0,0.9-0.2c0-0.2,0-0.5-0.1-0.7c-0.2-0.3-0.6-0.6-0.9-0.9C149.2,22.8,148.4,22.1,147.4,21.4z"
		/>
	<path fill-rule="evenodd" clip-rule="evenodd" fill="#FFFFFF" d="M72.7,112.1c0-1.2,0-1.7,0-2.3c0-0.5-0.1-1,0-1.5
		c0.5-2.6,0.8-5.2,1.9-7.7c0.7-1.6,1.6-3.1,2.5-4.6c1.2-1.8,2.5-3.5,3.8-5.2c1.2-1.5,2.6-2.8,4.1-4c2.4-1.9,5-3.5,7.9-4.7
		c0.6-0.3,1.2-0.5,1.8-0.9c1.3-0.8,2.7-1.1,4.2-1.3c1.5-0.2,3-0.4,4.4-0.4c0.7,0,1.5,0,2.2,0.2c2.4,0.5,4.8,1.1,7.2,1.7
		c0.6,0.2,1.3,0.3,1.6,1c0.2,0.3,0.5,0.4,0.9,0.4c0.8,0,1.4,0.3,2,0.8c1.8,1.3,3.8,2.3,5.8,3.3c2,1,3.8,2.3,5.5,3.8
		c0.7,0.7,1.5,1.3,2.2,2c2.5,2.5,4.8,5,6.4,8.1c0.7,1.3,1.1,2.6,1.2,4c0.3,4.2,0.4,7.5-1,12.3c-0.4,1.4-0.9,2.6-1.6,3.9
		c-1,1.9-2,3.8-2.9,5.7c-0.5,1.1-1.3,2.1-2.1,3c-0.8,0.8-1.5,1.5-2.3,2.2c-0.4,0.4-1,0.6-1.5,0.9c-0.4,0.2-1,0.4-1.3,0.7
		c-0.8,1-1.8,1.4-2.9,1.8c-0.8,0.4-1.6,0.9-2.3,1.4c-0.9,0.6-1.9,1-3,1.1c-1.8,0.3-3.6,0.6-5.1,1.7c-0.3,0.2-0.7,0.3-1.1,0.5
		c-1.3,0.4-2.6,0.7-3.8,1c-1.3,0.3-2.6,0.3-3.9,0c-1.6-0.4-3.2-0.6-4.9-0.7c-2.1-0.1-4.1-0.4-6.2-0.6c-1.5-0.2-2.9-0.6-4.3-1.2
		c-1.4-0.7-2.8-1.4-4.2-2.2c-0.9-0.5-1.6-1.1-2.2-2c-0.1-0.2-0.3-0.4-0.5-0.6c-1.7-1.7-3.1-3.6-4.3-5.7c0-0.1-0.1-0.2-0.1-0.2
		c-1.6-1.7-2.1-3.9-2.6-6.1c-0.5-1.9-0.9-3.9-1.3-5.8c-0.2-1-0.2-2-0.2-3C72.6,112.7,72.7,112.1,72.7,112.1z"/>
	<path fill-rule="evenodd" clip-rule="evenodd" fill="#FFFFFF" d="M78,90c0.4,1.3,0.1,2.2-0.6,3c-1.4,1.7-2.3,3.6-3.3,5.5
		c-0.1,0.1-0.1,0.3-0.2,0.4c-2.3,3.6-2.7,7.7-2.8,11.9c0,0.7,0,1.5-0.2,2.2c-0.2,1.2-0.1,2.5,0.1,3.7c0.3,1.4,0.6,2.7,1.1,4.1
		c0.5,1.3,0.8,2.7,1.1,4.1c0.4,1.5,0.9,2.8,2,3.9c0.2,0.2,0.2,0.4,0.4,0.7c0,2-1,3.6-2.7,4.7c-2.1,1.5-7.4,4.3-9.8,5.2
		c-0.6,0.2-1.3,0.4-1.9,0.5c-1.5,0.4-3.1,0.7-4.6,1.1c-1.8,0.5-3.7,0.8-5.6,0.9c-1.2,0.1-2.5,0.1-3.7,0.1c-3.1,0.2-6.1-0.6-9-1.4
		c-1.3-0.3-2.4-1-3.6-1.7c-0.8-0.5-1.5-1.3-1.8-2.3c-0.6-1.7-1.3-3.4-1.9-5.1c-1.4-3.8-1.6-7.7-1.1-11.7c0.2-1.4,0.2-2.8,0.5-4.2
		c0.4-1.3,0.8-2.5,1.3-3.8c1.1-3.1,2.4-6.2,4.2-9c0.7-1,1.2-2.2,1.8-3.2c0.2-0.4,0.4-0.7,0.7-1c0.9-1.2,1.8-2.3,2.8-3.5
		c0.9-1,1.7-2,2.6-3c0.7-0.7,1.4-1.4,2.3-1.8c0.4-0.2,0.7-0.4,0.9-0.8c0.5-0.9,1.3-1.3,2.1-1.6c1.2-0.5,2.5-0.9,3.7-1.4
		c1.1-0.4,2.1-0.9,3.4-0.7c2.2-0.7,4.4-0.5,6.6-0.6c2.6-0.2,5.1,0.2,7.6,1c0.5,0.2,0.9,0.3,1.4,0.4C74.1,87.4,76,88.7,78,90z"/>
	<path fill-rule="evenodd" clip-rule="evenodd" d="M173.3,126.7c-0.4-0.2-0.5-0.2-0.6-0.4c-2-2.3-3.1-5-3.6-8
		c-0.1-0.5-0.1-1-0.1-1.5c0-0.5,0-1,0-1.5c0-0.5-0.1-1-0.1-1.5c0.3-0.2,0.5-0.5,0.8-0.6c1.1-0.4,2.2-0.8,3.2-1.2
		c0.5-0.2,1-0.2,1.5-0.3c2.1-0.2,4.1-0.3,6.2-0.5c5.4-0.3,10.7-0.1,16.1,0.1c3.8,0.2,7.5,0.9,11.2,1.9c0.5,0.2,1.1,0.4,1.6,0.6
		c0.2,0.1,0.2,0.5,0,0.7c-0.2,0.2-0.4,0.4-0.6,0.5c-0.9,0.2-1.7,0.5-2.7,0.4c-1.1-0.1-2.1-0.1-3.2-0.1c-3.2,0-6.4,0.5-9.4,1.7
		c-1.6,0.6-3.3,1.1-4.9,1.7c-1.8,0.6-3.6,1.3-5.4,2c-0.2,0.1-0.3,0.1-0.5,0.2c-2.1,1.1-4.2,2.3-6.3,3.5c-0.6,0.4-1.2,0.9-1.8,1.3
		C174.3,126,173.8,126.3,173.3,126.7z"/>
	<path fill-rule="evenodd" clip-rule="evenodd" d="M259,88.9c-0.2,1.5,0,3.7-0.6,5.8c-0.2,0.7-0.4,1.4-0.7,2.1
		c-0.3,0.8-1.1,1.1-1.8,0.9c-0.6-0.2-1.2-1.1-1.2-1.7c0-0.3,0.1-0.7,0.2-1c0.4-1.1,0.8-2.2,1.2-3.3c0.6-1.9,1.1-3.8,1.2-5.8
		c0-1.2-0.1-2.3-0.5-3.4c-0.5-1.4-0.9-2.8-1.1-4.3c-0.3-1.8-0.9-3.5-1.9-5.1c-0.8-1.2-1.4-2.4-2-3.7c-1.1-2.1-2.3-4-3.7-5.8
		c-0.2-0.3-0.4-0.5-0.5-0.8c-0.1-0.2,0-0.9,0.2-0.9c0.2,0,0.5-0.1,0.7,0.1c0.8,0.8,1.7,1.6,2.5,2.4c2.1,2.2,3.2,5,4.5,7.6
		c0.1,0.3,0.2,0.6,0.4,0.9c1.3,2.1,1.9,4.4,2.3,6.7c0,0.2,0.1,0.5,0.2,0.7C259.1,83,259.1,85.6,259,88.9z"/>
	<path fill-rule="evenodd" clip-rule="evenodd" d="M180.7,14.2c2.4-0.1,5.3,0.4,8.1,1.3c2.8,0.9,5.4,1.9,8.1,3.2
		c3.2,1.5,5.9,3.6,8.5,5.9c0.9,0.8,1.6,1.7,2.3,2.6c0.5,0.5,0.5,1.2,0.3,1.9c-0.4,1-1.7,1.3-2.4,0.5c-0.7-0.8-1.3-1.7-1.9-2.6
		c-1.5-2.4-3.5-4.1-5.7-5.8c-0.5-0.4-1.1-0.7-1.6-1.1c-1.4-1-2.9-1.6-4.5-2c-1.8-0.5-3.7-1-5.5-1.5c-0.8-0.2-1.6-0.4-2.4-0.6
		c-2.8-0.6-5.6-0.4-8.4,0.2c-0.9,0.2-1.8,0.2-2.7,0.2c-0.3,0-0.5-0.1-0.5-0.4c0-0.2,0.1-0.5,0.3-0.6c0.3-0.2,0.7-0.4,1.1-0.5
		C176,14.3,178,14.3,180.7,14.2z"/>
	<path fill-rule="evenodd" clip-rule="evenodd" d="M236.5,136.8c0.8,0.7,1.8,1.3,2.3,2.4c0.3,0.6,0.2,1.1-0.2,1.6
		c-0.8,0.8-1.6,1.7-2.4,2.5c-2.1,2-4.5,3.7-7.1,4.9c-0.7,0.4-1.5,0.7-2.2,1.1c-1.7,1-3.6,1.6-5.5,2.1c-1.2,0.3-2.4,0.6-3.6,1
		c-1.5,0.5-3.1,0.4-4.7,0.1c-0.1,0-0.2-0.2-0.3-0.4c-0.1-0.2,0.1-0.5,0.3-0.6c1.2-0.2,2.4-0.4,3.7-0.6c1.7-0.4,3.4-0.8,5-1.3
		c1.3-0.4,2.3-1.2,3.5-1.9c0.9-0.5,1.7-1,2.6-1.5c2.4-1.3,4.5-3.1,6.2-5.2c0.8-1,1.4-2,1.6-3.3C235.6,137.2,235.9,136.9,236.5,136.8
		z"/>
	<path fill-rule="evenodd" clip-rule="evenodd" d="M123.1,21.2c1.1,0,2.1,0.1,3,0.5c0.6,0.3,1.1,0.7,1.5,1.3
		c0.3,0.4,0.3,0.9,0.2,1.4c-0.1,0.6-0.8,1-1.3,0.8c-0.9-0.4-1.9-0.6-2.9-0.7c-0.6,0-1.2-0.1-1.7,0c-1.1,0.3-2.3,0.3-3.4,0.3
		c-1.5,0.1-2.9,0.5-4.3,1c-2.2,0.8-4.1,2.1-5.9,3.5c-1.3,1-2.3,2.3-3.4,3.6c-0.4,0.5-0.8,1.1-1.4,1.4c-0.2,0.1-0.5,0.1-0.7,0.2
		c-0.2,0-0.5-0.3-0.4-0.5c0.1-0.2,0.1-0.3,0.1-0.5c0.9-1.3,1.7-2.6,2.9-3.7c3-2.7,6.2-4.9,10-6.4c0.8-0.3,1.5-0.6,2.3-1
		C119.3,21.8,121.2,21.1,123.1,21.2z"/>
	<path fill-rule="evenodd" clip-rule="evenodd" d="M155.7,159.8c-1.9-0.3-4-0.1-6-0.9c-0.5-0.2-0.9-0.4-1.3-0.7
		c-0.1-0.1-0.1-0.5,0-0.7c0-0.1,0.2-0.3,0.4-0.3c0.7,0.1,1.5,0.2,2.2,0.3c2.2,0.6,4.4,0.5,6.6,0.1c0.4-0.1,0.8-0.2,1.2-0.2
		c1.8,0.1,3.4-0.5,5.1-0.7c0.9-0.2,1.8-0.3,2.7-0.4c2.6-0.2,6-1.8,7.9-3.7c0.4-0.4,0.8-0.9,1.3-1.1c0.3-0.1,0.8-0.1,0.9,0.1
		c0.1,0.2,0.3,0.4,0.3,0.7c-0.1,1.3-0.8,2.1-1.9,2.7c-0.5,0.3-1.1,0.5-1.6,0.7c-1.3,0.5-2.7,0.8-3.9,1.6c-0.4,0.3-0.9,0.4-1.4,0.5
		c-4,0.8-7.9,1.4-11.9,2C156.1,159.8,156,159.8,155.7,159.8z"/>
	<path fill-rule="evenodd" clip-rule="evenodd" d="M182,20.8c-0.8,0-1.5,0.1-2.2,0.1c-0.1,0-0.3-0.2-0.3-0.3c0-0.1,0-0.3,0.1-0.5
		c0.2-0.4,0.5-0.7,0.9-0.7c0.7-0.1,1.5-0.2,2.2-0.2c1.2,0,2.4,0.3,3.6,0.6c3.6,0.9,7,2.4,10.1,4.5c0.6,0.4,1.1,1,1.6,1.5
		c0.2,0.2,0.3,0.6,0.4,0.9c0.1,0.4-0.2,0.9-0.5,1c-0.8,0.2-1.5,0.2-2.1-0.3c-0.3-0.2-0.6-0.5-0.9-0.8c-0.5-0.5-1.1-1-1.6-1.5
		c-1.5-1.7-3.4-2.7-5.6-3.5C185.7,21,183.8,20.7,182,20.8z"/>
	<path fill-rule="evenodd" clip-rule="evenodd" d="M248.3,73.3c0.1-0.2,0.2-0.3,0.3-0.4c0.2-0.2,0.4-0.3,0.6-0.4
		c0.5,0,0.8,0.4,1,0.7c0.6,1,1.1,2,1.6,3.1c0.7,1.5,1.3,3,1.9,4.6c0.1,0.4,0.2,0.8,0.3,1.2c0.1,0.6,0.1,1.1,0.3,1.7
		c0.3,1.3,0.3,2.6-0.3,4c-0.3,0.5-0.9,0.6-1.5,0.7c-0.7,0.1-1.3-0.4-1.3-1.1c0-0.4,0.1-0.8,0.2-1.2c0.3-2.2,0.2-4.4-0.5-6.6
		c-0.6-1.9-1.2-3.7-2.3-5.4C248.4,73.8,248.4,73.5,248.3,73.3z"/>
	<path fill-rule="evenodd" clip-rule="evenodd" d="M217.1,146.8c0.2-0.5,0.8-0.5,1.2-0.8c0.3-0.3,0.6-0.6,0.9-0.8
		c0.5-0.3,1-0.6,1.5-0.9c1.8-0.8,3.3-2.2,4.7-3.5c0.3-0.3,0.5-0.6,0.8-0.9c0.7-0.6,1.2-1.3,1.6-2.2c0.1-0.3,0.2-0.6,0.4-0.9
		c0.4-0.8,1.5-0.9,2.1-0.3c0.4,0.4,0.7,0.9,0.8,1.5c-1.9,2.6-4.3,4.7-7,6.5c-1.8,1.2-3.7,2.1-5.8,2.8
		C217.7,147.5,217.7,147.5,217.1,146.8z"/>
	<path fill-rule="evenodd" clip-rule="evenodd" d="M68.5,69.1c0.1-3.1,0.8-5.5,2.1-7.8c0.7-1.2,1.6-2.3,2.7-3.2
		c0.7-0.6,1.6-0.3,2,0.5c0.4,0.8,0.2,1.6-0.5,1.9c-1.5,0.7-2.7,1.9-3.5,3.4c-0.6,1.2-1,2.4-1.1,3.8c-0.1,0.6-0.1,1.2-0.2,1.7
		c-0.1,0.4-0.3,0.8-0.5,1.1c-0.1,0.1-0.3,0.2-0.4,0.2c-0.1,0-0.4-0.1-0.4-0.2C68.7,69.9,68.5,69.3,68.5,69.1z"/>
	<path fill-rule="evenodd" clip-rule="evenodd" d="M122.5,30c-2.1-0.3-4.1,0-6.1,0.6c-1.6,0.5-3,1.3-4.3,2.4c-0.7,0.6-1.3,1.2-2,1.8
		c-0.2,0.2-0.5,0.2-0.7,0c-0.1-0.2-0.3-0.4-0.3-0.6c0-0.5,0.2-1,0.7-1.3c1.6-1.1,3.1-2.4,5-3.2c1.7-0.8,3.6-1.3,5.3-2.1
		c1-0.5,1.9-0.2,2.8,0.5c0.6,0.5,0.6,0.9,0.1,1.7C122.8,29.8,122.7,29.8,122.5,30z"/>
	<path fill-rule="evenodd" clip-rule="evenodd" d="M162.6,154.2c-0.4,0-0.6,0-0.7-0.1c-0.1-0.1-0.2-0.2-0.2-0.3c0,0,0-0.2,0.1-0.2
		c1-0.4,2-0.9,3-1.2c0.9-0.4,1.7-0.9,2.4-1.7c0.8-0.8,1.7-1.6,2.5-2.4c0.5-0.4,1.1-0.4,1.6-0.2c0.9,0.3,1.3,1.3,0.6,2
		c-0.6,0.6-1.3,1.3-2.1,1.7c-1.6,0.8-3.3,1.6-5.1,2C164.1,154,163.2,154.1,162.6,154.2z"/>
	<path fill-rule="evenodd" clip-rule="evenodd" d="M72.3,68.1c0-0.4,0.1-0.7,0.1-1c0.3-1.3,1.9-3.9,2.9-4.7c0.2-0.2,0.6-0.3,0.9-0.3
		c0.3-0.1,0.7,0.1,0.8,0.4c0.1,0.3,0.1,0.6,0,0.9c-0.1,0.2-0.3,0.4-0.5,0.6c-0.4,0.4-0.9,0.8-1.3,1.2c-0.8,0.8-1.5,1.8-1.6,3
		c0,0.3-0.2,0.6-0.4,0.9c-0.1,0.2-0.6,0.2-0.6,0C72.5,68.7,72.4,68.4,72.3,68.1z"/>
	<path fill-rule="evenodd" clip-rule="evenodd" d="M97.7,98.9c-1.3,0.1-2.5-0.1-3.5-0.9c-0.7-0.5-1.1-1.1-1.5-1.9
		c-0.7-1.7-0.5-3.1,0.6-4.6c1.5-2.3,4.8-3.8,7.5-3.6c0.7,0.1,1.3,0.2,1.9,0.6c1.6,0.9,2.7,2.2,3.3,3.9c0.1,0.4,0.1,0.8,0.1,1.2
		c-0.2,1.2-0.7,2.1-1.6,3C102.3,98.2,100.1,98.8,97.7,98.9z"/>
	<path fill-rule="evenodd" clip-rule="evenodd" d="M56,95.3c0.6,0.1,1.3,0.1,2,0.3c0.9,0.2,1.7,0.6,2.3,1.4c0.9,1,1.1,2.2,0.8,3.4
		c-0.6,2.6-2.2,4.3-4.7,5.3c-1.8,0.7-3.6,0.9-5.6,0.3c-2.4-0.7-3.6-2.7-2.9-5.1c0.3-0.9,0.6-1.9,1.3-2.6
		C51.1,96.4,53.1,95.2,56,95.3z"/>
</g>
</svg>
