<?xml version="1.0" encoding="utf-8"?>
<!-- Generator: Adobe Illustrator 16.0.0, SVG Export Plug-In . SVG Version: 6.00 Build 0)  -->
<!DOCTYPE svg PUBLIC "-//W3C//DTD SVG 1.1//EN" "http://www.w3.org/Graphics/SVG/1.1/DTD/svg11.dtd">
<svg version="1.1" id="Layer_1" xmlns="http://www.w3.org/2000/svg" xmlns:xlink="http://www.w3.org/1999/xlink" x="0px" y="0px"
	 width="418.3px" height="507px" viewBox="0 0 418.3 507" enable-background="new 0 0 418.3 507" xml:space="preserve">
<g>
	<path opacity="0.6" fill-rule="evenodd" clip-rule="evenodd" stroke="#FFFFFF" stroke-width="8" stroke-miterlimit="10" d="
		M99.1,204.3c1.7-2.8,3.6-5.6,5.3-8.5c0.8-1.3,2.3-1.9,3.1-3.2c0.2-0.3,0.5-0.8,0.4-1.2c-0.4-1.9-1.1-3.7-2.7-4.9
		c-3.4-2.6-5.8-6.2-8.5-9.4c-0.3-0.3-0.5-0.7-0.7-1.1c-3.3-6.3-5.5-12.9-5.4-20.1c0-0.8,0-1.7,0-2.5c-0.1-1.9,0.1-3.8,1-5.6
		c0.2-0.4,0.1-0.8,0.2-1.2c0.1-0.5-0.5-1.4-0.9-1.5c-0.4-0.1-0.8-0.4-1.2-0.4c-2.1,0.1-4.2,0.2-6.4,0.4c-0.4,0-0.9,0.1-1.2,0.3
		c-4.6,1.8-9.1,3.7-13.1,6.5c-1.6,1.1-3,2.4-4,4.1c-0.4,0.7-0.9,1.4-1.4,2.1c-1.8,2.6-2.3,5.4-1.8,8.5c0.2,1.3,0.5,2.5,0.8,3.7
		c0.2,0.8,0.3,1.7,0.4,2.5c0.1,4.4-1.2,5.5-4.8,6.2c-2.3,0.4-4.7,0.5-6.9-0.2c-4.9-1.6-9.8-2.8-14.7-4.2c-2.3-0.7-4.2-2-5.7-3.9
		c-0.8-1-1.3-2.2-1.4-3.5c-0.1-1.9,0.2-3.8,0.9-5.6c1.5-3.5,2.9-7.1,3.9-10.8c0.6-2,1.4-4,2.2-6c0.3-0.8,0.7-1.6,1.2-2.2
		c1.9-2.7,4.2-4.6,7.7-5.2c4.4-0.8,8.8-1.7,13.3-1.7c2.1,0,4.2,0.2,6.4,0.4c1.3,0.1,2.5,0.6,3.4,1.5c0.9,0.9,1.8,1.8,2.7,2.7
		c1.1,1,2.5,1.6,4,1.7c2.8,0.2,5.5,0.4,8.2-0.3c0.6-0.2,1.3-0.3,1.9-0.3c3-0.3,5.7-1.4,8.4-2.7c2.8-1.4,4.9-3.4,6-6.3
		c0.3-0.8,0.5-1.7,1.2-2.2c1.9-1.4,3.2-3.3,4.6-5.2c0.5-0.7,1.2-1.2,2-1.5c1.1-0.4,1.8-1.2,2.1-2.2c0.4-1.4,1.4-2.1,2.5-2.8
		c1.3-0.7,2.8-1.2,3.8-2.3c2.2-2.5,5-3.9,8.1-4.8c0.8-0.2,1.6-0.7,2.2-1.2c2.7-2.1,5.7-3.6,9-4.7c1.2-0.4,2.3-1.1,3.4-1.7
		c2.4-1.3,5-2.2,7.8-2.5c3.2-0.4,6.3-1,9.4-1.6c3.4-0.6,6.7-1.1,10.1-0.9c1.5,0.1,2.9-0.2,4.4-0.6c1.4-0.4,2.9-0.6,4.3-1.1
		c2.5-0.8,5-0.9,7.6-0.5c0.7,0.1,1.2-0.4,1.1-1.1c-0.4-2.8-0.1-5.5,0.3-8.2c0.2-1.4,1.1-2.3,2.2-3c0.5-0.4,1.1-0.6,1.7-0.9
		c1.8-0.7,3.6-1.4,5.3-2.2c2.1-1,4.4-1.6,6.7-1.7c3-0.2,5.9-0.4,8.9-0.6c1.5-0.1,3-0.2,4.4,0c3.2,0.5,6.3,0.8,9.5,0.7
		c1.5,0,2.9,0.5,4.1,1.5c1.4,1.3,2.9,2.5,4.7,3.3c0.4,0.2,0.8,0.4,1,0.7c1.9,2.2,4,4.4,5.2,7.1c0.5,1.2,1,2.3,1.5,3.5
		c0.2,0.3,1.2,0.8,1.7,0.7c2.7-0.5,5.3-1.5,7.6-3.1c0.7-0.5,1.4-1.1,1.8-1.8c1.5-2.7,3.6-4.8,5.9-6.6c1.4-1.1,2.4-2.3,3.5-3.7
		c1-1.2,2.2-2.1,3.7-2.4c2.5-0.6,4.9-1.5,7.3-2.3c2-0.6,4.1-1,6.2-1.3c0.6-0.1,1.3,0,1.9,0.1c1.3,0.2,2.5,0.5,3.7,0.8
		c2.7,0.7,5.3,1.6,8,2.1c2.8,0.5,5.1,2,7.8,2.7c1.3,0.4,2,1.4,2.4,2.7c0.4,1.5,0.5,3-0.1,4.4c-0.8,2-1.5,3.9-2.1,6
		c-0.4,1.7-1.3,3.1-2.4,4.5c-1.2,1.5-2.5,2.9-3.8,4.3c-0.4,0.5-1,0.8-1.6,1.1c-0.6,0.3-1.2,0.5-1.7,0.8c-2.9,1.6-5.8,0.9-8.5-0.4
		c-2.3-1.1-4.3-2.8-5.9-4.8c-0.7-0.8-1.2-1.7-1.9-2.6c-0.9-1.2-2.1-2-3.7-2.1c-1-0.1-2.1-0.5-3.1-0.7c-2.8-0.7-5.5-0.2-8,1
		c-0.8,0.4-1.5,0.9-2.2,1.3c-0.9,0.5-1.8,1-2.8,1.5c-2.5,1.3-5,2.4-7.8,2.7c-0.8,0.1-1.6,0.5-2.4,0.7c-0.5,0.1-0.9,0.9-0.8,1.5
		c0,0.9,0.1,1.7,0.6,2.4c0.2,0.4,0.5,0.7,0.7,1.1c0.5,0.7,0.8,1.6,1.5,2c2.3,1.7,3.4,4.4,5.5,6.2c0.7,0.6,1.5,0.8,2.3,0.8
		c0.4,0,0.9,0,1.3-0.2c2.7-1,5.4-1,8.2-0.6c3.2,0.4,6.3,0.6,9.5,0.6c3,0,5.9,0.3,8.8,1.1c1,0.3,2.1,0.3,3.1,0.4
		c2.3,0.4,4.6,0.9,6.8,1.6c4.9,1.5,9.6,3.3,14.1,5.7c2.4,1.3,5,2.4,7.1,4.1c1.5,1.2,3.2,2.1,4.8,3.1c2.5,1.6,4.8,3.5,6.8,5.7
		c1,1.1,2.1,2.1,3.2,3.1c2.4,2.1,4.6,4.4,5.8,7.5c0.2,0.6,0.9,0.8,1.5,1.1c1.6,0.6,3.2,0.6,5,0.3c3-0.7,5.7-1.8,8.1-3.6
		c4.6-3.5,9.7-6.2,14.8-8.8c3-1.5,6.1-3,9.4-3.7c1.4-0.3,2.8-1,4.1-1.6c1.2-0.5,2.5-0.6,3.7-0.4c2.3,0.3,4.6,0.9,6.9,1.2
		c1.7,0.2,3.3,0.9,4.8,1.6c2.5,1.1,5,2.4,7.4,3.7c1.8,1,2.7,2.7,2.9,4.7c0.1,0.8,0,1.7,0,2.5c0,2.2-0.5,4.2-1.6,6.1
		c-2.2,3.6-4.4,7.2-7.6,10.1c-2.7,2.4-5,5.2-7.5,7.8c-1,1.1-2.2,2-3.6,2.6c-1,0.5-2.8-0.1-3.4-1c-0.2-0.4-0.4-0.7-0.6-1.1
		c-0.3-0.6-0.5-1.2-0.7-1.8c-0.3-1.2-0.5-2.5-1-3.7c-1.4-2.9-2.7-5.8-4.1-8.6c-0.3-0.6-0.7-1.1-1.1-1.5c-1.1-1.3-2.3-2.5-3.7-3.5
		c-1.2-0.9-2.5-1.5-4.1-1.6c-1.9-0.1-3.8-0.3-5.7-0.4c-1.5-0.8-2.9-0.2-4.2,0.5c-1.9,1-3.6,2.2-5.6,3c-2,0.8-3.7,2-5.4,3.4
		c-1.9,1.6-2.8,3.7-2.4,6.2c0.1,0.8,0.4,1.6,0.6,2.5c0.3,1.4,0.6,2.9,1,4.3c0.3,1.5,0.3,2.9,0.2,4.4c-0.4,3.2-0.8,6.3-1.7,9.4
		c-0.8,2.9-1.4,5.8-1.7,8.7c-0.1,1.1-0.4,2.2-1.2,2.9c-2.1,1.7-3.1,4-4.1,6.3c-0.1,0.2-0.2,0.4-0.2,0.6c0,0.4,0,0.8,0.1,1.2
		c0,0.2,0.1,0.4,0.3,0.6c2.7,4.1,5,8.4,8,12.2c0.5,0.7,0.9,1.4,1.2,2.2c2,4.9,4.1,9.8,5.4,15c0.3,1.3,0.8,2.4,1.7,3.4
		c0.8,1,1.3,2.2,1.9,3.3c0.9,1.7,2.3,3.1,4,3.9c2.2,1,4.1,2.3,5.7,4c0.7,0.7,1.7,1.2,2.6,1.9c1.2,0.9,2.5,1.6,3.5,2.7
		c2.1,2.3,4.6,3.7,7.5,4.7c1.3,0.5,2.1,1.5,2.6,2.6c0.4,0.8,0.7,1.6,0.9,2.4c0.9,2.9,1.2,5.8,0.9,8.8c-0.4,4.2-1,8.4-2.2,12.5
		c-0.7,2.3-1.9,4.3-3.1,6.2c-0.3,0.5-0.9,1-1.4,1.2c-2.2,0.9-4,2.4-5.9,3.7c-1.8,1.2-2.6,2.7-2,4.8c0.2,0.8,0.2,1.7,0.2,2.5
		c-0.1,1.3-0.1,2.5,0.2,3.8c0.8,4.2,0.3,8.5,0.2,12.7c0,0.6-0.1,1.3-0.3,1.9c-1,4.4-2.8,8.5-5.3,12.2c-2.6,3.9-5.6,7.5-8.6,11.1
		c-2.2,2.6-4.5,5.1-7.1,7.3c-2.9,2.5-6.1,4.7-9.2,6.8c-1.6,1.1-3.3,2-4.7,3.3c-1.4,1.4-3.1,2.1-5,2.7c-1,0.3-2,0.6-3,1
		c-1.3,0.5-2.2,1.3-2.8,2.5c-0.6,1.3-1.2,2.7-1.7,4.1c-0.4,1-0.3,2.1,0,3.2c0.1,0.4,0.3,0.9,0.6,1.1c0.9,0.7,1.5,1.4,1.9,2.5
		c0.3,0.8,0.7,1.6,1.2,2.3c2.7,3.8,5,7.9,7.7,11.7c1.6,2.2,3.5,4.3,5.3,6.4c0.5,0.7,1.2,1.3,1.8,1.8c2.4,1.8,4.6,3.8,6.7,5.9
		c0.6,0.6,1.3,1.1,2,1.5c2.1,1.4,4.4,2.6,5.6,5c2.1,1.8,3.9,4,6.2,5.4c2,1.2,3.9,2.5,5.5,4.3c1,1.1,2.2,1.9,3.6,2.6
		c1.1,0.5,2.2,1.2,3.3,1.8c0.6,0.4,0.9,1.5,0.6,2.3c-0.3,0.8-1.2,1.4-2,1.2c-1.6-0.5-3.2-1.1-4.8-1.7c-3.2-1.2-6.5-2-9.9-2.4
		c-0.6-0.1-1.3-0.2-1.9-0.2c-3.2-0.2-6.2-1.1-9-2.8c-2-1.2-4.2-2-6.5-2.4c-1.3-0.2-2.4-0.7-3.7-1c-1.3-0.3-2.4-0.8-3.4-1.7
		c-1.6-1.4-3.5-2.4-5.6-2.9c-2.9-0.8-5.6-2-8.5-2.5c-1.5-0.3-2.8-1-4.1-1.6c-0.4-0.2-0.8-0.2-1.2-0.3c-0.7-0.1-1.8,0.6-1.9,1.4
		c-0.1,0.6-0.2,1.3,0,1.9c0.5,1.6,1.1,3.2,1.8,4.8c0.8,1.7,1.9,3.3,2.1,5.3c0.1,0.4,0.3,0.8,0.5,1.2c0.8,1.2,1.6,2.5,2.2,3.9
		c0.3,0.8,1,1.4,1.5,2c1.6,2,3.6,3.7,4.8,5.9c0.2,0.4,0.5,0.7,0.8,1c2.8,2.4,4.9,5.3,6.8,8.3c0.5,0.7,1,1.4,1.5,2
		c2.6,2.8,5,5.8,7.6,8.5c0.9,0.9,1.8,1.8,2.9,2.5c1.3,0.8,1.8,2.4,3.2,3c1.2,0.5,2.3,1.1,3.4,1.7c0.4,0.2,0.7,0.5,1,0.7
		c0.5,0.4,0.7,1.6,0.3,2.4c-0.3,0.6-1.5,1.1-2.2,0.7c-2.1-1.1-4.2-2.1-6.2-3.2c-1.7-0.9-3.4-1.6-5.4-1.9c-2.6-0.3-4.9-1.3-7.1-2.7
		c-0.2-0.1-0.4-0.2-0.5-0.4c-2.5-1.8-5.2-2.9-8.2-3.1c-1.1-0.1-2.1-0.5-2.9-1.2c-1-0.8-1.9-1.7-2.9-2.5c-0.7-0.5-1.4-1.2-2.2-1.3
		c-2.3-0.3-3.8-1.8-5.4-3.1c-1.5-1.2-3-2.2-4.9-2.8c-1.4-0.4-2.8-1-3.9-2.1c-2.8-2.8-6.3-4.3-9.9-5.5c-0.4-0.1-0.8-0.4-1.2-0.4
		c-0.6-0.1-1.3-0.2-1.9,0c-3.1,0.9-6.1,1.7-9.2,2.5c-1.9,0.5-3.6,1.3-5,2.7c-1.1,1.1-2.5,1.6-3.9,2c-2.7,0.6-5.3,1.4-8,2.1
		c-0.8,0.2-1.6,0.7-2.1,1.4c-1.1,1.3-2.1,2.6-3.1,4c-2,3-4,6-6,9c-0.6,0.9-1,1.8-1.6,2.8c-0.1,2-1.5,3.5-2.5,5.1
		c-0.7,1.1-1.4,2.1-2.1,3.2c-1.3,1.9-2.6,4-3.2,6.2c-0.6,2.2-1.8,4.3-1.9,6.7c0,0.8-0.3,1.7-0.7,2.4c-1.3,2.7-2.1,5.6-3.7,8.1
		c-0.5,0.7-0.8,1.5-0.9,2.4c-0.2,1.8-1.1,3.1-2.6,4.2c-0.9,0.6-1.3,1.7-2.3,2.2c-0.4,0.2-0.8,0.2-1.2-0.1c-1.2-0.9-2-2.2-2.6-3.6
		c-1.2-2.5-2.4-5-3.4-7.5c-0.9-2.4-1.5-4.9-2.2-7.3c-0.7-2.2-1.6-4.3-2.2-6.6c-0.7-3.1-1.7-6.1-2.6-9.2c-0.2-0.8-0.6-1.6-0.6-2.5
		c-0.3-3.6-1.5-7.1-2.2-10.6c-0.4-1.6-0.6-3.3-1-5c-0.1-0.7-1.1-1.6-1.8-1.6c-2.5-0.1-5.1-0.3-7.6-0.3c-2.8-0.1-5.5-0.1-8.2-0.8
		c-1-0.2-2.1-0.2-3.2-0.3c-1.7-0.1-3.4-0.4-5-1c-2.1-0.8-3-0.2-4.4,1.5c-1.1,1.3-2,2.8-2.8,4.2c-1,1.6-1.7,3.4-2.9,4.9
		c-0.4,0.5-0.6,1.1-0.8,1.7c-1.5,4.6-3.5,9.1-5.3,13.6c-1.1,2.8-2,5.6-2.7,8.5c-0.2,1-0.6,2.1-0.6,3.1c-0.2,3.2-0.8,6.3-1.4,9.4
		c-0.4,1.7-0.3,3.4-0.1,5.1c0.1,0.6-0.1,1.3-0.1,1.9c-0.1,0.8-1.5,1.9-2.4,1.7c-0.4-0.1-0.9-0.2-1.2-0.5c-1.7-1.6-3.4-3.2-5.1-4.8
		c-1.9-1.8-3.2-3.9-4.6-6c-0.7-2.5-2.4-4.4-3.4-6.8c-0.9-2.2-2.2-4.1-3.2-6.2c-0.9-1.9-1.9-3.8-3-5.6c-1.1-1.8-2-3.8-3.2-5.5
		c-0.5-2.1-1.6-3.9-2.7-5.7c-0.5-0.9-0.9-1.9-1.2-2.9c-0.7-2.2-1.8-4.3-2.6-6.5c-0.3-1-0.9-1.9-1.4-2.8c-1-1.6-2.1-3.2-3.3-4.7
		c-1.5-1.9-3.4-3.1-6-3.1c-2.3,0-4.7-0.1-7,0c-5,0-9.7-1.1-14.2-3.1c-2.3-1-4.7-1.9-7.1-2.7c-2.8-1-5.5-2.1-8.1-3.7
		c-1.9-1.3-4.1-2.2-6.2-3.2c-0.5-0.3-1.2-0.2-1.9-0.3c-0.4-0.1-0.9,0-1.2-0.2c-2.1-1.4-4.4-2.5-6.1-4.6c-1.5-1.8-3.2-3.4-4.8-5.1
		c-1.4-1.6-2.8-3.2-4.3-4.7c-0.5-0.4-0.9-0.9-1.2-1.5c-1-2.4-2.8-4.2-3.9-6.5c-0.8-1.7-1.7-3.4-3.2-4.7c-0.3-0.3-0.6-0.6-0.8-1
		c-1-1.9-2.1-3.7-3-5.6c-1.2-2.7-2.5-5.4-3.3-8.3c-0.5-1.8-1.5-3.5-2.3-5.2c-1.1-2.1-1.7-4.3-2.4-6.6c-0.8-2.7-1-5.4-0.4-8.2
		c1-4.5,1.4-8.6,1.9-13.8c0.2-2.5,0.8-5,1.2-7.5c0.4-2.1,0.9-4.1,1.4-6.2c0.2-0.8,0.3-1.7,0.4-2.5c0.4-2.9-0.3-5.6-2.3-7.6
		c-2.3-2.3-3.2-5.5-5-8.1c-0.3-0.5-0.5-1.2-0.7-1.8c-1.5-5.1-2.9-10.2-4.3-15.3c-0.2-0.8-0.3-1.7-0.3-2.5c0-2.8,0-5.5,0-8.3
		c0-0.6,0.1-1.3,0.2-1.9c1.2-4.7,2-9.5,3.6-14.1c1.2-3.2,2.2-6.4,3.1-9.7c1.1-3.7,2.6-7.2,4.4-10.5c1.8-3.3,3.7-6.7,6.3-9.5
		c0.4-0.5,0.6-1.1,0.9-1.7c0.2-0.4,0.1-0.8-0.1-1.2c-0.8-1.3-1.9-2.3-3-3.3c-1.1-1-2-2.2-2.8-3.4c-0.7-1.1-1.4-2.1-2.1-3.2
		c-0.9-1.2-1.6-2.5-1.7-4c-0.1-0.8-0.1-1.8-0.5-2.5c-1.1-2.4-0.2-4.6,0.4-6.8c0.1-0.4,0.4-0.8,0.6-1.1c1.8-2.4,3.8-4.6,6.1-6.5
		c0.5-0.4,1-0.8,1.6-1c1.4-0.5,2.6-1.5,3.8-2.2c1.8-1.1,3.8-1.9,6-1.9c1.5,0,3-0.3,4.4-0.5c3.8-0.6,7.6-0.9,11.4-1.2
		c1.7-0.1,3.4-0.2,5,0.5c0.4,0.2,0.8,0.3,1.2,0.3c3.6,0.1,7.2,0.7,10.8,0.9c1.9,0.1,3.8,0,5.7,0c0.8,0,1.7-0.2,2.5-0.5
		c1.2-0.4,2.4-0.9,3.6-1.4C97.1,205,98.2,205.2,99.1,204.3z"/>
	<path fill-rule="evenodd" clip-rule="evenodd" d="M99.1,204.3c1.7-2.8,3.6-5.6,5.3-8.5c0.8-1.3,2.3-1.9,3.1-3.2
		c0.2-0.3,0.5-0.8,0.4-1.2c-0.4-1.9-1.1-3.7-2.7-4.9c-3.4-2.6-5.8-6.2-8.5-9.4c-0.3-0.3-0.5-0.7-0.7-1.1c-3.3-6.3-5.5-12.9-5.4-20.1
		c0-0.8,0-1.7,0-2.5c-0.1-1.9,0.1-3.8,1-5.6c0.2-0.4,0.1-0.8,0.2-1.2c0.1-0.5-0.5-1.4-0.9-1.5c-0.4-0.1-0.8-0.4-1.2-0.4
		c-2.1,0.1-4.2,0.2-6.4,0.4c-0.4,0-0.9,0.1-1.2,0.3c-4.6,1.8-9.1,3.7-13.1,6.5c-1.6,1.1-3,2.4-4,4.1c-0.4,0.7-0.9,1.4-1.4,2.1
		c-1.8,2.6-2.3,5.4-1.8,8.5c0.2,1.3,0.5,2.5,0.8,3.7c0.2,0.8,0.3,1.7,0.4,2.5c0.1,4.4-1.2,5.5-4.8,6.2c-2.3,0.4-4.7,0.5-6.9-0.2
		c-4.9-1.6-9.8-2.8-14.7-4.2c-2.3-0.7-4.2-2-5.7-3.9c-0.8-1-1.3-2.2-1.4-3.5c-0.1-1.9,0.2-3.8,0.9-5.6c1.5-3.5,2.9-7.1,3.9-10.8
		c0.6-2,1.4-4,2.2-6c0.3-0.8,0.7-1.6,1.2-2.2c1.9-2.7,4.2-4.6,7.7-5.2c4.4-0.8,8.8-1.7,13.3-1.7c2.1,0,4.2,0.2,6.4,0.4
		c1.3,0.1,2.5,0.6,3.4,1.5c0.9,0.9,1.8,1.8,2.7,2.7c1.1,1,2.5,1.6,4,1.7c2.8,0.2,5.5,0.4,8.2-0.3c0.6-0.2,1.3-0.3,1.9-0.3
		c3-0.3,5.7-1.4,8.4-2.7c2.8-1.4,4.9-3.4,6-6.3c0.3-0.8,0.5-1.7,1.2-2.2c1.9-1.4,3.2-3.3,4.6-5.2c0.5-0.7,1.2-1.2,2-1.5
		c1.1-0.4,1.8-1.2,2.1-2.2c0.4-1.4,1.4-2.1,2.5-2.8c1.3-0.7,2.8-1.2,3.8-2.3c2.2-2.5,5-3.9,8.1-4.8c0.8-0.2,1.6-0.7,2.2-1.2
		c2.7-2.1,5.7-3.6,9-4.7c1.2-0.4,2.3-1.1,3.4-1.7c2.4-1.3,5-2.2,7.8-2.5c3.2-0.4,6.3-1,9.4-1.6c3.4-0.6,6.7-1.1,10.1-0.9
		c1.5,0.1,2.9-0.2,4.4-0.6c1.4-0.4,2.9-0.6,4.3-1.1c2.5-0.8,5-0.9,7.6-0.5c0.7,0.1,1.2-0.4,1.1-1.1c-0.4-2.8-0.1-5.5,0.3-8.2
		c0.2-1.4,1.1-2.3,2.2-3c0.5-0.4,1.1-0.6,1.7-0.9c1.8-0.7,3.6-1.4,5.3-2.2c2.1-1,4.4-1.6,6.7-1.7c3-0.2,5.9-0.4,8.9-0.6
		c1.5-0.1,3-0.2,4.4,0c3.2,0.5,6.3,0.8,9.5,0.7c1.5,0,2.9,0.5,4.1,1.5c1.4,1.3,2.9,2.5,4.7,3.3c0.4,0.2,0.8,0.4,1,0.7
		c1.9,2.2,4,4.4,5.2,7.1c0.5,1.2,1,2.3,1.5,3.5c0.2,0.3,1.2,0.8,1.7,0.7c2.7-0.5,5.3-1.5,7.6-3.1c0.7-0.5,1.4-1.1,1.8-1.8
		c1.5-2.7,3.6-4.8,5.9-6.6c1.4-1.1,2.4-2.3,3.5-3.7c1-1.2,2.2-2.1,3.7-2.4c2.5-0.6,4.9-1.5,7.3-2.3c2-0.6,4.1-1,6.2-1.3
		c0.6-0.1,1.3,0,1.9,0.1c1.3,0.2,2.5,0.5,3.7,0.8c2.7,0.7,5.3,1.6,8,2.1c2.8,0.5,5.1,2,7.8,2.7c1.3,0.4,2,1.4,2.4,2.7
		c0.4,1.5,0.5,3-0.1,4.4c-0.8,2-1.5,3.9-2.1,6c-0.4,1.7-1.3,3.1-2.4,4.5c-1.2,1.5-2.5,2.9-3.8,4.3c-0.4,0.5-1,0.8-1.6,1.1
		c-0.6,0.3-1.2,0.5-1.7,0.8c-2.9,1.6-5.8,0.9-8.5-0.4c-2.3-1.1-4.3-2.8-5.9-4.8c-0.7-0.8-1.2-1.7-1.9-2.6c-0.9-1.2-2.1-2-3.7-2.1
		c-1-0.1-2.1-0.5-3.1-0.7c-2.8-0.7-5.5-0.2-8,1c-0.8,0.4-1.5,0.9-2.2,1.3c-0.9,0.5-1.8,1-2.8,1.5c-2.5,1.3-5,2.4-7.8,2.7
		c-0.8,0.1-1.6,0.5-2.4,0.7c-0.5,0.1-0.9,0.9-0.8,1.5c0,0.9,0.1,1.7,0.6,2.4c0.2,0.4,0.5,0.7,0.7,1.1c0.5,0.7,0.8,1.6,1.5,2
		c2.3,1.7,3.4,4.4,5.5,6.2c0.7,0.6,1.5,0.8,2.3,0.8c0.4,0,0.9,0,1.3-0.2c2.7-1,5.4-1,8.2-0.6c3.2,0.4,6.3,0.6,9.5,0.6
		c3,0,5.9,0.3,8.8,1.1c1,0.3,2.1,0.3,3.1,0.4c2.3,0.4,4.6,0.9,6.8,1.6c4.9,1.5,9.6,3.3,14.1,5.7c2.4,1.3,5,2.4,7.1,4.1
		c1.5,1.2,3.2,2.1,4.8,3.1c2.5,1.6,4.8,3.5,6.8,5.7c1,1.1,2.1,2.1,3.2,3.1c2.4,2.1,4.6,4.4,5.8,7.5c0.2,0.6,0.9,0.8,1.5,1.1
		c1.6,0.6,3.2,0.6,5,0.3c3-0.7,5.7-1.8,8.1-3.6c4.6-3.5,9.7-6.2,14.8-8.8c3-1.5,6.1-3,9.4-3.7c1.4-0.3,2.8-1,4.1-1.6
		c1.2-0.5,2.5-0.6,3.7-0.4c2.3,0.3,4.6,0.9,6.9,1.2c1.7,0.2,3.3,0.9,4.8,1.6c2.5,1.1,5,2.4,7.4,3.7c1.8,1,2.7,2.7,2.9,4.7
		c0.1,0.8,0,1.7,0,2.5c0,2.2-0.5,4.2-1.6,6.1c-2.2,3.6-4.4,7.2-7.6,10.1c-2.7,2.4-5,5.2-7.5,7.8c-1,1.1-2.2,2-3.6,2.6
		c-1,0.5-2.8-0.1-3.4-1c-0.2-0.4-0.4-0.7-0.6-1.1c-0.3-0.6-0.5-1.2-0.7-1.8c-0.3-1.2-0.5-2.5-1-3.7c-1.4-2.9-2.7-5.8-4.1-8.6
		c-0.3-0.6-0.7-1.1-1.1-1.5c-1.1-1.3-2.3-2.5-3.7-3.5c-1.2-0.9-2.5-1.5-4.1-1.6c-1.9-0.1-3.8-0.3-5.7-0.4c-1.5-0.8-2.9-0.2-4.2,0.5
		c-1.9,1-3.6,2.2-5.6,3c-2,0.8-3.7,2-5.4,3.4c-1.9,1.6-2.8,3.7-2.4,6.2c0.1,0.8,0.4,1.6,0.6,2.5c0.3,1.4,0.6,2.9,1,4.3
		c0.3,1.5,0.3,2.9,0.2,4.4c-0.4,3.2-0.8,6.3-1.7,9.4c-0.8,2.9-1.4,5.8-1.7,8.7c-0.1,1.1-0.4,2.2-1.2,2.9c-2.1,1.7-3.1,4-4.1,6.3
		c-0.1,0.2-0.2,0.4-0.2,0.6c0,0.4,0,0.8,0.1,1.2c0,0.2,0.1,0.4,0.3,0.6c2.7,4.1,5,8.4,8,12.2c0.5,0.7,0.9,1.4,1.2,2.2
		c2,4.9,4.1,9.8,5.4,15c0.3,1.3,0.8,2.4,1.7,3.4c0.8,1,1.3,2.2,1.9,3.3c0.9,1.7,2.3,3.1,4,3.9c2.2,1,4.1,2.3,5.7,4
		c0.7,0.7,1.7,1.2,2.6,1.9c1.2,0.9,2.5,1.6,3.5,2.7c2.1,2.3,4.6,3.7,7.5,4.7c1.3,0.5,2.1,1.5,2.6,2.6c0.4,0.8,0.7,1.6,0.9,2.4
		c0.9,2.9,1.2,5.8,0.9,8.8c-0.4,4.2-1,8.4-2.2,12.5c-0.7,2.3-1.9,4.3-3.1,6.2c-0.3,0.5-0.9,1-1.4,1.2c-2.2,0.9-4,2.4-5.9,3.7
		c-1.8,1.2-2.6,2.7-2,4.8c0.2,0.8,0.2,1.7,0.2,2.5c-0.1,1.3-0.1,2.5,0.2,3.8c0.8,4.2,0.3,8.5,0.2,12.7c0,0.6-0.1,1.3-0.3,1.9
		c-1,4.4-2.8,8.5-5.3,12.2c-2.6,3.9-5.6,7.5-8.6,11.1c-2.2,2.6-4.5,5.1-7.1,7.3c-2.9,2.5-6.1,4.7-9.2,6.8c-1.6,1.1-3.3,2-4.7,3.3
		c-1.4,1.4-3.1,2.1-5,2.7c-1,0.3-2,0.6-3,1c-1.3,0.5-2.2,1.3-2.8,2.5c-0.6,1.3-1.2,2.7-1.7,4.1c-0.4,1-0.3,2.1,0,3.2
		c0.1,0.4,0.3,0.9,0.6,1.1c0.9,0.7,1.5,1.4,1.9,2.5c0.3,0.8,0.7,1.6,1.2,2.3c2.7,3.8,5,7.9,7.7,11.7c1.6,2.2,3.5,4.3,5.3,6.4
		c0.5,0.7,1.2,1.3,1.8,1.8c2.4,1.8,4.6,3.8,6.7,5.9c0.6,0.6,1.3,1.1,2,1.5c2.1,1.4,4.4,2.6,5.6,5c2.1,1.8,3.9,4,6.2,5.4
		c2,1.2,3.9,2.5,5.5,4.3c1,1.1,2.2,1.9,3.6,2.6c1.1,0.5,2.2,1.2,3.3,1.8c0.6,0.4,0.9,1.5,0.6,2.3c-0.3,0.8-1.2,1.4-2,1.2
		c-1.6-0.5-3.2-1.1-4.8-1.7c-3.2-1.2-6.5-2-9.9-2.4c-0.6-0.1-1.3-0.2-1.9-0.2c-3.2-0.2-6.2-1.1-9-2.8c-2-1.2-4.2-2-6.5-2.4
		c-1.3-0.2-2.4-0.7-3.7-1c-1.3-0.3-2.4-0.8-3.4-1.7c-1.6-1.4-3.5-2.4-5.6-2.9c-2.9-0.8-5.6-2-8.5-2.5c-1.5-0.3-2.8-1-4.1-1.6
		c-0.4-0.2-0.8-0.2-1.2-0.3c-0.7-0.1-1.8,0.6-1.9,1.4c-0.1,0.6-0.2,1.3,0,1.9c0.5,1.6,1.1,3.2,1.8,4.8c0.8,1.7,1.9,3.3,2.1,5.3
		c0.1,0.4,0.3,0.8,0.5,1.2c0.8,1.2,1.6,2.5,2.2,3.9c0.3,0.8,1,1.4,1.5,2c1.6,2,3.6,3.7,4.8,5.9c0.2,0.4,0.5,0.7,0.8,1
		c2.8,2.4,4.9,5.3,6.8,8.3c0.5,0.7,1,1.4,1.5,2c2.6,2.8,5,5.8,7.6,8.5c0.9,0.9,1.8,1.8,2.9,2.5c1.3,0.8,1.8,2.4,3.2,3
		c1.2,0.5,2.3,1.1,3.4,1.7c0.4,0.2,0.7,0.5,1,0.7c0.5,0.4,0.7,1.6,0.3,2.4c-0.3,0.6-1.5,1.1-2.2,0.7c-2.1-1.1-4.2-2.1-6.2-3.2
		c-1.7-0.9-3.4-1.6-5.4-1.9c-2.6-0.3-4.9-1.3-7.1-2.7c-0.2-0.1-0.4-0.2-0.5-0.4c-2.5-1.8-5.2-2.9-8.2-3.1c-1.1-0.1-2.1-0.5-2.9-1.2
		c-1-0.8-1.9-1.7-2.9-2.5c-0.7-0.5-1.4-1.2-2.2-1.3c-2.3-0.3-3.8-1.8-5.4-3.1c-1.5-1.2-3-2.2-4.9-2.8c-1.4-0.4-2.8-1-3.9-2.1
		c-2.8-2.8-6.3-4.3-9.9-5.5c-0.4-0.1-0.8-0.4-1.2-0.4c-0.6-0.1-1.3-0.2-1.9,0c-3.1,0.9-6.1,1.7-9.2,2.5c-1.9,0.5-3.6,1.3-5,2.7
		c-1.1,1.1-2.5,1.6-3.9,2c-2.7,0.6-5.3,1.4-8,2.1c-0.8,0.2-1.6,0.7-2.1,1.4c-1.1,1.3-2.1,2.6-3.1,4c-2,3-4,6-6,9
		c-0.6,0.9-1,1.8-1.6,2.8c-0.1,2-1.5,3.5-2.5,5.1c-0.7,1.1-1.4,2.1-2.1,3.2c-1.3,1.9-2.6,4-3.2,6.2c-0.6,2.2-1.8,4.3-1.9,6.7
		c0,0.8-0.3,1.7-0.7,2.4c-1.3,2.7-2.1,5.6-3.7,8.1c-0.5,0.7-0.8,1.5-0.9,2.4c-0.2,1.8-1.1,3.1-2.6,4.2c-0.9,0.6-1.3,1.7-2.3,2.2
		c-0.4,0.2-0.8,0.2-1.2-0.1c-1.2-0.9-2-2.2-2.6-3.6c-1.2-2.5-2.4-5-3.4-7.5c-0.9-2.4-1.5-4.9-2.2-7.3c-0.7-2.2-1.6-4.3-2.2-6.6
		c-0.7-3.1-1.7-6.1-2.6-9.2c-0.2-0.8-0.6-1.6-0.6-2.5c-0.3-3.6-1.5-7.1-2.2-10.6c-0.4-1.6-0.6-3.3-1-5c-0.1-0.7-1.1-1.6-1.8-1.6
		c-2.5-0.1-5.1-0.3-7.6-0.3c-2.8-0.1-5.5-0.1-8.2-0.8c-1-0.2-2.1-0.2-3.2-0.3c-1.7-0.1-3.4-0.4-5-1c-2.1-0.8-3-0.2-4.4,1.5
		c-1.1,1.3-2,2.8-2.8,4.2c-1,1.6-1.7,3.4-2.9,4.9c-0.4,0.5-0.6,1.1-0.8,1.7c-1.5,4.6-3.5,9.1-5.3,13.6c-1.1,2.8-2,5.6-2.7,8.5
		c-0.2,1-0.6,2.1-0.6,3.1c-0.2,3.2-0.8,6.3-1.4,9.4c-0.4,1.7-0.3,3.4-0.1,5.1c0.1,0.6-0.1,1.3-0.1,1.9c-0.1,0.8-1.5,1.9-2.4,1.7
		c-0.4-0.1-0.9-0.2-1.2-0.5c-1.7-1.6-3.4-3.2-5.1-4.8c-1.9-1.8-3.2-3.9-4.6-6c-0.7-2.5-2.4-4.4-3.4-6.8c-0.9-2.2-2.2-4.1-3.2-6.2
		c-0.9-1.9-1.9-3.8-3-5.6c-1.1-1.8-2-3.8-3.2-5.5c-0.5-2.1-1.6-3.9-2.7-5.7c-0.5-0.9-0.9-1.9-1.2-2.9c-0.7-2.2-1.8-4.3-2.6-6.5
		c-0.3-1-0.9-1.9-1.4-2.8c-1-1.6-2.1-3.2-3.3-4.7c-1.5-1.9-3.4-3.1-6-3.1c-2.3,0-4.7-0.1-7,0c-5,0-9.7-1.1-14.2-3.1
		c-2.3-1-4.7-1.9-7.1-2.7c-2.8-1-5.5-2.1-8.1-3.7c-1.9-1.3-4.1-2.2-6.2-3.2c-0.5-0.3-1.2-0.2-1.9-0.3c-0.4-0.1-0.9,0-1.2-0.2
		c-2.1-1.4-4.4-2.5-6.1-4.6c-1.5-1.8-3.2-3.4-4.8-5.1c-1.4-1.6-2.8-3.2-4.3-4.7c-0.5-0.4-0.9-0.9-1.2-1.5c-1-2.4-2.8-4.2-3.9-6.5
		c-0.8-1.7-1.7-3.4-3.2-4.7c-0.3-0.3-0.6-0.6-0.8-1c-1-1.9-2.1-3.7-3-5.6c-1.2-2.7-2.5-5.4-3.3-8.3c-0.5-1.8-1.5-3.5-2.3-5.2
		c-1.1-2.1-1.7-4.3-2.4-6.6c-0.8-2.7-1-5.4-0.4-8.2c1-4.5,1.4-8.6,1.9-13.8c0.2-2.5,0.8-5,1.2-7.5c0.4-2.1,0.9-4.1,1.4-6.2
		c0.2-0.8,0.3-1.7,0.4-2.5c0.4-2.9-0.3-5.6-2.3-7.6c-2.3-2.3-3.2-5.5-5-8.1c-0.3-0.5-0.5-1.2-0.7-1.8c-1.5-5.1-2.9-10.2-4.3-15.3
		c-0.2-0.8-0.3-1.7-0.3-2.5c0-2.8,0-5.5,0-8.3c0-0.6,0.1-1.3,0.2-1.9c1.2-4.7,2-9.5,3.6-14.1c1.2-3.2,2.2-6.4,3.1-9.7
		c1.1-3.7,2.6-7.2,4.4-10.5c1.8-3.3,3.7-6.7,6.3-9.5c0.4-0.5,0.6-1.1,0.9-1.7c0.2-0.4,0.1-0.8-0.1-1.2c-0.8-1.3-1.9-2.3-3-3.3
		c-1.1-1-2-2.2-2.8-3.4c-0.7-1.1-1.4-2.1-2.1-3.2c-0.9-1.2-1.6-2.5-1.7-4c-0.1-0.8-0.1-1.8-0.5-2.5c-1.1-2.4-0.2-4.6,0.4-6.8
		c0.1-0.4,0.4-0.8,0.6-1.1c1.8-2.4,3.8-4.6,6.1-6.5c0.5-0.4,1-0.8,1.6-1c1.4-0.5,2.6-1.5,3.8-2.2c1.8-1.1,3.8-1.9,6-1.9
		c1.5,0,3-0.3,4.4-0.5c3.8-0.6,7.6-0.9,11.4-1.2c1.7-0.1,3.4-0.2,5,0.5c0.4,0.2,0.8,0.3,1.2,0.3c3.6,0.1,7.2,0.7,10.8,0.9
		c1.9,0.1,3.8,0,5.7,0c0.8,0,1.7-0.2,2.5-0.5c1.2-0.4,2.4-0.9,3.6-1.4C97.1,205,98.2,205.2,99.1,204.3z"/>
	<g>
		<g opacity="0.6">
			<path fill-rule="evenodd" clip-rule="evenodd" stroke="#FFFFFF" stroke-width="8" stroke-miterlimit="10" d="M28.2,64.4
				c0.6,0,0.1,0-0.3,0c-3.7,0.4-7.2-0.3-10.6-1.4c-1.2-0.4-2.4-0.9-3.5-1.5c-1.3-0.7-2.5-1.7-3.8-2.4c-2.4-1.3-3.7-3.4-4.7-5.8
				c-0.7-1.8-1.2-3.6-1.3-5.5c0-0.6-0.1-1.3,0-1.9c0.3-2.1,0.6-4.2,1.2-6.2c1.2-4,2.7-8,4.7-11.8c0.3-0.6,0.7-1.1,1.1-1.5
				c0.8-0.7,1.7-1.3,2.4-2.1c2.7-3.2,6.3-5,9.9-6.8c2.1-1.1,4.4-1.6,6.7-1.9c1.9-0.2,3.9,0,5.6,0.9c2.7,1.3,5.4,2.5,8.1,3.6
				c1.2,0.5,2.3,1.1,3.2,2c2,1.9,4,3.7,6,5.7c0.6,0.6,1,1.4,1.4,2.1c0.5,0.9,0.9,1.9,1.7,2.7c1.4,1.2,1.8,2.8,2.3,4.4
				c0.4,1.2,0.5,2.5,0.2,3.8c-0.9,4.6-2.3,9-4.6,13.1c-0.6,1.1-1.4,2.1-2.4,2.9c-2.7,2.4-5.9,4.1-9.3,5.4c-3.2,1.2-6.5,2-9.9,2
				C31.3,64.2,30.2,64.3,28.2,64.4z M54.3,43.3c0-0.3,0-0.8,0-1.2c-0.1-6.5,0.5-4.8-3.4-9.7c-0.8-1-1.6-1.9-2-3.2
				c-0.2-0.6-0.5-1.2-1-1.6C45,25,42,22.6,38.2,21.6c-1.2-0.3-2.4-0.9-3.6-1.3c-1-0.4-2.1-0.5-3.1-0.6c-1.9-0.2-3.8,0.2-5.6,0.8
				c-1.2,0.4-2.4,0.9-3.3,1.9c-1.6,1.7-3.3,3.4-4.7,5.1c-1.8,2.1-3.1,4.7-3.7,7.3c-0.9,3.7-1.5,7.5-0.6,11.3
				c0.3,1.2,0.3,2.5,0.4,3.8c0.1,0.6,0.3,1.3,0.5,1.8c1.1,2.6,2.5,4.9,5,6.4c0.4,0.2,0.7,0.5,1,0.8c1.1,0.8,2.2,1.2,3.5,1.3
				c0.6,0,1.3,0.1,1.9,0.1c5.8,0,11.4-1.1,16.9-2.8c1.2-0.4,2.2-1.2,3.3-1.9c0.5-0.3,0.9-0.9,1.4-1.3c1.5-1.4,3.4-2.6,4.4-4.5
				c0.8-1.5,1.2-3.2,1.7-4.8C53.8,44.5,54,43.9,54.3,43.3z"/>
			<path fill-rule="evenodd" clip-rule="evenodd" stroke="#FFFFFF" stroke-width="8" stroke-miterlimit="10" d="M70,38.9
				c0.2-3.1,0.4-6.5,0.7-9.9c0.1-1,0.3-2.1,0.6-3.1c0.3-1,0.5-2.1,0.3-3.1c-0.3-2.1,0.8-3.7,2-5.2c0.5-0.7,1.3-1.2,2.1-1.4
				c2.3-0.6,4.5-1.4,6.8-1.5c3-0.1,5.9-1,8.7-1.7c0.4-0.1,0.8-0.3,1.2-0.4c1.6-0.4,3.4-0.7,4.9-1.4c1.5-0.7,2.9-1.8,4.3-2.7
				c1-0.6,2.7,0.3,2.9,1.5c0,0.2,0.1,0.4,0.1,0.6c-0.1,1.7-0.4,3.4-1.1,4.9c-0.1,0.3-0.6,0.8-0.9,0.8c-3.6-0.1-7.2,0.3-10.8,0.8
				c-0.6,0.1-1.3,0.1-1.9,0c-1.5-0.2-2.9,0-4.4,0.4c-1.7,0.4-3.4,0.5-5,0.8c-0.6,0.1-1.2,0.3-1.8,0.6c-0.8,0.3-1.5,0.9-1.8,1.7
				c-1.2,3.4-1.8,7-1.4,10.6c0,0.3,0.6,0.8,0.9,0.8c1.5,0,3,0.1,4.4-0.1c3.5-0.7,7.1-0.9,10.6-2c2.9-0.8,5.9-0.5,8.8-0.1
				c1.3,0.2,2.5,0.5,3.6,1.1c4.2,2,4.6,2.5,5.2,7.1c0.1,0.9-0.1,1.7-0.5,2.5c-0.2,0.4-0.4,0.8-0.6,1.1c-1.6,2.5-3.7,4.7-6,6.6
				c-1.2,0.9-2.5,1.6-4,1.8c-3.4,0.4-6.7,0.9-10.1,1.3c-3.2,0.4-6.3,0.6-9.5,1c-1.9,0.2-3.8,0.3-5.7,0.1c-1-0.1-2-1.1-2.1-2
				c0-0.2-0.1-0.4-0.1-0.6c-0.1-1.3-0.3-2.5-0.3-3.8C70.1,43.8,70,41.5,70,38.9z M75.3,40c0.1,0.9,0.1,1.9,0.2,3
				c0.9,1.5,1.2,3.1,1.8,4.7c0.1,0.3,0.6,0.6,0.9,0.8c1,0.5,2.1,0.5,3.1,0.3c1.5-0.3,2.8-0.9,4.3-0.9c2.6-0.1,5-0.9,7.4-1.8
				c5.8-2.3,5.8-2.3,7.5-8.3c0.1-0.4,0.1-0.8,0-1.3c-0.3-1.6-2-3.3-3.5-3.3c-1.9,0-3.8-0.1-5.7,0.3c-3.8,0.7-7.5,1.3-11.3,1.9
				c-1.2,0.2-2.5,0.7-3.7,1c-0.4,0.1-1.1,1-1.1,1.5C75.3,38.5,75.3,39.2,75.3,40z"/>
			<path fill-rule="evenodd" clip-rule="evenodd" stroke="#FFFFFF" stroke-width="8" stroke-miterlimit="10" d="M409,27.7
				c-0.1-1.7-0.3-2.6-0.2-3.4c0.2-1.6-0.3-2.9-0.8-4.3c-0.3-0.8-0.7-1.5-1.1-2.3c-0.2-0.5-1.3-0.8-1.6-0.5c-2.5,2.2-5.1,4.4-7.9,6.4
				c-1.7,1.2-3.2,2.8-4.6,4.4c-1.4,1.6-2.8,3.2-4.5,4.5c-1,0.8-1.7,1.9-2.6,2.8c-0.9,0.9-1.7,2-2.7,2.6c-2.3,1.2-4.2,2.9-6.1,4.6
				c-0.6,0.5-1.8,0.2-2.1-0.6c-0.3-0.6-0.5-1.2-0.6-1.8c-0.1-0.8,0-1.7,0-2.5c0-0.6,0.3-1.3,0.2-1.9c-0.6-2.1-0.2-4.2-0.3-6.3
				c-0.1-2.5,0.1-5.1-0.3-7.6c-0.2-1.5-0.2-3,0.2-4.4c0.1-0.5,0.4-0.8,0.9-0.7c0.4,0.1,0.9,0.2,1.1,0.4c0.5,0.7,1.1,1.4,1.2,2.2
				c0.4,2.5,0.8,5,0.9,7.5c0.1,1-0.3,2.1,0.1,3.1c0.2,0.5,1.2,1,1.5,0.8c0.4-0.2,0.8-0.4,1.1-0.7c1.1-1,2.1-2.1,3.2-3.1
				c0.9-0.8,1.9-1.8,3-2.4c1.8-0.9,3.1-2.3,4.3-3.7c0.5-0.6,1.2-1.3,1.9-1.6c1.9-1,3.4-2.5,4.8-4.1c0.5-0.6,1.1-1.3,1.8-1.7
				c2.7-1.5,4.5-3.8,6.4-6.1c0.5-0.6,1.2-1.2,2-1.6c0.7-0.4,1.6-0.5,2.4-0.1c1.2,0.6,2.1,1.5,2.6,2.7c0.3,0.7,0.5,1.7,0.4,2.5
				c-0.1,2.8-0.3,5.5-0.6,8.3c-0.7,5.8-0.2,11.4,0.9,17.1c0.2,0.8,0.3,1.7,0.2,2.5c-0.1,0.6-0.9,1.6-1.6,1.8
				c-0.4,0.1-1.5-0.3-1.7-0.7c-0.3-0.6-0.7-1.1-0.8-1.7c-0.4-2.3-0.7-4.6-1.1-6.9C408.8,29.8,409,28.3,409,27.7z"/>
			<path fill-rule="evenodd" clip-rule="evenodd" stroke="#FFFFFF" stroke-width="8" stroke-miterlimit="10" d="M280.6,25.9
				c0.3-3.8,0.5-7.6,0.8-11.4c0.1-0.7,0.4-1,1.2-1.2c0.8-0.2,1.8,0.5,1.9,1.3c0.1,1.3,0.3,2.5,0.3,3.8c0,1.1-0.2,2.1-0.2,3.2
				c-0.1,2.8-0.1,5.5-0.1,8.3c0,0.6,0.1,1.3,0.2,1.9c0.1,0.9,0.6,1.6,1.3,2.1c1.3,0.9,2.7,1.3,4.2,0.9c1.2-0.3,2.4-0.8,3.6-1.3
				c0.3-0.1,0.6-0.6,0.7-1c0.2-0.4,0.3-0.8,0.3-1.2c0.4-2.5,0.8-5,1.2-7.5c0.1-0.8,0-1.7,0.1-2.5c0.1-0.9,0.6-1.5,1.5-1.9
				c1-0.4,2.3,0.4,2.2,1.4c-0.1,2.3-0.1,4.7-0.2,7c0,1.3,0.1,2.5,0.5,3.8c0.3,1,1.4,1.9,2.3,1.8c2.9-0.3,5.9-0.8,8.7-1.7
				c0.8-0.3,1.5-0.9,1.5-1.8c0.5-4.8,1-9.7,1-14.6c0-1.3,0.1-2.5,0.7-3.7c0.4-0.8,0-1.6-0.3-2.5c-0.6-1.8,0-3.3,1.1-4.7
				c0.3-0.3,0.7-0.4,1.1-0.1c0.8,0.6,1.7,1.3,2.4,2c0.3,0.3,0.5,0.8,0.4,1.2c-0.7,2.9-0.3,5.9-1.4,8.7c-0.7,1.8-0.5,3.8-1.2,5.6
				c-0.3,0.8-0.2,1.7-0.2,2.5c0.1,2.1,0.2,4.2,0.7,6.3c0.2,1.2,0.2,2.5,0.2,3.8c0,0.9-0.3,1.6-0.8,2.4c-0.5,0.8-1.1,1.3-2,1.5
				c-1,0.2-2.1,0.3-3.1,0.4c-1.3,0.1-2.6,0.1-3.8,0.4c-4.7,1.4-9.6,1.5-14.5,1.5c-1.5,0-3-0.1-4.4,0.2c-1.3,0.2-2.5-0.1-3.8-0.3
				c-2.2-0.3-3.3-1.7-3.9-3.7c-0.2-0.6-0.4-1.2-0.4-1.9C280.5,31.8,280.3,28.9,280.6,25.9z"/>
			<path fill-rule="evenodd" clip-rule="evenodd" stroke="#FFFFFF" stroke-width="8" stroke-miterlimit="10" d="M194.8,37.5
				c-0.4,2.4-0.1,5.5,0.8,8.6c0.5,1.8-0.4,3.3-2,4.3c-0.3,0.2-0.9,0.1-1-0.4c-0.6-2.7-0.8-5.4-0.7-8.2c0.1-1.5,0-2.9-0.3-4.4
				c-0.4-2.1-0.2-4.2,0.1-6.3c0.3-2.7,0.8-5.5,0.7-8.2c0-2.8,0.7-5.4,1.5-8.1c0.1-0.5,1.2-0.7,1.7-0.4c0.3,0.2,0.8,0.4,1,0.7
				c1.7,2.1,3.4,4.3,5.2,6.5c2,2.5,4.4,4.6,7.1,6.3c0.3,0.2,0.9,0.2,1.1,0c1.2-1.2,2.2-2.6,3.8-3.3c0.3-0.1,0.5-0.7,0.8-1
				c0.7-1,1.4-2.2,2.3-3.1c2-1.9,3.8-4,5.5-6.2c0.4-0.5,1.7-0.5,2.3,0.1c0.5,0.4,0.9,0.9,1.1,1.5c0,0.2,0.1,0.4,0.1,0.6
				c0.2,4.7,1.4,9.2,2.6,13.7c0.9,3.3,1.4,6.6,2.5,9.9c0.2,0.8,0.3,1.7,0.3,2.5c0,0.6-0.3,1.2-0.7,1.7c-0.6,0.6-1.9,0.4-2.2-0.2
				c-1-2.1-1.5-4.4-2.1-6.7c-0.4-1.7-1-3.2-1.8-4.8c-1.1-2.3-2.2-4.6-3.3-6.9c-0.1-0.2-0.3-0.3-0.5-0.4c-0.4-0.2-0.7-0.1-1,0.4
				c-1.8,2.9-3.5,5.8-3.9,9.3c0,0.2-0.2,0.4-0.3,0.6c-0.2,0.6-1.6,1-2.2,0.8c-1-0.4-1.9-1-2.6-1.7c-2.9-2.5-5.7-5.1-8.5-7.6
				c-1-0.9-2-1.5-3.3-1.9c-0.9-0.3-1.8,0-2.1,0.8c-0.7,1.6-1.3,3.2-1.4,4.9C195.1,32.9,195,34.8,194.8,37.5z"/>
			<path fill-rule="evenodd" clip-rule="evenodd" stroke="#FFFFFF" stroke-width="8" stroke-miterlimit="10" d="M119.7,38.2
				c0.1-3.4,0.1-6.8-0.5-10.1c0-0.2-0.1-0.4,0-0.6c0.2-1.3,0.4-2.5,0.5-3.8c0-1-0.3-2.1-0.3-3.1c0-0.6,0.3-1.2,0.5-1.8
				c0.2-0.8,1.3-1.4,2-1c0.8,0.4,1.5,0.7,2.2,1.2c0.5,0.4,1,1,0.9,1.6c-0.9,2.8-0.3,6-1.7,8.7c0,2.1-0.3,4.2,0.2,6.3
				c0.1,0.3,0.6,0.6,1,0.6c1.5,0.3,3,0,4.4-0.5c3-0.9,6.2-1.6,9.2-2.3c1.2-0.3,2.1-1.4,2.2-2.8c0.1-1.1,0.2-2.1,0.2-3.2
				c0.1-2.1,0.1-4.2,0.2-6.3c0-0.8,0.2-1.7,0.8-2.3c1.1-1.1,1.8-2.4,2.3-3.7c0.2-0.4,0.4-0.8,0.6-1.1c0.2-0.4,1.5-0.7,1.7-0.4
				c0.3,0.3,0.6,0.7,0.6,1c0,0.8,0,1.7-0.2,2.5c-0.7,2.7-1.2,5.4-1.3,8.1c-0.1,1.3-0.3,2.5-0.5,3.8c-0.7,4.6-0.5,9.3-0.5,14
				c0,0.8,0.3,1.7,0.4,2.5c0.3,1.9,0.6,3.7,0.9,5.6c0.1,0.5-0.5,1.2-1,1.4c-1.1,0.3-2.3-0.2-2.6-1.2c-0.7-2.9-1.7-5.7-1.8-8.7
				c0-0.4-0.2-0.8-0.2-1.2c-0.1-0.6-1.3-1.6-1.8-1.5c-1.3,0.1-2.5,0.2-3.8,0.5c-1.9,0.4-3.7,0.9-5.6,1c-1.3,0-2.4,0.7-3.6,1.2
				c-0.6,0.3-1,0.8-1.1,1.4c-0.3,2.1-0.1,4.2,0.5,6.3c0.2,0.7-0.4,1.6-1.3,2c-0.8,0.4-1.8,0.1-2.2-0.7c-0.2-0.4-0.4-0.7-0.5-1.1
				c-0.2-0.6-0.3-1.2-0.3-1.9C120,45,119.9,41.6,119.7,38.2z"/>
			<path fill-rule="evenodd" clip-rule="evenodd" stroke="#FFFFFF" stroke-width="8" stroke-miterlimit="10" d="M331.8,28.8
				c0-1.9-0.1-3.6,0-5.3c0.1-1.3,0.1-2.6,0.5-3.8c0.5-1.5,0.6-2.9,0.4-4.4c-0.1-1.3,0-2.6,0.9-3.6c0.7-0.9,0.5-2.1,1-3
				c0.2-0.3,0.5-0.7,0.8-0.9c1.1-0.7,2.3-1,3.6-1.1c0.2,0,0.4,0,0.6,0c1,0,2.1,1.3,1.8,2.2c-0.8,2.9-1.4,5.8-3.1,8.3
				c-0.1,0.2-0.2,0.4-0.2,0.6c0,0.4,0.1,0.8,0.3,1.2c0.2,0.5,0.6,0.6,1,0.5c1.2-0.3,2.4-0.7,3.7-1.1c1.3-0.4,2.3-1.1,3.1-2.1
				c0.4-0.5,0.8-1,1.2-1.5c0.5-0.4,0.9-0.9,1.5-1.2c3.4-1.4,6.4-3.3,9.3-5.4c0.7-0.5,1.5-0.9,2.3-1.1c0.3-0.1,0.8,0,1.2,0.2
				c0.5,0.2,0.6,0.6,0.5,1.1c-0.1,0.6-0.2,1.3-0.6,1.7c-0.4,0.4-0.9,0.9-1.4,1.3c-0.7,0.5-1.4,0.9-2.2,1.3c-4,1.7-7,4.7-10.3,7.4
				c-0.5,0.4-0.7,1.7-0.5,2.4c0.8,2.2,1.9,4.3,3.3,6.2c2.5,3.4,4.6,7.1,7.5,10.3c0.4,0.5,0.3,1.1-0.4,1.6c-0.7,0.6-1.2,0.7-1.7,0.3
				c-0.5-0.3-1.2-0.6-1.6-1.1c-2.4-2.7-4.7-5.5-7-8.2c-1.1-2.4-3.2-3.9-4.9-5.8c-0.4-0.4-1.3-0.4-1.7,0c-0.9,0.8-1.9,1.7-2.9,2.5
				c-1.9,1.7-2.5,3.9-2.4,6.3c0,1.1,0.3,2.1,0.7,3.1c0.2,0.3,0.1,0.8,0.1,1.2c0,0.2-0.3,0.3-0.4,0.4c-1.4,0.8-3.3,0.1-3.6-1.3
				c-0.4-2.5-1-5-0.5-7.6C331.8,29.9,331.8,29.2,331.8,28.8z"/>
			<path fill-rule="evenodd" clip-rule="evenodd" stroke="#FFFFFF" stroke-width="8" stroke-miterlimit="10" d="M181.2,31.9
				c-0.6,3.5,0.2,6.4,0.3,9.4c0,0.6,0.3,1.2,0.5,1.8c0.4,1.2,0.9,2.4,1.3,3.6c0.1,0.2-0.1,0.4-0.2,0.6c-0.5,0.7-1.6,1.2-2.2,1
				c-0.6-0.2-1-0.7-1.3-1.3c-0.2-0.6-0.6-1.2-0.6-1.8c-0.4-3.6-1.5-7-1.5-10.7c0-0.3-0.4-0.7-0.7-0.9c-0.4-0.2-0.8,0-1.2,0.3
				c-3.1,3.2-6.5,6-9.1,9.7c-1.4,2.1-3.3,3.9-5.2,5.6c-1.1,1-2.4,1.8-3.9,1.9c-0.3,0-0.9-0.3-1-0.6c-1-1.9-1.5-4-1.6-6.1
				c-0.1-2.5-0.2-5.1-0.2-7.6c-0.1-2.8,0.1-5.6-0.9-8.2c-0.6-1.7,0.1-2.9,1-4.1c0.2-0.3,0.7-0.4,1.1-0.5c0.5-0.1,1.2,0.6,1.2,1.2
				c0,0.2,0.1,0.4,0.1,0.6c0,4.3,0.8,8.4,1.5,12.6c0.1,0.5,1,1,1.4,0.8c0.2-0.1,0.4-0.1,0.6-0.2c1.3-0.6,2.7-1.3,4-1.9
				c1.1-0.6,2.2-1.3,3.1-2.2c1.3-1.4,2.7-2.7,4.3-3.8c1.3-0.8,2.2-2,2.8-3.4c0.7-1.4,1.9-2.2,3.3-2.8c1.2-0.5,2.9,0.5,2.9,1.6
				C181.2,28.6,181.2,30.5,181.2,31.9z"/>
			<path fill-rule="evenodd" clip-rule="evenodd" stroke="#FFFFFF" stroke-width="8" stroke-miterlimit="10" d="M244,36.7
				c0,0.5,0,1.8,0.3,3c0.5,2.2,0.1,4.2-0.7,6.2c-0.2,0.4-0.6,0.6-1,0.6c-1.2,0-2.2-0.7-2.2-1.8c0-2.7-0.4-5.5-0.2-8.2
				c0.1-1.7,0.2-3.4,0.6-5c0.2-0.8,0.4-1.7,0.2-2.5c-0.3-1.6,0-2.9,0.9-4.2c0.5-0.7,0.5-1.6,0.3-2.5c-0.6-2.1-0.3-4.2,0.1-6.3
				c0.1-0.6,0.7-1,1.3-1.2c1.3-0.4,2.5-0.4,3.8,0c2.8,1,5.5,2.2,8.1,3.8c1.3,0.8,2.4,1.8,3.4,2.8c1.8,1.8,3.4,3.8,5.4,5.4
				c0.6,0.5,1.2,1.3,1.5,2c0.7,2.1,2.3,3.5,3.4,5.3c1,1.6,2,3.3,3.3,4.7c0.4,0.5,0.5,1.2,0.2,1.8c-0.3,0.8-2.2,1-2.8,0.4
				c-0.3-0.3-0.7-0.5-0.9-0.9c-0.7-1.1-1.3-2.2-2-3.3c-0.6-0.9-1.1-1.8-1.8-2.6c-2.6-2.9-2.7-3.3-7.1-3c-3.8,0.3-7.5,1.1-11.3,1.7
				c-0.2,0-0.4,0.1-0.6,0.2C245,33.5,244.1,34.6,244,36.7z M251.8,28.3C251.8,28.3,251.8,28.3,251.8,28.3c1.6-0.4,3.3-0.7,4.9-1.2
				c0.4-0.1,0.8-0.3,1.1-0.5c0.5-0.2,0.7-1.2,0.4-1.6c-2.4-2.4-4.9-4.6-8-6.1c-0.4-0.2-0.8-0.3-1.2-0.4c-0.5-0.2-1.3,0.2-1.6,0.8
				c-1.3,2.9-2.1,5.9-2.4,9.1c0,0.6,0.6,1.3,1.1,1.2C248.1,29.2,250,28.7,251.8,28.3z"/>
		</g>
		<g>
			<path fill-rule="evenodd" clip-rule="evenodd" d="M28.2,64.4c0.6,0,0.1,0-0.3,0c-3.7,0.4-7.2-0.3-10.6-1.4
				c-1.2-0.4-2.4-0.9-3.5-1.5c-1.3-0.7-2.5-1.7-3.8-2.4c-2.4-1.3-3.7-3.4-4.7-5.8c-0.7-1.8-1.2-3.6-1.3-5.5c0-0.6-0.1-1.3,0-1.9
				c0.3-2.1,0.6-4.2,1.2-6.2c1.2-4,2.7-8,4.7-11.8c0.3-0.6,0.7-1.1,1.1-1.5c0.8-0.7,1.7-1.3,2.4-2.1c2.7-3.2,6.3-5,9.9-6.8
				c2.1-1.1,4.4-1.6,6.7-1.9c1.9-0.2,3.9,0,5.6,0.9c2.7,1.3,5.4,2.5,8.1,3.6c1.2,0.5,2.3,1.1,3.2,2c2,1.9,4,3.7,6,5.7
				c0.6,0.6,1,1.4,1.4,2.1c0.5,0.9,0.9,1.9,1.7,2.7c1.4,1.2,1.8,2.8,2.3,4.4c0.4,1.2,0.5,2.5,0.2,3.8c-0.9,4.6-2.3,9-4.6,13.1
				c-0.6,1.1-1.4,2.1-2.4,2.9c-2.7,2.4-5.9,4.1-9.3,5.4c-3.2,1.2-6.5,2-9.9,2C31.3,64.2,30.2,64.3,28.2,64.4z M54.3,43.3
				c0-0.3,0-0.8,0-1.2c-0.1-6.5,0.5-4.8-3.4-9.7c-0.8-1-1.6-1.9-2-3.2c-0.2-0.6-0.5-1.2-1-1.6C45,25,42,22.6,38.2,21.6
				c-1.2-0.3-2.4-0.9-3.6-1.3c-1-0.4-2.1-0.5-3.1-0.6c-1.9-0.2-3.8,0.2-5.6,0.8c-1.2,0.4-2.4,0.9-3.3,1.9c-1.6,1.7-3.3,3.4-4.7,5.1
				c-1.8,2.1-3.1,4.7-3.7,7.3c-0.9,3.7-1.5,7.5-0.6,11.3c0.3,1.2,0.3,2.5,0.4,3.8c0.1,0.6,0.3,1.3,0.5,1.8c1.1,2.6,2.5,4.9,5,6.4
				c0.4,0.2,0.7,0.5,1,0.8c1.1,0.8,2.2,1.2,3.5,1.3c0.6,0,1.3,0.1,1.9,0.1c5.8,0,11.4-1.1,16.9-2.8c1.2-0.4,2.2-1.2,3.3-1.9
				c0.5-0.3,0.9-0.9,1.4-1.3c1.5-1.4,3.4-2.6,4.4-4.5c0.8-1.5,1.2-3.2,1.7-4.8C53.8,44.5,54,43.9,54.3,43.3z"/>
			<path fill-rule="evenodd" clip-rule="evenodd" d="M70,38.9c0.2-3.1,0.4-6.5,0.7-9.9c0.1-1,0.3-2.1,0.6-3.1c0.3-1,0.5-2.1,0.3-3.1
				c-0.3-2.1,0.8-3.7,2-5.2c0.5-0.7,1.3-1.2,2.1-1.4c2.3-0.6,4.5-1.4,6.8-1.5c3-0.1,5.9-1,8.7-1.7c0.4-0.1,0.8-0.3,1.2-0.4
				c1.6-0.4,3.4-0.7,4.9-1.4c1.5-0.7,2.9-1.8,4.3-2.7c1-0.6,2.7,0.3,2.9,1.5c0,0.2,0.1,0.4,0.1,0.6c-0.1,1.7-0.4,3.4-1.1,4.9
				c-0.1,0.3-0.6,0.8-0.9,0.8c-3.6-0.1-7.2,0.3-10.8,0.8c-0.6,0.1-1.3,0.1-1.9,0c-1.5-0.2-2.9,0-4.4,0.4c-1.7,0.4-3.4,0.5-5,0.8
				c-0.6,0.1-1.2,0.3-1.8,0.6c-0.8,0.3-1.5,0.9-1.8,1.7c-1.2,3.4-1.8,7-1.4,10.6c0,0.3,0.6,0.8,0.9,0.8c1.5,0,3,0.1,4.4-0.1
				c3.5-0.7,7.1-0.9,10.6-2c2.9-0.8,5.9-0.5,8.8-0.1c1.3,0.2,2.5,0.5,3.6,1.1c4.2,2,4.6,2.5,5.2,7.1c0.1,0.9-0.1,1.7-0.5,2.5
				c-0.2,0.4-0.4,0.8-0.6,1.1c-1.6,2.5-3.7,4.7-6,6.6c-1.2,0.9-2.5,1.6-4,1.8c-3.4,0.4-6.7,0.9-10.1,1.3c-3.2,0.4-6.3,0.6-9.5,1
				c-1.9,0.2-3.8,0.3-5.7,0.1c-1-0.1-2-1.1-2.1-2c0-0.2-0.1-0.4-0.1-0.6c-0.1-1.3-0.3-2.5-0.3-3.8C70.1,43.8,70,41.5,70,38.9z
				 M75.3,40c0.1,0.9,0.1,1.9,0.2,3c0.9,1.5,1.2,3.1,1.8,4.7c0.1,0.3,0.6,0.6,0.9,0.8c1,0.5,2.1,0.5,3.1,0.3
				c1.5-0.3,2.8-0.9,4.3-0.9c2.6-0.1,5-0.9,7.4-1.8c5.8-2.3,5.8-2.3,7.5-8.3c0.1-0.4,0.1-0.8,0-1.3c-0.3-1.6-2-3.3-3.5-3.3
				c-1.9,0-3.8-0.1-5.7,0.3c-3.8,0.7-7.5,1.3-11.3,1.9c-1.2,0.2-2.5,0.7-3.7,1c-0.4,0.1-1.1,1-1.1,1.5C75.3,38.5,75.3,39.2,75.3,40z
				"/>
			<path fill-rule="evenodd" clip-rule="evenodd" d="M409,27.7c-0.1-1.7-0.3-2.6-0.2-3.4c0.2-1.6-0.3-2.9-0.8-4.3
				c-0.3-0.8-0.7-1.5-1.1-2.3c-0.2-0.5-1.3-0.8-1.6-0.5c-2.5,2.2-5.1,4.4-7.9,6.4c-1.7,1.2-3.2,2.8-4.6,4.4
				c-1.4,1.6-2.8,3.2-4.5,4.5c-1,0.8-1.7,1.9-2.6,2.8c-0.9,0.9-1.7,2-2.7,2.6c-2.3,1.2-4.2,2.9-6.1,4.6c-0.6,0.5-1.8,0.2-2.1-0.6
				c-0.3-0.6-0.5-1.2-0.6-1.8c-0.1-0.8,0-1.7,0-2.5c0-0.6,0.3-1.3,0.2-1.9c-0.6-2.1-0.2-4.2-0.3-6.3c-0.1-2.5,0.1-5.1-0.3-7.6
				c-0.2-1.5-0.2-3,0.2-4.4c0.1-0.5,0.4-0.8,0.9-0.7c0.4,0.1,0.9,0.2,1.1,0.4c0.5,0.7,1.1,1.4,1.2,2.2c0.4,2.5,0.8,5,0.9,7.5
				c0.1,1-0.3,2.1,0.1,3.1c0.2,0.5,1.2,1,1.5,0.8c0.4-0.2,0.8-0.4,1.1-0.7c1.1-1,2.1-2.1,3.2-3.1c0.9-0.8,1.9-1.8,3-2.4
				c1.8-0.9,3.1-2.3,4.3-3.7c0.5-0.6,1.2-1.3,1.9-1.6c1.9-1,3.4-2.5,4.8-4.1c0.5-0.6,1.1-1.3,1.8-1.7c2.7-1.5,4.5-3.8,6.4-6.1
				c0.5-0.6,1.2-1.2,2-1.6c0.7-0.4,1.6-0.5,2.4-0.1c1.2,0.6,2.1,1.5,2.6,2.7c0.3,0.7,0.5,1.7,0.4,2.5c-0.1,2.8-0.3,5.5-0.6,8.3
				c-0.7,5.8-0.2,11.4,0.9,17.1c0.2,0.8,0.3,1.7,0.2,2.5c-0.1,0.6-0.9,1.6-1.6,1.8c-0.4,0.1-1.5-0.3-1.7-0.7
				c-0.3-0.6-0.7-1.1-0.8-1.7c-0.4-2.3-0.7-4.6-1.1-6.9C408.8,29.8,409,28.3,409,27.7z"/>
			<path fill-rule="evenodd" clip-rule="evenodd" d="M280.6,25.9c0.3-3.8,0.5-7.6,0.8-11.4c0.1-0.7,0.4-1,1.2-1.2
				c0.8-0.2,1.8,0.5,1.9,1.3c0.1,1.3,0.3,2.5,0.3,3.8c0,1.1-0.2,2.1-0.2,3.2c-0.1,2.8-0.1,5.5-0.1,8.3c0,0.6,0.1,1.3,0.2,1.9
				c0.1,0.9,0.6,1.6,1.3,2.1c1.3,0.9,2.7,1.3,4.2,0.9c1.2-0.3,2.4-0.8,3.6-1.3c0.3-0.1,0.6-0.6,0.7-1c0.2-0.4,0.3-0.8,0.3-1.2
				c0.4-2.5,0.8-5,1.2-7.5c0.1-0.8,0-1.7,0.1-2.5c0.1-0.9,0.6-1.5,1.5-1.9c1-0.4,2.3,0.4,2.2,1.4c-0.1,2.3-0.1,4.7-0.2,7
				c0,1.3,0.1,2.5,0.5,3.8c0.3,1,1.4,1.9,2.3,1.8c2.9-0.3,5.9-0.8,8.7-1.7c0.8-0.3,1.5-0.9,1.5-1.8c0.5-4.8,1-9.7,1-14.6
				c0-1.3,0.1-2.5,0.7-3.7c0.4-0.8,0-1.6-0.3-2.5c-0.6-1.8,0-3.3,1.1-4.7c0.3-0.3,0.7-0.4,1.1-0.1c0.8,0.6,1.7,1.3,2.4,2
				c0.3,0.3,0.5,0.8,0.4,1.2c-0.7,2.9-0.3,5.9-1.4,8.7c-0.7,1.8-0.5,3.8-1.2,5.6c-0.3,0.8-0.2,1.7-0.2,2.5c0.1,2.1,0.2,4.2,0.7,6.3
				c0.2,1.2,0.2,2.5,0.2,3.8c0,0.9-0.3,1.6-0.8,2.4c-0.5,0.8-1.1,1.3-2,1.5c-1,0.2-2.1,0.3-3.1,0.4c-1.3,0.1-2.6,0.1-3.8,0.4
				c-4.7,1.4-9.6,1.5-14.5,1.5c-1.5,0-3-0.1-4.4,0.2c-1.3,0.2-2.5-0.1-3.8-0.3c-2.2-0.3-3.3-1.7-3.9-3.7c-0.2-0.6-0.4-1.2-0.4-1.9
				C280.5,31.8,280.3,28.9,280.6,25.9z"/>
			<path fill-rule="evenodd" clip-rule="evenodd" d="M194.8,37.5c-0.4,2.4-0.1,5.5,0.8,8.6c0.5,1.8-0.4,3.3-2,4.3
				c-0.3,0.2-0.9,0.1-1-0.4c-0.6-2.7-0.8-5.4-0.7-8.2c0.1-1.5,0-2.9-0.3-4.4c-0.4-2.1-0.2-4.2,0.1-6.3c0.3-2.7,0.8-5.5,0.7-8.2
				c0-2.8,0.7-5.4,1.5-8.1c0.1-0.5,1.2-0.7,1.7-0.4c0.3,0.2,0.8,0.4,1,0.7c1.7,2.1,3.4,4.3,5.2,6.5c2,2.5,4.4,4.6,7.1,6.3
				c0.3,0.2,0.9,0.2,1.1,0c1.2-1.2,2.2-2.6,3.8-3.3c0.3-0.1,0.5-0.7,0.8-1c0.7-1,1.4-2.2,2.3-3.1c2-1.9,3.8-4,5.5-6.2
				c0.4-0.5,1.7-0.5,2.3,0.1c0.5,0.4,0.9,0.9,1.1,1.5c0,0.2,0.1,0.4,0.1,0.6c0.2,4.7,1.4,9.2,2.6,13.7c0.9,3.3,1.4,6.6,2.5,9.9
				c0.2,0.8,0.3,1.7,0.3,2.5c0,0.6-0.3,1.2-0.7,1.7c-0.6,0.6-1.9,0.4-2.2-0.2c-1-2.1-1.5-4.4-2.1-6.7c-0.4-1.7-1-3.2-1.8-4.8
				c-1.1-2.3-2.2-4.6-3.3-6.9c-0.1-0.2-0.3-0.3-0.5-0.4c-0.4-0.2-0.7-0.1-1,0.4c-1.8,2.9-3.5,5.8-3.9,9.3c0,0.2-0.2,0.4-0.3,0.6
				c-0.2,0.6-1.6,1-2.2,0.8c-1-0.4-1.9-1-2.6-1.7c-2.9-2.5-5.7-5.1-8.5-7.6c-1-0.9-2-1.5-3.3-1.9c-0.9-0.3-1.8,0-2.1,0.8
				c-0.7,1.6-1.3,3.2-1.4,4.9C195.1,32.9,195,34.8,194.8,37.5z"/>
			<path fill-rule="evenodd" clip-rule="evenodd" d="M119.7,38.2c0.1-3.4,0.1-6.8-0.5-10.1c0-0.2-0.1-0.4,0-0.6
				c0.2-1.3,0.4-2.5,0.5-3.8c0-1-0.3-2.1-0.3-3.1c0-0.6,0.3-1.2,0.5-1.8c0.2-0.8,1.3-1.4,2-1c0.8,0.4,1.5,0.7,2.2,1.2
				c0.5,0.4,1,1,0.9,1.6c-0.9,2.8-0.3,6-1.7,8.7c0,2.1-0.3,4.2,0.2,6.3c0.1,0.3,0.6,0.6,1,0.6c1.5,0.3,3,0,4.4-0.5
				c3-0.9,6.2-1.6,9.2-2.3c1.2-0.3,2.1-1.4,2.2-2.8c0.1-1.1,0.2-2.1,0.2-3.2c0.1-2.1,0.1-4.2,0.2-6.3c0-0.8,0.2-1.7,0.8-2.3
				c1.1-1.1,1.8-2.4,2.3-3.7c0.2-0.4,0.4-0.8,0.6-1.1c0.2-0.4,1.5-0.7,1.7-0.4c0.3,0.3,0.6,0.7,0.6,1c0,0.8,0,1.7-0.2,2.5
				c-0.7,2.7-1.2,5.4-1.3,8.1c-0.1,1.3-0.3,2.5-0.5,3.8c-0.7,4.6-0.5,9.3-0.5,14c0,0.8,0.3,1.7,0.4,2.5c0.3,1.9,0.6,3.7,0.9,5.6
				c0.1,0.5-0.5,1.2-1,1.4c-1.1,0.3-2.3-0.2-2.6-1.2c-0.7-2.9-1.7-5.7-1.8-8.7c0-0.4-0.2-0.8-0.2-1.2c-0.1-0.6-1.3-1.6-1.8-1.5
				c-1.3,0.1-2.5,0.2-3.8,0.5c-1.9,0.4-3.7,0.9-5.6,1c-1.3,0-2.4,0.7-3.6,1.2c-0.6,0.3-1,0.8-1.1,1.4c-0.3,2.1-0.1,4.2,0.5,6.3
				c0.2,0.7-0.4,1.6-1.3,2c-0.8,0.4-1.8,0.1-2.2-0.7c-0.2-0.4-0.4-0.7-0.5-1.1c-0.2-0.6-0.3-1.2-0.3-1.9
				C120,45,119.9,41.6,119.7,38.2z"/>
			<path fill-rule="evenodd" clip-rule="evenodd" d="M331.8,28.8c0-1.9-0.1-3.6,0-5.3c0.1-1.3,0.1-2.6,0.5-3.8
				c0.5-1.5,0.6-2.9,0.4-4.4c-0.1-1.3,0-2.6,0.9-3.6c0.7-0.9,0.5-2.1,1-3c0.2-0.3,0.5-0.7,0.8-0.9c1.1-0.7,2.3-1,3.6-1.1
				c0.2,0,0.4,0,0.6,0c1,0,2.1,1.3,1.8,2.2c-0.8,2.9-1.4,5.8-3.1,8.3c-0.1,0.2-0.2,0.4-0.2,0.6c0,0.4,0.1,0.8,0.3,1.2
				c0.2,0.5,0.6,0.6,1,0.5c1.2-0.3,2.4-0.7,3.7-1.1c1.3-0.4,2.3-1.1,3.1-2.1c0.4-0.5,0.8-1,1.2-1.5c0.5-0.4,0.9-0.9,1.5-1.2
				c3.4-1.4,6.4-3.3,9.3-5.4c0.7-0.5,1.5-0.9,2.3-1.1c0.3-0.1,0.8,0,1.2,0.2c0.5,0.2,0.6,0.6,0.5,1.1c-0.1,0.6-0.2,1.3-0.6,1.7
				c-0.4,0.4-0.9,0.9-1.4,1.3c-0.7,0.5-1.4,0.9-2.2,1.3c-4,1.7-7,4.7-10.3,7.4c-0.5,0.4-0.7,1.7-0.5,2.4c0.8,2.2,1.9,4.3,3.3,6.2
				c2.5,3.4,4.6,7.1,7.5,10.3c0.4,0.5,0.3,1.1-0.4,1.6c-0.7,0.6-1.2,0.7-1.7,0.3c-0.5-0.3-1.2-0.6-1.6-1.1c-2.4-2.7-4.7-5.5-7-8.2
				c-1.1-2.4-3.2-3.9-4.9-5.8c-0.4-0.4-1.3-0.4-1.7,0c-0.9,0.8-1.9,1.7-2.9,2.5c-1.9,1.7-2.5,3.9-2.4,6.3c0,1.1,0.3,2.1,0.7,3.1
				c0.2,0.3,0.1,0.8,0.1,1.2c0,0.2-0.3,0.3-0.4,0.4c-1.4,0.8-3.3,0.1-3.6-1.3c-0.4-2.5-1-5-0.5-7.6
				C331.8,29.9,331.8,29.2,331.8,28.8z"/>
			<path fill-rule="evenodd" clip-rule="evenodd" d="M181.2,31.9c-0.6,3.5,0.2,6.4,0.3,9.4c0,0.6,0.3,1.2,0.5,1.8
				c0.4,1.2,0.9,2.4,1.3,3.6c0.1,0.2-0.1,0.4-0.2,0.6c-0.5,0.7-1.6,1.2-2.2,1c-0.6-0.2-1-0.7-1.3-1.3c-0.2-0.6-0.6-1.2-0.6-1.8
				c-0.4-3.6-1.5-7-1.5-10.7c0-0.3-0.4-0.7-0.7-0.9c-0.4-0.2-0.8,0-1.2,0.3c-3.1,3.2-6.5,6-9.1,9.7c-1.4,2.1-3.3,3.9-5.2,5.6
				c-1.1,1-2.4,1.8-3.9,1.9c-0.3,0-0.9-0.3-1-0.6c-1-1.9-1.5-4-1.6-6.1c-0.1-2.5-0.2-5.1-0.2-7.6c-0.1-2.8,0.1-5.6-0.9-8.2
				c-0.6-1.7,0.1-2.9,1-4.1c0.2-0.3,0.7-0.4,1.1-0.5c0.5-0.1,1.2,0.6,1.2,1.2c0,0.2,0.1,0.4,0.1,0.6c0,4.3,0.8,8.4,1.5,12.6
				c0.1,0.5,1,1,1.4,0.8c0.2-0.1,0.4-0.1,0.6-0.2c1.3-0.6,2.7-1.3,4-1.9c1.1-0.6,2.2-1.3,3.1-2.2c1.3-1.4,2.7-2.7,4.3-3.8
				c1.3-0.8,2.2-2,2.8-3.4c0.7-1.4,1.9-2.2,3.3-2.8c1.2-0.5,2.9,0.5,2.9,1.6C181.2,28.6,181.2,30.5,181.2,31.9z"/>
			<path fill-rule="evenodd" clip-rule="evenodd" d="M244,36.7c0,0.5,0,1.8,0.3,3c0.5,2.2,0.1,4.2-0.7,6.2c-0.2,0.4-0.6,0.6-1,0.6
				c-1.2,0-2.2-0.7-2.2-1.8c0-2.7-0.4-5.5-0.2-8.2c0.1-1.7,0.2-3.4,0.6-5c0.2-0.8,0.4-1.7,0.2-2.5c-0.3-1.6,0-2.9,0.9-4.2
				c0.5-0.7,0.5-1.6,0.3-2.5c-0.6-2.1-0.3-4.2,0.1-6.3c0.1-0.6,0.7-1,1.3-1.2c1.3-0.4,2.5-0.4,3.8,0c2.8,1,5.5,2.2,8.1,3.8
				c1.3,0.8,2.4,1.8,3.4,2.8c1.8,1.8,3.4,3.8,5.4,5.4c0.6,0.5,1.2,1.3,1.5,2c0.7,2.1,2.3,3.5,3.4,5.3c1,1.6,2,3.3,3.3,4.7
				c0.4,0.5,0.5,1.2,0.2,1.8c-0.3,0.8-2.2,1-2.8,0.4c-0.3-0.3-0.7-0.5-0.9-0.9c-0.7-1.1-1.3-2.2-2-3.3c-0.6-0.9-1.1-1.8-1.8-2.6
				c-2.6-2.9-2.7-3.3-7.1-3c-3.8,0.3-7.5,1.1-11.3,1.7c-0.2,0-0.4,0.1-0.6,0.2C245,33.5,244.1,34.6,244,36.7z M251.8,28.3
				C251.8,28.3,251.8,28.3,251.8,28.3c1.6-0.4,3.3-0.7,4.9-1.2c0.4-0.1,0.8-0.3,1.1-0.5c0.5-0.2,0.7-1.2,0.4-1.6
				c-2.4-2.4-4.9-4.6-8-6.1c-0.4-0.2-0.8-0.3-1.2-0.4c-0.5-0.2-1.3,0.2-1.6,0.8c-1.3,2.9-2.1,5.9-2.4,9.1c0,0.6,0.6,1.3,1.1,1.2
				C248.1,29.2,250,28.7,251.8,28.3z"/>
		</g>
	</g>
	<path fill-rule="evenodd" clip-rule="evenodd" fill="#FFFFFF" d="M55.1,313.7c-0.9-0.3-1.7-0.3-2.4,0.4c-1.5,1.5-2.9,3.1-4.3,4.7
		c-1,1.1-3.4,1.4-4.7,0.6c-0.5-0.3-1.1-0.7-1.6-1.1c-1.3-1.1-2.5-2.4-3.9-3.3c-2.2-1.5-3.5-3.6-4.9-5.7c-1.2-1.8-1.9-3.8-3.1-5.5
		c-1.2-1.7-2-3.7-2.1-5.9c-0.1-1.1-0.3-2.1-0.5-3.1c-0.2-0.8-0.1-1.7,0-2.5c0.6-3.3,1.2-6.7,1.7-10c0.4-2.7,1.2-5.4,2.2-8
		c0.8-2,1.5-4,2-6c0.9-3.5,2.5-6.7,4-10c0.3-0.8,1-1.4,1.4-2.1c0.6-0.9,1.2-1.7,1.7-2.7c0.5-1,1-1.8,1.8-2.6
		c0.9-0.9,1.7-1.9,2.5-2.9c1.5-1.8,2-1.9,4.4-1c0.8,0.3,1.6,0.6,2.2,1.2c0.5,0.4,0.9,0.9,1.4,1.3c1.9,1.7,4,3.1,6.5,4
		c2.6,1,4.9,2.4,7.3,3.9c4.8,3.2,9.6,6.3,14.8,8.6c0.8,0.3,1.6,0.5,2.4,0.8c0.6,0.2,1.2-0.4,1.3-1.1c0.1-0.6,0.1-1.3-0.4-1.8
		c-0.4-0.5-0.9-0.9-1.4-1.3c-2-1.6-3.5-3.7-4.4-6.1c-0.4-1.2-0.9-2.4-1.4-3.5c-0.6-1.4-1.2-2.7-2-4c-1.8-3.2-3.1-6.5-4-10
		c-0.2-0.8-0.5-1.6-0.8-2.4c-1.1-3.3-1.2-6.7-0.6-10.1c0.1-0.9,0.5-1.6,1.1-2.2c1.3-1.4,2.7-2.7,4.1-4c0.3-0.3,0.7-0.5,1.1-0.7
		c3.1-1.4,6.2-2.8,9.4-3.8c2.1-0.6,4.2-0.4,6.2,0.4c0.9,0.4,1.7,1.5,1.6,2.5c-0.2,2.3-0.4,4.6-0.5,7c0,0.3,0.3,0.7,0.6,1
		c0.3,0.2,1.3-0.5,1.4-1c0-0.2,0.1-0.4,0.2-0.6c0.5-2.5,1-5,1.4-7.5c0.2-1.3,0.6-2.5,1-3.7c1.7-5.8,5.3-10.6,8.5-15.6
		c2-2.2,3.9-4.5,6.1-6.5c2.1-1.8,4.1-3.7,6.2-5.5c2.1-1.8,4.7-2.9,6.9-4.5c1.2-0.9,2.5-1.6,3.7-2.5c1.8-1.2,3.5-2.3,5.6-3.1
		c1.4-0.5,2.7-1.2,4-1.9c3.7-1.7,7.4-3,11.5-3.6c3.8-0.5,7.5-1.2,11.3-1.8c2.3-0.4,4.6-0.4,7,0c1.7,0.3,3.4,0.6,5,0.8
		c2.1,0.3,4.1,1.1,6.1,1.9c0.4,0.2,0.8,0.3,1.1,0.6c2.8,2.2,5.8,4.3,8.2,7.1c0.1,0.2,0.3,0.3,0.3,0.5c0.1,0.4,0.4,0.8,0.3,1.2
		c-0.2,1.3-0.6,2.5-0.8,3.7c-0.2,1.3-0.8,2.4-1.7,3.3c-0.7,0.8-1.4,1.6-2,2.5c-0.2,0.3-0.1,0.8,0,1.2c0,0.5,1,0.6,1.6,0.2
		c0.3-0.2,0.7-0.4,1.1-0.7c0.6-0.5,1.3-1.1,1.9-1.7c0.8-0.7,1.5-1.5,2.3-2.2c2.2-1.9,4.4-4,7.3-5c1-0.8,2.2-1.4,3-2.4
		c0.7-0.8,1.3-1.6,2.2-2.2c4-2.8,5.4-3.6,9.4-5.3c1.2-0.5,2.4-1,3.5-1.4c3.3-1.4,6.8-2.5,10.4-2.9c1.7-0.2,3.4-0.6,5-0.7
		c1.5-0.2,3-0.3,4.4-0.3c7,0,14,0,21,0c1.1,0,2.1-0.1,3.2,0.1c3.8,0.6,7.5,1.2,11.3,1.8c0.8,0.1,1.7,0.4,2.5,0.5c2.6,0.2,5,1,7.3,2
		c3.9,1.6,8,2.7,11.9,4.4c1.4,0.6,2.7,1.3,3.6,2.5c1.3,1.7,3.1,3,5,3.9c2.9,1.4,5.6,3,8.4,4.6c1.9,1.1,3.5,2.3,4.9,4
		c1,1.1,2,2.2,3.2,3c0.9,0.6,1.7,1.3,2.3,2.2c1.8,2.4,3.9,4.5,5.2,7.2c1,2.1,2.7,3.8,3.9,5.8c1.1,2,2.5,4,3.9,5.8
		c0.8,1,1.5,2.1,2.1,3.2c3,5.9,5.1,12.1,6,18.7c0.2,1.7,0.7,3.3,1,5c0.4,1.9,1,3.7,0.6,5.7c-0.1,0.6,0.1,1.3,0.2,1.9
		c0.3,2.3,0.2,4.7-0.3,7c-0.3,1.4-0.3,3-0.7,4.4c-0.3,1.2-1.1,2.3-1.6,3.4c-1.3,2.9-2.5,5.8-3.8,8.8c-2.8,3.7-5.6,7.5-8.4,11.2
		c-0.3,0.3-0.5,0.7-0.9,0.9c-2.6,1.9-5,4-7.8,5.4c-3.4,1.7-6.8,3.4-9.9,5.7c-1.4,1-2.9,1.8-4.6,2.2c-2.7,0.7-5.1,2-7.4,3.5
		c-2.5,1.6-5.3,2.7-8.4,2.8c-1.6,0.1-2.8,0.8-3.8,2c-0.1,0.2-0.3,0.3-0.5,0.4c-0.7,0.7-0.5,1.7,0.4,2c3.4,1.1,6.9,2.1,10.6,2.1
		c6,0.1,11.9-0.2,17.8-1.2c1.1-0.2,2.1-0.4,3.1-0.9c2.8-1.2,5.7-1.8,8.6-2.2c1.5-0.2,2.9-0.4,4.4-0.5c4.5-0.3,8.7-1.7,12.7-3.7
		c1.7-0.9,3.5-1.5,5.4-1.9c2.5-0.5,4.8-1.8,7-3c1-0.6,2.4,0,2.5,1c0.5,3.4,1,6.7,0.8,10.1c-0.1,3-0.3,5.9-0.6,8.9
		c-0.1,1-0.4,2.1-0.7,3.1c-1.2,3.9-3,7.5-5.4,10.8c-1.3,1.7-2.5,3.4-3.8,5.1c-1.2,1.5-2.5,2.9-4.1,4c-0.7,0.5-1.2,1.2-1.5,2
		c-1,2.7-3.1,4.6-5.3,6.2c-2.8,1.9-5.7,3.8-8.6,5.4c-2.2,1.2-4.7,2-7.1,2.8c-2,0.7-4.1,0.9-6.3,0.9c-0.8,0-1.7-0.1-2.5-0.3
		c-0.6-0.1-1.2-0.5-1.6-0.9c-0.8-0.9-1.5-2-2.3-3c-0.2-0.2-0.7,0-1.1,0.1c-0.1,0-0.3,0.3-0.3,0.5c0.3,1.7,0.9,3.2,1.5,4.8
		c0.3,0.8,0.5,1.6,0.5,2.5c0.1,1.9,0,3.8,0.1,5.7c0,1.3,0,2.6,0.3,3.8c0.5,2.3,0.5,4.6,0.2,7c-0.3,1.9-0.3,3.8-0.3,5.7
		c0.1,4.5-1,8.8-2.4,13.1c-0.3,0.8-0.7,1.6-1.1,2.3c-1,1.6-1.9,3.3-2.6,5.1c-0.3,0.8-0.8,1.6-1.3,2.1c-1.4,1.4-2.3,3-3.2,4.7
		c-1.2,2.3-2.9,4.2-4.8,5.9c-0.8,0.7-1.6,1.4-2.5,2c-0.9,0.6-1.7,1.3-2.2,2.2c-1.2,2.1-3,3.6-4.9,4.9c-2.2,1.6-4.5,3.2-6.8,4.7
		c-0.9,0.6-1.9,0.9-2.9,1.3c-0.6,0.2-1.3,0.4-1.7,0.8c-2.7,2.4-6.4,3.4-9,6c-0.6,0.6-1.4,0.9-2.3,1.1c-1.2,0.3-2.5,0.5-3.7,0.9
		c-2,0.7-3.9,1.6-6.1,1.8c-0.8,0.1-1.6,0.5-2.4,0.8c-3.6,1.4-7.4,2-11.2,1.9c-1.7-0.1-3.4,0.1-5,0.5c-1,0.3-2.1,0.2-3.2,0.4
		c-2.5,0.5-5,0.7-7.5-0.2c-1-0.4-2-0.5-3.1-0.3c-2.8,0.4-5.5-0.2-8.2-0.3c-2.5,0-5-0.7-7.6-1.1c-0.2,0-0.4-0.1-0.6-0.2
		c-0.8-0.3-1.7-0.3-2.5-0.1c-1.5,0.5-2.9,0.4-4.4,0.2c-6.1-0.7-12.1-2-18.3-2.5c-0.6,0-1.2-0.3-1.8-0.6c-0.6-0.3-1.1-0.6-1.7-0.9
		c-2.2-1.3-6.7-3.2-9.2-4c-2-0.6-4-1.4-5.6-2.9c-0.6-0.6-1.3-1-2.1-1.5c-2.9-1.8-5.5-4-7.9-6.4c-3.3-3.3-3.4-3.2-5.6-7.6
		c-2.2-4.3-4.3-8.8-6.2-13.2c-0.6-1.3-0.7-2.9-1.2-4.3c-0.1-0.3-0.5-0.7-0.8-0.9c-0.4-0.3-0.9-0.2-1.1,0.2c-0.2,0.4-0.4,0.8-0.4,1.2
		c0.1,2.4,0.7,4.6,1.6,6.8c1,2.3,2.2,4.6,3.1,7c1.1,3,2.8,5.7,4.4,8.4c1.1,1.9,2.3,3.5,4,4.9c0.3,0.3,0.6,0.6,0.8,0.9
		c0.9,1,0.8,2.5-0.2,3.4c-0.8,0.7-1.5,1.5-2.5,2c-2.1,1-4.3,1.8-6.5,2.6c-0.4,0.2-0.8,0.2-1.2,0.2c-1.7-0.1-3.4,0.3-5,1
		c-0.8,0.3-1.7,0.5-2.5,0.5c-3.2-0.1-6.4,0.2-9.5-0.5c-0.8-0.2-1.7-0.2-2.5-0.2c-1.5,0.1-2.9-0.1-4.4-0.5c-1.4-0.4-2.9-0.6-4.4-0.6
		c-4.1,0-8-0.8-11.8-2.2c-1-0.4-2-0.7-3.1-0.8c-2.4-0.2-4.5-1-6.7-2c-1.3-0.6-2.8-0.9-4.2-1.5c-3.4-1.2-6.7-2.6-9.9-4.3
		c-0.9-0.5-1.8-1.1-2.8-1.4c-6.9-2.4-11.7-7.5-16.1-13c-1.1-1.3-2-2.8-3-4.1c-5-6.2-8.7-13-12-20.2c-0.5-1.2-1-2.4-1-3.6
		c0-1.3-0.5-2.5-1-3.7c-1.5-3.3-2.3-6.8-2.5-10.5c-0.5-6.4-0.4-12.7,1-19c0.5-2.5,0.4-5.1,1.5-7.5c2.1-7.2,5-14,9-20.3
		c1.5-2.3,3.1-4.6,5-6.6c0.7-0.8,1.2-1.8,1.4-2.8c0.5-0.4,1.1-0.7,1.2-1.3c0.6-0.3,1.1-0.6,1.4-1.2c0.6-0.3,1.1-0.6,1.2-1.4
		c0.7,0,1.2-0.5,1.4-1.1c0.1-0.1,0.2-0.3,0.3-0.4c0,0-0.1-0.1-0.1-0.2c-0.2,0.2-0.2,0.5,0,0.8c-1.3-0.1-1.3-0.1-1.5,1.1
		c-1.2,0-1.3,0.2-1.1,1.4c-0.9-0.1-1.3,0.4-1.5,1.2C55.5,312.3,55.2,312.9,55.1,313.7z"/>
	<path fill-rule="evenodd" clip-rule="evenodd" fill="#FFFFFF" d="M184.4,103.8c0.3,0.5,0.8,1,1,1.6c0.4,1.2,0.8,2.4,1.6,3.4
		c1.9,2.8,3.8,5.6,6.4,7.8c0.3,0.3,0.7,0.5,1,0.7c0.8,0.4,1.6,0.6,2.4,0.3c1.2-0.4,2.4-0.8,3.3-1.8c1.3-1.3,2.8-2.7,3.9-4.1
		c1.8-2.2,4.2-3.5,6.8-4.6c0.6-0.2,1.2-0.3,1.9-0.4c1.9-0.2,3.8-0.4,5.7-0.4c3.8,0,7.6,0.3,11.4,0.4c1.5,0.1,2.9,0.6,4.2,1.3
		c2,1.2,3.9,2.5,5.6,4.2c1,1.1,2,2.2,2.4,3.7c0.1,0.4,0.5,0.7,0.7,1c0.7,1.2,0.6,1.6-0.8,2.5c-0.7,0.5-1.6,0.8-2,1.5
		c-1.2,1.9-3.1,2.9-4.9,3.9c-5.9,3.4-11.2,7.6-16.2,12.2c-0.9,0.9-1.9,1.7-2.7,2.7c-1.3,1.4-2.5,2.9-3.3,4.7
		c-1.1,2.3-2.4,4.5-3.5,6.8c-1.1,2.1-1.5,4.4-2.8,6.4c-0.4,0.7-0.6,1.6-0.8,2.4c-0.5,2.7-1.4,5.3-1.6,8.1c-0.1,1.7-0.7,3.3-1.5,4.8
		c-0.1,0.2-0.2,0.4-0.3,0.5c-0.7,1.1-2.3,1.6-3.3,1.1c-0.6-0.3-1.2-0.5-1.7-0.8c-0.9-0.5-1.8-1.1-2.7-1.7c-3.2-2.2-6.7-3.6-10.4-4.7
		c-4.7-1.5-9.4-2.4-14.1-3.7c-2.9-0.8-5.9-0.9-8.8-0.5c-1.3,0.1-2.5,0.3-3.8,0.4c-1.4,0.1-3-0.9-3.6-2.2c-0.3-0.6-0.5-1.2-0.7-1.8
		c-1.5-3.8-2.4-7.7-3.1-11.6c-0.5-2.7-0.3-5.5,0.1-8.2c0.4-2.9,1-5.8,1.7-8.7c0.7-2.9,1.8-5.6,3.8-7.9c1.4-1.6,2.1-3.7,3.5-5.2
		c0.9-0.9,1.7-1.9,2.7-2.7c1.7-1.2,3.4-2.6,5.1-3.8c5.5-3.7,5.5-3.7,11.9-5.8C180.6,105,182.4,104.4,184.4,103.8z"/>
	<path fill-rule="evenodd" clip-rule="evenodd" fill="#FFFFFF" d="M94.4,154.6c0-0.4,0-1,0.1-1.6c0.8-4.4,1.7-8.8,4-12.7
		c1.4-2.4,2.9-4.7,4.4-7c0.5-0.7,1-1.4,1.6-2c1-1.1,2-2.2,3-3.3c0.6-0.6,1.3-1.2,2-1.5c1.4-0.5,2.6-1.4,3.6-2.5
		c1.7-1.9,3.8-3.3,6.1-4.5c4.3-2.3,8.8-4.2,13.6-5.1c0.2,0,0.4-0.1,0.6-0.2c3.7-1.1,7.5-1.4,11.3-0.2c1.2,0.4,2.5,0.3,3.8,0.4
		c1.3,0.2,2.5,0.4,3.8,0.6c0.4,0.1,1.1,1.1,1,1.4c-0.5,1.6-1.2,3.2-1.4,4.9c-0.1,0.6-0.4,1.2-0.7,1.7c-1,1.6-1.8,3.4-2.1,5.3
		c-0.1,0.6-0.5,1.1-0.8,1.7c-0.5,1.2-0.9,2.4-0.9,3.7c0,0.6-0.2,1.2-0.5,1.8c-0.5,1.2-1,2.3-1.3,3.6c-0.3,1.7-0.9,3.3-1.2,4.9
		c-0.3,1.7,0.4,3.4,0,5.1c-0.2,0.8,0.1,1.7,0.4,2.5c0.2,0.6,0.5,1.2,0.5,1.8c0.2,4.3,2.3,7.6,5,10.7c0.6,0.6,0.5,1-0.2,1.4
		c-1.6,1-3.3,1.9-5.1,2.6c-3.8,1.4-7.4,3.1-10.9,5.3c-1.1,0.7-2.2,1.2-3.4,1.8c-1.7,0.8-3.4,1.8-4.8,3.1c-1.4,1.3-3.1,2.2-4.8,3
		c-2.1,1.1-4,2.3-5.6,4.2c-0.3,0.3-0.6,0.6-1,0.8c-1.2,1-2.4,0.9-3.3-0.2c-0.1-0.2-0.2-0.4-0.3-0.5c-1-1.7-2.3-3-4-4
		c-1.1-0.7-1.9-1.6-2.4-2.9c-0.8-2-1.7-3.9-3-5.6c-0.6-0.8-1-1.9-1.4-2.8c-0.5-1-0.9-1.9-1.6-2.7c-0.7-0.8-1.3-1.7-1.5-2.7
		c-0.2-0.8-0.5-1.7-0.9-2.4C94.8,160,94.6,157.4,94.4,154.6z"/>
	<path fill-rule="evenodd" clip-rule="evenodd" d="M323.4,220.7c-0.2,0.2-0.3,0.4-0.5,0.5c-0.6,0.4-1.4,0.3-1.7-0.1
		c-0.4-0.5-0.8-1-1-1.6c-1.2-3.5-3.4-6.4-5.4-9.3c-1.6-2.2-3.5-4.3-5.5-6.2c-2.3-2.2-4.8-4.2-7.2-6.2c-0.3-0.3-0.7-0.5-1.1-0.7
		c-3-1.6-5.9-3.3-8.9-4.9c-2.1-1.1-4.1-2.3-6.3-3c-2.2-0.7-4.6-0.8-6.9-1.2c-0.4-0.1-0.8-0.3-1.1-0.5c-0.2-0.1-0.3-0.3-0.3-0.5
		c0-0.1,0-0.4,0.1-0.5c0.8-0.8,1.9-0.8,2.8-1.4c0.9-0.6,1.8-1.1,2.8-1.6c0.8-0.4,1.7-0.3,2.4,0.2c1.1,0.7,2,1.5,3.1,2.2
		c0.7,0.5,1.4,1,2.2,1.2c1.6,0.5,3.1,1.4,4.5,2.3c2.2,1.4,4.3,2.7,6.4,4.1c0.9,0.6,1.8,1.2,2.5,1.9c1.3,1.2,2.6,2.1,4.1,3.1
		c1.1,0.7,2.1,1.5,2.8,2.5c1,1.4,2.2,2.7,3.5,3.7c2.2,1.5,3.1,4,4.8,5.9c1.1,1.3,1.7,3,2.1,4.6c0.3,1.3,0.8,2.4,1.4,3.5
		C323.1,219.4,323.2,220.1,323.4,220.7z"/>
	<path fill-rule="evenodd" clip-rule="evenodd" d="M49.5,368.8c0.2-1.5,0.8-2.5,2.1-3.1c0.6-0.3,1.2-0.5,1.7-0.8
		c0.9-0.4,1.8,0,2,0.8c0.1,0.4,0.3,0.8,0.3,1.2c-0.1,2.6,0.6,5,1.6,7.3c0.6,1.3,1,2.8,1.4,4.2c1.4,4.2,3.4,8.2,5.4,12.2
		c0.9,1.7,2,3.2,3.5,4.5c1.1,1,2.1,2,3.1,3.1c2.6,2.8,5.4,5.4,8.6,7.4c1.1,0.7,2.1,1.4,2.9,2.4c0.1,0.1,0.1,0.4,0.1,0.6
		c-0.1,0.5-0.6,0.7-0.9,0.5c-2-1.1-4-2.3-6-3.5c-0.5-0.3-1.1-0.7-1.5-1.1c-1.8-1.8-3.7-3.4-5.9-4.8c-0.7-0.5-1.3-1.1-1.8-1.8
		c-1.3-1.6-2.3-3.5-3.9-5c-0.6-0.5-0.6-1.6-1.1-2.3c-2.1-3.2-3.8-6.6-5.6-9.9c-0.3-0.6-0.6-1.1-1.1-1.6c-2.1-2.2-3.1-5-4.6-7.6
		C49.3,370.9,49.3,369.8,49.5,368.8z"/>
	<path fill-rule="evenodd" clip-rule="evenodd" d="M242.2,430.7c-0.7-0.1-1-0.1-1.1-0.2c-0.3-0.2-0.6-0.5-0.8-0.8
		c-0.2-0.4,0.4-1.3,0.9-1.4c0.8-0.1,1.7-0.3,2.5-0.3c6.1,0,11.7-1.8,17.1-4.4c3.8-1.8,7.6-3.8,10.9-6.5c0.7-0.5,1.3-1.1,1.9-1.7
		c0.8-0.7,1.6-1.5,2.1-2.4c1.9-3.1,4.8-5.3,6.7-8.5c1.2-2,2.4-4,2.8-6.3c0.1-0.4,0.4-0.7,0.6-1.1c0.3-0.7,1.5-0.9,2.2-0.5
		c0.7,0.5,1.4,0.9,2.1,1.5c0.3,0.2,0.5,0.8,0.4,1.1c-1,2.6-2.6,4.9-4.2,7.1c-3.2,4.2-6.9,8.1-11.3,11.1c-4.8,3.1-9.6,6.3-14.7,8.8
		c-1.7,0.8-3.5,1.4-5.4,2c-3.1,0.9-6.2,1.6-9.3,2.3C244.3,430.7,243,430.6,242.2,430.7z"/>
	<path fill-rule="evenodd" clip-rule="evenodd" d="M47.9,293.5c-0.5,0.8-1.4,0.8-2.2,1.2c-0.6,0.3-1,0.7-1.6,1
		c-0.6,0.4-0.6,1.6-1.7,1.4c-0.6-1.1-1.1-2.2-1.2-3.5c-0.3-3.4-0.5-6.7,0.2-10.1c0.2-0.8,0.2-1.7,0.2-2.5c0.1-2.3,0.4-4.7,1.1-6.9
		c0.7-2.2,0.8-4.5,2-6.6c0.8-1.4,1.1-3.2,1.7-4.7c0.1-0.3,0.6-0.5,1-0.6c0.4-0.1,0.8,0.2,0.8,0.7c0.1,0.4,0,0.8-0.2,1.2
		c-0.6,1.8-1.5,3.5-1.9,5.4c-1.8,7.8-1.7,15.5,1.4,23C47.7,292.7,47.8,293.1,47.9,293.5z"/>
	<path fill-rule="evenodd" clip-rule="evenodd" d="M271.4,399.7c-0.1,0.5-0.1,1-0.3,1.3c-1.5,2.3-3.3,4.3-5.1,6.4
		c-0.3,0.3-0.6,0.6-1,0.8c-3,1.9-6.1,3.8-9.2,5.6c-2,1.2-4.2,2-6.4,2.8c-1,0.4-2.1,0.5-3.1,0.2c-0.2-0.1-0.4-0.2-0.5-0.4
		c-0.2-0.3-0.2-0.7,0.1-1.1c0.3-0.3,0.6-0.6,1-0.8c0.6-0.3,1.2-0.5,1.8-0.6c5.3-0.7,9.4-3.5,12.9-7.4c0.1-0.2,0.3-0.3,0.4-0.5
		c1.8-1.9,2.9-4.1,3.3-6.7c0.1-0.8,0.3-1.7,0.6-2.4c0.1-0.3,0.6-0.6,0.9-0.8c1-0.4,2.1-0.2,3,0.3c0.2,0.1,0.4,0.2,0.5,0.4
		C270.8,397.8,271.2,398.8,271.4,399.7z"/>
	<path fill-rule="evenodd" clip-rule="evenodd" d="M80.6,387.1c-0.2,0.1-0.4,0.2-0.5,0.2c-1.6-0.1-2.9-0.9-3.7-2.1
		c-1.5-2.2-3.3-4.4-4.5-6.9c-1.2-2.5-2.8-4.7-4.4-6.9c-0.6-0.9-1.2-1.7-1.7-2.6c-0.4-0.8-0.4-1.7-0.1-2.4c0.5-1.1,1.2-2.2,2.3-3
		c0.4-0.3,0.8-0.3,1.2-0.1c1.1,0.4,1.9,1,2.1,2.2c0.2,1,0.3,2.1,0.3,3.1c0,2.8,1,5.4,2.3,7.8c0.6,1.1,1.2,2.2,1.8,3.3
		c0.7,1.3,0.6,2.9,1.7,4c1,1,2.2,1.9,3.3,2.9C80.7,386.6,80.6,386.9,80.6,387.1z"/>
	<path fill-rule="evenodd" clip-rule="evenodd" d="M115,201.2c0-0.4-0.2-0.9-0.1-1.2c0.3-1,0.7-2,1.1-3c0.3-0.8,0.9-1.4,1.5-2
		c2-1.6,4-3.1,6-4.7c0.8-0.6,1.6-1.3,2.6-1.8c2.8-1.5,5.3-3.4,7.7-5.5c0.7-0.6,1.5-0.6,2.4-0.3c1,0.4,1.8,1.1,2.5,1.9
		c0.5,0.6,0.2,1.9-0.5,2.1c-1,0.3-2,0.7-3,1c-0.6,0.2-1.2,0.4-1.8,0.6c-5.5,2.2-10.5,5.2-14.5,9.8c-0.7,0.8-1.4,1.5-2.2,2.2
		c-0.5,0.4-1.1,0.7-1.7,0.6L115,201.2z"/>
	<path fill-rule="evenodd" clip-rule="evenodd" d="M349.5,322.9c0.1,0.9,0,1.7-0.4,2.5c-1.7,2.9-3.1,6-5.3,8.6
		c-0.3,0.3-0.6,0.6-0.8,1c-1.7,3.5-4.8,5.9-7.6,8.4c-1.1,1-3.2,1.3-4.7,0.2c-0.9-0.7-1-2.1-0.1-2.6c0.4-0.2,0.7-0.4,1.1-0.6
		c0.6-0.2,1.2-0.4,1.8-0.6c2.6-1,4.8-2.6,6.7-4.6c2.9-3.1,5.3-6.6,6.8-10.6c0.2-0.6,0.4-1.2,0.7-1.8c0.2-0.5,1.3-1.3,1.4-1
		C349.3,322.1,349.4,322.5,349.5,322.9z"/>
	<path fill-rule="evenodd" clip-rule="evenodd" d="M287,199.9c0.8-0.2,1.7-0.2,2.5,0.1c1.2,0.5,2.3,1,3.5,1.5c1.6,0.7,3,1.6,4,3
		c0.6,0.8,1.4,1.6,2.2,2.3c1.4,1.1,2.4,2.3,3.3,3.8c0.5,0.9,1.3,1.6,1.9,2.5c0.2,0.3,0.3,0.8,0.3,1.2c0,0.4-0.1,0.8-0.3,1.2
		c-0.2,0.3-0.6,0.1-1-0.2c-0.5-0.4-0.9-0.9-1.3-1.4c-0.8-1-1.5-2-2.3-3.1c-2.4-3.3-5.5-5.9-9-8c-1.1-0.7-2.2-1.3-3.3-2
		c-0.3-0.2-0.4-0.7-0.6-1.1L287,199.9z"/>
	<path fill-rule="evenodd" clip-rule="evenodd" d="M125.2,199.9c0.1-0.4,0.1-0.9,0.3-1.1c1.9-1.6,3.9-3.1,5.9-4.6
		c0.3-0.2,0.8-0.3,1.2-0.2c1.4,0.4,2.8,0.9,3.9,1.9c0.3,0.2,0.4,0.7,0.5,1c0,0.1-0.3,0.3-0.5,0.4c-3.2,0.9-6.4,1.8-9.6,2.6
		c-0.6,0.1-1.2-0.1-1.8-0.1L125.2,199.9z"/>
	<path fill-rule="evenodd" clip-rule="evenodd" d="M52.6,283.8c-0.6-0.2-1.2-0.4-1.2-1.1c-0.1-2.3-0.3-4.6-0.4-6.8
		c0-1.4,0.1-2.9,0.9-4.2c0.2-0.4,0.6-0.7,1-0.6c0.3,0.1,0.6,0.5,0.7,0.8c0.2,2.9,0.6,5.8,1.2,8.6c0.2,0.8,0.2,1.6,0,2.5l0.2-0.2
		c-0.6-0.3-0.9-0.8-1.2-1.3c-0.1-0.1-0.3-0.3-0.5-0.3c-0.3,0-0.5,0.4-0.5,0.9c0,0.6-0.1,1.2-0.1,1.8L52.6,283.8z"/>
	<path fill-rule="evenodd" clip-rule="evenodd" d="M339.3,326c0,0.4,0.1,0.8,0,1.2c-0.1,0.4-0.4,0.8-0.5,1.1
		c-2.2,4.4-2.6,4.8-6.4,7.6c-0.5,0.4-1.2,0.4-1.8,0.1c-0.5-0.2-0.6-0.6-0.3-1c0.3-0.3,0.5-0.7,0.8-0.9c0.5-0.4,1.1-0.6,1.6-1
		c2-1.3,3.6-2.9,4.4-5.2c0.2-0.6,0.7-1.1,1.1-1.5c0.3-0.2,0.8-0.2,1.2-0.2L339.3,326z"/>
	<path fill-rule="evenodd" clip-rule="evenodd" d="M287.1,199.8c-1.6,0.6-2.7-0.3-3.7-1.3c-0.4-0.4-0.4-0.7,0.1-0.9
		c0.2-0.1,0.4-0.1,0.6-0.1c1,0.2,1.9,0.7,2.6,1.4c0.1,0.1,0.2,0.3,0.3,0.5c0,0.2,0,0.4,0,0.6L287.1,199.8z"/>
	<path fill-rule="evenodd" clip-rule="evenodd" d="M125.1,199.8c0,0.2,0.1,0.4,0,0.6c-0.5,0.9-1.2,1.6-2.1,2c-0.2,0.1-0.4,0-0.6,0
		c-0.2-0.1-0.4-0.3-0.3-0.4c0.4-1.6,1.2-2,3.1-2L125.1,199.8z"/>
	<path fill-rule="evenodd" clip-rule="evenodd" d="M52.4,283.9c0.5,0.1,0.8,0.4,0.8,0.9c0,0.1-0.1,0.4-0.2,0.5
		c-0.4,0.1-0.5-0.2-0.4-1.5L52.4,283.9z"/>
	<path fill-rule="evenodd" clip-rule="evenodd" d="M113.5,202.3c-0.1,0.3-0.2,0.7-0.3,1c-0.1-0.1-0.2-0.1-0.3-0.2
		c0.3-0.2,0.5-0.4,0.8-0.6C113.7,202.5,113.5,202.3,113.5,202.3z"/>
	<polygon fill-rule="evenodd" clip-rule="evenodd" points="339.4,326.2 339.6,325.9 339.3,326 	"/>
	<path fill-rule="evenodd" clip-rule="evenodd" d="M55.1,313.7c0.1-0.7,0.3-1.3,1.2-1.3l-0.2-0.2c-0.1,0.7-0.7,1-1.2,1.3L55.1,313.7
		z"/>
	<path fill-rule="evenodd" clip-rule="evenodd" d="M56.3,312.3c0.2-0.8,0.6-1.3,1.5-1.2l-0.2-0.2c-0.3,0.6-0.9,0.9-1.4,1.2
		L56.3,312.3z"/>
	<path fill-rule="evenodd" clip-rule="evenodd" d="M58.8,309.5c0,0.8-0.5,1.1-1.2,1.4l0.2,0.2c-0.2-1.2-0.1-1.4,1.1-1.4L58.8,309.5z
		"/>
	<path fill-rule="evenodd" clip-rule="evenodd" d="M60.2,308.4c-0.3,0.7-0.7,1.1-1.4,1.1l0.1,0.1c0.1-1.2,0.2-1.3,1.5-1.1
		L60.2,308.4z"/>
	<path fill-rule="evenodd" clip-rule="evenodd" d="M60.4,308.6c-0.2-0.3-0.2-0.6,0-0.8c0,0.1,0.1,0.2,0.1,0.2
		c-0.1,0.1-0.2,0.3-0.3,0.4L60.4,308.6z"/>
	<path fill-rule="evenodd" clip-rule="evenodd" d="M114.9,201.1c-0.3,1.1-0.3,1.1-1.3,1.2c0,0,0.2,0.2,0.2,0.2
		c0.2-1.2,0.2-1.2,1.3-1.3C115,201.2,114.9,201.1,114.9,201.1z"/>
	<path fill-rule="evenodd" clip-rule="evenodd" d="M54.7,283c0.2,0,0.5-0.1,0.5-0.1c0.2,0.4,0.1,0.4-0.4-0.1L54.7,283z"/>
	<path fill-rule="evenodd" clip-rule="evenodd" d="M200.1,134.6c-0.1,0.5-0.3,1.1-0.5,1.7c-0.2,0.4-0.6,0.7-1,0.6
		c-0.4,0-0.9,0-1.2-0.1c-3.2-1.1-6.6-1.3-10-1.5c-3-0.1-5.9,0.4-8.8,1.1c-1.7,0.4-3.1,1.2-4.4,2.5c-0.4,0.4-1,0.8-1.5,1.1
		c-0.3,0.2-0.8,0.4-1.2,0.3c-1.2-0.3-2.4-0.7-3.6-1.2c-0.6-0.3-0.7-1-0.8-1.6c0-0.5,0.5-1.4,1-1.5c2.9-0.6,5.6-1.8,8.2-3.3
		c3-1.7,6.3-2.3,9.6-3.2c0.4-0.1,0.8-0.2,1.3-0.2c2.1-0.3,4-1.1,5.8-2.4c1-0.7,2-0.5,2.9,0.1c0.2,0.1,0.4,0.2,0.5,0.3
		c1.6,1.4,2.8,3.2,3.4,5.2C200,133.2,200,133.9,200.1,134.6z"/>
	<path fill-rule="evenodd" clip-rule="evenodd" d="M112.7,153.5c-1.3-0.1-2-1.6-1.4-2.5c0.5-0.9,1.2-1.7,2.1-2.3c2-1.2,4.1-2,6-3.4
		c1.9-1.4,3.8-2.6,6-3.5c1-0.4,1.6-1.3,2.4-2c1.1-1.1,2.6-1.1,4.1-0.2c1.2,0.7,1.9,1.6,2.2,3c0.1,0.7,0.1,1.3-0.3,1.8
		c-0.9,1.5-2.1,2.7-3.9,3c-3.5,0.6-7,1.5-10.5,2.5c-2.1,0.6-3.9,1.4-5.4,3.1C113.8,153.4,113,153.4,112.7,153.5z"/>
</g>
</svg>
