<?xml version="1.0" encoding="utf-8"?>
<!-- Generator: Adobe Illustrator 16.0.0, SVG Export Plug-In . SVG Version: 6.00 Build 0)  -->
<!DOCTYPE svg PUBLIC "-//W3C//DTD SVG 1.1//EN" "http://www.w3.org/Graphics/SVG/1.1/DTD/svg11.dtd">
<svg version="1.1" id="Layer_1" xmlns="http://www.w3.org/2000/svg" xmlns:xlink="http://www.w3.org/1999/xlink" x="0px" y="0px"
	 width="507px" height="200.1px" viewBox="0 0 507 200.1" enable-background="new 0 0 507 200.1" xml:space="preserve">
<g>
	<g opacity="0.6">
		<g>
			<path fill-rule="evenodd" clip-rule="evenodd" stroke="#FFFFFF" stroke-width="8" stroke-miterlimit="10" d="M239.8,113.5
				c0.2,0.4,0.3,0.6,0.4,0.9c0.2,1.6,0.4,3.2,0.6,4.8c0.1,0.9-0.3,1.8-0.9,2.4c-1,0.9-2,1.8-3,2.6c-1.8,1.4-3.7,2.4-5.9,3
				c-1.3,0.3-2.5,0.8-3.8,1.2c-1.7,0.6-3.3,1.1-5,1.8c-1.4,0.6-2.7,1.1-4.2,1c-0.4,0-0.8,0.3-1.3,0.3c-1.4,0.3-2.2-0.4-2.4-1.8
				c-0.1-0.4-0.2-0.9-0.1-1.3c0.2-1.6,0.2-3.2,0.1-4.8c-0.2-4.1,0.2-8.2,0.5-12.3c0.2-2.8,0.5-5.6,0.8-8.3c0.1-0.8,0.4-1.4,1.1-1.8
				c0.7-0.5,1.5-1,2.2-1.5c1.7-1,3.5-1.4,5.5-1.4c1.9,0,3.4,0.7,4.8,1.9c0.4,0.4,0.9,0.8,1.3,1.2c1.6,1.7,1.8,2,1.8,4.3
				c0,0.9,0,1.8,0,2.6c0.1,1.7,0.5,2.2,2,2.4c0.1,0,0.3,0.1,0.4,0.1c0.9,0,1.7,0.4,2.5,0.9C237.9,112.2,238.9,112.9,239.8,113.5z
				 M225.3,112.7c-0.3,0.1-0.6,0.1-0.9,0.2c-0.6,0.2-1.1,0.3-1.7,0.6c-4,1.8-4,1.9-3.7,6.4c0.4,1.7,0.9,3.4,1.3,5.1
				c0.1,0.3,0.3,0.5,0.4,0.8c0.2,0.4,1.1,0.8,1.5,0.7c2.6-0.5,5.1-1.5,7.7-1.9c3.1-1.2,5.8-2.9,7-6.2c0.5-1.2,0.4-2.3-0.5-3.3
				c-0.4-0.4-0.8-0.8-1.3-1.2c-0.2-0.2-0.5-0.3-0.8-0.4c-1.6-0.2-3.2-0.5-4.8-0.5c-1.3,0-2.6,0.2-3.9-0.2
				C225.6,112.7,225.5,112.7,225.3,112.7z M218.1,107.3c0.1,1.4,0.1,2.4,0.2,3.5c0,0.3,0.1,0.6,0.3,0.8c0.2,0.2,0.4,0.5,0.6,0.5
				c0.4,0,0.8-0.2,1.3-0.3c2.1-0.6,4.1-1.5,5.9-2.7c1-0.7,1.8-1.5,2.4-2.5c0.7-1.2,1.1-2.6-0.5-3.9c-0.4-0.4-0.9-0.7-1.4-1.1
				c-0.7-0.5-1.6-0.8-2.5-0.8c-1.8,0-3.5,0.3-5,1.3c-0.6,0.4-1.1,1-1.2,1.8C218.2,105.1,218.2,106.4,218.1,107.3z"/>
			<path fill-rule="evenodd" clip-rule="evenodd" stroke="#FFFFFF" stroke-width="8" stroke-miterlimit="10" d="M438.4,113.3
				c-1.5,0.1-2.9,0.1-4.4,0.2c-0.7,0-1.5,0.1-2.2,0c-0.6-0.1-1.1-0.3-1.4-0.9c-0.4-0.9-0.8-1.9-0.8-3c0-0.3,0-0.6,0-0.9
				c0.1-4.1,0.2-8.2,0.3-12.3c0-1.1,0.7-1.9,1.7-2.3c4-1.4,8-1.7,12.1-0.9c0.9,0.2,1.7,0.5,2.4,1c0.5,0.3,0.9,0.8,1,1.4
				c0.1,0.3,0.1,0.6,0.2,0.9c0.1,1.5,0.6,2.9,1,4.3c0.1,0.3,0.3,0.5,0.5,0.7c0.2,0.2,0.5,0.3,0.8,0.4c1.1,0.4,2.1,1,3.1,1.6
				c1.2,0.7,2.1,1.5,2.8,2.7c0.2,0.4,0.5,0.7,0.8,1.1c0.6,0.7,0.7,1.6,0.7,2.5c0,0.4-0.1,0.9-0.1,1.3c-0.2,1.1-0.9,1.9-2,2.1
				c-1.4,0.3-2.9,0.3-4.3,0.7c-1.1,0.3-2.3,0.2-3.5-0.1c-1.5-0.3-2.9-0.3-4.4-0.3C441.3,113.5,439.9,113.4,438.4,113.3
				C438.4,113.4,438.4,113.3,438.4,113.3z M440.5,111c1.2,0,2.3,0.1,3.5-0.1c2.4-0.5,4.8-1.2,7.1-2.3c0.4-0.2,0.7-0.5,1-0.8
				c0.4-0.4,0.5-1.2,0.1-1.6c-0.5-0.6-1-1.1-1.7-1.4c-2.4-0.8-4.7-1.6-7.3-1.5c-0.6,0-1.2-0.2-1.7-0.2c-0.4,0-0.9,0-1.3,0.2
				c-1.2,0.5-2.4,1-3.6,1.5c-0.9,0.4-1.4,1.3-1.1,2.2c0.3,1,0.7,1.9,1,2.9c0.2,0.5,0.5,0.7,1,0.8C438.4,110.8,439.4,110.9,440.5,111
				z M438.9,95.2c-1.5,0.1-2.8,0.3-4,0.7c-0.3,0.1-0.8,0.6-0.8,1c-0.1,1.8,0,3.5,0.6,5.2c0,0.1,0.2,0.2,0.3,0.3
				c0.1,0.1,0.3,0.2,0.4,0.2c2.5-0.5,4.7-1.7,6.8-3c0.7-0.5,1.4-1.1,1.9-1.8c0.4-0.6,0.1-1.6-0.5-1.8
				C441.9,95.4,440.3,95.4,438.9,95.2z"/>
			<path fill-rule="evenodd" clip-rule="evenodd" stroke="#FFFFFF" stroke-width="8" stroke-miterlimit="10" d="M421.6,102.8
				c-0.1,3.4-1.7,5.7-4.7,7c-2.1,0.9-4.5,1.5-6.7,2.2c-0.6,0.2-1.2,0.2-1.7,0.3c-3.6,0.4-6.6-0.9-9.2-3.3c-0.1-0.1-0.2-0.2-0.3-0.3
				c-1.1-1.6-1.9-3.3-2.1-5.3c-0.1-1,0-2.1,0.4-3c0.6-1.4,1.3-2.6,2.2-3.8c0.6-0.7,1.2-1.3,2-1.8c0.6-0.3,1.3-0.8,1.9-1.1
				c1.7-0.9,3.6-1.4,5.5-0.7c0.8,0.3,1.7,0.4,2.6,0.4c1.3,0,2.6,0.5,3.9,0.8c0.3,0.1,0.6,0.2,0.8,0.4c1.2,0.8,2.4,1.6,3.5,2.7
				c1.1,1.1,1.7,2.4,1.8,3.9C421.6,101.7,421.6,102.2,421.6,102.8z M411.2,95.9c-0.4,0-0.8,0-1.2,0c-1-0.1-1.7,0.4-2.3,1.1
				c-1.8,1.8-3.1,3.9-4,6.3c-0.3,0.7-0.4,1.4-0.5,2.1c-0.1,0.8,0.1,1.5,0.6,2.1c0.4,0.5,0.7,0.9,1.2,1.3c1,0.7,2.1,1.1,3.3,0.9
				c1.1-0.2,2.3-0.4,3.4-0.8c1.5-0.5,3.1-0.8,4.6-1.6c1.7-0.9,2.7-2.2,2.8-4.2c0-0.7,0-1.5-0.1-2.2c-0.1-0.4-0.3-0.9-0.5-1.2
				c-0.4-0.6-0.9-1.1-1.5-1.6C415.3,96.6,413.5,95.7,411.2,95.9z"/>
			<path fill-rule="evenodd" clip-rule="evenodd" stroke="#FFFFFF" stroke-width="8" stroke-miterlimit="10" d="M354.7,96.5
				c2.5-0.1,4.5,0.5,6.3,1.5c1,0.6,1.8,1.5,2.2,2.7c0.2,0.7,0.4,1.4,0.6,2.1c0.1,0.3,0.1,0.6,0.1,0.9c-0.3,2.5-0.8,4.9-2.7,6.8
				c-0.8,0.8-1.7,1.6-2.7,2.2c-1.2,0.8-2.6,1.5-3.9,2c-1.7,0.7-3.4,0.6-5.1-0.3c-1.6-0.9-2.8-2.1-3.9-3.5c-0.9-1.2-1.4-2.6-1.6-4.1
				c-0.3-2.3,0.4-4.4,1.8-6.2c0.4-0.5,0.8-0.9,1.2-1.3c0.7-0.7,1.6-1.3,2.6-1.5c1.1-0.3,2.3-0.4,3.4-1
				C353.6,96.6,354.4,96.6,354.7,96.5z M361.3,104.2c-0.1-2.2-0.8-3.8-3-4.5c-0.3-0.1-0.5-0.2-0.8-0.3c-1.1-0.4-2-0.2-2.8,0.6
				c-1.2,1.1-2.3,2.3-3.4,3.4c-0.5,0.5-0.9,1.2-1.2,1.8c-0.5,0.9-0.8,1.9-0.7,3c0.1,1,0.5,2,0.8,3c0.1,0.3,0.4,0.5,0.6,0.6
				c0.9,0.7,1.9,0.8,2.9,0.4c1.9-0.8,3.7-1.8,5.3-3.1c0.4-0.4,0.9-0.8,1.1-1.3c0.4-0.8,0.8-1.6,1.1-2.4
				C361.3,105,361.3,104.6,361.3,104.2z"/>
			<path fill-rule="evenodd" clip-rule="evenodd" stroke="#FFFFFF" stroke-width="8" stroke-miterlimit="10" d="M250.6,108.9
				c0-0.4,0,0,0,0.5c0,2.7,1.1,4.8,2.9,6.7c1.4,1.4,3,1.8,4.9,1.6c0.7-0.1,1.4-0.3,2.2-0.5c0.6-0.1,1.2-0.3,1.7-0.3
				c0.4,0,0.9,0.2,1.1,0.6c0.2,0.4,0.2,0.8,0,1.3c-0.2,0.4-0.5,0.7-0.9,0.9c-0.3,0.1-0.5,0.2-0.8,0.3c-2.6,0.4-5.2,0.9-7.8,1.3
				c-2.4,0.4-4.3-0.5-6.2-1.8c-0.2-0.2-0.4-0.4-0.6-0.6c-1-1.1-1.6-2.5-2-3.9c-1.5-6,0.8-12.8,6.6-15.9c0.4-0.2,0.8-0.4,1.2-0.5
				c1.5-0.3,2.9-0.4,4.4-0.1c0.7,0.2,1.4,0.5,1.8,1.2c0.2,0.3,0.2,0.5,0,0.8c-0.2,0.2-0.4,0.5-0.6,0.5c-0.7,0-1.5,0-2.2,0
				c-0.9-0.1-1.8,0-2.6,0.2c-1.4,0.3-2.3,1.2-2.7,2.6C250.6,105.1,250.5,106.5,250.6,108.9z"/>
			<path fill-rule="evenodd" clip-rule="evenodd" stroke="#FFFFFF" stroke-width="8" stroke-miterlimit="10" d="M269.4,106.9
				c-0.1-1.6-0.2-3.2-0.2-4.9c0-0.6,0-1.2,0.2-1.8c0.1-0.4,0.3-0.8,0.7-1.1c0.5-0.3,1-0.7,1.6-0.8c1.1-0.3,2.3-0.5,3.5-0.7
				c1.6-0.2,3.2-0.7,4.8-1c0.6-0.1,1.2,0,1.7,0c0.4,0,0.8,0.6,0.8,0.9c0,0.5-0.2,0.8-0.6,1.1c-0.6,0.5-1.3,0.7-2,0.8
				c-1.9,0.3-3.6,1.2-5.3,2c-1,0.5-1.6,1.3-2,2.2c-0.5,1.1-0.6,2.3-0.3,3.4c0.1,0.2,0.4,0.5,0.6,0.5c0.6,0.1,1.2,0,1.7,0
				c0.4-0.1,0.8-0.3,1.3-0.3c0.8-0.1,1.4,0.2,2,0.7c0.2,0.2,0.3,1,0.1,1.2c-1.2,1.1-2.6,2-3.8,3c-0.5,0.4-0.9,0.7-1.3,1.2
				c-0.2,0.3-0.4,0.9-0.2,1.2c0.1,0.4,0.5,0.7,0.9,0.9c0.2,0.2,0.6,0.2,0.9,0.2c1,0,2.1,0,3.1,0c1,0,2-0.1,3.1-0.4
				c1.6-0.4,3.2-0.7,4.8-1c0.6-0.1,1.2,0,1.6,0.4c0.4,0.3,0.5,0.7,0.5,1.1c0,0.4-0.4,0.8-0.9,0.9c-1.4,0.3-2.9,0.3-4.4,0.7
				c-2.5,0.5-4.8,1.3-7.2,2c-1,0.3-1.9,0.9-2.8,1.3c-0.8,0.4-1.8-0.3-1.9-1.2c-0.2-2.2-0.4-4.4-0.5-6.6
				C269.6,111,269.5,109,269.4,106.9C269.4,106.9,269.4,106.9,269.4,106.9z"/>
			<path fill-rule="evenodd" clip-rule="evenodd" stroke="#FFFFFF" stroke-width="8" stroke-miterlimit="10" d="M374.8,93.2
				c1.6,0,3.2,0,4.9,0c2.2,0,4.4-0.4,6.5-0.9c0.7-0.2,1.4,0.2,1.9,0.8c0.4,0.4,0.3,1.2-0.1,1.6c-0.6,0.5-1.2,0.9-2,0.9
				c-1.3,0.1-2.6,0.1-4,0.2c-0.4,0-0.9,0.2-1.3,0.3c-0.2,0.1-0.5,0.4-0.6,0.6c-0.1,0.3-0.2,0.6-0.2,0.8c0,0.6-0.1,1.2,0,1.8
				c0.5,3.5,1.1,7,2.3,10.3c0.3,0.8,0.6,1.7,0.8,2.5c0.2,0.6-0.4,1.6-1,1.8c-1.1,0.4-2.3,0.5-3.5,0.3c-0.5-0.1-0.8-0.5-0.9-0.9
				c-0.4-1.1-0.4-2.3-0.9-3.4c-0.2-0.5-0.2-1.2-0.2-1.7c-0.1-2.8-0.2-5.6-0.3-8.4c0-0.9-0.2-1.7-0.3-2.6c0-0.2-0.3-0.5-0.6-0.6
				c-0.7-0.3-1.4-0.3-2.2-0.2c-2.1,0.1-4.1,0.2-6.2,0.3c-0.5,0-1.1-0.6-1.2-1.1c0-0.3-0.1-0.6,0-0.9c0.1-0.7,0.8-1.4,1.4-1.5
				c0.6-0.1,1.2-0.2,1.7-0.2c1.9,0,3.8,0.1,5.7,0.1C374.8,93.1,374.8,93.2,374.8,93.2z"/>
			<path fill-rule="evenodd" clip-rule="evenodd" stroke="#FFFFFF" stroke-width="8" stroke-miterlimit="10" d="M470.3,112.5
				c-1.7,0.1-3.2-0.6-4.7-1.2c-0.4-0.1-0.7-0.5-1-0.8c-0.5-0.7-1-1.5-1.5-2.2c-1.1-1.6-1.2-3.3-0.6-5.1c0.7-2.4,2.2-4.1,4.4-5.2
				c0.8-0.4,1.6-0.8,2.4-1.1c1.2-0.4,2.3-0.3,3.4,0.3c0.8,0.4,1.6,0.8,2.3,1.3s1.5,0.9,2.3,1.3c2.7,1.6,3.3,4.6,2.4,7.3
				c-0.1,0.4-0.4,0.8-0.6,1.1C476.9,111,473.9,112.4,470.3,112.5z M467.1,106.6c0,0.4,0.3,1.3,0.8,2c0.7,0.9,1.6,1.3,2.7,1.2
				c1.8-0.1,3.4-0.6,5-1.5c1.2-0.7,1.9-1.8,2.1-3.2c0.1-0.6-0.1-1.2-0.3-1.7c-0.5-0.9-1.3-1.6-2.2-2c-1.6-0.7-3.4-0.9-5.1-0.3
				c-0.3,0.1-0.5,0.2-0.8,0.4C467.8,102.7,467.1,104.2,467.1,106.6z"/>
			<path fill-rule="evenodd" clip-rule="evenodd" stroke="#FFFFFF" stroke-width="8" stroke-miterlimit="10" d="M323.5,115.2
				c0.6-2.7,0.5-6.1,0.7-9.5c0.1-1.9,0.4-3.8,0.8-5.7c0.2-0.8,0.7-1.3,1.5-1.5c3.6-0.8,7.2-1.4,10.8-1.9c0.6-0.1,1.2,0,1.8,0
				c0.5,0,0.9,0.7,0.8,1.3c-0.2,0.8-0.7,1.3-1.4,1.6c-1.2,0.5-2.5,0.8-3.8,1.2c-1.4,0.4-2.8,0.9-4.2,1.4c-0.2,0.1-0.4,0.4-0.6,0.6
				c-0.1,0.1-0.1,0.3-0.2,0.4c-0.4,2.2-0.8,4.3-1.1,6.5c-0.3,1.9-0.2,3.8-0.1,5.7c0.1,0.8-0.4,1.3-1.3,1.5c-0.4,0.1-0.9,0.2-1.3,0.3
				c-0.3,0.1-0.6,0.2-0.8,0.2C324.3,117.5,323.4,116.7,323.5,115.2z"/>
			<path fill-rule="evenodd" clip-rule="evenodd" stroke="#FFFFFF" stroke-width="8" stroke-miterlimit="10" d="M491.6,97.8
				c0-0.2,0-0.8,0.1-1.4c0.7-3.4,1-7,1.6-10.4c0.1-0.3,0.2-0.6,0.3-0.8c0.2-0.6,0.6-1,1.1-1.4c0.2-0.2,0.5-0.3,0.8-0.4
				c2-0.9,4-1.7,6.1-2.6c0.3-0.1,1,0,1.2,0.3c0.3,0.4,0.4,0.8,0.3,1.2c0,0.1-0.1,0.3-0.1,0.4c-0.2,0.4-0.4,0.8-0.6,1.2
				c-1.6,3.1-3.2,6.3-4.5,9.5c-0.3,0.8-0.7,1.6-1,2.4c-0.6,1.6-1.1,3.3-1.1,5.1c0,1.3-0.8,2.2-1.9,2.8c-0.4,0.2-1.4,0-1.5-0.4
				C491.9,102.1,491.6,99.5,491.6,97.8z"/>
			<path fill-rule="evenodd" clip-rule="evenodd" stroke="#FFFFFF" stroke-width="8" stroke-miterlimit="10" d="M277.5,88.2
				c0.1-0.5,0.2-0.9,0.4-1.3c0.2-0.4,0.5-0.8,0.8-1c1.2-0.7,2.5-0.9,3.8-0.6c1.1,0.3,1.9,1.7,1.3,2.8c-0.2,0.4-0.4,0.8-0.7,1.1
				c-0.5,0.5-1.1,1-1.7,1.4c-1.2,0.9-3.2,0.2-3.7-1.2C277.5,89.1,277.5,88.7,277.5,88.2z"/>
			<path fill-rule="evenodd" clip-rule="evenodd" stroke="#FFFFFF" stroke-width="8" stroke-miterlimit="10" d="M272.4,89.2
				c0,0.1,0,0.3-0.1,0.4c-0.4,1.6-2.3,2.7-3.8,2.3c-0.7-0.2-1.4-0.5-1.9-1c-0.5-0.5-0.7-1.4-0.4-2c0.4-1,1.1-1.7,2.1-2.2
				c1.6-0.7,3.3-0.1,3.9,1.7C272.3,88.6,272.4,88.9,272.4,89.2z"/>
			<path fill-rule="evenodd" clip-rule="evenodd" stroke="#FFFFFF" stroke-width="8" stroke-miterlimit="10" d="M494.2,108.1
				c0.2,0.1,0.8,0.1,1.3,0.4c1.4,0.7,1.7,2.6,0.6,3.6c-0.8,0.7-1.6,1.2-2.6,1.4c-0.3,0.1-0.6,0.1-0.9,0.1c-1.7,0-2.6-1.4-2.3-2.9
				C490.7,109,492,108,494.2,108.1z"/>
		</g>
		<path fill-rule="evenodd" clip-rule="evenodd" stroke="#FFFFFF" stroke-width="8" stroke-miterlimit="10" d="M51.9,54.4
			c1,0,2,0,3,0c0.4,0,0.6-0.3,0.8-0.5c0.3-0.6,0.8-1.1,0.9-1.8c0.3-1.1,0.9-2,1.4-3c0.5-1.1,1.2-2.1,2.1-3c0.8-0.8,1.6-1.6,2.1-2.5
			c0.2-0.4,0.5-0.7,0.9-1c1.5-1.2,2.7-2.7,4.2-3.7c0.7-0.5,0.9-1.2,0.9-2c-0.1-0.7-0.2-1.3-0.4-2c-0.3-1.1-0.7-2.1-1.1-3.2
			c-0.2-0.5-0.6-0.9-1.1-1.2c-1-0.5-2.1-0.7-3.2-0.5c-2.3,0.4-4.4,1.3-6.2,3c-1.4,1.3-2.7,2.6-3.6,4.3c-0.4,0.7-0.7,1.4-0.9,2.1
			c-0.2,1-0.5,1.9-0.7,2.9c-0.2,1-0.3,2-0.4,3c-0.1,0.4-0.3,0.8-0.6,1.2c-0.2,0.2-0.4,0.3-0.6,0.3c-1.4-0.1-2.6-0.7-3.6-1.6
			c-0.6-0.6-1.2-1.3-1.8-1.9c-1-1.2-2.2-2.2-3.6-3c-1.2-0.6-2.2-1.5-3.2-2.4c-1-0.9-2-1.7-3-2.6c-0.7-0.6-1.2-1.3-1.7-2
			c-0.6-1-0.9-2-0.8-3.2c0-0.9,0.3-1.7,1-2.4c1.6-1.4,3.1-2.8,5-3.9c0.6-0.3,1.2-0.6,1.6-1.1c1-1,2.2-1.4,3.5-1.8
			c2.1-0.6,4.2-1.4,6.3-2.2c1.9-0.7,3.8-1.1,5.8-1.4c1.3-0.2,2.6-0.3,4-0.5c0.9-0.1,1.8-0.1,2.7,0c1.3,0.2,2.6,0.4,3.9,0.6
			c1.7,0.3,3.1,1.1,4.2,2.5c1.6,2.3,3,4.7,3.5,7.5c0.1,0.6,0.1,1.1,0,1.7c-0.3,1.6-0.6,3.3-0.8,4.9c-0.1,0.4,0.4,1,0.8,0.9
			c0.1,0,0.2-0.1,0.3-0.1c0.5-0.2,1-0.4,1.6-0.6c1.6-0.5,3-1.3,4.7-1.6c1.6-0.3,3.3-0.7,4.9-1c1-0.2,2-0.3,2.9-0.8
			c2-0.4,3.9-0.9,5.9-0.9c3.1,0,6.2-0.1,9.3-0.6c0.6-0.1,1.1,0,1.6,0.3c0.3,0.2,0.6,0.3,0.9,0.4c0.4,0.2,0.8,0.3,1.3,0.2
			c3-0.4,6-0.1,9,0.1c2.7,0.2,5.3,0.7,7.9,1.1c0.5,0.1,1.1,0.3,1.6,0.3c1.9,0.1,3.7,0.5,5.5,1.3c0.5,0.2,1.1,0.2,1.6,0.1
			c1.4-0.4,2.8-0.8,4.1-1.2c0.7-0.2,1.5-0.5,2.1-0.9c1.3-0.9,2.6-1.7,3.9-2.6c0.8-0.6,1.5-1.3,2.2-2c0.1-0.2,0.3-0.3,0.4-0.5
			c0.8-1.3,2.4-2.1,3-3.6c0.5-1.4,1.3-2.5,2.1-3.8c0.3-0.6,0.6-1.2,0.8-1.8c0.6-1.4,1.3-2.8,1.8-4.3c0.7-1.6,1.9-2.7,3.2-3.8
			c0.5-0.4,1.2-0.6,1.8-0.8c3.2-0.8,6.4-0.8,9.6-0.3c1.8,0.2,3.5,0.4,5.3,0.6c2.5,0.3,5.1,0.4,7.6,0.9c1.3,0.3,2.5,0.8,3.6,1.6
			c0.4,0.3,0.7,0.6,1,0.8c1.7,1.1,2,2.8,1.9,4.7c-0.1,1.3-0.5,2.6-0.8,3.9c-0.3,0.8-0.6,1.7-0.9,2.5c-0.6,1.4-1.1,2.9-1.6,4.4
			c-0.2,0.6-0.4,1.3-0.7,1.9c-1.2,2.3-1.8,4.8-3,7.1c-0.5,1-1.1,1.9-1.7,2.8c-0.6,0.9-1.3,1.8-2,2.6c-0.6,0.8-1.5,1.4-2.4,1.7
			c-0.3,0.1-0.7,0.1-1,0.1c-1-0.2-1.9-0.7-2.5-1.5c-0.7-1-1.4-2-2.1-3c-0.8-1.2-1.7-2.3-2.7-3.3c-0.4-0.4-0.8-0.7-1.2-1.2
			c-1.6-1.9-3.6-2.9-5.9-3.5c-3-0.8-6.1-1.3-9.2-1.5c-2.3-0.1-4.4,0.5-6.3,1.7c-0.9,0.6-1.8,1.3-2.7,1.9c-0.8,0.5-1.1,1.3-1.4,2.2
			c-0.1,0.3,0.1,0.8,0.3,0.9c0.6,0.5,1.2,0.9,1.9,1.4c2.2,1.5,4.3,3.2,6.2,5c2.1,1.9,3.6,4.2,4.4,6.9c0.5,1.7,0.8,3.5,0.5,5.3
			c-0.3,1.8-0.3,3.5-0.7,5.3c-0.2,1-0.2,2-0.3,3c0,0.2,0.4,0.7,0.6,0.7c1.1,0.1,2.2,0.2,3.3,0.2c0.8,0,1.6,0.2,2.3,0.5
			c3,1.2,6,2.3,8.9,3.7c0.6,0.3,1.1,0.7,1.5,1.3c1.9,2.7,3,5.7,3.6,8.9c0,0.2,0.1,0.4,0.2,0.6c0.1,0.3,0.7,0.7,1.1,0.5
			c0.8-0.3,1.7-0.6,2.5-0.8c1.4-0.3,2.8-0.9,4-1.7c1.7-1.1,3.6-1.7,5.1-3c0.1-0.1,0.2-0.5,0.1-0.6c-0.6-0.5-1.2-1-1.8-1.5
			c-0.8-0.6-0.9-1.5-0.7-2.4c0.1-0.4,0.2-0.9,0.4-1.3c0.9-1.8,1.7-3.6,2.7-5.4c1.1-2,1.8-4.1,2.3-6.2c0.4-1.5,0.7-3,1-4.5
			c0.3-1.4,0.7-2.8,1.2-4.1c1-2.4,1.6-4.8,2.3-7.3c0.6-2.2,1.3-4.5,1.8-6.8c0.5-2.1,1-4.1,1.5-6.1c0.4-1.8,0.9-3.7,1.7-5.4
			c0.1-0.3,0.3-0.6,0.4-0.9c0.6-2.1,1.6-4.1,2.4-6.2c0.6-1.6,1.4-3,2.3-4.4c0.6-1.1,1.4-2,2.3-2.8c0.8-0.6,1.4-1.4,2.2-2
			c0.6-0.5,1.2-0.9,2-1.1c0.4-0.1,0.9-0.2,1.3-0.3c0.5-0.1,1.1-0.1,1.7,0c1.6,0.3,3.2,0.8,4.9,1c1.6,0.2,3.1,0.6,4.5,1.1
			c1.5,0.5,2.9,1,4.4,1.5c2.2,0.7,4.4,1.5,6.5,2.4c0.5,0.2,1,0.4,1.6,0.6c0.7,0.2,1.2,0.5,1.8,0.8c1.8,1.1,3.7,2,5.6,2.8
			c1,0.4,2,0.9,3,1.3c0.4,0.2,0.8,0.4,1.2,0.6c3.6,2.3,7.3,4.2,10.9,6.3c0.2,0.1,0.3,0.3,0.5,0.4c0.3,0.2,0.3,1,0.1,1.2
			c-0.1,0.1-0.1,0.2-0.2,0.3c-1.7,0.9-3,2.3-4.4,3.5c-1.2,1-2.2,2.2-3,3.5c-1.5,2.2-2.7,4.6-3.7,7.1c-1.1,2.7-2.1,5.4-3.2,8
			c-0.3,0.8-0.7,1.6-1.1,2.4c-1.4,3.1-2.7,6.3-3.7,9.6c-0.4,1.4-1,2.7-1.5,4.1c-0.5,1.3-1,2.7-1.3,4.1c-0.8,3.1-1.8,6.2-2.8,9.2
			c-0.7,2.1-1.1,4.3-1.7,6.4c-0.1,0.3-0.2,0.6-0.4,0.9c-0.2,0.4-1,0.8-1.4,0.7c-1.1-0.2-2.2-0.4-3.2-0.8c-1.7-0.6-3.3-1.2-5.1-1.6
			c-0.9-0.2-1.7-0.5-2.5-0.8c-0.7-0.3-1.5-0.4-2.3-0.6c-1.5-0.2-3.1-0.4-4.6-0.9c-0.4-0.1-0.9-0.1-1.3-0.1c-1,0.1-2-0.1-3-0.3
			c-2.3-0.6-4.6-1-6.8-1.4c-1.3-0.3-2.6-0.3-4-0.3c-0.6,0-1.1,0.2-1.4,0.7c-0.9,1.4-1.8,2.8-2.7,4.2c-1.1,1.7-2.3,3.3-3.5,4.8
			c-0.9,1.1-1.8,2.3-2.7,3.4c-0.1,0.2-0.3,0.3-0.4,0.5c-0.8,1.8-2.2,3-3.7,4.2c-0.2,0.1-0.3,0.3-0.5,0.5c-0.2,0.2-0.3,0.7-0.1,0.9
			c0.8,0.7,1.6,1.5,2.5,2.2c0.7,0.6,1.2,1.3,1.7,2c0.1,0.2,0.2,0.4,0.3,0.6c1.5,2.5,1.6,2.5,2.2,5.2c0.5,2.2,0.9,4.3,0.8,6.6
			c0,0.6,0,1.1,0,1.7c0.1,2.6-0.4,5.1-1.3,7.5c-0.2,0.6-0.5,1.2-0.7,1.9c-0.7,2.1-1.7,4.1-2.8,6c-0.2,0.4-0.4,0.8-0.7,1.2
			c-0.7,0.9-0.9,2-0.7,3.1c0.4,2.5,0.2,5.1-0.3,7.6c-0.2,0.8-0.3,1.5-0.6,2.2c-0.3,0.7-0.5,1.5-0.8,2.2c-0.6,1.7-1.5,3.2-2.5,4.7
			c-0.8,1.2-1.6,2.4-2.5,3.6c-0.4,0.6-0.5,1.2-0.4,1.9c0.1,1,0.3,2,0.5,3c0.5,2.3,0.8,4.6,1.4,6.8c0.3,1.1,0.6,2.1,1,3.2
			c0.6,1.8,1.4,3.5,2,5.3c0.3,1.2,0.9,2.3,1.5,3.3c0.9,1.9,1.7,3.9,2.4,5.8c0.1,0.2,0.1,0.4,0.1,0.7c0,0.3-0.1,0.7-0.4,0.8
			c-0.3,0.1-0.6,0.2-0.9,0.3c-0.2,0-0.5,0-0.6-0.2c-0.8-1-1.6-1.8-2.5-2.7s-1.9-1.5-2.6-2.5c-0.6-0.3-1-0.8-1.4-1.4
			c-0.3-0.3-0.6-0.7-0.9-1c-2.8-2.4-5.4-4.9-7.9-7.6c-1.2-1.3-2.6-2.4-4.1-3.4c-0.8-0.5-1.6-0.6-2.5-0.3c-0.9,0.4-1.9,0.7-2.8,1.1
			c-1.2,0.5-2.6,0.7-3.7,1.5c-1.1,0.3-2.1,0.7-3.2,1c-1.3,0.4-2.6,0.7-3.8,1.1c-1,0.4-2.1,0.6-3.3,0.7c-0.2,0-0.4,0-0.7,0.1
			c-2,0.4-4,0.5-5.9-0.2c-2.7-0.4-5.5-0.9-8.3-1c-0.7,0-1.3,0.2-1.9,0.5c-2.1,1.4-4.2,2.9-6.5,4.1c-0.3,0.2-0.6,0.3-0.8,0.6
			c-0.6,0.7-1.4,1.1-2.2,1.4c-1.3,0.5-2.7,0.9-4.1,1.4c-1.3,0.4-2.5,0.8-3.8,1.2c-1.2,0.4-2.3,0.7-3.5,0.9c-1.4,0.2-2.8,0.6-4.2,1
			c-2.1,0.5-4.1,0.9-6.2,0.9c-0.7,0-1.3,0-2,0.1c-2.8,0.5-5.5,0.3-8.3,0.4c-1.9,0.1-3.8-0.2-5.6-0.5c-1.8-0.3-3.5-0.7-5.2-0.9
			c-1.7-0.2-3.3-0.7-4.8-1.2c-0.6-0.2-1.3-0.4-1.9-0.6c-1.2-0.3-2.2-0.9-3.2-1.7c-1.3-0.9-2.5-1.8-3.8-2.7c-0.4-0.3-0.8-0.4-1.3-0.3
			c-2,0.6-4.2,0.7-6.3,0.8c-0.7,0-1.3,0.2-1.8,0.6c-0.5,0.5-1.1,0.8-1.7,1.1c-0.9,0.4-1.8,0.9-2.6,1.5c-2.7,2.1-5.5,4.1-8.1,6.4
			c-0.8,0.7-1.7,1.4-2.6,2.1c-1.6,1.2-3.1,2.6-4.4,4.1c-0.9,1.1-2,2-2.8,3.3c-0.1,0.2-0.3,0.3-0.5,0.4c-0.2,0.2-0.7,0.3-0.9,0.1
			c-0.3-0.2-0.5-0.4-0.6-0.8c0-0.2-0.1-0.4,0-0.7c0-0.2,0.1-0.4,0.1-0.6c0.9-2.4,1.9-4.7,2.8-7.1c0.5-1.2,1-2.4,1.6-3.6
			c0.8-1.6,1.3-3.3,1.9-5c0.4-1.3,0.8-2.5,1.2-3.8c0.1-0.3-0.2-0.9-0.6-1.1c-1.9-0.6-3.7-1.5-5.5-2.4c-0.4-0.2-0.8-0.3-1.2-0.5
			c-4-1.3-5.6-2.1-8.8-4.5c-2.3-1.7-4.5-3.6-6.7-5.5c-1.2-1.1-2.1-2.3-2.7-3.7c-0.2-0.5-0.5-1-0.7-1.5c-1.4-2.8-1.8-5.7-1.4-8.8
			c0.2-1.6,0.5-3.3,0.6-5c0.1-0.9,0.4-1.7,0.7-2.5c0.5-1.4,1.1-2.7,1.5-4c0.1-0.2,0.2-0.4,0.2-0.6c0.2-0.7,0.2-1.3-0.2-1.9
			c-0.8-0.9-1.5-1.9-2-3.1c-0.7-1.5-1.4-3-1.8-4.6c-0.3-1-0.5-1.9-0.5-2.9c-0.3-3.4,0.2-6.6,0.8-9.9c0.1-0.4,0.2-0.9,0.4-1.3
			c0.6-1.7,1.1-3.4,1.8-5c0.8-1.9,1.9-3.5,3.2-5.1c0.9-1,1.7-2.1,2.5-3.1c1-1.4,2.1-2.9,3.2-4.2c1-1.2,2.1-2.4,3.3-3.3
			c1.2-0.9,2.2-1.9,3.4-2.7c1.2-0.8,2.4-1.5,3.6-2.3c0.3-0.2,0.5-0.4,0.8-0.6c0.1-0.1,0.2-0.4,0.3-0.6c0.1-0.2,0.1-0.4,0-0.7
			c-0.3-2.1-0.1-4.2-0.1-6.3c0-2,0.5-4,1.2-5.8c1.3-3.7,3.5-6.9,6.2-9.7c1.9-1.9,2.6-2.6,4.4-3.5c2.2-1.1,4.3-2.2,6.8-2.7
			C48,54.6,49.9,54.5,51.9,54.4z"/>
	</g>
	<g>
		<path fill-rule="evenodd" clip-rule="evenodd" d="M239.8,113.5c0.2,0.4,0.3,0.6,0.4,0.9c0.2,1.6,0.4,3.2,0.6,4.8
			c0.1,0.9-0.3,1.8-0.9,2.4c-1,0.9-2,1.8-3,2.6c-1.8,1.4-3.7,2.4-5.9,3c-1.3,0.3-2.5,0.8-3.8,1.2c-1.7,0.6-3.3,1.1-5,1.8
			c-1.4,0.6-2.7,1.1-4.2,1c-0.4,0-0.8,0.3-1.3,0.3c-1.4,0.3-2.2-0.4-2.4-1.8c-0.1-0.4-0.2-0.9-0.1-1.3c0.2-1.6,0.2-3.2,0.1-4.8
			c-0.2-4.1,0.2-8.2,0.5-12.3c0.2-2.8,0.5-5.6,0.8-8.3c0.1-0.8,0.4-1.4,1.1-1.8c0.7-0.5,1.5-1,2.2-1.5c1.7-1,3.5-1.4,5.5-1.4
			c1.9,0,3.4,0.7,4.8,1.9c0.4,0.4,0.9,0.8,1.3,1.2c1.6,1.7,1.8,2,1.8,4.3c0,0.9,0,1.8,0,2.6c0.1,1.7,0.5,2.2,2,2.4
			c0.1,0,0.3,0.1,0.4,0.1c0.9,0,1.7,0.4,2.5,0.9C237.9,112.2,238.9,112.9,239.8,113.5z M225.3,112.7c-0.3,0.1-0.6,0.1-0.9,0.2
			c-0.6,0.2-1.1,0.3-1.7,0.6c-4,1.8-4,1.9-3.7,6.4c0.4,1.7,0.9,3.4,1.3,5.1c0.1,0.3,0.3,0.5,0.4,0.8c0.2,0.4,1.1,0.8,1.5,0.7
			c2.6-0.5,5.1-1.5,7.7-1.9c3.1-1.2,5.8-2.9,7-6.2c0.5-1.2,0.4-2.3-0.5-3.3c-0.4-0.4-0.8-0.8-1.3-1.2c-0.2-0.2-0.5-0.3-0.8-0.4
			c-1.6-0.2-3.2-0.5-4.8-0.5c-1.3,0-2.6,0.2-3.9-0.2C225.6,112.7,225.5,112.7,225.3,112.7z M218.1,107.3c0.1,1.4,0.1,2.4,0.2,3.5
			c0,0.3,0.1,0.6,0.3,0.8c0.2,0.2,0.4,0.5,0.6,0.5c0.4,0,0.8-0.2,1.3-0.3c2.1-0.6,4.1-1.5,5.9-2.7c1-0.7,1.8-1.5,2.4-2.5
			c0.7-1.2,1.1-2.6-0.5-3.9c-0.4-0.4-0.9-0.7-1.4-1.1c-0.7-0.5-1.6-0.8-2.5-0.8c-1.8,0-3.5,0.3-5,1.3c-0.6,0.4-1.1,1-1.2,1.8
			C218.2,105.1,218.2,106.4,218.1,107.3z"/>
		<path fill-rule="evenodd" clip-rule="evenodd" d="M438.4,113.3c-1.5,0.1-2.9,0.1-4.4,0.2c-0.7,0-1.5,0.1-2.2,0
			c-0.6-0.1-1.1-0.3-1.4-0.9c-0.4-0.9-0.8-1.9-0.8-3c0-0.3,0-0.6,0-0.9c0.1-4.1,0.2-8.2,0.3-12.3c0-1.1,0.7-1.9,1.7-2.3
			c4-1.4,8-1.7,12.1-0.9c0.9,0.2,1.7,0.5,2.4,1c0.5,0.3,0.9,0.8,1,1.4c0.1,0.3,0.1,0.6,0.2,0.9c0.1,1.5,0.6,2.9,1,4.3
			c0.1,0.3,0.3,0.5,0.5,0.7c0.2,0.2,0.5,0.3,0.8,0.4c1.1,0.4,2.1,1,3.1,1.6c1.2,0.7,2.1,1.5,2.8,2.7c0.2,0.4,0.5,0.7,0.8,1.1
			c0.6,0.7,0.7,1.6,0.7,2.5c0,0.4-0.1,0.9-0.1,1.3c-0.2,1.1-0.9,1.9-2,2.1c-1.4,0.3-2.9,0.3-4.3,0.7c-1.1,0.3-2.3,0.2-3.5-0.1
			c-1.5-0.3-2.9-0.3-4.4-0.3C441.3,113.5,439.9,113.4,438.4,113.3C438.4,113.4,438.4,113.3,438.4,113.3z M440.5,111
			c1.2,0,2.3,0.1,3.5-0.1c2.4-0.5,4.8-1.2,7.1-2.3c0.4-0.2,0.7-0.5,1-0.8c0.4-0.4,0.5-1.2,0.1-1.6c-0.5-0.6-1-1.1-1.7-1.4
			c-2.4-0.8-4.7-1.6-7.3-1.5c-0.6,0-1.2-0.2-1.7-0.2c-0.4,0-0.9,0-1.3,0.2c-1.2,0.5-2.4,1-3.6,1.5c-0.9,0.4-1.4,1.3-1.1,2.2
			c0.3,1,0.7,1.9,1,2.9c0.2,0.5,0.5,0.7,1,0.8C438.4,110.8,439.4,110.9,440.5,111z M438.9,95.2c-1.5,0.1-2.8,0.3-4,0.7
			c-0.3,0.1-0.8,0.6-0.8,1c-0.1,1.8,0,3.5,0.6,5.2c0,0.1,0.2,0.2,0.3,0.3c0.1,0.1,0.3,0.2,0.4,0.2c2.5-0.5,4.7-1.7,6.8-3
			c0.7-0.5,1.4-1.1,1.9-1.8c0.4-0.6,0.1-1.6-0.5-1.8C441.9,95.4,440.3,95.4,438.9,95.2z"/>
		<path fill-rule="evenodd" clip-rule="evenodd" d="M421.6,102.8c-0.1,3.4-1.7,5.7-4.7,7c-2.1,0.9-4.5,1.5-6.7,2.2
			c-0.6,0.2-1.2,0.2-1.7,0.3c-3.6,0.4-6.6-0.9-9.2-3.3c-0.1-0.1-0.2-0.2-0.3-0.3c-1.1-1.6-1.9-3.3-2.1-5.3c-0.1-1,0-2.1,0.4-3
			c0.6-1.4,1.3-2.6,2.2-3.8c0.6-0.7,1.2-1.3,2-1.8c0.6-0.3,1.3-0.8,1.9-1.1c1.7-0.9,3.6-1.4,5.5-0.7c0.8,0.3,1.7,0.4,2.6,0.4
			c1.3,0,2.6,0.5,3.9,0.8c0.3,0.1,0.6,0.2,0.8,0.4c1.2,0.8,2.4,1.6,3.5,2.7c1.1,1.1,1.7,2.4,1.8,3.9
			C421.6,101.7,421.6,102.2,421.6,102.8z M411.2,95.9c-0.4,0-0.8,0-1.2,0c-1-0.1-1.7,0.4-2.3,1.1c-1.8,1.8-3.1,3.9-4,6.3
			c-0.3,0.7-0.4,1.4-0.5,2.1c-0.1,0.8,0.1,1.5,0.6,2.1c0.4,0.5,0.7,0.9,1.2,1.3c1,0.7,2.1,1.1,3.3,0.9c1.1-0.2,2.3-0.4,3.4-0.8
			c1.5-0.5,3.1-0.8,4.6-1.6c1.7-0.9,2.7-2.2,2.8-4.2c0-0.7,0-1.5-0.1-2.2c-0.1-0.4-0.3-0.9-0.5-1.2c-0.4-0.6-0.9-1.1-1.5-1.6
			C415.3,96.6,413.5,95.7,411.2,95.9z"/>
		<path fill-rule="evenodd" clip-rule="evenodd" d="M354.7,96.5c2.5-0.1,4.5,0.5,6.3,1.5c1,0.6,1.8,1.5,2.2,2.7
			c0.2,0.7,0.4,1.4,0.6,2.1c0.1,0.3,0.1,0.6,0.1,0.9c-0.3,2.5-0.8,4.9-2.7,6.8c-0.8,0.8-1.7,1.6-2.7,2.2c-1.2,0.8-2.6,1.5-3.9,2
			c-1.7,0.7-3.4,0.6-5.1-0.3c-1.6-0.9-2.8-2.1-3.9-3.5c-0.9-1.2-1.4-2.6-1.6-4.1c-0.3-2.3,0.4-4.4,1.8-6.2c0.4-0.5,0.8-0.9,1.2-1.3
			c0.7-0.7,1.6-1.3,2.6-1.5c1.1-0.3,2.3-0.4,3.4-1C353.6,96.6,354.4,96.6,354.7,96.5z M361.3,104.2c-0.1-2.2-0.8-3.8-3-4.5
			c-0.3-0.1-0.5-0.2-0.8-0.3c-1.1-0.4-2-0.2-2.8,0.6c-1.2,1.1-2.3,2.3-3.4,3.4c-0.5,0.5-0.9,1.2-1.2,1.8c-0.5,0.9-0.8,1.9-0.7,3
			c0.1,1,0.5,2,0.8,3c0.1,0.3,0.4,0.5,0.6,0.6c0.9,0.7,1.9,0.8,2.9,0.4c1.9-0.8,3.7-1.8,5.3-3.1c0.4-0.4,0.9-0.8,1.1-1.3
			c0.4-0.8,0.8-1.6,1.1-2.4C361.3,105,361.3,104.6,361.3,104.2z"/>
		<path fill-rule="evenodd" clip-rule="evenodd" d="M250.6,108.9c0-0.4,0,0,0,0.5c0,2.7,1.1,4.8,2.9,6.7c1.4,1.4,3,1.8,4.9,1.6
			c0.7-0.1,1.4-0.3,2.2-0.5c0.6-0.1,1.2-0.3,1.7-0.3c0.4,0,0.9,0.2,1.1,0.6c0.2,0.4,0.2,0.8,0,1.3c-0.2,0.4-0.5,0.7-0.9,0.9
			c-0.3,0.1-0.5,0.2-0.8,0.3c-2.6,0.4-5.2,0.9-7.8,1.3c-2.4,0.4-4.3-0.5-6.2-1.8c-0.2-0.2-0.4-0.4-0.6-0.6c-1-1.1-1.6-2.5-2-3.9
			c-1.5-6,0.8-12.8,6.6-15.9c0.4-0.2,0.8-0.4,1.2-0.5c1.5-0.3,2.9-0.4,4.4-0.1c0.7,0.2,1.4,0.5,1.8,1.2c0.2,0.3,0.2,0.5,0,0.8
			c-0.2,0.2-0.4,0.5-0.6,0.5c-0.7,0-1.5,0-2.2,0c-0.9-0.1-1.8,0-2.6,0.2c-1.4,0.3-2.3,1.2-2.7,2.6
			C250.6,105.1,250.5,106.5,250.6,108.9z"/>
		<path fill-rule="evenodd" clip-rule="evenodd" d="M269.4,106.9c-0.1-1.6-0.2-3.2-0.2-4.9c0-0.6,0-1.2,0.2-1.8
			c0.1-0.4,0.3-0.8,0.7-1.1c0.5-0.3,1-0.7,1.6-0.8c1.1-0.3,2.3-0.5,3.5-0.7c1.6-0.2,3.2-0.7,4.8-1c0.6-0.1,1.2,0,1.7,0
			c0.4,0,0.8,0.6,0.8,0.9c0,0.5-0.2,0.8-0.6,1.1c-0.6,0.5-1.3,0.7-2,0.8c-1.9,0.3-3.6,1.2-5.3,2c-1,0.5-1.6,1.3-2,2.2
			c-0.5,1.1-0.6,2.3-0.3,3.4c0.1,0.2,0.4,0.5,0.6,0.5c0.6,0.1,1.2,0,1.7,0c0.4-0.1,0.8-0.3,1.3-0.3c0.8-0.1,1.4,0.2,2,0.7
			c0.2,0.2,0.3,1,0.1,1.2c-1.2,1.1-2.6,2-3.8,3c-0.5,0.4-0.9,0.7-1.3,1.2c-0.2,0.3-0.4,0.9-0.2,1.2c0.1,0.4,0.5,0.7,0.9,0.9
			c0.2,0.2,0.6,0.2,0.9,0.2c1,0,2.1,0,3.1,0c1,0,2-0.1,3.1-0.4c1.6-0.4,3.2-0.7,4.8-1c0.6-0.1,1.2,0,1.6,0.4
			c0.4,0.3,0.5,0.7,0.5,1.1c0,0.4-0.4,0.8-0.9,0.9c-1.4,0.3-2.9,0.3-4.4,0.7c-2.5,0.5-4.8,1.3-7.2,2c-1,0.3-1.9,0.9-2.8,1.3
			c-0.8,0.4-1.8-0.3-1.9-1.2c-0.2-2.2-0.4-4.4-0.5-6.6C269.6,111,269.5,109,269.4,106.9C269.4,106.9,269.4,106.9,269.4,106.9z"/>
		<path fill-rule="evenodd" clip-rule="evenodd" d="M374.8,93.2c1.6,0,3.2,0,4.9,0c2.2,0,4.4-0.4,6.5-0.9c0.7-0.2,1.4,0.2,1.9,0.8
			c0.4,0.4,0.3,1.2-0.1,1.6c-0.6,0.5-1.2,0.9-2,0.9c-1.3,0.1-2.6,0.1-4,0.2c-0.4,0-0.9,0.2-1.3,0.3c-0.2,0.1-0.5,0.4-0.6,0.6
			c-0.1,0.3-0.2,0.6-0.2,0.8c0,0.6-0.1,1.2,0,1.8c0.5,3.5,1.1,7,2.3,10.3c0.3,0.8,0.6,1.7,0.8,2.5c0.2,0.6-0.4,1.6-1,1.8
			c-1.1,0.4-2.3,0.5-3.5,0.3c-0.5-0.1-0.8-0.5-0.9-0.9c-0.4-1.1-0.4-2.3-0.9-3.4c-0.2-0.5-0.2-1.2-0.2-1.7c-0.1-2.8-0.2-5.6-0.3-8.4
			c0-0.9-0.2-1.7-0.3-2.6c0-0.2-0.3-0.5-0.6-0.6c-0.7-0.3-1.4-0.3-2.2-0.2c-2.1,0.1-4.1,0.2-6.2,0.3c-0.5,0-1.1-0.6-1.2-1.1
			c0-0.3-0.1-0.6,0-0.9c0.1-0.7,0.8-1.4,1.4-1.5c0.6-0.1,1.2-0.2,1.7-0.2c1.9,0,3.8,0.1,5.7,0.1C374.8,93.1,374.8,93.2,374.8,93.2z"
			/>
		<path fill-rule="evenodd" clip-rule="evenodd" d="M470.3,112.5c-1.7,0.1-3.2-0.6-4.7-1.2c-0.4-0.1-0.7-0.5-1-0.8
			c-0.5-0.7-1-1.5-1.5-2.2c-1.1-1.6-1.2-3.3-0.6-5.1c0.7-2.4,2.2-4.1,4.4-5.2c0.8-0.4,1.6-0.8,2.4-1.1c1.2-0.4,2.3-0.3,3.4,0.3
			c0.8,0.4,1.6,0.8,2.3,1.3s1.5,0.9,2.3,1.3c2.7,1.6,3.3,4.6,2.4,7.3c-0.1,0.4-0.4,0.8-0.6,1.1C476.9,111,473.9,112.4,470.3,112.5z
			 M467.1,106.6c0,0.4,0.3,1.3,0.8,2c0.7,0.9,1.6,1.3,2.7,1.2c1.8-0.1,3.4-0.6,5-1.5c1.2-0.7,1.9-1.8,2.1-3.2
			c0.1-0.6-0.1-1.2-0.3-1.7c-0.5-0.9-1.3-1.6-2.2-2c-1.6-0.7-3.4-0.9-5.1-0.3c-0.3,0.1-0.5,0.2-0.8,0.4
			C467.8,102.7,467.1,104.2,467.1,106.6z"/>
		<path fill-rule="evenodd" clip-rule="evenodd" d="M323.5,115.2c0.6-2.7,0.5-6.1,0.7-9.5c0.1-1.9,0.4-3.8,0.8-5.7
			c0.2-0.8,0.7-1.3,1.5-1.5c3.6-0.8,7.2-1.4,10.8-1.9c0.6-0.1,1.2,0,1.8,0c0.5,0,0.9,0.7,0.8,1.3c-0.2,0.8-0.7,1.3-1.4,1.6
			c-1.2,0.5-2.5,0.8-3.8,1.2c-1.4,0.4-2.8,0.9-4.2,1.4c-0.2,0.1-0.4,0.4-0.6,0.6c-0.1,0.1-0.1,0.3-0.2,0.4c-0.4,2.2-0.8,4.3-1.1,6.5
			c-0.3,1.9-0.2,3.8-0.1,5.7c0.1,0.8-0.4,1.3-1.3,1.5c-0.4,0.1-0.9,0.2-1.3,0.3c-0.3,0.1-0.6,0.2-0.8,0.2
			C324.3,117.5,323.4,116.7,323.5,115.2z"/>
		<path fill-rule="evenodd" clip-rule="evenodd" d="M491.6,97.8c0-0.2,0-0.8,0.1-1.4c0.7-3.4,1-7,1.6-10.4c0.1-0.3,0.2-0.6,0.3-0.8
			c0.2-0.6,0.6-1,1.1-1.4c0.2-0.2,0.5-0.3,0.8-0.4c2-0.9,4-1.7,6.1-2.6c0.3-0.1,1,0,1.2,0.3c0.3,0.4,0.4,0.8,0.3,1.2
			c0,0.1-0.1,0.3-0.1,0.4c-0.2,0.4-0.4,0.8-0.6,1.2c-1.6,3.1-3.2,6.3-4.5,9.5c-0.3,0.8-0.7,1.6-1,2.4c-0.6,1.6-1.1,3.3-1.1,5.1
			c0,1.3-0.8,2.2-1.9,2.8c-0.4,0.2-1.4,0-1.5-0.4C491.9,102.1,491.6,99.5,491.6,97.8z"/>
		<path fill-rule="evenodd" clip-rule="evenodd" d="M277.5,88.2c0.1-0.5,0.2-0.9,0.4-1.3c0.2-0.4,0.5-0.8,0.8-1
			c1.2-0.7,2.5-0.9,3.8-0.6c1.1,0.3,1.9,1.7,1.3,2.8c-0.2,0.4-0.4,0.8-0.7,1.1c-0.5,0.5-1.1,1-1.7,1.4c-1.2,0.9-3.2,0.2-3.7-1.2
			C277.5,89.1,277.5,88.7,277.5,88.2z"/>
		<path fill-rule="evenodd" clip-rule="evenodd" d="M272.4,89.2c0,0.1,0,0.3-0.1,0.4c-0.4,1.6-2.3,2.7-3.8,2.3
			c-0.7-0.2-1.4-0.5-1.9-1c-0.5-0.5-0.7-1.4-0.4-2c0.4-1,1.1-1.7,2.1-2.2c1.6-0.7,3.3-0.1,3.9,1.7C272.3,88.6,272.4,88.9,272.4,89.2
			z"/>
		<path fill-rule="evenodd" clip-rule="evenodd" d="M494.2,108.1c0.2,0.1,0.8,0.1,1.3,0.4c1.4,0.7,1.7,2.6,0.6,3.6
			c-0.8,0.7-1.6,1.2-2.6,1.4c-0.3,0.1-0.6,0.1-0.9,0.1c-1.7,0-2.6-1.4-2.3-2.9C490.7,109,492,108,494.2,108.1z"/>
	</g>
	<path fill-rule="evenodd" clip-rule="evenodd" d="M51.9,54.4c1,0,2,0,3,0c0.4,0,0.6-0.3,0.8-0.5c0.3-0.6,0.8-1.1,0.9-1.8
		c0.3-1.1,0.9-2,1.4-3c0.5-1.1,1.2-2.1,2.1-3c0.8-0.8,1.6-1.6,2.1-2.5c0.2-0.4,0.5-0.7,0.9-1c1.5-1.2,2.7-2.7,4.2-3.7
		c0.7-0.5,0.9-1.2,0.9-2c-0.1-0.7-0.2-1.3-0.4-2c-0.3-1.1-0.7-2.1-1.1-3.2c-0.2-0.5-0.6-0.9-1.1-1.2c-1-0.5-2.1-0.7-3.2-0.5
		c-2.3,0.4-4.4,1.3-6.2,3c-1.4,1.3-2.7,2.6-3.6,4.3c-0.4,0.7-0.7,1.4-0.9,2.1c-0.2,1-0.5,1.9-0.7,2.9c-0.2,1-0.3,2-0.4,3
		c-0.1,0.4-0.3,0.8-0.6,1.2c-0.2,0.2-0.4,0.3-0.6,0.3c-1.4-0.1-2.6-0.7-3.6-1.6c-0.6-0.6-1.2-1.3-1.8-1.9c-1-1.2-2.2-2.2-3.6-3
		c-1.2-0.6-2.2-1.5-3.2-2.4c-1-0.9-2-1.7-3-2.6c-0.7-0.6-1.2-1.3-1.7-2c-0.6-1-0.9-2-0.8-3.2c0-0.9,0.3-1.7,1-2.4
		c1.6-1.4,3.1-2.8,5-3.9c0.6-0.3,1.2-0.6,1.6-1.1c1-1,2.2-1.4,3.5-1.8c2.1-0.6,4.2-1.4,6.3-2.2c1.9-0.7,3.8-1.1,5.8-1.4
		c1.3-0.2,2.6-0.3,4-0.5c0.9-0.1,1.8-0.1,2.7,0c1.3,0.2,2.6,0.4,3.9,0.6c1.7,0.3,3.1,1.1,4.2,2.5c1.6,2.3,3,4.7,3.5,7.5
		c0.1,0.6,0.1,1.1,0,1.7c-0.3,1.6-0.6,3.3-0.8,4.9c-0.1,0.4,0.4,1,0.8,0.9c0.1,0,0.2-0.1,0.3-0.1c0.5-0.2,1-0.4,1.6-0.6
		c1.6-0.5,3-1.3,4.7-1.6c1.6-0.3,3.3-0.7,4.9-1c1-0.2,2-0.3,2.9-0.8c2-0.4,3.9-0.9,5.9-0.9c3.1,0,6.2-0.1,9.3-0.6
		c0.6-0.1,1.1,0,1.6,0.3c0.3,0.2,0.6,0.3,0.9,0.4c0.4,0.2,0.8,0.3,1.3,0.2c3-0.4,6-0.1,9,0.1c2.7,0.2,5.3,0.7,7.9,1.1
		c0.5,0.1,1.1,0.3,1.6,0.3c1.9,0.1,3.7,0.5,5.5,1.3c0.5,0.2,1.1,0.2,1.6,0.1c1.4-0.4,2.8-0.8,4.1-1.2c0.7-0.2,1.5-0.5,2.1-0.9
		c1.3-0.9,2.6-1.7,3.9-2.6c0.8-0.6,1.5-1.3,2.2-2c0.1-0.2,0.3-0.3,0.4-0.5c0.8-1.3,2.4-2.1,3-3.6c0.5-1.4,1.3-2.5,2.1-3.8
		c0.3-0.6,0.6-1.2,0.8-1.8c0.6-1.4,1.3-2.8,1.8-4.3c0.7-1.6,1.9-2.7,3.2-3.8c0.5-0.4,1.2-0.6,1.8-0.8c3.2-0.8,6.4-0.8,9.6-0.3
		c1.8,0.2,3.5,0.4,5.3,0.6c2.5,0.3,5.1,0.4,7.6,0.9c1.3,0.3,2.5,0.8,3.6,1.6c0.4,0.3,0.7,0.6,1,0.8c1.7,1.1,2,2.8,1.9,4.7
		c-0.1,1.3-0.5,2.6-0.8,3.9c-0.3,0.8-0.6,1.7-0.9,2.5c-0.6,1.4-1.1,2.9-1.6,4.4c-0.2,0.6-0.4,1.3-0.7,1.9c-1.2,2.3-1.8,4.8-3,7.1
		c-0.5,1-1.1,1.9-1.7,2.8c-0.6,0.9-1.3,1.8-2,2.6c-0.6,0.8-1.5,1.4-2.4,1.7c-0.3,0.1-0.7,0.1-1,0.1c-1-0.2-1.9-0.7-2.5-1.5
		c-0.7-1-1.4-2-2.1-3c-0.8-1.2-1.7-2.3-2.7-3.3c-0.4-0.4-0.8-0.7-1.2-1.2c-1.6-1.9-3.6-2.9-5.9-3.5c-3-0.8-6.1-1.3-9.2-1.5
		c-2.3-0.1-4.4,0.5-6.3,1.7c-0.9,0.6-1.8,1.3-2.7,1.9c-0.8,0.5-1.1,1.3-1.4,2.2c-0.1,0.3,0.1,0.8,0.3,0.9c0.6,0.5,1.2,0.9,1.9,1.4
		c2.2,1.5,4.3,3.2,6.2,5c2.1,1.9,3.6,4.2,4.4,6.9c0.5,1.7,0.8,3.5,0.5,5.3c-0.3,1.8-0.3,3.5-0.7,5.3c-0.2,1-0.2,2-0.3,3
		c0,0.2,0.4,0.7,0.6,0.7c1.1,0.1,2.2,0.2,3.3,0.2c0.8,0,1.6,0.2,2.3,0.5c3,1.2,6,2.3,8.9,3.7c0.6,0.3,1.1,0.7,1.5,1.3
		c1.9,2.7,3,5.7,3.6,8.9c0,0.2,0.1,0.4,0.2,0.6c0.1,0.3,0.7,0.7,1.1,0.5c0.8-0.3,1.7-0.6,2.5-0.8c1.4-0.3,2.8-0.9,4-1.7
		c1.7-1.1,3.6-1.7,5.1-3c0.1-0.1,0.2-0.5,0.1-0.6c-0.6-0.5-1.2-1-1.8-1.5c-0.8-0.6-0.9-1.5-0.7-2.4c0.1-0.4,0.2-0.9,0.4-1.3
		c0.9-1.8,1.7-3.6,2.7-5.4c1.1-2,1.8-4.1,2.3-6.2c0.4-1.5,0.7-3,1-4.5c0.3-1.4,0.7-2.8,1.2-4.1c1-2.4,1.6-4.8,2.3-7.3
		c0.6-2.2,1.3-4.5,1.8-6.8c0.5-2.1,1-4.1,1.5-6.1c0.4-1.8,0.9-3.7,1.7-5.4c0.1-0.3,0.3-0.6,0.4-0.9c0.6-2.1,1.6-4.1,2.4-6.2
		c0.6-1.6,1.4-3,2.3-4.4c0.6-1.1,1.4-2,2.3-2.8c0.8-0.6,1.4-1.4,2.2-2c0.6-0.5,1.2-0.9,2-1.1c0.4-0.1,0.9-0.2,1.3-0.3
		c0.5-0.1,1.1-0.1,1.7,0c1.6,0.3,3.2,0.8,4.9,1c1.6,0.2,3.1,0.6,4.5,1.1c1.5,0.5,2.9,1,4.4,1.5c2.2,0.7,4.4,1.5,6.5,2.4
		c0.5,0.2,1,0.4,1.6,0.6c0.7,0.2,1.2,0.5,1.8,0.8c1.8,1.1,3.7,2,5.6,2.8c1,0.4,2,0.9,3,1.3c0.4,0.2,0.8,0.4,1.2,0.6
		c3.6,2.3,7.3,4.2,10.9,6.3c0.2,0.1,0.3,0.3,0.5,0.4c0.3,0.2,0.3,1,0.1,1.2c-0.1,0.1-0.1,0.2-0.2,0.3c-1.7,0.9-3,2.3-4.4,3.5
		c-1.2,1-2.2,2.2-3,3.5c-1.5,2.2-2.7,4.6-3.7,7.1c-1.1,2.7-2.1,5.4-3.2,8c-0.3,0.8-0.7,1.6-1.1,2.4c-1.4,3.1-2.7,6.3-3.7,9.6
		c-0.4,1.4-1,2.7-1.5,4.1c-0.5,1.3-1,2.7-1.3,4.1c-0.8,3.1-1.8,6.2-2.8,9.2c-0.7,2.1-1.1,4.3-1.7,6.4c-0.1,0.3-0.2,0.6-0.4,0.9
		c-0.2,0.4-1,0.8-1.4,0.7c-1.1-0.2-2.2-0.4-3.2-0.8c-1.7-0.6-3.3-1.2-5.1-1.6c-0.9-0.2-1.7-0.5-2.5-0.8c-0.7-0.3-1.5-0.4-2.3-0.6
		c-1.5-0.2-3.1-0.4-4.6-0.9c-0.4-0.1-0.9-0.1-1.3-0.1c-1,0.1-2-0.1-3-0.3c-2.3-0.6-4.6-1-6.8-1.4c-1.3-0.3-2.6-0.3-4-0.3
		c-0.6,0-1.1,0.2-1.4,0.7c-0.9,1.4-1.8,2.8-2.7,4.2c-1.1,1.7-2.3,3.3-3.5,4.8c-0.9,1.1-1.8,2.3-2.7,3.4c-0.1,0.2-0.3,0.3-0.4,0.5
		c-0.8,1.8-2.2,3-3.7,4.2c-0.2,0.1-0.3,0.3-0.5,0.5c-0.2,0.2-0.3,0.7-0.1,0.9c0.8,0.7,1.6,1.5,2.5,2.2c0.7,0.6,1.2,1.3,1.7,2
		c0.1,0.2,0.2,0.4,0.3,0.6c1.5,2.5,1.6,2.5,2.2,5.2c0.5,2.2,0.9,4.3,0.8,6.6c0,0.6,0,1.1,0,1.7c0.1,2.6-0.4,5.1-1.3,7.5
		c-0.2,0.6-0.5,1.2-0.7,1.9c-0.7,2.1-1.7,4.1-2.8,6c-0.2,0.4-0.4,0.8-0.7,1.2c-0.7,0.9-0.9,2-0.7,3.1c0.4,2.5,0.2,5.1-0.3,7.6
		c-0.2,0.8-0.3,1.5-0.6,2.2c-0.3,0.7-0.5,1.5-0.8,2.2c-0.6,1.7-1.5,3.2-2.5,4.7c-0.8,1.2-1.6,2.4-2.5,3.6c-0.4,0.6-0.5,1.2-0.4,1.9
		c0.1,1,0.3,2,0.5,3c0.5,2.3,0.8,4.6,1.4,6.8c0.3,1.1,0.6,2.1,1,3.2c0.6,1.8,1.4,3.5,2,5.3c0.3,1.2,0.9,2.3,1.5,3.3
		c0.9,1.9,1.7,3.9,2.4,5.8c0.1,0.2,0.1,0.4,0.1,0.7c0,0.3-0.1,0.7-0.4,0.8c-0.3,0.1-0.6,0.2-0.9,0.3c-0.2,0-0.5,0-0.6-0.2
		c-0.8-1-1.6-1.8-2.5-2.7s-1.9-1.5-2.6-2.5c-0.6-0.3-1-0.8-1.4-1.4c-0.3-0.3-0.6-0.7-0.9-1c-2.8-2.4-5.4-4.9-7.9-7.6
		c-1.2-1.3-2.6-2.4-4.1-3.4c-0.8-0.5-1.6-0.6-2.5-0.3c-0.9,0.4-1.9,0.7-2.8,1.1c-1.2,0.5-2.6,0.7-3.7,1.5c-1.1,0.3-2.1,0.7-3.2,1
		c-1.3,0.4-2.6,0.7-3.8,1.1c-1,0.4-2.1,0.6-3.3,0.7c-0.2,0-0.4,0-0.7,0.1c-2,0.4-4,0.5-5.9-0.2c-2.7-0.4-5.5-0.9-8.3-1
		c-0.7,0-1.3,0.2-1.9,0.5c-2.1,1.4-4.2,2.9-6.5,4.1c-0.3,0.2-0.6,0.3-0.8,0.6c-0.6,0.7-1.4,1.1-2.2,1.4c-1.3,0.5-2.7,0.9-4.1,1.4
		c-1.3,0.4-2.5,0.8-3.8,1.2c-1.2,0.4-2.3,0.7-3.5,0.9c-1.4,0.2-2.8,0.6-4.2,1c-2.1,0.5-4.1,0.9-6.2,0.9c-0.7,0-1.3,0-2,0.1
		c-2.8,0.5-5.5,0.3-8.3,0.4c-1.9,0.1-3.8-0.2-5.6-0.5c-1.8-0.3-3.5-0.7-5.2-0.9c-1.7-0.2-3.3-0.7-4.8-1.2c-0.6-0.2-1.3-0.4-1.9-0.6
		c-1.2-0.3-2.2-0.9-3.2-1.7c-1.3-0.9-2.5-1.8-3.8-2.7c-0.4-0.3-0.8-0.4-1.3-0.3c-2,0.6-4.2,0.7-6.3,0.8c-0.7,0-1.3,0.2-1.8,0.6
		c-0.5,0.5-1.1,0.8-1.7,1.1c-0.9,0.4-1.8,0.9-2.6,1.5c-2.7,2.1-5.5,4.1-8.1,6.4c-0.8,0.7-1.7,1.4-2.6,2.1c-1.6,1.2-3.1,2.6-4.4,4.1
		c-0.9,1.1-2,2-2.8,3.3c-0.1,0.2-0.3,0.3-0.5,0.4c-0.2,0.2-0.7,0.3-0.9,0.1c-0.3-0.2-0.5-0.4-0.6-0.8c0-0.2-0.1-0.4,0-0.7
		c0-0.2,0.1-0.4,0.1-0.6c0.9-2.4,1.9-4.7,2.8-7.1c0.5-1.2,1-2.4,1.6-3.6c0.8-1.6,1.3-3.3,1.9-5c0.4-1.3,0.8-2.5,1.2-3.8
		c0.1-0.3-0.2-0.9-0.6-1.1c-1.9-0.6-3.7-1.5-5.5-2.4c-0.4-0.2-0.8-0.3-1.2-0.5c-4-1.3-5.6-2.1-8.8-4.5c-2.3-1.7-4.5-3.6-6.7-5.5
		c-1.2-1.1-2.1-2.3-2.7-3.7c-0.2-0.5-0.5-1-0.7-1.5c-1.4-2.8-1.8-5.7-1.4-8.8c0.2-1.6,0.5-3.3,0.6-5c0.1-0.9,0.4-1.7,0.7-2.5
		c0.5-1.4,1.1-2.7,1.5-4c0.1-0.2,0.2-0.4,0.2-0.6c0.2-0.7,0.2-1.3-0.2-1.9c-0.8-0.9-1.5-1.9-2-3.1c-0.7-1.5-1.4-3-1.8-4.6
		c-0.3-1-0.5-1.9-0.5-2.9c-0.3-3.4,0.2-6.6,0.8-9.9c0.1-0.4,0.2-0.9,0.4-1.3c0.6-1.7,1.1-3.4,1.8-5c0.8-1.9,1.9-3.5,3.2-5.1
		c0.9-1,1.7-2.1,2.5-3.1c1-1.4,2.1-2.9,3.2-4.2c1-1.2,2.1-2.4,3.3-3.3c1.2-0.9,2.2-1.9,3.4-2.7c1.2-0.8,2.4-1.5,3.6-2.3
		c0.3-0.2,0.5-0.4,0.8-0.6c0.1-0.1,0.2-0.4,0.3-0.6c0.1-0.2,0.1-0.4,0-0.7c-0.3-2.1-0.1-4.2-0.1-6.3c0-2,0.5-4,1.2-5.8
		c1.3-3.7,3.5-6.9,6.2-9.7c1.9-1.9,2.6-2.6,4.4-3.5c2.2-1.1,4.3-2.2,6.8-2.7C48,54.6,49.9,54.5,51.9,54.4z"/>
	<path fill-rule="evenodd" clip-rule="evenodd" fill="#FFFFFF" d="M101.6,97.5c2.6-0.2,5-0.3,7.3-0.5c1.4-0.1,2.9-0.4,4.2-0.8
		c1-0.3,1.9-0.5,2.9-0.6c0.7-0.1,1.3-0.1,2-0.3c2.8-0.9,5.7-1.7,8.6-2.6c0.6-0.2,1.2-0.5,1.8-0.8c0.5-0.3,1-0.5,1.4-0.9
		c1.9-1.3,4-2.5,6-3.5c1.6-0.8,3-1.9,4.3-3.1c1.3-1.3,2.5-2.9,3.3-4.6c0.8-1.8,1.8-3.6,2.7-5.3c1-2,1.8-4,2.6-6.1
		c0.2-0.6,0.5-1.2,0.8-1.8c0.1-0.3,0.4-0.5,0.7-0.7c0.7-0.3,1.5-0.5,2.3-0.5c2.6,0,5.1,0.4,7.5,1.2c3.1,1.1,5.3,3.1,7,5.9
		c0.3,0.5,0.5,1,0.7,1.5c0.7,2,1.2,4,1.5,6.1c0,0.3,0.1,0.7,0.1,1c0,1.6,0,3.1,0,4.7c0,1.5-0.3,2.9-0.6,4.3c0,0.2-0.3,0.4-0.5,0.4
		c-0.4,0.1-0.9,0.2-1.3,0.2c-0.9,0-1.8-0.1-2.7-0.1c-0.5,0-1,0.5-1.2,1c-0.1,0.4,0.3,1,0.7,1c0.1,0,0.2,0.1,0.3,0.1
		c1.9-0.1,3.7,0.4,5.5,1.1c2.5,1,4.9,2.1,7.2,3.5c1.5,0.9,3.1,1.7,4.6,2.7c0.4,0.3,0.7,0.6,0.9,1c1,1.9,1.9,3.8,2.4,5.8
		c0.1,0.6,0.3,1.3,0.5,1.9c0.6,1.2,0.5,2.4,0.3,3.6c-0.1,0.9-0.3,1.8-0.6,2.6c-0.4,1.1-0.7,2.1-0.8,3.2c0,0.4-0.2,0.9-0.4,1.3
		c-0.5,1-1,2-1.7,2.8c-0.9,1.1-1.9,2.2-2.8,3.3c-0.1,0.1-0.2,0.1-0.3,0.2c-0.3,0.3-1.2,0.3-1.6,0c-0.4-0.4-0.8-0.8-1.2-1.1
		c-0.3-0.2-0.5-0.4-0.8-0.6c-0.2-0.1-0.8-0.1-1,0c-0.3,0.2-0.5,0.9-0.3,1.2c0.2,0.3,0.3,0.6,0.5,0.9c0.6,0.7,1.2,1.3,1.7,2
		c2.4,3,3.3,6.5,3.1,10.3c-0.1,0.8-0.2,1.5-0.3,2.3c-0.2,3-0.1,2.5-1.4,5.1c-0.3,0.6-0.5,1.2-0.8,1.8c-0.5,1.3-1.1,2.4-2,3.5
		c-0.1,0.2-0.3,0.3-0.4,0.5c-1.3,2.3-3,4.1-4.9,5.9c-0.5,0.5-1,0.9-1.5,1.3c-0.3,0.3-0.8,0.5-1,0.9c-1,1.4-2.5,2.2-4,3
		c-2.9,1.6-5.9,3-9.1,4c-0.7,0.2-1.5,0.4-2.2,0.8c-2.4,1.2-5.1,1.6-7.6,2.4c-0.5,0.2-1.1,0.2-1.6,0.2c-1.6-0.2-3.3-0.2-4.9-0.8
		c-0.5-0.2-1-0.4-1.5-0.6c-0.7-0.3-1.3-0.8-1.8-1.4c-0.5-0.6-0.9-1.2-1.3-1.9c-0.4-0.6-0.3-1.3,0-1.9c0.3-0.5,0.6-0.9,1-1.3
		c0.2-0.2,0.1-0.7-0.1-0.9c-0.2-0.3-0.8-0.5-1.2-0.3c-0.4,0.2-0.8,0.5-1,0.8c-1.1,1.7-2.5,3.1-3.8,4.6c-1.3,1.4-2.8,2.5-4.1,3.9
		c-0.4,0.5-1,0.9-1.6,1.2c-0.8,0.5-1.8,0.9-2.6,1.4c-0.8,0.4-1.4,1.1-2.2,1.5c-0.4,0.2-0.8,0.3-1.2,0.6c-1.1,1-2.5,1.5-3.9,1.7
		c-2.3,0.4-4.5,1.1-6.6,2.1c-0.8,0.4-1.7,0.6-2.5,0.8c-1.5,0.3-3,0.7-4.6,1c-1.3,0.3-2.6,0.4-4,0.5c-1.6,0.1-3.1,0.2-4.6,0.3
		c-1,0.1-2,0.1-3,0.1c-0.8,0-1.6,0-2.3,0.1c-2.1,0.1-4.2,0-6.3-0.6c-1-0.3-1.9-0.4-2.9-0.5c-3.5-0.3-6.7-1.6-9.9-2.8
		c-1.7-1-3.5-2-5.1-3.1c-0.4-0.3-0.7-0.6-0.9-0.9c-1-1.3-1.9-2.7-2.9-4.1c-0.2-0.3-0.5-0.5-0.7-0.7c-0.2-0.1-0.4-0.1-0.6-0.1
		c-0.3,0-0.6,0.4-0.6,0.7c0,0.2,0,0.5,0,0.6c0.2,0.4,0.4,0.8,0.6,1.2c0.1,0.3,0.1,0.8-0.1,0.9c-1.4,1.2-3,1.9-4.8,2.2
		c-0.7,0.1-1.3,0.2-1.9,0.5c-0.4,0.2-0.9,0.1-1.3,0c-1.5-0.4-2.9-1-4.5-1.3c-2.6-0.4-5.1-1.3-7.7-1.9c-1.6-0.4-3.2-0.9-4.7-1.7
		c-1.2-0.6-2.4-1.2-3.7-1.5c-0.9-0.2-1.6-0.7-2.3-1.2c-0.9-0.7-1.8-1.3-2.9-1.7c-2.3-0.8-4.1-2.3-5.9-3.7c-1.2-1-2.3-2-3.5-3.1
		c-0.9-0.8-1.7-1.8-2.1-3c-0.4-1-0.8-2.1-1.2-3.1c-0.2-0.5-0.2-1.1-0.1-1.6c0.1-0.4,0-0.9-0.2-1.3c-0.4-0.6-0.5-1.2-0.3-1.9
		c0.2-0.6,0.2-1.3,0.4-2c0.3-0.9,0.2-1.7,0.1-2.6c-0.1-0.7,0-1.3,0.4-1.9c0.2-0.2,0.1-0.6,0.2-0.9c0.4-2.1,1.3-4,1.9-6
		c0.6-0.8,0.9-1.8,1.3-2.7c0.7-1.4,1.5-2.7,2.3-4c0.7-1.2,1.5-2.2,2.6-3c0.3-0.2,0.5-0.4,0.7-0.7c0.2-0.2,0.2-0.6-0.1-0.9
		c-0.3-0.3-0.6-0.4-0.9-0.2c-1.1,0.5-2,1.4-2.8,2.3c-0.3,0.3-0.5,0.7-0.8,1.1c-0.4,0.5-1.3,0.5-1.7-0.1c-0.5-0.6-0.9-1.2-1.4-1.9
		c-1.7-2.2-1.8-2.4-2.5-5c-0.4-1.4-0.7-2.8-0.6-4.3c0-0.1,0-0.2,0-0.3c-0.3-2.1,0.3-4,1-5.8c0.3-0.8,0.7-1.6,1.1-2.4
		c0.8-1.7,1.7-3.3,2.9-4.8c1.7-2,3.3-4.2,4.9-6.3c1-1.3,2.1-2.6,3.5-3.6c1.1-0.8,2.1-1.7,3.1-2.5c2.3-1.7,4.9-3.1,7.5-4.2
		c2.4-1,4.8-1.7,7.2-2.5c0.4-0.1,0.5-0.4,0.7-0.7c0.1-0.2,0.1-0.4-0.1-0.6c-0.3-0.3-0.7-0.5-1.2-0.4c-0.7,0.1-1.3,0.3-2,0.4
		c-0.4,0.1-0.9,0-1.3-0.3c-0.5-0.3-1-0.6-1.4-0.9c-0.4-0.2-0.7-0.6-0.9-0.9c-0.9-1.4-1.5-3-1.9-4.6c-0.3-1.1-0.2-2.2,0.3-3.2
		c1.2-2.5,2.6-4.9,4.6-6.9c1.9-2,3.9-4,6.2-5.5c1.1-0.7,2.3-1.3,3.7-1.5c0.3-0.1,0.7-0.1,1-0.2c2.4-0.8,4.8-0.8,7.2-0.7
		c0.3,0,0.7,0.1,1,0.2c0.2,0,0.6,0.5,0.5,0.8c0,0.2,0,0.5-0.1,0.7c-0.5,1.4-0.6,2.8-0.7,4.3c0,0.8-0.1,1.6-0.2,2.3
		c-0.1,1.2-0.3,2.4,0,3.6c-0.3,1.5,0.1,2.9,0.2,4.3c0.1,2.2,0.9,4.1,2,5.9c1.6,2.7,3.7,5,6.3,6.7c0.7,0.4,1.3,0.9,1.9,1.3
		c0.5,0.3,1,0.5,1.5,0.8c0.8,0.4,1.6,0.7,2.5,1c0.9,0.4,1.8,0.8,2.6,1.4c0.6,0.5,1.3,0.8,2,1.1c0.7,0.3,1.4,0.6,2.1,1
		c2.6,1.6,5.4,2.5,8.3,3.3c1,0.3,1.9,0.5,2.9,0.8c2.8,0.8,5.6,1.4,8.5,1.7c1.2,0.1,2.4,0.1,3.7,0.1C99.5,97.6,100.7,97.2,101.6,97.5
		z"/>
	<path fill-rule="evenodd" clip-rule="evenodd" fill="#00B4CB" d="M248.2,21.4c0.1,0,0.2-0.1,0.3,0c1.4,0.5,2.6,1.2,3.8,2
		c0.2,0.2,0.3,0.7,0.1,0.9c-0.8,0.8-1.6,1.5-2.4,2.2c-0.6,0.6-1.3,1.2-1.9,1.9c-1.1,1.1-2.1,2.3-2.8,3.7c-1.7,2.4-2.8,5-3.9,7.7
		c-0.3,0.6-0.5,1.3-0.7,1.9c-0.5,1.2-0.9,2.5-1.5,3.7c-0.5,1.1-0.9,2.3-1.3,3.4c-0.7,1.8-1.2,3.6-2.2,5.2c-0.3,0.5-0.4,1-0.5,1.6
		c-0.2,1.1-0.7,2.1-1,3.2c-0.2,1.1-0.7,2.1-1.1,3.1c-0.7,2-1.2,4-1.8,6.1c-0.2,0.7-0.4,1.5-0.6,2.2c-1.1,3.1-2.1,6.3-2.8,9.6
		c-0.1,0.5-0.4,1-0.6,1.6c-0.1,0.3-0.5,0.6-0.8,0.5c-0.7-0.2-1.5-0.5-2.2-0.7c-1.3-0.5-2.7-1-4.1-1.3c-0.7-0.1-1.3-0.3-1.9-0.5
		c-1.2-0.4-2.3-0.6-3.6-0.8c-1.3-0.2-2.6-0.5-3.9-0.8c-1.1-0.3-2.2-0.5-3.3-0.6c-3.3-0.5-6.6-1-9.9-1.4c-0.8-0.1-1.5-0.1-2.3-0.2
		c-0.2,0-0.4-0.3-0.3-0.5c0-0.2,0.1-0.4,0.2-0.6c0.4-0.9,0.8-1.8,1.5-2.6c1-1.1,1.4-2.5,1.9-3.8c0-0.1,0-0.2,0-0.3
		c0.1-0.4-0.5-1.1-1-1.1c-1.3-0.1-2.4,0.3-3.4,1.1c-1.8,1.3-3.7,2.4-5.6,3.6c-0.3,0.2-0.6,0.3-0.9,0.4c-0.2,0.1-0.4,0.2-0.6,0.1
		c-1.1-0.2-2.1-0.5-3-1.3c-0.2-0.2-0.5-0.9-0.3-1.2c0.6-1.2,0.7-2.5,1.4-3.7c0.6-1.1,1-2.2,1.4-3.4c0.3-0.8,0.7-1.6,1-2.5
		c0.4-1.2,0.8-2.3,1-3.5c0.6-2.8,1.3-5.6,2.3-8.3c0.9-2.4,1.4-4.9,2.1-7.3c0.2-0.6,0.3-1.3,0.4-2c0.1-0.5,1-3.5,1.1-4.1
		c0.2-0.5,0.4-1,0.5-1.6c0.6-3.5,1.7-6.6,3-10.5c0.2-0.5,0.4-1,0.5-1.6c0.4-1.9,1.4-3.5,2-5.3c0.1-0.3,0.3-0.6,0.5-0.9
		c0.7-1.1,1.4-2.3,2.1-3.4c0.9-1.5,2.1-2.8,3.5-4c0.3-0.3,0.8-0.5,1.2-0.5c0.7-0.1,1.3-0.2,2-0.2c2.7,0.1,5.3,0.4,7.8,1.3
		c0.3,0.1,0.7,0.2,0.9,0.3c2,1.2,4.3,1.7,6.5,2.6c0.8,0.4,1.7,0.3,2.5,0.8c0.6,0.4,1.4,0.6,2.2,0.8c1,0.4,2.2,0.4,3.2,0.9
		c0.9,0.5,1.8,0.9,2.6,1.4c0.6,0.3,1.2,0.6,1.8,0.9c1.9,0.7,3.6,1.6,5.3,2.8C244.5,19.5,246.4,20.4,248.2,21.4l-0.1-0.1L248.2,21.4z
		"/>
	<path fill-rule="evenodd" clip-rule="evenodd" fill="#FFFFFF" d="M55.7,65.9c0-0.9,0.1-1.3,0.1-1.7c0.1-2.6,0.4-5.1,1.4-7.5
		c0.4-2.2,1.4-4.2,2.5-6.1c1.1-2,2.3-3.8,4-5.3c0.8-0.7,1.5-1.6,2.4-2.3c0.5-0.4,0.9-1,1.4-1.4c0.3-0.3,0.5-0.7,0.9-1
		c1.9-1.7,4.1-3.1,6.3-4.2c0.8-0.4,1.6-0.7,2.4-1.1c0.7-0.3,1.5-0.5,2.2-0.6c1.3-0.1,2.6-0.4,3.9-0.8c3.8-1.1,7.7-1.1,11.5-0.2
		c1.8,0.4,3.7,0.8,5.6,1c0.6,0.1,1.1,0.3,1.5,0.6c0.7,0.5,1.4,1,2.1,1.6c1.6,1.2,3.2,2.4,4.7,3.7c0.8,0.7,1.4,1.5,1.8,2.3
		c0.5,1,1,2,1.5,2.9c0.4,0.7,0.6,1.4,0.7,2.2c0.2,1,0.5,1.9,0.7,2.9c0.3,1,0.4,2,0.4,3c0.2,1.9,0,3.8-0.6,5.6
		c-0.5,1.4-0.7,2.8-1.3,4.1c-0.8,1.9-1.8,3.8-2.7,5.7c0,0.1-0.1,0.2-0.2,0.3c-1.8,2.2-3.4,4.7-5.6,6.6c-1.4,1.2-3,2.3-4.6,3.2
		c-1.5,0.8-2.9,1.5-4.4,2.3c-0.5,0.2-1,0.5-1.5,0.6c-2.4,0.7-4.6,1.5-6.9,2.5c-2,0.9-4,1.3-6.1,1.6c-1.8,0.2-3.5,0.3-5.3,0.6
		c-0.4,0.1-0.9,0.1-1.3,0c-1.5-0.3-3.1-0.4-4.5-0.9c-1.6-0.5-3.1-1-4.5-2.1c-0.5-0.4-1.1-0.8-1.7-1.1c-1.7-1-2.9-2.3-3.9-4
		c-0.8-1.3-1.7-2.6-2.2-4.1c-0.2-0.6-0.4-1.3-0.5-1.9c-0.1-1.8-0.3-3.5-0.4-5.3C55.7,66.8,55.7,66.1,55.7,65.9z"/>
	<path fill-rule="evenodd" clip-rule="evenodd" fill="#FFFFFF" d="M122.7,89.3c-3.9-0.1-6.9-0.6-9.9-1.4c-0.4-0.1-0.9-0.3-1.2-0.5
		c-0.7-0.4-1.3-0.8-2.1-1.1c-0.5-0.2-1-0.5-1.4-0.9c-1.4-1.3-2.8-2.5-4.4-3.6c-0.5-0.3-0.8-0.7-1.1-1.2c-0.2-0.3-0.1-0.7,0.1-0.9
		c0.2-0.1,0.3-0.3,0.5-0.4c2-1.2,3.6-2.9,5-4.8c0.8-1.1,1.7-2,2.4-3.2c0.6-1,1-2.2,1.6-3.3c0.6-1.1,1-2.2,1.5-3.3
		c1-2.2,1.6-4.6,2.1-7c0.1-0.4,0.2-0.9,0.2-1.3c0.1-3.6-0.3-7.1-1.6-10.4c-0.2-0.6-0.6-1.2-0.8-1.8c-0.4-0.9-0.8-1.8-1.2-2.7
		c-0.2-0.4,0.1-0.9,0.4-1.2c2.7-1.6,5.4-3,8.4-3.9c0.7-0.2,1.5-0.4,2.3-0.5c1.1-0.1,2.2-0.3,3.3-0.5c2-0.3,4-0.1,5.9,0.6
		c1.5,0.5,2.9,1.1,4.4,1.6c0.8,0.3,1.6,0.7,2.3,1.3c2,1.5,4,3.2,5.9,4.9c1.2,1,2,2.3,2.8,3.7c0.2,0.4,0.4,0.8,0.5,1.2
		c0.3,1.3,0.5,2.6,0.6,3.9c0,0.3,0,0.7-0.1,1c-0.3,1.8-0.4,3.5-0.4,5.3c0,0.7,0,1.3-0.1,2c-0.1,0.5-0.1,1.1-0.3,1.6
		c-0.8,3.2-1.9,6.4-3.3,9.4c-1.5,3.1-3.1,6.1-5,9c-0.4,0.7-0.9,1.3-1.4,1.8c-1.6,1.6-3.3,3-5.4,3.9c-0.3,0.1-0.6,0.3-0.9,0.5
		c-2.7,1.4-2.7,1.4-5.6,1.9C125.3,89.1,123.6,89.2,122.7,89.3z"/>
	<path fill-rule="evenodd" clip-rule="evenodd" d="M67.3,129.2c0.7-0.5,1.4-1,2.2-1.5c0.7-0.5,1-1.1,1.1-1.9c0.1-1,0.1-2,0.1-3
		c0-0.9,0.2-1.8,0.4-2.6c0.3-1.1,1.1-1.9,2.2-2.3c0.3-0.1,0.7-0.1,1-0.2c2.5-0.9,5.2-1.2,7.9-1.2c1.3,0,2.6-0.2,3.9-0.5
		c0.4-0.1,0.9-0.1,1.3,0.1c0.3,0.1,0.6,0.4,0.6,0.7c0,0.3,0,0.7-0.2,0.9c-0.7,0.6-1.4,1.1-2.1,1.6c-0.9,0.6-1.5,1.3-2.1,2.1
		c-0.7,1-1.4,2-1.9,3.1c-0.2,0.5-0.3,1.1-0.1,1.6c0.2,0.5,0.4,1,0.5,1.6c0.1,0.7,0.8,1,1.5,0.8c1.6-0.4,3.1-1.1,4.6-1.9
		c1.6-0.9,3-1.8,4.5-2.9c0.3-0.2,0.9-0.2,1.2,0.1c0.6,0.6,0.7,1.4,0.6,2.2c-0.1,0.5-0.4,1-0.6,1.5c-0.5,1.2-1,2.4-1.3,3.8
		c-0.2,1.1-0.7,2.1-1.3,3.1c-0.3,0.6-0.5,1.2-0.7,1.9c-0.1,0.3-0.2,0.6-0.3,0.9c-0.5,1.1-1.4,1.7-2.6,1.8c-1,0-2,0-3,0.1
		c-1.9,0.3-3.8-0.1-5.5-0.9c-0.6-0.3-1.3-0.4-1.9-0.4c-1.1,0-2.2,0.2-3.2,0.8c-1.1,0.7-2.3,1.4-3.4,2c-1.7,0.9-3.1,2.2-4.3,3.7
		c-1,1.3-2.1,2.6-3.2,3.8c-2.3,2.7-4.1,5.8-5.6,9c-0.4,1.4-1.2,2.6-2.2,3.6c-0.2,0.2-0.3,0.3-0.5,0.5c-2.2,0.5-4.6,0.7-6.9,0.8
		c-1,0-2,0-3,0.1c-2,0-4,0.2-5.9,0.6c-0.6,0.2-1.3,0.2-2,0.1c-0.5-0.1-0.8-0.3-1-0.7c0-0.1-0.1-0.2-0.1-0.3c-0.2-0.4-0.2-1,0.2-1.2
		c0.9-0.6,1.4-1.4,2.2-2.1c0.3-0.1,0.6-0.2,1-0.2c2.1-0.2,3.8-1.1,5.4-2.5c0.8-0.6,1-1.4,0.8-2.4c0-0.2-0.2-0.5-0.3-0.6
		c-0.7-0.4-1.3-0.8-2-1.2c-1.5-0.7-2-0.6-3.4,0.2c-1,0.5-1.9,1.2-2.5,2.1c-0.4,0.6-0.9,1.3-1.5,1.8c-0.5,0.5-0.8,1-1.1,1.6
		c-0.2,0.4-0.7,0.6-1.1,0.6c-1,0-2-0.3-2.8-0.8c-0.5-0.3-0.8-0.8-0.8-1.4c0-0.4,0.1-0.9,0.1-1.3c0-0.4,0.1-0.9-0.1-1.3
		c-0.6-1.3-0.4-2.6-0.3-3.9c0.1-1.4,0.4-2.9,1-4.2c0.2-0.4,0.3-0.8,0.5-1.2c0.3-0.6,0.7-1.1,1.3-1.4c1.2-0.6,2.3-1.3,3.6-1.8
		c1.5-0.6,2.9-1.2,4.3-1.8c0.4-0.2,0.8-0.3,1.3-0.4c0.4-0.1,1-0.2,1.3,0.1c1.6,1.2,3.4,1.6,5.3,1.9c0.2,0,0.4,0.1,0.7,0.1
		c0.2,0,0.5,0,0.6-0.1c0.8-0.4,1.5-0.9,2.3-1.4c0.2-0.1,0.2-0.4,0.1-0.6c-0.1-0.1-0.1-0.2-0.2-0.3c-2.1-1.5-3.9-3.3-5.4-5.4
		c-0.7-1-1.7-1.7-2.3-2.8c-0.5-1-1.1-1.9-1.6-2.9c-0.7-1.3-1.3-2.6-2-3.8c-0.2-0.3,0-0.9,0.3-1.2c0.4-0.3,0.9-0.6,1.3-1
		c0.3-0.3,0.6-0.6,0.9-1c0.2-0.4,0.5-0.7,0.9-0.9c1-0.5,1.9-1.2,2.8-1.7c1.4-0.8,2.9-1.7,4.4-2.4c1.2-0.6,2.4-1.2,3.4-2
		c0.5-0.4,1.5-0.2,1.7,0.4c0.3,0.7,0.7,1.4,0.7,2.2c0.1,1,0.2,2,0.3,3c0.2,2.9,0.9,5.7,1.5,8.5c0.3,1.5,0.7,3,1.1,4.5
		c0.1,0.3,0.3,0.6,0.4,0.9c0.1,0.2,0.6,0.5,0.9,0.4c0.1,0,0.2,0,0.3-0.1c1-0.5,2.1-0.9,3-1.4c0.7-0.5,1.5-0.9,2.2-1.4
		C66.8,129.9,67.1,129.5,67.3,129.2l0.2-0.1L67.3,129.2z"/>
	<path fill-rule="evenodd" clip-rule="evenodd" d="M16.1,103.1c0.1,0.3,0.1,0.7,0,1c-0.6,1.2-1.1,2.4-1.6,3.7
		c-0.4,1.3-0.7,2.6-0.6,3.9c0,1.9,0.1,3.8,0.8,5.6c0,0.1,0,0.2,0,0.3c0.1,0.3-0.1,0.6-0.5,0.7c-0.3,0.1-0.4,0-0.6-0.2
		c-0.3-0.5-0.5-1-0.6-1.5c-0.3-2-0.3-4-0.3-6c0-0.2,0-0.4,0.1-0.7c0.6-2.3,1.2-4.5,2.7-6.4C15.7,103.3,16,103.2,16.1,103.1
		L16.1,103.1z"/>
	<path fill-rule="evenodd" clip-rule="evenodd" d="M12.5,147.5c-0.4,2.6-0.1,4.5,0.9,6.3c0.5,0.9,1.1,1.7,1.9,2.3
		c0.5,0.4,1.1,0.8,1.6,1.2c0.2,0.2,0.2,0.4,0,0.5c-0.1,0.1-0.2,0.1-0.3,0.1c-0.3-0.1-0.7-0.1-0.9-0.2c-0.9-0.5-1.6-1.2-2.2-1.9
		c-0.2-0.2-0.4-0.5-0.5-0.8c-0.4-0.9-0.9-1.8-1.2-2.7c-0.5-1.6-0.6-3.2-0.4-4.9c0-0.4,0.3-0.8,0.4-1.2c0.1-0.2,0.4-0.3,0.6-0.1
		c0.2,0.1,0.3,0.3,0.4,0.5c0.1,0.2,0,0.4,0,0.6C12.5,147.4,12.4,147.7,12.5,147.5z"/>
	<path fill-rule="evenodd" clip-rule="evenodd" d="M166.1,156.5c-0.1,0.2-0.2,0.4-0.4,0.5c-0.4,0.4-0.8,0.8-1.2,1.1
		c-3.2,2.2-6.5,4.1-10.2,5.4c-1,0.3-1.9,0.5-2.9,0.3c-0.3-0.1-0.4-0.2-0.3-0.5c0-0.1,0.1-0.2,0.1-0.3c0.1-0.1,0.2-0.1,0.3-0.2
		c0.3-0.1,0.6-0.2,1-0.3c3.8-0.8,7.3-2.3,10.5-4.5c0.7-0.5,1.4-1,2.2-1.5C165.5,156.4,165.8,156.4,166.1,156.5L166.1,156.5z"/>
	<path fill-rule="evenodd" clip-rule="evenodd" d="M160.4,71c-0.8-0.2-1.7-0.3-2.5-0.5c-1.9-0.5-3.9-0.8-5.9-1
		c-0.2,0-0.4-0.1-0.6-0.2c-0.2-0.1-0.3-0.3-0.4-0.5c-0.1-0.2,0.3-0.7,0.6-0.7c0.1,0,0.2,0,0.3,0c0.8,0.1,1.5,0.2,2.3,0.4
		c0.5,0.1,1.1,0.2,1.6,0.4c1.4,0.5,2.7,0.9,4.1,1.2c0.2,0,0.4,0.2,0.6,0.3c0.3,0.1,0.7,0.5,0.6,0.6C160.9,70.9,160.7,70.9,160.4,71z
		"/>
	<path fill-rule="evenodd" clip-rule="evenodd" d="M20.6,103.7c0.1,0.3,0.2,0.6,0.1,0.9c0,0.1-0.1,0.2-0.1,0.3
		c-1.5,2.5-2.1,5.3-1.9,8.2c0,0.2-0.2,0.4-0.4,0.4c-0.1,0-0.2,0-0.3-0.1c-0.2-0.1-0.3-0.3-0.4-0.5c-0.2-0.6-0.4-1.3-0.2-1.9
		c0.4-2.4,1.2-4.7,2.8-6.6C20.3,104.1,20.5,103.9,20.6,103.7C20.7,103.6,20.6,103.7,20.6,103.7z"/>
	<path fill-rule="evenodd" clip-rule="evenodd" d="M66.1,173c-0.3,0.1-0.7,0.1-1,0c-0.7-0.4-1.3-0.8-1.8-1.4c-1.1-1.1-2-2.3-2.9-3.7
		c-0.1-0.1-0.1-0.2-0.1-0.3c-0.1-0.2,0-0.9,0.2-0.9c0.2,0,0.5,0.1,0.6,0.3c0.3,0.4,0.7,0.9,0.9,1.4c0.7,1.2,1.7,2.3,2.7,3.3
		c0.4,0.4,0.8,0.7,1.2,1.1C66.1,172.8,66.1,173,66.1,173L66.1,173z"/>
	<path fill-rule="evenodd" clip-rule="evenodd" d="M73.6,173.2c0,0.1-0.1,0.2-0.1,0.2c-0.3,0.2-0.6,0.2-1,0.1
		c-2.4-1-4.5-2.5-6.2-4.3c-0.1-0.1-0.2-0.2-0.2-0.3c0-0.2,0-0.4,0.1-0.6c0.1-0.3,0.3-0.3,0.5-0.1c0.7,0.6,1.3,1.2,2,1.8
		c1.3,1.3,2.8,2.2,4.5,2.8C73.4,172.8,73.5,173.1,73.6,173.2z"/>
	<path fill-rule="evenodd" clip-rule="evenodd" d="M40.8,64.5c0-0.5,0.1-0.9,0.5-1.2c0.2-0.2,0.5-0.5,0.7-0.7c1.7-1,3.6-1.7,5.6-2
		c0.2,0,0.4,0,0.7,0.1c0.3,0,0.6,0.5,0.5,0.8c0,0.2-0.2,0.4-0.4,0.4c-0.3,0.1-0.7,0.1-1,0.1C46.9,62,46.4,62,46,62.1
		c-1.7,0.3-3.2,0.8-4.4,2.1C41.3,64.4,41,64.5,40.8,64.5L40.8,64.5z"/>
	<path fill-rule="evenodd" clip-rule="evenodd" d="M164,154.4c-0.1,0.2-0.1,0.5-0.3,0.6c-1.5,1.1-3.2,1.9-5,2.6
		c-0.8,0.3-1.7,0.4-2.6,0.6c-0.2,0-0.4-0.1-0.5-0.3c-0.1-0.3,0.1-0.5,0.3-0.5c2.4-0.5,4.6-1.5,6.7-2.6
		C163.2,154.5,163.6,154.4,164,154.4C164.1,154.4,164,154.4,164,154.4z"/>
	<path fill-rule="evenodd" clip-rule="evenodd" d="M160,74.5c-0.7-0.1-1.3-0.1-2-0.2c-1.5-0.4-3-0.6-4.6-0.6c-0.3,0-0.6-0.2-0.9-0.4
		c-0.1,0-0.1-0.2-0.1-0.3c-0.1-0.2,0-0.4,0.3-0.4c0.8-0.2,1.5-0.1,2.3,0c1.5,0.3,3,0.6,4.4,1.3C159.8,74,160,74.2,160,74.5L160,74.5
		z"/>
	<path fill-rule="evenodd" clip-rule="evenodd" d="M42.2,67.8c-0.1-0.6,0.2-1.1,0.6-1.5c0.6-0.6,1.3-1.1,2.1-1.5
		c0.9-0.4,1.9-0.6,2.9-0.5c0.3,0,0.4,0.2,0.4,0.4c0,0.1-0.1,0.2-0.2,0.3c-0.2,0.1-0.4,0.2-0.6,0.2c-1.8,0.5-3.5,1.2-4.9,2.4
		C42.4,67.8,42.2,67.7,42.2,67.8L42.2,67.8z"/>
	<path fill-rule="evenodd" clip-rule="evenodd" d="M177.5,102.3c-0.2,0-0.4,0.1-0.6,0.1c-0.2,0-0.4-0.2-0.6-0.3
		c-1.2-1.1-2.6-2-4.2-2.5c-0.2-0.1-0.3-0.3-0.4-0.5c-0.1-0.2,0-0.4,0.2-0.5c0.3,0,0.7,0,0.9,0.1C174.8,99.5,176.3,100.7,177.5,102.3
		L177.5,102.3z"/>
	<path fill-rule="evenodd" clip-rule="evenodd" d="M176.3,107c0.1,0.2,0.3,0.8,0.5,1.4c0,0.1-0.1,0.2-0.1,0.3c-0.1,0-0.2,0.1-0.3,0
		c-0.2-0.1-0.3-0.3-0.4-0.5c-0.8-1.3-1.5-2.7-2.3-4c-0.1-0.2,0-0.5,0.2-0.6c0.2-0.1,0.4-0.1,0.6,0.1c0.2,0.2,0.5,0.5,0.6,0.8
		C175.5,105.2,175.8,105.9,176.3,107z"/>
	<path fill-rule="evenodd" clip-rule="evenodd" d="M18.1,155.1c-0.3,0-0.6-0.1-0.9-0.3c-0.2-0.1-0.3-0.3-0.4-0.5
		c-0.9-1.3-1.5-2.7-1.5-4.3c0-0.3,0.1-0.6,0.2-1c0.1-0.3,0.3-0.4,0.4-0.2c0.1,0.1,0.2,0.1,0.2,0.2c0.1,0.1,0.1,0.2,0.1,0.3
		c0.2,1.9,0.7,3.7,1.8,5.3C18.2,154.7,18.1,155,18.1,155.1L18.1,155.1z"/>
	<path fill-rule="evenodd" clip-rule="evenodd" d="M180.1,107.1c-0.1,0-0.2,0-0.3-0.1c-0.1,0-0.2-0.1-0.2-0.2
		c-0.6-1.1-1.3-2.2-1.9-3.3c-0.1-0.2-0.2-0.4-0.3-0.6c0-0.2,0.1-0.4,0.1-0.6l-0.1,0.1c1.1,0.9,1.9,2.1,2.5,3.4
		C180.1,106.2,180.1,106.7,180.1,107.1L180.1,107.1z"/>
	<path fill-rule="evenodd" clip-rule="evenodd" d="M66.1,173.1c0.1,0,0.2,0,0.3,0c0.7,0.3,3.2,1.7,4.2,2.4c0.1,0.1,0.1,0.2,0.1,0.3
		l0.1-0.1c-0.6,0-1.1-0.1-1.6-0.3c-1-0.5-2-1-2.8-1.8C66.2,173.5,66.2,173.2,66.1,173.1L66.1,173.1z"/>
	<path fill-rule="evenodd" clip-rule="evenodd" d="M70.7,175.8c0.4-0.1,0.9-0.1,1.3,0.1c0.8,0.3,1.6,0.6,2.4,0.8
		c-0.4,0.4-1,0.3-1.5,0.2c-0.7-0.1-1.4-0.4-2-0.9C70.8,175.9,70.8,175.8,70.7,175.8L70.7,175.8z"/>
	<path fill-rule="evenodd" clip-rule="evenodd" d="M16.1,103.1c0.2-1.1,0.9-2,1.8-2.7c0.1-0.1,0.2-0.1,0.3-0.1
		c0.3,0.1,0.3,0.3,0.1,0.5c-0.6,0.7-1.1,1.4-1.7,2C16.5,103.1,16.3,103.1,16.1,103.1L16.1,103.1z"/>
	<path fill-rule="evenodd" clip-rule="evenodd" d="M168.9,153.9c0-0.2-0.1-0.4,0-0.6c0.1-0.2,0.2-0.2,0.2,0
		C169.1,153.5,169,153.7,168.9,153.9L168.9,153.9z"/>
	<path fill-rule="evenodd" clip-rule="evenodd" d="M180,107.1c0.2,0,0.4,0.1,0.4,0.3c0.1,0.3,0,0.4-0.3,0.4c-0.1,0-0.1-0.1-0.2-0.2
		C179.9,107.4,180,107.2,180,107.1L180,107.1z"/>
	<path fill-rule="evenodd" clip-rule="evenodd" d="M40.7,64.4c0.1,0.2,0.2,0.4,0.1,0.6c-0.1,0.3-0.2,0.4-0.4,0.2
		c-0.1-0.1,0-0.2,0-0.3C40.4,64.6,40.5,64.5,40.7,64.4L40.7,64.4z"/>
	<path fill-rule="evenodd" clip-rule="evenodd" d="M168.8,153.8c-0.2,0.3-0.4,0.6-0.8,0.5l0.1,0.1
		C168.2,154,168.4,153.8,168.8,153.8L168.8,153.8z"/>
	<path fill-rule="evenodd" clip-rule="evenodd" d="M164.7,153.7c-0.1,0.6-0.1,0.6-0.7,0.7c0,0,0.1,0.1,0.1,0.1
		C164.1,153.8,164.1,153.8,164.7,153.7L164.7,153.7z"/>
	<path fill-rule="evenodd" clip-rule="evenodd" d="M166.2,156.5c-0.1-0.6-0.1-0.6,0.6-0.8l-0.1-0.1
		C166.7,156.2,166.4,156.4,166.2,156.5L166.2,156.5z"/>
	<path fill-rule="evenodd" clip-rule="evenodd" d="M164.7,153.8c0-0.5,0-0.5,0.6-0.7l-0.1-0.1C165.3,153.6,165.3,153.6,164.7,153.8
		L164.7,153.8z"/>
	<path fill-rule="evenodd" clip-rule="evenodd" d="M20.7,103.6c0.3,0.3-0.3,0.2,0.1,0.1C20.9,103.7,20.8,103.6,20.7,103.6
		L20.7,103.6z"/>
	<path fill-rule="evenodd" clip-rule="evenodd" d="M165.3,153.1c0.1-0.2,0.2-0.3,0.3-0.2c0,0.1-0.1,0.1-0.1,0.2
		C165.4,153,165.4,153,165.3,153.1L165.3,153.1z"/>
	<path fill-rule="evenodd" clip-rule="evenodd" d="M159.9,74.6c0.1,0,0.2,0,0.2,0C160.2,74.7,160.2,74.7,159.9,74.6L159.9,74.6z"/>
	<path fill-rule="evenodd" clip-rule="evenodd" d="M166.7,155.8c0-0.4,0.2-0.6,0.5-0.8l-0.1-0.1
		C167.3,155.5,167.3,155.5,166.7,155.8L166.7,155.8z"/>
	<polygon fill-rule="evenodd" clip-rule="evenodd" points="42.1,67.7 42.1,67.9 42.2,67.8 	"/>
	<polygon fill-rule="evenodd" clip-rule="evenodd" points="18.1,155.2 18.3,155.1 18.1,155.1 	"/>
	<path fill-rule="evenodd" clip-rule="evenodd" d="M168,154.3c-0.1,0.7-0.2,0.7-0.8,0.6l0.1,0.1C167.4,154.7,167.7,154.4,168,154.3
		L168,154.3z"/>
	<path fill-rule="evenodd" clip-rule="evenodd" d="M211.5,33.7c-0.1,0.3-0.1,0.6-0.3,0.9c-0.2,0.3-0.4,0.5-0.6,0.8
		c-2.4,2.3-4.6,4.8-6.4,7.6c-0.5,0.8-1.1,1.4-1.6,2.1c-0.2,0.3-0.6,0.2-0.8-0.2c-0.2-0.3-0.4-0.6-0.5-0.9c-0.7-1.6-1.1-3.4-1.5-5.1
		c-0.2-0.9-0.5-1.7-1-2.4c-0.1-0.1-0.1-0.2-0.1-0.3c-0.1-0.2,0.1-0.8,0.3-0.9c0.3-0.2,0.7-0.2,0.9,0c0.6,0.4,1,0.9,1.3,1.5
		c0.4,0.8,0.7,1.6,1.1,2.4c0.2,0.4,0.8,0.5,1.1,0.1c0.1-0.2,0.3-0.3,0.4-0.5c0.2-0.3,0.3-0.6,0.5-0.9c0.8-1.3,1.8-2.5,3.3-3.2
		c0.9-0.4,1.7-1.1,2.5-1.6c0.3-0.2,0.7-0.2,1,0C211.3,33.3,211.4,33.5,211.5,33.7z"/>
	<path fill-rule="evenodd" clip-rule="evenodd" d="M205.7,28.9c-0.1-0.1-0.3-0.1-0.3-0.1c-0.2-0.1-0.4-0.3-0.5-0.5
		c-0.8-2.2-1.4-4.4-1.9-6.7c-0.1-0.3,0.2-0.6,0.4-0.8c0.2-0.2,0.8-0.1,0.9,0.1c0.2,0.4,0.4,0.8,0.6,1.1c0.3,0.5,0.3,1.1,0.7,1.5
		c0.1,0.1,0.4,0.3,0.6,0.2c0.8-0.2,1.5-0.5,2-1.1c1.1-1.3,2.6-2.1,4-2.9c1.3-0.8,2.7-1.5,4-2.3c0.1-0.1,0.7,0.2,0.8,0.5
		c0.1,0.2,0.1,0.5-0.1,0.6c-0.2,0.2-0.5,0.4-0.8,0.6c-1.1,0.6-2,1.3-2.9,2.2c-1.6,1.5-3.2,3.1-4.7,4.6c-0.8,0.8-1.4,1.7-2.1,2.5
		C206.3,28.7,206,28.8,205.7,28.9z"/>
	<path fill-rule="evenodd" clip-rule="evenodd" d="M204,51.1c0,0.2,0,0.5-0.1,0.6c-0.1,0.3-0.3,0.6-0.6,0.8
		c-1.6,1.7-3.1,3.5-4.3,5.4c-0.4,0.6-0.8,1-1.3,1.5c-0.2,0.2-0.7,0.2-0.9,0c-1-1-1.5-2.2-1.9-3.4c-0.3-0.9-0.5-1.9-0.7-2.9
		c-0.1-0.2,0.2-0.7,0.4-0.8c0.4-0.2,1-0.1,1.2,0.2c0.3,0.6,0.6,1.2,1,1.7c0.2,0.3,0.9,0.4,1.2,0.1c1-1,2.1-2,3.1-3
		c0.3-0.3,0.7-0.6,1.1-0.7c0.5-0.2,1-0.3,1.6-0.1C203.9,50.7,204,50.9,204,51.1z"/>
	<path fill-rule="evenodd" clip-rule="evenodd" d="M234.1,27.3c0,0.5-0.7,1.2-1.1,1.2c-0.1,0-0.2,0-0.3,0c-2.2-0.3-4.4-0.6-6.6-1
		c-2.5-0.4-5-0.9-7.5-1.6c-0.3-0.1-0.6-0.2-0.9-0.4c-0.3-0.1-0.4-0.5-0.4-0.8c0-0.3,0.4-0.7,0.6-0.7c0.2,0,0.4,0,0.7,0
		c0.4,0.1,0.9,0.2,1.3,0.3c1.5,0.4,3,0.7,4.6,0.7c0.7,0,1.3,0.1,2,0.2c1.6,0.3,3.3,0.6,4.9,0.6c0.8,0,1.5,0.2,2.2,0.6
		C233.9,26.7,233.9,27.1,234.1,27.3z"/>
	<path fill-rule="evenodd" clip-rule="evenodd" d="M221.2,59.5c0,0.4-0.4,0.8-0.8,0.9c-0.4,0.1-0.9,0.1-1.3-0.1
		c-1.6-0.8-3.4-1-5.1-1.1c-2-0.1-4-0.3-5.9-0.8c-0.3-0.1-0.6-0.3-0.9-0.5c-0.2-0.1-0.2-0.4-0.2-0.6c0.1-0.2,0.2-0.4,0.4-0.5
		c0.3-0.1,0.7-0.2,1-0.1c1.5,0.3,3.1,0.3,4.6,0.4c2.4,0.2,4.8,0.4,7.2,1.1c0.2,0.1,0.4,0.2,0.6,0.3C221,58.7,221.2,59.2,221.2,59.5z
		"/>
	<path fill-rule="evenodd" clip-rule="evenodd" d="M225.7,44.1c0,0.4-0.5,1-0.8,1c-0.3,0-0.7,0.1-1,0c-0.4-0.1-0.9-0.1-1.3-0.3
		c-1.8-0.6-3.6-0.9-5.5-1c-1.3-0.1-2.6-0.2-3.9-0.7c-0.3-0.1-0.5-0.4-0.8-0.6c-0.2-0.2-0.3-0.8-0.2-0.9c0.2-0.1,0.4-0.2,0.6-0.3
		c0.1,0,0.2,0,0.3,0s0.2,0,0.3,0c1.1,0.4,2.3,0.6,3.6,0.6c1.9,0,3.7,0.5,5.5,0.8c0.8,0.4,1.8,0.2,2.5,0.6
		C225.4,43.5,225.5,43.9,225.7,44.1z"/>
	<path fill-rule="evenodd" clip-rule="evenodd" d="M219.7,63.7c-0.2,0-0.9-0.1-1.7-0.2c-1-0.1-2-0.3-2.9-0.3c-1.5,0-3.1-0.2-4.6-0.5
		c-0.6-0.2-1.3-0.1-1.9-0.4c-0.2-0.1-0.3-0.3-0.4-0.5c-0.1-0.3,0.2-0.6,0.6-0.5c0.1,0,0.2,0,0.3,0c0.2,0,0.4,0,0.6,0.1
		c1.1,0.3,2.2,0.4,3.2,0.7c2.5,0.6,5,0.6,7.5,0.7c0.5,0,1.1-0.2,1.6,0.1c0.1,0,0.1,0.2,0.1,0.3c0,0.1,0,0.3,0,0.3
		c-0.2,0.1-0.4,0.3-0.6,0.3C221.2,63.7,220.7,63.7,219.7,63.7z"/>
	<path fill-rule="evenodd" clip-rule="evenodd" d="M211.5,44.4c0.1-0.1,0.2-0.2,0.3-0.2c0.2,0,0.4-0.1,0.6,0
		c1.4,0.3,2.8,0.6,4.2,0.9c1.3,0.2,2.5,0.8,3.8,0.9c1.1,0.4,2.3,0.6,3.6,0.6c0.4,0,0.9,0.1,1.3,0.1c0.3,0,0.4,0.2,0.3,0.5
		c0,0.2-0.1,0.4-0.4,0.5c-0.1,0-0.2,0-0.3,0c-1.5-0.2-3.1-0.4-4.6-0.7c-2-0.4-4.1-0.9-6.2-1.2c-0.9-0.1-1.7-0.3-2.5-0.8
		C211.6,44.8,211.6,44.5,211.5,44.4z"/>
	<path fill-rule="evenodd" clip-rule="evenodd" d="M229.3,31.2c-1.4,0-3.1-0.1-4.9-0.4c-0.8-0.1-1.5-0.1-2.3-0.2c-1-0.1-2-0.2-3-0.3
		c-0.3,0-0.7-0.5-0.6-0.7c0.1-0.2,0.3-0.3,0.5-0.4c0.6-0.2,1.3-0.2,2,0c0.7,0.2,1.5,0.4,2.3,0.4c3.2,0.3,6.3,0.8,9.5,1
		c0.1,0,0.3,0.2,0.4,0.4c-0.1,0.1-0.2,0.2-0.3,0.2c-0.3,0.1-0.6,0.1-1,0.1C231.2,31.3,230.5,31.3,229.3,31.2z"/>
	<path fill-rule="evenodd" clip-rule="evenodd" d="M222.4,50.4c-1.3-0.2-2.6-0.4-3.9-0.6c-1.3-0.3-2.6-0.6-3.9-0.9
		c-0.2,0-0.4-0.2-0.6-0.3c-0.1-0.1-0.2-0.4-0.3-0.6c0.2-0.1,0.4-0.2,0.6-0.2c0.3,0,0.7,0.1,1,0.1c1.2,0.3,2.4,0.5,3.5,0.8
		c1.5,0.4,3.1,0.5,4.6,0.6c0.1,0,0.2,0.1,0.2,0.2c0.1,0.3,0,0.5-0.3,0.5C223,50.3,222.7,50.3,222.4,50.4z"/>
	<path fill-rule="evenodd" clip-rule="evenodd" d="M227.8,33.8c-0.4,0-1.4-0.1-2.4-0.2c-1.5-0.2-3.1-0.4-4.6-0.7
		c-0.2,0-0.3-0.2-0.5-0.4c-0.2-0.2-0.1-0.4,0.1-0.5c0.3-0.2,0.6-0.2,1-0.1c1.2,0.1,2.3,0.7,3.6,0.7c1.1,0,2.2,0.2,3.3,0.4
		c0.5,0.1,1.1,0.2,1.6,0.3c0.3,0,0.4,0.1,0.5,0.3c0,0.2-0.1,0.3-0.4,0.3C229.5,33.8,228.9,33.8,227.8,33.8z"/>
	<path fill-rule="evenodd" clip-rule="evenodd" d="M217,66.6c-1.7-0.2-3.3-0.2-4.8-0.6c-0.2-0.1-0.3-0.3-0.3-0.5
		c0-0.1,0.1-0.2,0.2-0.3c0.2-0.1,0.4-0.2,0.6-0.2c0.8,0,1.6,0,2.3,0.2c1.5,0.4,3,0.6,4.6,0.7c0.1,0,0.2,0.1,0.2,0.2
		c0,0-0.1,0.2-0.1,0.2c-0.3,0.1-0.6,0.3-0.9,0.3C218.1,66.7,217.5,66.6,217,66.6z"/>
	<polygon fill-rule="evenodd" clip-rule="evenodd" points="248.2,21.4 248,21.3 248.3,21.4 	"/>
	<path fill-rule="evenodd" clip-rule="evenodd" d="M87.8,62.4c-1,0-2-0.3-2.8-0.9c-0.4-0.3-0.9-0.7-1.3-1c-0.5-0.4-0.9-1-1-1.7
		c0-0.2-0.1-0.4-0.1-0.7c-0.3-1.3,0-2.4,0.8-3.4c0.3-0.3,0.6-0.7,0.9-0.9c1-0.6,1.9-1.2,2.8-1.8c0.6-0.5,1.4-0.6,2.2-0.6
		c0.8,0,1.5,0.2,2.3,0.4c1.1,0.3,2,0.9,2.6,1.9c0.3,0.5,0.5,1,0.5,1.5c0,0.4,0,0.9,0,1.3c-0.1,0.7-0.3,1.3-0.7,1.8
		c-1,1.2-2,2.4-3.4,3.1c-0.3,0.2-0.6,0.4-0.8,0.5C89.2,62.2,88.5,62.4,87.8,62.4z"/>
	<path fill-rule="evenodd" clip-rule="evenodd" d="M131.3,49.5c0.4,0,0.9,0,1.3,0c0.3,0,0.7,0.2,0.9,0.3c0.4,0.3,0.9,0.7,1.2,1.1
		c0.6,0.8,1,1.7,1.3,2.7c0.1,0.4,0.2,0.9,0.2,1.3c-0.2,1.9-0.9,3.4-2.6,4.4c-1.7,0.9-3.5,1.5-5.4,1.4c-0.9,0-1.8-0.3-2.4-1
		c-0.5-0.5-0.8-1-1.2-1.6c-0.1-0.2-0.2-0.4-0.2-0.6c-0.1-1-0.1-2,0.1-3c0-0.1,0-0.2,0.1-0.3c0.6-1.3,1.3-2.5,2.4-3.5
		c0.8-0.7,1.7-1.1,2.7-1.2C130.2,49.5,130.7,49.5,131.3,49.5C131.3,49.5,131.3,49.5,131.3,49.5z"/>
	<path fill-rule="evenodd" clip-rule="evenodd" fill="#025F6B" d="M53.9,140c0.3,0,0.6,0,0.7,0.1c1.6,0.9,3.4,1,5.1,1.1
		c0.9,0.1,1.8-0.2,2.6-0.5c0.5-0.1,0.9-1.3,0.7-1.7c-0.1-0.2-0.2-0.4-0.3-0.6c-0.3-0.7-0.7-1.4-1-2.1c-0.1-0.3,0-0.7,0.3-0.9
		c1.8-1.1,3.6-2.2,5.4-3.2c1.7-0.9,3.2-2.1,4.6-3.3c0.5-0.5,0.7-1.1,0.7-1.8c0-0.8-0.1-1.6-0.1-2.3c0-1.3,0.1-2.7,0.4-4
		c0.1-0.4,0.4-0.8,0.8-1c2.4-0.8,4.9-1.4,7.5-1.3c0.3,0,0.4,0.1,0.4,0.4c0,0.2,0,0.4-0.2,0.6c-0.3,0.2-0.5,0.4-0.8,0.6
		c-0.4,0.2-0.8,0.4-1.2,0.6c-0.8,0.5-1.4,1.1-1.7,2c-0.2,0.5-0.4,1-0.5,1.6c-0.1,0.4,0,0.9,0.1,1.3c0.2,0.5,0.5,1,0.8,1.5
		c0.7,1,1.5,2,2.3,2.8c0.6,0.6,1.2,0.9,2,1c0.7,0.1,1.3,0,1.9-0.3c1.1-0.6,2.1-1.3,3.3-1.5c0.2,0,0.4,0,0.6,0.2
		c0,0.1,0.1,0.2,0.1,0.3c0,0.1,0,0.2,0,0.3c-1,2.1-2.2,4.1-3.4,6.1c-0.5,0.7-1.2,1-2,0.9c-0.4,0-0.9-0.1-1.3-0.2
		c-1.3-0.4-2.5-0.8-3.8-1.3c-1.1-0.4-2.2-0.3-3.3-0.3c-0.3,0-0.6,0.1-1,0.3c-1,0.4-2.1,0.8-3,1.5c-0.4,0.3-0.9,0.6-1.4,0.8
		c-1,0.5-2,1-2.7,1.9c-0.2,0.2-0.5,0.4-0.8,0.6c-1.6,1.2-3.2,2.4-4.8,3.6c-1.3,1-2.3,2.4-3.5,3.6c-0.1,0.1-0.2,0.4-0.2,0.6
		c-0.1,0.2-0.1,0.4-0.1,0.7c0,2.1-0.7,4.1-1.1,6.2c-0.3,1.2-0.8,2.3-1.3,3.4c-0.2,0.4-0.5,0.7-1,0.8c-1,0.2-1.9,0.5-2.9,0.6
		c-1.5,0.2-3.1,0.4-4.6,0.4c-1,0-2,0.1-3,0.2c-0.2,0-0.4-0.1-0.6-0.1c-0.1-0.1,0.2-0.6,0.6-0.8c1.1-0.5,2.1-1.2,3.1-2
		c1.4-1.1,1.9-3.3,1.1-5.2c-0.1-0.2-0.2-0.4-0.3-0.6c-0.4-0.4-0.8-0.8-1.2-1.2c-1.2-1.3-2.6-2-4.4-2.3c-0.8,0.2-1.7,0.3-2.5,0.6
		c-2,0.6-3.9,1.5-5.4,3.1c-0.2,0.2-0.5,0.4-0.8,0.6c-0.2,0.1-0.8,0-0.9-0.2c-0.1-0.2-0.3-0.4-0.3-0.6c-0.4-2.5,0.1-4.8,1.5-7
		c0.2-0.4,0.6-0.7,1-0.8c2.3-1,4.7-2,7-3.1c0.3-0.1,0.7,0,0.9,0.2c0.5,0.4,1.1,0.8,1.6,1.2c0.7,0.7,1.4,1.4,2.1,2.1
		c0.5,0.5,1.2,0.6,1.9,0.2c0.4-0.2,0.8-0.4,1.1-0.7C50.6,142.5,52.3,141.2,53.9,140z"/>
	<polygon fill-rule="evenodd" clip-rule="evenodd" fill="#FFFFFF" points="67.3,129.2 67.5,129.2 67.4,129.2 	"/>
	<path fill-rule="evenodd" clip-rule="evenodd" d="M53.4,154.9c0.1-1.2,0.6-3.7,1.1-4.7c0.1-0.1,0.4-0.1,0.6-0.2
		c0.1,0,0.2,0.2,0.2,0.3c0.1,0.2,0.1,0.4,0.1,0.6c0,0.3-0.1,0.6-0.2,1c-0.3,1.2-0.7,2.3-1,3.4c-0.1,0.2-0.2,0.4-0.4,0.4
		c-0.1,0-0.2-0.3-0.3-0.5C53.4,155.1,53.4,155,53.4,154.9z"/>
	<path fill-rule="evenodd" clip-rule="evenodd" d="M69.1,133.1c0.3-0.1,0.6-0.3,0.9-0.4c0.2-0.1,0.4-0.1,0.6,0.1
		c0,0-0.1,0.2-0.1,0.2c-0.1,0.1-0.1,0.2-0.2,0.2c-1.5,0.9-3.1,1.7-4.6,2.6c-0.1,0.1-0.2,0.1-0.3,0.1c-0.2,0.1-0.4,0-0.5-0.3
		c0-0.1,0-0.2,0-0.3c0.2-0.4,0.5-0.7,0.9-0.9C66.9,134,68,133.5,69.1,133.1C69.1,133,69.1,133,69.1,133.1z"/>
	<path fill-rule="evenodd" clip-rule="evenodd" d="M40.4,143.5c0,0.2,0,0.4-0.1,0.6c-0.3,0.3-0.6,0.6-1,0.8
		c-0.9,0.6-1.9,1.1-2.8,1.6c-0.2,0.1-0.4,0.1-0.6-0.1c0-0.1,0-0.2,0-0.3c0-0.1,0.1-0.2,0.2-0.3c1.1-1,2.3-2,3.8-2.5
		C40,143.2,40.3,143.3,40.4,143.5z"/>
	<path fill-rule="evenodd" clip-rule="evenodd" d="M81.9,135.2c-1.1,0-2.1-0.3-3.1-0.8c-0.2-0.1-0.3-0.3-0.3-0.5
		c0.1-0.4,0.4-0.6,0.7-0.6c0.1,0,0.2,0,0.3,0c1,0.3,2.1,0.6,3,1.2c0.2,0.1,0.3,0.3,0.3,0.5c0,0.1-0.2,0.1-0.3,0.2
		C82.3,135.1,82.1,135.1,81.9,135.2z"/>
</g>
</svg>
