<?xml version="1.0" encoding="utf-8"?>
<!-- Generator: Adobe Illustrator 16.0.0, SVG Export Plug-In . SVG Version: 6.00 Build 0)  -->
<!DOCTYPE svg PUBLIC "-//W3C//DTD SVG 1.1//EN" "http://www.w3.org/Graphics/SVG/1.1/DTD/svg11.dtd">
<svg version="1.1" id="Layer_1" xmlns="http://www.w3.org/2000/svg" xmlns:xlink="http://www.w3.org/1999/xlink" x="0px" y="0px"
	 width="507px" height="182.2px" viewBox="0 0 507 182.2" enable-background="new 0 0 507 182.2" xml:space="preserve">
<g>
	<path opacity="0.6" fill-rule="evenodd" clip-rule="evenodd" stroke="#FFFFFF" stroke-width="8" stroke-miterlimit="10" d="
		M98.5,8.7c0.2-0.1,0.5-0.1,0.7-0.2c0.6-0.3,1.1-0.5,1.7-0.8c1.4-0.8,2.9-1.2,4.5-1.6c2-0.5,4.1-1,6.2-1.4c0.3-0.1,0.7-0.1,1-0.2
		c3.4-0.4,6.8-0.5,10.3-0.5c1.8,0,3.5,0.3,5.2,0.6c1.9,0.3,3.8,0.8,5.7,1c0.5,0.1,1,0.2,1.5,0.4c1.4,0.6,2.8,1.2,4.1,1.8
		c1.4,0.6,2.6,1.5,3.6,2.6c0.2,0.3,0.5,0.5,0.7,0.8c1.9,1.7,3.4,3.8,5.2,5.6c0.5,0.5,0.9,1.1,1.3,1.7c0.7,1.1,1.4,2.2,2.2,3.3
		c1.2,1.6,1.9,3.4,2.4,5.2c0.6,2,1.1,4.1,1.8,6.1c0.1,0.4,0.2,0.9,0.2,1.3c0,1.8,0.3,3.7,0,5.5c-0.1,0.4,0.1,0.9,0.4,1.2
		c1.7,1.5,3.1,3.4,4.4,5.2c1.4,2,2.4,4.3,2.9,5.9c0.5,1.5,0.9,3,1.3,4.5c0.1,0.5,0.2,1,0.4,1.5c0.8,2.5,0.7,5,0.6,7.6
		c0,0.6-0.2,1.2-0.4,1.8c-0.5,1.6-0.9,3.2-1.4,4.8c-0.3,0.8-0.5,1.7-0.8,2.5c-0.6,1.8-1.4,3.6-2.6,5.1c-0.4,0.5-0.7,1-1.1,1.5
		c-0.8,1.2-1.8,2.4-2.9,3.5c-1,1.1-2.1,2.1-3,3.3c-0.3,0.4-0.7,0.8-1.1,1.1c-0.4,0.4-0.7,0.8-0.9,1.3c-0.1,0.2-0.2,0.5-0.1,0.8
		c0,0.4,0.1,0.9,0.2,1.3c0.4,1,0.4,2.1,0.5,3.1c0,1.4,0.2,2.8,0.3,4.2c0,2.3-0.3,4.6-0.5,6.8c0,0.3-0.1,0.7-0.2,1
		c-0.8,2.9-1.7,5.7-2.7,8.5c-0.5,1.4-1.2,2.7-1.8,4.1c-0.2,0.4-0.4,0.8-0.6,1.1c-1.1,1.5-2.2,3-3.3,4.5c-0.6,0.8-1.3,1.5-2,2.1
		c-0.7,0.6-1.5,1.3-2.1,2c-0.8,0.8-1.7,1.5-2.6,2.2c-0.5,0.4-1,0.7-1.6,1c-0.7,0.3-1.3,0.6-1.8,1c-1.5,1.1-3.2,1.8-5,2.3
		c-1.1,0.3-2.2,0.7-3.3,1c-1,0.2-2,0.5-3,0.9c-0.5,0.2-1,0.2-1.6,0.3c-0.8,0.1-1.5,0.3-2.3,0.5c-0.3,0.1-0.5,0.2-0.7,0.3
		c-0.7,0.3-1.3,0.8-1.7,1.6c-0.3,0.7-0.7,1.4-1,2.2c-0.5,1.4-1.2,2.8-1.9,4.1c-0.5,0.9-0.9,1.9-1.2,2.9c-0.3,1.1-0.6,2.2-1,3.3
		c-0.8,2.2-1.4,4.5-2,6.8c-0.2,0.8-0.5,1.7-0.8,2.5c-0.6,1.6-0.9,3.2-1.1,4.9c0,0.4-0.1,0.9-0.2,1.3c-0.5,1.9-0.9,3.8-0.9,5.7
		c0,0.8-0.4,1.3-0.9,1.8c-0.3,0.2-0.9,0.3-1.2,0.1c-1.3-0.8-2.3-1.9-2.9-3.3c-0.4-0.9-0.9-1.7-1.4-2.5c-0.5-0.9-0.8-1.7-1.5-2.5
		c-0.2-0.2-0.3-0.5-0.3-0.7c-0.3-1-0.7-2-1.1-3c-0.3-0.6-0.4-1.1-0.7-1.7c-0.6-1.6-1.2-3.1-2.1-4.6c-0.4-0.7-0.7-1.4-0.9-2.2
		c-0.2-0.9-0.6-1.7-0.9-2.5c-0.2-0.3-0.4-0.6-0.8-0.5c-0.9,0-1.8,0-2.6,0.1c-1.4,0.2-2.8,0.2-4.2,0c-0.8-0.1-1.6-0.2-2.4-0.2
		c-2.1-0.1-4.2-0.4-6.3-0.7c-1.8-0.3-3.6-0.9-5.3-1.4c-0.8-0.2-1.5-0.5-2.3-0.7c-0.5-0.1-1-0.3-1.5-0.6c-0.7-0.3-1.4-0.7-2.2-0.9
		c-0.3-0.1-0.8,0.1-1,0.3c-0.8,1.2-1.6,2.3-2.3,3.6c-0.8,1.3-1.4,2.6-1.9,4c-0.5,1.4-1.1,2.8-1.5,4.2c-0.2,0.5-0.3,1-0.6,1.5
		c-0.6,1.2-1,2.4-1.5,3.7c-0.2,0.4-0.3,0.8-0.4,1.3c-0.3,1.3-0.8,2.5-1.4,3.7c-1,2-2,3.9-3.1,5.8c-0.1,0.2-0.3,0.4-0.5,0.6
		c-0.3,0.3-0.7,0.5-1.2,0.5c-0.2,0-0.5-0.3-0.6-0.5c0-0.2-0.1-0.3-0.1-0.5c0.1-1.2,0.2-2.5,0.4-3.7c0.1-1.1,0-2.3,0-3.4
		c0-0.3-0.1-0.7-0.2-1c-0.3-0.9-0.3-1.7-0.3-2.6c0.1-1.8-0.1-3.5-0.3-5.3c-0.1-0.5-0.2-1-0.2-1.6c-0.2-1.3-0.4-2.6-0.9-3.8
		c-0.3-0.7-0.4-1.5-0.6-2.3c-0.3-1.1-0.6-2.2-1.2-3.2c-0.3-0.5-0.5-1.1-0.6-1.7c-0.4-1.3-0.8-2.5-1.4-3.7c-0.4-0.9-0.6-1.8-0.9-2.8
		c-0.1-0.3-0.3-0.6-0.7-0.8c-0.6-0.3-1.1-0.5-1.7-0.7c-1.7-0.7-3.3-1.6-4.8-2.8c-1.8-1.4-3.6-2.8-5.4-4.3c-1.9-1.6-3.6-3.4-5-5.4
		c-0.5-0.8-1.2-1.5-1.6-2.4c-0.6-1-1.1-2-1.5-3.1c-0.2-0.6-0.4-1.2-0.7-1.7c-0.9-1.8-1.4-3.8-1.9-5.7c-0.2-0.9-0.5-1.9-0.6-2.8
		c-0.3-1.7-0.4-3.3-0.5-5c0-2,0.2-4,0.4-6c0.2-1.9,0.7-3.8,1.3-5.6c0.2-0.8,0.6-1.4,0.9-2.2c0.1-0.3,0.2-0.7,0-1
		c-0.7-1.5-1-3.2-1-4.9c0-0.4-0.1-0.9-0.2-1.3c-0.1-0.6-0.2-1.2-0.2-1.8c0-0.3,0-0.5,0.1-0.8c0.3-0.9,0.4-1.9,1-2.7
		c0-0.1,0.1-0.2,0.1-0.2c1.2-2.7,3-5,5.1-7c0.3-0.3,0.7-0.6,1-0.9c1.6-1.6,3.4-2.7,5.3-3.8c0.9-0.5,1.8-1.1,2.7-1.7
		c0.4-0.3,0.8-0.7,1.2-1c0.2-0.1,0.2-0.6,0-0.7c-0.8-0.7-1.5-1.4-2.4-2.1c-0.6-0.5-1.3-1-2-1.4c-1.3-0.8-2.3-1.9-3.2-3.1
		c-0.7-1-1.3-2.1-2.1-3c-0.4-0.5-0.6-1.1-0.9-1.6c-0.3-0.6-0.5-1.3-0.5-2c0-1.1,0-2.3,0.1-3.4c0-0.5,0.2-1,0.4-1.5
		c0.3-0.9,0.6-1.8,1-2.7c0.1-0.3,0.3-0.6,0.5-0.9c0.5-0.9,1.1-1.8,1.7-2.7c0.2-0.3,0.4-0.6,0.7-0.8c0.9-0.8,1.7-1.7,2.7-2.5
		c0.1-0.1,0.1-0.3,0.1-0.5c0-0.2-0.1-0.3-0.3-0.4c-0.5-0.1-1-0.3-1.5-0.4c-0.3-0.1-0.5,0-0.8-0.1c-2.6-0.1-5.1,0.1-7.6,0.8
		c-1.4,0.4-2.9,0.7-4.3,1.1c-1,0.3-2,0.6-2.9,1.3c-0.6,0.4-1.2,0.7-1.8,1c-1,0.5-2.1,1-3.1,1.5c-0.8,0.4-1.6,0.7-2.5,0.9
		c-0.5,0.1-1,0.1-1.6,0C5.5,43.2,5.2,43,5,42.7c-0.4-0.7-0.8-1.4-0.9-2.2C4,40.2,4,39.8,4,39.5c0-0.4,0.1-0.9,0.1-1.3
		c0-1,0.3-1.9,0.8-2.7c1-1.6,1.9-3.2,2.9-4.7c0.4-0.7,1-1.2,1.5-1.8c1.5-1.5,3.8-3.6,5.3-4.7c1.7-1.2,3.5-2.3,5.5-3.1
		c1.1-0.4,2.2-0.5,3.4-0.4c0.3,0,0.5,0.1,0.8,0.2c1.6,0.7,2.8,1.8,3.7,3.2c0.5,0.8,1,1.7,1.5,2.5c1,1.8,2.4,3.2,3.8,4.7
		c0.1,0.1,0.3,0.2,0.4,0.3c1.8,1.2,3.6,2.2,5.7,2.6c0.9,0.2,1.8,0,2.5-0.5c0.4-0.3,0.9-0.6,1.4-0.7c0.8-0.3,1.7-0.5,2.5-0.9
		c0.2-0.1,0.5-0.2,0.8-0.2c1-0.2,2-0.5,3-0.9c1-0.4,2-0.5,3.1-0.8c0.4-0.1,0.6-0.3,0.9-0.6c1-1.4,1.9-2.9,2.7-4.5
		c0.4-0.8,0.8-1.5,1.4-2.2c0.5-0.5,0.9-1.1,1.3-1.7c0.3-0.5,0.8-1,1.2-1.4c1.2-1.1,2.4-2.3,3.6-3.4c0.6-0.5,1.2-1,1.9-1.5
		c0.7-0.4,1.3-1,1.9-1.4c2.1-1.4,4.4-2.6,6.8-3.5c1.1-0.4,2.1-0.8,3.2-1.2c1.4-0.5,2.9-0.9,4.3-1.2c1.9-0.4,3.8-0.7,5.7-1
		c0.3-0.1,0.7-0.1,1,0c1.2,0.1,2.5,0.2,3.7,0.4c1.2,0.2,2.4,0.4,3.6,0.9C96.8,8.2,97.6,8.4,98.5,8.7z"/>
	<g opacity="0.6">
		<path fill-rule="evenodd" clip-rule="evenodd" stroke="#FFFFFF" stroke-width="8" stroke-miterlimit="10" d="M194.2,90.2
			c0.1-2.7,0.2-5,0.2-7.2c0.1-6.2,0.2-12.4,0.3-18.6c0-0.6,0-1.2,0.2-1.8c0.1-0.4,0.3-0.9,0.6-1c3.2-1.1,5.8-3.1,8.4-5.1
			c0.6-0.5,1.3-1,2-1.5c0.2-0.1,0.4-0.2,0.6-0.2c0.4,0,0.8,0,1.2,0.2c0.4,0.2,0.6,0.7,0.5,1c-1.4,4.3-2.8,8.6-4.2,12.9
			c-0.6,2-1.3,3.9-1.9,5.9c-1.2,3.8-2.7,12.2-2.6,15.8c0,0.6,0.1,1.2,0.1,1.8c0,0.4,0.9,1.1,1.3,1c4.8-0.2,9.4-1.2,13.9-2.8
			c0.3-0.1,0.6-0.6,0.7-0.9c0.2-0.6,0.3-1.2,0.3-1.8c0-1.6,0.1-3.3,0.1-5c0-3.5,0.2-7,0.7-10.5c0.2-1.6,0.4-3.3,0.5-4.9
			c0.2-2.4,1.2-3.1,4.1-3.7c0.7-0.1,1.7,0.8,1.8,1.4c0,0.2,0.1,0.4,0.1,0.6c-0.1,2.3-0.5,4.5-0.2,6.8c0.1,0.8-0.2,1.6-0.3,2.4
			c-0.5,3.5-1,6.9-1.4,10.4c-0.2,1.6-0.2,3.3-0.3,4.9c-0.2,3.1-0.3,6.2-0.6,9.3c-0.2,2.1-0.2,4.1,0.1,6.2c0.2,1.6,0.5,3.3,0.7,4.9
			c0.2,1.6,0.3,3.3,0.2,4.9c-0.1,2.2-1,3.9-2.6,5.4c-1,1-3,0.7-3.7-0.7c-0.2-0.3-0.3-0.8-0.3-1.2c0.4-2.5,0.5-4.9,0.2-7.4
			c-0.2-1.6-0.1-3.3-0.1-4.9c-0.1-2.5-0.2-4.9-0.3-7.4c0-0.5-0.7-1.2-1.2-1.3c-2.3-0.6-4.5-0.5-6.7,0.1c-2,0.5-3.9,1.4-5.6,2.5
			c-1.4,1-2.3,2.3-2.5,4.1c-0.3,2.7-0.4,5.3-0.1,8c0.2,2.1,0.4,4.1,0,6.2c-0.1,0.6-0.5,1.1-0.8,1.6c-0.7,0.9-2.1,0.6-2.5-0.3
			c-0.6-1.1-0.8-2.3-0.9-3.6c-0.1-0.6-0.1-1.2,0-1.9c0.4-5.1,0-10.3,0.2-15.5c0-0.6,0-1.2-0.1-1.9C193.8,95.1,193.7,92.4,194.2,90.2
			z"/>
		<path fill-rule="evenodd" clip-rule="evenodd" stroke="#FFFFFF" stroke-width="8" stroke-miterlimit="10" d="M415.7,103.5
			c-0.2,0.4-0.4,1-0.7,1.5c-0.2,0.3-0.6,0.6-0.9,0.8c-1.1,0.6-2.2,1.1-3.3,1.6c-1.5,0.6-3.5-0.5-3.8-2.1c-0.2-1.4-0.3-2.9-0.4-4.3
			c-0.2-2.9-0.3-5.8-0.4-8.6c0-0.4-0.2-0.8-0.2-1.2c-0.3-1.3-2-2.3-3.5-1.4c-0.4,0.2-0.7,0.4-1,0.7c-2.9,2.4-5.5,5-7.6,8.1
			c-0.7,1-1.4,2.1-2.1,3c-2.3,2.9-4.2,6.1-5.9,9.4c-0.4,0.7-0.9,1.3-1.5,2c-0.5,0.6-1.7,0.6-2.2,0c-0.5-0.5-0.7-1.1-0.5-1.7
			c0.3-1,0.7-1.9,1.2-2.8c1.9-3.4,3.9-6.8,5.8-10.2c1.3-2.3,2.6-4.7,3.3-7.3c0.2-0.8-0.3-1.6-1.2-1.7c-1.4-0.2-2.9-0.3-4.3-0.6
			c-0.6-0.1-1.2-0.3-1.8-0.5c-2.6-0.9-4.3-3.4-4.3-6.2c0-1,0.2-2,0.3-3.1c0.3-1.7,1.1-3.1,2.4-4.2c2.3-2,5-3.6,7.8-5
			c1.9-0.9,3.9-1.4,6-1.3c2.9,0.1,5.8,0.1,8.5,1.2c0.8,0.3,1.6,0.2,2.4,0.5c0.4,0.1,0.7,0.4,0.9,0.8c0.7,1.3,1.2,2.6,1.4,4.1
			c0.9,5.7,2,11.4,2.3,17.1c0.1,2.1,0.5,4.1,1.4,6c0.6,1.3,1,2.7,1.4,4.1C415.7,102.6,415.7,103,415.7,103.5z M405.9,79.6
			c-0.1-1.4-0.2-2.6-0.3-3.9c-0.1-0.6-0.3-1.2-0.5-1.8c-0.3-0.8-0.9-1.4-1.8-1.6c-1.4-0.2-2.9-0.4-4.3-0.5c-3.6-0.2-7,0.6-10,2.6
			c-0.9,0.6-1.8,1.1-2.5,1.7c-0.6,0.5-1.1,1.2-1.5,1.9c-0.6,1.1-0.8,2.3-0.7,3.6c0.1,1.1,0.5,2,1.4,2.6c0.8,0.6,1.8,1.1,2.8,1.3
			c2.1,0.3,4.2,0.5,6.1-0.2c2-0.6,4-0.9,6.1-1.2c1.2-0.2,2.4-0.5,3.6-0.7c1.1-0.2,1.7-1.1,1.6-2.3C405.9,80.7,405.9,80.1,405.9,79.6
			z"/>
		<path fill-rule="evenodd" clip-rule="evenodd" stroke="#FFFFFF" stroke-width="8" stroke-miterlimit="10" d="M349.6,109.4
			c-1.4,0-2.9,0-4.3,0c-1.3,0-2.5-0.1-3.4-1.2c-1-1.3-2-2.8-1.8-4.5c0.4-3.3,0.3-6.6,0.3-9.8c0-0.6,0-1.2,0.1-1.8
			c1-5.1,0.6-10.3,1.6-15.3c0-0.2,0.1-0.4,0.2-0.6c0.2-0.3,0.5-0.6,0.8-0.9c0.1-0.1,0.3-0.2,0.5-0.3c2.5-0.8,5.2-1.3,7.7-2.4
			c0.7-0.3,1.6-0.3,2.4-0.6c3.3-1,6.5-0.4,9.7,0.6c1.4,0.4,2.6,1.2,3.7,2.2c0.6,0.6,1.1,1.2,1.2,2.1c0.1,1,0.1,2,0.3,3.1
			c0.1,0.8,0.3,1.6,0.6,2.4c0.4,1,0.9,1.8,1.9,2.3c2.4,1.3,4.2,3.3,6.1,5.2c1.5,1.5,2.3,3.4,2.4,5.5c0,0.6,0.1,1.2,0,1.8
			c-0.1,0.6-0.2,1.2-0.5,1.8c-1,1.8-2.3,3.4-4.1,4.5c-2.4,1.6-5.1,2.7-7.8,3.6c-2.4,0.7-4.7,1.4-7.1,1.9c-2.2,0.5-4.5,0.7-6.7,0.6
			c-1.2,0-2.5-0.1-3.7-0.1C349.6,109.4,349.6,109.4,349.6,109.4z M364.4,88.2c-2.6-0.4-5.2-0.1-7.8,0.7c-1,0.3-2,0.5-3,0.7
			c-1.5,0.2-2.7,1-3.8,1.9c-1.7,1.3-2.7,3-2.2,5.3c0.4,1.8,0.6,3.7,1,5.5c0.4,2,2.4,3.6,4.4,3.6c5.7,0.2,11-1.2,16.2-3.3
			c1.9-0.8,3.6-1.9,5.3-3.2c1.2-0.9,1.7-2.3,1.5-3.9c-0.1-1-0.5-2-1.1-2.8c-0.5-0.7-1.1-1.2-1.7-1.8c-1.5-1.6-3.3-2.5-5.5-2.5
			C366.5,88.4,365.5,88.3,364.4,88.2z M350.5,85.8C350.5,85.7,350.5,85.7,350.5,85.8c0.4,0,0.8,0,1.2,0c3.2,0.3,6.1-0.5,9.1-1.5
			c1.2-0.4,2.2-1.1,3.1-2c0.8-0.7,1.2-1.6,1.5-2.7c0.3-1.3-0.6-3.1-1.8-3.6c-2.9-1.3-5.9-1.7-9.1-1c-2.6,0.6-5.1,1.5-7.6,2.7
			c-0.8,0.4-1.3,1.1-1.4,2c-0.2,1.6-0.5,3.3-0.1,4.9c0.1,0.3,0.5,0.8,0.7,0.9C347.7,85.6,349.1,85.7,350.5,85.8z"/>
		<path fill-rule="evenodd" clip-rule="evenodd" stroke="#FFFFFF" stroke-width="8" stroke-miterlimit="10" d="M442.4,99.6
			c-3.5,0-7,0-10.5,0c-0.8,0-1.6-0.1-2.5,0c-0.6,0-1.5-0.8-1.7-1.6c-0.1-0.6,0.1-1.2,0.5-1.7c0.4-0.4,0.9-0.8,1.5-1.1
			c0.7-0.4,1.6-0.7,2.4-0.2c1.5,0.9,3,1.1,4.7,1.1c3.3,0.1,6.6,0.1,9.9,0.4c2.1,0.2,4.1-0.1,6.2-0.3c1.9-0.2,3-1.4,3.5-3
			c0.7-1.9,1.1-4,1.2-6.1c0.1-1.9-0.6-3.7-1.5-5.3c-0.2-0.3-0.6-0.6-0.9-0.7c-1.1-0.5-2.4-0.8-3.6-0.7c-1.9,0.1-3.7,0.3-5.5,0.5
			c-2.3,0.2-4.5,0.5-6.8,0.8c-0.6,0.1-1.2-0.2-1.7-0.6c-0.4-0.4-0.2-1.3,0.5-2.2c0.4-0.5,0.8-0.9,1.2-1.4c0.4-0.5,0.9-0.9,1.3-1.3
			c2.3-2.1,4.1-4.6,5.5-7.4c0.1-0.2,0.1-0.4,0-0.6c-0.1-0.3-0.4-0.6-0.9-0.6c-1,0.1-2.1,0.1-3.1,0.4c-1.4,0.3-2.8,0.7-4.2,1.1
			c-3.9,1.2-8,2.2-11.6,4.1c-0.4,0.2-1.3-0.5-1.4-0.9c-0.4-1.4-0.4-2.9-0.1-4.3c0.4-1.8,1.2-3,3.2-3.4c1.2-0.2,2.4-0.5,3.7-0.7
			c2-0.3,4.1-0.5,6.1-0.7c3.7-0.5,7.4-0.7,11-1.9c1.2-0.4,2.5-0.3,3.7,0.1c1.6,0.5,3,1.3,4.1,2.6c0.3,0.3,0.3,0.7,0.2,1.2
			c-0.3,0.8-0.9,1.4-1.5,1.9c-2.9,2.1-5.5,4.3-8,6.8c-0.4,0.4-0.7,1-1,1.5c-0.3,0.5,0.2,1.4,0.7,1.4c0.6,0.1,1.2,0.2,1.8,0.2
			c1.4,0.1,2.9,0.2,4.3,0.2c4.1,0.1,7.6,1.8,10.7,4.4c0.6,0.5,1.1,1.2,1.3,2c1,4,0.5,7.8-1.7,11.3c-0.4,0.7-0.9,1.4-1.4,2
			c-0.6,0.9-1.5,1.4-2.4,1.9c-1.5,0.7-3.1,1.1-4.8,1.1c-2.9,0-5.8,0-8.7-0.1c-1.2,0-2.5,0-3.7,0C442.4,99.6,442.4,99.6,442.4,99.6z"
			/>
		<path fill-rule="evenodd" clip-rule="evenodd" stroke="#FFFFFF" stroke-width="8" stroke-miterlimit="10" d="M247.8,98.1
			c-3.1,0.1-6.1,0.6-9.1,1.4c-0.6,0.2-1.2,0.3-1.7,0.6c-1,0.5-1.7,1.1-2,2.2c-0.6,2-1,4-0.7,6.1c0.2,1.7-0.2,3.3-0.9,4.8
			c-0.4,0.8-1.1,1.2-1.9,1.3c-0.5,0.1-1.3-0.5-1.5-0.9c-0.2-0.6-0.4-1.2-0.4-1.8c0-3.1,0.1-6.1,0.6-9.2c1.2-6.7,2.2-13.4,3.2-20.1
			c0.3-1.8,0.6-3.7,1.2-5.4c0.7-1.7,1.2-3.5,1.6-5.3c0-0.2,0.2-0.3,0.3-0.5c0.4-0.8,2-1.3,2.7-0.7c2.8,2.1,5.6,4.2,7.7,7
			c1.1,1.5,2.4,2.8,3.9,3.9c0.3,0.3,0.7,0.5,0.9,0.8c2.3,2.6,4.6,5.2,5.3,8.8c0.6,3,1.7,5.9,2.6,8.9c0.6,1.8,0.9,3.6,0.9,5.5
			c0.1,2.3,0.2,4.5,0.9,6.7c0.3,1-0.2,2-0.9,2.8c-0.7,0.8-2.1,0.7-2.6-0.2c-0.3-0.5-0.7-1.1-0.8-1.6c-1-4-2.4-7.9-3-12
			c-0.1-0.6-0.4-1.2-0.6-1.7c-0.2-0.6-1.3-1.3-1.9-1.3C250.2,98.1,249,98.1,247.8,98.1z M241.6,94.3c0,0,0-0.1,0-0.1
			c1.2,0,2.5,0.1,3.7,0c1.6-0.2,3.3-0.1,4.8-0.8c0.4-0.2,0.6-0.5,0.5-1c0-0.2,0-0.4-0.1-0.6c-1.3-3.8-3.8-6.7-6.7-9.3
			c-0.4-0.4-1-0.6-1.6-0.9c-0.6-0.3-1.7-0.1-2.2,0.5c-0.5,0.6-1.1,1.2-1.4,2c-1.2,2.6-2.1,5.3-2.6,8.1c-0.1,0.6,0.7,1.8,1.3,1.8
			C238.7,94.1,240.2,94.2,241.6,94.3z"/>
		<path fill-rule="evenodd" clip-rule="evenodd" stroke="#FFFFFF" stroke-width="8" stroke-miterlimit="10" d="M295.4,89.9
			c0-1.2,0.2-3.4,1-5.6c0.7-2,1.7-3.8,3.1-5.3c3.6-3.8,7.8-6.6,12.9-8.2c3.4-1.1,6.9-1.3,10.4-1.3c1.4,0,2.9,0.3,4.3,0.4
			c1.2,0.2,2.4,0.6,3.4,1.3c0.5,0.3,0.8,0.9,1,1.5c0.3,0.6-0.6,1.9-1.2,1.9c-0.6-0.1-1.2-0.1-1.8-0.2c-1.2-0.2-2.4-0.5-3.7-0.6
			c-2.1-0.2-4.1,0-6.1,0.8c-0.9,0.4-1.9,0.8-2.9,1.2c-1.6,0.5-3,1.4-4.2,2.5c-0.8,0.7-1.5,1.4-2.3,2.1c-2.8,2.4-4.2,5.6-5,9
			c-0.4,1.6-0.4,3.3,0.1,4.9c0.2,0.8,0.6,1.5,1.1,2.2c1.4,2.1,3.6,3.4,5.9,4.3c1.9,0.7,4,0.9,6.1,0.6c3.7-0.6,7.3-1.2,11-1.7
			c0.6-0.1,1.2,0.1,1.8,0.3c0.3,0.1,0.6,0.5,0.7,0.9c0.3,1.1-0.1,2-0.8,2.8c-0.1,0.1-0.3,0.3-0.5,0.4c-0.2,0.1-0.4,0.1-0.6,0.1
			c-5,0.2-9.8,1.2-14.7,2.2c-1.4,0.3-2.9,0.4-4.3,0.4c-1.3,0-2.5-0.2-3.6-0.8c-0.9-0.4-1.8-1-2.8-1.3c-2.2-0.8-3.9-2.3-5.4-4
			c-1.9-2.1-2.9-4.5-3-7.3C295.4,92.6,295.4,91.8,295.4,89.9z"/>
		<path fill-rule="evenodd" clip-rule="evenodd" stroke="#FFFFFF" stroke-width="8" stroke-miterlimit="10" d="M470.1,73.7
			c0,0.3,0-0.7,0-1.8c-0.1-4.6-0.2-4.2,4.1-6.5c0.5-0.3,1.2-0.4,1.7-0.6c1-0.3,2.3,0.6,2.2,1.6c-0.3,2.7-0.6,5.3-1,8
			c-0.6,4.1-0.9,8.2-0.8,12.3c0,0.9,1,1.4,1.7,0.9c1.5-1,3.1-2,4.6-3.1c1.7-1.2,3.2-2.6,4.8-3.9c2.5-1.9,4.8-3.9,7.6-5.2
			c1.5-0.7,2.6-2.1,4.1-2.7c0.7-0.3,1.7-0.1,2.3,0.5c0.6,0.6,1,1.3,1.1,2.1c0.1,0.4,0.1,0.8,0.1,1.2c-0.1,1-0.1,2.1-0.3,3.1
			c-0.6,3.5-0.5,7-0.1,10.5c0.3,2.5,0.5,4.9,0.7,7.4c0.1,1-0.3,2-1,2.8c-0.5,0.5-1.8,0.6-2.2,0c-0.1-0.2-0.3-0.3-0.4-0.5
			c-0.1-0.2-0.3-0.3-0.3-0.5c-1.2-4.8-2.6-9.5-3.1-14.5c-0.1-0.8-0.3-1.6-0.5-2.4c-0.3-1.2-1.4-1.7-2.3-1c-0.3,0.2-0.7,0.4-1,0.7
			c-4,3.8-8.1,7.6-11.5,12.1c-1.4,1.8-2.6,3.7-3.6,5.7c-0.3,0.6-1.6,1-2.2,0.6c-0.9-0.6-1.7-1.1-2.5-1.8c-0.7-0.5-1-1.3-1.1-2.1
			c-0.1-1.6-0.2-3.3-0.2-4.9c0-2.9-0.1-5.8-0.5-8.6C470.4,80.4,470.3,77.7,470.1,73.7z"/>
	</g>
	<path fill-rule="evenodd" clip-rule="evenodd" d="M98.5,8.7c0.2-0.1,0.5-0.1,0.7-0.2c0.6-0.3,1.1-0.5,1.7-0.8
		c1.4-0.8,2.9-1.2,4.5-1.6c2-0.5,4.1-1,6.2-1.4c0.3-0.1,0.7-0.1,1-0.2c3.4-0.4,6.8-0.5,10.3-0.5c1.8,0,3.5,0.3,5.2,0.6
		c1.9,0.3,3.8,0.8,5.7,1c0.5,0.1,1,0.2,1.5,0.4c1.4,0.6,2.8,1.2,4.1,1.8c1.4,0.6,2.6,1.5,3.6,2.6c0.2,0.3,0.5,0.5,0.7,0.8
		c1.9,1.7,3.4,3.8,5.2,5.6c0.5,0.5,0.9,1.1,1.3,1.7c0.7,1.1,1.4,2.2,2.2,3.3c1.2,1.6,1.9,3.4,2.4,5.2c0.6,2,1.1,4.1,1.8,6.1
		c0.1,0.4,0.2,0.9,0.2,1.3c0,1.8,0.3,3.7,0,5.5c-0.1,0.4,0.1,0.9,0.4,1.2c1.7,1.5,3.1,3.4,4.4,5.2c1.4,2,2.4,4.3,2.9,5.9
		c0.5,1.5,0.9,3,1.3,4.5c0.1,0.5,0.2,1,0.4,1.5c0.8,2.5,0.7,5,0.6,7.6c0,0.6-0.2,1.2-0.4,1.8c-0.5,1.6-0.9,3.2-1.4,4.8
		c-0.3,0.8-0.5,1.7-0.8,2.5c-0.6,1.8-1.4,3.6-2.6,5.1c-0.4,0.5-0.7,1-1.1,1.5c-0.8,1.2-1.8,2.4-2.9,3.5c-1,1.1-2.1,2.1-3,3.3
		c-0.3,0.4-0.7,0.8-1.1,1.1c-0.4,0.4-0.7,0.8-0.9,1.3c-0.1,0.2-0.2,0.5-0.1,0.8c0,0.4,0.1,0.9,0.2,1.3c0.4,1,0.4,2.1,0.5,3.1
		c0,1.4,0.2,2.8,0.3,4.2c0,2.3-0.3,4.6-0.5,6.8c0,0.3-0.1,0.7-0.2,1c-0.8,2.9-1.7,5.7-2.7,8.5c-0.5,1.4-1.2,2.7-1.8,4.1
		c-0.2,0.4-0.4,0.8-0.6,1.1c-1.1,1.5-2.2,3-3.3,4.5c-0.6,0.8-1.3,1.5-2,2.1c-0.7,0.6-1.5,1.3-2.1,2c-0.8,0.8-1.7,1.5-2.6,2.2
		c-0.5,0.4-1,0.7-1.6,1c-0.7,0.3-1.3,0.6-1.8,1c-1.5,1.1-3.2,1.8-5,2.3c-1.1,0.3-2.2,0.7-3.3,1c-1,0.2-2,0.5-3,0.9
		c-0.5,0.2-1,0.2-1.6,0.3c-0.8,0.1-1.5,0.3-2.3,0.5c-0.3,0.1-0.5,0.2-0.7,0.3c-0.7,0.3-1.3,0.8-1.7,1.6c-0.3,0.7-0.7,1.4-1,2.2
		c-0.5,1.4-1.2,2.8-1.9,4.1c-0.5,0.9-0.9,1.9-1.2,2.9c-0.3,1.1-0.6,2.2-1,3.3c-0.8,2.2-1.4,4.5-2,6.8c-0.2,0.8-0.5,1.7-0.8,2.5
		c-0.6,1.6-0.9,3.2-1.1,4.9c0,0.4-0.1,0.9-0.2,1.3c-0.5,1.9-0.9,3.8-0.9,5.7c0,0.8-0.4,1.3-0.9,1.8c-0.3,0.2-0.9,0.3-1.2,0.1
		c-1.3-0.8-2.3-1.9-2.9-3.3c-0.4-0.9-0.9-1.7-1.4-2.5c-0.5-0.9-0.8-1.7-1.5-2.5c-0.2-0.2-0.3-0.5-0.3-0.7c-0.3-1-0.7-2-1.1-3
		c-0.3-0.6-0.4-1.1-0.7-1.7c-0.6-1.6-1.2-3.1-2.1-4.6c-0.4-0.7-0.7-1.4-0.9-2.2c-0.2-0.9-0.6-1.7-0.9-2.5c-0.2-0.3-0.4-0.6-0.8-0.5
		c-0.9,0-1.8,0-2.6,0.1c-1.4,0.2-2.8,0.2-4.2,0c-0.8-0.1-1.6-0.2-2.4-0.2c-2.1-0.1-4.2-0.4-6.3-0.7c-1.8-0.3-3.6-0.9-5.3-1.4
		c-0.8-0.2-1.5-0.5-2.3-0.7c-0.5-0.1-1-0.3-1.5-0.6c-0.7-0.3-1.4-0.7-2.2-0.9c-0.3-0.1-0.8,0.1-1,0.3c-0.8,1.2-1.6,2.3-2.3,3.6
		c-0.8,1.3-1.4,2.6-1.9,4c-0.5,1.4-1.1,2.8-1.5,4.2c-0.2,0.5-0.3,1-0.6,1.5c-0.6,1.2-1,2.4-1.5,3.7c-0.2,0.4-0.3,0.8-0.4,1.3
		c-0.3,1.3-0.8,2.5-1.4,3.7c-1,2-2,3.9-3.1,5.8c-0.1,0.2-0.3,0.4-0.5,0.6c-0.3,0.3-0.7,0.5-1.2,0.5c-0.2,0-0.5-0.3-0.6-0.5
		c0-0.2-0.1-0.3-0.1-0.5c0.1-1.2,0.2-2.5,0.4-3.7c0.1-1.1,0-2.3,0-3.4c0-0.3-0.1-0.7-0.2-1c-0.3-0.9-0.3-1.7-0.3-2.6
		c0.1-1.8-0.1-3.5-0.3-5.3c-0.1-0.5-0.2-1-0.2-1.6c-0.2-1.3-0.4-2.6-0.9-3.8c-0.3-0.7-0.4-1.5-0.6-2.3c-0.3-1.1-0.6-2.2-1.2-3.2
		c-0.3-0.5-0.5-1.1-0.6-1.7c-0.4-1.3-0.8-2.5-1.4-3.7c-0.4-0.9-0.6-1.8-0.9-2.8c-0.1-0.3-0.3-0.6-0.7-0.8c-0.6-0.3-1.1-0.5-1.7-0.7
		c-1.7-0.7-3.3-1.6-4.8-2.8c-1.8-1.4-3.6-2.8-5.4-4.3c-1.9-1.6-3.6-3.4-5-5.4c-0.5-0.8-1.2-1.5-1.6-2.4c-0.6-1-1.1-2-1.5-3.1
		c-0.2-0.6-0.4-1.2-0.7-1.7c-0.9-1.8-1.4-3.8-1.9-5.7c-0.2-0.9-0.5-1.9-0.6-2.8c-0.3-1.7-0.4-3.3-0.5-5c0-2,0.2-4,0.4-6
		c0.2-1.9,0.7-3.8,1.3-5.6c0.2-0.8,0.6-1.4,0.9-2.2c0.1-0.3,0.2-0.7,0-1c-0.7-1.5-1-3.2-1-4.9c0-0.4-0.1-0.9-0.2-1.3
		c-0.1-0.6-0.2-1.2-0.2-1.8c0-0.3,0-0.5,0.1-0.8c0.3-0.9,0.4-1.9,1-2.7c0-0.1,0.1-0.2,0.1-0.2c1.2-2.7,3-5,5.1-7
		c0.3-0.3,0.7-0.6,1-0.9c1.6-1.6,3.4-2.7,5.3-3.8c0.9-0.5,1.8-1.1,2.7-1.7c0.4-0.3,0.8-0.7,1.2-1c0.2-0.1,0.2-0.6,0-0.7
		c-0.8-0.7-1.5-1.4-2.4-2.1c-0.6-0.5-1.3-1-2-1.4c-1.3-0.8-2.3-1.9-3.2-3.1c-0.7-1-1.3-2.1-2.1-3c-0.4-0.5-0.6-1.1-0.9-1.6
		c-0.3-0.6-0.5-1.3-0.5-2c0-1.1,0-2.3,0.1-3.4c0-0.5,0.2-1,0.4-1.5c0.3-0.9,0.6-1.8,1-2.7c0.1-0.3,0.3-0.6,0.5-0.9
		c0.5-0.9,1.1-1.8,1.7-2.7c0.2-0.3,0.4-0.6,0.7-0.8c0.9-0.8,1.7-1.7,2.7-2.5c0.1-0.1,0.1-0.3,0.1-0.5c0-0.2-0.1-0.3-0.3-0.4
		c-0.5-0.1-1-0.3-1.5-0.4c-0.3-0.1-0.5,0-0.8-0.1c-2.6-0.1-5.1,0.1-7.6,0.8c-1.4,0.4-2.9,0.7-4.3,1.1c-1,0.3-2,0.6-2.9,1.3
		c-0.6,0.4-1.2,0.7-1.8,1c-1,0.5-2.1,1-3.1,1.5c-0.8,0.4-1.6,0.7-2.5,0.9c-0.5,0.1-1,0.1-1.6,0C5.5,43.2,5.2,43,5,42.7
		c-0.4-0.7-0.8-1.4-0.9-2.2C4,40.2,4,39.8,4,39.5c0-0.4,0.1-0.9,0.1-1.3c0-1,0.3-1.9,0.8-2.7c1-1.6,1.9-3.2,2.9-4.7
		c0.4-0.7,1-1.2,1.5-1.8c1.5-1.5,3.8-3.6,5.3-4.7c1.7-1.2,3.5-2.3,5.5-3.1c1.1-0.4,2.2-0.5,3.4-0.4c0.3,0,0.5,0.1,0.8,0.2
		c1.6,0.7,2.8,1.8,3.7,3.2c0.5,0.8,1,1.7,1.5,2.5c1,1.8,2.4,3.2,3.8,4.7c0.1,0.1,0.3,0.2,0.4,0.3c1.8,1.2,3.6,2.2,5.7,2.6
		c0.9,0.2,1.8,0,2.5-0.5c0.4-0.3,0.9-0.6,1.4-0.7c0.8-0.3,1.7-0.5,2.5-0.9c0.2-0.1,0.5-0.2,0.8-0.2c1-0.2,2-0.5,3-0.9
		c1-0.4,2-0.5,3.1-0.8c0.4-0.1,0.6-0.3,0.9-0.6c1-1.4,1.9-2.9,2.7-4.5c0.4-0.8,0.8-1.5,1.4-2.2c0.5-0.5,0.9-1.1,1.3-1.7
		c0.3-0.5,0.8-1,1.2-1.4c1.2-1.1,2.4-2.3,3.6-3.4c0.6-0.5,1.2-1,1.9-1.5c0.7-0.4,1.3-1,1.9-1.4c2.1-1.4,4.4-2.6,6.8-3.5
		c1.1-0.4,2.1-0.8,3.2-1.2c1.4-0.5,2.9-0.9,4.3-1.2c1.9-0.4,3.8-0.7,5.7-1c0.3-0.1,0.7-0.1,1,0c1.2,0.1,2.5,0.2,3.7,0.4
		c1.2,0.2,2.4,0.4,3.6,0.9C96.8,8.2,97.6,8.4,98.5,8.7z"/>
	<path fill-rule="evenodd" clip-rule="evenodd" fill="#FFFFFF" d="M152.4,37.5c-0.6-0.3-1.2-0.7-1.8-1c-0.3-0.2-0.7-0.2-1-0.3
		c-0.2,0-0.5,0-0.8,0.1c-0.2,0.1-0.4,0.4-0.3,0.7c0,0.2,0.1,0.4,0.3,0.4c0.2,0.1,0.5,0.2,0.7,0.3c0.5,0.2,1,0.4,1.4,0.8
		c1.3,1.1,2.7,2,4,3c0.6,0.5,1.2,1,1.8,1.5c2.8,2.8,4.8,6,6.1,9.8c0.4,1.2,0.8,2.3,1.1,3.5c0.3,1.1,0.7,2.2,1,3.3
		c0.7,2.2,0.7,4.5,0.3,6.8c-0.4,2.5-1.2,5-2.4,7.3c-0.3,0.6-0.7,1.2-1.1,1.8c-1.5,2.6-3.4,4.9-5.5,7.1c-0.2,0.2-0.4,0.4-0.6,0.5
		c-1.3,0.8-2.4,1.8-3.7,2.5c-0.2,0.1-0.5,0.1-0.8,0.2c-0.2,0-0.3,0-0.5-0.2c-0.3-0.3-0.5-0.7-0.7-1.1c-0.2-0.3-0.4-0.6-0.6-0.9
		c-0.2-0.2-0.4-0.4-0.6-0.4c-0.2,0-0.3,0-0.5,0c-0.2,0.1-0.4,0.5-0.3,0.7c0.1,0.2,0.1,0.5,0.3,0.7c1.2,2.4,2,4.9,2.6,7.4
		c0.1,0.3,0.1,0.5,0.2,0.8c0.3,2.9,0.6,5.8,0.6,8.7c0,2.2-0.3,4.4-0.6,6.6c-0.1,0.8-0.3,1.6-0.6,2.3c-0.7,2.2-1.3,4.4-2.2,6.5
		c-1.6,4.1-3.2,6.7-6.5,10.1c-0.4,0.4-0.9,0.8-1.4,1.2c-0.8,0.7-1.6,1.4-2.4,2.1c-2.1,1.7-4.5,3.1-6.9,4.3c-2.1,0.7-4.1,1.6-6.3,2
		c-0.6,0.1-1.2,0.3-1.8,0.5c-0.4,0.1-0.9,0.2-1.3,0.3c-0.7,0.2-1.4-0.1-2.1,0.1c-0.7,0.2-1.3,0.6-2,0.6c-0.1,0-0.2,0-0.3,0
		c-0.8,0.2-1.5,0.4-2.3,0.5c-1.1,0.1-2.3,0.1-3.4,0.1c-0.5,0-1.1,0-1.6,0c-0.6,0-0.9,0.4-1.2,0.9c-0.1,0.2,0,0.5,0.3,0.6
		c0.2,0.1,0.5,0.2,0.8,0.2c0.8,0,1.6,0,2.4,0c0.4,0,0.9,0,1.3,0.2c0.2,0.1,0.2,0.3,0.2,0.4c-0.7,1.4-1.7,2.5-2.9,3.3
		c-1.6,1.2-3.3,2.3-5,3.4c-0.6,0.4-1.2,0.7-1.9,1c-1.5,0.6-2.9,1.2-4.4,1.8c-0.7,0.3-1.5,0.5-2.3,0.7c-1.4,0.4-2.8,0.5-4.2,0.5
		c-1.8,0-3.7,0-5.5,0.2c-0.6,0.1-1.2,0.1-1.8,0c-1.8-0.2-3.7-0.4-5.5-0.5c-1.9-0.2-3.8-0.6-5.7-0.9c-1.2-0.4-2.5-0.8-3.7-1.3
		c-1.5-0.5-3-1.1-4.5-1.6c-0.6-0.2-1.1-0.5-1.7-0.8c-1.8-1-3.4-2.2-5-3.4c-0.9-0.7-1.8-1.4-2.8-2c-0.8-0.5-1.4-1.1-1.9-1.9
		c-0.1-0.1-0.2-0.3-0.3-0.4c-1.2-2-2.4-4.1-3.5-6.2c-0.3-0.5-0.4-1.1-0.7-1.7c-0.1-0.2-0.2-0.3-0.3-0.4c-0.2-0.2-0.8-0.1-0.9,0.2
		c-0.1,0.2-0.2,0.5-0.1,0.8c0.3,1.1,0.6,2.2,1.2,3.2c0.8,1.3,1.6,2.7,2.3,4.1c0.3,0.6,0.9,1.1,1.1,1.8c0,0.1-0.1,0.4-0.2,0.4
		c-0.2,0.1-0.5,0.2-0.8,0.1c-1.4-0.1-2.8-0.3-4.2-0.4c-0.3,0-0.7-0.1-1-0.2c-0.7-0.2-1.4-0.4-2-0.5c-2.6-0.6-5-1.6-7.3-2.9
		c-0.2-0.1-0.5-0.2-0.7-0.4c-1.3-1.2-2.8-2.1-4.1-3.3c-1.2-1.1-2.3-2.2-3.5-3.2c-0.7-0.5-1.3-1.2-1.8-2c-0.9-1.3-1.8-2.6-2.7-3.9
		c-0.2-0.4-0.4-0.8-0.6-1.2c-0.5-1.1-1-2.3-1.5-3.4c-0.1-0.2-0.2-0.5-0.3-0.7c-0.5-1.8-1.1-3.5-1.6-5.3c-0.6-2.2-1-4.5-1-6.8
		c0.1-1.5,0.1-3,0.1-4.5c0-0.5,0.1-1,0.2-1.6c0.1-0.8,0.2-1.6,0.3-2.4c0.2-1.3,0.5-2.6,1.1-3.8c0.2-0.3,0.6-0.5,0.9-0.3
		c0.3,0.3,0.6,0.6,1,0.9c0.4,0.3,0.8,0.7,1.2,1c0.7,0.5,1.5,0.9,2.3,1.2c0.8,0.3,1.7,0.6,2.4,1.1c0.7,0.5,1.6,0.6,2.4,1
		c0.2,0.1,0.3,0.5,0.2,0.7c-0.1,0.1-0.2,0.3-0.3,0.4c-1.1,1-2.2,2-3.4,3c-0.2,0.2-0.4,0.3-0.6,0.5c-0.7,0.6-1.3,1.4-1.8,2.2
		c-1,1.7-1.6,3.5-2.1,5.4c-0.1,0.4-0.1,0.9-0.2,1.3c-0.2,1.3,0.2,2.4,1,3.5c0.1,0.1,0.3,0.2,0.4,0.3c0.1,0,0.2,0.1,0.2,0.1
		c2.1,0.6,4.2,1.4,6.2,2.2c0.3,0.1,0.7,0.3,1,0.3c1.6,0.4,3.2,1,4.7,1.6c1.3,0.5,2.7,0.9,4,1.3c0.7,0.2,1.4,0.3,2.1,0.4
		c0.5,0.1,1-0.1,1.5-0.5c1-0.8,1.9-1.6,2.5-2.7c0.3-0.5,0.7-1,1.1-1.5c0.2-0.2,0.3-0.4,0.3-0.7c0-0.4,0.1-0.7,0.3-1
		c0.7-1,1.2-2.1,1.8-3.2c0.3-0.6,0.6-1.3,1-1.9c0.6-1,1.1-2,1.6-3c0.1-0.3,0.3-0.6,0.5-0.9c1.3-1.9,2.1-4,3.3-6
		c1-1.7,1.6-3.5,2.2-5.4c0.1-0.3,0.2-0.7,0.2-1c0.2-1,0-1.9-0.6-2.8c-0.3-0.4-0.5-0.7-0.8-1c-0.3-0.4-0.6-0.7-0.9-0.9
		c-0.7-0.4-1.3-0.9-2-1.3c-0.7-0.4-1.3-0.9-2-1.3c-0.5-0.3-1-0.7-1.5-1C52,87,51.5,86.8,51,86.8c-0.3,0-0.5,0-0.8-0.1
		c-1.4-0.4-2.4,0.2-3.3,1.1c-0.4,0.4-0.9,0.9-1.4,1.2c-1.2,0.9-2.4,1.8-3.5,2.8c-1.2,1-2.4,1.8-3.5,2.9c-0.5,0.5-1.1,0.8-1.7,1.3
		c-0.2,0.1-0.6,0.1-0.7-0.1c-0.2-0.3-0.5-0.5-0.7-0.8c-0.5-0.8-1-1.7-1.5-2.5c-1.3-2-2.2-4.2-2.7-6.6c-0.3-1.5-0.7-3.1-0.8-4.7
		c0-0.4-0.1-0.7-0.1-1.1c-0.1-2.1,0.3-4,1.3-5.8c0.2-0.3,0.4-0.6,0.6-0.9c0.5-0.6,1-1.2,1.6-1.8c1.2-1.2,2.7-2,4.2-2.6
		c0.8-0.3,1.7-0.4,2.6-0.3c0.2,0,0.4,0.1,0.5,0.1c0.5,0.3,0.9,0.6,1.3,0.8c0.9,0.6,1.9,1,2.9,1.3c0.9,0.2,1.8,0.6,2.8,0.9
		c2.6,0.7,5.3,1.3,8,1.5c0.7,0.1,1.4,0.1,2.1,0.3c1.1,0.3,2.3,0.3,3.4,0.3c1.6,0,3.2-0.1,4.8-0.1c0.8,0,1.6-0.1,2.4-0.2
		c1.8-0.2,3.5-0.4,5.2-0.7c1.6-0.3,3.1-0.6,4.6-1.2c0.2-0.1,0.5-0.2,0.8-0.2c2-0.4,3.8-1.2,5.6-2.2c0.5-0.2,0.9-0.4,1.5-0.6
		c1.4-0.4,2.7-0.8,4-1.2c0.8-0.3,1.6-0.7,2.4-1c1.4-0.6,2.7-1.3,4.1-1.9c1.7-0.7,3.3-1.6,4.8-2.7c0.3-0.2,0.6-0.4,0.9-0.6
		c1.8-1,3.3-2.3,4.5-3.9c0.6-0.8,1.4-1.6,1.9-2.5c0.2-0.4,0.4-0.8,0.5-1.2c0.3-0.9,0.5-1.9,0.7-2.8c0.1-0.4,0.1-0.9,0.1-1.3
		c-0.1-1-0.1-1.9-0.4-2.9c-0.2-0.5-0.2-1-0.3-1.6c-0.2-1.2-0.6-2.2-1.4-3.1c-0.4-0.5-0.8-1-1.3-1.3c-1.3-1-2.4-2.3-3.7-3.4
		c-0.2-0.2-0.1-0.6,0.1-0.7c2.4-1,4.8-1.7,7.4-1.9c0.6-0.1,1.2-0.1,1.8-0.1c1.1,0,2.1,0,3.2-0.1c2.6-0.1,5.1,0.2,7.6,0.7
		c1,0.2,2.1,0.2,3.1,0.5c1.2,0.3,2.4,0.3,3.7,0.4c0.7,0,1.4,0,2.1-0.1c0.6-0.1,1.2-0.4,1.6-0.8c0.6-0.6,0.9-1.3,0.8-2.1
		c-0.2-1.2-0.7-2.2-1.4-3.1c-0.7-0.8-1.2-1.7-2.1-2.3c-0.8-0.5-1.3-1.4-2.3-1.8c-1.2-0.9-2.4-1.8-3.7-2.5c-2.2-1.2-4.4-2.2-6.8-2.7
		c-0.3-0.1-0.7-0.2-1-0.3c-1.1-0.4-2.2-0.5-3.4-0.5c-1.3-0.1-2.6,0.2-3.8,0.7c-2.3,1-4.3,2.4-5.9,4.4c-0.3,0.3-0.6,0.7-0.8,1
		c-1.4,1.9-3,3.4-4.6,5.1c-0.6,0.6-1.3,1.2-2.1,1.6c-0.8,0.5-1.5,0.9-2.5,0.7c-0.7-0.1-1.4,0.2-2.1,0.1c-0.7-0.2-1.4-0.4-2-0.5
		c-0.8-0.2-1.6-0.3-2.3-0.4s-1.6-0.2-2.4-0.3c-1.8-0.2-3.5-0.3-5.2-0.7c-0.5-0.1-1-0.2-1.6-0.2c-1.1-0.1-2.3-0.3-3.4-0.5
		c-0.9-0.2-1.7-0.3-2.6-0.4c-1.1-0.1-2.3-0.3-3.4-0.4c-0.6-0.1-1.2-0.1-1.8-0.1c-3.3-0.1-6.7-0.2-10,0c-0.3,0-0.7,0.1-1-0.1
		c-0.2-0.1-0.3-0.2-0.2-0.4c0-0.2,0.1-0.3,0.1-0.5c0.9-1.5,1.9-3,2.9-4.4c0.3-0.4,0.7-0.8,1-1.2c1.5-1.5,3-3,4.5-4.5
		c1.3-1.4,2.9-2.6,4.3-3.8c1.1-0.9,2.4-1.5,3.7-2c1.3-0.5,2.6-1,3.9-1.6c2-0.9,4.1-1.5,6.3-2c0.7-0.2,1.4-0.2,2.1-0.2
		c1.9-0.1,5,0.4,6.7,1.1c0.7,0.3,1.3,0.6,1.7,1.2c0.1,0.1,0.1,0.4,0,0.5c-0.1,0.2-0.3,0.4-0.5,0.6c-1.2,0.8-2.1,1.9-2.9,3.1
		c-0.3,0.4-0.3,0.8-0.2,1.3c0.1,0.2,0.5,0.4,0.7,0.3c0.3-0.1,0.4-0.3,0.6-0.5c0.6-0.8,1.2-1.5,2-2.1c0.8-0.6,1.7-1.3,2.7-1.7
		c0.7-0.3,1.3-0.8,2.1-1c0.3-0.1,0.6-0.3,0.9-0.6c1.2-1,2.5-1.6,3.8-2.3c1.1-0.6,2.3-1,3.5-1.2c1.8-0.4,3.6-0.7,5.4-1.2
		c0.4-0.1,0.9-0.1,1.3-0.2c0.7-0.1,1.4-0.2,2.1-0.3c1.4-0.2,2.8-0.3,4.2-0.3c0.7,0,1.4-0.1,2.1,0c0.7,0,1.4,0.1,2.1,0.1
		c1.7,0,3.3,0.1,5,0.6c0.5,0.1,1,0.2,1.6,0.2c0.4,0.1,0.9,0.1,1.3,0.2c1.9,0.4,3.8,0.7,5.5,1.7c0.6,0.3,1.3,0.5,2,0.7
		c0.8,0.3,1.4,0.7,2,1.2c2.1,2,4.1,4.1,6.1,6.3c0.9,1,1.8,2.2,2.5,3.4c0.5,0.7,1,1.5,1.5,2.2c1.2,1.7,2,3.7,2.7,5.7
		c0.1,0.2,0.1,0.3,0.1,0.5c0,1.2,0.2,2.5,0.1,3.7c0,1.1-0.1,2.3-0.2,3.4c0,0.3-0.2,0.7-0.3,1C153.1,36.9,152.9,37.2,152.4,37.5z"/>
	<g>
		<path fill-rule="evenodd" clip-rule="evenodd" d="M194.2,90.2c0.1-2.7,0.2-5,0.2-7.2c0.1-6.2,0.2-12.4,0.3-18.6
			c0-0.6,0-1.2,0.2-1.8c0.1-0.4,0.3-0.9,0.6-1c3.2-1.1,5.8-3.1,8.4-5.1c0.6-0.5,1.3-1,2-1.5c0.2-0.1,0.4-0.2,0.6-0.2
			c0.4,0,0.8,0,1.2,0.2c0.4,0.2,0.6,0.7,0.5,1c-1.4,4.3-2.8,8.6-4.2,12.9c-0.6,2-1.3,3.9-1.9,5.9c-1.2,3.8-2.7,12.2-2.6,15.8
			c0,0.6,0.1,1.2,0.1,1.8c0,0.4,0.9,1.1,1.3,1c4.8-0.2,9.4-1.2,13.9-2.8c0.3-0.1,0.6-0.6,0.7-0.9c0.2-0.6,0.3-1.2,0.3-1.8
			c0-1.6,0.1-3.3,0.1-5c0-3.5,0.2-7,0.7-10.5c0.2-1.6,0.4-3.3,0.5-4.9c0.2-2.4,1.2-3.1,4.1-3.7c0.7-0.1,1.7,0.8,1.8,1.4
			c0,0.2,0.1,0.4,0.1,0.6c-0.1,2.3-0.5,4.5-0.2,6.8c0.1,0.8-0.2,1.6-0.3,2.4c-0.5,3.5-1,6.9-1.4,10.4c-0.2,1.6-0.2,3.3-0.3,4.9
			c-0.2,3.1-0.3,6.2-0.6,9.3c-0.2,2.1-0.2,4.1,0.1,6.2c0.2,1.6,0.5,3.3,0.7,4.9c0.2,1.6,0.3,3.3,0.2,4.9c-0.1,2.2-1,3.9-2.6,5.4
			c-1,1-3,0.7-3.7-0.7c-0.2-0.3-0.3-0.8-0.3-1.2c0.4-2.5,0.5-4.9,0.2-7.4c-0.2-1.6-0.1-3.3-0.1-4.9c-0.1-2.5-0.2-4.9-0.3-7.4
			c0-0.5-0.7-1.2-1.2-1.3c-2.3-0.6-4.5-0.5-6.7,0.1c-2,0.5-3.9,1.4-5.6,2.5c-1.4,1-2.3,2.3-2.5,4.1c-0.3,2.7-0.4,5.3-0.1,8
			c0.2,2.1,0.4,4.1,0,6.2c-0.1,0.6-0.5,1.1-0.8,1.6c-0.7,0.9-2.1,0.6-2.5-0.3c-0.6-1.1-0.8-2.3-0.9-3.6c-0.1-0.6-0.1-1.2,0-1.9
			c0.4-5.1,0-10.3,0.2-15.5c0-0.6,0-1.2-0.1-1.9C193.8,95.1,193.7,92.4,194.2,90.2z"/>
		<path fill-rule="evenodd" clip-rule="evenodd" d="M415.7,103.5c-0.2,0.4-0.4,1-0.7,1.5c-0.2,0.3-0.6,0.6-0.9,0.8
			c-1.1,0.6-2.2,1.1-3.3,1.6c-1.5,0.6-3.5-0.5-3.8-2.1c-0.2-1.4-0.3-2.9-0.4-4.3c-0.2-2.9-0.3-5.8-0.4-8.6c0-0.4-0.2-0.8-0.2-1.2
			c-0.3-1.3-2-2.3-3.5-1.4c-0.4,0.2-0.7,0.4-1,0.7c-2.9,2.4-5.5,5-7.6,8.1c-0.7,1-1.4,2.1-2.1,3c-2.3,2.9-4.2,6.1-5.9,9.4
			c-0.4,0.7-0.9,1.3-1.5,2c-0.5,0.6-1.7,0.6-2.2,0c-0.5-0.5-0.7-1.1-0.5-1.7c0.3-1,0.7-1.9,1.2-2.8c1.9-3.4,3.9-6.8,5.8-10.2
			c1.3-2.3,2.6-4.7,3.3-7.3c0.2-0.8-0.3-1.6-1.2-1.7c-1.4-0.2-2.9-0.3-4.3-0.6c-0.6-0.1-1.2-0.3-1.8-0.5c-2.6-0.9-4.3-3.4-4.3-6.2
			c0-1,0.2-2,0.3-3.1c0.3-1.7,1.1-3.1,2.4-4.2c2.3-2,5-3.6,7.8-5c1.9-0.9,3.9-1.4,6-1.3c2.9,0.1,5.8,0.1,8.5,1.2
			c0.8,0.3,1.6,0.2,2.4,0.5c0.4,0.1,0.7,0.4,0.9,0.8c0.7,1.3,1.2,2.6,1.4,4.1c0.9,5.7,2,11.4,2.3,17.1c0.1,2.1,0.5,4.1,1.4,6
			c0.6,1.3,1,2.7,1.4,4.1C415.7,102.6,415.7,103,415.7,103.5z M405.9,79.6c-0.1-1.4-0.2-2.6-0.3-3.9c-0.1-0.6-0.3-1.2-0.5-1.8
			c-0.3-0.8-0.9-1.4-1.8-1.6c-1.4-0.2-2.9-0.4-4.3-0.5c-3.6-0.2-7,0.6-10,2.6c-0.9,0.6-1.8,1.1-2.5,1.7c-0.6,0.5-1.1,1.2-1.5,1.9
			c-0.6,1.1-0.8,2.3-0.7,3.6c0.1,1.1,0.5,2,1.4,2.6c0.8,0.6,1.8,1.1,2.8,1.3c2.1,0.3,4.2,0.5,6.1-0.2c2-0.6,4-0.9,6.1-1.2
			c1.2-0.2,2.4-0.5,3.6-0.7c1.1-0.2,1.7-1.1,1.6-2.3C405.9,80.7,405.9,80.1,405.9,79.6z"/>
		<path fill-rule="evenodd" clip-rule="evenodd" d="M349.6,109.4c-1.4,0-2.9,0-4.3,0c-1.3,0-2.5-0.1-3.4-1.2c-1-1.3-2-2.8-1.8-4.5
			c0.4-3.3,0.3-6.6,0.3-9.8c0-0.6,0-1.2,0.1-1.8c1-5.1,0.6-10.3,1.6-15.3c0-0.2,0.1-0.4,0.2-0.6c0.2-0.3,0.5-0.6,0.8-0.9
			c0.1-0.1,0.3-0.2,0.5-0.3c2.5-0.8,5.2-1.3,7.7-2.4c0.7-0.3,1.6-0.3,2.4-0.6c3.3-1,6.5-0.4,9.7,0.6c1.4,0.4,2.6,1.2,3.7,2.2
			c0.6,0.6,1.1,1.2,1.2,2.1c0.1,1,0.1,2,0.3,3.1c0.1,0.8,0.3,1.6,0.6,2.4c0.4,1,0.9,1.8,1.9,2.3c2.4,1.3,4.2,3.3,6.1,5.2
			c1.5,1.5,2.3,3.4,2.4,5.5c0,0.6,0.1,1.2,0,1.8c-0.1,0.6-0.2,1.2-0.5,1.8c-1,1.8-2.3,3.4-4.1,4.5c-2.4,1.6-5.1,2.7-7.8,3.6
			c-2.4,0.7-4.7,1.4-7.1,1.9c-2.2,0.5-4.5,0.7-6.7,0.6c-1.2,0-2.5-0.1-3.7-0.1C349.6,109.4,349.6,109.4,349.6,109.4z M364.4,88.2
			c-2.6-0.4-5.2-0.1-7.8,0.7c-1,0.3-2,0.5-3,0.7c-1.5,0.2-2.7,1-3.8,1.9c-1.7,1.3-2.7,3-2.2,5.3c0.4,1.8,0.6,3.7,1,5.5
			c0.4,2,2.4,3.6,4.4,3.6c5.7,0.2,11-1.2,16.2-3.3c1.9-0.8,3.6-1.9,5.3-3.2c1.2-0.9,1.7-2.3,1.5-3.9c-0.1-1-0.5-2-1.1-2.8
			c-0.5-0.7-1.1-1.2-1.7-1.8c-1.5-1.6-3.3-2.5-5.5-2.5C366.5,88.4,365.5,88.3,364.4,88.2z M350.5,85.8
			C350.5,85.7,350.5,85.7,350.5,85.8c0.4,0,0.8,0,1.2,0c3.2,0.3,6.1-0.5,9.1-1.5c1.2-0.4,2.2-1.1,3.1-2c0.8-0.7,1.2-1.6,1.5-2.7
			c0.3-1.3-0.6-3.1-1.8-3.6c-2.9-1.3-5.9-1.7-9.1-1c-2.6,0.6-5.1,1.5-7.6,2.7c-0.8,0.4-1.3,1.1-1.4,2c-0.2,1.6-0.5,3.3-0.1,4.9
			c0.1,0.3,0.5,0.8,0.7,0.9C347.7,85.6,349.1,85.7,350.5,85.8z"/>
		<path fill-rule="evenodd" clip-rule="evenodd" d="M442.4,99.6c-3.5,0-7,0-10.5,0c-0.8,0-1.6-0.1-2.5,0c-0.6,0-1.5-0.8-1.7-1.6
			c-0.1-0.6,0.1-1.2,0.5-1.7c0.4-0.4,0.9-0.8,1.5-1.1c0.7-0.4,1.6-0.7,2.4-0.2c1.5,0.9,3,1.1,4.7,1.1c3.3,0.1,6.6,0.1,9.9,0.4
			c2.1,0.2,4.1-0.1,6.2-0.3c1.9-0.2,3-1.4,3.5-3c0.7-1.9,1.1-4,1.2-6.1c0.1-1.9-0.6-3.7-1.5-5.3c-0.2-0.3-0.6-0.6-0.9-0.7
			c-1.1-0.5-2.4-0.8-3.6-0.7c-1.9,0.1-3.7,0.3-5.5,0.5c-2.3,0.2-4.5,0.5-6.8,0.8c-0.6,0.1-1.2-0.2-1.7-0.6c-0.4-0.4-0.2-1.3,0.5-2.2
			c0.4-0.5,0.8-0.9,1.2-1.4c0.4-0.5,0.9-0.9,1.3-1.3c2.3-2.1,4.1-4.6,5.5-7.4c0.1-0.2,0.1-0.4,0-0.6c-0.1-0.3-0.4-0.6-0.9-0.6
			c-1,0.1-2.1,0.1-3.1,0.4c-1.4,0.3-2.8,0.7-4.2,1.1c-3.9,1.2-8,2.2-11.6,4.1c-0.4,0.2-1.3-0.5-1.4-0.9c-0.4-1.4-0.4-2.9-0.1-4.3
			c0.4-1.8,1.2-3,3.2-3.4c1.2-0.2,2.4-0.5,3.7-0.7c2-0.3,4.1-0.5,6.1-0.7c3.7-0.5,7.4-0.7,11-1.9c1.2-0.4,2.5-0.3,3.7,0.1
			c1.6,0.5,3,1.3,4.1,2.6c0.3,0.3,0.3,0.7,0.2,1.2c-0.3,0.8-0.9,1.4-1.5,1.9c-2.9,2.1-5.5,4.3-8,6.8c-0.4,0.4-0.7,1-1,1.5
			c-0.3,0.5,0.2,1.4,0.7,1.4c0.6,0.1,1.2,0.2,1.8,0.2c1.4,0.1,2.9,0.2,4.3,0.2c4.1,0.1,7.6,1.8,10.7,4.4c0.6,0.5,1.1,1.2,1.3,2
			c1,4,0.5,7.8-1.7,11.3c-0.4,0.7-0.9,1.4-1.4,2c-0.6,0.9-1.5,1.4-2.4,1.9c-1.5,0.7-3.1,1.1-4.8,1.1c-2.9,0-5.8,0-8.7-0.1
			c-1.2,0-2.5,0-3.7,0C442.4,99.6,442.4,99.6,442.4,99.6z"/>
		<path fill-rule="evenodd" clip-rule="evenodd" d="M247.8,98.1c-3.1,0.1-6.1,0.6-9.1,1.4c-0.6,0.2-1.2,0.3-1.7,0.6
			c-1,0.5-1.7,1.1-2,2.2c-0.6,2-1,4-0.7,6.1c0.2,1.7-0.2,3.3-0.9,4.8c-0.4,0.8-1.1,1.2-1.9,1.3c-0.5,0.1-1.3-0.5-1.5-0.9
			c-0.2-0.6-0.4-1.2-0.4-1.8c0-3.1,0.1-6.1,0.6-9.2c1.2-6.7,2.2-13.4,3.2-20.1c0.3-1.8,0.6-3.7,1.2-5.4c0.7-1.7,1.2-3.5,1.6-5.3
			c0-0.2,0.2-0.3,0.3-0.5c0.4-0.8,2-1.3,2.7-0.7c2.8,2.1,5.6,4.2,7.7,7c1.1,1.5,2.4,2.8,3.9,3.9c0.3,0.3,0.7,0.5,0.9,0.8
			c2.3,2.6,4.6,5.2,5.3,8.8c0.6,3,1.7,5.9,2.6,8.9c0.6,1.8,0.9,3.6,0.9,5.5c0.1,2.3,0.2,4.5,0.9,6.7c0.3,1-0.2,2-0.9,2.8
			c-0.7,0.8-2.1,0.7-2.6-0.2c-0.3-0.5-0.7-1.1-0.8-1.6c-1-4-2.4-7.9-3-12c-0.1-0.6-0.4-1.2-0.6-1.7c-0.2-0.6-1.3-1.3-1.9-1.3
			C250.2,98.1,249,98.1,247.8,98.1z M241.6,94.3c0,0,0-0.1,0-0.1c1.2,0,2.5,0.1,3.7,0c1.6-0.2,3.3-0.1,4.8-0.8
			c0.4-0.2,0.6-0.5,0.5-1c0-0.2,0-0.4-0.1-0.6c-1.3-3.8-3.8-6.7-6.7-9.3c-0.4-0.4-1-0.6-1.6-0.9c-0.6-0.3-1.7-0.1-2.2,0.5
			c-0.5,0.6-1.1,1.2-1.4,2c-1.2,2.6-2.1,5.3-2.6,8.1c-0.1,0.6,0.7,1.8,1.3,1.8C238.7,94.1,240.2,94.2,241.6,94.3z"/>
		<path fill-rule="evenodd" clip-rule="evenodd" d="M295.4,89.9c0-1.2,0.2-3.4,1-5.6c0.7-2,1.7-3.8,3.1-5.3
			c3.6-3.8,7.8-6.6,12.9-8.2c3.4-1.1,6.9-1.3,10.4-1.3c1.4,0,2.9,0.3,4.3,0.4c1.2,0.2,2.4,0.6,3.4,1.3c0.5,0.3,0.8,0.9,1,1.5
			c0.3,0.6-0.6,1.9-1.2,1.9c-0.6-0.1-1.2-0.1-1.8-0.2c-1.2-0.2-2.4-0.5-3.7-0.6c-2.1-0.2-4.1,0-6.1,0.8c-0.9,0.4-1.9,0.8-2.9,1.2
			c-1.6,0.5-3,1.4-4.2,2.5c-0.8,0.7-1.5,1.4-2.3,2.1c-2.8,2.4-4.2,5.6-5,9c-0.4,1.6-0.4,3.3,0.1,4.9c0.2,0.8,0.6,1.5,1.1,2.2
			c1.4,2.1,3.6,3.4,5.9,4.3c1.9,0.7,4,0.9,6.1,0.6c3.7-0.6,7.3-1.2,11-1.7c0.6-0.1,1.2,0.1,1.8,0.3c0.3,0.1,0.6,0.5,0.7,0.9
			c0.3,1.1-0.1,2-0.8,2.8c-0.1,0.1-0.3,0.3-0.5,0.4c-0.2,0.1-0.4,0.1-0.6,0.1c-5,0.2-9.8,1.2-14.7,2.2c-1.4,0.3-2.9,0.4-4.3,0.4
			c-1.3,0-2.5-0.2-3.6-0.8c-0.9-0.4-1.8-1-2.8-1.3c-2.2-0.8-3.9-2.3-5.4-4c-1.9-2.1-2.9-4.5-3-7.3C295.4,92.6,295.4,91.8,295.4,89.9
			z"/>
		<path fill-rule="evenodd" clip-rule="evenodd" d="M470.1,73.7c0,0.3,0-0.7,0-1.8c-0.1-4.6-0.2-4.2,4.1-6.5
			c0.5-0.3,1.2-0.4,1.7-0.6c1-0.3,2.3,0.6,2.2,1.6c-0.3,2.7-0.6,5.3-1,8c-0.6,4.1-0.9,8.2-0.8,12.3c0,0.9,1,1.4,1.7,0.9
			c1.5-1,3.1-2,4.6-3.1c1.7-1.2,3.2-2.6,4.8-3.9c2.5-1.9,4.8-3.9,7.6-5.2c1.5-0.7,2.6-2.1,4.1-2.7c0.7-0.3,1.7-0.1,2.3,0.5
			c0.6,0.6,1,1.3,1.1,2.1c0.1,0.4,0.1,0.8,0.1,1.2c-0.1,1-0.1,2.1-0.3,3.1c-0.6,3.5-0.5,7-0.1,10.5c0.3,2.5,0.5,4.9,0.7,7.4
			c0.1,1-0.3,2-1,2.8c-0.5,0.5-1.8,0.6-2.2,0c-0.1-0.2-0.3-0.3-0.4-0.5c-0.1-0.2-0.3-0.3-0.3-0.5c-1.2-4.8-2.6-9.5-3.1-14.5
			c-0.1-0.8-0.3-1.6-0.5-2.4c-0.3-1.2-1.4-1.7-2.3-1c-0.3,0.2-0.7,0.4-1,0.7c-4,3.8-8.1,7.6-11.5,12.1c-1.4,1.8-2.6,3.7-3.6,5.7
			c-0.3,0.6-1.6,1-2.2,0.6c-0.9-0.6-1.7-1.1-2.5-1.8c-0.7-0.5-1-1.3-1.1-2.1c-0.1-1.6-0.2-3.3-0.2-4.9c0-2.9-0.1-5.8-0.5-8.6
			C470.4,80.4,470.3,77.7,470.1,73.7z"/>
	</g>
	<g>
		<path fill-rule="evenodd" clip-rule="evenodd" d="M170.1,156.3c0.1,0.5,0.2,1,0.4,1.5c0.2,0.5,0.1,1-0.1,1.5
			c-0.4,1.1-1.1,2-2.2,2.5c-0.5,0.3-1.1,0.5-1.7,0.7c-0.4,0.2-0.8,0.2-1.3,0.2c-0.4,0-0.7,0-1.1,0c-1.2,0-2.5,0.1-3.7,0.5
			c-0.8,0.7-1.5,1.4-2.2,2.3c-1.4,1.8-3.2,3.3-5.3,4.2c-0.9,0.4-1.7,0.9-2.6,1.3c-0.9,0.1-1.7,0.5-2.5,0.7c-0.3,0.1-0.7,0.2-1,0.3
			c-2.6,0.4-5.2,0.9-7.9,0.7c-0.6,0-1.2,0-1.8,0c-0.5,0-1.1,0-1.6-0.1c-1.2-0.3-2.4-0.4-3.7-0.4c-0.9,0-1.7-0.2-2.6-0.5
			c-2-0.7-3.6-1.8-5-3.4c-0.5-0.5-1-1-1.6-1.3c-0.2-0.1-0.4,0-0.4,0.2c-0.1,0.2-0.2,0.3-0.2,0.5c0,0.3,0.2,0.5,0.2,0.8
			c0.3,1.2,0,2.3-1,3c-0.4,0.3-0.9,0.6-1.4,0.8c-1.8,0.7-3.7,1-5.7,1c-0.2,0-0.3-0.1-0.5-0.2c-0.1,0-0.1-0.1-0.2-0.2
			c-0.1-0.2,0-0.4,0.1-0.5c0.1-0.1,0.3-0.2,0.5-0.2c1.1-0.2,2.3-0.4,3.4-0.6c1-0.2,1.9-0.5,2.7-1.1c0.2-0.2,0.4-0.4,0.5-0.6
			c0.3-0.4,0.3-0.8,0-1.2c-0.2-0.3-0.4-0.6-0.6-0.9c-0.2-0.3-0.4-0.6-0.5-0.9c-0.2-0.3-0.1-1,0.2-1.2c0.4-0.4,0.8-0.7,1.3-0.9
			c0.4-0.1,0.9-0.2,1.2-0.5c0.1-0.1,0.2-0.3,0.3-0.4c0.1-0.5-0.1-1-0.3-1.5c-0.2-0.3-0.5-0.5-0.8-0.5c-1,0.2-1.9,0.3-2.9,0.5
			c-0.9,0.2-1.9,0.4-2.8,0.7c-0.2,0.1-0.5,0.3-0.7,0.4c0,0,0,0.2,0,0.2c0.1,0.2,0.3,0.5,0.4,0.7c0.6,0.7,1.2,1.3,1.7,2
			c0.5,0.7,0.5,1.5,0.2,2.3c-0.1,0.2-0.2,0.3-0.3,0.4c-0.1,0.1-0.3,0.2-0.4,0.3c-1.3,0.4-2.7,0.9-4,1.3c-0.2,0-0.3,0-0.5,0
			c-0.3,0-0.6-0.5-0.5-0.7c0.2-0.4,0.5-0.8,0.9-1c0.3-0.2,0.7-0.3,1-0.4c0.5-0.3,0.8-0.7,0.8-1.3c0.1-0.8,0-1.6-0.4-2.3
			c-0.2-0.4-0.3-0.8-0.5-1.2c-0.2-0.5,0.2-1.3,0.8-1.5c0.5-0.2,1-0.3,1.5-0.4c1.6-0.4,3.3-0.7,4.9-1.1c0.9-0.2,1.6-0.8,2-1.6
			c0.2-0.4,0.4-0.8,0.5-1.2c0.8-2.1,1.5-3.9,2.4-5.3c0.4-0.7,0.9-1.3,1.5-1.8c0.2-0.2,0.4-0.3,0.6-0.5c0.8-1.1,2-1.7,3.1-2.4
			c2-1.2,4.2-1.7,6.6-1.7c1.5,0,3,0.3,4.2,1.2c1,0.7,2.1,1.3,2.9,2.2c0.5,0.5,0.9,1.1,1.2,1.7c0.2,0.6,0.5,1.1,0.7,1.7
			c0.8,2,0.4,3.8-0.6,5.6c-0.6,1.2-1.5,2.1-2.6,2.9c-1.3,0.9-2.7,1.7-4.2,2.2c-1.2,0.4-2.2,1-3.4,1.5c-0.2,0.1-0.4,0.3-0.6,0.5
			c-0.2,0.2-0.2,0.6,0,0.7c0.9,0.5,1.8,0.8,2.7,1c0.6,0.1,1.2,0.2,1.8,0.2c2.3,0,4.6-0.1,6.8-0.5c0.3,0,0.5-0.1,0.8-0.2
			c0.9-0.3,1.8-0.6,2.7-0.9c0.5-0.2,1-0.4,1.4-0.7c0.3-0.2,0.5-0.5,0.7-0.7c0.2-0.2,0.2-0.6,0.1-0.7c-0.5-0.7-1-1.5-1.5-2.2
			c-0.8-1.1-1.3-2.3-1.5-3.6c-0.2-1.2,0.2-2.6,1.1-3.3c0.5-0.4,0.9-0.8,1.5-1.1c0.6-0.3,1.1-0.5,1.7-0.8c0.3-0.2,0.5-0.5,0.5-0.9
			c0-0.4,0-0.9,0-1.3c0.1-0.6,0.3-1.2,0.8-1.6c0.3-0.3,0.6-0.6,1-0.9c0.2-0.2,0.5-0.3,0.7-0.3c0.9-0.1,1.7-0.3,2.6-0.1
			c1.7,0.3,3.4,0.8,5.1,1.2c0.3,0.1,0.7,0.2,1,0.4c1,0.7,2,0.4,3-0.1c0.6-0.3,1.2-0.7,1.6-1.4c0.2-0.3,0.4-0.6,0.7-0.8
			c0.3-0.4,0.9-0.3,1.1,0.1c0.1,0.1,0.1,0.4,0,0.5c-1.2,2-2.6,3.8-4.6,5c-0.2,0.1-0.3,0.2-0.4,0.3c-0.2,0.1-0.2,0.6,0,0.7
			c0.4,0.3,0.8,0.6,1.3,0.9c0.2,0.1,0.5,0.1,0.7-0.1c1.4-1,2.7-2,4-3c0.9-0.8,1.5-1.7,2.3-2.5c0.1-0.1,0.3-0.1,0.5,0
			c0.2,0.1,0.3,0.2,0.3,0.4c0,0.1,0,0.2,0,0.3c-0.5,0.9-1,1.6-1.7,2.3c-0.9,0.9-1.7,1.8-2.6,2.6
			C170.6,154.9,170.2,155.6,170.1,156.3z M139.8,171.6c1.6-0.1,2.6-0.2,3.7-0.3c0.4,0,0.9,0,1.3-0.1c1.9-0.4,3.8-0.8,5.6-1.4
			c0.3-0.1,0.7-0.3,1-0.4c0.6-0.3,1.2-0.7,1.8-1c0.5-0.2,0.9-0.5,1.3-0.9c0.7-0.6,1.3-1.2,1.9-1.9s1.1-1.4,1.6-2.1
			c1.1-1.5,1.9-3.2,2.1-5c0-0.2-0.1-0.3-0.3-0.4c-0.7-0.2-1.4-0.2-2.1,0.1c-0.3,0.1-0.5,0.3-0.6,0.5c-0.1,0.2-0.3,0.5-0.2,0.7
			c0,1.1-0.4,2-1,2.9c-0.4,0.5-0.7,1-1,1.5c-1.1,1.4-2.4,2.6-4.1,3.2c-0.7,0.3-1.5,0.6-2.2,0.9c-0.4,0.2-0.8,0.3-1.3,0.4
			c-1.5,0.2-3,0.5-4.5,0.4c-1.1,0-2.1,0-3.2,0.1c-1.3,0.1-2.6,0-3.9-0.5c-0.7-0.3-1.5-0.5-2.2-0.8c-1.1-0.4-2-1-2.8-2
			c-0.8-1-1.5-2-2.2-2.9c-0.5-0.7-0.7-1.4-0.8-2.2c0-0.3,0-0.5,0-0.8c0.3-0.9,0.5-1.9,0.8-2.8c0.5-1.5,1.5-2.8,2.5-4
			c1.1-0.8,2.2-1.8,3.4-2.4c0.4-0.2,0.8-0.3,1.3-0.3c1.2,0,2.2,0.4,3.4,0.6c0.5,0.1,1,0.4,1.3,0.8c0.5,0.5,0.9,1.1,1.3,1.7
			c0.4,0.5,0.5,1.1,0.5,1.8c0,0.8-0.1,1.6-0.1,2.4c0,0.5-0.3,0.9-0.6,1.1c-0.9,0.7-1.9,1.3-3,1.6c-0.9,0.2-1.9,0.4-2.8,0.6
			c-1.6,0.4-3.1,0.6-4.7,0.3c-0.2,0-0.5,0-0.8,0.1c-0.2,0-0.3,0.2-0.3,0.4c0.4,1.4,1.2,2,2.4,1.9c0.8-0.1,1.6-0.1,2.3-0.3
			c0.5-0.1,1-0.2,1.5-0.3c1.2-0.2,2.4-0.6,3.5-1.1c1.1-0.4,2-1.2,2.9-1.9c0.1-0.1,0.2-0.3,0.3-0.4c0.3-0.4,0.5-0.7,0.8-1.1
			c0.5-0.6,0.8-1.4,1-2.1c0.2-0.8,0.2-1.6-0.1-2.3c-0.2-0.7-0.6-1.3-0.9-1.9c-0.2-0.6-0.6-1.1-1-1.5c-0.3-0.3-0.6-0.6-1-0.9
			c-1.5-1.2-3.2-2.2-5.3-1.9c-0.2,0-0.4,0-0.5,0c-0.4,0.1-0.9,0.1-1.3,0.2c-0.9,0.3-1.8,0.6-2.7,1c-1.3,0.6-2.5,1.3-3.5,2.4
			c-1.1,1.2-2.1,2.4-2.7,3.9c-0.1,0.3-0.3,0.6-0.5,0.9c-0.9,1.6-1.2,3.5-1.5,5.3c0,0.2,0,0.4,0,0.5c0.2,1,0.3,2.1,0.5,3.1
			c0.2,1.1,0.6,2,1.4,2.8c1.7,1.8,3.8,2.9,6.2,3.1c1.4,0.2,2.8,0.2,4.2,0.4c1,0.1,2.1-0.1,3.2,0.2
			C139.8,171.7,140,171.6,139.8,171.6z M159.1,153.8c-1.7,0-3.5,0.1-5.3,0.6c-0.9,0.3-1.8,0.7-2.5,1.4c-0.3,0.2-0.4,0.5-0.5,0.9
			c-0.1,0.4-0.2,0.9-0.1,1.3c0.3,1.5,0.9,2.8,2,4c0.1,0.1,0.1,0.1,0.2,0.2c0.2,0.2,0.4,0.1,0.7-0.1c0.3-0.3,0.4-0.7,0.2-0.9
			c-0.4-0.6-0.7-1.2-0.8-1.9c0-0.4,0.1-0.7,0.3-1c0.2-0.2,0.5-0.5,0.8-0.6c1-0.5,2.1-0.9,3.2-1.1c0.9-0.2,1.7-0.3,2.6-0.1
			c0.7,0.1,1.4,0.1,2.1,0.1c1.4,0,2.6,0.4,3.8,0.8c0.1,0.1,0.2,0.3,0.3,0.4c0.2,0.3-0.1,0.8-0.3,0.8c-0.6,0.1-1.2,0.1-1.8,0.1
			c-0.9,0.1-1.7,0.5-2.3,1.2c-0.2,0.2-0.4,0.9-0.2,1.2c0.1,0.1,0.3,0.3,0.4,0.3c1.2,0,2.5,0,3.7-0.1c0.8-0.1,1.5-0.4,2.2-0.9
			c0.4-0.3,0.7-0.8,0.9-1.3c0.2-0.4,0.1-0.9-0.1-1.3c-0.2-0.3-0.4-0.6-0.6-0.8c-1-0.8-2.1-1.5-3.3-2.2c-0.1-0.1-0.3-0.2-0.5-0.2
			c-0.9-0.3-1.8-0.6-2.8-0.6C160.7,153.9,160,153.9,159.1,153.8z M131.8,159.8c1.9,0,2.2,0,4.3-0.5c0.4-0.1,0.8-0.3,1.2-0.5
			c0.3-0.2,0.6-0.4,0.9-0.6c1-0.5,1.5-1.4,2-2.3c0.1-0.1,0.1-0.3,0.1-0.5c0.3-1.5-0.9-2.7-2-3c-0.7-0.1-1.4-0.3-2.1-0.4
			c-0.2,0-0.5,0-0.8,0.1c-0.4,0.2-0.8,0.4-1.2,0.6c-0.6,0.4-1.3,0.9-1.9,1.4c-0.4,0.3-0.7,0.6-0.9,0.9c-0.1,0.2-0.3,0.4-0.4,0.7
			c-0.6,1-1,2-1.4,3.1c-0.1,0.4,0.2,0.9,0.6,0.9C131,159.7,131.6,159.7,131.8,159.8z M157.5,152.3c1.8-0.1,3.6-0.3,5.4-0.6
			c0.5-0.1,1-0.2,1.5-0.5c0.1,0,0.1-0.1,0.1-0.2c0-0.1-0.1-0.2-0.1-0.2c-0.2-0.1-0.4-0.3-0.7-0.4c-1.7-0.4-3.4-0.9-5.1-1.1
			c-0.5-0.1-1,0-1.6,0c-1,0.1-1.7,0.9-1.9,1.9c0,0.2,0,0.3,0,0.5c0.1,0.3,0.4,0.6,0.7,0.6C156.5,152.3,157,152.3,157.5,152.3z"/>
		<path fill-rule="evenodd" clip-rule="evenodd" d="M26.5,165.6c-0.2,1-0.4,1.8-1,2.5c-0.2,0.2-0.3,0.4-0.6,0.5
			c-1.4,0.9-2.8,1-4.3,0.4c-0.4-0.2-0.7-0.5-0.7-1c-0.1-1,0.3-1.9,0.8-2.7c0.4-0.7,0.9-1.3,1.6-1.8c0.3-0.2,0.5-0.5,0.8-0.7
			c0.2-0.1,0.1-0.5,0-0.7c-0.3-0.4-0.7-0.7-1.2-1c-0.2-0.1-0.3-0.1-0.5,0c-0.3,0.1-0.6,0.3-0.8,0.6c-0.9,1.6-1.9,3.2-2.8,4.8
			c-0.8,1.4-0.6,2.9,0.1,4.3c0.2,0.3,0.5,0.5,0.8,0.6c0.6,0.2,1.2,0.3,1.8,0.2c0.5,0,1.1-0.1,1.5-0.4c1.1-0.6,2.3-1.3,3.4-2.1
			c0.9-0.7,1.7-1.5,2.2-2.6c0.2-0.4,0.4-0.8,0.6-1.2c0.2-0.5,0.2-1,0.1-1.5c-0.6-1.7-1.5-3.2-2.7-4.5c-0.2-0.3-0.5-0.5-0.7-0.8
			c-2.3-2.3-5.1-3.4-8.2-3.7c-1-0.1-1.9,0-2.9-0.1c-0.3,0-0.5-0.1-0.8-0.1c-0.2,0-0.3-0.2-0.3-0.4c-0.1-0.2,0-0.6,0.2-0.7
			c0.2-0.1,0.5-0.3,0.7-0.3c2.3-0.2,4.6,0.1,6.8,0.7c1.2,0.3,2.3,0.9,3.3,1.5c0.4,0.3,0.9,0.6,1.3,0.9c0.5,0.4,1.1,0.5,1.7,0.3
			c1.1-0.4,2.2-0.4,3.4-0.5c0.4,0,0.9,0,1.3,0c0.9,0.1,1.7,0.2,2.6,0.4c1.7,0.3,3.4,0.7,5,1.5c0.1,0.1,0.2,0.2,0.3,0.4
			c0,0.1,0.1,0.2,0,0.3c-0.1,0.1-0.2,0.3-0.3,0.3c-0.3,0-0.5,0-0.8,0c-0.5-0.1-1-0.2-1.5-0.4c-2.1-0.5-4.1-0.9-6.2-1.1
			c-1.1-0.1-2.1-0.1-3.1,0.4c-0.2,0.1-0.3,0.2-0.2,0.4c0.2,0.5,0.5,0.9,0.8,1.3c0.2,0.2,0.4,0.4,0.7,0.4c0.7,0,1.4,0,2.1,0
			c1.7,0,3.3,0,5,0.3c0.5,0.1,1,0.1,1.6,0.2c1.1,0.1,2.1,0.4,3.1,0.7c0.2,0.1,0.4,0.5,0.3,0.7c0,0.3-0.3,0.5-0.6,0.5
			c-0.3,0-0.7-0.1-1-0.2c-1.2-0.3-2.4-0.4-3.7-0.5c-0.2,0-0.4,0-0.5,0c-1.5,0.3-3,0.3-4.4,0.6c-0.3,0.1-0.5,0.2-0.7,0.3
			c-0.1,0-0.1,0.1-0.1,0.2c-0.1,0.8-0.1,1.6,0,2.3c0.1,0.6,0.1,1.2-0.1,1.8c-0.1,0.3-0.1,0.5-0.1,0.8c0,0.8-0.4,1.5-0.9,2.1
			c-0.4,0.5-0.8,0.9-1.3,1.3c-0.9,0.8-1.9,1.3-3,1.5c-0.9,0.2-1.7,0.4-2.6,0.4c-1.3,0-2.4-0.3-3.6-0.8c-0.9-0.4-1.4-1.1-1.7-1.9
			c-0.2-0.6-0.3-1.2-0.5-1.8c-0.2-1-0.1-1.9,0.4-2.8c0.6-1.1,1.2-2.1,1.8-3.2c0.2-0.4,0.5-0.7,0.7-1.1c0.2-0.4,0.2-0.8,0-1.3
			c-0.1-0.2-0.1-0.3-0.2-0.5c-0.2-0.3-0.4-0.6-0.7-0.7c-0.9-0.4-1.8-0.7-2.7-1c-0.4-0.1-0.9-0.2-1.3-0.2c-1.5,0-3,0-4.5-0.1
			c-0.1,0-0.3-0.1-0.4-0.2c-0.1-0.1,0-0.7,0.1-0.7c0.2-0.1,0.5-0.3,0.7-0.3c1.1-0.2,2.3-0.2,3.4-0.2c1.4,0,2.8,0.2,4.2,0.4
			c1.3,0.2,2.5,0.7,3.7,1.4c1.4,0.9,2.7,2,3.9,3.2c0.4,0.4,0.7,0.8,0.9,1.3c0.2,0.5,0.4,1,0.5,1.5C26.3,164.9,26.4,165.3,26.5,165.6
			z M22.3,168.2c0.6,0,1.2-0.2,1.7-0.7c0.6-0.6,1-1.2,1-2.1c0-0.2-0.2-0.5-0.4-0.6c-0.4-0.1-0.7-0.1-1,0.1c-0.7,0.4-1.4,0.8-1.8,1.5
			c-0.2,0.3-0.3,0.6-0.3,1c0,0.3,0.3,0.7,0.6,0.7C22.1,168.2,22.2,168.2,22.3,168.2z"/>
		<path fill-rule="evenodd" clip-rule="evenodd" d="M83.3,175.7c2.2,0,4.4,0.1,6.6-0.1c1-0.1,1.9-0.1,2.9,0c0.1,0,0.3,0.1,0.4,0.3
			c0.3,0.3,0.1,1-0.3,1.1c-0.9,0.2-1.9,0.3-2.9,0.3c-0.6,0-1.2,0-1.8,0c-0.6,0-1.2,0.1-1.8,0.3c-0.3,0.1-0.7,0.1-1,0.2
			c-1.8,0.1-3.7,0.1-5.5,0.2c-0.5,0-1,0.1-1.6,0.2c-2.8-0.5-5.6-0.7-8.2-1.9c-0.6-0.3-1.3-0.4-2-0.7c-0.5-0.2-1-0.4-1.4-0.7
			c-0.3-0.2-0.5-0.5-0.7-0.7c-0.6-0.9-1-1.9-0.8-3c0-0.3,0.1-0.5,0.1-0.8c0-0.5-0.2-0.8-0.6-1.1c-0.2-0.2-0.4-0.3-0.7-0.4
			c-0.5-0.3-1.1-0.5-1.6-0.9c-0.5-0.3-1-0.4-1.5-0.4c-0.2,0-0.5-0.2-0.7-0.3c-0.1-0.1-0.1-0.3-0.1-0.5c0-0.2,0.1-0.3,0.3-0.4
			c0.3-0.1,0.7-0.2,1-0.1c1.7,0.2,3.5,0.4,5.1,1.1c0.3,0.1,0.6,0.3,0.9,0.5c0.4,0.3,0.6,1,0.3,1.4c-0.2,0.3-0.5,0.5-0.7,0.8
			c-0.9,1-0.6,2.4,0.2,3.3c0.1,0.1,0.1,0.1,0.2,0.2c0.8,0.5,1.5,0.9,2.4,1c0.9,0.1,1.7,0.4,2.5,0.7c0.7,0.2,1.3,0.4,2.1,0.4
			c1.9,0,3.9,0.1,5.8,0.1C81.2,175.6,82.2,175.6,83.3,175.7z"/>
		<path fill-rule="evenodd" clip-rule="evenodd" d="M83.1,173.9c-1.5-0.1-3-0.1-4.5,0c-0.9,0-1.8,0-2.6-0.1c-1.4-0.1-2.8-0.5-4-1.3
			c-1.2-0.8-1.7-2-1.7-3.4c0-0.1,0-0.2,0-0.3c0.1-0.4,0.2-0.7,0.6-0.8c0.6-0.2,1.1-0.5,1.7-0.7c0.1-0.1,0.2-0.2,0.3-0.4
			c0.1-0.2,0-0.3-0.2-0.4c-0.3-0.1-0.6-0.3-1-0.4c-2.1-0.6-4.2-1.1-6.5-1.2c-1.7-0.1-3.3-0.4-5-0.6c-0.1,0-0.2-0.1-0.2-0.1
			c-0.2-0.1-0.2-0.2-0.2-0.4c0-0.2,0.1-0.3,0.3-0.4c0.3-0.1,0.5-0.1,0.8,0c1.2,0.2,2.4,0.3,3.7,0.4c2,0.1,4,0.4,6,0.7
			c1.4,0.2,2.7,0.7,4,1.3c0.3,0.2,0.6,0.7,0.6,1.1c0,0.2-0.1,0.3-0.1,0.5c-0.1,0.4-0.3,0.8-0.7,1.1c-0.9,0.5-1.6,1.1-2.2,1.9
			c-0.3,0.3-0.2,0.9,0.1,1.2c0.6,0.4,1.2,0.7,1.9,0.9c1,0.2,1.9,0.3,2.9,0.3c1.8,0,3.5,0.1,5.3,0.1c2.5,0,4.9,0,7.4-0.3
			c0.9-0.1,1.8-0.1,2.6-0.2c0.1,0,0.3,0.2,0.4,0.3c0,0.1,0,0.3-0.1,0.5c-0.1,0.1-0.3,0.3-0.4,0.3c-0.8,0.3-1.7,0.5-2.6,0.5
			C87.5,173.9,85.3,174.1,83.1,173.9z"/>
	</g>
	<polygon fill-rule="evenodd" clip-rule="evenodd" points="62.9,179.9 62.9,180.1 62.8,180.1 	"/>
	<path fill-rule="evenodd" clip-rule="evenodd" d="M124.3,85.4c0,1-0.1,1.9-0.1,2.9c0,0.5-0.1,1.1-0.3,1.6c-0.7,1.7-1.2,3.5-1.9,5.2
		c-0.2,0.6-0.5,1.1-0.8,1.6c-0.6,0.9-1.1,1.8-1.6,2.7c-0.4,0.6-0.8,1-1.5,0.7c-0.1,0-0.2-0.1-0.3-0.1c-1.3,0.1-2.4-0.5-3.4-1.2
		c-1-0.6-1.8-1.4-2.6-2.2c-1.3-1.5-2.3-3.3-3.3-5.1c-0.6-1-0.7-2.2-1-3.3c-0.1-0.5,0.1-1,0.4-1.5c0.2-0.2,0.3-0.4,0.5-0.6
		c0.8-0.8,1.6-1.7,2.4-2.5c0.6-0.6,1.1-1.3,1.5-2.1c1.5-3.3,2.6-6.7,2.5-10.4c0-0.9,0-1.8,0-2.6c0-2.2-0.3-4.4-0.7-6.6
		c-0.1-0.3,0.3-0.7,0.6-0.7c0.4,0,0.7,0.1,0.9,0.4c0.4,0.5,0.7,1,1.2,1.4c0.2,0.2,0.3,0.5,0.3,0.7c0.1,1.2,0.6,2.2,1.2,3.2
		c1,1.7,1.6,3.5,2.5,5.3c0.3,1.3,1,2.5,1.6,3.6c0.4,0.8,0.7,1.6,1,2.5c0.3,1.1,0.6,2.2,0.8,3.3c0.2,1,0.2,2.1,0.3,3.2
		C124.3,85,124.3,85.2,124.3,85.4C124.3,85.4,124.3,85.4,124.3,85.4z"/>
	<g>
		<path fill-rule="evenodd" clip-rule="evenodd" d="M146.5,108.3c0,2.4-0.4,4.2-1,5.9c-0.7,2.4-1.9,4.5-3.2,6.6
			c-0.7,1.2-1.6,2.3-2.7,3.2c-0.4,0.3-0.8,0.7-1.1,1.1c-0.6,0.7-1.3,1.2-2,1.7c-0.6,0.4-1.2,0.7-1.9,0.8c-0.2,0-0.3,0-0.4-0.2
			c-0.1-0.2-0.2-0.5,0-0.7c0.2-0.3,0.5-0.5,0.7-0.7c0.9-0.7,1.7-1.5,2.5-2.3c2.2-2.1,4.6-5.7,5.8-8.4c0.5-1.1,0.8-2.3,0.9-3.6
			c0.1-1.4,0.3-2.8,0.4-4.2c0-0.3,0.1-0.5,0.1-0.8c0-0.2,0.5-0.5,0.8-0.5c0.3,0,0.5,0.2,0.6,0.4c0.1,0.2,0.2,0.3,0.2,0.5
			C146.5,107.8,146.5,108.4,146.5,108.3z"/>
		<path fill-rule="evenodd" clip-rule="evenodd" d="M63,137.8c0.7,0.5,1.1,0.9,1.5,1.2c0.4,0.3,0.7,0.5,1.1,0.7
			c0.9,0.5,1.8,1,2.8,1.5c0.7,0.4,1.4,0.7,2.2,0.9c1.3,0.5,2.7,0.8,3.9,1.5c0.2,0.1,0.5,0.2,0.8,0.2c1.7,0.3,3.4,0.7,5.2,0.6
			c0.3,0,0.5,0,0.8,0c0.4,0,0.8,0.4,0.8,0.9c0,0.3-0.3,0.7-0.6,0.8c-0.2,0-0.3,0.1-0.5,0.1c-1.1,0-2.3-0.1-3.4-0.1
			c-1.3-0.1-2.6-0.4-3.8-0.9c-1.5-0.7-3.1-1.2-4.7-1.8c-0.8-0.3-1.6-0.6-2.4-1.1c-0.4-0.3-0.9-0.6-1.4-0.8c-1.9-0.9-3.3-2.2-4.8-3.6
			c-0.3-0.2-0.4-0.6-0.4-1c0-0.3,0.1-0.5,0.4-0.6c0.1,0,0.2-0.1,0.2,0C61.5,136.8,62.4,137.4,63,137.8z"/>
		<path fill-rule="evenodd" clip-rule="evenodd" d="M122.4,7.4c1.6,0.1,3.4,0.1,5.1,0.4c2,0.3,3.9,0.8,5.9,1.5
			c1.2,0.4,2.3,0.9,3.3,1.5c0.5,0.3,1,0.7,1.5,1.1c0.1,0.1,0.1,0.3,0,0.4c-0.1,0.1-0.1,0.1-0.2,0.1c-0.4,0.1-0.7,0-1-0.2
			c-1.1-0.6-2.2-1-3.4-1.5c-0.3-0.1-0.6-0.3-1-0.4c-1.5-0.4-3.1-0.8-4.6-1.1c-0.8-0.2-1.6-0.1-2.3-0.3c-3.1-0.4-6.1-0.2-9.2,0.1
			c-0.7,0.1-1.4,0.2-2.1,0.3c-0.2,0-0.5-0.1-0.6-0.4c-0.1-0.2,0-0.6,0.2-0.7c0.1,0,0.1-0.1,0.2-0.1c1.4-0.4,2.7-0.7,4.1-0.7
			C119.6,7.4,120.9,7.4,122.4,7.4z"/>
		<path fill-rule="evenodd" clip-rule="evenodd" d="M162.7,67.9c-0.5,1.3-1,2.7-1.6,4.2c-0.1,0.3-0.3,0.6-0.5,0.9
			c-1,1.8-2.3,3.5-3.6,5.1c-0.5,0.6-1.1,1.1-1.8,1.5c-0.3,0.2-0.9,0.1-1.2-0.1c-0.2-0.2-0.2-0.6,0-0.7c0.1-0.1,0.1-0.1,0.2-0.2
			c0.6-0.4,1.1-0.8,1.6-1.4c2-2.4,3.6-4.9,4.9-7.7c0.4-1,0.9-1.9,1.6-2.7c0.1-0.1,0.3-0.2,0.5-0.1c0.2,0.1,0.2,0.2,0.3,0.4
			c0,0.1,0,0.2,0,0.3C162.8,67.5,162.8,67.6,162.7,67.9z"/>
		<path fill-rule="evenodd" clip-rule="evenodd" d="M71.8,18.3c-0.1,0.1-0.1,0.3-0.3,0.4c-0.8,0.4-1.5,1-2.2,1.5
			c-1.9,1.4-3.6,3-5.2,4.7c-0.6,0.6-0.9,1.5-1.5,2.1c-0.2,0.2-0.7,0.2-0.9,0c-0.2-0.2-0.3-0.4-0.2-0.7c0-0.2,0.1-0.3,0.1-0.5
			c0.2-0.3,0.3-0.6,0.6-0.9c0.4-0.5,0.8-1,1.2-1.4c0.9-0.9,1.9-1.9,2.9-2.7c1.1-0.9,2.3-1.8,3.7-2.4c0.5-0.2,0.9-0.6,1.4-0.7
			c0.1,0,0.2,0,0.2,0.1C71.7,17.9,71.8,18.1,71.8,18.3z"/>
		<path fill-rule="evenodd" clip-rule="evenodd" d="M43.3,136.6c-0.6-0.1-1.2-0.1-1.8-0.2c-1.5-0.3-2.9-0.7-4.2-1.5
			c-1.6-1-3.1-2-4.3-3.4c-0.2-0.3-0.4-0.6-0.5-0.9c-0.1-0.3,0-0.5,0.2-0.7c0.1-0.2,0.6-0.2,0.7-0.1c0.2,0.2,0.5,0.5,0.7,0.7
			c1.3,1.6,2.9,2.8,4.8,3.6c1.3,0.6,2.6,1,4,1.2c0.3,0,0.5,0.1,0.7,0.2c0.2,0.1,0.3,0.5,0.2,0.7c-0.1,0.1-0.2,0.2-0.4,0.3
			C43.5,136.6,43.4,136.6,43.3,136.6z"/>
		<path fill-rule="evenodd" clip-rule="evenodd" d="M130.2,13.6c-0.3-0.1-0.6-0.2-0.9-0.3c-2.4-1.1-4.9-1.4-7.4-1.4
			c-0.5,0-1.1,0-1.6,0c-0.2,0-0.3-0.1-0.5-0.2c-0.1-0.1-0.2-0.3-0.2-0.4c0-0.1,0.2-0.3,0.3-0.3c1.4-0.2,2.8-0.5,4.2-0.3
			c1.9,0.2,3.8,0.6,5.6,1.4c0.2,0.1,0.5,0.2,0.7,0.3c1,0.8,2.1,1.3,3,2.1c0.1,0.1,0.1,0.3,0,0.4c-0.1,0-0.2,0.1-0.2,0.1
			C132.2,14.5,131.3,14,130.2,13.6z"/>
		<path fill-rule="evenodd" clip-rule="evenodd" d="M75.3,141.3c-0.8,0-1.9-0.2-3-0.6c-1.3-0.4-2.5-0.9-3.7-1.5
			c-0.5-0.2-0.9-0.5-1.2-1c-0.2-0.3-0.3-0.6-0.3-1c0-0.2,0.4-0.5,0.6-0.4c0.2,0.1,0.5,0.2,0.7,0.3c0.4,0.3,0.8,0.6,1.3,0.9
			c1.7,0.8,3.4,1.3,5.2,1.9c0.6,0.2,1.2,0.1,1.8,0.4c0.2,0.1,0.2,0.2,0.3,0.4c0,0.2,0,0.3-0.3,0.4c-0.1,0-0.2,0.1-0.2,0.1
			C76.2,141.3,75.9,141.3,75.3,141.3z"/>
		<path fill-rule="evenodd" clip-rule="evenodd" d="M141.3,112.6c0,0.2,0,0.4,0,0.6c-0.2,0.8-0.4,1.5-0.8,2.2
			c-0.6,1.4-1.5,2.6-2.3,3.8c-0.5,0.7-1.1,1.1-1.7,1.6c-0.2,0.1-0.3,0.1-0.4-0.1c0-0.1,0-0.2,0-0.2c0.2-0.5,0.5-0.9,0.9-1.3
			c1.3-1.5,2.1-3.2,2.8-5c0.2-0.6,0.3-1.2,0.4-1.8c0-0.1,0.2-0.3,0.3-0.4c0.1-0.1,0.5,0,0.7,0.2
			C141.1,112.4,141.2,112.5,141.3,112.6z"/>
		<path fill-rule="evenodd" clip-rule="evenodd" d="M72.2,21.8c0,0.1,0,0.2,0,0.3c-0.2,0.2-0.3,0.4-0.5,0.6c-0.6,0.5-1.2,1-1.9,1.4
			c-1.2,0.9-2.4,1.7-3.5,2.6c-0.2,0.1-0.5,0-0.7-0.2c-0.3-0.4-0.3-0.9,0.1-1.2c0.6-0.5,1.2-1,1.9-1.4c1.3-0.8,2.7-1.5,4-2.4
			C71.7,21.4,72.1,21.6,72.2,21.8z"/>
		<path fill-rule="evenodd" clip-rule="evenodd" d="M158.7,68.1c0,1.1-0.3,2-0.8,2.8c-0.4,0.7-0.8,1.3-1.3,2
			c-0.3,0.4-0.7,0.7-1.2,0.9c-0.3,0.1-0.7,0-0.8-0.4c0-0.1-0.1-0.2,0-0.2c0-0.1,0.1-0.2,0.1-0.2c1.4-1.3,2.2-2.9,3-4.6
			c0.1-0.3,0.3-0.6,0.5-0.9c0-0.1,0.4-0.1,0.4,0C158.6,67.8,158.6,68,158.7,68.1z"/>
		<path fill-rule="evenodd" clip-rule="evenodd" d="M41.9,132.1c0,0.3-0.4,0.7-0.7,0.6c-1.4-0.5-2.8-1-3.9-2
			c-0.1-0.1-0.2-0.3-0.3-0.4c0-0.2,0-0.3,0-0.5c0.1-0.2,0.3-0.2,0.4-0.2c0.1,0,0.2,0,0.3,0c1.3,0.7,2.6,1.4,3.9,2.1
			C41.8,131.7,41.8,132,41.9,132.1z"/>
	</g>
	<g>
		<path fill-rule="evenodd" clip-rule="evenodd" fill="#038C9E" d="M58.7,95.1c-0.1,0.3-0.1,0.9-0.3,1.4c-0.1,0.3-0.2,0.7-0.4,1
			c-0.8,1.1-1.3,2.3-1.8,3.5c-0.4,0.9-0.7,1.8-1.3,2.6c-0.2,0.3-0.3,0.6-0.5,0.9c-0.8,1.8-1.6,3.5-2.7,5.1c-0.4,0.5-0.6,1.1-0.8,1.6
			c-0.6,1.7-1.6,3.1-2.5,4.6c-0.3,0.6-0.9,1.1-1.4,1.6c-0.5,0.5-1.1,0.8-1.9,0.9c-0.9,0.1-1.7,0.1-2.6-0.1c-0.9-0.2-1.9-0.4-2.8-0.7
			c-1.3-0.5-2.7-0.9-4-1.3c-1.7-0.5-3.1-1.6-4.5-2.7c-0.4-0.3-0.8-0.7-1.2-1c-0.8-0.6-1.4-1.3-2-2.1c-0.4-0.5-0.4-1.1-0.2-1.8
			c0.4-1.2,1-2.2,2-3.1c1.4-1.2,2.8-2.4,4.2-3.6c0.7-0.6,1.3-0.8,2.1-0.4c1,0.5,2,0.6,3.1,0.6c0.2,0,0.3-0.1,0.5-0.1
			c0.3-0.1,0.6-0.6,0.5-0.8c0-0.4-0.1-0.7-0.3-1c-0.5-0.6-1.1-1.1-1.6-1.7c-0.3-0.3-0.3-0.8,0-1.2c0.2-0.3,0.4-0.6,0.7-0.8
			c0.8-0.7,1.6-1.4,2.4-2.1c2.2-1.9,4.4-3.8,6.8-5.4c1-0.8,2.1-0.7,3.2-0.2c0.5,0.2,0.9,0.5,1.4,0.8c2,1.1,3.8,2.4,5.5,4.1
			C58.6,93.9,58.7,94.4,58.7,95.1z"/>
		<path fill-rule="evenodd" clip-rule="evenodd" d="M50.5,91.4c0.7,0.1,1.4,0.2,2.1,0.4c0.7,0.2,1.2,0.7,1.3,1.5
			c0.1,0.4,0.1,0.9,0,1.3c-0.1,0.4-0.3,0.8-0.4,1.2c-0.4,1-1.1,1.7-2.2,2.1c-0.4,0.1-0.8,0.3-1.3,0.4c-0.5,0.1-1,0-1.5-0.2
			c-0.8-0.3-1.5-0.8-2-1.6c-0.3-0.4-0.5-0.9-0.5-1.5c0-0.6,0.2-1.2,0.7-1.6c0.8-0.7,1.6-1.3,2.6-1.7C49.6,91.5,50,91.4,50.5,91.4z"
			/>
		<path fill-rule="evenodd" clip-rule="evenodd" fill="#00B4CB" d="M51.9,95.1c0,0.2-0.1,0.4-0.1,0.6c-0.1,0.3-0.4,0.6-0.7,0.8
			c-0.5,0.3-1.1,0.4-1.7,0.4c-0.7,0-1.5-0.6-1.7-1.4c-0.1-0.4,0-0.7,0.2-1c0.3-0.4,0.8-0.7,1.3-0.9c0.2,0,0.4-0.1,0.5,0
			c0.6,0.3,1.3,0.5,1.9,0.9C51.6,94.6,51.7,94.9,51.9,95.1z"/>
	</g>
	<g>
		<path fill-rule="evenodd" clip-rule="evenodd" fill="#FFFFFF" d="M75,68.8c-2.5-0.3-5.3-0.2-7.9-0.8c-1.1-0.3-2.3-0.4-3.4-0.5
			c-2.2-0.3-4.3-0.7-6.5-1.2c-0.7-0.2-1.3-0.5-1.9-0.9c-0.4-0.3-0.8-0.6-1.2-1c-0.9-1-1.9-2.1-2.7-3.2c-0.8-1-1.1-2.2-1.4-3.4
			c0-0.2,0-0.4,0-0.5c0.1-0.9,0.2-1.7,0.3-2.6c0-0.3,0.1-0.5,0.2-0.8c0.5-1.3,0.9-2.7,1.4-4c1.1-2.4,0.6-1.7,2.7-3.8
			c2.1-2.1,4.5-3.9,6.8-5.8c0.3-0.3,0.7-0.5,1.1-0.7c0.9-0.5,1.9-0.9,2.8-1.4c1.1-0.7,2.4-1.1,3.5-1.7c1.7-0.9,3.6-1.4,5.5-1.9
			c0.9-0.2,1.9-0.4,2.9-0.5c0.5-0.1,1.1-0.1,1.6-0.1c2.2-0.3,4.4-0.3,6.6,0c1.3,0.2,2.6,0.2,3.9,0.4c1,0.1,1.9,0.3,2.8,0.6
			c0.9,0.3,1.9,0.4,2.8,0.7c1.7,0.4,3.4,1,4.9,1.9c0.8,0.4,1.6,0.8,2.3,1.3c1.2,0.9,2.3,1.8,3.5,2.8c0.4,0.3,0.8,0.7,1.2,1.1
			c0.4,0.4,0.7,1,0.9,1.6c0.3,0.8,0.4,1.7,0.6,2.6c0.3,0.9,0.4,1.9,0.4,2.9c0,0.5,0,1-0.2,1.6c-0.1,0.4-0.2,0.9-0.3,1.3
			c-0.3,1.1-0.8,2.2-1.5,3.1c-1,1.2-2,2.5-3.2,3.5c-0.3,0.2-0.5,0.5-0.8,0.6c-1.4,0.8-2.9,1.6-4.4,2.5c-0.8,0.5-1.7,0.9-2.6,1.2
			c-0.8,0.3-1.6,0.7-2.4,1.2c-1.3,0.8-2.7,1.3-4.1,1.8c-1.1,0.3-2.2,0.6-3.3,1c-1.2,0.5-2.5,0.7-3.8,1c-0.7,0.2-1.4,0.3-2.1,0.3
			C78.5,68.7,76.8,68.7,75,68.8z"/>
		<path fill-rule="evenodd" clip-rule="evenodd" fill="#FFFFFF" d="M40.7,63.3c-1.7,0-3.3-0.5-4.9-0.9c-0.9-0.2-1.6-0.6-2.4-1.1
			c-1.4-0.9-2.5-2.1-3.5-3.6c-0.5-0.8-1-1.7-1.5-2.5c-0.6-0.9-0.9-1.9-1.1-2.9c0-0.1-0.1-0.2,0-0.3c0.1-1.7,0-3.4,0.8-4.9
			c0.1-0.2,0.2-0.5,0.3-0.7c0.6-2,1.8-3.6,3.1-5.2c0.4-0.5,0.9-0.9,1.4-1.3c0.9-0.7,1.9-1.3,2.8-2c1.3-1,2.8-1.5,4.4-1.7
			c0.3,0,0.5,0,0.8-0.1c3.2-0.7,6.3-0.2,9.3,1c0.8,0.3,1.7,0.6,2.5,0.9c0.7,0.3,1.4,0.6,2.2,0.9c1,0.3,2,0.8,2.8,1.5
			c0.3,0.2,0.3,0.7,0.1,0.9c-0.2,0.2-0.3,0.4-0.5,0.6c-1.8,1.4-3.4,3.1-5,4.7c-0.4,0.4-0.7,0.8-0.9,1.3c-0.9,1.7-1.6,3.5-2.1,5.4
			c-0.4,1.4-0.6,2.9-0.7,4.4c0,0.4,0.1,0.9,0.2,1.3c0.3,0.7,0.5,1.5,0.7,2.3c0.1,0.3-0.1,0.8-0.4,0.9c-0.2,0.1-0.5,0.2-0.7,0.3
			c-0.6,0.2-1.2,0.4-1.8,0.5c-1.3,0.2-2.6,0.4-3.9,0.5C41.7,63.4,41.2,63.3,40.7,63.3z"/>
		<path fill-rule="evenodd" clip-rule="evenodd" d="M78.2,53c-0.5,0.1-1.5-0.3-2.4-0.8c-0.3-0.2-0.6-0.4-0.7-0.7
			c-0.2-0.4-0.4-0.8-0.4-1.2C74.6,49,74.9,47.9,76,47c1-0.8,2.1-1.2,3.4-1.1c0.7,0,1.4,0.3,1.9,0.8c0.6,0.5,1,1.2,1.4,1.9
			c0.3,0.6,0.3,1.2,0.2,1.8c-0.5,1.7-1.9,2.5-3.2,2.6C79.3,53,79.1,53,78.2,53z"/>
		<path fill-rule="evenodd" clip-rule="evenodd" d="M43.7,50.9c-0.7,0-1.2-0.1-1.6-0.4c-0.3-0.2-0.5-0.5-0.7-0.8
			c-0.3-0.6-0.4-1.2-0.3-1.8c0.1-0.6,0.4-1.1,1-1.4c0.8-0.4,1.7-0.4,2.5,0.2c0.3,0.2,0.5,0.4,0.8,0.7c0.5,0.5,0.7,1.2,0.5,1.9
			c-0.2,0.8-0.8,1.3-1.6,1.6C44.1,50.8,43.8,50.8,43.7,50.9z"/>
	</g>
</g>
</svg>
