<?xml version="1.0" encoding="utf-8"?>
<!-- Generator: Adobe Illustrator 16.0.0, SVG Export Plug-In . SVG Version: 6.00 Build 0)  -->
<!DOCTYPE svg PUBLIC "-//W3C//DTD SVG 1.1//EN" "http://www.w3.org/Graphics/SVG/1.1/DTD/svg11.dtd">
<svg version="1.1" id="Layer_1" xmlns="http://www.w3.org/2000/svg" xmlns:xlink="http://www.w3.org/1999/xlink" x="0px" y="0px"
	 width="506px" height="216.4px" viewBox="0 0 506 216.4" enable-background="new 0 0 506 216.4" xml:space="preserve">
<g>
	<path opacity="0.8" fill-rule="evenodd" clip-rule="evenodd" stroke="#FFFFFF" stroke-width="8" stroke-miterlimit="10" d="
		M85.1,210.7c-0.1,0.9-0.8,1.3-1.6,1.6c-0.4,0.2-0.8,0.1-1.1-0.2c-0.4-0.3-0.7-0.7-1.1-1c-0.8-0.6-1.6-1.2-2.3-1.9
		c-0.7-0.7-1.2-1.6-2-2.2c-0.9-0.8-1.6-1.8-2.4-2.7c-1.6-1.9-3.1-3.9-4.4-6c-0.9-1.5-2-3-3-4.5c-0.5-0.7-0.9-1.5-1.3-2.3
		c-0.4-0.8-1-1.5-1.2-2.4c-0.8-1.3-1.3-2.7-1.7-4.1c-0.4-1.1-1-2.2-1.6-3.2c-0.8-0.4-1.6-0.7-2.5-0.8c-1.3-0.1-2.5-0.5-3.8-0.7
		c-0.5-0.1-1-0.3-1.5-0.3c-0.9-0.1-1.7-0.4-2.5-0.8c-0.9-0.5-1.8-0.9-2.8-1.1c-0.7-0.1-1.3-0.4-1.9-0.8c-0.4-0.2-0.9-0.5-1.3-0.8
		c-1.9-1.2-3.9-2-5.8-3.1c-0.4-0.3-0.9-0.4-1.4-0.6c-0.9-0.4-1.9-0.7-2.7-1.2c-0.8-0.4-1.5-1-2.2-1.5c-0.7-0.5-1.3-0.9-1.9-1.5
		c-0.3-0.3-0.6-0.6-0.9-0.8c-1.4-1-2.5-2.3-3.3-3.8c-0.5-0.9-1.1-1.7-1.4-2.6c-0.2-0.7-0.7-1.2-1.1-1.7c-0.2-0.2-0.4-0.5-0.7-0.6
		c-0.9-0.4-1.8-0.9-2.6-1.5c-1-0.7-2-1.3-3.1-1.8c-0.5-0.2-1-0.6-1.5-1c-0.4-0.3-0.7-0.7-1.2-0.9c-1-0.6-1.7-1.4-2.2-2.4
		c-0.2-0.3-0.5-0.7-0.8-0.9c-1-0.9-1.8-1.9-2.7-2.8c-1.1-1.1-1.7-2.4-2.2-3.9c-0.2-0.6-0.3-1.2-0.5-1.7c-0.5-1.6-0.6-3.3-1.5-4.8
		c-0.2-0.3-0.2-0.8-0.3-1.1c-0.3-1.3-0.6-2.5-0.9-3.8c0-0.2-0.1-0.4-0.1-0.6c-0.1-2.4-0.4-4.8-0.1-7.2c0-0.5,0.1-1,0.2-1.5
		c0.1-0.6,0.2-1.2,0.3-1.8c0.2-1.6,0.6-3.1,1.2-4.6c1.1-2.7,2.4-5.2,4.1-7.6c0.5-0.7,1-1.5,1.5-2.2c0.5-0.8,1-1.4,1.7-2
		c0.3-0.3,0.6-0.5,0.7-0.9c0.1-0.4,0.4-0.7,0.7-0.9c0.6-0.4,1.1-0.8,1.7-1.1c1-0.5,1.8-1.3,2.6-2c0.8-0.6,0.7-1.4,0.5-2.2
		c0-0.2-0.1-0.4-0.2-0.6c-0.7-1.4-1.3-2.9-2.1-4.3c-0.2-0.3-0.4-0.7-0.7-0.9c-0.3-0.4-0.8-0.7-1-1.1c-1.4-2.1-3.2-3.8-4.5-6
		c-0.1-0.2-0.2-0.3-0.3-0.5c-0.4-0.7-0.7-1.4-0.8-2.2c-0.1-0.6-0.1-1.2,0-1.8c0.4-1.7,1-3.2,1.9-4.7c0.4-0.7,0.8-1.3,1.3-2
		c0.6-1,1.3-2,2.2-2.8c0.5-0.5,0.9-1.1,1.2-1.7c0.1-0.2,0.2-0.4,0.3-0.5c0.8-0.5,1.3-1.2,1.8-2c0.1-0.1,0.1-0.1,0.2-0.2
		c0.4-0.4,0.8-0.6,1.3-0.6c0.4,0,0.8,0.4,0.7,0.8c0,0.3,0,0.6-0.1,0.9c-0.4,1-0.6,2.1-0.7,3.2c-0.1,0.9-0.2,1.7,0,2.6
		c0.2,0.8,0.1,1.6,0.1,2.3c0.3,0.7,0.8,1,1.2,1.5c1,1.5,2.5,2.5,4.1,3.4c0.3,0.2,0.9,0.1,1.1-0.1c0.6-0.5,1-1.2,1.7-1.7
		c0.7-0.5,1.4-1.2,2-1.8c0.6-0.5,1.3-0.9,1.8-1.6c0.4-0.5,0.9-0.8,1.5-1c0.5-0.2,0.9-0.4,1.3-0.7c0.2-0.1,0.3-0.3,0.1-0.5
		c-0.1-0.3-0.3-0.5-0.4-0.8c-0.7-0.9-1.4-1.7-1.8-2.8c-0.1-0.3-0.3-0.5-0.5-0.7c-0.7-0.8-1.1-1.7-1.4-2.6c-0.1-0.3-0.2-0.6-0.2-0.9
		c0-1.7,0-3.4,0.3-5.1c0-0.2,0.1-0.4,0.2-0.6c0.6-1,0.9-2.2,1.3-3.3c0.5-1.3,1.2-2.5,2.2-3.6c0.2-0.2,0.4-0.4,0.6-0.7
		c1.4-2.1,3.4-3.7,5.4-5.1c0.2-0.2,0.5-0.3,0.8-0.5c0.1-0.1,0.2-0.3,0.3-0.5c0.1-0.2-0.1-0.3-0.3-0.3c-0.8-0.1-1.6-0.3-2.3-0.7
		c-1.3-0.7-2.7-0.7-4.1-0.4c-0.7,0.1-1.4,0.2-2.1,0.4c-2.4,0.5-4.6,1.3-6.4,3c-0.8,0.7-1.6,1.5-2.4,2.2c-0.8,0.7-1.7,1.4-2.5,2.1
		c-0.6,0.5-1.4,0.8-2.2,0.7c-0.3,0-0.6-0.1-0.9-0.1c-1-0.1-2-0.4-2.8-0.9c-1.3-0.7-2.6-1.4-4-2c-0.6-0.2-1-0.6-1.2-1.2
		c-0.1-0.3-0.2-0.6-0.2-0.9c0.1-0.6,0.2-1.2,0.3-1.8c0.1-0.4,0.3-0.8,0.5-1c0.7-0.7,1.4-1.4,1.9-2.3c0.2-0.3,0.5-0.6,0.8-0.9
		c0.8-0.5,1.3-1.2,2-1.8c0.4-0.3,0.7-0.7,1.1-1c0.9-0.6,1.7-1.4,2.5-2.1c1.2-1.1,2.5-2,3.8-2.9c0.4-0.3,0.9-0.4,1.4-0.5
		c0.7-0.1,1.4-0.1,2.1,0c0.3,0,0.6,0.2,0.7,0.5c0.2,0.4,0.4,0.9,0.7,1.3c0.9,1,1.6,2,2.7,2.8c0.8,0.6,1.6,1.2,2.2,2
		c0.6,0.7,1.4,1.1,2.2,1.4c1.4,0.4,2.8,0.9,4.1,1.7c0.3,0.2,0.7,0.3,1.1,0.4c0.7,0.1,1.4,0.2,2.1,0.3c0.8,0.1,1.6,0.2,2.4,0.1
		c0.8-0.1,1.6-0.1,2.4-0.2c0.5,0,0.9-0.6,0.8-1.1c0-0.3,0-0.6-0.1-0.9c-0.2-0.7-0.3-1.4-0.6-2c-0.5-1.2-0.4-2.3-0.3-3.5
		c0.1-1.4,0.7-3.8,1.2-5.2c0.1-0.4,0.3-0.7,0.6-1c0.4-0.3,0.6-0.8,0.8-1.3c0.1-0.6,0.4-1.1,0.9-1.5c0.7-0.6,1.1-1.4,1.3-2.3
		c0.1-0.4,0.3-0.7,0.6-1c0.7-0.7,1.6-1.2,2.2-2.1c0.1-0.2,0.3-0.3,0.5-0.4c0.9-0.5,1.6-1.1,2.3-1.9c1.2-1.3,2.7-2,4.4-2.3
		c1.2-0.2,2.3-0.5,3.5-0.9c1.8-0.6,3.7-0.9,5.6-1c1.9,0,3.8-0.1,5.7,0c0.4,0,0.8,0,1.2,0c0.3,0,0.6-0.2,0.8-0.4
		c0.2-0.2,0.4-0.5,0.6-0.7c0.6-0.5,0.8-1.4,1.5-1.8c0.6-0.4,1.2-0.7,1.8-1c0.3-0.1,0.5-0.3,0.7-0.5c2.1-1.7,4.6-2.8,6.9-4.2
		c1.3-0.7,2.7-1.2,4.3-1.1c0.3,0,0.6,0,0.9-0.1c1.6-0.5,3.3-0.6,4.9-1.2c1.3-0.5,2.7-0.7,4.1-0.8c1.5-0.1,3-0.1,4.5-0.2
		c1.6-0.1,3.2,0.1,4.7,0.7c0.8,0.3,1.7,0.6,2.6,0.7c0.3,0,0.6,0.1,0.9,0.2c2.1,0.9,4.3,1.5,6.3,2.7c0.3,0.2,0.5,0.3,0.8,0.4
		c1.2,0.4,2.3,1.1,3.5,1.7c0.9,0.5,1.7,1.1,2.6,1.5c0.7,0.3,1.4,0.8,1.9,1.4c1.1,1.4,2.6,2.5,3.7,3.8c0.6,0.8,1.5,1.3,2.1,2.1
		c0.6,0.7,1.2,1.4,1.5,2.2c0.3,0.7,0.7,1.4,1.2,2c0.6,0.7,0.8,1.6,1.2,2.4c0.2,0.4,0.5,0.9,0.7,1.3c0.1,1.2,0.9,2.2,1.2,3.4
		c0.1,0.5,0.2,1,0.2,1.5c0,0.8,0.3,1.3,0.9,1.7c1.3,0.8,2.6,1.4,3.8,2.4c0.1,0.1,0.2,0.1,0.3,0.1c1.9,0.7,3.4,2,5.1,3.1
		c1.2,0.8,2.3,1.5,3.2,2.6c0.4,0.4,0.9,0.8,1.4,1.1c0.7,0.5,1.2,1,1.7,1.6c1,1.2,2.1,2.4,3.1,3.6c0.5,0.5,0.8,1.1,1.2,1.7
		c0.3,0.6,0.6,1.2,1,1.9c0.6,1.1,1,2.2,1.2,3.4c0.2,1.2,0.6,2.3,1,3.4c1.3,3.6,1.9,7.3,1.9,11.1c0,3.3,0,6.6,0,9.8
		c0,1.2-0.2,2.4-0.4,3.6c-0.4,2.2-1,4.5-1.5,6.7c-0.1,0.3-0.2,0.6-0.2,0.9c-0.8,2.5-2,5-2.8,7.5c-0.5,0.7-0.7,1.6-1,2.5
		c-0.3,0.7-0.6,1.5-1,2.2c-0.2,0.5-0.2,0.9,0,1.4c0.3,0.7,0.7,1.4,1.2,2.1c1.1,1.4,1.8,3.1,2.3,4.8c0.5,1.8,1,3.7,1,5.6
		c0,0.7,0.2,1.4,0.2,2.1c0.1,1.5,0.2,3,0.3,4.5c0,0.7,0,1.4-0.2,2.1c-0.4,1.9-0.5,3.8-0.8,5.6c-0.1,0.8-0.3,1.6-0.5,2.3
		c-0.1,0.6-0.3,1.2-0.5,1.7c-0.6,2.4-1.5,4.7-2.6,7c-1.5,2.8-3.1,5.6-4.8,8.3c-0.3,0.5-0.7,0.9-1.1,1.4c-1,1.4-2.2,2.6-3.1,4
		c-0.4,0.7-1,1.3-1.5,1.9c-0.4,0.5-0.8,0.9-1.2,1.3c-1,1.3-2.2,2.3-3.5,3.3c-0.2,0.2-0.5,0.4-0.7,0.5c-2,0.9-3.7,2.4-5.6,3.4
		c-1,0.5-1.9,1.1-2.7,1.8c-0.8,0.7-1.9,1.2-2.9,1.4c-1.6,0.3-3,0.9-4.5,1.5c-1.9,0.7-3.8,1.2-5.8,1c-0.6,0-1.2,0-1.8,0
		c-1.4,0.1-2.8,0-4.2-0.2c-1.1-0.2-2.2-0.2-3.3-0.3c-2.6-0.3-1.7-0.5-3.5,1.4c-0.9,1-1.6,2.3-2.3,3.5c-0.2,0.4-0.4,0.9-0.4,1.4
		c-0.3,1.6-0.5,3.1-1.1,4.6c-0.2,0.4-0.2,0.8-0.2,1.2c-0.3,1.9-0.9,3.7-1.8,5.4c-0.6,1.2-1,2.6-1.8,3.8c-0.7,1.2-1.3,2.4-2,3.7
		c-0.5,0.9-0.9,1.8-1.5,2.6c-0.7,1.1-1.4,2.2-1.8,3.4c-0.5,1.3-1.2,2.5-2,3.7c-0.9,1.3-2,2.5-3.1,3.6c-0.2,0.2-0.5,0.4-0.7,0.5
		c-0.5,0.3-1.2,0.1-1.5-0.4c-0.1-0.2-0.2-0.3-0.3-0.5c-0.1-0.3-0.1-0.6-0.1-0.9c0-0.9,0-1.8,0-2.7c0-1.5,0.2-3-0.1-4.5
		c-0.1-0.5,0-1,0-1.5c0.1-1.8-0.2-3.6,0.2-5.4c-0.1-0.9-0.1-1.8-0.2-2.7c-0.1-0.8-0.1-1.6-0.1-2.4c0-0.8-0.1-1.6-0.4-2.3
		c-0.2-0.4-0.2-1-0.3-1.5c-0.1-0.6-0.3-1.2-0.5-1.7c-0.1-0.2-0.4-0.5-0.7-0.5c-1.2-0.1-2.4,0-3.6,0.2c-1,0.1-2,0.2-3,0.2
		c-0.5,0-0.9,0.3-1.1,0.9c-0.3,0.8-0.7,1.7-0.5,2.6c0,0.3,0,0.6-0.1,0.9c-0.3,1.4-0.2,2.8-0.2,4.2c0,0.7,0.1,1.4,0,2.1
		c-0.1,0.4,0,0.8,0,1.2c0,0.8,0.1,1.6,0.2,2.4c0,1.2,0,2.4,0.4,3.5c0.1,0.4,0.1,0.8,0.1,1.2c0,1.4,0.3,2.8,0.7,4.1
		c0.1,0.4,0.3,0.8,0.3,1.1C83.9,209.1,84.5,209.9,85.1,210.7z"/>
	<path fill-rule="evenodd" clip-rule="evenodd" d="M85.1,210.7c-0.1,0.9-0.8,1.3-1.6,1.6c-0.4,0.2-0.8,0.1-1.1-0.2
		c-0.4-0.3-0.7-0.7-1.1-1c-0.8-0.6-1.6-1.2-2.3-1.9c-0.7-0.7-1.2-1.6-2-2.2c-0.9-0.8-1.6-1.8-2.4-2.7c-1.6-1.9-3.1-3.9-4.4-6
		c-0.9-1.5-2-3-3-4.5c-0.5-0.7-0.9-1.5-1.3-2.3c-0.4-0.8-1-1.5-1.2-2.4c-0.8-1.3-1.3-2.7-1.7-4.1c-0.4-1.1-1-2.2-1.6-3.2
		c-0.8-0.4-1.6-0.7-2.5-0.8c-1.3-0.1-2.5-0.5-3.8-0.7c-0.5-0.1-1-0.3-1.5-0.3c-0.9-0.1-1.7-0.4-2.5-0.8c-0.9-0.5-1.8-0.9-2.8-1.1
		c-0.7-0.1-1.3-0.4-1.9-0.8c-0.4-0.2-0.9-0.5-1.3-0.8c-1.9-1.2-3.9-2-5.8-3.1c-0.4-0.3-0.9-0.4-1.4-0.6c-0.9-0.4-1.9-0.7-2.7-1.2
		c-0.8-0.4-1.5-1-2.2-1.5c-0.7-0.5-1.3-0.9-1.9-1.5c-0.3-0.3-0.6-0.6-0.9-0.8c-1.4-1-2.5-2.3-3.3-3.8c-0.5-0.9-1.1-1.7-1.4-2.6
		c-0.2-0.7-0.7-1.2-1.1-1.7c-0.2-0.2-0.4-0.5-0.7-0.6c-0.9-0.4-1.8-0.9-2.6-1.5c-1-0.7-2-1.3-3.1-1.8c-0.5-0.2-1-0.6-1.5-1
		c-0.4-0.3-0.7-0.7-1.2-0.9c-1-0.6-1.7-1.4-2.2-2.4c-0.2-0.3-0.5-0.7-0.8-0.9c-1-0.9-1.8-1.9-2.7-2.8c-1.1-1.1-1.7-2.4-2.2-3.9
		c-0.2-0.6-0.3-1.2-0.5-1.7c-0.5-1.6-0.6-3.3-1.5-4.8c-0.2-0.3-0.2-0.8-0.3-1.1c-0.3-1.3-0.6-2.5-0.9-3.8c0-0.2-0.1-0.4-0.1-0.6
		c-0.1-2.4-0.4-4.8-0.1-7.2c0-0.5,0.1-1,0.2-1.5c0.1-0.6,0.2-1.2,0.3-1.8c0.2-1.6,0.6-3.1,1.2-4.6c1.1-2.7,2.4-5.2,4.1-7.6
		c0.5-0.7,1-1.5,1.5-2.2c0.5-0.8,1-1.4,1.7-2c0.3-0.3,0.6-0.5,0.7-0.9c0.1-0.4,0.4-0.7,0.7-0.9c0.6-0.4,1.1-0.8,1.7-1.1
		c1-0.5,1.8-1.3,2.6-2c0.8-0.6,0.7-1.4,0.5-2.2c0-0.2-0.1-0.4-0.2-0.6c-0.7-1.4-1.3-2.9-2.1-4.3c-0.2-0.3-0.4-0.7-0.7-0.9
		c-0.3-0.4-0.8-0.7-1-1.1c-1.4-2.1-3.2-3.8-4.5-6c-0.1-0.2-0.2-0.3-0.3-0.5c-0.4-0.7-0.7-1.4-0.8-2.2c-0.1-0.6-0.1-1.2,0-1.8
		c0.4-1.7,1-3.2,1.9-4.7c0.4-0.7,0.8-1.3,1.3-2c0.6-1,1.3-2,2.2-2.8c0.5-0.5,0.9-1.1,1.2-1.7c0.1-0.2,0.2-0.4,0.3-0.5
		c0.8-0.5,1.3-1.2,1.8-2c0.1-0.1,0.1-0.1,0.2-0.2c0.4-0.4,0.8-0.6,1.3-0.6c0.4,0,0.8,0.4,0.7,0.8c0,0.3,0,0.6-0.1,0.9
		c-0.4,1-0.6,2.1-0.7,3.2c-0.1,0.9-0.2,1.7,0,2.6c0.2,0.8,0.1,1.6,0.1,2.3c0.3,0.7,0.8,1,1.2,1.5c1,1.5,2.5,2.5,4.1,3.4
		c0.3,0.2,0.9,0.1,1.1-0.1c0.6-0.5,1-1.2,1.7-1.7c0.7-0.5,1.4-1.2,2-1.8c0.6-0.5,1.3-0.9,1.8-1.6c0.4-0.5,0.9-0.8,1.5-1
		c0.5-0.2,0.9-0.4,1.3-0.7c0.2-0.1,0.3-0.3,0.1-0.5c-0.1-0.3-0.3-0.5-0.4-0.8c-0.7-0.9-1.4-1.7-1.8-2.8c-0.1-0.3-0.3-0.5-0.5-0.7
		c-0.7-0.8-1.1-1.7-1.4-2.6c-0.1-0.3-0.2-0.6-0.2-0.9c0-1.7,0-3.4,0.3-5.1c0-0.2,0.1-0.4,0.2-0.6c0.6-1,0.9-2.2,1.3-3.3
		c0.5-1.3,1.2-2.5,2.2-3.6c0.2-0.2,0.4-0.4,0.6-0.7c1.4-2.1,3.4-3.7,5.4-5.1c0.2-0.2,0.5-0.3,0.8-0.5c0.1-0.1,0.2-0.3,0.3-0.5
		c0.1-0.2-0.1-0.3-0.3-0.3c-0.8-0.1-1.6-0.3-2.3-0.7c-1.3-0.7-2.7-0.7-4.1-0.4c-0.7,0.1-1.4,0.2-2.1,0.4c-2.4,0.5-4.6,1.3-6.4,3
		c-0.8,0.7-1.6,1.5-2.4,2.2c-0.8,0.7-1.7,1.4-2.5,2.1c-0.6,0.5-1.4,0.8-2.2,0.7c-0.3,0-0.6-0.1-0.9-0.1c-1-0.1-2-0.4-2.8-0.9
		c-1.3-0.7-2.6-1.4-4-2c-0.6-0.2-1-0.6-1.2-1.2c-0.1-0.3-0.2-0.6-0.2-0.9c0.1-0.6,0.2-1.2,0.3-1.8c0.1-0.4,0.3-0.8,0.5-1
		c0.7-0.7,1.4-1.4,1.9-2.3c0.2-0.3,0.5-0.6,0.8-0.9c0.8-0.5,1.3-1.2,2-1.8c0.4-0.3,0.7-0.7,1.1-1c0.9-0.6,1.7-1.4,2.5-2.1
		c1.2-1.1,2.5-2,3.8-2.9c0.4-0.3,0.9-0.4,1.4-0.5c0.7-0.1,1.4-0.1,2.1,0c0.3,0,0.6,0.2,0.7,0.5c0.2,0.4,0.4,0.9,0.7,1.3
		c0.9,1,1.6,2,2.7,2.8c0.8,0.6,1.6,1.2,2.2,2c0.6,0.7,1.4,1.1,2.2,1.4c1.4,0.4,2.8,0.9,4.1,1.7c0.3,0.2,0.7,0.3,1.1,0.4
		c0.7,0.1,1.4,0.2,2.1,0.3c0.8,0.1,1.6,0.2,2.4,0.1c0.8-0.1,1.6-0.1,2.4-0.2c0.5,0,0.9-0.6,0.8-1.1c0-0.3,0-0.6-0.1-0.9
		c-0.2-0.7-0.3-1.4-0.6-2c-0.5-1.2-0.4-2.3-0.3-3.5c0.1-1.4,0.7-3.8,1.2-5.2c0.1-0.4,0.3-0.7,0.6-1c0.4-0.3,0.6-0.8,0.8-1.3
		c0.1-0.6,0.4-1.1,0.9-1.5c0.7-0.6,1.1-1.4,1.3-2.3c0.1-0.4,0.3-0.7,0.6-1c0.7-0.7,1.6-1.2,2.2-2.1c0.1-0.2,0.3-0.3,0.5-0.4
		c0.9-0.5,1.6-1.1,2.3-1.9c1.2-1.3,2.7-2,4.4-2.3c1.2-0.2,2.3-0.5,3.5-0.9c1.8-0.6,3.7-0.9,5.6-1c1.9,0,3.8-0.1,5.7,0
		c0.4,0,0.8,0,1.2,0c0.3,0,0.6-0.2,0.8-0.4c0.2-0.2,0.4-0.5,0.6-0.7c0.6-0.5,0.8-1.4,1.5-1.8c0.6-0.4,1.2-0.7,1.8-1
		c0.3-0.1,0.5-0.3,0.7-0.5c2.1-1.7,4.6-2.8,6.9-4.2c1.3-0.7,2.7-1.2,4.3-1.1c0.3,0,0.6,0,0.9-0.1c1.6-0.5,3.3-0.6,4.9-1.2
		c1.3-0.5,2.7-0.7,4.1-0.8c1.5-0.1,3-0.1,4.5-0.2c1.6-0.1,3.2,0.1,4.7,0.7c0.8,0.3,1.7,0.6,2.6,0.7c0.3,0,0.6,0.1,0.9,0.2
		c2.1,0.9,4.3,1.5,6.3,2.7c0.3,0.2,0.5,0.3,0.8,0.4c1.2,0.4,2.3,1.1,3.5,1.7c0.9,0.5,1.7,1.1,2.6,1.5c0.7,0.3,1.4,0.8,1.9,1.4
		c1.1,1.4,2.6,2.5,3.7,3.8c0.6,0.8,1.5,1.3,2.1,2.1c0.6,0.7,1.2,1.4,1.5,2.2c0.3,0.7,0.7,1.4,1.2,2c0.6,0.7,0.8,1.6,1.2,2.4
		c0.2,0.4,0.5,0.9,0.7,1.3c0.1,1.2,0.9,2.2,1.2,3.4c0.1,0.5,0.2,1,0.2,1.5c0,0.8,0.3,1.3,0.9,1.7c1.3,0.8,2.6,1.4,3.8,2.4
		c0.1,0.1,0.2,0.1,0.3,0.1c1.9,0.7,3.4,2,5.1,3.1c1.2,0.8,2.3,1.5,3.2,2.6c0.4,0.4,0.9,0.8,1.4,1.1c0.7,0.5,1.2,1,1.7,1.6
		c1,1.2,2.1,2.4,3.1,3.6c0.5,0.5,0.8,1.1,1.2,1.7c0.3,0.6,0.6,1.2,1,1.9c0.6,1.1,1,2.2,1.2,3.4c0.2,1.2,0.6,2.3,1,3.4
		c1.3,3.6,1.9,7.3,1.9,11.1c0,3.3,0,6.6,0,9.8c0,1.2-0.2,2.4-0.4,3.6c-0.4,2.2-1,4.5-1.5,6.7c-0.1,0.3-0.2,0.6-0.2,0.9
		c-0.8,2.5-2,5-2.8,7.5c-0.5,0.7-0.7,1.6-1,2.5c-0.3,0.7-0.6,1.5-1,2.2c-0.2,0.5-0.2,0.9,0,1.4c0.3,0.7,0.7,1.4,1.2,2.1
		c1.1,1.4,1.8,3.1,2.3,4.8c0.5,1.8,1,3.7,1,5.6c0,0.7,0.2,1.4,0.2,2.1c0.1,1.5,0.2,3,0.3,4.5c0,0.7,0,1.4-0.2,2.1
		c-0.4,1.9-0.5,3.8-0.8,5.6c-0.1,0.8-0.3,1.6-0.5,2.3c-0.1,0.6-0.3,1.2-0.5,1.7c-0.6,2.4-1.5,4.7-2.6,7c-1.5,2.8-3.1,5.6-4.8,8.3
		c-0.3,0.5-0.7,0.9-1.1,1.4c-1,1.4-2.2,2.6-3.1,4c-0.4,0.7-1,1.3-1.5,1.9c-0.4,0.5-0.8,0.9-1.2,1.3c-1,1.3-2.2,2.3-3.5,3.3
		c-0.2,0.2-0.5,0.4-0.7,0.5c-2,0.9-3.7,2.4-5.6,3.4c-1,0.5-1.9,1.1-2.7,1.8c-0.8,0.7-1.9,1.2-2.9,1.4c-1.6,0.3-3,0.9-4.5,1.5
		c-1.9,0.7-3.8,1.2-5.8,1c-0.6,0-1.2,0-1.8,0c-1.4,0.1-2.8,0-4.2-0.2c-1.1-0.2-2.2-0.2-3.3-0.3c-2.6-0.3-1.7-0.5-3.5,1.4
		c-0.9,1-1.6,2.3-2.3,3.5c-0.2,0.4-0.4,0.9-0.4,1.4c-0.3,1.6-0.5,3.1-1.1,4.6c-0.2,0.4-0.2,0.8-0.2,1.2c-0.3,1.9-0.9,3.7-1.8,5.4
		c-0.6,1.2-1,2.6-1.8,3.8c-0.7,1.2-1.3,2.4-2,3.7c-0.5,0.9-0.9,1.8-1.5,2.6c-0.7,1.1-1.4,2.2-1.8,3.4c-0.5,1.3-1.2,2.5-2,3.7
		c-0.9,1.3-2,2.5-3.1,3.6c-0.2,0.2-0.5,0.4-0.7,0.5c-0.5,0.3-1.2,0.1-1.5-0.4c-0.1-0.2-0.2-0.3-0.3-0.5c-0.1-0.3-0.1-0.6-0.1-0.9
		c0-0.9,0-1.8,0-2.7c0-1.5,0.2-3-0.1-4.5c-0.1-0.5,0-1,0-1.5c0.1-1.8-0.2-3.6,0.2-5.4c-0.1-0.9-0.1-1.8-0.2-2.7
		c-0.1-0.8-0.1-1.6-0.1-2.4c0-0.8-0.1-1.6-0.4-2.3c-0.2-0.4-0.2-1-0.3-1.5c-0.1-0.6-0.3-1.2-0.5-1.7c-0.1-0.2-0.4-0.5-0.7-0.5
		c-1.2-0.1-2.4,0-3.6,0.2c-1,0.1-2,0.2-3,0.2c-0.5,0-0.9,0.3-1.1,0.9c-0.3,0.8-0.7,1.7-0.5,2.6c0,0.3,0,0.6-0.1,0.9
		c-0.3,1.4-0.2,2.8-0.2,4.2c0,0.7,0.1,1.4,0,2.1c-0.1,0.4,0,0.8,0,1.2c0,0.8,0.1,1.6,0.2,2.4c0,1.2,0,2.4,0.4,3.5
		c0.1,0.4,0.1,0.8,0.1,1.2c0,1.4,0.3,2.8,0.7,4.1c0.1,0.4,0.3,0.8,0.3,1.1C83.9,209.1,84.5,209.9,85.1,210.7z"/>
	<g>
		<g opacity="0.8">
			<path fill-rule="evenodd" clip-rule="evenodd" stroke="#FFFFFF" stroke-width="6" stroke-miterlimit="10" d="M199.2,97
				c-0.1-1.1-0.1-2.5,0.2-3.8c0.1-0.5-0.1-1-0.1-1.5c-0.1-1-0.2-2,0-3c0.3-1.5,0-3-0.1-4.5c0-0.3-0.7-0.9-1.1-0.8
				c-0.7,0-1.3,0-2,0.1c-1.2,0.1-2.3,0.4-3.5,0.4c-2.2,0-4.3,0.6-6.4,1.1c-1.3,0.3-2.4,1.2-3.6,1.7c-0.3,0.1-0.7,0-1,0
				c-0.6-0.1-1.2-1-1-1.5c0.7-1.4,0.6-2.9,0.6-4.4c0-0.6,0.6-1.3,1.3-1.4c2-0.3,3.9-0.9,5.8-1.7c2.6-1.1,5.5-1.6,8.1-2.6
				c0.5-0.2,1-0.3,1.5-0.3c2.5-0.2,4.9-1,7.4-1.6c2.9-0.7,5.9-1.1,8.9-1.2c1,0,2,0,3,0c1.3,0,2.7-0.1,4-0.4c2-0.4,4-0.6,6-0.9
				c0.5-0.1,1.3,0.7,1.5,1.2c0.3,1.4,0.2,2.7-0.3,3.9c-0.3,0.8-0.8,1.5-1.3,2.1c-0.3,0.4-0.8,0.6-1.3,0.6c-0.7,0-1.3-0.2-2-0.1
				c-1.2,0-2.3,0.1-3.4,0.6c-2.6,1.2-5.4,1.8-8.2,2.2c-1.7,0.2-3.3,0.6-4.9,1c-0.3,0.1-0.6,0.4-0.7,0.7c-0.4,3.2-0.8,6.3-1.1,9.5
				c-0.1,0.7,0,1.3,0.2,2c0.5,1.3,0.7,2.6,0.9,3.9c0.4,2.1,0.9,4.3,1.6,6.3c0.5,1.2,0.7,2.6,1,3.9c0.1,0.4-0.5,1.4-1.1,1.6
				c-2.1,0.7-4.1,1.4-6.2,2.1c-0.7,0.2-1.3-0.1-1.8-0.6c-0.5-0.5-0.8-1.1-0.8-1.8c0-0.8,0.1-1.7,0.1-2.5c0-1.3,0-2.7-0.1-4
				c-0.1-1.5-0.3-3,0-4.5C199.3,98.2,199.2,97.7,199.2,97z"/>
			<path fill-rule="evenodd" clip-rule="evenodd" stroke="#FFFFFF" stroke-width="6" stroke-miterlimit="10" d="M276.1,152.7
				c-2.3,0-3.5,0-4.6,0c-0.8,0-1.7,0-2.5,0c-0.9-0.1-1.4-0.9-2.2-1.1c-0.8-0.3-1.6-0.5-2.4-0.8c-0.5-0.2-0.9-0.6-0.9-1.1
				c-0.1-1.5,0.1-3-0.2-4.5c-0.1-0.5,0.1-1,0.2-1.5c0.2-0.8,0.4-1.6,0.3-2.5c-0.2-1.5-0.1-3,0.4-4.5c0.2-0.5,0-1-0.1-1.5
				c-0.2-0.7-0.2-1.3,0.1-2c0.3-0.8,0.5-1.6,0.4-2.4c-0.3-1.7,0.3-3.3,0.6-5c0.1-0.5,0.6-0.8,1.1-1c0.3-0.1,0.6-0.2,1-0.3
				c2.3-0.2,4.7-0.7,7-1c2.4-0.3,4.6-0.8,6.8-1.8c2-0.9,4.1-1.4,6.3-1.5c1-0.1,1.8,0.8,1.7,2c0,0.2,0,0.3-0.1,0.5
				c-0.1,0.4-0.3,0.6-0.7,0.6c-0.5-0.1-1-0.1-1.5-0.3c-0.7-0.2-1.3-0.4-2-0.1c-1.6,0.6-3.3,0.7-4.8,1.4c-1,0.5-2.1,1.1-3.3,1.2
				c-2,0.3-3.9,1.1-5.9,1.2c-0.7,0-1.3,0.2-2,0.3c-0.3,0.1-0.9,0.8-0.9,1.1c0,2,0.1,4,0.8,6c0.2,0.6,0.9,1.1,1.5,1.1
				c3.5,0,7.1-0.2,10.5-1.1c1-0.2,2-0.4,3-0.5c0.9,0,1.6,0.1,2.4,0.6c0.8,0.6,1.7,1.1,2.5,1.6c1.6,1,2.1,3.6,1.6,5
				c-0.5,1.3-0.9,2.5-1.7,3.6c-1.4,2.1-2.7,4.2-4.1,6.4c-0.7,1-1.7,1.7-2.9,1.9c-0.5,0.1-1,0.2-1.5,0.1
				C278.3,152.9,276.7,152.7,276.1,152.7z M269.7,143.9C269.7,143.9,269.7,143.9,269.7,143.9c0.1,0.3,0.1,0.7,0.2,1
				c0,0.3,0.1,0.7,0.1,1c0,0.3,0.1,0.7,0.1,1c0.2,1.1,0.8,1.6,2.1,1.7c3.6,0.3,6.9-0.7,10.3-1.7c0.8-0.3,1.4-0.8,1.5-1.8
				c0.4-2.3,0-4.6-0.2-6.9c0-0.3-0.3-0.5-0.7-0.6c-1.5-0.5-2.9-0.7-4.4-0.1c-2.5,0.9-5.1,1.7-7.6,2.5c-0.5,0.2-0.9,0.4-1.3,0.7
				c-0.2,0.2-0.5,0.5-0.5,0.8C269.4,142.2,269.6,143.1,269.7,143.9z"/>
			<path fill-rule="evenodd" clip-rule="evenodd" stroke="#FFFFFF" stroke-width="6" stroke-miterlimit="10" d="M231.7,108.2
				c-1.2,0.1-2.3-0.2-3.3-0.8c-0.4-0.3-0.7-0.8-0.7-1.3c0-0.7-0.1-1.4,0-2c0.4-1.5,0.8-2.9,1-4.4c1-2.5,1.8-5.1,2.5-7.7
				c0-0.2,0.1-0.3,0.2-0.5c1.4-2.5,2.2-5.3,3.3-7.9c0.5-1.2,1-2.5,1.6-3.7c0.5-1,1.1-2,1.6-3.1c0.4-1,1.8-1.3,2.6-0.8
				c1.8,1.3,3.5,2.6,5.3,3.9c1.1,0.8,2,1.8,2.9,2.8c2.1,2.6,4.2,5.2,5.9,8.2c0.8,1.5,1.8,2.8,2.7,4.2c0.3,0.5,0.3,1,0.1,1.4
				c-1,1.8-2,3.5-3,5.2c-0.3,0.4-0.7,0.7-1.3,0.6c-0.5-0.1-0.9-0.5-1.1-1c-0.4-0.9-0.9-1.8-1.1-2.8c-0.3-2.2-1.5-4.1-2.2-6.1
				c-0.3-0.7-1.3-1.1-2.1-0.9c-0.5,0.1-1,0.3-1.5,0.4c-3.6,0.6-6.6,2.4-9.5,4.5c-0.5,0.4-1,0.9-1.4,1.4c-0.3,0.4-0.6,0.8-0.8,1.3
				c-0.6,2.1-0.8,4.3-0.6,6.5c0.1,0.7,0,1.3-0.3,2C232.3,107.9,232.1,108.1,231.7,108.2z M236.4,89.9c0.2,0,0.3,0.1,0.5,0.1
				c2.5-0.3,5-0.7,7.5-1c0.2,0,0.3-0.1,0.5-0.1c0.6-0.1,0.9-1.1,0.5-1.6c-1.5-2.1-3.4-3.7-5.4-5.2c-0.3-0.3-1.1-0.1-1.3,0.3
				c-0.8,1.8-1.7,3.6-2.5,5.5c-0.2,0.4-0.2,1-0.3,1.4C235.8,89.5,236,89.8,236.4,89.9z"/>
			<path fill-rule="evenodd" clip-rule="evenodd" stroke="#FFFFFF" stroke-width="6" stroke-miterlimit="10" d="M266.9,92.6
				c0-0.7-0.1-1.5-0.1-2.3c-0.2-3.2-0.1-6.4,0.2-9.5c0-0.3,0.6-1,1-1.1c1.5-0.3,3-0.4,4.5-0.3c0.3,0,0.6,0.2,0.9,0.5
				c0.2,0.2,0.5,0.6,0.4,0.9c-0.6,1.6-0.7,3.3-1.2,4.9c-0.6,1.8-0.6,3.6-0.8,5.5c0,0.4,0.7,1,1,0.8c0.2-0.1,0.3-0.1,0.5-0.2
				c1.3-0.4,2.2-1.6,3.4-2.2c1.2-0.6,2.5-1.1,3.6-1.8c1.1-0.7,2.1-1.6,3.2-2.4c0.8-0.6,1.6-1.3,2.5-1.6c1.6-0.6,3-1.5,4.4-2.4
				c0.4-0.3,0.9-0.3,1.5-0.2c0.3,0.1,0.6,0.4,0.6,0.7c-0.1,1-0.4,1.9-1.5,2.4c-3.4,1.8-6.4,4.3-9.4,6.7c-0.2,0.2-0.3,0.6-0.3,0.9
				c0,0.3,0,0.7,0.1,1c0.2,0.6,0.6,1.3,0.6,1.9c0.4,3.1,1.8,5.7,3.4,8.3c0.4,0.6,0.8,1.1,1.1,1.7c0.4,0.6,0.4,1.3,0,1.9
				c-0.2,0.4-0.5,0.8-0.8,1.2c0,0.1-0.3,0-0.4-0.1c-1.1-1.4-2.2-2.9-3.4-4.4c-0.5-0.7-1-1.4-1.5-2c-1-1.2-1.8-2.4-2.7-3.6
				c-1.3-2-2-2.1-3.9-0.2c-0.7,0.7-1.4,1.5-1.8,2.4c-0.4,0.9-0.8,1.8-1.3,2.7c-0.5,0.9-0.6,1.9-0.4,2.9c0.1,0.7-0.1,1.3-0.4,1.9
				c-0.2,0.5-1,1-1.6,1c-0.4,0-1.1-0.4-1.3-0.7c-0.4-1.1-0.9-2.2-0.7-3.4c0.5-2.5,0.2-5,0.3-7.5C266.8,95.4,266.6,94.1,266.9,92.6z"
				/>
			<path fill-rule="evenodd" clip-rule="evenodd" stroke="#FFFFFF" stroke-width="6" stroke-miterlimit="10" d="M334,76.5
				c0.1-1.9,0.2-2.8,0.3-3.6c0-0.3,0.7-1,1.1-1c3-0.2,6-0.8,9-1.3c1.5-0.2,3-0.4,4.5-0.4c2.9,0,5.7-0.2,8.6-0.3
				c1.8-0.1,3.7-0.2,5.5-0.6c0.8-0.2,1.7-0.1,2.5,0c0.9,0.1,1.6,0.8,1.6,1.6c0,0.8-0.7,1.7-1.5,1.8c-0.7,0.1-1.3,0.1-2,0.1
				c-3.5,0-7,0.3-10.5,1.1c-0.9,0.2-1.4,0.9-1.7,1.7c-0.1,0.2-0.1,0.3-0.1,0.5c-0.1,2.5-0.8,5-1.2,7.4c-0.3,1.8-0.6,3.6-0.5,5.5
				c0.1,2.4-0.3,4.7-0.6,7c-0.2,1.7-0.1,3.3,0.5,4.9c0.2,0.6,0.5,1.3,0.7,1.9c0.4,0.9,0.1,2-0.7,2.7c-0.1,0.1-0.3,0.2-0.4,0.2
				c-1.6,0.5-3.6-0.5-4.1-2c-0.1-0.2-0.1-0.3-0.1-0.5c0-1.7-0.2-3.4,0.1-5c0.2-1.5,0.4-3,0.6-4.5c0.2-1.2,0.3-2.3,0.2-3.5
				c0-0.7,0-1.4,0.2-2c0.5-1.6,0.5-3.3,0.7-5c0.2-1.8,0.1-3.7,0.7-5.5c-0.1-0.8-0.3-1.6-0.9-2.3c-0.1-0.1-0.3-0.2-0.4-0.2
				c-0.3,0-0.7,0.1-1,0.1c-1.6,0.5-3.2,1-4.8,1.4c-1.2,0.3-2.2,0.7-3.2,1.4c-0.3,0.2-0.6,0.4-0.9,0.5c-0.8,0.4-1.9-0.2-1.9-1
				C334,77,334,76.2,334,76.5z"/>
			<path fill-rule="evenodd" clip-rule="evenodd" stroke="#FFFFFF" stroke-width="6" stroke-miterlimit="10" d="M415.5,85.1
				c3.3,0.1,7.1-0.7,10.9-1.3c0.3,0,0.7-0.2,0.9-0.4c0.4-0.3,0.9-0.6,0.9-1.2c0.1-3,1.1-5.9,1-9c0-1.3,0.7-2.2,1.8-2.8
				c0.4-0.2,0.9-0.4,1.4-0.6c0.4-0.1,1.1,0.3,1.2,0.7c0.1,0.3,0.2,0.7,0.2,1c-0.1,1-0.1,2.1-0.5,3c-1.1,2.5-0.6,5.3-1.5,7.9
				c-0.1,3-0.5,6.1,0,9.1c0.5,2.7,0.5,5.3,0.4,8c0,1.2,0,2.3-0.1,3.5c0,0.3-0.3,0.6-0.6,0.8c-1.4,0.7-2.8,1.1-4.4,0.6
				c-0.8-0.2-1.6-1.2-1.3-1.9c0.4-0.9,0.5-1.9,0.8-2.9c1-3.1,0.8-6.3,0.7-9.5c0-0.2-0.1-0.3-0.1-0.5c-0.1-0.7-1-1.6-1.7-1.6
				c-0.7,0-1.4-0.1-2-0.1c-2.8,0.4-5.7,0.5-8.5,0.6c-2,0.1-4,0.3-6,0.5c-1.2,0.1-2.3-0.8-2.5-2c-0.1-0.5-0.2-1-0.2-1.5
				c0-0.7,0.1-1.3,0.2-2c0.1-1,0.3-2,0.5-3c0.3-2,0.3-4-0.5-6c-0.1-0.1,0-0.4,0-0.5c0.1-0.3,0.3-0.7,0.5-0.8c0.2-0.1,0.7-0.1,0.9,0
				c0.5,0.2,0.9,0.6,1,1.1c0.5,2.1,1,4.3,0.4,6.5c-0.3,1-0.2,2,0,3c0.1,0.4,0.6,1,1,1c0.5,0.1,1,0.2,1.5,0.2
				C412.9,85.3,413.9,85.2,415.5,85.1z"/>
			<path fill-rule="evenodd" clip-rule="evenodd" stroke="#FFFFFF" stroke-width="6" stroke-miterlimit="10" d="M320.9,143.6
				c-1,0.2-1.7,0.4-2.3,0.1c-1.4-0.6-3-0.6-4.5-0.5c-1.9,0.1-3.7-0.2-5.5-0.7c-0.8-0.2-1.5-0.6-2.2-1.2c-1-0.9-1.9-1.8-2.5-3.1
				c-0.6-1.4-0.9-2.9-0.7-4.4c0.1-1.2,0.3-2.3,0.7-3.4c0.5-1.3,1.4-2.3,2.6-2.9c0.6-0.3,1.3-0.4,1.9-0.7c1.1-0.4,2.3-0.6,3.3-1.1
				c2-0.9,4.2-1.2,6.3-1.4c1.9-0.2,3.7,0.2,5.5,0.5c0.3,0,0.6,0.2,0.9,0.4c2.5,1.6,5.1,3.3,7.6,5c1.3,0.9,2.2,2.1,2.9,3.4
				c0.7,1.1,0.6,2.6-0.2,3.8c-0.6,0.8-1.2,1.6-2.1,2.2c-1,0.6-2,1.3-3.1,1.7C326.7,142.2,323.9,143.7,320.9,143.6z M316.6,139.7
				c1.5-0.1,3-0.1,4.5-0.2c2-0.1,3.9-0.9,5.8-1.3c1.2-0.7,2.3-1.3,3.5-2c0.1-0.1,0.2-0.2,0.3-0.4c0.1-0.3,0.4-0.7,0.3-0.9
				c-0.5-1.6-1.4-3.1-2.7-4.2c-1.5-1.3-3.1-2.5-5-3.3c-1.7-1.4-3.6-1.5-5.7-1.2c-2,0.3-3.9,0.9-5.7,1.9c-0.4,0.2-0.8,0.5-1.2,0.9
				c-1,1.1-1.9,2.3-1.8,4c0.1,1.5-0.1,3-0.1,4.5c0,0.5,0.3,0.9,0.8,1.1c0.6,0.3,1.2,0.6,1.9,0.6
				C313.2,139.6,314.9,139.6,316.6,139.7z"/>
			<path fill-rule="evenodd" clip-rule="evenodd" stroke="#FFFFFF" stroke-width="6" stroke-miterlimit="10" d="M382,99.4
				c-1-0.1-1.8-0.1-2.6-0.2c-0.7-0.1-1.3-0.3-1.9-0.6c-0.7-0.4-1.4-1-2.2-1.2c-2-0.5-3-2-4.3-3.3c-0.2-0.2-0.3-0.6-0.5-0.9
				c-1-2.6-1-5.2-0.6-7.9c0.1-0.5,0.3-1,0.5-1.4c2-3.6,2-3.6,5.2-6c0.4-0.3,0.8-0.6,1.2-0.9c0.3-0.2,0.5-0.5,0.8-0.5
				c2.6-0.7,5.1-1.8,7.9-1.3c2,0.4,3.9,1,5.1,2.9c0.5,0.7,1.1,1.3,1.8,1.6c0.3,0.1,0.6,0.3,0.9,0.4c1.3,0.6,2.1,1.6,2.6,2.9
				c0.6,1.4,1.2,2.8,1.7,4.2c0.4,1.1,0.6,2.3,0.6,3.5c0,1.8-0.5,3.3-2.3,4.1c-0.5,0.2-0.9,0.4-1.3,0.7c-2.2,1.6-4.8,2.4-7.3,3.2
				C385.6,99.2,383.8,99.4,382,99.4z M382.5,97.3c2.3,0.1,4.4-0.6,6.3-1.5c1.7-0.8,3.3-1.7,4.9-2.5c0.3-0.2,0.6-0.3,0.9-0.5
				c0.7-0.5,1.2-1.1,1.2-2.1c0-1.2-0.2-2.3-0.8-3.4c-0.6-1-1.2-2-1.9-3c-0.4-0.6-0.9-1-1.5-1.2c-2.4-0.8-4.8-1.5-7.1-2.4
				c-1.4-0.5-2.6-0.1-3.8,0.6c-0.6,0.4-1.1,0.8-1.6,1.2c-1.8,1-3,2.6-3.9,4.5c-0.6,1.4-1.2,2.8-1.7,4.2c-0.1,0.3,0,0.6,0.1,1
				c0.9,1.9,2.3,3.2,4.2,4C379.3,96.8,380.9,97.3,382.5,97.3z"/>
			<path fill-rule="evenodd" clip-rule="evenodd" stroke="#FFFFFF" stroke-width="6" stroke-miterlimit="10" d="M503,79
				c0.1,3.2-1.4,5.8-3.6,8c-2.2,2.2-5.1,3.3-8,4c-2,0.4-4,0.7-6,0.7c-1.5,0-3-0.2-4.5-0.6c-1.5-0.3-2.9-0.9-4.3-1.4
				c-0.8-0.3-1.4-1-1.6-1.8c-0.3-1-0.5-2-0.7-2.9c-0.1-0.5-0.1-1,0.1-1.5c0.4-1.1,0.7-2.2,0.9-3.4c0-0.3,0.2-0.7,0.5-0.9
				c1.3-1.1,2.5-2.3,3.5-3.6c0.2-0.2,0.5-0.4,0.8-0.6c0.6-0.4,1.2-0.7,1.7-1.1c2.2-2.3,5.1-3.2,7.9-4.3c1.8-0.7,3.6-0.9,5.4-0.8
				c1.4,0.1,2.6,0.4,3.6,1.5c0.6,0.6,1.2,1.2,1.8,1.8C502.2,74,503.2,76.3,503,79z M500,79.8c0.1-1.4,0.1-1.9,0.1-2.4
				c0-1.1-0.3-2-1-2.7c-0.6-0.6-1.1-1.2-1.7-1.9c-0.6-0.6-1.4-0.9-2.2-1.1c-1-0.1-2-0.2-3,0c-1.8,0.3-3.5,1-5.2,1.7
				c-1.1,0.5-2.1,1.2-2.7,2.2c-0.8,1.5-2.1,2.6-3.1,4c-0.4,0.5-0.7,1.1-1,1.7c-0.1,0.3-0.2,0.7-0.1,1c0.8,1.7,1.9,3.2,3.1,4.5
				c0.2,0.2,0.5,0.4,0.8,0.6c1.3,0.8,2.8,1.1,4.2,1.5c0.3,0.1,0.7,0.1,1,0c1.1-0.2,2.3-0.5,3.4-0.8c1.3-0.3,2.5-1,3.4-2
				c0.9-0.9,1.8-2,2.7-2.9c0.7-0.8,1-1.7,1.1-2.8C500,79.9,500,79.4,500,79.8z"/>
			<path fill-rule="evenodd" clip-rule="evenodd" stroke="#FFFFFF" stroke-width="6" stroke-miterlimit="10" d="M466.6,79.4
				c0.2,3.7,0.2,7.4,1.1,11c0.1,0.5,0.1,1,0.1,1.5c-0.1,0.8-0.3,1.6-1.1,2.2c-0.5,0.3-1.5,0.1-1.8-0.4c-0.7-1.7-1.2-3.5-1.2-5.3
				c0-1.2-0.1-2.3-0.2-3.5c0-0.5-0.9-1.2-1.5-1.1c-0.2,0-0.3,0-0.5,0.1c-2.8,0.6-9.8,3.1-12.3,4.4c-1,0.5-1.6,1.8-1.3,3
				c0.1,0.5,0.3,1,0.4,1.4c0.5,1.7,0.1,2.5-1.5,3.2c-0.4,0.2-1.1-0.1-1.2-0.5c-0.7-2.1-0.9-4.3-0.7-6.4c0.1-2.2-0.2-4.4,0.2-6.5
				c0.1-0.5,0.1-1,0-1.5c-0.5-2-0.3-4-0.4-6c0-0.8,0.8-1.4,1.8-1.4c0.4,0,0.7,0.1,0.8,0.5c0.1,0.5,0.3,0.9,0.4,1.4
				c0.2,1.8-0.1,3.7,0.3,5.5c0.1,0.4,0.4,0.6,0.7,0.6c0.2,0,0.3,0.1,0.5,0.1c1.6-0.3,3.3-0.5,5-0.6c2-0.1,4-0.7,5.8-1.3
				c0.8-0.3,1.4-0.9,1.6-1.8c0.1-0.5,0.3-1,0.3-1.5c-0.1-1.7,0.3-3.3,0.9-4.9c0.3-0.6,0.4-1.3,0.6-1.9c0.2-0.5,0.7-0.7,1.2-0.8
				c0.6-0.1,1.3,0.4,1.5,1c0.4,1.1,0.6,2.3,0.5,3.5C466.5,75.4,466.6,77.4,466.6,79.4z"/>
			<path fill-rule="evenodd" clip-rule="evenodd" stroke="#FFFFFF" stroke-width="6" stroke-miterlimit="10" d="M346.8,134.4
				c-0.4,2.3,0.3,4.4,0.9,6.5c0.3,1.2,1.1,2.1,2,2.8c0.7,0.5,1.4,0.9,2.3,0.9c1.5,0,3.1,0.1,4.5-0.2c2-0.4,4-0.5,6-0.6
				c1.4,0,2.7-0.3,3.9-0.8c0.6-0.3,1.4,0.4,1.3,1.1c0,0.3,0,0.7-0.1,1c-0.2,0.9-1,1.6-1.7,1.6c-0.2,0-0.3,0-0.5,0
				c-5.1-0.1-10.1,0.2-15.1,0.9c-1.1,0.2-2-0.1-2.8-0.7c-1.1-0.8-2.2-1.5-3.3-2.3c-1.8-1.5-2.8-3.4-2.8-5.7c0-1.5,0.1-3,0.2-4.5
				c0.3-2.2,1.1-4.2,2.6-5.9c1.9-1.9,3.7-3.9,5.6-5.8c0.8-0.9,1.8-1.5,3-1.8c0.8-0.3,1.6-0.6,2.4-0.9c1-0.4,2-0.3,3-0.1
				c2.6,0.6,5.1,1.8,7.3,3.3c0.6,0.4,0.8,1,0.7,1.8c-0.1,0.7-0.9,1.2-1.5,0.9c-0.7-0.4-1.5-0.8-2.2-1.3c-1-0.6-2.1-1-3.3-1.3
				c-0.3-0.1-0.7-0.2-1-0.2c-2.8,0.2-5.3,0.9-7.4,2.9c-0.7,0.7-1.4,1.4-2.1,2.2C347.4,129.8,346.2,131.8,346.8,134.4z"/>
			<path fill-rule="evenodd" clip-rule="evenodd" stroke="#FFFFFF" stroke-width="6" stroke-miterlimit="10" d="M392.7,146.8
				c-0.9,0-1.2,0-1.5,0c-2.7,0.2-4.9-0.7-7-2.3c-0.9-0.7-1.8-1.5-2.5-2.4c-1-1.2-1.6-2.6-1.4-4.2c0.1-1,0.3-2,0.5-3
				c0.1-0.6,0.4-1.3,0.7-1.9c0.3-0.8,0.8-1.5,1.2-2.2c0.5-0.9,1-1.8,1.7-2.5c0.6-0.6,1.1-1.2,1.6-1.9c1.5-2.1,3.7-3.4,6-4.4
				c2.8-1.2,5.6-0.8,8.2,0.6c0.3,0.2,0.5,0.5,0.7,0.7c0.3,0.4,0.2,0.9-0.1,1.4c-0.2,0.3-0.5,0.4-0.9,0.3c-0.5-0.2-0.9-0.4-1.3-0.7
				c-1.9-1.2-3.8-1.1-5.7-0.1c-0.8,0.4-1.5,0.8-2.2,1.3c-0.4,0.3-0.8,0.6-1,1.1c-0.6,1.2-1.4,2.3-2.2,3.4c-0.8,1.1-1.2,2.4-1.2,3.8
				c-0.1,1.3-0.1,2.7,0.2,4c0.3,1.6,1,3.2,2.5,4.2c0.8,0.6,1.6,1.2,2.5,1.7c0.9,0.6,1.8,0.8,2.9,0.7c1-0.1,2-0.3,3-0.4
				c2.1-0.3,4.3-0.7,6.4-1c0.2,0,0.3,0,0.5,0c0.4,0,0.9,0.5,1,1c0,0.2,0,0.3,0,0.5c0,0.5-0.5,1.1-0.8,1.1
				C400.2,146,396.2,146.5,392.7,146.8z"/>
		</g>
		<g>
			<path fill-rule="evenodd" clip-rule="evenodd" d="M199.2,97c-0.1-1.1-0.1-2.5,0.2-3.8c0.1-0.5-0.1-1-0.1-1.5c-0.1-1-0.2-2,0-3
				c0.3-1.5,0-3-0.1-4.5c0-0.3-0.7-0.9-1.1-0.8c-0.7,0-1.3,0-2,0.1c-1.2,0.1-2.3,0.4-3.5,0.4c-2.2,0-4.3,0.6-6.4,1.1
				c-1.3,0.3-2.4,1.2-3.6,1.7c-0.3,0.1-0.7,0-1,0c-0.6-0.1-1.2-1-1-1.5c0.7-1.4,0.6-2.9,0.6-4.4c0-0.6,0.6-1.3,1.3-1.4
				c2-0.3,3.9-0.9,5.8-1.7c2.6-1.1,5.5-1.6,8.1-2.6c0.5-0.2,1-0.3,1.5-0.3c2.5-0.2,4.9-1,7.4-1.6c2.9-0.7,5.9-1.1,8.9-1.2
				c1,0,2,0,3,0c1.3,0,2.7-0.1,4-0.4c2-0.4,4-0.6,6-0.9c0.5-0.1,1.3,0.7,1.5,1.2c0.3,1.4,0.2,2.7-0.3,3.9c-0.3,0.8-0.8,1.5-1.3,2.1
				c-0.3,0.4-0.8,0.6-1.3,0.6c-0.7,0-1.3-0.2-2-0.1c-1.2,0-2.3,0.1-3.4,0.6c-2.6,1.2-5.4,1.8-8.2,2.2c-1.7,0.2-3.3,0.6-4.9,1
				c-0.3,0.1-0.6,0.4-0.7,0.7c-0.4,3.2-0.8,6.3-1.1,9.5c-0.1,0.7,0,1.3,0.2,2c0.5,1.3,0.7,2.6,0.9,3.9c0.4,2.1,0.9,4.3,1.6,6.3
				c0.5,1.2,0.7,2.6,1,3.9c0.1,0.4-0.5,1.4-1.1,1.6c-2.1,0.7-4.1,1.4-6.2,2.1c-0.7,0.2-1.3-0.1-1.8-0.6c-0.5-0.5-0.8-1.1-0.8-1.8
				c0-0.8,0.1-1.7,0.1-2.5c0-1.3,0-2.7-0.1-4c-0.1-1.5-0.3-3,0-4.5C199.3,98.2,199.2,97.7,199.2,97z"/>
			<path fill-rule="evenodd" clip-rule="evenodd" d="M276.1,152.7c-2.3,0-3.5,0-4.6,0c-0.8,0-1.7,0-2.5,0c-0.9-0.1-1.4-0.9-2.2-1.1
				c-0.8-0.3-1.6-0.5-2.4-0.8c-0.5-0.2-0.9-0.6-0.9-1.1c-0.1-1.5,0.1-3-0.2-4.5c-0.1-0.5,0.1-1,0.2-1.5c0.2-0.8,0.4-1.6,0.3-2.5
				c-0.2-1.5-0.1-3,0.4-4.5c0.2-0.5,0-1-0.1-1.5c-0.2-0.7-0.2-1.3,0.1-2c0.3-0.8,0.5-1.6,0.4-2.4c-0.3-1.7,0.3-3.3,0.6-5
				c0.1-0.5,0.6-0.8,1.1-1c0.3-0.1,0.6-0.2,1-0.3c2.3-0.2,4.7-0.7,7-1c2.4-0.3,4.6-0.8,6.8-1.8c2-0.9,4.1-1.4,6.3-1.5
				c1-0.1,1.8,0.8,1.7,2c0,0.2,0,0.3-0.1,0.5c-0.1,0.4-0.3,0.6-0.7,0.6c-0.5-0.1-1-0.1-1.5-0.3c-0.7-0.2-1.3-0.4-2-0.1
				c-1.6,0.6-3.3,0.7-4.8,1.4c-1,0.5-2.1,1.1-3.3,1.2c-2,0.3-3.9,1.1-5.9,1.2c-0.7,0-1.3,0.2-2,0.3c-0.3,0.1-0.9,0.8-0.9,1.1
				c0,2,0.1,4,0.8,6c0.2,0.6,0.9,1.1,1.5,1.1c3.5,0,7.1-0.2,10.5-1.1c1-0.2,2-0.4,3-0.5c0.9,0,1.6,0.1,2.4,0.6
				c0.8,0.6,1.7,1.1,2.5,1.6c1.6,1,2.1,3.6,1.6,5c-0.5,1.3-0.9,2.5-1.7,3.6c-1.4,2.1-2.7,4.2-4.1,6.4c-0.7,1-1.7,1.7-2.9,1.9
				c-0.5,0.1-1,0.2-1.5,0.1C278.3,152.9,276.7,152.7,276.1,152.7z M269.7,143.9C269.7,143.9,269.7,143.9,269.7,143.9
				c0.1,0.3,0.1,0.7,0.2,1c0,0.3,0.1,0.7,0.1,1c0,0.3,0.1,0.7,0.1,1c0.2,1.1,0.8,1.6,2.1,1.7c3.6,0.3,6.9-0.7,10.3-1.7
				c0.8-0.3,1.4-0.8,1.5-1.8c0.4-2.3,0-4.6-0.2-6.9c0-0.3-0.3-0.5-0.7-0.6c-1.5-0.5-2.9-0.7-4.4-0.1c-2.5,0.9-5.1,1.7-7.6,2.5
				c-0.5,0.2-0.9,0.4-1.3,0.7c-0.2,0.2-0.5,0.5-0.5,0.8C269.4,142.2,269.6,143.1,269.7,143.9z"/>
			<path fill-rule="evenodd" clip-rule="evenodd" d="M231.7,108.2c-1.2,0.1-2.3-0.2-3.3-0.8c-0.4-0.3-0.7-0.8-0.7-1.3
				c0-0.7-0.1-1.4,0-2c0.4-1.5,0.8-2.9,1-4.4c1-2.5,1.8-5.1,2.5-7.7c0-0.2,0.1-0.3,0.2-0.5c1.4-2.5,2.2-5.3,3.3-7.9
				c0.5-1.2,1-2.5,1.6-3.7c0.5-1,1.1-2,1.6-3.1c0.4-1,1.8-1.3,2.6-0.8c1.8,1.3,3.5,2.6,5.3,3.9c1.1,0.8,2,1.8,2.9,2.8
				c2.1,2.6,4.2,5.2,5.9,8.2c0.8,1.5,1.8,2.8,2.7,4.2c0.3,0.5,0.3,1,0.1,1.4c-1,1.8-2,3.5-3,5.2c-0.3,0.4-0.7,0.7-1.3,0.6
				c-0.5-0.1-0.9-0.5-1.1-1c-0.4-0.9-0.9-1.8-1.1-2.8c-0.3-2.2-1.5-4.1-2.2-6.1c-0.3-0.7-1.3-1.1-2.1-0.9c-0.5,0.1-1,0.3-1.5,0.4
				c-3.6,0.6-6.6,2.4-9.5,4.5c-0.5,0.4-1,0.9-1.4,1.4c-0.3,0.4-0.6,0.8-0.8,1.3c-0.6,2.1-0.8,4.3-0.6,6.5c0.1,0.7,0,1.3-0.3,2
				C232.3,107.9,232.1,108.1,231.7,108.2z M236.4,89.9c0.2,0,0.3,0.1,0.5,0.1c2.5-0.3,5-0.7,7.5-1c0.2,0,0.3-0.1,0.5-0.1
				c0.6-0.1,0.9-1.1,0.5-1.6c-1.5-2.1-3.4-3.7-5.4-5.2c-0.3-0.3-1.1-0.1-1.3,0.3c-0.8,1.8-1.7,3.6-2.5,5.5c-0.2,0.4-0.2,1-0.3,1.4
				C235.8,89.5,236,89.8,236.4,89.9z"/>
			<path fill-rule="evenodd" clip-rule="evenodd" d="M266.9,92.6c0-0.7-0.1-1.5-0.1-2.3c-0.2-3.2-0.1-6.4,0.2-9.5c0-0.3,0.6-1,1-1.1
				c1.5-0.3,3-0.4,4.5-0.3c0.3,0,0.6,0.2,0.9,0.5c0.2,0.2,0.5,0.6,0.4,0.9c-0.6,1.6-0.7,3.3-1.2,4.9c-0.6,1.8-0.6,3.6-0.8,5.5
				c0,0.4,0.7,1,1,0.8c0.2-0.1,0.3-0.1,0.5-0.2c1.3-0.4,2.2-1.6,3.4-2.2c1.2-0.6,2.5-1.1,3.6-1.8c1.1-0.7,2.1-1.6,3.2-2.4
				c0.8-0.6,1.6-1.3,2.5-1.6c1.6-0.6,3-1.5,4.4-2.4c0.4-0.3,0.9-0.3,1.5-0.2c0.3,0.1,0.6,0.4,0.6,0.7c-0.1,1-0.4,1.9-1.5,2.4
				c-3.4,1.8-6.4,4.3-9.4,6.7c-0.2,0.2-0.3,0.6-0.3,0.9c0,0.3,0,0.7,0.1,1c0.2,0.6,0.6,1.3,0.6,1.9c0.4,3.1,1.8,5.7,3.4,8.3
				c0.4,0.6,0.8,1.1,1.1,1.7c0.4,0.6,0.4,1.3,0,1.9c-0.2,0.4-0.5,0.8-0.8,1.2c0,0.1-0.3,0-0.4-0.1c-1.1-1.4-2.2-2.9-3.4-4.4
				c-0.5-0.7-1-1.4-1.5-2c-1-1.2-1.8-2.4-2.7-3.6c-1.3-2-2-2.1-3.9-0.2c-0.7,0.7-1.4,1.5-1.8,2.4c-0.4,0.9-0.8,1.8-1.3,2.7
				c-0.5,0.9-0.6,1.9-0.4,2.9c0.1,0.7-0.1,1.3-0.4,1.9c-0.2,0.5-1,1-1.6,1c-0.4,0-1.1-0.4-1.3-0.7c-0.4-1.1-0.9-2.2-0.7-3.4
				c0.5-2.5,0.2-5,0.3-7.5C266.8,95.4,266.6,94.1,266.9,92.6z"/>
			<path fill-rule="evenodd" clip-rule="evenodd" d="M334,76.5c0.1-1.9,0.2-2.8,0.3-3.6c0-0.3,0.7-1,1.1-1c3-0.2,6-0.8,9-1.3
				c1.5-0.2,3-0.4,4.5-0.4c2.9,0,5.7-0.2,8.6-0.3c1.8-0.1,3.7-0.2,5.5-0.6c0.8-0.2,1.7-0.1,2.5,0c0.9,0.1,1.6,0.8,1.6,1.6
				c0,0.8-0.7,1.7-1.5,1.8c-0.7,0.1-1.3,0.1-2,0.1c-3.5,0-7,0.3-10.5,1.1c-0.9,0.2-1.4,0.9-1.7,1.7c-0.1,0.2-0.1,0.3-0.1,0.5
				c-0.1,2.5-0.8,5-1.2,7.4c-0.3,1.8-0.6,3.6-0.5,5.5c0.1,2.4-0.3,4.7-0.6,7c-0.2,1.7-0.1,3.3,0.5,4.9c0.2,0.6,0.5,1.3,0.7,1.9
				c0.4,0.9,0.1,2-0.7,2.7c-0.1,0.1-0.3,0.2-0.4,0.2c-1.6,0.5-3.6-0.5-4.1-2c-0.1-0.2-0.1-0.3-0.1-0.5c0-1.7-0.2-3.4,0.1-5
				c0.2-1.5,0.4-3,0.6-4.5c0.2-1.2,0.3-2.3,0.2-3.5c0-0.7,0-1.4,0.2-2c0.5-1.6,0.5-3.3,0.7-5c0.2-1.8,0.1-3.7,0.7-5.5
				c-0.1-0.8-0.3-1.6-0.9-2.3c-0.1-0.1-0.3-0.2-0.4-0.2c-0.3,0-0.7,0.1-1,0.1c-1.6,0.5-3.2,1-4.8,1.4c-1.2,0.3-2.2,0.7-3.2,1.4
				c-0.3,0.2-0.6,0.4-0.9,0.5c-0.8,0.4-1.9-0.2-1.9-1C334,77,334,76.2,334,76.5z"/>
			<path fill-rule="evenodd" clip-rule="evenodd" d="M415.5,85.1c3.3,0.1,7.1-0.7,10.9-1.3c0.3,0,0.7-0.2,0.9-0.4
				c0.4-0.3,0.9-0.6,0.9-1.2c0.1-3,1.1-5.9,1-9c0-1.3,0.7-2.2,1.8-2.8c0.4-0.2,0.9-0.4,1.4-0.6c0.4-0.1,1.1,0.3,1.2,0.7
				c0.1,0.3,0.2,0.7,0.2,1c-0.1,1-0.1,2.1-0.5,3c-1.1,2.5-0.6,5.3-1.5,7.9c-0.1,3-0.5,6.1,0,9.1c0.5,2.7,0.5,5.3,0.4,8
				c0,1.2,0,2.3-0.1,3.5c0,0.3-0.3,0.6-0.6,0.8c-1.4,0.7-2.8,1.1-4.4,0.6c-0.8-0.2-1.6-1.2-1.3-1.9c0.4-0.9,0.5-1.9,0.8-2.9
				c1-3.1,0.8-6.3,0.7-9.5c0-0.2-0.1-0.3-0.1-0.5c-0.1-0.7-1-1.6-1.7-1.6c-0.7,0-1.4-0.1-2-0.1c-2.8,0.4-5.7,0.5-8.5,0.6
				c-2,0.1-4,0.3-6,0.5c-1.2,0.1-2.3-0.8-2.5-2c-0.1-0.5-0.2-1-0.2-1.5c0-0.7,0.1-1.3,0.2-2c0.1-1,0.3-2,0.5-3c0.3-2,0.3-4-0.5-6
				c-0.1-0.1,0-0.4,0-0.5c0.1-0.3,0.3-0.7,0.5-0.8c0.2-0.1,0.7-0.1,0.9,0c0.5,0.2,0.9,0.6,1,1.1c0.5,2.1,1,4.3,0.4,6.5
				c-0.3,1-0.2,2,0,3c0.1,0.4,0.6,1,1,1c0.5,0.1,1,0.2,1.5,0.2C412.9,85.3,413.9,85.2,415.5,85.1z"/>
			<path fill-rule="evenodd" clip-rule="evenodd" d="M320.9,143.6c-1,0.2-1.7,0.4-2.3,0.1c-1.4-0.6-3-0.6-4.5-0.5
				c-1.9,0.1-3.7-0.2-5.5-0.7c-0.8-0.2-1.5-0.6-2.2-1.2c-1-0.9-1.9-1.8-2.5-3.1c-0.6-1.4-0.9-2.9-0.7-4.4c0.1-1.2,0.3-2.3,0.7-3.4
				c0.5-1.3,1.4-2.3,2.6-2.9c0.6-0.3,1.3-0.4,1.9-0.7c1.1-0.4,2.3-0.6,3.3-1.1c2-0.9,4.2-1.2,6.3-1.4c1.9-0.2,3.7,0.2,5.5,0.5
				c0.3,0,0.6,0.2,0.9,0.4c2.5,1.6,5.1,3.3,7.6,5c1.3,0.9,2.2,2.1,2.9,3.4c0.7,1.1,0.6,2.6-0.2,3.8c-0.6,0.8-1.2,1.6-2.1,2.2
				c-1,0.6-2,1.3-3.1,1.7C326.7,142.2,323.9,143.7,320.9,143.6z M316.6,139.7c1.5-0.1,3-0.1,4.5-0.2c2-0.1,3.9-0.9,5.8-1.3
				c1.2-0.7,2.3-1.3,3.5-2c0.1-0.1,0.2-0.2,0.3-0.4c0.1-0.3,0.4-0.7,0.3-0.9c-0.5-1.6-1.4-3.1-2.7-4.2c-1.5-1.3-3.1-2.5-5-3.3
				c-1.7-1.4-3.6-1.5-5.7-1.2c-2,0.3-3.9,0.9-5.7,1.9c-0.4,0.2-0.8,0.5-1.2,0.9c-1,1.1-1.9,2.3-1.8,4c0.1,1.5-0.1,3-0.1,4.5
				c0,0.5,0.3,0.9,0.8,1.1c0.6,0.3,1.2,0.6,1.9,0.6C313.2,139.6,314.9,139.6,316.6,139.7z"/>
			<path fill-rule="evenodd" clip-rule="evenodd" d="M382,99.4c-1-0.1-1.8-0.1-2.6-0.2c-0.7-0.1-1.3-0.3-1.9-0.6
				c-0.7-0.4-1.4-1-2.2-1.2c-2-0.5-3-2-4.3-3.3c-0.2-0.2-0.3-0.6-0.5-0.9c-1-2.6-1-5.2-0.6-7.9c0.1-0.5,0.3-1,0.5-1.4
				c2-3.6,2-3.6,5.2-6c0.4-0.3,0.8-0.6,1.2-0.9c0.3-0.2,0.5-0.5,0.8-0.5c2.6-0.7,5.1-1.8,7.9-1.3c2,0.4,3.9,1,5.1,2.9
				c0.5,0.7,1.1,1.3,1.8,1.6c0.3,0.1,0.6,0.3,0.9,0.4c1.3,0.6,2.1,1.6,2.6,2.9c0.6,1.4,1.2,2.8,1.7,4.2c0.4,1.1,0.6,2.3,0.6,3.5
				c0,1.8-0.5,3.3-2.3,4.1c-0.5,0.2-0.9,0.4-1.3,0.7c-2.2,1.6-4.8,2.4-7.3,3.2C385.6,99.2,383.8,99.4,382,99.4z M382.5,97.3
				c2.3,0.1,4.4-0.6,6.3-1.5c1.7-0.8,3.3-1.7,4.9-2.5c0.3-0.2,0.6-0.3,0.9-0.5c0.7-0.5,1.2-1.1,1.2-2.1c0-1.2-0.2-2.3-0.8-3.4
				c-0.6-1-1.2-2-1.9-3c-0.4-0.6-0.9-1-1.5-1.2c-2.4-0.8-4.8-1.5-7.1-2.4c-1.4-0.5-2.6-0.1-3.8,0.6c-0.6,0.4-1.1,0.8-1.6,1.2
				c-1.8,1-3,2.6-3.9,4.5c-0.6,1.4-1.2,2.8-1.7,4.2c-0.1,0.3,0,0.6,0.1,1c0.9,1.9,2.3,3.2,4.2,4C379.3,96.8,380.9,97.3,382.5,97.3z"
				/>
			<path fill-rule="evenodd" clip-rule="evenodd" d="M503,79c0.1,3.2-1.4,5.8-3.6,8c-2.2,2.2-5.1,3.3-8,4c-2,0.4-4,0.7-6,0.7
				c-1.5,0-3-0.2-4.5-0.6c-1.5-0.3-2.9-0.9-4.3-1.4c-0.8-0.3-1.4-1-1.6-1.8c-0.3-1-0.5-2-0.7-2.9c-0.1-0.5-0.1-1,0.1-1.5
				c0.4-1.1,0.7-2.2,0.9-3.4c0-0.3,0.2-0.7,0.5-0.9c1.3-1.1,2.5-2.3,3.5-3.6c0.2-0.2,0.5-0.4,0.8-0.6c0.6-0.4,1.2-0.7,1.7-1.1
				c2.2-2.3,5.1-3.2,7.9-4.3c1.8-0.7,3.6-0.9,5.4-0.8c1.4,0.1,2.6,0.4,3.6,1.5c0.6,0.6,1.2,1.2,1.8,1.8C502.2,74,503.2,76.3,503,79z
				 M500,79.8c0.1-1.4,0.1-1.9,0.1-2.4c0-1.1-0.3-2-1-2.7c-0.6-0.6-1.1-1.2-1.7-1.9c-0.6-0.6-1.4-0.9-2.2-1.1c-1-0.1-2-0.2-3,0
				c-1.8,0.3-3.5,1-5.2,1.7c-1.1,0.5-2.1,1.2-2.7,2.2c-0.8,1.5-2.1,2.6-3.1,4c-0.4,0.5-0.7,1.1-1,1.7c-0.1,0.3-0.2,0.7-0.1,1
				c0.8,1.7,1.9,3.2,3.1,4.5c0.2,0.2,0.5,0.4,0.8,0.6c1.3,0.8,2.8,1.1,4.2,1.5c0.3,0.1,0.7,0.1,1,0c1.1-0.2,2.3-0.5,3.4-0.8
				c1.3-0.3,2.5-1,3.4-2c0.9-0.9,1.8-2,2.7-2.9c0.7-0.8,1-1.7,1.1-2.8C500,79.9,500,79.4,500,79.8z"/>
			<path fill-rule="evenodd" clip-rule="evenodd" d="M466.6,79.4c0.2,3.7,0.2,7.4,1.1,11c0.1,0.5,0.1,1,0.1,1.5
				c-0.1,0.8-0.3,1.6-1.1,2.2c-0.5,0.3-1.5,0.1-1.8-0.4c-0.7-1.7-1.2-3.5-1.2-5.3c0-1.2-0.1-2.3-0.2-3.5c0-0.5-0.9-1.2-1.5-1.1
				c-0.2,0-0.3,0-0.5,0.1c-2.8,0.6-9.8,3.1-12.3,4.4c-1,0.5-1.6,1.8-1.3,3c0.1,0.5,0.3,1,0.4,1.4c0.5,1.7,0.1,2.5-1.5,3.2
				c-0.4,0.2-1.1-0.1-1.2-0.5c-0.7-2.1-0.9-4.3-0.7-6.4c0.1-2.2-0.2-4.4,0.2-6.5c0.1-0.5,0.1-1,0-1.5c-0.5-2-0.3-4-0.4-6
				c0-0.8,0.8-1.4,1.8-1.4c0.4,0,0.7,0.1,0.8,0.5c0.1,0.5,0.3,0.9,0.4,1.4c0.2,1.8-0.1,3.7,0.3,5.5c0.1,0.4,0.4,0.6,0.7,0.6
				c0.2,0,0.3,0.1,0.5,0.1c1.6-0.3,3.3-0.5,5-0.6c2-0.1,4-0.7,5.8-1.3c0.8-0.3,1.4-0.9,1.6-1.8c0.1-0.5,0.3-1,0.3-1.5
				c-0.1-1.7,0.3-3.3,0.9-4.9c0.3-0.6,0.4-1.3,0.6-1.9c0.2-0.5,0.7-0.7,1.2-0.8c0.6-0.1,1.3,0.4,1.5,1c0.4,1.1,0.6,2.3,0.5,3.5
				C466.5,75.4,466.6,77.4,466.6,79.4z"/>
			<path fill-rule="evenodd" clip-rule="evenodd" d="M346.8,134.4c-0.4,2.3,0.3,4.4,0.9,6.5c0.3,1.2,1.1,2.1,2,2.8
				c0.7,0.5,1.4,0.9,2.3,0.9c1.5,0,3.1,0.1,4.5-0.2c2-0.4,4-0.5,6-0.6c1.4,0,2.7-0.3,3.9-0.8c0.6-0.3,1.4,0.4,1.3,1.1
				c0,0.3,0,0.7-0.1,1c-0.2,0.9-1,1.6-1.7,1.6c-0.2,0-0.3,0-0.5,0c-5.1-0.1-10.1,0.2-15.1,0.9c-1.1,0.2-2-0.1-2.8-0.7
				c-1.1-0.8-2.2-1.5-3.3-2.3c-1.8-1.5-2.8-3.4-2.8-5.7c0-1.5,0.1-3,0.2-4.5c0.3-2.2,1.1-4.2,2.6-5.9c1.9-1.9,3.7-3.9,5.6-5.8
				c0.8-0.9,1.8-1.5,3-1.8c0.8-0.3,1.6-0.6,2.4-0.9c1-0.4,2-0.3,3-0.1c2.6,0.6,5.1,1.8,7.3,3.3c0.6,0.4,0.8,1,0.7,1.8
				c-0.1,0.7-0.9,1.2-1.5,0.9c-0.7-0.4-1.5-0.8-2.2-1.3c-1-0.6-2.1-1-3.3-1.3c-0.3-0.1-0.7-0.2-1-0.2c-2.8,0.2-5.3,0.9-7.4,2.9
				c-0.7,0.7-1.4,1.4-2.1,2.2C347.4,129.8,346.2,131.8,346.8,134.4z"/>
			<path fill-rule="evenodd" clip-rule="evenodd" d="M392.7,146.8c-0.9,0-1.2,0-1.5,0c-2.7,0.2-4.9-0.7-7-2.3
				c-0.9-0.7-1.8-1.5-2.5-2.4c-1-1.2-1.6-2.6-1.4-4.2c0.1-1,0.3-2,0.5-3c0.1-0.6,0.4-1.3,0.7-1.9c0.3-0.8,0.8-1.5,1.2-2.2
				c0.5-0.9,1-1.8,1.7-2.5c0.6-0.6,1.1-1.2,1.6-1.9c1.5-2.1,3.7-3.4,6-4.4c2.8-1.2,5.6-0.8,8.2,0.6c0.3,0.2,0.5,0.5,0.7,0.7
				c0.3,0.4,0.2,0.9-0.1,1.4c-0.2,0.3-0.5,0.4-0.9,0.3c-0.5-0.2-0.9-0.4-1.3-0.7c-1.9-1.2-3.8-1.1-5.7-0.1c-0.8,0.4-1.5,0.8-2.2,1.3
				c-0.4,0.3-0.8,0.6-1,1.1c-0.6,1.2-1.4,2.3-2.2,3.4c-0.8,1.1-1.2,2.4-1.2,3.8c-0.1,1.3-0.1,2.7,0.2,4c0.3,1.6,1,3.2,2.5,4.2
				c0.8,0.6,1.6,1.2,2.5,1.7c0.9,0.6,1.8,0.8,2.9,0.7c1-0.1,2-0.3,3-0.4c2.1-0.3,4.3-0.7,6.4-1c0.2,0,0.3,0,0.5,0c0.4,0,0.9,0.5,1,1
				c0,0.2,0,0.3,0,0.5c0,0.5-0.5,1.1-0.8,1.1C400.2,146,396.2,146.5,392.7,146.8z"/>
		</g>
	</g>
	<path fill-rule="evenodd" clip-rule="evenodd" fill="#FFFFFF" d="M114.4,31.8c-0.5,0.2-1,0.3-1.5,0.5c-0.7,0.3-1.5,0.6-2.3,0.6
		c-0.6,0-1.2,0.2-1.7,0.4c-0.6,0.2-1.1,0.4-1.4,1c-0.1,0.2-0.1,0.4-0.3,0.5c-0.9,0.9-1.8,1.9-2.7,2.8c-0.4,0.4-1,0.7-1.5,0.9
		c-0.8,0.4-1.5,0.9-2.2,1.5c-1.1,1.1-2.5,1.6-4,1.7c-1.8,0.1-3.6,0-5.3-0.5c-1-0.3-2.1-0.7-3-1.3c-0.9-0.6-1.8-0.8-2.8-0.8
		c-0.6,0-1.2,0-1.8,0.1c-2.7,0.2-5.4,0.1-8.1-0.2c-0.7-0.1-1.4,0-2.1,0.1c-0.7,0.1-1.4,0.3-2.1,0.3c-1.8,0-3.5,0.5-5.3,1
		c-1,0.3-1.9,0.5-2.9,0.7c-0.8,0.2-1.6,0.3-2.4,0.3c-1,0.1-2,0.2-3,0.3c-1.7,0.2-3.3,0.5-4.9,1.3c-0.4,0.2-0.7,0.3-1.1,0.4
		c-0.6,0.2-1.2,0-1.6-0.4c-0.7-0.6-1.1-1.4-1.4-2.2c-0.3-0.9-0.6-1.9-0.4-2.9c0.2-1.4,0.3-2.8,0.8-4.1c0.2-0.5,0.4-0.9,0.5-1.4
		c0.3-1.1,0.8-2,1.5-2.9c0.1-0.1,0.2-0.3,0.3-0.5c1.3-2.3,3.2-4.1,5.2-5.7c1-0.8,2.1-1.6,3.2-2.2c0.7-0.4,1.4-0.8,2.2-1
		c0.6-0.1,1.2-0.3,1.7-0.5c1.1-0.4,2.3-0.5,3.5-0.4c2.3,0.2,4.8,0.5,6.4,1.2c0.3,0.1,0.6,0.2,0.8,0.4c0.5,0.3,0.9,0.7,0.8,1.5
		c-0.1,0.4,0.2,0.6,0.4,0.7c0.3,0,0.6-0.2,0.8-0.4c0.1-0.1,0.1-0.1,0.2-0.2c0.1-0.1,0.1-0.2,0.1-0.3c0.1-0.2,0.1-0.4,0.2-0.6
		c0.5-2,1.6-3.6,2.8-5.2c0.8-1,1.8-1.8,2.9-2.5c1.2-0.7,2.3-1.5,3.5-2.3c2-1.4,4.1-2.4,6.4-3.1c0.8-0.3,1.5-0.5,2.3-0.5
		c0.9,0,1.8-0.2,2.6-0.5C98.2,7.1,98.6,7,99,6.9c4.4-1.1,4.5-1.1,8.9-1.2c2.4-0.1,4.8,0.2,7.1,0.9c1.1,0.3,2.3,0.6,3.4,1.2
		c0.9,0.5,1.8,0.7,2.8,1.1c0.8,0.3,1.7,0.7,2.5,1.1c1.7,1,3.5,2,5.2,2.9c0.3,0.2,0.7,0.4,1,0.7c1.3,1.1,2.5,2.2,3.7,3.4
		c1,1,1.9,2.1,2.7,3.2c0.3,0.4,0.5,0.8,0.9,1.2c0.8,0.9,1.3,2,1.7,3.1c0.4,1.1,0.6,2.3,0.9,3.5c0.2,0.9,0.1,1.8,0,2.7
		c-0.1,0.5-0.4,0.9-0.9,1c-0.3,0-0.6,0.1-0.8,0.3c-0.1,0.1-0.1,0.1-0.2,0.2c-0.1,0.2,0,0.4,0.2,0.5c0.3,0.2,0.7,0.3,1.1,0.4
		c1,0.1,1.9,0.5,2.8,0.9c2,0.9,4,1.8,5.8,3.1c0.3,0.2,0.7,0.4,1.1,0.5c0.8,0.3,1.6,0.8,2.3,1.4c1,0.8,1.9,1.7,3.1,2.3
		c0.6,0.6,1.2,1.3,2,1.8c0.7,0.5,1.5,1,2.1,1.6c1.1,1.2,2.1,2.4,3.2,3.6c1.3,1.4,2.2,3,3,4.8c0.3,0.5,0.5,1.1,0.6,1.7
		c0.7,2.4,1.4,4.8,2.1,7.2c0.4,1.5,0.7,3.1,0.8,4.7c0.2,3.3,0.4,6.6,0.1,9.9c0,0.6,0,1.2,0.1,1.8c0.1,1,0,2-0.1,3
		c-0.1,0.7-0.2,1.4-0.4,2.1c-0.3,1.2-0.6,2.3-0.8,3.5c-0.4,2.8-1.4,5.4-2.4,8c-0.4,1.1-1.1,2.1-1.7,3.2c-0.1,0.2-0.4,0.4-0.6,0.7
		c-0.6,0.6-1.3,1-2,1.3c-0.4,0.2-0.7,0.2-1.1,0c-0.8-0.4-1.6-0.9-2.4-1.3c-0.2-0.1-0.4-0.1-0.6-0.2c-0.2-0.1-0.7,0.1-0.8,0.3
		c-0.1,0.2,0,0.7,0.2,0.8c0.3,0.2,0.6,0.5,1,0.7c0.9,0.4,1.6,1.1,2.4,1.8c0.7,0.7,1.4,1.4,1.9,2.3c0.9,1.6,1.8,3.1,2.8,4.6
		c0.4,0.6,0.7,1.2,0.8,1.9c0.2,0.9,0.5,1.7,0.7,2.6c0.3,0.9,0.4,1.7,0.5,2.6c0,0.6,0.1,1.2,0.2,1.8c0.5,2.2,0.4,4.4,0.4,6.5
		c0,0.3,0,0.6-0.1,0.9c-0.4,1.5-0.4,3.2-0.7,4.7c-0.2,1.5-0.3,3-0.9,4.4c-0.1,0.4-0.1,0.8-0.2,1.2c-0.1,0.3-0.1,0.6-0.2,0.9
		c-1.1,2.8-2.2,5.5-3.8,8.1c-0.3,0.5-0.7,1-0.9,1.6c-0.3,1-0.9,1.7-1.5,2.6c-0.9,1.4-1.9,2.8-3.1,4c-0.6,0.6-1.2,1.3-1.7,2.1
		c-0.9,1.2-1.9,2.3-2.8,3.5c-1.1,1.3-2.4,2.4-3.8,3.3c-2.2,1.5-4.4,3-6.8,4.3c-0.2,0.1-0.4,0.2-0.5,0.3c-1.1,0.9-2.4,1.4-3.7,1.8
		c-1.9,0.6-3.8,1.2-5.7,1.9c-0.8,0.3-1.6,0.3-2.4,0.3c-0.8,0-1.6,0-2.4,0c-1.6,0-3.2,0-4.8-0.3c-0.6-0.1-1.2-0.2-1.8-0.2
		c-1.5,0-2.9-0.5-4.4-0.8c-0.4-0.1-0.7-0.3-1.1-0.5c-0.5-0.3-0.9-0.7-1.4-1c-0.5-0.3-1.1-0.5-1.6-0.8c-0.9-0.7-1.8-0.7-2.8-0.8
		c-0.2,0-0.4,0.1-0.5,0.2s-0.3,0.3-0.4,0.5c-0.1,0.3,0.1,0.7,0.3,0.8c0.4,0.2,0.7,0.4,1.1,0.4c0.8,0.2,1.5,0.5,2.2,0.8
		c1.3,0.6,1.3,0.9,1.2,2.4c0,0.2-0.1,0.4-0.2,0.6c-0.7,1-1.3,2-2,3c-0.2,0.2-0.4,0.5-0.6,0.6c-0.4,0.3-0.8,0.6-1.1,1
		c-0.2,0.3-0.6,0.6-0.9,0.8c-0.8,0.4-1.6,0.9-2.4,1.2c-1.3,0.5-2.6,1.1-3.8,1.7c-1.2,0.6-2.4,1-3.7,1.2c-1.2,0.2-2.4,0.4-3.5,0.6
		c-0.5,0.1-1,0.1-1.5,0.1c-3.2,0.1-6.4,0.2-9.6,0.5c-0.4,0-0.8,0-1.2,0c-1.9-0.1-3.8-0.2-5.7-0.3c-0.4,0-0.8,0-1.2-0.1
		c-1.5-0.3-3-0.4-4.5-0.4c-0.7,0-1.4-0.1-2.1-0.2c-1.3-0.2-2.5-0.5-3.9-0.5c-0.6,0-1.2-0.2-1.7-0.5c-0.9-0.4-1.9-0.6-2.9-0.7
		c-2-0.2-3.9-0.8-5.8-1.3c-0.4-0.1-0.7-0.3-1.1-0.4c-0.5-0.2-0.9-0.5-1.4-0.6c-2.1-0.6-4.1-1.6-6-2.7c-1.4-0.8-2.8-1.6-4.3-2.1
		c-2.4-0.9-4.4-2.2-6.4-3.8c-0.6-0.4-1.1-0.9-1.7-1.3c-1.6-1.1-2.8-2.5-3.9-4.1c-0.2-0.2-0.3-0.5-0.4-0.8c-0.2-0.4-0.4-0.9-0.7-1.3
		c-0.8-1-1.3-2.3-1.7-3.5c-0.3-0.9-0.5-1.9-0.7-2.9c-0.2-1.3-0.4-2.6-0.5-3.9c-0.1-0.9,0-1.8,0-2.7c0-0.2-0.2-0.3-0.4-0.4
		c-0.1,0-0.2-0.1-0.3,0c-0.2,0.2-0.5,0.4-0.5,0.7c-0.2,0.9-0.3,1.8-0.1,2.7c0.2,1,0,1.1-1,1.5c-0.8,0.3-1.5,0.5-2.3,0.8
		c-0.5,0.2-1,0.1-1.4-0.1c-0.7-0.4-1.4-0.8-2-1.3c-0.5-0.4-0.9-0.8-1.2-1.3c-0.4-0.7-0.9-1.3-1.5-1.8c-0.4-0.3-0.7-0.7-1.1-1
		c-1.6-1.7-2.9-3.5-3.4-5.9c-0.4-0.8-0.7-1.6-0.7-2.6c0-0.3-0.1-0.6-0.2-0.9c-0.8-1.3-0.9-2.8-1.3-4.3c-0.4-1.3-0.7-2.7-0.7-4.1
		c0-1-0.3-2-0.2-3c0-0.3-0.2-0.6-0.2-0.9c0-0.3-0.1-0.6,0-0.9c0.3-0.8,0.4-1.5,0.5-2.3c0.1-0.8,0.4-1.5,0.5-2.3
		c0.1-1,0.5-1.9,0.8-2.9c0.5-1.3,1.1-2.6,1.6-3.8c0.3-0.7,0.7-1.4,1.1-2.1c0.7-1.1,1.4-2.2,2.1-3.2c0.5-0.8,1.1-1.4,1.9-1.8
		c0.2-0.1,0.3-0.2,0.5-0.3c1.3-0.8,1.3-0.7,2.7-1.1c1.4-0.4,2.8-0.1,4,0.5c0.2,0.1,0.5,0.4,0.6,0.6c0.7,1.3,1.4,2.6,2.1,4
		c0.2,0.4,0.4,0.7,0.6,1c0.3,0.4,0.7,0.7,1.2,0.9c0.5,0.2,1.1-0.2,1.1-0.7c0-0.1,0-0.2,0-0.3c-0.3-0.4-0.5-0.8-0.8-1.2
		c-0.4-0.6-1-1-1.3-1.6c-0.3-0.6-0.5-1.3-0.7-2c0-0.1-0.1-0.2-0.1-0.3c-0.3-0.7-0.8-1.4-1-2.2c-0.3-1.7-0.6-3.3-1-5
		c0-1.5-0.3-3-0.1-4.5c0.1-0.6,0.1-1.2,0.1-1.8c0-1.7,0.5-3.3,1.2-4.9c0.9-1.9,2.1-3.6,3.5-5.2c0.8-0.9,1.6-1.8,2.4-2.6
		c1.2-1.3,2.6-2.4,4-3.6c0.2-0.2,0.5-0.3,0.8-0.5c0.9-0.5,1.8-0.9,2.7-1.2c0.3-0.1,0.6-0.2,0.9,0c1.5,0.8,3.1,1.2,4.8,1.6
		c0.5,0.1,1,0.3,1.4,0.5c1.3,0.5,2.6,0.9,4,1.2c1.3,0.3,2.5,0.6,3.7,1.1c1.1,0.5,2.3,0.6,3.4,1c0.9,0.3,1.9,0.5,2.9,0.3
		c0.5-0.1,1,0,1.5,0.2c0.3,0.1,0.6,0.2,0.9,0.3c2.7,0.6,3.7,0.8,6.5,0.9c0.3,0,0.6,0,0.9,0c3.3-0.3,6.6-0.4,9.8-0.6
		c2-0.1,3.9-0.6,5.8-1.3c0.8-0.3,1.7-0.7,2.3-1.3c0.9-0.8,1.9-1.5,2.9-2.1c1.9-1.2,3.3-2.9,4.3-4.9c1.3-2.6,2.5-5.2,3.6-7.9
		c0.8-1.9,1.1-3.8,1.6-5.8c0.1-0.6,0.1-1.2,0.1-1.8c-0.1-1.1-0.2-2.2-0.1-3.3c0.1-1.2-0.2-2.4-0.4-3.6c-0.3-1.6-0.6-3.1-1.1-4.6
		c-0.1-0.2,0.2-0.7,0.3-0.8c0.5-0.2,0.9-0.4,1.4-0.6c1.6-0.5,3.2-1.1,4.7-2c0.5-0.3,1.1-0.5,1.7-0.5c0.5,0,1-0.1,1.5-0.2
		c1.1-0.3,2.2,0.1,3.3,0.2c0.2,0,0.4,0.1,0.6,0.2c0.5,0.3,1.1,0.5,1.6,0.8c1.2,0.6,2.1,1.4,2.8,2.6c0.4,0.8,1,1.5,1.3,2.3
		c0.3,1,1,1.7,1.6,2.5c0.3,0.3,0.6,0.5,1,0.5c1.1,0.2,2.2,0,3.2-0.5c0.3-0.2,0.7-0.5,1-0.6c0.9-0.4,1.7-1,2.3-1.8
		c0.6-0.8,1.4-1.4,2.1-2.1c0.6-0.7,1.3-1.2,2.2-1.6c0.6-0.2,1-0.7,1.4-1.1c0.4-0.5,0.2-1.5-0.4-1.8c-0.7-0.5-1.7-0.7-2.3-1.4
		c-1.3-0.6-2.3-1.6-3.3-2.5c-1.5-1.3-3.3-2.3-4.9-3.4c-0.8-0.5-1.8-0.9-2.8-1.1C115.7,32,115,31.9,114.4,31.8z"/>
	<path fill-rule="evenodd" clip-rule="evenodd" fill="#FFFFFF" d="M83.4,41.8c0.3-0.1,0.7-0.3,1.1-0.4c1-0.3,2-0.2,2.9,0.1
		c1.3,0.4,2.6,1.1,3.8,1.7c0.4,0.2,0.7,0.4,1,0.7c0.2,0.2,0.5,0.4,0.7,0.6c1.6,1.8,1.9,1.2,2.2,4.4c0.2,1.8,0.5,3.5,0.6,5.3
		c0.1,1.5,0.1,3-0.1,4.5c0,0.3-0.1,0.6-0.1,0.9c-0.5,1.7-0.9,3.5-1.4,5.2c-0.2,0.7-0.4,1.3-0.8,1.9c-0.3,0.4-0.5,0.9-0.6,1.4
		c-0.2,0.9-0.9,1.5-1.3,2.4c-0.3,0.8-0.9,1.3-1.5,1.9c-0.6,0.6-1.2,1.3-1.8,2c-0.4,0.5-0.9,0.8-1.4,1c-1,0.4-1.9,1-2.8,1.7
		c-1,0.9-2.2,1.4-3.4,1.7c-1.2,0.3-2.3,0.6-3.5,0.9c-0.4,0.1-0.8,0.2-1.2,0.2c-1,0-2,0.1-3,0.3c-0.2,0-0.4,0.1-0.6,0.1
		c-2.2-0.1-4.4,0.1-6.6,0.1c-1.7,0-3.4-0.3-5-0.6c-0.6-0.1-1.1-0.4-1.6-0.7c-0.6-0.4-1.1-0.8-1.7-1.2c-0.3-0.2-0.6-0.5-0.8-0.8
		c-0.2-0.2-0.3-0.5-0.5-0.7c-1.1-1.3-1.5-2.8-1.6-4.4c-0.1-1.1-0.1-2.2,0.2-3.3c0.2-0.7,0.2-1.4,0-2.1c-0.1-0.3-0.1-0.6,0-0.9
		c0.5-3,0.9-6.1,1.4-9.1c0.1-0.6,0.3-1.2,0.5-1.7c0.2-0.5,0.4-0.9,0.7-1.3c1.7-2.2,3.7-4.2,5.8-6c0.3-0.3,0.6-0.5,1-0.7
		c2-1.1,3.9-2.3,6.1-3c1.1-0.3,2.2-0.9,3.4-1.2c1.1-0.3,2.3-0.4,3.5-0.5c0.4,0,0.8-0.1,1.2-0.2c1-0.3,2-0.3,2.9-0.4
		C82,41.1,82.7,41.4,83.4,41.8z"/>
	<path fill-rule="evenodd" clip-rule="evenodd" fill="#FFFFFF" d="M32.5,63.7c0-0.5,0.1-1,0.1-1.5c0-0.9,0.2-1.8,0.6-2.6
		c0.3-0.6,0.5-1.3,0.8-1.9c0.8-2.1,2-3.9,3.5-5.5c1.3-1.4,2.9-2.5,4.4-3.5c0.9-0.6,1.9-1,3.1-1c0.8,0,1.6-0.3,2.4-0.2
		c1.6,0.3,3.2,0.2,4.7,0.7c1.1,0.4,2.3,0.6,3.4,1.1c0.4,0.2,0.9,0.4,1.3,0.8c0.2,0.2,0.3,0.6,0.2,0.8c-0.1,0.2-0.2,0.4-0.3,0.5
		c-1,1-1.4,2.4-2.1,3.6c-0.1,0.2-0.1,0.4-0.2,0.6c-0.4,2.5-1,4.9-1.1,7.4c0,0.3-0.1,0.6-0.2,0.8c-0.4,0.7-0.8,1.4-1.2,2
		c-0.3,0.5-0.8,0.9-1.4,1.1c-0.8,0.2-1.5,0.4-2.3,0.7c-0.9,0.3-1.7,0.5-2.6,0.8c-1.1,0.4-2.3,0.7-3.5,0.8c-0.6,0.1-1.2,0.2-1.7,0.4
		c-0.3,0.1-0.6,0.2-0.9,0.2c-1.2,0.1-2.4,0.1-3.5-0.5c-0.7-0.4-1.4-0.7-2.1-1.2c-0.5-0.4-0.8-0.9-1.1-1.4c-0.2-0.6-0.4-1.1-0.4-1.7
		C32.5,64.5,32.5,64.1,32.5,63.7C32.5,63.7,32.5,63.7,32.5,63.7z"/>
	<path fill-rule="evenodd" clip-rule="evenodd" d="M122.9,98.4c0.1,0,0.2,0.1,0.3,0c0.8-0.2,1.5-0.5,2.3-0.5
		c0.9-0.1,1.8-0.3,2.7-0.4c0.8-0.1,1.6-0.1,2.4-0.1c0.9-0.1,1.8,0,2.7-0.2c1.2-0.2,2.4-0.2,3.5,0.2c1.1,0,1.8,0.6,2.5,1.4
		c0.4,0.4,0.6,0.8,0.7,1.3c0.3,1.4,0.6,2.7,0.7,4.1c0.1,1.9,0.4,3.8,0.7,5.6c0.1,0.4,0.1,0.8,0.2,1.2c0.4,3.8,1.2,7.5,2,11.2
		c0.5,1.4,0.5,2.9,0.5,4.4c0,0.3-0.1,0.6-0.3,0.8c-0.6,0.7-1.2,1.3-2,1.7c-0.2,0.1-0.4,0.1-0.5,0.3c-0.7,0.8-1.7,0.9-2.7,0.9
		c-1,0-2,0.1-3,0c-0.9,0-1.5,0.5-2,1.1s-0.8,1.4-1.2,2.1c-0.1,0.3-0.1,0.6-0.2,0.9c-0.1,1.6,0,3.2,0.6,4.7c0.1,0.4-0.1,0.8-0.5,0.9
		c-0.5,0.1-0.9,0.3-1.4,0.4c-0.3,0.1-0.6,0.1-0.9,0.1c-0.6,0.1-1,0.5-1,1.2c0,0.4-0.1,0.8-0.1,1.2c0.2,0.8-0.2,1.6-0.5,2.3
		c-0.2,0.4-0.5,0.6-0.9,0.8c-0.6,0.2-1.1,0.4-1.7,0.5c-0.9,0.1-1.8,0.1-2.7,0.2c-1.9,0.3-3.7,0.7-5.5,1.2c-2.4,0.7-4.9,1-7.3,1.6
		c-0.7,0.2-1.4,0-2.1,0.2c-1.4,0.5-2.9,0.5-4.4,0.7c-0.7,0.1-1.4,0.2-2.1,0.3c-2.8,0.5-5.7,1-8.5,1.6c-1,0.2-1.9,0.5-2.9,0.7
		c-1,0.2-1.9,0.6-2.8,1.1c-0.4,0.2-0.9,0.4-1.4,0.5c-0.5,0.2-1.2-0.2-1.4-0.8c-0.3-0.8-0.5-1.5-0.3-2.3c0.2-1,0.1-2,0.6-2.9
		c0.1-0.2,0.1-0.6,0.1-0.9c0-0.7,0.2-1.4,0.6-2c0.4-0.5,0.5-1.1,0.5-1.7c0.1-1.4,0.1-2.8,0.1-4.2c0-0.8,0-1.6,0.1-2.4
		c0-0.2,0.1-0.4,0-0.6c-0.4-1.3-0.1-2.6-0.5-3.8c-0.1-0.3-0.2-0.6-0.1-0.9c0.3-0.8,0.1-1.6-0.3-2.3c-0.3-1.6-0.9-3-1.1-4.6
		c0-0.4-0.1-0.8-0.3-1.2c-0.4-1.3-0.3-2.6-0.4-3.8c0-0.5,0.1-1,0.3-1.5c0.4-1,0.4-1.9,0-2.9c-0.1-0.4-0.2-0.8-0.3-1.2
		c-0.2-1.2,0-2.4,0.4-3.5c0.1-0.3,0.2-0.5,0.4-0.8c0.4-0.6,0.8-1.1,1.2-1.7c0.3-0.4,0.7-0.7,1.2-0.8c0.8-0.2,1.5-0.6,2.1-1.1
		c1.4-1,2.9-1.8,4.5-2.3c0.8-0.2,1.5-0.6,2.1-1.1c0.6-0.4,1.2-0.7,1.8-1c1.3-0.5,2.7-0.8,3.8-1.6c1.8-0.6,3.6-1.1,5.5-1.2
		c1.1,0,2.2,0,3.3-0.1c0.4,0,0.8-0.1,1.2-0.2c0.2,0,0.5-0.5,0.5-0.7c0-0.2,0-0.4-0.1-0.6c-0.7-2-1.2-4-2.3-5.8
		c-0.2-0.4-0.4-0.9-0.6-1.4c-0.3-1.1-0.9-2-1.6-2.8c-0.1-0.1-0.2-0.3-0.3-0.5c-0.3-0.4-0.3-1,0-1.4c0.3-0.4,0.7-0.7,1-1.1
		c0.4-0.3,0.9-0.5,1.2-0.9c0.9-1.1,2.2-1.6,3.5-2.2c0.3-0.1,0.6-0.1,0.9-0.1c0.5,0,1-0.1,1.4-0.4c1.1-0.9,2.4-1.3,3.8-1.7
		c0.5-0.2,1.2-0.1,1.8-0.1c1.3,0.5,2.7,0.4,4.1,0.5c0.5,0,0.9,0.5,0.9,1c0,0.1,0,0.2,0,0.3c0.1,2.3-0.3,4.6-0.6,6.8
		c-0.4,2.6-0.8,5.1-1.5,7.6C123.1,96.7,123,97.6,122.9,98.4c-0.5,0.8-0.4,1.8-0.8,2.6c-0.7,2.7-1.7,5.3-3.1,7.7
		c-0.3,0.6-0.8,1.2-0.8,1.9c-0.8,1.7-1.6,3.4-2.6,5c-0.2,0.2-0.4,0.4-0.7,0.6c-0.1,0.1-0.4,0-0.6,0c-0.3-0.1-0.4-0.4-0.4-0.7
		c0-0.7,0.1-1.4,0.1-2.1c0-1.1,0-2.2,0-3.3c-0.4-1.6-0.3-3.2-0.3-4.7c0-1.3-0.3-2.6-0.8-3.8c-0.1-0.3-0.4-0.4-0.7-0.5
		c-0.9-0.2-1.8-0.3-2.7-0.2c-0.5,0-1,0.1-1.5,0.3c-1,0.4-2,0.8-3,1.3c-0.2,0.1-0.3,0.3-0.4,0.5c-0.3,1.3-0.5,2.5-0.8,3.8
		c-0.1,0.7-0.2,1.4-0.4,2.1c-0.3,1.6-0.5,3.1-0.3,4.7c0,0.5,0,1-0.1,1.5c0,0.4-0.1,0.8,0,1.2c0.1,0.5,0.2,1,0.2,1.5
		c0,2.2-0.1,4.4,0,6.6c-0.4,1.8-0.2,3.6-0.1,5.4c0.1,0.8,0,1.6,0,2.4c0,0.3,0,0.6,0,0.9c0.1,0.9,0.3,1.7,0.8,2.5
		c0.1,0.2,0.3,0.3,0.5,0.3c0.2,0,0.4,0,0.6,0c1.1-0.4,2.2-0.8,3.4-1.2c0.4-0.1,0.7-0.3,1-0.6c1-1,2.3-1.5,3.7-1.8
		c1.5-0.3,2.9-0.8,4.2-1.6c0.6-0.4,1.3-0.6,2-0.6c1.9-0.2,3.7-0.5,5.6-1c2.3-0.6,4.7-0.7,7-1.3c0.7-0.1,1.4-0.2,2-0.4
		c1.1-0.3,2.1-0.5,3.2-0.4c1.4,0.1,2.8-0.2,4.2-0.3c0.5,0,0.7-0.3,0.7-0.7c0.1-1.1,0-2.2-0.3-3.3c-0.5-1.6-0.4-3.4-1-5
		c-0.1-1-0.3-2-0.5-2.9c-0.2-1.1-0.2-2.2-0.3-3.3c-0.1-0.8-0.2-1.6-0.3-2.4c-0.1-1.1-0.3-2.2-0.3-3.3c0.1-1.5-0.2-3-0.4-4.4
		c-0.1-0.8-0.5-1.5-1.1-2c-0.1-0.1-0.3-0.3-0.5-0.3c-1.2,0-2.4-0.3-3.6-0.2c-1.4,0.1-2.8,0.1-4.2,0.4c-0.7,0.2-1.4,0.2-2.1,0.2
		c-1.3,0.1-2.6,0.1-3.9,0.4c-0.4,0.1-0.7-0.2-0.9-0.6C123,98.8,123,98.6,122.9,98.4z"/>
	<path fill-rule="evenodd" clip-rule="evenodd" d="M32.4,158.3c0.2,0.1,0.4,0.1,0.6,0.2c0.2,0.1,0.3,0.3,0.4,0.4
		c0.3,0.4,0.6,0.8,0.9,1.1c1.6,1.4,3.1,3,4.9,4.4c1.6,1.2,3.3,2.2,5.1,3.1c0.4,0.2,0.9,0.4,1.3,0.6c1.8,1,3.7,1.8,5.8,2.3
		c0.3,0.1,0.5,0.7,0.3,1c-0.2,0.3-0.6,0.6-1,0.5c-0.3-0.1-0.6-0.1-0.8-0.2c-1.4-0.7-2.9-1.2-4.5-1.6c-1-0.2-1.9-0.6-2.7-1.2
		c-0.5-0.4-1-0.7-1.5-0.9c-1.1-0.3-2-0.9-2.8-1.7c-0.5-0.4-1.1-0.9-1.6-1.3c-1.1-0.6-2.1-1.5-2.9-2.5c-0.5-0.6-1.1-1.1-1.7-1.6
		c-0.5-0.5-0.8-1.1-1-1.8c-0.2-0.5,0-0.8,0.5-0.9C31.8,158.4,32.1,158.4,32.4,158.3z"/>
	<path fill-rule="evenodd" clip-rule="evenodd" d="M134.1,162.8c-0.1-0.1-0.2-0.1-0.2-0.2c0-0.1-0.1-0.2,0-0.3
		c0.2-0.2,0.4-0.5,0.6-0.6c0.7-0.4,1.4-0.7,2.1-1c0.4-0.2,0.7-0.3,1.1-0.5c1.9-0.8,3.7-1.9,5.3-3.2c0.8-0.7,1.7-1.4,2.5-2.1
		c0.3-0.3,0.6-0.6,0.8-0.9c1.6-2,3.1-4.1,4.5-6.3c0.4-0.6,0.7-1.2,1-1.8c0.3-0.7,0.8-1.4,1.3-2c0.1-0.2,0.3-0.2,0.5-0.2
		c0.2,0,0.3,0.1,0.4,0.4c0,0.2,0.1,0.4,0.1,0.6c-0.1,0.9-0.5,1.7-1,2.5c-1.2,1.6-2.2,3.3-3.3,5c-1.5,2.4-3.4,4.4-5.6,6.1
		c-1.9,1.4-4,2.6-6.2,3.6c-1.2,0.5-2.4,0.8-3.7,1.2C134.3,162.9,134.2,162.8,134.1,162.8z"/>
	<path fill-rule="evenodd" clip-rule="evenodd" d="M110.8,11.6c-0.1-0.1-0.3-0.3-0.4-0.4c-0.3-0.3-0.2-0.8,0-1.1
		c0.2-0.2,0.5-0.3,0.8-0.4c0.3-0.1,0.6-0.1,0.9-0.1c1.5,0.2,2.9,0.5,4.3,1.2c1.3,0.7,2.7,1.2,4.1,1.6c0.3,0.1,0.6,0.2,0.8,0.3
		c0.5,0.3,1.1,0.5,1.5,1c0.4,0.6,1,1,1.6,1.4c0.5,0.3,1,0.7,1.4,1.1c0.7,1.1,1.9,1.8,2.6,2.9c0.4,0.7,0.9,1.3,1.4,1.9
		c0.2,0.3,0.4,0.7,0.6,1c0.1,0.2,0.2,0.4,0.2,0.5c0.1,0.2,0,0.4-0.1,0.5c-0.2,0.1-0.4,0.2-0.5,0.2c-0.2,0-0.4-0.2-0.5-0.3
		c-1.2-1.3-2.3-2.7-3.5-4.1c-0.4-0.5-0.8-0.9-1.2-1.3c-0.5-0.4-1-0.7-1.4-1.1c-0.9-0.9-2.1-1.5-3.3-2c-0.4-0.2-0.7-0.3-1.1-0.5
		c-0.9-0.4-1.8-0.8-2.7-1.3c-1.6-0.3-3.3-0.9-5-0.9C111.2,11.7,111,11.6,110.8,11.6z"/>
	<path fill-rule="evenodd" clip-rule="evenodd" d="M162.8,73.6c0.2,2-0.3,3.8-0.5,5.7c-0.3,2.2-0.6,4.3-1.3,6.4
		c-0.3,1.6-0.5,3.1-0.8,4.7c0,0.2-0.1,0.4-0.2,0.6c-0.1,0.2-0.2,0.3-0.5,0.3c-0.3,0-0.7-0.1-0.7-0.4c-0.1-0.3-0.2-0.6-0.1-0.9
		c0.4-0.8,0.4-1.7,0.6-2.6c0.2-1.7,0.4-3.3,1-4.9c0.1-0.2,0.1-0.4,0.2-0.6c0.4-2.8,0.9-5.5,0.9-8.3c0-1.2-0.1-2.4-0.2-3.6
		c-0.4-0.9-0.5-1.9-1-2.8c-0.5-0.9-0.9-1.7-1.4-2.6c-0.1-0.2,0-0.4,0.1-0.5c0.1-0.2,0.3-0.3,0.5-0.2c0.2,0,0.4,0.1,0.5,0.2
		c0.9,0.6,1.6,1.5,1.8,2.6c0.2,1.1,0.5,2.1,0.7,3.2C162.9,71.1,163.2,72.4,162.8,73.6z"/>
	<path fill-rule="evenodd" clip-rule="evenodd" d="M12.9,115.9c0.4,0,0.7,0.5,0.6,0.8c-0.3,0.6-0.5,1.3-0.9,1.9
		c-0.5,0.7-0.7,1.4-0.8,2.2c-0.1,0.5-0.3,1-0.4,1.4c-0.1,0.5-0.2,1-0.2,1.5c0,0.8,0.1,1.6-0.2,2.4c-0.1,0.3,0,0.6,0,0.9
		c0,0.6,0.1,1.2,0.1,1.8c0.1,0.9,0.1,1.8,0.2,2.7c0.2,1,0.5,1.9,0.7,2.9c0.2,0.8,0.9,1.3,1.2,2c0.1,0.2,0,0.4-0.3,0.4
		c-0.1,0-0.2,0-0.3,0c-0.1,0-0.2-0.1-0.2-0.2c-0.5-0.7-1-1.4-1.3-2.3c-0.6-1.6-1-3.2-1.2-4.9c0-0.6-0.2-1.2-0.2-1.8
		c0-0.3-0.1-0.6-0.1-0.9c0.4-1.6,0.1-3.2,0.5-4.7c0-1.5,0.6-2.9,1.3-4.2c0.3-0.5,0.6-1,0.9-1.5C12.4,116,12.7,115.9,12.9,115.9z"/>
	<path fill-rule="evenodd" clip-rule="evenodd" d="M114,13.2c0.4,0,0.8,0.1,1.1,0.3c1.1,0.8,2.2,1.4,3.3,2c0.2,0.1,0.3,0.2,0.5,0.3
		c0.1,0.1,0.2,0.1,0.2,0.2c1,0.9,2.1,1.9,3.2,2.6c0.2,0.1,0.3,0.3,0.4,0.5c0.4,0.8,0.9,1.6,1.1,2.4c0,0.2-0.1,0.4-0.3,0.5
		c-0.1,0-0.2,0-0.3,0c-0.1,0-0.2,0-0.3-0.1c-0.2-0.2-0.5-0.4-0.7-0.6c-1.5-1.9-3.4-3.4-5.3-4.7c-0.7-0.5-1.5-0.9-2.1-1.6
		c-0.4-0.5-1.1-0.3-1.6-0.8c-0.2-0.2-0.2-0.3-0.1-0.5C113.6,13.4,113.8,13.2,114,13.2z"/>
	<path fill-rule="evenodd" clip-rule="evenodd" d="M54.5,32.6c-0.1-0.1-0.1-0.2-0.2-0.3c-0.1-0.4-0.1-0.8,0.2-1.1
		c0.8-1,1.6-2,2.5-2.9c1.2-1,2.5-2,3.8-2.8c0.9-0.6,2-0.9,3.1-1.1c0.2,0,0.4,0,0.6,0.1c0.2,0.1,0.3,0.2,0.4,0.4
		c0.1,0.2,0,0.4-0.1,0.6c-0.4,0.5-1,0.6-1.5,0.8c-2.5,0.9-4.6,2.3-6.3,4.2c-0.4,0.4-0.8,0.9-1.2,1.3c-0.3,0.3-0.6,0.5-0.9,0.7
		C54.7,32.6,54.6,32.6,54.5,32.6z"/>
	<path fill-rule="evenodd" clip-rule="evenodd" d="M36.5,78.7c0.2,0,0.4,0.5,0.3,0.7c-0.1,0.2-0.2,0.3-0.3,0.5
		c-0.1,0.1-0.3,0.3-0.5,0.4c-2.4,1.3-4.2,3.3-5.9,5.4c-0.8,0.9-1.4,1.9-1.6,3.2c0,0.2-0.1,0.4-0.2,0.5c-0.4,0.7-0.4,1.5-0.4,2.3
		c0,0.2-0.2,0.3-0.3,0.3c-0.1,0-0.2-0.2-0.2-0.2c0-0.4,0.1-0.8,0-1.2c-0.2-1.1,0.1-2.1,0.5-3.2c0.5-1.1,1-2.2,1.8-3
		c1.2-1.7,2.7-3.1,4.4-4.4c0.5-0.4,1.2-0.8,1.8-1.1C36.1,78.7,36.3,78.7,36.5,78.7z"/>
	<path fill-rule="evenodd" clip-rule="evenodd" d="M46.4,164.8c-0.4-0.1-0.7-0.1-1-0.2c-0.7-0.2-1.3-0.4-1.8-1
		c-0.8-0.8-1.6-1.5-2.6-1.9c-0.8-0.3-1.6-0.9-1.9-1.8c-0.2-0.5-0.6-0.8-1.1-1c-0.4-0.2-0.7-0.4-0.9-0.8c-0.2-0.2-0.2-0.5,0-0.8
		c0.1-0.2,0.3-0.3,0.5-0.2c0.2,0,0.4,0,0.6,0.1c0.3,0.2,0.6,0.5,0.9,0.8c0.5,0.6,1,1.2,1.6,1.8c0.6,0.5,1.3,1,1.9,1.4
		c0.2,0.1,0.4,0.2,0.5,0.3c1.4,1.4,3.1,2.1,5,2.6c0.2,0,0.3,0.2,0.3,0.4c0,0-0.2,0.1-0.3,0.1c-0.2,0-0.4,0.1-0.6,0.1
		C47.1,164.9,46.8,164.9,46.4,164.8z"/>
	<path fill-rule="evenodd" clip-rule="evenodd" d="M156,81.9c0.2-1.3,0.6-2.3,0.5-3.3c0.3-2-0.1-3.9-0.4-5.9c0,0,0.1-0.1,0.2-0.2
		c0.1,0,0.2,0,0.3,0c0.5,0.3,0.9,0.8,1,1.4c0.2,0.7,0.3,1.4,0.4,2c0.1,2.7-0.2,5.3-1.3,7.8c-0.2,0.4-0.6,0.5-0.9,0.2
		c-0.1-0.1-0.2-0.2-0.2-0.2C155.7,83,155.9,82.3,156,81.9z"/>
	<path fill-rule="evenodd" clip-rule="evenodd" d="M145.9,148.6c0.4-0.5,0.9-0.9,1.1-1.4c0.1-0.3,0.3-0.3,0.4-0.1
		c0,0.1,0.1,0.2,0.1,0.3c-0.1,0.9-0.3,1.7-1,2.4c-0.3,0.3-0.6,0.6-0.8,0.9c-0.4,1-1.1,1.6-1.9,2.3c-1.1,0.9-2.1,1.8-3.3,2.5
		c-0.3,0.2-0.7,0.4-1.1,0.5c-0.2,0-0.4-0.1-0.5-0.1c-0.2-0.1-0.2-0.4-0.1-0.5c0.3-0.3,0.6-0.5,0.9-0.7c1.3-0.8,2.5-1.6,3.5-2.8
		c0.3-0.3,0.6-0.6,0.9-0.8c0.6-0.4,1-1,1.3-1.6C145.6,149,145.8,148.8,145.9,148.6z"/>
	<path fill-rule="evenodd" clip-rule="evenodd" d="M13.2,125.9c0-1.2,0.2-2.4,0.7-3.6c0-0.1,0.1-0.2,0.2-0.2
		c0.2-0.1,0.4-0.2,0.5-0.2c0.1,0,0.3,0.3,0.3,0.4c0,0.8,0.1,1.6-0.3,2.3c-0.4,0.9-0.4,1.7-0.2,2.6c0.1,0.5,0.3,0.9,0.2,1.4
		c-0.1,0.3-0.2,0.3-0.4,0.2c-0.4-0.1-0.6-0.5-0.8-0.8C13.2,127.4,13.2,126.7,13.2,125.9z"/>
	<path fill-rule="evenodd" clip-rule="evenodd" d="M63,29.6c0,0.2,0,0.4-0.2,0.5c-0.4,0.3-0.8,0.5-1.3,0.7c-0.9,0.5-1.7,1-2.6,1.4
		c-0.1,0-0.2,0-0.2,0c-0.2-0.1-0.2-0.3-0.2-0.5c0-0.3,0.1-0.6,0.4-0.7c0.9-0.6,1.9-1.1,2.8-1.6c0.2-0.1,0.4-0.1,0.6-0.1
		c0.2,0,0.4,0.1,0.6,0.1C62.9,29.4,63,29.5,63,29.6z"/>
	<path fill-rule="evenodd" clip-rule="evenodd" d="M32.4,89.4c-0.2-0.1-0.2-0.3-0.2-0.5c0-0.3,0.2-0.5,0.5-0.7
		c0.3-0.2,0.6-0.5,0.7-0.9c0.1-1.2,0.9-1.9,1.7-2.6c0.2-0.1,0.4-0.2,0.5,0c0.1,0.1,0.2,0.3,0.2,0.5c0,0.1,0,0.2-0.1,0.3
		c-0.9,1.2-1.8,2.4-2.5,3.6C33,89.3,32.7,89.4,32.4,89.4z"/>
	<path fill-rule="evenodd" clip-rule="evenodd" d="M73.2,54.8c0.8,0,1.5,0.1,2.3,0.4c0.5,0.2,1,0.3,1.4,0.4c1.4,0.4,2.4,1.3,3.2,2.6
		c0.4,0.7,0.4,1.9-0.1,2.6c-0.4,0.5-0.9,1.1-1.4,1.6c-0.1,0.1-0.3,0.3-0.5,0.3c-1.3,0.6-2.7,1.3-4.2,1.5c-0.8,0.1-1.6,0.2-2.4,0
		c-1.1-0.2-2.2-0.2-3.3-0.3c-0.5,0-1-0.3-1.4-0.5c-0.9-0.6-1.3-1.5-1.2-2.5c0.1-1.2,0.6-2.3,1.5-3.1c0.3-0.3,0.7-0.5,0.9-0.8
		C69.4,55.2,71.2,54.9,73.2,54.8z"/>
	<path fill-rule="evenodd" clip-rule="evenodd" d="M49.6,57.3c0,0.1-0.1,0.5-0.2,0.7c-0.8,0.9-1.7,1.7-2.8,2.1
		c-0.4,0.1-0.8,0.2-1.2,0.1c-1.5-0.2-2.9-0.8-3.9-2c-0.2-0.2-0.3-0.5-0.3-0.8c0.2-1,0.6-1.9,1.6-2.3c0.3-0.1,0.6-0.2,0.8-0.3
		c0.9-0.4,1.8-0.3,2.6-0.1c1,0.2,1.9,0.6,2.7,1.1C49.4,56.1,49.6,56.6,49.6,57.3z"/>
	<path fill-rule="evenodd" clip-rule="evenodd" fill="#058C9E" d="M122.9,98.4c0.1,0.2,0.1,0.4,0.2,0.6c0.2,0.4,0.6,0.7,0.9,0.6
		c1.3-0.3,2.6-0.3,3.9-0.4c0.7,0,1.4-0.1,2.1-0.2c1.4-0.3,2.8-0.3,4.2-0.4c1.2-0.1,2.4,0.2,3.6,0.2c0.2,0,0.4,0.2,0.5,0.3
		c0.6,0.6,1,1.2,1.1,2c0.2,1.5,0.5,2.9,0.4,4.4c0,1.1,0.2,2.2,0.3,3.3c0.1,0.8,0.2,1.6,0.3,2.4c0.1,1.1,0.1,2.2,0.3,3.3
		c0.2,1,0.4,1.9,0.5,2.9c0.5,1.6,0.5,3.3,1,5c0.3,1,0.4,2.2,0.3,3.3c0,0.4-0.2,0.7-0.7,0.7c-1.4,0.1-2.8,0.4-4.2,0.3
		c-1.1-0.1-2.2,0.2-3.2,0.4c-0.7,0.2-1.4,0.2-2,0.4c-2.3,0.5-4.7,0.7-7,1.3c-1.8,0.4-3.7,0.8-5.6,1c-0.7,0.1-1.4,0.3-2,0.6
		c-1.3,0.8-2.7,1.3-4.2,1.6c-1.4,0.2-2.7,0.8-3.7,1.8c-0.3,0.3-0.6,0.5-1,0.6c-1.1,0.4-2.2,0.8-3.4,1.2c-0.2,0.1-0.4,0-0.6,0
		c-0.2,0-0.4-0.1-0.5-0.3c-0.5-0.8-0.8-1.6-0.8-2.5c0-0.3,0-0.6,0-0.9c0-0.8,0-1.6,0-2.4c-0.2-1.8-0.3-3.6,0.1-5.4
		c-0.1-2.2,0-4.4,0-6.6c0-0.5-0.1-1-0.2-1.5c-0.1-0.4,0-0.8,0-1.2c0.1-0.5,0.1-1,0.1-1.5c-0.1-1.6,0-3.2,0.3-4.7
		c0.1-0.7,0.2-1.4,0.4-2.1c0.3-1.3,0.5-2.5,0.8-3.8c0-0.2,0.2-0.4,0.4-0.5c1-0.5,2-0.9,3-1.3c0.5-0.2,1-0.2,1.5-0.3
		c0.9-0.1,1.8,0,2.7,0.2c0.3,0.1,0.6,0.2,0.7,0.5c0.5,1.2,0.8,2.4,0.8,3.8c0,1.6-0.1,3.2,0.3,4.7c0,1.1,0,2.2,0,3.3
		c0,0.7-0.1,1.4-0.1,2.1c0,0.3,0.2,0.6,0.4,0.7c0.2,0.1,0.4,0.1,0.6,0c0.3-0.1,0.5-0.3,0.7-0.6c1.1-1.6,1.9-3.3,2.6-5
		c0.1-0.7,0.5-1.3,0.8-1.9c1.4-2.4,2.4-5,3.1-7.7C122.5,100.2,122.4,99.2,122.9,98.4L122.9,98.4z"/>
	<path fill-rule="evenodd" clip-rule="evenodd" fill="#55C8E6" d="M98.5,113.6c0.6,0,1.2,0,1.8,0c0.2,0,0.4,0.2,0.5,0.3
		c0.2,0.6,0.3,1.1,0.5,1.7c0.1,0.3,0,0.6,0,0.9c0,0.4-0.2,0.8-0.2,1.2c0.2,1.6-0.1,3.2,0,4.8c0.1,1.5-0.1,3-0.1,4.5
		c0,0.9,0,1.8,0.1,2.7c0,0.8,0,1.6-0.1,2.4c-0.2,1.5-0.1,3,0.1,4.5c0,0.6,0.3,1.2,0.4,1.7c0.1,0.3,0.7,0.6,1,0.5
		c0.2-0.1,0.4-0.1,0.6-0.1c2.2-1.1,4.6-2,6.9-2.8c1.2-0.4,2.5-0.8,3.5-1.5c0.3-0.2,0.7-0.3,1.1-0.4c0.8-0.3,1.7-0.6,2.6-0.8
		c1-0.3,1.9-0.6,2.8-1c0.6-0.3,1.3-0.5,2-0.6c2.2-0.3,4.3-0.7,6.5-1c0.6-0.1,1.2-0.1,1.8,0c0.2,0,0.5,0.4,0.5,0.6
		c-0.1,1.1-0.1,2.2-0.2,3.3c-0.4,0.7-0.2,1.3,0.1,2c0.1,0.4,0.1,0.8,0.2,1.2c0,0.3-0.2,0.6-0.5,0.7c-0.4,0.1-0.8,0.3-1.1,0.3
		c-0.9,0.2-1.7,0.4-2.6,0.7c-1.7,0.6-3.5,0.9-5.3,1c-3.2,0.2-6.3,0.6-9.4,1.5c-0.6,0.2-1.1,0.4-1.7,0.6c-0.3,0.1-0.5,0.3-0.8,0.4
		c-1.3,0.1-2.5,0.6-3.8,0.8c-0.3,0-0.6,0.1-0.9,0.1c-1.9,0.3-3.7,0.8-5.4,1.6c-1.5,0.7-3,1.1-4.5,1.4c-0.8,0.2-1.6,0-2.3-0.3
		c-0.2-0.1-0.3-0.3-0.4-0.4c-0.3-1.2-0.3-2.4-0.1-3.5c0.2-1.7,0.7-3.3,0.8-5c0-0.4,0.2-0.8,0.3-1.1c0.5-1.6,0.8-3.3,0.7-5
		c0-0.4,0.1-0.8,0.1-1.2c0.1-1.4,0.1-2.8-0.1-4.2c-0.1-0.5-0.1-1-0.1-1.5c0-0.3,0-0.6-0.1-0.9c-0.6-1.5-0.5-3.1-0.6-4.7
		c-0.1-1-0.1-2-0.3-2.9c-0.1-0.4,0.2-1,0.7-1.2c0.7-0.3,1.5-0.5,2.3-0.8c0.4-0.1,0.8-0.2,1.2-0.2C97.3,113.6,97.9,113.6,98.5,113.6
		C98.5,113.6,98.5,113.6,98.5,113.6z"/>
	<path fill-rule="evenodd" clip-rule="evenodd" fill="#55C8E6" d="M91.9,129c0,1.1-0.2,2.2-0.1,3.3c0.1,1.8-0.4,3.5-0.7,5.3
		c-0.1,0.6-0.2,1.2-0.4,1.7c-0.7,2.2-0.7,4.5-0.4,6.8c0.1,0.4,0,0.8,0.1,1.2c0.1,0.4,0.3,0.7,0.5,1.1c0.2,0.3,0.5,0.4,0.8,0.4
		c0.4,0,0.8-0.1,1.2-0.2c0.8-0.2,1.5-0.4,2.3-0.6c2.7-0.9,5.5-1.6,8.2-2.6c0.6-0.2,1.1-0.4,1.7-0.5c2.3-0.4,4.6-1.1,7-1.5
		c0.4-0.1,0.8-0.1,1.2-0.2c2-0.6,4.1-0.9,6.1-1.3c1.9-0.4,3.9-0.6,5.9-0.9c0.3,0,0.6,0,0.9,0c0.2,0,0.7,0.3,0.7,0.5
		c0.1,0.6,0.2,1.2,0,1.8c-0.1,0.4-0.3,0.8-0.8,0.8c-0.7,0.1-1.4,0.3-2,0.6c-0.4,0.2-0.8,0.3-1.1,0.5c-0.6,0.5-1.2,0.7-1.9,0.7
		c-1.1,0-2.2,0.1-3.3,0.3c-0.9,0.2-1.8,0.2-2.7,0.3c-0.7,0.1-1.4,0.1-2.1,0.4c-1.8,0.6-3.7,0.8-5.5,1.3c-0.4,0.1-0.8,0.1-1.2,0.1
		c-0.8,0.1-1.6,0.2-2.3,0.4c-0.9,0.3-1.9,0.5-2.9,0.6c-2,0.2-3.9,0.7-5.9,0.8c-1.1,0.1-2.1,0.4-3.1,1.1c-0.3,0.2-0.7,0.4-1.1,0.5
		c-1.7,0.1-3.3,0.5-5,0.8c-0.1,0-0.2,0-0.3,0c-0.2-0.1-0.3-0.2-0.4-0.4c-0.1-0.8,0.2-1.6,0.7-2.2c0.3-0.4,0.6-0.7,0.5-1.3
		c-0.1-0.3-0.1-0.6,0-0.9c0-0.3,0.2-0.6,0.3-0.9c0.1-1,0.7-1.9,0.7-2.9c0.1-1,0-2,0-3c0-0.3-0.1-0.6,0.1-0.9c0.5-1,0.3-1.9,0-2.9
		c-0.1-0.4,0-0.8-0.1-1.2c0-0.4,0-0.8-0.1-1.2c-0.3-1-0.4-2-0.4-2.9c-0.1-1.8-0.4-3.5-1-5.2c-0.2-0.7-0.3-1.4,0-2
		c0.2-0.5,0.1-1-0.1-1.4c-0.1-0.2-0.2-0.4-0.3-0.5c-0.6-0.8-0.5-1.7-0.2-2.6c0.1-0.2,0.2-0.4,0.3-0.5c0.6-0.6,1.3-0.9,2.1-1
		c0.8-0.1,1.6-0.1,2.4-0.2c0.3,0,0.7,0.3,0.7,0.5c0.1,1.3,0.2,2.6,0.7,3.8c0.2,0.5,0.2,1,0.2,1.5C92,125.7,92,127.4,91.9,129
		C92,129,92,129,91.9,129z"/>
	<path fill-rule="evenodd" clip-rule="evenodd" fill="#045F6B" d="M88.2,116.2c-0.4,0.1-0.8,0.1-1.2,0.1c-0.1,0-0.3-0.2-0.4-0.4
		c0-0.1,0-0.2,0-0.3c0.1-2,0.8-3.6,2.3-5c0.2-0.2,0.5-0.4,0.7-0.6c1.3-1.2,2.7-1.9,4.5-2.2c0.7-0.1,1.4,0,2-0.4
		c0.5-0.4,0.9-0.2,1.4,0c1.6,0.7,2.8,1.9,3.4,3.6c0.1,0.2,0,0.4-0.1,0.5c-0.6,0.5-1.4,0.8-2.2,0.7c-0.4,0-0.8-0.2-1.1-0.3
		c-0.8-0.2-1.5-0.4-2.3-0.4c-0.4,0-0.8,0.1-1.1,0.3c-0.2,0.1-0.3,0.2-0.5,0.4c-0.5,0.5-1.2,0.7-1.9,0.9c-0.4,0.1-0.6,0.5-0.6,0.9
		c0,0.3,0.1,0.6,0,0.9c0,0.2-0.1,0.4-0.3,0.5c-0.2,0.2-0.5,0.4-0.8,0.4C89.3,116,88.8,116.1,88.2,116.2
		C88.2,116.2,88.2,116.2,88.2,116.2z"/>
	<path fill-rule="evenodd" clip-rule="evenodd" d="M136.2,113.5c0.1,1,0.3,2,0.4,2.9c0.1,0.8-0.2,1.6-0.7,2.2
		c-0.2,0.2-0.4,0.4-0.7,0.5c-1.5,0.4-3.1,0.6-4.7,0.5c-0.4,0-0.7-0.3-0.9-0.6c-0.3-0.7-0.5-1.5-0.6-2.3c-0.2-1.5-0.3-2.9-0.5-4.4
		c-0.1-0.9-0.1-1.8-0.3-2.6c-0.1-0.4-0.1-0.8-0.1-1.2c0-1.2,0.1-2.4,0.2-3.6c0-0.4,0.2-0.8,0.3-1.1c0.3-0.8,0.9-1.3,1.8-1.4
		c1.1-0.1,2.2-0.2,3.3-0.3c0.7,0,1.3,0.3,1.5,1.1c0.1,0.5,0.4,0.9,0.4,1.4c0.1,1.2,0.5,2.3,0.3,3.5c0,0.2,0,0.4,0,0.6
		C136.1,110.3,136,111.9,136.2,113.5z"/>
	<path fill-rule="evenodd" clip-rule="evenodd" d="M95.9,118.6c0.5,0.2,0.8,0.6,0.9,1.1c0,0.4,0,0.8,0,1.2c0,0.7,0,1.4,0.3,2
		c0.1,0.3,0.1,0.6,0.2,0.9c0,1,0,2,0,3c0,0.1-0.1,0.1-0.2,0.2c-0.1,0-0.2,0-0.2-0.1c-0.3-0.4-0.3-0.9-0.2-1.4
		c0.1-0.4,0.1-0.8-0.1-1.2c-0.3-0.5-0.4-1.1-0.4-1.7c0.1-0.6-0.2-1.2-0.3-1.7c-0.1-0.6-0.3-1.1-0.3-1.7
		C95.7,118.9,95.8,118.7,95.9,118.6z"/>
	<path fill-rule="evenodd" clip-rule="evenodd" d="M99.1,121.5c0.1,0.8,0.2,1.5,0.2,2.2c0,0.2-0.2,0.3-0.4,0.3
		c-0.1,0-0.2-0.1-0.2-0.2c-0.1-1.3-0.2-2.6-0.2-3.8c0-0.3,0.2-0.5,0.3-0.8c0.1,0.1,0.2,0.1,0.2,0.2c0.1,0.2,0.1,0.4,0.2,0.6
		C99.1,120.4,99.1,121,99.1,121.5z"/>
	<path fill-rule="evenodd" clip-rule="evenodd" d="M89.6,130.7c-0.1,0.2-0.1,0.5-0.2,0.8c-0.1,0.2-0.2,0.2-0.3-0.1
		c-0.2-0.7-0.4-1.3-0.5-2c-0.2-0.8-0.2-1.6-0.6-2.3c-0.1-0.2-0.1-0.4-0.2-0.6c0-0.1-0.1-0.2-0.1-0.3c0-1.4-0.4-2.7-0.5-4.1
		c0-0.2,0.1-0.4,0.2-0.5c0.2-0.1,0.4-0.1,0.5,0.1c0.1,0.1,0.2,0.1,0.2,0.2c0.3,0.5,0.7,0.6,1.2,0.5c0.4-0.1,0.6,0,0.6,0.3
		c0.1,0.3,0.1,0.6,0.2,0.9c0,0.3,0.1,0.7-0.2,0.8c-0.4,0.1-0.4-0.3-0.5-0.6c-0.1-0.2-0.2-0.3-0.5-0.2c-0.1,0-0.1,0.1-0.2,0.2
		c-0.1,0.3-0.1,0.6-0.1,0.9c0,0.2,0,0.4,0.1,0.6c0.1,0.6,0.3,1.1,0.4,1.7C89.5,128.3,89.5,129.5,89.6,130.7z"/>
	<path fill-rule="evenodd" clip-rule="evenodd" fill="#00B3CA" d="M130.6,104.1c0.9-0.2,1.8-0.6,2.7-0.5c0.2,0,0.4,0.2,0.4,0.3
		c0.3,1.3,0.6,2.7,0.7,4.1c0.1,2.6,0.3,5.1,0.8,7.7c0,0.3,0,0.6,0,0.9c0,0.6-0.5,1.2-1,1.3c-0.6,0.1-1.2,0.2-1.8,0.2
		c-1.3,0.1-1.7-0.3-2.1-1.6c-0.1-0.2-0.1-0.4-0.1-0.6c0.2-1.3-0.3-2.5-0.2-3.8c0-0.3,0-0.6-0.1-0.9c-0.4-1.3-0.3-2.7-0.4-4.1
		c-0.1-0.8,0.1-1.6,0.6-2.2C130.3,104.5,130.5,104.3,130.6,104.1z"/>
	<path fill-rule="evenodd" clip-rule="evenodd" d="M132.6,113c0.2,1.5,0.4,2.4,0.5,3.4c0,0.1-0.2,0.3-0.3,0.4
		c-0.2,0-0.4-0.1-0.5-0.3c-0.1-0.2-0.2-0.4-0.2-0.5c-0.2-2-0.7-3.9-0.8-5.8c0-0.7-0.3-1.3-0.5-2c-0.1-0.3,0-0.6,0.1-0.8
		c0.1-0.1,0.1-0.2,0.2-0.2c0.2,0,0.4,0.1,0.5,0.2c0.1,0.1,0.3,0.3,0.3,0.5c0,0.9,0,1.8,0.4,2.6c0.1,0.3,0.2,0.6,0.2,0.9
		C132.6,112,132.6,112.7,132.6,113z"/>
</g>
</svg>
