<?xml version="1.0" encoding="utf-8"?>
<!-- Generator: Adobe Illustrator 16.0.0, SVG Export Plug-In . SVG Version: 6.00 Build 0)  -->
<!DOCTYPE svg PUBLIC "-//W3C//DTD SVG 1.1//EN" "http://www.w3.org/Graphics/SVG/1.1/DTD/svg11.dtd">
<svg version="1.1" id="Layer_1" xmlns="http://www.w3.org/2000/svg" xmlns:xlink="http://www.w3.org/1999/xlink" x="0px" y="0px"
	 width="505.1px" height="345.2px" viewBox="0 0 505.1 345.2" enable-background="new 0 0 505.1 345.2" xml:space="preserve">
<path opacity="0.6" fill="#010101" stroke="#FFFFFF" stroke-width="6" stroke-miterlimit="10" d="M490.9,300c-2.5-0.3-2.6-0.2-3,2.1
	s-1,4.5-0.8,6.9c0,0.8-1,1.2-1.6,0.8c-1.1-0.7-2.2-1.6-2.9-2.8c-0.8-1.3-2-2.2-3.3-2.8c-0.7-0.3-1.4-0.4-2.1,0
	c-0.9,0.4-1.8,0.9-2.6,1.4c-0.5,0.3-0.9,0.8-1.2,1.3c-0.7,1-1.3,2.1-2,3.1c-0.3,0.4-0.7,0.6-1.1,0.9c-0.2,0.2-0.8-0.1-0.9-0.4
	c-0.1-0.3-0.3-0.7-0.3-1c0.1-1.1,0.2-2.2,0.3-3.3c0.1-0.8,0.2-1.7,0.3-2.5c0.1-1.8-0.5-3.1-2.2-3.9c-0.6-0.3-1.1-0.6-1.5-1
	c-1.1-1.3-2.6-1.3-4.1-1.1c-1.2,0.2-2.4,0.3-3.6,0.4c-0.5,0-0.9-0.2-1.4-0.3c-0.3-0.1-0.5-0.7-0.3-0.9c1-1.1,2.2-1.9,3.6-2.5
	c1.5-0.6,2.9-1.4,4.3-2c1.2-0.5,2.1-1.3,2.4-2.6c0.4-1.5,1.6-2.4,2.4-3.7c-0.5-2-0.9-4.1-1.4-6.1c-0.1-0.6-0.3-1.2-0.3-1.8
	c-0.1-0.8,0.4-1.8,0.9-1.8c0.7,0,1.2,0.3,1.6,0.7c0.3,0.3,0.5,0.5,0.7,0.8c1.3,1.9,3.2,2.9,5.5,3.9c-1.1-2.3-2.4-4.4-0.3-6.7
	c0.4,1.3,0.7,2.5,1,3.7c0.3,1.1,0.8,1.3,1.9,0.9c0.7-0.2,1.4-0.5,2.1-0.8c1-1.8,1.6-3.5,1-5.5c-0.3,0-0.4-0.1-0.5,0
	c-3.4,1.2-3.4,1.2-6.5-0.4c-0.5-0.3-1.2-0.5-1.6-0.8c-0.6-0.4-1.2-0.9-1.6-1.5c-1.3-1.8-1.2-3.6,0.1-5.1c1-1.2,2.3-2.3,3.8-2.8
	c0.7-0.2,1.4-0.4,2.1-0.4c1-0.1,1.9,0.3,2.5,1.3c0.2,0.4,0.6,0.7,0.8,1.1c1.3-0.1,2.1-0.9,2.7-1.9c0.7-1.1,0.8-2.3,0.6-3.5
	c-0.1-0.8-1.1-1.5-1.9-1.3c-0.6,0.1-1.2,0.3-1.7,0.6c-0.7,0.3-1.3,0.7-1.9,1c-0.2,0.5-0.4,0.9-0.6,1.4c-0.4,0.1-0.8,0-0.9-0.4
	c-0.1-0.5,0.1-0.9,0.1-1.4c0.1-0.6-0.1-1.1-0.5-1.2c-0.5-0.2-1-0.2-1.4-0.4c-2.6-1.1-4-3.2-4.3-5.9c-0.2-2,0.6-3.6,2-4.9
	c1.3-1.3,2.9-2.4,4.7-2.8c2-0.4,3.8-1.7,6-0.9c1-2.1,0.8-3.9,0-5.6c-0.4-0.8-1.2-1.2-2.2-1.4c-0.3,0.1-0.8,0.3-1.3,0.5
	c-0.8,0.4-1.3,1.1-1.4,2c-0.1,1.2,0.1,2.5-0.4,3.6c-0.6,0.4-1.2,0.4-1.6-0.2c-0.4-0.6-0.3-1.5-1.3-1.8c-0.8,0.7-1.8,1.2-2.4,2.1
	c-1.5,1.8-3.2,3.3-4.9,4.9c-1.5,1.4-3.3,2.6-4.1,4.7c-0.1,0.2-0.3,0.4-0.5,0.6c-4.3,4.3-7.6,9.3-10.8,14.4c-0.9,1.5-1.8,2.9-2.2,4.6
	c-0.1,0.4-0.2,0.7-0.4,1c-2.2,3.2-3.4,6.8-4.9,10.3c-1,2.2-1.8,4.6-2.4,6.9c-0.4,1.5-0.8,3.1-0.7,4.7c0.1,0.7-0.1,1.5-0.2,2.2
	c-0.1,0.6-0.5,1.2-1.1,1.4c-1.9,0.8-3.9,1.4-6.1,0.6c-0.8-0.3-1.7-0.6-2.2-1.2c-0.8-1-2-1.4-3.1-2c-1.2-0.6-2.4-1.2-3.4-2.2
	c-0.7-0.7-1.6-1.1-2.5-1.6c-1-0.6-1.7-1.4-2.3-2.3c-1.1-1.7-1.3-3.7-1.7-5.6c-0.2-1.3,0.4-2.4,1.3-3.3c1.5-1.4,3.1-2.7,4.7-4.1
	c0.8-0.8,2.4-1.3,1.9-2.8c-0.4-1.2-1.9-0.9-3-1.2c-2.7,1.5-5.5,3.1-8.2,4.6c-0.5,2-0.9,3.9-1,5.9c-0.1,3.2-1,6.3-1.6,9.4
	c-0.1,0.6-0.5,1.1-0.7,1.7c-0.4,0.9-0.9,1.7-1.3,2.6c-0.8,1.8-1.9,3.4-3.2,4.9c-1.8,2-3.6,4-5.9,5.6c-0.7,0.5-1.4,1-1.8,1.8
	c-0.2,0.4-0.5,0.8-0.9,1.2c-2.9,3.1-5,6.6-6,10.8c-0.5,2.3-1.4,4.4-1.5,6.8c0,0.3-0.4,0.5-0.7,0.8c-0.4,0.3-1.1,0-1.2-0.4
	c-0.3-1.2-0.6-2.4-0.8-3.6c-0.2-2.2-1.2-4.3-1.6-6.4c0-0.2-0.1-0.5-0.2-0.7c-0.5-1.2-1.4-2-2.8-2c-0.5,0-1,0-1.5,0
	c-2.9,0.3-5.6-0.4-8.3-1.3c-0.3-0.1-0.7-0.2-1-0.4c-1.2-0.6-2.3-0.5-3.5,0.2c-0.9,0.6-2,1-2.9,1.6c-2.8,1.6-5.9,2.4-9.1,2.5
	c-1,0-2,0-2.9,0c-1.7,0.1-3.4-0.2-5.1-0.7c-2.3-0.7-4.6-1.6-7.1-1.8c-3.2-1.1-6.5-2.3-9-4.8c-1.1-1.1-2.2-2.4-3.8-3
	c-0.4,0.1-0.9,0.3-1.4,0.4c-0.8,0.2-1.3,0.6-1.6,1.4c-0.6,1.3-1.2,2.7-1.7,4.1c-1.5,4-2.6,8.2-3.9,12.3c-0.1,0.2-0.2,0.5-0.2,0.7
	c0,2.1-0.7,4.1-1.1,6.1c-0.3,1.6-1.1,1.9-2.6,1.2c-0.4-0.2-0.8-0.6-1.3-0.9c-0.5-3.4-2.2-6.5-3.2-9.7c-0.7-2.1-1.4-4.2-2-6.3
	c-0.6-2.1-1.5-4.2-2.3-6.2c-1.6-1.1-3.2-1.9-5-2.4c-1.1-0.3-2.1-0.8-2.9-1.6c-2.4-2.5-5.3-4.3-8.1-6.3c-0.7-0.5-1.4-0.5-2.1-0.2
	c-0.4,0.2-0.9,0.4-1.3,0.6c-1.7,0.8-3.4,1.4-5.3,1.4c-0.6,0-1.2,0.1-1.7,0.2c-1.8,1.1-2.9,2.6-3.9,4.1c-1.4,2-2.9,3.9-4,6.1
	c-0.3,0.7-0.8,1.3-1.2,1.9c-1.3,1.8-2.2,3.8-3,5.9c-0.8,2.1-1.6,4.1-2.5,6.1c-1.6,3.5-2.5,7.1-3.6,10.8c-0.3,1.1-0.5,2.1,0,3.2
	c0.3,0.5-0.2,0.9-0.6,1.2c-0.5,0.3-1.1,0.5-1.9,0.3c-0.8-1.3-1.1-2.9-1.6-4.3c-0.5-1.5-0.7-3.1-1.2-4.6c-0.5-1.6-0.9-3.3-2-4.7
	c-0.7-1-1.1-2.2-1.7-3.3c-0.4-0.8-1.1-1.3-2-1.5c-1-0.2-1.9-0.5-2.9-0.3c-3.3,0.5-6.6,0.1-9.9,0.1c-2.9,0-5.9-0.4-8.7-1.2
	c-0.6-0.2-1.2-0.3-1.7-0.6c-2.7-1.4-5.6-1.9-8.5-2.4c-1.3-0.2-2.7-0.5-4-0.7c-0.5-0.1-1-0.2-1.4-0.5c-1.8-1.1-3.7-2-5.6-2.8
	c-1-0.4-1.9-1.2-2.7-1.9c-1-0.9-2.2-1.5-3.4-2.2c-3.7,1.3-7.5,2.3-10.9,4.4c-0.6,0.4-1.4,0.6-2.1,0.7c-1.9,0.3-3.9,0.5-5.8,0.9
	c-3.5,0.7-7.1,0.6-10.6,0.5c-0.7,0-1.5,0-2,0c-0.9,0.4-1.3,1-1.6,1.7c-1.7,3.2-4.2,5.8-5.6,9.1c-1.5,1.8-2.3,4-3.4,6.1
	c-0.6,1.2-1.3,2.4-2,3.5c-0.4,0.6-0.9,0.8-1.6,0.6c-0.3-0.1-0.7-0.2-1-0.4c-0.6-0.9-0.4-1.9-0.4-2.9c0.2-4.2-1.1-8.3-1.7-12.4
	c-1.1-2.5-1.5-5.2-2.2-7.8c-0.4-1.4-1.4-2.6-1.4-4.2c-1.3-0.6-2.4-1.3-3.3-2.3c-0.6-0.7-1.5-1.2-2.3-1.9c-0.5-0.4-1.1-0.7-1.4-1.1
	c-0.8-1.2-1.9-1.9-3.1-2.5c-0.7-0.3-1.2-0.8-1.7-1.3c-2.3-2.7-4.8-5.3-6.4-8.5c-0.2-0.3-0.4-0.6-0.7-0.9c-1-1.2-1.6-1.4-3.2-0.7
	c-0.3,0.1-0.6,0.3-1,0.5c-1.1,1.7-1.7,3.5-2.4,5.4c-0.7,2-1.2,4-1.9,6c-1.1,2.9-1.8,5.9-2.3,8.9c-0.3,2-0.2,4.1-0.3,6.3
	c-0.3,0.4-0.7,0.6-1.2,0.6c-0.7-0.8-1-2-2-2.6c-0.3-0.2-0.4-0.6-0.6-0.9c-1-2.8-2-5.5-2.8-8.4c-0.7-2.4-2.1-4.4-3.4-6.5
	c-0.2-0.4-0.6-0.7-1-1.1c-0.8-0.8-1.8-1.3-3-1.2c-0.5,0.1-1,0.1-1.5,0.1c-1.9-0.1-3.7-0.3-5.4-1.2c-0.5-0.3-1.1-0.5-1.7-0.8
	c-1.2-0.5-2.4-0.4-3.4,0.6c-1.8,1.8-4,2.9-6.4,3.5c-2.2,0.6-4.4,1.4-6.8,1.6c-0.5,0-1,0.2-1.4,0.3c-0.5,0.2-0.9,0.4-1.3,0.6
	c-0.7,1.1-1,2.3-1.2,3.5c-0.4,2.8-0.9,5.6-1.3,8.4c-0.2,1.5,0,2.9,0.2,4.4c0.1,0.8,0.3,1.7,0.4,2.6c-0.3,0.4-0.6,0.8-0.9,1.1
	c-1.4,1.2-2.8,1.1-3.7-0.4c-0.7-1.2-1.3-2.4-1.8-3.6c-0.5-1.3-1.1-2.4-2-3.5c-0.7-1-1.4-2-2-3.1c-1.8-3.1-4.1-5.8-6.5-8.4
	c-1.5-1.7-3.5-2.7-5.5-3.5c-1.9-0.8-3.9-1.5-5.8-2.2c-0.2-0.1-0.5,0.1-0.7,0.2c-0.3,0.1-0.2,0.7,0,0.9c0.3,0.2,0.5,0.5,0.8,0.7
	s0.7,0.3,1,0.6c1.3,1,2.2,2.2,2.6,3.9c0.6,2.4,1.2,4.8,1.7,7.2c0.5,2.4,0.5,4.9,0.4,7.3c0,0.8-0.3,1.7-0.6,2.5
	c-0.6,1.4-1.6,2-2.9,1.5c-3.6-1.2-3.7-0.1-6,1.4c-0.4,0.3-0.7,0.6-1,0.9c-2.5,0.1-4.8,0.3-7.1,0.4c-0.5,0-1,0.1-1.5,0.1
	c-1.6,0-2.9-0.5-3.2-2.3c0-0.2-0.3-0.4-0.4-0.6c-0.2-0.1-0.4-0.3-0.6-0.4c-3.9-1-2.9-1-6.7,0.6c-3,1.3-5.6,3.1-8,5.2
	c-0.5,0.4-0.8,0.9-1.2,1.3c-1.2,1.4-2.3,2.9-3.4,4.2c-1,0.2-1.8,0.3-2.7,0.5c-0.3-0.2-0.7-0.4-0.9-0.6c-1-1.3-1.9-2.5-2.9-3.8
	c-0.5-0.7-0.8-1.6-1.4-2.1c-2.6-2.3-2.9-5.3-3.1-8.4c-0.2-2.3-0.1-4.7-0.3-7c-0.3-3.2,0.1-6.4,0.2-9.5c0.1-3,1.1-5.5,3-7.7
	c1.3-1.5,2.6-3,3.9-4.4c2.1-2.3,4.6-4,7.2-5.7c1.5-1,2.9-1.1,4.6-0.4c0.4,1,0.8,2,1.3,3c0.4,0.9,0.9,1.8,1.3,2.6
	c0.9,2.1,2.4,3.6,4.2,5c1.3,1,2.7,1,4.2,0.6c0.6-0.2,1.2-1,1.2-1.7c0-0.2,0-0.5,0-0.7c-0.8-3.6-1.4-7.2-2.3-10.8
	c-0.9-3.3-1.6-6.7-2.3-10c-1.8-1.4-3.5-2.8-5.6-3.5c-0.2-0.1-0.4-0.2-0.7-0.3c-5.6-3.3-10.3-7.5-13.4-13.3
	c-2.1-3.8-3.6-7.8-3.9-12.2c-0.1-1-0.1-1.9,0-2.9c0.2-2,0.3-3.9,0.4-5.9c0.1-1.5,0.4-3,1-4.3c1.5-3,2.5-6.1,4.1-9
	c1.1-2.1,2.4-4,4.1-5.6c0.4-0.4,0.9-0.8,1.4-1.2c0.8-0.8,1.2-1.8,1.1-3c0-0.5-0.1-1-0.1-1.5c-0.3-5.2,1-10,3.5-14.5
	c1.3-2.4,3.3-4.2,5.3-6.1c2.4-2.4,5.3-3.9,8.3-5.3c1-0.5,1.9-1.1,2.7-1.9c0-3.8,1.5-7.2,3.5-10.3c1.4-2.2,2.7-4.4,4.1-6.6
	c1.1-1.8,2.3-3.5,3.9-4.8c0.3-0.2,0.5-0.5,0.8-0.8c0.6-0.6,0.5-1.7-0.2-2.3c-0.2-0.2-0.4-0.4-0.6-0.4c-1.6-0.3-2.9-1.3-4.5-2
	c-2.7,1.2-4.5,3.3-5.9,5.8c-0.4,0.6-0.6,1.4-0.9,2c-1.8,3.3-4,6.2-7,8.4c-1,0.8-2.2,1.1-3.4,1.1c-2.8,0-5.4-0.8-7.7-2.1
	c-1.6-0.9-2.9-2.3-3.9-3.9c-0.7-1-1.2-2.2-1.6-3.3c-0.9-2.5-0.3-5.3,1.8-7c1.5-1.2,3.1-2.4,4.8-3.3c1.5-0.8,2.9-1.7,4.4-2.6
	c2.9-1.8,5.9-3.5,9.1-4.8c0.8-0.3,1.8-0.5,2.3-1.1c1.4-1.7,3.2-1.6,5-1.6c0.5,0,1,0.1,1.4,0.2c1,1.4,2.1,2.7,3,4.2
	c0.6,0.9,0.9,2,1.1,3.1c0.5,2.1,1.9,3.4,3.5,4.5c0.6,0.4,1.3,0.6,2.1,0.7c1.2,0.2,2.4,0.2,3.6,0.4c0.2-0.1,0.5-0.1,0.7-0.3
	c2.9-3,6.7-3.9,10.6-4.5c2.2-0.3,4.4-0.6,6.6-0.9c0.4,0,0.8-0.2,1.1-0.1c1.8,0.5,3.6,0.1,5.5-0.1c1.9-0.3,3.9-0.3,5.9-0.2
	c1.5,0.1,2.9,0.5,4.3,0.8c1.5,0.3,2.8,0.7,4.1,1.5c0.7,0.5,1.6,0.6,2.4,0.9c2,0.6,4,1.2,5.6,2.7c0.9,0.9,2.2,1.1,3.3,1.5
	c2.2,0.8,4.4,1.6,6.5,2.6c2.7,1.2,5.1,3,7.3,4.9c0.8,0.7,1.7,1.4,2.5,2.1c0.6,0.5,1.4,0.6,2.1,0.5c1.1-0.2,2.2-0.5,3.2-0.7
	c1-0.2,1.9-0.6,2.5-1.4c1.5-1.7,3.7-2.3,5.5-3.5c1.3-0.9,2.9-0.5,4.2,0.2c0.8,0.4,1.5,0.9,2.1,1.5c1.6,2,3.4,3.9,4.4,6.3
	c0.9,2.2,1.2,4.5,0.1,6.9c1.4,0.7,2.7,0.6,4,0.2c0.5-0.2,0.8-0.6,0.9-1.1c0.2-1.2,0.4-2.4,0.4-3.7c0-1.8,0.4-3.4,0.8-5.1
	c0.2-0.9,0.5-1.9,0.6-2.9c0.3-2.1,1.5-3.9,2.7-5.6c1.2-1.6,2.1-3.3,3-4.9c-0.3-2-1.7-3.3-2.3-5.1c-0.5-1.7-1.5-3.1-2.3-4.4
	c-2-1.2-4-0.8-5.8-0.2c-1.6,0.5-3.1,1.5-3.9,3.2c-0.7,1.4-1.5,2.8-2.2,4.2c-0.9,2-2.1,3.9-3.8,5.3c-3,2.5-5.9,1.8-8.4,0
	c-1-0.7-1.8-1.7-2.9-2.3c-2.5-1.3-4.3-3.2-5.7-5.6c-0.2-0.3-0.4-0.6-0.7-0.9c-2.6-3.3-3.1-7.1-2.8-11.1c0.2-1.9,1.2-3.2,3-3.8
	c1.7-0.7,3.5-1.1,5.4-0.9c1.2,0.1,2.4,0,3.7,0.1c3.1,0.1,6.1,0.1,9.2,0.3c1,0.1,1.9,0,2.9-0.1c2-0.2,3.9-0.3,5.9-0.4
	c1.4-0.1,2.7,0.3,4,0.7c1.5,0.5,2.6,1.4,3.3,2.8c0.2,0.4,0.4,0.9,0.5,1.4c0.1,0.7,0,1.5,0.1,2.2c0.1,3.7,1.1,6.5,3.2,8.7
	c1.1,1.2,2,2.5,3.6,3.3c1.4,0.1,2.9-0.2,4.1-1c2.1-1.3,4.5-2,7-2.2c2.3-0.3,4.3-1.1,6.2-2.2c2.7-1.5,5.5-2.7,8.4-3.6
	c0.7-0.2,1.4-0.4,2.1-0.7c2.9-1.4,6.1-2,9.2-2.3c2.8-0.3,5.6-0.6,8.4-0.8c0.9-0.1,1.7-0.1,2.6,0c5.5,0.5,11,0.2,16.6,0.5
	c2.7,0.1,5.4,0.5,8,1.3c2.8,0.8,5.7,1.5,8.5,2.4c1.6,0.5,3.3,1,4.9,1.7c2.2,0.9,4.5,1.3,6.8,1.6c0.7,0.1,1.5,0.1,2.1-0.4
	c0.1-0.1,0.2-0.1,0.3-0.2c1.1-0.5,2.5-0.1,3.5-1c1.2-1.1,2.4-2.1,3.4-3.3c1.1-1.3,2-2.8,2.9-4.3c0.6-1,1.2-1.8,2.1-2.5
	c0.9-0.8,1.6-1.9,2.5-2.6c1-0.7,1.8-1.6,2.5-2.7c0.5-0.8,1.2-1.2,2.1-1.4c1.9-0.4,3.8-0.8,5.8-1.1c0.5-0.1,1,0.1,1.5,0.2
	c0.6,0.1,1.2,0.4,1.8,0.6c4.5,1.6,9,3.2,13.6,4.5c1.7,0.5,3.1,1.3,4.4,2.5c2.5,2.2,3.1,6.2,0.9,8.9c-2.7,3.5-5.7,6.8-9,9.7
	c-1.6,1.4-4.3,1.2-5.6-0.5c-1.3-1.7-2.8-3.4-3.7-5.5c-0.7-1.9-1.8-3.5-3.7-4.4c-0.4-0.2-0.8-0.6-1.1-0.9c-1-0.8-2.2-1.2-3.4-1.3
	c-1.5-0.1-2.9-0.3-4.4-0.3c-1.6,0-3.1,0.6-4.4,1.6c-2.1,1.6-4.2,3.4-6.2,5.2c-0.6,0.6-1.3,1.2-1,2.4c2.1,1.4,4.3,3,6.3,4.8
	c2.6,2.3,4,5.2,4.8,8.5c0.1,0.6,0.2,1.2,0.4,1.8c0.9,3,1.4,6,1.1,8.9c0.5,0.9,1.2,1.1,1.8,1.4c2,1,3.8,2.2,5.5,3.7
	c1.4,1.2,2.9,2.2,4.5,3.4c1.8-0.8,3.7-1.5,5.4-2.3c1.2-0.5,2.5-0.9,3.9-1.1c1.1-0.1,2.2-0.5,3.2-0.7c2.8-0.6,5.6-0.4,8.3,0.6
	c1.7,0.7,2.9,1.7,3.3,3.7c0.2,1,0.6,1.8,0.9,2.8c0.6,1.7,1.2,3.5,1.8,5.5c1.8,1.3,3.6,2.9,5,4.9c3.3,0.4,6.2,0.1,9-1.5
	c1.5-0.8,3.1-1.5,4.7-2.1c0.9-0.3,1.8-0.7,2.7-1.1c2-1,3.9-2,6.1-2.5c0.5-0.1,0.9-0.3,1.4-0.5c3.8-2.3,7.9-2.3,12.1-2.2
	c0.7,0,1.5,0.1,2.2,0.1c2.7,0,5.4,0.2,8,1c1.1,0.3,2.2,0.5,3.2,0.7c1.1,0.2,2.2,0.5,3.2,0.9c1.3,0.6,2.7,1.1,4.3,1.3
	c3-1,5.6-2.9,8.2-4.7c1-0.7,1.8-1.7,2.4-2.8c1.2-2,2.5-3.9,3.7-5.9c0.5-0.8,1-1.4,1.8-1.8c0.1-0.1,0.2-0.1,0.3-0.2
	c3.4-2.7,7.2-2.9,11.1-1.6c4.3,1.4,8.6,2.8,12.8,4.6c0.3,0.1,0.7,0.3,1,0.5c1.7,0.9,2.4,2.4,1.8,4.4c-0.5,1.9-1.3,3.7-2.6,5.2
	c-1.6,1.8-3.2,3.8-5.3,5.1c-0.9,0.6-1.9,1.1-2.9,1.5c-1.6,0.6-3.1,0.5-4.5-0.7c-0.4-0.3-0.9-0.6-1.1-1c-0.7-1.6-2.3-2.6-3.2-4
	c-2-2.9-4.9-3.2-7.9-2.4c-2.5,0.7-4.9,1.6-6.8,3.5c-1,1-2.2,1.8-3.1,3c0.7,1.2,1.6,2,2.6,2.7c1.3,0.8,2.3,1.9,3.2,3
	c1.4,1.7,2.9,3.4,4.5,4.9c1.3,1.3,2.4,2.7,3.2,4.5c0.9,1.9,2.1,3.6,3.3,5.3c1.5,0.5,2.9,1.3,4.5,1.5c3,0.4,5.2,2.2,7.2,4.2
	s3.6,4.3,4.3,7.2c0.3,1.3,0.9,2.5,1.4,3.8c0.7,2,2,3.4,4.1,3.8c0.6,0.1,1.2,0.3,1.8,0.5c2,0.8,3.7,1.9,4.8,3.8c1.9,3,4,5.9,5,9.4
	c0.7,2.4,1.1,4.8,1.3,7.2c0.1,1,0.1,2,0.5,2.9c0.9,2.1,1.2,4.2,1.7,6.4c0.2,1,0.3,1.9,1,2.7c0.2,0,0.5,0,0.7-0.1
	c1.4-1.3,2.9-2.7,4.3-4c1.7-1.7,3.6-3.3,5-5.3c1.7-2.4,4.1-4.2,6.1-6.4c0.5-0.5,1.2-0.9,1.7-1.4c0.7-0.5,1.4-1,1.9-1.7
	c0.7-0.8,1.4-1.7,2.4-2.2c0.1-0.1,0.2-0.1,0.3-0.2c2-2.9,5.1-4.5,7.7-6.8c1-0.9,1.8-2,2.8-2.8s2.5-1.1,3.4-2.1
	c1.4-1.4,3.1-2.4,4.8-3.3c0.4-0.2,0.9-0.4,1.4-0.6c2.1,0.9,4.1,2.1,5.9,3.6c0.9,0.7,1.7,1.5,2.6,2c1.8,1,2.2,2.6,2.2,4.3
	c0,0.5-0.2,1-0.2,1.5c0,2.6-0.7,4.9-3,6.3c-0.2,2.5-0.4,4.8-0.6,7.1c0,0.4-0.4,0.5-0.9,0.5c-0.1-0.4-0.2-0.9-0.2-1.4
	c0.1-1.2-0.5-2.1-1.1-3c-1-1.4-2.4-1.7-3.9-0.8c-2,1.3-3,3.2-3,5.6c0,0.2,0.1,0.5,0.2,0.7c0.2,0.4,0.4,0.9,0.7,1.3
	c0.2,0.3,0.6,0.5,0.8,0.7c1.2-0.3,2.4-0.6,3.6-0.9c1.4-0.3,2.7,0,4,0.4c1.1,0.4,1.9,1,2.5,2c1.4,2.2,1.2,5.2-0.4,7.2
	c-0.6,0.8-1.4,1.3-2.5,1.5c-1.9,0.2-3.9,0.4-5.8,1.1c-0.2,0.1-0.5,0-0.7-0.1c-1.3-0.1-1.8,0.5-1.9,1.7c-0.4,0.1-0.7,0.3-0.7,0.7
	c0,0.3-0.1,0.8,0.1,1.1c0.8,1.2,1.9,1.8,3.4,1.6c0.5-0.1,0.9-0.5,1-1c0-0.4-0.3-1.1-0.7-1.2c-0.6-0.1-1.2-0.1-1.8-0.2
	c-0.7-0.1-1.1-0.5-1.3-1.1c1.6-0.6,3.3-0.7,5-0.6c3.6,0,5.8,4,5.3,6.6c-0.4,1.8-1,3.5-2,5.1c-0.8,1.2-1.6,2.4-2.3,3.6
	c0.6,1.1,1.4,1.1,2.3,0.7c0.5-0.2,1-0.7,1.5-1.1c1.2-1,2.5-2,3.7-3c0.3-0.3,1,0.1,1.1,0.6c0.1,0.4,0.1,0.7-0.2,1v0.2
	c-0.2,1.2-0.3,2.2-0.1,3.4c0.5,2.5,1.9,3.8,4.5,4.1c1.8,0.2,3.7,0,5.5-0.3c0.2,0,0.5,0.1,0.6,0.3c0.1,0.2,0,0.5-0.1,0.6
	c-0.2,0.3-0.5,0.5-0.8,0.7c-1.7,1.4-3.5,2.7-5.4,3.7c-0.6,0.3-1.4,0.5-1.8,1.4c0.5,1.7,1.5,3.2,2.3,4.9c0.2,0.4,0.4,0.9,0.5,1.4
	c0,0.1-0.3,0.5-0.4,0.4c-1.9-0.6-3.7-1.2-5.3-2.3L490.9,300z M318.4,196.9c-3-4.8-6.7-8.1-11.3-8.1c-2.7,0.5-4.3,2.6-6.5,3.6
	c-0.7,0.3-1.2,0.8-1.8,1.3c-0.9,0.7-1.7,1.4-2.6,2.1c-0.5,0.4-0.8,0.9-1.2,1.4c-0.5,0.7-0.3,1.7,0.6,2.2c0.7,0.3,1.4,0.5,2,0.9
	c0.5,0.3,1.1,0.6,1.5,1c1.7,1.8,3.4,3.6,5,5.3c0.3,0.3,0.7,0.6,1.3,1.1C308.9,202.8,313.3,199.5,318.4,196.9z M126.2,179.2
	c1.6,1.3,3.2,2.6,5.3,3.4c1.5-1.7,3.5-2.6,5.5-3.5c0.4-0.2,0.8-0.5,1-1.2c-0.3-0.7-0.7-1.6-1.1-2.5c-0.6-1.7-1.8-2.9-3.1-4
	c-1.7-1.3-3.5-1.6-5.5-0.9c-0.9,0.3-1.8,0.7-2.7,1.1c-0.3,0.1-0.5,0.5-0.8,0.9c0.3,1,0.8,2,1,3.1C126.1,176.7,126.1,178,126.2,179.2
	z"/>
<path fill="#010101" d="M490.9,300c-2.5-0.3-2.6-0.2-3,2.1s-1,4.5-0.8,6.9c0,0.8-1,1.2-1.6,0.8c-1.1-0.7-2.2-1.6-2.9-2.8
	c-0.8-1.3-2-2.2-3.3-2.8c-0.7-0.3-1.4-0.4-2.1,0c-0.9,0.4-1.8,0.9-2.6,1.4c-0.5,0.3-0.9,0.8-1.2,1.3c-0.7,1-1.3,2.1-2,3.1
	c-0.3,0.4-0.7,0.6-1.1,0.9c-0.2,0.2-0.8-0.1-0.9-0.4c-0.1-0.3-0.3-0.7-0.3-1c0.1-1.1,0.2-2.2,0.3-3.3c0.1-0.8,0.2-1.7,0.3-2.5
	c0.1-1.8-0.5-3.1-2.2-3.9c-0.6-0.3-1.1-0.6-1.5-1c-1.1-1.3-2.6-1.3-4.1-1.1c-1.2,0.2-2.4,0.3-3.6,0.4c-0.5,0-0.9-0.2-1.4-0.3
	c-0.3-0.1-0.5-0.7-0.3-0.9c1-1.1,2.2-1.9,3.6-2.5c1.5-0.6,2.9-1.4,4.3-2c1.2-0.5,2.1-1.3,2.4-2.6c0.4-1.5,1.6-2.4,2.4-3.7
	c-0.5-2-0.9-4.1-1.4-6.1c-0.1-0.6-0.3-1.2-0.3-1.8c-0.1-0.8,0.4-1.8,0.9-1.8c0.7,0,1.2,0.3,1.6,0.7c0.3,0.3,0.5,0.5,0.7,0.8
	c1.3,1.9,3.2,2.9,5.5,3.9c-1.1-2.3-2.4-4.4-0.3-6.7c0.4,1.3,0.7,2.5,1,3.7c0.3,1.1,0.8,1.3,1.9,0.9c0.7-0.2,1.4-0.5,2.1-0.8
	c1-1.8,1.6-3.5,1-5.5c-0.3,0-0.4-0.1-0.5,0c-3.4,1.2-3.4,1.2-6.5-0.4c-0.5-0.3-1.2-0.5-1.6-0.8c-0.6-0.4-1.2-0.9-1.6-1.5
	c-1.3-1.8-1.2-3.6,0.1-5.1c1-1.2,2.3-2.3,3.8-2.8c0.7-0.2,1.4-0.4,2.1-0.4c1-0.1,1.9,0.3,2.5,1.3c0.2,0.4,0.6,0.7,0.8,1.1
	c1.3-0.1,2.1-0.9,2.7-1.9c0.7-1.1,0.8-2.3,0.6-3.5c-0.1-0.8-1.1-1.5-1.9-1.3c-0.6,0.1-1.2,0.3-1.7,0.6c-0.7,0.3-1.3,0.7-1.9,1
	c-0.2,0.5-0.4,0.9-0.6,1.4c-0.4,0.1-0.8,0-0.9-0.4c-0.1-0.5,0.1-0.9,0.1-1.4c0.1-0.6-0.1-1.1-0.5-1.2c-0.5-0.2-1-0.2-1.4-0.4
	c-2.6-1.1-4-3.2-4.3-5.9c-0.2-2,0.6-3.6,2-4.9c1.3-1.3,2.9-2.4,4.7-2.8c2-0.4,3.8-1.7,6-0.9c1-2.1,0.8-3.9,0-5.6
	c-0.4-0.8-1.2-1.2-2.2-1.4c-0.3,0.1-0.8,0.3-1.3,0.5c-0.8,0.4-1.3,1.1-1.4,2c-0.1,1.2,0.1,2.5-0.4,3.6c-0.6,0.4-1.2,0.4-1.6-0.2
	c-0.4-0.6-0.3-1.5-1.3-1.8c-0.8,0.7-1.8,1.2-2.4,2.1c-1.5,1.8-3.2,3.3-4.9,4.9c-1.5,1.4-3.3,2.6-4.1,4.7c-0.1,0.2-0.3,0.4-0.5,0.6
	c-4.3,4.3-7.6,9.3-10.8,14.4c-0.9,1.5-1.8,2.9-2.2,4.6c-0.1,0.4-0.2,0.7-0.4,1c-2.2,3.2-3.4,6.8-4.9,10.3c-1,2.2-1.8,4.6-2.4,6.9
	c-0.4,1.5-0.8,3.1-0.7,4.7c0.1,0.7-0.1,1.5-0.2,2.2c-0.1,0.6-0.5,1.2-1.1,1.4c-1.9,0.8-3.9,1.4-6.1,0.6c-0.8-0.3-1.7-0.6-2.2-1.2
	c-0.8-1-2-1.4-3.1-2c-1.2-0.6-2.4-1.2-3.4-2.2c-0.7-0.7-1.6-1.1-2.5-1.6c-1-0.6-1.7-1.4-2.3-2.3c-1.1-1.7-1.3-3.7-1.7-5.6
	c-0.2-1.3,0.4-2.4,1.3-3.3c1.5-1.4,3.1-2.7,4.7-4.1c0.8-0.8,2.4-1.3,1.9-2.8c-0.4-1.2-1.9-0.9-3-1.2c-2.7,1.5-5.5,3.1-8.2,4.6
	c-0.5,2-0.9,3.9-1,5.9c-0.1,3.2-1,6.3-1.6,9.4c-0.1,0.6-0.5,1.1-0.7,1.7c-0.4,0.9-0.9,1.7-1.3,2.6c-0.8,1.8-1.9,3.4-3.2,4.9
	c-1.8,2-3.6,4-5.9,5.6c-0.7,0.5-1.4,1-1.8,1.8c-0.2,0.4-0.5,0.8-0.9,1.2c-2.9,3.1-5,6.6-6,10.8c-0.5,2.3-1.4,4.4-1.5,6.8
	c0,0.3-0.4,0.5-0.7,0.8c-0.4,0.3-1.1,0-1.2-0.4c-0.3-1.2-0.6-2.4-0.8-3.6c-0.2-2.2-1.2-4.3-1.6-6.4c0-0.2-0.1-0.5-0.2-0.7
	c-0.5-1.2-1.4-2-2.8-2c-0.5,0-1,0-1.5,0c-2.9,0.3-5.6-0.4-8.3-1.3c-0.3-0.1-0.7-0.2-1-0.4c-1.2-0.6-2.3-0.5-3.5,0.2
	c-0.9,0.6-2,1-2.9,1.6c-2.8,1.6-5.9,2.4-9.1,2.5c-1,0-2,0-2.9,0c-1.7,0.1-3.4-0.2-5.1-0.7c-2.3-0.7-4.6-1.6-7.1-1.8
	c-3.2-1.1-6.5-2.3-9-4.8c-1.1-1.1-2.2-2.4-3.8-3c-0.4,0.1-0.9,0.3-1.4,0.4c-0.8,0.2-1.3,0.6-1.6,1.4c-0.6,1.3-1.2,2.7-1.7,4.1
	c-1.5,4-2.6,8.2-3.9,12.3c-0.1,0.2-0.2,0.5-0.2,0.7c0,2.1-0.7,4.1-1.1,6.1c-0.3,1.6-1.1,1.9-2.6,1.2c-0.4-0.2-0.8-0.6-1.3-0.9
	c-0.5-3.4-2.2-6.5-3.2-9.7c-0.7-2.1-1.4-4.2-2-6.3c-0.6-2.1-1.5-4.2-2.3-6.2c-1.6-1.1-3.2-1.9-5-2.4c-1.1-0.3-2.1-0.8-2.9-1.6
	c-2.4-2.5-5.3-4.3-8.1-6.3c-0.7-0.5-1.4-0.5-2.1-0.2c-0.4,0.2-0.9,0.4-1.3,0.6c-1.7,0.8-3.4,1.4-5.3,1.4c-0.6,0-1.2,0.1-1.7,0.2
	c-1.8,1.1-2.9,2.6-3.9,4.1c-1.4,2-2.9,3.9-4,6.1c-0.3,0.7-0.8,1.3-1.2,1.9c-1.3,1.8-2.2,3.8-3,5.9c-0.8,2.1-1.6,4.1-2.5,6.1
	c-1.6,3.5-2.5,7.1-3.6,10.8c-0.3,1.1-0.5,2.1,0,3.2c0.3,0.5-0.2,0.9-0.6,1.2c-0.5,0.3-1.1,0.5-1.9,0.3c-0.8-1.3-1.1-2.9-1.6-4.3
	c-0.5-1.5-0.7-3.1-1.2-4.6c-0.5-1.6-0.9-3.3-2-4.7c-0.7-1-1.1-2.2-1.7-3.3c-0.4-0.8-1.1-1.3-2-1.5c-1-0.2-1.9-0.5-2.9-0.3
	c-3.3,0.5-6.6,0.1-9.9,0.1c-2.9,0-5.9-0.4-8.7-1.2c-0.6-0.2-1.2-0.3-1.7-0.6c-2.7-1.4-5.6-1.9-8.5-2.4c-1.3-0.2-2.7-0.5-4-0.7
	c-0.5-0.1-1-0.2-1.4-0.5c-1.8-1.1-3.7-2-5.6-2.8c-1-0.4-1.9-1.2-2.7-1.9c-1-0.9-2.2-1.5-3.4-2.2c-3.7,1.3-7.5,2.3-10.9,4.4
	c-0.6,0.4-1.4,0.6-2.1,0.7c-1.9,0.3-3.9,0.5-5.8,0.9c-3.5,0.7-7.1,0.6-10.6,0.5c-0.7,0-1.5,0-2,0c-0.9,0.4-1.3,1-1.6,1.7
	c-1.7,3.2-4.2,5.8-5.6,9.1c-1.5,1.8-2.3,4-3.4,6.1c-0.6,1.2-1.3,2.4-2,3.5c-0.4,0.6-0.9,0.8-1.6,0.6c-0.3-0.1-0.7-0.2-1-0.4
	c-0.6-0.9-0.4-1.9-0.4-2.9c0.2-4.2-1.1-8.3-1.7-12.4c-1.1-2.5-1.5-5.2-2.2-7.8c-0.4-1.4-1.4-2.6-1.4-4.2c-1.3-0.6-2.4-1.3-3.3-2.3
	c-0.6-0.7-1.5-1.2-2.3-1.9c-0.5-0.4-1.1-0.7-1.4-1.1c-0.8-1.2-1.9-1.9-3.1-2.5c-0.7-0.3-1.2-0.8-1.7-1.3c-2.3-2.7-4.8-5.3-6.4-8.5
	c-0.2-0.3-0.4-0.6-0.7-0.9c-1-1.2-1.6-1.4-3.2-0.7c-0.3,0.1-0.6,0.3-1,0.5c-1.1,1.7-1.7,3.5-2.4,5.4c-0.7,2-1.2,4-1.9,6
	c-1.1,2.9-1.8,5.9-2.3,8.9c-0.3,2-0.2,4.1-0.3,6.3c-0.3,0.4-0.7,0.6-1.2,0.6c-0.7-0.8-1-2-2-2.6c-0.3-0.2-0.4-0.6-0.6-0.9
	c-1-2.8-2-5.5-2.8-8.4c-0.7-2.4-2.1-4.4-3.4-6.5c-0.2-0.4-0.6-0.7-1-1.1c-0.8-0.8-1.8-1.3-3-1.2c-0.5,0.1-1,0.1-1.5,0.1
	c-1.9-0.1-3.7-0.3-5.4-1.2c-0.5-0.3-1.1-0.5-1.7-0.8c-1.2-0.5-2.4-0.4-3.4,0.6c-1.8,1.8-4,2.9-6.4,3.5c-2.2,0.6-4.4,1.4-6.8,1.6
	c-0.5,0-1,0.2-1.4,0.3c-0.5,0.2-0.9,0.4-1.3,0.6c-0.7,1.1-1,2.3-1.2,3.5c-0.4,2.8-0.9,5.6-1.3,8.4c-0.2,1.5,0,2.9,0.2,4.4
	c0.1,0.8,0.3,1.7,0.4,2.6c-0.3,0.4-0.6,0.8-0.9,1.1c-1.4,1.2-2.8,1.1-3.7-0.4c-0.7-1.2-1.3-2.4-1.8-3.6c-0.5-1.3-1.1-2.4-2-3.5
	c-0.7-1-1.4-2-2-3.1c-1.8-3.1-4.1-5.8-6.5-8.4c-1.5-1.7-3.5-2.7-5.5-3.5c-1.9-0.8-3.9-1.5-5.8-2.2c-0.2-0.1-0.5,0.1-0.7,0.2
	c-0.3,0.1-0.2,0.7,0,0.9c0.3,0.2,0.5,0.5,0.8,0.7s0.7,0.3,1,0.6c1.3,1,2.2,2.2,2.6,3.9c0.6,2.4,1.2,4.8,1.7,7.2
	c0.5,2.4,0.5,4.9,0.4,7.3c0,0.8-0.3,1.7-0.6,2.5c-0.6,1.4-1.6,2-2.9,1.5c-3.6-1.2-3.7-0.1-6,1.4c-0.4,0.3-0.7,0.6-1,0.9
	c-2.5,0.1-4.8,0.3-7.1,0.4c-0.5,0-1,0.1-1.5,0.1c-1.6,0-2.9-0.5-3.2-2.3c0-0.2-0.3-0.4-0.4-0.6c-0.2-0.1-0.4-0.3-0.6-0.4
	c-3.9-1-2.9-1-6.7,0.6c-3,1.3-5.6,3.1-8,5.2c-0.5,0.4-0.8,0.9-1.2,1.3c-1.2,1.4-2.3,2.9-3.4,4.2c-1,0.2-1.8,0.3-2.7,0.5
	c-0.3-0.2-0.7-0.4-0.9-0.6c-1-1.3-1.9-2.5-2.9-3.8c-0.5-0.7-0.8-1.6-1.4-2.1c-2.6-2.3-2.9-5.3-3.1-8.4c-0.2-2.3-0.1-4.7-0.3-7
	c-0.3-3.2,0.1-6.4,0.2-9.5c0.1-3,1.1-5.5,3-7.7c1.3-1.5,2.6-3,3.9-4.4c2.1-2.3,4.6-4,7.2-5.7c1.5-1,2.9-1.1,4.6-0.4
	c0.4,1,0.8,2,1.3,3c0.4,0.9,0.9,1.8,1.3,2.6c0.9,2.1,2.4,3.6,4.2,5c1.3,1,2.7,1,4.2,0.6c0.6-0.2,1.2-1,1.2-1.7c0-0.2,0-0.5,0-0.7
	c-0.8-3.6-1.4-7.2-2.3-10.8c-0.9-3.3-1.6-6.7-2.3-10c-1.8-1.4-3.5-2.8-5.6-3.5c-0.2-0.1-0.4-0.2-0.7-0.3
	c-5.6-3.3-10.3-7.5-13.4-13.3c-2.1-3.8-3.6-7.8-3.9-12.2c-0.1-1-0.1-1.9,0-2.9c0.2-2,0.3-3.9,0.4-5.9c0.1-1.5,0.4-3,1-4.3
	c1.5-3,2.5-6.1,4.1-9c1.1-2.1,2.4-4,4.1-5.6c0.4-0.4,0.9-0.8,1.4-1.2c0.8-0.8,1.2-1.8,1.1-3c0-0.5-0.1-1-0.1-1.5
	c-0.3-5.2,1-10,3.5-14.5c1.3-2.4,3.3-4.2,5.3-6.1c2.4-2.4,5.3-3.9,8.3-5.3c1-0.5,1.9-1.1,2.7-1.9c0-3.8,1.5-7.2,3.5-10.3
	c1.4-2.2,2.7-4.4,4.1-6.6c1.1-1.8,2.3-3.5,3.9-4.8c0.3-0.2,0.5-0.5,0.8-0.8c0.6-0.6,0.5-1.7-0.2-2.3c-0.2-0.2-0.4-0.4-0.6-0.4
	c-1.6-0.3-2.9-1.3-4.5-2c-2.7,1.2-4.5,3.3-5.9,5.8c-0.4,0.6-0.6,1.4-0.9,2c-1.8,3.3-4,6.2-7,8.4c-1,0.8-2.2,1.1-3.4,1.1
	c-2.8,0-5.4-0.8-7.7-2.1c-1.6-0.9-2.9-2.3-3.9-3.9c-0.7-1-1.2-2.2-1.6-3.3c-0.9-2.5-0.3-5.3,1.8-7c1.5-1.2,3.1-2.4,4.8-3.3
	c1.5-0.8,2.9-1.7,4.4-2.6c2.9-1.8,5.9-3.5,9.1-4.8c0.8-0.3,1.8-0.5,2.3-1.1c1.4-1.7,3.2-1.6,5-1.6c0.5,0,1,0.1,1.4,0.2
	c1,1.4,2.1,2.7,3,4.2c0.6,0.9,0.9,2,1.1,3.1c0.5,2.1,1.9,3.4,3.5,4.5c0.6,0.4,1.3,0.6,2.1,0.7c1.2,0.2,2.4,0.2,3.6,0.4
	c0.2-0.1,0.5-0.1,0.7-0.3c2.9-3,6.7-3.9,10.6-4.5c2.2-0.3,4.4-0.6,6.6-0.9c0.4,0,0.8-0.2,1.1-0.1c1.8,0.5,3.6,0.1,5.5-0.1
	c1.9-0.3,3.9-0.3,5.9-0.2c1.5,0.1,2.9,0.5,4.3,0.8c1.5,0.3,2.8,0.7,4.1,1.5c0.7,0.5,1.6,0.6,2.4,0.9c2,0.6,4,1.2,5.6,2.7
	c0.9,0.9,2.2,1.1,3.3,1.5c2.2,0.8,4.4,1.6,6.5,2.6c2.7,1.2,5.1,3,7.3,4.9c0.8,0.7,1.7,1.4,2.5,2.1c0.6,0.5,1.4,0.6,2.1,0.5
	c1.1-0.2,2.2-0.5,3.2-0.7c1-0.2,1.9-0.6,2.5-1.4c1.5-1.7,3.7-2.3,5.5-3.5c1.3-0.9,2.9-0.5,4.2,0.2c0.8,0.4,1.5,0.9,2.1,1.5
	c1.6,2,3.4,3.9,4.4,6.3c0.9,2.2,1.2,4.5,0.1,6.9c1.4,0.7,2.7,0.6,4,0.2c0.5-0.2,0.8-0.6,0.9-1.1c0.2-1.2,0.4-2.4,0.4-3.7
	c0-1.8,0.4-3.4,0.8-5.1c0.2-0.9,0.5-1.9,0.6-2.9c0.3-2.1,1.5-3.9,2.7-5.6c1.2-1.6,2.1-3.3,3-4.9c-0.3-2-1.7-3.3-2.3-5.1
	c-0.5-1.7-1.5-3.1-2.3-4.4c-2-1.2-4-0.8-5.8-0.2c-1.6,0.5-3.1,1.5-3.9,3.2c-0.7,1.4-1.5,2.8-2.2,4.2c-0.9,2-2.1,3.9-3.8,5.3
	c-3,2.5-5.9,1.8-8.4,0c-1-0.7-1.8-1.7-2.9-2.3c-2.5-1.3-4.3-3.2-5.7-5.6c-0.2-0.3-0.4-0.6-0.7-0.9c-2.6-3.3-3.1-7.1-2.8-11.1
	c0.2-1.9,1.2-3.2,3-3.8c1.7-0.7,3.5-1.1,5.4-0.9c1.2,0.1,2.4,0,3.7,0.1c3.1,0.1,6.1,0.1,9.2,0.3c1,0.1,1.9,0,2.9-0.1
	c2-0.2,3.9-0.3,5.9-0.4c1.4-0.1,2.7,0.3,4,0.7c1.5,0.5,2.6,1.4,3.3,2.8c0.2,0.4,0.4,0.9,0.5,1.4c0.1,0.7,0,1.5,0.1,2.2
	c0.1,3.7,1.1,6.5,3.2,8.7c1.1,1.2,2,2.5,3.6,3.3c1.4,0.1,2.9-0.2,4.1-1c2.1-1.3,4.5-2,7-2.2c2.3-0.3,4.3-1.1,6.2-2.2
	c2.7-1.5,5.5-2.7,8.4-3.6c0.7-0.2,1.4-0.4,2.1-0.7c2.9-1.4,6.1-2,9.2-2.3c2.8-0.3,5.6-0.6,8.4-0.8c0.9-0.1,1.7-0.1,2.6,0
	c5.5,0.5,11,0.2,16.6,0.5c2.7,0.1,5.4,0.5,8,1.3c2.8,0.8,5.7,1.5,8.5,2.4c1.6,0.5,3.3,1,4.9,1.7c2.2,0.9,4.5,1.3,6.8,1.6
	c0.7,0.1,1.5,0.1,2.1-0.4c0.1-0.1,0.2-0.1,0.3-0.2c1.1-0.5,2.5-0.1,3.5-1c1.2-1.1,2.4-2.1,3.4-3.3c1.1-1.3,2-2.8,2.9-4.3
	c0.6-1,1.2-1.8,2.1-2.5c0.9-0.8,1.6-1.9,2.5-2.6c1-0.7,1.8-1.6,2.5-2.7c0.5-0.8,1.2-1.2,2.1-1.4c1.9-0.4,3.8-0.8,5.8-1.1
	c0.5-0.1,1,0.1,1.5,0.2c0.6,0.1,1.2,0.4,1.8,0.6c4.5,1.6,9,3.2,13.6,4.5c1.7,0.5,3.1,1.3,4.4,2.5c2.5,2.2,3.1,6.2,0.9,8.9
	c-2.7,3.5-5.7,6.8-9,9.7c-1.6,1.4-4.3,1.2-5.6-0.5c-1.3-1.7-2.8-3.4-3.7-5.5c-0.7-1.9-1.8-3.5-3.7-4.4c-0.4-0.2-0.8-0.6-1.1-0.9
	c-1-0.8-2.2-1.2-3.4-1.3c-1.5-0.1-2.9-0.3-4.4-0.3c-1.6,0-3.1,0.6-4.4,1.6c-2.1,1.6-4.2,3.4-6.2,5.2c-0.6,0.6-1.3,1.2-1,2.4
	c2.1,1.4,4.3,3,6.3,4.8c2.6,2.3,4,5.2,4.8,8.5c0.1,0.6,0.2,1.2,0.4,1.8c0.9,3,1.4,6,1.1,8.9c0.5,0.9,1.2,1.1,1.8,1.4
	c2,1,3.8,2.2,5.5,3.7c1.4,1.2,2.9,2.2,4.5,3.4c1.8-0.8,3.7-1.5,5.4-2.3c1.2-0.5,2.5-0.9,3.9-1.1c1.1-0.1,2.2-0.5,3.2-0.7
	c2.8-0.6,5.6-0.4,8.3,0.6c1.7,0.7,2.9,1.7,3.3,3.7c0.2,1,0.6,1.8,0.9,2.8c0.6,1.7,1.2,3.5,1.8,5.5c1.8,1.3,3.6,2.9,5,4.9
	c3.3,0.4,6.2,0.1,9-1.5c1.5-0.8,3.1-1.5,4.7-2.1c0.9-0.3,1.8-0.7,2.7-1.1c2-1,3.9-2,6.1-2.5c0.5-0.1,0.9-0.3,1.4-0.5
	c3.8-2.3,7.9-2.3,12.1-2.2c0.7,0,1.5,0.1,2.2,0.1c2.7,0,5.4,0.2,8,1c1.1,0.3,2.2,0.5,3.2,0.7c1.1,0.2,2.2,0.5,3.2,0.9
	c1.3,0.6,2.7,1.1,4.3,1.3c3-1,5.6-2.9,8.2-4.7c1-0.7,1.8-1.7,2.4-2.8c1.2-2,2.5-3.9,3.7-5.9c0.5-0.8,1-1.4,1.8-1.8
	c0.1-0.1,0.2-0.1,0.3-0.2c3.4-2.7,7.2-2.9,11.1-1.6c4.3,1.4,8.6,2.8,12.8,4.6c0.3,0.1,0.7,0.3,1,0.5c1.7,0.9,2.4,2.4,1.8,4.4
	c-0.5,1.9-1.3,3.7-2.6,5.2c-1.6,1.8-3.2,3.8-5.3,5.1c-0.9,0.6-1.9,1.1-2.9,1.5c-1.6,0.6-3.1,0.5-4.5-0.7c-0.4-0.3-0.9-0.6-1.1-1
	c-0.7-1.6-2.3-2.6-3.2-4c-2-2.9-4.9-3.2-7.9-2.4c-2.5,0.7-4.9,1.6-6.8,3.5c-1,1-2.2,1.8-3.1,3c0.7,1.2,1.6,2,2.6,2.7
	c1.3,0.8,2.3,1.9,3.2,3c1.4,1.7,2.9,3.4,4.5,4.9c1.3,1.3,2.4,2.7,3.2,4.5c0.9,1.9,2.1,3.6,3.3,5.3c1.5,0.5,2.9,1.3,4.5,1.5
	c3,0.4,5.2,2.2,7.2,4.2s3.6,4.3,4.3,7.2c0.3,1.3,0.9,2.5,1.4,3.8c0.7,2,2,3.4,4.1,3.8c0.6,0.1,1.2,0.3,1.8,0.5
	c2,0.8,3.7,1.9,4.8,3.8c1.9,3,4,5.9,5,9.4c0.7,2.4,1.1,4.8,1.3,7.2c0.1,1,0.1,2,0.5,2.9c0.9,2.1,1.2,4.2,1.7,6.4
	c0.2,1,0.3,1.9,1,2.7c0.2,0,0.5,0,0.7-0.1c1.4-1.3,2.9-2.7,4.3-4c1.7-1.7,3.6-3.3,5-5.3c1.7-2.4,4.1-4.2,6.1-6.4
	c0.5-0.5,1.2-0.9,1.7-1.4c0.7-0.5,1.4-1,1.9-1.7c0.7-0.8,1.4-1.7,2.4-2.2c0.1-0.1,0.2-0.1,0.3-0.2c2-2.9,5.1-4.5,7.7-6.8
	c1-0.9,1.8-2,2.8-2.8s2.5-1.1,3.4-2.1c1.4-1.4,3.1-2.4,4.8-3.3c0.4-0.2,0.9-0.4,1.4-0.6c2.1,0.9,4.1,2.1,5.9,3.6
	c0.9,0.7,1.7,1.5,2.6,2c1.8,1,2.2,2.6,2.2,4.3c0,0.5-0.2,1-0.2,1.5c0,2.6-0.7,4.9-3,6.3c-0.2,2.5-0.4,4.8-0.6,7.1
	c0,0.4-0.4,0.5-0.9,0.5c-0.1-0.4-0.2-0.9-0.2-1.4c0.1-1.2-0.5-2.1-1.1-3c-1-1.4-2.4-1.7-3.9-0.8c-2,1.3-3,3.2-3,5.6
	c0,0.2,0.1,0.5,0.2,0.7c0.2,0.4,0.4,0.9,0.7,1.3c0.2,0.3,0.6,0.5,0.8,0.7c1.2-0.3,2.4-0.6,3.6-0.9c1.4-0.3,2.7,0,4,0.4
	c1.1,0.4,1.9,1,2.5,2c1.4,2.2,1.2,5.2-0.4,7.2c-0.6,0.8-1.4,1.3-2.5,1.5c-1.9,0.2-3.9,0.4-5.8,1.1c-0.2,0.1-0.5,0-0.7-0.1
	c-1.3-0.1-1.8,0.5-1.9,1.7c-0.4,0.1-0.7,0.3-0.7,0.7c0,0.3-0.1,0.8,0.1,1.1c0.8,1.2,1.9,1.8,3.4,1.6c0.5-0.1,0.9-0.5,1-1
	c0-0.4-0.3-1.1-0.7-1.2c-0.6-0.1-1.2-0.1-1.8-0.2c-0.7-0.1-1.1-0.5-1.3-1.1c1.6-0.6,3.3-0.7,5-0.6c3.6,0,5.8,4,5.3,6.6
	c-0.4,1.8-1,3.5-2,5.1c-0.8,1.2-1.6,2.4-2.3,3.6c0.6,1.1,1.4,1.1,2.3,0.7c0.5-0.2,1-0.7,1.5-1.1c1.2-1,2.5-2,3.7-3
	c0.3-0.3,1,0.1,1.1,0.6c0.1,0.4,0.1,0.7-0.2,1v0.2c-0.2,1.2-0.3,2.2-0.1,3.4c0.5,2.5,1.9,3.8,4.5,4.1c1.8,0.2,3.7,0,5.5-0.3
	c0.2,0,0.5,0.1,0.6,0.3c0.1,0.2,0,0.5-0.1,0.6c-0.2,0.3-0.5,0.5-0.8,0.7c-1.7,1.4-3.5,2.7-5.4,3.7c-0.6,0.3-1.4,0.5-1.8,1.4
	c0.5,1.7,1.5,3.2,2.3,4.9c0.2,0.4,0.4,0.9,0.5,1.4c0,0.1-0.3,0.5-0.4,0.4c-1.9-0.6-3.7-1.2-5.3-2.3L490.9,300z M318.4,196.9
	c-3-4.8-6.7-8.1-11.3-8.1c-2.7,0.5-4.3,2.6-6.5,3.6c-0.7,0.3-1.2,0.8-1.8,1.3c-0.9,0.7-1.7,1.4-2.6,2.1c-0.5,0.4-0.8,0.9-1.2,1.4
	c-0.5,0.7-0.3,1.7,0.6,2.2c0.7,0.3,1.4,0.5,2,0.9c0.5,0.3,1.1,0.6,1.5,1c1.7,1.8,3.4,3.6,5,5.3c0.3,0.3,0.7,0.6,1.3,1.1
	C308.9,202.8,313.3,199.5,318.4,196.9z M126.2,179.2c1.6,1.3,3.2,2.6,5.3,3.4c1.5-1.7,3.5-2.6,5.5-3.5c0.4-0.2,0.8-0.5,1-1.2
	c-0.3-0.7-0.7-1.6-1.1-2.5c-0.6-1.7-1.8-2.9-3.1-4c-1.7-1.3-3.5-1.6-5.5-0.9c-0.9,0.3-1.8,0.7-2.7,1.1c-0.3,0.1-0.5,0.5-0.8,0.9
	c0.3,1,0.8,2,1,3.1C126.1,176.7,126.1,178,126.2,179.2z"/>
<g opacity="0.6">
	<path fill="#010101" stroke="#FFFFFF" stroke-width="8" stroke-miterlimit="10" d="M4.2,33.9c0.4-7.9,2.7-14,6.4-19.6
		c1.6-2.3,3.7-4.4,6.1-5.9c0.9-0.5,1.8-1.1,2.7-1.7c2-1.5,4.3-2.1,6.7-2.5C29,3.7,31.5,4,33.9,5.6c0.9,0.6,1.8,0.9,2.8,1.2
		c1.8,0.7,3.6,1.6,4.9,3.1c0.7,0.7,1.6,1.4,2.6,1.8c2.2,1.1,3.8,2.8,5.4,4.7c1.5,1.7,2.6,3.7,3.6,5.8c1,2.2,1.2,4.7,1,7.1
		c-0.4,2.8-1,5.6-2,8.3c-0.4,1-0.6,2-1,2.9c-1.4,3.9-3.6,7.2-6.6,10.1c-1,1-2.1,1.6-3.6,1.8c-1,0.1-2.1,0.5-3.1,0.6
		c-2.8,0.2-5.6,0.5-8.6,0.6c-3.6,0.1-6.9-0.2-10.1-2c-1.8-1-3.9-1.6-6-2.1c-1.8-0.4-3.2-1.4-4.5-2.8C5.3,42.9,3.8,38.2,4.2,33.9z
		 M26.6,50.6c2.5,0.1,4.7,0.1,6.6-0.6c0.4-0.1,0.9-0.2,1.4-0.2c1.8,0.2,3.2-0.7,4.4-1.8c1.6-1.5,3.1-2.9,4.4-4.5
		c1.2-1.3,2.5-2.6,2.7-4.5c0.1-0.9,0.5-1.7,1-2.5c1.5-2.2,1.7-4.8,2.3-7.2c0.1-0.4,0-0.9,0-1.3c-0.1-1.2-0.2-2.3-0.5-3.6
		c-0.7-4-2.5-7.4-6.1-9.4c-1.5-0.9-2.7-2-4.1-2.8c-2.3-1.5-4.9-2.5-7.6-2.3c-2,0.1-3.9,0.5-5.8,0.9c-4.4,1-7.9,3.8-10.8,7
		c-2.1,2.1-4.2,4.4-4.5,7.6c-0.1,0.6-0.6,1.1-0.9,1.6C6.3,32.4,6.6,38,9.8,43.5c0.9,1.6,2.2,2.8,4,3.3c2.7,0.9,5.4,1.8,8.1,2.8
		C23.4,50.2,25.3,50.7,26.6,50.6z"/>
	<path fill="#010101" stroke="#FFFFFF" stroke-width="8" stroke-miterlimit="10" d="M263.7,41.5c-0.6-1.2-0.5-2.6-0.4-3.9
		c0.6-3.4,0.9-6.9,1.7-10.2c0.7-2.8,1-7.6,1-11.2c0-0.5,0-0.9,0.1-1.3c0.2-0.9,0.6-1.6,1-2.5c2.7-0.9,5.3-1.8,8-2.3
		c2.2-0.5,4.5-0.6,6.7-0.5c3.3,0.2,6,1.7,8.1,4.3c0.4,0.4,0.6,1.1,0.6,1.6c0.1,1.2,0.2,2.5,0.1,3.6c-0.1,1.5,0.5,2.3,1.6,2.9
		c0.7,0.5,1.6,0.9,2.5,1.1c2.6,0.6,4.7,2,6.6,3.9c0.9,2.6-0.4,4.9-1.8,7c-1.5,2.1-3.3,3.9-6.1,4c-1.2,0.1-2.3,0.4-3.6,0.7
		c-2.6,0.9-5.3,1.2-8,1.5c-2.7,0.2-5.4,0.6-8,1.2C270.5,42.3,267.1,42.3,263.7,41.5z M270.9,37.5c1,0.1,1.7,0.4,2.5,0.4
		c4.2,0,8.3-0.2,12.5-1c0.5-0.1,0.9-0.1,1.3-0.2c1.8-0.7,3.7-1.1,5.6-1.2c1.8-0.1,3.1-1.1,4.2-2.3c1-1,1-2.6,0-3.7
		c-2.1-2.6-5-3.7-8.2-4.3c-2-0.4-3.8-0.4-5.6,0.7c-2.1,1.2-4.4,2-6.7,2.2c-2.7,0.4-4.7,1.8-6.5,3.2
		C269.4,33.4,270.4,35.1,270.9,37.5z M268.9,15.5c-0.1,2.9-0.2,5.4-0.4,8c0,1.2,0.9,1.8,2.1,1.6c2.8-0.5,5.6-1.1,8.3-1.8
		c2.6-0.7,4.9-2.2,7-4c0.5-0.5,1-1.1,1.4-1.8c0.6-1.4,0.1-2.8-1.1-3.4c-1.1-0.5-2.2-0.9-3.4-1.1c-4.4-1-8.6,0.2-12.8,1.7
		C269.7,14.8,269.4,15.1,268.9,15.5z"/>
	<path fill="#010101" stroke="#FFFFFF" stroke-width="8" stroke-miterlimit="10" d="M180.8,66.2c-1-0.4-2-1.1-2.8-1.1
		c-1.5,0-2.9,0.4-4.4,0.7c-2.8,0.7-5.5,1.5-8.2,2.3c-0.4,0.1-0.7,0.4-1.3,0.6c-0.5,1.6-0.5,3.2-0.2,4.9c0.6,0.1,1.2,0.4,1.7,0.5
		c1.8,0.1,3.6,0.2,5.4,0.1c3.9-0.4,7.7,0,11.7,0.4c2.2,0.1,4,1,5.6,2.3c0.6,0.5,1.2,1,1.7,1.5c0.4,0.2,0.6,0.6,0.9,1
		c1.1,2.2,0.7,4.4,0.2,6.6c-0.4,1.7-1.7,2.8-3.3,3.4c-4.4,1.8-9.1,3.1-13.9,3.7c-2.1,0.2-4.2,0.5-6.1,1.2c-1.4,0.5-2.7,0.4-3.9,0
		c-2.9-1-3.6-1.1-3.3-4.8c0.5-7.4,0.6-14.7,0.2-22.1c0-0.7-0.1-1.5,0.6-2.3c0.2-0.1,0.6-0.4,1.1-0.4c4.4,0,8.6-1.2,12.8-2.7
		c1.2-0.5,2.6-0.7,3.9-1c1.6-0.2,2.2,0.1,2.7,1.7c0.1,0.2,0.1,0.6,0.2,0.9C182.2,64.7,182.2,64.7,180.8,66.2z M165.4,89.9
		c0.7,0.1,1,0.2,1.4,0.2c3.7-0.2,7.5-0.7,11.2-0.7c3.3,0,6.1-1.2,9.1-2.5c1.3-0.6,2-1.7,1.8-3.3c0-0.5-0.1-0.9-0.1-1.4
		c-0.2-2-1.2-3.3-3.2-3.9c-5.2-1.8-10.3-1.7-15.6-1c-0.2,0-0.6,0.2-0.9,0.4c-1.5,0.7-2.9,1.6-4.3,2.3c-0.7,0.4-1.1,1.1-1,1.8
		C163.9,84.6,164.2,87.2,165.4,89.9z"/>
	<path fill="#010101" stroke="#FFFFFF" stroke-width="8" stroke-miterlimit="10" d="M136.1,54c-0.1-0.5-0.2-0.9-0.2-1.3
		c-0.2-5.3-0.7-10.6-0.5-15.7c0.1-4,0.1-8.1,0.2-12.1c0-0.2,0-0.6,0.1-0.9c0.9-2.1,0.5-4.2,0-6.3c-0.6-2.7-0.1-3.4,2.7-3.8
		c0.1,0,0.2,0,0.5,0c4.2,0.1,8.5,0.1,12.6,0.5c2.9,0.2,5.4,1.7,7.7,3.4c1.7,1.2,2.6,3.3,3.6,5c0.2,0.4,0.2,0.9,0.2,1.3
		c0,1.6-0.1,3.3-0.6,4.9c-0.6,2.6-1.8,4.7-3.9,6.4c-1.1,0.9-2.1,1.6-3.6,1.8c-3.1,0.6-6.3,1.2-9.3,1.2c-1.7,0-3.3,0.2-4.9,0.7
		c-1.2,0.4-1.6,1-1.4,2.3c0.5,3.1,1.1,6.3,1.7,9.3c0.1,0.9-0.2,1.5-0.7,2C139,54.2,137.7,54.5,136.1,54z M160.1,28.1
		c-0.9-3.8-3.4-6.7-6.4-9.3c-1.3-1.2-3.1-1.8-5-2c-3.1-0.1-6,0.4-8.8,2.5c-0.1,5.2-1.5,10.4-1,15.8c1.5,0.9,2.8,1.1,4.4,0.9
		c3.6-0.6,7.1-1,10.7-1.5c0.7-0.1,1.5-0.4,2.1-0.7C158.4,32.4,159.7,30.7,160.1,28.1z"/>
	<path fill="#010101" stroke="#FFFFFF" stroke-width="8" stroke-miterlimit="10" d="M307.2,77.5c-1.6-1-2.9-0.9-4.3-0.7
		c-3.8,0.5-8.5,2.1-11.4,3.9c-0.7,2-0.6,4.2-0.6,6.1c0,1.5,0.4,3.1,1.3,4.2c0.5,0.5,0.9,1,0.2,1.5c-0.4,0.4-1.1,0.6-1.6,0.6
		c-1.7,0.1-3.2-0.9-4.5-1.7c-0.4-0.2-0.7-1-0.7-1.6c-0.1-1,0-2.1,0.1-3.2c0.2-2.1,0.5-4.2,0.6-6.3c0.1-1.8,0.6-3.6,1.3-5.2
		c2.2-4.4,4.8-8.7,8.2-12.4c2.1-2.2,4.4-4,7.4-5c1.2-0.5,2.3-0.5,3.6-0.2c1,0.1,1.5,0.9,1.7,1.8c0.7,2.9,0.9,6,1,9
		c0.1,3.6,1,6.9,1.8,10.2c0.9,3.2,1.2,6.5,2.7,9.4c0.4,0.6-0.1,1.6-0.9,1.8c-0.5,0.2-1.1,0.4-1.7,0.5c-0.9,0.2-1.4-0.2-1.6-1.1
		C309.1,85.4,308.1,81.4,307.2,77.5z M306.2,73.3c-0.1-3.2-0.9-6.3-1.3-9.3c0-0.4-0.4-0.9-0.5-1.2c-0.5-1-1.7-1.4-2.7-1
		c-1.2,0.5-2,1.2-2.8,2.2c-2.3,2.8-3.9,6-5.4,9.3c-0.4,0.7-0.6,1.7,0.2,2.6c0.5,0,1.1,0,1.7-0.1c3.1-1.2,6.3-2,9.7-1.7
		C305.4,74,305.9,73.5,306.2,73.3z"/>
	<path fill="#010101" stroke="#FFFFFF" stroke-width="8" stroke-miterlimit="10" d="M169.7,45.8c-0.5-0.7-0.9-1.1-0.9-1.6
		c-0.5-5.8-0.4-11.4,1.5-16.9c0.5-1.3,1.4-2.7,2-4c2.2-4.3,5.4-7.9,8.7-11.4c1.1-1.2,2.5-1.4,4-0.9c2.5,0.7,4.3,2,5.9,3.8
		c2.3,2.7,4,5.6,4.4,9.2c0.4,2.7,0.7,5.4,0.9,8.1c0.1,2.8,0.4,5.6,0.7,8.5c0.1,1-0.1,1.8-0.9,2.5c-0.7,0.6-1.6,0.7-2.7,0.1
		c-0.5-1.6-0.7-3.3-0.9-5c-0.2-2.6-0.4-5-0.6-7.6c-0.1-0.6-0.5-1.1-1.1-1.2c-1-0.2-2.1-0.2-3.1,0c-1.6,0.4-3.2,0.7-4.8,1
		c-1.6,0.4-3.2,0.9-4.7,1.7c-1.7,1-3.3,2-4.8,2.8c-0.7,1.2-0.7,2.3-0.7,3.3c0,1.2,0.1,2.5,0.1,3.6c0,1.1,1.2,1.7,1,2.8
		C172.6,45.9,171,44.8,169.7,45.8z M183.5,14c-1.7,0.9-2.3,2.3-3.4,3.3c-2.7,2.5-4.3,5.8-5.6,9.1c-0.1,0.4-0.4,0.9-0.5,1.2
		c-0.2,0.7,0.5,1.5,1.2,1.4c0.7-0.1,1.5-0.4,2.2-0.5c1.5-0.4,2.9-0.6,4.3-1.1c2.6-0.7,5.3-1,8-1.2c0.6-0.1,1.1-0.7,1.1-1.2
		c-0.1-2.9-1.2-5.5-3.3-7.7C186.5,16,185.1,14.9,183.5,14z"/>
	<path fill="#010101" stroke="#FFFFFF" stroke-width="8" stroke-miterlimit="10" d="M61.6,19.4c-0.4-0.6-0.6-1-0.7-1.5
		c-0.9-2.3-0.7-3.8,2.7-4.2c1.1-0.1,2.1-0.1,3.2-0.1c2.7,0,5.4,0.1,8.1-0.1c4.5-0.2,9-0.6,13.3-2.5c0.6-0.2,1.5-0.5,2.2-0.5
		c2-0.2,3.8,1.5,3.9,3.4c0.1,1.1,0,2.1-1.3,2.5c-0.4,0.1-0.7,0.5-1.5,0.9c-1.3-0.1-2.9-0.5-4.7-0.2c-1.6,0.4-3.2,0.6-5,1
		c-1.1,1.6-2.5,3.3-3.6,5c-0.5,0.7-0.9,1.6-1,2.5c-0.9,4.3-1.6,8.6-1,13c0.2,2,1,3.8,1.8,5.5c0.4,0.7,0,1.8-0.9,2.3
		c-0.4,0.2-0.9,0.4-1.2,0.5c-1,0.2-1.8-0.1-2.1-1.1c-0.5-2.1-1-4-1-6.3c-0.1-4.7,0.1-9.3,0.6-14c0.1-0.7,0.2-1.5,0.2-2.2
		c0-4.3,0.9-5.2-4.5-4C66.7,19.9,64.3,19.7,61.6,19.4z"/>
	<path fill="#010101" stroke="#FFFFFF" stroke-width="8" stroke-miterlimit="10" d="M96.3,46.2c-0.1-0.5-0.4-0.9-0.2-1.4
		c0.6-4.3,2.1-8.5,3.4-12.5c0.5-1.2,1.3-2.3,2-3.6c2.3-4.2,4.8-8.3,7.7-12.1c0.5-0.6,1-1.1,1.5-1.7c1-1.1,2.3-1.4,3.7-1.1
		c0.6,0.1,1.1,0.4,1.6,0.7c1,0.9,1.5,1.8,1.8,3.1c1.2,3.9,3.1,7.5,4,11.4c0.6,2.3,2,4.4,2.9,6.5c0.6,1.3,1.3,2.7,2.1,4
		c0.6,1.2,0.2,2.3-0.7,3.3c-0.9,0.9-1.8,1.5-3.1,1.8c-0.2,0.1-0.6-0.1-0.7-0.4c-0.2-0.4-0.5-0.7-0.5-1.2c-0.6-3.6-2.2-6.9-3.3-10.3
		c-0.5-1.5-1.1-2.1-3.1-2c-1.5,0.1-2.9,0.2-4.4,0.6c-1.8,0.5-3.8,1.1-5.5,1.8c-2.7,1.2-4.7,3.2-5.3,6.3c-0.2,1.3-0.2,2.7,1.1,3.6
		c0.5,0.4,0.2,1.2-0.2,1.5c-0.5,0.2-1.1,0.6-1.6,0.7c-0.6,0.1-1.2,0.1-1.8,0.2C97.3,45.9,96.8,46.1,96.3,46.2z M104.9,29.4
		c0.7,0.5,1.7,0.6,2.6,0.4c2.9-0.6,5.8-1.2,8.7-1.8c0.1,0,0.1-0.2,0.4-0.5c-0.1-2.5-1.5-4.7-2-7.1c-0.1-0.9-0.7-1.6-1.5-2.2
		C108.6,22.3,105,26.2,104.9,29.4z"/>
	<path fill="#010101" stroke="#FFFFFF" stroke-width="8" stroke-miterlimit="10" d="M227.7,90.2c-2.3-0.9-4.3-1.6-6.3-2.3
		c-1.5-0.5-2.6-1.5-3.6-2.7c-1-1.1-1.3-2.3-1.2-3.7c0-1.2,0.1-2.5,0.1-3.6c0.2-4.2,3.7-9.1,9.8-9.4c1.5-0.1,2.9-0.4,4.4-0.5
		c2.9-0.4,6-0.2,9,0.5c1.8,0.5,3.6,1.5,5,2.9c1.7,1.7,2.5,3.8,1.7,6.1c-0.7,2.5-1.7,4.7-3.8,6.5c-2.7,2.5-5.8,3.6-9,4.7
		C231.9,89.2,229.8,89.6,227.7,90.2z M228.6,71.5c-1.6,2.1-2.8,3.9-4.2,5.8c-2,2.5-2.5,5.8,1.3,7.9c1.2,0.7,2.5,1,3.8,0.7
		c2.3-0.6,4.7-1.2,6.9-2c1.6-0.5,3.1-1.2,4.5-2.1c2.1-1.2,3.2-5.2,1.8-7.2c-1.2-2-2.9-3.4-5.3-3.8C234.5,70.4,231.5,70.5,228.6,71.5
		z"/>
	<path fill="#010101" stroke="#FFFFFF" stroke-width="8" stroke-miterlimit="10" d="M57.4,81c1-2.5,1-4.8,1.3-7
		c0.5-2.9,1-5.9,1.5-8.8c0.1-0.6,0.4-1.1,0.6-1.6c0.1-0.1,0.5-0.2,0.9-0.2c0.2,0,0.6,0.2,0.7,0.5c0.5,2.2,0.6,4.4,0,6.6
		c-1.1,4.7-2,9.4-2.2,14.2c-0.2,5-0.1,9.9,1.5,14.7c0.4,1.4,0.1,2.2-0.7,2.8c-1,0.6-2.3,0.2-2.7-0.7c-0.2-0.7-0.4-1.5-0.5-2.2
		c-0.5-4-0.7-8.1-0.6-12.1c0-0.7,0-1.5-0.6-2.2c-0.4-0.1-0.7-0.2-1.2-0.2c-0.9,0-1.8,0-2.7,0.2c-7.5,2-7.1,0.6-7.4,8.6
		c0,0.6,0,1.2,0,1.8c-0.1,1.8-2.2,3.4-4.2,3.2c-0.7-0.1-1.3-0.7-1.5-1.5c-0.1-1.2,0-2.5,0.4-3.6c1.1-2.9,1.5-6.1,2-9.2
		c0.5-2.9,1.1-5.9,1.2-9c0-1.4,0-2.7,0-4c0-2.3,1.5-3.4,3.4-4.3c0.5-0.1,1.2,0.4,1.3,0.9c0.4,1.5,0,2.9-0.2,4.4
		c-0.2,2.1-0.6,4.2-0.9,6.3c-0.1,0.6-0.1,1.2-0.1,1.8c0,0.6,0.5,1.2,1,1.2C50.9,81.6,54,81.8,57.4,81z"/>
	<path fill="#010101" stroke="#FFFFFF" stroke-width="8" stroke-miterlimit="10" d="M90.8,85c-4.7,0.5-9.1,0.9-13.6,1.3
		c-1.5,0.1-2.1,0.9-2,2.5c0.1,2.3,0.7,4.4,1.7,6.5c1.6,3.6,6.1,6.7,11.2,6.3c0.6-0.1,1.2-0.2,1.7-0.4c2-0.2,3.1,0.9,2.9,2.9
		c0,0.5-0.6,1.2-1.1,1.2c-2.6,0-5-0.5-7.6-0.9c-3.7-0.5-6.3-2.7-8.5-5.4c-0.4-0.5-0.7-1-1-1.5c-1.1-2.9-2.1-5.9-2.1-9.2
		c0-4.3,0.7-8.3,2.2-12.4c1.2-3.3,3.3-6,5.9-8.3c0.2-0.2,0.5-0.4,0.7-0.6c3.4-2.3,6-2.1,8.5,1.3c1,1.5,1.7,3.2,2.5,4.8
		c0.7,1.5,1.1,3.1,0.9,4.8c-0.1,0.6-0.1,1.2,0,1.8C93,81.6,92.4,83.2,90.8,85z M76.1,82.4c1.6-0.1,2.9-0.1,4.3-0.1
		c3.3-0.1,6-1.6,8.8-3.1c0.9-0.5,1.2-1.5,1-2.3c-0.5-2.6-1.3-4.9-3.3-6.7c-1.6-1.5-3.6-1.6-5.3-0.1c-1.2,1.1-2.2,2.3-3.1,3.8
		c-1.3,2.3-2.1,4.9-2.8,7.5C75.6,81.5,75.8,81.9,76.1,82.4z"/>
	<path fill="#010101" stroke="#FFFFFF" stroke-width="8" stroke-miterlimit="10" d="M344.3,64.1c0.6,1.5,1.5,3.2,2.2,5
		c0.4,0.9,0.4,1.7,0.1,2.7c-0.2,1.4-1,2.2-2.3,2.5c-0.2,0.1-0.6,0.1-0.9,0.1c-5.8,0.5-11,2.9-16.3,4.9c-0.9,0.4-1.6,0.7-2.5,1.2
		c-0.9,0.5-1.1,1.3-0.7,2.3c0.5,1.2,1.3,2.3,2.5,3.2c2.8,2.3,6.1,3.7,9.7,4.5c1.1,0.2,2.3,0.7,3.4,1.1c0.9,0.4,1.7,0.6,2.3,1.6
		c-0.2,0.2-0.5,0.7-0.9,0.9c-1,0.4-2.1,0.4-3.1,0c-3.2-0.7-6.4-1.6-9.3-3.3c-0.6-0.4-1.3-0.7-2-1.1c-2.2-0.9-3.7-2.6-4.7-4.7
		c-0.6-1.2-1.1-2.5-1-3.9c0.1-2.5,0-4.9,0.6-7.1c1.2-4.7,3.7-8.5,8.5-10.4c0.2-0.1,0.5-0.2,0.9-0.4C335.3,61,339.8,60.9,344.3,64.1z
		 M339.1,72.1c1.5-1.7,1.3-3.6,1.3-5.3c0-1.2-1-2.3-2.2-2.5c-0.9,0-1.8,0-2.7,0.2c-1.8,0.6-3.7,1.3-5.4,2.1c-3.7,1.3-5,4.4-5.6,8
		c0,0.4,0.5,0.9,1,0.7c1.2-0.2,2.3-0.4,3.6-0.6C332.2,74,335.6,73.1,339.1,72.1z"/>
	<path fill="#010101" stroke="#FFFFFF" stroke-width="8" stroke-miterlimit="10" d="M309.9,32.1c-1.5-4.7,0.1-8,2.8-10.9
		c0.5-0.6,1-1.1,1.5-1.7c1-1,2.1-1.6,3.6-1.8c4.5-0.9,9.2-1.5,13.9-1.6c2-0.1,3.9,0.2,5.6,1.1c1.5,0.7,2.9,1.5,4.4,2.2
		c1.7,1,2.7,2.5,2.6,4.4c-0.2,3.9-1.6,7.4-4.7,9.9c-0.6,0.5-1.3,0.7-2,1c-4.8,1.3-9.6,2.7-14.4,4c-1.3,0.4-2.7,0.1-3.9-0.4
		C315.7,37,312.6,34.7,309.9,32.1z M340.7,22.3c-3.3-1.7-6.5-3.6-10.2-3.7c-3.3-0.1-6.6,0.1-9.6,1.1c-0.5,0.6-0.7,1.2-1.2,1.6
		c-2.5,2.2-3.7,5-4,8.5c0.4,1,1,2.3,1.2,3.1c1.8,2.2,4,2.8,6.3,2.9c1.3,0,2.7-0.2,3.9-0.6c2.5-0.6,4.9-1.5,7.4-2.2
		c2.3-0.6,4-1.8,5.5-3.7c1.1-1.3,1.6-2.8,1.2-4.5C341.1,24,340.8,23.1,340.7,22.3z"/>
	<path fill="#010101" stroke="#FFFFFF" stroke-width="8" stroke-miterlimit="10" d="M376.9,91.7c-0.1,1.1-0.6,1.6-1.2,2.1
		c-1,0.7-2.2,0.6-2.8-0.4c-0.9-1.2-1.5-2.6-1.6-4.2c-0.4-3.8-0.7-7.5-1-11.3c-0.2-2.8-0.2-5.8,0.1-8.6c0.1-1.2,0.1-2.5,0.1-3.6
		c0-0.2-0.2-0.5-0.2-0.9c-0.6-0.5-1.3-0.4-2.1-0.2c-3.4,0.4-6.9,0.9-10.3,1.2c-1.7,0.2-2.3-0.4-2.6-2.3c-0.1-0.4,0-1,0.1-1.3
		c0.1-0.4,0.5-0.9,0.9-0.9c0.7-0.1,1.5-0.1,2.2-0.1c2,0.1,3.9,0.2,5.9-0.1c0.5-0.1,0.9-0.1,1.3-0.1c4.5-0.1,9.1-0.5,13.5-0.4
		c4.8,0.1,9.6-0.2,14.2-0.9c1.1,0.7,0.6,1.7,0.5,2.6c-0.4,0.1-0.7,0.4-1.1,0.4c-4,0.4-8.1,0.7-12.1,0.6c-0.9,0-1.8,0.2-2.7,0.5
		c-1.5,0.4-2.8,1.7-2.7,3.2c0.2,2.5-0.5,4.8-0.7,7.1c-0.2,3.1-0.1,6,0,9c0,1.8,0.5,3.6,1.2,5.3C376.2,89.6,376.7,90.8,376.9,91.7z"
		/>
	<path fill="#010101" stroke="#FFFFFF" stroke-width="8" stroke-miterlimit="10" d="M389.7,36.7c-1.1,0.9-2,1.7-2.9,2.5
		c-0.6-0.2-1.1-0.7-1-1.4c0.2-1.3,0.5-2.6,1.2-3.8c1.3-2.7,2.7-5.4,4-8.1c0.5-1,0.4-1.7-0.5-2.5c-2-1.8-4-3.6-6.1-5.3
		c-0.4-0.4-0.7-0.9-1.1-1.5c1.5-2.2,3.1-4,5.4-5.5c0.7,1.8,1.4,3.6,2.2,5c1,1.6,2,3.1,2.6,4.8c0.5-0.2,1-0.4,1.2-0.7
		c2.7-3.2,5.3-6.5,8-9.7c1-1.2,2.1-2.6,3.2-3.7c0.4-0.4,1.1-0.4,1.6-0.5c1.1,1.2,2.2,2.2,3.2,3.2c0.2,0.9-0.2,1.2-0.7,1.6
		c-0.7,0.6-1.3,1.1-2.2,1.6c-2.1,1.2-3.9,2.7-5.4,4.7c-0.6,0.9-1.6,1.3-2.5,2c-1.6,1.1-2.8,2.6-3.7,4.5c1.2,1.8,2.8,3.2,4.5,4.3
		c2.6,1.6,4.8,3.6,6.7,5.8c-1.1,1.5-2.2,2-2.9,1.1c-2.5-2.5-5.3-4.4-8.1-6.4c-0.7-0.5-1.2-1.3-2.2-1.6c-1.5,0.4-2,1.7-2.7,2.8
		C390,33.2,390.1,33.2,389.7,36.7z"/>
	<path fill="#010101" stroke="#FFFFFF" stroke-width="8" stroke-miterlimit="10" d="M255.2,37c0.6,0.7,1.1,1.1,1.5,1.6
		c0.5,0.7-0.1,2.1-1,2.1c-0.6,0-1.2,0.1-1.8,0c-3.8-0.2-7.5,0-11.3,0.6c-2.7,0.4-5.4,0.6-8.1,1c-0.6,0-1.2,0-1.8-0.1
		c-2.8-0.7-5.5-1.5-8.2-2.2c-0.5-0.1-0.9-0.2-1.2-0.5c-2.1-1.2-2.8-2.8-2.5-4.9c0.1-0.6,0.4-1.1,0.6-1.7c1.6-3.6,3.6-7,6.7-9.4
		c0.5-0.4,0.9-0.9,1.2-1.2c2.6-2.3,5.2-4.5,8.6-5.8c2.3-0.9,4.7-2.2,7.1-2.9c2-0.6,3.8-0.7,5.8,0c0.4,0.1,0.7,0.5,0.9,0.9
		c0.1,0.4-0.2,0.7-0.2,1.1c-0.2,0.1-0.4,0.1-0.5,0.1c-3.6-1-6.9-0.4-9.9,1.6c-0.9,0.5-2,0.9-2.8,1.3c-2.6,1.1-4.4,3.1-6.3,5
		c-0.6,0.6-1,1.6-1.2,2.3c-0.6,1.4-0.6,2.9-1.8,4c-0.2,0.2-0.4,0.9-0.5,1.2c-0.2,1.8-0.1,3.6,0.7,5.3c0.5,1,1.2,1.7,2.3,2
		c0.6,0.1,1.2,0.2,1.8,0.2c4.1,0.1,8.1,0.4,12.1,0C248.3,38.3,251.6,38.3,255.2,37z"/>
	<path fill="#010101" stroke="#FFFFFF" stroke-width="8" stroke-miterlimit="10" d="M197.8,111c-1-1.1-1-2.5-1.1-3.8
		c-1-9.9-0.6-19.8,0.6-29.7c0.2-2.1,0.6-4.2,0.7-6.3c0.1-1.6,0.5-2.9,1.3-4.4c3.7-1.4,7.6-1.2,11.4-0.5c1.8,0.4,2.8,1.6,2.9,3.4
		c0.2,5-1.4,9.4-4.8,13.3c-1.6,1.8-3.4,3.4-5.8,4.2c-1.5,0.5-2.7,1.4-4,2.1c-0.2,2.8-0.4,5.4,0,8.2c0.5,2.8,0.6,5.6,1.2,8.5
		c0.1,0.4,0.1,1-0.1,1.3c-0.6,0.9-0.5,2.1-0.9,2.9C199.4,110.8,198.8,111.2,197.8,111z M201,69.4c-0.4,2.8-0.1,5.4-1,7.9
		c0.1,2.6-0.7,5-0.2,7.6c0,0.1,0.2,0.1,0.6,0.4c2.9-0.7,5.8-2,7.6-4.8c0.6-0.9,1.3-1.7,1.8-2.6c1.1-2.2,1.8-4.4,1.2-7
		c-0.2-1-0.9-1.6-1.7-2C206.5,68.4,203.9,67.9,201,69.4z"/>
	<path fill="#010101" stroke="#FFFFFF" stroke-width="8" stroke-miterlimit="10" d="M368.2,25c-0.5,0-1-0.2-1.3-0.1
		c-0.7,0.2-1.3,0.6-2,1.1c-1.6,1.6-3.4,2.9-5.3,4.2c-2.1,1.5-3.7,3.4-4.4,6c-0.2,0.9-1.1,1.3-2.1,1.1c-0.7-1-0.9-2.2-1-3.4
		c-0.4-4.9-0.7-9.9-0.9-14.8c-0.1-2.1,0-4.2,0.7-6.3c0-0.2,0.5-0.4,0.7-0.4c0.2,0,0.7,0.1,0.7,0.2c0.2,0.7,0.6,1.5,0.5,2.1
		c-0.2,2.5-0.2,4.8-0.1,7.2c0.1,2.1,0.4,4.2,0.5,6.3c0.1,1.1,1,1.3,2,0.7c0.7-0.5,1.5-1.1,2.1-1.7c2.8-2.5,5.4-5.3,7.9-8.1
		c1.3-1.5,2.1-3.2,2.1-5.3c0-0.7,0.1-1.5,0.1-2.2c0-1,0.6-1.7,1.2-2.3c0.2-0.2,0.7-0.4,1.2-0.4c0.1,0,0.4,0.5,0.4,0.7
		c0.1,2.5-0.1,4.8,0.2,7.2c0.5,3.1-0.2,6.3,0.7,9.3c1,2.8,1.2,5.9,1.8,8.8c0,0.1,0.1,0.4,0,0.5c-0.1,0.2-0.2,0.6-0.4,0.7
		c-0.4,0.1-1,0.2-1.2,0.1c-1.1-0.6-1.7-1.7-2.1-2.8c-0.6-2-1.1-4-1.6-6.1C368.6,26.8,368.4,25.8,368.2,25z"/>
	<path fill="#010101" stroke="#FFFFFF" stroke-width="8" stroke-miterlimit="10" d="M274.9,68.9c-1.5,0.6-2.8,0.7-4.3-0.1
		c-1.1-0.6-2.3-0.4-3.4,0.1c-2.1,1-3.9,2.2-5.6,3.7c-0.5,0.4-0.9,0.9-1.1,1.3c-0.7,1.3-1.5,2.6-2.1,3.9c-0.6,1.3-0.5,2.7,0.6,3.7
		c1.7,1.7,3.7,3.1,6.1,3.6c3.4,0.6,6.7,1.2,10.2,1.8c0.6,0.1,1.1,0.2,1.7,0.5c0,1.6-0.4,2-1.2,2c-4.5-0.1-9-0.4-13.4-1.5
		c-1.2-0.4-2.3-0.6-3.2-1.5c-0.9-0.6-1.7-1.1-2.6-1.7c-2.1-1.5-3.3-3.4-3.9-5.9c-0.2-1-0.1-2.1,0.5-3.1c1.4-2.1,2.6-4.4,4.8-5.9
		c1.3-0.9,2.6-2.1,3.9-3.1c1-0.7,2.1-1.1,3.3-1.2c2.1-0.1,4.2-0.4,6.3-0.5c1.6-0.1,2.9,0.6,3.8,2C275.4,67.9,275.3,68.4,274.9,68.9z
		"/>
</g>
<g>
	<path fill="#010101" d="M4.2,33.9c0.4-7.9,2.7-14,6.4-19.6c1.6-2.3,3.7-4.4,6.1-5.9c0.9-0.5,1.8-1.1,2.7-1.7c2-1.5,4.3-2.1,6.7-2.5
		C29,3.7,31.5,4,33.9,5.6c0.9,0.6,1.8,0.9,2.8,1.2c1.8,0.7,3.6,1.6,4.9,3.1c0.7,0.7,1.6,1.4,2.6,1.8c2.2,1.1,3.8,2.8,5.4,4.7
		c1.5,1.7,2.6,3.7,3.6,5.8c1,2.2,1.2,4.7,1,7.1c-0.4,2.8-1,5.6-2,8.3c-0.4,1-0.6,2-1,2.9c-1.4,3.9-3.6,7.2-6.6,10.1
		c-1,1-2.1,1.6-3.6,1.8c-1,0.1-2.1,0.5-3.1,0.6c-2.8,0.2-5.6,0.5-8.6,0.6c-3.6,0.1-6.9-0.2-10.1-2c-1.8-1-3.9-1.6-6-2.1
		c-1.8-0.4-3.2-1.4-4.5-2.8C5.3,42.9,3.8,38.2,4.2,33.9z M26.6,50.6c2.5,0.1,4.7,0.1,6.6-0.6c0.4-0.1,0.9-0.2,1.4-0.2
		c1.8,0.2,3.2-0.7,4.4-1.8c1.6-1.5,3.1-2.9,4.4-4.5c1.2-1.3,2.5-2.6,2.7-4.5c0.1-0.9,0.5-1.7,1-2.5c1.5-2.2,1.7-4.8,2.3-7.2
		c0.1-0.4,0-0.9,0-1.3c-0.1-1.2-0.2-2.3-0.5-3.6c-0.7-4-2.5-7.4-6.1-9.4c-1.5-0.9-2.7-2-4.1-2.8c-2.3-1.5-4.9-2.5-7.6-2.3
		c-2,0.1-3.9,0.5-5.8,0.9c-4.4,1-7.9,3.8-10.8,7c-2.1,2.1-4.2,4.4-4.5,7.6c-0.1,0.6-0.6,1.1-0.9,1.6C6.3,32.4,6.6,38,9.8,43.5
		c0.9,1.6,2.2,2.8,4,3.3c2.7,0.9,5.4,1.8,8.1,2.8C23.4,50.2,25.3,50.7,26.6,50.6z"/>
	<path fill="#010101" d="M263.7,41.5c-0.6-1.2-0.5-2.6-0.4-3.9c0.6-3.4,0.9-6.9,1.7-10.2c0.7-2.8,1-7.6,1-11.2c0-0.5,0-0.9,0.1-1.3
		c0.2-0.9,0.6-1.6,1-2.5c2.7-0.9,5.3-1.8,8-2.3c2.2-0.5,4.5-0.6,6.7-0.5c3.3,0.2,6,1.7,8.1,4.3c0.4,0.4,0.6,1.1,0.6,1.6
		c0.1,1.2,0.2,2.5,0.1,3.6c-0.1,1.5,0.5,2.3,1.6,2.9c0.7,0.5,1.6,0.9,2.5,1.1c2.6,0.6,4.7,2,6.6,3.9c0.9,2.6-0.4,4.9-1.8,7
		c-1.5,2.1-3.3,3.9-6.1,4c-1.2,0.1-2.3,0.4-3.6,0.7c-2.6,0.9-5.3,1.2-8,1.5c-2.7,0.2-5.4,0.6-8,1.2
		C270.5,42.3,267.1,42.3,263.7,41.5z M270.9,37.5c1,0.1,1.7,0.4,2.5,0.4c4.2,0,8.3-0.2,12.5-1c0.5-0.1,0.9-0.1,1.3-0.2
		c1.8-0.7,3.7-1.1,5.6-1.2c1.8-0.1,3.1-1.1,4.2-2.3c1-1,1-2.6,0-3.7c-2.1-2.6-5-3.7-8.2-4.3c-2-0.4-3.8-0.4-5.6,0.7
		c-2.1,1.2-4.4,2-6.7,2.2c-2.7,0.4-4.7,1.8-6.5,3.2C269.4,33.4,270.4,35.1,270.9,37.5z M268.9,15.5c-0.1,2.9-0.2,5.4-0.4,8
		c0,1.2,0.9,1.8,2.1,1.6c2.8-0.5,5.6-1.1,8.3-1.8c2.6-0.7,4.9-2.2,7-4c0.5-0.5,1-1.1,1.4-1.8c0.6-1.4,0.1-2.8-1.1-3.4
		c-1.1-0.5-2.2-0.9-3.4-1.1c-4.4-1-8.6,0.2-12.8,1.7C269.7,14.8,269.4,15.1,268.9,15.5z"/>
	<path fill="#010101" d="M180.8,66.2c-1-0.4-2-1.1-2.8-1.1c-1.5,0-2.9,0.4-4.4,0.7c-2.8,0.7-5.5,1.5-8.2,2.3
		c-0.4,0.1-0.7,0.4-1.3,0.6c-0.5,1.6-0.5,3.2-0.2,4.9c0.6,0.1,1.2,0.4,1.7,0.5c1.8,0.1,3.6,0.2,5.4,0.1c3.9-0.4,7.7,0,11.7,0.4
		c2.2,0.1,4,1,5.6,2.3c0.6,0.5,1.2,1,1.7,1.5c0.4,0.2,0.6,0.6,0.9,1c1.1,2.2,0.7,4.4,0.2,6.6c-0.4,1.7-1.7,2.8-3.3,3.4
		c-4.4,1.8-9.1,3.1-13.9,3.7c-2.1,0.2-4.2,0.5-6.1,1.2c-1.4,0.5-2.7,0.4-3.9,0c-2.9-1-3.6-1.1-3.3-4.8c0.5-7.4,0.6-14.7,0.2-22.1
		c0-0.7-0.1-1.5,0.6-2.3c0.2-0.1,0.6-0.4,1.1-0.4c4.4,0,8.6-1.2,12.8-2.7c1.2-0.5,2.6-0.7,3.9-1c1.6-0.2,2.2,0.1,2.7,1.7
		c0.1,0.2,0.1,0.6,0.2,0.9C182.2,64.7,182.2,64.7,180.8,66.2z M165.4,89.9c0.7,0.1,1,0.2,1.4,0.2c3.7-0.2,7.5-0.7,11.2-0.7
		c3.3,0,6.1-1.2,9.1-2.5c1.3-0.6,2-1.7,1.8-3.3c0-0.5-0.1-0.9-0.1-1.4c-0.2-2-1.2-3.3-3.2-3.9c-5.2-1.8-10.3-1.7-15.6-1
		c-0.2,0-0.6,0.2-0.9,0.4c-1.5,0.7-2.9,1.6-4.3,2.3c-0.7,0.4-1.1,1.1-1,1.8C163.9,84.6,164.2,87.2,165.4,89.9z"/>
	<path fill="#010101" d="M136.1,54c-0.1-0.5-0.2-0.9-0.2-1.3c-0.2-5.3-0.7-10.6-0.5-15.7c0.1-4,0.1-8.1,0.2-12.1
		c0-0.2,0-0.6,0.1-0.9c0.9-2.1,0.5-4.2,0-6.3c-0.6-2.7-0.1-3.4,2.7-3.8c0.1,0,0.2,0,0.5,0c4.2,0.1,8.5,0.1,12.6,0.5
		c2.9,0.2,5.4,1.7,7.7,3.4c1.7,1.2,2.6,3.3,3.6,5c0.2,0.4,0.2,0.9,0.2,1.3c0,1.6-0.1,3.3-0.6,4.9c-0.6,2.6-1.8,4.7-3.9,6.4
		c-1.1,0.9-2.1,1.6-3.6,1.8c-3.1,0.6-6.3,1.2-9.3,1.2c-1.7,0-3.3,0.2-4.9,0.7c-1.2,0.4-1.6,1-1.4,2.3c0.5,3.1,1.1,6.3,1.7,9.3
		c0.1,0.9-0.2,1.5-0.7,2C139,54.2,137.7,54.5,136.1,54z M160.1,28.1c-0.9-3.8-3.4-6.7-6.4-9.3c-1.3-1.2-3.1-1.8-5-2
		c-3.1-0.1-6,0.4-8.8,2.5c-0.1,5.2-1.5,10.4-1,15.8c1.5,0.9,2.8,1.1,4.4,0.9c3.6-0.6,7.1-1,10.7-1.5c0.7-0.1,1.5-0.4,2.1-0.7
		C158.4,32.4,159.7,30.7,160.1,28.1z"/>
	<path fill="#010101" d="M307.2,77.5c-1.6-1-2.9-0.9-4.3-0.7c-3.8,0.5-8.5,2.1-11.4,3.9c-0.7,2-0.6,4.2-0.6,6.1
		c0,1.5,0.4,3.1,1.3,4.2c0.5,0.5,0.9,1,0.2,1.5c-0.4,0.4-1.1,0.6-1.6,0.6c-1.7,0.1-3.2-0.9-4.5-1.7c-0.4-0.2-0.7-1-0.7-1.6
		c-0.1-1,0-2.1,0.1-3.2c0.2-2.1,0.5-4.2,0.6-6.3c0.1-1.8,0.6-3.6,1.3-5.2c2.2-4.4,4.8-8.7,8.2-12.4c2.1-2.2,4.4-4,7.4-5
		c1.2-0.5,2.3-0.5,3.6-0.2c1,0.1,1.5,0.9,1.7,1.8c0.7,2.9,0.9,6,1,9c0.1,3.6,1,6.9,1.8,10.2c0.9,3.2,1.2,6.5,2.7,9.4
		c0.4,0.6-0.1,1.6-0.9,1.8c-0.5,0.2-1.1,0.4-1.7,0.5c-0.9,0.2-1.4-0.2-1.6-1.1C309.1,85.4,308.1,81.4,307.2,77.5z M306.2,73.3
		c-0.1-3.2-0.9-6.3-1.3-9.3c0-0.4-0.4-0.9-0.5-1.2c-0.5-1-1.7-1.4-2.7-1c-1.2,0.5-2,1.2-2.8,2.2c-2.3,2.8-3.9,6-5.4,9.3
		c-0.4,0.7-0.6,1.7,0.2,2.6c0.5,0,1.1,0,1.7-0.1c3.1-1.2,6.3-2,9.7-1.7C305.4,74,305.9,73.5,306.2,73.3z"/>
	<path fill="#010101" d="M169.7,45.8c-0.5-0.7-0.9-1.1-0.9-1.6c-0.5-5.8-0.4-11.4,1.5-16.9c0.5-1.3,1.4-2.7,2-4
		c2.2-4.3,5.4-7.9,8.7-11.4c1.1-1.2,2.5-1.4,4-0.9c2.5,0.7,4.3,2,5.9,3.8c2.3,2.7,4,5.6,4.4,9.2c0.4,2.7,0.7,5.4,0.9,8.1
		c0.1,2.8,0.4,5.6,0.7,8.5c0.1,1-0.1,1.8-0.9,2.5c-0.7,0.6-1.6,0.7-2.7,0.1c-0.5-1.6-0.7-3.3-0.9-5c-0.2-2.6-0.4-5-0.6-7.6
		c-0.1-0.6-0.5-1.1-1.1-1.2c-1-0.2-2.1-0.2-3.1,0c-1.6,0.4-3.2,0.7-4.8,1c-1.6,0.4-3.2,0.9-4.7,1.7c-1.7,1-3.3,2-4.8,2.8
		c-0.7,1.2-0.7,2.3-0.7,3.3c0,1.2,0.1,2.5,0.1,3.6c0,1.1,1.2,1.7,1,2.8C172.6,45.9,171,44.8,169.7,45.8z M183.5,14
		c-1.7,0.9-2.3,2.3-3.4,3.3c-2.7,2.5-4.3,5.8-5.6,9.1c-0.1,0.4-0.4,0.9-0.5,1.2c-0.2,0.7,0.5,1.5,1.2,1.4c0.7-0.1,1.5-0.4,2.2-0.5
		c1.5-0.4,2.9-0.6,4.3-1.1c2.6-0.7,5.3-1,8-1.2c0.6-0.1,1.1-0.7,1.1-1.2c-0.1-2.9-1.2-5.5-3.3-7.7C186.5,16,185.1,14.9,183.5,14z"/>
	<path fill="#010101" d="M61.6,19.4c-0.4-0.6-0.6-1-0.7-1.5c-0.9-2.3-0.7-3.8,2.7-4.2c1.1-0.1,2.1-0.1,3.2-0.1
		c2.7,0,5.4,0.1,8.1-0.1c4.5-0.2,9-0.6,13.3-2.5c0.6-0.2,1.5-0.5,2.2-0.5c2-0.2,3.8,1.5,3.9,3.4c0.1,1.1,0,2.1-1.3,2.5
		c-0.4,0.1-0.7,0.5-1.5,0.9c-1.3-0.1-2.9-0.5-4.7-0.2c-1.6,0.4-3.2,0.6-5,1c-1.1,1.6-2.5,3.3-3.6,5c-0.5,0.7-0.9,1.6-1,2.5
		c-0.9,4.3-1.6,8.6-1,13c0.2,2,1,3.8,1.8,5.5c0.4,0.7,0,1.8-0.9,2.3c-0.4,0.2-0.9,0.4-1.2,0.5c-1,0.2-1.8-0.1-2.1-1.1
		c-0.5-2.1-1-4-1-6.3c-0.1-4.7,0.1-9.3,0.6-14c0.1-0.7,0.2-1.5,0.2-2.2c0-4.3,0.9-5.2-4.5-4C66.7,19.9,64.3,19.7,61.6,19.4z"/>
	<path fill="#010101" d="M96.3,46.2c-0.1-0.5-0.4-0.9-0.2-1.4c0.6-4.3,2.1-8.5,3.4-12.5c0.5-1.2,1.3-2.3,2-3.6
		c2.3-4.2,4.8-8.3,7.7-12.1c0.5-0.6,1-1.1,1.5-1.7c1-1.1,2.3-1.4,3.7-1.1c0.6,0.1,1.1,0.4,1.6,0.7c1,0.9,1.5,1.8,1.8,3.1
		c1.2,3.9,3.1,7.5,4,11.4c0.6,2.3,2,4.4,2.9,6.5c0.6,1.3,1.3,2.7,2.1,4c0.6,1.2,0.2,2.3-0.7,3.3c-0.9,0.9-1.8,1.5-3.1,1.8
		c-0.2,0.1-0.6-0.1-0.7-0.4c-0.2-0.4-0.5-0.7-0.5-1.2c-0.6-3.6-2.2-6.9-3.3-10.3c-0.5-1.5-1.1-2.1-3.1-2c-1.5,0.1-2.9,0.2-4.4,0.6
		c-1.8,0.5-3.8,1.1-5.5,1.8c-2.7,1.2-4.7,3.2-5.3,6.3c-0.2,1.3-0.2,2.7,1.1,3.6c0.5,0.4,0.2,1.2-0.2,1.5c-0.5,0.2-1.1,0.6-1.6,0.7
		c-0.6,0.1-1.2,0.1-1.8,0.2C97.3,45.9,96.8,46.1,96.3,46.2z M104.9,29.4c0.7,0.5,1.7,0.6,2.6,0.4c2.9-0.6,5.8-1.2,8.7-1.8
		c0.1,0,0.1-0.2,0.4-0.5c-0.1-2.5-1.5-4.7-2-7.1c-0.1-0.9-0.7-1.6-1.5-2.2C108.6,22.3,105,26.2,104.9,29.4z"/>
	<path fill="#010101" d="M227.7,90.2c-2.3-0.9-4.3-1.6-6.3-2.3c-1.5-0.5-2.6-1.5-3.6-2.7c-1-1.1-1.3-2.3-1.2-3.7
		c0-1.2,0.1-2.5,0.1-3.6c0.2-4.2,3.7-9.1,9.8-9.4c1.5-0.1,2.9-0.4,4.4-0.5c2.9-0.4,6-0.2,9,0.5c1.8,0.5,3.6,1.5,5,2.9
		c1.7,1.7,2.5,3.8,1.7,6.1c-0.7,2.5-1.7,4.7-3.8,6.5c-2.7,2.5-5.8,3.6-9,4.7C231.9,89.2,229.8,89.6,227.7,90.2z M228.6,71.5
		c-1.6,2.1-2.8,3.9-4.2,5.8c-2,2.5-2.5,5.8,1.3,7.9c1.2,0.7,2.5,1,3.8,0.7c2.3-0.6,4.7-1.2,6.9-2c1.6-0.5,3.1-1.2,4.5-2.1
		c2.1-1.2,3.2-5.2,1.8-7.2c-1.2-2-2.9-3.4-5.3-3.8C234.5,70.4,231.5,70.5,228.6,71.5z"/>
	<path fill="#010101" d="M57.4,81c1-2.5,1-4.8,1.3-7c0.5-2.9,1-5.9,1.5-8.8c0.1-0.6,0.4-1.1,0.6-1.6c0.1-0.1,0.5-0.2,0.9-0.2
		c0.2,0,0.6,0.2,0.7,0.5c0.5,2.2,0.6,4.4,0,6.6c-1.1,4.7-2,9.4-2.2,14.2c-0.2,5-0.1,9.9,1.5,14.7c0.4,1.4,0.1,2.2-0.7,2.8
		c-1,0.6-2.3,0.2-2.7-0.7c-0.2-0.7-0.4-1.5-0.5-2.2c-0.5-4-0.7-8.1-0.6-12.1c0-0.7,0-1.5-0.6-2.2c-0.4-0.1-0.7-0.2-1.2-0.2
		c-0.9,0-1.8,0-2.7,0.2c-7.5,2-7.1,0.6-7.4,8.6c0,0.6,0,1.2,0,1.8c-0.1,1.8-2.2,3.4-4.2,3.2c-0.7-0.1-1.3-0.7-1.5-1.5
		c-0.1-1.2,0-2.5,0.4-3.6c1.1-2.9,1.5-6.1,2-9.2c0.5-2.9,1.1-5.9,1.2-9c0-1.4,0-2.7,0-4c0-2.3,1.5-3.4,3.4-4.3
		c0.5-0.1,1.2,0.4,1.3,0.9c0.4,1.5,0,2.9-0.2,4.4c-0.2,2.1-0.6,4.2-0.9,6.3c-0.1,0.6-0.1,1.2-0.1,1.8c0,0.6,0.5,1.2,1,1.2
		C50.9,81.6,54,81.8,57.4,81z"/>
	<path fill="#010101" d="M90.8,85c-4.7,0.5-9.1,0.9-13.6,1.3c-1.5,0.1-2.1,0.9-2,2.5c0.1,2.3,0.7,4.4,1.7,6.5
		c1.6,3.6,6.1,6.7,11.2,6.3c0.6-0.1,1.2-0.2,1.7-0.4c2-0.2,3.1,0.9,2.9,2.9c0,0.5-0.6,1.2-1.1,1.2c-2.6,0-5-0.5-7.6-0.9
		c-3.7-0.5-6.3-2.7-8.5-5.4c-0.4-0.5-0.7-1-1-1.5c-1.1-2.9-2.1-5.9-2.1-9.2c0-4.3,0.7-8.3,2.2-12.4c1.2-3.3,3.3-6,5.9-8.3
		c0.2-0.2,0.5-0.4,0.7-0.6c3.4-2.3,6-2.1,8.5,1.3c1,1.5,1.7,3.2,2.5,4.8c0.7,1.5,1.1,3.1,0.9,4.8c-0.1,0.6-0.1,1.2,0,1.8
		C93,81.6,92.4,83.2,90.8,85z M76.1,82.4c1.6-0.1,2.9-0.1,4.3-0.1c3.3-0.1,6-1.6,8.8-3.1c0.9-0.5,1.2-1.5,1-2.3
		c-0.5-2.6-1.3-4.9-3.3-6.7c-1.6-1.5-3.6-1.6-5.3-0.1c-1.2,1.1-2.2,2.3-3.1,3.8c-1.3,2.3-2.1,4.9-2.8,7.5
		C75.6,81.5,75.8,81.9,76.1,82.4z"/>
	<path fill="#010101" d="M344.3,64.1c0.6,1.5,1.5,3.2,2.2,5c0.4,0.9,0.4,1.7,0.1,2.7c-0.2,1.4-1,2.2-2.3,2.5
		c-0.2,0.1-0.6,0.1-0.9,0.1c-5.8,0.5-11,2.9-16.3,4.9c-0.9,0.4-1.6,0.7-2.5,1.2c-0.9,0.5-1.1,1.3-0.7,2.3c0.5,1.2,1.3,2.3,2.5,3.2
		c2.8,2.3,6.1,3.7,9.7,4.5c1.1,0.2,2.3,0.7,3.4,1.1c0.9,0.4,1.7,0.6,2.3,1.6c-0.2,0.2-0.5,0.7-0.9,0.9c-1,0.4-2.1,0.4-3.1,0
		c-3.2-0.7-6.4-1.6-9.3-3.3c-0.6-0.4-1.3-0.7-2-1.1c-2.2-0.9-3.7-2.6-4.7-4.7c-0.6-1.2-1.1-2.5-1-3.9c0.1-2.5,0-4.9,0.6-7.1
		c1.2-4.7,3.7-8.5,8.5-10.4c0.2-0.1,0.5-0.2,0.9-0.4C335.3,61,339.8,60.9,344.3,64.1z M339.1,72.1c1.5-1.7,1.3-3.6,1.3-5.3
		c0-1.2-1-2.3-2.2-2.5c-0.9,0-1.8,0-2.7,0.2c-1.8,0.6-3.7,1.3-5.4,2.1c-3.7,1.3-5,4.4-5.6,8c0,0.4,0.5,0.9,1,0.7
		c1.2-0.2,2.3-0.4,3.6-0.6C332.2,74,335.6,73.1,339.1,72.1z"/>
	<path fill="#010101" d="M309.9,32.1c-1.5-4.7,0.1-8,2.8-10.9c0.5-0.6,1-1.1,1.5-1.7c1-1,2.1-1.6,3.6-1.8c4.5-0.9,9.2-1.5,13.9-1.6
		c2-0.1,3.9,0.2,5.6,1.1c1.5,0.7,2.9,1.5,4.4,2.2c1.7,1,2.7,2.5,2.6,4.4c-0.2,3.9-1.6,7.4-4.7,9.9c-0.6,0.5-1.3,0.7-2,1
		c-4.8,1.3-9.6,2.7-14.4,4c-1.3,0.4-2.7,0.1-3.9-0.4C315.7,37,312.6,34.7,309.9,32.1z M340.7,22.3c-3.3-1.7-6.5-3.6-10.2-3.7
		c-3.3-0.1-6.6,0.1-9.6,1.1c-0.5,0.6-0.7,1.2-1.2,1.6c-2.5,2.2-3.7,5-4,8.5c0.4,1,1,2.3,1.2,3.1c1.8,2.2,4,2.8,6.3,2.9
		c1.3,0,2.7-0.2,3.9-0.6c2.5-0.6,4.9-1.5,7.4-2.2c2.3-0.6,4-1.8,5.5-3.7c1.1-1.3,1.6-2.8,1.2-4.5C341.1,24,340.8,23.1,340.7,22.3z"
		/>
	<path fill="#010101" d="M376.9,91.7c-0.1,1.1-0.6,1.6-1.2,2.1c-1,0.7-2.2,0.6-2.8-0.4c-0.9-1.2-1.5-2.6-1.6-4.2
		c-0.4-3.8-0.7-7.5-1-11.3c-0.2-2.8-0.2-5.8,0.1-8.6c0.1-1.2,0.1-2.5,0.1-3.6c0-0.2-0.2-0.5-0.2-0.9c-0.6-0.5-1.3-0.4-2.1-0.2
		c-3.4,0.4-6.9,0.9-10.3,1.2c-1.7,0.2-2.3-0.4-2.6-2.3c-0.1-0.4,0-1,0.1-1.3c0.1-0.4,0.5-0.9,0.9-0.9c0.7-0.1,1.5-0.1,2.2-0.1
		c2,0.1,3.9,0.2,5.9-0.1c0.5-0.1,0.9-0.1,1.3-0.1c4.5-0.1,9.1-0.5,13.5-0.4c4.8,0.1,9.6-0.2,14.2-0.9c1.1,0.7,0.6,1.7,0.5,2.6
		c-0.4,0.1-0.7,0.4-1.1,0.4c-4,0.4-8.1,0.7-12.1,0.6c-0.9,0-1.8,0.2-2.7,0.5c-1.5,0.4-2.8,1.7-2.7,3.2c0.2,2.5-0.5,4.8-0.7,7.1
		c-0.2,3.1-0.1,6,0,9c0,1.8,0.5,3.6,1.2,5.3C376.2,89.6,376.7,90.8,376.9,91.7z"/>
	<path fill="#010101" d="M389.7,36.7c-1.1,0.9-2,1.7-2.9,2.5c-0.6-0.2-1.1-0.7-1-1.4c0.2-1.3,0.5-2.6,1.2-3.8c1.3-2.7,2.7-5.4,4-8.1
		c0.5-1,0.4-1.7-0.5-2.5c-2-1.8-4-3.6-6.1-5.3c-0.4-0.4-0.7-0.9-1.1-1.5c1.5-2.2,3.1-4,5.4-5.5c0.7,1.8,1.4,3.6,2.2,5
		c1,1.6,2,3.1,2.6,4.8c0.5-0.2,1-0.4,1.2-0.7c2.7-3.2,5.3-6.5,8-9.7c1-1.2,2.1-2.6,3.2-3.7c0.4-0.4,1.1-0.4,1.6-0.5
		c1.1,1.2,2.2,2.2,3.2,3.2c0.2,0.9-0.2,1.2-0.7,1.6c-0.7,0.6-1.3,1.1-2.2,1.6c-2.1,1.2-3.9,2.7-5.4,4.7c-0.6,0.9-1.6,1.3-2.5,2
		c-1.6,1.1-2.8,2.6-3.7,4.5c1.2,1.8,2.8,3.2,4.5,4.3c2.6,1.6,4.8,3.6,6.7,5.8c-1.1,1.5-2.2,2-2.9,1.1c-2.5-2.5-5.3-4.4-8.1-6.4
		c-0.7-0.5-1.2-1.3-2.2-1.6c-1.5,0.4-2,1.7-2.7,2.8C390,33.2,390.1,33.2,389.7,36.7z"/>
	<path fill="#010101" d="M255.2,37c0.6,0.7,1.1,1.1,1.5,1.6c0.5,0.7-0.1,2.1-1,2.1c-0.6,0-1.2,0.1-1.8,0c-3.8-0.2-7.5,0-11.3,0.6
		c-2.7,0.4-5.4,0.6-8.1,1c-0.6,0-1.2,0-1.8-0.1c-2.8-0.7-5.5-1.5-8.2-2.2c-0.5-0.1-0.9-0.2-1.2-0.5c-2.1-1.2-2.8-2.8-2.5-4.9
		c0.1-0.6,0.4-1.1,0.6-1.7c1.6-3.6,3.6-7,6.7-9.4c0.5-0.4,0.9-0.9,1.2-1.2c2.6-2.3,5.2-4.5,8.6-5.8c2.3-0.9,4.7-2.2,7.1-2.9
		c2-0.6,3.8-0.7,5.8,0c0.4,0.1,0.7,0.5,0.9,0.9c0.1,0.4-0.2,0.7-0.2,1.1c-0.2,0.1-0.4,0.1-0.5,0.1c-3.6-1-6.9-0.4-9.9,1.6
		c-0.9,0.5-2,0.9-2.8,1.3c-2.6,1.1-4.4,3.1-6.3,5c-0.6,0.6-1,1.6-1.2,2.3c-0.6,1.4-0.6,2.9-1.8,4c-0.2,0.2-0.4,0.9-0.5,1.2
		c-0.2,1.8-0.1,3.6,0.7,5.3c0.5,1,1.2,1.7,2.3,2c0.6,0.1,1.2,0.2,1.8,0.2c4.1,0.1,8.1,0.4,12.1,0C248.3,38.3,251.6,38.3,255.2,37z"
		/>
	<path fill="#010101" d="M197.8,111c-1-1.1-1-2.5-1.1-3.8c-1-9.9-0.6-19.8,0.6-29.7c0.2-2.1,0.6-4.2,0.7-6.3
		c0.1-1.6,0.5-2.9,1.3-4.4c3.7-1.4,7.6-1.2,11.4-0.5c1.8,0.4,2.8,1.6,2.9,3.4c0.2,5-1.4,9.4-4.8,13.3c-1.6,1.8-3.4,3.4-5.8,4.2
		c-1.5,0.5-2.7,1.4-4,2.1c-0.2,2.8-0.4,5.4,0,8.2c0.5,2.8,0.6,5.6,1.2,8.5c0.1,0.4,0.1,1-0.1,1.3c-0.6,0.9-0.5,2.1-0.9,2.9
		C199.4,110.8,198.8,111.2,197.8,111z M201,69.4c-0.4,2.8-0.1,5.4-1,7.9c0.1,2.6-0.7,5-0.2,7.6c0,0.1,0.2,0.1,0.6,0.4
		c2.9-0.7,5.8-2,7.6-4.8c0.6-0.9,1.3-1.7,1.8-2.6c1.1-2.2,1.8-4.4,1.2-7c-0.2-1-0.9-1.6-1.7-2C206.5,68.4,203.9,67.9,201,69.4z"/>
	<path fill="#010101" d="M368.2,25c-0.5,0-1-0.2-1.3-0.1c-0.7,0.2-1.3,0.6-2,1.1c-1.6,1.6-3.4,2.9-5.3,4.2c-2.1,1.5-3.7,3.4-4.4,6
		c-0.2,0.9-1.1,1.3-2.1,1.1c-0.7-1-0.9-2.2-1-3.4c-0.4-4.9-0.7-9.9-0.9-14.8c-0.1-2.1,0-4.2,0.7-6.3c0-0.2,0.5-0.4,0.7-0.4
		c0.2,0,0.7,0.1,0.7,0.2c0.2,0.7,0.6,1.5,0.5,2.1c-0.2,2.5-0.2,4.8-0.1,7.2c0.1,2.1,0.4,4.2,0.5,6.3c0.1,1.1,1,1.3,2,0.7
		c0.7-0.5,1.5-1.1,2.1-1.7c2.8-2.5,5.4-5.3,7.9-8.1c1.3-1.5,2.1-3.2,2.1-5.3c0-0.7,0.1-1.5,0.1-2.2c0-1,0.6-1.7,1.2-2.3
		c0.2-0.2,0.7-0.4,1.2-0.4c0.1,0,0.4,0.5,0.4,0.7c0.1,2.5-0.1,4.8,0.2,7.2c0.5,3.1-0.2,6.3,0.7,9.3c1,2.8,1.2,5.9,1.8,8.8
		c0,0.1,0.1,0.4,0,0.5c-0.1,0.2-0.2,0.6-0.4,0.7c-0.4,0.1-1,0.2-1.2,0.1c-1.1-0.6-1.7-1.7-2.1-2.8c-0.6-2-1.1-4-1.6-6.1
		C368.6,26.8,368.4,25.8,368.2,25z"/>
	<path fill="#010101" d="M274.9,68.9c-1.5,0.6-2.8,0.7-4.3-0.1c-1.1-0.6-2.3-0.4-3.4,0.1c-2.1,1-3.9,2.2-5.6,3.7
		c-0.5,0.4-0.9,0.9-1.1,1.3c-0.7,1.3-1.5,2.6-2.1,3.9c-0.6,1.3-0.5,2.7,0.6,3.7c1.7,1.7,3.7,3.1,6.1,3.6c3.4,0.6,6.7,1.2,10.2,1.8
		c0.6,0.1,1.1,0.2,1.7,0.5c0,1.6-0.4,2-1.2,2c-4.5-0.1-9-0.4-13.4-1.5c-1.2-0.4-2.3-0.6-3.2-1.5c-0.9-0.6-1.7-1.1-2.6-1.7
		c-2.1-1.5-3.3-3.4-3.9-5.9c-0.2-1-0.1-2.1,0.5-3.1c1.4-2.1,2.6-4.4,4.8-5.9c1.3-0.9,2.6-2.1,3.9-3.1c1-0.7,2.1-1.1,3.3-1.2
		c2.1-0.1,4.2-0.4,6.3-0.5c1.6-0.1,2.9,0.6,3.8,2C275.4,67.9,275.3,68.4,274.9,68.9z"/>
</g>
<path fill="#FFFFFF" d="M291.1,259.1c3.2-1.7,5.3-4.7,8.8-5.6c2,0.9,3.6,2.1,5.3,3.3c0.6,0.4,1,1,1.3,1.8c0.7,2.1,1.6,4.1,2.1,6.3
	c0.4,2,0.5,4.1,0.5,6.2c0,3.5-1.1,6.8-2.1,10.1c-0.5,1.5-1.4,2.8-2.4,4.1c-1.6,2.2-3.2,4.3-4.9,6.4c-0.5,0.6-1,1.1-1.6,1.5
	c-1.6,1-2.9,2.2-4.4,3.4c-0.8,0.6-1.6,1.1-2.6,1.4c-2.1,0.8-4.1,0.7-5.5-1.4c0.2-3.4,0.2-3.4,1.7-5.4c0-0.9-0.4-1.9,0-2.9
	c0.1-0.3,0-0.7,0-1.1c0-0.4-0.4-0.7-0.7-0.6c-0.2,0.1-0.5,0.1-0.6,0.3c-0.3,0.5-0.5,1.1-0.7,1.7c-0.6,2.2-1.1,4.5-1.9,6.7
	c-1.2,3.5-3.1,6.6-5.3,9.6c-1.9,2.5-4.3,4.3-6.8,6.1c-3.1,2.2-6.3,4.3-9.5,6.4c-0.5,0.3-1.1,0.5-1.7,0.7c-2.6,0.8-5.2,1.5-7.7,2.3
	c-0.9,0.3-1.9,0.6-2.9,0.6c-4.9,0.2-9.8,0-14.7-0.7c-0.5-0.1-1-0.2-1.4-0.4c-2.2-1.2-4.6-1.8-6.9-2.4c-2.6-0.7-5.2-1.5-7.6-2.8
	c-1.2-0.6-2.5-1.1-3.7-1.6c-3.2-1.3-6.1-3.1-8.8-5.3c-3-2.4-5.6-5.2-7.9-8.1c-0.4-0.5-0.8-0.9-1.5-1c-0.8-0.2-1.7-0.4-2.5,0.5
	c2.5,1.4,3.8,3.8,5.6,5.7c0.6,0.6,0.5,1.6,0,2.4c-0.6,0.8-1.2,1.5-2.1,2c-2,1.1-4,2.3-6.1,3.4c-0.5,0.3-1.2,0.4-1.8,0.5
	c-2,0.5-4.1,0.9-6.1,1.4c-2.8,0.7-5.6,0.5-8.4,0.3c-1.2-0.1-2.4-0.2-3.6-0.4c-1-0.2-2-0.2-2.8-0.7c-2.6-1.3-5.4-1.8-8.1-2.2
	c-1.7-0.3-3.3-0.8-4.8-1.8c-0.5-0.3-1-0.7-1.6-0.9c-3.5-1.6-6.5-3.9-9.3-6.5c-0.4-0.4-0.9-0.8-1.5-1.1c-2.5-1.5-4.4-3.5-5.9-5.9
	c-0.2-0.3-0.4-0.6-0.6-0.9c-3.3-3.8-4.3-8.5-4.9-13.3c-0.4-3.3-0.3-6.6,0-9.9c0.1-1.7,0.6-3.4,1.6-4.8c0.3-0.5,0.6-1,0.9-1.5
	c-0.3-0.5-0.6-0.6-1-0.5c-0.1,0-0.2,0.1-0.3,0.2c-1.1,1.3-2.5,1.8-4.1,2.3c-2.1,0.5-3.8,0.1-5.6-1.1c-2.4-1.6-4.1-3.8-5.9-6
	c-2.8-3.4-4.3-7.4-5.5-11.5c-0.2-0.8-0.2-1.7-0.3-2.6c-0.6-5.6-0.2-11,1.8-16.3c1.1-2.9,2.8-5.5,4.4-8.1c0.6-0.9,1.2-1.8,1.9-2.7
	c0.6-0.9,1.4-1.7,2.2-2.4c1.9-1.7,4.1-3.1,6.5-4.1c1.2-0.6,2.4-1.3,3.5-1.9c0-0.6-0.2-0.8-0.6-0.9c-0.4,0-0.7,0-1.1,0.1
	c-0.8,0.3-1.6,0.6-2.4,0.9c-1.4-0.5-2-1.8-2.8-2.8s-1-2.2-1.1-3.5c-0.1-2.5,0-4.9,0.6-7.3c0.6-2.4,1.2-4.8,1.8-7.1
	c0.2-0.6,0.5-1.2,0.8-1.6c1.1-1.3,2.2-2.7,3.7-3.6c0.1-0.1,0.2-0.1,0.3-0.2c2.4-2.5,5.5-3.6,8.7-4.4c1.4-0.4,2.9-0.5,4.4-0.5
	c1.7,0,3.4-0.2,5.1-0.3c0.6,0,1.2,0.1,1.7,0.1c0.8,0.7,0.8,1.6,1.1,2.5c0.8,3.2,2,6.3,3.4,9.3c1.8,3.5,4.4,6.2,7.7,8.3
	c2.8,1.8,5.8,3.3,9,4.1c0.9,0.2,1.8,0.7,2.8,1c1.8,0.6,3.6,0.8,5.4,1c2.6,0.2,5.2,0.2,7.7,0.9c0.7,0.2,1.5,0.2,2.2,0.3
	c2.9,0.3,5.9,0.4,8.8,1c1.9,0.4,3.9,0.6,5.9,0.4c0.2,0,0.5,0,0.7,0c4.8,0.4,9.6-0.1,14.4-0.1c3.3,0,6.6-0.4,9.9-0.6
	c2-0.1,3.9-0.3,5.8-0.8c3.2-0.8,6.4-1.6,9.6-2.5c1.3-0.4,2.5-0.9,3.8-1.4c3.6-1.3,7.2-2.4,10.5-4.4c0.6-0.4,1.3-0.7,1.8-1.2
	c2.4-2.3,4.9-4.5,6.9-7.1c2.5-3.2,4.8-6.6,5.6-10.7c0.1-0.6,0.3-1.2,0.5-1.6c0.5-0.3,1-0.5,1.5-0.5c3.3,0.3,5.8,2,7.9,4.3
	c1.2,1.4,2.4,2.8,3.3,4.4c1,1.7,1.9,3.4,2,5.5c0,0.9,0.3,1.7,0.5,2.5c0.1,0.5,0.2,1,0.2,1.5c0,1.6-0.9,3.1-0.2,4.7
	c-0.8,1.7-0.8,3.6-1.9,5.2c-0.8,1.2-1.5,2.5-2.2,3.8c-0.2,0.3-0.1,0.7,0,1.1c0,0.1,0.4,0.4,0.5,0.3c0.3-0.1,0.7-0.3,0.9-0.6
	c0.8-1.2,1.6-2.5,2.3-3.8c1.1-1.9,2.8-2.7,4.9-2.6c0.9,0,1.7,0.1,2.7,0.2c2.6,1.9,4.8,4.3,6.4,7.3c0.8,1.5,2.1,2.7,2.6,4.4
	c1.3,3.8,2.4,7.7,2.5,11.8c0.1,3.5-0.5,6.8-2,10c-2.2,4.6-4.8,8.8-7.9,12.8c-0.4,0.6-1,1.1-1.6,1.5c-2.5,2-5,4-7.5,5.9
	C290.2,257.6,290.3,258.1,291.1,259.1z"/>
<path fill="#FFFFFF" d="M130.8,272.1c0.5,2.3,0.2,4.5,0.3,6.7c0,2.2,0.4,4.4,0.8,6.6c-0.6,1.2-1.3,2.4-1.9,3.5
	c-0.3,0.5-0.7,1-1.2,1.4c-1.8,1.5-3.5,3-5.9,3.6c-0.6,0.2-1.2,0.4-1.7,0.7c-2.8,1.4-5.9,1.6-9,1.5c-1.3,0-2.7,0.1-4,0
	c-2.2-0.2-4.4-0.5-6.4-1.4c-1.4-0.6-2.7-1.2-4-1.8c-2.1-0.9-3.7-2.3-4.9-4.3c-0.4-0.6-0.8-1.3-1.5-1.5c-0.4-0.1-0.8,0-1,0.3
	c-0.1,0.2-0.2,0.5-0.1,0.6c1,1.7,1.8,3.5,3.5,4.7c0.7,0.5,0.7,1.3,0.3,2c-1.1,1.7-2.5,3-4.4,3.7c-1.6,0.6-3.3,1.1-4.9,1.6
	c-0.5,0.1-1,0.3-1.4,0.3c-1.7-0.2-3.4,0.3-5.1,0.4c-1.8,0.1-3.7,0.2-5.5,0.1c-2.2-0.1-4.4,0-6.6,0.1c-2.1,0.1-4.1-0.3-6.1-1.2
	c-2.4-1.1-5-2-7.5-3c-2.1-0.8-4.1-1.6-5.7-3c-0.5-2.3-1-4.4-1.4-6.6c-0.2-1.1-0.4-2.2-0.3-3.3c0.3-3.7-0.1-7.4-0.1-11
	c-0.1-5.5,1-10.7,3.4-15.7c1.3-2.8,2.7-5.5,3.9-8.3c0.6-1.2,0.9-2.5,1.3-3.8c0.6-1.9,0.2-3.6-1.1-5.2c-0.3-0.4-0.6-0.8-0.8-1
	c-2.3-0.4-4.3-0.8-6.4-1.2c0-0.5-0.2-0.8-0.1-1.2c0.4-2.2,1.3-4.2,2.6-6c1-1.5,2-3.1,3.1-4.6c0.7-1,1.6-1.8,2.5-2.7
	c-0.1-0.3-0.2-0.7-0.5-0.9c-0.7-0.5-1.4-1.1-2.2-1.3c-1.9-0.5-3.7-1.2-5.5-2.1c-1.4-0.7-2.8-0.9-4.3-0.6c-1.3,0.2-2.7,0.4-4,0.6
	c-1.4,1.2-1.8,2.9-2.1,4.6c-0.3,2.5-0.7,5.1-0.2,7.7c0.3,1.4,0.6,2.9,0.9,4.3c0.2,1.1,0.8,2.1,0.4,3.3c-1,0.7-2.3,0.8-3.4,1
	c-1.2,0.2-2.1,0.8-2.7,1.8c-1.1,1.7-2,3.4-1.4,5.5c0.2,0.6,0.1,1.2,0,1.8c-0.8,4.4-0.4,8.8-0.4,13.2c0,0.8,0.3,1.7,0.5,2.5
	c0.1,0.8,0.3,1.7-0.1,2.5c-0.7,0.5-1.4,0.3-2.1,0c-1.2-0.5-2.5-1-3.6-1.8c-4.7-3.3-8.6-7.2-11.3-12.4c-0.8-1.6-1.5-3.3-2.2-5.1
	c-1.5-4.1-1.5-8.2-0.9-12.4c0.5-3.6,1.6-7.2,3.5-10.4c0.5-0.8,0.8-1.8,1.2-2.7c0.3-0.8,0.9-1.5,1.6-2c2-1.5,2.9-2.2,5.9-1.4
	c0.8,1.2,1.7,2.5,2.6,3.9c0.7,1.1,1.7,2.1,2.8,2.8c0.2,0.1,0.6,0.1,0.7,0c0.2-0.3,0.3-0.7,0.3-1c0-0.3-0.3-0.7-0.5-1
	c-0.3-0.5-0.7-1-1.1-1.5c-1.3-1.5-2.1-3.3-3.1-5c-1.5-2.8-2.2-5.7-2.2-8.8c0-4.1,0.8-8,2.7-11.7c0.8-1.4,2-2.5,3-3.7
	c1.6-2,3.7-3.6,5.8-5.1c0.8-0.6,1.7-1,2.6-1.4c1-0.5,2.1-0.6,3.2-0.2c0.7,0.3,1.4,0.5,2.2,0.9c1,2.5,3.2,4.2,4.6,6.5
	c0.5,0.7,1.3,1.1,2.1,1.4c2.7,1.1,5.4,2.2,8,3.7c0.4,0.2,0.9,0.4,1.3,0.6c4.4,1.5,8.8,3.2,13.3,4.3c2.7,0.6,5.5,1.1,8.3,1.4
	c2.9,0.4,5.8,0.9,8.8,1c3.9,0.1,7.5-0.5,11.1-2.1c3-1.3,6.1-2.6,9.3-3.4c2.5-0.6,4.7-2,6.7-3.7c0.5-0.4,0.8-1,1.3-1.3
	c4.4-2.8,7-7.2,9.6-11.5c0.3-0.4,0.5-0.8,0.7-1.2c2.9-0.6,3.2-0.5,4.4,1.4c-0.9,1.1-1.8,2.3-2.8,3.4c-3.1,3.6-4.5,7.7-4.5,12.5
	c0,3.6,0.4,7.1,0.8,10.6c-0.5,2.2-1.4,4.1-2.8,5.9c-1.6,2.2-2.8,4.6-4.2,6.9c-0.3,0.4-0.4,0.9-0.7,1.3c-1.1,1.3-1.6,2.8-2.1,4.3
	c-0.1,0.2-0.2,0.5-0.2,0.7c-1.1,2.8-1.8,5.6-1.6,8.6c0,0.5,0,1-0.1,1.5c-0.7,3,0,5.8,0.6,8.7c0.6,2.4,1.7,4.6,2.3,7
	c0.1,0.5,0.3,1,0.6,1.3c1.8,2.3,3,5,5.1,7.1c1.3,1.3,2.4,2.8,4.2,3.6c0.3,0.1,0.6,0.4,0.9,0.7c1.2,1.4,2.6,2.2,4.3,2.8
	C129.6,271.3,130.2,271.7,130.8,272.1z"/>
<path fill="#FFFFFF" d="M312,228.4c1.3,0.5,2.3,0.9,3.3,1.3c0.4,0.2,0.9,0.4,1.3,0.7c2.8,2.2,6.1,3.1,9.3,4.3
	c0.9,0.3,1.9,0.5,2.8,0.9c4.6,2.3,9.5,3.2,14.5,4.1c1.1,0.2,2.2,0.2,3.3,0.2c3.9-0.1,7.8-0.2,11.8-0.4c0.2,0,0.5,0,0.7,0
	c3.5,0.4,6.8-0.4,10.1-1.4c1.5-0.4,3.1-0.7,4.7-0.9c3.9-0.4,7.7-1.3,11.5-2.5c1.6-0.5,3.1-1.4,4.6-2.3c1.1-0.6,2-1.4,3-2.2
	c0.6-0.5,1.1-1,1.5-1.6c1.9-3.3,4-6.5,4.6-10.4c0.2-1.3,1-1.9,2.2-2.2c1.5-0.4,2.9-0.4,4.4,0c0.7,0.2,1.4,0.5,2,1
	c2.4,2.1,4.6,4.4,5.7,7.6c0.7,2,1.5,3.9,1.8,6c0.4,2.2,0.2,4.4-0.5,6.5c-0.7,2.4-1.6,4.6-3.1,6.6c-0.3,0.4-0.5,0.8-0.7,1.3
	c-0.3,0.6-0.2,1.5,0.3,1.6c0.3,0.1,0.9-0.2,1.2-0.7c0.7-1.2,1.4-2.3,2.1-3.5c0.6-1.2,1.1-2.4,1.6-3.7c0.2-0.6,0.2-1.2,1.1-1.9
	c1.5-0.5,3.5-0.7,5.4-0.3c2,0.5,4,1.4,5,3.4c0.2,0.4,0.5,0.9,0.7,1.3c3.6,5.6,4.2,11.6,2.8,18c-0.9,4-2.9,7.3-5.8,10
	c-1,0.9-2.3,1.4-3.1,2.5c-0.3,0.4-1.1,0.6-1.7,0.7c-1.2,0.1-2.5,0-3.8,0c-1.4-0.5-2.4-2-4.1-2.2c-0.4,0.4-0.4,0.9-0.2,1.4
	c0.6,2.1,0.9,4.3,1.2,6.5c0.4,2.5,0.5,4.9,0.2,7.4c-0.6,5.7-2.6,10.9-6.7,15.2c-2.1,2.1-4.3,4.1-6.6,5.8c-2.8,2-5.8,3.6-9.1,4.7
	c-0.9,0.3-1.9,0.6-2.8,1c-2.3,1-4.5,0.9-6.8,0.2c-1.5-0.5-3-1.2-4.1-2.4c0.1-0.4,0.2-0.8,0.4-1c0.7-0.7,1.4-1.3,2.1-2.1
	c0.5-0.5,1-1.1,1.4-1.7c0.3-0.3,0.1-0.7-0.1-1s-0.7-0.4-1-0.2c-0.2,0.2-0.4,0.3-0.6,0.4c-3.4,3.7-7.5,6.3-12,8.4
	c-0.4,0.2-0.9,0.4-1.3,0.7c-4.2,2.8-8.7,3-13.4,1.8c-2.8-0.7-5.7-1.5-8.5-2.2c-3.6-0.9-6.9-2.5-9.5-5.3c-0.8-0.9-1.3-2.1-2.2-2.9
	c-0.9-0.7-1.8-1.3-2.5-2.2c-1-1.2-1.8-2.6-2.8-3.9c-0.4-0.6-0.9-1.1-1.4-1.7c-0.2-0.2-0.8-0.2-1,0.1c-0.1,0.2-0.2,0.5-0.2,0.7
	c0.2,0.4,0.4,0.9,0.7,1.3c0.6,1,1.3,2.1,2,3.1c0.4,0.7,0.4,1.4,0.2,2.3c-0.8,0.8-1.6,1.7-2.6,2.7c-4,0.7-8.1,1.3-12.2,1.3
	c-1.3,0-2.4-0.4-3.6-0.8c-1.1-0.4-2.3-1-3.4-1.4c-3-1.1-5.3-3.1-7.1-5.6c-0.8-1.1-1.6-2.2-2.4-3.2c0-0.8,0.6-1.1,1.1-1.5
	c2.7-1.9,4.8-4.2,6.5-6.9c1-1.5,2.1-3,3.2-4.5c1-1.3,1.6-2.8,2-4.3c0.5-1.9,0.9-3.8,1.3-5.7c0.4-1.8,0.4-3.6,0.4-5.5
	c-0.2-3.2-0.7-6.3-1.6-9.4c-0.8-2.7-1.8-5.3-2.7-8c-0.6-1.8-1.6-3.3-2.4-4.9C307.9,241,311.2,235.4,312,228.4z"/>
<path fill="#FFFFFF" d="M220.3,175.2c0.9,7.1-1.6,13.3-5.7,18.9c-1.1,1.6-2.7,2.9-4.5,3.7c-3.4,1.5-6.8,2.9-10.5,3.4
	c-1.6,0.2-3.2,0.3-4.8,0.4c-3.7,0.3-7.3,0.7-11,1c-0.9,0.1-1.8,0.2-2.6,0c-3-0.7-6-1-8.9-2.2c-2.7-1.1-5.3-2.5-7.8-4.2
	c-2.7-1.8-4.8-4.1-6.2-7.1c-1.4-2.9-2.7-5.8-3.4-8.9c-0.5-2.3-0.7-4.6-0.7-6.9c0.1-2.4,0.6-4.5,1.5-6.7c1.1-2.6,2.6-5,4.2-7.3
	c0.8-1.3,2.1-2,3.5-2.7c0.6-0.3,1.4-0.4,2.1-0.8c0.6-0.4,1.1-1,1.7-1.3c2-0.9,4-1.9,6.2-2.2c1.2-0.2,2.4-0.4,3.5-1.1
	c0.5-0.3,1.2-0.4,1.8-0.4c3.6-0.1,7.1,0.3,10.4,1.7c0.9,0.4,1.8,0.7,2.8,0.9c2.1,0.4,3.9,1.3,5.8,2.2c3,1.4,6.1,2.6,9.2,3.8
	c2.6,1.1,5.2,2.2,7.8,3.3c3.7,1.6,5.3,4.6,5.5,8.4C220.4,172.5,220.3,173.8,220.3,175.2z"/>
<path fill="#FFFFFF" d="M222.1,166.7c0.6-0.6,1-1.1,1.5-1.4c2.7-1.6,4.8-3.8,7.1-5.9c0.5-0.5,1-1,1.5-1.6c1.6-2,3.3-4,4.8-6
	c2-2.7,4.7-4.3,7.8-5.2c2-0.5,4.2-0.6,6.2-0.2c3,0.7,6,1.3,8.8,2.5c1.4,0.6,2.7,1.3,3.8,2.2c0.9,0.8,2,1.4,3,2.2
	c2.9,2.2,4.6,5.1,5.3,8.6c0.2,1,0.4,1.9,0.7,2.9c0.9,3.6,1.1,7.3,0.8,11c-0.2,2.7-1,5.3-2.4,7.7c-0.8,1.4-1.6,2.8-2.5,4.1
	c-0.8,1.1-1.6,2.1-2.6,3.1c-0.5,0.5-1.2,1-1.8,1.2c-2.1,0.7-4.2,1.3-6.4,1.6c-4.8,0.7-9.6,0.6-14.3,0.6c-1.3,0-2.7-0.3-4-0.6
	c-2.4-0.5-4.8-1-7.2-1.5c-2.8-0.5-5.4-1.7-7.9-3c-0.6-0.3-1.2-0.9-1.7-1.4c-0.8-0.7-1.1-1.5-0.8-2.6c0.9-3.5,1.2-7,0.9-10.6
	c-0.1-0.7-0.1-1.5,0-2.2C222.7,170.4,222.6,168.7,222.1,166.7z"/>
<path fill="#FFFFFF" d="M311.6,224c-0.9-4.9-1.8-9.7-4.5-13.7c0-1.6,0.6-2.8,1.5-3.8c2.7-2.9,5.7-5.4,9-7.5c1.2-0.7,2.4-1.2,3.7-1.5
	c0.5-0.1,1-0.1,1.4-0.3c2.2-1,4.5-1,6.9-0.7c2.6,0.3,5.1,0.9,7.4,1.9c4.5,2,8.9,4.1,13.4,6c2.3,1,4.2,2.6,5.8,4.4
	c2.1,2.4,2.7,5.3,1.7,8.2c-1.9,5.8-5.3,10.5-10.3,13.9c-2.3,1.6-4.8,2.4-7.6,2.4c-1.1,0-2.2-0.1-3.3,0.2c-3.2,0.8-6.3-0.1-9.5-0.5
	c-0.4,0-0.7-0.2-1.1-0.3c-1.9-0.9-3.8-1.8-5.8-2.4c-0.5-0.1-0.9-0.4-1.3-0.7c-1.4-1-2.7-2.1-4.3-2.7
	C313.6,226.4,312.8,225.2,311.6,224z"/>
<path fill="#57C8E3" d="M13.4,332c-1.4-1.1-2.3-2.3-3.1-3.6c-1.3-2.1-2.5-4.2-3.5-6.4c-0.8-1.8-1.2-3.7-1.2-5.7
	c-0.1-2.5-0.2-4.9-0.2-7.4c0-3.6,0.8-7.1,1.9-10.4c0.4-1.2,1.3-2.4,2.1-3.5c2.5-3.4,5.6-6.1,9.3-8.2c0.4-0.2,0.9-0.3,1.5-0.6
	c0.2,0.3,0.5,0.6,0.6,0.9c0.7,1.4,1.5,2.8,2.1,4.3c0.5,1.2,1.3,2,2.1,3c3,3.8,7.3,5.1,11.8,6.1c2.7,0.6,5.3,0.7,8,0.7
	c1.8,0,3.7,0.3,5.4,0.7c1.9,0.4,3,1.8,3.2,3.7c0.2,2.5,0.8,4.8,1.4,7.2c0.5,2.2,0.4,4.4,0.3,6.6c0,0.8-0.8,1.3-1.6,0.9
	c-0.7-0.3-1.3-0.7-2-1c-2.1-1.1-4.3-1.7-6.7-1.7c-2.6,0-5.2,0.1-7.7,0.2c-0.9,0-1.7,0.2-2.5,0.4c-4.9,1.7-9.8,3.2-14,6.3
	c-1.6,1.2-3.1,2.8-4.4,4.4C15.4,329.9,14.5,330.9,13.4,332z"/>
<path fill="#FFFFFF" d="M57.9,193c-1.9,0.2-3.7-0.5-5.5-1.2c-2.1-0.8-4.1-1.7-6.3-2.1c-1.9-0.4-3.2-1.7-4.5-3.1
	c-0.2-0.3-0.4-0.6-0.6-0.9c-1.2-2.2-1.3-6.8-0.1-8.9c2.3-4,4.1-8.4,7-12c0.8-1.1,1.7-2.1,2.5-3.1c0.8-0.9,1.8-1.6,3-2.1
	c0.9-0.4,1.8-0.8,2.7-1.2c2.2-1.1,4.5-1.2,6.8-0.7c3.2,0.7,6.4,1.6,9.2,3.5c1.1,0.8,2.3,1.4,3.5,2.1c3,1.6,5.3,3.9,7.1,6.7
	c1.3,2.1,2.3,4.3,4.2,6c0.4,0.4,0.6,1.1,0.7,1.7c0.1,0.4-0.1,1-0.2,1.4c-0.1,0.3-0.4,0.6-0.6,0.9c-1.2,1.4-2.4,2.8-3.6,4.1
	c-1,1.1-2,2.1-3.3,2.8c-1.4,0.8-2.7,1.6-3.9,2.7c-0.6,0.6-1.4,1-2.3,1.1c-2,0.4-4.1,1-6.1,1.2c-2.3,0.2-4.6,0.6-6.9,1
	C59.7,193.2,58.9,193.2,57.9,193z"/>
<path fill="#FFFFFF" d="M357.8,223.7c0-1.2,0.6-2,0.9-2.9c0.3-0.9,0.6-1.9,1-2.8c1.2-2.6,1-5.2,0-7.9c-0.3-0.9-0.9-1.8-1.5-2.5
	c-1.1-1.2-2.1-2.4-3.2-3.5c0.1-0.1,0.1-0.2,0.2-0.3c0.2-0.2,0.3-0.4,0.5-0.5c4.1-1.1,7.3-3.5,10.2-6.3c2.4-2.4,5.3-4,8.4-5.2
	c2.4-1,4.5-0.8,6.5,1c2.4,2.1,4.9,4.1,6.8,6.7c0.9,1.3,2.2,2.3,3.2,3.5c2.5,2.9,4.2,6.3,5.3,10c0.7,2.2,0.7,4.3,0.1,6.5
	c-0.6,2.4-1.6,4.6-2.9,6.7c-0.7,1.2-1.6,2.2-2.7,3c-1.2,0.9-2.5,1.5-4,1.6c-5.2,0.5-10.3,0-15.1-2.4c-2.1-1-4.4-1.6-6.6-2.1
	C362.3,226,360.1,224.9,357.8,223.7z"/>
<path fill="#FFFFFF" d="M86.3,183.5c0.6-0.9,1-1.7,1.6-2.3c1.2-1.3,1.5-2.7,1.4-4.4c0-0.6-0.1-1.2-0.1-1.8c0-1.2,0.3-2.4,0.9-3.8
	c1-0.7,2.1-1.8,3.3-2.5c2.9-1.6,5.3-3.9,7.6-6.4c0.5-0.5,1-1.1,1.5-1.6c0.9-1,2-1.3,3.3-1.2c4,0.3,7.3,2.1,9.9,4.9
	c2.2,2.3,4.3,4.7,6.1,7.3c1.2,1.7,1.8,3.7,2.5,5.7c0.2,0.5,0.1,1.2-0.1,1.8c-1.3,3.9-3.3,7.4-5.8,10.6c-2.9,3.7-6.8,5.6-11.3,6.3
	c-0.5,0.1-1,0.1-1.4,0c-3.2-0.8-6.5-1.5-9.2-3.6c-0.4-0.3-0.8-0.6-1.3-0.7c-3.5-1.1-5.7-3.7-7.7-6.5
	C87.2,184.6,86.8,184.1,86.3,183.5z"/>
<path fill="#0B606B" d="M36.9,240.9c0.7,1.1,1.3,2,1.8,2.9c0.9,1.6,2.3,2.9,3.4,4.3c0.3,0.3,0.8,0.5,1.2,0.7c0.2,0.1,0.5,0,0.7-0.2
	c0.2-0.1,0.3-0.4,0.3-0.6c0-0.2-0.1-0.5-0.2-0.7c-1.2-2.4-0.8-4.7,0.1-7.1c2.1-0.6,4.1-0.4,6.1,0.6c1.2,1.6,1.2,3.4,0.4,5.2
	c-0.1,0.3-0.3,0.7-0.4,1c-1.2,2.5-2.6,5-3.7,7.6c-1.6,3.8-3.1,7.7-3.9,11.8c-0.1,0.7-0.2,1.5-0.2,2.2c0,4,0,8.1,0.2,12.1
	c0.1,2.2,0.6,4.4,0.9,6.5c0.6,3.4,1.2,6.8,1.8,10.1c0,0.1,0,0.2,0.1,0.4c0.1,1-0.4,1.7-1.4,1.8c-2.2,0.2-3.3,0-6.3-0.9
	c-0.6-2.5-1.2-5.1-1.7-7.8c-1-5.3-2.3-10.5-3.6-15.8c-1.1-4-1.7-8.2-2.3-12.3c-0.1-1,0-2-0.1-2.9c0-1,0-2-0.1-2.9
	c-0.8-4.4,0.2-8.5,1.2-12.7c0.5-2.1,1.8-3.1,3.9-3.4C35.6,240.8,36.1,240.9,36.9,240.9z"/>
<path fill="#0B606B" d="M436.8,294.1c-1.2,0-2.3-0.3-3.2-0.9c-1.2-0.8-2.5-1.6-3.7-2.4c-0.6-0.4-1.2-0.8-1.9-1
	c-1.5-0.4-2.6-1.4-3.6-2.4c-1.7-1.6-2-4.1-0.6-6c0.8-1.2,1.9-2.3,2.9-3.3c0.6-0.6,1.3-1.1,2-1.6c0.6-0.5,1.3-1.1,1.8-1.6
	c2.7,1.4,4.4,4,7,5.5c1.2-2-0.1-3.8-0.1-5.5s-0.2-3.4-0.4-5.1c1.8-2.5,3.6-5,5.5-7.4c0.7-1,1.8-1.7,2.6-2.6c2.2-2.3,4.3-4.7,6.4-7
	c0.5-0.5,0.9-1.2,1.5-1.6c3-2.2,5.3-5.1,8.1-7.4c0.5-0.4,0.9-0.8,1.3-1.2c0.9-1,1.9-1.9,3.1-2.5c1-0.5,1.9-1.1,2.6-2.1
	c0.9-1.2,2.1-2.1,3.3-2.8c1.6-1,3-2.1,4.6-3c1.3-0.8,2.7-1.1,4.2-0.6c0.2,0.7-0.2,1.2-0.6,1.6c-1,1.1-2.4,1.7-3.1,3.1
	c-0.1,0.3-0.5,0.5-0.9,0.7c-1.2,0.4-2,1.4-3,2.1c-2.9,2-5.1,4.5-7.1,7.4c-0.2,0.3-0.4,0.6-0.7,0.9c-4.1,3.8-7.3,8.2-10.2,12.9
	c-0.9,1.4-1.9,2.9-2.9,4.2c-2.3,3.1-3.8,6.5-5.8,9.7c-1,1.6-1.8,3.5-2.8,5.1c-1.4,2.3-2.3,4.9-3.5,7.3c-0.8,1.6-1.5,3.3-2,5.1
	C437.5,292.3,437.1,293.2,436.8,294.1z"/>
<path fill="#57C8E3" d="M485.7,299c-0.5,0.9-1.2,1.5-2,1.8c-1.6,0.5-3.3,1-5,1.3c-0.9,0.2-1.7-0.1-2.2-0.9c-0.3-0.4-0.6-0.8-0.9-1.1
	c-0.8-0.8-1.8-1.2-3-1.2c-0.7,0-1.5,0.1-2.2,0.2c-1.4,0.1-2.4-0.6-2.7-1.9c-0.1-0.4-0.2-0.7-0.2-1.1c0-1.2,0-2.4,0-3.7
	c0-0.9,0.4-1.6,0.9-2.3c0.4-0.5,0.9-0.8,1.6-0.8c0.1,0,0.2,0,0.4,0c2.3,0.6,4-0.3,5.5-2c1-1.2,2.2-2.3,3.2-3.4
	c1.1-0.1,2.1,0.2,3,0.6c0.8,0.4,1.2,1.2,0.8,2.1c-0.1,0.2-0.2,0.4-0.4,0.6c-0.3,0.5-0.1,1,0.3,1.3c1.7,1.4,3.6,2.2,5.7,1.2
	c3.1-1.3,3.2-0.2,3.7,2c0.1,0.4,0.1,0.9,0.1,1.5c-1.2,0-1.8-1-2.6-1.3c-0.8-0.4-1.6-0.5-2.6-0.3c-0.6,0.6-1.4,1.3-2,2
	c-0.4,0.4-0.7,1-1,1.5c-0.3,0.7-0.5,1.4-0.3,2.1c0.2,0.9,1,0.9,1.6,1.3C485.4,298.6,485.4,298.7,485.7,299z M480.5,293.7
	c0-1.6-0.2-2.2-0.8-3c-0.6-0.9-1.6-1.2-2.5-0.8c-2.1,0.8-3.8,2.1-5.4,3.7c-0.3,0.3-0.4,0.6-0.1,1c0.1,0.2,0.3,0.5,0.5,0.5
	c2.3,0.2,4.6,0.5,6.9,0.6c0.3,0,0.8-0.5,1.1-0.8C480.4,294.4,480.5,293.9,480.5,293.7z"/>
<path fill="#0B606B" d="M37.1,320.1c2.5-0.6,5-0.8,7.5-0.7c0.5,0,0.9,0.3,1.4,0.4c-0.1,0.8-0.1,1.6-0.2,2.3
	c-0.2,0.9-0.8,1.6-1.7,1.7c-2,0.1-3.9,0.2-5.9,0.2c-0.5,0-1.1-0.6-1.2-1.2C36.8,321.9,36.7,321.1,37.1,320.1z"/>
<path fill="#0D8D9E" d="M491.1,299.8c-0.2-0.3-0.4-0.6-0.7-0.7c-1.6-0.7-3.1-1.3-4.7-2c-0.4-0.2-0.7-0.7-0.5-1.2
	c0.2-0.6,0.3-1.2,0.6-1.7c0.8-1,2.1-1.5,3.1-0.4c1.8,1.8,3.5,3.7,5.3,5.5c0.1,0.2,0.1,0.4,0.2,0.8c-0.4,0-0.7,0.2-1,0.1
	c-0.8-0.2-1.5-0.8-2.4-0.4H491.1z"/>
<path fill="#0D8D9E" d="M491.9,281.5c-0.4,0.7-0.8,1.5-0.8,2.4c-0.1,1.2-0.3,2.4-0.9,3.6c-1.6,1.2-3.3,1.8-5.2,0.1
	c1.5-2.4,3.6-4.2,5.4-6.2c0.6,0.1,1,0.2,1.5,0.3V281.5z"/>
<path fill="#0D8D9E" d="M469.9,279.5c0.2,0,0.5,0,0.7,0.1c1.5,1.2,3.1,2.4,4.6,3.6c0.6,0.5,0.6,1.3,0.1,2c-0.7,1-1.6,1.6-2.6,1.9
	c-0.3,0.1-0.7-0.2-1-0.3c-0.1,0-0.2-0.2-0.2-0.3c-0.6-2.1-1.2-4.2-1.8-6.3C469.6,280,469.8,279.7,469.9,279.5z"/>
<path fill="#0D8D9E" d="M465.5,293.2c0.1,0.3,0.3,0.5,0.3,0.7c0,0.7,0,1.4,0,2.2c-0.4,0.2-0.7,0.5-1,0.5c-1.2,0.1-2.4,0.3-3.6,0.3
	c-0.6,0-1.6,0.6-1.8-0.4c-0.1-0.8,0.9-1,1.5-1.3C462.4,294.5,463.9,293.6,465.5,293.2z"/>
<path fill="#0D8D9E" d="M472.1,300.9c0.9,0,1.6,0,2.2,0.6c-0.8,2.2-2.1,4.8-3.3,6.3c-0.1,0.1-0.3,0.1-0.3,0.1
	c-0.2-0.1-0.4-0.3-0.4-0.5c0.1-0.7,0.1-1.5,0.4-2.1C471.1,303.8,471,302.3,472.1,300.9z"/>
<path fill="#0D8D9E" d="M482.2,303.5c0.5-0.5,0.7-0.8,1-1c1.6-1.1,2.4-0.9,2.5,1.2c0,1,0.1,2,0.2,2.9c0,0.2-0.1,0.5-0.1,0.7
	c-0.3,0.2-0.7,0.3-0.9,0C484,306.1,483.1,304.9,482.2,303.5z"/>
<path fill="#0D8D9E" d="M494.3,293.1c-0.4-0.9-0.3-1.7-0.1-2.6c1.6-0.5,3.3-0.5,5-0.3c0.1,0,0.2,0.1,0.2,0.2s0.1,0.3,0,0.4
	c-0.1,0.2-0.3,0.4-0.5,0.5c-1.2,0.6-2.4,1.2-3.6,1.8C495,293.1,494.6,293,494.3,293.1z"/>
<path fill="#010101" d="M154.7,253.8c-0.5-1.8-0.9-3.4-1.5-4.9c-1.3-3.9-1.6-7.9-1.7-12c0-2.1,0.8-4.1,1-6.1c0.1-0.6,0.7-1,1.3-1.2
	c2.3-0.6,4.6-0.9,6.9-0.4c2.2,0.5,4.3,1.1,6.5,1.4c0.7,0.1,1.4,0.5,2,0.8c0.7,0.3,1,1.3,0.7,1.9c-0.5,1.1-0.9,2.3-1.7,3.3
	c-1.9,2.4-2.7,5.2-3.7,8c-0.7,2.1-1.2,4.2-1.7,6.4c-0.1,0.6-0.1,1.2-0.2,1.6c0.4,0.5,0.7,0.6,1.1,0.5c3.6-0.8,7.3-1,11-1.2
	c2.7-0.2,5.4-0.2,8-1.2c5-1,10.1-2.2,15.2-2.3c0.8,0,1.5,1.1,1.3,1.9c-0.4,1.7-1.6,2.7-3.3,3.1c-1.2,0.3-2.4,0.5-3.6,0.8
	c-1.3,0.3-2.5,1.1-3.6,1.8c-1.8,1.2-2.8,2.7-2,5c0.6,1.7,0.5,3.4-0.1,5.1c-0.3,0.8-0.4,1.7-0.6,2.5c-3.5,4.2-2.1,3.4-7.7,3.7
	c-1.7,0.1-3.4,0-5,0.8c-3.4,0.4-6.7,1.5-10,2.5c-1.8,0.5-3.5,1.1-5.2,1.7c-1.9,0.6-4.4-0.1-5.6-1.8c-1.5-2.2-2.9-4.5-4.4-6.8
	c-1.1-1.7-1.7-3.6-2.1-5.5c-0.6-2.7,0.4-5.1,2.1-7.2c0.5-0.7,1.3-1.1,2.2-1.3c0.7-0.2,1.4-0.4,2.1-0.6
	C153.1,254,153.7,253.9,154.7,253.8z M159.6,262.5c-1.2-1.6-2.7-3-3-5c0-0.2-0.2-0.4-0.4-0.6c-0.4-0.7-1.4-1.2-2.2-1
	c-1.5,0.3-2.8,0.9-4,1.8c-0.7,0.5-1.1,1.3-1.2,2.2c-0.1,1.1-0.1,2.2,0.3,3.3c0.6,1.9,1.3,3.7,1.8,5.6c0.6,2,2,3.3,3.5,4.6
	c0.7,0.6,1.5,0.8,2.4,0.8c1.2,0.1,2.4-0.1,3.6-0.6c0.8-0.4,1.6-0.7,2.3-1.1c1.6-1,3.4-1.3,5.2-1.5c3.6-0.4,7.3-1,10.9-1.4
	c1.6-0.2,3.1-0.9,4.3-1.9c0.5-0.5,1-1.1,1.3-1.7c0.6-1.5,1-3,0.4-4.6c-0.2-0.5-0.2-1-0.4-1.4c-0.4-1.4-0.3-2.6,0.4-3.8
	c3-2.2,6.1-3.7,9.7-4.3c0.2,0,0.5-0.2,0.7-0.3c0.2-0.1,0.7-0.1,0.5-0.6c-0.8-0.3-1.4,0.4-2.1,0.4s-1.5,0-2.2,0.1
	c-0.5,0-1,0.1-1.4,0.3c-3.9,1.2-8,1.4-11.9,2c-2.7,0.4-5.4,0.5-8.1,0.7c-2.6,0.2-5,0.9-7.3,2.2c-0.1,2.1,0.5,4,1,5.9
	c0.2,1,0.2,1.3-0.3,1.6c-0.6,0.4-1.1,0.3-1.7,0C161.1,263.2,160.4,262.8,159.6,262.5z"/>
<path fill="#010101" d="M254.3,230.2c0.3-0.6,0.5-1.1,0.6-1.4c0.3-0.2,0.5-0.4,0.7-0.4c0.6-0.2,1.2-0.2,1.8-0.4
	c4.9-1.3,9.7-0.8,14.4,1c1.5,0.6,2.2,1.5,2.1,3c-0.1,1-0.2,2-0.5,2.9c-0.9,2.9-1.7,5.9-3.2,8.6c-1.7,3.1-2.9,6.5-4.6,9.6
	c-0.5,1-0.9,2-1.5,3c-1.5,2.7-2.9,5.4-3.8,8.3c-0.2,0.6-0.6,1-1.4,1c-0.1-0.2-0.3-0.4-0.3-0.6c0-0.6,0-1.2,0.1-1.8
	c1-5,0.7-10,0.8-15c0-2.1-0.3-4.1-0.9-6.1c-0.7-2.3-1.4-4.7-2.1-7C256.1,233,255.7,231.3,254.3,230.2z"/>
<path fill="#010101" d="M233,243.2c-0.1,3.3-0.7,6.6-1.6,9.8c-0.3,1.2-0.5,2.4-0.8,3.6c-0.6,3-2.4,5.3-4.4,7.5
	c-0.6,0.6-1.4,1-2.3,1.1c-0.3,0-0.8-0.1-1-0.3s-0.1-0.7,0.2-0.9c3.3-2.8,5-6.5,6.1-10.6c1.5-5.9,0.1-11.2-2.9-16.1
	c-2-3.2-5.2-5.2-8.9-6c-0.6-0.1-1.2,0-1.7-0.5c-0.1-0.1-0.1-0.2-0.1-0.3c-0.1-0.3,0-0.5,0.2-0.6c1.6-0.5,3.2-0.3,4.7,0.2
	c1.6,0.5,3.2,1.2,4.7,2c1.6,0.7,3,1.6,4.2,2.9c0.8,0.9,1.8,1.6,2.7,2.5c0.7,0.7,1.1,1.6,1.1,2.6C233.1,241,233.1,242.1,233,243.2z"
	/>
<path fill="#010101" d="M246.4,312.5c1.8-0.3,3.3-0.7,4.9-0.9c2.9-0.4,5.3-1.8,7.9-3c0.4-0.2,0.8-0.6,1.1-0.9
	c1.2-1.3,2.6-2.3,4.1-3.1c3.4-2,6.6-4.3,9.4-6.9c0.6-0.1,1,0.1,1.3,0.5c0.3,0.5,0.3,1,0,1.4c-0.4,0.6-0.8,1.2-1.3,1.7
	c-2.2,2.1-4.5,4.1-6.8,6.2c-0.4,0.3-0.8,0.6-1.1,0.9c-1.9,2.2-4.5,3.3-7.2,4.1c-2.2,0.7-4.5,1.3-6.7,1.9c-0.8,0.2-1.7,0.2-2.5-0.2
	C248.8,313,247.3,313.3,246.4,312.5z"/>
<path fill="#010101" d="M138.5,282.4c0.5-0.1,0.9,0,1,0.3c0.2,0.4,0.3,0.9,0.5,1.4c0.7,1.7,1.2,3.5,2,5.1c1.5,3.3,4.2,5.7,7.1,7.8
	c1.1,0.8,2.2,1.5,3.1,2.5c0.6,0.6,1.3,1.1,2.1,1.5c0.6,0.4,1.4,0.6,1.9,1.1c1.7,1.3,3.6,2.1,5.7,2.5c0.4,0.1,0.9,0.4,1.2,0.7
	c0.1,0.1,0.1,0.5,0,0.6c-0.2,0.5-0.7,0.8-1.2,0.7c-1.2-0.3-2.4-0.5-3.5-1.1c-2.6-1.4-5.3-2.5-7.7-4.3c-2.4-1.7-4.5-3.8-6.6-5.9
	c-0.9-0.8-1.6-1.9-2.2-2.9c-1.3-2.2-2.8-4.3-3.2-7c-0.1-0.6-0.2-1.2-0.3-1.8C138.5,283.4,138.5,282.9,138.5,282.4z"/>
<path fill="#010101" d="M219.1,249.4c0,1.7-0.1,3.5-1,5.2c-0.7,1.4-1.4,2.9-2.1,4.3c-0.4,0.7-1,1.1-1.8,1.1c-0.2,0-0.5-0.3-0.5-0.4
	c0-0.3,0.2-0.7,0.3-1c0.5-1,1.1-1.9,1-3.1c-0.1-0.8,0.5-1.4,0.8-2c0.9-1.6,1.1-3.2,0.5-5c-0.2-0.7-0.3-1.4-0.5-2.1
	c-0.5-1.7-1.2-3.2-2.2-4.6c-1.2-1.6-2.6-2.9-4.7-3.3c-0.5-0.1-0.9-0.3-1.3-0.5c-0.1,0-0.2-0.2-0.2-0.3c0-0.2,0.1-0.5,0.3-0.6
	c0.6-0.5,1.4-0.5,2.1-0.4c1.5,0.3,2.8,1,3.9,1.9c1.5,1.1,2.7,2.5,3.7,4c0.8,1.1,1.1,2.5,1.3,3.8C219,247.3,219,248.2,219.1,249.4z"
	/>
<path fill="#010101" d="M301.1,238.9c-0.1-0.2-0.3-0.4-0.3-0.6c0.1-0.3,0.2-0.7,0.4-1c0.2-0.4,0.5-0.9,0.6-1.3
	c0.9-3.8,1.7-7.7,0.8-11.6c-0.8-3.6-2.2-7-4.6-9.9c-0.4-0.5-0.8-0.9-1.2-1.4c0.2-0.5,0.3-1,0.5-1.4c0.2-0.3,0.5-0.5,0.7-0.7
	c1,0.1,1.7,0.6,2.1,1.4c0.8,1.4,1.8,2.7,2.2,4.2c0.8,2.8,2.1,5.5,1.5,8.6c-0.1,0.6,0.1,1.2,0.1,1.8c0.2,3.1-0.1,6.1-0.5,9.2
	C303.3,237.4,302.5,238.4,301.1,238.9z"/>
<path fill="#010101" d="M120.3,237.7c0.6,1.1,0.4,1.8,0.2,2.5c-1.1,4-1.1,8,0.4,11.9c0.6,1.5,1.3,2.9,2.2,4.2
	c0.6,0.9,1.6,1.5,2.3,2.3c0.3,0.3,0.3,0.7,0,1c-0.3,0.2-0.7,0.3-1,0.2c-0.4-0.1-0.9-0.4-1.2-0.8c-2.6-2.4-4.1-5.5-5-8.8
	c-0.8-3-0.6-6.1-0.8-9.1c0-0.6,0.3-1.4,1.3-1.4c0.2,0,0.4-0.2,0.5-0.4C119.6,238.9,119.8,238.5,120.3,237.7z"/>
<path fill="#010101" d="M199.9,243.9c0.1-0.4,0.1-0.8,0.3-1c0.3-0.3,0.9-0.6,1.3-0.6c1.6,0.2,3.1,0.6,4,2.1c0.3,0.5,0.7,1,1.2,1.4
	c1.3,1.3,1.6,2.9,1.3,4.7c-0.1,0.7-0.2,1.4-0.3,2.2c-0.2,1.2-0.7,2.3-1.5,3.3c-0.2,0.3-0.5,0.5-0.9,0.5c-0.4-0.1-0.7-0.6-0.6-1.1
	c0.1-0.5,0.1-1,0.3-1.4c0.2-0.6,0.4-1.2,0.5-1.7c0.7-2.8-0.8-5.9-3.5-7.3C201.3,244.6,200.7,244.3,199.9,243.9z"/>
<path fill="#010101" d="M303.9,267.5c0.4,0.3,0.8,0.4,0.9,0.7c0.4,0.9,0.4,1.9,0.3,2.9c-0.6,4.7-2.3,9-5.2,12.7
	c-0.9,1.2-2,2.1-3.1,3.1c-0.2,0.2-0.7,0.3-1,0.3c-0.5,0-0.9-0.3-0.8-0.9c2.8-2.1,3-2.4,5.1-5.1c1.4-1.9,2.1-4.1,3-6.2
	C304,272.5,303.5,270.1,303.9,267.5z"/>
<path fill="#010101" d="M264.3,297.1c0.6,0.4,0.5,1,0.3,1.6c-0.2,0.4-0.5,0.9-0.8,1.2c-2.2,1.9-4.5,3.7-7.1,5.1
	c-1.5,0.8-3,0.9-4.6,0.9c-0.5,0-1-0.2-1.2-0.7c0.2-0.5,0.4-0.9,0.9-1c4.4-0.6,7.9-2.9,10.9-6.1c0.3-0.4,0.8-0.6,1.1-0.9
	C264,297.1,264.2,297.1,264.3,297.1z"/>
<path fill="#010101" d="M130.2,197.3c-1-0.3-0.8-1.1-0.9-1.8c0-0.5,0.2-0.9,0.4-1.4c1.2-2.7,2.9-5.1,5.5-6.7c0.7-0.5,1.4-1,2.1-1.5
	c1.2-0.8,2.6-1.3,4.1-1.3c0.6,0,1.1,0.3,1,0.7c-0.1,0.4-0.3,0.6-0.7,0.7c-5.9,1-9.4,4.8-11.2,10.3
	C130.4,196.6,130.3,196.9,130.2,197.3z"/>
<path fill="#010101" d="M157.2,298.5c-0.2,0.2-0.3,0.5-0.4,0.5c-0.8,0.2-1.5,0-2.1-0.4c-1.6-1.1-3.2-2.3-4.7-3.4
	c-0.2-0.1-0.3-0.4-0.5-0.5c-2.3-2.2-2.3-2.2-3.6-5c-0.3-0.5-0.4-1.1-0.6-1.7c0-0.1,0.1-0.2,0.2-0.3c0.1,0,0.2,0,0.3,0
	c0.7,0.3,1,1,1.3,1.7c1.2,2.3,2.9,4.2,4.9,5.8c1.3,1.1,2.9,1.8,4.4,2.6C156.7,297.9,157,298.2,157.2,298.5z"/>
<path fill="#010101" d="M296,219.7c0.8,0.1,1.4,0.5,1.7,1.2c1.6,3.3,2,6.7,0.6,10.2c-0.1,0.2-0.4,0.3-0.5,0.3
	c-0.2,0-0.4-0.2-0.4-0.4c-0.1-0.2,0.1-0.5,0.1-0.7c0.1-0.5,0.2-1,0.2-1.4c0.2-3.7,0.8-4.7-1.7-7.9
	C295.7,220.9,295.7,220.8,296,219.7z"/>
<path fill="#010101" d="M286.6,196.5c-0.8-0.2-1-0.8-1.2-1.3c-0.3-0.9-0.2-1.9-0.6-2.8c-0.8-1.9-1.8-3.8-3.3-5.2
	c-0.5-0.5-1-1-1.5-1.6c-0.1-0.1-0.1-0.4-0.1-0.6c0-0.2,0.7-0.3,1-0.1c2.4,1.9,4.5,4.1,5.3,7.2c0.2,0.9,0.4,1.9,0.5,2.9
	C286.6,195.5,286.6,196,286.6,196.5z"/>
<path fill="#010101" d="M299.7,271.5c0.1,0.9,0.3,1.9,0.3,2.8c0,1.4-0.4,2.6-1.4,3.6c-0.7,0.7-1.3,1.4-2,2c-0.3,0.3-0.6,0.4-0.9,0.2
	c-0.2-0.1-0.3-0.7-0.1-1s0.5-0.6,0.7-0.8c1.5-1.8,2.7-3.7,2.4-6.2C298.6,271.6,299.1,271.3,299.7,271.5z"/>
<path fill="#010101" d="M123.6,242.4c0.2,2.6-0.6,4.5,0,6.5c0.6,1.8,2,3,3,4.6c-0.2,0.1-0.5,0.4-0.6,0.3c-1.5-0.7-2.5-1.8-3.1-3.4
	C122,247.8,121.8,245.4,123.6,242.4z"/>
<path fill="#010101" d="M133.8,194.8c-0.1-0.4-0.3-0.6-0.3-0.8c0.2-0.6,0.4-1.2,0.9-1.6c1.1-1.1,2.4-2,3.9-2.7
	c0.3-0.2,0.9,0,0.9,0.3c0,0.2-0.1,0.6-0.2,0.6C137,191.8,135.4,193.3,133.8,194.8z"/>
<path fill="#010101" d="M279.1,189.4c1.5,0.7,2.5,1.9,3,3.5c0.3,1,0.7,2.1-0.1,3.1c-0.2-0.2-0.5-0.3-0.5-0.4c-0.4-2-1-3.7-2.5-5.1
	C278.7,190.1,278.8,189.7,279.1,189.4z"/>
<path fill="#010101" d="M14.2,230c0.4-0.1,0.8,0.2,0.7,0.6c-0.2,0.9-0.5,1.9-0.9,2.8c-1.6,3.9-1.5,7.8-1,11.9
	c0.2,1.2,0.8,2.3,1.4,3.4c0.2,0.5,0.1,1-0.2,1.4c-0.5,0-1-0.2-1.1-0.7c-0.4-1.2-0.8-2.3-1-3.5c-0.6-3.5-1-7-0.2-10.5
	C12.3,233,12.5,232.6,14.2,230z"/>
<path fill="#010101" d="M79,294.8c0,0.5,0.1,0.8,0,0.8c-1.3,1-2.9,1.3-4.5,1.5c-2.7,0.3-5.4,0.5-8.1,0.3c-1.5-0.1-2.9-0.5-4.2-1.1
	c-0.3-0.1-0.4-0.5-0.7-0.9c1.3-0.3,2.5-0.4,3.7,0c2.1,0.6,4.3,0.6,6.5,0.5c0.8,0,1.7-0.2,2.5-0.5C75.8,295.1,77.4,295.1,79,294.8z"
	/>
<path fill="#010101" d="M115.9,292.7c0.3-0.7,0.7-0.9,1.2-1.1c0.8-0.3,1.6-0.5,2.4-0.7c1.6-0.5,3.1-1.3,4.5-2.4
	c1.3-1.1,2.6-2.1,4-3.1c0.2-0.2,0.5-0.1,0.6,0.2c0,0.1,0,0.3,0,0.3c-1.8,2.3-3.6,4.6-6.6,5.4c-1,0.3-2,0.8-3,1.2
	C117.9,292.9,117,293.1,115.9,292.7z"/>
<path fill="#010101" d="M25.1,206.8c-0.6-1.8,0.4-3.4,0.8-5c0.4-1.5,0.8-3.1,1.9-4.3c0.6-0.7,1.2-1.5,1.9-2.2
	c0.2-0.3,0.6-0.4,0.9-0.6s0.9-0.1,0.9,0.2c0,0.2,0.1,0.5-0.1,0.7c-0.8,0.9-1.8,1.6-2.5,2.6c-1.4,1.9-2.4,3.9-2.6,6.3
	c-0.1,0.7-0.3,1.4-0.6,2.1C25.7,206.7,25.4,206.7,25.1,206.8z"/>
<path fill="#010101" d="M123.4,282.9c-0.8,2-2.2,3.5-4.3,4.1c-0.6,0.2-1.2,0.1-1.8,0.1c-0.2,0-0.3-0.2-0.4-0.4c0-0.1,0-0.3,0.1-0.3
	c1.9-1.4,3.7-2.7,5.8-3.7C122.9,282.5,123.2,282.7,123.4,282.9z"/>
<path fill="#010101" d="M16.6,238.3c-0.1,0.3-0.2,0.7-0.3,1c-0.5,1.3-0.5,2.6,0,3.9c0.2,0.7,0.4,1.4,0.6,2.1
	c0.2,0.7-0.1,1.3-0.4,1.1c-0.3-0.1-0.7-0.3-0.8-0.6c-0.8-1.8-1.1-3.7-0.9-5.6c0.1-0.6,0.3-1.2,0.4-1.7
	C15.3,237.8,15.8,237.8,16.6,238.3z"/>
<path fill="#010101" d="M66.9,291c0.2-0.1,0.5-0.2,0.7-0.2c2.3,0.4,4.6,0.3,6.9-0.5c0.1,0,0.3,0.1,0.3,0.2c0,0.2,0,0.5-0.1,0.6
	c-2.4,1.3-4.8,1.6-7.4,0.6C67,291.5,67,291.1,66.9,291z"/>
<path fill="#010101" d="M31.8,200.3c-1.3,1.5-1.9,2.4-2.5,4.3c-0.1,0.4-0.1,1-0.8,1.1c-0.1-2.3-0.1-3,0.7-4.1
	C29.8,200.7,30.6,200.1,31.8,200.3L31.8,200.3z"/>
<path fill="#010101" d="M31.7,200.4C31.8,200.4,31.5,200.1,31.7,200.4L31.7,200.4z"/>
<path fill="#010101" d="M315.9,263.4c0.2-0.4,0.3-0.8,0.5-1c1-1.1,2.2-2,3.5-2.6c1.2-0.5,2.5-1.1,3.7-1.6c1.4-0.6,2.8-0.8,4.3-0.8
	c0.8,0,1.4,0.9,1,1.5c-1.5,2.3-1.6,4.8-1.8,7.4c-0.2,3.2,0.8,6.1,1.7,9c0.3,1,1.1,1.9,1.6,2.9c0.3,0.6,0.4,1.2,0.3,1.8
	c-0.1,0.4-0.8,0.8-1.1,0.5c-0.2-0.1-0.4-0.2-0.6-0.4c-3.4-4-6.9-8-10.3-12C317.7,266.6,316.6,265.1,315.9,263.4z"/>
<path fill="#010101" d="M367.7,307.4c-0.1,1-0.7,1.5-1.6,1.8c-2.1,0.7-4.2,1.4-6.3,1.9c-3.6,0.8-7.3,0.8-10.9-0.2
	c-1.1-0.3-2.1-0.8-3-1.4c-1-0.7-2-1.4-3-2.1c-0.4-0.3-0.6-0.7-0.5-1.3c0.1-0.4,0.8-0.4,1.3,0c1.6,1.2,3.4,1.9,5.1,2.8
	c0.9,0.4,1.8,0.7,2.7,1c2.8,0.9,5.5,0.5,8.2-0.5c2.2-0.8,4.4-1.6,6.5-2.3C366.8,307,367.3,307.1,367.7,307.4z"/>
<path fill="#010101" d="M397.4,300.7c0.6-0.5,1.3-1.1,2-1.5c4.5-3.1,6.9-7.5,7.9-12.8c0.2-1,0.3-1.9,0.6-2.9
	c0.1-0.5,0.6-0.7,1.2-0.4c0.1,0.5,0.1,1.1,0.2,1.7c0.4,2.3-0.4,4.4-1.5,6.3c-0.6,1.2-1.4,2.3-2,3.5c-0.6,1.2-1.6,2.2-2.5,3.2
	c-1.4,1.6-3,2.9-4.9,3.8C398,301.7,397.8,301.5,397.4,300.7z"/>
<path fill="#010101" d="M425.2,258.3c0.5-1.1,0.9-1.9,1.2-2.7c1.3-3.3,1-6.5-1.1-9.4c-0.6-0.8-1.1-1.6-1.7-2.4
	c-0.1-0.1-0.2-0.2-0.1-0.3c0.1-0.3,0.2-0.7,0.4-1c0.1-0.1,0.5-0.1,0.6,0.1c1.8,1.7,3,3.8,3.6,6.2c0.7,3,0.9,6,0,9
	c-0.1,0.3-0.3,0.7-0.5,1c-0.2,0.3-0.6,0.4-0.9,0.2C426.3,258.9,425.9,258.7,425.2,258.3z"/>
<path fill="#010101" d="M302.5,297.5c0.3,0.1,0.7,0.2,0.9,0.5c1.2,1.4,2.6,2.6,4,3.7c1.1,0.9,2.1,1.6,3.5,1.8
	c0.5,0.1,0.9,0.4,1.3,0.6c0.1,0.1,0.2,0.4,0.2,0.6c-0.1,0.2-0.3,0.3-0.5,0.4c-0.1,0.1-0.2,0-0.4,0c-3.2-0.9-6.1-2.3-8.6-4.7
	c-0.8-0.7-1.1-1.6-1-2.6C301.9,297.8,302.3,297.7,302.5,297.5z"/>
<path fill="#010101" d="M410.1,229.4c-0.3-0.1-0.8-0.2-0.9-0.4c-0.3-0.6-0.6-1.3-0.8-2c-0.3-0.8-0.5-1.6-0.8-2.4
	c-0.4-1.1-1.2-1.8-2.3-2.3c-1-0.4-2.1-0.8-2.6-1.8c-0.1-0.2,0-0.4,0.1-0.7c0-0.1,0.2-0.2,0.3-0.1c0.2,0,0.5,0.1,0.7,0.2
	c1.9,0.6,3.4,1.9,4.5,3.5c0.8,1.2,1.4,2.5,2,3.9C410.7,227.9,410.7,228.7,410.1,229.4z"/>
<path fill="#010101" d="M404.2,286.8c0,0.2,0.1,0.5,0,0.7c-0.8,2.4-1.9,4.7-3.8,6.5c-0.3,0.2-0.6,0.4-0.9,0.6
	c-0.3,0.2-0.9,0.1-1-0.2c0-0.2,0-0.5,0.1-0.6c0.2-0.3,0.5-0.5,0.8-0.8c0.9-1,1.7-2,2.5-3.1c0.3-0.5,0.4-1.1,0.6-1.7
	c0.2-0.6,0.3-1.2,0.6-1.7c0.1-0.1,0.4-0.3,0.6-0.2C403.8,286.4,404,286.6,404.2,286.8z"/>
<path fill="#010101" d="M354.8,308.3c-1.4-0.3-2.9-0.2-4.3-0.9c-0.3-0.2-0.6-0.4-0.9-0.6c-0.3-0.2-0.4-0.8-0.2-1
	c0.2-0.1,0.4-0.2,0.6-0.2c0.4,0,0.8,0.1,1,0.3c2.2,1.5,4.6,1.4,7,0.6c0.2-0.1,0.5-0.1,0.7,0c0.2,0,0.5,0.2,0.5,0.4s-0.2,0.4-0.3,0.6
	c-0.1,0.1-0.2,0.2-0.3,0.2C357.5,308.1,356.2,308.3,354.8,308.3z"/>
<path fill="#010101" d="M423.7,253.7c-0.3-0.1-0.5-0.1-0.7-0.3c-0.1-0.2-0.2-0.5-0.2-0.7c0.5-2,0.2-3.9-0.8-5.7
	c-0.1-0.2-0.1-0.5-0.1-0.7c0-0.1,0.1-0.3,0.2-0.3c0.2,0,0.6-0.1,0.6,0C424.6,248.5,424.9,251,423.7,253.7z"/>
<path fill="#010101" d="M306.7,297.5c0.2,0,0.6,0,0.7,0.1c1.1,1.5,2.7,2.3,4.3,3.3c0.1,0.1,0.2,0.3,0.1,0.3
	c-0.1,0.2-0.3,0.4-0.4,0.4c-0.9,0.1-1.7-0.2-2.4-0.6c-1.2-0.7-2-1.8-2.6-3C306.4,297.9,306.6,297.7,306.7,297.5z"/>
<path fill="#010101" d="M406.1,229.3c-0.1,0.1-0.1,0.3-0.2,0.3c-0.2,0-0.5,0.1-0.7,0c-0.3-0.2-0.5-0.5-0.7-0.8
	c-0.5-0.9-0.8-2.1-1.7-2.8c-0.1-0.1-0.1-0.4-0.1-0.6s0.6-0.3,1-0.1C405.4,226.1,406.2,227.4,406.1,229.3z"/>
<path fill="#010101" d="M209.4,176.3c-0.2,0.4-0.4,0.9-0.8,1.2c-2.4,2.1-4.9,4-7.9,5.2c-1.7,0.7-3.2,0.5-4.2-1.1
	c-2.1-3.3-4.5-6.4-5-10.5c-0.1-1.2-0.7-2.3-0.6-3.6c0-0.6,0.8-1.1,1.3-0.7c1.8,1,3.6,2,5.4,3.1c1.1,0.7,2.1,1.2,3.3,1.5
	c1.8,0.5,6.6,3.1,8.1,4.2C209.2,175.7,209.2,176,209.4,176.3z"/>
<path fill="#010101" d="M250.6,162.5c-0.4,2.8-0.9,6.1-1.3,9.4c-0.2,1.6-1.2,2.7-2.2,3.7c-0.7,0.7-1.7,1-2.7,1c-3,0-5.9-0.2-8.5-1.8
	c-0.9-0.6-2-0.9-3-1.3c-0.9-0.4-1.8-0.8-2.5-1.6c-0.8-0.9-0.5-1.7,0.5-1.9c5.2-1.3,9.7-4,13.8-7.3c1.5-1.2,3.1-2.3,4.9-3.2
	c0.4-0.2,1.1,0.2,1.1,0.6C250.6,160.6,250.6,161.3,250.6,162.5z"/>
<path fill="#010101" d="M348.6,217c0,0.2,0,0.5-0.1,0.7c-0.2,0.3-0.5,0.6-0.8,0.7c-3.1,1.4-6.3,2.8-9.3,4.3
	c-2.5,1.3-4.7,0.8-6.8-0.9c-1.5-1.2-2.5-2.6-3.6-4.1c-0.7-0.9-1.2-1.8-1.7-2.8c-0.1-0.3-0.1-0.8,0.1-1s0.7-0.4,1-0.3
	c4,1.2,8.1,1.7,12.2,2.3c2.4,0.4,4.9,0.3,7.3,0.4c0.5,0,1,0,1.4,0.1C348.4,216.6,348.5,216.9,348.6,217z"/>
<path fill="#010101" d="M8.7,311.2c-0.2-5,1.1-8.7,3.2-12.3c0.8-1.3,1.6-2.5,2.4-3.7c0.4-0.6,1.1-0.9,1.9-1c0.1,0,0.3,0,0.3,0.1
	c0.1,0.2,0.3,0.4,0.3,0.6c-0.1,0.8-0.7,1.3-1.2,1.8c-1.4,1.4-2.2,3.2-3.1,5c-0.2,0.4-0.4,0.9-0.4,1.4c-0.2,2.7-1.3,5.2-1.2,8
	c0,1.1,0,2.2,0.1,3.3c0.1,1.4,0.5,2.6,1.3,3.8c0.5,0.7,0.9,1.5,1.3,2.2c0.2,0.3,0.2,0.7,0.3,1c0.1,0.3-0.2,0.9-0.4,0.9
	c-0.2,0-0.5,0-0.7-0.1c-1.2-1-2.1-2.2-2.5-3.6c-0.6-2.3-1.7-4.6-1.4-7.1C8.8,311.2,8.7,310.8,8.7,311.2z"/>
<path fill="#010101" d="M64.7,169.8c0-1.1,0.2-2.2,1-3.1c0.4-0.4,1.2-0.6,1.7-0.3c0.4,0.3,0.8,0.6,1.1,1c1.6,2.1,3.5,3.7,5.9,4.8
	c1,0.4,1.9,1.1,2.9,1.6c0.7,0.4,1,1,1.4,1.7c0.2,0.4,0.2,1.1-0.2,1.4c-1.9,1.6-3.7,3.1-5.6,4.7c-0.3,0.2-0.6,0.5-0.9,0.7
	c-1.7,1.2-3.2,1-4.3-0.8c-0.6-0.9-1-2-1.3-3C65.4,175.6,65,172.7,64.7,169.8z"/>
<path fill="#010101" d="M375.8,213.1c-3.8,0.4-6.4,0.4-9.9-0.1c0-0.2-0.2-0.5-0.1-0.7c0.1-0.3,0.4-0.7,0.6-0.9
	c3.4-2.2,6.3-5,9.5-7.4c0.9-0.6,1.7-1.4,2.6-2.1c0.3-0.2,0.6-0.4,1-0.5c0.6-0.3,1.6,0.4,1.6,1.1c0,0.5-0.1,1-0.3,1.4
	c-1,2.2-2.3,4.3-3,6.7C377.5,211.6,376.8,212.4,375.8,213.1z"/>
<path fill="#010101" d="M98.6,182.3c-2.6-0.9-4.5-2.7-6.2-4.8c-0.4-0.5-0.4-1.3,0-1.7c1.9-2.1,3.7-4.2,5.7-6.2
	c0.8-0.9,1.8-1.6,2.8-2.3c0.3-0.2,0.7-0.1,1.1-0.2c0.4,0,1.1,0.4,1.1,0.8c0.1,0.8,0.2,1.7,0.1,2.5c-0.4,2.4-1,4.8-1.5,7.2
	c-0.2,0.8-0.5,1.6-0.7,2.5C100.6,181.1,99.8,181.8,98.6,182.3z"/>
<path fill="#010101" d="M32.1,254.6c0.1-2.3,0.3-4.6,1.4-6.8c0.1-0.1,0.4-0.2,0.6-0.2c0.1,0,0.2,0.2,0.2,0.3
	c0.1,0.4,0.2,0.7,0.1,1.1c-0.1,1-0.2,1.9-0.3,2.9c-0.3,2.5-0.6,5.1,0.1,7.6c0,0.2-0.1,0.4-0.3,0.6c-0.1,0.2-0.8,0-0.9-0.2
	c-0.1-0.2-0.3-0.4-0.4-0.6c-0.1-0.3-0.2-0.7-0.3-1.1C32.2,257.1,32.2,255.8,32.1,254.6z"/>
<path fill="#010101" d="M35.7,257.9c-0.6-0.1-1-0.3-1.1-0.8c-0.5-2.2-0.2-4.3,1-6.3c0.1-0.2,0.4-0.3,0.6-0.2c0.2,0,0.5,0.3,0.5,0.4
	c-0.1,2-0.2,4.1-0.4,6.1C36.3,257.3,35.9,257.6,35.7,257.9z"/>
<path fill="#010101" d="M453,253.4c0.1,0.2,0.3,0.5,0.2,0.6c-1.4,2.4-2.9,4.8-4.9,6.8c-1.9,1.9-3.5,4.1-5.3,6.1
	c-0.3,0.4-0.7,0.7-1.1,0.9c-0.2,0.1-0.5,0.1-0.7,0c-0.2-0.1-0.4-0.4-0.3-0.6c0.1-0.5,0.1-1,0.4-1.4c0.4-0.6,1-1.1,1.5-1.6
	c2.8-3.1,5.6-6.2,8.4-9.2C451.7,254.4,452.1,253.7,453,253.4z"/>
<path fill="#010101" d="M441.3,274.5c-0.2-0.1-0.3-0.1-0.4-0.2c-0.3-0.4-0.5-0.8-0.3-1.3c0.4-1,0.9-2,1.7-2.8
	c1.4-1.2,2.5-2.7,3.5-4.2c0.6-0.9,1.4-1.6,2.3-2.3c0.1-0.1,0.4,0,0.6,0.1c0.1,0,0.1,0.2,0.1,0.3c-0.4,1.4-0.9,2.8-1.9,3.9
	c-1.8,1.8-3.4,3.8-4.7,6C441.9,274.2,441.5,274.4,441.3,274.5z"/>
<path fill="#010101" d="M480.5,293.7c-0.1,0.2-0.1,0.7-0.3,1.1c-0.2,0.4-0.7,0.9-1.1,0.8c-2.3-0.1-4.6-0.4-6.9-0.6
	c-0.2,0-0.4-0.3-0.5-0.5c-0.3-0.4-0.1-0.7,0.1-1c1.6-1.5,3.3-2.8,5.4-3.7c1-0.4,1.9-0.1,2.5,0.8
	C480.3,291.5,480.5,292.2,480.5,293.7z M478,291.2c-1.8,0.5-3.2,1.3-4.6,2.2c-0.1,0.1-0.1,0.4-0.1,0.7c0,0.1,0.1,0.2,0.2,0.2
	c1.8,0.2,3.5,0.5,5.3,0C479,293.2,478.7,292.4,478,291.2z"/>
<path fill="#0D8D9E" d="M159.6,262.5c0.7,0.4,1.5,0.7,2.2,1.1c0.6,0.3,1.1,0.4,1.7,0c0.5-0.3,0.5-0.6,0.3-1.6
	c-0.4-1.9-1.1-3.8-1-5.9c2.3-1.3,4.7-2,7.3-2.2c2.7-0.2,5.4-0.3,8.1-0.7c4-0.6,8.1-0.8,11.9-2c0.5-0.1,1-0.2,1.4-0.3
	c0.7-0.1,1.5-0.1,2.2-0.1c0.7,0,1.3-0.8,2.1-0.4c0.1,0.5-0.3,0.4-0.5,0.6c-0.2,0.1-0.4,0.2-0.7,0.3c-3.6,0.6-6.7,2.1-9.7,4.3
	c-0.7,1.2-0.8,2.5-0.4,3.8c0.1,0.5,0.2,1,0.4,1.4c0.6,1.6,0.2,3.2-0.4,4.6c-0.3,0.6-0.8,1.2-1.3,1.7c-1.2,1.1-2.7,1.7-4.3,1.9
	c-3.6,0.5-7.3,1-10.9,1.4c-1.9,0.2-3.6,0.6-5.2,1.5c-0.7,0.4-1.5,0.8-2.3,1.1c-1.1,0.5-2.4,0.7-3.6,0.6c-0.9,0-1.7-0.3-2.4-0.8
	c-1.6-1.2-2.9-2.6-3.5-4.6c-0.6-1.9-1.2-3.7-1.8-5.6c-0.4-1.1-0.4-2.2-0.3-3.3c0.1-0.9,0.5-1.6,1.2-2.2c1.2-0.9,2.5-1.5,4-1.8
	c0.8-0.2,1.7,0.3,2.2,1c0.1,0.2,0.3,0.4,0.4,0.6C157,259.5,158.4,260.9,159.6,262.5z"/>
<path fill="#0D8D9E" d="M478,291.2c0.7,1.1,1.1,2,0.7,3.1c-1.7,0.5-3.5,0.2-5.3,0c-0.1,0-0.2-0.1-0.2-0.2c0-0.2,0-0.6,0.1-0.7
	C474.7,292.5,476.2,291.8,478,291.2z"/>
</svg>
